####
#
# OBJ File Generated by Meshlab
#
####
# Object domain0617.obj
#
# Vertices: 740
# Faces: 1476
#
####
v 196.357971 46.416607 118.081299
v 196.520386 46.477882 117.870384
v 196.455612 46.285786 118.086174
v 196.429596 46.083912 118.990898
v 196.291092 46.380703 119.003830
v 196.383545 46.048485 119.999153
v 196.279648 46.375584 119.998199
v 196.389816 46.043114 120.982040
v 196.301727 46.374855 120.947922
v 196.448929 46.329803 121.437218
v 196.343430 46.793217 118.077660
v 196.540817 46.785320 117.826981
v 196.260635 46.805504 119.002022
v 196.279419 46.798466 119.997459
v 196.328751 46.790226 120.939430
v 196.511780 46.797741 121.394279
v 196.431427 47.103374 118.045334
v 196.357193 47.153908 119.003067
v 196.393250 47.117867 119.997169
v 196.448639 47.068741 120.963013
v 196.826157 45.242836 121.033478
v 196.964539 45.206463 120.525108
v 197.017578 45.065445 121.036476
v 197.005539 44.907894 121.987091
v 196.816772 45.210075 122.000046
v 197.035156 44.930420 122.951576
v 196.906754 45.222580 122.926888
v 197.098511 45.212318 123.245232
v 196.683777 45.812832 119.031525
v 196.950394 45.848831 118.569733
v 196.984116 45.643280 119.053864
v 196.911545 45.424152 119.979515
v 196.619797 45.712395 120.020409
v 196.535339 45.696869 121.019539
v 196.663696 45.718288 121.991356
v 196.841263 45.707878 122.923889
v 197.067108 45.705040 123.269875
v 196.912186 46.445545 117.773178
v 196.891586 46.090855 118.088280
v 196.602631 46.264000 121.981995
v 196.878143 46.212696 122.896812
v 197.107407 46.187469 123.203423
v 196.927719 46.879871 117.663902
v 196.759644 46.791157 121.941116
v 196.969757 46.809193 122.466370
v 197.001801 46.520947 122.928993
v 196.625458 47.452312 118.040901
v 196.988007 47.406277 117.744225
v 196.524231 47.490875 118.998108
v 196.647247 47.429829 119.972893
v 196.702332 47.338390 120.963783
v 196.978378 47.283344 121.400024
v 196.981033 47.025497 121.943947
v 196.886993 47.899609 118.070259
v 197.075836 47.841473 117.862877
v 196.848160 47.904476 118.965233
v 196.980469 47.876347 119.414261
v 196.952927 47.646507 119.982193
v 196.989609 47.486950 120.939240
v 197.021576 48.000526 118.077141
v 197.026520 48.029442 118.945908
v 197.271744 44.642193 122.026581
v 197.533249 44.667114 121.565002
v 197.568649 44.439217 122.037437
v 197.573975 44.330227 122.961937
v 197.278717 44.623802 122.973198
v 197.569229 44.619270 123.420700
v 197.228897 45.217934 120.034729
v 197.486359 45.314888 119.595459
v 197.482300 45.149899 120.107025
v 197.475708 44.882748 121.042435
v 197.449127 45.130371 123.579773
v 197.477783 45.787399 118.545227
v 197.478714 45.496075 119.068642
v 197.471146 45.732483 123.594910
v 197.468185 46.438908 117.755737
v 197.473068 46.086025 118.066505
v 197.509583 46.266479 123.427139
v 197.466324 46.893223 117.639809
v 197.251572 46.781868 122.934090
v 197.587021 46.671780 123.205994
v 197.462997 47.430782 117.681015
v 197.491821 47.181156 122.000702
v 197.484879 47.393764 121.470795
v 197.557755 46.911907 122.904411
v 197.383408 47.825542 117.830338
v 197.482971 47.757381 120.002617
v 197.482285 47.956772 119.462799
v 197.482040 47.563496 120.949425
v 197.411484 48.033081 118.094971
v 197.478210 48.093472 118.962570
v 197.876648 44.075058 122.998283
v 198.100220 44.007351 122.514381
v 198.177170 43.876972 122.996078
v 198.124496 44.019783 123.474304
v 198.120331 44.561798 121.512314
v 198.042526 44.200378 122.002823
v 198.139526 44.299557 123.941689
v 197.918533 44.596500 123.898300
v 198.265930 44.639210 124.198959
v 197.759583 45.187218 120.018173
v 198.062134 45.130798 120.503769
v 198.020203 44.924637 121.032158
v 197.831940 45.124027 123.940613
v 198.218063 45.119556 124.235626
v 197.991852 45.879990 118.599060
v 197.998642 45.627666 119.074608
v 198.096725 45.322895 119.984070
v 197.883835 45.654598 123.908539
v 198.242401 45.535225 124.158714
v 197.886261 46.474720 117.850014
v 197.978180 46.181637 118.126099
v 198.122131 45.894737 123.909752
v 198.042252 46.305862 123.594727
v 197.910645 46.881844 117.771935
v 198.070755 46.711475 123.271660
v 197.859589 47.357231 117.807838
v 198.079590 47.186794 121.992393
v 198.027618 47.357681 121.450035
v 198.066376 46.946281 122.921051
v 197.967621 47.693333 118.067123
v 197.709030 47.945118 118.068954
v 197.966599 47.945347 118.533112
v 198.019989 47.653473 119.981148
v 197.980255 47.892422 119.423805
v 197.979614 47.500656 120.944397
v 197.934433 48.024139 118.983032
v 198.390015 44.011028 122.035889
v 198.737244 44.140224 121.764130
v 198.724442 43.851192 122.071800
v 198.638428 43.583763 122.987053
v 198.713547 43.731178 123.939400
v 198.411804 44.003899 123.952065
v 198.786804 44.075199 124.239304
v 198.657410 44.543827 121.522202
v 198.687576 44.557205 124.365639
v 198.369446 45.112419 120.984367
v 198.767532 45.002895 121.265717
v 198.671219 45.109726 124.378532
v 198.307800 45.787643 119.039925
v 198.563507 45.795410 119.531609
v 198.541702 45.616177 120.033867
v 198.673767 45.384026 120.967957
v 198.667023 45.568138 124.250267
v 198.173492 46.385880 118.130844
v 198.455795 46.368397 118.609016
v 198.560074 46.059319 119.044556
v 198.662354 45.961658 123.953651
v 198.645462 46.335278 123.588570
v 198.259476 46.894039 118.092484
v 198.501190 46.839443 118.572205
v 198.564423 46.679276 123.247017
v 198.125214 47.387367 118.091324
v 198.572678 47.128429 119.016014
v 198.411316 47.466537 118.994202
v 198.319122 47.434067 119.978409
v 198.581680 47.123802 119.996567
v 198.283264 47.355881 120.976189
v 198.565659 47.112675 121.013245
v 198.576065 46.990868 121.985588
v 198.553391 46.875603 122.924568
v 198.105179 47.900372 118.993889
v 198.966721 43.377983 123.010292
v 199.239731 43.362606 122.501190
v 199.272446 43.103111 123.009773
v 199.289185 43.112907 123.974510
v 199.012970 43.428661 123.968582
v 199.391159 43.408894 124.336777
v 199.283295 44.033035 121.717255
v 199.219925 43.619656 122.014404
v 199.263290 43.956963 124.438889
v 199.237518 44.543110 121.526970
v 199.246384 44.533154 124.476669
v 199.251282 45.113354 121.441734
v 199.239365 45.108028 124.420013
v 198.692673 45.827610 120.039215
v 198.892502 45.747623 120.998833
v 199.263474 45.663364 121.402618
v 199.228546 45.563564 124.250862
v 198.664764 46.363777 119.081940
v 198.784348 46.301228 120.020416
v 198.949478 46.310890 121.008827
v 199.191727 46.227440 121.547699
v 199.250488 45.932503 123.920326
v 199.173813 46.234238 123.446220
v 198.669907 46.800568 119.053299
v 198.720703 46.794865 120.003197
v 198.765320 46.802479 121.011177
v 199.173569 46.525974 122.017670
v 198.893539 46.795975 121.982330
v 198.848755 46.743069 122.954185
v 199.167862 46.509777 122.977043
v 199.754883 42.302757 124.006317
v 199.895325 42.249382 123.525391
v 199.958710 42.009357 124.002861
v 199.883133 42.220985 124.488052
v 199.583023 42.818092 123.036575
v 199.904510 42.861889 122.580437
v 199.865875 42.522629 123.024002
v 199.490829 42.785103 124.025070
v 199.900543 42.503468 124.967171
v 199.828568 42.774147 124.904900
v 200.092819 42.731754 125.264786
v 199.564545 43.417988 122.041725
v 199.913605 43.573265 121.814919
v 199.881851 43.225704 122.112991
v 199.817505 43.057205 124.897217
v 199.699631 43.480816 124.694336
v 199.825272 43.981113 121.653999
v 199.774170 43.997097 124.669014
v 199.810242 44.537823 121.593086
v 199.820114 44.540333 124.541794
v 199.788849 45.111305 121.611427
v 199.814697 45.083561 124.384148
v 199.699570 45.595726 121.732552
v 199.715881 45.496704 124.194595
v 199.743530 45.921997 122.036858
v 199.466583 46.228916 122.020287
v 199.484726 46.241299 122.984741
v 199.801437 45.987751 123.016602
v 199.726761 45.748028 123.922623
v 200.220459 41.734978 124.048714
v 200.482712 41.780151 123.595291
v 200.510925 41.553234 124.054634
v 200.484680 41.361607 124.975883
v 200.282913 41.684887 125.007652
v 200.505447 41.360992 125.972679
v 200.397598 41.688473 125.942505
v 200.617081 41.662704 126.417633
v 200.173126 42.264015 123.055359
v 200.493607 42.396873 122.774841
v 200.470413 42.071606 123.117516
v 200.032944 42.163631 125.040321
v 200.367767 42.122280 125.912727
v 200.596970 42.107330 126.264893
v 200.442963 42.807716 122.452065
v 200.418121 42.449429 125.890755
v 200.405838 42.860271 125.626900
v 200.247757 43.548988 121.855156
v 200.355469 43.204407 122.117432
v 200.059967 43.391411 125.028931
v 200.452377 43.330227 125.375183
v 200.269821 43.965061 121.760185
v 200.209488 43.903446 124.929901
v 200.572388 43.780193 125.192039
v 200.271286 44.525593 121.743523
v 200.474258 44.126686 124.891792
v 200.364975 44.541019 124.573982
v 200.212906 45.015209 121.801437
v 200.302841 45.000542 124.271278
v 200.327652 45.325607 122.067436
v 200.038422 45.627411 122.044250
v 200.126129 45.720562 123.002937
v 200.439377 45.499153 122.997902
v 200.025146 45.584579 123.948601
v 200.349747 45.334427 123.940079
v 200.906693 40.532269 126.031044
v 201.056213 40.482605 125.523834
v 201.094055 40.217014 126.017555
v 201.078293 40.185478 126.980789
v 200.954422 40.519852 126.953568
v 201.138901 40.478825 127.431236
v 200.757141 41.058353 125.039604
v 201.059753 41.076485 124.558083
v 201.031616 40.758209 125.018814
v 200.644241 41.011482 126.018631
v 200.881165 41.031773 126.941002
v 201.128998 41.027184 127.447067
v 201.019760 41.714043 123.547539
v 200.988220 41.361618 124.060654
v 200.834015 41.528961 126.881927
v 201.152878 41.526466 127.284859
v 200.903595 42.392727 122.795738
v 200.950577 42.048351 123.111504
v 201.037155 41.871010 126.960480
v 200.972336 42.218529 126.615898
v 200.969986 42.808800 122.580750
v 200.728821 42.749470 125.964912
v 201.070114 42.631546 126.295944
v 200.596191 43.420208 122.094345
v 201.011215 43.337303 122.402405
v 201.036987 42.984314 125.941971
v 200.980133 43.379139 125.584801
v 200.669937 43.955231 122.038414
v 201.052505 43.945667 122.398102
v 201.001846 43.796791 125.272797
v 200.644470 44.530506 122.051559
v 201.008911 44.500622 122.520149
v 201.015701 44.158962 124.909424
v 200.928741 44.474190 124.442436
v 200.551453 45.062263 122.108261
v 200.836823 45.024097 122.582405
v 200.663513 45.073387 123.964233
v 200.974548 44.800919 123.979828
v 200.912476 45.044304 123.475655
v 200.855164 45.163036 123.004585
v 201.509659 39.374474 127.035393
v 201.690186 39.366245 126.590599
v 201.703949 39.061623 127.026360
v 201.724930 39.071507 127.952843
v 201.582321 39.363686 127.931145
v 201.784775 39.351295 128.247696
v 201.374924 39.926762 126.056023
v 201.647736 40.006561 125.594093
v 201.648880 39.694481 126.084373
v 201.231567 39.839840 127.017403
v 201.465042 39.866207 127.928650
v 201.733414 39.854919 128.289474
v 201.345551 40.506161 125.055672
v 201.662598 40.628307 124.757301
v 201.641495 40.310917 125.115700
v 201.368652 40.408558 127.914932
v 201.727036 40.419506 128.262543
v 201.584961 40.991619 124.418060
v 201.431549 40.966644 127.898193
v 201.779953 40.911793 128.193802
v 201.568176 41.709988 123.659805
v 201.581757 41.346455 124.031059
v 201.629517 41.278099 127.945663
v 201.556381 41.632870 127.615662
v 201.264267 42.230927 123.047180
v 201.649277 42.127190 123.357887
v 201.316956 42.156322 126.962875
v 201.659332 42.033352 127.285156
v 201.395691 42.876778 122.780449
v 201.548569 42.510395 123.043350
v 201.637329 42.353798 126.907402
v 201.571594 42.673595 126.452324
v 201.435562 43.366409 122.719009
v 201.586838 43.039436 125.972862
v 201.571487 43.395050 125.577293
v 201.397491 43.867599 122.740883
v 201.493225 43.757107 125.250595
v 201.477844 44.176807 123.036247
v 201.275803 44.527184 123.015846
v 201.252380 44.506859 123.972321
v 201.541748 44.212601 124.010994
v 201.486649 43.991310 124.924774
v 201.018661 44.985283 123.017334
v 201.971695 38.768337 127.043068
v 202.281860 38.794933 126.723526
v 202.250397 38.462505 127.039810
v 202.191864 38.405872 127.988052
v 201.946014 38.740692 127.979622
v 202.215424 38.733105 128.447098
v 202.182693 39.215969 126.412621
v 202.131226 39.263489 128.590790
v 202.179367 39.971924 125.558983
v 202.173019 39.596256 126.034058
v 202.150345 39.879406 128.607910
v 202.083817 40.632568 124.770493
v 202.120087 40.297253 125.115433
v 202.175339 40.429394 128.487976
v 202.159439 41.049194 124.460655
v 202.192764 40.960171 128.325424
v 201.998764 41.775734 123.803566
v 202.105164 41.437111 124.108078
v 201.911697 41.543941 127.929695
v 202.176392 41.339592 128.124969
v 202.055908 42.207108 123.666946
v 202.171402 41.690269 127.847832
v 202.168198 42.018364 127.419983
v 201.738815 42.831970 123.103271
v 202.061447 42.751732 123.544289
v 202.181900 42.388897 126.916977
v 202.123215 42.654690 126.433075
v 201.783142 43.380398 123.091034
v 202.022751 43.311050 123.569344
v 202.120117 42.946682 125.925331
v 202.063995 43.263939 125.417809
v 201.632660 43.858814 123.073410
v 202.064636 43.584442 124.020851
v 201.829742 43.897118 123.988327
v 201.774933 43.817169 124.951721
v 202.049179 43.558319 124.970078
v 202.654846 37.594524 128.029205
v 202.811401 37.544636 127.521996
v 202.823029 37.257671 128.011398
v 202.841660 37.254364 128.973770
v 202.738419 37.597271 128.934525
v 202.985153 37.522930 129.316544
v 202.537003 38.148899 127.060699
v 202.882843 38.221127 126.761314
v 202.808517 37.846539 127.047516
v 202.383072 38.071613 128.019394
v 202.635925 38.109333 128.927063
v 202.913773 38.089275 129.271194
v 202.771088 38.702183 126.578049
v 202.507034 38.658821 128.929565
v 202.892838 38.675282 129.262512
v 202.792694 39.219273 126.353737
v 202.503662 39.259762 128.956238
v 202.897354 39.245274 129.237534
v 202.623138 39.990932 125.733978
v 202.709274 39.651691 126.071976
v 202.572205 39.793045 128.906891
v 202.920547 39.663723 129.145721
v 202.419479 40.491634 125.054626
v 202.761353 40.401031 125.478233
v 202.809799 40.021526 128.895645
v 202.718719 40.460442 128.605255
v 202.588669 41.111080 124.733696
v 202.698502 40.770916 125.052078
v 202.720261 40.943302 128.320404
v 202.304810 41.682823 124.122856
v 202.618942 41.593723 124.564102
v 202.435730 41.542938 127.946617
v 202.790070 41.359066 127.984459
v 202.778931 41.646690 127.535774
v 202.395279 42.224632 124.069763
v 202.621994 42.148472 124.563095
v 202.602264 42.015255 127.244743
v 202.314560 42.767078 124.049927
v 202.686050 42.445194 125.013390
v 202.529465 42.788242 124.986191
v 202.394836 42.713608 125.956879
v 202.669830 42.429817 126.007362
v 202.623779 42.209499 126.920166
v 202.204910 43.273529 124.048264
v 202.251602 43.255268 124.968185
v 203.303757 35.857033 129.037186
v 203.460464 35.846340 128.586349
v 203.461441 35.542183 129.027328
v 203.430756 35.499989 129.978134
v 203.327087 35.835770 129.945999
v 203.529739 35.813114 130.429001
v 203.293549 36.431332 128.091171
v 203.505157 36.507832 127.787643
v 203.448257 36.191307 128.109268
v 203.125687 36.356598 129.009827
v 203.276840 36.334724 129.931320
v 203.488571 36.316929 130.313339
v 203.043625 36.920788 128.014160
v 203.384628 36.944542 127.540710
v 202.964127 36.893505 129.031464
v 203.285995 36.843567 129.916702
v 203.540009 36.813683 130.220367
v 203.106308 37.573051 127.063385
v 203.438522 37.711781 126.815575
v 203.393295 37.349209 127.107651
v 203.329178 37.179443 129.887711
v 203.292648 37.628838 129.657990
v 203.362915 38.126995 126.644135
v 203.336945 38.097157 129.529587
v 203.339050 38.683296 126.526726
v 203.353470 38.666805 129.426895
v 203.349380 39.255005 126.442169
v 203.332260 39.224522 129.330811
v 202.965347 39.894863 126.057793
v 203.390854 39.802586 126.359978
v 203.247925 39.643372 129.181274
v 203.134705 40.395592 125.948181
v 203.502182 40.412975 126.366356
v 203.301407 40.019615 128.897461
v 203.332733 40.413589 128.544083
v 202.901611 41.103794 125.114861
v 203.119675 41.027660 125.613121
v 203.299576 40.737312 126.023369
v 203.242020 40.831432 128.245316
v 202.877655 41.598953 125.057472
v 203.251678 41.272961 126.021774
v 203.119156 41.622684 125.987312
v 203.089569 41.625019 127.000511
v 203.323883 41.312187 127.014069
v 203.249374 41.096474 127.935349
v 202.807343 42.110168 125.049210
v 202.874908 42.110626 125.997597
v 202.790451 42.061485 126.936401
v 203.827621 34.665016 130.029449
v 203.983353 34.614620 129.521973
v 203.995010 34.327682 130.011398
v 204.013641 34.324364 130.973785
v 203.915085 34.667328 130.933258
v 204.158524 34.592640 131.315414
v 203.709213 35.217182 129.055603
v 204.013870 35.249310 128.681595
v 203.973724 34.909634 129.037506
v 203.576416 35.152363 130.018341
v 203.832504 35.173279 130.917236
v 204.098343 35.147961 131.254456
v 203.883362 35.654831 128.346573
v 203.769196 35.669155 130.872940
v 204.126770 35.642277 131.196487
v 203.965790 36.407463 127.683807
v 203.912064 35.995277 127.988312
v 203.963379 36.014633 130.955917
v 203.856567 36.408043 130.663315
v 203.959686 36.891758 127.398575
v 203.947479 36.894386 130.451492
v 203.834076 37.705528 126.809135
v 203.889664 37.320045 127.088432
v 203.658737 37.475716 129.958679
v 204.022766 37.321899 130.228516
v 203.898773 38.123753 126.656380
v 203.965332 37.711742 129.937775
v 203.894043 38.139465 129.646927
v 203.911392 38.677128 126.590584
v 203.912918 38.649315 129.420044
v 203.898026 39.258190 126.598015
v 203.806244 39.136322 129.242416
v 203.852707 39.813129 126.669312
v 203.597198 39.798687 128.952042
v 203.899963 39.526134 128.967148
v 203.943314 39.883556 128.530777
v 203.780640 40.315159 126.720711
v 203.769089 40.338478 128.281967
v 203.332413 40.993355 126.127151
v 203.758316 40.660576 126.986275
v 203.575607 40.973225 127.009315
v 203.528473 40.887699 127.948578
v 203.786926 40.616951 127.954575
v 204.460999 32.918442 131.030701
v 204.598267 32.872898 130.531235
v 204.613800 32.599026 131.017670
v 204.593445 32.564098 131.979187
v 204.497559 32.905483 131.945801
v 204.700104 32.882858 132.429779
v 204.442398 33.482922 130.079086
v 204.693466 33.510887 129.759323
v 204.610306 33.170227 130.063095
v 204.290466 33.423988 131.009171
v 204.448486 33.404797 131.931625
v 204.660599 33.386929 132.313339
v 204.210754 33.987457 130.012619
v 204.548645 33.998428 129.527664
v 204.135864 33.963558 131.031754
v 204.457993 33.913567 131.916702
v 204.712021 33.883690 132.220383
v 204.274673 34.637459 129.056320
v 204.607010 34.766113 128.770081
v 204.566635 34.404301 129.091888
v 204.501221 34.249462 131.887741
v 204.465027 34.698387 131.658127
v 204.537933 35.210564 128.462860
v 204.513748 35.162830 131.516403
v 204.236267 35.781918 128.042633
v 204.507278 36.009056 127.872261
v 204.514465 35.624493 128.129150
v 204.543686 35.710941 131.363297
v 204.492371 36.390236 127.670387
v 204.242798 36.302937 130.960678
v 204.607910 36.130573 131.191147
v 204.513931 36.919739 127.493408
v 204.552933 36.521446 130.918030
v 204.489655 36.932816 130.592972
v 204.199173 37.533764 127.038414
v 204.596268 37.413639 127.323708
v 204.515335 37.364536 130.288498
v 204.317200 38.192013 126.802078
v 204.479507 37.821693 127.045692
v 204.515823 37.748642 129.948532
v 204.498199 38.136776 129.586411
v 204.345963 38.674866 126.767929
v 204.408569 38.565960 129.285004
v 204.296661 39.161510 126.804588
v 204.185303 39.227413 128.964752
v 204.478989 38.933369 128.962799
v 204.462463 39.229351 128.481720
v 204.390610 39.482243 127.042862
v 204.194641 39.835598 127.037048
v 204.234543 39.853828 127.995483
v 204.450333 39.510105 127.988686
v 203.961456 40.321400 127.059715
v 203.976624 40.329838 127.944000
v 205.136688 31.204741 132.023163
v 205.264938 31.256012 131.769958
v 205.226425 31.143616 132.017212
v 205.212723 31.259634 132.401520
v 204.950516 31.687288 132.015915
v 205.133163 31.635183 131.489273
v 205.207520 31.528988 132.871445
v 205.093613 31.739048 132.904068
v 205.297974 31.826296 133.141708
v 204.864746 32.273163 131.043808
v 205.178741 32.312004 130.580048
v 205.126984 31.961704 131.018433
v 204.725845 32.205257 132.017258
v 204.998627 32.244324 132.921997
v 205.271210 32.231644 133.223419
v 204.872864 32.896599 130.068604
v 205.195663 33.024448 129.811707
v 205.158646 32.679855 130.114639
v 204.940933 32.739632 132.873886
v 205.297958 32.712414 133.195694
v 205.120209 33.439247 129.597672
v 205.135406 33.084637 132.955933
v 205.029160 33.478260 132.663116
v 205.096848 33.907139 129.356018
v 205.120346 33.962608 132.447937
v 205.093933 34.721519 128.746735
v 205.100433 34.323395 129.045609
v 204.830765 34.545715 131.958679
v 205.194611 34.392387 132.228775
v 205.094727 35.173481 128.529968
v 205.137375 34.781662 131.937729
v 205.067596 35.207996 131.646927
v 204.780273 35.792122 128.056137
v 205.178833 35.655510 128.327271
v 205.088333 35.705498 131.403046
v 204.904495 36.439846 127.804337
v 205.065063 36.065273 128.046860
v 205.006897 36.129932 131.194168
v 204.963409 36.934845 127.719398
v 205.059235 36.505890 130.899445
v 205.091980 36.898903 130.546432
v 204.981659 37.506298 127.665634
v 205.004242 37.314350 130.238617
v 204.674911 38.167572 127.125275
v 204.924973 38.026733 127.568634
v 205.041611 37.653370 129.897003
v 204.989807 37.988300 129.414749
v 204.615021 38.663509 127.079910
v 205.018768 38.339165 128.016922
v 204.870911 38.685642 127.984314
v 204.730362 38.615768 128.948303
v 204.993179 38.300297 128.969696
v 204.517975 39.165051 127.072044
v 204.619888 39.172401 127.974121
v 205.632416 31.266275 131.582260
v 205.598053 31.119625 132.004807
v 205.639145 31.226677 132.422470
v 205.434052 31.698795 131.048950
v 205.770599 31.833111 130.759109
v 205.766190 31.487989 131.125244
v 205.698227 31.455301 132.905624
v 205.687683 31.804630 133.222351
v 205.718842 32.240723 130.437408
v 205.703278 32.245350 133.359848
v 205.593063 33.016666 129.804993
v 205.646317 32.640846 130.096405
v 205.716354 32.782856 133.338364
v 205.661392 33.442585 129.613724
v 205.414841 33.372707 132.960846
v 205.779907 33.200539 133.191010
v 205.704208 33.964390 129.396301
v 205.726501 33.586197 132.910797
v 205.661453 33.996346 132.582687
v 205.509033 34.751305 128.844147
v 205.627899 34.395397 129.101395
v 205.685486 34.428947 132.278519
v 205.550751 35.178928 128.719437
v 205.685898 34.815121 131.945801
v 205.671051 35.208450 131.588409
v 205.592926 35.750042 128.643021
v 205.586319 35.640503 131.292831
v 205.257294 36.386414 128.101944
v 205.579529 36.305054 128.542908
v 205.354614 36.281685 130.950958
v 205.660477 36.012760 130.971359
v 205.697205 36.364708 130.528259
v 205.315933 36.946781 128.081314
v 205.555557 36.874222 128.561356
v 205.526093 36.822304 130.281372
v 205.232147 37.492363 128.061676
v 205.613419 37.170120 129.012741
v 205.455963 37.513378 128.985672
v 205.294678 37.415188 129.929138
v 205.556030 37.112591 129.950089
v 205.137955 38.004402 128.051849
v 205.181122 37.981464 128.967361
v 205.914490 31.173912 132.002350
v 206.263504 31.811064 130.756378
v 206.256332 31.544472 131.077499
v 206.285278 31.288645 131.994064
v 206.200943 31.571690 132.916519
v 206.174088 31.850286 133.203293
v 206.266846 32.240879 130.521759
v 206.253540 32.257923 133.352234
v 205.957214 32.845608 130.038391
v 206.353912 32.723938 130.324997
v 206.244308 32.783176 133.339615
v 206.087402 33.501656 129.777939
v 206.240326 33.131794 130.040619
v 206.175201 33.194935 133.185577
v 206.156494 34.004093 129.677536
v 206.222275 33.557148 132.894119
v 206.234528 33.966316 132.465027
v 205.830627 34.644707 129.115570
v 206.166779 34.549927 129.541992
v 206.114182 34.396164 132.208405
v 205.901031 35.170166 129.061295
v 206.193542 35.155075 129.538620
v 206.179413 34.708649 131.884933
v 206.162155 35.061325 131.411621
v 205.928146 35.773655 129.060989
v 206.142441 35.698021 129.558655
v 205.942093 35.709148 130.967407
v 206.211136 35.411350 130.968964
v 206.189682 35.699574 130.475128
v 205.826538 36.318520 129.046127
v 206.164658 35.966671 130.004089
v 205.977188 36.321255 129.976837
v 205.731125 36.833771 129.046783
v 205.729996 36.811279 129.940552
v 206.671967 31.846230 130.856079
v 206.756668 31.647638 131.100342
v 206.819351 31.481691 131.989166
v 206.541122 31.693319 132.963013
v 206.867249 31.632854 132.518066
v 206.717941 32.250580 130.725601
v 206.861221 31.916002 132.990494
v 206.786072 32.297436 133.229263
v 206.753052 32.820122 130.652634
v 206.717392 32.687862 133.211929
v 206.429581 33.456882 130.101227
v 206.735916 33.378105 130.548248
v 206.509384 33.335098 132.938248
v 206.816711 33.065533 132.952423
v 206.810394 33.372402 132.482071
v 206.500244 34.022675 130.070267
v 206.721069 33.941460 130.561554
v 206.609390 34.005558 132.008881
v 206.831619 33.680267 131.990479
v 206.800079 33.962845 131.486816
v 206.435364 34.573067 130.047287
v 206.765732 34.220016 131.003845
v 206.618622 34.575188 130.991791
v 206.345657 34.480824 131.914062
v 206.374176 35.144512 130.034454
v 206.369598 35.074596 130.945938
v 206.272095 35.637924 130.014816
v 206.954361 31.766174 131.138779
v 207.222015 31.768551 131.611557
v 207.293350 31.681692 131.992767
v 207.310287 31.831503 132.404922
v 207.069550 32.262535 131.084244
v 207.292999 32.192085 131.568893
v 207.315414 32.097313 132.880020
v 207.170715 32.285023 133.060165
v 207.008621 32.815685 131.059189
v 207.359406 32.479969 132.013107
v 207.224442 32.831398 131.984238
v 207.059540 32.749275 132.935379
v 207.284317 32.425423 132.936905
v 206.945892 33.385956 131.040405
v 206.982315 33.329887 131.954544
v 206.865829 33.884151 131.015564
v 207.377411 31.786007 132.011337
v 207.428772 32.153442 132.045044
v 207.347290 32.229076 132.896713
# 740 vertices, 0 vertices normals

f 3 2 1
f 5 4 1
f 1 4 3
f 7 6 5
f 5 6 4
f 9 8 7
f 7 8 6
f 9 10 8
f 1 2 11
f 11 2 12
f 1 13 5
f 1 11 13
f 5 14 7
f 5 13 14
f 7 15 9
f 7 14 15
f 10 9 16
f 16 9 15
f 12 17 11
f 11 17 13
f 13 17 18
f 13 18 14
f 14 18 19
f 14 19 15
f 15 19 20
f 15 20 16
f 23 22 21
f 25 24 21
f 21 24 23
f 27 26 25
f 25 26 24
f 27 28 26
f 31 30 29
f 33 32 29
f 29 32 31
f 32 33 22
f 33 21 22
f 33 34 21
f 21 35 25
f 21 34 35
f 25 36 27
f 25 35 36
f 28 27 37
f 37 27 36
f 39 38 3
f 3 38 2
f 4 29 30
f 39 4 30
f 3 4 39
f 29 4 6
f 29 6 33
f 33 6 8
f 33 8 34
f 34 8 10
f 40 34 10
f 35 34 40
f 35 41 36
f 35 40 41
f 37 36 42
f 42 36 41
f 38 12 2
f 43 12 38
f 16 44 40
f 16 40 10
f 46 41 45
f 41 44 45
f 41 40 44
f 41 46 42
f 17 12 47
f 12 48 47
f 12 43 48
f 49 18 17
f 49 17 47
f 50 19 18
f 50 18 49
f 51 20 19
f 51 19 50
f 51 52 20
f 20 52 16
f 52 53 16
f 53 44 16
f 44 53 45
f 47 48 54
f 54 48 55
f 47 56 49
f 47 54 56
f 58 50 57
f 50 56 57
f 50 49 56
f 50 58 51
f 51 58 59
f 51 59 52
f 55 60 54
f 54 60 56
f 56 60 61
f 56 61 57
f 64 63 62
f 66 65 62
f 62 65 64
f 66 67 65
f 70 69 68
f 22 23 68
f 23 70 68
f 23 71 70
f 24 62 63
f 71 24 63
f 23 24 71
f 62 24 26
f 62 26 66
f 26 28 66
f 28 67 66
f 28 72 67
f 74 73 31
f 31 73 30
f 32 68 69
f 74 32 69
f 31 32 74
f 68 32 22
f 37 72 28
f 37 75 72
f 77 76 39
f 39 76 38
f 39 30 73
f 39 73 77
f 42 75 37
f 42 78 75
f 76 43 38
f 79 43 76
f 45 80 46
f 80 81 46
f 81 42 46
f 81 78 42
f 79 48 43
f 82 48 79
f 84 83 53
f 84 53 52
f 45 53 80
f 53 85 80
f 53 83 85
f 80 85 81
f 82 55 48
f 86 55 82
f 88 87 58
f 88 58 57
f 58 89 59
f 87 89 58
f 52 59 84
f 84 59 89
f 86 90 55
f 55 90 60
f 60 91 61
f 90 91 60
f 57 61 88
f 88 61 91
f 94 93 92
f 92 95 94
f 97 96 64
f 64 96 63
f 65 92 93
f 97 65 93
f 64 65 97
f 99 98 67
f 67 98 65
f 98 95 65
f 95 92 65
f 99 100 98
f 101 69 70
f 101 70 102
f 70 103 102
f 70 71 103
f 71 63 96
f 71 96 103
f 72 104 99
f 72 99 67
f 100 99 105
f 105 99 104
f 107 106 74
f 74 106 73
f 74 69 101
f 108 74 101
f 107 74 108
f 108 101 102
f 75 109 104
f 75 104 72
f 105 104 110
f 110 104 109
f 112 111 77
f 77 111 76
f 77 73 106
f 77 106 112
f 114 113 109
f 75 114 109
f 78 114 75
f 109 113 110
f 111 79 76
f 115 79 111
f 81 114 78
f 81 116 114
f 115 82 79
f 117 82 115
f 119 118 83
f 119 83 84
f 83 120 85
f 118 120 83
f 81 85 116
f 116 85 120
f 122 86 121
f 86 117 121
f 86 82 117
f 123 122 121
f 125 124 87
f 125 87 88
f 87 126 89
f 124 126 87
f 84 89 119
f 119 89 126
f 122 90 86
f 123 127 122
f 127 90 122
f 127 91 90
f 88 91 125
f 125 91 127
f 130 129 128
f 93 94 128
f 94 130 128
f 94 131 130
f 133 132 95
f 132 94 95
f 132 131 94
f 133 134 132
f 128 129 97
f 129 96 97
f 129 135 96
f 128 97 93
f 98 133 95
f 98 100 133
f 100 134 133
f 100 136 134
f 137 102 103
f 138 137 103
f 96 138 103
f 135 138 96
f 105 136 100
f 105 139 136
f 140 106 107
f 140 107 141
f 107 142 141
f 107 108 142
f 108 102 137
f 143 108 137
f 142 108 143
f 143 137 138
f 110 139 105
f 110 144 139
f 145 111 112
f 146 145 112
f 146 112 106
f 147 146 106
f 140 147 106
f 147 140 141
f 149 148 113
f 149 113 114
f 110 113 144
f 144 113 148
f 150 115 145
f 145 115 111
f 145 146 151
f 145 151 150
f 116 149 114
f 116 152 149
f 153 117 150
f 150 117 115
f 150 151 154
f 155 150 154
f 153 150 155
f 157 156 155
f 157 155 154
f 159 158 156
f 159 156 157
f 118 119 158
f 159 118 158
f 160 118 159
f 118 161 120
f 160 161 118
f 116 120 152
f 152 120 161
f 153 121 117
f 121 153 123
f 153 162 123
f 153 155 162
f 125 162 124
f 162 156 124
f 162 155 156
f 124 156 126
f 126 156 158
f 126 158 119
f 162 127 123
f 127 162 125
f 165 164 163
f 167 166 163
f 163 166 165
f 167 168 166
f 170 169 130
f 130 169 129
f 131 163 164
f 170 131 164
f 130 131 170
f 163 131 132
f 163 132 167
f 132 134 167
f 134 168 167
f 134 171 168
f 169 135 129
f 172 135 169
f 136 171 134
f 136 173 171
f 172 138 135
f 174 138 172
f 139 173 136
f 139 175 173
f 176 141 142
f 143 177 142
f 142 177 176
f 178 177 143
f 138 178 143
f 174 178 138
f 144 175 139
f 144 179 175
f 180 146 147
f 141 176 147
f 176 180 147
f 176 181 180
f 182 176 177
f 181 176 182
f 177 178 183
f 177 183 182
f 185 184 148
f 185 148 149
f 144 148 179
f 179 148 184
f 186 151 180
f 180 151 146
f 187 180 181
f 186 180 187
f 188 181 182
f 187 181 188
f 182 183 189
f 190 182 189
f 188 182 190
f 192 191 190
f 192 190 189
f 192 185 191
f 185 152 191
f 185 149 152
f 186 154 151
f 154 186 157
f 157 186 187
f 157 187 159
f 159 187 188
f 159 188 160
f 160 188 190
f 160 190 161
f 161 190 191
f 161 191 152
f 195 194 193
f 193 196 195
f 199 198 197
f 199 197 194
f 197 193 194
f 197 200 193
f 196 193 201
f 193 202 201
f 193 200 202
f 202 203 201
f 206 205 204
f 206 204 198
f 198 204 197
f 204 164 197
f 164 165 197
f 197 165 166
f 197 166 200
f 202 200 207
f 200 168 207
f 168 208 207
f 168 200 166
f 202 207 203
f 204 205 170
f 205 169 170
f 205 209 169
f 204 170 164
f 171 208 168
f 171 210 208
f 209 172 169
f 211 172 209
f 173 210 171
f 173 212 210
f 211 174 172
f 213 174 211
f 175 212 173
f 175 214 212
f 213 178 174
f 215 178 213
f 179 214 175
f 179 216 214
f 218 183 217
f 183 215 217
f 183 178 215
f 220 219 218
f 220 218 217
f 184 185 219
f 220 184 219
f 221 184 220
f 179 184 216
f 216 184 221
f 218 189 183
f 189 218 192
f 192 218 219
f 192 219 185
f 224 223 222
f 226 225 222
f 222 225 224
f 228 227 226
f 226 227 225
f 228 229 227
f 232 231 230
f 232 230 223
f 223 230 222
f 230 194 222
f 194 195 222
f 222 195 196
f 233 222 196
f 226 222 233
f 226 234 228
f 226 233 234
f 229 228 235
f 235 228 234
f 230 231 199
f 231 198 199
f 231 236 198
f 230 199 194
f 201 233 196
f 234 233 237
f 233 203 237
f 203 238 237
f 203 233 201
f 234 237 235
f 240 239 206
f 206 239 205
f 206 198 236
f 206 236 240
f 208 241 207
f 241 242 207
f 242 203 207
f 242 238 203
f 239 209 205
f 243 209 239
f 210 244 241
f 210 241 208
f 242 241 245
f 245 241 244
f 243 211 209
f 246 211 243
f 248 247 244
f 210 248 244
f 212 248 210
f 244 247 245
f 246 213 211
f 249 213 246
f 214 248 212
f 214 250 248
f 252 215 251
f 215 249 251
f 215 213 249
f 254 253 252
f 254 252 251
f 256 255 253
f 256 253 254
f 256 250 255
f 250 216 255
f 250 214 216
f 252 217 215
f 217 252 220
f 220 252 253
f 220 253 221
f 221 253 255
f 221 255 216
f 259 258 257
f 261 260 257
f 257 260 259
f 261 262 260
f 265 264 263
f 265 263 258
f 263 257 258
f 263 266 257
f 257 267 261
f 257 266 267
f 262 261 268
f 268 261 267
f 270 269 224
f 224 269 223
f 225 263 264
f 270 225 264
f 224 225 270
f 263 225 227
f 263 227 266
f 266 227 229
f 271 266 229
f 267 266 271
f 268 267 272
f 272 267 271
f 274 273 232
f 232 273 231
f 232 223 269
f 232 269 274
f 276 275 271
f 229 276 271
f 235 276 229
f 271 275 272
f 273 236 231
f 277 236 273
f 238 278 237
f 278 279 237
f 279 235 237
f 279 276 235
f 280 239 240
f 281 280 240
f 236 281 240
f 277 281 236
f 283 282 278
f 238 283 278
f 242 283 238
f 278 282 279
f 284 243 280
f 280 243 239
f 280 281 285
f 280 285 284
f 245 283 242
f 245 286 283
f 287 246 284
f 284 246 243
f 284 285 288
f 284 288 287
f 290 289 247
f 290 247 248
f 245 247 286
f 286 247 289
f 291 249 287
f 287 249 246
f 287 288 292
f 287 292 291
f 295 294 293
f 294 290 293
f 290 250 293
f 290 248 250
f 291 251 249
f 292 296 291
f 296 251 291
f 296 254 251
f 293 256 295
f 256 296 295
f 256 254 296
f 256 293 250
f 299 298 297
f 301 300 297
f 297 300 299
f 301 302 300
f 305 304 303
f 305 303 298
f 303 297 298
f 303 306 297
f 297 307 301
f 297 306 307
f 302 301 308
f 308 301 307
f 311 310 309
f 311 309 304
f 304 309 303
f 309 258 303
f 258 259 303
f 303 259 260
f 303 260 306
f 306 260 262
f 312 306 262
f 307 306 312
f 308 307 313
f 313 307 312
f 309 310 265
f 310 264 265
f 310 314 264
f 309 265 258
f 268 315 312
f 268 312 262
f 313 312 316
f 316 312 315
f 318 317 270
f 270 317 269
f 270 264 314
f 270 314 318
f 320 319 315
f 268 320 315
f 272 320 268
f 315 319 316
f 321 273 274
f 322 321 274
f 269 322 274
f 317 322 269
f 276 323 275
f 323 324 275
f 324 272 275
f 324 320 272
f 326 325 321
f 325 273 321
f 325 277 273
f 326 321 322
f 328 327 323
f 276 328 323
f 279 328 276
f 323 327 324
f 325 281 277
f 329 281 325
f 331 330 282
f 331 282 283
f 279 282 328
f 328 282 330
f 329 285 281
f 332 285 329
f 286 331 283
f 286 333 331
f 335 288 334
f 288 332 334
f 288 285 332
f 337 336 335
f 337 335 334
f 289 290 336
f 337 289 336
f 338 289 337
f 286 289 333
f 333 289 338
f 339 292 335
f 335 292 288
f 295 339 294
f 339 336 294
f 339 335 336
f 294 336 290
f 339 296 292
f 296 339 295
f 342 341 340
f 344 343 340
f 340 343 342
f 344 345 343
f 340 341 299
f 341 298 299
f 341 346 298
f 340 299 300
f 340 300 344
f 300 302 344
f 302 345 344
f 302 347 345
f 349 348 305
f 305 348 304
f 305 298 346
f 305 346 349
f 308 347 302
f 308 350 347
f 352 351 311
f 311 351 310
f 311 304 348
f 311 348 352
f 313 350 308
f 313 353 350
f 351 314 310
f 354 314 351
f 316 353 313
f 316 355 353
f 357 356 318
f 318 356 317
f 318 314 354
f 318 354 357
f 320 358 319
f 358 359 319
f 359 316 319
f 359 355 316
f 356 322 317
f 360 322 356
f 362 361 358
f 320 362 358
f 324 362 320
f 358 361 359
f 363 325 326
f 364 363 326
f 322 364 326
f 360 364 322
f 366 365 327
f 366 327 328
f 324 327 362
f 362 327 365
f 367 329 363
f 363 329 325
f 363 364 368
f 363 368 367
f 370 369 330
f 370 330 331
f 328 330 366
f 366 330 369
f 371 332 367
f 367 332 329
f 367 368 372
f 373 367 372
f 371 367 373
f 375 374 373
f 375 373 372
f 375 370 374
f 370 333 374
f 370 331 333
f 371 334 332
f 334 371 337
f 337 371 373
f 337 373 338
f 338 373 374
f 338 374 333
f 378 377 376
f 380 379 376
f 376 379 378
f 380 381 379
f 384 383 382
f 384 382 377
f 382 376 377
f 382 385 376
f 376 386 380
f 376 385 386
f 381 380 387
f 387 380 386
f 382 383 342
f 383 341 342
f 383 388 341
f 382 342 343
f 382 343 385
f 385 343 345
f 389 385 345
f 386 385 389
f 387 386 390
f 390 386 389
f 388 346 341
f 391 346 388
f 347 392 389
f 347 389 345
f 390 389 393
f 393 389 392
f 395 394 349
f 349 394 348
f 349 346 391
f 349 391 395
f 350 396 392
f 350 392 347
f 393 392 397
f 397 392 396
f 398 351 352
f 399 398 352
f 348 399 352
f 394 399 348
f 401 400 396
f 350 401 396
f 353 401 350
f 396 400 397
f 403 402 398
f 402 351 398
f 402 354 351
f 403 398 399
f 355 401 353
f 355 404 401
f 405 356 357
f 406 405 357
f 354 406 357
f 402 406 354
f 409 408 407
f 408 404 407
f 404 359 407
f 404 355 359
f 410 360 405
f 405 360 356
f 405 406 411
f 405 411 410
f 409 407 361
f 362 409 361
f 412 409 362
f 361 407 359
f 413 364 410
f 410 364 360
f 410 411 414
f 415 410 414
f 413 410 415
f 417 416 415
f 417 415 414
f 365 366 416
f 417 365 416
f 418 365 417
f 362 365 412
f 412 365 418
f 419 368 413
f 413 368 364
f 420 413 415
f 419 413 420
f 370 420 369
f 420 416 369
f 420 415 416
f 369 416 366
f 419 372 368
f 372 419 375
f 375 419 420
f 375 420 370
f 423 422 421
f 425 424 421
f 421 424 423
f 425 426 424
f 429 428 427
f 429 427 422
f 427 421 422
f 427 430 421
f 421 431 425
f 421 430 431
f 426 425 432
f 432 425 431
f 427 428 433
f 433 428 434
f 427 435 430
f 427 433 435
f 430 436 431
f 430 435 436
f 432 431 437
f 437 431 436
f 440 439 438
f 440 438 434
f 434 438 433
f 438 377 433
f 377 378 433
f 433 378 379
f 433 379 435
f 436 435 441
f 435 381 441
f 381 442 441
f 381 435 379
f 436 441 437
f 438 439 384
f 439 383 384
f 439 443 383
f 438 384 377
f 387 442 381
f 387 444 442
f 443 388 383
f 445 388 443
f 390 444 387
f 390 446 444
f 445 391 388
f 447 391 445
f 393 446 390
f 393 448 446
f 449 394 395
f 450 449 395
f 391 450 395
f 447 450 391
f 397 448 393
f 397 451 448
f 452 399 449
f 449 399 394
f 449 450 453
f 449 453 452
f 455 454 400
f 455 400 401
f 397 400 451
f 451 400 454
f 456 402 403
f 457 456 403
f 457 403 399
f 458 457 399
f 452 458 399
f 458 452 453
f 404 455 401
f 404 459 455
f 460 406 456
f 456 406 402
f 456 457 461
f 462 456 461
f 460 456 462
f 464 463 462
f 464 462 461
f 408 409 463
f 464 408 463
f 465 408 464
f 404 408 459
f 459 408 465
f 466 411 460
f 460 411 406
f 467 460 462
f 466 460 467
f 468 462 463
f 467 462 468
f 412 468 409
f 409 468 463
f 466 414 411
f 414 466 417
f 417 466 467
f 417 467 418
f 418 467 468
f 418 468 412
f 471 470 469
f 473 472 469
f 469 472 471
f 473 474 472
f 477 476 475
f 477 475 470
f 475 469 470
f 475 478 469
f 469 479 473
f 469 478 479
f 474 473 480
f 480 473 479
f 475 476 423
f 476 422 423
f 476 481 422
f 475 423 424
f 475 424 478
f 478 424 426
f 482 478 426
f 479 478 482
f 480 479 483
f 483 479 482
f 485 484 429
f 429 484 428
f 429 422 481
f 429 481 485
f 487 486 482
f 426 487 482
f 432 487 426
f 482 486 483
f 484 434 428
f 488 434 484
f 437 487 432
f 437 489 487
f 491 490 440
f 440 490 439
f 440 434 488
f 440 488 491
f 442 492 441
f 492 493 441
f 493 437 441
f 493 489 437
f 490 443 439
f 494 443 490
f 496 495 492
f 442 496 492
f 444 496 442
f 492 495 493
f 494 445 443
f 497 445 494
f 446 496 444
f 446 498 496
f 497 447 445
f 499 447 497
f 448 498 446
f 448 500 498
f 499 450 447
f 501 450 499
f 504 503 502
f 503 500 502
f 500 451 502
f 500 448 451
f 501 453 450
f 505 453 501
f 504 502 454
f 455 504 454
f 506 504 455
f 454 502 451
f 507 457 458
f 453 505 508
f 507 453 508
f 509 507 508
f 458 453 507
f 511 510 509
f 511 509 508
f 511 506 510
f 506 459 510
f 506 455 459
f 507 461 457
f 461 507 464
f 464 507 509
f 464 509 465
f 465 509 510
f 465 510 459
f 514 513 512
f 516 515 512
f 512 515 514
f 516 517 515
f 520 519 518
f 520 518 513
f 518 512 513
f 518 521 512
f 512 522 516
f 512 521 522
f 517 516 523
f 523 516 522
f 518 519 524
f 524 519 525
f 518 526 521
f 518 524 526
f 521 527 522
f 521 526 527
f 523 522 528
f 528 522 527
f 531 530 529
f 531 529 525
f 525 529 524
f 529 470 524
f 470 471 524
f 524 471 472
f 524 472 526
f 527 526 532
f 526 474 532
f 474 533 532
f 474 526 472
f 527 532 528
f 529 530 477
f 530 476 477
f 530 534 476
f 529 477 470
f 480 533 474
f 480 535 533
f 538 537 536
f 534 538 536
f 481 534 536
f 476 534 481
f 483 535 480
f 483 539 535
f 536 537 485
f 537 484 485
f 537 540 484
f 536 485 481
f 487 541 486
f 541 542 486
f 542 483 486
f 542 539 483
f 540 488 484
f 543 488 540
f 545 544 541
f 487 545 541
f 489 545 487
f 541 544 542
f 546 490 491
f 547 546 491
f 488 547 491
f 543 547 488
f 493 545 489
f 493 548 545
f 550 549 546
f 549 490 546
f 549 494 490
f 550 546 547
f 552 551 495
f 552 495 496
f 493 495 548
f 548 495 551
f 549 497 494
f 553 497 549
f 498 552 496
f 498 554 552
f 553 499 497
f 555 499 553
f 558 557 556
f 557 554 556
f 554 500 556
f 554 498 500
f 560 501 559
f 501 555 559
f 501 499 555
f 562 561 560
f 562 560 559
f 561 562 558
f 561 558 556
f 504 561 556
f 503 504 556
f 503 556 500
f 563 505 560
f 560 505 501
f 564 560 561
f 563 560 564
f 506 564 504
f 504 564 561
f 563 508 505
f 508 563 511
f 511 563 564
f 511 564 506
f 567 566 565
f 565 568 567
f 565 566 569
f 569 566 570
f 568 565 571
f 565 572 571
f 565 569 572
f 572 573 571
f 576 575 574
f 576 574 570
f 574 569 570
f 574 577 569
f 569 578 572
f 569 577 578
f 573 572 579
f 579 572 578
f 582 581 580
f 582 580 575
f 575 580 574
f 580 513 574
f 513 514 574
f 574 514 515
f 574 515 577
f 577 515 517
f 583 577 517
f 578 577 583
f 579 578 584
f 584 578 583
f 580 581 520
f 581 519 520
f 581 585 519
f 580 520 513
f 587 586 583
f 517 587 583
f 523 587 517
f 583 586 584
f 585 525 519
f 588 525 585
f 528 587 523
f 528 589 587
f 591 590 531
f 531 590 530
f 531 525 588
f 531 588 591
f 533 592 532
f 592 593 532
f 593 528 532
f 593 589 528
f 590 534 530
f 594 534 590
f 596 595 592
f 533 596 592
f 535 596 533
f 592 595 593
f 597 537 538
f 598 597 538
f 534 598 538
f 594 598 534
f 539 596 535
f 539 599 596
f 601 600 597
f 600 537 597
f 600 540 537
f 601 597 598
f 542 599 539
f 542 602 599
f 600 543 540
f 603 543 600
f 605 604 544
f 605 544 545
f 542 544 602
f 602 544 604
f 603 547 543
f 606 547 603
f 548 605 545
f 548 607 605
f 608 549 550
f 609 608 550
f 547 609 550
f 606 609 547
f 611 610 551
f 611 551 552
f 548 551 607
f 607 551 610
f 612 553 608
f 608 553 549
f 608 609 613
f 614 608 613
f 612 608 614
f 616 615 614
f 616 614 613
f 616 611 615
f 611 554 615
f 611 552 554
f 617 555 612
f 612 555 553
f 618 612 614
f 617 612 618
f 558 618 557
f 618 615 557
f 618 614 615
f 557 615 554
f 617 559 555
f 559 617 562
f 562 617 618
f 562 618 558
f 620 619 567
f 567 619 566
f 567 568 620
f 620 568 621
f 624 623 622
f 619 624 622
f 570 619 622
f 566 619 570
f 625 621 568
f 625 568 571
f 571 573 625
f 625 573 626
f 622 623 576
f 623 575 576
f 623 627 575
f 622 576 570
f 579 626 573
f 579 628 626
f 630 629 582
f 582 629 581
f 582 575 627
f 582 627 630
f 584 628 579
f 584 631 628
f 629 585 581
f 632 585 629
f 587 633 586
f 633 634 586
f 634 584 586
f 634 631 584
f 632 588 585
f 635 588 632
f 637 636 633
f 587 637 633
f 589 637 587
f 633 636 634
f 639 638 591
f 591 638 590
f 591 588 635
f 591 635 639
f 593 637 589
f 593 640 637
f 638 594 590
f 641 594 638
f 643 642 595
f 643 595 596
f 593 595 640
f 640 595 642
f 641 598 594
f 644 598 641
f 599 643 596
f 599 645 643
f 646 600 601
f 647 646 601
f 598 647 601
f 644 647 598
f 650 649 648
f 649 645 648
f 645 602 648
f 645 599 602
f 651 603 646
f 646 603 600
f 646 647 652
f 646 652 651
f 650 648 604
f 605 650 604
f 653 650 605
f 604 648 602
f 654 606 651
f 651 606 603
f 651 652 655
f 656 651 655
f 654 651 656
f 658 657 656
f 658 656 655
f 658 653 657
f 653 607 657
f 653 605 607
f 659 609 654
f 654 609 606
f 660 654 656
f 659 654 660
f 611 660 610
f 660 657 610
f 660 656 657
f 610 657 607
f 659 613 609
f 613 659 616
f 616 659 660
f 616 660 611
f 661 619 620
f 621 661 620
f 663 662 624
f 624 662 623
f 624 619 661
f 664 624 661
f 663 624 664
f 664 661 621
f 625 664 621
f 665 664 625
f 625 626 665
f 665 626 666
f 662 627 623
f 667 627 662
f 628 666 626
f 628 668 666
f 669 629 630
f 670 669 630
f 627 670 630
f 667 670 627
f 631 668 628
f 631 671 668
f 673 672 669
f 672 629 669
f 672 632 629
f 673 669 670
f 634 671 631
f 634 674 671
f 672 635 632
f 675 635 672
f 677 676 636
f 677 636 637
f 634 636 674
f 674 636 676
f 678 638 639
f 679 678 639
f 635 679 639
f 675 679 635
f 640 677 637
f 640 680 677
f 681 641 678
f 678 641 638
f 678 679 682
f 678 682 681
f 684 683 642
f 684 642 643
f 640 642 680
f 680 642 683
f 685 644 681
f 681 644 641
f 681 682 686
f 681 686 685
f 689 688 687
f 688 684 687
f 684 645 687
f 684 643 645
f 690 647 685
f 685 647 644
f 685 686 691
f 692 685 691
f 690 685 692
f 692 691 689
f 692 689 687
f 650 692 687
f 649 650 687
f 649 687 645
f 693 652 690
f 690 652 647
f 694 690 692
f 693 690 694
f 653 694 650
f 650 694 692
f 693 655 652
f 655 693 658
f 658 693 694
f 658 694 653
f 696 695 663
f 663 695 662
f 697 663 664
f 697 696 663
f 699 697 698
f 697 665 698
f 697 664 665
f 666 698 665
f 695 667 662
f 700 667 695
f 701 699 698
f 698 666 701
f 666 702 701
f 666 668 702
f 700 670 667
f 703 670 700
f 671 702 668
f 671 704 702
f 705 672 673
f 706 705 673
f 670 706 673
f 703 706 670
f 709 708 707
f 708 704 707
f 704 674 707
f 704 671 674
f 710 675 705
f 705 675 672
f 705 706 711
f 705 711 710
f 714 713 712
f 712 713 709
f 712 709 707
f 677 712 707
f 676 677 707
f 676 707 674
f 715 679 710
f 710 679 675
f 710 711 716
f 717 710 716
f 715 710 717
f 717 716 714
f 712 717 714
f 718 717 712
f 680 718 677
f 677 718 712
f 719 682 715
f 715 682 679
f 720 715 717
f 719 715 720
f 684 720 683
f 720 718 683
f 720 717 718
f 683 718 680
f 721 686 719
f 719 686 682
f 689 721 688
f 721 720 688
f 721 719 720
f 688 720 684
f 721 691 686
f 691 721 689
f 722 695 696
f 722 696 723
f 696 724 723
f 696 697 724
f 697 699 724
f 724 699 725
f 726 700 722
f 722 700 695
f 722 723 727
f 722 727 726
f 728 725 699
f 728 699 701
f 701 702 728
f 728 702 729
f 730 703 726
f 726 703 700
f 726 727 731
f 732 726 731
f 730 726 732
f 734 733 732
f 734 732 731
f 734 729 733
f 729 704 733
f 729 702 704
f 735 706 730
f 730 706 703
f 736 730 732
f 735 730 736
f 709 736 708
f 736 733 708
f 736 732 733
f 708 733 704
f 737 711 735
f 735 711 706
f 714 737 713
f 737 736 713
f 737 735 736
f 713 736 709
f 737 716 711
f 716 737 714
f 738 723 724
f 725 738 724
f 739 727 738
f 738 727 723
f 728 740 725
f 740 738 725
f 740 739 738
f 729 740 728
f 739 731 727
f 731 739 734
f 734 739 740
f 734 740 729
# 1476 faces, 0 coords texture

# End of File