####
#
# OBJ File Generated by Meshlab
#
####
# Object domain0627.obj
#
# Vertices: 564
# Faces: 1124
#
####
v 196.319473 66.915657 123.985458
v 196.403885 66.856316 123.528358
v 196.429214 66.591171 123.995079
v 196.447906 66.854652 124.435966
v 196.312027 67.472618 123.095070
v 196.526825 67.497047 122.810997
v 196.413284 67.157265 123.064949
v 196.238907 67.407555 123.964729
v 196.394089 67.391647 124.461182
v 196.280884 67.974403 123.074387
v 196.489334 67.973717 122.780945
v 196.249741 67.960739 123.950035
v 196.441956 67.977341 124.446304
v 196.351273 68.421013 123.075371
v 196.510864 68.362473 122.859688
v 196.342758 68.419792 123.930763
v 196.492935 68.393562 124.239105
v 196.452164 68.529259 123.074104
v 196.448563 68.544640 123.934692
v 196.914352 65.162636 124.984619
v 196.993271 65.108490 124.530396
v 197.043671 64.864189 124.993515
v 197.049942 65.105659 125.429558
v 196.834274 65.717613 124.080902
v 197.049942 65.722221 123.715134
v 196.986481 65.393974 124.054054
v 196.806305 65.651062 124.966156
v 196.978714 65.634720 125.461586
v 196.605591 66.228165 124.024483
v 196.883850 66.187103 123.471840
v 196.740845 66.226234 124.955498
v 197.001785 66.237389 125.462463
v 196.648514 66.844223 123.043251
v 197.020081 66.928200 122.757935
v 196.924561 66.540504 123.033592
v 196.654053 66.780655 124.932877
v 197.000977 66.791077 125.332672
v 196.929001 67.411339 122.633781
v 196.679245 67.383507 124.939690
v 197.031052 67.375000 125.270744
v 196.914337 67.962608 122.625313
v 196.741852 67.921349 124.897270
v 197.094650 67.864731 125.187607
v 196.917496 68.403610 122.761185
v 196.961868 68.214546 124.935158
v 196.885330 68.519539 124.502106
v 196.925354 68.675957 123.060318
v 196.930481 68.732567 123.984108
v 197.270920 64.544243 125.030434
v 197.515274 64.493660 124.518341
v 197.547623 64.231789 125.014648
v 197.616180 64.270424 125.946182
v 197.448807 64.563202 125.924362
v 197.693848 64.570915 126.193626
v 197.234039 65.087273 124.040535
v 197.591537 65.161301 123.725502
v 197.519562 64.792015 124.036537
v 197.277237 65.039192 125.912056
v 197.628082 65.057045 126.248703
v 197.490067 65.642052 123.449005
v 197.271622 65.625229 125.934380
v 197.626617 65.618439 126.245125
v 197.227631 66.265198 123.052742
v 197.576950 66.421677 122.811905
v 197.526459 66.044502 123.097618
v 197.336014 66.149544 125.885101
v 197.658554 66.042488 126.155556
v 197.502533 66.839851 122.642136
v 197.540329 66.398064 125.901649
v 197.457443 66.835136 125.615730
v 197.484436 67.393135 122.551773
v 197.490814 67.375267 125.438263
v 197.482681 67.968697 122.558319
v 197.487305 67.911949 125.296944
v 197.519287 68.476044 122.714104
v 197.235291 68.465515 124.927315
v 197.482376 68.281349 125.107231
v 197.474380 68.846222 123.038048
v 197.469940 68.909401 124.019211
v 197.481003 68.543785 124.895424
v 197.840179 63.941017 125.021011
v 198.155243 63.964340 124.586273
v 198.142776 63.655945 125.022987
v 198.158432 63.671375 125.955849
v 197.875183 63.970226 125.952301
v 198.204239 64.007439 126.229294
v 197.827728 64.529572 124.057930
v 198.162842 64.670860 123.819435
v 198.127457 64.328156 124.118561
v 198.100830 64.482277 126.368126
v 198.075027 65.091766 123.626869
v 198.081177 65.047508 126.419365
v 198.086990 65.610184 123.410057
v 198.080307 65.614914 126.378601
v 197.972168 66.421707 122.812172
v 198.032547 66.031570 123.091797
v 198.070328 66.068771 126.237244
v 198.037354 66.838409 122.658813
v 198.069366 66.471153 125.956467
v 198.068222 66.885460 125.643005
v 198.054840 67.392136 122.580284
v 198.046997 67.367256 125.420731
v 198.052597 67.971733 122.593109
v 197.947906 67.850174 125.241554
v 198.051300 68.505508 122.692276
v 197.744308 68.535797 124.876884
v 198.049576 68.243858 124.965851
v 198.123459 68.549240 124.611427
v 197.841324 69.011185 123.049889
v 198.059235 68.863373 122.886833
v 197.825073 69.026619 123.964424
v 198.015274 68.850891 124.245811
v 198.063904 69.051308 123.077515
v 198.061783 69.060081 123.925804
v 198.445404 63.373795 125.039497
v 198.768143 63.416504 124.735748
v 198.748978 63.093681 125.044601
v 198.750443 63.095249 125.952881
v 198.452072 63.379086 125.955887
v 198.787430 63.424004 126.229485
v 198.698944 63.878883 124.434952
v 198.678238 63.898193 126.380493
v 198.489792 64.644974 123.855064
v 198.597855 64.299797 124.117180
v 198.657562 64.462769 126.459930
v 198.516464 65.066978 123.743301
v 198.652435 65.042671 126.458099
v 198.569107 65.637543 123.639297
v 198.632721 65.599152 126.366463
v 198.315720 66.273727 123.056343
v 198.654358 66.175415 123.476280
v 198.551315 66.022270 126.200882
v 198.439178 66.911980 122.810028
v 198.572769 66.558762 123.063446
v 198.601913 66.385094 125.905899
v 198.615616 66.790802 125.470535
v 198.485672 67.402954 122.764076
v 198.475723 67.284370 125.241966
v 198.485550 67.963898 122.763008
v 198.329407 67.947594 124.966515
v 198.584122 67.639824 124.946083
v 198.621765 67.992470 124.509354
v 198.434586 68.443916 122.821251
v 198.488373 68.473564 124.287460
v 198.495087 68.732086 123.058258
v 198.248566 68.979118 123.061005
v 198.252167 68.983467 123.942596
v 198.504150 68.739456 123.953552
v 199.053101 62.842003 125.051086
v 199.351318 62.910088 124.800545
v 199.351257 62.669815 125.066368
v 199.349014 62.667538 125.934456
v 199.052322 62.840801 125.949333
v 199.352615 62.907967 126.200409
v 199.252014 63.326759 124.617371
v 199.262512 63.320660 126.368057
v 199.245743 63.870045 124.460464
v 199.242737 63.877533 126.459915
v 198.842621 64.513786 124.089371
v 199.288315 64.419479 124.336411
v 199.239075 64.459053 126.477867
v 198.918457 65.052460 124.032379
v 199.322418 65.042984 124.365417
v 199.223938 65.028152 126.396812
v 198.919418 65.640694 124.018379
v 199.281570 65.597511 124.506401
v 199.121201 65.501244 126.242393
v 198.930862 66.271957 124.013191
v 199.131943 66.170517 124.552635
v 198.893860 66.154167 125.943108
v 199.207138 65.885735 125.956406
v 199.167175 66.172829 125.476395
v 198.680313 66.877975 123.099922
v 198.905884 66.805870 124.010529
v 199.132614 66.436600 125.004715
v 198.945084 66.787102 124.963013
v 198.722610 67.402267 123.074310
v 198.859100 67.382736 123.995476
v 198.725235 67.309982 124.914490
v 198.710464 67.961845 123.070389
v 198.776062 67.939468 123.979553
v 198.633438 68.456924 123.073944
v 198.656174 68.458969 123.939240
v 199.875183 62.789036 124.719826
v 199.840164 62.435791 125.040482
v 199.839249 62.437012 125.959312
v 199.875946 62.788383 126.281799
v 199.829773 63.295906 124.563011
v 199.830643 63.295040 126.436783
v 199.824203 63.876038 124.492462
v 199.826035 63.874008 126.488007
v 199.820679 64.461082 124.512680
v 199.821976 64.453682 126.440254
v 199.785980 64.995941 124.656586
v 199.773743 64.960548 126.279892
v 199.836304 65.365860 125.020302
v 199.569412 65.654724 125.005356
v 199.485489 65.595177 125.956078
v 199.820053 65.328461 125.962524
v 199.296356 66.113144 125.014305
v 200.190247 62.231541 125.041290
v 200.514023 62.321301 124.791992
v 200.517105 62.076519 125.064758
v 200.515213 62.074821 125.935860
v 200.190872 62.232510 125.958199
v 200.514694 62.317444 126.212479
v 200.425522 62.729027 124.617485
v 200.426010 62.727928 126.387016
v 200.412613 63.289265 124.522064
v 200.412903 63.288975 126.478134
v 200.410995 63.873039 124.521851
v 200.411331 63.872742 126.477913
v 200.397797 64.434006 124.613235
v 200.398514 64.433044 126.382744
v 200.310257 64.844452 124.786522
v 200.308823 64.841644 126.207985
v 200.308777 65.094223 125.062462
v 200.308640 65.086960 125.935699
v 201.046982 62.203526 124.720337
v 201.012177 61.849815 125.040482
v 201.009750 61.847801 125.962479
v 201.044174 62.188812 126.320351
v 201.002106 62.708324 124.559792
v 201.002869 62.702919 126.484169
v 200.998001 63.287998 124.512001
v 200.999237 63.286289 126.510818
v 200.993942 63.867668 124.559792
v 200.995178 63.867134 126.442467
v 200.949020 64.372498 124.720398
v 200.948288 64.373001 126.280991
v 200.983887 64.726181 125.040482
v 200.633682 64.930473 125.041260
v 200.633118 64.929466 125.958191
v 200.984756 64.724953 125.959282
v 201.363739 61.653114 125.042313
v 201.685623 61.745789 124.803078
v 201.683319 61.542080 125.073036
v 201.678131 61.511551 125.938385
v 201.361740 61.649529 125.964325
v 201.680283 61.694305 126.277779
v 201.596802 62.143074 124.616783
v 201.580551 62.116882 126.565659
v 201.584641 62.703251 124.522026
v 201.530884 62.734406 126.658997
v 201.583344 63.286751 124.522034
v 201.569199 63.298126 126.576729
v 201.570435 63.846954 124.617500
v 201.584213 63.844543 126.417618
v 201.482025 64.254707 124.792038
v 201.483719 64.255379 126.210068
v 201.478897 64.499504 125.064766
v 201.480743 64.501190 125.935913
v 202.182831 61.697899 124.762062
v 202.189484 61.452736 125.070671
v 202.201675 61.364174 125.984207
v 202.153122 61.560619 126.514130
v 202.171677 62.128677 124.574989
v 202.225845 61.872791 126.935181
v 201.992401 62.159489 126.905533
v 202.372711 62.210243 127.192772
v 202.169937 62.702076 124.512115
v 201.975052 62.665840 126.923859
v 202.370514 62.609268 127.195633
v 202.165314 63.280895 124.563530
v 202.198776 62.973938 126.962585
v 202.069199 63.390221 126.690323
v 202.120819 63.786980 124.719803
v 202.138290 63.826904 126.362808
v 202.155792 64.140007 125.040504
v 201.805756 64.344482 125.041267
v 201.804581 64.342827 125.958389
v 202.167847 64.144821 125.969139
v 202.756622 61.678741 124.742958
v 202.765457 61.391293 125.063210
v 202.735397 61.161339 125.988998
v 202.825684 61.430370 126.928177
v 202.510574 61.605331 126.941727
v 202.861664 61.704369 127.245506
v 202.755173 62.126518 124.567970
v 202.793304 62.136189 127.402275
v 202.752472 62.699497 124.545647
v 202.796417 62.677650 127.386696
v 202.733688 63.255539 124.631355
v 202.486771 63.254852 126.955467
v 202.856583 63.100948 127.217628
v 202.643951 63.666100 124.800728
v 202.834976 63.453312 126.877991
v 202.685364 63.711784 126.434143
v 202.645187 63.907490 125.066612
v 202.670258 63.947773 125.955132
v 203.103134 61.030231 126.008827
v 203.388199 61.089855 125.568634
v 203.448135 60.950417 126.015312
v 203.372421 61.005932 126.484993
v 203.327499 61.678333 124.759956
v 203.314072 61.314243 125.085670
v 203.321411 61.195511 127.004066
v 203.351273 61.565392 127.472450
v 203.324890 62.128304 124.621361
v 203.260544 62.113136 127.644302
v 203.309570 62.680630 124.632927
v 203.318497 62.718658 127.601387
v 203.214249 63.159058 124.762436
v 203.358597 63.163132 127.317215
v 203.285721 63.501236 125.060196
v 202.951004 63.741783 125.054390
v 203.012009 63.810112 125.985641
v 203.371902 63.669807 126.020615
v 203.343750 63.427589 126.942810
v 203.931778 61.100529 125.564163
v 203.935181 60.909348 126.048714
v 204.000916 60.908550 126.930466
v 203.663727 61.007210 126.977234
v 203.987747 61.077454 127.424759
v 203.752579 61.706005 124.843979
v 203.856003 61.393291 125.120430
v 204.010300 61.384140 127.894066
v 203.777390 61.602375 127.885948
v 204.100220 61.692509 128.182266
v 203.778748 62.118271 124.762642
v 203.677475 62.116901 127.955742
v 204.083679 62.114105 128.257965
v 203.735886 62.600887 124.795738
v 203.747116 62.646992 127.901985
v 204.098343 62.538952 128.187286
v 203.877380 62.955326 125.047295
v 203.601715 63.258083 125.041176
v 203.949844 63.267796 125.484497
v 203.999084 62.867126 127.900848
v 203.909714 63.192261 127.467400
v 203.896790 63.467770 126.015083
v 203.925171 63.422298 126.956757
v 204.421051 61.124664 125.737930
v 204.442261 60.927853 126.089630
v 204.539749 60.835999 126.983116
v 204.504623 60.945366 127.518593
v 204.100540 61.592674 125.104851
v 204.517532 61.530399 125.432358
v 204.500443 61.202442 128.009689
v 204.550385 61.577522 128.365555
v 204.186920 62.117153 125.036331
v 204.603394 62.114170 125.343056
v 204.552429 62.116814 128.539825
v 204.116989 62.661774 125.085754
v 204.527802 62.705685 125.421150
v 204.551682 62.654919 128.362869
v 204.429245 63.129852 125.715736
v 204.497910 63.036472 128.015488
v 204.494156 63.305916 127.522629
v 204.441254 63.338200 126.077118
v 204.532913 63.414574 126.985062
v 204.780823 61.007912 126.038033
v 205.116837 60.929157 126.475906
v 205.081192 60.828003 127.013710
v 205.170425 60.902374 127.918747
v 204.832489 61.005993 127.965599
v 205.177887 61.088345 128.300522
v 205.049332 61.596550 125.678680
v 205.113464 61.204758 125.995895
v 205.042160 61.479897 128.641235
v 205.081543 62.117157 125.565491
v 205.148514 61.851738 128.937454
v 204.980484 62.117920 128.866226
v 205.366074 62.116409 129.123672
v 205.052094 62.637417 125.676498
v 205.150665 62.380157 128.941238
v 205.040146 62.750530 128.641647
v 205.110748 63.027054 125.993935
v 204.782776 63.233841 126.034607
v 205.111191 63.290157 126.482819
v 204.830139 63.237309 127.967766
v 205.171951 63.144611 128.303772
v 205.073807 63.397976 127.017189
v 205.174240 63.320892 127.919777
v 205.682510 61.052505 126.542526
v 205.677612 60.853477 127.047890
v 205.718109 60.836376 127.977211
v 205.670013 60.980141 128.513321
v 205.511673 61.696396 125.829407
v 205.617035 61.366562 126.099762
v 205.712265 61.268509 128.965881
v 205.410706 61.546261 128.976822
v 205.803482 61.636719 129.272659
v 205.535080 62.116379 125.766983
v 205.748413 62.112793 129.365952
v 205.509567 62.534351 125.830856
v 205.409470 62.688774 128.976120
v 205.806458 62.591473 129.274460
v 205.602661 62.846901 126.106766
v 205.630020 63.156799 126.573151
v 205.713730 62.964722 128.968857
v 205.670364 63.249142 128.507904
v 205.617783 63.335030 127.070534
v 205.715424 63.377411 127.978760
v 206.172287 61.124599 126.740868
v 206.195404 60.921841 127.090828
v 206.272186 60.789989 128.000031
v 206.347260 60.912159 128.913101
v 206.025772 61.026630 128.943542
v 206.371078 61.108448 129.273590
v 205.856857 61.591801 126.104706
v 206.248322 61.539963 126.455940
v 206.273987 61.531937 129.563828
v 205.929993 62.115612 126.051361
v 206.325302 62.114834 126.400215
v 206.196747 62.118225 129.634338
v 205.835831 62.630421 126.113922
v 206.258560 62.665482 126.529510
v 206.276596 62.700306 129.564957
v 205.960861 63.249722 127.019043
v 206.288605 63.044544 126.971222
v 206.284134 63.294720 127.481003
v 206.023438 63.211159 128.946533
v 206.363892 63.124477 129.277390
v 206.245895 63.388573 128.017227
v 206.350494 63.310356 128.916412
v 206.513489 61.031544 127.062828
v 206.869156 60.990971 127.491623
v 206.827972 60.832199 128.024277
v 206.887924 60.831959 128.975662
v 206.846588 60.991100 129.508438
v 206.675980 61.619736 126.753319
v 206.807098 61.282799 127.056290
v 206.908600 61.282532 129.944199
v 206.669678 61.575474 129.919632
v 207.039032 61.618660 130.247131
v 206.721313 62.116074 126.704330
v 206.594254 62.117069 129.969955
v 206.988419 62.115086 130.304169
v 206.682434 62.553082 126.789207
v 206.670761 62.660744 129.915131
v 207.039871 62.612423 130.247284
v 206.776398 62.850124 127.102676
v 206.801682 63.156082 127.573669
v 206.911453 62.950863 129.949585
v 206.845825 63.238796 129.503387
v 206.790115 63.334667 128.071091
v 206.887711 63.383121 128.978745
v 207.343765 61.109150 127.727386
v 207.368607 60.912560 128.087021
v 207.444000 60.792473 129.000000
v 207.519394 60.912544 129.912964
v 207.202301 61.031731 129.938553
v 207.544144 61.109135 130.272614
v 207.045822 61.574966 127.080399
v 207.425781 61.534279 127.447296
v 207.457840 61.533119 130.556458
v 207.107285 62.115238 127.044327
v 207.497482 62.114738 127.399864
v 207.382751 62.116196 130.611893
v 207.008774 62.630695 127.111229
v 207.429993 62.664883 127.530495
v 207.457504 62.697098 130.556061
v 207.133301 63.250908 128.018890
v 207.462875 63.048077 127.968933
v 207.463364 63.308239 128.476273
v 207.198959 63.207439 129.943069
v 207.537109 63.123550 130.275970
v 207.423721 63.406696 129.014557
v 207.521332 63.320812 129.918320
v 207.685699 61.031788 128.061462
v 208.041122 60.991299 128.491745
v 208.000076 60.831997 129.024338
v 208.060013 60.832199 129.975723
v 208.018799 60.990982 130.508377
v 207.848511 61.619267 127.752533
v 207.979111 61.282806 128.056290
v 208.080612 61.282536 130.944214
v 207.841919 61.575062 130.919907
v 208.211716 61.619301 131.246017
v 207.893066 62.116016 127.704605
v 207.771622 62.116650 130.964630
v 208.160416 62.115044 131.304184
v 207.858582 62.555237 127.785599
v 207.842972 62.660633 130.914978
v 208.212769 62.611851 131.246094
v 207.959290 62.867828 128.095459
v 208.031509 63.176308 128.544052
v 208.083313 62.950897 130.949493
v 208.015762 63.247570 130.506027
v 208.019424 63.382782 129.045685
v 208.063385 63.402393 129.976883
v 208.515793 61.109158 128.727371
v 208.540604 60.912735 129.087219
v 208.615738 60.788662 129.999649
v 208.692322 60.927849 130.907150
v 208.374710 61.031868 130.936569
v 208.715683 61.138557 131.246185
v 208.217834 61.575146 128.080566
v 208.600067 61.533249 128.444565
v 208.639801 61.541695 131.542725
v 208.285675 62.116070 128.038025
v 208.677032 62.114456 128.388428
v 208.555634 62.116409 131.610245
v 208.200180 62.640526 128.104034
v 208.597229 62.692951 128.451538
v 208.641602 62.690445 131.542709
v 208.520782 63.111233 128.737045
v 208.370956 63.208782 130.941971
v 208.712463 63.098415 131.250290
v 208.539871 63.316586 129.087967
v 208.615784 63.449146 129.999695
v 208.690689 63.311371 130.909729
v 208.857666 61.031803 129.061462
v 209.213242 60.990025 129.491455
v 209.167404 60.841530 130.020203
v 209.198212 60.902702 130.936600
v 209.200226 61.159729 131.403519
v 209.020020 61.619392 128.752762
v 209.151138 61.282806 129.056305
v 209.198837 61.474041 131.820709
v 209.035202 61.609463 131.878281
v 209.199173 61.762722 131.993698
v 209.071579 62.116905 128.695862
v 208.957947 62.116703 131.941925
v 209.198334 62.116001 132.040955
v 209.020370 62.612747 128.753693
v 209.035690 62.622581 131.878235
v 209.197296 62.469250 131.993759
v 209.149017 62.951214 129.049942
v 208.861206 63.209049 129.057495
v 209.215820 63.247818 129.494003
v 209.197998 62.756496 131.818954
v 209.200272 63.071445 131.402359
v 209.165741 63.397552 130.020905
v 209.197342 63.329910 130.936508
v 209.678055 61.117374 129.731842
v 209.683121 60.954056 130.067352
v 209.655457 60.973148 130.928665
v 209.609436 61.135181 131.213394
v 209.389877 61.575123 129.080536
v 209.769440 61.534637 129.447037
v 209.340012 61.617241 131.871140
v 209.663361 61.531391 131.441681
v 209.460388 62.116646 129.035370
v 209.845093 62.114441 129.391632
v 209.400009 62.115414 131.918442
v 209.748367 62.116501 131.474274
v 209.389206 62.660675 129.084579
v 209.773682 62.695568 129.445755
v 209.338913 62.613304 131.869751
v 209.662018 62.699852 131.440338
v 209.682617 63.113068 129.729919
v 209.609116 63.094292 131.211517
v 209.677628 63.277924 130.063110
v 209.655914 63.257782 130.927078
v 209.958954 61.110123 130.056870
v 209.798477 61.086082 130.920166
v 210.157181 61.632351 129.771927
v 210.197723 61.368805 130.024826
v 210.223099 61.586502 130.435715
v 210.012543 61.523540 130.937988
v 210.201370 62.116894 129.718002
v 210.051376 62.115070 130.984039
v 210.277206 62.115906 130.462311
v 210.156021 62.598106 129.773087
v 210.009277 62.708084 130.936768
v 210.207520 62.638443 130.428116
v 210.180252 62.848671 130.027039
v 209.948502 63.115227 130.059387
v 209.800690 63.146992 130.922974
v 210.295929 61.635929 130.024887
v 210.328598 62.115776 130.023636
v 210.290070 62.592445 130.022980
# 564 vertices, 0 vertices normals

f 3 2 1
f 1 4 3
f 7 6 5
f 7 5 2
f 5 1 2
f 5 8 1
f 4 1 9
f 9 1 8
f 5 6 10
f 10 6 11
f 5 12 8
f 5 10 12
f 9 8 13
f 13 8 12
f 10 11 14
f 14 11 15
f 10 16 12
f 10 14 16
f 13 12 17
f 17 12 16
f 15 18 14
f 14 18 16
f 16 18 19
f 16 19 17
f 22 21 20
f 20 23 22
f 26 25 24
f 26 24 21
f 24 20 21
f 24 27 20
f 23 20 28
f 28 20 27
f 24 25 29
f 29 25 30
f 24 31 27
f 24 29 31
f 28 27 32
f 32 27 31
f 35 34 33
f 35 33 30
f 30 33 29
f 33 2 29
f 2 3 29
f 29 3 4
f 36 29 4
f 31 29 36
f 32 31 37
f 37 31 36
f 33 34 7
f 34 6 7
f 34 38 6
f 33 7 2
f 9 39 36
f 9 36 4
f 37 36 40
f 40 36 39
f 38 11 6
f 41 11 38
f 13 42 39
f 13 39 9
f 40 39 43
f 43 39 42
f 41 15 11
f 44 15 41
f 46 45 42
f 13 46 42
f 17 46 13
f 42 45 43
f 44 47 15
f 15 47 18
f 18 48 19
f 47 48 18
f 17 19 46
f 46 19 48
f 51 50 49
f 53 52 49
f 49 52 51
f 53 54 52
f 57 56 55
f 57 55 50
f 50 55 49
f 55 21 49
f 21 22 49
f 49 22 23
f 58 49 23
f 53 49 58
f 54 53 59
f 59 53 58
f 55 56 26
f 56 25 26
f 56 60 25
f 55 26 21
f 28 61 58
f 28 58 23
f 59 58 62
f 62 58 61
f 65 64 63
f 60 65 63
f 30 60 63
f 25 60 30
f 32 66 61
f 32 61 28
f 62 61 67
f 67 61 66
f 63 64 35
f 64 34 35
f 64 68 34
f 63 35 30
f 70 69 66
f 32 70 66
f 37 70 32
f 66 69 67
f 68 38 34
f 71 38 68
f 40 70 37
f 40 72 70
f 71 41 38
f 73 41 71
f 43 72 40
f 43 74 72
f 73 44 41
f 75 44 73
f 46 76 45
f 76 77 45
f 77 43 45
f 77 74 43
f 75 78 44
f 44 78 47
f 47 79 48
f 78 79 47
f 46 48 76
f 48 80 76
f 48 79 80
f 76 80 77
f 83 82 81
f 85 84 81
f 81 84 83
f 85 86 84
f 89 88 87
f 89 87 82
f 82 87 81
f 87 50 81
f 50 51 81
f 81 51 52
f 81 52 85
f 52 54 85
f 54 86 85
f 54 90 86
f 87 88 57
f 88 56 57
f 88 91 56
f 87 57 50
f 59 90 54
f 59 92 90
f 91 60 56
f 93 60 91
f 62 92 59
f 62 94 92
f 96 95 65
f 65 95 64
f 65 60 93
f 65 93 96
f 67 94 62
f 67 97 94
f 95 68 64
f 98 68 95
f 100 99 69
f 100 69 70
f 67 69 97
f 97 69 99
f 98 71 68
f 101 71 98
f 72 100 70
f 72 102 100
f 101 73 71
f 103 73 101
f 74 102 72
f 74 104 102
f 103 75 73
f 105 75 103
f 108 107 106
f 107 104 106
f 104 77 106
f 104 74 77
f 78 75 109
f 75 110 109
f 75 105 110
f 111 79 78
f 111 78 109
f 112 108 106
f 79 112 106
f 80 79 106
f 112 79 111
f 80 106 77
f 110 113 109
f 109 113 111
f 111 113 114
f 111 114 112
f 117 116 115
f 119 118 115
f 115 118 117
f 119 120 118
f 115 116 83
f 116 82 83
f 116 121 82
f 115 83 84
f 115 84 119
f 84 86 119
f 86 120 119
f 86 122 120
f 124 123 89
f 89 123 88
f 89 82 121
f 89 121 124
f 90 122 86
f 90 125 122
f 123 91 88
f 126 91 123
f 92 125 90
f 92 127 125
f 126 93 91
f 128 93 126
f 94 127 92
f 94 129 127
f 130 95 96
f 131 130 96
f 93 131 96
f 128 131 93
f 97 129 94
f 97 132 129
f 134 133 130
f 133 95 130
f 133 98 95
f 134 130 131
f 136 135 99
f 136 99 100
f 97 99 132
f 132 99 135
f 133 101 98
f 137 101 133
f 102 136 100
f 102 138 136
f 137 103 101
f 139 103 137
f 142 141 140
f 141 138 140
f 138 104 140
f 138 102 104
f 139 105 103
f 143 105 139
f 142 140 107
f 108 142 107
f 144 142 108
f 107 140 104
f 146 110 145
f 110 143 145
f 110 105 143
f 148 147 146
f 148 146 145
f 148 144 147
f 144 112 147
f 144 108 112
f 146 113 110
f 113 146 114
f 114 146 147
f 114 147 112
f 151 150 149
f 153 152 149
f 149 152 151
f 153 154 152
f 149 150 117
f 150 116 117
f 150 155 116
f 149 117 118
f 149 118 153
f 118 120 153
f 120 154 153
f 120 156 154
f 155 121 116
f 157 121 155
f 122 156 120
f 122 158 156
f 159 123 124
f 160 159 124
f 121 160 124
f 157 160 121
f 125 158 122
f 125 161 158
f 162 126 159
f 159 126 123
f 159 160 163
f 159 163 162
f 127 161 125
f 127 164 161
f 165 128 162
f 162 128 126
f 162 163 166
f 162 166 165
f 129 164 127
f 129 167 164
f 168 131 165
f 165 131 128
f 165 166 169
f 165 169 168
f 172 171 170
f 171 167 170
f 167 132 170
f 167 129 132
f 173 133 134
f 131 168 134
f 168 173 134
f 168 174 173
f 168 169 175
f 176 168 175
f 174 168 176
f 176 175 172
f 176 172 170
f 136 176 170
f 135 136 170
f 135 170 132
f 177 137 173
f 173 137 133
f 178 173 174
f 177 173 178
f 179 174 176
f 178 174 179
f 138 179 136
f 136 179 176
f 180 139 177
f 177 139 137
f 181 177 178
f 180 177 181
f 142 181 141
f 181 179 141
f 181 178 179
f 141 179 138
f 182 143 180
f 180 143 139
f 183 180 181
f 182 180 183
f 144 183 142
f 142 183 181
f 182 145 143
f 145 182 148
f 148 182 183
f 148 183 144
f 185 184 151
f 151 184 150
f 186 151 152
f 186 185 151
f 152 154 186
f 186 154 187
f 184 155 150
f 188 155 184
f 156 187 154
f 156 189 187
f 188 157 155
f 190 157 188
f 158 189 156
f 158 191 189
f 190 160 157
f 192 160 190
f 161 191 158
f 161 193 191
f 192 163 160
f 194 163 192
f 164 193 161
f 164 195 193
f 197 166 196
f 166 194 196
f 166 163 194
f 199 198 197
f 199 197 196
f 199 195 198
f 195 167 198
f 195 164 167
f 200 169 197
f 197 169 166
f 172 200 171
f 200 198 171
f 200 197 198
f 171 198 167
f 200 175 169
f 175 200 172
f 203 202 201
f 205 204 201
f 201 204 203
f 205 206 204
f 201 202 185
f 202 184 185
f 202 207 184
f 201 185 186
f 201 186 205
f 186 187 205
f 187 206 205
f 187 208 206
f 207 188 184
f 209 188 207
f 189 208 187
f 189 210 208
f 209 190 188
f 211 190 209
f 191 210 189
f 191 212 210
f 211 192 190
f 213 192 211
f 193 212 191
f 193 214 212
f 213 194 192
f 215 194 213
f 195 214 193
f 195 216 214
f 215 217 194
f 194 217 196
f 196 218 199
f 217 218 196
f 195 199 216
f 216 199 218
f 220 219 203
f 203 219 202
f 221 203 204
f 221 220 203
f 204 206 221
f 221 206 222
f 219 207 202
f 223 207 219
f 208 222 206
f 208 224 222
f 223 209 207
f 225 209 223
f 210 224 208
f 210 226 224
f 225 211 209
f 227 211 225
f 212 226 210
f 212 228 226
f 227 213 211
f 229 213 227
f 214 228 212
f 214 230 228
f 232 215 231
f 215 229 231
f 215 213 229
f 234 233 232
f 234 232 231
f 234 230 233
f 230 216 233
f 230 214 216
f 232 217 215
f 217 232 218
f 218 232 233
f 218 233 216
f 237 236 235
f 239 238 235
f 235 238 237
f 239 240 238
f 235 236 220
f 236 219 220
f 236 241 219
f 235 220 221
f 235 221 239
f 221 222 239
f 222 240 239
f 222 242 240
f 241 223 219
f 243 223 241
f 224 242 222
f 224 244 242
f 243 225 223
f 245 225 243
f 226 244 224
f 226 246 244
f 245 227 225
f 247 227 245
f 228 246 226
f 228 248 246
f 247 229 227
f 249 229 247
f 230 248 228
f 230 250 248
f 249 251 229
f 229 251 231
f 231 252 234
f 251 252 231
f 230 234 250
f 250 234 252
f 254 253 237
f 237 253 236
f 255 237 238
f 255 254 237
f 238 240 255
f 255 240 256
f 253 241 236
f 257 241 253
f 242 259 258
f 256 242 258
f 240 242 256
f 259 260 258
f 257 243 241
f 261 243 257
f 244 262 259
f 244 259 242
f 260 259 263
f 263 259 262
f 261 245 243
f 264 245 261
f 266 265 262
f 244 266 262
f 246 266 244
f 262 265 263
f 264 247 245
f 267 247 264
f 248 266 246
f 248 268 266
f 270 249 269
f 249 267 269
f 249 247 267
f 272 271 270
f 272 270 269
f 272 268 271
f 268 250 271
f 268 248 250
f 270 251 249
f 251 270 252
f 252 270 271
f 252 271 250
f 274 273 254
f 254 273 253
f 275 254 255
f 275 274 254
f 277 276 256
f 276 255 256
f 276 275 255
f 277 278 276
f 273 257 253
f 279 257 273
f 258 277 256
f 258 260 277
f 260 278 277
f 260 280 278
f 279 261 257
f 281 261 279
f 263 280 260
f 263 282 280
f 281 264 261
f 283 264 281
f 266 284 265
f 284 285 265
f 285 263 265
f 285 282 263
f 283 267 264
f 286 267 283
f 288 287 284
f 266 288 284
f 268 288 266
f 284 287 285
f 286 289 267
f 267 289 269
f 269 290 272
f 289 290 269
f 268 272 288
f 288 272 290
f 293 292 291
f 291 294 293
f 296 295 274
f 274 295 273
f 275 291 292
f 296 275 292
f 274 275 296
f 297 294 291
f 275 297 291
f 276 297 275
f 276 278 297
f 297 278 298
f 295 279 273
f 299 279 295
f 280 298 278
f 280 300 298
f 299 281 279
f 301 281 299
f 282 300 280
f 282 302 300
f 301 283 281
f 303 283 301
f 285 302 282
f 285 304 302
f 306 286 305
f 286 303 305
f 286 283 303
f 308 307 306
f 308 306 305
f 287 288 307
f 308 287 307
f 309 287 308
f 285 287 304
f 304 287 309
f 306 289 286
f 289 306 290
f 290 306 307
f 290 307 288
f 311 310 293
f 293 310 292
f 313 312 294
f 312 293 294
f 312 311 293
f 313 314 312
f 316 315 296
f 296 315 295
f 296 292 310
f 296 310 316
f 297 313 294
f 318 317 298
f 298 317 297
f 317 314 297
f 314 313 297
f 318 319 317
f 315 299 295
f 320 299 315
f 300 321 318
f 300 318 298
f 319 318 322
f 322 318 321
f 320 301 299
f 323 301 320
f 302 324 321
f 302 321 300
f 322 321 325
f 325 321 324
f 327 303 326
f 303 323 326
f 303 301 323
f 328 327 326
f 330 329 324
f 302 330 324
f 304 330 302
f 324 329 325
f 327 305 303
f 328 331 327
f 331 305 327
f 331 308 305
f 308 332 309
f 331 332 308
f 304 309 330
f 330 309 332
f 334 333 311
f 311 333 310
f 335 311 312
f 335 334 311
f 312 314 335
f 335 314 336
f 337 315 316
f 338 337 316
f 310 338 316
f 333 338 310
f 339 336 314
f 339 314 317
f 317 319 339
f 339 319 340
f 341 320 337
f 337 320 315
f 337 338 342
f 337 342 341
f 322 340 319
f 322 343 340
f 344 323 341
f 341 323 320
f 341 342 345
f 341 345 344
f 325 343 322
f 325 346 343
f 344 326 323
f 328 326 344
f 345 328 344
f 347 328 345
f 349 348 329
f 349 329 330
f 325 329 346
f 346 329 348
f 347 350 328
f 328 350 331
f 331 351 332
f 350 351 331
f 330 332 349
f 349 332 351
f 352 333 334
f 352 334 353
f 334 354 353
f 334 335 354
f 356 355 336
f 355 335 336
f 355 354 335
f 356 357 355
f 359 358 352
f 358 333 352
f 358 338 333
f 359 352 353
f 339 356 336
f 339 340 356
f 340 357 356
f 340 360 357
f 358 342 338
f 361 342 358
f 343 363 362
f 360 343 362
f 340 343 360
f 363 364 362
f 361 345 342
f 365 345 361
f 367 366 363
f 343 367 363
f 346 367 343
f 363 366 364
f 369 347 368
f 347 365 368
f 347 345 365
f 370 369 368
f 349 371 348
f 371 372 348
f 372 346 348
f 372 367 346
f 369 350 347
f 370 373 369
f 373 350 369
f 373 351 350
f 349 351 371
f 351 374 371
f 351 373 374
f 371 374 372
f 376 375 354
f 354 375 353
f 377 354 355
f 377 376 354
f 355 357 377
f 377 357 378
f 380 379 359
f 359 379 358
f 359 353 375
f 359 375 380
f 360 382 381
f 378 360 381
f 357 360 378
f 382 383 381
f 379 361 358
f 384 361 379
f 362 382 360
f 362 364 382
f 364 383 382
f 364 385 383
f 384 365 361
f 386 365 384
f 367 387 366
f 387 388 366
f 388 364 366
f 388 385 364
f 386 389 365
f 365 389 368
f 370 368 389
f 370 389 390
f 392 391 387
f 367 392 387
f 372 392 367
f 387 391 388
f 390 393 370
f 370 393 373
f 373 394 374
f 393 394 373
f 372 374 392
f 392 374 394
f 396 395 376
f 376 395 375
f 397 376 377
f 397 396 376
f 399 398 378
f 398 377 378
f 398 397 377
f 399 400 398
f 401 379 380
f 402 401 380
f 375 402 380
f 395 402 375
f 381 399 378
f 381 383 399
f 383 400 399
f 383 403 400
f 404 384 401
f 401 384 379
f 401 402 405
f 401 405 404
f 385 403 383
f 385 406 403
f 407 386 404
f 404 386 384
f 404 405 408
f 404 408 407
f 388 406 385
f 388 409 406
f 407 389 386
f 411 410 390
f 411 390 389
f 408 411 389
f 407 408 389
f 412 410 411
f 392 413 391
f 413 414 391
f 414 388 391
f 414 409 388
f 410 393 390
f 412 415 410
f 415 393 410
f 415 394 393
f 392 394 413
f 394 416 413
f 394 415 416
f 413 416 414
f 417 395 396
f 417 396 418
f 396 419 418
f 396 397 419
f 420 397 398
f 420 419 397
f 398 400 420
f 420 400 421
f 423 422 417
f 422 395 417
f 422 402 395
f 423 417 418
f 403 425 424
f 421 403 424
f 400 403 421
f 425 426 424
f 422 405 402
f 427 405 422
f 406 428 425
f 406 425 403
f 426 425 429
f 429 425 428
f 427 408 405
f 430 408 427
f 409 431 428
f 409 428 406
f 429 428 432
f 432 428 431
f 430 433 408
f 408 433 411
f 412 411 433
f 412 433 434
f 436 435 431
f 409 436 431
f 414 436 409
f 431 435 432
f 434 437 412
f 412 437 415
f 415 438 416
f 437 438 415
f 414 416 436
f 436 416 438
f 440 439 419
f 419 439 418
f 441 419 420
f 441 440 419
f 443 442 421
f 442 420 421
f 442 441 420
f 443 444 442
f 445 422 423
f 446 445 423
f 418 446 423
f 439 446 418
f 424 443 421
f 424 426 443
f 426 444 443
f 426 447 444
f 448 427 445
f 445 427 422
f 445 446 449
f 445 449 448
f 429 447 426
f 429 450 447
f 451 430 448
f 448 430 427
f 448 449 452
f 448 452 451
f 432 450 429
f 432 453 450
f 451 433 430
f 455 454 434
f 455 434 433
f 452 455 433
f 451 452 433
f 456 454 455
f 436 457 435
f 457 458 435
f 458 432 435
f 458 453 432
f 454 437 434
f 456 459 454
f 459 437 454
f 459 438 437
f 436 438 457
f 438 460 457
f 438 459 460
f 457 460 458
f 461 439 440
f 461 440 462
f 440 463 462
f 440 441 463
f 464 441 442
f 464 463 441
f 442 444 464
f 464 444 465
f 467 466 461
f 466 439 461
f 466 446 439
f 467 461 462
f 447 469 468
f 465 447 468
f 444 447 465
f 469 470 468
f 466 449 446
f 471 449 466
f 450 472 469
f 450 469 447
f 470 469 473
f 473 469 472
f 471 452 449
f 474 452 471
f 453 475 472
f 453 472 450
f 473 472 476
f 476 472 475
f 474 477 452
f 452 477 455
f 456 455 477
f 456 477 478
f 480 479 475
f 453 480 475
f 458 480 453
f 475 479 476
f 478 481 456
f 456 481 459
f 459 482 460
f 481 482 459
f 458 460 480
f 480 460 482
f 484 483 463
f 463 483 462
f 485 463 464
f 485 484 463
f 487 486 465
f 486 464 465
f 486 485 464
f 487 488 486
f 489 466 467
f 490 489 467
f 462 490 467
f 483 490 462
f 468 487 465
f 468 470 487
f 470 488 487
f 470 491 488
f 492 471 489
f 489 471 466
f 489 490 493
f 489 493 492
f 473 491 470
f 473 494 491
f 495 474 492
f 492 474 471
f 492 493 496
f 492 496 495
f 476 494 473
f 476 497 494
f 495 477 474
f 478 477 495
f 496 478 495
f 498 478 496
f 480 499 479
f 499 500 479
f 500 476 479
f 500 497 476
f 498 501 478
f 478 501 481
f 481 502 482
f 501 502 481
f 480 482 499
f 482 503 499
f 482 502 503
f 499 503 500
f 504 483 484
f 504 484 505
f 484 506 505
f 484 485 506
f 507 485 486
f 507 506 485
f 486 488 507
f 507 488 508
f 510 509 504
f 509 483 504
f 509 490 483
f 510 504 505
f 491 512 511
f 508 491 511
f 488 491 508
f 512 513 511
f 509 493 490
f 514 493 509
f 494 515 512
f 494 512 491
f 513 512 516
f 516 512 515
f 514 496 493
f 517 496 514
f 497 518 515
f 497 515 494
f 516 515 519
f 519 515 518
f 521 498 520
f 498 517 520
f 498 496 517
f 522 521 520
f 524 523 518
f 497 524 518
f 500 524 497
f 518 523 519
f 521 501 498
f 522 525 521
f 525 501 521
f 525 502 501
f 502 526 503
f 525 526 502
f 500 503 524
f 524 503 526
f 528 527 506
f 506 527 505
f 529 506 507
f 529 528 506
f 507 508 529
f 529 508 530
f 531 509 510
f 532 531 510
f 505 532 510
f 527 532 505
f 508 511 533
f 534 508 533
f 530 508 534
f 513 533 511
f 535 514 531
f 531 514 509
f 531 532 536
f 531 536 535
f 534 533 537
f 534 537 538
f 516 537 513
f 513 537 533
f 539 517 535
f 535 517 514
f 535 536 540
f 535 540 539
f 538 537 541
f 538 541 542
f 519 541 516
f 516 541 537
f 539 520 517
f 522 520 539
f 540 522 539
f 543 522 540
f 542 541 523
f 524 542 523
f 544 542 524
f 523 541 519
f 543 545 522
f 522 545 525
f 525 546 526
f 545 546 525
f 524 526 544
f 544 526 546
f 547 527 528
f 529 548 528
f 528 548 547
f 530 548 529
f 550 549 547
f 549 527 547
f 549 532 527
f 552 551 550
f 547 552 550
f 548 552 547
f 534 552 530
f 530 552 548
f 549 536 532
f 553 536 549
f 551 552 554
f 551 554 555
f 538 554 534
f 534 554 552
f 553 540 536
f 556 540 553
f 555 554 557
f 555 557 558
f 542 557 538
f 538 557 554
f 560 543 559
f 543 556 559
f 543 540 556
f 560 559 558
f 557 560 558
f 561 560 557
f 544 561 542
f 542 561 557
f 560 545 543
f 545 560 546
f 546 560 561
f 546 561 544
f 562 549 550
f 551 562 550
f 563 553 562
f 562 553 549
f 555 563 551
f 551 563 562
f 564 556 563
f 563 556 553
f 558 564 555
f 555 564 563
f 564 559 556
f 559 564 558
# 1124 faces, 0 coords texture

# End of File