####
#
# OBJ File Generated by Meshlab
#
####
# Object domain130.obj
#
# Vertices: 657
# Faces: 1318
#
####
v 170.696045 210.668106 120.085434
v 167.006287 202.708923 131.181870
v 163.784912 201.224808 125.765289
v 162.053162 232.646179 134.148865
v 170.377258 220.628723 120.080894
v 160.802429 228.838028 131.416855
v 160.276001 240.343628 133.390808
v 170.066574 226.773758 120.061295
v 162.798248 232.639694 124.547394
v 169.870575 216.526413 132.114456
v 167.833786 242.847656 134.142136
v 166.882553 204.511063 132.853928
v 174.284897 202.512589 126.428886
v 164.919418 208.619049 122.927696
v 173.920380 204.612640 121.787529
v 173.770889 218.598175 123.973793
v 166.920975 228.833023 120.854004
v 163.406342 218.725433 134.193268
v 169.428650 240.793808 132.799454
v 164.990738 200.786545 126.721992
v 168.723877 210.679169 132.824158
v 162.076660 221.325119 125.767387
v 167.009766 240.159393 127.218559
v 165.011520 226.801956 134.627930
v 164.076401 212.718597 124.112694
v 161.866241 204.555557 132.144882
v 162.167007 212.709000 126.569786
v 167.526566 224.730408 133.867371
v 167.010071 200.504074 126.736679
v 170.058990 238.784164 131.439240
v 160.332672 241.124557 130.283829
v 169.491211 238.803299 132.824280
v 170.769974 222.681091 131.072296
v 168.735703 202.824188 131.094315
v 162.573395 214.481079 133.592438
v 171.633347 220.630234 129.794373
v 160.819336 236.730438 129.005768
v 162.935959 201.429764 128.358521
v 167.005722 237.674103 123.954048
v 167.535797 226.782318 133.895248
v 167.121094 218.578400 121.173294
v 172.460541 226.770523 126.662384
v 161.943497 202.622009 128.931900
v 168.383362 216.526947 120.368118
v 162.891708 242.942322 131.338028
v 170.516708 226.779724 131.357971
v 160.266937 240.207031 133.365067
v 175.859711 201.940811 124.684654
v 163.819061 205.160416 133.712433
v 171.493668 226.795624 129.339157
v 170.772583 201.320175 128.319519
v 170.778366 200.601837 121.132240
v 169.224762 210.660950 120.039825
v 161.057419 240.539642 129.201538
v 162.220566 222.688065 133.764038
v 160.471390 243.405029 133.277740
v 166.594055 226.784836 134.286957
v 167.007690 242.025375 129.845139
v 172.424301 228.703430 122.638214
v 172.583618 216.527191 128.505280
v 160.782425 230.878189 128.923904
v 166.013885 222.713852 121.718605
v 163.594772 230.883194 123.626160
v 162.729141 206.597778 133.345917
v 162.917252 234.695465 124.583977
v 165.241272 212.781677 122.763824
v 173.768204 202.525314 121.744225
v 167.046585 204.495697 121.042595
v 162.157623 206.470306 126.520622
v 171.567764 235.866150 122.673782
v 163.015717 228.868500 134.532227
v 171.675613 218.579483 129.825470
v 168.635422 206.570908 132.740128
v 171.778381 232.672363 127.890900
v 163.397491 216.538986 134.067627
v 172.556198 212.770935 128.647522
v 167.135544 216.526825 121.190536
v 160.863129 222.689102 128.934875
v 161.014725 218.623886 131.377457
v 161.633820 210.676392 132.494003
v 165.216370 214.476562 122.902664
v 168.616806 242.519577 131.437241
v 168.702866 230.951538 133.262543
v 169.268631 242.054550 132.574295
v 170.687698 212.716202 120.085663
v 169.791473 203.829819 131.754318
v 168.368759 204.403564 120.268875
v 161.452972 204.631973 129.111588
v 171.959579 228.832153 127.987595
v 171.483475 217.036499 120.369774
v 164.071793 204.504501 124.107094
v 172.405838 218.424103 121.274933
v 162.935898 240.852646 134.793503
v 163.120972 214.479248 125.259735
v 162.977936 236.746994 134.718903
v 170.683899 208.612137 120.086632
v 171.649826 232.628250 121.511398
v 167.499298 220.622208 133.809052
v 168.040421 224.739883 120.256470
v 170.782684 220.628860 131.080261
v 169.240707 218.578827 120.068161
v 173.494339 212.715790 127.186798
v 172.129684 234.666840 124.501717
v 172.614624 210.670044 120.898544
v 172.792633 222.656906 122.610176
v 161.170609 208.658463 131.319977
v 165.075409 204.473679 133.234177
v 164.966583 218.601044 123.004837
v 164.955765 240.866058 135.119766
v 166.964722 240.855911 134.797791
v 170.818542 212.718079 131.099777
v 162.277283 208.620865 126.186150
v 168.981796 222.756485 120.030357
v 171.714142 214.459045 129.841965
v 165.008408 222.680756 134.528168
v 167.224930 235.690704 121.773605
v 171.541000 235.565384 122.161697
v 162.209595 204.514587 126.595726
v 161.925247 224.733231 125.628288
v 163.218155 206.620850 125.041451
v 171.664032 236.629990 124.645729
v 172.598007 226.766983 122.813568
v 162.209290 201.658630 128.134277
v 160.859970 224.731506 131.386078
v 174.085861 210.534042 122.792130
v 169.899429 226.785568 132.188461
v 160.143387 240.162476 131.548843
v 164.941666 234.696930 134.975327
v 161.687698 214.475693 127.482582
v 160.754105 230.886490 131.430923
v 165.021866 200.623032 124.688934
v 168.545288 204.525253 132.480789
v 169.848267 210.682983 132.083054
v 162.919647 240.994034 128.623169
v 167.009003 201.121887 128.439163
v 174.623611 202.415741 122.891685
v 173.721832 220.047653 124.866570
v 161.163712 214.473404 129.094162
v 161.485855 220.642059 132.844498
v 168.740768 214.479202 132.913086
v 160.747345 232.642151 131.454544
v 162.914139 239.993866 127.329056
v 164.984161 228.803238 134.728363
v 172.365021 228.826813 126.643143
v 168.768890 234.648026 133.435715
v 162.541016 216.533279 133.643143
v 164.806595 222.601547 122.669350
v 167.285217 218.525116 133.842712
v 171.243668 239.294434 126.742592
v 166.584915 224.732010 134.257736
v 161.426346 224.733871 132.893631
v 167.032944 236.735611 122.871826
v 163.724472 228.618927 123.482292
v 172.855896 200.112061 124.732590
v 170.814560 230.867966 120.498535
v 168.608643 234.602997 120.587830
v 161.511429 220.678436 126.815285
v 161.683716 212.728256 127.476982
v 168.693039 203.678146 132.066574
v 166.120682 214.511200 121.993149
v 170.026764 232.641479 120.108109
v 170.808273 210.667557 131.094421
v 169.239944 204.535141 120.010780
v 172.735977 200.857056 126.570435
v 161.414841 230.878754 126.609558
v 162.026581 234.695435 134.154800
v 161.684891 208.582397 132.472122
v 162.260468 220.654236 133.700363
v 166.051041 220.618652 121.898949
v 165.829742 244.737625 135.792450
v 168.799179 236.763107 133.653152
v 167.946655 235.331665 134.172241
v 167.606033 230.313843 133.978149
v 172.656723 204.481384 128.804367
v 169.831284 230.857941 132.178009
v 168.767303 240.052963 127.302246
v 165.153107 242.939804 135.223328
v 169.879700 222.684708 132.136642
v 173.976105 212.702423 122.596092
v 166.793594 210.667358 133.619598
v 161.403473 226.786072 126.604286
v 167.005066 208.606293 120.974556
v 160.749054 234.694641 131.451584
v 172.264969 230.872345 122.622810
v 170.454010 231.007629 131.229675
v 169.975113 233.834061 120.236595
v 160.789429 228.832153 128.919434
v 164.867264 234.698242 122.838272
v 169.680588 206.566849 132.118393
v 171.247238 239.331985 126.777771
v 170.601425 234.491501 120.852142
v 163.282608 202.503250 125.388763
v 165.013824 224.736633 134.564194
v 166.574203 222.681473 134.234604
v 166.958282 232.657104 120.887772
v 166.404999 218.737350 134.180527
v 164.962372 201.212265 128.406799
v 160.705307 236.768509 131.453049
v 161.753006 238.740753 126.932045
v 161.530960 236.728165 126.654594
v 161.399582 228.817825 126.560104
v 162.715591 230.872925 124.596092
v 173.905975 216.430557 123.566719
v 166.755585 232.676758 134.500168
v 174.331741 206.539963 122.727089
v 173.546600 216.469559 122.558884
v 161.085403 212.718719 131.349884
v 166.945724 236.759125 134.708282
v 164.959213 239.442734 126.308464
v 167.012772 206.569427 120.963882
v 172.819702 200.143707 122.691093
v 165.939468 224.731461 121.625336
v 170.726822 238.150330 125.127289
v 162.072845 220.042053 126.029259
v 167.008301 241.104263 128.525742
v 164.063660 209.491394 123.987747
v 171.971497 226.747803 121.434052
v 173.600830 219.987762 126.043266
v 165.914780 226.782135 121.600807
v 169.666260 232.599960 132.305527
v 163.001205 230.894577 134.644226
v 168.842361 224.698807 133.058472
v 167.011246 222.656265 120.960075
v 164.033920 205.741394 124.052834
v 168.767487 239.411972 126.325165
v 164.730286 224.727829 122.636108
v 160.246033 240.015091 133.322754
v 161.847672 203.585236 130.864670
v 167.020218 199.916885 123.968384
v 175.609863 200.812180 124.664467
v 167.856781 243.426453 133.645325
v 163.544846 212.875748 133.980301
v 162.187912 216.357391 126.338379
v 165.721191 200.586884 123.393723
v 170.425385 203.174866 130.626572
v 169.540176 202.530258 120.076012
v 174.605408 200.396454 123.934273
v 160.354172 238.832184 131.487534
v 162.151047 228.885193 134.050186
v 172.551849 214.447906 120.975906
v 173.892654 214.471344 126.140961
v 174.500473 204.417297 122.893494
v 172.660934 202.513336 120.867172
v 166.809326 212.718887 133.673843
v 168.769073 199.925781 124.778656
v 165.258972 202.527924 122.931747
v 162.823471 210.668930 133.600342
v 173.588623 212.673935 121.826088
v 168.817841 232.653763 119.969299
v 170.672531 224.634720 131.125732
v 171.386261 220.624283 120.488060
v 162.990860 232.642914 134.683167
v 171.709167 236.747940 126.365318
v 171.918549 228.711365 121.502861
v 166.121124 218.577621 121.989052
v 161.462479 204.619202 131.163330
v 167.008469 203.622757 132.235428
v 173.343521 218.557999 127.091492
v 170.715546 206.549576 120.026772
v 163.266617 220.647110 134.249084
v 169.876389 218.578339 132.123474
v 162.980011 202.919678 131.072617
v 166.155716 212.695862 121.867287
v 168.378845 218.579727 120.361397
v 171.721588 212.718521 129.874802
v 166.212067 216.551926 134.086426
v 164.956741 238.799164 135.058731
v 161.631317 206.687271 132.287247
v 166.958008 243.868729 133.658371
v 165.616562 200.285797 123.961014
v 164.958282 243.665573 132.554932
v 164.897156 230.906647 134.859207
v 164.892731 214.586456 134.130096
v 171.432770 228.835007 129.317627
v 168.029800 238.795990 134.289001
v 162.173187 214.481140 126.574249
v 166.927567 230.883789 120.862152
v 161.159653 212.710327 129.089005
v 167.455200 243.648895 134.007584
v 164.979614 238.364365 125.055977
v 168.733444 212.721008 132.883057
v 163.240829 243.624481 134.234818
v 161.450912 222.682419 132.873856
v 168.653702 202.470764 120.391243
v 166.172348 200.221954 123.331009
v 172.198517 222.665695 128.452316
v 169.893433 228.828934 132.186691
v 163.672058 231.995880 123.655449
v 168.020691 228.833160 120.230934
v 172.087357 224.436340 128.289368
v 169.802078 240.360413 129.050095
v 161.049591 242.467651 131.489563
v 168.702423 240.910126 128.673264
v 168.013641 236.750092 134.259933
v 172.278564 230.864960 126.633453
v 172.708755 208.611038 120.898285
v 166.560669 220.636429 134.203796
v 161.731308 242.835037 134.112000
v 168.872772 224.737137 119.995483
v 168.859146 200.850021 121.014244
v 168.815613 240.823074 133.646667
v 165.915222 228.833313 121.600357
v 164.920197 232.650391 134.928040
v 162.227829 238.191406 126.044792
v 160.311325 240.269714 133.407883
v 168.848251 228.835281 133.121719
v 163.673279 223.044800 123.694923
v 174.782562 204.441299 124.506111
v 169.240524 214.475220 120.063843
v 163.064636 210.676392 125.223930
v 166.998306 242.901489 131.328232
v 173.114105 220.563629 122.821091
v 170.812210 200.557785 126.724991
v 169.465576 236.692947 132.787766
v 163.606461 224.734283 123.625542
v 170.719223 204.574188 131.044037
v 166.147903 216.526474 122.018211
v 162.688721 226.783218 124.564949
v 170.765869 235.552856 121.709206
v 165.108978 216.601410 123.008812
v 161.797836 204.522446 127.521744
v 172.547775 218.576630 128.477371
v 171.461624 237.793808 125.348038
v 174.182358 204.508469 126.538124
v 162.677277 228.831055 124.555611
v 165.139435 210.655823 122.794388
v 173.548691 207.469589 127.587280
v 169.075562 208.526825 120.025063
v 169.041092 206.679962 120.017456
v 163.160034 226.883545 134.412079
v 162.942657 242.791168 134.638168
v 172.150391 222.670197 121.305954
v 172.520844 230.855698 124.506767
v 170.200180 234.619629 131.395065
v 170.887192 232.535751 120.600372
v 160.773987 232.620499 129.072891
v 166.565063 200.707047 122.446182
v 165.728729 206.303772 133.774887
v 171.079758 226.772507 120.514160
v 161.868301 208.624832 126.875999
v 164.892548 212.726044 134.067413
v 161.325272 234.705185 133.249100
v 171.490601 236.766281 127.432907
v 172.677307 206.535233 120.794395
v 168.026413 240.857788 134.272537
v 172.635239 212.701553 120.918610
v 164.001190 210.686523 124.063324
v 168.344360 212.715759 120.322906
v 164.962097 202.690353 131.199295
v 172.687286 206.544083 128.826904
v 161.544983 218.599686 132.717819
v 169.790253 240.759293 131.443451
v 171.196472 239.347336 126.768028
v 173.864456 206.385406 121.801155
v 160.399155 241.530563 130.445755
v 174.023300 210.493500 126.137970
v 162.083435 230.892975 134.129456
v 167.553818 228.828339 133.935883
v 162.954651 238.799591 134.757660
v 164.959137 241.116837 128.516342
v 168.770950 238.455185 124.980888
v 160.884720 222.682220 131.383438
v 170.818680 199.935089 124.778099
v 169.228912 220.640732 120.053635
v 161.275879 232.672348 133.143311
v 161.426102 224.734070 126.612999
v 172.610245 224.773911 126.673767
v 167.101883 214.454468 121.177338
v 170.744995 202.545883 120.079178
v 165.922699 230.884247 121.604477
v 161.053467 218.516571 129.081497
v 161.353027 228.841415 133.065796
v 169.771729 208.779205 132.091553
v 164.968872 203.546844 132.347473
v 170.818451 206.584290 131.101913
v 164.877823 216.619720 134.288422
v 172.436066 202.709442 128.495651
v 172.845322 199.953278 123.940208
v 171.538239 224.968185 129.483719
v 160.803558 226.782898 128.922256
v 163.200943 224.746918 134.336716
v 170.670883 214.468765 120.091240
v 163.703888 208.613998 133.924973
v 171.540344 222.680069 129.743607
v 168.346176 220.630402 120.323502
v 170.367111 222.672501 120.078873
v 162.712280 224.731888 124.586670
v 163.114441 212.716965 125.252098
v 170.740677 236.572800 122.960411
v 171.352341 230.895294 129.289856
v 172.675461 208.614105 128.709442
v 170.703781 208.575943 131.222885
v 164.887665 210.669937 134.023468
v 164.958847 218.575638 134.398956
v 167.009903 239.482376 126.280556
v 165.029572 220.649765 134.465103
v 164.435364 205.114563 133.747025
v 172.618607 214.485260 128.517929
v 173.815964 216.506134 126.128304
v 172.397934 220.526810 128.476105
v 163.854492 236.510864 124.012047
v 162.902100 203.707596 132.221649
v 167.411682 200.846588 121.765717
v 170.367004 232.576645 131.232010
v 174.585678 206.572891 124.618141
v 174.121994 200.329788 122.961365
v 171.948975 204.079086 120.232979
v 170.801575 216.526962 131.090454
v 171.697388 216.527161 129.841064
v 160.932648 220.638107 131.380875
v 172.765671 226.761490 124.488686
v 163.213806 208.625168 124.948502
v 160.513474 243.383133 133.301514
v 170.959579 236.748734 129.060699
v 161.293152 230.892273 133.100861
v 163.390213 214.489670 133.991699
v 160.834900 226.786652 131.392517
v 161.196075 208.622070 129.070953
v 162.950989 243.554626 132.608551
v 164.791870 226.714417 122.520668
v 166.078598 234.649170 121.822701
v 160.385422 242.090683 131.728745
v 163.001007 236.730042 124.706169
v 170.833633 204.571320 119.931992
v 164.758362 228.899612 122.543716
v 161.899292 226.785629 125.609650
v 166.242081 235.718765 122.211082
v 169.243271 216.526550 120.065086
v 171.917923 234.652557 122.565086
v 162.053894 236.732773 125.728058
v 166.067261 208.605591 121.749870
v 171.764236 230.853973 121.508224
v 173.890900 218.431824 124.719177
v 164.096100 214.472794 124.121574
v 168.520874 242.776398 133.148804
v 174.191071 206.449860 126.498749
v 173.531189 210.656158 127.221375
v 160.947006 220.619217 129.018036
v 162.206940 210.832230 126.321434
v 169.362885 242.077087 131.520004
v 164.908005 220.634964 122.882759
v 161.124832 210.677963 131.331238
v 171.354675 222.670975 120.525902
v 168.760696 201.841354 129.681625
v 161.954269 232.674072 125.683723
v 167.105698 202.483612 121.205879
v 164.724411 230.887024 122.630569
v 169.680420 234.676132 132.351135
v 173.992111 215.244537 122.796043
v 161.285217 236.800171 133.248596
v 164.891312 206.698441 122.984863
v 168.769196 218.580246 133.000412
v 168.765411 237.687653 123.945511
v 170.955505 228.923538 120.522781
v 167.022125 200.012650 124.756706
v 162.917648 241.971130 129.887833
v 165.829346 244.802002 135.809052
v 173.970840 214.594101 122.707031
v 164.958832 240.157318 127.219437
v 171.973373 234.647644 126.415901
v 171.295303 232.710571 129.122116
v 166.719223 242.963608 134.897186
v 164.956909 236.746490 135.023636
v 173.495453 214.368668 121.856903
v 170.688614 237.390839 124.167091
v 167.131302 200.209915 122.761459
v 164.732117 232.665588 122.674316
v 162.451538 218.527237 133.706680
v 170.796158 218.577972 131.086853
v 162.131256 243.515686 133.905655
v 172.515915 216.381195 121.140594
v 172.929382 224.681900 124.505386
v 170.609055 238.773880 128.933426
v 168.765305 201.142456 128.429810
v 174.215424 208.560303 122.816628
v 167.010590 238.477921 124.956619
v 172.050095 224.716202 121.387154
v 170.813644 214.475632 131.098770
v 164.958542 242.982468 131.287369
v 164.874878 208.622711 134.004639
v 172.371582 232.583313 124.492722
v 170.575455 216.423508 120.062584
v 166.874924 234.726974 134.626251
v 170.156265 236.745392 131.457443
v 168.233810 206.384644 120.271553
v 162.973114 220.606842 124.693207
v 173.940933 212.709686 126.155640
v 161.018478 241.690811 130.144440
v 161.976303 234.732544 125.697227
v 169.785934 230.917847 120.025276
v 170.174667 224.618210 120.057556
v 172.214401 220.615341 121.281990
v 165.694061 243.835205 135.487000
v 167.121948 234.634476 121.246490
v 162.822861 222.573807 124.576057
v 167.517059 222.680435 133.837769
v 172.187515 232.600754 122.778671
v 169.881668 224.749634 132.168915
v 168.241425 208.676331 120.269768
v 160.900574 238.762360 128.969421
v 168.021408 226.782898 120.231377
v 169.495499 241.540665 130.159164
v 169.870117 214.475357 132.109772
v 168.654404 232.648392 133.360413
v 164.074142 216.011185 124.083313
v 163.011566 202.080719 129.560883
v 175.658447 200.971100 124.669144
v 166.956299 238.797745 134.754349
v 168.367706 214.474472 120.342331
v 168.783081 220.630295 133.037506
v 165.935013 206.462845 121.867500
v 162.357697 202.565079 126.618385
v 174.282898 210.793655 124.669151
v 165.370636 244.029022 135.038483
v 161.912460 230.914322 125.617958
v 161.246170 206.590973 131.331696
v 165.177704 236.438614 123.264137
v 173.744858 218.557236 126.140625
v 161.708069 218.694641 126.944641
v 170.388702 218.571014 120.064522
v 173.669022 208.561508 121.800606
v 170.723572 202.130142 129.401901
v 160.120178 240.899658 131.491562
v 166.774536 208.618851 133.569412
v 171.149490 224.758652 120.474243
v 164.959091 242.059631 129.822968
v 164.267883 202.467712 124.270401
v 166.169144 203.449142 121.853355
v 173.457809 214.474182 127.159561
v 171.894867 230.879639 127.959343
v 173.158401 222.760010 124.593956
v 173.230453 218.661652 122.615700
v 162.902191 243.804337 133.561417
v 174.034470 216.316635 124.700348
v 170.563217 201.199463 120.440193
v 168.633209 208.681534 132.815475
v 167.021561 210.669998 121.041809
v 161.088760 214.457870 131.346191
v 167.201309 216.516159 133.765579
v 163.734695 226.901993 123.464088
v 161.442886 232.638489 126.621796
v 161.792435 206.822586 127.208794
v 171.512680 234.647308 121.705231
v 168.212784 222.511246 120.271179
v 161.621506 240.848434 134.215103
v 173.503525 220.900742 124.372688
v 172.901794 222.604950 126.594604
v 160.459656 243.331650 133.285538
v 166.923370 226.782486 120.857674
v 166.233292 202.167084 122.103661
v 173.206970 220.755539 126.840919
v 160.822418 224.733383 128.925705
v 172.764633 204.564407 120.640335
v 166.897446 206.673553 133.414520
v 173.963135 201.282410 126.060997
v 174.142487 214.463608 124.719681
v 161.606949 239.726334 127.762398
v 166.623322 230.994186 134.482010
v 161.493439 222.697327 126.636826
v 169.232101 212.717896 120.033905
v 169.040543 233.901535 120.149986
v 165.186707 204.576462 122.763680
v 166.054916 244.047546 135.022034
v 173.417923 216.524277 127.135689
v 161.166275 210.671600 129.062973
v 161.478455 234.692810 126.634743
v 168.789993 200.048874 122.613319
v 170.817963 199.836411 123.941795
v 167.098648 212.653824 121.052841
v 161.582947 214.475250 132.588272
v 174.207840 212.703125 124.720779
v 163.143723 204.515793 125.274200
v 170.480011 228.818222 131.352356
v 169.998291 228.719086 120.072258
v 168.054077 232.596115 120.259521
v 168.839874 226.787048 133.098984
v 162.012375 236.756409 134.167343
v 164.683029 206.698975 133.987411
v 173.489700 208.614136 127.539429
v 163.153915 216.613266 125.071960
v 172.481903 201.604691 127.735825
v 162.146332 226.756302 133.860870
v 165.961761 232.639542 121.652992
v 162.172592 218.586838 126.098442
v 166.498962 228.969055 134.403168
v 163.163437 218.546204 124.854980
v 161.851913 228.759872 125.670097
v 167.034958 243.495102 132.621384
v 170.823303 200.002502 122.572342
v 168.861191 230.889343 119.967171
v 161.269272 206.580185 129.093079
v 173.401428 200.928177 121.987137
v 169.864182 212.720551 132.100220
v 162.993820 239.228210 126.500740
v 173.985535 208.639954 126.505264
v 169.543686 201.172226 120.451744
v 161.759689 238.989655 134.196487
v 166.071762 204.562378 121.748352
v 162.991592 204.611343 133.034744
v 162.742371 212.687408 133.637527
v 169.755020 204.397537 131.985306
v 168.752197 216.529495 132.956848
v 166.943985 224.731949 120.885063
v 162.964050 201.162643 126.776321
v 171.425873 218.565445 120.452850
v 171.111160 234.732025 129.146210
v 171.763672 208.541519 129.925110
v 172.612778 210.666687 128.656555
v 161.154160 216.447403 128.998810
v 172.673492 224.889175 122.757164
v 164.962936 201.808685 129.707031
v 168.745041 235.685501 121.513138
v 161.419571 226.859070 132.988434
v 164.965576 237.471313 124.177811
v 163.002960 238.084778 125.493736
v 162.846954 208.625549 133.570251
v 172.027405 226.782410 128.021133
v 171.713181 234.662918 127.521263
v 163.693954 210.675003 133.954224
v 168.309250 210.669510 120.277534
v 161.971527 222.690857 125.663521
v 167.009842 201.775864 129.724319
v 162.468689 201.250046 127.235390
v 172.157440 232.570236 126.644180
v 168.792984 222.681549 133.064194
v 166.097595 210.660645 121.768707
v 174.428268 208.432571 124.555229
v 168.016479 230.882553 120.217262
v 169.880264 220.629456 132.131668
v 168.765137 236.811920 122.808388
v 171.739685 210.667999 129.890152
v 161.595764 212.724442 132.544739
v 174.406815 200.498413 123.149895
v 162.984787 234.693619 134.697601
v 161.065475 216.606155 131.158035
v 168.767822 200.461304 126.758598
v 175.594101 200.886673 124.661263
v 173.606415 210.626816 121.802788
v 172.447098 200.936798 121.409645
v 172.644196 228.850159 124.467026
v 160.790024 234.692688 129.146744
v 168.864166 228.834518 119.992691
v 162.197647 224.737747 133.796860
v 168.834457 238.794662 133.676407
v 161.838425 216.609436 126.962334
v 168.718933 241.833984 129.950989
v 163.242401 222.690475 134.297104
v 168.866638 226.782318 119.991447
v 163.712372 206.573639 133.899109
v 161.990494 203.880096 131.832733
v 168.767181 199.846832 123.944260
v 167.059113 220.638306 121.117569
v 166.802139 214.535233 133.757919
v 161.844620 210.599213 126.985794
v 162.083923 202.309814 127.307976
v 164.955872 243.970367 133.616745
v 161.593460 216.540268 132.599106
# 657 vertices, 0 vertices normals

f 22 486 621
f 656 269 514
f 267 508 208
f 621 387 119
f 94 580 233
f 522 444 34
f 311 646 82
f 33 250 379
f 143 558 585
f 319 117 70
f 413 56 533
f 234 285 337
f 307 147 315
f 310 347 388
f 362 124 151
f 189 73 536
f 433 218 137
f 547 472 531
f 543 429 117
f 97 497 543
f 175 220 404
f 498 46 250
f 60 564 529
f 438 157 78
f 120 224 451
f 97 184 497
f 324 308 637
f 101 385 264
f 642 590 628
f 382 346 240
f 79 371 410
f 520 605 5
f 610 105 472
f 196 98 148
f 2 34 444
f 591 542 418
f 214 157 519
f 172 483 208
f 101 520 364
f 335 432 97
f 157 559 78
f 309 382 428
f 109 110 508
f 553 354 344
f 436 405 308
f 432 59 184
f 64 268 167
f 503 10 408
f 495 441 147
f 160 368 317
f 25 326 66
f 128 95 463
f 511 210 431
f 603 501 549
f 508 110 275
f 456 360 526
f 9 63 288
f 147 652 62
f 546 16 137
f 261 629 100
f 596 284 300
f 615 209 594
f 610 472 122
f 443 492 332
f 249 490 161
f 144 295 640
f 225 190 353
f 425 447 63
f 133 281 593
f 66 626 263
f 166 365 342
f 243 15 553
f 458 449 206
f 306 173 83
f 601 189 375
f 349 2 622
f 430 304 199
f 299 491 648
f 426 325 587
f 432 184 97
f 110 345 275
f 629 178 33
f 203 556 534
f 608 437 579
f 339 477 217
f 349 374 2
f 156 612 494
f 120 91 224
f 608 76 437
f 185 404 461
f 53 328 96
f 20 135 29
f 304 594 199
f 294 275 644
f 220 448 334
f 485 329 499
f 412 216 347
f 456 526 45
f 305 127 47
f 590 490 249
f 486 108 441
f 114 60 398
f 657 570 538
f 166 577 634
f 163 485 87
f 420 212 219
f 584 214 519
f 244 281 21
f 471 458 206
f 560 1 85
f 51 474 444
f 156 561 191
f 223 544 99
f 622 2 444
f 419 479 271
f 577 450 597
f 134 456 488
f 576 126 498
f 370 277 583
f 148 98 452
f 191 543 319
f 76 398 102
f 645 233 584
f 55 381 647
f 487 241 571
f 168 139 283
f 235 174 377
f 120 412 112
f 638 475 125
f 47 523 7
f 259 553 344
f 163 329 485
f 492 532 312
f 249 161 561
f 395 225 176
f 434 66 81
f 453 476 39
f 23 293 215
f 514 457 170
f 559 552 78
f 351 657 635
f 31 54 355
f 56 470 298
f 187 6 380
f 133 111 162
f 357 415 4
f 185 390 274
f 168 55 647
f 589 211 639
f 68 87 210
f 326 431 626
f 320 255 108
f 38 123 43
f 613 417 372
f 207 278 538
f 643 330 381
f 131 29 455
f 614 615 423
f 310 388 27
f 210 499 182
f 161 335 186
f 511 598 68
f 287 185 573
f 185 461 390
f 350 391 327
f 454 217 254
f 52 639 535
f 205 405 627
f 495 307 387
f 489 200 566
f 588 435 231
f 438 362 410
f 10 261 469
f 96 296 1
f 504 145 220
f 212 223 603
f 158 138 278
f 451 562 511
f 223 385 544
f 416 273 341
f 276 388 94
f 599 64 649
f 1 296 104
f 554 524 73
f 226 62 212
f 595 356 627
f 282 656 514
f 392 631 607
f 301 435 19
f 101 482 520
f 192 131 527
f 493 563 462
f 187 181 201
f 537 499 620
f 261 100 469
f 466 651 567
f 100 384 36
f 373 21 133
f 305 198 238
f 279 11 563
f 598 446 68
f 126 287 573
f 340 439 654
f 507 633 230
f 319 543 117
f 131 455 229
f 272 252 303
f 22 559 157
f 630 389 465
f 393 341 244
f 193 194 115
f 618 343 253
f 92 206 532
f 259 96 328
f 480 393 180
f 193 381 330
f 28 40 222
f 369 243 407
f 535 639 369
f 400 551 258
f 416 75 273
f 301 345 435
f 282 514 177
f 241 399 556
f 250 46 379
f 42 89 144
f 31 127 54
f 59 411 640
f 431 182 626
f 61 165 336
f 134 360 456
f 601 375 316
f 515 587 202
f 142 134 557
f 311 82 588
f 389 70 121
f 305 47 545
f 592 136 67
f 491 443 525
f 188 517 401
f 419 656 533
f 517 427 152
f 572 91 120
f 110 462 345
f 188 421 517
f 487 571 513
f 629 33 100
f 136 637 242
f 167 516 106
f 370 17 277
f 202 153 63
f 232 619 247
f 143 221 272
f 312 546 531
f 158 276 129
f 602 10 503
f 394 396 196
f 51 522 581
f 256 268 26
f 239 372 357
f 235 86 316
f 255 41 169
f 193 150 194
f 59 333 184
f 189 392 375
f 409 322 60
f 113 5 386
f 642 648 8
f 219 549 302
f 240 248 464
f 364 544 385
f 586 486 214
f 248 179 464
f 244 653 281
f 449 203 206
f 355 54 488
f 102 529 487
f 568 245 363
f 131 234 527
f 646 291 502
f 193 115 381
f 491 525 8
f 296 354 521
f 158 129 138
f 645 371 609
f 420 425 153
f 465 121 213
f 482 240 471
f 177 493 462
f 412 451 14
f 421 195 494
f 41 44 264
f 14 326 347
f 445 489 566
f 522 377 581
f 635 609 371
f 183 141 336
f 192 527 572
f 304 615 594
f 390 461 74
f 552 417 124
f 35 657 146
f 263 368 160
f 194 28 496
f 413 533 470
f 638 125 248
f 80 616 167
f 3 192 512
f 338 554 12
f 213 121 323
f 364 113 544
f 455 636 245
f 426 201 181
f 355 488 422
f 589 378 211
f 4 252 221
f 35 75 416
f 580 586 584
f 429 70 117
f 361 190 225
f 606 484 414
f 383 64 616
f 611 349 622
f 332 105 477
f 510 629 261
f 645 519 371
f 414 473 343
f 628 575 277
f 387 307 315
f 279 269 231
f 143 71 221
f 190 149 343
f 259 328 329
f 163 424 329
f 346 248 240
f 183 198 450
f 424 259 329
f 303 204 558
f 588 82 435
f 551 218 518
f 316 350 174
f 482 90 520
f 366 181 380
f 489 430 200
f 585 173 358
f 67 136 15
f 391 608 579
f 127 238 500
f 93 545 298
f 156 191 319
f 45 56 292
f 489 65 423
f 53 1 560
f 135 622 474
f 632 247 80
f 426 587 201
f 111 114 265
f 180 21 536
f 604 20 3
f 68 284 87
f 445 9 489
f 469 36 72
f 527 246 91
f 462 11 345
f 451 511 14
f 263 569 368
f 36 384 286
f 649 578 397
f 453 361 476
f 377 174 13
f 398 60 529
f 469 100 36
f 202 63 9
f 128 483 204
f 32 30 484
f 362 151 283
f 580 505 320
f 397 578 338
f 37 500 238
f 130 415 6
f 289 642 628
f 145 314 448
f 375 392 607
f 155 254 432
f 146 351 468
f 273 266 653
f 591 106 516
f 125 513 571
f 274 530 89
f 267 93 109
f 521 205 475
f 186 335 191
f 222 576 498
f 305 450 198
f 49 649 397
f 53 620 328
f 331 470 282
f 305 7 227
f 40 358 576
f 517 39 614
f 215 293 58
f 593 503 478
f 41 264 652
f 207 632 442
f 413 548 56
f 596 236 284
f 61 130 187
f 79 351 635
f 467 370 583
f 107 397 338
f 435 84 19
f 242 308 205
f 590 249 575
f 363 164 154
f 577 342 450
f 480 180 524
f 437 356 595
f 120 451 412
f 142 459 360
f 108 169 441
f 219 603 549
f 212 603 219
f 575 156 195
f 600 232 247
f 54 557 134
f 619 616 247
f 331 298 470
f 205 627 475
f 569 348 368
f 205 308 405
f 4 365 166
f 406 237 633
f 5 251 386
f 175 404 185
f 435 440 84
f 374 257 2
f 130 6 187
f 256 26 228
f 58 646 311
f 412 14 216
f 239 613 372
f 54 199 557
f 5 605 251
f 363 245 313
f 246 550 446
f 190 343 473
f 108 255 169
f 257 132 159
f 589 568 378
f 506 262 611
f 412 310 439
f 507 136 633
f 61 336 141
f 542 112 340
f 270 285 234
f 628 590 575
f 232 416 341
f 648 491 8
f 6 417 380
f 336 165 541
f 644 275 301
f 179 571 556
f 42 411 472
f 510 625 629
f 314 32 484
f 438 410 371
f 185 274 573
f 515 445 541
f 163 236 369
f 419 271 656
f 373 162 392
f 210 485 499
f 546 137 218
f 623 604 512
f 649 64 383
f 302 549 17
f 583 195 421
f 272 303 558
f 476 225 395
f 653 539 140
f 128 463 483
f 227 7 47
f 515 202 9
f 527 234 246
f 223 99 603
f 28 222 625
f 354 242 205
f 189 536 373
f 523 548 7
f 163 369 424
f 515 9 445
f 621 366 559
f 428 101 264
f 191 335 97
f 409 72 322
f 265 114 76
f 40 576 222
f 562 598 511
f 433 137 16
f 24 57 150
f 398 529 102
f 77 41 255
f 489 9 65
f 429 103 121
f 313 581 164
f 479 311 271
f 24 71 143
f 521 475 638
f 232 393 619
f 167 268 516
f 414 484 30
f 62 652 223
f 604 197 20
f 374 12 257
f 471 206 92
f 607 631 391
f 11 231 435
f 297 194 496
f 127 500 54
f 654 158 278
f 52 300 567
f 55 283 151
f 113 386 299
f 500 200 199
f 468 168 260
f 303 128 204
f 55 151 643
f 42 144 411
f 55 643 381
f 322 400 258
f 361 213 190
f 341 653 244
f 430 199 200
f 326 626 66
f 145 204 483
f 503 408 478
f 236 87 284
f 387 315 318
f 18 396 394
f 515 165 587
f 645 584 519
f 559 366 552
f 92 532 492
f 61 201 165
f 305 238 127
f 191 97 543
f 209 23 459
f 286 290 547
f 129 233 645
f 13 324 637
f 618 253 460
f 61 187 201
f 45 526 479
f 265 76 608
f 281 140 593
f 492 312 332
f 403 300 446
f 544 113 99
f 524 536 73
f 466 403 337
f 290 367 547
f 88 321 591
f 526 58 479
f 86 132 601
f 320 317 255
f 239 71 330
f 254 59 432
f 316 375 350
f 193 330 24
f 257 159 34
f 525 332 477
f 373 133 162
f 178 498 250
f 177 170 493
f 163 87 236
f 60 322 564
f 86 159 132
f 150 40 28
f 429 121 70
f 32 19 30
f 228 262 506
f 180 244 21
f 523 127 31
f 641 37 198
f 289 628 17
f 61 141 130
f 100 33 384
f 74 460 624
f 568 363 378
f 222 498 178
f 438 519 157
f 296 521 638
f 85 104 346
f 433 534 518
f 533 282 470
f 392 162 631
f 156 494 195
f 347 326 25
f 188 423 65
f 162 265 631
f 515 541 165
f 507 637 48
f 612 319 389
f 57 358 40
f 507 13 637
f 568 651 245
f 53 560 348
f 24 330 71
f 287 175 185
f 619 393 480
f 654 27 158
f 276 94 233
f 367 472 547
f 119 387 318
f 399 534 556
f 243 553 407
f 290 617 367
f 188 401 423
f 107 338 12
f 62 223 212
f 402 599 107
f 520 90 605
f 178 250 33
f 471 464 458
f 442 80 106
f 505 81 320
f 154 164 555
f 441 169 147
f 133 593 111
f 552 380 417
f 374 107 12
f 459 215 360
f 467 65 9
f 514 563 457
f 455 29 636
f 415 372 6
f 142 360 134
f 369 407 424
f 611 622 135
f 436 595 627
f 424 407 553
f 514 269 563
f 342 365 141
f 334 484 606
f 446 300 284
f 359 597 545
f 507 637 136
f 389 121 465
f 606 618 461
f 396 115 297
f 600 632 570
f 131 229 270
f 295 74 624
f 408 72 409
f 45 479 419
f 461 618 74
f 77 509 44
f 426 318 325
f 262 402 349
f 539 602 140
f 38 43 506
f 367 42 472
f 495 147 307
f 512 192 118
f 31 355 422
f 88 228 43
f 64 167 616
f 96 344 296
f 468 139 168
f 143 585 57
f 525 443 332
f 172 208 294
f 652 385 223
f 249 561 156
f 467 9 288
f 206 203 433
f 447 370 467
f 104 248 346
f 105 531 472
f 364 5 113
f 504 558 204
f 8 525 339
f 45 419 56
f 511 68 210
f 267 359 93
f 618 460 74
f 561 161 186
f 421 494 427
f 430 423 615
f 294 208 508
f 530 74 295
f 94 388 25
f 425 302 447
f 256 228 88
f 454 254 155
f 25 66 434
f 600 416 232
f 125 571 179
f 301 275 345
f 146 657 351
f 14 347 216
f 383 480 578
f 529 564 241
f 522 34 235
f 399 518 534
f 479 58 311
f 309 44 509
f 35 146 75
f 504 204 145
f 400 286 551
f 155 432 335
f 384 290 286
f 51 444 522
f 256 516 268
f 522 235 377
f 625 178 629
f 589 567 568
f 331 282 177
f 224 562 451
f 612 630 116
f 493 170 563
f 477 610 217
f 214 486 157
f 228 650 262
f 174 324 13
f 654 278 565
f 29 135 474
f 434 81 505
f 234 550 246
f 586 320 108
f 101 364 385
f 69 120 112
f 363 313 164
f 156 319 612
f 318 540 325
f 578 554 338
f 170 457 563
f 591 321 542
f 642 8 574
f 551 547 546
f 314 484 334
f 140 503 593
f 35 570 657
f 144 530 295
f 517 614 401
f 12 554 132
f 91 246 562
f 466 567 300
f 260 115 396
f 452 261 10
f 517 152 39
f 368 348 509
f 125 627 513
f 242 637 308
f 464 179 458
f 296 638 104
f 138 609 635
f 646 502 82
f 207 442 565
f 50 46 573
f 621 486 495
f 379 46 50
f 439 310 27
f 211 406 592
f 414 343 618
f 376 394 266
f 58 293 646
f 233 580 584
f 424 553 259
f 81 160 317
f 507 48 230
f 303 634 128
f 542 340 418
f 478 409 114
f 91 562 224
f 574 454 490
f 306 126 576
f 575 249 156
f 280 395 209
f 226 147 62
f 623 123 38
f 600 247 632
f 57 585 358
f 319 70 389
f 637 230 48
f 596 300 535
f 93 298 331
f 447 467 288
f 626 537 263
f 623 512 655
f 438 371 519
f 82 440 435
f 526 215 58
f 78 124 362
f 437 102 356
f 644 301 32
f 121 253 149
f 403 446 550
f 196 297 98
f 131 270 234
f 433 518 218
f 630 465 453
f 291 440 502
f 468 351 139
f 176 353 291
f 72 400 322
f 499 328 620
f 183 450 342
f 291 473 352
f 496 28 625
f 8 339 574
f 266 196 148
f 497 184 481
f 463 208 483
f 23 176 293
f 453 465 361
f 15 242 354
f 86 601 316
f 579 437 595
f 138 635 538
f 190 473 353
f 122 472 411
f 359 545 93
f 273 376 266
f 302 17 370
f 369 639 243
f 431 210 182
f 93 331 109
f 356 487 513
f 174 350 324
f 140 602 503
f 150 57 40
f 54 500 199
f 171 644 314
f 445 566 541
f 279 231 11
f 54 134 488
f 256 88 516
f 203 534 433
f 497 429 543
f 641 566 37
f 95 597 359
f 391 579 327
f 270 229 285
f 79 139 351
f 7 548 56
f 145 172 171
f 578 524 554
f 458 203 449
f 295 333 640
f 271 311 588
f 613 124 417
f 98 510 452
f 239 330 582
f 373 536 21
f 647 381 115
f 612 389 630
f 523 31 422
f 187 380 181
f 50 573 274
f 410 362 283
f 612 116 494
f 592 633 136
f 404 334 606
f 36 286 400
f 251 92 492
f 454 339 217
f 3 20 131
f 604 38 197
f 593 478 111
f 128 634 95
f 94 434 580
f 121 149 323
f 321 69 542
f 94 25 434
f 583 277 195
f 594 142 199
f 614 280 615
f 448 314 334
f 305 545 597
f 154 507 237
f 655 512 118
f 631 265 608
f 89 530 144
f 404 606 461
f 366 380 552
f 413 56 548
f 235 316 174
f 402 26 599
f 478 408 409
f 402 374 349
f 14 431 326
f 599 49 107
f 353 473 291
f 357 4 221
f 489 423 430
f 403 550 337
f 463 359 267
f 276 27 388
f 473 30 352
f 547 531 546
f 604 3 512
f 486 441 495
f 551 518 258
f 47 7 56
f 507 555 13
f 207 538 570
f 574 339 454
f 456 45 292
f 82 502 440
f 228 506 43
f 305 597 450
f 49 397 107
f 6 372 417
f 490 454 155
f 357 372 415
f 299 386 491
f 622 444 474
f 364 520 5
f 329 328 499
f 379 50 617
f 303 252 634
f 59 640 333
f 72 36 400
f 504 220 175
f 79 410 139
f 182 499 537
f 254 122 59
f 621 495 387
f 377 13 555
f 299 648 501
f 146 468 18
f 147 169 652
f 262 349 611
f 542 69 112
f 129 276 233
f 206 433 16
f 414 30 473
f 22 157 486
f 463 267 208
f 294 644 171
f 197 611 135
f 379 290 384
f 475 627 125
f 420 153 540
f 118 572 69
f 143 272 558
f 76 102 437
f 402 650 26
f 217 610 122
f 313 636 51
f 406 633 592
f 654 439 27
f 458 179 556
f 286 547 551
f 295 624 333
f 625 222 178
f 395 176 23
f 47 56 298
f 138 538 278
f 325 153 202
f 344 354 296
f 83 175 287
f 201 587 165
f 66 263 160
f 146 18 75
f 99 299 501
f 263 537 569
f 575 195 277
f 340 112 439
f 360 215 526
f 642 574 590
f 279 563 269
f 599 649 49
f 274 390 530
f 655 118 321
f 207 570 632
f 51 636 474
f 90 471 605
f 408 469 72
f 506 611 197
f 220 334 404
f 624 460 481
f 119 181 366
f 41 652 169
f 560 509 348
f 83 173 558
f 554 73 132
f 177 514 170
f 577 597 95
f 211 378 237
f 630 152 116
f 428 482 101
f 641 183 336
f 37 566 200
f 211 592 639
f 497 103 429
f 422 292 548
f 228 26 650
f 632 80 442
f 350 327 436
f 379 617 290
f 4 166 252
f 390 74 530
f 363 154 378
f 594 459 142
f 126 573 46
f 133 21 281
f 3 131 192
f 313 51 581
f 589 639 52
f 332 312 105
f 115 194 297
f 50 274 89
f 53 96 1
f 428 264 44
f 84 440 352
f 176 291 293
f 590 574 490
f 653 140 281
f 388 347 25
f 18 260 396
f 130 365 415
f 4 415 365
f 378 154 237
f 551 546 218
f 481 460 103
f 2 257 34
f 641 198 183
f 122 411 59
f 237 230 633
f 436 627 405
f 313 245 636
f 232 341 393
f 623 655 43
f 248 125 179
f 293 291 646
f 280 209 615
f 193 24 150
f 427 116 152
f 458 556 203
f 591 418 106
f 166 634 252
f 280 39 476
f 226 315 147
f 584 586 214
f 52 535 300
f 606 414 618
f 305 227 47
f 47 127 523
f 168 283 55
f 533 656 282
f 119 318 426
f 639 592 243
f 430 615 304
f 102 487 356
f 162 111 265
f 297 496 98
f 22 621 559
f 103 253 121
f 343 149 253
f 83 504 175
f 130 141 365
f 476 361 225
f 114 409 60
f 644 32 314
f 614 423 401
f 607 391 350
f 29 474 636
f 15 136 242
f 18 376 75
f 453 39 152
f 104 638 248
f 626 182 537
f 131 20 29
f 630 453 152
f 226 540 315
f 572 120 69
f 158 27 276
f 532 16 546
f 88 43 655
f 643 151 613
f 145 448 220
f 235 159 86
f 37 238 198
f 507 230 637
f 234 337 550
f 467 583 188
f 188 583 421
f 564 399 241
f 88 591 516
f 324 436 308
f 462 563 11
f 20 197 135
f 258 518 399
f 350 436 324
f 189 373 392
f 652 264 385
f 442 106 418
f 306 576 358
f 289 648 642
f 553 15 354
f 183 342 141
f 596 535 236
f 1 104 85
f 568 567 651
f 271 269 656
f 481 184 333
f 581 377 555
f 289 17 549
f 306 287 126
f 383 619 480
f 109 177 110
f 262 650 402
f 368 77 317
f 477 105 610
f 75 376 273
f 325 202 587
f 614 39 280
f 532 206 16
f 77 44 41
f 422 488 292
f 455 245 651
f 142 557 199
f 14 511 431
f 306 83 287
f 420 219 425
f 260 647 115
f 452 510 261
f 589 52 567
f 419 533 56
f 600 35 416
f 292 56 548
f 599 26 268
f 367 617 42
f 578 480 524
f 291 352 440
f 528 446 598
f 586 108 486
f 226 420 540
f 309 428 44
f 537 620 569
f 239 357 71
f 524 180 536
f 394 196 266
f 225 353 176
f 623 38 604
f 459 23 215
f 532 546 312
f 47 298 545
f 164 581 555
f 623 43 123
f 621 119 366
f 80 247 616
f 643 613 582
f 79 635 371
f 340 654 565
f 560 85 309
f 210 87 485
f 289 501 648
f 144 640 411
f 172 294 171
f 603 99 501
f 340 565 418
f 257 12 132
f 341 273 653
f 113 299 99
f 447 288 63
f 85 346 382
f 235 34 159
f 523 422 548
f 241 556 571
f 312 531 105
f 88 655 321
f 497 481 103
f 145 171 314
f 148 452 602
f 356 513 627
f 357 221 71
f 577 95 634
f 624 481 333
f 272 221 252
f 318 315 540
f 66 160 81
f 317 77 255
f 386 251 443
f 560 309 509
f 580 434 505
f 599 268 64
f 236 535 369
f 294 508 275
f 649 383 578
f 572 527 91
f 490 155 161
f 112 412 439
f 617 89 42
f 425 219 302
f 129 609 138
f 37 200 500
f 10 469 408
f 446 284 68
f 246 528 562
f 240 464 471
f 190 149 353
f 438 78 362
f 166 342 577
f 243 67 15
f 641 336 541
f 114 398 76
f 635 657 538
f 285 229 466
f 482 471 90
f 361 465 213
f 19 84 352
f 168 647 260
f 564 258 399
f 83 558 504
f 396 297 196
f 383 616 619
f 539 148 602
f 18 394 376
f 427 494 116
f 410 283 139
f 24 143 57
f 402 107 374
f 301 19 32
f 309 85 382
f 382 240 482
f 631 608 391
f 517 421 427
f 50 89 617
f 226 212 420
f 322 258 564
f 98 496 510
f 207 565 278
f 413 470 56
f 320 81 317
f 53 348 620
f 209 395 23
f 267 109 508
f 217 122 254
f 145 483 172
f 33 379 384
f 19 352 30
f 562 528 598
f 119 426 181
f 425 63 153
f 613 151 124
f 321 118 69
f 266 148 539
f 246 446 528
f 467 188 65
f 80 167 106
f 154 555 507
f 375 607 350
f 305 47 7
f 447 302 370
f 468 260 18
f 641 541 566
f 327 579 436
f 177 462 110
f 325 540 153
f 239 582 613
f 496 625 510
f 628 277 17
f 600 570 35
f 192 572 118
f 498 126 46
f 280 476 395
f 463 95 359
f 601 132 73
f 194 150 28
f 602 452 10
f 579 595 436
f 259 344 96
f 129 645 609
f 237 507 230
f 213 149 190
f 525 477 339
f 271 588 269
f 386 443 491
f 306 358 173
f 78 552 124
f 605 471 92
f 466 300 403
f 529 241 487
f 211 237 406
f 412 347 310
f 442 418 565
f 103 460 253
f 456 292 488
f 393 244 180
f 289 549 501
f 190 353 149
f 605 92 251
f 585 558 173
f 251 492 443
f 38 506 197
f 331 177 109
f 580 320 586
f 643 582 330
f 213 323 149
f 594 209 459
f 229 455 651
f 368 509 77
f 161 155 335
f 653 266 539
f 285 466 337
f 588 231 269
f 428 382 482
f 345 11 435
f 111 478 114
f 569 620 348
f 601 73 189
f 243 592 67
f 466 229 651
f 354 205 521
f 561 186 191
# 1318 faces, 0 coords texture

# End of File