####
#
# OBJ File Generated by Meshlab
#
####
# Object Volume_071.obj
#
# Vertices: 505
# Faces: 1014
#
####
v 118.255287 430.129639 127.937393
v 127.104691 445.071625 141.279160
v 127.906601 444.922394 139.760986
v 127.643318 438.756805 137.998337
v 130.781219 443.031982 126.643356
v 128.156342 433.071228 123.662491
v 123.093025 430.334259 124.660042
v 117.725266 447.728760 143.215500
v 116.351059 447.324921 136.643433
v 131.393356 437.151947 133.073151
v 119.013252 429.672607 128.585098
v 117.978653 433.402679 127.954292
v 126.360527 447.131744 143.162476
v 114.777908 432.854126 135.275681
v 130.516556 447.093933 135.122498
v 125.100784 440.784271 141.194504
v 121.012199 429.437134 128.531448
v 120.272453 437.329315 126.231491
v 115.834602 440.911316 139.014893
v 125.108734 450.603943 133.099472
v 116.182686 443.042358 134.903336
v 123.038956 433.103912 139.312088
v 131.659622 431.001373 131.104355
v 117.093826 429.794525 130.978363
v 125.789261 430.799408 137.671646
v 121.494881 447.039673 129.177399
v 126.318275 445.184052 143.194611
v 116.074829 430.996704 131.414597
v 131.105759 435.105896 128.721161
v 117.730034 440.856842 131.299683
v 129.940155 431.124176 127.128937
v 131.293045 443.013672 132.952560
v 125.110985 429.036469 130.817978
v 123.060020 449.677032 137.485916
v 118.177979 444.729950 131.819946
v 127.093582 430.416840 124.707413
v 127.159348 450.615051 133.104797
v 127.862061 431.284485 123.950935
v 127.168533 428.837036 133.036880
v 119.051971 438.981415 128.780823
v 121.689827 433.087402 123.510696
v 117.580620 434.919739 129.204239
v 123.023254 434.477112 139.791229
v 123.041199 429.342468 137.895157
v 121.008949 428.649963 132.998306
v 115.386566 438.918823 135.460037
v 118.936676 440.519226 141.736908
v 117.772957 447.111023 133.460266
v 127.088539 449.374115 137.411255
v 125.078255 447.120941 143.923126
v 128.051468 428.696533 135.161972
v 118.971779 441.653687 142.323105
v 116.237915 437.414978 132.783997
v 117.730171 441.741455 141.883896
v 117.035439 435.793274 139.822556
v 123.259155 433.051788 122.499619
v 116.126099 432.821136 131.286530
v 118.994438 445.503235 143.986740
v 118.721169 433.089050 126.695473
v 118.978455 437.148102 140.551880
v 121.010719 450.006805 135.789291
v 115.517586 437.158722 138.827591
v 127.022858 438.825531 123.488632
v 124.709106 431.271637 138.341476
v 115.910355 436.777710 133.287659
v 127.302177 450.702728 126.060661
v 130.638763 445.068909 135.193176
v 120.506187 444.302704 143.776840
v 119.617081 442.401093 129.577667
v 117.893066 437.125610 129.588089
v 123.065071 443.106323 143.332443
v 117.357597 432.930298 128.908859
v 129.434250 447.089539 137.169769
v 124.995415 443.956909 144.076263
v 130.347595 449.784027 132.770447
v 116.069984 443.547028 139.876999
v 120.658218 443.096710 128.660660
v 116.297134 429.916687 131.860657
v 129.424362 438.922119 124.929886
v 125.109001 449.224945 139.163528
v 131.763107 445.064209 130.699219
v 123.017487 431.131134 138.703934
v 115.343651 433.053192 138.263718
v 119.140953 430.160706 127.073898
v 120.783447 435.224731 124.699409
v 127.039810 433.182343 137.155472
v 131.269913 440.991791 128.539139
v 117.009827 429.067780 133.112305
v 124.040779 446.336945 125.895874
v 122.325439 447.229156 128.273697
v 121.008812 429.051971 130.820541
v 121.003494 431.128235 138.807953
v 120.587067 447.149292 130.147842
v 128.785339 431.235046 125.093056
v 128.040283 446.598572 140.071472
v 129.685898 449.847595 126.496269
v 114.118103 432.953705 137.168518
v 117.508972 445.057007 142.998413
v 131.371689 435.106079 133.061996
v 130.472321 435.148560 134.576736
v 117.576981 447.917145 141.224670
v 115.556664 431.140533 138.158432
v 116.939156 431.083099 138.590424
v 118.926338 443.067017 130.540787
v 120.091202 445.135254 130.042862
v 124.337456 441.752350 124.278961
v 131.672073 437.155151 131.988647
v 116.437912 445.138824 135.048691
v 124.919426 428.846924 137.075211
v 121.189888 445.037598 128.859497
v 121.009621 447.069153 144.148453
v 118.959900 428.399567 135.513138
v 121.009331 433.066559 139.432144
v 117.136909 439.037689 140.456146
v 118.895279 449.731567 135.588272
v 125.146362 445.077118 124.967178
v 123.369827 442.854126 125.270096
v 127.145119 429.788513 126.848564
v 123.055542 438.858093 141.077179
v 124.869034 433.293640 138.780273
v 116.952309 446.947968 141.402588
v 116.008324 446.845490 137.354385
v 123.887383 432.576324 122.175034
v 120.999054 434.609894 139.902252
v 130.958923 429.667511 132.943878
v 127.162598 429.435211 128.527740
v 115.130745 437.184174 135.502197
v 117.790123 448.606140 135.617065
v 120.254791 441.253693 128.310745
v 120.511276 433.139648 124.402870
v 116.518745 433.152832 130.421906
v 117.153412 437.355072 140.161942
v 115.789520 442.940735 139.042252
v 115.966583 429.654510 133.282944
v 115.318268 428.954376 136.973236
v 127.775597 428.681427 135.235458
v 127.996094 447.722748 140.289963
v 125.110962 450.242462 134.959015
v 118.649055 441.076111 130.178970
v 129.506531 440.959503 124.933266
v 125.739586 448.859161 125.658325
v 131.312973 445.066040 132.919449
v 122.802528 449.144348 128.615677
v 125.191765 447.072021 125.369568
v 122.177490 436.432068 123.884415
v 117.856537 447.117035 143.850403
v 117.366035 448.266602 139.066803
v 131.381866 429.948792 131.335983
v 127.175369 449.948090 135.789459
v 117.894913 442.778015 131.654617
v 118.030556 430.983307 127.635674
v 131.619354 433.006500 131.979553
v 119.006081 448.156891 143.353973
v 118.973297 429.227844 130.852798
v 126.508049 438.969177 139.166489
v 129.087662 444.985260 125.272102
v 129.232010 435.101257 124.821739
v 123.377060 447.089478 126.714394
v 127.163544 445.049866 124.570267
v 130.322815 449.041534 127.106659
v 121.790703 434.923767 123.723251
v 119.621811 449.787018 133.173843
v 124.995934 443.946991 144.071060
v 118.594215 437.174286 128.565933
v 131.281708 440.953125 132.949921
v 125.122437 428.669891 133.010712
v 119.576851 436.995056 126.991859
v 125.135986 428.478180 135.475067
v 122.356987 437.598145 124.115288
v 123.127785 435.575195 140.117828
v 129.417679 435.013733 135.702423
v 119.184242 435.092224 126.732788
v 127.164627 450.193848 134.947800
v 115.492279 431.116089 133.198532
v 130.010574 430.190857 128.013062
v 118.953987 429.338196 137.904297
v 121.008987 428.387451 135.513687
v 120.024605 430.579437 125.511818
v 126.311211 447.897644 144.093216
v 124.388229 447.929749 126.173264
v 126.153252 428.880188 136.554733
v 123.777039 431.741913 122.416946
v 118.984917 444.404144 143.592499
v 127.195915 442.983765 123.910118
v 124.139008 450.258545 127.922882
v 129.119370 433.076569 124.876251
v 127.067444 431.350098 123.180313
v 118.893494 438.832947 141.050064
v 123.059830 429.685791 126.825829
v 126.374924 443.033722 141.357346
v 119.821236 431.037201 125.306366
v 119.363777 440.785339 129.226990
v 115.849716 438.946198 134.434738
v 131.431885 438.978363 132.883499
v 128.339432 440.949585 124.094803
v 121.215988 437.036499 124.880005
v 123.053955 450.380951 130.472900
v 114.292686 437.727844 137.209702
v 122.018867 445.412903 127.902039
v 115.556755 432.926819 132.853928
v 114.286324 437.639404 137.198990
v 127.798904 428.642822 135.229279
v 130.264618 450.351959 128.624100
v 129.200851 449.919952 134.886688
v 117.166458 437.142029 130.761932
v 117.059944 448.437958 137.301437
v 114.433746 431.165405 136.887238
v 125.110229 449.636444 137.477264
v 131.255844 445.050079 128.557693
v 124.653343 437.339539 140.133163
v 127.574387 443.006287 139.413742
v 129.122452 451.117340 128.460800
v 128.516785 447.058105 139.150223
v 123.063019 447.803741 143.853668
v 117.415184 438.928772 131.056595
v 114.964645 435.108398 135.304169
v 118.962143 428.727356 133.014130
v 117.152687 440.921753 141.022705
v 123.079277 431.317505 123.087067
v 127.159531 451.046417 130.471191
v 116.935020 429.368500 137.889252
v 115.303024 428.905090 135.828369
v 121.877579 444.192291 127.490997
v 121.253502 440.865845 126.686783
v 127.208206 437.115173 123.314896
v 121.010620 449.633728 137.476379
v 125.078987 448.651611 141.453171
v 127.296158 435.003174 137.507263
v 114.497925 430.974884 136.180252
v 130.468887 441.002899 135.098724
v 130.747055 440.942902 126.769775
v 125.111244 429.369202 128.519989
v 127.145592 449.124817 125.506264
v 130.417038 433.090332 134.382645
v 123.057648 448.227203 143.347382
v 125.195175 440.886139 123.787216
v 121.798172 442.781982 126.943794
v 131.716324 445.063934 130.660660
v 128.531006 435.279327 136.483185
v 127.705902 428.645172 135.254044
v 130.188446 448.937744 134.892395
v 118.987595 443.020416 142.977554
v 114.785263 431.032013 137.474045
v 130.314819 450.127960 130.323517
v 123.046387 447.064636 144.114777
v 123.059204 428.410767 134.504166
v 118.959938 447.820374 143.857010
v 116.936905 428.643036 134.575104
v 129.084793 449.595795 135.544052
v 121.155319 430.569794 124.879066
v 114.408943 438.153778 137.167847
v 121.013817 435.782562 140.246429
v 126.278877 435.742645 138.594330
v 127.193436 435.074005 123.071136
v 115.048447 429.204315 137.330658
v 127.132324 440.932495 123.752312
v 119.863625 438.277496 127.266075
v 122.752243 439.010010 124.244614
v 123.851845 439.940186 123.954155
v 116.999969 434.671783 139.547668
v 121.106415 445.302460 144.061661
v 116.195068 446.370300 136.235123
v 124.995712 443.104553 124.353500
v 131.616364 437.155457 130.824493
v 125.224892 438.797882 123.395203
v 129.127121 450.801575 130.434418
v 128.250763 435.280701 123.737244
v 114.651306 435.104706 136.626450
v 127.059303 448.892944 139.038086
v 131.127426 437.136292 128.492218
v 121.008148 438.814240 141.197540
v 125.109917 429.661041 126.822006
v 125.123085 447.800476 143.802338
v 116.696098 445.068604 141.402496
v 116.414764 438.899963 133.029053
v 123.090286 440.456696 141.771362
v 125.103966 431.718353 122.305412
v 125.990356 451.489868 126.742439
v 125.736237 444.629364 143.585678
v 124.604568 429.362732 137.699753
v 120.013733 439.845062 127.927933
v 126.827911 431.162384 136.953674
v 118.846596 448.913544 133.204498
v 121.077660 443.017639 143.222549
v 130.845612 448.997009 132.885056
v 125.136131 450.898712 130.458008
v 125.553421 429.204071 137.257385
v 118.958969 428.779236 137.208923
v 130.436752 438.922699 134.985977
v 119.966042 443.969696 129.820251
v 128.900681 447.041748 125.554459
v 118.999817 449.335907 137.388306
v 121.009644 428.777588 137.208893
v 131.179764 447.112061 132.948837
v 131.315933 431.070374 133.047821
v 128.349945 443.286011 138.514267
v 124.864578 439.049500 140.535889
v 119.208351 449.890686 134.952255
v 126.305672 432.536804 122.214729
v 131.052856 433.053680 128.842911
v 131.319153 429.761993 132.316299
v 128.576584 450.648804 126.195503
v 122.015663 449.117462 129.617081
v 121.004097 447.804932 143.850616
v 119.774948 448.922943 131.724396
v 119.261421 447.142242 131.366638
v 128.995193 438.957550 136.718689
v 128.193832 432.860474 136.224030
v 115.534111 435.176147 138.619446
v 120.993484 449.151062 130.665405
v 123.148605 440.953796 124.675743
v 127.656166 437.079773 137.643433
v 130.336945 430.043793 128.914261
v 130.426254 447.095978 127.004608
v 125.119080 432.999756 121.992805
v 125.077637 448.129120 143.349014
v 118.271889 435.350494 128.287216
v 116.758705 435.142670 130.791611
v 125.113892 430.225555 124.593353
v 131.334793 433.054962 133.030518
v 122.834984 445.088623 126.710358
v 130.380417 429.724945 133.735657
v 123.671410 450.338623 129.059235
v 126.986649 440.936493 139.358749
v 128.704834 445.230164 138.649216
v 127.991043 440.817200 138.151871
v 121.616661 431.306244 123.888802
v 121.010155 448.229797 143.348129
v 127.123260 443.831909 124.182831
v 119.938789 434.427612 125.381676
v 121.025497 429.831268 126.867966
v 114.738396 429.247437 136.227402
v 130.863937 431.044891 128.929291
v 129.270782 443.189056 124.827232
v 121.503174 449.966156 131.267090
v 124.680267 449.208099 126.403198
v 130.331940 442.924072 125.786201
v 123.782486 449.017792 127.245346
v 128.814499 448.971771 125.811646
v 131.736801 444.992889 130.674332
v 129.038742 437.283173 136.454376
v 129.148788 443.038391 137.519806
v 129.677536 451.508667 126.865028
v 119.008125 449.017029 139.120407
v 123.060104 428.652557 132.998779
v 128.308884 442.660522 124.209251
v 121.011070 429.330933 137.907257
v 116.765877 447.081207 135.350540
v 131.213715 438.932281 128.576813
v 121.683060 438.774780 125.185326
v 126.638206 451.669952 126.694550
v 123.059982 429.023834 130.815979
v 129.396637 437.168365 124.931099
v 131.633057 438.439758 131.990555
v 118.982430 445.086517 131.044922
v 130.577164 445.004059 126.866173
v 131.120316 447.104553 128.602676
v 117.132858 443.066772 132.955673
v 129.963577 444.161316 136.732590
v 131.003754 429.840668 130.882095
v 131.593002 432.989868 130.834641
v 129.686676 451.505920 126.871780
v 131.595795 435.097931 130.831116
v 118.174004 439.131256 130.019867
v 131.604553 438.878662 130.787018
v 126.493958 437.158691 138.807571
v 130.267441 433.070740 126.928780
v 122.998062 435.035583 123.130257
v 115.576614 429.466797 137.724380
v 123.048210 428.789520 137.206497
v 130.966263 449.024292 130.498215
v 120.869247 440.313751 141.834900
v 121.012238 448.804413 141.483170
v 126.558685 451.634399 126.696320
v 114.723152 429.272827 136.773270
v 121.009483 450.139374 134.938293
v 131.631348 430.828217 132.155930
v 123.268105 436.979187 123.457008
v 129.880585 443.117218 136.612305
v 118.959541 428.431305 134.507401
v 118.986732 447.085815 144.107986
v 129.146942 440.991699 136.936005
v 125.094521 430.945526 123.180016
v 116.560669 431.080536 130.458221
v 126.071831 443.813019 142.474396
v 129.053802 430.230865 127.015572
v 122.442993 443.233246 126.278709
v 129.167175 433.156647 135.477234
v 123.059998 450.051147 135.798996
v 117.366409 431.042542 128.923309
v 116.083511 445.213684 139.550720
v 130.615540 443.027435 135.170364
v 115.785057 435.073151 133.001480
v 131.627441 435.105957 131.989044
v 130.040161 449.581360 134.437561
v 129.685135 451.503174 126.867027
v 128.315170 437.175690 123.865250
v 118.724602 431.135620 126.735603
v 114.687103 435.058960 137.364166
v 129.759705 436.588928 135.661774
v 131.332916 443.035858 128.549728
v 116.939201 428.506622 135.521439
v 130.849564 449.043488 128.642654
v 124.987007 443.934875 144.094452
v 121.010208 449.287842 139.172501
v 123.800369 444.689941 125.536751
v 116.771614 442.907318 141.127167
v 114.128944 432.947174 137.144043
v 126.523483 451.645416 126.705261
v 127.161194 447.033661 125.095795
v 115.857162 444.903961 138.600403
v 125.100708 428.483276 134.516235
v 125.136871 433.842865 122.234215
v 123.140022 445.162018 144.072632
v 127.165909 451.336365 128.477783
v 116.983902 433.140167 139.118256
v 116.606972 448.013947 137.382294
v 120.431717 431.824219 124.480606
v 115.623230 438.907837 139.024765
v 128.098541 448.348969 138.996231
v 130.288391 441.906738 125.744942
v 130.623672 438.925598 126.842216
v 127.049171 433.109619 122.675087
v 129.161026 429.683746 128.585892
v 118.959152 433.077515 139.396271
v 118.956978 435.801453 140.192505
v 122.973480 441.528412 142.332336
v 119.659180 432.921234 125.343140
v 125.042259 437.181580 123.133118
v 123.046181 437.159241 140.537704
v 126.445168 429.116669 136.614487
v 115.771721 442.891083 136.018951
v 118.033653 432.426849 127.630852
v 124.777496 441.934265 142.061203
v 128.807373 448.658905 136.961502
v 125.899063 442.715240 124.022636
v 123.058693 428.401520 135.513184
v 124.377190 435.451630 139.728058
v 118.220528 445.903870 132.104889
v 116.770813 440.958038 133.026733
v 129.183258 429.091949 133.010483
v 119.017700 448.568420 141.444275
v 123.058174 448.817352 141.485992
v 127.160156 429.096832 130.827255
v 129.245712 431.048340 135.060715
v 116.537987 447.061920 139.199387
v 115.789055 444.983337 137.198029
v 115.429314 440.968903 137.265015
v 127.875259 430.861176 136.034012
v 128.280685 442.301239 138.271530
v 118.922470 431.153870 138.807114
v 125.122139 435.060791 122.589630
v 129.676743 444.985046 137.208649
v 121.009010 428.409973 134.503677
v 130.477829 437.236053 134.874634
v 125.607498 437.313141 139.532471
v 130.467224 437.232422 126.705513
v 115.945122 441.174255 134.905472
v 125.376274 435.101349 139.152435
v 115.244713 429.254395 135.256332
v 127.414001 447.122070 141.155350
v 131.441025 431.040741 130.349106
v 129.183929 429.309509 130.851028
v 126.191566 447.781342 143.147308
v 130.364090 435.126129 126.797844
v 129.137360 450.336945 133.049896
v 117.667656 443.258087 142.406982
v 121.063713 450.207581 133.112976
v 126.079819 441.834625 140.926056
v 117.884117 429.990906 128.979065
v 131.736786 445.135620 130.673813
v 117.416718 447.049744 143.168625
v 117.413742 444.982971 133.071701
v 122.109810 440.520905 125.475861
v 118.962677 434.627197 139.855087
v 123.060234 449.323578 139.179749
v 117.924347 447.647339 143.723541
v 126.336830 450.301697 126.005470
v 131.469330 440.967010 130.502533
v 115.614639 443.031677 137.197937
v 126.409195 431.771667 122.445320
v 115.691933 437.864197 134.378296
v 123.536949 438.745148 123.774567
v 123.066162 450.450958 133.086365
v 116.945282 428.832062 137.188324
v 120.540405 438.938721 126.638680
v 121.081100 441.395386 142.377914
v 120.249481 449.734283 132.086716
v 123.059532 450.217072 134.953247
v 126.322365 447.894623 144.102570
v 126.885994 448.122009 141.125259
v 118.408775 447.292999 132.414810
v 125.207161 451.065308 128.459534
v 125.111702 450.043335 135.797714
v 115.634079 440.815613 135.844116
v 128.317551 430.626953 125.170403
v 123.060028 429.374573 128.520889
v 127.864243 448.135956 140.178711
v 128.326721 438.901215 123.981529
v 130.552307 431.046936 134.024307
v 117.944038 445.690033 143.681320
v 114.751160 431.100281 135.186615
v 121.009438 437.130981 140.643539
v 114.308350 437.704926 137.188141
v 115.982895 445.030792 136.117065
# 505 vertices, 0 vertices normals

f 110 77 237
f 36 496 38
f 53 205 275
f 166 412 202
f 15 73 241
f 244 203 403
f 257 167 18
f 336 144 141
f 189 7 250
f 429 254 225
f 97 216 268
f 85 130 41
f 56 123 315
f 420 491 269
f 248 380 88
f 454 246 45
f 449 308 445
f 132 55 309
f 360 313 424
f 446 122 147
f 68 58 261
f 175 313 31
f 196 169 258
f 493 409 415
f 403 357 371
f 86 120 228
f 2 13 461
f 246 345 45
f 93 110 26
f 377 295 152
f 210 119 297
f 74 163 279
f 231 422 349
f 122 348 9
f 155 297 324
f 140 79 422
f 426 55 132
f 323 338 185
f 186 94 31
f 341 307 289
f 80 34 208
f 170 43 252
f 374 478 409
f 501 146 58
f 324 16 469
f 7 219 250
f 255 375 243
f 346 195 140
f 198 251 201
f 473 48 108
f 19 419 504
f 13 179 464
f 402 380 248
f 10 194 354
f 183 58 68
f 439 355 492
f 456 297 155
f 378 452 429
f 296 342 211
f 476 226 34
f 435 249 241
f 150 30 104
f 47 188 218
f 124 426 252
f 468 484 489
f 358 30 150
f 483 378 429
f 321 117 406
f 104 77 290
f 443 405 476
f 407 133 76
f 168 437 109
f 102 255 243
f 460 248 134
f 371 471 285
f 442 344 373
f 382 342 379
f 197 323 286
f 92 347 451
f 246 437 412
f 110 199 90
f 107 10 354
f 7 189 272
f 19 448 133
f 35 355 439
f 440 358 458
f 75 241 395
f 443 476 227
f 339 291 314
f 271 47 372
f 16 427 434
f 329 334 159
f 381 477 247
f 188 132 114
f 146 477 381
f 288 485 221
f 186 267 6
f 180 144 336
f 362 96 160
f 67 15 294
f 43 170 438
f 445 388 234
f 263 436 329
f 502 134 174
f 482 193 46
f 79 353 457
f 495 458 432
f 125 295 377
f 360 301 148
f 418 428 191
f 390 151 72
f 104 139 192
f 79 457 422
f 503 188 271
f 170 430 438
f 148 301 377
f 45 352 91
f 474 311 117
f 171 239 400
f 194 365 354
f 239 388 86
f 232 126 118
f 162 468 376
f 466 204 37
f 138 20 173
f 338 158 336
f 30 215 139
f 405 226 476
f 484 20 138
f 267 397 254
f 448 495 432
f 292 115 226
f 179 490 464
f 10 455 194
f 117 311 106
f 422 270 349
f 489 484 138
f 52 467 242
f 109 44 280
f 373 443 235
f 183 501 58
f 370 293 347
f 291 156 356
f 44 370 347
f 218 19 407
f 80 208 269
f 29 300 361
f 384 131 57
f 195 346 184
f 342 296 325
f 93 105 110
f 266 466 220
f 388 171 234
f 292 344 206
f 141 410 233
f 98 501 183
f 362 302 96
f 109 280 287
f 72 433 12
f 440 193 275
f 175 31 386
f 93 306 105
f 473 35 439
f 12 59 317
f 307 382 230
f 83 97 408
f 484 197 20
f 157 186 367
f 232 33 444
f 137 213 461
f 158 406 89
f 219 7 383
f 284 261 71
f 11 154 91
f 460 222 248
f 340 32 142
f 477 8 247
f 251 504 201
f 474 350 258
f 18 196 486
f 240 181 431
f 478 233 66
f 222 460 332
f 115 162 298
f 84 11 331
f 274 76 391
f 486 350 224
f 31 313 333
f 128 292 206
f 388 308 86
f 315 277 481
f 227 476 80
f 233 339 66
f 188 47 271
f 127 482 46
f 311 259 236
f 494 489 138
f 374 141 478
f 320 99 394
f 215 440 275
f 417 9 206
f 279 163 27
f 485 369 221
f 213 325 3
f 158 89 144
f 34 389 208
f 56 219 182
f 453 325 73
f 221 102 103
f 121 391 446
f 222 135 485
f 119 372 276
f 260 416 309
f 4 155 326
f 426 124 475
f 125 360 441
f 483 429 265
f 238 340 142
f 134 78 174
f 325 296 211
f 427 71 74
f 287 280 25
f 150 104 355
f 104 290 105
f 471 238 81
f 311 483 259
f 249 204 241
f 69 129 77
f 239 86 228
f 327 418 191
f 362 160 396
f 85 167 172
f 202 240 431
f 176 103 451
f 365 194 165
f 224 350 474
f 196 145 169
f 362 212 415
f 453 67 359
f 499 353 79
f 289 307 230
f 401 340 238
f 211 2 3
f 198 62 201
f 273 235 316
f 205 215 275
f 244 212 203
f 192 40 281
f 219 383 277
f 330 130 85
f 162 305 488
f 299 481 423
f 149 138 173
f 416 260 425
f 110 237 223
f 373 344 405
f 166 202 39
f 467 218 407
f 478 141 233
f 465 367 300
f 278 374 351
f 192 281 129
f 20 37 173
f 181 287 431
f 36 386 496
f 300 462 361
f 498 137 461
f 73 435 241
f 196 85 161
f 127 393 65
f 83 102 243
f 177 112 293
f 308 388 445
f 191 428 59
f 350 196 258
f 22 82 113
f 471 142 294
f 247 153 304
f 355 104 105
f 469 434 190
f 323 374 493
f 448 19 504
f 450 382 326
f 202 431 449
f 502 174 200
f 399 268 201
f 417 206 147
f 213 420 73
f 176 221 103
f 353 465 457
f 43 124 252
f 56 413 452
f 253 366 312
f 272 232 118
f 312 366 4
f 460 229 332
f 307 341 312
f 258 378 483
f 119 276 297
f 502 460 134
f 70 42 164
f 115 61 226
f 361 23 152
f 251 504 198
f 22 113 124
f 476 34 80
f 227 80 491
f 152 320 394
f 448 504 495
f 155 324 326
f 165 230 32
f 282 64 86
f 113 425 475
f 259 483 265
f 441 360 463
f 291 339 233
f 479 365 165
f 136 125 441
f 162 283 305
f 448 480 133
f 242 98 183
f 325 213 73
f 55 426 475
f 65 205 53
f 263 236 436
f 400 341 455
f 303 143 323
f 87 349 479
f 67 392 359
f 453 73 15
f 274 407 76
f 301 125 377
f 362 396 203
f 423 187 6
f 367 31 333
f 43 22 124
f 240 168 181
f 110 223 199
f 431 282 449
f 200 28 57
f 26 90 143
f 335 197 484
f 5 87 401
f 115 283 162
f 276 487 427
f 267 423 6
f 375 255 135
f 127 216 393
f 305 306 310
f 505 108 262
f 217 45 91
f 344 292 405
f 422 457 270
f 330 428 130
f 11 17 331
f 497 352 33
f 44 347 92
f 240 202 136
f 137 498 420
f 37 286 220
f 429 452 254
f 163 74 404
f 149 435 49
f 414 111 245
f 397 157 353
f 97 408 207
f 242 183 284
f 100 400 455
f 164 317 172
f 156 337 5
f 401 87 340
f 302 362 343
f 108 48 348
f 11 91 17
f 219 56 41
f 284 183 68
f 328 373 235
f 61 376 389
f 239 228 312
f 90 321 158
f 89 116 144
f 424 175 386
f 423 267 254
f 410 291 233
f 131 390 72
f 99 10 107
f 116 263 329
f 334 421 337
f 472 8 477
f 480 448 432
f 50 273 179
f 288 402 485
f 335 303 197
f 140 231 421
f 249 435 149
f 26 110 90
f 112 380 402
f 472 121 8
f 430 119 210
f 496 94 38
f 311 258 483
f 131 384 390
f 28 384 57
f 451 416 425
f 493 374 409
f 339 302 66
f 14 216 97
f 365 264 107
f 163 50 13
f 58 146 381
f 40 257 486
f 141 144 410
f 313 175 424
f 202 449 136
f 223 237 321
f 433 59 12
f 115 298 61
f 357 471 371
f 265 225 63
f 381 111 261
f 194 289 165
f 133 411 391
f 122 447 262
f 319 272 118
f 99 100 10
f 340 479 32
f 504 419 198
f 463 360 424
f 40 167 257
f 8 101 153
f 469 190 211
f 193 440 458
f 303 26 143
f 87 479 340
f 126 463 424
f 505 480 432
f 317 59 172
f 120 438 459
f 382 450 342
f 122 262 348
f 322 136 445
f 28 24 384
f 468 335 484
f 178 331 250
f 266 220 415
f 179 273 490
f 471 294 285
f 440 30 358
f 135 255 369
f 394 99 107
f 129 486 224
f 48 492 283
f 230 382 379
f 466 37 220
f 66 343 351
f 25 64 282
f 112 288 293
f 122 9 417
f 387 117 321
f 267 186 157
f 20 197 286
f 228 253 312
f 276 427 16
f 120 43 438
f 270 264 365
f 69 192 129
f 447 480 505
f 193 482 275
f 411 122 446
f 384 24 470
f 256 195 184
f 56 368 41
f 85 41 161
f 67 453 15
f 342 325 453
f 199 321 90
f 290 77 105
f 505 21 108
f 494 138 149
f 409 362 415
f 27 13 2
f 488 335 468
f 220 493 415
f 5 401 209
f 342 453 359
f 39 202 136
f 369 102 221
f 387 474 117
f 479 165 32
f 497 232 272
f 259 265 236
f 370 44 109
f 42 70 205
f 315 299 423
f 127 198 268
f 245 304 214
f 282 308 449
f 352 345 33
f 213 3 95
f 295 320 152
f 154 217 91
f 78 134 24
f 222 402 248
f 353 157 465
f 303 310 26
f 382 307 326
f 226 61 34
f 257 18 486
f 397 499 63
f 470 1 390
f 91 352 17
f 365 107 354
f 284 68 261
f 47 52 372
f 62 399 201
f 21 505 432
f 170 503 430
f 33 166 444
f 345 412 166
f 32 392 142
f 212 362 203
f 229 14 408
f 92 451 425
f 306 93 310
f 491 498 461
f 245 214 50
f 286 493 220
f 310 93 26
f 473 439 492
f 98 274 472
f 114 419 218
f 330 85 172
f 452 413 423
f 376 468 489
f 369 255 102
f 452 423 254
f 63 499 256
f 2 461 3
f 503 271 430
f 204 466 395
f 7 272 319
f 29 363 264
f 116 329 159
f 504 127 46
f 232 444 126
f 499 195 256
f 231 349 87
f 54 467 52
f 84 1 470
f 236 63 256
f 83 408 309
f 461 213 95
f 264 363 394
f 467 98 242
f 210 297 456
f 297 276 16
f 322 500 295
f 162 488 468
f 378 368 452
f 254 397 225
f 459 456 366
f 458 21 432
f 347 176 451
f 304 153 328
f 151 1 84
f 9 128 206
f 238 340 81
f 176 288 221
f 195 499 79
f 82 44 92
f 36 118 386
f 362 343 351
f 239 341 400
f 143 158 338
f 23 148 377
f 114 132 62
f 134 248 88
f 230 392 32
f 55 260 309
f 104 69 77
f 22 43 120
f 250 219 327
f 343 362 396
f 56 182 123
f 364 70 40
f 313 360 333
f 421 231 337
f 302 343 66
f 42 72 317
f 288 176 293
f 128 283 115
f 500 445 234
f 480 447 411
f 76 133 391
f 243 375 207
f 156 334 337
f 111 304 245
f 197 303 323
f 393 318 65
f 217 454 45
f 236 265 63
f 384 470 390
f 14 502 200
f 62 132 309
f 462 148 23
f 171 400 100
f 27 163 13
f 289 230 165
f 379 342 359
f 163 245 50
f 154 11 470
f 16 434 469
f 314 209 357
f 273 316 490
f 244 403 371
f 215 364 139
f 128 48 283
f 436 256 184
f 19 133 407
f 500 234 320
f 14 200 393
f 316 227 464
f 225 397 63
f 324 450 326
f 319 118 36
f 368 378 145
f 174 78 28
f 198 419 62
f 125 322 295
f 397 267 157
f 338 336 374
f 46 193 495
f 345 352 45
f 385 27 2
f 17 189 331
f 437 370 109
f 334 140 421
f 127 65 53
f 203 396 403
f 392 67 142
f 5 231 87
f 346 334 184
f 185 338 374
f 497 33 232
f 291 356 314
f 411 447 122
f 50 214 273
f 127 504 198
f 47 54 52
f 71 414 74
f 131 318 393
f 406 263 116
f 206 344 147
f 187 38 6
f 214 235 273
f 177 246 454
f 268 198 201
f 482 53 275
f 361 462 23
f 75 266 244
f 442 373 328
f 145 378 169
f 15 241 285
f 349 365 479
f 293 176 347
f 188 60 132
f 308 282 86
f 159 156 410
f 216 127 268
f 82 22 64
f 320 234 99
f 128 115 292
f 70 364 205
f 130 327 41
f 89 406 116
f 334 156 159
f 121 101 8
f 443 227 316
f 174 28 200
f 77 224 237
f 21 473 108
f 262 108 348
f 323 143 338
f 188 114 218
f 334 346 140
f 348 128 9
f 368 56 452
f 106 236 263
f 488 310 335
f 77 129 224
f 193 458 495
f 178 250 191
f 444 39 463
f 462 360 148
f 217 154 88
f 29 361 363
f 327 219 41
f 419 114 62
f 90 158 143
f 358 473 21
f 266 212 244
f 331 189 250
f 117 106 263
f 64 120 86
f 167 85 196
f 274 121 472
f 283 306 305
f 139 40 192
f 492 306 283
f 466 266 75
f 460 502 229
f 366 155 4
f 64 22 120
f 416 83 309
f 223 321 199
f 109 287 181
f 158 144 180
f 100 455 10
f 457 465 270
f 70 164 40
f 428 418 130
f 264 394 107
f 196 161 145
f 455 289 194
f 307 312 4
f 370 177 293
f 195 79 140
f 311 236 106
f 388 239 171
f 164 42 317
f 42 318 72
f 96 339 160
f 339 314 160
f 142 67 294
f 487 242 284
f 261 111 414
f 277 383 481
f 247 8 153
f 319 36 187
f 75 371 285
f 101 121 446
f 136 449 445
f 105 77 110
f 431 25 282
f 428 330 172
f 51 202 136
f 56 315 413
f 383 187 481
f 146 472 477
f 300 333 462
f 7 319 383
f 413 315 423
f 35 150 355
f 144 159 410
f 140 422 231
f 332 229 207
f 101 442 153
f 237 474 387
f 124 113 475
f 356 5 209
f 169 378 258
f 325 211 3
f 436 236 256
f 374 409 351
f 433 151 59
f 420 435 73
f 37 204 173
f 295 500 320
f 499 397 353
f 237 387 321
f 323 185 374
f 364 215 205
f 227 491 464
f 260 55 475
f 72 12 317
f 40 486 281
f 409 362 351
f 314 356 209
f 187 36 38
f 65 318 205
f 434 427 74
f 238 142 471
f 324 469 211
f 101 446 147
f 408 399 309
f 412 168 202
f 274 98 407
f 211 190 2
f 151 433 72
f 341 239 312
f 434 74 190
f 318 42 205
f 158 321 406
f 97 83 243
f 450 324 211
f 209 401 238
f 420 498 491
f 198 504 201
f 337 231 5
f 464 491 461
f 286 323 493
f 473 150 35
f 44 82 280
f 488 305 310
f 427 487 71
f 389 489 494
f 60 188 503
f 315 481 299
f 318 131 72
f 167 196 18
f 131 393 57
f 363 361 152
f 501 98 146
f 135 369 485
f 265 429 225
f 385 74 27
f 280 64 25
f 224 474 237
f 208 494 49
f 349 270 365
f 487 284 71
f 31 94 386
f 126 424 386
f 396 160 403
f 121 274 391
f 363 152 394
f 447 505 262
f 438 210 456
f 82 92 113
f 51 240 136
f 288 112 402
f 491 80 269
f 420 269 49
f 486 196 350
f 252 60 503
f 398 191 59
f 358 150 473
f 112 177 454
f 467 54 218
f 345 166 33
f 287 25 431
f 458 358 21
f 478 66 409
f 186 31 367
f 229 408 207
f 497 189 17
f 249 149 173
f 167 164 172
f 386 94 496
f 214 328 235
f 213 137 420
f 442 101 147
f 23 377 152
f 41 368 161
f 189 497 272
f 437 246 177
f 302 339 96
f 402 222 485
f 389 376 489
f 344 442 147
f 375 135 332
f 298 162 376
f 494 149 49
f 1 151 390
f 381 247 111
f 103 416 451
f 500 322 445
f 59 428 172
f 38 94 6
f 74 279 27
f 352 497 17
f 373 405 443
f 182 219 277
f 122 417 147
f 370 437 177
f 490 316 464
f 304 328 214
f 437 168 412
f 178 84 331
f 435 420 49
f 380 112 454
f 144 116 159
f 84 178 191
f 357 209 471
f 74 414 163
f 481 187 423
f 307 4 326
f 60 426 132
f 414 245 163
f 133 480 411
f 504 46 495
f 333 360 462
f 209 238 471
f 392 230 379
f 391 411 446
f 229 502 14
f 253 459 366
f 48 473 492
f 11 84 470
f 102 83 103
f 492 355 306
f 389 494 208
f 157 367 465
f 118 126 386
f 83 416 103
f 98 472 146
f 168 240 202
f 436 184 329
f 52 242 487
f 24 154 470
f 28 78 24
f 241 75 285
f 440 215 30
f 40 164 167
f 250 327 191
f 465 300 29
f 217 380 454
f 356 156 5
f 212 266 415
f 367 333 300
f 474 258 311
f 127 53 482
f 30 139 104
f 94 186 6
f 459 438 456
f 310 303 335
f 278 409 351
f 88 154 24
f 161 368 145
f 190 74 385
f 216 14 393
f 97 243 207
f 418 327 130
f 240 202 51
f 97 14 408
f 98 467 407
f 360 125 301
f 135 222 332
f 393 200 57
f 322 125 136
f 375 332 207
f 465 29 270
f 399 97 268
f 113 92 425
f 281 486 129
f 399 62 309
f 13 50 179
f 374 336 141
f 151 84 398
f 438 430 210
f 409 66 351
f 406 117 263
f 3 461 95
f 160 314 357
f 190 385 2
f 123 182 277
f 97 399 408
f 20 286 37
f 235 443 316
f 426 60 252
f 372 487 276
f 392 379 359
f 120 459 228
f 58 381 261
f 380 217 88
f 184 334 329
f 405 292 226
f 153 442 328
f 156 291 410
f 126 444 463
f 342 450 211
f 48 128 348
f 104 192 69
f 306 355 105
f 134 88 24
f 280 82 64
f 270 29 264
f 269 208 49
f 84 191 398
f 13 464 461
f 204 249 173
f 234 100 99
f 466 75 395
f 166 39 444
f 345 246 412
f 151 398 59
f 39 136 441
f 430 271 119
f 61 298 376
f 297 16 324
f 455 341 289
f 372 52 487
f 228 459 253
f 425 260 475
f 160 357 403
f 234 171 100
f 366 456 155
f 111 247 304
f 61 389 34
f 419 19 218
f 39 441 463
f 170 252 503
f 158 180 336
f 54 47 218
f 364 40 139
f 75 244 371
f 294 15 285
f 383 319 187
f 123 277 315
f 278 374 409
f 241 204 395
f 71 261 414
f 271 372 119
f 168 109 181
# 1014 faces, 0 coords texture

# End of File