####
#
# OBJ File Generated by Meshlab
#
####
# Object domain0690.obj
#
# Vertices: 1498
# Faces: 2992
#
####
v 117.204018 63.389412 95.066109
v 117.378387 63.379543 94.724419
v 117.338226 63.098656 95.047897
v 117.277603 63.037769 95.983887
v 117.164955 63.374371 95.953568
v 117.291946 63.322109 96.453125
v 117.120247 63.886688 95.047569
v 117.320923 63.870281 94.548790
v 117.105385 63.885078 95.960381
v 117.256081 63.873432 96.478485
v 117.107956 64.448906 95.041008
v 117.278549 64.458977 94.537079
v 117.120728 64.447227 95.952110
v 117.311981 64.463554 96.458839
v 117.167473 64.959236 95.047531
v 117.310455 65.006348 94.555550
v 117.194412 64.949989 95.936020
v 117.368347 64.961800 96.284195
v 117.256119 65.307053 95.012604
v 117.312881 65.271309 95.965149
v 117.742661 62.265163 96.038612
v 117.880486 62.303665 95.595909
v 117.914116 62.111912 96.056953
v 117.919312 62.060780 96.973427
v 117.746040 62.240021 96.970909
v 117.871506 62.184944 97.476105
v 117.591225 62.794357 95.072975
v 117.869576 62.862465 94.714653
v 117.856216 62.567406 95.101257
v 117.436928 62.696522 96.019363
v 117.561371 62.718304 96.987190
v 117.852501 62.446121 97.973801
v 117.730293 62.772121 97.930672
v 117.902817 62.741528 98.443359
v 117.756531 63.257812 94.380630
v 117.442619 63.269573 97.000191
v 117.677795 63.287594 97.950394
v 117.859833 63.284580 98.470711
v 117.626518 63.925621 94.096603
v 117.969879 63.974976 93.780479
v 117.827400 63.610939 94.047142
v 117.459816 63.871403 97.006096
v 117.739830 63.799294 97.918617
v 117.947525 63.808743 98.412819
v 117.553154 64.465019 94.043968
v 117.878799 64.480278 93.654671
v 117.594589 64.406303 96.966606
v 117.840897 64.418770 97.474144
v 117.869194 64.116058 97.960655
v 117.513412 65.091309 94.007423
v 117.788200 65.005501 93.470222
v 117.795280 64.746613 96.995857
v 117.734032 65.105942 96.644142
v 117.726463 65.700249 93.077721
v 117.927933 65.698105 92.579651
v 117.855820 65.380013 93.039040
v 117.505577 65.634308 94.005981
v 117.371284 65.673538 94.980209
v 117.501991 65.627380 95.968102
v 117.838219 65.593414 96.364098
v 117.642822 66.246559 93.020149
v 117.770645 66.204865 92.477081
v 117.539230 66.216705 94.003120
v 117.536530 66.203102 94.991425
v 117.743271 66.116463 95.904686
v 117.963356 66.044563 96.188698
v 117.767334 66.869347 92.082664
v 117.954781 66.857956 91.588806
v 117.835045 66.530952 92.022446
v 117.626190 66.797531 93.010574
v 117.613029 66.783524 93.989960
v 117.718452 66.712341 94.945053
v 117.898872 66.709602 95.414246
v 117.892838 66.357635 95.888321
v 117.789772 67.303642 92.056488
v 117.959190 67.337570 91.580696
v 117.731934 67.297165 92.998650
v 117.752724 67.268570 93.965294
v 117.880402 67.302719 94.467514
v 117.878792 67.037041 94.959053
v 117.906281 67.601730 92.026543
v 117.888336 67.610504 93.009827
v 117.905380 67.476807 93.969566
v 118.379036 62.177124 95.531563
v 118.390015 61.974998 96.043167
v 118.365517 61.773361 96.981140
v 118.376511 61.840275 97.979401
v 118.078583 62.124359 98.022285
v 118.467415 61.902660 98.975990
v 118.270012 62.202438 98.969681
v 118.425911 62.151455 99.481491
v 118.362946 62.807503 94.549477
v 118.378181 62.464264 95.034660
v 118.080719 62.699375 98.986046
v 118.442986 62.446533 99.971016
v 118.334267 62.767067 99.920708
v 118.516983 62.745808 100.430679
v 118.110458 63.333153 94.051193
v 118.465324 63.494350 93.815323
v 118.420143 63.147125 94.112846
v 118.070023 63.281418 98.999802
v 118.336662 63.219238 99.919594
v 118.509247 63.248394 100.435631
v 118.387535 63.916286 93.627884
v 118.198280 63.812489 98.957420
v 118.419586 63.841213 99.480682
v 118.441353 63.544647 99.973961
v 118.352890 64.432999 93.392601
v 118.118851 64.412338 97.977112
v 118.410934 64.411865 98.476326
v 118.414795 64.131699 98.978386
v 118.110901 65.079811 93.030495
v 118.432083 65.186211 92.585197
v 118.407631 64.830673 93.046082
v 118.091843 65.029617 96.982697
v 118.428558 64.895920 97.412338
v 118.438210 64.625450 97.953224
v 118.221985 65.716110 92.098351
v 118.509010 65.784088 91.738663
v 118.453331 65.503136 92.110390
v 118.410095 65.244339 96.940437
v 118.351463 65.657814 96.599792
v 118.020508 66.191620 91.964317
v 118.360832 66.183731 91.472115
v 118.413521 66.141212 96.317825
v 118.238876 66.865341 91.108192
v 118.561424 66.903618 90.783386
v 118.429329 66.555168 91.055511
v 118.356453 66.554283 96.011429
v 118.333618 66.883011 95.644180
v 118.182365 67.404793 91.095139
v 118.520149 67.390228 90.719711
v 118.135162 67.306007 94.947433
v 118.447365 67.229111 95.289474
v 118.333412 67.875931 91.073418
v 118.568741 67.886276 90.749268
v 118.129005 67.921646 91.984314
v 118.148186 67.890060 92.980965
v 118.389572 67.943016 93.491455
v 118.341362 67.779251 94.017616
v 118.442413 67.463974 94.918434
v 118.497757 68.172661 91.050385
v 118.408936 68.239960 92.016281
v 118.446220 68.110107 92.981567
v 118.709457 61.629333 97.022362
v 118.960754 61.708099 96.588768
v 118.968567 61.565788 97.080368
v 119.042320 61.481487 98.004700
v 118.712982 61.603634 98.000175
v 119.062614 61.496120 98.969955
v 118.752251 61.641525 98.979805
v 118.997063 61.588955 99.481850
v 118.950737 62.171188 95.531944
v 118.945114 61.879944 96.058113
v 118.940659 61.806938 100.004738
v 118.656189 62.116215 100.024033
v 119.068436 61.910965 100.964523
v 118.886963 62.203968 100.946190
v 119.105202 62.177502 101.419739
v 118.963135 62.826199 94.558319
v 118.951714 62.466591 95.035660
v 118.723679 62.692413 100.950630
v 118.985291 62.704674 101.485878
v 118.798767 63.475773 93.845261
v 118.889175 63.162052 94.130363
v 118.728256 63.294331 100.949280
v 118.988930 63.282990 101.484734
v 118.900246 63.924267 93.667404
v 118.660629 63.869465 100.016594
v 118.903610 63.765594 100.940567
v 119.108765 63.789276 101.419724
v 118.955193 64.396881 93.388283
v 118.703590 64.399971 98.976524
v 118.991737 64.405426 99.480568
v 118.956261 64.176849 100.017952
v 119.077263 63.962353 100.962547
v 118.959122 65.095451 92.529083
v 118.959984 64.770645 93.014999
v 118.991722 64.759102 97.986801
v 118.926720 64.946632 97.445793
v 119.038330 64.533592 98.950317
v 118.949684 65.732368 91.543472
v 118.966240 65.399155 92.037766
v 118.924667 65.258316 96.955475
v 118.981644 65.669014 96.626709
v 118.707664 66.272446 91.054321
v 119.057083 66.404755 90.779320
v 119.012451 66.060799 91.099701
v 118.947754 66.161369 96.368248
v 118.981689 66.828148 90.565140
v 118.681122 66.760658 95.955444
v 118.952690 66.543030 96.135727
v 118.944855 67.367218 90.403435
v 118.956139 66.892921 95.854385
v 118.957870 67.220306 95.422684
v 118.920296 67.975700 90.408798
v 118.680534 67.921867 93.984001
v 118.956718 67.803841 94.406120
v 118.958069 67.591919 94.919891
v 118.731590 68.499130 91.020248
v 119.007309 68.502823 90.555222
v 118.708496 68.516945 91.988579
v 118.960350 68.562622 92.500381
v 118.928635 68.370850 93.040550
v 118.951538 67.995468 93.918564
v 118.983711 68.828278 91.013397
v 119.001633 68.812912 91.990211
v 119.240601 61.584145 97.016464
v 119.556679 61.529453 97.478661
v 119.523003 61.435673 98.021584
v 119.551712 61.393013 99.001381
v 119.612198 61.450153 99.978882
v 119.260773 61.559940 99.999352
v 119.645103 61.478539 100.968269
v 119.339485 61.641941 100.976700
v 119.597946 61.608856 101.471535
v 119.470520 62.281834 95.595291
v 119.475166 62.029438 96.072128
v 119.578377 61.707817 96.966354
v 119.591698 61.863914 101.975967
v 119.367638 62.176945 101.958672
v 119.577774 62.139385 102.485947
v 119.391731 62.857986 94.757744
v 119.459450 62.580738 95.115593
v 119.226944 62.707733 102.005325
v 119.612946 62.445385 102.970856
v 119.505013 62.767311 102.920715
v 119.689514 62.746136 103.430580
v 119.124245 63.362099 94.100922
v 119.517883 63.296829 94.518143
v 119.224533 63.283482 102.005379
v 119.510063 63.219051 102.918884
v 119.681274 63.248409 103.435684
v 119.316513 63.849136 93.959930
v 119.660683 63.814232 94.324478
v 119.374962 63.813850 101.953133
v 119.592407 63.837498 102.480278
v 119.614151 63.544247 102.973717
v 119.474144 64.511162 93.560440
v 119.573845 64.145363 93.976234
v 119.277473 64.413750 99.985222
v 119.550140 64.445145 100.496490
v 119.496696 64.288208 101.016617
v 119.601715 64.099693 101.960403
v 119.503777 65.149956 92.556595
v 119.494392 64.873299 93.072029
v 119.254868 65.046494 97.011749
v 119.602600 64.820656 97.075218
v 119.635971 65.140457 96.694382
v 119.531700 64.688675 97.997978
v 119.548973 64.614128 98.990662
v 119.623779 64.524048 99.953468
v 119.541435 65.682358 91.530037
v 119.556854 65.388046 92.047165
v 119.532715 65.616302 96.467880
v 119.552155 66.347687 90.696938
v 119.551010 65.996193 91.056099
v 119.427689 66.097290 96.256783
v 119.517776 66.784065 90.394592
v 119.219231 66.745628 95.935768
v 119.526855 66.490547 95.971313
v 119.575836 66.833992 95.620438
v 119.358215 67.442963 90.089081
v 119.710579 67.558372 89.821701
v 119.597809 67.203873 90.089745
v 119.460426 67.215462 95.275047
v 119.286629 67.977448 90.035545
v 119.659470 67.993355 89.678200
v 119.246704 68.000237 93.944115
v 119.598442 67.837868 94.048683
v 119.648117 68.090675 93.694397
v 119.470078 67.459557 94.915283
v 119.295761 68.568336 90.052872
v 119.656143 68.543678 89.543983
v 119.265701 68.530281 92.980972
v 119.567261 68.366150 93.340843
v 119.435913 69.087303 90.058495
v 119.661629 69.108421 89.560928
v 119.188965 69.155495 90.987549
v 119.302139 69.108513 91.960785
v 119.619507 69.071938 92.425179
v 119.596764 68.723343 92.909317
v 119.574257 69.428574 90.008881
v 119.491173 69.605515 90.996765
v 119.634087 69.722191 90.508659
v 119.621544 69.645973 91.473740
v 119.586739 69.399475 91.973808
v 119.661209 69.798546 91.008980
v 120.051231 61.683254 97.584564
v 120.036736 61.512901 98.054802
v 120.061340 61.454624 99.023354
v 120.123222 61.381111 100.005592
v 120.148140 61.365967 100.993660
v 120.215714 61.473919 101.950188
v 119.880287 61.598080 101.974976
v 120.163483 61.587894 102.480400
v 119.784966 62.194103 96.040176
v 120.072556 62.175926 96.527344
v 120.060822 61.938530 97.043274
v 120.132172 61.818378 103.012642
v 119.833542 62.121334 103.017769
v 120.251747 62.037544 103.956818
v 120.078583 62.227612 103.939804
v 120.305511 62.214573 104.405258
v 119.687286 62.788147 95.101387
v 119.986465 62.770695 95.582108
v 120.054863 62.459530 96.038284
v 119.906044 62.697018 103.947021
v 120.166115 62.707195 104.481438
v 119.889038 63.266930 94.971817
v 120.160408 63.270920 95.476738
v 119.891998 63.297642 103.951561
v 120.160782 63.283463 104.484505
v 119.996368 63.940750 94.686844
v 120.084023 63.600887 95.027405
v 119.825119 63.875576 103.020622
v 120.060547 63.786907 103.941528
v 120.285782 63.806351 104.414726
v 119.831589 64.464638 94.004234
v 120.107895 64.439247 94.485344
v 119.926147 64.553268 97.006447
v 120.215927 64.245209 97.005775
v 120.162628 64.515648 96.542648
v 120.114754 64.438347 97.506851
v 119.829849 64.448746 101.000587
v 119.911995 64.362724 101.975548
v 120.168159 64.403465 102.482292
v 120.108925 64.186447 103.009102
v 120.241615 64.078957 103.967171
v 119.811111 65.085457 93.016991
v 120.080055 65.082542 93.519600
v 120.082176 64.782204 94.019608
v 120.023033 65.033333 96.354561
v 120.028702 64.528755 98.022316
v 120.062988 64.543602 99.019661
v 120.126732 64.582420 99.994339
v 120.190933 64.535866 100.982071
v 120.232620 64.496185 101.970284
v 120.079514 65.757210 91.562355
v 120.049522 65.552483 92.054962
v 120.125824 65.334236 92.983131
v 119.935898 65.532181 96.224518
v 120.120003 66.351471 90.698631
v 120.135933 66.007538 91.080536
v 119.804817 66.189026 95.965729
v 120.049820 65.878647 95.940041
v 120.102226 66.236336 95.510826
v 120.130249 66.733917 90.377663
v 119.977348 66.724945 95.295219
v 120.137817 67.517418 89.692703
v 120.136131 67.125443 90.031479
v 119.778358 67.300285 94.941963
v 120.035225 67.036858 94.942680
v 120.069618 67.329857 94.470917
v 120.112694 67.957458 89.401917
v 120.087097 67.605164 93.977982
v 120.143852 67.997513 93.601616
v 119.978394 68.627701 89.105011
v 120.273842 68.695831 88.733849
v 120.183807 68.363708 89.069084
v 120.128014 68.416527 93.285019
v 119.899750 69.171631 89.061295
v 120.230873 69.144341 88.539986
v 120.132149 68.799164 92.943481
v 120.137283 69.179657 92.580025
v 119.966270 69.724129 89.043427
v 120.177094 69.733727 88.519913
v 119.738113 69.753036 89.959793
v 119.890221 69.650162 91.946495
v 120.215881 69.544945 92.255470
v 120.102837 70.223167 89.049965
v 120.260971 70.270454 88.558853
v 120.019196 70.199272 89.987984
v 120.092308 70.106491 91.002823
v 120.164452 70.271049 90.489151
v 120.203712 69.803024 91.914619
v 120.271133 70.511421 89.037643
v 120.232719 70.421074 89.975876
v 120.324028 61.659245 98.035721
v 120.413559 61.559479 99.000748
v 120.682159 61.584095 99.518051
v 120.629005 61.474178 100.049095
v 120.697792 61.366688 101.006271
v 120.724007 61.383293 101.993416
v 120.797363 61.474144 102.951180
v 120.449402 61.577625 102.986610
v 120.731087 61.561909 103.492249
v 120.306839 62.186981 97.044098
v 120.571907 62.186989 97.580093
v 120.602448 61.914330 98.037491
v 120.735077 61.805420 98.994576
v 120.684509 61.724197 104.018082
v 120.809418 62.032238 104.945702
v 120.580711 62.216011 104.939522
v 120.785515 62.195957 105.469948
v 120.225899 62.768372 96.066467
v 120.540115 62.667831 96.964722
v 120.760262 62.680069 97.470551
v 120.411858 62.711006 105.000641
v 120.808502 62.466469 105.958176
v 120.682213 62.768795 105.918297
v 120.884148 62.759026 106.410408
v 120.380966 63.323605 96.033211
v 120.537193 63.285667 96.588272
v 120.668015 63.005814 97.018105
v 120.399834 63.282509 105.004509
v 120.666504 63.223900 105.924286
v 120.854156 63.251263 106.434349
v 120.179260 63.947205 95.084900
v 120.355560 63.869556 96.007385
v 120.629219 63.547234 97.028488
v 120.438858 63.894577 96.935631
v 120.648735 63.835022 97.521126
v 120.534599 63.816158 104.961174
v 120.727531 63.865974 105.495804
v 120.758224 63.566055 105.985977
v 120.260063 64.494881 95.021858
v 120.283279 64.422203 95.990715
v 120.338516 64.352951 98.021492
v 120.618851 64.088364 98.021622
v 120.414444 64.433876 99.001259
v 120.735870 64.184959 98.992020
v 120.681374 64.408150 99.516159
v 120.431549 64.433655 102.998711
v 120.511223 64.349480 103.976471
v 120.769928 64.388802 104.473671
v 120.752930 64.140358 104.986732
v 120.218872 65.129005 94.044479
v 120.325333 65.052628 95.003853
v 120.225609 65.029022 95.942581
v 120.613716 64.496826 100.029587
v 120.655029 64.535866 101.017937
v 120.719307 64.582413 102.005684
v 120.782394 64.544312 102.979691
v 120.815285 64.517220 103.969711
v 120.359108 65.720467 92.020744
v 120.395645 65.654060 93.039574
v 120.380051 65.643311 94.003548
v 120.338058 65.625725 94.989288
v 120.152786 65.555061 95.904915
v 120.556503 66.404388 90.786743
v 120.589920 66.194489 91.080368
v 120.657593 65.976273 91.992332
v 120.628906 65.985527 92.981277
v 120.627563 66.254387 93.455589
v 120.481094 66.193748 93.997620
v 120.285851 66.185913 94.975075
v 120.696014 66.799820 90.504944
v 120.450310 66.796555 94.004822
v 120.688957 66.808128 93.488609
v 120.185226 66.727798 94.919807
v 120.714554 67.483459 89.638832
v 120.742661 67.132187 90.060333
v 120.307434 67.322975 93.955193
v 120.634972 67.414383 93.474663
v 120.647545 67.828148 89.292686
v 120.600197 67.961372 93.323471
v 120.673920 68.543617 88.468834
v 120.669289 68.165344 88.932861
v 120.549461 68.392326 93.176094
v 120.525169 69.201408 88.034569
v 120.761955 69.182266 87.520973
v 120.739548 68.873695 88.013832
v 120.662514 68.745918 92.908379
v 120.739235 69.161217 92.596252
v 120.668213 69.808327 87.080574
v 120.869453 69.795715 86.582939
v 120.797234 69.491180 87.039108
v 120.398468 69.737106 87.996841
v 120.715446 69.585609 92.280373
v 120.617744 70.320511 87.052841
v 120.789528 70.322906 86.528870
v 120.411247 70.330345 88.007568
v 120.437271 70.287659 90.988770
v 120.759384 70.189278 91.431396
v 120.705536 69.933502 91.912109
v 120.690674 70.814781 87.051804
v 120.838020 70.862579 86.556381
v 120.608437 70.822411 88.002106
v 120.514267 70.786758 88.958908
v 120.737572 70.867859 89.491173
v 120.681137 70.719025 90.019806
v 120.775536 70.426910 90.939186
v 120.826820 71.121284 87.024467
v 120.809608 71.128334 88.019699
v 120.808777 70.998604 88.971634
v 120.965126 61.599171 100.024994
v 121.240685 61.616707 100.532661
v 121.200005 61.480347 101.032288
v 121.233582 61.453308 102.020988
v 121.299278 61.411598 102.991264
v 121.367203 61.507908 103.926559
v 121.024429 61.574074 103.987022
v 121.335030 61.641075 104.448067
v 120.788116 62.202480 98.053719
v 121.018532 62.115730 98.975983
v 121.263435 62.143139 99.516205
v 121.255615 61.862030 100.022476
v 121.303062 61.819839 104.990273
v 121.384460 62.037811 105.950607
v 121.057533 62.188793 105.972145
v 121.347427 62.185673 106.473335
v 120.959839 62.709415 98.019806
v 121.162155 62.746326 98.567924
v 121.231796 62.445961 99.029839
v 121.366371 62.460678 106.962891
v 121.154739 62.761246 106.915359
v 121.432129 62.755695 107.423874
v 120.692085 63.283115 97.104477
v 120.986160 63.292999 98.026466
v 121.169670 63.249065 98.560539
v 121.079674 63.301945 106.946320
v 121.346573 63.288960 107.478439
v 120.810638 63.785908 98.034714
v 121.233253 63.545856 99.023544
v 121.021881 63.876816 98.979790
v 121.258690 63.841846 99.517776
v 120.904427 63.908955 106.019966
v 121.205307 63.809456 106.935165
v 121.400154 63.834286 107.449104
v 120.934799 64.363472 100.024063
v 121.243378 64.099663 100.038681
v 121.016167 64.448814 100.999367
v 121.349426 64.288406 100.983337
v 121.295837 64.445015 101.503563
v 121.031006 64.407837 105.003639
v 121.213997 64.344063 105.965569
v 121.386917 64.376404 106.472000
v 121.370201 64.128044 106.975716
v 121.222107 64.523933 102.046410
v 121.295082 64.608200 103.005981
v 121.319023 64.627243 103.995880
v 121.368347 64.561256 104.980438
v 121.422874 64.499199 105.967949
v 120.764458 66.345825 91.071098
v 120.955353 66.283112 92.002975
v 120.790794 66.302246 92.948708
v 121.071976 66.774139 90.983810
v 121.261147 66.829018 91.509598
v 121.182007 66.600456 91.992744
v 121.180351 66.857330 92.441467
v 120.961929 66.789818 92.954445
v 121.232765 67.567551 89.576332
v 121.219162 67.315773 90.059967
v 121.326385 67.062263 90.967422
v 120.993935 67.387894 92.988235
v 121.329185 67.419952 92.492226
v 121.003700 67.969498 88.995323
v 121.350792 68.115074 88.581955
v 121.367073 67.822105 89.108368
v 120.985512 67.968742 92.976974
v 121.355324 67.978676 92.602440
v 121.041840 68.607399 88.028061
v 121.354057 68.689301 87.574455
v 121.358215 68.408333 88.081764
v 120.901192 68.507164 92.909073
v 121.317902 68.586357 92.598198
v 121.051186 69.196869 87.027161
v 121.338219 69.194420 86.521980
v 121.363098 68.970978 87.041344
v 121.277916 69.123962 92.434532
v 121.127136 69.794411 86.043541
v 121.352547 69.771980 85.523186
v 121.345840 69.477631 86.021584
v 121.204224 69.547440 92.219879
v 121.253395 70.394142 85.080162
v 121.455467 70.381706 84.582932
v 121.383156 70.077110 85.039124
v 120.990761 70.325729 85.996712
v 121.250000 69.886482 91.897926
v 121.308754 70.203049 91.447769
v 121.203850 70.906494 85.052788
v 121.375740 70.908958 84.528900
v 120.995255 70.915123 86.005394
v 121.024773 70.861130 89.985939
v 121.342125 70.758194 90.427017
v 121.289627 70.527405 90.933167
v 121.276031 71.401031 85.051819
v 121.422333 71.449303 84.555618
v 121.178337 71.418312 86.003021
v 121.054726 71.441536 86.982269
v 121.093071 71.382919 87.970276
v 121.348091 71.371994 88.442200
v 121.297226 71.201096 88.985619
v 121.363304 70.957123 89.924675
v 121.410011 71.709343 85.024269
v 121.370438 71.732567 86.004616
v 121.353836 71.737755 87.015648
v 121.388809 71.564804 87.950760
v 121.505165 61.643238 101.024078
v 121.585373 61.559929 102.000610
v 121.845810 61.593422 102.519485
v 121.781258 61.507599 103.029228
v 121.806534 61.514347 103.947533
v 121.853981 61.635777 104.449219
v 121.475952 62.177849 100.042137
v 121.729492 62.183880 100.586044
v 121.776978 61.911625 101.035957
v 121.906441 61.806049 101.994713
v 121.910515 61.767147 105.005859
v 121.899704 61.897179 105.990128
v 121.972572 62.048424 106.950142
v 121.640656 62.186684 106.973236
v 121.931892 62.184807 107.474258
v 121.340164 62.767487 99.079666
v 121.618416 62.707844 99.994881
v 121.858215 62.705486 100.515358
v 121.935539 62.449905 107.973686
v 121.709610 62.762291 107.959015
v 121.928955 62.732628 108.481277
v 121.336929 63.218975 99.080208
v 121.621628 63.283504 99.994560
v 121.856812 63.283005 100.515419
v 121.582901 63.295181 108.000679
v 121.967354 63.042427 108.961960
v 121.854500 63.354637 108.917274
v 122.089020 63.355595 109.389900
v 121.471970 63.814583 100.046417
v 121.737343 63.789345 100.580215
v 121.606781 63.873947 107.981110
v 121.866241 63.803467 108.913094
v 122.101166 63.796963 109.382782
v 121.768616 63.962223 101.037346
v 121.568863 64.414688 102.014664
v 121.888222 64.174911 101.984505
v 121.857613 64.408974 102.517715
v 121.625412 64.397484 107.002670
v 121.821365 64.345146 107.958069
v 121.974197 64.379669 108.471230
v 121.979729 64.113167 108.958183
v 121.806488 64.526688 103.047897
v 121.873802 64.640808 104.008995
v 121.895714 64.657242 104.998276
v 121.906754 64.646393 105.994804
v 121.953011 64.575279 106.987274
v 122.006218 64.535919 107.972313
v 121.349739 66.912231 91.985435
v 121.526749 67.486015 90.025642
v 121.599289 67.374062 91.011009
v 121.587196 67.392349 91.985840
v 121.841049 68.123978 88.571793
v 121.802101 67.924576 89.059212
v 121.844185 67.719963 89.985580
v 121.879211 67.691490 91.003906
v 121.783356 67.748116 91.963570
v 121.700165 68.060028 92.259827
v 121.888870 68.606819 87.521744
v 121.905609 68.342865 88.059311
v 121.741341 68.562035 92.282272
v 121.643188 69.225159 86.035995
v 121.945465 69.295807 85.580292
v 121.959549 69.092468 86.076630
v 121.894821 68.834290 86.996140
v 121.701187 69.050507 92.220238
v 121.636192 69.782021 85.026024
v 121.924210 69.780418 84.521965
v 121.949615 69.558266 85.042046
v 121.565331 69.693207 91.953407
v 121.846466 69.410995 91.952637
v 121.920509 69.766510 91.621956
v 121.714554 70.381271 84.043663
v 121.935570 70.356384 83.521790
v 121.931824 70.063606 84.021561
v 121.807968 70.163551 91.286568
v 121.815216 70.988678 83.055542
v 121.962914 70.952362 82.528091
v 121.953552 70.654610 83.024902
v 121.572197 70.911354 83.994698
v 121.826103 70.456505 90.898804
v 121.829903 70.733521 90.408638
v 121.908752 71.565079 82.103340
v 122.115784 71.590202 81.840446
v 121.994278 71.259766 82.067085
v 121.741119 71.497650 83.020042
v 121.577591 71.500931 84.000389
v 121.888596 71.244850 89.011093
v 121.887589 71.472672 88.490654
v 121.820862 70.940933 89.915283
v 121.932877 71.954330 82.080963
v 122.084717 71.887390 81.872749
v 121.832603 71.987839 83.003746
v 121.758690 72.006783 84.001831
v 121.638687 72.029472 84.983040
v 121.647423 72.009605 85.995346
v 121.671661 71.968315 86.974854
v 121.939728 71.936333 87.432556
v 121.876465 71.733421 87.950867
v 122.029434 72.070633 82.093384
v 121.988075 72.305183 82.987488
v 121.955437 72.319107 84.003616
v 121.936562 72.327332 85.017006
v 121.961670 72.201790 85.996971
v 121.979462 72.102013 86.947182
v 122.100777 61.634174 103.018379
v 122.136398 61.615894 103.981636
v 121.957108 62.204842 101.055244
v 122.190796 62.115223 101.976105
v 122.430115 62.148781 102.517670
v 122.406883 61.899303 103.047302
v 122.482391 61.766186 104.023674
v 122.472275 61.837391 105.001572
v 122.473007 61.879456 105.996178
v 122.489006 61.924244 106.991043
v 122.557266 62.046459 107.950035
v 122.224388 62.184235 107.974586
v 122.517799 62.187431 108.473503
v 122.121712 62.692623 101.049660
v 122.328323 62.746151 101.569450
v 122.403732 62.446136 102.029495
v 122.506371 62.445862 108.973991
v 122.210304 62.729107 108.978210
v 122.582764 62.816441 109.445770
v 122.117722 63.294334 101.050705
v 122.336693 63.248398 101.564323
v 122.492905 63.234917 109.820030
v 122.375664 63.382412 109.862801
v 122.481773 63.510487 110.019287
v 121.942276 63.765537 101.059448
v 122.404930 63.544762 102.026077
v 122.185341 63.869293 101.983521
v 122.431900 63.845631 102.516792
v 122.379379 63.775467 109.862213
v 122.481514 63.649498 110.018707
v 122.141785 64.399948 103.022804
v 122.427811 64.127846 103.025093
v 122.434029 64.399033 103.523415
v 122.220116 64.424271 108.969994
v 122.592278 64.332741 109.439560
v 122.492447 63.916519 109.814186
v 122.393753 64.537819 104.047035
v 122.460068 64.652885 105.008331
v 122.475136 64.699562 106.003548
v 122.475510 64.739754 106.998482
v 122.461067 64.819862 107.979591
v 122.525497 64.682198 108.957512
v 122.114227 68.070427 89.022484
v 122.167557 67.989235 89.997536
v 122.146553 68.017258 91.012749
v 121.936462 68.067665 91.927025
v 122.432968 68.664040 87.550255
v 122.389641 68.489258 88.052261
v 122.433769 68.301987 88.986504
v 122.461533 68.281677 90.002266
v 122.385284 68.332779 90.979004
v 122.332237 68.615280 91.429680
v 122.086975 68.545906 91.909233
v 122.475403 69.215103 85.527039
v 122.474258 69.046776 86.051857
v 122.484596 68.837906 87.006096
v 122.041763 69.093681 91.896408
v 122.360573 69.159477 91.446747
v 122.232414 69.819389 84.039413
v 122.529938 69.896439 83.586746
v 122.541016 69.699013 84.081665
v 122.481377 69.431580 85.000015
v 122.319443 69.656853 91.290001
v 122.218979 70.365196 83.024940
v 122.508057 70.365822 82.521454
v 122.538284 70.149437 83.045403
v 122.130409 70.256371 90.950264
v 122.411118 69.976608 90.950790
v 122.453568 70.299324 90.486351
v 122.229095 70.950363 82.043945
v 122.604958 71.037086 81.788887
v 122.516304 70.658180 82.042969
v 122.141220 70.835838 89.963493
v 122.470474 70.607361 89.996796
v 122.498566 70.893753 89.520859
v 122.487701 71.478767 81.724083
v 122.451347 71.162056 89.008553
v 122.469704 71.460373 88.481987
v 122.381187 71.868301 81.835518
v 122.468796 71.733795 87.971176
v 122.471718 71.990303 87.459297
v 122.410133 72.219696 82.143585
v 122.253746 72.584373 83.024948
v 122.573898 72.537865 82.570190
v 122.233665 72.594711 83.997292
v 122.256676 72.555969 84.975769
v 122.517281 72.542244 85.443710
v 122.464905 72.384293 85.994469
v 122.473419 72.174088 86.945946
v 122.573250 72.855347 83.045364
v 122.551537 72.777115 83.997406
v 122.565048 72.689865 84.948242
v 122.636528 62.185287 103.047165
v 122.887146 62.204025 103.590073
v 122.925163 62.062691 104.040749
v 122.990959 62.006901 105.016647
v 123.040756 61.930401 106.005333
v 123.051994 61.921043 107.001480
v 123.074867 61.944798 107.987877
v 123.140106 62.092743 108.911545
v 122.820976 62.208450 108.945290
v 123.152405 62.292461 109.267906
v 122.513245 62.767307 102.079193
v 122.787788 62.708351 102.995850
v 123.024521 62.706665 103.518074
v 123.037964 62.690742 109.597374
v 122.508461 63.219307 102.080360
v 122.790161 63.282646 102.995590
v 123.039757 63.285450 103.510757
v 122.677406 63.338535 109.919113
v 123.000854 63.232952 109.884377
v 122.650932 63.813866 103.041481
v 122.931870 63.820366 103.574455
v 122.674232 63.816589 109.914062
v 123.000999 63.926762 109.877647
v 122.725822 64.397812 104.024139
v 122.999550 64.119141 104.034851
v 123.017982 64.396957 104.524620
v 123.032257 64.473892 109.606613
v 122.979774 64.538818 105.046593
v 123.047646 64.671051 106.010727
v 123.037712 64.808571 106.994736
v 122.808502 64.965302 108.012749
v 123.090233 64.952568 107.544807
v 122.861122 64.914825 108.952499
v 123.152000 64.878593 109.280830
v 123.140846 65.054779 108.050743
v 123.165001 65.037880 108.937462
v 122.704437 68.650917 88.019730
v 122.738869 68.588120 88.997498
v 122.734047 68.602036 90.014008
v 122.544212 68.646935 90.946129
v 123.016472 69.262985 85.553062
v 122.969604 69.120178 86.050484
v 122.987701 69.024048 87.006340
v 123.015717 68.893166 87.988922
v 123.004784 68.894394 88.999550
v 122.951813 68.927589 89.976738
v 122.903297 69.193932 90.428131
v 122.682213 69.129745 90.931404
v 123.028404 69.848671 83.551353
v 122.996574 69.685852 84.075157
v 123.064766 69.441666 85.016609
v 122.613922 69.671089 90.901527
v 122.886986 69.674576 90.407089
v 122.822510 70.415749 82.062202
v 123.157730 70.547752 81.842651
v 123.128464 70.314941 82.104454
v 123.087051 70.027504 83.015022
v 122.762756 70.317154 89.998169
v 122.993965 69.990440 89.964310
v 123.050735 70.342636 89.516129
v 123.046837 70.919746 81.723907
v 122.911278 70.768356 89.269577
v 122.933952 71.365906 81.781670
v 122.964005 71.039841 88.888901
v 122.981636 71.338539 88.409645
v 123.056877 71.781616 82.005562
v 122.746323 72.045982 82.040520
v 123.147705 72.186600 82.291985
v 122.984390 71.631126 87.910858
v 122.994377 71.914291 87.410202
v 123.056374 72.619064 82.581093
v 123.052544 72.381927 86.000648
v 123.057068 72.590240 85.470963
v 122.985596 72.126602 86.920486
v 122.897713 73.059608 83.033554
v 123.059090 72.976372 82.860497
v 123.066414 73.056671 83.414352
v 123.070564 72.954422 83.981194
v 123.059639 72.759239 84.946724
v 123.064423 73.117371 83.028099
v 123.098373 62.237110 104.062614
v 123.313492 62.190838 104.992149
v 123.558586 62.204247 105.528336
v 123.520744 62.086967 106.035965
v 123.575340 62.023994 107.023575
v 123.630104 61.948051 108.004395
v 123.655899 62.027718 108.947746
v 123.644547 62.241943 109.447304
v 123.293304 62.694500 104.051483
v 123.511269 62.748707 104.566483
v 123.569389 62.454990 105.032097
v 123.716095 62.559639 109.883209
v 123.464264 62.761986 109.904373
v 123.819672 62.877968 110.158508
v 123.309105 63.284267 104.024124
v 123.560471 63.285828 104.539673
v 123.346924 63.286793 110.011665
v 123.783539 63.300198 110.253227
v 123.218010 63.818142 104.078796
v 123.490494 63.813995 104.584030
v 123.343132 63.878780 110.015228
v 123.781372 63.863396 110.261284
v 123.305725 64.390564 105.026581
v 123.559021 64.111717 105.039642
v 123.572777 64.377968 105.531868
v 123.449150 64.422485 109.921448
v 123.838608 64.356606 110.203865
v 123.550369 64.521027 106.056046
v 123.643898 64.750725 107.010963
v 123.611069 64.932526 107.555649
v 123.701447 64.707016 109.945587
v 123.633774 64.998611 109.504227
v 123.584511 65.078423 108.072594
v 123.678871 65.138840 108.981567
v 123.273331 69.261169 86.023346
v 123.301460 69.216827 87.001366
v 123.314384 69.192383 88.012451
v 123.174889 69.223846 88.994125
v 123.064728 69.233017 89.944260
v 123.341431 69.769882 84.009842
v 123.628944 69.767395 84.507324
v 123.558800 69.637344 85.035950
v 123.564407 69.496841 85.989113
v 123.561722 69.501862 86.999565
v 123.538315 69.512321 87.978264
v 123.513893 69.774544 88.441841
v 123.341805 69.722267 88.981804
v 123.086884 69.667519 89.910194
v 123.461189 70.519287 81.877533
v 123.551270 70.341858 82.110237
v 123.627502 70.109932 83.018631
v 123.688042 69.908951 83.970505
v 123.289795 70.303062 88.977325
v 123.519165 70.280853 88.436859
v 123.439171 70.813858 81.830597
v 123.475517 70.941452 88.036278
v 123.621132 70.605957 87.990173
v 123.694542 70.930092 87.532089
v 123.121544 70.815414 88.911819
v 123.618172 71.180351 82.034363
v 123.349884 71.489128 82.005203
v 123.761726 71.587242 82.277443
v 123.224869 71.407234 87.942482
v 123.519501 71.434181 87.428650
v 123.660866 72.091171 82.442108
v 123.294250 71.989655 86.956680
v 123.572350 71.735428 86.963142
v 123.584740 72.011673 86.470428
v 123.602905 72.579475 82.700264
v 123.567429 72.230431 85.946922
v 123.580589 72.504456 85.413254
v 123.617210 72.913612 83.060593
v 123.264008 73.084236 83.025322
v 123.624260 72.862679 83.988853
v 123.570557 72.703911 84.924408
v 123.705688 62.242615 106.039345
v 123.905930 62.182949 106.990723
v 124.195366 62.178699 107.523132
v 124.151970 62.043484 108.047783
v 124.221710 62.016094 108.963722
v 124.234802 62.183655 109.467171
v 123.705360 62.771465 105.073540
v 123.942848 62.699337 106.012192
v 124.134056 62.739288 106.554108
v 124.189514 62.445751 107.030525
v 124.239456 62.482002 109.941910
v 124.245804 62.846100 110.247055
v 123.757622 63.287910 105.049850
v 124.010063 63.288868 105.980164
v 124.237518 63.286610 106.496674
v 124.246216 63.300873 110.399124
v 123.693672 63.799854 105.078735
v 123.972260 63.868938 105.990891
v 124.211716 63.870590 106.510765
v 124.244751 63.873035 110.423782
v 123.785141 64.360092 106.061577
v 124.083511 64.370964 106.587692
v 124.262566 64.428825 110.354752
v 124.138260 64.544174 107.061905
v 123.934067 65.027184 108.006836
v 124.283600 64.913750 107.947815
v 124.258438 65.094025 108.466492
v 123.988747 64.962448 109.935471
v 124.339630 64.830765 110.189934
v 124.212425 65.177345 109.013596
v 124.307930 65.060867 109.906242
v 123.865120 69.840538 85.027771
v 123.794006 69.800041 85.994171
v 123.734489 69.815384 86.997704
v 123.646820 69.819817 87.946175
v 123.732300 70.436226 82.149040
v 124.031342 70.439079 82.608444
v 124.096909 70.297874 83.042061
v 124.116646 70.222359 84.006813
v 124.114700 70.108658 84.973785
v 124.185020 70.340355 85.490578
v 124.059357 70.275452 86.030579
v 123.861259 70.326973 86.982971
v 123.684799 70.258919 87.919853
v 123.793961 70.861816 82.111473
v 124.180588 70.974297 82.539047
v 124.171379 70.626816 85.983650
v 124.064323 70.905251 86.415535
v 123.894371 70.875244 86.973045
v 124.212059 71.496475 82.527885
v 124.054405 71.525421 86.034927
v 124.181564 71.188354 85.982986
v 124.255714 71.509956 85.524162
v 123.744202 71.426285 86.934868
v 124.201393 72.050621 82.624214
v 123.819901 72.000717 85.950317
v 124.097740 72.017792 85.425331
v 124.114761 72.452866 82.803841
v 123.877762 72.571281 84.956139
v 124.147469 72.315750 84.960693
v 124.140472 72.566811 84.467476
v 124.112373 72.682503 83.069672
v 124.106758 72.698059 83.967476
v 124.514389 62.139450 108.008438
v 124.830101 62.112614 108.476051
v 124.784737 62.072731 108.985275
v 124.813957 62.188961 109.469589
v 124.431671 62.742798 107.056564
v 124.827995 62.719494 107.502090
v 124.846130 62.336708 107.952873
v 124.818138 62.471386 109.951492
v 124.820587 62.825188 110.285873
v 124.541290 63.286331 106.986748
v 124.920006 63.278908 107.322845
v 124.823311 63.290718 110.477623
v 124.535416 63.875027 106.992058
v 124.917328 63.882084 107.327576
v 124.815361 63.874023 110.525925
v 124.394913 64.381966 107.084869
v 124.815094 64.417946 107.527023
v 124.822472 64.448608 110.441650
v 124.795166 64.756798 107.973785
v 124.817642 65.037979 108.503387
v 124.832245 64.877762 110.237411
v 124.817673 65.177719 109.033386
v 124.831696 65.109413 109.929398
v 124.256592 70.459312 83.051155
v 124.291466 70.431320 84.000763
v 124.276840 70.420952 84.970215
v 124.506073 70.925201 83.039795
v 124.468742 70.920982 83.998070
v 124.387581 70.916687 84.981133
v 124.216553 70.907585 85.903549
v 124.590446 71.575371 82.799667
v 124.667290 71.288315 83.021637
v 124.695274 71.528275 83.449768
v 124.578384 71.469078 84.000740
v 124.389854 71.466187 84.977104
v 124.585693 71.970718 82.825935
v 124.513695 72.077675 83.983749
v 124.654396 72.022614 83.434387
v 124.299965 72.007698 84.929321
v 124.620338 72.221626 83.032623
v 124.391457 72.495155 83.063362
v 124.286453 72.534096 83.964531
v 125.354660 62.234745 108.555527
v 125.311104 62.140438 108.998413
v 125.357239 62.253017 109.436485
v 125.380264 62.820362 107.703400
v 125.407043 62.456284 108.055656
v 125.425110 62.454208 109.939888
v 125.413765 62.806896 110.335632
v 125.401489 63.291325 107.518608
v 125.376862 63.267448 110.611549
v 125.403633 63.872528 107.505920
v 125.347290 63.906742 110.666145
v 125.393089 64.349899 107.689331
v 125.397102 64.466789 110.534729
v 125.400833 64.712402 108.028419
v 125.403755 65.011742 108.517181
v 125.411789 64.898788 110.280861
v 125.404121 65.179634 109.035324
v 125.405922 65.128166 109.933266
v 124.731865 71.586739 83.028206
v 124.722961 71.976196 83.026894
v 125.638359 62.214664 108.996552
v 125.891785 62.904434 107.790344
v 125.919556 62.624523 108.082848
v 126.013077 62.328136 109.010681
v 125.982574 62.525360 109.964851
v 125.969986 62.801571 110.466087
v 125.975983 63.312550 107.615173
v 126.060539 63.144882 110.880836
v 125.821358 63.345570 110.889572
v 126.176437 63.456436 111.138329
v 125.989311 63.864185 107.577354
v 125.797295 63.837788 110.920792
v 126.195213 63.779396 111.180786
v 125.988960 64.331680 107.724373
v 126.019485 64.145340 110.961830
v 125.896347 64.546265 110.681145
v 125.990036 64.701645 108.040665
v 125.989990 65.010254 108.517807
v 125.996864 64.933426 110.344177
v 125.989998 65.180740 109.035271
v 125.992188 65.151115 109.944809
v 126.259727 62.755836 108.035202
v 126.602776 62.644829 108.461525
v 126.559570 62.482780 109.009773
v 126.571381 62.543983 109.963577
v 126.578163 62.752960 110.474129
v 126.538353 63.358471 107.696030
v 126.601410 62.945652 107.981705
v 126.583374 63.069191 110.940399
v 126.592133 63.436485 111.229523
v 126.574936 63.871735 107.606491
v 126.611702 63.857510 111.313721
v 126.576012 64.327911 107.733917
v 126.305733 64.428299 110.959381
v 126.679420 64.265236 111.199387
v 126.575989 64.702377 108.040154
v 126.575958 65.010239 108.517792
v 126.627090 64.625381 110.906822
v 126.557076 64.951042 110.466820
v 126.576004 65.183266 109.035240
v 126.577377 65.164948 109.958069
v 127.159775 62.717529 108.507858
v 127.161743 62.542305 109.031609
v 127.161682 62.565475 109.964134
v 127.162109 62.738564 110.481781
v 127.157631 63.414223 107.727669
v 127.158401 63.024368 108.024773
v 127.162582 63.048283 110.957634
v 127.162674 63.421780 111.262680
v 127.161842 63.873989 107.620117
v 127.165070 63.872913 111.365547
v 127.161293 64.326859 107.735901
v 127.176643 64.323990 111.258331
v 127.161446 64.699852 108.042244
v 127.161896 65.009293 108.518265
v 127.172356 64.706261 110.962280
v 127.164635 65.015862 110.485458
v 127.162003 65.182854 109.035400
v 127.163025 65.191010 109.966988
v 127.745659 62.747864 108.523438
v 127.748169 62.567558 109.035622
v 127.747993 62.564095 109.964714
v 127.748016 62.737740 110.482201
v 127.735695 63.431366 107.751244
v 127.741524 63.062145 108.053497
v 127.748024 63.045609 110.959839
v 127.748001 63.420082 111.266075
v 127.742126 63.873875 107.642342
v 127.749115 63.876289 111.392563
v 127.736938 64.317772 107.748474
v 127.785805 64.388618 111.301826
v 127.741287 64.682930 108.055260
v 127.746803 64.995392 108.525566
v 127.724472 64.801735 111.017517
v 127.725098 65.085991 110.530174
v 127.748741 65.187088 109.036064
v 127.769760 65.233902 109.987282
v 128.351151 62.799366 108.533348
v 128.333710 62.583057 109.042038
v 128.334015 62.564987 109.964729
v 128.333984 62.737743 110.482208
v 128.225403 63.484863 107.810432
v 128.283447 63.125690 108.095955
v 128.334000 63.045612 110.959846
v 128.333939 63.418602 111.271614
v 128.273026 63.874554 107.717789
v 128.333679 63.884418 111.416985
v 128.227219 64.265678 107.807358
v 128.347473 64.434486 111.379898
v 128.282822 64.622765 108.095398
v 128.353745 64.949432 108.534790
v 128.063904 64.992615 110.962250
v 128.431381 64.834091 111.199257
v 128.336044 65.193710 109.042412
v 128.338196 65.312843 109.997574
v 128.405991 65.091621 110.912743
v 128.911148 62.815395 108.657028
v 128.919510 62.598381 109.056030
v 128.919998 62.567211 109.964722
v 128.919983 62.737743 110.482201
v 128.599930 63.323872 108.047188
v 129.011322 63.206005 108.324135
v 128.920013 63.045616 110.959846
v 128.920013 63.418339 111.272163
v 128.650375 63.874569 107.886551
v 128.875687 63.607800 108.061279
v 128.919922 63.883129 111.432617
v 128.872772 64.139618 108.057755
v 128.600632 64.424927 108.046204
v 129.007553 64.536407 108.320816
v 128.921478 64.447617 111.416878
v 128.922348 64.941765 108.645508
v 128.933777 64.887527 111.244980
v 128.922531 65.217438 109.044876
v 128.887909 65.438881 109.998283
v 128.938660 65.174889 110.933769
v 129.497635 62.849911 108.720314
v 129.504379 62.620251 109.067116
v 129.505997 62.567265 109.964737
v 129.505966 62.737740 110.482193
v 129.510849 63.283684 108.473267
v 129.505997 63.045609 110.959839
v 129.505997 63.418354 111.272163
v 129.052719 63.876247 108.121239
v 129.519897 63.871998 108.356377
v 129.505981 63.882904 111.433693
v 129.507507 64.470406 108.470123
v 129.505981 64.451164 111.433403
v 129.504883 64.926323 108.704773
v 129.506973 64.910606 111.263512
v 129.483627 65.283897 109.066360
v 129.267105 65.542641 109.997284
v 129.551788 65.501732 109.558159
v 129.551605 65.500816 110.438416
v 129.489761 65.279770 110.931404
v 129.599472 65.599976 109.999100
v 130.077637 62.871078 108.763504
v 130.078125 62.637489 109.070526
v 130.090317 62.578876 109.963959
v 130.092072 62.738087 110.481964
v 130.088562 63.298428 108.556702
v 130.092010 63.045605 110.959839
v 130.091980 63.418362 111.272125
v 130.092361 63.875256 108.482430
v 130.091965 63.882896 111.433678
v 130.090744 64.454750 108.540306
v 130.092041 64.451180 111.434059
v 130.091919 64.916115 108.727211
v 130.094574 64.923592 111.282555
v 130.091110 65.280724 109.046341
v 130.097382 65.552361 109.533226
v 130.096802 65.303299 110.971252
v 130.099197 65.571167 110.476814
v 130.101578 65.649673 110.001389
v 130.579391 62.915955 108.802277
v 130.603363 62.685341 109.093033
v 130.669113 62.598999 109.966217
v 130.677948 62.748505 110.477669
v 130.665268 63.313133 108.614426
v 130.677963 63.045799 110.959702
v 130.677963 63.418343 111.272141
v 130.678482 63.873451 108.523628
v 130.677979 63.882896 111.433853
v 130.678055 64.451172 108.560577
v 130.678497 64.454391 111.448112
v 130.677994 64.915649 108.727867
v 130.714218 64.976913 111.309937
v 130.677887 65.285561 109.041832
v 130.679245 65.576988 109.524300
v 130.653473 65.389000 111.018654
v 130.659546 65.639145 110.523682
v 130.703918 65.699661 110.013817
v 130.944550 62.768780 109.041542
v 131.281799 62.695011 109.474075
v 131.238205 62.640259 109.987099
v 131.263306 62.759563 110.475189
v 131.227066 63.356956 108.689896
v 131.288986 62.947308 108.983002
v 131.264069 63.048351 110.958275
v 131.264053 63.418301 111.272240
v 131.263565 63.879597 108.551872
v 131.263962 63.882851 111.439430
v 131.264023 64.451103 108.566154
v 131.263519 64.460541 111.476387
v 131.264008 64.915642 108.727859
v 131.276703 65.020958 111.385735
v 131.263977 65.288368 109.040169
v 131.264542 65.586594 109.521515
v 130.995483 65.577972 110.959084
v 131.361374 65.419472 111.198769
v 131.271652 65.736801 110.033546
v 131.338364 65.651527 110.910332
v 131.840805 62.760361 109.523735
v 131.841553 62.685169 109.998589
v 131.845490 62.783432 110.467201
v 131.846741 63.410625 108.718277
v 131.847229 63.028946 109.028931
v 131.849609 63.054161 110.954056
v 131.850220 63.417332 111.273491
v 131.849976 63.882866 108.566116
v 131.851242 63.879196 111.459869
v 131.850021 64.451088 108.566315
v 131.849640 64.458740 111.517586
v 131.849991 64.915634 108.727859
v 131.853378 65.035583 111.443375
v 131.849976 65.288383 109.040131
v 131.849976 65.596252 109.517799
v 131.864182 65.463570 111.237091
v 131.851456 65.755943 110.035889
v 131.863464 65.696701 110.929489
v 132.390259 62.829311 109.557182
v 132.342529 62.734455 109.999069
v 132.390427 62.835922 110.437492
v 132.434372 63.422306 108.735023
v 132.455093 63.051689 109.067154
v 132.454758 63.051960 110.931679
v 132.438599 63.408886 111.292450
v 132.435989 63.882816 108.566551
v 132.434494 63.863419 111.530167
v 132.435989 64.451096 108.566315
v 132.422150 64.460068 111.643562
v 132.436005 64.915627 108.727844
v 132.431168 65.050224 111.526474
v 132.435989 65.288376 109.040131
v 132.436005 65.596260 109.517807
v 132.443817 65.484665 111.280609
v 132.436005 65.766747 110.035240
v 132.437958 65.714104 110.933228
v 132.674866 62.791451 109.997406
v 133.007355 63.446224 108.755188
v 133.003815 63.156872 109.065315
v 133.053894 62.895611 110.003845
v 133.016068 63.119312 110.953537
v 133.023178 63.392971 111.354500
v 133.020538 63.886414 108.583206
v 132.935043 63.796417 111.678650
v 133.022079 64.450874 108.567390
v 133.066818 64.194145 111.938057
v 132.889221 64.462242 111.879028
v 133.291656 64.460350 112.113358
v 133.021973 64.915642 108.727829
v 133.068619 64.725983 111.942810
v 132.929993 65.126854 111.676437
v 133.021988 65.288391 109.040154
v 133.021973 65.596252 109.517807
v 133.028946 65.519127 111.343796
v 133.022018 65.766754 110.035248
v 133.024231 65.737114 110.944794
v 133.509598 63.501080 108.801498
v 133.535248 63.244785 109.089058
v 133.603821 63.021294 110.002480
v 133.604294 63.142181 110.957581
v 133.590561 63.384155 111.467278
v 133.594467 63.899601 108.620255
v 133.658524 63.711327 111.904671
v 133.342407 63.910286 111.952850
v 133.715500 64.069305 112.191017
v 133.608292 64.449562 108.583023
v 133.668961 64.459595 112.282234
v 133.608078 64.915413 108.728394
v 133.341125 65.011269 111.953552
v 133.715851 64.850204 112.191315
v 133.608002 65.288383 109.040138
v 133.608032 65.596260 109.517815
v 133.659302 65.208389 111.904076
v 133.588943 65.534370 111.465271
v 133.608017 65.769203 110.035271
v 133.609406 65.752029 110.958061
v 133.875717 63.351284 109.040276
v 134.217804 63.247093 109.467278
v 134.172546 63.102070 110.012840
v 134.192978 63.146748 110.964378
v 134.195953 63.337849 111.474693
v 134.155457 63.945305 108.698021
v 134.218185 63.534069 108.983940
v 134.200150 63.650890 111.944252
v 134.205154 64.016602 112.250870
v 134.192871 64.457672 108.607430
v 134.199844 64.460197 112.357666
v 134.193970 64.913910 108.733902
v 134.206146 64.903015 112.249496
v 134.193985 65.288383 109.040138
v 134.194016 65.596275 109.517799
v 134.201111 65.271698 111.947067
v 134.195557 65.584808 111.476181
v 134.194016 65.769852 110.035248
v 134.194092 65.766411 110.964088
v 134.775375 63.316048 109.514381
v 134.780167 63.142113 110.032913
v 134.779968 63.151108 110.964592
v 134.780121 63.324570 111.481796
v 134.764664 64.009972 108.742508
v 134.771011 63.626942 109.038177
v 134.780594 63.634224 111.957687
v 134.780762 64.007202 112.263992
v 134.776871 64.461121 108.634628
v 134.780151 64.460037 112.379921
v 134.779465 64.912399 108.737030
v 134.783813 64.919472 112.272667
v 134.779434 65.285835 109.042221
v 134.779892 65.595329 109.518242
v 134.784286 65.308952 111.975212
v 134.781250 65.615150 111.492241
v 134.780273 65.768616 110.035812
v 134.781174 65.790344 110.968727
v 135.382812 63.382172 109.531761
v 135.365906 63.170361 110.042259
v 135.365982 63.150928 110.964745
v 135.365982 63.323727 111.482162
v 135.262390 64.068977 108.801041
v 135.315918 63.708302 109.092712
v 135.365997 63.631611 111.959846
v 135.365997 64.006096 112.266090
v 135.330124 64.476700 108.686386
v 135.367020 64.462257 112.393471
v 135.350143 64.898796 108.767929
v 135.402939 64.975395 112.303711
v 135.358154 65.266197 109.057457
v 135.365402 65.580345 109.526741
v 135.341248 65.390106 112.019630
v 135.340790 65.685722 111.534859
v 135.369720 65.790375 110.037331
v 135.382523 65.853470 110.990433
v 135.943161 63.401299 109.656921
v 135.951508 63.184380 110.056038
v 135.951965 63.153198 110.964722
v 135.952011 63.323742 111.482185
v 135.636520 63.905476 109.039688
v 136.044876 63.787281 109.319275
v 135.951981 63.631603 111.959824
v 135.951904 64.004585 112.271606
v 135.745575 64.555252 108.820969
v 135.923706 64.188629 109.039444
v 135.951691 64.470406 112.416992
v 135.765656 64.878479 108.860664
v 135.965469 65.020493 112.379906
v 135.879074 65.187965 109.118973
v 135.977539 65.532059 109.537537
v 135.680252 65.586525 111.966415
v 136.048630 65.426910 112.205910
v 135.954971 65.813019 110.034996
v 135.928787 66.006012 110.991188
v 136.022842 65.706734 111.917290
v 136.529663 63.435768 109.720108
v 136.536392 63.206238 110.067108
v 136.537964 63.153259 110.964714
v 136.537979 63.323742 111.482185
v 136.544876 63.867203 109.465271
v 136.537979 63.631611 111.959816
v 136.537979 64.004341 112.272148
v 136.143524 64.497665 109.079376
v 136.594177 64.426689 109.333649
v 136.537888 64.469116 112.432602
v 136.119080 64.988541 109.114708
v 136.566391 65.066650 109.387840
v 136.539261 65.034698 112.419388
v 136.533218 65.528168 109.660637
v 136.550385 65.485931 112.248215
v 136.510925 65.880424 110.056381
v 136.304810 66.117683 110.997772
v 136.583908 66.087280 110.558395
v 136.587250 66.075661 111.432945
v 136.534164 65.845146 111.922134
v 136.631531 66.186218 110.999077
v 137.109512 63.457054 109.763412
v 137.109863 63.224167 110.070656
v 137.121613 63.167847 110.963699
v 137.123566 63.327526 111.480293
v 137.119476 63.885406 109.558395
v 137.123428 63.634163 111.957764
v 137.123566 64.005119 112.270798
v 137.126678 64.459984 109.474068
v 137.123108 64.469574 112.428833
v 137.118698 65.043167 109.522499
v 137.123108 65.036385 112.428413
v 137.122070 65.508591 109.713455
v 137.123993 65.500549 112.269661
v 137.121964 65.863808 110.047997
v 137.128830 66.135994 110.534203
v 137.124878 65.860039 111.949615
v 137.128326 66.135361 111.466385
v 137.131866 66.225441 110.999741
v 137.600189 63.505486 109.812073
v 137.626633 63.285835 110.093513
v 137.689667 63.212772 110.964417
v 137.699631 63.369247 111.460663
v 137.678207 63.905815 109.647385
v 137.699615 63.661041 111.937668
v 137.695251 64.017792 112.246933
v 137.696167 64.461029 109.578705
v 137.694672 64.473297 112.386742
v 137.694809 65.032913 109.602951
v 137.694641 65.032524 112.387390
v 137.695648 65.488426 109.752090
v 137.695633 65.487732 112.246475
v 137.699265 65.843048 110.063087
v 137.699905 66.119652 110.542229
v 137.701050 65.845825 111.938675
v 137.701584 66.123268 111.459785
v 137.700745 66.222298 111.000343
v 137.933945 63.400177 110.071739
v 138.186295 63.400852 110.533493
v 138.153748 63.325665 110.980125
v 138.175842 63.489906 111.396866
v 138.081161 63.982292 109.810211
v 138.194092 63.646652 110.067505
v 138.179001 63.772308 111.865387
v 138.096344 64.059921 112.144157
v 138.128067 64.473289 109.763618
v 138.125885 64.475731 112.228790
v 138.125626 65.031075 109.770912
v 138.127670 65.031235 112.231720
v 138.097107 65.446762 109.855103
v 138.100128 65.450783 112.146889
v 138.179184 65.734001 110.134483
v 138.174438 66.012596 110.604675
v 138.189575 65.751282 111.874138
v 138.182327 66.029716 111.406693
v 138.163300 66.146240 111.002319
v 138.282867 63.441990 110.990067
v 138.313324 63.953842 110.093109
v 138.441116 63.902000 110.999901
v 138.285873 63.976929 111.894615
v 138.371078 64.471764 110.072990
v 138.513275 64.464005 110.999245
v 138.366776 64.473450 111.925529
v 138.366943 65.032570 110.074341
v 138.513153 65.041962 111.000740
v 138.369232 65.033203 111.927101
v 138.286346 65.529282 110.104988
v 138.438141 65.603165 110.999710
v 138.297745 65.535606 111.899124
v 138.276413 66.059158 111.002373
# 1498 vertices, 0 vertices normals

f 3 2 1
f 5 4 1
f 1 4 3
f 5 6 4
f 1 2 7
f 7 2 8
f 1 9 5
f 1 7 9
f 6 5 10
f 10 5 9
f 7 8 11
f 11 8 12
f 7 13 9
f 7 11 13
f 10 9 14
f 14 9 13
f 11 12 15
f 15 12 16
f 11 17 13
f 11 15 17
f 14 13 18
f 18 13 17
f 16 19 15
f 15 19 17
f 17 19 20
f 17 20 18
f 23 22 21
f 25 24 21
f 21 24 23
f 25 26 24
f 29 28 27
f 29 27 22
f 27 21 22
f 27 30 21
f 21 31 25
f 21 30 31
f 26 25 32
f 25 33 32
f 25 31 33
f 33 34 32
f 27 28 3
f 28 2 3
f 28 35 2
f 27 3 4
f 27 4 30
f 30 4 6
f 36 30 6
f 31 30 36
f 31 37 33
f 31 36 37
f 34 33 38
f 38 33 37
f 41 40 39
f 35 41 39
f 8 35 39
f 2 35 8
f 10 42 36
f 10 36 6
f 36 43 37
f 36 42 43
f 38 37 44
f 44 37 43
f 39 40 45
f 45 40 46
f 45 12 8
f 45 8 39
f 14 47 42
f 14 42 10
f 49 43 48
f 43 47 48
f 43 42 47
f 43 49 44
f 45 46 50
f 50 46 51
f 50 16 12
f 50 12 45
f 53 52 47
f 14 53 47
f 18 53 14
f 47 52 48
f 56 55 54
f 56 54 51
f 54 50 51
f 54 57 50
f 58 19 16
f 50 58 16
f 57 58 50
f 59 20 19
f 59 19 58
f 59 60 20
f 60 18 20
f 60 53 18
f 54 55 61
f 61 55 62
f 54 63 57
f 54 61 63
f 57 64 58
f 57 63 64
f 58 65 59
f 58 64 65
f 60 59 66
f 66 59 65
f 69 68 67
f 69 67 62
f 67 61 62
f 67 70 61
f 61 71 63
f 61 70 71
f 63 72 64
f 63 71 72
f 74 65 73
f 65 72 73
f 65 64 72
f 65 74 66
f 67 68 75
f 75 68 76
f 67 77 70
f 67 75 77
f 70 78 71
f 70 77 78
f 80 72 79
f 72 78 79
f 72 71 78
f 72 80 73
f 76 81 75
f 75 81 77
f 77 81 82
f 77 82 78
f 78 82 83
f 78 83 79
f 85 84 23
f 23 84 22
f 86 23 24
f 86 85 23
f 88 87 26
f 87 24 26
f 87 86 24
f 90 89 88
f 88 89 87
f 90 91 89
f 93 92 29
f 29 92 28
f 29 22 84
f 29 84 93
f 32 88 26
f 88 32 34
f 94 88 34
f 90 88 94
f 91 90 95
f 90 96 95
f 90 94 96
f 96 97 95
f 100 99 98
f 92 100 98
f 35 92 98
f 28 92 35
f 38 101 94
f 38 94 34
f 94 102 96
f 94 101 102
f 97 96 103
f 103 96 102
f 98 99 41
f 99 40 41
f 99 104 40
f 98 41 35
f 44 105 101
f 44 101 38
f 107 102 106
f 102 105 106
f 102 101 105
f 102 107 103
f 104 46 40
f 108 46 104
f 48 109 49
f 109 110 49
f 49 110 44
f 110 111 44
f 111 105 44
f 105 111 106
f 114 113 112
f 108 114 112
f 51 108 112
f 46 108 51
f 53 115 52
f 115 116 52
f 52 116 48
f 116 117 48
f 117 109 48
f 109 117 110
f 120 119 118
f 120 118 113
f 113 118 112
f 118 55 112
f 55 56 112
f 112 56 51
f 122 121 115
f 53 122 115
f 60 122 53
f 115 121 116
f 118 119 123
f 123 119 124
f 123 62 55
f 123 55 118
f 66 122 60
f 66 125 122
f 128 127 126
f 128 126 124
f 124 126 123
f 126 68 123
f 68 69 123
f 123 69 62
f 130 129 74
f 130 74 73
f 66 74 125
f 125 74 129
f 126 127 131
f 131 127 132
f 131 76 68
f 131 68 126
f 79 133 80
f 133 134 80
f 134 73 80
f 134 130 73
f 131 132 135
f 135 132 136
f 137 81 76
f 131 137 76
f 135 137 131
f 138 82 81
f 138 81 137
f 82 138 139
f 140 82 139
f 83 82 140
f 79 83 133
f 83 141 133
f 83 140 141
f 133 141 134
f 136 142 135
f 135 142 137
f 137 142 143
f 137 143 138
f 138 143 144
f 138 144 139
f 147 146 145
f 149 148 145
f 145 148 147
f 151 150 149
f 149 150 148
f 151 152 150
f 154 153 85
f 85 153 84
f 86 145 146
f 154 86 146
f 85 86 154
f 145 86 87
f 145 87 149
f 149 87 89
f 149 89 151
f 156 155 91
f 91 155 89
f 155 152 89
f 152 151 89
f 158 157 156
f 156 157 155
f 158 159 157
f 161 160 93
f 93 160 92
f 93 84 153
f 93 153 161
f 95 156 91
f 156 95 97
f 162 156 97
f 158 156 162
f 159 158 163
f 163 158 162
f 165 164 100
f 100 164 99
f 100 92 160
f 100 160 165
f 103 166 162
f 103 162 97
f 163 162 167
f 167 162 166
f 164 104 99
f 168 104 164
f 106 169 107
f 166 103 107
f 169 166 107
f 170 166 169
f 167 166 171
f 171 166 170
f 168 108 104
f 172 108 168
f 110 173 111
f 173 174 111
f 111 174 106
f 174 175 106
f 175 169 106
f 169 175 170
f 170 175 176
f 170 176 171
f 178 177 114
f 114 177 113
f 114 108 172
f 114 172 178
f 180 179 117
f 180 117 116
f 110 117 173
f 117 181 173
f 117 179 181
f 173 181 174
f 183 182 120
f 120 182 119
f 120 113 177
f 120 177 183
f 185 184 121
f 185 121 122
f 116 121 180
f 180 121 184
f 188 187 186
f 182 188 186
f 124 182 186
f 119 182 124
f 125 185 122
f 125 189 185
f 186 187 128
f 187 127 128
f 187 190 127
f 186 128 124
f 130 191 129
f 191 192 129
f 192 125 129
f 192 189 125
f 190 132 127
f 193 132 190
f 195 194 191
f 130 195 191
f 134 195 130
f 191 194 192
f 193 136 132
f 196 136 193
f 139 197 140
f 140 197 198
f 199 140 198
f 141 140 199
f 134 141 195
f 195 141 199
f 142 136 200
f 136 201 200
f 136 196 201
f 202 143 142
f 202 142 200
f 143 202 203
f 204 143 203
f 144 143 204
f 139 144 197
f 144 205 197
f 144 204 205
f 197 205 198
f 201 206 200
f 200 206 202
f 202 206 207
f 202 207 203
f 208 146 147
f 208 147 209
f 147 210 209
f 147 148 210
f 211 148 150
f 211 210 148
f 213 212 152
f 212 150 152
f 212 211 150
f 215 214 213
f 213 214 212
f 215 216 214
f 218 217 154
f 154 217 153
f 154 146 208
f 219 154 208
f 218 154 219
f 219 208 209
f 155 213 152
f 213 155 157
f 213 157 215
f 221 220 159
f 159 220 157
f 220 216 157
f 216 215 157
f 221 222 220
f 224 223 161
f 161 223 160
f 161 153 217
f 161 217 224
f 163 225 221
f 163 221 159
f 222 221 226
f 221 227 226
f 221 225 227
f 227 228 226
f 229 164 165
f 230 229 165
f 160 230 165
f 223 230 160
f 167 231 225
f 167 225 163
f 225 232 227
f 225 231 232
f 228 227 233
f 233 227 232
f 234 168 229
f 229 168 164
f 229 230 235
f 229 235 234
f 171 236 231
f 171 231 167
f 238 232 237
f 232 236 237
f 232 231 236
f 232 238 233
f 240 239 234
f 239 168 234
f 239 172 168
f 240 234 235
f 174 241 175
f 175 241 242
f 243 175 242
f 176 175 243
f 171 176 236
f 176 244 236
f 176 243 244
f 236 244 237
f 246 245 178
f 178 245 177
f 178 172 239
f 178 239 246
f 249 248 247
f 179 180 247
f 248 179 247
f 250 179 248
f 179 251 181
f 250 251 179
f 174 181 241
f 181 252 241
f 181 251 252
f 241 252 242
f 254 253 183
f 183 253 182
f 183 177 245
f 183 245 254
f 249 247 184
f 185 249 184
f 255 249 185
f 184 247 180
f 257 256 188
f 188 256 187
f 188 182 253
f 188 253 257
f 189 255 185
f 189 258 255
f 256 190 187
f 259 190 256
f 262 261 260
f 261 258 260
f 258 192 260
f 258 189 192
f 265 264 263
f 259 265 263
f 193 259 263
f 190 259 193
f 262 260 194
f 195 262 194
f 266 262 195
f 194 260 192
f 263 264 267
f 267 264 268
f 267 196 193
f 267 193 263
f 271 270 269
f 199 198 269
f 270 199 269
f 272 199 270
f 195 199 266
f 266 199 272
f 267 268 273
f 273 268 274
f 273 201 196
f 273 196 267
f 203 275 204
f 276 271 269
f 204 276 269
f 205 204 269
f 276 204 275
f 205 269 198
f 273 274 277
f 277 274 278
f 279 206 201
f 273 279 201
f 277 279 273
f 280 207 206
f 280 206 279
f 280 281 207
f 207 281 203
f 281 282 203
f 282 275 203
f 275 282 276
f 278 283 277
f 285 284 283
f 284 277 283
f 284 279 277
f 287 280 286
f 280 284 286
f 280 279 284
f 280 287 281
f 285 288 284
f 284 288 286
f 290 289 210
f 210 289 209
f 291 210 211
f 291 290 210
f 292 211 212
f 292 291 211
f 293 212 214
f 293 292 212
f 295 294 216
f 294 214 216
f 294 293 214
f 295 296 294
f 297 217 218
f 297 218 298
f 218 299 298
f 218 219 299
f 219 209 289
f 219 289 299
f 220 295 216
f 301 300 222
f 222 300 220
f 300 296 220
f 296 295 220
f 303 302 301
f 301 302 300
f 303 304 302
f 305 223 224
f 306 305 224
f 306 224 217
f 307 306 217
f 297 307 217
f 307 297 298
f 226 301 222
f 301 226 228
f 308 301 228
f 303 301 308
f 304 303 309
f 309 303 308
f 310 230 305
f 305 230 223
f 305 306 311
f 305 311 310
f 233 312 308
f 233 308 228
f 309 308 313
f 313 308 312
f 315 314 310
f 314 230 310
f 314 235 230
f 315 310 311
f 237 316 238
f 312 233 238
f 316 312 238
f 317 312 316
f 313 312 318
f 318 312 317
f 319 239 240
f 320 319 240
f 235 320 240
f 314 320 235
f 323 322 321
f 324 321 322
f 242 325 243
f 326 244 243
f 326 243 325
f 326 327 244
f 244 327 237
f 327 328 237
f 328 316 237
f 316 328 317
f 317 328 329
f 317 329 318
f 330 245 246
f 331 330 246
f 331 246 239
f 332 331 239
f 319 332 239
f 332 319 320
f 323 321 248
f 249 323 248
f 333 323 249
f 324 334 321
f 334 248 321
f 334 250 248
f 250 335 251
f 334 335 250
f 251 336 252
f 335 336 251
f 242 252 325
f 252 337 325
f 252 336 337
f 325 337 326
f 326 337 338
f 326 338 327
f 340 339 254
f 254 339 253
f 254 245 330
f 341 254 330
f 340 254 341
f 341 330 331
f 255 333 249
f 255 342 333
f 344 343 257
f 257 343 256
f 257 253 339
f 257 339 344
f 347 346 345
f 346 342 345
f 342 258 345
f 342 255 258
f 343 259 256
f 348 259 343
f 347 345 261
f 262 347 261
f 349 347 262
f 261 345 258
f 351 350 265
f 265 350 264
f 265 259 348
f 265 348 351
f 354 353 352
f 353 349 352
f 349 266 352
f 349 262 266
f 350 268 264
f 355 268 350
f 357 356 270
f 357 270 271
f 352 272 354
f 272 356 354
f 272 270 356
f 272 352 266
f 360 359 358
f 355 360 358
f 274 355 358
f 268 355 274
f 276 357 271
f 276 361 357
f 358 359 362
f 362 359 363
f 362 278 274
f 362 274 358
f 365 364 282
f 365 282 281
f 276 282 361
f 361 282 364
f 362 363 366
f 366 363 367
f 368 283 278
f 362 368 278
f 366 368 362
f 368 285 283
f 286 369 287
f 369 370 287
f 370 281 287
f 370 365 281
f 366 367 371
f 371 367 372
f 366 373 368
f 366 371 373
f 368 373 285
f 373 374 285
f 374 288 285
f 373 375 374
f 286 288 369
f 288 376 369
f 288 374 376
f 369 376 370
f 372 377 371
f 371 377 373
f 373 377 378
f 373 378 375
f 379 289 290
f 291 380 290
f 290 380 379
f 380 291 381
f 291 382 381
f 291 292 382
f 383 292 293
f 383 382 292
f 384 293 294
f 384 383 293
f 386 385 296
f 385 294 296
f 385 384 294
f 386 387 385
f 388 298 299
f 389 388 299
f 389 299 289
f 390 389 289
f 379 390 289
f 390 379 380
f 390 380 391
f 391 380 381
f 300 386 296
f 392 387 386
f 300 392 386
f 302 392 300
f 394 393 304
f 393 302 304
f 393 392 302
f 394 395 393
f 396 306 307
f 298 388 307
f 388 396 307
f 388 397 396
f 388 389 398
f 388 398 397
f 309 399 394
f 309 394 304
f 395 394 400
f 394 401 400
f 394 399 401
f 401 402 400
f 403 311 396
f 396 311 306
f 397 405 404
f 403 397 404
f 396 397 403
f 405 397 398
f 313 406 399
f 313 399 309
f 399 407 401
f 399 406 407
f 402 401 408
f 408 401 407
f 409 314 315
f 311 403 315
f 403 409 315
f 403 410 409
f 403 404 411
f 412 403 411
f 410 403 412
f 413 412 411
f 318 414 406
f 318 406 313
f 416 407 415
f 407 414 415
f 407 406 414
f 407 416 408
f 417 320 409
f 409 320 314
f 418 409 410
f 417 409 418
f 323 418 322
f 418 412 322
f 418 410 412
f 420 419 324
f 420 324 322
f 413 420 322
f 412 413 322
f 422 421 419
f 422 419 420
f 423 421 422
f 327 424 328
f 425 329 328
f 425 328 424
f 425 426 329
f 329 426 318
f 426 427 318
f 427 414 318
f 414 427 415
f 428 331 332
f 320 417 332
f 417 428 332
f 417 429 428
f 430 417 418
f 429 417 430
f 333 430 323
f 323 430 418
f 419 334 324
f 334 419 335
f 335 419 421
f 423 431 421
f 431 335 421
f 431 336 335
f 336 432 337
f 431 432 336
f 337 433 338
f 432 433 337
f 327 338 424
f 338 434 424
f 338 433 434
f 424 434 425
f 425 434 435
f 425 435 426
f 436 339 340
f 341 437 340
f 340 437 436
f 331 428 341
f 428 437 341
f 428 438 437
f 439 428 429
f 438 428 439
f 440 429 430
f 439 429 440
f 342 440 333
f 333 440 430
f 442 441 344
f 344 441 343
f 344 339 436
f 443 344 436
f 442 344 443
f 443 436 437
f 443 437 444
f 446 445 444
f 437 446 444
f 438 446 437
f 447 438 439
f 446 438 447
f 347 447 346
f 447 440 346
f 447 439 440
f 346 440 342
f 441 348 343
f 448 348 441
f 445 446 449
f 445 449 450
f 451 446 447
f 449 446 451
f 349 451 347
f 347 451 447
f 453 452 351
f 351 452 350
f 351 348 448
f 351 448 453
f 450 449 454
f 450 454 455
f 354 454 353
f 454 451 353
f 454 449 451
f 353 451 349
f 452 355 350
f 456 355 452
f 455 454 356
f 357 455 356
f 457 455 357
f 356 454 354
f 459 458 360
f 360 458 359
f 360 355 456
f 360 456 459
f 361 457 357
f 361 460 457
f 463 462 461
f 458 463 461
f 363 458 461
f 359 458 363
f 465 464 364
f 465 364 365
f 361 364 460
f 460 364 464
f 468 467 466
f 468 466 462
f 466 461 462
f 466 469 461
f 469 367 363
f 469 363 461
f 370 465 365
f 370 470 465
f 466 467 471
f 471 467 472
f 466 473 469
f 466 471 473
f 473 372 367
f 473 367 469
f 375 474 374
f 374 474 475
f 476 374 475
f 376 374 476
f 370 376 470
f 470 376 476
f 471 472 477
f 477 472 478
f 471 479 473
f 471 477 479
f 480 377 372
f 473 480 372
f 479 480 473
f 377 480 481
f 482 377 481
f 378 377 482
f 375 378 474
f 378 483 474
f 378 482 483
f 474 483 475
f 478 484 477
f 477 484 479
f 479 484 485
f 479 485 480
f 480 485 486
f 480 486 481
f 487 381 382
f 487 382 488
f 382 489 488
f 382 383 489
f 490 383 384
f 490 489 383
f 491 384 385
f 491 490 384
f 493 492 387
f 492 385 387
f 492 491 385
f 493 494 492
f 495 389 390
f 391 496 390
f 390 496 495
f 497 496 391
f 497 391 381
f 498 497 381
f 487 498 381
f 498 487 488
f 392 493 387
f 499 494 493
f 392 499 493
f 393 499 392
f 501 500 395
f 500 393 395
f 500 499 393
f 501 502 500
f 503 398 495
f 495 398 389
f 496 505 504
f 503 496 504
f 495 496 503
f 505 496 497
f 400 501 395
f 507 506 402
f 402 506 400
f 506 502 400
f 502 501 400
f 507 508 506
f 509 404 405
f 398 503 405
f 503 509 405
f 503 510 509
f 503 504 511
f 503 511 510
f 408 512 507
f 408 507 402
f 508 507 513
f 513 507 512
f 509 411 404
f 411 509 413
f 509 514 413
f 509 510 514
f 510 511 515
f 516 510 515
f 514 510 516
f 517 516 515
f 415 518 416
f 512 408 416
f 518 512 416
f 519 512 518
f 513 512 520
f 520 512 519
f 514 420 413
f 420 514 422
f 422 514 516
f 522 521 423
f 522 423 422
f 517 522 422
f 516 517 422
f 524 523 521
f 524 521 522
f 525 523 524
f 426 526 427
f 518 415 427
f 526 518 427
f 527 518 526
f 529 519 528
f 519 527 528
f 519 518 527
f 519 529 520
f 521 431 423
f 431 521 432
f 432 521 523
f 525 530 523
f 530 432 523
f 530 433 432
f 433 531 434
f 530 531 433
f 434 532 435
f 531 532 434
f 426 435 526
f 435 533 526
f 435 532 533
f 526 533 527
f 527 533 534
f 527 534 528
f 535 441 442
f 443 536 442
f 442 536 535
f 444 537 443
f 443 537 536
f 445 537 444
f 538 448 535
f 535 448 441
f 536 540 539
f 538 536 539
f 535 536 538
f 542 541 540
f 536 542 540
f 537 542 536
f 450 542 445
f 445 542 537
f 544 543 453
f 453 543 452
f 453 448 538
f 545 453 538
f 544 453 545
f 545 538 539
f 541 542 546
f 541 546 547
f 455 546 450
f 450 546 542
f 550 549 548
f 543 550 548
f 456 543 548
f 452 543 456
f 547 546 551
f 547 551 552
f 457 551 455
f 455 551 546
f 555 554 553
f 555 553 549
f 549 553 548
f 553 458 548
f 458 459 548
f 548 459 456
f 552 551 556
f 552 556 557
f 460 556 457
f 457 556 551
f 560 559 558
f 560 558 554
f 554 558 553
f 558 462 553
f 462 463 553
f 553 463 458
f 557 556 464
f 465 557 464
f 561 557 465
f 464 556 460
f 564 563 562
f 564 562 559
f 559 562 558
f 562 467 558
f 467 468 558
f 558 468 462
f 470 561 465
f 470 565 561
f 568 567 566
f 568 566 563
f 566 562 563
f 566 569 562
f 569 472 467
f 569 467 562
f 571 570 476
f 571 476 475
f 470 476 565
f 565 476 570
f 566 567 572
f 572 567 573
f 566 574 569
f 566 572 574
f 574 478 472
f 574 472 569
f 481 575 482
f 482 575 576
f 577 482 576
f 483 482 577
f 475 483 571
f 571 483 577
f 572 573 578
f 578 573 579
f 572 580 574
f 572 578 580
f 581 484 478
f 574 581 478
f 580 581 574
f 582 485 484
f 582 484 581
f 485 582 583
f 584 485 583
f 486 485 584
f 481 486 575
f 486 585 575
f 486 584 585
f 575 585 576
f 579 586 578
f 578 586 580
f 580 586 587
f 580 587 581
f 581 587 588
f 581 588 582
f 582 588 589
f 582 589 583
f 590 488 489
f 490 591 489
f 489 591 590
f 591 490 592
f 490 593 592
f 490 491 593
f 594 491 492
f 594 593 491
f 492 494 594
f 594 494 595
f 596 497 498
f 597 596 498
f 597 498 488
f 598 597 488
f 590 598 488
f 598 590 591
f 598 591 599
f 599 591 592
f 600 595 494
f 600 494 499
f 601 499 500
f 601 600 499
f 603 602 502
f 602 500 502
f 602 601 500
f 603 604 602
f 605 504 505
f 497 596 505
f 596 605 505
f 596 606 605
f 596 597 607
f 596 607 606
f 506 603 502
f 609 608 508
f 508 608 506
f 608 604 506
f 604 603 506
f 609 610 608
f 611 511 605
f 605 511 504
f 612 605 606
f 611 605 612
f 606 607 613
f 606 613 612
f 513 614 609
f 513 609 508
f 610 609 615
f 609 616 615
f 609 614 616
f 616 617 615
f 611 515 511
f 515 611 517
f 611 618 517
f 611 612 618
f 612 613 619
f 612 619 618
f 520 620 614
f 520 614 513
f 614 621 616
f 614 620 621
f 617 616 622
f 622 616 621
f 618 522 517
f 619 623 618
f 623 522 618
f 623 524 522
f 625 624 525
f 524 625 525
f 623 625 524
f 626 624 625
f 528 627 529
f 620 520 529
f 627 620 529
f 628 620 627
f 630 621 629
f 621 628 629
f 621 620 628
f 621 630 622
f 624 530 525
f 626 631 624
f 631 530 624
f 631 531 530
f 531 632 532
f 631 632 531
f 532 633 533
f 632 633 532
f 533 634 534
f 633 634 533
f 528 534 627
f 534 635 627
f 534 634 635
f 627 635 628
f 628 635 636
f 628 636 629
f 637 539 540
f 541 637 540
f 638 543 544
f 545 639 544
f 544 639 638
f 539 637 545
f 637 639 545
f 637 640 639
f 547 640 541
f 541 640 637
f 642 641 550
f 550 641 549
f 550 543 638
f 643 550 638
f 642 550 643
f 643 638 639
f 643 639 644
f 644 639 640
f 644 640 645
f 640 547 645
f 547 646 645
f 547 552 646
f 648 647 555
f 555 647 554
f 555 549 641
f 555 641 648
f 557 646 552
f 557 649 646
f 652 651 650
f 559 560 650
f 560 652 650
f 560 653 652
f 560 554 647
f 560 647 653
f 561 649 557
f 561 654 649
f 657 656 655
f 657 655 651
f 651 655 650
f 655 563 650
f 563 564 650
f 650 564 559
f 660 659 658
f 659 654 658
f 654 565 658
f 654 561 565
f 663 662 661
f 663 661 656
f 656 661 655
f 661 567 655
f 567 568 655
f 655 568 563
f 660 658 570
f 571 660 570
f 664 660 571
f 570 658 565
f 667 666 665
f 667 665 662
f 665 661 662
f 665 668 661
f 668 573 567
f 668 567 661
f 670 669 577
f 670 577 576
f 571 577 664
f 664 577 669
f 673 672 671
f 673 671 666
f 671 665 666
f 671 674 665
f 665 675 668
f 665 674 675
f 675 579 573
f 675 573 668
f 677 676 584
f 677 584 583
f 584 678 585
f 676 678 584
f 576 585 670
f 670 585 678
f 671 672 679
f 679 672 680
f 671 681 674
f 671 679 681
f 674 682 675
f 674 681 682
f 683 586 579
f 675 683 579
f 682 683 675
f 684 587 586
f 684 586 683
f 685 588 587
f 685 587 684
f 588 685 686
f 687 588 686
f 589 588 687
f 583 589 677
f 677 589 687
f 680 688 679
f 679 688 681
f 681 688 689
f 681 689 682
f 682 689 690
f 682 690 683
f 683 690 691
f 683 691 684
f 684 691 692
f 684 692 685
f 685 692 693
f 685 693 686
f 694 592 593
f 594 695 593
f 593 695 694
f 595 695 594
f 696 597 598
f 599 697 598
f 598 697 696
f 698 697 599
f 698 599 592
f 699 698 592
f 694 699 592
f 699 694 695
f 699 695 700
f 700 695 595
f 600 700 595
f 701 700 600
f 702 600 601
f 702 701 600
f 703 601 602
f 703 702 601
f 705 704 604
f 704 602 604
f 704 703 602
f 705 706 704
f 707 607 696
f 696 607 597
f 697 709 708
f 707 697 708
f 696 697 707
f 709 697 698
f 608 705 604
f 711 710 610
f 610 710 608
f 710 706 608
f 706 705 608
f 711 712 710
f 713 613 707
f 707 613 607
f 707 708 714
f 707 714 713
f 615 711 610
f 716 715 617
f 617 715 615
f 715 712 615
f 712 711 615
f 716 717 715
f 718 619 713
f 713 619 613
f 713 714 719
f 720 713 719
f 718 713 720
f 721 720 719
f 622 722 716
f 622 716 617
f 717 716 723
f 723 716 722
f 718 623 619
f 623 718 625
f 625 718 720
f 725 724 626
f 725 626 625
f 721 725 625
f 720 721 625
f 726 724 725
f 629 727 630
f 727 728 630
f 630 728 622
f 728 729 622
f 729 722 622
f 722 729 723
f 724 631 626
f 726 730 724
f 730 631 724
f 730 632 631
f 632 731 633
f 730 731 632
f 633 732 634
f 731 732 633
f 634 733 635
f 732 733 634
f 635 734 636
f 733 734 635
f 629 636 727
f 636 735 727
f 636 734 735
f 727 735 728
f 736 641 642
f 643 737 642
f 642 737 736
f 644 738 643
f 643 738 737
f 645 739 644
f 644 739 738
f 646 739 645
f 741 740 648
f 648 740 647
f 648 641 736
f 742 648 736
f 741 648 742
f 742 736 737
f 742 737 743
f 743 737 738
f 743 738 744
f 746 745 744
f 738 746 744
f 739 746 738
f 649 746 646
f 646 746 739
f 748 747 652
f 652 747 651
f 749 652 653
f 749 748 652
f 653 647 740
f 653 740 749
f 745 746 750
f 745 750 751
f 654 750 649
f 649 750 746
f 754 753 752
f 656 657 752
f 657 754 752
f 657 755 754
f 657 651 747
f 657 747 755
f 751 750 659
f 660 751 659
f 756 751 660
f 659 750 654
f 759 758 757
f 759 757 753
f 753 757 752
f 757 662 752
f 662 663 752
f 752 663 656
f 762 761 760
f 761 756 760
f 756 664 760
f 756 660 664
f 765 764 763
f 765 763 758
f 758 763 757
f 763 666 757
f 666 667 757
f 757 667 662
f 768 767 766
f 766 767 762
f 766 762 760
f 670 766 760
f 669 670 760
f 669 760 664
f 763 764 673
f 764 672 673
f 764 769 672
f 763 673 666
f 771 770 676
f 771 676 677
f 766 678 768
f 678 770 768
f 678 676 770
f 678 766 670
f 769 680 672
f 772 680 769
f 774 773 687
f 774 687 686
f 677 687 771
f 771 687 773
f 772 775 680
f 680 775 688
f 775 777 776
f 689 775 776
f 688 775 689
f 778 690 689
f 778 689 776
f 779 691 690
f 779 690 778
f 691 779 780
f 781 691 780
f 692 691 781
f 692 782 693
f 781 782 692
f 686 693 774
f 774 693 782
f 777 783 776
f 776 783 778
f 778 783 784
f 778 784 779
f 779 784 785
f 779 785 780
f 786 698 699
f 786 699 787
f 699 788 787
f 699 700 788
f 789 700 701
f 789 788 700
f 790 701 702
f 790 789 701
f 791 702 703
f 791 790 702
f 792 703 704
f 792 791 703
f 794 793 706
f 793 704 706
f 793 792 704
f 794 795 793
f 796 708 709
f 698 786 709
f 786 796 709
f 786 797 796
f 786 787 798
f 786 798 797
f 710 794 706
f 710 712 794
f 712 795 794
f 712 799 795
f 800 714 796
f 796 714 708
f 801 796 797
f 800 796 801
f 797 798 802
f 797 802 801
f 712 715 803
f 804 712 803
f 799 712 804
f 717 803 715
f 800 719 714
f 719 800 721
f 800 805 721
f 800 801 805
f 801 802 806
f 801 806 805
f 804 803 807
f 804 807 808
f 723 807 717
f 717 807 803
f 805 725 721
f 810 809 726
f 810 726 725
f 806 810 725
f 805 806 725
f 811 809 810
f 808 807 729
f 728 808 729
f 812 808 728
f 729 807 723
f 809 730 726
f 811 813 809
f 813 730 809
f 813 731 730
f 731 814 732
f 813 814 731
f 732 815 733
f 814 815 732
f 815 817 816
f 734 815 816
f 733 815 734
f 818 735 734
f 818 734 816
f 818 819 735
f 819 728 735
f 819 812 728
f 817 820 816
f 816 820 818
f 818 820 821
f 818 821 819
f 822 740 741
f 742 823 741
f 741 823 822
f 743 824 742
f 742 824 823
f 744 825 743
f 743 825 824
f 745 825 744
f 827 826 748
f 748 826 747
f 828 748 749
f 828 827 748
f 749 740 822
f 829 749 822
f 828 749 829
f 829 822 823
f 829 823 830
f 830 823 824
f 830 824 831
f 833 832 831
f 824 833 831
f 825 833 824
f 751 833 745
f 745 833 825
f 835 834 754
f 754 834 753
f 836 754 755
f 836 835 754
f 755 747 826
f 755 826 836
f 832 833 837
f 832 837 838
f 756 837 751
f 751 837 833
f 841 840 839
f 758 759 839
f 759 841 839
f 759 842 841
f 759 753 834
f 759 834 842
f 845 844 843
f 843 844 838
f 843 838 837
f 762 843 837
f 761 762 837
f 761 837 756
f 839 840 765
f 840 764 765
f 840 846 764
f 839 765 758
f 845 843 767
f 768 845 767
f 847 845 768
f 767 843 762
f 846 769 764
f 848 769 846
f 850 849 770
f 850 770 771
f 768 770 847
f 847 770 849
f 852 772 851
f 772 848 851
f 772 769 848
f 853 852 851
f 855 854 773
f 855 773 774
f 771 773 850
f 850 773 854
f 852 775 772
f 777 775 852
f 853 777 852
f 856 777 853
f 858 857 781
f 858 781 780
f 781 859 782
f 857 859 781
f 774 782 855
f 855 782 859
f 783 777 860
f 777 861 860
f 777 856 861
f 783 860 862
f 863 783 862
f 784 783 863
f 784 864 785
f 863 864 784
f 780 785 858
f 858 785 864
f 861 865 860
f 860 865 862
f 866 787 788
f 789 867 788
f 788 867 866
f 867 789 868
f 789 869 868
f 789 790 869
f 870 790 791
f 870 869 790
f 871 791 792
f 871 870 791
f 872 792 793
f 872 871 792
f 793 795 872
f 872 795 873
f 874 798 866
f 866 798 787
f 867 876 875
f 874 867 875
f 866 867 874
f 876 867 868
f 799 878 877
f 873 799 877
f 795 799 873
f 878 879 877
f 880 802 874
f 874 802 798
f 874 875 881
f 874 881 880
f 804 882 878
f 804 878 799
f 879 878 883
f 883 878 882
f 884 806 880
f 880 806 802
f 880 881 885
f 880 885 884
f 808 886 882
f 808 882 804
f 883 882 887
f 887 882 886
f 884 810 806
f 889 888 811
f 889 811 810
f 885 889 810
f 884 885 810
f 890 888 889
f 812 891 886
f 812 886 808
f 887 886 892
f 892 886 891
f 888 813 811
f 890 893 888
f 893 813 888
f 893 814 813
f 814 894 815
f 893 894 814
f 817 815 894
f 817 894 895
f 897 896 891
f 812 897 891
f 819 897 812
f 891 896 892
f 895 898 817
f 817 898 820
f 820 899 821
f 898 899 820
f 819 821 897
f 897 821 899
f 900 826 827
f 828 901 827
f 827 901 900
f 829 902 828
f 828 902 901
f 830 903 829
f 829 903 902
f 831 904 830
f 830 904 903
f 832 904 831
f 905 834 835
f 905 835 906
f 835 907 906
f 835 836 907
f 836 826 900
f 908 836 900
f 907 836 908
f 908 900 901
f 908 901 909
f 909 901 902
f 909 902 910
f 912 911 910
f 902 912 910
f 903 912 902
f 913 903 904
f 912 903 913
f 838 913 832
f 832 913 904
f 915 914 841
f 841 914 840
f 916 841 842
f 916 915 841
f 842 834 905
f 917 842 905
f 916 842 917
f 917 905 906
f 911 912 918
f 911 918 919
f 845 918 844
f 918 913 844
f 918 912 913
f 844 913 838
f 914 846 840
f 920 846 914
f 923 922 921
f 921 922 919
f 918 921 919
f 924 921 918
f 847 924 845
f 845 924 918
f 926 848 925
f 848 920 925
f 848 846 920
f 927 926 925
f 923 921 928
f 923 928 929
f 850 928 849
f 928 924 849
f 928 921 924
f 849 924 847
f 926 851 848
f 853 851 926
f 927 853 926
f 930 853 927
f 933 932 931
f 931 932 929
f 931 929 928
f 855 931 928
f 854 855 928
f 854 928 850
f 930 856 853
f 934 856 930
f 936 935 857
f 936 857 858
f 931 859 933
f 859 935 933
f 859 857 935
f 859 931 855
f 938 861 937
f 861 934 937
f 861 856 934
f 863 862 938
f 937 863 938
f 939 863 937
f 863 940 864
f 939 940 863
f 858 864 936
f 936 864 940
f 938 865 861
f 865 938 862
f 941 868 869
f 870 942 869
f 869 942 941
f 942 870 943
f 870 944 943
f 870 871 944
f 945 871 872
f 945 944 871
f 872 873 945
f 945 873 946
f 947 875 876
f 868 941 876
f 941 947 876
f 941 948 947
f 942 950 949
f 948 942 949
f 941 942 948
f 950 942 943
f 951 946 873
f 951 873 877
f 877 879 951
f 951 879 952
f 953 881 947
f 947 881 875
f 954 947 948
f 953 947 954
f 948 949 955
f 948 955 954
f 883 952 879
f 883 956 952
f 957 885 953
f 953 885 881
f 958 953 954
f 957 953 958
f 954 955 959
f 954 959 958
f 887 956 883
f 887 960 956
f 957 889 885
f 889 957 890
f 957 961 890
f 957 958 961
f 958 959 962
f 958 962 961
f 892 960 887
f 892 963 960
f 961 893 890
f 962 964 961
f 964 893 961
f 964 894 893
f 966 965 895
f 894 966 895
f 964 966 894
f 967 965 966
f 897 968 896
f 968 969 896
f 969 892 896
f 969 963 892
f 965 898 895
f 967 970 965
f 970 898 965
f 970 899 898
f 897 899 968
f 899 971 968
f 899 970 971
f 968 971 969
f 972 906 907
f 908 973 907
f 907 973 972
f 909 974 908
f 908 974 973
f 910 975 909
f 909 975 974
f 911 975 910
f 976 914 915
f 976 915 977
f 915 978 977
f 915 916 978
f 979 916 917
f 979 978 916
f 917 906 972
f 980 917 972
f 979 917 980
f 982 981 980
f 972 982 980
f 973 982 972
f 983 973 974
f 982 973 983
f 984 974 975
f 983 974 984
f 919 984 911
f 911 984 975
f 985 920 976
f 976 920 914
f 976 977 986
f 976 986 985
f 987 981 982
f 989 988 987
f 982 989 987
f 983 989 982
f 923 989 922
f 989 984 922
f 989 983 984
f 922 984 919
f 985 925 920
f 927 925 985
f 986 927 985
f 990 927 986
f 993 992 991
f 991 992 988
f 989 991 988
f 994 991 989
f 929 994 923
f 923 994 989
f 990 930 927
f 995 930 990
f 993 991 996
f 993 996 997
f 933 996 932
f 996 994 932
f 996 991 994
f 932 994 929
f 995 934 930
f 998 934 995
f 1001 1000 999
f 999 1000 997
f 999 997 996
f 936 999 996
f 935 936 996
f 935 996 933
f 998 1002 934
f 934 1002 937
f 937 1003 939
f 1002 1003 937
f 999 940 1001
f 940 1003 1001
f 940 939 1003
f 940 999 936
f 1004 943 944
f 1004 944 1005
f 944 1006 1005
f 944 945 1006
f 945 946 1006
f 1006 946 1007
f 1008 949 950
f 1009 1008 950
f 1009 950 943
f 1010 1009 943
f 1004 1010 943
f 1010 1004 1005
f 1011 1007 946
f 1011 946 951
f 951 952 1011
f 1011 952 1012
f 1013 955 1008
f 1008 955 949
f 1008 1009 1014
f 1008 1014 1013
f 956 1012 952
f 956 1015 1012
f 1016 959 1013
f 1013 959 955
f 1013 1014 1017
f 1013 1017 1016
f 960 1015 956
f 960 1018 1015
f 1019 962 1016
f 1016 962 959
f 1016 1017 1020
f 1016 1020 1019
f 963 1018 960
f 963 1021 1018
f 1019 964 962
f 1020 1022 1019
f 1022 964 1019
f 1022 966 964
f 967 966 1022
f 967 1022 1023
f 969 1021 963
f 969 1024 1021
f 1023 1025 967
f 967 1025 970
f 970 1026 971
f 1025 1026 970
f 969 971 1024
f 1024 971 1026
f 1027 977 978
f 979 1028 978
f 978 1028 1027
f 980 1029 979
f 979 1029 1028
f 981 1029 980
f 1030 986 1027
f 1027 986 977
f 1031 1027 1028
f 1030 1027 1031
f 1032 1028 1029
f 1031 1028 1032
f 987 1033 981
f 1033 1029 981
f 1033 1032 1029
f 988 1033 987
f 1035 1034 1030
f 1034 986 1030
f 1034 990 986
f 1037 1036 1035
f 1030 1037 1035
f 1031 1037 1030
f 1038 1031 1032
f 1037 1031 1038
f 993 1038 992
f 1038 1033 992
f 1038 1032 1033
f 992 1033 988
f 1034 995 990
f 1039 995 1034
f 1036 1037 1040
f 1036 1040 1041
f 1042 1037 1038
f 1040 1037 1042
f 997 1042 993
f 993 1042 1038
f 1044 998 1043
f 998 1039 1043
f 998 995 1039
f 1044 1043 1041
f 1040 1044 1041
f 1045 1044 1040
f 1001 1045 1000
f 1045 1042 1000
f 1045 1040 1042
f 1000 1042 997
f 1044 1002 998
f 1002 1044 1003
f 1003 1044 1045
f 1003 1045 1001
f 1047 1046 1006
f 1006 1046 1005
f 1006 1007 1047
f 1047 1007 1048
f 1050 1049 1010
f 1010 1049 1009
f 1010 1005 1046
f 1010 1046 1050
f 1051 1048 1007
f 1051 1007 1011
f 1011 1012 1051
f 1051 1012 1052
f 1049 1014 1009
f 1053 1014 1049
f 1015 1052 1012
f 1015 1054 1052
f 1053 1017 1014
f 1055 1017 1053
f 1018 1054 1015
f 1018 1056 1054
f 1055 1020 1017
f 1057 1020 1055
f 1021 1056 1018
f 1021 1058 1056
f 1057 1059 1020
f 1020 1059 1022
f 1023 1022 1059
f 1023 1059 1060
f 1024 1058 1021
f 1024 1061 1058
f 1060 1062 1023
f 1023 1062 1025
f 1025 1063 1026
f 1062 1063 1025
f 1024 1026 1061
f 1061 1026 1063
f 1064 1034 1035
f 1036 1064 1035
f 1065 1039 1064
f 1064 1039 1034
f 1041 1065 1036
f 1036 1065 1064
f 1065 1043 1039
f 1043 1065 1041
f 1066 1046 1047
f 1048 1066 1047
f 1068 1067 1050
f 1050 1067 1049
f 1050 1046 1066
f 1069 1050 1066
f 1068 1050 1069
f 1069 1066 1048
f 1051 1069 1048
f 1070 1069 1051
f 1051 1052 1070
f 1070 1052 1071
f 1067 1053 1049
f 1072 1053 1067
f 1054 1074 1073
f 1071 1054 1073
f 1052 1054 1071
f 1074 1075 1073
f 1072 1055 1053
f 1076 1055 1072
f 1056 1077 1074
f 1056 1074 1054
f 1075 1074 1078
f 1078 1074 1077
f 1076 1057 1055
f 1079 1057 1076
f 1081 1080 1077
f 1056 1081 1077
f 1058 1081 1056
f 1077 1080 1078
f 1079 1082 1057
f 1057 1082 1059
f 1060 1059 1082
f 1060 1082 1083
f 1061 1081 1058
f 1061 1084 1081
f 1083 1085 1060
f 1060 1085 1062
f 1062 1086 1063
f 1085 1086 1062
f 1061 1063 1084
f 1084 1063 1086
f 1087 1067 1068
f 1087 1068 1088
f 1068 1089 1088
f 1068 1069 1089
f 1090 1069 1070
f 1090 1089 1069
f 1070 1071 1090
f 1090 1071 1091
f 1093 1092 1087
f 1092 1067 1087
f 1092 1072 1067
f 1093 1087 1088
f 1094 1091 1071
f 1094 1071 1073
f 1073 1075 1094
f 1094 1075 1095
f 1092 1076 1072
f 1096 1076 1092
f 1078 1095 1075
f 1078 1097 1095
f 1096 1079 1076
f 1098 1079 1096
f 1081 1099 1080
f 1099 1100 1080
f 1100 1078 1080
f 1100 1097 1078
f 1098 1101 1079
f 1079 1101 1082
f 1083 1082 1101
f 1083 1101 1102
f 1104 1103 1099
f 1081 1104 1099
f 1084 1104 1081
f 1099 1103 1100
f 1102 1105 1083
f 1083 1105 1085
f 1085 1106 1086
f 1105 1106 1085
f 1084 1086 1104
f 1104 1086 1106
f 1108 1107 1089
f 1089 1107 1088
f 1109 1089 1090
f 1109 1108 1089
f 1090 1091 1109
f 1109 1091 1110
f 1112 1111 1093
f 1093 1111 1092
f 1093 1088 1107
f 1093 1107 1112
f 1113 1110 1091
f 1113 1091 1094
f 1094 1095 1113
f 1113 1095 1114
f 1111 1096 1092
f 1115 1096 1111
f 1097 1114 1095
f 1097 1116 1114
f 1115 1098 1096
f 1117 1098 1115
f 1100 1116 1097
f 1100 1118 1116
f 1117 1119 1098
f 1098 1119 1101
f 1102 1101 1119
f 1102 1119 1120
f 1122 1121 1103
f 1122 1103 1104
f 1100 1103 1118
f 1118 1103 1121
f 1120 1123 1102
f 1102 1123 1105
f 1105 1124 1106
f 1123 1124 1105
f 1104 1106 1122
f 1122 1106 1124
f 1126 1125 1108
f 1108 1125 1107
f 1127 1108 1109
f 1127 1126 1108
f 1109 1110 1127
f 1127 1110 1128
f 1130 1129 1112
f 1112 1129 1111
f 1112 1107 1125
f 1112 1125 1130
f 1131 1128 1110
f 1131 1110 1113
f 1113 1114 1131
f 1131 1114 1132
f 1129 1115 1111
f 1133 1115 1129
f 1116 1132 1114
f 1116 1134 1132
f 1133 1117 1115
f 1135 1117 1133
f 1118 1134 1116
f 1118 1136 1134
f 1135 1137 1117
f 1117 1137 1119
f 1120 1119 1137
f 1120 1137 1138
f 1140 1139 1121
f 1140 1121 1122
f 1118 1121 1136
f 1136 1121 1139
f 1138 1141 1120
f 1120 1141 1123
f 1123 1142 1124
f 1141 1142 1123
f 1122 1124 1140
f 1140 1124 1142
f 1144 1143 1126
f 1126 1143 1125
f 1145 1126 1127
f 1145 1144 1126
f 1127 1128 1145
f 1145 1128 1146
f 1148 1147 1130
f 1130 1147 1129
f 1130 1125 1143
f 1130 1143 1148
f 1149 1146 1128
f 1149 1128 1131
f 1131 1132 1149
f 1149 1132 1150
f 1147 1133 1129
f 1151 1133 1147
f 1134 1150 1132
f 1134 1152 1150
f 1151 1135 1133
f 1153 1135 1151
f 1136 1152 1134
f 1136 1154 1152
f 1153 1155 1135
f 1135 1155 1137
f 1138 1137 1155
f 1138 1155 1156
f 1140 1157 1139
f 1157 1158 1139
f 1158 1136 1139
f 1158 1154 1136
f 1156 1159 1138
f 1138 1159 1141
f 1141 1160 1142
f 1159 1160 1141
f 1140 1142 1157
f 1142 1161 1157
f 1142 1160 1161
f 1157 1161 1158
f 1163 1162 1144
f 1144 1162 1143
f 1164 1144 1145
f 1164 1163 1144
f 1145 1146 1164
f 1164 1146 1165
f 1166 1147 1148
f 1167 1166 1148
f 1143 1167 1148
f 1162 1167 1143
f 1168 1165 1146
f 1168 1146 1149
f 1149 1150 1168
f 1168 1150 1169
f 1171 1170 1166
f 1170 1147 1166
f 1170 1151 1147
f 1171 1166 1167
f 1152 1169 1150
f 1152 1172 1169
f 1174 1153 1173
f 1153 1170 1173
f 1153 1151 1170
f 1175 1174 1173
f 1154 1172 1152
f 1154 1176 1172
f 1174 1155 1153
f 1156 1155 1174
f 1175 1156 1174
f 1177 1156 1175
f 1158 1176 1154
f 1158 1178 1176
f 1177 1179 1156
f 1156 1179 1159
f 1159 1180 1160
f 1179 1180 1159
f 1160 1181 1161
f 1180 1181 1160
f 1158 1161 1178
f 1178 1161 1181
f 1183 1182 1163
f 1163 1182 1162
f 1184 1163 1164
f 1184 1183 1163
f 1164 1165 1184
f 1184 1165 1185
f 1182 1167 1162
f 1186 1167 1182
f 1187 1185 1165
f 1187 1165 1168
f 1168 1169 1187
f 1187 1169 1188
f 1189 1170 1171
f 1190 1189 1171
f 1167 1190 1171
f 1186 1190 1167
f 1172 1188 1169
f 1172 1191 1188
f 1189 1173 1170
f 1175 1173 1189
f 1190 1175 1189
f 1192 1175 1190
f 1176 1191 1172
f 1176 1193 1191
f 1192 1177 1175
f 1194 1177 1192
f 1178 1193 1176
f 1178 1195 1193
f 1194 1196 1177
f 1177 1196 1179
f 1196 1198 1197
f 1180 1196 1197
f 1179 1196 1180
f 1180 1197 1199
f 1200 1180 1199
f 1181 1180 1200
f 1178 1181 1195
f 1195 1181 1200
f 1198 1201 1197
f 1197 1201 1199
f 1203 1202 1183
f 1183 1202 1182
f 1204 1183 1184
f 1204 1203 1183
f 1184 1185 1204
f 1204 1185 1205
f 1202 1186 1182
f 1206 1186 1202
f 1207 1205 1185
f 1207 1185 1187
f 1187 1188 1207
f 1207 1188 1208
f 1206 1190 1186
f 1209 1190 1206
f 1191 1208 1188
f 1191 1210 1208
f 1209 1192 1190
f 1211 1192 1209
f 1193 1210 1191
f 1193 1212 1210
f 1211 1194 1192
f 1213 1194 1211
f 1195 1212 1193
f 1195 1214 1212
f 1213 1215 1194
f 1194 1215 1196
f 1198 1196 1215
f 1198 1215 1216
f 1218 1217 1200
f 1218 1200 1199
f 1195 1200 1214
f 1214 1200 1217
f 1216 1219 1198
f 1198 1219 1201
f 1199 1201 1218
f 1218 1201 1219
f 1221 1220 1203
f 1203 1220 1202
f 1222 1203 1204
f 1222 1221 1203
f 1204 1205 1222
f 1222 1205 1223
f 1220 1206 1202
f 1224 1206 1220
f 1225 1223 1205
f 1225 1205 1207
f 1207 1208 1225
f 1225 1208 1226
f 1224 1209 1206
f 1227 1209 1224
f 1210 1226 1208
f 1210 1228 1226
f 1227 1211 1209
f 1229 1211 1227
f 1212 1228 1210
f 1212 1230 1228
f 1229 1213 1211
f 1231 1213 1229
f 1214 1230 1212
f 1214 1232 1230
f 1231 1233 1213
f 1213 1233 1215
f 1216 1215 1233
f 1216 1233 1234
f 1236 1235 1217
f 1236 1217 1218
f 1214 1217 1232
f 1232 1217 1235
f 1234 1237 1216
f 1216 1237 1219
f 1218 1219 1236
f 1236 1219 1237
f 1238 1220 1221
f 1238 1221 1239
f 1221 1240 1239
f 1221 1222 1240
f 1222 1223 1240
f 1240 1223 1241
f 1243 1242 1238
f 1242 1220 1238
f 1242 1224 1220
f 1243 1238 1239
f 1244 1241 1223
f 1244 1223 1225
f 1225 1226 1244
f 1244 1226 1245
f 1242 1227 1224
f 1246 1227 1242
f 1228 1245 1226
f 1228 1247 1245
f 1246 1229 1227
f 1248 1229 1246
f 1230 1247 1228
f 1230 1249 1247
f 1248 1231 1229
f 1250 1231 1248
f 1232 1249 1230
f 1232 1251 1249
f 1250 1252 1231
f 1231 1252 1233
f 1234 1233 1252
f 1234 1252 1253
f 1236 1254 1235
f 1254 1255 1235
f 1255 1232 1235
f 1255 1251 1232
f 1253 1256 1234
f 1234 1256 1237
f 1236 1237 1254
f 1237 1257 1254
f 1237 1256 1257
f 1254 1257 1255
f 1259 1258 1240
f 1240 1258 1239
f 1240 1241 1259
f 1259 1241 1260
f 1262 1261 1243
f 1243 1261 1242
f 1243 1239 1258
f 1243 1258 1262
f 1263 1260 1241
f 1263 1241 1244
f 1244 1245 1263
f 1263 1245 1264
f 1261 1246 1242
f 1265 1246 1261
f 1247 1264 1245
f 1247 1266 1264
f 1265 1248 1246
f 1267 1248 1265
f 1249 1266 1247
f 1249 1268 1266
f 1267 1250 1248
f 1269 1250 1267
f 1251 1268 1249
f 1251 1270 1268
f 1269 1271 1250
f 1250 1271 1252
f 1253 1252 1271
f 1253 1271 1272
f 1255 1270 1251
f 1255 1273 1270
f 1272 1274 1253
f 1253 1274 1256
f 1256 1275 1257
f 1274 1275 1256
f 1255 1257 1273
f 1273 1257 1275
f 1277 1276 1259
f 1259 1276 1258
f 1259 1260 1277
f 1277 1260 1278
f 1280 1279 1262
f 1262 1279 1261
f 1262 1258 1276
f 1262 1276 1280
f 1281 1278 1260
f 1281 1260 1263
f 1263 1264 1281
f 1281 1264 1282
f 1279 1265 1261
f 1283 1265 1279
f 1266 1282 1264
f 1266 1284 1282
f 1283 1267 1265
f 1285 1267 1283
f 1268 1284 1266
f 1268 1286 1284
f 1285 1269 1267
f 1287 1269 1285
f 1270 1286 1268
f 1270 1288 1286
f 1287 1289 1269
f 1269 1289 1271
f 1272 1271 1289
f 1272 1289 1290
f 1273 1288 1270
f 1273 1291 1288
f 1290 1292 1272
f 1272 1292 1274
f 1274 1293 1275
f 1292 1293 1274
f 1273 1275 1291
f 1291 1275 1293
f 1294 1276 1277
f 1278 1294 1277
f 1296 1295 1280
f 1280 1295 1279
f 1280 1276 1294
f 1297 1280 1294
f 1296 1280 1297
f 1297 1294 1278
f 1281 1297 1278
f 1298 1297 1281
f 1281 1282 1298
f 1298 1282 1299
f 1295 1283 1279
f 1300 1283 1295
f 1284 1299 1282
f 1284 1301 1299
f 1300 1285 1283
f 1302 1285 1300
f 1286 1304 1303
f 1301 1286 1303
f 1284 1286 1301
f 1304 1305 1303
f 1302 1287 1285
f 1306 1287 1302
f 1308 1307 1304
f 1286 1308 1304
f 1288 1308 1286
f 1304 1307 1305
f 1306 1309 1287
f 1287 1309 1289
f 1290 1289 1309
f 1290 1309 1310
f 1291 1308 1288
f 1291 1311 1308
f 1310 1312 1290
f 1290 1312 1292
f 1292 1313 1293
f 1312 1313 1292
f 1291 1293 1311
f 1311 1293 1313
f 1315 1314 1296
f 1296 1314 1295
f 1316 1296 1297
f 1316 1315 1296
f 1317 1297 1298
f 1317 1316 1297
f 1298 1299 1317
f 1317 1299 1318
f 1314 1300 1295
f 1319 1300 1314
f 1301 1321 1320
f 1318 1301 1320
f 1299 1301 1318
f 1321 1322 1320
f 1319 1302 1300
f 1323 1302 1319
f 1303 1321 1301
f 1303 1305 1321
f 1305 1322 1321
f 1305 1324 1322
f 1323 1306 1302
f 1325 1306 1323
f 1308 1326 1307
f 1326 1327 1307
f 1327 1305 1307
f 1327 1324 1305
f 1325 1328 1306
f 1306 1328 1309
f 1310 1309 1328
f 1310 1328 1329
f 1331 1330 1326
f 1308 1331 1326
f 1311 1331 1308
f 1326 1330 1327
f 1329 1332 1310
f 1310 1332 1312
f 1312 1333 1313
f 1332 1333 1312
f 1311 1313 1331
f 1331 1313 1333
f 1334 1314 1315
f 1334 1315 1335
f 1315 1336 1335
f 1315 1316 1336
f 1337 1316 1317
f 1337 1336 1316
f 1317 1318 1337
f 1337 1318 1338
f 1340 1339 1334
f 1339 1314 1334
f 1339 1319 1314
f 1340 1334 1335
f 1341 1338 1318
f 1341 1318 1320
f 1320 1322 1341
f 1341 1322 1342
f 1339 1323 1319
f 1343 1323 1339
f 1324 1342 1322
f 1324 1344 1342
f 1343 1325 1323
f 1345 1325 1343
f 1327 1344 1324
f 1327 1346 1344
f 1345 1347 1325
f 1325 1347 1328
f 1329 1328 1347
f 1329 1347 1348
f 1350 1349 1330
f 1350 1330 1331
f 1327 1330 1346
f 1346 1330 1349
f 1348 1351 1329
f 1329 1351 1332
f 1332 1352 1333
f 1351 1352 1332
f 1331 1333 1350
f 1350 1333 1352
f 1354 1353 1336
f 1336 1353 1335
f 1355 1336 1337
f 1355 1354 1336
f 1337 1338 1355
f 1355 1338 1356
f 1358 1357 1340
f 1340 1357 1339
f 1340 1335 1353
f 1340 1353 1358
f 1359 1356 1338
f 1359 1338 1341
f 1341 1342 1359
f 1359 1342 1360
f 1357 1343 1339
f 1361 1343 1357
f 1344 1360 1342
f 1344 1362 1360
f 1361 1345 1343
f 1363 1345 1361
f 1346 1362 1344
f 1346 1364 1362
f 1363 1365 1345
f 1345 1365 1347
f 1348 1347 1365
f 1348 1365 1366
f 1368 1367 1349
f 1368 1349 1350
f 1346 1349 1364
f 1364 1349 1367
f 1366 1369 1348
f 1348 1369 1351
f 1351 1370 1352
f 1369 1370 1351
f 1350 1352 1368
f 1368 1352 1370
f 1372 1371 1354
f 1354 1371 1353
f 1373 1354 1355
f 1373 1372 1354
f 1355 1356 1373
f 1373 1356 1374
f 1376 1375 1358
f 1358 1375 1357
f 1358 1353 1371
f 1358 1371 1376
f 1377 1374 1356
f 1377 1356 1359
f 1359 1360 1377
f 1377 1360 1378
f 1375 1361 1357
f 1379 1361 1375
f 1362 1378 1360
f 1362 1380 1378
f 1379 1363 1361
f 1381 1363 1379
f 1364 1380 1362
f 1364 1382 1380
f 1381 1383 1363
f 1363 1383 1365
f 1366 1365 1383
f 1366 1383 1384
f 1386 1385 1367
f 1386 1367 1368
f 1364 1367 1382
f 1382 1367 1385
f 1384 1387 1366
f 1366 1387 1369
f 1369 1388 1370
f 1387 1388 1369
f 1368 1370 1386
f 1386 1370 1388
f 1390 1389 1372
f 1372 1389 1371
f 1391 1372 1373
f 1391 1390 1372
f 1373 1374 1391
f 1391 1374 1392
f 1393 1375 1376
f 1394 1393 1376
f 1371 1394 1376
f 1389 1394 1371
f 1395 1392 1374
f 1395 1374 1377
f 1377 1378 1395
f 1395 1378 1396
f 1398 1397 1393
f 1397 1375 1393
f 1397 1379 1375
f 1398 1393 1394
f 1380 1396 1378
f 1380 1399 1396
f 1397 1381 1379
f 1400 1381 1397
f 1382 1399 1380
f 1382 1401 1399
f 1400 1402 1381
f 1381 1402 1383
f 1384 1383 1402
f 1384 1402 1403
f 1386 1404 1385
f 1404 1405 1385
f 1405 1382 1385
f 1405 1401 1382
f 1403 1406 1384
f 1384 1406 1387
f 1387 1407 1388
f 1406 1407 1387
f 1386 1388 1404
f 1388 1408 1404
f 1388 1407 1408
f 1404 1408 1405
f 1410 1409 1390
f 1390 1409 1389
f 1411 1390 1391
f 1411 1410 1390
f 1391 1392 1411
f 1411 1392 1412
f 1409 1394 1389
f 1413 1394 1409
f 1414 1412 1392
f 1414 1392 1395
f 1395 1396 1414
f 1414 1396 1415
f 1416 1397 1398
f 1417 1416 1398
f 1394 1417 1398
f 1413 1417 1394
f 1399 1415 1396
f 1399 1418 1415
f 1419 1400 1416
f 1416 1400 1397
f 1416 1417 1420
f 1416 1420 1419
f 1401 1418 1399
f 1401 1421 1418
f 1419 1402 1400
f 1403 1402 1419
f 1420 1403 1419
f 1422 1403 1420
f 1405 1421 1401
f 1405 1423 1421
f 1422 1424 1403
f 1403 1424 1406
f 1424 1426 1425
f 1407 1424 1425
f 1406 1424 1407
f 1407 1425 1427
f 1428 1407 1427
f 1408 1407 1428
f 1405 1408 1423
f 1423 1408 1428
f 1426 1429 1425
f 1425 1429 1427
f 1431 1430 1410
f 1410 1430 1409
f 1432 1410 1411
f 1432 1431 1410
f 1411 1412 1432
f 1432 1412 1433
f 1430 1413 1409
f 1434 1413 1430
f 1435 1433 1412
f 1435 1412 1414
f 1414 1415 1435
f 1435 1415 1436
f 1434 1417 1413
f 1437 1417 1434
f 1418 1436 1415
f 1418 1438 1436
f 1437 1420 1417
f 1439 1420 1437
f 1421 1438 1418
f 1421 1440 1438
f 1439 1422 1420
f 1441 1422 1439
f 1423 1440 1421
f 1423 1442 1440
f 1441 1443 1422
f 1422 1443 1424
f 1426 1424 1443
f 1426 1443 1444
f 1446 1445 1428
f 1446 1428 1427
f 1423 1428 1442
f 1442 1428 1445
f 1444 1447 1426
f 1426 1447 1429
f 1427 1429 1446
f 1446 1429 1447
f 1449 1448 1431
f 1431 1448 1430
f 1450 1431 1432
f 1450 1449 1431
f 1432 1433 1450
f 1450 1433 1451
f 1448 1434 1430
f 1452 1434 1448
f 1453 1451 1433
f 1453 1433 1435
f 1435 1436 1453
f 1453 1436 1454
f 1452 1437 1434
f 1455 1437 1452
f 1438 1454 1436
f 1438 1456 1454
f 1455 1439 1437
f 1457 1439 1455
f 1440 1456 1438
f 1440 1458 1456
f 1457 1441 1439
f 1459 1441 1457
f 1442 1458 1440
f 1442 1460 1458
f 1459 1461 1441
f 1441 1461 1443
f 1444 1443 1461
f 1444 1461 1462
f 1464 1463 1445
f 1464 1445 1446
f 1442 1445 1460
f 1460 1445 1463
f 1462 1465 1444
f 1444 1465 1447
f 1446 1447 1464
f 1464 1447 1465
f 1466 1448 1449
f 1466 1449 1467
f 1449 1468 1467
f 1449 1450 1468
f 1450 1451 1468
f 1468 1451 1469
f 1471 1470 1466
f 1470 1448 1466
f 1470 1452 1448
f 1471 1466 1467
f 1472 1469 1451
f 1472 1451 1453
f 1453 1454 1472
f 1472 1454 1473
f 1470 1455 1452
f 1474 1455 1470
f 1456 1473 1454
f 1456 1475 1473
f 1474 1457 1455
f 1476 1457 1474
f 1458 1475 1456
f 1458 1477 1475
f 1476 1459 1457
f 1478 1459 1476
f 1460 1477 1458
f 1460 1479 1477
f 1478 1480 1459
f 1459 1480 1461
f 1462 1461 1480
f 1462 1480 1481
f 1483 1482 1463
f 1483 1463 1464
f 1460 1463 1479
f 1479 1463 1482
f 1481 1484 1462
f 1462 1484 1465
f 1464 1465 1483
f 1483 1465 1484
f 1485 1467 1468
f 1469 1485 1468
f 1486 1470 1471
f 1467 1485 1471
f 1485 1486 1471
f 1485 1487 1486
f 1472 1488 1469
f 1488 1485 1469
f 1488 1487 1485
f 1473 1488 1472
f 1489 1474 1486
f 1486 1474 1470
f 1490 1486 1487
f 1489 1486 1490
f 1491 1487 1488
f 1490 1487 1491
f 1475 1491 1473
f 1473 1491 1488
f 1492 1476 1489
f 1489 1476 1474
f 1493 1489 1490
f 1492 1489 1493
f 1494 1490 1491
f 1493 1490 1494
f 1477 1494 1475
f 1475 1494 1491
f 1495 1478 1492
f 1492 1478 1476
f 1496 1492 1493
f 1495 1492 1496
f 1497 1493 1494
f 1496 1493 1497
f 1479 1497 1477
f 1477 1497 1494
f 1495 1480 1478
f 1480 1495 1481
f 1495 1498 1481
f 1495 1496 1498
f 1483 1498 1482
f 1498 1497 1482
f 1498 1496 1497
f 1482 1497 1479
f 1498 1484 1481
f 1484 1498 1483
# 2992 faces, 0 coords texture

# End of File