####
#
# OBJ File Generated by Meshlab
#
####
# Object domain0630.obj
#
# Vertices: 1014
# Faces: 2024
#
####
v 73.285530 59.913509 132.075775
v 73.441444 59.962654 131.831833
v 73.392197 59.809399 132.075165
v 73.384010 59.789833 132.946960
v 73.243683 59.916084 132.962677
v 73.357765 59.954533 133.405914
v 73.174698 60.374531 132.064743
v 73.396873 60.370354 131.679901
v 73.102898 60.379951 132.991928
v 73.360580 60.238190 133.873032
v 73.264992 60.444569 133.895248
v 73.459221 60.529621 134.129150
v 73.146606 60.943333 132.053467
v 73.401581 60.944450 131.554291
v 73.063385 60.939041 132.993942
v 73.245705 60.877590 133.901169
v 73.476669 60.853813 134.177124
v 73.175545 61.513222 132.060089
v 73.391556 61.511177 131.683029
v 73.115562 61.498684 132.983215
v 73.245804 61.539066 133.518539
v 73.324585 61.207855 133.952744
v 73.282013 61.980873 132.075745
v 73.444527 61.926182 131.817657
v 73.245392 62.015331 132.946716
v 73.414452 62.030056 133.408722
v 73.394714 62.120754 132.085648
v 73.403862 62.295456 132.957260
v 73.849121 59.908981 131.670441
v 73.853683 59.702118 132.060165
v 73.850456 59.679939 132.959793
v 73.843620 59.843689 133.464584
v 73.781601 60.303261 131.361816
v 73.844208 60.145561 133.936417
v 73.851479 60.507412 134.230072
v 73.746292 60.943935 131.147385
v 74.106827 60.943527 130.886215
v 73.892250 60.682095 131.066071
v 73.867836 60.944221 134.341644
v 73.891434 61.206333 131.066376
v 73.775505 61.591724 131.363846
v 73.517647 61.538479 133.997772
v 73.918457 61.475613 134.270340
v 73.854630 62.007870 131.661148
v 73.702744 62.022305 133.886414
v 73.999733 61.923790 134.145325
v 73.831520 62.326683 132.078018
v 73.666862 62.536652 132.993622
v 73.888168 62.539814 132.570587
v 73.919273 62.482391 133.384384
v 73.919136 62.208763 133.861389
v 73.931206 62.631870 132.993591
v 74.404572 59.853958 131.524658
v 74.425964 59.648434 132.038818
v 74.422722 59.644005 132.963348
v 74.421089 59.825191 133.473129
v 74.156548 60.392914 131.045425
v 74.529083 60.544918 130.796814
v 74.472336 60.173351 131.077484
v 74.415657 60.137440 133.942719
v 74.410675 60.501289 134.252243
v 74.482521 60.943707 130.716751
v 74.419960 60.956673 134.384003
v 74.157318 61.493984 131.046860
v 74.531754 61.340279 130.801880
v 74.420845 61.500668 134.351334
v 74.469879 61.716419 131.076019
v 74.407532 62.060471 131.514496
v 74.335701 61.909027 134.187775
v 74.446075 62.375519 132.044495
v 74.374275 62.549091 132.568039
v 74.369370 62.235489 133.882935
v 74.358200 62.505367 133.398865
v 74.329971 62.639206 132.997375
v 74.987022 59.742615 131.474152
v 75.030899 59.587399 132.014069
v 75.006943 59.647270 132.958511
v 75.027016 59.869968 133.464996
v 75.052940 60.434879 130.709900
v 74.994804 60.031155 130.994919
v 74.956818 60.195393 133.904404
v 74.904686 60.552586 134.199783
v 75.016342 60.942627 130.616013
v 74.971916 60.962433 134.326050
v 75.056847 61.451122 130.712234
v 74.955048 61.447865 134.267105
v 74.993561 61.855183 130.997818
v 74.984840 62.157528 131.467667
v 74.697594 62.081982 133.969208
v 75.023987 61.863064 134.009384
v 75.041763 62.195339 133.546967
v 75.027710 62.332382 132.008606
v 74.637039 62.574211 133.000580
v 75.022163 62.444176 132.976929
v 75.325981 59.828663 131.040161
v 75.690582 59.981831 130.798431
v 75.666084 59.721924 131.085403
v 75.600395 59.506611 132.003738
v 75.592834 59.641399 132.946335
v 75.588028 59.883026 133.344406
v 75.606827 60.382671 130.609497
v 75.278252 60.389709 133.959396
v 75.687691 60.271755 133.681152
v 75.595543 60.945137 130.539856
v 75.564667 60.672565 133.962112
v 75.389725 61.038574 134.182968
v 75.607635 61.504181 130.616837
v 75.408882 61.370094 134.149307
v 75.328674 62.048557 131.043945
v 75.692940 61.902515 130.802063
v 75.524864 61.693687 133.897034
v 75.611946 62.039799 133.480698
v 75.667801 62.141659 131.095703
v 75.598518 62.346603 132.004379
v 75.583519 62.293522 132.962082
v 76.194504 59.910439 130.725555
v 76.201256 59.611233 131.053680
v 76.146706 59.372433 131.999084
v 76.184265 59.617115 132.940933
v 76.174942 59.907333 133.292374
v 76.186516 60.363960 130.530365
v 76.187363 60.350849 133.534821
v 76.176437 60.944195 130.467926
v 75.786827 60.980194 133.921051
v 76.236732 60.911213 133.666183
v 76.183746 61.518154 130.559174
v 75.764854 61.474792 133.893173
v 76.201424 61.544922 133.598175
v 76.193932 61.948223 130.762772
v 76.157524 61.980602 133.311249
v 76.193733 62.195251 131.071884
v 76.180008 62.335346 132.000000
v 76.165634 62.216045 132.937439
v 76.522888 59.258236 131.998795
v 76.788261 59.243671 131.512711
v 76.868248 59.173393 131.985672
v 76.810272 59.307556 132.443924
v 76.783203 59.802933 130.605255
v 76.733490 59.427017 131.001862
v 76.744759 59.533703 132.933334
v 76.765938 59.905643 133.267624
v 76.721252 60.333054 130.365631
v 76.763741 60.365112 133.461716
v 76.717102 60.979694 130.341003
v 76.767319 60.943676 133.517029
v 76.764587 61.532024 130.485138
v 76.750633 61.511253 133.427994
v 76.770409 61.964993 130.732498
v 76.669067 61.912796 133.214188
v 76.767296 62.207966 131.069016
v 76.760582 62.329182 131.995758
v 76.692276 62.144028 132.905884
v 77.087158 59.251144 131.032852
v 77.428902 59.346729 130.710266
v 77.428955 59.156414 131.080856
v 77.368111 59.101776 131.965393
v 77.356857 59.249374 132.469955
v 77.291786 59.722275 130.357452
v 77.350288 59.537365 132.952789
v 77.351234 59.903023 133.270767
v 77.163948 60.394825 130.084915
v 77.554672 60.451305 129.816620
v 77.387802 60.091576 130.043564
v 77.351646 60.367214 133.433380
v 77.172211 60.893864 130.095123
v 77.536255 60.785889 129.846375
v 77.349274 60.940666 133.454681
v 77.402817 61.141514 130.078384
v 77.314415 61.570580 130.363754
v 77.316765 61.463528 133.313950
v 77.356056 61.980000 130.689911
v 77.033745 62.052650 132.959961
v 77.376205 61.870281 133.016571
v 77.375114 62.154148 132.531586
v 77.351562 62.210938 131.061996
v 77.328224 62.278530 131.985184
v 77.932289 59.298923 130.545486
v 77.950882 59.094177 131.046677
v 77.939369 59.066097 131.962311
v 77.937126 59.239574 132.473038
v 77.672668 59.810413 130.045273
v 78.040146 59.964920 129.798264
v 77.990143 59.609871 130.094650
v 77.931183 59.548859 132.944794
v 77.926453 59.913292 133.255554
v 77.971962 60.375542 129.671494
v 77.935730 60.369740 133.416824
v 77.992104 60.864994 129.725433
v 77.934761 60.932419 133.418365
v 77.911552 61.298004 129.970398
v 77.866966 61.677322 130.293533
v 77.924843 61.397713 133.267654
v 77.944275 62.009018 130.648575
v 77.926941 61.772274 132.959015
v 77.928185 62.068928 132.476990
v 77.936798 62.204197 131.058273
v 77.927895 62.229763 131.962204
v 78.527702 59.219177 130.516006
v 78.526192 59.048595 131.034119
v 78.522476 59.067696 131.957840
v 78.543015 59.283569 132.465286
v 78.536552 59.904446 129.731766
v 78.534302 59.525547 130.037506
v 78.472794 59.609364 132.904388
v 78.421738 59.965759 133.203842
v 78.527916 60.370262 129.595734
v 78.490334 60.387428 133.343643
v 78.537903 60.919186 129.619553
v 78.490303 60.915596 133.346130
v 78.235924 61.518860 130.012497
v 78.617111 61.339222 129.785965
v 78.420616 61.334476 133.202118
v 78.572350 61.691387 130.095398
v 78.506401 61.991413 130.546021
v 78.464188 61.672794 132.898575
v 78.467064 61.969345 132.419479
v 78.504837 62.178329 131.042267
v 78.450310 62.153328 131.928635
v 79.087112 59.146179 130.469849
v 79.132797 59.015152 131.014252
v 79.108047 59.076447 131.945419
v 79.103180 59.298954 132.343857
v 79.144920 59.840363 129.691406
v 79.086395 59.429920 129.981995
v 78.794243 59.803711 132.959412
v 79.203659 59.685734 132.681137
v 79.112312 60.362144 129.551804
v 79.080406 60.086742 132.961609
v 78.908501 60.451870 133.191025
v 79.111374 60.932682 129.580170
v 78.906532 60.848412 133.188187
v 79.121796 61.384430 129.751221
v 78.776909 61.477226 132.947784
v 79.064041 61.197613 132.944504
v 79.163406 61.562012 132.545425
v 79.135811 61.748550 130.082596
v 79.064644 61.975506 130.566422
v 78.796143 62.066013 131.983200
v 79.157089 61.903988 132.023392
v 79.085579 62.064594 131.488297
v 79.003807 62.116474 131.014771
v 79.425941 59.239479 130.037491
v 79.792030 59.396320 129.798630
v 79.768806 59.154522 130.091812
v 79.701195 58.972263 131.003876
v 79.695656 59.088440 131.932877
v 79.688965 59.330753 132.283478
v 79.707550 59.797318 129.611832
v 79.703133 59.765007 132.534973
v 79.696991 60.358894 129.522095
v 79.304893 60.394104 132.923676
v 79.752884 60.325211 132.666687
v 79.696747 60.935131 129.558350
v 79.295921 60.903488 132.913803
v 79.730186 60.967438 132.620621
v 79.696159 61.381901 129.741577
v 79.690231 61.438057 132.358185
v 79.690292 61.679726 130.061401
v 79.354179 62.040318 131.007843
v 79.732864 61.939949 130.998306
v 79.691124 61.736034 131.965851
v 80.294479 59.351746 129.760162
v 80.295021 59.105644 130.071442
v 80.282867 58.949829 130.999771
v 80.281967 59.081467 131.933868
v 80.281387 59.341488 132.252930
v 80.285133 59.780823 129.554337
v 80.279533 59.780087 132.458145
v 80.279907 60.355946 129.466843
v 80.285690 60.357784 132.532837
v 80.284470 60.939510 129.520004
v 80.277634 60.941185 132.479813
v 80.287354 61.381721 129.732086
v 80.278976 61.383648 132.268051
v 80.279945 61.648132 130.062836
v 80.282326 61.832172 130.998413
v 80.278687 61.655071 131.937973
v 80.871010 59.326038 129.719986
v 80.869934 59.087593 130.067230
v 80.867981 58.935383 131.000000
v 80.866592 59.086075 131.932617
v 80.867172 59.342449 132.250641
v 80.864220 59.761292 129.464432
v 80.867851 59.781845 132.436432
v 80.812546 60.326927 129.333130
v 80.867867 60.358021 132.493652
v 80.834816 60.968811 129.382172
v 80.867233 60.935261 132.442032
v 80.885536 61.420582 129.663315
v 80.867226 61.373676 132.250839
v 80.868484 61.656002 130.054214
v 80.867363 61.794804 130.999924
v 80.866425 61.629654 131.932388
v 81.455544 59.285160 129.636490
v 81.459114 59.056705 130.049881
v 81.453041 58.950928 131.000305
v 81.440918 59.105721 131.928482
v 81.440269 59.353134 132.237473
v 81.359039 59.685284 129.308182
v 81.451874 59.784954 132.420135
v 81.258308 60.393990 129.074463
v 81.652802 60.443462 128.779739
v 81.480225 60.083481 129.031250
v 81.453575 60.357960 132.480591
v 81.267982 60.903503 129.086014
v 81.651794 60.850937 128.792999
v 81.451378 60.930885 132.422089
v 81.506744 61.189186 129.064560
v 81.421089 61.502522 129.479324
v 81.441254 61.363815 132.239487
v 81.476555 61.696037 130.016785
v 81.453476 61.772095 130.999603
v 81.440262 61.609276 131.928452
v 82.005905 59.198315 129.479446
v 82.066360 59.021988 130.019699
v 82.033829 58.974880 130.995193
v 81.963913 59.161804 131.904999
v 81.932587 59.400284 132.190613
v 81.749634 59.772247 129.006180
v 82.127853 59.855808 128.681946
v 82.061661 59.502258 129.023468
v 82.009331 59.803265 132.354553
v 82.097015 60.378742 128.470474
v 82.024483 60.357529 132.407837
v 82.069107 60.926537 128.553696
v 82.010521 60.913918 132.359009
v 81.798981 61.440144 129.067032
v 82.151657 61.343304 128.762924
v 81.932777 61.315704 132.191635
v 82.116936 61.556179 129.093094
v 82.045288 61.751099 130.007294
v 82.033676 61.744789 130.992462
v 81.961922 61.549706 131.903214
v 82.375137 59.258099 129.050186
v 82.702644 59.336796 128.702774
v 82.702431 59.142834 129.082184
v 82.631248 58.984959 130.005707
v 82.592216 59.048138 130.975952
v 82.283249 59.269238 131.935944
v 82.640625 59.225224 131.506287
v 82.584511 59.733253 128.370163
v 82.570496 59.525024 131.945572
v 82.432060 59.875237 132.201569
v 82.506508 60.358078 128.130264
v 82.875427 60.362476 127.825150
v 82.677147 60.094444 128.056534
v 82.478630 60.358772 132.244812
v 82.647552 60.641453 128.026031
v 82.487488 61.014965 128.295120
v 82.433899 60.842094 132.203552
v 82.655334 61.451870 128.544968
v 82.279518 61.438366 131.930939
v 82.573372 61.189636 131.940475
v 82.637909 61.485058 131.508942
v 82.665085 61.651974 129.030136
v 82.626076 61.759201 130.000565
v 82.594864 61.667484 130.977798
v 83.194199 59.215633 128.489609
v 83.245705 59.048241 129.024277
v 83.205711 58.992123 129.993805
v 83.133842 59.146236 130.916656
v 83.119385 59.349369 131.276703
v 82.933464 59.783703 128.018097
v 83.299049 59.855644 127.682747
v 83.235214 59.504070 128.024734
v 82.811211 59.813995 131.911438
v 83.198441 59.776878 131.556061
v 83.263680 60.358471 127.475746
v 82.881081 60.357372 131.959915
v 83.273247 60.357811 131.611862
v 82.850060 60.972385 127.959984
v 83.266068 60.926754 127.544350
v 82.812286 60.898300 131.916412
v 83.198143 60.940891 131.556473
v 83.056679 61.430080 128.106812
v 83.374771 61.370113 127.751648
v 83.112022 61.364712 131.272690
v 83.302284 61.545631 128.098373
v 83.219742 61.735092 129.009232
v 83.205322 61.742527 129.991684
v 83.136490 61.566795 130.913040
v 83.548401 59.260559 128.050690
v 83.874352 59.336464 127.702408
v 83.874672 59.142590 128.081665
v 83.804237 58.992126 129.006149
v 83.764099 59.048882 129.975510
v 83.457146 59.266228 130.943390
v 83.812645 59.225227 130.506287
v 83.752899 59.729691 127.366203
v 83.744492 59.523125 130.949615
v 83.616074 59.861580 131.247299
v 83.629723 60.400181 127.098633
v 83.989319 60.440464 126.764290
v 83.832397 60.089409 127.037979
v 83.667587 60.358932 131.304153
v 83.643135 60.894070 127.104263
v 83.997772 60.858212 126.772423
v 83.616951 60.855309 131.247147
v 83.860466 61.186333 127.062004
v 83.788589 61.478638 127.493080
v 83.453514 61.441643 130.938263
v 83.747383 61.191460 130.944199
v 83.809814 61.484741 130.508850
v 83.831429 61.661144 128.024094
v 83.797890 61.760036 128.999786
v 83.766991 61.667709 129.977814
v 84.366203 59.215603 127.489601
v 84.417740 59.048237 128.024307
v 84.377747 58.992130 128.993851
v 84.305862 59.146233 129.916656
v 84.291374 59.349369 130.276672
v 84.100655 59.780056 127.012711
v 84.465485 59.851051 126.674355
v 84.406799 59.503601 127.024231
v 83.985001 59.813358 130.914993
v 84.370461 59.776897 130.556076
v 84.405128 60.359936 126.453712
v 84.056366 60.357361 130.964615
v 84.445259 60.357815 130.611877
v 84.416550 60.935600 126.464157
v 83.986084 60.898930 130.919907
v 84.370140 60.940880 130.556427
v 84.142586 61.441349 127.061745
v 84.483315 61.365028 126.727112
v 84.284019 61.364704 130.272675
v 84.458771 61.577080 127.084747
v 84.390610 61.742359 128.008118
v 84.377480 61.742790 128.991928
v 84.308495 61.566799 129.912964
v 84.720413 59.260555 127.050690
v 85.046318 59.336411 126.702301
v 85.046677 59.142590 127.081650
v 84.976280 58.992123 128.006180
v 84.936104 59.048882 128.975525
v 84.629166 59.266228 129.943405
v 84.984634 59.225227 129.506287
v 84.924057 59.728489 126.364998
v 84.916504 59.523125 129.949631
v 84.788086 59.861584 130.247299
v 84.790939 60.398506 126.090324
v 85.161232 60.440372 125.764099
v 85.004417 60.089424 126.037949
v 84.839561 60.358917 130.304153
v 84.795273 60.900120 126.094063
v 85.166504 60.858654 125.770500
v 84.788956 60.855305 130.247131
v 85.024406 61.188778 126.060738
v 84.953308 61.498550 126.486267
v 84.625526 61.441635 129.938293
v 84.919411 61.191463 129.944214
v 84.981812 61.484734 129.508850
v 84.998573 61.717575 127.020180
v 84.970787 61.778667 127.999443
v 84.938774 61.667149 128.977661
v 85.538193 59.215595 126.489616
v 85.589722 59.048229 127.024300
v 85.549736 58.992123 127.993828
v 85.477844 59.146225 128.916641
v 85.463364 59.349346 129.276688
v 85.272652 59.780048 126.012718
v 85.637482 59.851044 125.674355
v 85.578796 59.503613 126.024208
v 85.157013 59.813370 129.914993
v 85.542450 59.776905 129.556076
v 85.577126 60.359932 125.453728
v 85.228378 60.357361 129.964630
v 85.617249 60.357815 129.611893
v 85.586601 60.936054 125.462914
v 85.158081 60.898937 129.919922
v 85.542160 60.940884 129.556458
v 85.308266 61.457798 126.053429
v 85.642296 61.381027 125.711212
v 85.455887 61.364189 129.272415
v 85.621521 61.638416 126.065651
v 85.536667 61.907669 127.011734
v 85.552902 61.795288 127.990143
v 85.482437 61.569809 128.909302
v 85.892403 59.260551 126.050667
v 86.218307 59.336395 125.702309
v 86.219124 59.143951 126.082390
v 86.147179 59.000206 127.006203
v 86.108147 59.048714 127.975548
v 85.801155 59.266232 128.943405
v 86.156647 59.225220 128.506271
v 86.096054 59.728485 125.365028
v 86.088509 59.523129 128.949646
v 85.960091 59.861572 129.247314
v 85.962929 60.398506 125.090355
v 86.333252 60.440395 124.764084
v 86.176407 60.089413 125.037956
v 86.011589 60.358921 129.304153
v 85.967583 60.899925 125.094368
v 86.337799 60.858681 124.769722
v 85.960976 60.855320 129.247131
v 86.189110 61.197239 125.052193
v 86.107300 61.549057 125.470459
v 85.798637 61.443108 128.938461
v 86.092857 61.193024 128.945435
v 86.162346 61.508900 128.514832
v 86.111595 61.877483 125.985329
v 85.903008 62.025387 126.990242
v 86.172493 62.051178 126.514816
v 86.184418 61.966347 127.431580
v 86.090698 61.779621 127.980782
v 86.243233 62.094425 126.982086
v 86.710487 59.216568 125.489929
v 86.763229 59.062340 126.027077
v 86.711250 59.017670 126.992020
v 86.647148 59.151031 127.918114
v 86.634712 59.349766 128.276505
v 86.444641 59.780060 125.012726
v 86.809860 59.851383 124.674835
v 86.750793 59.503677 125.024353
v 86.329025 59.813362 128.914978
v 86.714684 59.776798 128.556305
v 86.749138 60.359932 124.453735
v 86.400375 60.357357 128.964630
v 86.789276 60.357788 128.611908
v 86.756874 60.937817 124.460609
v 86.330078 60.898937 128.919937
v 86.716591 60.942837 128.559296
v 86.470062 61.486629 125.039818
v 86.809860 61.392353 124.703728
v 86.637894 61.387531 128.287262
v 86.778679 61.712914 125.072334
v 86.459969 62.055813 126.019073
v 86.783913 61.987820 125.569519
v 86.669891 61.676445 127.905037
v 86.672554 61.940868 127.408302
v 86.797134 62.139229 126.067375
v 86.666939 62.112774 126.924553
v 87.064751 59.260796 125.051956
v 87.394287 59.351524 124.714874
v 87.390526 59.155567 125.088570
v 87.314613 59.010952 126.000748
v 87.238045 59.100941 126.947449
v 86.966675 59.274582 127.944916
v 87.277451 59.245632 127.476547
v 87.273544 59.735050 124.371887
v 87.252586 59.532978 127.943680
v 87.130394 59.862518 128.245377
v 87.136566 60.398792 124.093559
v 87.514290 60.450550 123.803650
v 87.352966 60.094006 124.046478
v 87.184319 60.358860 128.304855
v 87.140831 60.899693 124.097343
v 87.516533 60.849400 123.807251
v 87.133652 60.855606 128.247955
v 87.363457 61.195404 124.055832
v 87.274796 61.554832 124.466003
v 86.983490 61.480465 127.955345
v 87.273125 61.201672 127.953445
v 87.369019 61.564163 127.547173
v 87.283852 61.887970 124.959824
v 87.303482 62.114117 125.477829
v 87.004066 62.069077 126.980362
v 87.354500 61.912842 127.053688
v 87.334091 62.131737 126.528862
v 87.318153 62.175083 126.001633
v 87.895653 59.284657 124.536369
v 87.913315 59.082302 125.043159
v 87.873863 59.038754 125.983101
v 87.600052 59.202114 126.994629
v 87.921104 59.153187 126.527565
v 87.635078 59.809284 124.043892
v 87.996124 59.945545 123.762863
v 87.951813 59.590801 124.079269
v 87.918266 59.423752 127.035927
v 87.492638 59.816681 127.913055
v 87.889687 59.802990 127.476463
v 87.939377 60.381084 123.609726
v 87.568016 60.357136 127.959755
v 87.961220 60.358524 127.610306
v 87.939774 60.920269 123.611496
v 87.510002 60.902348 127.926888
v 87.912750 60.961319 127.589050
v 87.646797 61.480572 124.048904
v 87.999229 61.354023 123.767754
v 87.883423 61.432625 127.346245
v 87.955437 61.703197 124.082077
v 87.623123 62.077682 125.015900
v 87.952400 61.996395 124.565910
v 87.891533 61.785568 126.972237
v 87.886528 62.057453 126.472214
v 87.970306 62.155052 125.073616
v 87.897446 62.192974 125.964989
v 88.466408 59.160065 124.475533
v 88.511093 59.036079 125.017036
v 88.472603 59.082920 125.956581
v 88.487534 59.297527 126.456078
v 88.511200 59.809055 123.616364
v 88.467834 59.434433 123.982239
v 88.415253 59.606754 126.904198
v 88.316048 59.918892 127.217140
v 88.450706 60.337772 123.385429
v 88.361931 60.366287 127.310669
v 88.452255 60.964794 123.386192
v 88.351974 60.935993 127.296974
v 88.511635 61.493614 123.615791
v 88.313698 61.359146 127.174583
v 88.468697 61.863449 123.985611
v 88.475357 62.117153 124.480515
v 88.403427 61.652470 126.880188
v 88.423698 61.959736 126.412956
v 88.513893 62.227119 125.014503
v 88.416428 62.147358 125.921082
v 88.802155 59.237091 124.032906
v 89.148369 59.345322 123.709518
v 89.145538 59.147915 124.086388
v 89.071075 59.017517 124.999908
v 88.994392 59.158596 125.909660
v 88.977669 59.362354 126.264053
v 89.013939 59.724079 123.359955
v 88.658165 59.833176 126.897865
v 89.060448 59.777683 126.556305
v 88.881950 60.394848 123.082680
v 89.273499 60.451813 122.808960
v 89.108238 60.091881 123.044449
v 88.761871 60.359261 126.982117
v 89.172211 60.354904 126.667442
v 88.881996 60.905510 123.080711
v 89.273552 60.850094 122.809143
v 88.755577 60.941029 126.975540
v 89.162674 60.949940 126.658386
v 89.106529 61.210205 123.046127
v 89.014725 61.578575 123.360329
v 88.637939 61.454536 126.884995
v 89.062820 61.496479 126.475044
v 88.804787 62.053383 124.035950
v 89.151405 61.953056 123.712440
v 88.760773 62.071140 125.980835
v 89.097847 61.880089 126.030151
v 89.090347 62.137276 125.526802
v 89.145294 62.145550 124.086395
v 89.051376 62.234871 124.987801
v 89.652420 59.302296 123.547302
v 89.670364 59.103516 124.048691
v 89.622330 59.070881 124.976234
v 89.320396 59.262482 125.945648
v 89.675575 59.216637 125.510368
v 89.392662 59.810402 123.045273
v 89.759087 59.964073 122.794121
v 89.710213 59.612640 123.097008
v 89.630524 59.509151 125.968857
v 89.545151 59.880360 126.284943
v 89.691673 60.386345 122.653809
v 89.627022 60.374157 126.415100
v 89.691689 60.914501 122.656517
v 89.622429 60.925007 126.405731
v 89.392723 61.491459 123.045570
v 89.760376 61.336060 122.796547
v 89.558792 61.367886 126.254044
v 89.709557 61.692024 123.094574
v 89.654335 62.002090 123.545296
v 89.610374 61.718006 125.927864
v 89.658043 62.020367 125.464905
v 89.670853 62.190342 124.049469
v 89.645882 62.200115 124.953186
v 90.245819 59.248867 123.530571
v 90.237938 59.091240 124.033783
v 90.167732 59.147297 124.921799
v 90.172844 59.328568 125.304565
v 90.254494 59.912315 122.742104
v 90.250793 59.549057 123.055344
v 89.938896 59.782280 125.981621
v 90.308731 59.715832 125.649445
v 90.246925 60.369801 122.581848
v 90.210548 60.088696 125.960472
v 90.044579 60.449627 126.198105
v 90.246346 60.932240 122.583237
v 90.043755 60.851669 126.196327
v 90.258682 61.395786 122.736397
v 89.926270 61.497005 125.961685
v 90.209480 61.210190 125.953880
v 90.303741 61.580524 125.642433
v 90.253174 61.776764 123.038292
v 90.251816 62.074337 123.520767
v 90.165092 61.956970 125.290359
v 90.237900 62.225945 124.031479
v 90.170769 62.142204 124.913040
v 90.828789 59.242050 123.524734
v 90.804169 59.118187 124.013687
v 90.514481 59.233738 124.967834
v 90.848480 59.178864 124.523743
v 90.830650 59.903465 122.729767
v 90.830711 59.534992 123.043877
v 90.858025 59.416855 125.032021
v 90.814316 59.797520 125.401184
v 90.830017 60.366917 122.566124
v 90.434456 60.394680 125.917763
v 90.873672 60.332886 125.629341
v 90.830971 60.938789 122.546989
v 90.433876 60.905495 125.919121
v 90.872330 60.968655 125.630676
v 90.867958 61.462624 122.686523
v 90.819374 61.510296 125.411568
v 90.806320 61.867893 122.985657
v 90.808678 62.147594 123.467949
v 90.516068 62.063396 124.970886
v 90.865112 61.904209 125.046318
v 90.856834 62.174942 124.542702
v 90.830917 62.248608 123.999313
v 91.410629 59.265633 123.533203
v 91.406425 59.168320 124.001404
v 91.408684 59.246677 124.476761
v 91.416107 59.901882 122.727203
v 91.416901 59.537273 123.046318
v 91.409790 59.517933 124.968826
v 91.411339 59.886967 125.300774
v 91.416771 60.364372 122.543945
v 91.413200 60.362045 125.478653
v 91.414902 60.942951 122.483330
v 91.413986 60.945225 125.495094
v 91.430000 61.515762 122.556023
v 91.446510 61.473934 125.338417
v 91.145607 62.064636 123.031967
v 91.512939 61.941326 122.749138
v 91.382416 61.903236 125.045479
v 91.370834 62.226578 124.560150
v 91.481552 62.223972 123.068748
v 91.410179 62.425053 123.985435
v 91.956200 59.316257 123.558189
v 91.908516 59.218025 123.999115
v 91.951820 59.326996 124.433357
v 92.001648 59.899883 122.718658
v 92.022575 59.538364 123.069962
v 92.005974 59.556103 124.923599
v 91.989464 59.917938 125.248497
v 92.001205 60.355392 122.484535
v 91.999352 60.368954 125.427925
v 91.950661 60.908627 122.331543
v 92.000198 60.944687 125.474457
v 91.914307 61.535152 122.348251
v 92.014565 61.506001 125.388412
v 92.005043 62.091080 122.515961
v 91.723206 62.088032 124.976891
v 92.096046 61.920151 125.209023
v 91.955368 62.490692 122.973053
v 91.779121 62.598610 123.986870
v 92.053970 62.713654 123.503334
v 92.060471 62.557381 124.422447
v 92.059990 62.258842 124.899178
v 92.098877 62.750450 123.993416
v 92.230247 59.294037 123.998329
v 92.575417 59.919449 122.707802
v 92.569893 59.648266 123.067932
v 92.586800 59.432343 123.993439
v 92.511002 59.708324 124.912369
v 92.481773 59.979637 125.197166
v 92.558578 60.337452 122.391983
v 92.562294 60.387871 125.366272
v 92.399597 60.995167 122.086449
v 92.761826 61.117458 121.843643
v 92.642410 60.759373 122.092514
v 92.587517 60.943497 125.449486
v 92.335320 61.529831 122.043709
v 92.738777 61.531487 121.766129
v 92.588440 61.517361 125.418381
v 92.401337 62.075756 122.082115
v 92.780434 62.022301 121.789894
v 92.599052 61.974331 125.254486
v 92.614845 62.392788 122.025238
v 92.209404 62.747238 122.950340
v 92.508881 62.737926 122.454971
v 92.596771 62.347912 124.947189
v 92.616631 62.723019 124.481384
v 92.503479 63.169918 123.044296
v 92.717407 63.223076 122.569046
v 92.543411 63.029057 123.994232
v 92.631668 63.250736 123.487358
v 92.719170 63.471100 123.008476
v 93.080956 59.973152 122.752670
v 93.073532 59.767689 123.069542
v 93.080826 59.674183 123.973816
v 92.829559 59.853619 124.944008
v 93.129814 59.834415 124.475853
v 93.163338 60.326614 122.421120
v 93.135651 60.106480 124.959991
v 93.045059 60.487381 125.239700
v 93.175385 61.094540 121.765442
v 93.175110 60.706947 122.059120
v 93.144409 60.968948 125.364304
v 93.189972 61.545853 121.635124
v 93.157211 61.517063 125.376358
v 93.200172 62.102676 121.619743
v 93.161308 61.974789 125.248108
v 92.840355 62.718105 121.989517
v 93.246552 62.657963 121.691170
v 93.172180 62.373070 124.960388
v 93.172264 62.768505 124.616730
v 92.995186 63.237316 122.077057
v 93.349167 63.205482 121.734657
v 92.898170 63.266270 123.982445
v 93.273674 63.180798 124.301880
v 93.210304 63.559227 122.026474
v 92.976616 63.778236 122.996346
v 93.197212 63.856174 122.508507
v 93.207764 63.840591 123.483284
v 93.205803 63.548412 123.969490
v 93.266472 64.077072 122.998535
v 93.366745 59.911049 123.046127
v 93.399162 59.859432 123.986465
v 93.676247 60.441471 122.577332
v 93.681625 60.148071 123.027031
v 93.704353 60.122692 123.986824
v 93.432289 60.390907 124.964531
v 93.733788 60.383163 124.485489
v 93.664108 61.141739 121.794281
v 93.703995 60.794613 122.099960
v 93.701164 60.697338 124.950165
v 93.563721 61.047337 125.199760
v 93.746635 61.556385 121.620163
v 93.610245 61.528545 125.235954
v 93.761223 62.118721 121.531128
v 93.586487 61.943390 125.158928
v 93.755852 62.702625 121.484840
v 93.708992 62.305275 124.914978
v 93.788216 62.747803 124.646141
v 93.763069 63.260361 121.414223
v 93.779076 63.262108 124.427605
v 93.406792 63.909218 121.991867
v 93.743080 63.846737 121.521507
v 93.505653 63.835316 123.962151
v 93.887024 63.743111 124.242218
v 93.656197 64.380287 122.039154
v 93.891068 64.403595 121.571724
v 93.529373 64.391846 122.967735
v 93.787788 64.434990 123.485405
v 93.801025 64.124359 123.958191
v 93.826744 64.707214 122.016731
v 93.797356 64.721718 122.993156
v 93.988167 60.423447 123.021912
v 94.003471 60.407707 123.988937
v 94.022362 60.998611 122.039001
v 94.336426 60.953594 122.504539
v 94.293327 60.703793 123.011932
v 94.285110 60.710247 123.981163
v 93.919266 60.996609 124.904144
v 94.267448 61.023014 124.428612
v 94.296211 61.610126 121.707207
v 94.367950 61.202812 122.017540
v 94.000961 61.527771 124.944138
v 94.391563 61.537727 124.592926
v 94.342293 62.123600 121.518082
v 93.949074 62.063316 124.912033
v 94.391289 62.145805 124.642838
v 94.309532 62.652714 121.336021
v 94.353363 62.710278 124.566727
v 94.170364 63.344574 121.100624
v 94.520203 63.461765 120.844437
v 94.397522 63.099407 121.086807
v 94.343895 63.287907 124.467567
v 94.128601 63.870491 121.067665
v 94.500717 63.875534 120.769547
v 94.371056 63.844250 124.363892
v 94.188995 64.409172 121.094826
v 94.539894 64.366043 120.791161
v 94.103867 64.394562 123.945679
v 94.449989 64.262016 124.198639
v 94.374001 64.736870 121.025475
v 94.026726 65.059753 122.000931
v 94.280563 65.074898 121.461678
v 94.037949 65.052940 122.986389
v 94.382935 65.033150 123.470329
v 94.397980 64.625542 123.899803
v 94.274841 65.540558 122.042351
v 94.470123 65.572487 121.567245
v 94.303177 65.526047 122.937637
v 94.531700 65.517723 123.235199
v 94.449722 65.846260 122.022476
v 94.481903 65.821770 122.951080
v 94.600586 60.984524 123.009560
v 94.569054 61.012581 123.977310
v 94.819710 61.732697 121.794975
v 94.834862 61.462154 122.068573
v 94.900139 61.259506 122.986214
v 94.850441 61.315720 123.962776
v 94.808754 61.643860 124.284119
v 94.914917 62.143787 121.575478
v 94.898125 62.137505 124.410591
v 94.933304 62.606998 121.339767
v 94.921494 62.702583 124.439346
v 94.933311 63.438648 120.765556
v 94.933434 63.029446 121.037079
v 94.921936 63.287384 124.432053
v 94.947159 63.890213 120.637901
v 94.919228 63.857132 124.377075
v 94.958389 64.446388 120.621185
v 94.930664 64.308990 124.233986
v 94.598595 65.061890 120.989716
v 95.009178 64.998619 120.705879
v 94.932770 64.710541 123.954247
v 94.928093 65.129997 123.646271
v 94.754837 65.580009 121.079285
v 95.119583 65.536636 120.782532
v 94.951454 65.605637 123.423515
v 94.973862 65.899033 121.032387
v 94.695663 66.163559 122.011681
v 94.943810 66.208450 121.505272
v 94.738113 66.122475 122.951607
v 95.068405 66.079659 123.234016
v 94.987679 66.454071 122.012543
v 95.027420 66.411919 122.951385
v 95.127480 61.655704 122.051659
v 95.207619 61.547115 122.998314
v 95.132751 61.618950 123.955482
v 95.397598 62.242065 121.729774
v 95.428398 61.915894 122.045387
v 95.500458 61.840790 123.001884
v 95.387817 61.922264 123.947403
v 95.306808 62.226170 124.197739
v 95.515892 62.706390 121.435410
v 95.372673 62.714989 124.249283
v 95.415886 63.481377 120.796844
v 95.476028 63.101536 121.086258
v 95.386719 63.288250 124.269997
v 95.492409 63.904503 120.637604
v 95.378944 63.860886 124.252068
v 95.518417 64.461624 120.567383
v 95.345818 64.286186 124.159073
v 95.526665 65.043961 120.564903
v 95.466766 64.648254 123.913422
v 95.554008 65.099518 123.673882
v 95.542549 65.618286 120.619156
v 95.517860 65.631248 123.496300
v 95.192719 66.235466 121.021431
v 95.600891 66.161926 120.733940
v 95.543297 66.183670 123.356804
v 95.483467 66.656708 121.077744
v 95.695114 66.594086 120.860977
v 95.292839 66.697922 121.987831
v 95.332764 66.654587 122.944817
v 95.621254 66.575203 123.174698
v 95.637833 66.758308 121.080643
v 95.604767 66.820648 122.000969
v 95.610558 66.767128 122.921448
v 95.716263 62.207302 122.045067
v 95.772255 62.160862 123.014061
v 95.556892 62.215046 123.921310
v 95.946457 62.795479 121.716011
v 95.973709 62.508259 122.043884
v 96.008179 62.477406 122.980423
v 95.985001 62.754131 123.440239
v 95.733604 62.693867 123.919548
v 95.775444 63.333542 121.044914
v 96.121361 63.250088 121.467949
v 95.765648 63.287552 123.959740
v 96.133911 63.318798 123.490997
v 95.975777 64.003868 120.760536
v 96.075615 63.610638 121.035164
v 95.779411 63.868263 123.964668
v 96.169289 63.875839 123.615509
v 96.079689 64.484283 120.619545
v 95.708458 64.407738 123.914040
v 96.150734 64.489532 123.644722
v 96.101532 65.046165 120.564255
v 96.110443 65.051353 123.554520
v 96.096077 65.626640 120.584305
v 96.098763 65.628143 123.453133
v 96.084877 66.182259 120.675354
v 96.073967 66.182411 123.342422
v 96.000122 66.574615 120.832443
v 96.000229 66.575035 123.174072
v 96.012535 66.762932 121.078812
v 96.021637 66.829643 122.000000
v 96.011360 66.766884 122.921272
v 96.157440 62.803761 122.055969
v 96.176544 62.791943 122.958397
v 96.425346 63.274002 122.003960
v 96.409981 63.278053 122.989609
v 96.361824 63.908600 121.034882
v 96.673012 63.887569 121.508499
v 96.666084 63.603806 122.006851
v 96.632339 63.630035 122.972672
v 96.570801 63.979607 123.292542
v 96.553200 64.589294 120.770958
v 96.652130 64.204727 121.037720
v 96.652649 64.480774 123.401192
v 96.633911 65.059814 120.683876
v 96.660698 65.034760 123.384918
v 96.597519 65.585777 120.726204
v 96.603279 65.583572 123.281158
v 96.483856 66.103065 120.803223
v 96.483849 66.105133 123.200539
v 96.549385 66.400551 121.055222
v 96.283043 66.651047 121.057899
v 96.328056 66.704376 122.000008
v 96.617020 66.455750 121.999947
v 96.282768 66.650589 122.941536
v 96.549202 66.400482 122.944756
v 96.923355 63.929867 122.014191
v 96.891914 63.959400 122.957672
v 96.929153 64.509201 121.050667
v 97.183929 64.514610 121.530930
v 97.160271 64.252861 122.017426
v 97.125595 64.275146 122.946304
v 97.048080 64.561348 123.179733
v 96.994453 65.049042 120.883690
v 97.160919 64.805695 121.072128
v 97.049477 64.952362 123.182846
v 97.140320 65.271492 121.053764
v 96.958832 65.622101 121.041916
v 97.085999 65.672668 122.000473
v 97.226654 65.320244 121.999916
v 96.966003 65.622849 122.961044
v 97.154488 65.269310 122.954559
v 96.734055 66.113251 121.066193
v 96.825424 66.147453 121.999825
v 96.732491 66.111336 122.933075
v 97.284058 64.557785 122.030869
v 97.236351 64.553207 122.923210
v 97.201950 65.035332 121.098343
v 97.310608 64.972336 122.004692
v 97.245010 64.958122 122.923149
# 1014 vertices, 0 vertices normals

f 3 2 1
f 5 4 1
f 1 4 3
f 5 6 4
f 1 2 7
f 7 2 8
f 1 9 5
f 1 7 9
f 6 5 10
f 5 11 10
f 5 9 11
f 11 12 10
f 7 8 13
f 13 8 14
f 7 15 9
f 7 13 15
f 9 16 11
f 9 15 16
f 12 11 17
f 17 11 16
f 13 14 18
f 18 14 19
f 13 20 15
f 13 18 20
f 22 16 21
f 16 20 21
f 16 15 20
f 16 22 17
f 18 19 23
f 23 19 24
f 18 25 20
f 18 23 25
f 21 20 26
f 26 20 25
f 24 27 23
f 23 27 25
f 25 27 28
f 25 28 26
f 30 29 3
f 3 29 2
f 31 3 4
f 31 30 3
f 4 6 31
f 31 6 32
f 29 8 2
f 33 8 29
f 34 32 6
f 34 6 10
f 10 12 34
f 34 12 35
f 38 37 36
f 33 38 36
f 14 33 36
f 8 33 14
f 17 35 12
f 17 39 35
f 37 40 36
f 14 36 40
f 41 14 40
f 19 14 41
f 21 42 22
f 42 43 22
f 43 17 22
f 43 39 17
f 41 24 19
f 44 24 41
f 26 45 42
f 26 42 21
f 43 42 46
f 46 42 45
f 44 47 24
f 24 47 27
f 47 49 48
f 28 47 48
f 27 47 28
f 48 50 28
f 28 50 26
f 50 51 26
f 51 45 26
f 45 51 46
f 49 52 48
f 48 52 50
f 54 53 30
f 30 53 29
f 55 30 31
f 55 54 30
f 31 32 55
f 55 32 56
f 59 58 57
f 53 59 57
f 33 53 57
f 29 53 33
f 60 56 32
f 60 32 34
f 34 35 60
f 60 35 61
f 57 58 38
f 58 37 38
f 58 62 37
f 57 38 33
f 39 61 35
f 39 63 61
f 40 37 64
f 37 65 64
f 37 62 65
f 64 41 40
f 43 63 39
f 43 66 63
f 65 67 64
f 41 64 67
f 68 41 67
f 44 41 68
f 46 66 43
f 46 69 66
f 68 70 44
f 44 70 47
f 49 47 70
f 49 70 71
f 73 72 51
f 73 51 50
f 46 51 69
f 69 51 72
f 71 74 49
f 49 74 52
f 50 52 73
f 73 52 74
f 76 75 54
f 54 75 53
f 77 54 55
f 77 76 54
f 55 56 77
f 77 56 78
f 80 79 59
f 59 79 58
f 59 53 75
f 59 75 80
f 81 78 56
f 81 56 60
f 60 61 81
f 81 61 82
f 79 62 58
f 83 62 79
f 63 82 61
f 63 84 82
f 83 65 62
f 85 65 83
f 66 84 63
f 66 86 84
f 85 87 65
f 65 87 67
f 68 67 87
f 68 87 88
f 91 90 89
f 90 86 89
f 86 69 89
f 86 66 69
f 88 92 68
f 68 92 70
f 94 93 71
f 70 94 71
f 92 94 70
f 93 94 91
f 93 91 89
f 73 93 89
f 72 73 89
f 72 89 69
f 93 74 71
f 74 93 73
f 97 96 95
f 75 76 95
f 76 97 95
f 76 98 97
f 99 76 77
f 99 98 76
f 77 78 99
f 99 78 100
f 95 96 80
f 96 79 80
f 96 101 79
f 95 80 75
f 78 81 102
f 103 78 102
f 100 78 103
f 82 102 81
f 101 83 79
f 104 83 101
f 105 103 102
f 102 82 105
f 82 106 105
f 82 84 106
f 104 85 83
f 107 85 104
f 86 106 84
f 86 108 106
f 87 85 109
f 85 110 109
f 85 107 110
f 109 88 87
f 112 111 90
f 112 90 91
f 86 90 108
f 108 90 111
f 110 113 109
f 109 113 88
f 113 92 88
f 113 114 92
f 92 115 94
f 114 115 92
f 91 94 112
f 112 94 115
f 117 116 97
f 97 116 96
f 118 97 98
f 118 117 97
f 119 98 99
f 119 118 98
f 99 100 119
f 119 100 120
f 116 101 96
f 121 101 116
f 103 120 100
f 103 122 120
f 121 104 101
f 123 104 121
f 103 105 124
f 125 103 124
f 122 103 125
f 106 124 105
f 123 107 104
f 126 107 123
f 125 124 127
f 125 127 128
f 108 127 106
f 106 127 124
f 126 110 107
f 129 110 126
f 128 127 111
f 112 128 111
f 130 128 112
f 111 127 108
f 129 131 110
f 110 131 113
f 113 132 114
f 131 132 113
f 114 133 115
f 132 133 114
f 112 115 130
f 130 115 133
f 136 135 134
f 134 137 136
f 139 138 117
f 117 138 116
f 118 134 135
f 139 118 135
f 117 118 139
f 140 137 134
f 118 140 134
f 119 140 118
f 119 120 140
f 140 120 141
f 138 121 116
f 142 121 138
f 122 141 120
f 122 143 141
f 142 123 121
f 144 123 142
f 125 143 122
f 125 145 143
f 144 126 123
f 146 126 144
f 128 145 125
f 128 147 145
f 146 129 126
f 148 129 146
f 130 147 128
f 130 149 147
f 148 150 129
f 129 150 131
f 131 151 132
f 150 151 131
f 132 152 133
f 151 152 132
f 130 133 149
f 149 133 152
f 155 154 153
f 135 136 153
f 136 155 153
f 136 156 155
f 136 137 156
f 156 137 157
f 153 154 139
f 154 138 139
f 154 158 138
f 153 139 135
f 159 157 137
f 159 137 140
f 140 141 159
f 159 141 160
f 163 162 161
f 158 163 161
f 142 158 161
f 138 158 142
f 143 160 141
f 143 164 160
f 161 162 165
f 165 162 166
f 165 144 142
f 165 142 161
f 145 164 143
f 145 167 164
f 166 168 165
f 144 165 168
f 169 144 168
f 146 144 169
f 147 167 145
f 147 170 167
f 169 148 146
f 171 148 169
f 174 173 172
f 173 170 172
f 170 149 172
f 170 147 149
f 171 175 148
f 148 175 150
f 150 176 151
f 175 176 150
f 172 152 174
f 152 176 174
f 152 151 176
f 152 172 149
f 178 177 155
f 155 177 154
f 179 155 156
f 179 178 155
f 156 157 179
f 179 157 180
f 183 182 181
f 177 183 181
f 158 177 181
f 154 177 158
f 184 180 157
f 184 157 159
f 159 160 184
f 184 160 185
f 181 182 163
f 182 162 163
f 182 186 162
f 181 163 158
f 164 185 160
f 164 187 185
f 186 166 162
f 188 166 186
f 167 187 164
f 167 189 187
f 188 190 166
f 166 190 168
f 169 168 190
f 169 190 191
f 170 189 167
f 170 192 189
f 191 171 169
f 193 171 191
f 195 194 173
f 195 173 174
f 170 173 192
f 192 173 194
f 193 196 171
f 171 196 175
f 175 197 176
f 196 197 175
f 174 176 195
f 195 176 197
f 199 198 178
f 178 198 177
f 200 178 179
f 200 199 178
f 179 180 200
f 200 180 201
f 203 202 183
f 183 202 182
f 183 177 198
f 183 198 203
f 204 201 180
f 204 180 184
f 184 185 204
f 204 185 205
f 202 186 182
f 206 186 202
f 187 205 185
f 187 207 205
f 206 188 186
f 208 188 206
f 189 207 187
f 189 209 207
f 190 188 210
f 188 211 210
f 188 208 211
f 210 191 190
f 192 209 189
f 192 212 209
f 211 213 210
f 191 210 213
f 214 191 213
f 193 191 214
f 216 215 194
f 216 194 195
f 192 194 212
f 212 194 215
f 214 217 193
f 193 217 196
f 196 218 197
f 217 218 196
f 195 197 216
f 216 197 218
f 220 219 199
f 199 219 198
f 221 199 200
f 221 220 199
f 200 201 221
f 221 201 222
f 224 223 203
f 203 223 202
f 203 198 219
f 203 219 224
f 201 204 225
f 226 201 225
f 222 201 226
f 205 225 204
f 223 206 202
f 227 206 223
f 228 226 225
f 225 205 228
f 205 229 228
f 205 207 229
f 227 208 206
f 230 208 227
f 209 229 207
f 209 231 229
f 230 211 208
f 232 211 230
f 235 234 233
f 234 231 233
f 231 212 233
f 231 209 212
f 232 236 211
f 211 236 213
f 214 213 236
f 214 236 237
f 240 239 238
f 238 239 235
f 238 235 233
f 216 238 233
f 215 216 233
f 215 233 212
f 237 241 214
f 214 241 217
f 238 218 240
f 218 241 240
f 218 217 241
f 218 238 216
f 244 243 242
f 219 220 242
f 220 244 242
f 220 245 244
f 246 220 221
f 246 245 220
f 221 222 246
f 246 222 247
f 242 243 224
f 243 223 224
f 243 248 223
f 242 224 219
f 226 247 222
f 226 249 247
f 248 227 223
f 250 227 248
f 226 228 251
f 252 226 251
f 249 226 252
f 229 251 228
f 250 230 227
f 253 230 250
f 252 251 254
f 252 254 255
f 231 254 229
f 229 254 251
f 253 232 230
f 256 232 253
f 255 254 234
f 235 255 234
f 257 255 235
f 234 254 231
f 256 258 232
f 232 258 236
f 260 259 237
f 236 260 237
f 258 260 236
f 239 240 259
f 260 239 259
f 261 239 260
f 235 239 257
f 257 239 261
f 259 241 237
f 241 259 240
f 263 262 244
f 244 262 243
f 264 244 245
f 264 263 244
f 265 245 246
f 265 264 245
f 246 247 265
f 265 247 266
f 262 248 243
f 267 248 262
f 249 266 247
f 249 268 266
f 267 250 248
f 269 250 267
f 252 268 249
f 252 270 268
f 269 253 250
f 271 253 269
f 255 270 252
f 255 272 270
f 271 256 253
f 273 256 271
f 257 272 255
f 257 274 272
f 273 275 256
f 256 275 258
f 258 276 260
f 275 276 258
f 260 277 261
f 276 277 260
f 257 261 274
f 274 261 277
f 279 278 263
f 263 278 262
f 280 263 264
f 280 279 263
f 281 264 265
f 281 280 264
f 265 266 281
f 281 266 282
f 278 267 262
f 283 267 278
f 268 282 266
f 268 284 282
f 283 269 267
f 285 269 283
f 270 284 268
f 270 286 284
f 285 271 269
f 287 271 285
f 272 286 270
f 272 288 286
f 287 273 271
f 289 273 287
f 274 288 272
f 274 290 288
f 289 291 273
f 273 291 275
f 275 292 276
f 291 292 275
f 276 293 277
f 292 293 276
f 274 277 290
f 290 277 293
f 295 294 279
f 279 294 278
f 296 279 280
f 296 295 279
f 297 280 281
f 297 296 280
f 281 282 297
f 297 282 298
f 294 283 278
f 299 283 294
f 284 298 282
f 284 300 298
f 303 302 301
f 299 303 301
f 285 299 301
f 283 299 285
f 286 300 284
f 286 304 300
f 301 302 305
f 305 302 306
f 305 287 285
f 305 285 301
f 288 304 286
f 288 307 304
f 306 308 305
f 287 305 308
f 309 287 308
f 289 287 309
f 290 307 288
f 290 310 307
f 309 311 289
f 289 311 291
f 291 312 292
f 311 312 291
f 292 313 293
f 312 313 292
f 290 293 310
f 310 293 313
f 315 314 295
f 295 314 294
f 316 295 296
f 316 315 295
f 317 296 297
f 317 316 296
f 297 298 317
f 317 298 318
f 321 320 319
f 314 321 319
f 299 314 319
f 294 314 299
f 300 318 298
f 300 322 318
f 319 320 303
f 320 302 303
f 320 323 302
f 319 303 299
f 304 322 300
f 304 324 322
f 323 306 302
f 325 306 323
f 307 324 304
f 307 326 324
f 308 306 327
f 306 328 327
f 306 325 328
f 327 309 308
f 310 326 307
f 310 329 326
f 328 330 327
f 327 330 309
f 330 311 309
f 330 331 311
f 311 332 312
f 331 332 311
f 312 333 313
f 332 333 312
f 310 313 329
f 329 313 333
f 336 335 334
f 314 315 334
f 315 336 334
f 315 337 336
f 338 315 316
f 338 337 315
f 340 338 339
f 338 317 339
f 338 316 317
f 318 339 317
f 334 335 321
f 335 320 321
f 335 341 320
f 334 321 314
f 342 340 339
f 339 318 342
f 318 343 342
f 318 322 343
f 346 345 344
f 341 346 344
f 323 341 344
f 320 341 323
f 324 343 322
f 324 347 343
f 345 348 344
f 323 344 348
f 349 323 348
f 325 323 349
f 326 347 324
f 326 350 347
f 349 328 325
f 351 328 349
f 354 353 352
f 353 350 352
f 350 329 352
f 350 326 329
f 351 355 328
f 328 355 330
f 330 356 331
f 355 356 330
f 331 357 332
f 356 357 331
f 352 333 354
f 333 357 354
f 333 332 357
f 333 352 329
f 359 358 336
f 336 358 335
f 360 336 337
f 360 359 336
f 361 337 338
f 361 360 337
f 338 340 361
f 361 340 362
f 365 364 363
f 358 365 363
f 341 358 363
f 335 358 341
f 340 342 366
f 367 340 366
f 362 340 367
f 343 366 342
f 363 364 346
f 364 345 346
f 364 368 345
f 363 346 341
f 367 366 369
f 367 369 370
f 347 369 343
f 343 369 366
f 348 345 371
f 345 372 371
f 345 368 372
f 371 349 348
f 370 369 373
f 370 373 374
f 350 373 347
f 347 373 369
f 371 372 375
f 375 372 376
f 375 351 349
f 375 349 371
f 374 373 353
f 354 374 353
f 377 374 354
f 353 373 350
f 376 378 375
f 375 378 351
f 378 355 351
f 378 379 355
f 355 380 356
f 379 380 355
f 356 381 357
f 380 381 356
f 354 357 377
f 377 357 381
f 384 383 382
f 358 359 382
f 359 384 382
f 359 385 384
f 386 359 360
f 386 385 359
f 388 386 387
f 386 361 387
f 386 360 361
f 362 387 361
f 382 383 365
f 383 364 365
f 383 389 364
f 382 365 358
f 390 388 387
f 387 362 390
f 362 391 390
f 362 367 391
f 394 393 392
f 389 394 392
f 368 389 392
f 364 389 368
f 370 391 367
f 370 395 391
f 392 393 396
f 396 393 397
f 396 372 368
f 396 368 392
f 374 395 370
f 374 398 395
f 397 399 396
f 372 396 399
f 400 372 399
f 376 372 400
f 403 402 401
f 402 398 401
f 398 377 401
f 398 374 377
f 400 404 376
f 376 404 378
f 378 405 379
f 404 405 378
f 379 406 380
f 405 406 379
f 401 381 403
f 381 406 403
f 381 380 406
f 381 401 377
f 408 407 384
f 384 407 383
f 409 384 385
f 409 408 384
f 410 385 386
f 410 409 385
f 386 388 410
f 410 388 411
f 414 413 412
f 407 414 412
f 389 407 412
f 383 407 389
f 388 390 415
f 416 388 415
f 411 388 416
f 391 415 390
f 412 413 394
f 413 393 394
f 413 417 393
f 412 394 389
f 416 415 418
f 416 418 419
f 395 418 391
f 391 418 415
f 417 397 393
f 420 397 417
f 419 418 421
f 419 421 422
f 398 421 395
f 395 421 418
f 399 397 423
f 397 424 423
f 397 420 424
f 423 400 399
f 422 421 402
f 403 422 402
f 425 422 403
f 402 421 398
f 424 426 423
f 423 426 400
f 426 404 400
f 426 427 404
f 404 428 405
f 427 428 404
f 405 429 406
f 428 429 405
f 403 406 425
f 425 406 429
f 432 431 430
f 407 408 430
f 408 432 430
f 408 433 432
f 434 408 409
f 434 433 408
f 436 434 435
f 434 410 435
f 434 409 410
f 411 435 410
f 430 431 414
f 431 413 414
f 431 437 413
f 430 414 407
f 438 436 435
f 435 411 438
f 411 439 438
f 411 416 439
f 442 441 440
f 437 442 440
f 417 437 440
f 413 437 417
f 419 439 416
f 419 443 439
f 440 441 444
f 444 441 445
f 444 420 417
f 444 417 440
f 422 443 419
f 422 446 443
f 445 447 444
f 420 444 447
f 448 420 447
f 424 420 448
f 451 450 449
f 450 446 449
f 446 425 449
f 446 422 425
f 448 452 424
f 424 452 426
f 426 453 427
f 452 453 426
f 427 454 428
f 453 454 427
f 449 429 451
f 429 454 451
f 429 428 454
f 429 449 425
f 456 455 432
f 432 455 431
f 457 432 433
f 457 456 432
f 458 433 434
f 458 457 433
f 434 436 458
f 458 436 459
f 462 461 460
f 455 462 460
f 437 455 460
f 431 455 437
f 436 438 463
f 464 436 463
f 459 436 464
f 439 463 438
f 460 461 442
f 461 441 442
f 461 465 441
f 460 442 437
f 464 463 466
f 464 466 467
f 443 466 439
f 439 466 463
f 465 445 441
f 468 445 465
f 467 466 469
f 467 469 470
f 446 469 443
f 443 469 466
f 447 445 471
f 445 472 471
f 445 468 472
f 471 448 447
f 470 469 450
f 451 470 450
f 473 470 451
f 450 469 446
f 472 474 471
f 471 474 448
f 474 452 448
f 474 475 452
f 452 476 453
f 475 476 452
f 453 477 454
f 476 477 453
f 451 454 473
f 473 454 477
f 480 479 478
f 455 456 478
f 456 480 478
f 456 481 480
f 482 456 457
f 482 481 456
f 484 482 483
f 482 458 483
f 482 457 458
f 459 483 458
f 478 479 462
f 479 461 462
f 479 485 461
f 478 462 455
f 486 484 483
f 483 459 486
f 459 487 486
f 459 464 487
f 490 489 488
f 485 490 488
f 465 485 488
f 461 485 465
f 467 487 464
f 467 491 487
f 488 489 492
f 492 489 493
f 492 468 465
f 492 465 488
f 470 491 467
f 470 494 491
f 493 495 492
f 468 492 495
f 496 468 495
f 472 468 496
f 499 498 497
f 498 494 497
f 494 473 497
f 494 470 473
f 496 500 472
f 472 500 474
f 500 502 501
f 475 500 501
f 474 500 475
f 475 501 503
f 504 475 503
f 476 475 504
f 497 477 499
f 477 504 499
f 477 476 504
f 477 497 473
f 502 505 501
f 501 505 503
f 507 506 480
f 480 506 479
f 508 480 481
f 508 507 480
f 509 481 482
f 509 508 481
f 482 484 509
f 509 484 510
f 513 512 511
f 506 513 511
f 485 506 511
f 479 506 485
f 484 486 514
f 515 484 514
f 510 484 515
f 487 514 486
f 511 512 490
f 512 489 490
f 512 516 489
f 511 490 485
f 515 514 517
f 515 517 518
f 491 517 487
f 487 517 514
f 516 493 489
f 519 493 516
f 518 517 520
f 518 520 521
f 494 520 491
f 491 520 517
f 495 493 522
f 493 523 522
f 493 519 523
f 522 496 495
f 521 520 498
f 499 521 498
f 524 521 499
f 498 520 494
f 523 525 522
f 525 527 526
f 525 526 500
f 522 525 500
f 496 522 500
f 526 502 500
f 529 528 504
f 529 504 503
f 499 504 524
f 524 504 528
f 527 530 526
f 526 530 502
f 530 505 502
f 530 531 505
f 503 505 529
f 529 505 531
f 534 533 532
f 506 507 532
f 507 534 532
f 507 535 534
f 536 507 508
f 536 535 507
f 538 536 537
f 536 509 537
f 536 508 509
f 510 537 509
f 532 533 513
f 533 512 513
f 533 539 512
f 532 513 506
f 540 538 537
f 537 510 540
f 510 541 540
f 510 515 541
f 544 543 542
f 539 544 542
f 516 539 542
f 512 539 516
f 518 541 515
f 518 545 541
f 542 543 546
f 546 543 547
f 546 519 516
f 546 516 542
f 521 545 518
f 521 548 545
f 547 549 546
f 519 546 549
f 550 519 549
f 523 519 550
f 553 552 551
f 552 548 551
f 548 524 551
f 548 521 524
f 550 554 523
f 523 554 525
f 527 525 554
f 527 554 555
f 558 557 556
f 556 557 553
f 556 553 551
f 529 556 551
f 528 529 551
f 528 551 524
f 555 559 527
f 527 559 530
f 556 531 558
f 531 559 558
f 531 530 559
f 531 556 529
f 561 560 534
f 534 560 533
f 562 534 535
f 562 561 534
f 564 562 563
f 562 536 563
f 562 535 536
f 538 563 536
f 567 566 565
f 560 567 565
f 539 560 565
f 533 560 539
f 568 564 563
f 570 568 569
f 569 568 540
f 568 563 540
f 563 538 540
f 541 569 540
f 565 566 544
f 566 543 544
f 566 571 543
f 565 544 539
f 570 569 572
f 570 572 573
f 545 572 541
f 541 572 569
f 571 547 543
f 574 547 571
f 573 572 575
f 573 575 576
f 548 575 545
f 545 575 572
f 549 547 577
f 547 578 577
f 547 574 578
f 577 550 549
f 576 575 552
f 553 576 552
f 579 576 553
f 552 575 548
f 578 580 577
f 580 582 581
f 580 581 554
f 577 580 554
f 550 577 554
f 581 555 554
f 584 583 557
f 584 557 558
f 553 557 579
f 579 557 583
f 582 585 581
f 581 585 555
f 585 559 555
f 585 586 559
f 558 559 584
f 584 559 586
f 588 587 561
f 561 587 560
f 589 561 562
f 589 588 561
f 562 564 589
f 589 564 590
f 592 591 567
f 567 591 566
f 567 560 587
f 567 587 592
f 593 590 564
f 593 564 568
f 568 570 593
f 593 570 594
f 591 571 566
f 595 571 591
f 573 594 570
f 573 596 594
f 595 574 571
f 597 574 595
f 576 596 573
f 576 598 596
f 597 578 574
f 599 578 597
f 579 598 576
f 579 600 598
f 599 601 578
f 578 601 580
f 582 580 601
f 582 601 602
f 604 603 583
f 604 583 584
f 579 583 600
f 600 583 603
f 602 605 582
f 582 605 585
f 585 606 586
f 605 606 585
f 584 586 604
f 604 586 606
f 609 608 607
f 587 588 607
f 588 609 607
f 588 610 609
f 611 588 589
f 611 610 588
f 589 590 611
f 611 590 612
f 607 608 592
f 608 591 592
f 608 613 591
f 607 592 587
f 590 593 614
f 615 590 614
f 612 590 615
f 594 614 593
f 618 617 616
f 613 618 616
f 595 613 616
f 591 613 595
f 615 614 619
f 615 619 620
f 596 619 594
f 594 619 614
f 616 617 621
f 621 617 622
f 621 597 595
f 621 595 616
f 620 619 623
f 620 623 624
f 598 623 596
f 596 623 619
f 622 625 621
f 597 621 625
f 626 597 625
f 599 597 626
f 624 623 627
f 624 627 628
f 600 627 598
f 598 627 623
f 601 599 629
f 599 630 629
f 599 626 630
f 629 602 601
f 633 632 631
f 631 632 628
f 631 628 627
f 604 631 627
f 603 604 627
f 603 627 600
f 630 634 629
f 629 634 602
f 634 605 602
f 634 635 605
f 631 606 633
f 606 635 633
f 606 605 635
f 606 631 604
f 637 636 609
f 609 636 608
f 638 609 610
f 638 637 609
f 640 638 639
f 638 611 639
f 638 610 611
f 612 639 611
f 643 642 641
f 636 643 641
f 613 636 641
f 608 636 613
f 644 640 639
f 639 612 644
f 612 645 644
f 612 615 645
f 641 642 618
f 642 617 618
f 642 646 617
f 641 618 613
f 620 645 615
f 620 647 645
f 646 622 617
f 648 622 646
f 624 647 620
f 624 649 647
f 625 622 650
f 622 651 650
f 622 648 651
f 650 626 625
f 628 649 624
f 628 652 649
f 651 653 650
f 626 650 653
f 654 626 653
f 630 626 654
f 656 655 632
f 656 632 633
f 628 632 652
f 652 632 655
f 654 657 630
f 630 657 634
f 634 658 635
f 657 658 634
f 633 635 656
f 656 635 658
f 660 659 637
f 637 659 636
f 661 637 638
f 661 660 637
f 638 640 661
f 661 640 662
f 664 663 643
f 643 663 642
f 643 636 659
f 643 659 664
f 640 644 665
f 666 640 665
f 662 640 666
f 645 665 644
f 663 646 642
f 667 646 663
f 668 666 665
f 665 645 668
f 645 669 668
f 645 647 669
f 667 648 646
f 670 648 667
f 649 669 647
f 649 671 669
f 670 651 648
f 672 651 670
f 675 674 673
f 674 671 673
f 671 652 673
f 671 649 652
f 672 676 651
f 651 676 653
f 654 653 676
f 654 676 677
f 675 673 655
f 656 675 655
f 678 675 656
f 655 673 652
f 677 679 654
f 654 679 657
f 657 680 658
f 679 680 657
f 656 658 678
f 678 658 680
f 682 681 660
f 660 681 659
f 684 682 683
f 682 661 683
f 682 660 661
f 662 683 661
f 686 685 664
f 664 685 663
f 664 659 681
f 664 681 686
f 687 684 683
f 683 662 687
f 662 688 687
f 662 666 688
f 685 667 663
f 689 667 685
f 666 668 690
f 691 666 690
f 688 666 691
f 669 690 668
f 689 670 667
f 692 670 689
f 691 690 693
f 691 693 694
f 671 693 669
f 669 693 690
f 692 672 670
f 695 672 692
f 694 693 674
f 675 694 674
f 696 694 675
f 674 693 671
f 695 697 672
f 672 697 676
f 677 676 697
f 677 697 698
f 701 700 699
f 700 696 699
f 696 678 699
f 696 675 678
f 698 702 677
f 677 702 679
f 699 680 701
f 680 702 701
f 680 679 702
f 680 699 678
f 704 703 682
f 682 703 681
f 682 684 704
f 704 684 705
f 707 706 686
f 686 706 685
f 686 681 703
f 686 703 707
f 708 705 684
f 708 684 687
f 687 688 708
f 708 688 709
f 706 689 685
f 710 689 706
f 691 709 688
f 691 711 709
f 710 692 689
f 712 692 710
f 694 711 691
f 694 713 711
f 712 695 692
f 714 695 712
f 696 713 694
f 696 715 713
f 697 695 716
f 695 717 716
f 695 714 717
f 716 698 697
f 719 718 700
f 719 700 701
f 696 700 715
f 715 700 718
f 717 720 716
f 716 720 698
f 720 702 698
f 720 721 702
f 701 702 719
f 719 702 721
f 723 722 704
f 704 722 703
f 704 705 723
f 723 705 724
f 726 725 707
f 707 725 706
f 707 703 722
f 707 722 726
f 727 724 705
f 727 705 708
f 708 709 727
f 727 709 728
f 725 710 706
f 729 710 725
f 711 728 709
f 711 730 728
f 729 712 710
f 731 712 729
f 713 730 711
f 713 732 730
f 731 714 712
f 733 714 731
f 715 732 713
f 715 734 732
f 733 717 714
f 735 717 733
f 719 736 718
f 736 737 718
f 737 715 718
f 737 734 715
f 735 738 717
f 717 738 720
f 738 740 739
f 721 738 739
f 720 738 721
f 739 741 721
f 721 741 719
f 741 742 719
f 742 736 719
f 736 742 737
f 740 743 739
f 739 743 741
f 744 722 723
f 724 744 723
f 746 745 726
f 726 745 725
f 726 722 744
f 747 726 744
f 746 726 747
f 747 744 724
f 727 747 724
f 748 747 727
f 727 728 748
f 748 728 749
f 745 729 725
f 750 729 745
f 730 749 728
f 730 751 749
f 754 753 752
f 750 754 752
f 731 750 752
f 729 750 731
f 732 751 730
f 732 755 751
f 752 753 756
f 756 753 757
f 756 733 731
f 756 731 752
f 734 755 732
f 734 758 755
f 756 757 759
f 759 757 760
f 759 735 733
f 759 733 756
f 737 758 734
f 737 761 758
f 760 762 759
f 762 764 763
f 762 763 738
f 759 762 738
f 735 759 738
f 763 740 738
f 766 765 742
f 766 742 741
f 737 742 761
f 761 742 765
f 763 764 767
f 767 764 768
f 763 767 740
f 767 769 740
f 769 743 740
f 767 770 769
f 741 743 766
f 766 743 769
f 768 771 767
f 767 771 770
f 773 772 746
f 746 772 745
f 774 746 747
f 774 773 746
f 776 774 775
f 774 748 775
f 774 747 748
f 749 775 748
f 772 750 745
f 777 750 772
f 778 776 775
f 775 749 778
f 749 779 778
f 749 751 779
f 781 780 754
f 754 780 753
f 754 750 777
f 754 777 781
f 755 779 751
f 755 782 779
f 780 757 753
f 783 757 780
f 758 782 755
f 758 784 782
f 783 760 757
f 785 760 783
f 761 784 758
f 761 786 784
f 762 760 787
f 760 788 787
f 760 785 788
f 787 764 762
f 790 789 765
f 790 765 766
f 761 765 786
f 786 765 789
f 787 788 791
f 791 788 792
f 791 768 764
f 791 764 787
f 770 793 769
f 793 794 769
f 794 766 769
f 794 790 766
f 792 795 791
f 795 797 796
f 795 796 771
f 791 795 771
f 768 791 771
f 796 798 771
f 771 798 770
f 798 799 770
f 799 793 770
f 793 799 794
f 797 800 796
f 796 800 798
f 801 772 773
f 774 802 773
f 773 802 801
f 776 802 774
f 804 803 801
f 803 772 801
f 803 777 772
f 804 801 802
f 804 802 805
f 807 805 806
f 806 805 778
f 805 802 778
f 802 776 778
f 779 806 778
f 809 808 781
f 781 808 780
f 781 777 803
f 781 803 809
f 810 807 806
f 806 779 810
f 779 811 810
f 779 782 811
f 808 783 780
f 812 783 808
f 784 811 782
f 784 813 811
f 812 785 783
f 814 785 812
f 786 813 784
f 786 815 813
f 814 788 785
f 816 788 814
f 818 817 789
f 818 789 790
f 786 789 815
f 815 789 817
f 816 792 788
f 819 792 816
f 794 818 790
f 794 820 818
f 795 792 821
f 792 822 821
f 792 819 822
f 821 797 795
f 798 823 799
f 823 824 799
f 824 794 799
f 824 820 794
f 821 822 825
f 825 822 826
f 827 800 797
f 821 827 797
f 825 827 821
f 827 828 800
f 800 828 798
f 828 829 798
f 829 823 798
f 823 829 824
f 826 830 825
f 825 830 827
f 827 830 831
f 827 831 828
f 832 803 804
f 805 833 804
f 804 833 832
f 807 833 805
f 834 808 809
f 835 834 809
f 835 809 803
f 836 835 803
f 832 836 803
f 836 832 833
f 836 833 837
f 839 837 838
f 838 837 810
f 837 833 810
f 833 807 810
f 811 838 810
f 841 840 834
f 840 808 834
f 840 812 808
f 841 834 835
f 839 838 842
f 839 842 843
f 813 842 811
f 811 842 838
f 840 814 812
f 844 814 840
f 843 842 845
f 843 845 846
f 815 845 813
f 813 845 842
f 844 816 814
f 847 816 844
f 846 845 817
f 818 846 817
f 848 846 818
f 817 845 815
f 851 850 849
f 847 851 849
f 819 847 849
f 816 847 819
f 820 848 818
f 820 852 848
f 849 850 853
f 853 850 854
f 853 822 819
f 853 819 849
f 824 852 820
f 824 855 852
f 853 854 856
f 856 854 857
f 856 826 822
f 856 822 853
f 828 858 829
f 858 859 829
f 859 824 829
f 859 855 824
f 857 860 856
f 860 862 861
f 860 861 830
f 856 860 830
f 826 856 830
f 863 831 830
f 863 830 861
f 863 864 831
f 831 864 828
f 864 865 828
f 865 858 828
f 858 865 859
f 861 862 866
f 866 862 867
f 861 868 863
f 861 866 868
f 864 863 869
f 869 863 868
f 867 870 866
f 866 870 868
f 868 870 871
f 868 871 869
f 872 835 836
f 837 873 836
f 836 873 872
f 839 873 837
f 875 874 841
f 841 874 840
f 841 835 872
f 876 841 872
f 875 841 876
f 876 872 873
f 876 873 877
f 873 839 877
f 839 878 877
f 839 843 878
f 874 844 840
f 879 844 874
f 846 878 843
f 846 880 878
f 879 847 844
f 881 847 879
f 848 880 846
f 848 882 880
f 884 883 851
f 851 883 850
f 851 847 881
f 851 881 884
f 852 882 848
f 852 885 882
f 883 854 850
f 886 854 883
f 855 885 852
f 855 887 885
f 886 857 854
f 888 857 886
f 859 887 855
f 859 889 887
f 860 857 890
f 857 891 890
f 857 888 891
f 890 862 860
f 893 892 865
f 893 865 864
f 859 865 889
f 889 865 892
f 890 891 894
f 894 891 895
f 894 867 862
f 894 862 890
f 869 893 864
f 869 896 893
f 895 897 894
f 897 899 898
f 897 898 870
f 894 897 870
f 867 894 870
f 900 871 870
f 900 870 898
f 900 901 871
f 901 869 871
f 901 896 869
f 899 902 898
f 898 902 900
f 900 902 903
f 900 903 901
f 904 874 875
f 876 905 875
f 875 905 904
f 877 906 876
f 876 906 905
f 878 906 877
f 908 907 904
f 907 874 904
f 907 879 874
f 908 904 905
f 908 905 909
f 909 905 906
f 909 906 910
f 906 878 910
f 878 911 910
f 878 880 911
f 907 881 879
f 912 881 907
f 882 911 880
f 882 913 911
f 915 914 884
f 884 914 883
f 884 881 912
f 884 912 915
f 885 913 882
f 885 916 913
f 914 886 883
f 917 886 914
f 887 916 885
f 887 918 916
f 917 888 886
f 919 888 917
f 889 918 887
f 889 920 918
f 919 891 888
f 921 891 919
f 923 922 892
f 923 892 893
f 889 892 920
f 920 892 922
f 921 895 891
f 924 895 921
f 896 923 893
f 896 925 923
f 897 895 926
f 895 927 926
f 895 924 927
f 926 899 897
f 901 925 896
f 901 928 925
f 926 927 929
f 929 927 930
f 931 902 899
f 926 931 899
f 929 931 926
f 932 903 902
f 932 902 931
f 932 933 903
f 933 901 903
f 933 928 901
f 930 934 929
f 929 934 931
f 931 934 935
f 931 935 932
f 932 935 936
f 932 936 933
f 937 907 908
f 909 938 908
f 908 938 937
f 910 939 909
f 909 939 938
f 911 939 910
f 941 940 937
f 940 907 937
f 940 912 907
f 941 937 938
f 941 938 942
f 944 943 942
f 938 944 942
f 939 944 938
f 913 944 911
f 911 944 939
f 945 914 915
f 946 945 915
f 912 946 915
f 940 946 912
f 943 944 947
f 943 947 948
f 916 947 913
f 913 947 944
f 950 949 945
f 949 914 945
f 949 917 914
f 950 945 946
f 948 947 951
f 948 951 952
f 918 951 916
f 916 951 947
f 949 919 917
f 953 919 949
f 952 951 954
f 952 954 955
f 920 954 918
f 918 954 951
f 953 921 919
f 956 921 953
f 955 954 922
f 923 955 922
f 957 955 923
f 922 954 920
f 956 924 921
f 958 924 956
f 925 957 923
f 925 959 957
f 958 927 924
f 960 927 958
f 928 959 925
f 928 961 959
f 960 930 927
f 962 930 960
f 933 961 928
f 933 963 961
f 962 964 930
f 930 964 934
f 934 965 935
f 964 965 934
f 935 966 936
f 965 966 935
f 933 936 963
f 963 936 966
f 967 940 941
f 942 968 941
f 941 968 967
f 943 968 942
f 969 946 967
f 967 946 940
f 970 967 968
f 969 967 970
f 948 970 943
f 943 970 968
f 971 949 950
f 972 971 950
f 972 950 946
f 973 972 946
f 969 973 946
f 973 969 970
f 973 970 974
f 970 948 974
f 948 975 974
f 948 952 975
f 977 976 971
f 976 949 971
f 976 953 949
f 977 971 972
f 955 975 952
f 955 978 975
f 976 956 953
f 979 956 976
f 957 978 955
f 957 980 978
f 979 958 956
f 981 958 979
f 959 980 957
f 959 982 980
f 981 960 958
f 983 960 981
f 961 982 959
f 961 984 982
f 986 962 985
f 962 983 985
f 962 960 983
f 988 987 986
f 988 986 985
f 990 989 987
f 990 987 988
f 990 984 989
f 984 963 989
f 984 961 963
f 986 964 962
f 964 986 965
f 965 986 987
f 965 987 966
f 966 987 989
f 966 989 963
f 991 972 973
f 974 992 973
f 973 992 991
f 975 992 974
f 993 976 977
f 994 993 977
f 994 977 972
f 995 994 972
f 991 995 972
f 995 991 992
f 995 992 996
f 992 975 996
f 975 997 996
f 975 978 997
f 999 998 993
f 998 976 993
f 998 979 976
f 999 993 994
f 980 997 978
f 980 1000 997
f 1002 981 1001
f 981 998 1001
f 981 979 998
f 1004 1003 1002
f 1004 1002 1001
f 1006 1005 1003
f 1006 1003 1004
f 1006 1000 1005
f 1000 982 1005
f 1000 980 982
f 1007 983 1002
f 1002 983 981
f 1008 1002 1003
f 1007 1002 1008
f 1009 1003 1005
f 1008 1003 1009
f 984 1009 982
f 982 1009 1005
f 1007 985 983
f 985 1007 988
f 988 1007 1008
f 988 1008 990
f 990 1008 1009
f 990 1009 984
f 1010 994 995
f 996 1011 995
f 995 1011 1010
f 997 1011 996
f 1012 998 999
f 994 1010 999
f 1010 1012 999
f 1010 1013 1012
f 1014 1010 1011
f 1013 1010 1014
f 1000 1014 997
f 997 1014 1011
f 1012 1001 998
f 1001 1012 1004
f 1004 1012 1013
f 1004 1013 1006
f 1006 1013 1014
f 1006 1014 1000
# 2024 faces, 0 coords texture

# End of File