####
#
# OBJ File Generated by Meshlab
#
####
# Object domain067.obj
#
# Vertices: 457
# Faces: 918
#
####
v 122.201172 330.511261 113.324608
v 116.028160 326.674774 119.794037
v 111.993973 325.094086 113.441231
v 123.056908 341.879364 120.077873
v 116.031036 351.342102 111.047150
v 116.029068 328.634949 121.951492
v 122.644875 326.449829 115.499084
v 122.865150 352.618652 119.788071
v 123.630913 343.126007 117.680840
v 122.465675 343.094910 112.857620
v 117.688469 324.487122 111.069916
v 117.785660 351.277466 123.299873
v 112.231804 343.071442 122.797646
v 113.977234 325.197418 115.204811
v 117.783272 334.606659 122.445488
v 118.409805 355.549438 110.964378
v 117.786301 353.847656 119.867157
v 112.604187 349.173035 115.347946
v 114.016060 351.267395 123.159607
v 110.213989 328.527832 121.320518
v 116.048462 354.102020 117.474709
v 111.416885 336.506836 115.445251
v 116.027786 325.165131 115.214806
v 122.282990 332.486542 113.202393
v 117.774551 326.728027 119.771347
v 112.028496 338.965118 122.413071
v 116.055473 343.098663 109.731964
v 110.786018 326.941345 117.531349
v 117.760773 340.753815 109.688446
v 111.139381 336.690308 117.631844
v 122.501129 354.286652 113.691513
v 119.709564 353.313812 111.104782
v 118.550240 324.884888 109.753983
v 111.964363 347.284973 122.062050
v 116.030220 351.276062 123.289268
v 117.786026 345.154175 123.493385
v 123.114670 342.877716 120.071762
v 111.566170 340.724365 117.701607
v 121.404068 353.419891 111.906158
v 120.744270 325.472961 112.304214
v 112.010025 330.527161 122.077736
v 113.376167 337.450439 110.413872
v 111.828644 330.439819 111.131561
v 113.977249 325.427734 116.038231
v 116.015503 328.428955 108.693382
v 114.116028 353.313446 119.855812
v 113.979691 332.555420 122.437897
v 112.593704 326.121124 109.533142
v 112.773132 352.495056 122.570374
v 117.775330 330.518280 122.316795
v 123.178032 349.301056 122.342941
v 111.956459 340.823364 122.860199
v 123.112335 343.002716 120.040810
v 116.044212 340.753815 109.663147
v 111.270233 334.586456 121.458466
v 111.439758 343.119568 119.996887
v 120.018082 328.455475 110.690475
v 121.824432 345.163086 123.190857
v 122.243607 338.712433 112.778389
v 113.449669 338.680176 110.492867
v 117.786011 349.255463 123.481384
v 121.792427 352.950897 122.275177
v 119.541245 327.899963 121.104179
v 117.801659 328.441681 109.104210
v 110.138695 328.501465 117.668228
v 121.848846 353.996155 117.449432
v 113.057159 330.465332 109.699310
v 122.747719 347.401794 122.834732
v 119.019753 340.759247 110.042313
v 111.981239 338.665894 113.529503
v 113.977615 336.655823 122.533279
v 112.915276 324.004852 108.698997
v 110.467865 332.459595 119.973488
v 121.425018 347.208282 111.701180
v 113.983299 328.646362 121.920715
v 114.003578 343.139008 110.596207
v 110.824524 333.206177 116.037827
v 113.705025 353.242676 113.464821
v 114.006676 347.204590 123.292938
v 112.917458 352.642059 120.002884
v 122.498619 343.899506 122.804321
v 111.036690 330.961487 112.769218
v 121.388214 351.316284 111.718811
v 119.835976 347.205048 123.470215
v 113.978027 338.881775 122.805275
v 111.933105 349.244812 120.066490
v 120.953423 327.292389 119.121094
v 113.975388 324.781097 113.458130
v 117.769028 328.647858 121.911522
v 119.740318 334.614105 122.090187
v 122.764336 338.600006 120.092590
v 121.749901 338.895660 121.947250
v 122.029137 332.563324 119.937500
v 117.855980 353.280945 111.098427
v 116.022591 324.615631 108.196701
v 123.197563 345.224609 113.882484
v 117.785767 354.306061 117.515450
v 117.786575 338.874115 122.849846
v 120.903999 332.588135 121.318855
v 121.043633 326.453979 112.089127
v 122.470390 336.677734 119.959816
v 113.997971 352.600250 122.731041
v 120.101913 336.646637 110.637497
v 111.421417 341.320984 122.585625
v 114.145836 347.185760 111.294853
v 119.833481 354.755859 115.483719
v 116.031113 353.747009 119.841789
v 116.028961 349.255005 123.459206
v 122.465233 326.918823 116.745049
v 123.406677 338.731476 117.783432
v 116.027977 325.413269 116.041969
v 120.204163 340.682709 110.717667
v 110.265839 326.152802 113.590942
v 121.480759 325.587402 113.541115
v 121.323074 334.607788 111.863808
v 117.760803 327.686523 121.263306
v 117.784859 349.249329 110.529617
v 123.145576 351.312439 113.503746
v 121.828667 325.566467 115.170967
v 112.527420 334.499573 111.120972
v 111.093422 332.387085 121.452728
v 122.278442 340.763702 112.740494
v 111.873772 345.100922 122.204697
v 122.196358 340.638306 122.447685
v 109.541931 327.735229 120.598763
v 120.667961 330.561432 121.413109
v 115.389397 345.798523 110.185875
v 110.541222 328.285309 113.360214
v 122.398521 328.501007 118.143494
v 116.027924 334.605927 122.507172
v 119.941872 345.216034 110.509354
v 120.062248 343.106781 110.558418
v 113.028152 343.048859 111.809311
v 116.036774 332.544128 108.908890
v 119.882477 326.446289 110.827965
v 119.899391 355.782623 111.010773
v 119.696976 330.522064 121.972557
v 117.789642 351.292267 110.764549
v 119.837067 352.633698 122.776726
v 111.373909 338.817780 117.681168
v 114.616608 353.940796 115.291710
v 122.933426 330.608429 117.350914
v 114.013336 349.253723 123.264320
v 112.400208 347.352570 115.496468
v 116.028336 347.205109 123.480179
v 123.328842 344.349152 120.151245
v 116.029160 343.107788 123.411789
v 123.813919 345.237640 117.738083
v 121.421982 328.560852 119.845375
v 123.772461 349.247467 120.010696
v 121.338745 340.970001 111.680916
v 110.922997 336.479004 120.155846
v 116.106537 353.195496 111.456207
v 122.773148 349.118195 122.839401
v 116.015663 330.496796 108.812958
v 123.827736 349.263550 115.304703
v 113.607536 353.015594 115.176796
v 117.786018 347.205078 123.500023
v 112.232353 345.153656 115.499794
v 122.826889 352.485474 122.239754
v 112.611305 324.024780 108.724213
v 123.702324 345.142242 115.381607
v 121.281303 332.556244 111.901108
v 116.464279 346.163177 109.941772
v 116.079437 354.519440 115.434692
v 114.170502 349.254608 111.553169
v 110.305550 327.484528 119.767914
v 111.900719 340.812683 115.173157
v 113.985497 324.368744 110.906769
v 119.728157 326.964874 119.675674
v 123.434921 338.712952 115.375862
v 124.293442 353.640015 116.956573
v 116.027916 336.650909 122.598564
v 117.776260 324.791138 113.465622
v 112.045677 334.604675 122.070023
v 119.818161 355.838531 111.026344
v 122.928383 353.301117 113.573006
v 121.765869 330.526154 120.025620
v 118.989914 345.040588 110.001335
v 114.567627 340.626892 110.015411
v 120.053436 332.572021 110.631332
v 113.537849 351.264801 112.761345
v 109.761421 328.657623 119.901466
v 116.029190 327.658264 121.285889
v 109.731667 327.992249 121.167831
v 123.159042 347.192169 122.330353
v 110.686081 333.031281 117.333389
v 112.907837 351.123749 115.366341
v 112.328506 345.138000 122.741112
v 111.975212 326.911499 119.716385
v 119.835281 345.154541 123.449921
v 114.325233 336.483765 109.741028
v 122.744537 352.495941 122.567314
v 117.764137 343.102081 109.708359
v 116.028320 340.821442 123.193130
v 123.778763 347.238251 115.308487
v 113.100670 323.940826 108.674850
v 110.950043 334.742706 117.406296
v 110.813133 330.413605 121.428017
v 117.785706 343.106964 123.424950
v 119.836037 354.286652 117.511162
v 111.697937 338.917694 115.508865
v 110.903419 335.760315 118.565002
v 117.786697 336.654724 122.548317
v 117.684563 326.212769 108.942596
v 119.827927 353.103149 122.261444
v 111.773483 343.122864 117.767380
v 112.087898 347.322327 117.728668
v 112.928131 323.960571 108.690247
v 121.365776 336.658600 111.833527
v 121.806374 354.440369 115.413246
v 116.028404 345.154388 123.475960
v 123.276993 336.708160 117.635353
v 117.772324 324.526398 109.104828
v 117.784225 353.134949 122.272530
v 113.194664 347.184967 112.255157
v 111.477173 334.503021 113.496544
v 119.831184 325.275604 115.188431
v 121.438965 345.158936 111.659767
v 113.450020 349.119751 112.380173
v 118.692535 336.633362 109.634529
v 113.106598 351.211823 113.481117
v 113.717552 340.831451 110.579803
v 110.243896 328.388153 115.560745
v 115.137405 344.750885 110.081383
v 122.833923 328.488861 115.397156
v 113.416580 352.778107 113.740540
v 119.823433 355.820831 110.998619
v 117.786255 325.417175 116.041023
v 112.666695 351.238617 122.735512
v 123.324280 353.836151 115.407753
v 121.684479 354.858337 113.104347
v 123.005318 345.146301 122.177917
v 115.995201 324.171753 111.056061
v 121.774040 325.828674 115.867210
v 113.982124 330.517670 122.337852
v 110.778709 332.659607 115.256561
v 117.789436 354.737335 115.480980
v 117.689659 336.702118 109.302879
v 119.738808 349.244873 110.892548
v 113.982231 326.715973 119.776741
v 122.633263 330.377319 118.370445
v 122.759583 351.485229 122.797508
v 112.153542 332.533447 111.044922
v 111.237984 342.177002 121.992325
v 120.259941 338.704620 110.781105
v 123.159935 334.688049 117.457817
v 118.577934 334.516937 109.454689
v 123.952576 347.178406 117.932350
v 123.257355 334.743652 115.366188
v 116.037628 353.111511 122.266769
v 112.641129 336.570587 111.308624
v 110.974228 326.525543 111.993561
v 119.770149 325.091309 113.448219
v 119.824913 355.232880 113.105980
v 116.041138 338.705872 109.517868
v 110.921059 332.246796 113.854439
v 119.713890 332.558228 122.032745
v 113.980469 327.678314 121.266861
v 120.044044 330.504730 110.663048
v 113.979591 340.834900 123.120010
v 121.804108 326.702240 117.429420
v 112.477837 349.222900 122.650970
v 121.750038 353.396637 119.799355
v 122.801369 328.515747 117.106384
v 111.626472 345.141296 120.149765
v 117.767494 345.139954 109.753952
v 112.894569 349.055756 113.550232
v 111.752945 336.500061 113.581894
v 122.679359 332.558167 118.639221
v 113.999886 343.113373 123.278954
v 114.002411 345.155273 123.303429
v 123.475319 340.766266 115.378952
v 122.261513 336.649353 112.875488
v 111.941978 327.745361 121.211105
v 116.096718 323.959381 109.444496
v 111.252472 332.663361 112.977074
v 122.460869 351.308990 112.520027
v 123.135139 343.078705 120.045021
v 117.783806 352.649475 122.796661
v 120.302063 328.797974 121.325829
v 112.223793 325.075714 110.935188
v 110.535065 332.248047 117.914612
v 111.932632 345.160889 117.801147
v 114.447777 351.127777 111.775856
v 110.169273 325.662842 113.869530
v 114.616852 353.218140 112.313293
v 109.444794 327.899872 120.638474
v 114.058792 332.478333 109.323570
v 119.357803 325.172180 111.219284
v 123.068535 343.108337 113.822182
v 121.196014 328.455658 111.969864
v 122.937149 330.557678 115.288216
v 112.315865 351.299652 119.981468
v 111.135231 334.669647 115.445648
v 114.022842 345.134979 110.856483
v 110.723915 334.550049 119.980133
v 118.793350 346.386810 110.048866
v 117.785721 325.873322 117.485184
v 115.838799 326.335510 108.294464
v 113.202988 352.944794 118.434052
v 115.176956 354.273407 112.564613
v 121.897171 326.491669 113.465385
v 121.393982 338.710419 111.804886
v 121.234261 330.505035 111.940880
v 113.979485 334.606567 122.452759
v 116.149902 354.768799 113.154564
v 116.025330 324.702698 113.480667
v 121.835983 347.206207 123.231018
v 112.680733 338.662903 111.572235
v 123.958855 351.302032 117.779877
v 123.160919 351.264160 122.305817
v 115.630020 325.414459 108.141212
v 119.830482 343.111450 123.355789
v 117.758003 347.424988 110.163261
v 122.114304 328.465424 113.368202
v 114.420113 338.672058 109.914185
v 123.150543 349.267120 113.503670
v 123.498589 340.742767 117.803261
v 122.780678 343.334900 122.249969
v 119.744225 355.787933 110.996155
v 116.070053 349.234711 110.752266
v 113.034386 332.515991 110.014519
v 112.804375 340.577423 111.706917
v 111.582298 343.136780 122.228745
v 110.441559 325.597870 113.502129
v 122.413246 349.259003 112.553619
v 115.929718 347.220978 110.279480
v 117.812607 355.091644 113.102768
v 111.144310 338.727814 119.032959
v 123.152565 347.308807 113.621552
v 119.838005 325.477264 116.025314
v 117.796501 330.506531 109.144112
v 112.555466 345.233124 113.395866
v 123.361740 336.684296 115.373932
v 112.776756 347.152191 113.273872
v 120.889503 355.573792 111.176979
v 117.809921 332.586517 109.146317
v 113.048996 351.905426 116.008942
v 119.822052 338.909790 122.644791
v 119.834412 351.272888 123.274353
v 122.378082 339.602325 121.747688
v 118.804893 326.388153 109.699539
v 111.996651 326.156952 117.402199
v 124.025047 349.265869 117.793350
v 117.754761 338.705353 109.566055
v 122.433090 342.543335 122.635490
v 114.094292 330.521149 109.130707
v 111.941063 325.633881 115.964523
v 122.876434 334.620636 113.965858
v 110.102196 330.413696 119.921364
v 123.572205 343.125305 115.369049
v 116.551865 354.346405 112.147972
v 121.659866 340.987793 122.797897
v 114.740372 354.212646 113.207405
v 114.405769 324.296814 108.362816
v 119.810722 326.053009 117.430885
v 116.027832 332.555115 122.482079
v 111.590851 328.523956 111.103691
v 114.167435 326.196503 108.687370
v 121.865051 343.121246 123.046913
v 124.346863 353.571808 116.425743
v 122.505615 346.998383 112.706390
v 121.423958 343.114288 111.673523
v 122.982079 340.763306 113.877663
v 122.555183 340.721436 121.908363
v 112.626694 351.283844 117.761131
v 115.932220 324.020081 108.857536
v 118.825310 328.451111 109.667625
v 121.346436 336.865082 121.489067
v 117.780533 332.555511 122.411171
v 116.099625 334.545898 109.026932
v 111.041420 338.755920 120.223320
v 119.707619 351.307983 110.995941
v 110.407036 330.504089 115.456490
v 120.125038 334.612335 110.631531
v 117.934280 346.391174 109.854897
v 117.785286 340.822113 123.185982
v 122.535278 345.160614 112.818893
v 116.027710 330.513489 122.382225
v 122.337639 325.880859 115.045982
v 122.956375 338.710144 113.894608
v 122.170403 334.773407 120.028534
v 119.828896 340.834320 123.097771
v 112.267693 349.261505 117.725906
v 118.862045 332.556091 109.636688
v 110.734627 334.610352 118.486168
v 112.765205 352.540802 122.389290
v 122.999733 332.583130 117.522591
v 112.844139 328.304016 109.678078
v 116.069664 336.606873 109.254158
v 111.430420 338.964508 121.844131
v 110.691666 330.337219 113.624672
v 123.882576 351.432678 115.299774
v 122.923004 336.675232 113.926872
v 113.044685 345.022400 112.143127
v 119.830475 353.788574 119.856430
v 122.576736 345.181213 122.820740
v 119.000565 338.654449 109.978432
v 114.068092 352.946045 122.269226
v 110.970238 336.963226 118.960678
v 112.217789 340.885864 113.422585
v 112.326775 351.161652 122.283913
v 112.082497 343.129120 115.506584
v 123.580093 351.092010 119.962677
v 111.433289 340.335175 122.557564
v 111.513596 325.404480 111.957123
v 116.027618 352.644714 122.791870
v 112.389557 342.867584 113.430496
v 121.861107 352.600250 122.738846
v 123.073097 342.189392 120.049393
v 122.239815 334.598602 112.942741
v 118.826149 330.506378 109.668541
v 110.196289 330.463928 117.838966
v 119.784698 336.678253 122.245148
v 123.056068 332.553986 115.150032
v 116.998505 324.464447 108.522820
v 113.875900 353.346588 117.332802
v 114.102882 328.434357 108.964348
v 111.977150 328.674713 121.784218
v 112.054840 336.680969 122.103027
v 123.685516 347.275391 120.056244
v 119.647484 328.708099 121.689476
v 111.955864 325.369080 115.159073
v 117.169037 324.263916 108.751183
v 111.766495 326.468903 110.783119
v 119.060616 343.103241 110.011902
v 111.190514 340.959808 119.608978
v 121.042717 334.783783 121.383133
v 122.803757 334.580048 118.713158
v 121.840332 351.268982 123.154388
v 121.405937 349.318604 111.714310
v 113.979195 325.896423 117.477585
v 119.675400 347.212891 110.573357
v 112.023682 332.553253 122.099037
v 117.669792 334.593842 109.087296
v 116.027946 325.852539 117.490952
v 119.835304 349.254608 123.448547
v 110.338127 325.873535 114.606369
v 111.757072 347.112488 120.150757
v 114.259308 334.504608 109.561356
v 122.831329 333.402740 114.007027
v 111.398186 336.512909 121.535789
v 124.338043 353.583008 116.512978
v 111.012787 340.451141 120.854408
v 117.785728 325.183868 115.209564
v 121.838593 349.254517 123.237335
v 122.391762 352.954895 112.578880
v 114.850571 342.893921 110.017708
v 112.060722 349.303345 122.044624
v 112.422401 347.187653 122.675209
v 110.032463 327.882568 121.125847
v 116.032379 345.158478 109.793198
v 116.028046 338.870331 122.874336
v 110.923561 333.629303 115.558632
v 110.499344 326.437836 115.587753
v 111.075134 340.883240 122.241684
# 457 vertices, 0 vertices normals

f 7 119 235
f 405 311 345
f 207 404 284
f 242 93 270
f 181 305 163
f 434 131 219
f 321 16 176
f 214 276 11
f 52 261 85
f 452 20 275
f 38 168 207
f 13 271 261
f 130 71 173
f 344 190 241
f 36 191 314
f 79 143 145
f 288 185 125
f 229 111 299
f 113 456 439
f 273 9 352
f 11 174 254
f 37 320 233
f 292 316 1
f 265 129 242
f 50 371 137
f 398 58 309
f 285 322 5
f 292 1 305
f 78 287 355
f 79 145 212
f 322 117 5
f 108 61 158
f 238 106 97
f 31 231 232
f 279 186 422
f 40 114 303
f 344 456 28
f 269 252 70
f 175 47 435
f 279 148 9
f 252 441 192
f 446 229 332
f 54 29 27
f 237 295 455
f 210 59 304
f 386 260 181
f 325 189 13
f 402 133 409
f 367 339 418
f 68 51 186
f 336 18 144
f 422 186 51
f 321 32 176
f 197 72 209
f 50 137 423
f 81 58 398
f 167 288 125
f 261 271 195
f 226 142 293
f 408 12 35
f 198 187 77
f 43 244 82
f 267 179 377
f 230 49 19
f 452 185 20
f 202 402 168
f 402 409 168
f 52 457 104
f 338 386 248
f 55 175 435
f 452 275 190
f 352 148 162
f 257 277 237
f 6 116 184
f 333 413 386
f 138 374 94
f 296 225 127
f 305 1 24
f 80 418 46
f 362 444 172
f 74 327 432
f 442 350 412
f 197 161 209
f 446 332 218
f 266 284 440
f 454 98 204
f 362 444 394
f 376 115 103
f 392 373 457
f 341 139 431
f 43 390 67
f 432 278 83
f 225 27 453
f 372 391 192
f 100 316 292
f 82 244 277
f 74 363 327
f 326 286 439
f 21 238 97
f 213 430 101
f 164 328 453
f 248 181 376
f 174 446 218
f 216 220 268
f 61 438 84
f 331 196 156
f 4 37 53
f 149 178 129
f 123 451 189
f 314 361 354
f 22 295 217
f 148 422 249
f 215 206 139
f 165 21 418
f 19 35 108
f 189 272 271
f 189 451 272
f 83 278 448
f 367 18 188
f 237 283 375
f 6 184 75
f 325 123 189
f 318 156 394
f 381 7 114
f 113 439 286
f 140 38 428
f 168 404 207
f 411 320 37
f 98 378 340
f 198 295 22
f 106 211 201
f 358 130 371
f 85 261 454
f 197 356 72
f 73 199 351
f 362 172 444
f 30 401 203
f 369 135 57
f 380 47 358
f 147 200 378
f 257 393 277
f 252 310 70
f 263 143 79
f 416 250 442
f 107 21 17
f 326 439 424
f 218 235 119
f 229 357 332
f 139 206 410
f 247 213 250
f 251 400 46
f 104 325 13
f 426 48 359
f 26 406 52
f 44 437 111
f 360 72 356
f 87 281 149
f 398 309 68
f 194 69 427
f 198 30 387
f 162 148 249
f 452 125 185
f 246 304 112
f 56 207 266
f 40 303 100
f 395 171 382
f 174 308 446
f 27 29 194
f 413 57 260
f 446 23 229
f 213 335 250
f 443 421 175
f 145 108 158
f 350 395 274
f 319 411 37
f 182 287 78
f 147 212 200
f 324 60 223
f 380 50 89
f 380 236 47
f 26 52 85
f 188 157 339
f 208 385 86
f 332 262 235
f 403 49 230
f 118 177 448
f 140 22 202
f 150 312 405
f 70 402 202
f 450 86 403
f 262 149 129
f 307 329 238
f 112 304 151
f 154 243 312
f 4 53 411
f 205 343 369
f 277 244 217
f 13 189 271
f 338 248 436
f 85 454 173
f 368 72 276
f 446 308 23
f 290 343 33
f 82 277 393
f 218 332 235
f 231 444 362
f 409 133 334
f 183 167 28
f 440 284 208
f 132 151 364
f 358 371 50
f 86 385 294
f 137 258 126
f 222 188 268
f 6 89 116
f 152 203 401
f 282 88 169
f 68 447 154
f 326 424 3
f 393 375 128
f 420 75 259
f 256 239 346
f 230 19 143
f 280 215 139
f 29 399 69
f 266 207 284
f 339 157 418
f 76 180 449
f 181 163 376
f 425 214 417
f 213 110 335
f 120 323 441
f 4 366 411
f 350 250 335
f 319 9 273
f 376 163 115
f 26 85 71
f 342 124 366
f 55 435 121
f 408 251 280
f 25 184 116
f 296 328 105
f 384 354 92
f 231 211 232
f 140 30 22
f 41 435 236
f 449 27 225
f 251 215 280
f 453 328 127
f 44 111 14
f 307 355 302
f 198 22 30
f 350 274 412
f 44 433 437
f 208 159 144
f 290 40 135
f 152 330 373
f 220 222 268
f 68 154 51
f 78 141 157
f 210 274 59
f 283 187 198
f 247 430 213
f 323 289 441
f 69 246 112
f 17 397 206
f 442 412 24
f 31 232 136
f 73 121 199
f 7 265 226
f 160 62 264
f 357 87 262
f 48 360 390
f 284 159 208
f 342 92 124
f 240 432 83
f 269 120 252
f 77 455 295
f 200 314 384
f 90 415 429
f 67 289 323
f 8 264 66
f 191 84 58
f 134 338 372
f 253 359 128
f 420 199 41
f 318 394 118
f 297 387 152
f 150 405 345
f 342 366 91
f 195 378 98
f 192 317 60
f 80 46 400
f 320 81 233
f 370 92 101
f 362 394 311
f 365 122 59
f 391 317 192
f 156 345 311
f 195 147 378
f 3 14 88
f 453 194 267
f 99 383 93
f 304 59 122
f 415 370 429
f 109 235 262
f 290 135 343
f 41 121 435
f 155 289 348
f 358 306 130
f 291 352 162
f 29 69 194
f 369 57 413
f 372 192 441
f 173 204 15
f 296 449 225
f 377 298 434
f 52 104 13
f 282 426 407
f 27 194 453
f 252 192 42
f 334 144 159
f 156 311 394
f 238 329 106
f 308 169 88
f 320 361 81
f 38 202 168
f 296 127 328
f 397 264 62
f 386 181 248
f 310 60 324
f 326 113 286
f 382 273 365
f 263 230 143
f 397 201 264
f 151 122 10
f 287 153 302
f 409 334 159
f 107 46 418
f 330 140 428
f 179 132 131
f 212 36 200
f 6 75 236
f 26 71 421
f 182 227 222
f 204 415 90
f 422 150 249
f 239 221 346
f 285 5 153
f 56 325 245
f 417 214 205
f 427 132 179
f 23 88 14
f 97 201 397
f 279 233 186
f 12 280 341
f 293 389 416
f 310 42 60
f 331 327 363
f 237 187 283
f 454 195 98
f 41 199 121
f 326 3 407
f 366 320 411
f 349 456 344
f 439 349 424
f 17 97 397
f 57 100 292
f 52 13 261
f 439 456 349
f 56 245 457
f 319 37 9
f 178 93 242
f 38 207 56
f 157 141 418
f 237 375 393
f 84 438 309
f 442 250 350
f 271 147 195
f 214 343 205
f 60 317 223
f 414 375 283
f 64 413 333
f 188 18 268
f 340 384 92
f 166 285 182
f 201 66 264
f 95 356 209
f 64 369 413
f 55 121 73
f 275 259 241
f 269 70 202
f 297 73 283
f 229 299 357
f 322 315 117
f 299 170 357
f 165 307 238
f 107 17 215
f 234 72 169
f 396 216 334
f 198 77 295
f 213 101 91
f 231 66 211
f 456 65 28
f 152 392 443
f 425 417 368
f 331 363 379
f 78 355 141
f 177 31 39
f 237 455 77
f 164 267 377
f 314 191 361
f 8 160 264
f 252 42 310
f 382 171 273
f 15 90 258
f 229 23 111
f 440 208 86
f 260 305 181
f 133 296 396
f 149 281 126
f 428 457 445
f 67 348 289
f 434 219 74
f 192 60 42
f 17 206 215
f 227 78 157
f 93 383 270
f 416 247 250
f 176 136 337
f 282 169 197
f 164 377 315
f 220 166 222
f 254 119 114
f 149 126 178
f 435 47 236
f 324 133 402
f 86 294 403
f 342 91 92
f 94 32 321
f 297 152 55
f 319 273 171
f 176 39 136
f 4 411 319
f 183 288 167
f 37 279 9
f 165 355 307
f 134 372 441
f 175 306 47
f 179 131 298
f 271 272 147
f 205 45 300
f 131 132 364
f 205 300 95
f 96 196 331
f 183 199 20
f 53 279 146
f 76 449 296
f 353 94 321
f 243 193 160
f 110 4 319
f 43 67 244
f 277 217 295
f 365 273 352
f 391 239 256
f 25 2 184
f 182 285 287
f 368 95 209
f 299 111 437
f 21 97 17
f 154 431 243
f 269 202 22
f 248 376 103
f 244 67 323
f 177 39 448
f 291 96 10
f 328 315 322
f 175 421 306
f 83 448 39
f 364 379 219
f 318 118 278
f 398 186 233
f 243 410 193
f 158 61 84
f 321 176 255
f 158 84 191
f 397 62 206
f 391 436 239
f 197 48 426
f 228 337 136
f 293 1 316
f 416 389 247
f 349 433 44
f 68 309 447
f 370 101 383
f 142 270 389
f 299 437 25
f 359 43 128
f 109 129 265
f 104 245 325
f 152 401 330
f 417 95 368
f 341 431 447
f 35 12 61
f 344 28 190
f 440 86 34
f 67 419 348
f 378 200 384
f 163 24 412
f 398 68 186
f 294 388 403
f 8 362 311
f 92 91 101
f 413 260 386
f 11 234 174
f 310 324 402
f 349 344 433
f 92 354 124
f 438 341 447
f 182 78 227
f 275 20 420
f 8 66 362
f 37 146 279
f 4 91 366
f 84 309 58
f 15 204 90
f 11 254 290
f 140 202 38
f 165 418 141
f 419 300 45
f 110 91 4
f 116 89 63
f 222 227 188
f 429 370 383
f 178 126 99
f 237 277 295
f 392 457 406
f 99 429 383
f 130 306 71
f 174 234 308
f 53 37 279
f 261 195 454
f 109 262 129
f 326 407 253
f 165 141 355
f 282 3 88
f 166 322 285
f 382 365 59
f 7 226 303
f 216 105 220
f 167 125 452
f 377 179 298
f 197 209 356
f 188 227 157
f 153 138 94
f 353 307 302
f 105 328 166
f 347 361 320
f 97 106 201
f 299 25 170
f 96 331 379
f 408 400 251
f 143 19 108
f 213 91 110
f 174 218 254
f 304 122 151
f 237 77 187
f 41 236 75
f 358 47 306
f 333 386 338
f 380 358 50
f 7 109 265
f 433 2 437
f 388 400 102
f 194 427 267
f 178 99 93
f 197 169 72
f 56 123 325
f 336 268 18
f 8 312 160
f 438 447 309
f 130 173 15
f 276 72 234
f 81 361 58
f 113 224 456
f 399 246 69
f 249 150 345
f 118 448 278
f 3 424 14
f 54 346 29
f 414 65 375
f 395 335 171
f 257 237 393
f 321 228 16
f 344 241 433
f 451 79 272
f 106 255 211
f 291 162 96
f 346 399 29
f 426 253 407
f 415 340 370
f 23 14 111
f 214 11 290
f 428 445 373
f 246 210 304
f 326 253 113
f 155 64 333
f 34 450 263
f 294 80 388
f 360 356 300
f 315 434 117
f 424 44 14
f 282 407 3
f 130 15 371
f 282 197 426
f 69 112 427
f 201 211 66
f 305 24 163
f 330 30 140
f 154 447 431
f 163 412 115
f 214 290 33
f 367 301 80
f 7 235 109
f 107 418 21
f 414 351 65
f 52 406 457
f 142 242 270
f 166 328 322
f 80 301 418
f 166 182 222
f 117 240 138
f 6 236 380
f 183 28 65
f 113 128 224
f 134 441 289
f 353 302 153
f 113 253 128
f 350 335 395
f 385 367 294
f 219 363 74
f 26 392 406
f 258 99 126
f 243 160 312
f 367 418 301
f 360 300 419
f 152 373 392
f 214 33 343
f 450 230 263
f 290 254 114
f 139 410 431
f 165 238 21
f 183 65 351
f 389 430 247
f 115 412 274
f 378 384 340
f 381 114 119
f 61 12 438
f 193 62 160
f 425 368 276
f 422 51 150
f 426 359 253
f 30 203 387
f 168 409 404
f 427 112 132
f 451 263 79
f 359 390 43
f 432 327 278
f 143 108 145
f 343 135 369
f 150 51 312
f 425 276 214
f 155 348 45
f 366 347 320
f 105 166 220
f 428 38 56
f 104 457 245
f 170 63 87
f 180 256 54
f 347 354 361
f 176 337 228
f 368 209 72
f 180 54 449
f 416 24 1
f 445 457 373
f 334 216 336
f 433 241 2
f 249 345 196
f 53 146 37
f 34 86 450
f 436 248 239
f 291 10 122
f 391 256 317
f 298 131 434
f 443 392 421
f 6 380 89
f 167 452 190
f 100 303 316
f 226 293 316
f 225 453 127
f 5 117 138
f 80 400 388
f 280 139 341
f 294 367 80
f 48 72 360
f 176 136 232
f 226 265 142
f 346 221 399
f 108 35 61
f 330 401 30
f 365 352 291
f 57 292 260
f 423 126 281
f 456 224 65
f 49 102 19
f 288 20 185
f 329 255 106
f 110 319 171
f 56 266 123
f 154 312 51
f 120 441 252
f 377 434 315
f 449 54 27
f 414 283 73
f 372 436 391
f 388 102 49
f 297 283 387
f 37 233 279
f 290 114 40
f 103 115 210
f 285 153 287
f 283 198 387
f 259 184 2
f 421 71 306
f 8 405 312
f 81 398 233
f 152 387 203
f 434 74 240
f 7 303 114
f 411 53 37
f 98 340 415
f 223 317 180
f 284 404 159
f 256 346 54
f 5 138 153
f 219 379 363
f 8 311 405
f 258 90 99
f 244 323 120
f 197 72 48
f 196 345 156
f 389 270 430
f 321 255 329
f 321 176 228
f 19 102 35
f 205 64 45
f 353 153 94
f 352 9 148
f 107 215 251
f 270 383 430
f 231 362 66
f 32 83 39
f 396 296 216
f 385 18 367
f 176 228 136
f 318 278 327
f 353 321 329
f 357 170 87
f 36 158 191
f 240 74 432
f 155 45 64
f 372 338 436
f 197 209 161
f 259 75 184
f 331 318 327
f 115 274 210
f 176 232 255
f 164 453 267
f 272 212 147
f 308 88 23
f 34 263 451
f 173 454 204
f 55 443 175
f 234 169 308
f 254 218 119
f 366 124 347
f 133 396 334
f 340 92 370
f 4 411 37
f 89 50 423
f 382 59 274
f 183 351 199
f 145 158 36
f 240 83 374
f 117 434 240
f 347 124 354
f 135 100 57
f 89 423 63
f 191 58 361
f 371 15 258
f 123 34 451
f 112 151 132
f 365 291 122
f 374 83 32
f 419 45 348
f 416 442 24
f 177 231 31
f 359 48 390
f 138 240 374
f 43 393 128
f 269 22 217
f 133 223 76
f 243 431 410
f 96 162 196
f 118 394 444
f 383 101 430
f 25 437 2
f 162 249 196
f 107 251 46
f 395 382 274
f 408 102 400
f 409 159 404
f 226 316 303
f 324 223 133
f 31 136 39
f 241 259 2
f 133 76 296
f 330 428 373
f 367 188 339
f 204 98 415
f 300 356 313
f 63 281 87
f 332 357 262
f 208 144 385
f 262 87 149
f 190 275 241
f 260 292 305
f 399 103 246
f 43 82 393
f 26 421 392
f 297 55 73
f 95 313 356
f 310 402 70
f 293 416 1
f 385 144 18
f 205 369 64
f 353 329 307
f 414 73 351
f 336 216 268
f 384 314 354
f 375 224 128
f 420 41 75
f 334 336 144
f 375 65 224
f 90 429 99
f 223 180 76
f 32 39 176
f 134 333 338
f 118 444 177
f 428 56 457
f 317 256 180
f 94 374 32
f 55 152 443
f 71 85 173
f 381 119 7
f 403 388 49
f 450 403 230
f 217 244 120
f 279 422 148
f 293 142 389
f 183 20 288
f 16 228 176
f 178 242 129
f 11 276 234
f 287 302 355
f 296 105 216
f 95 300 313
f 12 341 438
f 103 210 246
f 272 79 212
f 167 190 28
f 267 427 179
f 265 242 142
f 212 145 36
f 206 62 410
f 110 171 335
f 420 20 199
f 255 232 211
f 408 35 102
f 96 379 10
f 364 10 379
f 193 410 62
f 424 349 44
f 131 364 219
f 331 156 318
f 371 258 137
f 221 103 399
f 417 205 95
f 155 333 134
f 408 280 12
f 116 63 170
f 151 10 364
f 155 134 289
f 25 116 170
f 390 419 67
f 135 40 100
f 269 217 120
f 266 440 34
f 63 423 281
f 177 444 231
f 239 248 221
f 248 103 221
f 423 137 126
f 275 420 259
f 200 36 314
f 164 315 328
f 390 360 419
f 266 34 123
# 918 faces, 0 coords texture

# End of File