####
#
# OBJ File Generated by Meshlab
#
####
# Object Volume_196.obj
#
# Vertices: 583
# Faces: 1168
#
####
v 146.365204 149.076355 132.972931
v 152.360001 155.583008 132.500015
v 148.282288 146.948090 144.272888
v 144.175735 146.122269 137.827164
v 152.360016 166.130798 132.508469
v 154.672318 161.537888 143.169617
v 165.698837 153.515564 134.377777
v 160.138290 162.735641 143.058746
v 144.589844 148.856613 143.058289
v 156.374512 163.814056 142.668320
v 158.513123 144.695480 144.608429
v 165.442398 147.055359 143.009262
v 166.405563 157.604767 137.706207
v 158.540619 153.480515 144.203049
v 146.215546 145.508469 140.139908
v 165.914413 155.619385 140.636337
v 143.374527 165.461456 138.520081
v 148.272842 151.482132 132.655930
v 164.409927 153.541885 143.526230
v 166.122498 163.759048 136.099747
v 162.199112 161.734726 132.911316
v 143.598373 157.628998 140.703995
v 148.258377 145.408981 140.126038
v 143.480820 159.337769 134.956635
v 165.383896 149.108765 142.913132
v 158.512482 169.746643 135.725388
v 160.564041 167.558105 139.475754
v 150.398468 146.961563 144.582565
v 152.361938 165.541016 141.534866
v 164.970200 149.155151 133.441132
v 166.208038 161.722168 135.848251
v 144.300827 145.578308 142.474609
v 165.489563 161.654922 134.834488
v 147.028870 153.017853 143.081329
v 143.215591 146.912231 142.017548
v 145.632294 152.065628 142.807556
v 150.596970 157.454208 143.159622
v 156.461899 159.684982 132.500015
v 162.612366 159.679001 143.419724
v 144.485397 157.616577 141.414093
v 164.980774 168.108047 135.320801
v 165.305801 146.402954 137.777222
v 162.565918 144.565659 144.265747
v 148.278931 168.166946 132.732697
v 158.513046 146.104813 136.958984
v 162.875320 147.189529 144.738663
v 160.553070 161.735825 132.627090
v 150.309509 155.583008 132.519440
v 152.361557 144.809036 142.514908
v 158.512878 159.684708 143.507004
v 148.884720 144.449524 145.002655
v 154.411026 157.633957 132.500031
v 165.530014 147.847549 134.524216
v 149.761307 158.056412 142.971283
v 160.558899 157.632492 132.583649
v 154.411026 159.684921 132.500000
v 156.493134 162.723099 143.048080
v 144.318253 161.725128 141.175369
v 162.594864 149.172668 132.798386
v 154.051224 162.233582 142.967743
v 156.466614 153.686996 144.054779
v 160.560867 147.267929 133.738159
v 156.461975 147.263870 133.736938
v 154.415039 144.548828 144.205887
v 142.972794 151.898193 138.967422
v 164.488754 146.960510 143.939941
v 145.282242 147.295120 132.968124
v 152.367844 163.747192 142.351303
v 165.257004 166.321838 135.118515
v 162.599838 145.170883 144.877487
v 149.271530 144.915909 144.513153
v 165.869339 157.529312 142.204788
v 154.413452 144.706116 144.593033
v 164.059738 151.285309 132.987122
v 148.273712 159.685181 132.648438
v 158.512985 146.509521 135.506119
v 164.626587 161.721405 134.047592
v 152.835281 146.336090 144.994186
v 152.359970 157.633987 132.500000
v 143.298050 148.778290 141.631073
v 158.511703 168.172287 132.621826
v 165.887207 151.696884 140.806992
v 160.565216 168.604370 137.738373
v 144.146255 151.463425 134.048279
v 165.449585 168.374496 136.275452
v 142.675034 149.038971 134.904709
v 163.922485 144.776688 144.811157
v 152.359940 153.532013 132.500000
v 164.571686 146.987839 135.645477
v 160.543564 168.168274 132.723663
v 148.279663 149.182938 132.828110
v 164.728989 147.621124 133.668991
v 150.309906 170.455994 133.917023
v 165.635696 145.868439 142.689621
v 150.309402 163.787064 132.518127
v 154.411041 161.736053 132.499985
v 165.984116 153.528168 140.752838
v 143.466446 153.449707 134.951004
v 160.563293 145.375305 140.120407
v 156.461899 161.735962 132.500000
v 146.808472 161.828171 132.929642
v 160.563568 166.690521 140.612869
v 148.271942 161.736130 132.641953
v 152.371078 157.629395 143.372650
v 143.038208 152.917328 138.954086
v 150.310150 168.172287 132.620972
v 151.715210 160.429169 142.987701
v 148.259094 168.585266 137.728806
v 142.815430 151.891464 138.013382
v 143.604294 145.955536 142.268845
v 162.598801 149.127304 144.482437
v 166.569794 159.641708 137.690094
v 162.570114 151.467560 144.214325
v 150.315170 165.527222 141.497604
v 161.168060 162.621994 143.012894
v 165.451416 146.351974 137.782333
v 154.313644 147.695724 144.941757
v 143.179398 159.680023 139.717651
v 146.457321 168.167801 133.168869
v 162.590179 147.321518 133.748764
v 146.207489 145.927002 137.803711
v 160.563278 159.682541 143.476242
v 144.447800 145.891876 143.055054
v 162.147995 168.164322 133.038422
v 158.512939 153.532059 132.500015
v 162.427032 169.958221 133.804214
v 154.416260 159.674774 143.364105
v 154.425079 153.429688 143.951172
v 148.266373 145.071152 142.647705
v 165.730255 153.530991 142.136398
v 148.310577 163.722382 142.036926
v 148.255722 149.132843 143.971054
v 156.461945 146.510239 135.506363
v 166.009018 166.105759 136.206070
v 165.759262 151.432419 142.134247
v 158.511642 151.479599 144.493469
v 164.471024 151.467682 143.599716
v 154.410980 146.510254 135.506317
v 160.573425 170.453659 133.394775
v 141.450439 149.844223 135.929810
v 154.412033 157.633087 143.510925
v 162.666306 146.211670 136.982040
v 165.850555 156.612442 139.777542
v 164.584518 155.572021 143.332916
v 165.949890 156.946930 139.867737
v 146.137497 159.655518 141.993057
v 148.279663 161.730164 142.325790
v 160.550446 166.130478 132.647217
v 160.555420 153.490692 144.198761
v 165.616455 146.988708 142.135086
v 162.580551 145.592682 140.177490
v 160.562500 149.170868 132.728424
v 162.616104 157.634888 143.560715
v 156.461914 157.634003 132.500015
v 148.282013 170.027573 133.085281
v 163.406799 157.913589 133.144379
v 146.285004 148.998123 143.643814
v 158.512573 159.684952 132.515060
v 162.565262 169.403610 135.585312
v 160.596893 161.750076 143.307617
v 142.722656 146.964493 137.338898
v 154.411072 145.900269 137.797745
v 143.628647 165.515961 139.617798
v 143.136856 157.596832 139.732513
v 162.606979 146.016800 137.828690
v 160.614594 163.791016 142.682526
v 150.309143 169.754745 135.729599
v 150.310730 149.170959 132.728821
v 152.361328 155.582474 143.531982
v 163.239014 166.124908 133.428360
v 154.411026 145.335693 140.110428
v 158.512756 144.543686 144.204224
v 164.214294 149.109909 133.042694
v 142.090622 147.680786 135.722855
v 164.568527 163.735535 134.175903
v 166.321045 153.535995 137.643280
v 156.461975 155.583008 132.500000
v 163.860580 154.606232 132.994095
v 143.934265 149.349747 142.437332
v 142.260925 149.074448 137.503830
v 143.895874 145.804779 142.739258
v 148.265289 166.131546 132.613449
v 156.464478 145.200485 144.915848
v 150.301361 144.714447 144.892792
v 150.366730 151.330292 143.880295
v 146.738297 151.354660 132.910812
v 146.215912 157.666565 142.175125
v 165.806656 157.604294 134.790161
v 146.935944 155.582932 132.916199
v 160.567490 157.648483 143.658737
v 165.556808 157.684586 142.736313
v 150.310074 166.670334 140.590500
v 158.511337 161.713989 143.314728
v 143.603409 163.952255 135.528687
v 152.359894 146.510223 135.506348
v 165.179962 147.120239 140.041016
v 152.359985 166.677567 140.597916
v 142.921371 159.673111 137.510239
v 165.792053 168.020401 136.297394
v 165.702103 148.573166 138.716293
v 146.544739 170.032593 133.324432
v 160.562958 144.778885 142.507080
v 144.293976 159.691284 141.229065
v 144.174255 146.335541 137.025543
v 160.618866 149.202118 144.866989
v 144.588211 166.828186 138.994202
v 143.012466 161.638397 137.795914
v 158.512772 157.633881 132.515076
v 156.465500 165.563843 141.635620
v 146.278503 145.444244 142.438980
v 144.635941 166.216675 134.253860
v 154.408081 149.164200 144.648621
v 164.625671 159.664246 143.208633
v 141.431519 149.877533 135.881592
v 162.616287 144.920670 142.567200
v 156.461914 149.169327 132.717865
v 162.363693 157.515579 132.847137
v 142.996979 151.284058 134.930496
v 160.563766 146.111679 136.960693
v 146.414673 170.220032 133.847214
v 158.511856 157.647659 143.648834
v 148.270676 163.787567 132.639938
v 144.152847 166.081787 140.006393
v 152.340286 144.592667 144.222992
v 156.461182 147.969528 145.006744
v 154.411011 170.400208 133.393646
v 146.637604 170.324448 133.440475
v 156.462082 166.694824 140.617172
v 144.284378 155.581436 134.179886
v 166.209213 155.586105 135.670731
v 164.641968 168.310455 137.619522
v 146.299240 169.433594 135.560577
v 158.513046 145.900391 137.797714
v 143.693146 161.715103 140.616943
v 166.234558 157.621262 135.729172
v 152.280045 147.100067 144.874359
v 150.312973 147.801041 133.224060
v 146.933334 159.689606 132.915222
v 156.461914 151.481491 132.519928
v 150.309097 168.617020 137.747482
v 166.441010 166.077087 137.653656
v 154.411011 147.263840 133.736923
v 150.309082 145.904739 137.798767
v 146.206909 146.563004 135.515305
v 158.498276 155.507782 143.894302
v 154.432877 151.444611 144.237854
v 154.411087 155.583054 132.500015
v 145.761719 161.696198 133.355209
v 144.298172 159.694992 134.237701
v 146.927887 153.525909 132.902542
v 150.309021 146.104324 136.958847
v 156.461975 147.796814 133.215683
v 148.274170 153.532013 132.651871
v 154.416107 145.194397 144.901001
v 165.960678 166.106674 139.707886
v 144.321823 153.485687 141.772842
v 158.512939 167.558380 139.476089
v 152.360062 151.481476 132.519928
v 156.462204 170.400101 133.393677
v 144.445724 146.901184 143.346329
v 164.607300 157.627380 143.251328
v 145.798935 157.634171 133.334457
v 156.463959 157.636078 143.597397
v 156.460052 151.476837 144.392563
v 160.562225 165.563446 141.626160
v 156.461945 167.558243 139.475967
v 165.660660 155.507263 134.533844
v 156.461945 169.755859 135.730209
v 144.313492 155.644440 141.559311
v 158.512833 149.169266 132.717896
v 162.611908 153.575302 143.986938
v 166.276825 155.579575 137.765289
v 143.637268 159.680557 140.665665
v 165.635330 165.111664 140.993790
v 146.430420 145.885056 143.394669
v 165.584808 161.065292 142.709900
v 165.722855 151.453354 134.332581
v 150.309433 147.264938 133.737534
v 151.306152 158.986755 143.117386
v 145.543457 169.350052 134.241394
v 156.461945 153.532059 132.500031
v 160.539124 170.052017 133.067429
v 158.512543 163.787064 132.517960
v 143.113739 153.122620 135.785400
v 144.422302 163.676178 141.053040
v 150.309982 170.027405 133.052429
v 150.293961 155.594467 143.329361
v 165.684006 149.119812 142.046127
v 161.845581 170.255219 133.336090
v 144.403351 167.849991 135.585571
v 142.990067 155.058975 137.772186
v 150.309464 159.684937 132.519211
v 152.360092 145.351364 140.114304
v 144.907318 168.646164 135.327744
v 159.135895 148.115952 145.133286
v 163.142151 168.148895 133.542160
v 152.356720 149.137573 144.463776
v 142.813110 149.027847 140.060806
v 154.416962 163.770706 142.492828
v 145.552414 165.868973 133.370026
v 162.609695 166.666794 140.590424
v 162.183548 163.785782 132.949265
v 146.265610 168.335617 137.588165
v 161.932541 170.050552 133.264481
v 145.014648 150.399506 142.910294
v 150.529724 144.754776 144.855148
v 167.298065 167.871277 138.523849
v 150.321014 163.734436 142.217224
v 150.309494 153.532074 132.519638
v 150.309967 151.482040 132.541016
v 158.512924 147.264236 133.737183
v 146.935883 157.634140 132.916046
v 160.561829 155.581833 132.564178
v 144.288406 157.631683 134.189423
v 162.614777 168.521744 137.693039
v 152.360016 170.400192 133.393692
v 143.206833 153.577881 139.893066
v 148.126984 155.850845 142.937988
v 146.272034 166.501968 140.426666
v 145.025742 147.268478 133.097839
v 148.260864 167.521561 139.451431
v 162.596573 151.481384 132.668060
v 152.360001 169.755585 135.730057
v 146.260483 147.165100 143.737518
v 150.312408 153.531296 143.550446
v 148.324692 157.575958 142.707001
v 154.411057 153.532074 132.500015
v 156.461960 168.173553 132.609070
v 163.328445 161.730530 133.313202
v 162.713287 162.342667 142.984238
v 160.559113 145.208496 144.936981
v 162.649155 144.637817 144.577744
v 142.882965 147.889679 135.044434
v 164.409836 168.827393 135.657669
v 142.202744 147.387161 135.940872
v 152.359970 145.900238 137.797684
v 150.309494 166.130661 132.523895
v 158.522064 170.400223 133.392838
v 164.059769 168.123215 134.284714
v 158.512680 161.736069 132.515106
v 142.988358 154.179962 137.720444
v 162.169556 166.129700 132.982544
v 152.360016 147.796875 133.215729
v 166.608887 163.684235 137.781525
v 158.512817 155.582993 132.504868
v 152.384888 151.568130 144.039902
v 163.359756 159.681519 133.254974
v 166.209930 151.489807 137.610245
v 154.411041 163.787109 132.500000
v 152.360031 159.685013 132.499985
v 166.439331 159.705032 140.028961
v 152.359940 168.173553 132.609085
v 156.462036 170.027939 133.050461
v 152.328003 153.576904 143.756363
v 148.257401 159.685379 142.497162
v 165.940765 151.199814 139.795883
v 158.513199 162.771332 143.120605
v 157.891144 148.009003 145.088379
v 154.417496 165.558884 141.584717
v 164.310760 147.759430 133.362366
v 154.411026 149.169296 132.717880
v 152.360016 146.104340 136.958862
v 153.087952 160.987427 143.086380
v 152.340546 161.717178 142.867447
v 160.517090 170.448761 133.866531
v 148.266632 166.646439 140.565445
v 160.559662 144.543777 144.206726
v 142.976898 154.043472 137.700211
v 146.422577 165.541153 141.229263
v 146.281784 163.744202 141.688126
v 148.260742 151.485397 143.587219
v 164.806900 167.369400 139.372787
v 148.311584 165.502563 141.419586
v 143.633163 153.503372 141.047653
v 166.772415 168.003891 138.523514
v 144.795532 165.475128 140.731705
v 165.370865 146.445145 137.767227
v 158.512924 145.337723 140.110931
v 158.509155 170.456512 133.914520
v 146.517105 166.248642 132.950821
v 143.078033 163.790192 138.490784
v 144.469971 163.801758 134.312759
v 152.360016 149.169342 132.717880
v 150.309418 161.736053 132.517426
v 147.535828 154.268906 142.991928
v 164.839966 151.588501 133.386795
v 144.245163 151.411774 142.132217
v 145.778824 153.532761 133.298492
v 166.223312 151.465454 135.626266
v 158.509125 149.205109 144.879227
v 154.411057 166.130798 132.508499
v 158.513992 145.203766 144.944885
v 143.573242 156.480194 140.754028
v 143.172226 155.574722 135.611649
v 165.351746 151.274933 142.924576
v 150.309097 167.556488 139.474777
v 158.513504 170.029007 133.049011
v 165.880203 161.830917 142.052368
v 148.274429 157.633957 132.653030
v 162.606506 147.813980 133.241486
v 162.614578 146.591415 135.537567
v 164.654358 162.214813 142.752975
v 148.258362 147.286377 133.761246
v 166.124741 149.358688 135.534607
v 165.522812 145.748917 143.040802
v 154.411041 146.104324 136.958862
v 156.500107 155.574020 143.811813
v 148.257965 145.903732 137.798553
v 160.589508 147.105896 145.215012
v 143.425980 160.534851 135.095566
v 164.506531 155.650101 133.468750
v 164.517151 145.420471 142.598236
v 148.238724 147.837906 133.294327
v 156.461929 166.130768 132.508484
v 148.246872 153.544250 143.318939
v 165.451965 163.784119 135.083313
v 145.800064 159.684982 133.338028
v 164.586090 166.506821 140.470444
v 148.262695 169.705765 135.703903
v 149.203445 144.909897 144.513382
v 144.267639 153.531799 134.138199
v 164.366791 146.183563 140.463074
v 143.533676 161.706039 135.175659
v 143.132675 157.626984 135.606659
v 145.211105 147.287735 133.004105
v 146.643463 163.798386 132.956635
v 160.563416 153.531906 132.525162
v 162.598114 153.528091 132.671768
v 143.031601 146.518661 138.120224
v 148.257965 146.105179 136.959045
v 165.787537 163.628571 141.507584
v 150.321991 144.951981 142.535965
v 163.906067 144.774506 144.847748
v 160.606979 155.544342 143.895096
v 146.200378 161.710846 141.888748
v 154.411072 170.457611 133.917618
v 152.423721 159.606430 143.227936
v 146.248932 167.363190 139.350922
v 148.714554 155.051239 143.126770
v 158.513031 144.755310 142.501526
v 156.461899 168.619461 137.748871
v 156.462097 144.698380 144.602814
v 152.359879 161.735947 132.499985
v 146.224167 155.593887 142.396896
v 156.461639 170.456909 133.917450
v 143.473755 155.582123 134.948471
v 143.591446 166.003937 137.525894
v 160.563049 151.481995 132.543976
v 158.512634 165.578003 141.660660
v 152.360001 170.027771 133.050751
v 154.411057 168.173431 132.609070
v 152.360062 168.619507 137.748856
v 144.639175 167.634674 137.153656
v 150.309113 146.510284 135.506363
v 161.172668 147.974884 145.007111
v 150.308289 170.400406 133.393570
v 158.512833 151.481491 132.519943
v 152.360001 147.263870 133.736938
v 143.644897 147.201630 142.665390
v 156.461929 145.900253 137.797684
v 146.144348 153.648346 142.761612
v 145.650558 151.587479 133.235672
v 148.274475 155.583023 132.653534
v 162.609512 165.547348 141.562698
v 162.613434 167.524765 139.455017
v 143.340424 163.739120 139.696686
v 165.728638 159.542068 134.846558
v 154.411026 151.481522 132.519913
v 160.561371 151.472031 144.456711
v 158.512909 168.620010 137.749176
v 152.360046 163.787079 132.500000
v 160.563690 145.915527 137.801498
v 165.791931 149.115448 134.378098
v 156.461929 163.787048 132.499985
v 146.207291 146.126541 136.964127
v 152.359879 170.457611 133.917664
v 146.192688 147.177322 133.552155
v 163.436935 169.233795 134.545532
v 164.605637 163.688370 142.216949
v 165.348251 155.644211 142.844757
v 158.513046 166.697311 140.619843
v 154.411057 168.619476 137.748901
v 160.563507 147.798416 133.217651
v 166.226654 153.527359 135.640289
v 152.339508 145.199249 144.872147
v 166.217834 159.736679 135.727310
v 154.411057 170.027863 133.050751
v 143.104645 151.369843 140.006454
v 160.145264 148.112213 145.100281
v 154.411041 167.556595 139.474823
v 148.266754 170.394363 133.394897
v 142.932861 157.638092 137.500153
v 148.258041 146.518387 135.508698
v 152.357178 144.726639 144.581024
v 154.411331 166.682190 140.603165
v 164.636154 161.289169 143.037674
v 164.667450 157.536438 133.789276
v 150.303986 161.739502 142.599731
v 156.461945 145.335693 140.110428
v 164.365402 166.041458 134.220871
v 154.409866 155.593979 143.683762
v 150.309555 157.633926 132.519455
v 143.645584 155.037018 140.940887
v 144.345337 148.999481 133.680313
v 162.212585 159.679443 132.873764
v 160.565262 169.689514 135.685287
v 142.626694 151.325226 137.419647
v 143.891327 166.095612 135.690842
v 158.512405 166.130630 132.526428
v 156.462204 144.543823 144.204178
v 166.622208 161.813324 137.556458
v 142.978592 162.188553 137.452423
v 165.724457 149.223114 139.902954
v 164.583862 165.445023 141.397690
v 154.411514 144.768005 142.504227
v 156.469498 147.009155 145.109528
v 143.177643 159.730835 135.635803
v 143.842850 163.970520 140.559433
v 166.003098 149.254837 137.506073
v 163.906403 153.522461 132.929764
v 143.155899 163.751541 137.523682
v 165.828720 156.538925 139.757736
v 164.730423 153.528290 133.397491
v 144.985977 168.064499 134.310074
v 166.456543 163.677032 139.886612
v 156.486938 161.694580 143.291779
v 167.311157 167.900955 138.497482
v 154.534714 146.783554 145.063995
v 146.384796 151.316208 143.265701
v 143.546814 151.395630 141.206863
v 148.891220 144.410385 144.917511
v 160.563324 146.520721 135.509842
v 143.459885 157.631744 134.939758
v 145.417587 149.944885 133.245361
v 156.461929 144.755615 142.501602
v 164.359955 145.281342 144.029816
v 164.512543 149.081192 143.717911
v 148.274307 170.437103 133.902985
v 144.262711 145.800079 140.181717
v 143.215286 161.795044 135.930481
v 144.214813 146.850601 135.616165
v 156.461533 159.684235 143.459793
v 158.513535 163.886261 142.655884
v 141.413666 149.757797 135.919327
v 156.448715 149.189789 144.780807
v 154.411072 169.755600 135.730026
v 166.766647 167.975052 138.588669
v 165.674484 147.706604 135.698578
v 163.283615 163.780029 133.380798
v 154.411026 147.796844 133.215698
v 165.347473 146.405258 137.780899
v 166.037781 159.663589 142.280045
v 150.263550 159.733276 142.862900
v 143.298615 163.196152 136.056656
v 144.352417 161.742813 134.291138
v 162.574936 155.499786 143.787125
v 143.383728 146.326981 140.197205
v 165.762283 155.617401 142.125641
v 166.076935 153.516388 139.554062
v 164.711868 159.676575 133.958176
v 162.598724 163.763184 142.486298
v 167.889008 146.500000 136.000000
v 145.795914 155.582428 133.327667
v 150.231735 149.200104 144.221344
v 152.359894 167.556671 139.474854
v 150.309784 145.374268 140.119965
v 165.686935 159.679001 142.824371
v 156.461990 146.104309 136.958847
v 160.551529 163.786942 132.638428
v 158.513062 147.062332 145.167587
v 142.961136 154.117935 137.687271
v 160.569778 144.697006 144.609909
v 145.579056 163.794983 133.428238
v 162.499466 161.433395 143.185120
v 162.005600 146.766220 145.020767
v 160.554214 159.684647 132.621475
v 143.223816 161.716125 139.727554
v 166.534576 161.825577 140.065475
v 165.292160 153.518890 142.906570
v 158.513016 147.796844 133.215683
v 143.186920 155.704544 140.059631
v 142.910934 147.226624 139.840729
v 162.604813 155.568756 132.768875
# 583 vertices, 0 vertices normals

f 424 394 446
f 183 392 11
f 102 27 301
f 382 211 508
f 140 507 180
f 32 275 210
f 265 449 481
f 479 514 431
f 213 567 191
f 355 147 553
f 203 146 40
f 174 333 544
f 405 12 150
f 442 183 11
f 175 33 31
f 416 20 134
f 341 368 291
f 67 477 425
f 400 360 59
f 122 193 160
f 262 189 312
f 337 471 5
f 128 61 264
f 302 329 549
f 43 202 367
f 496 402 276
f 123 260 275
f 565 490 495
f 380 182 119
f 365 26 379
f 297 212 117
f 517 540 207
f 68 299 60
f 508 290 453
f 4 15 121
f 336 162 362
f 505 347 21
f 447 223 17
f 316 226 436
f 325 287 354
f 248 238 101
f 22 164 118
f 412 94 422
f 533 517 424
f 570 358 295
f 469 14 149
f 317 488 105
f 513 288 135
f 13 351 112
f 489 295 390
f 41 134 199
f 216 580 270
f 89 548 92
f 453 294 232
f 559 97 16
f 161 4 204
f 521 381 207
f 325 354 346
f 528 117 516
f 70 87 433
f 429 557 539
f 89 116 377
f 477 493 403
f 497 467 560
f 532 219 142
f 223 319 369
f 5 391 352
f 492 394 424
f 49 64 515
f 318 287 439
f 168 310 18
f 530 387 179
f 501 407 61
f 262 312 417
f 460 378 233
f 297 346 212
f 329 77 549
f 181 123 32
f 427 345 125
f 185 346 297
f 103 292 384
f 409 570 295
f 135 395 130
f 310 383 258
f 351 578 112
f 185 371 415
f 58 285 435
f 488 65 105
f 195 406 138
f 249 417 555
f 31 511 20
f 542 526 50
f 7 389 484
f 109 105 65
f 480 191 72
f 317 581 503
f 561 402 330
f 502 79 292
f 395 579 130
f 450 226 316
f 66 537 12
f 215 536 412
f 576 217 505
f 179 9 459
f 559 16 143
f 302 549 342
f 194 447 521
f 160 115 574
f 146 355 326
f 317 503 374
f 447 17 381
f 504 425 1
f 56 38 96
f 374 387 530
f 282 304 289
f 411 188 497
f 251 362 454
f 149 14 245
f 1 462 534
f 522 72 552
f 577 198 207
f 322 173 74
f 249 314 262
f 452 546 482
f 10 543 357
f 165 422 42
f 517 207 198
f 94 405 150
f 469 113 111
f 455 111 46
f 281 457 125
f 547 307 527
f 104 437 141
f 437 364 363
f 6 526 542
f 90 282 397
f 301 465 418
f 482 546 268
f 488 180 507
f 490 482 441
f 513 519 200
f 211 573 300
f 322 74 428
f 506 365 126
f 293 171 336
f 190 122 153
f 278 458 343
f 116 551 377
f 192 396 197
f 448 59 322
f 73 442 510
f 13 112 235
f 92 53 30
f 156 497 347
f 560 467 77
f 97 130 558
f 20 344 134
f 577 273 118
f 337 106 44
f 209 228 449
f 225 390 358
f 463 48 399
f 324 3 71
f 272 522 13
f 266 257 481
f 483 580 311
f 242 63 252
f 111 113 537
f 391 474 414
f 260 324 275
f 137 395 25
f 177 345 154
f 493 454 403
f 139 289 126
f 285 370 435
f 161 429 4
f 317 374 488
f 160 193 357
f 119 44 201
f 211 524 290
f 176 272 484
f 375 527 307
f 205 390 136
f 516 570 392
f 224 432 420
f 461 256 269
f 194 521 554
f 200 519 377
f 83 470 506
f 503 269 256
f 163 17 223
f 170 500 296
f 483 400 152
f 341 571 581
f 96 100 349
f 356 559 348
f 422 196 42
f 251 430 243
f 477 403 413
f 471 349 5
f 348 176 389
f 115 330 574
f 380 222 182
f 583 520 178
f 388 421 462
f 176 484 389
f 16 72 522
f 471 96 349
f 84 462 421
f 209 449 543
f 352 391 451
f 299 359 10
f 529 36 34
f 128 501 61
f 480 72 558
f 567 276 398
f 255 241 344
f 5 349 391
f 192 321 396
f 458 550 343
f 152 59 448
f 27 257 83
f 160 166 115
f 97 558 16
f 27 83 315
f 441 268 26
f 28 306 420
f 494 64 224
f 102 301 464
f 205 469 111
f 160 357 8
f 154 345 208
f 201 491 227
f 461 318 385
f 63 580 252
f 467 486 33
f 539 15 4
f 68 29 299
f 216 270 239
f 506 126 159
f 227 491 538
f 300 426 380
f 177 125 345
f 166 561 115
f 577 234 273
f 564 185 297
f 117 545 225
f 248 101 573
f 415 439 325
f 175 416 500
f 165 42 142
f 28 132 564
f 102 257 27
f 239 270 457
f 303 419 108
f 31 486 511
f 429 539 4
f 409 455 575
f 42 116 551
f 100 158 340
f 427 428 313
f 224 64 49
f 423 555 194
f 186 91 18
f 185 415 325
f 88 468 327
f 353 397 338
f 206 438 319
f 126 296 339
f 428 520 583
f 98 446 394
f 290 524 294
f 69 134 41
f 115 561 330
f 35 80 459
f 390 295 358
f 211 300 380
f 73 510 64
f 57 357 193
f 533 314 24
f 36 461 34
f 477 413 425
f 114 192 29
f 157 132 3
f 59 360 173
f 4 121 204
f 448 125 457
f 168 18 91
f 272 230 484
f 28 3 132
f 433 87 536
f 34 415 371
f 9 260 459
f 494 485 73
f 513 356 519
f 303 232 419
f 9 305 157
f 93 419 538
f 422 94 150
f 396 452 565
f 35 181 110
f 343 550 383
f 60 299 10
f 246 128 264
f 109 65 507
f 398 351 552
f 250 253 189
f 104 141 501
f 332 43 572
f 576 340 158
f 28 236 485
f 149 271 113
f 519 348 404
f 334 199 85
f 364 60 6
f 49 566 432
f 79 52 350
f 114 366 192
f 301 418 514
f 236 528 78
f 418 372 255
f 242 252 550
f 187 146 326
f 249 423 410
f 495 490 228
f 581 164 393
f 577 207 466
f 448 322 427
f 166 449 265
f 286 456 155
f 219 76 45
f 113 271 137
f 409 575 70
f 310 258 309
f 174 335 333
f 237 413 403
f 483 152 270
f 438 108 321
f 391 414 451
f 418 255 274
f 500 69 339
f 332 572 331
f 323 476 436
f 417 238 248
f 79 247 52
f 11 572 367
f 494 184 306
f 448 427 125
f 282 289 139
f 517 198 424
f 579 480 558
f 25 395 135
f 526 57 193
f 119 182 44
f 37 104 169
f 490 441 266
f 327 281 247
f 476 316 436
f 263 542 221
f 453 303 206
f 140 218 284
f 224 49 432
f 66 12 405
f 349 474 391
f 402 479 398
f 394 571 284
f 434 245 221
f 514 274 431
f 350 56 443
f 348 559 176
f 35 110 557
f 427 322 428
f 192 197 29
f 464 301 514
f 293 336 243
f 204 121 475
f 138 568 133
f 78 528 254
f 508 211 290
f 272 13 230
f 451 414 328
f 15 129 23
f 92 173 360
f 473 404 277
f 417 312 238
f 336 171 162
f 485 254 73
f 138 406 568
f 563 189 262
f 258 361 468
f 548 473 53
f 541 475 244
f 556 153 144
f 409 331 570
f 341 507 284
f 313 208 345
f 564 132 371
f 191 552 72
f 409 70 331
f 147 498 553
f 308 131 373
f 139 338 397
f 189 463 312
f 313 583 55
f 6 57 526
f 411 523 7
f 365 338 139
f 308 114 68
f 47 283 340
f 341 291 571
f 374 256 387
f 563 314 229
f 326 355 54
f 556 144 19
f 279 437 104
f 58 435 146
f 550 252 361
f 362 162 406
f 247 177 52
f 353 81 397
f 485 78 254
f 521 447 381
f 533 424 446
f 278 454 195
f 62 120 400
f 42 551 116
f 508 453 447
f 73 254 442
f 374 530 488
f 516 225 570
f 479 431 398
f 206 303 438
f 532 142 401
f 197 495 359
f 408 566 243
f 160 574 39
f 370 369 131
f 488 298 180
f 319 438 366
f 440 202 378
f 582 80 35
f 190 50 122
f 292 79 350
f 524 280 294
f 43 367 572
f 458 138 242
f 461 385 415
f 422 150 196
f 33 486 31
f 159 126 478
f 315 334 231
f 185 325 346
f 577 466 234
f 55 158 208
f 285 376 370
f 364 6 363
f 466 207 381
f 62 401 120
f 210 129 15
f 341 284 571
f 103 384 222
f 7 484 267
f 127 542 263
f 318 326 37
f 290 294 453
f 456 491 155
f 219 472 165
f 436 226 445
f 143 522 272
f 75 502 292
f 129 71 420
f 215 151 99
f 380 426 222
f 348 389 404
f 217 497 156
f 111 537 66
f 341 581 317
f 539 210 15
f 434 556 271
f 51 531 184
f 431 274 525
f 564 371 185
f 116 513 200
f 133 76 63
f 61 407 245
f 277 389 7
f 346 354 128
f 280 227 220
f 415 385 439
f 279 37 54
f 274 255 525
f 1 91 186
f 137 19 395
f 287 169 354
f 513 135 356
f 500 416 69
f 529 371 132
f 271 556 19
f 167 419 93
f 492 164 571
f 515 535 171
f 51 184 420
f 62 400 483
f 461 415 34
f 524 380 119
f 52 154 56
f 255 375 547
f 569 509 283
f 494 224 184
f 167 93 476
f 186 18 250
f 374 503 256
f 549 175 170
f 494 306 485
f 532 76 219
f 532 311 76
f 384 350 443
f 512 207 540
f 223 369 376
f 189 253 463
f 222 95 182
f 561 464 479
f 293 243 566
f 548 404 473
f 47 21 569
f 187 40 146
f 349 100 474
f 161 204 335
f 63 76 311
f 114 29 68
f 541 204 475
f 251 493 430
f 71 3 420
f 490 266 228
f 21 347 329
f 167 108 419
f 166 543 449
f 548 519 404
f 168 383 310
f 383 550 361
f 261 191 480
f 518 223 376
f 522 552 351
f 29 197 359
f 396 240 452
f 1 186 462
f 194 508 447
f 21 329 302
f 537 137 25
f 312 463 399
f 544 333 86
f 251 336 362
f 398 431 525
f 93 538 491
f 233 472 45
f 143 16 522
f 555 382 194
f 461 444 318
f 502 2 79
f 6 60 57
f 32 210 539
f 376 369 370
f 161 335 214
f 106 352 286
f 564 297 236
f 423 540 517
f 505 156 347
f 292 350 384
f 346 246 212
f 47 505 21
f 489 390 205
f 492 571 394
f 319 366 373
f 199 547 85
f 386 473 277
f 249 262 417
f 77 467 33
f 120 92 360
f 408 243 430
f 514 418 274
f 559 143 176
f 536 405 94
f 148 342 90
f 520 386 523
f 215 412 151
f 112 511 486
f 56 154 38
f 304 296 126
f 231 85 547
f 533 446 229
f 361 216 468
f 16 558 72
f 116 200 377
f 92 30 173
f 555 248 382
f 332 433 536
f 569 21 302
f 529 34 371
f 36 387 256
f 152 448 457
f 444 269 187
f 83 159 315
f 511 525 344
f 528 516 183
f 464 514 479
f 530 179 80
f 96 38 100
f 339 69 41
f 579 558 130
f 536 87 66
f 196 150 288
f 122 160 39
f 553 498 107
f 423 194 540
f 335 541 333
f 148 90 81
f 492 118 164
f 126 339 478
f 388 229 421
f 561 479 402
f 515 510 535
f 144 480 579
f 368 571 291
f 219 165 142
f 438 321 366
f 222 384 95
f 309 88 48
f 179 387 305
f 232 538 419
f 220 227 538
f 428 74 520
f 86 504 84
f 82 130 97
f 176 143 272
f 442 172 510
f 286 352 450
f 317 105 368
f 28 420 3
f 268 445 379
f 478 41 334
f 238 399 75
f 116 377 551
f 67 320 425
f 549 77 175
f 576 47 340
f 48 2 502
f 162 460 406
f 466 163 518
f 342 549 170
f 444 187 318
f 583 411 217
f 151 165 472
f 529 387 36
f 93 491 456
f 369 373 131
f 372 375 255
f 147 131 498
f 171 535 499
f 458 242 550
f 86 333 67
f 46 66 87
f 214 86 140
f 581 393 269
f 494 73 64
f 141 127 263
f 396 565 197
f 259 338 379
f 535 172 440
f 194 554 540
f 150 12 288
f 38 208 158
f 129 420 432
f 496 276 567
f 254 528 183
f 195 362 406
f 11 392 572
f 35 260 181
f 28 564 236
f 327 239 281
f 334 41 199
f 568 233 45
f 286 450 316
f 138 133 242
f 382 573 211
f 55 217 576
f 425 413 1
f 133 45 76
f 401 142 116
f 233 99 472
f 531 306 184
f 265 481 102
f 75 292 103
f 210 275 71
f 577 118 198
f 273 203 22
f 265 102 464
f 437 363 127
f 282 124 304
f 364 68 60
f 260 157 324
f 273 234 58
f 439 287 325
f 346 128 246
f 365 379 338
f 545 264 390
f 83 506 159
f 89 377 548
f 522 351 13
f 179 305 9
f 35 459 260
f 409 489 205
f 312 399 238
f 98 84 421
f 512 521 207
f 582 298 80
f 532 401 62
f 254 183 442
f 407 263 245
f 339 41 478
f 359 209 10
f 255 547 241
f 567 398 552
f 249 555 423
f 356 348 519
f 537 25 12
f 569 302 148
f 363 6 127
f 32 539 557
f 485 236 78
f 504 534 84
f 332 331 70
f 121 408 475
f 447 453 206
f 2 247 79
f 573 101 426
f 461 269 444
f 506 26 365
f 450 451 487
f 242 133 63
f 161 557 429
f 109 368 105
f 49 293 566
f 201 44 155
f 544 86 214
f 453 232 303
f 533 24 517
f 240 321 108
f 581 269 503
f 465 231 372
f 247 281 177
f 445 259 379
f 337 5 106
f 98 218 84
f 468 239 327
f 203 58 146
f 308 364 498
f 455 46 575
f 281 125 177
f 183 516 392
f 71 420 306
f 544 214 140
f 151 422 165
f 546 445 268
f 410 517 24
f 352 451 450
f 536 94 412
f 172 367 440
f 49 515 293
f 237 168 91
f 409 205 455
f 77 33 175
f 148 81 509
f 143 145 522
f 121 23 408
f 583 178 411
f 258 468 88
f 315 159 334
f 388 462 186
f 236 117 528
f 127 6 542
f 341 571 368
f 447 206 223
f 47 569 283
f 487 328 353
f 212 246 545
f 427 313 345
f 217 156 505
f 504 1 534
f 191 567 552
f 456 316 476
f 544 140 214
f 266 470 257
f 71 51 420
f 266 441 470
f 375 547 527
f 106 5 352
f 120 360 400
f 27 315 465
f 98 394 284
f 205 111 455
f 565 482 490
f 64 510 515
f 313 428 583
f 501 141 407
f 181 260 123
f 39 213 261
f 475 408 430
f 326 54 37
f 529 157 305
f 19 579 395
f 324 157 3
f 251 243 336
f 20 511 344
f 142 42 116
f 67 541 244
f 356 82 97
f 28 485 306
f 240 167 323
f 43 536 215
f 67 244 477
f 168 343 383
f 396 321 240
f 278 237 403
f 232 220 538
f 372 231 547
f 95 443 471
f 385 318 439
f 1 413 91
f 263 221 245
f 197 565 495
f 32 557 110
f 437 107 364
f 529 305 387
f 333 541 67
f 38 158 100
f 332 536 43
f 234 285 58
f 443 56 96
f 353 338 259
f 112 578 511
f 438 303 108
f 553 107 437
f 275 324 71
f 388 250 563
f 13 235 230
f 426 103 222
f 383 361 258
f 555 417 248
f 381 17 163
f 223 206 319
f 286 316 456
f 518 163 223
f 111 66 46
f 342 170 124
f 511 578 525
f 196 288 513
f 199 241 547
f 153 261 144
f 329 560 77
f 239 457 281
f 573 426 300
f 55 583 217
f 268 379 26
f 414 283 509
f 273 22 118
f 133 568 45
f 499 378 460
f 11 367 172
f 293 515 171
f 264 61 136
f 488 530 298
f 134 344 241
f 308 68 364
f 93 456 476
f 225 358 570
f 228 481 449
f 465 315 231
f 495 228 209
f 90 342 124
f 279 104 37
f 450 487 226
f 341 109 507
f 278 403 454
f 166 265 561
f 63 311 580
f 563 250 189
f 106 286 155
f 512 554 521
f 255 344 525
f 167 476 323
f 188 235 467
f 149 434 271
f 213 496 567
f 278 195 458
f 161 180 298
f 542 50 221
f 12 25 288
f 482 268 441
f 23 432 566
f 86 218 140
f 9 157 260
f 101 103 426
f 468 216 239
f 421 229 446
f 434 190 556
f 497 188 467
f 452 323 546
f 296 500 339
f 181 32 110
f 435 370 147
f 116 196 513
f 92 548 53
f 190 221 50
f 234 518 285
f 236 297 117
f 443 96 471
f 240 108 167
f 355 553 54
f 313 55 208
f 174 544 214
f 382 248 573
f 280 201 227
f 398 525 578
f 174 214 335
f 406 460 568
f 518 376 285
f 48 88 2
f 10 209 543
f 269 393 40
f 378 99 233
f 533 229 314
f 114 373 366
f 215 99 202
f 61 245 14
f 361 252 216
f 399 48 502
f 499 440 378
f 141 263 407
f 201 155 491
f 337 44 182
f 251 454 493
f 386 30 473
f 237 91 413
f 140 284 507
f 149 245 434
f 143 522 145
f 224 420 184
f 536 66 405
f 463 309 48
f 356 97 559
f 356 135 82
f 337 95 471
f 267 230 188
f 60 10 57
f 62 483 311
f 282 139 397
f 88 327 2
f 70 575 46
f 347 497 560
f 43 215 202
f 330 402 496
f 526 193 50
f 69 416 134
f 574 496 213
f 576 505 47
f 129 432 23
f 210 71 129
f 392 331 572
f 378 202 99
f 388 186 250
f 332 70 433
f 498 364 107
f 113 137 537
f 277 404 389
f 187 269 40
f 214 140 180
f 211 380 524
f 135 130 82
f 83 257 470
f 529 132 157
f 469 149 113
f 280 119 201
f 178 523 411
f 492 424 198
f 124 296 304
f 581 571 164
f 287 37 169
f 101 75 103
f 160 8 166
f 548 377 519
f 122 50 193
f 492 198 118
f 437 127 141
f 246 264 545
f 441 26 470
f 435 147 355
f 467 235 486
f 217 411 497
f 451 328 487
f 84 534 462
f 308 498 131
f 29 359 299
f 530 80 298
f 203 40 22
f 416 31 20
f 466 381 163
f 546 436 445
f 252 580 216
f 328 509 81
f 170 175 500
f 393 164 22
f 410 423 517
f 59 173 322
f 231 334 85
f 71 306 531
f 32 123 275
f 161 582 557
f 454 362 195
f 369 319 373
f 169 501 128
f 506 470 26
f 574 330 496
f 171 499 162
f 122 39 153
f 370 131 147
f 335 204 541
f 244 475 430
f 244 430 493
f 179 459 80
f 194 382 508
f 271 19 137
f 510 172 535
f 440 367 202
f 253 309 463
f 337 182 95
f 100 340 474
f 124 170 296
f 294 220 232
f 188 230 235
f 409 295 489
f 401 89 120
f 102 481 257
f 466 518 234
f 520 523 178
f 372 547 375
f 42 196 116
f 350 52 56
f 474 283 414
f 365 139 126
f 249 410 24
f 195 138 458
f 219 45 472
f 265 464 561
f 309 258 88
f 388 563 229
f 294 280 220
f 159 478 334
f 375 307 547
f 310 253 18
f 474 340 283
f 106 155 44
f 341 317 368
f 151 472 99
f 151 412 422
f 144 261 480
f 117 212 545
f 250 18 253
f 101 238 75
f 569 148 509
f 565 452 482
f 154 208 38
f 228 266 481
f 392 570 331
f 98 421 446
f 86 67 504
f 23 566 408
f 523 277 7
f 173 30 74
f 512 540 554
f 146 435 355
f 398 578 351
f 71 531 51
f 310 309 253
f 524 119 280
f 120 89 92
f 460 233 568
f 19 144 579
f 8 357 543
f 70 46 87
f 288 25 135
f 55 576 158
f 411 7 267
f 278 343 237
f 112 486 235
f 384 443 95
f 318 37 287
f 411 267 188
f 10 357 57
f 532 62 311
f 36 256 461
f 469 136 14
f 67 425 320
f 267 484 230
f 402 398 276
f 401 116 89
f 30 53 473
f 279 54 553
f 279 553 437
f 74 30 386
f 90 397 81
f 359 495 209
f 563 262 314
f 86 84 218
f 386 277 523
f 354 169 128
f 273 58 203
f 148 302 342
f 414 509 328
f 152 457 270
f 52 177 154
f 187 326 318
f 347 560 329
f 169 104 501
f 308 373 114
f 264 136 390
f 535 440 499
f 39 574 213
f 465 372 418
f 545 390 225
f 98 284 218
f 15 23 121
f 205 136 469
f 162 499 460
f 117 225 516
f 341 368 109
f 192 366 321
f 153 39 261
f 304 126 289
f 90 124 282
f 190 153 556
f 244 493 477
f 393 22 40
f 434 221 190
f 152 400 59
f 249 24 314
f 240 323 452
f 582 35 557
f 8 543 166
f 226 259 445
f 442 11 172
f 483 270 580
f 134 241 199
f 27 465 301
f 487 259 226
f 74 386 520
f 161 298 582
f 399 502 75
f 175 31 416
f 67 425 504
f 237 343 168
f 323 436 546
f 61 14 136
f 487 353 259
f 261 213 191
f 161 214 180
f 2 327 247
f 328 81 353
f 488 507 65
# 1168 faces, 0 coords texture

# End of File