####
#
# OBJ File Generated by Meshlab
#
####
# Object domain0660.obj
#
# Vertices: 456
# Faces: 908
#
####
v 79.796753 35.777512 86.999321
v 79.916138 35.790844 86.610260
v 79.835472 35.730217 86.998772
v 79.946960 35.802181 87.375946
v 79.816833 35.980591 86.998550
v 80.125366 35.863667 86.068520
v 80.353790 35.824734 85.529373
v 80.383751 35.698795 86.055023
v 80.308235 35.593624 86.999794
v 80.385849 35.763950 87.891754
v 80.162727 35.877274 87.853882
v 80.467491 35.947670 88.138680
v 80.239014 36.405869 85.077850
v 80.405098 36.375538 84.558891
v 80.360222 36.083611 85.030075
v 80.054443 36.336987 86.012779
v 79.893906 36.358932 86.996437
v 80.159966 36.331470 87.930244
v 80.442810 36.344818 88.236351
v 80.197960 36.918182 85.048241
v 80.363052 36.916683 84.538330
v 80.077461 36.906914 86.003319
v 80.025764 36.907265 86.996376
v 80.197586 36.901897 87.927826
v 80.449730 36.904396 88.236389
v 80.265747 37.411079 85.052963
v 80.433655 37.442532 84.579559
v 80.199898 37.421284 86.001541
v 80.167053 37.433723 86.998451
v 80.291756 37.401417 87.923119
v 80.501099 37.389992 88.186638
v 80.400124 37.707481 85.028694
v 80.350754 37.749943 86.004112
v 80.323059 37.777172 87.000839
v 80.424339 37.691143 87.942345
v 80.809669 35.837547 84.067383
v 81.032135 35.820087 83.589821
v 80.996391 35.548092 84.043579
v 80.914703 35.576675 85.017136
v 80.592499 35.789707 84.990311
v 80.879677 35.525444 86.006577
v 80.870697 35.531982 86.994583
v 80.869392 35.694603 87.921196
v 80.869133 35.927666 88.215675
v 80.626007 36.320210 84.048958
v 80.916939 36.338009 83.529213
v 80.881897 36.350262 88.372116
v 80.617317 36.914074 84.024452
v 80.903893 36.914833 83.521812
v 80.881851 36.916595 88.407707
v 80.696640 37.454647 84.070892
v 80.996399 37.449646 83.576927
v 80.899017 37.469044 88.340332
v 80.918770 37.753880 84.030708
v 80.655266 37.987644 85.019722
v 80.918289 38.016491 84.527122
v 80.617546 38.057022 86.021622
v 80.506706 38.106472 86.996498
v 80.680023 37.987785 87.917053
v 80.971115 37.873962 88.175339
v 80.964684 38.153061 85.036957
v 80.939224 38.294636 86.027039
v 80.824333 38.526897 86.997513
v 80.896927 38.469818 86.599632
v 80.902206 38.433025 87.381302
v 80.945869 38.203671 87.861534
v 80.897575 38.577694 86.999237
v 81.265175 35.291763 84.000885
v 81.517670 35.249947 83.531700
v 81.565926 35.117329 84.001938
v 81.474716 35.204769 84.492043
v 81.315338 35.805672 83.105629
v 81.649612 35.850029 82.798737
v 81.529869 35.514553 83.061920
v 81.400223 35.311337 85.034691
v 81.450356 35.444923 85.993813
v 81.448715 35.514439 86.992432
v 81.378769 35.725986 87.903473
v 81.346695 35.961342 88.188904
v 81.234207 36.338455 83.058388
v 81.595123 36.342117 82.743645
v 81.423653 36.364231 88.350090
v 81.235039 36.910992 83.058670
v 81.597870 36.904922 82.753250
v 81.439049 36.917442 88.401207
v 81.319695 37.424847 83.115234
v 81.630554 37.327015 82.845383
v 81.425438 37.469341 88.344444
v 81.533722 37.636871 83.115501
v 81.209305 38.012852 84.035202
v 81.514023 37.937553 83.583038
v 81.354614 37.870678 88.181541
v 81.529121 38.127224 84.075073
v 81.469849 38.272316 85.010780
v 81.456963 38.334202 86.010651
v 81.093819 38.542439 86.996979
v 81.449677 38.431080 86.984650
v 81.376411 38.126411 87.900322
v 81.804794 35.247932 83.061249
v 82.146675 35.358646 82.790596
v 82.122215 35.091656 83.079941
v 82.062798 34.940029 84.000740
v 82.105865 35.083054 84.936325
v 81.757248 35.190506 84.991776
v 82.074234 35.255016 85.455421
v 82.069778 35.774895 82.635948
v 82.015823 35.404774 86.001060
v 82.004395 35.603500 86.974190
v 81.696938 35.830006 87.935715
v 82.050461 35.789543 87.503059
v 82.052940 36.333496 82.574463
v 81.978523 36.087975 87.941406
v 81.842743 36.436142 88.198730
v 82.053627 36.904343 82.605865
v 81.888435 36.918880 88.240929
v 82.053909 37.361374 82.751732
v 81.842674 37.399899 88.198441
v 82.048141 37.715023 83.063599
v 82.041718 38.002396 83.541199
v 81.683769 37.989719 87.931931
v 81.962585 37.733196 87.935738
v 81.989243 38.015968 87.469452
v 82.039749 38.174114 84.048302
v 82.028275 38.268631 85.003479
v 82.021835 38.276546 85.991333
v 81.963715 38.206226 86.950356
v 82.670349 35.231316 82.678200
v 82.631035 34.876839 83.035034
v 82.588692 34.759899 84.013756
v 82.635971 34.999043 84.958351
v 82.655113 35.251213 85.471817
v 82.628075 35.745457 82.502792
v 82.582512 35.533417 85.987228
v 82.499229 35.745361 86.925232
v 82.452271 35.909580 87.244713
v 82.623199 36.331669 82.471603
v 82.194679 36.385139 87.896904
v 82.517693 36.328102 87.452713
v 82.628922 36.909981 82.543098
v 82.242607 36.917313 87.927864
v 82.564491 36.914742 87.461929
v 82.627243 37.368298 82.735596
v 82.176994 37.442646 87.893166
v 82.474808 37.442474 87.415916
v 82.644798 37.738468 83.069191
v 82.583672 37.968086 83.560577
v 82.288010 38.024090 86.975113
v 82.552696 37.747272 86.964226
v 82.543518 38.002361 86.470222
v 82.541039 38.125919 84.049332
v 82.543503 38.170029 84.998940
v 82.503395 38.121563 85.965652
v 82.986038 34.687466 83.036156
v 83.303246 34.739986 82.720490
v 83.309494 34.554375 83.059944
v 83.297737 34.540089 83.953804
v 82.948677 34.625229 83.990562
v 83.253342 34.690910 84.444244
v 83.200165 35.157814 82.424294
v 83.187836 34.916569 84.944099
v 83.208160 35.251213 85.359367
v 83.108788 35.746761 82.316811
v 82.938980 35.741825 86.025810
v 83.308250 35.650345 85.690857
v 82.650719 35.879761 86.917641
v 83.148834 36.370071 82.318954
v 83.202774 36.042324 86.001373
v 83.104958 36.367004 86.440353
v 82.841858 36.329201 86.935791
v 83.204826 36.924850 82.466049
v 82.864639 36.925735 86.953819
v 83.104362 36.881512 86.438805
v 83.219078 37.365673 82.711533
v 83.051933 37.558468 86.024658
v 83.227768 37.215691 85.999168
v 83.274643 37.552582 85.555939
v 82.725388 37.439621 86.933540
v 83.205063 37.654686 83.062202
v 82.887184 38.034992 84.013458
v 83.253502 37.912544 83.984810
v 82.893814 38.030300 85.017632
v 83.232361 37.836071 84.998291
v 82.719559 37.974865 85.969711
v 83.775078 34.591206 82.482979
v 83.835556 34.395622 83.016975
v 83.808815 34.454548 83.961296
v 83.802162 34.647259 84.463326
v 83.606865 35.199612 82.081329
v 83.969208 35.241375 81.736336
v 83.844528 34.901604 82.038551
v 83.787956 34.944946 84.938850
v 83.779076 35.295048 85.281273
v 83.533531 35.745129 82.028946
v 83.927795 35.745003 81.695145
v 83.794266 35.748589 85.494263
v 83.589661 36.295769 82.059402
v 83.977737 36.244270 81.750092
v 83.419182 36.366722 85.949974
v 83.822655 36.303616 85.605400
v 83.821327 36.606773 82.030655
v 83.710793 37.001278 82.324875
v 83.413429 36.881325 85.944206
v 83.780090 36.914562 85.551567
v 83.803886 37.372555 82.673637
v 83.711601 37.357254 85.291374
v 83.783478 37.598110 83.061684
v 83.779503 37.738140 83.994278
v 83.722046 37.588684 84.927879
v 84.111801 34.589310 82.019714
v 84.458946 34.651775 81.571655
v 84.420425 34.336411 82.039291
v 84.353523 34.183239 83.014633
v 84.384926 34.399155 83.957977
v 84.408562 34.679104 84.458481
v 84.334091 35.166164 81.403610
v 84.313293 35.015362 84.884415
v 84.208588 35.336685 85.159012
v 84.310501 35.746567 81.372162
v 84.247559 35.760529 85.269020
v 84.404922 36.324177 81.452248
v 84.257889 36.326244 85.305237
v 84.112717 36.887203 82.035828
v 84.477257 36.756180 81.732712
v 84.201279 36.827927 85.245956
v 84.460777 37.089550 82.115997
v 84.316788 37.322044 82.567886
v 84.032341 37.411674 84.942444
v 84.313705 37.151024 84.942207
v 84.326584 37.420383 84.467232
v 84.294601 37.526169 83.053185
v 84.288033 37.569103 83.970528
v 84.750450 34.088776 82.019554
v 85.025246 34.063820 81.528542
v 85.075020 33.952885 82.029198
v 85.050003 33.974525 82.948280
v 84.713684 34.057949 82.987686
v 85.009972 34.128139 83.435188
v 84.796043 34.622002 81.073158
v 85.108765 34.632244 80.581337
v 85.024315 34.325127 81.031929
v 84.936844 34.347084 83.930595
v 84.950409 34.694099 84.315033
v 84.679405 35.159271 81.003426
v 85.016098 35.163475 80.528282
v 84.560547 35.219929 84.897667
v 84.983978 35.141010 84.589027
v 84.676636 35.744987 81.000290
v 85.070839 35.754131 80.544914
v 84.656273 35.747982 84.977409
v 85.065994 35.744480 84.667587
v 84.796532 36.268120 81.094406
v 85.124107 36.193527 80.743889
v 84.651108 36.328876 84.973167
v 85.053009 36.334370 84.635628
v 85.036339 36.484715 81.103539
v 84.967239 36.794380 81.552010
v 84.559380 36.874519 84.906952
v 84.947556 36.873146 84.465370
v 84.967834 37.070118 82.047432
v 84.641937 37.438358 83.016731
v 85.008270 37.319958 82.983284
v 84.631180 37.426483 83.994125
v 84.973198 37.220470 83.982460
v 85.299683 34.041412 81.020706
v 85.590767 34.037544 80.520073
v 85.633499 33.868679 81.050102
v 85.566734 33.825802 81.999908
v 85.492775 33.965099 82.919235
v 85.505241 34.144188 83.416214
v 85.399071 34.628674 80.080818
v 85.711693 34.635620 79.592430
v 85.604332 34.318176 80.027550
v 85.478302 34.442871 83.882927
v 85.390877 34.743744 84.187019
v 85.333710 35.159542 80.044968
v 85.674683 35.172169 79.557503
v 85.481476 35.200958 84.321770
v 85.392235 35.692413 80.088913
v 85.709389 35.669895 79.709511
v 85.511627 35.747570 84.400322
v 85.610252 35.994549 80.050224
v 85.537720 36.306435 80.487228
v 85.488960 36.296562 84.334633
v 85.579124 36.578590 80.996506
v 85.557739 36.851955 81.529007
v 85.380463 36.754585 84.212311
v 85.544418 37.034702 82.042725
v 85.535088 37.146629 82.992889
v 85.457146 36.967861 83.909584
v 85.866051 34.002003 80.010353
v 86.165413 34.011368 79.513931
v 86.174118 33.743870 80.030495
v 86.123894 33.614712 81.016754
v 86.115723 33.790092 81.979233
v 85.831039 34.029736 82.980240
v 86.168556 33.943424 82.528511
v 86.015579 34.629612 79.113884
v 86.333572 34.653980 78.756432
v 86.208588 34.328842 79.048866
v 86.163338 34.225136 83.033241
v 85.732315 34.641312 83.906731
v 86.139542 34.597824 83.484947
v 86.000908 35.110851 79.111313
v 86.337662 35.075855 78.767014
v 85.904976 35.135979 84.024025
v 86.263969 35.098797 83.677437
v 86.185707 35.422390 79.048203
v 86.110863 35.775719 79.380081
v 86.105095 35.466404 83.960938
v 85.888351 35.745956 84.149376
v 85.897896 36.249531 80.059067
v 86.226570 36.160309 79.720940
v 85.892899 36.347919 84.012390
v 86.098854 36.022923 83.955902
v 86.222504 36.371071 83.645248
v 86.217224 36.374802 80.092865
v 86.165390 36.673664 81.006943
v 86.105049 36.814156 81.551155
v 85.696632 36.811905 83.890755
v 86.039879 36.798828 83.412979
v 86.056084 36.957283 82.046036
v 86.031631 36.958672 82.963142
v 86.505875 33.497730 80.019218
v 86.776550 33.475189 79.525856
v 86.830704 33.363701 80.030403
v 86.807991 33.388519 80.948303
v 86.476868 33.480911 80.985901
v 86.766830 33.537804 81.437592
v 86.456642 34.007359 79.016083
v 86.805656 34.066875 78.575172
v 86.753815 33.723396 79.019066
v 86.695526 33.741619 81.952599
v 86.736176 34.075699 82.463890
v 86.702835 34.583576 78.429253
v 86.657959 34.406910 82.905334
v 86.564575 34.719055 83.230743
v 86.750732 35.155186 78.451782
v 86.624794 35.170261 83.345947
v 86.461838 35.708920 79.038284
v 86.816086 35.604557 78.711830
v 86.238724 35.745949 83.860962
v 86.587875 35.737446 83.443619
v 86.775658 35.919487 79.082657
v 86.724838 36.209618 79.549484
v 86.569092 36.253952 83.289650
v 86.738800 36.439541 80.050606
v 86.728447 36.606770 81.008873
v 86.391777 36.839680 82.016693
v 86.739777 36.694954 81.977249
v 86.338387 36.791260 82.969711
v 86.636986 36.528210 82.927391
v 87.072861 33.490437 79.043915
v 87.383186 33.649487 78.621910
v 87.382637 33.405960 79.088158
v 87.325500 33.274662 80.000984
v 87.249748 33.378410 80.921043
v 87.265091 33.553947 81.419388
v 87.184082 34.085789 78.127266
v 87.320877 34.223442 78.011276
v 87.322456 33.950161 78.182251
v 87.255394 33.835476 81.907402
v 87.226357 34.145557 82.276367
v 87.083115 34.574444 78.073555
v 87.367325 34.622704 77.926369
v 86.900238 34.635181 82.898315
v 87.288506 34.583588 82.542671
v 87.132622 35.113285 78.090805
v 87.498032 35.067055 77.851654
v 86.994423 35.162174 82.974739
v 87.359810 35.160545 82.594994
v 87.369949 35.401073 78.067345
v 87.294060 35.723148 78.485107
v 86.973488 35.737930 82.964767
v 87.343697 35.721687 82.491890
v 87.333740 35.986271 79.000664
v 87.315109 36.267593 79.528862
v 86.865303 36.262878 82.899506
v 87.156227 36.244823 82.408539
v 87.303421 36.431885 80.044487
v 87.296326 36.520828 80.993538
v 87.206581 36.406067 81.934685
v 87.739365 33.599419 78.788078
v 87.809608 33.423958 79.098328
v 87.862099 33.304272 79.986938
v 87.590881 33.439190 80.982574
v 87.912582 33.389786 80.521225
v 87.474991 34.078793 78.114029
v 87.865181 34.001865 78.525429
v 87.928131 33.628323 81.039360
v 87.567924 34.037655 81.955063
v 87.935776 33.973534 81.525620
v 87.645454 34.563553 78.007980
v 88.005577 34.520134 78.334564
v 87.842545 34.324352 81.946518
v 87.701698 34.660511 82.230141
v 87.715324 35.236664 77.857254
v 87.873756 34.879036 78.029785
v 87.720169 35.087685 82.257576
v 87.656174 35.632267 78.083054
v 87.821945 35.485767 77.957481
v 87.682266 35.777077 82.047432
v 87.883247 35.445999 81.984718
v 87.989349 35.790043 81.653183
v 87.887100 35.684021 78.133003
v 87.902596 36.013824 79.027840
v 87.856255 36.209755 79.560493
v 87.467918 36.237194 81.917114
v 87.799095 36.215126 81.414299
v 87.814064 36.371311 80.046043
v 87.785797 36.358212 80.962662
v 88.035324 33.520683 79.113785
v 88.374664 33.538193 79.590492
v 88.364502 33.426105 79.993729
v 88.409431 33.555054 80.421326
v 88.262566 33.959862 78.958481
v 88.570717 33.946800 79.350273
v 88.408897 33.828869 80.909882
v 88.339272 34.125034 81.261841
v 88.356613 34.637798 78.686066
v 88.479797 34.283928 79.005234
v 88.041161 34.623821 81.887138
v 88.371979 34.566906 81.448212
v 88.040794 35.206581 78.113716
v 88.369240 35.147694 78.557014
v 88.051476 35.114326 81.897957
v 88.383667 35.169437 81.452354
v 88.017876 35.628208 78.134987
v 88.314140 35.648674 78.602425
v 88.335190 35.669895 81.296890
v 88.388786 35.819458 79.059509
v 88.144394 36.246342 80.017586
v 88.481880 36.079048 79.991081
v 88.096825 36.205765 80.969856
v 88.394836 35.942875 80.929306
v 88.646133 33.568893 80.001144
v 88.892120 34.075005 79.716339
v 88.897491 33.831245 80.014549
v 88.625977 34.062672 80.895111
v 88.898117 34.064507 80.411674
v 88.657486 34.623096 79.081924
v 88.936302 34.569859 79.553284
v 88.720398 34.579182 80.964973
v 88.983643 34.580544 80.463577
v 88.698769 35.159374 79.049606
v 88.966446 35.153893 79.544464
v 88.721565 35.153545 80.964600
v 88.978607 35.150879 80.461037
v 88.618233 35.654800 79.093910
v 88.888252 35.640205 79.591202
v 88.620934 35.676010 80.899673
v 88.878433 35.647907 80.404648
v 88.910149 35.767570 79.997116
v 89.005211 34.095306 80.015495
v 89.063972 34.584129 80.005959
v 89.074043 35.150906 80.000130
v 89.005394 35.618008 79.998238
# 456 vertices, 0 vertices normals

f 3 2 1
f 1 4 3
f 2 5 1
f 1 5 4
f 8 7 6
f 2 3 6
f 3 8 6
f 3 9 8
f 11 10 4
f 10 3 4
f 10 9 3
f 11 12 10
f 15 14 13
f 15 13 7
f 13 6 7
f 13 16 6
f 17 5 2
f 6 17 2
f 16 17 6
f 11 4 5
f 17 11 5
f 18 11 17
f 12 11 19
f 19 11 18
f 13 14 20
f 20 14 21
f 13 22 16
f 13 20 22
f 16 23 17
f 16 22 23
f 17 24 18
f 17 23 24
f 19 18 25
f 25 18 24
f 20 21 26
f 26 21 27
f 20 28 22
f 20 26 28
f 22 29 23
f 22 28 29
f 23 30 24
f 23 29 30
f 25 24 31
f 31 24 30
f 27 32 26
f 26 32 28
f 28 32 33
f 28 33 29
f 29 33 34
f 29 34 30
f 30 34 35
f 30 35 31
f 38 37 36
f 40 39 36
f 36 39 38
f 7 8 40
f 8 39 40
f 8 41 39
f 42 8 9
f 42 41 8
f 43 9 10
f 43 42 9
f 10 12 43
f 43 12 44
f 36 37 45
f 45 37 46
f 45 14 15
f 40 45 15
f 36 45 40
f 40 15 7
f 19 44 12
f 19 47 44
f 45 46 48
f 48 46 49
f 48 21 14
f 48 14 45
f 25 47 19
f 25 50 47
f 48 49 51
f 51 49 52
f 51 27 21
f 51 21 48
f 31 50 25
f 31 53 50
f 52 54 51
f 54 56 55
f 54 55 32
f 51 54 32
f 27 51 32
f 57 33 32
f 57 32 55
f 58 34 33
f 58 33 57
f 59 35 34
f 59 34 58
f 59 60 35
f 60 31 35
f 60 53 31
f 56 61 55
f 55 61 57
f 57 61 62
f 64 63 62
f 63 57 62
f 63 58 57
f 66 59 65
f 59 63 65
f 59 58 63
f 59 66 60
f 64 67 63
f 63 67 65
f 70 69 68
f 68 71 70
f 74 73 72
f 74 72 69
f 69 72 68
f 72 37 68
f 37 38 68
f 75 71 68
f 38 75 68
f 39 75 38
f 76 39 41
f 76 75 39
f 77 41 42
f 77 76 41
f 78 42 43
f 78 77 42
f 43 44 78
f 78 44 79
f 72 73 80
f 80 73 81
f 80 46 37
f 80 37 72
f 47 79 44
f 47 82 79
f 80 81 83
f 83 81 84
f 83 49 46
f 83 46 80
f 50 82 47
f 50 85 82
f 83 84 86
f 86 84 87
f 86 52 49
f 86 49 83
f 53 85 50
f 53 88 85
f 87 89 86
f 89 91 90
f 89 90 54
f 86 89 54
f 52 86 54
f 90 56 54
f 60 88 53
f 60 92 88
f 91 93 90
f 90 93 56
f 93 61 56
f 93 94 61
f 61 95 62
f 94 95 61
f 97 96 64
f 62 97 64
f 95 97 62
f 66 65 96
f 97 66 96
f 98 66 97
f 60 66 92
f 92 66 98
f 96 67 64
f 67 96 65
f 101 100 99
f 69 70 99
f 70 101 99
f 70 102 101
f 104 103 71
f 103 70 71
f 103 102 70
f 104 105 103
f 99 100 74
f 100 73 74
f 100 106 73
f 99 74 69
f 75 104 71
f 107 105 104
f 75 107 104
f 76 107 75
f 108 76 77
f 108 107 76
f 110 108 109
f 108 78 109
f 108 77 78
f 79 109 78
f 106 81 73
f 111 81 106
f 112 110 109
f 109 79 112
f 79 113 112
f 79 82 113
f 111 84 81
f 114 84 111
f 85 113 82
f 85 115 113
f 114 87 84
f 116 87 114
f 88 115 85
f 88 117 115
f 116 118 87
f 87 118 89
f 91 89 118
f 91 118 119
f 122 121 120
f 121 117 120
f 117 92 120
f 117 88 92
f 119 123 91
f 91 123 93
f 93 124 94
f 123 124 93
f 94 125 95
f 124 125 94
f 95 126 97
f 125 126 95
f 120 98 122
f 98 126 122
f 98 97 126
f 98 120 92
f 128 127 101
f 101 127 100
f 129 101 102
f 129 128 101
f 130 102 103
f 130 129 102
f 103 105 130
f 130 105 131
f 127 106 100
f 132 106 127
f 133 131 105
f 133 105 107
f 134 107 108
f 134 133 107
f 108 110 134
f 134 110 135
f 132 111 106
f 136 111 132
f 110 112 137
f 138 110 137
f 135 110 138
f 113 137 112
f 136 114 111
f 139 114 136
f 138 137 140
f 138 140 141
f 115 140 113
f 113 140 137
f 139 116 114
f 142 116 139
f 141 140 143
f 141 143 144
f 117 143 115
f 115 143 140
f 142 145 116
f 116 145 118
f 119 118 145
f 119 145 146
f 149 148 147
f 147 148 144
f 147 144 143
f 122 147 143
f 121 122 143
f 121 143 117
f 146 150 119
f 119 150 123
f 123 151 124
f 150 151 123
f 124 152 125
f 151 152 124
f 147 126 149
f 126 152 149
f 126 125 152
f 126 147 122
f 155 154 153
f 157 156 153
f 153 156 155
f 157 158 156
f 153 154 128
f 154 127 128
f 154 159 127
f 153 128 129
f 153 129 157
f 160 158 157
f 129 160 157
f 130 160 129
f 130 131 160
f 160 131 161
f 159 132 127
f 162 132 159
f 131 133 163
f 164 131 163
f 161 131 164
f 134 165 133
f 133 165 163
f 135 165 134
f 162 136 132
f 166 136 162
f 167 164 163
f 169 168 167
f 163 169 167
f 165 169 163
f 138 169 135
f 135 169 165
f 166 139 136
f 170 139 166
f 168 169 171
f 168 171 172
f 141 171 138
f 138 171 169
f 170 142 139
f 173 142 170
f 176 175 174
f 174 175 172
f 171 174 172
f 177 174 171
f 144 177 141
f 141 177 171
f 173 178 142
f 142 178 145
f 180 179 146
f 145 180 146
f 178 180 145
f 182 181 179
f 182 179 180
f 181 182 176
f 174 181 176
f 183 181 174
f 149 183 148
f 183 177 148
f 183 174 177
f 148 177 144
f 179 150 146
f 150 179 151
f 151 179 181
f 151 181 152
f 152 181 183
f 152 183 149
f 185 184 155
f 155 184 154
f 186 155 156
f 186 185 155
f 156 158 186
f 186 158 187
f 190 189 188
f 184 190 188
f 159 184 188
f 154 184 159
f 191 187 158
f 191 158 160
f 160 161 191
f 191 161 192
f 188 189 193
f 193 189 194
f 193 162 159
f 193 159 188
f 164 192 161
f 164 195 192
f 193 194 196
f 196 194 197
f 196 166 162
f 196 162 193
f 164 167 198
f 199 164 198
f 195 164 199
f 168 198 167
f 197 200 196
f 166 196 200
f 201 166 200
f 170 166 201
f 199 198 202
f 199 202 203
f 172 202 168
f 168 202 198
f 201 173 170
f 204 173 201
f 203 202 175
f 176 203 175
f 205 203 176
f 175 202 172
f 204 206 173
f 173 206 178
f 178 207 180
f 206 207 178
f 180 208 182
f 207 208 180
f 176 182 205
f 205 182 208
f 211 210 209
f 184 185 209
f 185 211 209
f 185 212 211
f 213 185 186
f 213 212 185
f 186 187 213
f 213 187 214
f 209 210 190
f 210 189 190
f 210 215 189
f 209 190 184
f 216 214 187
f 216 187 191
f 191 192 216
f 216 192 217
f 215 194 189
f 218 194 215
f 195 217 192
f 195 219 217
f 218 197 194
f 220 197 218
f 199 219 195
f 199 221 219
f 200 197 222
f 197 223 222
f 197 220 223
f 222 201 200
f 203 221 199
f 203 224 221
f 223 225 222
f 201 222 225
f 226 201 225
f 204 201 226
f 229 228 227
f 228 224 227
f 224 205 227
f 224 203 205
f 226 230 204
f 204 230 206
f 206 231 207
f 230 231 206
f 227 208 229
f 208 231 229
f 208 207 231
f 208 227 205
f 234 233 232
f 236 235 232
f 232 235 234
f 236 237 235
f 240 239 238
f 240 238 233
f 233 238 232
f 238 210 232
f 210 211 232
f 232 211 212
f 232 212 236
f 241 237 236
f 212 241 236
f 213 241 212
f 213 214 241
f 241 214 242
f 238 239 243
f 243 239 244
f 243 215 210
f 243 210 238
f 214 216 245
f 246 214 245
f 242 214 246
f 217 245 216
f 243 244 247
f 247 244 248
f 247 218 215
f 247 215 243
f 246 245 249
f 246 249 250
f 219 249 217
f 217 249 245
f 247 248 251
f 251 248 252
f 251 220 218
f 251 218 247
f 250 249 253
f 250 253 254
f 221 253 219
f 219 253 249
f 252 255 251
f 220 251 255
f 256 220 255
f 223 220 256
f 254 253 257
f 254 257 258
f 224 257 221
f 221 257 253
f 256 259 223
f 223 259 225
f 261 260 226
f 225 261 226
f 259 261 225
f 263 262 260
f 263 260 261
f 262 263 258
f 262 258 257
f 229 262 257
f 228 229 257
f 228 257 224
f 260 230 226
f 230 260 231
f 231 260 262
f 231 262 229
f 266 265 264
f 233 234 264
f 234 266 264
f 234 267 266
f 268 234 235
f 268 267 234
f 235 237 268
f 268 237 269
f 272 271 270
f 272 270 265
f 265 270 264
f 270 239 264
f 239 240 264
f 264 240 233
f 273 269 237
f 273 237 241
f 241 242 273
f 273 242 274
f 270 271 275
f 275 271 276
f 275 244 239
f 275 239 270
f 246 274 242
f 246 277 274
f 275 276 278
f 278 276 279
f 278 248 244
f 278 244 275
f 250 277 246
f 250 280 277
f 279 281 278
f 248 278 281
f 282 248 281
f 252 248 282
f 254 280 250
f 254 283 280
f 282 284 252
f 252 284 255
f 256 255 284
f 256 284 285
f 258 283 254
f 258 286 283
f 285 287 256
f 256 287 259
f 259 288 261
f 287 288 259
f 261 289 263
f 288 289 261
f 258 263 286
f 286 263 289
f 292 291 290
f 265 266 290
f 266 292 290
f 266 293 292
f 294 266 267
f 294 293 266
f 296 294 295
f 294 268 295
f 294 267 268
f 269 295 268
f 299 298 297
f 299 297 291
f 291 297 290
f 297 271 290
f 271 272 290
f 290 272 265
f 300 296 295
f 302 300 301
f 301 300 273
f 300 295 273
f 295 269 273
f 274 301 273
f 297 298 303
f 303 298 304
f 303 276 271
f 303 271 297
f 302 301 305
f 302 305 306
f 277 305 274
f 274 305 301
f 304 307 303
f 276 303 307
f 308 276 307
f 279 276 308
f 309 306 305
f 305 277 309
f 277 310 309
f 277 280 310
f 281 279 311
f 279 312 311
f 279 308 312
f 311 282 281
f 315 314 313
f 314 310 313
f 310 283 313
f 310 280 283
f 312 316 311
f 311 316 282
f 316 284 282
f 316 317 284
f 285 284 317
f 285 317 318
f 315 313 319
f 315 319 320
f 286 319 283
f 283 319 313
f 318 321 285
f 285 321 287
f 287 322 288
f 321 322 287
f 319 289 320
f 289 322 320
f 289 288 322
f 289 319 286
f 325 324 323
f 327 326 323
f 323 326 325
f 327 328 326
f 331 330 329
f 331 329 324
f 324 329 323
f 329 291 323
f 291 292 323
f 323 292 293
f 323 293 327
f 332 328 327
f 293 332 327
f 294 332 293
f 294 296 332
f 332 296 333
f 329 330 299
f 330 298 299
f 330 334 298
f 329 299 291
f 335 333 296
f 335 296 300
f 300 302 335
f 335 302 336
f 334 304 298
f 337 304 334
f 306 336 302
f 306 338 336
f 307 304 339
f 304 340 339
f 304 337 340
f 339 308 307
f 306 309 341
f 342 306 341
f 338 306 342
f 310 341 309
f 340 343 339
f 308 339 343
f 344 308 343
f 312 308 344
f 342 341 314
f 315 342 314
f 345 342 315
f 314 341 310
f 344 346 312
f 312 346 316
f 316 347 317
f 346 347 316
f 349 348 318
f 317 349 318
f 347 349 317
f 351 350 348
f 351 348 349
f 351 345 350
f 345 320 350
f 345 315 320
f 348 321 318
f 321 348 322
f 322 348 350
f 322 350 320
f 354 353 352
f 324 325 352
f 325 354 352
f 325 355 354
f 356 325 326
f 356 355 325
f 326 328 356
f 356 328 357
f 360 359 358
f 360 358 353
f 353 358 352
f 358 330 352
f 330 331 352
f 352 331 324
f 361 357 328
f 361 328 332
f 332 333 361
f 361 333 362
f 358 359 363
f 363 359 364
f 363 334 330
f 363 330 358
f 333 335 365
f 366 333 365
f 362 333 366
f 336 365 335
f 363 364 367
f 367 364 368
f 367 337 334
f 367 334 363
f 366 365 369
f 366 369 370
f 338 369 336
f 336 369 365
f 368 371 367
f 337 367 371
f 372 337 371
f 340 337 372
f 370 369 373
f 370 373 374
f 342 373 338
f 338 373 369
f 372 375 340
f 340 375 343
f 344 343 375
f 344 375 376
f 374 373 377
f 374 377 378
f 345 377 342
f 342 377 373
f 376 379 344
f 344 379 346
f 346 380 347
f 379 380 346
f 347 381 349
f 380 381 347
f 377 351 378
f 351 381 378
f 351 349 381
f 351 377 345
f 383 382 354
f 354 382 353
f 384 354 355
f 384 383 354
f 386 384 385
f 384 356 385
f 384 355 356
f 357 385 356
f 387 359 360
f 388 387 360
f 353 388 360
f 382 388 353
f 389 386 385
f 391 389 390
f 390 389 361
f 389 385 361
f 385 357 361
f 362 390 361
f 392 364 387
f 387 364 359
f 387 388 393
f 387 393 392
f 394 391 390
f 390 362 394
f 362 395 394
f 362 366 395
f 397 396 392
f 396 364 392
f 396 368 364
f 397 392 393
f 370 395 366
f 370 398 395
f 371 368 399
f 368 400 399
f 368 396 400
f 399 372 371
f 403 402 401
f 402 398 401
f 398 374 401
f 398 370 374
f 400 404 399
f 399 404 372
f 404 375 372
f 404 405 375
f 376 375 405
f 376 405 406
f 403 401 407
f 403 407 408
f 378 407 374
f 374 407 401
f 406 409 376
f 376 409 379
f 379 410 380
f 409 410 379
f 407 381 408
f 381 410 408
f 381 380 410
f 381 407 378
f 411 382 383
f 411 383 412
f 383 413 412
f 383 384 413
f 384 386 413
f 413 386 414
f 415 388 411
f 411 388 382
f 411 412 416
f 411 416 415
f 417 414 386
f 417 386 389
f 389 391 417
f 417 391 418
f 420 419 415
f 419 388 415
f 419 393 388
f 420 415 416
f 391 394 421
f 422 391 421
f 418 391 422
f 395 421 394
f 423 396 397
f 424 423 397
f 393 424 397
f 419 424 393
f 422 421 425
f 422 425 426
f 398 425 395
f 395 425 421
f 427 400 423
f 423 400 396
f 423 424 428
f 423 428 427
f 426 425 402
f 403 426 402
f 429 426 403
f 402 425 398
f 427 404 400
f 428 430 427
f 430 404 427
f 430 405 404
f 432 431 406
f 405 432 406
f 430 432 405
f 434 433 431
f 434 431 432
f 434 429 433
f 429 408 433
f 429 403 408
f 431 409 406
f 409 431 410
f 410 431 433
f 410 433 408
f 435 412 413
f 414 435 413
f 437 436 435
f 436 412 435
f 436 416 412
f 439 437 438
f 438 437 417
f 437 435 417
f 435 414 417
f 418 438 417
f 440 419 420
f 441 440 420
f 416 441 420
f 436 441 416
f 439 438 442
f 439 442 443
f 422 442 418
f 418 442 438
f 444 424 440
f 440 424 419
f 440 441 445
f 440 445 444
f 443 442 446
f 443 446 447
f 426 446 422
f 422 446 442
f 448 428 444
f 444 428 424
f 444 445 449
f 444 449 448
f 447 446 450
f 447 450 451
f 429 450 426
f 426 450 446
f 448 430 428
f 449 452 448
f 452 430 448
f 452 432 430
f 450 434 451
f 434 452 451
f 434 432 452
f 434 450 429
f 453 436 437
f 439 453 437
f 454 441 453
f 453 441 436
f 443 454 439
f 439 454 453
f 455 445 454
f 454 445 441
f 447 455 443
f 443 455 454
f 456 449 455
f 455 449 445
f 451 456 447
f 447 456 455
f 456 452 449
f 452 456 451
# 908 faces, 0 coords texture

# End of File