####
#
# OBJ File Generated by Meshlab
#
####
# Object domain0650.obj
#
# Vertices: 1132
# Faces: 2260
#
####
v 79.181816 15.840056 90.099487
v 79.390480 15.832648 89.882607
v 79.265579 15.628366 90.061478
v 79.190247 15.582058 91.001892
v 79.065147 15.906697 91.005981
v 79.190559 15.582137 91.997627
v 79.063072 15.905830 91.994240
v 79.269493 15.629161 92.937943
v 79.186928 15.840189 92.899101
v 79.393425 15.833001 93.114815
v 79.194969 16.089697 90.056000
v 79.012535 16.385168 91.019745
v 79.115791 16.419548 90.485153
v 79.019699 16.386055 91.980537
v 79.123970 16.416241 92.514297
v 79.206078 16.087839 92.938576
v 79.097504 16.899736 91.048492
v 79.244743 16.931068 90.571426
v 79.101852 16.898350 91.948021
v 79.258072 16.923450 92.418839
v 79.221779 17.205200 91.023407
v 79.232231 17.197039 91.972519
v 79.501823 15.329064 90.049316
v 79.836861 15.368773 89.777634
v 79.781425 15.028431 90.043991
v 79.700996 14.947981 91.000237
v 79.424072 15.254639 91.001007
v 79.700996 14.947985 91.999779
v 79.423721 15.254413 91.998962
v 79.782433 15.029053 92.955734
v 79.505615 15.332458 92.948090
v 79.837936 15.369146 93.221115
v 79.753403 15.832187 89.680862
v 79.753700 15.832211 93.318695
v 79.377914 16.418959 90.003326
v 79.780212 16.363728 89.717491
v 79.382042 16.417528 92.994301
v 79.780128 16.363396 93.283287
v 79.524345 16.937639 90.083397
v 79.885277 16.889824 89.791054
v 79.538307 16.930710 92.909615
v 79.887520 16.888182 93.206718
v 79.752251 17.241838 90.048058
v 79.462303 17.523308 91.013557
v 79.722572 17.554430 90.514725
v 79.463852 17.523628 91.984741
v 79.718536 17.563265 92.488762
v 79.760551 17.236742 92.945847
v 79.738251 17.831985 91.010956
v 79.724625 17.845877 91.991783
v 80.075050 14.736445 90.044250
v 80.415359 14.792921 89.781303
v 80.378586 14.459760 90.052040
v 80.300415 14.377728 91.001053
v 79.993988 14.654977 91.000221
v 80.300636 14.378070 91.998993
v 79.993996 14.654974 91.999802
v 80.375076 14.455829 92.950676
v 80.074448 14.735433 92.956017
v 80.415001 14.791902 93.219955
v 80.305702 15.259860 89.618576
v 80.305695 15.259870 93.381424
v 80.287773 15.825500 89.556374
v 80.287758 15.825499 93.443604
v 80.290054 16.406042 89.564140
v 80.290062 16.406044 93.435776
v 80.310570 16.968859 89.631310
v 80.310715 16.968811 93.368408
v 80.019798 17.552288 90.032150
v 80.412697 17.460550 89.753967
v 80.025307 17.546700 92.964615
v 80.412094 17.460297 93.246384
v 80.296242 17.861160 90.016594
v 80.009552 18.154501 91.018898
v 80.269707 18.174669 90.495529
v 79.963608 18.178413 91.997398
v 80.203926 18.196962 92.544456
v 80.289543 17.867290 92.990593
v 80.250580 18.474470 90.993118
v 80.237366 18.640415 91.982803
v 80.321556 18.730719 91.507004
v 80.418457 18.684992 92.426773
v 80.421364 18.935253 91.988075
v 80.675346 14.224114 90.062645
v 80.872246 14.353448 89.896828
v 80.881409 14.154098 90.102135
v 80.946709 14.044947 91.006950
v 80.631226 14.152772 91.002693
v 80.947701 14.046395 91.993073
v 80.631104 14.152046 91.997849
v 80.882553 14.145242 92.899971
v 80.674507 14.219742 92.937912
v 80.871887 14.350357 93.105644
v 80.865738 14.712723 89.698532
v 80.865768 14.712613 93.301636
v 80.870300 15.242592 89.574059
v 80.870316 15.242590 93.425980
v 80.868416 15.821589 89.503418
v 80.868408 15.821589 93.496582
v 80.867950 16.408205 89.508202
v 80.867966 16.408205 93.491806
v 80.867363 16.995213 89.540123
v 80.867386 16.995213 93.459900
v 80.887581 17.567377 89.600983
v 80.887550 17.567398 93.399155
v 80.533401 18.187151 90.008575
v 80.948288 18.115444 89.715240
v 80.530724 18.183880 93.013809
v 80.944588 18.116381 93.293129
v 80.770012 18.679815 90.075333
v 81.068405 18.645002 89.795235
v 80.443718 18.800432 90.971954
v 80.711494 18.688057 92.909157
v 81.059532 18.646145 93.206558
v 80.944641 18.995327 90.053581
v 80.730782 19.267349 91.020058
v 80.920128 19.301453 90.520599
v 80.646576 19.264637 91.969315
v 80.895348 19.318197 92.487114
v 80.932632 18.994688 92.945816
v 80.915688 19.597881 91.006317
v 80.899773 19.602875 91.991493
v 81.103859 14.189957 90.078636
v 81.393555 14.166755 90.534004
v 81.354553 14.059602 91.033081
v 81.358543 14.049271 91.969131
v 81.109398 14.177438 92.928276
v 81.402832 14.147902 92.470825
v 81.325043 14.786644 89.772057
v 81.404663 14.413169 90.051361
v 81.412697 14.403342 92.955109
v 81.325485 14.786713 93.227966
v 81.430237 15.259842 89.619125
v 81.430244 15.259795 93.381004
v 81.454208 15.821745 89.543243
v 81.454231 15.821745 93.456757
v 81.454033 16.407801 89.508186
v 81.454025 16.407797 93.491814
v 81.453705 16.994276 89.502144
v 81.453735 16.994282 93.497856
v 81.453690 17.581121 89.523582
v 81.453690 17.581112 93.476364
v 81.462166 18.164064 89.564972
v 81.462082 18.164028 93.435646
v 81.483963 18.726238 89.634018
v 81.482719 18.726809 93.368416
v 81.197784 19.305687 90.035484
v 81.583977 19.219141 89.752808
v 81.197388 19.304642 92.964561
v 81.584084 19.218294 93.246361
v 81.452858 19.629936 90.007675
v 81.131744 19.939373 91.000801
v 81.382988 19.955124 90.458572
v 81.122543 19.944450 91.999222
v 81.370476 19.958591 92.547417
v 81.461540 19.625280 92.990570
v 81.372375 20.425093 91.041336
v 81.572052 20.455408 90.564369
v 81.374458 20.423767 91.957344
v 81.572044 20.456572 92.434662
v 81.528915 20.754545 91.014633
v 81.535240 20.750006 91.981506
v 81.661697 14.179610 91.018936
v 81.671432 14.168680 91.985664
v 81.709267 14.687729 90.037346
v 82.015022 14.675649 90.513878
v 81.977150 14.422763 91.015785
v 81.984879 14.414090 91.986763
v 81.715263 14.681445 92.967278
v 82.017555 14.672435 92.487602
v 81.908867 15.365322 89.762375
v 82.002304 14.980665 90.037239
v 82.009369 14.974100 92.967880
v 81.910095 15.364243 93.239395
v 82.011230 15.847243 89.631706
v 82.011467 15.847136 93.368729
v 82.031937 16.409964 89.564278
v 82.031914 16.409975 93.435722
v 82.040291 16.992886 89.523605
v 82.040283 16.992882 93.476379
v 82.040260 17.579721 89.502151
v 82.040283 17.579721 93.497841
v 82.039970 18.166204 89.508194
v 82.039970 18.166203 93.491814
v 82.039398 18.753218 89.540123
v 82.039383 18.753214 93.459877
v 82.059517 19.325422 89.600761
v 82.059532 19.325397 93.399155
v 81.701660 19.941801 89.984993
v 82.116196 19.875238 89.706291
v 81.702728 19.941784 93.013992
v 82.116516 19.874468 93.293251
v 81.861931 20.458506 90.078094
v 82.226562 20.415112 89.781494
v 81.873070 20.453363 92.916740
v 82.228554 20.413469 93.216270
v 82.064651 20.788095 90.023537
v 81.719498 21.110371 91.000717
v 81.974571 21.124916 90.461708
v 81.726692 21.107191 91.996078
v 81.972031 21.124380 92.539978
v 82.074509 20.784018 92.970901
v 81.967224 21.591349 91.042496
v 82.164139 21.622480 90.567245
v 81.970917 21.588781 91.955589
v 82.170784 21.619698 92.428093
v 82.143211 21.896620 91.022598
v 82.151016 21.890066 91.973892
v 82.279655 14.703330 91.013527
v 82.286804 14.696637 91.989281
v 82.289787 15.277550 90.042160
v 82.592918 15.266365 90.518013
v 82.571930 14.997065 91.013878
v 82.579353 14.989192 91.989281
v 82.298332 15.268845 92.964584
v 82.599800 15.261176 92.485512
v 82.433739 15.927483 89.793350
v 82.559944 15.580527 90.055145
v 82.570122 15.573815 92.952347
v 82.437141 15.926435 93.208855
v 82.549713 16.456802 89.706863
v 82.549530 16.457499 93.293381
v 82.606430 17.006575 89.600784
v 82.606438 17.006596 93.399170
v 82.626610 17.578785 89.540123
v 82.626602 17.578787 93.459900
v 82.626038 18.165800 89.508186
v 82.626022 18.165798 93.491806
v 82.625702 18.752277 89.502144
v 82.625710 18.752277 93.497849
v 82.625679 19.339109 89.523613
v 82.625694 19.339117 93.476364
v 82.633553 19.922865 89.561310
v 82.633598 19.922855 93.438477
v 82.650536 20.496653 89.614052
v 82.650757 20.496592 93.385506
v 82.292603 21.111914 89.989746
v 82.703117 21.048723 89.705917
v 82.294487 21.111328 93.008530
v 82.703377 21.048162 93.293877
v 82.448837 21.630014 90.079292
v 82.813576 21.586536 89.782639
v 82.462837 21.623032 92.914124
v 82.815674 21.584749 93.215019
v 82.667122 21.949146 90.032654
v 82.376587 22.226086 91.009727
v 82.626556 22.269083 90.501198
v 82.385300 22.219660 91.986778
v 82.627098 22.266922 92.498802
v 82.676979 21.944904 92.961960
v 82.626183 22.551256 91.005386
v 82.626823 22.552168 91.996689
v 82.850334 15.300944 91.016747
v 82.859901 15.292444 91.986465
v 82.784050 15.886015 90.089890
v 83.080841 15.884930 90.572357
v 83.100494 15.614326 91.026291
v 83.109451 15.607007 91.977417
v 82.797768 15.878072 92.916412
v 83.088287 15.881826 92.432632
v 82.963737 16.391138 89.985558
v 83.290619 16.375452 90.454918
v 82.964088 16.389505 93.014618
v 83.283279 16.377277 92.541893
v 83.081314 17.113401 89.753860
v 83.204994 16.706793 90.010193
v 83.213066 16.701918 92.992790
v 83.082367 17.113085 93.247337
v 83.182014 17.605759 89.634018
v 83.181900 17.605799 93.365768
v 83.203880 18.167923 89.564850
v 83.203934 18.167894 93.435295
v 83.212204 18.750916 89.523994
v 83.212196 18.750935 93.476006
v 83.211891 19.337929 89.507294
v 83.211899 19.337927 93.492699
v 83.212097 19.924074 89.507301
v 83.212090 19.924068 93.492691
v 83.211784 20.511065 89.524017
v 83.211800 20.511068 93.475975
v 83.219498 21.094873 89.561180
v 83.219521 21.094887 93.438713
v 83.236565 21.668602 89.614212
v 83.236717 21.668615 93.385590
v 82.881767 22.287445 90.013741
v 83.293190 22.219204 89.714584
v 82.884262 22.288523 92.986153
v 83.293335 22.217445 93.287064
v 83.118187 22.779322 90.075233
v 83.412865 22.746778 89.795647
v 82.825775 22.882313 90.989540
v 82.828529 22.881117 92.008774
v 83.121712 22.779415 92.921906
v 83.412437 22.743813 93.202744
v 83.288559 23.097427 90.053848
v 83.093742 23.360086 91.022743
v 83.269234 23.400927 90.522179
v 83.100433 23.356567 91.975914
v 83.274872 23.402605 92.478798
v 83.298676 23.091833 92.941254
v 83.268784 23.695726 91.005051
v 83.275024 23.689486 91.989525
v 83.280540 15.915540 91.044510
v 83.285500 15.911950 91.957443
v 83.529129 16.395248 91.002998
v 83.533905 16.392239 91.999382
v 83.463089 17.031500 90.039421
v 83.739189 17.029125 90.520142
v 83.736473 16.743940 91.010223
v 83.739365 16.739290 91.994354
v 83.465034 17.028240 92.962311
v 83.737366 17.035151 92.476715
v 83.597099 17.687256 89.795692
v 83.720772 17.337397 90.054695
v 83.712143 17.341228 92.942200
v 83.597557 17.690184 93.202759
v 83.716728 18.214762 89.714577
v 83.716721 18.216585 93.287086
v 83.773224 18.765446 89.614586
v 83.773438 18.765331 93.385956
v 83.790474 19.339113 89.561279
v 83.790497 19.339127 93.438805
v 83.798195 19.922930 89.524017
v 83.798203 19.922932 93.475967
v 83.797882 20.509926 89.507301
v 83.797882 20.509930 93.492691
v 83.798103 21.096073 89.507294
v 83.798080 21.096071 93.492691
v 83.797768 21.683079 89.524002
v 83.797775 21.683058 93.475967
v 83.806114 22.266081 89.564850
v 83.806061 22.266111 93.435310
v 83.827957 22.828249 89.634033
v 83.828072 22.828197 93.365761
v 83.541847 23.407618 90.035522
v 83.927948 23.321135 89.752800
v 83.549942 23.400839 92.958328
v 83.928345 23.320404 93.246330
v 83.796867 23.731911 90.007652
v 83.475479 24.041487 91.000694
v 83.726982 24.057117 90.458557
v 83.481186 24.038822 91.996971
v 83.718147 24.058992 92.545662
v 83.805153 23.727276 92.990166
v 83.716370 24.527090 91.041313
v 83.916023 24.557405 90.564377
v 83.718468 24.525768 91.957359
v 83.916046 24.558573 92.434662
v 83.872917 24.856548 91.014648
v 83.879265 24.852005 91.981491
v 83.914330 17.075258 91.022926
v 83.911819 17.075935 91.976166
v 83.891815 17.654680 90.075226
v 84.183678 17.552021 90.989594
v 84.182037 17.552542 92.008858
v 83.888367 17.654549 92.921913
v 84.127708 18.146738 90.014198
v 84.383575 18.166080 90.501854
v 84.382317 17.883722 91.005508
v 84.384697 17.880827 91.996880
v 84.383163 18.165983 92.499367
v 84.126572 18.145094 92.986740
v 84.193886 18.848356 89.784470
v 84.334320 18.488478 90.037933
v 84.341148 18.485687 92.967079
v 84.196632 18.848171 93.216919
v 84.306786 19.385180 89.706375
v 84.306686 19.385742 93.294083
v 84.359253 19.937403 89.614464
v 84.359421 19.937355 93.385880
v 84.376465 20.511114 89.561287
v 84.376419 20.511154 93.438568
v 84.384201 21.094933 89.524033
v 84.384293 21.094879 93.476364
v 84.383904 21.681929 89.507294
v 84.384277 21.681721 93.497849
v 84.384026 22.268127 89.508507
v 84.383957 22.268202 93.491806
v 84.383385 22.855221 89.540092
v 84.383369 22.855217 93.459885
v 84.403549 23.427433 89.600761
v 84.403542 23.427406 93.399178
v 84.045670 24.043808 89.984970
v 84.460190 23.977240 89.706299
v 84.046722 24.043785 93.013985
v 84.460541 23.976477 93.293266
v 84.205925 24.560490 90.078064
v 84.570549 24.517111 89.781502
v 84.217049 24.555363 92.916718
v 84.572540 24.515469 93.216278
v 84.408669 24.890106 90.023537
v 84.063522 25.212374 91.000748
v 84.318588 25.226927 90.461700
v 84.070808 25.209164 91.996025
v 84.314507 25.227314 92.540848
v 84.418518 24.886011 92.970917
v 84.302376 25.699095 91.041344
v 84.502045 25.729410 90.564377
v 84.304489 25.697773 91.957375
v 84.503670 25.729944 92.433731
v 84.458923 26.028561 91.014641
v 84.465271 26.024004 91.981514
v 84.625984 18.213654 91.012833
v 84.631775 18.208733 91.989578
v 84.547546 18.811440 90.085197
v 84.839355 18.813787 90.571915
v 84.858345 18.544344 91.026176
v 84.867363 18.537020 91.977509
v 84.560608 18.803934 92.920059
v 84.846298 18.811838 92.432640
v 84.715652 19.323587 89.991493
v 85.037338 19.309496 90.460243
v 84.717430 19.321430 93.010284
v 85.035873 19.309391 92.538872
v 84.780869 20.019831 89.783409
v 84.935455 19.650219 90.029694
v 84.945427 19.645706 92.976967
v 84.783852 20.019394 93.218330
v 84.892792 20.557196 89.706406
v 84.893593 20.559402 93.293503
v 84.945259 21.109402 89.614464
v 84.950455 21.108599 93.399147
v 84.962433 21.683132 89.561417
v 84.970627 21.680786 93.459892
v 84.970299 22.266893 89.523590
v 84.970039 22.267799 93.491798
v 84.970001 22.854002 89.503723
v 84.969734 22.854282 93.497856
v 84.969704 23.441111 89.523590
v 84.969688 23.441114 93.476341
v 84.977547 24.024860 89.561317
v 84.977585 24.024855 93.438484
v 84.994553 24.598656 89.614052
v 84.994751 24.598595 93.385513
v 84.636612 25.213907 89.989738
v 85.047134 25.150709 89.705940
v 84.638466 25.213289 93.008598
v 85.047401 25.150164 93.293861
v 84.791908 25.732513 90.078087
v 85.156502 25.689116 89.781372
v 84.803070 25.727365 92.916748
v 85.158432 25.687479 93.216476
v 84.994675 26.062103 90.023537
v 84.649513 26.384367 91.000725
v 84.904564 26.398920 90.461700
v 84.656700 26.381199 91.996071
v 84.902046 26.398384 92.539986
v 85.004501 26.058012 92.970894
v 84.897217 26.865356 91.042496
v 85.094131 26.896484 90.567245
v 84.900932 26.862785 91.955589
v 85.101784 26.892696 92.427422
v 85.072868 27.170847 91.022629
v 85.081169 27.163851 91.973778
v 85.038452 18.845592 91.044540
v 85.043510 18.841948 91.957420
v 85.282890 19.327198 91.004028
v 85.290436 19.323107 91.999428
v 85.136894 19.981314 90.082863
v 85.436012 19.977886 90.566376
v 85.474503 19.684074 91.018570
v 85.481247 19.679462 91.985344
v 85.147919 19.975170 92.921539
v 85.438301 19.978996 92.435493
v 85.301651 20.495581 89.991478
v 85.624870 20.480629 90.459488
v 85.308090 20.491508 93.014626
v 85.627289 20.479275 92.541870
v 85.366821 21.191837 89.783554
v 85.521423 20.822216 90.029678
v 85.557076 20.803911 92.992760
v 85.426369 21.215082 93.247314
v 85.479759 21.730690 89.706764
v 85.525894 21.707800 93.365768
v 85.536453 22.280577 89.600784
v 85.547951 22.269899 93.435295
v 85.556610 22.852787 89.540085
v 85.556190 22.852936 93.475983
v 85.555954 23.439873 89.508514
v 85.555878 23.439930 93.492706
v 85.556084 24.026070 89.507301
v 85.556091 24.026072 93.492706
v 85.555794 24.613070 89.524033
v 85.555801 24.613070 93.475967
v 85.563499 25.196871 89.561157
v 85.563507 25.196882 93.438705
v 85.580544 25.770660 89.614075
v 85.580757 25.770596 93.385506
v 85.222603 26.385914 89.989746
v 85.633163 26.322594 89.706017
v 85.224457 26.385319 93.008545
v 85.633461 26.322071 93.293732
v 85.384018 26.899593 90.083214
v 85.745201 26.851797 89.790955
v 85.398010 26.892824 92.909813
v 85.747459 26.850155 93.206795
v 85.612259 27.203833 90.048058
v 85.316498 27.491911 91.012619
v 85.578049 27.521818 90.512222
v 85.323746 27.485651 91.984871
v 85.578484 27.525307 92.488808
v 85.620575 27.198738 92.945847
v 85.573586 27.818813 91.002319
v 85.578323 27.813229 91.992668
v 85.634979 20.010611 91.042763
v 85.638206 20.008232 91.958580
v 85.868950 20.499168 91.004013
v 85.877892 20.494261 91.999382
v 85.722923 21.153378 90.082924
v 86.023476 21.149323 90.565643
v 86.060532 20.856016 91.018723
v 86.083092 20.841484 91.994423
v 85.809021 21.130232 92.962296
v 86.081451 21.137096 92.476746
v 85.893745 21.665140 89.985565
v 86.226097 21.646563 90.452164
v 86.056129 21.443224 92.942207
v 85.941544 21.792191 93.202744
v 86.011528 22.387566 89.753929
v 86.134727 21.980795 90.009903
v 86.060715 22.318583 93.287094
v 86.113251 22.879219 89.631660
v 86.117447 22.867331 93.385948
v 86.133980 23.441946 89.564140
v 86.134483 23.441130 93.438797
v 86.142204 24.024935 89.524048
v 86.142204 24.024933 93.475967
v 86.141914 24.611931 89.507301
v 86.141922 24.611931 93.492714
v 86.142097 25.198072 89.507294
v 86.142082 25.198072 93.492706
v 86.141800 25.785069 89.524017
v 86.141800 25.785069 93.475952
v 86.150009 26.368052 89.564034
v 86.150032 26.368053 93.435890
v 86.170555 26.930866 89.631287
v 86.170708 26.930807 93.368408
v 85.879143 27.514744 90.030952
v 86.271706 27.422943 89.752869
v 85.885307 27.508699 92.964622
v 86.272095 27.422298 93.246384
v 86.140823 27.834080 90.007248
v 85.806625 28.150423 90.997604
v 86.070976 28.159122 90.458557
v 85.810211 28.148678 91.999413
v 86.059914 28.161638 92.546600
v 86.149559 27.829294 92.990608
v 86.069229 28.623352 91.042503
v 86.266136 28.654486 90.567261
v 86.072922 28.620789 91.955597
v 86.272697 28.650976 92.428062
v 86.244858 28.928844 91.022614
v 86.253159 28.921846 91.973770
v 86.226227 21.180655 91.042702
v 86.251251 21.179985 91.976311
v 86.476166 21.660700 90.999741
v 86.523521 21.655573 92.009148
v 86.231819 21.756794 92.921768
v 86.398254 22.301701 90.035828
v 86.705299 22.284866 90.511330
v 86.709007 21.993853 91.007256
v 86.725677 21.985197 91.996521
v 86.727150 22.267988 92.499352
v 86.470589 22.247034 92.986664
v 86.535805 22.959488 89.793251
v 86.662842 22.611809 90.054718
v 86.685135 22.587679 92.967064
v 86.540619 22.950167 93.216919
v 86.650719 23.487307 89.706482
v 86.650703 23.487741 93.294083
v 86.703278 24.039404 89.614479
v 86.703400 24.039352 93.385895
v 86.720444 24.613134 89.561417
v 86.720413 24.613152 93.438583
v 86.728325 25.196890 89.523613
v 86.728310 25.196890 93.476379
v 86.728279 25.783724 89.502151
v 86.728287 25.783728 93.497856
v 86.727951 26.370201 89.508202
v 86.727966 26.370201 93.491821
v 86.727386 26.957218 89.540115
v 86.727379 26.957211 93.459892
v 86.747551 27.529430 89.600777
v 86.747528 27.529398 93.399162
v 86.389648 28.145800 89.984985
v 86.804237 28.079142 89.706429
v 86.390678 28.145824 93.013901
v 86.804588 28.078381 93.293121
v 86.556030 28.657595 90.083252
v 86.917290 28.609808 89.791039
v 86.570015 28.650822 92.909805
v 86.919556 28.608145 93.206589
v 86.784233 28.961824 90.048035
v 86.494072 29.243576 91.013527
v 86.754372 29.274683 90.514618
v 86.503654 29.235065 91.983261
v 86.760864 29.269779 92.482071
v 86.793472 28.955999 92.945374
v 86.774620 29.546824 91.010696
v 86.782059 29.538919 91.986107
v 86.960220 22.324381 91.015121
v 86.975754 22.310717 91.989525
v 86.886047 22.917934 90.089851
v 87.181786 22.917240 90.572914
v 87.202507 22.646334 91.026283
v 87.211365 22.639029 91.977501
v 86.904594 22.905941 92.920059
v 87.190285 22.913826 92.432625
v 87.059631 23.425583 89.991493
v 87.381340 23.411499 90.460251
v 87.061432 23.423431 93.010284
v 87.379875 23.411398 92.538872
v 87.124802 24.121832 89.783531
v 87.279442 23.752214 90.029694
v 87.289429 23.747704 92.976959
v 87.127838 24.121389 93.218330
v 87.237778 24.660696 89.706764
v 87.237564 24.661392 93.293480
v 87.294456 25.210577 89.600792
v 87.294434 25.210604 93.399162
v 87.314606 25.782782 89.540115
v 87.314606 25.782778 93.459885
v 87.314018 26.369801 89.508194
v 87.313995 26.369793 93.491791
v 87.313713 26.956278 89.502144
v 87.313721 26.956278 93.497856
v 87.313698 27.543110 89.523621
v 87.313698 27.543119 93.476357
v 87.322037 28.126040 89.564156
v 87.322083 28.126024 93.435646
v 87.342560 28.688837 89.631332
v 87.342743 28.688782 93.368370
v 87.056053 29.266832 90.035851
v 87.444145 29.171631 89.760925
v 87.063652 29.258938 92.958366
v 87.444946 29.170893 93.237900
v 87.344734 29.561815 90.032181
v 87.067200 29.839361 91.010735
v 87.336441 29.863575 90.512390
v 87.074310 29.832670 91.986473
v 87.336716 29.863281 92.487503
v 87.351562 29.555422 92.962891
v 87.360641 30.132809 91.010727
v 87.367332 30.125666 91.986481
v 87.382462 22.947586 91.044548
v 87.387505 22.943951 91.957436
v 87.626900 23.429197 91.004028
v 87.634445 23.425110 91.999474
v 87.480911 24.083384 90.082916
v 87.781631 24.079245 90.565575
v 87.818489 23.786074 91.018562
v 87.825249 23.781462 91.985352
v 87.491920 24.077164 92.921547
v 87.782303 24.080996 92.435493
v 87.651749 24.595142 89.985542
v 87.983124 24.577187 90.452698
v 87.652077 24.593508 93.014618
v 87.971291 24.581282 92.541885
v 87.769569 25.317572 89.753944
v 87.892754 24.910797 90.009918
v 87.901085 24.905918 92.992790
v 87.770401 25.317087 93.247337
v 87.871223 25.809214 89.631653
v 87.869911 25.809801 93.365776
v 87.891953 26.371962 89.564270
v 87.891861 26.371922 93.435089
v 87.900299 26.954891 89.523613
v 87.900291 26.954885 93.476387
v 87.900276 27.541723 89.502151
v 87.900276 27.541721 93.497856
v 87.899940 28.128204 89.508186
v 87.899948 28.128197 93.491806
v 87.899773 28.714249 89.543251
v 87.899788 28.714258 93.456757
v 87.923706 29.276300 89.618744
v 87.923698 29.276295 93.381248
v 87.638084 29.855368 90.032089
v 88.028214 29.756050 89.760635
v 87.644661 29.848295 92.962776
v 88.029282 29.754833 93.237595
v 87.932816 30.144363 90.035393
v 87.653282 30.425261 91.010727
v 87.925209 30.445747 90.514534
v 87.661255 30.417700 91.986107
v 87.930603 30.438532 92.482117
v 87.941544 30.135784 92.957863
v 87.956802 30.705818 91.013153
v 87.965660 30.696087 91.983597
v 87.979080 24.112541 91.042740
v 87.982208 24.110229 91.958580
v 88.231041 24.591951 91.000786
v 88.221947 24.596262 91.999245
v 88.156181 25.231741 90.035843
v 88.459366 25.217340 90.512711
v 88.456673 24.932636 91.010651
v 88.435143 24.939100 91.995125
v 88.153038 25.232243 92.962334
v 88.429527 25.236835 92.478127
v 88.293739 25.889490 89.793396
v 88.420769 25.541845 90.054710
v 88.401138 25.544798 92.942719
v 88.285896 25.893965 93.203011
v 88.409729 26.418798 89.706863
v 88.405556 26.422493 93.286179
v 88.466408 26.968584 89.600853
v 88.466423 26.968594 93.399109
v 88.486687 27.540758 89.539925
v 88.486671 27.540756 93.460075
v 88.486504 28.127527 89.503128
v 88.486465 28.127514 93.496887
v 88.485504 28.714481 89.503105
v 88.485474 28.714476 93.496880
v 88.485733 29.300209 89.543243
v 88.485725 29.300205 93.456741
v 88.511124 29.857443 89.631264
v 88.511223 29.857233 93.368294
v 88.237923 30.415648 90.047348
v 88.590439 30.283106 89.791183
v 88.244720 30.405222 92.944984
v 88.591537 30.279642 93.206543
v 88.541817 30.643703 90.084160
v 88.271172 30.955482 91.023010
v 88.545929 30.934195 90.567451
v 88.278839 30.946285 91.973129
v 88.548935 30.926725 92.427254
v 88.549950 30.629505 92.909309
v 88.575958 31.131474 91.042610
v 88.579628 31.126345 91.955437
v 88.710098 25.270565 91.028091
v 88.618599 25.269817 91.976479
v 88.642654 25.848827 90.090553
v 88.934120 25.850447 90.573822
v 88.941406 25.590618 91.011604
v 89.035103 25.809874 91.493431
v 88.906975 25.734993 92.026581
v 88.579475 25.856726 92.921608
v 88.823662 26.353182 89.985634
v 89.149590 26.338356 90.455826
v 89.098900 26.062084 92.009491
v 89.082748 26.362320 92.504448
v 88.818062 26.348194 92.991051
v 88.942482 27.076647 89.754448
v 89.064644 26.668846 90.009903
v 89.055542 26.675842 92.983139
v 88.942245 27.077034 93.245132
v 89.048241 27.565722 89.618843
v 89.048256 27.565718 93.381149
v 89.072281 28.127722 89.543060
v 89.072281 28.127724 93.456940
v 89.072464 28.713516 89.503128
v 89.072464 28.713509 93.496895
v 89.071800 29.300028 89.508186
v 89.071770 29.300022 93.491806
v 89.073967 29.877916 89.564270
v 89.073936 29.877932 93.435730
v 89.121483 30.395515 89.706642
v 89.120773 30.395737 93.293144
v 89.053528 30.810083 89.985382
v 89.041283 31.129292 90.458115
v 89.055222 30.809643 93.014343
v 89.038185 31.139540 92.546883
v 89.049416 31.393217 90.996887
v 89.051895 31.389908 91.999901
v 89.113754 25.894436 91.014572
v 89.388397 26.359097 91.001808
v 89.343895 26.381910 91.977974
v 89.333664 26.985954 90.030853
v 89.646278 26.964592 90.505455
v 89.629501 26.689568 91.009018
v 89.616943 26.703220 91.990204
v 89.337753 26.981609 92.971268
v 89.635376 26.978666 92.487511
v 89.527786 27.672178 89.762794
v 89.621208 27.285807 90.036644
v 89.627350 27.280113 92.967880
v 89.528770 27.671219 93.238747
v 89.634239 28.151760 89.618935
v 89.634254 28.151764 93.381058
v 89.658264 28.713717 89.543053
v 89.658279 28.713717 93.456947
v 89.658409 29.299580 89.503426
v 89.658394 29.299582 93.496574
v 89.656898 29.886303 89.523613
v 89.656891 29.886297 93.476418
v 89.670609 30.452454 89.600845
v 89.670563 30.452456 93.399200
v 89.365746 31.058765 90.006233
v 89.777168 30.928633 89.752594
v 89.371071 31.049774 92.990532
v 89.777603 30.927511 93.246056
v 89.684525 31.321245 90.031029
v 89.381500 31.626436 91.002922
v 89.678062 31.622086 90.512131
v 89.387077 31.621845 91.992142
v 89.674980 31.620981 92.488441
v 89.691093 31.314186 92.963280
v 89.708374 31.883467 91.012245
v 89.714996 31.876087 91.985237
v 89.905418 27.000854 91.012093
v 89.904533 27.002882 91.989128
v 89.913383 27.579605 90.037178
v 90.222954 27.563025 90.511543
v 90.190666 27.302326 91.013519
v 90.197365 27.295191 91.989273
v 89.919846 27.572651 92.967857
v 90.221565 27.564432 92.487602
v 90.113853 28.258205 89.762764
v 90.206406 27.872608 90.037178
v 90.213341 27.866140 92.967834
v 90.114784 28.257235 93.238701
v 90.220284 28.737741 89.618858
v 90.220284 28.737734 93.381126
v 90.245247 29.299314 89.539902
v 90.245224 29.299314 93.460091
v 90.244011 29.886003 89.503723
v 90.244011 29.885992 93.496269
v 90.242783 30.472610 89.540092
v 90.242775 30.472610 93.459908
v 90.269127 31.029457 89.631241
v 90.269218 31.029249 93.368340
v 89.995934 31.587633 90.047379
v 90.348427 31.455095 89.791183
v 90.002037 31.578075 92.945366
v 90.349525 31.451630 93.206520
v 90.299782 31.815691 90.084160
v 90.029175 32.127480 91.022995
v 90.303902 32.106194 90.567451
v 90.036850 32.118282 91.973167
v 90.306564 32.099163 92.427490
v 90.307922 31.801565 92.909386
v 90.333939 32.303471 91.042587
v 90.337624 32.298344 91.955429
v 90.483665 27.595329 91.013519
v 90.490807 27.588642 91.989304
v 90.500168 28.164831 90.036652
v 90.821571 28.139555 90.505791
v 90.785309 27.880398 91.012085
v 90.789734 27.875603 91.990173
v 90.505814 28.158688 92.967804
v 90.812683 28.146112 92.489990
v 90.709068 28.843374 89.754471
v 90.800568 28.452374 90.031670
v 90.805603 28.447290 92.972183
v 90.709961 28.842834 93.246643
v 90.817368 29.319588 89.600960
v 90.817421 29.319557 93.399155
v 90.831123 29.885696 89.523613
v 90.831116 29.885702 93.476402
v 90.829887 30.471956 89.508522
v 90.829880 30.471954 93.491493
v 90.831970 31.049913 89.564262
v 90.831963 31.049944 93.435738
v 90.879509 31.567524 89.706635
v 90.878815 31.567739 93.293152
v 90.811539 31.982075 89.985374
v 90.799294 32.301292 90.458130
v 90.813194 31.981638 93.014336
v 90.797462 32.308868 92.545761
v 90.814827 32.551857 90.999870
v 90.817719 32.547581 91.997757
v 91.101654 28.149183 91.007561
v 91.106705 28.145306 91.997124
v 91.116959 28.722599 90.009087
v 91.449776 28.631363 90.452774
v 91.436378 28.381887 91.000038
v 91.438103 28.378576 92.002937
v 91.122147 28.713123 92.993332
v 91.447136 28.643000 92.541443
v 91.366386 29.376602 89.706902
v 91.433769 28.962818 89.986198
v 91.433769 28.961657 93.015015
v 91.367264 29.376179 93.293694
v 91.414032 29.894093 89.564354
v 91.414871 29.893541 93.438698
v 91.416138 30.472040 89.508514
v 91.416061 30.472097 93.492699
v 91.414894 31.058298 89.523628
v 91.414909 31.058304 93.476387
v 91.428604 31.624449 89.600845
v 91.428558 31.624453 93.399200
v 91.123726 32.230770 90.006241
v 91.535065 32.100365 89.752663
v 91.129051 32.221775 92.990532
v 91.535423 32.099297 93.246094
v 91.449638 32.482994 90.038475
v 91.161240 32.758053 91.006371
v 91.457138 32.755409 90.523277
v 91.165848 32.755405 91.989182
v 91.451263 32.757202 92.479332
v 91.452583 32.481140 92.959465
v 91.497841 32.929970 91.023788
v 91.497124 32.932533 91.977081
v 91.939339 28.844345 90.572090
v 91.908676 28.645138 91.044441
v 91.911346 28.641249 91.957489
v 91.942398 28.838238 92.432678
v 91.896103 29.491657 89.793526
v 91.938919 29.142540 90.090958
v 91.950310 29.123028 92.919945
v 91.906532 29.487688 93.217216
v 91.976814 29.914717 89.631592
v 91.988609 29.910574 93.385788
v 92.003220 30.471380 89.540092
v 92.003098 30.471777 93.476006
v 92.002022 31.058004 89.503723
v 92.001740 31.058277 93.497871
v 92.000801 31.644617 89.540100
v 92.000771 31.644611 93.459885
v 92.027809 32.199913 89.634239
v 92.027771 32.200020 93.365967
v 91.763283 32.730087 90.057869
v 92.112167 32.615551 89.797256
v 91.759453 32.738678 92.945251
v 92.109268 32.615097 93.204315
v 92.076553 32.906372 90.078094
v 91.982613 33.185383 90.993942
v 91.982788 33.185642 92.007324
v 92.076683 32.909836 92.924767
v 92.209335 28.825375 91.026802
v 92.216438 28.817074 91.976898
v 92.244476 29.365356 90.054131
v 92.571114 29.322899 90.511490
v 92.530952 29.068039 91.014847
v 92.545502 29.050856 91.990715
v 92.269142 29.341574 92.967842
v 92.588821 29.300838 92.498688
v 92.468262 30.016123 89.753677
v 92.555252 29.629362 90.036293
v 92.607590 29.555614 92.986252
v 92.539345 29.967163 93.285538
v 92.575394 30.491552 89.600838
v 92.586952 30.479622 93.437965
v 92.589096 31.057701 89.523598
v 92.588150 31.058033 93.493019
v 92.587860 31.643963 89.508499
v 92.587791 31.644035 93.491798
v 92.589890 32.221947 89.564697
v 92.589928 32.221878 93.435150
v 92.638405 32.734245 89.713135
v 92.636513 32.734455 93.285423
v 92.572762 33.133495 90.019432
v 92.323265 33.362125 91.006180
v 92.608398 33.362942 90.511726
v 92.326065 33.360634 91.991493
v 92.606094 33.364803 92.488976
v 92.573997 33.136753 92.981239
v 92.662415 33.529083 91.021355
v 92.661972 33.530849 91.979210
v 92.861526 29.318863 91.007317
v 92.869011 29.303490 91.993637
v 92.874977 29.894547 90.008995
v 93.209167 29.801430 90.451630
v 93.195465 29.551069 91.000076
v 93.201035 29.502573 92.011673
v 93.103554 29.786659 92.927917
v 93.075233 30.085154 93.212128
v 93.124474 30.548521 89.706734
v 93.191727 30.134806 89.986053
v 93.160202 30.497957 93.382957
v 93.172867 31.065598 89.561523
v 93.175072 31.057777 93.475990
v 93.174080 31.644094 89.507294
v 93.174011 31.643999 93.499397
v 93.172928 32.230186 89.524017
v 93.172928 32.230213 93.475983
v 93.187729 32.790058 89.616882
v 93.187782 32.790112 93.383102
v 92.916573 33.325451 90.044090
v 93.273323 33.195641 89.795959
v 92.912689 33.335270 92.959671
v 93.271629 33.196346 93.205101
v 93.246918 33.474186 90.084610
v 93.157387 33.766422 90.994179
v 93.157555 33.766033 92.006088
v 93.245995 33.477303 92.916924
v 93.707542 30.002905 90.564682
v 93.675957 29.801611 91.042267
v 93.684052 29.760868 91.978790
v 93.436714 29.947701 92.961578
v 93.742905 29.922012 92.489388
v 93.663826 30.660782 89.783760
v 93.703285 30.305450 90.083679
v 93.773369 30.152039 92.981255
v 93.711578 30.553553 93.285484
v 93.747437 31.082047 89.611900
v 93.758942 31.065613 93.437958
v 93.761040 31.643833 89.523056
v 93.760147 31.644024 93.493011
v 93.759933 32.229916 89.507294
v 93.759865 32.229973 93.493011
v 93.761063 32.804779 89.574135
v 93.761063 32.804726 93.425774
v 93.776283 33.264179 89.742683
v 93.775215 33.262947 93.256363
v 93.759193 33.639774 90.061348
v 93.502533 33.931095 91.011658
v 93.800499 33.895477 90.548050
v 93.505890 33.926453 91.986771
v 93.800308 33.895203 92.449501
v 93.761040 33.640453 92.938095
v 93.837952 34.082485 91.039146
v 93.839294 34.081699 91.960625
v 94.006882 29.955313 91.016327
v 94.025414 29.922348 91.991898
v 94.037178 30.501812 90.024620
v 94.388031 30.370321 90.441376
v 94.375504 30.127115 90.998817
v 94.382240 30.075544 92.012527
v 94.278023 30.367785 92.930244
v 94.247742 30.670374 93.212990
v 94.308182 31.127583 89.691559
v 94.373131 30.707458 89.974373
v 94.332253 31.083942 93.383095
v 94.345726 31.649372 89.546463
v 94.347076 31.643803 93.475960
v 94.346016 32.229996 89.511826
v 94.346085 32.229790 93.493797
v 94.346321 32.810623 89.546394
v 94.346321 32.810658 93.453712
v 94.383408 33.332390 89.691063
v 94.382401 33.333382 93.309601
v 94.320183 33.747921 89.980133
v 94.314331 34.060322 90.457687
v 94.322136 33.747555 93.020035
v 94.310776 34.062664 92.545464
v 94.331108 34.307945 91.000481
v 94.334885 34.301674 91.996346
v 94.924843 30.501650 90.515083
v 94.918266 30.301722 91.030373
v 94.906868 30.272554 91.988762
v 94.616753 30.516418 92.965843
v 94.947998 30.445267 92.523727
v 94.917328 31.192154 89.736328
v 94.920853 30.815828 90.041153
v 94.944626 30.732670 93.003571
v 94.884987 31.135296 93.294296
v 94.929993 31.655880 89.577148
v 94.929985 31.652020 93.435905
v 94.931664 32.230305 89.513603
v 94.931679 32.230312 93.486397
v 94.930489 32.815804 89.529076
v 94.930473 32.815792 93.470955
v 94.943192 33.374447 89.624741
v 94.943169 33.374313 93.375046
v 94.654312 33.958725 90.025078
v 95.018471 33.784622 89.804764
v 94.658218 33.948772 92.968002
v 95.018845 33.781517 93.193687
v 94.978378 34.125069 90.108772
v 94.693039 34.482533 91.017891
v 94.987976 34.397587 90.592499
v 94.698120 34.473595 91.977768
v 94.992538 34.384644 92.399055
v 94.987160 34.109753 92.884430
v 95.014397 34.559978 91.053780
v 95.016106 34.557163 91.943718
v 95.454010 30.629925 90.585739
v 95.426826 30.443935 91.050224
v 95.431084 30.429289 91.954132
v 95.460030 30.600714 92.431160
v 95.413017 31.255762 89.800743
v 95.457146 30.917416 90.102287
v 95.463440 30.884003 92.918877
v 95.415329 31.244509 93.212326
v 95.486595 31.674723 89.645660
v 95.486931 31.674240 93.355316
v 95.505119 32.232113 89.579712
v 95.505035 32.232132 93.420128
v 95.504837 32.813351 89.578789
v 95.504807 32.813351 93.421165
v 95.487701 33.367588 89.654251
v 95.487770 33.367783 93.346008
v 95.414627 33.773209 89.821083
v 95.415733 33.777298 93.180862
v 95.448853 34.093468 90.127449
v 95.425186 34.363918 90.606895
v 95.462784 34.110134 92.879066
v 95.427910 34.378155 92.401588
v 95.395470 34.536148 91.057419
v 95.398285 34.538158 91.944458
v 95.752396 30.567356 91.021332
v 95.759651 30.556232 91.984528
v 95.760254 31.123192 90.061234
v 96.159927 31.110353 90.514702
v 96.102783 30.765005 91.013016
v 96.107590 30.754614 91.993118
v 95.768738 31.107536 92.947342
v 96.096779 31.038765 92.503922
v 95.887924 31.752409 89.810547
v 96.020866 31.401297 90.068863
v 96.087708 31.403824 92.880302
v 95.893456 31.752441 93.191116
v 95.936150 32.242981 89.763466
v 95.935562 32.242970 93.235580
v 95.937508 32.804039 89.761482
v 95.937096 32.804073 93.237991
v 95.886902 33.289276 89.810768
v 95.886841 33.289413 93.189255
v 95.961472 33.588654 90.057480
v 95.707832 33.888081 90.082550
v 95.891129 34.013611 91.004715
v 96.072151 33.680832 90.999443
v 95.893639 34.014328 91.998093
v 96.073631 33.680790 91.998238
v 95.712090 33.896530 92.925728
v 95.964333 33.592041 92.941727
v 95.565552 34.424915 91.037193
v 95.572769 34.428265 91.966759
v 96.443970 31.094259 90.867317
v 96.550980 31.020386 91.057175
v 96.550987 31.022476 91.933830
v 96.393936 31.166031 92.229660
v 96.157455 31.704693 90.134453
v 96.537994 31.326725 90.983383
v 96.500229 31.691046 91.003403
v 96.491493 31.675552 92.035820
v 96.573456 31.306036 91.967087
v 96.156097 31.718988 92.920990
v 96.188187 32.241451 90.073174
v 96.407379 32.227859 90.996513
v 96.411171 32.231098 91.999847
v 96.194824 32.235699 92.925293
v 96.171738 32.802795 90.073387
v 96.323929 32.805790 91.002060
v 96.324219 32.806301 91.997513
v 96.171631 32.802219 92.926010
v 96.094742 33.299850 90.075790
v 96.205475 33.328487 91.001396
v 96.205826 33.328781 91.998642
v 96.094872 33.299831 92.924240
v 96.591614 31.075247 91.070755
v 96.599220 31.088060 91.926292
# 1132 vertices, 0 vertices normals

f 3 2 1
f 5 4 1
f 1 4 3
f 7 6 5
f 5 6 4
f 9 8 7
f 7 8 6
f 9 10 8
f 2 11 1
f 13 12 11
f 12 1 11
f 12 5 1
f 5 14 7
f 5 12 14
f 16 9 15
f 9 14 15
f 9 7 14
f 9 16 10
f 12 13 17
f 17 13 18
f 12 19 14
f 12 17 19
f 15 14 20
f 20 14 19
f 18 21 17
f 17 21 19
f 19 21 22
f 19 22 20
f 25 24 23
f 27 26 23
f 23 26 25
f 29 28 27
f 27 28 26
f 31 30 29
f 29 30 28
f 31 32 30
f 23 24 3
f 24 2 3
f 24 33 2
f 23 3 4
f 23 4 27
f 27 4 6
f 27 6 29
f 29 6 8
f 29 8 31
f 8 10 31
f 10 32 31
f 10 34 32
f 11 2 35
f 2 36 35
f 2 33 36
f 35 13 11
f 15 37 16
f 37 38 16
f 38 10 16
f 38 34 10
f 35 36 39
f 39 36 40
f 39 18 13
f 39 13 35
f 20 41 37
f 20 37 15
f 38 37 42
f 42 37 41
f 40 43 39
f 43 45 44
f 43 44 21
f 39 43 21
f 18 39 21
f 46 22 21
f 46 21 44
f 46 47 22
f 22 47 20
f 47 48 20
f 48 41 20
f 41 48 42
f 45 49 44
f 44 49 46
f 46 49 50
f 46 50 47
f 53 52 51
f 55 54 51
f 51 54 53
f 57 56 55
f 55 56 54
f 59 58 57
f 57 58 56
f 59 60 58
f 51 52 25
f 52 24 25
f 52 61 24
f 51 25 26
f 51 26 55
f 55 26 28
f 55 28 57
f 57 28 30
f 57 30 59
f 30 32 59
f 32 60 59
f 32 62 60
f 61 33 24
f 63 33 61
f 34 62 32
f 34 64 62
f 63 36 33
f 65 36 63
f 38 64 34
f 38 66 64
f 65 40 36
f 67 40 65
f 42 66 38
f 42 68 66
f 43 40 69
f 40 70 69
f 40 67 70
f 69 45 43
f 47 71 48
f 71 72 48
f 72 42 48
f 72 68 42
f 70 73 69
f 73 75 74
f 73 74 49
f 69 73 49
f 45 69 49
f 76 50 49
f 76 49 74
f 76 77 50
f 50 77 47
f 77 78 47
f 78 71 47
f 71 78 72
f 75 79 74
f 81 80 79
f 80 74 79
f 80 76 74
f 77 76 82
f 82 76 80
f 81 83 80
f 80 83 82
f 86 85 84
f 88 87 84
f 84 87 86
f 90 89 88
f 88 89 87
f 92 91 90
f 90 91 89
f 92 93 91
f 84 85 53
f 85 52 53
f 85 94 52
f 84 53 54
f 84 54 88
f 88 54 56
f 88 56 90
f 90 56 58
f 90 58 92
f 58 60 92
f 60 93 92
f 60 95 93
f 94 61 52
f 96 61 94
f 62 95 60
f 62 97 95
f 96 63 61
f 98 63 96
f 64 97 62
f 64 99 97
f 98 65 63
f 100 65 98
f 66 99 64
f 66 101 99
f 100 67 65
f 102 67 100
f 68 101 66
f 68 103 101
f 102 70 67
f 104 70 102
f 72 103 68
f 72 105 103
f 73 70 106
f 70 107 106
f 70 104 107
f 106 75 73
f 77 108 78
f 108 109 78
f 109 72 78
f 109 105 72
f 106 107 110
f 110 107 111
f 112 79 75
f 106 112 75
f 110 112 106
f 112 81 79
f 82 113 108
f 82 108 77
f 109 108 114
f 114 108 113
f 111 115 110
f 117 116 115
f 116 110 115
f 116 112 110
f 118 83 81
f 112 118 81
f 116 118 112
f 118 119 83
f 83 119 82
f 119 120 82
f 120 113 82
f 113 120 114
f 117 121 116
f 116 121 118
f 118 121 122
f 118 122 119
f 123 85 86
f 123 86 124
f 86 125 124
f 86 87 125
f 126 87 89
f 126 125 87
f 128 126 127
f 126 91 127
f 126 89 91
f 93 127 91
f 130 129 123
f 129 85 123
f 129 94 85
f 130 123 124
f 131 128 127
f 127 93 131
f 93 132 131
f 93 95 132
f 129 96 94
f 133 96 129
f 97 132 95
f 97 134 132
f 133 98 96
f 135 98 133
f 99 134 97
f 99 136 134
f 135 100 98
f 137 100 135
f 101 136 99
f 101 138 136
f 137 102 100
f 139 102 137
f 103 138 101
f 103 140 138
f 139 104 102
f 141 104 139
f 105 140 103
f 105 142 140
f 141 107 104
f 143 107 141
f 109 142 105
f 109 144 142
f 143 111 107
f 145 111 143
f 114 144 109
f 114 146 144
f 115 111 147
f 111 148 147
f 111 145 148
f 147 117 115
f 119 149 120
f 149 150 120
f 150 114 120
f 150 146 114
f 148 151 147
f 151 153 152
f 151 152 121
f 147 151 121
f 117 147 121
f 154 122 121
f 154 121 152
f 154 155 122
f 122 155 119
f 155 156 119
f 156 149 119
f 149 156 150
f 152 153 157
f 157 153 158
f 152 159 154
f 152 157 159
f 155 154 160
f 160 154 159
f 158 161 157
f 157 161 159
f 159 161 162
f 159 162 160
f 163 124 125
f 126 164 125
f 125 164 163
f 128 164 126
f 165 129 130
f 166 165 130
f 166 130 124
f 167 166 124
f 163 167 124
f 167 163 164
f 167 164 168
f 170 168 169
f 169 168 131
f 168 164 131
f 164 128 131
f 132 169 131
f 172 171 165
f 171 129 165
f 171 133 129
f 172 165 166
f 173 170 169
f 169 132 173
f 132 174 173
f 132 134 174
f 171 135 133
f 175 135 171
f 136 174 134
f 136 176 174
f 175 137 135
f 177 137 175
f 138 176 136
f 138 178 176
f 177 139 137
f 179 139 177
f 140 178 138
f 140 180 178
f 179 141 139
f 181 141 179
f 142 180 140
f 142 182 180
f 181 143 141
f 183 143 181
f 144 182 142
f 144 184 182
f 183 145 143
f 185 145 183
f 146 184 144
f 146 186 184
f 185 148 145
f 187 148 185
f 150 186 146
f 150 188 186
f 151 148 189
f 148 190 189
f 148 187 190
f 189 153 151
f 155 191 156
f 191 192 156
f 192 150 156
f 192 188 150
f 189 190 193
f 193 190 194
f 193 158 153
f 193 153 189
f 160 195 191
f 160 191 155
f 192 191 196
f 196 191 195
f 194 197 193
f 197 199 198
f 197 198 161
f 193 197 161
f 158 193 161
f 200 162 161
f 200 161 198
f 200 201 162
f 162 201 160
f 201 202 160
f 202 195 160
f 195 202 196
f 198 199 203
f 203 199 204
f 198 205 200
f 198 203 205
f 201 200 206
f 206 200 205
f 204 207 203
f 203 207 205
f 205 207 208
f 205 208 206
f 209 166 167
f 168 210 167
f 167 210 209
f 170 210 168
f 211 171 172
f 212 211 172
f 212 172 166
f 213 212 166
f 209 213 166
f 213 209 210
f 213 210 214
f 216 214 215
f 215 214 173
f 214 210 173
f 210 170 173
f 174 215 173
f 218 217 211
f 217 171 211
f 217 175 171
f 218 211 212
f 219 216 215
f 215 174 219
f 174 220 219
f 174 176 220
f 217 177 175
f 221 177 217
f 178 220 176
f 178 222 220
f 221 179 177
f 223 179 221
f 180 222 178
f 180 224 222
f 223 181 179
f 225 181 223
f 182 224 180
f 182 226 224
f 225 183 181
f 227 183 225
f 184 226 182
f 184 228 226
f 227 185 183
f 229 185 227
f 186 228 184
f 186 230 228
f 229 187 185
f 231 187 229
f 188 230 186
f 188 232 230
f 231 190 187
f 233 190 231
f 192 232 188
f 192 234 232
f 233 194 190
f 235 194 233
f 196 234 192
f 196 236 234
f 197 194 237
f 194 238 237
f 194 235 238
f 237 199 197
f 201 239 202
f 239 240 202
f 240 196 202
f 240 236 196
f 237 238 241
f 241 238 242
f 241 204 199
f 241 199 237
f 206 243 239
f 206 239 201
f 240 239 244
f 244 239 243
f 242 245 241
f 245 247 246
f 245 246 207
f 241 245 207
f 204 241 207
f 248 208 207
f 248 207 246
f 248 249 208
f 208 249 206
f 249 250 206
f 250 243 206
f 243 250 244
f 247 251 246
f 246 251 248
f 248 251 252
f 248 252 249
f 253 212 213
f 214 254 213
f 213 254 253
f 216 254 214
f 255 217 218
f 256 255 218
f 256 218 212
f 257 256 212
f 253 257 212
f 257 253 254
f 257 254 258
f 260 258 259
f 259 258 219
f 258 254 219
f 254 216 219
f 220 259 219
f 261 221 255
f 255 221 217
f 255 256 262
f 255 262 261
f 260 259 263
f 260 263 264
f 222 263 220
f 220 263 259
f 266 265 261
f 265 221 261
f 265 223 221
f 266 261 262
f 267 264 263
f 263 222 267
f 222 268 267
f 222 224 268
f 265 225 223
f 269 225 265
f 226 268 224
f 226 270 268
f 269 227 225
f 271 227 269
f 228 270 226
f 228 272 270
f 271 229 227
f 273 229 271
f 230 272 228
f 230 274 272
f 273 231 229
f 275 231 273
f 232 274 230
f 232 276 274
f 275 233 231
f 277 233 275
f 234 276 232
f 234 278 276
f 277 235 233
f 279 235 277
f 236 278 234
f 236 280 278
f 279 238 235
f 281 238 279
f 240 280 236
f 240 282 280
f 281 242 238
f 283 242 281
f 244 282 240
f 244 284 282
f 245 242 285
f 242 286 285
f 242 283 286
f 285 247 245
f 249 287 250
f 287 288 250
f 288 244 250
f 288 284 244
f 285 286 289
f 289 286 290
f 291 251 247
f 285 291 247
f 289 291 285
f 292 252 251
f 292 251 291
f 287 249 252
f 292 287 252
f 293 287 292
f 288 287 294
f 294 287 293
f 290 295 289
f 297 296 295
f 296 289 295
f 296 291 289
f 291 298 292
f 291 296 298
f 300 293 299
f 293 298 299
f 293 292 298
f 293 300 294
f 297 301 296
f 296 301 298
f 298 301 302
f 298 302 299
f 303 256 257
f 258 304 257
f 257 304 303
f 260 304 258
f 305 262 303
f 303 262 256
f 306 303 304
f 305 303 306
f 264 306 260
f 260 306 304
f 307 265 266
f 308 307 266
f 308 266 262
f 309 308 262
f 305 309 262
f 309 305 306
f 309 306 310
f 312 310 311
f 311 310 267
f 310 306 267
f 306 264 267
f 268 311 267
f 314 313 307
f 313 265 307
f 313 269 265
f 314 307 308
f 315 312 311
f 311 268 315
f 268 316 315
f 268 270 316
f 313 271 269
f 317 271 313
f 272 316 270
f 272 318 316
f 317 273 271
f 319 273 317
f 274 318 272
f 274 320 318
f 319 275 273
f 321 275 319
f 276 320 274
f 276 322 320
f 321 277 275
f 323 277 321
f 278 322 276
f 278 324 322
f 323 279 277
f 325 279 323
f 280 324 278
f 280 326 324
f 325 281 279
f 327 281 325
f 282 326 280
f 282 328 326
f 327 283 281
f 329 283 327
f 284 328 282
f 284 330 328
f 329 286 283
f 331 286 329
f 288 330 284
f 288 332 330
f 331 290 286
f 333 290 331
f 294 332 288
f 294 334 332
f 295 290 335
f 290 336 335
f 290 333 336
f 335 297 295
f 299 337 300
f 337 338 300
f 338 294 300
f 338 334 294
f 336 339 335
f 339 341 340
f 339 340 301
f 335 339 301
f 297 335 301
f 342 302 301
f 342 301 340
f 342 343 302
f 302 343 299
f 343 344 299
f 344 337 299
f 337 344 338
f 340 341 345
f 345 341 346
f 340 347 342
f 340 345 347
f 343 342 348
f 348 342 347
f 346 349 345
f 345 349 347
f 347 349 350
f 347 350 348
f 351 308 309
f 310 352 309
f 309 352 351
f 312 352 310
f 353 313 314
f 308 351 314
f 351 353 314
f 351 354 353
f 355 351 352
f 354 351 355
f 315 356 312
f 356 352 312
f 356 355 352
f 316 356 315
f 357 317 353
f 353 317 313
f 354 359 358
f 357 354 358
f 353 354 357
f 359 354 355
f 359 355 360
f 362 361 360
f 355 362 360
f 356 362 355
f 318 362 316
f 316 362 356
f 364 363 357
f 363 317 357
f 363 319 317
f 364 357 358
f 365 361 362
f 362 318 365
f 318 366 365
f 318 320 366
f 363 321 319
f 367 321 363
f 322 366 320
f 322 368 366
f 367 323 321
f 369 323 367
f 324 368 322
f 324 370 368
f 369 325 323
f 371 325 369
f 326 370 324
f 326 372 370
f 371 327 325
f 373 327 371
f 328 372 326
f 328 374 372
f 373 329 327
f 375 329 373
f 330 374 328
f 330 376 374
f 375 331 329
f 377 331 375
f 332 376 330
f 332 378 376
f 377 333 331
f 379 333 377
f 334 378 332
f 334 380 378
f 379 336 333
f 381 336 379
f 338 380 334
f 338 382 380
f 339 336 383
f 336 384 383
f 336 381 384
f 383 341 339
f 343 385 344
f 385 386 344
f 386 338 344
f 386 382 338
f 383 384 387
f 387 384 388
f 387 346 341
f 387 341 383
f 348 389 385
f 348 385 343
f 386 385 390
f 390 385 389
f 388 391 387
f 391 393 392
f 391 392 349
f 387 391 349
f 346 387 349
f 394 350 349
f 394 349 392
f 394 395 350
f 350 395 348
f 395 396 348
f 396 389 348
f 389 396 390
f 392 393 397
f 397 393 398
f 392 399 394
f 392 397 399
f 395 394 400
f 400 394 399
f 398 401 397
f 397 401 399
f 399 401 402
f 399 402 400
f 403 358 359
f 360 404 359
f 359 404 403
f 361 404 360
f 405 363 364
f 406 405 364
f 406 364 358
f 407 406 358
f 403 407 358
f 407 403 404
f 407 404 408
f 410 408 409
f 409 408 365
f 408 404 365
f 404 361 365
f 366 409 365
f 411 367 405
f 405 367 363
f 405 406 412
f 405 412 411
f 410 409 413
f 410 413 414
f 368 413 366
f 366 413 409
f 416 415 411
f 415 367 411
f 415 369 367
f 416 411 412
f 417 414 413
f 413 368 417
f 368 418 417
f 368 370 418
f 415 371 369
f 419 371 415
f 372 418 370
f 372 420 418
f 419 373 371
f 421 373 419
f 374 420 372
f 374 422 420
f 421 375 373
f 423 375 421
f 376 422 374
f 376 424 422
f 423 377 375
f 425 377 423
f 378 424 376
f 378 426 424
f 425 379 377
f 427 379 425
f 380 426 378
f 380 428 426
f 427 381 379
f 429 381 427
f 382 428 380
f 382 430 428
f 429 384 381
f 431 384 429
f 386 430 382
f 386 432 430
f 431 388 384
f 433 388 431
f 390 432 386
f 390 434 432
f 391 388 435
f 388 436 435
f 388 433 436
f 435 393 391
f 395 437 396
f 437 438 396
f 438 390 396
f 438 434 390
f 435 436 439
f 439 436 440
f 439 398 393
f 439 393 435
f 400 441 437
f 400 437 395
f 438 437 442
f 442 437 441
f 440 443 439
f 443 445 444
f 443 444 401
f 439 443 401
f 398 439 401
f 446 402 401
f 446 401 444
f 446 447 402
f 402 447 400
f 447 448 400
f 448 441 400
f 441 448 442
f 444 445 449
f 449 445 450
f 444 451 446
f 444 449 451
f 447 446 452
f 452 446 451
f 450 453 449
f 449 453 451
f 451 453 454
f 451 454 452
f 455 406 407
f 408 456 407
f 407 456 455
f 410 456 408
f 457 412 455
f 455 412 406
f 458 455 456
f 457 455 458
f 414 458 410
f 410 458 456
f 459 415 416
f 460 459 416
f 460 416 412
f 461 460 412
f 457 461 412
f 461 457 458
f 461 458 462
f 464 462 463
f 463 462 417
f 462 458 417
f 458 414 417
f 418 463 417
f 465 419 459
f 459 419 415
f 459 460 466
f 459 466 465
f 464 463 467
f 464 467 468
f 420 467 418
f 418 467 463
f 470 469 465
f 469 419 465
f 469 421 419
f 470 465 466
f 471 468 467
f 467 420 471
f 420 472 471
f 420 422 472
f 469 423 421
f 473 423 469
f 424 472 422
f 424 474 472
f 473 425 423
f 475 425 473
f 426 474 424
f 426 476 474
f 475 427 425
f 477 427 475
f 428 476 426
f 428 478 476
f 477 429 427
f 479 429 477
f 430 478 428
f 430 480 478
f 479 431 429
f 481 431 479
f 432 480 430
f 432 482 480
f 481 433 431
f 483 433 481
f 434 482 432
f 434 484 482
f 483 436 433
f 485 436 483
f 438 484 434
f 438 486 484
f 485 440 436
f 487 440 485
f 442 486 438
f 442 488 486
f 443 440 489
f 440 490 489
f 440 487 490
f 489 445 443
f 447 491 448
f 491 492 448
f 492 442 448
f 492 488 442
f 489 490 493
f 493 490 494
f 493 450 445
f 493 445 489
f 452 495 491
f 452 491 447
f 492 491 496
f 496 491 495
f 494 497 493
f 497 499 498
f 497 498 453
f 493 497 453
f 450 493 453
f 500 454 453
f 500 453 498
f 500 501 454
f 454 501 452
f 501 502 452
f 502 495 452
f 495 502 496
f 499 503 498
f 498 503 500
f 500 503 504
f 500 504 501
f 505 460 461
f 462 506 461
f 461 506 505
f 464 506 462
f 507 466 505
f 505 466 460
f 508 505 506
f 507 505 508
f 468 508 464
f 464 508 506
f 509 469 470
f 510 509 470
f 510 470 466
f 511 510 466
f 507 511 466
f 511 507 508
f 511 508 512
f 514 512 513
f 513 512 471
f 512 508 471
f 508 468 471
f 472 513 471
f 515 473 509
f 509 473 469
f 509 510 516
f 509 516 515
f 517 514 513
f 513 472 517
f 472 518 517
f 472 474 518
f 520 519 515
f 519 473 515
f 519 475 473
f 520 515 516
f 476 518 474
f 476 521 518
f 519 477 475
f 522 477 519
f 478 521 476
f 478 523 521
f 522 479 477
f 524 479 522
f 480 523 478
f 480 525 523
f 524 481 479
f 526 481 524
f 482 525 480
f 482 527 525
f 526 483 481
f 528 483 526
f 484 527 482
f 484 529 527
f 528 485 483
f 530 485 528
f 486 529 484
f 486 531 529
f 530 487 485
f 532 487 530
f 488 531 486
f 488 533 531
f 532 490 487
f 534 490 532
f 492 533 488
f 492 535 533
f 534 494 490
f 536 494 534
f 496 535 492
f 496 537 535
f 497 494 538
f 494 539 538
f 494 536 539
f 538 499 497
f 501 540 502
f 540 541 502
f 541 496 502
f 541 537 496
f 539 542 538
f 542 544 543
f 542 543 503
f 538 542 503
f 499 538 503
f 545 504 503
f 545 503 543
f 545 546 504
f 504 546 501
f 546 547 501
f 547 540 501
f 540 547 541
f 543 544 548
f 548 544 549
f 543 550 545
f 543 548 550
f 546 545 551
f 551 545 550
f 549 552 548
f 548 552 550
f 550 552 553
f 550 553 551
f 554 510 511
f 512 555 511
f 511 555 554
f 514 555 512
f 556 516 554
f 554 516 510
f 557 554 555
f 556 554 557
f 517 558 514
f 558 555 514
f 558 557 555
f 518 558 517
f 559 519 520
f 560 559 520
f 560 520 516
f 561 560 516
f 556 561 516
f 561 556 557
f 561 557 562
f 564 563 562
f 557 564 562
f 558 564 557
f 521 564 518
f 518 564 558
f 566 565 559
f 565 519 559
f 565 522 519
f 566 559 560
f 567 563 564
f 564 521 567
f 521 568 567
f 521 523 568
f 565 524 522
f 569 524 565
f 525 568 523
f 525 570 568
f 569 526 524
f 571 526 569
f 527 570 525
f 527 572 570
f 571 528 526
f 573 528 571
f 529 572 527
f 529 574 572
f 573 530 528
f 575 530 573
f 531 574 529
f 531 576 574
f 575 532 530
f 577 532 575
f 533 576 531
f 533 578 576
f 577 534 532
f 579 534 577
f 535 578 533
f 535 580 578
f 579 536 534
f 581 536 579
f 537 580 535
f 537 582 580
f 581 539 536
f 583 539 581
f 541 582 537
f 541 584 582
f 542 539 585
f 539 586 585
f 539 583 586
f 585 544 542
f 546 587 547
f 587 588 547
f 588 541 547
f 588 584 541
f 585 586 589
f 589 586 590
f 589 549 544
f 589 544 585
f 551 591 587
f 551 587 546
f 588 587 592
f 592 587 591
f 590 593 589
f 593 595 594
f 593 594 552
f 589 593 552
f 549 589 552
f 596 553 552
f 596 552 594
f 596 597 553
f 553 597 551
f 597 598 551
f 598 591 551
f 591 598 592
f 595 599 594
f 594 599 596
f 596 599 600
f 596 600 597
f 601 560 561
f 562 602 561
f 561 602 601
f 563 602 562
f 603 565 566
f 604 603 566
f 604 566 560
f 605 604 560
f 601 605 560
f 605 601 602
f 605 602 606
f 608 606 607
f 607 606 567
f 606 602 567
f 602 563 567
f 568 607 567
f 609 569 603
f 603 569 565
f 603 604 610
f 603 610 609
f 608 607 611
f 608 611 612
f 570 611 568
f 568 611 607
f 614 613 609
f 613 569 609
f 613 571 569
f 614 609 610
f 615 612 611
f 611 570 615
f 570 616 615
f 570 572 616
f 613 573 571
f 617 573 613
f 574 616 572
f 574 618 616
f 617 575 573
f 619 575 617
f 576 618 574
f 576 620 618
f 619 577 575
f 621 577 619
f 578 620 576
f 578 622 620
f 621 579 577
f 623 579 621
f 580 622 578
f 580 624 622
f 623 581 579
f 625 581 623
f 582 624 580
f 582 626 624
f 625 583 581
f 627 583 625
f 584 626 582
f 584 628 626
f 627 586 583
f 629 586 627
f 588 628 584
f 588 630 628
f 629 590 586
f 631 590 629
f 592 630 588
f 592 632 630
f 593 590 633
f 590 634 633
f 590 631 634
f 633 595 593
f 597 635 598
f 635 636 598
f 636 592 598
f 636 632 592
f 634 637 633
f 637 639 638
f 637 638 599
f 633 637 599
f 595 633 599
f 640 600 599
f 640 599 638
f 640 641 600
f 600 641 597
f 641 642 597
f 642 635 597
f 635 642 636
f 639 643 638
f 638 643 640
f 640 643 644
f 640 644 641
f 645 604 605
f 606 646 605
f 605 646 645
f 608 646 606
f 647 610 645
f 645 610 604
f 648 645 646
f 647 645 648
f 612 648 608
f 608 648 646
f 649 613 614
f 650 649 614
f 650 614 610
f 651 650 610
f 647 651 610
f 651 647 648
f 651 648 652
f 654 652 653
f 653 652 615
f 652 648 615
f 648 612 615
f 616 653 615
f 655 617 649
f 649 617 613
f 649 650 656
f 649 656 655
f 654 653 657
f 654 657 658
f 618 657 616
f 616 657 653
f 660 659 655
f 659 617 655
f 659 619 617
f 660 655 656
f 661 658 657
f 657 618 661
f 618 662 661
f 618 620 662
f 659 621 619
f 663 621 659
f 622 662 620
f 622 664 662
f 663 623 621
f 665 623 663
f 624 664 622
f 624 666 664
f 665 625 623
f 667 625 665
f 626 666 624
f 626 668 666
f 667 627 625
f 669 627 667
f 628 668 626
f 628 670 668
f 669 629 627
f 671 629 669
f 630 670 628
f 630 672 670
f 671 631 629
f 673 631 671
f 632 672 630
f 632 674 672
f 673 634 631
f 675 634 673
f 636 674 632
f 636 676 674
f 637 634 677
f 634 678 677
f 634 675 678
f 677 639 637
f 641 679 642
f 679 680 642
f 680 636 642
f 680 676 636
f 678 681 677
f 681 683 682
f 681 682 643
f 677 681 643
f 639 677 643
f 684 644 643
f 684 643 682
f 684 685 644
f 644 685 641
f 685 686 641
f 686 679 641
f 679 686 680
f 683 687 682
f 682 687 684
f 684 687 688
f 684 688 685
f 689 650 651
f 652 690 651
f 651 690 689
f 654 690 652
f 691 656 689
f 689 656 650
f 692 689 690
f 691 689 692
f 658 692 654
f 654 692 690
f 693 659 660
f 694 693 660
f 694 660 656
f 695 694 656
f 691 695 656
f 695 691 692
f 695 692 696
f 698 696 697
f 697 696 661
f 696 692 661
f 692 658 661
f 662 697 661
f 700 699 693
f 699 659 693
f 699 663 659
f 700 693 694
f 701 698 697
f 697 662 701
f 662 702 701
f 662 664 702
f 699 665 663
f 703 665 699
f 666 702 664
f 666 704 702
f 703 667 665
f 705 667 703
f 668 704 666
f 668 706 704
f 705 669 667
f 707 669 705
f 670 706 668
f 670 708 706
f 707 671 669
f 709 671 707
f 672 708 670
f 672 710 708
f 709 673 671
f 711 673 709
f 674 710 672
f 674 712 710
f 711 675 673
f 713 675 711
f 676 712 674
f 676 714 712
f 713 678 675
f 715 678 713
f 680 714 676
f 680 716 714
f 681 678 717
f 678 718 717
f 678 715 718
f 717 683 681
f 685 719 686
f 719 720 686
f 720 680 686
f 720 716 680
f 718 721 717
f 721 723 722
f 721 722 687
f 717 721 687
f 683 717 687
f 724 688 687
f 724 687 722
f 724 725 688
f 688 725 685
f 725 726 685
f 726 719 685
f 719 726 720
f 723 727 722
f 722 727 724
f 724 727 728
f 724 728 725
f 729 694 695
f 696 730 695
f 695 730 729
f 698 730 696
f 731 699 700
f 732 731 700
f 732 700 694
f 733 732 694
f 729 733 694
f 735 734 733
f 729 735 733
f 730 735 729
f 701 736 698
f 736 730 698
f 736 735 730
f 702 736 701
f 737 703 731
f 731 703 699
f 731 732 738
f 731 738 737
f 739 734 735
f 741 740 739
f 735 741 739
f 736 741 735
f 704 741 702
f 702 741 736
f 743 742 737
f 742 703 737
f 742 705 703
f 743 737 738
f 744 740 741
f 741 704 744
f 704 745 744
f 704 706 745
f 742 707 705
f 746 707 742
f 708 745 706
f 708 747 745
f 746 709 707
f 748 709 746
f 710 747 708
f 710 749 747
f 748 711 709
f 750 711 748
f 712 749 710
f 712 751 749
f 750 713 711
f 752 713 750
f 714 751 712
f 714 753 751
f 752 715 713
f 754 715 752
f 716 753 714
f 716 755 753
f 754 718 715
f 756 718 754
f 720 755 716
f 720 757 755
f 756 758 718
f 718 758 721
f 723 721 758
f 723 758 759
f 761 760 726
f 761 726 725
f 720 726 757
f 757 726 760
f 759 762 723
f 723 762 727
f 727 763 728
f 762 763 727
f 725 728 761
f 761 728 763
f 764 732 733
f 734 764 733
f 765 738 764
f 764 738 732
f 739 766 734
f 766 764 734
f 766 765 764
f 740 766 739
f 767 742 743
f 768 767 743
f 768 743 738
f 769 768 738
f 765 769 738
f 769 765 766
f 769 766 770
f 772 770 771
f 771 770 744
f 770 766 744
f 766 740 744
f 745 771 744
f 774 773 767
f 773 742 767
f 773 746 742
f 774 767 768
f 775 772 771
f 771 745 775
f 745 776 775
f 745 747 776
f 773 748 746
f 777 748 773
f 749 776 747
f 749 778 776
f 777 750 748
f 779 750 777
f 751 778 749
f 751 780 778
f 779 752 750
f 781 752 779
f 753 780 751
f 753 782 780
f 781 754 752
f 783 754 781
f 755 782 753
f 755 784 782
f 783 756 754
f 785 756 783
f 757 784 755
f 757 786 784
f 758 756 787
f 756 788 787
f 756 785 788
f 787 759 758
f 761 789 760
f 789 790 760
f 790 757 760
f 790 786 757
f 788 791 787
f 791 793 792
f 791 792 762
f 787 791 762
f 759 787 762
f 794 763 762
f 794 762 792
f 794 795 763
f 763 795 761
f 795 796 761
f 796 789 761
f 789 796 790
f 793 797 792
f 792 797 794
f 794 797 798
f 794 798 795
f 799 768 769
f 770 800 769
f 769 800 799
f 772 800 770
f 801 773 774
f 802 801 774
f 802 774 768
f 803 802 768
f 799 803 768
f 803 799 800
f 803 800 804
f 806 804 805
f 805 804 775
f 804 800 775
f 800 772 775
f 776 805 775
f 808 807 801
f 807 773 801
f 807 777 773
f 808 801 802
f 809 806 805
f 805 776 809
f 776 810 809
f 776 778 810
f 807 779 777
f 811 779 807
f 780 810 778
f 780 812 810
f 811 781 779
f 813 781 811
f 782 812 780
f 782 814 812
f 813 783 781
f 815 783 813
f 784 814 782
f 784 816 814
f 815 785 783
f 817 785 815
f 786 816 784
f 786 818 816
f 817 788 785
f 819 788 817
f 790 818 786
f 790 820 818
f 791 788 821
f 788 822 821
f 788 819 822
f 821 793 791
f 795 823 796
f 823 824 796
f 824 790 796
f 824 820 790
f 822 825 821
f 825 827 826
f 825 826 797
f 821 825 797
f 793 821 797
f 828 798 797
f 828 797 826
f 828 829 798
f 798 829 795
f 829 830 795
f 830 823 795
f 823 830 824
f 827 831 826
f 826 831 828
f 828 831 832
f 828 832 829
f 833 802 803
f 804 834 803
f 803 834 833
f 806 834 804
f 835 807 808
f 836 835 808
f 836 808 802
f 837 836 802
f 833 837 802
f 837 833 834
f 837 834 838
f 840 838 839
f 839 838 809
f 838 834 809
f 834 806 809
f 810 839 809
f 842 841 835
f 841 807 835
f 841 811 807
f 842 835 836
f 843 840 839
f 839 810 843
f 810 844 843
f 810 812 844
f 841 813 811
f 845 813 841
f 814 844 812
f 814 846 844
f 845 815 813
f 847 815 845
f 816 846 814
f 816 848 846
f 847 817 815
f 849 817 847
f 818 848 816
f 818 850 848
f 849 819 817
f 851 819 849
f 820 850 818
f 820 852 850
f 851 822 819
f 853 822 851
f 824 852 820
f 824 854 852
f 853 855 822
f 822 855 825
f 827 825 855
f 827 855 856
f 858 857 830
f 858 830 829
f 824 830 854
f 854 830 857
f 856 859 827
f 827 859 831
f 831 860 832
f 859 860 831
f 829 832 858
f 858 832 860
f 861 836 837
f 838 862 837
f 837 862 861
f 840 862 838
f 863 841 842
f 864 863 842
f 864 842 836
f 865 864 836
f 861 865 836
f 865 861 862
f 865 862 866
f 868 866 867
f 867 866 843
f 866 862 843
f 862 840 843
f 844 867 843
f 870 869 863
f 869 841 863
f 869 845 841
f 870 863 864
f 871 868 867
f 867 844 871
f 844 872 871
f 844 846 872
f 869 847 845
f 873 847 869
f 848 872 846
f 848 874 872
f 873 849 847
f 875 849 873
f 850 874 848
f 850 876 874
f 875 851 849
f 877 851 875
f 852 876 850
f 852 878 876
f 877 853 851
f 879 853 877
f 854 878 852
f 854 880 878
f 855 853 881
f 853 882 881
f 853 879 882
f 881 856 855
f 858 883 857
f 883 884 857
f 884 854 857
f 884 880 854
f 882 885 881
f 885 887 886
f 885 886 859
f 881 885 859
f 856 881 859
f 888 860 859
f 888 859 886
f 888 889 860
f 860 889 858
f 889 890 858
f 890 883 858
f 883 890 884
f 887 891 886
f 886 891 888
f 888 891 892
f 888 892 889
f 894 893 865
f 865 893 864
f 895 865 866
f 895 894 865
f 866 868 895
f 895 868 896
f 898 897 870
f 870 897 869
f 870 864 893
f 870 893 898
f 899 896 868
f 899 868 871
f 871 872 899
f 899 872 900
f 897 873 869
f 901 873 897
f 874 900 872
f 874 902 900
f 901 875 873
f 903 875 901
f 876 902 874
f 876 904 902
f 903 877 875
f 905 877 903
f 878 904 876
f 878 906 904
f 905 879 877
f 907 879 905
f 880 906 878
f 880 908 906
f 907 882 879
f 909 882 907
f 884 908 880
f 884 910 908
f 885 882 911
f 882 912 911
f 882 909 912
f 911 887 885
f 889 913 890
f 913 914 890
f 914 884 890
f 914 910 884
f 912 915 911
f 911 915 887
f 915 891 887
f 915 916 891
f 891 917 892
f 916 917 891
f 889 892 913
f 892 918 913
f 892 917 918
f 913 918 914
f 919 893 894
f 895 920 894
f 894 920 919
f 896 920 895
f 921 897 898
f 922 921 898
f 922 898 893
f 923 922 893
f 919 923 893
f 923 919 920
f 923 920 924
f 926 924 925
f 925 924 899
f 924 920 899
f 920 896 899
f 900 925 899
f 928 927 921
f 927 897 921
f 927 901 897
f 928 921 922
f 929 926 925
f 925 900 929
f 900 930 929
f 900 902 930
f 927 903 901
f 931 903 927
f 904 930 902
f 904 932 930
f 931 905 903
f 933 905 931
f 906 932 904
f 906 934 932
f 933 907 905
f 935 907 933
f 908 934 906
f 908 936 934
f 935 909 907
f 937 909 935
f 910 936 908
f 910 938 936
f 937 912 909
f 939 912 937
f 914 938 910
f 914 940 938
f 939 941 912
f 912 941 915
f 941 943 942
f 916 941 942
f 915 941 916
f 944 917 916
f 944 916 942
f 917 944 945
f 946 917 945
f 918 917 946
f 914 918 940
f 940 918 946
f 943 947 942
f 942 947 944
f 944 947 948
f 944 948 945
f 949 922 923
f 924 950 923
f 923 950 949
f 926 950 924
f 951 927 928
f 952 951 928
f 952 928 922
f 953 952 922
f 949 953 922
f 953 949 950
f 953 950 954
f 954 950 926
f 929 954 926
f 955 954 929
f 929 930 955
f 955 930 956
f 958 957 951
f 957 927 951
f 957 931 927
f 958 951 952
f 932 956 930
f 932 959 956
f 957 933 931
f 960 933 957
f 934 959 932
f 934 961 959
f 960 935 933
f 962 935 960
f 936 961 934
f 936 963 961
f 962 937 935
f 964 937 962
f 938 963 936
f 938 965 963
f 964 939 937
f 966 939 964
f 940 965 938
f 940 967 965
f 941 939 968
f 939 969 968
f 939 966 969
f 968 943 941
f 945 970 946
f 970 971 946
f 971 940 946
f 971 967 940
f 969 972 968
f 968 972 943
f 972 947 943
f 972 973 947
f 947 974 948
f 973 974 947
f 945 948 970
f 948 975 970
f 948 974 975
f 970 975 971
f 977 976 953
f 953 976 952
f 978 953 954
f 978 977 953
f 980 978 979
f 978 955 979
f 978 954 955
f 956 979 955
f 982 981 958
f 958 981 957
f 958 952 976
f 958 976 982
f 983 980 979
f 979 956 983
f 956 984 983
f 956 959 984
f 981 960 957
f 985 960 981
f 961 984 959
f 961 986 984
f 985 962 960
f 987 962 985
f 963 986 961
f 963 988 986
f 987 964 962
f 989 964 987
f 965 988 963
f 965 990 988
f 989 966 964
f 991 966 989
f 967 990 965
f 967 992 990
f 991 969 966
f 993 969 991
f 971 992 967
f 971 994 992
f 993 995 969
f 969 995 972
f 995 997 996
f 973 995 996
f 972 995 973
f 998 974 973
f 998 973 996
f 974 998 999
f 1000 974 999
f 975 974 1000
f 971 975 994
f 994 975 1000
f 997 1001 996
f 996 1001 998
f 998 1001 1002
f 998 1002 999
f 1003 976 977
f 978 1004 977
f 977 1004 1003
f 980 1004 978
f 1005 981 982
f 1006 1005 982
f 1006 982 976
f 1007 1006 976
f 1003 1007 976
f 1007 1003 1004
f 1007 1004 1008
f 1008 1004 980
f 983 1008 980
f 1009 1008 983
f 983 984 1009
f 1009 984 1010
f 1012 1011 1005
f 1011 981 1005
f 1011 985 981
f 1012 1005 1006
f 986 1010 984
f 986 1013 1010
f 1011 987 985
f 1014 987 1011
f 988 1013 986
f 988 1015 1013
f 1014 989 987
f 1016 989 1014
f 990 1015 988
f 990 1017 1015
f 1016 991 989
f 1018 991 1016
f 992 1017 990
f 992 1019 1017
f 1018 993 991
f 1020 993 1018
f 994 1019 992
f 994 1021 1019
f 1020 1022 993
f 993 1022 995
f 997 995 1022
f 997 1022 1023
f 1025 1024 1000
f 1025 1000 999
f 994 1000 1021
f 1021 1000 1024
f 1023 1026 997
f 997 1026 1001
f 1001 1027 1002
f 1026 1027 1001
f 999 1002 1025
f 1025 1002 1027
f 1029 1028 1007
f 1007 1028 1006
f 1030 1007 1008
f 1030 1029 1007
f 1032 1030 1031
f 1030 1009 1031
f 1030 1008 1009
f 1010 1031 1009
f 1034 1033 1012
f 1012 1033 1011
f 1012 1006 1028
f 1012 1028 1034
f 1035 1032 1031
f 1031 1010 1035
f 1010 1036 1035
f 1010 1013 1036
f 1033 1014 1011
f 1037 1014 1033
f 1015 1036 1013
f 1015 1038 1036
f 1037 1016 1014
f 1039 1016 1037
f 1017 1038 1015
f 1017 1040 1038
f 1039 1018 1016
f 1041 1018 1039
f 1019 1040 1017
f 1019 1042 1040
f 1041 1020 1018
f 1043 1020 1041
f 1021 1042 1019
f 1021 1044 1042
f 1022 1020 1045
f 1020 1046 1045
f 1020 1043 1046
f 1045 1023 1022
f 1025 1047 1024
f 1047 1048 1024
f 1048 1021 1024
f 1048 1044 1021
f 1046 1049 1045
f 1049 1051 1050
f 1049 1050 1026
f 1045 1049 1026
f 1023 1045 1026
f 1052 1027 1026
f 1052 1026 1050
f 1052 1053 1027
f 1027 1053 1025
f 1053 1054 1025
f 1054 1047 1025
f 1047 1054 1048
f 1051 1055 1050
f 1050 1055 1052
f 1052 1055 1056
f 1052 1056 1053
f 1058 1057 1029
f 1029 1057 1028
f 1059 1029 1030
f 1059 1058 1029
f 1030 1032 1059
f 1059 1032 1060
f 1062 1061 1034
f 1034 1061 1033
f 1034 1028 1057
f 1034 1057 1062
f 1063 1060 1032
f 1063 1032 1035
f 1035 1036 1063
f 1063 1036 1064
f 1061 1037 1033
f 1065 1037 1061
f 1038 1064 1036
f 1038 1066 1064
f 1065 1039 1037
f 1067 1039 1065
f 1040 1066 1038
f 1040 1068 1066
f 1067 1041 1039
f 1069 1041 1067
f 1042 1068 1040
f 1042 1070 1068
f 1069 1043 1041
f 1071 1043 1069
f 1044 1070 1042
f 1044 1072 1070
f 1071 1046 1043
f 1073 1046 1071
f 1048 1072 1044
f 1048 1074 1072
f 1073 1075 1046
f 1046 1075 1049
f 1051 1049 1075
f 1051 1075 1076
f 1078 1077 1054
f 1078 1054 1053
f 1048 1054 1074
f 1074 1054 1077
f 1076 1079 1051
f 1051 1079 1055
f 1055 1080 1056
f 1079 1080 1055
f 1053 1056 1078
f 1078 1056 1080
f 1081 1057 1058
f 1059 1082 1058
f 1058 1082 1081
f 1060 1082 1059
f 1083 1061 1062
f 1084 1083 1062
f 1084 1062 1057
f 1085 1084 1057
f 1081 1085 1057
f 1085 1081 1082
f 1085 1082 1086
f 1088 1086 1087
f 1087 1086 1063
f 1086 1082 1063
f 1082 1060 1063
f 1064 1087 1063
f 1090 1089 1083
f 1089 1061 1083
f 1089 1065 1061
f 1090 1083 1084
f 1091 1088 1087
f 1087 1064 1091
f 1064 1092 1091
f 1064 1066 1092
f 1089 1067 1065
f 1093 1067 1089
f 1068 1092 1066
f 1068 1094 1092
f 1093 1069 1067
f 1095 1069 1093
f 1070 1094 1068
f 1070 1096 1094
f 1095 1071 1069
f 1097 1071 1095
f 1072 1096 1070
f 1072 1098 1096
f 1100 1073 1099
f 1073 1097 1099
f 1073 1071 1097
f 1102 1101 1100
f 1102 1100 1099
f 1104 1103 1101
f 1104 1101 1102
f 1106 1105 1103
f 1106 1103 1104
f 1106 1098 1105
f 1098 1074 1105
f 1098 1072 1074
f 1100 1075 1073
f 1075 1100 1076
f 1100 1107 1076
f 1100 1101 1107
f 1108 1101 1103
f 1107 1101 1108
f 1078 1108 1077
f 1108 1105 1077
f 1108 1103 1105
f 1077 1105 1074
f 1107 1079 1076
f 1079 1107 1080
f 1080 1107 1108
f 1080 1108 1078
f 1110 1109 1085
f 1085 1109 1084
f 1111 1085 1086
f 1111 1110 1085
f 1086 1088 1111
f 1111 1088 1112
f 1113 1089 1090
f 1084 1109 1114
f 1113 1084 1114
f 1115 1113 1114
f 1090 1084 1113
f 1117 1116 1115
f 1117 1115 1114
f 1118 1116 1091
f 1116 1112 1091
f 1112 1088 1091
f 1112 1116 1117
f 1092 1118 1091
f 1119 1093 1113
f 1113 1093 1089
f 1120 1113 1115
f 1119 1113 1120
f 1121 1115 1116
f 1120 1115 1121
f 1122 1116 1118
f 1121 1116 1122
f 1094 1122 1092
f 1092 1122 1118
f 1123 1095 1119
f 1119 1095 1093
f 1124 1119 1120
f 1123 1119 1124
f 1125 1120 1121
f 1124 1120 1125
f 1126 1121 1122
f 1125 1121 1126
f 1096 1126 1094
f 1094 1126 1122
f 1127 1097 1123
f 1123 1097 1095
f 1128 1123 1124
f 1127 1123 1128
f 1129 1124 1125
f 1128 1124 1129
f 1130 1125 1126
f 1129 1125 1130
f 1098 1130 1096
f 1096 1130 1126
f 1127 1099 1097
f 1099 1127 1102
f 1102 1127 1128
f 1102 1128 1104
f 1104 1128 1129
f 1104 1129 1106
f 1106 1129 1130
f 1106 1130 1098
f 1131 1109 1110
f 1111 1132 1110
f 1110 1132 1131
f 1112 1132 1111
f 1131 1114 1109
f 1114 1131 1117
f 1117 1131 1132
f 1117 1132 1112
# 2260 faces, 0 coords texture

# End of File