####
#
# OBJ File Generated by Meshlab
#
####
# Object domain097.obj
#
# Vertices: 785
# Faces: 1570
#
####
v 81.331429 143.023636 139.572403
v 99.033981 134.809540 132.900803
v 90.006409 141.750427 145.883026
v 81.241348 128.605865 144.207245
v 108.417328 129.309570 148.892654
v 112.302010 143.042999 138.232910
v 94.931992 125.849304 146.375076
v 112.323654 139.334793 139.223557
v 110.728935 132.802444 138.736404
v 106.065628 125.903076 149.692444
v 81.433525 138.216797 142.270096
v 101.084908 145.418304 133.525970
v 99.034058 142.977463 132.555832
v 84.412781 128.623245 146.905334
v 112.926414 137.172470 147.806870
v 84.090218 126.243568 147.091675
v 103.135956 145.708954 136.518570
v 99.033859 124.335663 149.113052
v 91.035530 134.673538 148.370834
v 94.928818 144.173233 145.425629
v 90.830246 136.858063 131.846420
v 112.298973 134.742020 143.493652
v 112.763939 145.413025 133.845657
v 107.499023 136.876587 132.737381
v 91.537819 135.840439 148.204056
v 84.472260 144.523514 140.881699
v 94.931976 124.366791 149.606537
v 82.329285 145.419662 133.525970
v 92.880867 130.806274 138.816895
v 86.435005 129.116882 141.282486
v 110.791611 138.820084 136.488403
v 103.136375 125.864906 146.386719
v 110.801155 131.095917 145.312439
v 94.931976 145.418381 133.525848
v 109.422035 130.329880 140.364090
v 88.779045 133.304260 134.993530
v 87.861549 130.941864 148.133392
v 94.931999 133.305389 134.994308
v 96.982964 144.845184 133.047943
v 82.332207 145.782806 135.478363
v 92.886787 144.586456 143.471512
v 80.539169 128.919083 143.311539
v 101.085007 129.915558 140.089050
v 90.831764 124.733505 149.938477
v 92.880981 140.960083 132.284637
v 84.383621 145.835342 135.489029
v 94.931984 133.929535 134.018463
v 96.982941 142.977768 132.557495
v 114.137093 138.855530 145.330841
v 97.001587 142.852814 147.212219
v 94.931870 140.960220 132.283997
v 94.932594 144.676819 143.490128
v 98.974777 134.635544 149.691391
v 112.078575 134.399719 147.301682
v 107.491219 133.526932 135.130951
v 85.574783 141.475906 143.956650
v 88.762291 125.283417 147.437683
v 89.073425 130.529800 148.912827
v 78.838760 136.902893 132.838394
v 111.522766 132.761566 145.467377
v 96.985268 144.234787 145.430405
v 96.982933 145.379211 138.507385
v 82.898750 134.679184 144.576416
v 90.830063 130.806213 138.816788
v 111.534767 144.553833 141.004715
v 103.122780 135.744980 132.182602
v 86.432945 138.803101 131.848816
v 90.837357 126.587830 150.265854
v 84.389305 127.580177 144.059052
v 103.136047 127.440666 143.991287
v 114.362434 139.553253 146.848526
v 113.652000 143.477097 146.445587
v 114.639076 139.847351 146.020432
v 112.651283 142.959198 139.173157
v 78.549805 132.961029 137.107422
v 88.683174 136.838242 147.025330
v 95.076447 143.601181 146.515640
v 87.340431 124.502586 149.768265
v 86.433807 144.838043 133.060974
v 88.669220 138.563995 131.867416
v 99.033997 125.849358 146.375046
v 81.995804 134.837082 143.897720
v 99.034050 145.038422 141.000427
v 80.392578 129.561142 141.470566
v 80.312325 130.597427 143.627457
v 99.034042 145.708557 136.518448
v 90.832260 145.416397 133.527115
v 109.581245 136.836838 148.919479
v 90.831421 144.843979 133.051270
v 87.074104 126.537712 149.073807
v 84.135437 126.117348 147.082092
v 107.428253 142.791443 147.351715
v 103.136009 130.806168 138.816757
v 103.119835 134.839905 132.915375
v 93.122719 131.855850 149.977982
v 110.236794 134.750793 136.634583
v 105.185020 145.402527 133.537567
v 109.685303 134.946091 134.686737
v 110.608070 138.703156 135.519211
v 114.910416 141.157211 145.444962
v 110.470558 130.084702 144.024765
v 79.160522 144.865265 133.506775
v 79.783745 143.531586 137.434677
v 116.242477 143.645996 145.670334
v 82.134621 130.736023 145.238983
v 80.338455 144.849411 133.117477
v 103.133919 126.586983 150.357391
v 87.366806 124.490257 149.760330
v 110.241226 135.853531 133.953156
v 94.931984 127.442581 143.992462
v 111.334595 143.121994 133.559677
v 99.035858 143.586411 146.642303
v 92.880997 133.929565 134.018509
v 111.643387 141.405350 147.835159
v 86.436081 145.316284 138.496689
v 109.572937 140.542145 148.226532
v 110.203766 139.022888 133.566757
v 90.831429 135.753143 132.186417
v 105.182152 142.649536 147.448273
v 86.604225 140.796799 144.722610
v 99.034447 136.861084 131.843948
v 84.396027 145.165985 138.463989
v 80.302574 138.872635 131.798096
v 81.077614 136.628113 142.491028
v 89.840729 133.679504 148.213699
v 94.933899 130.663544 150.342682
v 82.199112 127.869102 144.211792
v 105.189484 140.935150 132.422714
v 113.023117 136.930588 143.337830
v 84.384010 142.979813 132.525070
v 82.333946 142.976807 132.541275
v 113.557732 142.788925 146.937683
v 103.135452 140.861450 148.278549
v 110.168617 136.958099 133.415421
v 90.830193 125.162422 147.413193
v 90.586372 130.942139 149.571136
v 112.608864 141.135529 139.225555
v 109.590683 145.401367 133.542984
v 95.053795 138.770996 148.291779
v 79.097588 135.426941 133.290207
v 88.447914 128.726685 149.280106
v 94.835281 134.869720 149.308334
v 88.779030 130.804840 138.815506
v 101.082176 124.335304 149.115097
v 80.991936 144.390900 137.902786
v 103.135399 145.801697 134.506210
v 107.477257 135.083420 133.474167
v 111.620102 142.852966 147.223053
v 96.983009 144.697067 143.493393
v 96.976540 139.442902 132.013351
v 84.383408 136.866791 131.822876
v 105.184654 136.790268 149.241928
v 77.619987 136.148193 136.429779
v 101.085014 145.841827 135.489853
v 92.880737 124.730309 149.949478
v 105.800293 131.576965 150.034958
v 99.034012 145.418427 133.525894
v 80.328636 134.087784 134.114517
v 104.402107 136.835754 132.048279
v 108.961342 128.679214 147.356354
v 105.191444 127.462440 144.007416
v 92.881966 128.627045 150.393448
v 101.088005 134.801041 149.664383
v 101.088585 140.856339 148.263290
v 90.846733 144.417938 143.425888
v 78.575066 133.924240 135.650406
v 105.186691 142.974609 132.606461
v 94.899277 142.952927 146.920029
v 101.085045 125.849121 146.374893
v 105.186920 129.919128 140.091736
v 108.888611 128.194656 144.257202
v 86.255699 128.709534 147.894470
v 82.348602 138.900314 142.846878
v 82.831604 140.747452 142.528641
v 90.886307 140.829834 146.768936
v 92.880989 145.024155 140.998550
v 87.418625 129.619568 148.273743
v 82.333748 139.784134 131.937622
v 94.931999 124.335312 149.112900
v 79.458000 136.858704 132.133987
v 96.983017 124.366852 149.606567
v 101.084976 133.930862 134.019363
v 84.384094 133.930679 134.019211
v 107.531647 144.834595 133.074966
v 103.140343 136.882294 131.850845
v 98.976158 132.559265 150.136993
v 112.557747 145.184662 134.086517
v 88.778915 142.977814 132.551666
v 103.141747 124.315849 149.604294
v 106.893417 130.337265 149.924149
v 80.307045 132.441315 136.851288
v 88.779030 132.229309 136.711777
v 86.435020 133.304276 134.993546
v 88.778236 136.862411 131.845566
v 82.330063 138.810822 131.810379
v 111.976913 138.774460 138.665100
v 80.290497 145.404648 133.532379
v 101.084923 126.661186 145.208893
v 96.982986 134.809387 132.900635
v 103.138832 134.794907 149.629074
v 86.434998 129.916534 140.089905
v 112.373093 134.547348 145.257980
v 107.616882 126.620003 147.289948
v 94.931961 128.047226 143.003754
v 104.519600 131.725311 150.152435
v 105.187431 130.814117 138.821594
v 86.453552 144.769379 140.936142
v 82.426811 132.670593 145.003403
v 98.500504 141.758087 147.858978
v 103.135544 144.241791 145.432571
v 79.130424 145.367661 134.128006
v 90.262909 135.012100 148.012390
v 86.433632 136.869186 131.844864
v 112.084358 144.054886 138.850845
v 88.780182 135.760529 132.199554
v 110.591873 130.998199 141.085754
v 110.345634 130.231979 145.518738
v 107.529739 145.827072 135.487793
v 92.880875 134.809418 132.900635
v 83.190941 142.665863 142.162613
v 90.830032 129.915237 140.088882
v 99.099129 140.780121 148.244965
v 94.932022 142.977478 132.560226
v 94.931999 130.806564 138.817017
v 96.983238 136.857605 131.844467
v 86.457306 125.460228 147.822968
v 111.429863 136.799667 148.489487
v 99.033997 127.442589 143.992447
v 78.368027 140.900009 134.571228
v 83.223969 128.589142 146.070435
v 96.172012 133.557465 149.855667
v 99.109909 142.713318 147.411789
v 94.932014 145.035767 141.000092
v 92.880981 127.442558 143.992416
v 110.156113 132.424545 138.272232
v 86.434494 145.791122 134.507843
v 110.560638 138.994247 134.471298
v 107.530563 132.703369 149.547058
v 103.134705 144.843704 133.052689
v 111.883011 143.016586 134.864273
v 99.034058 125.156570 147.409607
v 107.526169 129.205917 141.345108
v 81.138237 140.636719 140.761978
v 84.381577 145.416550 133.527039
v 96.982903 124.335350 149.112869
v 103.135612 136.796265 149.278259
v 113.335991 138.907867 147.861954
v 83.603867 137.415741 144.138138
v 92.881004 129.915543 140.089081
v 83.307465 130.496567 146.097809
v 84.578285 136.780823 145.008133
v 94.932007 145.708572 136.518463
v 78.848007 138.816589 138.205200
v 93.027550 136.684357 148.400391
v 90.830040 132.231171 136.712921
v 103.273010 138.922485 132.041870
v 113.350761 136.894180 145.506836
v 109.935417 130.557159 147.549545
v 96.982986 125.156792 147.409683
v 88.773727 140.958847 132.254639
v 80.327530 134.888123 132.949402
v 96.983093 130.669250 150.381897
v 84.384018 132.231262 136.712997
v 90.831116 140.961945 132.273788
v 87.349747 138.245071 146.060699
v 110.509666 131.464050 147.264862
v 94.931969 126.584572 150.390961
v 111.020020 137.005722 137.512024
v 92.819839 132.898621 149.573929
v 79.914627 139.943085 131.940643
v 110.975670 140.441589 136.306931
v 80.290382 135.722107 132.154617
v 78.962440 140.930359 132.854385
v 111.627609 144.203918 145.420395
v 110.400345 133.403427 137.793457
v 84.384071 129.918442 140.091171
v 107.522873 138.884415 132.549728
v 103.135963 125.193779 147.439468
v 87.226974 125.251282 148.859451
v 84.383255 138.807251 131.836517
v 92.880890 125.156464 147.409576
v 111.619583 145.367828 133.577393
v 107.508713 132.436829 136.844208
v 96.983009 145.841843 135.489838
v 110.303749 129.710739 143.081879
v 101.090385 135.748734 132.177521
v 84.382805 144.844696 133.047226
v 80.064720 141.098969 139.107056
v 99.033997 129.915421 140.088974
v 105.186981 145.708038 136.518478
v 88.779030 129.916504 140.089905
v 99.034035 145.379166 138.507370
v 84.382011 135.750107 132.177124
v 97.076157 138.755951 148.628922
v 114.461006 143.705811 143.683380
v 80.323097 145.689240 134.477509
v 114.574150 140.044510 144.985947
v 99.034027 133.305389 134.994247
v 94.932137 138.452255 131.873581
v 99.042374 140.963928 132.275833
v 110.481499 136.786102 135.298843
v 101.085587 143.580048 146.653198
v 90.829880 126.666237 145.212311
v 96.982498 140.960938 132.280045
v 103.135628 138.806793 148.865433
v 105.221962 132.810913 149.898987
v 101.079895 140.950089 132.286148
v 101.083107 136.859772 131.850571
v 101.089340 142.662094 147.469025
v 90.835045 139.441498 132.015213
v 80.613480 138.946518 140.916595
v 109.535477 138.731247 148.640884
v 96.982979 145.803543 134.505844
v 103.115623 124.709351 149.934952
v 86.434990 145.704971 136.517899
v 105.119843 135.056717 133.075302
v 101.084808 125.159554 147.411377
v 80.466675 130.258011 140.330612
v 110.225838 129.921249 142.075439
v 104.907478 124.918716 149.753601
v 82.095329 127.945709 144.715622
v 79.955215 129.389236 142.723618
v 79.304695 140.305634 132.241425
v 90.835869 124.341553 149.117142
v 94.931938 136.857864 131.847748
v 114.735321 141.543777 143.919037
v 90.830025 145.841644 135.489838
v 109.425987 132.997849 137.126434
v 90.830032 145.708939 136.518478
v 86.435043 130.804855 138.815491
v 84.384972 145.663834 136.509598
v 78.566032 136.756210 138.658569
v 106.517502 126.802284 149.783936
v 80.377708 142.971115 138.534088
v 79.225952 140.576431 138.028351
v 82.334549 134.815125 132.904526
v 92.881165 124.335754 149.113098
v 113.610405 144.022278 145.376892
v 84.385071 128.087585 143.026321
v 109.580536 142.870377 147.294968
v 77.597046 134.863388 136.659073
v 92.832153 140.979706 147.137833
v 105.218414 126.705940 145.268127
v 101.084946 129.114929 141.281143
v 107.531075 145.033066 140.999771
v 86.436729 127.507874 144.028152
v 111.617340 143.572662 146.614334
v 99.034004 126.584564 150.390915
v 80.410896 132.669174 143.349091
v 95.014252 132.249817 150.097107
v 107.530945 145.355286 138.503983
v 99.033966 145.841812 135.489868
v 86.572083 134.703247 146.744019
v 111.340172 132.829666 141.020615
v 96.982979 145.708557 136.518478
v 105.186691 128.055954 143.008896
v 109.549973 145.724380 135.457611
v 88.755699 126.583321 150.062592
v 81.350128 128.355499 143.878754
v 105.203400 126.018616 146.482758
v 89.526489 128.182846 149.888657
v 88.778992 145.836288 135.489517
v 101.085724 136.795547 149.279999
v 107.523964 129.983978 140.137665
v 102.693924 138.140152 131.903030
v 108.215096 127.259415 146.865616
v 84.362961 142.893890 142.841263
v 107.439781 127.171715 145.428024
v 105.107910 138.740875 132.264359
v 80.325920 131.107239 139.050842
v 92.880928 133.305359 134.994217
v 82.322289 135.744339 132.168137
v 83.765495 133.269379 145.668747
v 90.830017 133.929535 134.018478
v 92.880806 136.857834 131.847076
v 103.134926 128.626404 150.450409
v 82.334686 130.855957 138.851990
v 111.268715 132.960892 147.304901
v 92.882866 138.863586 147.792587
v 85.971397 137.331345 145.653244
v 103.136047 145.038422 141.000473
v 90.831032 124.369125 149.606827
v 111.184647 138.871414 137.409119
v 88.827011 124.413445 149.171234
v 77.642357 135.312180 137.422531
v 99.034050 128.626862 150.478165
v 110.681404 136.791412 136.599777
v 96.983025 125.849335 146.375061
v 105.182686 130.671066 150.263184
v 107.501701 128.215027 143.098557
v 79.643723 134.946793 141.531250
v 94.932007 124.730240 149.949234
v 94.931992 145.803543 134.505875
v 94.932014 129.114929 141.281128
v 103.175003 133.078354 149.959930
v 112.735977 135.323975 145.744354
v 79.561478 130.987885 140.746597
v 88.078514 127.191254 149.598602
v 113.310959 140.120514 147.863129
v 101.084969 133.305389 134.994247
v 111.943153 134.702957 141.133286
v 105.182701 140.852188 148.255798
v 90.830017 133.305267 134.994186
v 86.432999 145.402451 133.537582
v 92.896111 134.691620 148.971207
v 80.886925 139.814850 131.894531
v 92.794250 144.083176 145.376022
v 92.880913 128.047256 143.003723
v 97.212959 140.303391 148.193497
v 94.932022 134.809402 132.900665
v 110.855675 130.861725 143.332138
v 91.388657 142.423096 146.158936
v 96.983002 132.232178 136.713638
v 109.111794 130.883621 148.734695
v 86.435013 142.977112 132.541336
v 92.880920 138.452103 131.874191
v 112.333260 143.663834 134.024124
v 107.531181 130.904633 138.879364
v 92.880852 126.661705 145.209244
v 105.067604 124.786812 149.260895
v 80.309509 144.834671 136.675659
v 82.354736 145.495972 136.461517
v 78.465317 134.774261 134.856842
v 101.084953 128.626740 150.475494
v 82.332626 132.253250 136.727982
v 111.617516 144.539352 143.481506
v 86.434952 145.836349 135.489548
v 101.084946 128.047272 143.003723
v 107.096054 126.821869 149.195404
v 84.534668 132.577805 146.368744
v 103.135971 142.976578 132.574646
v 96.982903 128.047256 143.003723
v 103.136040 133.309647 134.996857
v 84.381126 127.024422 145.417801
v 88.778984 127.453323 143.999008
v 109.423775 135.509338 133.634460
v 109.566559 145.190689 138.485764
v 109.025528 133.998627 135.450378
v 109.593239 145.765518 134.527695
v 88.576355 132.904968 147.918045
v 109.581535 144.686356 143.492020
v 96.983017 129.915421 140.089005
v 96.982956 128.626892 150.478241
v 93.286926 143.678757 146.048248
v 105.189148 134.782974 149.554749
v 114.009132 138.865250 147.173569
v 92.880989 145.803497 134.505859
v 94.931984 129.915436 140.088989
v 103.132957 143.582596 146.657211
v 84.085251 139.125900 143.927048
v 79.428078 137.817963 139.654556
v 86.418137 130.685883 147.537125
v 92.880920 142.977493 132.560379
v 77.996689 133.200684 137.948242
v 96.827965 141.318481 147.852020
v 112.659508 145.437607 133.696762
v 99.033836 130.670059 150.390533
v 83.759827 143.790588 141.938370
v 99.034065 124.730225 149.949402
v 101.084969 145.038437 141.000427
v 109.522964 142.970490 132.879105
v 99.034004 145.803528 134.505814
v 96.958252 136.898651 149.042328
v 84.585548 130.686356 146.730881
v 90.774223 138.939514 147.147537
v 79.715584 132.348785 142.410934
v 84.212746 126.230873 147.121460
v 88.459450 141.228012 145.614014
v 109.482719 140.938416 132.911728
v 99.034050 144.845306 133.047119
v 103.135971 145.841660 135.489838
v 107.508438 127.676888 144.100876
v 105.187012 145.039185 141.000549
v 107.542412 138.704758 148.780518
v 112.422325 135.755615 147.842850
v 92.881012 139.438904 132.021194
v 96.982903 133.305374 134.994202
v 113.482735 143.013092 141.298950
v 86.439453 126.828850 145.298889
v 78.783340 138.868729 132.817352
v 97.041397 132.583450 150.118179
v 93.871742 138.179306 148.196915
v 96.983047 130.806519 138.817047
v 96.983002 127.442596 143.992416
v 90.830017 127.442596 143.992416
v 90.882576 128.581100 150.219162
v 86.256805 139.005814 145.353073
v 105.185822 144.836533 133.068771
v 109.573441 144.833450 133.113342
v 109.444237 138.892578 132.979614
v 92.881096 145.418289 133.525925
v 80.244186 140.983063 132.225403
v 109.582184 144.238724 145.431198
v 92.196442 143.556412 145.753708
v 109.491577 134.770096 149.006073
v 101.086395 138.803604 148.853256
v 107.706711 130.799423 149.609848
v 99.054031 136.774445 149.252213
v 82.351273 128.273636 143.113022
v 101.084892 144.845169 133.047821
v 110.171112 136.025360 133.557739
v 94.931992 135.752487 132.185638
v 90.826340 138.454971 131.866394
v 109.582870 143.587250 146.635056
v 112.972885 143.815964 141.451431
v 92.880928 144.845123 133.048157
v 83.068504 144.092377 140.632675
v 99.033997 133.929550 134.018478
v 101.084953 144.246216 145.434204
v 101.084984 145.803513 134.505890
v 96.982979 124.730354 149.949249
v 99.118462 138.599228 131.875900
v 90.691505 143.125122 145.632446
v 80.486595 134.627365 142.693741
v 84.383362 145.802078 134.506165
v 101.084892 126.584602 150.390198
v 81.006721 130.636063 144.342834
v 79.130112 145.300018 133.619583
v 82.337486 129.960724 140.121033
v 81.706116 141.366272 141.179672
v 88.780243 144.837219 133.065186
v 88.919350 142.873444 144.822845
v 78.237343 138.800034 136.692780
v 86.566414 143.961090 142.749878
v 106.693489 126.025345 147.769058
v 99.034264 144.239761 145.431152
v 111.578995 145.446579 134.256912
v 92.880898 145.378647 138.507294
v 105.186966 144.695358 143.493027
v 88.702942 144.174896 143.339035
v 103.138336 133.944977 134.026047
v 105.186569 144.228516 145.426712
v 111.491486 144.938705 133.344254
v 99.034073 130.806549 138.817032
v 87.299873 142.718796 144.222672
v 114.291458 142.654327 142.457443
v 79.052361 142.907883 133.420197
v 103.136024 145.379883 138.507492
v 81.085777 131.764191 144.202515
v 101.084976 145.708649 136.518448
v 109.572968 145.501358 136.495636
v 88.898788 143.768021 144.062256
v 90.899063 132.693863 148.999893
v 90.830017 128.047256 143.003738
v 91.172462 130.318787 149.927078
v 84.158958 126.188965 147.115295
v 107.531349 145.686691 136.514587
v 109.479263 128.823685 143.438583
v 82.332954 133.322754 135.004562
v 88.783073 144.905411 140.975372
v 82.058922 128.680908 145.128571
v 92.880852 129.114960 141.281128
v 101.084946 130.806274 138.816879
v 92.880989 125.849823 146.375427
v 86.434738 134.817230 132.908813
v 86.340187 132.720200 147.073975
v 110.702888 134.784973 137.545135
v 107.528076 134.765762 149.393311
v 111.605331 140.240341 148.167160
v 96.982971 126.661705 145.209244
v 101.084900 142.977020 132.562088
v 111.604485 138.851578 148.358994
v 88.796722 124.408112 149.603958
v 105.481384 136.763092 132.356949
v 115.455887 143.581726 145.501770
v 94.931992 145.841843 135.489883
v 78.955025 144.789139 134.612259
v 112.593300 137.042923 141.169785
v 104.001411 135.764725 132.276566
v 87.762474 125.948669 149.723587
v 94.983406 140.896362 147.676163
v 79.654312 139.027344 139.329224
v 109.696518 141.660278 147.854660
v 81.464493 133.584091 143.915176
v 96.983025 145.418442 133.525909
v 115.398224 143.510345 145.872147
v 113.748688 138.963257 143.402847
v 112.613464 145.236404 133.693665
v 107.533432 145.403793 133.536987
v 103.135376 142.658798 147.471283
v 92.880997 124.366821 149.606583
v 94.932014 126.661705 145.209274
v 83.545937 131.653107 146.009460
v 112.329216 143.871918 133.762009
v 79.778931 129.851059 141.809799
v 84.383957 130.807800 138.817886
v 114.207169 140.742737 143.089645
v 94.932030 139.438797 132.021835
v 82.305847 144.583221 138.589523
v 88.765038 134.780304 147.544235
v 92.923378 130.632675 150.236298
v 99.034035 128.047256 143.003723
v 101.084961 132.232101 136.713608
v 82.334274 145.794113 134.506180
v 105.186798 129.125534 141.288055
v 82.332542 136.865265 131.811172
v 92.880997 145.841858 135.489868
v 94.931984 145.379135 138.507355
v 86.433784 135.758743 132.193192
v 96.982918 145.038483 141.000443
v 84.808525 138.778397 144.410248
v 107.531075 144.695572 143.493042
v 96.983017 135.752563 132.186035
v 109.501419 129.638687 141.548004
v 80.350594 145.495529 135.335236
v 84.384262 129.122589 141.285965
v 82.342476 129.202576 141.332886
v 87.869759 139.559387 145.835587
v 84.383720 134.811203 132.902466
v 82.388847 136.782944 143.529572
v 104.477257 124.522804 149.643234
v 93.041779 142.833023 146.615967
v 88.779030 145.370529 138.506210
v 113.691147 141.004913 147.485352
v 90.830574 145.801620 134.506226
v 84.384720 140.991928 132.201569
v 88.809883 124.726799 149.864059
v 84.384018 133.305084 134.994080
v 106.348259 125.679520 149.050903
v 103.136063 144.701279 143.494095
v 89.333389 140.340378 146.212906
v 86.375671 142.988174 143.653992
v 96.983002 133.929535 134.018509
v 88.778931 128.048248 143.004349
v 86.436028 139.765518 132.000900
v 115.031113 143.014191 146.089386
v 90.829987 142.977585 132.558990
v 78.572166 140.919327 136.727707
v 114.755157 143.095581 143.556900
v 87.107391 128.216705 148.557632
v 78.602364 142.967957 134.642776
v 92.247887 137.463562 147.976807
v 98.958900 139.507980 132.012695
v 80.274521 133.472397 135.071259
v 112.579094 135.193329 147.273102
v 110.464455 137.059433 134.184158
v 84.133972 134.939011 145.367218
v 86.435028 128.064682 143.013565
v 103.136063 129.115723 141.281647
v 83.271164 135.921799 144.411224
v 78.953423 132.748398 140.747192
v 99.034081 126.661705 145.209274
v 101.094200 124.366119 149.607193
v 88.779297 134.817230 132.908752
v 92.881058 126.586143 150.378143
v 105.186905 145.835999 135.489502
v 107.508011 136.767899 149.138657
v 94.931847 128.626923 150.469330
v 105.110085 125.426208 147.538177
v 79.590530 135.856644 132.319199
v 96.987839 138.454163 131.872025
v 105.183952 143.559937 146.635132
v 112.065353 140.923111 138.302139
v 86.440643 140.988083 132.210739
v 94.932037 132.232162 136.713593
v 88.775833 126.688515 145.226517
v 105.246178 138.772430 148.825897
v 82.335701 144.845932 133.046829
v 80.326309 142.946411 132.722137
v 82.341797 140.996017 132.176941
v 79.385780 144.386642 136.079071
v 105.186493 145.791183 134.507782
v 101.284302 139.358063 132.033646
v 109.533379 132.645905 148.865036
v 105.160095 128.624893 150.275894
v 84.383896 139.776627 131.973068
v 107.531532 144.223251 145.423950
v 107.533180 143.584030 146.632919
v 88.779541 145.791061 134.507858
v 78.039215 136.744675 134.846619
v 109.576530 144.931763 140.990417
v 92.881081 135.752579 132.185822
v 111.379890 144.613251 138.509216
v 82.896988 127.723602 145.247711
v 105.184395 134.030869 134.094330
v 79.777992 130.648285 142.771835
v 111.242477 134.819412 138.774490
v 115.490562 143.186646 145.450607
v 114.489372 141.015839 146.654968
v 97.043144 134.615860 149.647675
v 86.435013 133.933426 134.021194
v 111.447762 141.041199 137.110565
v 78.099724 134.763733 138.798981
v 99.560799 133.564240 149.943207
v 92.880981 145.708618 136.518463
v 107.527328 142.971832 132.652023
v 107.841713 128.247742 149.114090
v 78.164963 138.867813 134.577698
v 113.277908 137.108276 147.249680
v 88.780960 145.402451 133.537567
v 101.070770 132.328400 150.153732
v 86.752602 136.516312 146.366165
v 84.641457 143.896515 142.370316
v 88.779007 133.933395 134.021194
v 90.953629 143.819656 144.731094
v 89.440155 132.292892 148.466080
v 78.959213 134.606705 140.569382
v 109.463501 136.934708 133.067368
v 101.084656 134.808594 132.898697
v 82.334053 133.940521 134.025131
v 103.133034 130.665207 150.354630
v 116.297195 143.672485 145.672714
v 107.527794 140.932007 132.556396
v 101.084541 130.667603 150.378143
v 99.034058 132.232208 136.713547
v 77.986305 133.566696 136.993164
v 77.701202 134.452927 137.774872
v 90.853401 136.814667 147.765198
v 105.187599 132.260086 136.731659
v 111.280693 134.908356 148.355698
v 103.141342 140.944382 132.350128
v 101.099785 133.533920 149.914337
v 92.880898 132.232101 136.713608
v 113.358421 140.940704 140.990753
v 86.434990 132.229324 136.711777
v 101.084999 127.442551 143.992447
v 111.835526 142.792053 136.761612
v 94.932014 144.845184 133.048019
v 105.146034 126.612335 150.173691
v 94.569733 139.496704 148.005951
v 107.089081 128.733322 149.772980
v 105.186958 145.381836 138.507751
v 88.853981 139.509140 131.987732
v 107.420509 140.663284 148.254517
v 108.485275 127.694038 145.425079
v 113.043526 138.861252 141.183304
v 90.831062 144.983368 140.992386
v 99.034462 135.751312 132.182541
v 79.005516 131.908539 139.046570
v 100.871506 138.521072 131.858521
v 111.013519 141.082443 134.658447
v 111.409004 144.569824 136.775894
v 78.275154 132.897217 138.833115
v 97.011360 143.582306 146.616165
v 90.830338 134.811127 132.902390
v 110.549103 133.308777 148.363617
v 96.982986 129.114944 141.281128
v 101.084953 145.379242 138.507339
v 90.830055 129.115707 141.281647
v 82.234665 142.912888 140.914520
v 95.001785 136.712845 148.844162
v 98.966515 138.742722 148.773209
v 99.034233 124.366852 149.606567
v 103.133759 145.416458 133.527130
v 88.779037 129.116913 141.282471
v 90.829895 125.850586 146.376038
v 103.136215 126.663559 145.210861
v 103.008995 131.983200 150.190018
v 79.398079 138.882568 132.102753
v 110.773315 139.909653 135.680511
v 111.715660 144.906998 135.293884
v 88.726181 125.870026 146.404007
v 110.521835 141.223511 133.564407
v 80.321762 136.858612 131.839264
v 107.532265 145.787735 134.508423
v 88.893509 138.809448 146.706833
v 103.136032 128.048370 143.004410
v 111.605873 136.873978 138.779861
v 103.135979 129.915237 140.088852
v 94.932030 125.156738 147.409760
v 84.106239 126.191650 147.107986
v 88.779015 145.709061 136.518616
v 101.084953 124.728531 149.950989
v 107.512878 134.209244 134.245499
v 78.955154 142.824158 136.452133
v 112.250572 136.086731 140.680740
v 111.505302 132.582138 143.548523
v 103.091187 124.332161 149.154602
v 77.738167 136.998306 136.791641
v 85.109154 134.494476 146.071121
v 105.185600 133.353699 135.024521
v 99.034004 144.701538 143.494125
v 113.528946 144.131454 143.529449
v 110.349884 131.504257 139.627213
v 107.788696 141.745605 147.902084
v 103.136124 132.234787 136.715256
v 94.823296 133.341232 149.811752
v 101.084961 144.701233 143.494064
v 109.527512 131.217697 139.133133
v 99.034042 129.114929 141.281128
v 84.516243 140.832489 143.594055
v 109.442917 128.779755 145.247986
v 90.830025 145.376678 138.507034
v 96.982910 126.584564 150.390915
v 79.953339 136.823517 140.953369
# 785 vertices, 0 vertices normals

f 249 224 29
f 432 592 737
f 213 194 67
f 733 683 641
f 635 257 396
f 575 157 462
f 238 414 497
f 123 596 195
f 487 468 608
f 53 498 163
f 677 354 401
f 503 476 310
f 567 518 211
f 467 57 752
f 432 394 204
f 27 392 181
f 135 337 281
f 256 369 711
f 41 176 52
f 679 132 626
f 696 543 136
f 492 178 660
f 416 588 476
f 140 261 272
f 196 726 8
f 752 746 656
f 420 619 525
f 191 425 549
f 546 91 761
f 539 349 208
f 674 127 321
f 217 411 101
f 57 324 135
f 4 321 127
f 503 416 476
f 216 9 774
f 495 710 736
f 37 440 696
f 503 375 416
f 688 229 628
f 198 747 716
f 589 422 122
f 650 59 140
f 62 598 252
f 645 162 267
f 238 664 414
f 232 112 309
f 286 66 308
f 28 244 515
f 396 257 129
f 687 5 160
f 423 158 261
f 112 302 309
f 124 173 610
f 646 218 290
f 423 140 670
f 602 345 441
f 703 469 686
f 637 251 692
f 528 233 176
f 150 588 299
f 39 157 575
f 647 88 495
f 418 779 328
f 37 452 556
f 726 714 8
f 470 500 12
f 622 535 120
f 62 600 598
f 525 619 429
f 508 400 182
f 419 7 582
f 499 84 42
f 765 631 567
f 604 216 35
f 551 105 250
f 420 525 649
f 423 261 140
f 483 413 224
f 27 181 245
f 17 290 722
f 215 213 599
f 669 615 327
f 723 310 260
f 262 457 386
f 323 492 273
f 44 68 155
f 175 513 412
f 196 568 726
f 622 542 535
f 519 586 377
f 533 456 282
f 308 66 185
f 440 556 353
f 388 582 7
f 709 55 771
f 640 251 637
f 149 52 233
f 781 367 56
f 521 89 87
f 453 51 223
f 590 353 692
f 547 357 541
f 443 262 386
f 437 673 65
f 89 506 491
f 222 164 496
f 116 573 559
f 88 312 227
f 186 691 704
f 405 741 142
f 524 26 207
f 251 601 487
f 726 587 714
f 462 510 154
f 398 141 361
f 620 529 532
f 729 397 370
f 226 57 467
f 236 669 362
f 446 71 49
f 344 639 43
f 260 310 264
f 100 326 587
f 290 547 351
f 383 758 196
f 203 160 366
f 228 716 428
f 395 306 205
f 88 227 710
f 97 755 662
f 487 120 468
f 613 727 550
f 361 486 68
f 195 151 280
f 740 458 220
f 156 238 497
f 545 95 591
f 425 618 549
f 121 286 308
f 127 339 499
f 748 395 205
f 668 667 504
f 784 511 267
f 490 134 117
f 310 476 264
f 111 584 533
f 90 358 570
f 536 714 587
f 651 512 633
f 627 45 453
f 527 23 187
f 191 370 425
f 215 599 555
f 643 768 144
f 311 174 173
f 680 142 741
f 175 3 513
f 12 146 510
f 46 594 515
f 58 136 545
f 442 780 289
f 488 184 579
f 563 382 324
f 532 667 668
f 388 81 560
f 225 728 121
f 313 462 352
f 215 118 194
f 707 454 706
f 480 180 749
f 332 697 683
f 477 623 47
f 280 67 625
f 426 65 773
f 585 322 42
f 404 669 236
f 613 762 783
f 386 424 516
f 743 18 181
f 619 10 429
f 197 518 102
f 623 508 2
f 678 104 702
f 89 491 87
f 660 666 616
f 158 549 700
f 424 704 376
f 535 542 522
f 536 587 629
f 285 101 411
f 772 509 526
f 491 393 447
f 241 144 317
f 178 666 660
f 767 401 354
f 114 614 399
f 433 771 531
f 13 561 470
f 69 638 339
f 174 220 367
f 489 282 138
f 484 642 228
f 364 604 35
f 680 53 186
f 374 371 113
f 185 369 256
f 185 256 365
f 440 353 590
f 666 625 616
f 386 457 424
f 302 509 449
f 197 28 594
f 289 553 534
f 541 751 732
f 519 377 318
f 406 492 270
f 490 117 469
f 232 309 164
f 521 627 89
f 673 732 214
f 780 344 289
f 197 106 28
f 298 400 508
f 389 156 190
f 686 461 184
f 673 214 505
f 210 532 652
f 431 128 167
f 320 10 619
f 352 154 86
f 332 451 785
f 726 577 587
f 585 84 397
f 416 325 299
f 227 15 475
f 417 578 584
f 279 467 90
f 362 669 327
f 440 543 696
f 517 85 539
f 508 182 699
f 512 663 633
f 4 551 321
f 586 715 263
f 734 112 232
f 577 49 587
f 158 336 261
f 643 763 189
f 145 334 421
f 704 701 376
f 626 702 104
f 449 210 652
f 445 558 238
f 472 548 390
f 501 109 636
f 202 54 635
f 612 168 571
f 40 594 46
f 483 705 413
f 80 310 723
f 784 648 443
f 141 630 172
f 667 493 504
f 107 376 719
f 151 599 213
f 779 9 235
f 134 636 117
f 717 6 732
f 733 641 397
f 591 126 648
f 652 532 668
f 98 301 109
f 277 490 703
f 732 6 214
f 167 703 686
f 150 304 51
f 156 497 190
f 534 553 593
f 405 142 777
f 45 51 453
f 520 740 220
f 128 277 703
f 435 303 485
f 477 298 623
f 362 327 762
f 603 225 325
f 105 208 583
f 259 18 241
f 387 268 31
f 259 241 388
f 516 107 314
f 530 695 542
f 610 248 251
f 474 724 312
f 645 267 392
f 313 393 34
f 216 767 354
f 320 719 10
f 764 438 98
f 479 752 656
f 458 693 367
f 475 15 689
f 283 328 438
f 699 66 286
f 281 760 554
f 311 173 11
f 686 469 461
f 743 144 18
f 496 305 246
f 385 769 683
f 640 637 63
f 745 201 30
f 115 613 550
f 79 415 188
f 622 367 693
f 647 474 88
f 206 283 709
f 664 266 258
f 743 459 643
f 369 277 128
f 91 761 16
f 374 219 735
f 343 368 161
f 4 42 85
f 735 672 118
f 427 315 331
f 160 258 782
f 327 615 597
f 611 320 420
f 380 487 265
f 218 357 547
f 653 8 137
f 62 355 292
f 705 593 400
f 469 753 461
f 463 498 53
f 324 337 135
f 258 266 33
f 73 100 49
f 70 343 161
f 332 572 451
f 567 211 605
f 1 589 740
f 402 119 724
f 291 64 143
f 730 365 256
f 127 434 69
f 765 229 631
f 127 69 339
f 162 591 648
f 743 643 144
f 747 343 70
f 491 34 393
f 83 460 778
f 351 671 345
f 87 491 447
f 658 130 287
f 227 562 15
f 575 34 718
f 159 564 369
f 738 381 460
f 464 556 452
f 610 173 248
f 149 772 526
f 182 531 94
f 688 670 59
f 709 283 55
f 37 696 58
f 725 366 160
f 624 638 346
f 710 635 54
f 442 534 483
f 449 652 119
f 375 502 325
f 712 163 395
f 4 85 517
f 93 206 709
f 466 349 85
f 357 751 541
f 4 359 42
f 631 229 273
f 57 135 752
f 203 687 160
f 524 693 26
f 294 409 742
f 280 213 67
f 121 308 512
f 680 741 463
f 143 330 201
f 55 438 764
f 100 678 326
f 479 656 346
f 531 316 94
f 91 16 761
f 534 593 705
f 717 732 240
f 567 605 661
f 404 236 244
f 261 336 372
f 155 392 27
f 421 605 40
f 483 534 705
f 412 612 342
f 340 504 148
f 512 730 663
f 419 582 234
f 480 59 180
f 781 56 120
f 258 33 217
f 446 614 71
f 644 215 555
f 734 20 61
f 445 152 558
f 225 121 651
f 677 401 766
f 548 217 101
f 183 681 555
f 701 389 665
f 416 299 588
f 388 241 81
f 336 293 372
f 536 478 714
f 291 221 64
f 82 610 640
f 442 483 448
f 749 754 123
f 6 74 214
f 784 267 648
f 467 752 479
f 251 380 692
f 603 502 410
f 303 554 419
f 167 686 488
f 422 331 122
f 455 209 222
f 203 429 687
f 529 602 667
f 546 761 91
f 334 103 421
f 359 499 42
f 537 631 273
f 22 202 396
f 124 514 391
f 657 402 474
f 74 478 505
f 740 507 458
f 778 620 210
f 184 489 138
f 780 428 344
f 763 516 314
f 562 247 15
f 292 460 83
f 539 208 105
f 459 348 763
f 68 645 155
f 474 312 88
f 146 662 646
f 82 640 63
f 143 192 330
f 767 60 22
f 659 131 106
f 450 120 601
f 303 419 485
f 79 404 287
f 150 51 588
f 222 209 232
f 94 316 569
f 373 637 770
f 39 575 718
f 549 618 700
f 629 565 295
f 664 736 266
f 377 370 318
f 510 146 471
f 207 26 122
f 29 655 713
f 704 691 701
f 304 48 223
f 533 578 456
f 212 708 25
f 564 147 24
f 170 242 364
f 50 77 734
f 162 648 267
f 392 267 511
f 70 161 356
f 443 126 262
f 123 195 178
f 9 557 275
f 284 252 566
f 12 744 146
f 33 266 378
f 733 397 729
f 339 638 606
f 136 95 545
f 98 501 436
f 465 175 379
f 71 73 49
f 35 216 774
f 521 87 690
f 607 606 519
f 106 658 28
f 546 91 467
f 707 706 341
f 125 212 19
f 253 335 572
f 772 778 509
f 539 85 349
f 376 701 665
f 36 403 694
f 177 172 452
f 174 520 220
f 341 153 769
f 207 550 530
f 221 552 249
f 69 346 638
f 21 375 503
f 661 605 421
f 782 258 217
f 336 609 293
f 612 494 444
f 341 423 153
f 323 123 270
f 186 53 684
f 340 148 114
f 465 379 632
f 304 300 48
f 382 44 581
f 531 771 675
f 620 381 529
f 114 148 614
f 759 170 206
f 311 785 572
f 263 193 618
f 439 527 751
f 483 224 448
f 79 188 521
f 623 199 47
f 208 63 373
f 378 54 202
f 236 515 244
f 471 646 17
f 163 200 395
f 506 718 34
f 173 450 248
f 481 350 777
f 616 625 654
f 622 693 524
f 623 2 199
f 155 645 392
f 31 383 682
f 291 143 201
f 231 777 142
f 143 64 255
f 531 675 316
f 296 605 211
f 13 307 561
f 654 723 260
f 423 634 158
f 446 689 15
f 305 657 152
f 332 769 523
f 165 727 41
f 262 481 457
f 309 302 580
f 266 736 378
f 226 384 57
f 124 610 82
f 421 422 589
f 730 256 663
f 74 505 214
f 149 61 52
f 194 118 21
f 443 648 126
f 177 452 37
f 97 579 755
f 424 376 107
f 585 676 322
f 442 289 534
f 691 748 701
f 249 394 448
f 590 76 212
f 148 347 132
f 14 16 230
f 500 744 12
f 710 475 635
f 4 517 551
f 398 90 141
f 443 386 348
f 173 174 450
f 92 668 340
f 737 780 442
f 422 46 331
f 752 135 746
f 524 207 530
f 659 660 131
f 170 418 206
f 295 773 505
f 24 436 698
f 765 288 628
f 563 617 382
f 291 739 221
f 343 203 368
f 513 407 494
f 71 679 100
f 656 746 303
f 358 68 44
f 281 179 760
f 461 753 111
f 543 269 95
f 674 321 551
f 115 315 613
f 685 252 598
f 602 441 493
f 262 350 481
f 688 628 523
f 423 670 153
f 495 88 710
f 177 37 58
f 308 185 730
f 581 155 27
f 407 444 494
f 476 588 45
f 98 96 387
f 19 25 405
f 130 654 415
f 128 703 167
f 94 569 66
f 481 680 186
f 185 159 369
f 277 698 490
f 164 309 133
f 65 505 773
f 468 3 175
f 79 521 690
f 742 222 496
f 36 694 681
f 228 428 592
f 91 16 14
f 208 373 430
f 274 338 72
f 650 140 272
f 713 38 371
f 208 430 583
f 259 245 18
f 39 470 157
f 197 594 296
f 58 696 136
f 551 250 230
f 60 378 202
f 41 52 20
f 731 717 240
f 409 571 455
f 627 453 89
f 29 224 655
f 31 268 383
f 674 551 230
f 716 70 757
f 755 439 357
f 481 231 680
f 753 731 111
f 607 339 606
f 492 659 537
f 99 271 750
f 276 30 201
f 197 102 106
f 547 541 437
f 154 510 471
f 196 8 653
f 575 313 34
f 472 171 548
f 612 444 77
f 91 14 467
f 676 466 85
f 86 154 540
f 239 488 97
f 765 661 103
f 616 654 130
f 581 27 179
f 550 727 165
f 405 254 741
f 48 13 39
f 382 581 337
f 45 588 51
f 423 166 634
f 613 783 727
f 530 165 695
f 18 144 241
f 758 766 568
f 724 775 116
f 639 356 595
f 102 659 106
f 92 573 775
f 700 609 336
f 607 318 84
f 463 139 294
f 293 599 151
f 131 616 130
f 319 285 411
f 289 43 553
f 25 254 405
f 765 567 661
f 14 230 250
f 297 100 587
f 414 664 258
f 427 46 515
f 738 540 538
f 691 395 748
f 427 236 362
f 327 597 329
f 78 563 384
f 397 318 370
f 691 712 395
f 538 473 381
f 665 389 721
f 746 554 303
f 64 713 255
f 500 431 239
f 601 120 487
f 186 684 691
f 316 564 159
f 164 133 305
f 239 97 744
f 184 138 579
f 604 319 216
f 575 462 313
f 115 550 207
f 243 740 520
f 506 34 491
f 463 294 742
f 548 782 217
f 485 408 544
f 147 436 24
f 506 223 718
f 28 515 594
f 170 364 418
f 698 134 490
f 671 65 426
f 525 429 203
f 189 420 768
f 602 493 667
f 36 193 715
f 480 273 229
f 765 103 334
f 585 42 84
f 311 572 288
f 463 741 139
f 612 77 168
f 375 325 416
f 314 320 611
f 565 72 338
f 304 223 51
f 426 338 274
f 622 120 56
f 535 522 468
f 333 721 429
f 695 165 407
f 603 325 502
f 368 366 725
f 96 275 557
f 251 487 380
f 91 467 434
f 425 263 618
f 578 187 23
f 654 260 415
f 745 739 291
f 680 463 53
f 765 628 229
f 430 770 556
f 241 317 81
f 292 738 460
f 113 410 219
f 182 94 699
f 239 167 488
f 124 82 514
f 404 690 669
f 124 785 11
f 319 411 216
f 225 651 299
f 722 345 473
f 624 30 638
f 288 334 1
f 606 638 30
f 78 108 563
f 145 589 334
f 43 639 759
f 363 496 246
f 98 109 501
f 105 583 250
f 560 484 110
f 763 314 189
f 606 30 276
f 136 543 95
f 733 729 454
f 67 194 80
f 634 549 158
f 477 38 655
f 86 540 738
f 733 454 683
f 435 485 544
f 545 591 162
f 297 49 100
f 33 378 60
f 10 333 429
f 17 646 290
f 724 92 775
f 754 596 123
f 119 92 724
f 552 394 249
f 455 168 50
f 406 270 123
f 301 99 636
f 557 677 268
f 729 370 191
f 359 127 499
f 284 355 252
f 670 769 153
f 772 83 778
f 80 21 503
f 758 568 196
f 180 272 754
f 427 331 46
f 53 712 684
f 96 557 387
f 493 274 347
f 342 571 720
f 408 204 552
f 199 603 410
f 145 421 589
f 371 38 113
f 658 287 244
f 540 471 17
f 697 785 391
f 404 244 287
f 624 745 30
f 450 781 120
f 141 58 361
f 279 108 78
f 417 187 578
f 543 19 405
f 307 711 561
f 642 169 198
f 519 276 586
f 95 269 350
f 295 505 478
f 40 46 422
f 504 347 148
f 253 523 628
f 694 403 374
f 373 63 637
f 675 764 147
f 554 760 7
f 278 649 32
f 175 342 379
f 61 526 112
f 690 615 669
f 169 32 198
f 364 779 418
f 332 683 769
f 161 368 472
f 231 142 680
f 744 662 146
f 751 240 732
f 157 510 462
f 212 25 19
f 100 626 678
f 783 176 727
f 361 545 486
f 694 374 735
f 764 98 436
f 565 338 773
f 559 114 399
f 676 85 42
f 62 292 83
f 663 256 307
f 568 129 726
f 401 129 568
f 161 390 356
f 625 723 654
f 148 132 614
f 597 566 685
f 32 649 360
f 129 257 577
f 437 65 671
f 548 101 285
f 413 655 224
f 271 682 717
f 746 281 554
f 579 439 755
f 464 583 430
f 673 505 65
f 329 597 685
f 610 251 640
f 633 663 300
f 53 163 712
f 578 23 456
f 492 660 659
f 296 40 605
f 626 72 576
f 124 11 173
f 434 467 479
f 81 317 169
f 470 12 157
f 743 511 459
f 64 29 713
f 538 17 722
f 717 653 6
f 31 271 99
f 108 570 617
f 358 361 68
f 349 574 208
f 635 475 689
f 268 677 758
f 377 263 425
f 195 666 178
f 388 560 582
f 528 685 598
f 676 397 466
f 117 731 753
f 722 290 351
f 108 617 563
f 221 249 29
f 138 282 527
f 157 12 510
f 472 725 171
f 682 196 653
f 130 415 287
f 48 300 13
f 6 137 74
f 43 759 93
f 674 16 434
f 779 774 9
f 668 504 340
f 117 237 731
f 302 449 580
f 713 655 38
f 133 580 402
f 453 223 506
f 290 218 547
f 516 424 107
f 363 246 200
f 737 592 780
f 762 327 329
f 138 527 439
f 622 56 367
f 719 665 333
f 95 350 126
f 771 55 675
f 383 196 682
f 561 711 431
f 247 399 614
f 272 261 372
f 255 713 371
f 572 335 288
f 195 280 666
f 435 346 656
f 623 298 508
f 650 180 59
f 546 279 226
f 225 299 325
f 487 756 265
f 99 237 636
f 203 366 368
f 768 420 278
f 660 616 131
f 135 281 746
f 589 26 507
f 347 72 132
f 219 502 672
f 113 38 47
f 748 205 389
f 609 555 599
f 316 147 564
f 188 264 627
f 312 562 227
f 470 561 500
f 409 222 742
f 76 756 708
f 480 229 688
f 446 15 247
f 553 776 593
f 473 345 602
f 342 612 571
f 751 527 187
f 326 678 629
f 355 86 292
f 725 160 782
f 9 354 677
f 488 686 184
f 276 330 586
f 176 233 52
f 280 625 666
f 783 329 528
f 314 107 320
f 600 233 598
f 436 134 698
f 379 720 139
f 734 77 20
f 413 477 655
f 517 105 551
f 137 714 74
f 158 700 336
f 784 459 511
f 484 592 432
f 246 305 152
f 522 542 695
f 548 285 319
f 221 29 64
f 199 410 47
f 649 525 360
f 430 373 770
f 372 293 596
f 141 90 630
f 590 212 125
f 480 749 273
f 351 437 671
f 118 672 21
f 593 433 400
f 150 633 304
f 509 210 449
f 192 36 715
f 71 614 679
f 644 735 118
f 282 456 23
f 199 2 728
f 485 419 234
f 600 83 772
f 597 447 566
f 682 653 717
f 249 448 224
f 447 393 566
f 152 657 647
f 543 125 19
f 697 514 466
f 512 308 730
f 745 291 201
f 657 474 647
f 347 274 72
f 765 334 288
f 670 523 769
f 259 760 245
f 618 193 183
f 488 579 97
f 530 550 165
f 706 75 166
f 300 307 13
f 579 138 439
f 776 771 433
f 149 600 772
f 762 329 783
f 595 390 242
f 634 191 549
f 198 32 747
f 558 647 495
f 179 245 760
f 708 465 632
f 757 356 639
f 284 566 393
f 185 569 159
f 301 636 109
f 749 123 323
f 437 541 673
f 76 708 212
f 355 352 86
f 528 598 233
f 368 725 472
f 107 719 320
f 9 677 557
f 189 611 420
f 595 242 170
f 395 200 306
f 701 748 389
f 183 555 609
f 576 72 565
f 242 604 364
f 344 757 639
f 218 755 357
f 485 234 408
f 79 690 404
f 80 503 310
f 323 270 492
f 311 243 174
f 724 116 312
f 767 22 401
f 710 227 475
f 50 168 77
f 351 547 437
f 676 42 322
f 526 509 302
f 500 239 744
f 751 187 240
f 635 689 257
f 50 232 209
f 255 371 403
f 401 568 766
f 311 288 243
f 98 387 301
f 553 93 776
f 62 252 355
f 163 363 200
f 464 430 556
f 540 17 538
f 646 662 218
f 486 545 162
f 707 683 454
f 116 559 562
f 642 198 228
f 432 204 110
f 36 681 193
f 349 514 574
f 737 448 394
f 592 428 780
f 460 381 620
f 192 403 36
f 651 150 299
f 111 417 584
f 297 587 49
f 409 720 571
f 750 731 237
f 332 785 697
f 374 113 219
f 174 367 781
f 360 203 343
f 312 116 562
f 677 766 758
f 32 360 747
f 228 198 716
f 672 502 375
f 567 631 537
f 389 306 156
f 216 354 9
f 661 421 103
f 234 110 204
f 529 473 602
f 653 137 6
f 43 93 553
f 387 557 268
f 591 95 126
f 558 495 664
f 609 599 293
f 700 618 183
f 743 181 511
f 690 87 615
f 775 573 116
f 240 187 417
f 189 314 611
f 585 397 676
f 58 545 361
f 705 400 298
f 120 535 468
f 435 544 624
f 552 204 394
f 484 432 110
f 60 202 22
f 440 590 125
f 102 518 567
f 639 595 759
f 305 133 657
f 69 479 346
f 688 523 670
f 658 244 28
f 215 194 213
f 652 668 92
f 251 248 601
f 674 434 127
f 243 1 740
f 119 652 92
f 242 548 604
f 541 732 673
f 699 94 66
f 626 104 678
f 759 206 93
f 66 569 185
f 580 449 119
f 311 11 785
f 295 565 773
f 446 49 257
f 376 665 719
f 259 7 760
f 570 358 617
f 458 507 693
f 14 464 172
f 407 41 20
f 18 245 181
f 554 7 419
f 115 331 315
f 124 391 785
f 292 86 738
f 735 219 672
f 736 710 54
f 481 186 457
f 71 100 73
f 271 731 750
f 257 49 577
f 169 278 32
f 504 493 347
f 644 118 215
f 563 324 384
f 200 246 445
f 706 454 75
f 289 344 43
f 636 237 117
f 596 151 195
f 719 333 10
f 560 81 642
f 770 353 556
f 115 122 331
f 651 633 150
f 288 1 243
f 337 179 281
f 455 50 209
f 721 190 497
f 144 768 317
f 111 240 417
f 650 272 180
f 759 595 170
f 278 420 649
f 377 425 370
f 390 548 242
f 498 363 163
f 31 682 271
f 269 777 350
f 317 278 169
f 593 776 433
f 487 608 756
f 727 176 41
f 546 226 91
f 513 695 407
f 573 114 559
f 739 552 221
f 721 687 429
f 197 296 518
f 27 245 179
f 784 443 348
f 418 328 283
f 226 279 384
f 284 393 313
f 446 257 689
f 641 697 466
f 573 340 114
f 288 335 628
f 2 286 728
f 441 426 274
f 208 574 82
f 651 121 512
f 151 213 280
f 626 576 702
f 246 152 445
f 466 514 349
f 328 275 96
f 756 621 175
f 91 226 467
f 413 705 298
f 14 250 464
f 407 77 444
f 644 555 681
f 254 379 482
f 276 201 330
f 328 96 438
f 129 577 726
f 561 431 500
f 219 410 502
f 626 132 72
f 721 5 687
f 459 763 643
f 140 59 670
f 70 356 757
f 269 405 777
f 264 476 45
f 93 709 776
f 675 147 316
f 643 189 768
f 455 571 168
f 457 186 704
f 161 472 390
f 165 41 407
f 517 539 105
f 75 454 729
f 309 580 133
f 294 139 409
f 253 628 335
f 22 396 129
f 536 629 478
f 254 632 379
f 222 232 164
f 5 414 258
f 737 442 448
f 711 128 431
f 538 722 473
f 498 742 363
f 641 466 397
f 48 39 718
f 284 352 355
f 131 130 658
f 747 360 343
f 778 460 620
f 406 178 492
f 707 341 385
f 458 367 220
f 192 255 403
f 100 679 626
f 379 139 482
f 79 287 415
f 50 734 232
f 629 678 565
f 300 663 307
f 271 717 731
f 316 159 569
f 112 526 302
f 235 9 275
f 435 656 303
f 264 45 627
f 283 438 55
f 387 31 301
f 108 90 570
f 113 47 410
f 306 238 156
f 260 264 188
f 514 82 574
f 546 467 279
f 785 451 572
f 685 566 252
f 279 78 384
f 377 586 263
f 326 629 587
f 544 408 739
f 742 496 363
f 754 372 596
f 401 22 129
f 202 635 396
f 259 388 7
f 468 513 3
f 489 111 533
f 703 490 469
f 706 166 341
f 427 515 236
f 397 84 318
f 548 319 604
f 14 172 467
f 721 497 5
f 469 117 753
f 413 298 477
f 208 82 63
f 622 524 530
f 467 172 630
f 674 230 16
f 428 757 344
f 629 295 478
f 216 411 767
f 400 433 182
f 438 96 98
f 739 408 552
f 115 207 122
f 89 453 506
f 533 584 578
f 484 228 592
f 364 35 779
f 499 607 84
f 441 671 426
f 369 564 24
f 133 402 657
f 317 768 278
f 529 667 532
f 174 781 450
f 565 678 702
f 268 758 383
f 693 507 26
f 62 83 600
f 559 399 247
f 589 122 26
f 467 630 90
f 398 358 90
f 315 762 613
f 560 642 484
f 783 528 176
f 141 177 58
f 736 54 378
f 440 125 543
f 102 537 659
f 87 447 615
f 194 21 80
f 513 612 412
f 513 494 612
f 21 672 375
f 37 556 440
f 586 330 715
f 708 632 254
f 617 358 44
f 382 337 324
f 332 523 253
f 463 742 498
f 421 40 422
f 403 371 374
f 489 533 282
f 496 164 305
f 369 24 277
f 519 606 276
f 284 313 352
f 499 339 607
f 102 567 537
f 272 372 754
f 432 737 394
f 141 172 177
f 154 471 540
f 692 265 76
f 389 190 721
f 770 692 353
f 389 205 306
f 409 139 720
f 306 445 238
f 501 636 134
f 620 532 210
f 356 390 595
f 315 362 762
f 381 473 529
f 217 33 411
f 482 139 741
f 332 253 572
f 486 162 645
f 711 369 128
f 409 455 222
f 480 688 59
f 740 589 507
f 684 712 691
f 296 594 40
f 641 683 697
f 81 169 642
f 596 293 151
f 464 452 172
f 48 718 223
f 406 123 178
f 477 47 38
f 200 445 306
f 581 179 337
f 379 342 720
f 468 522 513
f 694 735 644
f 99 750 237
f 248 450 601
f 182 433 531
f 307 256 711
f 39 13 470
f 265 756 76
f 44 155 581
f 679 614 132
f 160 5 258
f 707 385 683
f 580 119 402
f 441 274 493
f 700 183 609
f 282 23 527
f 756 175 465
f 622 530 542
f 24 698 277
f 392 511 181
f 183 193 681
f 345 671 441
f 716 757 428
f 434 479 69
f 234 582 110
f 603 728 225
f 481 777 231
f 427 362 315
f 398 361 358
f 776 709 771
f 35 774 779
f 560 110 582
f 708 254 25
f 106 131 658
f 206 418 283
f 411 33 60
f 75 191 634
f 411 60 767
f 784 348 459
f 562 559 247
f 728 286 121
f 334 589 1
f 461 111 489
f 779 235 328
f 714 478 74
f 694 644 681
f 426 773 338
f 360 525 203
f 143 255 192
f 590 692 76
f 329 685 528
f 497 414 5
f 576 565 702
f 471 146 646
f 180 754 749
f 2 699 286
f 615 447 597
f 608 468 621
f 508 699 2
f 75 634 166
f 171 782 548
f 184 461 489
f 301 31 99
f 435 624 346
f 778 210 509
f 738 538 381
f 348 516 763
f 664 495 736
f 407 20 77
f 384 324 57
f 697 391 514
f 262 126 350
f 61 20 52
f 402 724 474
f 263 715 193
f 436 501 134
f 662 755 218
f 607 519 318
f 68 486 645
f 468 175 621
f 8 714 137
f 446 247 614
f 341 166 423
f 734 61 112
f 279 90 108
f 624 544 745
f 67 723 625
f 175 412 342
f 725 782 171
f 152 647 558
f 543 405 269
f 149 233 600
f 492 537 273
f 188 627 521
f 92 340 573
f 420 320 619
f 67 80 723
f 716 747 70
f 764 436 147
f 357 439 751
f 91 434 16
f 341 769 385
f 665 721 333
f 756 465 708
f 4 127 359
f 254 482 741
f 234 204 408
f 238 558 664
f 675 55 764
f 192 715 330
f 637 692 770
f 304 633 300
f 722 351 345
f 749 323 273
f 415 260 188
f 617 44 382
f 744 97 662
f 199 728 603
f 464 250 583
f 731 240 111
f 692 380 265
f 522 695 513
f 457 704 424
f 730 185 365
f 328 235 275
f 745 544 739
f 348 386 516
f 756 608 621
f 149 526 61
f 75 729 191
f 352 462 154
f 296 211 518
f 431 167 239
f 243 520 174
# 1570 faces, 0 coords texture

# End of File