####
#
# OBJ File Generated by Meshlab
#
####
# Object domain023.obj
#
# Vertices: 177
# Faces: 362
#
####
v 94.387642 131.155609 130.986145
v 82.073807 134.414764 128.017853
v 85.464554 129.937683 130.985687
v 86.512360 130.279877 129.529526
v 96.557671 137.570038 121.326752
v 91.007919 131.205002 126.910141
v 94.211449 136.050430 129.241241
v 89.920677 140.365555 120.994286
v 86.726204 136.371216 129.396774
v 82.649139 136.096375 129.417221
v 88.781151 137.844772 126.249466
v 93.117302 137.680801 126.169464
v 91.130524 139.918015 121.860001
v 88.777557 129.513214 130.177948
v 95.222496 139.872131 121.410019
v 91.723099 137.893417 121.238304
v 87.836685 138.663101 123.017776
v 86.758270 131.024277 131.169907
v 82.751488 136.082062 128.289459
v 95.198593 139.548645 121.154167
v 88.778816 133.000656 131.293381
v 92.990723 129.488739 130.846878
v 91.123070 131.021774 131.195145
v 81.508110 133.187698 130.838333
v 88.889381 131.345596 126.680992
v 87.191795 131.656250 127.133324
v 94.121033 134.316711 123.368637
v 94.689262 133.152512 130.953415
v 88.778137 136.405121 129.412567
v 95.272461 134.425339 121.762878
v 78.386208 135.568939 129.996735
v 93.270660 133.864853 123.838722
v 95.257996 134.387894 121.758812
v 84.739548 136.634491 128.358475
v 88.078667 138.741821 122.945938
v 91.115875 139.649246 121.237015
v 88.776970 135.660248 130.206604
v 88.395287 134.380539 125.040565
v 81.501083 132.198212 131.005020
v 96.446869 134.987457 131.040573
v 89.605736 139.191452 122.249969
v 97.091530 139.704575 121.350067
v 91.013199 134.710220 123.863167
v 81.720840 136.058014 129.144531
v 81.850365 136.084732 128.895370
v 93.508102 132.985123 128.381256
v 88.890091 129.708710 130.617767
v 95.179161 137.426788 120.985504
v 88.776024 136.970337 128.422348
v 93.141571 130.994293 131.160858
v 91.609970 129.641190 127.923874
v 88.777527 134.541885 130.891861
v 93.280029 133.826004 123.834007
v 83.654854 132.253128 129.323105
v 94.269859 136.068451 125.606346
v 91.124321 138.578690 124.995247
v 88.381851 136.983002 123.749237
v 92.648132 133.503403 125.877754
v 89.919670 140.375610 120.996193
v 93.163628 134.527847 130.900146
v 91.539169 129.529648 127.895386
v 83.652550 135.688629 127.003250
v 91.119438 136.378021 129.393616
v 83.692635 134.121033 127.427513
v 96.274452 136.732559 122.168121
v 95.141594 138.901428 123.464310
v 91.499298 129.463745 127.901123
v 94.653343 133.070297 130.904221
v 82.389618 133.152161 129.496490
v 87.215858 137.648895 124.609787
v 96.484558 135.349319 121.039070
v 93.420807 135.231674 122.094185
v 90.830002 127.455002 130.000000
v 81.511528 132.194366 131.013916
v 97.421989 139.976898 121.162224
v 91.110046 129.548065 130.195602
v 93.117210 136.753189 128.345078
v 93.305138 130.830200 129.961548
v 86.890984 129.945816 130.837631
v 96.436577 135.018631 131.187332
v 82.672470 133.036255 131.059525
v 94.316185 129.244232 131.092636
v 91.909279 130.064056 128.164658
v 96.100365 135.034225 121.266121
v 86.778084 137.816422 125.093803
v 92.195251 129.922302 129.424240
v 82.060471 134.430573 128.017487
v 91.992752 134.083038 124.516273
v 91.120041 136.953430 128.420975
v 84.679611 134.548965 130.881134
v 94.711662 135.242752 130.738388
v 91.524857 135.892685 122.418388
v 93.166618 139.918289 121.397385
v 84.701248 135.659149 130.213638
v 84.690582 133.021942 131.176880
v 97.185799 139.829102 121.235718
v 91.118668 134.529572 130.870346
v 92.623489 133.634262 125.864967
v 81.492798 135.535721 130.232834
v 85.728668 137.923111 125.083679
v 94.286072 137.172821 125.462196
v 93.962334 136.323547 128.207275
v 85.723412 137.630783 126.017334
v 91.117424 135.615677 130.158035
v 81.410797 135.519211 130.221085
v 87.824692 138.650894 123.073563
v 86.633560 135.309830 125.411667
v 86.774017 130.746353 128.442245
v 95.157814 139.880524 121.828751
v 81.566757 134.170883 130.618774
v 91.121384 137.937149 126.285965
v 94.638947 135.279953 130.699493
v 93.598289 136.253082 121.314392
v 91.120415 132.997986 131.272949
v 89.399910 130.197296 127.481453
v 88.979881 133.189789 125.558434
v 94.080139 132.906601 129.843903
v 93.177177 129.463562 130.900955
v 84.809052 131.136322 130.135483
v 95.814934 137.241776 123.501389
v 94.587662 135.263931 130.770905
v 88.620659 138.326523 124.848236
v 85.319458 133.488663 126.862289
v 94.401711 131.143753 131.003006
v 86.892555 129.803635 130.523636
v 93.172455 139.967651 121.905731
v 93.178291 138.451813 124.931702
v 94.315689 129.243988 131.095688
v 93.137115 132.988266 131.160370
v 93.892563 134.678726 128.144318
v 91.151268 129.710785 130.600571
v 82.948311 131.984665 130.638031
v 82.189110 134.218735 128.029846
v 94.204544 135.672211 128.819778
v 83.821777 136.209549 127.116722
v 81.542320 133.281784 130.709335
v 89.273354 137.931580 122.510330
v 86.729935 133.001938 131.278687
v 93.147949 136.275558 129.328384
v 96.707863 137.543533 121.576424
v 82.867081 132.085602 130.860092
v 77.058998 135.951996 130.000000
v 85.513268 129.908813 130.985794
v 89.092430 135.438248 124.103355
v 86.850273 133.104523 126.313194
v 91.798805 129.886932 128.141418
v 85.259850 131.878433 128.279739
v 92.725395 133.564758 125.897858
v 97.305275 139.845505 121.232216
v 84.678566 136.302612 129.372482
v 84.954292 131.345444 130.826599
v 85.650520 137.620010 126.005676
v 93.166603 139.203323 123.684364
v 91.129982 139.212326 123.694748
v 82.061966 134.416763 128.020157
v 85.701370 137.984375 125.091980
v 96.100258 138.226700 123.225677
v 86.729874 135.665359 130.212982
v 86.724754 134.550232 130.912460
v 93.179970 139.550415 121.118355
v 90.866104 137.166245 121.856148
v 86.744019 136.928711 128.292603
v 96.358490 138.775284 122.705429
v 96.497948 135.359680 121.028481
v 91.082245 139.938202 121.384140
v 92.070869 131.739746 126.961029
v 88.863808 138.866348 123.520073
v 82.642990 134.582855 130.778961
v 95.418358 135.551010 121.224983
v 87.276390 135.917969 124.863831
v 94.893448 138.110535 124.501266
v 89.074135 129.750488 128.553848
v 84.174286 132.719940 128.158478
v 94.657829 135.308716 123.706375
v 84.819458 135.099014 126.373398
v 93.232079 137.485275 120.954956
v 88.780975 131.021805 131.203552
# 177 vertices, 0 vertices normals

f 135 175 103
f 155 105 69
f 114 129 50
f 37 63 104
f 14 108 4
f 67 51 61
f 91 40 80
f 136 110 24
f 172 26 108
f 121 7 102
f 154 13 126
f 103 162 34
f 16 113 176
f 137 35 17
f 25 145 26
f 136 132 69
f 19 150 10
f 70 17 106
f 112 121 134
f 6 146 166
f 167 106 35
f 21 138 159
f 45 44 99
f 67 83 146
f 117 1 68
f 21 52 114
f 147 108 26
f 131 118 22
f 110 168 81
f 136 24 39
f 10 150 105
f 8 36 165
f 106 17 35
f 20 5 96
f 97 104 60
f 145 107 175
f 29 9 162
f 32 72 53
f 104 112 60
f 127 171 101
f 173 87 54
f 144 70 170
f 122 56 111
f 176 169 48
f 54 69 119
f 164 71 5
f 93 15 109
f 115 25 26
f 132 119 69
f 160 48 20
f 82 22 118
f 116 144 38
f 137 161 16
f 156 85 152
f 45 99 2
f 99 44 10
f 103 152 162
f 97 60 129
f 43 72 92
f 24 74 39
f 177 18 138
f 136 39 132
f 66 163 157
f 64 62 155
f 116 6 58
f 107 170 70
f 51 146 6
f 124 28 68
f 112 117 121
f 41 16 36
f 71 140 5
f 49 11 89
f 135 103 34
f 98 83 46
f 113 169 176
f 151 79 143
f 15 149 42
f 172 51 67
f 32 148 53
f 125 4 119
f 45 19 10
f 14 76 172
f 55 102 101
f 11 85 122
f 173 155 87
f 153 66 127
f 104 63 139
f 112 139 7
f 151 143 3
f 137 92 161
f 122 167 154
f 115 67 25
f 96 75 149
f 98 148 32
f 76 22 86
f 92 16 161
f 38 144 107
f 94 150 9
f 47 18 177
f 66 109 42
f 90 94 159
f 115 26 172
f 125 119 3
f 155 69 87
f 103 107 152
f 176 48 160
f 82 1 78
f 116 107 145
f 2 87 133
f 130 134 55
f 37 104 97
f 95 138 18
f 30 164 169
f 122 106 167
f 100 85 156
f 154 153 56
f 140 157 163
f 41 36 8
f 122 85 70
f 172 76 51
f 144 137 57
f 99 10 105
f 112 121 91
f 29 49 63
f 47 177 131
f 82 118 128
f 51 146 83
f 99 105 155
f 154 126 153
f 105 150 94
f 151 95 18
f 11 122 111
f 146 86 78
f 45 155 19
f 41 8 59
f 120 157 140
f 66 42 163
f 98 166 83
f 144 57 70
f 100 70 85
f 156 152 103
f 134 102 55
f 51 83 61
f 54 87 69
f 43 32 53
f 23 50 118
f 21 114 23
f 82 128 1
f 141 81 151
f 63 89 139
f 21 159 52
f 43 53 72
f 116 38 107
f 95 81 168
f 36 176 160
f 52 37 97
f 89 111 77
f 48 164 5
f 129 28 124
f 30 33 84
f 101 171 157
f 28 91 121
f 29 158 9
f 16 176 36
f 20 149 15
f 177 138 21
f 95 90 138
f 127 66 171
f 19 155 135
f 129 60 28
f 121 40 91
f 14 47 76
f 52 97 114
f 49 152 11
f 33 71 84
f 115 172 67
f 112 7 121
f 77 102 7
f 144 92 137
f 58 98 148
f 88 98 32
f 30 84 164
f 129 124 50
f 13 165 126
f 168 105 90
f 101 157 120
f 160 20 15
f 59 165 13
f 151 3 119
f 105 94 90
f 153 126 109
f 60 91 28
f 14 172 108
f 111 56 12
f 117 78 1
f 173 147 123
f 137 16 41
f 12 101 102
f 33 140 71
f 66 157 171
f 96 42 75
f 30 27 174
f 128 50 124
f 160 15 93
f 121 91 80
f 32 174 27
f 95 168 90
f 148 55 174
f 77 12 102
f 122 154 56
f 132 141 119
f 30 169 33
f 41 167 35
f 112 134 130
f 32 30 72
f 53 148 174
f 25 116 145
f 58 98 88
f 6 166 58
f 175 107 103
f 128 124 1
f 107 70 152
f 46 83 78
f 76 86 51
f 56 153 127
f 68 28 121
f 72 30 33
f 138 90 159
f 99 168 110
f 33 120 65
f 1 124 68
f 136 69 99
f 89 77 139
f 143 125 3
f 45 2 155
f 52 159 158
f 169 164 48
f 67 61 83
f 173 119 147
f 131 23 118
f 2 155 87
f 42 149 75
f 86 22 78
f 57 137 70
f 103 152 70
f 29 162 49
f 64 175 62
f 111 12 77
f 114 97 129
f 4 108 119
f 173 175 64
f 112 46 117
f 94 9 158
f 49 89 63
f 153 109 66
f 33 174 120
f 121 102 134
f 146 78 83
f 67 146 51
f 58 166 98
f 173 123 175
f 151 18 79
f 122 70 106
f 19 135 34
f 92 72 113
f 99 155 2
f 41 59 13
f 11 111 89
f 174 55 101
f 25 67 6
f 46 78 117
f 116 58 43
f 20 96 149
f 137 41 35
f 33 65 140
f 174 101 120
f 167 13 154
f 146 83 166
f 177 21 23
f 173 54 119
f 177 23 131
f 72 33 169
f 24 110 81
f 37 158 29
f 120 140 65
f 94 158 159
f 2 133 87
f 34 162 9
f 144 170 107
f 126 93 109
f 49 162 152
f 148 130 55
f 2 87 155
f 11 152 85
f 116 43 144
f 147 26 123
f 76 131 22
f 121 80 40
f 43 88 32
f 62 175 135
f 30 174 33
f 12 127 101
f 58 148 98
f 45 10 44
f 100 156 103
f 92 113 16
f 173 64 155
f 128 118 50
f 36 93 165
f 14 79 47
f 137 17 70
f 112 130 46
f 150 34 9
f 5 140 96
f 123 26 145
f 32 53 174
f 98 46 148
f 52 158 37
f 155 62 135
f 84 71 164
f 24 81 141
f 136 99 110
f 132 74 141
f 165 93 126
f 141 151 119
f 72 169 113
f 14 4 125
f 148 46 130
f 47 131 76
f 41 13 167
f 48 5 20
f 123 145 175
f 25 6 116
f 144 43 92
f 139 77 7
f 60 112 91
f 14 125 79
f 140 163 42
f 67 51 6
f 58 88 43
f 151 81 95
f 99 69 105
f 36 160 93
f 8 165 59
f 99 105 168
f 140 42 96
f 51 86 146
f 82 78 22
f 24 141 74
f 37 29 63
f 117 68 121
f 100 103 70
f 56 127 12
f 19 34 150
f 32 27 30
f 109 15 42
f 147 119 108
f 47 79 18
f 143 79 125
f 104 139 112
f 132 39 74
f 23 114 50
# 362 faces, 0 coords texture

# End of File