####
#
# OBJ File Generated by Meshlab
#
####
# Object domain0562.obj
#
# Vertices: 1486
# Faces: 2968
#
####
v 69.198082 50.525871 86.080826
v 69.359009 50.585079 85.873482
v 69.291565 50.423119 86.076988
v 69.277824 50.360039 87.000206
v 69.144989 50.532677 87.001060
v 69.291672 50.424007 87.922989
v 69.198891 50.524750 87.920326
v 69.359200 50.585033 88.126030
v 69.157249 50.915180 86.096367
v 69.375404 50.903645 85.809242
v 69.057816 50.972466 86.998314
v 69.164856 50.912167 87.899704
v 69.376335 50.891052 88.175560
v 69.223488 51.245567 86.040237
v 69.114311 51.461411 86.999535
v 69.197609 51.547386 86.511421
v 69.206352 51.538975 87.484970
v 69.241837 51.236099 87.949402
v 69.224236 51.806225 87.003197
v 69.753998 50.551941 85.754875
v 69.762390 50.273899 86.061089
v 69.747536 50.146492 86.999710
v 69.761253 50.273609 87.938179
v 69.756592 50.556248 88.228783
v 69.761406 50.990849 85.575562
v 69.765594 50.983017 88.342422
v 69.374466 51.608334 85.989296
v 69.762787 51.508224 85.518311
v 69.421631 51.579834 87.977371
v 69.819023 51.513580 88.274246
v 69.542427 52.140533 86.028778
v 69.782143 52.152161 85.524620
v 69.388023 52.155415 86.991394
v 69.669060 52.057854 87.908241
v 69.915695 51.975784 88.166748
v 69.677689 52.656334 86.044464
v 69.857811 52.695827 85.561287
v 69.659462 52.633671 86.963226
v 69.842941 52.645630 87.417542
v 69.834930 52.297874 87.892509
v 69.814438 52.988369 86.018394
v 69.842125 52.949883 86.974442
v 69.751755 79.204208 71.061325
v 69.917000 79.202843 70.726982
v 69.874298 78.917068 71.045860
v 69.826088 78.858040 71.979736
v 69.762711 79.123360 71.922859
v 69.905754 79.114449 72.412514
v 69.674736 79.704964 71.029900
v 69.856667 79.693092 70.545967
v 69.675331 79.692261 71.559845
v 69.745499 79.403099 71.998314
v 69.658035 80.280235 71.027809
v 69.810127 80.285744 70.535080
v 69.757057 79.990898 71.983650
v 69.758430 80.278519 71.897972
v 69.984192 80.237541 72.274445
v 69.696663 80.836876 71.015411
v 69.810204 80.863693 70.531601
v 69.759193 80.875114 71.515091
v 69.824020 80.548340 71.946060
v 69.776527 81.354294 70.998749
v 69.869209 81.405876 70.561470
v 69.887749 81.384804 71.419624
v 69.863663 81.665993 70.998619
v 70.352890 50.462490 85.665146
v 70.307083 50.092445 86.028816
v 70.260918 49.958332 86.999535
v 70.307503 50.096973 87.967308
v 70.360039 50.475071 88.291504
v 70.285957 50.959614 85.381485
v 70.323349 50.989269 88.421463
v 70.161751 51.631432 85.107780
v 70.495544 51.742794 84.843781
v 70.377647 51.387608 85.097542
v 70.330643 51.557392 88.404495
v 70.105339 52.159748 85.064217
v 70.463493 52.167896 84.752586
v 70.370613 52.075344 88.282440
v 70.089645 52.758316 85.072876
v 70.449867 52.740959 84.721619
v 70.303108 52.495567 88.015869
v 70.272018 52.837166 87.658958
v 70.199471 53.306034 85.069588
v 70.461258 53.317249 84.699997
v 69.962318 53.337425 85.982811
v 70.100578 53.269341 86.944969
v 70.401199 53.243649 87.325523
v 70.303062 53.811707 85.061035
v 70.480225 53.794418 84.720238
v 70.221375 53.820503 85.970985
v 70.372025 53.874550 86.480927
v 70.360970 53.582104 86.967476
v 70.453903 54.166439 84.985252
v 70.383339 54.162132 85.991943
v 70.307648 77.449997 72.062546
v 70.476555 77.440643 71.707680
v 70.451126 77.155159 72.043510
v 70.391350 77.097496 72.983978
v 70.288513 77.439011 72.952736
v 70.442604 77.395386 73.439201
v 70.146019 77.973022 72.018646
v 70.328514 77.916756 71.477211
v 70.202881 77.950348 72.961990
v 70.394234 77.939575 73.464767
v 70.100067 78.576370 71.060196
v 70.407608 78.613083 70.683250
v 70.350212 78.257736 71.027702
v 69.944275 78.497192 72.017273
v 70.155403 78.528786 72.955124
v 70.424934 78.542336 73.462135
v 70.284637 79.072212 70.374214
v 70.096718 79.096497 72.921387
v 70.440964 79.087158 73.314400
v 70.162880 79.748398 70.097725
v 70.512329 79.797226 69.794579
v 70.360992 79.432610 70.046883
v 69.798462 79.707039 72.102226
v 70.228958 79.624557 72.931717
v 70.512482 79.592079 73.216621
v 70.097153 80.288254 70.055786
v 70.444969 80.292656 69.712975
v 70.315834 79.957703 72.899628
v 70.311546 80.365067 72.628540
v 70.068565 80.867836 70.028763
v 70.390694 80.870476 69.618370
v 69.998993 80.880569 72.005463
v 70.358818 80.838676 72.380310
v 70.045532 81.503105 70.011063
v 70.312607 81.412964 69.467430
v 70.159782 81.392784 71.911812
v 70.498352 81.353745 72.230209
v 70.296867 82.115471 69.100426
v 70.527023 82.145912 68.794762
v 70.402916 81.793564 69.062820
v 70.052963 82.041870 70.006805
v 70.004906 82.047119 70.970398
v 70.302399 82.087311 71.537109
v 70.373451 81.705612 71.946579
v 70.230598 82.639610 69.064941
v 70.455917 82.648872 68.689056
v 70.083893 82.624519 70.000610
v 70.175880 82.603859 70.945190
v 70.428696 82.604881 71.337830
v 70.188728 83.213425 69.041832
v 70.410126 83.199150 68.528931
v 70.105919 83.206520 69.995544
v 70.285057 83.137489 70.907799
v 70.521370 83.114548 71.216866
v 70.147591 83.819519 69.014252
v 70.292114 83.778152 68.472404
v 70.152969 83.775291 69.985313
v 70.294785 83.816765 70.526459
v 70.387138 83.477478 70.956436
v 70.293198 84.458023 68.094589
v 70.514183 84.478264 67.772133
v 70.386909 84.118477 68.043358
v 70.121773 84.389420 69.005241
v 70.211937 84.372910 69.952965
v 70.425545 84.381866 70.459229
v 70.231651 84.983109 68.063042
v 70.447792 84.985390 67.666145
v 70.121986 84.964668 68.995010
v 70.283669 84.897064 69.911636
v 70.492882 84.878410 70.268700
v 70.208382 85.556297 68.043747
v 70.422585 85.539474 67.536537
v 70.158302 85.532562 68.985329
v 70.294937 85.574654 69.526337
v 70.381981 85.237221 69.962822
v 70.231689 86.127045 68.041061
v 70.410255 86.133942 67.545700
v 70.234726 86.126755 68.953735
v 70.438377 86.135834 69.452675
v 70.340172 86.592102 68.055618
v 70.521767 86.605354 67.607147
v 70.352333 86.587410 68.929825
v 70.503769 86.542839 69.220772
v 70.469147 86.719589 68.041977
v 70.459511 86.701576 68.930267
v 70.677948 49.925209 86.042274
v 70.997406 50.036850 85.817818
v 70.992737 49.842800 86.077118
v 70.981033 49.765575 86.999969
v 70.622360 49.837620 87.000412
v 70.992744 49.841835 87.923134
v 70.679085 49.927544 87.957436
v 70.998726 50.036766 88.177856
v 70.906944 50.423897 85.581940
v 70.905014 50.427319 88.346199
v 70.906303 50.890381 85.339241
v 70.895462 50.984600 88.420120
v 70.907402 51.718288 84.764618
v 70.907166 51.308968 85.036209
v 70.894455 51.566200 88.413872
v 70.918724 52.170315 84.604080
v 70.905769 52.123116 88.344231
v 70.904724 52.739304 84.486877
v 70.622093 52.722519 87.979683
v 70.992676 52.535019 88.188286
v 70.869499 53.296738 84.371101
v 70.946106 52.919952 87.908989
v 70.902328 53.323456 87.566750
v 70.751350 53.901058 84.367432
v 70.651176 53.875004 86.964912
v 71.016380 53.795216 87.283089
v 70.913300 54.479858 84.140778
v 71.135376 54.466209 83.821579
v 70.965218 54.218456 84.046600
v 70.569679 54.514645 85.013077
v 70.604218 54.500061 85.990456
v 70.897224 54.527996 86.526733
v 70.932663 54.176868 86.967644
v 71.025459 54.786366 83.978424
v 70.800545 54.996399 85.019608
v 70.937439 55.071972 84.506989
v 70.869720 54.957439 85.936874
v 71.054688 54.923943 86.260849
v 70.984444 55.336296 85.032806
v 71.032051 55.138008 85.935555
v 70.895699 57.522552 80.062286
v 71.056122 57.511257 79.702591
v 71.018723 57.202236 80.033348
v 70.970230 57.169346 80.984344
v 70.896217 57.517693 80.945984
v 71.075150 57.490627 81.440033
v 70.803688 58.049732 80.022118
v 70.942406 57.998230 79.486801
v 70.858238 58.013577 80.934517
v 71.041779 58.002647 81.327759
v 70.884789 58.678074 79.093391
v 71.086327 58.698753 78.740074
v 70.989868 58.354446 79.058388
v 70.738899 58.600986 80.000122
v 70.886749 58.526272 80.904343
v 71.094193 58.512905 81.254593
v 70.804443 59.197437 79.044388
v 71.014168 59.188610 78.541725
v 70.752754 59.162724 79.983353
v 70.866356 59.209675 80.532364
v 70.966911 58.868477 80.962524
v 70.744026 59.795536 79.014542
v 70.880302 59.753113 78.473396
v 70.756767 59.772205 79.966988
v 70.935341 59.767036 80.485039
v 70.878349 60.431820 78.094139
v 71.117584 60.455452 77.799644
v 70.972900 60.092480 78.043343
v 70.690727 60.363400 79.004539
v 70.785408 60.356712 79.954575
v 71.014015 60.374378 80.460869
v 70.826607 60.957729 78.071800
v 71.058250 60.957802 77.735313
v 70.686646 60.944008 78.999992
v 70.814560 60.930557 79.935509
v 71.045120 60.920586 80.306602
v 70.797256 61.531811 78.058434
v 71.022507 61.534035 77.654060
v 70.692574 61.524624 78.995789
v 70.878593 61.456139 79.905663
v 71.110252 61.432076 80.213371
v 70.783562 62.115692 78.041672
v 71.000702 62.098999 77.531822
v 70.738022 62.093918 78.985970
v 70.876846 62.136234 79.528061
v 70.973206 61.795399 79.956360
v 70.763870 62.702187 78.033615
v 70.934013 62.706696 77.514389
v 70.784821 62.700245 78.959770
v 70.984825 62.714497 79.476395
v 70.752998 63.311172 78.016449
v 70.866356 63.264339 77.467674
v 70.825562 63.274597 78.939392
v 71.032600 63.269447 79.331787
v 70.885292 63.948826 77.097137
v 71.100708 63.968346 76.772537
v 70.970085 63.606380 77.040359
v 70.729095 63.874012 77.999992
v 70.885269 63.799160 78.902878
v 71.103058 63.777935 79.229134
v 70.823730 64.473465 77.060005
v 71.035133 64.475571 76.666710
v 70.753014 64.436836 77.983574
v 70.866364 64.483673 78.532364
v 70.970085 64.141609 78.959641
v 70.794365 65.047951 77.043175
v 71.005157 65.029602 76.534592
v 70.769386 65.044739 77.965546
v 70.937553 65.040253 78.483894
v 70.784966 65.630760 77.037231
v 70.952805 65.634590 76.524040
v 70.816780 65.619469 77.952377
v 71.030533 65.633537 78.448730
v 70.794472 66.210487 77.031631
v 70.932060 66.222260 76.513161
v 70.880829 66.143616 77.912331
v 71.081932 66.126404 78.266273
v 70.817047 66.804077 77.000031
v 70.886269 66.783730 76.470833
v 70.887123 66.824089 77.528877
v 70.967842 66.486198 77.964775
v 70.878571 67.463943 76.086060
v 71.067741 67.469025 75.711754
v 70.964577 67.120850 76.033035
v 70.803108 67.396973 76.968178
v 70.947830 67.382011 77.479012
v 70.828934 67.988464 76.049301
v 71.022934 67.972076 75.546722
v 70.829628 67.963615 76.950607
v 71.019859 67.979645 77.454689
v 70.812294 68.554558 76.033600
v 70.969337 68.565132 75.531044
v 70.876770 68.488060 76.914383
v 71.067383 68.483322 77.288673
v 70.843941 69.122208 76.012917
v 70.964394 69.147385 75.525185
v 70.899155 69.165794 76.525940
v 70.964439 68.831116 76.966675
v 70.889160 69.725548 76.001427
v 70.987419 69.729500 75.532814
v 70.964348 69.724800 76.476250
v 70.938446 70.226547 76.000931
v 71.041779 70.273293 75.563263
v 71.040306 70.271187 76.438789
v 71.005920 70.553474 76.002396
v 70.901306 75.113113 73.985443
v 70.973022 75.040207 73.516434
v 70.991478 74.768890 73.991173
v 71.031586 75.052513 74.440132
v 70.865959 75.670227 73.079353
v 71.049225 75.671730 72.698311
v 70.986343 75.335640 73.037315
v 70.827835 75.611992 73.965355
v 70.972427 75.597702 74.470108
v 70.725647 76.212967 73.019714
v 70.913818 76.158562 72.476929
v 70.768044 76.183136 73.964264
v 70.961113 76.178146 74.472130
v 70.685410 76.817825 72.059418
v 70.993111 76.854897 71.682892
v 70.936234 76.499763 72.027725
v 70.519829 76.735863 73.017990
v 70.726944 76.769783 73.959702
v 71.005836 76.785950 74.465912
v 70.862480 77.308517 71.366234
v 70.660339 77.331161 73.938698
v 71.010651 77.339539 74.333328
v 70.636551 77.959236 71.026291
v 71.009804 78.046555 70.715141
v 70.920052 77.659134 71.017998
v 70.692734 77.930557 73.936584
v 71.044655 77.920059 74.262543
v 70.907143 78.522888 70.435287
v 70.760025 78.455521 73.885109
v 71.082809 78.348259 74.155746
v 70.641960 79.148048 70.047394
v 70.999825 79.311546 69.809082
v 70.948303 78.931702 70.092758
v 70.964333 78.703911 73.901581
v 70.886467 79.134521 73.606468
v 70.931992 79.729210 69.636009
v 70.931908 79.654465 73.384682
v 70.901688 80.285896 69.488792
v 70.644417 80.244606 72.946983
v 70.997574 80.082703 73.197578
v 70.821419 80.774635 69.310234
v 70.944283 80.472641 72.920166
v 70.884933 80.902878 72.616554
v 70.642746 81.478401 69.035263
v 71.027336 81.581345 68.761345
v 70.918335 81.174438 69.020508
v 70.929428 81.418030 72.396545
v 70.930496 82.064873 68.589043
v 70.650887 81.996475 71.948021
v 71.007370 81.848381 72.208313
v 70.888237 82.601868 68.395622
v 70.946655 82.238235 71.927010
v 70.882309 82.659714 71.618820
v 70.739487 83.278595 68.098389
v 71.073204 83.385925 67.832687
v 70.961723 83.029907 68.094727
v 70.924774 83.193802 71.424698
v 70.583275 83.785561 67.999756
v 70.977432 83.844559 67.693893
v 70.583717 83.809982 70.999847
v 70.984673 83.745644 71.284538
v 70.912132 84.392410 67.517654
v 70.742538 84.315117 70.900024
v 71.074745 84.208946 71.165154
v 70.829948 84.887650 67.327126
v 70.966278 84.558319 70.897705
v 70.905914 84.974785 70.568626
v 70.745033 85.606247 67.096626
v 71.102707 85.657578 66.805901
v 70.937820 85.285759 67.039680
v 70.580742 85.569466 70.004211
v 70.971397 85.507103 70.325722
v 70.714951 86.137993 67.082146
v 71.050011 86.124184 66.799324
v 70.747597 86.066391 69.895729
v 71.073723 85.963791 70.166969
v 70.793098 86.602318 67.133537
v 70.984512 86.462677 66.933472
v 70.980003 86.278938 69.879097
v 70.906334 86.589409 69.439697
v 70.925835 86.659805 67.124359
v 70.921982 86.857109 68.015709
v 70.922394 86.811409 68.949356
v 71.317238 50.019276 85.856003
v 71.372063 49.855366 86.080185
v 71.401703 49.801380 87.001343
v 71.368553 49.857689 87.921051
v 71.309776 50.018883 88.134720
v 71.422531 50.450237 85.687798
v 71.342903 50.413956 88.231407
v 71.496300 50.968933 85.420837
v 71.361176 50.982449 88.271111
v 71.399597 51.758057 84.782555
v 71.455444 51.373940 85.079765
v 71.360695 51.567669 88.270119
v 71.481285 52.181225 84.571014
v 71.349236 52.139141 88.238991
v 71.460495 52.694344 84.350594
v 71.327866 52.555424 88.142853
v 71.292587 53.374695 84.074005
v 71.655067 53.497890 83.826195
v 71.542061 53.134838 84.083481
v 71.440155 52.916504 87.900047
v 71.519440 53.361420 87.626015
v 71.147873 53.888500 83.982132
v 71.555061 53.956383 83.668953
v 71.512421 53.874695 87.400322
v 71.448433 54.523895 83.445152
v 71.239548 54.443497 86.945496
v 71.585884 54.292645 87.191780
v 71.402878 55.161858 83.092659
v 71.561859 55.143311 82.525208
v 71.561661 54.893784 83.040497
v 71.051765 55.155094 83.986542
v 71.542259 54.652828 86.893646
v 71.511230 55.042702 86.461906
v 71.470589 55.804634 81.045158
v 71.608238 55.875652 80.611153
v 71.623642 55.641960 81.065804
v 71.566460 55.415821 81.993233
v 71.399971 55.741455 82.025795
v 71.280624 55.683640 83.009491
v 71.171791 55.669552 83.992706
v 71.172707 55.673794 84.977531
v 71.451012 55.722076 85.549377
v 71.448097 55.445564 86.005539
v 71.454002 56.363640 80.098663
v 71.662727 56.446800 79.842148
v 71.597679 56.165459 80.143448
v 71.260681 56.277420 81.008858
v 71.259521 56.263748 82.000366
v 71.263130 56.255989 82.999870
v 71.270103 56.243416 83.990746
v 71.415085 56.176094 84.922325
v 71.630058 56.182442 85.305946
v 71.208801 56.847000 80.032509
v 71.552078 56.882092 79.644608
v 71.079193 56.802406 81.021904
v 71.228615 56.840321 81.995628
v 71.290825 56.827305 82.990623
v 71.425926 56.755230 83.947426
v 71.578514 56.783741 84.464951
v 71.582993 56.491249 84.944420
v 71.439034 57.368217 79.355583
v 71.255188 57.363335 81.976234
v 71.436195 57.327190 82.962318
v 71.578888 57.365910 83.467598
v 71.567627 57.086819 83.973007
v 71.230141 58.039906 79.033653
v 71.597351 58.122849 78.716576
v 71.503578 57.732697 79.015625
v 71.417473 57.771999 82.031548
v 71.334541 58.083138 81.711411
v 71.593849 57.641827 82.977409
v 71.499329 58.607471 78.444817
v 71.475479 58.615875 81.597069
v 71.328316 59.254898 78.099365
v 71.659134 59.359585 77.831970
v 71.554306 59.014935 78.104797
v 71.144135 59.212551 81.025414
v 71.530067 59.161995 81.382103
v 71.169250 59.759773 77.999458
v 71.570412 59.822559 77.718422
v 71.247818 59.761768 80.959282
v 71.623230 59.753544 81.271927
v 71.513115 60.369869 77.595032
v 71.343994 60.289764 80.886978
v 71.668488 60.182373 81.156197
v 71.486977 60.946445 77.484108
v 71.550354 60.537956 80.901604
v 71.473213 60.969498 80.606697
v 71.414421 61.443115 77.321342
v 71.511093 61.511566 80.423660
v 71.326645 62.166367 77.092987
v 71.687073 62.223484 76.808685
v 71.528244 61.850384 77.047134
v 71.166878 62.130299 80.002426
v 71.567932 62.068546 80.298302
v 71.244736 62.710957 77.037949
v 71.625175 62.715382 76.734116
v 71.307175 62.653782 79.922813
v 71.679710 62.597500 80.207642
v 71.151741 63.263721 76.983505
v 71.552574 63.321476 76.670975
v 71.520409 62.973919 79.963585
v 71.414627 63.371635 79.672203
v 71.497391 63.881657 76.516273
v 71.500221 63.867428 79.482140
v 71.415947 64.377670 76.327118
v 71.151901 64.484253 79.016327
v 71.552910 64.426407 79.328278
v 71.328606 65.096176 76.094490
v 71.684326 65.147232 75.794579
v 71.523827 64.775749 76.039696
v 71.247871 65.035645 78.959404
v 71.628616 65.028809 79.255028
v 71.266037 65.638519 76.053398
v 71.632507 65.642670 75.742500
v 71.347176 65.561981 78.885635
v 71.668381 65.456596 79.155724
v 71.228508 66.221603 76.024841
v 71.606087 66.222244 75.700943
v 71.555084 65.804245 78.894554
v 71.491333 66.223648 78.569862
v 71.140144 66.775681 75.970596
v 71.518585 66.819824 75.598206
v 71.150429 66.828705 78.018867
v 71.546707 66.770424 78.348938
v 71.441803 67.330757 75.358070
v 71.245224 67.380844 77.961716
v 71.623787 67.375061 78.268166
v 71.332321 68.027565 75.096397
v 71.684326 68.077240 74.794586
v 71.530251 67.710526 75.044968
v 71.329865 67.924461 77.905487
v 71.685509 67.874695 78.204773
v 71.269035 68.568268 75.055733
v 71.632675 68.572586 74.742691
v 71.527184 68.244743 77.959755
v 71.434402 68.625046 77.648888
v 71.254959 69.148659 75.043869
v 71.623474 69.148697 74.729774
v 71.136711 69.177391 77.032791
v 71.501518 69.138268 77.418114
v 71.258148 69.733604 75.045952
v 71.614197 69.736237 74.712639
v 71.235588 69.729874 76.969414
v 71.601898 69.727699 77.316650
v 71.245659 70.340630 75.060776
v 71.594543 70.330429 74.661957
v 71.273628 70.325760 76.925606
v 71.636978 70.306519 77.250244
v 71.305267 70.902458 75.034958
v 71.571007 70.889526 74.522736
v 71.118629 70.926529 75.993332
v 71.417816 70.835320 76.915703
v 71.697075 70.807495 77.205406
v 71.305374 71.511681 75.012627
v 71.464096 71.472160 74.472389
v 71.269409 71.473541 75.986610
v 71.448784 71.515038 76.532616
v 71.549294 71.173454 76.961372
v 71.464264 72.151817 74.094093
v 71.703583 72.175453 73.799652
v 71.558899 71.812508 74.043358
v 71.277290 72.083336 75.004234
v 71.343300 72.077049 75.961113
v 71.581001 72.092628 76.472702
v 71.413216 72.677361 74.071747
v 71.656387 72.677834 73.757973
v 71.257004 72.664902 74.999802
v 71.381058 72.662117 75.940018
v 71.616302 72.650421 76.321457
v 71.375114 73.253761 74.060692
v 71.622643 73.266365 73.703461
v 71.258163 73.249016 75.000305
v 71.412369 73.236389 75.928368
v 71.654060 73.232460 76.250755
v 71.299629 73.865799 74.025787
v 71.545471 73.841888 73.527153
v 71.257393 73.831558 74.996323
v 71.466774 73.762253 75.904053
v 71.705223 73.737297 76.198456
v 71.421028 74.511192 73.091690
v 71.659927 74.588356 72.806564
v 71.578590 74.259895 73.102936
v 71.118668 74.402496 74.007896
v 71.272606 74.400009 74.989922
v 71.449715 74.445274 75.532547
v 71.559334 74.101372 75.956108
v 71.172089 74.991776 73.013580
v 71.542755 75.046310 72.635849
v 71.223312 74.986969 74.960518
v 71.558479 75.023506 75.480835
v 71.440849 75.535492 72.357674
v 71.247864 75.593498 74.964066
v 71.588066 75.584381 75.343803
v 71.222885 76.201370 72.026955
v 71.597786 76.297165 71.726585
v 71.508232 75.904671 72.023087
v 71.272018 76.172676 74.941582
v 71.631645 76.162277 75.261726
v 71.492638 76.765144 71.434814
v 71.346397 76.697502 74.884743
v 71.668716 76.591644 75.158134
v 71.224838 77.387489 71.042931
v 71.583908 77.552399 70.803917
v 71.534264 77.173767 71.092728
v 71.549896 76.947533 74.903717
v 71.466835 77.383057 74.615005
v 71.505234 77.977898 70.598419
v 71.501907 77.915627 74.423943
v 71.522751 78.481476 70.363289
v 71.494179 78.375404 74.241837
v 71.399002 79.310837 69.805283
v 71.455917 78.915123 70.076347
v 71.493469 78.783363 73.963699
v 71.489449 79.199173 73.659157
v 71.465286 79.739288 69.626205
v 71.479904 79.661934 73.417648
v 71.483826 80.287666 69.406662
v 71.400261 80.082520 73.197678
v 71.224045 80.910553 69.057045
v 71.492317 81.135811 68.883163
v 71.494255 80.740044 69.126953
v 71.455864 80.476631 72.923317
v 71.519974 80.915573 72.646233
v 71.489273 81.514954 68.690773
v 71.485649 81.435928 72.436371
v 71.494652 82.044418 68.510788
v 71.490952 81.890762 72.241051
v 71.491608 82.519554 68.309677
v 71.491989 82.298424 71.963791
v 71.491615 82.732910 71.691635
v 71.492973 83.360580 67.757736
v 71.492729 82.952850 68.035439
v 71.490822 83.212875 71.512238
v 71.498398 83.815979 67.563629
v 71.493179 83.779167 71.377350
v 71.463470 84.337265 67.354172
v 71.492302 84.232697 71.227699
v 71.221046 84.998825 67.040062
v 71.586716 85.172409 66.813446
v 71.529594 84.776070 67.076233
v 71.492302 84.640038 70.960922
v 71.490700 85.067268 70.669975
v 71.520386 85.578506 66.687904
v 71.496300 85.541573 70.453079
v 71.464920 86.060684 66.739967
v 71.494255 85.989098 70.238564
v 71.513954 86.474075 66.992599
v 71.175781 86.640373 67.055031
v 71.514389 86.760208 67.473045
v 71.493324 86.343361 69.927521
v 71.491661 86.656387 69.462814
v 71.472397 86.885658 68.016281
v 71.491295 86.854301 68.962090
v 71.525810 49.957752 86.077187
v 71.696709 49.941936 87.000908
v 71.498077 49.956299 87.912010
v 71.809830 50.383854 86.022003
v 72.004257 50.434540 86.517365
v 71.941429 50.205303 86.991341
v 71.939987 50.449669 87.437035
v 71.699478 50.390873 87.915222
v 71.934196 51.059978 85.703041
v 72.015854 50.718391 86.033813
v 71.727585 50.982105 87.953644
v 72.034737 50.989487 87.476837
v 71.766327 51.600086 85.027115
v 72.113800 51.517029 85.455803
v 71.748306 51.567760 87.968422
v 72.122551 51.593838 87.502327
v 72.035637 52.220589 84.661987
v 72.110588 51.813065 85.013474
v 71.751678 52.148441 87.963264
v 72.133621 52.156269 87.604813
v 72.077431 52.667767 84.375618
v 71.675926 52.683670 87.905373
v 72.100098 52.769531 87.610390
v 72.079391 53.470551 83.745872
v 72.078629 53.078716 84.048248
v 72.074631 53.323719 87.499710
v 72.078583 53.911846 83.500000
v 72.051102 53.879051 87.361176
v 71.993439 54.327450 83.255745
v 71.984123 54.296402 87.190750
v 71.827538 55.151726 82.030975
v 72.124237 55.211151 81.564659
v 72.142143 54.987488 82.065506
v 72.022842 54.627529 82.939880
v 72.038788 54.678379 86.908417
v 72.105484 55.090961 86.587540
v 72.100365 55.779667 80.550262
v 72.073288 55.448803 81.061310
v 71.783951 55.672783 85.998726
v 72.184250 55.544098 86.283539
v 72.002312 56.457531 79.764153
v 72.034027 56.111511 80.108810
v 72.092773 55.945656 85.978065
v 72.043831 56.289013 85.623177
v 72.061615 56.848690 79.437538
v 71.845352 56.767586 84.944420
v 72.157265 56.676876 85.280357
v 71.806801 57.457176 79.035744
v 72.175323 57.616512 78.786957
v 72.122604 57.238033 79.082962
v 71.834557 57.366829 83.964180
v 72.142166 57.275261 84.409698
v 72.138435 56.983753 84.901451
v 72.089584 58.042648 78.573418
v 71.589188 58.098156 82.052589
v 71.866104 57.940022 82.940102
v 72.146614 57.857616 83.408653
v 72.134705 57.578930 83.915932
v 72.080238 58.510544 78.340759
v 71.885048 58.534191 81.968628
v 72.147003 58.438457 82.404854
v 72.145775 58.150383 82.908455
v 72.077614 59.337280 77.772217
v 72.078316 58.929756 78.038834
v 72.128914 58.782146 81.928276
v 72.054848 59.220882 81.616127
v 72.076920 59.790783 77.623047
v 72.086540 59.750725 81.424622
v 72.077988 60.363060 77.518677
v 72.080193 60.209312 81.241714
v 72.077957 60.930244 77.356812
v 72.078735 60.616898 80.964165
v 72.077614 61.050900 80.691566
v 71.812103 61.574764 77.061729
v 72.079117 61.798355 76.884209
v 72.080215 61.397213 77.120888
v 72.076553 61.535732 80.531303
v 72.080223 62.176109 76.707428
v 72.085205 62.110790 80.421577
v 72.090973 62.707806 76.602631
v 72.096542 62.665691 80.326134
v 72.079384 63.288986 76.507935
v 71.806648 63.259705 79.960747
v 72.173126 63.082512 80.181160
v 72.048843 63.824379 76.348358
v 72.115707 63.479427 79.920647
v 72.049095 63.923172 79.650520
v 71.807030 64.488831 76.040054
v 72.171829 64.661568 75.809082
v 72.115585 64.266037 76.076225
v 72.079765 64.457886 79.488701
v 72.106400 65.079697 75.653938
v 72.089638 65.028603 79.384583
v 72.088989 65.635803 75.576363
v 72.080360 65.482536 79.236961
v 72.080536 66.222031 75.521103
v 72.078712 65.890793 78.964134
v 72.076096 66.321449 78.681305
v 72.052322 66.760124 75.365982
v 72.077332 66.806313 78.508919
v 71.811813 67.424522 75.046120
v 72.171829 67.591560 74.809082
v 72.116570 67.200096 75.080917
v 72.088844 67.386879 78.422791
v 72.106407 68.009689 74.653931
v 72.106865 67.949814 78.363007
v 72.089844 68.564911 74.581963
v 71.796982 68.551262 77.982468
v 72.203606 68.430672 78.234955
v 72.086082 69.148834 74.560867
v 72.086990 68.844635 77.983856
v 71.983269 69.251770 77.698936
v 72.079834 69.738106 74.517525
v 72.072006 69.739929 77.531685
v 72.053223 70.287811 74.378525
v 72.087402 70.316986 77.446129
v 71.911484 70.972603 74.098389
v 72.245163 71.079597 73.831985
v 72.133774 70.724007 74.094810
v 72.103989 70.891884 77.377831
v 71.755272 71.479561 73.999756
v 72.156403 71.542542 73.718300
v 71.755951 71.504097 76.999275
v 72.159378 71.436798 77.271423
v 72.104034 72.090958 73.619087
v 71.914246 72.008926 76.897026
v 72.238670 71.892044 77.150543
v 72.086998 72.666985 73.554604
v 72.133186 72.248909 76.893196
v 72.057518 72.691948 76.607742
v 72.068504 73.240364 73.456284
v 72.085373 73.245125 76.466431
v 71.999847 73.687241 73.280441
v 72.102737 73.822014 76.388176
v 72.118362 74.503883 72.695358
v 72.056190 74.075172 72.978607
v 71.755684 74.434448 75.999268
v 72.158333 74.369469 76.279564
v 72.090714 75.022316 72.423042
v 71.909561 74.942436 75.902878
v 72.246742 74.832954 76.165146
v 71.813805 75.642410 72.063034
v 72.077835 75.860886 71.878273
v 72.080002 75.469429 72.128815
v 72.133766 75.189987 75.904991
v 72.052505 75.626175 75.616158
v 72.074059 76.248863 71.650421
v 72.087601 76.161781 75.433388
v 72.102417 76.737953 71.387184
v 72.090553 76.627342 75.255989
v 71.984169 77.553429 70.808838
v 72.041832 77.157585 71.076973
v 72.081055 77.039963 74.978767
v 72.074997 77.450043 74.672020
v 72.048470 77.973015 70.636787
v 72.067268 77.908844 74.427284
v 72.080704 78.520607 70.478722
v 71.979332 78.333702 74.210983
v 71.763245 79.139595 70.038422
v 72.163963 79.016350 70.318672
v 72.035843 78.709991 73.913475
v 72.074478 79.111359 73.565575
v 71.902306 79.793785 69.766647
v 72.050072 79.424080 70.036880
v 71.972855 79.587219 73.283867
v 72.036339 80.311150 69.624199
v 71.765610 80.254539 72.966019
v 72.074188 79.982796 72.988106
v 72.158676 80.370651 72.680946
v 71.756424 80.917999 69.058105
v 72.127274 80.808464 69.357994
v 72.071922 80.859962 72.482895
v 71.952293 81.584961 68.761978
v 72.062981 81.179459 69.028107
v 72.006897 81.407921 72.306328
v 72.055283 82.069672 68.592293
v 71.909744 81.865623 72.166290
v 72.098755 82.593529 68.385231
v 72.022972 82.220848 71.902008
v 72.096481 82.652977 71.608017
v 71.976059 83.404144 67.792458
v 72.042076 83.014130 68.078758
v 72.059288 83.195801 71.427216
v 72.053131 83.835175 67.606697
v 72.001694 83.748245 71.287437
v 72.095154 84.354973 67.394058
v 71.909767 84.210098 71.167221
v 71.981567 85.174034 66.815231
v 72.041946 84.783020 67.089859
v 72.022980 84.564857 70.901993
v 72.097145 84.996231 70.608177
v 72.044479 85.574310 66.695869
v 72.055191 85.521416 70.398827
v 72.060173 86.000816 66.760971
v 71.978691 85.950317 70.209785
v 72.066238 86.385490 67.039810
v 72.073860 86.693100 67.516609
v 72.026405 86.299088 69.901413
v 72.081841 86.608971 69.452362
v 72.075241 86.856064 68.035194
v 72.065094 86.818161 68.952965
v 72.087624 50.503689 86.985481
v 72.161095 51.056931 86.069542
v 72.216492 51.004040 86.969666
v 72.401955 51.553020 86.002785
v 72.392715 51.548088 86.989670
v 72.497292 52.336575 84.789047
v 72.535347 52.106995 85.074493
v 72.611740 51.881725 85.982117
v 72.557983 51.922585 86.965469
v 72.470528 52.238049 87.257317
v 72.623802 52.760307 84.534119
v 72.515808 52.751633 87.290947
v 72.567711 53.521626 83.770035
v 72.613647 53.159824 84.097572
v 72.525757 53.316288 87.266747
v 72.644913 53.963219 83.461021
v 72.472015 53.810863 87.206062
v 72.365021 54.478951 82.992447
v 72.663673 54.654682 82.590805
v 72.665520 54.365219 83.093185
v 72.348801 54.467789 86.960999
v 72.631828 54.181942 86.959435
v 72.745110 54.587891 86.684013
v 72.662895 55.146603 81.534821
v 72.663818 54.872341 82.066040
v 72.659729 55.083023 86.496429
v 72.660652 55.746765 80.626312
v 72.664307 55.426987 81.036690
v 72.661781 55.610756 86.310287
v 72.368996 56.262173 80.005013
v 72.737930 56.096916 80.281082
v 72.403183 56.196644 85.933411
v 72.663185 55.986061 86.116180
v 72.634857 56.808544 79.505150
v 72.709740 56.434349 79.919319
v 72.663994 56.339684 85.849388
v 72.663666 56.680664 85.429291
v 72.661690 57.580971 78.762520
v 72.662392 57.210487 79.063347
v 72.664505 57.045654 84.941208
v 72.664711 57.358471 84.458740
v 72.654182 58.036556 78.576385
v 72.664146 57.655323 83.961365
v 72.664421 57.938194 83.455940
v 72.688805 58.567188 78.383842
v 72.679153 58.229362 82.938110
v 72.627998 58.477863 82.432510
v 72.494072 59.361431 77.835793
v 72.609047 59.004936 78.097694
v 72.629333 58.802670 81.945000
v 72.684822 59.222973 81.617996
v 72.584381 59.823788 77.719376
v 72.639885 59.736897 81.397675
v 72.641289 60.372055 77.597488
v 72.563530 60.167587 81.209969
v 72.665146 60.942097 77.484322
v 72.628075 60.556007 80.921661
v 72.689400 60.983543 80.628510
v 72.346107 61.573986 77.052597
v 72.749077 61.433136 77.315559
v 72.658249 61.522896 80.468498
v 72.536278 62.248322 76.767509
v 72.655411 61.835232 77.022408
v 72.639221 62.102463 80.385437
v 72.634972 62.728947 76.634369
v 72.583580 62.649654 80.272293
v 72.656860 63.294373 76.538361
v 72.503448 63.102894 80.148964
v 72.687981 63.835186 76.377983
v 72.609497 63.457657 79.889160
v 72.684418 63.903423 79.612488
v 72.568535 64.663429 75.811668
v 72.628014 64.273041 76.090004
v 72.658127 64.451233 79.461876
v 72.634575 65.079666 75.656372
v 72.636261 65.015984 79.361893
v 72.653145 65.635124 75.577522
v 72.564072 65.442230 79.207283
v 72.662880 66.218964 75.506798
v 72.628380 65.838402 78.936859
v 72.696304 66.274811 78.665771
v 72.692513 66.753853 75.348618
v 72.663155 66.803238 78.494743
v 72.570152 67.591515 74.809029
v 72.627838 67.195328 75.076614
v 72.655525 67.389160 78.437531
v 72.634552 68.009666 74.656372
v 72.650345 67.971245 78.390930
v 72.652306 68.564308 74.583092
v 72.661804 68.501831 78.292580
v 72.658989 69.148773 74.546806
v 72.395432 69.106590 77.943695
v 72.663910 68.879333 78.115524
v 72.665367 69.728249 74.467720
v 72.666245 69.280685 77.878792
v 72.662224 69.748138 77.643616
v 72.663635 70.213364 74.308952
v 72.664307 70.318123 77.501678
v 72.663712 71.057137 73.771889
v 72.664330 70.649734 74.038826
v 72.657181 70.899887 77.423698
v 72.660866 71.511330 73.638931
v 72.646347 71.458130 77.328979
v 72.658234 72.081490 73.566574
v 72.570747 71.875336 77.183479
v 72.663124 72.664383 73.498581
v 72.627800 72.270691 76.920914
v 72.695076 72.719254 76.666389
v 72.666252 73.235611 73.357597
v 72.665886 73.252159 76.532425
v 72.382828 73.863663 73.035652
v 72.657257 74.099144 72.872482
v 72.665329 73.700020 73.115784
v 72.662796 73.833397 76.456192
v 72.643356 74.479309 72.671135
v 72.665199 74.403244 76.371704
v 72.662834 75.012543 72.501907
v 72.664307 74.856682 76.227699
v 72.346100 75.638031 72.052635
v 72.749641 75.494934 72.312958
v 72.664597 75.264526 75.961151
v 72.662460 75.690750 75.671066
v 72.545555 76.303497 71.747223
v 72.655556 75.898773 72.021156
v 72.661369 76.168831 75.463669
v 72.648544 76.783066 71.537796
v 72.651184 76.627022 75.255585
v 72.349083 77.381927 71.038559
v 72.736656 77.273788 71.335030
v 72.659546 77.018906 74.956459
v 72.654007 77.408791 74.598145
v 72.468849 78.040596 70.798233
v 72.629326 77.669800 71.045723
v 72.564362 77.833107 74.293327
v 72.517570 78.539841 70.723282
v 72.335083 78.478004 73.955315
v 72.638466 78.204773 73.971367
v 72.680870 78.560699 73.531601
v 72.553703 79.116928 70.654823
v 72.513809 79.024376 73.288635
v 72.262512 79.746460 70.077553
v 72.584450 79.677933 70.523575
v 72.343506 79.670670 72.971344
v 72.601112 79.363441 72.952003
v 72.648666 79.728355 72.519287
v 72.415115 80.264175 69.982460
v 72.692581 80.261169 70.474396
v 72.551041 80.267441 72.349243
v 72.521385 80.939735 69.695808
v 72.612816 80.597977 70.031952
v 72.473549 80.775932 72.232185
v 72.338066 81.483635 69.035484
v 72.633743 81.436295 69.489601
v 72.402939 81.465538 72.003685
v 72.606445 81.135864 71.959366
v 72.691154 81.474823 71.525032
v 72.461029 82.144814 68.789635
v 72.584335 81.793236 69.059990
v 72.244141 81.969894 71.901680
v 72.570465 82.058037 71.469849
v 72.540474 82.649223 68.674850
v 72.529419 82.605446 71.312477
v 72.326668 83.265663 68.053314
v 72.638550 83.179741 68.484039
v 72.462914 83.116295 71.216179
v 72.461433 83.903404 67.789543
v 72.583466 83.553360 68.063271
v 72.402946 83.809532 71.003685
v 72.606537 83.479897 70.959572
v 72.694641 83.819839 70.525421
v 72.560661 84.401489 67.656639
v 72.243965 84.313812 70.901550
v 72.580635 84.407768 70.472099
v 72.331451 85.020096 67.051865
v 72.689972 84.915848 67.455872
v 72.551033 84.954758 70.326523
v 72.450882 85.653687 66.826340
v 72.603622 85.306923 67.059357
v 72.480438 85.457314 70.222847
v 72.473969 85.973518 66.863319
v 72.341125 86.100700 69.952950
v 72.622345 85.818916 69.952530
v 72.692749 86.170235 69.618073
v 72.584839 86.279350 67.122551
v 72.661690 86.585365 67.561501
v 72.577583 86.552750 69.277100
v 72.642250 86.788788 68.041283
v 72.581924 86.742737 68.914513
v 72.695641 52.284081 85.066940
v 72.794075 52.226784 86.001396
v 72.680809 52.248177 86.931450
v 72.972313 52.734577 85.013313
v 73.039131 52.717594 86.013329
v 72.790260 52.756638 86.932091
v 72.907631 53.389793 84.051514
v 73.219955 53.352188 84.515373
v 73.216377 53.061951 85.010094
v 73.197273 53.066086 85.987984
v 73.126999 53.371029 86.439445
v 72.881218 53.297928 86.918930
v 73.169617 53.992107 83.672440
v 73.216797 53.653316 84.030701
v 72.824867 53.858418 86.900200
v 73.156235 53.936241 86.462807
v 72.960732 54.494602 82.993065
v 73.302429 54.388329 83.330536
v 73.158531 54.499683 86.365021
v 73.204407 55.202232 81.560928
v 73.184959 54.990765 82.067406
v 73.296799 54.644836 82.952705
v 73.121521 55.074348 86.283684
v 73.238724 55.794655 80.686111
v 73.254677 55.457882 81.079155
v 73.055679 55.563217 86.192589
v 73.256744 56.170677 80.359589
v 72.922394 56.194420 85.930428
v 73.205795 55.929264 85.947441
v 73.275795 56.281887 85.614479
v 73.254379 56.943249 79.542671
v 73.252747 56.537045 79.989792
v 73.168678 56.675945 85.278122
v 73.072151 57.607620 78.847168
v 73.174309 57.291126 79.122116
v 73.190605 56.986786 84.902451
v 73.192757 57.288258 84.417358
v 73.111343 58.031330 78.736320
v 73.193451 57.581921 83.919197
v 73.185226 57.859150 83.414803
v 73.152969 58.606728 78.654663
v 72.954521 58.592762 82.000969
v 73.282761 58.354015 82.039932
v 73.315079 58.670517 81.659370
v 73.164627 58.084602 82.941414
v 72.832474 59.255024 78.097267
v 73.179924 59.162247 78.518776
v 73.210579 59.159790 81.379654
v 72.988625 59.760628 77.996895
v 73.293724 59.745529 78.471748
v 73.064331 59.671669 81.229385
v 73.038689 60.455704 77.799377
v 73.190468 60.090523 78.041313
v 72.912926 60.304672 80.947281
v 73.183853 60.021233 80.944405
v 73.236679 60.394970 80.521729
v 73.095268 60.963245 77.730011
v 73.137436 60.932934 80.338554
v 73.152527 61.537754 77.640869
v 73.093292 61.515282 80.255241
v 72.925957 62.143993 77.034103
v 73.248543 62.079140 77.474785
v 73.039780 62.019482 80.201210
v 73.043449 62.807468 76.801414
v 73.181679 62.451469 77.055054
v 72.988754 62.713417 80.003342
v 73.190781 62.383568 79.959137
v 73.293709 62.728458 79.528267
v 73.112259 63.303616 76.732941
v 72.829826 63.216183 79.898972
v 73.179390 63.311817 79.481094
v 73.171822 63.878201 76.630180
v 73.151085 63.868736 79.345253
v 72.917229 64.510406 76.052063
v 73.282936 64.399506 76.451385
v 73.116913 64.448654 79.272453
v 73.052422 65.150581 75.800224
v 73.193260 64.795570 76.055862
v 73.057968 64.945175 79.206116
v 73.116196 65.645737 75.735054
v 72.936882 65.605492 78.965996
v 73.217964 65.315979 78.959541
v 73.325912 65.714958 78.673271
v 73.188705 66.250999 75.672447
v 73.244690 66.210442 78.483963
v 73.241882 66.810501 75.517647
v 73.190163 66.771950 78.330688
v 72.935165 67.419746 75.038567
v 73.326698 67.305794 75.327759
v 73.126312 67.386658 78.280876
v 73.056274 68.078285 74.796181
v 73.218147 67.705841 75.040665
v 73.108963 67.965324 78.256317
v 73.115730 68.576027 74.735565
v 73.055695 68.455231 78.192581
v 73.181824 69.184746 74.687157
v 72.929649 69.100822 77.942345
v 73.214912 68.828606 77.953796
v 73.326447 69.235542 77.679222
v 73.231781 69.751320 74.573685
v 73.254852 69.731552 77.515594
v 73.268440 70.293747 74.392769
v 73.228432 70.308083 77.404099
v 73.073700 71.081421 73.843872
v 73.191864 70.727394 74.101372
v 73.174438 70.862228 77.295631
v 73.112801 71.509193 73.748512
v 73.064606 71.389809 77.212242
v 73.180626 72.114510 73.691223
v 72.935120 72.048256 76.961884
v 73.221588 71.763611 76.962967
v 73.332024 72.167664 76.684296
v 73.227829 72.677460 73.595642
v 73.260811 72.667435 76.535133
v 73.250938 73.248245 73.485008
v 73.241180 73.246857 76.445671
v 72.930275 73.882118 73.056129
v 73.330399 73.744354 73.323715
v 73.224571 73.823631 76.386627
v 73.054367 74.529854 72.804710
v 73.215271 74.155121 73.046417
v 73.172127 74.372017 76.282303
v 73.120224 75.023750 72.710548
v 73.081764 74.834106 76.167221
v 73.178810 75.595390 72.619453
v 73.190086 75.180550 75.894997
v 73.249557 75.601395 75.570061
v 72.927803 76.206299 72.032463
v 73.262733 76.137657 72.472046
v 73.183159 76.131958 75.320610
v 73.049576 76.868996 71.777740
v 73.172523 76.517311 72.058937
v 73.072128 76.589378 75.169746
v 73.107231 77.365570 71.682686
v 73.156975 76.901237 74.884239
v 73.141830 77.254570 74.412415
v 72.830681 78.016022 71.120972
v 73.073982 77.876129 71.568634
v 72.919975 77.901085 73.967491
v 73.190796 77.605080 73.970444
v 73.183823 77.898666 73.477257
v 72.798393 78.525444 71.067818
v 73.189796 78.198303 72.013451
v 73.075928 78.565765 71.984306
v 72.983643 78.537231 72.997429
v 73.179245 78.184067 72.987091
v 72.789253 79.111725 71.054955
v 72.935730 79.104271 71.995941
v 72.755127 79.038948 72.928017
v 72.795204 79.698814 71.038292
v 72.827278 79.668228 71.982506
v 72.817558 80.305794 71.016502
v 72.755348 80.265495 71.945343
v 72.709290 80.943008 70.081512
v 72.839882 80.867943 71.000092
v 72.686844 80.793152 71.905449
v 72.798080 81.487343 70.021584
v 72.823639 81.430550 70.982864
v 72.687233 82.116570 69.094719
v 72.869499 82.046707 70.004814
v 72.795868 82.035660 70.959190
v 72.763412 82.642723 69.058212
v 72.883652 82.625938 70.000168
v 72.756630 82.611618 70.936752
v 72.837143 83.239304 69.019142
v 72.883514 83.206848 69.995491
v 72.695137 83.138878 70.908112
v 72.707466 83.872826 68.088707
v 72.934952 83.803543 69.004211
v 72.858017 83.775795 69.985283
v 72.845131 84.398674 68.041878
v 73.063538 84.351112 69.000481
v 72.857544 84.382050 69.968445
v 73.035019 84.926392 67.976791
v 73.201195 84.988914 68.510246
v 73.176796 84.727242 68.998489
v 73.111069 85.016106 69.437439
v 72.893280 84.935936 69.932076
v 72.781273 85.612869 67.120583
v 73.078979 85.615074 67.593864
v 73.201546 85.283356 68.018120
v 72.817993 85.500214 69.897507
v 73.108803 85.564926 69.440216
v 72.778931 86.068527 67.138435
v 73.077118 86.145683 67.577324
v 73.075005 86.058228 69.277489
v 73.063828 86.542747 67.780655
v 72.891602 86.622078 68.937531
v 73.151726 86.372261 68.940971
v 73.136322 86.613121 68.466103
v 73.104454 86.682739 68.034386
v 73.470573 53.404190 85.032143
v 73.334801 53.403015 85.950676
v 73.505440 53.950439 84.030159
v 73.746742 53.968365 84.527275
v 73.698708 53.722767 84.993935
v 73.698441 53.965534 85.438194
v 73.480843 53.897976 85.943344
v 73.736168 54.579651 83.574249
v 73.763443 54.251804 84.033424
v 73.495445 54.495045 85.966278
v 73.772598 54.502926 85.469963
v 73.504005 55.149593 82.026344
v 73.761887 55.150608 82.527679
v 73.747841 54.912430 83.048973
v 73.472885 55.076660 85.945084
v 73.780746 55.082287 85.471863
v 73.660706 55.867538 80.804230
v 73.696213 55.656624 81.089211
v 73.772247 55.407627 81.996796
v 73.409126 55.617722 85.902687
v 73.719482 55.675415 85.452332
v 73.751534 56.296986 80.557106
v 73.665543 56.173149 85.280548
v 73.660446 57.004684 79.773575
v 73.741028 56.693451 80.115433
v 73.486214 56.772152 84.945618
v 73.747299 56.493702 84.944870
v 73.766846 56.796886 84.472610
v 73.386909 57.504704 79.121590
v 73.697456 57.427994 79.560341
v 73.496979 57.369942 83.967041
v 73.773254 57.093533 83.975883
v 73.763245 57.376919 83.473320
v 73.470795 58.022079 79.056709
v 73.777779 58.015923 79.529373
v 73.580040 58.051754 82.016502
v 73.820061 57.719326 81.999687
v 73.827469 58.042046 81.522255
v 73.457153 57.905186 82.967812
v 73.726952 57.634129 82.976448
v 73.495270 58.604420 79.034477
v 73.772636 58.595116 79.529991
v 73.695061 58.528721 81.306160
v 73.519669 59.213867 79.034782
v 73.718391 59.143070 79.553970
v 73.578079 59.203583 80.990402
v 73.766052 58.861786 80.965240
v 73.772400 59.159801 80.485222
v 73.472740 59.797352 79.012672
v 73.751724 59.422913 80.002914
v 73.632965 59.795555 79.996162
v 73.346825 59.699841 80.926338
v 73.280609 60.430424 78.093155
v 73.486015 60.362381 79.003883
v 73.465103 60.334015 79.981697
v 73.328934 60.957455 78.071457
v 73.484619 60.944942 78.999718
v 73.380028 60.936878 79.948242
v 73.384430 61.536392 78.049690
v 73.484612 61.529060 79.000282
v 73.329132 61.516823 79.928421
v 73.465797 62.139446 78.018311
v 73.486015 62.111622 78.996117
v 73.281052 62.043671 79.907265
v 73.318108 62.776573 77.086533
v 73.626961 62.680302 78.005272
v 73.472633 62.676651 78.987328
v 73.465164 63.284492 77.076500
v 73.696365 63.337288 77.566040
v 73.735115 63.055222 78.001770
v 73.709663 63.332355 78.443932
v 73.520401 63.259838 78.965401
v 73.522865 63.879143 77.013222
v 73.775177 63.881340 77.523338
v 73.492813 63.869709 78.964394
v 73.755257 63.879330 78.466385
v 73.639503 64.419167 76.943886
v 73.850868 64.440285 77.474075
v 73.470016 64.452675 78.943321
v 73.766045 64.460175 78.468384
v 73.390877 65.106697 76.102089
v 73.688408 65.102669 76.581467
v 73.807793 64.766983 77.016266
v 73.412888 64.994759 78.904671
v 73.728378 65.063980 78.460106
v 73.491035 65.644043 76.041405
v 73.786232 65.640900 76.523788
v 73.707718 65.618286 78.334190
v 73.591942 66.194450 75.982147
v 73.863274 66.196815 76.473412
v 73.642525 66.125511 78.229141
v 73.640175 66.898239 75.769249
v 73.781830 66.534172 76.038414
v 73.594429 66.828842 78.020065
v 73.781815 66.487816 77.961555
v 73.866470 66.826141 77.527740
v 73.708214 67.406189 75.668900
v 73.513069 67.385796 77.975334
v 73.818726 67.388763 77.492088
v 73.415390 68.027077 75.093178
v 73.738976 67.958183 75.534676
v 73.475723 67.968872 77.947083
v 73.788811 67.974442 77.476181
v 73.496254 68.572350 75.037704
v 73.805817 68.564621 75.514549
v 73.412766 68.510857 77.904602
v 73.738289 68.581207 77.465370
v 73.591721 69.124512 74.982437
v 73.875824 69.125114 75.469887
v 73.718246 69.145493 77.345673
v 73.633781 69.829926 74.784386
v 73.782372 69.463966 75.037697
v 73.684494 69.720718 77.265816
v 73.698196 70.341194 74.691544
v 73.625801 70.223404 77.201195
v 73.397438 70.976173 74.112923
v 73.724968 70.887047 74.541252
v 73.576820 70.919205 77.005058
v 73.778908 70.587944 76.959618
v 73.865372 70.926971 76.525818
v 73.494164 71.503502 74.039238
v 73.804581 71.494743 74.515091
v 73.434875 71.441772 76.922867
v 73.756836 71.510201 76.476868
v 73.591743 72.054497 73.982468
v 73.875832 72.055107 74.469887
v 73.722054 72.076630 76.349281
v 73.624626 72.761307 73.799255
v 73.782166 72.394020 74.037941
v 73.694054 72.661255 76.277679
v 73.679367 73.269211 73.731964
v 73.670235 73.237518 76.239830
v 73.723083 73.843643 73.656525
v 73.625755 73.739555 76.201233
v 73.412437 74.473259 73.095901
v 73.737976 74.402924 73.534988
v 73.574936 74.433525 76.003662
v 73.778908 74.103943 75.959625
v 73.862000 74.441666 75.524467
v 73.472351 75.015465 73.054962
v 73.782417 75.008904 73.526985
v 73.413048 74.936295 75.900154
v 73.726685 75.010208 75.457756
v 73.502945 75.601036 73.024803
v 73.770836 75.588745 73.530930
v 73.663895 75.505249 75.270241
v 73.527977 76.231224 73.009338
v 73.722763 76.138077 73.552635
v 73.570602 76.193039 74.983635
v 73.763847 75.854660 74.961555
v 73.771568 76.152908 74.484909
v 73.272415 76.840149 72.100822
v 73.500404 76.767784 73.014664
v 73.743431 76.412613 74.003761
v 73.606026 76.769882 73.987671
v 73.319450 76.669670 74.910736
v 73.308899 77.353767 72.068192
v 73.430397 77.334442 72.994781
v 73.355995 77.269447 73.946213
v 73.271057 77.851326 72.053024
v 73.306717 77.840988 72.972244
v 73.254082 85.072701 68.984894
v 73.275520 85.629257 68.074249
v 73.293297 85.559669 68.954979
v 73.282471 86.134895 68.046692
v 73.258545 86.060936 68.913963
v 73.204163 86.582817 68.034988
v 73.829506 54.023449 84.986099
v 73.889633 54.589882 84.053459
v 73.925819 54.513805 84.965263
v 73.892029 55.179752 83.055649
v 74.018600 55.100731 84.006462
v 73.960167 55.083797 84.958694
v 73.818817 55.800644 81.074699
v 73.932335 55.738094 82.022751
v 74.034767 55.685062 83.007843
v 74.052383 55.669647 83.995941
v 73.945068 55.658173 84.951035
v 73.950127 56.299538 81.030571
v 74.042526 56.265324 82.004143
v 74.065849 56.256084 83.000076
v 74.034157 56.241592 83.990257
v 73.870064 56.178253 84.915657
v 73.850151 56.933537 80.100365
v 74.035095 56.849220 81.010262
v 74.042053 56.832802 81.998642
v 74.030731 56.826862 82.991844
v 73.916077 56.761734 83.951134
v 73.932739 57.441704 80.051254
v 74.036629 57.421467 80.996681
v 73.950562 57.367172 81.975471
v 73.892677 57.329193 82.969307
v 73.953644 58.013493 80.038429
v 73.966469 57.978142 80.979744
v 73.918983 58.583801 80.034477
v 73.871094 58.521297 80.923126
v 73.848648 59.083778 80.014252
v 73.803963 63.381470 78.000893
v 73.853676 63.883579 77.998589
v 73.900742 64.485954 77.985901
v 73.879997 65.116257 77.071930
v 73.918633 65.051102 77.960289
v 73.935638 65.643272 77.039078
v 73.903717 65.617104 77.938065
v 73.968925 66.240082 77.012917
v 73.854088 66.143677 77.907433
v 73.855194 66.878059 76.092056
v 73.973770 66.782745 76.987152
v 73.915550 67.405113 76.060066
v 73.966454 67.389359 76.965836
v 73.949471 67.978699 76.042770
v 73.969009 67.975929 76.963882
v 73.979614 68.563217 76.033348
v 73.954865 68.560455 76.957977
v 74.006210 69.170891 76.014389
v 73.940544 69.144966 76.944458
v 73.866287 69.807373 75.092331
v 74.034485 69.739212 76.004761
v 73.909241 69.720261 76.927299
v 73.922806 70.334702 75.064507
v 74.034470 70.314789 75.995232
v 73.866615 70.246986 76.907700
v 73.953033 70.908318 75.042877
v 74.006020 70.882843 75.985016
v 73.978607 71.493271 75.033401
v 73.963593 71.489052 75.961891
v 74.006851 72.100800 75.014236
v 73.944466 72.076042 75.945404
v 73.867004 72.736900 74.092247
v 74.049240 72.669281 75.004028
v 73.928474 72.662178 75.931488
v 73.915756 73.263512 74.071617
v 74.056763 73.250000 74.999992
v 73.915848 73.236816 75.928169
v 73.946404 73.839348 74.057495
v 74.049187 73.830704 74.995956
v 73.867432 73.763153 75.908165
v 73.959991 74.423119 74.041786
v 74.001526 74.397820 74.984810
v 73.954903 75.006691 74.037682
v 73.936615 74.994385 74.956879
v 73.920303 75.577873 74.034546
v 73.860794 75.515877 74.917015
v 73.847786 76.077576 74.014626
# 1486 vertices, 0 vertices normals

f 3 2 1
f 5 4 1
f 1 4 3
f 7 6 5
f 5 6 4
f 7 8 6
f 1 2 9
f 9 2 10
f 1 11 5
f 1 9 11
f 5 12 7
f 5 11 12
f 8 7 13
f 13 7 12
f 10 14 9
f 16 15 14
f 15 9 14
f 15 11 9
f 18 12 17
f 12 15 17
f 12 11 15
f 12 18 13
f 16 19 15
f 15 19 17
f 21 20 3
f 3 20 2
f 22 3 4
f 22 21 3
f 23 4 6
f 23 22 4
f 6 8 23
f 23 8 24
f 20 10 2
f 25 10 20
f 13 24 8
f 13 26 24
f 14 10 27
f 10 28 27
f 10 25 28
f 27 16 14
f 17 29 18
f 29 30 18
f 30 13 18
f 30 26 13
f 27 28 31
f 31 28 32
f 33 19 16
f 27 33 16
f 31 33 27
f 29 17 19
f 33 29 19
f 34 29 33
f 30 29 35
f 35 29 34
f 31 32 36
f 36 32 37
f 31 38 33
f 31 36 38
f 40 34 39
f 34 38 39
f 34 33 38
f 34 40 35
f 37 41 36
f 36 41 38
f 38 41 42
f 38 42 39
f 45 44 43
f 47 46 43
f 43 46 45
f 47 48 46
f 43 44 49
f 49 44 50
f 52 47 51
f 47 49 51
f 47 43 49
f 47 52 48
f 49 50 53
f 53 50 54
f 51 49 55
f 49 56 55
f 49 53 56
f 56 57 55
f 53 54 58
f 58 54 59
f 61 56 60
f 56 58 60
f 56 53 58
f 56 61 57
f 58 59 62
f 62 59 63
f 60 58 64
f 64 58 62
f 63 65 62
f 62 65 64
f 67 66 21
f 21 66 20
f 68 21 22
f 68 67 21
f 69 22 23
f 69 68 22
f 23 24 69
f 69 24 70
f 66 25 20
f 71 25 66
f 26 70 24
f 26 72 70
f 75 74 73
f 71 75 73
f 28 71 73
f 25 71 28
f 30 72 26
f 30 76 72
f 73 74 77
f 77 74 78
f 77 32 28
f 77 28 73
f 35 76 30
f 35 79 76
f 77 78 80
f 80 78 81
f 80 37 32
f 80 32 77
f 83 82 40
f 83 40 39
f 35 40 79
f 79 40 82
f 80 81 84
f 84 81 85
f 86 41 37
f 80 86 37
f 84 86 80
f 87 42 41
f 87 41 86
f 87 88 42
f 88 39 42
f 88 83 39
f 84 85 89
f 89 85 90
f 84 91 86
f 84 89 91
f 93 87 92
f 87 91 92
f 87 86 91
f 87 93 88
f 90 94 89
f 89 94 91
f 91 94 95
f 91 95 92
f 98 97 96
f 100 99 96
f 96 99 98
f 100 101 99
f 96 97 102
f 102 97 103
f 96 104 100
f 96 102 104
f 101 100 105
f 105 100 104
f 108 107 106
f 108 106 103
f 106 102 103
f 106 109 102
f 102 110 104
f 102 109 110
f 105 104 111
f 111 104 110
f 106 107 45
f 107 44 45
f 107 112 44
f 106 45 46
f 106 46 109
f 109 46 48
f 113 109 48
f 110 109 113
f 111 110 114
f 114 110 113
f 117 116 115
f 112 117 115
f 50 112 115
f 44 112 50
f 51 118 52
f 113 48 52
f 118 113 52
f 119 113 118
f 114 113 120
f 120 113 119
f 115 116 121
f 121 116 122
f 121 54 50
f 121 50 115
f 55 118 51
f 119 118 123
f 118 57 123
f 57 124 123
f 57 118 55
f 119 123 120
f 121 122 125
f 125 122 126
f 125 59 54
f 125 54 121
f 60 127 61
f 127 128 61
f 128 57 61
f 128 124 57
f 125 126 129
f 129 126 130
f 129 63 59
f 129 59 125
f 64 131 127
f 64 127 60
f 128 127 132
f 132 127 131
f 135 134 133
f 135 133 130
f 133 129 130
f 133 136 129
f 137 65 63
f 129 137 63
f 136 137 129
f 137 138 65
f 65 138 64
f 138 139 64
f 139 131 64
f 131 139 132
f 133 134 140
f 140 134 141
f 133 142 136
f 133 140 142
f 136 143 137
f 136 142 143
f 138 137 144
f 144 137 143
f 140 141 145
f 145 141 146
f 140 147 142
f 140 145 147
f 142 148 143
f 142 147 148
f 144 143 149
f 149 143 148
f 145 146 150
f 150 146 151
f 145 152 147
f 145 150 152
f 154 148 153
f 148 152 153
f 148 147 152
f 148 154 149
f 157 156 155
f 157 155 151
f 155 150 151
f 155 158 150
f 150 159 152
f 150 158 159
f 153 152 160
f 160 152 159
f 155 156 161
f 161 156 162
f 155 163 158
f 155 161 163
f 158 164 159
f 158 163 164
f 160 159 165
f 165 159 164
f 161 162 166
f 166 162 167
f 161 168 163
f 161 166 168
f 170 164 169
f 164 168 169
f 164 163 168
f 164 170 165
f 166 167 171
f 171 167 172
f 166 173 168
f 166 171 173
f 169 168 174
f 174 168 173
f 171 172 175
f 175 172 176
f 171 177 173
f 171 175 177
f 174 173 178
f 178 173 177
f 176 179 175
f 175 179 177
f 177 179 180
f 177 180 178
f 183 182 181
f 185 184 181
f 181 184 183
f 187 186 185
f 185 186 184
f 187 188 186
f 181 182 67
f 182 66 67
f 182 189 66
f 181 67 68
f 181 68 185
f 185 68 69
f 185 69 187
f 69 70 187
f 70 188 187
f 70 190 188
f 189 71 66
f 191 71 189
f 72 190 70
f 72 192 190
f 194 193 75
f 75 193 74
f 75 71 191
f 75 191 194
f 76 192 72
f 76 195 192
f 193 78 74
f 196 78 193
f 79 195 76
f 79 197 195
f 196 81 78
f 198 81 196
f 83 199 82
f 199 200 82
f 200 79 82
f 200 197 79
f 198 85 81
f 201 85 198
f 203 202 199
f 83 203 199
f 88 203 83
f 199 202 200
f 201 90 85
f 204 90 201
f 92 205 93
f 205 206 93
f 206 88 93
f 206 203 88
f 209 208 207
f 207 210 94
f 204 207 94
f 90 204 94
f 207 204 209
f 211 95 94
f 211 94 210
f 211 212 95
f 95 212 92
f 212 213 92
f 213 205 92
f 205 213 206
f 208 214 207
f 216 215 214
f 215 207 214
f 215 210 207
f 210 217 211
f 210 215 217
f 212 211 218
f 218 211 217
f 216 219 215
f 215 219 217
f 217 219 220
f 217 220 218
f 223 222 221
f 225 224 221
f 221 224 223
f 225 226 224
f 221 222 227
f 227 222 228
f 221 229 225
f 221 227 229
f 226 225 230
f 230 225 229
f 233 232 231
f 233 231 228
f 231 227 228
f 231 234 227
f 227 235 229
f 227 234 235
f 230 229 236
f 236 229 235
f 231 232 237
f 237 232 238
f 231 239 234
f 231 237 239
f 241 235 240
f 235 239 240
f 235 234 239
f 235 241 236
f 237 238 242
f 242 238 243
f 237 244 239
f 237 242 244
f 240 239 245
f 245 239 244
f 248 247 246
f 248 246 243
f 246 242 243
f 246 249 242
f 242 250 244
f 242 249 250
f 245 244 251
f 251 244 250
f 246 247 252
f 252 247 253
f 246 254 249
f 246 252 254
f 249 255 250
f 249 254 255
f 251 250 256
f 256 250 255
f 252 253 257
f 257 253 258
f 252 259 254
f 252 257 259
f 254 260 255
f 254 259 260
f 256 255 261
f 261 255 260
f 257 258 262
f 262 258 263
f 257 264 259
f 257 262 264
f 266 260 265
f 260 264 265
f 260 259 264
f 260 266 261
f 262 263 267
f 267 263 268
f 262 269 264
f 262 267 269
f 265 264 270
f 270 264 269
f 267 268 271
f 271 268 272
f 267 273 269
f 267 271 273
f 270 269 274
f 274 269 273
f 277 276 275
f 277 275 272
f 275 271 272
f 275 278 271
f 271 279 273
f 271 278 279
f 274 273 280
f 280 273 279
f 275 276 281
f 281 276 282
f 275 283 278
f 275 281 283
f 285 279 284
f 279 283 284
f 279 278 283
f 279 285 280
f 281 282 286
f 286 282 287
f 281 288 283
f 281 286 288
f 284 283 289
f 289 283 288
f 286 287 290
f 290 287 291
f 286 292 288
f 286 290 292
f 289 288 293
f 293 288 292
f 290 291 294
f 294 291 295
f 290 296 292
f 290 294 296
f 293 292 297
f 297 292 296
f 294 295 298
f 298 295 299
f 301 296 300
f 296 298 300
f 296 294 298
f 296 301 297
f 304 303 302
f 304 302 299
f 302 298 299
f 302 305 298
f 300 298 306
f 306 298 305
f 302 303 307
f 307 303 308
f 302 309 305
f 302 307 309
f 306 305 310
f 310 305 309
f 307 308 311
f 311 308 312
f 307 313 309
f 307 311 313
f 310 309 314
f 314 309 313
f 311 312 315
f 315 312 316
f 318 313 317
f 313 315 317
f 313 311 315
f 313 318 314
f 315 316 319
f 319 316 320
f 317 315 321
f 321 315 319
f 319 320 322
f 322 320 323
f 321 319 324
f 324 319 322
f 323 325 322
f 322 325 324
f 328 327 326
f 326 329 328
f 332 331 330
f 332 330 327
f 330 326 327
f 330 333 326
f 329 326 334
f 334 326 333
f 330 331 335
f 335 331 336
f 330 337 333
f 330 335 337
f 334 333 338
f 338 333 337
f 341 340 339
f 341 339 336
f 339 335 336
f 339 342 335
f 335 343 337
f 335 342 343
f 338 337 344
f 344 337 343
f 339 340 98
f 340 97 98
f 340 345 97
f 339 98 99
f 339 99 342
f 342 99 101
f 346 342 101
f 343 342 346
f 344 343 347
f 347 343 346
f 350 349 348
f 345 350 348
f 103 345 348
f 97 345 103
f 105 351 346
f 105 346 101
f 347 346 352
f 352 346 351
f 348 349 108
f 349 107 108
f 349 353 107
f 348 108 103
f 111 354 351
f 111 351 105
f 352 351 355
f 355 351 354
f 358 357 356
f 353 358 356
f 112 353 356
f 107 353 112
f 360 359 354
f 111 360 354
f 114 360 111
f 354 359 355
f 356 357 117
f 357 116 117
f 357 361 116
f 356 117 112
f 120 360 114
f 120 362 360
f 361 122 116
f 363 122 361
f 124 364 123
f 364 365 123
f 365 120 123
f 365 362 120
f 363 126 122
f 366 126 363
f 368 367 364
f 124 368 364
f 128 368 124
f 364 367 365
f 371 370 369
f 366 371 369
f 130 366 369
f 126 366 130
f 132 368 128
f 132 372 368
f 369 370 135
f 370 134 135
f 370 373 134
f 369 135 130
f 138 374 139
f 374 375 139
f 375 132 139
f 375 372 132
f 373 141 134
f 376 141 373
f 378 377 374
f 138 378 374
f 144 378 138
f 374 377 375
f 381 380 379
f 376 381 379
f 146 376 379
f 141 376 146
f 149 378 144
f 149 382 378
f 379 380 383
f 383 380 384
f 383 151 146
f 383 146 379
f 153 385 154
f 385 386 154
f 386 149 154
f 386 382 149
f 383 384 157
f 384 156 157
f 384 387 156
f 383 157 151
f 160 388 385
f 160 385 153
f 386 385 389
f 389 385 388
f 387 162 156
f 390 162 387
f 392 391 388
f 160 392 388
f 165 392 160
f 388 391 389
f 395 394 393
f 390 395 393
f 167 390 393
f 162 390 167
f 169 396 170
f 396 397 170
f 397 165 170
f 397 392 165
f 393 394 398
f 398 394 399
f 398 172 167
f 398 167 393
f 174 400 396
f 174 396 169
f 397 396 401
f 401 396 400
f 398 399 402
f 402 399 403
f 402 176 172
f 402 172 398
f 405 404 400
f 174 405 400
f 178 405 174
f 400 404 401
f 403 406 402
f 402 406 176
f 406 179 176
f 406 407 179
f 179 408 180
f 407 408 179
f 178 180 405
f 405 180 408
f 410 409 183
f 183 409 182
f 411 183 184
f 411 410 183
f 412 184 186
f 412 411 184
f 186 188 412
f 412 188 413
f 409 189 182
f 414 189 409
f 190 413 188
f 190 415 413
f 414 191 189
f 416 191 414
f 192 415 190
f 192 417 415
f 419 418 194
f 194 418 193
f 194 191 416
f 194 416 419
f 195 417 192
f 195 420 417
f 418 196 193
f 421 196 418
f 197 420 195
f 197 422 420
f 421 198 196
f 423 198 421
f 200 422 197
f 200 424 422
f 427 426 425
f 423 427 425
f 201 423 425
f 198 423 201
f 429 428 202
f 429 202 203
f 200 202 424
f 424 202 428
f 425 426 430
f 430 426 431
f 430 204 201
f 430 201 425
f 206 429 203
f 206 432 429
f 430 431 209
f 431 208 209
f 431 433 208
f 430 209 204
f 212 434 213
f 434 435 213
f 435 206 213
f 435 432 206
f 438 437 436
f 436 439 214
f 433 436 214
f 208 433 214
f 436 433 438
f 439 216 214
f 441 440 434
f 212 441 434
f 218 441 212
f 434 440 435
f 444 443 442
f 446 445 442
f 442 445 444
f 445 446 437
f 446 436 437
f 446 447 436
f 436 448 439
f 436 447 448
f 449 219 216
f 439 449 216
f 448 449 439
f 219 449 450
f 451 219 450
f 220 219 451
f 218 220 441
f 441 220 451
f 454 453 452
f 454 452 443
f 452 442 443
f 452 455 442
f 442 456 446
f 442 455 456
f 446 457 447
f 446 456 457
f 447 458 448
f 447 457 458
f 448 459 449
f 448 458 459
f 450 449 460
f 460 449 459
f 452 453 461
f 461 453 462
f 452 463 455
f 452 461 463
f 455 464 456
f 455 463 464
f 456 465 457
f 456 464 465
f 457 466 458
f 457 465 466
f 468 459 467
f 459 466 467
f 459 458 466
f 459 468 460
f 461 462 223
f 462 222 223
f 462 469 222
f 461 223 224
f 461 224 463
f 463 224 226
f 470 463 226
f 464 463 470
f 464 471 465
f 464 470 471
f 473 466 472
f 466 471 472
f 466 465 471
f 466 473 467
f 476 475 474
f 469 476 474
f 228 469 474
f 222 469 228
f 478 477 470
f 226 478 470
f 230 478 226
f 470 477 471
f 471 477 479
f 471 479 472
f 474 475 233
f 475 232 233
f 475 480 232
f 474 233 228
f 236 478 230
f 236 481 478
f 484 483 482
f 480 484 482
f 238 480 482
f 232 480 238
f 240 485 241
f 485 486 241
f 486 236 241
f 486 481 236
f 482 483 487
f 487 483 488
f 487 243 238
f 487 238 482
f 245 489 485
f 245 485 240
f 486 485 490
f 490 485 489
f 487 488 248
f 488 247 248
f 488 491 247
f 487 248 243
f 251 492 489
f 251 489 245
f 490 489 493
f 493 489 492
f 491 253 247
f 494 253 491
f 496 495 492
f 251 496 492
f 256 496 251
f 492 495 493
f 494 258 253
f 497 258 494
f 261 496 256
f 261 498 496
f 501 500 499
f 497 501 499
f 263 497 499
f 258 497 263
f 265 502 266
f 502 503 266
f 503 261 266
f 503 498 261
f 499 500 504
f 504 500 505
f 504 268 263
f 504 263 499
f 270 506 502
f 270 502 265
f 503 502 507
f 507 502 506
f 504 505 508
f 508 505 509
f 508 272 268
f 508 268 504
f 511 510 506
f 270 511 506
f 274 511 270
f 506 510 507
f 508 509 277
f 509 276 277
f 509 512 276
f 508 277 272
f 280 511 274
f 280 513 511
f 512 282 276
f 514 282 512
f 284 515 285
f 515 516 285
f 516 280 285
f 516 513 280
f 519 518 517
f 514 519 517
f 287 514 517
f 282 514 287
f 289 520 515
f 289 515 284
f 516 515 521
f 521 515 520
f 517 518 522
f 522 518 523
f 522 291 287
f 522 287 517
f 293 524 520
f 293 520 289
f 521 520 525
f 525 520 524
f 522 523 526
f 526 523 527
f 526 295 291
f 526 291 522
f 529 528 524
f 293 529 524
f 297 529 293
f 524 528 525
f 526 527 530
f 530 527 531
f 530 299 295
f 530 295 526
f 300 532 301
f 532 533 301
f 533 297 301
f 533 529 297
f 530 531 304
f 531 303 304
f 531 534 303
f 530 304 299
f 306 535 532
f 306 532 300
f 533 532 536
f 536 532 535
f 539 538 537
f 534 539 537
f 308 534 537
f 303 534 308
f 310 540 535
f 310 535 306
f 536 535 541
f 541 535 540
f 537 538 542
f 542 538 543
f 542 312 308
f 542 308 537
f 545 544 540
f 310 545 540
f 314 545 310
f 540 544 541
f 542 543 546
f 546 543 547
f 546 316 312
f 546 312 542
f 317 548 318
f 548 549 318
f 549 314 318
f 549 545 314
f 546 547 550
f 550 547 551
f 550 320 316
f 550 316 546
f 321 552 548
f 321 548 317
f 549 548 553
f 553 548 552
f 550 551 554
f 554 551 555
f 554 323 320
f 554 320 550
f 324 556 552
f 324 552 321
f 553 552 557
f 557 552 556
f 554 555 558
f 558 555 559
f 560 325 323
f 554 560 323
f 558 560 554
f 556 324 325
f 560 556 325
f 561 556 560
f 557 556 562
f 562 556 561
f 558 559 563
f 563 559 564
f 558 565 560
f 558 563 565
f 567 561 566
f 561 565 566
f 561 560 565
f 561 567 562
f 570 569 568
f 570 568 564
f 568 563 564
f 568 571 563
f 563 572 565
f 563 571 572
f 566 565 573
f 573 565 572
f 568 569 574
f 574 569 575
f 568 576 571
f 568 574 576
f 571 577 572
f 571 576 577
f 573 572 578
f 578 572 577
f 574 575 579
f 579 575 580
f 574 581 576
f 574 579 581
f 576 582 577
f 576 581 582
f 578 577 583
f 583 577 582
f 579 580 584
f 584 580 585
f 579 586 581
f 579 584 586
f 581 587 582
f 581 586 587
f 583 582 588
f 588 582 587
f 591 590 589
f 591 589 585
f 589 584 585
f 589 592 584
f 584 593 586
f 584 592 593
f 595 587 594
f 587 593 594
f 587 586 593
f 587 595 588
f 589 590 596
f 596 590 597
f 596 327 328
f 592 596 328
f 589 596 592
f 592 328 329
f 598 592 329
f 593 592 598
f 594 593 599
f 599 593 598
f 596 597 332
f 597 331 332
f 597 600 331
f 596 332 327
f 334 601 598
f 334 598 329
f 599 598 602
f 602 598 601
f 605 604 603
f 600 605 603
f 336 600 603
f 331 600 336
f 338 606 601
f 338 601 334
f 602 601 607
f 607 601 606
f 603 604 341
f 604 340 341
f 604 608 340
f 603 341 336
f 344 609 606
f 344 606 338
f 607 606 610
f 610 606 609
f 613 612 611
f 608 613 611
f 345 608 611
f 340 608 345
f 615 614 609
f 344 615 609
f 347 615 344
f 609 614 610
f 611 612 350
f 612 349 350
f 612 616 349
f 611 350 345
f 352 615 347
f 352 617 615
f 616 353 349
f 618 353 616
f 355 617 352
f 355 619 617
f 621 620 358
f 358 620 357
f 358 353 618
f 358 618 621
f 623 622 359
f 623 359 360
f 355 359 619
f 619 359 622
f 620 361 357
f 624 361 620
f 362 623 360
f 362 625 623
f 624 363 361
f 626 363 624
f 365 625 362
f 365 627 625
f 630 629 628
f 626 630 628
f 366 626 628
f 363 626 366
f 632 631 367
f 632 367 368
f 365 367 627
f 627 367 631
f 628 629 371
f 629 370 371
f 629 633 370
f 628 371 366
f 372 632 368
f 372 634 632
f 633 373 370
f 635 373 633
f 375 634 372
f 375 636 634
f 635 376 373
f 637 376 635
f 639 638 377
f 639 377 378
f 375 377 636
f 636 377 638
f 641 640 381
f 381 640 380
f 381 376 637
f 381 637 641
f 382 639 378
f 382 642 639
f 640 384 380
f 643 384 640
f 386 642 382
f 386 644 642
f 643 387 384
f 645 387 643
f 389 644 386
f 389 646 644
f 649 648 647
f 645 649 647
f 390 645 647
f 387 645 390
f 651 650 391
f 651 391 392
f 389 391 646
f 646 391 650
f 647 648 395
f 648 394 395
f 648 652 394
f 647 395 390
f 397 651 392
f 397 653 651
f 652 399 394
f 654 399 652
f 401 653 397
f 401 655 653
f 657 403 656
f 403 654 656
f 403 399 654
f 658 657 656
f 660 659 404
f 660 404 405
f 401 404 655
f 655 404 659
f 657 406 403
f 658 661 657
f 661 406 657
f 661 407 406
f 407 662 408
f 661 662 407
f 405 408 660
f 660 408 662
f 663 409 410
f 411 664 410
f 410 664 663
f 412 665 411
f 411 665 664
f 413 665 412
f 666 414 663
f 663 414 409
f 664 668 667
f 666 664 667
f 663 664 666
f 670 669 668
f 664 670 668
f 665 670 664
f 415 670 413
f 413 670 665
f 672 671 666
f 671 414 666
f 671 416 414
f 672 666 667
f 669 670 673
f 669 673 674
f 417 673 415
f 415 673 670
f 675 418 419
f 676 675 419
f 416 676 419
f 671 676 416
f 674 673 677
f 674 677 678
f 420 677 417
f 417 677 673
f 680 679 675
f 679 418 675
f 679 421 418
f 680 675 676
f 678 677 681
f 678 681 682
f 422 681 420
f 420 681 677
f 679 423 421
f 683 423 679
f 682 681 684
f 682 684 685
f 424 684 422
f 422 684 681
f 687 686 427
f 427 686 426
f 427 423 683
f 427 683 687
f 685 684 428
f 429 685 428
f 688 685 429
f 428 684 424
f 686 431 426
f 689 431 686
f 432 688 429
f 432 690 688
f 689 433 431
f 691 433 689
f 435 690 432
f 435 692 690
f 695 694 693
f 437 438 693
f 438 695 693
f 438 696 695
f 438 433 691
f 438 691 696
f 698 697 440
f 698 440 441
f 435 440 692
f 692 440 697
f 700 699 444
f 444 699 443
f 445 693 694
f 700 445 694
f 444 445 700
f 693 445 437
f 450 701 451
f 701 702 451
f 702 441 451
f 702 698 441
f 704 703 454
f 454 703 453
f 454 443 699
f 454 699 704
f 706 705 701
f 450 706 701
f 460 706 450
f 701 705 702
f 703 462 453
f 707 462 703
f 467 708 468
f 708 709 468
f 709 460 468
f 709 706 460
f 712 711 710
f 707 712 710
f 469 707 710
f 462 707 469
f 472 713 473
f 713 714 473
f 473 714 467
f 714 715 467
f 715 708 467
f 708 715 709
f 710 711 476
f 711 475 476
f 711 716 475
f 710 476 469
f 478 717 477
f 718 479 477
f 718 477 717
f 718 719 479
f 479 719 472
f 719 720 472
f 720 713 472
f 713 720 714
f 716 480 475
f 721 480 716
f 481 722 717
f 481 717 478
f 724 718 723
f 718 722 723
f 718 717 722
f 718 724 719
f 726 725 484
f 484 725 483
f 484 480 721
f 484 721 726
f 728 727 722
f 481 728 722
f 486 728 481
f 722 727 723
f 725 488 483
f 729 488 725
f 490 728 486
f 490 730 728
f 729 491 488
f 731 491 729
f 493 730 490
f 493 732 730
f 731 494 491
f 733 494 731
f 735 734 495
f 735 495 496
f 493 495 732
f 732 495 734
f 738 737 736
f 733 738 736
f 497 733 736
f 494 733 497
f 498 735 496
f 498 739 735
f 736 737 501
f 737 500 501
f 737 740 500
f 736 501 497
f 503 739 498
f 503 741 739
f 740 505 500
f 742 505 740
f 507 741 503
f 507 743 741
f 742 509 505
f 744 509 742
f 511 745 510
f 745 746 510
f 746 507 510
f 746 743 507
f 744 512 509
f 747 512 744
f 749 748 745
f 511 749 745
f 513 749 511
f 745 748 746
f 752 751 750
f 747 752 750
f 514 747 750
f 512 747 514
f 516 749 513
f 516 753 749
f 750 751 519
f 751 518 519
f 751 754 518
f 750 519 514
f 521 753 516
f 521 755 753
f 754 523 518
f 756 523 754
f 525 755 521
f 525 757 755
f 756 527 523
f 758 527 756
f 760 759 528
f 760 528 529
f 525 528 757
f 757 528 759
f 758 531 527
f 761 531 758
f 533 760 529
f 533 762 760
f 765 764 763
f 761 765 763
f 534 761 763
f 531 761 534
f 536 762 533
f 536 766 762
f 763 764 539
f 764 538 539
f 764 767 538
f 763 539 534
f 541 766 536
f 541 768 766
f 767 543 538
f 769 543 767
f 545 770 544
f 770 771 544
f 771 541 544
f 771 768 541
f 769 547 543
f 772 547 769
f 774 773 770
f 545 774 770
f 549 774 545
f 770 773 771
f 772 551 547
f 775 551 772
f 553 774 549
f 553 776 774
f 775 555 551
f 777 555 775
f 557 776 553
f 557 778 776
f 781 780 779
f 777 781 779
f 559 777 779
f 555 777 559
f 562 778 557
f 562 782 778
f 779 780 783
f 783 780 784
f 783 564 559
f 783 559 779
f 566 785 567
f 785 786 567
f 786 562 567
f 786 782 562
f 783 784 570
f 784 569 570
f 784 787 569
f 783 570 564
f 573 788 785
f 573 785 566
f 786 785 789
f 789 785 788
f 787 575 569
f 790 575 787
f 792 791 788
f 573 792 788
f 578 792 573
f 788 791 789
f 790 580 575
f 793 580 790
f 583 792 578
f 583 794 792
f 793 585 580
f 795 585 793
f 588 794 583
f 588 796 794
f 798 797 591
f 591 797 590
f 591 585 795
f 591 795 798
f 594 799 595
f 799 800 595
f 800 588 595
f 800 796 588
f 797 597 590
f 801 597 797
f 599 802 799
f 599 799 594
f 800 799 803
f 803 799 802
f 806 805 804
f 801 806 804
f 600 801 804
f 597 801 600
f 808 807 802
f 599 808 802
f 602 808 599
f 802 807 803
f 804 805 605
f 805 604 605
f 805 809 604
f 804 605 600
f 607 808 602
f 607 810 808
f 809 608 604
f 811 608 809
f 610 810 607
f 610 812 810
f 814 813 613
f 613 813 612
f 613 608 811
f 613 811 814
f 816 815 614
f 816 614 615
f 610 614 812
f 812 614 815
f 813 616 612
f 817 616 813
f 617 816 615
f 617 818 816
f 817 618 616
f 819 618 817
f 619 818 617
f 619 820 818
f 821 620 621
f 822 821 621
f 618 822 621
f 819 822 618
f 824 823 622
f 824 622 623
f 619 622 820
f 820 622 823
f 826 825 821
f 825 620 821
f 825 624 620
f 826 821 822
f 625 824 623
f 625 827 824
f 825 626 624
f 828 626 825
f 831 830 829
f 830 827 829
f 827 627 829
f 827 625 627
f 832 629 630
f 833 832 630
f 626 833 630
f 828 833 626
f 831 829 631
f 632 831 631
f 834 831 632
f 631 829 627
f 836 835 832
f 835 629 832
f 835 633 629
f 836 832 833
f 634 834 632
f 634 837 834
f 835 635 633
f 838 635 835
f 636 837 634
f 636 839 837
f 838 637 635
f 840 637 838
f 842 841 638
f 842 638 639
f 636 638 839
f 839 638 841
f 844 843 641
f 641 843 640
f 641 637 840
f 641 840 844
f 642 842 639
f 642 845 842
f 843 643 640
f 846 643 843
f 644 845 642
f 644 847 845
f 846 645 643
f 848 645 846
f 646 847 644
f 646 849 847
f 851 850 649
f 649 850 648
f 649 645 848
f 649 848 851
f 853 852 650
f 853 650 651
f 646 650 849
f 849 650 852
f 850 652 648
f 854 652 850
f 653 853 651
f 653 855 853
f 854 654 652
f 856 654 854
f 655 855 653
f 655 857 855
f 856 858 654
f 654 858 656
f 658 656 858
f 658 858 859
f 861 860 659
f 861 659 660
f 655 659 857
f 857 659 860
f 859 862 658
f 658 862 661
f 661 863 662
f 862 863 661
f 660 662 861
f 861 662 863
f 864 667 668
f 669 864 668
f 865 671 672
f 667 864 672
f 864 865 672
f 864 866 865
f 674 866 669
f 669 866 864
f 867 676 865
f 865 676 671
f 868 865 866
f 867 865 868
f 678 868 674
f 674 868 866
f 870 869 680
f 680 869 679
f 680 676 867
f 871 680 867
f 870 680 871
f 871 867 868
f 871 868 872
f 868 678 872
f 678 873 872
f 678 682 873
f 869 683 679
f 874 683 869
f 685 873 682
f 685 875 873
f 877 876 687
f 687 876 686
f 687 683 874
f 687 874 877
f 688 875 685
f 688 878 875
f 876 689 686
f 879 689 876
f 690 878 688
f 690 880 878
f 883 882 881
f 879 883 881
f 691 879 881
f 689 879 691
f 886 885 884
f 885 880 884
f 880 692 884
f 880 690 692
f 888 887 695
f 695 887 694
f 696 881 882
f 888 696 882
f 695 696 888
f 881 696 691
f 886 884 697
f 698 886 697
f 889 886 698
f 697 884 692
f 891 890 700
f 700 890 699
f 700 694 887
f 700 887 891
f 702 889 698
f 702 892 889
f 893 703 704
f 894 893 704
f 699 894 704
f 890 894 699
f 706 895 705
f 895 896 705
f 896 702 705
f 896 892 702
f 898 897 893
f 897 703 893
f 897 707 703
f 898 893 894
f 900 899 895
f 706 900 895
f 709 900 706
f 895 899 896
f 902 901 712
f 712 901 711
f 712 707 897
f 712 897 902
f 904 903 715
f 904 715 714
f 709 715 900
f 900 715 903
f 901 716 711
f 905 716 901
f 907 906 720
f 907 720 719
f 714 720 904
f 904 720 906
f 905 721 716
f 908 721 905
f 910 909 724
f 910 724 723
f 719 724 907
f 907 724 909
f 912 911 726
f 726 911 725
f 726 721 908
f 726 908 912
f 914 913 727
f 914 727 728
f 723 727 910
f 910 727 913
f 911 729 725
f 915 729 911
f 730 914 728
f 730 916 914
f 915 731 729
f 917 731 915
f 732 916 730
f 732 918 916
f 917 733 731
f 919 733 917
f 921 920 734
f 921 734 735
f 732 734 918
f 918 734 920
f 922 737 738
f 923 922 738
f 733 923 738
f 919 923 733
f 739 921 735
f 739 924 921
f 926 925 922
f 925 737 922
f 925 740 737
f 926 922 923
f 741 924 739
f 741 927 924
f 925 742 740
f 928 742 925
f 743 927 741
f 743 929 927
f 928 744 742
f 930 744 928
f 746 929 743
f 746 931 929
f 930 747 744
f 932 747 930
f 934 933 748
f 934 748 749
f 746 748 931
f 931 748 933
f 936 935 752
f 752 935 751
f 752 747 932
f 752 932 936
f 753 934 749
f 753 937 934
f 935 754 751
f 938 754 935
f 755 937 753
f 755 939 937
f 938 756 754
f 940 756 938
f 757 939 755
f 757 941 939
f 940 758 756
f 942 758 940
f 944 943 759
f 944 759 760
f 757 759 941
f 941 759 943
f 942 761 758
f 945 761 942
f 762 944 760
f 762 946 944
f 948 947 765
f 765 947 764
f 765 761 945
f 765 945 948
f 766 946 762
f 766 949 946
f 947 767 764
f 950 767 947
f 768 949 766
f 768 951 949
f 950 769 767
f 952 769 950
f 771 951 768
f 771 953 951
f 952 772 769
f 954 772 952
f 774 955 773
f 955 956 773
f 956 771 773
f 956 953 771
f 954 775 772
f 957 775 954
f 959 958 955
f 774 959 955
f 776 959 774
f 955 958 956
f 957 777 775
f 960 777 957
f 778 959 776
f 778 961 959
f 963 962 781
f 781 962 780
f 781 777 960
f 781 960 963
f 782 961 778
f 782 964 961
f 962 784 780
f 965 784 962
f 786 964 782
f 786 966 964
f 965 787 784
f 967 787 965
f 789 966 786
f 789 968 966
f 967 790 787
f 969 790 967
f 971 970 791
f 971 791 792
f 789 791 968
f 968 791 970
f 969 793 790
f 972 793 969
f 794 971 792
f 794 973 971
f 976 975 974
f 972 976 974
f 795 972 974
f 793 972 795
f 796 973 794
f 796 977 973
f 974 975 798
f 975 797 798
f 975 978 797
f 974 798 795
f 800 977 796
f 800 979 977
f 978 801 797
f 980 801 978
f 803 979 800
f 803 981 979
f 982 805 806
f 983 982 806
f 801 983 806
f 980 983 801
f 985 984 807
f 985 807 808
f 803 807 981
f 981 807 984
f 987 986 982
f 986 805 982
f 986 809 805
f 987 982 983
f 810 985 808
f 810 988 985
f 986 811 809
f 989 811 986
f 812 988 810
f 812 990 988
f 991 813 814
f 992 991 814
f 811 992 814
f 989 992 811
f 994 993 815
f 994 815 816
f 812 815 990
f 990 815 993
f 996 995 991
f 995 813 991
f 995 817 813
f 996 991 992
f 818 994 816
f 818 997 994
f 995 819 817
f 998 819 995
f 1001 1000 999
f 1000 997 999
f 997 820 999
f 997 818 820
f 998 822 819
f 1002 822 998
f 1001 999 823
f 824 1001 823
f 1003 1001 824
f 823 999 820
f 1004 825 826
f 1005 1004 826
f 822 1005 826
f 1002 1005 822
f 1008 1007 1006
f 1007 1003 1006
f 1003 827 1006
f 1003 824 827
f 1009 828 1004
f 1004 828 825
f 1004 1005 1010
f 1004 1010 1009
f 1008 1006 830
f 831 1008 830
f 1011 1008 831
f 830 1006 827
f 1013 1012 1009
f 1012 828 1009
f 1012 833 828
f 1013 1009 1010
f 834 1011 831
f 834 1014 1011
f 1015 835 836
f 1016 1015 836
f 833 1016 836
f 1012 1016 833
f 1019 1018 1017
f 1018 1014 1017
f 1014 837 1017
f 1014 834 837
f 1021 1020 1015
f 1020 835 1015
f 1020 838 835
f 1021 1015 1016
f 1019 1017 1022
f 1019 1022 1023
f 839 1022 837
f 837 1022 1017
f 1020 840 838
f 1024 840 1020
f 1023 1022 841
f 842 1023 841
f 1025 1023 842
f 841 1022 839
f 1026 843 844
f 1027 1026 844
f 840 1027 844
f 1024 1027 840
f 845 1025 842
f 845 1028 1025
f 1030 1029 1026
f 1029 843 1026
f 1029 846 843
f 1030 1026 1027
f 1033 1032 1031
f 1032 1028 1031
f 1028 847 1031
f 1028 845 847
f 1029 848 846
f 1034 848 1029
f 1033 1031 1035
f 1033 1035 1036
f 849 1035 847
f 847 1035 1031
f 1037 850 851
f 1038 1037 851
f 848 1038 851
f 1034 1038 848
f 1036 1035 852
f 853 1036 852
f 1039 1036 853
f 852 1035 849
f 1041 1040 1037
f 1040 850 1037
f 1040 854 850
f 1041 1037 1038
f 855 1039 853
f 855 1042 1039
f 1040 856 854
f 1043 856 1040
f 1046 1045 1044
f 1045 1042 1044
f 1042 857 1044
f 1042 855 857
f 1043 1047 856
f 856 1047 858
f 859 858 1047
f 859 1047 1048
f 1046 1044 860
f 861 1046 860
f 1049 1046 861
f 860 1044 857
f 1048 1050 859
f 859 1050 862
f 862 1051 863
f 1050 1051 862
f 861 863 1049
f 1049 863 1051
f 1052 869 870
f 871 1053 870
f 870 1053 1052
f 872 1054 871
f 871 1054 1053
f 873 1054 872
f 1055 874 1052
f 1052 874 869
f 1056 1052 1053
f 1055 1052 1056
f 1057 1053 1054
f 1056 1053 1057
f 875 1057 873
f 873 1057 1054
f 1058 876 877
f 1059 1058 877
f 1059 877 874
f 1060 1059 874
f 1055 1060 874
f 1060 1055 1056
f 1060 1056 1061
f 1063 1062 1061
f 1056 1063 1061
f 1057 1063 1056
f 878 1063 875
f 875 1063 1057
f 1065 1064 1058
f 1064 876 1058
f 1064 879 876
f 1065 1058 1059
f 1062 1063 1066
f 1062 1066 1067
f 880 1066 878
f 878 1066 1063
f 1068 882 883
f 1069 1068 883
f 879 1069 883
f 1064 1069 879
f 1067 1066 885
f 886 1067 885
f 1070 1067 886
f 885 1066 880
f 1072 1071 888
f 888 1071 887
f 888 882 1068
f 1073 888 1068
f 1072 888 1073
f 1073 1068 1069
f 889 1070 886
f 889 1074 1070
f 1076 1075 891
f 891 1075 890
f 891 887 1071
f 891 1071 1076
f 892 1074 889
f 892 1077 1074
f 1075 894 890
f 1078 894 1075
f 1081 1080 1079
f 1080 1077 1079
f 1077 896 1079
f 1077 892 896
f 1083 1082 898
f 898 1082 897
f 898 894 1078
f 898 1078 1083
f 1081 1079 899
f 900 1081 899
f 1084 1081 900
f 899 1079 896
f 1086 1085 902
f 902 1085 901
f 902 897 1082
f 902 1082 1086
f 1088 1087 903
f 1088 903 904
f 900 903 1084
f 1084 903 1087
f 1085 905 901
f 1089 905 1085
f 1091 1090 906
f 1091 906 907
f 904 906 1088
f 1088 906 1090
f 1089 908 905
f 1092 908 1089
f 1095 1094 1093
f 909 910 1093
f 1094 909 1093
f 1096 909 1094
f 907 909 1091
f 1091 909 1096
f 1097 911 912
f 1098 1097 912
f 908 1098 912
f 1092 1098 908
f 1095 1093 913
f 914 1095 913
f 1099 1095 914
f 913 1093 910
f 1100 915 1097
f 1097 915 911
f 1097 1098 1101
f 1097 1101 1100
f 916 1099 914
f 916 1102 1099
f 1104 1103 1100
f 1103 915 1100
f 1103 917 915
f 1104 1100 1101
f 1107 1106 1105
f 1106 1102 1105
f 1102 918 1105
f 1102 916 918
f 1103 919 917
f 1108 919 1103
f 1107 1105 920
f 921 1107 920
f 1109 1107 921
f 920 1105 918
f 1108 923 919
f 1110 923 1108
f 924 1109 921
f 924 1111 1109
f 1112 925 926
f 1113 1112 926
f 923 1113 926
f 1110 1113 923
f 927 1111 924
f 927 1114 1111
f 1116 1115 1112
f 1115 925 1112
f 1115 928 925
f 1116 1112 1113
f 1119 1118 1117
f 1118 1114 1117
f 1114 929 1117
f 1114 927 929
f 1115 930 928
f 1120 930 1115
f 1119 1117 1121
f 1119 1121 1122
f 931 1121 929
f 929 1121 1117
f 1120 932 930
f 1123 932 1120
f 1122 1121 933
f 934 1122 933
f 1124 1122 934
f 933 1121 931
f 1125 935 936
f 1126 1125 936
f 932 1126 936
f 1123 1126 932
f 937 1124 934
f 937 1127 1124
f 1129 1128 1125
f 1128 935 1125
f 1128 938 935
f 1129 1125 1126
f 939 1127 937
f 939 1130 1127
f 1128 940 938
f 1131 940 1128
f 1134 1133 1132
f 1133 1130 1132
f 1130 941 1132
f 1130 939 941
f 1131 942 940
f 1135 942 1131
f 1134 1132 943
f 944 1134 943
f 1136 1134 944
f 943 1132 941
f 1135 945 942
f 1137 945 1135
f 946 1136 944
f 946 1138 1136
f 1139 947 948
f 1140 1139 948
f 945 1140 948
f 1137 1140 945
f 949 1138 946
f 949 1141 1138
f 1143 1142 1139
f 1142 947 1139
f 1142 950 947
f 1143 1139 1140
f 951 1141 949
f 951 1144 1141
f 1142 952 950
f 1145 952 1142
f 953 1144 951
f 953 1146 1144
f 1145 954 952
f 1147 954 1145
f 1150 1149 1148
f 1149 1146 1148
f 1146 956 1148
f 1146 953 956
f 1147 957 954
f 1151 957 1147
f 1150 1148 958
f 959 1150 958
f 1152 1150 959
f 958 1148 956
f 1151 960 957
f 1153 960 1151
f 961 1152 959
f 961 1154 1152
f 1156 1155 963
f 963 1155 962
f 963 960 1153
f 963 1153 1156
f 964 1154 961
f 964 1157 1154
f 1155 965 962
f 1158 965 1155
f 966 1157 964
f 966 1159 1157
f 1158 967 965
f 1160 967 1158
f 1163 1162 1161
f 1162 1159 1161
f 1159 968 1161
f 1159 966 968
f 1160 969 967
f 1164 969 1160
f 1163 1161 970
f 971 1163 970
f 1165 1163 971
f 970 1161 968
f 1164 972 969
f 1166 972 1164
f 973 1165 971
f 973 1167 1165
f 1168 975 976
f 1169 1168 976
f 972 1169 976
f 1166 1169 972
f 977 1167 973
f 977 1170 1167
f 1172 1171 1168
f 1171 975 1168
f 1171 978 975
f 1172 1168 1169
f 979 1170 977
f 979 1173 1170
f 1171 980 978
f 1174 980 1171
f 981 1173 979
f 981 1175 1173
f 1174 983 980
f 1176 983 1174
f 1178 1177 984
f 1178 984 985
f 981 984 1175
f 1175 984 1177
f 1179 986 987
f 1180 1179 987
f 983 1180 987
f 1176 1180 983
f 988 1178 985
f 988 1181 1178
f 1183 1182 1179
f 1182 986 1179
f 1182 989 986
f 1183 1179 1180
f 990 1181 988
f 990 1184 1181
f 1182 992 989
f 1185 992 1182
f 1187 1186 993
f 1187 993 994
f 990 993 1184
f 1184 993 1186
f 1188 995 996
f 1189 1188 996
f 992 1189 996
f 1185 1189 992
f 1192 1191 1190
f 1191 1187 1190
f 1187 997 1190
f 1187 994 997
f 1193 998 1188
f 1188 998 995
f 1188 1189 1194
f 1195 1188 1194
f 1193 1188 1195
f 1197 1196 1195
f 1197 1195 1194
f 1196 1197 1192
f 1196 1192 1190
f 1001 1196 1190
f 1000 1001 1190
f 1000 1190 997
f 1198 1002 1193
f 1193 1002 998
f 1199 1193 1195
f 1198 1193 1199
f 1200 1195 1196
f 1199 1195 1200
f 1003 1200 1001
f 1001 1200 1196
f 1201 1005 1198
f 1198 1005 1002
f 1202 1198 1199
f 1201 1198 1202
f 1008 1202 1007
f 1202 1200 1007
f 1202 1199 1200
f 1007 1200 1003
f 1203 1010 1201
f 1201 1010 1005
f 1204 1201 1202
f 1203 1201 1204
f 1011 1204 1008
f 1008 1204 1202
f 1205 1012 1013
f 1010 1203 1013
f 1203 1205 1013
f 1203 1206 1205
f 1207 1203 1204
f 1206 1203 1207
f 1014 1207 1011
f 1011 1207 1204
f 1208 1016 1205
f 1205 1016 1012
f 1209 1205 1206
f 1208 1205 1209
f 1019 1209 1018
f 1209 1207 1018
f 1209 1206 1207
f 1018 1207 1014
f 1210 1020 1021
f 1016 1208 1021
f 1208 1210 1021
f 1208 1211 1210
f 1212 1208 1209
f 1211 1208 1212
f 1023 1212 1019
f 1019 1212 1209
f 1213 1024 1210
f 1210 1024 1020
f 1214 1210 1211
f 1213 1210 1214
f 1215 1211 1212
f 1214 1211 1215
f 1025 1215 1023
f 1023 1215 1212
f 1216 1027 1213
f 1213 1027 1024
f 1217 1213 1214
f 1216 1213 1217
f 1218 1214 1215
f 1217 1214 1218
f 1028 1218 1025
f 1025 1218 1215
f 1219 1029 1030
f 1027 1216 1030
f 1216 1219 1030
f 1216 1220 1219
f 1221 1216 1217
f 1220 1216 1221
f 1033 1221 1032
f 1221 1218 1032
f 1221 1217 1218
f 1032 1218 1028
f 1222 1034 1219
f 1219 1034 1029
f 1223 1219 1220
f 1222 1219 1223
f 1224 1220 1221
f 1223 1220 1224
f 1036 1224 1033
f 1033 1224 1221
f 1225 1038 1222
f 1222 1038 1034
f 1223 1227 1226
f 1225 1223 1226
f 1222 1223 1225
f 1229 1228 1227
f 1223 1229 1227
f 1224 1229 1223
f 1039 1229 1036
f 1036 1229 1224
f 1230 1040 1041
f 1231 1230 1041
f 1231 1041 1038
f 1232 1231 1038
f 1225 1232 1038
f 1232 1225 1226
f 1228 1229 1233
f 1228 1233 1234
f 1042 1233 1039
f 1039 1233 1229
f 1235 1043 1230
f 1230 1043 1040
f 1230 1231 1236
f 1230 1236 1235
f 1234 1233 1045
f 1046 1234 1045
f 1237 1234 1046
f 1045 1233 1042
f 1235 1047 1043
f 1048 1047 1235
f 1236 1048 1235
f 1238 1048 1236
f 1241 1240 1239
f 1240 1237 1239
f 1237 1049 1239
f 1237 1046 1049
f 1238 1242 1048
f 1048 1242 1050
f 1239 1051 1241
f 1051 1242 1241
f 1051 1050 1242
f 1051 1239 1049
f 1243 1059 1060
f 1061 1244 1060
f 1060 1244 1243
f 1062 1244 1061
f 1245 1064 1065
f 1246 1245 1065
f 1246 1065 1059
f 1247 1246 1059
f 1243 1247 1059
f 1249 1248 1247
f 1243 1249 1247
f 1244 1249 1243
f 1067 1249 1062
f 1062 1249 1244
f 1251 1250 1245
f 1250 1064 1245
f 1250 1069 1064
f 1251 1245 1246
f 1248 1249 1252
f 1248 1252 1253
f 1070 1252 1067
f 1067 1252 1249
f 1254 1071 1072
f 1254 1072 1255
f 1072 1256 1255
f 1072 1073 1256
f 1073 1069 1250
f 1073 1250 1256
f 1253 1252 1257
f 1253 1257 1258
f 1074 1257 1070
f 1070 1257 1252
f 1260 1259 1076
f 1076 1259 1075
f 1076 1071 1254
f 1261 1076 1254
f 1260 1076 1261
f 1261 1254 1255
f 1258 1257 1262
f 1258 1262 1263
f 1077 1262 1074
f 1074 1262 1257
f 1259 1078 1075
f 1264 1078 1259
f 1263 1262 1080
f 1081 1263 1080
f 1265 1263 1081
f 1080 1262 1077
f 1267 1266 1083
f 1083 1266 1082
f 1083 1078 1264
f 1083 1264 1267
f 1270 1269 1268
f 1269 1265 1268
f 1265 1084 1268
f 1265 1081 1084
f 1271 1085 1086
f 1272 1271 1086
f 1082 1272 1086
f 1266 1272 1082
f 1275 1274 1273
f 1273 1274 1270
f 1273 1270 1268
f 1088 1273 1268
f 1087 1088 1268
f 1087 1268 1084
f 1276 1089 1271
f 1271 1089 1085
f 1271 1272 1277
f 1271 1277 1276
f 1280 1279 1278
f 1282 1281 1278
f 1282 1278 1279
f 1281 1282 1275
f 1281 1275 1273
f 1091 1281 1273
f 1090 1091 1273
f 1090 1273 1088
f 1283 1092 1276
f 1276 1092 1089
f 1276 1277 1284
f 1276 1284 1283
f 1280 1278 1094
f 1095 1280 1094
f 1285 1280 1095
f 1094 1278 1096
f 1096 1278 1281
f 1096 1281 1091
f 1286 1098 1283
f 1283 1098 1092
f 1283 1284 1287
f 1283 1287 1286
f 1290 1289 1288
f 1289 1285 1288
f 1285 1099 1288
f 1285 1095 1099
f 1291 1101 1286
f 1286 1101 1098
f 1286 1287 1292
f 1293 1286 1292
f 1291 1286 1293
f 1293 1292 1290
f 1288 1293 1290
f 1294 1293 1288
f 1102 1294 1099
f 1099 1294 1288
f 1295 1103 1104
f 1101 1291 1104
f 1291 1295 1104
f 1291 1296 1295
f 1297 1291 1293
f 1296 1291 1297
f 1107 1297 1106
f 1297 1294 1106
f 1297 1293 1294
f 1106 1294 1102
f 1298 1108 1295
f 1295 1108 1103
f 1299 1295 1296
f 1298 1295 1299
f 1300 1296 1297
f 1299 1296 1300
f 1109 1300 1107
f 1107 1300 1297
f 1301 1110 1298
f 1298 1110 1108
f 1302 1298 1299
f 1301 1298 1302
f 1303 1299 1300
f 1302 1299 1303
f 1111 1303 1109
f 1109 1303 1300
f 1304 1113 1301
f 1301 1113 1110
f 1305 1301 1302
f 1304 1301 1305
f 1306 1302 1303
f 1305 1302 1306
f 1114 1306 1111
f 1111 1306 1303
f 1307 1115 1116
f 1113 1304 1116
f 1304 1307 1116
f 1304 1308 1307
f 1309 1304 1305
f 1308 1304 1309
f 1119 1309 1118
f 1309 1306 1118
f 1309 1305 1306
f 1118 1306 1114
f 1310 1120 1307
f 1307 1120 1115
f 1308 1312 1311
f 1310 1308 1311
f 1307 1308 1310
f 1314 1313 1312
f 1308 1314 1312
f 1309 1314 1308
f 1122 1314 1119
f 1119 1314 1309
f 1315 1123 1310
f 1310 1123 1120
f 1310 1311 1316
f 1310 1316 1315
f 1313 1314 1317
f 1313 1317 1318
f 1124 1317 1122
f 1122 1317 1314
f 1319 1126 1315
f 1315 1126 1123
f 1315 1316 1320
f 1315 1320 1319
f 1318 1317 1321
f 1318 1321 1322
f 1127 1321 1124
f 1124 1321 1317
f 1323 1128 1129
f 1324 1323 1129
f 1324 1129 1126
f 1325 1324 1126
f 1319 1325 1126
f 1325 1319 1320
f 1322 1321 1326
f 1322 1326 1327
f 1130 1326 1127
f 1127 1326 1321
f 1328 1131 1323
f 1323 1131 1128
f 1323 1324 1329
f 1323 1329 1328
f 1327 1326 1133
f 1134 1327 1133
f 1330 1327 1134
f 1133 1326 1130
f 1331 1135 1328
f 1328 1135 1131
f 1328 1329 1332
f 1328 1332 1331
f 1136 1330 1134
f 1136 1333 1330
f 1335 1334 1331
f 1334 1135 1331
f 1334 1137 1135
f 1335 1331 1332
f 1338 1337 1336
f 1337 1333 1336
f 1333 1138 1336
f 1333 1136 1138
f 1334 1140 1137
f 1339 1140 1334
f 1338 1336 1340
f 1338 1340 1341
f 1141 1340 1138
f 1138 1340 1336
f 1342 1142 1143
f 1343 1342 1143
f 1140 1343 1143
f 1339 1343 1140
f 1341 1340 1344
f 1341 1344 1345
f 1144 1344 1141
f 1141 1344 1340
f 1346 1145 1342
f 1342 1145 1142
f 1342 1343 1347
f 1342 1347 1346
f 1345 1344 1348
f 1345 1348 1349
f 1146 1348 1144
f 1144 1348 1344
f 1350 1147 1346
f 1346 1147 1145
f 1346 1347 1351
f 1346 1351 1350
f 1349 1348 1149
f 1150 1349 1149
f 1352 1349 1150
f 1149 1348 1146
f 1354 1353 1350
f 1353 1147 1350
f 1353 1151 1147
f 1354 1350 1351
f 1152 1352 1150
f 1152 1355 1352
f 1353 1153 1151
f 1356 1153 1353
f 1154 1355 1152
f 1154 1357 1355
f 1358 1155 1156
f 1359 1358 1156
f 1153 1359 1156
f 1356 1359 1153
f 1362 1361 1360
f 1361 1357 1360
f 1357 1157 1360
f 1357 1154 1157
f 1363 1158 1358
f 1358 1158 1155
f 1358 1359 1364
f 1358 1364 1363
f 1362 1360 1365
f 1362 1365 1366
f 1159 1365 1157
f 1157 1365 1360
f 1367 1160 1363
f 1363 1160 1158
f 1363 1364 1368
f 1363 1368 1367
f 1366 1365 1162
f 1163 1366 1162
f 1369 1366 1163
f 1162 1365 1159
f 1371 1370 1367
f 1370 1160 1367
f 1370 1164 1160
f 1371 1367 1368
f 1165 1369 1163
f 1165 1372 1369
f 1370 1166 1164
f 1373 1166 1370
f 1167 1372 1165
f 1167 1374 1372
f 1373 1169 1166
f 1375 1169 1373
f 1170 1374 1167
f 1170 1376 1374
f 1377 1171 1172
f 1378 1377 1172
f 1169 1378 1172
f 1375 1378 1169
f 1381 1380 1379
f 1380 1376 1379
f 1376 1173 1379
f 1376 1170 1173
f 1382 1174 1377
f 1377 1174 1171
f 1377 1378 1383
f 1377 1383 1382
f 1381 1379 1384
f 1381 1384 1385
f 1175 1384 1173
f 1173 1384 1379
f 1386 1176 1382
f 1382 1176 1174
f 1382 1383 1387
f 1382 1387 1386
f 1385 1384 1177
f 1178 1385 1177
f 1388 1385 1178
f 1177 1384 1175
f 1389 1180 1386
f 1386 1180 1176
f 1386 1387 1390
f 1386 1390 1389
f 1393 1392 1391
f 1392 1388 1391
f 1388 1181 1391
f 1388 1178 1181
f 1394 1182 1183
f 1180 1389 1183
f 1389 1394 1183
f 1389 1395 1394
f 1389 1390 1396
f 1397 1389 1396
f 1395 1389 1397
f 1397 1396 1393
f 1391 1397 1393
f 1398 1397 1391
f 1184 1398 1181
f 1181 1398 1391
f 1399 1185 1394
f 1394 1185 1182
f 1400 1394 1395
f 1399 1394 1400
f 1401 1395 1397
f 1400 1395 1401
f 1187 1401 1186
f 1401 1398 1186
f 1401 1397 1398
f 1186 1398 1184
f 1402 1189 1399
f 1399 1189 1185
f 1403 1399 1400
f 1402 1399 1403
f 1192 1403 1191
f 1403 1401 1191
f 1403 1400 1401
f 1191 1401 1187
f 1402 1194 1189
f 1194 1402 1197
f 1197 1402 1403
f 1197 1403 1192
f 1404 1226 1227
f 1228 1404 1227
f 1405 1231 1232
f 1226 1404 1232
f 1404 1405 1232
f 1404 1406 1405
f 1234 1406 1228
f 1228 1406 1404
f 1407 1236 1405
f 1405 1236 1231
f 1408 1405 1406
f 1407 1405 1408
f 1237 1408 1234
f 1234 1408 1406
f 1409 1238 1407
f 1407 1238 1236
f 1241 1409 1240
f 1409 1408 1240
f 1409 1407 1408
f 1240 1408 1237
f 1409 1242 1238
f 1242 1409 1241
f 1410 1246 1247
f 1248 1410 1247
f 1411 1250 1251
f 1246 1410 1251
f 1410 1411 1251
f 1410 1412 1411
f 1253 1412 1248
f 1248 1412 1410
f 1413 1255 1256
f 1250 1411 1256
f 1411 1413 1256
f 1411 1414 1413
f 1415 1411 1412
f 1414 1411 1415
f 1258 1415 1253
f 1253 1415 1412
f 1416 1259 1260
f 1261 1417 1260
f 1260 1417 1416
f 1255 1413 1261
f 1413 1417 1261
f 1413 1418 1417
f 1419 1413 1414
f 1418 1413 1419
f 1420 1414 1415
f 1419 1414 1420
f 1263 1420 1258
f 1258 1420 1415
f 1421 1264 1416
f 1416 1264 1259
f 1422 1416 1417
f 1421 1416 1422
f 1423 1417 1418
f 1422 1417 1423
f 1424 1418 1419
f 1423 1418 1424
f 1425 1419 1420
f 1424 1419 1425
f 1265 1425 1263
f 1263 1425 1420
f 1426 1266 1267
f 1264 1421 1267
f 1421 1426 1267
f 1421 1427 1426
f 1428 1421 1422
f 1427 1421 1428
f 1429 1422 1423
f 1428 1422 1429
f 1430 1423 1424
f 1429 1423 1430
f 1270 1430 1269
f 1430 1425 1269
f 1430 1424 1425
f 1269 1425 1265
f 1431 1272 1426
f 1426 1272 1266
f 1432 1426 1427
f 1431 1426 1432
f 1433 1427 1428
f 1432 1427 1433
f 1434 1428 1429
f 1433 1428 1434
f 1275 1434 1274
f 1434 1430 1274
f 1434 1429 1430
f 1274 1430 1270
f 1435 1277 1431
f 1431 1277 1272
f 1436 1431 1432
f 1435 1431 1436
f 1280 1436 1279
f 1436 1433 1279
f 1436 1432 1433
f 1279 1433 1282
f 1282 1433 1434
f 1282 1434 1275
f 1437 1284 1435
f 1435 1284 1277
f 1438 1435 1436
f 1437 1435 1438
f 1285 1438 1280
f 1280 1438 1436
f 1439 1287 1437
f 1437 1287 1284
f 1290 1439 1289
f 1439 1438 1289
f 1439 1437 1438
f 1289 1438 1285
f 1439 1292 1287
f 1292 1439 1290
f 1440 1311 1312
f 1313 1440 1312
f 1441 1316 1440
f 1440 1316 1311
f 1318 1441 1313
f 1313 1441 1440
f 1442 1320 1441
f 1441 1320 1316
f 1322 1442 1318
f 1318 1442 1441
f 1443 1324 1325
f 1320 1442 1325
f 1442 1443 1325
f 1442 1444 1443
f 1327 1444 1322
f 1322 1444 1442
f 1445 1329 1443
f 1443 1329 1324
f 1446 1443 1444
f 1445 1443 1446
f 1330 1446 1327
f 1327 1446 1444
f 1447 1332 1445
f 1445 1332 1329
f 1448 1445 1446
f 1447 1445 1448
f 1333 1448 1330
f 1330 1448 1446
f 1449 1334 1335
f 1332 1447 1335
f 1447 1449 1335
f 1447 1450 1449
f 1338 1450 1337
f 1450 1448 1337
f 1450 1447 1448
f 1337 1448 1333
f 1451 1339 1449
f 1449 1339 1334
f 1452 1449 1450
f 1451 1449 1452
f 1341 1452 1338
f 1338 1452 1450
f 1453 1343 1451
f 1451 1343 1339
f 1454 1451 1452
f 1453 1451 1454
f 1345 1454 1341
f 1341 1454 1452
f 1455 1347 1453
f 1453 1347 1343
f 1456 1453 1454
f 1455 1453 1456
f 1349 1456 1345
f 1345 1456 1454
f 1457 1351 1455
f 1455 1351 1347
f 1458 1455 1456
f 1457 1455 1458
f 1352 1458 1349
f 1349 1458 1456
f 1459 1353 1354
f 1351 1457 1354
f 1457 1459 1354
f 1457 1460 1459
f 1461 1457 1458
f 1460 1457 1461
f 1355 1461 1352
f 1352 1461 1458
f 1462 1356 1459
f 1459 1356 1353
f 1463 1459 1460
f 1462 1459 1463
f 1464 1460 1461
f 1463 1460 1464
f 1357 1464 1355
f 1355 1464 1461
f 1465 1359 1462
f 1462 1359 1356
f 1466 1462 1463
f 1465 1462 1466
f 1362 1466 1361
f 1466 1464 1361
f 1466 1463 1464
f 1361 1464 1357
f 1467 1364 1465
f 1465 1364 1359
f 1468 1465 1466
f 1467 1465 1468
f 1366 1468 1362
f 1362 1468 1466
f 1469 1368 1467
f 1467 1368 1364
f 1470 1467 1468
f 1469 1467 1470
f 1369 1470 1366
f 1366 1470 1468
f 1471 1370 1371
f 1368 1469 1371
f 1469 1471 1371
f 1469 1472 1471
f 1473 1469 1470
f 1472 1469 1473
f 1372 1473 1369
f 1369 1473 1470
f 1474 1373 1471
f 1471 1373 1370
f 1475 1471 1472
f 1474 1471 1475
f 1476 1472 1473
f 1475 1472 1476
f 1374 1476 1372
f 1372 1476 1473
f 1477 1375 1474
f 1474 1375 1373
f 1478 1474 1475
f 1477 1474 1478
f 1479 1475 1476
f 1478 1475 1479
f 1376 1479 1374
f 1374 1479 1476
f 1480 1378 1477
f 1477 1378 1375
f 1481 1477 1478
f 1480 1477 1481
f 1381 1481 1380
f 1481 1479 1380
f 1481 1478 1479
f 1380 1479 1376
f 1482 1383 1480
f 1480 1383 1378
f 1483 1480 1481
f 1482 1480 1483
f 1385 1483 1381
f 1381 1483 1481
f 1484 1387 1482
f 1482 1387 1383
f 1485 1482 1483
f 1484 1482 1485
f 1388 1485 1385
f 1385 1485 1483
f 1486 1390 1484
f 1484 1390 1387
f 1393 1486 1392
f 1486 1485 1392
f 1486 1484 1485
f 1392 1485 1388
f 1486 1396 1390
f 1396 1486 1393
# 2968 faces, 0 coords texture

# End of File