####
#
# OBJ File Generated by Meshlab
#
####
# Object domain021.obj
#
# Vertices: 835
# Faces: 1684
#
####
v 110.615089 64.356651 114.120155
v 170.792038 66.557327 116.709641
v 123.743515 65.301056 109.510895
v 153.613525 59.477592 113.262581
v 124.529510 65.129379 119.164497
v 179.150238 64.894104 114.817978
v 120.727707 59.640846 111.198654
v 124.388069 55.819725 116.604042
v 176.985397 54.287498 116.614159
v 182.773499 56.312759 118.216026
v 151.850464 65.835701 117.704803
v 128.586411 56.818367 116.423515
v 172.831833 65.835602 117.872116
v 138.792130 67.563385 115.898582
v 110.488663 60.475403 110.728043
v 126.572685 62.282825 109.776367
v 167.835648 64.796463 109.063095
v 158.761887 61.083511 111.115982
v 110.463631 56.138535 112.338890
v 178.992371 60.241188 111.120697
v 114.552567 63.093227 119.605530
v 132.604172 66.384079 117.999023
v 174.970352 54.576832 114.357269
v 108.651581 63.758987 113.385674
v 132.552048 66.673065 111.293274
v 154.756210 59.371803 113.128799
v 174.831192 65.962616 112.542389
v 134.815948 67.921921 113.980804
v 168.750595 66.848778 112.556908
v 108.506767 62.766178 116.781120
v 168.728226 63.923222 119.921616
v 124.616493 66.295219 110.417915
v 134.651260 60.487717 118.731308
v 126.580498 65.182510 119.224358
v 140.722214 66.965141 113.723289
v 179.017242 56.178474 112.431854
v 130.701675 57.771553 114.234093
v 120.670471 66.589554 112.464203
v 170.830093 60.473049 110.748199
v 142.957291 62.239723 113.330109
v 170.811035 58.238373 111.822792
v 105.447083 56.882343 114.777084
v 114.659966 60.510010 110.472687
v 107.456497 58.686798 119.963425
v 176.927811 58.234135 111.575714
v 118.629761 60.480446 110.702057
v 128.471222 58.579407 112.583801
v 144.744339 62.505096 117.076561
v 172.906097 64.721489 119.185608
v 183.055817 62.145790 116.475517
v 110.754379 59.167629 111.060577
v 112.170570 65.075737 114.710526
v 132.795700 62.308247 111.482895
v 182.902603 60.373135 112.336288
v 145.478943 59.715691 114.126450
v 140.597763 67.499512 114.739113
v 184.751129 56.040730 114.753326
v 182.680740 62.277218 112.564926
v 183.318176 55.813023 113.729301
v 112.524933 60.612797 110.545578
v 131.986664 63.758183 119.790123
v 132.252151 60.407768 119.920937
v 162.748291 62.563404 109.789536
v 153.093124 65.990959 117.720917
v 164.963303 64.502357 109.306282
v 174.913208 56.474674 119.903481
v 147.460220 60.931751 113.360847
v 160.794281 60.261600 111.427010
v 128.389236 64.479134 109.271233
v 110.567902 56.519032 119.938004
v 122.579720 59.849087 111.164742
v 184.023651 60.123165 117.672234
v 116.556297 54.609016 114.265518
v 165.040695 56.683929 118.896805
v 170.911270 66.637100 112.558022
v 158.830536 64.136154 119.814667
v 129.738785 68.043015 112.271683
v 105.565872 61.378712 114.624763
v 124.613312 67.373871 114.406181
v 159.842377 67.652863 112.571449
v 174.764999 64.504280 111.018394
v 163.452194 63.565605 109.201195
v 167.089249 56.298798 114.743561
v 168.767654 62.390362 120.339676
v 178.964218 64.601875 112.155884
v 176.167084 65.780312 116.608337
v 122.591774 55.823727 119.142242
v 164.971252 65.975143 110.327950
v 172.877609 56.486385 119.887177
v 170.675644 64.584641 110.226891
v 106.474991 58.288944 119.400116
v 175.262833 65.312981 111.681084
v 126.473305 56.738419 114.344414
v 183.159714 62.618740 114.765358
v 107.468788 59.609886 119.924347
v 176.829971 65.952850 114.407761
v 104.179924 57.255142 117.407715
v 126.593010 67.760208 112.502228
v 161.344864 57.208813 118.570580
v 174.914719 60.350292 120.360855
v 140.694870 64.817490 112.871460
v 124.458763 56.345013 118.880074
v 128.976456 65.260681 109.660355
v 124.357628 56.169228 114.360100
v 120.715889 60.357830 120.472542
v 120.646088 54.950932 114.321426
v 134.807449 64.745338 111.543259
v 158.798050 66.463257 110.913475
v 134.696518 67.600060 112.817062
v 154.479462 62.708233 119.380295
v 156.825470 67.650856 114.351830
v 130.550476 62.694080 110.574852
v 144.801392 66.862923 114.165421
v 162.891907 66.308807 118.040131
v 167.053253 66.206375 117.979317
v 126.554535 66.470779 110.370926
v 168.752121 66.676643 116.727592
v 120.722115 63.871239 119.872437
v 168.731796 65.991333 110.631813
v 153.038284 62.330296 118.767891
v 110.629547 54.338161 114.339813
v 180.983887 58.445297 111.819168
v 130.654663 60.395092 120.196716
v 136.499542 64.732292 112.150742
v 120.698738 56.464607 119.922287
v 138.320816 62.391342 117.930817
v 120.022980 55.283901 113.414215
v 118.622177 55.235123 113.369980
v 167.011826 58.340672 120.286255
v 176.963257 54.869041 118.273224
v 158.842453 62.614693 110.491676
v 142.684006 62.494312 117.112473
v 119.182587 55.573269 119.422165
v 128.628204 63.926487 119.944557
v 112.248375 55.575344 119.450500
v 146.791992 66.773636 116.769203
v 164.958969 60.358273 120.455025
v 144.742447 66.759918 116.758141
v 152.871811 67.056290 116.730690
v 170.844635 56.554298 119.820877
v 158.812393 60.073189 111.793800
v 179.037491 56.011032 119.342445
v 153.150116 60.578423 118.468590
v 156.673431 60.282516 111.930305
v 109.025749 56.911228 119.864487
v 184.715378 56.142979 116.450439
v 137.979401 61.074673 117.691429
v 140.634872 62.458447 117.332932
v 152.935455 59.042736 116.471344
v 130.672455 66.883308 118.016457
v 137.937561 64.128609 117.948639
v 180.918198 61.813461 118.334023
v 132.615372 64.773407 110.876869
v 157.346252 61.237812 111.239113
v 124.489120 58.313076 112.062431
v 174.911407 55.649048 119.352882
v 167.644592 64.948189 109.078308
v 162.938461 58.393036 120.141426
v 164.942474 66.265427 118.021477
v 162.748474 56.879902 116.218369
v 142.689407 67.338699 116.093414
v 176.688766 61.708416 119.943077
v 107.631706 63.438408 113.009071
v 160.840714 66.403564 110.670670
v 168.754395 67.054428 114.246246
v 114.563705 60.348637 120.369316
v 158.809433 67.599014 114.276451
v 105.927353 61.198540 113.359421
v 148.961517 60.548931 116.502075
v 160.857391 62.388412 120.311836
v 163.966873 56.691200 115.982765
v 152.203552 67.648064 115.795952
v 150.968948 64.705917 112.182709
v 168.755585 62.493034 109.819061
v 170.610199 63.798523 119.928436
v 154.769547 66.039764 117.847580
v 156.826202 64.814346 110.537148
v 128.404221 57.099300 114.483780
v 164.959198 62.388729 120.328186
v 143.504562 59.728840 114.104103
v 143.014908 64.959778 113.291252
v 167.126053 62.592606 109.589966
v 106.631355 58.451820 112.617950
v 168.905823 55.969135 119.018982
v 181.077240 54.250820 116.277672
v 167.072433 60.682068 110.623009
v 160.860428 57.507099 114.268845
v 106.587334 62.041386 116.525681
v 110.731110 64.381050 112.339409
v 154.666214 66.924561 116.758797
v 150.969757 66.807983 116.949081
v 132.274200 63.283192 110.967384
v 108.642220 55.050884 117.981651
v 150.000885 59.930153 113.632935
v 130.739532 67.869476 114.266243
v 154.713669 60.536346 112.229050
v 132.680954 67.715317 112.521492
v 118.626389 54.659798 116.750175
v 106.572929 62.298203 114.380951
v 142.671524 67.388016 114.863029
v 105.997635 56.932171 113.523849
v 185.380188 56.627094 115.205841
v 120.716827 62.386909 120.321106
v 154.449844 61.876286 111.547722
v 122.218216 55.401176 118.372337
v 137.029663 67.655945 115.772408
v 164.844757 59.861748 111.224533
v 122.574623 66.588676 116.608162
v 116.684204 64.670052 118.853050
v 105.709755 58.370346 113.407990
v 120.655151 66.687355 114.604477
v 122.472145 63.894123 119.899147
v 176.997116 56.174587 112.466698
v 157.134674 63.937881 119.709747
v 122.644989 64.611488 109.499390
v 136.484131 60.382061 113.181755
v 174.923355 58.105721 111.672653
v 122.120514 55.072617 116.518578
v 172.851166 62.405720 110.414330
v 132.612259 67.881554 114.415344
v 150.968674 62.482246 112.347366
v 120.715736 58.318645 120.370270
v 162.992767 66.205215 110.444717
v 178.990295 54.921925 118.196167
v 130.666672 65.215332 119.257385
v 114.817238 65.549530 116.215469
v 170.185349 55.085373 114.151154
v 148.892441 64.727226 112.696594
v 136.410370 60.394165 117.951065
v 104.064034 59.568279 117.181587
v 118.715813 64.550247 110.234596
v 151.415222 59.555431 116.472046
v 146.812958 62.487335 117.147430
v 172.957809 56.111103 112.880020
v 169.024887 55.546867 117.979874
v 180.052750 53.245388 114.153473
v 167.000717 59.631119 111.244171
v 120.667900 56.072060 112.863434
v 106.699013 60.364815 112.416870
v 130.607040 67.510315 116.785851
v 182.759293 56.350895 113.043991
v 124.269669 57.070572 119.764694
v 172.875595 60.225594 110.881790
v 179.303329 60.728569 119.691048
v 126.577751 60.356850 120.413956
v 105.694893 55.387711 116.564423
v 182.058395 55.153484 117.640678
v 165.129166 57.174118 119.678894
v 128.047256 63.603523 109.270660
v 179.053696 62.504559 111.065575
v 130.540649 58.766079 112.950592
v 118.571419 56.300621 119.865395
v 124.524788 62.386806 120.321396
v 175.068970 54.426197 116.426163
v 136.342758 67.563171 113.365440
v 150.930588 67.791069 114.532417
v 185.492340 57.575710 115.879532
v 170.986679 55.264973 118.320587
v 114.654053 62.090954 120.068161
v 144.731705 64.763138 113.386002
v 132.468094 58.920376 118.739014
v 176.973038 55.775570 119.398163
v 168.818787 56.864868 119.821693
v 106.742386 61.392601 118.302727
v 166.993347 67.143539 114.246887
v 166.993149 64.144279 119.849190
v 119.630516 59.582901 111.128326
v 182.936874 60.228378 118.410538
v 126.644997 66.465843 117.966652
v 184.028503 56.971802 117.673973
v 107.383453 55.359917 113.449928
v 179.015060 58.332302 111.590065
v 180.849182 60.130260 119.303940
v 149.808975 62.378799 117.785522
v 162.927155 67.087784 112.279434
v 116.374252 55.067501 113.330452
v 114.687729 64.279007 118.497063
v 112.605377 61.872124 119.974731
v 112.795448 65.539154 112.788383
v 177.029526 54.338089 114.482231
v 122.621735 66.924232 112.466324
v 128.544373 67.757637 114.527100
v 109.834084 63.800224 115.011322
v 170.754639 55.742161 119.160904
v 176.100220 65.369453 117.557747
v 122.394478 56.431103 113.031792
v 134.592010 64.698578 118.600342
v 147.023499 64.715080 113.061539
v 146.792999 67.435631 116.095924
v 120.623863 66.372627 116.425934
v 162.912292 60.841270 110.789474
v 140.312180 66.201927 113.205696
v 135.973587 67.749031 115.405121
v 129.204239 57.195965 119.196358
v 180.877655 60.526237 111.306808
v 148.849655 66.777611 116.817833
v 130.660309 62.384026 120.232582
v 118.677696 66.395012 114.632576
v 110.507133 62.465385 119.007324
v 124.501724 62.545990 109.710358
v 150.976974 59.540901 114.535805
v 170.880798 56.346581 113.008148
v 136.471558 59.262337 116.519516
v 166.918701 56.024624 116.705269
v 160.858505 65.381165 119.099709
v 140.628082 64.755836 117.418831
v 120.602486 54.836891 116.646996
v 180.921646 56.119080 118.796227
v 156.813324 62.346912 120.124985
v 126.571655 64.522377 109.206810
v 179.134048 54.162701 116.573479
v 138.522415 67.750381 114.535698
v 153.273178 59.521843 117.687271
v 160.883469 67.376572 112.281593
v 138.459167 59.612507 114.721611
v 103.868958 58.273224 117.054321
v 105.668015 60.371658 113.341805
v 161.248093 57.094765 117.525665
v 185.044891 58.279556 116.580849
v 167.009995 60.358101 120.465324
v 180.503540 53.258736 114.129417
v 161.087952 61.035500 110.906830
v 112.512825 57.965858 111.391068
v 144.762894 61.097858 116.257736
v 168.854691 60.686165 110.642296
v 182.974365 54.739746 116.467644
v 106.723518 56.246670 113.226707
v 126.575897 60.800804 110.738495
v 122.467812 58.194576 111.936951
v 124.697067 66.273521 117.893204
v 153.696213 66.269272 111.424927
v 134.684235 66.840614 112.018707
v 129.991928 57.268887 115.056526
v 162.944901 66.977356 116.530487
v 122.473648 62.387402 120.326904
v 132.301254 62.398315 120.008820
v 118.705002 58.164368 111.636154
v 176.803299 64.000412 111.166832
v 146.798157 64.741821 117.346199
v 158.930893 58.283211 118.892006
v 163.948578 57.300838 113.272682
v 168.772003 58.252415 111.949799
v 112.587372 63.766884 118.396935
v 126.576324 63.914608 119.922981
v 156.781723 67.453659 111.829582
v 129.309967 67.383301 117.652626
v 156.750610 67.735161 112.522552
v 158.916092 66.324959 117.961632
v 172.868774 60.355850 120.431404
v 144.720825 67.378700 114.901154
v 164.964905 58.360062 120.222679
v 130.406250 64.718544 110.177658
v 168.768021 60.358028 120.469337
v 184.486786 60.246082 116.595627
v 172.315567 63.567368 119.884766
v 178.216095 63.669247 118.047470
v 106.615227 60.174683 119.197281
v 116.346649 63.439850 119.757652
v 110.485802 54.908150 118.302254
v 116.608994 60.397655 110.605713
v 180.830231 62.231495 111.392502
v 167.656952 64.884026 109.040001
v 150.953690 62.476128 118.101631
v 130.661423 63.913124 119.920830
v 134.742523 59.529373 113.367699
v 110.718597 61.369373 119.845169
v 141.979126 62.778915 113.088051
v 158.898483 59.193615 119.900337
v 109.198730 63.403996 111.560547
v 120.642494 60.628429 110.749504
v 110.466705 58.323544 120.285202
v 138.763626 64.915359 117.653168
v 127.036705 57.397434 119.641724
v 112.622025 56.285694 119.925598
v 122.447861 66.971329 114.557289
v 124.524834 60.358311 120.446716
v 170.739975 62.535915 110.168022
v 155.541092 61.097095 119.906982
v 156.904251 58.810535 118.815651
v 143.907639 59.709942 114.124413
v 142.695343 66.759834 116.754189
v 111.095032 63.880035 117.169785
v 160.776001 67.463982 114.404297
v 136.501022 62.417526 118.375870
v 114.413383 54.372917 114.449745
v 120.744583 64.984734 119.075623
v 126.626518 67.203583 116.431915
v 130.541748 59.001305 119.794952
v 114.484390 54.934059 113.270767
v 118.525124 55.126408 118.665657
v 133.282074 60.421852 119.443359
v 167.075943 65.280151 119.119743
v 162.932892 57.093235 114.241104
v 104.226768 58.274277 116.302490
v 150.762100 67.525543 116.087891
v 108.458496 54.636879 116.417679
v 177.128723 62.664932 119.381447
v 128.630295 67.451920 116.724571
v 128.620682 66.864113 118.013046
v 162.290237 57.038338 115.030136
v 168.709488 59.574989 111.184532
v 136.472412 68.003937 114.590347
v 160.854187 62.507217 110.189926
v 167.050720 57.029881 119.726723
v 134.865143 67.922523 114.841507
v 156.621124 64.988579 119.039345
v 156.925858 58.367596 114.326317
v 131.938293 59.449844 119.638657
v 138.704086 60.175327 113.704376
v 106.169510 55.787697 114.789253
v 118.872795 66.074188 116.623993
v 116.614067 60.355640 120.416519
v 104.882492 60.157131 118.102722
v 106.538353 56.289932 118.375862
v 118.560974 56.160458 112.594177
v 144.732559 62.387417 113.413864
v 112.513535 60.339542 120.314987
v 136.539581 64.739700 118.114441
v 160.863129 60.368977 120.342239
v 133.376816 62.387390 119.590454
v 116.283852 65.383163 117.378418
v 140.339661 61.185802 113.271492
v 152.899628 60.274494 112.782578
v 178.750397 64.269493 116.726463
v 105.169563 60.353241 114.507378
v 120.892769 55.301399 113.654305
v 138.568222 64.742851 112.599876
v 118.665161 58.318325 120.370583
v 120.784943 64.610291 110.046593
v 161.040787 58.604885 119.875923
v 160.623306 57.709930 119.042816
v 150.290146 64.976822 117.750854
v 181.110550 58.232941 119.518600
v 122.649117 66.120712 110.670944
v 183.964233 61.526608 114.238449
v 105.692329 55.390499 116.559105
v 161.751511 57.203991 114.422142
v 174.906448 60.232773 110.942276
v 166.943542 66.030678 110.368179
v 108.351852 63.303902 114.614769
v 126.584915 58.338024 120.152023
v 158.763657 67.432129 111.831902
v 145.838593 62.356346 113.279953
v 172.870346 58.320988 120.356636
v 164.965286 62.246414 109.740822
v 122.473297 58.324444 120.334885
v 125.527138 67.671539 112.960060
v 128.812424 60.078117 111.510323
v 114.559349 56.292591 119.787056
v 133.975021 65.249153 111.223694
v 174.872879 64.569687 118.790054
v 180.804443 54.976467 117.882019
v 134.783401 62.403000 111.987770
v 106.991158 55.400414 117.717606
v 155.029709 59.178066 118.224686
v 107.342278 55.040436 114.268898
v 132.891769 67.345665 111.892784
v 154.642822 67.518967 112.125114
v 138.708588 60.260983 116.887703
v 130.028519 67.413826 117.632362
v 115.264030 65.387589 111.311760
v 142.658508 66.805580 114.056496
v 148.887955 59.821682 114.334183
v 160.930664 66.994148 116.653259
v 148.723694 67.361359 113.894020
v 105.702415 55.383419 116.559898
v 130.788803 57.375954 116.625069
v 167.017731 58.307396 112.042839
v 152.886627 66.967842 112.286896
v 114.352615 65.189438 116.935677
v 170.871277 64.908051 119.165939
v 166.979446 66.846794 116.426781
v 148.868118 67.656654 114.596458
v 110.634552 54.794739 113.348541
v 116.549744 65.992752 112.393959
v 178.476944 65.287979 113.154419
v 140.654541 67.390427 116.078339
v 122.373528 60.680603 110.771744
v 138.578217 66.885422 116.712570
v 184.463181 60.218723 114.390907
v 160.954193 58.777641 112.599274
v 178.195587 65.536530 113.938515
v 182.970459 58.330647 118.612900
v 132.571579 58.057625 116.537331
v 121.926720 55.154884 114.475273
v 108.523140 56.180519 112.593971
v 120.567757 55.134315 118.329285
v 110.586922 62.417747 110.779709
v 154.843918 64.600380 118.813423
v 179.606323 63.696556 116.792725
v 158.810501 62.382580 120.262054
v 172.918579 62.479496 120.288757
v 122.357407 56.669979 119.861755
v 146.812927 67.555298 115.131798
v 110.347542 58.090153 111.430313
v 116.615334 56.304695 119.762726
v 158.922363 64.710014 110.262238
v 112.600113 62.397427 110.404953
v 138.131348 59.568504 116.008476
v 154.781052 66.637939 111.334480
v 182.757034 54.691181 114.788162
v 148.879578 60.069462 113.750778
v 162.024323 64.827202 109.065796
v 156.801041 62.650154 110.734924
v 114.540878 54.353230 116.474846
v 118.503174 54.776749 114.415672
v 173.074203 54.697903 116.508644
v 178.375763 63.730881 111.322357
v 154.829071 67.801537 112.676941
v 164.961578 63.519520 109.191612
v 174.926834 56.063709 112.661926
v 114.291733 59.146038 110.946350
v 174.863068 66.188148 116.397583
v 112.462250 64.669456 116.478989
v 152.798706 67.929405 114.285767
v 179.033325 62.434547 118.747993
v 108.399406 58.259712 120.216972
v 180.748367 54.867928 113.310272
v 122.474113 60.357788 120.468597
v 154.885300 58.554806 116.521088
v 162.905334 65.386436 119.094337
v 154.360107 67.913284 113.927605
v 107.513550 63.356857 113.272911
v 104.024338 58.318169 117.700691
v 151.094940 66.698570 112.808899
v 156.486465 66.951408 116.644516
v 176.836288 64.419327 118.146004
v 140.666260 66.774193 116.748001
v 174.941727 54.945469 118.330521
v 156.834457 60.409733 120.159523
v 116.576965 56.193607 112.403069
v 140.733002 60.553379 113.796288
v 170.914566 54.962170 116.540138
v 129.765152 57.023590 115.994316
v 114.540283 65.857948 114.287971
v 117.342056 63.525291 119.861877
v 138.394714 66.692665 113.076736
v 116.653145 65.907555 116.556412
v 164.989670 58.370987 112.176392
v 172.841858 66.332573 112.521080
v 156.157257 59.923714 119.641602
v 166.989288 57.045517 113.208023
v 153.193771 67.891907 114.856079
v 108.256126 60.736340 119.675026
v 134.735916 62.493412 119.005028
v 148.851852 62.429089 117.545372
v 134.814728 67.144173 116.728188
v 118.641861 62.536060 110.126633
v 153.607758 63.626842 111.177544
v 184.170670 55.019863 115.292076
v 170.175217 55.089825 114.150948
v 142.652100 61.038570 116.281242
v 125.538620 63.531231 109.097092
v 153.097626 59.090481 114.272560
v 177.141418 54.934032 113.387161
v 124.533875 59.917610 111.180748
v 147.031708 62.452736 113.087677
v 158.746292 65.354172 119.023201
v 120.676735 65.771538 117.956917
v 126.556999 63.486450 109.066704
v 118.847939 66.325935 112.604324
v 165.135162 56.726273 114.445251
v 182.944687 58.258549 112.522034
v 167.120361 56.256676 118.722542
v 112.496635 62.743973 119.449509
v 126.639122 67.620857 114.425896
v 176.965851 60.227768 111.013809
v 116.614349 58.322113 120.345863
v 150.979813 60.464878 113.152527
v 180.664581 64.008934 112.521301
v 175.021957 55.163025 113.404015
v 144.742111 64.741272 117.290024
v 185.436813 56.749302 115.765419
v 116.614166 62.495377 110.151024
v 158.977783 58.886772 112.881592
v 164.912109 56.464756 116.798195
v 132.661087 58.291756 114.482491
v 112.645218 64.088615 110.981277
v 122.639069 66.008286 117.974442
v 180.193146 58.338066 119.842598
v 140.569290 60.723618 116.294579
v 158.842850 58.001053 114.472435
v 162.960373 58.327927 112.561867
v 130.572815 66.438255 110.872559
v 120.715042 58.132744 111.816757
v 176.863113 56.617527 119.929893
v 162.285217 64.952965 109.053062
v 164.761230 66.900772 116.598007
v 181.908401 63.488247 112.900986
v 163.046997 56.982262 118.913734
v 155.403992 62.129505 119.869858
v 108.581924 60.101311 120.048813
v 176.951202 60.324905 120.259201
v 164.908249 67.204781 114.606216
v 134.739197 60.442219 112.695625
v 116.718826 54.515980 116.394966
v 170.816513 62.381748 120.296890
v 133.360046 67.950233 113.924927
v 126.582260 59.947777 111.305840
v 122.483452 65.072762 119.113647
v 162.210403 64.957306 109.087524
v 153.009979 67.657677 113.228722
v 129.339005 56.949432 117.088966
v 104.761246 58.285866 118.301453
v 124.684349 67.434219 112.547249
v 177.001175 65.027832 111.952324
v 147.461151 66.241127 113.360329
v 112.473976 54.250561 116.391586
v 152.976929 64.697357 118.360672
v 124.520569 58.347416 120.250710
v 148.831863 64.763321 117.493546
v 184.955887 58.169357 114.291367
v 118.877548 63.762909 119.873596
v 184.186722 58.350937 117.828957
v 129.287582 57.231609 119.204185
v 181.114105 56.221798 112.625252
v 140.659531 62.396267 112.951202
v 104.869171 56.922649 117.815620
v 142.689087 64.742279 117.303673
v 146.691330 67.002747 114.052765
v 172.904572 55.302975 113.683243
v 170.807785 65.977158 117.975906
v 145.827515 64.830330 113.264244
v 164.953964 65.370781 119.085442
v 175.069000 63.180244 119.665115
v 134.660492 66.255264 117.774094
v 126.541939 58.245693 112.390030
v 123.358307 64.825722 109.283455
v 128.624817 65.242592 119.289162
v 120.723640 62.381603 110.126419
v 134.355621 59.384708 118.028732
v 117.371384 65.424973 117.769485
v 116.976334 65.536987 111.124626
v 158.813690 60.387505 120.266838
v 176.949783 62.390522 110.847534
v 184.151245 58.651424 113.318832
v 162.904846 59.977348 111.360100
v 136.507217 62.481709 112.365753
v 168.761475 65.129562 119.155205
v 167.580124 64.943268 109.044533
v 172.779968 66.421761 116.587486
v 108.584137 54.584999 114.534966
v 162.908081 62.388035 120.324448
v 107.795097 57.438801 119.708115
v 158.872482 57.725117 116.729210
v 110.796143 63.705471 111.201996
v 158.796341 67.734192 112.512154
v 128.626205 62.386375 120.300011
v 170.610733 66.895447 114.318130
v 153.346115 64.801628 111.173180
v 108.385277 58.248535 111.911957
v 165.034302 57.215260 113.133522
v 113.010590 65.533852 114.035187
v 165.098740 60.665619 110.719604
v 128.566666 66.450241 110.414680
v 144.673355 59.753807 114.083443
v 168.768478 58.328373 120.329018
v 122.476799 62.387016 110.007202
v 108.667152 60.509480 111.268166
v 160.702362 57.227341 116.474510
v 148.910278 60.724945 113.235641
v 114.562569 58.321651 120.343628
v 178.695053 60.107571 120.016327
v 168.842606 56.719872 113.108612
v 166.895096 66.976128 112.592392
v 112.502182 56.034885 112.266777
v 174.907349 62.412502 110.651871
v 112.573349 54.248707 114.379585
v 124.524055 63.902805 119.902771
v 138.723999 67.386765 113.788628
v 172.911896 58.119774 111.739029
v 128.563965 60.963078 110.903702
v 138.567200 62.442314 112.708893
v 163.063522 56.802914 117.045807
v 148.882294 62.437019 112.758301
v 107.029823 62.127403 112.658813
v 145.834457 59.739185 114.090759
v 136.427170 66.910172 112.643311
v 164.919098 67.038002 112.562309
v 112.512627 58.316162 120.358978
v 142.042664 64.417595 113.074898
v 129.318008 57.185097 119.154907
v 105.487915 61.009682 117.883347
v 182.314392 63.380589 114.169769
v 132.791550 67.332733 116.490936
v 157.593643 59.544975 119.904976
v 114.691238 64.470047 110.662178
v 118.706474 65.629288 117.871620
v 120.656586 55.688984 119.372696
v 105.056213 58.337391 114.546577
v 162.186478 64.893394 109.048988
v 114.570686 55.136429 118.715271
v 129.982941 68.047493 112.250938
v 140.631516 60.169052 114.655388
v 152.883606 62.364250 111.861115
v 166.508850 63.519936 109.200035
v 151.318420 64.558487 118.011147
v 104.121414 59.505585 117.655884
v 139.420715 62.534576 117.653404
v 155.854385 61.481976 111.445366
v 124.680840 66.936409 116.464096
v 174.920517 58.320438 120.346169
v 180.131454 53.247028 114.149841
v 136.297241 59.253254 114.561638
v 114.513229 56.091507 112.316681
v 156.789856 58.159008 116.424019
v 110.482803 54.353756 116.421722
v 144.702835 59.732151 114.114494
v 108.620377 62.364227 111.467766
v 176.786560 65.687920 112.942055
v 146.862976 60.806087 116.197357
v 118.664825 60.357780 120.455032
v 178.956726 58.326965 120.142921
v 174.817825 65.639862 117.719208
v 132.745941 64.771873 119.144753
v 114.746178 65.809967 112.599915
v 183.487473 55.644855 117.277977
v 129.585815 57.219128 119.109695
v 176.963593 58.324074 120.267715
v 118.808533 65.571838 110.909081
v 137.189957 65.696060 117.624809
v 112.410065 65.305916 112.323883
v 156.860138 66.614212 111.049583
v 172.786484 64.592667 110.617889
v 170.170776 55.085190 114.161072
v 174.847092 66.358093 114.447762
v 116.646233 66.115547 114.602867
v 185.467392 57.534431 115.158554
v 150.410172 60.165920 116.983383
v 110.393784 55.731224 119.372383
v 168.747055 55.440228 116.786560
v 181.331543 62.890480 111.829712
v 182.691208 61.378269 117.926193
v 114.037590 65.339165 111.673538
v 133.862396 66.229027 111.367699
v 174.808182 62.175674 120.090851
v 108.610062 63.692657 112.367744
v 170.620361 65.846848 110.922867
v 172.436935 65.666748 111.132584
v 130.066422 61.288410 111.074158
v 184.019485 60.143818 113.250610
v 110.135025 63.512100 116.683701
v 154.956345 64.691666 110.789597
v 107.999039 59.917706 111.516365
v 124.521919 60.790565 110.711922
v 134.626938 58.798397 114.444550
v 144.747910 67.343979 116.097137
v 148.840652 67.420898 116.087906
v 122.943443 55.285717 116.689835
v 112.511986 59.113255 110.910904
v 129.455841 68.043915 112.244583
v 152.455399 64.616203 111.523590
v 154.815125 67.825500 114.469383
v 126.127480 57.355671 119.748596
v 180.925735 64.033508 114.575180
v 168.732849 66.082085 118.063568
v 108.738365 61.915295 118.699547
v 116.616974 58.274025 111.417259
v 114.682411 58.063755 111.346992
v 160.832840 66.393158 117.935547
v 162.907532 64.158493 119.853149
v 126.489433 67.496437 111.831841
v 126.374641 56.387150 116.637550
v 164.960037 64.153320 119.843399
v 149.005768 66.609329 113.206161
v 116.624123 62.370163 120.184128
v 179.023453 54.590782 113.318184
v 126.576164 62.386421 120.316216
v 124.571503 64.528488 109.197250
v 114.582092 62.448349 110.245323
v 104.538483 60.191910 116.563805
v 111.222328 63.525627 117.997643
v 129.008881 57.550049 113.866791
v 132.720871 60.556587 112.216621
v 170.819092 60.357880 120.464859
v 105.407700 61.281643 116.587524
v 167.010208 62.390160 120.338295
v 129.211655 68.039215 112.265282
v 116.697594 64.568398 110.452736
v 128.655090 62.575150 109.916954
v 126.437630 56.847431 118.949165
v 181.493469 59.900833 111.529488
v 124.280174 57.000420 112.982666
v 178.771957 56.888912 119.835106
v 177.525253 65.528877 115.462807
v 151.404037 60.685135 117.723969
v 173.462067 63.461262 119.778496
v 120.773026 65.897087 110.900368
v 156.984329 66.139175 118.002243
v 125.823936 57.239586 113.174461
v 158.904816 67.005821 116.588264
v 134.622772 58.719997 116.548065
v 160.857483 64.158318 119.845802
v 183.686600 61.512974 113.302101
v 173.010849 55.082241 118.319145
v 138.407272 60.799118 113.173706
v 162.909760 60.360794 120.413956
v 156.840576 59.104607 113.056664
v 112.454185 54.759182 113.311897
v 177.335281 65.135513 116.682457
v 173.845993 65.489456 111.392921
v 116.591789 55.189968 118.704491
v 173.068939 54.886269 114.494614
v 118.672050 62.380299 120.275085
v 154.967331 63.004784 111.043236
v 108.472641 55.068710 113.404953
v 128.505844 58.629688 119.973213
v 104.176926 57.249840 117.568520
v 136.474533 67.146935 116.872879
v 154.767914 58.691097 114.504364
v 108.360344 56.014275 119.236229
v 184.162262 54.990582 115.783272
v 172.984299 66.645767 114.581482
v 154.790268 60.467461 119.333710
v 169.994736 55.132969 116.130066
v 150.935791 67.542976 113.752312
v 122.602753 55.503933 114.159477
v 183.986969 61.232555 116.767174
v 133.680008 63.807987 111.325752
v 136.015991 66.012383 117.724022
v 172.894531 55.715935 119.344955
v 179.927597 53.256218 114.156586
v 118.631836 64.761429 119.016479
v 131.165833 61.565083 111.254066
v 132.616638 59.158749 113.209755
v 110.491112 60.305443 120.225945
v 128.624161 60.374241 120.321114
v 137.090332 59.914486 117.365486
v 163.178787 57.508724 119.662163
v 181.159668 63.105488 116.471153
v 170.819687 58.324944 120.338470
v 130.696075 60.247124 111.895866
v 162.860092 67.310181 114.520187
v 183.733749 61.034946 117.519188
v 112.677643 54.892754 118.555038
# 835 vertices, 0 vertices normals

f 708 677 55
f 143 120 814
f 82 63 510
f 527 285 800
f 464 383 334
f 737 163 676
f 334 833 594
f 774 825 365
f 643 793 761
f 76 558 793
f 357 91 413
f 106 506 307
f 779 574 548
f 600 212 386
f 331 650 743
f 128 106 127
f 216 409 796
f 514 653 226
f 482 6 96
f 187 393 583
f 658 215 429
f 479 206 14
f 10 483 614
f 258 284 795
f 777 764 266
f 389 73 276
f 169 233 546
f 590 829 74
f 656 324 711
f 25 153 450
f 506 198 307
f 347 345 647
f 654 237 186
f 40 656 416
f 596 385 505
f 223 587 88
f 32 769 116
f 83 304 731
f 810 554 520
f 568 166 412
f 193 811 359
f 248 158 351
f 181 416 260
f 344 34 134
f 170 76 793
f 314 275 833
f 601 63 691
f 278 299 565
f 410 456 327
f 94 794 435
f 381 161 138
f 361 295 58
f 326 717 146
f 21 209 358
f 666 389 705
f 144 798 575
f 292 35 670
f 492 787 736
f 205 87 749
f 440 523 24
f 806 642 121
f 654 207 237
f 402 312 14
f 150 240 22
f 469 500 458
f 650 695 549
f 115 588 472
f 673 617 427
f 99 590 674
f 571 555 213
f 210 317 690
f 457 735 332
f 377 39 219
f 531 758 759
f 756 115 117
f 137 643 179
f 428 712 222
f 760 464 334
f 779 548 231
f 467 615 484
f 152 830 50
f 586 702 719
f 831 353 775
f 670 56 312
f 484 261 792
f 295 54 58
f 167 347 647
f 153 819 107
f 676 523 199
f 77 457 197
f 828 229 459
f 542 562 83
f 217 213 45
f 806 121 474
f 457 25 735
f 71 329 155
f 65 696 640
f 561 38 211
f 287 626 418
f 314 383 80
f 55 463 502
f 86 785 800
f 163 737 24
f 89 831 444
f 175 471 355
f 724 219 81
f 431 340 430
f 111 167 791
f 224 262 142
f 119 90 738
f 445 186 182
f 570 58 589
f 65 640 439
f 112 53 192
f 518 236 59
f 419 170 797
f 796 422 673
f 62 336 420
f 481 187 583
f 298 561 211
f 148 699 372
f 110 489 214
f 114 760 334
f 342 664 302
f 437 187 400
f 768 344 648
f 529 156 130
f 156 66 262
f 718 682 615
f 652 583 341
f 757 544 264
f 527 356 516
f 273 580 663
f 487 205 307
f 607 228 765
f 210 201 327
f 763 294 12
f 260 443 623
f 321 236 703
f 476 6 482
f 523 163 24
f 95 357 592
f 105 804 203
f 658 630 478
f 502 463 301
f 465 816 256
f 462 181 260
f 646 498 578
f 268 152 733
f 190 543 753
f 35 181 462
f 605 762 98
f 167 647 383
f 221 569 423
f 623 288 607
f 166 259 412
f 340 368 430
f 306 372 479
f 824 774 53
f 619 381 572
f 269 387 399
f 832 251 825
f 745 556 599
f 663 397 244
f 262 66 586
f 601 503 587
f 577 37 484
f 403 322 291
f 747 350 289
f 191 395 139
f 187 660 160
f 809 293 402
f 326 10 717
f 310 560 249
f 122 295 20
f 186 237 401
f 704 315 409
f 714 641 513
f 30 188 199
f 403 291 63
f 551 731 815
f 753 509 111
f 772 742 382
f 217 511 213
f 391 62 420
f 457 332 109
f 374 680 449
f 548 46 630
f 312 477 14
f 209 632 823
f 695 196 204
f 315 303 499
f 60 750 512
f 353 777 84
f 216 704 409
f 793 305 761
f 534 12 467
f 750 759 512
f 152 273 516
f 708 656 677
f 23 803 254
f 189 1 737
f 245 768 827
f 294 682 603
f 416 55 443
f 31 392 639
f 526 111 791
f 214 406 76
f 294 682 615
f 700 144 504
f 94 58 794
f 797 170 643
f 587 65 88
f 221 423 695
f 646 737 369
f 678 537 670
f 92 338 606
f 518 616 36
f 365 704 216
f 351 797 137
f 40 380 656
f 570 732 58
f 298 475 561
f 525 752 469
f 755 570 684
f 313 786 143
f 429 215 788
f 569 301 554
f 380 708 656
f 523 440 199
f 505 608 692
f 817 485 749
f 282 195 240
f 742 299 757
f 530 309 634
f 102 242 781
f 359 811 730
f 632 538 688
f 16 672 780
f 397 527 516
f 785 6 800
f 158 419 797
f 542 83 664
f 824 832 774
f 425 78 776
f 720 38 561
f 101 367 681
f 592 357 544
f 326 247 10
f 781 754 373
f 576 74 564
f 623 443 288
f 565 299 343
f 611 136 296
f 751 778 77
f 504 144 154
f 648 344 134
f 740 832 824
f 187 582 660
f 439 157 119
f 751 77 195
f 604 91 414
f 97 436 316
f 575 582 187
f 817 104 286
f 795 821 529
f 183 486 651
f 476 85 570
f 703 280 311
f 22 685 547
f 657 320 353
f 567 45 272
f 679 665 265
f 143 363 120
f 595 365 216
f 100 492 736
f 9 130 224
f 620 465 473
f 54 563 636
f 661 502 194
f 764 521 624
f 321 822 703
f 658 745 300
f 333 534 467
f 47 37 251
f 486 806 474
f 503 587 691
f 169 546 729
f 35 462 200
f 15 750 60
f 490 152 516
f 300 328 16
f 329 783 155
f 562 576 304
f 147 384 126
f 672 740 112
f 90 377 219
f 296 289 748
f 609 11 64
f 639 756 471
f 176 64 190
f 419 491 170
f 577 484 746
f 483 273 268
f 351 137 129
f 375 208 211
f 641 813 726
f 166 278 259
f 759 758 43
f 380 581 552
f 153 192 819
f 15 659 495
f 83 731 551
f 205 487 689
f 86 96 785
f 376 335 253
f 583 393 341
f 113 260 623
f 225 150 715
f 614 72 319
f 470 226 421
f 756 117 2
f 363 697 120
f 286 783 329
f 630 370 478
f 302 621 234
f 39 243 219
f 239 744 659
f 538 727 298
f 620 765 465
f 303 828 459
f 830 490 755
f 494 473 748
f 272 122 20
f 33 420 545
f 50 94 435
f 484 615 261
f 829 430 158
f 256 816 602
f 340 686 368
f 421 226 538
f 576 562 171
f 246 436 466
f 730 145 70
f 521 760 114
f 449 680 662
f 87 205 689
f 752 650 331
f 246 454 466
f 185 703 311
f 585 238 286
f 432 191 697
f 671 234 511
f 204 196 144
f 515 602 522
f 31 639 175
f 831 775 444
f 345 442 647
f 413 524 698
f 116 310 655
f 382 742 514
f 614 268 72
f 710 482 96
f 432 296 191
f 652 393 562
f 502 301 194
f 458 500 723
f 695 423 196
f 136 289 296
f 153 107 450
f 134 34 629
f 537 292 670
f 803 507 254
f 112 740 824
f 559 600 386
f 616 59 241
f 651 486 19
f 23 254 9
f 437 187 393
f 248 351 404
f 615 388 261
f 96 6 785
f 51 15 495
f 450 107 332
f 786 363 143
f 468 542 664
f 690 394 42
f 354 72 834
f 79 605 447
f 34 269 629
f 554 149 520
f 267 585 7
f 602 509 522
f 569 554 423
f 471 622 49
f 325 401 41
f 85 476 710
f 277 343 470
f 188 776 199
f 629 399 225
f 742 757 30
f 323 705 759
f 706 520 379
f 599 47 448
f 182 186 174
f 259 565 21
f 16 328 672
f 163 523 676
f 38 375 211
f 364 629 225
f 830 755 94
f 545 715 287
f 655 352 584
f 202 573 257
f 423 26 196
f 552 132 324
f 547 220 405
f 131 18 403
f 256 602 515
f 461 687 633
f 587 510 65
f 301 463 729
f 87 125 493
f 461 633 475
f 513 726 96
f 436 97 618
f 682 441 807
f 252 568 428
f 694 532 409
f 792 631 303
f 802 505 692
f 235 184 258
f 725 227 803
f 787 49 451
f 149 313 455
f 605 116 762
f 644 44 517
f 611 296 432
f 492 175 355
f 551 227 725
f 776 188 264
f 100 736 593
f 241 59 563
f 453 595 216
f 738 739 540
f 162 397 663
f 21 343 277
f 306 528 619
f 469 458 509
f 83 551 664
f 453 216 638
f 519 335 376
f 117 265 165
f 813 27 726
f 226 535 538
f 349 492 100
f 504 18 131
f 789 526 348
f 170 793 643
f 218 205 749
f 751 778 693
f 711 48 233
f 835 707 359
f 554 301 149
f 574 770 43
f 467 603 615
f 649 75 813
f 189 646 578
f 553 300 560
f 436 618 414
f 634 491 419
f 122 616 563
f 393 160 171
f 475 633 561
f 218 106 307
f 789 176 526
f 580 713 663
f 642 456 466
f 1 440 24
f 179 761 764
f 30 757 188
f 310 69 655
f 535 716 727
f 681 367 181
f 7 329 71
f 508 85 606
f 402 255 312
f 405 598 28
f 506 596 198
f 139 543 190
f 651 19 495
f 85 508 250
f 804 613 203
f 439 119 29
f 667 567 635
f 690 317 425
f 752 695 650
f 49 13 451
f 316 436 394
f 261 391 631
f 281 434 32
f 715 150 22
f 560 16 249
f 49 622 13
f 678 124 427
f 781 242 754
f 236 185 501
f 556 627 599
f 699 151 372
f 345 108 442
f 111 347 167
f 58 741 794
f 593 736 162
f 736 625 162
f 182 174 157
f 142 586 784
f 88 439 665
f 318 99 674
f 634 309 491
f 177 504 131
f 691 587 223
f 159 588 115
f 811 91 644
f 25 450 735
f 417 366 278
f 231 630 429
f 208 375 701
f 319 728 257
f 524 316 698
f 52 189 722
f 236 518 767
f 64 139 190
f 3 769 32
f 423 4 26
f 621 803 23
f 57 146 573
f 702 349 100
f 113 620 494
f 144 575 141
f 472 265 117
f 786 274 363
f 566 98 282
f 674 590 576
f 212 600 669
f 242 610 754
f 489 176 406
f 338 635 250
f 638 216 796
f 206 402 14
f 729 786 232
f 233 339 546
f 720 429 788
f 39 41 671
f 533 258 795
f 494 620 473
f 520 455 379
f 444 775 349
f 717 10 270
f 417 278 166
f 806 271 456
f 215 434 788
f 687 574 779
f 655 103 352
f 218 485 106
f 664 725 302
f 13 622 641
f 183 210 327
f 612 202 728
f 636 563 612
f 91 604 413
f 411 298 211
f 439 640 362
f 456 410 466
f 793 558 305
f 325 39 377
f 115 472 117
f 441 376 245
f 138 747 136
f 512 759 43
f 352 112 153
f 470 514 226
f 639 115 756
f 766 536 804
f 394 436 42
f 398 282 240
f 201 690 42
f 660 645 431
f 571 280 555
f 168 239 676
f 771 698 230
f 712 766 804
f 252 428 125
f 154 144 141
f 303 229 828
f 4 554 810
f 570 589 684
f 447 605 98
f 388 123 408
f 362 182 157
f 308 142 784
f 787 451 625
f 339 138 136
f 737 1 24
f 627 93 178
f 434 281 788
f 294 682 718
f 69 780 352
f 46 337 267
f 405 28 402
f 191 748 395
f 35 101 181
f 242 102 493
f 538 411 688
f 151 418 372
f 608 668 121
f 29 119 75
f 761 305 521
f 411 211 290
f 288 557 675
f 397 516 244
f 619 528 381
f 225 399 150
f 587 63 82
f 672 832 740
f 443 55 557
f 256 515 172
f 18 141 68
f 141 575 481
f 552 148 132
f 63 587 691
f 336 61 715
f 6 424 800
f 362 640 157
f 84 31 597
f 185 452 247
f 769 310 116
f 1 189 52
f 237 342 401
f 618 97 808
f 233 572 339
f 67 502 661
f 802 596 505
f 282 98 778
f 585 286 329
f 294 781 682
f 393 400 160
f 190 753 526
f 598 197 28
f 406 789 558
f 18 68 322
f 296 748 191
f 545 287 384
f 409 532 796
f 672 448 832
f 693 77 197
f 273 663 244
f 799 666 19
f 184 263 140
f 641 726 513
f 471 756 622
f 683 776 264
f 550 812 146
f 773 333 37
f 798 407 582
f 317 168 78
f 360 46 548
f 702 100 719
f 78 676 199
f 222 105 446
f 68 583 637
f 38 720 788
f 393 437 400
f 381 477 161
f 629 269 399
f 283 742 440
f 782 122 563
f 613 209 823
f 622 2 641
f 536 209 613
f 627 178 47
f 45 213 36
f 797 643 137
f 300 745 328
f 203 613 118
f 543 515 753
f 125 222 493
f 517 371 70
f 540 739 801
f 699 581 459
f 680 826 417
f 802 496 390
f 728 202 257
f 795 284 821
f 771 394 690
f 469 752 331
f 814 120 110
f 181 40 416
f 433 308 784
f 52 279 653
f 55 656 711
f 128 127 238
f 281 38 788
f 701 79 387
f 738 724 739
f 410 436 246
f 653 279 716
f 724 81 801
f 2 165 649
f 431 99 318
f 52 722 279
f 196 26 798
f 439 362 157
f 379 541 530
f 814 110 591
f 572 138 339
f 580 784 713
f 532 694 180
f 291 637 207
f 186 401 325
f 743 504 177
f 434 215 3
f 459 229 147
f 783 104 93
f 366 592 544
f 72 354 319
f 784 719 713
f 118 823 386
f 120 697 609
f 391 420 33
f 179 764 777
f 161 200 747
f 204 144 700
f 677 55 711
f 559 823 688
f 833 275 594
f 22 240 685
f 758 415 337
f 12 603 467
f 434 3 32
f 748 473 395
f 792 261 631
f 771 690 425
f 101 292 537
f 138 161 747
f 133 252 689
f 528 477 381
f 91 44 644
f 72 268 834
f 762 751 778
f 197 109 28
f 779 231 720
f 288 675 228
f 802 692 449
f 440 742 30
f 185 236 703
f 261 408 391
f 659 651 495
f 50 435 818
f 173 695 752
f 137 179 320
f 817 749 8
f 751 282 778
f 235 564 184
f 686 530 368
f 687 779 633
f 247 308 10
f 772 514 343
f 597 31 175
f 371 374 70
f 150 346 460
f 774 365 595
f 650 805 743
f 234 23 571
f 771 425 776
f 396 193 359
f 766 21 358
f 533 235 258
f 157 377 90
f 729 546 786
f 19 666 495
f 492 49 787
f 593 162 663
f 410 201 42
f 207 539 468
f 48 619 572
f 667 438 567
f 109 255 402
f 601 587 691
f 156 89 66
f 679 88 665
f 91 811 414
f 363 432 697
f 758 360 43
f 579 208 330
f 124 638 673
f 821 89 156
f 541 814 530
f 664 551 725
f 607 288 228
f 581 315 459
f 239 709 676
f 416 656 55
f 215 628 3
f 295 782 54
f 222 712 105
f 132 619 48
f 642 396 707
f 253 212 669
f 528 479 14
f 195 77 693
f 697 11 609
f 223 88 679
f 650 549 805
f 57 550 146
f 160 576 171
f 501 185 326
f 635 567 20
f 809 405 293
f 400 187 160
f 139 395 172
f 587 82 510
f 452 185 311
f 407 810 706
f 205 218 307
f 236 501 59
f 317 239 168
f 146 614 319
f 267 337 585
f 167 383 464
f 799 668 385
f 463 169 729
f 535 727 538
f 251 577 825
f 251 37 577
f 59 501 57
f 657 353 831
f 455 143 814
f 338 508 606
f 314 223 275
f 739 724 801
f 220 598 405
f 497 403 601
f 557 67 661
f 132 306 619
f 454 246 414
f 626 22 547
f 110 609 489
f 564 235 731
f 546 611 432
f 500 177 723
f 582 645 660
f 326 185 247
f 136 747 289
f 709 488 369
f 268 733 834
f 776 78 199
f 322 68 637
f 368 634 430
f 692 374 449
f 743 805 504
f 813 540 27
f 547 405 809
f 451 714 527
f 73 596 506
f 269 701 387
f 741 480 435
f 556 155 627
f 48 572 233
f 172 515 543
f 353 84 775
f 532 380 40
f 588 594 472
f 302 725 621
f 254 507 529
f 500 743 177
f 280 23 9
f 835 359 730
f 762 116 655
f 575 187 481
f 390 133 487
f 610 519 376
f 521 114 624
f 760 791 464
f 215 628 769
f 39 671 243
f 703 236 767
f 699 459 126
f 129 320 657
f 320 777 353
f 444 349 702
f 344 5 34
f 823 559 386
f 63 291 654
f 316 394 230
f 399 346 150
f 394 771 230
f 275 223 679
f 79 566 387
f 716 475 727
f 438 217 45
f 396 642 466
f 109 332 255
f 114 334 588
f 336 364 61
f 94 755 684
f 249 780 69
f 175 639 471
f 270 10 614
f 671 511 217
f 209 277 421
f 780 112 352
f 712 804 105
f 714 513 86
f 777 266 84
f 616 241 563
f 637 539 207
f 154 141 18
f 633 720 561
f 366 826 592
f 121 668 474
f 293 405 402
f 198 390 307
f 617 101 427
f 36 616 272
f 616 518 59
f 370 71 478
f 207 468 237
f 380 552 324
f 600 579 5
f 332 124 678
f 215 658 300
f 820 626 809
f 342 302 41
f 480 612 354
f 254 529 130
f 666 799 389
f 610 376 441
f 128 506 106
f 550 326 812
f 162 625 397
f 617 40 367
f 145 517 70
f 309 214 491
f 608 835 692
f 570 361 732
f 489 64 176
f 390 252 133
f 7 585 329
f 173 221 695
f 37 333 467
f 433 273 483
f 343 514 470
f 355 471 49
f 753 515 522
f 383 647 80
f 656 380 324
f 741 636 480
f 501 550 57
f 8 781 763
f 346 398 460
f 678 670 312
f 276 506 128
f 348 526 791
f 433 580 273
f 565 343 21
f 157 640 17
f 767 518 36
f 643 761 179
f 584 352 153
f 379 686 340
f 761 521 764
f 263 657 140
f 430 634 419
f 422 617 673
f 375 79 701
f 716 734 461
f 549 695 805
f 456 271 327
f 389 385 73
f 766 358 536
f 721 809 372
f 452 224 142
f 259 21 766
f 193 396 466
f 736 787 625
f 615 807 388
f 45 36 272
f 440 30 199
f 462 113 350
f 399 398 346
f 827 648 123
f 485 817 106
f 108 497 601
f 513 96 86
f 805 700 504
f 726 27 710
f 212 335 118
f 459 147 126
f 384 287 418
f 646 189 737
f 540 801 27
f 835 374 692
f 442 108 164
f 266 392 31
f 573 146 257
f 655 69 103
f 590 74 576
f 211 208 290
f 476 482 710
f 180 708 656
f 810 520 706
f 74 829 248
f 738 90 724
f 499 303 459
f 95 91 357
f 769 560 310
f 474 799 19
f 77 584 25
f 20 295 250
f 641 649 813
f 245 253 768
f 633 779 720
f 203 335 519
f 687 770 574
f 66 444 702
f 496 449 662
f 46 370 630
f 487 133 689
f 399 387 398
f 65 510 696
f 273 152 268
f 558 348 305
f 527 714 285
f 770 60 43
f 385 668 505
f 301 232 149
f 365 746 704
f 271 806 327
f 68 481 583
f 811 644 517
f 66 702 586
f 60 512 43
f 558 789 348
f 742 1 514
f 227 533 507
f 404 351 129
f 77 25 457
f 266 624 392
f 166 568 662
f 601 403 63
f 201 210 690
f 51 323 750
f 258 184 284
f 213 555 767
f 58 54 741
f 496 802 449
f 50 830 94
f 219 667 81
f 635 20 250
f 129 137 320
f 413 771 683
f 424 490 516
f 323 51 495
f 580 433 784
f 178 93 12
f 11 139 64
f 26 407 798
f 448 47 251
f 103 69 352
f 106 426 127
f 571 23 280
f 209 538 632
f 488 646 369
f 624 159 392
f 516 273 244
f 95 592 517
f 735 450 332
f 261 388 408
f 835 135 374
f 26 810 407
f 486 183 327
f 412 766 712
f 388 827 123
f 379 814 541
f 367 40 181
f 390 487 307
f 685 220 547
f 525 173 752
f 360 337 46
f 197 457 109
f 176 190 526
f 726 710 96
f 669 5 344
f 418 721 372
f 354 612 319
f 81 667 635
f 46 7 370
f 310 249 69
f 781 373 682
f 624 114 159
f 243 217 438
f 425 317 78
f 825 577 746
f 473 256 395
f 630 658 429
f 805 204 700
f 733 152 50
f 480 354 435
f 126 418 151
f 56 200 161
f 208 579 290
f 35 56 670
f 328 599 448
f 379 530 686
f 59 57 612
f 811 193 414
f 87 689 125
f 652 562 542
f 780 672 112
f 47 773 37
f 563 59 612
f 604 618 808
f 231 548 630
f 164 601 691
f 201 410 327
f 78 168 676
f 562 304 83
f 478 71 556
f 159 114 588
f 435 354 818
f 243 671 217
f 589 58 684
f 330 208 701
f 675 569 221
f 2 649 641
f 374 135 70
f 75 738 540
f 305 760 521
f 622 756 2
f 645 340 431
f 284 184 140
f 720 231 429
f 638 796 673
f 473 465 256
f 232 786 313
f 453 638 124
f 559 411 290
f 125 428 222
f 104 783 286
f 375 38 281
f 368 530 634
f 602 469 509
f 165 29 75
f 661 194 569
f 604 808 524
f 295 122 782
f 141 481 68
f 653 716 535
f 647 442 80
f 695 204 805
f 337 238 585
f 123 648 297
f 393 652 341
f 105 203 519
f 514 52 653
f 478 556 745
f 704 746 303
f 603 682 615
f 705 531 759
f 586 719 784
f 653 535 226
f 734 687 461
f 713 593 663
f 715 22 287
f 811 517 145
f 5 330 34
f 299 742 772
f 465 525 816
f 458 345 347
f 55 677 463
f 337 415 238
f 192 53 819
f 47 178 773
f 591 110 214
f 694 180 380
f 62 297 336
f 304 564 731
f 350 494 289
f 74 248 564
f 119 157 90
f 356 424 516
f 56 35 200
f 101 617 367
f 139 172 543
f 807 245 827
f 751 77 693
f 601 503 691
f 188 757 264
f 809 402 206
f 490 6 755
f 694 581 380
f 27 801 92
f 510 445 696
f 683 771 776
f 372 809 479
f 411 559 688
f 807 827 388
f 320 179 777
f 637 583 539
f 408 123 62
f 493 222 446
f 158 797 351
f 263 129 657
f 769 553 560
f 111 509 347
f 378 591 530
f 819 53 453
f 746 484 792
f 746 792 303
f 707 396 359
f 455 814 379
f 668 608 505
f 319 612 728
f 285 86 800
f 282 751 195
f 509 753 522
f 829 158 248
f 574 360 548
f 324 132 48
f 339 136 611
f 774 595 453
f 395 256 172
f 350 113 494
f 278 565 259
f 660 674 160
f 578 498 770
f 625 451 397
f 276 128 415
f 612 57 202
f 4 810 26
f 477 528 14
f 366 299 278
f 227 725 533
f 140 657 831
f 67 55 502
f 234 621 23
f 379 340 645
f 811 145 730
f 775 84 597
f 194 301 569
f 46 267 7
f 704 303 315
f 308 433 10
f 804 536 613
f 180 380 708
f 820 809 721
f 452 311 224
f 564 248 404
f 15 60 498
f 209 421 538
f 584 153 25
f 749 87 102
f 765 173 525
f 618 604 414
f 448 251 832
f 544 357 264
f 275 679 594
f 605 32 116
f 806 486 327
f 737 709 369
f 507 533 795
f 239 659 709
f 640 182 362
f 677 711 169
f 331 743 500
f 814 378 530
f 469 331 500
f 418 626 820
f 413 683 264
f 438 45 567
f 229 545 384
f 73 385 596
f 751 584 77
f 822 321 236
f 384 418 126
f 775 597 349
f 401 342 41
f 123 297 62
f 483 268 614
f 104 8 763
f 308 452 142
f 492 355 49
f 754 441 373
f 426 817 238
f 177 131 497
f 93 763 12
f 383 314 833
f 315 694 409
f 572 381 138
f 242 493 446
f 294 718 615
f 297 134 364
f 27 92 710
f 794 741 435
f 631 33 229
f 823 632 688
f 75 540 813
f 134 629 364
f 215 300 769
f 546 339 611
f 50 818 834
f 782 563 54
f 620 623 607
f 196 798 144
f 301 729 232
f 418 820 721
f 750 323 759
f 600 559 579
f 146 319 257
f 529 821 156
f 656 677 55
f 360 574 43
f 596 802 390
f 92 606 710
f 335 212 253
f 10 433 483
f 626 547 809
f 555 280 703
f 104 817 8
f 731 235 533
f 458 723 345
f 682 807 615
f 200 350 747
f 446 105 519
f 18 322 403
f 451 13 714
f 454 193 466
f 758 531 415
f 592 371 517
f 581 694 315
f 696 182 640
f 330 701 269
f 376 253 245
f 246 436 414
f 528 306 479
f 477 56 161
f 1 283 440
f 436 410 42
f 716 461 475
f 364 225 61
f 659 15 709
f 240 150 460
f 219 243 438
f 358 209 536
f 581 699 148
f 13 641 714
f 313 143 455
f 11 191 139
f 816 525 469
f 732 361 58
f 157 174 377
f 387 282 398
f 427 101 537
f 751 655 584
f 415 128 238
f 63 654 445
f 234 571 511
f 445 182 696
f 424 356 800
f 790 93 627
f 533 725 815
f 306 148 372
f 297 364 336
f 41 302 234
f 631 391 33
f 814 591 378
f 242 446 610
f 366 544 757
f 61 225 715
f 771 413 698
f 79 447 566
f 714 86 285
f 566 447 98
f 773 178 333
f 583 652 539
f 160 674 576
f 363 274 432
f 113 623 620
f 228 675 221
f 16 780 249
f 130 156 262
f 590 430 829
f 511 571 213
f 496 568 252
f 21 277 209
f 822 236 703
f 465 765 525
f 5 579 330
f 277 470 421
f 260 416 443
f 356 527 800
f 124 673 427
f 177 497 108
f 374 371 680
f 594 265 472
f 620 607 765
f 335 203 118
f 826 371 592
f 509 458 347
f 725 551 815
f 422 532 40
f 678 427 537
f 58 94 684
f 424 6 490
f 446 519 610
f 648 134 297
f 305 348 760
f 44 91 95
f 719 593 713
f 420 715 545
f 15 488 709
f 387 566 282
f 754 610 441
f 149 232 313
f 488 15 498
f 431 430 590
f 798 582 575
f 762 655 751
f 200 462 350
f 508 338 250
f 183 317 210
f 733 50 834
f 778 77 693
f 228 221 173
f 315 499 459
f 107 453 124
f 539 652 542
f 430 419 158
f 532 422 796
f 520 149 455
f 155 783 627
f 485 218 749
f 675 661 569
f 609 64 489
f 9 254 130
f 333 12 534
f 501 326 550
f 28 109 402
f 398 240 460
f 669 600 5
f 212 118 386
f 348 791 760
f 276 531 705
f 299 772 343
f 809 206 479
f 722 578 687
f 594 679 265
f 491 214 76
f 174 325 377
f 665 439 29
f 582 407 645
f 659 744 651
f 102 87 493
f 108 601 164
f 832 825 774
f 357 413 264
f 406 176 789
f 532 180 380
f 617 422 40
f 616 122 272
f 189 578 722
f 281 32 605
f 12 294 603
f 581 148 552
f 15 51 750
f 195 693 220
f 803 227 507
f 180 380 656
f 193 454 414
f 658 478 745
f 375 281 79
f 317 183 239
f 526 753 111
f 92 81 338
f 148 306 132
f 345 723 108
f 255 678 312
f 722 734 716
f 325 41 39
f 442 164 314
f 562 393 171
f 299 366 757
f 783 93 790
f 412 259 766
f 303 631 229
f 599 627 47
f 646 488 498
f 279 722 716
f 642 806 456
f 557 661 675
f 443 557 288
f 97 316 524
f 195 220 685
f 184 404 263
f 79 281 605
f 801 81 92
f 835 608 707
f 392 159 115
f 34 330 269
f 709 737 676
f 328 448 672
f 725 803 621
f 53 774 453
f 390 496 252
f 84 266 31
f 711 233 169
f 6 570 755
f 486 474 19
f 772 382 514
f 383 833 334
f 680 417 662
f 666 323 495
f 628 769 3
f 441 245 807
f 289 494 748
f 817 426 106
f 404 129 263
f 708 656 55
f 98 762 778
f 219 438 667
f 90 219 724
f 799 385 389
f 442 314 80
f 238 817 286
f 538 298 411
f 322 637 291
f 274 546 432
f 468 664 342
f 668 799 474
f 722 687 734
f 89 444 66
f 604 524 413
f 76 406 558
f 392 115 639
f 237 468 342
f 808 97 524
f 41 234 671
f 146 270 614
f 462 260 113
f 576 564 304
f 220 197 598
f 164 691 223
f 689 252 125
f 165 75 649
f 613 823 118
f 660 431 318
f 309 591 214
f 101 681 181
f 349 597 492
f 371 826 680
f 564 404 184
f 514 1 52
f 121 642 707
f 213 767 36
f 88 65 439
f 821 140 89
f 783 790 627
f 362 640 17
f 314 164 223
f 6 476 570
f 112 824 53
f 135 835 730
f 539 542 468
f 152 490 830
f 63 445 510
f 636 612 480
f 253 669 768
f 360 758 337
f 284 140 821
f 699 126 151
f 373 441 682
f 498 60 770
f 579 559 290
f 214 489 406
f 825 746 365
f 99 431 590
f 336 715 420
f 660 318 674
f 130 262 224
f 491 76 170
f 423 554 4
f 135 730 70
f 265 665 29
f 178 12 333
f 239 183 651
f 323 666 705
f 55 67 557
f 262 586 142
f 744 239 651
f 463 677 169
f 819 453 107
f 292 101 35
f 410 246 466
f 8 749 102
f 719 100 593
f 332 107 124
f 791 167 464
f 812 326 146
f 8 102 781
f 202 57 573
f 769 300 553
f 140 831 89
f 568 496 662
f 765 228 173
f 745 599 328
f 764 624 266
f 546 274 786
f 332 678 255
f 119 738 75
f 71 155 556
f 361 85 250
f 555 703 767
f 117 165 2
f 417 166 662
f 504 154 18
f 816 469 602
f 408 62 391
f 85 361 570
f 240 195 685
f 146 717 270
f 56 477 312
f 229 384 147
f 827 768 648
f 287 22 626
f 54 636 741
f 37 467 484
f 120 609 110
f 597 175 492
f 33 545 229
f 300 16 560
f 452 308 247
f 265 29 165
f 697 191 11
f 157 362 17
f 507 795 529
f 127 426 238
f 731 533 815
f 698 316 230
f 818 354 834
f 723 177 108
f 112 192 153
f 407 706 645
f 497 131 403
f 567 272 20
f 334 594 588
f 578 770 687
f 276 73 506
f 768 669 344
f 324 48 711
f 81 635 338
f 220 693 197
f 763 781 294
f 397 451 527
f 568 412 428
f 826 366 417
f 280 9 311
f 530 591 309
f 295 361 250
f 742 283 1
f 370 7 71
f 291 207 654
f 606 85 710
f 445 654 186
f 727 475 298
f 608 121 707
f 93 104 763
f 389 276 705
f 44 95 517
f 198 596 390
f 186 325 174
f 531 276 415
f 706 379 645
f 428 412 712
f 311 9 224
# 1684 faces, 0 coords texture

# End of File