####
#
# OBJ File Generated by Meshlab
#
####
# Object domain0669.obj
#
# Vertices: 1148
# Faces: 2288
#
####
v 206.259476 78.069183 82.032654
v 206.353760 78.014000 81.523544
v 206.400589 77.871536 82.027817
v 206.407852 77.866394 83.000694
v 206.270920 78.054871 83.000023
v 206.407913 77.943810 83.943611
v 206.297638 78.073730 83.958817
v 206.388657 78.124489 84.403305
v 206.267883 78.609795 80.055176
v 206.390259 78.561005 79.552483
v 206.391968 78.312424 80.026176
v 206.318756 78.253220 81.003387
v 206.196228 78.594597 81.026558
v 206.136414 78.537834 81.999901
v 206.216751 78.465439 82.973633
v 206.243042 78.451675 83.992218
v 206.389236 78.393608 84.874916
v 206.351593 78.525215 84.897278
v 206.545578 78.595604 85.052780
v 206.239563 79.046486 80.072021
v 206.366104 79.078712 79.547844
v 206.140381 79.104912 81.006599
v 206.147659 79.077759 81.979942
v 206.215073 79.135811 82.536858
v 206.241486 78.841118 83.008408
v 206.297363 78.809387 83.999146
v 206.410873 78.749214 84.944664
v 206.307999 79.391670 80.009758
v 206.227097 79.597450 81.027466
v 206.310272 79.678078 80.507736
v 206.239563 79.605995 81.953003
v 206.355774 79.659203 82.458984
v 206.378235 79.908661 81.015518
v 206.388321 79.907837 81.978523
v 206.837067 78.072998 78.033455
v 206.944550 78.022644 77.524551
v 206.994019 77.918243 78.031738
v 206.977631 77.893448 79.003021
v 206.788254 78.060181 79.012398
v 206.941193 77.852043 80.001526
v 206.632248 78.036270 79.991470
v 206.910431 77.789955 81.017242
v 206.578949 77.967918 81.001228
v 206.848389 77.588730 81.994591
v 206.844345 77.581543 83.011330
v 206.871765 77.791405 83.953293
v 206.865387 78.013687 84.457840
v 206.844208 78.618652 76.055710
v 207.028458 78.595711 75.591286
v 206.982193 78.325294 76.033615
v 206.904617 78.253387 77.003937
v 206.767822 78.592232 77.023743
v 206.658997 78.540382 78.010170
v 206.551819 78.518509 79.004082
v 206.858643 78.335136 84.916176
v 206.874557 78.670586 85.170975
v 206.782196 79.110245 76.047935
v 206.956543 79.111427 75.548935
v 206.690002 79.111031 77.006744
v 206.609940 79.109245 78.003357
v 206.491791 79.129906 78.991348
v 206.337326 79.189980 83.044350
v 206.410034 79.173058 84.002213
v 206.592361 79.095413 84.950401
v 206.942169 79.044678 85.178299
v 206.838531 79.603897 76.053162
v 207.013062 79.632668 75.582115
v 206.762680 79.630676 77.021202
v 206.663315 79.679008 78.005875
v 206.601151 79.687729 79.006721
v 206.443573 79.739357 79.968040
v 206.503830 79.712814 83.004204
v 206.610825 79.680580 83.993187
v 206.816696 79.586678 84.898140
v 206.934052 79.428505 85.051888
v 206.972824 79.901993 76.030113
v 206.900452 79.968201 77.003716
v 206.838181 80.145996 78.031677
v 206.942566 80.195419 77.524536
v 206.810318 80.158051 79.003067
v 206.755875 80.168556 80.002945
v 206.635941 80.182510 80.989578
v 206.635712 80.179787 82.010635
v 206.785263 80.160904 82.987640
v 206.852539 80.126625 83.952080
v 206.968979 80.019264 84.372734
v 206.904922 79.738213 84.826218
v 206.994080 80.298836 78.032166
v 206.987518 80.314644 79.002556
v 206.968811 80.338226 80.002823
v 206.945297 80.358177 81.001343
v 206.944031 80.358467 82.000290
v 206.983353 80.304871 82.995636
v 206.986893 80.232529 83.931023
v 207.196350 77.451881 82.017235
v 207.443680 77.510704 81.579773
v 207.443726 77.404297 82.056862
v 207.443970 77.403717 82.942680
v 207.188812 77.440193 82.983971
v 207.442963 77.535599 83.409752
v 207.230682 78.035446 76.020470
v 207.493500 78.001442 75.525597
v 207.534302 77.831345 76.027122
v 207.504501 77.813126 77.020073
v 207.172073 77.981041 77.003769
v 207.462708 77.766014 78.007530
v 207.458344 77.748795 79.000969
v 207.453415 77.724136 80.003456
v 207.454514 77.623856 81.007919
v 207.430283 77.710754 83.935516
v 207.448303 78.052551 84.447014
v 207.303680 78.582794 75.102875
v 207.628510 78.613213 74.754433
v 207.511887 78.283295 75.052124
v 207.370712 78.384727 84.878807
v 207.256485 78.694183 85.128189
v 207.243698 79.110619 75.070114
v 207.577805 79.109123 74.698555
v 207.246063 79.007103 85.154678
v 207.292755 79.641327 75.097145
v 207.630341 79.604836 74.756920
v 207.116074 79.624802 84.921204
v 207.402847 79.370277 84.946068
v 207.475220 79.722992 84.617134
v 207.511795 79.931541 75.056099
v 207.231155 80.178810 76.020462
v 207.498642 80.201767 75.530411
v 207.172943 80.235947 77.003403
v 207.359207 80.081985 84.257874
v 207.541855 80.338982 76.031319
v 207.509842 80.388077 77.021820
v 207.462433 80.467163 78.007401
v 207.458527 80.469360 79.000710
v 207.457916 80.473534 80.000008
v 207.453827 80.487900 80.999832
v 207.455231 80.469589 82.000244
v 207.441040 80.404320 82.985382
v 207.371719 80.264763 83.902107
v 207.700912 77.439217 82.014496
v 207.691177 77.453842 82.981682
v 207.775146 77.974442 75.036194
v 208.118896 78.024673 74.682449
v 208.086548 77.721024 75.050537
v 208.013641 77.567635 76.017616
v 208.036392 77.675896 77.000000
v 208.021210 77.727516 77.996758
v 208.020233 77.731354 78.999992
v 208.020905 77.723091 80.000916
v 208.023636 77.688362 81.004852
v 208.053711 77.562317 81.984489
v 208.037338 77.592583 83.002281
v 207.956177 77.865059 83.919182
v 207.935898 78.109428 84.266136
v 208.033325 78.521912 74.432930
v 207.599564 78.587196 84.877052
v 207.991959 78.538185 84.525940
v 207.968399 79.111137 74.388031
v 207.617859 79.068420 84.902725
v 208.006516 79.108078 84.544838
v 208.051773 79.686821 74.453583
v 207.942551 79.612450 84.320030
v 207.797943 80.181435 75.062309
v 208.130463 80.097542 74.744026
v 207.678452 80.181030 83.939980
v 207.990387 79.946465 83.964241
v 207.982361 80.205017 83.471008
v 208.110626 80.305481 75.089302
v 208.046494 80.469093 76.009476
v 208.038803 80.494858 77.001503
v 208.029999 80.515274 78.000023
v 208.021622 80.499763 78.999016
v 208.020218 80.488655 80.000038
v 208.019608 80.483994 80.999451
v 208.010513 80.450638 81.989960
v 207.944672 80.341949 82.947433
v 208.418304 77.483658 75.046616
v 208.700928 77.512177 74.707222
v 208.718399 77.347725 75.060745
v 208.701691 77.317123 75.954346
v 208.362366 77.422386 75.988037
v 208.650940 77.446297 76.456818
v 208.571304 77.895332 74.366241
v 208.592026 77.600868 76.997513
v 208.556808 77.811905 77.972610
v 208.536392 77.846588 78.999329
v 208.535492 77.848862 80.000023
v 208.540085 77.833084 81.000763
v 208.541565 77.807610 81.999336
v 208.499161 77.859985 82.971886
v 208.263504 78.025749 83.942863
v 208.520889 78.029137 83.466171
v 208.426193 78.565681 74.079430
v 208.805862 78.623123 73.792580
v 208.647903 78.254471 74.036934
v 208.505280 78.298615 83.930122
v 208.395905 78.613609 84.218185
v 208.362747 79.108856 74.042137
v 208.767242 79.106216 73.772354
v 208.400208 79.023407 84.222443
v 208.449280 79.628304 74.111618
v 208.781998 79.508232 73.858849
v 208.284042 79.658707 83.966995
v 208.520737 79.347481 83.939865
v 208.560440 79.658859 83.477669
v 208.683350 79.821945 74.129906
v 208.613022 80.138924 74.563530
v 208.275604 80.209297 82.973381
v 208.557037 79.947746 82.977013
v 208.534195 80.193329 82.470436
v 208.627167 80.380180 75.051651
v 208.616333 80.500465 76.004333
v 208.604492 80.482101 76.998314
v 208.597534 80.467033 77.992676
v 208.551025 80.390816 78.979309
v 208.536072 80.372360 79.999344
v 208.528107 80.356171 80.997322
v 208.494659 80.315468 81.965599
v 209.184723 77.382652 74.489891
v 209.237579 77.226891 75.021172
v 209.213150 77.248947 75.959885
v 209.205093 77.415009 76.469749
v 208.924759 77.952156 74.023003
v 209.322052 78.058167 73.749023
v 209.230789 77.676964 74.034004
v 209.171219 77.678574 77.007507
v 208.904892 77.957863 77.999016
v 209.240921 77.931999 77.524597
v 208.854050 78.014008 78.998123
v 208.851562 78.017189 79.999954
v 208.850388 78.018631 80.999535
v 208.846954 78.026749 82.008720
v 208.681870 78.053818 82.961723
v 209.235916 78.544464 73.638725
v 209.214615 78.216553 78.007263
v 209.129120 78.283951 78.997757
v 209.122711 78.288452 79.999908
v 209.119370 78.290703 80.998695
v 209.081177 78.313896 81.975258
v 209.075058 78.564430 82.443459
v 208.885269 78.526581 82.977310
v 208.622528 78.596306 83.897919
v 209.208878 79.083282 73.653160
v 208.901291 79.111092 82.984482
v 209.085007 79.073769 82.442963
v 208.630295 79.041832 83.900848
v 209.123123 79.493431 73.805237
v 209.014130 79.730370 82.020203
v 209.158600 79.388092 81.987411
v 209.159851 79.674843 81.490669
v 208.740936 79.630028 82.958565
v 209.158463 79.846428 74.103439
v 209.211746 80.156860 74.552002
v 208.889023 80.238892 78.998550
v 209.161530 79.969719 78.998001
v 209.118973 80.196442 78.475769
v 208.851807 80.203110 79.997932
v 209.123276 79.932137 79.996887
v 208.838776 80.182808 81.008202
v 209.098190 79.910156 80.982880
v 208.702286 80.162071 81.969406
v 209.189560 80.369621 75.051254
v 209.182938 80.457024 75.995316
v 209.113174 80.349014 76.969612
v 209.067978 80.301247 77.966164
v 209.541107 77.431503 74.059799
v 209.892166 77.553902 73.789116
v 209.864716 77.320244 74.092384
v 209.794525 77.144829 75.004646
v 209.787735 77.227577 75.955505
v 209.807007 77.452698 76.462807
v 209.813416 77.963974 73.593361
v 209.733154 77.767097 76.920502
v 209.701309 78.085815 77.283638
v 209.787766 78.526184 73.506653
v 209.437012 78.554886 78.004128
v 209.731827 78.528435 77.536430
v 209.292206 78.602737 78.995056
v 209.278381 78.606735 79.999763
v 209.264130 78.609962 80.997917
v 209.203278 78.609833 81.946266
v 209.787201 79.105911 73.614540
v 209.543945 79.126556 77.999817
v 209.771301 79.066696 77.461449
v 209.378845 79.110634 78.994217
v 209.352661 79.109886 79.999168
v 209.330750 79.105408 80.987770
v 209.234726 79.045914 81.926376
v 209.787399 79.554565 73.897690
v 209.500412 79.705620 73.993462
v 209.752121 79.874886 74.224403
v 209.681793 79.759682 77.067253
v 209.857101 79.443672 77.049370
v 209.928543 79.775246 76.701126
v 209.440536 79.682663 77.990685
v 209.309830 79.633003 78.980370
v 209.277893 79.613144 79.998009
v 209.254654 79.599258 80.970505
v 209.768433 80.109802 74.645172
v 209.376923 80.190620 76.977859
v 209.704041 80.177567 76.424103
v 209.240875 80.151985 77.962715
v 209.695541 80.300026 75.059860
v 209.678986 80.318481 75.965149
v 210.393219 77.461426 73.661324
v 210.395859 77.205765 74.052841
v 210.375229 77.099648 74.999260
v 210.370712 77.234634 75.943771
v 210.366348 77.464729 76.343575
v 210.340454 77.917603 73.384628
v 210.057953 77.968918 76.962952
v 210.465607 77.857544 76.676292
v 210.272842 78.525604 73.322151
v 210.327850 78.257637 76.945381
v 210.112488 78.529457 77.162773
v 210.361740 79.115211 73.422157
v 210.096863 79.119865 77.022110
v 210.335632 78.794319 76.948891
v 210.469513 79.197151 76.691162
v 210.082458 79.760094 74.051414
v 210.458374 79.535416 73.722656
v 210.356537 79.672523 76.401649
v 210.443710 79.781998 74.066284
v 210.402847 80.085434 74.967773
v 210.039261 80.202103 75.021980
v 210.019440 80.182068 75.981476
v 210.375198 79.989777 75.973297
v 210.912827 77.337074 73.463753
v 210.949432 77.027893 74.026764
v 210.959503 77.057472 74.999084
v 210.947357 77.265244 75.929451
v 210.940811 77.508652 76.267975
v 210.759613 77.973724 73.072998
v 211.140640 78.026558 72.752556
v 211.004852 77.680779 73.043419
v 210.960571 77.937775 76.512253
v 210.698685 78.523338 73.032204
v 211.104843 78.520958 72.720253
v 210.506363 78.521782 76.880043
v 210.967270 78.522644 76.624062
v 210.785538 79.049797 73.101944
v 211.131454 78.947525 72.810631
v 210.948929 79.100662 76.474182
v 211.028793 79.273552 73.099792
v 210.961609 79.591850 73.540138
v 210.869843 79.518692 76.245270
v 210.968262 79.815659 74.045540
v 210.949753 79.953064 74.991982
v 210.886429 79.776398 75.919525
v 211.321259 76.877144 73.999680
v 211.613770 76.917770 73.578857
v 211.642899 76.801643 74.001106
v 211.587067 76.884048 74.451912
v 211.286987 77.394112 73.041245
v 211.625443 77.491081 72.702507
v 211.602371 77.176865 73.074142
v 211.518051 77.005966 74.995125
v 211.471695 77.315628 75.900246
v 211.438446 77.565002 76.192818
v 211.564529 77.944397 72.453201
v 211.514404 77.967369 76.368790
v 211.537521 78.541344 72.424873
v 211.525116 78.517014 76.421204
v 211.578369 79.068504 72.624901
v 211.499344 79.038475 76.305626
v 211.529312 79.441216 72.988220
v 211.527435 79.719719 73.473930
v 211.226456 79.635712 75.960342
v 211.555344 79.429474 75.999039
v 211.556778 79.706551 75.520752
v 211.569168 79.848061 74.016876
v 211.516724 79.852509 74.982391
v 212.121933 76.777405 73.482201
v 212.157990 76.740044 73.982513
v 212.133118 76.844162 74.467323
v 212.090836 77.332542 72.467834
v 212.102081 76.989487 72.959251
v 212.103821 77.080391 75.012329
v 211.790909 77.433105 75.936584
v 212.175812 77.348526 75.525543
v 211.956970 77.978661 72.097755
v 212.327499 78.023155 71.769333
v 212.182999 77.685150 72.049393
v 212.079407 77.688568 75.947121
v 211.938736 78.041397 76.202621
v 211.945190 78.484520 72.082848
v 212.323883 78.441521 71.764832
v 211.983826 78.523102 76.242455
v 212.162247 78.794563 72.037445
v 212.070908 79.165428 72.353287
v 211.954987 78.940331 76.163353
v 211.863647 79.636749 73.033768
v 212.209686 79.552521 72.699036
v 212.049072 79.252945 75.894081
v 212.070312 79.559723 75.422615
v 212.204315 79.737839 73.085617
v 212.132019 79.872581 74.000221
v 212.063675 79.753845 74.925674
v 212.442474 76.806274 73.019562
v 212.774704 76.923172 72.585632
v 212.784073 76.744331 73.070602
v 212.653854 76.732635 73.932472
v 212.676971 76.894035 74.434990
v 212.464844 77.405029 72.046379
v 212.802460 77.499245 71.711113
v 212.779373 77.201416 72.088104
v 212.716843 77.130920 74.936317
v 212.695679 77.459770 75.331184
v 212.745621 77.945824 71.461662
v 212.325974 77.976143 75.918373
v 212.731995 77.919769 75.586311
v 212.739670 78.522453 71.453575
v 212.378845 78.522484 75.951462
v 212.779617 78.523567 75.610245
v 212.432770 79.102074 72.009132
v 212.799377 79.031548 71.673859
v 212.285446 79.038719 75.886757
v 212.699692 79.071999 75.468903
v 212.740158 79.376518 72.027557
v 212.702225 79.659317 72.486832
v 212.408417 79.655266 74.983543
v 212.741486 79.455528 75.026581
v 212.737976 79.726089 74.528740
v 212.750290 79.823349 73.021835
v 212.694229 79.845100 73.983162
v 213.305344 76.856056 72.539009
v 213.278214 76.738045 73.017670
v 213.005356 76.787025 73.992271
v 213.319901 76.759056 73.523766
v 213.277481 77.362633 71.486572
v 213.333344 77.099045 71.998337
v 213.351913 76.910179 74.047104
v 213.213135 77.298714 74.898216
v 213.128113 77.534431 75.176773
v 213.129471 77.978401 71.099091
v 213.498718 78.023422 70.767998
v 213.360641 77.690872 71.053894
v 213.170929 77.949768 75.293839
v 213.124725 78.482674 71.088669
v 213.488113 78.447716 70.749138
v 213.180359 78.516464 75.311424
v 213.334045 78.795540 71.034485
v 213.258057 79.156723 71.362839
v 213.132462 78.961792 75.214447
v 213.056686 79.615425 72.054276
v 213.386307 79.544128 71.705956
v 213.237503 79.278603 74.906532
v 213.300949 79.588867 74.458694
v 213.378967 79.734940 72.085495
v 213.311172 79.881866 73.005936
v 213.292450 79.802231 73.952141
v 213.851257 76.878868 72.546928
v 213.796356 76.790794 73.000328
v 213.843536 76.883873 73.443085
v 213.644485 77.432083 71.056786
v 213.982635 77.514809 70.723114
v 213.966415 77.299301 71.085785
v 213.916199 77.011780 72.004570
v 213.875641 77.090981 73.984673
v 213.455811 77.437775 74.884415
v 213.858353 77.411827 74.452530
v 213.911179 77.945839 70.452766
v 213.566635 77.941879 74.968185
v 213.960678 77.937454 74.621758
v 213.863373 78.518028 70.425232
v 213.575790 78.521599 74.978561
v 213.967270 78.523193 74.632286
v 213.597321 79.108612 70.996704
v 213.950974 79.048508 70.560715
v 213.477600 79.048996 74.900368
v 213.870941 79.101494 74.548340
v 213.901718 79.391144 71.007805
v 213.870483 79.668503 71.482132
v 213.790527 79.515366 74.259247
v 213.924088 79.824997 72.023720
v 213.883301 79.888046 72.993835
v 213.812759 79.722801 73.908722
v 214.119690 76.870995 72.999123
v 214.462646 77.396988 70.497124
v 214.505692 77.218956 71.026520
v 214.478546 77.062027 72.005417
v 214.479111 77.001343 72.987679
v 214.381836 77.300644 73.906433
v 214.295364 77.515854 74.203781
v 214.291779 77.980827 70.090485
v 214.667175 78.048134 69.828735
v 214.536835 77.697594 70.062843
v 214.350800 77.946495 74.308876
v 214.236771 78.522713 70.056557
v 214.621201 78.523468 69.800697
v 214.359726 78.518570 74.321442
v 214.316315 79.054497 70.097900
v 214.670441 78.996986 69.836830
v 214.296692 79.021072 74.249237
v 214.549240 79.338402 70.066483
v 214.211639 79.648071 71.021065
v 214.521393 79.618286 70.528946
v 214.131363 79.607941 73.936951
v 214.425385 79.357468 73.944199
v 214.487778 79.650635 73.508827
v 214.556412 79.757866 71.055923
v 214.481674 79.886673 72.004944
v 214.443146 79.825996 72.975777
v 214.816101 77.464737 70.077301
v 214.992157 77.620674 69.943451
v 215.043304 77.425934 70.127258
v 215.048691 77.213097 71.020554
v 215.054977 77.128838 71.995117
v 214.984100 77.240257 72.944885
v 214.607681 77.450798 73.882439
v 214.964035 77.459457 73.412643
v 214.937271 77.968849 69.814522
v 214.731827 77.941833 73.961075
v 215.103561 77.946495 73.588898
v 214.925491 78.523743 69.800423
v 214.749893 78.521736 73.980362
v 215.132385 78.522865 73.623489
v 214.931458 79.075539 69.831070
v 214.666153 79.065331 73.922241
v 215.048599 79.107056 73.556931
v 214.827972 79.568024 70.081657
v 214.993698 79.420151 69.957451
v 214.960907 79.529793 73.272141
v 215.050903 79.621185 70.125923
v 215.060486 79.801796 71.023033
v 215.042511 79.855629 71.988579
v 214.982056 79.724144 72.913254
v 215.177048 77.477180 70.132195
v 215.464493 77.469872 70.608116
v 215.536026 77.335335 71.066086
v 215.604462 77.247314 71.982811
v 215.318085 77.404762 72.967552
v 215.654312 77.402573 72.502342
v 215.273544 77.949120 70.066841
v 215.600906 77.944954 70.528465
v 215.589005 77.689034 72.951530
v 215.472275 78.021011 73.261421
v 215.297592 78.523956 70.048004
v 215.637619 78.524063 70.506439
v 215.515076 78.524719 73.302719
v 215.274353 79.100403 70.067451
v 215.601532 79.103531 70.527878
v 215.461304 79.019325 73.242661
v 215.191956 79.575104 70.126900
v 215.469131 79.585037 70.596046
v 215.292374 79.592941 72.938118
v 215.572708 79.340576 72.939728
v 215.579193 79.600792 72.463715
v 215.511536 79.699547 71.040260
v 215.541748 79.734650 71.968185
v 215.759262 77.463806 71.106438
v 216.026794 77.477943 71.604172
v 216.078186 77.406731 71.980057
v 216.044983 77.523849 72.237473
v 215.894577 77.944717 71.026299
v 216.138062 77.947533 71.539116
v 215.801361 77.991905 72.899704
v 216.085617 77.937843 72.443695
v 215.921860 78.524399 71.010872
v 216.157639 78.519478 71.530975
v 215.848770 78.523392 72.929886
v 216.127411 78.518852 72.453346
v 215.882904 79.119972 71.051529
v 216.090179 79.055656 71.562462
v 215.787476 79.051102 72.896645
v 216.054062 79.033722 72.407722
v 215.674774 79.565262 71.062477
v 216.075867 79.285027 71.996071
v 215.840958 79.561989 71.970406
v 216.147644 77.490707 71.984901
v 216.218750 77.948494 71.993469
v 216.238953 78.516472 71.999664
v 216.182693 79.008553 71.996246
v 218.059219 80.397156 63.958443
v 218.099655 80.348953 63.530010
v 218.181564 80.137970 63.962700
v 218.217377 80.386719 64.191910
v 218.007690 80.936356 63.073963
v 218.180496 80.929604 62.598900
v 218.086426 80.627113 63.040340
v 218.026947 80.797852 63.910069
v 218.217728 80.782082 64.218407
v 218.033478 81.345291 63.018482
v 218.183823 81.383614 62.598213
v 218.101944 81.387901 63.467640
v 218.101898 81.101677 63.937325
v 218.147980 81.623299 63.010422
v 218.429047 79.869781 63.962708
v 218.674606 79.717598 63.511311
v 218.694519 79.715874 63.963074
v 218.686661 79.896927 64.219566
v 218.299530 80.293213 63.007137
v 218.582581 80.285881 62.502689
v 218.564377 79.977798 62.993355
v 218.610596 80.303368 64.440140
v 218.453262 80.924088 62.102966
v 218.822678 80.934380 61.632473
v 218.631271 80.614471 62.034512
v 218.598434 80.836525 64.553391
v 218.460602 81.379112 62.121052
v 218.752838 81.288055 61.795681
v 218.321838 81.421852 63.975769
v 218.660995 81.372749 64.423012
v 218.658112 81.588158 62.111248
v 218.406693 81.891014 63.009693
v 218.650955 81.875877 62.585838
v 218.630768 81.962173 63.476532
v 218.598450 81.727997 63.988110
v 218.695221 82.041611 63.020817
v 219.119492 79.276680 63.040749
v 219.321899 79.228882 62.582806
v 219.292419 79.161850 62.990906
v 219.237625 79.288177 63.421925
v 218.812943 79.671318 62.963577
v 219.076370 79.658531 62.448517
v 219.155777 79.510895 63.910801
v 219.175735 79.805679 64.345100
v 218.871368 80.283073 61.999447
v 219.187073 80.301628 61.514713
v 219.133865 79.964493 61.981827
v 219.082245 80.208412 64.670647
v 219.113785 80.847023 61.181343
v 219.298019 80.736977 61.042801
v 219.255508 80.635941 61.086731
v 219.194077 80.597336 64.960106
v 218.988083 80.911446 64.900436
v 219.357681 80.958557 65.211380
v 219.192688 80.938683 61.174397
v 219.180862 81.277657 61.580635
v 219.022430 81.401772 64.895821
v 219.360733 81.377594 65.238503
v 219.170044 81.679726 62.044979
v 219.173599 81.996941 62.524612
v 218.885132 82.030388 63.989887
v 219.165115 82.037346 64.498199
v 219.215256 81.718971 64.964302
v 219.179947 82.213921 63.030193
v 219.208923 82.282623 63.949795
v 219.602814 79.229385 62.113491
v 219.801376 79.399139 61.921669
v 219.746841 79.196243 62.101109
v 219.671051 79.123405 62.954144
v 219.708160 79.257713 63.431206
v 219.405884 79.685158 61.970444
v 219.790390 79.822746 61.617573
v 219.772583 79.451378 63.949696
v 219.733139 79.777832 64.470520
v 219.518814 80.369133 61.089111
v 219.619492 80.417213 61.045139
v 219.726913 80.208527 61.177101
v 219.799377 80.115509 64.907616
v 219.479767 80.313835 64.960304
v 219.845291 80.459709 65.234413
v 219.425140 80.807564 61.080460
v 219.687744 80.542313 61.082264
v 219.802734 80.921196 61.364586
v 219.777893 80.886497 65.447098
v 219.743240 81.330116 61.670509
v 219.749237 81.428116 65.578659
v 219.744583 81.702179 62.035130
v 219.778320 82.079041 62.498695
v 219.407898 82.072159 65.006599
v 219.738510 82.004646 65.480385
v 219.702209 82.401192 62.988438
v 219.522675 82.527611 64.025604
v 219.774277 82.581177 63.512268
v 219.686356 82.511795 64.946381
v 219.907593 82.532082 65.415688
v 219.839569 82.729767 64.024025
v 219.874512 82.695641 64.968353
v 219.940338 79.269272 62.062038
v 219.996323 79.202545 62.981979
v 220.152100 79.810646 61.771767
v 220.238617 79.507233 62.079113
v 220.340729 79.353775 63.022243
v 220.320969 79.537910 63.962296
v 220.334030 79.759605 64.468155
v 219.821747 80.308502 61.173664
v 220.169037 80.293976 61.573959
v 220.340668 80.055061 64.951538
v 220.345764 80.384552 65.349075
v 220.216248 80.860641 61.666191
v 220.254684 80.793251 65.671196
v 220.173737 81.291138 61.809097
v 220.362198 81.181145 65.965500
v 220.141388 81.497757 65.920639
v 220.518005 81.548950 66.227615
v 220.274658 81.632019 62.101223
v 220.363678 82.030701 62.428425
v 220.115173 82.040115 65.939911
v 220.477936 82.040192 66.286987
v 220.072220 82.557243 63.035927
v 220.414764 82.418922 62.764183
v 220.194183 82.566772 65.895485
v 220.518158 82.537704 66.255157
v 220.407608 82.679794 63.090672
v 220.321289 82.988312 63.993992
v 220.299118 83.018707 64.999542
v 220.415085 82.836472 65.938606
v 220.466858 79.767868 62.107285
v 220.751190 79.786629 62.589817
v 220.788681 79.644096 63.036972
v 220.821106 79.672546 63.945225
v 220.865250 79.843941 64.430481
v 220.580994 80.290146 62.035866
v 220.943802 80.308022 62.515476
v 220.931824 80.057777 64.937462
v 220.904495 80.382019 65.461380
v 220.601105 80.866646 62.027199
v 220.978867 80.867165 62.393532
v 220.972626 80.708031 65.902542
v 220.651474 80.899261 65.960922
v 221.017197 81.044426 66.235413
v 220.521194 81.400795 62.089966
v 220.935425 81.477516 62.402302
v 220.944443 81.468544 66.458168
v 220.893585 82.011230 62.577442
v 220.898834 82.016533 66.603859
v 220.829346 82.425789 62.799469
v 220.888443 82.615997 66.580528
v 220.857880 82.767578 63.131542
v 220.666443 83.150513 64.017319
v 220.988373 83.037666 63.574032
v 220.612808 83.236526 64.997070
v 220.696030 83.145424 65.971992
v 221.008667 83.124901 66.421005
v 221.001053 83.287338 64.054939
v 220.952866 83.482094 64.984406
v 220.995590 83.430260 65.975906
v 220.982132 79.816208 63.050365
v 221.121811 79.833984 63.961643
v 221.267029 80.252098 62.995895
v 221.492081 80.297394 63.506905
v 221.424118 80.065651 64.033638
v 221.426239 80.200157 64.955070
v 221.463516 80.411804 65.434494
v 221.336136 80.945076 62.730438
v 221.463104 80.600708 63.031734
v 221.533524 80.640717 65.925957
v 221.520950 80.976761 66.342110
v 221.370239 81.453423 62.709106
v 221.427475 81.378326 66.671280
v 221.323807 81.942955 62.778111
v 221.533859 81.767052 66.965538
v 221.305832 82.078865 66.931572
v 221.698090 82.139755 67.206665
v 221.481293 82.312775 63.034100
v 221.188568 82.586578 63.050129
v 221.585434 82.699425 63.332039
v 221.268524 82.626686 66.943367
v 221.649017 82.625488 67.262039
v 221.500946 83.091690 63.667660
v 221.360046 83.152992 66.900459
v 221.705444 83.115257 67.228157
v 221.486710 83.416748 64.080727
v 221.286942 83.693459 65.020821
v 221.561340 83.649788 64.569962
v 221.292282 83.701180 65.982079
v 221.556107 83.733795 66.474693
v 221.578232 83.450943 66.944061
v 221.600342 83.835625 65.052841
v 221.602356 83.895073 65.976440
v 221.749268 80.334793 64.013306
v 221.759781 80.347702 64.978226
v 221.666031 80.924042 63.092709
v 222.017761 80.944527 63.574261
v 222.053635 80.625992 64.039055
v 222.107666 80.510170 65.021873
v 222.075851 80.728401 65.953781
v 222.074554 80.981476 66.459290
v 221.749512 81.456436 63.051731
v 222.128128 81.460709 63.417702
v 222.145218 81.299049 66.899048
v 221.823547 81.485275 66.960945
v 222.194534 81.647133 67.203804
v 221.709808 82.002556 63.068207
v 222.116882 82.062378 63.395638
v 222.118805 82.064621 67.387589
v 222.071030 82.611160 63.542660
v 222.101166 82.623878 67.500862
v 221.999451 83.033791 63.765392
v 222.145676 83.188690 67.542503
v 222.039169 83.365921 64.103058
v 222.120926 83.693130 64.541809
v 221.839859 83.760880 66.963112
v 222.188171 83.708015 67.311310
v 222.107285 83.946938 65.043930
v 222.072906 84.173119 65.979698
v 222.145309 84.023689 66.952713
v 222.350189 80.906929 64.024155
v 222.628098 80.930504 64.526192
v 222.583603 80.777077 65.026085
v 222.584991 80.834541 65.946831
v 222.625214 81.025368 66.424629
v 222.499008 81.538132 63.742130
v 222.612015 81.213493 64.053123
v 222.693619 81.261734 66.901749
v 222.680023 81.603317 67.252396
v 222.542191 82.039307 63.709454
v 222.679016 82.041740 67.512001
v 222.497833 82.530830 63.772930
v 222.576447 82.524681 67.717926
v 222.653488 82.898865 64.033997
v 222.363861 83.179771 64.040863
v 222.769684 83.295631 64.313942
v 222.721664 82.943779 67.943352
v 222.563507 83.213509 67.863884
v 222.948288 83.213081 68.115814
v 222.683380 83.704414 64.638199
v 222.731918 83.475235 67.940414
v 222.632187 83.847313 67.638969
v 222.652481 84.060326 65.050446
v 222.407669 84.365631 66.007767
v 222.735138 84.341652 65.542931
v 222.457428 84.311668 66.964272
v 222.753876 84.309189 67.333908
v 222.742233 84.608063 66.021492
v 222.757736 84.600845 66.968170
v 222.895798 80.965805 65.017044
v 222.893524 80.981903 65.975914
v 222.830948 81.514275 64.098419
v 223.179230 81.538521 64.580032
v 223.190918 81.237656 65.025261
v 223.232819 81.187477 66.017128
v 223.171402 81.408951 66.928307
v 223.178802 81.656075 67.245514
v 222.921509 82.042458 64.051735
v 223.298691 82.047104 64.418930
v 223.241547 82.035210 67.589333
v 222.882034 82.588631 64.067894
v 223.303253 82.652840 64.375282
v 223.306442 82.433998 67.921486
v 222.994644 82.653313 67.962952
v 223.372360 82.819191 68.191490
v 223.270279 83.214302 64.480034
v 223.326263 83.214119 68.291779
v 223.269928 83.689713 64.688042
v 222.987808 83.786575 67.980095
v 223.397476 83.681015 68.242805
v 223.260468 84.090637 65.006996
v 223.265671 84.450546 65.384750
v 223.258682 84.096764 68.008583
v 223.152985 84.438271 67.671265
v 223.066635 84.845779 66.043182
v 223.352982 84.797638 65.730919
v 223.052216 84.891075 66.974060
v 223.332123 84.894958 67.437103
v 223.363876 85.036400 66.063995
v 223.352310 85.186668 66.964600
v 223.488281 81.524155 65.025986
v 223.571686 81.436417 65.997055
v 223.498520 81.550018 66.961273
v 223.674194 82.129013 64.737305
v 223.772491 81.830688 65.068375
v 223.892059 81.645164 66.002792
v 223.856598 81.739174 66.987007
v 223.820938 82.031166 67.473457
v 223.783844 82.671280 64.665848
v 223.847946 82.406517 67.934853
v 223.851273 82.777756 68.239677
v 223.826660 83.215263 64.623177
v 223.853943 83.229401 68.376854
v 223.896149 83.719276 64.726372
v 223.873703 83.784508 68.390717
v 223.818161 84.167992 64.951401
v 223.775406 84.539040 65.281097
v 223.500656 84.409798 68.024918
v 223.926651 84.335587 68.296700
v 223.874817 84.939140 65.609215
v 223.681671 84.912308 67.916435
v 224.042984 84.864151 68.206932
v 223.822403 85.309669 66.006859
v 223.643600 85.468903 66.997528
v 223.868683 85.536476 66.507477
v 223.891281 85.518341 67.479874
v 223.917404 85.211586 67.945091
v 223.940811 85.761490 66.995811
v 224.015594 82.108368 65.088303
v 224.349823 82.136383 65.576645
v 224.336639 81.952179 66.030174
v 224.344543 81.968979 66.957092
v 224.375732 82.181168 67.423714
v 224.204391 82.602348 64.970589
v 224.545090 82.572609 65.332024
v 224.382980 82.475670 67.899353
v 224.334930 82.822792 68.199211
v 224.300293 83.335968 64.770760
v 224.445175 82.913643 64.992760
v 224.411911 83.241859 68.366066
v 224.419800 83.797188 64.718620
v 224.439285 83.799309 68.436073
v 224.148285 84.376068 65.008965
v 224.524673 84.175659 64.825829
v 224.446976 84.381371 68.433365
v 224.476257 84.566765 65.087814
v 224.425232 84.981171 65.416557
v 224.466705 84.944771 68.368401
v 224.155167 85.542877 66.013283
v 224.544510 85.445084 65.709312
v 224.188431 85.514229 67.957977
v 224.569016 85.426888 68.237877
v 224.461060 85.823738 66.026451
v 224.235596 86.050262 66.997383
v 224.473969 86.106049 66.517876
v 224.470200 86.110641 67.484116
v 224.476425 85.810631 67.962395
v 224.529541 86.344711 66.997398
v 224.641693 82.155014 66.025490
v 224.651718 82.144287 66.976257
v 224.950500 82.699753 65.665382
v 224.940109 82.418747 66.035492
v 224.966049 82.393372 66.987106
v 224.684219 82.685883 67.950523
v 224.998657 82.652428 67.485367
v 224.719528 83.221642 65.015869
v 225.075577 83.157593 65.356178
v 224.996094 82.949898 67.967720
v 224.904419 83.342720 68.245987
v 224.813385 83.893509 64.834167
v 224.988480 83.530746 65.043518
v 225.010895 83.818092 68.398430
v 224.847290 84.207695 64.876083
v 225.025391 84.384254 68.468132
v 224.969727 84.559090 65.104156
v 225.053604 85.010620 65.364738
v 225.023926 84.970161 68.456444
v 225.043579 85.529442 65.574455
v 225.047668 85.532303 68.381264
v 224.762482 86.111488 66.032990
v 225.151108 86.013489 65.756294
v 224.765640 86.108582 67.966232
v 225.154404 86.020317 68.244003
v 225.054230 86.403603 66.032997
v 224.817749 86.641388 66.998085
v 225.057922 86.694878 66.516975
v 225.036713 86.714233 67.495102
v 225.046707 86.417732 67.979797
v 225.100494 86.949165 66.999794
v 225.238190 82.704857 66.033684
v 225.269211 82.674217 66.989250
v 225.514832 83.304016 65.687622
v 225.528351 83.000694 66.036057
v 225.565323 82.962845 66.990723
v 225.304626 83.227623 67.983597
v 225.605835 83.216911 67.497833
v 225.198959 83.840431 65.097420
v 225.604950 83.795914 65.436348
v 225.632202 83.464264 67.985146
v 225.559540 83.878128 68.285164
v 225.198639 84.330315 65.103592
v 225.647995 84.412750 65.368103
v 225.608032 84.392235 68.434898
v 225.617172 84.978111 65.434189
v 225.609756 84.970497 68.488586
v 225.608444 85.556282 65.526558
v 225.609329 85.557236 68.460129
v 225.633743 86.118210 65.618889
v 225.629562 86.129387 68.399117
v 225.348770 86.696808 66.033058
v 225.739105 86.598869 65.761093
v 225.278320 86.752861 67.984283
v 225.688934 86.676498 68.292267
v 225.639679 86.990410 66.032051
v 225.374893 87.247604 67.024857
v 225.636032 87.288757 66.513878
v 225.546280 87.214539 67.931465
v 225.813202 87.201447 68.204453
v 225.663284 87.554283 67.012886
v 225.739655 87.506470 67.948952
v 225.822174 83.293221 66.035591
v 225.860397 83.256027 66.989418
v 226.067947 83.918686 65.729057
v 226.110458 83.590668 66.042137
v 226.165039 83.527977 67.016258
v 226.095062 83.731094 67.933640
v 226.082703 84.004761 68.198288
v 226.161270 84.406044 65.591431
v 226.169266 84.414688 68.363846
v 226.189041 84.970657 65.548515
v 226.196274 84.969780 68.456322
v 226.195724 85.555336 65.526901
v 226.196182 85.555878 68.494995
v 226.196075 86.141724 65.545097
v 226.194748 86.143738 68.494232
v 226.219772 86.704208 65.618744
v 226.202972 86.725060 68.481598
v 225.934189 87.283379 66.032097
v 226.324188 87.184036 65.760643
v 226.223740 87.296928 68.424500
v 226.228775 87.572357 66.035393
v 225.951080 87.851524 67.010864
v 226.221207 87.873764 66.514542
v 225.999466 87.806847 67.954803
v 226.322433 87.779259 68.269783
v 226.253891 88.132561 67.012939
v 226.289627 88.096069 67.955048
v 226.395142 83.888283 66.045723
v 226.471680 83.816154 66.999512
v 226.390427 83.923691 67.946045
v 226.576126 84.495483 65.797020
v 226.656281 84.189552 66.053955
v 226.763824 84.108330 67.000488
v 226.689423 84.187416 67.950859
v 226.643875 84.524490 68.227745
v 226.701828 85.020416 65.714821
v 226.757034 84.994934 68.377457
v 226.762268 85.568726 65.601059
v 226.784012 85.555244 68.473244
v 226.782013 86.141327 65.543335
v 226.774719 86.132149 68.573494
v 226.782394 86.727570 65.546654
v 226.728470 86.690811 68.671936
v 226.807144 87.285385 65.631195
v 226.687012 87.315315 68.660225
v 226.533936 87.843666 66.047340
v 226.886429 87.711220 65.790955
v 226.786530 87.897911 68.564507
v 226.837769 88.071678 66.084160
v 226.567581 88.382935 67.022896
v 226.841965 88.362213 66.567451
v 226.589111 88.354843 67.956017
v 226.876068 88.327385 68.282936
v 226.872711 88.558090 67.042450
v 226.883774 88.539185 67.944061
v 226.848892 84.484917 66.066345
v 227.051987 84.414978 66.983650
v 226.986649 84.472260 67.954430
v 227.116196 84.947166 66.014839
v 227.366745 84.972603 66.500450
v 227.322876 84.720322 67.010551
v 227.278549 84.766281 67.955032
v 227.230255 85.109390 68.230988
v 227.237518 85.677101 65.755524
v 227.347397 85.279175 66.019592
v 227.347260 85.584259 68.421516
v 227.344147 86.165794 65.618790
v 227.339478 86.103737 68.631989
v 227.367584 86.727577 65.551468
v 227.419922 86.551468 68.900291
v 227.181763 86.781700 68.908653
v 227.533325 86.912590 69.140335
v 227.370880 87.304825 65.567802
v 227.109924 87.315407 68.962097
v 227.522156 87.316490 69.221634
v 227.415970 87.822632 65.706024
v 227.181732 87.857925 68.913406
v 227.562958 87.796410 69.199425
v 227.351532 88.233360 65.989784
v 227.339386 88.551880 66.461136
v 227.417587 88.152847 68.949738
v 227.336639 88.488075 68.524384
v 227.353119 88.806313 67.000549
v 227.362839 88.789375 67.991997
v 227.610428 85.020210 67.012260
v 227.570541 85.060425 67.954819
v 227.627472 85.588303 66.032906
v 227.933640 85.576019 66.511093
v 227.898697 85.318298 67.013458
v 227.866165 85.350754 67.958275
v 227.831635 85.683151 68.269569
v 227.823822 86.272202 65.762794
v 227.916412 85.886620 66.037170
v 227.957031 86.145905 68.564949
v 227.929749 86.752228 65.619446
v 227.913925 86.548065 68.908981
v 227.867188 86.933517 69.186821
v 227.952301 87.313568 65.567413
v 227.955841 87.344353 69.326622
v 227.967590 87.873627 65.621147
v 227.986633 87.868294 69.332932
v 227.676773 88.458511 66.024673
v 228.048096 88.292793 65.790512
v 227.705902 88.426216 68.942642
v 228.058807 88.286682 69.196526
v 228.006256 88.635971 66.098167
v 227.715363 88.980080 67.018280
v 228.009979 88.907066 66.585190
v 227.720566 88.970901 67.977531
v 228.016525 88.891914 68.404106
v 228.016998 88.615150 68.889580
v 228.037766 89.065414 67.052895
v 228.039474 89.062393 67.944710
v 228.191711 85.611320 67.013504
v 228.159225 85.643768 67.958206
v 228.210052 86.178963 66.036766
v 228.528214 86.156746 66.507881
v 228.493332 85.896568 67.012337
v 228.465302 85.925209 67.966179
v 228.459564 86.222893 68.327400
v 228.409973 86.856384 65.760857
v 228.505951 86.470207 66.035461
v 228.239151 86.743446 68.981689
v 228.599091 86.611946 68.674667
v 228.509720 87.339516 65.637207
v 228.561386 86.966675 69.022461
v 228.488327 87.393623 69.276489
v 228.522751 87.884766 65.639427
v 228.522049 87.896255 69.338570
v 228.537964 88.327766 65.774818
v 228.537369 88.326866 69.221062
v 228.551697 88.671249 66.099457
v 228.485275 88.898071 66.581139
v 228.553116 88.672096 68.900612
v 228.492996 88.911011 68.425568
v 228.452164 89.059204 67.053635
v 228.453125 89.060532 67.948067
v 228.809631 86.165726 67.007866
v 228.788879 86.192673 67.976784
v 228.802917 86.757545 66.034859
v 229.152802 86.725853 66.477089
v 229.134583 86.413902 67.004379
v 229.124847 86.432533 67.984093
v 229.106522 86.770996 68.469894
v 228.927551 87.417000 65.803474
v 229.070679 87.062286 66.053406
v 229.050552 87.149406 68.898224
v 228.943604 87.487137 69.154114
v 228.954849 87.896912 65.777290
v 228.953415 87.899574 69.215042
v 228.926941 88.291481 65.857292
v 228.926941 88.292229 69.143799
v 228.983612 88.493660 66.085472
v 228.740891 88.941788 67.027184
v 229.030228 88.709770 66.988655
v 228.747833 88.949791 67.975128
v 229.033813 88.714569 68.011002
v 228.984512 88.493210 68.911942
v 229.522919 86.883560 66.761932
v 229.565353 86.710228 67.062851
v 229.562759 86.713875 67.934212
v 229.514999 86.900291 68.212372
v 229.280502 87.393517 66.127831
v 229.515442 87.263481 66.580215
v 229.265961 87.411392 68.857826
v 229.488281 87.259720 68.410606
v 229.226044 87.885437 66.079414
v 229.633698 87.567444 67.017761
v 229.502884 87.922966 66.985336
v 229.498001 87.922363 68.016899
v 229.627762 87.564453 67.979996
v 229.218185 87.883553 68.920555
v 229.109756 88.355911 66.079414
v 229.251205 88.406975 67.000648
v 229.252350 88.410530 67.998016
v 229.110504 88.353500 68.919098
v 229.667068 86.852211 67.069916
v 229.661301 86.853043 67.928078
v 229.701447 87.233917 67.055901
v 229.694183 87.232506 67.940292
# 1148 vertices, 0 vertices normals

f 3 2 1
f 5 4 1
f 1 4 3
f 7 6 5
f 5 6 4
f 7 8 6
f 11 10 9
f 13 12 9
f 9 12 11
f 12 13 2
f 13 1 2
f 13 14 1
f 1 15 5
f 1 14 15
f 5 16 7
f 5 15 16
f 8 7 17
f 7 18 17
f 7 16 18
f 18 19 17
f 9 10 20
f 20 10 21
f 9 22 13
f 9 20 22
f 13 23 14
f 13 22 23
f 25 15 24
f 15 23 24
f 15 14 23
f 15 25 16
f 16 25 26
f 16 26 18
f 18 26 27
f 18 27 19
f 21 28 20
f 30 29 28
f 29 20 28
f 29 22 20
f 22 31 23
f 22 29 31
f 24 23 32
f 32 23 31
f 30 33 29
f 29 33 31
f 31 33 34
f 31 34 32
f 37 36 35
f 39 38 35
f 35 38 37
f 41 40 39
f 39 40 38
f 43 42 41
f 41 42 40
f 2 3 43
f 3 42 43
f 3 44 42
f 45 3 4
f 45 44 3
f 46 4 6
f 46 45 4
f 6 8 46
f 46 8 47
f 50 49 48
f 52 51 48
f 48 51 50
f 51 52 36
f 52 35 36
f 52 53 35
f 35 54 39
f 35 53 54
f 54 10 11
f 41 54 11
f 39 54 41
f 41 11 12
f 41 12 43
f 43 12 2
f 55 47 8
f 55 8 17
f 17 19 55
f 55 19 56
f 48 49 57
f 57 49 58
f 48 59 52
f 48 57 59
f 52 60 53
f 52 59 60
f 53 61 54
f 53 60 61
f 61 21 10
f 61 10 54
f 24 62 25
f 63 26 25
f 63 25 62
f 64 27 26
f 64 26 63
f 64 65 27
f 65 19 27
f 65 56 19
f 57 58 66
f 66 58 67
f 57 68 59
f 57 66 68
f 59 69 60
f 59 68 69
f 60 70 61
f 60 69 70
f 71 28 21
f 61 71 21
f 70 71 61
f 71 30 28
f 32 72 62
f 32 62 24
f 62 73 63
f 62 72 73
f 63 74 64
f 63 73 74
f 65 64 75
f 75 64 74
f 67 76 66
f 66 76 68
f 68 76 77
f 79 78 77
f 78 68 77
f 78 69 68
f 69 80 70
f 69 78 80
f 70 81 71
f 70 80 81
f 82 33 30
f 71 82 30
f 81 82 71
f 83 34 33
f 83 33 82
f 72 32 34
f 83 72 34
f 84 72 83
f 72 85 73
f 72 84 85
f 87 74 86
f 74 85 86
f 74 73 85
f 74 87 75
f 79 88 78
f 78 88 80
f 80 88 89
f 80 89 81
f 81 89 90
f 81 90 82
f 82 90 91
f 82 91 83
f 83 91 92
f 83 92 84
f 84 92 93
f 84 93 85
f 85 93 94
f 85 94 86
f 97 96 95
f 99 98 95
f 95 98 97
f 99 100 98
f 103 102 101
f 105 104 101
f 101 104 103
f 36 37 105
f 37 104 105
f 37 106 104
f 107 37 38
f 107 106 37
f 108 38 40
f 108 107 38
f 109 40 42
f 109 108 40
f 44 95 96
f 109 44 96
f 42 44 109
f 95 44 45
f 95 45 99
f 110 100 99
f 45 110 99
f 46 110 45
f 46 47 110
f 110 47 111
f 114 113 112
f 114 112 102
f 102 112 101
f 112 49 101
f 49 50 101
f 101 50 51
f 101 51 105
f 105 51 36
f 115 111 47
f 115 47 55
f 55 56 115
f 115 56 116
f 112 113 117
f 117 113 118
f 117 58 49
f 117 49 112
f 65 116 56
f 65 119 116
f 117 118 120
f 120 118 121
f 120 67 58
f 120 58 117
f 124 123 122
f 123 119 122
f 119 75 122
f 119 65 75
f 121 125 120
f 125 127 126
f 125 126 76
f 120 125 76
f 67 120 76
f 128 77 76
f 128 76 126
f 128 79 77
f 124 122 87
f 86 124 87
f 129 124 86
f 87 122 75
f 127 130 126
f 126 130 128
f 128 130 131
f 128 131 79
f 131 88 79
f 131 132 88
f 88 133 89
f 132 133 88
f 89 134 90
f 133 134 89
f 90 135 91
f 134 135 90
f 91 136 92
f 135 136 91
f 92 137 93
f 136 137 92
f 93 138 94
f 137 138 93
f 86 94 129
f 129 94 138
f 139 96 97
f 98 140 97
f 97 140 139
f 100 140 98
f 143 142 141
f 102 103 141
f 103 143 141
f 103 144 143
f 145 103 104
f 145 144 103
f 146 104 106
f 146 145 104
f 147 106 107
f 147 146 106
f 148 107 108
f 148 147 107
f 149 108 109
f 149 148 108
f 109 96 139
f 150 109 139
f 149 109 150
f 150 139 140
f 150 140 151
f 151 140 100
f 110 151 100
f 152 151 110
f 110 111 152
f 152 111 153
f 141 142 114
f 142 113 114
f 142 154 113
f 141 114 102
f 111 115 155
f 156 111 155
f 153 111 156
f 116 155 115
f 154 118 113
f 157 118 154
f 156 155 158
f 156 158 159
f 119 158 116
f 116 158 155
f 157 121 118
f 160 121 157
f 159 158 123
f 124 159 123
f 161 159 124
f 123 158 119
f 125 121 162
f 121 163 162
f 121 160 163
f 162 127 125
f 166 165 164
f 165 161 164
f 161 129 164
f 161 124 129
f 163 167 162
f 162 167 127
f 167 130 127
f 167 168 130
f 130 169 131
f 168 169 130
f 131 170 132
f 169 170 131
f 132 171 133
f 170 171 132
f 133 172 134
f 171 172 133
f 134 173 135
f 172 173 134
f 135 174 136
f 173 174 135
f 136 175 137
f 174 175 136
f 164 138 166
f 138 175 166
f 138 137 175
f 138 164 129
f 178 177 176
f 180 179 176
f 176 179 178
f 180 181 179
f 176 177 143
f 177 142 143
f 177 182 142
f 176 143 144
f 176 144 180
f 183 181 180
f 144 183 180
f 145 183 144
f 184 145 146
f 184 183 145
f 185 146 147
f 185 184 146
f 186 147 148
f 186 185 147
f 187 148 149
f 187 186 148
f 188 149 150
f 188 187 149
f 189 150 151
f 189 188 150
f 191 189 190
f 189 152 190
f 189 151 152
f 153 190 152
f 194 193 192
f 182 194 192
f 154 182 192
f 142 182 154
f 195 191 190
f 190 153 195
f 153 196 195
f 153 156 196
f 192 193 197
f 197 193 198
f 197 157 154
f 197 154 192
f 159 196 156
f 159 199 196
f 197 198 200
f 200 198 201
f 200 160 157
f 200 157 197
f 204 203 202
f 203 199 202
f 199 161 202
f 199 159 161
f 201 205 200
f 160 200 205
f 206 160 205
f 163 160 206
f 209 208 207
f 207 208 204
f 207 204 202
f 166 207 202
f 165 166 202
f 165 202 161
f 206 210 163
f 163 210 167
f 167 211 168
f 210 211 167
f 168 212 169
f 211 212 168
f 169 213 170
f 212 213 169
f 170 214 171
f 213 214 170
f 171 215 172
f 214 215 171
f 172 216 173
f 215 216 172
f 173 217 174
f 216 217 173
f 207 175 209
f 175 217 209
f 175 174 217
f 175 207 166
f 219 218 178
f 178 218 177
f 220 178 179
f 220 219 178
f 179 181 220
f 220 181 221
f 224 223 222
f 218 224 222
f 182 218 222
f 177 218 182
f 225 221 181
f 225 181 183
f 227 225 226
f 225 184 226
f 225 183 184
f 185 228 184
f 184 228 226
f 186 229 185
f 185 229 228
f 187 230 186
f 186 230 229
f 188 231 187
f 187 231 230
f 189 232 188
f 188 232 231
f 191 232 189
f 222 223 194
f 223 193 194
f 223 233 193
f 222 194 182
f 234 227 226
f 234 226 228
f 234 228 235
f 235 228 229
f 235 229 236
f 236 229 230
f 236 230 237
f 237 230 231
f 237 231 238
f 240 239 238
f 231 240 238
f 232 240 231
f 195 241 191
f 241 232 191
f 241 240 232
f 196 241 195
f 233 198 193
f 242 198 233
f 239 240 243
f 239 243 244
f 245 240 241
f 243 240 245
f 199 245 196
f 196 245 241
f 242 201 198
f 246 201 242
f 249 248 247
f 247 248 244
f 243 247 244
f 250 247 243
f 204 250 203
f 250 245 203
f 250 243 245
f 203 245 199
f 246 251 201
f 201 251 205
f 206 205 251
f 206 251 252
f 255 254 253
f 257 256 253
f 257 253 254
f 259 258 256
f 259 256 257
f 258 259 249
f 247 258 249
f 260 258 247
f 209 260 208
f 260 250 208
f 260 247 250
f 208 250 204
f 252 261 206
f 206 261 210
f 210 262 211
f 261 262 210
f 211 263 212
f 262 263 211
f 212 264 213
f 263 264 212
f 253 214 255
f 214 264 255
f 214 213 264
f 214 253 215
f 215 253 256
f 215 256 216
f 216 256 258
f 216 258 217
f 217 258 260
f 217 260 209
f 267 266 265
f 218 219 265
f 219 267 265
f 219 268 267
f 269 219 220
f 269 268 219
f 220 221 269
f 269 221 270
f 265 266 224
f 266 223 224
f 266 271 223
f 265 224 218
f 272 270 221
f 272 221 225
f 225 227 272
f 272 227 273
f 271 233 223
f 274 233 271
f 227 234 275
f 276 227 275
f 273 227 276
f 235 277 234
f 234 277 275
f 236 278 235
f 235 278 277
f 237 279 236
f 236 279 278
f 238 280 237
f 237 280 279
f 239 280 238
f 274 242 233
f 281 242 274
f 276 275 282
f 276 282 283
f 284 275 277
f 282 275 284
f 285 277 278
f 284 277 285
f 286 278 279
f 285 278 286
f 287 279 280
f 286 279 287
f 244 287 239
f 239 287 280
f 289 246 288
f 246 281 288
f 246 242 281
f 290 289 288
f 293 292 291
f 291 292 283
f 282 291 283
f 294 291 282
f 295 282 284
f 294 282 295
f 296 284 285
f 295 284 296
f 297 285 286
f 296 285 297
f 249 297 248
f 297 287 248
f 297 286 287
f 248 287 244
f 289 251 246
f 252 251 289
f 290 252 289
f 298 252 290
f 293 291 299
f 293 299 300
f 301 291 294
f 299 291 301
f 255 301 254
f 301 295 254
f 301 294 295
f 254 295 257
f 257 295 296
f 257 296 259
f 259 296 297
f 259 297 249
f 298 302 252
f 252 302 261
f 261 303 262
f 302 303 261
f 299 263 300
f 263 303 300
f 263 262 303
f 263 299 264
f 264 299 301
f 264 301 255
f 305 304 267
f 267 304 266
f 306 267 268
f 306 305 267
f 307 268 269
f 307 306 268
f 269 270 307
f 307 270 308
f 304 271 266
f 309 271 304
f 270 272 310
f 311 270 310
f 308 270 311
f 273 310 272
f 309 274 271
f 312 274 309
f 313 311 310
f 310 273 313
f 273 314 313
f 273 276 314
f 312 281 274
f 315 281 312
f 318 317 316
f 317 314 316
f 314 283 316
f 314 276 283
f 288 281 319
f 281 320 319
f 281 315 320
f 319 290 288
f 318 316 292
f 293 318 292
f 321 318 293
f 292 316 283
f 320 322 319
f 298 290 319
f 323 298 319
f 322 323 319
f 298 323 324
f 326 325 324
f 326 324 323
f 326 321 325
f 321 300 325
f 321 293 300
f 324 302 298
f 302 324 303
f 303 324 325
f 303 325 300
f 328 327 305
f 305 327 304
f 329 305 306
f 329 328 305
f 330 306 307
f 330 329 306
f 307 308 330
f 330 308 331
f 334 333 332
f 327 334 332
f 309 327 332
f 304 327 309
f 311 331 308
f 311 335 331
f 332 333 336
f 336 333 337
f 336 312 309
f 336 309 332
f 311 313 338
f 339 311 338
f 335 311 339
f 314 338 313
f 336 337 340
f 340 337 341
f 340 315 312
f 340 312 336
f 339 338 317
f 318 339 317
f 342 339 318
f 317 338 314
f 341 343 340
f 315 340 343
f 344 315 343
f 320 315 344
f 321 342 318
f 321 345 342
f 344 346 320
f 320 346 322
f 322 347 323
f 346 347 322
f 323 348 326
f 347 348 323
f 321 326 345
f 345 326 348
f 351 350 349
f 349 352 351
f 355 354 353
f 355 353 350
f 350 353 349
f 353 327 349
f 327 328 349
f 356 352 349
f 328 356 349
f 329 356 328
f 357 329 330
f 357 356 329
f 330 331 357
f 357 331 358
f 353 354 334
f 354 333 334
f 354 359 333
f 353 334 327
f 335 358 331
f 335 360 358
f 359 337 333
f 361 337 359
f 339 360 335
f 339 362 360
f 361 341 337
f 363 341 361
f 342 362 339
f 342 364 362
f 363 365 341
f 341 365 343
f 344 343 365
f 344 365 366
f 369 368 367
f 368 364 367
f 364 345 367
f 364 342 345
f 366 370 344
f 344 370 346
f 346 371 347
f 370 371 346
f 367 348 369
f 348 371 369
f 348 347 371
f 348 367 345
f 373 372 351
f 351 372 350
f 351 352 373
f 373 352 374
f 376 375 355
f 355 375 354
f 355 350 372
f 355 372 376
f 377 374 352
f 377 352 356
f 379 377 378
f 377 357 378
f 377 356 357
f 358 378 357
f 382 381 380
f 375 382 380
f 359 375 380
f 354 375 359
f 383 379 378
f 378 358 383
f 358 384 383
f 358 360 384
f 380 381 385
f 385 381 386
f 385 361 359
f 385 359 380
f 362 384 360
f 362 387 384
f 386 388 385
f 361 385 388
f 389 361 388
f 363 361 389
f 364 387 362
f 364 390 387
f 365 363 391
f 363 392 391
f 363 389 392
f 391 366 365
f 394 393 368
f 394 368 369
f 364 368 390
f 390 368 393
f 392 395 391
f 391 395 366
f 395 370 366
f 395 396 370
f 370 397 371
f 396 397 370
f 369 371 394
f 394 371 397
f 400 399 398
f 372 373 398
f 373 400 398
f 373 401 400
f 373 374 401
f 401 374 402
f 405 404 403
f 405 403 399
f 399 403 398
f 403 375 398
f 375 376 398
f 398 376 372
f 406 402 374
f 406 374 377
f 377 379 406
f 406 379 407
f 403 404 382
f 404 381 382
f 404 408 381
f 403 382 375
f 379 383 409
f 410 379 409
f 407 379 410
f 384 409 383
f 408 386 381
f 411 386 408
f 410 409 412
f 410 412 413
f 387 412 384
f 384 412 409
f 388 386 414
f 386 415 414
f 386 411 415
f 414 389 388
f 413 412 416
f 413 416 417
f 390 416 387
f 387 416 412
f 415 418 414
f 389 414 418
f 419 389 418
f 392 389 419
f 422 421 420
f 420 421 417
f 420 417 416
f 394 420 416
f 393 394 416
f 393 416 390
f 419 423 392
f 392 423 395
f 395 424 396
f 423 424 395
f 420 397 422
f 397 424 422
f 397 396 424
f 397 420 394
f 426 425 400
f 400 425 399
f 428 426 427
f 426 401 427
f 426 400 401
f 402 427 401
f 430 429 405
f 405 429 404
f 405 399 425
f 405 425 430
f 431 428 427
f 431 427 402
f 406 431 402
f 432 431 406
f 406 407 432
f 432 407 433
f 436 435 434
f 429 436 434
f 408 429 434
f 404 429 408
f 410 433 407
f 410 437 433
f 434 435 438
f 438 435 439
f 438 411 408
f 438 408 434
f 413 437 410
f 413 440 437
f 439 441 438
f 411 438 441
f 442 411 441
f 415 411 442
f 417 440 413
f 417 443 440
f 418 415 444
f 415 445 444
f 415 442 445
f 444 419 418
f 447 446 421
f 447 421 422
f 417 421 443
f 443 421 446
f 445 448 444
f 444 448 419
f 448 423 419
f 448 449 423
f 423 450 424
f 449 450 423
f 422 424 447
f 447 424 450
f 452 451 426
f 426 451 425
f 426 428 452
f 452 428 453
f 456 455 454
f 429 430 454
f 430 456 454
f 430 457 456
f 430 425 451
f 430 451 457
f 458 453 428
f 458 428 431
f 460 458 459
f 458 432 459
f 458 431 432
f 433 459 432
f 454 455 436
f 455 435 436
f 455 461 435
f 454 436 429
f 460 459 462
f 460 462 463
f 437 462 433
f 433 462 459
f 461 439 435
f 464 439 461
f 463 462 465
f 463 465 466
f 440 465 437
f 437 465 462
f 441 439 467
f 439 468 467
f 439 464 468
f 467 442 441
f 466 465 469
f 466 469 470
f 443 469 440
f 440 469 465
f 468 471 467
f 442 467 471
f 472 442 471
f 445 442 472
f 470 469 446
f 447 470 446
f 473 470 447
f 446 469 443
f 472 474 445
f 445 474 448
f 448 475 449
f 474 475 448
f 449 476 450
f 475 476 449
f 447 450 473
f 473 450 476
f 477 451 452
f 453 477 452
f 479 478 456
f 456 478 455
f 480 456 457
f 480 479 456
f 457 451 477
f 481 457 477
f 480 457 481
f 481 477 453
f 458 481 453
f 482 481 458
f 458 460 482
f 482 460 483
f 486 485 484
f 478 486 484
f 461 478 484
f 455 478 461
f 463 483 460
f 463 487 483
f 484 485 488
f 488 485 489
f 488 464 461
f 488 461 484
f 466 487 463
f 466 490 487
f 488 489 491
f 491 489 492
f 491 468 464
f 491 464 488
f 470 490 466
f 470 493 490
f 492 494 491
f 494 496 495
f 494 495 471
f 491 494 471
f 468 491 471
f 495 472 471
f 499 498 497
f 498 493 497
f 493 473 497
f 493 470 473
f 496 500 495
f 495 500 472
f 500 474 472
f 500 501 474
f 474 502 475
f 501 502 474
f 497 476 499
f 476 502 499
f 476 475 502
f 476 497 473
f 505 504 503
f 478 479 503
f 479 505 503
f 479 506 505
f 507 479 480
f 507 506 479
f 508 480 481
f 508 507 480
f 510 508 509
f 508 482 509
f 508 481 482
f 483 509 482
f 503 504 486
f 504 485 486
f 504 511 485
f 503 486 478
f 510 509 512
f 510 512 513
f 487 512 483
f 483 512 509
f 511 489 485
f 514 489 511
f 513 512 515
f 513 515 516
f 490 515 487
f 487 515 512
f 514 492 489
f 517 492 514
f 516 515 518
f 516 518 519
f 493 518 490
f 490 518 515
f 494 492 520
f 492 521 520
f 492 517 521
f 520 496 494
f 519 518 498
f 499 519 498
f 522 519 499
f 498 518 493
f 521 523 520
f 520 523 496
f 523 500 496
f 523 524 500
f 500 525 501
f 524 525 500
f 501 526 502
f 525 526 501
f 499 502 522
f 522 502 526
f 527 504 505
f 527 505 528
f 505 529 528
f 505 506 529
f 530 506 507
f 530 529 506
f 532 530 531
f 530 508 531
f 530 507 508
f 510 531 508
f 533 511 527
f 527 511 504
f 527 528 534
f 527 534 533
f 535 532 531
f 531 510 535
f 510 536 535
f 510 513 536
f 537 514 533
f 533 514 511
f 533 534 538
f 533 538 537
f 516 536 513
f 516 539 536
f 540 517 537
f 537 517 514
f 537 538 541
f 537 541 540
f 519 539 516
f 519 542 539
f 543 521 540
f 540 521 517
f 540 541 544
f 540 544 543
f 547 546 545
f 546 542 545
f 542 522 545
f 542 519 522
f 543 523 521
f 544 548 543
f 548 523 543
f 548 524 523
f 524 549 525
f 548 549 524
f 545 526 547
f 526 549 547
f 526 525 549
f 526 545 522
f 550 528 529
f 550 529 551
f 529 552 551
f 529 530 552
f 530 532 552
f 552 532 553
f 554 534 550
f 550 534 528
f 550 551 555
f 550 555 554
f 532 535 556
f 557 532 556
f 553 532 557
f 536 556 535
f 558 538 554
f 554 538 534
f 554 555 559
f 554 559 558
f 557 556 560
f 557 560 561
f 539 560 536
f 536 560 556
f 562 541 558
f 558 541 538
f 558 559 563
f 558 563 562
f 561 560 564
f 561 564 565
f 542 564 539
f 539 564 560
f 566 544 562
f 562 544 541
f 562 563 567
f 568 562 567
f 566 562 568
f 568 567 565
f 568 565 564
f 547 568 564
f 546 547 564
f 546 564 542
f 566 548 544
f 548 566 549
f 549 566 568
f 549 568 547
f 569 551 552
f 553 569 552
f 570 555 569
f 569 555 551
f 557 570 553
f 553 570 569
f 571 559 570
f 570 559 555
f 561 571 557
f 557 571 570
f 572 563 571
f 571 563 559
f 565 572 561
f 561 572 571
f 572 567 563
f 567 572 565
f 575 574 573
f 573 576 575
f 579 578 577
f 579 577 574
f 577 573 574
f 577 580 573
f 576 573 581
f 581 573 580
f 577 578 582
f 582 578 583
f 585 580 584
f 580 582 584
f 580 577 582
f 580 585 581
f 583 586 582
f 582 586 584
f 589 588 587
f 587 590 589
f 593 592 591
f 593 591 588
f 588 591 587
f 591 574 587
f 574 575 587
f 575 576 587
f 576 590 587
f 576 594 590
f 597 596 595
f 597 595 592
f 592 595 591
f 595 578 591
f 578 579 591
f 591 579 574
f 581 594 576
f 581 598 594
f 595 596 599
f 599 596 600
f 599 583 578
f 599 578 595
f 584 601 585
f 601 602 585
f 602 581 585
f 602 598 581
f 600 603 599
f 603 605 604
f 603 604 586
f 599 603 586
f 583 599 586
f 604 606 586
f 586 606 584
f 606 607 584
f 607 601 584
f 601 607 602
f 605 608 604
f 604 608 606
f 611 610 609
f 609 612 611
f 609 610 613
f 613 610 614
f 589 615 588
f 615 609 588
f 609 613 588
f 609 615 612
f 589 590 615
f 615 590 616
f 619 618 617
f 619 617 614
f 614 617 613
f 617 592 613
f 592 593 613
f 613 593 588
f 594 616 590
f 594 620 616
f 623 622 621
f 623 621 618
f 618 621 617
f 621 596 617
f 596 597 617
f 617 597 592
f 598 625 624
f 620 598 624
f 594 598 620
f 625 626 624
f 622 627 621
f 596 621 627
f 628 596 627
f 600 596 628
f 602 629 625
f 602 625 598
f 626 625 630
f 630 625 629
f 628 631 600
f 600 631 603
f 605 603 631
f 605 631 632
f 606 633 607
f 633 634 607
f 607 634 602
f 634 635 602
f 635 629 602
f 629 635 630
f 632 636 605
f 605 636 608
f 606 608 633
f 608 637 633
f 608 636 637
f 633 637 634
f 640 639 638
f 610 611 638
f 611 640 638
f 611 641 640
f 611 612 641
f 641 612 642
f 638 639 643
f 643 639 644
f 643 614 610
f 643 610 638
f 645 642 612
f 645 612 615
f 615 616 645
f 645 616 646
f 649 648 647
f 649 647 644
f 644 647 643
f 647 618 643
f 618 619 643
f 643 619 614
f 620 651 650
f 646 620 650
f 616 620 646
f 651 652 650
f 654 653 648
f 653 622 648
f 623 647 648
f 623 648 622
f 623 618 647
f 653 654 655
f 624 651 620
f 624 626 651
f 626 652 651
f 626 656 652
f 653 627 622
f 628 627 653
f 655 628 653
f 657 628 655
f 630 656 626
f 630 658 656
f 657 659 628
f 628 659 631
f 632 631 659
f 632 659 660
f 634 661 635
f 661 662 635
f 662 630 635
f 662 658 630
f 660 663 632
f 632 663 636
f 663 665 664
f 637 663 664
f 636 663 637
f 661 634 637
f 664 661 637
f 666 661 664
f 662 661 667
f 667 661 666
f 665 668 664
f 664 668 666
f 666 668 669
f 666 669 667
f 670 639 640
f 641 671 640
f 640 671 670
f 642 671 641
f 673 672 670
f 672 639 670
f 672 644 639
f 673 670 671
f 673 671 674
f 674 671 642
f 645 674 642
f 675 674 645
f 645 646 675
f 675 646 676
f 677 648 649
f 678 677 649
f 644 678 649
f 672 678 644
f 679 676 646
f 679 646 650
f 650 652 679
f 679 652 680
f 677 654 648
f 655 654 677
f 678 655 677
f 681 655 678
f 656 680 652
f 656 682 680
f 681 657 655
f 683 657 681
f 658 685 684
f 682 658 684
f 656 658 682
f 685 686 684
f 683 687 657
f 657 687 659
f 660 659 687
f 660 687 688
f 662 689 685
f 662 685 658
f 686 685 690
f 690 685 689
f 663 660 691
f 660 692 691
f 660 688 692
f 691 665 663
f 667 693 689
f 667 689 662
f 690 689 694
f 694 689 693
f 692 695 691
f 691 695 665
f 695 668 665
f 695 696 668
f 668 697 669
f 696 697 668
f 667 669 693
f 669 698 693
f 669 697 698
f 693 698 694
f 699 672 673
f 699 673 700
f 673 701 700
f 673 674 701
f 702 674 675
f 702 701 674
f 675 676 702
f 702 676 703
f 704 678 699
f 699 678 672
f 699 700 705
f 699 705 704
f 706 703 676
f 706 676 679
f 679 680 706
f 706 680 707
f 708 681 704
f 704 681 678
f 704 705 709
f 704 709 708
f 682 711 710
f 707 682 710
f 680 682 707
f 711 712 710
f 713 683 708
f 708 683 681
f 708 709 714
f 708 714 713
f 684 711 682
f 684 686 711
f 686 712 711
f 686 715 712
f 713 687 683
f 688 687 713
f 714 688 713
f 716 688 714
f 690 715 686
f 690 717 715
f 716 692 688
f 718 692 716
f 694 717 690
f 694 719 717
f 718 720 692
f 692 720 695
f 720 722 721
f 696 720 721
f 695 720 696
f 723 697 696
f 723 696 721
f 724 698 697
f 724 697 723
f 724 725 698
f 725 694 698
f 725 719 694
f 722 726 721
f 721 726 723
f 723 726 727
f 723 727 724
f 724 727 728
f 724 728 725
f 729 700 701
f 702 730 701
f 701 730 729
f 703 730 702
f 731 705 729
f 729 705 700
f 730 733 732
f 731 730 732
f 729 730 731
f 733 730 703
f 706 733 703
f 734 733 706
f 706 707 734
f 734 707 735
f 737 736 731
f 736 705 731
f 736 709 705
f 737 731 732
f 738 735 707
f 738 707 710
f 710 712 738
f 738 712 739
f 736 714 709
f 740 714 736
f 715 739 712
f 715 741 739
f 740 716 714
f 742 716 740
f 717 744 743
f 741 717 743
f 715 717 741
f 744 745 743
f 747 718 746
f 718 742 746
f 718 716 742
f 748 747 746
f 719 749 744
f 719 744 717
f 745 744 750
f 750 744 749
f 747 720 718
f 722 720 747
f 748 722 747
f 751 722 748
f 725 752 749
f 725 749 719
f 750 749 753
f 753 749 752
f 751 754 722
f 722 754 726
f 754 756 755
f 727 754 755
f 726 754 727
f 757 728 727
f 757 727 755
f 757 758 728
f 728 758 725
f 758 759 725
f 759 752 725
f 752 759 753
f 756 760 755
f 755 760 757
f 757 760 761
f 757 761 758
f 762 732 733
f 734 763 733
f 733 763 762
f 735 763 734
f 764 736 737
f 765 764 737
f 765 737 732
f 766 765 732
f 762 766 732
f 766 762 763
f 766 763 767
f 767 763 735
f 738 767 735
f 768 767 738
f 738 739 768
f 768 739 769
f 770 740 764
f 764 740 736
f 764 765 771
f 764 771 770
f 741 773 772
f 769 741 772
f 739 741 769
f 773 774 772
f 775 742 770
f 770 742 740
f 770 771 776
f 770 776 775
f 743 773 741
f 743 745 773
f 745 774 773
f 745 777 774
f 775 746 742
f 748 746 775
f 776 748 775
f 778 748 776
f 750 777 745
f 750 779 777
f 778 751 748
f 780 751 778
f 753 779 750
f 753 781 779
f 780 782 751
f 751 782 754
f 756 754 782
f 756 782 783
f 758 784 759
f 784 785 759
f 785 753 759
f 785 781 753
f 783 786 756
f 756 786 760
f 760 787 761
f 786 787 760
f 758 761 784
f 761 788 784
f 761 787 788
f 784 788 785
f 789 765 766
f 789 766 790
f 766 791 790
f 766 767 791
f 792 767 768
f 792 791 767
f 768 769 792
f 792 769 793
f 795 794 789
f 794 765 789
f 794 771 765
f 795 789 790
f 796 793 769
f 796 769 772
f 772 774 796
f 796 774 797
f 794 776 771
f 798 776 794
f 777 797 774
f 777 799 797
f 798 778 776
f 800 778 798
f 779 799 777
f 779 801 799
f 803 780 802
f 780 800 802
f 780 778 800
f 804 803 802
f 781 806 805
f 801 781 805
f 779 781 801
f 806 807 805
f 803 782 780
f 783 782 803
f 804 783 803
f 808 783 804
f 810 809 806
f 781 810 806
f 785 810 781
f 806 809 807
f 808 811 783
f 783 811 786
f 811 813 812
f 787 811 812
f 786 811 787
f 814 788 787
f 814 787 812
f 814 815 788
f 815 785 788
f 815 810 785
f 813 816 812
f 812 816 814
f 814 816 817
f 814 817 815
f 818 790 791
f 792 819 791
f 791 819 818
f 793 819 792
f 820 794 795
f 821 820 795
f 821 795 790
f 822 821 790
f 818 822 790
f 822 818 819
f 822 819 823
f 823 819 793
f 796 823 793
f 824 823 796
f 796 797 824
f 824 797 825
f 826 798 820
f 820 798 794
f 820 821 827
f 820 827 826
f 799 825 797
f 799 828 825
f 829 800 826
f 826 800 798
f 826 827 830
f 826 830 829
f 801 832 831
f 828 801 831
f 799 801 828
f 832 833 831
f 829 802 800
f 804 802 829
f 830 804 829
f 834 804 830
f 805 832 801
f 805 807 832
f 807 833 832
f 807 835 833
f 834 808 804
f 836 808 834
f 810 837 809
f 837 838 809
f 838 807 809
f 838 835 807
f 836 839 808
f 808 839 811
f 813 811 839
f 813 839 840
f 842 841 837
f 810 842 837
f 815 842 810
f 837 841 838
f 816 813 843
f 813 844 843
f 813 840 844
f 845 817 816
f 845 816 843
f 845 846 817
f 846 815 817
f 846 842 815
f 844 847 843
f 843 847 845
f 845 847 848
f 845 848 846
f 849 821 822
f 823 850 822
f 822 850 849
f 824 851 823
f 823 851 850
f 825 851 824
f 853 852 849
f 852 821 849
f 852 827 821
f 853 849 850
f 853 850 854
f 854 850 851
f 854 851 855
f 851 825 855
f 825 856 855
f 825 828 856
f 852 830 827
f 857 830 852
f 858 856 828
f 858 828 831
f 831 833 858
f 858 833 859
f 857 834 830
f 860 834 857
f 835 859 833
f 835 861 859
f 860 836 834
f 862 836 860
f 838 861 835
f 838 863 861
f 862 864 836
f 836 864 839
f 840 839 864
f 840 864 865
f 842 866 841
f 866 867 841
f 867 838 841
f 867 863 838
f 865 844 840
f 868 844 865
f 846 869 866
f 846 866 842
f 867 866 870
f 870 866 869
f 868 871 844
f 844 871 847
f 871 873 872
f 848 871 872
f 847 871 848
f 872 874 848
f 848 874 846
f 874 875 846
f 875 869 846
f 869 875 870
f 873 876 872
f 872 876 874
f 877 852 853
f 877 853 878
f 853 879 878
f 853 854 879
f 880 854 855
f 880 879 854
f 855 856 880
f 880 856 881
f 882 857 877
f 877 857 852
f 877 878 883
f 877 883 882
f 884 881 856
f 884 856 858
f 858 859 884
f 884 859 885
f 887 886 882
f 886 857 882
f 886 860 857
f 887 882 883
f 861 885 859
f 861 888 885
f 886 862 860
f 889 862 886
f 863 888 861
f 863 890 888
f 864 862 891
f 862 892 891
f 862 889 892
f 891 865 864
f 867 890 863
f 867 893 890
f 892 894 891
f 865 891 894
f 895 865 894
f 868 865 895
f 870 893 867
f 870 896 893
f 871 868 897
f 868 898 897
f 868 895 898
f 897 873 871
f 874 899 875
f 899 900 875
f 900 870 875
f 900 896 870
f 898 901 897
f 901 903 902
f 901 902 876
f 897 901 876
f 873 897 876
f 902 904 876
f 876 904 874
f 904 905 874
f 905 899 874
f 899 905 900
f 903 906 902
f 902 906 904
f 907 878 879
f 880 908 879
f 879 908 907
f 881 908 880
f 910 909 907
f 909 878 907
f 909 883 878
f 910 907 908
f 910 908 911
f 913 911 912
f 912 911 884
f 911 908 884
f 908 881 884
f 885 912 884
f 914 886 887
f 915 914 887
f 883 915 887
f 909 915 883
f 916 913 912
f 912 885 916
f 885 917 916
f 885 888 917
f 919 918 914
f 918 886 914
f 918 889 886
f 919 914 915
f 890 917 888
f 890 920 917
f 918 892 889
f 921 892 918
f 893 920 890
f 893 922 920
f 921 923 892
f 892 923 894
f 895 894 923
f 895 923 924
f 896 922 893
f 896 925 922
f 924 898 895
f 926 898 924
f 900 925 896
f 900 927 925
f 901 898 928
f 898 929 928
f 898 926 929
f 928 903 901
f 904 930 905
f 930 931 905
f 931 900 905
f 931 927 900
f 929 932 928
f 932 934 933
f 932 933 906
f 928 932 906
f 903 928 906
f 933 935 906
f 906 935 904
f 935 936 904
f 936 930 904
f 930 936 931
f 934 937 933
f 933 937 935
f 938 909 910
f 911 939 910
f 910 939 938
f 913 939 911
f 941 940 938
f 940 909 938
f 940 915 909
f 941 938 939
f 941 939 942
f 944 942 943
f 943 942 916
f 942 939 916
f 939 913 916
f 917 943 916
f 945 918 919
f 946 945 919
f 915 946 919
f 940 946 915
f 947 944 943
f 943 917 947
f 917 948 947
f 917 920 948
f 949 921 945
f 945 921 918
f 945 946 950
f 945 950 949
f 922 948 920
f 922 951 948
f 949 923 921
f 924 923 949
f 950 924 949
f 952 924 950
f 925 951 922
f 925 953 951
f 952 926 924
f 954 926 952
f 927 953 925
f 927 955 953
f 954 929 926
f 956 929 954
f 931 955 927
f 931 957 955
f 932 929 958
f 929 959 958
f 929 956 959
f 958 934 932
f 935 960 936
f 960 961 936
f 961 931 936
f 961 957 931
f 959 962 958
f 962 964 963
f 962 963 937
f 958 962 937
f 934 958 937
f 960 935 937
f 963 960 937
f 965 960 963
f 961 960 966
f 966 960 965
f 964 967 963
f 963 967 965
f 965 967 968
f 965 968 966
f 969 940 941
f 942 970 941
f 941 970 969
f 944 970 942
f 972 971 969
f 971 940 969
f 971 946 940
f 972 969 970
f 972 970 973
f 973 970 944
f 947 973 944
f 974 973 947
f 947 948 974
f 974 948 975
f 971 950 946
f 976 950 971
f 951 975 948
f 951 977 975
f 976 952 950
f 978 952 976
f 953 977 951
f 953 979 977
f 978 954 952
f 980 954 978
f 955 979 953
f 955 981 979
f 980 956 954
f 982 956 980
f 957 981 955
f 957 983 981
f 982 959 956
f 984 959 982
f 961 983 957
f 961 985 983
f 962 959 986
f 959 987 986
f 959 984 987
f 986 964 962
f 966 985 961
f 966 988 985
f 987 989 986
f 989 991 990
f 989 990 967
f 986 989 967
f 964 986 967
f 992 968 967
f 992 967 990
f 992 993 968
f 993 966 968
f 993 988 966
f 991 994 990
f 990 994 992
f 992 994 995
f 992 995 993
f 996 971 972
f 973 997 972
f 972 997 996
f 974 998 973
f 973 998 997
f 975 998 974
f 1000 999 996
f 999 971 996
f 999 976 971
f 1000 996 997
f 1000 997 1001
f 1001 997 998
f 1001 998 1002
f 998 975 1002
f 975 1003 1002
f 975 977 1003
f 999 978 976
f 1004 978 999
f 979 1003 977
f 979 1005 1003
f 1004 980 978
f 1006 980 1004
f 981 1005 979
f 981 1007 1005
f 1006 982 980
f 1008 982 1006
f 983 1007 981
f 983 1009 1007
f 1008 984 982
f 1010 984 1008
f 985 1009 983
f 985 1011 1009
f 1010 987 984
f 1012 987 1010
f 988 1011 985
f 988 1013 1011
f 989 987 1014
f 987 1015 1014
f 987 1012 1015
f 1014 991 989
f 993 1013 988
f 993 1016 1013
f 1015 1017 1014
f 1017 1019 1018
f 1017 1018 994
f 1014 1017 994
f 991 1014 994
f 1020 995 994
f 1020 994 1018
f 1020 1021 995
f 1021 993 995
f 1021 1016 993
f 1019 1022 1018
f 1018 1022 1020
f 1020 1022 1023
f 1020 1023 1021
f 1024 999 1000
f 1001 1025 1000
f 1000 1025 1024
f 1002 1026 1001
f 1001 1026 1025
f 1003 1026 1002
f 1027 1004 1024
f 1024 1004 999
f 1025 1029 1028
f 1027 1025 1028
f 1024 1025 1027
f 1029 1025 1026
f 1029 1026 1030
f 1026 1003 1030
f 1003 1031 1030
f 1003 1005 1031
f 1033 1032 1027
f 1032 1004 1027
f 1032 1006 1004
f 1033 1027 1028
f 1007 1031 1005
f 1007 1034 1031
f 1032 1008 1006
f 1035 1008 1032
f 1009 1034 1007
f 1009 1036 1034
f 1035 1010 1008
f 1037 1010 1035
f 1011 1039 1038
f 1036 1011 1038
f 1009 1011 1036
f 1039 1040 1038
f 1037 1012 1010
f 1041 1012 1037
f 1013 1042 1039
f 1013 1039 1011
f 1040 1039 1043
f 1043 1039 1042
f 1041 1015 1012
f 1044 1015 1041
f 1016 1045 1042
f 1016 1042 1013
f 1043 1042 1046
f 1046 1042 1045
f 1044 1047 1015
f 1015 1047 1017
f 1019 1017 1047
f 1019 1047 1048
f 1050 1049 1045
f 1016 1050 1045
f 1021 1050 1016
f 1045 1049 1046
f 1048 1051 1019
f 1019 1051 1022
f 1022 1052 1023
f 1051 1052 1022
f 1021 1023 1050
f 1050 1023 1052
f 1053 1028 1029
f 1030 1054 1029
f 1029 1054 1053
f 1031 1054 1030
f 1055 1032 1033
f 1056 1055 1033
f 1056 1033 1028
f 1057 1056 1028
f 1053 1057 1028
f 1057 1053 1054
f 1057 1054 1058
f 1054 1031 1058
f 1031 1059 1058
f 1031 1034 1059
f 1061 1060 1055
f 1060 1032 1055
f 1060 1035 1032
f 1061 1055 1056
f 1036 1059 1034
f 1036 1062 1059
f 1060 1037 1035
f 1063 1037 1060
f 1064 1062 1036
f 1064 1036 1038
f 1038 1040 1064
f 1064 1040 1065
f 1063 1041 1037
f 1066 1041 1063
f 1043 1065 1040
f 1043 1067 1065
f 1066 1044 1041
f 1068 1044 1066
f 1046 1067 1043
f 1046 1069 1067
f 1047 1044 1070
f 1044 1071 1070
f 1044 1068 1071
f 1070 1048 1047
f 1050 1072 1049
f 1072 1073 1049
f 1073 1046 1049
f 1073 1069 1046
f 1071 1074 1070
f 1074 1076 1075
f 1074 1075 1051
f 1070 1074 1051
f 1048 1070 1051
f 1077 1052 1051
f 1077 1051 1075
f 1077 1078 1052
f 1052 1078 1050
f 1078 1079 1050
f 1079 1072 1050
f 1072 1079 1073
f 1076 1080 1075
f 1075 1080 1077
f 1077 1080 1081
f 1077 1081 1078
f 1082 1056 1057
f 1058 1083 1057
f 1057 1083 1082
f 1059 1083 1058
f 1084 1060 1061
f 1085 1084 1061
f 1085 1061 1056
f 1086 1085 1056
f 1082 1086 1056
f 1086 1082 1083
f 1086 1083 1087
f 1083 1059 1087
f 1059 1088 1087
f 1059 1062 1088
f 1090 1089 1084
f 1089 1060 1084
f 1089 1063 1060
f 1090 1084 1085
f 1062 1064 1091
f 1092 1062 1091
f 1088 1062 1092
f 1065 1091 1064
f 1089 1066 1063
f 1093 1066 1089
f 1094 1092 1091
f 1091 1065 1094
f 1065 1095 1094
f 1065 1067 1095
f 1093 1068 1066
f 1096 1068 1093
f 1069 1095 1067
f 1069 1097 1095
f 1096 1071 1068
f 1098 1071 1096
f 1073 1097 1069
f 1073 1099 1097
f 1098 1100 1071
f 1071 1100 1074
f 1076 1074 1100
f 1076 1100 1101
f 1103 1102 1079
f 1103 1079 1078
f 1073 1079 1099
f 1099 1079 1102
f 1101 1104 1076
f 1076 1104 1080
f 1080 1105 1081
f 1104 1105 1080
f 1078 1081 1103
f 1103 1081 1105
f 1106 1085 1086
f 1087 1107 1086
f 1086 1107 1106
f 1088 1107 1087
f 1108 1089 1090
f 1109 1108 1090
f 1109 1090 1085
f 1110 1109 1085
f 1106 1110 1085
f 1110 1106 1107
f 1110 1107 1111
f 1107 1088 1111
f 1088 1112 1111
f 1088 1092 1112
f 1114 1113 1108
f 1113 1089 1108
f 1113 1093 1089
f 1114 1108 1109
f 1115 1112 1092
f 1115 1092 1094
f 1094 1095 1115
f 1115 1095 1116
f 1113 1096 1093
f 1117 1096 1113
f 1097 1116 1095
f 1097 1118 1116
f 1117 1098 1096
f 1119 1098 1117
f 1099 1118 1097
f 1099 1120 1118
f 1119 1121 1098
f 1098 1121 1100
f 1123 1122 1101
f 1100 1123 1101
f 1121 1123 1100
f 1125 1124 1122
f 1125 1122 1123
f 1102 1103 1124
f 1125 1102 1124
f 1126 1102 1125
f 1099 1102 1120
f 1120 1102 1126
f 1122 1104 1101
f 1104 1122 1105
f 1105 1122 1124
f 1105 1124 1103
f 1128 1127 1110
f 1110 1127 1109
f 1129 1110 1111
f 1129 1128 1110
f 1111 1112 1129
f 1129 1112 1130
f 1131 1113 1114
f 1132 1131 1114
f 1109 1132 1114
f 1127 1132 1109
f 1112 1115 1133
f 1134 1112 1133
f 1130 1112 1134
f 1116 1133 1115
f 1135 1117 1131
f 1131 1117 1113
f 1131 1132 1136
f 1137 1131 1136
f 1135 1131 1137
f 1139 1138 1137
f 1139 1137 1136
f 1138 1139 1134
f 1133 1138 1134
f 1140 1138 1133
f 1118 1140 1116
f 1116 1140 1133
f 1141 1119 1135
f 1135 1119 1117
f 1142 1135 1137
f 1141 1135 1142
f 1143 1137 1138
f 1142 1137 1143
f 1144 1138 1140
f 1143 1138 1144
f 1120 1144 1118
f 1118 1144 1140
f 1141 1121 1119
f 1121 1141 1123
f 1123 1141 1142
f 1123 1142 1125
f 1125 1142 1143
f 1125 1143 1126
f 1126 1143 1144
f 1126 1144 1120
f 1145 1127 1128
f 1129 1146 1128
f 1128 1146 1145
f 1130 1146 1129
f 1147 1132 1145
f 1145 1132 1127
f 1148 1145 1146
f 1147 1145 1148
f 1134 1148 1130
f 1130 1148 1146
f 1147 1136 1132
f 1136 1147 1139
f 1139 1147 1148
f 1139 1148 1134
# 2288 faces, 0 coords texture

# End of File