####
#
# OBJ File Generated by Meshlab
#
####
# Object domain0605.obj
#
# Vertices: 1220
# Faces: 2436
#
####
v 189.311600 44.090717 91.077515
v 189.477478 44.149220 90.857796
v 189.418488 43.981998 91.077385
v 189.411072 43.925133 92.000153
v 189.263504 44.085251 92.000595
v 189.421631 43.984135 92.921906
v 189.328705 44.078800 92.920319
v 189.489563 44.139824 93.125084
v 189.223068 44.551865 91.074615
v 189.442902 44.550983 90.755447
v 189.141602 44.546032 91.992935
v 189.285751 44.469868 92.897812
v 189.505402 44.445587 93.176071
v 189.219543 45.106884 91.067261
v 189.430191 45.113548 90.707703
v 189.155121 45.091228 91.982521
v 189.270996 45.132534 92.519638
v 189.353027 44.799759 92.952446
v 189.280151 45.605698 91.064018
v 189.436691 45.590683 90.718712
v 189.252975 45.617653 91.950714
v 189.414688 45.646461 92.424850
v 189.392349 45.975708 90.975258
v 189.362274 45.949352 91.983620
v 189.879211 44.112568 90.752403
v 189.880585 43.881763 91.072128
v 189.880722 43.772202 91.999771
v 189.880768 43.884426 92.926201
v 189.881607 44.122883 93.216911
v 189.873947 44.547119 90.531273
v 189.896240 44.536774 93.340065
v 189.829880 45.094280 90.375389
v 189.542999 45.133030 93.000153
v 189.943481 45.073853 93.289162
v 189.698395 45.697662 90.361053
v 189.702835 45.647224 92.911987
v 190.054413 45.602165 93.207504
v 189.796265 46.345673 90.126274
v 190.075180 46.390060 89.800255
v 189.900574 46.014481 90.031349
v 189.465042 46.342205 91.002106
v 189.529388 46.318623 91.996323
v 189.841064 46.344143 92.540329
v 189.917679 45.959465 92.946129
v 189.799301 46.879925 90.077705
v 190.035614 46.881004 89.760925
v 189.598419 46.871376 90.998245
v 189.709610 46.861439 91.951340
v 189.972992 46.859158 92.337952
v 189.842361 47.391171 90.088837
v 190.066162 47.381691 89.754501
v 189.694153 47.442635 90.998398
v 189.845261 47.383072 91.906311
v 190.069229 47.359112 92.208466
v 189.930695 47.731548 90.034660
v 189.833115 47.939423 90.998367
v 189.918213 48.026630 90.512215
v 189.951935 48.001095 91.473412
v 189.966644 47.698235 91.934837
v 189.967621 48.272015 91.000465
v 190.448746 44.094498 90.700768
v 190.449982 43.850052 91.064934
v 190.449982 43.726677 92.000015
v 190.449982 43.854519 92.931358
v 190.450058 44.107788 93.248604
v 190.420670 44.512142 90.387177
v 190.450439 44.549995 93.410797
v 190.250656 45.170841 90.073906
v 190.614517 45.293999 89.829002
v 190.501831 44.935314 90.088333
v 190.458694 45.120182 93.423698
v 190.101959 45.683781 89.978439
v 190.526382 45.757423 89.715439
v 190.479843 45.676960 93.352058
v 190.472397 46.305988 89.599068
v 190.194839 46.250568 92.948097
v 190.552917 46.100723 93.202492
v 190.455917 46.885612 89.512192
v 190.490631 46.492249 92.927017
v 190.427109 46.912125 92.616158
v 190.452988 47.438522 89.413864
v 190.472656 47.436451 92.407936
v 190.078705 48.098759 89.983765
v 190.404907 48.030285 89.500488
v 190.207047 48.006805 91.954124
v 190.577164 47.924496 92.245163
v 190.239929 48.633518 90.026642
v 190.465225 48.637909 89.508537
v 190.153305 48.633541 90.973824
v 190.438797 48.669247 91.527550
v 190.478760 48.314358 91.963173
v 190.352448 49.205654 90.033501
v 190.516037 49.220024 89.529541
v 190.386658 49.139053 90.919777
v 190.602783 49.134361 91.286148
v 190.461960 49.697201 90.014671
v 190.583420 49.760876 89.561790
v 190.545532 49.755455 90.472115
v 190.540573 49.461712 90.945694
v 190.573044 50.022781 90.006737
v 191.024841 44.101711 90.707176
v 191.019852 43.878826 91.069260
v 191.023148 43.759296 92.000069
v 191.019318 43.882145 92.927643
v 191.020096 44.117775 93.231651
v 191.034592 44.475189 90.389458
v 191.022049 44.550610 93.391388
v 191.035629 45.273148 89.772110
v 191.035446 44.878052 90.051521
v 191.025574 45.121960 93.422638
v 191.034866 45.726822 89.622795
v 191.023224 45.691105 93.376930
v 191.036102 46.297276 89.502861
v 191.034683 46.142982 93.234039
v 190.998886 46.828533 89.330238
v 191.035995 46.552258 92.963509
v 191.035583 46.986446 92.690445
v 190.858749 47.522354 89.098663
v 191.208939 47.639801 88.841797
v 191.087540 47.277401 89.086807
v 191.033981 47.469906 92.512810
v 190.796539 48.053642 89.049507
v 191.179779 48.065739 88.753265
v 191.060165 48.022514 92.369560
v 190.794312 48.637924 89.041512
v 191.153458 48.639507 88.701050
v 190.778976 48.594715 91.951714
v 191.138046 48.444592 92.203018
v 190.784729 49.223862 89.029770
v 191.123306 49.223576 88.631706
v 191.081863 48.824833 91.916138
v 191.034958 49.219669 91.565788
v 190.781723 49.831070 89.048752
v 191.114075 49.791935 88.526733
v 190.790512 49.766865 90.957947
v 191.146118 49.694508 91.281883
v 190.883606 50.380932 89.038841
v 191.098312 50.394424 88.531097
v 190.751785 50.383839 89.973053
v 191.025238 50.426716 90.527191
v 191.062744 50.074524 90.966911
v 190.990433 50.896473 89.046257
v 191.158630 50.938625 88.560806
v 190.992996 50.876091 89.939117
v 191.193054 50.887012 90.283432
v 191.107483 51.236244 89.016594
v 191.160736 51.180920 89.956337
v 191.457062 44.147614 90.798302
v 191.494705 43.968803 91.076363
v 191.526855 43.894489 92.001198
v 191.489288 43.974598 92.922050
v 191.428680 44.148941 93.146950
v 191.577606 44.559803 90.537727
v 191.474701 44.551712 93.241386
v 191.448883 45.301521 89.840141
v 191.548508 44.975227 90.118279
v 191.490417 45.122078 93.269867
v 191.545807 45.761181 89.713844
v 191.478516 45.694309 93.247955
v 191.611923 46.304333 89.542221
v 191.446320 46.118511 93.155609
v 191.623764 46.782314 89.336037
v 191.563812 46.472542 92.898643
v 191.646301 46.912476 92.621696
v 191.623337 47.616341 88.764725
v 191.623383 47.207497 89.037132
v 191.618698 47.460701 92.475990
v 191.633423 48.069466 88.603218
v 191.609879 48.034367 92.382469
v 191.612823 48.634609 88.467796
v 191.620682 48.486954 92.233978
v 191.537155 49.133972 88.313072
v 191.621948 48.895401 91.962509
v 191.619171 49.315735 91.655891
v 191.455490 49.859379 88.092369
v 191.814224 49.911240 87.794426
v 191.653778 49.539753 88.039696
v 191.638397 49.782646 91.424782
v 191.405029 50.402088 88.060547
v 191.747635 50.406651 87.714218
v 191.364960 50.352718 90.951698
v 191.721954 50.204395 91.209564
v 191.373444 51.002598 88.058479
v 191.717285 50.985641 87.641052
v 191.667847 50.582840 90.916130
v 191.621552 50.976654 90.564606
v 191.446732 51.562916 88.040779
v 191.711777 51.549416 87.529564
v 191.235245 51.598419 88.982018
v 191.406860 51.511944 89.934738
v 191.737534 51.447254 90.275475
v 191.505280 52.141754 88.038162
v 191.695251 52.152271 87.534775
v 191.447464 52.119144 88.981262
v 191.639557 52.170948 89.518532
v 191.661667 51.824360 89.960030
v 191.590500 52.652973 88.047279
v 191.746460 52.695805 87.561569
v 191.613144 52.640648 88.935631
v 191.789886 52.635647 89.272789
v 191.702011 52.988964 88.016861
v 191.756653 52.934811 88.954193
v 191.663452 44.089401 91.072418
v 191.832108 44.071075 92.001228
v 191.629898 44.092587 92.913345
v 191.955582 44.514843 91.001450
v 192.139526 44.571861 91.515587
v 192.071411 44.345299 91.991356
v 192.069885 44.589462 92.437035
v 191.829559 44.530830 92.915321
v 191.762711 45.207722 90.106422
v 192.065491 45.184353 90.579826
v 192.150803 44.853748 91.019829
v 191.853638 45.121368 92.950737
v 192.144608 45.126881 92.470016
v 191.951523 45.696278 89.992439
v 192.240387 45.690617 90.473892
v 191.843033 45.700153 92.943375
v 192.153137 45.707722 92.471710
v 192.092361 46.402554 89.717636
v 192.201797 46.009792 90.016922
v 191.766647 46.223476 92.884682
v 192.108109 46.319492 92.462273
v 192.205582 46.885586 89.436295
v 192.103973 46.875237 92.339302
v 192.107315 47.658466 88.792000
v 192.166183 47.280411 89.088264
v 192.084564 47.464069 92.286530
v 192.186996 48.086025 88.591835
v 192.064529 48.038303 92.247948
v 192.181549 48.593903 88.366615
v 192.032303 48.462513 92.155602
v 191.937073 49.252922 88.040047
v 192.301834 49.425514 87.808998
v 192.246323 49.030357 88.077690
v 192.149902 48.816715 91.899124
v 192.229568 49.255241 91.616432
v 192.233994 49.842979 87.634933
v 192.200684 49.786175 91.421982
v 192.201691 50.396038 87.476501
v 192.207108 50.245449 91.238899
v 192.123291 50.892498 87.313538
v 192.208054 50.653553 90.962570
v 192.205200 51.076653 90.660622
v 192.044189 51.618156 87.094131
v 192.400223 51.669239 86.794426
v 192.239807 51.297756 87.039680
v 192.224258 51.542007 90.427574
v 191.991043 52.160267 87.060349
v 192.333618 52.164654 86.714211
v 191.956100 52.105721 89.946655
v 192.308044 51.962181 90.209183
v 191.964706 52.759628 87.061234
v 192.306168 52.743664 86.644104
v 192.253967 52.340698 89.915993
v 192.208191 52.732655 89.563148
v 192.064651 53.310249 87.049614
v 192.318207 53.306122 86.538200
v 191.849564 53.337612 87.982254
v 191.997620 53.262737 88.937302
v 192.324692 53.204109 89.274139
v 192.158081 53.826996 87.045280
v 192.341812 53.868797 86.565781
v 192.107224 53.821106 87.970108
v 192.268860 53.866356 88.476311
v 192.259659 53.570377 88.954895
v 192.265594 54.171997 87.013885
v 192.277115 54.159615 87.991875
v 192.208481 44.644196 91.985420
v 192.267426 45.193344 91.066795
v 192.292892 45.137966 91.965233
v 192.406113 45.737511 91.013939
v 192.349106 45.709881 91.963608
v 192.427582 46.344944 90.054878
v 192.599075 46.263096 91.014671
v 192.391022 46.293697 91.960152
v 192.622681 46.979885 89.727005
v 192.659790 46.683716 90.049149
v 192.730606 46.622520 90.989059
v 192.678223 46.921196 91.444618
v 192.456619 46.854134 91.944519
v 192.461075 47.516960 89.047905
v 192.773071 47.444813 89.485100
v 192.442230 47.464016 91.953201
v 192.735825 47.470531 91.471466
v 192.677612 48.172642 88.723083
v 192.765549 47.791000 89.038742
v 192.429077 48.044151 91.943413
v 192.753433 48.053509 91.476990
v 192.788437 48.649334 88.445351
v 192.355392 48.568504 91.886093
v 192.705719 48.661366 91.468155
v 192.700806 49.425953 87.805473
v 192.753296 49.049618 88.099976
v 192.693451 49.219372 91.343788
v 192.773941 49.846798 87.599121
v 192.656815 49.795486 91.262497
v 192.767548 50.351898 87.366402
v 192.621780 50.222134 91.158966
v 192.523026 51.010929 87.040039
v 192.887863 51.183502 86.808983
v 192.832336 50.788349 87.077675
v 192.742737 50.583927 90.912544
v 192.829910 51.031025 90.663895
v 192.819962 51.600967 86.634926
v 192.794342 51.551239 90.455223
v 192.787659 52.154030 86.476494
v 192.794815 52.008114 90.250237
v 192.709503 52.651203 86.314072
v 192.794373 52.414234 89.965912
v 192.791214 52.834854 89.660957
v 192.636459 53.377296 86.098816
v 192.985519 53.427029 85.793663
v 192.825378 53.055542 86.039169
v 192.810211 53.299980 89.427414
v 192.574677 53.937458 86.081802
v 192.931946 53.923038 85.733017
v 192.556717 53.841373 88.942383
v 192.895935 53.717060 89.207115
v 192.642670 54.491707 86.059807
v 192.922775 54.498066 85.685867
v 192.387482 54.538601 86.984306
v 192.488602 54.503918 87.983727
v 192.832199 54.483559 88.469025
v 192.845367 54.078819 88.900864
v 192.697876 55.070019 86.060753
v 192.914444 55.085560 85.657547
v 192.559998 55.065453 86.994278
v 192.721893 55.003117 87.921043
v 192.975342 54.973396 88.238342
v 192.771698 55.580666 86.053192
v 192.982239 55.602345 85.574394
v 192.730484 55.573128 86.970413
v 192.879105 55.616634 87.469574
v 192.890701 55.315350 87.936333
v 192.879517 55.916420 86.020454
v 192.873932 55.912708 86.990173
v 192.804489 46.982681 90.061516
v 192.827408 46.965763 90.953514
v 192.973007 47.503010 90.016975
v 192.915649 47.476681 90.961868
v 193.008698 48.107723 89.057884
v 193.184372 48.021267 90.014442
v 192.987396 48.052967 90.965820
v 193.220871 48.732315 88.717278
v 193.255203 48.438240 89.047844
v 193.315994 48.380768 89.988777
v 193.269440 48.678158 90.447006
v 193.058304 48.614151 90.960190
v 193.049149 49.273636 88.048912
v 193.390198 49.190617 88.472160
v 193.040955 49.220070 90.966339
v 193.348450 49.230846 90.481438
v 193.268066 49.927082 87.718399
v 193.353760 49.544838 88.032143
v 193.032547 49.804047 90.953720
v 193.420120 49.838417 90.501953
v 193.375229 50.406086 87.443916
v 192.973846 50.336353 90.899521
v 193.378418 50.427643 90.584023
v 193.286728 51.183945 86.805458
v 193.339355 50.807632 87.099976
v 193.372910 50.975567 90.484993
v 193.359955 51.604805 86.599113
v 193.353836 51.540264 90.376038
v 193.353531 52.109894 86.366394
v 193.280121 51.963730 90.206421
v 193.109085 52.768929 86.040039
v 193.473785 52.941509 85.808990
v 193.418289 52.546349 86.077690
v 193.344437 52.360424 89.936836
v 193.413437 52.800247 89.674377
v 193.406891 53.358910 85.638741
v 193.381775 53.313099 89.465332
v 193.382095 53.913937 85.496674
v 193.390518 53.775848 89.264275
v 193.339172 54.464344 85.362206
v 193.383118 54.179337 88.972221
v 193.373520 54.589302 88.656845
v 193.238647 55.019695 85.299713
v 193.400238 55.052837 88.412956
v 193.235214 55.732159 85.129898
v 193.584564 55.756809 84.807045
v 193.400299 55.384212 85.021774
v 193.148270 55.598091 87.938492
v 193.483337 55.481762 88.214325
v 193.326904 56.184975 85.092728
v 193.591995 56.178051 84.789246
v 193.025253 56.267361 85.993095
v 193.080872 56.258255 86.984200
v 193.405121 56.254143 87.484894
v 193.429306 55.856449 87.918564
v 193.445175 56.521328 85.036514
v 193.257202 56.765266 86.020615
v 193.410278 56.828022 85.508339
v 193.332764 56.737343 86.937546
v 193.558670 56.733173 87.246666
v 193.428772 57.101414 86.011162
v 193.515671 57.030582 86.947639
v 193.424744 48.744434 89.058838
v 193.432663 48.720993 89.954292
v 193.675552 49.230453 89.023361
v 193.569092 49.233986 89.969170
v 193.628845 49.851353 88.039322
v 193.885620 49.855907 88.524315
v 193.869995 49.583084 89.001266
v 193.912567 49.836651 89.487206
v 193.742081 49.763943 90.015366
v 193.816086 50.482033 87.711060
v 193.888138 50.153229 88.050415
v 193.891891 50.133282 89.962990
v 193.761536 50.481575 90.243637
v 193.635239 51.031490 87.048805
v 193.981323 50.944889 87.469002
v 193.804550 50.983360 90.247200
v 193.854050 51.685078 86.718391
v 193.939896 51.302593 87.031815
v 193.770569 51.467388 90.199524
v 193.961212 52.164085 86.443916
v 193.652832 52.127346 89.965973
v 193.931152 51.836063 89.954605
v 194.045670 52.238895 89.679665
v 193.872757 52.941948 85.805443
v 193.925308 52.565620 86.099960
v 193.975311 52.741890 89.530434
v 193.945541 53.363220 85.599548
v 193.955261 53.312214 89.414238
v 193.937744 53.875423 85.373886
v 193.953400 53.771149 89.249100
v 193.768448 54.548885 85.078255
v 194.123306 54.681362 84.847511
v 194.017151 54.318665 85.097061
v 193.964050 54.184296 88.977417
v 193.967545 54.609116 88.695671
v 193.612045 55.057495 84.970482
v 194.045074 55.135643 84.725464
v 193.966370 55.081936 88.492615
v 193.990036 55.680664 84.598389
v 194.008896 55.589428 88.291695
v 193.982132 56.250957 84.519997
v 193.942566 56.018509 88.022545
v 193.890869 56.397453 87.709740
v 193.599854 56.885353 84.986160
v 193.974106 56.786358 84.504990
v 193.981155 56.819778 87.457558
v 193.749695 57.425259 85.026894
v 193.993332 57.428360 84.515541
v 193.599838 57.444088 85.982094
v 193.774048 57.335430 86.919731
v 194.070694 57.240219 87.222878
v 193.862061 57.996353 85.032761
v 194.033035 58.010086 84.529945
v 193.869232 57.924252 85.945427
v 194.057587 57.931568 86.424332
v 194.035721 57.588928 86.907707
v 193.979614 58.486317 85.015038
v 194.099335 58.550888 84.561798
v 194.057892 58.546680 85.473366
v 194.041656 58.259716 85.967690
v 194.088898 58.812794 85.006699
v 194.012238 49.918957 89.000443
v 194.051620 50.471611 88.070114
v 194.183640 50.419682 89.000740
v 193.998077 50.472687 89.912270
v 194.285904 50.967831 88.004845
v 194.362747 50.946484 89.013977
v 194.077240 50.994316 89.925888
v 194.216080 51.608250 87.038757
v 194.480011 51.610233 87.524315
v 194.479919 51.321541 88.011414
v 194.491959 51.307610 88.986557
v 194.377472 51.630867 89.432434
v 194.127869 51.491310 89.877129
v 194.401932 52.240078 86.711067
v 194.475998 51.909573 87.049164
v 194.421967 52.156570 89.333710
v 194.221268 52.789513 86.048828
v 194.567337 52.702892 86.469025
v 194.417831 52.740250 89.285194
v 194.441254 53.442448 85.716934
v 194.526077 53.060455 86.031609
v 194.405579 53.312641 89.243584
v 194.553467 53.915928 85.434486
v 194.376373 53.737759 89.158455
v 194.458633 54.702190 84.815887
v 194.511566 54.322445 85.095467
v 194.493958 54.091805 88.900146
v 194.575867 54.530094 88.621048
v 194.538864 55.117191 84.644394
v 194.543854 55.073406 88.453560
v 194.549606 55.664703 84.470062
v 194.537323 55.614792 88.315140
v 194.450851 56.158901 84.286446
v 194.270676 56.228493 87.965294
v 194.546188 55.993267 88.127884
v 194.376297 56.888298 84.087387
v 194.746582 56.948616 83.806061
v 194.583710 56.572998 84.042404
v 194.552902 56.387829 87.879738
v 194.555511 56.831055 87.593864
v 194.327255 57.432961 84.055748
v 194.686218 57.439651 83.729149
v 194.594955 57.347061 87.314636
v 194.307190 58.014572 84.035461
v 194.651855 58.021603 83.658020
v 194.533447 57.767498 87.014328
v 194.504868 58.107967 86.656387
v 194.298813 58.620777 84.049286
v 194.643341 58.581070 83.533493
v 194.297943 58.563377 85.967430
v 194.631973 58.519230 86.326447
v 194.399490 59.170853 84.038727
v 194.614990 59.184292 83.531731
v 194.267487 59.173828 84.973007
v 194.532440 59.222134 85.532387
v 194.569855 58.874672 85.979591
v 194.506424 59.686466 84.046242
v 194.684219 59.724548 83.566032
v 194.505554 59.667873 84.941193
v 194.697144 59.692322 85.302040
v 194.637878 60.016487 84.018288
v 194.673294 59.972992 84.958542
v 194.623184 51.661716 88.027702
v 194.578629 51.654762 88.947952
v 194.639160 52.228939 87.070229
v 194.786926 52.171898 88.005402
v 194.650375 52.164700 88.939934
v 194.871933 52.725796 87.004837
v 194.960434 52.699181 88.014282
v 194.700760 52.744728 88.937683
v 194.809189 53.361534 86.032982
v 195.085037 53.359577 86.518036
v 195.077179 53.074741 87.010941
v 195.086914 53.062576 87.990143
v 195.005966 53.370171 88.437950
v 194.772705 53.295990 88.921120
v 195.051285 54.000137 85.682098
v 195.106079 53.652039 86.032936
v 194.691711 53.837917 88.878693
v 195.018280 53.941032 88.451050
v 194.819641 54.533665 85.040955
v 195.181259 54.452152 85.365250
v 195.030899 54.492348 88.335426
v 195.019699 55.209991 84.730965
v 195.124527 54.805767 85.020767
v 195.004791 55.072708 88.272636
v 195.116089 55.712009 84.445686
v 194.943939 55.564003 88.195168
v 194.869888 56.297863 84.056656
v 195.144501 56.518795 83.872238
v 195.140671 56.136017 84.131035
v 194.817886 56.209312 87.943283
v 195.103012 55.936691 87.954056
v 195.215637 56.344746 87.681175
v 195.152756 56.897331 83.685135
v 195.136978 56.837944 87.501503
v 195.146133 57.438644 83.546570
v 195.123993 57.374290 87.327705
v 195.113617 57.981281 83.378418
v 194.860306 57.978085 86.957306
v 195.131714 57.751312 87.128418
v 194.989548 58.667522 83.113197
v 195.313843 58.773571 82.841248
v 195.195984 58.418537 83.096291
v 195.138474 58.136234 86.871559
v 195.158340 58.557308 86.553421
v 194.928009 59.192375 83.066162
v 195.282425 59.199203 82.754082
v 194.864792 59.167706 85.976547
v 195.255173 59.061157 86.273430
v 194.926086 59.776917 83.079895
v 195.285156 59.760239 82.753242
v 195.153305 59.463501 85.979362
v 195.093582 59.816845 85.634857
v 195.067749 60.285664 83.085014
v 195.339569 60.272602 82.775566
v 194.793991 60.360649 83.990074
v 194.922836 60.298576 84.943108
v 195.225906 60.267895 85.316322
v 195.199661 60.623795 83.034897
v 195.059174 60.839844 83.995949
v 195.183456 60.921841 83.510818
v 195.198593 60.901089 84.480415
v 195.180664 60.612484 84.966240
v 195.232285 61.167660 84.001205
v 195.245926 53.414429 87.026001
v 195.190887 53.408474 87.953575
v 195.354660 53.968811 86.050598
v 195.500565 53.898903 87.015022
v 195.284927 53.923145 87.950897
v 195.577454 54.577106 85.698158
v 195.602036 54.296555 86.045403
v 195.652161 54.245571 86.987617
v 195.606903 54.539749 87.443916
v 195.378448 54.472965 87.940208
v 195.411209 55.103634 85.022049
v 195.744370 55.046185 85.467171
v 195.355240 55.075302 87.939995
v 195.664124 55.089458 87.467636
v 195.642883 55.749199 84.673119
v 195.706406 55.395329 85.020645
v 195.303741 55.619465 87.906067
v 195.647202 55.691856 87.473572
v 195.416580 56.292213 84.038406
v 195.768478 56.159115 84.344040
v 195.634216 56.257542 87.366508
v 195.680481 56.922699 83.707657
v 195.747086 56.499260 83.985817
v 195.596741 56.832581 87.285095
v 195.723618 57.430080 83.507545
v 195.533371 57.322964 87.198402
v 195.721924 57.903267 83.304291
v 195.406052 57.970600 86.946785
v 195.698257 57.700432 86.963654
v 195.825073 58.121178 86.723785
v 195.736481 58.740055 82.749420
v 195.726288 58.326862 83.021095
v 195.727844 58.610188 86.543121
v 195.737793 59.199718 82.606705
v 195.746170 59.154854 86.372437
v 195.732101 59.773918 82.550125
v 195.456848 59.736515 85.957039
v 195.817001 59.570587 86.191917
v 195.736145 60.351082 82.511261
v 195.766144 59.950443 85.907471
v 195.721130 60.354477 85.565582
v 195.364670 60.985584 82.991386
v 195.734619 60.888496 82.507309
v 195.470413 60.905865 84.964203
v 195.835709 60.828449 85.282120
v 195.536758 61.514656 83.027321
v 195.772430 61.528210 82.524239
v 195.431778 61.523033 83.974785
v 195.703232 61.566830 84.533035
v 195.746902 61.213589 84.972603
v 195.673264 62.031029 83.045387
v 195.843689 62.073296 82.559074
v 195.676453 62.012409 83.941612
v 195.869156 62.036320 84.302017
v 195.804031 62.364697 83.017410
v 195.845413 62.316818 83.958466
v 195.771729 54.602806 86.057304
v 195.771454 54.581806 86.953667
v 196.013779 55.094791 86.026688
v 195.879349 55.096275 86.960373
v 195.981873 55.705616 85.028351
v 196.225159 55.718071 85.524620
v 196.198853 55.449951 85.994339
v 196.186111 55.716240 86.444122
v 195.981339 55.644749 86.954643
v 196.219162 56.331818 84.567474
v 196.250504 56.004028 85.029892
v 195.974976 56.252357 86.969498
v 196.265656 56.263935 86.476280
v 196.201355 57.033379 83.789955
v 196.252045 56.671257 84.089073
v 195.963165 56.836403 86.954918
v 196.343689 56.872524 86.495117
v 196.289398 57.459793 83.588150
v 195.920700 57.384407 86.922455
v 196.318314 57.456444 86.590012
v 196.315353 57.922634 83.343910
v 196.312546 58.018372 86.522964
v 196.299103 58.737724 82.741402
v 196.308029 58.331684 83.027695
v 196.301804 58.597599 86.451897
v 196.309601 59.197601 82.561874
v 196.281631 59.152363 86.346329
v 196.296799 59.761288 82.423080
v 196.216232 59.570465 86.190987
v 196.204910 60.260822 82.282715
v 196.273590 59.965874 85.922379
v 196.335236 60.402569 85.634247
v 196.133896 60.990269 82.086983
v 196.492065 61.045559 81.776871
v 196.341599 60.674911 82.042252
v 196.329590 60.916294 85.421272
v 196.078568 61.533680 82.046677
v 196.411591 61.539219 81.649132
v 196.038345 61.510242 84.974243
v 196.434586 61.402344 85.246651
v 196.055511 62.135567 82.046654
v 196.383484 62.100155 81.520576
v 196.326324 61.806458 84.977158
v 196.265594 62.160801 84.634827
v 196.148071 62.689674 82.040207
v 196.352417 62.701504 81.517700
v 195.950897 62.713905 82.982353
v 196.094742 62.642632 83.943085
v 196.397720 62.611103 84.316101
v 196.273193 63.197254 82.047646
v 196.428436 63.245396 81.554924
v 196.218674 63.189533 82.969856
v 196.378067 63.230087 83.471352
v 196.357285 62.950848 83.961769
v 196.422333 63.502533 82.023224
v 196.419891 63.492065 82.981216
v 196.318192 55.777557 85.986000
v 196.422577 56.335457 85.044060
v 196.455124 56.276394 85.969933
v 196.506119 56.928276 84.072174
v 196.693939 56.809750 84.999863
v 196.628769 56.819412 85.989540
v 196.710846 57.542965 83.764389
v 196.766006 57.234081 84.054222
v 196.873734 57.146713 85.000801
v 196.792618 57.194962 85.964783
v 196.688721 57.516571 86.242294
v 196.857712 58.027817 83.529427
v 196.745178 58.025787 86.262276
v 196.793045 58.795410 82.794830
v 196.845306 58.434139 83.099136
v 196.751358 58.590477 86.250809
v 196.873047 59.221699 82.602470
v 196.703995 59.084873 86.206078
v 196.892105 59.766972 82.382362
v 196.580811 59.741802 85.961006
v 196.863770 59.455849 85.959145
v 196.980392 59.861809 85.686760
v 196.627762 60.399372 82.056671
v 196.907059 60.613022 81.850029
v 196.898300 60.223339 82.116379
v 196.905777 60.363075 85.535835
v 196.911850 60.993427 81.586182
v 196.888397 60.942444 85.431046
v 196.827530 61.447487 81.330444
v 196.922806 61.496834 85.348587
v 196.697891 62.167587 81.028046
v 196.923096 62.136566 80.511246
v 196.897018 61.823479 80.999504
v 196.626953 62.084034 84.961472
v 196.996887 61.923080 85.202896
v 196.842087 62.801895 79.031685
v 196.974075 62.752151 78.526314
v 197.007843 62.497482 79.022987
v 196.932205 62.423637 80.002525
v 196.778259 62.765270 80.025818
v 196.571655 62.703888 80.993584
v 196.938858 62.306137 84.920525
v 196.893188 62.696598 84.565598
v 196.853287 63.362099 78.071655
v 197.002090 63.327568 77.550423
v 196.969315 63.034798 78.025513
v 196.720383 63.304710 79.010101
v 196.685196 63.298191 80.008965
v 196.571136 63.299725 80.997162
v 196.659393 63.214760 83.943825
v 196.986435 63.100513 84.244255
v 196.809326 63.873829 78.047195
v 196.941788 63.874245 77.517342
v 196.717056 63.862350 79.003624
v 196.719467 63.855396 79.993401
v 196.746353 63.818924 80.979233
v 196.648224 63.824619 81.980026
v 196.698059 63.756130 82.964325
v 196.967377 63.707401 83.408272
v 196.958908 63.420044 83.892441
v 196.876450 64.367722 78.051369
v 197.020477 64.415443 77.556862
v 196.828995 64.369720 78.998993
v 196.862579 64.337959 79.966660
v 196.971786 64.389565 80.477646
v 196.925644 64.152939 81.004486
v 196.946335 64.121529 82.014397
v 196.987198 63.938126 82.945457
v 197.018295 64.663864 78.026108
v 196.997711 64.680809 79.009750
v 197.014954 64.546783 79.969635
v 196.946594 57.530811 84.062805
v 197.043243 57.491085 85.002487
v 196.911270 57.522804 85.930733
v 197.196075 58.011013 84.015945
v 197.271713 57.991173 85.013931
v 197.018509 58.031277 85.928673
v 197.135986 58.668457 83.055138
v 197.421356 58.640854 83.521919
v 197.414398 58.351799 84.009521
v 197.417007 58.343586 84.987450
v 197.351440 58.643967 85.438515
v 197.113693 58.572052 85.919014
v 197.358521 59.310024 82.745552
v 197.440216 58.936520 83.045296
v 197.053864 59.131756 85.898872
v 197.376740 59.212940 85.458008
v 197.470078 59.787334 82.532509
v 197.387375 59.774746 85.361427
v 197.178421 60.387562 82.027817
v 197.556122 60.214199 82.287857
v 197.373825 60.361031 85.311676
v 197.423340 60.973732 81.516563
v 197.521072 60.570835 81.946800
v 197.412079 60.981293 85.305862
v 197.202621 61.550659 81.008789
v 197.527878 61.644382 80.565369
v 197.527740 61.343338 81.070946
v 197.452209 61.527470 85.328857
v 197.282181 62.237438 79.033798
v 197.542007 62.266830 78.577293
v 197.574051 62.090889 79.059135
v 197.527023 61.911167 80.012238
v 197.200531 62.133064 80.008850
v 197.479416 61.960949 85.219849
v 197.422318 62.825489 77.040794
v 197.567795 62.792923 76.528687
v 197.605316 62.662846 77.037903
v 197.530579 62.503757 78.013763
v 197.211426 62.741428 77.997330
v 197.481873 62.367428 84.955788
v 197.480377 62.763378 84.612007
v 197.452774 63.413269 75.036186
v 197.564178 63.365059 74.523727
v 197.608566 63.228523 75.038948
v 197.552155 63.031982 75.992264
v 197.378479 63.357506 76.025589
v 197.179688 63.283691 77.010002
v 197.482864 63.153133 84.300484
v 197.440582 63.975662 73.032722
v 197.552689 63.917603 72.522552
v 197.590759 63.666077 73.022118
v 197.528503 63.603230 74.003769
v 197.389175 63.941868 74.022636
v 197.310165 63.893124 75.007881
v 197.248856 63.881016 76.003265
v 197.110443 63.872723 76.976646
v 197.483185 63.492455 83.931236
v 197.486267 63.810928 83.460793
v 197.449738 64.541603 72.054886
v 197.523514 64.474068 71.508133
v 197.541046 64.198807 72.015839
v 197.352798 64.465431 73.012566
v 197.322418 64.459717 74.001579
v 197.288361 64.449440 74.999886
v 197.263123 64.451805 76.003845
v 197.147217 64.474548 76.997421
v 197.203751 64.428879 80.997307
v 197.266251 64.345551 81.971573
v 197.532059 64.303955 82.427940
v 197.472000 64.104042 82.947029
v 197.523590 65.037437 71.079071
v 197.624786 65.046257 70.574272
v 197.548187 64.765648 71.014420
v 197.435364 64.973862 72.006546
v 197.399078 64.969810 72.999176
v 197.406647 64.963089 73.999702
v 197.393311 64.965332 74.999863
v 197.387787 64.966911 76.000702
v 197.365158 64.967087 77.001900
v 197.258148 64.953934 77.977745
v 197.269943 64.939766 78.982910
v 197.502808 65.004257 79.490837
v 197.446777 64.860489 80.023003
v 197.538223 64.596497 80.981850
v 197.566605 64.464859 81.943092
v 197.568512 65.299118 71.017624
v 197.522720 65.324539 72.001640
v 197.509811 65.326714 73.001419
v 197.537201 65.301178 74.000153
v 197.561295 65.281563 75.000008
v 197.563293 65.279755 75.999817
v 197.571976 65.271477 77.020844
v 197.561874 65.160522 77.996719
v 197.575531 65.115860 78.971191
v 197.588211 58.689491 84.026421
v 197.534927 58.682457 84.953575
v 197.691666 59.248169 83.058624
v 197.844604 59.172920 84.015007
v 197.629837 59.197063 84.951363
v 197.889008 59.879509 82.753212
v 197.938980 59.575264 83.051514
v 198.005356 59.517342 83.988068
v 197.968948 59.813969 84.449715
v 197.731186 59.747692 84.946083
v 198.044876 60.357292 82.511475
v 197.756500 60.357025 84.981987
v 198.113968 60.377548 84.506752
v 198.024048 61.045563 81.556450
v 198.034363 60.730957 82.051414
v 197.847229 60.910702 85.040581
v 198.182953 60.885735 84.673630
v 198.068573 61.568470 80.518700
v 198.085480 61.302395 81.055939
v 198.048401 61.244843 84.981186
v 197.860840 61.616276 85.186684
v 198.069366 62.175613 78.523346
v 198.068756 62.008369 79.049919
v 198.070633 61.791542 79.990517
v 197.879745 61.948681 85.136391
v 197.820572 62.778687 76.031013
v 198.108810 62.822090 75.557854
v 198.139481 62.652218 76.070419
v 198.085129 62.518734 77.014145
v 198.070297 62.363781 77.984772
v 198.000549 62.281460 84.886497
v 198.060837 62.684334 84.550507
v 197.859985 63.394482 73.022087
v 198.107910 63.351658 72.520683
v 198.164780 63.227737 73.030830
v 198.128952 63.165916 74.021683
v 197.795975 63.330280 74.004135
v 198.065002 62.986664 75.008713
v 197.978271 63.103397 84.244499
v 198.034088 64.005135 70.035286
v 198.172180 63.975975 69.535378
v 198.202103 63.849293 70.033867
v 198.167923 63.778946 71.009499
v 197.952759 63.969532 71.007942
v 198.071899 63.576496 71.980148
v 197.768188 63.874592 71.985001
v 198.015656 63.445717 83.901680
v 198.072800 63.768295 83.454239
v 198.047256 64.540794 69.094032
v 198.282715 64.568214 68.808914
v 198.177200 64.234749 69.070679
v 197.848679 64.478027 70.013741
v 197.669434 64.421516 70.971680
v 198.070236 64.094093 82.942093
v 198.032089 64.329742 82.437805
v 197.983231 65.058411 69.076569
v 198.233917 65.057861 68.761314
v 197.740219 65.046860 70.009956
v 197.789551 65.002686 79.987503
v 198.104309 64.909134 80.434448
v 198.053970 64.723763 80.978043
v 198.001572 64.494461 81.917114
v 197.993561 65.618988 69.073540
v 198.236420 65.618752 68.764679
v 197.823532 65.623917 70.008224
v 197.703369 65.649910 70.986458
v 197.672638 65.671173 71.999947
v 197.682785 65.665092 72.997429
v 197.786438 65.632408 73.981705
v 197.822647 65.569984 74.995331
v 197.834244 65.550362 75.998260
v 197.862305 65.512054 76.973579
v 198.112427 65.507317 77.443069
v 198.055603 65.368584 77.999916
v 198.082535 65.226204 78.984970
v 198.131149 65.087753 79.928139
v 198.077713 66.115891 69.076202
v 198.288025 66.099503 68.821968
v 197.984802 66.131294 70.001457
v 197.974289 66.110046 70.994926
v 197.979187 66.101868 71.998367
v 197.999680 66.092644 72.971794
v 198.136246 66.133377 73.476341
v 198.075867 65.925964 74.024193
v 198.137207 65.765869 74.997795
v 198.151215 65.707298 75.996864
v 198.159988 65.652992 76.948685
v 198.220886 66.392555 69.058205
v 198.176682 66.431816 70.014305
v 198.177078 66.301079 70.993591
v 198.185013 66.267082 71.997620
v 198.195221 66.247215 72.968605
v 198.110748 59.878479 83.062279
v 198.155533 59.852631 83.959610
v 198.363846 60.357101 83.015564
v 198.364517 60.352455 83.988403
v 198.339813 60.975933 82.013893
v 198.609253 60.975376 82.514870
v 198.583160 60.698273 83.008698
v 198.544907 60.715858 83.968010
v 198.495361 61.020947 84.295082
v 198.610199 61.637653 80.553337
v 198.572083 61.453236 81.054291
v 198.655060 61.227268 81.981293
v 198.211792 61.575684 84.890495
v 198.534225 61.524567 84.447762
v 198.618057 62.213299 78.547028
v 198.582382 62.061340 79.072121
v 198.655136 61.827988 80.015373
v 198.195435 62.048420 84.871086
v 198.535065 62.123611 84.441162
v 198.653442 62.747013 75.516953
v 198.653641 62.613049 76.047119
v 198.644333 62.504677 77.008095
v 198.666473 62.374752 77.999603
v 198.492523 62.612793 84.272438
v 198.397339 63.357689 72.027412
v 198.690033 63.410336 71.556641
v 198.720688 63.259815 72.075256
v 198.670013 63.120014 73.010933
v 198.660767 63.053864 74.003517
v 198.654449 62.915840 74.976273
v 198.319855 63.235115 83.950081
v 198.600540 62.953663 83.951485
v 198.663452 63.321537 83.524223
v 198.424820 63.973969 69.065903
v 198.760620 64.088318 68.809830
v 198.732498 63.856964 69.094193
v 198.672241 63.697124 70.015038
v 198.650711 63.579033 71.002167
v 198.511963 63.714447 83.259148
v 198.684555 64.490547 68.642876
v 198.345871 64.417274 81.985855
v 198.686249 64.266510 82.017502
v 198.645844 64.448624 81.495750
v 198.559921 63.926498 82.907539
v 198.667221 65.048523 68.578453
v 198.591705 64.626099 80.956192
v 198.595947 64.879784 80.414360
v 198.667862 65.626930 68.593033
v 198.652649 65.384438 78.015549
v 198.652084 65.566391 77.475082
v 198.639206 65.232300 78.985802
v 198.582520 65.059593 79.918503
v 198.672485 66.160187 68.694870
v 198.400604 66.143150 73.971512
v 198.690399 66.094193 74.442886
v 198.646271 65.935173 74.999191
v 198.653870 65.800545 75.989014
v 198.654022 65.709785 76.952728
v 198.469070 66.640846 69.061951
v 198.666077 66.523041 68.883965
v 198.454941 66.670845 69.975380
v 198.699585 66.672691 70.442024
v 198.646561 66.528618 70.999466
v 198.666901 66.418861 71.994522
v 198.673309 66.375038 72.987762
v 198.720688 66.246300 73.924889
v 198.672394 66.729385 69.096245
v 198.744400 66.798058 69.954796
v 198.758957 61.034687 83.025360
v 198.678650 61.036762 83.938118
v 198.874527 61.629871 81.022964
v 198.932556 61.529705 82.013069
v 199.022232 61.513958 83.014008
v 198.799042 61.543537 83.950127
v 198.911850 62.182140 79.022209
v 199.171127 62.194927 79.523819
v 199.122406 62.052784 80.039131
v 199.137543 61.893372 80.992577
v 199.177094 61.865005 82.003113
v 199.163712 61.863632 82.985191
v 199.102448 62.154045 83.436646
v 198.885666 62.088394 83.941978
v 199.200302 62.808849 75.548958
v 199.148575 62.679546 76.049690
v 199.158813 62.614510 77.002441
v 199.172501 62.568748 78.006721
v 199.237701 62.404930 78.982994
v 198.797638 62.639923 83.902710
v 199.076843 62.648724 83.412498
v 199.206223 63.401115 71.551521
v 199.169647 63.266533 72.075714
v 199.220108 63.130836 73.012459
v 199.226974 63.087837 74.005432
v 199.249435 62.967644 75.000801
v 199.006851 63.311970 83.035202
v 199.196716 62.976982 82.979713
v 199.256134 63.300083 82.520531
v 199.239075 64.051407 68.774796
v 199.239319 63.824646 69.077797
v 199.230148 63.677483 70.008797
v 199.249924 63.557407 71.001999
v 198.792404 63.771084 82.896523
v 199.070023 63.770950 82.409134
v 199.240509 64.476639 68.594482
v 198.926575 64.430809 80.987511
v 199.215195 64.158752 81.009186
v 199.230194 64.447868 80.493912
v 199.110840 63.948624 81.955894
v 199.239990 65.046043 68.525383
v 198.895996 64.958542 79.961487
v 199.223297 64.733315 79.990051
v 199.189621 64.968857 79.472870
v 199.236389 65.624619 68.566757
v 199.195709 65.252045 77.988213
v 199.179718 65.480659 77.423004
v 199.143616 65.109962 78.965431
v 199.198883 66.135353 68.715317
v 199.238647 65.915710 74.986099
v 199.203659 66.097198 74.445023
v 199.173569 65.731888 75.974640
v 199.145920 65.647568 76.944901
v 199.249313 66.533630 69.004875
v 198.920700 66.717224 69.057732
v 199.247833 66.778122 69.487358
v 199.238831 66.558014 71.016426
v 199.237534 66.728462 70.474190
v 199.231659 66.440102 71.996292
v 199.223328 66.386101 72.988861
v 199.169998 66.239861 73.924072
v 199.216400 66.833374 69.985565
v 199.314606 62.237240 80.029549
v 199.329514 62.198727 80.999329
v 199.309204 62.201504 81.998421
v 199.256073 62.195412 82.946777
v 199.453003 62.816162 76.023384
v 199.473694 62.783867 77.001396
v 199.485901 62.765018 78.000847
v 199.521881 62.698814 79.012230
v 199.605865 62.688740 80.016624
v 199.490448 62.709740 80.994911
v 199.412735 62.707943 81.989235
v 199.264923 62.637680 82.919708
v 199.493439 63.365440 72.025101
v 199.754242 63.373779 72.524704
v 199.699570 63.260796 73.031982
v 199.708954 63.239204 74.002708
v 199.716629 63.206272 75.009636
v 199.725235 63.064274 75.989494
v 199.745438 63.053547 77.000420
v 199.746445 63.052456 78.000458
v 199.764740 63.035927 79.002884
v 199.751495 63.034351 79.986183
v 199.710510 63.320377 80.448708
v 199.562088 63.263012 80.996887
v 199.382446 63.255783 81.976143
v 199.712738 64.093887 68.814598
v 199.724396 63.888409 69.077126
v 199.744247 63.787884 70.002914
v 199.758865 63.739784 71.006592
v 199.823669 63.577015 71.983093
v 199.426727 63.820465 80.978447
v 199.667725 63.820770 80.418823
v 199.262238 63.759186 81.941078
v 199.793915 64.492058 68.647987
v 199.513794 64.443535 79.991020
v 199.747040 64.121513 79.964508
v 199.756668 64.413795 79.475639
v 199.809265 65.045502 68.594566
v 199.523407 65.030579 77.995537
v 199.791412 64.738396 77.997154
v 199.767319 65.005028 77.480919
v 199.450150 64.940857 78.977791
v 199.718948 64.668396 78.977875
v 199.795807 65.602776 68.640846
v 199.512070 65.588142 75.996437
v 199.794708 65.323921 75.997169
v 199.758301 65.560654 75.478249
v 199.438431 65.507347 76.966827
v 199.716568 65.251625 76.977737
v 199.722046 66.030396 68.788078
v 199.496124 66.145462 73.975777
v 199.821365 65.928108 74.015404
v 199.780853 66.144203 73.476349
v 199.719193 65.710068 74.964020
v 199.765152 66.379066 69.089203
v 199.747650 66.641747 69.582703
v 199.782471 66.426018 70.990097
v 199.758347 66.636719 70.419769
v 199.747650 66.314354 71.995216
v 199.726532 66.272324 72.968788
v 199.720215 66.748466 69.997620
v 199.897903 63.414127 73.026955
v 199.914780 63.404278 74.001221
v 199.921600 63.395638 75.002441
v 199.919388 63.369240 75.998039
v 199.914627 63.368664 77.000153
v 199.901993 63.370842 77.999939
v 199.887878 63.374065 78.997902
v 199.843582 63.367485 79.947678
v 200.005936 64.022804 69.057098
v 200.058456 63.957382 70.002182
v 200.071899 63.937016 71.000847
v 200.109756 63.869545 72.011887
v 200.212280 63.841038 73.000298
v 200.221878 63.834454 73.999870
v 200.192856 63.855705 75.014282
v 200.073730 63.880363 75.994293
v 200.027420 63.884285 76.999344
v 199.986221 63.874672 77.998466
v 199.954681 63.869381 78.987762
v 199.838196 63.804630 79.919701
v 200.191864 64.573250 68.814964
v 200.263535 64.279869 69.057053
v 200.328888 64.227394 70.002190
v 200.332520 64.224472 71.000504
v 200.355026 64.205452 72.002548
v 200.385193 64.179451 73.001007
v 200.371826 64.181519 73.999275
v 200.331619 64.201340 74.985207
v 200.258011 64.462822 75.420822
v 200.138611 64.448616 75.990685
v 200.017120 64.445145 76.989075
v 199.924774 64.394585 77.977661
v 199.871994 64.360115 78.967842
v 200.233597 65.046822 68.775879
v 200.215073 65.076294 75.020592
v 200.345795 64.736618 74.982330
v 200.368484 65.030052 74.490166
v 199.974609 64.994171 75.981667
v 199.890823 64.949234 76.969444
v 200.195831 65.524422 68.810989
v 200.128769 65.633713 74.016808
v 200.355392 65.308273 73.982956
v 200.349365 65.591896 73.479675
v 199.925186 65.527519 74.968918
v 200.304886 65.859383 69.069145
v 200.055542 66.143295 69.062302
v 200.312851 66.146820 69.534920
v 200.111938 66.205650 70.998474
v 200.379181 65.911339 70.999084
v 200.342850 66.170029 70.480103
v 200.063110 66.141235 71.996422
v 200.332565 65.867493 71.996559
v 200.031937 66.107620 72.979340
v 200.301880 65.837906 72.979774
v 199.983643 66.631485 69.998276
v 200.266647 66.388580 69.999252
v 200.397827 64.561455 69.077385
v 200.493149 64.542923 70.002434
v 200.488419 64.542702 71.000046
v 200.487976 64.542877 71.999977
v 200.496155 64.535934 73.000107
v 200.458664 64.532928 73.993149
v 200.376328 64.470291 74.922424
v 200.460266 65.046623 69.077995
v 200.581955 65.056870 70.005707
v 200.575058 65.046783 70.999168
v 200.561844 65.045883 71.999374
v 200.542343 65.041313 72.988182
v 200.452774 64.967659 73.947647
v 200.417969 65.550522 69.096405
v 200.565460 65.608231 70.002312
v 200.510605 65.566864 70.979744
v 200.487762 65.549126 71.997993
v 200.456497 65.531464 72.968758
v 200.431488 66.098373 70.001541
# 1220 vertices, 0 vertices normals

f 3 2 1
f 5 4 1
f 1 4 3
f 7 6 5
f 5 6 4
f 7 8 6
f 1 2 9
f 9 2 10
f 1 11 5
f 1 9 11
f 5 12 7
f 5 11 12
f 8 7 13
f 13 7 12
f 9 10 14
f 14 10 15
f 9 16 11
f 9 14 16
f 18 12 17
f 12 16 17
f 12 11 16
f 12 18 13
f 14 15 19
f 19 15 20
f 14 21 16
f 14 19 21
f 17 16 22
f 22 16 21
f 20 23 19
f 19 23 21
f 21 23 24
f 21 24 22
f 26 25 3
f 3 25 2
f 27 3 4
f 27 26 3
f 28 4 6
f 28 27 4
f 6 8 28
f 28 8 29
f 25 10 2
f 30 10 25
f 13 29 8
f 13 31 29
f 30 15 10
f 32 15 30
f 17 33 18
f 33 34 18
f 34 13 18
f 34 31 13
f 32 20 15
f 35 20 32
f 22 36 33
f 22 33 17
f 34 33 37
f 37 33 36
f 40 39 38
f 38 41 23
f 35 38 23
f 20 35 23
f 38 35 40
f 42 24 23
f 42 23 41
f 42 43 24
f 24 43 22
f 43 44 22
f 44 36 22
f 36 44 37
f 38 39 45
f 45 39 46
f 38 47 41
f 38 45 47
f 41 48 42
f 41 47 48
f 43 42 49
f 49 42 48
f 45 46 50
f 50 46 51
f 45 52 47
f 45 50 52
f 47 53 48
f 47 52 53
f 49 48 54
f 54 48 53
f 51 55 50
f 57 56 55
f 56 50 55
f 56 52 50
f 59 53 58
f 53 56 58
f 53 52 56
f 53 59 54
f 57 60 56
f 56 60 58
f 62 61 26
f 26 61 25
f 63 26 27
f 63 62 26
f 64 27 28
f 64 63 27
f 28 29 64
f 64 29 65
f 61 30 25
f 66 30 61
f 31 65 29
f 31 67 65
f 70 69 68
f 66 70 68
f 32 66 68
f 30 66 32
f 34 67 31
f 34 71 67
f 68 69 72
f 72 69 73
f 72 35 32
f 72 32 68
f 37 71 34
f 37 74 71
f 72 73 40
f 73 39 40
f 73 75 39
f 72 40 35
f 43 76 44
f 76 77 44
f 77 37 44
f 77 74 37
f 75 46 39
f 78 46 75
f 80 79 76
f 43 80 76
f 49 80 43
f 76 79 77
f 78 51 46
f 81 51 78
f 54 80 49
f 54 82 80
f 55 51 83
f 51 84 83
f 51 81 84
f 83 57 55
f 58 85 59
f 85 86 59
f 86 54 59
f 86 82 54
f 83 84 87
f 87 84 88
f 89 60 57
f 83 89 57
f 87 89 83
f 89 90 60
f 60 90 58
f 90 91 58
f 91 85 58
f 85 91 86
f 87 88 92
f 92 88 93
f 87 94 89
f 87 92 94
f 90 89 95
f 95 89 94
f 92 93 96
f 96 93 97
f 99 94 98
f 94 96 98
f 94 92 96
f 94 99 95
f 97 100 96
f 96 100 98
f 102 101 62
f 62 101 61
f 103 62 63
f 103 102 62
f 104 63 64
f 104 103 63
f 64 65 104
f 104 65 105
f 101 66 61
f 106 66 101
f 67 105 65
f 67 107 105
f 109 108 70
f 70 108 69
f 70 66 106
f 70 106 109
f 71 107 67
f 71 110 107
f 108 73 69
f 111 73 108
f 74 110 71
f 74 112 110
f 111 75 73
f 113 75 111
f 77 112 74
f 77 114 112
f 113 78 75
f 115 78 113
f 117 116 79
f 117 79 80
f 77 79 114
f 114 79 116
f 120 119 118
f 115 120 118
f 81 115 118
f 78 115 81
f 82 117 80
f 82 121 117
f 118 119 122
f 122 119 123
f 122 84 81
f 122 81 118
f 86 121 82
f 86 124 121
f 122 123 125
f 125 123 126
f 125 88 84
f 125 84 122
f 90 127 91
f 127 128 91
f 128 86 91
f 128 124 86
f 125 126 129
f 129 126 130
f 129 93 88
f 129 88 125
f 132 131 127
f 90 132 127
f 95 132 90
f 127 131 128
f 129 130 133
f 133 130 134
f 133 97 93
f 133 93 129
f 98 135 99
f 135 136 99
f 136 95 99
f 136 132 95
f 133 134 137
f 137 134 138
f 139 100 97
f 133 139 97
f 137 139 133
f 139 140 100
f 100 140 98
f 140 141 98
f 141 135 98
f 135 141 136
f 137 138 142
f 142 138 143
f 137 144 139
f 137 142 144
f 140 139 145
f 145 139 144
f 143 146 142
f 142 146 144
f 144 146 147
f 144 147 145
f 149 148 102
f 102 148 101
f 150 102 103
f 150 149 102
f 151 103 104
f 151 150 103
f 104 105 151
f 151 105 152
f 148 106 101
f 153 106 148
f 107 152 105
f 107 154 152
f 156 155 109
f 109 155 108
f 109 106 153
f 109 153 156
f 110 154 107
f 110 157 154
f 155 111 108
f 158 111 155
f 112 157 110
f 112 159 157
f 158 113 111
f 160 113 158
f 114 159 112
f 114 161 159
f 160 115 113
f 162 115 160
f 164 163 116
f 164 116 117
f 114 116 161
f 161 116 163
f 166 165 120
f 120 165 119
f 120 115 162
f 120 162 166
f 121 164 117
f 121 167 164
f 165 123 119
f 168 123 165
f 124 167 121
f 124 169 167
f 168 126 123
f 170 126 168
f 128 169 124
f 128 171 169
f 170 130 126
f 172 130 170
f 174 173 131
f 174 131 132
f 128 131 171
f 171 131 173
f 177 176 175
f 172 177 175
f 134 172 175
f 130 172 134
f 136 174 132
f 136 178 174
f 175 176 179
f 179 176 180
f 179 138 134
f 179 134 175
f 140 181 141
f 181 182 141
f 182 136 141
f 182 178 136
f 179 180 183
f 183 180 184
f 183 143 138
f 183 138 179
f 186 185 181
f 140 186 181
f 145 186 140
f 181 185 182
f 183 184 187
f 187 184 188
f 189 146 143
f 183 189 143
f 187 189 183
f 190 147 146
f 190 146 189
f 190 191 147
f 191 145 147
f 191 186 145
f 187 188 192
f 192 188 193
f 187 194 189
f 187 192 194
f 196 190 195
f 190 194 195
f 190 189 194
f 190 196 191
f 192 193 197
f 197 193 198
f 192 199 194
f 192 197 199
f 195 194 200
f 200 194 199
f 198 201 197
f 197 201 199
f 199 201 202
f 199 202 200
f 203 148 149
f 150 204 149
f 149 204 203
f 151 205 150
f 150 205 204
f 152 205 151
f 206 153 203
f 203 153 148
f 204 208 207
f 206 204 207
f 203 204 206
f 210 209 208
f 204 210 208
f 205 210 204
f 154 210 152
f 152 210 205
f 211 155 156
f 212 211 156
f 212 156 153
f 213 212 153
f 206 213 153
f 213 206 207
f 209 210 214
f 209 214 215
f 157 214 154
f 154 214 210
f 216 158 211
f 211 158 155
f 211 212 217
f 211 217 216
f 215 214 218
f 215 218 219
f 159 218 157
f 157 218 214
f 221 220 216
f 220 158 216
f 220 160 158
f 221 216 217
f 219 218 222
f 219 222 223
f 161 222 159
f 159 222 218
f 220 162 160
f 224 162 220
f 223 222 163
f 164 223 163
f 225 223 164
f 163 222 161
f 227 226 166
f 166 226 165
f 166 162 224
f 166 224 227
f 167 225 164
f 167 228 225
f 226 168 165
f 229 168 226
f 169 228 167
f 169 230 228
f 229 170 168
f 231 170 229
f 171 230 169
f 171 232 230
f 235 234 233
f 231 235 233
f 172 231 233
f 170 231 172
f 237 236 173
f 237 173 174
f 171 173 232
f 232 173 236
f 233 234 177
f 234 176 177
f 234 238 176
f 233 177 172
f 178 237 174
f 178 239 237
f 238 180 176
f 240 180 238
f 182 239 178
f 182 241 239
f 240 184 180
f 242 184 240
f 244 243 185
f 244 185 186
f 182 185 241
f 241 185 243
f 247 246 245
f 242 247 245
f 188 242 245
f 184 242 188
f 191 244 186
f 191 248 244
f 245 246 249
f 249 246 250
f 249 193 188
f 249 188 245
f 195 251 196
f 251 252 196
f 252 191 196
f 252 248 191
f 249 250 253
f 253 250 254
f 253 198 193
f 253 193 249
f 256 255 251
f 195 256 251
f 200 256 195
f 251 255 252
f 253 254 257
f 257 254 258
f 259 201 198
f 253 259 198
f 257 259 253
f 260 202 201
f 260 201 259
f 260 261 202
f 261 200 202
f 261 256 200
f 257 258 262
f 262 258 263
f 257 264 259
f 257 262 264
f 266 260 265
f 260 264 265
f 260 259 264
f 260 266 261
f 263 267 262
f 262 267 264
f 264 267 268
f 264 268 265
f 269 207 208
f 209 269 208
f 270 212 213
f 207 269 213
f 269 270 213
f 269 271 270
f 215 271 209
f 209 271 269
f 272 217 270
f 270 217 212
f 273 270 271
f 272 270 273
f 219 273 215
f 215 273 271
f 274 220 221
f 217 272 221
f 272 274 221
f 272 275 274
f 276 272 273
f 275 272 276
f 223 276 219
f 219 276 273
f 278 277 274
f 277 220 274
f 277 224 220
f 278 274 275
f 278 275 279
f 281 280 279
f 275 281 279
f 276 281 275
f 225 281 223
f 223 281 276
f 282 226 227
f 283 282 227
f 224 283 227
f 277 283 224
f 280 281 284
f 280 284 285
f 228 284 225
f 225 284 281
f 287 286 282
f 286 226 282
f 286 229 226
f 287 282 283
f 285 284 288
f 285 288 289
f 230 288 228
f 228 288 284
f 286 231 229
f 290 231 286
f 289 288 291
f 289 291 292
f 232 291 230
f 230 291 288
f 294 293 235
f 235 293 234
f 235 231 290
f 235 290 294
f 292 291 236
f 237 292 236
f 295 292 237
f 236 291 232
f 293 238 234
f 296 238 293
f 239 295 237
f 239 297 295
f 296 240 238
f 298 240 296
f 241 297 239
f 241 299 297
f 302 301 300
f 298 302 300
f 242 298 300
f 240 298 242
f 304 303 243
f 304 243 244
f 241 243 299
f 299 243 303
f 300 301 247
f 301 246 247
f 301 305 246
f 300 247 242
f 248 304 244
f 248 306 304
f 305 250 246
f 307 250 305
f 252 306 248
f 252 308 306
f 307 254 250
f 309 254 307
f 311 310 255
f 311 255 256
f 252 255 308
f 308 255 310
f 314 313 312
f 309 314 312
f 258 309 312
f 254 309 258
f 261 311 256
f 261 315 311
f 312 313 316
f 316 313 317
f 316 263 258
f 316 258 312
f 265 318 266
f 318 319 266
f 319 261 266
f 319 315 261
f 316 317 320
f 320 317 321
f 322 267 263
f 316 322 263
f 320 322 316
f 323 268 267
f 323 267 322
f 323 324 268
f 268 324 265
f 324 325 265
f 325 318 265
f 318 325 319
f 320 321 326
f 326 321 327
f 320 328 322
f 320 326 328
f 322 329 323
f 322 328 329
f 324 323 330
f 330 323 329
f 326 327 331
f 331 327 332
f 326 333 328
f 326 331 333
f 335 329 334
f 329 333 334
f 329 328 333
f 329 335 330
f 332 336 331
f 331 336 333
f 333 336 337
f 333 337 334
f 338 277 278
f 279 339 278
f 278 339 338
f 280 339 279
f 340 283 338
f 338 283 277
f 341 338 339
f 340 338 341
f 285 341 280
f 280 341 339
f 342 286 287
f 283 340 287
f 340 342 287
f 340 343 342
f 344 340 341
f 343 340 344
f 289 344 285
f 285 344 341
f 346 345 342
f 345 286 342
f 345 290 286
f 346 342 343
f 346 343 347
f 349 348 347
f 343 349 347
f 344 349 343
f 292 349 289
f 289 349 344
f 350 293 294
f 351 350 294
f 290 351 294
f 345 351 290
f 348 349 352
f 348 352 353
f 295 352 292
f 292 352 349
f 355 354 350
f 354 293 350
f 354 296 293
f 355 350 351
f 353 352 356
f 353 356 357
f 297 356 295
f 295 356 352
f 354 298 296
f 358 298 354
f 357 356 359
f 357 359 360
f 299 359 297
f 297 359 356
f 362 361 302
f 302 361 301
f 302 298 358
f 302 358 362
f 360 359 303
f 304 360 303
f 363 360 304
f 303 359 299
f 361 305 301
f 364 305 361
f 306 363 304
f 306 365 363
f 364 307 305
f 366 307 364
f 308 365 306
f 308 367 365
f 370 369 368
f 366 370 368
f 309 366 368
f 307 366 309
f 372 371 310
f 372 310 311
f 308 310 367
f 367 310 371
f 368 369 314
f 369 313 314
f 369 373 313
f 368 314 309
f 315 372 311
f 315 374 372
f 373 317 313
f 375 317 373
f 319 374 315
f 319 376 374
f 375 321 317
f 377 321 375
f 379 378 325
f 379 325 324
f 319 325 376
f 376 325 378
f 377 327 321
f 380 327 377
f 330 379 324
f 330 381 379
f 384 383 382
f 380 384 382
f 332 380 382
f 327 380 332
f 334 385 335
f 385 386 335
f 386 330 335
f 386 381 330
f 382 383 387
f 387 383 388
f 389 336 332
f 382 389 332
f 387 389 382
f 390 337 336
f 390 336 389
f 390 391 337
f 337 391 334
f 391 392 334
f 392 385 334
f 385 392 386
f 388 393 387
f 395 394 393
f 394 387 393
f 394 389 387
f 389 396 390
f 389 394 396
f 391 390 397
f 397 390 396
f 395 398 394
f 394 398 396
f 396 398 399
f 396 399 397
f 400 345 346
f 347 401 346
f 346 401 400
f 348 401 347
f 402 351 400
f 400 351 345
f 403 400 401
f 402 400 403
f 353 403 348
f 348 403 401
f 404 354 355
f 405 404 355
f 405 355 351
f 406 405 351
f 402 406 351
f 408 407 406
f 402 408 406
f 403 408 402
f 357 408 353
f 353 408 403
f 410 409 404
f 409 354 404
f 409 358 354
f 410 404 405
f 411 407 408
f 408 357 411
f 357 412 411
f 357 360 412
f 413 361 362
f 414 413 362
f 358 414 362
f 409 414 358
f 363 412 360
f 363 415 412
f 417 416 413
f 416 361 413
f 416 364 361
f 417 413 414
f 365 415 363
f 365 418 415
f 416 366 364
f 419 366 416
f 422 421 420
f 421 418 420
f 418 367 420
f 418 365 367
f 424 423 370
f 370 423 369
f 370 366 419
f 370 419 424
f 422 420 371
f 372 422 371
f 425 422 372
f 371 420 367
f 423 373 369
f 426 373 423
f 374 425 372
f 374 427 425
f 426 375 373
f 428 375 426
f 376 427 374
f 376 429 427
f 432 431 430
f 428 432 430
f 377 428 430
f 375 428 377
f 434 433 378
f 434 378 379
f 376 378 429
f 429 378 433
f 430 431 435
f 435 431 436
f 435 380 377
f 435 377 430
f 381 434 379
f 381 437 434
f 435 436 384
f 436 383 384
f 436 438 383
f 435 384 380
f 386 437 381
f 386 439 437
f 438 388 383
f 440 388 438
f 442 441 392
f 442 392 391
f 386 392 439
f 439 392 441
f 393 388 443
f 388 444 443
f 388 440 444
f 443 395 393
f 397 442 391
f 397 445 442
f 443 444 446
f 446 444 447
f 448 398 395
f 443 448 395
f 446 448 443
f 449 399 398
f 449 398 448
f 449 450 399
f 450 397 399
f 450 445 397
f 446 447 451
f 451 447 452
f 446 453 448
f 446 451 453
f 455 449 454
f 449 453 454
f 449 448 453
f 449 455 450
f 451 452 456
f 456 452 457
f 459 453 458
f 453 456 458
f 453 451 456
f 453 459 454
f 457 460 456
f 456 460 458
f 461 405 406
f 407 461 406
f 462 409 410
f 405 461 410
f 461 462 410
f 461 463 462
f 411 464 407
f 464 461 407
f 464 463 461
f 412 464 411
f 465 414 462
f 462 414 409
f 466 462 463
f 465 462 466
f 467 463 464
f 466 463 467
f 415 467 412
f 412 467 464
f 468 416 417
f 469 468 417
f 469 417 414
f 470 469 414
f 465 470 414
f 470 465 466
f 470 466 471
f 473 472 471
f 466 473 471
f 467 473 466
f 418 473 415
f 415 473 467
f 475 474 468
f 474 416 468
f 474 419 416
f 475 468 469
f 472 473 421
f 422 472 421
f 476 472 422
f 421 473 418
f 477 423 424
f 478 477 424
f 419 478 424
f 474 478 419
f 425 476 422
f 425 479 476
f 481 480 477
f 480 423 477
f 480 426 423
f 481 477 478
f 427 479 425
f 427 482 479
f 480 428 426
f 483 428 480
f 429 482 427
f 429 484 482
f 486 485 432
f 432 485 431
f 432 428 483
f 432 483 486
f 488 487 433
f 488 433 434
f 429 433 484
f 484 433 487
f 485 436 431
f 489 436 485
f 437 488 434
f 437 490 488
f 489 438 436
f 491 438 489
f 439 490 437
f 439 492 490
f 491 440 438
f 493 440 491
f 442 494 441
f 494 495 441
f 495 439 441
f 495 492 439
f 498 497 496
f 493 498 496
f 444 493 496
f 440 493 444
f 500 499 494
f 442 500 494
f 445 500 442
f 494 499 495
f 496 497 501
f 501 497 502
f 501 447 444
f 501 444 496
f 450 500 445
f 450 503 500
f 501 502 504
f 504 502 505
f 504 452 447
f 504 447 501
f 507 506 455
f 507 455 454
f 450 455 503
f 503 455 506
f 504 505 508
f 508 505 509
f 508 457 452
f 508 452 504
f 458 510 459
f 510 511 459
f 511 454 459
f 511 507 454
f 508 509 512
f 512 509 513
f 514 460 457
f 508 514 457
f 512 514 508
f 514 515 460
f 460 515 458
f 515 516 458
f 516 510 458
f 510 516 511
f 512 513 517
f 517 513 518
f 512 519 514
f 512 517 519
f 515 514 520
f 520 514 519
f 518 521 517
f 517 521 519
f 519 521 522
f 519 522 520
f 523 469 470
f 471 524 470
f 470 524 523
f 472 524 471
f 525 474 475
f 469 523 475
f 523 525 475
f 523 526 525
f 527 523 524
f 526 523 527
f 476 527 472
f 472 527 524
f 528 478 525
f 525 478 474
f 529 525 526
f 528 525 529
f 530 526 527
f 529 526 530
f 479 530 476
f 476 530 527
f 531 480 481
f 532 531 481
f 532 481 478
f 533 532 478
f 528 533 478
f 533 528 529
f 533 529 534
f 536 535 534
f 529 536 534
f 530 536 529
f 482 536 479
f 479 536 530
f 538 537 531
f 537 480 531
f 537 483 480
f 538 531 532
f 535 536 539
f 535 539 540
f 484 539 482
f 482 539 536
f 541 485 486
f 542 541 486
f 483 542 486
f 537 542 483
f 540 539 487
f 488 540 487
f 543 540 488
f 487 539 484
f 545 544 541
f 544 485 541
f 544 489 485
f 545 541 542
f 490 543 488
f 490 546 543
f 544 491 489
f 547 491 544
f 492 546 490
f 492 548 546
f 551 550 549
f 547 551 549
f 493 547 549
f 491 547 493
f 554 553 552
f 553 548 552
f 548 495 552
f 548 492 495
f 549 550 498
f 550 497 498
f 550 555 497
f 549 498 493
f 554 552 499
f 500 554 499
f 556 554 500
f 499 552 495
f 555 502 497
f 557 502 555
f 503 556 500
f 503 558 556
f 557 505 502
f 559 505 557
f 507 560 506
f 560 561 506
f 561 503 506
f 561 558 503
f 564 563 562
f 559 564 562
f 509 559 562
f 505 559 509
f 566 565 560
f 507 566 560
f 511 566 507
f 560 565 561
f 562 563 567
f 567 563 568
f 567 513 509
f 567 509 562
f 515 569 516
f 569 570 516
f 570 511 516
f 570 566 511
f 567 568 571
f 571 568 572
f 571 518 513
f 571 513 567
f 574 573 569
f 515 574 569
f 520 574 515
f 569 573 570
f 571 572 575
f 575 572 576
f 577 521 518
f 571 577 518
f 575 577 571
f 578 522 521
f 578 521 577
f 578 579 522
f 579 520 522
f 579 574 520
f 576 580 575
f 582 581 580
f 581 575 580
f 581 577 575
f 584 578 583
f 578 581 583
f 578 577 581
f 578 584 579
f 582 585 581
f 581 585 583
f 586 532 533
f 534 587 533
f 533 587 586
f 535 587 534
f 588 537 538
f 532 586 538
f 586 588 538
f 586 589 588
f 590 586 587
f 589 586 590
f 540 590 535
f 535 590 587
f 592 591 588
f 591 537 588
f 591 542 537
f 592 588 589
f 592 589 593
f 595 594 593
f 589 595 593
f 590 595 589
f 543 595 540
f 540 595 590
f 596 544 545
f 597 596 545
f 542 597 545
f 591 597 542
f 594 595 598
f 594 598 599
f 546 598 543
f 543 598 595
f 601 600 596
f 600 544 596
f 600 547 544
f 601 596 597
f 599 598 602
f 599 602 603
f 548 602 546
f 546 602 598
f 604 550 551
f 605 604 551
f 547 605 551
f 600 605 547
f 603 602 553
f 554 603 553
f 606 603 554
f 553 602 548
f 608 607 604
f 607 550 604
f 607 555 550
f 608 604 605
f 556 606 554
f 556 609 606
f 607 557 555
f 610 557 607
f 558 609 556
f 558 611 609
f 610 559 557
f 612 559 610
f 615 614 613
f 614 611 613
f 611 561 613
f 611 558 561
f 617 616 564
f 564 616 563
f 564 559 612
f 564 612 617
f 615 613 565
f 566 615 565
f 618 615 566
f 565 613 561
f 616 568 563
f 619 568 616
f 570 618 566
f 570 620 618
f 619 572 568
f 621 572 619
f 574 622 573
f 622 623 573
f 623 570 573
f 623 620 570
f 621 576 572
f 624 576 621
f 626 625 622
f 574 626 622
f 579 626 574
f 622 625 623
f 580 576 627
f 576 628 627
f 576 624 628
f 627 582 580
f 583 629 584
f 629 630 584
f 630 579 584
f 630 626 579
f 627 628 631
f 631 628 632
f 633 585 582
f 627 633 582
f 631 633 627
f 633 634 585
f 585 634 583
f 634 635 583
f 635 629 583
f 629 635 630
f 631 632 636
f 636 632 637
f 631 638 633
f 631 636 638
f 634 633 639
f 639 633 638
f 637 640 636
f 636 640 638
f 638 640 641
f 638 641 639
f 642 591 592
f 593 643 592
f 592 643 642
f 594 643 593
f 644 597 642
f 642 597 591
f 645 642 643
f 644 642 645
f 599 645 594
f 594 645 643
f 646 600 601
f 647 646 601
f 647 601 597
f 648 647 597
f 644 648 597
f 650 649 648
f 644 650 648
f 645 650 644
f 603 650 599
f 599 650 645
f 652 651 646
f 651 600 646
f 651 605 600
f 652 646 647
f 649 650 653
f 649 653 654
f 606 653 603
f 603 653 650
f 656 655 608
f 608 655 607
f 608 605 651
f 608 651 656
f 654 653 657
f 654 657 658
f 609 657 606
f 606 657 653
f 655 610 607
f 659 610 655
f 658 657 660
f 658 660 661
f 611 660 609
f 609 660 657
f 659 612 610
f 662 612 659
f 661 660 614
f 615 661 614
f 663 661 615
f 614 660 611
f 665 664 617
f 617 664 616
f 617 612 662
f 617 662 665
f 618 663 615
f 618 666 663
f 664 619 616
f 667 619 664
f 620 666 618
f 620 668 666
f 667 621 619
f 669 621 667
f 623 668 620
f 623 670 668
f 669 624 621
f 671 624 669
f 673 672 625
f 673 625 626
f 623 625 670
f 670 625 672
f 676 675 674
f 671 676 674
f 628 671 674
f 624 671 628
f 630 673 626
f 630 677 673
f 674 675 678
f 678 675 679
f 678 632 628
f 678 628 674
f 634 680 635
f 680 681 635
f 681 630 635
f 681 677 630
f 678 679 682
f 682 679 683
f 682 637 632
f 682 632 678
f 685 684 680
f 634 685 680
f 639 685 634
f 680 684 681
f 682 683 686
f 686 683 687
f 688 640 637
f 682 688 637
f 686 688 682
f 689 641 640
f 689 640 688
f 689 690 641
f 690 639 641
f 690 685 639
f 686 687 691
f 691 687 692
f 686 693 688
f 686 691 693
f 695 689 694
f 689 693 694
f 689 688 693
f 689 695 690
f 692 696 691
f 691 696 693
f 693 696 697
f 693 697 694
f 698 647 648
f 649 698 648
f 699 651 652
f 647 698 652
f 698 699 652
f 698 700 699
f 654 700 649
f 649 700 698
f 701 655 656
f 651 699 656
f 699 701 656
f 699 702 701
f 703 699 700
f 702 699 703
f 658 703 654
f 654 703 700
f 705 704 701
f 704 655 701
f 704 659 655
f 705 701 702
f 705 702 706
f 706 702 703
f 706 703 707
f 703 658 707
f 658 708 707
f 658 661 708
f 704 662 659
f 709 662 704
f 663 708 661
f 663 710 708
f 712 711 665
f 665 711 664
f 665 662 709
f 665 709 712
f 666 710 663
f 666 713 710
f 711 667 664
f 714 667 711
f 668 713 666
f 668 715 713
f 714 669 667
f 716 669 714
f 719 718 717
f 718 715 717
f 715 670 717
f 715 668 670
f 722 721 720
f 716 722 720
f 671 716 720
f 669 716 671
f 719 717 672
f 673 719 672
f 723 719 673
f 672 717 670
f 720 721 676
f 721 675 676
f 721 724 675
f 720 676 671
f 677 723 673
f 677 725 723
f 724 679 675
f 726 679 724
f 681 725 677
f 681 727 725
f 730 729 728
f 726 730 728
f 683 726 728
f 679 726 683
f 685 731 684
f 731 732 684
f 732 681 684
f 732 727 681
f 735 734 733
f 737 736 733
f 733 736 735
f 736 737 729
f 737 728 729
f 737 738 728
f 738 687 683
f 738 683 728
f 740 739 731
f 685 740 731
f 690 740 685
f 731 739 732
f 743 742 741
f 743 741 734
f 741 733 734
f 741 744 733
f 733 745 737
f 733 744 745
f 737 746 738
f 737 745 746
f 746 692 687
f 746 687 738
f 694 747 695
f 747 748 695
f 748 690 695
f 748 740 690
f 741 742 749
f 749 742 750
f 741 751 744
f 741 749 751
f 744 752 745
f 744 751 752
f 745 753 746
f 745 752 753
f 754 696 692
f 746 754 692
f 753 754 746
f 755 697 696
f 755 696 754
f 755 756 697
f 697 756 694
f 756 757 694
f 757 747 694
f 747 757 748
f 749 750 758
f 758 750 759
f 749 760 751
f 749 758 760
f 751 761 752
f 751 760 761
f 763 753 762
f 753 761 762
f 753 752 761
f 753 763 754
f 754 763 764
f 754 764 755
f 755 764 765
f 755 765 756
f 759 766 758
f 758 766 760
f 760 766 767
f 760 767 761
f 761 767 768
f 761 768 762
f 769 704 705
f 706 770 705
f 705 770 769
f 707 771 706
f 706 771 770
f 708 771 707
f 772 709 769
f 769 709 704
f 773 769 770
f 772 769 773
f 774 770 771
f 773 770 774
f 710 774 708
f 708 774 771
f 775 711 712
f 776 775 712
f 776 712 709
f 777 776 709
f 772 777 709
f 777 772 773
f 777 773 778
f 780 779 778
f 773 780 778
f 774 780 773
f 713 780 710
f 710 780 774
f 782 781 775
f 781 711 775
f 781 714 711
f 782 775 776
f 779 780 783
f 779 783 784
f 715 783 713
f 713 783 780
f 781 716 714
f 785 716 781
f 784 783 718
f 719 784 718
f 786 784 719
f 718 783 715
f 787 721 722
f 788 787 722
f 716 788 722
f 785 788 716
f 723 786 719
f 723 789 786
f 791 790 787
f 790 721 787
f 790 724 721
f 791 787 788
f 725 789 723
f 725 792 789
f 795 794 793
f 790 795 793
f 726 790 793
f 724 790 726
f 727 792 725
f 727 796 792
f 799 798 797
f 801 800 797
f 797 800 799
f 800 801 794
f 794 801 793
f 801 729 793
f 729 730 793
f 793 730 726
f 732 796 727
f 732 802 796
f 805 804 803
f 807 806 803
f 803 806 805
f 806 807 798
f 798 807 797
f 807 734 797
f 734 735 797
f 797 735 736
f 797 736 801
f 801 736 729
f 809 808 739
f 809 739 740
f 732 739 802
f 802 739 808
f 812 811 810
f 814 813 810
f 810 813 812
f 813 814 804
f 814 803 804
f 814 815 803
f 815 742 743
f 807 815 743
f 803 815 807
f 807 743 734
f 748 809 740
f 748 816 809
f 819 818 817
f 821 820 817
f 817 820 819
f 820 821 811
f 821 810 811
f 821 822 810
f 810 823 814
f 810 822 823
f 814 824 815
f 814 823 824
f 824 750 742
f 824 742 815
f 826 825 757
f 826 757 756
f 748 757 816
f 816 757 825
f 829 828 827
f 829 827 818
f 827 817 818
f 827 830 817
f 817 831 821
f 817 830 831
f 821 832 822
f 821 831 832
f 822 833 823
f 822 832 833
f 823 834 824
f 823 833 834
f 834 759 750
f 834 750 824
f 762 835 763
f 836 764 763
f 836 763 835
f 764 836 837
f 838 764 837
f 765 764 838
f 756 765 826
f 826 765 838
f 841 840 839
f 841 839 828
f 839 827 828
f 839 842 827
f 827 843 830
f 827 842 843
f 830 844 831
f 830 843 844
f 831 845 832
f 831 844 845
f 832 846 833
f 832 845 846
f 833 847 834
f 833 846 847
f 848 766 759
f 834 848 759
f 847 848 834
f 849 767 766
f 849 766 848
f 767 849 850
f 851 767 850
f 768 767 851
f 762 768 835
f 768 852 835
f 768 851 852
f 835 852 836
f 836 852 853
f 836 853 837
f 840 854 839
f 839 854 842
f 842 854 855
f 842 855 843
f 843 855 856
f 843 856 844
f 844 856 857
f 844 857 845
f 845 857 858
f 845 858 846
f 846 858 859
f 846 859 847
f 847 859 860
f 847 860 848
f 848 860 861
f 848 861 849
f 849 861 862
f 849 862 850
f 863 776 777
f 778 864 777
f 777 864 863
f 779 864 778
f 865 781 782
f 776 863 782
f 863 865 782
f 863 866 865
f 867 863 864
f 866 863 867
f 784 867 779
f 779 867 864
f 869 868 865
f 868 781 865
f 868 785 781
f 869 865 866
f 869 866 870
f 872 871 870
f 866 872 870
f 867 872 866
f 786 872 784
f 784 872 867
f 868 788 785
f 873 788 868
f 871 872 874
f 871 874 875
f 789 874 786
f 786 874 872
f 877 876 791
f 791 876 790
f 791 788 873
f 791 873 877
f 875 874 878
f 875 878 879
f 792 878 789
f 789 878 874
f 881 880 795
f 795 880 794
f 795 790 876
f 795 876 881
f 882 879 878
f 878 792 882
f 792 883 882
f 792 796 883
f 885 884 799
f 799 884 798
f 886 799 800
f 886 885 799
f 800 794 880
f 800 880 886
f 802 883 796
f 802 887 883
f 890 889 888
f 804 805 888
f 805 890 888
f 805 891 890
f 892 805 806
f 892 891 805
f 806 798 884
f 806 884 892
f 894 893 808
f 894 808 809
f 802 808 887
f 887 808 893
f 897 896 895
f 899 898 895
f 895 898 897
f 811 812 899
f 812 898 899
f 812 900 898
f 813 888 889
f 900 813 889
f 812 813 900
f 888 813 804
f 816 894 809
f 816 901 894
f 904 903 902
f 906 905 902
f 902 905 904
f 908 907 906
f 906 907 905
f 907 908 896
f 896 908 895
f 908 818 895
f 818 819 895
f 895 819 820
f 895 820 899
f 899 820 811
f 910 909 825
f 910 825 826
f 816 825 901
f 901 825 909
f 913 912 911
f 913 911 903
f 911 902 903
f 911 914 902
f 902 915 906
f 902 914 915
f 915 828 829
f 908 915 829
f 906 915 908
f 908 829 818
f 917 916 838
f 917 838 837
f 826 838 910
f 910 838 916
f 911 912 918
f 918 912 919
f 911 920 914
f 911 918 920
f 920 840 841
f 915 920 841
f 914 920 915
f 915 841 828
f 850 921 851
f 851 921 922
f 923 851 922
f 852 851 923
f 852 924 853
f 923 924 852
f 837 853 917
f 917 853 924
f 918 919 925
f 925 919 926
f 918 927 920
f 918 925 927
f 928 854 840
f 920 928 840
f 927 928 920
f 929 855 854
f 929 854 928
f 930 856 855
f 930 855 929
f 931 857 856
f 931 856 930
f 932 858 857
f 932 857 931
f 933 859 858
f 933 858 932
f 934 860 859
f 934 859 933
f 860 934 935
f 936 860 935
f 861 860 936
f 861 937 862
f 936 937 861
f 850 862 921
f 862 938 921
f 862 937 938
f 921 938 922
f 925 926 939
f 939 926 940
f 925 941 927
f 925 939 941
f 927 942 928
f 927 941 942
f 928 943 929
f 928 942 943
f 929 944 930
f 929 943 944
f 946 931 945
f 931 944 945
f 931 930 944
f 931 946 932
f 932 946 947
f 932 947 933
f 933 947 948
f 933 948 934
f 934 948 949
f 934 949 935
f 940 950 939
f 939 950 941
f 941 950 951
f 941 951 942
f 942 951 952
f 942 952 943
f 943 952 953
f 943 953 944
f 944 953 954
f 944 954 945
f 955 868 869
f 870 956 869
f 869 956 955
f 871 956 870
f 957 873 955
f 955 873 868
f 958 955 956
f 957 955 958
f 875 958 871
f 871 958 956
f 959 876 877
f 960 959 877
f 960 877 873
f 961 960 873
f 957 961 873
f 961 957 958
f 961 958 962
f 958 875 962
f 875 963 962
f 875 879 963
f 965 964 881
f 881 964 880
f 881 876 959
f 966 881 959
f 965 881 966
f 966 959 960
f 879 882 967
f 968 879 967
f 963 879 968
f 883 967 882
f 970 969 885
f 885 969 884
f 971 885 886
f 971 970 885
f 886 880 964
f 886 964 971
f 968 967 972
f 968 972 973
f 887 972 883
f 883 972 967
f 975 974 890
f 890 974 889
f 976 890 891
f 976 975 890
f 977 891 892
f 977 976 891
f 892 884 969
f 892 969 977
f 973 972 893
f 894 973 893
f 978 973 894
f 893 972 887
f 981 980 979
f 896 897 979
f 897 981 979
f 897 982 981
f 983 897 898
f 983 982 897
f 984 898 900
f 984 983 898
f 900 889 974
f 900 974 984
f 987 986 985
f 986 978 985
f 978 901 985
f 978 894 901
f 990 989 988
f 903 904 988
f 904 990 988
f 904 991 990
f 992 904 905
f 992 991 904
f 907 979 980
f 992 907 980
f 905 907 992
f 979 907 896
f 987 985 909
f 910 987 909
f 993 987 910
f 909 985 901
f 988 989 913
f 989 912 913
f 989 994 912
f 988 913 903
f 997 996 995
f 916 917 995
f 996 916 995
f 998 916 996
f 910 916 993
f 993 916 998
f 994 919 912
f 999 919 994
f 1001 1000 923
f 1001 923 922
f 995 924 997
f 924 1000 997
f 924 923 1000
f 924 995 917
f 999 926 919
f 1002 926 999
f 1004 1003 936
f 1004 936 935
f 936 1005 937
f 1003 1005 936
f 937 1006 938
f 1005 1006 937
f 922 938 1001
f 1001 938 1006
f 1002 940 926
f 1007 940 1002
f 945 1008 946
f 946 1008 1009
f 1010 946 1009
f 947 946 1010
f 947 1011 948
f 1010 1011 947
f 948 1012 949
f 1011 1012 948
f 935 949 1004
f 1004 949 1012
f 950 940 1013
f 940 1014 1013
f 940 1007 1014
f 1015 951 950
f 1015 950 1013
f 951 1015 1016
f 1017 951 1016
f 952 951 1017
f 952 1018 953
f 1017 1018 952
f 953 1019 954
f 1018 1019 953
f 945 954 1008
f 954 1020 1008
f 954 1019 1020
f 1008 1020 1009
f 1014 1021 1013
f 1013 1021 1015
f 1015 1021 1022
f 1015 1022 1016
f 1023 960 961
f 962 1024 961
f 961 1024 1023
f 963 1024 962
f 1025 964 965
f 966 1026 965
f 965 1026 1025
f 960 1023 966
f 1023 1026 966
f 1023 1027 1026
f 1028 1023 1024
f 1027 1023 1028
f 968 1028 963
f 963 1028 1024
f 1029 969 970
f 1029 970 1030
f 970 1031 1030
f 970 971 1031
f 971 964 1025
f 1032 971 1025
f 1031 971 1032
f 1032 1025 1026
f 1032 1026 1033
f 1033 1026 1027
f 1033 1027 1034
f 1036 1035 1034
f 1027 1036 1034
f 1028 1036 1027
f 973 1036 968
f 968 1036 1028
f 1038 1037 975
f 975 1037 974
f 1039 975 976
f 1039 1038 975
f 1040 976 977
f 1040 1039 976
f 977 969 1029
f 1041 977 1029
f 1040 977 1041
f 1041 1029 1030
f 1035 1036 1042
f 1035 1042 1043
f 978 1042 973
f 973 1042 1036
f 1045 1044 981
f 981 1044 980
f 1046 981 982
f 1046 1045 981
f 1047 982 983
f 1047 1046 982
f 1048 983 984
f 1048 1047 983
f 984 974 1037
f 984 1037 1048
f 1051 1050 1049
f 1049 1050 1043
f 1049 1043 1042
f 987 1049 1042
f 986 987 1042
f 986 1042 978
f 1053 1052 990
f 990 1052 989
f 1054 990 991
f 1054 1053 990
f 1055 991 992
f 1055 1054 991
f 992 980 1044
f 992 1044 1055
f 1051 1049 1056
f 1051 1056 1057
f 993 1056 987
f 987 1056 1049
f 1052 994 989
f 1058 994 1052
f 1061 1060 1059
f 996 997 1059
f 1060 996 1059
f 1062 996 1060
f 1056 998 1057
f 998 1062 1057
f 998 996 1062
f 998 1056 993
f 1058 999 994
f 1063 999 1058
f 1066 1065 1064
f 1064 1065 1061
f 1064 1061 1059
f 1001 1064 1059
f 1000 1001 1059
f 1000 1059 997
f 1063 1002 999
f 1067 1002 1063
f 1069 1068 1003
f 1069 1003 1004
f 1003 1070 1005
f 1068 1070 1003
f 1064 1006 1066
f 1006 1070 1066
f 1006 1005 1070
f 1006 1064 1001
f 1067 1007 1002
f 1071 1007 1067
f 1073 1072 1010
f 1073 1010 1009
f 1010 1074 1011
f 1072 1074 1010
f 1011 1075 1012
f 1074 1075 1011
f 1004 1012 1069
f 1069 1012 1075
f 1077 1014 1076
f 1014 1071 1076
f 1014 1007 1071
f 1078 1077 1076
f 1080 1079 1017
f 1080 1017 1016
f 1017 1081 1018
f 1079 1081 1017
f 1018 1082 1019
f 1081 1082 1018
f 1019 1083 1020
f 1082 1083 1019
f 1009 1020 1073
f 1073 1020 1083
f 1077 1021 1014
f 1078 1084 1077
f 1084 1021 1077
f 1084 1022 1021
f 1016 1022 1080
f 1080 1022 1084
f 1085 1030 1031
f 1032 1086 1031
f 1031 1086 1085
f 1033 1087 1032
f 1032 1087 1086
f 1034 1088 1033
f 1033 1088 1087
f 1035 1088 1034
f 1089 1037 1038
f 1039 1090 1038
f 1038 1090 1089
f 1040 1091 1039
f 1039 1091 1090
f 1041 1092 1040
f 1040 1092 1091
f 1030 1085 1041
f 1085 1092 1041
f 1085 1093 1092
f 1094 1085 1086
f 1093 1085 1094
f 1095 1086 1087
f 1094 1086 1095
f 1096 1087 1088
f 1095 1087 1096
f 1043 1096 1035
f 1035 1096 1088
f 1097 1044 1045
f 1097 1045 1098
f 1045 1099 1098
f 1045 1046 1099
f 1100 1046 1047
f 1100 1099 1046
f 1101 1047 1048
f 1101 1100 1047
f 1048 1037 1089
f 1102 1048 1089
f 1101 1048 1102
f 1102 1089 1090
f 1102 1090 1103
f 1103 1090 1091
f 1103 1091 1104
f 1104 1091 1092
f 1104 1092 1105
f 1105 1092 1093
f 1105 1093 1106
f 1108 1107 1106
f 1093 1108 1106
f 1094 1108 1093
f 1109 1094 1095
f 1108 1094 1109
f 1051 1109 1050
f 1109 1096 1050
f 1109 1095 1096
f 1050 1096 1043
f 1111 1110 1053
f 1053 1110 1052
f 1112 1053 1054
f 1112 1111 1053
f 1113 1054 1055
f 1113 1112 1054
f 1055 1044 1097
f 1114 1055 1097
f 1113 1055 1114
f 1114 1097 1098
f 1107 1108 1115
f 1107 1115 1116
f 1117 1108 1109
f 1115 1108 1117
f 1057 1117 1051
f 1051 1117 1109
f 1110 1058 1052
f 1118 1058 1110
f 1121 1120 1119
f 1119 1120 1116
f 1119 1116 1115
f 1061 1119 1115
f 1060 1061 1115
f 1060 1115 1062
f 1062 1115 1117
f 1062 1117 1057
f 1118 1063 1058
f 1122 1063 1118
f 1125 1124 1123
f 1127 1126 1123
f 1127 1123 1124
f 1126 1127 1121
f 1126 1121 1119
f 1066 1126 1119
f 1065 1066 1119
f 1065 1119 1061
f 1122 1067 1063
f 1128 1067 1122
f 1131 1130 1129
f 1133 1132 1129
f 1133 1129 1130
f 1132 1133 1125
f 1132 1125 1123
f 1069 1132 1123
f 1068 1069 1123
f 1068 1123 1070
f 1070 1123 1126
f 1070 1126 1066
f 1128 1071 1067
f 1134 1071 1128
f 1137 1136 1135
f 1072 1073 1135
f 1136 1072 1135
f 1138 1072 1136
f 1129 1074 1131
f 1074 1138 1131
f 1074 1072 1138
f 1074 1129 1075
f 1075 1129 1132
f 1075 1132 1069
f 1134 1139 1071
f 1071 1139 1076
f 1078 1076 1139
f 1078 1139 1140
f 1142 1141 1079
f 1142 1079 1080
f 1079 1143 1081
f 1141 1143 1079
f 1081 1144 1082
f 1143 1144 1081
f 1135 1083 1137
f 1083 1144 1137
f 1083 1082 1144
f 1083 1135 1073
f 1140 1145 1078
f 1078 1145 1084
f 1080 1084 1142
f 1142 1084 1145
f 1146 1098 1099
f 1100 1147 1099
f 1099 1147 1146
f 1101 1148 1100
f 1100 1148 1147
f 1102 1149 1101
f 1101 1149 1148
f 1103 1150 1102
f 1102 1150 1149
f 1104 1151 1103
f 1103 1151 1150
f 1105 1152 1104
f 1104 1152 1151
f 1106 1153 1105
f 1105 1153 1152
f 1107 1153 1106
f 1154 1110 1111
f 1112 1155 1111
f 1111 1155 1154
f 1113 1156 1112
f 1112 1156 1155
f 1114 1157 1113
f 1113 1157 1156
f 1098 1146 1114
f 1146 1157 1114
f 1146 1158 1157
f 1159 1146 1147
f 1158 1146 1159
f 1160 1147 1148
f 1159 1147 1160
f 1161 1148 1149
f 1160 1148 1161
f 1162 1149 1150
f 1161 1149 1162
f 1163 1150 1151
f 1162 1150 1163
f 1164 1151 1152
f 1163 1151 1164
f 1165 1152 1153
f 1164 1152 1165
f 1116 1165 1107
f 1107 1165 1153
f 1167 1166 1154
f 1166 1110 1154
f 1166 1118 1110
f 1167 1154 1155
f 1167 1155 1168
f 1168 1155 1156
f 1168 1156 1169
f 1169 1156 1157
f 1169 1157 1170
f 1170 1157 1158
f 1170 1158 1171
f 1171 1158 1159
f 1171 1159 1172
f 1172 1159 1160
f 1172 1160 1173
f 1175 1174 1173
f 1160 1175 1173
f 1161 1175 1160
f 1176 1161 1162
f 1175 1161 1176
f 1177 1162 1163
f 1176 1162 1177
f 1178 1163 1164
f 1177 1163 1178
f 1121 1178 1120
f 1178 1165 1120
f 1178 1164 1165
f 1120 1165 1116
f 1166 1122 1118
f 1179 1122 1166
f 1182 1181 1180
f 1180 1181 1174
f 1175 1180 1174
f 1183 1180 1175
f 1184 1175 1176
f 1183 1175 1184
f 1125 1184 1124
f 1184 1177 1124
f 1184 1176 1177
f 1124 1177 1127
f 1127 1177 1178
f 1127 1178 1121
f 1179 1128 1122
f 1185 1128 1179
f 1188 1187 1186
f 1186 1187 1182
f 1180 1186 1182
f 1189 1186 1180
f 1131 1189 1130
f 1189 1183 1130
f 1189 1180 1183
f 1130 1183 1133
f 1133 1183 1184
f 1133 1184 1125
f 1191 1134 1190
f 1134 1185 1190
f 1134 1128 1185
f 1192 1191 1190
f 1195 1194 1193
f 1197 1196 1193
f 1197 1193 1194
f 1199 1198 1196
f 1199 1196 1197
f 1198 1199 1188
f 1198 1188 1186
f 1137 1198 1186
f 1136 1137 1186
f 1136 1186 1138
f 1138 1186 1189
f 1138 1189 1131
f 1191 1139 1134
f 1201 1200 1140
f 1201 1140 1139
f 1192 1201 1139
f 1191 1192 1139
f 1200 1201 1195
f 1200 1195 1193
f 1142 1200 1193
f 1141 1142 1193
f 1141 1193 1143
f 1143 1193 1196
f 1143 1196 1144
f 1144 1196 1198
f 1144 1198 1137
f 1200 1145 1140
f 1145 1200 1142
f 1202 1166 1167
f 1168 1203 1167
f 1167 1203 1202
f 1169 1204 1168
f 1168 1204 1203
f 1170 1205 1169
f 1169 1205 1204
f 1171 1206 1170
f 1170 1206 1205
f 1172 1207 1171
f 1171 1207 1206
f 1173 1208 1172
f 1172 1208 1207
f 1174 1208 1173
f 1209 1179 1202
f 1202 1179 1166
f 1210 1202 1203
f 1209 1202 1210
f 1211 1203 1204
f 1210 1203 1211
f 1212 1204 1205
f 1211 1204 1212
f 1213 1205 1206
f 1212 1205 1213
f 1214 1206 1207
f 1213 1206 1214
f 1182 1214 1181
f 1214 1208 1181
f 1214 1207 1208
f 1181 1208 1174
f 1215 1185 1209
f 1209 1185 1179
f 1216 1209 1210
f 1215 1209 1216
f 1217 1210 1211
f 1216 1210 1217
f 1218 1211 1212
f 1217 1211 1218
f 1219 1212 1213
f 1218 1212 1219
f 1188 1219 1187
f 1219 1214 1187
f 1219 1213 1214
f 1187 1214 1182
f 1215 1190 1185
f 1190 1215 1192
f 1215 1220 1192
f 1215 1216 1220
f 1195 1220 1194
f 1220 1217 1194
f 1220 1216 1217
f 1194 1217 1197
f 1197 1217 1218
f 1197 1218 1199
f 1199 1218 1219
f 1199 1219 1188
f 1220 1201 1192
f 1201 1220 1195
# 2436 faces, 0 coords texture

# End of File