####
#
# OBJ File Generated by Meshlab
#
####
# Object domain159.obj
#
# Vertices: 354
# Faces: 710
#
####
v 161.028336 148.135895 112.740097
v 163.200989 143.135269 115.570930
v 152.945602 151.247849 118.889381
v 161.149948 148.237518 120.327347
v 175.345886 144.836411 113.616676
v 157.047943 148.237503 120.327362
v 149.275146 142.009399 119.615723
v 173.454285 141.875305 119.621117
v 172.698502 147.235199 112.021904
v 159.885910 154.511307 112.155571
v 146.602371 145.122604 119.414940
v 171.403824 152.591583 116.959808
v 167.302429 154.635391 112.917671
v 154.997025 146.206772 120.474243
v 161.644745 151.102783 111.883652
v 159.099075 141.923477 119.603775
v 171.393768 148.233231 120.285751
v 150.898773 141.937347 119.611244
v 171.308243 146.695511 111.977440
v 167.300644 145.587021 112.441719
v 163.201080 148.237473 120.327354
v 149.697723 152.245941 115.937447
v 165.251953 148.237473 120.327354
v 150.884598 149.990601 119.800957
v 152.946411 142.309036 119.949654
v 176.017532 152.732971 114.806015
v 159.098907 144.164551 120.390930
v 165.256302 150.312805 111.604637
v 177.532013 143.306183 115.640465
v 172.995392 148.124405 120.162163
v 171.379257 154.242386 112.052795
v 165.251984 153.940643 114.734268
v 161.149918 141.834320 119.043785
v 159.121277 146.229599 113.568794
v 157.169373 144.254532 114.813927
v 173.559052 152.371445 112.441231
v 169.354187 142.308853 119.950478
v 169.352295 152.350021 111.625748
v 167.302994 154.206039 112.050217
v 161.158447 143.813904 114.701134
v 163.208099 152.353729 111.703194
v 172.679642 149.280167 119.958206
v 179.699295 143.631470 115.672554
v 159.902924 154.533615 112.164742
v 159.099304 142.435257 117.110596
v 163.200089 154.204697 112.056633
v 172.306168 154.429382 112.272888
v 155.979065 148.930283 113.795448
v 173.421097 144.812592 113.344078
v 160.393646 151.911194 112.070702
v 154.997025 148.237488 120.327354
v 175.316666 153.151993 114.580063
v 172.999344 153.953415 112.870918
v 148.078400 148.217468 119.828621
v 171.380020 152.347885 111.730682
v 165.251968 149.992661 119.798279
v 155.067093 153.333221 114.575737
v 148.962280 143.126740 117.862206
v 152.945053 141.925125 119.603813
v 148.257263 142.806625 119.702705
v 178.315491 143.820541 117.987862
v 175.493484 143.742645 114.632538
v 171.331558 149.926987 119.782173
v 176.695374 141.980331 119.205589
v 173.425568 146.190170 120.246964
v 169.353928 146.206696 120.467758
v 165.251938 141.834305 119.043777
v 163.407562 144.761917 113.609497
v 167.302887 144.164597 120.390923
v 165.274109 148.285965 111.704971
v 161.150024 142.308914 119.950340
v 163.201050 141.834366 119.043831
v 165.501938 147.102875 111.971741
v 177.179306 146.032745 118.349480
v 150.905441 151.138351 118.827789
v 175.158234 141.982773 119.748283
v 178.158615 146.743668 114.250549
v 171.402039 146.204926 120.413704
v 169.354080 141.923599 119.603729
v 176.873657 148.159607 118.085129
v 171.388565 150.308807 111.659454
v 156.246597 147.781891 113.937065
v 151.005157 142.894989 117.342445
v 175.774017 144.006088 119.623116
v 157.047897 151.238098 118.884811
v 167.305130 148.272537 111.655907
v 167.302887 143.641052 114.544289
v 147.965027 142.916962 119.119881
v 150.853806 152.990570 115.570946
v 173.462494 142.436340 117.116646
v 171.411102 141.922913 119.604973
v 154.976776 143.444855 115.892120
v 147.870773 143.286102 118.458633
v 172.996475 148.266251 111.947258
v 165.216049 146.150177 112.359108
v 167.302963 150.309235 111.530304
v 173.214096 150.127777 119.359085
v 169.353928 143.627365 114.536636
v 163.201172 142.421066 117.104019
v 178.304581 145.415848 114.073212
v 153.013168 152.900620 114.826233
v 147.677933 146.283279 117.969536
v 173.453598 143.676743 114.574226
v 169.354141 142.408524 117.098434
v 161.162537 152.373856 111.770500
v 165.276886 144.796402 113.345467
v 172.465378 154.211761 112.246170
v 165.251984 142.308929 119.950348
v 169.352737 148.235794 120.316330
v 163.201080 152.649948 116.995995
v 174.478180 145.254852 120.096588
v 165.251968 142.408707 117.098549
v 157.047989 141.923508 119.603790
v 152.965714 143.422668 116.028305
v 155.016846 144.251511 115.295776
v 147.879517 150.182541 117.609528
v 176.615921 149.546005 113.979256
v 150.108505 145.417633 116.215233
v 169.353271 145.568970 112.399895
v 165.251938 152.649918 116.995979
v 178.987091 143.282852 116.979263
v 167.302856 153.940689 114.734276
v 163.201050 142.308914 119.950333
v 159.095596 143.209976 115.610901
v 171.404633 142.309525 119.948166
v 176.368042 152.144150 114.888954
v 161.150055 141.923492 119.603760
v 163.207550 150.319839 111.764786
v 161.150467 143.176483 115.596565
v 155.006256 146.217300 114.618347
v 176.273956 151.612762 116.138359
v 167.302811 152.649948 116.996002
v 165.269897 143.673355 114.586037
v 150.870560 153.102188 115.513634
v 163.201019 141.923477 119.603737
v 148.886154 144.178146 120.208435
v 167.313248 144.717438 113.112671
v 177.513901 142.763489 117.186920
v 176.433319 149.619736 117.898270
v 173.433563 142.279846 119.944572
v 155.000320 142.534149 117.167160
v 177.639526 143.917480 114.760605
v 169.353745 141.835098 119.043953
v 149.427109 150.454453 115.951675
v 171.404678 143.639359 114.545219
v 173.455826 143.091766 115.549110
v 154.997253 141.844437 119.047585
v 157.083649 150.352432 113.289642
v 167.302368 151.239655 118.885223
v 150.864090 153.094742 115.437347
v 152.946045 148.237503 120.327408
v 161.150391 152.639267 116.989670
v 154.995987 151.239349 118.886063
v 159.099945 152.611893 116.975220
v 154.342697 149.937439 114.109146
v 178.691788 145.823578 116.419754
v 167.302826 143.082687 115.544418
v 171.336609 154.621323 112.845787
v 178.498474 143.106979 117.894302
v 165.252304 154.635788 112.917809
v 150.897507 144.167053 120.366959
v 150.903229 142.304764 119.945038
v 152.069107 143.488785 116.152184
v 148.197632 151.151230 117.617821
v 175.305573 152.105240 116.626251
v 152.948227 141.862671 119.054008
v 159.131470 153.674850 114.619286
v 149.189392 151.731766 116.702232
v 176.792557 150.167633 116.879547
v 159.098892 151.238968 118.885323
v 148.985229 144.257126 117.150085
v 169.347778 151.225159 118.874016
v 148.911697 150.987778 118.801399
v 169.356598 154.207443 112.046204
v 179.686539 143.777100 115.456581
v 148.088684 149.949936 119.649956
v 179.674728 143.713959 115.578857
v 165.251633 143.109299 115.557930
v 173.809784 148.230881 112.279175
v 157.047867 146.206741 120.474251
v 167.318649 146.645248 111.950386
v 154.999741 152.543976 116.944710
v 178.491272 147.204010 114.651482
v 161.153793 153.878891 114.702492
v 159.098846 146.206802 120.474258
v 174.545212 153.260483 113.786896
v 161.154633 154.563507 112.373299
v 167.302612 149.992508 119.797913
v 157.047852 141.839478 119.045692
v 150.923126 141.928574 119.125488
v 176.728378 150.230865 114.725517
v 152.988754 144.209122 115.592468
v 154.997040 142.308899 119.950340
v 167.303207 154.578018 112.393730
v 172.813538 150.444839 111.931778
v 171.400772 141.839661 119.047081
v 151.039032 150.332962 115.264786
v 165.251953 146.206741 120.474243
v 147.865616 148.284241 117.683685
v 157.047867 149.992691 119.798286
v 171.414307 153.851715 114.666695
v 150.896622 146.206589 120.448975
v 152.803497 148.264648 114.860939
v 146.175674 145.048355 119.234093
v 159.165451 148.319000 113.094261
v 178.209946 146.362015 117.048767
v 154.996979 141.923462 119.603737
v 150.981720 146.294693 115.704437
v 154.997025 144.164490 120.390930
v 178.489670 147.206802 114.651184
v 157.047897 144.164505 120.390915
v 154.996964 149.992737 119.798401
v 175.383087 150.308441 113.271530
v 161.149902 144.164520 120.390915
v 150.966354 148.311646 115.393845
v 163.201096 151.242050 118.887390
v 177.620041 146.142090 113.727470
v 169.354004 144.164505 120.390915
v 152.946075 144.164581 120.390930
v 149.105026 146.289307 116.554878
v 176.951340 148.061325 113.794472
v 171.405045 143.084488 115.545471
v 157.049896 142.478317 117.132935
v 169.353149 150.309265 111.543839
v 159.098846 149.992645 119.798294
v 175.306854 150.188995 118.523926
v 152.944870 149.997864 119.806068
v 153.727859 152.782822 114.063751
v 175.502914 143.163986 115.580597
v 165.252777 152.350723 111.623375
v 155.008392 152.309540 113.728050
v 169.353516 153.925201 114.726097
v 175.444839 148.216705 113.008904
v 161.220184 146.291275 113.176880
v 159.098892 141.834244 119.043770
v 148.867035 149.994003 119.812668
v 147.690506 150.125458 119.144745
v 153.018280 150.397736 114.477737
v 161.152435 150.143265 112.166840
v 173.428452 141.828354 119.081116
v 157.079468 153.450165 114.617752
v 163.201050 146.206741 120.474243
v 167.302811 142.408661 117.098480
v 174.319733 146.528000 119.952835
v 148.986832 142.167267 119.350616
v 174.981232 151.195801 117.910385
v 167.302933 152.351562 111.609085
v 157.118591 152.325272 113.282417
v 163.156021 146.181396 112.886536
v 148.719116 150.144058 116.471703
v 173.693634 150.289520 112.249687
v 167.302841 142.308899 119.950325
v 161.150009 149.992661 119.798279
v 171.388580 148.273926 111.726181
v 169.354004 143.082779 115.544548
v 167.302795 146.206726 120.474220
v 174.732590 144.040344 120.097969
v 165.251831 154.205917 112.050484
v 175.492050 146.249710 113.149353
v 159.098892 148.237518 120.327370
v 156.708572 146.053375 114.115898
v 157.047928 142.308914 119.950363
v 146.604050 145.196198 119.415993
v 159.135223 144.743729 114.081604
v 163.826111 148.543777 111.933441
v 152.946075 146.206802 120.474258
v 173.390259 151.267487 118.425682
v 167.302872 148.237442 120.327301
v 177.382767 144.100555 118.694984
v 165.251968 151.242096 118.887527
v 173.840439 148.286255 119.850639
v 151.679092 144.326401 115.890144
v 148.939606 142.354141 119.841782
v 157.049240 148.264740 113.604851
v 149.655106 148.353867 115.937645
v 171.533157 145.706619 112.426933
v 160.171143 153.048920 112.035713
v 178.534805 147.128342 114.659645
v 171.403809 144.165680 120.372452
v 150.660690 144.162750 116.338951
v 155.309341 150.486313 113.757881
v 159.134186 152.367111 112.437531
v 173.434845 152.433472 116.866409
v 171.426926 154.654358 112.380676
v 175.514511 142.499939 117.258911
v 159.005646 150.288467 112.811859
v 163.201126 149.992691 119.798302
v 159.315247 153.844727 112.928864
v 150.292328 152.792267 115.577538
v 163.206207 154.630539 112.913567
v 172.792068 152.200882 112.007782
v 169.367630 154.577301 112.392288
v 157.317978 153.328552 113.696365
v 147.956726 144.177383 119.905327
v 154.981812 148.266403 114.179253
v 155.583344 153.234161 114.071373
v 147.677841 148.155212 119.218597
v 163.199097 154.576477 112.392738
v 179.795593 143.583237 115.586906
v 169.350510 149.988647 119.793587
v 171.405212 142.410049 117.099121
v 173.427811 153.534119 114.596153
v 167.302979 141.923462 119.603729
v 157.052414 143.342209 115.733902
v 157.048752 152.580292 116.960602
v 162.910049 148.130737 112.196404
v 165.251953 144.164520 120.390938
v 161.150040 146.206757 120.474251
v 161.149902 151.242035 118.887413
v 165.251984 141.923508 119.603767
v 178.482056 144.802002 114.217804
v 176.626709 141.969131 119.207359
v 171.371796 151.159805 118.831535
v 159.121674 143.881744 114.762558
v 147.746338 144.310928 118.034561
v 147.792465 146.207458 119.954926
v 148.890411 148.235626 120.189674
v 175.539200 146.245102 119.445976
v 163.235718 143.786301 114.639969
v 161.175812 144.719543 113.978119
v 167.302872 141.834290 119.043808
v 159.098846 142.308884 119.950333
v 169.354065 152.641602 116.990906
v 169.352982 146.632919 111.939247
v 148.878876 146.206802 120.275970
v 152.992004 152.361313 114.447151
v 161.150024 142.421783 117.104462
v 169.351929 144.703842 113.105637
v 152.960022 142.592621 117.196289
v 165.251877 154.578262 112.393623
v 150.896286 148.237381 120.316811
v 163.201065 144.164581 120.390938
v 177.586472 148.139542 116.896660
v 157.883698 144.987366 114.169655
v 153.043198 146.220917 115.104530
v 169.353149 148.269302 111.635681
v 161.163345 154.225082 112.073044
v 175.178650 141.894562 119.714485
v 146.270340 145.055603 119.274582
v 175.526291 148.243820 118.993820
v 171.394196 144.737259 113.162071
v 152.960968 152.432571 116.892365
v 157.556381 146.442520 113.817879
v 173.376099 146.310516 112.486603
v 169.348114 154.634842 112.913292
v 179.690308 143.735306 115.408119
v 163.201584 153.929825 114.728783
v 153.639954 153.077469 114.312477
v 147.870499 150.844788 118.556778
v 148.841141 148.168213 116.389465
v 177.174194 144.836121 113.945686
v 173.439713 144.162582 120.275505
v 175.111221 152.259476 113.540833
v 161.173843 154.570679 112.866180
# 354 vertices, 0 vertices normals

f 234 249 1
f 82 343 274
f 243 112 321
f 284 47 53
f 216 110 270
f 41 28 230
f 247 39 258
f 340 80 74
f 263 316 294
f 325 317 202
f 86 96 28
f 74 80 333
f 338 312 64
f 96 224 247
f 22 150 289
f 16 33 235
f 177 299 175
f 256 23 268
f 199 297 102
f 66 78 279
f 22 289 168
f 113 16 235
f 160 330 13
f 266 331 151
f 134 101 342
f 168 164 250
f 290 298 160
f 59 207 147
f 16 127 33
f 259 351 217
f 128 28 41
f 253 287 21
f 330 194 13
f 144 215 197
f 8 64 240
f 247 38 39
f 190 245 7
f 150 326 89
f 98 145 328
f 181 73 95
f 11 54 316
f 249 106 95
f 71 123 135
f 97 226 340
f 205 234 1
f 301 146 222
f 130 261 295
f 138 121 346
f 5 142 351
f 283 165 246
f 255 222 98
f 352 257 76
f 177 175 210
f 11 204 339
f 203 197 215
f 340 226 80
f 199 237 297
f 256 198 23
f 125 279 140
f 20 119 324
f 7 245 273
f 73 70 265
f 64 84 312
f 243 143 104
f 179 233 251
f 35 264 334
f 332 307 108
f 150 89 134
f 295 155 238
f 152 110 216
f 188 270 149
f 74 206 61
f 10 105 337
f 140 76 338
f 281 148 231
f 83 329 114
f 225 85 170
f 218 279 125
f 262 211 322
f 247 224 38
f 252 37 79
f 40 319 68
f 40 2 319
f 1 249 306
f 239 306 128
f 61 206 175
f 271 318 244
f 113 189 207
f 17 30 65
f 78 17 65
f 115 35 130
f 124 129 314
f 325 202 161
f 180 6 185
f 285 312 138
f 58 190 83
f 136 316 325
f 219 161 202
f 10 337 187
f 57 101 348
f 80 169 333
f 281 231 326
f 25 193 207
f 278 206 333
f 91 8 240
f 33 72 327
f 150 134 89
f 20 181 95
f 220 208 350
f 192 335 208
f 233 217 221
f 119 19 324
f 274 205 148
f 304 124 35
f 34 320 234
f 157 87 133
f 351 311 217
f 87 255 98
f 212 200 6
f 107 53 47
f 105 41 337
f 252 303 108
f 153 182 85
f 318 269 84
f 6 260 185
f 36 213 353
f 93 245 58
f 46 258 330
f 288 277 10
f 137 328 20
f 313 267 97
f 10 277 105
f 164 116 250
f 308 4 242
f 194 292 345
f 154 152 309
f 209 14 211
f 156 175 206
f 188 56 270
f 226 246 131
f 162 161 25
f 121 175 43
f 122 120 32
f 24 151 331
f 113 207 193
f 167 305 241
f 310 108 303
f 35 334 261
f 79 37 91
f 65 244 111
f 170 309 253
f 189 235 223
f 137 95 106
f 264 343 334
f 130 35 261
f 49 5 344
f 13 194 345
f 39 194 258
f 353 191 126
f 233 221 213
f 201 158 53
f 223 304 141
f 30 42 97
f 318 74 269
f 63 313 97
f 145 103 341
f 275 208 215
f 306 73 265
f 134 342 3
f 51 6 180
f 276 49 344
f 115 335 192
f 279 78 352
f 71 214 123
f 60 273 245
f 84 269 312
f 224 254 81
f 20 328 119
f 288 167 241
f 309 216 287
f 243 255 157
f 286 239 282
f 217 210 77
f 323 232 201
f 75 3 227
f 285 138 29
f 197 238 150
f 44 187 354
f 31 291 107
f 301 240 90
f 223 124 304
f 234 68 249
f 158 284 53
f 184 290 347
f 344 259 179
f 140 352 76
f 243 321 143
f 191 131 126
f 64 76 84
f 174 31 284
f 303 79 143
f 318 340 74
f 122 32 13
f 123 332 108
f 347 290 160
f 295 82 274
f 189 141 147
f 142 346 177
f 317 54 176
f 191 169 131
f 328 145 341
f 338 76 312
f 93 315 263
f 121 43 346
f 188 149 300
f 329 147 141
f 22 144 197
f 113 235 189
f 209 211 262
f 283 52 165
f 202 317 331
f 224 81 38
f 220 171 280
f 39 38 174
f 211 180 27
f 264 320 34
f 65 271 244
f 182 305 85
f 18 7 273
f 62 29 142
f 19 344 9
f 45 327 129
f 137 20 95
f 174 55 31
f 236 331 317
f 185 308 214
f 189 223 141
f 254 9 94
f 29 346 142
f 39 174 292
f 236 173 24
f 97 340 271
f 314 40 320
f 45 129 124
f 149 132 172
f 58 245 190
f 225 170 253
f 231 248 296
f 274 34 205
f 58 83 171
f 8 338 64
f 172 323 313
f 87 106 133
f 267 283 246
f 327 2 129
f 236 317 176
f 235 33 45
f 80 139 169
f 10 187 44
f 264 34 343
f 53 353 186
f 220 118 208
f 83 114 163
f 335 215 208
f 312 121 138
f 225 253 4
f 152 347 110
f 123 108 310
f 336 19 254
f 126 131 26
f 236 24 331
f 328 341 119
f 353 126 186
f 294 136 273
f 263 294 88
f 201 53 302
f 149 120 132
f 69 198 256
f 90 64 285
f 332 242 307
f 87 98 137
f 216 270 56
f 94 179 195
f 336 254 224
f 288 44 354
f 51 227 212
f 208 280 272
f 231 296 348
f 99 67 112
f 341 49 276
f 135 67 72
f 212 153 200
f 258 194 330
f 90 229 146
f 196 240 301
f 86 324 336
f 173 75 24
f 153 342 182
f 17 63 30
f 132 323 172
f 164 349 237
f 155 281 238
f 276 344 19
f 325 54 317
f 156 210 175
f 322 71 127
f 53 36 353
f 34 234 205
f 168 89 134
f 11 263 204
f 298 330 160
f 39 292 194
f 221 278 117
f 153 85 200
f 339 204 263
f 91 240 196
f 11 297 54
f 205 286 148
f 19 9 254
f 344 5 259
f 170 85 305
f 219 25 161
f 319 178 133
f 302 186 52
f 144 250 275
f 92 304 115
f 346 43 299
f 278 77 210
f 268 188 109
f 269 74 61
f 195 179 251
f 319 106 68
f 188 300 109
f 154 184 152
f 346 175 177
f 103 62 49
f 128 70 28
f 174 284 292
f 226 139 80
f 251 233 213
f 181 70 73
f 296 248 293
f 142 311 351
f 72 67 99
f 104 196 301
f 272 280 163
f 136 162 273
f 214 332 123
f 35 314 264
f 88 294 60
f 46 230 258
f 327 99 2
f 306 265 128
f 231 348 228
f 68 106 249
f 295 281 155
f 286 1 239
f 287 56 23
f 354 187 290
f 150 89 289
f 134 89 101
f 4 21 242
f 132 232 323
f 282 50 105
f 81 195 55
f 32 160 13
f 110 32 120
f 352 65 257
f 51 151 227
f 297 237 176
f 168 173 164
f 257 318 84
f 50 15 105
f 21 23 198
f 335 203 215
f 251 213 36
f 263 315 102
f 262 322 16
f 218 66 279
f 91 125 8
f 220 280 118
f 187 298 290
f 157 178 112
f 132 122 232
f 18 59 166
f 199 220 350
f 111 244 318
f 275 250 350
f 18 190 7
f 119 341 276
f 127 72 33
f 99 112 178
f 319 133 106
f 137 98 328
f 252 307 69
f 249 95 306
f 172 313 63
f 324 19 336
f 90 285 229
f 165 52 26
f 92 141 304
f 295 48 281
f 57 293 241
f 239 15 50
f 128 265 70
f 269 61 159
f 76 257 84
f 98 222 145
f 115 130 335
f 14 266 151
f 157 255 87
f 4 253 21
f 345 292 158
f 103 229 62
f 40 68 320
f 297 176 54
f 24 227 151
f 323 201 12
f 282 105 277
f 220 102 171
f 135 310 67
f 212 3 153
f 79 196 143
f 242 198 307
f 14 151 51
f 63 97 42
f 177 210 100
f 64 312 285
f 268 23 56
f 213 117 191
f 182 241 305
f 31 107 47
f 149 172 300
f 88 60 245
f 167 354 184
f 14 51 180
f 156 206 210
f 225 200 85
f 236 349 173
f 259 217 233
f 136 325 161
f 12 201 302
f 286 282 248
f 41 230 46
f 65 30 271
f 254 94 81
f 326 228 348
f 306 95 73
f 59 147 166
f 22 197 150
f 173 349 164
f 152 184 347
f 337 298 187
f 99 178 2
f 217 77 278
f 181 324 86
f 21 287 23
f 8 140 338
f 213 191 353
f 240 64 90
f 57 342 101
f 209 262 193
f 55 291 31
f 232 345 158
f 38 55 174
f 282 293 248
f 291 36 107
f 11 263 102
f 222 146 145
f 63 42 30
f 114 192 272
f 92 192 114
f 212 227 3
f 143 196 104
f 186 26 52
f 252 79 303
f 274 343 34
f 179 259 233
f 55 195 291
f 146 229 103
f 96 336 224
f 157 133 178
f 175 299 43
f 292 284 158
f 325 316 54
f 121 159 175
f 226 131 169
f 232 158 201
f 199 116 237
f 295 261 82
f 79 91 196
f 275 350 208
f 11 316 263
f 38 81 55
f 59 25 207
f 209 219 266
f 268 109 66
f 191 278 169
f 87 137 106
f 296 293 57
f 18 162 59
f 153 3 342
f 303 143 321
f 130 295 203
f 130 203 335
f 309 152 216
f 281 48 274
f 27 214 71
f 145 146 103
f 219 202 266
f 27 185 214
f 288 10 44
f 86 336 96
f 182 342 57
f 62 142 5
f 114 272 163
f 347 160 32
f 320 68 234
f 31 47 284
f 16 322 127
f 247 258 230
f 119 276 19
f 180 185 27
f 169 278 333
f 239 128 15
f 314 129 40
f 93 88 245
f 135 123 310
f 51 212 6
f 346 177 175
f 24 75 227
f 69 218 37
f 127 71 135
f 278 210 206
f 199 102 220
f 337 41 46
f 226 169 139
f 256 66 218
f 164 237 116
f 195 251 291
f 300 63 17
f 231 148 248
f 252 108 307
f 260 225 4
f 113 193 262
f 217 311 100
f 294 316 136
f 45 33 327
f 243 104 255
f 177 100 311
f 30 97 271
f 344 94 9
f 154 305 167
f 267 246 226
f 223 45 124
f 142 177 311
f 75 134 3
f 315 171 102
f 12 283 267
f 104 301 222
f 310 303 321
f 329 166 147
f 268 56 188
f 231 228 326
f 346 299 177
f 37 125 91
f 20 324 181
f 49 62 5
f 252 69 37
f 107 36 53
f 327 72 99
f 93 58 171
f 300 172 63
f 6 200 260
f 286 248 148
f 278 183 210
f 12 302 283
f 22 168 144
f 281 326 238
f 350 250 116
f 288 241 293
f 136 161 162
f 11 102 297
f 219 193 25
f 242 21 198
f 170 305 154
f 313 12 267
f 186 126 26
f 5 351 259
f 113 262 16
f 104 222 255
f 168 134 75
f 291 251 36
f 344 179 94
f 281 274 148
f 182 57 241
f 285 29 229
f 69 256 218
f 288 354 167
f 46 330 298
f 192 208 272
f 295 238 203
f 165 26 131
f 184 354 290
f 282 239 50
f 257 111 318
f 181 86 70
f 322 27 71
f 86 28 70
f 110 347 32
f 214 308 332
f 199 350 116
f 203 238 197
f 81 94 195
f 209 193 219
f 326 348 101
f 110 120 270
f 162 25 59
f 168 289 89
f 185 260 308
f 209 266 14
f 302 53 186
f 323 12 313
f 171 83 280
f 278 210 183
f 11 339 263
f 312 269 159
f 125 140 8
f 349 176 237
f 144 275 215
f 69 307 198
f 253 309 287
f 2 178 319
f 105 15 128
f 14 180 211
f 261 334 343
f 260 4 308
f 78 65 352
f 217 278 221
f 1 306 239
f 283 302 52
f 105 128 41
f 236 176 349
f 92 329 141
f 337 46 298
f 60 294 273
f 96 230 28
f 208 118 280
f 64 312 76
f 310 321 67
f 93 171 315
f 65 111 257
f 92 115 192
f 83 163 280
f 170 154 309
f 279 352 140
f 312 159 121
f 66 109 78
f 261 343 82
f 89 326 101
f 132 120 122
f 83 166 329
f 149 270 120
f 260 200 225
f 314 320 264
f 190 166 83
f 271 340 318
f 18 273 162
f 67 321 112
f 18 166 190
f 213 221 117
f 96 247 230
f 256 268 66
f 92 114 329
f 205 1 286
f 287 216 56
f 223 235 45
f 246 165 131
f 122 13 345
f 93 263 88
f 115 304 35
f 308 242 332
f 109 300 17
f 229 29 62
f 301 90 146
f 168 75 173
f 117 278 191
f 129 2 40
f 217 100 210
f 109 17 78
f 282 288 293
f 144 168 250
f 189 147 207
f 127 135 72
f 295 274 48
f 159 61 175
f 138 346 29
f 266 202 331
f 150 238 326
f 122 345 232
f 296 57 348
f 211 27 322
f 35 124 314
f 341 103 49
f 37 218 125
f 243 157 112
f 154 167 184
f 74 333 206
f 97 267 226
f 282 277 288
# 710 faces, 0 coords texture

# End of File