####
#
# OBJ File Generated by Meshlab
#
####
# Object Volume_251.obj
#
# Vertices: 558
# Faces: 1110
#
####
v 209.683273 38.964386 136.700455
v 80.391563 41.775120 129.930832
v 82.408165 39.467377 140.519623
v 201.779800 43.672924 141.933121
v 78.500412 37.837437 134.659012
v 208.537842 51.372547 138.342499
v 210.920761 45.709831 132.649063
v 194.820190 52.816849 133.652634
v 205.457138 40.955326 141.421066
v 92.155693 51.077858 133.788574
v 89.692841 39.873173 136.623657
v 201.290741 45.711998 130.538483
v 204.537735 44.503036 129.982727
v 195.618423 44.451176 131.946152
v 90.201775 41.500740 131.070923
v 79.233025 41.606609 139.936356
v 206.951996 43.670753 141.950790
v 201.317139 47.758457 130.675568
v 84.452820 37.054260 132.952377
v 194.436096 46.318394 132.131897
v 80.373260 37.205868 136.988159
v 207.530319 45.805599 141.481583
v 207.670151 41.015652 130.458817
v 81.999794 43.310238 129.863861
v 79.780922 50.770763 135.238770
v 79.358597 46.947063 130.005905
v 197.511551 53.134071 132.090424
v 203.571579 42.798744 129.917694
v 78.773567 49.249371 136.751312
v 82.269249 36.851261 137.386322
v 203.337006 52.196175 138.963608
v 84.350868 39.291683 140.622406
v 92.277939 45.703964 132.173248
v 199.833252 43.788807 140.508026
v 79.392738 38.430809 138.223404
v 209.246796 39.459408 138.969391
v 86.511322 52.178825 134.572052
v 80.276604 45.716534 140.338760
v 78.840042 43.668427 130.076416
v 92.007103 43.693840 136.411911
v 79.418961 48.839241 138.134598
v 208.308273 49.271671 130.102585
v 199.289505 43.619907 130.729477
v 197.218842 45.670990 131.279846
v 86.194603 37.929218 139.106476
v 86.136330 38.337284 131.376923
v 84.371857 49.778336 138.608337
v 87.873238 38.266098 132.881256
v 205.302231 41.841400 141.929138
v 206.540558 42.219521 141.779282
v 207.361481 51.950394 138.603958
v 89.444733 40.308876 131.153091
v 210.524048 40.229107 135.384537
v 197.850204 42.350075 134.294556
v 78.743515 39.875362 131.577103
v 196.972610 43.459904 134.918243
v 199.099716 45.734581 130.900345
v 203.378372 53.243744 138.105362
v 194.551025 46.241589 133.846634
v 200.425659 42.498135 140.399826
v 88.157181 49.189651 138.262589
v 82.523132 38.510807 139.971191
v 195.827881 49.994534 136.327530
v 197.389877 53.612129 134.633530
v 210.927444 47.549915 138.438995
v 88.435310 51.985832 134.488953
v 79.167198 45.170876 139.942444
v 80.469002 51.347668 132.690048
v 84.725227 42.523438 129.933014
v 77.247444 41.845272 138.374649
v 203.344940 52.100449 130.834274
v 203.362854 43.676785 142.229446
v 77.910301 43.667488 130.519379
v 205.385635 52.050488 130.870392
v 79.487717 50.869057 133.907745
v 77.064857 42.089684 131.473083
v 197.205444 43.630764 131.433838
v 203.337646 39.964115 130.229416
v 82.300255 41.303249 129.840851
v 201.600143 41.654957 140.974625
v 203.442612 40.011509 140.520874
v 205.396286 52.150467 138.936600
v 201.334412 52.009552 138.776794
v 203.429733 39.524998 130.843613
v 199.914749 40.327507 132.370789
v 88.514145 50.206978 137.386017
v 208.263107 52.892422 136.862076
v 88.498367 47.767265 131.334106
v 77.035759 45.574772 131.524826
v 80.623299 38.338314 131.859253
v 208.252365 52.911549 136.888092
v 93.264687 51.019581 132.852615
v 80.820549 51.033794 136.214172
v 209.449081 39.373283 134.744400
v 200.667618 40.726418 137.495667
v 208.187256 52.950897 136.862930
v 199.014053 52.531792 137.445557
v 201.911011 54.420490 131.714050
v 211.096695 45.685493 138.669540
v 207.327682 39.759750 140.269058
v 210.556442 41.896564 133.177750
v 82.487396 51.446590 136.525772
v 92.130058 43.675152 132.029053
v 79.072159 45.558090 129.974030
v 194.316147 45.933651 132.565964
v 208.910263 51.833191 134.687927
v 87.435234 40.086720 140.243530
v 205.603104 38.409210 138.819550
v 80.347275 36.846954 134.576294
v 202.013062 40.148987 130.249512
v 203.339401 38.906116 134.596085
v 91.766510 49.024738 135.891876
v 205.357880 41.366161 129.892593
v 87.943100 45.466457 140.292053
v 82.426483 37.684025 139.061707
v 205.535706 50.719875 139.793411
v 82.433891 41.369511 140.919601
v 89.967155 39.911980 132.627502
v 209.614502 47.678612 130.627563
v 197.640854 42.019833 132.461655
v 205.454086 39.766579 140.540833
v 197.390808 52.007599 136.797180
v 88.621574 38.884483 132.461761
v 197.813507 47.713566 138.612366
v 84.268089 36.459202 136.335327
v 208.931015 45.768845 130.060257
v 75.983215 43.683716 131.725113
v 210.960205 41.410713 134.707932
v 210.024185 50.631149 136.196533
v 208.688812 47.491161 140.287476
v 203.447418 46.931290 142.006714
v 209.307297 49.930180 138.797867
v 202.379639 46.632469 141.886780
v 93.166832 47.614925 133.169846
v 196.799377 47.811539 137.482422
v 80.543343 41.352497 140.482544
v 203.114090 53.824409 131.531601
v 84.408806 52.014023 132.777832
v 198.354095 44.449245 138.833298
v 204.072556 38.449844 137.165176
v 76.941605 39.372353 134.616287
v 88.014290 38.047951 134.522125
v 204.985733 45.847767 130.009720
v 82.519028 51.840172 132.770737
v 84.371735 41.316319 129.840729
v 86.295036 47.184437 140.180145
v 92.838448 48.556255 132.421295
v 207.740250 43.694153 141.527924
v 75.932434 42.000122 136.116302
v 87.917603 38.125164 136.722534
v 77.597641 48.485687 133.507645
v 207.458878 47.751808 129.852448
v 82.152420 50.673100 137.602966
v 194.311798 51.921452 132.657639
v 78.174706 41.260319 139.169128
v 76.122902 41.373016 134.629700
v 211.754608 45.598328 136.240036
v 88.879509 41.177578 139.446915
v 194.277115 47.866371 134.209976
v 207.416748 38.268089 135.533997
v 194.302139 50.026836 134.262131
v 84.386307 43.619820 141.099518
v 199.620895 54.738838 134.329437
v 80.283981 43.648617 129.792175
v 80.451622 49.242218 138.457123
v 79.570068 46.990261 129.962601
v 82.443130 36.465637 136.348724
v 205.429398 38.932117 139.651962
v 82.279526 45.651749 130.204468
v 201.383850 47.710815 141.042404
v 210.605972 49.248272 134.648041
v 203.269379 40.974701 141.318146
v 201.575699 53.042507 138.035278
v 93.259834 47.695564 134.189789
v 195.190735 52.137913 131.942505
v 77.703743 38.705292 134.150558
v 198.432007 51.243149 137.995361
v 90.045563 43.684917 138.776230
v 210.202255 44.063911 131.348694
v 195.987152 44.329281 134.163849
v 91.950439 49.831909 132.110733
v 208.510925 38.632771 138.533020
v 196.889786 50.195957 137.257095
v 207.437424 52.111275 131.116089
v 201.927261 40.169182 139.334183
v 207.898010 52.776630 134.681686
v 194.707031 52.853226 133.076340
v 80.640732 38.164455 138.894531
v 205.353592 45.664654 142.188446
v 87.950371 41.518112 140.350098
v 76.738487 41.331814 132.650406
v 208.386993 40.091148 140.021042
v 89.194176 41.012775 130.376007
v 207.439911 45.699684 129.797379
v 208.717209 47.716110 130.081558
v 93.169861 45.851742 133.141357
v 201.916458 45.578941 141.972153
v 75.964539 43.682480 131.792557
v 82.752144 44.101486 130.001892
v 210.365265 45.549656 131.274796
v 86.270325 51.591011 136.481064
v 85.675377 38.529037 140.087646
v 196.872620 45.748463 137.039505
v 211.452469 41.416420 136.847153
v 205.517776 38.142200 137.077347
v 78.459579 47.604683 131.069702
v 194.073669 49.977444 132.331284
v 208.451233 38.525894 135.660706
v 207.408066 39.159855 132.772354
v 203.458923 54.646427 132.654892
v 193.931763 47.917133 132.711533
v 93.088280 49.534824 133.761765
v 206.550339 48.093914 129.979568
v 206.741943 45.437672 141.892242
v 210.100708 45.811184 139.690796
v 197.991425 45.733849 138.849564
v 82.358917 36.539967 134.591904
v 203.361008 45.685524 142.223526
v 80.323868 37.649826 132.907013
v 201.196136 50.388180 139.655075
v 194.837585 52.622044 132.420410
v 86.289505 39.419178 140.517639
v 84.392845 39.748672 130.031662
v 205.337540 53.126598 138.083557
v 201.714401 39.800217 136.817917
v 88.543869 51.583729 132.245193
v 89.745644 51.060234 135.796768
v 88.338943 39.687973 130.858841
v 90.946022 40.940311 132.620544
v 199.520828 51.836731 138.295502
v 205.136139 53.736485 136.827240
v 85.146713 36.660030 134.108154
v 205.272522 53.874130 132.647873
v 80.255936 50.224297 137.124649
v 90.492661 50.045921 131.823990
v 88.130844 43.606655 140.352402
v 205.281494 49.512764 140.496964
v 205.368393 43.673897 142.211868
v 201.545609 39.973026 130.770996
v 80.019852 45.446945 129.895218
v 194.069031 47.891026 132.287582
v 203.292694 54.243328 136.793365
v 196.562607 43.026669 132.803757
v 78.288620 45.785328 139.259109
v 210.867447 43.687344 132.826370
v 199.289139 47.767979 130.961426
v 80.378159 50.011490 131.346695
v 93.298378 45.714443 134.367508
v 86.326942 49.666553 138.594238
v 78.639313 47.479736 138.620407
v 205.316620 54.078873 134.463287
v 80.791023 36.536949 135.051010
v 208.447113 40.284954 131.652954
v 207.370850 47.598053 140.905014
v 84.276711 39.025040 130.440857
v 201.035812 45.767937 141.503571
v 208.260818 42.402077 130.183701
v 209.637695 47.811253 139.588989
v 207.291733 50.225548 130.247253
v 210.147491 49.313515 132.642410
v 76.574364 45.660244 132.684357
v 203.345947 50.100220 130.543289
v 208.644363 43.868614 130.025375
v 88.537430 45.761337 131.118500
v 86.862770 50.648960 137.556549
v 84.361992 38.050701 131.389038
v 84.382874 47.330750 140.217758
v 93.211678 51.078167 132.853317
v 199.913483 42.105091 139.180176
v 92.319214 49.912174 134.733719
v 91.009750 40.821171 134.684601
v 77.590332 48.469875 134.641769
v 86.325760 37.281689 136.958206
v 86.439156 50.071609 131.451431
v 86.315559 41.380360 140.894119
v 82.467804 51.966457 134.571594
v 76.484009 41.342350 137.030380
v 90.608185 41.358788 136.965958
v 203.237808 43.837189 130.031570
v 207.346893 38.398750 138.648621
v 79.027176 43.653923 140.045868
v 193.915268 49.943844 132.707321
v 197.722565 42.339104 131.471817
v 83.714233 42.666275 129.854996
v 205.465851 43.591022 129.802902
v 205.506332 47.903587 141.337601
v 194.996124 50.072861 135.388885
v 75.622261 42.739326 135.077652
v 194.434174 51.715542 132.264008
v 79.227913 49.385880 131.652985
v 82.385796 37.188328 132.947693
v 88.810364 39.065178 137.144989
v 76.718048 45.691624 136.969528
v 82.225266 48.277859 139.603363
v 208.939331 39.856083 132.954849
v 201.326355 50.102005 130.747742
v 209.475708 43.654106 130.569397
v 201.388992 54.157253 136.859390
v 88.470123 43.794460 130.741821
v 199.839355 41.050884 130.512436
v 88.472389 50.076450 131.646011
v 197.157669 42.784443 131.737656
v 84.443825 49.995766 131.222794
v 75.868774 43.233574 136.405106
v 80.594971 39.627533 140.010452
v 84.388809 45.686005 140.764465
v 194.922836 44.920853 132.366547
v 89.070221 43.643318 139.713257
v 86.432442 52.039867 132.805298
v 89.824654 47.449047 138.232758
v 82.439766 49.666893 138.679123
v 86.353210 47.753277 131.062988
v 90.461494 43.542160 131.304733
v 90.736618 47.859024 137.360794
v 207.827225 49.577122 130.042694
v 78.610641 49.607426 132.781662
v 77.190590 40.105713 133.078186
v 92.150803 45.689533 136.498947
v 86.329033 36.971775 134.489975
v 209.715988 41.228081 139.619247
v 199.492096 53.631004 136.557938
v 82.362801 51.231991 131.757629
v 197.390900 53.596077 132.811401
v 76.416321 45.682236 134.648788
v 86.295189 39.847343 130.147278
v 199.758194 47.398689 140.291504
v 197.171371 47.760929 131.302307
v 86.340393 43.606426 140.924484
v 88.168152 39.445961 139.159576
v 197.855164 49.832298 138.203537
v 198.544647 43.013878 137.334778
v 206.388290 46.809414 129.868225
v 89.697182 41.665638 138.595200
v 201.362106 39.762592 134.517609
v 195.184860 45.710545 131.839203
v 78.566505 49.865829 134.580490
v 206.874710 53.371315 134.746338
v 91.898117 41.996197 132.763351
v 202.311584 42.278618 141.778305
v 86.403946 45.629936 140.625656
v 88.854454 45.750610 139.584457
v 195.950485 51.380112 135.907410
v 200.075104 40.597328 130.957367
v 211.564026 41.921082 137.364380
v 210.311752 40.205856 138.440216
v 82.516289 38.129875 131.507126
v 88.447083 41.051949 130.022385
v 197.177750 50.102142 131.370514
v 91.563232 42.197586 136.084061
v 195.198929 50.097294 131.775482
v 81.024818 36.551800 135.860214
v 207.426468 41.345242 141.108612
v 82.421349 43.606514 140.974258
v 78.884560 38.184811 133.325882
v 77.273735 45.325619 138.223114
v 198.114975 53.241364 136.010864
v 199.484955 41.730034 136.850204
v 211.176514 47.627293 134.672638
v 206.820969 52.742588 138.086197
v 203.333817 47.760612 130.410492
v 195.571976 53.047626 134.057648
v 205.444870 38.253952 135.532120
v 86.434624 41.255482 129.960739
v 208.967407 45.658466 140.592621
v 203.350357 39.049820 132.681244
v 201.196823 42.179192 130.134933
v 78.071930 43.656425 139.380478
v 80.719795 46.005795 129.991486
v 205.072250 40.075344 130.328064
v 86.312416 37.601746 132.793732
v 80.438332 51.441055 134.510818
v 203.538818 54.839893 134.586929
v 91.068779 43.672417 137.577667
v 78.085014 48.002426 137.464600
v 77.262817 47.481606 132.704025
v 92.644943 43.390358 132.520660
v 201.617218 49.369431 140.292282
v 201.362122 53.978756 131.488144
v 82.185310 39.345287 130.506973
v 88.999161 38.780689 134.483322
v 88.353600 51.917835 132.732346
v 210.599701 39.885544 137.086044
v 209.031799 41.644459 131.086029
v 202.780228 54.793724 132.498001
v 79.541664 50.802307 132.799088
v 90.282936 51.605625 132.842834
v 205.369385 38.911098 132.602097
v 202.872192 55.018055 134.628601
v 93.324181 50.954113 132.851837
v 202.262970 54.968826 135.839203
v 82.820816 40.050842 130.040726
v 203.187195 38.822639 136.940399
v 82.330498 45.573845 140.659866
v 80.932297 51.020840 131.811707
v 84.282570 38.262356 140.095215
v 78.211990 45.691483 130.525269
v 90.085388 51.325108 132.387878
v 207.428619 43.676132 129.815613
v 77.497627 38.508007 135.164597
v 211.726578 45.695065 137.360062
v 209.694351 50.351837 132.724304
v 208.853394 38.413303 137.274521
v 210.904221 41.503754 138.501266
v 91.993111 47.505825 136.346970
v 211.033310 43.681679 138.659988
v 207.204361 49.206806 140.220978
v 84.328194 37.609234 139.130249
v 209.919266 50.558788 134.662155
v 204.283707 38.586372 138.598679
v 203.422516 39.273430 139.281860
v 92.298141 47.675533 132.121536
v 82.426559 47.261002 140.150467
v 195.829041 47.793819 136.410278
v 203.295029 47.870884 141.477905
v 199.603165 53.482567 131.719254
v 80.237625 47.739464 139.406769
v 210.355743 49.131744 138.272049
v 91.976013 41.993988 134.539856
v 84.388542 43.694378 130.148605
v 77.368958 46.783665 131.695816
v 194.851746 45.057312 132.862488
v 90.273964 49.838993 136.589966
v 205.352951 47.769970 130.104599
v 195.657959 43.986790 132.475845
v 209.845795 41.108204 132.633591
v 198.986359 47.903084 139.649307
v 75.753189 43.668488 132.555496
v 211.458252 43.702415 134.937408
v 84.391098 45.714172 130.501877
v 86.620735 39.116283 130.612579
v 78.698601 39.561852 138.751984
v 195.016312 47.769653 135.361328
v 84.336670 52.170002 134.539246
v 79.502205 46.239716 139.812851
v 84.308273 51.338383 131.864182
v 201.320633 55.146156 134.569016
v 84.380440 48.414513 139.632706
v 195.215027 45.652828 134.680466
v 194.566879 51.815620 134.070908
v 77.998634 39.042381 137.412628
v 209.771317 45.707798 130.568970
v 207.382645 38.138309 137.120514
v 202.451645 40.285934 140.168304
v 90.524338 45.704849 131.500641
v 86.915565 38.648918 139.488861
v 80.349136 39.301659 131.115875
v 88.254166 51.378555 136.099777
v 205.143951 53.246231 131.518082
v 195.914597 46.217121 135.984879
v 202.633804 54.973705 135.886322
v 75.651619 42.270683 135.098587
v 207.501419 39.091827 139.645599
v 201.383026 41.069317 130.070175
v 208.849609 41.648457 140.383743
v 199.208282 41.199718 134.628296
v 86.423241 42.450710 130.104767
v 199.305908 52.137413 131.262070
v 82.314919 47.763466 130.538284
v 205.359879 38.405910 134.517715
v 93.082359 44.064625 134.312576
v 76.173073 43.807663 137.060776
v 208.975677 43.659084 140.698105
v 205.104401 46.822414 141.911667
v 203.386353 41.839870 141.904495
v 201.342270 52.116375 130.941269
v 199.145828 40.888088 132.776138
v 209.000809 49.780937 131.051865
v 199.314850 54.415218 132.783875
v 80.574028 46.836555 140.002930
v 205.371628 50.116402 130.386414
v 195.193100 47.761913 131.742249
v 199.975937 54.818989 133.130707
v 92.835999 50.176773 132.436615
v 92.707130 47.817974 135.337891
v 88.492081 42.090343 130.326279
v 203.342194 50.843845 139.775604
v 90.326813 51.469963 134.500076
v 201.315369 54.838432 132.590240
v 87.650940 46.638802 139.984970
v 207.521133 50.165089 139.637466
v 86.528008 45.708958 130.831665
v 198.966003 43.707710 139.361801
v 200.834686 43.701740 141.360764
v 207.867599 52.725403 133.120956
v 201.278473 43.675777 130.317062
v 90.033310 45.664764 138.655090
v 78.310783 41.415260 130.835205
v 82.327087 49.962914 131.117813
v 85.406868 36.488358 135.083694
v 75.808914 43.547062 134.586273
v 91.196426 50.433060 135.398254
v 93.014168 44.147522 132.909561
v 85.371460 36.525307 135.896118
v 86.401337 51.507298 132.108505
v 195.367798 52.128666 134.921448
v 207.156052 53.068806 132.379028
v 199.068283 54.380814 134.934464
v 211.703552 43.669434 136.991104
v 87.590767 38.481895 138.323380
v 196.530243 52.497932 135.541733
v 208.746384 51.683853 132.563599
v 79.127724 42.178795 130.104416
v 210.542816 49.600750 136.950378
v 205.350540 39.545143 130.865768
v 195.698395 52.845798 132.172638
v 201.461517 39.630775 132.604645
v 80.528831 43.621155 140.569946
v 86.453682 43.699066 130.402344
v 77.020332 43.654812 138.371170
v 211.466202 45.734917 134.499939
v 91.118935 45.684349 137.593933
v 197.675278 43.968433 136.835770
v 80.296013 40.731983 130.310760
v 92.936668 45.752514 135.356033
v 198.719345 45.737019 139.675842
v 92.693207 43.533234 135.040268
v 203.319504 45.725018 130.272949
v 78.638687 37.998169 136.581955
v 196.245926 45.068527 135.547424
v 201.003433 54.788105 135.374329
v 78.135468 39.091274 132.825211
v 211.561951 47.107384 137.456482
v 210.110870 47.629124 131.300720
v 88.460587 47.650909 139.117874
v 80.085716 39.043850 139.467773
v 87.909843 40.219307 130.229935
v 199.292252 50.100647 131.043442
v 199.324402 41.414398 130.751297
v 207.518005 38.594303 134.475540
v 195.370743 53.090904 132.634018
v 207.184891 41.630928 130.054398
v 84.407761 47.815414 130.813751
v 205.977966 45.503883 129.846497
v 91.395706 42.252533 131.877274
v 208.404968 51.449593 131.487946
v 77.525192 38.541965 135.821396
v 210.699722 47.728539 132.732620
v 210.159698 43.656391 139.698822
v 211.412506 47.815620 136.751984
v 80.264908 47.739670 130.412109
v 84.390236 41.348835 141.092239
v 86.503296 48.175774 139.531693
v 84.454857 36.785656 137.318008
v 90.066879 39.733452 134.502090
v 200.969727 41.055557 139.303741
v 199.285858 49.957676 139.039047
v 90.522469 47.752911 131.615616
v 77.002396 47.333492 134.584885
v 197.210129 52.106033 131.638626
v 207.116669 39.856655 131.180023
v 84.429352 51.533283 136.561127
v 203.373383 41.300461 129.879669
v 199.610184 45.731236 140.547821
v 84.416100 36.398186 134.558151
v 203.346344 49.532482 140.532623
v 206.958801 52.744198 131.424057
v 77.336693 47.283817 136.708572
v 77.090111 39.596703 136.488312
# 558 vertices, 0 vertices normals

f 455 357 225
f 431 525 188
f 122 230 177
f 330 177 546
f 252 217 109
f 137 210 384
f 62 3 395
f 291 219 109
f 64 468 497
f 383 263 257
f 243 56 54
f 159 161 432
f 165 234 311
f 191 76 127
f 141 399 5
f 19 370 266
f 531 257 398
f 203 124 216
f 211 159 105
f 419 69 456
f 532 312 274
f 195 441 119
f 58 173 298
f 56 357 455
f 327 246 348
f 390 436 450
f 122 97 230
f 262 71 465
f 489 493 273
f 117 507 353
f 392 410 140
f 408 503 129
f 420 89 396
f 102 276 433
f 205 280 442
f 308 190 236
f 311 153 102
f 36 382 1
f 343 300 528
f 288 451 156
f 215 99 405
f 99 65 522
f 279 517 12
f 554 125 493
f 544 278 271
f 165 29 234
f 94 53 128
f 16 305 525
f 435 309 138
f 353 507 393
f 259 467 184
f 274 301 494
f 320 403 345
f 242 372 231
f 139 482 331
f 545 80 185
f 285 143 13
f 252 109 351
f 321 497 520
f 547 33 411
f 117 353 541
f 141 558 536
f 390 298 436
f 156 141 191
f 169 419 429
f 540 368 169
f 272 151 316
f 285 533 143
f 241 207 282
f 52 193 228
f 80 4 339
f 5 109 354
f 333 178 373
f 317 521 55
f 308 341 178
f 482 515 553
f 65 539 522
f 418 40 516
f 375 151 548
f 200 7 537
f 551 201 249
f 388 450 436
f 140 205 362
f 51 96 91
f 247 68 290
f 416 250 165
f 375 261 89
f 496 501 484
f 131 170 414
f 346 446 90
f 25 371 93
f 211 282 159
f 337 91 96
f 119 200 523
f 133 256 170
f 115 21 188
f 289 175 221
f 410 81 168
f 140 108 205
f 382 345 204
f 105 335 20
f 238 189 17
f 267 146 340
f 435 494 309
f 115 62 407
f 96 87 91
f 195 467 42
f 514 174 248
f 207 350 289
f 133 218 197
f 149 304 461
f 432 413 449
f 278 40 349
f 275 328 190
f 537 358 171
f 158 11 329
f 480 132 130
f 172 9 121
f 314 318 511
f 443 80 81
f 133 170 131
f 79 2 513
f 352 17 148
f 397 389 386
f 269 60 80
f 222 275 190
f 118 271 229
f 383 101 179
f 169 429 458
f 51 6 132
f 468 472 163
f 217 291 109
f 353 393 162
f 163 436 520
f 441 200 119
f 72 238 49
f 252 351 167
f 22 462 148
f 327 57 246
f 379 513 446
f 96 91 87
f 118 544 271
f 540 166 368
f 11 333 278
f 469 38 434
f 389 473 92
f 375 548 324
f 487 76 191
f 391 79 379
f 145 69 284
f 517 18 12
f 106 408 87
f 329 107 190
f 530 505 323
f 443 410 185
f 103 376 492
f 149 277 156
f 188 525 305
f 189 463 214
f 10 92 212
f 382 128 53
f 274 88 301
f 72 218 238
f 420 396 206
f 398 263 194
f 33 492 196
f 124 546 426
f 168 121 452
f 204 344 498
f 279 12 485
f 389 92 268
f 467 119 523
f 62 395 407
f 270 174 474
f 131 414 463
f 461 293 355
f 144 138 433
f 31 224 82
f 135 183 330
f 234 153 311
f 223 325 145
f 365 506 111
f 368 166 240
f 158 190 308
f 471 44 327
f 235 226 301
f 518 431 35
f 279 485 366
f 496 484 186
f 39 2 164
f 518 35 21
f 277 70 155
f 195 119 467
f 438 432 449
f 105 307 14
f 405 400 498
f 146 479 114
f 145 456 69
f 555 377 220
f 169 199 419
f 249 201 265
f 245 428 7
f 521 219 90
f 150 292 380
f 121 352 100
f 209 94 295
f 469 412 393
f 527 18 296
f 150 499 329
f 124 426 515
f 422 270 112
f 172 80 339
f 533 194 332
f 558 518 536
f 471 327 350
f 411 147 181
f 100 352 192
f 442 208 160
f 24 419 199
f 283 120 466
f 505 27 323
f 408 260 171
f 175 348 549
f 315 42 467
f 161 495 287
f 89 73 396
f 167 21 30
f 461 304 490
f 103 492 33
f 407 395 45
f 431 16 525
f 407 45 273
f 74 259 184
f 28 113 285
f 178 341 486
f 381 386 66
f 397 181 389
f 328 340 236
f 160 208 529
f 205 442 160
f 558 440 518
f 482 553 34
f 163 472 436
f 418 516 460
f 179 7 200
f 70 509 367
f 165 41 29
f 155 367 281
f 283 77 302
f 175 530 221
f 277 141 156
f 543 273 493
f 348 246 527
f 230 97 173
f 418 349 40
f 62 305 3
f 176 354 521
f 373 511 40
f 510 428 157
f 314 404 318
f 286 237 254
f 279 285 13
f 512 216 139
f 284 69 419
f 146 524 479
f 331 269 357
f 487 513 2
f 509 244 367
f 79 24 164
f 402 1 94
f 315 195 42
f 338 418 460
f 548 151 272
f 487 446 513
f 186 87 91
f 548 272 557
f 557 272 29
f 117 541 32
f 181 473 389
f 52 228 123
f 487 191 55
f 142 380 123
f 530 8 187
f 224 231 96
f 379 255 223
f 494 226 381
f 71 74 137
f 242 231 224
f 542 249 524
f 138 37 433
f 31 173 58
f 487 55 446
f 56 203 512
f 382 204 128
f 106 501 408
f 472 478 436
f 419 508 429
f 477 389 10
f 528 466 85
f 285 531 398
f 24 240 164
f 288 156 490
f 487 502 73
f 100 192 36
f 424 243 120
f 422 477 491
f 47 249 542
f 504 550 369
f 84 365 387
f 282 161 159
f 392 140 362
f 448 496 233
f 490 127 324
f 459 160 529
f 281 507 136
f 416 165 294
f 114 341 236
f 557 374 250
f 447 66 477
f 554 489 319
f 547 301 88
f 391 379 223
f 426 546 326
f 422 227 477
f 338 460 492
f 288 490 304
f 211 241 282
f 194 126 152
f 552 369 113
f 78 453 110
f 65 417 503
f 521 354 219
f 7 510 358
f 247 322 394
f 3 305 136
f 222 329 445
f 430 48 123
f 312 264 88
f 342 500 122
f 56 512 331
f 406 480 130
f 547 411 235
f 161 439 495
f 424 302 77
f 517 13 143
f 318 404 514
f 557 293 324
f 389 92 10
f 114 479 524
f 104 206 396
f 205 160 362
f 145 325 363
f 258 65 99
f 78 369 552
f 261 324 127
f 45 445 329
f 486 524 310
f 209 529 94
f 322 435 138
f 505 549 27
f 442 280 402
f 416 294 412
f 68 144 276
f 186 501 106
f 68 371 385
f 487 73 198
f 179 245 7
f 444 33 547
f 56 455 54
f 452 36 182
f 319 142 370
f 255 430 325
f 468 478 472
f 280 182 402
f 448 184 556
f 481 264 312
f 364 258 215
f 183 122 330
f 464 339 4
f 552 113 28
f 218 131 189
f 45 202 445
f 95 545 185
f 30 115 407
f 165 311 294
f 295 425 383
f 306 340 328
f 118 123 380
f 467 260 401
f 415 378 468
f 549 527 457
f 354 109 219
f 336 385 75
f 198 89 261
f 495 361 64
f 496 186 337
f 438 449 203
f 375 420 206
f 91 87 6
f 282 207 154
f 402 94 208
f 269 80 545
f 24 169 240
f 247 394 68
f 132 87 503
f 375 89 420
f 111 334 225
f 365 111 459
f 24 199 169
f 336 272 316
f 31 58 224
f 154 289 221
f 511 318 40
f 352 148 462
f 262 465 296
f 68 276 371
f 488 303 322
f 309 381 66
f 145 363 456
f 217 554 19
f 161 154 439
f 146 542 524
f 207 471 350
f 371 75 385
f 515 426 326
f 333 308 178
f 94 382 53
f 430 123 228
f 270 212 174
f 45 499 150
f 105 159 59
f 422 112 404
f 7 428 510
f 320 538 403
f 480 51 132
f 171 358 503
f 201 447 86
f 356 497 321
f 444 88 264
f 121 100 452
f 474 174 514
f 430 526 325
f 541 162 275
f 72 197 218
f 87 129 503
f 141 536 399
f 282 154 161
f 338 492 376
f 289 350 175
f 246 18 527
f 17 214 22
f 84 504 369
f 281 67 507
f 31 82 116
f 279 453 28
f 443 81 410
f 510 539 358
f 454 538 320
f 388 372 450
f 34 483 60
f 104 26 206
f 422 86 447
f 355 244 509
f 319 273 150
f 57 485 12
f 239 110 453
f 539 400 522
f 198 427 127
f 94 1 382
f 310 524 61
f 156 191 490
f 271 338 229
f 225 95 185
f 137 384 98
f 424 56 243
f 81 80 172
f 295 383 253
f 311 437 294
f 517 143 360
f 456 475 508
f 504 209 550
f 255 325 223
f 34 60 269
f 178 511 373
f 27 468 323
f 363 347 475
f 122 356 321
f 47 551 249
f 198 73 89
f 412 294 267
f 389 268 92
f 410 108 409
f 7 358 537
f 17 22 148
f 375 324 261
f 310 61 86
f 196 174 134
f 287 495 63
f 414 555 286
f 184 501 556
f 313 103 444
f 291 19 266
f 291 346 219
f 216 515 482
f 464 4 72
f 104 396 39
f 67 244 38
f 435 274 494
f 395 32 222
f 555 476 237
f 25 336 371
f 413 135 203
f 488 458 532
f 508 299 481
f 90 446 55
f 186 106 87
f 56 519 203
f 360 143 423
f 439 361 495
f 328 236 190
f 518 21 5
f 121 9 352
f 279 28 285
f 288 304 451
f 267 437 146
f 94 128 425
f 68 385 290
f 383 179 297
f 177 230 546
f 477 10 270
f 543 407 273
f 343 85 506
f 290 385 316
f 419 456 508
f 152 195 315
f 395 222 202
f 424 120 302
f 372 251 231
f 298 520 436
f 266 46 255
f 287 63 413
f 463 254 214
f 486 310 314
f 492 248 196
f 133 197 256
f 30 407 543
f 336 29 272
f 392 362 459
f 104 164 240
f 428 498 157
f 387 529 209
f 439 187 8
f 132 6 87
f 105 59 438
f 352 454 192
f 546 83 220
f 423 533 332
f 468 378 478
f 49 50 352
f 438 519 180
f 189 214 17
f 538 405 403
f 279 13 517
f 392 225 185
f 283 302 120
f 254 130 364
f 285 398 533
f 143 533 423
f 3 117 32
f 371 102 93
f 126 297 441
f 201 86 265
f 540 26 166
f 79 164 2
f 424 77 14
f 132 65 258
f 134 212 92
f 431 155 16
f 87 408 129
f 71 378 465
f 19 319 370
f 141 521 317
f 437 542 146
f 340 114 236
f 78 110 239
f 332 152 213
f 46 48 430
f 535 401 501
f 215 405 538
f 235 411 181
f 128 428 245
f 70 367 155
f 277 155 558
f 393 507 38
f 393 412 306
f 101 245 179
f 149 461 277
f 234 93 153
f 368 240 169
f 266 370 46
f 108 168 280
f 93 102 153
f 116 480 406
f 388 210 372
f 432 287 413
f 117 136 507
f 494 381 309
f 193 347 228
f 403 344 204
f 431 188 35
f 196 248 174
f 158 308 333
f 30 543 125
f 550 253 383
f 132 503 417
f 477 386 389
f 131 463 189
f 15 313 299
f 84 239 365
f 424 14 307
f 441 179 200
f 462 364 215
f 384 388 478
f 26 240 166
f 370 142 48
f 345 403 204
f 222 107 329
f 490 191 127
f 15 475 347
f 43 485 57
f 11 292 329
f 533 398 194
f 319 489 273
f 540 169 458
f 388 436 478
f 398 257 263
f 193 15 347
f 411 134 147
f 152 126 195
f 3 32 395
f 554 319 232
f 530 361 8
f 554 493 489
f 311 102 47
f 322 138 144
f 278 349 418
f 414 377 555
f 403 498 344
f 325 526 363
f 379 266 255
f 383 425 101
f 122 500 64
f 118 52 123
f 384 210 388
f 22 364 462
f 455 225 334
f 553 256 483
f 175 549 505
f 360 423 262
f 410 168 108
f 241 20 335
f 23 383 257
f 544 11 278
f 532 274 303
f 230 173 83
f 482 34 269
f 226 397 386
f 65 503 539
f 350 327 348
f 16 136 305
f 550 383 23
f 528 300 453
f 231 251 337
f 15 534 313
f 412 267 306
f 142 150 380
f 487 2 502
f 281 367 67
f 217 125 554
f 490 324 293
f 241 335 471
f 38 244 434
f 492 460 248
f 19 232 319
f 58 298 242
f 464 49 9
f 228 347 526
f 363 475 456
f 452 100 36
f 105 421 307
f 9 49 352
f 152 259 213
f 60 483 80
f 362 160 459
f 126 441 195
f 124 515 216
f 159 432 438
f 457 465 415
f 476 220 83
f 439 8 361
f 203 135 124
f 262 423 470
f 36 192 320
f 62 188 305
f 74 184 448
f 424 307 421
f 280 452 182
f 36 345 382
f 102 433 551
f 207 289 154
f 252 167 217
f 473 147 134
f 350 348 175
f 477 270 491
f 343 453 300
f 387 459 529
f 438 203 519
f 52 15 193
f 234 29 336
f 486 314 511
f 335 44 471
f 259 315 467
f 547 235 301
f 270 474 112
f 278 418 271
f 466 334 85
f 217 19 291
f 523 537 260
f 258 99 215
f 333 373 278
f 216 482 139
f 529 208 94
f 476 83 31
f 291 266 346
f 392 459 111
f 49 238 50
f 404 474 514
f 306 267 340
f 270 10 212
f 241 471 207
f 540 458 247
f 168 452 280
f 135 330 124
f 262 470 71
f 15 299 475
f 558 155 431
f 540 206 26
f 249 86 61
f 276 144 433
f 550 295 253
f 152 315 259
f 162 306 328
f 402 182 36
f 283 466 528
f 429 508 481
f 77 43 57
f 326 377 170
f 483 197 4
f 544 380 292
f 378 98 478
f 35 188 21
f 416 434 250
f 483 256 197
f 16 281 136
f 310 86 422
f 51 91 6
f 443 185 80
f 175 505 530
f 346 266 379
f 384 478 98
f 357 545 95
f 338 103 534
f 410 409 140
f 413 203 449
f 142 123 48
f 141 317 191
f 462 215 538
f 512 139 331
f 557 250 293
f 424 421 438
f 81 121 168
f 458 429 532
f 405 99 400
f 467 401 535
f 157 498 400
f 105 14 335
f 40 318 516
f 536 518 399
f 118 380 544
f 241 105 20
f 469 393 38
f 473 134 92
f 155 281 16
f 311 47 437
f 82 51 480
f 84 369 78
f 393 306 162
f 404 112 474
f 154 221 187
f 79 223 145
f 94 425 295
f 27 415 468
f 263 297 126
f 194 263 126
f 336 316 385
f 527 296 457
f 115 188 62
f 422 491 270
f 15 338 534
f 553 170 256
f 247 488 322
f 64 497 356
f 390 450 242
f 317 55 191
f 351 21 167
f 517 360 18
f 120 455 466
f 165 250 41
f 343 506 239
f 161 287 432
f 392 185 410
f 411 196 134
f 379 79 513
f 518 5 399
f 64 323 468
f 97 321 173
f 424 438 180
f 140 409 108
f 84 78 239
f 277 558 141
f 218 189 238
f 357 269 545
f 246 12 18
f 201 37 66
f 14 77 335
f 402 36 1
f 528 453 366
f 331 482 269
f 313 444 264
f 321 520 298
f 550 209 295
f 497 163 520
f 68 394 322
f 346 379 446
f 518 440 431
f 67 38 507
f 176 5 354
f 383 297 263
f 322 303 435
f 102 551 47
f 138 309 37
f 77 528 43
f 34 553 483
f 172 464 9
f 39 396 73
f 44 57 327
f 546 220 377
f 422 404 314
f 403 405 498
f 390 242 298
f 423 332 213
f 198 261 127
f 351 109 21
f 528 366 43
f 392 111 225
f 5 21 109
f 476 31 116
f 502 39 73
f 128 204 428
f 550 23 531
f 391 223 79
f 294 437 267
f 118 229 15
f 204 498 428
f 352 50 17
f 122 321 97
f 365 459 387
f 495 342 63
f 355 250 244
f 457 296 465
f 79 145 24
f 149 156 451
f 231 337 96
f 210 251 372
f 104 39 164
f 363 526 347
f 461 490 293
f 346 90 219
f 120 243 54
f 360 262 296
f 309 66 37
f 56 331 357
f 29 41 250
f 375 316 151
f 508 475 299
f 122 64 356
f 424 180 56
f 254 364 22
f 76 198 127
f 516 248 460
f 466 455 334
f 551 433 201
f 210 233 251
f 180 519 56
f 283 528 77
f 81 172 121
f 371 336 75
f 85 334 506
f 448 556 496
f 332 194 152
f 57 12 246
f 413 183 135
f 558 431 440
f 537 171 260
f 303 274 435
f 235 397 226
f 461 355 509
f 370 48 46
f 531 23 257
f 237 116 406
f 422 447 227
f 15 229 338
f 250 434 244
f 104 240 26
f 133 131 218
f 530 323 64
f 470 259 74
f 429 481 532
f 118 15 52
f 486 341 524
f 234 336 25
f 555 220 476
f 495 500 342
f 476 116 237
f 510 157 539
f 80 483 4
f 128 245 101
f 444 547 88
f 371 276 102
f 360 296 18
f 154 187 439
f 72 4 197
f 162 328 275
f 247 458 488
f 497 468 163
f 30 21 115
f 375 206 316
f 557 29 374
f 36 320 345
f 540 290 206
f 337 186 91
f 77 57 44
f 158 329 190
f 67 367 244
f 487 198 76
f 343 528 85
f 224 359 51
f 553 326 170
f 249 265 86
f 68 322 144
f 192 454 320
f 423 259 470
f 464 72 49
f 442 402 208
f 224 96 359
f 63 122 183
f 158 333 11
f 343 239 453
f 556 501 496
f 149 451 304
f 319 150 142
f 279 366 453
f 271 418 338
f 184 535 501
f 501 401 408
f 254 406 130
f 3 136 117
f 214 254 22
f 273 45 150
f 82 224 51
f 71 137 378
f 238 17 50
f 172 339 464
f 318 514 516
f 31 83 173
f 211 105 241
f 312 88 274
f 137 448 233
f 297 179 441
f 532 481 312
f 467 523 260
f 447 477 227
f 233 337 251
f 234 25 93
f 33 196 411
f 416 469 434
f 313 534 103
f 181 147 473
f 32 541 222
f 200 537 523
f 503 358 539
f 540 247 290
f 541 275 222
f 408 171 503
f 43 366 485
f 137 98 378
f 178 486 511
f 201 66 447
f 125 543 493
f 159 438 59
f 221 530 187
f 425 128 101
f 364 130 258
f 484 501 186
f 395 202 45
f 488 532 303
f 552 28 453
f 58 242 224
f 130 132 258
f 461 509 277
f 134 174 212
f 205 108 280
f 124 330 546
f 105 438 421
f 338 376 103
f 454 462 538
f 226 386 381
f 78 552 453
f 444 103 33
f 84 387 504
f 51 359 96
f 430 228 526
f 255 46 430
f 521 90 55
f 222 190 107
f 516 514 248
f 415 465 378
f 27 457 415
f 198 127 427
f 277 509 70
f 310 422 314
f 278 373 40
f 237 406 254
f 495 64 500
f 63 342 122
f 150 329 292
f 122 177 330
f 401 260 408
f 132 417 65
f 355 293 250
f 111 506 334
f 353 162 541
f 340 146 114
f 369 531 113
f 66 386 477
f 203 216 512
f 369 550 531
f 530 64 361
f 352 462 454
f 554 232 19
f 555 237 286
f 116 82 480
f 549 457 27
f 233 496 337
f 120 54 455
f 29 250 374
f 184 467 535
f 414 286 463
f 423 213 259
f 242 450 372
f 357 95 225
f 99 522 400
f 313 264 299
f 24 145 284
f 544 292 11
f 539 157 400
f 463 286 254
f 249 61 524
f 502 2 39
f 335 77 44
f 45 329 499
f 141 5 176
f 348 527 549
f 416 412 469
f 515 326 553
f 321 298 173
f 437 47 542
f 137 233 210
f 504 387 209
f 308 236 341
f 114 524 341
f 113 531 285
f 548 557 324
f 71 470 74
f 433 37 201
f 326 546 377
f 290 316 206
f 137 74 448
f 24 284 419
f 365 239 506
f 167 30 125
f 217 167 125
f 414 170 377
f 141 176 521
f 481 299 264
f 235 181 397
f 202 222 445
f 546 230 83
f 413 63 183
f 494 301 226
# 1110 faces, 0 coords texture

# End of File