####
#
# OBJ File Generated by Meshlab
#
####
# Object Volume_220.obj
#
# Vertices: 401
# Faces: 802
#
####
v 133.900711 306.185486 122.534279
v 141.090134 308.254517 128.858475
v 138.917160 322.891968 123.239388
v 141.609711 318.771667 134.363098
v 135.952209 328.133636 126.788551
v 131.888901 307.655518 134.559296
v 142.574982 320.910461 133.017029
v 136.022812 322.239563 135.993225
v 137.890549 302.928894 125.545586
v 133.918381 305.684631 130.966278
v 135.930679 308.236084 122.676201
v 138.003891 329.421448 135.166672
v 131.664856 326.904510 130.861282
v 131.875580 312.336639 122.696930
v 130.765747 314.434113 130.450302
v 135.955017 326.967651 136.302292
v 141.082169 310.270905 128.854660
v 130.614502 316.666382 123.939018
v 138.009964 322.325806 135.980316
v 135.952499 328.720276 135.797485
v 133.947479 328.707062 135.735367
v 140.853241 316.731171 128.424057
v 133.906570 310.293549 135.375076
v 131.858658 308.236084 122.610367
v 140.843674 327.986115 130.681061
v 138.000534 314.388702 135.444946
v 140.000290 329.479645 134.547638
v 135.949753 324.896271 122.747482
v 139.926575 329.163910 133.109894
v 137.718994 312.348663 123.181015
v 138.192596 302.765808 124.027534
v 132.563370 324.942291 135.793304
v 138.001343 305.556335 131.021072
v 130.904694 318.752411 131.974152
v 133.952042 326.958557 136.149490
v 142.422882 318.578735 132.697937
v 141.829086 324.957581 135.172882
v 130.712067 307.891479 127.098221
v 135.954147 328.963165 130.518341
v 133.900650 305.020813 129.685913
v 133.865219 329.440704 135.101685
v 131.043198 308.188599 130.419235
v 140.837708 306.537476 130.380814
v 141.623047 314.485138 132.987961
v 130.866043 325.871490 132.905289
v 141.689667 320.946533 134.600677
v 131.284073 320.828186 134.165054
v 131.908371 320.865479 134.845581
v 139.817123 306.220642 126.197830
v 140.504379 306.239532 127.851181
v 130.711121 322.881622 123.598312
v 135.951248 316.730988 122.563179
v 131.963303 310.290283 135.056564
v 131.128677 307.469177 133.027405
v 130.268265 312.187744 123.220474
v 139.366318 318.790283 123.677208
v 130.931671 316.832520 128.580154
v 129.621964 306.193359 123.883575
v 135.929581 306.186066 122.684067
v 135.862991 323.162781 136.149994
v 137.924988 326.911713 124.067200
v 140.049515 322.364349 135.857162
v 137.946472 320.834656 122.776711
v 141.409668 314.386719 130.536789
v 129.517761 310.264893 123.922493
v 133.909103 301.884064 123.903488
v 131.175629 310.207520 134.479095
v 133.902115 318.783905 122.531960
v 129.637665 311.429077 123.398567
v 133.987106 329.535431 134.547714
v 135.951111 318.783997 122.530823
v 138.005814 320.809845 135.700562
v 139.956833 314.389709 135.100082
v 130.795425 310.121582 130.398438
v 131.076889 326.271698 123.670151
v 135.957275 329.645294 134.487396
v 137.946304 324.894653 122.874641
v 132.776382 329.041229 135.267944
v 131.996017 306.389954 130.613983
v 140.724884 308.238617 127.775200
v 131.000610 308.140472 128.488495
v 139.937439 328.557220 130.626602
v 140.018387 328.714966 135.761414
v 131.858948 310.287689 122.627625
v 131.936386 326.919556 134.935486
v 130.790665 316.388397 131.547256
v 133.903061 324.896973 122.746941
v 141.175385 316.795013 134.403809
v 140.800568 310.322113 134.508179
v 135.923904 302.287445 123.090942
v 135.951645 307.554474 134.592819
v 130.813538 316.722961 132.929230
v 130.214630 308.258331 125.896584
v 141.010605 314.423462 134.380829
v 139.998993 314.389099 126.122917
v 135.945450 320.802948 135.726562
v 135.959412 326.225250 123.260307
v 135.947586 329.419373 135.164734
v 133.893738 307.568237 134.577850
v 135.952179 304.887695 129.739548
v 133.985275 323.066193 136.061630
v 140.147400 318.725494 125.857590
v 131.901382 324.897583 122.871147
v 130.767365 324.873901 123.572136
v 130.678314 314.389252 131.487717
v 137.941559 327.582733 125.597839
v 137.660202 306.186340 123.233673
v 139.957870 312.338867 135.109146
v 129.987564 302.273590 123.116707
v 132.585052 323.507965 135.747086
v 131.990128 306.965393 132.965454
v 140.735016 307.268738 132.808655
v 135.949905 322.884338 122.557961
v 137.995422 308.347137 135.064178
v 140.020065 324.953491 136.219101
v 133.900726 308.236176 122.525749
v 133.901138 312.337891 122.535080
v 140.338760 322.970825 126.110878
v 140.213608 320.751343 125.856102
v 130.891876 320.896729 127.020981
v 139.124176 304.390289 126.333504
v 141.376526 326.961884 135.719330
v 130.753326 316.135101 127.475426
v 133.905273 306.558197 133.030075
v 129.534439 310.297760 123.388298
v 133.897034 326.218231 123.266853
v 138.011566 328.007599 126.802216
v 141.477890 323.293518 135.613419
v 135.952118 314.388916 135.486755
v 130.824219 317.637970 131.913712
v 132.254761 304.714142 127.709076
v 135.951675 305.517944 131.038284
v 131.229004 324.942444 130.806488
v 141.688690 322.636078 135.217239
v 142.597214 322.343506 133.057449
v 130.251312 302.171173 123.193626
v 140.730347 307.859161 134.429352
v 130.316544 306.210144 125.640427
v 135.952164 316.732910 135.485718
v 140.797760 314.390991 128.445740
v 131.249100 314.324951 134.313705
v 129.561157 308.241486 123.927963
v 133.913864 326.988281 124.050209
v 131.860031 302.293274 123.075951
v 135.950897 320.835083 122.532219
v 131.132278 322.890503 130.783829
v 131.857727 301.953064 123.390282
v 138.000671 326.968048 136.305115
v 141.387466 324.949280 135.734634
v 133.904434 327.661835 125.566574
v 131.002808 318.737183 130.789001
v 133.912872 302.675781 125.655853
v 140.994278 320.820862 128.369583
v 137.617310 304.143768 123.295158
v 133.902512 316.732635 122.537186
v 130.686691 322.775055 125.306435
v 129.764267 304.161926 123.314674
v 133.902786 303.437622 126.869286
v 131.875839 326.177277 123.272675
v 140.865479 308.314087 134.476715
v 139.547913 322.890533 123.984100
v 133.908569 314.388458 135.390350
v 140.003189 310.294586 126.132370
v 133.930069 328.312836 128.524475
v 131.142090 307.853485 134.500839
v 133.900787 310.287170 122.526978
v 138.013611 304.179474 127.959663
v 129.656494 306.193726 123.387802
v 135.932251 310.287354 122.669327
v 141.910690 320.863342 130.671478
v 132.542374 327.937866 130.861847
v 135.951553 318.782745 135.535095
v 139.955154 305.916992 130.847641
v 131.928619 301.972687 123.801987
v 130.904572 316.633362 130.319550
v 130.724838 314.369568 132.890808
v 138.000854 316.732880 135.449921
v 142.191940 325.010345 133.015411
v 131.967697 326.747253 124.050529
v 130.121384 310.290588 125.889908
v 141.856430 326.881775 133.184937
v 130.983429 320.831635 132.002319
v 130.878647 326.180603 132.945480
v 133.900955 301.921417 123.394585
v 137.984146 326.213867 123.285110
v 137.707153 302.124695 123.809494
v 138.000610 312.338043 135.444962
v 131.013504 324.811554 126.807114
v 130.729355 312.333374 128.528625
v 137.928955 316.764191 122.829376
v 131.665451 327.186646 126.069084
v 138.898743 314.498322 123.927956
v 139.979782 307.644470 134.529480
v 132.291000 327.662872 128.484238
v 131.385605 307.137299 131.731995
v 142.496124 320.053650 132.343719
v 131.924194 308.343567 134.941376
v 141.301804 308.317322 130.517899
v 137.675797 310.292816 123.211777
v 138.011887 304.952179 129.696426
v 140.839584 312.347076 128.419937
v 137.666824 308.237122 123.221420
v 131.915710 316.732422 122.802040
v 133.901794 314.388763 122.545837
v 135.946548 302.650696 125.678452
v 140.695160 305.615540 129.475815
v 130.676056 310.288696 131.490921
v 131.864502 304.148560 122.702530
v 130.008133 306.185760 123.054436
v 139.719803 326.925171 126.152611
v 130.707184 320.830170 123.619431
v 137.997955 310.293335 135.378250
v 141.239136 308.392578 133.058411
v 130.016617 304.144073 123.064003
v 140.129456 316.730774 126.112061
v 131.897919 314.387207 122.767944
v 138.821487 312.359589 124.064308
v 129.835648 304.164673 123.877151
v 130.569351 304.237122 125.200165
v 131.216141 324.280823 134.282028
v 137.943085 322.884766 122.787491
v 131.988174 312.326385 135.016388
v 141.383316 326.920105 130.448318
v 130.632965 310.282379 127.512314
v 130.981766 320.801666 133.163223
v 140.822739 326.807892 128.314728
v 139.958633 308.341644 134.908081
v 139.991074 308.238647 126.126404
v 133.682236 322.205414 135.840836
v 131.384201 328.462830 132.865952
v 141.248322 329.041138 135.293274
v 131.914474 322.859924 135.175919
v 138.921524 316.813354 123.254745
v 131.747162 326.862274 128.477753
v 138.944382 324.924805 123.256630
v 130.756699 314.380371 128.518311
v 139.945541 306.794922 132.974487
v 139.948792 310.297607 135.075912
v 141.401093 310.284058 133.078400
v 141.921768 316.775848 132.852936
v 142.541809 323.051086 133.037170
v 133.937775 324.954163 136.209122
v 135.932190 301.884674 123.897186
v 139.761063 304.985657 128.018921
v 140.004013 318.790863 135.221298
v 130.991867 316.693878 123.298759
v 131.249741 322.851074 134.245163
v 130.810059 310.128632 128.571259
v 140.716156 327.788269 129.244537
v 135.951721 308.346100 135.078735
v 131.844437 302.974091 125.452812
v 130.652039 310.290314 132.912888
v 131.026260 322.884125 132.014984
v 133.916275 328.037231 126.809486
v 129.884583 302.527466 123.179741
v 133.902695 322.884766 122.555168
v 130.953415 324.919647 123.221420
v 137.951004 318.785767 122.773827
v 138.620789 303.463806 125.253654
v 132.592499 328.775879 134.945374
v 130.950623 322.915649 133.039658
v 130.723892 312.333374 130.467438
v 141.344467 312.394257 130.309525
v 130.188919 312.343689 125.862656
v 131.202362 312.222595 134.391388
v 139.467850 324.904968 123.907753
v 135.940140 314.389679 122.632370
v 140.539856 305.383453 129.096390
v 137.994904 328.446075 128.505783
v 137.998688 329.633972 134.487442
v 130.752899 317.327240 127.057716
v 140.973267 322.842438 128.189056
v 135.922287 304.149536 122.762917
v 135.952026 310.290833 135.427368
v 140.868164 306.199402 128.885437
v 142.409180 319.105957 133.241898
v 135.949799 327.748535 125.539474
v 130.828156 318.786957 127.038261
v 130.369247 314.387665 125.825775
v 133.900131 304.144867 122.633537
v 133.902054 320.835175 122.530159
v 140.040726 320.839111 135.465775
v 131.004135 318.789276 123.273102
v 135.952209 304.021484 128.071075
v 141.011688 327.154663 128.934814
v 137.996323 329.493622 133.027069
v 133.912735 316.732758 135.358597
v 131.944778 316.811676 134.826721
v 139.975693 316.734100 135.138779
v 135.952072 312.337982 135.488388
v 138.961304 318.785980 123.198212
v 129.627274 308.248352 123.393829
v 139.997681 305.268799 129.597748
v 129.814377 312.157501 123.775620
v 131.098557 322.893372 128.212051
v 138.839951 326.084686 123.470879
v 141.044540 324.950897 128.476105
v 131.220566 324.969452 128.271713
v 137.891449 303.582123 126.787300
v 135.953354 324.947388 136.353943
v 131.121765 326.101410 123.350609
v 140.012482 326.959534 136.174759
v 133.978806 328.657806 130.585129
v 131.913666 318.785065 122.793274
v 130.001236 308.236328 123.048073
v 138.553131 304.193115 124.216026
v 137.998611 323.309357 136.160751
v 130.849014 324.939331 125.645714
v 135.934509 312.338165 122.660416
v 132.396133 305.402222 129.420822
v 131.068665 308.277252 134.581314
v 133.900681 302.289398 123.054176
v 138.929352 320.830444 123.227135
v 141.740341 326.896027 135.203857
v 133.916641 304.141083 128.006256
v 130.954269 306.044678 126.826843
v 139.101837 326.331268 124.112579
v 141.567505 316.794708 130.589005
v 130.980972 327.029724 132.964142
v 138.003159 318.783752 135.505280
v 135.944870 301.923950 123.395340
v 138.765564 306.184998 124.194229
v 131.267471 316.540894 134.220154
v 132.085556 327.576172 126.938049
v 139.743744 327.596985 127.111008
v 130.869431 308.270172 131.551010
v 139.975021 312.330109 126.131340
v 141.682449 324.886963 130.493317
v 133.905624 312.337952 135.416840
v 137.994965 306.519775 133.060181
v 130.645355 314.389282 127.506516
v 135.951218 303.342285 126.938896
v 141.843140 322.841187 130.603119
v 130.946503 326.945099 132.964981
v 141.216187 328.708374 135.518036
v 140.844131 312.388824 134.489349
v 130.966232 326.818665 132.926178
v 138.832703 310.305115 124.140800
v 137.807846 314.460388 123.113007
v 141.753357 318.774994 130.539032
v 130.658829 312.339447 132.899780
v 130.743454 308.842316 127.463326
v 131.467041 306.203491 128.159851
v 130.851730 322.887726 126.508476
v 140.025894 329.371552 135.163849
v 138.003845 328.720673 135.798386
v 139.250290 316.679657 123.631828
v 141.439926 310.111359 130.714157
v 133.909470 318.788666 135.394867
v 130.681091 318.800781 123.854813
v 132.020874 314.375153 134.938019
v 131.011902 318.794769 128.524933
v 130.553741 316.649841 125.898979
v 132.798996 328.608307 135.498871
v 141.397766 328.827606 135.090225
v 131.083405 320.840027 130.782257
v 131.859253 306.185852 122.617279
v 130.905167 302.885651 124.760582
v 131.072983 320.877319 128.417877
v 130.671570 314.251862 123.304482
v 141.110947 311.435883 129.047134
v 133.904694 308.346863 135.070450
v 138.815292 308.239014 124.153442
v 130.747620 308.327484 132.936295
v 135.952545 306.479431 133.076782
v 137.600739 302.263153 123.359131
v 135.952316 328.521332 128.488144
v 140.927765 318.778198 128.392242
v 130.949478 320.839294 123.224197
v 130.341721 314.160400 123.778534
v 135.948196 327.014771 124.043541
v 131.246048 326.655975 125.303703
v 130.648758 318.767029 125.794823
v 137.526535 302.003510 123.445930
v 131.903107 320.835480 122.769829
v 131.664139 304.109253 126.407486
v 139.464890 320.960297 123.848831
v 130.944611 322.889191 123.213448
v 130.916687 318.725433 133.182251
v 131.912750 318.778168 134.775955
v 141.498672 312.381073 132.960709
v 140.271973 324.914673 126.207176
v 141.202042 328.331116 133.302444
v 130.715179 320.825043 125.791016
v 131.904373 322.884521 122.776199
v 130.153122 302.347626 123.533638
v 129.972961 310.264893 123.058090
v 138.001953 324.948944 136.353012
v 131.655624 324.969421 134.954895
v 138.002365 307.564575 134.583252
v 133.879333 320.830200 135.603745
v 140.057968 323.291901 136.067673
v 137.997940 328.925049 130.526901
v 135.956680 329.493530 133.026962
v 131.251038 318.711395 134.147675
v 130.590073 312.336731 127.522514
v 132.651581 326.950165 135.694870
v 140.065247 327.970398 128.507477
v 140.738251 310.344727 127.858284
v 133.980591 329.212982 133.094925
v 130.649612 312.338226 131.481293
# 401 vertices, 0 vertices normals

f 193 227 137
f 1 273 59
f 389 220 45
f 273 366 154
f 159 143 179
f 20 346 148
f 377 119 161
f 209 357 305
f 100 132 200
f 157 58 218
f 109 144 214
f 210 382 226
f 107 306 322
f 300 242 35
f 108 336 89
f 38 342 81
f 315 40 284
f 197 311 67
f 58 168 142
f 375 281 385
f 191 188 372
f 337 260 85
f 324 164 194
f 120 384 156
f 74 207 326
f 61 210 106
f 368 340 170
f 210 266 382
f 194 164 171
f 16 21 20
f 338 228 163
f 39 286 394
f 83 335 122
f 139 349 172
f 386 358 251
f 320 72 245
f 127 325 398
f 110 232 32
f 306 121 322
f 303 394 400
f 33 173 293
f 218 386 255
f 351 323 288
f 59 154 107
f 203 283 246
f 347 291 233
f 93 138 142
f 267 309 30
f 292 142 168
f 262 15 401
f 73 94 336
f 36 170 340
f 191 194 234
f 42 326 195
f 85 260 354
f 219 138 376
f 112 137 160
f 203 304 283
f 97 371 126
f 145 63 113
f 200 293 244
f 32 397 242
f 378 257 104
f 172 96 320
f 181 355 383
f 54 364 311
f 207 341 252
f 66 205 243
f 271 373 278
f 292 168 209
f 96 8 72
f 80 2 17
f 183 45 334
f 210 226 398
f 347 56 291
f 113 63 221
f 244 293 268
f 183 261 253
f 132 330 33
f 219 376 251
f 130 34 92
f 222 141 351
f 236 331 123
f 183 146 133
f 73 289 94
f 57 352 151
f 131 343 79
f 257 385 103
f 344 308 188
f 82 383 29
f 274 212 114
f 212 238 227
f 260 41 78
f 278 359 352
f 121 244 50
f 43 112 213
f 172 320 177
f 97 185 61
f 299 167 121
f 63 313 221
f 113 221 28
f 384 350 211
f 279 18 353
f 352 356 151
f 48 232 391
f 24 1 116
f 270 29 27
f 275 43 198
f 303 39 394
f 254 5 367
f 317 266 210
f 33 237 173
f 267 30 339
f 127 210 325
f 337 334 45
f 184 90 312
f 300 35 16
f 373 353 350
f 183 133 337
f 223 25 249
f 321 374 366
f 304 155 68
f 48 247 232
f 397 35 242
f 167 200 244
f 182 356 253
f 178 314 181
f 124 111 99
f 376 316 343
f 104 372 308
f 199 338 30
f 33 330 237
f 347 215 102
f 260 400 70
f 60 300 307
f 209 208 357
f 359 295 146
f 82 249 25
f 129 139 26
f 352 359 356
f 14 216 360
f 346 12 83
f 103 256 87
f 339 233 190
f 202 363 199
f 307 388 392
f 145 256 281
f 379 225 47
f 216 204 203
f 184 312 147
f 196 7 170
f 191 372 75
f 176 92 323
f 201 64 140
f 324 150 254
f 392 115 128
f 19 62 282
f 124 79 111
f 228 399 163
f 175 34 130
f 211 369 51
f 262 401 207
f 257 301 75
f 200 33 293
f 300 388 307
f 388 148 115
f 42 79 343
f 359 146 356
f 184 321 90
f 284 100 167
f 140 64 318
f 177 289 73
f 259 121 306
f 298 344 188
f 173 112 43
f 292 305 125
f 153 170 333
f 62 134 46
f 215 368 102
f 16 35 21
f 350 283 211
f 5 269 367
f 180 294 264
f 3 161 235
f 271 278 352
f 110 229 232
f 24 84 387
f 160 239 213
f 217 95 192
f 44 381 94
f 135 46 134
f 177 320 289
f 152 158 332
f 380 349 287
f 252 341 265
f 16 20 148
f 319 171 400
f 326 207 252
f 243 9 186
f 371 143 126
f 63 291 313
f 319 230 334
f 278 373 384
f 60 101 242
f 51 378 104
f 7 135 333
f 133 13 337
f 51 308 156
f 123 279 353
f 217 327 95
f 393 29 286
f 189 236 15
f 129 162 287
f 319 400 260
f 240 340 318
f 227 160 137
f 351 162 329
f 389 232 220
f 310 131 79
f 119 118 161
f 298 234 13
f 389 32 232
f 24 357 1
f 95 22 215
f 57 271 352
f 292 209 305
f 354 21 35
f 169 202 199
f 224 180 396
f 124 99 91
f 214 144 208
f 399 17 201
f 201 263 64
f 17 348 263
f 179 143 150
f 321 243 374
f 30 217 339
f 365 390 330
f 37 134 128
f 234 171 13
f 394 286 76
f 40 10 100
f 362 250 91
f 158 315 332
f 18 350 353
f 313 377 3
f 201 361 263
f 364 252 67
f 102 153 119
f 189 396 331
f 197 53 362
f 157 255 109
f 388 115 392
f 291 56 313
f 228 80 399
f 322 49 363
f 114 212 227
f 241 333 135
f 56 119 377
f 339 217 192
f 250 114 390
f 389 85 397
f 277 5 254
f 284 167 299
f 327 140 95
f 368 170 153
f 302 122 149
f 120 295 359
f 7 46 135
f 106 210 127
f 258 233 291
f 312 90 280
f 23 329 274
f 292 125 65
f 72 19 282
f 302 83 122
f 8 19 72
f 172 349 391
f 371 277 143
f 159 301 103
f 44 64 381
f 257 103 301
f 312 280 208
f 9 121 259
f 375 378 369
f 36 196 170
f 264 370 279
f 54 311 165
f 246 283 350
f 198 213 239
f 48 47 247
f 28 97 126
f 119 153 272
f 326 252 364
f 61 317 210
f 160 89 239
f 344 156 308
f 314 149 122
f 273 154 59
f 324 254 164
f 226 223 285
f 362 23 250
f 11 202 169
f 380 395 47
f 10 124 365
f 237 193 137
f 163 399 201
f 70 394 76
f 12 345 83
f 178 328 241
f 58 142 138
f 11 107 202
f 351 288 162
f 338 163 217
f 152 332 205
f 205 332 299
f 24 305 357
f 335 231 355
f 171 303 400
f 97 77 185
f 62 392 134
f 27 383 355
f 248 396 189
f 44 94 88
f 49 50 80
f 15 175 105
f 183 337 85
f 376 138 316
f 332 284 299
f 337 319 260
f 32 242 101
f 81 224 248
f 244 275 50
f 363 228 338
f 356 146 253
f 183 45 261
f 236 57 15
f 341 176 141
f 2 198 348
f 65 294 180
f 115 149 128
f 8 60 19
f 225 261 247
f 125 305 387
f 182 225 379
f 16 148 388
f 10 132 100
f 90 366 273
f 15 57 175
f 77 235 185
f 125 387 69
f 366 31 154
f 53 67 265
f 195 364 54
f 280 1 357
f 55 370 294
f 110 101 229
f 36 276 196
f 39 393 286
f 6 165 311
f 240 88 4
f 53 23 362
f 264 294 370
f 312 144 147
f 207 401 341
f 116 11 166
f 393 398 82
f 216 117 204
f 181 223 328
f 276 4 7
f 105 86 92
f 278 384 120
f 60 307 19
f 118 272 382
f 384 211 156
f 270 345 12
f 173 237 112
f 120 344 295
f 346 83 302
f 371 61 106
f 290 162 129
f 225 247 47
f 330 193 237
f 52 71 68
f 183 85 389
f 279 370 18
f 52 190 71
f 14 117 216
f 176 323 141
f 40 100 284
f 136 147 144
f 280 273 1
f 290 129 187
f 157 168 58
f 304 369 283
f 40 79 10
f 237 137 112
f 48 391 349
f 336 94 381
f 310 40 315
f 186 259 31
f 365 91 390
f 369 378 51
f 189 15 262
f 112 160 213
f 277 150 143
f 286 29 270
f 154 31 306
f 70 98 41
f 85 354 397
f 44 88 240
f 124 91 365
f 244 268 275
f 310 315 131
f 60 242 300
f 175 151 34
f 84 116 166
f 337 319 334
f 17 263 361
f 342 93 224
f 139 172 177
f 98 12 346
f 44 240 318
f 130 92 86
f 53 222 23
f 222 351 329
f 26 73 108
f 232 247 220
f 192 215 347
f 184 66 321
f 240 36 340
f 38 93 342
f 18 370 360
f 267 52 155
f 203 204 155
f 364 67 311
f 18 360 246
f 240 4 36
f 28 221 77
f 380 47 48
f 153 333 272
f 5 106 127
f 235 266 296
f 91 250 390
f 298 133 295
f 65 180 93
f 38 81 316
f 76 286 270
f 89 336 239
f 217 163 327
f 173 43 206
f 133 146 295
f 166 169 117
f 157 214 168
f 191 324 194
f 337 334 230
f 27 231 345
f 169 199 309
f 19 307 62
f 185 235 296
f 6 54 165
f 293 206 268
f 373 350 384
f 175 86 105
f 401 176 341
f 277 254 150
f 113 87 256
f 216 203 246
f 139 177 26
f 49 80 228
f 205 299 9
f 120 156 344
f 238 108 89
f 145 258 63
f 288 287 162
f 248 224 396
f 191 75 179
f 282 62 46
f 190 233 258
f 28 126 87
f 386 147 136
f 331 264 279
f 50 275 2
f 214 208 209
f 288 380 287
f 166 11 169
f 172 391 96
f 51 104 308
f 14 166 117
f 41 98 20
f 71 281 68
f 182 253 225
f 181 314 355
f 154 306 107
f 13 171 319
f 2 348 17
f 5 127 269
f 151 182 34
f 6 111 54
f 253 261 225
f 56 102 119
f 206 43 275
f 8 391 229
f 223 383 25
f 398 249 82
f 76 270 12
f 271 353 373
f 201 17 361
f 26 177 73
f 22 318 340
f 221 313 3
f 290 212 274
f 7 4 46
f 42 74 326
f 181 383 223
f 235 161 266
f 21 41 20
f 260 70 41
f 385 256 103
f 283 369 211
f 43 213 198
f 218 219 358
f 34 379 92
f 280 357 208
f 179 75 301
f 300 16 388
f 282 46 4
f 382 297 226
f 389 397 32
f 199 363 338
f 116 59 11
f 66 243 321
f 398 226 249
f 20 98 346
f 65 93 142
f 57 353 271
f 178 241 37
f 158 131 315
f 321 366 90
f 31 259 306
f 401 105 176
f 125 69 294
f 188 308 372
f 84 55 387
f 376 343 131
f 245 4 88
f 309 199 30
f 84 14 55
f 339 192 233
f 248 189 262
f 191 234 188
f 241 328 333
f 218 358 386
f 293 173 206
f 261 45 220
f 243 186 374
f 80 17 399
f 93 316 138
f 313 56 377
f 290 187 212
f 386 251 174
f 296 266 317
f 102 368 153
f 263 348 381
f 191 150 324
f 288 395 380
f 238 89 160
f 260 78 354
f 261 220 247
f 189 331 236
f 27 355 231
f 192 95 215
f 267 204 309
f 331 279 123
f 113 28 87
f 387 55 69
f 252 265 67
f 115 302 149
f 96 391 8
f 39 269 393
f 6 99 111
f 312 208 144
f 37 128 149
f 42 195 79
f 196 276 7
f 303 367 39
f 192 347 233
f 50 2 80
f 148 302 115
f 267 339 52
f 83 345 335
f 183 337 45
f 78 41 21
f 202 322 363
f 132 365 330
f 241 134 37
f 277 106 5
f 52 68 155
f 223 249 285
f 104 75 372
f 95 140 22
f 210 398 325
f 104 257 75
f 367 269 39
f 183 253 146
f 53 265 222
f 110 32 101
f 107 322 202
f 117 309 204
f 375 385 378
f 24 387 305
f 109 255 136
f 97 61 371
f 148 346 302
f 44 318 64
f 289 88 94
f 132 33 200
f 278 120 359
f 304 375 369
f 178 37 314
f 393 82 29
f 159 179 301
f 221 3 77
f 315 284 332
f 224 93 180
f 215 22 368
f 30 338 217
f 38 316 93
f 6 197 99
f 140 318 22
f 29 383 27
f 36 4 276
f 197 362 99
f 203 155 304
f 396 264 331
f 195 54 111
f 290 274 329
f 378 385 257
f 74 262 207
f 211 51 156
f 81 342 224
f 226 285 249
f 280 90 273
f 347 102 56
f 307 392 62
f 297 223 226
f 385 281 256
f 288 323 395
f 10 365 132
f 76 12 98
f 380 48 349
f 159 87 126
f 152 174 251
f 10 79 124
f 77 3 235
f 241 135 134
f 52 339 190
f 337 230 319
f 159 126 143
f 157 109 214
f 1 59 116
f 3 377 161
f 298 295 344
f 236 123 57
f 245 282 4
f 145 113 256
f 395 323 379
f 297 328 223
f 269 398 393
f 72 282 245
f 330 390 193
f 71 190 258
f 397 354 35
f 250 274 114
f 375 68 281
f 267 155 204
f 248 262 74
f 37 149 314
f 234 194 171
f 243 205 9
f 386 136 255
f 164 254 367
f 57 123 353
f 157 218 255
f 163 201 327
f 81 74 42
f 304 68 375
f 58 138 219
f 386 174 147
f 127 398 269
f 216 246 360
f 151 356 182
f 55 360 370
f 105 92 176
f 59 107 11
f 290 329 162
f 275 198 2
f 268 206 275
f 175 130 86
f 270 27 345
f 81 343 316
f 222 329 23
f 314 122 355
f 212 187 238
f 23 274 250
f 178 181 328
f 152 251 158
f 99 362 91
f 400 394 70
f 320 245 289
f 195 326 364
f 129 287 139
f 186 9 259
f 218 58 219
f 158 376 131
f 341 141 265
f 24 116 84
f 117 169 309
f 121 50 49
f 69 55 294
f 164 367 303
f 266 118 382
f 8 229 101
f 125 294 65
f 71 258 145
f 185 296 317
f 57 151 175
f 114 227 193
f 159 103 87
f 185 317 61
f 8 101 60
f 183 334 337
f 289 245 88
f 298 188 234
f 187 26 108
f 345 231 335
f 82 25 383
f 100 200 167
f 22 340 368
f 18 246 350
f 81 42 343
f 28 77 97
f 337 13 319
f 84 166 14
f 363 49 228
f 183 389 45
f 66 152 205
f 374 186 31
f 197 67 53
f 396 180 264
f 14 360 55
f 214 209 168
f 232 229 391
f 92 379 323
f 348 239 381
f 222 265 141
f 374 31 366
f 258 291 63
f 9 299 121
f 272 333 328
f 336 381 239
f 263 381 64
f 122 335 355
f 108 73 336
f 161 118 266
f 191 179 150
f 81 248 74
f 109 136 144
f 66 174 152
f 15 105 401
f 121 49 322
f 327 201 140
f 184 147 174
f 6 311 197
f 119 272 118
f 272 328 297
f 70 76 98
f 139 287 349
f 129 26 187
f 167 244 121
f 184 174 66
f 7 333 170
f 351 141 323
f 96 72 320
f 371 106 277
f 227 238 160
f 34 182 379
f 392 128 134
f 219 251 358
f 298 13 133
f 198 239 348
f 390 114 193
f 292 65 142
f 187 108 238
f 272 297 382
f 354 78 21
f 158 251 376
f 310 79 40
f 71 145 281
f 195 111 79
f 171 164 303
f 395 379 47
# 802 faces, 0 coords texture

# End of File