####
#
# OBJ File Generated by Meshlab
#
####
# Object domain165.obj
#
# Vertices: 707
# Faces: 1422
#
####
v 160.231415 284.488647 108.185890
v 158.228729 290.583557 113.126221
v 145.231110 314.839111 118.993958
v 154.300629 292.732361 113.277649
v 163.300354 303.279663 118.930771
v 162.620895 313.802338 107.615967
v 160.273499 324.361755 112.861816
v 154.117905 311.458893 122.487846
v 150.828247 303.264008 114.018341
v 147.711502 315.829010 117.093941
v 147.728806 303.244202 122.160042
v 164.476517 322.013458 117.148705
v 156.154068 326.564056 121.225143
v 152.894730 309.249329 113.736115
v 160.376251 317.919952 121.227180
v 166.806229 311.465515 110.486229
v 152.230637 324.676575 116.353119
v 148.292938 309.425934 115.794853
v 149.725082 311.458984 122.449036
v 145.181549 314.049103 119.004944
v 165.668152 301.226196 108.226135
v 161.895905 303.256958 120.315346
v 153.029663 292.965118 113.997208
v 165.100586 309.404755 115.586403
v 165.070587 307.356689 115.569420
v 163.066254 325.037048 118.940002
v 147.707962 299.547424 120.887764
v 153.541641 320.052338 114.055527
v 155.074600 299.163300 111.830101
v 154.117920 315.853943 122.490273
v 160.795151 317.776794 107.905327
v 165.730331 303.256134 114.110161
v 162.612747 291.545593 113.986565
v 160.285278 299.152924 107.646317
v 152.086960 303.253082 113.558090
v 154.118164 297.280579 119.245544
v 167.321686 318.071747 110.619980
v 160.313797 322.785950 109.709862
v 167.299881 315.693695 109.369423
v 149.295929 295.687225 116.873314
v 166.698227 321.855896 110.660454
v 164.617920 301.205414 107.762169
v 156.514633 313.586884 110.679146
v 163.202408 299.434631 119.237495
v 157.799133 285.754242 108.811951
v 158.692596 296.808777 107.973671
v 154.117889 295.963257 117.865974
v 152.067123 311.459045 122.499947
v 164.604675 296.807983 107.783157
v 158.692108 299.153320 107.972466
v 154.118042 305.305878 122.489807
v 147.929855 301.158813 117.292374
v 165.366226 288.606354 108.280884
v 146.459915 315.841675 118.061890
v 163.472672 309.418335 118.596725
v 164.550995 286.099976 109.231209
v 160.254669 285.919464 109.574593
v 152.028549 311.491516 114.292503
v 150.317841 294.814026 115.960068
v 157.616852 321.911865 110.667786
v 150.339630 317.776917 115.854614
v 162.627716 317.901642 107.670807
v 160.487198 321.776245 108.910851
v 155.215195 291.827454 113.396347
v 154.117691 326.351868 119.510925
v 147.690201 313.675476 122.144646
v 165.824997 311.461365 114.163963
v 160.350876 309.408081 121.139038
v 147.730347 301.207123 122.052872
v 146.624664 307.665283 117.920082
v 158.220871 295.950317 117.878700
v 146.646103 303.313446 119.831810
v 165.864761 322.815552 110.864418
v 146.933487 303.131653 118.797150
v 157.144272 288.689514 110.639862
v 156.962784 289.541351 111.757820
v 158.154434 305.274811 122.158371
v 160.292908 323.577667 110.957962
v 162.608444 286.923004 110.415314
v 154.117935 309.408020 122.489807
v 158.996552 313.802612 121.813690
v 156.161316 326.431946 121.607422
v 166.436890 315.846313 108.184769
v 166.398834 317.902588 108.202019
v 162.615128 307.357208 107.539200
v 145.714920 311.079498 119.805595
v 161.641052 311.459412 120.344231
v 156.927307 301.187134 109.297340
v 148.422989 325.968140 121.728058
v 157.977737 303.381195 108.365349
v 148.045166 321.858276 121.877235
v 159.042343 322.005585 121.864998
v 160.264908 325.662750 117.527657
v 164.635330 307.357544 107.712173
v 158.317108 317.872528 109.136070
v 166.661636 305.413055 110.443146
v 165.734406 292.727661 112.482773
v 164.628784 322.623291 109.261131
v 162.608536 319.960114 107.804886
v 165.542267 284.588013 108.118958
v 167.136917 317.921356 108.854179
v 163.101151 317.342224 119.713158
v 158.685913 301.202454 107.963661
v 162.615479 311.459290 107.574814
v 157.862762 294.757477 108.384857
v 164.586884 284.845032 108.496437
v 161.864151 301.214355 120.271957
v 160.284714 301.203857 107.645378
v 165.052826 305.305664 115.560471
v 149.743774 325.943665 121.932182
v 164.223404 307.364624 117.251572
v 152.067719 325.937683 121.977531
v 152.003693 313.861572 114.565361
v 149.886627 299.183289 115.238022
v 156.169022 297.277130 119.248604
v 149.723801 307.357178 122.470718
v 158.665588 321.850891 109.644188
v 152.370560 307.210907 113.715858
v 156.377243 291.104431 112.640198
v 159.140366 303.206818 121.953949
v 159.041519 310.780487 108.009682
v 162.658356 307.372192 119.584953
v 162.507874 325.383301 117.556175
v 162.615173 284.844757 108.628426
v 151.089844 299.183716 114.305412
v 156.162750 307.357056 122.403282
v 145.975372 309.611206 119.351807
v 149.732513 319.955994 122.372452
v 164.178925 301.196442 116.898743
v 149.782394 301.107971 114.937172
v 149.738190 299.212280 120.970314
v 153.550308 317.905914 114.058891
v 152.067566 300.350403 121.910095
v 167.259018 319.951477 108.903107
v 162.614090 284.738007 108.036888
v 165.962296 294.622864 110.395164
v 145.226547 314.765991 118.994972
v 165.344177 286.667145 108.441315
v 159.018356 324.028442 121.802551
v 166.047699 311.484528 108.224709
v 163.222061 299.273346 119.244568
v 149.473709 319.978760 116.693977
v 166.010513 307.366821 108.245926
v 162.614044 292.707062 107.553215
v 155.729553 319.951538 112.284752
v 166.489716 309.416016 108.792343
v 148.968796 325.032654 118.542740
v 158.203995 299.185394 120.993317
v 160.240417 286.879333 110.431442
v 156.174911 292.778076 114.924553
v 162.666183 313.804657 119.637543
v 146.600784 305.381348 121.315620
v 160.213547 325.764832 119.460182
v 154.117935 299.115295 121.057907
v 160.364792 324.011963 121.117943
v 158.225540 287.167297 110.223518
v 158.216934 297.325104 119.201477
v 166.194733 299.135345 110.514343
v 146.449036 317.795959 119.156639
v 148.836548 299.109528 116.493889
v 149.725815 313.802643 122.428833
v 156.011292 296.808685 110.528305
v 164.626465 305.306793 107.737198
v 164.589386 288.606262 107.819061
v 162.824005 315.774567 119.693039
v 147.110336 301.350159 121.707466
v 160.527298 315.728577 107.905884
v 160.285309 296.808563 107.646133
v 158.212173 324.853882 114.521538
v 165.703583 296.941162 108.611496
v 152.067001 309.408081 122.499992
v 146.291138 309.503906 121.121719
v 159.522903 284.436951 108.014595
v 162.613846 299.152771 107.557579
v 156.092880 301.267975 110.527626
v 166.749374 309.412476 110.482414
v 163.314148 300.380432 119.231201
v 162.608215 284.634918 108.170883
v 157.333527 315.873352 109.704201
v 148.505157 313.519409 116.172211
v 164.079147 303.206787 117.288498
v 152.073532 305.307678 113.638763
v 167.557205 319.292877 109.936600
v 147.018997 303.658661 121.842522
v 166.421051 305.230286 108.953384
v 167.267319 319.925720 110.759697
v 165.152206 311.374481 115.573723
v 158.263794 323.220093 111.071892
v 158.230759 326.110291 119.564934
v 164.600159 293.019135 114.458443
v 151.447861 296.772369 114.420837
v 150.519028 319.106659 115.893120
v 164.747314 296.815277 115.341888
v 162.356750 325.475037 119.351608
v 147.676697 324.074463 119.195122
v 167.013367 321.656311 109.438187
v 160.284912 294.757904 107.646149
v 163.372131 305.327637 118.778717
v 154.117752 319.956055 122.483955
v 160.319992 320.051483 108.350258
v 160.367584 315.855042 121.184250
v 160.462189 322.022980 121.267220
v 164.639191 319.918335 107.836708
v 156.175400 300.340210 121.927200
v 147.045288 315.849670 121.668571
v 154.162567 325.015686 115.908012
v 157.872849 325.955566 121.793793
v 164.030060 323.941071 117.071686
v 149.284409 295.690735 116.873680
v 166.335037 301.010651 110.481812
v 162.796585 298.082001 119.248299
v 156.260437 305.303223 110.532227
v 163.295868 300.044678 119.240494
v 156.198639 303.253906 110.479019
v 157.380386 287.445679 110.032181
v 146.741364 319.663452 119.373138
v 158.999863 309.407379 121.820747
v 163.577377 319.836029 119.249290
v 146.464905 313.788300 117.873405
v 159.062988 305.336609 121.904938
v 148.140686 321.836060 117.956718
v 156.162048 313.802856 122.397095
v 152.069885 297.338287 119.194458
v 147.995575 299.035278 117.547371
v 149.795242 315.810059 115.809792
v 156.191238 324.645081 114.654564
v 161.124054 319.435883 107.999802
v 149.723633 309.408234 122.472237
v 148.342133 307.375549 115.787285
v 152.067108 307.357208 122.499985
v 158.848740 318.076355 121.866180
v 156.161469 315.853546 122.392715
v 163.928696 296.838867 116.350624
v 147.791153 317.952698 117.429970
v 162.613922 296.808716 107.556931
v 154.169174 292.903137 114.803169
v 152.067276 303.256897 122.460175
v 160.274780 311.468231 107.779465
v 146.943085 321.763916 119.589714
v 154.525894 319.882294 113.364700
v 164.422958 313.630951 117.236664
v 156.161896 322.006927 122.389977
v 150.810944 304.634491 114.010612
v 160.292404 288.606201 107.679062
v 155.076309 296.808777 111.807114
v 152.067200 317.904755 122.491165
v 154.084259 303.277832 112.780235
v 147.112930 297.795349 119.107536
v 152.067612 322.007050 122.473679
v 165.357864 296.865662 108.153320
v 165.915436 292.448608 110.357536
v 147.221115 319.911102 121.567375
v 151.035370 294.133606 115.268318
v 163.177597 299.200714 119.251770
v 149.921875 313.691925 115.400230
v 154.117981 307.357147 122.489838
v 148.521927 305.408325 115.718826
v 156.361954 323.680634 113.229942
v 160.353271 313.803192 121.144241
v 152.121109 325.519745 117.642189
v 156.160370 319.956116 122.393127
v 158.420425 311.513428 108.441803
v 162.332336 324.011261 120.068504
v 154.065063 294.767883 112.905693
v 147.796631 315.844269 122.058456
v 147.475037 322.169586 118.704338
v 159.009445 307.353088 121.833916
v 151.860001 315.875671 114.824036
v 153.963028 324.140594 114.721329
v 148.701370 301.232239 116.109070
v 161.662109 313.807892 120.379463
v 160.270508 325.292053 115.774368
v 155.182755 303.278870 111.921600
v 162.577698 325.085419 115.817169
v 146.972183 323.569733 119.999405
v 160.289474 290.656403 107.655991
v 157.858276 299.152832 108.381889
v 153.960602 307.367432 113.065468
v 160.273666 288.092194 111.409920
v 157.743912 285.896545 108.814896
v 158.129913 322.014099 122.133179
v 164.443832 323.855896 114.810745
v 150.261642 296.843506 115.466660
v 166.211334 303.274017 112.732224
v 163.464767 324.866547 117.577644
v 156.630417 315.944489 110.735748
v 163.730911 324.555145 116.046570
v 162.631439 311.461914 119.580826
v 154.059204 293.997894 115.889618
v 165.381760 289.520264 111.762146
v 157.126938 305.278015 109.318794
v 147.811218 317.901703 122.027367
v 149.924194 324.004272 117.304214
v 149.741806 297.469299 119.111633
v 158.687469 294.762695 107.962372
v 158.389893 313.769684 108.763046
v 156.144287 292.719391 110.586800
v 151.869965 319.940155 115.163078
v 160.309555 286.568787 107.774918
v 160.410965 319.960266 121.257675
v 160.371033 307.364716 121.179886
v 148.268417 311.208771 115.965538
v 166.719162 307.364319 110.477242
v 147.720596 305.310394 122.235832
v 156.166321 305.304626 122.429520
v 154.000626 309.406006 113.168465
v 165.703918 292.705078 108.800880
v 158.827560 319.867737 121.900879
v 165.343094 292.827576 113.825989
v 160.225296 297.497498 118.995064
v 146.933105 311.418121 121.785210
v 166.169205 322.209351 109.299339
v 152.067810 301.253784 122.240295
v 156.168976 295.936798 117.892380
v 164.172165 305.307281 117.270874
v 149.754715 324.042572 122.229179
v 149.079025 295.843170 117.009407
v 162.614120 288.605896 107.564011
v 148.770416 315.877625 116.401886
v 147.536362 324.048126 121.080559
v 149.702362 326.473724 121.582207
v 154.118118 303.256256 122.468994
v 165.403015 290.898651 112.430145
v 149.728607 315.853546 122.409355
v 149.727768 300.361359 121.894859
v 154.117355 324.048920 122.384209
v 154.382721 317.904236 113.461105
v 160.283066 284.666565 108.028038
v 146.440750 307.459656 121.146996
v 165.428818 323.014709 113.858017
v 152.100220 301.206604 113.574043
v 160.286560 292.707489 107.647636
v 164.636795 309.407867 107.705246
v 162.614685 303.255371 107.542976
v 152.392120 296.900574 113.764877
v 156.169281 325.807648 117.503380
v 147.577606 303.267273 117.380219
v 147.042419 307.259277 117.174744
v 154.117859 322.006958 122.480690
v 154.116486 325.726105 117.525894
v 158.011368 292.593628 108.340134
v 152.067032 305.306030 122.500008
v 167.026917 314.345337 108.496925
v 160.294418 296.069153 117.750160
v 149.730362 317.904816 122.393585
v 154.116486 326.593658 121.205879
v 146.961136 323.590515 120.388496
v 158.152161 324.072205 122.082436
v 166.556259 311.517120 108.802353
v 158.221191 325.773834 117.511765
v 160.270935 289.091034 112.194023
v 146.908249 307.356812 121.837959
v 151.972504 321.991425 115.273148
v 165.394562 294.769806 113.994385
v 166.456345 307.390106 108.798973
v 156.894241 296.807465 109.295197
v 152.085159 299.182404 113.675056
v 165.416428 289.380280 111.568298
v 162.575394 324.747192 114.555237
v 163.782379 301.190674 117.897011
v 165.766052 305.306152 114.127335
v 165.643250 301.223999 114.069031
v 158.268890 324.158508 112.940483
v 161.900665 305.300568 120.294685
v 165.807739 303.382660 108.222542
v 166.408142 313.887054 108.194962
v 165.317703 315.853424 115.532684
v 164.934906 301.203308 115.484604
v 164.612320 291.708496 113.755707
v 156.697525 317.864563 110.851974
v 166.023193 309.407043 108.235016
v 158.202179 291.546295 113.971367
v 166.024551 299.180145 112.467506
v 165.925659 296.813385 112.474991
v 155.128784 294.741425 111.860641
v 161.892792 315.965942 120.352242
v 147.747406 311.440125 122.202103
v 158.158020 307.355133 108.407509
v 165.898575 319.954437 114.207672
v 162.625870 324.314178 112.894531
v 162.613068 285.894348 109.616859
v 160.357620 305.280243 121.249435
v 164.609924 294.757324 107.771217
v 158.990250 315.845093 121.809280
v 146.781296 317.254669 118.236855
v 157.412094 316.957336 109.782509
v 166.938232 313.738281 110.788910
v 160.375946 313.790131 107.918144
v 165.713501 290.640625 111.449471
v 162.158371 325.320343 119.750168
v 166.319061 307.358276 112.740028
v 157.260956 311.422974 109.464836
v 152.082672 295.099457 116.670311
v 153.526230 315.860352 113.991837
v 149.864792 305.274628 114.569672
v 146.763458 319.882843 120.800064
v 156.160629 317.904083 122.390450
v 151.343872 307.553619 114.086067
v 158.121994 290.658813 108.355751
v 154.118164 325.939392 121.982956
v 165.404510 290.653503 108.269142
v 163.634460 315.897400 118.791985
v 157.856995 296.809296 108.380264
v 166.400848 319.920563 108.256477
v 156.315979 309.406403 110.557678
v 166.338226 309.408600 112.745087
v 146.707596 303.429230 121.194763
v 156.177017 326.328278 119.527809
v 156.024689 299.152588 110.532997
v 160.269257 294.888824 116.803673
v 152.056763 296.053436 117.782295
v 158.806412 292.902985 107.950897
v 156.174988 325.219086 115.804260
v 161.646179 309.405762 120.351562
v 160.291092 307.357300 107.668503
v 156.891891 294.758057 109.289665
v 166.048508 301.266327 108.721687
v 162.404495 318.067719 120.255287
v 160.269897 293.892822 115.982887
v 148.294373 324.026886 121.795860
v 155.449554 317.923370 112.461235
v 150.085342 325.129883 117.987404
v 165.847778 294.762970 112.469391
v 154.536240 323.757690 114.168297
v 146.235428 307.451111 119.277039
v 162.639053 292.794647 114.921700
v 146.571304 317.822296 120.662430
v 162.614487 301.203766 107.542542
v 151.894989 309.533417 114.106537
v 155.455124 315.787964 112.332695
v 158.220520 325.303192 115.772148
v 158.811050 322.654510 110.049095
v 165.919708 305.333801 108.284889
v 163.376556 318.842133 119.623878
v 162.997009 321.490448 108.170593
v 146.253067 313.606781 120.987038
v 162.614212 294.757843 107.545921
v 155.110855 309.411804 112.246094
v 150.858810 294.272766 115.401871
v 165.899323 299.253967 108.748581
v 165.681259 290.661591 108.780136
v 165.531769 288.645508 108.717751
v 156.552567 290.780426 110.579674
v 149.731964 301.255920 122.210876
v 164.622299 317.905731 117.209541
v 162.819870 305.308105 119.477577
v 146.485916 311.442169 117.839081
v 147.722366 309.406769 122.233566
v 158.749557 303.137817 107.981606
v 160.056824 325.364746 120.538864
v 162.506317 319.926727 120.205856
v 162.629425 288.129547 111.364037
v 156.929657 322.031830 111.429420
v 151.222534 294.063995 115.172981
v 166.443924 313.790863 112.756874
v 160.289825 309.404663 107.684586
v 149.726028 303.258362 122.415047
v 152.309601 323.951416 115.691643
v 149.724045 305.306213 122.465431
v 165.313339 319.956482 115.530540
v 165.015137 288.589417 110.716423
v 162.833298 303.254059 119.502419
v 147.140900 317.893890 121.610443
v 160.270935 290.500610 113.243767
v 159.014389 288.611023 107.987434
v 150.913834 305.630493 114.053642
v 146.564789 305.361786 119.401299
v 154.117905 313.802765 122.487846
v 166.031418 296.814728 110.504417
v 146.254211 315.871765 120.722130
v 165.909302 315.854370 114.213158
v 148.074677 300.461121 121.781319
v 147.182877 320.295319 118.555855
v 166.498001 303.274872 110.496140
v 159.505768 316.144928 108.236519
v 145.812225 311.622101 119.297890
v 165.665573 294.638184 108.554764
v 147.374481 305.266083 117.324455
v 153.433472 322.022186 114.273262
v 148.512299 326.094666 121.736839
v 166.140549 301.191467 112.537262
v 164.375183 311.499695 117.169174
v 147.316010 322.146698 121.304718
v 157.440643 320.079803 110.312836
v 158.274323 315.779663 108.932266
v 154.079147 301.197876 112.725708
v 158.995895 305.294098 107.955017
v 158.304291 288.256165 111.239075
v 154.118973 326.449921 121.612762
v 160.270706 291.513428 114.028198
v 149.972580 295.005127 116.164963
v 158.219971 293.877319 116.001450
v 165.795059 309.408966 114.142296
v 162.614731 309.408173 107.543640
v 157.164062 307.354553 109.354973
v 165.872604 313.803955 114.195747
v 165.325516 286.548340 108.247887
v 163.333603 323.982635 119.040741
v 147.505692 313.915253 116.902847
v 167.562012 318.817322 109.938225
v 149.669418 322.003418 116.876671
v 146.894272 321.615051 120.620605
v 154.002594 311.447723 113.374367
v 154.217606 322.010529 113.691162
v 164.603287 319.956360 117.206879
v 158.125671 307.355835 122.128632
v 157.294952 313.450867 109.682854
v 155.071457 305.367767 112.135544
v 154.020981 305.250427 112.933228
v 160.347260 311.459106 121.134361
v 156.166077 303.256531 122.418686
v 160.290741 305.305939 107.664871
v 163.704651 299.064911 117.439957
v 164.635254 311.459167 107.716713
v 159.051697 300.422913 121.782898
v 156.169434 293.894348 115.982086
v 154.307800 313.794495 113.357353
v 158.235016 289.173767 112.058266
v 160.458710 303.262817 121.299240
v 149.741409 322.005707 122.330498
v 155.885574 322.021881 112.553696
v 167.155289 315.828217 108.771103
v 164.502640 323.817535 112.900894
v 146.998352 302.425629 121.789795
v 164.589386 292.707581 107.814102
v 165.403442 292.681671 108.262138
v 164.655457 321.608734 108.303291
v 163.771317 295.139709 115.959213
v 162.559448 294.040100 115.792336
v 165.008194 303.253113 115.538155
v 157.871902 301.202545 108.390892
v 163.426727 307.492554 118.629425
v 163.503601 311.481110 118.591400
v 154.358810 315.856781 113.427086
v 158.181488 309.404266 108.423790
v 147.131821 297.854950 119.094170
v 149.822845 307.340607 114.737976
v 164.703934 284.594360 108.128357
v 158.352737 326.105347 121.371521
v 149.860657 309.372803 114.874146
v 164.133911 299.318085 116.644974
v 152.067108 319.955994 122.490540
v 149.500748 295.464691 116.629860
v 162.548676 294.984253 116.485680
v 167.401352 317.587158 109.527100
v 162.608994 289.120544 112.155159
v 164.591293 290.655762 107.814011
v 162.612671 323.655426 110.914078
v 154.323547 292.220795 113.842834
v 165.735275 321.974121 114.122910
v 165.303680 291.914520 113.487000
v 164.548782 315.855865 117.184181
v 158.136719 305.304779 108.386795
v 159.008499 307.358185 107.970337
v 155.073212 307.369812 112.200790
v 157.402451 318.221497 110.050446
v 149.759781 311.451172 115.164894
v 162.614212 290.656219 107.553993
v 156.186768 291.784698 113.798668
v 162.620224 309.407166 119.572296
v 156.167236 299.119629 121.054634
v 157.936401 320.045746 122.125786
v 156.162018 311.458923 122.396355
v 150.933441 301.309174 114.129700
v 160.138748 299.448303 120.724213
v 157.754578 285.895508 108.811668
v 152.068634 324.047760 122.369102
v 154.004898 299.169495 112.730415
v 154.119858 294.902588 116.794601
v 166.476852 319.947693 112.777550
v 167.364120 320.257080 109.489456
v 161.755737 299.318756 119.984528
v 165.783264 307.357300 114.135239
v 156.924545 319.902954 110.920685
v 164.645309 317.902130 107.697556
v 160.269424 324.926819 114.501968
v 158.989975 290.664642 107.936844
v 158.187729 301.236298 122.188179
v 161.741669 307.171173 120.324554
v 153.474701 313.722229 113.874985
v 160.286499 303.255066 107.651024
v 152.046005 317.901276 114.905807
v 157.187302 309.400970 109.372253
v 158.176941 303.244354 122.255043
v 148.587433 323.836029 118.137741
v 164.585220 286.565826 107.863159
v 160.404190 301.211243 121.200928
v 147.227600 311.613220 116.899658
v 167.146866 315.840210 110.784691
v 166.590408 317.874176 112.626137
v 165.922836 317.904419 114.219002
v 157.411301 288.676697 109.377937
v 146.914871 299.074738 119.685226
v 165.537750 299.158478 114.066002
v 157.976044 317.789581 122.115334
v 158.986557 309.408325 107.949394
v 164.601959 290.710968 112.949165
v 156.393661 311.457214 110.616592
v 156.024261 294.758087 110.536819
v 158.514297 319.929108 109.364372
v 165.144241 321.997467 115.444016
v 164.578842 323.389221 110.974319
v 154.118423 301.251099 122.250298
v 166.334366 321.525909 108.575874
v 164.853531 299.152802 115.425713
v 158.119232 315.851471 122.106705
v 146.928558 305.313354 121.860710
v 165.448532 323.174103 112.495811
v 155.371063 313.888214 112.303551
v 146.487869 309.418823 117.822639
v 164.258057 309.400238 117.247261
v 158.995361 311.458801 121.810760
v 149.787399 326.530548 121.286591
v 158.209625 288.615204 108.456787
v 164.585022 289.366150 111.929741
v 152.070053 326.579346 121.203499
v 156.169449 301.248322 122.257133
v 147.152161 309.407745 116.911736
v 152.067123 315.853882 122.491127
v 156.930450 292.716400 109.341232
v 153.395569 292.620850 114.001518
v 167.002182 313.790527 108.737953
v 166.282455 305.309570 112.737419
v 146.985733 313.912872 121.739792
v 165.542725 284.755646 108.118088
v 154.117859 317.904907 122.485405
v 165.545181 299.193970 108.255768
v 153.991669 296.807190 112.791039
v 147.091156 299.639282 120.384071
v 166.353500 311.461090 112.749466
v 165.743942 290.633514 110.511276
v 163.496918 321.986786 119.109535
v 162.614853 305.306091 107.544617
v 156.902634 299.151703 109.299919
v 158.219940 292.710266 114.996117
v 149.317505 318.043060 116.471588
v 147.033508 297.924255 119.066284
v 156.158371 324.045502 122.314476
v 148.602234 303.539001 115.857834
v 166.525620 315.931030 112.714401
v 162.730225 322.851440 109.372749
v 165.896866 292.899261 111.047218
v 164.633713 284.675598 108.030113
v 157.860703 326.253021 121.636040
v 159.193375 284.708649 108.127113
v 152.067123 313.802734 122.495636
v 148.269089 325.264618 119.711937
v 158.117538 313.803162 122.097641
v 152.062424 326.434113 121.606415
v 152.072403 326.247833 119.541603
v 158.207611 300.335144 121.941093
v 157.102585 290.770905 109.388313
v 159.146683 301.219330 121.957817
v 160.272629 284.781036 108.628601
v 164.566040 287.173828 109.964981
v 160.271866 292.713135 114.993034
v 155.110107 301.231232 111.879593
v 147.739868 319.813599 117.900696
v 162.614777 290.519165 113.218529
v 164.648056 315.854401 107.676170
v 162.317108 322.099670 108.545319
v 163.565857 313.728241 118.658279
v 157.110733 303.242859 109.208252
v 164.510696 294.651306 115.225990
v 156.147980 325.940308 121.961136
v 165.277924 313.797974 115.514641
v 147.104141 301.208954 118.822655
v 158.220047 294.844971 116.855476
v 163.664627 318.032715 119.190674
v 165.338409 317.904694 115.542351
v 158.118713 311.458618 122.102173
v 148.261383 325.825562 121.366821
v 166.227036 321.884766 112.522636
v 154.119263 300.343933 121.923485
v 149.726974 303.215454 114.764778
v 156.287781 307.356995 110.543007
v 162.621307 315.853729 107.612602
v 162.779205 296.768005 117.234329
v 146.011917 311.353973 120.775955
v 166.222870 303.447021 108.712578
v 159.106308 286.567047 108.082199
v 162.415298 322.009003 120.180260
v 149.822281 325.976135 119.679657
v 156.162567 309.408051 122.401901
v 152.697281 294.864197 113.885277
v 165.475525 296.810791 114.045120
v 146.865189 309.397736 121.851570
v 157.479355 323.327698 111.945831
v 166.915787 321.567596 108.966980
v 159.770569 318.001648 108.338074
v 156.168793 294.848083 116.852280
v 153.165817 311.514404 113.838661
v 147.836319 319.938751 121.978828
v 146.842651 301.224365 119.851158
v 165.420654 284.531982 108.088478
v 164.626968 303.255341 107.736893
v 157.742813 285.909729 108.813583
v 158.120544 309.407684 122.108589
v 164.601654 299.154205 107.798759
v 147.722443 307.357574 122.242180
v 155.160095 311.477509 112.290459
v 155.408585 292.613098 112.086151
v 162.614716 286.567322 107.666367
v 152.068146 299.128967 121.042336
v 165.373825 294.710846 108.137230
v 164.644745 313.803192 107.692619
v 146.856766 301.222046 121.130020
# 707 vertices, 0 vertices normals

f 615 597 290
f 326 638 242
f 409 634 175
f 602 73 608
f 354 686 423
f 548 523 380
f 686 374 423
f 147 647 195
f 171 80 256
f 328 645 173
f 467 72 74
f 239 216 473
f 440 158 210
f 558 547 144
f 274 285 123
f 202 682 451
f 281 348 139
f 462 446 198
f 613 616 649
f 538 695 100
f 282 601 12
f 512 415 554
f 397 261 595
f 63 661 641
f 186 134 183
f 407 524 166
f 88 277 531
f 511 305 584
f 655 461 138
f 704 133 154
f 149 280 156
f 163 433 94
f 24 187 493
f 407 166 707
f 552 445 670
f 422 650 683
f 191 335 125
f 222 648 671
f 490 635 656
f 188 7 363
f 258 169 226
f 574 484 60
f 442 631 441
f 482 662 241
f 534 430 327
f 236 150 559
f 197 168 46
f 221 473 658
f 46 168 50
f 507 485 179
f 106 56 625
f 482 666 187
f 391 406 303
f 216 658 473
f 168 437 235
f 541 368 605
f 126 684 506
f 78 548 380
f 452 461 655
f 308 300 15
f 149 156 488
f 375 599 245
f 495 583 405
f 367 471 496
f 282 12 208
f 209 283 114
f 657 409 175
f 507 296 485
f 1 697 654
f 237 322 603
f 596 121 262
f 67 630 406
f 526 307 477
f 217 698 612
f 71 344 410
f 523 608 282
f 81 648 384
f 444 11 457
f 461 290 358
f 704 154 36
f 553 449 487
f 504 521 424
f 206 413 336
f 612 81 510
f 316 567 249
f 549 64 4
f 263 26 498
f 635 492 419
f 590 570 37
f 199 339 261
f 184 11 524
f 461 631 442
f 332 144 197
f 113 580 268
f 282 608 330
f 540 429 557
f 131 325 704
f 176 146 355
f 636 142 234
f 705 477 250
f 143 355 371
f 1 328 173
f 673 41 186
f 314 115 71
f 450 153 194
f 269 424 226
f 583 392 598
f 531 50 103
f 154 674 561
f 216 159 658
f 403 46 277
f 654 280 57
f 294 131 223
f 259 271 87
f 351 464 546
f 450 194 390
f 547 53 401
f 161 265 324
f 370 386 556
f 555 676 438
f 622 39 522
f 167 6 677
f 436 624 66
f 280 681 614
f 132 298 582
f 468 563 8
f 611 187 24
f 610 618 588
f 28 327 240
f 495 378 583
f 393 569 289
f 332 558 144
f 25 24 573
f 28 504 479
f 624 265 66
f 132 534 327
f 382 301 364
f 329 172 687
f 274 282 287
f 396 252 463
f 111 611 24
f 454 289 236
f 352 700 304
f 461 442 138
f 464 490 33
f 158 373 210
f 315 111 25
f 68 414 579
f 271 165 151
f 637 248 629
f 407 607 184
f 322 51 511
f 204 617 651
f 34 108 103
f 181 5 198
f 353 501 142
f 160 130 270
f 190 664 309
f 566 697 45
f 35 486 247
f 573 493 391
f 1 654 178
f 300 92 202
f 607 352 304
f 57 149 79
f 361 573 623
f 93 123 194
f 252 91 693
f 18 338 229
f 691 668 492
f 301 579 364
f 663 90 291
f 44 213 177
f 293 501 458
f 65 650 260
f 48 646 8
f 605 594 686
f 68 612 510
f 435 98 641
f 19 161 48
f 468 646 619
f 94 143 333
f 274 287 285
f 400 112 649
f 144 547 525
f 350 153 189
f 206 226 413
f 181 198 315
f 397 595 606
f 244 703 318
f 30 246 626
f 318 586 164
f 493 67 406
f 38 641 548
f 400 665 638
f 130 125 357
f 425 610 127
f 410 544 529
f 152 352 607
f 371 146 140
f 367 670 471
f 444 457 313
f 317 543 40
f 291 553 495
f 104 514 6
f 370 484 574
f 4 119 702
f 329 352 152
f 131 704 223
f 515 651 578
f 276 318 558
f 452 546 615
f 441 251 307
f 340 336 408
f 22 364 446
f 612 698 671
f 565 515 587
f 269 458 353
f 637 593 248
f 368 530 362
f 519 22 107
f 289 516 236
f 443 652 297
f 275 195 320
f 280 645 681
f 273 175 214
f 255 268 225
f 137 3 54
f 323 97 642
f 546 659 615
f 346 82 489
f 41 196 571
f 138 442 53
f 687 172 311
f 325 472 69
f 279 488 351
f 557 429 58
f 430 43 286
f 263 390 26
f 359 282 274
f 360 177 181
f 364 579 122
f 279 546 452
f 332 295 412
f 167 677 31
f 701 405 598
f 102 669 402
f 490 2 372
f 699 250 627
f 21 440 417
f 200 99 63
f 678 513 233
f 459 342 237
f 420 483 320
f 396 502 252
f 339 567 326
f 14 278 306
f 675 564 9
f 179 95 386
f 203 404 527
f 318 164 558
f 235 383 49
f 71 157 344
f 696 21 365
f 149 279 79
f 424 521 258
f 137 20 3
f 597 551 323
f 422 260 650
f 273 214 508
f 550 608 673
f 631 251 441
f 634 403 277
f 404 134 604
f 118 509 278
f 565 148 651
f 239 266 195
f 530 32 362
f 255 58 113
f 517 609 534
f 58 692 580
f 368 362 594
f 703 643 586
f 682 263 498
f 200 31 227
f 293 422 147
f 151 165 662
f 328 135 299
f 646 324 619
f 395 9 243
f 435 527 98
f 238 388 296
f 331 568 486
f 389 323 642
f 425 329 467
f 394 582 268
f 457 304 459
f 527 604 312
f 225 319 499
f 325 69 444
f 420 320 89
f 703 586 318
f 639 337 52
f 486 29 657
f 19 377 66
f 323 309 97
f 75 518 488
f 109 361 32
f 145 370 574
f 244 276 577
f 341 412 105
f 209 40 637
f 210 474 417
f 560 288 55
f 131 472 325
f 347 320 483
f 462 198 5
f 24 493 573
f 92 139 202
f 246 345 128
f 81 671 648
f 599 416 162
f 78 380 7
f 3 470 436
f 316 110 567
f 531 103 90
f 231 308 15
f 221 658 142
f 34 174 108
f 271 376 165
f 34 103 50
f 664 354 309
f 626 246 542
f 387 622 349
f 504 269 479
f 451 218 434
f 342 51 322
f 232 397 606
f 634 277 88
f 457 459 237
f 329 687 352
f 549 559 64
f 70 618 610
f 520 128 91
f 498 26 208
f 124 106 538
f 638 665 348
f 122 560 532
f 282 330 550
f 454 236 549
f 598 392 43
f 400 649 489
f 679 436 311
f 239 275 347
f 239 347 502
f 313 237 603
f 193 605 686
f 251 136 307
f 165 402 662
f 283 191 125
f 205 292 265
f 624 470 205
f 685 23 4
f 1 135 328
f 548 602 523
f 154 561 115
f 90 103 449
f 656 635 419
f 300 202 451
f 269 206 17
f 476 436 679
f 637 536 248
f 287 208 285
f 197 46 295
f 65 13 346
f 341 577 412
f 202 139 155
f 356 105 403
f 439 393 289
f 137 385 159
f 692 503 580
f 430 286 421
f 170 158 440
f 505 12 601
f 534 609 430
f 288 533 55
f 371 355 146
f 32 361 284
f 245 599 162
f 306 438 503
f 680 96 185
f 665 207 348
f 610 588 447
f 654 697 280
f 340 65 260
f 396 427 216
f 383 705 49
f 22 446 462
f 57 280 149
f 659 33 369
f 186 41 571
f 581 487 449
f 119 2 518
f 136 374 469
f 560 55 532
f 121 456 238
f 44 177 141
f 477 469 170
f 378 554 535
f 572 107 213
f 707 629 593
f 510 81 259
f 16 387 349
f 282 550 601
f 555 212 676
f 627 440 21
f 379 570 590
f 699 627 42
f 411 223 47
f 398 118 429
f 9 331 35
f 365 680 433
f 550 673 570
f 513 541 233
f 549 236 559
f 258 688 363
f 668 71 410
f 587 519 107
f 414 87 288
f 626 199 397
f 140 349 366
f 56 138 625
f 184 607 11
f 619 324 345
f 39 101 522
f 104 333 514
f 18 557 302
f 310 254 678
f 576 359 272
f 209 224 40
f 337 74 667
f 438 676 405
f 494 333 104
f 294 223 411
f 348 207 539
f 566 156 280
f 707 593 694
f 541 129 368
f 639 675 257
f 630 16 176
f 406 630 176
f 182 509 118
f 107 462 213
f 380 523 282
f 189 153 450
f 119 443 702
f 18 537 540
f 460 379 591
f 94 433 143
f 687 448 700
f 284 623 474
f 252 502 483
f 459 700 116
f 431 576 272
f 95 600 484
f 84 522 101
f 213 177 360
f 399 577 341
f 130 564 675
f 370 556 484
f 396 216 502
f 351 2 464
f 182 118 398
f 379 550 570
f 87 271 151
f 614 681 465
f 628 375 245
f 656 426 33
f 457 11 304
f 85 94 494
f 512 334 633
f 234 658 159
f 3 219 54
f 204 651 148
f 13 644 82
f 687 311 448
f 543 40 209
f 185 96 303
f 429 692 58
f 140 146 349
f 231 201 384
f 669 218 445
f 332 197 295
f 620 341 416
f 667 74 694
f 457 237 313
f 209 294 411
f 32 284 481
f 170 469 158
f 574 60 453
f 254 572 44
f 387 589 622
f 366 343 83
f 687 700 352
f 202 155 682
f 653 519 587
f 643 100 586
f 21 417 365
f 335 628 357
f 425 467 338
f 415 85 456
f 83 522 84
f 337 257 478
f 420 520 91
f 690 31 200
f 702 297 375
f 444 69 11
f 583 535 392
f 293 458 17
f 252 483 91
f 261 242 562
f 219 588 499
f 571 689 134
f 586 497 164
f 601 550 379
f 26 285 208
f 259 384 201
f 319 636 234
f 563 671 698
f 667 694 593
f 33 426 369
f 447 588 219
f 467 152 407
f 181 315 109
f 384 648 606
f 63 99 435
f 116 700 448
f 57 381 124
f 200 117 600
f 475 690 95
f 306 555 438
f 441 307 526
f 463 252 693
f 72 694 74
f 106 625 695
f 565 651 515
f 216 427 159
f 634 88 175
f 496 455 630
f 381 655 56
f 178 538 643
f 416 341 105
f 255 113 268
f 590 37 589
f 640 589 387
f 120 584 77
f 308 595 562
f 118 14 429
f 461 358 389
f 31 62 227
f 331 486 35
f 688 188 363
f 60 117 188
f 85 163 94
f 513 360 129
f 378 487 554
f 75 488 156
f 622 522 343
f 435 203 527
f 16 349 146
f 302 588 618
f 702 443 297
f 82 644 207
f 365 417 680
f 469 373 158
f 84 101 404
f 111 24 25
f 15 300 418
f 558 164 547
f 81 384 259
f 612 671 81
f 342 230 51
f 608 73 41
f 182 398 466
f 406 176 303
f 334 696 633
f 654 57 124
f 275 320 347
f 14 503 692
f 133 674 154
f 663 212 214
f 508 212 555
f 193 686 354
f 254 211 44
f 220 77 267
f 51 305 511
f 594 373 374
f 302 180 588
f 27 629 707
f 242 281 562
f 222 232 648
f 144 525 437
f 559 150 372
f 99 203 435
f 150 635 372
f 178 643 135
f 277 50 531
f 476 679 86
f 315 198 532
f 38 548 78
f 394 132 582
f 613 321 672
f 422 683 647
f 137 3 20
f 382 267 301
f 310 157 148
f 231 15 201
f 394 517 534
f 127 610 447
f 496 471 455
f 494 94 333
f 678 233 528
f 410 344 544
f 120 77 220
f 34 168 235
f 617 511 578
f 51 256 305
f 315 25 109
f 628 245 568
f 639 52 270
f 456 85 494
f 504 240 145
f 503 701 517
f 666 367 496
f 314 71 668
f 179 485 95
f 286 179 370
f 376 418 102
f 235 49 174
f 59 439 253
f 628 264 375
f 205 470 427
f 29 162 409
f 417 474 680
f 269 226 206
f 37 183 500
f 247 657 273
f 161 66 265
f 445 505 460
f 346 13 82
f 305 126 77
f 209 160 224
f 167 475 485
f 677 660 62
f 476 127 447
f 454 549 621
f 619 345 246
f 623 391 96
f 121 238 262
f 186 571 134
f 633 163 85
f 346 489 616
f 591 590 640
f 31 677 62
f 338 478 229
f 47 314 691
f 278 555 306
f 399 465 577
f 354 423 97
f 63 38 117
f 347 483 502
f 361 623 284
f 34 50 168
f 80 8 684
f 231 595 308
f 160 270 224
f 19 48 171
f 639 257 337
f 329 152 467
f 521 574 453
f 425 172 329
f 665 82 207
f 587 107 572
f 115 561 157
f 225 636 319
f 385 10 234
f 308 562 92
f 591 379 590
f 36 115 314
f 510 87 414
f 37 545 39
f 609 598 43
f 111 55 611
f 566 45 697
f 276 558 332
f 59 543 439
f 653 584 120
f 30 626 232
f 289 569 516
f 180 499 588
f 210 284 474
f 58 580 113
f 13 539 644
f 244 318 276
f 445 460 670
f 299 135 703
f 538 106 695
f 227 62 99
f 27 707 166
f 317 40 543
f 669 434 218
f 513 129 541
f 89 672 480
f 464 659 546
f 375 297 599
f 54 219 499
f 526 477 705
f 92 281 139
f 475 95 485
f 569 691 516
f 311 66 377
f 326 567 112
f 575 83 84
f 345 292 693
f 93 194 153
f 652 614 399
f 388 104 6
f 137 54 385
f 205 463 292
f 232 606 648
f 228 19 171
f 684 563 698
f 362 32 481
f 333 371 514
f 207 644 539
f 197 144 437
f 407 694 72
f 345 693 128
f 126 506 77
f 420 91 483
f 468 8 646
f 381 56 106
f 438 405 701
f 520 542 128
f 464 33 659
f 525 401 526
f 164 53 547
f 334 42 696
f 394 534 132
f 565 587 572
f 344 678 544
f 147 422 647
f 640 590 589
f 53 442 401
f 527 312 98
f 149 488 279
f 507 179 286
f 129 181 530
f 30 232 222
f 366 622 343
f 572 213 44
f 604 134 689
f 270 52 224
f 340 260 17
f 373 481 210
f 388 485 296
f 637 629 27
f 49 705 250
f 579 414 560
f 59 454 439
f 291 90 553
f 454 439 289
f 597 369 551
f 174 49 699
f 392 507 43
f 80 684 126
f 250 477 170
f 544 678 528
f 620 416 599
f 276 412 577
f 433 680 185
f 278 508 555
f 652 399 620
f 428 699 42
f 299 465 681
f 467 74 478
f 596 262 535
f 393 411 569
f 336 350 189
f 241 552 367
f 188 78 7
f 75 76 518
f 256 80 126
f 101 183 134
f 37 500 545
f 87 151 288
f 107 22 462
f 543 283 209
f 180 557 255
f 604 689 312
f 311 377 448
f 300 451 418
f 520 249 542
f 664 528 193
f 43 507 286
f 142 658 234
f 61 582 298
f 527 404 604
f 108 428 581
f 171 48 80
f 299 244 465
f 105 412 295
f 178 124 538
f 490 372 635
f 623 96 474
f 218 505 445
f 201 376 271
f 272 274 123
f 386 95 556
f 279 351 546
f 188 432 78
f 294 637 27
f 290 323 389
f 351 518 2
f 217 506 698
f 362 481 373
f 293 17 422
f 455 387 16
f 388 6 167
f 61 268 582
f 653 120 519
f 468 222 563
f 321 649 112
f 167 690 475
f 83 343 522
f 350 93 153
f 415 633 85
f 117 432 188
f 476 3 436
f 61 636 225
f 679 311 172
f 68 510 414
f 436 470 624
f 228 377 19
f 553 487 378
f 241 662 402
f 18 618 338
f 675 9 395
f 250 170 627
f 333 143 371
f 44 211 141
f 313 603 674
f 6 514 706
f 401 441 526
f 515 578 653
f 403 295 46
f 327 421 240
f 167 31 690
f 433 185 143
f 56 655 138
f 646 161 324
f 294 27 131
f 455 640 387
f 490 656 33
f 18 302 618
f 552 670 367
f 110 112 567
f 516 691 492
f 136 469 477
f 613 649 321
f 116 448 228
f 327 430 421
f 299 703 244
f 504 145 521
f 308 92 300
f 136 423 374
f 145 574 521
f 453 188 688
f 303 176 355
f 395 537 229
f 61 225 268
f 568 245 29
f 659 369 597
f 528 233 193
f 426 664 190
f 600 117 60
f 471 640 455
f 540 398 429
f 88 663 214
f 476 219 3
f 444 313 133
f 99 575 203
f 267 506 217
f 503 438 701
f 564 357 331
f 221 501 293
f 670 460 591
f 581 428 334
f 223 36 47
f 223 704 36
f 557 58 255
f 195 672 320
f 656 419 529
f 461 389 631
f 221 142 501
f 505 601 460
f 15 418 376
f 586 100 497
f 14 306 503
f 155 450 263
f 37 186 183
f 272 123 93
f 27 166 69
f 261 562 595
f 185 303 355
f 54 499 10
f 108 581 449
f 209 637 294
f 254 141 211
f 180 225 499
f 238 494 104
f 150 492 635
f 230 256 51
f 547 401 525
f 324 265 292
f 312 41 73
f 451 682 632
f 597 323 290
f 180 255 225
f 668 410 419
f 660 366 83
f 631 389 642
f 129 530 368
f 565 572 254
f 642 423 136
f 305 77 584
f 395 229 257
f 405 583 598
f 312 689 196
f 471 591 640
f 611 533 482
f 65 346 650
f 639 270 130
f 282 208 287
f 620 399 341
f 369 190 551
f 382 364 22
f 581 512 487
f 413 431 350
f 617 578 651
f 27 69 472
f 54 10 385
f 301 68 579
f 4 64 119
f 7 380 359
f 310 678 344
f 119 372 2
f 339 242 261
f 626 542 199
f 543 209 40
f 18 229 537
f 442 441 401
f 690 600 95
f 328 299 681
f 469 374 373
f 436 66 311
f 566 697 280
f 256 126 305
f 310 565 254
f 536 52 667
f 589 39 622
f 201 15 376
f 497 138 53
f 221 293 585
f 495 553 378
f 242 638 281
f 150 516 492
f 28 240 504
f 340 408 65
f 105 295 403
f 267 217 301
f 690 200 600
f 411 47 569
f 451 632 218
f 539 450 155
f 439 23 685
f 258 453 688
f 221 266 473
f 19 66 161
f 428 42 334
f 596 535 554
f 163 365 433
f 426 190 369
f 625 138 497
f 98 73 602
f 233 605 193
f 259 201 271
f 267 77 506
f 439 685 191
f 492 668 419
f 237 342 322
f 328 681 645
f 177 5 181
f 408 539 13
f 383 526 705
f 538 100 643
f 425 70 610
f 35 247 182
f 424 258 226
f 203 84 404
f 515 653 587
f 571 196 689
f 669 445 552
f 191 685 335
f 240 421 145
f 30 619 246
f 566 592 75
f 346 616 650
f 116 228 230
f 288 151 533
f 63 435 661
f 596 456 121
f 701 598 609
f 9 35 243
f 307 136 477
f 42 21 696
f 110 321 112
f 682 498 632
f 279 452 79
f 353 458 501
f 4 702 264
f 394 580 517
f 418 451 434
f 89 320 672
f 420 89 316
f 460 601 379
f 402 669 552
f 691 314 668
f 290 389 358
f 670 591 471
f 525 526 383
f 663 291 212
f 564 331 9
f 28 479 353
f 298 353 142
f 160 114 130
f 632 498 12
f 382 220 267
f 637 40 224
f 28 353 298
f 561 148 157
f 283 439 191
f 123 285 194
f 319 234 10
f 356 634 409
f 390 194 26
f 42 627 21
f 124 381 106
f 120 220 382
f 545 500 101
f 676 495 405
f 392 296 507
f 611 482 187
f 486 657 247
f 536 667 593
f 119 75 443
f 213 141 177
f 632 12 505
f 38 78 432
f 301 217 68
f 459 304 700
f 189 450 539
f 356 403 634
f 637 536 593
f 631 642 251
f 602 608 523
f 137 470 3
f 206 336 340
f 482 533 662
f 243 35 182
f 454 621 23
f 231 384 606
f 70 338 618
f 454 23 439
f 696 365 163
f 641 98 602
f 155 263 682
f 335 264 628
f 44 141 213
f 621 549 4
f 478 257 229
f 29 409 657
f 504 424 269
f 642 97 423
f 239 502 216
f 420 316 520
f 213 5 177
f 677 706 660
f 213 360 513
f 48 161 646
f 210 481 284
f 111 532 55
f 1 178 135
f 130 357 564
f 581 334 512
f 512 554 487
f 239 195 275
f 450 390 263
f 192 298 142
f 637 248 536
f 429 14 692
f 422 17 260
f 413 169 431
f 48 8 80
f 568 29 486
f 6 706 677
f 49 250 699
f 511 584 578
f 326 112 400
f 241 402 552
f 215 156 566
f 637 224 536
f 621 4 23
f 627 170 440
f 656 529 426
f 322 511 617
f 246 128 542
f 589 37 39
f 230 171 256
f 480 321 110
f 404 101 134
f 11 69 166
f 310 148 565
f 638 348 281
f 678 254 44
f 416 105 356
f 476 447 219
f 459 116 342
f 479 269 353
f 302 557 180
f 152 607 407
f 187 666 67
f 464 2 490
f 366 349 622
f 630 455 16
f 98 312 73
f 678 44 513
f 575 84 203
f 44 213 513
f 517 701 609
f 498 208 12
f 463 693 292
f 452 615 461
f 400 489 665
f 395 466 398
f 520 316 249
f 514 140 706
f 536 224 52
f 512 633 415
f 414 288 560
f 614 465 399
f 175 88 214
f 652 620 297
f 585 293 147
f 238 296 262
f 25 573 361
f 130 114 125
f 626 397 232
f 215 75 156
f 228 448 377
f 47 36 314
f 364 122 446
f 137 427 470
f 408 189 539
f 413 350 336
f 570 186 37
f 537 398 540
f 181 109 530
f 524 11 166
f 59 491 543
f 566 280 697
f 664 193 354
f 431 272 93
f 579 560 122
f 363 576 169
f 122 532 446
f 209 411 393
f 467 407 72
f 607 304 11
f 530 109 32
f 59 283 543
f 561 204 148
f 594 362 373
f 65 408 13
f 100 625 497
f 563 222 671
f 443 75 592
f 585 195 266
f 392 262 296
f 59 253 454
f 221 585 266
f 192 142 636
f 116 230 342
f 92 562 281
f 258 363 169
f 182 247 509
f 324 292 345
f 380 282 359
f 585 147 195
f 680 474 96
f 679 172 127
f 641 602 548
f 264 702 375
f 310 344 157
f 683 613 647
f 407 707 694
f 38 432 117
f 269 17 458
f 395 243 466
f 569 47 691
f 1 173 697
f 109 25 361
f 213 462 5
f 659 597 615
f 509 273 508
f 119 559 372
f 18 540 557
f 253 439 454
f 440 210 417
f 633 696 163
f 660 83 575
f 231 606 595
f 326 400 638
f 108 174 428
f 675 395 257
f 666 496 67
f 652 592 614
f 90 449 553
f 309 354 97
f 382 22 519
f 573 391 623
f 425 338 70
f 484 600 60
f 550 330 608
f 529 544 664
f 131 27 472
f 63 641 38
f 467 478 338
f 67 496 630
f 118 278 14
f 461 615 290
f 489 82 665
f 416 356 162
f 697 645 280
f 503 517 580
f 243 182 466
f 509 508 278
f 337 478 74
f 570 673 186
f 226 169 413
f 544 528 664
f 381 79 655
f 348 539 139
f 101 500 183
f 57 79 381
f 59 543 491
f 685 4 264
f 95 484 556
f 425 127 172
f 566 280 592
f 59 439 283
f 233 541 605
f 248 593 629
f 169 576 431
f 88 531 663
f 254 44 141
f 543 209 393
f 695 625 100
f 197 437 168
f 89 480 110
f 283 125 114
f 453 60 188
f 325 444 133
f 120 382 519
f 508 214 212
f 79 452 655
f 657 175 273
f 239 473 266
f 480 672 321
f 209 114 160
f 8 563 684
f 674 204 561
f 539 155 139
f 200 227 99
f 312 196 41
f 164 497 53
f 431 93 350
f 596 554 415
f 360 181 129
f 446 532 198
f 195 647 672
f 176 16 146
f 137 159 427
f 616 489 649
f 212 291 676
f 443 592 652
f 653 578 584
f 132 28 298
f 421 370 145
f 276 332 412
f 39 545 101
f 236 516 150
f 357 628 568
f 639 130 675
f 291 495 676
f 611 55 533
f 388 167 485
f 199 542 249
f 133 313 674
f 297 620 599
f 391 303 96
f 624 205 265
f 608 41 673
f 683 650 616
f 437 383 235
f 437 525 383
f 697 173 645
f 476 86 127
f 199 249 339
f 205 427 463
f 468 30 222
f 238 104 388
f 592 280 614
f 206 340 17
f 395 398 537
f 335 357 125
f 89 110 316
f 337 667 52
f 396 463 427
f 200 63 117
f 36 154 115
f 370 179 386
f 218 632 505
f 174 699 428
f 603 617 204
f 603 322 617
f 115 157 71
f 684 698 506
f 706 140 366
f 543 393 439
f 336 189 408
f 392 535 262
f 468 619 30
f 394 268 580
f 583 378 535
f 228 171 230
f 187 67 493
f 135 643 703
f 510 259 87
f 62 575 99
f 596 415 456
f 357 568 331
f 319 10 499
f 151 662 533
f 162 356 409
f 215 566 75
f 194 285 26
f 493 406 391
f 315 532 111
f 426 529 664
f 654 124 178
f 251 642 136
f 34 235 174
f 686 594 374
f 339 326 242
f 351 488 518
f 64 559 119
f 482 241 666
f 272 359 274
f 339 249 567
f 165 102 402
f 323 551 309
f 7 359 576
f 407 184 524
f 61 298 192
f 385 234 159
f 244 577 465
f 199 261 397
f 62 660 575
f 132 327 28
f 119 518 76
f 325 133 704
f 419 410 529
f 613 672 647
f 521 453 258
f 706 366 660
f 376 102 165
f 418 434 669
f 335 685 264
f 277 46 50
f 674 603 204
f 245 162 29
f 61 192 636
f 190 309 551
f 108 449 103
f 663 531 90
f 605 368 594
f 418 669 102
f 143 185 355
f 679 127 86
f 217 612 68
f 421 286 370
f 363 7 576
f 247 273 509
f 514 371 140
f 241 367 666
f 128 693 91
f 683 616 613
f 456 494 238
f 609 43 430
f 435 641 661
f 119 76 75
# 1422 faces, 0 coords texture

# End of File