####
#
# OBJ File Generated by Meshlab
#
####
# Object domain014.obj
#
# Vertices: 304
# Faces: 604
#
####
v 168.663513 378.013611 138.769119
v 176.043991 377.518097 137.464142
v 171.698044 397.073395 144.156662
v 176.537308 399.046234 142.560638
v 168.185486 377.976227 135.613953
v 177.349915 396.919128 133.843674
v 171.715744 380.329865 140.555618
v 173.686050 401.119537 144.395523
v 167.577850 382.321411 132.827179
v 176.751312 384.516693 140.618988
v 169.692337 377.918640 139.013504
v 169.763763 392.844543 142.464905
v 169.712036 401.955292 141.987381
v 168.255692 382.405975 139.463562
v 176.089584 380.153870 140.348358
v 175.809937 382.591156 140.978943
v 167.862839 401.011017 135.370193
v 171.703537 378.255554 132.813339
v 171.695923 377.882629 139.084259
v 173.734528 378.284119 132.833267
v 169.525970 381.628601 140.463516
v 171.700439 392.910645 132.586227
v 171.710068 386.502808 142.169281
v 168.198685 401.410645 137.352142
v 175.482666 395.245422 143.079437
v 167.904175 378.452698 134.956955
v 167.625259 400.786713 137.061737
v 173.743042 401.532623 135.316315
v 177.371292 401.496948 139.348038
v 173.745667 377.373047 137.473511
v 176.041718 401.452179 135.344650
v 168.761368 395.566528 142.915817
v 171.699127 393.892334 143.314682
v 169.678574 377.491333 135.553070
v 167.322540 390.619385 133.262115
v 169.710388 394.928589 132.936447
v 175.813507 380.351837 132.240906
v 167.680069 388.571808 133.489319
v 177.933990 380.383575 135.014862
v 166.964066 386.777832 134.526627
v 177.472549 378.114563 135.790787
v 169.694656 397.055969 133.200302
v 168.593643 401.513550 139.302521
v 171.699951 397.090973 132.994522
v 175.442230 397.139771 143.381332
v 170.002594 401.680389 144.496872
v 175.496277 399.102478 143.512726
v 179.029205 399.076630 136.128174
v 176.063263 384.339722 132.452377
v 169.754166 380.361816 140.101654
v 169.660172 378.921631 132.225250
v 171.701462 395.099274 143.680649
v 168.330948 379.148773 132.442673
v 171.700287 399.056305 133.466064
v 168.595276 399.086304 143.354126
v 173.746399 402.122437 137.516724
v 173.729721 382.350372 131.733932
v 176.897858 388.519684 140.730087
v 175.811172 384.443115 141.269821
v 171.699280 377.340698 135.535583
v 168.769226 384.592407 140.849136
v 178.116364 397.017975 139.489258
v 167.059082 392.913544 137.198593
v 168.423019 377.862823 137.442566
v 173.740143 377.892120 139.084488
v 169.703033 401.442169 135.344757
v 169.788132 394.050629 142.999878
v 175.981781 394.923004 133.051819
v 168.112396 400.881256 139.532547
v 168.718109 401.359009 143.588257
v 169.694473 392.904449 132.805527
v 175.963959 392.937103 142.074997
v 167.085678 396.998108 135.169556
v 169.695450 377.473145 137.469986
v 167.907440 396.906586 133.924271
v 173.750275 400.664307 134.269058
v 175.867737 388.524902 141.551071
v 175.371918 383.634705 132.066956
v 168.822769 390.570526 141.242920
v 178.018509 394.971771 139.450943
v 176.946655 401.459686 140.609253
v 173.754745 386.484314 132.348175
v 169.667145 388.519989 132.691147
v 178.129044 384.420624 135.036636
v 175.412430 400.947388 143.540894
v 179.179810 399.684326 136.882523
v 175.507401 394.130585 142.777664
v 178.699158 400.865112 137.539139
v 178.150864 392.928680 135.076965
v 177.711029 388.520142 139.438843
v 169.673935 382.346680 131.770493
v 177.493088 382.371490 139.178818
v 169.671097 377.769409 134.323318
v 168.612045 378.344025 138.901077
v 173.318069 401.607941 144.440750
v 179.031998 399.044861 137.301193
v 178.126709 388.515686 135.054047
v 177.865967 392.965118 139.443466
v 177.671646 386.472351 139.421875
v 176.004349 377.835052 134.352386
v 178.207489 384.434021 137.388596
v 175.761826 378.980316 132.505371
v 173.724243 380.352112 131.817459
v 167.951431 378.586151 137.192215
v 169.682068 380.347168 131.822922
v 169.693130 400.620117 134.345810
v 178.448456 397.039185 134.994614
v 167.368622 382.370514 137.262360
v 176.376251 394.939270 142.318909
v 171.701202 390.572845 142.490097
v 169.703659 402.001129 139.497025
v 177.389679 400.546722 134.576538
v 173.747559 395.163025 143.594376
v 171.697937 388.518066 132.494232
v 176.842163 377.971985 138.513046
v 173.743240 377.610443 134.276794
v 167.156067 386.448700 137.461258
v 171.687378 401.819122 144.351822
v 173.716095 388.525757 142.240372
v 167.040558 394.953796 135.126221
v 167.562134 397.032257 139.775330
v 173.726532 378.931732 132.248459
v 167.700104 380.334106 132.760223
v 168.310455 400.888428 141.938065
v 169.659836 390.572815 132.697952
v 169.685989 399.016998 133.624893
v 171.700348 377.358459 137.475693
v 178.538925 394.994659 137.419220
v 175.902283 390.609650 141.648239
v 169.660782 383.971893 131.936172
v 173.737152 390.578461 142.401276
v 178.854721 397.175751 136.055832
v 166.785858 388.523407 135.722870
v 177.297226 386.456512 133.626144
v 175.869629 378.662262 139.634705
v 176.076309 377.558014 135.534821
v 167.827560 390.561951 139.565750
v 173.744583 384.385620 141.767609
v 179.034164 400.819183 136.916962
v 178.463226 399.039307 135.046356
v 171.700363 402.131897 137.515274
v 173.687973 397.100159 143.988800
v 172.301529 381.236084 140.914810
v 173.724243 402.023376 141.976074
v 177.099213 392.962341 140.889221
v 178.123688 382.417755 137.222137
v 166.726028 390.521881 134.467514
v 171.701431 377.600952 134.273972
v 167.095596 388.517303 137.482971
v 176.278900 400.853302 142.426437
v 171.706772 388.525085 142.331421
v 167.682907 386.362274 133.424088
v 167.044235 397.003754 137.203918
v 173.734756 378.593445 139.833755
v 177.252090 392.913086 133.697205
v 176.044037 401.951813 139.475418
v 166.837891 386.378937 135.373703
v 178.322037 395.086670 135.178604
v 177.278183 399.172974 141.387115
v 167.871918 400.489075 134.717621
v 168.847488 386.516296 141.119019
v 169.839447 388.528809 141.912231
v 173.756836 380.278778 140.644470
v 171.698868 401.662079 144.555191
v 171.701508 394.946014 132.709381
v 171.695877 392.716492 142.919464
v 171.700180 400.673706 134.257660
v 177.748840 390.623383 139.434875
v 176.935028 390.578430 140.760284
v 176.878708 378.458679 138.910751
v 171.715302 378.589386 139.803085
v 176.019089 397.042206 133.275375
v 171.698456 390.568695 132.533783
v 173.745544 397.087494 133.012894
v 171.700516 402.137634 141.991821
v 178.303711 390.594391 137.435211
v 177.616165 384.446777 139.307129
v 173.893250 384.845184 132.059662
v 167.262299 384.413269 137.436829
v 175.812332 401.576324 141.779770
v 169.695419 401.947510 137.527557
v 173.641144 383.943756 131.846756
v 167.634766 394.930725 139.674744
v 176.866043 386.478546 140.702606
v 169.725601 401.757538 144.296524
v 167.800888 384.474854 132.809082
v 171.726959 382.406738 141.249344
v 178.126053 386.467438 135.051590
v 175.987381 377.976166 138.986649
v 167.038956 394.958099 137.221542
v 175.780472 380.832977 140.639542
v 171.701935 384.969238 132.032166
v 176.049759 401.934662 137.529053
v 175.841461 386.504333 141.469360
v 168.708633 393.116852 141.518829
v 166.972824 392.852509 134.952576
v 177.935898 380.415253 137.209290
v 173.765198 392.731384 142.851501
v 171.696640 386.490570 132.309631
v 173.950577 381.150787 140.975967
v 176.897781 378.971619 133.420334
v 167.608719 399.015869 139.531235
v 177.603912 378.446045 137.109177
v 177.927719 401.417084 137.413818
v 167.462753 400.587585 135.254593
v 169.653671 386.467712 132.508377
v 177.242203 377.896729 137.270981
v 173.704834 386.502716 142.091339
v 173.747955 388.516724 132.526291
v 167.735245 392.911194 139.541580
v 166.992905 390.778809 133.603943
v 177.797974 401.212524 135.579422
v 175.997208 388.511597 132.913773
v 168.027863 399.045013 141.959396
v 178.240265 400.754822 135.281693
v 173.747604 377.355865 135.537354
v 169.845871 386.541779 141.800385
v 167.695190 386.491180 139.173813
v 177.079742 394.967255 141.402328
v 171.700165 402.236542 139.500687
v 167.893555 394.900391 133.733826
v 175.865662 378.465546 132.927628
v 168.061691 383.775269 132.328445
v 171.697952 380.343994 131.733521
v 169.746735 397.114899 143.893646
v 178.159256 399.042694 139.477707
v 176.681107 382.407349 140.245514
v 168.081558 380.429596 132.261490
v 178.115051 390.571777 135.064499
v 167.066742 384.551971 134.897659
v 178.861359 400.753143 136.251816
v 169.882187 378.588745 139.585007
v 177.268234 388.513489 133.670547
v 176.047668 399.014954 133.652237
v 169.738510 399.108124 144.164459
v 171.690231 378.913879 132.203735
v 176.483810 397.031097 142.515671
v 168.595718 400.974579 143.568863
v 178.086487 382.375549 135.042603
v 167.117477 382.376434 135.007523
v 169.634430 384.940948 132.149612
v 168.425064 380.352234 139.023499
v 173.772690 382.428223 141.290451
v 167.803421 392.818207 133.590836
v 171.697678 383.992035 131.843430
v 168.127060 379.009735 132.888489
v 169.756287 378.363220 132.830078
v 167.332993 380.398560 134.983047
v 178.259094 386.471039 137.414673
v 176.061356 400.634766 134.315323
v 177.319962 384.397186 133.493057
v 166.739441 390.672516 135.746490
v 176.016525 386.435089 132.795624
v 177.489548 398.977600 134.159134
v 168.001816 382.349091 132.238159
v 177.264557 394.944672 133.712585
v 173.748703 402.207275 139.501556
v 177.215988 397.017151 141.470093
v 175.802521 382.322784 132.162048
v 173.742157 394.944183 132.731369
v 171.698563 399.074188 144.457718
v 166.869675 388.542969 134.638535
v 168.775024 401.527191 142.057495
v 167.812057 398.923248 134.282242
v 177.249817 390.566040 133.692566
v 167.091873 390.578308 137.475113
v 175.985474 390.567169 132.957275
v 167.879852 384.527466 139.357422
v 178.382767 392.802979 137.453064
v 178.281723 388.521210 137.420181
v 177.582764 378.572418 135.048599
v 168.796967 388.585236 141.142868
v 171.700745 401.545654 135.309753
v 177.878357 400.931122 139.249298
v 177.007736 400.964996 141.233276
v 171.693192 400.944092 144.644119
v 167.545090 380.348572 137.070984
v 168.830612 383.176758 140.591339
v 169.777985 384.541809 141.463577
v 168.707947 397.267883 143.305573
v 171.331497 381.350769 140.825912
v 167.173615 399.030762 137.195923
v 169.737152 382.664551 140.952545
v 175.201508 401.307159 143.441803
v 175.981552 392.907318 132.979309
v 173.743179 392.910217 132.616867
v 168.054001 397.016113 141.951172
v 171.717468 384.428589 141.798386
v 177.118378 380.359009 133.224213
v 178.871277 396.999298 137.104889
v 173.607697 401.628784 144.214951
v 173.745865 399.052307 133.477554
v 171.698395 382.352997 131.663742
v 167.169983 399.006165 135.218445
v 173.745621 393.905334 143.247070
v 169.723755 395.226990 143.440796
v 177.165634 382.351776 133.226303
v 169.815353 390.606598 142.018402
v 177.101959 380.331360 139.178192
v 173.745087 390.568542 132.577438
v 169.757721 400.968567 144.431412
v 167.699661 388.530151 139.244766
v 168.299667 395.014008 141.980011
v 173.703339 399.092651 144.249634
# 304 vertices, 0 vertices normals

f 230 179 240
f 175 291 118
f 154 171 7
f 281 187 143
f 44 260 174
f 96 139 86
f 198 72 129
f 278 61 283
f 256 89 158
f 41 203 271
f 227 10 92
f 183 63 190
f 97 176 229
f 50 7 171
f 294 75 264
f 297 239 251
f 45 142 304
f 89 269 128
f 230 240 9
f 35 244 196
f 87 295 113
f 183 190 121
f 25 142 45
f 94 50 232
f 122 102 103
f 199 178 82
f 250 31 76
f 35 125 244
f 272 218 302
f 265 97 229
f 163 15 135
f 57 37 259
f 126 160 264
f 215 48 231
f 180 81 275
f 13 263 43
f 90 168 176
f 232 50 171
f 112 140 215
f 250 112 212
f 135 15 299
f 287 214 280
f 124 43 263
f 203 197 39
f 221 36 75
f 45 47 4
f 141 257 220
f 41 207 203
f 228 53 51
f 303 121 287
f 23 208 138
f 294 73 75
f 90 176 270
f 20 100 222
f 25 45 237
f 299 197 203
f 193 56 28
f 259 297 49
f 47 304 8
f 152 186 241
f 42 264 75
f 234 254 250
f 227 92 15
f 222 201 102
f 262 152 38
f 164 118 95
f 198 295 72
f 296 32 280
f 296 225 52
f 112 215 212
f 110 166 131
f 130 223 91
f 181 24 17
f 277 108 14
f 141 56 257
f 271 203 39
f 296 52 33
f 77 169 58
f 89 128 158
f 125 173 71
f 290 48 132
f 98 80 128
f 228 255 9
f 67 195 32
f 37 201 289
f 282 153 73
f 103 57 293
f 126 44 54
f 60 30 216
f 239 146 101
f 287 202 214
f 93 26 5
f 205 160 17
f 283 21 14
f 193 156 56
f 180 284 144
f 179 268 108
f 255 105 91
f 172 256 6
f 175 144 291
f 118 291 95
f 114 209 173
f 262 133 40
f 281 143 7
f 140 132 48
f 54 174 292
f 94 232 11
f 163 7 200
f 217 162 23
f 124 238 55
f 8 95 291
f 151 119 208
f 121 190 153
f 251 84 134
f 165 260 44
f 189 135 170
f 182 259 78
f 2 115 207
f 120 244 221
f 82 253 209
f 227 59 10
f 206 192 199
f 105 224 91
f 166 198 131
f 239 101 84
f 42 44 126
f 85 8 291
f 252 196 63
f 80 290 128
f 34 5 74
f 15 92 299
f 262 38 147
f 156 180 257
f 262 147 252
f 33 52 295
f 66 17 160
f 85 291 284
f 165 286 260
f 225 235 3
f 283 279 187
f 226 88 96
f 282 73 294
f 12 195 67
f 29 274 81
f 99 58 90
f 22 300 286
f 53 246 51
f 169 145 168
f 288 23 138
f 167 28 273
f 233 188 97
f 286 285 260
f 273 56 141
f 51 236 105
f 279 217 288
f 245 293 57
f 254 107 140
f 130 192 241
f 247 18 236
f 85 150 4
f 84 249 188
f 197 146 239
f 99 270 249
f 109 219 72
f 166 33 198
f 277 104 26
f 280 214 55
f 140 48 215
f 210 266 63
f 106 273 66
f 277 242 104
f 33 295 198
f 103 293 224
f 281 7 21
f 119 77 194
f 93 246 26
f 48 86 139
f 68 285 155
f 163 191 15
f 83 114 125
f 114 82 209
f 80 258 62
f 228 51 105
f 262 40 152
f 31 212 204
f 61 14 268
f 120 190 196
f 36 22 165
f 303 32 195
f 72 219 145
f 301 46 276
f 80 62 290
f 217 23 288
f 107 132 140
f 117 302 218
f 167 292 76
f 126 106 160
f 149 266 137
f 60 148 34
f 212 215 231
f 65 171 154
f 92 10 177
f 20 102 122
f 36 42 75
f 204 139 88
f 284 291 144
f 228 123 53
f 65 19 171
f 46 238 185
f 61 268 161
f 216 100 116
f 94 1 104
f 267 233 265
f 64 104 1
f 208 194 59
f 177 249 101
f 233 97 265
f 177 10 184
f 204 88 274
f 103 102 37
f 232 171 19
f 277 14 242
f 185 118 164
f 228 9 123
f 134 84 188
f 131 129 77
f 221 71 36
f 205 17 27
f 137 266 210
f 155 229 89
f 300 213 267
f 158 132 107
f 194 77 58
f 181 220 111
f 241 186 223
f 162 151 23
f 285 265 155
f 152 241 206
f 148 93 34
f 97 270 176
f 187 243 200
f 71 22 36
f 98 219 80
f 158 128 290
f 283 187 21
f 27 17 24
f 122 103 224
f 177 99 249
f 182 78 49
f 67 296 33
f 106 54 167
f 44 174 54
f 82 49 253
f 148 18 247
f 265 229 155
f 256 158 6
f 136 271 100
f 303 287 280
f 52 3 113
f 67 33 166
f 242 14 50
f 242 50 94
f 245 182 178
f 230 9 186
f 31 193 28
f 46 185 164
f 84 101 249
f 237 4 159
f 40 230 152
f 177 184 99
f 282 294 27
f 208 119 194
f 59 194 184
f 77 129 169
f 66 273 141
f 230 186 152
f 109 258 219
f 273 28 56
f 117 218 268
f 210 63 183
f 4 275 159
f 14 21 50
f 207 170 203
f 250 212 31
f 290 96 48
f 12 67 166
f 183 121 303
f 243 59 16
f 225 280 55
f 262 252 133
f 31 204 193
f 154 163 135
f 130 241 223
f 235 238 301
f 129 145 169
f 216 2 136
f 276 8 304
f 98 269 176
f 116 20 18
f 254 140 112
f 180 275 150
f 136 41 271
f 35 83 125
f 79 137 210
f 70 238 263
f 243 138 59
f 2 189 115
f 92 177 101
f 68 256 172
f 213 233 267
f 124 263 238
f 46 164 276
f 185 238 70
f 187 200 143
f 35 211 147
f 155 89 256
f 64 74 5
f 173 209 300
f 168 98 176
f 64 5 26
f 62 159 226
f 272 302 137
f 179 117 268
f 148 116 18
f 38 206 83
f 164 95 8
f 221 75 73
f 217 161 272
f 147 211 196
f 99 90 270
f 50 21 7
f 126 54 106
f 229 269 89
f 25 113 142
f 121 202 287
f 298 79 195
f 45 304 47
f 98 128 269
f 168 145 98
f 64 11 74
f 172 292 174
f 68 172 174
f 74 11 19
f 62 96 290
f 259 49 78
f 220 257 144
f 279 161 217
f 271 289 201
f 133 252 266
f 245 178 192
f 63 196 190
f 35 196 211
f 27 24 69
f 261 304 142
f 79 210 195
f 179 108 240
f 138 208 59
f 192 178 199
f 130 293 245
f 145 219 98
f 120 221 73
f 220 144 175
f 278 14 61
f 288 138 243
f 197 239 39
f 159 275 226
f 35 147 38
f 279 288 187
f 22 286 165
f 110 131 119
f 162 272 79
f 225 3 52
f 241 192 206
f 3 261 142
f 108 268 14
f 69 43 124
f 54 292 167
f 129 72 145
f 235 55 238
f 13 175 118
f 69 24 43
f 117 149 302
f 282 27 69
f 301 276 261
f 106 167 273
f 130 91 293
f 204 274 29
f 20 122 18
f 25 237 109
f 298 195 12
f 67 32 296
f 87 72 295
f 38 152 206
f 71 173 22
f 276 164 8
f 204 231 139
f 157 149 117
f 216 30 2
f 83 199 114
f 182 49 178
f 154 135 189
f 91 224 293
f 248 26 246
f 229 176 269
f 207 115 170
f 228 105 255
f 283 61 279
f 23 151 208
f 156 257 56
f 161 218 272
f 297 39 239
f 125 71 244
f 122 236 18
f 119 131 77
f 6 158 107
f 193 204 29
f 162 298 151
f 227 16 59
f 253 134 213
f 185 70 263
f 47 8 85
f 15 191 16
f 151 110 119
f 183 303 195
f 42 165 44
f 209 253 213
f 227 15 16
f 122 224 236
f 68 260 285
f 68 155 256
f 180 144 257
f 301 238 46
f 237 159 258
f 31 28 76
f 60 34 127
f 299 92 197
f 194 58 184
f 193 29 156
f 206 199 83
f 30 127 65
f 9 240 123
f 184 58 99
f 34 74 127
f 251 239 84
f 3 142 113
f 57 259 182
f 42 126 264
f 234 250 76
f 12 166 110
f 60 216 116
f 45 4 237
f 96 88 139
f 187 288 243
f 87 113 25
f 252 63 266
f 300 267 286
f 85 284 150
f 111 175 13
f 230 117 179
f 286 267 285
f 157 133 149
f 133 266 149
f 66 181 17
f 96 86 48
f 235 301 261
f 162 79 298
f 157 40 133
f 296 280 225
f 219 258 80
f 181 141 220
f 100 271 222
f 36 165 42
f 34 93 5
f 217 272 162
f 106 66 160
f 130 245 192
f 234 76 292
f 245 57 182
f 13 118 185
f 180 150 284
f 156 81 180
f 226 274 88
f 289 39 297
f 248 246 123
f 52 113 295
f 6 107 254
f 131 198 129
f 205 294 264
f 282 121 153
f 102 201 37
f 199 82 114
f 212 231 204
f 275 81 274
f 189 170 115
f 163 200 191
f 234 6 254
f 200 243 191
f 225 55 235
f 20 222 102
f 158 290 132
f 87 25 109
f 209 213 300
f 30 189 2
f 303 280 32
f 92 101 146
f 37 289 259
f 65 154 189
f 222 271 201
f 170 299 203
f 53 123 246
f 149 137 302
f 188 249 270
f 148 247 93
f 281 21 187
f 181 111 24
f 221 244 71
f 120 196 244
f 49 251 253
f 120 153 190
f 62 226 96
f 134 188 233
f 111 220 175
f 248 108 277
f 13 185 263
f 282 69 202
f 69 214 202
f 35 38 83
f 64 1 11
f 157 230 40
f 279 61 161
f 213 134 233
f 173 300 22
f 125 114 173
f 248 123 240
f 87 109 72
f 143 200 7
f 282 202 121
f 136 2 207
f 278 283 14
f 243 16 191
f 60 116 148
f 188 270 97
f 186 255 223
f 136 207 41
f 167 76 28
f 65 127 19
f 111 43 24
f 267 265 285
f 49 297 251
f 248 240 108
f 247 236 51
f 11 232 19
f 30 65 189
f 124 55 214
f 157 117 230
f 250 254 112
f 47 85 4
f 259 289 297
f 68 174 260
f 261 276 304
f 103 37 57
f 216 136 100
f 135 299 170
f 242 94 104
f 111 13 43
f 4 150 275
f 109 237 258
f 258 159 62
f 58 169 90
f 161 268 218
f 116 100 20
f 120 73 153
f 60 127 30
f 186 9 255
f 298 110 151
f 64 26 104
f 223 255 91
f 105 236 224
f 92 146 197
f 271 39 289
f 90 169 168
f 154 7 163
f 156 29 81
f 205 264 160
f 235 261 3
f 252 147 196
f 210 183 195
f 298 12 110
f 69 124 214
f 94 11 1
f 172 234 292
f 247 51 246
f 226 275 274
f 48 139 231
f 248 277 26
f 253 251 134
f 59 184 10
f 272 137 79
f 178 49 82
f 172 6 234
f 66 141 181
f 205 27 294
f 93 247 246
f 74 19 127
# 604 faces, 0 coords texture

# End of File