####
#
# OBJ File Generated by Meshlab
#
####
# Object Volume_252.obj
#
# Vertices: 244
# Faces: 492
#
####
v 137.416565 477.839172 158.173019
v 140.111847 480.586975 155.828156
v 128.631729 464.101898 153.907822
v 139.468735 465.464508 156.596832
v 133.903931 477.018250 153.195999
v 124.345222 468.924744 154.097656
v 137.233032 464.358704 155.435104
v 135.468063 477.729523 153.121414
v 127.599426 471.300323 157.982803
v 137.416916 473.781219 152.499939
v 127.692703 464.136902 153.904633
v 141.518005 471.437317 158.468491
v 128.309967 464.116699 153.972778
v 133.607895 469.386353 152.516876
v 131.580582 473.754211 152.758743
v 123.074608 464.963745 154.600006
v 141.518005 473.781158 152.532257
v 131.574570 467.380432 158.199402
v 135.404007 477.696381 158.010239
v 137.416977 473.781311 158.496887
v 144.984833 469.460602 156.922729
v 129.685226 473.618073 153.168365
v 141.513565 467.399384 158.191849
v 131.556671 467.358917 152.683441
v 133.180634 466.389557 157.752991
v 144.543060 475.801910 153.282257
v 143.506912 477.849213 152.861084
v 139.467880 475.831604 152.521973
v 139.467926 473.781158 158.500031
v 141.400421 480.520081 155.703308
v 135.966110 479.084747 154.143372
v 135.367920 466.257111 157.900055
v 139.470551 477.850800 152.725311
v 125.455254 465.743530 153.364044
v 123.827927 465.896912 153.703400
v 129.503708 469.388672 152.560974
v 137.588959 479.513702 156.781769
v 132.313034 476.962738 156.677780
v 139.470123 477.842010 158.241333
v 135.907074 464.472534 154.340820
v 131.576035 473.759369 158.261658
v 126.365517 466.522827 157.710342
v 128.596878 472.686920 157.743484
v 137.946732 464.215637 154.384598
v 143.197189 480.445343 154.202606
v 137.764282 479.029633 153.302597
v 141.517838 471.437256 152.534409
v 135.365860 473.781342 152.511917
v 141.517609 469.387329 152.549377
v 143.516937 467.376556 152.862564
v 141.382172 478.929718 157.726379
v 131.556335 471.438293 152.556961
v 137.416992 471.437439 158.500031
v 129.068756 474.164093 154.213043
v 128.521454 472.798004 153.394516
v 123.023964 464.961090 154.519119
v 127.480171 466.365540 157.806961
v 134.578827 478.691711 156.890594
v 125.548782 469.262115 152.996216
v 135.365982 467.367523 158.283005
v 143.512650 471.437073 152.786560
v 125.546257 465.857788 156.265991
v 132.861755 476.445801 153.218124
v 139.389984 480.087463 156.719482
v 141.405838 479.895660 156.864105
v 131.505341 465.349365 156.382202
v 133.607666 471.437622 158.500275
v 129.506226 467.358368 152.687057
v 131.466507 465.729950 153.258759
v 139.467361 467.389252 158.226395
v 135.375793 465.691010 153.257416
v 125.480003 467.378632 152.957153
v 133.671799 465.797119 153.254745
v 143.499924 473.781830 152.811722
v 131.284424 476.098389 157.009109
v 144.782944 467.395447 156.839096
v 139.462540 466.372528 157.737030
v 137.415100 475.832336 152.551071
v 139.468033 469.387085 158.470383
v 139.467957 475.831177 158.470139
v 141.498016 466.423462 157.712082
v 129.417496 465.263977 156.427429
v 132.118546 466.333984 157.770508
v 127.492416 469.372009 158.223068
v 144.952255 469.483032 154.071625
v 141.517303 475.829376 158.436920
v 143.684326 478.219330 157.505264
v 123.383545 466.260162 153.939072
v 135.355026 465.318512 156.615082
v 144.236618 476.791046 157.878082
v 139.468048 469.386749 152.521164
v 137.417007 469.386658 152.517944
v 139.467941 473.781067 152.499985
v 137.602905 464.240814 154.897903
v 129.488007 465.568176 153.155350
v 137.670868 464.292816 154.766083
v 143.535141 475.819214 158.248550
v 140.108398 480.737518 154.281021
v 123.642715 466.974060 154.148392
v 130.872879 466.372650 157.810608
v 133.607620 471.437805 152.500534
v 126.064163 470.330872 153.352158
v 141.504852 477.828094 158.205521
v 143.530807 471.436249 158.267319
v 144.296646 466.081268 154.351608
v 137.416519 475.830780 158.443878
v 135.367462 475.822998 158.371414
v 139.467957 471.437317 158.500000
v 129.657074 473.624359 157.915161
v 143.478561 465.918427 156.623749
v 124.822304 469.746826 154.963654
v 141.544586 479.759857 153.342865
v 133.608627 467.362244 152.691772
v 143.405807 477.697937 158.026077
v 133.608276 469.387421 158.465027
v 127.488670 465.455750 156.580444
v 143.227875 479.593597 156.294113
v 135.347107 478.539032 157.545410
v 139.468369 467.356842 152.680466
v 125.169754 469.624146 157.048386
v 125.630959 467.315216 157.901352
v 144.450760 477.811615 153.277527
v 141.483353 465.636505 156.597580
v 135.511902 479.071381 156.481415
v 143.521179 469.386902 152.759995
v 131.770554 475.594147 157.877075
v 130.580109 474.701233 153.275436
v 136.628036 478.792816 157.668396
v 129.501633 467.379089 158.234772
v 137.660660 479.649170 154.176575
v 143.468491 467.450745 158.020111
v 131.556961 469.387634 158.459320
v 127.548820 464.140625 153.971970
v 125.256355 467.228912 157.495911
v 133.833725 477.079803 157.832474
v 141.517181 469.388458 158.439651
v 145.908447 473.806549 155.612778
v 129.507706 469.387207 158.412216
v 143.705154 480.277802 154.174271
v 135.366104 471.437378 152.500000
v 143.369308 465.996887 153.328033
v 137.416977 471.437408 152.499985
v 128.026047 473.002258 156.874176
v 141.516815 467.371460 152.735825
v 144.325729 479.072266 155.626297
v 144.278793 467.364838 153.202957
v 129.529343 471.417297 152.743576
v 145.918945 473.807709 155.496597
v 137.416992 469.387207 158.471527
v 145.123917 475.854889 154.148239
v 133.607147 473.781738 152.569366
v 137.415192 467.385193 158.241211
v 127.067787 471.659058 157.359039
v 135.366089 471.437225 158.500015
v 131.556763 471.437958 158.445114
v 135.366135 467.357330 152.675323
v 133.636047 467.135223 158.284180
v 127.988831 472.935120 154.213394
v 133.571030 465.096985 154.093430
v 129.521576 471.422791 158.291824
v 135.317749 464.621521 154.150696
v 125.924515 469.183807 157.794418
v 134.484024 466.354248 157.894150
v 137.414536 465.678680 153.278107
v 144.470886 473.789062 153.304810
v 129.938858 474.998322 154.138641
v 141.517792 475.831299 152.543762
v 131.443069 476.142853 154.169479
v 144.641556 477.645447 156.536407
v 143.512344 469.391663 158.204330
v 131.569504 464.967010 154.030838
v 129.184174 474.165436 157.061707
v 127.460297 467.360901 152.722397
v 132.784180 476.491211 157.784882
v 124.129990 467.114807 153.479767
v 133.806854 478.152161 156.764313
v 143.287094 466.586487 157.594681
v 144.522430 469.385773 157.724823
v 143.531677 475.828949 152.742126
v 127.464088 465.628204 153.209518
v 144.379959 466.259827 156.105103
v 141.516373 477.856110 152.709106
v 124.704750 468.915894 156.455948
v 126.035751 470.897766 154.199509
v 143.461884 479.688416 153.279465
v 143.500366 473.780518 158.198196
v 139.467911 471.437286 152.500000
v 130.657471 464.647339 154.526810
v 144.374023 467.617065 157.595581
v 127.581078 471.303650 153.186096
v 123.011841 465.025055 154.642242
v 145.069077 471.651367 154.180435
v 127.469185 464.156738 153.972214
v 137.416779 467.360352 152.692459
v 124.443260 467.230042 156.119141
v 144.281982 473.790527 157.805588
v 133.607712 473.781311 158.439911
v 126.106918 470.906342 156.707336
v 135.369003 475.818665 152.650711
v 127.472977 467.384338 158.167526
v 124.787239 468.852722 153.326859
v 144.077942 479.374573 153.348404
v 135.366119 469.386383 158.484024
v 131.556549 469.387054 152.520569
v 135.082062 478.609314 154.195511
v 125.696114 464.390167 153.839294
v 144.364716 471.406128 157.818146
v 144.342041 479.573181 154.061676
v 141.390472 465.385498 154.169067
v 133.656494 477.708099 154.148193
v 132.430969 476.933350 154.123199
v 139.475830 480.448792 154.116425
v 143.395966 465.659332 153.998444
v 139.460831 478.987518 157.799561
v 133.638123 465.441498 156.706650
v 141.473404 465.881317 153.355423
v 133.631317 475.794464 158.230728
v 145.070862 471.380646 156.872299
v 137.809555 478.853821 157.761429
v 141.470474 480.608368 154.258942
v 133.636978 475.789612 152.789429
v 144.017792 466.356415 153.353424
v 144.368332 475.840485 157.931122
v 144.356537 469.427856 153.170547
v 141.517792 473.781097 158.465164
v 145.970749 473.813751 154.923080
v 130.096085 475.195404 156.790344
v 135.366074 469.386444 152.515701
v 136.424286 478.635651 153.328369
v 137.401199 466.357544 157.743118
v 144.786041 467.500519 154.147263
v 129.503342 466.330688 157.790543
v 138.014160 464.267242 154.251999
v 139.618866 479.607788 153.328064
v 144.975189 475.533783 156.796021
v 144.514038 471.452942 153.311096
v 137.439957 477.826965 152.825745
v 127.462769 469.366608 152.730774
v 130.588989 474.733612 157.743256
v 144.827194 477.764893 154.085754
v 139.363678 465.632507 153.213745
v 135.365906 473.781250 158.489426
v 126.457176 470.152649 157.741531
v 131.823181 475.539062 153.161545
# 244 vertices, 0 vertices normals

f 41 126 197
f 101 140 151
f 120 111 184
f 10 187 93
f 115 67 203
f 96 233 44
f 204 147 36
f 244 127 15
f 175 34 72
f 119 216 144
f 36 147 190
f 118 128 1
f 169 240 150
f 185 208 139
f 117 51 65
f 14 156 228
f 37 64 214
f 2 98 30
f 76 110 177
f 217 135 107
f 179 26 27
f 204 52 147
f 93 47 17
f 114 117 87
f 191 34 35
f 26 150 122
f 105 146 222
f 184 6 201
f 114 87 90
f 233 209 216
f 187 47 93
f 11 193 62
f 120 184 198
f 191 193 34
f 46 212 130
f 94 230 4
f 164 194 156
f 215 25 157
f 232 66 82
f 84 243 9
f 224 85 236
f 230 152 77
f 27 122 185
f 142 91 187
f 101 15 52
f 3 13 133
f 118 37 128
f 81 177 110
f 101 228 140
f 188 82 66
f 105 181 76
f 114 103 51
f 165 192 137
f 113 71 156
f 195 6 183
f 188 3 82
f 223 90 169
f 185 122 202
f 184 201 102
f 16 191 56
f 64 98 2
f 59 102 201
f 139 208 145
f 121 42 62
f 70 23 81
f 233 216 241
f 194 119 92
f 149 53 79
f 41 67 155
f 68 36 238
f 209 123 213
f 126 217 197
f 214 64 51
f 186 225 86
f 237 28 33
f 121 57 42
f 194 92 228
f 244 221 63
f 1 128 219
f 38 210 176
f 84 162 243
f 18 138 132
f 52 15 22
f 227 109 172
f 186 196 207
f 232 82 57
f 99 88 175
f 122 240 202
f 185 202 208
f 206 133 11
f 190 184 102
f 126 227 75
f 186 86 97
f 80 39 86
f 152 60 203
f 237 33 46
f 189 131 170
f 126 174 217
f 207 148 218
f 24 68 69
f 185 139 45
f 73 113 24
f 47 61 17
f 1 39 80
f 97 86 103
f 224 61 125
f 99 56 88
f 234 112 220
f 27 26 122
f 172 143 158
f 129 84 138
f 189 178 21
f 209 141 216
f 63 221 5
f 117 139 145
f 49 125 47
f 67 154 203
f 42 57 116
f 210 205 176
f 8 78 237
f 121 62 134
f 157 32 163
f 53 20 108
f 168 75 227
f 73 71 113
f 135 176 19
f 16 195 62
f 4 77 123
f 197 242 154
f 157 132 115
f 81 23 177
f 105 110 181
f 11 62 116
f 88 56 35
f 227 239 109
f 120 198 243
f 180 173 72
f 84 200 162
f 83 25 66
f 117 169 87
f 107 19 106
f 92 140 228
f 39 214 103
f 130 212 64
f 3 11 13
f 120 243 162
f 91 144 49
f 132 138 160
f 42 116 62
f 121 134 162
f 101 151 15
f 169 150 235
f 31 229 130
f 179 182 167
f 14 228 101
f 9 143 43
f 68 173 95
f 236 85 192
f 159 71 73
f 144 50 49
f 218 148 192
f 93 17 28
f 180 72 34
f 8 229 31
f 9 198 153
f 136 170 131
f 104 207 178
f 99 195 191
f 91 49 187
f 9 160 138
f 235 150 137
f 85 21 218
f 238 190 102
f 105 222 213
f 19 1 106
f 43 143 109
f 40 96 44
f 117 145 169
f 79 108 136
f 155 160 109
f 82 116 57
f 23 136 131
f 76 177 189
f 53 108 79
f 186 97 196
f 217 107 242
f 18 129 138
f 179 165 26
f 170 12 104
f 158 143 198
f 117 65 30
f 236 192 165
f 152 70 77
f 117 30 45
f 190 55 158
f 231 21 85
f 234 182 112
f 98 220 30
f 230 60 152
f 2 30 65
f 61 236 74
f 23 131 177
f 159 89 161
f 174 135 217
f 234 220 98
f 37 130 64
f 48 142 10
f 170 104 178
f 111 6 184
f 190 147 55
f 5 8 205
f 172 158 54
f 96 89 94
f 244 151 221
f 199 10 78
f 149 79 70
f 146 231 224
f 26 137 150
f 20 106 29
f 83 66 100
f 221 48 199
f 92 142 140
f 96 44 233
f 59 201 72
f 97 103 114
f 229 46 130
f 8 237 229
f 76 189 21
f 148 137 226
f 52 22 147
f 67 197 154
f 20 29 108
f 92 119 91
f 39 103 86
f 100 232 129
f 183 6 120
f 47 125 61
f 123 81 110
f 28 167 33
f 3 133 11
f 94 89 32
f 108 12 136
f 27 112 182
f 206 11 193
f 29 80 225
f 99 191 56
f 17 74 167
f 68 238 173
f 100 129 18
f 244 15 151
f 96 94 44
f 242 107 20
f 244 211 168
f 14 52 204
f 69 95 13
f 79 136 23
f 83 18 25
f 44 94 4
f 37 214 219
f 179 167 74
f 180 34 193
f 114 51 117
f 161 89 40
f 242 53 154
f 83 100 18
f 87 169 90
f 44 233 241
f 46 234 212
f 181 110 76
f 24 36 68
f 244 63 211
f 146 224 125
f 38 211 210
f 9 43 160
f 163 32 89
f 194 228 156
f 55 22 54
f 43 109 160
f 161 164 71
f 100 66 232
f 41 197 67
f 215 157 163
f 158 198 184
f 105 231 146
f 113 204 24
f 105 76 231
f 117 45 139
f 64 2 65
f 202 240 208
f 107 106 20
f 171 13 3
f 11 180 193
f 223 169 235
f 80 86 225
f 190 158 184
f 113 14 204
f 25 18 157
f 33 167 182
f 44 4 233
f 161 44 164
f 48 140 142
f 185 45 112
f 44 241 164
f 132 160 155
f 159 73 171
f 179 74 165
f 186 207 104
f 84 9 138
f 9 243 198
f 73 69 171
f 55 54 158
f 215 163 89
f 142 187 10
f 49 50 125
f 230 32 60
f 148 235 137
f 149 154 53
f 82 11 116
f 114 90 223
f 99 6 195
f 169 145 208
f 1 219 39
f 159 215 89
f 230 77 4
f 183 120 134
f 41 239 126
f 165 137 26
f 195 183 134
f 73 24 69
f 242 20 53
f 5 205 210
f 106 80 29
f 186 104 225
f 70 79 23
f 194 241 119
f 115 132 155
f 211 63 210
f 4 123 209
f 135 19 107
f 15 127 22
f 238 59 173
f 41 155 109
f 121 162 200
f 222 141 213
f 8 31 205
f 133 193 11
f 166 172 54
f 166 54 22
f 109 143 172
f 146 125 50
f 205 31 124
f 189 177 131
f 136 12 170
f 78 93 28
f 214 51 103
f 88 35 175
f 106 1 80
f 48 10 199
f 152 149 70
f 119 144 91
f 196 235 148
f 71 164 156
f 115 203 60
f 148 137 192
f 207 196 148
f 16 56 191
f 85 218 192
f 40 89 96
f 129 200 84
f 36 190 238
f 92 91 142
f 94 32 230
f 14 101 52
f 187 49 47
f 232 200 129
f 244 166 127
f 151 140 48
f 55 147 22
f 126 75 174
f 224 236 61
f 78 28 237
f 221 199 5
f 179 27 182
f 59 72 173
f 45 30 220
f 45 220 112
f 121 200 57
f 64 65 51
f 148 226 137
f 61 74 17
f 75 38 174
f 63 5 210
f 29 225 12
f 222 50 141
f 38 176 135
f 68 95 69
f 171 69 13
f 188 66 171
f 157 60 32
f 46 33 234
f 229 237 46
f 58 124 118
f 38 135 174
f 157 18 132
f 95 180 11
f 95 173 180
f 151 48 221
f 166 22 127
f 233 4 209
f 5 199 8
f 19 118 1
f 153 198 143
f 178 218 21
f 16 191 195
f 13 11 133
f 97 114 223
f 168 38 75
f 64 212 98
f 124 31 130
f 176 124 58
f 33 182 234
f 197 217 242
f 113 156 14
f 13 95 11
f 209 213 141
f 169 208 240
f 96 7 94
f 99 175 6
f 161 40 44
f 176 118 19
f 164 241 194
f 76 21 231
f 222 146 50
f 16 62 193
f 144 141 50
f 122 150 240
f 175 72 201
f 149 203 154
f 241 216 119
f 37 219 128
f 234 98 212
f 219 214 39
f 3 13 82
f 159 66 215
f 120 162 134
f 199 78 8
f 124 130 37
f 41 109 239
f 74 236 165
f 176 205 124
f 105 213 110
f 195 134 62
f 97 223 196
f 157 115 60
f 115 155 67
f 16 193 191
f 159 171 66
f 96 94 7
f 108 29 12
f 244 168 166
f 13 11 82
f 238 102 59
f 77 70 81
f 27 185 112
f 189 170 178
f 191 35 56
f 77 81 123
f 126 239 227
f 175 201 6
f 216 141 144
f 215 66 25
f 196 223 235
f 123 110 213
f 28 17 167
f 224 231 85
f 168 211 38
f 118 124 37
f 152 203 149
f 120 6 111
f 24 204 36
f 104 12 225
f 168 227 166
f 232 57 200
f 10 93 78
f 188 171 3
f 35 34 175
f 206 193 133
f 159 161 71
f 9 153 143
f 176 58 118
f 178 207 218
f 166 227 172
# 492 faces, 0 coords texture

# End of File