####
#
# OBJ File Generated by Meshlab
#
####
# Object Volume_239.obj
#
# Vertices: 452
# Faces: 908
#
####
v 134.742722 405.955658 145.883102
v 146.227112 402.356354 154.922562
v 132.128036 402.846130 151.286118
v 142.399902 419.262451 161.855621
v 143.105820 412.563965 160.652359
v 145.989548 404.657074 152.891418
v 143.248642 401.945282 152.508514
v 144.465729 406.464050 147.527664
v 132.371582 406.744507 157.501816
v 146.161560 420.739380 154.840179
v 139.174500 402.167969 148.832169
v 133.120270 420.681549 160.527100
v 137.016159 425.172546 150.836807
v 131.463074 422.517090 151.284348
v 141.162933 406.731415 161.034424
v 132.825027 425.181854 152.476608
v 132.190231 407.578156 158.888763
v 131.832962 414.593018 153.203918
v 134.775055 425.310120 151.074890
v 141.223312 424.751770 157.483780
v 132.177032 416.678406 159.577637
v 139.142532 404.636108 160.737183
v 133.356400 402.772430 155.035446
v 141.190369 404.656830 160.648804
v 141.197968 412.547211 161.286819
v 132.275833 414.602478 155.073517
v 133.530670 406.738922 160.090714
v 141.198318 402.897278 146.744431
v 133.514832 423.598694 159.298279
v 134.850662 404.686157 160.329575
v 136.833252 401.899658 157.477570
v 145.866531 420.807404 157.252365
v 132.159775 418.709717 155.044800
v 143.191315 402.500916 148.905182
v 143.221603 424.508484 157.445740
v 145.722519 410.787140 157.271118
v 132.312988 408.758118 159.448792
v 144.353638 404.629364 146.979309
v 136.832611 406.943573 146.020584
v 131.825073 408.727844 152.815857
v 131.854721 404.555084 146.442886
v 133.075623 418.691864 160.497665
v 132.099030 412.544952 158.954803
v 132.254837 420.759460 157.408829
v 143.235428 402.042114 157.470947
v 143.845917 422.463409 161.319321
v 144.275543 402.487701 158.682663
v 132.188690 410.781006 157.318787
v 134.770233 417.197266 148.080215
v 143.256439 401.899170 154.999283
v 139.153290 406.949249 146.004868
v 136.867554 420.749939 162.139481
v 132.671494 408.726349 146.940521
v 144.146362 423.453247 160.254532
v 130.210632 406.657318 147.974060
v 136.831512 405.937592 145.870605
v 143.021820 412.525391 147.575394
v 131.523682 410.550079 147.936752
v 134.785782 402.843079 146.734375
v 143.128799 424.211121 149.948959
v 134.809113 420.713165 148.809509
v 141.192352 410.787659 161.254425
v 131.796707 410.780853 152.834305
v 134.921204 423.516602 160.648224
v 131.884094 406.627655 152.652084
v 136.329468 425.047516 150.382050
v 144.483749 420.954315 160.473923
v 139.174911 401.724396 154.999786
v 141.218369 423.536896 160.808640
v 141.182144 408.742828 161.194168
v 144.594910 412.527161 148.877731
v 141.215256 422.435272 161.707809
v 136.904999 416.714325 161.676666
v 131.419403 416.663696 152.061554
v 143.045578 406.761566 160.487717
v 133.109680 402.789337 157.558975
v 139.175217 420.736603 148.616882
v 144.334488 416.656891 159.917358
v 136.828690 403.325653 146.265305
v 139.174286 408.740448 161.360275
v 144.920380 404.662750 148.751602
v 142.692459 420.838013 161.857727
v 144.867996 422.865540 150.842926
v 144.245743 410.787170 159.822906
v 139.175049 401.761536 152.502151
v 130.918457 408.577881 148.809219
v 131.520279 419.353851 159.187378
v 134.792053 424.330200 149.864594
v 134.894226 402.383636 159.105499
v 146.204330 416.645966 154.827332
v 141.272934 418.735657 148.271973
v 139.160187 417.219055 147.985916
v 139.173950 410.786072 161.442764
v 131.240570 404.660980 150.505295
v 144.127930 412.473999 148.285141
v 131.488785 422.758331 152.515030
v 131.417191 414.599976 152.053680
v 136.830780 417.207123 148.017548
v 139.220886 405.947540 145.861908
v 131.833649 403.436798 146.489960
v 131.699448 413.091736 148.134140
v 132.097076 410.775879 158.934418
v 132.865387 422.500977 159.185837
v 144.432190 418.106903 159.978760
v 135.586319 420.838623 161.931396
v 144.218735 408.737823 159.794724
v 136.840332 422.813568 149.149109
v 132.410736 406.730042 155.180420
v 131.117615 406.679626 150.633041
v 144.390015 402.767914 158.924088
v 139.175217 401.872864 157.481674
v 141.290649 416.816956 161.715012
v 141.221542 424.276489 159.418976
v 144.526199 414.377625 149.122391
v 136.832016 401.785736 152.502945
v 141.211029 422.669281 149.077759
v 141.210312 420.725128 148.691360
v 132.810181 420.667175 149.314285
v 136.831863 410.746124 146.728180
v 131.226913 416.648315 150.802597
v 132.232895 416.624207 154.982025
v 131.681976 404.618011 151.645218
v 132.815384 424.949493 153.253082
v 131.228592 418.809784 150.813873
v 136.841827 423.536194 160.809586
v 139.174103 414.592773 161.563416
v 145.969070 422.723907 154.885590
v 136.836792 412.545563 161.407303
v 130.241272 406.655914 147.915527
v 136.827866 406.688782 161.043274
v 144.433029 418.588104 149.665131
v 144.887024 408.644897 148.743561
v 143.631287 417.191650 148.223526
v 139.179153 406.717896 161.193573
v 131.314697 408.415497 147.805328
v 136.830658 408.749146 146.385193
v 134.857452 424.468201 157.442764
v 144.602066 424.960815 152.325302
v 132.764206 403.277954 146.282990
v 139.176239 423.544891 160.815277
v 145.635529 404.670532 157.075836
v 145.503311 422.711060 152.820633
v 141.219421 402.370300 159.214508
v 132.821487 412.410492 147.488953
v 144.248093 410.769775 148.160141
v 144.838013 408.610657 159.031067
v 143.214371 424.100189 159.377090
v 136.831131 401.906158 150.526321
v 133.240021 414.669159 160.471268
v 131.734970 418.527466 153.307755
v 136.836609 402.388916 159.194641
v 134.784607 402.205414 148.838867
v 139.174957 404.646942 145.853287
v 144.640976 402.524323 150.753372
v 143.612015 417.116486 148.187439
v 145.734116 416.645630 152.555176
v 145.031891 406.668030 148.848511
v 143.984177 404.721069 146.553619
v 132.306564 412.555786 159.543427
v 139.174927 425.202637 155.009659
v 136.833298 420.730865 148.660187
v 133.114609 416.237122 148.125931
v 145.015945 402.453033 152.559357
v 143.890335 402.724213 159.312729
v 144.300491 423.689880 159.271957
v 132.309814 410.786499 155.180222
v 136.832352 414.596191 161.486084
v 133.488846 422.558746 160.452515
v 132.719803 404.660431 157.505280
v 139.177536 425.033936 150.780746
v 137.056335 419.057465 162.030502
v 134.787643 414.579926 147.538254
v 145.785934 414.523682 157.227066
v 136.833237 401.765533 154.999374
v 145.699585 408.793671 157.244110
v 136.473038 418.056854 161.833420
v 144.857513 424.580780 153.079193
v 132.837189 402.958923 146.718765
v 141.247177 418.739563 162.116104
v 132.307755 412.552338 155.171021
v 132.043335 408.741699 158.935989
v 134.788208 401.982147 150.531693
v 134.831085 416.660431 161.251831
v 131.796951 416.620270 153.231537
v 143.253220 424.964325 154.966446
v 131.077576 410.701111 148.840302
v 132.187531 420.770782 155.075974
v 133.196777 424.242126 154.613754
v 144.107254 414.716095 148.635391
v 143.146744 410.748383 147.370605
v 146.218735 414.622131 154.717178
v 139.172531 402.854858 146.744934
v 143.074234 408.759613 160.582413
v 132.566177 425.065094 150.235245
v 145.649826 406.682404 150.852478
v 143.320007 422.712036 149.396881
v 141.218170 414.588165 147.517502
v 136.829651 418.720917 148.319794
v 136.841644 410.789734 161.351349
v 134.777267 418.705536 148.444351
v 146.197479 418.697235 155.947617
v 143.110718 402.424103 159.114426
v 146.097061 406.683044 152.873276
v 145.597397 423.825470 155.876938
v 134.785904 425.015503 150.446381
v 132.201645 408.775391 157.309006
v 133.305496 402.831268 158.934021
v 144.819336 422.733215 159.411240
v 132.816635 414.554321 147.861832
v 136.831085 402.162689 148.830963
v 139.175034 425.413727 152.485580
v 134.853058 414.601166 161.145538
v 132.807526 404.606598 146.024368
v 136.830429 425.399475 153.499313
v 143.357803 408.656891 147.054474
v 143.214828 414.561401 148.039627
v 139.177261 414.598480 147.421219
v 139.174164 422.829681 149.107285
v 131.509964 419.774719 159.131500
v 141.047424 417.351868 148.012863
v 146.208878 412.539642 154.267944
v 144.916855 414.670746 158.989151
v 146.283493 410.678711 155.222733
v 141.228455 412.628723 147.133911
v 136.853989 408.747620 161.259048
v 145.305496 424.110260 155.017975
v 144.320984 407.992737 147.773727
v 132.780914 402.329834 150.524841
v 145.879089 412.555542 152.499405
v 143.017319 422.460205 161.562668
v 131.857330 414.489166 148.381454
v 131.196198 404.798920 147.213196
v 130.860092 404.730835 148.754303
v 132.182693 412.546631 157.389404
v 131.773575 424.747650 152.459183
v 136.829880 425.442841 152.481506
v 136.831299 416.224792 147.802368
v 143.279129 425.329926 152.517487
v 131.099106 410.871460 150.672058
v 141.207901 404.654236 145.895462
v 136.847855 402.985352 159.874573
v 141.226562 425.008698 150.780533
v 142.995590 404.807343 160.264572
v 134.949951 418.793671 161.494644
v 143.249878 402.103333 150.547623
v 132.882980 422.687012 157.496307
v 133.199249 410.869263 160.332031
v 141.225464 425.171844 155.004608
v 132.553925 425.106781 150.284836
v 141.203201 402.982941 159.922302
v 134.866821 412.554901 161.091187
v 134.740936 420.723846 161.627243
v 134.578140 422.593201 161.283829
v 144.277588 420.715179 149.875153
v 134.945801 406.723419 160.708038
v 145.700653 418.696259 152.565781
v 133.101852 404.682800 159.148193
v 134.839798 424.090454 159.372467
v 136.830002 402.849945 146.744186
v 145.540802 408.812012 150.755051
v 143.070404 406.378723 146.276428
v 134.806351 401.939545 152.499847
v 145.596710 422.726868 157.251953
v 144.176224 406.689484 159.744247
v 132.793457 402.482971 148.879669
v 133.054779 416.646790 160.450836
v 132.489349 422.799194 154.953735
v 143.096008 410.792847 160.630707
v 134.825851 401.958984 154.997726
v 131.327011 420.646637 150.844818
v 141.253250 406.267944 145.927811
v 132.320847 408.741913 155.185989
v 134.798218 410.729462 146.831268
v 141.219177 402.217102 148.842911
v 144.998077 420.744781 150.903030
v 146.076035 408.725006 152.885864
v 131.795578 412.436096 153.071686
v 131.228241 412.372406 148.863556
v 139.174942 425.404449 153.500076
v 134.822769 422.785492 149.279236
v 143.147278 414.610352 160.692261
v 143.544952 417.254700 148.161179
v 144.355179 409.320038 148.077698
v 145.723175 412.545441 157.276627
v 141.226227 425.408417 152.487305
v 143.193039 423.430939 160.724457
v 132.577866 416.811157 148.497635
v 144.548203 416.623962 149.595642
v 136.832047 425.163361 155.003342
v 136.830765 404.645355 145.856537
v 144.219406 422.310242 149.928528
v 146.180252 416.649323 155.937317
v 139.260437 424.404938 149.952301
v 134.779465 416.221344 147.850601
v 146.196579 418.696014 154.832230
v 144.316345 424.962372 151.298569
v 135.326523 422.469086 161.619431
v 145.101395 420.763672 159.183426
v 132.656067 410.713196 147.252945
v 139.177643 420.728790 162.184631
v 132.652267 418.625519 149.017395
v 131.556290 419.300293 159.221283
v 131.389343 414.543976 149.060242
v 134.793350 404.648773 145.865417
v 131.498520 402.767395 150.406540
v 143.411392 417.618256 148.129974
v 143.212128 424.990021 150.831497
v 136.956482 424.440796 149.941406
v 144.699585 410.774384 148.837158
v 132.152405 416.654144 157.389603
v 134.771362 425.313690 153.486862
v 146.276123 402.393799 154.936890
v 134.683624 410.811493 160.965881
v 146.211411 406.683197 154.963074
v 144.521896 424.676849 151.207886
v 144.772659 402.453033 157.165466
v 134.782990 425.424988 152.477585
v 146.228653 408.737457 154.970840
v 146.218216 412.544281 155.446518
v 139.175278 408.752136 146.363495
v 131.665497 412.123169 148.014175
v 132.002869 423.034210 150.448196
v 145.781342 414.594940 152.540741
v 134.818497 402.027710 157.474915
v 146.022629 422.768188 155.880753
v 132.608078 425.102356 150.231277
v 139.177567 402.985352 159.950912
v 136.835495 424.262970 159.414536
v 139.175034 410.753204 146.709457
v 134.297104 402.728210 159.492355
v 134.954391 402.990387 159.798676
v 144.993057 416.649872 158.974213
v 132.696274 404.623383 155.126511
v 145.073563 402.869354 151.012466
v 139.181900 416.231628 147.787994
v 144.881577 406.686432 158.904602
v 134.780746 408.735046 146.475922
v 132.127716 404.599518 152.628433
v 145.289383 412.561188 150.612518
v 145.646118 420.736816 152.581924
v 131.370117 420.885559 152.365417
v 143.391586 418.570770 161.322998
v 134.767212 403.320953 146.254974
v 141.194550 420.724976 162.138306
v 143.743652 420.728302 161.254730
v 144.769302 410.785919 159.179977
v 133.289551 402.551788 158.627975
v 136.844742 422.440430 161.718430
v 139.173935 418.726257 148.282852
v 133.398041 402.316284 152.337311
v 144.040833 424.516174 150.471024
v 143.279938 420.689758 149.172638
v 145.085770 418.697174 150.857605
v 141.214737 403.334320 146.270096
v 145.091782 418.681000 159.173935
v 141.234238 407.212524 146.087067
v 144.253494 414.562469 159.836212
v 136.829834 412.495117 147.038025
v 143.241257 425.250549 153.466568
v 144.237503 423.624329 150.211151
v 131.190399 414.589691 150.748077
v 144.778351 412.544739 159.185059
v 141.223251 401.888733 157.480240
v 136.860535 404.767029 160.669571
v 143.601151 406.961914 146.675140
v 145.505280 402.884491 152.634521
v 145.128479 416.644531 150.836884
v 141.980011 417.945099 161.738876
v 131.719345 424.534912 152.533600
v 141.200287 410.749451 146.815018
v 143.040482 403.008362 159.711670
v 146.288681 411.023529 154.204010
v 132.608185 406.782288 146.445206
v 136.831421 414.595520 147.447693
v 141.225983 401.922424 150.527344
v 131.972809 416.663635 159.090210
v 131.126907 408.744354 150.639557
v 145.234818 414.604736 150.789322
v 133.003159 422.662109 149.683838
v 144.242630 422.715240 160.884964
v 141.225220 401.776886 152.502655
v 141.333527 416.560547 147.848801
v 134.728928 408.770935 160.840103
v 139.177139 402.380066 159.213608
v 132.168762 414.595245 157.388535
v 145.224487 402.878510 157.128235
v 144.794540 404.637024 158.843185
v 131.582077 416.535980 149.499908
v 131.677414 420.572906 153.496475
v 142.923676 403.351257 146.407883
v 133.163651 406.142242 146.101593
v 131.416351 403.277405 148.870834
v 145.892685 418.697083 157.191055
v 144.096939 404.667786 159.607803
v 143.199066 416.692139 160.873871
v 141.213943 408.748077 146.465790
v 144.382904 419.381775 160.278702
v 144.089813 403.419739 147.434952
v 145.980911 410.726318 152.603165
v 139.174362 412.544769 161.477509
v 139.175934 403.327362 146.267395
v 134.717758 406.934601 146.063446
v 132.597565 406.759888 159.218445
v 132.270096 414.563721 159.579102
v 146.172119 404.578125 154.923950
v 146.227219 402.341339 154.983276
v 139.184677 418.772736 162.130753
v 145.004135 423.851715 156.944427
v 133.732040 404.911346 159.875214
v 136.835129 424.733826 157.480621
v 132.781677 402.801941 152.416824
v 131.534775 418.434296 149.898102
v 145.862488 416.651245 157.168655
v 146.171936 420.746399 155.941940
v 132.086288 418.656036 157.425385
v 144.251907 412.545105 159.830460
v 129.984161 406.667328 148.404236
v 139.173538 422.438751 161.730637
v 145.734573 406.680389 157.120361
v 139.171188 416.816132 161.816208
v 141.219788 424.234772 149.814178
v 146.177460 414.421204 155.743454
v 143.136856 404.618011 146.142227
v 132.314880 410.796844 159.513336
v 133.337311 412.558655 160.467133
v 139.201141 412.521210 147.008606
v 131.781357 424.556946 151.736649
v 131.789948 420.650665 150.044037
v 139.175003 424.785767 157.489410
v 131.585510 403.447205 146.927170
v 134.823227 424.929718 154.961197
v 139.175430 424.292267 159.423508
v 133.759277 423.910767 157.442535
v 134.784988 412.474884 147.136353
v 145.406204 410.718994 150.602524
v 133.368042 402.445770 157.834900
v 141.224655 425.400146 153.498489
v 132.078720 414.617584 158.988861
v 133.832214 402.336365 154.776505
v 141.224670 401.751251 154.999619
v 141.206055 414.605591 161.367264
v 144.406296 403.165283 149.022690
v 145.538574 404.655884 150.864517
v 143.368317 403.171600 146.770355
v 131.086914 412.464355 150.837601
v 131.552826 402.655426 150.181747
v 131.327805 418.840302 152.083740
v 133.674942 423.408569 160.090897
v 133.208374 408.757446 160.197968
v 139.175156 401.900940 150.525787
v 131.429794 412.835144 152.015305
v 131.538208 419.224457 159.215958
# 452 vertices, 0 vertices normals

f 411 23 439
f 366 406 6
f 188 123 311
f 63 445 277
f 15 75 243
f 172 374 294
f 273 136 119
f 267 187 96
f 226 127 325
f 374 426 217
f 289 279 160
f 249 19 317
f 429 160 20
f 322 379 326
f 53 299 135
f 88 66 205
f 55 129 417
f 175 346 36
f 413 393 201
f 281 395 357
f 342 345 397
f 365 158 8
f 120 303 388
f 399 318 223
f 1 290 56
f 302 44 246
f 182 152 228
f 402 53 373
f 192 354 401
f 157 132 227
f 179 344 4
f 404 21 266
f 186 58 278
f 295 292 201
f 373 41 213
f 157 8 38
f 342 104 78
f 155 133 282
f 160 248 20
f 326 249 427
f 157 443 195
f 440 45 50
f 235 369 427
f 378 323 367
f 141 387 419
f 344 82 4
f 99 271 356
f 234 180 385
f 33 121 150
f 97 74 18
f 280 161 107
f 170 285 211
f 408 226 204
f 430 178 139
f 245 154 442
f 6 405 203
f 194 280 88
f 338 122 65
f 375 381 7
f 340 127 142
f 119 320 329
f 134 80 15
f 216 95 189
f 177 138 315
f 164 394 110
f 337 39 136
f 269 31 174
f 217 224 197
f 391 373 213
f 69 286 230
f 333 9 169
f 450 11 148
f 375 7 245
f 447 150 184
f 298 380 208
f 356 261 365
f 24 243 371
f 200 198 61
f 334 443 442
f 171 52 407
f 32 325 414
f 300 344 179
f 216 189 282
f 203 405 314
f 374 217 237
f 77 91 117
f 326 194 249
f 362 357 222
f 260 276 435
f 119 136 320
f 435 309 132
f 93 62 70
f 293 242 170
f 144 231 101
f 125 328 140
f 42 266 21
f 255 130 364
f 437 285 359
f 165 147 35
f 187 44 33
f 249 235 427
f 335 382 220
f 215 145 190
f 426 370 224
f 162 287 209
f 91 282 133
f 410 289 429
f 300 418 344
f 334 163 366
f 298 263 32
f 388 301 412
f 244 105 171
f 370 190 224
f 298 67 380
f 400 25 62
f 296 315 138
f 244 252 105
f 247 37 424
f 224 190 57
f 36 319 223
f 415 310 121
f 231 287 303
f 119 329 358
f 197 216 382
f 255 383 130
f 196 83 360
f 381 50 7
f 198 349 161
f 177 142 127
f 55 129 232
f 363 202 45
f 120 361 303
f 275 256 340
f 272 40 63
f 120 388 124
f 111 31 384
f 313 199 225
f 168 253 252
f 134 15 24
f 408 35 185
f 68 111 363
f 192 28 354
f 111 384 143
f 87 219 302
f 189 114 288
f 387 264 336
f 438 404 159
f 366 163 406
f 431 289 410
f 302 246 103
f 83 315 360
f 5 357 416
f 331 30 241
f 182 210 152
f 127 414 325
f 316 47 110
f 64 348 297
f 386 405 312
f 29 433 258
f 155 282 306
f 394 264 387
f 111 143 363
f 297 348 52
f 404 376 21
f 13 19 205
f 202 164 47
f 95 71 114
f 386 316 110
f 90 422 292
f 437 359 248
f 177 238 138
f 73 171 420
f 162 49 287
f 116 196 421
f 449 403 37
f 392 446 265
f 396 215 370
f 327 250 143
f 55 232 373
f 177 359 238
f 89 331 151
f 434 119 358
f 212 167 128
f 245 163 154
f 75 193 106
f 439 436 324
f 409 330 207
f 322 428 379
f 263 204 325
f 294 374 237
f 87 302 12
f 81 398 442
f 138 238 307
f 338 108 333
f 173 413 292
f 289 160 429
f 118 200 61
f 435 276 399
f 87 452 219
f 413 201 292
f 64 258 125
f 112 368 342
f 74 447 184
f 323 90 156
f 386 141 405
f 419 318 314
f 252 297 105
f 416 357 362
f 169 403 257
f 425 159 149
f 129 233 232
f 55 373 135
f 78 104 332
f 384 327 143
f 177 185 359
f 87 44 302
f 268 5 416
f 145 71 95
f 296 138 307
f 103 29 448
f 102 48 234
f 61 161 280
f 183 73 167
f 285 238 359
f 384 241 327
f 321 278 58
f 170 242 285
f 28 34 444
f 435 399 229
f 242 238 285
f 431 214 289
f 413 222 332
f 249 317 16
f 284 222 173
f 70 62 193
f 89 347 207
f 267 96 369
f 89 330 331
f 381 440 50
f 103 448 168
f 13 205 66
f 231 209 287
f 23 333 169
f 382 216 155
f 152 265 228
f 233 94 305
f 286 380 46
f 118 61 379
f 446 228 265
f 260 132 195
f 378 229 323
f 401 153 290
f 358 329 426
f 177 127 226
f 51 136 39
f 103 433 29
f 311 214 431
f 449 27 403
f 342 397 355
f 284 362 222
f 258 328 125
f 140 69 72
f 327 241 364
f 363 143 202
f 177 226 185
f 322 14 270
f 345 380 67
f 22 364 130
f 247 425 313
f 129 94 233
f 429 113 432
f 449 255 27
f 229 221 191
f 188 431 137
f 112 179 368
f 303 361 278
f 326 19 249
f 389 150 341
f 164 110 47
f 59 259 79
f 200 98 198
f 384 31 151
f 371 394 164
f 236 211 279
f 162 209 172
f 88 107 308
f 415 87 452
f 409 27 30
f 336 106 146
f 188 137 433
f 23 76 436
f 298 208 263
f 152 59 178
f 97 18 277
f 236 317 19
f 172 358 374
f 337 136 273
f 321 101 278
f 181 206 48
f 329 370 426
f 190 95 57
f 218 116 421
f 350 228 3
f 282 131 133
f 409 257 27
f 369 96 14
f 443 366 6
f 252 253 297
f 175 419 336
f 89 207 330
f 435 229 339
f 161 77 107
f 392 305 446
f 81 38 398
f 451 445 361
f 10 414 127
f 43 234 385
f 156 90 295
f 264 106 336
f 99 356 51
f 391 304 1
f 284 173 422
f 365 8 227
f 298 355 397
f 123 235 16
f 157 195 132
f 102 234 43
f 86 186 377
f 199 128 93
f 4 82 345
f 224 57 197
f 240 423 271
f 353 156 256
f 441 112 281
f 446 305 228
f 87 12 42
f 284 422 319
f 173 292 422
f 86 129 55
f 120 97 361
f 373 53 135
f 3 94 122
f 346 416 362
f 382 282 220
f 76 207 347
f 350 439 269
f 77 117 218
f 179 4 342
f 28 444 390
f 28 390 354
f 86 55 135
f 197 57 216
f 389 33 150
f 215 132 283
f 243 75 264
f 324 151 31
f 63 277 166
f 302 168 12
f 145 309 71
f 132 309 283
f 262 174 115
f 105 52 171
f 43 159 424
f 430 392 265
f 438 385 310
f 21 376 452
f 367 156 353
f 165 263 208
f 101 231 278
f 60 351 307
f 108 65 40
f 349 91 77
f 87 42 21
f 171 407 420
f 282 288 131
f 304 290 1
f 421 196 60
f 106 84 146
f 365 227 215
f 407 179 112
f 64 125 348
f 340 10 127
f 76 169 257
f 338 65 108
f 329 396 370
f 11 274 192
f 275 340 83
f 282 133 306
f 415 44 87
f 112 342 395
f 408 204 263
f 192 274 28
f 386 387 141
f 379 280 194
f 107 77 218
f 196 351 60
f 333 108 9
f 260 435 132
f 117 352 116
f 215 227 132
f 34 442 444
f 81 157 38
f 432 113 69
f 128 167 400
f 69 113 286
f 86 135 186
f 212 183 167
f 444 398 38
f 184 121 26
f 192 401 259
f 110 394 387
f 343 79 304
f 327 22 250
f 126 420 441
f 198 92 349
f 451 97 277
f 229 191 323
f 262 269 174
f 449 37 247
f 326 427 14
f 169 9 403
f 418 140 72
f 388 287 301
f 270 14 341
f 175 36 223
f 341 14 96
f 55 417 129
f 133 131 254
f 411 333 23
f 91 133 117
f 450 274 11
f 20 35 147
f 411 439 350
f 311 317 214
f 102 424 37
f 194 88 205
f 237 335 92
f 256 295 10
f 334 366 443
f 116 352 196
f 439 324 269
f 236 279 214
f 152 178 265
f 134 225 80
f 353 256 275
f 367 323 156
f 370 215 190
f 270 341 447
f 248 359 185
f 401 354 153
f 108 40 272
f 112 395 281
f 188 311 431
f 11 192 259
f 425 424 159
f 36 362 284
f 399 223 372
f 12 168 252
f 297 52 105
f 298 32 355
f 444 38 158
f 212 149 266
f 87 302 452
f 409 207 257
f 256 10 340
f 153 99 56
f 181 102 37
f 168 448 253
f 49 98 200
f 334 442 154
f 107 218 308
f 137 258 433
f 444 442 398
f 215 283 145
f 408 185 226
f 279 211 437
f 123 369 235
f 323 191 90
f 86 109 129
f 22 130 134
f 283 309 145
f 155 306 133
f 22 134 24
f 409 30 331
f 251 128 199
f 268 416 84
f 226 325 204
f 279 437 160
f 68 174 111
f 371 243 394
f 335 197 382
f 32 414 393
f 175 336 146
f 153 56 290
f 62 25 268
f 411 338 333
f 23 436 439
f 218 421 293
f 415 452 376
f 350 262 228
f 434 209 144
f 184 150 121
f 392 233 305
f 350 269 262
f 160 437 248
f 30 364 241
f 68 363 440
f 125 140 418
f 65 377 40
f 87 21 452
f 82 230 46
f 158 38 8
f 167 73 126
f 175 223 318
f 409 331 330
f 196 360 351
f 367 131 288
f 187 246 44
f 443 6 195
f 68 115 174
f 103 246 433
f 123 16 311
f 438 310 376
f 51 39 56
f 216 282 155
f 273 119 434
f 221 223 319
f 426 224 217
f 413 332 393
f 389 187 33
f 412 301 428
f 199 93 80
f 272 63 166
f 59 343 178
f 232 41 373
f 389 96 187
f 331 241 151
f 234 166 180
f 274 34 28
f 89 436 347
f 345 67 397
f 324 89 151
f 243 264 394
f 202 371 164
f 30 255 364
f 80 93 70
f 111 174 31
f 298 397 67
f 391 213 304
f 195 6 203
f 345 46 380
f 45 47 316
f 140 432 69
f 427 369 14
f 181 37 403
f 43 438 159
f 412 270 124
f 321 144 101
f 11 210 148
f 352 254 291
f 25 441 5
f 159 404 149
f 51 356 320
f 353 254 131
f 378 288 114
f 90 292 295
f 237 92 98
f 379 194 326
f 406 405 6
f 75 106 264
f 445 278 361
f 399 221 229
f 1 39 402
f 231 303 278
f 408 263 165
f 450 85 381
f 277 18 180
f 340 142 83
f 378 114 71
f 59 210 259
f 93 400 62
f 122 94 109
f 206 166 48
f 444 423 390
f 82 46 345
f 386 110 387
f 308 218 293
f 99 51 56
f 65 122 109
f 419 387 336
f 27 257 403
f 271 423 261
f 450 375 274
f 441 281 5
f 386 312 406
f 17 206 181
f 282 189 288
f 267 246 187
f 391 1 402
f 378 367 288
f 81 443 157
f 45 202 47
f 1 56 39
f 352 291 196
f 406 312 2
f 356 215 396
f 143 250 202
f 43 385 438
f 161 349 77
f 253 64 297
f 134 130 225
f 430 232 233
f 275 83 291
f 400 126 25
f 410 429 432
f 434 358 172
f 421 60 307
f 13 236 19
f 186 135 58
f 430 233 392
f 242 307 238
f 85 148 115
f 388 412 124
f 36 346 362
f 412 428 270
f 162 172 294
f 99 240 271
f 299 58 135
f 386 2 316
f 367 353 131
f 74 184 18
f 29 64 448
f 181 48 102
f 120 124 74
f 118 379 428
f 182 262 115
f 175 146 346
f 186 239 377
f 167 126 400
f 12 252 244
f 302 103 168
f 17 403 9
f 128 400 93
f 358 426 374
f 16 317 311
f 272 206 9
f 434 172 209
f 393 332 355
f 263 325 32
f 295 201 10
f 141 419 314
f 430 100 41
f 25 5 268
f 293 421 242
f 411 350 3
f 327 364 22
f 221 319 191
f 182 148 210
f 342 355 104
f 98 92 198
f 250 371 202
f 120 74 97
f 183 244 73
f 399 276 318
f 52 300 407
f 175 318 419
f 438 376 404
f 85 68 440
f 137 328 258
f 211 285 437
f 49 200 301
f 32 393 355
f 54 286 147
f 7 50 2
f 430 41 232
f 81 442 443
f 269 324 31
f 360 315 351
f 415 121 33
f 436 76 347
f 326 205 19
f 118 428 301
f 415 376 310
f 310 26 121
f 193 84 106
f 40 239 63
f 404 266 149
f 72 230 82
f 348 125 418
f 447 341 150
f 244 171 176
f 80 70 15
f 42 183 266
f 76 257 207
f 321 299 144
f 62 268 193
f 275 291 254
f 449 383 255
f 357 78 222
f 343 304 213
f 225 199 80
f 280 107 88
f 260 195 203
f 406 312 405
f 7 2 163
f 247 424 425
f 190 145 95
f 59 79 343
f 321 58 299
f 230 286 46
f 11 259 210
f 402 337 53
f 50 316 2
f 240 390 423
f 313 251 199
f 182 228 262
f 445 239 278
f 49 301 287
f 100 139 213
f 237 217 335
f 63 239 445
f 177 315 142
f 142 315 83
f 435 339 309
f 308 293 170
f 108 272 9
f 450 148 85
f 372 223 221
f 326 194 205
f 18 184 26
f 277 180 166
f 353 275 254
f 113 147 286
f 182 115 148
f 157 227 8
f 36 284 319
f 423 158 261
f 337 273 299
f 165 208 380
f 411 122 338
f 10 201 414
f 152 210 59
f 133 254 352
f 415 33 44
f 193 268 84
f 48 166 234
f 65 109 377
f 383 225 130
f 222 78 332
f 251 212 128
f 196 291 83
f 54 380 286
f 448 64 253
f 57 95 216
f 339 71 309
f 250 24 371
f 343 139 178
f 247 313 383
f 420 112 441
f 348 418 300
f 375 34 274
f 92 220 349
f 430 265 178
f 382 155 282
f 220 282 91
f 393 414 201
f 395 78 357
f 386 406 2
f 244 176 73
f 273 434 144
f 144 209 231
f 156 295 256
f 117 133 352
f 146 84 346
f 218 117 116
f 332 104 355
f 153 354 240
f 354 390 240
f 304 79 290
f 294 98 49
f 326 249 194
f 383 313 225
f 276 314 318
f 100 213 41
f 410 432 328
f 51 320 136
f 15 70 75
f 191 319 422
f 305 3 228
f 430 139 100
f 40 377 239
f 179 342 368
f 294 237 98
f 440 363 45
f 339 229 378
f 13 66 308
f 322 270 428
f 342 4 345
f 249 16 235
f 17 9 206
f 349 220 91
f 129 109 94
f 50 45 316
f 384 151 241
f 251 149 212
f 102 43 424
f 84 416 346
f 54 147 165
f 42 12 244
f 425 149 251
f 305 94 3
f 73 420 126
f 401 290 79
f 24 15 243
f 61 198 161
f 273 144 299
f 261 158 365
f 13 170 211
f 418 72 344
f 20 248 35
f 451 277 445
f 118 301 200
f 444 158 423
f 267 188 433
f 320 396 329
f 334 154 163
f 322 326 14
f 356 365 215
f 449 247 383
f 335 220 92
f 236 214 317
f 391 402 373
f 406 2 312
f 406 163 2
f 245 7 163
f 402 39 337
f 52 348 300
f 385 26 310
f 137 431 410
f 343 213 139
f 124 447 74
f 389 341 96
f 173 222 413
f 267 369 188
f 248 185 35
f 72 69 230
f 203 314 276
f 73 176 171
f 126 441 25
f 399 372 221
f 272 166 206
f 420 407 112
f 401 79 259
f 13 211 236
f 5 281 357
f 271 261 356
f 29 258 64
f 124 270 447
f 191 422 90
f 296 351 315
f 188 369 123
f 137 410 328
f 344 72 82
f 267 433 246
f 85 440 381
f 27 255 30
f 217 197 335
f 425 251 313
f 450 381 375
f 162 294 49
f 395 342 78
f 13 308 170
f 379 61 280
f 153 240 99
f 296 307 351
f 85 115 68
f 42 244 183
f 95 114 189
f 23 169 76
f 337 299 53
f 186 278 239
f 339 378 71
f 451 361 97
f 411 3 122
f 407 300 179
f 212 266 183
f 17 181 403
f 18 26 180
f 88 308 66
f 408 165 35
f 22 24 250
f 421 307 242
f 214 279 289
f 70 193 75
f 302 219 452
f 260 203 276
f 54 165 380
f 388 303 287
f 375 245 34
f 320 356 396
f 141 314 405
f 20 147 113
f 328 432 140
f 429 20 113
f 86 377 109
f 245 442 34
f 324 436 89
f 385 180 26
# 908 faces, 0 coords texture

# End of File