####
#
# OBJ File Generated by Meshlab
#
####
# Object domain029.obj
#
# Vertices: 523
# Faces: 1046
#
####
v 106.361000 278.057281 122.548546
v 112.804977 284.503143 122.506447
v 116.057732 274.023041 123.310234
v 112.804932 295.050781 122.499985
v 112.808662 300.218445 123.193665
v 120.058662 293.012634 134.344849
v 109.406441 300.904510 124.858788
v 112.835724 290.947632 135.275391
v 105.638817 282.630157 125.862022
v 110.460922 274.695801 125.247726
v 119.428230 282.513214 134.217300
v 106.625954 278.679138 129.710938
v 110.873413 284.502777 135.089127
v 108.410004 280.400940 122.499977
v 107.322548 286.143707 128.033615
v 104.972664 284.268036 123.283714
v 118.897415 293.006927 135.203384
v 120.435524 295.114685 125.811478
v 121.376060 299.157349 130.013687
v 121.221619 297.124481 129.999207
v 112.134964 297.252869 134.540237
v 120.352364 301.405060 126.049965
v 111.272667 294.960938 133.901382
v 118.301399 282.532532 124.109520
v 107.756973 282.192047 133.531494
v 109.342033 292.911530 129.784592
v 107.645355 293.049133 124.831787
v 104.371178 280.399475 122.799210
v 107.176254 280.181610 132.318756
v 119.736008 280.022827 129.252991
v 109.131027 292.878662 127.881187
v 109.873199 286.532867 134.536163
v 116.864487 288.603577 122.747086
v 108.433350 300.007660 123.271759
v 112.510315 301.511627 134.129013
v 119.853592 280.295959 132.484589
v 108.440056 297.096863 122.715057
v 118.566254 277.165894 126.995377
v 111.636002 301.960754 132.652924
v 112.806503 302.705994 126.278961
v 119.511032 288.614929 134.654510
v 110.460960 284.503174 122.500015
v 112.803360 273.984253 123.936195
v 114.856033 286.553192 122.531944
v 114.854843 288.605194 122.533150
v 110.460434 277.917419 130.063599
v 114.856133 302.838684 126.231071
v 114.850990 274.734436 125.218658
v 106.806496 296.955963 123.439529
v 120.364998 299.167847 134.127533
v 106.568047 286.533569 125.596413
v 117.375351 276.166565 123.610359
v 104.704414 280.187805 125.453758
v 107.127708 284.359344 129.608658
v 105.502663 279.505768 128.844513
v 114.857040 277.929474 130.058594
v 121.675011 301.904785 129.454300
v 111.269730 281.297913 134.767075
v 116.905647 299.152802 135.437775
v 107.438286 291.991150 124.978882
v 120.790016 293.107452 127.796333
v 112.805138 277.092743 128.550827
v 119.617432 291.442139 134.827240
v 108.411263 288.605194 122.534485
v 106.893753 288.484375 125.321869
v 118.277962 276.301025 125.695503
v 114.896591 303.522064 135.190598
v 112.805084 286.553986 122.499947
v 118.848305 305.593323 132.334488
v 118.394737 297.107697 123.103088
v 121.034714 297.037659 127.596176
v 104.090103 280.436066 124.269455
v 118.906731 301.496857 135.219696
v 106.466690 277.463226 128.297531
v 103.397202 277.832703 123.524422
v 112.804825 282.451965 122.514359
v 108.410019 278.056885 122.508476
v 111.946335 295.020325 134.594925
v 110.460876 293.000031 122.500015
v 107.281647 300.171875 123.150887
v 118.943939 305.926788 134.186966
v 114.854874 290.949127 122.532074
v 118.268471 300.171844 123.362747
v 103.621040 282.382538 123.044746
v 106.366127 273.986969 123.929924
v 119.949677 286.468231 125.887566
v 118.940506 290.924469 135.101700
v 116.867348 290.950165 122.737732
v 106.411438 290.951202 122.773590
v 121.094543 295.088654 129.965256
v 108.411377 290.949097 122.536301
v 110.977470 292.814850 134.203964
v 120.921326 297.028900 132.237900
v 110.462082 297.099915 122.553787
v 105.416435 278.650391 128.543930
v 105.250160 279.692566 127.740356
v 114.860054 300.237640 123.164696
v 114.855965 302.219208 125.257423
v 118.968544 304.912292 130.322113
v 117.744354 275.025879 124.387733
v 108.284470 288.522705 129.985306
v 110.361946 294.990448 132.225922
v 118.090553 280.413086 124.152885
v 113.422371 301.405273 134.844742
v 104.386810 282.393616 122.854378
v 120.567017 290.995850 132.250320
v 106.847870 296.972443 123.233803
v 118.908638 301.981018 125.436646
v 119.887421 288.625305 134.094269
v 109.187675 293.723328 126.642838
v 112.813431 284.504089 135.381332
v 114.856171 288.605316 135.467529
v 111.182907 302.242371 126.554070
v 108.408531 274.183990 123.064400
v 109.643570 293.538971 130.885269
v 116.863350 275.742340 126.166412
v 111.050644 288.466492 134.957321
v 118.557373 281.360321 134.577621
v 118.924286 280.583618 133.956406
v 114.855598 282.480621 135.294785
v 114.856232 275.539734 126.314972
v 119.721298 300.764801 124.767792
v 109.325676 290.483582 132.255753
v 114.825127 304.344238 129.047897
v 119.912682 282.477173 133.427795
v 118.903992 306.002838 133.595993
v 119.761925 290.995087 125.033897
v 108.894783 290.847656 130.041443
v 116.875641 286.562012 122.743866
v 112.054565 304.189789 129.949554
v 120.012932 297.102386 124.564621
v 108.451424 299.096527 122.898262
v 114.854401 273.929718 123.327873
v 119.990211 284.552399 126.537895
v 117.992874 288.596497 123.165741
v 119.919540 290.894104 134.388519
v 120.703270 293.060394 132.287842
v 107.452141 288.782776 126.261734
v 109.453629 294.420349 128.054810
v 109.471954 299.306366 126.178993
v 119.634933 284.509216 125.620995
v 110.460930 278.056885 122.510185
v 121.583176 301.291718 130.248474
v 102.655373 273.894714 123.221672
v 120.237671 282.473480 130.026749
v 114.856720 290.949158 135.465012
v 119.621956 279.237762 130.989914
v 107.841507 286.797028 130.294739
v 120.491066 286.684174 130.145538
v 114.957184 281.303436 134.914124
v 116.863960 284.517151 122.918236
v 108.692459 294.978790 125.512421
v 120.108177 295.053497 134.344025
v 116.905968 305.280670 134.802841
v 114.856133 278.890564 132.204285
v 108.413094 295.052979 122.601189
v 113.876785 305.311523 134.581772
v 110.415833 280.546509 134.108368
v 119.647148 293.005463 134.861038
v 113.018135 297.036591 135.001923
v 106.360619 280.400848 122.541634
v 106.395630 284.499908 122.722557
v 119.981003 303.551392 134.767746
v 119.855797 286.561676 134.092239
v 119.607407 290.072235 134.720535
v 109.866043 295.164276 130.481522
v 119.884651 295.113403 124.625580
v 112.805069 275.518280 126.332222
v 114.873505 299.152496 135.335831
v 113.485039 305.326813 133.901428
v 107.174507 279.572174 131.633743
v 112.633316 281.384613 134.930664
v 107.371857 299.051392 123.224846
v 110.387230 301.452362 125.717972
v 114.861374 295.050262 135.410919
v 109.046524 286.361359 133.801544
v 120.189346 284.539154 127.499428
v 104.967041 277.136688 127.003067
v 108.420753 278.079163 129.981201
v 116.901703 279.323853 132.944458
v 118.877319 286.574158 123.913185
v 120.317741 286.656982 132.327301
v 118.040001 286.549194 123.091713
v 116.895309 300.237549 123.167526
v 102.535164 273.880493 123.218140
v 105.967209 294.591949 123.090706
v 120.880310 303.507568 132.142761
v 109.446556 288.369598 133.811066
v 116.645683 278.065247 123.183418
v 109.286385 293.609406 127.172157
v 110.467300 279.381531 132.900497
v 108.408638 277.146210 128.519974
v 103.525734 280.115356 123.189369
v 107.324852 298.951080 123.364143
v 104.332588 274.181915 123.133049
v 106.666367 282.344818 129.861328
v 119.472748 286.568176 134.618057
v 108.409767 293.000916 122.534119
v 104.309242 273.978027 123.334587
v 116.906364 303.526123 135.304871
v 106.167091 282.566498 127.522629
v 114.856636 301.163422 123.909477
v 107.357574 300.189880 123.219315
v 104.895493 284.284241 123.493950
v 116.888832 281.267517 134.857803
v 108.028763 297.103516 124.635384
v 105.566780 280.888031 127.402191
v 120.305748 286.580688 127.533531
v 114.865341 297.101471 135.377518
v 106.365990 274.751038 125.195503
v 118.907616 303.520294 135.166306
v 110.460838 276.015747 122.620728
v 106.414299 288.604218 122.787392
v 116.661743 280.406128 123.148628
v 109.628410 297.060455 127.666878
v 106.360535 275.662415 126.184753
v 107.504341 286.149872 129.159302
v 119.498070 284.352661 134.483292
v 116.907471 303.663025 127.604576
v 114.805878 280.320251 134.213470
v 112.212349 299.203186 134.268845
v 114.852417 284.502808 122.582352
v 106.430489 290.992950 124.194252
v 110.771584 296.952911 132.416290
v 108.414940 293.072876 125.770309
v 105.238487 288.443298 123.313255
v 106.355499 282.458588 122.592796
v 110.460854 276.468445 127.590393
v 116.447746 276.013245 123.108299
v 108.409737 282.452271 122.502129
v 116.905624 297.101715 135.449249
v 112.804634 280.400848 122.517433
v 119.667152 279.415436 131.782181
v 116.892715 301.134949 123.926682
v 112.753143 293.006531 135.235336
v 109.951675 299.235291 127.600044
v 109.771904 289.872986 133.739883
v 105.784622 286.543365 124.530045
v 120.041687 282.498749 127.773148
v 118.965866 290.947113 123.877174
v 112.805000 277.901520 130.071213
v 116.876854 280.288635 134.114670
v 120.825607 295.054413 132.245956
v 104.377541 274.052155 123.835335
v 116.906593 302.842743 126.229408
v 112.283249 303.411346 132.462250
v 118.930504 302.705627 126.329041
v 110.900429 286.544403 135.021713
v 116.154770 274.124146 123.269485
v 110.147591 288.678711 134.460205
v 113.730759 303.500000 134.795044
v 108.476181 290.983826 127.600082
v 116.696228 282.471008 123.076134
v 118.323524 293.029175 123.189262
v 107.438461 286.823669 127.405457
v 106.357964 273.934601 123.341148
v 114.878883 304.923492 130.364410
v 119.912598 293.057892 124.970612
v 110.463051 299.098755 122.784355
v 110.460052 273.983490 123.938164
v 109.759987 284.502625 134.672363
v 120.030594 288.611877 125.836914
v 118.809303 286.558685 135.005341
v 116.935539 277.297546 128.435776
v 110.460938 288.605225 122.499992
v 116.904877 305.837616 132.260071
v 107.866158 291.054626 125.804337
v 107.901306 288.633453 127.600090
v 107.063461 289.833069 125.213493
v 106.547073 295.000488 123.685883
v 118.897957 295.050690 135.220688
v 116.905838 278.089325 129.998444
v 120.799370 291.132690 130.017120
v 121.505852 304.144989 129.980545
v 119.988335 280.507233 130.135971
v 106.110992 284.625854 125.740318
v 110.015373 292.987244 132.329330
v 110.460945 282.451904 122.500008
v 110.460915 280.400818 122.499985
v 120.310677 293.092041 125.952827
v 118.933815 305.288818 134.768631
v 116.906776 305.039368 130.307846
v 105.243591 288.428894 123.243011
v 119.974487 301.517944 134.786728
v 118.003479 276.059143 124.365746
v 116.905899 295.050873 135.457230
v 106.407715 286.552856 122.766747
v 114.887291 305.285614 134.778427
v 105.078575 286.441833 123.393654
v 108.410698 274.700806 125.243469
v 116.903046 305.956421 134.166855
v 112.817345 301.118225 123.939316
v 110.478729 299.194977 130.046173
v 107.744766 284.636841 132.331436
v 111.990211 304.184204 129.949432
v 120.120415 282.461761 132.464447
v 104.383430 276.025635 122.871361
v 109.771873 296.371277 128.974625
v 103.493271 277.889893 123.276909
v 120.149261 305.529907 134.300308
v 118.953461 303.581207 127.670593
v 106.803368 284.508545 127.558586
v 118.066086 275.402954 124.859535
v 109.098907 295.147675 126.153976
v 120.187950 291.077240 125.957886
v 109.872681 282.384827 134.720993
v 114.857498 279.315521 132.950241
v 103.380852 275.885132 123.384109
v 105.082314 282.159180 125.080147
v 116.898544 286.553986 135.385406
v 108.385025 286.620667 132.403687
v 114.843933 282.452759 122.631371
v 105.108253 286.503662 123.289848
v 118.893112 299.153900 135.202225
v 116.882896 297.099945 122.693390
v 118.912170 288.609222 123.912788
v 103.237373 275.866180 123.795853
v 103.365097 275.134155 124.812103
v 110.460899 295.050934 122.507347
v 118.834641 300.864990 124.067993
v 118.018318 291.010712 123.158524
v 112.804001 276.016907 122.633232
v 117.954483 285.566895 123.150055
v 112.818283 282.479675 135.258301
v 112.833817 280.396179 134.221619
v 107.494804 284.898743 130.851456
v 119.636345 297.119598 134.835358
v 118.935989 304.298401 129.062180
v 114.855431 292.999939 122.522163
v 116.903938 278.943542 132.182022
v 112.805008 288.605286 122.500008
v 112.805054 297.100677 122.532936
v 118.724113 278.192963 125.727821
v 107.068382 282.988678 131.112686
v 121.442993 303.026306 128.398224
v 113.208916 304.826935 132.437729
v 118.756340 284.515686 134.934341
v 116.882538 299.109589 122.811226
v 112.805145 278.902740 132.198318
v 108.478073 279.564697 132.740677
v 108.929855 288.767303 132.420868
v 114.820007 305.992828 134.124237
v 108.409500 273.971375 123.941711
v 113.763054 305.629730 134.332092
v 114.837273 278.057190 122.672310
v 112.805069 276.468628 127.590370
v 118.907310 278.792816 129.698730
v 119.756058 299.181335 124.199615
v 109.574158 294.910309 129.360291
v 108.535156 280.545410 133.614044
v 104.390671 274.918243 124.947739
v 121.512917 304.219360 129.971741
v 120.271103 302.410553 126.771828
v 102.433899 273.728333 123.071594
v 119.233543 299.040466 123.552361
v 106.436409 294.982605 122.927689
v 105.330078 292.935394 122.974045
v 112.804420 278.057098 122.529510
v 110.460953 290.949188 122.500000
v 107.263008 283.125397 131.939545
v 106.300163 280.321075 130.001358
v 121.120689 301.489777 132.272232
v 105.195053 283.139496 124.825996
v 112.804764 274.699097 125.245354
v 114.855553 295.050842 122.519699
v 119.103699 280.432678 125.673569
v 118.425995 299.124176 123.114403
v 110.060905 297.108093 130.069168
v 108.410782 286.553925 122.526558
v 121.548943 304.088501 129.950089
v 119.060112 292.881653 123.799049
v 114.856445 276.487762 127.576538
v 105.180344 280.869263 125.987900
v 110.699959 301.278809 127.591293
v 111.709732 292.179993 134.839081
v 114.945930 306.067902 133.582520
v 111.695168 300.547272 133.344147
v 119.711716 288.608368 125.062843
v 109.458282 295.180481 127.585274
v 116.906425 301.495789 135.429611
v 108.409943 276.014709 122.611343
v 116.883392 295.050842 122.687393
v 108.559593 282.453766 134.162720
v 109.151306 297.125397 126.077141
v 111.640778 302.820007 127.867699
v 114.857422 277.110077 128.540848
v 106.090363 288.672668 124.443016
v 108.854164 299.175171 125.221115
v 116.905647 292.999817 135.456741
v 104.350227 282.374481 124.002014
v 106.362137 276.017303 122.638107
v 106.387718 292.992798 122.736595
v 111.794212 293.320343 134.727036
v 120.223503 284.488342 132.489975
v 120.952629 292.905304 129.952225
v 108.408409 276.502106 127.566536
v 111.392357 301.340973 132.237793
v 120.252113 297.183075 134.111923
v 108.718353 297.107727 125.360550
v 120.431541 301.523193 134.249542
v 119.836426 284.601501 133.992432
v 116.905998 302.200195 125.270447
v 118.546707 284.510498 123.951027
v 108.572853 284.425812 133.902679
v 118.932068 279.208893 132.132355
v 120.435837 288.612305 132.153885
v 112.804962 290.949097 122.499969
v 107.561646 283.602661 132.840897
v 118.794006 279.573883 132.782379
v 118.860161 278.064056 127.726212
v 120.141525 304.914246 132.348236
v 112.805222 299.107574 122.754860
v 114.854927 297.100342 122.547745
v 120.947075 295.053223 127.871811
v 110.460899 275.518494 126.332031
v 113.302086 299.128174 134.927734
v 110.535698 300.815979 124.023964
v 105.411308 290.734467 123.129875
v 103.572800 280.183655 123.108620
v 112.820335 288.604675 135.341019
v 116.899475 288.605469 135.394348
v 107.229584 282.302338 132.426529
v 114.857124 293.000427 135.449356
v 111.629738 298.830780 133.668915
v 119.796188 299.378662 134.769669
v 108.410690 284.502991 122.524513
v 118.818062 288.613831 135.025558
v 119.307922 282.430328 125.574112
v 114.838745 280.401276 122.662804
v 119.645851 280.617401 133.221375
v 118.887421 297.100922 135.203171
v 106.360626 274.184143 123.065201
v 112.805054 292.999939 122.499992
v 111.997337 304.127930 129.925827
v 112.806641 279.333557 132.938263
v 120.031013 305.462860 134.567291
v 116.874992 293.000916 122.719582
v 106.340584 276.707062 127.446083
v 104.288780 278.113708 125.636963
v 116.880615 282.486359 135.204071
v 114.923874 305.676025 132.335785
v 121.112663 299.073975 127.506554
v 112.806343 274.190125 123.076462
v 116.903587 290.949249 135.424332
v 110.524490 290.872192 134.239288
v 108.406929 273.932220 123.341171
v 114.856041 286.553894 135.476379
v 110.933144 282.524475 135.064072
v 114.855377 299.110046 122.748337
v 120.028908 281.285736 128.511154
v 112.803528 302.100098 125.317947
v 120.594795 288.514862 129.864166
v 107.924049 283.397217 133.610855
v 110.463203 278.940002 132.179398
v 108.608727 300.366699 123.882172
v 112.884163 303.328217 127.725266
v 116.894112 284.505005 135.355713
v 108.409203 275.530365 126.321991
v 119.647255 286.538513 125.093628
v 120.554260 290.856995 127.501091
v 120.998100 299.144836 132.363876
v 114.883987 301.495514 135.288849
v 109.667305 291.496857 132.454498
v 119.663094 295.047180 134.873764
v 110.993782 299.101562 132.197250
v 121.330864 301.583160 127.807060
v 110.460930 286.553986 122.499992
v 119.312981 297.122833 123.722336
v 103.794479 278.197357 124.622414
v 110.460739 277.095459 128.549225
v 120.522453 299.304657 125.700615
v 121.551468 302.387512 128.248215
v 105.029259 277.915680 127.566223
v 112.837959 303.400238 133.975143
v 118.365852 295.054321 123.151733
v 114.825409 274.163269 123.081520
v 104.383202 278.057190 122.828751
v 103.342224 274.958160 124.703346
v 120.802628 303.068024 127.882523
v 106.506943 296.409332 123.224312
v 120.470016 297.124176 125.595726
v 107.600212 280.752350 133.163101
v 116.711113 274.446075 123.793854
v 112.814629 286.553772 135.377136
v 108.460976 279.113647 132.091339
v 110.459656 274.190613 123.076469
v 118.650993 282.495453 134.811310
v 119.880905 282.441681 126.971382
v 119.628029 280.455078 127.553017
v 111.464386 290.719482 134.897293
v 108.206520 299.125732 124.405128
v 120.398422 303.527649 134.260635
v 110.458427 273.946564 123.346169
v 105.333694 293.008057 122.968330
v 104.416107 276.065582 125.552803
v 120.348106 284.507721 130.001053
v 121.541969 304.159149 129.951584
v 114.855957 284.504211 135.451981
v 107.067451 286.810028 126.348694
v 120.079445 305.680054 134.439911
v 114.834976 276.020294 122.731972
v 116.906921 306.119324 133.525955
v 117.994873 278.045074 124.220970
v 105.617966 293.943512 122.966606
v 111.589874 297.052338 134.010071
v 105.384377 290.698425 123.156845
v 106.993011 285.585419 127.036896
v 120.447655 288.706970 127.644073
v 102.789330 274.080780 123.365799
v 103.618225 282.340759 123.022995
v 119.253716 295.048950 123.762367
v 112.811989 273.946594 123.345840
v 105.498116 284.689575 124.659904
v 112.916603 295.032227 135.071930
v 110.955711 301.351685 129.936066
v 116.850060 274.976074 125.073944
v 116.905930 304.435730 128.997925
v 116.888580 276.624573 127.477501
v 114.826385 273.995941 123.902863
v 114.859390 303.628357 127.621475
v 106.400841 292.981567 123.901962
v 110.469986 300.147766 123.249847
v 107.943588 295.063965 124.817337
# 523 vertices, 0 vertices normals

f 11 119 118
f 403 183 323
f 362 492 187
f 337 263 197
f 264 347 410
f 77 142 14
f 447 310 457
f 192 179 46
f 411 187 300
f 84 419 510
f 464 327 398
f 385 174 113
f 268 267 252
f 40 520 456
f 514 160 175
f 240 127 371
f 277 102 23
f 44 151 129
f 443 212 486
f 429 189 214
f 137 6 153
f 357 506 418
f 137 153 243
f 417 292 451
f 87 136 165
f 449 338 97
f 523 49 206
f 137 243 90
f 496 394 182
f 333 503 66
f 218 197 401
f 301 328 219
f 189 503 214
f 479 466 472
f 93 461 19
f 284 163 492
f 106 137 273
f 16 510 105
f 71 90 20
f 299 308 297
f 340 29 350
f 9 276 201
f 132 259 34
f 375 445 92
f 204 390 84
f 71 20 19
f 321 240 254
f 250 490 117
f 31 349 26
f 128 463 123
f 281 436 163
f 39 246 474
f 16 105 227
f 308 195 297
f 31 110 190
f 448 13 324
f 372 386 518
f 166 224 102
f 112 421 310
f 22 471 442
f 284 492 400
f 211 154 281
f 511 131 468
f 313 162 287
f 172 324 150
f 109 406 182
f 41 165 109
f 455 417 174
f 72 84 390
f 423 175 389
f 275 296 145
f 174 40 113
f 4 329 365
f 430 119 11
f 307 242 180
f 267 27 225
f 348 471 122
f 337 310 263
f 221 104 416
f 135 316 321
f 448 172 58
f 243 153 398
f 166 349 368
f 257 282 441
f 14 142 279
f 378 262 305
f 512 43 133
f 241 155 56
f 271 464 159
f 28 105 510
f 150 120 205
f 289 226 238
f 126 300 500
f 75 193 72
f 192 470 228
f 206 194 491
f 92 393 235
f 508 452 273
f 451 47 40
f 346 415 228
f 403 323 151
f 403 181 183
f 62 56 386
f 31 139 349
f 261 248 13
f 114 391 432
f 302 255 15
f 42 2 467
f 26 166 115
f 358 345 232
f 386 56 272
f 138 267 268
f 395 90 414
f 423 389 444
f 75 72 469
f 70 338 315
f 191 325 435
f 211 163 284
f 108 320 22
f 101 311 148
f 438 495 178
f 422 196 334
f 179 485 454
f 313 287 283
f 346 228 470
f 449 315 338
f 522 412 5
f 183 181 135
f 43 48 519
f 101 123 341
f 27 521 270
f 117 490 420
f 497 274 352
f 30 275 450
f 222 253 151
f 64 369 467
f 211 281 163
f 302 201 276
f 271 286 231
f 130 124 257
f 67 200 380
f 512 476 443
f 206 49 194
f 69 126 502
f 40 47 520
f 396 192 228
f 34 417 455
f 505 23 224
f 25 453 383
f 479 472 335
f 383 404 306
f 494 392 504
f 126 411 300
f 167 18 131
f 397 35 377
f 138 255 499
f 168 415 346
f 490 8 420
f 520 517 124
f 397 39 35
f 206 399 152
f 309 9 53
f 163 436 300
f 226 223 387
f 181 141 459
f 203 455 491
f 290 85 210
f 391 477 297
f 299 193 75
f 5 202 292
f 328 99 282
f 257 517 282
f 76 429 312
f 489 30 450
f 8 235 146
f 134 177 86
f 254 240 371
f 15 148 217
f 65 387 223
f 403 24 428
f 107 194 49
f 472 370 335
f 320 348 122
f 512 493 260
f 393 78 514
f 246 170 474
f 164 182 394
f 135 88 33
f 246 336 170
f 466 143 57
f 446 256 85
f 66 38 410
f 388 140 384
f 248 117 484
f 316 378 240
f 350 29 482
f 288 154 200
f 459 262 378
f 16 227 162
f 427 444 87
f 465 515 397
f 117 420 484
f 361 55 207
f 243 93 20
f 264 272 347
f 346 62 372
f 484 420 447
f 235 423 146
f 412 449 5
f 302 15 217
f 36 119 430
f 460 395 61
f 87 17 63
f 470 46 241
f 242 205 119
f 263 421 427
f 137 90 395
f 39 295 246
f 326 148 311
f 331 45 407
f 522 292 417
f 65 223 269
f 380 200 73
f 509 351 244
f 434 130 295
f 14 230 227
f 275 239 450
f 422 334 360
f 302 507 255
f 95 55 361
f 461 362 19
f 109 165 136
f 475 371 511
f 381 212 77
f 64 89 213
f 424 377 221
f 383 306 158
f 522 5 292
f 174 417 451
f 340 158 191
f 247 245 402
f 476 249 501
f 17 389 286
f 509 317 478
f 158 448 58
f 131 18 481
f 516 66 303
f 43 260 364
f 505 224 424
f 217 148 326
f 366 24 103
f 267 223 60
f 186 356 480
f 230 279 278
f 51 276 238
f 460 273 395
f 46 454 339
f 253 24 151
f 65 267 138
f 467 68 265
f 498 457 440
f 253 103 24
f 271 231 431
f 344 288 157
f 445 463 277
f 172 150 220
f 226 506 223
f 427 87 165
f 54 217 326
f 252 26 128
f 36 409 119
f 337 487 457
f 202 234 402
f 263 310 421
f 306 261 13
f 7 174 140
f 9 513 276
f 159 464 153
f 278 232 76
f 377 35 221
f 108 22 353
f 458 216 396
f 441 282 266
f 45 129 33
f 16 313 289
f 308 75 317
f 80 173 132
f 5 449 97
f 254 382 437
f 128 26 277
f 399 388 384
f 396 74 192
f 28 510 419
f 398 50 461
f 316 459 378
f 459 86 262
f 446 85 343
f 509 478 351
f 70 511 468
f 97 234 202
f 54 326 334
f 91 265 359
f 207 201 196
f 32 117 248
f 403 141 181
f 12 361 171
f 17 159 63
f 295 336 246
f 302 54 201
f 86 508 262
f 364 10 168
f 268 252 128
f 390 363 309
f 28 1 161
f 345 189 429
f 333 103 503
f 205 440 118
f 484 447 498
f 3 483 249
f 467 2 68
f 202 402 98
f 112 146 421
f 77 212 142
f 396 438 74
f 299 297 477
f 497 335 370
f 180 242 119
f 168 372 121
f 435 220 307
f 384 236 215
f 445 277 92
f 239 145 496
f 468 131 348
f 28 477 1
f 62 470 241
f 81 291 502
f 204 16 289
f 185 199 195
f 239 177 134
f 84 193 419
f 479 335 497
f 209 169 231
f 288 342 154
f 295 130 336
f 52 285 503
f 426 287 162
f 431 231 59
f 190 110 304
f 175 209 286
f 70 367 338
f 309 363 9
f 512 443 493
f 101 341 311
f 341 188 176
f 434 39 397
f 199 256 432
f 295 456 124
f 320 122 22
f 105 161 227
f 179 74 12
f 250 445 490
f 328 497 99
f 413 315 449
f 485 171 340
f 101 148 255
f 376 266 502
f 403 428 141
f 80 132 34
f 116 518 38
f 483 516 303
f 91 359 198
f 431 59 314
f 97 338 184
f 139 379 349
f 141 134 86
f 86 177 208
f 302 276 507
f 446 343 493
f 91 198 392
f 376 291 342
f 408 294 404
f 30 347 275
f 68 44 331
f 364 168 121
f 422 25 482
f 267 225 252
f 399 384 304
f 138 268 255
f 14 279 230
f 62 386 372
f 523 206 152
f 54 196 201
f 333 66 410
f 281 291 81
f 256 244 85
f 71 19 442
f 26 349 166
f 254 475 382
f 87 63 136
f 264 410 38
f 109 136 406
f 422 29 361
f 18 414 71
f 305 460 280
f 501 229 345
f 198 356 392
f 475 511 70
f 340 171 29
f 108 234 320
f 333 366 103
f 356 107 480
f 203 491 194
f 127 305 280
f 404 311 176
f 114 432 256
f 259 412 522
f 106 6 137
f 461 400 362
f 96 53 373
f 267 60 27
f 298 349 379
f 473 178 495
f 213 89 418
f 211 200 154
f 216 351 495
f 322 358 142
f 229 52 189
f 422 361 196
f 108 247 402
f 361 207 196
f 225 304 110
f 79 407 433
f 21 416 160
f 328 517 219
f 185 509 199
f 483 100 52
f 62 241 56
f 381 1 391
f 292 202 98
f 155 307 180
f 27 523 225
f 144 185 195
f 179 454 46
f 43 364 48
f 211 73 200
f 494 89 392
f 475 70 315
f 434 397 515
f 243 398 93
f 427 421 444
f 83 320 184
f 174 451 40
f 14 227 161
f 147 275 347
f 91 392 89
f 67 288 200
f 353 466 479
f 283 213 418
f 416 169 209
f 70 468 367
f 413 382 315
f 342 291 154
f 181 459 316
f 156 319 37
f 464 398 153
f 432 391 297
f 43 519 133
f 341 123 237
f 108 402 234
f 179 12 485
f 518 264 38
f 83 355 320
f 101 128 123
f 156 37 107
f 480 107 49
f 36 430 296
f 76 312 2
f 330 180 409
f 127 280 258
f 365 437 382
f 195 432 297
f 25 350 482
f 473 96 95
f 37 94 132
f 144 354 185
f 93 19 20
f 86 208 508
f 48 116 516
f 208 452 508
f 434 515 374
f 312 214 253
f 290 415 10
f 519 48 516
f 272 405 347
f 164 41 109
f 170 342 344
f 261 32 248
f 133 3 249
f 344 342 288
f 367 468 355
f 149 182 452
f 32 250 117
f 497 187 274
f 289 313 226
f 45 33 82
f 82 33 88
f 208 149 452
f 442 143 466
f 481 442 471
f 186 480 49
f 104 251 462
f 204 289 513
f 135 321 88
f 137 395 273
f 322 142 212
f 275 36 296
f 147 347 233
f 226 387 238
f 434 295 130
f 290 210 458
f 77 14 161
f 343 85 290
f 408 404 453
f 279 232 278
f 233 405 36
f 443 486 493
f 473 439 96
f 8 146 112
f 64 91 89
f 321 254 437
f 17 271 159
f 465 293 515
f 204 513 363
f 298 215 368
f 235 514 423
f 203 194 173
f 204 84 510
f 37 132 173
f 236 515 293
f 340 350 158
f 337 218 487
f 221 35 104
f 96 373 207
f 37 173 107
f 254 371 475
f 339 435 307
f 265 331 359
f 302 217 54
f 188 250 32
f 96 207 55
f 494 418 89
f 466 57 472
f 252 225 31
f 489 450 239
f 303 66 285
f 136 63 6
f 123 445 237
f 42 467 369
f 346 470 62
f 251 157 67
f 299 477 419
f 26 115 277
f 210 351 216
f 230 426 162
f 357 494 186
f 235 393 514
f 2 312 222
f 359 331 407
f 51 65 499
f 364 121 48
f 362 400 492
f 384 215 304
f 430 11 125
f 328 282 517
f 51 507 276
f 277 115 102
f 120 498 440
f 330 409 405
f 327 50 398
f 473 438 178
f 274 187 411
f 275 145 239
f 216 495 438
f 262 508 460
f 145 394 496
f 381 486 212
f 97 184 234
f 35 251 104
f 136 106 406
f 31 190 139
f 94 4 332
f 135 181 316
f 341 237 188
f 468 348 355
f 357 223 506
f 278 76 42
f 145 296 394
f 375 8 490
f 11 487 218
f 516 116 66
f 511 258 167
f 420 8 112
f 247 353 479
f 47 219 520
f 113 40 456
f 497 352 370
f 170 376 342
f 18 71 481
f 204 363 390
f 180 119 409
f 186 49 270
f 9 363 513
f 439 495 469
f 422 408 453
f 439 53 96
f 367 184 338
f 412 413 449
f 99 274 69
f 258 280 167
f 473 495 439
f 322 501 358
f 281 154 291
f 336 257 441
f 158 306 448
f 269 223 267
f 191 158 325
f 241 339 155
f 30 410 347
f 451 98 47
f 248 484 111
f 339 307 155
f 386 272 264
f 122 471 22
f 36 405 409
f 69 411 126
f 174 374 236
f 519 516 483
f 146 423 444
f 512 260 43
f 111 484 498
f 306 404 261
f 169 462 59
f 69 274 411
f 337 457 310
f 47 245 219
f 249 483 229
f 61 395 414
f 505 424 21
f 99 69 266
f 108 353 247
f 491 455 388
f 183 33 129
f 48 121 116
f 120 440 205
f 268 101 255
f 72 193 84
f 73 284 425
f 87 389 17
f 189 52 503
f 359 407 79
f 345 229 189
f 396 216 438
f 425 400 50
f 156 79 319
f 317 318 478
f 22 466 353
f 205 118 119
f 498 447 457
f 366 428 24
f 239 496 177
f 428 488 141
f 440 487 118
f 50 400 461
f 422 360 294
f 130 257 336
f 64 467 265
f 292 98 451
f 483 52 229
f 497 370 143
f 159 153 6
f 343 260 493
f 104 462 169
f 169 59 231
f 34 522 417
f 384 140 236
f 388 7 140
f 144 308 317
f 185 354 509
f 46 339 241
f 175 286 389
f 77 161 1
f 11 218 125
f 433 329 4
f 68 222 44
f 497 143 362
f 446 493 486
f 455 174 7
f 329 437 365
f 22 442 466
f 334 294 360
f 324 111 120
f 300 187 492
f 519 483 3
f 125 394 296
f 198 359 79
f 306 13 448
f 321 316 240
f 94 319 4
f 314 380 73
f 95 361 12
f 177 496 149
f 401 197 164
f 274 370 352
f 81 500 436
f 523 270 49
f 114 486 381
f 183 135 33
f 156 107 356
f 512 133 476
f 504 392 356
f 307 220 242
f 184 320 234
f 79 433 319
f 465 224 368
f 188 445 250
f 147 36 275
f 136 6 106
f 483 303 100
f 188 32 176
f 146 444 421
f 280 18 167
f 496 182 149
f 422 482 29
f 454 191 435
f 192 46 470
f 298 379 215
f 430 125 296
f 367 355 83
f 150 205 242
f 319 433 4
f 203 80 455
f 57 370 472
f 321 437 88
f 268 128 101
f 358 501 345
f 25 383 350
f 391 1 477
f 72 390 53
f 465 424 224
f 158 58 325
f 322 476 501
f 458 228 415
f 327 425 50
f 226 283 506
f 157 288 67
f 263 427 41
f 140 174 236
f 514 175 423
f 85 244 210
f 334 326 294
f 431 327 464
f 375 92 235
f 54 334 196
f 414 90 71
f 474 157 251
f 283 418 506
f 312 253 222
f 426 278 42
f 425 284 400
f 190 379 139
f 125 218 401
f 177 149 208
f 505 78 23
f 199 432 195
f 65 269 267
f 72 53 439
f 455 7 388
f 107 173 194
f 125 401 394
f 336 441 170
f 365 382 413
f 426 369 287
f 373 53 9
f 385 113 456
f 433 82 329
f 323 129 151
f 210 244 351
f 376 502 291
f 474 170 157
f 155 180 330
f 287 369 213
f 497 370 274
f 332 413 412
f 37 319 94
f 182 406 452
f 364 260 10
f 52 100 285
f 401 164 394
f 225 110 31
f 452 406 273
f 18 61 414
f 453 404 383
f 209 231 286
f 236 374 515
f 240 378 127
f 69 502 266
f 160 209 175
f 481 71 442
f 93 398 461
f 204 510 16
f 261 404 176
f 82 88 329
f 188 237 445
f 447 112 310
f 456 520 124
f 220 150 242
f 317 495 318
f 262 460 305
f 357 418 494
f 507 499 255
f 163 300 492
f 371 258 511
f 485 12 171
f 123 463 445
f 27 270 523
f 465 368 293
f 323 183 129
f 489 239 488
f 314 59 380
f 473 74 438
f 386 264 518
f 230 278 426
f 435 325 220
f 343 290 10
f 259 332 412
f 301 497 328
f 232 429 76
f 443 322 212
f 367 83 184
f 454 435 339
f 121 518 116
f 373 9 207
f 366 489 488
f 314 425 327
f 488 239 134
f 199 244 256
f 207 9 201
f 355 348 320
f 371 127 258
f 102 224 23
f 358 279 142
f 166 368 224
f 60 521 27
f 144 195 308
f 361 29 171
f 508 273 460
f 116 38 66
f 324 120 150
f 331 44 45
f 63 159 6
f 206 491 399
f 15 255 148
f 416 104 169
f 446 486 114
f 358 232 279
f 192 74 179
f 407 45 82
f 28 161 105
f 168 346 372
f 385 374 174
f 424 221 21
f 465 377 424
f 422 453 25
f 511 167 131
f 133 249 476
f 16 162 313
f 60 223 521
f 272 330 405
f 265 68 331
f 197 41 164
f 152 399 304
f 403 151 24
f 100 303 285
f 114 381 391
f 42 76 2
f 281 81 436
f 333 410 489
f 385 434 374
f 458 396 228
f 317 75 469
f 2 222 68
f 252 31 26
f 28 419 477
f 436 500 300
f 170 441 376
f 271 431 464
f 65 138 499
f 132 94 259
f 462 67 380
f 170 344 157
f 407 82 433
f 23 78 393
f 128 277 463
f 215 379 304
f 247 301 245
f 78 160 514
f 332 365 413
f 17 286 271
f 422 294 408
f 263 41 197
f 222 151 44
f 420 112 447
f 426 42 369
f 350 383 158
f 294 311 404
f 141 86 459
f 198 156 356
f 44 129 45
f 5 97 202
f 505 21 78
f 375 490 445
f 190 304 379
f 385 295 434
f 261 176 32
f 51 238 387
f 13 111 324
f 232 345 429
f 247 479 301
f 124 517 257
f 280 61 18
f 35 474 251
f 11 118 487
f 343 10 260
f 143 370 57
f 473 12 74
f 126 81 502
f 443 476 322
f 298 368 349
f 375 235 8
f 147 233 36
f 497 362 187
f 94 332 259
f 34 259 522
f 99 497 274
f 301 479 497
f 80 34 455
f 133 519 3
f 230 162 227
f 87 444 389
f 458 210 216
f 523 152 225
f 98 402 245
f 357 186 521
f 348 481 471
f 446 114 256
f 434 295 39
f 285 66 503
f 4 365 332
f 126 500 81
f 58 172 325
f 362 143 19
f 295 124 130
f 168 10 415
f 64 265 91
f 485 191 454
f 72 439 469
f 78 21 160
f 478 495 351
f 494 504 186
f 289 238 513
f 225 152 304
f 325 172 220
f 485 340 191
f 13 248 111
f 475 315 382
f 35 39 474
f 186 270 521
f 448 324 172
f 186 504 356
f 51 499 507
f 277 23 92
f 317 469 495
f 98 245 47
f 251 67 462
f 489 410 30
f 233 347 405
f 214 103 253
f 144 317 509
f 203 173 80
f 406 106 273
f 111 498 120
f 121 372 518
f 314 73 425
f 56 155 330
f 301 219 245
f 115 166 102
f 313 283 226
f 243 20 90
f 214 503 103
f 385 456 295
f 520 219 517
f 283 287 213
f 390 309 53
f 56 330 272
f 431 314 327
f 473 95 12
f 21 221 416
f 341 176 311
f 64 213 369
f 280 460 61
f 378 305 127
f 329 88 437
f 326 311 294
f 442 19 143
f 290 458 415
f 95 96 55
f 501 249 229
f 215 293 368
f 491 388 399
f 427 165 41
f 215 236 293
f 299 419 193
f 51 387 65
f 333 489 366
f 381 77 1
f 440 457 487
f 465 397 377
f 462 380 59
f 198 79 156
f 441 266 376
f 488 134 141
f 513 238 276
f 366 488 428
f 131 481 348
f 211 284 73
f 429 214 312
f 92 23 393
f 160 416 209
f 99 266 282
f 357 521 223
f 337 197 218
f 299 75 308
f 478 318 495
f 144 509 354
f 164 109 182
f 509 244 199
# 1046 faces, 0 coords texture

# End of File