####
#
# OBJ File Generated by Meshlab
#
####
# Object Volume_195.obj
#
# Vertices: 668
# Faces: 1338
#
####
v 166.868866 140.020523 143.790253
v 145.328400 127.084213 143.464142
v 162.019684 141.549820 146.603378
v 168.146957 133.652740 132.393311
v 157.928879 144.367920 143.097061
v 167.861343 129.387573 143.430527
v 151.450882 135.686890 147.182922
v 149.435272 141.759048 145.348450
v 142.541870 133.603928 134.252716
v 140.616516 129.560730 143.398880
v 169.048538 135.299255 133.456757
v 164.079514 127.084114 143.464844
v 170.298798 132.717224 132.928497
v 143.279480 129.154846 138.852325
v 148.871323 129.727386 147.950729
v 169.124924 135.598541 134.174561
v 164.048737 137.599686 148.066544
v 155.871521 143.298172 144.892197
v 164.077393 134.961777 131.865845
v 157.926971 146.394485 135.479706
v 147.378922 127.057907 143.453171
v 157.926880 127.997856 141.296188
v 149.429916 145.099533 140.834961
v 168.949295 135.644806 134.954559
v 147.353027 127.578964 147.368240
v 167.779144 133.579681 143.331909
v 148.495468 128.367950 148.067184
v 164.072952 141.808090 132.616333
v 149.388031 135.704620 146.796112
v 145.435638 143.827484 132.984634
v 140.520111 128.600723 141.710785
v 147.386032 141.812088 132.611511
v 167.647308 125.524734 149.472610
v 151.423370 129.527573 149.011536
v 140.859116 137.767944 141.621277
v 162.030243 146.413071 134.495010
v 142.157211 129.505157 145.833908
v 159.978027 127.050316 143.449814
v 143.342270 127.513756 146.182800
v 167.597137 126.326958 147.723892
v 147.378891 129.089905 138.822327
v 153.827545 144.284424 143.050735
v 141.756485 141.632523 140.817230
v 159.978027 125.313904 149.241745
v 165.901352 143.534393 143.022507
v 141.431427 131.545364 145.179703
v 142.463654 137.708405 134.063217
v 141.410583 131.850418 135.476318
v 151.481064 129.089523 138.822205
v 162.029053 127.051598 143.450363
v 155.881561 127.377678 149.957092
v 148.892365 126.231544 148.090988
v 162.028625 146.097610 136.830383
v 145.413879 141.819214 132.923080
v 151.482056 144.242630 143.023331
v 162.028305 146.390701 135.478775
v 166.124161 137.702194 132.516907
v 159.978043 126.119774 145.556107
v 149.429901 129.989395 136.769302
v 159.977615 127.379662 149.961456
v 157.621414 142.587631 145.869522
v 157.926956 125.372475 147.480835
v 162.029160 132.830200 132.155411
v 157.920822 141.779388 146.403992
v 140.477402 133.624176 143.432480
v 142.443649 139.505676 134.045471
v 167.496002 135.661499 138.115280
v 162.028824 141.811630 132.521393
v 149.429504 126.605019 144.512634
v 140.348633 129.625153 140.733170
v 166.385590 128.005569 149.614136
v 166.077011 126.773666 144.605606
v 149.430237 141.811783 132.520645
v 143.291840 130.189087 136.880386
v 151.481049 143.851837 132.630203
v 167.826965 127.462875 147.522064
v 162.029037 126.119446 145.555984
v 168.876724 133.492950 135.144043
v 149.455246 133.544342 131.986908
v 167.512711 133.582748 138.120102
v 162.027878 127.376663 149.947342
v 159.978027 146.394272 135.479691
v 162.029083 127.998543 141.296524
v 164.117599 129.432449 149.475311
v 162.029449 125.798103 149.679703
v 159.979370 133.624619 148.672913
v 151.454651 135.739975 132.077606
v 143.340195 137.632477 145.117554
v 149.552460 127.363472 148.840988
v 140.080566 133.588379 142.490967
v 151.480515 146.399796 134.496231
v 165.191544 146.015594 133.595383
v 155.723251 142.437622 145.746445
v 157.708664 138.366913 147.795120
v 157.927078 145.706467 138.519348
v 142.647736 144.635223 134.412125
v 166.296707 135.839249 132.167374
v 147.396545 144.162918 142.969086
v 149.412567 133.615448 147.182968
v 164.082672 132.829529 132.154282
v 157.835037 135.967285 132.039062
v 153.826233 145.686661 133.082443
v 141.293442 129.447083 138.992783
v 167.232712 135.694061 140.180710
v 169.204636 132.373398 134.118073
v 149.408539 131.582565 147.659531
v 153.826019 125.332512 149.228088
v 147.380936 145.065613 140.823715
v 155.876541 131.988678 132.937683
v 143.884659 139.530350 144.588593
v 157.926865 139.761795 132.466583
v 166.460999 135.984756 147.445114
v 166.130737 125.778061 149.727524
v 151.481064 127.049721 143.449509
v 139.913956 139.678696 138.446701
v 148.510162 127.135475 148.181290
v 168.041428 135.597168 132.809952
v 145.363083 131.164001 135.015640
v 167.988174 137.627609 133.062531
v 169.514267 133.497772 134.058182
v 155.876556 133.635330 131.859177
v 167.974091 137.682373 136.707352
v 156.409393 137.114624 147.984634
v 147.434372 131.573212 147.084457
v 166.945694 143.796036 134.629684
v 164.070419 146.353165 135.464066
v 140.385941 139.108383 139.928680
v 153.825089 146.121323 136.836731
v 147.351044 139.790512 145.736328
v 165.663544 134.848984 131.942398
v 167.994263 132.002808 134.959320
v 139.880783 132.074722 136.047607
v 167.287338 137.578262 143.498657
v 167.362381 128.552567 141.865967
v 155.876953 129.296600 149.637314
v 168.643936 137.864746 134.725967
v 164.078049 128.036591 141.313202
v 158.000076 137.555817 148.107559
v 142.651550 146.287369 134.709915
v 145.432419 143.980667 142.864777
v 145.417130 143.167053 143.958069
v 167.406937 132.941605 131.944763
v 138.883087 135.498199 136.778915
v 163.984177 143.195816 144.950485
v 157.927017 146.079376 133.418076
v 159.977844 137.729599 132.313599
v 153.825073 127.998306 141.296448
v 166.872971 135.314224 147.147171
v 157.926407 137.728012 132.321777
v 147.335663 133.641449 146.776413
v 149.833359 129.266357 148.506851
v 139.501984 137.571472 138.524536
v 147.379318 126.649254 144.528214
v 166.061630 125.236572 148.610718
v 145.331787 146.052277 136.819229
v 159.977783 145.693451 133.068069
v 141.286224 135.661224 134.649445
v 151.444580 141.635391 145.653244
v 157.926971 129.089508 138.822205
v 162.025757 143.850403 132.648743
v 157.927002 125.165176 148.569107
v 153.826477 134.660278 131.867188
v 145.305481 146.318375 135.470840
v 162.029419 134.955414 131.871384
v 167.439835 126.787163 146.168594
v 141.347763 128.930359 140.138443
v 155.875977 125.372993 147.480988
v 139.954559 130.932281 137.319260
v 151.481064 128.580414 139.976501
v 167.992203 131.626495 143.439545
v 153.825104 126.121124 145.556671
v 149.552948 139.241928 146.193390
v 157.982422 143.353287 145.028656
v 166.157715 125.310478 149.222733
v 164.081528 137.727936 132.326065
v 149.429962 146.393936 135.479630
v 167.697754 139.738983 136.620529
v 147.378906 145.700348 138.517899
v 166.558929 146.367844 134.854965
v 157.927017 145.693542 133.067810
v 142.090576 143.613846 135.056198
v 145.448349 133.699127 133.209122
v 162.028976 128.581955 139.977295
v 149.429962 145.706467 138.519348
v 150.057495 125.339272 149.364838
v 139.828949 139.559601 136.921478
v 166.610413 146.326096 134.866089
v 167.057098 130.904984 137.084732
v 164.101685 146.398422 134.545532
v 143.279343 128.621323 139.995087
v 162.029083 129.988449 136.768875
v 167.296753 135.670715 138.854065
v 141.186325 139.845840 141.180450
v 145.328079 129.100067 138.826859
v 155.875717 137.726318 132.327698
v 140.207016 140.998474 136.542603
v 166.145462 133.606705 131.887894
v 147.446442 137.633240 146.262863
v 153.315765 128.248245 149.788254
v 167.255478 126.318054 149.799088
v 162.028976 126.581894 144.502792
v 142.282639 126.746742 145.752228
v 162.036819 131.494125 149.017715
v 154.655426 135.086838 148.099564
v 153.825241 145.100113 140.835556
v 145.356689 135.621231 146.311020
v 143.375015 145.653168 136.730606
v 145.297363 129.504837 146.741196
v 165.812088 135.533585 147.953064
v 157.927795 133.628754 148.677292
v 153.825150 130.879166 134.837555
v 167.885223 129.457596 147.331635
v 147.214722 129.554657 147.311722
v 145.330505 130.062302 136.804886
v 155.875992 146.122177 136.836899
v 145.566223 132.230118 133.763901
v 167.610809 128.081406 143.723175
v 167.048508 139.868973 138.732590
v 167.187241 137.911087 139.022293
v 153.825180 143.851837 132.630280
v 142.574081 144.825851 138.395615
v 153.825104 127.049690 143.449509
v 153.825089 145.706970 138.519485
v 167.401245 135.682632 145.205170
v 159.978104 127.997635 141.296097
v 145.474899 145.966766 133.542847
v 164.082153 125.316231 149.241516
v 159.976578 129.296799 149.636398
v 159.977921 125.165123 148.569077
v 140.597733 128.442444 142.365295
v 140.878784 141.791672 138.714355
v 155.878555 133.617752 148.574921
v 162.027863 137.628494 148.155655
v 149.430008 127.050110 143.449692
v 166.940933 141.546524 142.067490
v 166.794052 137.744476 145.397537
v 153.826828 132.842468 132.179626
v 151.481125 139.761292 132.477371
v 164.059311 145.926285 136.770966
v 145.211777 137.922333 145.804504
v 141.873917 135.300705 144.868378
v 153.824646 137.725647 132.334656
v 155.876434 125.166626 148.569061
v 166.041290 130.354446 136.915756
v 159.978043 129.987823 136.768585
v 149.431000 145.692749 133.072495
v 167.228577 133.713547 147.275543
v 142.546295 138.524124 143.893204
v 152.131454 134.624130 131.918579
v 143.585342 141.825729 133.590195
v 166.918961 134.428604 132.117157
v 140.294525 129.519638 142.475708
v 167.392975 135.666809 141.597549
v 153.928284 127.255440 149.958099
v 145.330505 126.690002 144.540924
v 164.065201 135.645126 148.320724
v 151.481705 126.141579 145.565002
v 164.280960 145.308273 138.605957
v 149.433640 132.825287 132.201233
v 159.978027 146.411545 134.495148
v 157.927002 128.580353 139.976578
v 165.940933 145.387482 136.655014
v 145.522720 137.077637 146.037247
v 161.946930 142.564468 145.902420
v 149.471069 143.095551 144.464615
v 141.354782 128.115097 143.551193
v 159.982117 138.554352 147.904129
v 143.629349 137.724106 133.589722
v 166.825073 141.789764 142.830734
v 164.048660 143.837433 132.795456
v 155.875946 141.811829 132.508728
v 147.390106 143.847473 132.699524
v 149.430069 129.089249 138.822083
v 157.926910 145.118362 140.841125
v 157.927109 127.382523 149.962311
v 164.088181 136.150177 132.082687
v 140.425919 135.888947 141.929459
v 167.011826 143.739441 136.449600
v 167.231232 132.481140 139.507523
v 140.456055 140.572418 138.934357
v 164.051132 144.806519 140.743927
v 166.611786 143.973251 137.369461
v 140.072723 137.585571 140.256454
v 146.657196 138.359970 145.963837
v 164.077652 131.997772 132.942062
v 168.027313 131.560318 145.343063
v 165.618149 145.579300 133.591553
v 153.830978 133.639908 131.877914
v 139.695770 133.651779 135.726349
v 155.731247 137.730652 147.775513
v 166.690445 141.934280 140.639679
v 142.605515 143.548157 140.667191
v 151.828979 126.879402 149.832840
v 150.885269 134.518402 131.964096
v 164.015945 144.093719 142.997055
v 150.839279 132.197495 147.938293
v 164.080887 128.605255 139.986649
v 141.877960 146.133362 134.765808
v 164.896408 141.193924 146.033417
v 153.825073 129.988251 136.768829
v 166.107788 133.607742 148.137527
v 151.480927 146.388107 135.478882
v 153.826401 146.065948 133.427002
v 157.898148 139.906693 147.229080
v 167.208267 140.673767 137.651352
v 159.978226 146.079697 133.417923
v 149.428909 137.712570 132.443695
v 145.332397 133.603668 146.488770
v 170.926666 132.657974 132.965652
v 167.173187 137.718414 140.554947
v 140.163864 130.331268 138.778961
v 143.918503 145.636246 133.875305
v 159.978058 145.700256 138.517838
v 153.825089 129.089539 138.822159
v 167.331329 129.309174 148.354904
v 153.787155 131.513672 148.847839
v 142.475769 135.659821 134.092636
v 166.095810 127.314529 143.572281
v 140.436554 131.560623 143.463120
v 147.417892 126.446968 145.609436
v 151.448929 125.230133 148.587769
v 148.204620 133.121811 132.110519
v 166.465652 143.400116 142.244370
v 148.062592 132.869781 132.248703
v 159.977966 128.580399 139.976532
v 162.024933 139.732620 147.433670
v 142.145905 126.836731 145.703415
v 151.479645 146.065948 133.426941
v 166.594864 145.110703 135.991898
v 138.839630 132.342743 136.747513
v 158.118591 134.852692 131.874619
v 159.969894 141.570847 146.643738
v 159.978027 130.874130 134.834991
v 162.028854 130.878403 134.837067
v 138.984100 133.680725 138.769073
v 164.078125 125.394005 147.488739
v 151.734772 131.239685 148.527817
v 143.342804 145.279282 138.404495
v 162.031006 133.620483 148.649567
v 151.482361 132.009338 132.954193
v 159.978012 132.830841 132.157013
v 151.480179 137.719666 132.371201
v 164.079193 129.142731 138.844803
v 147.390625 137.709595 132.631897
v 147.379684 146.388992 135.478760
v 143.287521 127.250336 143.517654
v 141.330963 133.643051 134.771378
v 151.473251 133.630493 131.894440
v 149.390091 135.693726 132.226089
v 145.316849 131.556244 146.664902
v 159.978027 141.811920 132.507980
v 155.875961 139.761658 132.470078
v 153.825623 131.997818 132.944641
v 157.926941 126.119865 145.556137
v 155.875626 131.563248 149.023834
v 141.298767 137.709610 134.674698
v 151.420288 125.779518 149.685898
v 170.299515 132.779572 132.926529
v 141.030136 135.668686 143.279709
v 162.034454 146.083603 133.418091
v 164.080292 133.608643 148.542297
v 145.250137 139.728165 132.994583
v 138.660980 133.612503 137.437836
v 145.714554 126.652130 146.067078
v 168.933853 137.103500 134.124954
v 164.074661 133.645309 131.866577
v 162.008820 143.359131 145.019455
v 143.266525 126.844040 144.605270
v 155.881592 134.662567 131.857117
v 167.319138 133.519821 138.896881
v 149.775406 125.604462 149.006073
v 157.927643 131.573227 149.060959
v 159.978043 139.761856 132.464737
v 159.978119 131.986237 132.935944
v 149.431152 130.900986 134.848709
v 153.827118 125.181335 148.569992
v 151.481171 127.998344 141.296478
v 155.065094 136.469650 147.852478
v 153.825027 128.580414 139.976486
v 142.168304 133.101547 145.786957
v 147.404892 145.691238 133.108536
v 149.508392 125.881737 147.581741
v 159.978027 125.372566 147.480881
v 149.430008 128.580811 139.976776
v 143.597305 135.341095 145.962692
v 143.311462 129.506851 146.335114
v 155.878189 144.323685 143.074371
v 159.935883 131.487274 149.067719
v 155.876007 127.050194 143.449738
v 167.366714 132.817719 131.985474
v 151.481110 145.097702 140.834625
v 155.858551 135.682266 148.287476
v 167.246384 137.709564 141.900421
v 141.910492 127.546623 145.065750
v 167.439468 137.714554 138.073929
v 164.084778 125.796707 149.681061
v 165.164902 137.090912 147.859772
v 155.875946 129.089249 138.822067
v 145.332779 145.614975 138.496414
v 153.825470 146.399719 134.496185
v 166.081680 139.731354 132.802734
v 167.115112 139.562149 143.003082
v 165.990616 143.712433 140.833755
v 143.537094 144.512238 140.540588
v 167.307587 132.458038 140.072083
v 166.261124 139.622040 145.196960
v 166.010849 129.541672 149.139984
v 164.175613 142.368729 145.693695
v 153.681473 135.843597 147.761139
v 168.032349 132.490585 133.104248
v 167.569748 131.409012 141.140274
v 166.610107 146.323090 134.829666
v 167.005905 139.795944 140.579330
v 145.354034 144.924210 140.774368
v 139.650131 133.689819 140.925827
v 159.971893 136.155777 132.064087
v 142.802780 144.557251 139.673141
v 158.898361 142.622772 145.998505
v 151.443436 133.639618 147.688400
v 164.007919 145.732697 133.141403
v 159.985916 143.403168 145.071594
v 170.989502 132.577744 132.978714
v 162.028961 131.986679 132.936264
v 167.399063 141.720413 136.468948
v 143.696182 133.629501 133.797882
v 164.077606 130.912521 134.852600
v 167.363174 131.339691 147.937012
v 144.466248 142.942276 143.719025
v 167.597168 125.648529 149.138397
v 155.875977 126.119843 145.556137
v 159.924561 139.803314 147.418625
v 139.723480 135.643311 135.713638
v 155.875977 130.874481 134.835144
v 142.566971 146.299530 134.706696
v 167.308975 129.421158 139.332184
v 149.428482 146.076553 133.420029
v 167.691696 131.770462 136.787689
v 147.378891 127.997856 141.296173
v 164.077332 125.167236 148.570221
v 151.435318 137.751480 146.769073
v 155.876099 143.852859 132.621292
v 151.481125 130.880600 134.838272
v 143.170914 131.672241 134.951782
v 147.465179 143.057465 144.314621
v 143.047058 136.205750 145.550735
v 167.546310 135.394821 143.322250
v 162.028976 125.314018 149.241638
v 157.926987 126.580963 144.502365
v 166.527924 143.264511 142.580750
v 141.379807 139.901306 134.737991
v 153.906296 133.551468 148.353973
v 149.430054 146.122162 136.836884
v 162.029037 136.159531 132.057220
v 147.378952 146.117142 136.835648
v 153.825089 146.388077 135.478897
v 147.380646 146.400909 134.496582
v 153.010696 134.133057 147.958008
v 153.814514 139.780167 146.689240
v 164.035004 131.534119 148.908768
v 151.481155 129.988251 136.768799
v 143.587204 139.950714 133.526245
v 162.028641 145.641998 138.503677
v 166.759293 142.008057 138.711792
v 153.830322 143.214218 144.701416
v 159.978348 144.385056 143.107071
v 153.825104 139.761642 132.468842
v 141.496567 141.802490 135.037247
v 140.040833 137.633423 135.684418
v 149.433807 144.221634 143.007355
v 157.927170 133.638412 131.865646
v 159.978470 133.643311 131.866287
v 151.481094 141.811859 132.511108
v 164.911041 144.629837 140.008774
v 166.121521 128.845093 140.141907
v 145.366409 146.332245 134.525131
v 142.623108 139.898972 143.372787
v 166.076920 143.938553 138.723282
v 142.050308 138.906616 143.021271
v 155.870178 135.864166 132.036346
v 155.888367 141.717468 146.237747
v 143.276413 133.634171 146.176437
v 155.875992 128.580795 139.976761
v 166.462265 141.730499 143.700470
v 167.141266 139.697327 141.939529
v 152.470520 132.876801 148.186035
v 167.089508 141.510651 133.556046
v 166.010208 143.773178 133.367676
v 157.926941 131.986343 132.936050
v 155.875992 129.987915 136.768661
v 147.437866 132.295990 133.095856
v 142.358871 144.997681 136.351212
v 157.927048 132.831985 132.160889
v 155.876114 145.113083 140.839462
v 155.880753 125.801254 149.669693
v 153.925003 129.358948 149.528702
v 151.480087 145.686661 133.082657
v 166.092926 131.117081 134.937866
v 157.926956 146.121689 136.836761
v 147.925049 126.553551 147.026611
v 159.978043 129.089523 138.822205
v 157.926941 127.050140 143.449753
v 147.396240 133.630859 132.452072
v 155.877121 132.832352 132.160492
v 165.956696 127.106934 149.928101
v 149.363464 140.282242 145.898331
v 155.809433 139.661453 147.017990
v 167.078873 133.014374 147.809433
v 143.310379 126.580894 145.568420
v 143.314758 126.703873 145.818726
v 167.253265 133.631851 140.181503
v 153.757004 137.781219 147.189499
v 141.285583 128.395874 141.393753
v 147.388092 139.762878 132.630997
v 151.497910 143.125122 144.559982
v 144.031403 132.273468 134.159378
v 150.448242 125.321251 149.485428
v 159.977814 145.115860 140.840805
v 140.090179 131.476364 142.442001
v 164.079346 139.759537 132.522446
v 167.688889 133.714569 145.419098
v 159.979279 137.629257 148.148758
v 151.479523 132.846344 132.203873
v 152.455933 141.045776 146.095505
v 164.079559 126.594246 144.508606
v 149.429886 127.997635 141.296082
v 151.484879 125.314919 149.265305
v 166.083344 128.234009 141.411621
v 167.372940 129.433853 139.407806
v 155.875977 145.706451 138.519333
v 153.689056 142.122818 145.707458
v 149.439240 126.237320 145.595825
v 159.978012 135.654999 148.448578
v 145.321182 135.664413 133.091125
v 153.825851 125.386642 147.485229
v 157.926834 143.853073 132.619858
v 145.455399 141.684235 144.689072
v 139.338974 131.701187 138.524048
v 164.191940 138.399475 147.738785
v 147.390961 146.072632 133.425690
v 167.498322 127.217857 148.971207
v 151.481094 146.121307 136.836700
v 164.072723 127.360550 149.940720
v 147.378998 128.580338 139.976547
v 139.401855 137.421555 136.838135
v 153.825104 141.811844 132.510422
v 166.947464 142.939972 133.788971
v 151.480957 145.706940 138.519440
v 162.029099 137.729523 132.314011
v 165.485092 144.110550 141.590652
v 145.503723 127.454407 146.549423
v 167.635284 127.492874 145.369080
v 166.101044 132.095459 132.970276
v 167.549927 141.536667 134.639313
v 164.079651 126.138687 145.564087
v 157.926880 129.987900 136.768646
v 162.024719 145.695480 133.072540
v 155.876465 146.409882 134.495422
v 149.259750 134.403473 132.062775
v 144.159393 141.707657 144.062744
v 159.977997 146.121124 136.836639
v 165.462769 141.696960 145.175034
v 139.854401 135.543365 140.714584
v 162.028839 125.165497 148.569153
v 165.851807 137.508133 147.170776
v 151.490799 125.460266 147.507889
v 155.877487 146.077927 133.418777
v 145.262238 137.735138 133.060776
v 147.379379 130.014297 136.780777
v 167.515518 133.604446 141.531525
v 167.479614 125.679886 149.732727
v 139.034241 131.824387 136.891647
v 141.312958 130.448486 137.070068
v 142.576401 146.258560 134.719528
v 157.926727 129.301666 149.655914
v 162.028946 125.372711 147.480927
v 157.926926 130.874008 134.834946
v 166.109848 131.549423 148.543701
v 149.430084 139.760880 132.509140
v 166.030487 141.773682 132.988998
v 166.098740 125.556129 147.559982
v 143.311584 131.552795 146.301575
v 168.061630 129.512650 145.492569
v 163.932556 141.582352 146.364975
v 143.157639 141.712372 143.025558
v 141.754974 137.695206 143.456528
v 157.926926 141.811890 132.508270
v 140.758698 142.088058 136.939789
v 155.877579 125.316917 149.238983
v 162.021744 145.044922 140.822342
v 162.028580 135.653778 148.433121
v 162.029007 129.093262 138.823807
v 155.876022 146.393875 135.479614
v 153.825027 126.581017 144.502380
v 140.229248 139.631332 135.773392
v 141.849915 143.754562 138.642105
v 167.259628 139.423203 137.941483
v 166.140839 132.822495 132.152740
v 164.076401 130.048599 136.794739
v 162.029205 133.643158 131.859085
v 141.567062 143.669159 136.724640
v 151.480804 126.580849 144.502426
v 168.571960 137.378494 133.510956
v 167.107330 141.824951 137.566650
v 157.927109 146.411346 134.495239
v 151.492996 139.742142 146.310776
v 149.450195 132.044998 132.971802
v 139.778595 131.551239 140.911057
v 145.360657 126.517548 145.560944
v 153.977173 141.345871 146.160522
v 145.328049 128.582993 139.977753
v 147.382996 135.654846 146.504745
v 141.498062 129.541290 145.146332
v 142.335831 136.783691 144.652496
v 150.151993 130.558151 148.234970
v 155.875992 127.997650 141.296097
v 147.387390 130.988953 134.896439
v 157.927200 125.314186 149.241547
v 142.280151 127.475174 145.784760
v 147.379166 141.768387 145.065643
v 165.145767 142.998444 144.341690
v 168.054810 139.467255 134.516449
v 168.141357 135.657043 136.735153
v 167.382538 131.440964 138.516220
v 159.978043 125.798225 149.679443
v 140.455872 141.020248 135.877686
v 164.095383 139.737213 147.142151
v 149.430679 143.851837 132.630905
v 168.112061 133.654388 136.763763
v 167.282242 129.397903 139.474365
v 143.282455 128.078430 141.329163
v 148.064789 138.751694 146.108780
v 153.822220 125.805351 149.651505
v 149.429504 146.409927 134.495361
v 159.977905 143.852753 132.622269
v 141.616089 133.634598 145.207230
v 157.929245 135.647690 148.391220
v 147.374207 135.667603 132.552505
v 165.320114 145.077774 137.953949
v 145.328079 128.001480 141.297775
v 167.624557 139.347290 133.526428
v 162.027969 129.284256 149.606491
v 162.029083 139.761795 132.466278
v 159.967972 142.642075 146.016403
v 155.877228 145.692795 133.069962
v 138.763947 133.588882 136.732849
v 157.927704 125.798309 149.680237
v 143.642441 135.658142 133.642166
v 143.833435 143.345001 142.643433
v 149.439255 137.699295 146.460861
v 165.226257 139.520935 146.584915
v 166.127396 126.322441 145.617584
v 162.020477 144.325256 143.084518
v 151.345871 127.795944 149.575333
v 153.818130 135.863693 132.049652
v 155.875977 126.580986 144.502319
v 138.792236 135.564819 137.389557
v 167.712112 131.505035 147.284103
v 164.061981 146.118988 133.413559
v 143.674515 143.812912 133.631744
v 159.977997 126.580933 144.502335
v 140.244827 140.822205 137.934982
v 142.134872 131.550278 145.863174
v 162.027649 138.561646 147.913803
v 145.313782 145.693069 133.320724
v 145.320953 139.762543 145.219406
v 139.081573 135.723541 138.642914
v 167.134796 137.082535 144.928055
v 159.981033 134.953629 131.870773
# 668 vertices, 0 vertices normals

f 643 421 264
f 339 590 361
f 190 14 166
f 10 319 46
f 578 238 73
f 229 563 383
f 169 314 49
f 95 313 517
f 436 328 91
f 228 388 641
f 359 241 65
f 407 540 71
f 186 594 196
f 326 3 626
f 611 198 29
f 64 61 418
f 265 469 514
f 533 567 268
f 505 619 8
f 486 553 546
f 427 507 247
f 145 604 566
f 185 516 526
f 34 337 495
f 7 511 409
f 477 282 603
f 131 358 410
f 69 153 320
f 89 25 27
f 287 125 187
f 58 201 660
f 207 155 338
f 225 50 83
f 224 667 133
f 451 457 204
f 14 74 103
f 545 271 220
f 171 430 655
f 317 647 47
f 361 301 577
f 491 434 207
f 447 439 563
f 649 7 29
f 461 268 362
f 239 412 262
f 569 446 253
f 244 188 131
f 432 347 157
f 128 455 592
f 23 391 55
f 136 16 24
f 317 425 647
f 463 218 291
f 467 250 181
f 242 195 466
f 301 507 427
f 657 582 212
f 624 85 447
f 77 336 554
f 358 13 309
f 604 260 82
f 206 611 150
f 590 233 256
f 183 297 343
f 373 548 642
f 353 503 237
f 666 562 415
f 588 494 617
f 371 116 89
f 271 111 586
f 534 167 171
f 117 11 119
f 147 389 615
f 120 24 16
f 145 260 604
f 610 438 543
f 85 396 227
f 627 381 272
f 211 109 353
f 90 518 607
f 85 81 396
f 639 438 610
f 64 332 304
f 653 34 199
f 79 522 348
f 203 459 84
f 462 258 281
f 334 426 285
f 467 181 600
f 379 482 398
f 346 255 2
f 152 666 544
f 155 163 345
f 598 497 426
f 229 62 161
f 17 538 397
f 665 129 284
f 297 474 435
f 182 490 502
f 274 95 517
f 426 552 285
f 124 150 99
f 78 120 105
f 409 392 204
f 181 250 659
f 494 51 646
f 521 267 233
f 287 187 412
f 102 566 303
f 351 68 634
f 530 464 18
f 490 324 502
f 42 387 18
f 307 87 342
f 393 133 402
f 506 480 304
f 141 140 444
f 333 576 555
f 483 269 1
f 152 283 562
f 388 86 203
f 124 106 15
f 102 644 566
f 171 655 593
f 227 154 439
f 152 127 283
f 310 393 413
f 285 552 597
f 505 158 605
f 2 153 21
f 412 187 179
f 352 111 271
f 482 22 261
f 197 390 142
f 563 439 575
f 594 356 450
f 551 76 212
f 404 338 414
f 273 49 460
f 90 319 518
f 122 621 136
f 429 570 540
f 337 296 419
f 217 582 6
f 222 389 147
f 377 147 169
f 209 112 148
f 548 276 175
f 450 356 47
f 145 306 260
f 605 523 458
f 292 648 43
f 58 575 77
f 651 165 551
f 453 276 548
f 270 579 487
f 74 214 118
f 475 456 345
f 320 608 499
f 315 427 657
f 385 88 263
f 612 394 266
f 87 249 654
f 146 453 548
f 118 490 216
f 597 390 197
f 228 574 372
f 625 467 587
f 514 464 530
f 207 163 155
f 433 576 488
f 637 349 344
f 395 596 122
f 497 131 410
f 219 310 218
f 442 353 340
f 545 352 271
f 292 43 231
f 554 72 524
f 664 539 226
f 468 186 544
f 655 448 389
f 194 568 214
f 489 576 433
f 73 472 627
f 520 286 247
f 502 558 349
f 82 260 56
f 601 593 114
f 282 329 278
f 430 354 448
f 236 402 133
f 396 113 174
f 152 562 666
f 406 483 1
f 254 199 495
f 131 628 78
f 370 510 104
f 571 363 537
f 229 383 62
f 443 347 48
f 497 410 552
f 211 433 109
f 89 151 653
f 74 118 443
f 411 26 569
f 135 355 574
f 382 531 320
f 163 475 345
f 389 448 501
f 140 414 98
f 656 544 666
f 235 269 449
f 350 308 124
f 254 51 494
f 198 284 631
f 556 270 420
f 107 588 243
f 151 34 653
f 10 46 612
f 392 378 290
f 532 636 138
f 172 605 440
f 191 426 334
f 591 343 598
f 392 123 636
f 633 456 539
f 302 91 455
f 517 313 589
f 648 141 428
f 648 404 140
f 410 4 142
f 450 66 461
f 356 157 317
f 460 211 442
f 374 423 63
f 327 394 618
f 13 120 16
f 572 48 168
f 193 231 43
f 350 124 213
f 117 13 11
f 379 398 314
f 153 255 608
f 502 349 637
f 380 635 481
f 44 447 563
f 75 220 496
f 622 122 24
f 660 201 38
f 156 556 360
f 66 268 461
f 246 328 436
f 407 315 540
f 358 422 13
f 510 411 569
f 20 215 592
f 500 591 191
f 640 621 553
f 588 161 243
f 14 103 166
f 132 645 330
f 556 658 360
f 341 492 488
f 430 448 655
f 666 415 335
f 166 70 512
f 393 402 484
f 466 195 352
f 320 153 608
f 254 495 51
f 23 108 178
f 75 545 220
f 186 196 661
f 177 424 621
f 301 148 247
f 229 161 617
f 257 534 171
f 10 612 266
f 205 223 493
f 151 614 34
f 578 73 32
f 593 655 222
f 403 235 323
f 81 542 396
f 373 586 111
f 554 580 651
f 535 351 634
f 277 562 35
f 535 634 180
f 511 506 290
f 622 24 78
f 340 237 522
f 31 230 266
f 647 533 268
f 405 411 510
f 291 218 413
f 471 331 470
f 27 25 213
f 291 413 484
f 432 157 468
f 542 84 504
f 322 79 558
f 564 406 236
f 506 304 94
f 115 280 193
f 250 362 54
f 573 434 491
f 432 289 347
f 652 589 295
f 547 128 223
f 639 21 438
f 410 142 390
f 193 43 584
f 528 6 170
f 352 149 111
f 176 345 456
f 86 532 339
f 15 106 614
f 439 154 336
f 8 444 265
f 53 126 239
f 377 222 147
f 124 99 106
f 471 599 668
f 587 600 231
f 516 357 526
f 237 503 288
f 307 513 344
f 408 561 299
f 357 632 107
f 307 349 87
f 382 320 499
f 224 133 446
f 310 253 393
f 191 598 426
f 634 68 160
f 476 584 559
f 288 121 162
f 219 192 310
f 158 514 530
f 274 493 529
f 264 144 583
f 647 182 533
f 276 97 175
f 420 92 658
f 343 435 244
f 665 536 129
f 392 290 123
f 567 637 344
f 343 244 598
f 348 249 87
f 568 59 375
f 49 300 460
f 477 463 291
f 447 85 227
f 283 193 35
f 664 226 312
f 128 215 223
f 313 53 462
f 376 243 534
f 605 458 511
f 297 435 343
f 463 305 218
f 504 540 200
f 2 21 639
f 384 377 169
f 262 412 329
f 431 326 267
f 416 101 331
f 509 202 618
f 388 203 641
f 572 74 443
f 99 7 419
f 14 214 74
f 118 616 490
f 346 630 512
f 284 129 631
f 220 441 102
f 595 600 491
f 307 344 349
f 335 415 607
f 568 375 616
f 84 577 407
f 479 101 195
f 366 597 197
f 83 12 137
f 660 501 448
f 246 496 328
f 447 227 439
f 424 278 553
f 5 493 274
f 14 194 214
f 132 330 571
f 575 439 336
f 561 620 45
f 63 100 599
f 27 213 15
f 520 26 286
f 303 557 400
f 65 319 90
f 509 364 608
f 498 95 529
f 435 629 188
f 382 321 565
f 5 465 421
f 193 478 585
f 292 417 404
f 332 3 326
f 279 623 405
f 572 103 74
f 209 564 112
f 217 6 528
f 641 84 542
f 225 83 325
f 333 374 576
f 382 499 52
f 12 318 137
f 660 38 501
f 531 565 257
f 384 273 543
f 579 640 486
f 484 402 235
f 28 401 579
f 4 358 13
f 286 170 6
f 542 504 113
f 99 419 296
f 175 97 57
f 651 551 72
f 369 101 479
f 346 512 266
f 406 1 402
f 326 626 663
f 575 336 77
f 332 643 3
f 176 633 302
f 541 455 128
f 307 342 578
f 609 530 480
f 434 139 163
f 216 490 182
f 591 598 191
f 324 259 322
f 412 187 329
f 282 424 603
f 156 160 556
f 20 604 82
f 419 7 457
f 431 332 326
f 474 528 629
f 641 203 84
f 193 476 478
f 225 261 22
f 437 80 628
f 190 610 194
f 392 636 210
f 73 627 272
f 649 631 172
f 230 252 266
f 136 602 365
f 305 603 177
f 610 41 194
f 459 361 577
f 663 538 17
f 249 162 654
f 290 506 94
f 615 501 22
f 10 518 319
f 380 46 635
f 223 529 493
f 489 555 576
f 67 395 622
f 543 273 41
f 136 365 16
f 42 205 387
f 565 534 257
f 423 285 100
f 665 110 536
f 499 25 116
f 130 251 97
f 567 344 362
f 414 108 98
f 69 234 21
f 295 281 45
f 173 93 18
f 139 475 163
f 282 278 424
f 119 602 640
f 106 337 614
f 234 114 525
f 180 145 644
f 652 295 144
f 38 50 225
f 548 175 642
f 385 445 88
f 289 48 347
f 561 483 406
f 560 82 56
f 360 189 36
f 369 470 331
f 139 312 226
f 371 89 293
f 368 394 327
f 167 161 62
f 508 255 368
f 359 35 585
f 245 555 159
f 612 37 394
f 222 655 389
f 241 385 635
f 405 510 370
f 166 103 70
f 47 268 66
f 164 276 453
f 612 46 662
f 375 442 340
f 12 72 318
f 624 646 275
f 3 264 583
f 247 286 657
f 45 449 483
f 531 69 320
f 321 376 565
f 564 224 148
f 131 78 105
f 204 392 232
f 10 252 518
f 465 652 367
f 431 267 94
f 291 484 235
f 19 130 97
f 342 654 242
f 31 70 252
f 250 54 659
f 23 184 391
f 241 613 445
f 318 551 217
f 526 357 107
f 173 18 387
f 462 239 258
f 371 52 116
f 367 652 144
f 452 184 178
f 356 317 47
f 39 386 550
f 580 40 651
f 535 586 351
f 403 291 235
f 472 545 75
f 333 334 423
f 84 407 504
f 213 124 15
f 69 21 153
f 15 614 151
f 11 16 602
f 626 583 650
f 44 229 617
f 509 618 39
f 121 492 470
f 19 197 130
f 160 270 556
f 398 159 555
f 452 178 454
f 369 331 101
f 139 226 475
f 9 515 425
f 91 400 455
f 659 434 96
f 648 140 141
f 531 601 69
f 436 91 633
f 565 376 534
f 517 589 652
f 382 565 531
f 173 61 93
f 334 285 423
f 218 305 177
f 308 206 150
f 594 450 467
f 172 129 505
f 17 397 209
f 265 514 158
f 155 345 454
f 528 411 629
f 519 57 401
f 246 436 381
f 531 257 601
f 645 656 363
f 525 114 377
f 536 428 141
f 482 261 159
f 532 590 339
f 58 77 201
f 152 115 127
f 413 393 484
f 79 348 294
f 450 47 66
f 197 142 4
f 64 418 332
f 498 20 82
f 271 586 441
f 561 45 483
f 79 294 558
f 265 98 469
f 88 240 263
f 362 513 54
f 388 210 86
f 41 59 568
f 530 93 480
f 405 623 411
f 221 207 338
f 279 405 370
f 414 399 108
f 520 224 446
f 156 360 306
f 632 254 494
f 468 356 594
f 656 335 363
f 99 29 7
f 286 6 582
f 386 581 208
f 113 570 33
f 535 644 441
f 645 363 330
f 380 481 581
f 505 8 158
f 131 105 358
f 234 601 114
f 552 390 597
f 373 351 586
f 338 155 399
f 114 222 377
f 417 338 404
f 487 125 287
f 386 208 550
f 180 156 306
f 536 619 129
f 154 429 580
f 370 104 192
f 256 17 209
f 173 421 643
f 311 537 607
f 567 362 268
f 337 419 485
f 338 399 414
f 114 593 222
f 533 637 567
f 649 198 631
f 165 76 551
f 436 633 539
f 425 182 647
f 241 585 613
f 307 578 513
f 629 623 188
f 10 266 252
f 164 366 19
f 70 607 518
f 300 433 211
f 232 392 210
f 316 355 135
f 403 323 549
f 452 176 302
f 668 453 416
f 451 232 355
f 663 626 538
f 355 232 372
f 485 451 316
f 240 665 284
f 267 663 233
f 7 409 457
f 197 4 251
f 287 412 179
f 664 381 539
f 72 551 318
f 9 425 317
f 402 269 235
f 7 440 511
f 461 362 250
f 432 544 143
f 125 329 187
f 423 100 63
f 640 136 621
f 65 90 415
f 274 517 465
f 283 35 562
f 119 11 602
f 573 434 139
f 370 67 80
f 306 36 260
f 311 168 537
f 638 262 282
f 429 76 40
f 504 200 570
f 310 413 218
f 37 618 394
f 57 117 119
f 659 30 664
f 20 592 557
f 514 55 464
f 132 289 645
f 595 221 417
f 173 643 418
f 225 325 261
f 431 94 304
f 391 547 205
f 315 657 212
f 435 528 629
f 525 377 384
f 499 364 25
f 175 57 519
f 183 343 591
f 468 157 356
f 228 641 81
f 186 661 115
f 180 306 145
f 185 526 321
f 588 617 161
f 632 494 588
f 476 559 110
f 311 572 168
f 208 213 25
f 16 365 602
f 374 488 576
f 206 263 611
f 59 460 442
f 498 529 215
f 20 557 604
f 520 148 224
f 348 288 249
f 30 272 664
f 181 491 600
f 69 601 234
f 627 472 75
f 495 316 135
f 325 591 500
f 499 608 364
f 530 18 93
f 615 22 482
f 533 502 637
f 88 248 476
f 290 138 123
f 77 524 201
f 496 303 328
f 383 354 62
f 610 543 41
f 97 251 4
f 44 563 229
f 65 635 319
f 656 666 335
f 253 446 133
f 651 40 165
f 577 427 315
f 477 638 282
f 183 137 297
f 81 641 542
f 496 220 102
f 219 218 596
f 521 233 590
f 409 290 378
f 477 603 463
f 467 461 250
f 169 147 379
f 379 615 482
f 325 83 183
f 535 180 644
f 281 473 549
f 144 620 561
f 440 605 511
f 613 88 445
f 90 607 415
f 595 491 221
f 630 639 190
f 469 108 23
f 246 75 496
f 278 329 125
f 308 150 124
f 73 238 472
f 77 554 524
f 594 625 196
f 241 635 65
f 650 299 561
f 277 35 359
f 628 67 622
f 53 56 126
f 416 146 149
f 89 27 151
f 283 127 193
f 174 429 154
f 145 566 644
f 605 158 523
f 477 291 403
f 144 295 620
f 164 19 276
f 374 63 341
f 391 205 42
f 86 339 203
f 398 555 489
f 579 486 487
f 443 118 216
f 38 22 501
f 383 58 354
f 363 335 537
f 635 385 481
f 3 583 626
f 58 660 354
f 409 511 290
f 197 251 130
f 257 171 593
f 313 462 589
f 668 416 331
f 28 579 270
f 471 668 331
f 162 479 654
f 2 255 153
f 410 358 4
f 585 248 88
f 626 650 564
f 532 138 521
f 662 46 380
f 205 493 387
f 536 110 559
f 429 540 76
f 169 379 314
f 292 404 648
f 564 650 406
f 508 327 202
f 241 445 385
f 463 603 305
f 274 529 95
f 311 103 572
f 263 198 611
f 306 360 36
f 416 149 101
f 508 509 608
f 500 245 159
f 265 444 98
f 595 417 292
f 89 653 293
f 552 410 390
f 301 209 148
f 256 209 301
f 659 54 30
f 653 199 254
f 240 198 263
f 233 663 17
f 457 409 204
f 45 549 323
f 403 549 473
f 347 9 157
f 571 537 168
f 162 121 369
f 442 211 353
f 358 309 422
f 80 67 628
f 645 143 656
f 649 440 7
f 537 335 607
f 521 138 94
f 193 585 35
f 349 294 87
f 614 337 34
f 496 102 303
f 585 478 476
f 140 98 444
f 243 161 167
f 624 275 60
f 370 192 67
f 86 636 532
f 508 202 509
f 564 236 224
f 36 189 126
f 328 303 400
f 182 502 533
f 399 178 108
f 190 194 14
f 131 437 628
f 649 29 198
f 595 292 231
f 333 423 374
f 184 547 391
f 388 372 210
f 583 144 408
f 281 258 473
f 51 275 646
f 547 223 205
f 341 470 492
f 127 115 193
f 505 129 619
f 536 444 619
f 314 398 489
f 40 76 165
f 107 243 376
f 100 597 366
f 664 272 381
f 64 93 61
f 399 454 178
f 176 456 633
f 97 117 57
f 295 45 620
f 434 312 139
f 374 341 488
f 325 183 591
f 146 373 111
f 466 352 545
f 311 70 103
f 406 402 236
f 661 196 587
f 301 247 507
f 604 557 566
f 341 471 470
f 550 208 25
f 348 87 294
f 57 119 401
f 383 575 58
f 64 304 480
f 515 216 425
f 469 98 108
f 426 497 552
f 521 94 267
f 84 459 577
f 252 70 518
f 585 88 613
f 433 488 109
f 327 618 202
f 401 119 640
f 580 429 40
f 430 62 354
f 51 135 275
f 628 622 78
f 589 462 281
f 27 15 151
f 434 163 207
f 188 437 131
f 498 560 95
f 357 293 632
f 630 190 166
f 55 42 464
f 348 237 288
f 522 237 348
f 4 13 117
f 650 561 406
f 538 564 397
f 171 167 430
f 298 139 434
f 8 619 444
f 609 480 506
f 249 288 162
f 643 264 3
f 373 642 351
f 419 457 451
f 173 387 5
f 242 479 195
f 520 247 148
f 541 128 547
f 599 100 366
f 474 134 528
f 519 401 28
f 360 658 189
f 495 135 51
f 31 252 230
f 409 378 392
f 464 42 18
f 102 441 644
f 361 256 301
f 581 350 208
f 346 2 630
f 286 582 657
f 122 136 24
f 355 372 574
f 226 456 475
f 300 489 433
f 214 568 616
f 662 581 386
f 556 420 658
f 123 138 636
f 520 446 26
f 193 280 231
f 540 315 76
f 359 585 241
f 267 326 663
f 146 111 149
f 226 539 456
f 384 49 273
f 500 159 261
f 468 594 186
f 155 454 399
f 209 397 564
f 668 164 453
f 404 414 140
f 174 113 33
f 368 266 394
f 389 501 615
f 227 174 154
f 435 629 528
f 435 188 244
f 50 12 83
f 106 99 296
f 315 212 76
f 527 134 474
f 270 487 420
f 541 302 455
f 341 63 471
f 289 143 645
f 337 485 316
f 432 468 544
f 649 172 440
f 385 263 206
f 583 299 650
f 37 662 386
f 585 476 248
f 623 80 437
f 54 32 30
f 13 16 11
f 219 596 395
f 482 159 398
f 443 9 347
f 86 210 636
f 157 9 317
f 573 96 434
f 189 179 412
f 658 179 189
f 5 387 493
f 362 344 513
f 436 539 381
f 535 441 586
f 310 192 104
f 228 372 388
f 534 243 167
f 375 340 606
f 640 602 136
f 523 609 458
f 49 314 300
f 64 480 93
f 89 116 25
f 87 654 342
f 181 659 96
f 460 300 211
f 88 110 240
f 584 648 428
f 173 418 61
f 490 606 259
f 257 593 601
f 383 563 575
f 526 107 376
f 192 395 67
f 285 597 100
f 60 228 81
f 185 321 371
f 536 141 444
f 627 246 381
f 659 664 312
f 314 489 300
f 583 408 299
f 132 48 289
f 234 525 438
f 147 615 379
f 146 548 373
f 245 334 333
f 451 204 232
f 293 254 632
f 311 607 70
f 115 661 280
f 53 239 462
f 371 382 52
f 358 120 13
f 260 36 56
f 78 24 120
f 152 544 186
f 616 375 606
f 502 322 558
f 194 41 568
f 490 259 324
f 661 231 280
f 443 216 515
f 158 530 609
f 508 608 255
f 477 403 473
f 419 451 485
f 612 662 37
f 510 569 104
f 233 17 256
f 471 63 599
f 132 571 168
f 407 577 315
f 5 274 465
f 172 631 129
f 504 71 540
f 494 646 617
f 50 524 12
f 450 461 467
f 45 323 449
f 244 131 497
f 60 81 85
f 412 179 187
f 238 466 472
f 106 296 337
f 336 580 554
f 578 342 238
f 558 294 349
f 236 133 667
f 234 438 21
f 630 2 639
f 245 191 334
f 167 62 430
f 238 242 466
f 504 407 71
f 277 65 415
f 524 72 12
f 481 385 308
f 223 215 529
f 626 564 538
f 351 642 68
f 258 638 477
f 578 32 513
f 214 616 118
f 469 23 55
f 253 133 393
f 509 39 364
f 39 550 364
f 573 139 298
f 371 321 382
f 554 651 72
f 38 201 50
f 128 592 215
f 635 46 319
f 8 265 158
f 603 424 177
f 384 169 49
f 629 411 623
f 418 643 332
f 630 166 512
f 221 338 417
f 560 56 53
f 465 517 652
f 88 476 110
f 47 647 268
f 13 422 309
f 318 217 527
f 208 350 213
f 599 366 164
f 144 561 408
f 184 541 547
f 43 648 584
f 525 384 543
f 340 353 237
f 97 4 117
f 472 466 545
f 573 298 434
f 339 361 459
f 297 527 474
f 23 178 184
f 162 369 479
f 502 324 322
f 227 396 174
f 279 370 623
f 132 168 48
f 511 458 506
f 37 386 39
f 180 634 156
f 240 284 198
f 59 442 375
f 173 5 421
f 83 137 183
f 633 91 302
f 452 541 184
f 627 75 246
f 371 293 357
f 443 515 9
f 420 487 287
f 56 36 126
f 60 574 228
f 293 653 254
f 239 126 412
f 193 584 476
f 595 231 600
f 396 542 113
f 525 543 438
f 487 486 546
f 220 271 441
f 41 273 59
f 401 640 579
f 143 544 656
f 286 26 170
f 259 522 79
f 452 302 541
f 325 500 261
f 571 330 363
f 278 125 553
f 624 60 85
f 659 312 434
f 239 262 258
f 54 513 32
f 616 606 490
f 273 460 59
f 640 553 486
f 370 80 623
f 622 395 122
f 137 527 297
f 185 371 516
f 277 359 65
f 598 244 497
f 353 109 503
f 572 443 48
f 235 449 323
f 366 197 19
f 337 316 495
f 240 110 665
f 411 170 26
f 316 451 355
f 570 200 540
f 236 667 224
f 105 120 358
f 546 553 125
f 219 395 192
f 498 82 560
f 310 104 253
f 589 281 295
f 195 101 149
f 34 495 199
f 527 217 134
f 625 587 196
f 135 574 275
f 569 26 446
f 499 116 52
f 188 623 437
f 181 96 573
f 137 318 527
f 467 600 587
f 160 28 270
f 113 504 570
f 174 33 429
f 560 53 313
f 424 553 621
f 181 573 491
f 368 255 346
f 109 488 492
f 287 179 92
f 37 39 618
f 487 546 125
f 190 639 610
f 152 186 115
f 425 216 182
f 594 467 625
f 371 357 516
f 44 624 447
f 427 247 657
f 73 272 32
f 458 609 506
f 590 256 361
f 121 470 369
f 109 492 503
f 172 505 605
f 661 587 231
f 577 301 427
f 532 521 590
f 245 333 555
f 60 275 574
f 400 557 592
f 258 262 638
f 474 629 435
f 421 367 264
f 431 304 332
f 508 368 327
f 217 528 134
f 218 177 596
f 262 329 282
f 491 207 221
f 19 97 276
f 660 448 354
f 258 477 473
f 176 454 345
f 31 512 70
f 606 340 522
f 500 191 245
f 201 524 50
f 95 560 313
f 528 170 411
f 31 266 512
f 416 453 146
f 526 376 321
f 483 449 269
f 44 617 646
f 281 549 45
f 564 148 112
f 611 29 99
f 368 346 266
f 642 519 68
f 328 400 91
f 288 503 121
f 469 55 514
f 536 559 428
f 122 596 177
f 68 28 160
f 551 582 217
f 421 465 367
f 606 522 259
f 498 215 20
f 481 308 350
f 432 143 289
f 30 32 272
f 203 339 459
f 581 481 350
f 33 570 429
f 122 177 621
f 336 154 580
f 634 160 156
f 385 206 308
f 551 212 582
f 455 400 592
f 126 189 412
f 452 454 176
f 195 149 352
f 322 259 79
f 503 492 121
f 38 225 22
f 44 646 624
f 264 367 144
f 642 175 519
f 232 210 372
f 277 415 562
f 107 632 588
f 662 380 581
f 55 391 42
f 584 428 559
f 303 566 557
f 104 569 253
f 342 242 238
f 158 609 523
f 68 519 28
f 420 287 92
f 150 611 99
f 654 479 242
f 1 269 402
f 290 94 138
f 668 599 164
f 658 92 179
f 550 25 364
# 1338 faces, 0 coords texture

# End of File