####
#
# OBJ File Generated by Meshlab
#
####
# Object domain0550.obj
#
# Vertices: 808
# Faces: 1612
#
####
v 53.949360 55.770134 91.020706
v 54.120522 55.725132 90.584023
v 54.040306 55.452579 91.015862
v 54.005650 55.725224 91.471764
v 53.960197 56.138550 91.064575
v 54.101040 56.099846 90.763664
v 54.011799 56.005554 91.964157
v 53.986927 56.237949 91.918159
v 54.114861 56.248806 92.403755
v 54.058434 56.290474 91.072800
v 54.061352 56.466469 91.965271
v 54.496880 53.994164 89.059074
v 54.704605 53.962460 88.586166
v 54.587463 53.664181 89.018250
v 54.620594 53.712166 89.966301
v 54.477470 54.025261 89.964760
v 54.623161 54.027454 90.404045
v 54.495346 54.429367 89.094986
v 54.690735 54.401630 88.751854
v 54.356480 54.515751 90.007202
v 54.596092 54.368126 90.880875
v 54.458237 54.599285 90.907433
v 54.660061 54.678539 91.204308
v 54.585083 54.740799 89.061638
v 54.340118 55.059505 90.019356
v 54.527401 55.106865 89.496529
v 54.224472 55.098167 90.950546
v 54.542446 55.104389 91.470528
v 54.334297 55.578045 90.114639
v 54.651039 55.580540 89.720253
v 54.534611 55.453175 91.988800
v 54.229797 55.708420 92.011246
v 54.623299 55.645535 92.957565
v 54.448563 55.798195 92.957146
v 54.591900 55.775105 93.464676
v 54.553818 55.918720 90.050964
v 54.473202 56.257671 90.481285
v 54.263878 56.266819 92.965034
v 54.595108 56.032585 93.953979
v 54.478374 56.324753 93.916855
v 54.669357 56.315933 94.412323
v 54.476765 56.587666 90.994789
v 54.290730 56.724472 92.033539
v 54.527531 56.786293 91.515404
v 54.409203 56.757610 92.983482
v 54.490944 56.754944 93.941017
v 54.636105 56.801361 94.440575
v 54.589874 56.924152 92.039627
v 54.591526 57.070457 92.987556
v 54.620415 57.051159 93.975761
v 55.138313 51.716400 87.041161
v 55.271690 51.776226 86.870819
v 55.218384 51.636467 87.040283
v 55.196053 51.686840 87.466957
v 55.062984 52.163979 87.070633
v 55.272682 52.156063 86.799561
v 55.167145 51.918301 87.960640
v 55.045319 52.249134 87.949165
v 55.200352 52.260151 88.407120
v 55.076504 52.666279 87.099495
v 55.301788 52.627300 86.824440
v 54.929485 52.756577 88.008553
v 55.172161 52.597073 88.909691
v 55.008728 52.842735 88.943817
v 55.174088 52.906178 89.403427
v 55.172386 52.978523 87.069046
v 54.925022 53.299732 88.019119
v 55.126507 53.340935 87.505539
v 54.733330 53.312012 88.968781
v 55.138737 53.200146 89.883163
v 54.886810 53.416553 89.930962
v 55.168171 53.526836 90.231590
v 54.932331 53.806007 88.125130
v 55.230576 53.750515 87.758842
v 55.093906 53.902092 90.551765
v 55.151443 54.078625 88.106735
v 55.099762 54.463451 88.467079
v 55.081856 54.270103 90.934906
v 55.082901 54.641197 91.287254
v 54.834351 55.032471 89.049965
v 55.173763 54.896935 88.766312
v 55.083725 55.026466 91.605667
v 55.126507 55.281078 89.072594
v 55.087471 55.642975 89.446541
v 55.082321 55.339134 92.019455
v 55.084404 55.557625 92.969994
v 55.089287 55.712982 93.895226
v 54.850513 55.789471 93.947716
v 55.098354 55.906979 94.380951
v 54.835674 56.188812 90.063309
v 55.093884 56.017036 89.812561
v 55.192497 56.105408 94.955170
v 54.942017 56.345951 94.969368
v 55.221115 56.243732 95.961571
v 55.063019 56.388962 95.960220
v 55.175480 56.342400 96.471970
v 55.100018 56.361496 90.139534
v 54.819405 56.760887 91.029800
v 55.078888 56.605667 90.627220
v 54.827812 56.853069 94.987076
v 54.966702 56.846935 95.981041
v 55.168598 56.596954 96.965576
v 55.067001 56.909225 96.923050
v 55.257950 56.888523 97.416679
v 55.082275 56.807549 91.109703
v 55.070099 57.076916 92.040329
v 54.874027 57.307705 93.024071
v 55.127747 57.271885 92.568336
v 54.868126 57.312199 94.011978
v 55.020241 57.303265 94.988380
v 55.055691 57.303768 95.995384
v 55.106155 57.333019 96.935287
v 55.297005 57.341198 97.386719
v 55.169369 57.413074 93.054184
v 55.169613 57.455341 94.005753
v 55.206791 57.459904 95.001884
v 55.214325 57.481171 96.009811
v 55.244648 57.602055 96.951302
v 55.576740 51.799709 86.828545
v 55.601620 51.603008 87.089706
v 55.739624 51.604027 87.911728
v 55.442760 51.684433 87.934349
v 55.753204 51.785946 88.229027
v 55.668556 52.184406 86.695938
v 55.679554 52.142097 88.555786
v 55.672184 52.679508 86.724487
v 55.667213 52.500767 88.955956
v 55.675484 52.880417 89.426941
v 55.429676 53.244301 87.077415
v 55.669937 53.050476 86.892502
v 55.595123 53.207146 89.864059
v 55.516880 53.526367 90.180466
v 55.669178 53.399963 87.161880
v 55.668880 53.731236 87.582253
v 55.597744 53.954433 90.439919
v 55.666733 54.148602 88.048431
v 55.661179 54.520046 88.434357
v 55.568489 54.364014 90.871056
v 55.489937 54.693775 91.185791
v 55.721310 55.058537 88.842537
v 55.584160 55.129536 91.443733
v 55.631725 55.445778 88.968437
v 55.576942 55.853546 89.401688
v 55.572170 55.513657 91.971741
v 55.538818 55.653801 92.960052
v 55.358173 55.746140 93.978142
v 55.647507 55.780052 93.487885
v 55.619778 56.193264 89.852325
v 55.372093 56.251873 90.004944
v 55.627041 56.471069 90.370926
v 55.684227 55.880440 94.047829
v 55.660892 56.069412 94.990051
v 55.686874 56.115356 96.009689
v 55.720173 56.100124 96.980049
v 55.405933 56.310005 97.020813
v 55.818745 56.082275 97.928017
v 55.640694 56.363232 97.921440
v 55.882454 56.354549 98.227768
v 55.774532 56.836510 88.992249
v 55.889576 56.825680 88.608940
v 55.780148 56.603977 88.993019
v 55.928787 56.808681 89.373863
v 55.337093 56.744225 91.038773
v 55.736935 56.480423 90.871216
v 55.598949 56.766598 91.526009
v 55.486629 56.825710 97.898895
v 55.830013 56.834129 98.239235
v 55.833752 57.011959 88.994598
v 55.555290 56.955147 92.069435
v 55.564018 57.222355 92.607651
v 55.569252 57.334732 97.867149
v 55.853729 57.244503 98.143456
v 55.549961 57.397850 93.061707
v 55.602982 57.473808 94.023331
v 55.664932 57.543686 95.015923
v 55.667755 57.674507 96.020363
v 55.489403 57.845741 96.995041
v 55.678711 57.823441 96.589424
v 55.699383 57.761051 97.373543
v 55.776035 57.549858 97.859703
v 55.676842 57.909969 96.994034
v 55.917858 51.676743 87.051888
v 56.207291 51.728264 87.517830
v 56.121185 51.640041 87.963272
v 56.089325 51.786163 88.180573
v 56.179600 52.227303 86.786949
v 56.239159 51.872551 87.023918
v 56.174679 52.202579 88.433960
v 56.109211 52.602444 86.807281
v 56.154243 52.604328 88.876793
v 56.073799 52.910175 89.220970
v 56.198723 52.981892 87.059471
v 55.913475 53.248024 87.077888
v 56.210430 53.328804 87.494415
v 55.808659 53.402908 89.881104
v 56.109535 53.328384 89.436913
v 56.088745 53.728783 87.770653
v 55.895638 53.946617 89.992973
v 56.177158 53.914017 89.466034
v 56.139992 54.026756 88.125618
v 56.112919 54.378437 88.604836
v 56.016415 54.520348 89.997498
v 56.144947 54.460308 89.448380
v 55.684864 54.589558 90.891548
v 56.143646 54.733101 88.998070
v 56.137478 55.085281 89.033661
v 56.060535 55.076267 90.012352
v 55.797478 55.124023 90.970291
v 56.205460 55.711414 88.762314
v 55.843063 55.791534 88.947655
v 56.284492 55.403099 89.016197
v 56.207809 55.570988 90.067184
v 56.316319 55.564053 89.557518
v 55.906761 55.674431 90.992851
v 55.724003 55.760052 91.967819
v 55.717613 55.791145 92.959671
v 56.092449 55.827667 97.984421
v 56.284721 55.735329 97.513016
v 56.383495 55.618671 97.987312
v 56.380398 55.790752 98.398979
v 56.229992 56.351208 88.121475
v 56.446201 56.443771 87.882751
v 56.358128 56.165096 88.154137
v 55.814701 56.225887 89.015968
v 56.328568 55.851711 90.070793
v 55.730858 56.342972 89.913658
v 55.895683 56.192242 90.984299
v 56.227371 56.279675 90.440445
v 55.820843 56.252300 92.006638
v 55.927544 56.253578 93.025383
v 56.097893 56.174763 94.011375
v 56.111607 56.310234 93.561211
v 56.129829 56.212582 94.999153
v 56.186214 56.175449 96.060661
v 56.195717 55.865700 96.978210
v 56.289360 56.295464 98.543137
v 56.126236 56.763271 88.131561
v 56.445377 56.677372 87.879807
v 56.007401 56.669239 89.984978
v 56.203247 56.571640 90.272598
v 55.705952 56.732635 92.055611
v 55.939854 56.838154 93.017700
v 56.128674 56.804131 93.557678
v 56.270901 56.826656 98.441818
v 56.340076 56.990383 88.105713
v 56.093330 57.267559 88.997215
v 56.329247 57.283474 88.575493
v 56.342278 57.266632 89.412018
v 56.345768 56.972782 89.899536
v 55.705963 57.281017 93.056435
v 56.170227 57.088230 94.029305
v 55.927139 57.353565 93.999596
v 56.158211 57.337833 94.529610
v 56.262058 57.259930 98.241325
v 56.368408 57.420071 88.997353
v 56.122189 57.446514 95.035004
v 56.170017 57.518929 96.029007
v 55.894867 57.881958 96.993660
v 56.250977 57.753868 97.011368
v 56.242249 57.521465 97.922768
v 56.218166 51.717209 87.962082
v 56.574490 52.211990 86.939232
v 56.680687 52.107594 87.051765
v 56.451069 52.205235 87.933235
v 56.623554 52.166130 87.399040
v 56.652527 52.313622 87.035484
v 56.439747 52.652290 87.103371
v 56.451981 52.737099 87.996773
v 56.259697 52.831757 88.892059
v 56.366741 53.285583 88.017708
v 56.325523 53.336224 88.944534
v 56.253098 53.812862 88.094200
v 56.317509 53.891628 88.963531
v 56.230843 54.377110 88.995079
v 56.760376 55.874249 88.613731
v 56.728943 55.676334 89.003723
v 56.773689 55.805309 89.429703
v 56.554474 55.804710 96.980629
v 56.865932 55.914570 96.837303
v 56.860001 55.688831 97.148415
v 56.840466 55.357098 98.009148
v 56.935291 55.468769 98.920044
v 56.724224 55.740437 98.873711
v 57.059097 55.755638 99.211830
v 56.741413 56.462502 87.855019
v 56.783649 56.152752 88.130135
v 56.789093 56.076172 89.922218
v 56.717022 56.433372 90.189445
v 56.230228 56.370251 94.058144
v 56.279659 56.386997 95.010712
v 56.432510 56.337811 96.018517
v 56.777008 56.230179 96.479996
v 56.684944 56.198914 98.879227
v 57.029610 56.091389 99.160942
v 56.885891 56.774395 87.812187
v 56.871674 56.769215 90.190338
v 56.260872 56.772575 94.077492
v 56.380913 56.836624 95.020187
v 56.573013 56.841385 95.986008
v 56.874844 56.832047 96.414223
v 56.910892 56.428001 98.884987
v 56.801979 56.823246 98.557076
v 56.830246 57.169758 87.999146
v 56.819683 57.479626 88.467361
v 56.832344 57.169285 89.999908
v 56.819656 57.492542 89.537010
v 56.272038 57.293266 95.040657
v 56.419003 57.340031 96.026237
v 56.741528 57.322708 96.582932
v 56.748993 57.216492 98.230888
v 56.851543 57.678806 88.994385
v 56.736774 57.503403 97.031143
v 56.738102 57.427879 97.925209
v 56.710987 52.174080 87.025711
v 57.176289 55.219238 97.989716
v 57.545750 55.247791 97.736588
v 57.525948 55.038021 98.065491
v 57.520817 54.872341 98.961525
v 57.213390 55.164062 98.975807
v 57.511787 55.164284 99.424133
v 57.013756 55.825375 89.004402
v 57.104477 55.752312 97.072037
v 57.469398 55.583881 97.399330
v 57.473576 55.684078 99.524055
v 57.079689 56.331356 88.062248
v 57.397869 56.295517 88.517906
v 57.329575 56.064049 89.002045
v 57.089054 56.313782 89.951012
v 57.392063 56.294037 89.480995
v 57.222771 56.346104 96.783958
v 57.377186 56.001038 97.060799
v 57.451382 56.128281 99.299446
v 57.310627 56.973324 87.821228
v 57.391327 56.590206 88.043015
v 57.399868 56.581764 89.963287
v 57.310444 56.972584 90.177216
v 57.220661 56.756157 96.763107
v 57.466747 56.485920 98.919197
v 57.353310 56.768513 98.440544
v 57.138878 57.427242 88.014565
v 57.544792 57.297150 87.820862
v 57.145226 57.414001 89.983170
v 57.545158 57.296165 90.177773
v 57.287064 57.028496 97.049232
v 57.035461 57.306732 97.028770
v 57.033749 57.286491 97.954170
v 57.345249 57.047077 97.973213
v 57.455864 57.688423 88.036568
v 57.202866 57.939232 88.994804
v 57.463814 57.976124 88.518898
v 57.456829 57.976688 89.482971
v 57.465126 57.679314 89.956520
v 57.525928 58.206322 88.997795
v 57.798386 54.588272 99.039116
v 58.094185 54.575024 98.573837
v 58.093452 54.282749 99.021904
v 58.149124 54.309181 99.946037
v 57.983543 54.601429 99.923248
v 58.227074 54.608730 100.191757
v 57.994522 55.247261 97.760300
v 58.004486 54.883446 98.106552
v 57.810959 55.072147 99.895042
v 58.173122 55.082058 100.225136
v 57.984539 55.674831 97.587654
v 57.853771 55.604023 99.882690
v 58.190010 55.492065 100.152199
v 57.653271 56.330654 89.005226
v 57.573833 56.322021 97.142044
v 57.895622 56.151268 97.567581
v 58.087521 55.807426 99.876999
v 57.985008 56.124535 99.443680
v 57.710697 56.856567 88.016556
v 58.039062 56.773262 88.461029
v 58.004234 56.590912 89.005722
v 57.716953 56.842728 89.984962
v 58.036259 56.791111 89.532295
v 57.447533 56.744225 97.080971
v 57.950886 56.484467 98.062943
v 57.652573 56.757259 97.966011
v 57.994682 56.377708 98.955887
v 57.970692 57.496765 87.813217
v 58.026546 57.099934 87.999283
v 58.026733 57.098190 90.002335
v 57.971565 57.496521 90.186127
v 57.767738 57.955158 88.051697
v 58.126602 57.819408 87.851593
v 57.774788 57.944317 89.940331
v 58.127666 57.815762 90.146141
v 58.070614 58.182404 88.088646
v 57.840141 58.448002 88.997635
v 58.083817 58.459339 88.572533
v 58.085087 58.452721 89.422005
v 58.080387 58.166912 89.904724
v 58.125549 58.594009 88.997978
v 58.392033 53.998363 99.039993
v 58.715168 54.039379 98.736923
v 58.688911 53.707870 99.041367
v 58.691315 53.710228 99.955826
v 58.408154 54.009129 99.952324
v 58.736210 54.045448 100.229263
v 58.641636 54.507271 98.429161
v 58.633827 54.520180 100.363861
v 58.413677 55.250553 97.858604
v 58.539528 54.915237 98.109871
v 58.615936 55.068291 100.363190
v 58.390289 55.585838 97.805504
v 58.601696 55.513145 100.228783
v 58.526886 55.909615 98.055359
v 58.271759 56.225513 98.029266
v 58.543476 56.174179 98.525978
v 58.617508 55.862335 99.902428
v 58.542271 56.098774 99.429291
v 58.537926 56.979092 88.571976
v 58.490673 56.844849 89.001289
v 58.532776 56.980328 89.428467
v 58.483994 56.256554 98.979706
v 58.497505 57.627018 87.848938
v 58.540890 57.266304 88.088516
v 58.548676 57.252636 89.917580
v 58.499519 57.624805 90.153633
v 58.647644 57.940769 87.800713
v 58.647068 57.940704 90.198982
v 58.587406 58.339989 88.000298
v 58.579502 58.646332 88.469933
v 58.589764 58.338047 89.997429
v 58.579628 58.654930 89.533180
v 58.613422 58.843994 88.994804
v 58.984226 53.417316 99.044174
v 59.318279 53.463165 98.770622
v 59.283157 53.134094 99.047607
v 59.282475 53.133255 99.952896
v 58.984100 53.417088 99.955902
v 59.319031 53.462265 100.229637
v 59.199657 53.942371 98.605339
v 59.210186 53.936188 100.380478
v 59.189255 54.494644 98.495888
v 59.187508 54.496502 100.420624
v 58.761398 55.142910 98.120934
v 59.178963 55.033142 98.438599
v 59.163853 55.050266 100.364059
v 58.731159 55.614113 98.114143
v 59.089584 55.576149 98.587395
v 59.075306 55.458313 100.193283
v 58.788273 56.117844 98.993599
v 59.089073 55.873817 99.038361
v 59.084366 55.701344 99.921570
v 58.797188 56.977978 89.003761
v 58.871017 57.468601 88.035500
v 59.206406 57.375473 88.467445
v 59.170109 57.189125 89.004677
v 58.876434 57.454441 89.970245
v 59.206310 57.382694 89.529556
v 59.138241 58.087376 87.800537
v 59.197163 57.690357 88.002632
v 59.197910 57.687912 89.999580
v 59.138916 58.087124 90.199097
v 58.909344 58.573692 88.029198
v 59.287670 58.404369 87.846916
v 58.914917 58.560322 89.964500
v 59.287834 58.400978 90.152756
v 59.230480 58.789150 88.074776
v 58.981335 59.086723 88.995590
v 59.261806 59.122234 88.556755
v 59.259926 59.114143 89.433502
v 59.243217 58.773586 89.916809
v 59.314861 59.346210 88.999283
v 59.588623 52.892227 99.053879
v 59.875286 52.969429 98.826324
v 59.865620 52.782291 99.076385
v 59.865379 52.781879 99.923721
v 59.587868 52.891300 99.946579
v 59.875046 52.969070 100.174095
v 59.793636 53.363743 98.646103
v 59.793602 53.363628 100.354118
v 59.767776 53.916214 98.577942
v 59.769775 53.914211 100.420891
v 59.741871 54.484314 98.604942
v 59.747799 54.473804 100.380486
v 59.645721 54.966755 98.737602
v 59.638657 54.947960 100.229454
v 59.684986 55.292580 99.038353
v 59.397503 55.589241 99.027435
v 59.376259 55.535194 99.948875
v 59.675537 55.276913 99.952721
v 59.700619 57.575207 88.577827
v 59.660088 57.434628 89.001740
v 59.702202 57.569012 89.427391
v 59.658085 58.211967 87.855995
v 59.706722 57.860615 88.095490
v 59.714802 57.845749 89.911690
v 59.659611 58.208496 90.152039
v 59.819782 58.542843 87.805397
v 59.804913 58.527790 90.197853
v 59.735249 58.968590 87.961205
v 59.661842 59.300278 88.301544
v 59.756783 58.932774 90.000687
v 59.723904 59.281071 89.657600
v 59.621380 59.630562 88.984833
v 59.842350 59.690647 88.563789
v 59.874512 59.663914 89.302864
v 59.907562 59.934658 88.983734
v 60.253887 52.969025 98.826080
v 60.264385 52.782253 99.076385
v 60.264385 52.782253 99.923622
v 60.253860 52.968952 100.174004
v 60.323093 53.360920 98.673943
v 60.323101 53.360920 100.326080
v 60.320343 53.890388 98.645943
v 60.320286 53.890350 100.353943
v 60.221081 54.365879 98.770332
v 60.221531 54.364830 100.229378
v 60.266911 54.699963 99.044044
v 59.976109 54.995102 99.041359
v 59.973915 54.992916 99.955879
v 60.266689 54.699760 99.955811
v 59.945820 57.580132 89.002205
v 60.011116 58.083912 88.059448
v 60.319332 58.057434 88.520935
v 60.257000 57.823841 89.002563
v 60.014675 58.075207 89.944733
v 60.315384 58.056725 89.477936
v 60.236458 58.737293 87.817970
v 60.318699 58.349804 88.043098
v 60.292202 58.359200 89.942505
v 60.164516 58.685600 90.152664
v 59.990250 59.219154 87.958084
v 60.420887 59.139450 87.782478
v 60.081467 59.143681 89.948738
v 60.281372 58.946358 90.074165
v 60.167553 59.723999 88.074493
v 60.557728 59.672272 87.808640
v 60.344322 59.294266 89.852814
v 60.387276 59.709312 89.535446
v 60.399845 60.038948 88.033966
v 60.190083 60.229958 88.966934
v 60.391392 60.331974 88.511864
v 60.498470 60.210457 89.246353
v 60.490883 60.521778 88.968071
v 60.533283 52.897900 99.056427
v 60.533279 52.897900 99.943581
v 60.715054 53.430141 98.825996
v 60.786102 53.150723 99.056442
v 60.786102 53.150723 99.943581
v 60.714977 53.430099 100.173897
v 60.714935 53.808964 98.825928
v 60.714577 53.808689 100.173676
v 60.792694 54.096138 99.053436
v 60.550762 54.401546 99.047112
v 60.549911 54.400845 99.952400
v 60.791779 54.095364 99.946136
v 60.556438 58.109184 89.003098
v 60.631031 58.626312 88.025131
v 60.925476 58.617527 88.506432
v 60.840378 58.409504 88.993019
v 60.498089 58.648323 89.887398
v 60.842678 58.697548 89.413979
v 60.891052 59.276756 87.777405
v 60.967369 58.858585 88.021515
v 60.521854 59.115810 89.872475
v 60.920834 59.225517 89.560066
v 60.973595 59.772072 87.673721
v 60.943192 59.766716 89.481514
v 60.617119 60.378376 88.021927
v 61.028957 60.307537 87.723488
v 60.968971 60.330551 89.379570
v 60.877178 60.845516 88.064003
v 61.149796 60.839909 87.794441
v 60.761070 60.831745 88.937447
v 61.088440 60.798908 89.219910
v 61.057926 61.162563 88.046242
v 61.040321 61.144573 88.951996
v 60.901741 53.419617 99.076370
v 60.901749 53.419617 99.923637
v 60.902126 53.818615 99.076256
v 60.901718 53.818386 99.923622
v 61.139069 58.700886 88.989212
v 61.413399 59.396080 87.811119
v 61.428761 59.125374 88.068665
v 61.422913 58.989143 88.947273
v 61.387440 59.313461 89.263641
v 61.501633 59.807400 87.657303
v 61.498489 59.797523 89.373077
v 61.540813 60.356499 87.607330
v 61.518955 60.360695 89.390511
v 61.557972 60.928158 87.628052
v 61.557949 60.914337 89.354637
v 61.280125 61.503418 88.039780
v 61.620380 61.477413 87.714722
v 61.317940 61.466431 88.938087
v 61.668808 61.390972 89.222015
v 61.535576 61.978958 88.034538
v 61.745914 62.012196 87.766037
v 61.613640 62.051373 88.473473
v 61.582458 61.775654 88.954697
v 61.707241 62.267403 88.032013
v 61.719994 59.318447 88.051376
v 61.718166 59.288700 88.950745
v 61.972660 59.914932 87.776680
v 62.011650 59.585594 88.051964
v 61.983635 59.581924 88.948662
v 61.910255 59.886730 89.197914
v 62.084080 60.386539 87.643898
v 62.031910 60.410282 89.281464
v 62.106766 60.950554 87.577240
v 62.085457 60.959263 89.342819
v 62.123573 61.527847 87.513283
v 62.130722 61.499870 89.319817
v 62.145699 62.087044 87.435463
v 61.868404 62.071278 88.956856
v 62.254223 61.974110 89.211960
v 61.953522 62.574783 88.007149
v 62.205276 62.616985 87.576103
v 62.164631 62.651276 88.475853
v 62.159615 62.363503 88.955414
v 62.230900 62.887577 88.005363
v 62.300507 59.884251 88.057899
v 62.176716 59.873177 88.931335
v 62.489811 60.474495 87.802292
v 62.544109 60.184647 88.036591
v 62.629101 60.399422 88.482437
v 62.431629 60.341427 88.974876
v 62.620762 61.009815 87.689011
v 62.627537 60.685944 88.957321
v 62.497566 61.048641 89.200447
v 62.666210 61.535027 87.427803
v 62.609947 61.588989 89.245102
v 62.533936 62.176804 87.110397
v 62.868183 62.301262 86.861656
v 62.760632 61.952003 87.119705
v 62.701050 62.098530 89.279411
v 62.501217 62.712440 87.107178
v 62.866535 62.704029 86.791527
v 62.465443 62.625496 88.938042
v 62.800724 62.483536 89.158783
v 62.673084 63.183926 87.077263
v 62.918674 63.175064 86.813492
v 62.501045 63.190067 87.956421
v 62.797077 63.188721 88.406181
v 62.763233 62.827023 88.874794
v 62.837574 63.476616 87.054291
v 62.786999 63.498421 87.974808
v 62.701687 60.487862 88.040939
v 62.952358 60.979584 88.041931
v 62.790443 61.017891 88.924194
v 63.183910 61.619064 87.589630
v 63.206196 61.311485 88.011047
v 63.265728 61.546852 88.491425
v 63.028675 61.508373 88.981476
v 63.199169 62.327961 86.818481
v 63.234367 61.985962 87.115448
v 63.237740 61.852535 88.960915
v 63.075386 62.204777 89.168373
v 63.289986 62.732388 86.674133
v 63.111439 62.524261 89.122322
v 63.322136 63.259987 86.659935
v 63.229492 62.859032 88.877998
v 63.322258 63.264603 88.560547
v 63.092060 63.783661 87.046883
v 63.434681 63.756702 86.757927
v 63.081799 63.785614 87.958450
v 63.414600 63.731354 88.261063
v 63.358765 64.107338 87.035744
v 63.379478 64.074081 87.953621
v 63.481789 61.628796 88.012848
v 63.548714 62.175678 87.041908
v 63.849731 62.142395 87.510017
v 63.766342 61.928673 87.991997
v 63.434635 62.160488 88.892525
v 63.771770 62.211628 88.415390
v 63.818207 62.787769 86.729683
v 63.891640 62.380863 87.022598
v 63.449539 62.639870 88.876892
v 63.846130 62.739876 88.553833
v 63.861244 63.305099 86.613419
v 63.856537 63.285904 88.456589
v 63.896473 63.866642 86.550728
v 63.888145 63.837898 88.338257
v 63.598091 64.446152 87.018127
v 63.937107 64.389442 86.543350
v 63.680740 64.365097 87.921982
v 63.987419 64.245010 88.174492
v 63.867664 64.908180 87.003700
v 64.033524 64.982925 86.573639
v 63.997520 64.925224 87.402534
v 63.947788 64.592575 87.885643
v 64.044937 65.209480 86.996223
v 64.059433 62.223274 87.989159
v 64.269905 62.888218 86.835938
v 64.320457 62.669266 87.077400
v 64.301231 62.519318 87.943153
v 64.241165 62.803646 88.228340
v 64.383087 63.359497 86.693939
v 64.309952 63.306694 88.256081
v 64.423347 63.884926 86.426552
v 64.370674 63.904762 88.245064
v 64.312157 64.526711 86.117210
v 64.636749 64.634766 85.846512
v 64.527069 64.285667 86.114098
v 64.443367 64.313477 88.184914
v 64.274445 65.059509 86.106155
v 64.620956 65.046730 85.777748
v 64.462090 64.690063 87.931290
v 64.468002 65.081810 87.583076
v 64.433296 65.527153 86.077362
v 64.675095 65.519638 85.810486
v 64.278885 65.521103 86.942047
v 64.583359 65.526474 87.293236
v 64.591202 65.824753 86.054253
v 64.536858 65.862587 86.967224
v 64.469124 62.843666 87.072243
v 64.451210 62.809708 87.927750
v 64.725143 63.317154 87.046799
v 64.600746 63.312477 87.939972
v 64.958221 63.941658 86.565216
v 64.975479 63.646942 87.007332
v 65.027718 63.886639 87.493164
v 64.798874 63.836124 87.982307
v 65.046318 64.618294 85.774399
v 65.063889 64.256577 86.096687
v 64.976944 64.199471 87.942894
v 64.787926 64.387169 88.061295
v 65.061668 65.061493 85.642044
v 64.979317 64.637970 87.887672
v 65.075310 65.074348 87.629036
v 65.077888 65.604729 85.646721
v 65.057495 65.620743 87.508972
v 64.842125 66.151711 86.060242
v 65.182220 66.082138 85.771240
v 64.766479 66.213928 86.983543
v 65.092049 66.139145 87.469048
v 65.086533 66.467842 86.046761
v 64.998299 66.697372 86.985764
v 65.114716 66.755791 86.524002
v 65.177612 66.749451 87.437408
v 65.149979 67.030342 86.987473
v 65.258339 63.959824 87.009117
v 65.518639 64.673462 85.809456
v 65.530014 64.428970 86.079117
v 65.534378 64.251686 86.959381
v 65.129631 64.444763 87.840256
v 65.489174 64.580032 87.412376
v 65.599411 65.079597 85.655434
v 65.608978 65.062927 87.476967
v 65.616272 65.633003 85.621590
v 65.602127 65.613724 87.614014
v 65.645210 66.182411 85.676796
v 65.689476 66.050751 87.885963
v 65.483971 66.290131 87.876884
v 65.799347 66.403893 88.139900
v 65.390594 66.738487 86.053131
v 65.728035 66.596191 85.822250
v 65.418037 66.835693 87.912865
v 65.783096 66.818810 88.225349
v 65.669838 66.966454 86.109642
v 65.356331 67.370560 87.035660
v 65.685326 67.351479 86.549988
v 65.525505 67.365829 87.931404
v 65.796654 67.371300 88.221497
v 65.625908 67.824150 87.068245
v 65.791924 67.762321 86.816605
v 65.662148 67.831398 87.922607
v 65.820366 67.766479 88.130112
v 65.757881 67.921021 87.074562
v 65.762756 67.919121 87.924355
v 65.813324 64.601738 86.054855
v 65.829689 64.550179 86.966049
v 65.998383 65.159981 85.813896
v 66.064644 64.869392 86.055389
v 66.083435 64.853157 86.953766
v 66.030602 65.149231 87.245735
v 66.054649 65.646172 85.761948
v 66.169884 65.655487 87.461472
v 66.064392 66.202507 85.778824
v 66.177986 66.055214 87.887199
v 66.120361 66.427605 88.174347
v 66.050255 66.618317 85.860344
v 66.198502 66.838066 88.301361
v 66.152641 66.957542 86.124268
v 66.205498 67.341331 86.487572
v 66.198402 67.356186 88.300323
v 66.123032 67.749023 86.790764
v 66.114159 67.748459 88.169945
v 66.125679 67.931740 87.074188
v 66.125610 67.931465 87.924225
v 66.210533 65.151299 86.075233
v 66.250374 65.154861 86.936348
v 66.325706 65.654640 86.068748
v 66.493011 65.649689 86.963982
v 66.426262 66.189110 86.093323
v 66.649712 66.269127 86.571037
v 66.683578 65.998795 87.014397
v 66.450104 66.289818 87.938988
v 66.711136 66.277519 87.468964
v 66.352486 66.729858 86.123383
v 66.644539 66.807571 86.565758
v 66.691650 66.576408 87.928207
v 66.574966 66.904671 88.171051
v 66.611023 67.281441 86.752464
v 66.573570 67.285072 88.169777
v 66.654465 67.569000 87.049400
v 66.394585 67.819992 87.053131
v 66.393539 67.818542 87.944328
v 66.645470 67.565231 87.943504
v 66.788216 66.328423 87.014938
v 66.834427 66.810036 87.045464
v 66.780487 66.878143 87.902527
v 66.784721 67.287849 87.068108
v 66.765762 67.297081 87.922165
# 808 vertices, 0 vertices normals

f 3 2 1
f 1 4 3
f 1 2 5
f 5 2 6
f 4 1 7
f 1 8 7
f 1 5 8
f 8 9 7
f 6 10 5
f 5 10 8
f 8 10 11
f 8 11 9
f 14 13 12
f 16 15 12
f 12 15 14
f 16 17 15
f 12 13 18
f 18 13 19
f 12 20 16
f 12 18 20
f 17 16 21
f 16 22 21
f 16 20 22
f 22 23 21
f 19 24 18
f 26 25 24
f 25 18 24
f 25 20 18
f 20 27 22
f 20 25 27
f 23 22 28
f 28 22 27
f 25 26 29
f 29 26 30
f 29 2 3
f 27 29 3
f 25 29 27
f 32 31 4
f 4 31 3
f 31 28 3
f 28 27 3
f 34 33 32
f 32 33 31
f 34 35 33
f 30 36 29
f 2 29 36
f 37 2 36
f 6 2 37
f 7 32 4
f 32 7 9
f 38 32 9
f 34 32 38
f 35 34 39
f 34 40 39
f 34 38 40
f 40 41 39
f 37 42 6
f 6 42 10
f 42 44 43
f 11 42 43
f 10 42 11
f 38 9 11
f 43 38 11
f 45 38 43
f 38 46 40
f 38 45 46
f 41 40 47
f 47 40 46
f 44 48 43
f 43 48 45
f 45 48 49
f 45 49 46
f 46 49 50
f 46 50 47
f 53 52 51
f 51 54 53
f 51 52 55
f 55 52 56
f 54 51 57
f 51 58 57
f 51 55 58
f 58 59 57
f 55 56 60
f 60 56 61
f 55 62 58
f 55 60 62
f 59 58 63
f 58 64 63
f 58 62 64
f 64 65 63
f 61 66 60
f 68 67 66
f 67 60 66
f 67 62 60
f 62 69 64
f 62 67 69
f 65 64 70
f 64 71 70
f 64 69 71
f 71 72 70
f 67 68 73
f 73 68 74
f 73 13 14
f 69 73 14
f 67 73 69
f 69 14 15
f 69 15 71
f 15 17 71
f 17 72 71
f 17 75 72
f 74 76 73
f 13 73 76
f 77 13 76
f 19 13 77
f 78 75 17
f 78 17 21
f 21 23 78
f 78 23 79
f 24 19 80
f 19 81 80
f 19 77 81
f 80 26 24
f 28 79 23
f 28 82 79
f 81 83 80
f 26 80 83
f 84 26 83
f 30 26 84
f 85 82 28
f 85 28 31
f 86 31 33
f 86 85 31
f 88 87 35
f 87 33 35
f 87 86 33
f 88 89 87
f 36 30 90
f 30 91 90
f 30 84 91
f 90 37 36
f 39 88 35
f 93 92 41
f 41 92 39
f 92 89 39
f 89 88 39
f 95 94 93
f 93 94 92
f 95 96 94
f 91 97 90
f 97 99 98
f 97 98 42
f 90 97 42
f 37 90 42
f 98 44 42
f 47 100 93
f 47 93 41
f 93 101 95
f 93 100 101
f 96 95 102
f 95 103 102
f 95 101 103
f 103 104 102
f 99 105 98
f 98 105 44
f 105 48 44
f 105 106 48
f 106 108 107
f 49 106 107
f 48 106 49
f 109 50 49
f 109 49 107
f 100 47 50
f 109 100 50
f 110 100 109
f 100 111 101
f 100 110 111
f 101 112 103
f 101 111 112
f 104 103 113
f 113 103 112
f 108 114 107
f 107 114 109
f 109 114 115
f 109 115 110
f 110 115 116
f 110 116 111
f 111 116 117
f 111 117 112
f 112 117 118
f 112 118 113
f 120 119 53
f 53 119 52
f 122 121 54
f 121 53 54
f 121 120 53
f 122 123 121
f 119 56 52
f 124 56 119
f 57 122 54
f 57 59 122
f 59 123 122
f 59 125 123
f 124 61 56
f 126 61 124
f 127 125 59
f 127 59 63
f 63 65 127
f 127 65 128
f 66 61 129
f 61 130 129
f 61 126 130
f 129 68 66
f 131 128 65
f 131 65 70
f 70 72 131
f 131 72 132
f 130 133 129
f 68 129 133
f 134 68 133
f 74 68 134
f 75 132 72
f 75 135 132
f 134 136 74
f 74 136 76
f 77 76 136
f 77 136 137
f 138 135 75
f 138 75 78
f 78 79 138
f 138 79 139
f 137 81 77
f 140 81 137
f 82 139 79
f 82 141 139
f 140 142 81
f 81 142 83
f 84 83 142
f 84 142 143
f 144 141 82
f 144 82 85
f 145 85 86
f 145 144 85
f 147 145 146
f 145 87 146
f 145 86 87
f 89 146 87
f 149 91 148
f 91 143 148
f 91 84 143
f 150 149 148
f 151 147 146
f 151 146 89
f 92 151 89
f 152 151 92
f 153 92 94
f 153 152 92
f 155 154 96
f 154 94 96
f 154 153 94
f 157 156 155
f 155 156 154
f 157 158 156
f 161 160 159
f 149 97 91
f 162 161 159
f 164 163 99
f 164 99 97
f 150 164 97
f 149 150 97
f 165 163 164
f 102 155 96
f 155 102 104
f 166 155 104
f 157 155 166
f 158 157 167
f 167 157 166
f 160 168 159
f 159 168 162
f 163 105 99
f 165 169 163
f 169 105 163
f 169 106 105
f 108 106 169
f 108 169 170
f 113 171 166
f 113 166 104
f 167 166 172
f 172 166 171
f 170 173 108
f 108 173 114
f 114 174 115
f 173 174 114
f 115 175 116
f 174 175 115
f 116 176 117
f 175 176 116
f 176 178 177
f 118 176 177
f 117 176 118
f 177 179 118
f 118 179 113
f 179 180 113
f 180 171 113
f 171 180 172
f 178 181 177
f 177 181 179
f 182 119 120
f 182 120 183
f 120 184 183
f 120 121 184
f 121 123 184
f 184 123 185
f 187 186 182
f 186 119 182
f 186 124 119
f 187 182 183
f 125 185 123
f 125 188 185
f 186 126 124
f 189 126 186
f 190 188 125
f 190 125 127
f 127 128 190
f 190 128 191
f 193 130 192
f 130 189 192
f 130 126 189
f 194 193 192
f 128 131 195
f 196 128 195
f 191 128 196
f 132 195 131
f 193 133 130
f 134 133 193
f 194 134 193
f 197 134 194
f 196 195 198
f 196 198 199
f 135 198 132
f 132 198 195
f 197 200 134
f 134 200 136
f 137 136 200
f 137 200 201
f 199 198 202
f 199 202 203
f 138 204 135
f 204 198 135
f 204 202 198
f 139 204 138
f 206 140 205
f 140 201 205
f 140 137 201
f 206 205 203
f 202 206 203
f 207 206 202
f 208 202 204
f 207 202 208
f 141 208 139
f 139 208 204
f 210 142 209
f 142 140 209
f 209 140 206
f 211 209 206
f 210 143 142
f 213 211 212
f 206 212 211
f 212 206 207
f 214 207 208
f 212 207 214
f 144 215 141
f 215 208 141
f 215 214 208
f 145 216 144
f 144 216 215
f 147 216 145
f 219 218 217
f 217 220 219
f 223 222 221
f 223 221 209
f 221 210 209
f 221 224 210
f 225 213 212
f 210 148 143
f 148 210 226
f 224 226 210
f 226 150 148
f 228 225 227
f 212 227 225
f 227 212 214
f 229 214 215
f 227 214 229
f 230 215 216
f 229 215 230
f 230 216 147
f 231 230 147
f 151 231 147
f 232 230 231
f 233 151 152
f 233 231 151
f 234 152 153
f 234 233 152
f 235 153 154
f 235 234 153
f 156 217 218
f 235 156 218
f 154 156 235
f 156 158 217
f 158 220 217
f 158 236 220
f 221 222 237
f 237 222 238
f 237 160 161
f 224 237 161
f 221 237 224
f 224 161 162
f 239 224 162
f 226 224 239
f 228 227 240
f 164 240 227
f 240 164 239
f 150 239 164
f 239 150 226
f 164 227 165
f 227 241 165
f 227 229 241
f 242 229 230
f 241 229 242
f 230 232 243
f 230 243 242
f 167 236 158
f 167 244 236
f 238 245 237
f 245 247 246
f 245 246 168
f 237 245 168
f 160 237 168
f 246 248 168
f 168 248 162
f 248 249 162
f 249 239 162
f 239 249 240
f 241 169 165
f 169 241 170
f 241 250 170
f 241 242 250
f 242 243 251
f 252 242 251
f 250 242 252
f 253 252 251
f 172 244 167
f 172 254 244
f 247 255 246
f 246 255 248
f 250 173 170
f 173 250 174
f 174 250 252
f 253 256 252
f 256 174 252
f 256 175 174
f 175 257 176
f 256 257 175
f 259 258 178
f 176 259 178
f 257 259 176
f 180 179 258
f 259 180 258
f 260 180 259
f 172 180 254
f 254 180 260
f 258 181 178
f 181 258 179
f 261 183 184
f 185 261 184
f 263 262 187
f 187 262 186
f 263 187 183
f 264 263 183
f 261 264 183
f 263 264 265
f 188 264 185
f 185 264 261
f 267 189 266
f 189 262 266
f 189 186 262
f 267 266 265
f 264 267 265
f 268 267 264
f 190 269 188
f 269 264 188
f 269 268 264
f 191 269 190
f 267 192 189
f 192 267 194
f 267 270 194
f 267 268 270
f 271 268 269
f 270 268 271
f 196 271 191
f 191 271 269
f 272 197 270
f 270 197 194
f 273 270 271
f 272 270 273
f 199 273 196
f 196 273 271
f 272 200 197
f 200 272 201
f 272 274 201
f 272 273 274
f 203 274 199
f 199 274 273
f 274 205 201
f 205 274 203
f 276 275 211
f 211 275 209
f 211 213 276
f 276 213 277
f 280 279 278
f 218 219 278
f 219 280 278
f 219 281 280
f 283 282 220
f 282 219 220
f 282 281 219
f 283 284 282
f 286 285 223
f 223 285 222
f 223 209 275
f 223 275 286
f 287 277 213
f 287 213 225
f 225 228 287
f 287 228 288
f 289 232 231
f 233 290 231
f 231 290 289
f 234 291 233
f 233 291 290
f 279 292 278
f 292 234 278
f 234 235 278
f 234 292 291
f 278 235 218
f 236 293 283
f 236 283 220
f 284 283 294
f 294 283 293
f 285 238 222
f 295 238 285
f 240 288 228
f 240 296 288
f 297 243 289
f 289 243 232
f 298 289 290
f 297 289 298
f 299 290 291
f 298 290 299
f 291 292 300
f 291 300 299
f 302 301 293
f 236 302 293
f 244 302 236
f 293 301 294
f 295 303 238
f 238 303 245
f 247 245 303
f 247 303 304
f 306 305 249
f 306 249 248
f 240 249 296
f 296 249 305
f 297 251 243
f 251 297 253
f 297 307 253
f 297 298 307
f 308 298 299
f 307 298 308
f 299 300 309
f 299 309 308
f 254 302 244
f 254 310 302
f 304 311 247
f 247 311 255
f 248 255 306
f 306 255 311
f 307 256 253
f 256 307 257
f 257 307 308
f 309 312 308
f 312 257 308
f 312 259 257
f 259 313 260
f 312 313 259
f 254 260 310
f 310 260 313
f 314 262 263
f 265 314 263
f 314 266 262
f 266 314 265
f 317 316 315
f 319 318 315
f 315 318 317
f 319 320 318
f 321 275 276
f 277 321 276
f 322 279 280
f 316 323 315
f 323 280 315
f 280 281 315
f 280 323 322
f 315 281 282
f 315 282 319
f 282 284 319
f 284 320 319
f 284 324 320
f 325 285 286
f 326 325 286
f 326 286 275
f 327 326 275
f 321 327 275
f 329 327 328
f 328 327 287
f 327 321 287
f 321 277 287
f 288 328 287
f 331 330 322
f 330 279 322
f 330 292 279
f 331 322 323
f 294 324 284
f 294 332 324
f 334 333 325
f 333 285 325
f 333 295 285
f 334 325 326
f 335 329 328
f 328 288 335
f 288 336 335
f 288 296 336
f 330 300 292
f 337 300 330
f 339 338 301
f 339 301 302
f 294 301 332
f 332 301 338
f 303 295 340
f 295 341 340
f 295 333 341
f 340 304 303
f 306 342 305
f 342 343 305
f 343 296 305
f 343 336 296
f 345 309 344
f 309 337 344
f 309 300 337
f 347 346 345
f 347 345 344
f 347 339 346
f 339 310 346
f 339 302 310
f 341 348 340
f 348 350 349
f 348 349 311
f 340 348 311
f 304 340 311
f 349 351 311
f 311 351 306
f 351 352 306
f 352 342 306
f 342 352 343
f 345 312 309
f 312 345 313
f 313 345 346
f 313 346 310
f 350 353 349
f 349 353 351
f 356 355 354
f 358 357 354
f 354 357 356
f 358 359 357
f 361 360 317
f 317 360 316
f 318 354 355
f 361 318 355
f 317 318 361
f 354 318 320
f 362 354 320
f 358 354 362
f 359 358 363
f 363 358 362
f 360 323 316
f 364 323 360
f 324 365 362
f 324 362 320
f 363 362 366
f 366 362 365
f 367 326 327
f 329 367 327
f 368 330 331
f 369 368 331
f 323 369 331
f 364 369 323
f 371 370 365
f 324 371 365
f 332 371 324
f 365 370 366
f 372 333 334
f 373 372 334
f 373 334 326
f 374 373 326
f 367 374 326
f 376 374 375
f 375 374 335
f 374 367 335
f 367 329 335
f 336 375 335
f 377 337 368
f 368 337 330
f 368 369 378
f 379 368 378
f 377 368 379
f 338 339 379
f 378 338 379
f 380 338 378
f 332 338 371
f 371 338 380
f 382 381 372
f 381 333 372
f 381 341 333
f 382 372 373
f 383 376 375
f 375 336 383
f 336 384 383
f 336 343 384
f 377 344 337
f 344 377 347
f 347 377 379
f 347 379 339
f 348 341 385
f 341 386 385
f 341 381 386
f 385 350 348
f 351 387 352
f 387 388 352
f 388 343 352
f 388 384 343
f 386 389 385
f 389 391 390
f 389 390 353
f 385 389 353
f 350 385 353
f 390 392 353
f 353 392 351
f 392 393 351
f 393 387 351
f 387 393 388
f 391 394 390
f 390 394 392
f 397 396 395
f 399 398 395
f 395 398 397
f 399 400 398
f 395 396 356
f 396 355 356
f 396 401 355
f 395 356 357
f 395 357 399
f 357 359 399
f 359 400 399
f 359 402 400
f 404 403 361
f 361 403 360
f 361 355 401
f 361 401 404
f 363 402 359
f 363 405 402
f 403 364 360
f 406 364 403
f 366 405 363
f 366 407 405
f 409 369 408
f 369 406 408
f 369 364 406
f 410 409 408
f 412 411 370
f 412 370 371
f 366 370 407
f 407 370 411
f 414 413 374
f 374 413 373
f 374 376 414
f 414 376 415
f 409 378 369
f 410 416 409
f 416 378 409
f 416 380 378
f 371 380 412
f 412 380 416
f 418 417 382
f 382 417 381
f 382 373 413
f 382 413 418
f 419 415 376
f 419 376 383
f 383 384 419
f 419 384 420
f 417 386 381
f 421 386 417
f 388 420 384
f 388 422 420
f 421 423 386
f 386 423 389
f 391 389 423
f 391 423 424
f 426 425 393
f 426 393 392
f 388 393 422
f 422 393 425
f 424 427 391
f 391 427 394
f 392 394 426
f 426 394 427
f 430 429 428
f 432 431 428
f 428 431 430
f 432 433 431
f 428 429 397
f 429 396 397
f 429 434 396
f 428 397 398
f 428 398 432
f 398 400 432
f 400 433 432
f 400 435 433
f 434 401 396
f 436 401 434
f 402 435 400
f 402 437 435
f 438 403 404
f 439 438 404
f 401 439 404
f 436 439 401
f 405 437 402
f 405 440 437
f 441 406 438
f 438 406 403
f 438 439 442
f 438 442 441
f 407 440 405
f 407 443 440
f 441 408 406
f 445 444 410
f 445 410 408
f 442 445 408
f 441 442 408
f 411 412 444
f 445 411 444
f 446 411 445
f 407 411 443
f 443 411 446
f 447 413 414
f 415 447 414
f 444 416 410
f 416 444 412
f 448 417 418
f 449 448 418
f 449 418 413
f 450 449 413
f 447 450 413
f 452 450 451
f 451 450 419
f 450 447 419
f 447 415 419
f 420 451 419
f 454 453 448
f 453 417 448
f 453 421 417
f 454 448 449
f 455 452 451
f 451 420 455
f 420 456 455
f 420 422 456
f 423 421 457
f 421 458 457
f 421 453 458
f 457 424 423
f 426 459 425
f 459 460 425
f 460 422 425
f 460 456 422
f 458 461 457
f 461 463 462
f 461 462 427
f 457 461 427
f 424 457 427
f 462 464 427
f 427 464 426
f 464 465 426
f 465 459 426
f 459 465 460
f 463 466 462
f 462 466 464
f 469 468 467
f 471 470 467
f 467 470 469
f 471 472 470
f 467 468 430
f 468 429 430
f 468 473 429
f 467 430 431
f 467 431 471
f 431 433 471
f 433 472 471
f 433 474 472
f 473 434 429
f 475 434 473
f 435 474 433
f 435 476 474
f 475 436 434
f 477 436 475
f 437 476 435
f 437 478 476
f 477 439 436
f 479 439 477
f 440 478 437
f 440 480 478
f 482 442 481
f 442 479 481
f 442 439 479
f 484 483 482
f 484 482 481
f 484 480 483
f 480 443 483
f 480 440 443
f 482 445 442
f 445 482 446
f 446 482 483
f 446 483 443
f 486 485 450
f 450 485 449
f 450 452 486
f 486 452 487
f 489 488 454
f 454 488 453
f 454 449 485
f 454 485 489
f 490 487 452
f 490 452 455
f 455 456 490
f 490 456 491
f 488 458 453
f 492 458 488
f 460 491 456
f 460 493 491
f 492 494 458
f 458 494 461
f 463 461 494
f 463 494 495
f 497 496 465
f 497 465 464
f 460 465 493
f 493 465 496
f 466 463 498
f 463 499 498
f 463 495 499
f 498 500 466
f 500 464 466
f 500 497 464
f 499 501 498
f 498 501 500
f 503 502 469
f 469 502 468
f 504 469 470
f 504 503 469
f 470 472 504
f 504 472 505
f 502 473 468
f 506 473 502
f 474 505 472
f 474 507 505
f 506 475 473
f 508 475 506
f 476 507 474
f 476 509 507
f 508 477 475
f 510 477 508
f 478 509 476
f 478 511 509
f 513 479 512
f 479 510 512
f 479 477 510
f 515 514 513
f 515 513 512
f 515 511 514
f 511 480 514
f 511 478 480
f 513 481 479
f 481 513 484
f 484 513 514
f 484 514 480
f 516 485 486
f 487 516 486
f 517 488 489
f 518 517 489
f 518 489 485
f 519 518 485
f 516 519 485
f 521 519 520
f 520 519 490
f 519 516 490
f 516 487 490
f 491 520 490
f 523 522 517
f 522 488 517
f 522 492 488
f 523 517 518
f 524 521 520
f 520 491 524
f 491 525 524
f 491 493 525
f 494 492 526
f 492 527 526
f 492 522 527
f 526 495 494
f 497 528 496
f 528 529 496
f 529 493 496
f 529 525 493
f 526 527 530
f 530 527 531
f 530 499 495
f 530 495 526
f 533 532 528
f 497 533 528
f 500 533 497
f 528 532 529
f 531 534 530
f 534 536 535
f 534 535 501
f 530 534 501
f 499 530 501
f 535 537 501
f 537 500 501
f 537 533 500
f 536 538 535
f 535 538 537
f 539 502 503
f 504 540 503
f 503 540 539
f 505 540 504
f 542 541 539
f 541 502 539
f 541 506 502
f 542 539 540
f 542 540 543
f 540 505 543
f 505 544 543
f 505 507 544
f 541 508 506
f 545 508 541
f 509 544 507
f 509 546 544
f 548 510 547
f 510 545 547
f 510 508 545
f 550 549 548
f 550 548 547
f 550 546 549
f 546 511 549
f 546 509 511
f 548 512 510
f 512 548 515
f 515 548 549
f 515 549 511
f 551 518 519
f 521 551 519
f 552 522 523
f 553 552 523
f 553 523 518
f 554 553 518
f 551 554 518
f 556 554 555
f 555 554 524
f 554 551 524
f 551 521 524
f 525 555 524
f 558 557 552
f 557 522 552
f 557 527 522
f 558 552 553
f 556 555 559
f 556 559 560
f 529 559 525
f 525 559 555
f 557 531 527
f 561 531 557
f 560 559 532
f 533 560 532
f 562 560 533
f 532 559 529
f 534 531 563
f 531 564 563
f 531 561 564
f 563 536 534
f 537 562 533
f 537 565 562
f 563 564 566
f 566 564 567
f 568 538 536
f 563 568 536
f 566 568 563
f 568 569 538
f 569 537 538
f 569 565 537
f 567 570 566
f 566 570 568
f 568 570 571
f 568 571 569
f 572 541 542
f 543 573 542
f 542 573 572
f 544 573 543
f 574 545 572
f 572 545 541
f 575 572 573
f 574 572 575
f 546 575 544
f 544 575 573
f 574 547 545
f 547 574 550
f 550 574 575
f 550 575 546
f 576 553 554
f 556 576 554
f 578 577 558
f 558 577 557
f 558 553 576
f 579 558 576
f 578 558 579
f 576 556 579
f 556 580 579
f 556 560 580
f 577 561 557
f 581 561 577
f 562 580 560
f 562 582 580
f 581 564 561
f 583 564 581
f 565 582 562
f 565 584 582
f 583 567 564
f 585 567 583
f 569 584 565
f 569 586 584
f 570 567 587
f 567 588 587
f 567 585 588
f 589 571 570
f 589 570 587
f 589 590 571
f 590 569 571
f 590 586 569
f 587 588 591
f 591 588 592
f 594 589 593
f 589 591 593
f 589 587 591
f 589 594 590
f 592 595 591
f 591 595 593
f 596 577 578
f 579 597 578
f 578 597 596
f 580 597 579
f 599 598 596
f 598 577 596
f 598 581 577
f 599 596 597
f 599 597 600
f 597 580 600
f 580 601 600
f 580 582 601
f 598 583 581
f 602 583 598
f 584 601 582
f 584 603 601
f 602 585 583
f 604 585 602
f 586 603 584
f 586 605 603
f 604 588 585
f 606 588 604
f 590 605 586
f 590 607 605
f 606 592 588
f 608 592 606
f 593 609 594
f 609 610 594
f 610 590 594
f 610 607 590
f 595 592 611
f 592 612 611
f 592 608 612
f 611 613 595
f 595 613 593
f 613 614 593
f 614 609 593
f 609 614 610
f 612 615 611
f 611 615 613
f 616 598 599
f 600 617 599
f 599 617 616
f 601 617 600
f 619 618 616
f 618 598 616
f 618 602 598
f 621 620 619
f 616 621 619
f 617 621 616
f 603 621 601
f 601 621 617
f 618 604 602
f 622 604 618
f 623 620 621
f 621 603 623
f 603 624 623
f 603 605 624
f 622 606 604
f 625 606 622
f 607 624 605
f 607 626 624
f 629 628 627
f 625 629 627
f 608 625 627
f 606 625 608
f 610 626 607
f 610 630 626
f 627 628 631
f 631 628 632
f 631 612 608
f 631 608 627
f 613 633 614
f 633 634 614
f 634 610 614
f 634 630 610
f 631 632 635
f 635 632 636
f 637 615 612
f 631 637 612
f 635 637 631
f 637 638 615
f 615 638 613
f 638 639 613
f 639 633 613
f 633 639 634
f 636 640 635
f 635 640 637
f 637 640 641
f 637 641 638
f 642 618 619
f 620 642 619
f 643 622 642
f 642 622 618
f 623 644 620
f 644 642 620
f 644 643 642
f 624 644 623
f 646 645 643
f 645 622 643
f 645 625 622
f 648 647 646
f 643 648 646
f 644 648 643
f 626 648 624
f 624 648 644
f 650 649 629
f 629 649 628
f 629 625 645
f 629 645 650
f 651 647 648
f 648 626 651
f 626 652 651
f 626 630 652
f 649 632 628
f 653 632 649
f 634 652 630
f 634 654 652
f 653 636 632
f 655 636 653
f 657 656 639
f 657 639 638
f 634 639 654
f 654 639 656
f 640 636 658
f 636 659 658
f 636 655 659
f 660 641 640
f 660 640 658
f 660 661 641
f 661 638 641
f 661 657 638
f 659 662 658
f 658 662 660
f 660 662 663
f 660 663 661
f 664 645 646
f 647 664 646
f 665 649 650
f 666 665 650
f 666 650 645
f 667 666 645
f 664 667 645
f 669 667 668
f 668 667 651
f 667 664 651
f 664 647 651
f 652 668 651
f 671 670 665
f 670 649 665
f 670 653 649
f 671 665 666
f 669 668 672
f 669 672 673
f 654 672 652
f 652 672 668
f 670 655 653
f 674 655 670
f 673 672 656
f 657 673 656
f 675 673 657
f 656 672 654
f 674 659 655
f 676 659 674
f 661 675 657
f 661 677 675
f 662 659 678
f 659 679 678
f 659 676 679
f 680 663 662
f 680 662 678
f 680 681 663
f 681 661 663
f 681 677 661
f 678 679 682
f 682 679 683
f 685 680 684
f 680 682 684
f 680 678 682
f 680 685 681
f 683 686 682
f 682 686 684
f 687 666 667
f 669 687 667
f 689 688 671
f 671 688 670
f 671 666 687
f 690 671 687
f 689 671 690
f 687 669 690
f 669 691 690
f 669 673 691
f 688 674 670
f 692 674 688
f 675 691 673
f 675 693 691
f 692 676 674
f 694 676 692
f 677 693 675
f 677 695 693
f 698 697 696
f 694 698 696
f 679 694 696
f 676 694 679
f 681 695 677
f 681 699 695
f 696 697 700
f 700 697 701
f 700 683 679
f 700 679 696
f 703 702 685
f 703 685 684
f 681 685 699
f 699 685 702
f 700 701 704
f 704 701 705
f 706 686 683
f 700 706 683
f 704 706 700
f 706 707 686
f 707 684 686
f 707 703 684
f 705 708 704
f 704 708 706
f 706 708 709
f 706 709 707
f 710 688 689
f 690 711 689
f 689 711 710
f 691 711 690
f 712 692 710
f 710 692 688
f 713 710 711
f 712 710 713
f 693 713 691
f 691 713 711
f 715 714 712
f 714 692 712
f 714 694 692
f 717 716 715
f 712 717 715
f 713 717 712
f 695 717 693
f 693 717 713
f 719 718 698
f 698 718 697
f 698 694 714
f 698 714 719
f 720 716 717
f 717 695 720
f 695 721 720
f 695 699 721
f 718 701 697
f 722 701 718
f 724 723 702
f 724 702 703
f 699 702 721
f 721 702 723
f 722 705 701
f 725 705 722
f 707 724 703
f 707 726 724
f 708 705 727
f 705 728 727
f 705 725 728
f 729 709 708
f 729 708 727
f 729 730 709
f 730 707 709
f 730 726 707
f 728 731 727
f 733 732 731
f 732 727 731
f 732 729 727
f 730 729 734
f 734 729 732
f 733 735 732
f 732 735 734
f 736 714 715
f 716 736 715
f 738 737 719
f 719 737 718
f 719 714 736
f 739 719 736
f 738 719 739
f 741 739 740
f 740 739 720
f 739 736 720
f 736 716 720
f 721 740 720
f 737 722 718
f 742 722 737
f 741 740 723
f 724 741 723
f 743 741 724
f 723 740 721
f 742 725 722
f 744 725 742
f 726 743 724
f 726 745 743
f 744 728 725
f 746 728 744
f 730 748 747
f 745 730 747
f 726 730 745
f 748 749 747
f 731 728 750
f 728 751 750
f 728 746 751
f 750 733 731
f 734 752 748
f 734 748 730
f 749 748 753
f 753 748 752
f 751 754 750
f 754 756 755
f 754 755 735
f 750 754 735
f 733 750 735
f 752 734 735
f 755 752 735
f 757 752 755
f 753 752 758
f 758 752 757
f 755 756 759
f 759 756 760
f 755 761 757
f 755 759 761
f 758 757 762
f 762 757 761
f 760 763 759
f 759 763 761
f 761 763 764
f 761 764 762
f 765 737 738
f 739 766 738
f 738 766 765
f 741 766 739
f 768 767 765
f 767 737 765
f 767 742 737
f 768 765 766
f 768 766 769
f 766 741 769
f 741 770 769
f 741 743 770
f 767 744 742
f 771 744 767
f 745 770 743
f 745 772 770
f 771 746 744
f 773 746 771
f 774 772 745
f 774 745 747
f 747 749 774
f 774 749 775
f 773 751 746
f 776 751 773
f 753 775 749
f 753 777 775
f 776 778 751
f 751 778 754
f 756 754 778
f 756 778 779
f 758 777 753
f 758 780 777
f 779 760 756
f 781 760 779
f 762 780 758
f 762 782 780
f 781 783 760
f 760 783 763
f 763 784 764
f 783 784 763
f 762 764 782
f 782 764 784
f 785 767 768
f 769 786 768
f 768 786 785
f 770 786 769
f 787 771 785
f 785 771 767
f 788 785 786
f 787 785 788
f 772 788 770
f 770 788 786
f 789 773 787
f 787 773 771
f 788 791 790
f 789 788 790
f 787 788 789
f 793 791 792
f 792 791 774
f 791 788 774
f 788 772 774
f 775 792 774
f 794 776 789
f 789 776 773
f 789 790 795
f 789 795 794
f 796 793 792
f 792 775 796
f 775 797 796
f 775 777 797
f 794 778 776
f 779 778 794
f 795 779 794
f 798 779 795
f 780 797 777
f 780 799 797
f 801 781 800
f 781 798 800
f 781 779 798
f 803 802 801
f 803 801 800
f 803 799 802
f 799 782 802
f 799 780 782
f 801 783 781
f 783 801 784
f 784 801 802
f 784 802 782
f 804 790 791
f 793 804 791
f 805 795 804
f 804 795 790
f 796 806 793
f 806 804 793
f 806 805 804
f 797 806 796
f 807 798 805
f 805 798 795
f 808 805 806
f 807 805 808
f 799 808 797
f 797 808 806
f 807 800 798
f 800 807 803
f 803 807 808
f 803 808 799
# 1612 faces, 0 coords texture

# End of File