####
#
# OBJ File Generated by Meshlab
#
####
# Object domain013.obj
#
# Vertices: 394
# Faces: 794
#
####
v 177.140900 360.384064 128.504929
v 167.495071 354.277863 129.005890
v 178.773712 369.034363 135.266449
v 169.936447 362.607727 126.213615
v 167.714981 358.391968 135.388153
v 168.200043 372.396881 139.178864
v 175.681534 372.358612 131.800583
v 175.808563 358.423157 138.912796
v 167.029343 366.251160 130.806290
v 176.935608 362.317657 127.983192
v 176.042358 376.858032 135.153717
v 167.568939 368.300873 137.462799
v 174.503662 359.195282 140.022720
v 176.693314 373.925629 132.466690
v 173.987473 356.449554 139.017517
v 169.970169 366.249634 140.298569
v 168.935715 354.595398 133.097778
v 175.752640 356.457855 138.429825
v 175.123032 367.514984 129.217056
v 176.289032 364.502350 139.045685
v 171.992615 372.518829 131.091583
v 167.327026 366.285492 132.980652
v 168.544678 358.434357 138.714478
v 175.890594 353.995941 133.130280
v 176.099472 354.384064 124.554779
v 168.607071 375.813080 137.397644
v 169.989349 356.438782 138.973083
v 178.418198 372.398834 135.458313
v 167.671585 370.289856 132.988205
v 169.953766 375.832153 139.768372
v 177.209930 354.372955 126.611534
v 177.681992 370.358429 133.469925
v 165.888535 361.405243 126.595917
v 177.754791 376.326447 134.941940
v 168.958923 375.682007 139.593796
v 167.730942 360.408112 137.449570
v 178.758316 363.306122 135.291855
v 169.943161 366.233887 127.473427
v 177.068497 355.141907 135.337372
v 171.999283 358.388245 125.203354
v 167.143677 360.441925 130.679321
v 173.993561 360.372925 140.221863
v 167.917511 356.428192 124.868919
v 169.971573 362.455597 140.239944
v 176.705734 372.402069 132.408340
v 168.187927 370.351379 139.182602
v 166.976486 375.504120 133.285477
v 177.772690 366.251160 133.393341
v 178.321411 372.379974 134.651443
v 171.998367 353.924438 135.447495
v 167.471939 372.399414 135.506317
v 177.198212 358.337555 129.519333
v 177.041168 374.470032 138.852524
v 167.512283 362.441925 135.178802
v 169.945862 367.225983 127.917534
v 174.045807 358.367126 125.293930
v 175.412018 368.422638 139.953415
v 171.991562 372.401550 140.441620
v 167.905472 360.357300 125.694107
v 168.050308 368.117889 129.011215
v 166.226532 358.256348 126.056000
v 168.600159 362.361786 139.811996
v 166.144089 361.200714 126.296211
v 169.938797 354.986633 124.392319
v 176.169327 362.376648 139.074844
v 171.992203 362.447205 140.380035
v 167.126663 362.425171 131.070084
v 170.067078 376.274261 139.192581
v 176.885941 368.311310 132.178055
v 167.287659 358.241150 130.704407
v 177.150620 360.568176 129.400421
v 166.760681 360.362579 129.656677
v 174.030853 353.350403 131.953766
v 168.819382 368.298981 139.838486
v 175.795761 376.133759 139.123169
v 176.028397 360.414825 139.086319
v 175.807373 374.478363 139.854065
v 169.926010 370.695251 130.446243
v 177.851700 356.416962 135.171051
v 167.295288 368.006775 129.983643
v 168.752228 355.019257 135.573654
v 178.757980 367.998779 135.245392
v 177.887131 368.357422 137.202682
v 178.763092 363.768768 135.265930
v 171.996307 354.149933 124.501549
v 174.057007 372.439087 131.276016
v 171.994980 353.481415 133.187363
v 173.444504 359.474304 140.074997
v 177.166122 362.525330 130.733627
v 177.608612 362.442505 137.192703
v 177.230209 356.194153 126.724640
v 174.019730 353.275665 130.491226
v 165.731064 360.315002 127.289268
v 178.756302 366.351715 135.242538
v 175.317673 365.838715 128.101089
v 167.573105 370.351318 137.462234
v 171.994370 370.792633 130.309128
v 171.991074 364.492767 140.450607
v 177.088776 353.815796 124.823975
v 178.113571 356.949860 134.089981
v 173.920807 367.105804 128.096573
v 166.476486 356.300629 128.470352
v 176.913803 354.433533 127.849167
v 174.917892 359.397766 139.932907
v 166.890411 366.239777 129.952530
v 171.988998 367.255432 127.897667
v 171.995010 360.461700 140.200775
v 166.494308 354.181000 124.611549
v 167.946411 364.468994 127.168831
v 165.817612 356.219574 126.137108
v 167.843292 374.354614 137.433929
v 177.954575 370.437897 137.268799
v 169.974640 372.401520 140.275650
v 177.530746 360.392944 137.148041
v 167.708176 358.273163 132.979492
v 166.247131 358.370178 128.434921
v 177.943253 358.343048 132.730026
v 176.296341 368.301971 139.424332
v 175.927963 376.523773 137.432297
v 171.991379 353.165283 130.494614
v 174.024323 374.408386 131.722473
v 172.180862 361.622406 125.878563
v 175.823288 374.456024 132.101074
v 167.225143 367.505707 129.361008
v 168.851837 374.432281 139.800217
v 177.896332 374.399506 137.085388
v 167.389145 368.287079 132.980576
v 167.012161 356.277466 129.495377
v 178.490982 360.401672 134.129669
v 168.502609 375.994568 132.545807
v 171.999084 376.399506 139.184982
v 178.269119 374.385651 134.689224
v 168.799011 355.675262 138.189209
v 170.036331 353.793243 133.124130
v 166.391281 354.013367 124.911270
v 178.240280 358.370483 135.093185
v 165.812668 358.191193 127.313416
v 171.985321 358.296600 139.720367
v 175.675217 366.097198 128.599060
v 174.040070 358.279572 139.743942
v 166.188568 360.357025 126.176704
v 171.991226 360.375092 125.588127
v 170.012222 376.824860 135.139420
v 177.048325 353.930847 126.156921
v 167.893280 354.165863 124.491722
v 175.860260 368.396332 130.748306
v 174.022232 376.372162 139.172867
v 168.544678 374.441345 132.201935
v 175.906448 354.328949 135.381042
v 167.927032 353.803162 124.843071
v 174.097321 362.707550 126.320580
v 176.805084 361.873199 127.282822
v 177.380722 375.744354 136.929642
v 171.990417 353.120728 128.500259
v 168.165176 366.244263 139.196136
v 168.428970 370.083710 130.977936
v 176.926331 355.834015 125.849258
v 167.586395 364.492096 137.472504
v 169.995728 376.688721 133.275085
v 178.418304 360.388611 135.396652
v 171.906403 362.705505 126.210823
v 174.019226 375.822479 139.746445
v 174.059448 370.540955 130.543869
v 175.922577 362.348633 126.694099
v 175.561295 370.367676 131.277176
v 168.806442 366.247162 139.858902
v 176.709824 355.280579 136.766495
v 167.459641 362.432800 133.020584
v 168.312592 374.379791 139.165070
v 168.043396 356.379547 135.539780
v 176.567291 373.937622 139.518738
v 171.991425 370.351654 140.461075
v 178.749283 366.316528 135.242203
v 171.988388 353.288086 131.961533
v 177.325455 358.334991 130.703003
v 178.624802 361.014740 134.891922
v 177.055679 366.267059 132.087387
v 167.907303 354.949219 124.451302
v 175.603882 370.362274 139.957596
v 167.385254 364.461151 133.024414
v 169.948761 353.202148 128.495819
v 167.355865 368.289581 130.790054
v 170.058838 354.227020 135.406830
v 174.072128 356.361450 124.831352
v 169.943542 353.266083 126.522461
v 177.155014 376.251282 133.575760
v 169.973785 370.351807 140.282059
v 171.989105 369.486542 129.419952
v 169.973373 368.300537 140.284775
v 166.295105 362.119049 127.079056
v 171.994278 376.779755 133.276642
v 177.171219 376.581787 133.868286
v 167.842087 372.418365 133.178879
v 167.885498 376.050323 132.876846
v 169.940781 353.762512 124.846092
v 165.699768 354.481995 125.861183
v 176.361908 366.385651 130.672928
v 174.064484 354.724335 124.443436
v 176.395050 354.492645 130.869644
v 175.710968 375.780731 139.513000
v 171.983612 368.268890 128.536835
v 177.689484 372.408997 133.489853
v 171.982986 375.834198 139.782425
v 169.940781 364.558228 126.896561
v 167.582840 360.397400 135.186218
v 174.025467 354.476013 137.020126
v 176.367935 364.356873 128.782806
v 168.655289 355.232574 137.055481
v 166.793076 362.450775 129.958420
v 169.970245 374.412964 131.749344
v 171.986267 376.027802 132.324249
v 169.969254 364.493164 140.299210
v 176.776550 360.089447 126.324409
v 174.018890 364.499451 127.047150
v 168.641342 360.905151 139.717133
v 177.999359 360.435089 132.737946
v 167.900391 362.521851 126.404526
v 171.990158 359.493225 140.035431
v 168.081665 353.573883 128.359451
v 167.925720 366.202484 127.694962
v 166.213577 356.137939 125.504753
v 165.822861 356.373932 126.931435
v 176.611542 354.407104 128.732864
v 167.457703 364.494202 135.173401
v 166.403580 362.416382 128.635284
v 171.987854 355.391754 138.409439
v 177.703995 356.330322 133.012894
v 175.983353 376.737457 133.453110
v 178.338028 358.362671 134.099442
v 167.599121 374.415710 135.424713
v 168.139496 362.603668 139.236847
v 167.479599 366.856140 128.356979
v 175.642899 355.563751 138.024475
v 177.962860 362.467621 133.007736
v 169.949356 358.355408 139.512421
v 177.711487 368.302155 133.432846
v 177.522095 374.487427 133.376648
v 168.131546 356.446747 137.368469
v 170.045807 376.639374 137.451141
v 171.986710 354.967896 124.413651
v 177.101532 356.119019 129.164398
v 176.746399 370.351532 132.322647
v 171.991791 374.425781 131.617386
v 169.975128 353.305237 130.482788
v 178.405914 374.447357 135.429413
v 177.385635 358.351837 137.060333
v 168.183456 368.298523 139.184708
v 171.991013 366.250000 140.460861
v 166.957947 375.574249 133.301559
v 175.234863 366.267792 139.908340
v 173.995621 366.178436 127.620636
v 165.772766 354.410248 125.301819
v 169.965240 353.460541 131.950943
v 167.546417 360.383026 132.987350
v 167.937881 353.449707 126.512726
v 169.946182 361.436432 125.847694
v 170.003815 368.500366 128.761826
v 173.731873 369.411377 129.698578
v 177.139267 358.313873 126.878448
v 167.084213 375.096558 133.192032
v 167.061874 364.497681 131.084885
v 166.835312 364.135010 127.721275
v 174.005096 376.011841 132.365921
v 172.014343 356.473755 124.734787
v 177.181610 356.377686 128.360092
v 176.992081 360.418091 126.834251
v 178.755203 364.597687 135.250198
v 176.530075 375.719879 138.709732
v 168.603470 367.120087 128.041885
v 176.574966 372.416321 139.479416
v 176.787704 364.404663 130.723526
v 177.207123 358.336792 128.489273
v 169.979675 374.422791 140.177429
v 174.031250 353.939972 135.443008
v 167.902008 361.403717 125.936287
v 171.991318 353.230499 126.519249
v 174.026184 372.401245 140.340836
v 175.199997 364.499603 139.886337
v 167.620422 372.393890 137.455963
v 166.901443 365.722870 128.161255
v 166.754990 354.447235 128.149246
v 168.793961 364.472229 139.858612
v 171.991241 364.567535 126.868973
v 174.032532 353.527069 133.180969
v 167.387726 368.300995 135.496841
v 169.961365 376.011414 132.354187
v 177.127686 356.274506 130.744843
v 174.039505 360.369354 125.631248
v 174.014542 366.250336 140.308975
v 165.689316 360.438385 126.758835
v 173.997101 355.430206 138.364380
v 171.999435 376.911835 137.470932
v 173.938202 361.635895 125.917809
v 177.324753 360.414764 130.691040
v 169.916962 369.651703 129.636261
v 170.014496 354.623840 136.993561
v 169.975098 355.445587 138.369629
v 176.026779 356.185211 125.211372
v 168.073792 356.287415 133.113419
v 174.058701 368.245178 128.849640
v 178.034302 372.406067 137.145065
v 169.940262 360.373291 125.589767
v 167.597488 356.267426 130.807785
v 168.820908 370.351898 139.836044
v 177.226700 370.361511 138.634521
v 169.936432 354.166290 124.490105
v 175.624557 372.411957 139.973022
v 169.938690 356.479462 124.707115
v 177.264572 372.406830 138.653702
v 171.990891 374.423553 140.281433
v 168.897400 353.660706 130.241058
v 175.959122 353.863159 124.496063
v 175.912537 354.763275 136.905609
v 171.998505 353.757538 124.843605
v 176.018814 358.312744 125.668243
v 177.678513 366.328796 137.300720
v 175.639069 364.147003 127.576454
v 166.815033 366.154053 128.695419
v 174.004791 362.445709 140.250656
v 171.991470 356.410828 139.095734
v 176.846863 358.249908 126.227142
v 174.036850 376.776733 133.285797
v 178.750381 364.730255 135.267426
v 176.501312 370.375793 139.412582
v 168.457642 376.374664 133.202820
v 175.938004 361.272980 126.170761
v 174.039780 353.283081 126.523552
v 178.506836 361.789368 134.204422
v 167.900650 358.370178 125.379234
v 175.749557 353.696960 128.317429
v 166.207397 360.472809 128.485901
v 166.852753 358.330231 129.595734
v 175.520630 353.711151 130.514099
v 169.794815 359.627411 139.843948
v 167.416504 366.164276 135.268112
v 168.631912 369.372131 129.882126
v 176.925705 354.951630 133.067978
v 174.023361 368.301025 140.333435
v 168.822952 372.403625 139.834091
v 168.603287 372.297180 132.030090
v 171.991257 368.300751 140.457932
v 176.967880 353.773834 124.737381
v 166.024857 354.440002 126.758781
v 175.988297 353.502930 126.464081
v 178.774857 369.503326 135.268646
v 176.478516 363.536957 128.147141
v 177.069687 356.441956 137.042236
v 177.083359 368.360474 138.531418
v 176.006607 360.327087 125.878891
v 166.414581 353.848480 126.347107
v 171.996078 354.443817 137.037247
v 173.980194 354.004120 124.505630
v 175.144928 362.560883 139.860870
v 169.940338 358.402863 125.207428
v 167.890182 358.371857 137.399567
v 167.572159 366.250336 137.469223
v 174.956482 360.404419 139.930115
v 174.025665 370.352173 140.342926
v 178.052277 375.842865 135.508621
v 168.636520 356.438751 138.482834
v 171.997314 377.098816 135.176315
v 168.209702 354.469421 130.510010
v 174.059326 353.703156 124.787651
v 178.759842 368.157227 135.242661
v 174.010284 364.493103 140.289780
v 167.417282 370.350311 135.499893
v 177.648621 364.493530 137.217865
v 165.810410 358.329559 126.659218
v 177.789627 364.394562 133.240616
v 171.989120 366.239746 127.459152
v 169.964508 360.488953 140.079193
v 174.018158 374.417419 140.202087
v 169.951584 372.453735 131.311890
v 167.612793 362.446686 137.475464
v 168.137421 364.474640 139.205276
v 174.036575 377.098419 135.177322
v 166.114624 354.354584 124.793587
v 174.027283 376.889618 137.468414
v 176.071014 353.674072 124.711319
v 168.280563 375.972443 134.852859
v 175.671555 375.962555 132.613037
v 177.200058 364.808624 131.992798
v 169.208649 353.777313 131.739471
v 175.754257 353.829346 131.954453
v 176.382477 366.341064 139.083115
v 177.086807 354.096161 124.983093
v 166.642532 364.424255 128.651276
v 166.917389 353.818909 127.562851
v 168.756363 375.765381 139.160248
v 176.962845 362.419495 128.814331
v 174.802856 369.104553 130.137848
v 168.379578 360.277008 139.243668
v 174.022675 353.232208 128.499115
v 166.807846 364.493805 129.969406
# 394 vertices, 0 vertices normals

f 196 252 110
f 172 358 338
f 235 392 334
f 45 32 202
f 243 121 211
f 294 89 390
f 22 9 127
f 16 189 248
f 95 207 139
f 198 184 264
f 282 166 212
f 70 72 41
f 7 45 123
f 91 272 259
f 223 241 265
f 286 191 159
f 222 368 137
f 314 352 85
f 381 186 228
f 279 169 6
f 106 300 201
f 130 325 194
f 263 123 381
f 196 110 222
f 315 321 349
f 228 186 192
f 181 244 120
f 88 138 218
f 146 69 165
f 4 109 217
f 282 231 375
f 60 156 80
f 308 329 43
f 71 10 1
f 287 227 175
f 222 110 368
f 55 201 257
f 334 215 371
f 36 231 392
f 77 53 171
f 311 362 383
f 186 34 192
f 92 73 384
f 319 365 353
f 165 69 242
f 335 285 12
f 26 68 389
f 314 363 352
f 4 204 109
f 33 63 190
f 207 390 89
f 139 207 271
f 139 271 197
f 245 34 132
f 31 103 265
f 160 84 37
f 384 337 199
f 326 152 164
f 25 386 298
f 250 118 385
f 363 312 352
f 1 10 266
f 185 150 255
f 94 173 82
f 119 268 75
f 29 193 51
f 348 112 83
f 48 82 236
f 206 291 313
f 280 109 220
f 252 135 377
f 166 16 212
f 118 324 305
f 175 117 294
f 28 301 245
f 135 350 255
f 243 86 121
f 234 323 369
f 187 304 339
f 312 342 386
f 245 359 34
f 238 23 360
f 311 253 244
f 340 78 373
f 319 353 357
f 363 327 344
f 185 181 154
f 31 157 386
f 367 94 323
f 374 158 375
f 234 84 323
f 216 129 234
f 38 269 220
f 249 260 47
f 297 226 351
f 21 86 243
f 259 1 266
f 389 68 30
f 143 292 239
f 299 303 70
f 206 351 226
f 36 374 231
f 189 304 187
f 166 74 16
f 318 105 394
f 308 240 264
f 271 89 234
f 14 202 237
f 277 307 179
f 180 224 54
f 265 272 91
f 11 153 119
f 216 229 129
f 187 339 113
f 17 362 303
f 365 248 289
f 371 44 107
f 94 267 173
f 42 319 357
f 245 126 359
f 317 346 207
f 222 137 102
f 130 210 286
f 276 393 327
f 24 39 337
f 198 25 184
f 78 156 336
f 374 375 231
f 324 270 309
f 174 87 73
f 256 122 161
f 124 80 105
f 334 392 215
f 88 107 42
f 111 26 389
f 236 3 32
f 222 102 281
f 162 200 77
f 254 168 205
f 111 389 169
f 65 20 367
f 144 103 31
f 130 286 159
f 169 389 35
f 84 267 37
f 119 153 268
f 177 369 48
f 143 380 325
f 210 21 243
f 361 378 292
f 220 269 60
f 278 385 20
f 220 60 232
f 42 104 13
f 64 178 145
f 252 221 110
f 291 233 313
f 392 231 62
f 58 310 277
f 355 36 392
f 326 266 152
f 175 227 117
f 130 159 325
f 179 307 270
f 22 127 285
f 288 293 122
f 350 388 219
f 262 280 318
f 64 240 308
f 293 164 151
f 128 303 362
f 121 123 263
f 238 355 23
f 206 274 351
f 145 178 108
f 117 100 229
f 310 203 372
f 296 297 351
f 143 325 159
f 61 290 368
f 319 66 98
f 93 368 290
f 15 140 18
f 288 315 349
f 380 47 325
f 316 83 82
f 365 289 278
f 358 179 57
f 251 101 106
f 93 116 137
f 367 316 94
f 96 279 6
f 24 149 39
f 241 287 175
f 225 72 331
f 92 384 333
f 364 173 94
f 147 75 200
f 354 40 302
f 52 1 272
f 28 132 49
f 28 112 301
f 317 207 95
f 230 26 111
f 140 42 13
f 113 273 58
f 214 251 370
f 221 43 61
f 313 233 167
f 295 78 336
f 332 303 128
f 148 194 249
f 17 299 170
f 376 119 378
f 203 131 162
f 164 152 317
f 135 150 145
f 155 247 74
f 281 219 388
f 139 197 19
f 250 57 118
f 246 160 136
f 202 132 237
f 57 179 324
f 237 132 34
f 335 356 224
f 364 82 173
f 208 238 360
f 257 336 60
f 210 243 286
f 293 349 326
f 134 87 174
f 127 9 182
f 57 324 118
f 201 258 188
f 387 318 394
f 84 37 323
f 289 250 278
f 189 74 304
f 22 224 180
f 228 192 34
f 257 295 336
f 289 248 341
f 371 62 44
f 88 218 107
f 195 314 85
f 297 133 360
f 233 18 347
f 241 272 265
f 29 156 193
f 64 308 43
f 212 16 98
f 30 203 310
f 245 301 126
f 335 12 356
f 271 234 369
f 302 142 256
f 322 228 11
f 196 222 343
f 378 75 147
f 273 30 310
f 298 157 315
f 337 39 79
f 359 153 34
f 241 175 52
f 55 257 269
f 177 48 69
f 123 14 237
f 312 386 25
f 105 182 9
f 306 85 240
f 54 224 158
f 380 249 47
f 17 253 383
f 273 35 30
f 45 202 14
f 259 266 213
f 84 328 37
f 118 305 348
f 332 72 70
f 93 190 331
f 19 197 146
f 143 239 380
f 261 67 209
f 389 30 35
f 300 391 258
f 327 330 344
f 27 23 235
f 251 106 370
f 81 170 238
f 246 114 160
f 99 31 386
f 373 21 210
f 280 220 232
f 71 390 10
f 159 191 361
f 42 107 66
f 56 298 315
f 379 342 312
f 148 130 194
f 302 256 275
f 8 114 246
f 356 12 247
f 254 205 5
f 20 385 316
f 289 341 338
f 356 158 224
f 217 190 63
f 29 51 366
f 42 357 104
f 256 161 4
f 350 219 255
f 13 104 8
f 46 339 304
f 292 378 147
f 355 392 23
f 198 85 352
f 306 145 150
f 33 141 63
f 154 92 393
f 155 74 166
f 289 338 250
f 206 149 274
f 105 80 182
f 151 161 122
f 143 361 292
f 314 276 327
f 296 208 133
f 239 292 131
f 323 37 267
f 300 19 146
f 340 373 148
f 332 116 72
f 206 226 291
f 294 390 71
f 281 2 219
f 251 95 101
f 115 70 254
f 257 60 269
f 338 358 57
f 179 270 324
f 121 7 123
f 183 81 208
f 323 173 267
f 17 81 183
f 261 209 394
f 258 391 163
f 225 209 41
f 262 217 109
f 163 165 86
f 369 323 94
f 376 322 11
f 113 125 273
f 68 131 203
f 204 161 283
f 129 37 328
f 140 138 88
f 6 169 125
f 287 337 227
f 59 275 63
f 93 290 190
f 181 219 244
f 286 243 211
f 324 309 305
f 307 171 270
f 151 214 283
f 361 376 378
f 204 283 38
f 90 367 323
f 48 94 82
f 18 246 347
f 123 45 14
f 146 177 69
f 242 236 32
f 11 228 34
f 201 300 258
f 87 50 274
f 11 34 153
f 379 99 342
f 134 183 50
f 311 244 219
f 208 360 133
f 285 96 12
f 56 288 142
f 52 71 1
f 64 43 178
f 354 59 329
f 193 156 340
f 96 6 46
f 162 147 200
f 387 394 209
f 305 309 301
f 89 216 234
f 168 54 205
f 291 226 320
f 146 197 177
f 136 160 129
f 308 354 329
f 151 164 214
f 51 230 111
f 188 163 97
f 345 28 49
f 188 258 163
f 256 4 275
f 22 180 261
f 73 284 384
f 207 346 390
f 282 44 62
f 163 391 165
f 294 216 89
f 69 48 236
f 39 167 347
f 373 97 21
f 170 355 238
f 211 121 263
f 148 373 210
f 140 88 42
f 352 312 25
f 77 200 268
f 295 97 78
f 332 70 303
f 285 366 96
f 27 360 23
f 227 100 117
f 295 188 97
f 160 37 176
f 223 287 241
f 371 215 62
f 345 3 112
f 205 374 36
f 253 134 174
f 297 360 27
f 225 190 387
f 195 306 150
f 263 228 322
f 143 159 361
f 151 283 161
f 207 89 271
f 230 380 26
f 120 73 92
f 197 271 382
f 27 320 226
f 293 151 122
f 55 370 106
f 299 5 170
f 296 351 50
f 345 49 3
f 54 158 374
f 152 10 346
f 314 327 363
f 249 194 47
f 365 278 353
f 104 357 76
f 286 211 191
f 8 104 76
f 168 180 54
f 235 334 218
f 234 129 328
f 183 296 50
f 38 283 370
f 99 144 31
f 16 74 189
f 343 388 350
f 106 101 300
f 365 98 248
f 299 115 5
f 332 102 116
f 364 94 82
f 278 250 385
f 323 267 94
f 254 70 41
f 99 386 342
f 251 317 95
f 193 249 230
f 189 187 341
f 354 264 40
f 191 322 376
f 4 217 275
f 364 345 3
f 87 274 284
f 50 351 274
f 354 302 59
f 86 7 121
f 344 330 144
f 385 348 316
f 393 92 333
f 140 13 8
f 39 347 79
f 87 284 73
f 316 82 94
f 58 277 358
f 90 323 84
f 146 165 391
f 22 335 224
f 356 155 158
f 372 162 77
f 157 91 321
f 323 94 173
f 247 304 74
f 372 77 307
f 357 353 65
f 366 51 279
f 316 348 83
f 165 242 7
f 127 29 366
f 53 268 153
f 249 47 260
f 93 137 368
f 124 60 80
f 198 240 85
f 309 53 126
f 329 59 141
f 5 205 36
f 310 372 277
f 124 105 318
f 353 20 65
f 340 148 249
f 187 113 172
f 315 157 321
f 55 106 201
f 195 276 314
f 273 125 35
f 21 163 86
f 235 23 392
f 135 108 377
f 392 62 215
f 184 25 298
f 204 220 109
f 282 62 231
f 381 237 186
f 330 223 103
f 292 147 131
f 206 313 149
f 59 63 141
f 149 313 39
f 270 53 309
f 196 343 350
f 195 185 276
f 225 331 190
f 20 316 367
f 234 328 84
f 291 320 15
f 16 248 98
f 305 301 112
f 223 265 103
f 18 8 246
f 237 34 186
f 257 201 188
f 262 190 217
f 115 254 5
f 124 232 60
f 128 362 2
f 83 112 82
f 8 76 114
f 169 35 125
f 193 340 249
f 12 46 247
f 384 24 337
f 261 394 9
f 356 247 155
f 369 94 48
f 46 6 339
f 114 90 84
f 116 331 72
f 341 172 338
f 364 82 345
f 349 213 326
f 32 49 202
f 189 341 248
f 114 84 160
f 127 182 29
f 281 102 128
f 17 183 134
f 211 263 322
f 239 131 68
f 22 285 335
f 198 264 240
f 53 153 126
f 221 61 368
f 236 82 3
f 214 317 251
f 30 68 203
f 185 154 276
f 123 237 381
f 211 322 191
f 227 79 100
f 7 242 45
f 193 230 51
f 329 141 61
f 67 41 209
f 97 163 21
f 129 176 37
f 184 40 264
f 254 67 168
f 60 336 156
f 197 382 177
f 222 281 343
f 44 212 66
f 281 128 2
f 379 144 99
f 347 246 136
f 338 57 250
f 69 236 242
f 235 218 138
f 76 90 114
f 252 350 135
f 84 323 267
f 61 141 290
f 371 107 218
f 256 142 122
f 288 122 142
f 172 58 358
f 223 199 287
f 343 281 388
f 15 138 140
f 302 40 142
f 313 167 39
f 288 349 293
f 345 82 3
f 187 172 341
f 168 67 261
f 366 279 96
f 235 138 320
f 359 126 153
f 382 369 177
f 81 238 208
f 33 290 141
f 17 303 299
f 241 52 272
f 340 156 78
f 181 120 154
f 311 2 362
f 77 268 53
f 155 375 158
f 302 275 59
f 358 277 179
f 377 108 178
f 140 8 18
f 80 156 182
f 154 120 92
f 263 381 228
f 78 97 373
f 262 109 280
f 135 145 108
f 271 369 382
f 294 117 216
f 363 344 379
f 393 333 330
f 330 199 223
f 277 372 307
f 44 66 107
f 318 280 232
f 65 367 90
f 101 139 300
f 42 66 319
f 51 111 279
f 113 339 125
f 32 3 49
f 348 305 112
f 330 333 199
f 282 375 166
f 168 261 180
f 300 139 19
f 319 98 365
f 233 347 167
f 217 63 275
f 378 119 75
f 28 245 132
f 86 165 7
f 199 337 287
f 52 294 71
f 27 235 320
f 345 112 28
f 327 393 330
f 299 70 115
f 379 344 144
f 56 142 40
f 38 370 55
f 12 96 46
f 93 331 116
f 266 10 152
f 22 261 9
f 31 91 157
f 198 352 25
f 276 154 393
f 284 274 149
f 160 176 129
f 6 125 339
f 113 58 172
f 296 133 297
f 112 3 82
f 333 384 199
f 364 3 82
f 247 46 304
f 254 41 67
f 262 387 190
f 332 128 102
f 195 85 306
f 230 249 380
f 15 18 233
f 127 366 285
f 273 310 58
f 272 1 259
f 15 320 138
f 282 212 44
f 196 350 252
f 221 377 178
f 170 5 355
f 203 162 372
f 134 50 87
f 244 253 174
f 76 65 90
f 124 318 232
f 363 379 312
f 337 79 227
f 326 213 266
f 390 346 10
f 56 315 288
f 17 170 81
f 298 386 157
f 257 188 295
f 221 368 110
f 308 264 354
f 175 294 52
f 262 318 387
f 17 134 253
f 353 278 20
f 244 174 120
f 17 383 362
f 31 265 91
f 307 77 171
f 291 15 233
f 184 56 40
f 183 208 296
f 4 161 204
f 185 255 181
f 148 210 130
f 330 103 144
f 329 61 43
f 105 9 394
f 79 229 100
f 26 239 68
f 214 164 317
f 131 147 162
f 306 64 145
f 29 182 156
f 321 259 213
f 252 377 221
f 225 41 72
f 357 65 76
f 347 136 79
f 284 24 384
f 200 75 268
f 135 255 150
f 214 370 283
f 225 387 209
f 221 178 43
f 204 38 220
f 284 149 24
f 38 55 269
f 270 171 53
f 300 146 391
f 309 126 301
f 117 229 216
f 385 118 348
f 202 49 132
f 184 298 56
f 91 259 321
f 195 150 185
f 181 255 219
f 212 98 66
f 33 190 290
f 317 152 346
f 102 137 116
f 334 371 218
f 242 32 45
f 349 321 213
f 155 166 375
f 311 383 253
f 136 129 229
f 325 47 194
f 79 136 229
f 205 54 374
f 361 191 376
f 101 95 139
f 311 219 2
f 297 27 226
f 293 326 164
f 376 11 119
f 306 240 64
f 120 174 73
f 26 380 239
f 5 36 355
f 279 111 169
# 794 faces, 0 coords texture

# End of File