####
#
# OBJ File Generated by Meshlab
#
####
# Object domain0672.obj
#
# Vertices: 792
# Faces: 1580
#
####
v 124.300316 63.869225 107.059814
v 124.421959 63.864479 106.590599
v 124.333076 63.623520 107.018394
v 124.363411 63.663692 107.966782
v 124.317383 63.875637 107.937805
v 124.471481 63.883888 108.380844
v 124.365761 64.086983 107.026688
v 124.361084 64.091713 107.972733
v 124.748833 62.797894 106.030128
v 124.861183 62.719528 105.508713
v 124.907898 62.473129 106.013153
v 124.919296 62.491512 106.981667
v 124.715828 62.793407 106.976509
v 124.868614 62.738461 107.481384
v 124.832108 63.289879 105.097389
v 124.966522 63.290688 104.578102
v 124.875061 63.005856 105.012337
v 124.623009 63.303722 106.019066
v 124.461334 63.276646 106.980515
v 124.827248 63.006237 107.992874
v 124.581497 63.324848 107.967705
v 124.849586 63.317291 108.481026
v 124.862617 63.570873 105.016777
v 124.576286 63.848175 106.032478
v 124.773788 63.897766 105.469482
v 124.892914 63.638542 108.937355
v 124.695511 63.946590 108.861580
v 125.029243 63.971149 109.179756
v 124.748695 64.373169 106.051117
v 124.940117 64.401764 105.566689
v 124.570129 64.412468 106.985512
v 124.570389 64.411217 108.013733
v 124.800514 64.363281 108.913460
v 125.039314 64.356110 109.180168
v 124.924767 64.667480 106.031357
v 124.845047 64.724388 107.001640
v 124.844139 64.724091 108.000481
v 124.958649 64.643723 108.942123
v 125.381783 61.620049 95.053391
v 125.561348 61.591503 94.584305
v 125.490204 61.290798 95.020485
v 125.435982 61.252003 95.999977
v 125.301208 61.602940 96.001602
v 125.461105 61.275539 96.997505
v 125.315079 61.610546 97.000069
v 125.483437 61.294395 97.999519
v 125.314804 61.610439 98.000023
v 125.483253 61.294468 99.000000
v 125.314857 61.610474 99.000008
v 125.483284 61.294495 100.000015
v 125.314865 61.610470 100.000008
v 125.484497 61.295521 100.999557
v 125.314964 61.610493 101.000000
v 125.500374 61.303734 102.008148
v 125.325821 61.615562 102.000290
v 125.512291 61.424408 102.992546
v 125.350006 61.642559 102.997452
v 125.530083 61.462334 103.971771
v 125.374886 61.657711 103.969826
v 125.482155 61.606094 104.476830
v 125.317436 62.117302 95.048409
v 125.500275 62.117371 94.547813
v 125.218239 62.126606 96.004402
v 125.197784 62.125885 97.000320
v 125.182373 62.125160 98.000000
v 125.182381 62.125172 98.999992
v 125.182396 62.125168 99.999992
v 125.182335 62.125164 101.000000
v 125.183014 62.125309 102.000015
v 125.200813 62.130119 102.999695
v 125.193703 62.134415 104.003204
v 125.422470 61.829056 105.001167
v 125.221085 62.151653 104.986755
v 125.442154 61.856800 106.007195
v 125.146530 62.156673 105.988281
v 125.481995 61.990170 106.974037
v 125.186317 62.208740 106.981384
v 125.449112 62.181049 107.475479
v 125.351875 62.632809 95.069702
v 125.544334 62.649715 94.575867
v 125.226334 62.685745 96.008629
v 125.188744 62.694607 97.002846
v 125.154182 62.701008 98.000839
v 125.140884 62.702011 99.000008
v 125.140900 62.702015 100.000000
v 125.140900 62.702007 101.000015
v 125.140892 62.702015 102.000023
v 125.132034 62.702572 103.001167
v 125.107483 62.701103 103.998886
v 124.979340 62.648197 104.958862
v 125.432274 62.441727 107.978401
v 125.127571 62.718811 107.988640
v 125.476425 62.771793 108.432281
v 125.450317 62.974056 95.016541
v 125.340363 63.192741 96.029648
v 125.451973 63.261734 95.513092
v 125.292282 63.225140 97.019333
v 125.217041 63.269535 98.005302
v 125.201027 63.274067 99.000702
v 125.183014 63.278709 99.999992
v 125.182320 63.278847 101.000015
v 125.181343 63.278992 102.000153
v 125.175285 63.279861 103.003044
v 125.077751 63.277042 104.007065
v 125.460289 63.133865 108.902039
v 125.167023 63.358322 108.940483
v 125.508278 63.483559 109.201126
v 125.491501 63.516991 96.016548
v 125.434311 63.569870 97.001549
v 125.374977 63.746532 98.030853
v 125.477921 63.810612 97.519562
v 125.350182 63.761345 99.002533
v 125.325813 63.788441 99.999741
v 125.314941 63.793491 101.000000
v 125.314857 63.793526 101.999969
v 125.306679 63.796173 103.001167
v 125.252518 63.822067 104.016640
v 124.986214 63.912041 104.959167
v 125.437515 63.902306 109.346306
v 125.528023 63.944107 98.028351
v 125.512825 63.978802 99.007774
v 125.500389 64.100235 99.991852
v 125.484497 64.108475 101.000397
v 125.483223 64.109581 102.000061
v 125.480659 64.111534 103.001633
v 125.430313 64.155998 104.002480
v 125.218269 64.393379 105.041359
v 125.443550 64.419624 104.517097
v 125.439522 64.428673 109.339417
v 125.469391 64.645126 105.040901
v 125.198639 64.935516 106.028343
v 125.462257 64.926529 105.564919
v 125.149101 64.992554 107.000565
v 125.150063 64.991364 107.998871
v 125.221687 64.904793 108.943726
v 125.519241 64.836159 109.194771
v 125.490395 65.127327 106.043648
v 125.469559 65.190422 107.000877
v 125.470268 65.189415 107.999039
v 125.510712 65.088112 108.932671
v 126.072647 56.287388 95.061340
v 126.216103 56.304024 94.613152
v 126.124161 56.218891 95.034531
v 126.130157 56.232292 95.961937
v 126.073479 56.289856 95.937889
v 126.241898 56.315102 96.375099
v 126.083855 56.511589 95.017899
v 126.081146 56.513790 95.981377
v 125.889885 60.434093 95.039131
v 126.074066 60.395103 94.543404
v 126.025017 60.089512 95.007462
v 126.009911 60.085136 95.993782
v 125.862755 60.433445 95.978928
v 125.997505 60.360481 96.498428
v 125.667931 60.927914 95.000343
v 125.913429 60.910679 94.455086
v 125.599838 60.908031 96.000519
v 125.956230 60.607391 97.035477
v 125.699402 60.933033 96.989151
v 126.053978 60.802471 97.993515
v 125.744019 61.006943 97.999161
v 126.068893 60.849579 98.999077
v 125.754501 61.023281 99.000000
v 126.070541 60.855045 99.999947
v 125.754539 61.023335 99.999969
v 126.071373 60.857449 100.998734
v 125.756073 61.025665 100.998734
v 126.086014 60.881069 101.971886
v 125.770836 61.044453 101.984497
v 126.001099 60.966385 102.496086
v 125.840042 61.583042 94.097633
v 126.184120 61.622829 93.790497
v 126.022957 61.254227 94.026260
v 125.929878 61.099243 103.018349
v 125.970352 61.158916 104.006851
v 126.029549 61.348621 104.988991
v 125.704842 61.553699 105.000511
v 126.078972 61.444183 105.972031
v 125.756401 61.613075 105.985519
v 126.010498 61.571545 106.490929
v 125.792976 62.116558 94.074562
v 126.140961 62.115330 93.758415
v 125.950966 61.711121 107.022125
v 126.065086 62.049370 107.912888
v 125.748039 62.200359 107.948387
v 126.076302 62.302216 108.255562
v 125.839966 62.646557 94.098984
v 126.185898 62.598896 93.800262
v 125.997665 62.657429 108.590782
v 126.041550 62.954479 94.050385
v 125.646622 63.314278 94.988579
v 125.979279 63.318218 94.475143
v 125.993118 63.033382 108.958611
v 125.999695 63.424644 109.261024
v 125.934959 63.751377 95.066940
v 126.140610 63.709141 94.744576
v 125.732910 63.832211 95.990952
v 125.677979 63.893814 96.993111
v 125.991989 63.886520 109.413147
v 126.113571 63.904301 95.074982
v 126.035385 64.127785 95.989487
v 125.982315 64.163414 97.016708
v 125.955269 64.262146 98.002914
v 125.928627 64.306900 98.981232
v 125.770882 64.359451 100.015518
v 126.001030 64.437874 99.503838
v 125.756081 64.378319 101.001259
v 125.754456 64.380760 102.000076
v 125.752365 64.383476 103.001556
v 125.701500 64.440834 103.998070
v 125.991943 64.450569 109.421356
v 126.086121 64.522736 100.028214
v 126.071487 64.546234 101.001381
v 126.070610 64.549004 102.000267
v 126.064903 64.570732 103.003693
v 126.025406 64.647156 104.012589
v 125.939964 64.903450 104.952354
v 125.954163 65.131104 105.452995
v 126.043228 64.955345 109.274376
v 125.971802 65.372963 105.999878
v 125.931885 65.473152 106.999443
v 125.933228 65.471306 108.000877
v 125.998970 65.322052 108.960510
v 126.431610 56.367168 94.127350
v 126.759628 56.454430 93.859444
v 126.674141 56.257099 94.104248
v 126.595917 56.083069 95.009941
v 126.597237 56.084904 95.990288
v 126.679527 56.266262 96.893166
v 126.458473 56.386200 96.853256
v 126.762062 56.456627 97.140747
v 126.446068 56.841972 94.070221
v 126.737083 56.856747 93.763710
v 126.153488 56.887409 94.982277
v 126.153481 56.888332 96.020523
v 126.448242 56.842922 96.931915
v 126.735405 56.855515 97.238998
v 126.459755 57.427032 94.063667
v 126.732063 57.428509 93.748749
v 126.243843 57.431568 94.996529
v 126.243156 57.432816 96.001534
v 126.458382 57.425766 96.934669
v 126.731956 57.428356 97.251373
v 126.470245 58.014000 94.065834
v 126.731339 58.014000 93.747726
v 126.289108 58.013931 94.999985
v 126.289642 58.014011 95.999786
v 126.470177 58.013893 96.933968
v 126.731316 58.014000 97.252304
v 126.470146 58.600113 94.066025
v 126.731300 58.599995 93.747688
v 126.289650 58.599979 95.000229
v 126.289101 58.600056 96.000015
v 126.470230 58.599998 96.934158
v 126.731339 58.599995 97.252281
v 126.454643 59.188744 94.063858
v 126.731293 59.186153 93.747749
v 126.242935 59.181133 94.998474
v 126.242249 59.182034 96.003281
v 126.451103 59.188225 96.939369
v 126.729073 59.187405 97.255638
v 126.415703 59.778614 94.055779
v 126.721825 59.773682 93.738876
v 126.139648 59.721165 94.980003
v 126.132408 59.718681 96.019196
v 126.380676 59.778240 96.957787
v 126.689842 59.783222 97.313576
v 126.314354 60.342514 94.050941
v 126.701096 60.362152 93.723122
v 126.190865 60.314911 97.032333
v 126.570213 60.305710 97.529503
v 126.226357 60.915794 93.977303
v 126.642509 60.978714 93.688019
v 126.547180 60.570869 98.008209
v 126.582985 60.707722 98.996666
v 126.585037 60.721455 99.999893
v 126.585823 60.726151 100.999626
v 126.591515 60.745728 101.995148
v 126.635674 60.832539 102.980721
v 126.266373 60.932571 103.005081
v 126.665070 60.879562 103.970940
v 126.313911 60.990524 103.991135
v 126.587349 60.975830 104.493187
v 126.600250 61.541153 93.609634
v 126.530876 61.114063 105.031219
v 126.589714 61.315536 105.983887
v 126.640404 61.485744 106.927399
v 126.298218 61.573818 106.986450
v 126.614624 61.669937 107.432823
v 126.590965 62.115574 93.589027
v 126.564995 61.917149 107.914986
v 126.575363 62.254723 108.296371
v 126.605919 62.671963 93.643044
v 126.576385 62.631233 108.623665
v 126.325424 63.233059 94.053101
v 126.680122 63.092045 93.798965
v 126.572701 63.020226 108.972702
v 126.563087 63.428215 109.249809
v 126.629196 63.445408 94.100357
v 126.571602 63.769611 94.544830
v 126.562218 63.887619 109.393356
v 126.569801 64.102707 95.057945
v 126.352631 64.359207 96.021790
v 126.624260 64.328827 95.561546
v 126.322571 64.402390 97.001221
v 126.293732 64.435371 97.998924
v 126.265434 64.473824 98.994423
v 126.562981 64.459717 109.413254
v 126.667473 64.481583 96.050766
v 126.660339 64.530029 97.002525
v 126.649017 64.558571 98.000450
v 126.635841 64.573555 99.020065
v 126.591743 64.643616 100.007027
v 126.585800 64.677666 101.000313
v 126.584473 64.690086 102.001091
v 126.581619 64.723610 103.002579
v 126.527519 64.879890 103.966408
v 126.269440 65.073196 104.989326
v 126.576607 65.047188 104.500244
v 126.576576 65.013412 109.339958
v 126.626785 65.229759 105.039337
v 126.330780 65.556931 106.018555
v 126.630524 65.486160 105.577087
v 126.258751 65.667175 106.997162
v 126.260445 65.663361 107.999901
v 126.350098 65.523514 108.954002
v 126.671295 65.405388 109.175270
v 126.658653 65.686417 106.059380
v 126.610809 65.896011 106.983818
v 126.615669 65.888382 108.015945
v 126.668686 65.651970 108.916855
v 127.177681 56.424122 93.767845
v 127.176247 56.177284 94.071518
v 127.163727 56.009159 95.002319
v 127.164299 56.009739 95.996910
v 127.176720 56.179924 96.926979
v 127.177742 56.425533 97.230492
v 127.176964 56.856850 93.609657
v 127.176918 56.856968 97.390167
v 127.172592 57.428860 93.567955
v 127.172585 57.428864 97.432053
v 127.171730 58.014004 93.563187
v 127.171738 58.014000 97.436829
v 127.171722 58.599995 93.563179
v 127.171745 58.599998 97.436829
v 127.171722 59.185997 93.563171
v 127.170761 59.186737 97.442406
v 127.171692 59.772034 93.563087
v 127.162544 59.771709 97.499596
v 127.170410 60.358212 93.559326
v 127.147438 60.222473 97.712456
v 127.165649 60.946266 93.544769
v 127.159683 60.491432 98.053932
v 127.161896 60.658569 98.999168
v 127.162010 60.680077 99.999893
v 127.162003 60.681194 101.000015
v 127.162857 60.708702 101.998772
v 127.161575 60.775120 102.996162
v 127.162567 60.829582 103.978889
v 127.163254 60.966728 104.903137
v 126.879929 61.001762 104.987694
v 127.164154 61.103264 105.417015
v 127.163269 61.530605 93.522018
v 127.144951 61.245968 105.975914
v 127.095619 61.498825 106.918900
v 127.109398 61.687176 107.416672
v 127.162277 62.115753 93.513290
v 127.103897 61.971359 107.897865
v 127.071152 62.301590 108.244263
v 127.163986 62.690090 93.577286
v 127.156715 62.719288 108.551743
v 127.173050 63.145191 93.746986
v 127.097786 63.117176 108.894508
v 126.986038 63.461918 109.158684
v 127.167694 63.511456 94.056076
v 127.163307 63.851151 94.514771
v 127.022179 63.887604 109.250336
v 127.161224 64.141174 95.014214
v 127.162056 64.384781 95.534271
v 127.029877 64.460182 109.268578
v 127.161865 64.535889 96.048019
v 127.161949 64.605606 97.004539
v 127.162003 64.612411 98.000137
v 127.161591 64.623688 99.000854
v 127.153992 64.664505 100.001976
v 127.161095 64.710678 101.001144
v 127.162384 64.729721 102.001038
v 127.160706 64.813301 103.002281
v 126.880417 64.987114 104.013100
v 127.164268 64.910576 103.572952
v 127.014748 65.030167 109.234261
v 127.164764 65.031334 104.102608
v 127.172112 65.295067 105.034248
v 127.121033 65.494926 105.572929
v 126.990105 65.435188 109.126190
v 127.096794 65.773643 106.103905
v 126.944832 66.087418 107.027870
v 127.146393 65.974998 106.620216
v 126.951408 66.079002 107.969009
v 127.149643 65.941803 108.362617
v 127.061607 65.725616 108.844101
v 127.160255 66.132500 107.062386
v 127.161018 66.130890 107.935005
v 127.748413 56.411842 93.748466
v 127.751099 56.148010 94.065147
v 127.747963 55.969986 95.000191
v 127.748001 55.969673 95.999817
v 127.751122 56.147892 96.934875
v 127.748680 56.411823 97.251457
v 127.748901 56.852562 93.567886
v 127.748871 56.852558 97.432129
v 127.748268 57.428284 93.512184
v 127.748291 57.428284 97.487816
v 127.748146 58.014000 93.506096
v 127.748131 58.013992 97.493889
v 127.748154 58.599991 93.506111
v 127.748154 58.599991 97.493889
v 127.748146 59.186008 93.506104
v 127.748001 59.185997 97.500000
v 127.748161 59.771992 93.506111
v 127.747314 59.763279 97.557442
v 127.748116 60.358002 93.506042
v 127.752113 60.216244 97.734070
v 127.748077 60.944054 93.506004
v 127.757622 60.516903 98.053818
v 127.741570 60.701717 98.997910
v 127.738960 60.721611 99.999878
v 127.738113 60.726864 100.999786
v 127.730164 60.757843 101.993195
v 127.682426 60.845631 102.978317
v 127.652069 60.893368 103.969635
v 127.438774 61.008583 104.982628
v 127.726593 60.991360 104.489296
v 127.748016 61.530010 93.500000
v 127.777870 61.142151 105.018623
v 127.680786 61.410908 105.957520
v 127.411682 61.603241 106.967041
v 127.719681 61.573624 106.483238
v 127.747795 62.115669 93.512085
v 127.736771 61.835442 106.993828
v 127.405937 62.176647 107.949959
v 127.733093 62.130932 107.490074
v 127.745621 62.689831 93.575844
v 127.693222 62.454433 107.954880
v 127.594055 62.789299 108.279739
v 127.738190 63.146759 93.743904
v 127.316162 63.354805 108.891373
v 127.708794 63.301849 108.467545
v 127.741379 63.507427 94.058456
v 127.743034 63.827866 94.528244
v 127.407990 63.879963 108.953598
v 127.767754 63.876755 108.572800
v 127.759422 64.116982 95.048767
v 127.696358 64.318810 95.567268
v 127.417633 64.458397 108.966736
v 127.790474 64.441154 108.500648
v 127.655518 64.479057 96.052330
v 127.663628 64.530334 97.002129
v 127.665260 64.536461 98.000038
v 127.666039 64.538246 99.000641
v 127.685852 64.573067 100.018982
v 127.732841 64.658844 101.004570
v 127.739464 64.686852 102.000999
v 127.743942 64.723679 103.005157
v 127.440628 64.986252 104.016045
v 127.795547 64.879265 103.967201
v 127.732674 65.012932 104.507545
v 127.378914 65.036499 108.939835
v 127.704895 65.040169 108.476837
v 127.662331 65.144447 105.028870
v 127.422768 65.585297 106.022675
v 127.744354 65.346436 105.973793
v 127.695824 65.585197 106.521217
v 127.276123 65.535149 108.870110
v 127.572090 65.554596 108.403786
v 127.355965 66.068230 107.032539
v 127.639496 65.835541 107.018211
v 127.354721 66.068665 107.962051
v 127.611488 65.818153 107.967216
v 128.337143 56.401157 93.738029
v 128.345215 56.097343 94.053520
v 128.327652 55.913044 94.998001
v 128.327682 55.913162 96.002007
v 128.343506 56.095516 96.946709
v 128.338684 56.400112 97.262085
v 128.333435 56.852352 93.567841
v 128.333466 56.852360 97.432091
v 128.333679 57.428272 93.512131
v 128.333694 57.428284 97.487892
v 128.333832 58.013985 93.506104
v 128.333847 58.013992 97.493889
v 128.333832 58.599995 93.506096
v 128.333832 58.599995 97.493889
v 128.333832 59.185993 93.506104
v 128.333984 59.186008 97.499817
v 128.333847 59.771996 93.506104
v 128.334610 59.767021 97.542023
v 128.333817 60.358002 93.506096
v 128.377975 60.283524 97.699440
v 128.333832 60.944004 93.506096
v 128.315643 60.671509 98.027267
v 128.257614 60.841808 98.996414
v 128.253555 60.854713 99.999779
v 128.247818 60.867878 100.999107
v 128.211624 60.907211 101.968376
v 128.029739 60.974640 102.998413
v 128.273209 61.015633 102.480743
v 127.976990 61.031231 103.983917
v 128.332718 61.529369 93.522003
v 128.354370 61.217445 103.006943
v 128.294754 61.270668 104.009399
v 128.232407 61.429081 104.971169
v 128.001297 61.586212 105.978188
v 128.260315 61.602184 105.474197
v 128.327713 62.111469 93.561028
v 128.281586 61.858479 105.979965
v 128.025742 62.129074 106.991966
v 128.289474 62.144352 106.483299
v 128.305191 62.673016 93.638535
v 128.275131 62.446186 106.973679
v 127.927917 62.755230 107.925011
v 128.217285 62.755669 107.435226
v 128.230362 63.092548 93.798233
v 128.085495 63.266556 108.022072
v 128.359558 63.271179 107.522987
v 128.274216 63.428833 94.103882
v 128.266052 63.716164 94.586060
v 128.251816 63.604073 107.949562
v 128.088928 63.876129 108.193222
v 128.243134 63.938457 95.053825
v 127.964867 64.351044 96.024399
v 128.292007 64.130318 95.984627
v 127.994759 64.392891 97.001228
v 128.318634 64.149475 97.000168
v 127.996368 64.395264 98.000053
v 128.320450 64.151627 98.000031
v 127.998405 64.398193 99.001236
v 128.323746 64.155174 99.000404
v 128.034286 64.436790 99.999687
v 128.364502 64.197411 99.991318
v 128.298370 64.407066 100.516457
v 128.108810 64.500870 108.014145
v 128.242889 64.140373 107.953735
v 128.286591 64.441353 107.487610
v 128.234604 64.516632 101.029427
v 128.252625 64.546608 102.001167
v 128.259247 64.568436 103.000710
v 128.275299 64.621422 103.997444
v 127.983215 64.970985 105.019653
v 128.292313 64.716057 104.985069
v 128.025452 65.043442 106.020912
v 128.299469 64.728317 105.995422
v 128.119125 65.067390 107.019638
v 128.278809 64.717339 106.986771
v 127.942314 65.032875 107.973465
v 127.840881 65.535629 107.024757
v 127.782722 65.536392 107.945702
v 128.949478 56.344585 93.737190
v 128.908646 55.963058 94.037827
v 128.852875 55.793285 94.997673
v 128.852966 55.793816 96.002007
v 128.906647 55.960133 96.964622
v 128.950119 56.345127 97.263580
v 128.909622 56.851311 93.599289
v 128.909576 56.851318 97.401253
v 128.910477 57.428734 93.565102
v 128.910446 57.428730 97.434898
v 128.911224 58.013985 93.560242
v 128.911209 58.013996 97.439774
v 128.911224 58.599991 93.560249
v 128.911224 58.599998 97.439751
v 128.911240 59.186005 93.560242
v 128.911179 59.186085 97.439926
v 128.911209 59.771992 93.560242
v 128.912689 59.774353 97.461479
v 128.911224 60.358002 93.560242
v 128.928955 60.349590 97.540634
v 128.908478 60.942417 93.572006
v 128.667023 60.898762 98.024712
v 129.021332 60.845135 97.698044
v 128.574875 61.015579 98.997154
v 128.568481 61.024502 99.999496
v 128.559174 61.041752 101.006050
v 128.419510 61.060421 101.967026
v 128.893570 61.517540 93.615112
v 128.952820 61.205059 98.019485
v 128.848877 61.288746 98.997360
v 128.838394 61.295990 99.998680
v 128.820175 61.310619 100.984428
v 128.892868 61.544559 101.494827
v 128.754074 61.476398 102.015274
v 128.625656 61.520908 102.983849
v 128.591324 61.570782 104.008675
v 128.433975 61.630409 104.971558
v 128.844223 62.071842 93.704460
v 128.923843 61.809288 102.006546
v 128.864624 61.860981 102.997887
v 128.834824 61.883827 103.986565
v 128.881958 62.135750 104.491570
v 128.735565 62.079521 105.022285
v 128.483368 62.171730 105.967384
v 128.731888 62.597435 93.788589
v 128.901184 62.417027 104.995255
v 128.890427 62.712757 105.492859
v 128.732712 62.666447 106.019432
v 128.428452 62.767559 106.932625
v 128.855026 62.942513 94.055168
v 128.570831 63.217590 94.059258
v 128.882477 63.249695 94.521904
v 128.852219 63.011803 105.980682
v 128.754715 63.288456 106.416611
v 128.579834 63.316143 106.969963
v 128.546036 63.770138 95.030487
v 128.860489 63.518757 95.015556
v 128.614349 63.860580 96.001160
v 128.905838 63.567745 95.999687
v 128.611450 63.860332 97.000023
v 128.870895 63.545139 96.997375
v 128.611649 63.860500 98.000038
v 128.855377 63.536366 97.999901
v 128.615250 63.863842 99.000427
v 128.857803 63.538223 99.001213
v 128.656540 63.904232 99.990891
v 128.893997 63.573582 99.999275
v 128.861877 63.835625 100.517830
v 128.747559 63.919704 106.034348
v 128.860107 63.567089 105.983788
v 128.877670 63.856068 105.491348
v 128.532227 63.859444 106.979034
v 128.293121 63.873188 107.884949
v 128.539993 64.349869 101.019905
v 128.809158 64.079697 101.020325
v 128.567200 64.377609 102.001694
v 128.837433 64.107132 102.001587
v 128.569290 64.380753 103.000488
v 128.840576 64.109383 103.000000
v 128.583740 64.403877 104.002731
v 128.838501 64.108009 103.998589
v 128.589981 64.418343 105.014732
v 128.829544 64.100975 104.984833
v 128.492447 64.401634 106.000488
v 128.427139 64.374306 106.971031
v 129.277008 55.806782 94.051804
v 129.434296 55.938828 93.932541
v 129.500900 55.759785 94.105103
v 129.577972 55.643902 95.007195
v 129.221771 55.698452 95.001419
v 129.578522 55.643936 95.992935
v 129.221680 55.697502 95.999397
v 129.504791 55.749546 96.897301
v 129.277084 55.804649 96.946365
v 129.433807 55.943703 97.055183
v 129.370865 56.286018 93.789062
v 129.365814 56.289322 97.198853
v 129.371216 56.844131 93.738937
v 129.370529 56.844597 97.259720
v 129.375626 57.427994 93.727859
v 129.375626 57.427994 97.272156
v 129.375626 58.013988 93.727859
v 129.375641 58.013996 97.272148
v 129.375626 58.599991 93.727859
v 129.375626 58.599991 97.272133
v 129.375641 59.186012 93.727867
v 129.375656 59.185997 97.272171
v 129.375626 59.771988 93.727859
v 129.375534 59.772606 97.272919
v 129.374924 60.357445 93.729324
v 129.384796 60.365204 97.302856
v 129.361328 60.932278 93.748734
v 129.399582 60.951393 97.340416
v 129.303009 61.432884 93.792084
v 129.146133 61.595432 97.979034
v 129.355011 61.467003 97.450310
v 129.017090 61.607918 98.995979
v 129.007019 61.611237 99.998573
v 128.982819 61.626034 100.971870
v 129.447479 61.796844 94.038788
v 129.241516 62.127392 93.999290
v 129.530319 62.130943 94.475296
v 129.408691 62.173134 97.067467
v 129.507156 61.823158 96.999817
v 129.562592 62.141712 96.533813
v 129.198547 62.116676 97.998062
v 129.134933 62.124138 98.998131
v 129.122665 62.126469 99.999809
v 129.118652 62.131535 100.995262
v 129.046707 62.172970 101.982216
v 129.008682 62.196362 102.997971
v 128.981461 62.212086 103.971474
v 129.080261 62.639900 94.089111
v 129.363251 62.634556 94.577255
v 129.283020 62.721107 97.008148
v 129.410583 62.664597 96.452988
v 129.158401 62.693901 97.996201
v 129.127777 62.692307 98.999672
v 129.138718 62.694820 100.002396
v 129.154587 62.702015 101.000008
v 129.138702 62.709190 101.997620
v 129.122604 62.712337 102.999313
v 129.102448 62.719353 103.993340
v 128.998627 62.776371 104.954506
v 129.146820 63.225616 95.017021
v 129.389633 62.909286 95.025749
v 129.176453 63.246658 96.016716
v 129.394714 62.917416 95.978409
v 129.056915 63.220406 96.997673
v 129.014832 63.208714 97.998436
v 129.011261 63.208462 99.000519
v 129.029236 63.224247 100.019608
v 129.118484 63.272453 101.004768
v 129.122650 63.277527 102.000191
v 129.127045 63.278286 102.999992
v 129.106628 63.277855 103.997559
v 129.044800 63.287685 104.976433
v 128.897476 63.288834 105.902397
v 128.972900 63.773148 101.030090
v 129.006439 63.792557 102.001251
v 129.008804 63.793427 102.999992
v 129.006409 63.792576 103.998779
v 128.967957 63.777218 104.969788
v 129.622055 55.795326 94.130768
v 129.888733 55.798302 94.607368
v 129.952652 55.703938 95.042130
v 129.956161 55.696335 95.961098
v 129.637711 55.787174 96.875801
v 129.906281 55.786678 96.403870
v 129.716095 56.267075 94.066582
v 130.015656 56.265747 94.537819
v 129.716248 56.265640 96.932518
v 130.020905 56.263779 96.464737
v 129.745865 56.842567 94.042244
v 130.052765 56.842434 94.519470
v 129.745285 56.842579 96.957329
v 130.053360 56.842381 96.480804
v 129.748383 57.427990 94.040146
v 130.056244 57.427998 94.517792
v 129.748398 57.427998 96.959854
v 130.056259 57.428001 96.482201
v 129.748383 58.013988 94.040138
v 130.056259 58.013996 94.517792
v 129.748398 58.013985 96.959862
v 130.056244 58.013996 96.482193
v 129.748383 58.599998 94.040154
v 130.056259 58.599998 94.517776
v 129.748383 58.599995 96.959862
v 130.056244 58.599998 96.482201
v 129.748383 59.185993 94.040138
v 130.056244 59.185993 94.517792
v 129.748383 59.185989 96.959862
v 130.056274 59.185993 96.482193
v 129.748627 59.772087 94.040016
v 130.053360 59.771629 94.519226
v 129.748810 59.772079 96.960213
v 130.052689 59.771576 96.480492
v 129.739777 60.357712 94.047462
v 130.035141 60.353844 94.527664
v 129.739090 60.356533 96.952995
v 130.033264 60.354492 96.472488
v 129.722504 60.949242 94.074936
v 129.969528 60.900085 94.559387
v 129.729996 60.949188 96.932701
v 129.964111 60.898438 96.435844
v 129.582947 61.460011 94.082993
v 130.033844 61.203766 95.011139
v 129.899277 61.564800 94.989731
v 129.899750 61.564869 96.010765
v 130.027237 61.199924 95.986557
v 129.609116 61.466957 96.939529
v 129.706650 62.092293 95.011055
v 129.709396 62.092636 95.989143
v 129.536072 62.609570 95.048325
v 129.543320 62.611847 95.954346
v 130.067139 55.812202 95.056290
v 130.069931 55.810051 95.946648
v 130.184265 56.270702 95.041031
v 130.186386 56.270180 95.959465
v 130.223816 56.842987 95.036049
v 130.223999 56.842953 95.963982
v 130.229782 57.427979 95.035233
v 130.229782 57.427998 95.964729
v 130.229782 58.014004 95.035255
v 130.229767 58.013985 95.964729
v 130.229782 58.600014 95.035271
v 130.229782 58.600002 95.964729
v 130.229767 59.185993 95.035248
v 130.229797 59.185993 95.964737
v 130.223969 59.771038 95.036018
v 130.223816 59.770992 95.963951
v 130.194717 60.346668 95.039528
v 130.192795 60.346245 95.959969
v 130.128616 60.858742 95.046387
v 130.127014 60.857811 95.952538
# 792 vertices, 0 vertices normals

f 3 2 1
f 5 4 1
f 1 4 3
f 5 6 4
f 2 7 1
f 1 7 5
f 5 7 8
f 5 8 6
f 11 10 9
f 13 12 9
f 9 12 11
f 13 14 12
f 17 16 15
f 17 15 10
f 15 9 10
f 15 18 9
f 9 19 13
f 9 18 19
f 14 13 20
f 13 21 20
f 13 19 21
f 21 22 20
f 16 23 15
f 25 24 23
f 24 15 23
f 24 18 15
f 24 2 3
f 19 24 3
f 18 24 19
f 19 3 4
f 19 4 21
f 27 26 6
f 6 26 4
f 26 22 4
f 22 21 4
f 27 28 26
f 24 25 29
f 29 25 30
f 31 7 2
f 24 31 2
f 29 31 24
f 32 8 7
f 32 7 31
f 27 6 8
f 32 27 8
f 33 27 32
f 28 27 34
f 34 27 33
f 30 35 29
f 29 35 31
f 31 35 36
f 31 36 32
f 32 36 37
f 32 37 33
f 33 37 38
f 33 38 34
f 41 40 39
f 43 42 39
f 39 42 41
f 45 44 43
f 43 44 42
f 47 46 45
f 45 46 44
f 49 48 47
f 47 48 46
f 51 50 49
f 49 50 48
f 53 52 51
f 51 52 50
f 55 54 53
f 53 54 52
f 57 56 55
f 55 56 54
f 59 58 57
f 57 58 56
f 59 60 58
f 39 40 61
f 61 40 62
f 39 63 43
f 39 61 63
f 43 64 45
f 43 63 64
f 45 65 47
f 45 64 65
f 47 66 49
f 47 65 66
f 49 67 51
f 49 66 67
f 51 68 53
f 51 67 68
f 53 69 55
f 53 68 69
f 55 70 57
f 55 69 70
f 57 71 59
f 57 70 71
f 60 59 72
f 59 73 72
f 59 71 73
f 75 74 73
f 73 74 72
f 77 76 75
f 75 76 74
f 77 78 76
f 61 62 79
f 79 62 80
f 61 81 63
f 61 79 81
f 63 82 64
f 63 81 82
f 64 83 65
f 64 82 83
f 65 84 66
f 65 83 84
f 66 85 67
f 66 84 85
f 67 86 68
f 67 85 86
f 68 87 69
f 68 86 87
f 69 88 70
f 69 87 88
f 70 89 71
f 70 88 89
f 71 90 73
f 71 89 90
f 90 10 11
f 75 90 11
f 73 90 75
f 75 11 12
f 75 12 77
f 92 91 14
f 14 91 12
f 91 78 12
f 78 77 12
f 92 93 91
f 80 94 79
f 96 95 94
f 95 79 94
f 95 81 79
f 81 97 82
f 81 95 97
f 82 98 83
f 82 97 98
f 83 99 84
f 83 98 99
f 84 100 85
f 84 99 100
f 85 101 86
f 85 100 101
f 86 102 87
f 86 101 102
f 87 103 88
f 87 102 103
f 88 104 89
f 88 103 104
f 104 16 17
f 90 104 17
f 89 104 90
f 90 17 10
f 20 92 14
f 106 105 22
f 22 105 20
f 105 93 20
f 93 92 20
f 106 107 105
f 96 108 95
f 95 108 97
f 97 108 109
f 111 110 109
f 110 97 109
f 110 98 97
f 98 112 99
f 98 110 112
f 99 113 100
f 99 112 113
f 100 114 101
f 100 113 114
f 101 115 102
f 101 114 115
f 102 116 103
f 102 115 116
f 103 117 104
f 103 116 117
f 118 23 16
f 104 118 16
f 117 118 104
f 118 25 23
f 26 106 22
f 26 28 106
f 28 107 106
f 28 119 107
f 111 120 110
f 110 120 112
f 112 120 121
f 112 121 113
f 113 121 122
f 113 122 114
f 114 122 123
f 114 123 115
f 115 123 124
f 115 124 116
f 116 124 125
f 116 125 117
f 117 125 126
f 128 127 126
f 127 117 126
f 127 118 117
f 127 30 25
f 127 25 118
f 34 119 28
f 34 129 119
f 128 130 127
f 130 132 131
f 130 131 35
f 127 130 35
f 30 127 35
f 133 36 35
f 133 35 131
f 134 37 36
f 134 36 133
f 135 38 37
f 135 37 134
f 135 136 38
f 136 34 38
f 136 129 34
f 132 137 131
f 131 137 133
f 133 137 138
f 133 138 134
f 134 138 139
f 134 139 135
f 135 139 140
f 135 140 136
f 143 142 141
f 145 144 141
f 141 144 143
f 145 146 144
f 142 147 141
f 141 147 145
f 145 147 148
f 145 148 146
f 151 150 149
f 153 152 149
f 149 152 151
f 153 154 152
f 149 150 155
f 155 150 156
f 149 157 153
f 149 155 157
f 154 153 158
f 153 159 158
f 153 157 159
f 161 160 159
f 159 160 158
f 163 162 161
f 161 162 160
f 165 164 163
f 163 164 162
f 167 166 165
f 165 166 164
f 169 168 167
f 167 168 166
f 169 170 168
f 173 172 171
f 173 171 156
f 156 171 155
f 171 40 155
f 40 41 155
f 155 41 42
f 155 42 157
f 157 42 44
f 157 44 159
f 159 44 46
f 159 46 161
f 161 46 48
f 161 48 163
f 163 48 50
f 163 50 165
f 165 50 52
f 165 52 167
f 167 52 54
f 167 54 169
f 174 170 169
f 54 174 169
f 56 174 54
f 175 56 58
f 175 174 56
f 177 176 60
f 176 58 60
f 176 175 58
f 179 178 177
f 177 178 176
f 179 180 178
f 171 172 181
f 181 172 182
f 181 62 40
f 181 40 171
f 72 177 60
f 177 72 74
f 177 74 179
f 183 180 179
f 74 183 179
f 76 183 74
f 185 184 78
f 184 76 78
f 184 183 76
f 185 186 184
f 181 182 187
f 187 182 188
f 187 80 62
f 187 62 181
f 91 185 78
f 91 93 185
f 93 186 185
f 93 189 186
f 188 190 187
f 190 192 191
f 190 191 94
f 187 190 94
f 80 187 94
f 191 96 94
f 193 189 93
f 193 93 105
f 105 107 193
f 193 107 194
f 191 192 195
f 195 192 196
f 197 108 96
f 191 197 96
f 195 197 191
f 198 109 108
f 198 108 197
f 198 111 109
f 119 194 107
f 119 199 194
f 196 200 195
f 195 200 197
f 197 200 201
f 197 201 198
f 198 201 202
f 198 202 111
f 202 120 111
f 202 203 120
f 120 204 121
f 203 204 120
f 204 206 205
f 122 204 205
f 121 204 122
f 207 123 122
f 207 122 205
f 208 124 123
f 208 123 207
f 209 125 124
f 209 124 208
f 210 126 125
f 210 125 209
f 210 128 126
f 129 199 119
f 129 211 199
f 206 212 205
f 205 212 207
f 207 212 213
f 207 213 208
f 208 213 214
f 208 214 209
f 209 214 215
f 209 215 210
f 210 215 216
f 210 216 128
f 216 130 128
f 216 217 130
f 132 130 217
f 132 217 218
f 136 211 129
f 136 219 211
f 218 220 132
f 132 220 137
f 137 221 138
f 220 221 137
f 138 222 139
f 221 222 138
f 139 223 140
f 222 223 139
f 136 140 219
f 219 140 223
f 226 225 224
f 142 143 224
f 143 226 224
f 143 227 226
f 228 143 144
f 228 227 143
f 230 229 146
f 229 144 146
f 229 228 144
f 230 231 229
f 224 225 232
f 232 225 233
f 234 147 142
f 224 234 142
f 232 234 224
f 235 148 147
f 235 147 234
f 230 146 148
f 235 230 148
f 236 230 235
f 231 230 237
f 237 230 236
f 232 233 238
f 238 233 239
f 232 240 234
f 232 238 240
f 234 241 235
f 234 240 241
f 235 242 236
f 235 241 242
f 237 236 243
f 243 236 242
f 238 239 244
f 244 239 245
f 238 246 240
f 238 244 246
f 240 247 241
f 240 246 247
f 241 248 242
f 241 247 248
f 243 242 249
f 249 242 248
f 244 245 250
f 250 245 251
f 244 252 246
f 244 250 252
f 246 253 247
f 246 252 253
f 247 254 248
f 247 253 254
f 249 248 255
f 255 248 254
f 250 251 256
f 256 251 257
f 250 258 252
f 250 256 258
f 252 259 253
f 252 258 259
f 253 260 254
f 253 259 260
f 255 254 261
f 261 254 260
f 256 257 262
f 262 257 263
f 256 264 258
f 256 262 264
f 258 265 259
f 258 264 265
f 259 266 260
f 259 265 266
f 261 260 267
f 267 260 266
f 262 263 268
f 268 263 269
f 268 150 151
f 264 268 151
f 262 268 264
f 264 151 152
f 264 152 265
f 265 152 154
f 270 265 154
f 266 265 270
f 267 266 271
f 271 266 270
f 268 269 272
f 272 269 273
f 272 156 150
f 272 150 268
f 158 270 154
f 274 271 270
f 158 274 270
f 160 274 158
f 275 160 162
f 275 274 160
f 276 162 164
f 276 275 162
f 277 164 166
f 277 276 164
f 278 166 168
f 278 277 166
f 280 279 170
f 279 168 170
f 279 278 168
f 282 281 280
f 280 281 279
f 282 283 281
f 272 273 173
f 273 172 173
f 273 284 172
f 272 173 156
f 174 280 170
f 280 174 175
f 280 175 282
f 285 283 282
f 175 285 282
f 176 285 175
f 286 176 178
f 286 285 176
f 288 287 180
f 287 178 180
f 287 286 178
f 288 289 287
f 284 182 172
f 290 182 284
f 183 288 180
f 291 289 288
f 183 291 288
f 184 291 183
f 184 186 291
f 291 186 292
f 290 188 182
f 293 188 290
f 189 292 186
f 189 294 292
f 190 188 295
f 188 296 295
f 188 293 296
f 295 192 190
f 297 294 189
f 297 189 193
f 193 194 297
f 297 194 298
f 296 299 295
f 192 295 299
f 300 192 299
f 196 192 300
f 199 298 194
f 199 301 298
f 300 302 196
f 196 302 200
f 302 304 303
f 201 302 303
f 200 302 201
f 305 202 201
f 305 201 303
f 306 203 202
f 306 202 305
f 307 204 203
f 307 203 306
f 307 206 204
f 211 301 199
f 211 308 301
f 304 309 303
f 303 309 305
f 305 309 310
f 305 310 306
f 306 310 311
f 306 311 307
f 307 311 312
f 307 312 206
f 312 212 206
f 312 313 212
f 212 314 213
f 313 314 212
f 213 315 214
f 314 315 213
f 214 316 215
f 315 316 214
f 215 317 216
f 316 317 215
f 317 319 318
f 217 317 318
f 216 317 217
f 318 218 217
f 219 308 211
f 219 320 308
f 319 321 318
f 321 323 322
f 321 322 220
f 318 321 220
f 218 318 220
f 324 221 220
f 324 220 322
f 325 222 221
f 325 221 324
f 326 223 222
f 326 222 325
f 326 327 223
f 327 219 223
f 327 320 219
f 323 328 322
f 322 328 324
f 324 328 329
f 324 329 325
f 325 329 330
f 325 330 326
f 326 330 331
f 326 331 327
f 333 332 226
f 226 332 225
f 334 226 227
f 334 333 226
f 335 227 228
f 335 334 227
f 336 228 229
f 336 335 228
f 229 231 336
f 336 231 337
f 332 233 225
f 338 233 332
f 237 337 231
f 237 339 337
f 338 239 233
f 340 239 338
f 243 339 237
f 243 341 339
f 340 245 239
f 342 245 340
f 249 341 243
f 249 343 341
f 342 251 245
f 344 251 342
f 255 343 249
f 255 345 343
f 344 257 251
f 346 257 344
f 261 345 255
f 261 347 345
f 346 263 257
f 348 263 346
f 267 347 261
f 267 349 347
f 348 269 263
f 350 269 348
f 271 349 267
f 271 351 349
f 350 273 269
f 352 273 350
f 353 351 271
f 353 271 274
f 354 274 275
f 354 353 274
f 355 275 276
f 355 354 275
f 356 276 277
f 356 355 276
f 357 277 278
f 357 356 277
f 358 278 279
f 358 357 278
f 359 279 281
f 359 358 279
f 361 360 283
f 360 281 283
f 360 359 281
f 361 362 360
f 352 284 273
f 363 284 352
f 285 361 283
f 364 362 361
f 285 364 361
f 286 364 285
f 365 286 287
f 365 364 286
f 287 289 365
f 365 289 366
f 363 290 284
f 367 290 363
f 368 366 289
f 368 289 291
f 291 292 368
f 368 292 369
f 367 293 290
f 370 293 367
f 294 369 292
f 294 371 369
f 370 296 293
f 372 296 370
f 373 371 294
f 373 294 297
f 297 298 373
f 373 298 374
f 372 375 296
f 296 375 299
f 300 299 375
f 300 375 376
f 301 374 298
f 301 377 374
f 376 378 300
f 300 378 302
f 304 302 378
f 304 378 379
f 308 377 301
f 308 380 377
f 379 381 304
f 304 381 309
f 309 382 310
f 381 382 309
f 310 383 311
f 382 383 310
f 311 384 312
f 383 384 311
f 312 385 313
f 384 385 312
f 313 386 314
f 385 386 313
f 314 387 315
f 386 387 314
f 315 388 316
f 387 388 315
f 388 390 389
f 317 388 389
f 316 388 317
f 389 319 317
f 320 380 308
f 320 391 380
f 390 392 389
f 389 392 319
f 392 321 319
f 392 393 321
f 323 321 393
f 323 393 394
f 327 391 320
f 327 395 391
f 394 396 323
f 323 396 328
f 396 398 397
f 329 396 397
f 328 396 329
f 399 330 329
f 399 329 397
f 330 399 400
f 401 330 400
f 331 330 401
f 327 331 395
f 395 331 401
f 398 402 397
f 397 402 399
f 399 402 403
f 399 403 400
f 405 404 333
f 333 404 332
f 406 333 334
f 406 405 333
f 407 334 335
f 407 406 334
f 408 335 336
f 408 407 335
f 336 337 408
f 408 337 409
f 404 338 332
f 410 338 404
f 339 409 337
f 339 411 409
f 410 340 338
f 412 340 410
f 341 411 339
f 341 413 411
f 412 342 340
f 414 342 412
f 343 413 341
f 343 415 413
f 414 344 342
f 416 344 414
f 345 415 343
f 345 417 415
f 416 346 344
f 418 346 416
f 347 417 345
f 347 419 417
f 418 348 346
f 420 348 418
f 349 419 347
f 349 421 419
f 420 350 348
f 422 350 420
f 351 421 349
f 351 423 421
f 422 352 350
f 424 352 422
f 425 423 351
f 425 351 353
f 426 353 354
f 426 425 353
f 427 354 355
f 427 426 354
f 428 355 356
f 428 427 355
f 429 356 357
f 429 428 356
f 430 357 358
f 430 429 357
f 431 358 359
f 431 430 358
f 433 431 432
f 431 360 432
f 431 359 360
f 362 432 360
f 424 363 352
f 434 363 424
f 435 433 432
f 435 432 362
f 364 435 362
f 436 435 364
f 438 436 437
f 436 365 437
f 436 364 365
f 366 437 365
f 434 367 363
f 439 367 434
f 440 438 437
f 442 440 441
f 441 440 368
f 440 437 368
f 437 366 368
f 369 441 368
f 439 370 367
f 443 370 439
f 444 442 441
f 441 369 444
f 369 445 444
f 369 371 445
f 443 372 370
f 446 372 443
f 371 373 447
f 448 371 447
f 445 371 448
f 374 447 373
f 446 449 372
f 372 449 375
f 376 375 449
f 376 449 450
f 448 447 451
f 448 451 452
f 377 451 374
f 374 451 447
f 450 453 376
f 376 453 378
f 379 378 453
f 379 453 454
f 452 451 455
f 452 455 456
f 380 455 377
f 377 455 451
f 454 457 379
f 379 457 381
f 381 458 382
f 457 458 381
f 382 459 383
f 458 459 382
f 383 460 384
f 459 460 383
f 384 461 385
f 460 461 384
f 385 462 386
f 461 462 385
f 386 463 387
f 462 463 386
f 387 464 388
f 463 464 387
f 466 465 390
f 388 466 390
f 464 466 388
f 467 465 466
f 456 455 468
f 456 468 469
f 391 468 380
f 380 468 455
f 465 392 390
f 467 470 465
f 470 392 465
f 470 393 392
f 472 471 394
f 393 472 394
f 470 472 393
f 473 471 472
f 469 468 474
f 469 474 475
f 395 474 391
f 391 474 468
f 471 396 394
f 477 476 398
f 477 398 396
f 473 477 396
f 471 473 396
f 479 478 476
f 479 476 477
f 478 479 475
f 478 475 474
f 400 478 474
f 401 400 474
f 401 474 395
f 476 402 398
f 402 476 403
f 403 476 478
f 403 478 400
f 481 480 405
f 405 480 404
f 482 405 406
f 482 481 405
f 483 406 407
f 483 482 406
f 484 407 408
f 484 483 407
f 408 409 484
f 484 409 485
f 480 410 404
f 486 410 480
f 411 485 409
f 411 487 485
f 486 412 410
f 488 412 486
f 413 487 411
f 413 489 487
f 488 414 412
f 490 414 488
f 415 489 413
f 415 491 489
f 490 416 414
f 492 416 490
f 417 491 415
f 417 493 491
f 492 418 416
f 494 418 492
f 419 493 417
f 419 495 493
f 494 420 418
f 496 420 494
f 421 495 419
f 421 497 495
f 496 422 420
f 498 422 496
f 423 497 421
f 423 499 497
f 498 424 422
f 500 424 498
f 501 499 423
f 501 423 425
f 502 425 426
f 502 501 425
f 503 426 427
f 503 502 426
f 504 427 428
f 504 503 427
f 505 428 429
f 505 504 428
f 507 505 506
f 505 430 506
f 505 429 430
f 431 508 430
f 430 508 506
f 433 508 431
f 500 434 424
f 509 434 500
f 510 507 506
f 510 506 508
f 510 508 511
f 511 508 433
f 435 511 433
f 512 511 435
f 514 512 513
f 512 436 513
f 512 435 436
f 438 513 436
f 509 439 434
f 515 439 509
f 516 514 513
f 518 516 517
f 517 516 440
f 516 513 440
f 513 438 440
f 442 517 440
f 515 443 439
f 519 443 515
f 520 518 517
f 522 520 521
f 521 520 444
f 520 517 444
f 517 442 444
f 445 521 444
f 519 446 443
f 523 446 519
f 522 521 524
f 522 524 525
f 448 524 445
f 445 524 521
f 523 526 446
f 446 526 449
f 450 449 526
f 450 526 527
f 528 525 524
f 524 448 528
f 448 529 528
f 448 452 529
f 527 530 450
f 450 530 453
f 532 531 454
f 453 532 454
f 530 532 453
f 534 533 531
f 534 531 532
f 536 535 533
f 536 533 534
f 538 537 535
f 538 535 536
f 540 539 537
f 540 537 538
f 541 539 540
f 544 543 542
f 543 529 542
f 529 456 542
f 529 452 456
f 531 457 454
f 457 531 458
f 458 531 533
f 458 533 459
f 459 533 535
f 459 535 460
f 460 535 537
f 460 537 461
f 461 537 539
f 541 545 539
f 545 461 539
f 545 462 461
f 462 546 463
f 545 546 462
f 463 547 464
f 546 547 463
f 464 548 466
f 547 548 464
f 550 549 467
f 466 550 467
f 548 550 466
f 552 551 549
f 552 549 550
f 554 553 551
f 554 551 552
f 553 554 544
f 542 553 544
f 555 553 542
f 469 555 456
f 456 555 542
f 549 470 467
f 470 549 472
f 472 549 551
f 472 551 473
f 551 556 473
f 551 553 556
f 557 553 555
f 556 553 557
f 475 557 469
f 469 557 555
f 556 477 473
f 477 556 479
f 479 556 557
f 479 557 475
f 559 558 481
f 481 558 480
f 560 481 482
f 560 559 481
f 561 482 483
f 561 560 482
f 562 483 484
f 562 561 483
f 484 485 562
f 562 485 563
f 558 486 480
f 564 486 558
f 487 563 485
f 487 565 563
f 564 488 486
f 566 488 564
f 489 565 487
f 489 567 565
f 566 490 488
f 568 490 566
f 491 567 489
f 491 569 567
f 568 492 490
f 570 492 568
f 493 569 491
f 493 571 569
f 570 494 492
f 572 494 570
f 495 571 493
f 495 573 571
f 572 496 494
f 574 496 572
f 497 573 495
f 497 575 573
f 574 498 496
f 576 498 574
f 499 575 497
f 499 577 575
f 576 500 498
f 578 500 576
f 499 501 579
f 580 499 579
f 577 499 580
f 502 581 501
f 501 581 579
f 503 582 502
f 502 582 581
f 504 583 503
f 503 583 582
f 505 584 504
f 504 584 583
f 507 584 505
f 578 509 500
f 585 509 578
f 586 580 579
f 586 579 581
f 586 581 587
f 587 581 582
f 587 582 588
f 588 582 583
f 588 583 589
f 591 590 589
f 583 591 589
f 584 591 583
f 510 592 507
f 592 584 507
f 592 591 584
f 511 593 510
f 510 593 592
f 512 594 511
f 511 594 593
f 514 594 512
f 585 515 509
f 595 515 585
f 596 590 591
f 596 591 592
f 596 592 597
f 597 592 593
f 597 593 598
f 600 599 598
f 593 600 598
f 594 600 593
f 516 601 514
f 601 594 514
f 601 600 594
f 518 601 516
f 595 519 515
f 602 519 595
f 603 599 600
f 605 604 603
f 600 605 603
f 601 605 600
f 520 606 518
f 606 601 518
f 606 605 601
f 522 606 520
f 608 523 607
f 523 602 607
f 523 519 602
f 609 608 607
f 610 604 605
f 612 611 610
f 605 612 610
f 606 612 605
f 525 612 522
f 522 612 606
f 608 526 523
f 614 613 527
f 614 527 526
f 609 614 526
f 608 609 526
f 616 615 613
f 616 613 614
f 618 617 615
f 618 615 616
f 620 619 617
f 620 617 618
f 622 621 619
f 622 619 620
f 624 623 621
f 624 621 622
f 625 623 624
f 628 627 626
f 626 627 611
f 612 626 611
f 629 626 612
f 528 630 525
f 630 612 525
f 630 629 612
f 529 630 528
f 613 530 527
f 530 613 532
f 532 613 615
f 532 615 534
f 534 615 617
f 534 617 536
f 536 617 619
f 536 619 538
f 538 619 621
f 538 621 540
f 540 621 623
f 632 631 541
f 632 541 540
f 625 632 540
f 623 625 540
f 634 633 631
f 634 631 632
f 636 635 633
f 636 633 634
f 638 637 635
f 638 635 636
f 640 639 637
f 640 637 638
f 639 640 628
f 626 639 628
f 641 639 626
f 642 626 629
f 641 626 642
f 544 642 543
f 642 630 543
f 642 629 630
f 543 630 529
f 631 545 541
f 545 631 546
f 546 631 633
f 546 633 547
f 547 633 635
f 547 635 548
f 548 635 637
f 548 637 550
f 550 637 639
f 550 639 552
f 552 639 641
f 552 641 554
f 554 641 642
f 554 642 544
f 645 644 643
f 647 646 643
f 643 646 645
f 649 648 647
f 647 648 646
f 651 650 649
f 649 650 648
f 651 652 650
f 643 644 559
f 644 558 559
f 644 653 558
f 643 559 560
f 643 560 647
f 647 560 561
f 647 561 649
f 649 561 562
f 649 562 651
f 562 563 651
f 563 652 651
f 563 654 652
f 653 564 558
f 655 564 653
f 565 654 563
f 565 656 654
f 655 566 564
f 657 566 655
f 567 656 565
f 567 658 656
f 657 568 566
f 659 568 657
f 569 658 567
f 569 660 658
f 659 570 568
f 661 570 659
f 571 660 569
f 571 662 660
f 661 572 570
f 663 572 661
f 573 662 571
f 573 664 662
f 663 574 572
f 665 574 663
f 575 664 573
f 575 666 664
f 665 576 574
f 667 576 665
f 577 666 575
f 577 668 666
f 667 578 576
f 669 578 667
f 580 668 577
f 580 670 668
f 669 585 578
f 671 585 669
f 580 586 672
f 673 580 672
f 670 580 673
f 587 674 586
f 586 674 672
f 588 675 587
f 587 675 674
f 589 676 588
f 588 676 675
f 590 676 589
f 678 595 677
f 595 671 677
f 595 585 671
f 679 678 677
f 682 681 680
f 680 681 673
f 672 680 673
f 683 680 672
f 684 672 674
f 683 672 684
f 685 674 675
f 684 674 685
f 686 675 676
f 685 675 686
f 596 687 590
f 687 676 590
f 687 686 676
f 597 688 596
f 596 688 687
f 598 689 597
f 597 689 688
f 599 689 598
f 690 602 678
f 678 602 595
f 678 679 691
f 678 691 690
f 682 680 692
f 682 692 693
f 694 680 683
f 692 680 694
f 695 683 684
f 694 683 695
f 696 684 685
f 695 684 696
f 697 685 686
f 696 685 697
f 698 686 687
f 697 686 698
f 699 687 688
f 698 687 699
f 700 688 689
f 699 688 700
f 603 701 599
f 701 689 599
f 701 700 689
f 604 701 603
f 690 607 602
f 703 702 609
f 703 609 607
f 691 703 607
f 690 691 607
f 705 704 702
f 705 702 703
f 704 705 693
f 692 704 693
f 706 704 692
f 707 692 694
f 706 692 707
f 708 694 695
f 707 694 708
f 709 695 696
f 708 695 709
f 710 696 697
f 709 696 710
f 711 697 698
f 710 697 711
f 712 698 699
f 711 698 712
f 713 699 700
f 712 699 713
f 714 700 701
f 713 700 714
f 610 715 604
f 715 701 604
f 715 714 701
f 611 715 610
f 702 614 609
f 614 702 616
f 616 702 704
f 616 704 618
f 618 704 706
f 618 706 620
f 620 706 707
f 620 707 622
f 622 707 708
f 622 708 624
f 624 708 709
f 624 709 625
f 709 716 625
f 709 710 716
f 717 710 711
f 716 710 717
f 718 711 712
f 717 711 718
f 719 712 713
f 718 712 719
f 720 713 714
f 719 713 720
f 628 720 627
f 720 715 627
f 720 714 715
f 627 715 611
f 716 632 625
f 632 716 634
f 634 716 717
f 634 717 636
f 636 717 718
f 636 718 638
f 638 718 719
f 638 719 640
f 640 719 720
f 640 720 628
f 721 644 645
f 721 645 722
f 645 723 722
f 645 646 723
f 724 646 648
f 724 723 646
f 726 724 725
f 724 650 725
f 724 648 650
f 652 725 650
f 727 653 721
f 721 653 644
f 721 722 728
f 721 728 727
f 726 725 729
f 726 729 730
f 654 729 652
f 652 729 725
f 731 655 727
f 727 655 653
f 727 728 732
f 727 732 731
f 730 729 733
f 730 733 734
f 656 733 654
f 654 733 729
f 735 657 731
f 731 657 655
f 731 732 736
f 731 736 735
f 734 733 737
f 734 737 738
f 658 737 656
f 656 737 733
f 739 659 735
f 735 659 657
f 735 736 740
f 735 740 739
f 738 737 741
f 738 741 742
f 660 741 658
f 658 741 737
f 743 661 739
f 739 661 659
f 739 740 744
f 739 744 743
f 742 741 745
f 742 745 746
f 662 745 660
f 660 745 741
f 747 663 743
f 743 663 661
f 743 744 748
f 743 748 747
f 746 745 749
f 746 749 750
f 664 749 662
f 662 749 745
f 751 665 747
f 747 665 663
f 747 748 752
f 747 752 751
f 750 749 753
f 750 753 754
f 666 753 664
f 664 753 749
f 755 667 751
f 751 667 665
f 751 752 756
f 751 756 755
f 754 753 757
f 754 757 758
f 668 757 666
f 666 757 753
f 759 669 755
f 755 669 667
f 755 756 760
f 755 760 759
f 758 757 761
f 758 761 762
f 670 761 668
f 668 761 757
f 763 671 759
f 759 671 669
f 759 760 764
f 765 759 764
f 763 759 765
f 767 766 765
f 767 765 764
f 766 767 762
f 761 766 762
f 768 766 761
f 673 768 670
f 670 768 761
f 763 677 671
f 677 763 679
f 763 769 679
f 763 765 769
f 770 765 766
f 769 765 770
f 682 770 681
f 770 768 681
f 770 766 768
f 681 768 673
f 771 691 769
f 769 691 679
f 772 769 770
f 771 769 772
f 693 772 682
f 682 772 770
f 771 703 691
f 703 771 705
f 705 771 772
f 705 772 693
f 773 722 723
f 724 774 723
f 723 774 773
f 726 774 724
f 775 728 773
f 773 728 722
f 776 773 774
f 775 773 776
f 730 776 726
f 726 776 774
f 777 732 775
f 775 732 728
f 778 775 776
f 777 775 778
f 734 778 730
f 730 778 776
f 779 736 777
f 777 736 732
f 780 777 778
f 779 777 780
f 738 780 734
f 734 780 778
f 781 740 779
f 779 740 736
f 782 779 780
f 781 779 782
f 742 782 738
f 738 782 780
f 783 744 781
f 781 744 740
f 784 781 782
f 783 781 784
f 746 784 742
f 742 784 782
f 785 748 783
f 783 748 744
f 786 783 784
f 785 783 786
f 750 786 746
f 746 786 784
f 787 752 785
f 785 752 748
f 788 785 786
f 787 785 788
f 754 788 750
f 750 788 786
f 789 756 787
f 787 756 752
f 790 787 788
f 789 787 790
f 758 790 754
f 754 790 788
f 791 760 789
f 789 760 756
f 792 789 790
f 791 789 792
f 762 792 758
f 758 792 790
f 791 764 760
f 764 791 767
f 767 791 792
f 767 792 762
# 1580 faces, 0 coords texture

# End of File