####
#
# OBJ File Generated by Meshlab
#
####
# Object domain122.obj
#
# Vertices: 563
# Faces: 1126
#
####
v 130.144394 403.249725 122.463867
v 143.740692 425.391144 136.504578
v 140.930450 419.269287 136.593048
v 145.551620 421.339203 129.064804
v 134.265305 429.198212 121.763985
v 133.474533 406.889343 131.993286
v 142.059387 404.795349 125.833321
v 130.954041 407.273254 128.374313
v 143.331467 421.355652 126.180519
v 143.801117 403.019897 130.238602
v 136.287338 403.848541 121.113243
v 136.540619 428.530701 133.473495
v 142.907730 425.495270 137.461899
v 139.572266 421.691833 123.890007
v 132.164230 403.105957 124.486115
v 128.525131 423.387207 122.586655
v 129.740097 427.486084 125.063316
v 133.145599 427.719299 133.220581
v 145.356903 421.330780 131.230759
v 129.587479 415.474518 125.166908
v 134.487137 402.926300 124.500710
v 140.047256 411.631683 123.509918
v 128.961945 416.920593 119.900818
v 136.576706 407.295166 134.237915
v 136.567688 404.755859 133.668030
v 130.935287 403.914734 126.252762
v 134.534027 428.662445 131.451843
v 138.589005 404.758636 133.806259
v 133.101059 428.131165 131.148941
v 138.873840 417.317627 122.356590
v 131.587051 411.368805 129.667923
v 134.434814 421.316467 119.788605
v 135.711044 419.221619 120.056755
v 140.932465 407.281738 134.398499
v 130.448090 415.463531 126.729309
v 138.576889 428.949158 128.975220
v 138.479492 428.801239 126.789787
v 145.774689 416.650055 128.904205
v 138.587830 402.885742 126.502838
v 134.493073 402.836914 130.053375
v 134.546051 428.278809 133.409149
v 142.990967 404.623108 133.541061
v 130.552017 419.285583 126.575119
v 132.420166 427.335205 131.109528
v 133.138565 425.401764 135.080963
v 132.142929 425.424866 119.769485
v 127.189911 411.860504 120.675880
v 143.661118 411.366699 129.062088
v 140.930237 402.688477 128.807953
v 134.501740 429.840271 124.497421
v 134.339111 407.265686 118.989342
v 129.304657 409.301788 124.997856
v 140.903992 407.285004 124.670296
v 136.573929 409.314484 134.446487
v 132.603531 411.421478 131.422455
v 142.950455 427.006592 137.308487
v 130.171188 405.615479 118.222954
v 134.462143 419.275513 119.662567
v 134.488052 402.832489 128.804337
v 137.741302 407.241455 121.470314
v 140.934860 402.546417 130.037323
v 138.867523 407.237305 122.544449
v 142.939575 402.668488 131.480408
v 129.063721 423.363251 120.216461
v 140.685745 417.175781 123.588242
v 130.970062 411.264587 128.399902
v 138.559662 417.282440 136.251526
v 135.616638 407.360748 119.652542
v 138.625671 416.327637 136.049011
v 142.898453 419.309357 136.334961
v 133.919327 421.137970 135.616302
v 130.129333 409.316467 118.750122
v 143.539291 428.046997 131.554993
v 128.338745 407.189606 119.344894
v 132.340149 415.422546 131.247116
v 128.642334 411.299927 119.432686
v 132.104111 403.483917 118.685333
v 138.590347 405.920349 134.151810
v 132.644592 407.416779 130.974411
v 145.319550 419.291656 131.226181
v 143.514313 406.068848 133.736450
v 132.484741 428.474701 128.732620
v 135.351685 411.481995 134.317642
v 129.479141 411.371094 125.204323
v 132.137070 429.860657 122.513397
v 134.513214 429.086670 128.973419
v 132.540756 425.591125 133.280960
v 129.301071 407.268890 125.000000
v 138.884033 409.329010 122.606216
v 128.714676 427.449677 122.628326
v 142.691299 426.808624 137.699493
v 137.705215 428.787140 125.002258
v 144.359421 425.347107 129.242340
v 142.983734 417.293640 136.049942
v 138.586700 428.847717 131.486359
v 132.327896 417.140228 131.269897
v 133.614990 416.706207 133.862396
v 131.176407 427.475586 127.929886
v 129.000031 417.231628 124.073883
v 136.474457 405.805206 134.028931
v 132.147110 403.002502 122.498520
v 145.792770 416.760834 128.840881
v 131.508423 403.981476 127.974976
v 136.490036 421.356262 120.814735
v 144.313934 421.339966 135.326859
v 143.791061 415.737122 134.724136
v 133.160110 403.738098 118.451378
v 134.488632 402.888580 126.499794
v 135.732864 405.882324 133.785156
v 127.493423 409.816833 120.347366
v 143.562424 407.271271 133.826828
v 131.007080 417.591797 127.601433
v 137.842026 415.474304 121.386009
v 144.342255 423.405945 135.364288
v 138.582870 402.953339 132.611053
v 132.888885 426.182159 120.117081
v 140.922607 428.117676 135.144150
v 143.735001 419.329163 135.903641
v 143.682251 405.292358 133.120880
v 135.435745 407.314911 133.863205
v 135.106903 413.518524 134.575165
v 142.791306 405.342987 126.775322
v 143.829086 416.911377 126.027893
v 131.631073 407.287323 129.593552
v 132.149750 423.372650 131.513031
v 130.091705 429.748932 121.385208
v 137.651291 419.270660 121.551598
v 136.892563 417.297546 120.648643
v 145.552246 419.354126 129.095734
v 139.190170 403.249908 122.279236
v 128.006836 405.258881 122.871750
v 129.202774 425.151154 120.218040
v 138.589249 407.282745 134.399551
v 129.027893 423.384949 124.058601
v 128.974121 415.473297 124.090721
v 135.871506 427.150452 121.708275
v 135.338608 409.427643 134.002045
v 143.658997 403.089325 128.140793
v 140.569901 403.886963 124.861145
v 127.663940 403.269745 118.181641
v 127.340767 405.228668 120.492401
v 140.328293 418.954376 123.635880
v 144.910843 421.334808 133.472900
v 133.521957 421.518341 135.161270
v 135.113403 424.129852 120.405289
v 130.085831 407.270050 126.504578
v 145.394897 422.534821 129.510559
v 143.764145 403.236023 132.578735
v 127.938141 407.264771 122.931252
v 131.749039 427.396454 129.067062
v 136.542511 402.548401 130.040009
v 142.905396 421.274353 136.568878
v 135.354813 417.278168 135.918228
v 145.713959 416.432251 128.957474
v 145.443741 418.456055 128.301605
v 129.392426 428.961273 123.647690
v 134.337341 411.346649 119.065788
v 138.045807 405.095428 121.611603
v 139.273346 423.578430 124.254570
v 128.425369 417.222076 122.598610
v 144.635040 425.268982 133.338089
v 135.557266 428.665771 122.110008
v 130.498978 417.250214 126.604553
v 142.534821 409.383667 126.835205
v 140.845123 425.457184 137.799774
v 132.814850 427.265106 133.284119
v 129.615128 425.433868 125.152451
v 128.484009 419.278778 122.595512
v 142.943848 405.663361 133.931915
v 142.855927 413.504456 134.968231
v 143.018051 423.389587 126.665504
v 132.239044 403.318542 126.466049
v 140.932159 413.451752 135.313873
v 130.136414 423.381226 119.767334
v 133.797760 413.321655 133.353058
v 134.494751 407.341064 133.112091
v 138.803864 415.477661 122.197258
v 142.905060 427.351807 128.971588
v 137.546814 421.356659 121.905869
v 127.466415 405.242523 121.803055
v 128.466064 409.236938 119.425552
v 134.334030 409.317657 119.031784
v 131.528351 425.399475 129.324585
v 131.495056 426.433197 119.947754
v 130.072952 403.870117 118.296227
v 145.760208 416.695038 128.818420
v 129.643997 423.384705 125.135391
v 138.588669 402.621033 128.798355
v 143.662537 405.382202 128.710312
v 143.898941 402.990082 131.461700
v 142.233688 422.389038 125.837616
v 138.589111 402.586151 131.468689
v 136.971985 411.311310 120.658882
v 130.163162 413.397491 118.934151
v 143.912567 409.363464 131.460403
v 133.903168 424.904633 120.049507
v 132.142792 427.477020 120.405991
v 129.653168 419.282867 125.129051
v 143.421127 411.725464 134.254669
v 135.028717 402.880737 131.399170
v 132.134644 403.099060 120.521835
v 138.497726 421.217285 122.909927
v 140.938217 402.947510 132.618546
v 128.631302 423.374268 120.873413
v 142.739258 417.298401 124.968201
v 137.106750 425.563629 122.416649
v 127.485809 404.480347 119.197021
v 140.934143 417.304138 136.220764
v 136.517593 403.253906 122.545166
v 144.198654 413.871429 129.087860
v 143.835983 423.341309 136.226273
v 131.481964 415.485901 129.161240
v 132.144699 419.284088 119.452522
v 130.205521 417.000519 119.364479
v 137.796265 411.333954 121.426224
v 132.130737 429.938751 123.486259
v 133.752487 405.242279 131.753937
v 140.937805 421.250305 124.760628
v 130.280365 411.307007 126.799141
v 130.297134 429.071747 124.540558
v 133.763641 415.462372 133.754929
v 136.536987 417.282837 136.255844
v 131.115860 405.269653 128.276245
v 136.742599 427.523224 122.658852
v 134.061142 419.212585 135.169937
v 132.180801 415.437927 119.026581
v 143.873230 418.587372 125.895187
v 140.932755 416.354492 135.994675
v 135.561798 421.192413 120.188492
v 143.468094 409.199951 128.946259
v 130.090210 403.479736 118.716660
v 130.397690 413.428314 126.870628
v 133.029541 417.341156 132.908875
v 129.627991 417.231567 125.146263
v 132.511185 403.559418 128.984482
v 144.287704 425.346649 135.233688
v 143.681351 417.566620 135.756210
v 135.500870 405.229919 119.618576
v 140.967285 425.584167 126.225639
v 130.176376 426.421539 119.984138
v 133.567978 420.215820 134.873749
v 127.184105 411.986725 120.693863
v 140.759903 427.349152 127.070465
v 136.548859 428.114166 135.140610
v 144.298615 415.434021 133.211914
v 130.560364 421.333221 126.570084
v 130.458389 425.441376 126.681427
v 138.588577 425.596313 137.714661
v 127.621643 403.916779 120.490280
v 143.658188 415.241486 126.458336
v 135.258621 403.924194 119.753456
v 138.589142 423.398926 137.404266
v 144.691391 415.505219 131.112900
v 138.569366 403.155426 124.529808
v 130.068207 427.473450 120.452705
v 144.085236 406.918121 131.721176
v 130.171982 429.702209 123.313835
v 134.010101 411.353516 133.232895
v 128.785400 407.271790 124.206375
v 136.494110 421.276093 136.867355
v 144.705978 419.343994 126.911125
v 132.136383 423.377655 119.654999
v 140.932861 402.579376 131.469147
v 145.164322 423.268707 131.301971
v 143.785126 424.600220 127.864746
v 130.125732 429.909851 122.456001
v 142.879440 409.338165 134.293564
v 140.913727 409.294586 124.667824
v 130.929962 409.333313 128.395630
v 140.897980 427.327576 137.142014
v 138.776657 413.408936 122.227394
v 127.423683 409.317627 121.817795
v 144.043457 427.303467 133.483368
v 130.151031 415.354858 119.125725
v 134.414383 403.372406 120.591354
v 141.025925 405.356598 124.645401
v 132.631393 409.336182 131.264389
v 128.852066 411.373779 124.165504
v 140.930817 409.308655 134.622452
v 133.073883 415.555359 132.703430
v 130.103409 404.515625 118.084457
v 138.589478 421.285553 137.012650
v 136.987213 413.424988 120.619362
v 135.973770 415.463989 119.976013
v 136.244064 423.323303 121.011292
v 129.019516 421.327942 120.196701
v 131.889328 405.187286 129.425491
v 142.918381 428.264221 133.441772
v 128.578705 404.368927 118.299988
v 137.808105 417.233521 121.418755
v 144.418320 414.933746 132.042557
v 143.154724 413.305573 126.638725
v 144.079895 427.265106 131.272476
v 134.187988 409.347565 133.122726
v 142.783310 425.349976 127.261208
v 142.110397 413.776733 125.002625
v 143.476501 409.388153 133.846252
v 128.131958 405.280731 118.901802
v 139.195984 403.254608 122.272415
v 131.025131 413.239044 128.329865
v 129.134964 427.461060 124.003548
v 134.465500 417.226929 119.527534
v 136.606827 427.309052 137.114380
v 127.897179 411.390320 122.609894
v 136.530701 416.261993 136.041214
v 135.248932 403.386200 132.545563
v 133.780167 425.441772 136.698532
v 137.600174 427.456970 123.579620
v 132.733429 405.286255 130.652817
v 140.811035 404.659515 133.788376
v 137.733963 409.280182 121.485893
v 131.560867 423.415192 129.144073
v 138.588821 419.259521 136.650940
v 132.990128 419.287140 133.214066
v 139.407608 427.829681 126.087250
v 144.996750 423.453278 128.943619
v 144.013062 413.436737 133.161118
v 142.459564 407.257568 126.676270
v 131.089890 424.282898 127.952591
v 142.974503 402.936462 132.618271
v 138.591019 403.382050 133.096252
v 144.257523 413.886566 130.479645
v 133.184113 413.627594 132.615234
v 132.793335 421.389069 133.325760
v 132.645477 423.369934 133.328415
v 135.441879 403.046478 132.455887
v 145.209915 422.041565 128.380798
v 143.948807 404.830902 129.533752
v 143.442184 413.542175 134.529419
v 142.844452 419.296082 125.235229
v 141.578995 424.016846 126.034760
v 140.572021 415.458344 123.528992
v 142.921326 416.441040 135.801514
v 132.094711 425.538513 131.371765
v 134.096710 403.815338 118.864418
v 143.823563 426.959625 135.188980
v 139.040863 405.322693 122.525818
v 142.642151 426.212311 137.857849
v 131.022446 423.051819 127.596741
v 140.940521 426.829529 137.646698
v 131.060165 421.332520 127.586052
v 130.109802 403.177856 120.510155
v 134.953766 415.542206 135.091568
v 130.559494 423.397430 126.587318
v 138.604431 415.403717 135.806564
v 143.701172 403.027496 132.531128
v 136.975021 415.473022 120.637299
v 132.138229 429.216125 121.368820
v 127.658478 403.269684 118.186279
v 127.733025 404.018585 121.678070
v 128.505539 421.332153 122.592636
v 130.128128 421.330994 119.717537
v 131.342056 429.681702 121.476585
v 128.883759 429.307465 122.566490
v 130.087189 409.331421 126.503670
v 132.133072 411.366089 118.687431
v 139.181076 403.250488 122.272926
v 132.252975 421.339600 131.473801
v 144.052841 403.342560 131.479706
v 131.598846 428.500488 127.557518
v 141.464279 413.033752 124.481178
v 129.533844 413.424805 125.189423
v 127.208809 411.930206 120.660645
v 140.934860 415.409058 135.748764
v 134.325424 405.211975 118.893761
v 139.830399 404.653137 123.297096
v 135.646103 430.100708 122.698830
v 132.440399 413.423584 131.331116
v 143.878845 412.849731 128.713257
v 138.542313 427.348755 124.858299
v 134.479095 403.031403 122.509789
v 136.540894 429.183594 128.990707
v 142.877823 411.390533 134.586990
v 138.135956 423.319702 122.994049
v 137.284653 423.367767 122.101135
v 142.961349 428.373383 131.408707
v 144.592972 417.339020 126.971321
v 136.050583 425.350525 121.384834
v 135.677277 430.114288 122.713966
v 132.115631 417.104523 119.224251
v 143.773773 419.813568 126.113167
v 133.316528 423.408325 135.166550
v 134.492889 427.429565 121.096313
v 136.537430 402.623810 128.799576
v 130.146057 411.367859 118.821373
v 138.586517 413.446075 135.364700
v 128.335724 415.353729 120.686974
v 132.057205 404.235474 118.024864
v 128.331955 403.794952 122.498314
v 136.535690 426.910950 137.504868
v 136.501587 429.372162 126.797806
v 136.537918 402.821686 126.497795
v 134.601974 425.581329 120.386009
v 131.059418 419.285797 127.585548
v 131.552414 417.244446 129.153702
v 143.847885 411.376892 133.168381
v 131.094543 416.616943 127.948387
v 144.875931 419.104675 133.319534
v 143.723633 403.118073 127.990234
v 142.955139 402.716736 130.079620
v 143.976883 414.375031 127.590927
v 140.935364 411.427490 134.954178
v 135.720352 409.330200 119.721077
v 128.760513 413.357056 119.546844
v 142.491348 415.530273 125.036545
v 133.396530 403.172058 129.762146
v 136.534576 402.935303 132.629333
v 144.318253 422.980286 127.601875
v 142.916550 407.297638 134.169815
v 135.438751 416.374115 135.789551
v 134.619919 423.476807 136.694885
v 136.628647 415.344208 135.758926
v 137.826157 425.174530 123.167656
v 136.734009 405.221375 120.752518
v 127.407341 409.128967 120.792816
v 136.590881 403.376740 133.056335
v 134.523071 426.290955 138.189682
v 135.779800 411.369049 119.718788
v 132.164185 429.746246 124.482254
v 143.925659 426.807953 129.964569
v 143.873688 407.356323 133.268509
v 144.636459 417.337891 133.426926
v 138.589035 428.575714 133.482620
v 133.264343 403.509674 130.208664
v 130.300125 405.255859 126.416412
v 142.229095 426.770325 127.717339
v 135.655273 430.096832 122.699791
v 135.976654 417.207642 120.051857
v 144.038956 407.466644 131.203247
v 128.795761 425.474762 120.822540
v 132.137650 409.317383 118.621590
v 129.034317 429.312164 121.477097
v 129.457504 405.204559 124.913055
v 134.597321 427.721771 135.028168
v 145.134598 417.149445 131.147491
v 142.542618 421.200165 125.616180
v 129.025558 421.333954 124.059120
v 138.596054 426.934448 137.491043
v 135.078262 419.463440 136.040497
v 142.841782 427.746094 135.056931
v 144.660385 425.378571 131.488342
v 132.130112 403.849640 118.145683
v 127.198112 412.383698 120.713684
v 132.267609 405.310059 118.196976
v 141.607529 418.030365 124.280075
v 143.957581 411.245483 131.242416
v 134.952789 421.431061 136.410645
v 143.824356 417.892853 125.802452
v 136.705505 419.282196 120.661430
v 127.484390 407.269714 121.827843
v 131.180008 428.763672 126.412125
v 134.479584 413.385223 119.210602
v 142.925491 403.381927 133.047745
v 130.118851 429.326569 121.092026
v 128.803574 409.323730 124.187469
v 137.842575 413.421753 121.386383
v 140.245132 425.036255 125.511482
v 131.468658 413.522095 129.360596
v 144.216431 419.303436 135.290146
v 144.146591 413.386536 131.478119
v 128.379227 415.445343 122.590271
v 136.529968 411.367645 134.755981
v 134.540604 426.308441 138.175751
v 140.698685 423.234924 125.189636
v 138.589813 402.514648 130.037674
v 140.914429 428.679199 131.481369
v 134.955933 405.203644 133.046799
v 141.853958 403.787476 125.820610
v 130.652603 427.463257 126.754105
v 129.032288 425.434845 124.061234
v 132.323868 419.284607 131.446579
v 141.225311 419.412506 124.284203
v 142.921951 415.483215 135.431976
v 140.933197 403.383667 133.117416
v 142.722992 411.401733 126.754402
v 138.589050 428.173462 135.156677
v 130.108521 407.262817 118.567833
v 134.359833 415.390839 119.328125
v 143.840027 409.311005 133.126877
v 127.903725 409.282501 122.861855
v 134.539291 426.301025 138.171768
v 136.539322 428.876221 131.488571
v 141.184464 411.351746 124.645920
v 136.559570 402.604004 131.474243
v 131.615097 419.287384 129.166382
v 129.001678 419.249023 120.153008
v 131.006790 415.440643 127.991798
v 143.649307 403.103851 128.075211
v 133.895172 424.473175 136.583481
v 136.546448 423.444153 137.247665
v 140.874298 403.192169 126.590683
v 128.442520 417.071350 120.695229
v 140.904236 428.447540 129.006958
v 134.590851 426.876007 137.162521
v 129.654190 421.333893 125.128166
v 142.437149 428.184967 129.835052
v 134.405960 417.352448 135.109818
v 128.241211 403.493256 120.437660
v 128.940445 429.610229 122.190254
v 130.149704 425.393585 119.830429
v 129.046753 429.598511 121.547684
v 143.767670 421.399841 136.091202
v 140.450592 413.509308 123.538055
v 131.588257 409.317413 129.653320
v 133.997070 403.440765 130.989716
v 134.483841 430.003143 123.426025
v 138.852493 419.319183 122.634491
v 144.849014 423.588837 133.362122
v 128.922455 415.294586 119.695213
v 138.592941 411.421387 134.971237
v 132.148041 407.264191 118.486633
v 140.937027 421.293365 136.964203
v 138.588470 409.306549 134.652267
v 143.608521 403.094147 128.047440
v 137.029129 409.326111 120.774483
v 143.431213 425.763916 128.240005
v 130.127579 403.647980 124.478264
v 128.983673 427.371246 121.314018
v 128.551254 419.262390 120.786491
v 136.472168 425.608612 137.728714
v 144.684769 421.225128 127.402977
v 136.589691 413.488251 135.167419
v 127.483162 407.240234 120.677307
v 143.491028 426.859253 136.532654
v 143.521561 407.203644 128.864120
v 140.930878 428.497406 133.471771
v 144.421112 415.718262 127.351250
v 139.848709 428.411438 127.578773
v 133.421890 427.038330 134.659378
v 143.602951 427.917664 133.333221
v 135.917038 413.322754 119.836395
v 128.603394 425.411591 122.606613
v 128.590973 421.316498 120.801208
v 130.125687 419.271088 119.639404
v 129.223190 403.746216 123.734161
v 141.612747 426.186707 137.914780
v 127.653404 403.277161 118.176888
v 134.113235 426.793396 136.529373
v 136.836227 407.230408 120.653801
v 138.589172 427.387512 137.127960
v 127.438690 410.728699 121.748169
v 140.922928 423.409973 137.348495
v 131.044052 425.470520 127.971146
v 132.122986 413.398468 118.805298
v 131.603745 421.332458 129.169952
v 139.022873 425.525909 124.550430
v 136.479279 429.468750 124.517303
v 134.486252 429.467926 126.797684
v 136.534256 402.968201 124.504906
v 142.982910 423.488647 136.872345
v 141.051529 405.749298 134.123001
v 136.567230 419.270294 136.499222
v 143.995407 417.150238 135.220154
v 144.141373 405.300537 131.392563
v 128.118958 413.402374 122.651436
v 132.142136 421.332184 119.552467
v 129.022919 419.282837 124.060341
v 137.165222 428.859985 123.911491
v 138.894257 411.346558 122.483887
v 134.358322 423.270905 119.951553
v 132.239517 429.158295 126.711189
v 128.920029 413.423492 124.121468
v 128.889465 405.216919 124.135345
# 563 vertices, 0 vertices normals

f 77 107 442
f 183 312 319
f 230 195 48
f 68 414 539
f 57 444 477
f 198 163 234
f 375 374 413
f 27 86 482
f 342 498 1
f 402 510 386
f 1 389 517
f 142 65 445
f 467 217 176
f 355 219 269
f 457 464 331
f 411 463 490
f 271 503 177
f 242 47 541
f 243 37 315
f 141 349 207
f 483 164 475
f 155 38 102
f 348 197 383
f 354 257 156
f 130 139 366
f 430 255 518
f 296 292 405
f 206 375 413
f 209 549 254
f 398 459 105
f 356 157 544
f 103 223 287
f 549 392 39
f 246 344 339
f 336 530 273
f 527 210 186
f 418 515 193
f 541 242 304
f 313 260 282
f 294 277 258
f 410 153 305
f 82 561 548
f 548 50 391
f 537 349 207
f 41 27 12
f 465 151 192
f 210 322 186
f 200 505 306
f 169 34 409
f 53 122 318
f 388 444 281
f 30 177 332
f 491 39 49
f 509 214 23
f 122 514 189
f 401 210 527
f 295 408 265
f 464 546 159
f 59 108 172
f 238 11 414
f 56 440 524
f 35 232 20
f 216 220 257
f 518 432 354
f 559 22 271
f 480 304 455
f 32 560 262
f 226 478 380
f 91 270 56
f 76 363 242
f 438 303 540
f 362 562 135
f 449 202 179
f 390 494 303
f 246 495 187
f 493 243 178
f 222 439 552
f 475 164 230
f 455 304 278
f 4 19 147
f 170 473 329
f 363 47 242
f 66 300 458
f 153 439 222
f 34 279 409
f 105 502 114
f 34 551 133
f 514 488 189
f 249 141 180
f 563 535 131
f 138 10 359
f 87 166 529
f 62 53 89
f 165 536 13
f 439 153 497
f 126 85 266
f 545 341 339
f 145 560 285
f 65 30 332
f 241 225 314
f 43 198 495
f 363 555 304
f 336 288 530
f 130 366 337
f 557 351 437
f 498 389 1
f 516 295 93
f 277 55 258
f 383 393 378
f 13 536 338
f 538 529 434
f 328 138 554
f 467 120 109
f 488 400 138
f 281 289 185
f 239 243 370
f 543 247 469
f 291 460 245
f 66 232 300
f 363 443 242
f 5 383 136
f 375 179 374
f 408 521 327
f 127 290 30
f 302 284 428
f 502 211 114
f 449 33 128
f 86 548 391
f 128 347 290
f 305 153 222
f 92 558 370
f 245 317 106
f 456 215 559
f 223 8 124
f 440 288 336
f 469 247 17
f 240 500 46
f 146 355 269
f 515 539 60
f 445 65 205
f 400 488 61
f 308 546 370
f 104 229 449
f 232 362 20
f 365 335 251
f 198 234 557
f 474 310 453
f 3 512 70
f 523 298 74
f 32 58 33
f 316 408 327
f 466 95 36
f 237 70 118
f 40 151 384
f 316 4 147
f 118 502 105
f 462 121 522
f 245 106 553
f 17 301 156
f 163 43 394
f 120 137 24
f 144 241 314
f 123 377 448
f 105 114 143
f 547 367 92
f 412 410 305
f 520 481 390
f 276 62 337
f 317 396 329
f 228 208 333
f 290 177 30
f 364 228 333
f 544 452 226
f 504 269 31
f 234 20 99
f 108 15 172
f 224 308 558
f 205 123 448
f 300 35 487
f 167 187 470
f 187 134 470
f 26 172 517
f 253 291 245
f 275 335 77
f 257 354 499
f 353 85 126
f 422 553 459
f 491 488 514
f 100 24 78
f 441 161 273
f 120 467 176
f 278 555 562
f 414 11 357
f 195 479 396
f 368 31 458
f 439 497 225
f 485 394 341
f 288 376 530
f 50 506 367
f 219 355 84
f 301 354 156
f 95 526 423
f 508 114 236
f 465 192 263
f 51 365 238
f 214 534 486
f 75 368 458
f 361 483 296
f 126 501 432
f 513 462 510
f 251 11 238
f 386 412 345
f 508 19 143
f 362 84 562
f 501 266 499
f 214 380 534
f 347 113 290
f 149 480 259
f 335 365 444
f 129 80 4
f 358 125 325
f 450 480 149
f 53 268 89
f 167 470 301
f 82 360 561
f 483 268 164
f 243 528 37
f 54 137 462
f 490 520 252
f 464 191 171
f 160 492 168
f 532 430 90
f 97 233 497
f 335 107 77
f 38 186 102
f 200 306 326
f 152 550 502
f 496 293 73
f 524 440 336
f 99 168 557
f 461 387 160
f 331 464 171
f 494 434 303
f 24 137 54
f 506 85 427
f 13 56 2
f 312 344 319
f 166 44 29
f 371 21 549
f 37 92 315
f 220 17 156
f 484 200 407
f 312 334 125
f 537 298 207
f 239 457 331
f 550 13 2
f 433 563 259
f 181 74 477
f 59 172 235
f 551 34 169
f 520 390 248
f 81 409 111
f 197 255 240
f 205 250 123
f 542 165 550
f 144 314 324
f 76 385 404
f 442 107 388
f 544 226 274
f 218 472 330
f 306 467 416
f 141 450 180
f 38 154 102
f 529 18 434
f 73 293 530
f 106 473 553
f 500 262 46
f 261 377 155
f 430 64 132
f 478 452 531
f 543 344 247
f 441 316 264
f 268 22 89
f 519 492 23
f 114 2 236
f 57 298 289
f 309 424 235
f 550 165 13
f 321 25 28
f 481 494 390
f 277 124 504
f 117 526 440
f 259 480 455
f 365 251 238
f 276 7 122
f 456 559 271
f 88 259 455
f 462 522 510
f 488 138 328
f 332 296 405
f 284 531 283
f 450 149 180
f 402 173 373
f 19 508 264
f 311 60 62
f 279 513 510
f 493 466 36
f 38 186 154
f 314 471 324
f 139 299 254
f 321 474 203
f 471 96 395
f 215 89 559
f 309 79 217
f 406 424 40
f 377 38 155
f 233 96 314
f 473 333 553
f 157 403 418
f 173 345 364
f 124 8 504
f 26 425 223
f 336 161 236
f 406 40 59
f 119 554 359
f 457 239 546
f 316 327 4
f 358 545 125
f 388 335 444
f 102 435 129
f 539 414 158
f 492 519 168
f 480 272 304
f 353 348 85
f 272 541 304
f 435 253 422
f 256 554 421
f 25 109 100
f 298 140 289
f 279 402 267
f 89 22 559
f 285 179 375
f 213 352 534
f 69 305 67
f 299 130 337
f 258 323 175
f 472 445 205
f 560 196 46
f 491 254 39
f 343 410 412
f 411 489 463
f 231 442 185
f 260 490 282
f 340 438 540
f 350 249 180
f 411 447 144
f 86 391 372
f 21 101 15
f 509 194 274
f 452 157 418
f 115 416 321
f 432 501 499
f 82 548 86
f 270 117 56
f 232 219 362
f 216 85 506
f 390 303 438
f 366 139 276
f 511 431 72
f 429 421 479
f 40 200 484
f 343 221 497
f 304 555 278
f 65 142 507
f 416 25 321
f 371 275 201
f 378 285 375
f 453 42 148
f 163 35 234
f 280 75 233
f 253 245 422
f 419 216 506
f 280 233 97
f 546 239 370
f 72 431 385
f 172 26 235
f 546 413 159
f 519 23 486
f 403 68 539
f 434 41 244
f 217 6 176
f 369 48 460
f 556 32 262
f 318 122 525
f 9 261 521
f 94 70 237
f 514 138 399
f 192 484 115
f 509 274 214
f 267 373 297
f 55 323 258
f 493 496 376
f 244 12 476
f 109 120 100
f 74 181 415
f 75 458 212
f 431 356 385
f 472 205 330
f 39 188 49
f 409 267 111
f 463 417 481
f 184 240 46
f 368 75 280
f 193 515 215
f 140 537 185
f 320 453 346
f 512 3 282
f 30 65 507
f 230 525 195
f 15 1 517
f 471 358 324
f 121 343 522
f 7 514 122
f 40 505 200
f 282 490 252
f 182 51 68
f 542 512 252
f 430 204 64
f 543 183 319
f 199 170 329
f 115 321 203
f 552 260 313
f 286 352 64
f 303 244 540
f 531 193 283
f 117 476 423
f 83 137 294
f 268 53 318
f 344 246 187
f 452 418 531
f 239 171 295
f 339 344 312
f 2 524 336
f 488 491 49
f 79 277 294
f 263 192 203
f 272 415 541
f 201 77 231
f 343 121 175
f 393 285 378
f 228 69 67
f 53 276 122
f 332 503 296
f 276 468 7
f 437 16 134
f 383 378 136
f 454 353 126
f 461 160 135
f 393 145 285
f 211 550 2
f 217 79 6
f 302 478 284
f 412 305 69
f 266 257 499
f 500 174 262
f 485 395 394
f 114 508 143
f 512 542 152
f 84 278 562
f 35 20 234
f 343 175 221
f 204 533 286
f 182 68 403
f 87 529 45
f 98 469 451
f 394 43 341
f 495 437 134
f 249 350 389
f 90 518 354
f 338 91 56
f 447 225 71
f 411 382 489
f 85 348 427
f 355 88 52
f 171 191 9
f 50 367 547
f 254 549 39
f 495 198 437
f 351 16 437
f 363 76 404
f 225 241 71
f 554 138 359
f 442 281 185
f 454 126 432
f 98 360 82
f 265 408 316
f 391 547 37
f 429 256 421
f 355 146 88
f 25 100 28
f 225 233 314
f 128 290 127
f 172 15 517
f 345 228 364
f 221 97 497
f 382 144 324
f 330 227 261
f 22 483 503
f 186 253 38
f 6 79 176
f 539 158 60
f 476 12 423
f 252 520 248
f 209 371 549
f 55 504 31
f 128 428 347
f 11 275 209
f 431 182 356
f 27 482 12
f 224 206 308
f 181 72 76
f 210 460 322
f 357 299 158
f 208 3 94
f 545 312 125
f 178 516 93
f 555 461 562
f 159 374 14
f 377 186 38
f 275 77 201
f 47 110 242
f 430 518 90
f 110 181 242
f 419 506 50
f 135 160 99
f 324 358 325
f 88 433 259
f 245 553 422
f 525 429 195
f 560 32 229
f 310 28 78
f 222 552 67
f 369 210 401
f 535 563 517
f 160 168 99
f 113 271 177
f 509 387 404
f 37 528 36
f 299 130 357
f 155 102 129
f 208 67 313
f 118 152 502
f 307 382 45
f 70 152 118
f 281 444 57
f 561 360 451
f 292 48 369
f 407 416 115
f 267 402 373
f 536 340 338
f 477 511 72
f 197 348 454
f 395 397 112
f 11 209 357
f 491 139 254
f 127 30 507
f 197 184 116
f 51 182 431
f 425 146 8
f 246 43 495
f 64 174 132
f 96 471 314
f 553 94 237
f 338 340 91
f 80 398 143
f 478 302 380
f 216 257 266
f 352 174 64
f 484 407 115
f 334 183 44
f 367 224 558
f 20 362 135
f 489 382 307
f 223 425 8
f 193 215 456
f 485 471 395
f 466 493 376
f 157 452 544
f 157 182 403
f 373 173 170
f 446 396 317
f 523 272 450
f 215 311 89
f 302 58 213
f 534 352 286
f 190 148 359
f 60 158 62
f 427 5 367
f 9 330 381
f 174 556 262
f 134 532 470
f 533 519 486
f 538 307 45
f 206 413 308
f 51 238 68
f 348 383 5
f 183 150 44
f 269 66 31
f 178 426 516
f 393 196 145
f 449 128 127
f 28 100 78
f 232 35 300
f 191 436 9
f 74 298 57
f 444 511 477
f 508 161 441
f 472 142 445
f 389 535 517
f 121 258 175
f 235 103 287
f 272 480 450
f 360 98 451
f 452 478 226
f 77 442 231
f 489 307 463
f 444 365 511
f 79 287 124
f 305 222 67
f 5 162 367
f 189 256 429
f 393 197 116
f 464 436 191
f 493 178 496
f 479 111 297
f 487 397 395
f 368 280 323
f 318 525 230
f 70 512 152
f 487 35 397
f 382 411 144
f 283 193 456
f 435 422 80
f 237 118 459
f 196 393 46
f 190 63 346
f 268 318 164
f 196 560 145
f 150 98 82
f 522 412 386
f 519 533 351
f 243 295 426
f 274 226 214
f 277 79 124
f 285 560 104
f 240 255 132
f 537 140 349
f 270 340 540
f 479 297 396
f 94 3 70
f 85 216 266
f 503 483 361
f 108 21 15
f 515 311 215
f 262 560 46
f 346 453 148
f 422 398 80
f 178 420 293
f 35 163 397
f 151 40 484
f 161 336 273
f 409 279 267
f 121 83 258
f 396 297 199
f 355 52 84
f 242 363 304
f 179 202 374
f 368 55 31
f 292 401 527
f 169 409 81
f 449 127 202
f 350 180 131
f 395 112 394
f 101 201 342
f 194 509 404
f 61 488 49
f 29 82 27
f 168 351 557
f 16 532 134
f 44 150 29
f 136 378 206
f 299 209 254
f 37 547 92
f 496 178 293
f 170 364 473
f 326 306 407
f 137 83 462
f 377 527 186
f 372 37 36
f 531 418 193
f 150 82 29
f 542 252 248
f 563 149 259
f 100 120 24
f 515 60 311
f 548 419 50
f 367 558 92
f 356 544 194
f 175 323 221
f 374 202 14
f 329 473 106
f 309 235 287
f 12 482 423
f 188 465 49
f 433 425 517
f 526 117 423
f 498 249 389
f 31 66 458
f 442 388 281
f 194 544 274
f 125 87 325
f 226 380 214
f 153 343 497
f 323 280 221
f 405 292 250
f 463 307 494
f 98 543 469
f 382 325 45
f 494 538 434
f 204 286 64
f 310 551 42
f 447 439 225
f 249 498 349
f 415 110 47
f 189 554 256
f 396 199 329
f 249 349 141
f 251 335 11
f 13 338 56
f 308 413 546
f 54 462 513
f 90 354 301
f 184 46 116
f 181 76 242
f 151 465 188
f 189 488 328
f 83 121 462
f 530 293 273
f 195 429 479
f 322 460 253
f 151 484 192
f 398 105 143
f 426 295 516
f 320 63 263
f 32 33 229
f 561 419 548
f 281 57 289
f 139 491 514
f 137 120 176
f 289 140 185
f 297 373 199
f 348 5 427
f 250 527 377
f 171 521 408
f 183 334 312
f 68 238 414
f 21 108 392
f 334 44 166
f 101 342 1
f 46 393 116
f 164 318 230
f 146 425 433
f 529 166 18
f 306 505 467
f 392 384 188
f 320 474 453
f 243 426 178
f 15 101 1
f 2 336 236
f 154 186 102
f 221 280 97
f 209 299 357
f 40 424 505
f 439 447 260
f 243 239 295
f 112 163 394
f 330 448 227
f 416 467 25
f 367 162 224
f 250 292 527
f 295 265 93
f 58 302 428
f 293 441 273
f 244 41 12
f 400 63 190
f 87 334 166
f 523 74 415
f 447 411 260
f 84 52 278
f 58 32 556
f 141 523 450
f 146 433 88
f 549 21 392
f 398 422 459
f 446 195 396
f 152 542 550
f 464 457 546
f 389 350 131
f 137 176 294
f 168 519 351
f 276 139 468
f 165 248 438
f 543 98 150
f 560 229 104
f 247 167 17
f 2 56 524
f 381 330 261
f 111 267 297
f 345 412 69
f 371 201 101
f 471 485 358
f 119 81 421
f 184 197 240
f 459 118 105
f 205 405 250
f 436 330 9
f 363 443 47
f 428 284 347
f 473 364 333
f 419 561 220
f 181 477 72
f 500 240 132
f 148 119 359
f 142 202 507
f 165 542 248
f 198 557 437
f 43 246 341
f 498 537 349
f 227 377 261
f 372 391 37
f 373 170 199
f 382 324 325
f 400 10 138
f 272 523 415
f 113 456 271
f 285 104 179
f 161 508 236
f 58 428 33
f 463 481 520
f 5 136 162
f 202 218 14
f 506 427 367
f 376 496 73
f 117 270 476
f 424 309 505
f 551 78 133
f 503 361 296
f 535 389 131
f 461 555 363
f 497 233 225
f 418 403 515
f 427 367 379
f 292 369 401
f 470 90 301
f 424 406 235
f 103 26 223
f 275 371 209
f 202 127 507
f 391 50 547
f 545 339 312
f 420 93 293
f 268 483 22
f 162 136 224
f 66 219 232
f 317 329 106
f 335 107 388
f 366 276 337
f 482 372 95
f 340 270 91
f 260 411 490
f 505 217 467
f 197 393 383
f 166 29 18
f 42 169 119
f 415 47 541
f 206 378 375
f 466 526 95
f 62 158 337
f 482 95 423
f 521 261 129
f 213 58 556
f 247 344 167
f 78 24 133
f 239 331 171
f 311 62 89
f 370 243 315
f 22 503 271
f 533 486 286
f 177 503 332
f 269 219 66
f 468 514 7
f 482 86 372
f 59 40 384
f 248 390 438
f 180 149 131
f 218 330 436
f 525 189 429
f 119 169 81
f 10 190 359
f 467 109 25
f 508 441 264
f 421 111 479
f 478 531 284
f 142 218 202
f 406 59 235
f 182 157 356
f 385 356 194
f 52 455 278
f 460 446 317
f 8 146 269
f 24 54 133
f 43 163 198
f 468 139 514
f 27 82 86
f 492 509 23
f 8 269 504
f 17 167 301
f 173 364 170
f 300 487 212
f 173 402 386
f 80 19 4
f 218 159 14
f 123 250 377
f 257 220 156
f 195 446 48
f 228 345 69
f 410 343 153
f 334 87 125
f 486 534 286
f 158 299 337
f 511 51 431
f 108 59 384
f 514 488 138
f 65 332 405
f 276 53 62
f 320 263 203
f 219 84 362
f 502 550 211
f 139 130 299
f 55 368 323
f 224 136 206
f 264 316 147
f 295 171 408
f 18 29 41
f 407 306 416
f 387 461 363
f 148 42 119
f 510 522 386
f 3 208 313
f 19 80 143
f 48 446 460
f 526 466 288
f 292 475 48
f 201 231 342
f 561 451 220
f 279 34 513
f 231 537 342
f 23 214 486
f 380 213 534
f 537 498 342
f 402 279 510
f 387 363 404
f 92 370 315
f 528 243 493
f 126 266 501
f 476 270 540
f 529 538 45
f 310 474 28
f 133 54 513
f 19 264 147
f 61 465 263
f 190 346 148
f 296 475 292
f 537 140 298
f 458 300 212
f 42 551 169
f 552 439 260
f 176 79 294
f 485 545 358
f 521 129 4
f 537 231 185
f 287 223 124
f 474 320 203
f 189 328 554
f 330 205 448
f 174 500 132
f 533 204 16
f 325 87 45
f 93 265 316
f 483 475 296
f 65 405 205
f 293 93 441
f 183 543 150
f 75 96 233
f 108 384 392
f 562 461 135
f 81 111 421
f 340 165 438
f 216 419 220
f 192 115 203
f 434 244 303
f 52 88 455
f 244 476 540
f 16 204 532
f 464 218 436
f 443 47 242
f 563 433 517
f 553 237 459
f 465 61 49
f 532 204 430
f 474 321 28
f 173 386 345
f 93 316 441
f 298 523 141
f 348 353 454
f 253 460 291
f 261 155 129
f 387 492 160
f 414 357 158
f 522 343 412
f 335 275 11
f 369 460 210
f 255 197 454
f 551 310 78
f 525 122 189
f 554 119 421
f 347 283 113
f 453 310 42
f 387 509 492
f 434 18 41
f 518 255 432
f 200 326 407
f 460 317 245
f 144 447 71
f 512 282 252
f 218 142 472
f 469 17 220
f 229 33 449
f 365 51 511
f 352 213 556
f 440 526 288
f 67 552 313
f 29 27 41
f 171 9 521
f 38 435 102
f 380 302 213
f 255 454 432
f 466 376 288
f 327 521 4
f 528 493 36
f 448 377 227
f 558 308 370
f 283 456 113
f 212 487 395
f 241 144 71
f 79 309 287
f 20 135 99
f 96 212 395
f 211 2 114
f 187 495 134
f 21 371 101
f 333 94 553
f 234 99 557
f 435 80 129
f 425 26 517
f 341 246 339
f 253 435 38
f 463 494 481
f 181 110 415
f 149 563 131
f 344 543 319
f 96 75 212
f 284 283 347
f 34 133 513
f 10 400 190
f 333 208 94
f 344 187 167
f 55 277 504
f 403 539 515
f 384 151 188
f 290 113 177
f 490 463 520
f 104 449 179
f 385 194 404
f 33 428 128
f 532 90 470
f 26 103 235
f 218 464 159
f 95 372 36
f 351 533 16
f 475 230 48
f 174 352 556
f 74 57 477
f 322 253 186
f 397 163 112
f 3 313 282
f 255 430 132
f 413 374 159
f 72 385 76
f 63 61 263
f 376 73 530
f 117 440 56
f 354 432 499
f 178 93 420
f 83 294 258
f 505 309 217
f 63 320 346
f 63 400 61
f 208 228 67
f 307 538 494
f 298 141 207
f 9 381 261
f 392 188 39
f 545 485 341
f 165 340 536
f 451 469 220
# 1126 faces, 0 coords texture

# End of File