####
#
# OBJ File Generated by Meshlab
#
####
# Object domain119.obj
#
# Vertices: 565
# Faces: 1142
#
####
v 131.958069 330.498596 112.829063
v 125.319473 327.115509 119.782295
v 122.467834 325.292084 112.368561
v 141.082352 340.991455 121.741043
v 125.372932 351.292725 110.860390
v 129.621918 340.759979 122.809967
v 125.700981 328.465607 121.214912
v 133.803635 326.546692 115.826065
v 133.855804 353.531525 119.844650
v 123.054001 328.423462 119.410522
v 131.905457 343.100677 112.899834
v 127.335876 324.743713 111.103874
v 122.811691 343.095001 113.307076
v 139.714081 336.699158 118.492783
v 124.101547 325.668335 114.703621
v 123.074837 328.439148 115.342087
v 127.412384 334.588440 122.022636
v 127.492546 353.446991 119.731270
v 122.720779 336.751221 113.544540
v 125.229973 353.322723 117.403854
v 136.481750 326.213104 117.076057
v 125.503265 349.250061 121.388649
v 125.430016 325.340057 115.156212
v 123.374130 349.251984 113.089211
v 131.955917 332.554443 112.834351
v 120.627983 338.607788 110.024284
v 127.467926 326.799500 119.736298
v 136.392059 326.158813 117.149284
v 125.661041 351.283264 121.262520
v 124.992477 351.131836 120.745110
v 123.486343 332.486755 120.327301
v 124.096542 343.110077 116.089050
v 124.802429 342.541504 109.911339
v 123.058571 330.527863 117.714905
v 135.801743 330.498108 116.280212
v 137.241211 330.597870 118.046974
v 129.112350 353.281738 112.154953
v 128.174347 325.402802 110.372734
v 124.821144 349.235504 120.838493
v 130.707275 325.508026 112.314003
v 138.340897 349.487030 119.726860
v 123.051315 354.814209 110.964310
v 121.014771 330.503998 111.511452
v 124.269852 351.331177 115.551453
v 123.580521 334.632324 115.423111
v 123.867104 326.457977 115.478653
v 125.477371 328.461212 109.006218
v 124.881767 352.825684 119.464523
v 124.211098 332.668396 121.029564
v 121.208549 326.197418 108.636551
v 127.382103 330.526154 121.941483
v 125.214996 340.598724 109.814468
v 129.615280 328.431122 110.854919
v 131.869827 345.154236 123.339989
v 120.285950 345.078735 109.907303
v 137.991577 340.762177 123.351479
v 131.939087 338.708038 112.855202
v 123.108162 332.587891 119.600937
v 131.906174 353.065796 122.293869
v 129.808655 327.715210 121.229057
v 127.293503 328.371490 109.578537
v 131.830597 354.086700 117.483643
v 121.402565 330.489746 108.990288
v 133.901642 347.204926 123.476585
v 122.501503 328.448517 113.810631
v 121.938606 338.707031 112.443497
v 120.489471 328.266266 109.553673
v 141.161362 344.807556 122.198433
v 125.465500 345.153839 121.439339
v 124.012970 336.732819 120.896461
v 120.485497 332.470154 109.618423
v 123.816216 323.995148 108.715813
v 138.216003 337.562927 123.037651
v 124.530159 351.061584 119.900879
v 137.931168 347.195770 118.017273
v 124.809219 353.389069 115.560303
v 123.735420 338.709778 115.105492
v 123.609283 353.274628 112.860825
v 133.902222 343.103882 123.460159
v 121.927490 330.505737 112.826897
v 124.057297 338.707123 116.094246
v 130.802887 347.205078 123.156937
v 129.687912 351.293579 122.647186
v 138.038406 340.759979 117.428658
v 123.750114 340.760742 115.094910
v 124.014435 338.690216 120.876411
v 131.848557 326.712189 119.778419
v 139.250732 348.922516 122.805145
v 123.514000 325.255127 113.264946
v 135.897232 336.656372 116.098274
v 127.417336 343.103485 110.677589
v 127.620270 328.663483 121.641647
v 129.801636 334.610565 122.431496
v 132.197540 337.784607 123.084846
v 127.190483 353.265564 111.511780
v 140.614304 336.878632 121.179924
v 124.144691 343.104279 116.924248
v 124.655136 328.558899 120.753395
v 135.898102 352.960449 119.776131
v 133.074478 345.153931 113.864105
v 127.484810 354.062592 117.457733
v 127.426331 338.705994 122.108551
v 135.861160 330.528961 122.075668
v 131.850555 332.555511 122.473541
v 139.874969 347.118805 122.940491
v 131.049194 326.441193 112.102684
v 120.343933 330.502472 110.055649
v 140.515915 335.555145 120.066513
v 123.763252 338.708801 118.159813
v 124.095795 340.760406 116.896317
v 139.499771 334.873657 118.857422
v 129.677048 336.655762 111.183372
v 138.392014 332.048889 120.026627
v 123.524704 347.148315 110.938538
v 124.067574 340.759125 116.095619
v 125.462296 343.103607 121.439316
v 129.773300 354.499817 115.454010
v 125.509888 353.029938 119.822762
v 133.852371 326.255798 117.444733
v 123.615234 328.559235 120.099045
v 125.410042 325.657715 115.949265
v 124.579170 345.021271 120.776672
v 122.820427 354.351105 110.951172
v 129.584824 340.715729 111.382408
v 127.571426 338.820007 110.262428
v 131.473022 325.610016 113.547546
v 130.943130 334.605988 112.033607
v 127.490623 327.756073 121.120323
v 138.123749 343.190002 117.514481
v 127.485451 349.285065 111.154266
v 131.799286 325.495392 115.202896
v 119.329041 324.621948 108.363197
v 121.081100 334.603424 111.459763
v 131.928040 340.758911 112.869469
v 124.055717 336.663147 116.099274
v 135.951981 343.103241 123.488792
v 131.852036 330.516296 122.351959
v 125.405807 345.163788 110.417320
v 124.387245 349.214355 119.926064
v 130.809753 338.709381 123.090858
v 139.920822 336.750549 122.055359
v 136.998978 330.787903 121.475761
v 129.617554 347.205017 122.844154
v 123.636795 336.676056 117.986008
v 125.419685 334.604248 121.511734
v 137.026611 352.553925 122.359291
v 129.533844 345.127930 111.648270
v 129.507416 343.087463 111.497833
v 121.477943 343.115356 111.267105
v 125.316368 332.497925 109.267700
v 129.631439 326.535187 110.819542
v 136.451294 349.152100 117.173737
v 135.951996 347.205048 123.490463
v 123.218964 328.489807 117.667290
v 129.818069 330.518829 122.245865
v 127.385460 351.280518 111.235710
v 130.989655 352.594238 122.756859
v 124.672226 354.322205 114.187714
v 122.095848 326.422424 112.694794
v 137.044174 328.620758 119.961670
v 138.014893 336.651611 117.484917
v 119.737488 324.371307 108.468269
v 121.215157 344.605499 110.110497
v 141.028503 338.722809 120.072815
v 120.349312 328.449158 110.058105
v 123.098846 345.183563 113.349312
v 130.874878 340.758606 112.133865
v 125.342949 353.300659 111.019882
v 133.902054 349.254852 123.453735
v 120.458252 330.501099 109.593605
v 125.382278 330.498596 109.141579
v 124.286240 347.228027 119.935768
v 134.038269 349.315491 114.913635
v 121.103821 324.108734 108.242805
v 123.105164 332.570465 115.177429
v 124.295258 353.322632 114.472626
v 133.893448 353.062561 122.260849
v 121.358849 324.052399 108.259575
v 122.618141 332.704437 113.823784
v 133.885635 326.802948 119.757782
v 134.295074 345.153900 114.844826
v 121.412292 334.687653 109.276009
v 127.361137 349.255188 122.120399
v 130.944504 332.555023 112.032463
v 133.894882 330.517914 122.326729
v 122.493172 330.508484 113.812340
v 125.518028 354.224335 115.258652
v 123.574776 349.246948 111.110939
v 123.431145 324.577332 111.023102
v 129.800674 326.714844 119.775055
v 135.845032 352.896667 122.318405
v 120.285133 345.076050 109.924545
v 134.313309 338.708069 114.822922
v 135.395691 352.843262 117.858147
v 118.472275 325.597565 107.919876
v 125.420174 336.656250 121.507462
v 127.444885 324.867371 113.456734
v 140.680756 346.349152 122.799835
v 123.700623 336.669312 115.133575
v 124.251205 349.256927 118.493355
v 128.607712 354.457703 112.516190
v 140.651917 338.730225 119.147484
v 136.591415 352.010529 119.134239
v 122.609970 336.371613 120.111252
v 123.347290 340.752350 109.646400
v 125.489807 343.284302 110.133331
v 121.356163 338.687195 109.702660
v 129.493423 332.552765 110.996498
v 123.467293 351.293121 113.038437
v 125.983002 327.628418 120.732956
v 135.795395 347.196930 116.223244
v 136.848907 328.436890 117.857048
v 140.757248 343.668274 122.870277
v 129.618439 343.103485 122.830383
v 123.207939 327.672607 119.319527
v 130.803238 345.154022 123.155930
v 139.415024 337.637299 122.766655
v 140.859512 336.932922 120.051300
v 123.363144 336.666229 109.371498
v 133.890076 352.630615 122.783585
v 135.900772 340.759247 116.093475
v 140.322678 338.672119 122.403900
v 138.158722 345.199799 117.769279
v 134.242264 347.202789 114.905708
v 123.538658 324.021271 108.706749
v 139.203659 333.255402 119.981697
v 129.801086 354.235931 117.500877
v 127.442886 336.654327 122.064507
v 127.274391 326.418549 109.467827
v 129.962936 352.704132 122.013794
v 120.378426 332.555908 110.043541
v 124.279526 349.258270 117.473312
v 123.599174 323.974884 108.714867
v 130.928101 336.657104 112.053940
v 131.741287 354.237701 115.470482
v 142.127228 343.070618 120.980530
v 125.196877 324.015106 108.796814
v 137.919937 334.663940 122.173523
v 127.722824 352.484497 121.356445
v 135.997772 336.667114 122.830986
v 122.970100 346.961365 111.506371
v 133.030014 328.463593 113.888550
v 122.029297 334.607971 112.753021
v 129.794144 325.272034 115.189980
v 130.827469 344.517456 112.241493
v 137.994644 338.733551 123.236115
v 140.954132 346.492615 122.222969
v 123.233635 349.161224 111.585266
v 135.863968 328.638733 121.807724
v 126.060226 340.980225 110.033447
v 136.950684 340.759552 116.812981
v 122.836823 344.597504 110.035080
v 134.167542 328.426636 115.110710
v 136.772675 347.157166 117.063972
v 123.300354 347.192627 113.162117
v 123.159729 330.343689 119.440262
v 127.455292 325.432587 116.037102
v 140.000549 345.132812 123.195114
v 133.020920 353.749084 115.826393
v 137.964645 351.137329 122.300797
v 131.229828 354.053894 114.252289
v 135.947983 349.251404 123.412544
v 121.301247 336.540771 109.477577
v 139.453171 334.931519 121.422165
v 125.399086 324.422333 111.069031
v 139.837982 340.863220 123.003761
v 131.858658 325.624481 115.999290
v 124.407593 331.167450 121.112747
v 123.933708 335.427551 116.771652
v 127.459633 354.565979 115.443321
v 123.926559 344.994965 115.058586
v 137.872238 332.587860 118.117584
v 124.138420 347.214264 115.559288
v 122.766960 334.620605 113.808029
v 128.181473 335.117310 110.281944
v 126.978867 336.567993 109.903923
v 129.451874 349.178772 111.860641
v 127.427162 345.190338 110.875351
v 120.610138 343.124329 110.020927
v 123.578842 327.403900 119.312508
v 133.899048 351.273590 123.269485
v 118.458961 325.583832 107.966446
v 121.038040 332.553986 111.493065
v 129.636520 338.694336 111.293343
v 140.867401 338.869507 121.585953
v 133.902573 336.608582 122.818192
v 124.043373 336.664337 116.850403
v 136.816681 332.564301 117.017426
v 139.810104 340.761261 118.349823
v 134.306107 334.605530 114.831688
v 126.040245 352.452118 120.829735
v 121.127998 336.652649 111.417625
v 119.877861 325.508179 108.855751
v 120.249748 326.402588 109.999107
v 135.829300 332.526794 116.163826
v 129.736053 325.127960 113.455978
v 122.607384 335.453857 120.089531
v 124.175133 349.258698 115.551880
v 129.559830 354.407227 113.272270
v 136.877975 352.496857 122.647224
v 125.379585 338.696259 109.676453
v 142.120911 343.068207 121.217369
v 129.809143 332.555786 122.358360
v 130.506683 349.352051 112.428314
v 136.369522 351.264771 117.684738
v 123.947174 335.361328 116.098114
v 129.527252 330.496185 110.948013
v 134.789948 352.861786 116.650887
v 124.183342 345.035461 119.970444
v 131.845139 325.947296 117.466980
v 131.847733 353.757294 119.851257
v 122.009537 336.447174 112.624794
v 135.955765 334.602600 122.502724
v 124.062546 338.706299 116.876480
v 135.850983 326.972015 119.731346
v 134.314713 340.759308 114.821465
v 131.947815 336.656647 112.844009
v 124.757103 347.174042 120.847794
v 124.913734 323.985840 108.796509
v 133.098923 330.504944 113.830193
v 135.763809 328.413055 116.367935
v 140.499985 336.806091 119.224586
v 124.129677 345.311401 115.803207
v 121.966492 332.558380 112.804115
v 131.832413 351.292847 113.492424
v 124.116135 345.219849 118.073753
v 124.050941 343.100525 118.038284
v 124.505272 330.167542 121.046989
v 131.852554 328.647705 121.918350
v 121.471489 325.081116 110.790672
v 124.185684 345.192078 116.940125
v 128.031601 336.795227 110.322968
v 138.004395 343.101074 123.457451
v 123.652580 351.335999 111.155739
v 119.039909 324.931732 108.248779
v 140.673828 342.203094 122.740120
v 121.348076 343.085602 109.876541
v 138.998093 333.594452 118.963203
v 138.716095 350.053497 122.690559
v 122.902870 354.681305 110.975182
v 140.480209 340.548309 122.595581
v 122.955276 330.552246 115.265022
v 137.000519 350.984741 118.565109
v 123.385460 332.601135 109.005219
v 129.328415 325.306274 111.398163
v 133.100479 343.103607 113.829803
v 122.701996 338.714935 113.431549
v 124.511391 343.071716 120.745071
v 140.266632 345.248260 119.390793
v 131.123520 328.373108 112.031227
v 134.255081 330.437683 114.910294
v 139.541016 338.752838 122.917366
v 120.485870 334.588013 110.077271
v 123.482643 345.214172 110.301193
v 127.458885 325.919281 117.469902
v 140.686691 340.755219 119.127403
v 131.199173 337.638550 123.100761
v 125.342598 326.400452 108.894966
v 123.230263 355.042053 110.961739
v 131.936905 326.484741 113.131500
v 130.909927 338.708435 112.080116
v 130.981796 330.507050 111.988739
v 127.359169 343.079651 122.126892
v 124.160934 334.609650 121.002007
v 125.467438 354.909210 113.032883
v 135.925110 352.600250 122.778465
v 125.425369 324.883972 113.436211
v 131.869522 347.205017 123.341904
v 136.394348 327.871521 121.222565
v 136.340012 326.163818 117.096992
v 121.183739 338.701752 111.372566
v 124.191742 347.215576 117.429420
v 130.792358 345.504089 112.302795
v 130.807129 343.103180 123.144714
v 136.949020 338.707916 116.815498
v 127.503365 347.184296 111.051437
v 133.810287 338.922913 123.201530
v 132.110168 328.519806 112.924423
v 123.352318 338.704987 109.525536
v 132.969589 348.719330 114.000839
v 127.200264 354.605682 112.223633
v 125.386772 349.250427 110.806023
v 140.627045 343.701599 119.280876
v 121.378143 332.515808 109.100548
v 123.263489 355.263763 110.983368
v 121.216484 340.820923 111.296318
v 120.490356 336.579071 110.075134
v 138.043655 334.548370 117.742607
v 135.885376 334.605408 116.114021
v 124.543282 355.791382 110.932198
v 131.919006 349.308594 113.272049
v 138.756851 347.995300 119.179008
v 125.395836 347.195038 110.682587
v 137.622864 351.162964 120.173302
v 127.384453 354.807129 113.151588
v 123.954926 340.703064 118.176849
v 122.603630 336.588348 120.064201
v 135.894638 343.103424 116.102112
v 122.807144 337.891266 120.191826
v 123.882401 347.226379 114.669716
v 139.786514 338.711151 118.388565
v 135.953232 340.762604 123.410324
v 136.524689 328.507874 117.273621
v 133.040115 347.199036 113.915260
v 123.946663 349.258514 114.628044
v 138.037750 338.707489 117.430054
v 136.671844 330.524872 117.175865
v 123.398407 334.626556 117.904205
v 136.908829 334.606476 116.887154
v 129.798508 325.434998 116.036743
v 127.334984 330.497864 109.759735
v 120.594994 334.365845 109.650391
v 134.312576 336.656647 114.823929
v 136.900024 345.161102 116.913124
v 130.741425 347.208099 112.395767
v 125.476883 347.203918 121.426819
v 136.484253 327.321930 119.625305
v 129.622375 349.255981 122.828506
v 135.306412 351.289429 116.502525
v 127.321404 332.548248 109.884430
v 124.005417 351.308777 114.599838
v 129.641617 338.705322 122.766586
v 135.986435 338.760803 123.217896
v 130.826935 351.294281 123.071877
v 122.732216 340.752472 113.417389
v 134.068878 337.993561 123.078178
v 128.549469 325.993134 110.130051
v 123.175240 332.570282 117.843048
v 126.556152 338.497101 109.932076
v 133.897598 328.644745 121.919487
v 127.352364 345.154968 122.144478
v 138.805725 350.087280 121.957726
v 137.990967 347.197327 123.349030
v 123.323250 330.479980 108.824448
v 139.266571 348.730743 120.657127
v 133.111374 334.606262 113.817162
v 139.735703 345.021545 118.735939
v 135.762070 337.871796 123.060402
v 134.313080 343.103210 114.823418
v 123.342003 355.225586 110.980583
v 131.874008 340.764008 123.295609
v 124.211502 354.588409 112.779396
v 137.691467 330.558167 119.956665
v 122.144310 323.992310 108.406746
v 129.798721 325.871307 117.485558
v 125.409798 332.556824 121.539635
v 122.823868 326.446838 113.627876
v 121.028091 328.455780 111.501831
v 123.343559 326.406555 108.650528
v 131.871109 343.103485 123.333649
v 140.698853 342.277008 119.077499
v 133.739517 353.607941 117.450081
v 133.900375 332.555389 122.462715
v 135.901138 338.708038 116.093147
v 135.868927 345.154602 116.135620
v 127.456276 340.761292 110.465027
v 131.810455 347.231445 113.075233
v 130.851410 343.098969 112.180099
v 133.109222 340.758881 113.819733
v 138.001343 345.153717 123.454605
v 125.125389 323.971405 108.796967
v 131.774887 336.623047 122.886429
v 127.380119 332.547913 122.001999
v 125.402733 334.608002 109.445724
v 125.448715 340.759857 121.450935
v 123.323845 351.240692 111.553848
v 129.271530 351.293976 111.927353
v 129.547562 334.565521 111.050278
v 136.555222 328.652222 121.497429
v 131.850235 345.137177 112.953972
v 122.590492 335.768463 120.046524
v 130.090652 353.339630 112.773842
v 133.900803 334.602173 122.581863
v 141.184265 340.997131 120.250893
v 137.331726 349.252136 118.189491
v 139.960526 347.138855 119.994957
v 125.479683 330.457703 121.470810
v 132.806625 326.010895 114.999084
v 133.113281 338.708038 113.814896
v 130.812119 340.757629 123.128136
v 137.950394 349.218811 123.193214
v 124.357353 340.583008 120.709801
v 137.748383 332.659271 121.659241
v 121.400337 328.432190 108.909485
v 125.394058 336.654022 109.573425
v 133.821121 351.286346 115.091965
v 133.113022 336.657043 113.815208
v 121.929359 328.452698 112.824913
v 121.977936 344.926086 110.819054
v 129.814896 353.678955 119.831329
v 133.901581 345.154205 123.476593
v 127.437714 351.237244 121.896591
v 123.998917 340.754211 119.922722
v 140.819824 345.160767 122.886551
v 120.631866 340.755829 110.047928
v 122.584511 336.514160 120.064476
v 121.997787 340.783691 112.398094
v 133.907944 327.684753 121.261421
v 120.586334 338.665039 110.154594
v 120.144699 324.863983 109.733757
v 135.495926 349.216858 116.247505
v 131.846725 352.709839 122.874954
v 131.949295 334.605804 112.842300
v 131.853180 327.679932 121.265396
v 131.853241 338.730743 123.216537
v 123.627190 330.558167 120.353683
v 133.902237 340.766418 123.393776
v 129.856369 336.640320 122.663124
v 134.292694 332.547333 114.849258
v 124.832878 352.984985 118.605118
v 135.952042 345.154205 123.500038
v 135.928085 332.557709 122.266441
v 120.565186 336.345093 109.822662
v 123.341202 328.445892 108.724358
v 136.398132 326.195770 117.061684
v 139.274033 346.214630 118.762360
v 127.418823 340.756653 122.128548
v 129.818726 328.663635 121.861328
v 120.605072 340.739410 110.119843
v 136.763596 352.641693 120.858055
v 137.509598 350.988892 122.855591
v 126.222588 324.078400 108.895744
v 121.156700 326.444183 111.386673
v 136.944016 343.105957 116.831573
v 131.848785 334.600983 122.577896
v 131.873749 351.285217 123.243919
v 139.530380 348.956268 122.438278
v 123.976501 327.075623 117.669579
v 123.790825 343.108459 115.065819
v 129.602646 347.194366 111.836067
v 136.945511 336.656525 116.821457
v 137.978836 336.468109 122.725227
v 141.060608 344.990509 120.589149
v 135.923340 351.264374 123.201073
v 127.260727 334.542755 109.890533
v 120.600037 343.116058 110.057983
v 140.267532 347.467438 122.204292
v 125.475151 326.191986 117.386063
v 130.803329 349.255890 123.154915
v 121.360641 340.754272 109.786049
v 140.086975 334.691376 120.070465
v 119.411736 324.560577 108.770485
v 124.166222 347.092102 118.540642
v 127.351906 347.204803 122.147522
v 140.117142 343.029907 123.136269
v 139.943848 343.066498 118.517708
v 123.264244 334.596039 109.146873
v 124.089279 343.032806 119.889717
v 138.677704 333.535919 121.380096
v 133.101624 332.554932 113.828354
v 129.619385 345.154175 122.838272
v 133.626160 353.192963 115.640549
v 130.817490 337.414551 123.004997
v 124.434685 351.317169 117.480042
v 142.119202 343.067169 121.304634
v 127.455826 325.209778 115.201385
v 132.684189 326.468567 114.140106
v 135.914230 327.713501 121.259346
v 140.798752 346.375580 121.002800
v 131.869965 349.255371 123.336960
v 131.557556 353.236359 113.803337
v 123.356888 343.107605 109.795914
v 130.389511 351.301483 112.500801
v 125.425903 338.708679 121.492325
v 124.401581 351.304779 118.502106
# 565 vertices, 0 vertices normals

f 122 318 69
f 253 242 557
f 550 320 509
f 29 239 492
f 347 497 425
f 553 140 357
f 283 243 324
f 315 180 498
f 507 450 79
f 229 427 151
f 563 391 325
f 472 563 325
f 291 30 48
f 47 61 171
f 84 289 129
f 428 34 342
f 302 68 555
f 330 89 189
f 126 478 557
f 467 472 37
f 562 52 33
f 550 436 503
f 215 10 280
f 60 504 87
f 172 543 139
f 128 60 190
f 31 471 364
f 130 277 156
f 148 167 458
f 293 132 50
f 299 472 561
f 475 41 343
f 296 244 131
f 321 403 35
f 539 424 560
f 302 213 68
f 163 55 337
f 284 234 361
f 20 270 101
f 562 206 354
f 296 131 126
f 24 248 209
f 152 75 475
f 240 73 532
f 288 272 388
f 455 524 414
f 405 421 298
f 447 65 16
f 61 53 411
f 228 508 93
f 402 136 56
f 117 299 235
f 397 144 109
f 51 155 518
f 351 35 509
f 517 6 422
f 113 549 226
f 495 26 207
f 228 102 508
f 535 275 276
f 448 165 107
f 147 415 530
f 394 146 520
f 173 486 391
f 426 94 505
f 17 93 303
f 404 380 391
f 12 197 296
f 23 257 556
f 125 284 456
f 376 530 130
f 79 450 54
f 17 228 93
f 209 176 421
f 234 57 361
f 44 20 554
f 205 52 562
f 335 195 293
f 397 109 493
f 76 158 187
f 307 362 208
f 410 445 310
f 547 182 344
f 476 537 527
f 75 437 516
f 265 72 189
f 521 339 88
f 552 561 325
f 208 184 468
f 405 298 273
f 6 214 374
f 12 345 38
f 373 245 470
f 349 383 533
f 459 346 11
f 381 37 201
f 118 239 291
f 552 308 194
f 183 418 143
f 102 422 508
f 100 181 224
f 237 38 229
f 116 363 517
f 550 290 436
f 225 174 72
f 473 462 286
f 22 183 544
f 274 19 199
f 105 198 494
f 172 139 39
f 170 484 63
f 131 267 8
f 469 142 160
f 513 182 263
f 74 48 30
f 329 430 498
f 564 102 228
f 433 105 258
f 381 299 395
f 533 68 247
f 548 327 309
f 408 269 287
f 6 374 480
f 345 151 427
f 413 389 90
f 219 464 485
f 108 96 218
f 75 392 475
f 281 220 534
f 151 40 106
f 56 266 352
f 85 115 81
f 375 84 251
f 347 85 77
f 397 493 482
f 366 300 521
f 110 314 81
f 98 477 7
f 204 397 399
f 309 326 172
f 546 383 437
f 136 511 333
f 100 457 470
f 348 122 116
f 302 555 474
f 89 3 447
f 204 496 397
f 309 318 122
f 179 45 175
f 239 230 83
f 35 403 407
f 197 556 244
f 139 74 30
f 122 69 116
f 162 132 335
f 346 470 11
f 10 256 120
f 82 368 54
f 162 174 132
f 424 157 526
f 20 510 565
f 204 86 70
f 147 458 245
f 167 134 11
f 143 539 82
f 10 120 280
f 335 132 195
f 477 446 51
f 521 260 339
f 240 438 423
f 476 349 533
f 278 147 376
f 475 392 41
f 32 331 97
f 214 551 216
f 319 358 449
f 359 385 42
f 453 185 104
f 37 299 201
f 542 293 500
f 480 441 505
f 250 456 206
f 253 351 242
f 523 294 165
f 240 532 238
f 323 273 372
f 415 470 457
f 417 369 469
f 9 99 191
f 310 180 119
f 258 105 494
f 138 91 278
f 309 327 326
f 425 529 85
f 343 41 394
f 538 528 2
f 288 388 409
f 326 543 172
f 40 360 106
f 206 91 138
f 37 472 299
f 2 528 280
f 487 479 57
f 112 234 284
f 187 158 442
f 19 312 66
f 358 514 449
f 297 204 471
f 220 502 59
f 85 529 115
f 131 8 478
f 513 499 387
f 358 47 514
f 23 89 15
f 501 152 419
f 480 374 441
f 237 229 358
f 69 431 363
f 139 30 39
f 330 523 159
f 285 4 474
f 173 501 486
f 179 80 324
f 313 238 483
f 99 203 520
f 454 375 221
f 512 313 483
f 265 189 367
f 39 22 416
f 551 82 216
f 221 251 398
f 377 441 507
f 486 419 552
f 19 77 199
f 504 329 498
f 446 145 463
f 289 202 356
f 455 414 211
f 382 376 130
f 4 336 302
f 519 386 371
f 353 412 387
f 359 42 385
f 9 452 99
f 267 310 119
f 471 70 364
f 58 471 31
f 98 506 328
f 99 194 305
f 332 468 112
f 2 210 27
f 347 425 85
f 281 534 262
f 219 485 379
f 73 217 141
f 305 394 203
f 53 350 307
f 20 18 118
f 515 212 403
f 444 72 174
f 1 320 25
f 7 477 51
f 458 470 245
f 359 390 385
f 64 169 153
f 41 435 432
f 205 301 52
f 169 281 262
f 187 442 365
f 515 28 21
f 481 88 105
f 305 343 394
f 516 349 476
f 429 332 125
f 346 439 181
f 3 159 447
f 166 255 400
f 484 449 514
f 167 11 458
f 515 28 212
f 497 66 371
f 126 131 478
f 96 285 164
f 564 196 86
f 494 247 68
f 494 198 247
f 546 555 383
f 404 173 380
f 111 322 14
f 227 62 311
f 36 443 272
f 530 415 304
f 227 235 62
f 401 322 202
f 76 187 20
f 413 90 193
f 313 240 238
f 64 368 560
f 221 375 251
f 177 191 366
f 89 46 15
f 366 191 300
f 517 363 6
f 439 221 398
f 73 246 217
f 327 331 326
f 169 560 526
f 266 545 336
f 169 526 281
f 264 108 541
f 483 113 443
f 302 236 555
f 547 150 464
f 542 335 293
f 535 468 275
f 137 104 185
f 303 104 137
f 105 88 527
f 99 520 146
f 20 101 18
f 319 265 12
f 145 17 463
f 289 356 546
f 461 72 319
f 522 319 237
f 49 364 446
f 411 53 307
f 507 79 402
f 345 126 40
f 364 70 145
f 445 87 310
f 532 73 141
f 78 466 123
f 422 480 140
f 255 24 405
f 388 111 161
f 554 200 232
f 58 297 471
f 341 4 285
f 519 495 536
f 127 317 234
f 10 528 154
f 20 118 48
f 318 39 416
f 23 121 257
f 352 341 222
f 393 376 382
f 437 349 516
f 90 409 531
f 129 546 223
f 326 372 543
f 277 304 563
f 226 264 541
f 162 178 174
f 315 558 417
f 359 365 442
f 408 45 269
f 244 267 131
f 362 1 25
f 486 325 391
f 148 458 147
f 13 149 166
f 356 164 474
f 287 314 144
f 4 302 474
f 459 439 346
f 52 429 125
f 237 319 461
f 330 294 523
f 476 533 559
f 471 204 496
f 361 134 167
f 65 342 16
f 548 309 122
f 78 442 158
f 98 120 506
f 150 411 420
f 362 25 184
f 226 541 111
f 65 186 342
f 179 186 80
f 489 192 55
f 558 249 369
f 504 498 180
f 397 482 86
f 400 273 323
f 35 407 295
f 190 60 87
f 209 248 466
f 340 42 359
f 267 119 8
f 380 173 391
f 301 276 429
f 1 242 320
f 188 334 466
f 273 232 372
f 36 160 443
f 406 14 401
f 60 518 504
f 130 530 277
f 133 292 312
f 237 358 319
f 274 324 243
f 340 359 442
f 193 90 454
f 564 465 102
f 136 333 56
f 373 470 415
f 419 194 308
f 273 298 232
f 304 457 391
f 329 137 430
f 305 475 343
f 543 200 139
f 452 194 99
f 271 323 32
f 205 337 540
f 132 174 50
f 216 82 54
f 523 488 159
f 259 452 62
f 533 247 559
f 542 330 225
f 529 32 115
f 436 317 503
f 290 389 413
f 396 110 97
f 7 92 128
f 492 239 83
f 12 296 345
f 50 72 449
f 170 63 71
f 532 141 264
f 268 328 506
f 18 101 490
f 272 338 388
f 484 514 63
f 44 421 176
f 13 166 271
f 67 165 294
f 418 83 424
f 47 229 61
f 465 517 102
f 138 278 393
f 92 51 518
f 84 401 289
f 396 109 110
f 23 15 121
f 121 46 538
f 332 275 468
f 281 526 502
f 163 489 55
f 464 420 535
f 426 438 240
f 157 502 526
f 424 526 560
f 249 469 369
f 114 138 393
f 129 289 546
f 445 190 87
f 223 437 75
f 262 534 481
f 396 548 493
f 513 412 182
f 446 463 51
f 299 561 261
f 351 509 320
f 499 371 292
f 181 398 455
f 497 371 386
f 554 565 200
f 101 117 227
f 482 465 564
f 334 5 340
f 7 51 92
f 565 510 48
f 220 177 366
f 359 440 390
f 353 231 412
f 417 469 160
f 2 98 7
f 64 153 511
f 270 117 101
f 249 185 103
f 534 521 481
f 114 188 248
f 350 378 1
f 79 54 491
f 31 364 49
f 29 30 291
f 489 149 192
f 44 298 421
f 539 560 368
f 142 483 443
f 351 320 242
f 357 505 94
f 276 332 429
f 340 168 359
f 209 78 176
f 485 535 276
f 333 545 266
f 140 480 505
f 459 11 134
f 365 395 270
f 149 536 192
f 251 84 129
f 507 441 450
f 139 200 74
f 476 247 537
f 414 75 254
f 58 256 34
f 293 67 294
f 536 279 192
f 492 83 418
f 412 71 384
f 552 452 259
f 225 72 50
f 488 80 186
f 303 93 104
f 460 258 545
f 184 25 503
f 359 385 440
f 255 405 400
f 234 317 57
f 168 95 440
f 50 449 484
f 387 292 133
f 262 481 433
f 153 433 460
f 210 7 128
f 13 271 529
f 562 33 206
f 43 80 448
f 316 454 221
f 177 59 311
f 41 392 476
f 147 245 373
f 252 354 163
f 431 551 214
f 44 76 20
f 238 264 549
f 105 527 537
f 471 204 70
f 13 386 149
f 459 316 439
f 316 221 439
f 340 442 78
f 546 451 555
f 496 399 397
f 83 157 424
f 202 218 164
f 545 258 213
f 77 85 81
f 401 202 289
f 290 295 389
f 550 509 290
f 265 367 197
f 286 462 426
f 272 226 338
f 491 64 511
f 229 38 427
f 204 144 397
f 306 287 269
f 411 307 420
f 465 116 517
f 483 549 113
f 159 488 65
f 555 68 533
f 226 111 338
f 363 214 6
f 266 336 341
f 304 415 457
f 141 217 222
f 272 443 113
f 524 223 414
f 353 387 133
f 47 171 434
f 9 311 62
f 509 35 295
f 330 159 3
f 162 335 542
f 199 77 135
f 297 408 471
f 24 241 248
f 361 57 134
f 204 399 496
f 249 103 469
f 282 293 195
f 515 8 119
f 246 352 217
f 253 557 8
f 250 206 33
f 558 430 249
f 231 283 43
f 552 259 561
f 554 20 565
f 398 524 455
f 396 97 327
f 51 463 155
f 558 498 430
f 223 546 437
f 32 323 331
f 476 559 247
f 491 368 64
f 345 427 38
f 394 432 260
f 79 136 402
f 531 161 406
f 482 564 86
f 355 190 445
f 440 95 381
f 211 414 254
f 274 243 19
f 472 325 561
f 205 562 337
f 562 252 163
f 103 512 142
f 161 111 14
f 388 338 111
f 93 508 525
f 272 113 226
f 215 528 10
f 551 143 82
f 135 314 287
f 384 71 63
f 524 129 223
f 186 175 342
f 447 16 46
f 473 313 512
f 460 433 258
f 156 467 95
f 384 434 344
f 479 316 459
f 523 165 448
f 259 62 235
f 82 539 368
f 170 165 67
f 519 499 26
f 518 155 329
f 231 107 71
f 354 489 163
f 237 319 12
f 74 565 48
f 5 130 156
f 481 521 88
f 20 187 270
f 43 283 324
f 92 518 60
f 340 78 123
f 173 211 501
f 230 490 59
f 166 489 255
f 226 549 264
f 389 288 409
f 244 410 267
f 519 371 499
f 66 292 371
f 156 277 467
f 91 124 148
f 468 127 112
f 420 208 535
f 143 418 539
f 408 287 144
f 187 365 270
f 432 435 527
f 363 431 214
f 202 164 356
f 353 133 283
f 553 357 462
f 304 391 563
f 463 303 155
f 422 6 480
f 268 477 328
f 153 262 433
f 444 174 178
f 359 440 365
f 282 195 132
f 279 55 192
f 96 164 218
f 545 213 302
f 210 128 27
f 462 357 94
f 56 333 266
f 114 393 188
f 10 154 256
f 473 286 313
f 404 391 457
f 179 175 186
f 124 361 167
f 13 497 386
f 340 42 123
f 348 116 465
f 323 372 331
f 482 348 465
f 216 54 450
f 453 103 185
f 458 11 470
f 250 33 52
f 547 344 150
f 370 21 28
f 105 537 198
f 271 400 323
f 43 324 80
f 47 434 514
f 257 355 445
f 264 96 108
f 29 183 22
f 367 189 89
f 347 66 497
f 483 238 549
f 270 395 117
f 377 507 423
f 436 290 413
f 75 476 392
f 495 279 536
f 453 104 525
f 423 246 73
f 44 176 76
f 306 135 287
f 487 413 193
f 118 291 48
f 337 55 279
f 58 34 428
f 487 57 317
f 440 381 395
f 53 106 350
f 402 56 246
f 529 271 32
f 206 456 91
f 170 67 484
f 544 183 143
f 521 146 260
f 486 552 325
f 229 151 61
f 436 487 317
f 476 527 435
f 547 263 182
f 370 515 21
f 253 8 370
f 295 288 389
f 400 405 273
f 468 184 127
f 196 228 17
f 253 321 351
f 500 294 330
f 255 489 241
f 412 384 182
f 379 540 207
f 274 199 45
f 479 193 316
f 259 235 261
f 515 417 28
f 297 496 204
f 9 62 452
f 420 307 208
f 396 327 548
f 63 514 434
f 383 555 533
f 334 123 466
f 528 46 154
f 562 163 337
f 393 278 376
f 370 8 515
f 250 52 125
f 315 119 180
f 367 89 23
f 554 232 298
f 550 503 25
f 354 206 138
f 118 18 239
f 403 36 407
f 124 167 148
f 511 460 333
f 327 97 331
f 379 205 540
f 246 56 352
f 40 126 360
f 100 404 457
f 125 332 112
f 145 70 196
f 394 260 146
f 231 71 412
f 408 204 471
f 318 416 69
f 52 301 429
f 140 505 357
f 355 27 190
f 5 156 168
f 346 100 470
f 110 109 314
f 121 15 46
f 473 525 462
f 562 354 252
f 409 161 531
f 87 504 180
f 141 222 96
f 117 235 227
f 213 494 68
f 538 27 355
f 544 143 551
f 238 532 264
f 556 410 244
f 379 485 301
f 133 312 243
f 256 154 34
f 128 92 60
f 265 197 12
f 354 138 114
f 281 502 220
f 219 207 263
f 111 541 322
f 99 146 191
f 440 395 365
f 121 355 257
f 49 268 506
f 513 26 499
f 212 160 36
f 522 237 461
f 488 186 65
f 2 120 98
f 162 542 178
f 531 406 375
f 98 328 477
f 515 403 321
f 384 63 434
f 18 490 230
f 426 377 438
f 77 81 135
f 220 59 177
f 436 413 487
f 233 72 444
f 83 230 157
f 29 22 30
f 495 207 540
f 367 556 197
f 374 450 441
f 188 382 334
f 257 445 410
f 285 474 164
f 75 516 476
f 211 152 501
f 114 248 241
f 116 69 363
f 425 13 529
f 24 421 405
f 490 227 311
f 479 459 134
f 387 499 292
f 78 158 176
f 230 59 502
f 171 411 150
f 286 426 240
f 58 428 297
f 428 175 408
f 364 145 446
f 542 225 178
f 394 41 432
f 556 257 410
f 334 382 5
f 350 1 362
f 135 81 314
f 103 142 469
f 293 50 67
f 24 209 421
f 49 446 477
f 334 340 123
f 302 555 236
f 225 189 72
f 418 424 539
f 463 17 303
f 345 296 126
f 507 402 423
f 209 466 78
f 419 152 305
f 152 254 75
f 319 449 72
f 394 520 203
f 49 477 268
f 74 200 565
f 378 557 242
f 276 275 332
f 2 7 210
f 312 292 66
f 535 208 468
f 512 483 142
f 278 148 147
f 125 112 284
f 408 175 45
f 126 557 360
f 359 168 440
f 482 493 348
f 340 359 42
f 188 393 382
f 340 123 42
f 426 505 377
f 179 274 45
f 543 372 232
f 537 247 198
f 377 505 441
f 231 43 107
f 511 153 460
f 183 492 418
f 486 501 419
f 58 31 256
f 263 207 26
f 79 491 136
f 191 146 300
f 396 493 109
f 550 25 320
f 310 87 180
f 286 240 313
f 260 432 527
f 251 129 524
f 433 481 105
f 378 242 1
f 145 196 17
f 127 503 317
f 437 383 349
f 541 108 322
f 428 408 297
f 69 416 431
f 44 554 298
f 133 243 283
f 375 406 84
f 255 241 24
f 453 473 512
f 29 492 183
f 9 191 177
f 214 216 374
f 454 531 375
f 253 370 321
f 322 218 202
f 89 447 46
f 409 388 161
f 340 5 168
f 395 299 117
f 370 515 321
f 9 177 311
f 374 216 450
f 115 97 110
f 381 201 299
f 508 553 462
f 182 384 344
f 161 14 406
f 204 397 86
f 225 72 233
f 521 300 146
f 423 402 246
f 515 315 417
f 101 227 490
f 112 127 234
f 404 224 173
f 237 12 38
f 67 50 484
f 222 341 285
f 100 224 404
f 419 305 194
f 150 420 464
f 45 306 269
f 367 23 556
f 389 409 90
f 93 525 104
f 538 2 27
f 172 39 318
f 540 337 279
f 45 199 306
f 240 423 73
f 376 147 530
f 222 285 96
f 485 276 301
f 121 538 355
f 522 461 319
f 193 454 316
f 259 261 561
f 224 455 211
f 293 294 500
f 543 232 200
f 154 46 16
f 509 295 290
f 487 193 479
f 295 407 288
f 225 50 174
f 379 301 205
f 88 339 527
f 151 106 53
f 410 310 267
f 547 464 219
f 538 46 528
f 264 141 96
f 416 544 431
f 260 527 339
f 545 302 336
f 137 185 430
f 171 61 411
f 408 144 204
f 34 16 342
f 256 506 120
f 144 314 109
f 76 176 158
f 168 156 95
f 464 535 485
f 346 181 100
f 171 344 434
f 102 517 422
f 495 540 279
f 398 251 524
f 354 114 241
f 467 563 472
f 239 18 230
f 115 32 97
f 407 36 272
f 439 398 181
f 453 512 103
f 91 148 278
f 166 400 271
f 152 475 305
f 19 66 347
f 461 319 233
f 353 283 231
f 147 373 415
f 428 342 175
f 333 460 545
f 70 86 196
f 28 160 212
f 43 448 107
f 19 347 77
f 142 443 160
f 39 30 22
f 249 430 185
f 530 304 277
f 41 476 435
f 258 494 213
f 345 40 151
f 155 137 329
f 534 366 521
f 155 303 137
f 106 360 378
f 215 280 528
f 19 243 312
f 451 474 555
f 386 536 149
f 29 291 239
f 95 467 37
f 315 498 558
f 341 336 4
f 546 356 451
f 5 382 130
f 491 511 136
f 299 261 235
f 170 107 165
f 351 321 35
f 508 462 525
f 225 233 178
f 407 272 288
f 169 262 153
f 330 3 89
f 456 284 124
f 159 65 447
f 170 71 107
f 406 401 84
f 166 149 489
f 552 419 308
f 358 229 47
f 385 390 440
f 181 455 224
f 2 280 120
f 508 422 140
f 219 379 207
f 377 423 438
f 225 330 189
f 154 16 34
f 515 119 315
f 61 151 53
f 208 362 184
f 370 28 515
f 461 233 72
f 27 128 190
f 282 132 293
f 319 72 233
f 179 324 274
f 20 48 510
f 518 329 504
f 479 134 57
f 425 497 13
f 558 369 417
f 197 244 296
f 297 471 496
f 90 531 454
f 356 474 451
f 188 466 248
f 519 26 495
f 31 506 256
f 319 72 265
f 523 448 488
f 250 125 456
f 99 305 203
f 31 49 506
f 491 54 368
f 552 194 452
f 354 241 489
f 220 366 534
f 233 444 178
f 378 360 557
f 548 122 348
f 307 350 362
f 14 322 401
f 199 135 306
f 519 536 386
f 547 219 263
f 508 140 553
f 326 331 372
f 184 503 127
f 106 378 350
f 108 218 322
f 490 311 59
f 284 361 124
f 478 8 557
f 352 266 341
f 456 124 91
f 513 387 412
f 95 37 381
f 309 172 318
f 403 212 36
f 171 150 344
f 173 224 211
f 28 417 160
f 448 80 488
f 564 228 196
f 277 563 467
f 548 348 493
f 115 110 81
f 542 500 330
f 64 560 169
f 217 352 222
f 416 22 544
f 453 525 473
f 211 254 152
f 230 502 157
f 513 263 26
f 431 544 551
f 426 462 94
f 414 223 75
# 1142 faces, 0 coords texture

# End of File