####
#
# OBJ File Generated by Meshlab
#
####
# Object domain0661.obj
#
# Vertices: 446
# Faces: 888
#
####
v 200.429291 35.847752 81.066536
v 200.591827 35.836060 80.724991
v 200.553070 35.557377 81.044464
v 200.564621 35.566982 81.951546
v 200.438049 35.838688 81.931282
v 200.603745 35.836361 82.266304
v 200.379242 36.326710 81.044609
v 200.561859 36.324055 80.564293
v 200.404282 36.265896 81.923126
v 200.604156 36.282490 82.418556
v 200.424835 36.807846 81.018150
v 200.589584 36.847122 80.592735
v 200.471390 36.890373 81.489716
v 200.467773 36.606636 81.980881
v 200.547943 37.106670 81.011307
v 200.802246 35.255070 81.040314
v 201.083252 35.246117 80.677925
v 201.105316 34.968117 81.051025
v 201.092789 35.111248 81.934044
v 200.811890 35.296204 81.955055
v 201.083130 35.311905 82.295219
v 200.957733 35.701271 80.367302
v 200.967148 35.713211 82.622200
v 200.859360 36.381081 80.113152
v 201.202911 36.424919 79.817131
v 201.039032 36.066330 80.044891
v 201.038025 36.065769 82.959663
v 200.852966 36.397335 82.879784
v 201.170837 36.407509 83.272751
v 200.880417 36.843204 80.126709
v 201.185150 36.749443 79.862236
v 200.607056 36.948559 82.018883
v 200.940720 36.846294 82.912918
v 201.226929 36.841011 83.385712
v 201.078720 37.047474 80.118637
v 200.803055 37.371014 81.035378
v 201.068512 37.341934 80.586754
v 200.907761 37.394016 81.969475
v 201.076477 37.429527 82.473358
v 201.081238 37.160973 82.959305
v 201.096695 37.528961 81.056892
v 201.115341 37.578747 81.974762
v 201.415070 34.744114 81.017944
v 201.674927 34.769035 80.733376
v 201.682236 34.649590 81.018166
v 201.635361 34.729939 81.432762
v 201.542664 35.123386 80.370995
v 201.593674 34.927563 81.974075
v 201.560211 35.170536 82.518921
v 201.304169 35.758160 80.017647
v 201.706345 35.868393 79.760178
v 201.596527 35.466507 80.018051
v 201.603043 35.475132 82.976852
v 201.299042 35.754047 82.991386
v 201.650696 35.813305 83.339104
v 201.620178 36.340908 79.681740
v 201.548325 36.292068 83.626801
v 201.588028 36.761848 79.780350
v 201.644226 36.657078 83.936066
v 201.519730 36.914684 83.847290
v 201.836594 36.923073 84.173332
v 201.584534 37.115467 80.074852
v 201.590027 37.433388 80.539368
v 201.315094 37.485798 82.987152
v 201.589432 37.499153 83.495323
v 201.655991 37.179745 83.949249
v 201.596924 37.662411 81.038925
v 201.574127 37.858986 81.983147
v 201.599670 37.771408 82.978790
v 202.109985 34.786877 80.586052
v 202.076340 34.644478 81.005554
v 202.121323 34.730980 81.434868
v 201.906677 35.205635 80.050339
v 202.262985 35.368206 79.822929
v 202.235458 35.027973 80.139862
v 202.183426 34.882919 81.986046
v 202.238556 35.149433 82.900063
v 201.923233 35.242558 82.941849
v 202.254410 35.348114 83.267059
v 202.179001 35.782303 79.681778
v 202.128067 35.708012 83.630363
v 202.140594 36.302536 79.668816
v 202.176590 36.045975 83.992027
v 201.890350 36.343899 83.985031
v 202.255020 36.412655 84.320892
v 202.069336 36.724789 79.795868
v 202.211792 36.916222 84.534294
v 202.118469 37.077385 80.097809
v 202.179230 37.407166 80.542969
v 201.826248 37.537216 84.006439
v 202.171417 37.470428 84.470886
v 202.140991 37.741814 81.054436
v 201.913147 38.032337 82.013298
v 202.213333 37.968803 81.559456
v 201.896927 38.058422 83.006409
v 202.075958 38.006924 83.950691
v 202.322342 38.018799 84.414352
v 202.245300 38.175331 82.051971
v 202.220932 38.338257 82.987190
v 202.281403 38.293568 83.970009
v 202.357590 34.728676 81.005486
v 202.572876 35.360817 79.861641
v 202.626801 35.158794 80.088371
v 202.684799 34.929222 81.003723
v 202.680099 35.047295 81.995567
v 202.672409 35.154064 82.935478
v 202.699310 35.364952 83.417908
v 202.596954 35.750637 79.784920
v 202.833023 35.581379 83.882454
v 202.486816 35.780731 83.965614
v 202.833893 35.898266 84.287468
v 202.563461 36.231346 79.795265
v 202.716660 36.294403 84.627769
v 202.715210 36.595333 80.046608
v 202.433121 36.876690 80.047203
v 202.788910 36.950466 80.377869
v 202.788513 36.650379 84.961510
v 202.573044 36.965115 84.914986
v 202.925903 37.002441 85.262184
v 202.683167 37.356468 80.703941
v 202.529663 37.504803 84.948448
v 202.867371 37.508541 85.340645
v 202.701828 37.670212 81.089111
v 202.767319 37.975971 81.553757
v 202.614288 38.030392 84.908478
v 202.957291 38.008335 85.399834
v 202.736893 38.302284 82.067314
v 202.535599 38.570595 83.021194
v 202.807205 38.528709 82.568604
v 202.550583 38.569557 83.979706
v 202.801529 38.616554 84.476570
v 202.813904 38.340141 84.965446
v 202.849228 38.709023 83.053955
v 202.851715 38.771255 83.976334
v 202.769562 35.295219 80.086006
v 202.995758 35.219593 80.989342
v 203.016312 35.205353 81.995110
v 203.002350 35.252483 82.974518
v 202.943619 35.735546 80.099518
v 203.190384 35.799850 80.575134
v 203.248337 35.522530 81.029266
v 203.339203 35.468945 82.021095
v 203.354446 35.390095 83.022102
v 203.327698 35.628780 83.946182
v 203.334961 35.876244 84.447670
v 202.908997 36.279903 80.101624
v 203.221863 36.338875 80.554115
v 203.393509 36.170822 84.908379
v 203.075592 36.368313 84.960983
v 203.429626 36.487942 85.276657
v 203.191757 36.842251 80.708824
v 203.346054 36.920601 85.568474
v 203.307419 37.185532 81.036201
v 203.023193 37.468765 81.036728
v 203.374176 37.536217 81.378372
v 203.216660 37.444088 85.683876
v 203.268616 37.940208 81.706223
v 203.380325 37.810349 85.958473
v 203.272110 38.082802 85.848259
v 203.606216 38.083942 86.132462
v 203.287155 38.249569 82.092590
v 203.355698 38.551533 82.557014
v 203.069275 38.659473 84.987473
v 203.374039 38.644707 85.479279
v 203.428085 38.328106 85.926506
v 203.352158 38.799835 83.052216
v 203.329285 39.034321 83.979691
v 203.375870 38.918598 84.969757
v 203.410065 35.834274 81.052109
v 203.639267 35.752583 81.974869
v 203.882309 35.798584 82.521767
v 203.830566 35.656048 83.026199
v 203.839233 35.700893 83.948502
v 203.884140 35.883923 84.433235
v 203.552567 36.317696 81.071075
v 203.797394 36.377289 81.570953
v 203.885590 36.069527 82.022980
v 203.952835 36.096416 84.941109
v 203.924500 36.441006 85.450157
v 203.504105 36.867531 81.090485
v 203.815353 36.926353 81.547745
v 203.995117 36.770706 85.887848
v 203.741898 36.979897 85.910660
v 204.094620 37.092300 86.169395
v 203.781387 37.429321 81.706497
v 203.579865 37.480740 86.022774
v 204.005951 37.546352 86.298149
v 203.899170 37.774761 82.031715
v 203.609467 38.055077 82.036560
v 203.967987 38.128345 82.371429
v 203.984268 38.079498 86.367889
v 203.855255 38.524700 82.707283
v 203.678696 38.635445 85.959404
v 204.045792 38.569336 86.287392
v 203.847534 38.844154 83.112999
v 203.678589 39.181229 84.016968
v 203.990814 39.086742 83.568146
v 203.708374 39.164875 84.979233
v 203.977524 39.187382 85.473663
v 203.970963 38.927265 85.964584
v 204.015305 39.288155 84.053444
v 204.027649 39.322399 84.972397
v 204.144775 35.842041 83.017639
v 204.176331 35.826729 83.980774
v 204.087036 36.386799 82.076881
v 204.375229 36.394951 82.580811
v 204.439774 36.121284 83.055504
v 204.524750 35.979202 84.022110
v 204.499008 36.176971 84.961494
v 204.513046 36.396511 85.467270
v 204.163712 36.922642 82.039528
v 204.523880 36.943935 82.521706
v 204.521469 36.704304 85.937180
v 204.527756 37.048496 86.277267
v 204.115891 37.461472 82.075409
v 204.470779 37.502178 82.464272
v 204.517960 37.498268 86.506447
v 204.429260 38.008789 82.679886
v 204.468491 38.064259 86.636612
v 204.514206 38.383255 82.999641
v 204.203262 38.651508 83.029327
v 204.598663 38.765484 83.314423
v 204.467194 38.668049 86.594467
v 204.516190 39.132622 83.666031
v 204.261627 39.201927 85.970245
v 204.602570 39.163490 86.420815
v 204.526596 39.362316 84.061661
v 204.530121 39.502407 84.999924
v 204.592194 39.378925 85.959633
v 204.694473 36.390362 83.068047
v 205.012802 36.426594 83.575424
v 204.993317 36.255054 84.031693
v 205.012848 36.279491 84.949860
v 205.055771 36.456688 85.438393
v 204.878662 36.888397 82.954628
v 205.194916 36.870110 83.342255
v 205.119858 36.674374 85.938881
v 205.102600 37.015999 86.356880
v 204.852417 37.498016 82.822433
v 205.070160 37.223682 83.034851
v 205.012024 37.418274 86.685890
v 205.060059 37.774372 83.046127
v 204.806534 38.089699 83.000778
v 205.214111 38.190479 83.272652
v 205.111862 37.807281 86.991440
v 204.875427 38.122440 86.962326
v 205.237030 38.147663 87.417183
v 205.110001 38.691090 83.447945
v 204.825928 38.678139 86.983635
v 205.149979 38.677074 87.470512
v 205.100891 39.129906 83.710625
v 204.929993 39.212303 86.926430
v 205.207275 39.219181 87.441238
v 205.106201 39.410881 84.059738
v 205.056824 39.675140 84.981903
v 205.062439 39.655201 85.999603
v 205.151474 39.499954 86.961685
v 205.310013 36.440273 84.025040
v 205.348312 36.412724 84.981735
v 205.596527 37.003559 83.681488
v 205.628204 36.699879 84.055634
v 205.699615 36.560654 85.021706
v 205.667770 36.774727 85.955009
v 205.665848 37.027721 86.463249
v 205.221848 37.504517 83.127281
v 205.634399 37.525066 83.457314
v 205.730209 37.320057 86.933144
v 205.401642 37.516243 86.989418
v 205.742172 37.620213 87.429016
v 205.683228 38.094082 83.490112
v 205.769806 37.939640 87.901100
v 205.557159 38.171337 87.889626
v 205.838242 38.226974 88.261269
v 205.674652 38.666389 83.573540
v 205.452835 38.684212 87.962318
v 205.786987 38.667770 88.456100
v 205.672729 39.115902 83.756004
v 205.443481 39.274445 87.950478
v 205.749893 39.256241 88.460808
v 205.656296 39.478485 84.080452
v 205.421951 39.795292 85.010902
v 205.725311 39.705685 84.565956
v 205.400848 39.832893 85.998962
v 205.421707 39.808449 87.007072
v 205.621933 39.758793 87.941826
v 205.851105 39.776272 88.408989
v 205.767120 39.870731 85.057236
v 205.748596 39.982342 86.008202
v 205.734146 40.098759 86.986282
v 205.802765 40.048672 87.968864
v 205.935043 36.965160 84.037987
v 206.217987 36.983906 84.527855
v 206.176208 36.827511 85.027367
v 206.184113 36.867722 85.949753
v 206.230408 37.045036 86.438286
v 206.075256 37.600586 83.769936
v 206.199829 37.267723 84.058365
v 206.315430 37.249962 86.978981
v 206.254059 37.470749 87.525932
v 206.140579 38.099388 83.724266
v 206.249680 37.747417 88.032104
v 206.239075 38.080612 88.526665
v 206.131332 38.663460 83.750679
v 206.326111 38.425282 88.946106
v 206.117493 38.730415 88.898094
v 206.459091 38.773708 89.222023
v 206.094696 39.084316 83.844818
v 206.067947 39.261417 88.931053
v 206.415619 39.262283 89.285454
v 206.186218 39.380581 84.125771
v 206.216110 39.679455 84.591759
v 206.138519 39.785454 88.894417
v 206.460693 39.756420 89.242081
v 206.209625 39.883579 85.081970
v 206.255585 40.137348 86.012344
v 206.049377 40.330383 87.019386
v 206.318268 40.315132 86.553436
v 206.066666 40.327347 87.979752
v 206.322769 40.368118 88.473572
v 206.341797 40.087662 88.945900
v 206.363739 40.474754 87.051453
v 206.366379 40.530827 87.976280
v 206.495071 37.006958 85.016266
v 206.521576 36.996830 85.981087
v 206.423904 37.564217 84.098221
v 206.779160 37.582970 84.575966
v 206.809692 37.273991 85.042282
v 206.871140 37.142769 86.023827
v 206.843735 37.303730 86.981834
v 206.858734 37.526649 87.896492
v 206.587250 37.574486 87.968086
v 206.864258 37.721363 88.387718
v 206.525177 38.095463 84.040848
v 206.898148 38.095745 84.411118
v 206.938263 37.949085 88.880127
v 206.611160 38.151260 88.941032
v 206.957535 38.273460 89.225464
v 206.532501 38.671860 84.034714
v 206.920731 38.675053 84.388885
v 206.881042 38.690449 89.457573
v 206.421295 39.187778 84.114906
v 206.844391 39.225216 84.529694
v 206.842468 39.238583 89.593071
v 206.545441 39.802219 85.021973
v 206.874603 39.604282 84.971657
v 206.881210 39.897644 85.469749
v 206.883026 39.840176 89.541435
v 206.833435 40.111595 85.993225
v 206.861603 40.382694 86.526978
v 206.607666 40.392624 88.957985
v 206.967453 40.316772 89.278511
v 206.869980 40.580296 87.041870
v 206.848511 40.782433 87.982277
v 206.921646 40.640652 88.941162
v 207.113953 37.543102 85.024208
v 207.389008 37.568558 85.527527
v 207.349197 37.409550 86.026375
v 207.348389 37.434982 86.970116
v 207.138870 37.561226 87.983322
v 207.430222 37.539970 87.493530
v 207.263824 38.173706 84.741722
v 207.374863 37.849693 85.052971
v 207.508377 37.651623 88.035690
v 207.442139 37.948059 88.941887
v 207.455399 38.214561 89.333252
v 207.304062 38.675716 84.705925
v 207.367142 38.606621 89.663490
v 207.265945 39.112175 84.790840
v 207.476547 38.994888 89.953064
v 207.257812 39.300938 89.913887
v 207.640213 39.362610 90.159142
v 207.357590 39.408726 85.103127
v 207.385757 39.724560 85.573860
v 207.290970 39.781704 89.872871
v 207.620148 39.672874 90.124702
v 207.396286 40.029877 86.067764
v 207.447388 40.315845 86.550674
v 207.530334 39.989017 89.835281
v 207.405182 40.336514 89.416992
v 207.408142 40.612991 87.067513
v 207.194550 40.904484 88.021843
v 207.440186 40.775196 87.598183
v 207.249756 40.861294 88.940811
v 207.390213 40.749557 89.108147
v 207.419586 40.941845 88.062714
v 207.420990 40.921749 88.926071
v 207.649689 37.611217 86.019203
v 207.673553 37.591976 86.986191
v 207.578140 38.152515 85.104866
v 207.862183 38.161488 85.591949
v 207.914856 37.889931 86.036118
v 208.006989 37.826168 87.040077
v 208.017380 37.831993 87.999321
v 208.011810 37.992912 88.941040
v 207.989594 38.254654 89.405617
v 207.639923 38.675102 85.073860
v 207.945236 38.676182 85.550972
v 208.043121 38.595863 89.772087
v 207.767303 38.746101 89.921501
v 207.944214 38.942135 90.046501
v 207.561432 39.177895 85.121948
v 207.873672 39.196579 85.589264
v 207.873978 39.281151 90.154137
v 207.700836 39.805126 86.031906
v 207.968369 39.514523 86.035248
v 207.989151 39.860909 86.489342
v 207.841522 39.649258 90.127884
v 207.864014 40.252705 86.757179
v 207.837402 40.493355 87.997429
v 208.030136 40.150948 88.003555
v 207.960358 40.385910 87.491714
v 207.745590 40.429672 88.983879
v 207.959366 40.109661 89.019852
v 207.893997 39.846447 89.907234
v 207.865219 40.441147 87.066116
v 207.510910 40.888748 88.042656
v 207.484131 40.885853 88.934662
v 208.088486 38.181744 86.058037
v 208.300827 38.116348 86.982880
v 208.485611 38.174091 87.527069
v 208.475082 38.056496 88.027168
v 208.487473 38.084328 88.930290
v 208.298599 38.231358 89.189415
v 208.241608 38.673489 86.067772
v 208.415161 38.677292 86.595139
v 208.503784 38.426189 87.037117
v 208.565659 38.663445 87.495857
v 208.502548 38.754692 88.024704
v 208.571213 38.390194 88.001640
v 208.400223 38.706795 89.033607
v 208.501923 38.339787 88.962296
v 208.065384 38.770405 89.905113
v 208.115189 39.194523 86.069939
v 208.514481 38.913071 87.008377
v 208.394485 39.280594 87.006325
v 208.348709 39.268990 88.001877
v 208.289352 39.253574 88.997360
v 208.078659 39.254410 89.912613
v 208.187363 39.810917 87.015930
v 208.175720 39.796219 87.983498
v 208.125946 39.769939 88.999359
v 207.999496 39.713223 89.920258
v 208.007187 40.297077 87.034683
v 208.540771 38.142162 88.009674
v 208.525787 38.123390 88.926941
v 208.548950 38.651829 87.048546
# 446 vertices, 0 vertices normals

f 3 2 1
f 5 4 1
f 1 4 3
f 5 6 4
f 1 2 7
f 7 2 8
f 1 9 5
f 1 7 9
f 6 5 10
f 10 5 9
f 7 8 11
f 11 8 12
f 14 9 13
f 9 11 13
f 9 7 11
f 9 14 10
f 12 15 11
f 11 15 13
f 18 17 16
f 20 19 16
f 16 19 18
f 20 21 19
f 16 17 3
f 17 2 3
f 17 22 2
f 16 3 4
f 16 4 20
f 4 6 20
f 6 21 20
f 6 23 21
f 26 25 24
f 22 26 24
f 8 22 24
f 2 22 8
f 10 28 27
f 23 10 27
f 6 10 23
f 28 29 27
f 24 25 30
f 30 25 31
f 30 12 8
f 30 8 24
f 13 32 14
f 28 10 14
f 32 28 14
f 33 28 32
f 29 28 34
f 34 28 33
f 31 35 30
f 35 37 36
f 35 36 15
f 30 35 15
f 12 30 15
f 32 13 15
f 36 32 15
f 38 32 36
f 40 33 39
f 33 38 39
f 33 32 38
f 33 40 34
f 37 41 36
f 36 41 38
f 38 41 42
f 38 42 39
f 45 44 43
f 43 46 45
f 43 44 18
f 44 17 18
f 44 47 17
f 48 46 43
f 18 48 43
f 19 48 18
f 19 21 48
f 48 21 49
f 52 51 50
f 47 52 50
f 22 47 50
f 17 47 22
f 23 54 53
f 49 23 53
f 21 23 49
f 54 55 53
f 50 51 26
f 51 25 26
f 51 56 25
f 50 26 22
f 27 54 23
f 27 29 54
f 29 55 54
f 29 57 55
f 56 31 25
f 58 31 56
f 34 60 59
f 57 34 59
f 29 34 57
f 60 61 59
f 58 62 31
f 31 62 35
f 37 35 62
f 37 62 63
f 39 64 40
f 64 65 40
f 40 65 34
f 65 66 34
f 66 60 34
f 60 66 61
f 63 67 37
f 37 67 41
f 41 68 42
f 67 68 41
f 39 42 64
f 42 69 64
f 42 68 69
f 64 69 65
f 71 70 45
f 45 70 44
f 45 46 71
f 71 46 72
f 75 74 73
f 70 75 73
f 47 70 73
f 44 70 47
f 76 72 46
f 76 46 48
f 78 77 49
f 77 48 49
f 77 76 48
f 78 79 77
f 73 74 52
f 74 51 52
f 74 80 51
f 73 52 47
f 53 78 49
f 53 55 78
f 55 79 78
f 55 81 79
f 80 56 51
f 82 56 80
f 57 84 83
f 81 57 83
f 55 57 81
f 84 85 83
f 82 58 56
f 86 58 82
f 59 84 57
f 59 61 84
f 61 85 84
f 61 87 85
f 86 88 58
f 58 88 62
f 63 62 88
f 63 88 89
f 65 90 66
f 90 91 66
f 91 61 66
f 91 87 61
f 89 92 63
f 63 92 67
f 92 94 93
f 68 92 93
f 67 92 68
f 95 69 68
f 95 68 93
f 90 65 69
f 95 90 69
f 96 90 95
f 91 90 97
f 97 90 96
f 94 98 93
f 93 98 95
f 95 98 99
f 95 99 96
f 96 99 100
f 96 100 97
f 101 70 71
f 72 101 71
f 103 102 75
f 75 102 74
f 75 70 101
f 104 75 101
f 103 75 104
f 104 101 72
f 76 104 72
f 105 104 76
f 106 76 77
f 106 105 76
f 77 79 106
f 106 79 107
f 102 80 74
f 108 80 102
f 81 110 109
f 107 81 109
f 79 81 107
f 110 111 109
f 108 82 80
f 112 82 108
f 83 110 81
f 83 85 110
f 85 111 110
f 85 113 111
f 115 86 114
f 86 112 114
f 86 82 112
f 116 115 114
f 87 118 117
f 113 87 117
f 85 87 113
f 118 119 117
f 115 88 86
f 89 88 115
f 116 89 115
f 120 89 116
f 91 121 118
f 91 118 87
f 119 118 122
f 122 118 121
f 120 123 89
f 89 123 92
f 94 92 123
f 94 123 124
f 97 125 121
f 97 121 91
f 122 121 126
f 126 121 125
f 124 127 94
f 94 127 98
f 127 129 128
f 99 127 128
f 98 127 99
f 130 100 99
f 130 99 128
f 130 131 100
f 100 131 97
f 131 132 97
f 132 125 97
f 125 132 126
f 129 133 128
f 128 133 130
f 130 133 134
f 130 134 131
f 135 102 103
f 104 136 103
f 103 136 135
f 105 137 104
f 104 137 136
f 106 138 105
f 105 138 137
f 107 138 106
f 139 108 135
f 135 108 102
f 136 141 140
f 139 136 140
f 135 136 139
f 141 136 137
f 141 137 142
f 142 137 138
f 142 138 143
f 143 138 107
f 109 143 107
f 144 143 109
f 109 111 144
f 144 111 145
f 146 112 139
f 139 112 108
f 139 140 147
f 139 147 146
f 113 149 148
f 145 113 148
f 111 113 145
f 149 150 148
f 146 114 112
f 116 114 146
f 147 116 146
f 151 116 147
f 117 149 113
f 117 119 149
f 119 150 149
f 119 152 150
f 154 120 153
f 120 151 153
f 120 116 151
f 155 154 153
f 122 152 119
f 122 156 152
f 154 123 120
f 124 123 154
f 155 124 154
f 157 124 155
f 126 159 158
f 156 126 158
f 122 126 156
f 159 160 158
f 157 161 124
f 124 161 127
f 129 127 161
f 129 161 162
f 131 163 132
f 163 164 132
f 132 164 126
f 164 165 126
f 165 159 126
f 159 165 160
f 162 166 129
f 129 166 133
f 133 167 134
f 166 167 133
f 131 134 163
f 134 168 163
f 134 167 168
f 163 168 164
f 169 140 141
f 142 170 141
f 141 170 169
f 170 142 171
f 142 172 171
f 142 143 172
f 173 143 144
f 173 172 143
f 144 145 173
f 173 145 174
f 175 147 169
f 169 147 140
f 170 177 176
f 175 170 176
f 169 170 175
f 177 170 171
f 178 174 145
f 178 145 148
f 148 150 178
f 178 150 179
f 180 151 175
f 175 151 147
f 175 176 181
f 175 181 180
f 152 183 182
f 179 152 182
f 150 152 179
f 183 184 182
f 180 153 151
f 155 153 180
f 181 155 180
f 185 155 181
f 156 186 183
f 156 183 152
f 184 183 187
f 187 183 186
f 189 157 188
f 157 185 188
f 157 155 185
f 190 189 188
f 158 186 156
f 158 160 186
f 160 187 186
f 160 191 187
f 189 161 157
f 162 161 189
f 190 162 189
f 192 162 190
f 164 193 165
f 193 194 165
f 194 160 165
f 194 191 160
f 192 195 162
f 162 195 166
f 195 197 196
f 167 195 196
f 166 195 167
f 198 168 167
f 198 167 196
f 198 199 168
f 168 199 164
f 199 200 164
f 200 193 164
f 193 200 194
f 197 201 196
f 196 201 198
f 198 201 202
f 198 202 199
f 203 171 172
f 173 204 172
f 172 204 203
f 174 204 173
f 205 176 177
f 206 205 177
f 206 177 171
f 207 206 171
f 203 207 171
f 207 203 204
f 207 204 208
f 208 204 174
f 178 208 174
f 209 208 178
f 178 179 209
f 209 179 210
f 211 181 205
f 205 181 176
f 205 206 212
f 205 212 211
f 213 210 179
f 213 179 182
f 182 184 213
f 213 184 214
f 215 185 211
f 211 185 181
f 211 212 216
f 211 216 215
f 187 214 184
f 187 217 214
f 215 188 185
f 190 188 215
f 216 190 215
f 218 190 216
f 191 217 187
f 191 219 217
f 221 192 220
f 192 218 220
f 192 190 218
f 222 221 220
f 194 219 191
f 194 223 219
f 221 195 192
f 197 195 221
f 222 197 221
f 224 197 222
f 199 225 200
f 225 226 200
f 226 194 200
f 226 223 194
f 224 227 197
f 197 227 201
f 201 228 202
f 227 228 201
f 199 202 225
f 202 229 225
f 202 228 229
f 225 229 226
f 230 206 207
f 230 207 231
f 207 232 231
f 207 208 232
f 233 208 209
f 233 232 208
f 209 210 233
f 233 210 234
f 235 212 230
f 230 212 206
f 230 231 236
f 230 236 235
f 237 234 210
f 237 210 213
f 213 214 237
f 237 214 238
f 240 239 235
f 239 212 235
f 239 216 212
f 240 235 236
f 217 238 214
f 217 241 238
f 243 218 242
f 218 239 242
f 218 216 239
f 244 243 242
f 219 246 245
f 241 219 245
f 217 219 241
f 246 247 245
f 243 220 218
f 222 220 243
f 244 222 243
f 248 222 244
f 223 249 246
f 223 246 219
f 247 246 250
f 250 246 249
f 248 224 222
f 251 224 248
f 226 252 249
f 226 249 223
f 250 249 253
f 253 249 252
f 251 254 224
f 224 254 227
f 227 255 228
f 254 255 227
f 228 256 229
f 255 256 228
f 226 229 252
f 229 257 252
f 229 256 257
f 252 257 253
f 258 231 232
f 233 259 232
f 232 259 258
f 234 259 233
f 261 260 258
f 260 231 258
f 260 236 231
f 261 258 259
f 261 259 262
f 262 259 234
f 237 262 234
f 263 262 237
f 237 238 263
f 263 238 264
f 265 239 240
f 266 265 240
f 236 266 240
f 260 266 236
f 241 268 267
f 264 241 267
f 238 241 264
f 268 269 267
f 265 242 239
f 244 242 265
f 266 244 265
f 270 244 266
f 245 268 241
f 272 271 247
f 247 271 245
f 271 269 245
f 269 268 245
f 272 273 271
f 270 248 244
f 274 248 270
f 250 275 272
f 250 272 247
f 273 272 276
f 276 272 275
f 274 251 248
f 277 251 274
f 253 278 275
f 253 275 250
f 276 275 279
f 279 275 278
f 277 280 251
f 251 280 254
f 280 282 281
f 255 280 281
f 254 280 255
f 283 256 255
f 283 255 281
f 284 257 256
f 284 256 283
f 278 253 257
f 284 278 257
f 285 278 284
f 279 278 286
f 286 278 285
f 282 287 281
f 281 287 283
f 283 287 288
f 283 288 284
f 284 288 289
f 284 289 285
f 285 289 290
f 285 290 286
f 291 260 261
f 291 261 292
f 261 293 292
f 261 262 293
f 294 262 263
f 294 293 262
f 263 264 294
f 294 264 295
f 297 296 291
f 296 260 291
f 296 266 260
f 297 291 292
f 298 295 264
f 298 264 267
f 267 269 298
f 298 269 299
f 296 270 266
f 300 270 296
f 301 299 269
f 301 269 271
f 271 273 301
f 301 273 302
f 300 274 270
f 303 274 300
f 276 305 304
f 302 276 304
f 273 276 302
f 305 306 304
f 303 277 274
f 307 277 303
f 279 308 305
f 279 305 276
f 306 305 309
f 309 305 308
f 307 310 277
f 277 310 280
f 282 280 310
f 282 310 311
f 286 312 308
f 286 308 279
f 309 308 313
f 313 308 312
f 311 314 282
f 282 314 287
f 287 315 288
f 314 315 287
f 315 317 316
f 289 315 316
f 288 315 289
f 318 290 289
f 318 289 316
f 318 319 290
f 290 319 286
f 319 320 286
f 320 312 286
f 312 320 313
f 317 321 316
f 316 321 318
f 318 321 322
f 318 322 319
f 323 292 293
f 294 324 293
f 293 324 323
f 295 324 294
f 325 296 297
f 326 325 297
f 326 297 292
f 327 326 292
f 323 327 292
f 327 323 324
f 327 324 328
f 328 324 295
f 298 328 295
f 329 328 298
f 331 330 299
f 330 298 299
f 330 329 298
f 331 332 330
f 333 300 325
f 325 300 296
f 325 326 334
f 325 334 333
f 301 331 299
f 336 335 302
f 302 335 301
f 335 332 301
f 332 331 301
f 336 337 335
f 338 303 333
f 333 303 300
f 333 334 339
f 333 339 338
f 304 336 302
f 304 306 336
f 306 337 336
f 306 340 337
f 341 307 338
f 338 307 303
f 338 339 342
f 338 342 341
f 309 340 306
f 309 343 340
f 341 310 307
f 345 344 311
f 345 311 310
f 342 345 310
f 341 342 310
f 346 344 345
f 313 343 309
f 313 347 343
f 344 314 311
f 346 348 344
f 348 314 344
f 348 315 314
f 317 315 348
f 317 348 349
f 319 350 320
f 350 351 320
f 351 313 320
f 351 347 313
f 349 352 317
f 317 352 321
f 321 353 322
f 352 353 321
f 319 322 350
f 322 354 350
f 322 353 354
f 350 354 351
f 355 326 327
f 355 327 356
f 327 357 356
f 327 328 357
f 358 328 329
f 358 357 328
f 360 358 359
f 358 330 359
f 358 329 330
f 332 359 330
f 362 361 355
f 361 326 355
f 361 334 326
f 362 355 356
f 363 360 359
f 363 359 332
f 335 363 332
f 364 363 335
f 335 337 364
f 364 337 365
f 361 339 334
f 366 339 361
f 340 365 337
f 340 367 365
f 366 342 339
f 368 342 366
f 343 370 369
f 367 343 369
f 340 343 367
f 370 371 369
f 368 372 342
f 342 372 345
f 346 345 372
f 346 372 373
f 347 374 370
f 347 370 343
f 371 370 375
f 375 370 374
f 373 376 346
f 346 376 348
f 349 348 376
f 349 376 377
f 379 378 374
f 347 379 374
f 351 379 347
f 374 378 375
f 377 380 349
f 349 380 352
f 380 382 381
f 353 380 381
f 352 380 353
f 383 354 353
f 383 353 381
f 383 384 354
f 384 351 354
f 384 379 351
f 382 385 381
f 381 385 383
f 383 385 386
f 383 386 384
f 387 356 357
f 358 388 357
f 357 388 387
f 360 388 358
f 389 361 362
f 390 389 362
f 390 362 356
f 391 390 356
f 387 391 356
f 391 387 388
f 391 388 392
f 392 388 360
f 363 392 360
f 393 392 363
f 394 363 364
f 394 393 363
f 364 365 394
f 394 365 395
f 396 366 389
f 389 366 361
f 389 390 397
f 389 397 396
f 367 399 398
f 395 367 398
f 365 367 395
f 399 400 398
f 401 368 396
f 396 368 366
f 396 397 402
f 396 402 401
f 369 399 367
f 369 371 399
f 371 400 399
f 371 403 400
f 401 372 368
f 405 404 373
f 405 373 372
f 402 405 372
f 401 402 372
f 406 404 405
f 375 403 371
f 375 407 403
f 404 376 373
f 377 376 404
f 406 377 404
f 408 377 406
f 411 410 409
f 413 412 409
f 413 409 410
f 378 379 412
f 413 378 412
f 414 378 413
f 375 378 407
f 407 378 414
f 408 415 377
f 377 415 380
f 409 416 382
f 415 409 382
f 380 415 382
f 411 409 415
f 417 409 412
f 416 409 417
f 384 417 379
f 379 417 412
f 416 385 382
f 385 416 386
f 386 416 417
f 386 417 384
f 418 390 391
f 392 419 391
f 391 419 418
f 419 392 420
f 392 421 420
f 392 393 421
f 422 393 394
f 422 421 393
f 394 395 422
f 422 395 423
f 424 397 418
f 418 397 390
f 419 426 425
f 424 419 425
f 418 419 424
f 429 428 427
f 420 426 419
f 431 430 428
f 431 428 429
f 432 430 398
f 430 423 398
f 423 395 398
f 423 430 431
f 400 432 398
f 433 402 424
f 424 402 397
f 424 425 434
f 435 424 434
f 433 424 435
f 435 434 427
f 428 435 427
f 436 435 428
f 437 428 430
f 436 428 437
f 438 430 432
f 437 430 438
f 403 438 400
f 400 438 432
f 433 405 402
f 405 433 406
f 433 439 406
f 433 435 439
f 440 435 436
f 439 435 440
f 441 436 437
f 440 436 441
f 442 437 438
f 441 437 442
f 407 442 403
f 403 442 438
f 443 408 439
f 439 408 406
f 411 443 410
f 443 440 410
f 443 439 440
f 410 440 413
f 413 440 441
f 413 441 414
f 414 441 442
f 414 442 407
f 443 415 408
f 415 443 411
f 444 420 421
f 422 445 421
f 421 445 444
f 423 445 422
f 446 425 426
f 426 420 446
f 420 444 446
f 429 427 446
f 429 446 444
f 429 444 431
f 431 444 445
f 431 445 423
f 446 434 425
f 434 446 427
# 888 faces, 0 coords texture

# End of File