####
#
# OBJ File Generated by Meshlab
#
####
# Object domain096.obj
#
# Vertices: 571
# Faces: 1142
#
####
v 88.784607 127.461815 131.625610
v 84.738693 118.002823 143.498520
v 107.032204 125.498672 133.741074
v 103.397110 125.209885 132.932892
v 108.610687 120.708229 143.932571
v 95.224998 132.094467 136.968323
v 92.888748 118.654617 138.995300
v 82.274933 124.939552 134.794052
v 106.260406 122.641342 147.531647
v 96.078629 115.948174 143.447891
v 95.226166 122.233833 149.875488
v 99.327034 129.272385 141.039017
v 82.790596 121.208435 139.313889
v 86.729362 126.581749 145.151306
v 108.723701 127.521797 134.964523
v 99.327866 133.695999 132.058411
v 80.284416 130.031418 139.451630
v 97.257149 118.575722 138.797668
v 79.366905 131.750732 133.312332
v 85.716553 117.636032 143.823807
v 108.277351 127.324722 134.271561
v 92.879402 120.698196 150.228226
v 103.428581 133.181061 134.639587
v 103.344406 133.424500 132.899063
v 88.779060 132.096024 136.969452
v 105.669319 116.654037 143.370178
v 84.679520 134.049423 132.401794
v 86.728889 134.122787 132.917068
v 108.970978 125.243065 136.741928
v 92.880814 131.549225 131.606369
v 77.636673 129.535034 137.122467
v 80.362595 128.913345 140.774216
v 99.329338 116.051765 143.510284
v 108.931145 131.554840 134.719345
v 101.291412 129.579407 131.773865
v 97.277550 133.695053 132.061157
v 86.730904 127.462425 131.760803
v 88.948441 117.573463 141.294357
v 107.408752 117.301338 143.049744
v 83.534424 119.148354 146.812973
v 90.830009 129.505890 131.507355
v 86.728043 129.273682 141.039871
v 90.829933 131.550201 131.597809
v 97.275764 129.505920 131.544907
v 86.702805 120.503464 138.139038
v 81.552750 123.709030 144.807724
v 90.899986 116.798721 143.425964
v 83.595726 120.161781 139.989075
v 108.681358 132.687851 134.479263
v 80.936661 123.406410 138.758621
v 86.725555 123.116463 149.194382
v 90.773956 120.187263 137.866226
v 82.047043 124.954826 145.276886
v 86.533615 122.075256 136.274750
v 95.196136 118.914627 149.843353
v 86.743156 117.324692 149.380386
v 84.680931 134.107468 132.914246
v 90.829979 129.273666 141.039886
v 109.101784 120.872726 143.138596
v 105.726334 129.511444 132.742706
v 99.298126 115.867310 145.456879
v 85.370857 117.813805 142.976456
v 103.428940 129.275269 141.041092
v 86.044258 118.833092 149.745193
v 88.761337 121.381371 136.624268
v 97.365753 116.468033 147.219803
v 99.205406 119.338005 149.966187
v 84.681557 131.547348 131.663498
v 90.830002 132.095276 136.968903
v 80.651009 125.211975 143.192047
v 101.319901 134.110138 132.858780
v 88.779236 129.505981 131.524826
v 106.416000 118.282738 145.766403
v 104.734978 119.141594 148.305649
v 88.779045 134.125565 132.917633
v 90.827911 134.066757 132.394836
v 80.290062 131.956100 136.883209
v 101.377930 130.962341 138.613998
v 101.141724 115.631630 145.266953
v 107.884041 125.096786 134.679810
v 88.905212 125.243286 131.988007
v 101.254364 119.555206 149.938141
v 77.508919 131.757065 136.698380
v 104.652161 122.135040 149.579910
v 103.417053 116.777313 141.038223
v 103.955803 120.115639 149.587601
v 90.829979 130.239746 139.630478
v 90.828568 133.694916 132.061630
v 108.529938 131.920563 133.709976
v 99.326996 124.191383 148.463928
v 97.479637 117.453773 139.827133
v 82.529480 120.674355 145.260696
v 92.879593 133.689545 132.073929
v 82.351723 133.688339 132.127228
v 107.636719 118.867455 139.285416
v 105.737740 118.729462 138.551056
v 105.693924 127.489273 132.915176
v 84.679642 133.688904 132.076447
v 88.779053 125.211441 147.131134
v 82.333420 130.949280 138.603729
v 85.526299 123.871758 148.034302
v 79.884987 124.694527 138.447693
v 80.974586 124.096375 136.916962
v 107.351768 117.753265 140.087234
v 103.429077 125.140755 147.083588
v 101.390190 133.386017 134.692947
v 84.677109 130.960739 138.611893
v 90.829750 120.694893 150.296799
v 103.428886 132.082321 136.960739
v 95.075645 123.604462 132.699799
v 101.986504 119.603401 137.569565
v 78.486343 130.504974 138.065277
v 107.372131 127.609978 133.531036
v 84.730293 123.365585 135.311584
v 107.705650 129.576721 133.356796
v 95.224983 130.241180 139.632385
v 108.545784 125.779503 135.306396
v 95.206268 125.151863 131.880432
v 88.779030 126.608406 145.170395
v 85.717392 117.916939 142.111084
v 85.138161 118.836487 148.875183
v 101.370338 120.730431 150.124084
v 107.333801 123.407425 135.275345
v 101.377945 127.873657 143.237137
v 108.302536 118.751976 140.277191
v 101.377983 130.239716 139.630508
v 108.565895 129.216812 134.104309
v 99.224861 117.590378 139.632233
v 109.355911 122.811478 140.990936
v 95.224976 133.418900 134.727814
v 92.880920 129.505798 131.508911
v 84.866280 120.671280 148.950836
v 82.127693 120.877258 143.469299
v 84.878845 119.565475 139.770462
v 95.225021 131.549194 131.606354
v 88.778999 133.424438 134.730515
v 86.735733 125.111549 147.050720
v 104.384201 117.943977 147.768265
v 78.447067 129.425110 138.718796
v 86.132179 117.451416 145.006592
v 101.378677 121.569160 135.346481
v 88.778976 127.874413 143.237579
v 85.323845 122.608406 148.797653
v 90.964409 117.791771 140.075027
v 96.296257 115.955101 143.450394
v 99.458672 118.234711 149.414734
v 80.053574 127.192924 134.521332
v 90.830032 132.717865 135.993225
v 97.311066 119.853821 137.724380
v 84.676964 130.240799 139.632156
v 101.397835 134.126465 132.396957
v 97.254860 117.260376 148.618729
v 97.276001 130.239685 139.630508
v 92.881401 127.455101 131.529434
v 100.836945 128.230133 131.892563
v 106.766411 117.424652 144.452438
v 95.343948 116.706436 147.184326
v 92.736664 116.590660 145.191528
v 103.584175 118.653709 149.051331
v 82.336639 129.185471 140.981064
v 103.434769 129.523911 132.195999
v 83.366531 128.250198 132.031174
v 84.697647 126.452164 145.043915
v 99.326836 133.417877 134.727127
v 107.757423 131.884552 136.833771
v 84.754662 125.590446 133.079987
v 101.405403 118.717316 138.434219
v 77.476784 131.746964 136.699936
v 107.245560 121.243011 137.414185
v 82.344406 121.018570 141.032867
v 101.375679 120.471313 136.697678
v 97.167007 118.146591 149.452133
v 97.238297 116.713676 141.036835
v 86.775436 120.690887 150.157455
v 105.666969 124.868141 146.804626
v 84.732101 120.694893 138.646027
v 78.670525 131.989044 135.794495
v 97.275978 129.273682 141.039917
v 95.225082 129.505798 131.515503
v 103.216156 115.666046 146.042191
v 101.375267 123.384933 149.234741
v 97.277313 122.239738 149.892365
v 99.339104 116.732269 141.003586
v 83.847321 120.915138 147.812469
v 92.880898 133.418930 134.727844
v 97.276039 124.191010 148.463593
v 92.765320 122.326096 134.648056
v 90.830017 133.424423 134.730545
v 99.321098 129.511520 131.630478
v 85.017761 121.760521 137.108383
v 108.069183 118.474403 143.521759
v 105.772957 130.935425 138.594315
v 105.772926 130.236237 139.628571
v 88.778984 130.961700 138.613617
v 108.720222 118.773643 141.222443
v 92.879120 134.051743 132.401398
v 88.766052 117.118416 143.489197
v 86.181488 124.103516 134.006378
v 86.808884 122.182037 149.822342
v 80.807556 127.910774 133.469986
v 107.625549 126.157204 144.694412
v 82.381248 123.176674 136.800568
v 99.249191 116.970688 148.397705
v 95.224998 124.186638 148.459564
v 108.897888 131.243240 136.650192
v 103.472313 120.724297 150.011536
v 82.367607 131.561401 131.794785
v 108.692390 122.806282 144.298798
v 92.956337 123.704857 132.191498
v 92.880867 130.960907 138.612030
v 82.332733 130.214157 139.613113
v 81.359070 126.423958 144.055420
v 105.766449 127.785637 143.180435
v 95.224953 127.873245 143.236862
v 105.754601 126.415916 145.035934
v 95.193039 117.557144 148.844345
v 108.338356 117.412918 141.608627
v 109.497360 125.153267 140.898666
v 105.819672 120.797241 136.760086
v 99.230392 120.613213 136.728958
v 106.998283 124.693253 146.092819
v 90.830528 127.456337 131.540649
v 84.534218 124.484108 134.243225
v 82.344795 134.064774 132.882431
v 105.667488 125.124023 133.349442
v 80.168587 131.591049 132.516479
v 92.871002 118.720474 150.008789
v 84.760155 117.858574 144.579742
v 90.807205 116.744476 145.258774
v 79.903503 125.085579 141.126389
v 89.732498 124.181129 132.204483
v 109.099213 123.112381 139.057632
v 99.319183 118.705307 138.559647
v 99.486168 125.023064 132.359436
v 81.888107 129.149170 132.273376
v 102.625862 133.953583 132.251083
v 95.225662 134.110703 132.916428
v 86.730087 134.066711 132.394806
v 88.735794 120.304520 137.999069
v 88.779007 129.272400 141.039017
v 87.048676 117.477470 149.698868
v 97.250473 119.121094 149.957230
v 103.428162 127.458061 132.455627
v 80.304733 130.831146 138.515778
v 79.288849 128.703629 140.169662
v 103.356972 123.734337 133.580490
v 108.026520 122.750275 145.328156
v 101.469284 118.332115 149.282211
v 84.677025 132.716187 135.992172
v 92.874458 125.142151 131.750473
v 79.496201 126.274513 135.848907
v 110.785011 130.344910 138.932816
v 97.530899 124.441666 132.367874
v 90.818420 118.704330 150.217117
v 109.356400 129.476471 136.679062
v 88.779007 130.240417 139.630997
v 92.880875 129.274658 141.040665
v 86.728081 127.868034 143.233551
v 97.276001 126.609680 145.171326
v 101.378799 132.707123 135.986298
v 92.789177 121.069504 136.937088
v 86.728065 131.550140 131.602005
v 105.421204 123.744278 147.867462
v 105.770149 132.060028 136.946030
v 84.677353 133.414474 134.725677
v 84.677101 132.093842 136.967865
v 99.788193 121.598808 135.441483
v 84.757217 124.785629 146.820068
v 105.772408 129.219406 141.002502
v 82.336327 133.375931 134.706024
v 92.866005 120.034561 137.894821
v 102.542145 131.744507 131.922470
v 105.762749 119.719536 137.716660
v 92.880531 123.381195 149.229477
v 77.806190 130.675201 137.468063
v 81.117226 123.230270 143.272705
v 86.883080 117.269341 145.590149
v 90.773407 117.227791 149.286728
v 87.281433 126.018112 132.035919
v 86.846771 119.170204 139.514786
v 99.327026 132.096024 136.969421
v 102.645432 133.889313 132.228958
v 85.917175 120.715385 149.883041
v 103.428017 118.635597 138.420624
v 80.900665 131.854843 132.128677
v 82.631149 129.716309 131.917389
v 97.269920 127.464432 131.641922
v 80.399567 129.712875 132.918930
v 99.327049 126.609985 145.171494
v 90.871956 118.718338 139.111023
v 88.781609 120.695122 150.293350
v 99.209770 122.273125 134.581360
v 105.627586 118.660812 147.283691
v 81.877213 122.842567 145.211853
v 101.368324 122.463356 134.407639
v 95.223969 120.712524 150.170135
v 86.035248 121.610062 149.776321
v 79.073593 125.830620 138.566528
v 103.603714 116.439720 147.366745
v 90.830383 123.386040 149.235428
v 101.376816 124.181496 148.455643
v 108.665802 118.996666 142.619965
v 90.791130 123.278145 132.909698
v 79.368896 134.669464 131.937408
v 97.275909 133.424561 134.730606
v 83.300972 119.240295 143.452728
v 80.600006 125.653465 135.277969
v 108.383598 126.195740 144.066940
v 84.676926 129.264984 141.034424
v 90.844658 125.149963 131.773148
v 84.153191 122.889694 147.659821
v 99.322037 134.123047 132.913651
v 92.987839 123.250229 132.732880
v 97.281197 116.108589 145.382599
v 95.225403 123.381271 149.229584
v 79.477631 128.955078 134.074661
v 90.810791 117.599617 149.839401
v 80.368706 127.114517 142.938339
v 95.226295 133.689590 132.073944
v 103.405479 124.105026 148.394577
v 79.226357 125.985825 136.735550
v 85.186096 117.823586 147.260361
v 109.353783 125.080872 138.618500
v 108.943405 129.577179 134.665024
v 101.376472 122.234634 149.870972
v 83.292343 118.970741 145.352982
v 95.224289 127.458374 131.580368
v 101.355125 133.724060 132.082474
v 88.805267 117.197090 149.324173
v 97.276367 123.387466 149.237061
v 99.278732 123.626534 133.233719
v 88.697411 122.697220 134.728378
v 92.873871 117.432373 149.064484
v 99.327370 122.239738 149.889542
v 88.778984 131.550232 131.596481
v 103.428978 130.960770 138.611938
v 88.804405 116.938622 147.212891
v 108.312195 117.473076 142.138458
v 99.349915 115.768448 147.149750
v 95.224998 126.607552 145.169769
v 83.083954 120.747353 146.759323
v 106.140450 120.668129 147.338272
v 99.326927 123.388199 149.238098
v 107.768448 128.976074 140.797150
v 108.775215 132.216919 135.651260
v 107.824814 130.094437 139.511658
v 104.538681 121.245247 149.725464
v 93.404060 121.704330 136.023560
v 95.212044 119.955002 137.825211
v 101.377907 129.273697 141.039886
v 96.227272 115.953224 143.449799
v 105.708504 131.485703 132.856659
v 80.158920 124.941254 136.607819
v 97.276115 120.710808 150.184494
v 104.947906 120.741440 149.226242
v 106.746613 124.134773 134.218124
v 79.346130 125.775536 140.089325
v 90.828728 122.243141 149.908859
v 100.171867 126.626472 132.068008
v 109.004601 128.440598 140.260345
v 103.429695 119.568214 137.529938
v 90.830009 125.220383 147.137756
v 95.244736 117.572838 139.884247
v 80.216393 134.113770 132.260803
v 99.327065 132.718384 135.993500
v 99.324654 120.717300 150.169327
v 86.729462 133.694946 132.061569
v 82.298874 122.279045 138.342453
v 101.276619 123.634598 133.412277
v 109.296272 127.461861 136.871124
v 88.783661 118.705711 150.227890
v 80.968803 123.095390 140.963318
v 107.810791 132.496918 135.892426
v 82.753403 126.138176 133.519669
v 103.548805 122.523163 134.513657
v 82.333694 132.083450 136.960876
v 86.727989 132.717850 135.993210
v 108.729721 125.001411 144.340668
v 90.419273 121.963264 135.345840
v 95.189247 116.330971 145.326111
v 79.075340 127.713921 135.283997
v 95.202675 122.310570 134.729385
v 79.899216 127.421669 142.204285
v 107.968315 122.810539 136.670471
v 84.685402 129.516357 131.653732
v 86.754425 118.361679 140.614166
v 102.912254 117.172256 148.159546
v 110.045265 130.334213 138.737381
v 109.179001 125.069550 143.105652
v 95.226860 134.051697 132.401367
v 103.427902 121.586853 135.375534
v 103.573029 116.104767 143.618988
v 90.686310 122.275795 134.542587
v 82.981071 123.835281 135.623230
v 82.505737 126.254799 144.724182
v 107.691551 127.455261 142.958099
v 92.880867 127.873245 143.236862
v 95.227341 118.598228 138.896927
v 92.880951 124.186668 148.459579
v 101.453751 127.364929 132.095749
v 101.372917 116.720146 141.014694
v 92.880844 125.219719 147.137253
v 103.387550 123.309784 149.159271
v 90.905579 121.117569 136.726501
v 86.806831 117.453079 143.538925
v 101.377701 117.639618 139.537170
v 85.928566 117.639442 148.848236
v 80.329620 133.173920 134.606400
v 78.653458 129.549591 134.963943
v 97.145721 125.377716 131.940598
v 98.697502 125.733032 132.028412
v 79.376854 134.694092 131.973221
v 90.829277 134.123215 132.917221
v 86.965477 117.773399 141.650223
v 97.275902 127.873650 143.237122
v 95.224983 132.716171 135.992188
v 95.224892 125.219727 147.137268
v 84.679436 127.820168 143.201981
v 83.044434 124.633873 146.078903
v 95.266609 116.720566 141.224197
v 97.275948 125.220840 147.138062
v 101.395279 115.606148 146.893021
v 88.778984 133.695724 132.059052
v 90.829979 124.190414 148.463028
v 88.847389 118.905670 139.369629
v 107.753059 132.762344 133.749802
v 97.148438 123.611000 132.972626
v 95.208405 121.032814 136.724594
v 92.880974 130.241196 139.632401
v 103.429001 126.584091 145.155060
v 110.033730 130.384293 138.735077
v 109.096466 120.692879 140.870758
v 109.500671 127.681648 138.630829
v 105.717880 122.705162 134.845734
v 86.836388 117.209984 147.231979
v 99.298294 119.652687 137.771255
v 86.783226 125.106750 132.759323
v 94.164886 123.974480 132.156830
v 80.399605 134.018677 132.252426
v 82.333855 132.697479 135.981064
v 83.836311 118.400604 145.629059
v 86.728004 132.095276 136.968857
v 105.748703 117.742363 139.609589
v 101.381554 115.547867 146.108093
v 84.776169 127.755600 131.892059
v 105.143204 121.572929 135.741089
v 88.589561 117.526421 149.786224
v 108.724731 120.804726 139.634155
v 103.620224 131.560181 132.245499
v 108.086571 124.968155 145.119568
v 90.979744 123.865837 132.171539
v 90.829987 130.962326 138.613998
v 101.353897 131.554443 131.745132
v 108.322350 132.828720 133.820145
v 103.429008 127.867424 143.233322
v 95.224983 130.960907 138.612045
v 107.755661 117.266464 141.066391
v 86.727989 133.424408 134.730530
v 92.880981 132.716187 135.992188
v 88.847931 116.964317 145.316635
v 84.555420 126.791855 132.338669
v 92.902885 116.786598 147.148132
v 99.327034 130.961700 138.613617
v 97.278305 134.066605 132.394882
v 101.377907 126.609375 145.171112
v 102.387505 130.194260 131.911911
v 103.012032 119.914162 149.847702
v 97.275963 130.962341 138.613983
v 82.366776 127.632088 143.065582
v 77.834747 129.449951 136.470062
v 92.880806 126.607559 145.169785
v 86.717964 124.052063 148.383972
v 92.880196 134.110794 132.916458
v 102.051476 129.034927 131.968216
v 97.275993 132.717834 135.993225
v 84.149269 118.778481 147.522858
v 107.356880 118.837135 144.951050
v 105.493561 123.953453 133.811630
v 92.900101 117.659294 139.944656
v 107.778687 132.918213 134.608887
v 105.750847 116.969986 141.102676
v 103.596405 115.839645 145.319641
v 97.257332 120.936699 136.607162
v 92.880898 132.094498 136.968338
v 90.830009 127.873657 143.237122
v 88.056778 124.399101 132.805313
v 86.729736 129.508102 131.574097
v 83.945213 121.584030 137.899109
v 79.242615 127.410309 140.714066
v 101.360336 116.771301 148.251083
v 90.838631 116.811745 147.198410
v 99.324562 131.547974 131.640320
v 86.865150 121.676704 136.750656
v 77.980232 128.393616 137.902847
v 97.268677 122.261032 134.714218
v 101.476631 115.994179 147.445374
v 105.097366 122.854134 148.838577
v 103.084793 115.831833 146.663849
v 105.582504 132.743469 133.576630
v 104.891525 117.062889 146.513046
v 83.023727 122.692596 146.646133
v 107.740860 120.752937 145.313858
v 88.780281 122.237579 149.898346
v 79.338326 134.077560 132.730362
v 92.826942 116.562675 143.462067
v 103.429100 132.659912 135.963211
v 97.276268 134.122284 132.916885
v 80.309280 132.559616 135.906097
v 100.984184 119.563347 137.689865
v 90.864235 117.193810 141.187485
v 78.699333 131.531036 135.033600
v 107.908844 130.829132 138.512512
v 101.377953 132.095840 136.969223
v 103.438774 120.455299 136.646576
v 103.429047 130.239838 139.631393
v 101.358147 125.159256 132.657913
v 108.549660 130.207001 133.849045
v 105.772064 132.604965 135.940170
v 81.675781 122.018265 143.828217
v 89.152023 123.772018 132.834473
v 84.782539 117.798409 145.495483
v 88.778999 132.717850 135.993225
v 109.360855 127.264618 140.730209
v 86.813789 118.729309 150.083313
v 79.432404 130.072006 133.632248
v 88.780052 124.170494 148.446899
v 88.789276 123.374008 149.225388
v 92.879852 122.236397 149.888016
v 92.928986 116.969818 141.200012
v 103.397720 122.210320 149.798859
v 99.870644 115.646454 147.016724
v 86.828369 123.097733 134.918625
v 101.282646 115.987114 143.571976
v 94.056244 121.778061 135.960342
v 108.755989 126.749397 142.714584
v 108.614113 122.419701 138.281281
v 79.080391 132.694183 134.390686
v 88.778976 134.067596 132.394211
v 108.629997 124.255768 136.568024
v 90.829933 126.609703 145.171295
v 108.077881 120.584236 138.613800
v 83.374657 119.670921 141.360245
v 92.053856 117.739525 149.762741
v 95.224915 129.274673 141.040695
v 99.327057 125.220978 147.138138
v 99.336182 134.066650 132.393356
v 81.352867 125.103828 144.547165
v 86.181557 126.347626 132.151993
v 84.763695 118.805550 141.159546
v 79.289787 134.066071 132.733810
v 107.787025 131.485580 133.299789
v 105.763351 132.970215 134.635910
v 99.327034 127.874428 143.237625
v 77.746689 129.544678 137.761871
v 97.275963 132.095306 136.968887
v 86.728020 130.239700 139.630493
v 109.169640 122.864388 143.129913
v 84.596367 122.382278 136.622925
v 99.327034 130.240448 139.631012
v 82.380638 127.453506 132.768799
v 103.425766 117.648415 139.518600
v 105.555618 116.847008 145.231430
v 101.377998 125.217422 147.135727
v 78.435272 127.590660 136.806549
v 107.041527 123.107460 146.570847
v 82.321869 134.027710 132.408722
v 97.276123 131.550049 131.598267
v 86.728043 130.962326 138.614014
v 78.421272 127.495377 138.660278
v 110.794296 130.312805 138.931213
v 99.267624 127.506966 131.751602
# 571 vertices, 0 vertices normals

f 464 546 312
f 118 410 327
f 91 128 233
f 142 42 240
f 431 252 570
f 402 417 204
f 179 44 135
f 482 79 444
f 103 8 307
f 21 324 127
f 341 184 476
f 143 51 199
f 515 336 193
f 494 139 569
f 441 322 521
f 181 320 403
f 420 91 363
f 92 133 294
f 194 452 87
f 558 190 54
f 14 119 99
f 181 403 530
f 541 448 232
f 78 109 336
f 38 197 47
f 295 375 246
f 490 248 387
f 148 185 459
f 382 495 110
f 185 237 130
f 39 156 191
f 400 4 243
f 123 384 80
f 369 246 516
f 510 529 479
f 18 233 149
f 102 230 372
f 481 104 443
f 139 489 569
f 317 543 333
f 452 69 484
f 235 162 286
f 532 332 486
f 514 219 446
f 485 58 397
f 432 59 557
f 215 201 221
f 336 192 193
f 431 388 205
f 105 430 175
f 317 333 278
f 286 207 285
f 538 76 413
f 386 425 280
f 248 146 67
f 440 265 249
f 332 520 486
f 169 384 123
f 372 276 133
f 166 437 461
f 395 53 547
f 494 569 564
f 537 550 408
f 288 560 235
f 202 488 558
f 130 507 305
f 24 352 499
f 513 463 281
f 110 410 118
f 424 527 526
f 477 502 5
f 287 571 44
f 510 479 144
f 26 562 39
f 379 393 65
f 367 538 238
f 299 500 562
f 290 144 479
f 32 17 211
f 465 124 430
f 437 81 279
f 484 459 6
f 403 263 497
f 284 96 273
f 306 228 2
f 329 447 278
f 241 524 447
f 2 405 62
f 458 136 377
f 209 438 250
f 501 311 184
f 139 245 489
f 568 107 442
f 552 426 480
f 303 451 520
f 72 222 41
f 518 373 165
f 350 12 126
f 202 368 488
f 361 273 514
f 71 151 24
f 498 444 422
f 558 532 114
f 569 321 564
f 192 165 512
f 240 256 87
f 555 475 281
f 106 260 365
f 113 80 21
f 536 29 539
f 421 545 90
f 110 495 427
f 551 89 426
f 52 261 404
f 25 522 69
f 95 432 448
f 402 471 417
f 7 398 271
f 341 40 326
f 69 148 484
f 514 446 391
f 200 316 147
f 415 178 553
f 199 51 503
f 91 233 18
f 93 390 196
f 195 302 432
f 542 549 134
f 46 547 53
f 410 411 287
f 52 271 261
f 276 519 133
f 112 77 244
f 443 104 95
f 43 30 88
f 205 345 49
f 288 285 226
f 333 216 157
f 115 21 127
f 232 129 323
f 250 438 118
f 321 307 251
f 404 261 187
f 191 5 302
f 35 453 492
f 27 98 238
f 180 299 482
f 287 411 571
f 556 150 107
f 285 439 550
f 460 229 47
f 293 74 355
f 59 208 557
f 71 164 312
f 393 303 332
f 429 210 116
f 344 431 360
f 504 537 511
f 223 198 437
f 311 268 101
f 293 502 477
f 249 442 266
f 395 547 212
f 269 193 346
f 300 527 424
f 405 460 197
f 404 393 379
f 296 11 354
f 566 364 439
f 352 551 499
f 253 234 411
f 540 471 402
f 426 454 480
f 368 176 488
f 123 3 356
f 324 89 517
f 185 473 237
f 301 343 90
f 521 405 228
f 322 407 56
f 153 468 559
f 22 296 55
f 348 534 382
f 367 238 98
f 317 371 254
f 398 18 349
f 407 64 56
f 115 89 551
f 155 35 189
f 428 382 534
f 467 206 86
f 238 538 75
f 280 425 45
f 168 177 77
f 222 250 154
f 19 288 226
f 181 343 301
f 330 90 343
f 185 130 459
f 187 348 382
f 360 433 523
f 100 107 150
f 341 476 40
f 50 102 372
f 431 205 255
f 14 258 119
f 160 150 309
f 303 520 332
f 188 185 148
f 306 2 549
f 437 279 548
f 562 500 73
f 167 361 111
f 319 464 390
f 396 344 535
f 400 243 474
f 522 188 148
f 159 355 74
f 176 45 190
f 15 370 255
f 293 342 502
f 392 562 26
f 126 559 463
f 184 143 132
f 222 154 41
f 321 353 307
f 413 76 473
f 50 13 368
f 310 209 250
f 167 111 509
f 72 41 335
f 497 263 9
f 106 365 164
f 237 390 507
f 566 27 57
f 72 262 487
f 270 408 224
f 35 466 453
f 453 16 492
f 542 134 48
f 518 480 373
f 33 61 79
f 323 523 433
f 435 329 337
f 423 76 538
f 197 460 47
f 182 330 334
f 216 172 152
f 349 483 428
f 529 505 145
f 346 512 431
f 167 436 233
f 248 82 159
f 567 492 36
f 89 34 454
f 530 84 347
f 257 429 116
f 283 174 524
f 474 161 466
f 282 449 24
f 136 75 413
f 423 538 367
f 248 67 82
f 35 492 189
f 30 135 93
f 468 281 463
f 504 412 304
f 161 449 272
f 273 95 169
f 21 117 15
f 290 479 7
f 462 157 158
f 541 232 536
f 171 514 391
f 498 496 299
f 178 559 12
f 29 370 117
f 322 56 435
f 142 485 540
f 214 415 259
f 335 41 43
f 420 351 173
f 143 472 51
f 35 474 466
f 339 496 422
f 327 287 179
f 502 565 247
f 297 199 174
f 490 496 203
f 229 462 158
f 200 374 560
f 66 203 339
f 159 467 86
f 504 226 550
f 38 144 425
f 521 277 140
f 362 119 540
f 395 469 163
f 426 89 454
f 453 272 328
f 94 27 566
f 318 212 70
f 524 174 371
f 532 486 437
f 563 545 289
f 188 413 473
f 109 506 264
f 285 550 226
f 210 6 456
f 461 437 548
f 535 360 523
f 461 37 445
f 213 269 396
f 355 497 342
f 117 370 15
f 276 46 294
f 171 391 141
f 509 171 436
f 465 553 124
f 507 464 312
f 569 298 321
f 163 14 137
f 142 119 258
f 522 148 69
f 560 166 461
f 154 327 131
f 15 255 324
f 317 254 543
f 282 24 236
f 386 38 425
f 48 134 13
f 63 193 269
f 337 278 491
f 516 359 234
f 349 149 483
f 516 246 4
f 93 135 319
f 391 446 434
f 261 428 534
f 216 152 66
f 76 196 473
f 110 427 410
f 548 279 37
f 369 234 331
f 259 415 289
f 490 203 146
f 435 56 329
f 380 157 66
f 339 531 79
f 327 410 287
f 21 15 324
f 163 418 14
f 428 495 382
f 274 399 204
f 502 247 208
f 264 518 165
f 391 434 375
f 542 48 170
f 257 544 214
f 398 91 18
f 224 408 550
f 254 291 108
f 491 462 229
f 569 489 357
f 60 115 352
f 301 563 320
f 417 340 421
f 452 210 429
f 490 387 299
f 423 43 88
f 194 69 452
f 514 273 219
f 504 439 412
f 456 468 153
f 362 99 119
f 221 201 450
f 41 131 43
f 350 126 515
f 542 170 133
f 28 238 75
f 254 108 227
f 404 65 239
f 535 218 389
f 178 12 553
f 295 292 267
f 369 516 234
f 130 305 416
f 504 550 439
f 120 414 386
f 105 175 263
f 139 554 112
f 556 309 150
f 308 535 389
f 88 93 196
f 414 38 386
f 142 540 119
f 30 179 135
f 132 297 283
f 85 561 401
f 409 525 19
f 262 367 98
f 47 229 505
f 167 233 128
f 94 98 27
f 437 486 81
f 493 532 54
f 88 196 76
f 479 363 7
f 263 175 221
f 490 146 248
f 504 304 550
f 397 214 340
f 106 164 71
f 494 554 139
f 339 203 496
f 82 67 366
f 45 65 493
f 307 381 251
f 458 28 75
f 373 49 345
f 225 3 97
f 357 489 230
f 219 169 123
f 304 364 550
f 29 323 370
f 506 552 518
f 194 25 69
f 451 81 231
f 510 505 529
f 510 47 505
f 482 392 533
f 302 59 432
f 384 539 80
f 561 96 284
f 129 218 323
f 149 233 436
f 26 39 457
f 457 39 217
f 143 101 472
f 469 160 418
f 516 4 400
f 25 568 442
f 78 513 109
f 395 163 268
f 341 501 184
f 95 448 541
f 114 532 223
f 305 164 475
f 420 173 91
f 562 477 156
f 326 40 441
f 521 435 277
f 173 33 183
f 465 289 553
f 265 458 249
f 168 77 112
f 303 187 313
f 399 402 204
f 123 80 3
f 120 405 414
f 85 481 443
f 431 570 388
f 322 121 407
f 234 571 411
f 269 344 396
f 471 397 340
f 299 159 138
f 276 70 547
f 482 533 79
f 270 57 265
f 549 2 62
f 39 338 217
f 384 536 539
f 192 264 165
f 424 526 99
f 455 63 213
f 375 434 478
f 563 289 465
f 180 444 498
f 227 22 55
f 94 207 68
f 303 313 209
f 321 298 353
f 370 433 255
f 25 442 377
f 180 498 299
f 350 515 63
f 174 199 291
f 528 11 296
f 132 143 297
f 108 358 22
f 531 444 79
f 143 199 297
f 485 397 471
f 328 151 16
f 121 132 283
f 406 128 183
f 148 459 484
f 355 347 497
f 358 300 528
f 325 181 530
f 242 354 67
f 36 492 16
f 64 524 241
f 50 202 103
f 141 391 375
f 258 309 42
f 42 309 556
f 228 405 20
f 295 331 292
f 246 225 4
f 141 295 267
f 64 283 524
f 448 432 232
f 23 24 499
f 529 363 479
f 554 275 112
f 37 81 1
f 147 381 307
f 393 332 65
f 474 243 161
f 151 546 16
f 328 282 236
f 328 236 151
f 482 562 392
f 136 413 188
f 324 205 34
f 219 123 434
f 4 225 243
f 470 409 168
f 225 356 3
f 268 137 472
f 269 346 344
f 159 293 138
f 432 557 129
f 290 52 239
f 223 437 166
f 32 318 245
f 60 113 115
f 320 105 263
f 430 215 175
f 284 273 361
f 432 129 232
f 506 518 264
f 363 91 398
f 424 362 399
f 471 340 417
f 342 9 565
f 288 286 285
f 501 294 419
f 32 469 318
f 504 550 537
f 321 251 564
f 210 456 116
f 8 166 374
f 124 455 430
f 476 184 132
f 124 553 12
f 416 475 555
f 339 422 531
f 513 260 109
f 495 292 427
f 66 152 203
f 315 204 186
f 50 368 202
f 94 68 98
f 549 62 120
f 457 125 95
f 557 389 218
f 486 520 81
f 468 555 281
f 319 36 464
f 169 536 384
f 303 209 451
f 565 450 247
f 487 262 68
f 451 231 520
f 137 14 99
f 427 253 410
f 121 64 407
f 532 437 198
f 502 59 5
f 206 355 86
f 301 90 545
f 216 55 172
f 161 60 449
f 92 341 326
f 190 493 54
f 338 302 195
f 142 258 42
f 541 536 169
f 257 116 544
f 347 84 497
f 323 218 523
f 110 118 438
f 351 33 173
f 50 353 102
f 224 364 566
f 253 331 234
f 154 118 327
f 457 95 104
f 270 440 508
f 455 213 215
f 300 399 274
f 300 424 399
f 155 189 571
f 404 187 393
f 410 253 411
f 82 366 122
f 499 426 552
f 171 361 514
f 501 419 311
f 71 546 151
f 85 26 481
f 475 164 365
f 499 551 426
f 126 463 78
f 268 163 137
f 145 380 314
f 211 100 150
f 286 445 385
f 456 555 468
f 290 425 144
f 400 35 155
f 271 428 261
f 43 131 30
f 145 351 10
f 306 549 542
f 419 268 311
f 337 329 278
f 357 230 102
f 512 205 388
f 32 211 160
f 23 552 506
f 423 88 76
f 465 430 105
f 122 334 325
f 58 87 429
f 183 33 533
f 351 61 33
f 224 566 57
f 524 371 447
f 72 487 1
f 249 377 442
f 317 447 371
f 256 42 556
f 246 478 225
f 11 315 182
f 419 395 268
f 208 389 557
f 535 523 218
f 83 168 511
f 37 1 487
f 242 67 146
f 254 227 543
f 165 373 205
f 134 280 176
f 167 284 361
f 544 178 415
f 403 497 84
f 161 272 466
f 78 463 513
f 462 333 157
f 476 132 121
f 108 291 503
f 9 221 565
f 412 439 364
f 230 318 70
f 82 467 159
f 271 349 428
f 470 31 564
f 130 237 507
f 325 530 206
f 480 454 49
f 414 405 197
f 319 567 36
f 51 472 526
f 430 455 215
f 178 153 559
f 477 5 191
f 58 429 257
f 408 508 177
f 475 365 281
f 376 266 100
f 137 99 526
f 234 359 571
f 294 46 53
f 17 244 211
f 340 259 421
f 37 279 81
f 293 355 342
f 173 128 91
f 270 224 57
f 81 520 231
f 380 66 314
f 243 97 161
f 228 20 2
f 135 44 567
f 324 255 205
f 96 95 273
f 63 269 213
f 549 280 134
f 57 27 28
f 103 202 8
f 205 49 34
f 483 220 292
f 449 60 352
f 344 360 535
f 186 421 90
f 549 120 386
f 336 264 192
f 149 436 220
f 428 483 495
f 313 382 110
f 50 170 13
f 180 482 444
f 108 22 227
f 435 337 277
f 337 491 460
f 299 138 293
f 445 37 385
f 415 553 289
f 270 508 408
f 250 118 154
f 139 17 245
f 265 28 458
f 176 280 45
f 302 5 59
f 310 1 81
f 151 236 24
f 513 365 260
f 470 381 409
f 468 463 559
f 497 9 342
f 214 544 415
f 75 538 413
f 88 30 93
f 412 364 304
f 211 244 100
f 472 137 526
f 121 283 64
f 354 182 366
f 286 162 445
f 115 517 89
f 85 392 26
f 106 24 23
f 158 157 380
f 258 418 309
f 335 43 423
f 192 512 346
f 562 73 477
f 490 299 496
f 400 571 359
f 92 294 501
f 290 7 52
f 95 541 169
f 481 26 457
f 260 506 109
f 335 367 262
f 55 242 172
f 124 12 350
f 434 356 478
f 406 183 401
f 39 191 338
f 299 293 500
f 459 130 416
f 563 465 105
f 56 241 329
f 8 223 166
f 83 31 470
f 509 111 171
f 342 565 502
f 135 567 319
f 314 339 61
f 97 3 113
f 183 533 401
f 80 539 117
f 85 443 561
f 330 343 334
f 265 57 28
f 420 145 351
f 256 556 568
f 376 77 508
f 536 232 29
f 470 564 381
f 22 528 296
f 126 12 559
f 160 211 150
f 508 77 177
f 83 511 177
f 405 277 460
f 141 375 295
f 3 80 113
f 50 372 170
f 142 240 485
f 159 86 355
f 424 99 362
f 206 347 355
f 72 335 262
f 85 401 392
f 310 222 1
f 168 409 511
f 36 546 464
f 97 113 60
f 560 461 445
f 316 381 147
f 481 457 104
f 277 337 460
f 460 491 229
f 328 272 282
f 318 395 212
f 173 183 128
f 80 117 21
f 126 78 515
f 261 348 187
f 549 386 280
f 529 420 363
f 478 356 225
f 349 18 149
f 44 571 189
f 200 560 288
f 131 327 179
f 116 456 153
f 171 111 361
f 171 141 220
f 562 156 39
f 457 217 195
f 383 230 489
f 71 312 546
f 172 242 146
f 547 70 212
f 394 223 8
f 567 189 492
f 457 195 125
f 516 400 359
f 13 176 368
f 8 374 307
f 325 343 181
f 306 326 228
f 64 241 56
f 388 570 252
f 456 6 555
f 482 299 562
f 383 245 318
f 201 396 308
f 38 47 510
f 354 366 67
f 112 244 17
f 311 101 143
f 136 188 522
f 390 464 507
f 306 133 326
f 394 8 202
f 102 353 298
f 82 122 467
f 414 197 38
f 176 558 488
f 416 305 475
f 565 221 450
f 293 477 73
f 313 110 209
f 296 354 242
f 357 102 298
f 62 405 120
f 333 543 227
f 51 526 527
f 259 289 545
f 83 168 275
f 295 246 369
f 406 284 167
f 394 202 114
f 52 7 271
f 290 239 425
f 483 292 495
f 544 116 153
f 191 302 338
f 270 265 440
f 194 568 25
f 139 112 17
f 409 316 525
f 93 319 390
f 256 568 194
f 208 378 389
f 469 418 163
f 207 385 68
f 500 293 73
f 157 216 66
f 92 501 341
f 115 127 517
f 276 294 519
f 230 70 372
f 315 330 182
f 315 186 330
f 229 158 505
f 537 177 511
f 174 291 371
f 537 408 177
f 473 196 237
f 450 308 378
f 92 326 133
f 172 146 203
f 493 332 532
f 241 447 329
f 375 478 246
f 6 416 555
f 202 558 114
f 129 557 218
f 45 239 65
f 167 509 436
f 552 480 518
f 358 503 527
f 196 390 237
f 55 296 242
f 48 13 170
f 215 213 201
f 453 328 16
f 406 167 128
f 512 165 205
f 377 136 522
f 351 314 61
f 200 147 374
f 493 65 332
f 32 160 469
f 240 42 256
f 409 381 316
f 569 357 298
f 37 487 385
f 187 382 313
f 210 484 6
f 505 158 145
f 498 422 496
f 376 508 440
f 235 560 162
f 204 417 186
f 72 1 222
f 66 339 314
f 263 221 9
f 52 404 239
f 394 114 223
f 83 177 168
f 125 195 432
f 421 259 545
f 358 527 300
f 247 450 208
f 305 507 312
f 458 75 136
f 83 470 168
f 378 308 389
f 452 484 210
f 207 439 285
f 540 485 471
f 193 192 346
f 434 123 356
f 405 140 277
f 330 186 90
f 406 561 284
f 38 510 144
f 184 311 143
f 152 172 203
f 376 244 77
f 168 112 275
f 32 245 17
f 487 68 385
f 544 153 178
f 156 477 191
f 419 53 395
f 40 476 322
f 78 336 515
f 400 155 571
f 561 443 96
f 131 179 30
f 344 346 431
f 23 499 552
f 325 334 343
f 179 287 44
f 419 294 53
f 372 70 276
f 182 334 366
f 181 301 320
f 431 255 433
f 232 323 29
f 404 379 65
f 262 98 68
f 200 288 316
f 44 189 567
f 273 169 219
f 127 324 517
f 33 79 533
f 272 449 282
f 51 527 503
f 340 214 259
f 276 547 46
f 261 534 348
f 217 338 195
f 106 23 260
f 160 309 418
f 502 208 59
f 336 109 264
f 13 134 176
f 556 107 568
f 376 440 266
f 19 525 288
f 248 159 387
f 324 34 89
f 83 275 31
f 374 166 560
f 451 310 81
f 362 540 402
f 529 145 420
f 301 545 563
f 406 401 561
f 392 401 533
f 2 20 405
f 256 194 87
f 45 425 239
f 558 54 532
f 260 23 506
f 442 107 266
f 362 402 399
f 61 339 79
f 219 434 446
f 158 380 145
f 560 445 162
f 95 125 432
f 220 267 292
f 94 439 207
f 103 307 353
f 283 297 174
f 240 87 58
f 427 292 331
f 106 71 24
f 305 312 164
f 476 121 322
f 94 566 439
f 450 378 208
f 41 154 131
f 254 371 291
f 87 452 429
f 295 369 331
f 397 257 214
f 240 58 485
f 190 45 493
f 513 281 365
f 531 422 444
f 7 363 398
f 454 34 49
f 563 105 320
f 350 63 455
f 480 49 373
f 25 377 522
f 383 489 245
f 145 10 351
f 373 345 205
f 100 266 107
f 451 209 310
f 113 21 115
f 159 74 293
f 11 182 354
f 14 418 258
f 188 473 185
f 461 548 37
f 491 333 462
f 213 396 201
f 519 294 133
f 27 238 28
f 459 416 6
f 360 431 433
f 521 322 435
f 36 16 546
f 299 387 159
f 393 187 303
f 176 190 558
f 124 350 455
f 358 528 22
f 286 385 207
f 521 140 405
f 504 511 19
f 147 307 374
f 201 308 450
f 554 31 275
f 403 320 263
f 333 227 216
f 564 251 381
f 409 19 511
f 528 274 11
f 268 472 101
f 440 249 266
f 209 110 438
f 243 225 97
f 199 503 291
f 431 388 252
f 494 564 31
f 50 103 353
f 122 325 206
f 453 466 272
f 63 515 193
f 171 220 436
f 352 115 551
f 271 398 349
f 310 250 222
f 288 235 286
f 494 31 554
f 443 95 96
f 141 267 220
f 161 97 60
f 274 204 315
f 400 474 35
f 417 421 186
f 122 366 334
f 40 322 441
f 300 274 528
f 372 133 170
f 504 19 226
f 441 521 228
f 335 423 367
f 326 441 228
f 122 206 467
f 512 388 431
f 227 55 216
f 427 331 253
f 525 316 288
f 224 550 364
f 206 530 347
f 376 100 244
f 58 257 397
f 491 278 333
f 145 314 351
f 108 503 358
f 318 469 395
f 149 220 483
f 274 315 11
f 539 29 117
f 175 215 221
f 530 403 84
f 306 542 133
f 223 532 198
f 396 535 308
f 383 318 230
f 249 458 377
f 317 278 447
f 24 449 352
f 323 433 370
# 1142 faces, 0 coords texture

# End of File