####
#
# OBJ File Generated by Meshlab
#
####
# Object domain0674.obj
#
# Vertices: 724
# Faces: 1444
#
####
v 126.626068 56.385868 94.080826
v 126.786781 56.444859 93.873283
v 126.719566 56.283119 94.076996
v 126.705833 56.220051 95.000229
v 126.572975 56.392693 95.001091
v 126.719681 56.284027 95.922997
v 126.626877 56.384747 95.920334
v 126.787193 56.445034 96.126030
v 126.585251 56.775169 94.096466
v 126.803024 56.752296 93.823853
v 126.485817 56.832458 94.998306
v 126.592857 56.772167 95.899689
v 126.804474 56.751450 96.175644
v 126.654755 57.103245 94.043259
v 126.542290 57.321388 94.999527
v 126.625481 57.407890 94.511475
v 126.628822 57.402222 95.486908
v 126.665833 57.099571 95.953224
v 126.632835 57.677773 95.004234
v 127.183121 56.416180 93.769844
v 127.190742 56.134312 94.061172
v 127.175552 56.006500 94.999687
v 127.189255 56.133602 95.938171
v 127.184586 56.416245 96.228790
v 127.193001 56.843552 93.655220
v 127.192993 56.843651 96.344666
v 126.822144 57.459507 94.010170
v 127.235283 57.391727 93.700813
v 126.824753 57.462608 95.988625
v 127.235504 57.389538 96.300430
v 126.982117 58.002285 94.049431
v 127.302429 58.009525 93.733429
v 126.744858 58.053902 94.998840
v 126.981407 58.003792 95.951309
v 127.300957 58.007114 96.266510
v 127.061691 58.586308 94.066818
v 127.329269 58.586338 93.762672
v 126.891327 58.593201 94.999458
v 127.062378 58.584415 95.932419
v 127.329681 58.585670 96.236549
v 127.138466 59.110001 94.090332
v 127.374374 59.088211 93.801094
v 126.990471 59.163094 94.998665
v 127.144600 59.107101 95.906090
v 127.376663 59.086864 96.197067
v 127.234657 59.448166 94.040810
v 127.117966 59.666065 94.999443
v 127.211441 59.751892 94.511436
v 127.213623 59.746548 95.487137
v 127.245979 59.444351 95.955742
v 127.218842 60.021763 95.004234
v 127.786629 56.334999 93.709198
v 127.736572 55.956032 94.032417
v 127.688927 55.818329 94.999573
v 127.735497 55.956970 95.967293
v 127.788063 56.335068 96.291519
v 127.750916 56.849895 93.572815
v 127.750900 56.849873 96.427284
v 127.754028 57.428207 93.551872
v 127.753998 57.428204 96.448174
v 127.757812 58.013916 93.563538
v 127.757828 58.013916 96.436378
v 127.760429 58.598785 93.576988
v 127.760468 58.598778 96.422943
v 127.773079 59.173183 93.614143
v 127.773232 59.173164 96.385681
v 127.412422 59.800732 94.012131
v 127.820572 59.734905 93.698814
v 127.417320 59.804569 95.986885
v 127.810760 59.736996 96.329926
v 127.587273 60.336464 94.054024
v 127.899040 60.341076 93.747498
v 127.358620 60.387547 94.997887
v 127.574081 60.346542 95.957382
v 127.857147 60.346844 96.347046
v 127.712425 60.865055 94.088516
v 127.964149 60.831062 93.819435
v 127.536911 60.918816 94.999649
v 127.679192 60.875980 95.931732
v 127.913910 60.883457 96.435562
v 127.843864 61.175900 94.066467
v 127.701752 61.419998 95.001556
v 127.832199 61.471245 94.529884
v 127.793137 61.509048 95.491814
v 127.788803 61.223228 95.986343
v 127.867477 61.732304 94.998077
v 128.105957 55.785194 94.042267
v 128.426865 55.897964 93.823494
v 128.420761 55.702770 94.077126
v 128.408997 55.625568 94.999962
v 128.050385 55.697613 95.000412
v 128.420746 55.701832 95.923134
v 128.107101 55.787540 95.957451
v 128.426712 55.896782 96.177879
v 128.333084 56.287479 93.653862
v 128.333054 56.287304 96.346413
v 128.326920 56.845078 93.565186
v 128.326904 56.845093 96.434708
v 128.334412 57.427097 93.528984
v 128.334396 57.427086 96.470993
v 128.334106 58.013855 93.513130
v 128.334106 58.013847 96.486870
v 128.333878 58.600136 93.512947
v 128.333878 58.600140 96.487061
v 128.333893 59.186966 93.523323
v 128.331558 59.188595 96.498230
v 128.339310 59.771816 93.546722
v 128.316223 59.766457 96.552544
v 128.347763 60.352905 93.592758
v 128.250137 60.269253 96.686440
v 128.352707 60.888115 93.690735
v 128.356979 60.666420 96.985191
v 128.158081 61.017838 96.904411
v 128.459229 60.994766 97.425842
v 128.100266 61.444958 94.071213
v 128.342178 61.266155 93.873817
v 127.919418 61.577091 96.034828
v 128.187958 61.521179 96.956215
v 128.389786 61.529282 97.474892
v 128.338882 61.619640 94.150833
v 128.121323 62.029072 95.039612
v 128.444275 61.987022 94.587936
v 128.182373 62.054016 95.996071
v 128.290924 62.025375 96.945732
v 128.449219 62.072048 97.446495
v 128.417923 62.319904 95.033897
v 128.397049 62.361134 96.000427
v 128.447067 62.329323 96.976700
v 128.736801 55.879463 93.866692
v 128.797272 55.717670 94.080711
v 128.828979 55.662624 95.001320
v 128.796570 55.717686 95.921074
v 128.738052 55.878845 96.134972
v 128.778305 56.276340 93.760368
v 128.778549 56.277370 96.239326
v 128.851410 56.878323 93.690208
v 128.850830 56.879406 96.309402
v 128.894867 57.440811 93.614128
v 128.894745 57.440876 96.385567
v 128.907547 58.015232 93.576828
v 128.907532 58.015251 96.422981
v 128.914673 58.600189 93.546730
v 128.915176 58.600536 96.459015
v 128.920135 59.185043 93.523331
v 128.918915 59.184055 96.522484
v 128.920059 59.771492 93.518936
v 128.886093 59.706631 96.688972
v 128.917892 60.352650 93.555717
v 128.956924 60.127644 96.998215
v 128.623795 60.354294 97.004303
v 128.947250 60.394001 97.483650
v 128.888687 60.871849 93.697708
v 128.967285 60.691551 97.972923
v 128.741135 61.004215 97.959023
v 128.959488 60.973022 98.482269
v 128.952087 61.311729 93.954185
v 128.616852 61.501938 94.032150
v 128.990402 61.705757 94.251747
v 128.617676 61.537472 98.000038
v 128.997665 61.282627 98.964447
v 128.885071 61.596809 98.918404
v 129.088181 61.587017 99.410423
v 128.924515 62.101315 94.526489
v 128.627808 62.120804 97.983231
v 128.872925 62.052628 98.923874
v 129.057678 62.079281 99.434448
v 128.727142 62.562717 95.050919
v 129.019150 62.484463 94.795692
v 128.688614 62.617172 96.001472
v 128.688858 62.612095 97.010735
v 128.824280 62.614243 97.963318
v 128.959229 62.680164 98.490685
v 128.962769 62.393646 98.986389
v 129.021667 62.687824 95.077423
v 129.001938 62.788021 96.003845
v 128.996613 62.816868 97.011818
v 129.030533 62.918621 97.969337
v 128.929901 55.815956 94.084427
v 129.120209 55.806087 94.999405
v 128.928238 55.816128 95.913017
v 129.148834 56.257587 94.070564
v 129.366882 56.314507 94.563583
v 129.356201 56.070698 95.000328
v 129.378220 56.312500 95.442398
v 129.151611 56.255249 95.930420
v 129.255798 56.821060 93.987778
v 129.508194 56.828106 94.479500
v 129.254089 56.819427 96.010544
v 129.509705 56.829777 95.523125
v 129.294342 57.525185 93.800537
v 129.448792 57.160320 94.040718
v 129.439224 57.161743 95.959091
v 129.293335 57.526459 96.198654
v 129.355057 58.030655 93.747246
v 129.356247 58.033112 96.251869
v 129.433380 58.637077 93.698845
v 129.435669 58.639538 96.307953
v 129.480865 59.198811 93.614128
v 129.492401 59.199284 96.447517
v 129.492706 59.772327 93.581665
v 129.517365 59.662163 96.679604
v 129.492325 60.344398 93.605415
v 129.502975 59.979977 97.036346
v 129.587402 60.284172 97.946548
v 129.254471 60.423248 97.975182
v 129.547241 60.425316 98.475525
v 129.490845 60.812397 93.736725
v 129.525330 60.673851 98.988716
v 129.228378 60.957207 98.991386
v 129.523605 60.960526 99.489525
v 129.504944 61.235069 94.001892
v 129.516891 61.653797 94.283783
v 129.558670 61.277889 99.969215
v 129.358505 61.589058 99.915459
v 129.641449 61.585548 100.420570
v 129.504517 62.108414 94.519707
v 129.285553 62.129833 99.944916
v 129.565201 62.117352 100.466316
v 129.506882 62.526127 94.769539
v 129.110214 62.736004 99.019142
v 129.410049 62.637512 99.934158
v 129.619873 62.658485 100.441917
v 129.507339 62.752995 95.077545
v 129.516113 62.898167 96.009308
v 129.490524 63.035080 97.000359
v 129.302078 63.156212 98.031738
v 129.548401 63.175789 97.550232
v 129.423676 63.166836 98.968918
v 129.584991 63.214634 99.475639
v 129.562958 62.962715 99.978043
v 129.603668 63.297321 98.050964
v 129.631454 63.327347 98.975121
v 129.479111 56.353439 94.999939
v 129.605515 56.887417 94.999992
v 129.553375 57.501408 94.085022
v 129.737991 57.443146 95.000137
v 129.550507 57.501919 95.911926
v 129.665939 58.035908 94.053947
v 129.899567 57.982651 94.997284
v 129.668564 58.033028 95.945854
v 129.841476 58.571327 94.012169
v 130.042557 58.620110 94.511467
v 130.035172 58.350239 95.004196
v 130.042404 58.624992 95.487579
v 129.838547 58.568275 95.986443
v 129.879532 59.283779 93.801132
v 130.019257 58.923870 94.040863
v 130.019333 58.924900 95.961975
v 129.917633 59.283451 96.252113
v 129.932327 59.785351 93.756630
v 130.081635 59.749718 96.508621
v 129.942612 60.344715 93.761032
v 130.116272 60.007233 97.001961
v 130.096207 60.205276 97.980843
v 130.163452 60.355076 98.916733
v 129.848755 60.444298 98.960770
v 130.152496 60.527088 99.412178
v 129.916672 60.770699 93.840591
v 130.156158 60.778606 99.953133
v 129.830063 60.982182 99.981125
v 130.130920 60.995056 100.476204
v 130.034988 61.127502 94.093384
v 130.110260 61.554379 94.393967
v 130.151550 61.287266 100.962067
v 129.932480 61.585308 100.921555
v 130.238312 61.593536 101.412582
v 130.067825 62.080822 94.600861
v 129.841797 62.120651 100.974518
v 130.129089 62.119701 101.478157
v 129.987045 62.489521 94.804123
v 129.848999 62.713676 100.952377
v 130.137726 62.696465 101.473595
v 130.014221 62.719566 95.093452
v 130.079453 62.899639 96.014778
v 130.089752 63.070587 96.979019
v 130.092667 63.242718 97.516983
v 129.801743 63.278381 100.014351
v 130.023132 63.201900 100.939774
v 130.252701 63.218601 101.411987
v 130.095306 63.378796 98.050568
v 130.109955 63.501495 99.003006
v 130.115021 63.553280 99.959709
v 130.207062 63.489891 100.968987
v 130.148056 58.704189 94.999382
v 130.129807 59.261955 94.088234
v 130.309570 59.210045 95.000801
v 130.173035 59.261459 95.925774
v 130.218933 59.790134 94.067528
v 130.492538 59.734001 94.984222
v 130.412659 59.758091 95.989555
v 130.303040 60.333420 94.086479
v 130.543716 60.401073 94.566139
v 130.622589 60.097069 95.014503
v 130.624786 60.088203 96.032631
v 130.603363 60.231441 96.997154
v 130.592484 60.291878 97.994606
v 130.597229 60.341251 98.946358
v 130.641586 60.493542 99.438568
v 130.232346 60.873962 94.119194
v 130.545197 60.962986 94.549606
v 130.707779 60.642113 99.987991
v 130.751953 60.900162 100.920029
v 130.436935 61.026657 100.959747
v 130.746078 61.112041 101.406906
v 130.538345 61.507797 94.693275
v 130.765625 61.404610 101.884041
v 130.553589 61.614861 101.885345
v 130.839127 61.690144 102.232414
v 130.471222 62.008572 94.794983
v 130.438416 62.122894 101.966263
v 130.793594 62.111588 102.445862
v 130.571716 62.342842 95.070084
v 130.321915 62.603020 95.065887
v 130.600098 62.614170 95.534897
v 130.421982 62.698803 101.978371
v 130.722290 62.700188 102.473534
v 130.583359 62.765106 96.055550
v 130.676590 62.995651 97.009499
v 130.639557 63.174900 97.555641
v 130.517075 63.233818 101.925758
v 130.784546 63.245987 102.441864
v 130.611969 63.352478 98.073517
v 130.649933 63.605061 99.011047
v 130.455246 63.766247 100.019737
v 130.714615 63.752506 99.552856
v 130.478439 63.756142 100.979156
v 130.726379 63.813511 101.477722
v 130.716797 63.555012 101.982170
v 130.765869 63.872490 100.054810
v 130.784317 63.925793 100.977638
v 130.724640 60.443245 95.049644
v 130.800964 60.430069 96.002914
v 130.902939 60.447937 96.978127
v 130.929626 60.418335 97.998512
v 130.928391 60.439163 98.981331
v 130.781296 60.954956 95.055122
v 130.999878 60.930557 96.001862
v 131.149734 60.987190 96.555092
v 131.160141 60.731113 97.030785
v 131.260742 60.666679 98.020134
v 131.276840 60.584213 99.023026
v 131.254272 60.707565 99.994003
v 131.261688 60.853832 100.948570
v 131.266602 61.034904 101.458321
v 130.784363 61.519325 95.065697
v 131.049164 61.530552 95.978722
v 131.257431 61.528854 96.503334
v 131.271011 61.299915 101.962357
v 131.260437 61.640926 102.451378
v 130.705139 62.036362 95.097198
v 131.003067 62.110611 95.991486
v 131.232849 62.110584 96.515007
v 131.339584 61.977489 102.879616
v 131.125351 62.192089 102.879211
v 131.441116 62.293507 103.155502
v 130.818207 62.603107 96.060661
v 131.099380 62.605965 96.587891
v 131.049164 62.710148 102.937233
v 131.406876 62.714508 103.252937
v 131.138046 62.759239 97.047302
v 130.945770 63.240608 98.023354
v 131.272583 63.013779 97.976089
v 131.290771 63.282768 98.480240
v 131.054581 63.292862 102.917343
v 131.411728 63.273182 103.245323
v 131.248032 63.526054 99.019760
v 131.225143 63.748138 99.562836
v 130.972198 63.864090 102.012939
v 131.238297 63.749561 102.915092
v 131.454956 63.690422 103.163864
v 131.207092 63.915379 100.081642
v 131.275070 64.105637 101.002098
v 131.297531 64.134583 101.969070
v 131.394836 63.919407 102.926224
v 131.341171 61.029110 97.049583
v 131.554504 60.955219 97.977966
v 131.772690 61.008820 98.522743
v 131.731262 60.874100 99.030266
v 131.761276 60.862080 99.996300
v 131.756714 60.926701 100.946655
v 131.801620 61.078022 101.436508
v 131.498398 61.520214 97.049538
v 131.704041 61.574066 97.569733
v 131.774277 61.277626 98.029961
v 131.873352 61.268787 101.955231
v 131.852692 61.563419 102.478638
v 131.493118 62.122013 97.050888
v 131.715118 62.077454 97.563560
v 131.857071 61.892288 102.944138
v 131.864975 62.254025 103.261314
v 131.312134 62.588089 97.061775
v 131.791870 62.379795 98.025024
v 131.573639 62.708179 97.979050
v 131.842438 62.731495 98.474678
v 131.870148 62.709148 103.433815
v 131.713943 63.140602 98.728737
v 131.860794 63.283371 103.462769
v 131.759369 63.349209 99.088852
v 131.552643 63.857059 100.008049
v 131.893311 63.720406 99.956467
v 131.914917 64.011497 100.440933
v 131.899643 63.806812 103.320976
v 131.768677 64.230713 100.965454
v 131.638245 64.350822 101.999184
v 131.879959 64.401955 101.514214
v 131.883286 64.396461 102.484406
v 131.839386 64.190689 102.978615
v 131.961823 64.493172 102.000381
v 131.916321 61.062057 99.035439
v 132.064865 61.052296 99.988541
v 132.069336 61.051231 100.976524
v 131.888382 61.595119 98.079559
v 132.133514 61.529919 99.016853
v 132.316391 61.576012 99.557747
v 132.329651 61.320095 100.032555
v 132.415543 61.264660 101.043915
v 132.415955 61.388695 101.962868
v 132.433090 61.584778 102.473854
v 131.891693 62.050400 98.080162
v 132.188965 62.116459 98.988655
v 132.420959 62.115108 99.507980
v 132.436386 61.871826 102.963921
v 132.443451 62.213680 103.344704
v 132.107117 62.679790 98.990799
v 132.409607 62.698292 99.515366
v 132.404846 62.678734 103.617874
v 131.981812 63.190296 99.112610
v 132.292877 63.216637 99.585472
v 132.338455 63.288387 103.670082
v 132.375595 63.497303 100.033669
v 132.465408 63.882999 100.402908
v 132.423889 63.878197 103.578613
v 132.175446 64.379410 101.037872
v 132.507751 64.247185 100.761887
v 132.174744 64.388077 102.964027
v 132.520889 64.302513 103.284729
v 132.507172 64.458015 101.095764
v 132.461258 64.602791 102.001472
v 132.513550 64.502357 102.922127
v 132.521774 61.612556 100.047607
v 132.756104 61.518147 100.959633
v 132.998032 61.567123 101.508904
v 132.910568 61.520031 101.982437
v 132.977341 61.656734 102.439888
v 132.720490 62.092655 100.040001
v 133.036392 62.129143 100.497322
v 133.060593 61.752556 100.981537
v 133.043091 61.846661 102.960854
v 133.006363 62.182865 103.480751
v 132.738174 62.703789 99.994461
v 133.115494 62.693211 100.337158
v 133.087433 62.533405 103.903206
v 132.840332 62.758007 103.904999
v 133.189850 62.861526 104.187927
v 132.643265 63.246948 100.049377
v 133.065506 63.319649 100.349854
v 132.760132 63.289059 103.967979
v 133.168686 63.287422 104.280983
v 133.008484 63.855095 100.549339
v 132.831421 63.834297 103.917358
v 133.204498 63.784081 104.246590
v 132.933899 64.246590 100.797127
v 133.075439 64.122917 103.949730
v 133.006760 64.422012 103.506912
v 132.956848 64.470352 101.096581
v 133.020782 64.649597 102.007698
v 133.054428 64.598137 102.978165
v 133.261658 61.615330 101.990646
v 133.502533 62.288284 100.751076
v 133.539032 62.013348 101.070969
v 133.631821 61.742958 102.014870
v 133.625702 61.897205 102.997559
v 133.584503 62.072830 103.532875
v 133.575272 62.722759 100.589798
v 133.590744 62.370647 104.011345
v 133.638428 62.745869 104.376205
v 133.589951 63.281811 100.563309
v 133.599960 63.273643 104.575500
v 133.561371 63.800903 100.698067
v 133.629761 63.866333 104.544106
v 133.619553 64.198868 100.996468
v 133.288986 64.395630 101.044029
v 133.628098 64.488312 101.474930
v 133.359207 64.391037 103.948059
v 133.695145 64.308578 104.286858
v 133.586044 64.634613 102.016228
v 133.615234 64.688538 103.000427
v 133.681152 64.541382 103.926208
v 133.853516 62.191010 101.058510
v 134.210846 62.146935 101.486046
v 134.168411 61.936760 102.017815
v 134.193665 61.894485 102.988983
v 134.263611 62.066849 103.917664
v 133.925323 62.173874 103.966820
v 134.271240 62.258453 104.301537
v 134.002243 62.803200 100.791534
v 134.141098 62.456604 101.060097
v 134.132660 62.646568 104.646919
v 134.044739 63.286945 100.758919
v 134.224304 63.017467 104.962608
v 134.007828 63.327656 104.916573
v 134.385864 63.370464 105.235199
v 134.019653 63.705746 100.833725
v 134.018860 63.833385 104.902405
v 134.389252 63.788994 105.230995
v 134.122284 64.037048 101.099831
v 134.196121 64.350266 101.543022
v 134.245743 64.126213 104.949753
v 134.163193 64.460297 104.523468
v 134.185272 64.585770 102.045776
v 134.194443 64.741737 103.000038
v 134.195953 64.761086 103.964424
v 134.681366 62.280178 101.726212
v 134.706726 62.067646 102.082581
v 134.774002 61.923706 103.005684
v 134.809982 61.983208 103.977295
v 134.763580 62.150612 104.513794
v 134.380035 62.747784 101.084122
v 134.764084 62.705250 101.444580
v 134.802170 62.435478 104.972427
v 134.494812 62.709911 104.990860
v 134.861420 62.780445 105.326118
v 134.446457 63.287960 101.042763
v 134.840988 63.286457 101.388412
v 134.801605 63.289543 105.546425
v 134.363388 63.812412 101.107056
v 134.761230 63.864967 101.451538
v 134.806229 63.866589 105.539406
v 134.684982 64.284256 101.736397
v 134.525574 64.410324 104.955353
v 134.859802 64.320862 105.297485
v 134.706848 64.505714 102.089012
v 134.749832 64.804100 103.003036
v 134.563934 64.923462 103.996803
v 134.822067 64.928673 103.547707
v 134.847198 64.891594 104.419991
v 134.837082 64.634079 104.925606
v 134.878067 65.012642 103.998192
v 135.021729 62.203819 102.061478
v 135.377808 62.161133 102.491119
v 135.335678 61.984276 103.022285
v 135.370636 61.933315 103.993484
v 135.439560 62.074642 104.916397
v 135.118530 62.195942 104.945992
v 135.448151 62.267521 105.294212
v 135.184021 62.791401 101.752762
v 135.315125 62.454803 102.056297
v 135.321854 62.657722 105.634590
v 135.235550 63.288898 101.695862
v 135.399323 63.019466 105.960770
v 135.187164 63.329391 105.910507
v 135.557571 63.370472 106.235489
v 135.184418 63.784740 101.753723
v 135.190475 63.833443 105.903053
v 135.559448 63.790108 106.233353
v 135.315857 64.125656 102.048401
v 135.027191 64.383667 102.056526
v 135.408890 64.462593 102.474930
v 135.413132 64.131042 105.955055
v 135.319626 64.486115 105.537712
v 135.339417 64.738167 102.985268
v 135.370773 64.984535 103.526726
v 135.335587 64.826233 105.044655
v 135.355057 65.042923 104.519005
v 135.398880 65.088432 104.015236
v 135.850937 62.281792 102.727631
v 135.873016 62.086910 103.085747
v 135.937881 61.945671 104.011314
v 135.982498 61.998718 104.975700
v 135.935928 62.151875 105.513313
v 135.553879 62.747120 102.080528
v 135.936066 62.705250 102.444557
v 135.974426 62.435471 105.972687
v 135.669159 62.712219 105.988594
v 136.033371 62.780426 106.326103
v 135.624268 63.288376 102.035141
v 136.021240 63.287868 102.379112
v 135.973328 63.289490 106.546783
v 135.561600 63.836426 102.077904
v 135.967041 63.890152 102.409378
v 135.972748 63.872112 106.546684
v 135.934784 64.353760 102.662781
v 135.680939 64.438385 105.976830
v 136.036865 64.378082 106.322327
v 135.939560 64.689606 103.041092
v 135.945938 64.963882 103.539276
v 135.669266 65.029442 104.991394
v 135.986298 64.984367 105.477356
v 135.986008 64.715965 105.966995
v 135.952667 65.128166 104.041588
v 136.028854 65.114922 104.952805
v 136.182755 62.217789 103.061951
v 136.493988 62.192966 103.530205
v 136.461136 62.038506 104.049797
v 136.536392 61.952099 104.996651
v 136.612320 62.081406 105.914688
v 136.290527 62.195953 105.945992
v 136.620407 62.267685 106.294022
v 136.353745 62.793087 102.753975
v 136.468445 62.469948 103.063377
v 136.493805 62.657738 106.634560
v 136.420151 63.295010 102.680473
v 136.571320 63.019466 106.960762
v 136.358887 63.329372 106.910767
v 136.730286 63.370926 107.234497
v 136.402817 63.866032 102.704422
v 136.358948 63.833488 106.909637
v 136.729813 63.791279 107.235161
v 136.365341 64.290321 102.824890
v 136.572037 64.142708 106.962067
v 136.492035 64.503502 106.634987
v 136.454254 64.582329 103.122414
v 136.480408 64.894882 103.583771
v 136.295700 64.961922 105.949738
v 136.614929 64.895302 106.297508
v 136.470093 65.088982 104.074043
v 136.547119 65.185326 104.995934
v 136.617340 65.080917 105.920288
v 136.818771 62.142208 104.009979
v 137.136429 62.099815 104.476692
v 137.095535 61.988289 105.019745
v 137.153549 62.008957 105.975212
v 137.108826 62.154922 106.512383
v 136.709961 62.753304 103.089088
v 137.107986 62.736057 103.526825
v 137.141373 62.357941 103.968269
v 137.148636 62.438198 106.969276
v 136.843384 62.714298 106.984917
v 137.222855 62.803761 107.296326
v 136.804749 63.290977 103.026558
v 137.193756 63.286736 103.379044
v 137.155136 63.295830 107.533417
v 136.801407 63.870361 103.030510
v 137.194000 63.874519 103.379234
v 137.154205 63.866558 107.534111
v 136.687317 64.385803 103.114861
v 137.110367 64.423378 103.529671
v 136.843063 64.449577 106.983665
v 137.222687 64.358063 107.296524
v 136.813156 65.008659 104.018997
v 137.140717 64.802383 103.971550
v 137.137680 65.062233 104.478935
v 137.149445 64.725166 106.972000
v 137.106689 65.014488 106.509712
v 137.096298 65.173943 105.019951
v 137.154999 65.161079 105.975449
v 137.645599 62.257919 104.580658
v 137.636856 62.068558 105.071182
v 137.695236 61.997227 105.999626
v 137.778534 62.130104 106.899361
v 137.466690 62.206451 106.935501
v 137.799667 62.342709 107.199791
v 137.533173 62.853962 103.790123
v 137.628876 62.555065 104.101517
v 137.726318 62.791950 107.480057
v 137.586639 63.296070 103.688766
v 137.707382 63.204948 107.824173
v 137.551788 63.360466 107.875572
v 137.706543 63.511101 108.016228
v 137.587341 63.866726 103.687248
v 137.549454 63.802197 107.876686
v 137.706497 63.650738 108.016594
v 137.536636 64.311493 103.786232
v 137.705750 63.956882 107.821663
v 137.724991 64.365746 107.480865
v 137.629089 64.609200 104.101601
v 137.651611 64.911842 104.574806
v 137.464096 64.961655 106.938499
v 137.802505 64.811630 107.195053
v 137.638519 65.100632 105.067795
v 137.695541 65.168213 105.999443
v 137.776627 65.036217 106.899910
v 137.969925 62.186443 105.024368
v 138.262375 62.248730 105.519638
v 138.159424 62.113476 106.031006
v 138.166794 62.167122 106.921021
v 138.107773 62.328907 107.141754
v 137.862122 62.774132 104.110237
v 138.270996 62.748512 104.538498
v 138.291351 62.394901 104.989853
v 138.146042 62.734863 107.281792
v 137.974274 63.291798 104.029274
v 138.361359 63.287731 104.383972
v 137.841599 63.365318 107.868431
v 138.163498 63.268127 107.445023
v 137.974533 63.870533 104.029182
v 138.362534 63.873878 104.382851
v 137.836609 63.793736 107.867599
v 138.161652 63.893417 107.443077
v 137.863022 64.389297 104.109085
v 138.276810 64.419418 104.533150
v 138.142883 64.431709 107.279716
v 137.971329 64.980545 105.022919
v 138.292862 64.770523 104.988441
v 138.263611 64.925735 105.518158
v 138.111038 64.836372 107.137802
v 138.160873 65.052673 106.030022
v 138.165649 64.994240 106.920715
v 138.332596 62.246315 106.038612
v 138.261475 62.260231 106.922775
v 138.677383 62.871231 104.802803
v 138.705688 62.672062 105.056854
v 138.574112 62.693893 105.973137
v 138.734711 62.767765 105.441689
v 138.382996 62.717270 106.930038
v 138.713181 63.298908 104.714111
v 138.673599 63.287750 106.023483
v 138.820862 63.292286 105.481209
v 138.442963 63.288853 106.956184
v 138.713425 63.863739 104.712700
v 138.673782 63.874165 106.023911
v 138.820206 63.869953 105.481308
v 138.443268 63.872223 106.955757
v 138.678238 64.292007 104.801521
v 138.573822 64.469238 105.975037
v 138.734055 64.394226 105.441475
v 138.386810 64.442940 106.933434
v 138.705765 64.490143 105.057312
v 138.334351 64.918510 106.036606
v 138.263290 64.901428 106.921425
v 138.796005 62.831806 105.027039
v 138.853546 63.297588 105.023506
v 138.850479 63.863873 105.023636
v 138.792923 64.329491 105.027061
# 724 vertices, 0 vertices normals

f 3 2 1
f 5 4 1
f 1 4 3
f 7 6 5
f 5 6 4
f 7 8 6
f 1 2 9
f 9 2 10
f 1 11 5
f 1 9 11
f 5 12 7
f 5 11 12
f 8 7 13
f 13 7 12
f 10 14 9
f 16 15 14
f 15 9 14
f 15 11 9
f 18 12 17
f 12 15 17
f 12 11 15
f 12 18 13
f 16 19 15
f 15 19 17
f 21 20 3
f 3 20 2
f 22 3 4
f 22 21 3
f 23 4 6
f 23 22 4
f 6 8 23
f 23 8 24
f 20 10 2
f 25 10 20
f 13 24 8
f 13 26 24
f 14 10 27
f 10 28 27
f 10 25 28
f 27 16 14
f 17 29 18
f 29 30 18
f 30 13 18
f 30 26 13
f 27 28 31
f 31 28 32
f 33 19 16
f 27 33 16
f 31 33 27
f 29 17 19
f 33 29 19
f 34 29 33
f 30 29 35
f 35 29 34
f 31 32 36
f 36 32 37
f 31 38 33
f 31 36 38
f 33 39 34
f 33 38 39
f 35 34 40
f 40 34 39
f 36 37 41
f 41 37 42
f 36 43 38
f 36 41 43
f 38 44 39
f 38 43 44
f 40 39 45
f 45 39 44
f 42 46 41
f 48 47 46
f 47 41 46
f 47 43 41
f 50 44 49
f 44 47 49
f 44 43 47
f 44 50 45
f 48 51 47
f 47 51 49
f 53 52 21
f 21 52 20
f 54 21 22
f 54 53 21
f 55 22 23
f 55 54 22
f 23 24 55
f 55 24 56
f 52 25 20
f 57 25 52
f 26 56 24
f 26 58 56
f 57 28 25
f 59 28 57
f 30 58 26
f 30 60 58
f 59 32 28
f 61 32 59
f 35 60 30
f 35 62 60
f 61 37 32
f 63 37 61
f 40 62 35
f 40 64 62
f 63 42 37
f 65 42 63
f 45 64 40
f 45 66 64
f 46 42 67
f 42 68 67
f 42 65 68
f 67 48 46
f 49 69 50
f 69 70 50
f 70 45 50
f 70 66 45
f 67 68 71
f 71 68 72
f 73 51 48
f 67 73 48
f 71 73 67
f 69 49 51
f 73 69 51
f 74 69 73
f 70 69 75
f 75 69 74
f 71 72 76
f 76 72 77
f 71 78 73
f 71 76 78
f 73 79 74
f 73 78 79
f 75 74 80
f 80 74 79
f 77 81 76
f 83 82 81
f 82 76 81
f 82 78 76
f 85 79 84
f 79 82 84
f 79 78 82
f 79 85 80
f 83 86 82
f 82 86 84
f 89 88 87
f 91 90 87
f 87 90 89
f 93 92 91
f 91 92 90
f 93 94 92
f 87 88 53
f 88 52 53
f 88 95 52
f 87 53 54
f 87 54 91
f 91 54 55
f 91 55 93
f 55 56 93
f 56 94 93
f 56 96 94
f 95 57 52
f 97 57 95
f 58 96 56
f 58 98 96
f 97 59 57
f 99 59 97
f 60 98 58
f 60 100 98
f 99 61 59
f 101 61 99
f 62 100 60
f 62 102 100
f 101 63 61
f 103 63 101
f 64 102 62
f 64 104 102
f 103 65 63
f 105 65 103
f 66 104 64
f 66 106 104
f 105 68 65
f 107 68 105
f 70 106 66
f 70 108 106
f 107 72 68
f 109 72 107
f 75 108 70
f 75 110 108
f 109 77 72
f 111 77 109
f 80 113 112
f 110 80 112
f 75 80 110
f 113 114 112
f 81 77 115
f 77 116 115
f 77 111 116
f 115 83 81
f 84 117 85
f 113 80 85
f 117 113 85
f 118 113 117
f 114 113 119
f 119 113 118
f 116 120 115
f 120 122 121
f 120 121 86
f 115 120 86
f 83 115 86
f 117 84 86
f 121 117 86
f 123 117 121
f 117 124 118
f 117 123 124
f 119 118 125
f 125 118 124
f 122 126 121
f 121 126 123
f 123 126 127
f 123 127 124
f 124 127 128
f 124 128 125
f 130 129 89
f 89 129 88
f 131 89 90
f 131 130 89
f 132 90 92
f 132 131 90
f 92 94 132
f 132 94 133
f 129 95 88
f 134 95 129
f 96 133 94
f 96 135 133
f 134 97 95
f 136 97 134
f 98 135 96
f 98 137 135
f 136 99 97
f 138 99 136
f 100 137 98
f 100 139 137
f 138 101 99
f 140 101 138
f 102 139 100
f 102 141 139
f 140 103 101
f 142 103 140
f 104 141 102
f 104 143 141
f 142 105 103
f 144 105 142
f 106 143 104
f 106 145 143
f 144 107 105
f 146 107 144
f 108 145 106
f 108 147 145
f 146 109 107
f 148 109 146
f 110 150 149
f 147 110 149
f 108 110 147
f 150 151 149
f 148 111 109
f 152 111 148
f 112 150 110
f 154 153 114
f 114 153 112
f 153 151 112
f 151 150 112
f 154 155 153
f 157 116 156
f 116 152 156
f 116 111 152
f 158 157 156
f 119 159 154
f 119 154 114
f 155 154 160
f 154 161 160
f 154 159 161
f 161 162 160
f 157 120 116
f 122 120 157
f 158 122 157
f 163 122 158
f 125 164 159
f 125 159 119
f 159 165 161
f 159 164 165
f 162 161 166
f 166 161 165
f 126 122 167
f 122 168 167
f 122 163 168
f 169 127 126
f 169 126 167
f 170 128 127
f 170 127 169
f 164 125 128
f 170 164 128
f 171 164 170
f 173 165 172
f 165 171 172
f 165 164 171
f 165 173 166
f 168 174 167
f 167 174 169
f 169 174 175
f 169 175 170
f 170 175 176
f 170 176 171
f 171 176 177
f 171 177 172
f 178 129 130
f 131 179 130
f 130 179 178
f 132 180 131
f 131 180 179
f 133 180 132
f 181 134 178
f 178 134 129
f 179 183 182
f 181 179 182
f 178 179 181
f 185 184 183
f 179 185 183
f 180 185 179
f 135 185 133
f 133 185 180
f 186 136 181
f 181 136 134
f 181 182 187
f 181 187 186
f 184 185 188
f 184 188 189
f 137 188 135
f 135 188 185
f 191 190 186
f 190 136 186
f 190 138 136
f 191 186 187
f 192 189 188
f 188 137 192
f 137 193 192
f 137 139 193
f 190 140 138
f 194 140 190
f 141 193 139
f 141 195 193
f 194 142 140
f 196 142 194
f 143 195 141
f 143 197 195
f 196 144 142
f 198 144 196
f 145 197 143
f 145 199 197
f 198 146 144
f 200 146 198
f 147 199 145
f 147 201 199
f 200 148 146
f 202 148 200
f 203 201 147
f 203 147 149
f 205 204 151
f 204 149 151
f 204 203 149
f 205 206 204
f 202 152 148
f 207 152 202
f 153 205 151
f 209 208 155
f 155 208 153
f 208 206 153
f 206 205 153
f 209 210 208
f 207 211 152
f 152 211 156
f 158 156 211
f 158 211 212
f 160 209 155
f 214 213 162
f 162 213 160
f 213 210 160
f 210 209 160
f 214 215 213
f 212 163 158
f 216 163 212
f 166 217 214
f 166 214 162
f 215 214 218
f 218 214 217
f 216 168 163
f 219 168 216
f 172 220 173
f 217 166 173
f 220 217 173
f 221 217 220
f 218 217 222
f 222 217 221
f 219 223 168
f 168 223 174
f 174 224 175
f 223 224 174
f 175 225 176
f 224 225 175
f 225 227 226
f 177 225 226
f 176 225 177
f 220 172 177
f 226 220 177
f 228 220 226
f 230 221 229
f 221 228 229
f 221 220 228
f 221 230 222
f 227 231 226
f 226 231 228
f 228 231 232
f 228 232 229
f 233 182 183
f 184 233 183
f 234 187 233
f 233 187 182
f 189 234 184
f 184 234 233
f 235 190 191
f 187 234 191
f 234 235 191
f 234 236 235
f 192 237 189
f 237 234 189
f 237 236 234
f 193 237 192
f 238 194 235
f 235 194 190
f 239 235 236
f 238 235 239
f 240 236 237
f 239 236 240
f 195 240 193
f 193 240 237
f 241 196 238
f 238 196 194
f 239 243 242
f 241 239 242
f 238 239 241
f 245 244 243
f 239 245 243
f 240 245 239
f 197 245 195
f 195 245 240
f 247 246 241
f 246 196 241
f 246 198 196
f 247 241 242
f 248 244 245
f 245 197 248
f 197 249 248
f 197 199 249
f 246 200 198
f 250 200 246
f 201 249 199
f 201 251 249
f 250 202 200
f 252 202 250
f 253 251 201
f 253 201 203
f 254 203 204
f 254 253 203
f 256 255 206
f 255 204 206
f 255 254 204
f 256 257 255
f 252 207 202
f 258 207 252
f 208 256 206
f 260 259 210
f 210 259 208
f 259 257 208
f 257 256 208
f 260 261 259
f 258 262 207
f 207 262 211
f 212 211 262
f 212 262 263
f 213 260 210
f 265 264 215
f 215 264 213
f 264 261 213
f 261 260 213
f 265 266 264
f 263 216 212
f 267 216 263
f 218 268 265
f 218 265 215
f 266 265 269
f 269 265 268
f 267 219 216
f 270 219 267
f 222 271 268
f 222 268 218
f 269 268 272
f 272 268 271
f 270 273 219
f 219 273 223
f 223 274 224
f 273 274 223
f 224 275 225
f 274 275 224
f 227 225 275
f 227 275 276
f 229 277 230
f 271 222 230
f 277 271 230
f 278 271 277
f 272 271 279
f 279 271 278
f 276 280 227
f 227 280 231
f 231 281 232
f 280 281 231
f 229 232 277
f 232 282 277
f 232 281 282
f 277 282 278
f 278 282 283
f 278 283 279
f 284 242 243
f 244 284 243
f 285 246 247
f 242 284 247
f 284 285 247
f 284 286 285
f 248 287 244
f 287 284 244
f 287 286 284
f 249 287 248
f 288 250 285
f 285 250 246
f 289 285 286
f 288 285 289
f 290 286 287
f 289 286 290
f 251 290 249
f 249 290 287
f 291 252 288
f 288 252 250
f 289 293 292
f 291 289 292
f 288 289 291
f 293 289 290
f 293 290 294
f 294 290 251
f 253 294 251
f 295 294 253
f 296 253 254
f 296 295 253
f 297 254 255
f 297 296 254
f 255 257 297
f 297 257 298
f 299 258 291
f 291 258 252
f 291 292 300
f 291 300 299
f 301 298 257
f 301 257 259
f 303 302 261
f 302 259 261
f 302 301 259
f 303 304 302
f 299 262 258
f 263 262 299
f 300 263 299
f 305 263 300
f 264 303 261
f 307 306 266
f 266 306 264
f 306 304 264
f 304 303 264
f 307 308 306
f 305 267 263
f 309 267 305
f 269 310 307
f 269 307 266
f 308 307 311
f 311 307 310
f 313 270 312
f 270 309 312
f 270 267 309
f 314 313 312
f 272 315 310
f 272 310 269
f 311 310 316
f 316 310 315
f 313 273 270
f 314 317 313
f 317 273 313
f 317 274 273
f 274 318 275
f 317 318 274
f 276 275 318
f 276 318 319
f 279 320 315
f 279 315 272
f 316 315 321
f 321 315 320
f 319 322 276
f 276 322 280
f 280 323 281
f 322 323 280
f 323 325 324
f 282 323 324
f 281 323 282
f 326 283 282
f 326 282 324
f 326 327 283
f 283 327 279
f 327 328 279
f 328 320 279
f 320 328 321
f 325 329 324
f 324 329 326
f 326 329 330
f 326 330 327
f 331 292 293
f 294 332 293
f 293 332 331
f 295 333 294
f 294 333 332
f 296 334 295
f 295 334 333
f 297 335 296
f 296 335 334
f 298 335 297
f 336 300 331
f 331 300 292
f 337 331 332
f 336 331 337
f 333 339 338
f 337 333 338
f 332 333 337
f 339 333 334
f 339 334 340
f 340 334 335
f 340 335 341
f 341 335 298
f 301 341 298
f 342 341 301
f 343 301 302
f 343 342 301
f 302 304 343
f 343 304 344
f 345 305 336
f 336 305 300
f 346 336 337
f 345 336 346
f 337 338 347
f 337 347 346
f 348 344 304
f 348 304 306
f 306 308 348
f 348 308 349
f 350 309 345
f 345 309 305
f 351 345 346
f 350 345 351
f 346 347 352
f 346 352 351
f 311 354 353
f 349 311 353
f 308 311 349
f 354 355 353
f 350 312 309
f 312 350 314
f 350 356 314
f 350 351 356
f 351 352 357
f 351 357 356
f 316 358 354
f 316 354 311
f 355 354 359
f 359 354 358
f 356 317 314
f 357 360 356
f 360 317 356
f 360 318 317
f 362 361 319
f 318 362 319
f 360 362 318
f 363 361 362
f 321 364 358
f 321 358 316
f 359 358 365
f 365 358 364
f 361 322 319
f 363 366 361
f 366 322 361
f 366 323 322
f 325 323 366
f 325 366 367
f 327 368 328
f 364 321 328
f 368 364 328
f 369 364 368
f 365 364 370
f 370 364 369
f 367 371 325
f 325 371 329
f 329 372 330
f 371 372 329
f 327 330 368
f 330 373 368
f 330 372 373
f 368 373 369
f 369 373 374
f 369 374 370
f 375 338 339
f 340 376 339
f 339 376 375
f 376 340 377
f 340 378 377
f 340 341 378
f 379 341 342
f 379 378 341
f 380 342 343
f 380 379 342
f 343 344 380
f 380 344 381
f 382 347 375
f 375 347 338
f 376 384 383
f 382 376 383
f 375 376 382
f 384 376 377
f 385 381 344
f 385 344 348
f 348 349 385
f 385 349 386
f 387 352 382
f 382 352 347
f 382 383 388
f 382 388 387
f 389 386 349
f 389 349 353
f 353 355 389
f 389 355 390
f 391 357 387
f 387 357 352
f 387 388 392
f 393 387 392
f 391 387 393
f 394 393 392
f 359 390 355
f 359 395 390
f 391 360 357
f 360 391 362
f 362 391 393
f 363 362 393
f 394 363 393
f 396 363 394
f 365 395 359
f 365 397 395
f 396 398 363
f 363 398 366
f 400 399 367
f 366 400 367
f 398 400 366
f 401 399 400
f 370 397 365
f 370 402 397
f 399 371 367
f 401 403 399
f 403 371 399
f 403 372 371
f 403 405 404
f 373 403 404
f 372 403 373
f 373 404 406
f 407 373 406
f 374 373 407
f 370 374 402
f 402 374 407
f 405 408 404
f 404 408 406
f 409 377 378
f 379 410 378
f 378 410 409
f 380 411 379
f 379 411 410
f 381 411 380
f 412 383 384
f 377 409 384
f 409 412 384
f 409 413 412
f 410 415 414
f 413 410 414
f 409 410 413
f 415 410 411
f 415 411 416
f 416 411 381
f 385 416 381
f 417 416 385
f 385 386 417
f 417 386 418
f 419 388 412
f 412 388 383
f 420 412 413
f 419 412 420
f 413 414 421
f 413 421 420
f 422 418 386
f 422 386 389
f 389 390 422
f 422 390 423
f 419 392 388
f 392 419 394
f 419 424 394
f 419 420 424
f 420 421 425
f 420 425 424
f 395 423 390
f 395 426 423
f 427 396 424
f 424 396 394
f 424 425 428
f 424 428 427
f 397 426 395
f 397 429 426
f 427 398 396
f 428 430 427
f 430 398 427
f 430 400 398
f 401 400 430
f 401 430 431
f 402 429 397
f 402 432 429
f 403 401 433
f 401 434 433
f 401 431 434
f 433 405 403
f 406 435 407
f 435 436 407
f 436 402 407
f 436 432 402
f 434 437 433
f 433 437 405
f 437 408 405
f 437 438 408
f 406 408 435
f 408 439 435
f 408 438 439
f 435 439 436
f 440 414 415
f 416 441 415
f 415 441 440
f 441 416 442
f 416 443 442
f 416 417 443
f 417 418 443
f 443 418 444
f 445 421 440
f 440 421 414
f 441 447 446
f 445 441 446
f 440 441 445
f 447 441 442
f 448 444 418
f 448 418 422
f 422 423 448
f 448 423 449
f 450 425 445
f 445 425 421
f 445 446 451
f 445 451 450
f 426 453 452
f 449 426 452
f 423 426 449
f 453 454 452
f 455 428 450
f 450 428 425
f 450 451 456
f 450 456 455
f 429 457 453
f 429 453 426
f 454 453 458
f 458 453 457
f 455 430 428
f 431 430 455
f 456 431 455
f 459 431 456
f 432 460 457
f 432 457 429
f 458 457 461
f 461 457 460
f 459 434 431
f 462 434 459
f 464 463 460
f 432 464 460
f 436 464 432
f 460 463 461
f 462 465 434
f 434 465 437
f 437 466 438
f 465 466 437
f 438 467 439
f 466 467 438
f 436 439 464
f 464 439 467
f 468 442 443
f 444 468 443
f 470 469 447
f 447 469 446
f 447 442 468
f 471 447 468
f 470 447 471
f 471 468 444
f 448 471 444
f 472 471 448
f 448 449 472
f 472 449 473
f 469 451 446
f 474 451 469
f 475 473 449
f 475 449 452
f 452 454 475
f 475 454 476
f 474 456 451
f 477 456 474
f 458 476 454
f 458 478 476
f 477 459 456
f 479 459 477
f 461 478 458
f 461 480 478
f 482 462 481
f 462 479 481
f 462 459 479
f 483 482 481
f 464 484 463
f 484 485 463
f 485 461 463
f 485 480 461
f 482 465 462
f 483 486 482
f 486 465 482
f 486 466 465
f 466 487 467
f 486 487 466
f 464 467 484
f 467 488 484
f 467 487 488
f 484 488 485
f 489 469 470
f 489 470 490
f 470 491 490
f 470 471 491
f 492 471 472
f 492 491 471
f 494 493 473
f 493 472 473
f 493 492 472
f 494 495 493
f 497 496 489
f 496 469 489
f 496 474 469
f 497 489 490
f 475 494 473
f 475 476 494
f 476 495 494
f 476 498 495
f 496 477 474
f 499 477 496
f 478 501 500
f 498 478 500
f 476 478 498
f 501 502 500
f 499 479 477
f 503 479 499
f 480 504 501
f 480 501 478
f 502 501 505
f 505 501 504
f 503 506 479
f 479 506 481
f 483 481 506
f 483 506 507
f 509 508 504
f 480 509 504
f 485 509 480
f 504 508 505
f 507 510 483
f 483 510 486
f 486 511 487
f 510 511 486
f 487 512 488
f 511 512 487
f 485 488 509
f 509 488 512
f 514 513 491
f 491 513 490
f 515 491 492
f 515 514 491
f 516 492 493
f 516 515 492
f 493 495 516
f 516 495 517
f 518 496 497
f 519 518 497
f 490 519 497
f 513 519 490
f 498 521 520
f 517 498 520
f 495 498 517
f 521 522 520
f 523 499 518
f 518 499 496
f 518 519 524
f 518 524 523
f 500 521 498
f 500 502 521
f 502 522 521
f 502 525 522
f 526 503 523
f 523 503 499
f 523 524 527
f 523 527 526
f 505 525 502
f 505 528 525
f 526 506 503
f 507 506 526
f 527 507 526
f 529 507 527
f 509 530 508
f 530 531 508
f 531 505 508
f 531 528 505
f 529 532 507
f 507 532 510
f 510 533 511
f 532 533 510
f 533 535 534
f 512 533 534
f 511 533 512
f 534 536 512
f 512 536 509
f 536 537 509
f 537 530 509
f 530 537 531
f 535 538 534
f 534 538 536
f 539 513 514
f 539 514 540
f 514 541 540
f 514 515 541
f 542 515 516
f 542 541 515
f 544 543 517
f 543 516 517
f 543 542 516
f 544 545 543
f 547 546 539
f 546 513 539
f 546 519 513
f 547 539 540
f 520 544 517
f 520 522 544
f 522 545 544
f 522 548 545
f 546 524 519
f 549 524 546
f 525 551 550
f 548 525 550
f 522 525 548
f 551 552 550
f 549 527 524
f 553 527 549
f 528 554 551
f 528 551 525
f 552 551 555
f 555 551 554
f 557 529 556
f 529 553 556
f 529 527 553
f 558 557 556
f 560 559 554
f 528 560 554
f 531 560 528
f 554 559 555
f 557 532 529
f 558 561 557
f 561 532 557
f 561 533 532
f 535 533 561
f 535 561 562
f 564 563 537
f 564 537 536
f 531 537 560
f 560 537 563
f 562 565 535
f 535 565 538
f 536 538 564
f 564 538 565
f 567 566 541
f 541 566 540
f 568 541 542
f 568 567 541
f 569 542 543
f 569 568 542
f 543 545 569
f 569 545 570
f 571 546 547
f 572 571 547
f 540 572 547
f 566 572 540
f 548 574 573
f 570 548 573
f 545 548 570
f 574 575 573
f 576 549 571
f 571 549 546
f 571 572 577
f 571 577 576
f 550 574 548
f 550 552 574
f 552 575 574
f 552 578 575
f 579 553 576
f 576 553 549
f 576 577 580
f 576 580 579
f 555 578 552
f 555 581 578
f 579 556 553
f 558 556 579
f 580 558 579
f 582 558 580
f 560 583 559
f 583 584 559
f 584 555 559
f 584 581 555
f 582 585 558
f 558 585 561
f 562 561 585
f 562 585 586
f 564 587 563
f 587 588 563
f 563 588 560
f 588 589 560
f 589 583 560
f 583 589 584
f 586 590 562
f 562 590 565
f 564 565 587
f 565 591 587
f 565 590 591
f 587 591 588
f 592 566 567
f 592 567 593
f 567 594 593
f 567 568 594
f 595 568 569
f 595 594 568
f 597 596 570
f 596 569 570
f 596 595 569
f 597 598 596
f 600 599 592
f 599 566 592
f 599 572 566
f 600 592 593
f 573 597 570
f 573 575 597
f 575 598 597
f 575 601 598
f 599 577 572
f 602 577 599
f 578 604 603
f 601 578 603
f 575 578 601
f 604 605 603
f 602 580 577
f 606 580 602
f 581 607 604
f 581 604 578
f 605 604 608
f 608 604 607
f 606 582 580
f 609 582 606
f 611 610 607
f 581 611 607
f 584 611 581
f 607 610 608
f 609 612 582
f 582 612 585
f 586 585 612
f 586 612 613
f 588 614 589
f 614 615 589
f 615 584 589
f 615 611 584
f 613 616 586
f 586 616 590
f 590 617 591
f 616 617 590
f 588 591 614
f 591 618 614
f 591 617 618
f 614 618 615
f 619 593 594
f 619 594 620
f 594 621 620
f 594 595 621
f 622 595 596
f 622 621 595
f 596 598 622
f 622 598 623
f 624 599 600
f 625 624 600
f 625 600 593
f 626 625 593
f 619 626 593
f 626 619 620
f 601 628 627
f 623 601 627
f 598 601 623
f 628 629 627
f 630 602 624
f 624 602 599
f 624 625 631
f 624 631 630
f 603 628 601
f 603 605 628
f 605 629 628
f 605 632 629
f 633 606 630
f 630 606 602
f 630 631 634
f 630 634 633
f 608 632 605
f 608 635 632
f 636 609 633
f 633 609 606
f 633 634 637
f 633 637 636
f 611 638 610
f 638 639 610
f 639 608 610
f 639 635 608
f 636 612 609
f 641 640 613
f 641 613 612
f 637 641 612
f 636 637 612
f 642 640 641
f 644 643 638
f 611 644 638
f 615 644 611
f 638 643 639
f 640 616 613
f 642 645 640
f 645 616 640
f 645 617 616
f 617 646 618
f 645 646 617
f 615 618 644
f 644 618 646
f 648 647 621
f 621 647 620
f 649 621 622
f 649 648 621
f 651 650 623
f 650 622 623
f 650 649 622
f 651 652 650
f 654 653 626
f 626 653 625
f 626 620 647
f 626 647 654
f 627 651 623
f 627 629 651
f 629 652 651
f 629 655 652
f 653 631 625
f 656 631 653
f 632 658 657
f 655 632 657
f 629 632 655
f 658 659 657
f 656 634 631
f 660 634 656
f 635 661 658
f 635 658 632
f 659 658 662
f 662 658 661
f 660 637 634
f 663 637 660
f 665 664 661
f 635 665 661
f 639 665 635
f 661 664 662
f 663 666 637
f 637 666 641
f 642 641 666
f 642 666 667
f 644 668 643
f 668 669 643
f 669 639 643
f 669 665 639
f 667 670 642
f 642 670 645
f 645 671 646
f 670 671 645
f 644 646 668
f 646 672 668
f 646 671 672
f 668 672 669
f 673 647 648
f 673 648 674
f 648 675 674
f 648 649 675
f 676 649 650
f 676 675 649
f 650 652 676
f 676 652 677
f 678 653 654
f 679 678 654
f 679 654 647
f 680 679 647
f 673 680 647
f 680 673 674
f 655 677 652
f 655 681 677
f 682 656 678
f 678 656 653
f 678 679 683
f 678 683 682
f 655 657 684
f 685 655 684
f 681 655 685
f 659 684 657
f 686 660 682
f 682 660 656
f 682 683 687
f 682 687 686
f 685 684 688
f 685 688 689
f 662 688 659
f 659 688 684
f 690 663 686
f 686 663 660
f 686 687 691
f 686 691 690
f 689 688 664
f 665 689 664
f 692 689 665
f 664 688 662
f 690 666 663
f 694 693 667
f 694 667 666
f 691 694 666
f 690 691 666
f 695 693 694
f 669 692 665
f 669 696 692
f 693 670 667
f 695 697 693
f 697 670 693
f 697 671 670
f 671 698 672
f 697 698 671
f 669 672 696
f 696 672 698
f 699 674 675
f 676 700 675
f 675 700 699
f 677 700 676
f 702 701 680
f 680 701 679
f 702 680 674
f 703 702 674
f 699 703 674
f 702 703 704
f 705 699 700
f 703 699 705
f 681 705 677
f 677 705 700
f 701 683 679
f 706 683 701
f 704 703 707
f 704 707 708
f 709 703 705
f 707 703 709
f 685 709 681
f 681 709 705
f 706 687 683
f 710 687 706
f 708 707 711
f 708 711 712
f 713 707 709
f 711 707 713
f 689 713 685
f 685 713 709
f 710 691 687
f 714 691 710
f 712 711 715
f 712 715 716
f 717 711 713
f 715 711 717
f 692 717 689
f 689 717 713
f 714 718 691
f 691 718 694
f 715 719 695
f 718 715 695
f 694 718 695
f 716 715 718
f 720 715 717
f 719 715 720
f 696 720 692
f 692 720 717
f 719 697 695
f 697 719 698
f 698 719 720
f 698 720 696
f 721 701 702
f 704 721 702
f 722 706 721
f 721 706 701
f 708 722 704
f 704 722 721
f 723 710 722
f 722 710 706
f 712 723 708
f 708 723 722
f 724 714 723
f 723 714 710
f 716 724 712
f 712 724 723
f 724 718 714
f 718 724 716
# 1444 faces, 0 coords texture

# End of File