####
#
# OBJ File Generated by Meshlab
#
####
# Object domain111.obj
#
# Vertices: 387
# Faces: 786
#
####
v 113.684143 141.981567 117.936584
v 105.723160 141.943039 116.164757
v 129.784225 141.109573 119.054512
v 127.711372 142.447739 116.736572
v 117.492203 139.151428 113.375847
v 103.472557 137.094315 118.349602
v 123.646027 140.256897 119.831802
v 105.435150 139.218216 118.504494
v 113.684006 135.365997 120.500008
v 103.450050 131.250366 119.078209
v 132.285370 141.713028 117.101234
v 123.498100 130.874619 116.385605
v 107.728043 141.013687 118.467957
v 132.201935 132.630173 119.742767
v 131.796432 137.121597 120.225555
v 128.279984 143.199295 114.402992
v 109.596161 135.365204 120.361389
v 100.554314 132.848770 117.756714
v 119.567406 141.072678 112.999054
v 131.759613 133.372650 120.124771
v 117.492653 141.172729 119.087265
v 107.623856 133.250259 120.168854
v 123.645981 135.365997 120.500008
v 115.441933 135.366058 120.500008
v 102.697792 138.199936 115.759277
v 117.493011 135.365997 120.499992
v 101.475853 133.280777 118.288399
v 105.512192 130.125229 119.649139
v 129.865814 141.117386 115.102425
v 129.754364 129.249496 119.798752
v 111.633835 131.311325 120.243629
v 107.531929 131.149612 116.679398
v 111.634735 141.958115 117.923927
v 123.646034 141.170532 119.085152
v 121.594955 141.170486 119.085167
v 121.594994 140.256851 119.831787
v 132.392197 141.744415 117.153030
v 125.697105 135.366074 120.500015
v 121.571487 133.390488 115.164467
v 127.654572 131.345566 117.023247
v 113.682472 129.928040 119.455467
v 117.494392 130.942062 116.721001
v 107.564026 142.223724 116.692024
v 113.685287 141.181107 119.095764
v 109.583054 132.086792 115.911232
v 132.773346 138.081741 118.258522
v 124.940422 139.986176 113.866859
v 121.595596 130.099167 119.741463
v 119.691589 137.109665 114.067093
v 105.471832 135.444855 119.245613
v 113.703064 131.830215 115.981659
v 114.273117 144.061676 111.886711
v 132.958191 137.286484 119.156097
v 125.697090 137.123154 120.472252
v 123.658432 133.335220 115.234009
v 111.972725 142.176010 113.946281
v 111.628853 130.270676 117.927589
v 125.341393 142.396912 114.269249
v 101.592796 131.221588 118.424347
v 113.680634 139.161530 113.385399
v 128.211197 143.194595 114.361359
v 109.574089 139.138596 120.204926
v 131.364868 131.633667 119.806129
v 125.696747 141.969299 117.930168
v 108.101875 135.247894 120.093422
v 99.318756 131.250504 117.939117
v 129.793793 140.238281 119.807655
v 127.868263 141.267166 114.241043
v 125.672661 141.209747 113.796753
v 104.849167 141.827820 115.079834
v 129.796921 139.131256 120.248253
v 125.696999 140.256882 119.831810
v 132.565628 133.624512 119.813423
v 127.133995 133.836151 115.832497
v 113.691727 142.898682 114.671936
v 117.493042 137.123169 120.472260
v 115.441963 141.981812 117.936844
v 131.833817 140.171219 119.708267
v 101.380531 130.642258 117.968628
v 105.516838 137.104767 118.984009
v 131.435059 131.569504 119.371513
v 123.645988 137.123154 120.472237
v 106.087082 140.776108 117.961327
v 127.796928 129.158813 119.945473
v 125.697182 133.315536 120.477737
v 119.548172 143.706589 112.052025
v 114.298286 144.120575 111.948738
v 121.594940 133.315781 120.474068
v 117.491440 129.940704 119.459351
v 125.786758 139.086090 114.145576
v 119.543953 131.306854 120.254044
v 113.690239 130.086533 119.756409
v 115.439125 129.925415 119.461784
v 108.649780 138.183334 120.003716
v 129.854248 141.799423 117.837547
v 129.761551 129.282120 119.789368
v 117.492897 142.476822 116.790207
v 103.714607 138.517715 117.997688
v 127.796257 129.142456 119.902832
v 106.121399 137.145065 114.079369
v 123.646027 133.315689 120.474121
v 119.543945 139.133163 120.258858
v 115.440468 133.429260 115.169159
v 125.644310 142.685013 114.766312
v 125.697098 139.133179 120.258842
v 109.582535 135.576935 114.369934
v 103.484795 130.501312 117.978897
v 119.095032 137.870468 113.838974
v 109.599892 142.640930 114.756966
v 108.810455 139.389191 119.787697
v 111.631264 131.116745 116.659668
v 131.888138 140.908890 118.968086
v 119.550392 131.810440 115.943672
v 105.427750 133.442505 119.595848
v 99.954155 130.581711 118.083565
v 104.161194 140.894928 114.952988
v 117.856956 136.779617 114.042793
v 103.346001 139.978439 116.095238
v 115.440575 143.049805 114.681152
v 125.894005 130.724258 116.226349
v 115.441803 135.577606 114.369476
v 117.491768 143.049881 114.687935
v 99.865898 130.559372 117.971764
v 115.443863 130.943268 116.720345
v 113.703583 133.423370 115.173866
v 121.631325 131.756363 115.865593
v 115.442291 130.227112 117.873459
v 134.180832 140.727829 119.442780
v 132.952713 139.460800 118.095581
v 125.697083 141.170578 119.085213
v 100.390266 133.061615 117.105614
v 125.890015 130.776596 116.172142
v 121.639854 130.346832 117.466370
v 117.490479 130.097031 119.747787
v 121.595047 135.366058 120.499992
v 133.303757 139.245590 119.776611
v 128.710556 136.494766 115.909798
v 127.748055 133.316254 120.463753
v 117.493874 130.240585 117.878609
v 107.531792 132.085190 115.930046
v 131.800751 139.109863 120.097099
v 115.441521 141.181458 119.095634
v 119.544060 142.478134 116.790504
v 134.263519 140.573105 119.475471
v 115.439278 130.084213 119.761475
v 123.648232 130.088272 119.743767
v 129.300705 139.541031 115.304558
v 111.639709 140.267075 119.849464
v 123.786934 138.539734 114.054047
v 121.594994 141.973846 117.932350
v 105.362671 141.192062 117.310394
v 111.642677 141.151688 119.076057
v 115.441444 139.158539 113.355782
v 111.571793 133.400848 115.203026
v 132.346497 135.375977 118.588562
v 111.637695 139.133377 120.242805
v 107.587494 133.406052 115.242989
v 130.393433 138.640518 116.291031
v 117.492867 131.828857 115.974945
v 113.638725 135.488327 114.387367
v 115.423820 143.803848 112.045990
v 123.646027 139.133209 120.258842
v 103.444725 139.369003 117.344048
v 115.441498 139.137192 120.275192
v 128.785675 130.399139 118.198433
v 127.748001 139.133194 120.258850
v 125.803131 130.052322 119.767502
v 107.531982 130.272263 117.929642
v 115.431244 137.220474 113.840302
v 113.683434 140.267960 119.851303
v 125.830765 130.720840 116.205872
v 121.598541 129.936127 119.443115
v 103.422661 135.366821 118.645302
v 102.377884 136.869247 115.717262
v 117.492958 141.971985 117.931610
v 123.645172 131.451950 115.883438
v 125.796478 130.746353 116.163513
v 107.532722 129.962463 119.254875
v 109.580971 137.222198 113.885612
v 103.546829 139.165161 115.139900
v 107.425262 139.202911 119.307953
v 131.296738 133.590118 118.143021
v 117.500023 143.689987 112.144615
v 123.588501 141.447708 113.410072
v 132.765366 137.225830 119.655281
v 130.768311 130.359009 119.841179
v 117.497116 141.078629 112.933922
v 119.543991 141.971924 117.931564
v 130.694519 141.769592 115.556747
v 104.719826 130.130539 119.412849
v 129.681915 131.306717 117.974701
v 134.196030 140.674728 119.387939
v 119.544647 143.035355 114.683990
v 105.546219 129.955933 119.306839
v 109.683426 142.256363 113.995056
v 117.491379 140.257980 119.833733
v 101.589447 133.577225 115.892181
v 102.672646 138.700043 116.656715
v 129.986969 137.048523 116.555130
v 101.534294 131.597702 116.951477
v 102.608795 137.724152 117.664772
v 130.767578 131.985306 118.302773
v 109.587639 133.316757 120.386147
v 102.232521 136.814133 117.790298
v 131.657379 135.508804 117.917648
v 125.662956 135.378479 115.009460
v 111.650902 142.680527 114.761887
v 105.622604 142.339478 114.696022
v 128.374313 135.279831 116.092529
v 127.697678 139.216705 114.712204
v 117.492355 133.433105 115.176720
v 104.992325 131.514954 119.817276
v 111.633263 133.316193 120.463394
v 105.484108 131.165985 116.696091
v 128.642471 143.104172 114.248848
v 127.179726 141.736404 114.080879
v 115.853424 143.364090 112.487526
v 119.543930 137.123169 120.472244
v 119.556831 130.919189 116.703629
v 109.521843 140.918335 119.104897
v 110.130302 140.205704 119.767792
v 109.569290 129.971344 119.260468
v 103.905106 130.386032 118.948326
v 128.767609 137.691849 115.553986
v 104.881752 141.171738 114.339470
v 105.480408 132.083344 115.959122
v 107.520248 130.177078 119.649597
v 109.593964 141.879074 117.870834
v 127.748039 135.366043 120.500015
v 101.603584 135.255890 117.912605
v 121.297081 143.730774 112.108994
v 129.772491 131.315094 120.174484
v 119.371727 143.345505 112.500526
v 113.684517 139.137573 120.276009
v 123.649315 129.930878 119.423721
v 119.543762 135.379074 114.572105
v 103.595581 137.109436 114.909126
v 111.703606 135.445175 114.411819
v 117.493057 133.315796 120.474068
v 100.779198 134.722076 117.112000
v 121.593353 143.055481 114.680817
v 121.540398 137.252609 114.193413
v 109.604332 137.120239 120.311081
v 134.326431 140.372070 119.441895
v 121.549416 139.267960 113.632317
v 129.797440 137.122345 120.447792
v 105.519104 135.385132 114.645256
v 127.937248 133.140884 116.390472
v 129.731613 133.379837 117.290245
v 119.543861 140.257065 119.832092
v 103.456963 133.532227 115.471451
v 107.551651 131.304245 120.116089
v 107.254974 137.229523 119.606216
v 109.584915 131.319534 120.205475
v 108.544868 137.067947 120.110069
v 113.615372 131.002014 116.690025
v 113.684662 131.302826 120.270866
v 103.521133 135.464874 115.067963
v 121.594940 139.133163 120.258835
v 103.971954 140.683624 116.288132
v 121.595047 131.306519 120.254822
v 109.583916 131.147415 116.675186
v 105.723701 131.102844 119.989098
v 107.098549 135.502426 119.779541
v 109.581177 130.266327 117.926048
v 131.886841 133.150848 118.786224
v 111.634155 137.122498 120.451607
v 132.719086 135.522675 119.730629
v 105.704117 139.434052 113.901184
v 123.647636 142.476700 116.788353
v 107.542641 139.188278 113.653687
v 125.680443 137.138077 114.650795
v 117.408562 135.451538 114.477371
v 111.621414 129.965042 119.344818
v 128.335266 143.164398 114.317215
v 119.588554 139.145264 113.476456
v 131.980835 137.165512 117.776672
v 105.203316 137.160324 114.247292
v 113.684517 137.216858 113.845291
v 107.642059 141.681229 117.687515
v 106.721802 134.127808 119.852676
v 125.774139 129.902054 119.436646
v 115.441917 133.315521 120.478882
v 119.551758 130.225784 117.865784
v 111.634026 142.443314 116.781181
v 101.748589 130.651215 118.238823
v 115.440140 140.267334 119.850060
v 127.746323 141.160645 119.077881
v 109.583817 139.181900 113.540451
v 101.900803 136.847519 116.970436
v 119.544060 130.094833 119.747353
v 113.684013 137.123413 120.477280
v 127.745796 141.950470 117.920952
v 119.543915 133.315735 120.474060
v 127.747513 131.294754 120.301674
v 111.633316 135.366058 120.483353
v 100.914276 133.458618 116.303932
v 109.582397 133.441208 115.209404
v 109.582901 130.169708 119.674210
v 117.164284 137.469940 113.832626
v 99.334969 131.267181 117.780296
v 119.473083 143.736923 112.088799
v 106.235565 132.294098 120.011429
v 121.506424 130.929443 116.478455
v 119.543991 135.366074 120.500000
v 130.570114 131.078201 118.629105
v 132.340149 141.670486 117.132721
v 129.796936 133.316681 120.389420
v 127.748009 137.123123 120.472252
v 103.496826 132.171310 116.062462
v 127.298042 135.570404 115.438553
v 125.700020 142.421555 116.775887
v 127.737167 137.254486 115.237701
v 101.925201 135.204758 115.837601
v 132.798676 135.588181 119.397896
v 130.715378 141.908829 115.608856
v 123.646500 131.305389 120.259796
v 103.460579 131.272202 116.782097
v 107.543472 137.225449 113.921951
v 121.221001 143.803833 112.169960
v 111.632126 139.176743 113.465897
v 121.327881 143.347397 112.516380
v 127.695930 130.319290 118.100853
v 134.224716 140.735062 119.401619
v 111.633347 137.219498 113.862282
v 115.441940 137.123398 120.477264
v 117.492630 139.133926 120.262299
v 111.623672 141.294434 113.419609
v 115.437843 141.087067 112.952179
v 131.664352 139.334305 117.069122
v 123.563789 139.627991 113.731384
v 120.778488 143.328323 112.514977
v 109.642502 141.328278 113.525749
v 132.590179 133.650375 119.607796
v 107.469116 135.468597 114.462440
v 107.558296 141.178436 113.721535
v 100.946190 134.387115 117.751923
v 116.399620 143.364029 112.487694
v 121.595047 137.123169 120.472229
v 119.541389 133.434860 115.183075
v 115.441719 142.488052 116.793762
v 123.627426 130.318085 117.316025
v 126.249260 140.365341 114.038094
v 109.587479 142.379196 116.759209
v 117.492584 131.306107 120.257011
v 121.593018 135.388718 114.623955
v 113.684029 133.315521 120.478920
v 129.757065 129.291489 119.840126
v 111.681160 132.064911 115.903183
v 113.684372 142.476898 116.790520
v 99.338463 131.263840 117.831703
v 117.488243 143.650574 112.091164
v 115.442917 131.824478 115.967957
v 123.639153 135.395752 114.715233
v 119.545662 129.941498 119.455063
v 111.640411 130.147079 119.703705
v 103.472572 133.289963 119.012108
v 121.595055 142.474350 116.789101
v 105.045540 138.840637 114.167313
v 113.684769 130.238693 117.881187
v 107.906105 142.274704 114.183052
v 123.629379 142.963608 114.678535
v 105.492073 130.304352 117.943954
v 105.911903 142.215515 114.381493
v 115.458107 143.838364 112.100739
v 117.778641 143.337585 112.494545
v 115.441483 131.302567 120.271919
v 129.828110 135.361862 116.854095
v 122.426117 138.308914 113.975174
v 105.434334 133.361847 115.326698
v 131.787994 135.370468 120.204742
v 129.726746 142.139618 116.711624
v 127.809692 129.003922 119.638977
v 123.650307 137.108948 114.363075
v 119.543938 141.170517 119.085144
v 104.696678 139.943649 117.773865
v 125.622665 133.418427 115.436707
v 121.592583 141.224670 113.095726
v 105.605568 141.163269 113.967331
v 123.646034 141.971222 117.931274
v 101.137138 135.434448 116.973076
v 107.581551 142.518036 114.761917
v 125.701912 131.304428 120.248268
v 130.868164 130.514648 119.873138
v 129.798248 135.365875 120.470924
v 127.748001 140.256866 119.831741
v 113.642334 141.200226 113.147026
# 387 vertices, 0 vertices normals

f 232 308 63
f 178 168 363
f 257 367 145
f 368 205 199
f 105 72 166
f 383 85 295
f 238 279 325
f 314 258 174
f 147 158 330
f 120 171 132
f 217 338 119
f 342 120 12
f 13 280 220
f 29 37 189
f 313 224 147
f 309 166 246
f 84 348 323
f 102 250 259
f 229 385 308
f 387 153 329
f 135 339 23
f 323 348 165
f 68 16 275
f 381 230 240
f 384 63 81
f 340 126 39
f 48 146 235
f 121 211 273
f 168 265 32
f 72 386 166
f 234 164 326
f 288 3 67
f 348 96 30
f 64 293 288
f 233 332 320
f 90 343 69
f 131 297 240
f 294 26 305
f 101 23 85
f 155 315 53
f 146 167 282
f 54 105 309
f 83 8 151
f 83 181 8
f 249 202 182
f 334 73 315
f 354 206 374
f 85 38 138
f 348 191 165
f 51 353 125
f 235 282 342
f 324 144 128
f 277 129 330
f 348 186 81
f 349 51 154
f 267 292 9
f 251 226 370
f 303 252 263
f 150 270 380
f 37 316 189
f 353 159 103
f 336 289 333
f 188 150 35
f 209 368 199
f 38 54 229
f 217 119 75
f 264 255 65
f 79 200 351
f 140 157 370
f 257 347 367
f 108 276 5
f 184 69 58
f 208 70 116
f 203 213 31
f 338 122 119
f 91 239 294
f 81 334 266
f 314 197 251
f 233 86 332
f 358 362 270
f 340 273 211
f 303 263 212
f 324 128 144
f 290 174 198
f 218 102 339
f 282 167 84
f 246 71 15
f 280 344 228
f 99 96 348
f 37 144 112
f 253 80 8
f 57 41 360
f 49 242 245
f 251 247 258
f 232 63 384
f 23 38 85
f 68 61 216
f 331 47 184
f 61 16 275
f 62 220 221
f 2 260 70
f 184 47 69
f 361 382 364
f 318 214 226
f 219 133 304
f 118 116 260
f 79 107 200
f 83 13 181
f 58 216 61
f 289 321 333
f 171 177 132
f 20 371 73
f 100 247 319
f 380 64 130
f 301 59 286
f 60 169 153
f 272 313 90
f 199 205 277
f 178 222 168
f 355 284 139
f 253 181 94
f 336 333 361
f 359 269 116
f 182 155 205
f 259 162 82
f 68 275 61
f 295 138 232
f 97 193 143
f 366 338 161
f 196 142 21
f 191 81 202
f 10 223 286
f 191 202 249
f 209 249 368
f 294 88 261
f 199 147 224
f 113 126 340
f 341 119 122
f 22 281 65
f 127 89 139
f 44 142 287
f 24 326 26
f 43 151 2
f 172 48 235
f 7 72 105
f 1 77 142
f 32 45 140
f 157 247 370
f 79 223 107
f 125 353 103
f 147 330 29
f 19 378 233
f 154 51 125
f 76 164 327
f 160 121 169
f 88 135 101
f 52 161 338
f 80 98 8
f 198 180 118
f 56 195 333
f 282 84 323
f 73 268 315
f 58 61 275
f 21 175 375
f 22 203 254
f 381 290 204
f 168 222 265
f 213 296 347
f 143 358 188
f 84 373 99
f 90 210 68
f 167 383 99
f 285 350 33
f 65 17 203
f 350 119 341
f 10 263 190
f 206 311 272
f 252 254 299
f 136 128 144
f 281 264 65
f 314 297 197
f 198 260 163
f 250 21 375
f 97 77 341
f 266 334 155
f 50 173 6
f 4 372 293
f 29 189 16
f 187 366 338
f 361 195 109
f 371 15 268
f 178 194 28
f 131 240 337
f 124 139 42
f 305 135 88
f 222 274 265
f 367 283 345
f 199 277 158
f 12 171 132
f 310 318 226
f 283 24 239
f 131 351 297
f 334 14 73
f 271 379 269
f 99 295 96
f 284 219 42
f 120 323 40
f 320 322 231
f 301 286 115
f 21 77 175
f 36 35 7
f 327 164 287
f 381 240 297
f 280 228 220
f 352 86 233
f 361 109 382
f 276 378 19
f 83 151 13
f 261 88 317
f 284 172 133
f 288 293 3
f 121 273 300
f 102 259 339
f 227 28 263
f 322 104 362
f 188 358 150
f 170 44 287
f 312 104 275
f 317 101 383
f 304 12 176
f 111 360 256
f 10 212 263
f 332 184 322
f 32 140 214
f 269 379 225
f 256 127 124
f 91 261 48
f 13 151 280
f 254 31 356
f 365 352 161
f 141 136 185
f 304 342 12
f 111 256 51
f 133 235 342
f 15 141 185
f 65 255 17
f 91 294 261
f 117 273 236
f 335 106 179
f 385 371 20
f 181 220 110
f 84 99 348
f 76 26 326
f 256 353 51
f 133 342 304
f 4 16 372
f 312 275 4
f 7 34 72
f 279 169 60
f 291 345 91
f 360 127 256
f 106 154 238
f 71 141 15
f 324 192 144
f 301 66 351
f 374 272 149
f 5 329 153
f 124 159 353
f 196 287 142
f 102 327 196
f 355 139 89
f 72 130 386
f 233 332 241
f 367 345 134
f 166 386 71
f 152 44 170
f 381 314 290
f 8 376 151
f 140 226 214
f 92 257 145
f 157 298 335
f 168 32 214
f 117 300 273
f 292 326 24
f 299 356 274
f 303 114 22
f 4 275 16
f 40 249 248
f 357 114 212
f 155 334 315
f 271 179 289
f 107 318 200
f 37 129 307
f 56 75 207
f 258 237 174
f 9 292 24
f 81 14 334
f 19 233 366
f 145 134 89
f 168 214 363
f 314 174 290
f 204 201 6
f 270 362 104
f 336 364 379
f 18 59 301
f 82 54 38
f 67 3 78
f 62 221 156
f 61 215 16
f 366 233 302
f 149 272 90
f 18 337 27
f 37 11 316
f 205 53 277
f 130 288 386
f 351 200 197
f 261 317 146
f 313 137 224
f 190 263 28
f 277 46 129
f 78 128 136
f 284 42 139
f 10 59 27
f 305 218 135
f 31 257 92
f 382 2 208
f 203 17 213
f 387 329 217
f 210 147 68
f 238 160 279
f 313 147 210
f 233 320 302
f 87 365 161
f 50 6 80
f 335 319 247
f 264 50 253
f 372 316 11
f 328 387 56
f 300 5 153
f 148 152 170
f 48 261 146
f 313 209 137
f 230 204 173
f 217 87 52
f 245 331 378
f 55 377 354
f 217 338 365
f 385 246 371
f 166 71 246
f 157 45 298
f 50 114 173
f 217 365 87
f 355 134 291
f 262 349 45
f 68 147 29
f 328 60 387
f 254 203 31
f 346 55 354
f 253 8 181
f 108 5 300
f 156 148 234
f 115 286 79
f 24 26 239
f 253 94 255
f 43 109 344
f 40 191 249
f 49 245 276
f 93 89 127
f 267 156 292
f 150 380 34
f 79 286 223
f 207 344 109
f 56 207 195
f 208 225 364
f 55 132 377
f 281 50 264
f 242 354 374
f 366 352 233
f 176 132 55
f 248 209 311
f 138 308 232
f 256 124 353
f 97 175 77
f 35 150 34
f 16 189 316
f 311 209 313
f 113 159 42
f 36 7 162
f 174 237 25
f 152 228 33
f 181 13 220
f 23 82 38
f 18 301 351
f 130 64 288
f 271 289 336
f 22 65 203
f 305 26 76
f 162 7 105
f 125 103 160
f 335 298 106
f 96 232 384
f 85 138 295
f 337 230 27
f 53 192 46
f 276 245 378
f 101 85 383
f 243 62 267
f 369 374 149
f 160 103 121
f 46 192 129
f 5 187 329
f 246 15 371
f 233 378 332
f 54 309 229
f 323 165 40
f 10 190 223
f 106 238 325
f 186 384 81
f 377 74 311
f 248 249 209
f 243 267 296
f 103 211 121
f 347 9 283
f 383 295 99
f 336 361 364
f 250 36 259
f 41 274 356
f 346 354 242
f 129 144 307
f 293 95 3
f 205 155 53
f 8 163 376
f 49 276 108
f 302 231 86
f 174 25 198
f 278 180 237
f 272 311 313
f 285 344 207
f 151 163 260
f 95 37 112
f 40 165 191
f 132 40 377
f 103 159 211
f 262 111 349
f 258 247 237
f 180 116 118
f 106 325 179
f 366 233 193
f 178 363 194
f 41 93 360
f 269 225 116
f 201 98 6
f 123 115 79
f 310 200 318
f 43 2 382
f 167 99 84
f 53 185 192
f 152 33 44
f 368 182 205
f 17 296 213
f 222 299 274
f 360 93 127
f 126 176 39
f 81 63 14
f 217 329 338
f 342 282 120
f 15 185 268
f 95 11 37
f 160 169 279
f 381 204 230
f 380 312 64
f 386 288 67
f 242 369 245
f 56 387 217
f 113 211 159
f 218 327 102
f 340 39 236
f 3 112 78
f 178 28 227
f 135 23 101
f 377 311 206
f 204 6 173
f 198 25 180
f 90 313 210
f 71 67 141
f 271 336 379
f 315 268 53
f 312 4 64
f 249 182 368
f 281 114 50
f 318 363 214
f 365 183 352
f 310 251 197
f 310 197 200
f 348 30 96
f 291 48 172
f 386 67 71
f 41 92 93
f 111 51 349
f 236 39 346
f 310 226 251
f 183 302 86
f 185 136 192
f 255 94 243
f 198 98 201
f 76 326 164
f 378 331 184
f 303 212 114
f 351 197 297
f 140 45 157
f 348 81 306
f 145 367 134
f 230 357 27
f 148 170 234
f 78 112 128
f 296 267 9
f 350 75 119
f 12 132 176
f 156 234 292
f 319 271 269
f 325 279 321
f 374 206 272
f 170 287 164
f 378 184 332
f 317 383 167
f 84 99 373
f 379 364 225
f 86 231 332
f 308 385 20
f 209 199 137
f 250 196 21
f 275 16 215
f 338 183 365
f 151 260 2
f 137 199 224
f 80 6 98
f 355 291 172
f 94 62 243
f 369 149 331
f 292 234 326
f 332 322 362
f 198 118 260
f 149 90 47
f 152 220 228
f 19 366 187
f 175 143 188
f 304 176 126
f 227 263 252
f 120 40 171
f 285 228 344
f 33 350 1
f 330 129 37
f 278 359 180
f 366 122 338
f 218 339 135
f 300 153 169
f 143 241 358
f 294 239 26
f 60 153 387
f 202 266 182
f 172 235 133
f 64 4 293
f 270 312 380
f 63 20 73
f 372 11 95
f 92 145 93
f 358 241 362
f 117 108 300
f 250 375 36
f 10 286 59
f 183 86 352
f 97 143 175
f 290 198 201
f 100 319 269
f 157 335 247
f 299 254 356
f 233 241 193
f 141 78 136
f 127 139 124
f 100 278 247
f 219 113 42
f 301 351 66
f 213 347 257
f 37 307 11
f 302 320 231
f 234 170 164
f 136 144 192
f 107 194 363
f 18 27 59
f 355 172 284
f 10 27 357
f 328 56 333
f 105 166 309
f 252 22 254
f 244 192 324
f 321 279 60
f 285 33 228
f 377 248 74
f 375 35 36
f 198 163 98
f 31 92 356
f 255 243 17
f 8 98 163
f 39 55 346
f 327 287 196
f 171 40 132
f 348 306 191
f 184 58 322
f 361 333 195
f 208 116 225
f 175 188 375
f 112 144 128
f 227 299 222
f 276 19 187
f 140 370 226
f 21 142 77
f 100 269 359
f 162 105 54
f 116 70 260
f 37 307 144
f 340 236 273
f 96 384 186
f 298 349 154
f 265 57 262
f 10 357 212
f 68 29 16
f 375 188 35
f 282 323 120
f 156 221 148
f 289 325 321
f 357 173 114
f 34 380 130
f 154 125 238
f 308 20 63
f 284 133 219
f 236 346 49
f 88 101 317
f 314 251 258
f 244 144 192
f 113 340 211
f 382 208 364
f 371 268 73
f 268 185 53
f 81 266 202
f 332 231 322
f 120 177 171
f 148 220 152
f 366 193 122
f 322 58 104
f 56 217 75
f 223 190 194
f 62 156 267
f 129 192 144
f 67 78 141
f 39 176 55
f 339 259 82
f 262 57 111
f 34 130 72
f 49 346 242
f 91 345 239
f 238 125 160
f 25 237 180
f 337 240 230
f 265 274 57
f 381 297 314
f 295 232 96
f 348 96 186
f 227 252 299
f 319 179 271
f 218 76 327
f 321 60 328
f 219 126 113
f 38 229 138
f 182 266 155
f 124 42 159
f 143 193 241
f 305 76 218
f 43 280 151
f 285 75 350
f 57 360 111
f 259 36 162
f 207 109 195
f 120 132 177
f 87 161 52
f 251 370 247
f 121 300 169
f 377 40 248
f 93 145 89
f 107 223 194
f 69 68 216
f 359 116 180
f 230 173 357
f 248 311 74
f 199 158 147
f 90 68 343
f 35 34 7
f 277 53 46
f 43 382 109
f 355 89 134
f 82 162 54
f 32 265 262
f 376 163 151
f 285 207 75
f 354 377 206
f 181 62 94
f 219 304 126
f 350 341 1
f 90 69 47
f 270 104 312
f 148 221 220
f 178 227 222
f 244 324 144
f 97 341 122
f 290 201 204
f 29 330 37
f 149 47 331
f 335 179 319
f 62 110 220
f 309 246 385
f 57 274 41
f 97 122 193
f 366 183 338
f 107 363 318
f 190 28 194
f 100 359 278
f 9 24 283
f 321 328 333
f 18 131 337
f 61 275 215
f 298 154 106
f 191 306 81
f 45 349 298
f 208 2 70
f 117 236 49
f 32 262 45
f 303 22 252
f 366 161 352
f 291 91 48
f 347 283 367
f 138 229 308
f 301 115 123
f 69 216 58
f 247 278 237
f 117 49 108
f 264 253 255
f 63 73 14
f 69 343 68
f 146 317 167
f 187 338 329
f 37 11 307
f 1 341 77
f 358 270 150
f 276 187 5
f 44 1 142
f 245 369 331
f 181 110 62
f 18 351 131
f 158 277 330
f 102 196 250
f 22 114 281
f 283 239 345
f 58 275 104
f 33 1 44
f 293 372 95
f 332 362 241
f 332 322 320
f 242 374 369
f 253 50 80
f 291 134 345
f 12 120 171
f 3 95 112
f 179 325 289
f 235 146 282
f 123 79 351
f 366 302 183
f 217 52 338
f 31 213 257
f 339 82 23
f 301 123 351
f 294 305 88
f 229 309 385
f 296 9 347
f 43 344 280
f 41 356 92
f 16 316 372
f 17 243 296
# 786 faces, 0 coords texture

# End of File