####
#
# OBJ File Generated by Meshlab
#
####
# Object domain0673.obj
#
# Vertices: 416
# Faces: 828
#
####
v 160.531418 57.513695 96.047089
v 160.667389 57.466156 95.550064
v 160.636566 57.175148 96.012535
v 160.703217 57.235336 96.944489
v 160.580734 57.532276 96.926064
v 160.767075 57.534904 97.216042
v 160.454315 58.024635 96.037407
v 160.601196 58.020878 95.518059
v 160.490692 58.029121 96.939751
v 160.699463 58.026447 97.327682
v 160.400223 58.623653 96.015121
v 160.525375 58.576733 95.468208
v 160.467163 58.600590 96.948715
v 160.714233 58.598183 97.445183
v 160.528732 59.258152 95.087578
v 160.728119 59.265369 94.713898
v 160.618973 58.915607 95.031769
v 160.374680 59.190258 96.005051
v 160.477371 59.172546 96.936165
v 160.690399 59.173111 97.334991
v 160.509476 59.769688 95.058426
v 160.715729 59.761463 94.566261
v 160.416855 59.749405 95.992485
v 160.549316 59.690178 96.907051
v 160.758850 59.678684 97.246674
v 160.589096 60.221336 95.056770
v 160.779190 60.238571 94.614128
v 160.552673 60.219784 95.968796
v 160.664627 60.263779 96.467758
v 160.666046 60.004471 96.937836
v 160.711899 60.358891 95.041161
v 160.700729 60.384251 95.974007
v 161.117752 55.755280 94.048981
v 161.279892 55.711773 93.559662
v 161.222076 55.417542 94.013306
v 161.244629 55.447224 94.981255
v 161.101013 55.771561 94.972145
v 161.218628 55.716740 95.475693
v 161.082367 56.256760 94.057213
v 161.297485 56.263184 93.564751
v 160.963074 56.277214 95.004860
v 161.195206 55.992283 95.983719
v 161.025925 56.325386 95.961227
v 161.204544 56.295341 96.477135
v 161.114899 56.769272 94.091461
v 161.330154 56.746899 93.739174
v 160.897339 56.843006 95.004074
v 160.775055 56.819786 95.970924
v 161.191650 56.592068 96.955544
v 160.939697 56.903088 96.941513
v 161.271408 56.963322 97.256927
v 161.227097 57.089233 94.056923
v 160.868835 57.377762 95.007706
v 161.148010 57.471001 94.476006
v 161.162781 57.445583 97.464226
v 160.874268 58.007721 95.007782
v 161.214386 58.015636 94.613213
v 161.080246 57.936161 97.664154
v 160.796539 58.571407 94.969208
v 161.171906 58.612995 94.590515
v 161.202148 58.335663 97.936707
v 161.056030 58.601749 97.857239
v 161.414612 58.606304 98.125923
v 161.103943 59.130352 94.363190
v 161.184967 58.880360 97.962090
v 161.021667 59.249306 97.687790
v 161.017776 59.819805 94.118576
v 161.357437 59.870152 93.831833
v 161.196487 59.513119 94.056343
v 161.150253 59.772495 97.572136
v 161.063675 60.245113 94.147102
v 161.347961 60.166130 93.873528
v 160.905792 60.310478 96.954926
v 161.251663 60.253761 97.298531
v 161.254242 60.343811 94.109276
v 161.170944 60.533501 95.011757
v 161.166885 60.584591 95.999756
v 161.225586 60.565300 96.921730
v 161.681015 54.582478 93.051186
v 161.844482 54.537277 92.552101
v 161.807953 54.244911 93.013077
v 161.825287 54.272419 93.981796
v 161.638824 54.592403 93.976578
v 161.793381 54.542427 94.477493
v 161.576920 55.096394 93.038528
v 161.800552 55.088867 92.535339
v 161.372040 55.068043 93.981636
v 161.750534 54.808434 94.989548
v 161.491486 55.116158 94.969894
v 161.759384 55.107471 95.486053
v 161.501663 55.639908 93.056572
v 161.853439 55.675274 92.555267
v 161.755356 55.398636 95.983917
v 161.467560 55.693203 95.983444
v 161.810349 55.742374 96.430420
v 161.591949 56.182514 93.110558
v 161.886429 56.108917 92.753120
v 161.792419 56.104591 96.899391
v 161.496582 56.325848 96.944336
v 161.837479 56.450886 97.206001
v 161.794373 56.445778 93.082077
v 161.741333 56.833588 93.436050
v 161.754471 56.872986 97.410637
v 161.484177 57.378052 94.048431
v 161.823059 57.256420 93.739296
v 161.709747 57.384174 97.638733
v 161.768753 57.633835 94.068169
v 161.702713 58.065079 94.338333
v 161.772385 57.820011 97.922287
v 161.469315 58.048088 97.954224
v 161.834717 58.218506 98.178635
v 161.737061 58.585121 94.346550
v 161.790573 58.617455 98.283379
v 161.474182 59.236008 94.068573
v 161.736206 59.455933 93.889542
v 161.738266 59.052620 94.120422
v 161.389557 59.209152 98.019295
v 161.816605 59.134464 98.244545
v 161.734970 59.814564 93.749336
v 161.548462 59.713451 97.912285
v 161.894989 59.588329 98.145065
v 161.736694 60.174515 93.809196
v 161.791916 59.933647 97.886932
v 161.743591 60.328472 97.534996
v 161.737610 60.407433 94.079582
v 161.736099 60.594753 95.006729
v 161.710617 60.716354 95.999626
v 161.565872 60.771248 96.974869
v 161.774612 60.816784 96.550659
v 161.830627 60.720428 97.218948
v 161.833954 60.856911 96.974083
v 162.330566 53.412106 91.064934
v 162.554108 53.398388 90.613235
v 162.427963 53.095348 91.028648
v 162.357956 53.049911 91.999405
v 162.218689 53.400623 92.005516
v 162.413879 53.104401 92.979622
v 162.218872 53.417122 92.975800
v 162.383102 53.374447 93.475349
v 162.309814 53.845951 91.096199
v 162.511536 53.830044 90.734245
v 162.104324 53.920525 92.009216
v 161.953308 53.895596 92.978149
v 162.349289 53.649914 93.976631
v 162.087540 53.953560 93.962959
v 162.400955 53.988750 94.427620
v 162.399521 54.161606 91.054482
v 162.057190 54.448685 92.011902
v 162.312180 54.538979 91.473778
v 162.371185 54.328197 94.924019
v 162.066284 54.546234 94.972549
v 162.383789 54.653072 95.407509
v 162.090225 55.071312 92.040199
v 162.414276 55.070923 91.643326
v 162.377625 54.957561 95.886139
v 162.076828 55.150570 95.951096
v 162.401978 55.275585 96.243568
v 162.185074 55.592308 92.121765
v 162.492599 55.498505 91.803139
v 162.331390 55.644093 96.572044
v 162.395279 55.817959 92.114441
v 162.338242 56.206879 92.538467
v 162.320526 56.017757 96.942055
v 162.319763 56.404373 97.242104
v 162.288132 56.624325 92.954689
v 162.257217 56.974766 93.307755
v 162.315994 56.860851 97.436485
v 162.329727 57.332142 93.645821
v 162.351242 57.379047 97.650291
v 162.321854 57.715179 94.004333
v 162.319702 58.131691 94.287331
v 162.284485 57.819988 97.923859
v 162.223740 58.217724 98.179916
v 162.345688 58.591122 94.399147
v 162.267563 58.617485 98.283783
v 162.001984 59.232666 94.057159
v 162.409744 59.088078 94.315598
v 162.242325 59.135242 98.244995
v 162.112076 59.871639 93.833939
v 162.283676 59.506672 94.050552
v 162.163162 59.589462 98.146774
v 162.129364 60.170486 93.872536
v 162.266235 59.933578 97.886826
v 162.313904 60.327972 97.534286
v 162.225876 60.357452 94.103729
v 162.303741 60.546806 95.013283
v 162.333405 60.676582 96.000259
v 162.271347 60.790077 96.561508
v 162.225403 60.718124 97.217163
v 162.221024 60.852627 96.976135
v 162.873703 52.292824 91.067032
v 162.984421 52.429207 90.886955
v 162.948944 52.239391 91.094315
v 163.027679 52.182777 91.951881
v 162.855423 52.301941 91.968010
v 162.999466 52.328629 92.413010
v 162.624420 52.748692 91.023949
v 162.965530 52.806549 90.579865
v 162.536728 52.715706 91.999359
v 162.963150 52.586193 92.917046
v 162.693878 52.809608 92.950645
v 162.978683 52.905151 93.401382
v 162.854935 53.353256 90.169380
v 163.149368 53.402092 89.935646
v 162.992035 53.196175 90.136589
v 162.961945 53.199856 93.885498
v 162.666077 53.396740 93.949348
v 162.988068 53.517521 94.243500
v 162.975571 53.583481 90.074837
v 162.878723 53.945187 90.380531
v 162.917328 53.884125 94.575172
v 162.636490 54.478001 91.022079
v 162.987717 54.415874 90.675217
v 162.906250 54.237709 94.971756
v 162.920486 54.612007 95.444687
v 162.910690 54.786533 91.007591
v 162.838120 55.156334 91.349457
v 162.858826 54.942898 95.888672
v 162.823502 55.280293 96.232147
v 162.923462 55.565228 91.659828
v 162.898117 55.697765 96.539986
v 162.912643 55.924221 92.034645
v 162.910797 56.273479 92.429237
v 162.846161 56.085060 96.895325
v 162.739609 56.431248 97.165642
v 162.625793 56.812393 93.027275
v 162.909088 56.612751 92.799118
v 162.835800 56.889309 97.303780
v 162.906494 56.934494 93.141380
v 162.899521 57.280750 93.560089
v 162.898758 57.435589 97.480057
v 162.901031 57.692417 94.026031
v 162.907211 58.085621 94.379875
v 162.590103 58.045090 97.954796
v 162.981064 57.932949 97.666367
v 162.872726 58.581219 94.609894
v 162.856247 58.335346 97.938210
v 162.643524 58.606071 98.126205
v 162.834900 59.185417 94.623268
v 162.667862 59.208172 98.018654
v 162.872940 58.880150 97.961578
v 163.035522 59.249191 97.687675
v 162.463409 59.820229 94.114662
v 162.803207 59.746151 94.546173
v 162.510590 59.713257 97.913628
v 162.909439 59.772747 97.573349
v 162.428787 60.257080 94.135712
v 162.718750 60.247707 94.601456
v 162.799118 60.247513 97.292633
v 162.775040 60.380451 95.040977
v 162.828705 60.471474 96.002953
v 162.476288 60.754787 96.972649
v 162.796021 60.539017 96.942421
v 163.175522 52.252968 91.058861
v 163.501862 52.183842 91.484482
v 163.473099 52.139317 91.983200
v 163.494888 52.262737 92.453140
v 163.477249 52.791290 90.547501
v 163.511612 52.410732 90.983322
v 163.493469 52.523758 92.952812
v 163.506653 52.858639 93.442108
v 163.416336 53.505180 89.845604
v 163.449112 53.176674 90.108788
v 163.444763 53.184811 93.888695
v 163.409897 53.521687 94.232994
v 163.234253 53.870708 90.053467
v 163.586014 53.728546 89.846680
v 163.489075 53.934601 94.548119
v 163.536682 54.098148 90.085518
v 163.494247 54.485065 90.442650
v 163.449554 54.304562 94.930351
v 163.419403 54.647240 95.293213
v 163.223541 55.049995 91.038193
v 163.577133 54.890720 90.764252
v 163.170395 55.127712 95.951805
v 163.523483 55.053432 95.619507
v 163.541580 55.230515 91.107605
v 163.471497 55.567238 91.542351
v 163.457001 55.404099 95.960579
v 163.338516 55.759266 96.275665
v 163.487411 55.924992 92.025185
v 163.469360 56.270061 92.519485
v 163.073257 56.323990 96.901436
v 163.409470 56.255680 96.464355
v 163.533905 56.609455 92.997002
v 163.177734 56.790249 93.045471
v 163.517471 56.882900 93.460220
v 163.230515 56.829765 96.999947
v 163.534439 56.819405 96.531570
v 163.344696 57.262218 93.750992
v 163.427567 57.162422 96.956902
v 163.297119 57.523994 97.229179
v 163.390549 57.553997 94.117043
v 163.374817 57.916866 94.596321
v 163.357605 58.030624 97.322815
v 163.450790 58.289520 95.013817
v 163.259125 58.628262 94.971909
v 163.536774 58.623779 95.466492
v 163.002518 58.601444 97.857635
v 163.344086 58.599663 97.445282
v 163.180328 59.186840 95.014473
v 163.458374 59.179562 95.517273
v 163.370789 59.175404 97.339096
v 163.134613 59.780819 95.058197
v 163.368011 59.723553 95.559212
v 163.296219 59.674770 97.244019
v 162.936768 60.229118 95.064087
v 163.376648 59.980991 96.023216
v 163.135193 60.264385 95.990219
v 163.101807 60.259220 96.956207
v 163.351059 59.959763 96.950539
v 164.011673 52.307446 91.579842
v 163.979858 52.204578 92.000969
v 164.010086 52.322792 92.414871
v 164.015701 52.865627 90.683403
v 164.028809 52.560650 91.071999
v 164.028366 52.579803 92.912865
v 164.005493 52.891468 93.292229
v 163.774765 53.354023 90.028389
v 164.134521 53.218723 90.333237
v 163.756409 53.369717 93.951820
v 164.112549 53.292774 93.622368
v 164.030014 53.865322 89.920692
v 164.093384 53.580109 90.007301
v 164.042938 53.645863 93.961708
v 163.939545 53.999859 94.289070
v 164.076935 54.144489 90.069565
v 164.072113 54.521107 90.429550
v 163.746048 54.543785 94.951065
v 164.064651 54.475014 94.517982
v 164.000702 54.890953 90.757256
v 163.998596 54.839493 94.941345
v 163.905411 55.169109 95.276436
v 164.025726 55.210705 91.114929
v 164.009537 55.505894 91.596642
v 163.654587 55.721535 95.907944
v 163.939636 55.664268 95.443832
v 164.013779 55.813557 92.086777
v 163.992157 56.088734 92.587646
v 163.741943 56.280510 95.948715
v 163.946060 56.213741 95.434494
v 163.965363 56.324993 93.050453
v 163.818237 56.858250 94.006134
v 164.016541 56.522511 93.980370
v 163.907364 56.887074 95.023636
v 164.024658 56.517162 94.986382
v 163.716248 56.860214 95.997925
v 163.548920 57.331097 94.085915
v 163.735947 57.414902 95.007561
v 163.723114 57.428410 95.989601
v 163.521652 57.500877 96.905716
v 163.572144 57.929893 95.052452
v 163.698135 58.006641 96.000252
v 163.580948 58.025791 96.935631
v 163.656708 58.576279 96.014427
v 163.591705 58.598820 96.948303
v 163.604080 59.175407 96.037262
v 163.568115 59.170898 96.940033
v 163.511581 59.678749 96.047737
v 163.481201 59.669270 96.929115
v 164.274597 52.297493 92.002831
v 164.361526 52.760403 91.014877
v 164.686417 52.686737 91.466713
v 164.642532 52.514259 91.999786
v 164.336075 52.784752 92.958344
v 164.683380 52.756561 92.513123
v 164.651367 53.361664 90.525635
v 164.689499 52.976749 90.969276
v 164.616699 53.071285 92.957016
v 164.516815 53.403210 93.292389
v 164.432510 53.897606 90.004456
v 164.576950 53.753086 90.116364
v 164.255341 53.958881 93.918404
v 164.565262 53.906872 93.455971
v 164.570007 54.048664 90.120934
v 164.582230 54.412769 90.580650
v 164.332565 54.519062 94.007065
v 164.611633 54.499870 93.474831
v 164.627457 54.754749 91.023338
v 164.319382 55.012718 91.054306
v 164.603149 55.029179 91.526962
v 164.408356 55.107910 93.994370
v 164.562027 55.047054 93.448807
v 164.117126 55.157421 94.908348
v 164.288513 55.592117 92.057480
v 164.569733 55.302311 92.015968
v 164.431793 55.678471 93.024437
v 164.588791 55.334095 92.981979
v 164.320358 55.660431 93.994492
v 164.154922 55.667870 94.940399
v 164.135956 56.125111 93.038727
v 164.176285 56.175701 93.996643
v 164.112900 56.170021 94.949326
v 165.136261 52.901836 91.580864
v 165.104080 52.775738 91.982338
v 165.069763 52.904709 92.242134
v 165.061371 53.482483 90.784164
v 165.142395 53.183022 91.107460
v 164.824615 53.379284 92.906708
v 165.100327 53.321934 92.439835
v 164.705856 53.905209 90.179787
v 165.000793 53.836533 90.623955
v 164.902527 53.936977 92.941521
v 165.113754 53.868176 92.433121
v 164.893494 54.450348 91.044724
v 165.124283 54.113007 91.036789
v 165.025284 54.512302 92.021767
v 165.171616 54.160973 91.982834
v 164.820328 54.482967 92.960999
v 164.757370 54.988670 92.026985
v 164.722198 54.997791 92.951141
v 165.203659 52.885735 91.975113
v 165.232574 53.412193 91.095985
v 165.278534 53.333172 91.954872
v 165.223770 53.821781 91.063942
v 165.269745 53.824184 91.950920
# 416 vertices, 0 vertices normals

f 3 2 1
f 5 4 1
f 1 4 3
f 5 6 4
f 1 2 7
f 7 2 8
f 1 9 5
f 1 7 9
f 6 5 10
f 10 5 9
f 7 8 11
f 11 8 12
f 7 13 9
f 7 11 13
f 10 9 14
f 14 9 13
f 17 16 15
f 17 15 12
f 15 11 12
f 15 18 11
f 11 19 13
f 11 18 19
f 14 13 20
f 20 13 19
f 15 16 21
f 21 16 22
f 15 23 18
f 15 21 23
f 18 24 19
f 18 23 24
f 20 19 25
f 25 19 24
f 21 22 26
f 26 22 27
f 21 28 23
f 21 26 28
f 30 24 29
f 24 28 29
f 24 23 28
f 24 30 25
f 27 31 26
f 26 31 28
f 28 31 32
f 28 32 29
f 35 34 33
f 37 36 33
f 33 36 35
f 37 38 36
f 33 34 39
f 39 34 40
f 33 41 37
f 33 39 41
f 38 37 42
f 37 43 42
f 37 41 43
f 43 44 42
f 39 40 45
f 45 40 46
f 39 47 41
f 39 45 47
f 41 48 43
f 41 47 48
f 44 43 49
f 43 50 49
f 43 48 50
f 50 51 49
f 46 52 45
f 54 53 52
f 53 45 52
f 53 47 45
f 53 2 3
f 48 53 3
f 47 53 48
f 48 3 4
f 48 4 50
f 4 6 50
f 6 51 50
f 6 55 51
f 53 54 56
f 56 54 57
f 56 8 2
f 56 2 53
f 10 55 6
f 10 58 55
f 56 57 59
f 59 57 60
f 59 12 8
f 59 8 56
f 14 62 61
f 58 14 61
f 10 14 58
f 62 63 61
f 59 60 17
f 60 16 17
f 60 64 16
f 59 17 12
f 66 65 62
f 14 66 62
f 20 66 14
f 62 65 63
f 69 68 67
f 64 69 67
f 22 64 67
f 16 64 22
f 25 66 20
f 25 70 66
f 67 68 71
f 71 68 72
f 71 27 22
f 71 22 67
f 29 73 30
f 73 74 30
f 74 25 30
f 74 70 25
f 72 75 71
f 71 75 27
f 75 31 27
f 75 76 31
f 31 77 32
f 76 77 31
f 29 32 73
f 32 78 73
f 32 77 78
f 73 78 74
f 81 80 79
f 83 82 79
f 79 82 81
f 83 84 82
f 79 80 85
f 85 80 86
f 79 87 83
f 79 85 87
f 84 83 88
f 83 89 88
f 83 87 89
f 89 90 88
f 85 86 91
f 91 86 92
f 91 34 35
f 87 91 35
f 85 91 87
f 87 35 36
f 87 36 89
f 94 93 38
f 38 93 36
f 93 90 36
f 90 89 36
f 94 95 93
f 91 92 96
f 96 92 97
f 96 40 34
f 96 34 91
f 42 94 38
f 99 98 44
f 44 98 42
f 98 95 42
f 95 94 42
f 99 100 98
f 97 101 96
f 40 96 101
f 102 40 101
f 46 40 102
f 49 99 44
f 49 51 99
f 51 100 99
f 51 103 100
f 52 46 104
f 46 105 104
f 46 102 105
f 104 54 52
f 55 103 51
f 55 106 103
f 105 107 104
f 54 104 107
f 108 54 107
f 57 54 108
f 58 110 109
f 106 58 109
f 55 58 106
f 110 111 109
f 108 60 57
f 112 60 108
f 61 110 58
f 61 63 110
f 63 111 110
f 63 113 111
f 116 115 114
f 112 116 114
f 64 112 114
f 60 112 64
f 66 117 65
f 117 118 65
f 118 63 65
f 118 113 63
f 114 115 69
f 115 68 69
f 115 119 68
f 114 69 64
f 70 120 117
f 70 117 66
f 118 117 121
f 121 117 120
f 119 72 68
f 122 72 119
f 124 123 120
f 70 124 120
f 74 124 70
f 120 123 121
f 122 125 72
f 72 125 75
f 75 126 76
f 125 126 75
f 76 127 77
f 126 127 76
f 127 129 128
f 78 127 128
f 77 127 78
f 128 130 78
f 130 74 78
f 130 124 74
f 129 131 128
f 128 131 130
f 134 133 132
f 136 135 132
f 132 135 134
f 138 137 136
f 136 137 135
f 138 139 137
f 132 133 140
f 140 133 141
f 132 142 136
f 132 140 142
f 136 143 138
f 136 142 143
f 139 138 144
f 138 145 144
f 138 143 145
f 145 146 144
f 141 147 140
f 149 148 147
f 148 140 147
f 148 142 140
f 148 80 81
f 143 148 81
f 142 148 143
f 143 81 82
f 143 82 145
f 151 150 84
f 84 150 82
f 150 146 82
f 146 145 82
f 151 152 150
f 148 149 153
f 153 149 154
f 153 86 80
f 153 80 148
f 88 151 84
f 156 155 90
f 90 155 88
f 155 152 88
f 152 151 88
f 156 157 155
f 153 154 158
f 158 154 159
f 158 92 86
f 158 86 153
f 93 156 90
f 93 95 156
f 95 157 156
f 95 160 157
f 159 161 158
f 92 158 161
f 162 92 161
f 97 92 162
f 163 160 95
f 163 95 98
f 98 100 163
f 163 100 164
f 162 165 97
f 97 165 101
f 102 101 165
f 102 165 166
f 103 164 100
f 103 167 164
f 166 105 102
f 168 105 166
f 106 167 103
f 106 169 167
f 168 170 105
f 105 170 107
f 108 107 170
f 108 170 171
f 172 169 106
f 172 106 109
f 109 111 172
f 172 111 173
f 171 112 108
f 174 112 171
f 113 173 111
f 113 175 173
f 176 115 116
f 177 176 116
f 112 177 116
f 174 177 112
f 118 175 113
f 118 178 175
f 180 179 176
f 179 115 176
f 179 119 115
f 180 176 177
f 121 178 118
f 121 181 178
f 179 122 119
f 182 122 179
f 184 183 123
f 184 123 124
f 121 123 181
f 181 123 183
f 182 185 122
f 122 185 125
f 125 186 126
f 185 186 125
f 126 187 127
f 186 187 126
f 129 127 187
f 129 187 188
f 130 184 124
f 130 189 184
f 188 190 129
f 129 190 131
f 130 131 189
f 189 131 190
f 193 192 191
f 195 194 191
f 191 194 193
f 195 196 194
f 191 192 197
f 197 192 198
f 191 199 195
f 191 197 199
f 196 195 200
f 195 201 200
f 195 199 201
f 201 202 200
f 205 204 203
f 205 203 198
f 198 203 197
f 203 133 197
f 133 134 197
f 197 134 135
f 197 135 199
f 199 135 137
f 199 137 201
f 207 206 139
f 139 206 137
f 206 202 137
f 202 201 137
f 207 208 206
f 204 209 203
f 133 203 209
f 210 133 209
f 141 133 210
f 144 207 139
f 144 146 207
f 146 208 207
f 146 211 208
f 147 141 212
f 141 213 212
f 141 210 213
f 212 149 147
f 214 211 146
f 214 146 150
f 150 152 214
f 214 152 215
f 213 216 212
f 149 212 216
f 217 149 216
f 154 149 217
f 218 215 152
f 218 152 155
f 155 157 218
f 218 157 219
f 217 159 154
f 220 159 217
f 160 219 157
f 160 221 219
f 220 222 159
f 159 222 161
f 162 161 222
f 162 222 223
f 224 221 160
f 224 160 163
f 163 164 224
f 224 164 225
f 165 162 226
f 162 227 226
f 162 223 227
f 226 166 165
f 167 225 164
f 167 228 225
f 227 229 226
f 166 226 229
f 230 166 229
f 168 166 230
f 169 228 167
f 169 231 228
f 230 232 168
f 168 232 170
f 171 170 232
f 171 232 233
f 169 172 234
f 235 169 234
f 231 169 235
f 173 234 172
f 233 174 171
f 236 174 233
f 237 235 234
f 234 173 237
f 173 238 237
f 173 175 238
f 236 177 174
f 239 177 236
f 242 241 240
f 241 238 240
f 238 178 240
f 238 175 178
f 243 179 180
f 244 243 180
f 177 244 180
f 239 244 177
f 242 240 245
f 242 245 246
f 181 245 178
f 178 245 240
f 247 182 243
f 243 182 179
f 243 244 248
f 243 248 247
f 246 245 183
f 184 246 183
f 249 246 184
f 183 245 181
f 247 185 182
f 248 250 247
f 250 185 247
f 250 186 185
f 186 251 187
f 250 251 186
f 253 252 188
f 187 253 188
f 251 253 187
f 253 249 252
f 249 189 252
f 249 184 189
f 252 190 188
f 190 252 189
f 254 192 193
f 254 193 255
f 193 256 255
f 193 194 256
f 194 196 256
f 256 196 257
f 259 258 254
f 258 192 254
f 258 198 192
f 259 254 255
f 260 257 196
f 260 196 200
f 200 202 260
f 260 202 261
f 263 262 205
f 205 262 204
f 205 198 258
f 205 258 263
f 264 261 202
f 264 202 206
f 206 208 264
f 264 208 265
f 209 204 266
f 204 267 266
f 204 262 267
f 266 210 209
f 211 265 208
f 211 268 265
f 267 269 266
f 210 266 269
f 270 210 269
f 213 210 270
f 271 268 211
f 271 211 214
f 214 215 271
f 271 215 272
f 216 213 273
f 213 274 273
f 213 270 274
f 273 217 216
f 215 218 275
f 276 215 275
f 272 215 276
f 219 275 218
f 274 277 273
f 217 273 277
f 278 217 277
f 220 217 278
f 279 276 275
f 275 219 279
f 219 280 279
f 219 221 280
f 278 281 220
f 220 281 222
f 223 222 281
f 223 281 282
f 221 224 283
f 284 221 283
f 280 221 284
f 225 283 224
f 286 227 285
f 227 282 285
f 227 223 282
f 287 286 285
f 284 283 288
f 284 288 289
f 228 288 225
f 225 288 283
f 286 229 227
f 230 229 286
f 287 230 286
f 290 230 287
f 291 289 288
f 288 228 291
f 228 292 291
f 228 231 292
f 290 293 230
f 230 293 232
f 233 232 293
f 233 293 294
f 235 292 231
f 235 295 292
f 297 236 296
f 236 294 296
f 236 233 294
f 298 297 296
f 235 237 299
f 300 235 299
f 295 235 300
f 238 299 237
f 301 239 297
f 297 239 236
f 297 298 302
f 297 302 301
f 300 299 241
f 242 300 241
f 303 300 242
f 241 299 238
f 304 244 301
f 301 244 239
f 301 302 305
f 301 305 304
f 246 303 242
f 246 306 303
f 307 248 304
f 304 248 244
f 304 305 308
f 309 304 308
f 307 304 309
f 311 310 309
f 311 309 308
f 311 306 310
f 306 249 310
f 306 246 249
f 307 250 248
f 250 307 251
f 251 307 309
f 251 309 253
f 253 309 310
f 253 310 249
f 313 312 256
f 256 312 255
f 256 257 313
f 313 257 314
f 316 315 259
f 259 315 258
f 259 255 312
f 259 312 316
f 317 314 257
f 317 257 260
f 260 261 317
f 317 261 318
f 319 262 263
f 320 319 263
f 258 320 263
f 315 320 258
f 261 264 321
f 322 261 321
f 318 261 322
f 265 321 264
f 324 323 319
f 323 262 319
f 323 267 262
f 324 319 320
f 325 322 321
f 321 265 325
f 265 326 325
f 265 268 326
f 323 327 267
f 267 327 269
f 270 269 327
f 270 327 328
f 268 271 329
f 330 268 329
f 326 268 330
f 272 329 271
f 328 274 270
f 331 274 328
f 332 330 329
f 329 272 332
f 272 333 332
f 272 276 333
f 331 334 274
f 274 334 277
f 278 277 334
f 278 334 335
f 276 279 336
f 337 276 336
f 333 276 337
f 280 336 279
f 335 338 278
f 278 338 281
f 282 281 338
f 282 338 339
f 337 336 340
f 337 340 341
f 284 340 280
f 280 340 336
f 339 342 282
f 282 342 285
f 344 343 287
f 285 344 287
f 342 344 285
f 346 345 343
f 346 343 344
f 345 346 341
f 340 345 341
f 347 345 340
f 289 347 284
f 284 347 340
f 348 290 343
f 343 290 287
f 349 343 345
f 348 343 349
f 350 345 347
f 349 345 350
f 291 351 289
f 351 347 289
f 351 350 347
f 292 351 291
f 348 293 290
f 293 348 294
f 348 352 294
f 348 349 352
f 353 349 350
f 352 349 353
f 354 350 351
f 353 350 354
f 295 354 292
f 292 354 351
f 352 296 294
f 296 352 298
f 352 355 298
f 352 353 355
f 356 353 354
f 355 353 356
f 300 356 295
f 295 356 354
f 357 302 355
f 355 302 298
f 358 355 356
f 357 355 358
f 303 358 300
f 300 358 356
f 359 305 357
f 357 305 302
f 360 357 358
f 359 357 360
f 306 360 303
f 303 360 358
f 359 308 305
f 308 359 311
f 311 359 360
f 311 360 306
f 361 312 313
f 314 361 313
f 362 315 316
f 363 362 316
f 363 316 312
f 364 363 312
f 361 364 312
f 366 364 365
f 365 364 317
f 364 361 317
f 361 314 317
f 318 365 317
f 368 367 362
f 367 315 362
f 367 320 315
f 368 362 363
f 369 366 365
f 365 318 369
f 318 370 369
f 318 322 370
f 372 371 324
f 324 371 323
f 324 320 367
f 324 367 372
f 322 325 373
f 374 322 373
f 370 322 374
f 326 373 325
f 371 375 323
f 323 375 327
f 328 327 375
f 328 375 376
f 374 373 377
f 374 377 378
f 330 377 326
f 326 377 373
f 380 331 379
f 331 376 379
f 331 328 376
f 381 380 379
f 378 377 382
f 378 382 383
f 332 384 330
f 384 377 330
f 384 382 377
f 333 384 332
f 380 334 331
f 386 385 335
f 386 335 334
f 381 386 334
f 380 381 334
f 388 387 385
f 388 385 386
f 387 388 383
f 382 387 383
f 389 387 382
f 390 382 384
f 389 382 390
f 337 390 333
f 333 390 384
f 385 338 335
f 338 385 339
f 385 391 339
f 385 387 391
f 392 387 389
f 391 387 392
f 393 389 390
f 392 389 393
f 341 393 337
f 337 393 390
f 391 342 339
f 342 391 344
f 344 391 392
f 344 392 346
f 346 392 393
f 346 393 341
f 395 394 364
f 364 394 363
f 364 366 395
f 395 366 396
f 398 397 368
f 368 397 367
f 368 363 394
f 368 394 398
f 366 369 399
f 400 366 399
f 396 366 400
f 370 399 369
f 401 371 372
f 402 401 372
f 367 402 372
f 397 402 367
f 400 399 403
f 400 403 404
f 374 403 370
f 370 403 399
f 401 375 371
f 406 405 376
f 406 376 375
f 402 406 375
f 401 402 375
f 408 407 405
f 408 405 406
f 407 408 404
f 403 407 404
f 409 407 403
f 378 409 374
f 374 409 403
f 405 379 376
f 379 405 381
f 405 410 381
f 405 407 410
f 411 407 409
f 410 407 411
f 383 411 378
f 378 411 409
f 410 386 381
f 386 410 388
f 388 410 411
f 388 411 383
f 412 394 395
f 396 412 395
f 413 397 398
f 394 412 398
f 412 413 398
f 412 414 413
f 400 414 396
f 396 414 412
f 415 402 413
f 413 402 397
f 416 413 414
f 415 413 416
f 404 416 400
f 400 416 414
f 415 406 402
f 406 415 408
f 408 415 416
f 408 416 404
# 828 faces, 0 coords texture

# End of File