####
#
# OBJ File Generated by Meshlab
#
####
# Object domain0621.obj
#
# Vertices: 1312
# Faces: 2620
#
####
v 210.935730 62.244308 113.033264
v 211.042908 62.193989 112.523865
v 211.089203 62.060871 113.035728
v 211.094650 61.921738 113.970367
v 210.927948 62.220791 113.971519
v 211.030411 62.153969 114.480995
v 210.917511 62.803844 111.031998
v 211.027679 62.748009 110.521332
v 211.071533 62.497101 111.022629
v 211.006622 62.431267 112.003792
v 210.868149 62.770123 112.022888
v 210.808853 62.723351 113.007942
v 210.842056 62.701202 113.977821
v 211.061142 62.439205 114.946007
v 211.023346 62.697819 114.880035
v 211.236557 62.687656 115.135811
v 210.965317 63.373856 109.053368
v 211.090118 63.328316 108.557495
v 211.078308 63.076042 109.026283
v 211.012299 63.017059 110.004196
v 210.912689 63.355408 110.026535
v 210.828995 63.293331 111.009949
v 210.805313 63.287521 112.001259
v 210.805084 63.267170 112.988991
v 210.909134 63.201233 113.944923
v 211.058029 63.225975 114.461884
v 211.087860 62.934437 114.918839
v 210.967194 63.787277 109.054558
v 211.094589 63.831753 108.559662
v 210.921982 63.793327 110.003029
v 210.895172 63.788860 110.999855
v 210.900284 63.783134 111.996857
v 210.934753 63.746502 112.964218
v 211.054352 63.784191 113.468376
v 211.039291 63.528996 113.970772
v 211.074646 64.088997 109.025124
v 211.054871 64.101784 110.001961
v 211.042053 64.107430 110.999466
v 211.065521 64.091354 112.009483
v 211.087906 63.931053 112.962143
v 211.347839 61.655556 114.044525
v 211.593674 61.644127 113.555992
v 211.637878 61.442650 114.040932
v 211.675232 61.339859 114.953537
v 211.465759 61.627235 114.956215
v 211.705673 61.597347 115.412453
v 211.351089 62.248680 111.035309
v 211.604004 62.280689 110.582672
v 211.633484 62.119556 111.059753
v 211.610641 62.017490 112.025963
v 211.274094 62.158363 112.004364
v 211.544189 61.823349 113.012550
v 211.218552 62.092529 114.990860
v 211.593948 62.170750 115.466103
v 211.491302 62.829765 108.040291
v 211.637360 62.793957 107.531227
v 211.675629 62.682781 108.034622
v 211.631119 62.627171 109.005165
v 211.319168 62.798454 108.994011
v 211.596191 62.510628 110.014282
v 211.263123 62.717751 110.004768
v 211.594818 62.681362 115.409157
v 211.475082 63.371250 107.053314
v 211.608322 63.323753 106.521172
v 211.617371 63.041542 107.026024
v 211.264526 63.289005 108.017616
v 211.322937 63.204903 114.930649
v 211.652725 63.099648 115.222946
v 211.536148 63.944805 106.079269
v 211.668823 63.910702 105.555748
v 211.618546 63.618069 106.024429
v 211.395309 63.879604 107.019432
v 211.246506 63.881996 108.001587
v 211.306870 63.790802 113.960281
v 211.613571 63.705006 114.406441
v 211.609558 63.420319 114.891327
v 211.546417 64.374344 106.055321
v 211.686600 64.415550 105.561623
v 211.480011 64.374863 107.002937
v 211.415817 64.389137 108.001549
v 211.297607 64.410881 108.983200
v 211.303757 64.393913 109.996658
v 211.312225 64.378326 110.998291
v 211.340805 64.339684 111.973381
v 211.593765 64.329033 112.439690
v 211.545380 64.160858 112.985901
v 211.617172 63.926952 113.924049
v 211.673691 64.662727 106.028130
v 211.628235 64.693413 107.001732
v 211.612122 64.702248 108.003326
v 211.595184 64.708870 109.017448
v 211.618912 64.582535 109.997215
v 211.629227 64.535713 110.996994
v 211.638000 64.481003 111.948715
v 211.953033 61.084499 114.998001
v 212.169647 61.013416 114.516304
v 212.251663 60.910366 115.001732
v 212.186600 61.009476 115.478355
v 212.151382 61.485558 113.498550
v 212.102249 61.186275 113.995209
v 212.179794 61.271324 115.973495
v 211.992401 61.584682 115.909737
v 212.278748 61.573620 116.422333
v 212.095551 62.245316 110.557251
v 212.061768 62.104160 111.076950
v 212.126373 61.958321 112.015488
v 212.137268 61.758991 112.981567
v 211.964737 62.072727 115.918297
v 212.292984 62.057037 116.407455
v 211.890335 62.780823 107.027222
v 212.168915 62.771084 106.522629
v 212.212082 62.666927 107.053413
v 212.138977 62.582355 108.012817
v 212.132431 62.540119 109.006821
v 212.145676 62.420410 110.007607
v 212.149872 62.397865 115.986282
v 212.047089 62.773106 115.669434
v 212.061691 63.401890 105.038521
v 212.220703 63.373390 104.530647
v 212.249863 63.223114 105.039711
v 212.140213 62.997322 105.982857
v 211.839569 63.295795 105.987679
v 212.142990 63.185020 115.346176
v 212.086258 63.948544 104.078964
v 212.291519 63.936863 103.586403
v 212.218643 63.635822 104.040169
v 211.853561 63.876217 105.018044
v 212.141617 63.509140 114.949142
v 212.134872 63.784443 114.455727
v 212.043686 64.458130 104.056290
v 212.233612 64.458611 103.549263
v 211.850815 64.463303 105.009903
v 212.130203 64.197472 113.009819
v 212.129532 64.390205 112.473640
v 212.130981 63.980110 113.949036
v 212.140762 64.918434 104.057808
v 212.318283 64.954216 103.594368
v 212.064453 64.921150 105.008461
v 211.915375 64.940407 105.988205
v 211.898560 64.963974 107.000473
v 211.904221 64.951096 107.998047
v 211.917114 64.931114 108.974747
v 212.176270 64.892288 109.433022
v 212.118225 64.737206 109.992538
v 212.131668 64.618225 110.989075
v 212.129745 64.530136 111.951546
v 212.280869 65.090439 104.039711
v 212.246033 65.103226 105.004776
v 212.220520 65.119629 106.001892
v 212.217178 65.110443 107.000053
v 212.212723 65.084068 107.996971
v 212.218842 65.037552 108.945229
v 212.456787 61.022823 114.040344
v 212.792480 61.154545 113.766212
v 212.786011 60.932854 114.094429
v 212.740173 60.740501 115.008972
v 212.745102 60.683331 115.955238
v 212.430389 60.959362 116.022552
v 212.825516 60.734306 116.967628
v 212.647232 61.030891 116.947968
v 212.855560 60.996517 117.432663
v 212.741135 61.521172 113.403374
v 212.502991 61.514111 116.937752
v 212.787979 61.526470 117.460274
v 212.388290 62.188240 111.024025
v 212.670120 62.192806 111.524872
v 212.619873 62.062378 112.036636
v 212.694229 61.859516 112.983963
v 212.572296 62.057392 116.914360
v 212.879181 62.043777 117.403282
v 212.462173 62.792389 106.032784
v 212.718704 62.874577 105.584770
v 212.709366 62.750893 106.080559
v 212.638809 62.675488 107.007957
v 212.632599 62.638161 108.000122
v 212.636337 62.620628 109.001137
v 212.647995 62.575214 110.006210
v 212.721405 62.395313 110.977882
v 212.425568 62.700829 115.999710
v 212.753876 62.656116 116.476364
v 212.775436 62.361919 116.963509
v 212.473572 63.358067 104.026466
v 212.761917 63.352112 103.525726
v 212.800888 63.215149 104.053123
v 212.738403 63.011566 105.024284
v 212.776154 62.893551 115.962143
v 212.694611 63.198692 115.466766
v 212.562286 63.929604 103.080688
v 212.861862 63.934399 102.584953
v 212.772476 63.625019 103.032104
v 212.731873 63.518356 114.943993
v 212.669556 63.742855 114.438309
v 212.492950 64.459404 103.039116
v 212.786041 64.460724 102.540855
v 212.671524 64.070503 112.983757
v 212.638977 64.305511 112.424210
v 212.629471 63.907249 113.943031
v 212.575012 64.981544 103.084938
v 212.853607 64.987534 102.578590
v 212.668427 64.650970 109.986366
v 212.658829 64.875954 109.416801
v 212.630447 64.529526 110.991425
v 212.599380 64.461830 111.942635
v 212.792053 65.260750 103.051315
v 212.711227 65.398727 104.020622
v 212.729630 65.286743 104.994293
v 212.728668 65.240662 105.998833
v 212.712875 65.187302 106.989342
v 212.650436 65.092056 107.972824
v 212.629623 65.031807 108.941704
v 213.082703 60.462250 116.022629
v 213.345398 60.477886 115.555283
v 213.396942 60.339058 116.052330
v 213.392700 60.276138 117.003616
v 213.090286 60.468651 117.011787
v 213.440491 60.306049 117.960999
v 213.268799 60.480995 117.939445
v 213.481567 60.447670 118.408081
v 213.206146 61.163780 113.803268
v 213.234665 60.935581 114.105804
v 213.279327 60.631908 115.016258
v 213.074844 60.936813 117.945129
v 213.367844 60.948738 118.461563
v 213.283661 61.557804 113.553566
v 213.074631 61.523361 117.961433
v 213.404312 61.537334 118.459740
v 212.927841 62.221115 112.023232
v 213.047348 62.076233 112.977165
v 213.393661 62.025410 113.312164
v 213.182693 62.028660 117.884254
v 213.459656 61.969887 118.253036
v 212.972687 62.792744 106.016335
v 212.961182 62.783501 106.997368
v 212.952850 62.782658 107.999382
v 212.953598 62.781158 109.000053
v 212.965790 62.762642 110.001869
v 213.034363 62.677044 110.989662
v 213.239639 62.743713 111.518959
v 213.191193 62.496258 112.024681
v 213.322723 62.385441 112.987694
v 213.060318 62.623070 116.960495
v 213.380219 62.521526 117.398018
v 213.394089 62.235588 117.888786
v 213.052505 63.352379 103.023575
v 213.347916 63.349457 102.524940
v 213.392426 63.213226 103.047905
v 213.308670 63.132481 104.012383
v 213.293854 63.057007 105.004776
v 213.311844 62.934643 105.984116
v 213.306747 63.006626 106.987755
v 213.241074 63.042034 107.999207
v 213.224289 63.052750 109.000191
v 213.214172 63.056416 110.002396
v 213.261505 63.009216 111.001633
v 213.338821 63.003841 115.983490
v 213.259155 63.173992 115.447922
v 213.375778 62.750961 116.921509
v 213.161758 63.933243 102.101768
v 213.481262 63.956234 101.740486
v 213.370331 63.629353 102.046555
v 213.137177 63.924618 112.018402
v 213.290833 63.588779 112.001938
v 213.265701 63.855911 111.493294
v 212.974106 63.845741 112.979668
v 213.242188 63.538380 112.994827
v 212.943130 63.777000 113.977898
v 213.255920 63.539055 114.009903
v 213.220215 63.362381 114.947319
v 213.101624 64.460701 102.069565
v 213.446945 64.457611 101.713203
v 213.002396 64.445671 109.995972
v 213.256424 64.147102 109.995514
v 213.247025 64.419922 109.481300
v 212.943726 64.365646 111.006042
v 213.192825 64.086060 110.980652
v 212.795746 64.327255 111.963631
v 213.153015 64.991089 102.098999
v 213.494064 64.945030 101.783638
v 212.989273 64.993935 107.995522
v 213.289764 64.745483 107.999474
v 213.263947 64.982590 107.478859
v 212.913284 64.913689 108.964821
v 213.197769 64.667717 108.977127
v 213.373108 65.280235 102.059326
v 213.085999 65.532387 103.016479
v 213.359726 65.550056 102.530853
v 213.055038 65.547058 103.981270
v 213.339493 65.505791 104.442596
v 213.279724 65.371414 104.999229
v 213.285751 65.227325 105.985336
v 213.217285 65.105286 106.948349
v 213.407440 65.666405 103.031891
v 213.384827 65.644264 103.949371
v 213.883850 60.447033 115.539223
v 213.892365 60.269234 116.051964
v 213.899796 60.122219 117.006027
v 213.881683 60.006119 117.975380
v 213.961868 60.141163 118.946251
v 213.744507 60.421535 118.916275
v 214.018066 60.408508 119.431801
v 213.543518 61.037998 114.071625
v 213.907608 60.970978 114.487976
v 213.865128 60.700832 114.997620
v 213.657883 60.945301 118.963219
v 213.953674 60.941277 119.464546
v 213.707382 61.629215 113.766052
v 213.829681 61.286243 114.060379
v 213.717224 61.482170 118.923309
v 214.050201 61.458359 119.403473
v 213.771225 62.125896 113.669266
v 213.933487 61.787594 118.968323
v 213.866211 62.100697 118.510323
v 213.324463 62.800156 112.037025
v 213.471146 62.768433 113.039635
v 213.713730 62.634563 113.571350
v 213.921951 62.355450 117.996902
v 213.893051 62.618332 117.459465
v 213.621155 63.306862 102.018700
v 213.935089 63.344585 101.546120
v 213.912262 63.011360 102.059792
v 213.898605 63.040638 102.997849
v 213.831192 63.192268 103.959915
v 213.807587 63.197506 104.999557
v 213.768845 63.213310 105.970474
v 213.601059 63.290634 107.017464
v 213.809540 63.357796 106.475784
v 213.429581 63.358093 107.992790
v 213.375229 63.371876 108.998672
v 213.344757 63.368153 109.999168
v 213.344299 63.350643 111.018974
v 213.363754 63.229115 111.983940
v 213.389328 63.210030 113.008842
v 213.792145 62.925991 114.025490
v 213.551971 63.235073 113.985977
v 213.536926 63.202019 114.981331
v 213.866394 62.967030 115.039780
v 213.875092 62.920280 115.996788
v 213.887146 62.790443 116.948570
v 213.845810 63.881943 101.408691
v 213.816345 63.619217 106.975533
v 213.760880 63.910534 107.442337
v 213.583649 63.860416 107.991264
v 213.449051 63.869164 108.984001
v 213.358704 63.808781 109.974648
v 213.325882 63.777966 110.970528
v 213.876266 64.486130 101.403358
v 213.494507 64.409744 107.980980
v 213.728348 64.405479 107.417000
v 213.360275 64.362274 108.966064
v 213.915985 65.019478 101.570595
v 213.543884 64.968300 106.972107
v 213.799698 64.696976 106.958832
v 213.801178 64.952888 106.468689
v 213.660400 65.526665 102.068855
v 213.996521 65.419884 101.796951
v 213.836166 65.233093 104.982483
v 213.836151 65.470573 104.420494
v 213.766724 65.082207 105.960777
v 213.972733 65.632683 102.099655
v 213.902054 65.761917 103.000610
v 213.820999 65.637169 103.914055
v 214.227692 59.857250 118.021332
v 214.512009 59.912128 117.562965
v 214.558533 59.752117 118.057159
v 214.560760 59.673477 119.003098
v 214.246002 59.859680 119.021271
v 214.604279 59.571102 119.948471
v 214.419479 59.868580 119.947342
v 214.618942 59.829327 120.430084
v 214.397995 60.541164 115.602539
v 214.401138 60.316597 116.080986
v 214.444519 60.063557 117.014214
v 214.236252 60.345585 119.948074
v 214.532349 60.358280 120.467239
v 214.312485 61.088928 114.751381
v 214.391144 60.821560 115.114014
v 214.248215 60.937172 119.960350
v 214.590668 60.946823 120.448807
v 214.464111 61.632656 101.014763
v 214.599716 61.574768 100.556938
v 214.559570 61.292747 101.002449
v 214.539703 61.556248 101.485222
v 214.038269 61.587795 114.107254
v 214.355865 61.520374 114.555527
v 214.354553 61.443542 119.883469
v 214.636902 61.368816 120.232529
v 214.380112 62.136406 101.039948
v 214.554916 62.120903 100.538673
v 214.537689 61.852768 101.965408
v 214.401215 62.192539 101.929367
v 214.620667 62.194603 102.296097
v 214.096298 62.136322 114.079453
v 214.352371 62.071175 114.567055
v 214.226730 62.040520 118.956711
v 214.549149 61.920551 119.392059
v 214.567459 61.643764 119.880287
v 214.311996 62.708004 101.038368
v 214.579529 62.727520 100.540215
v 214.157715 62.698158 101.971405
v 214.435013 62.646877 102.547768
v 213.954193 62.617073 114.062202
v 214.436417 62.381649 115.019257
v 214.187790 62.698334 114.982788
v 214.432114 62.645649 115.519447
v 214.492462 62.402187 117.985634
v 214.430542 62.581181 117.446411
v 214.541016 62.142139 118.913368
v 214.215530 63.255672 101.057487
v 214.579025 63.281155 100.662659
v 214.373901 62.917847 103.041527
v 214.182434 63.302704 104.000404
v 214.574203 63.208336 103.557526
v 214.115234 63.386726 105.005707
v 213.954941 63.404800 105.961121
v 214.372665 62.761669 116.022255
v 214.382889 62.720917 116.950806
v 214.219864 63.863983 101.043472
v 214.610092 63.857582 100.731544
v 214.492706 63.562782 104.010201
v 214.361084 63.660126 104.973122
v 214.347458 63.914143 105.442665
v 214.161774 63.876358 105.978561
v 213.922943 63.942719 106.920792
v 214.289230 64.405884 101.090271
v 214.649017 64.285408 100.840981
v 214.158890 64.456955 105.981033
v 214.342422 64.420151 105.438370
v 213.923874 64.393486 106.918594
v 214.529373 64.644257 101.091286
v 214.451523 65.056824 101.405075
v 214.158615 65.005356 105.003464
v 214.400055 64.710571 104.966537
v 214.444290 65.021927 104.485069
v 213.952606 64.922043 105.960350
v 214.478958 65.459625 101.730682
v 214.135712 65.549896 103.959229
v 214.452774 65.314873 103.980003
v 214.490143 65.588760 103.511528
v 214.475906 65.669243 102.071655
v 214.440903 65.725563 102.977654
v 215.084976 56.941349 98.022186
v 215.254578 56.896652 97.577095
v 215.150467 56.603233 98.006149
v 215.119705 56.863476 98.488525
v 215.067047 57.363655 98.083496
v 215.239746 57.349953 97.722954
v 215.115677 57.155968 98.983543
v 215.036926 57.498226 98.933983
v 215.206039 57.490219 99.420067
v 215.123962 57.694897 98.038818
v 214.989319 58.017776 98.998817
v 215.058029 58.033630 98.479507
v 215.068024 58.002983 99.516747
v 214.973633 58.604771 99.036102
v 215.149673 58.617390 98.527657
v 215.117569 58.332672 99.963661
v 215.024475 58.676102 99.921898
v 215.219360 58.684402 100.284691
v 214.968185 59.184631 99.057343
v 215.174362 59.178082 98.655579
v 214.934067 59.219135 99.978050
v 215.101547 59.171257 100.506554
v 214.850128 59.274002 120.036858
v 215.129089 59.229595 119.556892
v 215.114532 58.936005 120.012733
v 215.164780 58.957741 120.961273
v 215.018082 59.282314 120.930496
v 215.258850 59.269283 121.246384
v 214.987289 59.759487 99.072571
v 215.218750 59.752743 98.732056
v 214.873138 59.779144 99.996666
v 215.144058 59.528034 100.939079
v 215.017899 59.847374 100.915276
v 215.248550 59.882229 101.232735
v 214.986725 59.967422 117.604111
v 214.995239 59.753078 118.091446
v 215.048645 59.471680 119.017838
v 214.856613 59.764950 120.911484
v 215.206818 59.775394 121.263916
v 215.037247 60.283352 99.095604
v 215.275421 60.250385 98.807587
v 214.841614 60.359200 100.011780
v 214.893555 60.392212 100.974983
v 215.135025 60.388233 101.451195
v 214.712326 60.446671 116.044121
v 214.994934 60.427910 116.531143
v 214.972885 60.222115 117.058884
v 214.848114 60.351208 120.936378
v 215.207397 60.343941 121.244911
v 215.144073 60.602062 99.064125
v 214.855179 60.920223 100.008835
v 215.074127 60.985634 99.481697
v 214.692963 60.921257 100.987167
v 215.145462 60.794682 101.883224
v 214.988754 61.035591 101.910637
v 215.239929 61.121319 102.167412
v 214.593094 61.032448 115.116814
v 214.881729 61.020321 115.601479
v 214.977448 60.705467 116.042328
v 214.923157 60.868420 120.879852
v 215.240021 60.764942 121.152618
v 214.812210 61.498093 100.050850
v 215.152115 61.522610 99.645119
v 214.742294 61.517712 101.983543
v 215.128555 61.578228 102.320480
v 214.684937 61.532677 115.051193
v 214.962601 61.530994 115.549049
v 215.138077 61.080471 120.877083
v 215.058746 61.409431 120.442154
v 214.847427 62.105900 100.061806
v 215.198532 62.098637 99.733337
v 215.063049 62.107582 102.568932
v 214.634430 62.061535 115.076355
v 214.899338 62.050697 115.586479
v 215.092407 61.758572 119.941071
v 215.024521 61.973572 119.434380
v 214.917358 62.631290 100.115570
v 215.238495 62.525723 99.844467
v 215.098312 62.520515 102.906113
v 214.784225 62.730656 102.979752
v 215.130188 62.899635 103.221344
v 214.677261 62.586411 116.019272
v 214.935242 62.312332 116.031105
v 214.687454 62.585976 116.978073
v 214.969879 62.345737 117.015755
v 214.981354 62.218227 117.984703
v 214.981125 62.136993 118.940796
v 215.120056 62.880745 100.101234
v 215.038559 63.318085 100.387794
v 215.059509 63.296768 103.475601
v 215.071350 63.851875 100.576668
v 214.726135 63.897881 104.014328
v 215.114151 63.829353 103.670044
v 214.491837 63.956825 104.939751
v 215.064316 64.311073 100.759125
v 214.818176 64.458061 104.022682
v 215.160568 64.457176 103.653900
v 214.512344 64.393875 104.918892
v 215.060303 64.696854 101.058716
v 215.053543 65.077927 101.420769
v 214.685669 64.997482 103.980545
v 215.050934 65.045807 103.560692
v 214.971359 65.429092 101.755013
v 214.955063 65.461555 103.269646
v 214.959427 65.611320 102.070938
v 214.961197 65.629196 102.934647
v 215.681625 47.606724 101.077538
v 215.847504 47.665218 100.857811
v 215.788513 47.497986 101.077393
v 215.781113 47.441113 102.000175
v 215.633484 47.601265 102.000587
v 215.791626 47.500134 102.921890
v 215.698654 47.594784 102.920326
v 215.859604 47.655830 103.125107
v 215.589645 48.068779 101.073875
v 215.809280 48.070652 100.754204
v 215.504730 48.062443 101.993256
v 215.655685 47.986252 102.897430
v 215.875412 47.961658 103.176079
v 215.541229 48.639683 101.055725
v 215.761551 48.654560 100.664375
v 215.494827 48.616756 101.985527
v 215.621231 48.657879 102.527290
v 215.720993 48.316601 102.952927
v 215.500656 49.247921 101.017693
v 215.677048 49.191570 100.479866
v 215.524200 49.222816 101.959511
v 215.740082 49.236492 102.470306
v 215.630814 49.887772 100.098045
v 215.852814 49.916977 99.792465
v 215.737152 49.568935 100.068344
v 215.453156 49.815750 101.005165
v 215.565277 49.796284 101.933739
v 215.785492 49.785744 102.308090
v 215.556625 50.409096 100.062462
v 215.770416 50.424694 99.675354
v 215.454376 50.390156 100.994972
v 215.629776 50.318005 101.902077
v 215.856018 50.288277 102.204460
v 215.501068 51.006561 100.018669
v 215.679184 50.951302 99.481262
v 215.501312 50.957302 100.981354
v 215.679077 51.012600 101.518730
v 215.737564 50.636829 101.931229
v 215.612808 51.643639 99.088165
v 215.813492 51.668270 98.727745
v 215.733902 51.324963 99.061111
v 215.455612 51.573807 100.005180
v 215.556885 51.554882 100.937393
v 215.771469 51.538254 101.322533
v 215.517853 52.186775 99.024246
v 215.693451 52.142239 98.491196
v 215.455963 52.147316 99.993851
v 215.631470 52.075733 100.902115
v 215.854187 52.045944 101.206375
v 215.631271 52.818192 98.097656
v 215.852951 52.847237 97.792702
v 215.739960 52.500660 98.069275
v 215.455994 52.746696 99.006165
v 215.517807 52.707226 99.975777
v 215.693420 52.751728 100.508804
v 215.740051 52.393276 100.930511
v 215.556610 53.339096 98.062462
v 215.770538 53.354774 97.675560
v 215.455643 53.320206 98.994820
v 215.612854 53.250355 99.911827
v 215.813538 53.225746 100.272316
v 215.500290 53.936481 98.018257
v 215.678909 53.881256 97.481171
v 215.495804 53.889004 98.982056
v 215.677689 53.944267 99.519897
v 215.733994 53.569023 99.938911
v 215.628616 54.575714 97.097160
v 215.862366 54.605564 96.808655
v 215.737457 54.257114 97.068550
v 215.438354 54.503803 98.004143
v 215.529999 54.497227 98.943779
v 215.757614 54.480247 99.336525
v 215.568436 55.097706 97.071541
v 215.814209 55.096725 96.760506
v 215.397476 55.085556 97.999786
v 215.544876 55.084293 98.933441
v 215.796280 55.078606 99.267914
v 215.536560 55.673588 97.066841
v 215.805435 55.670090 96.750877
v 215.345322 55.669685 98.001549
v 215.523392 55.672382 98.939369
v 215.803131 55.671268 99.250061
v 215.515152 56.257305 97.066055
v 215.804733 56.245060 96.753960
v 215.240570 56.220032 97.997513
v 215.453308 56.262535 98.957314
v 215.766647 56.268284 99.306236
v 215.485214 56.762657 97.122429
v 215.843475 56.739727 96.800049
v 215.284637 56.801094 99.014725
v 215.675430 56.838978 99.486343
v 215.689728 57.105114 97.050240
v 215.603653 57.482624 97.363693
v 215.716904 57.272564 99.887878
v 215.504929 57.511585 99.894241
v 215.815887 57.603622 100.169449
v 215.311722 58.031670 97.983337
v 215.685989 57.987984 97.617981
v 215.323975 58.003834 100.005478
v 215.712723 58.061985 100.323105
v 215.629242 58.149410 120.070663
v 215.829483 58.197826 119.825981
v 215.786041 57.977097 120.072800
v 215.778198 57.817631 120.961105
v 215.594208 58.117256 120.955414
v 215.801514 58.081352 121.416779
v 215.463898 58.549026 98.078262
v 215.827377 58.495388 97.777985
v 215.644287 58.586201 100.578835
v 215.366119 58.608440 120.032349
v 215.708618 58.654636 119.672493
v 215.355453 58.599468 120.985542
v 215.643066 58.633049 121.470932
v 215.679031 58.868538 98.042717
v 215.568176 59.278347 98.323563
v 215.688370 58.997135 100.914116
v 215.400696 59.241196 100.946251
v 215.748169 59.376431 101.209953
v 215.639435 59.113522 119.369362
v 215.650742 59.218445 121.578148
v 215.648590 59.771282 98.492645
v 215.667358 59.803349 101.412140
v 215.309525 59.851032 118.045547
v 215.670563 59.789742 118.482101
v 215.630142 59.496742 118.977501
v 215.650803 59.772057 121.499374
v 215.677902 60.323132 98.639908
v 215.648666 60.279762 101.638496
v 215.208740 60.442524 117.055626
v 215.492508 60.427780 117.592102
v 215.604324 60.101528 118.034096
v 215.662903 60.338150 121.396812
v 215.401306 60.886826 99.056870
v 215.743973 60.740246 98.812233
v 215.647568 60.691372 101.955170
v 215.649719 61.093437 102.239548
v 215.115906 61.015968 116.077873
v 215.367416 60.952682 116.998726
v 215.604599 60.945454 117.521568
v 215.650528 60.790173 121.233368
v 215.683365 61.130081 99.092697
v 215.625702 61.563122 99.387947
v 215.651688 61.549625 102.435890
v 215.159836 61.530090 116.053543
v 215.370667 61.540337 117.008652
v 215.562195 61.494724 117.548149
v 215.648193 61.139751 120.924194
v 215.640976 61.455177 120.458267
v 215.656570 62.094490 99.576485
v 215.678802 62.069275 102.645599
v 215.079727 62.022160 116.055489
v 215.173401 62.037403 117.012199
v 215.582092 61.757099 118.039665
v 215.302612 62.032291 117.989853
v 215.313416 62.037807 118.985382
v 215.655746 61.881332 119.017540
v 215.634659 61.687477 119.960587
v 215.650238 62.553135 99.758865
v 215.610260 62.507175 102.924301
v 215.554520 62.902073 103.194275
v 215.647827 62.953850 100.044243
v 215.650513 63.368530 100.356812
v 215.611481 63.321980 103.353951
v 215.628403 63.842442 100.588173
v 215.615402 63.869770 103.419495
v 215.546158 64.264618 100.794960
v 215.588699 64.427284 103.344452
v 215.590332 64.610748 101.103981
v 215.559738 64.954842 101.581680
v 215.457565 64.948151 103.246498
v 215.558105 65.246971 102.027168
v 215.251877 65.490219 102.047112
v 215.241333 65.482330 102.952019
v 215.513748 65.230492 102.947556
v 216.248199 47.633522 100.763306
v 216.249435 47.402771 101.073395
v 216.250412 47.301914 101.999741
v 216.249649 47.405209 102.924973
v 216.250992 47.639553 103.215805
v 216.242172 48.073654 100.569351
v 216.265427 48.053200 103.335854
v 216.209564 48.604626 100.379486
v 215.911987 48.650108 102.999290
v 216.316620 48.582966 103.267189
v 215.986435 49.273518 100.059402
v 216.334412 49.414341 99.790245
v 216.274658 49.025764 100.072708
v 216.070221 49.154907 102.897034
v 216.394684 49.038063 103.150558
v 216.257858 49.845242 99.602577
v 216.289246 49.394577 102.892799
v 216.220551 49.826962 102.590424
v 216.212845 50.367802 99.388794
v 216.259567 50.354641 102.383888
v 215.984619 51.029503 99.055679
v 216.322876 51.163460 98.753609
v 216.274002 50.782009 99.069267
v 215.988785 50.929230 101.935486
v 216.328720 50.779186 102.192215
v 216.241074 51.592621 98.457039
v 216.274414 51.167709 101.913666
v 216.216141 51.589775 101.600098
v 215.990723 52.210209 98.064270
v 216.328644 52.356705 97.807365
v 216.278259 51.980778 98.097504
v 216.259399 52.112736 101.384590
v 216.258270 52.780857 97.613167
v 215.990738 52.683823 100.935722
v 216.328690 52.537182 101.192200
v 216.216370 53.303905 97.399483
v 216.278214 52.913342 100.902611
v 216.240845 53.299835 100.542595
v 215.988785 53.964783 97.064491
v 216.329834 54.115742 96.812378
v 216.274445 53.726425 97.086487
v 215.984848 53.864296 99.943916
v 216.323807 53.728851 100.245689
v 216.263596 54.532257 96.655945
v 216.273972 54.112194 99.930809
v 216.206543 54.534676 99.623543
v 216.246918 55.087063 96.584442
v 216.240952 55.077518 99.460579
v 216.243942 55.669937 96.569786
v 216.238586 55.668854 99.416740
v 216.246735 56.253593 96.585602
v 216.238693 56.258873 99.476967
v 216.263229 56.808437 96.656006
v 216.229858 56.751247 99.660309
v 215.967834 57.391743 97.044273
v 216.327805 57.226513 96.808968
v 216.233719 57.177158 99.954460
v 216.233673 57.578712 100.233170
v 216.038925 57.526043 120.998871
v 216.257736 57.454712 120.510544
v 216.332474 57.233524 121.001228
v 216.260544 57.451756 121.489479
v 216.270706 57.618206 97.082565
v 216.216614 58.034893 97.407082
v 216.232864 58.032452 100.434525
v 216.283173 58.093323 119.715126
v 216.217102 57.691154 120.023712
v 216.284363 57.750553 121.962936
v 216.093506 58.072865 121.896584
v 216.427780 58.106247 122.214523
v 216.240280 58.526653 97.661484
v 216.235764 58.510590 100.656929
v 216.237579 58.609253 119.536781
v 216.021164 58.604786 121.928833
v 216.388519 58.597233 122.231850
v 215.968018 59.139343 98.057144
v 216.234970 58.917572 97.881058
v 216.232864 58.927048 100.963661
v 216.231888 59.334515 101.241982
v 216.270645 59.142048 119.343719
v 216.058777 59.129345 121.898743
v 216.408905 59.011562 122.155357
v 216.231934 59.314781 98.125076
v 216.226898 59.767342 98.406403
v 216.224792 59.793907 101.424103
v 216.082306 59.906704 118.741051
v 216.187881 59.574684 119.070625
v 216.286407 59.375504 121.912376
v 216.196625 59.811119 121.638420
v 216.207443 60.315086 98.627426
v 216.260483 60.323223 101.618950
v 215.820694 60.407372 118.075996
v 216.132568 60.349339 118.544098
v 216.221603 60.321819 121.410141
v 216.139236 60.741180 98.807869
v 216.193329 60.745647 101.927200
v 216.130783 61.137012 102.202873
v 215.887619 60.944565 118.031670
v 216.174377 60.938534 118.535194
v 216.132919 60.747433 121.205124
v 216.193558 61.129578 99.086479
v 216.251404 61.552170 99.399582
v 216.204224 61.561981 102.369820
v 215.808762 61.478157 118.075211
v 216.070663 61.439892 118.584541
v 216.171707 61.077923 120.892113
v 216.163177 61.360725 120.409866
v 216.210114 62.080734 99.602943
v 216.234055 62.113419 102.516151
v 216.098221 61.585918 119.031830
v 216.131790 61.548336 119.940842
v 216.132217 62.508892 99.793274
v 215.915207 62.733315 102.953247
v 216.282883 62.577599 102.658150
v 216.188385 62.873222 100.098923
v 216.192413 63.274040 100.530396
v 216.240417 63.027332 102.884056
v 216.013580 63.386295 103.178314
v 216.053833 63.765244 100.760330
v 216.013901 63.786095 103.192238
v 216.136917 64.104950 101.062943
v 215.876068 64.381882 101.064217
v 216.137482 64.390366 101.534378
v 215.968521 64.475922 102.978363
v 216.150330 64.131996 102.953728
v 216.166000 64.422836 102.483345
v 215.851578 64.952553 102.040054
v 216.101028 64.650673 101.999557
v 215.713028 64.944000 102.937943
v 216.804886 47.633869 100.764656
v 216.804413 47.404293 101.074348
v 216.803513 47.301899 102.000244
v 216.804520 47.402912 102.926453
v 216.804703 47.635456 103.228821
v 216.812836 48.068218 100.553589
v 216.803070 48.066208 103.356369
v 216.823303 48.551159 100.347054
v 216.801071 48.604095 103.322174
v 216.817841 49.373035 99.758804
v 216.819626 48.972015 100.044273
v 216.724670 49.019176 103.180389
v 216.813995 49.828014 99.558945
v 216.784409 49.408268 102.905922
v 216.837097 49.836483 102.602798
v 216.823486 50.308430 99.345757
v 216.796997 50.356190 102.389069
v 216.816879 51.127560 98.721367
v 216.819641 50.728058 99.040794
v 216.725708 50.779610 102.193336
v 216.834900 51.567009 98.433784
v 216.784012 51.168720 101.909584
v 216.837219 51.595764 101.604080
v 216.725281 52.356815 97.807625
v 216.782639 51.972179 98.095566
v 216.797028 52.114220 101.389091
v 216.794693 52.781116 97.615128
v 216.725739 52.537594 101.193321
v 216.835953 53.300938 97.400002
v 216.782074 52.921646 100.905205
v 216.830795 53.325264 100.565575
v 216.724121 54.115753 96.812248
v 216.784637 53.725956 97.092735
v 216.819992 53.762730 100.277435
v 216.789368 54.532230 96.658409
v 216.820541 54.166351 99.958282
v 216.819870 54.579063 99.642441
v 216.807129 55.086418 96.585953
v 216.807510 55.072502 99.446327
v 216.810074 55.670074 96.569824
v 216.802429 55.671913 99.350510
v 216.807098 56.252949 96.584450
v 216.803223 56.271271 99.428101
v 216.790405 56.807747 96.655952
v 216.837814 56.817707 99.603897
v 216.621429 56.963871 121.044891
v 216.886230 56.991508 120.582016
v 216.916382 56.761879 121.044426
v 216.969666 56.668888 121.934036
v 216.763763 56.951591 121.936050
v 217.008652 56.934647 122.256248
v 216.724167 57.224251 96.812378
v 216.764267 57.245831 99.905190
v 216.653595 57.602306 100.170586
v 216.556366 57.478161 120.036980
v 216.913773 57.623974 119.791695
v 216.878998 57.287468 120.103554
v 216.491257 57.405704 121.980293
v 216.881836 57.461262 122.341049
v 216.775467 57.601826 97.097305
v 216.812210 58.002197 97.449203
v 216.753479 58.064682 100.321335
v 216.831314 58.039703 119.615326
v 216.846893 58.019581 122.427429
v 216.713028 58.482044 97.728279
v 216.819595 58.596466 100.567665
v 216.817352 58.604225 119.514183
v 216.839584 58.581829 122.388779
v 216.803665 58.875256 98.023193
v 216.498169 59.137733 98.063942
v 216.871475 59.243629 98.358047
v 216.757309 59.013412 100.895142
v 216.643738 59.361610 101.156219
v 216.824585 59.180191 119.457787
v 216.823166 59.035717 122.236420
v 216.774872 59.739452 98.628334
v 216.677475 59.791733 101.256927
v 216.418137 59.832317 119.089691
v 216.834946 59.726788 119.413925
v 216.821228 59.424282 121.941963
v 216.805527 59.821613 121.590240
v 216.634293 60.254421 98.773308
v 216.719666 60.374741 101.342438
v 216.487305 60.363705 119.028816
v 216.836639 60.318874 119.517204
v 216.715851 60.246017 121.285393
v 216.745758 60.604065 99.059685
v 216.479233 60.891209 99.064522
v 216.803253 60.978886 99.475716
v 216.481277 60.993763 101.940010
v 216.790756 60.911705 101.520020
v 216.463959 60.953136 119.054039
v 216.695099 60.888798 119.559654
v 216.472824 60.873528 120.944214
v 216.780853 60.608650 120.956787
v 216.742477 60.888508 120.473701
v 216.698120 61.502182 99.674644
v 216.731079 61.288960 101.931366
v 216.602509 61.638443 102.188591
v 216.267532 61.407124 119.061424
v 216.680695 61.126141 120.006599
v 216.420029 61.383732 119.959175
v 216.614731 62.008286 99.792908
v 216.641174 62.128731 102.248238
v 216.714050 62.344231 100.069054
v 216.465195 62.629539 100.061638
v 216.734283 62.643795 100.533340
v 216.589554 62.683361 102.315437
v 216.539886 63.294762 101.017128
v 216.741226 62.948376 101.005890
v 216.605637 63.310719 102.033218
v 216.735214 62.952271 101.974518
v 216.272034 63.353489 102.916557
v 216.304443 63.793034 101.077904
v 216.442886 63.848240 101.998901
v 216.250183 63.803062 102.903809
v 216.268417 64.344521 102.001793
v 217.208572 47.666424 100.853996
v 217.265488 47.499229 101.077553
v 217.273605 47.440460 101.999825
v 217.265503 47.498028 102.922508
v 217.204559 47.665733 103.139664
v 217.268127 48.083046 100.721619
v 217.227112 48.054417 103.218369
v 217.363953 48.642620 100.527275
v 217.191177 48.530636 103.186729
v 217.229050 49.403824 99.843468
v 217.329651 49.078835 100.120697
v 217.068069 49.168720 102.944519
v 217.325043 48.883369 102.937042
v 217.404373 49.264812 102.522217
v 217.288208 49.835064 99.705215
v 217.309402 49.796017 102.347267
v 217.378235 50.392498 99.513474
v 217.221405 50.295265 102.221664
v 217.231735 51.160397 98.825989
v 217.330261 50.835800 99.120193
v 217.072891 50.931187 101.948105
v 217.350845 50.646721 101.945641
v 217.439316 51.039955 101.546852
v 217.303009 51.587833 98.663132
v 217.316132 51.556301 101.355156
v 217.067719 52.209724 98.056328
v 217.403900 52.112961 98.477806
v 217.221970 52.053452 101.222397
v 217.202164 52.846062 97.790955
v 217.324936 52.494678 98.063148
v 217.072403 52.688564 100.947662
v 217.350739 52.404442 100.945702
v 217.421982 52.788250 100.536781
v 217.282425 53.349281 97.674980
v 217.288071 53.303589 100.330475
v 217.066635 53.969223 97.056885
v 217.379959 53.879745 97.484146
v 217.218506 53.733829 100.163612
v 217.191727 54.605637 96.809616
v 217.324844 54.253551 97.063782
v 217.308578 54.053371 99.874298
v 217.322556 54.463169 99.445076
v 217.238770 55.097744 96.762642
v 217.223587 54.991173 99.243645
v 217.246658 55.670033 96.752327
v 217.260361 55.667625 99.077629
v 217.386292 55.368259 98.979698
v 217.509888 55.672600 98.570816
v 217.239609 56.243263 96.760674
v 217.370331 55.971863 98.985001
v 217.205322 56.349197 99.218216
v 217.241898 56.413242 121.985435
v 217.443039 56.320831 121.515755
v 217.530106 56.201477 121.989433
v 217.520248 56.370018 122.407570
v 217.191971 56.734512 96.808434
v 217.268829 56.866062 99.308434
v 217.434326 56.828407 120.523323
v 217.376434 56.499741 120.996964
v 217.370453 56.851852 122.582558
v 217.314636 57.081486 97.069008
v 217.063263 57.371773 97.064255
v 217.359848 57.439667 97.491249
v 216.986343 57.494682 99.901306
v 217.314224 57.416122 99.469780
v 217.403412 57.582142 119.767815
v 217.410583 57.213810 120.070122
v 217.312057 57.431885 122.650162
v 217.239868 57.914440 97.727386
v 217.145203 58.000309 100.003799
v 217.423462 57.996021 99.525116
v 217.393188 58.030392 119.617844
v 217.371445 58.054035 122.640022
v 217.320740 58.259499 98.057533
v 217.081512 58.573727 98.034119
v 217.360535 58.613304 98.489098
v 217.342117 58.333183 99.961967
v 217.225342 58.692974 100.262062
v 217.392014 58.599377 119.579979
v 217.405167 58.586300 122.457390
v 217.259949 59.106239 98.700752
v 216.956696 59.257954 100.879562
v 217.249466 59.182133 100.435791
v 217.367050 59.175095 119.615868
v 217.323898 58.992592 122.223984
v 217.326065 59.444332 99.037331
v 217.144943 59.791718 99.011436
v 217.338974 59.739712 99.516434
v 217.034775 59.799625 100.913849
v 217.260101 59.725811 100.431313
v 217.282501 59.667778 119.725708
v 217.350754 59.339882 121.904282
v 217.323883 59.691326 121.424347
v 216.914383 60.286575 99.076668
v 217.320053 60.010979 99.990990
v 217.192963 60.380966 100.010857
v 216.984024 60.352753 100.952255
v 217.341095 60.009834 120.029045
v 217.108963 60.357220 120.012650
v 217.042023 60.301910 120.950668
v 217.337448 59.996788 120.975555
v 217.017639 60.925049 100.015068
v 216.987503 60.960545 100.980652
v 216.862350 60.832336 120.014038
v 216.924957 61.518288 100.058960
v 217.005630 61.533752 100.994736
v 216.835022 61.606663 101.901909
v 216.831223 62.034313 100.095497
v 216.979736 62.097248 101.005379
v 216.862610 62.114742 101.920761
v 216.872482 62.604500 101.029335
v 216.820312 62.608482 101.931084
v 217.379944 47.606480 101.076302
v 217.431046 47.598637 102.000282
v 217.368790 47.606300 102.921799
v 217.527710 48.080719 101.061165
v 217.584534 48.069267 101.999496
v 217.447647 48.054424 102.920982
v 217.711670 48.635502 101.038391
v 217.660522 48.638092 101.992935
v 217.429016 48.564686 102.899406
v 217.525146 49.309269 100.120766
v 217.812027 49.298714 100.594803
v 217.864029 49.008911 101.003761
v 217.860062 49.270164 101.442513
v 217.682404 49.169918 101.987213
v 217.651154 49.822716 100.037331
v 217.911682 49.822433 100.532120
v 217.630157 49.796375 101.955696
v 217.882492 49.808002 101.453667
v 217.765320 50.365582 99.961960
v 217.971893 50.374390 100.475105
v 217.545990 50.335602 101.896591
v 217.834122 50.340374 101.417831
v 217.521194 51.068394 99.123642
v 217.814560 51.048363 99.594696
v 217.934311 50.708584 100.020592
v 217.975601 51.004551 100.523972
v 217.783356 51.017509 101.050163
v 217.946213 50.668808 100.977066
v 217.626083 51.583115 99.047073
v 217.879135 51.571056 99.547981
v 217.663101 51.557945 100.974579
v 217.913101 51.556892 100.468460
v 217.682358 52.208023 99.012688
v 217.860306 52.107983 99.557480
v 217.552795 52.096069 100.900978
v 217.827255 52.088894 100.415253
v 217.432175 52.814167 98.099060
v 217.674347 52.741848 99.006516
v 217.872787 52.372353 99.997200
v 217.727783 52.748619 99.973732
v 217.505280 53.342777 98.058273
v 217.641464 53.324623 99.000893
v 217.548248 53.302349 99.945679
v 217.563629 53.939987 98.020821
v 217.609436 53.904598 98.994072
v 217.417511 53.819290 99.895416
v 217.429153 54.574043 97.096008
v 217.605499 54.503071 98.005089
v 217.525879 54.456554 98.968750
v 217.479111 55.097252 97.073021
v 217.612473 55.079170 97.995430
v 217.453598 55.012451 98.916718
v 217.493118 55.670326 97.066971
v 217.604813 55.668671 97.998833
v 217.478928 56.243366 97.073158
v 217.614670 56.260616 97.996689
v 217.443542 56.324581 98.908257
v 217.727554 56.318176 121.034355
v 218.071777 56.446590 120.749596
v 218.063599 56.185703 121.082954
v 217.993149 55.917980 121.990005
v 218.085724 56.062111 122.923447
v 217.852066 56.326477 122.894417
v 218.176865 56.344173 123.253876
v 217.426086 56.764542 97.095680
v 217.593323 56.835480 98.004547
v 217.492004 56.853771 98.934502
v 218.023682 56.846558 120.425262
v 217.736465 56.847633 122.962677
v 218.109482 56.847252 123.319801
v 217.526947 57.396049 98.022011
v 217.518799 57.426922 98.957779
v 217.818893 57.602787 119.842094
v 217.935165 57.252884 120.101082
v 217.721481 57.426350 122.975990
v 218.126129 57.416229 123.292671
v 217.435059 57.939320 98.085411
v 217.524841 58.031559 98.987122
v 217.852127 58.026978 119.749718
v 217.806702 57.959404 122.907349
v 218.165573 57.840534 123.176155
v 217.495483 58.571747 99.020218
v 217.420776 58.671707 99.910149
v 217.847412 58.588501 119.749252
v 218.062119 58.161850 122.879021
v 217.921997 58.560268 122.476501
v 217.425781 59.109325 99.081337
v 217.438690 59.178623 99.951508
v 217.780701 59.075935 119.805344
v 217.671509 59.138706 121.965622
v 218.028656 58.942554 122.005409
v 217.982819 59.176624 121.495964
v 217.400635 59.666248 99.984772
v 217.857971 59.376816 120.051155
v 217.607224 59.685944 120.042664
v 217.634293 59.705524 120.979759
v 217.932312 59.418091 120.984154
v 217.940536 49.322388 101.003845
v 217.990707 49.810612 100.995285
v 217.977905 50.360874 100.953499
v 217.977509 51.016384 100.050613
v 217.991623 51.567513 100.004379
v 217.943253 52.056450 99.997505
v 218.334305 55.757156 122.019684
v 218.626114 55.816837 121.572922
v 218.666519 55.620644 122.050140
v 218.688004 55.596554 122.967125
v 218.377777 55.788879 122.970421
v 218.683289 55.775040 123.410568
v 218.569077 56.415035 120.758972
v 218.565948 56.063206 121.095490
v 218.536713 56.262924 123.589729
v 218.567764 56.854385 120.540169
v 218.500443 56.842361 123.632324
v 218.178680 57.482067 120.090286
v 218.597092 57.395573 120.395851
v 218.577026 57.441906 123.571831
v 218.245605 58.022327 120.046494
v 218.620667 58.005440 120.410385
v 218.595535 57.879837 123.298508
v 218.215485 58.610996 120.081543
v 218.513824 58.529667 120.556770
v 218.596954 58.216591 122.920784
v 218.526520 58.479317 122.436714
v 218.027725 59.085327 120.077843
v 218.503769 58.833618 121.031471
v 218.229584 59.117107 120.972214
v 218.508575 58.713078 121.956795
v 219.184845 55.796318 121.546951
v 219.182465 55.532074 122.046989
v 219.153458 55.317955 122.977783
v 219.243591 55.465263 123.940620
v 219.007614 55.733578 123.917343
v 219.330933 55.743919 124.399887
v 218.989258 56.434620 120.844437
v 219.093796 56.118565 121.121429
v 218.889618 56.260365 123.985809
v 219.263153 56.278667 124.459023
v 219.026794 56.857140 120.733139
v 218.886505 56.841137 123.985649
v 219.269333 56.826603 124.339500
v 219.037354 57.422764 120.694321
v 218.991714 57.364563 123.890839
v 219.337433 57.251945 124.188255
v 218.985794 57.928505 120.741783
v 219.259628 57.571453 123.860451
v 219.099197 57.834984 123.426338
v 219.080688 58.221199 121.062538
v 218.799927 58.529037 121.029449
v 218.831619 58.539967 121.986572
v 219.164490 58.357559 122.007103
v 219.102402 58.107311 122.932396
v 219.501099 55.164776 123.017387
v 219.794830 55.226044 122.569199
v 219.837875 55.066257 123.049042
v 219.840347 55.112247 123.935974
v 219.555283 55.219032 123.961731
v 219.828873 55.334366 124.378853
v 219.724792 55.794785 121.692871
v 219.722855 55.449196 122.079407
v 219.780960 55.625740 124.824341
v 219.640930 55.760010 124.864517
v 219.826904 55.913998 125.061569
v 219.341934 56.315834 121.099480
v 219.755478 56.239796 121.423096
v 219.609604 56.208813 124.885193
v 219.928574 56.174335 125.156754
v 219.432129 56.845303 121.026909
v 219.828522 56.840572 121.366776
v 219.794128 56.517040 124.943909
v 219.692993 56.898056 124.628922
v 219.422607 57.426331 121.037041
v 219.788071 57.417019 121.415550
v 219.761353 57.284687 124.308464
v 219.313156 57.955566 121.102669
v 219.643753 57.898430 121.584808
v 219.445465 57.983200 122.988853
v 219.796310 57.838726 123.033318
v 219.728973 57.972374 122.492081
v 219.740417 57.546486 123.934853
v 219.630798 58.076168 122.008255
v 220.338623 55.246063 122.565865
v 220.328812 55.058556 123.045525
v 220.249878 55.102573 123.904915
v 220.191330 55.274971 124.230873
v 220.159302 55.844131 121.825752
v 220.258713 55.537048 122.123459
v 219.993195 55.751015 124.921280
v 220.341034 55.643574 124.520203
v 220.203644 56.267426 121.704788
v 220.275070 56.011192 124.938515
v 220.157471 56.338364 125.155899
v 220.210342 56.835335 121.688248
v 220.074936 56.778923 124.927834
v 220.259903 56.599312 125.064743
v 220.141525 57.334774 121.749680
v 220.310822 56.894741 124.831253
v 220.247742 57.205471 124.391968
v 220.189453 57.613811 122.058487
v 219.929169 57.874973 122.011078
v 220.266327 57.567181 122.990601
v 220.238022 57.447132 123.933746
v 220.741943 55.268909 122.777077
v 220.776062 55.133575 123.025909
v 220.478943 55.192692 123.893738
v 220.756439 55.199696 123.417236
v 220.483154 55.743687 122.114510
v 220.842117 55.697811 122.555023
v 220.698822 55.637863 124.042442
v 220.966370 55.650612 123.529846
v 220.579971 56.265354 122.050331
v 220.919510 56.252262 122.447739
v 220.911987 55.967915 123.992653
v 220.466583 56.307888 124.885429
v 220.776291 56.303375 124.412483
v 220.560562 56.852547 122.078934
v 220.850708 56.772938 122.559410
v 220.450470 56.749561 124.868591
v 220.729355 56.767609 124.394073
v 220.369705 57.325249 122.081245
v 220.847488 57.065998 123.019608
v 220.577621 57.348114 122.984894
v 220.524994 57.293167 123.960686
v 220.797073 57.035549 123.965218
v 220.880386 55.232834 123.019928
v 221.127014 55.706402 123.015099
v 221.241760 56.251808 122.825302
v 221.339706 56.071369 123.020340
v 221.075806 56.320129 123.900757
v 221.268570 56.258720 123.384598
v 221.315277 56.417839 123.027359
v 221.110153 56.739983 123.041565
v 220.958603 56.747971 123.940804
v 221.373810 56.251976 123.021431
# 1312 vertices, 0 vertices normals

f 3 2 1
f 5 4 1
f 1 4 3
f 5 6 4
f 9 8 7
f 11 10 7
f 7 10 9
f 10 11 2
f 11 1 2
f 11 12 1
f 1 13 5
f 1 12 13
f 6 5 14
f 5 15 14
f 5 13 15
f 15 16 14
f 19 18 17
f 21 20 17
f 17 20 19
f 20 21 8
f 21 7 8
f 21 22 7
f 7 23 11
f 7 22 23
f 11 24 12
f 11 23 24
f 12 25 13
f 12 24 25
f 27 15 26
f 15 25 26
f 15 13 25
f 15 27 16
f 17 18 28
f 28 18 29
f 17 30 21
f 17 28 30
f 21 31 22
f 21 30 31
f 22 32 23
f 22 31 32
f 23 33 24
f 23 32 33
f 35 25 34
f 25 33 34
f 25 24 33
f 25 35 26
f 29 36 28
f 28 36 30
f 30 36 37
f 30 37 31
f 31 37 38
f 31 38 32
f 32 38 39
f 32 39 33
f 33 39 40
f 33 40 34
f 43 42 41
f 45 44 41
f 41 44 43
f 45 46 44
f 49 48 47
f 51 50 47
f 47 50 49
f 2 3 51
f 3 50 51
f 3 52 50
f 4 41 42
f 52 4 42
f 3 4 52
f 41 4 6
f 53 41 6
f 45 41 53
f 46 45 54
f 54 45 53
f 57 56 55
f 59 58 55
f 55 58 57
f 61 60 59
f 59 60 58
f 60 61 48
f 48 61 47
f 61 8 47
f 8 9 47
f 47 9 10
f 47 10 51
f 51 10 2
f 14 53 6
f 14 16 53
f 16 54 53
f 16 62 54
f 65 64 63
f 65 63 56
f 63 55 56
f 63 66 55
f 66 18 19
f 59 66 19
f 55 66 59
f 59 19 20
f 59 20 61
f 61 20 8
f 26 67 27
f 67 68 27
f 68 16 27
f 68 62 16
f 71 70 69
f 71 69 64
f 69 63 64
f 69 72 63
f 63 73 66
f 63 72 73
f 73 29 18
f 73 18 66
f 34 74 35
f 74 75 35
f 35 75 26
f 75 76 26
f 76 67 26
f 67 76 68
f 69 70 77
f 77 70 78
f 69 79 72
f 69 77 79
f 72 80 73
f 72 79 80
f 81 36 29
f 73 81 29
f 80 81 73
f 82 37 36
f 82 36 81
f 83 38 37
f 83 37 82
f 84 39 38
f 84 38 83
f 39 84 85
f 86 39 85
f 40 39 86
f 34 40 74
f 40 87 74
f 40 86 87
f 74 87 75
f 78 88 77
f 77 88 79
f 79 88 89
f 79 89 80
f 80 89 90
f 80 90 81
f 81 90 91
f 81 91 82
f 82 91 92
f 82 92 83
f 83 92 93
f 83 93 84
f 84 93 94
f 84 94 85
f 97 96 95
f 95 98 97
f 100 99 43
f 43 99 42
f 44 95 96
f 100 44 96
f 43 44 100
f 102 101 46
f 46 101 44
f 101 98 44
f 98 95 44
f 102 103 101
f 105 104 49
f 49 104 48
f 106 49 50
f 106 105 49
f 107 50 52
f 107 106 50
f 52 42 99
f 52 99 107
f 54 108 102
f 54 102 46
f 103 102 109
f 109 102 108
f 112 111 110
f 56 57 110
f 57 112 110
f 57 113 112
f 114 57 58
f 114 113 57
f 115 58 60
f 115 114 58
f 60 48 104
f 60 104 115
f 117 116 108
f 54 117 108
f 62 117 54
f 108 116 109
f 120 119 118
f 122 121 118
f 118 121 120
f 121 122 111
f 111 122 110
f 122 64 110
f 64 65 110
f 110 65 56
f 68 117 62
f 68 123 117
f 126 125 124
f 126 124 119
f 124 118 119
f 124 127 118
f 127 70 71
f 122 127 71
f 118 127 122
f 122 71 64
f 129 128 76
f 129 76 75
f 68 76 123
f 123 76 128
f 124 125 130
f 130 125 131
f 124 132 127
f 124 130 132
f 132 78 70
f 132 70 127
f 134 133 86
f 134 86 85
f 86 135 87
f 133 135 86
f 75 87 129
f 129 87 135
f 130 131 136
f 136 131 137
f 130 138 132
f 130 136 138
f 139 88 78
f 132 139 78
f 138 139 132
f 140 89 88
f 140 88 139
f 141 90 89
f 141 89 140
f 142 91 90
f 142 90 141
f 91 142 143
f 144 91 143
f 92 91 144
f 92 145 93
f 144 145 92
f 93 146 94
f 145 146 93
f 85 94 134
f 134 94 146
f 137 147 136
f 136 147 138
f 138 147 148
f 138 148 139
f 139 148 149
f 139 149 140
f 140 149 150
f 140 150 141
f 141 150 151
f 141 151 142
f 142 151 152
f 142 152 143
f 155 154 153
f 96 97 153
f 97 155 153
f 97 156 155
f 158 157 98
f 157 97 98
f 157 156 97
f 160 159 158
f 158 159 157
f 160 161 159
f 153 154 100
f 154 99 100
f 154 162 99
f 153 100 96
f 101 158 98
f 158 101 103
f 163 158 103
f 160 158 163
f 161 160 164
f 164 160 163
f 165 104 105
f 165 105 166
f 105 167 166
f 105 106 167
f 168 106 107
f 168 167 106
f 107 99 162
f 107 162 168
f 109 169 163
f 109 163 103
f 164 163 170
f 170 163 169
f 173 172 171
f 111 112 171
f 112 173 171
f 112 174 173
f 175 112 113
f 175 174 112
f 176 113 114
f 176 175 113
f 177 114 115
f 177 176 114
f 115 104 165
f 178 115 165
f 177 115 178
f 178 165 166
f 117 179 116
f 179 180 116
f 116 180 109
f 180 181 109
f 181 169 109
f 169 181 170
f 184 183 182
f 119 120 182
f 120 184 182
f 120 185 184
f 121 171 172
f 185 121 172
f 120 121 185
f 171 121 111
f 187 186 179
f 117 187 179
f 123 187 117
f 179 186 180
f 190 189 188
f 190 188 183
f 183 188 182
f 188 125 182
f 125 126 182
f 182 126 119
f 192 191 128
f 192 128 129
f 123 128 187
f 187 128 191
f 188 189 193
f 193 189 194
f 193 131 125
f 193 125 188
f 196 195 133
f 196 133 134
f 133 197 135
f 195 197 133
f 129 135 192
f 192 135 197
f 193 194 198
f 198 194 199
f 198 137 131
f 198 131 193
f 201 200 144
f 201 144 143
f 144 202 145
f 200 202 144
f 145 203 146
f 202 203 145
f 134 146 196
f 196 146 203
f 199 204 198
f 198 204 137
f 204 147 137
f 204 205 147
f 147 206 148
f 205 206 147
f 148 207 149
f 206 207 148
f 149 208 150
f 207 208 149
f 150 209 151
f 208 209 150
f 151 210 152
f 209 210 151
f 143 152 201
f 201 152 210
f 213 212 211
f 215 214 211
f 211 214 213
f 217 216 215
f 215 216 214
f 217 218 216
f 220 219 155
f 155 219 154
f 221 155 156
f 221 220 155
f 157 211 212
f 221 157 212
f 156 157 221
f 211 157 159
f 211 159 215
f 215 159 161
f 222 215 161
f 217 215 222
f 218 217 223
f 223 217 222
f 219 162 154
f 224 162 219
f 164 225 222
f 164 222 161
f 223 222 226
f 226 222 225
f 227 166 167
f 168 228 167
f 167 228 227
f 229 228 168
f 162 229 168
f 224 229 162
f 170 230 225
f 170 225 164
f 226 225 231
f 231 225 230
f 232 172 173
f 174 233 173
f 173 233 232
f 175 234 174
f 174 234 233
f 176 235 175
f 175 235 234
f 177 236 176
f 176 236 235
f 178 237 177
f 177 237 236
f 238 237 178
f 238 178 166
f 239 238 166
f 227 239 166
f 239 227 228
f 239 228 240
f 240 228 229
f 180 241 181
f 241 242 181
f 181 242 170
f 242 243 170
f 243 230 170
f 230 243 231
f 246 245 244
f 183 184 244
f 184 246 244
f 184 247 246
f 248 184 185
f 248 247 184
f 185 172 232
f 249 185 232
f 248 185 249
f 249 232 233
f 249 233 250
f 250 233 234
f 250 234 251
f 251 234 235
f 251 235 252
f 252 235 236
f 252 236 253
f 253 236 237
f 253 237 254
f 254 237 238
f 256 255 186
f 256 186 187
f 180 186 241
f 186 257 241
f 186 255 257
f 241 257 242
f 260 259 258
f 260 258 245
f 245 258 244
f 258 189 244
f 189 190 244
f 244 190 183
f 263 262 261
f 265 264 261
f 265 261 262
f 267 266 264
f 267 264 265
f 191 192 266
f 267 191 266
f 268 191 267
f 187 191 256
f 256 191 268
f 258 259 269
f 269 259 270
f 269 194 189
f 269 189 258
f 273 272 271
f 275 274 271
f 275 271 272
f 274 275 263
f 261 274 263
f 276 274 261
f 196 276 195
f 276 264 195
f 276 261 264
f 195 264 197
f 197 264 266
f 197 266 192
f 269 270 277
f 277 270 278
f 277 199 194
f 277 194 269
f 281 280 279
f 283 282 279
f 283 279 280
f 282 283 273
f 282 273 271
f 201 282 271
f 200 201 271
f 200 271 202
f 202 271 274
f 202 274 203
f 203 274 276
f 203 276 196
f 278 284 277
f 284 286 285
f 284 285 204
f 277 284 204
f 199 277 204
f 287 205 204
f 287 204 285
f 205 287 288
f 289 205 288
f 206 205 289
f 206 290 207
f 289 290 206
f 207 291 208
f 290 291 207
f 279 209 281
f 209 291 281
f 209 208 291
f 209 279 210
f 210 279 282
f 210 282 201
f 286 292 285
f 285 292 287
f 287 292 293
f 287 293 288
f 295 294 213
f 213 294 212
f 296 213 214
f 296 295 213
f 297 214 216
f 297 296 214
f 299 298 218
f 298 216 218
f 298 297 216
f 299 300 298
f 301 219 220
f 301 220 302
f 220 303 302
f 220 221 303
f 221 212 294
f 221 294 303
f 223 304 299
f 223 299 218
f 300 299 305
f 305 299 304
f 307 306 301
f 306 219 301
f 306 224 219
f 307 301 302
f 226 308 304
f 226 304 223
f 305 304 309
f 309 304 308
f 306 229 224
f 310 229 306
f 312 311 308
f 226 312 308
f 231 312 226
f 308 311 309
f 313 238 239
f 240 314 239
f 239 314 313
f 315 314 240
f 229 315 240
f 310 315 229
f 317 316 243
f 317 243 242
f 231 243 312
f 312 243 316
f 320 319 318
f 245 246 318
f 246 320 318
f 246 321 320
f 322 246 247
f 322 321 246
f 323 247 248
f 323 322 247
f 324 248 249
f 324 323 248
f 326 324 325
f 324 250 325
f 324 249 250
f 251 327 250
f 250 327 325
f 252 328 251
f 251 328 327
f 253 329 252
f 252 329 328
f 254 330 253
f 253 330 329
f 238 313 254
f 313 330 254
f 313 331 330
f 332 313 314
f 331 313 332
f 314 315 333
f 334 314 333
f 332 314 334
f 336 335 334
f 336 334 333
f 255 256 335
f 336 255 335
f 337 255 336
f 255 338 257
f 337 338 255
f 242 257 317
f 317 257 338
f 318 319 260
f 319 259 260
f 319 339 259
f 318 260 245
f 340 326 325
f 342 341 340
f 325 342 340
f 327 342 325
f 343 327 328
f 342 327 343
f 344 328 329
f 343 328 344
f 345 329 330
f 344 329 345
f 263 345 262
f 345 331 262
f 345 330 331
f 262 331 265
f 265 331 332
f 265 332 267
f 267 332 334
f 267 334 268
f 268 334 335
f 268 335 256
f 339 270 259
f 346 270 339
f 341 342 347
f 341 347 348
f 349 342 343
f 347 342 349
f 273 349 272
f 349 344 272
f 349 343 344
f 272 344 275
f 275 344 345
f 275 345 263
f 346 278 270
f 350 278 346
f 353 352 351
f 351 352 348
f 351 348 347
f 281 351 347
f 280 281 347
f 280 347 283
f 283 347 349
f 283 349 273
f 284 278 354
f 278 355 354
f 278 350 355
f 354 286 284
f 357 356 289
f 357 289 288
f 289 358 290
f 356 358 289
f 351 291 353
f 291 358 353
f 291 290 358
f 291 351 281
f 355 359 354
f 354 359 286
f 359 292 286
f 359 360 292
f 292 361 293
f 360 361 292
f 288 293 357
f 357 293 361
f 364 363 362
f 366 365 362
f 362 365 364
f 368 367 366
f 366 367 365
f 368 369 367
f 371 370 295
f 295 370 294
f 372 295 296
f 372 371 295
f 297 362 363
f 372 297 363
f 296 297 372
f 362 297 298
f 362 298 366
f 366 298 300
f 373 366 300
f 368 366 373
f 369 368 374
f 374 368 373
f 376 375 303
f 303 375 302
f 303 294 370
f 303 370 376
f 305 377 373
f 305 373 300
f 374 373 378
f 378 373 377
f 381 380 379
f 379 382 381
f 383 306 307
f 384 383 307
f 302 384 307
f 375 384 302
f 309 385 377
f 309 377 305
f 378 377 386
f 386 377 385
f 379 380 387
f 387 380 388
f 382 379 389
f 379 390 389
f 379 387 390
f 390 391 389
f 392 310 383
f 383 310 306
f 383 384 393
f 383 393 392
f 312 394 311
f 394 395 311
f 311 395 309
f 395 396 309
f 396 385 309
f 385 396 386
f 387 388 397
f 397 388 398
f 387 399 390
f 387 397 399
f 391 390 400
f 400 390 399
f 401 315 392
f 392 315 310
f 392 393 402
f 403 392 402
f 401 392 403
f 404 403 402
f 406 405 316
f 406 316 317
f 312 316 394
f 316 407 394
f 316 405 407
f 394 407 395
f 397 398 408
f 408 398 409
f 408 319 320
f 399 408 320
f 397 408 399
f 410 400 399
f 320 410 399
f 321 410 320
f 412 410 411
f 410 322 411
f 410 321 322
f 323 413 322
f 322 413 411
f 324 414 323
f 323 414 413
f 326 414 324
f 401 333 315
f 333 401 336
f 336 401 403
f 404 415 403
f 415 336 403
f 415 337 336
f 337 416 338
f 415 416 337
f 317 338 406
f 406 338 416
f 408 409 417
f 417 409 418
f 417 339 319
f 417 319 408
f 419 412 411
f 419 411 413
f 419 413 420
f 422 421 420
f 413 422 420
f 414 422 413
f 340 423 326
f 423 414 326
f 423 422 414
f 341 423 340
f 417 418 424
f 424 418 425
f 424 346 339
f 424 339 417
f 421 422 426
f 421 426 427
f 428 422 423
f 426 422 428
f 348 428 341
f 341 428 423
f 425 429 424
f 346 424 429
f 430 346 429
f 350 346 430
f 433 432 431
f 431 432 427
f 426 431 427
f 434 431 426
f 353 434 352
f 434 428 352
f 434 426 428
f 352 428 348
f 430 355 350
f 435 355 430
f 438 437 436
f 436 437 433
f 436 433 431
f 357 436 431
f 356 357 431
f 356 431 358
f 358 431 434
f 358 434 353
f 435 439 355
f 355 439 359
f 359 440 360
f 439 440 359
f 436 361 438
f 361 440 438
f 361 360 440
f 361 436 357
f 443 442 441
f 441 444 443
f 441 442 445
f 445 442 446
f 444 441 447
f 441 448 447
f 441 445 448
f 448 449 447
f 446 450 445
f 452 451 450
f 451 445 450
f 451 448 445
f 449 448 453
f 453 448 451
f 451 452 454
f 454 452 455
f 453 451 456
f 451 457 456
f 451 454 457
f 457 458 456
f 454 455 459
f 459 455 460
f 454 461 457
f 454 459 461
f 458 457 462
f 462 457 461
f 465 464 463
f 467 466 463
f 463 466 465
f 467 468 466
f 459 460 469
f 469 460 470
f 459 471 461
f 459 469 471
f 462 461 472
f 461 473 472
f 461 471 473
f 473 474 472
f 476 475 364
f 364 475 363
f 477 364 365
f 477 476 364
f 367 463 464
f 477 367 464
f 365 367 477
f 463 367 369
f 478 463 369
f 467 463 478
f 468 467 479
f 479 467 478
f 469 470 480
f 480 470 481
f 469 482 471
f 469 480 482
f 471 483 473
f 471 482 483
f 474 473 484
f 484 473 483
f 485 370 371
f 485 371 486
f 371 487 486
f 371 372 487
f 372 363 475
f 372 475 487
f 374 488 478
f 374 478 369
f 479 478 489
f 489 478 488
f 481 490 480
f 492 491 490
f 491 480 490
f 491 482 480
f 482 493 483
f 482 491 493
f 484 483 494
f 483 495 494
f 483 493 495
f 495 496 494
f 497 375 376
f 498 497 376
f 498 376 370
f 499 498 370
f 485 499 370
f 499 485 486
f 378 500 488
f 378 488 374
f 489 488 501
f 501 488 500
f 491 492 502
f 502 492 503
f 502 380 381
f 493 502 381
f 491 502 493
f 493 381 382
f 504 493 382
f 495 493 504
f 496 495 505
f 505 495 504
f 506 384 497
f 497 384 375
f 497 498 507
f 497 507 506
f 509 508 500
f 378 509 500
f 386 509 378
f 500 508 501
f 502 503 510
f 510 503 511
f 510 388 380
f 510 380 502
f 389 504 382
f 389 391 504
f 391 505 504
f 391 512 505
f 513 393 506
f 506 393 384
f 506 507 514
f 506 514 513
f 516 515 396
f 516 396 395
f 386 396 509
f 509 396 515
f 510 511 517
f 517 511 518
f 517 398 388
f 517 388 510
f 400 520 519
f 512 400 519
f 391 400 512
f 520 521 519
f 513 402 393
f 523 522 404
f 523 404 402
f 514 523 402
f 513 514 402
f 525 524 522
f 525 522 523
f 405 406 524
f 525 405 524
f 526 405 525
f 405 527 407
f 526 527 405
f 395 407 516
f 516 407 527
f 518 528 517
f 398 517 528
f 529 398 528
f 409 398 529
f 410 520 400
f 410 412 520
f 412 521 520
f 412 530 521
f 522 415 404
f 415 522 416
f 416 522 524
f 416 524 406
f 529 418 409
f 531 418 529
f 412 419 532
f 533 412 532
f 530 412 533
f 420 534 419
f 419 534 532
f 421 534 420
f 531 425 418
f 535 425 531
f 533 532 536
f 533 536 537
f 538 532 534
f 536 532 538
f 427 538 421
f 421 538 534
f 535 539 425
f 425 539 429
f 430 429 539
f 430 539 540
f 537 536 541
f 537 541 542
f 433 541 432
f 541 538 432
f 541 536 538
f 432 538 427
f 540 435 430
f 543 435 540
f 542 541 437
f 438 542 437
f 544 542 438
f 437 541 433
f 543 545 435
f 435 545 439
f 439 546 440
f 545 546 439
f 438 440 544
f 544 440 546
f 549 548 547
f 551 550 547
f 547 550 549
f 553 552 551
f 551 552 550
f 553 554 552
f 547 548 555
f 555 548 556
f 547 557 551
f 547 555 557
f 551 558 553
f 551 557 558
f 554 553 559
f 559 553 558
f 555 556 560
f 560 556 561
f 555 562 557
f 555 560 562
f 564 558 563
f 558 562 563
f 558 557 562
f 558 564 559
f 560 561 565
f 565 561 566
f 560 567 562
f 560 565 567
f 563 562 568
f 568 562 567
f 571 570 569
f 571 569 566
f 569 565 566
f 569 572 565
f 565 573 567
f 565 572 573
f 568 567 574
f 574 567 573
f 569 570 575
f 575 570 576
f 569 577 572
f 569 575 577
f 572 578 573
f 572 577 578
f 574 573 579
f 579 573 578
f 575 576 580
f 580 576 581
f 575 582 577
f 575 580 582
f 584 578 583
f 578 582 583
f 578 577 582
f 578 584 579
f 587 586 585
f 587 585 581
f 585 580 581
f 585 588 580
f 580 589 582
f 580 588 589
f 583 582 590
f 590 582 589
f 585 586 591
f 591 586 592
f 585 593 588
f 585 591 593
f 588 594 589
f 588 593 594
f 590 589 595
f 595 589 594
f 598 597 596
f 598 596 592
f 596 591 592
f 596 599 591
f 591 600 593
f 591 599 600
f 602 594 601
f 594 600 601
f 594 593 600
f 594 602 595
f 596 597 603
f 603 597 604
f 596 605 599
f 596 603 605
f 599 606 600
f 599 605 606
f 601 600 607
f 607 600 606
f 603 604 608
f 608 604 609
f 603 610 605
f 603 608 610
f 612 606 611
f 606 610 611
f 606 605 610
f 606 612 607
f 615 614 613
f 615 613 609
f 613 608 609
f 613 616 608
f 608 617 610
f 608 616 617
f 611 610 618
f 618 610 617
f 613 614 619
f 619 614 620
f 613 621 616
f 613 619 621
f 616 622 617
f 616 621 622
f 618 617 623
f 623 617 622
f 619 620 624
f 624 620 625
f 619 626 621
f 619 624 626
f 621 627 622
f 621 626 627
f 623 622 628
f 628 622 627
f 624 625 629
f 629 625 630
f 624 631 626
f 624 629 631
f 626 632 627
f 626 631 632
f 628 627 633
f 633 627 632
f 629 630 634
f 634 630 635
f 634 442 443
f 631 634 443
f 629 634 631
f 631 443 444
f 636 631 444
f 632 631 636
f 633 632 637
f 637 632 636
f 635 638 634
f 442 634 638
f 639 442 638
f 446 442 639
f 447 636 444
f 641 640 449
f 449 640 447
f 640 637 447
f 637 636 447
f 641 642 640
f 450 446 643
f 446 644 643
f 446 639 644
f 643 452 450
f 453 645 641
f 453 641 449
f 642 641 646
f 646 641 645
f 649 648 647
f 651 650 647
f 647 650 649
f 651 652 650
f 643 644 653
f 653 644 654
f 653 455 452
f 653 452 643
f 456 645 453
f 456 458 645
f 458 646 645
f 458 655 646
f 647 648 656
f 656 648 657
f 647 658 651
f 647 656 658
f 652 651 659
f 659 651 658
f 654 660 653
f 455 653 660
f 661 455 660
f 460 455 661
f 462 663 662
f 655 462 662
f 458 462 655
f 663 664 662
f 656 657 465
f 657 464 465
f 657 665 464
f 656 465 466
f 656 466 658
f 466 468 658
f 468 659 658
f 468 666 659
f 661 470 460
f 667 470 661
f 472 663 462
f 472 474 663
f 474 664 663
f 474 668 664
f 669 475 476
f 669 476 670
f 476 671 670
f 476 477 671
f 477 464 665
f 477 665 671
f 479 666 468
f 479 672 666
f 667 481 470
f 673 481 667
f 484 668 474
f 484 674 668
f 675 486 487
f 676 675 487
f 676 487 475
f 677 676 475
f 669 677 475
f 677 669 670
f 489 672 479
f 489 678 672
f 490 481 679
f 481 680 679
f 481 673 680
f 679 492 490
f 681 674 484
f 681 484 494
f 494 496 681
f 681 496 682
f 683 498 499
f 486 675 499
f 675 683 499
f 675 684 683
f 675 676 685
f 675 685 684
f 501 678 489
f 501 686 678
f 680 687 679
f 492 679 687
f 688 492 687
f 503 492 688
f 505 682 496
f 505 689 682
f 690 507 683
f 683 507 498
f 691 683 684
f 690 683 691
f 684 685 692
f 684 692 691
f 694 693 508
f 694 508 509
f 501 508 686
f 686 508 693
f 688 511 503
f 695 511 688
f 512 689 505
f 512 696 689
f 697 514 690
f 690 514 507
f 698 690 691
f 697 690 698
f 691 692 699
f 700 691 699
f 698 691 700
f 702 701 700
f 702 700 699
f 515 516 701
f 702 515 701
f 703 515 702
f 509 515 694
f 694 515 703
f 695 518 511
f 704 518 695
f 705 696 512
f 705 512 519
f 519 521 705
f 705 521 706
f 697 523 514
f 523 697 525
f 525 697 698
f 525 698 526
f 526 698 700
f 526 700 527
f 527 700 701
f 527 701 516
f 704 707 518
f 518 707 528
f 529 528 707
f 529 707 708
f 530 706 521
f 530 709 706
f 708 531 529
f 710 531 708
f 533 709 530
f 533 711 709
f 710 535 531
f 712 535 710
f 537 711 533
f 537 713 711
f 712 714 535
f 535 714 539
f 540 539 714
f 540 714 715
f 542 713 537
f 542 716 713
f 718 543 717
f 543 715 717
f 543 540 715
f 720 719 718
f 720 718 717
f 720 716 719
f 716 544 719
f 716 542 544
f 718 545 543
f 545 718 546
f 546 718 719
f 546 719 544
f 722 721 549
f 549 721 548
f 723 549 550
f 723 722 549
f 724 550 552
f 724 723 550
f 552 554 724
f 724 554 725
f 721 556 548
f 726 556 721
f 559 725 554
f 559 727 725
f 726 561 556
f 728 561 726
f 563 729 564
f 729 730 564
f 730 559 564
f 730 727 559
f 733 732 731
f 728 733 731
f 566 728 731
f 561 728 566
f 568 734 729
f 568 729 563
f 730 729 735
f 735 729 734
f 731 732 571
f 732 570 571
f 732 736 570
f 731 571 566
f 738 737 734
f 568 738 734
f 574 738 568
f 734 737 735
f 736 576 570
f 739 576 736
f 579 738 574
f 579 740 738
f 743 742 741
f 739 743 741
f 581 739 741
f 576 739 581
f 583 744 584
f 744 745 584
f 745 579 584
f 745 740 579
f 741 742 587
f 742 586 587
f 742 746 586
f 741 587 581
f 748 747 744
f 583 748 744
f 590 748 583
f 744 747 745
f 751 750 749
f 746 751 749
f 592 746 749
f 586 746 592
f 595 748 590
f 595 752 748
f 749 750 598
f 750 597 598
f 750 753 597
f 749 598 592
f 601 754 602
f 754 755 602
f 755 595 602
f 755 752 595
f 753 604 597
f 756 604 753
f 758 757 754
f 601 758 754
f 607 758 601
f 754 757 755
f 761 760 759
f 756 761 759
f 609 756 759
f 604 756 609
f 611 762 612
f 762 763 612
f 763 607 612
f 763 758 607
f 759 760 615
f 760 614 615
f 760 764 614
f 759 615 609
f 766 765 762
f 611 766 762
f 618 766 611
f 762 765 763
f 764 620 614
f 767 620 764
f 623 766 618
f 623 768 766
f 767 625 620
f 769 625 767
f 628 768 623
f 628 770 768
f 769 630 625
f 771 630 769
f 633 770 628
f 633 772 770
f 771 635 630
f 773 635 771
f 637 772 633
f 637 774 772
f 638 635 775
f 635 776 775
f 635 773 776
f 775 639 638
f 777 774 637
f 777 637 640
f 640 642 777
f 777 642 778
f 781 780 779
f 779 782 781
f 776 783 775
f 639 775 783
f 784 639 783
f 644 639 784
f 646 778 642
f 646 785 778
f 787 786 649
f 649 786 648
f 650 779 780
f 787 650 780
f 649 650 787
f 789 788 652
f 652 788 650
f 788 782 650
f 782 779 650
f 789 790 788
f 784 654 644
f 791 654 784
f 655 785 646
f 655 792 785
f 786 657 648
f 793 657 786
f 659 794 789
f 659 789 652
f 790 789 795
f 795 789 794
f 660 654 796
f 654 797 796
f 654 791 797
f 796 661 660
f 798 792 655
f 798 655 662
f 662 664 798
f 798 664 799
f 793 665 657
f 800 665 793
f 666 801 794
f 666 794 659
f 795 794 802
f 802 794 801
f 797 803 796
f 661 796 803
f 804 661 803
f 667 661 804
f 668 799 664
f 668 805 799
f 807 806 671
f 671 806 670
f 671 665 800
f 671 800 807
f 809 808 801
f 666 809 801
f 672 809 666
f 801 808 802
f 804 673 667
f 810 673 804
f 674 805 668
f 674 811 805
f 812 676 677
f 813 812 677
f 670 813 677
f 806 813 670
f 678 809 672
f 678 814 809
f 810 680 673
f 815 680 810
f 816 811 674
f 816 674 681
f 681 682 816
f 816 682 817
f 818 685 812
f 812 685 676
f 812 813 819
f 812 819 818
f 686 814 678
f 686 820 814
f 815 821 680
f 680 821 687
f 688 687 821
f 688 821 822
f 689 817 682
f 689 823 817
f 824 692 818
f 818 692 685
f 818 819 825
f 818 825 824
f 827 826 693
f 827 693 694
f 686 693 820
f 820 693 826
f 822 695 688
f 828 695 822
f 696 823 689
f 696 829 823
f 824 699 692
f 825 830 824
f 830 699 824
f 830 702 699
f 702 831 703
f 830 831 702
f 694 703 827
f 827 703 831
f 828 704 695
f 832 704 828
f 696 705 833
f 834 696 833
f 829 696 834
f 706 833 705
f 832 835 704
f 704 835 707
f 708 707 835
f 708 835 836
f 837 834 833
f 833 706 837
f 706 838 837
f 706 709 838
f 836 710 708
f 839 710 836
f 711 838 709
f 711 840 838
f 842 712 841
f 712 839 841
f 712 710 839
f 843 842 841
f 846 845 844
f 845 840 844
f 840 713 844
f 840 711 713
f 842 714 712
f 848 847 715
f 848 715 714
f 843 848 714
f 842 843 714
f 847 848 846
f 844 847 846
f 849 847 844
f 716 849 713
f 713 849 844
f 847 717 715
f 717 847 720
f 720 847 849
f 720 849 716
f 851 850 722
f 722 850 721
f 852 722 723
f 852 851 722
f 853 723 724
f 853 852 723
f 724 725 853
f 853 725 854
f 850 726 721
f 855 726 850
f 727 854 725
f 727 856 854
f 855 728 726
f 857 728 855
f 730 856 727
f 730 858 856
f 860 859 733
f 733 859 732
f 733 728 857
f 733 857 860
f 735 858 730
f 735 861 858
f 859 736 732
f 862 736 859
f 864 863 737
f 864 737 738
f 735 737 861
f 861 737 863
f 862 739 736
f 865 739 862
f 740 864 738
f 740 866 864
f 868 867 743
f 743 867 742
f 743 739 865
f 743 865 868
f 745 866 740
f 745 869 866
f 867 746 742
f 870 746 867
f 872 871 747
f 872 747 748
f 745 747 869
f 869 747 871
f 874 873 751
f 751 873 750
f 751 746 870
f 751 870 874
f 752 872 748
f 752 875 872
f 873 753 750
f 876 753 873
f 755 875 752
f 755 877 875
f 876 756 753
f 878 756 876
f 880 879 757
f 880 757 758
f 755 757 877
f 877 757 879
f 882 881 761
f 761 881 760
f 761 756 878
f 761 878 882
f 763 880 758
f 763 883 880
f 881 764 760
f 884 764 881
f 886 885 765
f 886 765 766
f 763 765 883
f 883 765 885
f 884 767 764
f 887 767 884
f 768 886 766
f 768 888 886
f 887 769 767
f 889 769 887
f 770 888 768
f 770 890 888
f 889 771 769
f 891 771 889
f 772 890 770
f 772 892 890
f 891 773 771
f 893 773 891
f 774 892 772
f 774 894 892
f 897 896 895
f 899 898 895
f 895 898 897
f 899 900 898
f 893 776 773
f 901 776 893
f 902 894 774
f 902 774 777
f 777 778 902
f 902 778 903
f 906 905 904
f 906 904 896
f 896 904 895
f 904 780 895
f 780 781 895
f 895 781 782
f 907 895 782
f 899 895 907
f 900 899 908
f 908 899 907
f 901 909 776
f 776 909 783
f 784 783 909
f 784 909 910
f 785 903 778
f 785 911 903
f 904 905 787
f 905 786 787
f 905 912 786
f 904 787 780
f 788 907 782
f 788 790 907
f 790 908 907
f 790 913 908
f 910 791 784
f 914 791 910
f 792 911 785
f 792 915 911
f 912 793 786
f 916 793 912
f 795 913 790
f 795 917 913
f 919 797 918
f 797 914 918
f 797 791 914
f 920 919 918
f 921 915 792
f 921 792 798
f 798 799 921
f 921 799 922
f 916 800 793
f 923 800 916
f 802 917 795
f 802 924 917
f 919 803 797
f 804 803 919
f 920 804 919
f 925 804 920
f 805 922 799
f 805 926 922
f 927 806 807
f 928 927 807
f 800 928 807
f 923 928 800
f 930 929 808
f 930 808 809
f 802 808 924
f 924 808 929
f 925 810 804
f 931 810 925
f 811 926 805
f 811 932 926
f 933 813 927
f 927 813 806
f 927 928 934
f 927 934 933
f 814 930 809
f 814 935 930
f 937 815 936
f 815 931 936
f 815 810 931
f 938 937 936
f 811 816 939
f 940 811 939
f 932 811 940
f 817 939 816
f 941 819 933
f 933 819 813
f 933 934 942
f 933 942 941
f 945 944 943
f 944 935 943
f 935 820 943
f 935 814 820
f 937 821 815
f 822 821 937
f 938 822 937
f 946 822 938
f 947 940 939
f 939 817 947
f 817 948 947
f 817 823 948
f 949 825 941
f 941 825 819
f 941 942 950
f 951 941 950
f 949 941 951
f 951 950 945
f 951 945 943
f 827 951 943
f 826 827 943
f 826 943 820
f 946 828 822
f 952 828 946
f 829 948 823
f 829 953 948
f 949 830 825
f 830 949 831
f 831 949 951
f 831 951 827
f 955 832 954
f 832 952 954
f 832 828 952
f 956 955 954
f 834 953 829
f 834 957 953
f 955 835 832
f 959 958 836
f 959 836 835
f 956 959 835
f 955 956 835
f 961 960 958
f 961 958 959
f 962 960 837
f 960 957 837
f 957 834 837
f 957 960 961
f 838 962 837
f 963 839 958
f 958 839 836
f 964 958 960
f 963 958 964
f 965 960 962
f 964 960 965
f 840 965 838
f 838 965 962
f 963 841 839
f 841 963 843
f 963 966 843
f 963 964 966
f 846 966 845
f 966 965 845
f 966 964 965
f 845 965 840
f 966 848 843
f 848 966 846
f 968 967 851
f 851 967 850
f 969 851 852
f 969 968 851
f 970 852 853
f 970 969 852
f 853 854 970
f 970 854 971
f 967 855 850
f 972 855 967
f 856 971 854
f 856 973 971
f 972 857 855
f 974 857 972
f 858 973 856
f 858 975 973
f 977 976 860
f 860 976 859
f 860 857 974
f 860 974 977
f 980 979 978
f 979 975 978
f 975 861 978
f 975 858 861
f 976 862 859
f 981 862 976
f 980 978 863
f 864 980 863
f 982 980 864
f 863 978 861
f 981 865 862
f 983 865 981
f 866 982 864
f 866 984 982
f 986 985 868
f 868 985 867
f 868 865 983
f 868 983 986
f 989 988 987
f 988 984 987
f 984 869 987
f 984 866 869
f 985 870 867
f 990 870 985
f 989 987 871
f 872 989 871
f 991 989 872
f 871 987 869
f 992 873 874
f 993 992 874
f 870 993 874
f 990 993 870
f 875 991 872
f 875 994 991
f 996 995 992
f 995 873 992
f 995 876 873
f 996 992 993
f 999 998 997
f 998 994 997
f 994 877 997
f 994 875 877
f 995 878 876
f 1000 878 995
f 999 997 879
f 880 999 879
f 1001 999 880
f 879 997 877
f 1002 881 882
f 1003 1002 882
f 878 1003 882
f 1000 1003 878
f 883 1001 880
f 883 1004 1001
f 1006 1005 1002
f 1005 881 1002
f 1005 884 881
f 1006 1002 1003
f 1008 1007 885
f 1008 885 886
f 883 885 1004
f 1004 885 1007
f 1005 887 884
f 1009 887 1005
f 888 1008 886
f 888 1010 1008
f 1009 889 887
f 1011 889 1009
f 1014 1013 1012
f 1013 1010 1012
f 1010 890 1012
f 1010 888 890
f 1011 891 889
f 1015 891 1011
f 1016 1014 1012
f 1012 890 1016
f 890 1017 1016
f 890 892 1017
f 1020 1019 1018
f 1018 1021 1020
f 1015 893 891
f 1022 893 1015
f 894 1017 892
f 894 1023 1017
f 1025 1024 897
f 897 1024 896
f 898 1018 1019
f 1025 898 1019
f 897 898 1025
f 898 900 1018
f 900 1021 1018
f 900 1026 1021
f 1028 901 1027
f 901 1022 1027
f 901 893 1022
f 1029 1028 1027
f 894 902 1030
f 1031 894 1030
f 1023 894 1031
f 903 1030 902
f 1033 1032 906
f 906 1032 905
f 906 896 1024
f 906 1024 1033
f 908 1026 900
f 908 1034 1026
f 1028 909 901
f 910 909 1028
f 1029 910 1028
f 1035 910 1029
f 1031 1030 1036
f 1031 1036 1037
f 911 1036 903
f 903 1036 1030
f 1032 912 905
f 1038 912 1032
f 913 1034 908
f 913 1039 1034
f 1041 914 1040
f 914 1035 1040
f 914 910 1035
f 1042 1041 1040
f 1043 1037 1036
f 1036 911 1043
f 911 1044 1043
f 911 915 1044
f 1038 916 912
f 1045 916 1038
f 917 1039 913
f 917 1046 1039
f 1041 918 914
f 920 918 1041
f 1042 920 1041
f 1047 920 1042
f 915 921 1048
f 1049 915 1048
f 1044 915 1049
f 922 1048 921
f 1045 923 916
f 1050 923 1045
f 924 1046 917
f 924 1051 1046
f 1053 925 1052
f 925 1047 1052
f 925 920 1047
f 1054 1053 1052
f 1049 1048 1055
f 1049 1055 1056
f 926 1055 922
f 922 1055 1048
f 1050 928 923
f 1057 928 1050
f 1059 1058 929
f 1059 929 930
f 924 929 1051
f 1051 929 1058
f 1060 931 1053
f 1053 931 925
f 1053 1054 1061
f 1062 1053 1061
f 1060 1053 1062
f 1062 1061 1056
f 1055 1062 1056
f 1063 1062 1055
f 932 1063 926
f 926 1063 1055
f 1065 934 1064
f 934 1057 1064
f 934 928 1057
f 1067 1066 1065
f 1067 1065 1064
f 1067 1059 1066
f 1059 935 1066
f 1059 930 935
f 1060 936 931
f 936 1060 938
f 1060 1068 938
f 1060 1062 1068
f 1069 1062 1063
f 1068 1062 1069
f 940 1069 932
f 932 1069 1063
f 1070 942 1065
f 1065 942 934
f 945 1070 944
f 1070 1066 944
f 1070 1065 1066
f 944 1066 935
f 1071 946 1068
f 1068 946 938
f 1072 1068 1069
f 1071 1068 1072
f 947 1073 940
f 1073 1069 940
f 1073 1072 1069
f 948 1073 947
f 1070 950 942
f 950 1070 945
f 1074 952 1071
f 1071 952 946
f 1075 1071 1072
f 1074 1071 1075
f 1076 1072 1073
f 1075 1072 1076
f 953 1076 948
f 948 1076 1073
f 1074 954 952
f 954 1074 956
f 1074 1077 956
f 1074 1075 1077
f 1078 1075 1076
f 1077 1075 1078
f 957 1078 953
f 953 1078 1076
f 1077 959 956
f 959 1077 961
f 961 1077 1078
f 961 1078 957
f 1079 967 968
f 969 1080 968
f 968 1080 1079
f 970 1081 969
f 969 1081 1080
f 971 1081 970
f 1082 972 1079
f 1079 972 967
f 1083 1079 1080
f 1082 1079 1083
f 1084 1080 1081
f 1083 1080 1084
f 973 1084 971
f 971 1084 1081
f 1085 974 1082
f 1082 974 972
f 1086 1082 1083
f 1085 1082 1086
f 1087 1083 1084
f 1086 1083 1087
f 975 1087 973
f 973 1087 1084
f 1088 976 977
f 1089 1088 977
f 1089 977 974
f 1090 1089 974
f 1085 1090 974
f 1092 1091 1090
f 1085 1092 1090
f 1086 1092 1085
f 980 1092 979
f 1092 1087 979
f 1092 1086 1087
f 979 1087 975
f 1093 981 1088
f 1088 981 976
f 1088 1089 1094
f 1088 1094 1093
f 1091 1092 1095
f 1091 1095 1096
f 982 1095 980
f 980 1095 1092
f 1097 983 1093
f 1093 983 981
f 1093 1094 1098
f 1093 1098 1097
f 1096 1095 1099
f 1096 1099 1100
f 984 1099 982
f 982 1099 1095
f 1101 985 986
f 1102 1101 986
f 1102 986 983
f 1103 1102 983
f 1097 1103 983
f 1106 1105 1104
f 1098 1103 1097
f 1105 1106 1100
f 1105 1100 1099
f 989 1105 1099
f 988 989 1099
f 988 1099 984
f 1107 990 1101
f 1101 990 985
f 1101 1102 1108
f 1101 1108 1107
f 1104 1105 1109
f 1104 1109 1110
f 991 1109 989
f 989 1109 1105
f 1111 993 1107
f 1107 993 990
f 1107 1108 1112
f 1107 1112 1111
f 1110 1109 1113
f 1110 1113 1114
f 994 1113 991
f 991 1113 1109
f 1115 995 996
f 993 1111 996
f 1111 1115 996
f 1111 1116 1115
f 1111 1112 1117
f 1118 1111 1117
f 1116 1111 1118
f 1118 1117 1114
f 1118 1114 1113
f 999 1118 1113
f 998 999 1113
f 998 1113 994
f 1119 1000 1115
f 1115 1000 995
f 1120 1115 1116
f 1119 1115 1120
f 1121 1116 1118
f 1120 1116 1121
f 1001 1121 999
f 999 1121 1118
f 1122 1003 1119
f 1119 1003 1000
f 1123 1119 1120
f 1122 1119 1123
f 1124 1120 1121
f 1123 1120 1124
f 1004 1124 1001
f 1001 1124 1121
f 1125 1005 1006
f 1003 1122 1006
f 1122 1125 1006
f 1122 1126 1125
f 1127 1122 1123
f 1126 1122 1127
f 1008 1127 1007
f 1127 1124 1007
f 1127 1123 1124
f 1007 1124 1004
f 1128 1009 1125
f 1125 1009 1005
f 1129 1125 1126
f 1128 1125 1129
f 1130 1126 1127
f 1129 1126 1130
f 1010 1130 1008
f 1008 1130 1127
f 1131 1011 1128
f 1128 1011 1009
f 1132 1128 1129
f 1131 1128 1132
f 1014 1132 1013
f 1132 1130 1013
f 1132 1129 1130
f 1013 1130 1010
f 1133 1015 1131
f 1131 1015 1011
f 1134 1131 1132
f 1133 1131 1134
f 1016 1135 1014
f 1135 1132 1014
f 1135 1134 1132
f 1017 1135 1016
f 1138 1137 1136
f 1019 1020 1136
f 1020 1138 1136
f 1020 1139 1138
f 1141 1140 1021
f 1140 1020 1021
f 1140 1139 1020
f 1141 1142 1140
f 1143 1022 1133
f 1133 1022 1015
f 1144 1133 1134
f 1143 1133 1144
f 1145 1134 1135
f 1144 1134 1145
f 1023 1145 1017
f 1017 1145 1135
f 1136 1137 1025
f 1137 1024 1025
f 1137 1146 1024
f 1136 1025 1019
f 1026 1147 1141
f 1026 1141 1021
f 1142 1141 1148
f 1148 1141 1147
f 1143 1027 1022
f 1027 1143 1029
f 1143 1149 1029
f 1143 1144 1149
f 1150 1144 1145
f 1149 1144 1150
f 1031 1150 1023
f 1023 1150 1145
f 1152 1151 1033
f 1033 1151 1032
f 1033 1024 1146
f 1033 1146 1152
f 1034 1153 1147
f 1034 1147 1026
f 1148 1147 1154
f 1154 1147 1153
f 1155 1035 1149
f 1149 1035 1029
f 1156 1149 1150
f 1155 1149 1156
f 1037 1156 1031
f 1031 1156 1150
f 1151 1038 1032
f 1157 1038 1151
f 1039 1158 1153
f 1039 1153 1034
f 1154 1153 1159
f 1159 1153 1158
f 1155 1040 1035
f 1040 1155 1042
f 1155 1160 1042
f 1155 1156 1160
f 1043 1161 1037
f 1161 1156 1037
f 1161 1160 1156
f 1044 1161 1043
f 1157 1045 1038
f 1162 1045 1157
f 1164 1163 1158
f 1039 1164 1158
f 1046 1164 1039
f 1158 1163 1159
f 1165 1047 1160
f 1160 1047 1042
f 1166 1160 1161
f 1165 1160 1166
f 1049 1166 1044
f 1044 1166 1161
f 1162 1050 1045
f 1167 1050 1162
f 1170 1169 1168
f 1169 1164 1168
f 1164 1051 1168
f 1164 1046 1051
f 1165 1052 1047
f 1052 1165 1054
f 1165 1171 1054
f 1165 1166 1171
f 1056 1171 1049
f 1049 1171 1166
f 1173 1057 1172
f 1057 1167 1172
f 1057 1050 1167
f 1175 1174 1173
f 1175 1173 1172
f 1174 1175 1170
f 1174 1170 1168
f 1059 1174 1168
f 1058 1059 1168
f 1058 1168 1051
f 1171 1061 1054
f 1061 1171 1056
f 1173 1064 1057
f 1064 1173 1067
f 1067 1173 1174
f 1067 1174 1059
f 1176 1089 1090
f 1091 1176 1090
f 1177 1094 1176
f 1176 1094 1089
f 1096 1177 1091
f 1091 1177 1176
f 1178 1098 1177
f 1177 1098 1094
f 1100 1178 1096
f 1096 1178 1177
f 1179 1102 1103
f 1103 1098 1179
f 1098 1178 1179
f 1106 1104 1179
f 1106 1179 1178
f 1106 1178 1100
f 1180 1108 1179
f 1179 1108 1102
f 1110 1180 1104
f 1104 1180 1179
f 1181 1112 1180
f 1180 1112 1108
f 1114 1181 1110
f 1110 1181 1180
f 1181 1117 1112
f 1117 1181 1114
f 1184 1183 1182
f 1186 1185 1182
f 1182 1185 1184
f 1186 1187 1185
f 1189 1188 1138
f 1138 1188 1137
f 1139 1182 1183
f 1189 1139 1183
f 1138 1139 1189
f 1182 1139 1140
f 1182 1140 1186
f 1140 1142 1186
f 1142 1187 1186
f 1142 1190 1187
f 1188 1146 1137
f 1191 1146 1188
f 1148 1190 1142
f 1148 1192 1190
f 1193 1151 1152
f 1194 1193 1152
f 1146 1194 1152
f 1191 1194 1146
f 1154 1192 1148
f 1154 1195 1192
f 1196 1157 1193
f 1193 1157 1151
f 1193 1194 1197
f 1193 1197 1196
f 1159 1195 1154
f 1159 1198 1195
f 1199 1162 1196
f 1196 1162 1157
f 1196 1197 1200
f 1196 1200 1199
f 1202 1201 1163
f 1202 1163 1164
f 1159 1163 1198
f 1198 1163 1201
f 1203 1167 1199
f 1199 1167 1162
f 1199 1200 1204
f 1205 1199 1204
f 1203 1199 1205
f 1169 1170 1205
f 1204 1169 1205
f 1206 1169 1204
f 1164 1169 1202
f 1202 1169 1206
f 1203 1172 1167
f 1172 1203 1175
f 1175 1203 1205
f 1175 1205 1170
f 1208 1207 1184
f 1184 1207 1183
f 1209 1184 1185
f 1209 1208 1184
f 1211 1210 1187
f 1210 1185 1187
f 1210 1209 1185
f 1211 1212 1210
f 1214 1213 1189
f 1189 1213 1188
f 1189 1183 1207
f 1189 1207 1214
f 1190 1215 1211
f 1190 1211 1187
f 1212 1211 1216
f 1216 1211 1215
f 1213 1191 1188
f 1217 1191 1213
f 1192 1218 1215
f 1192 1215 1190
f 1216 1215 1219
f 1219 1215 1218
f 1217 1194 1191
f 1220 1194 1217
f 1195 1221 1218
f 1195 1218 1192
f 1219 1218 1222
f 1222 1218 1221
f 1220 1197 1194
f 1223 1197 1220
f 1225 1224 1221
f 1195 1225 1221
f 1198 1225 1195
f 1221 1224 1222
f 1227 1200 1226
f 1200 1223 1226
f 1200 1197 1223
f 1229 1228 1227
f 1229 1227 1226
f 1201 1202 1228
f 1229 1201 1228
f 1230 1201 1229
f 1198 1201 1225
f 1225 1201 1230
f 1227 1204 1200
f 1204 1227 1206
f 1206 1227 1228
f 1206 1228 1202
f 1233 1232 1231
f 1235 1234 1231
f 1231 1234 1233
f 1235 1236 1234
f 1238 1237 1208
f 1208 1237 1207
f 1209 1231 1232
f 1238 1209 1232
f 1208 1209 1238
f 1231 1209 1210
f 1231 1210 1235
f 1240 1239 1212
f 1212 1239 1210
f 1239 1236 1210
f 1236 1235 1210
f 1240 1241 1239
f 1242 1213 1214
f 1243 1242 1214
f 1207 1243 1214
f 1237 1243 1207
f 1216 1244 1240
f 1216 1240 1212
f 1241 1240 1245
f 1245 1240 1244
f 1246 1217 1242
f 1242 1217 1213
f 1242 1243 1247
f 1242 1247 1246
f 1249 1248 1244
f 1216 1249 1244
f 1219 1249 1216
f 1244 1248 1245
f 1250 1220 1246
f 1246 1220 1217
f 1246 1247 1251
f 1246 1251 1250
f 1222 1249 1219
f 1222 1252 1249
f 1253 1223 1250
f 1250 1223 1220
f 1250 1251 1254
f 1250 1254 1253
f 1257 1256 1255
f 1224 1225 1255
f 1256 1224 1255
f 1258 1224 1256
f 1222 1224 1252
f 1252 1224 1258
f 1253 1226 1223
f 1254 1259 1253
f 1259 1226 1253
f 1259 1229 1226
f 1255 1230 1257
f 1230 1259 1257
f 1230 1229 1259
f 1230 1255 1225
f 1261 1260 1233
f 1233 1260 1232
f 1262 1233 1234
f 1262 1261 1233
f 1234 1236 1262
f 1262 1236 1263
f 1265 1264 1238
f 1238 1264 1237
f 1238 1232 1260
f 1238 1260 1265
f 1236 1239 1266
f 1267 1236 1266
f 1263 1236 1267
f 1241 1266 1239
f 1264 1243 1237
f 1268 1243 1264
f 1269 1267 1266
f 1266 1241 1269
f 1241 1270 1269
f 1241 1245 1270
f 1268 1247 1243
f 1271 1247 1268
f 1249 1272 1248
f 1272 1273 1248
f 1273 1245 1248
f 1273 1270 1245
f 1271 1251 1247
f 1274 1251 1271
f 1276 1275 1272
f 1249 1276 1272
f 1252 1276 1249
f 1272 1275 1273
f 1278 1254 1277
f 1254 1274 1277
f 1254 1251 1274
f 1256 1257 1278
f 1277 1256 1278
f 1279 1256 1277
f 1256 1280 1258
f 1279 1280 1256
f 1252 1258 1276
f 1276 1258 1280
f 1278 1259 1254
f 1259 1278 1257
f 1282 1281 1261
f 1261 1281 1260
f 1284 1282 1283
f 1282 1262 1283
f 1282 1261 1262
f 1263 1283 1262
f 1285 1264 1265
f 1286 1285 1265
f 1260 1286 1265
f 1281 1286 1260
f 1284 1283 1287
f 1284 1287 1288
f 1267 1287 1263
f 1263 1287 1283
f 1289 1268 1285
f 1285 1268 1264
f 1285 1286 1290
f 1285 1290 1289
f 1291 1288 1287
f 1293 1291 1292
f 1292 1291 1269
f 1291 1287 1269
f 1287 1267 1269
f 1270 1292 1269
f 1294 1271 1289
f 1289 1271 1268
f 1289 1290 1295
f 1289 1295 1294
f 1293 1292 1296
f 1293 1296 1297
f 1273 1296 1270
f 1270 1296 1292
f 1298 1274 1294
f 1294 1274 1271
f 1294 1295 1299
f 1300 1294 1299
f 1298 1294 1300
f 1302 1301 1300
f 1302 1300 1299
f 1301 1302 1297
f 1301 1297 1296
f 1276 1301 1296
f 1275 1276 1296
f 1275 1296 1273
f 1298 1277 1274
f 1277 1298 1279
f 1279 1298 1300
f 1279 1300 1280
f 1280 1300 1301
f 1280 1301 1276
f 1303 1281 1282
f 1284 1303 1282
f 1304 1286 1303
f 1303 1286 1281
f 1288 1304 1284
f 1284 1304 1303
f 1306 1305 1304
f 1305 1286 1304
f 1305 1290 1286
f 1308 1306 1307
f 1307 1306 1291
f 1306 1304 1291
f 1304 1288 1291
f 1293 1307 1291
f 1310 1295 1309
f 1295 1305 1309
f 1295 1290 1305
f 1310 1309 1308
f 1307 1310 1308
f 1311 1310 1307
f 1297 1311 1293
f 1293 1311 1307
f 1310 1299 1295
f 1299 1310 1302
f 1302 1310 1311
f 1302 1311 1297
f 1312 1305 1306
f 1308 1312 1306
f 1312 1309 1305
f 1309 1312 1308
# 2620 faces, 0 coords texture

# End of File