####
#
# OBJ File Generated by Meshlab
#
####
# Object domain0596.obj
#
# Vertices: 1110
# Faces: 2216
#
####
v 84.472321 64.462547 72.101913
v 84.658844 64.407661 71.946655
v 84.548134 64.275055 72.061874
v 84.502373 64.244530 72.977745
v 84.410477 64.544884 72.953377
v 84.522263 64.501099 73.440186
v 84.504501 64.608826 72.115120
v 84.426712 64.935539 72.991577
v 84.517014 64.941902 72.583008
v 84.534637 64.996048 73.433685
v 84.546127 65.214828 72.999863
v 84.934479 63.406918 73.998993
v 85.035568 63.342743 73.521713
v 85.109665 63.108803 74.002747
v 85.026222 63.316246 74.489716
v 84.789864 64.012672 72.063622
v 85.090820 64.081131 71.834457
v 85.070168 63.834129 72.079422
v 84.985130 63.585938 72.978371
v 84.712265 63.902847 73.044853
v 84.764702 63.896671 73.992661
v 85.023834 63.598335 74.981506
v 84.940559 63.937996 74.921623
v 85.172142 63.927944 75.416237
v 85.046700 64.393555 71.788445
v 84.663544 64.435333 73.983948
v 84.951080 64.390694 74.900406
v 85.157196 64.375404 75.267624
v 84.951736 64.803696 71.988029
v 84.925598 65.142639 72.343018
v 84.732162 65.035973 73.974869
v 84.980957 65.069435 74.518669
v 85.053154 64.706627 74.941628
v 84.783928 65.485794 73.054428
v 85.044838 65.494728 72.689880
v 84.931267 65.531471 73.926392
v 85.125702 65.543495 74.292961
v 85.067612 65.700020 73.064285
v 85.119751 65.813431 73.946526
v 85.364128 62.828434 74.044792
v 85.621147 62.848949 73.580223
v 85.651817 62.620964 74.045090
v 85.654228 62.479694 74.962898
v 85.432411 62.784103 74.980247
v 85.590225 62.721142 75.491180
v 85.293915 63.329956 73.023010
v 85.600212 63.404110 72.563721
v 85.609192 63.123817 73.074402
v 85.155739 63.251968 75.019760
v 85.611389 63.015537 75.974464
v 85.488770 63.353287 75.912712
v 85.772026 63.304890 76.320969
v 85.570648 64.024788 71.769058
v 85.549416 63.662941 72.083084
v 85.416595 63.810787 75.869911
v 85.753349 63.786755 76.235748
v 85.575943 64.450142 71.667107
v 85.604698 64.134773 75.948547
v 85.524231 64.494316 75.622459
v 85.259331 65.049545 71.994888
v 85.677284 64.915779 71.759842
v 85.288025 65.024536 74.973587
v 85.639702 64.958015 75.317146
v 85.573898 65.318039 72.025200
v 85.516029 65.660469 72.464676
v 85.571602 65.322266 74.981209
v 85.527283 65.656586 74.616180
v 85.525940 65.977905 72.988609
v 85.387276 66.054039 73.969719
v 85.596550 66.137657 73.516510
v 85.647621 66.017708 74.260757
v 85.665367 66.173523 73.966675
v 85.915535 62.190170 75.029427
v 86.159119 62.137341 74.508614
v 86.210655 61.894474 75.015442
v 86.217949 61.881557 75.983383
v 86.012177 62.192894 75.980705
v 86.187035 62.141117 76.486336
v 86.165596 62.683651 73.515953
v 86.109344 62.357441 73.998558
v 85.760689 62.679062 76.034737
v 86.229507 62.438465 76.952888
v 86.146317 62.698982 76.899551
v 86.392403 62.698837 77.180908
v 86.142403 63.334137 72.526497
v 86.146088 63.016983 73.014282
v 86.137848 62.981224 76.899956
v 86.050156 63.386223 76.673248
v 86.128151 64.019142 71.757095
v 86.135193 63.660599 72.063843
v 86.152290 63.868931 76.562477
v 86.126015 64.474930 71.642838
v 85.872704 64.429443 75.965088
v 86.225906 64.306000 76.280327
v 86.154442 65.011856 71.678551
v 86.189980 64.650108 75.924995
v 86.140297 65.003975 75.534126
v 85.886894 65.580811 72.048454
v 86.237328 65.423706 71.821854
v 85.881187 65.571884 74.936142
v 86.147331 65.381340 75.175171
v 86.193344 65.762932 72.112976
v 85.875374 66.152908 73.021759
v 86.192421 66.047867 72.589043
v 86.140358 65.704048 74.850555
v 86.078026 65.996674 74.393974
v 86.207039 66.214203 73.070671
v 86.076561 66.202667 73.923088
v 86.520912 61.643379 75.035858
v 86.808075 61.738811 74.599503
v 86.825424 61.483482 75.061348
v 86.781380 61.285965 75.983475
v 86.479355 61.578651 76.014946
v 86.820580 61.306469 76.973282
v 86.627052 61.612438 76.959549
v 86.846741 61.577976 77.439804
v 86.467667 62.182899 74.049438
v 86.727249 62.347839 73.800819
v 86.732513 62.040810 74.147079
v 86.392647 62.090931 77.001076
v 86.716118 62.137257 77.481682
v 86.725517 62.681042 73.425919
v 86.758858 62.710907 77.549553
v 86.731476 63.400131 72.549950
v 86.724503 63.024349 73.021339
v 86.377342 63.314072 77.028336
v 86.775841 63.256332 77.368118
v 86.550362 64.051964 71.845009
v 86.652374 63.735226 72.120209
v 86.543144 63.812420 76.908890
v 86.889175 63.706413 77.206856
v 86.582649 64.473686 71.756828
v 86.797882 64.018845 76.886665
v 86.719345 64.358215 76.453629
v 86.578926 65.030495 71.771454
v 86.732628 64.717796 75.974655
v 86.699219 65.065697 75.487968
v 86.556740 65.441383 71.865585
v 86.413597 65.579018 74.959122
v 86.758453 65.404282 75.038292
v 86.757866 65.701340 74.540924
v 86.643143 65.735146 72.134003
v 86.650970 66.014526 72.606079
v 86.406113 66.143600 73.971596
v 86.759094 65.978966 74.013916
v 86.690865 66.142113 73.484337
v 86.621437 66.182991 73.021118
v 87.093964 61.042801 76.028374
v 87.367897 61.092731 75.573639
v 87.403046 60.874439 76.049866
v 87.352463 60.678993 76.980682
v 87.070786 60.997211 77.017738
v 87.382637 60.694954 77.975662
v 87.226288 61.022701 77.954536
v 87.434296 60.988953 78.438431
v 87.303696 61.649281 74.669495
v 87.299202 61.328373 75.088524
v 87.074112 61.520340 77.948395
v 87.366623 61.529682 78.469162
v 87.009621 62.148346 74.029800
v 87.375862 61.987461 74.313072
v 87.057373 62.117798 77.973785
v 87.416039 62.121895 78.455841
v 87.297592 62.751511 73.538567
v 87.347748 62.334023 73.954987
v 87.120903 62.660679 77.927650
v 87.468994 62.613743 78.275719
v 87.156219 63.445114 72.764435
v 87.242996 63.134468 73.105927
v 87.339035 62.976006 77.970558
v 87.244171 63.359562 77.650551
v 86.866539 63.949970 72.120819
v 87.201431 63.869251 72.552330
v 87.328011 63.765415 77.338783
v 86.949501 64.467087 72.057266
v 87.281540 64.460541 72.520210
v 87.323326 64.101700 76.952072
v 87.311340 64.409599 76.469955
v 86.939247 65.037140 72.064133
v 87.256058 65.038536 72.531219
v 87.327698 64.704292 75.951897
v 87.271736 64.950676 75.446838
v 86.841774 65.542732 72.127686
v 87.137444 65.553406 72.596138
v 87.266739 65.232368 74.937622
v 87.229134 65.495773 74.428566
v 86.905113 66.065544 73.014168
v 87.172134 65.819481 73.039856
v 87.199440 65.696671 73.947136
v 87.848045 59.901138 78.002983
v 87.976784 59.859512 77.526001
v 88.017220 59.707054 77.990715
v 87.991615 59.786251 78.490448
v 87.645691 60.387821 77.035103
v 87.959625 60.411160 76.556252
v 87.938126 60.101795 77.021278
v 87.559067 60.357773 78.009727
v 87.935646 60.080524 78.989075
v 87.793327 60.418839 78.940987
v 88.027641 60.401253 79.432724
v 87.918381 61.046558 75.539978
v 87.891159 60.699120 76.058929
v 87.668762 60.936722 78.944748
v 87.999542 60.962177 79.461792
v 87.813263 61.703594 74.740837
v 87.849731 61.370529 75.096313
v 87.675888 61.524124 78.948906
v 88.009430 61.513336 79.336716
v 87.896690 62.122429 74.433678
v 87.755264 62.046505 78.885170
v 88.071007 61.945747 79.196434
v 87.749237 62.849216 73.753502
v 87.841896 62.511929 74.081665
v 87.965797 62.285091 78.893654
v 87.909836 62.675152 78.541306
v 87.457626 63.363686 73.111069
v 87.787590 63.281830 73.551636
v 87.632446 63.251156 77.956429
v 87.984657 63.091660 78.232399
v 87.557182 63.881897 73.032867
v 87.852676 63.871284 73.527039
v 87.947945 63.432442 77.889854
v 87.875504 63.767132 77.452599
v 87.581276 64.482086 73.036201
v 87.797226 64.420395 73.551605
v 87.912598 64.104683 76.942635
v 87.851067 64.337639 76.439713
v 87.475937 65.035309 73.043030
v 87.842575 64.716949 74.013092
v 87.667374 65.051834 73.987999
v 87.553909 64.996521 74.963875
v 87.856758 64.721642 75.006699
v 87.816330 64.534492 75.947113
v 87.331390 65.533081 73.054092
v 87.375046 65.500244 73.965752
v 88.396187 59.320290 78.981071
v 88.524101 59.243633 78.510498
v 88.610619 59.127594 78.994980
v 88.572456 59.265568 79.472343
v 88.248253 59.861366 77.056335
v 88.565506 59.973469 76.757675
v 88.558716 59.719624 77.093414
v 88.452538 59.406105 77.998039
v 88.106216 59.760208 79.029984
v 88.573700 59.535797 79.941399
v 88.419144 59.845951 79.910286
v 88.691483 59.874802 80.202492
v 88.487160 60.328640 76.416565
v 88.289642 60.348000 79.908722
v 88.641510 60.357422 80.238609
v 88.470177 61.048214 75.660011
v 88.484032 60.684223 76.031128
v 88.329819 60.893284 79.899261
v 88.680489 60.842125 80.202530
v 88.169556 61.562389 75.038063
v 88.551186 61.464272 75.357399
v 88.520615 61.212055 79.957626
v 88.420807 61.595097 79.642220
v 88.329033 62.201233 74.722031
v 88.455055 61.845425 75.035301
v 88.499252 62.011013 79.340317
v 88.051453 62.770702 74.103539
v 88.383514 62.693817 74.546303
v 88.492340 62.384838 78.977310
v 88.484093 62.748558 78.594284
v 88.138809 63.295284 74.035172
v 88.439034 63.285236 74.526794
v 88.411873 63.102600 78.252716
v 88.141830 63.887444 74.048477
v 88.364899 63.825764 74.559784
v 88.431587 63.414711 77.888298
v 88.418236 63.706135 77.406532
v 87.990303 64.385818 74.050591
v 88.395248 64.101677 75.021103
v 88.148888 64.408981 74.989487
v 88.127785 64.369408 75.978943
v 88.435181 64.123032 76.010429
v 88.397453 63.938549 76.942345
v 88.797073 59.228088 78.016296
v 89.136803 59.359943 77.568680
v 89.137817 59.089272 78.063858
v 89.063782 58.830387 78.987564
v 89.130608 58.966148 79.942413
v 88.831726 59.241005 79.953476
v 89.189873 59.298229 80.274185
v 88.992409 59.962166 76.760780
v 89.010445 59.624996 77.126648
v 89.100891 59.783840 80.426750
v 89.080833 60.367168 76.436111
v 89.088348 60.356670 80.454636
v 88.903633 61.111736 75.800156
v 89.015076 60.765549 76.096260
v 89.102112 60.914768 80.372955
v 88.968887 61.543060 75.657562
v 88.804436 61.494473 79.956429
v 89.173935 61.334923 80.202682
v 88.658920 62.166512 75.083374
v 88.998047 62.094280 75.524811
v 89.125061 61.686829 79.897377
v 89.048149 62.025257 79.464531
v 88.729019 62.708084 75.032364
v 89.029495 62.698692 75.524269
v 89.069588 62.374352 78.977089
v 89.043610 62.729519 78.493011
v 88.727890 63.301498 75.048439
v 88.950233 63.239468 75.559982
v 88.751633 63.238811 77.967064
v 89.109467 63.051399 78.008202
v 89.062492 63.277145 77.495567
v 88.560707 63.790451 75.052917
v 88.978928 63.514191 76.020447
v 88.734390 63.823032 75.988609
v 88.698448 63.769218 76.972603
v 89.005379 63.511078 76.981277
v 89.391525 58.625511 79.011971
v 89.706474 58.634052 78.545219
v 89.720566 58.373638 79.019409
v 89.747688 58.399902 79.960480
v 89.439552 58.675518 79.964958
v 89.754333 58.694111 80.310570
v 89.653542 59.272472 77.639221
v 89.652939 58.919071 78.048119
v 89.650925 59.182781 80.572807
v 89.358681 59.789391 77.017570
v 89.726509 59.623535 77.296257
v 89.565186 59.773720 80.665474
v 89.621475 60.410965 76.642998
v 89.688240 59.997494 76.961288
v 89.608406 60.396896 80.664673
v 89.253189 61.000889 76.094307
v 89.669022 60.926975 76.420296
v 89.660042 60.937527 80.489265
v 89.344307 61.536449 76.019951
v 89.711578 61.525772 76.399971
v 89.664124 61.376129 80.250778
v 89.352211 62.117786 76.010513
v 89.696579 62.090652 76.498383
v 89.670372 61.728958 79.912064
v 89.617691 62.004311 79.439156
v 89.316856 62.716236 76.048210
v 89.543488 62.649357 76.558601
v 89.609909 62.289371 78.931442
v 89.592751 62.559467 78.419907
v 89.142555 63.202377 76.052437
v 89.548439 62.922100 77.034454
v 89.301353 63.213741 76.971695
v 89.567589 62.783386 77.944946
v 90.050552 58.149822 79.042175
v 90.324623 58.181591 78.710526
v 90.345840 58.016533 79.063499
v 90.342781 58.010876 79.937317
v 90.053749 58.153423 79.957405
v 90.333313 58.172295 80.290833
v 90.189209 58.503189 78.336288
v 90.199600 58.554565 80.635597
v 90.268547 59.232937 77.638046
v 90.215225 58.824711 77.960823
v 90.270714 58.912655 80.969261
v 90.051399 59.228691 80.924271
v 90.424011 59.268204 81.249847
v 90.293053 59.734192 77.368065
v 89.986008 59.772049 80.962898
v 90.392235 59.764950 81.254814
v 90.070084 60.521698 76.814285
v 90.191269 60.161774 77.080162
v 90.055801 60.306908 80.912804
v 90.419624 60.184460 81.159393
v 90.090126 60.948380 76.726761
v 90.303993 60.537655 80.898819
v 90.207848 60.944450 80.578629
v 90.064148 61.450382 76.735970
v 90.162445 61.338329 80.248459
v 90.175987 61.792336 77.035538
v 89.994675 62.146935 76.994820
v 90.189171 62.085312 77.514244
v 89.941689 62.102421 78.990974
v 90.264633 61.924290 79.034195
v 90.249710 62.054855 78.493286
v 90.174110 61.603786 79.915894
v 89.746887 62.616722 77.051285
v 90.124123 62.309395 78.000443
v 89.855797 62.574196 77.960236
v 90.823776 58.141964 78.555328
v 90.844269 57.925056 79.047035
v 90.865982 57.897785 79.980980
v 90.810677 58.040504 80.517868
v 90.545662 58.620823 78.020363
v 90.914307 58.805222 77.810143
v 90.876060 58.456326 78.109428
v 90.844780 58.321125 80.990501
v 90.538406 58.602173 81.001762
v 90.901489 58.671162 81.427155
v 90.819588 59.222137 77.643188
v 90.839966 59.218868 81.562889
v 90.813583 59.771770 77.552162
v 90.839622 59.767349 81.480148
v 90.395340 60.425129 77.117035
v 90.796967 60.289330 77.516434
v 90.848465 60.224861 81.282990
v 90.445862 60.957787 77.085320
v 90.727493 60.900513 77.557510
v 90.838669 60.590321 80.947632
v 90.798439 60.966534 80.490036
v 90.317345 61.459568 77.083328
v 90.820290 61.230000 78.007126
v 90.628830 61.576809 77.993607
v 90.805710 61.504059 78.506821
v 90.506523 61.462540 79.964325
v 90.862022 61.282574 80.006058
v 90.799545 61.477779 79.485680
v 90.334167 62.025124 77.988609
v 90.721924 61.643944 78.980843
v 91.435562 58.140827 78.551247
v 91.416985 57.900242 79.048241
v 91.426231 57.781647 80.005928
v 91.483147 57.892620 80.956627
v 91.148582 58.055580 80.981354
v 91.452248 58.060802 81.479919
v 91.250092 58.787666 77.858665
v 91.349869 58.470661 78.128349
v 91.487518 58.362324 81.942642
v 91.276833 58.657864 81.889137
v 91.610123 58.679512 82.242294
v 91.263237 59.191158 77.773506
v 91.239616 59.146362 81.906609
v 91.606239 59.103130 82.237442
v 91.230972 59.692211 77.767654
v 91.441139 59.461227 81.970177
v 91.317429 59.861065 81.686966
v 91.408546 60.061611 78.007339
v 91.201263 60.397568 77.949295
v 91.540054 60.422039 78.316658
v 91.418388 60.282120 81.376030
v 91.038391 60.906590 78.049507
v 91.364830 60.878319 78.554634
v 91.446014 60.613403 80.953903
v 91.372093 60.844418 80.447815
v 91.031593 61.420143 78.999992
v 91.335953 61.164215 79.033630
v 91.346992 61.058834 79.958466
v 91.975044 58.158188 78.700363
v 91.990494 57.919968 79.067734
v 92.002190 57.729359 80.000305
v 91.978348 57.638718 80.969124
v 92.051346 57.783615 81.957901
v 91.744713 58.051815 81.976875
v 92.073769 58.085827 82.429901
v 91.590187 58.663250 78.105980
v 92.014473 58.582542 78.414085
v 91.973801 58.606865 82.577141
v 91.674995 59.186905 78.035896
v 92.090279 59.184147 78.343628
v 92.012962 59.186722 82.560242
v 91.617195 59.735008 78.067757
v 92.036369 59.791656 78.389244
v 91.710625 59.772839 81.995087
v 92.083603 59.692783 82.325508
v 91.972168 60.313934 78.622887
v 92.023132 60.042301 81.977097
v 91.960892 60.358433 81.522148
v 92.005318 60.662064 79.022217
v 91.667381 60.896851 79.019989
v 91.684891 60.911213 79.992104
v 92.045387 60.768810 80.020828
v 92.025665 60.572845 80.992661
v 92.337654 57.504978 81.016525
v 92.625015 57.534775 80.552071
v 92.674149 57.393654 81.047546
v 92.692131 57.386147 81.969589
v 92.371056 57.527740 81.982254
v 92.641205 57.506550 82.471779
v 92.411308 58.207802 78.828506
v 92.497162 58.002289 79.111000
v 92.562424 57.678493 80.005806
v 92.648697 57.770630 82.964439
v 92.417824 58.067390 82.925041
v 92.727203 58.071056 83.417587
v 92.512329 58.641830 78.680824
v 92.318161 58.601254 82.982407
v 92.653809 58.599255 83.459221
v 92.543991 59.187523 78.599190
v 92.380142 59.149860 82.947517
v 92.727333 59.127800 83.417191
v 92.512169 59.733856 78.677330
v 92.604271 59.467384 82.988029
v 92.544678 59.814091 82.633232
v 92.424805 60.186317 78.807167
v 92.337669 60.285152 81.948433
v 92.668808 60.188065 82.281151
v 92.489944 60.407711 79.090645
v 92.576111 60.602966 80.006821
v 92.587723 60.576763 80.988930
v 92.661491 60.392696 81.912788
v 93.167290 57.517323 80.540253
v 93.175415 57.349770 81.049950
v 93.193169 57.259800 81.996895
v 93.259308 57.360882 82.951294
v 92.926575 57.498745 82.973442
v 93.221802 57.500870 83.471588
v 92.742073 58.112888 79.112587
v 93.150787 58.070896 79.537498
v 93.138779 57.788586 80.005913
v 93.248131 57.781338 83.940956
v 93.034454 58.074677 83.897026
v 93.354950 58.097328 84.256729
v 92.931564 58.580059 78.981880
v 93.291847 58.540882 79.327194
v 92.975761 58.599968 83.927773
v 93.308601 58.598904 84.300690
v 92.920471 59.186253 78.850510
v 93.137024 58.906620 79.039574
v 93.038063 59.124302 83.895103
v 93.362846 59.094086 84.242203
v 93.131653 59.463463 79.042961
v 92.930008 59.792782 78.984093
v 93.259438 59.811852 79.352692
v 92.888634 59.761654 82.993965
v 93.212242 59.723270 83.474564
v 93.247162 59.420364 83.940285
v 92.738960 60.261395 79.105057
v 93.086769 60.251759 79.577385
v 93.232727 59.959583 82.960464
v 93.164131 60.229359 82.447548
v 93.089249 60.435547 80.049377
v 93.154709 60.525383 81.002136
v 93.173843 60.425888 81.943893
v 93.686745 57.606087 80.599426
v 93.687866 57.388016 81.078560
v 93.756325 57.235851 82.009033
v 93.776405 57.213593 82.999413
v 93.846878 57.331112 83.952942
v 93.519501 57.508011 83.963127
v 93.856369 57.526867 84.412849
v 93.580101 58.171982 79.787842
v 93.674049 57.895714 80.119774
v 93.715981 58.020096 84.592133
v 93.656792 58.609570 79.653168
v 93.686478 58.599743 84.627853
v 93.269775 59.185795 79.139946
v 93.624031 59.177124 79.553230
v 93.773132 59.181477 84.556229
v 93.611191 59.697758 79.704086
v 93.523033 59.681198 83.943626
v 93.853142 59.609299 84.277176
v 93.693085 60.012493 80.048454
v 93.418373 60.284546 80.034615
v 93.708199 60.282711 80.527618
v 93.791817 60.089188 82.991730
v 93.722664 60.245678 82.451126
v 93.837708 59.820274 83.917892
v 93.658539 60.406521 81.028755
v 93.674744 60.391441 81.951836
v 94.013039 57.497204 81.038284
v 94.364197 57.459320 81.483994
v 94.318520 57.282959 82.023438
v 94.346336 57.146633 82.997719
v 94.325684 57.059399 83.969048
v 94.424736 57.219627 84.943077
v 94.187737 57.490513 84.918694
v 94.489418 57.489880 85.415688
v 93.889435 58.099762 80.118324
v 94.268616 58.091953 80.575264
v 94.334625 57.736088 81.012917
v 94.058456 58.016117 84.995872
v 94.395050 58.016979 85.468681
v 94.021866 58.605392 80.027657
v 94.378578 58.607498 80.418739
v 94.050896 58.601646 85.003456
v 94.434799 58.609058 85.464561
v 94.027382 59.184601 80.022713
v 94.383560 59.178223 80.414940
v 94.150131 59.147114 84.926506
v 94.492622 59.110031 85.294060
v 93.921089 59.717258 80.087708
v 94.273178 59.697136 80.571236
v 94.394875 59.438721 84.955963
v 94.331169 59.732948 84.506096
v 93.977142 60.257515 81.021454
v 94.301208 60.005798 81.035851
v 94.014175 60.288448 81.987625
v 94.369774 60.149632 82.026878
v 94.345985 60.052223 83.001701
v 94.374756 59.923260 83.976265
v 94.681801 56.919502 84.016869
v 94.969070 56.948887 83.552132
v 95.018150 56.807644 84.047546
v 95.035690 56.799461 84.969467
v 94.721466 56.948822 84.980736
v 94.989784 56.926170 85.468895
v 94.848480 57.580265 81.707306
v 94.860352 57.376911 82.085670
v 94.906487 57.088074 83.003838
v 95.005722 57.194710 85.942123
v 94.793327 57.488884 85.896820
v 95.112701 57.511265 86.256905
v 94.636658 58.016876 80.999336
v 94.969612 57.974674 81.370789
v 94.727303 58.015129 85.931473
v 95.066666 58.012928 86.300682
v 94.745468 58.677387 80.750870
v 94.893967 58.331753 81.039490
v 94.770905 58.549526 85.905266
v 95.114754 58.511726 86.247910
v 94.740791 59.105686 80.755096
v 94.971603 58.864338 85.956558
v 94.901299 59.216335 85.620010
v 94.860252 59.426189 81.053116
v 94.608498 59.745434 81.023346
v 94.897995 59.723728 81.519295
v 94.685974 59.694427 84.944878
v 95.014114 59.600471 85.279510
v 94.862709 59.895962 82.039116
v 94.917114 59.989094 83.000404
v 94.935608 59.965736 83.991020
v 95.006340 59.806629 84.914024
v 95.512131 56.926292 83.537674
v 95.519447 56.763233 84.049873
v 95.538071 56.675842 84.997368
v 95.610130 56.778431 85.946144
v 95.282814 56.932652 85.958733
v 95.628944 56.963821 86.400284
v 95.176743 57.509514 82.057327
v 95.536301 57.453449 82.487183
v 95.492622 57.186314 82.997826
v 95.475571 57.435459 86.589966
v 95.365196 58.089722 81.708916
v 95.463760 57.765461 82.050232
v 95.444435 58.013802 86.627792
v 95.072800 58.648636 81.110970
v 95.399895 58.587921 81.557152
v 95.529053 58.597225 86.558800
v 95.055420 59.128757 81.115364
v 95.364883 59.126675 81.591286
v 95.251648 59.149220 85.961761
v 95.598297 59.043732 86.293793
v 95.189682 59.721024 82.020859
v 95.458305 59.431385 82.035286
v 95.476883 59.709881 82.524071
v 95.576721 59.348824 85.913597
v 95.509148 59.633797 85.440620
v 95.436867 59.849442 83.045769
v 95.499535 59.941051 84.002655
v 95.517540 59.840599 84.943886
v 96.038948 57.010391 83.593567
v 96.035927 56.793625 84.076546
v 96.104248 56.626019 85.011711
v 96.117630 56.600388 85.993057
v 96.200783 56.786804 86.914406
v 95.978699 56.945850 86.883423
v 96.261444 56.988842 87.258095
v 95.945396 57.570602 82.747414
v 96.024818 57.299263 83.110863
v 95.834175 57.433876 86.980515
v 96.212700 57.420452 87.448906
v 95.681541 58.067619 82.089073
v 96.003586 58.005825 82.544037
v 95.810089 58.015461 87.002266
v 96.205101 58.022961 87.454697
v 95.739540 58.600182 82.045273
v 96.058403 58.596676 82.528008
v 95.907852 58.561111 86.927025
v 96.251244 58.523865 87.293434
v 95.673042 59.129940 82.081070
v 95.970665 59.130985 82.578300
v 96.151741 58.853596 86.956352
v 96.079575 59.171589 86.510315
v 95.769966 59.710094 83.023872
v 96.045502 59.432064 83.033974
v 96.054718 59.700245 83.525826
v 96.157944 59.445080 85.981857
v 96.063477 59.646847 85.442047
v 96.002235 59.820045 84.028687
v 96.018623 59.803406 84.950607
v 96.377579 56.886723 84.021408
v 96.706093 56.814445 84.473740
v 96.670982 56.643745 85.008202
v 96.647583 56.435242 85.975128
v 96.673676 56.517544 86.993950
v 96.644623 56.813324 87.543076
v 96.256607 57.502384 83.105225
v 96.668587 57.470985 83.535202
v 96.708237 57.087730 83.974487
v 96.723175 57.152588 87.972366
v 96.542542 57.475441 87.894562
v 96.872826 57.502239 88.254189
v 96.389229 58.016342 83.007065
v 96.755028 58.013130 83.384102
v 96.544250 57.966106 87.892021
v 96.885254 57.929672 88.233627
v 96.393784 58.600533 83.003738
v 96.737938 58.593517 83.405952
v 96.734062 58.276409 87.952271
v 96.658882 58.630245 87.620216
v 96.276154 59.134861 83.072258
v 96.620247 59.113037 83.568779
v 96.443512 59.107658 86.944565
v 96.772255 59.016182 87.281075
v 96.321220 59.671680 84.021492
v 96.644501 59.419250 84.036072
v 96.357094 59.699680 84.986778
v 96.712280 59.561562 85.029266
v 96.689499 59.434002 85.995796
v 96.761932 59.229153 86.912392
v 97.018875 56.328598 86.018944
v 97.332428 56.453930 85.578575
v 97.358055 56.254093 86.060928
v 97.361664 56.193176 87.000092
v 97.008514 56.318596 87.018822
v 97.397530 56.255363 87.930756
v 97.225670 56.390026 87.931259
v 97.445602 56.415260 88.250351
v 97.208206 56.972683 84.583427
v 97.202309 56.657883 85.094505
v 96.919838 56.801727 88.002998
v 97.313133 56.857124 88.469872
v 97.093811 57.582134 83.795670
v 97.189995 57.284462 84.103592
v 97.238358 57.431057 88.584297
v 97.135605 58.015987 83.706421
v 97.294182 58.008453 88.551018
v 97.098335 58.516586 83.740578
v 97.009697 58.563126 87.961670
v 97.356911 58.456631 88.292488
v 97.209000 58.842594 84.049438
v 96.952507 59.159454 84.023361
v 97.242004 59.137760 84.519264
v 97.330986 58.768623 87.919144
v 97.270966 59.065002 87.449341
v 97.206383 59.309261 85.039101
v 97.257523 59.379929 85.997765
v 97.284836 59.275005 86.946777
v 97.781128 56.436020 85.725983
v 97.796356 56.250019 86.094307
v 97.872040 56.075256 87.011978
v 97.896469 56.085056 87.984291
v 97.845985 56.275757 88.518372
v 97.552612 56.866489 85.019264
v 97.918083 56.793934 85.359673
v 97.911758 56.587254 88.953476
v 97.690819 56.892342 88.911446
v 98.038345 56.923233 89.260193
v 97.393005 57.512825 84.121696
v 97.711838 57.493519 84.590515
v 97.848618 57.145885 85.013847
v 97.615974 57.429153 88.952744
v 98.001289 57.425591 89.289703
v 97.471809 58.015118 84.073814
v 97.794731 58.014885 84.541756
v 97.676346 57.972073 88.912239
v 98.047760 57.915684 89.222870
v 97.415451 58.539310 84.103012
v 97.722420 58.542618 84.582733
v 97.916275 58.261883 88.946281
v 97.835304 58.589760 88.513046
v 97.533920 59.135475 85.020744
v 97.804344 58.846241 85.034813
v 97.821556 59.123779 85.523705
v 97.890297 58.859947 88.004410
v 97.859261 59.114807 87.466507
v 97.779007 59.254700 86.045135
v 97.845047 59.268791 86.961502
v 98.128654 56.321091 86.038635
v 98.470314 56.216984 86.468933
v 98.431099 56.051640 87.005142
v 98.412064 55.865501 87.973709
v 98.490280 56.020355 88.955940
v 98.179146 56.282211 88.981941
v 98.520798 56.328899 89.428383
v 98.415245 56.884422 85.625816
v 98.464897 56.510815 85.988426
v 98.411537 56.849487 89.583000
v 98.077576 57.462814 85.046364
v 98.465782 57.408360 85.410408
v 98.425819 57.451519 89.604568
v 98.132370 58.014889 85.018433
v 98.487335 58.004776 85.414825
v 98.471443 57.994759 89.452347
v 98.031914 58.548229 85.073853
v 98.385139 58.531918 85.563873
v 98.204247 58.517609 88.936859
v 98.550880 58.401917 89.224052
v 98.117508 59.128464 86.021950
v 98.423347 58.868855 86.015495
v 98.403671 59.107262 86.523331
v 98.477951 58.940212 87.995598
v 98.407463 59.077057 87.453629
v 98.521652 58.636360 88.904060
v 98.340614 59.187626 86.986809
v 98.780197 55.741932 88.018021
v 99.077538 55.803413 87.565117
v 99.120796 55.613747 88.047874
v 99.129677 55.581188 88.973396
v 98.810181 55.758144 88.983818
v 99.085808 55.743851 89.471390
v 99.034309 56.340538 86.535645
v 99.008820 56.007732 87.052544
v 99.110397 56.026695 89.935562
v 98.883789 56.316151 89.898788
v 99.231934 56.359966 90.198471
v 98.862541 57.004490 85.810585
v 98.966087 56.676617 86.098351
v 98.794800 56.844505 89.944298
v 99.181358 56.841084 90.244553
v 98.889412 57.431976 85.718559
v 98.832199 57.390526 89.931587
v 99.225754 57.326942 90.204811
v 98.862823 57.932796 85.736420
v 99.060394 57.701012 89.965889
v 98.952286 58.088802 89.668518
v 98.992180 58.276218 86.035355
v 98.727890 58.588028 86.011017
v 99.069603 58.615227 86.469078
v 99.049767 58.471100 89.329430
v 98.669968 59.080528 86.995872
v 99.032372 58.905281 87.030365
v 99.031464 58.872654 87.998375
v 99.044136 58.699734 88.936348
v 99.643616 55.768539 87.530472
v 99.641205 55.495762 88.032928
v 99.613716 55.318695 88.988937
v 99.695679 55.581852 89.922005
v 99.386513 55.760788 89.937531
v 99.727898 55.863663 90.213188
v 99.531036 56.411037 86.723793
v 99.570427 56.090885 87.090370
v 99.650276 56.285107 90.362938
v 99.204689 56.904037 86.104736
v 99.600693 56.848808 86.450478
v 99.635750 56.842243 90.408028
v 99.289635 57.429050 86.038605
v 99.681190 57.426750 86.388481
v 99.650108 57.397915 90.356674
v 99.222450 57.972660 86.081947
v 99.609772 58.009594 86.442017
v 99.350006 57.981937 89.958908
v 99.721886 57.819023 90.201996
v 99.532646 58.448601 86.712769
v 99.673820 58.168682 89.896301
v 99.598137 58.482212 89.454063
v 99.542694 58.677067 87.072296
v 99.601234 58.791813 88.000023
v 99.609459 58.689415 88.948761
v 99.965431 55.152035 89.003815
v 100.225029 55.127148 88.510567
v 100.302025 54.993320 88.996582
v 100.227654 55.116180 89.491028
v 100.225685 55.698208 87.618179
v 100.170250 55.321075 88.002159
v 100.183517 55.337265 89.991577
v 100.248184 55.724228 90.341225
v 99.894440 56.281593 87.030281
v 100.309921 56.150536 87.303711
v 100.211731 56.255505 90.484993
v 100.026375 56.929680 86.750023
v 100.183678 56.566402 87.029419
v 100.207611 56.840153 90.503891
v 100.075638 57.428875 86.695854
v 100.207626 57.412460 90.412827
v 100.019218 57.923058 86.757133
v 100.206108 57.858437 90.235115
v 100.134201 58.248470 87.058212
v 99.860519 58.519867 87.052422
v 100.153221 58.521805 87.528847
v 100.219231 58.212212 89.910896
v 100.160126 58.462856 89.434654
v 100.104706 58.649197 88.028450
v 100.121033 58.638439 88.951973
v 100.528198 55.147942 88.037430
v 100.885017 55.287674 87.789864
v 100.864243 55.013496 88.084755
v 100.788490 54.738503 88.990082
v 100.836090 54.847771 89.961288
v 100.508270 55.099583 89.996399
v 100.850365 55.155144 90.433701
v 100.790741 55.697819 87.577423
v 100.724327 55.672226 90.616455
v 100.807022 56.245686 87.422188
v 100.731766 56.290894 90.674591
v 100.414742 56.878719 87.059792
v 100.851021 56.806335 87.329224
v 100.777046 56.852276 90.577774
v 100.454010 57.429317 87.048004
v 100.857170 57.421753 87.388580
v 100.793388 57.400246 90.422768
v 100.357689 57.956413 87.097015
v 100.732513 57.938179 87.567368
v 100.697556 57.807838 90.206573
v 100.423286 58.499973 88.021141
v 100.750900 58.252285 88.032738
v 100.454536 58.522728 88.985924
v 100.796356 58.362591 89.007484
v 100.718460 58.078701 89.912315
v 101.133080 54.583229 89.018616
v 101.425438 54.630341 88.566093
v 101.464081 54.458839 89.047432
v 101.482155 54.456146 89.969604
v 101.160942 54.597595 89.982292
v 101.431168 54.576538 90.471794
v 101.388474 55.230629 87.751869
v 101.373108 54.872047 88.079834
v 101.439545 54.841202 90.964172
v 101.207069 55.137562 90.925034
v 101.514000 55.139420 91.420189
v 101.378311 55.682247 87.570808
v 101.102806 55.671715 90.985382
v 101.440025 55.669327 91.462601
v 101.376709 56.257748 87.488968
v 101.153381 56.226017 90.963409
v 101.514297 56.199451 91.419914
v 101.372673 56.841972 87.515320
v 101.384285 56.545200 90.996849
v 101.270699 56.951942 90.703812
v 101.339249 57.372318 87.659775
v 101.350784 57.399010 90.386909
v 101.395309 57.762295 88.004570
v 101.077728 58.009686 88.008850
v 101.361778 57.978451 88.508430
v 101.052612 57.941296 89.960121
v 101.419312 57.769306 89.998909
v 101.356010 57.971989 89.489220
v 101.281296 58.105564 89.000404
v 101.965286 54.572456 88.536034
v 101.975105 54.396969 89.044151
v 101.982040 54.314613 89.996552
v 102.048691 54.430466 90.950966
v 101.716583 54.568741 90.973450
v 102.009575 54.568611 91.473267
v 101.952850 55.225910 87.746002
v 101.958443 54.870457 88.062881
v 102.027008 54.842056 91.963020
v 101.807579 55.139748 91.919975
v 102.100136 55.139671 92.420250
v 101.962013 55.681835 87.577118
v 101.735924 55.670155 91.962288
v 102.016846 55.671307 92.469635
v 101.959747 56.254230 87.545853
v 101.803635 56.202152 91.924973
v 102.068962 56.215649 92.443062
v 101.941933 56.811218 87.625687
v 101.670044 56.842922 91.001129
v 101.994331 56.805302 91.481155
v 102.012794 56.514576 91.976677
v 101.859688 57.233551 87.785622
v 102.024307 57.031555 90.963791
v 101.929993 57.343212 90.469643
v 101.888641 57.520027 88.074890
v 101.617722 57.944794 89.003166
v 101.971130 57.780331 89.006760
v 101.951355 57.605114 89.965782
v 102.553795 54.618511 88.548584
v 102.539764 54.394680 89.050392
v 102.551033 54.283749 90.003639
v 102.563614 54.292160 90.992027
v 102.636154 54.432541 91.951019
v 102.302658 54.568684 91.973244
v 102.594322 54.565765 92.474091
v 102.447571 55.277924 87.796486
v 102.498276 54.924377 88.096642
v 102.611984 54.841309 92.963356
v 102.389801 55.139046 92.922150
v 102.687294 55.140965 93.418869
v 102.516090 55.699512 87.656898
v 102.301628 55.674618 92.973587
v 102.602798 55.673027 93.467262
v 102.514206 56.235497 87.642036
v 102.324097 56.261944 92.939247
v 102.659744 56.259914 93.452103
v 102.424835 56.717106 87.759140
v 102.280846 56.785072 92.004341
v 102.531380 56.703838 92.916351
v 102.724548 56.677567 93.244186
v 102.508675 57.090919 88.041748
v 102.206978 57.350689 88.053665
v 102.505501 57.363422 88.524368
v 102.581573 57.168831 90.996925
v 102.510925 57.319416 90.451675
v 102.615799 56.945778 91.976364
v 102.679062 56.833683 92.931450
v 102.456764 57.523308 89.023827
v 102.466743 57.488087 89.950478
v 103.050232 54.671288 88.721825
v 103.056068 54.473377 89.087128
v 103.122559 54.298515 90.010292
v 103.136322 54.274628 91.000229
v 103.152748 54.285416 91.999260
v 103.207230 54.384594 92.956848
v 102.882294 54.557438 92.976982
v 103.181358 54.566143 93.472519
v 102.812866 55.125717 88.047791
v 103.167175 55.054287 88.380074
v 103.214005 54.855473 93.934731
v 102.999329 55.145607 93.893028
v 103.334526 55.188610 94.197777
v 102.931076 55.764362 87.811691
v 103.090317 55.408722 88.051971
v 102.934677 55.671181 93.927086
v 103.287880 55.669174 94.240524
v 102.926544 56.159565 87.816177
v 102.981598 56.202835 93.896683
v 103.333260 56.151855 94.198708
v 103.065353 56.495625 88.058502
v 102.802460 56.803276 88.039482
v 103.115761 56.822113 88.512383
v 103.197487 56.500023 93.941414
v 103.125999 56.797047 93.502693
v 102.776299 57.342293 89.020065
v 103.104843 57.087944 89.028282
v 102.804092 57.358120 89.987572
v 103.160484 57.221546 90.027100
v 103.136024 57.130386 91.001694
v 103.141197 57.073586 91.993553
v 103.171967 56.972507 92.976433
v 103.367493 54.597836 89.060493
v 103.663155 54.585781 89.536186
v 103.637535 54.429550 90.049530
v 103.704895 54.307354 91.008850
v 103.721405 54.252720 92.001328
v 103.721741 54.157505 92.976845
v 103.799530 54.461746 93.900360
v 103.492294 54.597954 93.931519
v 103.821381 54.717327 94.181511
v 103.564796 55.162224 88.712090
v 103.649010 54.850838 89.055687
v 103.750664 55.118702 94.344284
v 103.274590 55.718819 88.114616
v 103.603996 55.657970 88.556877
v 103.736954 55.670555 94.401207
v 103.257271 56.198483 88.118942
v 103.568916 56.196716 88.591232
v 103.752327 56.223751 94.350075
v 103.411110 56.828266 89.011421
v 103.671104 56.509613 89.029694
v 103.690575 56.796757 89.517868
v 103.478836 56.758781 93.936035
v 103.829224 56.626961 94.189133
v 103.651924 56.965794 90.038300
v 103.706825 57.058117 91.000656
v 103.720261 57.079239 91.999481
v 103.727074 57.067860 92.994164
v 103.796783 56.862621 93.904388
v 104.082497 54.046249 92.996582
v 104.279037 54.118149 92.599617
v 104.278381 54.010391 92.999229
v 104.273758 54.155033 93.381317
v 103.964424 54.574806 90.028931
v 104.218712 54.591087 90.531448
v 104.183167 54.464863 91.039627
v 104.231445 54.300484 92.028458
v 104.230042 54.384003 93.861595
v 104.204880 54.714050 94.175339
v 103.864212 55.145573 89.095932
v 104.139023 55.151333 89.592766
v 104.224098 54.844746 90.038826
v 104.276978 55.118942 94.340347
v 103.934593 55.670982 89.049599
v 104.210052 55.670712 89.548065
v 104.294128 55.671398 94.407692
v 103.874969 56.199192 89.081787
v 104.152351 56.196030 89.584206
v 104.294106 56.237747 94.372124
v 103.973778 56.784248 90.023415
v 104.220993 56.493721 90.039627
v 104.233780 56.758194 90.532265
v 104.306847 56.660370 94.215698
v 104.209679 56.892864 91.055275
v 104.292671 57.036404 92.008644
v 104.304466 57.056713 92.995995
v 104.305511 56.893547 93.921394
v 104.351509 54.060951 92.997948
v 104.368782 54.622536 91.038338
v 104.543777 54.554150 92.012016
v 104.667007 54.482548 92.997421
v 104.496002 54.600178 93.917076
v 104.360245 55.155762 90.077415
v 104.601173 55.082630 91.013000
v 104.769646 55.129421 91.557953
v 104.786201 54.867176 92.026855
v 104.850639 54.811832 93.001610
v 104.751617 54.896908 93.942413
v 104.674896 55.198029 94.186630
v 104.419228 55.669930 90.050049
v 104.669456 55.670910 90.980705
v 104.863670 55.671318 91.511139
v 104.726448 55.683556 94.236565
v 104.355682 56.181850 90.078773
v 104.631721 56.250458 90.991867
v 104.850487 56.250751 91.519241
v 104.732964 56.243168 94.236176
v 104.447548 56.741760 91.061005
v 104.736923 56.743046 91.594406
v 104.708366 56.639950 94.138481
v 104.786125 56.877537 92.061050
v 104.866669 56.993847 92.996964
v 104.789688 56.823666 93.890968
v 104.920372 55.176125 92.050926
v 105.002106 55.156605 93.000137
v 104.884033 55.186348 93.923721
v 105.022644 55.681686 92.041779
v 105.139091 55.683289 93.001335
v 104.976807 55.684620 93.929230
v 105.059822 56.258049 92.036026
v 105.274391 56.229576 92.997681
v 105.015976 56.255253 93.928268
v 105.043686 56.733501 92.101906
v 105.255913 56.794880 92.611305
v 105.357948 56.608101 92.998245
v 105.228691 56.785278 93.375771
v 105.012840 56.710125 93.853310
v 105.341354 56.858208 92.998024
v 105.379059 56.810192 92.999100
# 1110 vertices, 0 vertices normals

f 3 2 1
f 5 4 1
f 1 4 3
f 5 6 4
f 2 7 1
f 9 8 7
f 8 1 7
f 8 5 1
f 6 5 10
f 10 5 8
f 9 11 8
f 8 11 10
f 14 13 12
f 12 15 14
f 18 17 16
f 20 19 16
f 16 19 18
f 19 20 13
f 20 12 13
f 20 21 12
f 15 12 22
f 12 23 22
f 12 21 23
f 23 24 22
f 16 17 3
f 17 2 3
f 17 25 2
f 16 3 4
f 16 4 20
f 20 4 6
f 26 20 6
f 21 20 26
f 21 27 23
f 21 26 27
f 24 23 28
f 28 23 27
f 25 29 2
f 2 29 7
f 9 7 29
f 9 29 30
f 10 31 26
f 10 26 6
f 33 27 32
f 27 31 32
f 27 26 31
f 27 33 28
f 11 9 34
f 9 35 34
f 9 30 35
f 31 10 11
f 34 31 11
f 36 31 34
f 32 31 37
f 37 31 36
f 35 38 34
f 34 38 36
f 36 38 39
f 36 39 37
f 42 41 40
f 44 43 40
f 40 43 42
f 44 45 43
f 48 47 46
f 48 46 41
f 41 46 40
f 46 13 40
f 13 14 40
f 40 14 15
f 49 40 15
f 44 40 49
f 45 44 50
f 44 51 50
f 44 49 51
f 51 52 50
f 54 53 18
f 18 53 17
f 19 46 47
f 54 19 47
f 18 19 54
f 46 19 13
f 22 49 15
f 49 22 24
f 55 49 24
f 51 49 55
f 52 51 56
f 56 51 55
f 53 25 17
f 57 25 53
f 59 58 55
f 24 59 55
f 28 59 24
f 55 58 56
f 29 25 60
f 25 61 60
f 25 57 61
f 60 30 29
f 32 62 33
f 62 63 33
f 63 28 33
f 63 59 28
f 61 64 60
f 30 60 64
f 65 30 64
f 35 30 65
f 67 66 62
f 32 67 62
f 37 67 32
f 62 66 63
f 65 68 35
f 35 68 38
f 68 70 69
f 39 68 69
f 38 68 39
f 69 71 39
f 71 37 39
f 71 67 37
f 70 72 69
f 69 72 71
f 75 74 73
f 77 76 73
f 73 76 75
f 77 78 76
f 80 79 42
f 42 79 41
f 43 73 74
f 80 43 74
f 42 43 80
f 73 43 45
f 81 73 45
f 77 73 81
f 78 77 82
f 77 83 82
f 77 81 83
f 83 84 82
f 86 85 48
f 48 85 47
f 48 41 79
f 48 79 86
f 50 81 45
f 83 81 87
f 81 52 87
f 52 88 87
f 52 81 50
f 83 87 84
f 90 89 54
f 54 89 53
f 54 47 85
f 54 85 90
f 56 88 52
f 56 91 88
f 89 57 53
f 92 57 89
f 59 93 58
f 93 94 58
f 94 56 58
f 94 91 56
f 92 61 57
f 95 61 92
f 97 96 93
f 59 97 93
f 63 97 59
f 93 96 94
f 64 61 98
f 61 99 98
f 61 95 99
f 98 65 64
f 67 100 66
f 100 101 66
f 101 63 66
f 101 97 63
f 99 102 98
f 102 104 103
f 102 103 68
f 98 102 68
f 65 98 68
f 103 70 68
f 106 105 100
f 67 106 100
f 71 106 67
f 100 105 101
f 104 107 103
f 103 107 70
f 107 72 70
f 107 108 72
f 71 72 106
f 106 72 108
f 111 110 109
f 113 112 109
f 109 112 111
f 115 114 113
f 113 114 112
f 115 116 114
f 119 118 117
f 119 117 110
f 110 117 109
f 117 74 109
f 74 75 109
f 109 75 76
f 109 76 113
f 113 76 78
f 120 113 78
f 115 113 120
f 116 115 121
f 121 115 120
f 117 118 80
f 118 79 80
f 118 122 79
f 117 80 74
f 82 120 78
f 82 84 120
f 84 121 120
f 84 123 121
f 125 124 86
f 86 124 85
f 86 79 122
f 86 122 125
f 88 126 87
f 126 127 87
f 127 84 87
f 127 123 84
f 129 128 90
f 90 128 89
f 90 85 124
f 90 124 129
f 91 130 126
f 91 126 88
f 127 126 131
f 131 126 130
f 128 92 89
f 132 92 128
f 134 133 130
f 91 134 130
f 94 134 91
f 130 133 131
f 132 95 92
f 135 95 132
f 137 136 96
f 137 96 97
f 94 96 134
f 134 96 136
f 135 99 95
f 138 99 135
f 141 140 139
f 140 137 139
f 137 101 139
f 137 97 101
f 138 142 99
f 99 142 102
f 104 102 142
f 104 142 143
f 146 145 144
f 144 145 141
f 144 141 139
f 106 144 139
f 105 106 139
f 105 139 101
f 143 147 104
f 104 147 107
f 144 108 146
f 108 147 146
f 108 107 147
f 108 144 106
f 150 149 148
f 152 151 148
f 148 151 150
f 154 153 152
f 152 153 151
f 154 155 153
f 157 156 111
f 111 156 110
f 112 148 149
f 157 112 149
f 111 112 157
f 148 112 114
f 148 114 152
f 152 114 116
f 158 152 116
f 154 152 158
f 155 154 159
f 159 154 158
f 160 118 119
f 161 160 119
f 110 161 119
f 156 161 110
f 121 162 158
f 121 158 116
f 159 158 163
f 163 158 162
f 165 164 160
f 164 118 160
f 164 122 118
f 165 160 161
f 123 166 162
f 123 162 121
f 163 162 167
f 167 162 166
f 169 168 125
f 125 168 124
f 125 122 164
f 125 164 169
f 171 170 166
f 123 171 166
f 127 171 123
f 166 170 167
f 172 128 129
f 173 172 129
f 124 173 129
f 168 173 124
f 131 171 127
f 131 174 171
f 175 132 172
f 172 132 128
f 172 173 176
f 172 176 175
f 178 177 133
f 178 133 134
f 131 133 174
f 174 133 177
f 179 135 175
f 175 135 132
f 175 176 180
f 175 180 179
f 182 181 136
f 182 136 137
f 134 136 178
f 178 136 181
f 183 138 179
f 179 138 135
f 179 180 184
f 179 184 183
f 186 185 140
f 186 140 141
f 137 140 182
f 182 140 185
f 183 142 138
f 188 187 143
f 188 143 142
f 184 188 142
f 183 184 142
f 145 146 187
f 188 145 187
f 189 145 188
f 141 145 186
f 186 145 189
f 187 147 143
f 147 187 146
f 192 191 190
f 190 193 192
f 196 195 194
f 196 194 191
f 194 190 191
f 194 197 190
f 193 190 198
f 190 199 198
f 190 197 199
f 199 200 198
f 202 201 150
f 150 201 149
f 151 194 195
f 202 151 195
f 150 151 202
f 194 151 153
f 194 153 197
f 197 153 155
f 203 197 155
f 199 197 203
f 200 199 204
f 204 199 203
f 206 205 157
f 157 205 156
f 157 149 201
f 157 201 206
f 159 207 203
f 159 203 155
f 204 203 208
f 208 203 207
f 205 161 156
f 209 161 205
f 163 210 207
f 163 207 159
f 208 207 211
f 211 207 210
f 213 212 165
f 165 212 164
f 165 161 209
f 165 209 213
f 215 214 210
f 163 215 210
f 167 215 163
f 210 214 211
f 216 168 169
f 217 216 169
f 164 217 169
f 212 217 164
f 171 218 170
f 218 219 170
f 219 167 170
f 219 215 167
f 220 173 216
f 216 173 168
f 216 217 221
f 216 221 220
f 223 222 218
f 171 223 218
f 174 223 171
f 218 222 219
f 224 176 220
f 220 176 173
f 220 221 225
f 220 225 224
f 227 226 177
f 227 177 178
f 174 177 223
f 223 177 226
f 228 180 224
f 224 180 176
f 224 225 229
f 230 224 229
f 228 224 230
f 232 231 230
f 232 230 229
f 181 182 231
f 232 181 231
f 233 181 232
f 178 181 227
f 227 181 233
f 234 184 228
f 228 184 180
f 235 228 230
f 234 228 235
f 186 235 185
f 235 231 185
f 235 230 231
f 185 231 182
f 234 188 184
f 188 234 189
f 189 234 235
f 189 235 186
f 238 237 236
f 236 239 238
f 242 241 240
f 191 192 240
f 192 242 240
f 192 243 242
f 244 236 193
f 236 243 193
f 243 192 193
f 236 237 243
f 239 236 245
f 236 246 245
f 236 244 246
f 246 247 245
f 240 241 196
f 241 195 196
f 241 248 195
f 240 196 191
f 198 244 193
f 244 198 200
f 249 244 200
f 246 244 249
f 247 246 250
f 250 246 249
f 252 251 202
f 202 251 201
f 202 195 248
f 202 248 252
f 204 253 249
f 204 249 200
f 250 249 254
f 254 249 253
f 255 205 206
f 256 255 206
f 201 256 206
f 251 256 201
f 258 257 253
f 204 258 253
f 208 258 204
f 253 257 254
f 260 259 255
f 259 205 255
f 259 209 205
f 260 255 256
f 211 258 208
f 211 261 258
f 262 212 213
f 263 262 213
f 209 263 213
f 259 263 209
f 265 264 214
f 265 214 215
f 211 214 261
f 261 214 264
f 266 217 262
f 262 217 212
f 262 263 267
f 262 267 266
f 219 265 215
f 219 268 265
f 269 221 266
f 266 221 217
f 266 267 270
f 266 270 269
f 272 271 222
f 272 222 223
f 219 222 268
f 268 222 271
f 273 225 269
f 269 225 221
f 269 270 274
f 275 269 274
f 273 269 275
f 277 276 275
f 277 275 274
f 226 227 276
f 277 226 276
f 278 226 277
f 223 226 272
f 272 226 278
f 273 229 225
f 229 273 232
f 232 273 275
f 232 275 233
f 233 275 276
f 233 276 227
f 281 280 279
f 237 238 279
f 238 281 279
f 238 282 281
f 284 283 239
f 283 238 239
f 283 282 238
f 284 285 283
f 287 286 242
f 242 286 241
f 243 279 280
f 287 243 280
f 242 243 287
f 279 243 237
f 245 284 239
f 245 247 284
f 247 285 284
f 247 288 285
f 286 248 241
f 289 248 286
f 250 288 247
f 250 290 288
f 292 291 252
f 252 291 251
f 252 248 289
f 252 289 292
f 254 290 250
f 254 293 290
f 291 256 251
f 294 256 291
f 258 295 257
f 295 296 257
f 296 254 257
f 296 293 254
f 297 259 260
f 298 297 260
f 256 298 260
f 294 298 256
f 300 299 295
f 258 300 295
f 261 300 258
f 295 299 296
f 301 263 297
f 297 263 259
f 297 298 302
f 297 302 301
f 304 303 264
f 304 264 265
f 261 264 300
f 300 264 303
f 305 267 301
f 301 267 263
f 301 302 306
f 301 306 305
f 309 308 307
f 308 304 307
f 304 268 307
f 304 265 268
f 310 270 305
f 305 270 267
f 305 306 311
f 312 305 311
f 310 305 312
f 314 313 312
f 314 312 311
f 313 314 309
f 313 309 307
f 272 313 307
f 271 272 307
f 271 307 268
f 310 274 270
f 274 310 277
f 277 310 312
f 277 312 278
f 278 312 313
f 278 313 272
f 317 316 315
f 319 318 315
f 315 318 317
f 319 320 318
f 322 321 281
f 281 321 280
f 282 315 316
f 322 282 316
f 281 282 322
f 315 282 283
f 315 283 319
f 283 285 319
f 285 320 319
f 285 323 320
f 324 286 287
f 325 324 287
f 280 325 287
f 321 325 280
f 288 323 285
f 288 326 323
f 328 327 324
f 327 286 324
f 327 289 286
f 328 324 325
f 290 326 288
f 290 329 326
f 330 291 292
f 331 330 292
f 289 331 292
f 327 331 289
f 293 329 290
f 293 332 329
f 333 294 330
f 330 294 291
f 330 331 334
f 330 334 333
f 296 332 293
f 296 335 332
f 336 298 333
f 333 298 294
f 333 334 337
f 333 337 336
f 339 338 299
f 339 299 300
f 296 299 335
f 335 299 338
f 340 302 336
f 336 302 298
f 336 337 341
f 336 341 340
f 343 342 303
f 343 303 304
f 300 303 339
f 339 303 342
f 344 306 340
f 340 306 302
f 340 341 345
f 346 340 345
f 344 340 346
f 308 309 346
f 345 308 346
f 347 308 345
f 304 308 343
f 343 308 347
f 344 311 306
f 311 344 314
f 314 344 346
f 314 346 309
f 350 349 348
f 352 351 348
f 348 351 350
f 352 353 351
f 348 349 317
f 349 316 317
f 349 354 316
f 348 317 318
f 348 318 352
f 318 320 352
f 320 353 352
f 320 355 353
f 357 356 322
f 322 356 321
f 322 316 354
f 322 354 357
f 323 359 358
f 355 323 358
f 320 323 355
f 359 360 358
f 356 325 321
f 361 325 356
f 326 362 359
f 326 359 323
f 360 359 363
f 363 359 362
f 365 364 328
f 328 364 327
f 328 325 361
f 328 361 365
f 329 366 362
f 329 362 326
f 363 362 367
f 367 362 366
f 364 331 327
f 368 331 364
f 370 369 366
f 329 370 366
f 332 370 329
f 366 369 367
f 368 334 331
f 371 334 368
f 335 370 332
f 335 372 370
f 374 337 373
f 337 371 373
f 337 334 371
f 375 374 373
f 378 377 376
f 338 339 376
f 377 338 376
f 379 338 377
f 335 338 372
f 372 338 379
f 380 341 374
f 374 341 337
f 374 375 381
f 382 374 381
f 380 374 382
f 382 381 378
f 382 378 376
f 343 382 376
f 342 343 376
f 342 376 339
f 380 345 341
f 345 380 347
f 347 380 382
f 347 382 343
f 384 383 350
f 350 383 349
f 385 350 351
f 385 384 350
f 351 353 385
f 385 353 386
f 389 388 387
f 383 389 387
f 354 383 387
f 349 383 354
f 355 391 390
f 386 355 390
f 353 355 386
f 391 392 390
f 387 388 357
f 388 356 357
f 388 393 356
f 387 357 354
f 358 391 355
f 358 360 391
f 360 392 391
f 360 394 392
f 393 361 356
f 395 361 393
f 363 394 360
f 363 396 394
f 397 364 365
f 398 397 365
f 361 398 365
f 395 398 361
f 367 396 363
f 367 399 396
f 400 368 397
f 397 368 364
f 397 398 401
f 397 401 400
f 403 402 369
f 403 369 370
f 367 369 399
f 399 369 402
f 404 371 400
f 400 371 368
f 400 401 405
f 406 400 405
f 404 400 406
f 407 406 405
f 410 409 408
f 409 403 408
f 403 372 408
f 403 370 372
f 404 373 371
f 373 404 375
f 404 411 375
f 404 406 411
f 412 377 378
f 406 412 378
f 411 406 378
f 412 406 407
f 408 379 410
f 379 412 410
f 379 377 412
f 379 408 372
f 411 381 375
f 381 411 378
f 414 413 384
f 384 413 383
f 415 384 385
f 415 414 384
f 417 416 386
f 416 385 386
f 416 415 385
f 417 418 416
f 420 419 389
f 389 419 388
f 389 383 413
f 389 413 420
f 390 417 386
f 422 421 392
f 392 421 390
f 421 418 390
f 418 417 390
f 422 423 421
f 419 393 388
f 424 393 419
f 394 425 422
f 394 422 392
f 423 422 426
f 426 422 425
f 424 395 393
f 427 395 424
f 429 428 425
f 394 429 425
f 396 429 394
f 425 428 426
f 431 398 430
f 398 427 430
f 398 395 427
f 432 431 430
f 399 429 396
f 399 433 429
f 434 401 431
f 431 401 398
f 431 432 435
f 431 435 434
f 437 436 402
f 437 402 403
f 399 402 433
f 433 402 436
f 434 405 401
f 439 438 407
f 439 407 405
f 435 439 405
f 434 435 405
f 409 410 438
f 439 409 438
f 440 409 439
f 403 409 437
f 437 409 440
f 438 412 407
f 412 438 410
f 442 441 414
f 414 441 413
f 443 414 415
f 443 442 414
f 444 415 416
f 444 443 415
f 446 445 418
f 445 416 418
f 445 444 416
f 446 447 445
f 448 419 420
f 449 448 420
f 413 449 420
f 441 449 413
f 421 446 418
f 421 423 446
f 423 447 446
f 423 450 447
f 451 424 448
f 448 424 419
f 448 449 452
f 448 452 451
f 426 450 423
f 426 453 450
f 454 427 451
f 451 427 424
f 451 452 455
f 451 455 454
f 429 456 428
f 456 457 428
f 457 426 428
f 457 453 426
f 454 430 427
f 432 430 454
f 455 432 454
f 458 432 455
f 460 459 456
f 429 460 456
f 433 460 429
f 456 459 457
f 462 435 461
f 435 458 461
f 435 432 458
f 464 463 462
f 464 462 461
f 436 437 463
f 464 436 463
f 465 436 464
f 433 436 460
f 460 436 465
f 462 439 435
f 439 462 440
f 440 462 463
f 440 463 437
f 468 467 466
f 470 469 466
f 466 469 468
f 470 471 469
f 473 472 442
f 442 472 441
f 474 442 443
f 474 473 442
f 444 466 467
f 474 444 467
f 443 444 474
f 466 444 445
f 466 445 470
f 476 475 447
f 447 475 445
f 475 471 445
f 471 470 445
f 476 477 475
f 472 449 441
f 478 449 472
f 450 479 476
f 450 476 447
f 477 476 480
f 480 476 479
f 478 452 449
f 481 452 478
f 453 482 479
f 453 479 450
f 480 479 483
f 483 479 482
f 481 455 452
f 484 455 481
f 486 485 482
f 453 486 482
f 457 486 453
f 482 485 483
f 484 458 455
f 487 458 484
f 460 488 459
f 488 489 459
f 489 457 459
f 489 486 457
f 487 490 458
f 458 490 461
f 461 491 464
f 490 491 461
f 464 492 465
f 491 492 464
f 460 465 488
f 465 493 488
f 465 492 493
f 488 493 489
f 495 494 468
f 468 494 467
f 496 468 469
f 496 495 468
f 498 497 471
f 497 469 471
f 497 496 469
f 498 499 497
f 500 472 473
f 500 473 501
f 473 502 501
f 473 474 502
f 474 467 494
f 474 494 502
f 475 498 471
f 504 503 477
f 477 503 475
f 503 499 475
f 499 498 475
f 504 505 503
f 506 478 500
f 500 478 472
f 500 501 507
f 500 507 506
f 480 508 504
f 480 504 477
f 505 504 509
f 509 504 508
f 511 510 506
f 510 478 506
f 510 481 478
f 511 506 507
f 483 512 508
f 483 508 480
f 509 508 513
f 513 508 512
f 515 484 514
f 484 510 514
f 484 481 510
f 516 515 514
f 486 517 485
f 517 518 485
f 485 518 483
f 518 519 483
f 519 512 483
f 512 519 513
f 520 487 515
f 515 487 484
f 515 516 521
f 515 521 520
f 523 522 517
f 486 523 517
f 489 523 486
f 517 522 518
f 520 490 487
f 521 524 520
f 524 490 520
f 524 491 490
f 491 525 492
f 524 525 491
f 492 526 493
f 525 526 492
f 489 493 523
f 523 493 526
f 528 527 495
f 495 527 494
f 529 495 496
f 529 528 495
f 530 496 497
f 530 529 496
f 532 531 499
f 531 497 499
f 531 530 497
f 532 533 531
f 535 534 502
f 502 534 501
f 502 494 527
f 502 527 535
f 503 532 499
f 503 505 532
f 505 533 532
f 505 536 533
f 534 507 501
f 537 507 534
f 509 536 505
f 509 538 536
f 539 510 511
f 540 539 511
f 507 540 511
f 537 540 507
f 513 538 509
f 513 541 538
f 539 514 510
f 516 514 539
f 540 516 539
f 542 516 540
f 518 543 519
f 543 544 519
f 544 513 519
f 544 541 513
f 546 521 545
f 521 542 545
f 521 516 542
f 547 546 545
f 549 548 522
f 549 522 523
f 518 522 543
f 522 550 543
f 522 548 550
f 543 550 544
f 546 524 521
f 547 551 546
f 551 524 546
f 551 525 524
f 525 552 526
f 551 552 525
f 523 526 549
f 549 526 552
f 553 527 528
f 553 528 554
f 528 555 554
f 528 529 555
f 556 529 530
f 556 555 529
f 557 530 531
f 557 556 530
f 559 558 533
f 558 531 533
f 558 557 531
f 559 560 558
f 561 534 535
f 562 561 535
f 562 535 527
f 563 562 527
f 553 563 527
f 563 553 554
f 536 564 559
f 536 559 533
f 560 559 565
f 565 559 564
f 566 537 561
f 561 537 534
f 561 562 567
f 561 567 566
f 538 568 564
f 538 564 536
f 565 564 569
f 569 564 568
f 570 540 566
f 566 540 537
f 566 567 571
f 566 571 570
f 541 572 568
f 541 568 538
f 569 568 573
f 573 568 572
f 574 542 570
f 570 542 540
f 570 571 575
f 570 575 574
f 577 576 572
f 541 577 572
f 544 577 541
f 572 576 573
f 574 545 542
f 579 578 547
f 579 547 545
f 575 579 545
f 574 575 545
f 581 580 578
f 581 578 579
f 548 549 580
f 581 548 580
f 582 548 581
f 548 583 550
f 582 583 548
f 544 550 577
f 577 550 583
f 578 551 547
f 551 578 552
f 552 578 580
f 552 580 549
f 586 585 584
f 588 587 584
f 584 587 586
f 588 589 587
f 591 590 555
f 555 590 554
f 592 555 556
f 592 591 555
f 557 584 585
f 592 557 585
f 556 557 592
f 584 557 558
f 584 558 588
f 594 593 560
f 560 593 558
f 593 589 558
f 589 588 558
f 594 595 593
f 596 562 563
f 597 596 563
f 554 597 563
f 590 597 554
f 565 598 594
f 565 594 560
f 595 594 599
f 599 594 598
f 601 600 596
f 600 562 596
f 600 567 562
f 601 596 597
f 569 602 598
f 569 598 565
f 599 598 603
f 603 598 602
f 600 571 567
f 604 571 600
f 606 605 602
f 569 606 602
f 573 606 569
f 602 605 603
f 608 575 607
f 575 604 607
f 575 571 604
f 609 608 607
f 577 610 576
f 610 611 576
f 611 573 576
f 611 606 573
f 608 579 575
f 609 612 608
f 612 579 608
f 612 581 579
f 581 613 582
f 612 613 581
f 582 614 583
f 613 614 582
f 577 583 610
f 583 615 610
f 583 614 615
f 610 615 611
f 617 616 586
f 586 616 585
f 618 586 587
f 618 617 586
f 620 619 589
f 619 587 589
f 619 618 587
f 620 621 619
f 622 590 591
f 622 591 623
f 591 624 623
f 591 592 624
f 592 585 616
f 592 616 624
f 593 620 589
f 593 595 620
f 595 621 620
f 595 625 621
f 627 626 622
f 626 590 622
f 626 597 590
f 627 622 623
f 599 625 595
f 599 628 625
f 629 600 601
f 630 629 601
f 597 630 601
f 626 630 597
f 603 628 599
f 603 631 628
f 632 604 629
f 629 604 600
f 629 630 633
f 629 633 632
f 606 634 605
f 634 635 605
f 635 603 605
f 635 631 603
f 632 607 604
f 637 636 609
f 637 609 607
f 633 637 607
f 632 633 607
f 638 636 637
f 640 639 634
f 606 640 634
f 611 640 606
f 634 639 635
f 636 612 609
f 638 641 636
f 641 612 636
f 641 613 612
f 613 642 614
f 641 642 613
f 614 643 615
f 642 643 614
f 611 615 640
f 640 615 643
f 645 644 617
f 617 644 616
f 646 617 618
f 646 645 617
f 647 618 619
f 647 646 618
f 649 648 621
f 648 619 621
f 648 647 619
f 649 650 648
f 652 651 624
f 624 651 623
f 624 616 644
f 624 644 652
f 625 653 649
f 625 649 621
f 650 649 654
f 654 649 653
f 655 626 627
f 656 655 627
f 623 656 627
f 651 656 623
f 628 657 653
f 628 653 625
f 654 653 658
f 658 653 657
f 659 630 655
f 655 630 626
f 655 656 660
f 655 660 659
f 631 661 657
f 631 657 628
f 658 657 662
f 662 657 661
f 663 633 659
f 659 633 630
f 659 660 664
f 659 664 663
f 666 665 661
f 631 666 661
f 635 666 631
f 661 665 662
f 663 637 633
f 668 667 638
f 668 638 637
f 664 668 637
f 663 664 637
f 669 667 668
f 671 670 639
f 671 639 640
f 635 639 666
f 666 639 670
f 667 641 638
f 669 672 667
f 672 641 667
f 672 642 641
f 642 673 643
f 672 673 642
f 640 643 671
f 671 643 673
f 674 644 645
f 674 645 675
f 645 676 675
f 645 646 676
f 677 646 647
f 677 676 646
f 678 647 648
f 678 677 647
f 648 650 678
f 678 650 679
f 680 651 652
f 681 680 652
f 681 652 644
f 682 681 644
f 674 682 644
f 682 674 675
f 654 684 683
f 679 654 683
f 650 654 679
f 684 685 683
f 686 656 680
f 680 656 651
f 680 681 687
f 680 687 686
f 658 688 684
f 658 684 654
f 685 684 689
f 689 684 688
f 690 660 686
f 686 660 656
f 686 687 691
f 686 691 690
f 693 692 688
f 658 693 688
f 662 693 658
f 688 692 689
f 694 664 690
f 690 664 660
f 690 691 695
f 690 695 694
f 666 696 665
f 696 697 665
f 697 662 665
f 697 693 662
f 694 668 664
f 699 698 669
f 699 669 668
f 695 699 668
f 694 695 668
f 701 700 698
f 701 698 699
f 670 671 700
f 701 670 700
f 702 670 701
f 666 670 696
f 670 703 696
f 670 702 703
f 696 703 697
f 698 672 669
f 672 698 673
f 673 698 700
f 673 700 671
f 706 705 704
f 708 707 704
f 704 707 706
f 710 709 708
f 708 709 707
f 710 711 709
f 713 712 676
f 676 712 675
f 677 704 705
f 713 677 705
f 676 677 713
f 704 677 678
f 704 678 708
f 708 678 679
f 714 708 679
f 710 708 714
f 711 710 715
f 715 710 714
f 717 716 682
f 682 716 681
f 682 675 712
f 682 712 717
f 683 714 679
f 683 685 714
f 685 715 714
f 685 718 715
f 716 687 681
f 719 687 716
f 689 718 685
f 689 720 718
f 719 691 687
f 721 691 719
f 693 722 692
f 722 723 692
f 723 689 692
f 723 720 689
f 725 695 724
f 695 721 724
f 695 691 721
f 726 725 724
f 728 727 722
f 693 728 722
f 697 728 693
f 722 727 723
f 725 699 695
f 726 729 725
f 729 699 725
f 729 701 699
f 701 730 702
f 729 730 701
f 702 731 703
f 730 731 702
f 697 703 728
f 728 703 731
f 733 732 706
f 706 732 705
f 734 706 707
f 734 733 706
f 735 707 709
f 735 734 707
f 709 711 735
f 735 711 736
f 737 712 713
f 738 737 713
f 705 738 713
f 732 738 705
f 715 740 739
f 736 715 739
f 711 715 736
f 740 741 739
f 742 716 717
f 743 742 717
f 743 717 712
f 744 743 712
f 737 744 712
f 744 737 738
f 718 745 740
f 718 740 715
f 741 740 746
f 746 740 745
f 747 719 742
f 742 719 716
f 742 743 748
f 742 748 747
f 720 749 745
f 720 745 718
f 746 745 750
f 750 745 749
f 751 721 747
f 747 721 719
f 747 748 752
f 747 752 751
f 754 753 749
f 720 754 749
f 723 754 720
f 749 753 750
f 751 724 721
f 756 755 726
f 756 726 724
f 752 756 724
f 751 752 724
f 757 755 756
f 759 758 727
f 759 727 728
f 723 727 754
f 754 727 758
f 755 729 726
f 757 760 755
f 760 729 755
f 760 730 729
f 730 761 731
f 760 761 730
f 728 731 759
f 759 731 761
f 762 732 733
f 762 733 763
f 733 764 763
f 733 734 764
f 765 734 735
f 765 764 734
f 767 766 736
f 766 735 736
f 766 765 735
f 767 768 766
f 770 769 762
f 769 732 762
f 769 738 732
f 770 762 763
f 739 767 736
f 739 741 767
f 741 768 767
f 741 771 768
f 772 743 744
f 773 772 744
f 738 773 744
f 769 773 738
f 746 771 741
f 746 774 771
f 775 748 772
f 772 748 743
f 772 773 776
f 772 776 775
f 750 774 746
f 750 777 774
f 778 752 775
f 775 752 748
f 775 776 779
f 775 779 778
f 754 780 753
f 780 781 753
f 781 750 753
f 781 777 750
f 778 756 752
f 783 782 757
f 783 757 756
f 779 783 756
f 778 779 756
f 784 782 783
f 786 785 758
f 786 758 759
f 754 758 780
f 758 787 780
f 758 785 787
f 780 787 781
f 782 760 757
f 784 788 782
f 788 760 782
f 788 761 760
f 759 761 786
f 786 761 788
f 791 790 789
f 793 792 789
f 789 792 791
f 793 794 792
f 796 795 764
f 764 795 763
f 765 789 790
f 796 765 790
f 764 765 796
f 789 765 766
f 789 766 793
f 798 797 768
f 768 797 766
f 797 794 766
f 794 793 766
f 798 799 797
f 801 800 770
f 770 800 769
f 770 763 795
f 770 795 801
f 771 802 798
f 771 798 768
f 799 798 803
f 803 798 802
f 800 773 769
f 804 773 800
f 774 805 802
f 774 802 771
f 803 802 806
f 806 802 805
f 804 776 773
f 807 776 804
f 809 808 805
f 774 809 805
f 777 809 774
f 805 808 806
f 811 779 810
f 779 807 810
f 779 776 807
f 812 811 810
f 781 809 777
f 781 813 809
f 811 783 779
f 815 814 784
f 815 784 783
f 812 815 783
f 811 812 783
f 785 786 814
f 815 785 814
f 816 785 815
f 785 817 787
f 816 817 785
f 781 787 813
f 813 787 817
f 814 788 784
f 788 814 786
f 819 818 791
f 791 818 790
f 820 791 792
f 820 819 791
f 822 821 794
f 821 792 794
f 821 820 792
f 822 823 821
f 825 824 796
f 796 824 795
f 796 790 818
f 796 818 825
f 797 822 794
f 797 799 822
f 799 823 822
f 799 826 823
f 827 800 801
f 828 827 801
f 795 828 801
f 824 828 795
f 803 826 799
f 803 829 826
f 830 804 827
f 827 804 800
f 827 828 831
f 827 831 830
f 806 829 803
f 806 832 829
f 833 807 830
f 830 807 804
f 830 831 834
f 830 834 833
f 809 835 808
f 835 836 808
f 836 806 808
f 836 832 806
f 833 810 807
f 812 810 833
f 834 812 833
f 837 812 834
f 839 838 835
f 809 839 835
f 813 839 809
f 835 838 836
f 837 840 812
f 812 840 815
f 815 841 816
f 840 841 815
f 816 842 817
f 841 842 816
f 813 817 839
f 839 817 842
f 845 844 843
f 843 846 845
f 848 847 819
f 819 847 818
f 820 843 844
f 848 820 844
f 819 820 848
f 849 846 843
f 820 849 843
f 821 849 820
f 821 823 849
f 849 823 850
f 851 824 825
f 852 851 825
f 818 852 825
f 847 852 818
f 826 850 823
f 826 853 850
f 855 854 851
f 854 824 851
f 854 828 824
f 855 851 852
f 829 853 826
f 829 856 853
f 854 831 828
f 857 831 854
f 832 856 829
f 832 858 856
f 857 834 831
f 859 834 857
f 836 858 832
f 836 860 858
f 862 837 861
f 837 859 861
f 837 834 859
f 863 862 861
f 865 864 838
f 865 838 839
f 836 838 860
f 860 838 864
f 862 840 837
f 863 866 862
f 866 840 862
f 866 841 840
f 841 867 842
f 866 867 841
f 839 842 865
f 865 842 867
f 870 869 868
f 844 845 868
f 845 870 868
f 845 871 870
f 873 872 846
f 872 845 846
f 872 871 845
f 873 874 872
f 868 869 848
f 869 847 848
f 869 875 847
f 868 848 844
f 849 873 846
f 849 850 873
f 850 874 873
f 850 876 874
f 875 852 847
f 877 852 875
f 853 876 850
f 853 878 876
f 879 854 855
f 880 879 855
f 852 880 855
f 877 880 852
f 856 878 853
f 856 881 878
f 882 857 879
f 879 857 854
f 879 880 883
f 879 883 882
f 858 881 856
f 858 884 881
f 885 859 882
f 882 859 857
f 882 883 886
f 882 886 885
f 860 884 858
f 860 887 884
f 885 861 859
f 889 888 863
f 889 863 861
f 886 889 861
f 885 886 861
f 891 890 888
f 891 888 889
f 864 865 890
f 891 864 890
f 892 864 891
f 860 864 887
f 887 864 892
f 888 866 863
f 866 888 867
f 867 888 890
f 867 890 865
f 895 894 893
f 897 896 893
f 893 896 895
f 897 898 896
f 900 899 870
f 870 899 869
f 871 893 894
f 900 871 894
f 870 871 900
f 893 871 872
f 893 872 897
f 902 901 874
f 874 901 872
f 901 898 872
f 898 897 872
f 902 903 901
f 899 875 869
f 904 875 899
f 876 905 902
f 876 902 874
f 903 902 906
f 906 902 905
f 904 877 875
f 907 877 904
f 878 908 905
f 878 905 876
f 906 905 909
f 909 905 908
f 907 880 877
f 910 880 907
f 912 911 908
f 878 912 908
f 881 912 878
f 908 911 909
f 910 883 880
f 913 883 910
f 884 912 881
f 884 914 912
f 916 886 915
f 886 913 915
f 886 883 913
f 917 916 915
f 920 919 918
f 919 914 918
f 914 887 918
f 914 884 887
f 916 889 886
f 917 921 916
f 921 889 916
f 921 891 889
f 918 892 920
f 892 921 920
f 892 891 921
f 892 918 887
f 923 922 895
f 895 922 894
f 924 895 896
f 924 923 895
f 926 925 898
f 925 896 898
f 925 924 896
f 926 927 925
f 929 928 900
f 900 928 899
f 900 894 922
f 900 922 929
f 901 926 898
f 931 930 903
f 903 930 901
f 930 927 901
f 927 926 901
f 931 932 930
f 928 904 899
f 933 904 928
f 906 934 931
f 906 931 903
f 932 931 935
f 935 931 934
f 933 907 904
f 936 907 933
f 909 937 934
f 909 934 906
f 935 934 938
f 938 934 937
f 936 910 907
f 939 910 936
f 912 940 911
f 940 941 911
f 911 941 909
f 941 942 909
f 942 937 909
f 937 942 938
f 939 913 910
f 943 913 939
f 945 944 940
f 912 945 940
f 914 945 912
f 940 944 941
f 943 946 913
f 913 946 915
f 948 947 917
f 915 948 917
f 946 948 915
f 919 920 947
f 948 919 947
f 949 919 948
f 914 919 945
f 945 919 949
f 947 921 917
f 921 947 920
f 951 950 923
f 923 950 922
f 952 923 924
f 952 951 923
f 953 924 925
f 953 952 924
f 955 954 927
f 954 925 927
f 954 953 925
f 955 956 954
f 958 957 929
f 929 957 928
f 929 922 950
f 929 950 958
f 930 955 927
f 960 959 932
f 932 959 930
f 959 956 930
f 956 955 930
f 960 961 959
f 957 933 928
f 962 933 957
f 935 963 960
f 935 960 932
f 961 960 964
f 964 960 963
f 962 936 933
f 965 936 962
f 938 966 963
f 938 963 935
f 964 963 967
f 967 963 966
f 965 939 936
f 968 939 965
f 941 969 942
f 966 938 942
f 969 966 942
f 970 966 969
f 967 966 971
f 971 966 970
f 973 943 972
f 943 968 972
f 943 939 968
f 974 973 972
f 976 975 944
f 976 944 945
f 941 944 969
f 944 977 969
f 944 975 977
f 969 977 970
f 970 977 978
f 970 978 971
f 973 946 943
f 974 979 973
f 979 946 973
f 979 948 946
f 948 980 949
f 979 980 948
f 945 949 976
f 976 949 980
f 982 981 951
f 951 981 950
f 983 951 952
f 983 982 951
f 984 952 953
f 984 983 952
f 985 953 954
f 985 984 953
f 987 986 956
f 986 954 956
f 986 985 954
f 987 988 986
f 989 957 958
f 990 989 958
f 950 990 958
f 981 990 950
f 959 987 956
f 992 991 961
f 961 991 959
f 991 988 959
f 988 987 959
f 992 993 991
f 995 994 989
f 994 957 989
f 994 962 957
f 995 989 990
f 964 996 992
f 964 992 961
f 993 992 997
f 997 992 996
f 994 965 962
f 998 965 994
f 967 999 996
f 967 996 964
f 997 996 1000
f 1000 996 999
f 1002 968 1001
f 968 998 1001
f 968 965 998
f 1003 1002 1001
f 1005 1004 999
f 967 1005 999
f 971 1005 967
f 999 1004 1000
f 1002 972 968
f 1007 1006 974
f 1007 974 972
f 1003 1007 972
f 1002 1003 972
f 1009 1008 1006
f 1009 1006 1007
f 975 976 1008
f 1009 975 1008
f 1010 975 1009
f 975 1011 977
f 1010 1011 975
f 977 1012 978
f 1011 1012 977
f 971 978 1005
f 1005 978 1012
f 1006 979 974
f 979 1006 980
f 980 1006 1008
f 980 1008 976
f 1013 981 982
f 1013 982 1014
f 982 1015 1014
f 982 983 1015
f 1016 983 984
f 1016 1015 983
f 1017 984 985
f 1017 1016 984
f 1018 985 986
f 1018 1017 985
f 1020 1019 988
f 1019 986 988
f 1019 1018 986
f 1020 1021 1019
f 1023 1022 1013
f 1022 981 1013
f 1022 990 981
f 1023 1013 1014
f 991 1020 988
f 991 993 1020
f 993 1021 1020
f 993 1024 1021
f 1025 994 995
f 1026 1025 995
f 990 1026 995
f 1022 1026 990
f 997 1024 993
f 997 1027 1024
f 1028 998 1025
f 1025 998 994
f 1025 1026 1029
f 1025 1029 1028
f 1000 1027 997
f 1000 1030 1027
f 1028 1001 998
f 1032 1031 1003
f 1032 1003 1001
f 1029 1032 1001
f 1028 1029 1001
f 1033 1031 1032
f 1005 1034 1004
f 1034 1035 1004
f 1035 1000 1004
f 1035 1030 1000
f 1031 1007 1003
f 1033 1036 1031
f 1036 1007 1031
f 1036 1009 1007
f 1009 1037 1010
f 1036 1037 1009
f 1010 1038 1011
f 1037 1038 1010
f 1011 1039 1012
f 1038 1039 1011
f 1005 1012 1034
f 1012 1040 1034
f 1012 1039 1040
f 1034 1040 1035
f 1043 1042 1041
f 1041 1044 1043
f 1045 1014 1015
f 1045 1015 1046
f 1015 1047 1046
f 1015 1016 1047
f 1048 1016 1017
f 1048 1047 1016
f 1018 1041 1042
f 1048 1018 1042
f 1017 1018 1048
f 1049 1044 1041
f 1018 1049 1041
f 1019 1049 1018
f 1019 1021 1049
f 1049 1021 1050
f 1051 1022 1023
f 1052 1051 1023
f 1052 1023 1014
f 1053 1052 1014
f 1045 1053 1014
f 1053 1045 1046
f 1024 1050 1021
f 1024 1054 1050
f 1055 1026 1051
f 1051 1026 1022
f 1051 1052 1056
f 1051 1056 1055
f 1027 1054 1024
f 1027 1057 1054
f 1058 1029 1055
f 1055 1029 1026
f 1055 1056 1059
f 1055 1059 1058
f 1030 1057 1027
f 1030 1060 1057
f 1058 1032 1029
f 1062 1061 1033
f 1062 1033 1032
f 1059 1062 1032
f 1058 1059 1032
f 1063 1061 1062
f 1035 1060 1030
f 1035 1064 1060
f 1061 1036 1033
f 1063 1065 1061
f 1065 1036 1061
f 1065 1037 1036
f 1037 1066 1038
f 1065 1066 1037
f 1038 1067 1039
f 1066 1067 1038
f 1039 1068 1040
f 1067 1068 1039
f 1035 1040 1064
f 1064 1040 1068
f 1069 1042 1043
f 1044 1069 1043
f 1070 1046 1047
f 1048 1071 1047
f 1047 1071 1070
f 1042 1069 1048
f 1069 1071 1048
f 1069 1072 1071
f 1049 1073 1044
f 1073 1069 1044
f 1073 1072 1069
f 1050 1073 1049
f 1074 1052 1053
f 1046 1070 1053
f 1070 1074 1053
f 1070 1075 1074
f 1071 1077 1076
f 1075 1071 1076
f 1070 1071 1075
f 1077 1071 1072
f 1077 1072 1078
f 1078 1072 1073
f 1078 1073 1079
f 1073 1050 1079
f 1050 1080 1079
f 1050 1054 1080
f 1081 1056 1074
f 1074 1056 1052
f 1082 1074 1075
f 1081 1074 1082
f 1075 1076 1083
f 1075 1083 1082
f 1057 1080 1054
f 1057 1084 1080
f 1085 1059 1081
f 1081 1059 1056
f 1086 1081 1082
f 1085 1081 1086
f 1082 1083 1087
f 1082 1087 1086
f 1060 1084 1057
f 1060 1088 1084
f 1085 1062 1059
f 1062 1085 1063
f 1085 1089 1063
f 1085 1086 1089
f 1086 1087 1090
f 1086 1090 1089
f 1064 1088 1060
f 1064 1091 1088
f 1089 1065 1063
f 1090 1092 1089
f 1092 1065 1089
f 1092 1066 1065
f 1066 1093 1067
f 1092 1093 1066
f 1067 1094 1068
f 1093 1094 1067
f 1064 1068 1091
f 1091 1068 1094
f 1095 1076 1077
f 1078 1096 1077
f 1077 1096 1095
f 1079 1097 1078
f 1078 1097 1096
f 1080 1097 1079
f 1098 1083 1095
f 1095 1083 1076
f 1099 1095 1096
f 1098 1095 1099
f 1100 1096 1097
f 1099 1096 1100
f 1084 1100 1080
f 1080 1100 1097
f 1101 1087 1098
f 1098 1087 1083
f 1102 1098 1099
f 1101 1098 1102
f 1103 1099 1100
f 1102 1099 1103
f 1088 1103 1084
f 1084 1103 1100
f 1104 1090 1101
f 1101 1090 1087
f 1102 1106 1105
f 1104 1102 1105
f 1101 1102 1104
f 1108 1107 1106
f 1102 1108 1106
f 1103 1108 1102
f 1091 1108 1088
f 1088 1108 1103
f 1104 1092 1090
f 1105 1109 1104
f 1109 1092 1104
f 1109 1093 1092
f 1108 1094 1107
f 1094 1109 1107
f 1094 1093 1109
f 1094 1108 1091
f 1110 1105 1106
f 1107 1110 1106
f 1110 1109 1105
f 1109 1110 1107
# 2216 faces, 0 coords texture

# End of File