####
#
# OBJ File Generated by Meshlab
#
####
# Object domain146.obj
#
# Vertices: 554
# Faces: 1122
#
####
v 114.092789 182.316986 118.926353
v 110.573830 174.121017 130.519958
v 114.408836 193.381699 119.004417
v 125.998344 200.511108 129.312607
v 110.955162 198.446289 122.801674
v 118.372040 173.662888 126.470123
v 107.628227 180.487259 121.135056
v 118.311012 201.687546 130.092209
v 118.250427 176.465576 121.100937
v 109.087196 190.465347 124.304024
v 125.189407 184.291611 128.837021
v 109.858116 196.834518 124.742477
v 111.566971 178.155472 119.034882
v 125.338318 180.713867 131.071381
v 107.330383 183.932312 125.732414
v 120.420265 190.744263 133.291901
v 122.376717 174.079376 126.627380
v 109.609825 196.859222 124.002167
v 122.437019 192.794235 122.548531
v 120.391975 196.823715 121.484756
v 114.415421 194.844528 131.219498
v 112.606918 174.149826 131.146713
v 121.969093 198.395996 123.230858
v 112.951950 192.734833 130.265472
v 122.422195 173.395493 128.105850
v 119.359734 180.195953 120.862045
v 125.831108 196.961227 131.931030
v 105.868713 173.601578 128.185150
v 109.203972 179.939499 129.825592
v 124.498627 202.002808 131.373688
v 109.952744 190.858826 126.998070
v 111.353531 190.679947 120.520439
v 105.829506 173.633682 128.152298
v 112.228363 188.577179 119.431183
v 107.892227 178.261307 129.227570
v 125.126549 190.435013 125.630005
v 112.429848 184.259583 131.056976
v 114.525017 198.858795 130.769562
v 123.326027 173.015259 131.175797
v 126.406410 201.878159 131.480347
v 120.403030 174.628464 124.245216
v 123.810631 174.323975 130.926315
v 114.357201 199.602493 121.027824
v 112.595490 182.236374 118.921402
v 114.277794 172.982681 128.826065
v 115.253784 186.361847 118.986130
v 116.302620 199.647385 121.030533
v 118.386292 173.351669 134.026489
v 115.525528 194.847916 131.902130
v 108.245270 184.327988 121.748207
v 106.319855 178.063644 121.881821
v 116.393280 172.712265 131.023361
v 110.932335 198.850815 125.524681
v 107.629471 182.278732 127.292160
v 108.383606 173.724991 126.507408
v 110.597687 176.474716 120.265739
v 105.978745 178.245071 126.820648
v 124.867203 198.663727 125.882317
v 125.258980 192.432419 125.215668
v 118.267921 196.894348 132.971207
v 111.054016 188.257019 120.292244
v 123.147507 173.061661 131.702805
v 110.708313 173.498764 130.060471
v 126.383133 201.841187 131.415787
v 122.564796 188.416916 132.912338
v 118.453484 171.529846 133.959290
v 108.635559 186.276688 122.131172
v 120.110733 175.438614 122.724785
v 116.962410 200.853195 132.115967
v 114.735497 174.057297 132.114365
v 112.523758 176.087051 120.154167
v 114.215393 184.334671 118.900978
v 116.344788 200.934891 128.818558
v 107.437866 178.143921 120.931839
v 120.428139 198.961121 133.393646
v 116.327721 190.755646 119.363754
v 107.433411 185.783005 124.306648
v 125.348526 192.819473 131.855896
v 113.836868 180.213333 118.920097
v 111.733986 176.845596 119.263344
v 123.630005 180.251404 124.488647
v 112.822952 196.859665 120.571640
v 114.442398 192.677353 131.369431
v 113.380791 190.282013 119.107506
v 115.286560 188.399017 118.935455
v 116.309395 182.252563 119.535675
v 122.312759 184.290359 122.684303
v 120.414993 188.399796 133.263596
v 123.696175 178.201965 131.877319
v 109.403908 190.675415 123.077621
v 112.695099 190.702301 130.308502
v 111.389709 199.521225 125.608345
v 108.353981 186.336349 126.521729
v 114.049324 184.307205 131.843307
v 106.385071 180.177628 126.465630
v 118.187386 192.794876 120.234612
v 105.826736 176.246826 127.163795
v 116.320656 199.796417 122.206055
v 105.968666 173.454514 128.355484
v 124.108757 176.149185 130.793137
v 124.304504 178.194153 130.874130
v 111.912041 192.774078 129.140747
v 119.308136 178.159515 120.963448
v 108.866364 188.297821 126.260277
v 120.072014 198.758331 122.141800
v 107.353973 173.634460 129.413177
v 114.975220 182.245728 132.334625
v 116.453537 186.356735 132.689178
v 113.131134 199.201035 121.302711
v 110.471169 173.157455 128.810806
v 111.076248 190.660461 128.709534
v 110.578499 176.094467 130.771301
v 118.331879 175.426224 122.273865
v 120.422668 201.834274 130.021133
v 113.751053 200.028992 128.287704
v 120.566971 178.143799 133.723022
v 116.328888 180.195038 132.983932
v 116.309669 175.303391 122.181747
v 105.329346 178.041824 123.142357
v 123.032089 175.061905 125.262619
v 125.378082 181.815109 130.992783
v 109.288734 186.136200 128.289154
v 110.373360 188.453461 128.799805
v 125.020782 182.251602 128.511566
v 116.320480 200.413589 126.782829
v 120.412689 202.356552 131.392609
v 120.761154 188.399475 121.426071
v 109.754852 194.846603 123.198257
v 109.620308 188.933350 127.361908
v 119.355476 174.481476 133.886597
v 122.477173 182.247665 122.918083
v 118.371964 173.120117 127.978043
v 108.444107 176.005188 129.880493
v 110.460876 173.675552 126.474617
v 104.595879 175.007675 124.357826
v 109.767967 187.162659 121.213333
v 111.797783 196.828903 121.233368
v 122.531303 186.370605 132.870255
v 120.742554 182.283157 121.587730
v 112.513092 176.735413 119.106636
v 114.027199 182.247498 131.915512
v 118.372643 199.877090 124.194733
v 120.410164 172.620407 131.026932
v 126.039642 201.003311 131.836288
v 125.594383 199.793274 127.849968
v 106.959442 182.141922 122.514908
v 116.517258 188.393784 132.614182
v 116.316490 178.143372 133.012772
v 125.190460 191.750061 125.238319
v 110.469849 192.772034 121.832054
v 106.845757 176.012268 128.630890
v 104.383308 175.955002 124.330040
v 119.225647 202.075150 132.646301
v 118.419739 172.825348 134.012390
v 124.093079 184.317810 131.944305
v 112.434364 178.212799 131.388504
v 122.566948 190.685394 133.031830
v 122.385590 178.141754 132.897797
v 109.048134 184.224457 128.536209
v 122.431503 200.969376 133.251190
v 110.294647 180.228043 119.605057
v 114.267738 175.175552 122.092628
v 116.669052 196.893982 132.394562
v 115.559044 201.642563 131.056564
v 114.950317 178.137375 132.383408
v 122.421608 173.084045 128.872620
v 112.419930 199.029251 121.896759
v 116.703827 192.659103 132.527115
v 110.752090 184.243759 130.092743
v 106.383537 174.698807 124.257835
v 119.643562 184.410034 120.857887
v 126.035843 199.062622 131.865402
v 115.457657 193.098312 131.978149
v 108.404694 173.189163 128.782944
v 122.474747 201.222137 128.711258
v 125.050987 186.357742 130.712250
v 105.232697 176.201187 123.052254
v 123.344833 173.425018 129.250259
v 109.396851 192.793533 124.529877
v 111.061127 186.364395 129.990891
v 122.420532 180.244919 122.939445
v 104.313324 175.219666 124.438553
v 110.244682 178.150375 119.682854
v 122.362907 174.991806 124.416626
v 118.212479 190.745010 120.166046
v 114.364388 173.070099 130.981934
v 118.627174 200.968353 132.958771
v 116.177338 198.778748 120.286865
v 123.596153 174.117950 128.604446
v 118.175652 178.084290 133.833221
v 116.639549 194.839371 132.454163
v 109.716492 196.835800 123.239136
v 124.310181 192.805756 132.573593
v 113.840302 174.086105 131.706268
v 120.609703 200.904297 133.624115
v 126.102722 201.271042 130.432892
v 116.350151 186.275452 119.340561
v 120.422501 201.249893 128.698486
v 108.453606 175.384964 122.240891
v 108.016724 184.344513 126.922119
v 126.357956 200.901443 131.032852
v 124.408180 190.784943 124.296143
v 118.195877 184.297928 120.207932
v 125.386147 186.473038 128.641693
v 118.372200 200.033310 125.036110
v 114.502289 196.857269 131.099838
v 123.319725 176.298447 124.666290
v 114.387062 193.481430 119.007217
v 112.032318 194.829941 128.609283
v 110.249878 190.772125 121.710075
v 116.195045 199.385895 120.596436
v 110.069786 198.312561 124.062805
v 112.511574 174.392059 124.155853
v 111.579803 179.850479 119.023880
v 116.710617 172.925751 132.341278
v 107.247406 179.393829 128.131042
v 118.265427 194.839325 132.986343
v 113.547607 178.186630 118.927048
v 118.041115 198.802826 120.757217
v 123.266647 174.614471 126.820404
v 107.490227 173.935883 129.629654
v 127.107277 198.039490 131.002502
v 111.485344 188.026642 129.925644
v 124.949478 184.297470 130.679733
v 109.078362 184.050751 120.890625
v 124.479889 180.329468 126.726936
v 123.007957 179.300507 123.543938
v 119.699127 188.398849 120.826393
v 112.470261 190.837997 119.681229
v 124.128693 186.371384 131.983459
v 125.360901 181.734085 130.985214
v 118.258232 199.444901 121.317627
v 123.548927 178.256454 124.526894
v 114.499962 200.389587 128.945633
v 107.632996 185.577377 125.348198
v 108.538452 173.466202 129.655228
v 119.035362 199.164246 121.297333
v 112.555672 186.361969 130.903549
v 125.570877 198.841858 127.047691
v 105.613823 179.656509 123.204735
v 116.281853 180.196762 119.627014
v 120.771637 190.743057 121.412537
v 112.365837 182.234985 131.162216
v 122.467514 182.250381 132.890930
v 124.393723 200.974442 132.619339
v 123.477356 176.144211 131.952789
v 122.348343 186.350067 122.646034
v 120.399017 184.295776 133.422348
v 105.523956 181.125595 124.433838
v 112.965668 186.334549 118.965889
v 118.214287 194.786911 120.320702
v 125.425163 194.938675 131.883972
v 120.542488 176.094925 133.665405
v 124.599861 182.277298 126.552315
v 115.146652 184.259323 119.048409
v 109.962639 188.691040 121.435631
v 113.847282 176.247131 131.960815
v 109.029930 188.232147 122.754234
v 105.002991 175.940598 125.892410
v 119.091331 178.105316 134.093994
v 125.340607 193.383499 125.522850
v 125.211975 188.194962 126.443695
v 120.426285 192.793701 133.309265
v 109.652809 194.813538 124.290001
v 107.984596 182.245255 121.304276
v 112.533379 180.197372 118.860649
v 112.512115 173.656967 126.468445
v 123.968903 186.320786 124.483154
v 123.767921 184.303940 124.342140
v 112.521164 178.154770 118.843002
v 126.330711 198.988998 128.953079
v 124.224487 176.228073 128.627716
v 122.424095 190.744675 122.565857
v 120.538216 203.022766 133.235062
v 116.338806 194.923080 119.796722
v 122.438759 198.955002 133.281601
v 118.369186 192.856247 133.065765
v 117.350220 201.845200 132.077515
v 125.394493 188.880798 126.806419
v 124.084732 182.326233 131.988358
v 116.320923 173.653534 126.466942
v 124.260818 194.825226 124.251556
v 114.466629 198.768753 120.328934
v 111.705788 196.923981 127.343643
v 109.559570 182.539520 129.522888
v 114.302116 200.136505 126.828812
v 109.409218 192.101440 125.288315
v 110.541542 194.825668 126.358467
v 116.273102 178.146988 119.908440
v 122.433144 202.257553 131.386612
v 120.421600 199.956894 125.050690
v 116.335457 184.291428 119.452827
v 111.875969 184.520874 119.234688
v 111.497223 193.158539 120.874420
v 124.152191 196.855621 124.402412
v 122.383446 188.404007 122.614067
v 108.570396 174.096954 130.012146
v 112.325142 180.195923 131.264847
v 106.494423 180.158051 122.191658
v 118.607933 182.772903 133.896240
v 109.853615 184.468307 129.361359
v 114.963661 182.065079 119.092796
v 120.430679 196.899033 133.323212
v 119.695236 186.349579 120.833626
v 118.100639 178.157578 120.475853
v 122.102989 173.045059 132.062393
v 120.934502 203.272232 133.647186
v 107.342400 184.063049 122.910599
v 123.638618 182.222046 124.337891
v 105.081474 175.431656 123.540901
v 119.162949 198.766907 121.154388
v 110.735695 196.869919 126.109383
v 110.587540 186.300629 120.242111
v 105.489464 181.035538 124.429588
v 121.602615 203.658936 134.008545
v 125.271255 191.391449 131.761124
v 114.963821 180.195175 132.359314
v 114.003471 178.157578 131.982193
v 122.423370 194.846863 133.188339
v 120.423149 200.490402 126.755440
v 116.321053 173.130844 127.981758
v 115.252335 190.066010 118.998787
v 115.463913 201.706161 131.028488
v 114.244934 186.372192 118.820442
v 112.712578 192.772583 119.936111
v 114.358597 193.707336 119.059341
v 107.126816 184.147079 124.319283
v 120.353378 176.311661 122.080368
v 123.808784 199.418121 125.395142
v 120.321960 182.202347 133.588257
v 114.015541 180.195679 131.947372
v 110.058525 186.406662 129.093796
v 121.995224 176.202057 123.129364
v 114.269775 174.398071 124.157135
v 114.459053 188.391281 131.707642
v 122.390427 172.732437 131.031723
v 110.141548 192.807220 126.519089
v 105.493164 181.095459 124.408554
v 116.321144 199.932510 124.191986
v 118.706146 176.063461 133.955170
v 110.610458 178.121613 130.718491
v 118.625183 182.698593 133.927505
v 116.315910 176.093002 133.025375
v 125.731529 194.816956 126.695709
v 111.257439 192.781158 128.280182
v 109.950287 197.920670 123.396812
v 124.499184 201.664703 130.097824
v 119.390526 196.848145 120.866516
v 124.375984 190.793732 132.338287
v 124.794571 180.135056 128.487030
v 124.430794 198.949768 132.728760
v 113.282646 176.774979 119.287476
v 124.190186 188.437561 132.068695
v 124.084084 188.436661 124.389809
v 113.053780 188.275269 119.017258
v 107.096741 178.037292 128.455841
v 108.429459 180.190460 120.545029
v 107.862816 186.587250 124.301910
v 125.722595 196.956390 126.715134
v 120.134293 173.015961 132.648010
v 120.602325 178.158371 121.718010
v 106.816612 182.144302 126.067070
v 125.183731 196.874710 125.641052
v 111.601669 195.791809 127.659157
v 126.151588 194.940994 128.631332
v 109.648552 192.770828 123.170052
v 114.407005 193.455338 119.037926
v 127.130981 198.064484 131.009277
v 112.512497 173.182175 127.997383
v 124.494362 199.943390 126.907959
v 125.563705 188.493820 128.586533
v 119.697205 190.743118 120.832260
v 116.320206 174.437042 124.169968
v 112.515366 199.654327 124.212227
v 115.618736 201.650711 131.065445
v 120.184547 201.608154 133.628510
v 114.415817 199.369370 120.622665
v 122.271698 174.102066 132.611847
v 120.419594 173.743408 126.498833
v 113.852455 198.660492 129.917221
v 107.607758 185.290634 123.174522
v 120.749840 186.350067 121.439064
v 118.284096 198.941727 132.943207
v 110.478333 180.194382 130.479889
v 111.640923 194.839508 121.008560
v 119.102463 180.187164 134.060257
v 112.533989 199.782639 125.059967
v 125.754105 192.802673 126.814636
v 110.616463 196.861969 122.164764
v 118.449005 190.740005 133.089828
v 112.689606 173.321640 130.392441
v 107.529198 179.223755 120.961540
v 118.220985 186.347778 120.157478
v 114.514725 190.724030 131.557449
v 110.460472 174.416504 124.162598
v 116.428139 188.400116 119.348343
v 113.095436 198.861099 128.620239
v 112.522568 173.071625 128.822891
v 110.523407 194.839417 122.026375
v 118.379349 199.584869 122.214523
v 109.462448 187.461197 127.899925
v 119.402176 180.244812 134.056732
v 116.412430 196.861313 120.032585
v 126.293869 196.813217 128.570038
v 114.330330 186.410812 131.847702
v 119.387115 182.256210 120.826035
v 110.513596 182.204742 130.241241
v 125.343491 185.734299 128.306381
v 120.420654 172.900024 128.813583
v 114.272926 188.391998 118.836693
v 108.582367 182.140228 128.636063
v 118.266411 196.953232 120.452873
v 114.269943 173.656799 126.468239
v 124.118835 178.030365 126.290573
v 116.275391 192.801941 119.549782
v 124.494461 200.996063 128.831955
v 120.399826 199.672333 124.224312
v 112.522049 175.104050 122.054718
v 123.927277 176.177216 126.744392
v 111.634003 181.066376 119.042000
v 113.221161 198.770813 120.908173
v 119.402321 176.103302 133.982590
v 115.045692 185.669235 132.207336
v 108.561172 188.253326 124.352127
v 118.419998 186.320511 133.195450
v 118.653587 183.374344 133.952911
v 105.864525 173.596451 127.905891
v 110.883232 199.473709 124.948662
v 108.185516 180.231705 128.884125
v 112.073357 186.347748 119.296173
v 116.555870 190.732513 132.535492
v 113.535110 196.891205 130.137527
v 117.894264 176.098587 133.752686
v 122.436264 196.897583 133.221268
v 108.440094 178.152603 120.474640
v 105.700363 173.807388 127.539505
v 120.409744 186.346420 133.276917
v 125.279190 194.836090 125.573235
v 120.666107 180.197266 121.620987
v 125.657249 190.874725 126.639130
v 114.276329 190.785675 118.941338
v 120.429771 194.844482 133.307327
v 118.154633 180.196548 120.323288
v 115.557808 196.896286 131.838669
v 112.861595 199.697708 126.539711
v 121.755173 202.461655 133.038040
v 114.270317 173.154190 127.989647
v 108.413803 174.511581 124.195732
v 106.514496 176.392715 121.873512
v 114.374756 196.809494 120.109512
v 125.784668 190.620773 128.590714
v 118.370987 201.179749 128.730133
v 118.181236 180.201401 133.779633
v 104.145294 175.543015 124.409142
v 127.127296 198.119766 130.998001
v 118.439278 188.396515 133.127457
v 115.207542 173.074585 131.673569
v 112.593361 188.559189 130.687546
v 114.190964 176.441818 119.998161
v 116.421898 184.269867 132.892303
v 110.319496 182.270660 119.782478
v 125.058807 186.462372 126.786636
v 118.460083 172.527161 133.994263
v 122.950928 178.159363 123.592155
v 114.270103 199.701324 122.198433
v 105.281570 177.858994 125.540344
v 122.357834 176.097977 132.822296
v 112.723976 194.828400 120.285454
v 109.513618 181.561111 129.728165
v 114.271248 199.978836 125.045738
v 118.638611 182.833771 133.945557
v 110.486214 175.234039 122.118980
v 118.230705 188.399445 120.134216
v 120.636292 184.209671 121.424789
v 125.203712 188.460251 130.694397
v 116.720886 198.934784 132.304993
v 122.418953 192.799210 133.158737
v 116.195641 176.547760 120.643211
v 122.825325 176.064316 123.975868
v 112.471619 196.931671 128.608109
v 122.366814 199.342072 124.443344
v 120.744293 194.838745 121.461609
v 114.797493 180.155060 119.122856
v 112.687416 184.220428 118.968872
v 124.366005 192.802124 124.236931
v 122.440651 180.165344 132.912109
v 119.672066 194.833862 120.887703
v 107.317230 176.428818 121.354233
v 110.464264 184.282364 119.962585
v 122.257706 196.852936 122.789146
v 119.422501 178.144379 134.100250
v 105.013939 177.959854 124.353249
v 123.931877 198.684296 124.757042
v 122.204460 178.162796 122.871941
v 115.544975 201.596802 131.043518
v 120.684334 202.895248 133.619019
v 118.381699 172.537247 131.044800
v 125.992371 192.817978 128.533463
v 120.767914 192.792709 121.418350
v 116.322578 172.899292 128.812622
v 118.426880 173.053543 134.008835
v 115.689293 198.976059 131.685287
v 124.098557 201.875641 132.231155
v 122.447090 199.758987 125.122108
v 126.090240 201.743118 131.674759
v 116.418396 174.079605 132.846619
v 122.388252 194.840881 122.609245
v 108.704948 178.054001 129.841461
v 114.449989 178.205063 119.208054
v 114.992424 184.294785 132.283173
v 121.846817 175.394455 123.510719
v 110.693573 199.248154 124.422150
v 120.549767 180.203720 133.698593
v 108.541840 176.405197 121.005325
v 120.422302 173.149643 127.989174
v 118.372253 172.883484 128.808823
v 114.725311 175.981613 132.314545
v 122.472633 201.821777 130.026871
v 106.629089 175.567429 122.587944
v 115.133736 191.348480 119.079315
v 124.544319 178.223312 128.855728
v 122.472923 200.382690 126.794861
v 116.347122 182.244873 132.939590
v 124.381813 196.881302 132.708725
v 108.427322 173.314301 128.039322
v 109.304939 190.707642 125.680855
v 118.450012 202.090347 131.381332
v 122.464912 184.302704 132.866714
v 125.827637 192.964127 130.914444
v 111.689194 182.237518 119.118454
v 124.334709 194.849747 132.652191
v 119.149765 176.503540 121.341774
v 113.276825 194.794159 130.213715
v 110.462921 173.215439 128.005295
v 125.388893 181.680328 131.017288
v 124.663162 184.351364 126.257721
v 119.691170 192.793289 120.849533
v 108.694786 182.143524 120.722000
v 112.524429 176.094101 131.439774
v 123.929489 180.229019 132.047043
v 127.024498 197.605011 131.038849
v 112.253563 198.880020 127.039604
v 118.371490 200.483597 126.758537
v 125.495056 190.681671 130.993835
v 121.598564 203.636230 134.002792
v 118.369629 174.488510 124.189445
v 118.175926 182.246475 120.267807
v 120.250084 174.075211 133.388474
v 126.024529 194.934616 130.837799
v 116.321045 200.036072 125.036415
v 123.343018 174.090393 131.881195
v 114.259598 199.904709 124.188606
v 111.525757 192.150406 120.670029
v 105.692909 173.824051 127.181633
# 554 vertices, 0 vertices normals

f 283 377 421
f 393 171 304
f 44 79 1
f 167 421 109
f 107 523 117
f 29 469 407
f 289 305 241
f 249 299 146
f 225 461 489
f 111 31 337
f 522 370 416
f 255 292 197
f 433 190 340
f 132 379 6
f 306 143 360
f 550 205 543
f 509 289 483
f 82 421 167
f 116 491 513
f 415 185 96
f 283 211 377
f 299 7 265
f 159 122 332
f 27 368 222
f 231 14 535
f 39 62 42
f 390 277 16
f 204 176 475
f 181 81 309
f 472 213 418
f 108 147 425
f 335 431 147
f 373 6 546
f 483 289 241
f 251 537 487
f 194 539 257
f 276 195 160
f 382 87 247
f 390 16 88
f 305 532 103
f 15 200 54
f 262 371 279
f 118 113 9
f 523 460 471
f 542 445 115
f 104 401 122
f 280 155 224
f 509 478 289
f 187 195 75
f 65 353 230
f 367 275 450
f 461 530 293
f 190 260 340
f 358 93 77
f 100 101 521
f 241 443 86
f 204 475 371
f 498 549 365
f 266 79 44
f 346 5 212
f 53 92 542
f 194 517 70
f 17 41 379
f 3 208 325
f 450 275 403
f 297 63 236
f 29 384 341
f 49 163 191
f 354 262 36
f 427 436 97
f 358 424 104
f 344 404 359
f 352 270 140
f 131 309 269
f 83 24 533
f 116 422 491
f 321 516 132
f 499 487 537
f 264 12 288
f 65 88 16
f 403 412 188
f 30 196 64
f 427 436 33
f 377 109 421
f 438 388 344
f 257 156 318
f 496 545 446
f 20 507 490
f 343 148 433
f 370 58 239
f 408 224 204
f 93 235 77
f 308 146 50
f 157 16 263
f 434 75 276
f 357 7 392
f 47 232 400
f 394 83 168
f 123 31 111
f 470 125 286
f 48 340 130
f 238 405 94
f 323 73 8
f 534 369 267
f 441 84 410
f 310 519 177
f 503 505 144
f 217 60 442
f 191 217 277
f 345 337 288
f 266 530 420
f 302 241 86
f 510 423 460
f 350 231 535
f 151 356 35
f 508 341 112
f 154 501 360
f 184 68 41
f 411 429 95
f 471 342 300
f 221 133 297
f 510 460 523
f 69 278 187
f 222 541 368
f 307 315 545
f 407 243 298
f 165 317 148
f 319 303 434
f 230 475 176
f 481 329 504
f 439 181 139
f 164 323 375
f 496 446 195
f 334 162 418
f 404 222 368
f 512 374 387
f 477 263 442
f 83 533 21
f 61 430 34
f 385 468 137
f 192 389 346
f 19 485 282
f 190 386 260
f 347 196 30
f 427 99 33
f 405 108 423
f 435 56 183
f 186 70 457
f 526 337 31
f 273 202 485
f 549 222 404
f 175 347 518
f 434 276 524
f 25 178 189
f 185 372 96
f 501 433 340
f 551 100 42
f 162 118 478
f 154 463 66
f 194 186 22
f 489 293 313
f 312 284 288
f 383 187 75
f 86 443 547
f 65 157 353
f 162 459 418
f 233 419 414
f 104 31 129
f 78 252 549
f 459 478 509
f 407 285 301
f 478 305 289
f 353 544 475
f 10 287 526
f 3 326 367
f 35 429 508
f 257 539 156
f 64 40 505
f 172 201 455
f 506 501 154
f 454 152 259
f 323 375 278
f 447 281 413
f 553 325 294
f 331 141 107
f 61 229 32
f 92 445 542
f 341 156 539
f 111 24 91
f 45 52 500
f 56 80 183
f 180 238 37
f 18 212 12
f 246 101 100
f 320 175 198
f 325 468 385
f 394 91 83
f 419 521 414
f 291 522 320
f 234 73 323
f 243 141 331
f 20 348 487
f 441 322 76
f 321 132 6
f 516 143 409
f 135 436 170
f 253 422 116
f 322 396 76
f 145 271 4
f 137 389 399
f 526 287 337
f 462 408 204
f 15 362 249
f 538 265 357
f 474 304 171
f 163 476 60
f 361 333 494
f 15 54 362
f 396 393 473
f 245 503 144
f 427 221 106
f 306 360 548
f 358 67 258
f 19 282 507
f 184 207 479
f 261 388 438
f 128 192 18
f 427 97 151
f 262 279 36
f 111 91 458
f 102 209 24
f 249 338 299
f 440 388 149
f 492 95 466
f 475 544 451
f 276 351 524
f 184 120 207
f 242 273 499
f 283 188 211
f 427 28 174
f 361 494 439
f 400 232 105
f 117 523 453
f 441 520 3
f 300 248 330
f 543 198 452
f 436 554 33
f 439 139 406
f 295 363 58
f 324 46 410
f 496 307 545
f 190 453 386
f 447 413 369
f 101 231 350
f 85 396 322
f 96 537 251
f 352 218 270
f 386 342 402
f 113 41 68
f 490 493 23
f 249 338 314
f 553 294 150
f 355 324 410
f 96 372 537
f 476 69 383
f 350 124 254
f 350 535 124
f 386 402 491
f 114 518 126
f 483 241 302
f 346 389 5
f 199 514 519
f 112 539 22
f 114 527 8
f 246 89 101
f 17 379 515
f 375 8 527
f 169 37 243
f 520 76 415
f 244 330 248
f 209 284 480
f 33 99 28
f 194 70 186
f 107 510 523
f 5 374 512
f 496 153 307
f 244 248 528
f 513 491 402
f 149 388 59
f 52 154 497
f 138 65 230
f 355 410 84
f 80 140 13
f 366 264 179
f 370 145 4
f 521 101 350
f 394 458 91
f 126 290 274
f 448 134 395
f 384 407 298
f 32 229 553
f 536 408 462
f 311 105 237
f 125 452 73
f 512 387 428
f 331 107 317
f 370 4 416
f 507 295 490
f 126 518 290
f 507 282 295
f 233 226 81
f 260 386 491
f 370 239 145
f 196 201 64
f 252 27 222
f 21 206 49
f 531 524 252
f 274 446 315
f 53 542 284
f 169 180 37
f 317 107 117
f 185 228 372
f 209 480 533
f 245 144 172
f 36 279 440
f 444 476 163
f 186 457 52
f 110 398 534
f 225 489 313
f 478 9 305
f 168 277 390
f 174 236 63
f 54 200 411
f 79 509 483
f 183 13 161
f 328 333 361
f 128 18 264
f 327 308 77
f 209 364 284
f 439 406 26
f 119 51 299
f 448 55 134
f 359 404 239
f 511 479 333
f 400 105 417
f 98 400 142
f 29 341 508
f 308 67 381
f 151 133 221
f 224 176 204
f 496 187 153
f 181 309 131
f 528 248 437
f 431 168 390
f 365 549 404
f 160 446 245
f 192 346 212
f 377 47 43
f 60 303 442
f 62 551 42
f 17 220 184
f 189 419 220
f 104 123 401
f 141 510 107
f 456 390 88
f 412 487 348
f 361 26 103
f 540 280 535
f 313 256 136
f 110 63 391
f 177 449 51
f 316 78 529
f 148 117 190
f 465 339 552
f 465 552 167
f 39 42 189
f 405 335 147
f 124 535 11
f 199 395 472
f 126 274 153
f 300 425 248
f 63 2 391
f 127 296 242
f 219 348 311
f 52 497 500
f 11 224 408
f 9 532 305
f 165 148 343
f 250 324 355
f 70 517 506
f 158 89 246
f 394 335 458
f 168 173 191
f 154 501 48
f 438 344 363
f 29 429 411
f 142 291 205
f 313 293 430
f 501 463 48
f 451 529 498
f 495 323 164
f 23 481 105
f 119 299 240
f 76 185 415
f 485 59 261
f 61 34 229
f 207 419 233
f 502 323 69
f 375 153 278
f 195 446 160
f 470 387 374
f 295 58 493
f 544 316 529
f 328 532 68
f 182 259 554
f 268 536 462
f 253 548 130
f 429 216 95
f 225 538 461
f 155 176 224
f 469 285 407
f 517 343 506
f 344 365 404
f 290 30 446
f 294 385 150
f 65 16 157
f 242 296 273
f 424 10 526
f 39 189 178
f 6 379 546
f 542 115 397
f 114 452 198
f 380 432 397
f 450 283 421
f 427 554 436
f 138 88 65
f 110 391 398
f 209 288 364
f 306 378 62
f 208 415 367
f 128 399 192
f 163 60 217
f 465 43 98
f 550 543 125
f 38 502 444
f 119 314 492
f 465 109 43
f 200 235 93
f 112 341 539
f 367 415 275
f 114 126 527
f 249 362 338
f 286 125 73
f 156 298 318
f 296 354 202
f 293 484 430
f 231 121 14
f 104 129 123
f 108 425 300
f 485 261 438
f 251 487 412
f 424 258 90
f 428 445 92
f 104 122 93
f 98 142 339
f 327 235 15
f 547 26 406
f 299 265 146
f 525 534 134
f 61 32 210
f 493 370 329
f 199 472 56
f 363 344 359
f 450 421 82
f 244 528 280
f 192 212 18
f 301 332 169
f 286 234 445
f 319 442 303
f 467 246 551
f 1 302 72
f 74 392 299
f 3 520 208
f 180 223 238
f 194 257 517
f 276 160 351
f 344 498 365
f 412 348 219
f 446 545 315
f 501 340 48
f 218 509 79
f 430 250 34
f 83 173 168
f 533 480 432
f 159 200 93
f 219 237 232
f 208 520 415
f 366 150 128
f 134 267 395
f 448 519 170
f 531 252 78
f 83 21 173
f 168 191 277
f 398 45 369
f 291 504 522
f 114 198 518
f 440 451 388
f 552 550 470
f 445 234 115
f 334 373 162
f 448 199 519
f 37 238 94
f 202 440 149
f 325 385 294
f 457 70 215
f 266 44 530
f 135 170 310
f 328 68 333
f 506 343 501
f 87 269 268
f 415 96 275
f 172 455 368
f 203 406 171
f 496 195 376
f 133 112 2
f 157 349 353
f 238 458 405
f 371 451 279
f 400 417 142
f 277 217 263
f 319 434 531
f 127 247 296
f 336 306 39
f 340 260 422
f 166 515 409
f 117 453 190
f 336 143 306
f 318 331 317
f 482 19 507
f 473 304 228
f 305 103 443
f 255 197 46
f 186 52 45
f 264 18 12
f 394 168 431
f 74 435 392
f 407 301 169
f 484 1 72
f 257 318 165
f 424 526 104
f 57 95 356
f 119 492 177
f 184 479 511
f 362 95 338
f 286 73 234
f 443 103 26
f 56 140 80
f 403 251 412
f 334 281 373
f 198 175 518
f 296 202 273
f 383 75 303
f 319 531 193
f 215 506 154
f 411 285 469
f 528 155 280
f 413 281 334
f 247 268 354
f 211 232 47
f 10 179 287
f 334 418 213
f 471 426 342
f 501 548 360
f 458 335 405
f 513 402 330
f 119 177 51
f 27 172 368
f 132 409 515
f 436 554 97
f 138 437 88
f 353 349 544
f 120 419 207
f 447 500 321
f 49 444 163
f 473 228 185
f 504 370 522
f 182 454 259
f 159 332 301
f 492 314 95
f 349 316 544
f 333 479 464
f 225 313 67
f 249 314 338
f 70 506 215
f 72 302 255
f 138 230 155
f 137 167 389
f 135 177 152
f 197 85 46
f 133 35 508
f 517 165 343
f 212 428 53
f 497 154 360
f 535 224 11
f 427 28 99
f 81 254 309
f 194 22 539
f 239 404 271
f 48 130 548
f 362 54 95
f 219 311 237
f 243 37 141
f 174 28 236
f 404 368 271
f 380 495 38
f 543 320 198
f 44 484 293
f 486 330 244
f 113 532 9
f 328 103 532
f 447 321 281
f 431 390 456
f 427 55 436
f 484 72 250
f 76 473 185
f 278 153 187
f 188 412 219
f 516 409 132
f 485 149 59
f 183 80 13
f 206 444 49
f 522 416 175
f 481 417 105
f 30 64 505
f 477 193 349
f 283 403 188
f 511 333 68
f 106 221 236
f 354 36 202
f 230 353 475
f 336 409 143
f 496 376 187
f 448 395 199
f 2 112 22
f 518 347 290
f 89 231 101
f 284 542 480
f 488 449 519
f 277 263 16
f 498 529 549
f 382 127 228
f 286 445 387
f 524 27 252
f 202 36 440
f 10 90 179
f 441 410 85
f 118 546 113
f 451 498 388
f 184 511 68
f 309 254 269
f 161 420 530
f 53 428 92
f 441 76 520
f 157 477 349
f 87 268 247
f 495 234 323
f 89 540 231
f 546 41 113
f 398 186 45
f 144 505 40
f 222 368 455
f 154 48 463
f 30 505 503
f 126 153 527
f 72 255 46
f 499 482 487
f 3 208 326
f 64 201 40
f 465 167 109
f 253 116 467
f 308 381 77
f 321 6 281
f 233 414 226
f 536 11 408
f 333 464 494
f 424 90 10
f 20 487 482
f 439 494 181
f 441 229 84
f 254 124 11
f 15 235 200
f 242 499 537
f 468 82 137
f 128 150 399
f 23 493 481
f 154 463 501
f 266 218 79
f 74 514 435
f 111 102 24
f 459 509 218
f 97 57 151
f 382 228 304
f 534 267 134
f 276 75 195
f 535 14 121
f 188 219 211
f 459 71 418
f 240 299 314
f 161 214 420
f 139 87 474
f 380 38 432
f 5 389 167
f 250 72 324
f 378 551 62
f 553 229 325
f 380 234 495
f 214 270 266
f 135 310 177
f 29 508 429
f 193 78 316
f 500 497 516
f 414 350 226
f 273 485 19
f 173 49 191
f 414 521 350
f 229 355 84
f 528 138 155
f 382 247 127
f 51 449 488
f 358 77 67
f 232 237 105
f 187 376 195
f 460 300 471
f 258 136 256
f 151 35 133
f 490 23 105
f 351 172 27
f 206 432 38
f 474 87 382
f 446 30 503
f 366 210 150
f 135 152 454
f 339 205 550
f 308 50 67
f 123 458 223
f 95 314 338
f 485 438 282
f 166 39 178
f 450 82 468
f 197 203 393
f 111 337 345
f 242 537 372
f 472 71 56
f 471 402 342
f 320 522 175
f 269 254 536
f 157 263 477
f 356 216 35
f 69 187 383
f 56 71 140
f 292 203 197
f 453 471 342
f 29 411 469
f 208 367 326
f 427 106 28
f 427 525 55
f 2 22 391
f 155 230 176
f 357 265 7
f 222 455 541
f 313 430 61
f 205 320 543
f 306 548 378
f 393 304 473
f 24 209 533
f 52 215 154
f 227 233 81
f 481 504 417
f 345 288 209
f 148 190 433
f 413 334 213
f 528 437 138
f 395 213 472
f 538 50 265
f 551 246 100
f 253 467 378
f 281 6 373
f 327 249 146
f 44 1 484
f 302 292 255
f 252 222 549
f 90 256 210
f 280 121 535
f 434 303 75
f 280 224 121
f 425 437 248
f 356 95 216
f 262 204 371
f 450 403 283
f 94 405 423
f 133 508 112
f 111 345 102
f 441 325 229
f 428 387 445
f 385 399 150
f 4 271 455
f 451 544 529
f 83 91 24
f 132 515 379
f 29 407 384
f 419 272 521
f 137 82 167
f 377 211 47
f 471 330 402
f 122 123 332
f 417 504 291
f 135 554 436
f 51 488 74
f 327 77 235
f 191 163 217
f 258 256 90
f 147 431 456
f 164 375 323
f 127 242 372
f 441 85 322
f 336 166 409
f 76 396 473
f 247 354 296
f 427 151 221
f 182 135 454
f 43 47 98
f 499 273 19
f 116 513 158
f 298 331 318
f 413 213 267
f 212 53 12
f 274 290 446
f 72 46 324
f 299 392 7
f 299 338 314
f 98 47 400
f 481 493 329
f 272 100 521
f 25 189 220
f 472 418 71
f 447 45 500
f 457 215 52
f 300 342 426
f 159 411 200
f 38 495 502
f 444 502 476
f 459 218 352
f 53 284 312
f 493 58 370
f 317 117 148
f 32 553 150
f 257 165 517
f 443 26 547
f 181 227 81
f 384 298 156
f 53 312 12
f 90 210 366
f 501 48 548
f 254 11 536
f 32 150 210
f 212 512 428
f 220 419 120
f 477 319 193
f 179 288 337
f 502 69 476
f 525 134 55
f 275 251 403
f 484 250 430
f 119 240 314
f 552 470 374
f 373 546 118
f 231 535 121
f 127 372 228
f 391 22 186
f 361 439 26
f 391 186 398
f 159 93 122
f 513 486 158
f 486 540 89
f 434 524 531
f 375 527 153
f 474 382 304
f 538 161 461
f 159 301 285
f 460 108 300
f 162 373 118
f 270 218 266
f 349 193 316
f 297 2 63
f 226 350 254
f 477 442 319
f 73 452 8
f 179 337 287
f 217 442 263
f 456 88 437
f 206 38 444
f 357 183 161
f 189 42 100
f 425 456 437
f 197 396 85
f 139 474 171
f 256 61 210
f 162 478 459
f 495 164 323
f 323 8 375
f 25 17 515
f 139 171 406
f 182 554 135
f 4 201 196
f 172 144 201
f 193 531 78
f 282 363 295
f 81 226 254
f 471 300 330
f 371 475 451
f 189 272 419
f 427 33 554
f 131 269 87
f 4 455 201
f 542 397 480
f 268 262 354
f 423 108 460
f 261 59 388
f 364 288 284
f 67 313 136
f 328 361 103
f 174 63 110
f 388 498 344
f 125 543 452
f 158 486 89
f 470 286 387
f 453 342 386
f 160 245 351
f 464 207 233
f 494 464 227
f 184 220 120
f 74 488 514
f 274 307 153
f 332 180 169
f 479 207 464
f 259 152 466
f 524 351 27
f 177 519 449
f 20 490 105
f 340 422 130
f 310 170 519
f 269 536 268
f 179 264 288
f 352 140 71
f 323 278 69
f 116 158 467
f 345 209 102
f 60 383 303
f 139 181 131
f 118 9 478
f 341 384 156
f 306 62 39
f 51 74 299
f 67 77 381
f 142 417 291
f 535 121 224
f 35 216 429
f 380 397 115
f 79 483 1
f 13 270 214
f 327 146 308
f 495 323 502
f 292 547 203
f 552 374 167
f 492 466 152
f 351 245 172
f 94 423 510
f 318 317 165
f 20 482 507
f 211 219 232
f 223 458 238
f 259 57 97
f 104 526 31
f 461 293 489
f 416 196 347
f 327 15 249
f 497 143 516
f 123 223 180
f 427 33 28
f 380 115 234
f 312 288 12
f 225 67 50
f 435 183 357
f 313 61 256
f 497 360 143
f 494 227 181
f 21 49 173
f 547 406 203
f 492 152 177
f 368 541 455
f 274 315 307
f 290 347 30
f 25 220 17
f 106 236 28
f 462 204 262
f 476 383 60
f 225 50 538
f 358 258 424
f 413 267 369
f 465 98 339
f 197 393 396
f 189 100 272
f 336 39 166
f 147 456 425
f 339 142 205
f 410 46 85
f 113 68 532
f 435 357 392
f 199 56 514
f 253 378 548
f 13 140 270
f 448 170 55
f 513 330 486
f 175 416 347
f 141 94 510
f 206 533 432
f 21 533 206
f 358 104 93
f 34 250 355
f 500 516 321
f 1 483 302
f 279 451 440
f 161 530 461
f 78 549 529
f 241 305 443
f 385 137 399
f 154 66 463
f 174 110 525
f 123 111 458
f 470 550 125
f 205 291 320
f 488 519 514
f 123 129 31
f 538 357 161
f 57 466 95
f 416 4 196
f 146 265 50
f 514 56 435
f 17 184 41
f 523 471 453
f 208 367 468
f 260 491 422
f 20 311 348
f 271 368 455
f 540 535 231
f 486 244 540
f 37 94 141
f 302 86 292
f 122 401 123
f 552 339 550
f 367 450 468
f 464 233 227
f 378 467 551
f 405 147 108
f 20 105 311
f 480 397 432
f 202 149 485
f 436 55 170
f 192 399 389
f 447 369 45
f 298 243 331
f 282 438 363
f 490 295 493
f 534 398 369
f 139 131 87
f 427 174 525
f 459 352 71
f 144 40 201
f 3 367 208
f 253 130 422
f 34 355 229
f 407 169 243
f 525 110 534
f 377 43 109
f 114 8 452
f 203 171 393
f 395 267 213
f 546 379 41
f 90 366 179
f 166 178 25
f 332 123 180
f 441 3 325
f 239 271 145
f 343 433 501
f 258 67 136
f 268 462 262
f 86 547 292
f 366 128 264
f 221 297 236
f 530 44 293
f 244 280 540
f 275 96 251
f 214 266 420
f 161 13 214
f 446 503 245
f 471 300 426
f 297 133 2
f 166 25 515
f 259 97 554
f 363 359 58
f 58 359 239
f 394 431 335
f 5 167 374
f 212 5 512
f 499 19 482
f 208 468 325
f 159 285 411
f 504 329 370
f 151 57 356
f 54 411 95
f 467 158 246
f 259 466 57
# 1122 faces, 0 coords texture

# End of File