####
#
# OBJ File Generated by Meshlab
#
####
# Object domain0622.obj
#
# Vertices: 1120
# Faces: 2236
#
####
v 55.694542 79.788918 119.998421
v 55.788677 79.745346 119.555565
v 55.768364 79.461517 119.996399
v 55.802986 79.741409 120.438599
v 55.624039 80.314430 119.985466
v 55.676731 80.271759 119.479073
v 55.742374 80.285965 120.470001
v 55.659184 80.942917 119.094406
v 55.875313 80.963387 118.786049
v 55.738487 80.601852 119.041344
v 55.574883 80.875755 119.966316
v 55.722588 80.868103 120.474968
v 55.632832 81.453842 119.071533
v 55.839977 81.455154 118.728691
v 55.582153 81.442955 119.959335
v 55.727615 81.449791 120.472008
v 55.679558 81.943207 119.069878
v 55.864876 81.956856 118.743622
v 55.635605 81.954353 119.953606
v 55.792458 81.996132 120.440643
v 55.773556 82.272888 119.034386
v 55.732185 82.297867 119.988922
v 56.265335 77.463493 120.985443
v 56.350166 77.404251 120.528374
v 56.374657 77.138779 120.995079
v 56.389126 77.401001 121.438278
v 56.226368 78.018524 120.083176
v 56.421875 78.037247 119.726677
v 56.355003 77.702660 120.057465
v 56.178318 77.956085 120.965279
v 56.322876 77.941925 121.470108
v 56.081131 78.555527 120.020432
v 56.289768 78.508003 119.487061
v 56.115276 78.526405 120.964027
v 56.297340 78.524323 121.479607
v 56.186562 79.185356 119.085793
v 56.461197 79.216537 118.800385
v 56.337029 78.867332 119.063606
v 55.889668 79.092316 120.007301
v 56.061214 79.111954 120.967888
v 56.293499 79.108566 121.479507
v 56.017586 79.694336 119.061516
v 56.391739 79.710724 118.738556
v 55.994511 79.675392 120.956932
v 56.344009 79.715378 121.468826
v 55.921734 80.259529 118.989182
v 56.317886 80.315788 118.674248
v 56.011280 80.281952 120.965065
v 56.353142 80.273361 121.343018
v 56.270283 80.878036 118.538437
v 56.013176 80.867981 120.960182
v 56.380745 80.864059 121.287598
v 56.240349 81.429916 118.399750
v 56.022221 81.453705 120.952538
v 56.387184 81.453316 121.270630
v 56.200150 82.040710 118.394577
v 56.039452 82.045280 120.924957
v 56.401554 82.027069 121.249161
v 55.929974 82.648468 119.007599
v 56.210484 82.603714 118.499985
v 55.866062 82.659286 120.010178
v 56.179970 82.555740 120.916275
v 56.461048 82.527489 121.205391
v 56.101845 83.191406 119.032043
v 56.313396 83.202492 118.529648
v 56.066902 83.182800 119.987816
v 56.234383 83.225754 120.523499
v 56.314198 82.893135 120.961296
v 56.270245 83.662018 119.054489
v 56.457092 83.678246 118.606140
v 56.258366 83.669144 119.949364
v 56.419811 83.689232 120.415535
v 56.404850 83.790382 119.041519
v 56.401745 83.797729 119.962418
v 56.787075 76.277969 121.056953
v 56.978977 76.253464 120.691467
v 56.944931 75.951424 121.031921
v 56.899921 75.919952 121.987106
v 56.796085 76.265366 121.953857
v 56.962383 76.222336 122.440102
v 56.554913 76.777916 121.022865
v 56.820469 76.729759 120.466599
v 56.689579 76.781189 121.961395
v 56.905308 76.767494 122.468384
v 56.592457 77.390450 120.040024
v 56.950623 77.462494 119.720680
v 56.864799 77.081482 120.024857
v 56.588875 77.331116 121.950592
v 56.933235 77.370895 122.466537
v 56.843864 77.940239 119.436638
v 56.594311 77.937881 121.966812
v 56.939079 77.929398 122.343117
v 56.596359 78.576660 119.059517
v 56.943935 78.715736 118.795815
v 56.888176 78.337425 119.083870
v 56.601898 78.523331 121.957954
v 56.967712 78.519585 122.285973
v 56.871948 79.140411 118.645287
v 56.622406 79.102882 121.941101
v 56.986492 79.095673 122.246101
v 56.852787 79.699623 118.574776
v 56.693974 79.628418 121.886330
v 57.018654 79.520447 122.155334
v 56.842834 80.282890 118.505997
v 56.900326 79.875961 121.901619
v 56.815506 80.315681 121.620056
v 56.811657 80.825943 118.356552
v 56.846851 80.864861 121.477570
v 56.658695 81.509064 118.094048
v 57.007004 81.638817 117.858261
v 56.893776 81.276482 118.098778
v 56.850208 81.453171 121.438560
v 56.584671 82.042709 118.038681
v 56.986057 82.055550 117.766319
v 56.853275 82.038734 121.419441
v 56.587105 82.623894 118.034378
v 56.975700 82.626152 117.737846
v 56.868134 82.611710 121.377678
v 56.627075 83.201370 118.061356
v 56.987534 83.194954 117.765411
v 56.522633 83.221054 120.998207
v 56.923279 83.156334 121.271080
v 56.741829 83.676003 118.137657
v 57.017014 83.586594 117.868774
v 56.701801 83.687325 120.887100
v 57.006050 83.590485 121.141220
v 56.937065 83.762329 118.111389
v 56.850723 83.906555 119.014359
v 56.850250 83.909828 119.988022
v 56.927940 83.778732 120.895920
v 57.423576 71.011185 122.985420
v 57.489285 70.934792 122.514420
v 57.502205 70.660934 122.991653
v 57.554527 70.950562 123.439400
v 57.415039 71.571136 122.088623
v 57.614727 71.578896 121.744469
v 57.509399 71.232536 122.040573
v 57.348633 71.509911 122.965240
v 57.493385 71.495926 123.470406
v 57.348301 72.092209 122.060280
v 57.544456 72.090836 121.655899
v 57.308758 72.079941 122.962975
v 57.468903 72.078308 123.479744
v 57.314762 72.665840 122.043007
v 57.525909 72.648766 121.535194
v 57.293812 72.663971 122.964302
v 57.477531 72.662033 123.474762
v 57.294479 73.249832 122.035645
v 57.474007 73.252380 121.523499
v 57.309166 73.249634 122.957840
v 57.523884 73.266045 123.466141
v 57.283562 73.836098 122.033287
v 57.443417 73.838257 121.507858
v 57.324379 73.835159 122.944298
v 57.530727 73.829857 123.354713
v 57.246738 74.444862 122.013847
v 57.383778 74.398056 121.466248
v 57.332260 74.422432 122.938332
v 57.564026 74.417969 123.310104
v 57.347004 75.080772 121.080238
v 57.615131 75.102829 120.768356
v 57.483192 74.738571 121.035660
v 57.153671 75.013046 122.003799
v 57.316120 75.010071 122.935196
v 57.577774 75.004288 123.269157
v 57.139240 75.595238 121.030434
v 57.474953 75.625664 120.627579
v 57.014610 75.550392 122.015808
v 57.272869 75.599487 122.939522
v 57.574802 75.594391 123.260765
v 57.372387 76.118980 120.353470
v 57.193825 76.161232 122.930450
v 57.563293 76.179588 123.263855
v 57.155888 76.785141 120.024979
v 57.547539 76.889313 119.754097
v 57.441586 76.486771 120.019547
v 57.214638 76.758774 122.936386
v 57.571342 76.751770 123.247398
v 57.441517 77.371674 119.564110
v 57.279602 77.284485 122.886673
v 57.604538 77.176483 123.155571
v 57.430550 77.848045 119.340271
v 57.486328 77.531967 122.901627
v 57.401497 77.971664 122.620071
v 57.425629 78.674095 118.764191
v 57.427990 78.265831 119.036613
v 57.433567 78.519684 122.472763
v 57.415916 79.126823 118.620979
v 57.439667 79.092621 122.384392
v 57.419189 79.697647 118.565781
v 57.430370 79.546524 122.236977
v 57.423973 80.284744 118.521309
v 57.429165 79.955215 121.963936
v 57.426781 80.382240 121.677460
v 57.454094 80.822784 118.366737
v 57.430111 80.868736 121.509598
v 57.333412 81.659225 117.819191
v 57.391281 81.265869 118.085182
v 57.420040 81.453011 121.439522
v 57.411503 82.075676 117.686287
v 57.418888 82.040077 121.432663
v 57.425400 82.625626 117.646690
v 57.415478 82.622353 121.403725
v 57.410824 83.176720 117.683441
v 57.409634 83.176811 121.325722
v 57.323929 83.568245 117.832008
v 57.324459 83.569839 121.169868
v 57.336884 83.761246 118.080559
v 57.351151 83.878296 119.001503
v 57.351826 83.879555 119.997299
v 57.335705 83.767113 120.919525
v 57.956985 69.248932 123.030365
v 58.100395 69.205612 122.531792
v 58.113831 68.931068 123.017715
v 58.099529 68.903252 123.981094
v 57.977932 69.234543 123.952812
v 58.159561 69.196091 124.427673
v 57.981850 69.814873 122.090202
v 58.228302 69.842064 121.808441
v 58.119438 69.505417 122.069099
v 57.788467 69.754448 123.006287
v 57.907890 69.747360 123.951324
v 58.132553 69.753242 124.457458
v 57.853077 70.339714 122.054344
v 58.153824 70.336510 121.729416
v 57.624119 70.290581 123.002777
v 57.851009 70.325783 123.948990
v 58.118515 70.312576 124.347839
v 57.674435 70.871765 122.006233
v 58.056290 70.930847 121.621452
v 57.778217 70.887527 123.931618
v 58.138752 70.898064 124.297363
v 57.998905 71.476074 121.407074
v 57.777859 71.492401 123.955254
v 58.143471 71.491249 124.274124
v 57.877869 72.011757 121.303528
v 57.773808 72.077347 123.958046
v 58.145493 72.077271 124.270126
v 57.846172 72.711349 121.090317
v 58.203682 72.756546 120.784889
v 58.025833 72.376167 121.012779
v 57.790928 72.657814 123.944221
v 58.155609 72.652458 124.255104
v 57.788063 73.256516 121.053391
v 58.154602 73.260574 120.742661
v 57.846512 73.202621 123.909218
v 58.205517 73.156723 124.213188
v 57.750221 73.839569 121.024628
v 58.137402 73.839836 120.719467
v 58.025597 73.537903 123.987000
v 57.866310 73.907600 123.707039
v 57.671295 74.396515 120.981285
v 58.079395 74.456543 120.683853
v 57.973408 74.459587 123.636223
v 58.032902 75.023331 120.571114
v 58.011791 75.009560 123.515099
v 57.992161 75.556244 120.379662
v 58.023045 75.591400 123.454498
v 57.744602 76.211624 120.040932
v 58.107265 76.383865 119.817970
v 58.052792 75.992561 120.084045
v 58.023457 76.179131 123.435471
v 58.023937 76.803459 119.664444
v 58.026325 76.748894 123.378616
v 58.006443 77.363281 119.551613
v 58.016365 77.202606 123.237099
v 58.039917 77.903778 119.379761
v 58.015171 77.611237 122.963974
v 58.012779 78.038254 122.677483
v 57.837715 78.700096 118.844788
v 57.955975 78.345192 119.100906
v 58.014084 78.521164 122.493828
v 57.870617 79.124016 118.752121
v 57.985100 79.078934 122.359238
v 57.882977 79.696579 118.728920
v 57.911919 79.504097 122.204178
v 57.899319 80.286438 118.698112
v 57.973648 79.884857 121.914108
v 58.018356 80.296669 121.580002
v 57.988125 80.883965 118.599274
v 57.960838 80.837990 121.351028
v 57.694206 81.490112 118.044212
v 58.063522 81.394119 118.357803
v 57.893646 81.450645 121.286987
v 57.817959 82.143082 117.802734
v 57.975285 81.774864 118.045868
v 57.882645 82.039284 121.270409
v 57.860977 82.626442 117.764725
v 57.873066 82.615120 121.256706
v 57.813351 83.102089 117.808258
v 57.810780 83.100601 121.191788
v 57.925781 83.408142 118.071510
v 57.616440 83.652664 118.059937
v 57.706593 83.767052 119.001793
v 58.040325 83.587639 119.001923
v 57.706841 83.766037 120.000473
v 58.039608 83.585129 119.995308
v 57.613491 83.650764 120.941223
v 57.918125 83.404251 120.920654
v 58.527870 68.085808 124.003815
v 58.662525 68.025688 123.522041
v 58.721615 67.781151 124.001442
v 58.656200 68.007347 124.485970
v 58.369129 68.611115 123.041168
v 58.674423 68.634453 122.572601
v 58.633392 68.298790 123.018692
v 58.255039 68.558929 124.010086
v 58.662956 68.297890 124.965515
v 58.529465 68.633675 124.917244
v 58.791119 68.641769 125.249855
v 58.370686 69.224419 122.064438
v 58.703953 69.345947 121.801521
v 58.660263 68.997856 122.101334
v 58.403725 69.136703 124.907173
v 58.754818 69.141151 125.248940
v 58.628841 69.763565 121.635674
v 58.445972 69.682899 124.897919
v 58.794945 69.631836 125.202316
v 58.606464 70.327637 121.533356
v 58.631020 70.004738 124.960838
v 58.513035 70.412682 124.680229
v 58.576439 70.867653 121.375229
v 58.591789 70.913826 124.538254
v 58.408936 71.547562 121.085205
v 58.758930 71.675667 120.854828
v 58.651814 71.318504 121.102341
v 58.608345 71.489021 124.455666
v 58.248627 72.053192 120.974068
v 58.675182 72.132736 120.744690
v 58.609005 72.077866 124.433342
v 58.624596 72.681175 120.631088
v 58.611347 72.662682 124.419502
v 58.611332 73.252014 120.578751
v 58.624912 73.236046 124.380165
v 58.608730 73.836220 120.565971
v 58.245995 73.862457 124.029640
v 58.679035 73.781914 124.274544
v 58.603321 74.424736 120.545326
v 58.402451 74.371155 123.921585
v 58.758125 74.237740 124.153633
v 58.600258 75.006760 120.483124
v 58.649998 74.601669 123.905014
v 58.563362 75.058525 123.663048
v 58.635635 75.545494 120.341255
v 58.599838 75.597610 123.532837
v 58.436291 76.364052 119.853401
v 58.548634 76.002533 120.098740
v 58.597794 76.176003 123.460136
v 58.458214 76.782692 119.761520
v 58.579086 76.734062 123.368370
v 58.475182 77.355965 119.712509
v 58.499184 77.159996 123.204521
v 58.502174 77.944206 119.655800
v 58.559566 77.541771 122.916130
v 58.603535 77.952103 122.578445
v 58.161339 78.593536 119.114059
v 58.512062 78.500671 119.531670
v 58.534882 78.483284 122.327927
v 58.234756 79.117760 119.056847
v 58.562298 79.108719 119.521439
v 58.406223 79.005447 122.214752
v 58.256645 79.697105 119.039902
v 58.565678 79.696106 119.517273
v 58.261250 79.640816 121.946144
v 58.531849 79.357903 121.943657
v 58.571346 79.714333 121.510712
v 58.279488 80.285667 119.022789
v 58.574188 80.283142 119.511185
v 58.442230 80.197922 121.284637
v 58.368835 80.839905 118.968452
v 58.621391 80.846123 119.473869
v 58.360954 80.893089 121.024147
v 58.548931 80.551926 120.965996
v 58.621395 80.889900 120.526146
v 58.440571 81.529968 118.709427
v 58.551350 81.183601 119.032822
v 58.279602 81.450470 120.977188
v 58.574192 81.452858 120.488777
v 58.170719 82.092308 118.099442
v 58.481895 82.034340 118.548386
v 58.256634 82.038895 120.960060
v 58.563484 82.039230 120.481842
v 58.214153 82.626541 118.073021
v 58.511684 82.620163 118.544426
v 58.230572 82.617493 120.940231
v 58.525620 82.617111 120.463219
v 58.153839 83.152382 118.107979
v 58.428299 83.119301 118.586815
v 58.138554 83.139565 120.886513
v 58.413086 83.117966 120.404442
v 58.460457 83.270226 119.032036
v 58.456795 83.262833 119.964012
v 58.968208 67.467331 124.030075
v 59.218113 67.422089 123.517677
v 59.240917 67.150681 124.014114
v 59.244877 67.135605 124.979820
v 59.072044 67.464272 124.964027
v 59.289558 67.431168 125.445419
v 58.926624 68.010048 123.031578
v 59.285191 68.083939 122.708786
v 59.223312 67.721680 123.035988
v 58.843834 67.947456 125.004211
v 59.165073 67.998466 125.485092
v 59.196381 68.510712 122.407570
v 59.187893 68.593575 125.580078
v 59.185093 69.295364 121.755463
v 59.188889 68.907745 122.055397
v 59.192497 69.145943 125.489311
v 59.186470 69.749664 121.586250
v 59.216503 69.699821 125.363022
v 59.186035 70.317368 121.474167
v 58.914619 70.291725 124.960594
v 59.280014 70.118484 125.191231
v 59.221420 70.857025 121.341331
v 59.223862 70.514534 124.923866
v 59.153469 70.957405 124.653938
v 59.027275 71.674530 120.853065
v 59.136303 71.313988 121.097397
v 59.186733 71.489113 124.493240
v 59.111755 72.131691 120.743202
v 59.178017 72.077034 124.439247
v 59.160538 72.680550 120.632858
v 59.176888 72.664085 124.432678
v 59.174690 73.251320 120.580391
v 59.173473 73.246368 124.403717
v 59.177029 73.836060 120.566803
v 59.168449 73.802032 124.328438
v 59.176849 74.422295 120.566025
v 59.092697 74.219322 124.183365
v 59.177956 75.010475 120.541962
v 59.149784 74.614662 123.920898
v 59.215458 75.060158 123.656021
v 59.187336 75.592583 120.487953
v 59.182106 75.590263 123.481590
v 58.784164 76.236198 120.094376
v 59.209129 76.147285 120.390091
v 59.155361 76.158615 123.375587
v 58.860020 76.771469 120.036217
v 59.242676 76.762032 120.395920
v 59.061707 76.642174 123.242149
v 58.856071 77.352554 120.031464
v 59.230576 77.326149 120.497673
v 58.857193 77.306206 122.955429
v 59.157898 77.030075 122.967087
v 59.202591 77.388428 122.531525
v 58.849773 77.941666 120.031746
v 59.142754 77.930511 120.523140
v 59.039665 77.858238 122.294456
v 58.863041 78.548691 120.040840
v 59.069004 78.481003 120.553787
v 58.922070 78.538216 121.984428
v 59.124660 78.201363 121.965652
v 59.122440 78.497849 121.485237
v 58.796768 79.109848 120.032967
v 59.101963 78.761055 121.002884
v 58.974125 79.130417 120.996124
v 58.696815 79.037537 121.926674
v 58.744118 79.694786 120.035828
v 58.780590 79.663345 120.979698
v 58.711540 80.277565 120.030441
v 58.645222 80.206131 120.921516
v 58.697163 80.868080 119.999901
v 58.633442 81.527863 119.082047
v 58.712826 81.458458 119.969521
v 58.686916 82.052185 119.047722
v 58.717979 82.039810 119.962448
v 58.686073 82.612595 119.041946
v 58.691658 82.611267 119.958809
v 58.591022 83.085846 119.052078
v 58.587399 83.082634 119.945847
v 59.671104 66.309113 125.028694
v 59.819489 66.252167 124.517990
v 59.836914 65.970154 125.010887
v 59.879429 65.987495 125.965111
v 59.759914 66.314079 125.933289
v 59.963848 66.299683 126.257515
v 59.527374 66.842796 124.037758
v 59.852741 66.885406 123.581291
v 59.804424 66.539894 124.018631
v 59.413551 66.792175 125.017090
v 59.649578 66.822540 125.930305
v 59.919411 66.811012 126.291985
v 59.532349 67.460342 123.058769
v 59.866699 67.598251 122.811005
v 59.830711 67.253990 123.114876
v 59.540112 67.373093 125.926697
v 59.904327 67.386131 126.278717
v 59.783733 68.016541 122.597015
v 59.538815 67.974380 125.944412
v 59.914913 67.961441 126.248199
v 59.803635 68.513855 122.351753
v 59.594612 68.505684 125.901421
v 59.945324 68.389030 126.160675
v 59.670925 69.339737 121.795174
v 59.736382 68.941521 122.063156
v 59.823219 68.752548 125.915268
v 59.734280 69.192680 125.651787
v 59.742016 69.764038 121.643166
v 59.767670 69.702362 125.419807
v 59.760662 70.324272 121.558960
v 59.687309 70.123268 125.206856
v 59.774128 70.904442 121.485130
v 59.734119 70.505104 124.914391
v 59.779877 70.923119 124.583626
v 59.384571 71.543686 121.076767
v 59.812832 71.453491 121.363876
v 59.720127 71.461853 124.352158
v 59.538086 72.053741 120.972801
v 59.918907 72.005592 121.292755
v 59.651669 72.074661 124.287025
v 59.580681 72.757423 120.786797
v 59.761101 72.376144 121.013779
v 59.640648 72.663277 124.270393
v 59.630711 73.261490 120.744408
v 59.631626 73.239517 124.257736
v 59.640495 73.836655 120.729874
v 59.578945 73.733879 124.201492
v 59.642124 74.422096 120.727211
v 59.457092 74.392242 123.961861
v 59.739960 74.105980 123.959541
v 59.847595 74.505081 123.673218
v 59.638126 75.007683 120.733063
v 59.764519 74.998268 123.479538
v 59.630241 75.595436 120.724060
v 59.694065 75.549011 123.301109
v 59.616665 76.172478 120.714066
v 59.569866 76.073784 123.204308
v 59.579613 76.683800 120.743118
v 59.436798 76.727646 122.959251
v 59.690765 76.421616 122.943771
v 59.702641 76.725403 122.475960
v 59.663898 76.996468 121.034111
v 59.499794 77.371773 121.010307
v 59.498665 77.361725 121.995934
v 59.697224 77.009407 121.988251
v 59.324688 77.915993 121.030296
v 59.268559 77.862915 121.930336
v 59.206966 78.422012 121.014153
v 60.346626 64.565315 125.985832
v 60.417339 64.488617 125.514114
v 60.432224 64.214928 125.991608
v 60.483803 64.504524 126.439629
v 60.274670 65.120079 125.069733
v 60.489059 65.114365 124.687569
v 60.423103 64.781372 125.030441
v 60.223103 65.071846 125.971001
v 60.404808 65.049805 126.478035
v 60.046211 65.622604 125.004051
v 60.331806 65.592514 124.463905
v 60.042885 65.613892 125.989105
v 60.314484 65.654327 126.498657
v 60.096889 66.249191 124.030899
v 60.463676 66.332176 123.723969
v 60.380928 65.947594 124.025024
v 60.301029 66.219009 126.604675
v 60.397945 66.796898 123.425911
v 60.335159 66.835594 126.610229
v 60.263943 67.591614 122.809418
v 60.318478 67.214012 123.095749
v 60.356762 67.390930 126.511208
v 60.328270 68.011070 122.636940
v 60.371971 67.961212 126.411797
v 60.361694 68.557976 122.476082
v 60.371120 68.421623 126.249962
v 60.045109 69.174240 122.033958
v 60.446812 69.054405 122.316048
v 60.361248 68.830879 125.973778
v 60.353046 69.242241 125.651276
v 60.164444 69.836136 121.795738
v 60.326096 69.463913 122.041023
v 60.326271 69.679329 125.352974
v 60.213322 70.331490 121.749359
v 60.056545 70.302422 124.981575
v 60.384930 70.085609 125.025826
v 60.405697 70.421394 124.660484
v 60.216164 70.908562 121.724022
v 60.282726 70.836723 124.335541
v 60.222561 71.495239 121.689720
v 60.129040 71.520287 124.032463
v 60.362911 71.197617 123.992760
v 60.420696 71.519714 123.538902
v 60.255707 72.082527 121.644180
v 60.037506 72.074608 123.977257
v 60.342106 72.076897 123.492691
v 59.939289 72.712517 121.091019
v 60.262398 72.645950 121.534805
v 60.014618 72.662895 123.960068
v 60.324303 72.663597 123.483200
v 59.994915 73.256729 121.055275
v 60.307621 73.251266 121.525406
v 59.994926 73.243256 123.944725
v 60.307735 73.248734 123.474609
v 60.012066 73.836647 121.042068
v 60.318344 73.835716 121.519691
v 59.934994 73.784897 123.904892
v 60.258705 73.854195 123.464149
v 60.009090 74.422890 121.045074
v 60.301167 74.417847 121.527710
v 60.230442 74.408211 123.334534
v 60.011444 75.028557 121.065536
v 60.242561 74.966911 121.555214
v 60.159466 74.910454 123.224762
v 59.924450 75.588043 121.061432
v 60.306744 75.271301 122.009445
v 60.178734 75.634216 121.985641
v 60.052647 75.588058 122.961746
v 60.238716 75.231125 122.956772
v 59.858681 76.164902 121.067139
v 60.006874 76.162086 121.994583
v 59.841778 76.098190 122.919891
v 59.771996 76.669220 121.068619
v 59.842201 76.671967 121.972755
v 60.976467 58.693478 126.999092
v 61.078316 58.648800 126.561203
v 61.044266 58.366737 126.997612
v 61.076836 58.645721 127.438324
v 60.927174 59.194447 126.998566
v 61.002365 59.195190 126.523727
v 61.025578 59.190384 127.467270
v 60.882080 59.797768 126.987061
v 60.937157 59.754208 126.474083
v 61.001572 59.772713 127.475204
v 60.927906 60.433308 126.093536
v 61.138859 60.452320 125.772629
v 61.010933 60.091389 126.041283
v 60.841881 60.366192 126.966827
v 60.990425 60.358028 127.477699
v 60.866081 60.957581 126.060730
v 61.070244 60.959862 125.664474
v 60.821869 60.945171 126.963196
v 60.981346 60.943844 127.481392
v 60.821560 61.531639 126.040169
v 61.022449 61.517136 125.523239
v 60.811024 61.529865 126.964272
v 60.993374 61.528046 127.474854
v 60.776012 62.138088 126.014053
v 60.914837 62.095783 125.471947
v 60.820400 62.116100 126.958481
v 61.041752 62.133156 127.466499
v 60.915916 62.775726 125.094025
v 61.155529 62.799583 124.799660
v 61.011013 62.436531 125.043388
v 60.715527 62.707214 126.003860
v 60.829903 62.701607 126.942741
v 61.056057 62.693218 127.343666
v 60.844028 63.303478 125.067413
v 61.110092 63.301174 124.760826
v 60.656799 63.290207 126.001495
v 60.824986 63.289558 126.937134
v 61.089233 63.280430 127.282448
v 60.763477 63.884212 125.048599
v 61.071922 63.880463 124.713287
v 60.533787 63.837002 126.001289
v 60.791039 63.880177 126.939972
v 61.090977 63.874069 127.260803
v 60.596825 64.421951 125.001442
v 60.973125 64.477821 124.601952
v 60.708336 64.441559 126.931351
v 61.078186 64.460182 127.265587
v 60.885612 64.981834 124.349655
v 60.706203 65.047096 126.955849
v 61.073334 65.045830 127.273483
v 60.671795 65.651047 124.024872
v 61.065048 65.756996 123.759674
v 60.957592 65.352776 124.019547
v 60.686142 65.633568 126.968285
v 61.074451 65.631454 127.271454
v 60.957138 66.246750 123.602280
v 60.686005 66.215416 126.962181
v 61.084858 66.203712 127.245079
v 60.952526 66.793404 123.444191
v 60.758202 66.751175 126.910744
v 61.117104 66.630547 127.159447
v 60.632225 67.415672 123.034035
v 61.056442 67.274887 123.266891
v 60.995457 66.992653 126.913261
v 60.904686 67.442352 126.666222
v 60.754337 68.077301 122.790855
v 60.921799 67.700012 123.030098
v 60.944374 67.963402 126.465332
v 60.813774 68.577553 122.711151
v 60.934383 68.426788 126.265923
v 60.850624 69.152084 122.643311
v 60.941628 68.817535 125.958679
v 60.934200 69.190407 125.587311
v 60.515488 69.788345 122.101677
v 60.838871 69.707207 122.542091
v 60.858429 69.566277 125.267822
v 60.579967 70.349396 122.078957
v 60.813442 70.276039 122.561501
v 60.887547 69.906853 124.914673
v 60.845444 70.235626 124.429901
v 60.506779 70.902359 122.064156
v 60.880245 70.577400 123.011398
v 60.752331 70.938370 122.986031
v 60.587780 70.860703 123.953186
v 60.838882 70.531868 123.970268
v 60.468372 71.490547 122.058937
v 60.581165 71.470001 122.989372
v 60.462868 72.080261 122.054886
v 60.511761 72.076302 122.967834
v 60.477829 72.665421 122.041969
v 60.493919 72.664116 122.964561
v 60.493496 73.250183 122.035812
v 60.493504 73.249809 122.964149
v 60.489265 73.835037 122.036034
v 60.472919 73.833389 122.957253
v 60.458332 74.410461 122.039322
v 60.433601 74.406189 122.940613
v 60.393070 74.922424 122.046288
v 60.349369 74.909286 122.927834
v 61.517567 54.635483 128.030945
v 61.634697 54.600475 127.535400
v 61.667377 54.482513 128.030350
v 61.669739 54.526493 128.929260
v 61.556854 54.637058 128.929504
v 61.723770 54.684238 129.209381
v 61.517746 55.166481 127.095512
v 61.745068 55.192326 126.809212
v 61.639584 54.858849 127.070847
v 61.367176 55.105591 128.006790
v 61.457279 55.100502 128.940292
v 61.726421 55.101170 129.416794
v 61.450581 55.683739 127.071518
v 61.696178 55.682728 126.760506
v 61.303371 55.672440 127.999901
v 61.420055 55.670551 128.939270
v 61.665157 55.660404 129.310898
v 61.431515 56.257175 127.067741
v 61.677853 56.260288 126.734543
v 61.279465 56.255993 128.000000
v 61.430523 56.254524 128.932526
v 61.681614 56.250790 129.263870
v 61.394562 56.843815 127.052917
v 61.640011 56.856808 126.661453
v 61.295708 56.840992 128.000320
v 61.450207 56.828403 128.928497
v 61.697712 56.828194 129.237000
v 61.318832 57.449574 127.017830
v 61.545345 57.391357 126.474419
v 61.293438 57.423431 127.996101
v 61.504772 57.354244 128.904068
v 61.743511 57.329117 129.197876
v 61.463772 58.089226 126.087761
v 61.735405 58.120472 125.800682
v 61.608673 57.769718 126.062614
v 61.153706 57.992893 127.007011
v 61.310184 57.992176 127.990326
v 61.487717 58.037300 128.532547
v 61.597347 57.693386 128.956146
v 61.312012 58.594402 126.074554
v 61.674095 58.611988 125.748230
v 61.260925 58.578735 127.960815
v 61.596523 58.615524 128.480804
v 61.274078 59.190178 126.031113
v 61.652950 59.189716 125.718842
v 61.285324 59.185986 127.965057
v 61.625019 59.176968 128.345169
v 61.188976 59.746967 125.982582
v 61.589615 59.804726 125.668976
v 61.290363 59.771915 127.958221
v 61.654751 59.768082 128.287582
v 61.535400 60.365673 125.516281
v 61.287815 60.358006 127.959717
v 61.660416 60.357922 128.272156
v 61.453716 60.861401 125.326775
v 61.290226 60.943439 127.957695
v 61.661575 60.943302 128.270020
v 61.344601 61.577980 125.076363
v 61.714985 61.632652 124.788055
v 61.558407 61.258121 125.035995
v 61.306950 61.523830 127.944191
v 61.671932 61.518143 128.254517
v 61.204693 62.101601 124.997292
v 61.605530 62.160282 124.704216
v 61.367687 62.065422 127.904030
v 61.726921 62.007107 128.189301
v 61.556358 62.714367 124.614861
v 61.565849 62.381947 127.952835
v 61.447990 62.793346 127.675850
v 61.541615 63.290512 124.569420
v 61.525490 63.293114 127.526985
v 61.532921 63.877728 124.518822
v 61.537739 63.871773 127.456841
v 61.504200 64.416039 124.365623
v 61.538692 64.459953 127.440170
v 61.260590 65.077621 124.040909
v 61.623257 65.249870 123.817970
v 61.568794 64.858574 124.084084
v 61.538918 65.045914 127.433929
v 61.540031 65.669083 123.668922
v 61.539513 65.629456 127.414070
v 61.518951 66.224831 123.594734
v 61.533302 66.198685 127.360794
v 61.522049 66.807724 123.525093
v 61.530300 66.652771 127.227943
v 61.535820 67.386391 123.474556
v 61.530796 67.060616 126.960960
v 61.526573 67.482658 126.664200
v 61.140499 68.019920 123.078224
v 61.540306 67.943161 123.415703
v 61.518276 67.947594 126.427513
v 61.177773 68.569633 123.051041
v 61.546394 68.527817 123.515800
v 61.424362 68.364746 126.204239
v 61.188354 69.172943 123.056976
v 61.426365 69.104462 123.552505
v 61.471081 68.711777 125.895927
v 61.421532 69.046036 125.415535
v 61.091602 69.723000 123.048950
v 61.467896 69.402924 124.012062
v 61.301338 69.743774 123.985298
v 61.145260 69.649162 124.934830
v 61.418957 69.353920 124.968491
v 60.994667 70.237091 123.047104
v 61.028877 70.214584 123.968781
v 61.886814 54.597900 127.065872
v 62.222698 54.711880 126.809181
v 62.194595 54.483139 127.094337
v 62.136860 54.333561 128.006302
v 62.131958 54.411427 128.948181
v 62.119186 54.642914 129.437134
v 62.146351 55.115471 126.647034
v 62.204025 54.947567 129.870590
v 62.055954 55.087502 129.823059
v 62.348713 55.086803 129.993668
v 62.128059 55.673492 126.572929
v 62.189514 55.260677 129.884979
v 62.093151 55.699436 129.611496
v 62.118656 56.260338 126.519707
v 62.120892 56.253262 129.479431
v 62.088703 56.804924 126.371811
v 62.127460 56.840042 129.428238
v 61.868427 57.477520 126.059387
v 62.217926 57.619740 125.795815
v 62.156704 57.229763 126.072800
v 62.141994 57.413864 129.377777
v 62.145966 58.044418 125.645325
v 61.793896 58.026318 128.999023
v 62.197346 57.958794 129.271423
v 62.127796 58.602753 125.580963
v 61.950188 58.532036 128.898605
v 62.276680 58.414074 129.150528
v 62.124012 59.186821 125.560181
v 62.171173 58.770878 128.893173
v 62.093410 59.215729 128.611664
v 62.116890 59.772816 125.505608
v 62.119728 59.769875 128.482330
v 62.085930 60.306557 125.344032
v 62.124222 60.357189 128.439102
v 61.844837 60.972519 125.039436
v 62.209785 61.147827 124.818237
v 62.153732 60.752338 125.079010
v 62.124973 60.943951 128.433197
v 62.133778 61.564030 124.671143
v 62.127205 61.522522 128.393265
v 62.123035 62.121895 124.581802
v 62.121441 62.053055 128.293747
v 62.116898 62.702881 124.528984
v 61.849735 62.657749 127.938927
v 62.117493 62.433422 128.115036
v 62.116013 63.288143 124.506340
v 62.118229 62.834690 127.878883
v 62.113937 63.301971 127.643593
v 62.116241 63.870327 124.467209
v 62.117210 63.874489 127.518333
v 62.151649 64.411484 124.341248
v 62.115089 64.459023 127.477524
v 61.952305 65.230057 123.853394
v 62.064644 64.868515 124.098747
v 62.110111 65.041870 127.436356
v 61.974590 65.648201 123.761505
v 62.091335 65.618866 127.383118
v 61.985600 66.218422 123.728401
v 62.038643 66.167908 127.282639
v 61.984512 66.804008 123.728424
v 61.947784 66.630119 127.167236
v 61.975559 67.385506 123.728500
v 62.054157 66.973091 126.892761
v 62.107075 67.381615 126.554298
v 61.920158 67.891418 123.753723
v 61.997269 67.853493 126.267967
v 62.019501 68.209106 124.034889
v 61.828621 68.569023 124.013641
v 61.927223 68.602554 125.000969
v 62.135773 68.281769 124.997452
v 61.733154 68.478043 125.930809
v 62.035374 68.188438 125.955597
v 61.622379 69.069420 124.040459
v 61.619740 69.045792 124.970818
v 62.699459 54.677998 126.782326
v 62.700523 54.446976 127.078690
v 62.701485 54.291862 128.001999
v 62.701942 54.359741 128.961304
v 62.702499 54.570030 129.461884
v 62.692677 55.101486 126.611946
v 62.701408 54.888714 129.917053
v 62.702007 55.087666 130.040970
v 62.702301 55.670486 126.528603
v 62.702606 55.333874 129.948090
v 62.701382 55.776558 129.690857
v 62.701946 56.249256 126.452179
v 62.702263 56.262653 129.548538
v 62.701859 56.734711 126.307648
v 62.701321 56.840740 129.477020
v 62.699638 57.578094 125.764168
v 62.701988 57.169834 126.036621
v 62.694984 57.422112 129.418182
v 62.689922 58.030819 125.620987
v 62.684349 57.980129 129.328979
v 62.692432 58.600895 125.571198
v 62.608761 58.397320 129.183502
v 62.693920 59.186787 125.560631
v 62.665810 58.792675 128.920898
v 62.733082 59.241264 128.666397
v 62.700996 59.772915 125.506477
v 62.702881 59.772057 128.517441
v 62.732788 60.313969 125.352844
v 62.698502 60.355564 128.455032
v 62.543388 61.127930 124.846237
v 62.652428 60.764511 125.095665
v 62.690063 60.941025 128.418549
v 62.623806 61.583355 124.724220
v 62.671352 61.507996 128.368103
v 62.677563 62.129635 124.618919
v 62.579166 61.987957 128.233810
v 62.689667 62.703224 124.576569
v 62.383728 62.657333 127.946701
v 62.692966 62.397209 127.979866
v 62.783386 62.796406 127.688095
v 62.692150 63.288155 124.563568
v 62.710640 63.289478 127.527122
v 62.692924 63.876621 124.545494
v 62.693027 63.870846 127.444931
v 62.703205 64.458755 124.487823
v 62.675732 64.447693 127.385361
v 62.300167 65.102203 124.094383
v 62.725147 65.013306 124.390068
v 62.626106 65.002708 127.295250
v 62.376034 65.637512 124.036224
v 62.758667 65.628044 124.395912
v 62.517139 65.538986 127.222206
v 62.372284 66.218239 124.031563
v 62.746758 66.192192 124.497551
v 62.449352 66.233223 127.010506
v 62.670536 65.907005 126.972710
v 62.785950 66.253624 126.549278
v 62.351353 66.803703 124.046494
v 62.664394 66.797806 124.520401
v 62.279530 66.733147 126.901184
v 62.608009 66.808754 126.466026
v 62.330173 67.398247 124.081131
v 62.569977 67.339348 124.562668
v 62.518391 67.288055 126.259193
v 62.167126 67.884308 124.071289
v 62.597519 67.610970 125.020233
v 62.384689 67.944443 124.985237
v 62.314739 67.885117 125.955452
v 62.561752 67.579582 125.953232
v 63.108757 54.699539 126.850945
v 63.188496 54.508175 127.105431
v 63.265400 54.337875 128.007019
v 63.271500 54.408463 128.949326
v 63.284939 54.644226 129.435028
v 63.208359 55.135731 126.716225
v 63.198452 54.949234 129.869095
v 63.055244 55.088688 129.993759
v 63.263428 55.683842 126.611389
v 63.214535 55.260014 129.884842
v 63.309067 55.697968 129.613831
v 63.280491 56.260906 126.532959
v 63.282063 56.248817 129.467728
v 63.311970 56.809353 126.383369
v 63.262959 56.829468 129.390305
v 63.111710 57.604103 125.844788
v 63.229904 57.249363 126.101395
v 63.212444 57.384262 129.295624
v 63.144642 58.028030 125.752129
v 63.102608 57.911800 129.212234
v 63.156902 58.600460 125.729172
v 62.973095 58.570248 128.961884
v 63.259586 58.285599 128.962936
v 63.370029 58.689655 128.684280
v 63.164898 59.188755 125.718170
v 63.294868 59.185894 128.524277
v 63.226009 59.804722 125.673965
v 63.267582 59.760902 128.407593
v 63.273899 60.367550 125.537224
v 63.219593 60.323082 128.308563
v 62.899998 60.996212 125.078194
v 63.321251 60.911934 125.373695
v 63.155926 60.931610 128.268661
v 63.056763 61.504227 124.968689
v 63.430923 61.461674 125.298004
v 63.092915 61.427891 128.202530
v 63.095161 62.208740 124.790146
v 63.275475 61.828987 125.018250
v 62.972351 62.094841 127.973831
v 63.236378 61.784698 127.950317
v 63.331039 62.172512 127.550941
v 63.131039 62.712894 124.754181
v 63.209160 62.704784 127.380539
v 63.131756 63.288696 124.749214
v 63.147873 63.284859 127.279823
v 63.132515 63.874271 124.747452
v 63.122265 63.861515 127.239830
v 63.136765 64.462891 124.732719
v 63.077801 64.363411 127.201202
v 63.131233 65.038780 124.714668
v 63.026344 65.057800 127.002945
v 63.229599 64.727493 126.959457
v 63.300079 65.058167 126.519211
v 63.095676 65.549835 124.743027
v 62.875862 65.578468 126.920181
v 63.154045 65.573463 126.428032
v 63.179874 65.862434 125.033920
v 63.023464 66.240318 125.008171
v 63.043514 66.245979 126.001984
v 63.201988 65.872154 125.982208
v 62.860252 66.787888 125.032341
v 62.852074 66.784431 125.963501
v 62.730019 67.297562 125.046669
v 62.705555 67.287659 125.934685
v 63.412552 54.616245 127.119354
v 63.692848 54.615711 127.594940
v 63.725426 54.499054 128.039368
v 63.734215 54.524513 128.929672
v 63.679615 54.683167 129.209244
v 63.606853 55.077225 127.001747
v 63.879829 55.075146 127.483231
v 63.344479 55.088524 129.819138
v 63.675518 55.101574 129.415115
v 63.662231 55.767658 126.800484
v 63.815090 55.402737 127.041183
v 63.738068 55.662575 129.312225
v 63.713017 56.273216 126.747932
v 63.715275 56.241901 129.252594
v 63.748520 56.852913 126.678757
v 63.663822 56.745407 129.201202
v 63.432755 57.498489 126.115341
v 63.762108 57.407501 126.541473
v 63.614834 57.441208 129.005081
v 63.816906 57.109970 128.959625
v 63.903381 57.448959 128.525833
v 63.508690 58.021759 126.056877
v 63.822472 58.015350 126.525963
v 63.472881 57.963772 128.922867
v 63.794827 58.032211 128.476822
v 63.530613 58.601112 126.039909
v 63.840317 58.600407 126.516792
v 63.759178 58.597420 128.348389
v 63.553394 59.189503 126.022743
v 63.857727 59.187119 126.507416
v 63.721706 59.172623 128.265442
v 63.632317 59.747173 125.980087
v 63.904488 59.749847 126.472275
v 63.662369 59.675747 128.200378
v 63.670532 60.452957 125.783028
v 63.819683 60.088196 126.038589
v 63.630260 60.381695 128.018173
v 63.819813 60.041824 127.961571
v 63.901512 60.379242 127.526703
v 63.722672 60.957703 125.705902
v 63.530415 60.932541 127.959587
v 63.826107 60.935760 127.477211
v 63.748997 61.532921 125.661797
v 63.434601 61.471161 127.900833
v 63.730667 61.475510 127.421860
v 63.457691 62.192875 125.118477
v 63.697247 62.051506 125.568176
v 63.663307 62.160892 127.025391
v 63.826950 61.802307 126.982246
v 63.822960 62.096142 126.489204
v 63.421429 62.701847 125.067650
v 63.790516 62.355316 126.005051
v 63.695007 62.737679 126.000420
v 63.496803 62.697731 126.968155
v 63.403969 63.287033 125.063591
v 63.590675 63.288128 125.998138
v 63.407982 63.283333 126.936378
v 63.392479 63.874031 125.066154
v 63.539288 63.872486 126.000168
v 63.368378 63.860962 126.928497
v 63.381283 64.458481 125.068581
v 63.495190 64.453796 125.995789
v 63.319630 64.386986 126.908531
v 63.354286 65.031143 125.066193
v 63.426384 65.014397 125.983215
v 63.282860 65.534599 125.068649
v 63.314373 65.541061 125.951912
v 63.858814 54.632568 128.053223
v 63.840538 54.638885 128.929382
v 64.005646 55.118389 128.017365
v 63.940758 55.100471 128.943237
v 63.905117 55.743095 127.091888
v 64.080673 55.676304 128.004379
v 63.973610 55.668625 128.937683
v 63.953712 56.269341 127.071846
v 64.094757 56.255989 127.999985
v 63.954010 56.242722 128.928345
v 63.980511 56.845699 127.059784
v 64.087204 56.836723 127.995987
v 63.905457 56.769169 128.908157
v 63.997719 57.429096 127.041885
v 64.044724 57.404953 127.985229
v 64.007797 58.014282 127.035904
v 64.002647 58.011143 127.961975
v 64.006973 58.599804 127.035416
v 63.973042 58.596542 127.943825
v 64.004456 59.186623 127.034119
v 63.936096 59.171139 127.929733
v 64.011780 59.793251 127.012840
v 63.893375 59.698425 127.907707
v 63.892216 60.431812 126.092888
v 64.006920 60.335911 126.987061
v 63.926865 60.956974 126.069405
v 63.974403 60.932877 126.961067
v 63.928780 61.515186 126.054581
v 63.912922 61.457054 126.930122
v 63.870960 62.011124 126.019585
# 1120 vertices, 0 vertices normals

f 3 2 1
f 1 4 3
f 1 2 5
f 5 2 6
f 4 1 7
f 7 1 5
f 10 9 8
f 10 8 6
f 8 5 6
f 8 11 5
f 7 5 12
f 12 5 11
f 8 9 13
f 13 9 14
f 8 15 11
f 8 13 15
f 12 11 16
f 16 11 15
f 13 14 17
f 17 14 18
f 13 19 15
f 13 17 19
f 16 15 20
f 20 15 19
f 18 21 17
f 17 21 19
f 19 21 22
f 19 22 20
f 25 24 23
f 23 26 25
f 29 28 27
f 29 27 24
f 27 23 24
f 27 30 23
f 26 23 31
f 31 23 30
f 27 28 32
f 32 28 33
f 27 34 30
f 27 32 34
f 31 30 35
f 35 30 34
f 38 37 36
f 38 36 33
f 36 32 33
f 36 39 32
f 32 40 34
f 32 39 40
f 35 34 41
f 41 34 40
f 36 37 42
f 42 37 43
f 42 2 3
f 39 42 3
f 36 42 39
f 39 3 4
f 44 39 4
f 40 39 44
f 41 40 45
f 45 40 44
f 42 43 46
f 46 43 47
f 46 6 2
f 46 2 42
f 7 48 44
f 7 44 4
f 45 44 49
f 49 44 48
f 46 47 10
f 47 9 10
f 47 50 9
f 46 10 6
f 12 51 48
f 12 48 7
f 49 48 52
f 52 48 51
f 50 14 9
f 53 14 50
f 16 54 51
f 16 51 12
f 52 51 55
f 55 51 54
f 53 18 14
f 56 18 53
f 20 57 54
f 20 54 16
f 55 54 58
f 58 54 57
f 21 18 59
f 18 60 59
f 18 56 60
f 61 22 21
f 61 21 59
f 57 20 22
f 61 57 22
f 62 57 61
f 58 57 63
f 63 57 62
f 59 60 64
f 64 60 65
f 59 66 61
f 59 64 66
f 68 62 67
f 62 66 67
f 62 61 66
f 62 68 63
f 64 65 69
f 69 65 70
f 64 71 66
f 64 69 71
f 67 66 72
f 72 66 71
f 70 73 69
f 69 73 71
f 71 73 74
f 71 74 72
f 77 76 75
f 79 78 75
f 75 78 77
f 79 80 78
f 75 76 81
f 81 76 82
f 75 83 79
f 75 81 83
f 80 79 84
f 84 79 83
f 87 86 85
f 87 85 82
f 82 85 81
f 85 24 81
f 24 25 81
f 81 25 26
f 88 81 26
f 83 81 88
f 84 83 89
f 89 83 88
f 85 86 29
f 86 28 29
f 86 90 28
f 85 29 24
f 31 91 88
f 31 88 26
f 89 88 92
f 92 88 91
f 95 94 93
f 90 95 93
f 33 90 93
f 28 90 33
f 35 96 91
f 35 91 31
f 92 91 97
f 97 91 96
f 93 94 38
f 94 37 38
f 94 98 37
f 93 38 33
f 41 99 96
f 41 96 35
f 97 96 100
f 100 96 99
f 98 43 37
f 101 43 98
f 45 102 99
f 45 99 41
f 100 99 103
f 103 99 102
f 101 47 43
f 104 47 101
f 106 105 102
f 45 106 102
f 49 106 45
f 102 105 103
f 104 50 47
f 107 50 104
f 52 106 49
f 52 108 106
f 111 110 109
f 107 111 109
f 53 107 109
f 50 107 53
f 55 108 52
f 55 112 108
f 109 110 113
f 113 110 114
f 113 56 53
f 113 53 109
f 58 112 55
f 58 115 112
f 113 114 116
f 116 114 117
f 116 60 56
f 116 56 113
f 63 115 58
f 63 118 115
f 116 117 119
f 119 117 120
f 119 65 60
f 119 60 116
f 67 121 68
f 121 122 68
f 122 63 68
f 122 118 63
f 119 120 123
f 123 120 124
f 123 70 65
f 123 65 119
f 72 125 121
f 72 121 67
f 122 121 126
f 126 121 125
f 124 127 123
f 123 127 70
f 127 73 70
f 127 128 73
f 73 129 74
f 128 129 73
f 72 74 125
f 74 130 125
f 74 129 130
f 125 130 126
f 133 132 131
f 131 134 133
f 137 136 135
f 137 135 132
f 135 131 132
f 135 138 131
f 134 131 139
f 139 131 138
f 135 136 140
f 140 136 141
f 135 142 138
f 135 140 142
f 139 138 143
f 143 138 142
f 140 141 144
f 144 141 145
f 140 146 142
f 140 144 146
f 143 142 147
f 147 142 146
f 144 145 148
f 148 145 149
f 144 150 146
f 144 148 150
f 147 146 151
f 151 146 150
f 148 149 152
f 152 149 153
f 148 154 150
f 148 152 154
f 151 150 155
f 155 150 154
f 152 153 156
f 156 153 157
f 152 158 154
f 152 156 158
f 155 154 159
f 159 154 158
f 162 161 160
f 162 160 157
f 160 156 157
f 160 163 156
f 156 164 158
f 156 163 164
f 159 158 165
f 165 158 164
f 160 161 166
f 166 161 167
f 160 168 163
f 160 166 168
f 163 169 164
f 163 168 169
f 165 164 170
f 170 164 169
f 166 167 77
f 167 76 77
f 167 171 76
f 166 77 78
f 166 78 168
f 168 78 80
f 172 168 80
f 169 168 172
f 170 169 173
f 173 169 172
f 176 175 174
f 171 176 174
f 82 171 174
f 76 171 82
f 84 177 172
f 84 172 80
f 173 172 178
f 178 172 177
f 174 175 87
f 175 86 87
f 175 179 86
f 174 87 82
f 89 180 177
f 89 177 84
f 178 177 181
f 181 177 180
f 179 90 86
f 182 90 179
f 184 183 180
f 89 184 180
f 92 184 89
f 180 183 181
f 186 185 95
f 95 185 94
f 95 90 182
f 95 182 186
f 97 184 92
f 97 187 184
f 185 98 94
f 188 98 185
f 100 187 97
f 100 189 187
f 188 101 98
f 190 101 188
f 103 189 100
f 103 191 189
f 190 104 101
f 192 104 190
f 194 193 105
f 194 105 106
f 103 105 191
f 191 105 193
f 192 107 104
f 195 107 192
f 108 194 106
f 108 196 194
f 198 197 111
f 111 197 110
f 111 107 195
f 111 195 198
f 112 196 108
f 112 199 196
f 197 114 110
f 200 114 197
f 115 199 112
f 115 201 199
f 200 117 114
f 202 117 200
f 118 201 115
f 118 203 201
f 202 120 117
f 204 120 202
f 122 203 118
f 122 205 203
f 204 124 120
f 206 124 204
f 126 205 122
f 126 207 205
f 206 208 124
f 124 208 127
f 127 209 128
f 208 209 127
f 128 210 129
f 209 210 128
f 129 211 130
f 210 211 129
f 126 130 207
f 207 130 211
f 214 213 212
f 216 215 212
f 212 215 214
f 216 217 215
f 220 219 218
f 220 218 213
f 218 212 213
f 218 221 212
f 212 222 216
f 212 221 222
f 217 216 223
f 223 216 222
f 218 219 224
f 224 219 225
f 218 226 221
f 218 224 226
f 221 227 222
f 221 226 227
f 223 222 228
f 228 222 227
f 224 225 229
f 229 225 230
f 229 132 133
f 226 229 133
f 224 229 226
f 226 133 134
f 231 226 134
f 227 226 231
f 228 227 232
f 232 227 231
f 229 230 137
f 230 136 137
f 230 233 136
f 229 137 132
f 139 234 231
f 139 231 134
f 232 231 235
f 235 231 234
f 233 141 136
f 236 141 233
f 143 237 234
f 143 234 139
f 235 234 238
f 238 234 237
f 241 240 239
f 236 241 239
f 145 236 239
f 141 236 145
f 147 242 237
f 147 237 143
f 238 237 243
f 243 237 242
f 239 240 244
f 244 240 245
f 244 149 145
f 244 145 239
f 151 246 242
f 151 242 147
f 243 242 247
f 247 242 246
f 244 245 248
f 248 245 249
f 248 153 149
f 248 149 244
f 251 250 246
f 151 251 246
f 155 251 151
f 246 250 247
f 248 249 252
f 252 249 253
f 252 157 153
f 252 153 248
f 159 251 155
f 159 254 251
f 252 253 162
f 253 161 162
f 253 255 161
f 252 162 157
f 165 254 159
f 165 256 254
f 255 167 161
f 257 167 255
f 170 256 165
f 170 258 256
f 261 260 259
f 257 261 259
f 171 257 259
f 167 257 171
f 173 258 170
f 173 262 258
f 259 260 176
f 260 175 176
f 260 263 175
f 259 176 171
f 178 262 173
f 178 264 262
f 263 179 175
f 265 179 263
f 181 264 178
f 181 266 264
f 265 182 179
f 267 182 265
f 269 268 183
f 269 183 184
f 181 183 266
f 266 183 268
f 271 270 186
f 186 270 185
f 186 182 267
f 186 267 271
f 187 269 184
f 187 272 269
f 270 188 185
f 273 188 270
f 189 272 187
f 189 274 272
f 273 190 188
f 275 190 273
f 191 274 189
f 191 276 274
f 275 192 190
f 277 192 275
f 279 278 193
f 279 193 194
f 191 193 276
f 276 193 278
f 277 195 192
f 280 195 277
f 196 279 194
f 196 281 279
f 282 197 198
f 283 282 198
f 195 283 198
f 280 283 195
f 199 281 196
f 199 284 281
f 286 285 282
f 285 197 282
f 285 200 197
f 286 282 283
f 201 284 199
f 201 287 284
f 285 202 200
f 288 202 285
f 203 287 201
f 203 289 287
f 288 204 202
f 290 204 288
f 205 289 203
f 205 291 289
f 293 206 292
f 206 290 292
f 206 204 290
f 295 294 293
f 295 293 292
f 297 296 294
f 297 294 295
f 299 298 296
f 299 296 297
f 299 291 298
f 291 207 298
f 291 205 207
f 293 208 206
f 208 293 209
f 209 293 294
f 209 294 210
f 210 294 296
f 210 296 211
f 211 296 298
f 211 298 207
f 302 301 300
f 300 303 302
f 306 305 304
f 306 304 301
f 304 300 301
f 304 307 300
f 303 300 308
f 300 309 308
f 300 307 309
f 309 310 308
f 313 312 311
f 313 311 305
f 305 311 304
f 311 213 304
f 213 214 304
f 304 214 215
f 304 215 307
f 307 215 217
f 314 307 217
f 309 307 314
f 310 309 315
f 315 309 314
f 311 312 220
f 312 219 220
f 312 316 219
f 311 220 213
f 223 317 314
f 223 314 217
f 315 314 318
f 318 314 317
f 316 225 219
f 319 225 316
f 321 320 317
f 223 321 317
f 228 321 223
f 317 320 318
f 319 230 225
f 322 230 319
f 232 321 228
f 232 323 321
f 326 325 324
f 322 326 324
f 233 322 324
f 230 322 233
f 235 323 232
f 235 327 323
f 324 325 328
f 328 325 329
f 328 236 233
f 328 233 324
f 238 327 235
f 238 330 327
f 328 329 241
f 329 240 241
f 329 331 240
f 328 241 236
f 243 330 238
f 243 332 330
f 331 245 240
f 333 245 331
f 247 332 243
f 247 334 332
f 333 249 245
f 335 249 333
f 251 336 250
f 336 337 250
f 337 247 250
f 337 334 247
f 335 253 249
f 338 253 335
f 254 339 336
f 254 336 251
f 337 336 340
f 340 336 339
f 338 255 253
f 341 255 338
f 343 342 339
f 254 343 339
f 256 343 254
f 339 342 340
f 341 257 255
f 344 257 341
f 258 343 256
f 258 345 343
f 347 346 261
f 261 346 260
f 261 257 344
f 261 344 347
f 262 345 258
f 262 348 345
f 346 263 260
f 349 263 346
f 264 348 262
f 264 350 348
f 349 265 263
f 351 265 349
f 266 350 264
f 266 352 350
f 351 267 265
f 353 267 351
f 355 354 268
f 355 268 269
f 266 268 352
f 352 268 354
f 356 270 271
f 357 356 271
f 267 357 271
f 353 357 267
f 272 355 269
f 272 358 355
f 359 273 356
f 356 273 270
f 356 357 360
f 356 360 359
f 274 358 272
f 274 361 358
f 362 275 359
f 359 275 273
f 359 360 363
f 359 363 362
f 366 365 364
f 365 361 364
f 361 276 364
f 361 274 276
f 367 277 362
f 362 277 275
f 362 363 368
f 362 368 367
f 366 364 278
f 279 366 278
f 369 366 279
f 278 364 276
f 370 280 367
f 367 280 277
f 367 368 371
f 367 371 370
f 374 373 372
f 373 369 372
f 369 281 372
f 369 279 281
f 376 375 370
f 375 280 370
f 375 283 280
f 376 370 371
f 374 372 377
f 374 377 378
f 284 377 281
f 281 377 372
f 379 285 286
f 380 379 286
f 283 380 286
f 375 380 283
f 378 377 381
f 378 381 382
f 287 381 284
f 284 381 377
f 383 288 379
f 379 288 285
f 379 380 384
f 379 384 383
f 382 381 385
f 382 385 386
f 289 385 287
f 287 385 381
f 387 290 383
f 383 290 288
f 383 384 388
f 383 388 387
f 386 385 389
f 386 389 390
f 291 389 289
f 289 389 385
f 387 292 290
f 388 391 387
f 391 292 387
f 391 295 292
f 295 392 297
f 391 392 295
f 389 299 390
f 299 392 390
f 299 297 392
f 299 389 291
f 395 394 393
f 397 396 393
f 393 396 395
f 397 398 396
f 401 400 399
f 401 399 394
f 394 399 393
f 399 301 393
f 301 302 393
f 393 302 303
f 402 393 303
f 397 393 402
f 398 397 403
f 403 397 402
f 399 400 306
f 400 305 306
f 400 404 305
f 399 306 301
f 308 402 303
f 308 310 402
f 310 403 402
f 310 405 403
f 407 406 313
f 313 406 312
f 313 305 404
f 313 404 407
f 315 405 310
f 315 408 405
f 406 316 312
f 409 316 406
f 318 408 315
f 318 410 408
f 409 319 316
f 411 319 409
f 321 412 320
f 412 413 320
f 413 318 320
f 413 410 318
f 411 322 319
f 414 322 411
f 416 415 412
f 321 416 412
f 323 416 321
f 412 415 413
f 418 417 326
f 326 417 325
f 326 322 414
f 326 414 418
f 327 416 323
f 327 419 416
f 417 329 325
f 420 329 417
f 330 419 327
f 330 421 419
f 420 331 329
f 422 331 420
f 332 421 330
f 332 423 421
f 422 333 331
f 424 333 422
f 334 423 332
f 334 425 423
f 424 335 333
f 426 335 424
f 337 425 334
f 337 427 425
f 426 338 335
f 428 338 426
f 340 427 337
f 340 429 427
f 428 341 338
f 430 341 428
f 432 431 342
f 432 342 343
f 340 342 429
f 429 342 431
f 430 344 341
f 433 344 430
f 345 432 343
f 345 434 432
f 435 346 347
f 436 435 347
f 344 436 347
f 433 436 344
f 348 434 345
f 348 437 434
f 438 349 435
f 435 349 346
f 435 436 439
f 435 439 438
f 350 437 348
f 350 440 437
f 441 351 438
f 438 351 349
f 438 439 442
f 438 442 441
f 445 444 443
f 444 440 443
f 440 352 443
f 440 350 352
f 446 353 441
f 441 353 351
f 441 442 447
f 441 447 446
f 445 443 354
f 355 445 354
f 448 445 355
f 354 443 352
f 449 357 446
f 446 357 353
f 446 447 450
f 446 450 449
f 453 452 451
f 452 448 451
f 448 358 451
f 448 355 358
f 454 360 449
f 449 360 357
f 449 450 455
f 456 449 455
f 454 449 456
f 456 455 453
f 451 456 453
f 457 456 451
f 361 457 358
f 358 457 451
f 458 363 454
f 454 363 360
f 459 454 456
f 458 454 459
f 366 459 365
f 459 457 365
f 459 456 457
f 365 457 361
f 460 368 458
f 458 368 363
f 461 458 459
f 460 458 461
f 369 461 366
f 366 461 459
f 462 371 460
f 460 371 368
f 374 462 373
f 462 461 373
f 462 460 461
f 373 461 369
f 463 375 376
f 371 462 376
f 462 463 376
f 462 464 463
f 378 464 374
f 374 464 462
f 465 380 463
f 463 380 375
f 466 463 464
f 465 463 466
f 382 466 378
f 378 466 464
f 467 384 465
f 465 384 380
f 468 465 466
f 467 465 468
f 386 468 382
f 382 468 466
f 469 388 467
f 467 388 384
f 470 467 468
f 469 467 470
f 390 470 386
f 386 470 468
f 469 391 388
f 391 469 392
f 392 469 470
f 392 470 390
f 473 472 471
f 475 474 471
f 471 474 473
f 475 476 474
f 479 478 477
f 479 477 472
f 477 471 472
f 477 480 471
f 471 481 475
f 471 480 481
f 476 475 482
f 482 475 481
f 485 484 483
f 485 483 478
f 478 483 477
f 483 394 477
f 394 395 477
f 477 395 396
f 477 396 480
f 480 396 398
f 486 480 398
f 481 480 486
f 482 481 487
f 487 481 486
f 483 484 401
f 484 400 401
f 484 488 400
f 483 401 394
f 403 489 486
f 403 486 398
f 487 486 490
f 490 486 489
f 488 404 400
f 491 404 488
f 405 492 489
f 405 489 403
f 490 489 493
f 493 489 492
f 495 494 407
f 407 494 406
f 407 404 491
f 407 491 495
f 497 496 492
f 405 497 492
f 408 497 405
f 492 496 493
f 494 409 406
f 498 409 494
f 410 497 408
f 410 499 497
f 498 411 409
f 500 411 498
f 413 499 410
f 413 501 499
f 500 414 411
f 502 414 500
f 504 503 415
f 504 415 416
f 413 415 501
f 501 415 503
f 505 417 418
f 506 505 418
f 414 506 418
f 502 506 414
f 419 504 416
f 419 507 504
f 508 420 505
f 505 420 417
f 505 506 509
f 505 509 508
f 421 507 419
f 421 510 507
f 512 511 508
f 511 420 508
f 511 422 420
f 512 508 509
f 423 510 421
f 423 513 510
f 511 424 422
f 514 424 511
f 425 513 423
f 425 515 513
f 514 426 424
f 516 426 514
f 427 515 425
f 427 517 515
f 516 428 426
f 518 428 516
f 521 520 519
f 520 517 519
f 517 429 519
f 517 427 429
f 518 430 428
f 522 430 518
f 521 519 431
f 432 521 431
f 523 521 432
f 431 519 429
f 522 433 430
f 524 433 522
f 434 523 432
f 434 525 523
f 524 436 433
f 526 436 524
f 437 525 434
f 437 527 525
f 526 439 436
f 528 439 526
f 531 530 529
f 530 527 529
f 527 440 529
f 527 437 440
f 533 442 532
f 442 528 532
f 442 439 528
f 535 534 533
f 535 533 532
f 534 535 531
f 534 531 529
f 445 534 529
f 444 445 529
f 444 529 440
f 536 447 533
f 533 447 442
f 537 533 534
f 536 533 537
f 448 537 445
f 445 537 534
f 538 450 536
f 536 450 447
f 453 538 452
f 538 537 452
f 538 536 537
f 452 537 448
f 538 455 450
f 455 538 453
f 541 540 539
f 539 542 541
f 545 544 543
f 545 543 540
f 543 539 540
f 543 546 539
f 542 539 547
f 547 539 546
f 543 544 548
f 548 544 549
f 543 550 546
f 543 548 550
f 547 546 551
f 551 546 550
f 554 553 552
f 554 552 549
f 549 552 548
f 552 472 548
f 472 473 548
f 548 473 474
f 548 474 550
f 474 476 550
f 476 551 550
f 476 555 551
f 552 553 479
f 553 478 479
f 553 556 478
f 552 479 472
f 482 555 476
f 482 557 555
f 559 558 485
f 485 558 484
f 485 478 556
f 485 556 559
f 487 557 482
f 487 560 557
f 558 488 484
f 561 488 558
f 490 560 487
f 490 562 560
f 561 491 488
f 563 491 561
f 493 562 490
f 493 564 562
f 565 494 495
f 566 565 495
f 491 566 495
f 563 566 491
f 568 567 496
f 568 496 497
f 493 496 564
f 564 496 567
f 570 569 565
f 569 494 565
f 569 498 494
f 570 565 566
f 499 568 497
f 499 571 568
f 569 500 498
f 572 500 569
f 575 574 573
f 574 571 573
f 571 501 573
f 571 499 501
f 572 502 500
f 576 502 572
f 575 573 503
f 504 575 503
f 577 575 504
f 503 573 501
f 576 506 502
f 578 506 576
f 581 580 579
f 580 577 579
f 577 507 579
f 577 504 507
f 578 509 506
f 582 509 578
f 581 579 583
f 581 583 584
f 510 583 507
f 507 583 579
f 585 511 512
f 586 585 512
f 509 586 512
f 582 586 509
f 584 583 587
f 584 587 588
f 513 587 510
f 510 587 583
f 589 514 585
f 585 514 511
f 585 586 590
f 585 590 589
f 588 587 591
f 588 591 592
f 515 591 513
f 513 591 587
f 593 516 589
f 589 516 514
f 589 590 594
f 589 594 593
f 592 591 595
f 592 595 596
f 517 595 515
f 515 595 591
f 597 518 593
f 593 518 516
f 593 594 598
f 593 598 597
f 596 595 520
f 521 596 520
f 599 596 521
f 520 595 517
f 600 522 597
f 597 522 518
f 597 598 601
f 597 601 600
f 523 599 521
f 523 602 599
f 603 524 600
f 600 524 522
f 600 601 604
f 605 600 604
f 603 600 605
f 607 606 605
f 607 605 604
f 607 602 606
f 602 525 606
f 602 523 525
f 608 526 603
f 603 526 524
f 609 603 605
f 608 603 609
f 610 605 606
f 609 605 610
f 527 610 525
f 525 610 606
f 611 528 608
f 608 528 526
f 612 608 609
f 611 608 612
f 531 612 530
f 612 610 530
f 612 609 610
f 530 610 527
f 611 532 528
f 532 611 535
f 535 611 612
f 535 612 531
f 615 614 613
f 613 616 615
f 613 614 617
f 617 614 618
f 616 613 619
f 619 613 617
f 617 618 620
f 620 618 621
f 619 617 622
f 622 617 620
f 625 624 623
f 625 623 621
f 623 620 621
f 623 626 620
f 622 620 627
f 627 620 626
f 623 624 628
f 628 624 629
f 623 630 626
f 623 628 630
f 627 626 631
f 631 626 630
f 628 629 632
f 632 629 633
f 628 634 630
f 628 632 634
f 631 630 635
f 635 630 634
f 632 633 636
f 636 633 637
f 632 638 634
f 632 636 638
f 635 634 639
f 639 634 638
f 642 641 640
f 642 640 637
f 640 636 637
f 640 643 636
f 636 644 638
f 636 643 644
f 639 638 645
f 645 638 644
f 640 641 646
f 646 641 647
f 640 648 643
f 640 646 648
f 643 649 644
f 643 648 649
f 645 644 650
f 650 644 649
f 646 647 651
f 651 647 652
f 646 653 648
f 646 651 653
f 648 654 649
f 648 653 654
f 650 649 655
f 655 649 654
f 651 652 656
f 656 652 657
f 656 540 541
f 653 656 541
f 651 656 653
f 653 541 542
f 658 653 542
f 654 653 658
f 655 654 659
f 659 654 658
f 656 657 545
f 657 544 545
f 657 660 544
f 656 545 540
f 547 661 658
f 547 658 542
f 659 658 662
f 662 658 661
f 665 664 663
f 660 665 663
f 549 660 663
f 544 660 549
f 551 666 661
f 551 661 547
f 662 661 667
f 667 661 666
f 663 664 554
f 664 553 554
f 664 668 553
f 663 554 549
f 555 669 666
f 555 666 551
f 667 666 670
f 670 666 669
f 668 556 553
f 671 556 668
f 557 672 669
f 557 669 555
f 670 669 673
f 673 669 672
f 674 558 559
f 675 674 559
f 556 675 559
f 671 675 556
f 677 676 672
f 557 677 672
f 560 677 557
f 672 676 673
f 679 678 674
f 678 558 674
f 678 561 558
f 679 674 675
f 562 677 560
f 562 680 677
f 678 563 561
f 681 563 678
f 564 680 562
f 564 682 680
f 681 566 563
f 683 566 681
f 685 684 567
f 685 567 568
f 564 567 682
f 682 567 684
f 686 569 570
f 687 686 570
f 566 687 570
f 683 687 566
f 571 685 568
f 571 688 685
f 689 572 686
f 686 572 569
f 686 687 690
f 686 690 689
f 692 691 574
f 692 574 575
f 571 574 688
f 688 574 691
f 693 576 689
f 689 576 572
f 689 690 694
f 695 689 694
f 693 689 695
f 697 696 695
f 697 695 694
f 697 692 696
f 692 577 696
f 692 575 577
f 698 578 693
f 693 578 576
f 699 693 695
f 698 693 699
f 581 699 580
f 699 696 580
f 699 695 696
f 580 696 577
f 700 582 698
f 698 582 578
f 701 698 699
f 700 698 701
f 584 701 581
f 581 701 699
f 702 586 700
f 700 586 582
f 703 700 701
f 702 700 703
f 588 703 584
f 584 703 701
f 704 590 702
f 702 590 586
f 705 702 703
f 704 702 705
f 592 705 588
f 588 705 703
f 706 594 704
f 704 594 590
f 707 704 705
f 706 704 707
f 596 707 592
f 592 707 705
f 708 598 706
f 706 598 594
f 709 706 707
f 708 706 709
f 599 709 596
f 596 709 707
f 710 601 708
f 708 601 598
f 711 708 709
f 710 708 711
f 602 711 599
f 599 711 709
f 710 604 601
f 604 710 607
f 607 710 711
f 607 711 602
f 714 713 712
f 716 715 712
f 712 715 714
f 716 717 715
f 720 719 718
f 720 718 713
f 718 712 713
f 718 721 712
f 712 722 716
f 712 721 722
f 717 716 723
f 723 716 722
f 718 719 724
f 724 719 725
f 718 726 721
f 718 724 726
f 721 727 722
f 721 726 727
f 723 722 728
f 728 722 727
f 724 725 729
f 729 725 730
f 724 731 726
f 724 729 731
f 726 732 727
f 726 731 732
f 728 727 733
f 733 727 732
f 729 730 734
f 734 730 735
f 729 736 731
f 729 734 736
f 731 737 732
f 731 736 737
f 733 732 738
f 738 732 737
f 734 735 739
f 739 735 740
f 734 741 736
f 734 739 741
f 736 742 737
f 736 741 742
f 738 737 743
f 743 737 742
f 746 745 744
f 746 744 740
f 744 739 740
f 744 747 739
f 739 748 741
f 739 747 748
f 750 742 749
f 742 748 749
f 742 741 748
f 742 750 743
f 744 745 751
f 751 745 752
f 751 614 615
f 747 751 615
f 744 751 747
f 747 615 616
f 753 747 616
f 748 747 753
f 749 748 754
f 754 748 753
f 751 752 755
f 755 752 756
f 755 618 614
f 755 614 751
f 619 757 753
f 619 753 616
f 754 753 758
f 758 753 757
f 755 756 759
f 759 756 760
f 759 621 618
f 759 618 755
f 622 761 757
f 622 757 619
f 758 757 762
f 762 757 761
f 759 760 625
f 760 624 625
f 760 763 624
f 759 625 621
f 627 764 761
f 627 761 622
f 762 761 765
f 765 761 764
f 763 629 624
f 766 629 763
f 631 767 764
f 631 764 627
f 765 764 768
f 768 764 767
f 771 770 769
f 766 771 769
f 633 766 769
f 629 766 633
f 635 772 767
f 635 767 631
f 768 767 773
f 773 767 772
f 769 770 774
f 774 770 775
f 774 637 633
f 774 633 769
f 639 776 772
f 639 772 635
f 773 772 777
f 777 772 776
f 774 775 642
f 775 641 642
f 775 778 641
f 774 642 637
f 780 779 776
f 639 780 776
f 645 780 639
f 776 779 777
f 778 647 641
f 781 647 778
f 650 780 645
f 650 782 780
f 781 652 647
f 783 652 781
f 655 782 650
f 655 784 782
f 783 657 652
f 785 657 783
f 659 784 655
f 659 786 784
f 789 788 787
f 785 789 787
f 660 785 787
f 657 785 660
f 662 786 659
f 662 790 786
f 787 788 665
f 788 664 665
f 788 791 664
f 787 665 660
f 667 790 662
f 667 792 790
f 791 668 664
f 793 668 791
f 670 792 667
f 670 794 792
f 793 671 668
f 795 671 793
f 673 794 670
f 673 796 794
f 795 675 671
f 797 675 795
f 799 798 676
f 799 676 677
f 673 676 796
f 796 676 798
f 800 678 679
f 801 800 679
f 675 801 679
f 797 801 675
f 680 799 677
f 680 802 799
f 803 681 800
f 800 681 678
f 800 801 804
f 800 804 803
f 682 802 680
f 682 805 802
f 806 683 803
f 803 683 681
f 803 804 807
f 803 807 806
f 809 808 684
f 809 684 685
f 682 684 805
f 805 684 808
f 810 687 806
f 806 687 683
f 806 807 811
f 812 806 811
f 810 806 812
f 814 813 812
f 814 812 811
f 814 809 813
f 809 688 813
f 809 685 688
f 815 690 810
f 810 690 687
f 816 810 812
f 815 810 816
f 692 816 691
f 816 813 691
f 816 812 813
f 691 813 688
f 815 694 690
f 694 815 697
f 697 815 816
f 697 816 692
f 819 818 817
f 713 714 817
f 714 819 817
f 714 820 819
f 821 714 715
f 821 820 714
f 715 717 821
f 821 717 822
f 817 818 720
f 818 719 720
f 818 823 719
f 817 720 713
f 723 825 824
f 822 723 824
f 717 723 822
f 825 826 824
f 823 725 719
f 827 725 823
f 829 828 825
f 723 829 825
f 728 829 723
f 825 828 826
f 827 730 725
f 830 730 827
f 733 829 728
f 733 831 829
f 830 735 730
f 832 735 830
f 738 831 733
f 738 833 831
f 836 835 834
f 832 836 834
f 740 832 834
f 735 832 740
f 743 833 738
f 743 837 833
f 834 835 746
f 835 745 746
f 835 838 745
f 834 746 740
f 749 839 750
f 839 840 750
f 840 743 750
f 840 837 743
f 838 752 745
f 841 752 838
f 754 842 839
f 754 839 749
f 840 839 843
f 843 839 842
f 841 756 752
f 844 756 841
f 846 845 842
f 754 846 842
f 758 846 754
f 842 845 843
f 844 760 756
f 847 760 844
f 762 846 758
f 762 848 846
f 847 763 760
f 849 763 847
f 765 848 762
f 765 850 848
f 853 852 851
f 849 853 851
f 766 849 851
f 763 849 766
f 768 850 765
f 768 854 850
f 851 852 771
f 852 770 771
f 852 855 770
f 851 771 766
f 773 854 768
f 773 856 854
f 855 775 770
f 857 775 855
f 777 856 773
f 777 858 856
f 857 778 775
f 859 778 857
f 780 860 779
f 860 861 779
f 861 777 779
f 861 858 777
f 859 781 778
f 862 781 859
f 864 863 860
f 780 864 860
f 782 864 780
f 860 863 861
f 862 783 781
f 865 783 862
f 784 864 782
f 784 866 864
f 865 785 783
f 867 785 865
f 786 866 784
f 786 868 866
f 870 869 789
f 789 869 788
f 789 785 867
f 789 867 870
f 790 868 786
f 790 871 868
f 869 791 788
f 872 791 869
f 792 871 790
f 792 873 871
f 872 793 791
f 874 793 872
f 794 873 792
f 794 875 873
f 874 795 793
f 876 795 874
f 796 875 794
f 796 877 875
f 876 797 795
f 878 797 876
f 880 879 798
f 880 798 799
f 796 798 877
f 877 798 879
f 878 801 797
f 881 801 878
f 802 880 799
f 802 882 880
f 884 804 883
f 804 881 883
f 804 801 881
f 886 885 884
f 886 884 883
f 888 887 885
f 888 885 886
f 888 882 887
f 882 805 887
f 882 802 805
f 889 807 884
f 884 807 804
f 890 884 885
f 889 884 890
f 809 890 808
f 890 887 808
f 890 885 887
f 808 887 805
f 889 811 807
f 811 889 814
f 814 889 890
f 814 890 809
f 892 891 819
f 819 891 818
f 893 819 820
f 893 892 819
f 894 820 821
f 894 893 820
f 821 822 894
f 894 822 895
f 891 823 818
f 896 823 891
f 897 895 822
f 897 822 824
f 824 826 897
f 897 826 898
f 896 827 823
f 899 827 896
f 901 900 828
f 901 828 829
f 826 828 898
f 898 828 900
f 899 830 827
f 902 830 899
f 831 901 829
f 831 903 901
f 902 832 830
f 904 832 902
f 833 903 831
f 833 905 903
f 907 906 836
f 836 906 835
f 836 832 904
f 836 904 907
f 837 905 833
f 837 908 905
f 906 838 835
f 909 838 906
f 840 908 837
f 840 910 908
f 909 841 838
f 911 841 909
f 843 910 840
f 843 912 910
f 911 844 841
f 913 844 911
f 915 914 845
f 915 845 846
f 843 845 912
f 912 845 914
f 913 847 844
f 916 847 913
f 848 915 846
f 848 917 915
f 916 849 847
f 918 849 916
f 850 917 848
f 850 919 917
f 921 920 853
f 853 920 852
f 853 849 918
f 853 918 921
f 854 919 850
f 854 922 919
f 920 855 852
f 923 855 920
f 856 922 854
f 856 924 922
f 923 857 855
f 925 857 923
f 858 924 856
f 858 926 924
f 925 859 857
f 927 859 925
f 930 929 928
f 929 926 928
f 926 861 928
f 926 858 861
f 927 862 859
f 931 862 927
f 930 928 863
f 864 930 863
f 932 930 864
f 863 928 861
f 931 865 862
f 933 865 931
f 866 932 864
f 866 934 932
f 933 867 865
f 935 867 933
f 868 934 866
f 868 936 934
f 937 869 870
f 938 937 870
f 867 938 870
f 935 938 867
f 871 936 868
f 871 939 936
f 940 872 937
f 937 872 869
f 937 938 941
f 937 941 940
f 873 939 871
f 873 942 939
f 943 874 940
f 940 874 872
f 940 941 944
f 940 944 943
f 947 946 945
f 946 942 945
f 942 875 945
f 942 873 875
f 948 876 943
f 943 876 874
f 943 944 949
f 943 949 948
f 947 945 950
f 947 950 951
f 877 950 875
f 875 950 945
f 952 878 948
f 948 878 876
f 948 949 953
f 948 953 952
f 951 950 879
f 880 951 879
f 954 951 880
f 879 950 877
f 955 881 952
f 952 881 878
f 952 953 956
f 957 952 956
f 955 952 957
f 959 958 957
f 959 957 956
f 959 954 958
f 954 882 958
f 954 880 882
f 955 883 881
f 883 955 886
f 886 955 957
f 886 957 888
f 888 957 958
f 888 958 882
f 961 960 892
f 892 960 891
f 962 892 893
f 962 961 892
f 963 893 894
f 963 962 893
f 894 895 963
f 963 895 964
f 960 896 891
f 965 896 960
f 966 964 895
f 966 895 897
f 897 898 966
f 966 898 967
f 965 899 896
f 968 899 965
f 970 969 900
f 970 900 901
f 898 900 967
f 967 900 969
f 968 902 899
f 971 902 968
f 903 970 901
f 903 972 970
f 971 904 902
f 973 904 971
f 905 972 903
f 905 974 972
f 976 975 907
f 907 975 906
f 907 904 973
f 907 973 976
f 908 974 905
f 908 977 974
f 975 909 906
f 978 909 975
f 910 977 908
f 910 979 977
f 978 911 909
f 980 911 978
f 983 982 981
f 982 979 981
f 979 912 981
f 979 910 912
f 980 913 911
f 984 913 980
f 983 981 914
f 915 983 914
f 985 983 915
f 914 981 912
f 984 916 913
f 986 916 984
f 917 985 915
f 917 987 985
f 986 918 916
f 988 918 986
f 919 987 917
f 919 989 987
f 990 920 921
f 991 990 921
f 918 991 921
f 988 991 918
f 922 989 919
f 922 992 989
f 993 923 990
f 990 923 920
f 990 991 994
f 990 994 993
f 924 992 922
f 924 995 992
f 997 996 993
f 996 923 993
f 996 925 923
f 997 993 994
f 1000 999 998
f 999 995 998
f 995 926 998
f 995 924 926
f 996 927 925
f 1001 927 996
f 1000 998 929
f 930 1000 929
f 1002 1000 930
f 929 998 926
f 1001 931 927
f 1003 931 1001
f 932 1002 930
f 932 1004 1002
f 1003 933 931
f 1005 933 1003
f 934 1004 932
f 934 1006 1004
f 1005 935 933
f 1007 935 1005
f 936 1006 934
f 936 1008 1006
f 1007 938 935
f 1009 938 1007
f 1012 1011 1010
f 1011 1008 1010
f 1008 939 1010
f 1008 936 939
f 1009 941 938
f 1013 941 1009
f 1012 1010 1014
f 1012 1014 1015
f 942 1014 939
f 939 1014 1010
f 1017 944 1016
f 944 1013 1016
f 944 941 1013
f 1019 1018 1017
f 1019 1017 1016
f 1018 1019 1015
f 1018 1015 1014
f 947 1018 1014
f 946 947 1014
f 946 1014 942
f 1020 949 1017
f 1017 949 944
f 1021 1017 1018
f 1020 1017 1021
f 951 1021 947
f 947 1021 1018
f 1022 953 1020
f 1020 953 949
f 1023 1020 1021
f 1022 1020 1023
f 954 1023 951
f 951 1023 1021
f 1022 956 953
f 956 1022 959
f 959 1022 1023
f 959 1023 954
f 1024 960 961
f 1024 961 1025
f 961 1026 1025
f 961 962 1026
f 1027 962 963
f 1027 1026 962
f 963 964 1027
f 1027 964 1028
f 1029 965 1024
f 1024 965 960
f 1024 1025 1030
f 1024 1030 1029
f 964 966 1031
f 1032 964 1031
f 1028 964 1032
f 967 1031 966
f 1034 1033 1029
f 1033 965 1029
f 1033 968 965
f 1034 1029 1030
f 1032 1031 969
f 970 1032 969
f 1035 1032 970
f 969 1031 967
f 1033 971 968
f 1036 971 1033
f 972 1035 970
f 972 1037 1035
f 1036 973 971
f 1038 973 1036
f 974 1037 972
f 974 1039 1037
f 1040 975 976
f 1041 1040 976
f 973 1041 976
f 1038 1041 973
f 1044 1043 1042
f 1043 1039 1042
f 1039 977 1042
f 1039 974 977
f 1045 978 1040
f 1040 978 975
f 1040 1041 1046
f 1040 1046 1045
f 1044 1042 1047
f 1044 1047 1048
f 979 1047 977
f 977 1047 1042
f 1049 980 1045
f 1045 980 978
f 1045 1046 1050
f 1045 1050 1049
f 1048 1047 982
f 983 1048 982
f 1051 1048 983
f 982 1047 979
f 1052 984 1049
f 1049 984 980
f 1049 1050 1053
f 1049 1053 1052
f 985 1051 983
f 985 1054 1051
f 1055 986 1052
f 1052 986 984
f 1052 1053 1056
f 1052 1056 1055
f 987 1054 985
f 987 1057 1054
f 1059 1058 1055
f 1058 986 1055
f 1058 988 986
f 1059 1055 1056
f 1062 1061 1060
f 1061 1057 1060
f 1057 989 1060
f 1057 987 989
f 1058 991 988
f 1063 991 1058
f 1062 1060 1064
f 1062 1064 1065
f 992 1064 989
f 989 1064 1060
f 1063 994 991
f 1066 994 1063
f 1065 1064 1067
f 1065 1067 1068
f 995 1067 992
f 992 1067 1064
f 1069 996 997
f 1070 1069 997
f 994 1070 997
f 1066 1070 994
f 1073 1072 1071
f 1071 1072 1068
f 1071 1068 1067
f 1000 1071 1067
f 999 1000 1067
f 999 1067 995
f 1074 1001 1069
f 1069 1001 996
f 1069 1070 1075
f 1076 1069 1075
f 1074 1069 1076
f 1076 1075 1073
f 1071 1076 1073
f 1077 1076 1071
f 1002 1077 1000
f 1000 1077 1071
f 1078 1003 1074
f 1074 1003 1001
f 1079 1074 1076
f 1078 1074 1079
f 1080 1076 1077
f 1079 1076 1080
f 1004 1080 1002
f 1002 1080 1077
f 1081 1005 1078
f 1078 1005 1003
f 1082 1078 1079
f 1081 1078 1082
f 1083 1079 1080
f 1082 1079 1083
f 1006 1083 1004
f 1004 1083 1080
f 1084 1007 1081
f 1081 1007 1005
f 1085 1081 1082
f 1084 1081 1085
f 1086 1082 1083
f 1085 1082 1086
f 1008 1086 1006
f 1006 1086 1083
f 1087 1009 1084
f 1084 1009 1007
f 1088 1084 1085
f 1087 1084 1088
f 1012 1088 1011
f 1088 1086 1011
f 1088 1085 1086
f 1011 1086 1008
f 1089 1013 1087
f 1087 1013 1009
f 1090 1087 1088
f 1089 1087 1090
f 1015 1090 1012
f 1012 1090 1088
f 1089 1016 1013
f 1016 1089 1019
f 1019 1089 1090
f 1019 1090 1015
f 1091 1025 1026
f 1027 1092 1026
f 1026 1092 1091
f 1028 1092 1027
f 1093 1030 1091
f 1091 1030 1025
f 1094 1091 1092
f 1093 1091 1094
f 1032 1094 1028
f 1028 1094 1092
f 1095 1033 1034
f 1030 1093 1034
f 1093 1095 1034
f 1093 1096 1095
f 1097 1093 1094
f 1096 1093 1097
f 1035 1097 1032
f 1032 1097 1094
f 1098 1036 1095
f 1095 1036 1033
f 1099 1095 1096
f 1098 1095 1099
f 1100 1096 1097
f 1099 1096 1100
f 1037 1100 1035
f 1035 1100 1097
f 1101 1038 1098
f 1098 1038 1036
f 1102 1098 1099
f 1101 1098 1102
f 1103 1099 1100
f 1102 1099 1103
f 1039 1103 1037
f 1037 1103 1100
f 1104 1041 1101
f 1101 1041 1038
f 1105 1101 1102
f 1104 1101 1105
f 1044 1105 1043
f 1105 1103 1043
f 1105 1102 1103
f 1043 1103 1039
f 1106 1046 1104
f 1104 1046 1041
f 1107 1104 1105
f 1106 1104 1107
f 1048 1107 1044
f 1044 1107 1105
f 1108 1050 1106
f 1106 1050 1046
f 1109 1106 1107
f 1108 1106 1109
f 1051 1109 1048
f 1048 1109 1107
f 1110 1053 1108
f 1108 1053 1050
f 1111 1108 1109
f 1110 1108 1111
f 1054 1111 1051
f 1051 1111 1109
f 1112 1056 1110
f 1110 1056 1053
f 1113 1110 1111
f 1112 1110 1113
f 1057 1113 1054
f 1054 1113 1111
f 1114 1058 1059
f 1056 1112 1059
f 1112 1114 1059
f 1112 1115 1114
f 1062 1115 1061
f 1115 1113 1061
f 1115 1112 1113
f 1061 1113 1057
f 1116 1063 1114
f 1114 1063 1058
f 1117 1114 1115
f 1116 1114 1117
f 1065 1117 1062
f 1062 1117 1115
f 1118 1066 1116
f 1116 1066 1063
f 1119 1116 1117
f 1118 1116 1119
f 1068 1119 1065
f 1065 1119 1117
f 1120 1070 1118
f 1118 1070 1066
f 1073 1120 1072
f 1120 1119 1072
f 1120 1118 1119
f 1072 1119 1068
f 1120 1075 1070
f 1075 1120 1073
# 2236 faces, 0 coords texture

# End of File