####
#
# OBJ File Generated by Meshlab
#
####
# Object domain217.obj
#
# Vertices: 673
# Faces: 1352
#
####
v 124.827354 204.023636 121.028999
v 135.066971 200.017044 122.113907
v 128.410995 203.729431 131.303238
v 133.022385 216.820084 132.474655
v 139.151642 242.283585 130.690063
v 139.648483 218.332352 132.261322
v 138.149399 214.795883 125.531860
v 125.180611 208.561081 123.744652
v 135.073029 228.833145 132.494644
v 135.072830 239.178909 125.789612
v 135.128784 204.501389 121.353050
v 128.223373 220.956192 131.586304
v 128.922943 199.931351 124.477684
v 125.763458 218.869858 125.485931
v 126.931053 228.833115 122.786987
v 139.831619 212.052155 131.111267
v 137.119278 208.616226 132.416489
v 130.984177 241.123184 133.286758
v 126.013351 224.734390 125.798164
v 141.068726 241.194778 132.147705
v 127.662201 239.804413 132.277222
v 128.941650 228.772888 131.958069
v 127.761803 240.100662 128.782715
v 125.591713 212.701553 125.427734
v 127.431984 228.837952 130.403061
v 138.631866 202.670502 128.091171
v 127.686317 201.480423 127.212166
v 125.925163 208.615738 126.532867
v 125.858841 224.725006 124.948761
v 138.016129 220.878983 123.814407
v 130.972076 239.101639 133.338089
v 138.807220 224.635666 127.936226
v 138.781464 222.640900 128.575485
v 130.976303 222.680084 132.396942
v 128.979828 203.550430 131.402893
v 138.348373 226.791855 123.726128
v 129.028183 220.931107 132.040359
v 138.907776 203.080566 129.919434
v 136.755096 208.455261 122.982071
v 126.825279 236.929596 125.552261
v 141.513321 232.973190 132.159775
v 126.541176 218.863998 128.017303
v 126.926125 218.871674 122.779892
v 128.920898 216.820068 122.529411
v 126.019775 218.870270 126.490372
v 128.978058 212.717880 131.753586
v 139.706924 213.489655 132.201584
v 130.984131 226.783844 132.346710
v 139.945755 206.561340 129.549500
v 140.055954 203.908478 131.267212
v 139.147781 237.125168 133.041672
v 137.145630 214.686722 132.424438
v 130.970993 200.303711 121.526764
v 128.161697 241.960144 130.904190
v 135.073029 218.871078 132.492081
v 133.021545 199.908783 124.483528
v 125.891113 222.533203 123.262192
v 139.043076 224.729950 132.028046
v 133.021973 222.679962 132.491257
v 135.072983 208.616211 132.487473
v 125.364540 212.650879 123.685928
v 124.070869 205.593155 122.982590
v 126.605690 226.782227 127.885803
v 126.889175 204.759247 121.116707
v 133.021606 237.416458 123.831375
v 135.060440 236.168350 123.111702
v 122.585014 202.360077 122.126450
v 127.731598 240.657425 132.275040
v 126.925415 216.819565 122.778564
v 133.022202 218.871109 132.482773
v 141.301361 231.824417 132.196793
v 135.073074 238.294998 124.681763
v 125.508308 214.779755 123.640854
v 138.274292 234.952087 124.180962
v 137.669464 202.499634 123.508888
v 129.039246 242.846420 132.264008
v 140.844940 239.097412 132.723419
v 130.990234 242.962814 132.923019
v 128.919250 204.747757 121.096489
v 138.339081 222.905273 125.456108
v 123.974060 205.180923 122.362228
v 130.971039 216.820145 122.500000
v 125.350456 204.519394 125.529312
v 133.022018 218.871078 122.500008
v 120.906509 203.618011 121.005981
v 133.039581 237.406860 133.177185
v 135.073090 241.919052 129.571060
v 133.021759 232.933914 122.532295
v 126.824860 203.777725 120.877357
v 128.921143 224.731094 122.533348
v 130.976013 220.922607 132.412415
v 128.268051 239.077209 132.915298
v 137.125107 232.930252 132.579468
v 137.953003 201.821640 127.823097
v 133.022644 210.673233 122.395721
v 124.856239 200.335373 121.557892
v 137.933151 212.838074 123.794701
v 138.679047 220.914642 128.624039
v 125.624687 218.867294 123.766411
v 128.923309 218.843216 131.899109
v 139.513412 222.725677 130.004425
v 126.587242 228.831665 127.889275
v 130.990295 212.717926 132.317841
v 125.897385 228.832199 124.942833
v 128.052475 226.798553 131.232666
v 135.071854 220.921829 122.531616
v 127.122124 236.020325 123.330284
v 133.021683 236.182236 123.081718
v 125.957870 222.749588 125.980698
v 137.119888 222.679886 132.425705
v 137.122162 241.864410 129.609985
v 136.616562 200.540894 121.922096
v 126.545082 214.769104 127.915283
v 140.130280 204.615921 131.396164
v 139.974060 206.498886 131.401047
v 136.652359 206.475998 122.701935
v 140.722733 241.000504 132.710373
v 139.138260 216.853149 130.325684
v 137.589951 214.808197 123.247810
v 133.021591 203.466187 131.472092
v 136.341064 201.082260 121.402962
v 125.837685 200.960480 124.962654
v 133.022263 239.095901 133.384888
v 139.515747 213.268066 132.274643
v 138.376953 212.728989 126.907822
v 137.620270 234.940842 123.414742
v 135.071991 228.833054 122.530563
v 133.022491 214.768906 132.473724
v 133.022552 208.616241 132.469925
v 126.869278 200.952606 121.099091
v 127.404900 218.883469 130.263702
v 128.295044 204.544342 131.544434
v 137.119736 228.833130 132.423935
v 137.117996 206.573273 132.356110
v 133.014465 234.951950 132.755264
v 135.073318 239.094543 133.391800
v 137.883621 226.782440 123.144051
v 133.022430 212.717880 132.474106
v 127.428543 216.822708 130.129227
v 140.018677 210.303223 130.902664
v 139.049088 208.611649 132.043610
v 137.123154 230.884109 132.467239
v 139.557541 213.195023 132.262115
v 137.721375 201.182648 124.658623
v 125.694016 222.599747 123.614265
v 128.173294 219.164093 131.425476
v 126.533745 216.817932 127.918427
v 133.022003 240.037064 126.952499
v 137.764145 222.690262 123.177742
v 128.187317 229.065170 131.495895
v 133.023117 199.988754 122.121941
v 137.951538 210.695526 123.904320
v 135.066757 202.226990 130.112823
v 126.964287 236.966995 124.188416
v 127.011681 202.604599 127.689537
v 133.115265 236.204636 132.970993
v 139.561295 218.368958 132.288574
v 133.021484 200.147461 125.491180
v 136.562363 200.243347 122.278595
v 130.970993 230.883881 122.499985
v 128.931808 234.948486 122.760338
v 139.276321 218.854141 130.392563
v 126.047699 220.917313 126.483284
v 137.618805 210.684280 123.393822
v 128.919769 203.767227 120.876358
v 130.989944 210.666946 132.319351
v 128.073837 233.011932 131.461365
v 133.021973 200.978134 127.888802
v 139.263504 226.705399 127.943947
v 133.022110 238.308151 124.671501
v 128.211746 230.909302 131.578491
v 120.813896 201.058075 121.009087
v 139.157822 208.635422 127.991524
v 139.188049 204.515228 127.979057
v 126.525085 212.718079 127.923935
v 138.774033 212.725937 128.257355
v 127.484978 237.911560 124.941780
v 139.050095 220.912140 132.054626
v 129.123093 237.903137 133.051804
v 135.058167 234.950058 122.766212
v 133.020142 243.158463 132.717224
v 135.078506 237.115280 133.164169
v 128.965271 240.738388 128.491684
v 128.951920 206.649887 131.910324
v 139.586578 213.327469 132.248199
v 137.121460 216.820129 132.436966
v 137.672272 220.934677 123.183479
v 126.891083 208.411621 122.347137
v 139.182297 235.167953 132.750641
v 130.975754 230.884583 132.417862
v 126.110344 234.807861 123.562477
v 137.120743 243.158417 132.090851
v 128.182831 212.717148 131.177597
v 138.246902 210.701157 125.615776
v 126.240074 235.016113 125.492661
v 130.970917 240.012863 126.969299
v 130.971619 234.955444 122.710121
v 139.092148 204.652542 131.848190
v 126.607681 204.519302 127.890717
v 137.005981 212.754807 122.951729
v 139.486725 212.726013 130.395874
v 126.920265 232.923569 122.796799
v 140.201721 242.188126 131.395386
v 133.022034 220.921921 132.493149
v 141.584213 233.850906 132.181335
v 140.007248 228.842606 129.916550
v 133.022186 204.620255 132.061905
v 141.252090 240.565582 132.392563
v 125.771729 220.921600 125.481140
v 128.183380 214.770767 131.177399
v 134.628769 203.726639 120.994980
v 135.073013 224.730881 132.492950
v 138.027557 209.391953 124.310448
v 125.918907 204.510284 126.538193
v 138.154083 220.766129 125.704216
v 126.892754 206.485703 121.782379
v 133.021484 199.818741 123.476601
v 138.258667 202.508865 125.576416
v 126.065773 224.695328 123.211441
v 122.779434 201.241150 121.254601
v 137.121567 212.716995 132.427780
v 135.071320 218.871094 122.539581
v 130.971634 239.179291 125.788704
v 127.938339 241.074020 130.313263
v 123.463692 200.207047 122.152885
v 125.510414 208.615341 125.456306
v 135.072952 203.470779 131.466217
v 133.021973 226.782074 122.500000
v 126.081253 226.781311 123.207535
v 137.122849 239.094177 133.384491
v 139.847137 203.609299 130.794769
v 126.921974 222.678726 122.766838
v 125.422890 206.568741 125.486549
v 138.152054 212.803238 125.150909
v 126.604073 230.858994 128.018982
v 125.846237 224.709473 123.566734
v 128.932236 239.759598 127.139992
v 137.119339 242.494568 130.564621
v 137.115784 200.752228 125.310226
v 124.917099 200.598206 123.798981
v 130.969696 203.478165 131.458649
v 139.127167 243.080338 132.169052
v 135.073257 240.977264 128.286789
v 128.919708 202.461273 120.790810
v 137.146744 240.851440 128.346909
v 133.022095 214.768875 122.498940
v 135.063263 237.396835 123.855171
v 120.871262 202.474518 120.999382
v 128.929642 200.248215 125.454094
v 139.078888 239.065674 127.758453
v 124.420708 202.468277 124.097359
v 138.987320 241.625153 129.843277
v 137.119431 210.666138 132.414627
v 135.069138 212.717224 122.569427
v 138.979752 240.547760 128.843140
v 133.022888 206.570938 132.401749
v 137.119293 226.782089 132.419418
v 130.984329 224.729843 132.352158
v 130.971024 220.921875 122.499985
v 125.846054 216.808121 123.313416
v 133.021988 228.832962 122.499992
v 125.890526 226.781326 124.941910
v 126.616280 234.978928 127.955551
v 120.825066 203.527039 120.975624
v 135.069794 202.502441 120.905983
v 126.105965 232.941864 125.529953
v 140.814621 232.977692 130.540588
v 139.819855 240.530472 129.496521
v 138.317963 222.680496 127.451736
v 139.796692 204.487061 129.594406
v 135.072067 226.782135 122.530602
v 128.156555 216.843658 131.198578
v 129.027847 230.891022 132.059784
v 127.412315 239.095978 130.533157
v 125.546791 212.614243 123.334549
v 138.374832 208.820831 125.876022
v 135.072891 212.717804 132.483093
v 138.211823 217.010345 127.173538
v 137.026108 216.822327 122.847076
v 128.920853 218.871063 122.529404
v 135.072845 206.570450 132.409485
v 139.429810 220.919785 130.084305
v 130.971939 243.161667 132.709106
v 122.852867 200.909775 121.679810
v 139.896408 208.422394 131.395355
v 126.932007 230.884445 122.788994
v 135.042816 200.964096 121.154144
v 128.976089 214.770630 131.758347
v 124.963463 200.092819 123.121628
v 140.138031 239.077255 129.117752
v 140.243042 242.808304 132.751022
v 126.028709 216.817734 126.485428
v 128.921158 228.833038 122.533112
v 127.458801 224.726883 130.373703
v 125.960701 212.717697 126.516258
v 130.974304 241.891159 129.591354
v 124.836647 200.054001 122.115715
v 129.061096 241.645081 129.768692
v 140.116989 242.974091 132.737000
v 139.140778 234.976074 125.886772
v 133.023026 208.458252 122.113640
v 128.055832 224.694687 131.239960
v 128.920013 200.303726 121.526779
v 128.969757 210.663605 131.769791
v 126.086426 228.832626 123.209846
v 128.978027 241.129807 132.958725
v 137.943344 214.755325 123.885284
v 138.218277 212.752396 126.012947
v 133.022049 241.919174 129.571121
v 128.975494 236.870392 132.647446
v 128.289658 238.219452 132.806076
v 128.306976 242.186478 131.374237
v 126.875114 237.001846 128.125748
v 130.977203 201.032486 127.864471
v 133.024475 243.161331 132.089005
v 135.072052 222.679794 122.529366
v 130.982086 237.445572 133.135025
v 136.961548 234.940353 123.049164
v 128.936462 238.227005 124.736839
v 130.970978 212.718185 122.480354
v 130.976974 204.625854 132.035721
v 125.994560 214.767899 126.498474
v 130.971848 236.181213 123.083824
v 137.089005 239.843185 127.088646
v 125.606247 216.799011 123.771103
v 125.854027 220.915543 123.298416
v 133.022095 239.195084 125.777733
v 139.752151 230.799454 128.102432
v 138.461700 216.768585 128.307907
v 125.802551 222.511215 125.242302
v 139.263702 206.567612 127.958084
v 125.277237 210.635956 123.741127
v 140.034927 226.790955 131.038315
v 140.206970 204.538803 130.726486
v 137.923538 218.883286 123.841431
v 135.073029 243.163452 132.087418
v 133.021973 222.679932 122.499992
v 140.379654 234.954880 128.985306
v 136.792923 202.547256 121.741783
v 137.099548 239.038391 125.901459
v 130.966034 234.968658 132.647186
v 141.544083 233.047241 132.156113
v 130.970917 232.934387 122.524635
v 136.815201 200.243195 123.312035
v 126.930229 200.140152 124.390472
v 141.231598 237.046951 132.269745
v 135.071991 232.930786 132.592377
v 137.121796 241.126740 133.350601
v 130.971069 226.782135 122.500015
v 127.433258 210.680893 130.121704
v 139.822952 208.746155 129.543808
v 122.787689 202.460114 120.975464
v 126.600075 222.733170 128.120453
v 120.818558 203.586838 120.978867
v 133.022400 206.523621 121.653587
v 139.140823 230.887924 132.205704
v 133.022018 212.718002 122.490471
v 138.426544 230.915634 123.881302
v 137.228912 200.576660 123.855415
v 125.547852 210.666046 125.443871
v 128.920258 212.717743 122.505600
v 137.909103 216.817795 123.848549
v 128.954300 208.601166 131.804413
v 120.879707 202.472183 120.977715
v 127.463806 212.716934 130.116547
v 130.972351 240.957138 128.302505
v 129.009186 235.015335 132.211594
v 130.970963 210.674683 122.381645
v 137.012802 214.797623 122.866325
v 135.018448 206.450043 121.927017
v 140.878693 234.953110 130.318817
v 137.123245 237.091370 123.960709
v 129.035431 232.938309 132.067474
v 141.342560 236.956833 131.638321
v 121.123428 202.490250 121.259979
v 128.953049 239.023865 125.878792
v 130.971390 200.146332 125.491447
v 140.472412 230.898468 130.826035
v 137.072113 226.782120 122.760918
v 126.573677 224.733765 127.875153
v 126.914207 214.768417 122.753662
v 133.022110 240.994263 128.274948
v 130.971100 202.461487 120.790276
v 126.092110 230.893005 123.200516
v 140.960480 237.039749 130.301910
v 130.984711 206.574402 132.300430
v 126.521774 210.656967 127.939316
v 127.217484 236.918884 130.281326
v 140.260818 231.999512 129.434464
v 133.022842 202.202240 130.128784
v 137.121170 220.921448 132.433548
v 133.022110 228.833008 132.487183
v 135.073029 241.128159 133.366486
v 128.920639 220.921890 122.523987
v 137.643890 204.386810 123.581352
v 137.126175 242.953949 132.946625
v 130.972519 237.413742 123.834763
v 126.487885 208.608185 127.915161
v 127.463776 206.580170 130.235443
v 130.986481 208.615753 132.336090
v 127.459938 214.769867 130.119034
v 127.464043 239.001831 127.944328
v 139.894333 234.986053 127.819626
v 139.141479 232.952988 125.684669
v 138.134216 203.910370 124.543915
v 137.128830 218.878677 132.440918
v 137.122635 203.519470 131.411179
v 133.021179 232.932236 132.564255
v 126.870682 200.303131 121.526550
v 130.973038 232.936279 132.465347
v 133.023300 203.780975 120.868011
v 130.987274 216.821350 132.331573
v 135.053741 199.877151 123.473183
v 137.852921 224.735382 123.163620
v 126.544800 220.924683 128.110687
v 139.144028 239.100540 133.237061
v 135.073105 220.921967 132.492966
v 128.275482 206.282730 131.468735
v 123.866371 200.531357 122.904610
v 135.070160 230.883255 122.556122
v 127.122993 234.993332 130.047134
v 127.407982 220.929108 130.396927
v 138.376923 228.838837 123.736176
v 125.877007 226.778900 123.558136
v 137.007034 201.323441 127.778603
v 126.137627 234.115662 123.192444
v 120.832199 201.101974 121.006317
v 139.803619 229.087173 131.387543
v 137.067551 224.731049 122.771820
v 140.113693 208.585480 130.649582
v 138.083984 218.865326 125.559616
v 125.887848 228.827759 123.556099
v 130.971069 203.766953 120.879608
v 127.507622 208.701767 130.319748
v 139.818405 226.707550 129.861679
v 123.900543 200.085663 122.687065
v 125.452293 208.391479 123.068741
v 130.971146 199.905533 124.484154
v 133.021973 230.883865 122.499985
v 137.117294 204.627441 132.034332
v 125.668762 214.733978 125.378113
v 139.803909 221.137543 131.466080
v 129.348846 243.001892 132.774384
v 137.537857 206.575928 123.672310
v 131.001953 243.136063 132.115601
v 125.637703 220.898285 123.746071
v 130.971008 222.679840 122.500008
v 129.054153 202.495926 129.971848
v 139.142090 242.975693 132.947220
v 137.067307 228.830185 122.778091
v 137.030411 218.872208 122.834305
v 125.905052 230.886765 123.526718
v 124.714851 206.519669 123.632095
v 133.021973 230.883957 132.501999
v 126.049370 230.931488 125.613152
v 135.072937 210.667007 132.488556
v 137.129074 243.159424 132.717850
v 126.862091 200.723923 125.505745
v 130.970963 228.833145 122.499992
v 128.927917 226.801178 131.838623
v 127.412933 222.687515 130.397049
v 126.868179 202.463242 120.778793
v 128.107208 208.575394 131.206116
v 125.721550 214.731339 123.283241
v 139.608505 218.454102 132.277267
v 135.070679 214.768387 122.561089
v 138.256439 238.456711 126.068558
v 126.848526 199.908478 123.476402
v 125.904503 232.910416 123.452858
v 124.820595 202.466339 120.837486
v 130.980042 218.873230 132.369781
v 129.309113 243.062622 132.739319
v 139.745209 210.677307 129.913361
v 138.481476 211.380554 126.894615
v 125.922386 232.934174 124.531288
v 138.623642 218.875305 128.660263
v 126.190788 202.473236 126.368385
v 133.021988 216.820053 122.500000
v 139.052414 222.678650 132.049286
v 139.042313 226.782471 132.026505
v 139.052139 210.678970 132.027771
v 127.585571 238.416794 126.010536
v 138.086517 216.719604 125.657761
v 133.022095 224.731110 122.500008
v 138.234497 218.871506 127.375114
v 137.717285 232.933899 123.324425
v 130.990036 214.769104 132.318771
v 136.973343 210.654480 122.987946
v 128.172302 210.656738 131.176025
v 133.023087 241.127609 133.355225
v 139.172180 214.792847 130.337631
v 135.071991 224.730927 122.531052
v 130.959229 236.239594 132.879868
v 138.230408 204.870544 124.930504
v 128.919540 206.530380 121.630775
v 141.353668 239.110107 132.247223
v 137.092804 238.137833 124.813240
v 140.371857 237.046097 128.981445
v 140.262894 230.783539 129.926498
v 140.518311 240.983444 130.669479
v 133.021957 220.921890 122.500008
v 140.060944 228.808517 130.961868
v 138.196274 221.474258 125.094139
v 126.952766 234.890686 123.033730
v 127.984779 235.019775 131.478729
v 139.115891 203.712708 131.335205
v 128.918655 208.458160 122.113358
v 128.921158 226.782104 122.533150
v 137.119415 224.731049 132.420486
v 130.973572 242.480408 130.575317
v 125.738113 216.821747 125.491013
v 135.062225 200.237213 125.467545
v 126.056175 228.836365 125.786354
v 128.920654 214.768860 122.525299
v 128.933365 224.716629 131.846588
v 125.121040 206.400589 122.429665
v 139.873718 224.725204 131.448074
v 139.887177 220.959427 131.169388
v 127.711876 240.574585 132.278046
v 126.647392 236.156601 123.660805
v 140.404434 242.670044 132.426361
v 137.612564 208.661682 123.753937
v 135.073242 240.020615 126.963760
v 125.888176 231.492645 124.548698
v 125.919937 230.577881 124.914169
v 138.269135 222.302414 126.058678
v 139.061249 206.572571 132.031174
v 137.721161 201.218430 125.630249
v 124.816620 200.955627 121.134941
v 135.056610 208.420715 122.323738
v 133.022446 224.731033 132.477768
v 130.982941 202.249344 130.101852
v 126.586273 232.859192 128.090988
v 125.476250 202.476608 125.448204
v 123.792686 204.484528 123.030632
v 130.970947 224.730911 122.500008
v 138.299362 214.792603 126.945099
v 138.282791 220.861481 127.346336
v 135.072922 242.525421 130.546432
v 127.375839 230.892014 130.400955
v 138.599701 224.714096 125.725670
v 130.971130 200.951187 121.096603
v 141.601501 234.218216 132.202652
v 140.267853 233.172562 129.030579
v 128.961594 216.836227 131.792831
v 126.870598 200.002991 122.123512
v 130.971024 204.748383 121.094353
v 126.903313 210.654327 122.656082
v 137.607986 218.878189 123.202484
v 138.444092 206.563217 125.759857
v 135.073059 243.159134 132.717346
v 133.021240 234.955353 122.710648
v 139.799515 237.027313 127.859291
v 137.998642 237.956482 125.190193
v 128.920700 222.679886 122.525841
v 139.136047 241.121918 133.212723
v 138.583206 214.660858 128.244232
v 138.883469 236.981216 126.005302
v 126.931168 226.782211 122.787308
v 135.071320 216.820053 122.540413
v 137.671722 212.714447 123.334999
v 138.264816 211.582840 126.077354
v 139.976898 224.739792 131.086151
v 139.612808 224.710114 129.845139
v 141.366333 239.051453 131.641739
v 139.883881 222.711395 131.478821
v 133.022232 204.734848 121.129639
v 135.063629 201.046158 127.861610
v 138.429993 204.455811 125.610634
v 138.858414 226.726166 125.652763
v 128.386841 240.484116 132.841812
v 133.022522 210.666962 132.475433
v 141.539764 233.234955 132.174591
v 139.167267 243.165237 132.749130
v 124.441200 204.510544 124.083763
v 130.970932 208.464661 122.080170
v 126.508759 206.561890 127.939011
v 128.920044 199.826080 123.476395
v 137.763168 230.747849 123.181198
v 137.058044 222.680344 122.784470
v 123.030487 203.863785 121.697342
v 126.910156 212.714966 122.736023
v 138.244919 224.769714 123.718307
v 130.978714 228.834824 132.382629
v 128.921585 232.933395 122.563118
v 130.970932 214.769012 122.498764
v 127.259338 232.919434 130.238113
v 135.065338 235.155655 132.843689
v 137.599487 216.824936 123.207985
v 133.022369 226.782150 132.477219
v 126.035927 232.941330 123.141327
v 135.073044 226.782120 132.492966
v 133.022568 242.953171 132.943192
v 133.021210 200.952499 121.098862
v 122.958389 203.625824 121.287239
v 139.062851 229.020416 125.671349
v 138.508194 223.737854 127.470398
v 137.048111 230.870850 122.807159
v 137.124039 235.151978 132.849487
v 130.971039 199.816544 123.476692
v 135.072922 216.820114 132.485092
v 127.732483 240.536087 132.273056
v 138.132629 222.888748 123.784668
v 130.970947 206.533707 121.619781
v 139.099594 230.878128 125.584526
v 135.028778 200.329636 121.553879
v 138.087357 202.470703 124.568069
v 127.559349 204.558640 130.071732
v 128.919952 200.951187 121.096657
v 126.039536 226.782089 125.790222
v 124.954689 204.814255 121.407921
v 138.273621 208.485779 125.449890
v 137.055664 202.413635 130.011490
v 126.139023 234.948486 124.474922
v 139.956863 222.692276 131.146973
v 138.132050 206.605713 124.981598
v 135.073166 242.952911 132.943771
v 135.073013 222.679871 132.495041
v 126.929375 224.730087 122.781845
v 128.215515 222.513779 131.532410
v 137.893417 228.821823 123.134308
v 136.799545 236.076462 123.307175
v 139.029602 228.840866 132.019516
v 138.015442 236.877411 124.563698
v 128.919907 199.986847 122.120964
v 135.072952 214.768982 132.485748
v 123.557610 202.483078 123.165024
v 130.970932 218.871094 122.500008
v 138.939728 210.674454 127.995613
v 140.197433 206.550827 130.591324
v 139.519043 228.895660 127.899551
v 139.172729 232.936676 132.457993
v 139.877197 232.908234 127.933449
v 135.072800 204.619751 132.063248
v 128.936172 236.156998 123.131363
v 133.018555 202.464828 120.804321
v 135.073013 230.883743 132.511002
v 127.905151 237.152634 131.857285
v 137.124542 237.104095 133.171448
v 128.919495 210.672165 122.410431
v 139.882263 226.778793 131.439178
v 136.684525 204.308105 122.253738
v 128.952560 222.738800 131.992584
v 128.066422 202.979721 129.700623
v 139.832504 210.497192 131.486099
v 125.930519 210.666885 126.530624
v 140.878830 239.065216 130.355484
v 137.065475 232.869980 122.921196
v 120.942032 201.061600 121.013466
v 125.902496 206.564514 126.543304
v 138.409439 232.915817 124.120308
v 139.732330 219.682358 131.220352
v 137.048096 220.923233 122.801125
v 133.022141 242.523422 130.547577
v 130.971054 199.986984 122.120987
v 125.488327 210.631088 123.321846
v 129.016357 204.619904 131.847656
v 140.849472 237.213165 132.622665
v 128.921127 230.883942 122.533020
v 130.971390 238.303848 124.675331
v 128.939606 237.358917 123.897842
v 135.067062 232.931870 122.604935
v 135.096802 199.985291 124.468971
v 127.459068 226.788208 130.378708
v 128.993851 201.227814 127.763634
v 133.020523 200.302597 121.525963
v 135.069275 210.660355 122.534492
v 125.861206 218.874130 123.320312
v 139.672089 217.887833 132.239731
v 128.967499 239.093887 133.173920
v 128.930222 242.216843 130.654007
v 136.373260 202.153076 121.285164
v 126.922447 220.922195 122.767761
# 673 vertices, 0 vertices normals

f 124 157 491
f 76 510 445
f 183 196 366
f 162 652 282
f 479 566 442
f 232 555 619
f 251 240 627
f 460 48 258
f 278 329 476
f 552 180 108
f 564 615 563
f 474 125 562
f 538 33 269
f 572 138 456
f 504 161 107
f 127 420 439
f 193 46 304
f 343 88 197
f 210 288 46
f 6 178 465
f 351 430 473
f 310 311 179
f 626 4 601
f 55 204 417
f 625 655 53
f 445 654 315
f 404 633 300
f 511 325 99
f 625 546 578
f 608 155 199
f 231 50 114
f 127 439 261
f 6 465 162
f 152 194 234
f 633 544 403
f 383 636 433
f 519 571 92
f 444 616 612
f 295 24 322
f 307 362 589
f 550 331 173
f 462 89 1
f 147 42 131
f 485 476 98
f 146 100 545
f 380 664 294
f 272 545 288
f 548 507 640
f 502 428 378
f 642 339 75
f 472 283 78
f 130 609 462
f 515 105 460
f 671 510 76
f 25 540 171
f 374 346 565
f 129 60 281
f 440 198 506
f 545 100 412
f 519 68 602
f 416 77 658
f 377 168 158
f 425 613 94
f 112 121 606
f 605 633 404
f 451 589 549
f 493 156 135
f 218 26 174
f 308 537 7
f 5 500 203
f 656 437 188
f 525 524 455
f 354 352 595
f 509 58 479
f 104 525 455
f 536 484 349
f 159 344 112
f 412 471 4
f 432 525 104
f 415 353 461
f 599 639 189
f 275 582 464
f 15 508 293
f 626 128 4
f 95 530 667
f 273 190 584
f 23 237 183
f 414 603 583
f 222 279 451
f 620 302 643
f 270 334 49
f 578 468 345
f 243 87 309
f 471 91 70
f 225 297 96
f 595 1 611
f 621 423 579
f 280 82 628
f 80 269 597
f 393 593 617
f 169 435 206
f 190 410 454
f 89 244 165
f 141 285 115
f 560 222 84
f 458 477 27
f 381 514 69
f 333 428 502
f 194 629 474
f 269 33 32
f 207 256 634
f 248 264 85
f 433 636 411
f 165 547 79
f 322 292 113
f 270 231 334
f 145 330 209
f 19 63 380
f 22 273 584
f 102 540 25
f 628 84 259
f 274 602 519
f 527 141 115
f 74 300 624
f 39 530 370
f 316 492 484
f 32 435 169
f 89 79 64
f 253 221 481
f 223 327 148
f 417 204 59
f 134 281 60
f 112 606 2
f 91 34 204
f 665 448 314
f 38 506 231
f 629 176 474
f 359 144 607
f 636 287 265
f 258 531 59
f 101 615 564
f 265 11 211
f 465 442 652
f 251 575 534
f 44 586 82
f 636 265 411
f 187 30 149
f 652 442 518
f 61 73 441
f 520 107 154
f 48 584 590
f 282 652 518
f 344 2 413
f 511 45 292
f 249 665 314
f 560 84 478
f 373 167 505
f 178 442 465
f 399 463 418
f 518 566 615
f 317 86 156
f 396 457 449
f 53 594 542
f 225 284 436
f 222 501 84
f 31 123 86
f 637 142 133
f 447 337 536
f 290 500 268
f 81 535 581
f 629 173 473
f 251 627 535
f 455 533 235
f 617 181 551
f 240 345 468
f 670 306 31
f 519 602 21
f 250 553 498
f 225 289 297
f 87 245 111
f 429 414 379
f 393 617 348
f 588 599 93
f 375 581 67
f 410 341 408
f 367 505 638
f 109 19 380
f 332 656 61
f 200 119 369
f 610 102 63
f 492 271 228
f 564 563 435
f 296 382 309
f 574 299 291
f 537 557 329
f 452 524 525
f 126 74 624
f 322 113 175
f 39 444 522
f 336 238 192
f 440 281 134
f 69 514 44
f 151 217 413
f 422 620 12
f 462 1 470
f 134 527 198
f 305 384 452
f 393 490 593
f 608 418 132
f 75 405 395
f 247 72 170
f 157 6 465
f 595 470 1
f 13 377 438
f 415 461 422
f 579 423 358
f 407 634 440
f 419 289 436
f 312 602 224
f 82 246 478
f 482 154 177
f 295 360 24
f 391 110 178
f 483 307 7
f 41 573 342
f 536 337 484
f 375 67 284
f 18 490 123
f 192 5 242
f 424 104 262
f 556 117 77
f 333 641 428
f 444 612 522
f 81 611 516
f 613 38 94
f 419 67 627
f 461 294 302
f 286 659 202
f 513 235 102
f 539 315 654
f 602 68 306
f 604 567 355
f 235 587 540
f 658 77 496
f 354 581 85
f 64 79 216
f 276 152 213
f 186 157 124
f 377 314 168
f 306 443 18
f 648 358 486
f 435 333 206
f 185 47 143
f 184 386 321
f 367 341 410
f 196 148 366
f 469 591 191
f 500 20 521
f 557 491 118
f 61 275 73
f 563 517 641
f 14 209 163
f 72 372 497
f 36 596 423
f 616 276 612
f 582 361 381
f 598 621 579
f 668 43 326
f 249 314 377
f 461 302 620
f 301 530 95
f 621 36 423
f 312 671 76
f 402 224 274
f 267 573 205
f 77 208 496
f 80 541 603
f 618 59 531
f 245 255 111
f 469 614 475
f 130 529 96
f 330 19 109
f 417 618 391
f 303 542 609
f 591 426 191
f 331 351 173
f 254 488 200
f 157 118 491
f 418 463 184
f 417 59 618
f 629 473 201
f 19 610 63
f 653 187 580
f 46 288 103
f 515 460 258
f 217 56 413
f 648 486 318
f 42 415 422
f 619 555 90
f 380 63 664
f 431 215 335
f 141 481 285
f 272 146 545
f 626 52 221
f 35 241 532
f 474 176 125
f 200 164 561
f 510 654 445
f 131 12 146
f 416 556 77
f 89 64 1
f 304 166 400
f 140 645 143
f 407 506 38
f 431 538 215
f 434 489 463
f 313 402 274
f 409 96 297
f 109 353 415
f 623 356 428
f 569 218 174
f 111 255 252
f 112 359 75
f 6 162 118
f 587 167 540
f 39 667 530
f 175 113 401
f 237 196 183
f 172 220 364
f 55 70 204
f 539 238 336
f 157 669 6
f 231 114 334
f 648 579 358
f 166 103 572
f 526 269 80
f 305 559 15
f 298 296 510
f 389 378 267
f 372 624 497
f 343 439 88
f 616 550 276
f 28 398 577
f 206 499 328
f 165 433 547
f 277 456 138
f 515 302 105
f 222 106 501
f 8 226 233
f 189 205 573
f 497 624 554
f 294 105 302
f 293 459 659
f 618 110 391
f 338 371 385
f 250 558 553
f 271 127 261
f 662 598 648
f 488 522 164
f 224 183 298
f 147 131 139
f 41 342 71
f 178 479 442
f 483 431 362
f 205 342 543
f 497 554 467
f 336 551 315
f 617 593 181
f 348 396 556
f 52 186 124
f 395 569 494
f 367 638 310
f 464 260 325
f 276 194 152
f 51 416 658
f 655 600 217
f 282 518 101
f 3 35 448
f 469 191 614
f 402 237 23
f 255 290 268
f 108 180 66
f 320 95 357
f 609 542 244
f 185 201 16
f 103 138 572
f 411 211 11
f 247 66 372
f 507 576 640
f 37 643 91
f 613 153 227
f 358 605 651
f 408 347 637
f 425 512 568
f 252 500 5
f 445 181 283
f 10 340 324
f 277 253 456
f 541 583 603
f 255 268 252
f 72 340 10
f 214 199 155
f 451 549 653
f 431 485 538
f 480 623 641
f 644 155 608
f 563 641 333
f 31 18 123
f 575 83 534
f 365 210 193
f 514 320 586
f 133 623 480
f 193 210 46
f 428 41 378
f 632 189 573
f 58 480 517
f 483 278 485
f 532 390 168
f 588 182 599
f 481 143 645
f 254 246 357
f 30 80 603
f 511 99 14
f 195 40 313
f 73 464 325
f 607 218 405
f 635 661 107
f 121 265 287
f 179 311 92
f 614 195 266
f 104 455 513
f 97 307 119
f 198 527 114
f 151 606 666
f 582 381 464
f 670 571 306
f 658 496 346
f 290 647 500
f 254 667 488
f 359 663 239
f 449 574 291
f 424 229 432
f 267 371 338
f 601 55 186
f 64 216 516
f 206 333 502
f 205 346 543
f 572 456 60
f 75 607 405
f 207 634 227
f 159 2 344
f 647 565 20
f 453 233 83
f 183 366 298
f 127 450 420
f 222 451 106
f 338 385 498
f 350 387 365
f 330 29 19
f 615 517 563
f 263 388 421
f 312 54 671
f 77 117 208
f 551 457 396
f 292 147 113
f 447 501 337
f 661 319 177
f 279 589 451
f 195 154 40
f 486 651 74
f 344 663 359
f 673 280 394
f 76 472 443
f 81 62 535
f 651 605 404
f 419 627 240
f 51 658 205
f 446 326 145
f 278 537 329
f 660 170 327
f 157 465 669
f 390 153 568
f 421 638 505
f 638 519 92
f 64 611 1
f 103 487 138
f 296 309 654
f 201 140 16
f 393 348 230
f 399 434 463
f 518 442 566
f 221 52 185
f 241 321 120
f 547 567 604
f 573 543 342
f 234 7 307
f 642 370 11
f 316 484 337
f 369 119 279
f 310 493 341
f 216 79 495
f 660 65 170
f 159 112 2
f 365 401 210
f 308 125 537
f 164 97 561
f 76 445 283
f 458 122 477
f 172 364 248
f 492 580 429
f 132 657 35
f 202 659 585
f 462 609 244
f 320 357 586
f 473 140 201
f 293 349 459
f 53 666 594
f 513 455 235
f 639 51 189
f 239 528 144
f 615 566 517
f 3 132 35
f 93 632 356
f 668 69 43
f 381 69 260
f 453 8 233
f 85 581 375
f 573 71 342
f 657 321 241
f 30 503 80
f 41 71 573
f 276 173 194
f 661 397 319
f 452 384 469
f 164 152 97
f 453 516 8
f 466 478 246
f 670 31 317
f 402 23 224
f 283 181 593
f 284 529 220
f 236 57 219
f 305 15 384
f 659 160 585
f 480 641 517
f 637 347 142
f 489 193 304
f 420 450 598
f 340 250 324
f 136 490 393
f 341 135 408
f 328 499 389
f 359 607 75
f 642 116 370
f 559 90 508
f 612 276 213
f 310 638 311
f 22 171 273
f 214 534 83
f 492 429 271
f 289 468 297
f 454 637 9
f 97 234 307
f 192 242 574
f 312 68 602
f 643 34 91
f 274 224 602
f 254 200 466
f 55 417 406
f 376 196 237
f 630 115 285
f 620 643 37
f 273 171 167
f 541 32 169
f 247 170 65
f 583 570 36
f 43 280 673
f 117 521 20
f 288 487 103
f 650 28 577
f 197 552 323
f 497 467 340
f 655 151 666
f 169 631 570
f 395 494 616
f 435 563 333
f 219 57 232
f 403 544 338
f 655 666 53
f 106 337 501
f 364 220 352
f 366 382 296
f 86 123 182
f 542 594 383
f 551 181 315
f 197 88 552
f 117 291 521
f 160 261 439
f 605 328 633
f 191 426 504
f 106 451 653
f 638 92 311
f 364 264 248
f 477 122 534
f 168 390 568
f 361 368 320
f 267 338 544
f 515 643 302
f 80 597 541
f 487 412 128
f 295 175 387
f 596 631 328
f 34 59 204
f 288 545 487
f 556 449 117
f 467 558 250
f 194 173 629
f 400 129 256
f 229 559 305
f 608 399 418
f 628 478 84
f 477 155 27
f 458 249 345
f 5 203 242
f 116 39 370
f 391 178 6
f 406 6 157
f 488 164 200
f 161 197 635
f 134 17 527
f 463 489 363
f 454 408 637
f 471 70 4
f 275 464 73
f 174 270 49
f 239 94 528
f 371 374 385
f 646 360 295
f 319 660 223
f 476 282 98
f 46 103 166
f 466 560 478
f 194 562 308
f 214 650 199
f 363 304 400
f 498 647 290
f 119 307 589
f 569 331 550
f 9 637 133
f 421 388 638
f 259 84 501
f 528 94 26
f 116 395 444
f 410 408 454
f 466 200 369
f 649 427 375
f 179 92 670
f 440 634 281
f 39 522 488
f 312 224 54
f 578 546 468
f 189 51 205
f 569 174 331
f 399 199 577
f 267 205 371
f 460 22 48
f 361 320 514
f 336 457 551
f 411 265 211
f 78 283 593
f 106 653 316
f 325 260 99
f 66 318 622
f 236 145 57
f 430 645 140
f 151 413 2
f 61 24 360
f 87 111 238
f 317 31 86
f 49 334 630
f 152 234 97
f 294 664 105
f 506 198 50
f 247 108 66
f 587 505 167
f 205 658 346
f 363 400 386
f 56 512 663
f 321 207 120
f 554 558 467
f 625 303 546
f 591 286 202
f 61 441 24
f 48 590 531
f 212 531 590
f 180 318 66
f 657 184 321
f 10 327 170
f 212 590 592
f 432 305 452
f 495 604 576
f 244 542 383
f 457 574 449
f 479 58 566
f 13 438 600
f 450 137 621
f 599 189 632
f 548 640 582
f 10 523 327
f 13 345 249
f 251 534 122
f 560 279 222
f 239 425 94
f 642 11 265
f 129 572 60
f 277 128 626
f 400 166 129
f 93 599 632
f 113 147 139
f 292 45 147
f 419 240 289
f 236 262 29
f 91 204 70
f 244 383 165
f 37 91 471
f 650 83 233
f 355 370 530
f 522 152 164
f 493 317 156
f 303 409 546
f 644 27 155
f 432 452 525
f 146 12 100
f 629 201 176
f 378 41 573
f 314 532 168
f 613 407 38
f 625 600 655
f 482 177 376
f 585 160 343
f 12 620 37
f 567 11 355
f 215 503 30
f 443 78 18
f 450 621 598
f 223 148 196
f 483 362 307
f 356 41 428
f 358 423 605
f 522 213 152
f 604 355 301
f 266 263 533
f 258 48 531
f 379 137 450
f 253 481 141
f 523 324 243
f 262 104 513
f 329 118 162
f 351 630 430
f 176 201 491
f 82 478 628
f 66 622 372
f 194 308 234
f 466 369 560
f 558 403 553
f 508 349 293
f 462 244 89
f 326 673 57
f 515 258 34
f 173 351 473
f 541 570 583
f 395 405 569
f 239 512 425
f 242 203 521
f 407 227 634
f 236 424 262
f 209 109 163
f 434 398 387
f 353 294 461
f 515 34 643
f 242 299 574
f 384 286 591
f 116 444 39
f 326 43 673
f 481 645 285
f 666 287 594
f 506 50 231
f 44 82 280
f 635 323 397
f 426 202 504
f 332 437 656
f 29 610 19
f 176 491 557
f 136 393 230
f 319 376 177
f 112 339 672
f 555 259 447
f 69 44 43
f 631 206 328
f 617 551 396
f 392 454 9
f 172 427 649
f 328 389 633
f 585 343 161
f 550 173 276
f 420 598 662
f 499 378 389
f 662 648 180
f 624 558 554
f 348 556 416
f 34 258 59
f 172 248 427
f 151 2 606
f 618 212 110
f 661 154 107
f 367 310 341
f 334 115 630
f 6 669 465
f 310 179 317
f 473 430 140
f 200 561 119
f 271 261 228
f 210 272 288
f 494 550 616
f 230 416 51
f 522 612 213
f 407 440 506
f 132 418 657
f 251 535 575
f 136 182 123
f 219 229 424
f 72 10 170
f 446 145 209
f 540 167 171
f 209 330 109
f 646 226 360
f 527 115 114
f 660 327 223
f 441 73 325
f 586 246 82
f 28 226 646
f 570 631 596
f 446 14 99
f 162 465 652
f 117 20 208
f 125 176 557
f 163 109 415
f 371 205 374
f 633 389 267
f 112 75 339
f 670 92 571
f 321 386 207
f 489 304 363
f 595 611 581
f 649 284 220
f 458 665 249
f 110 509 479
f 243 324 245
f 354 364 352
f 137 36 621
f 586 357 246
f 113 139 401
f 14 163 45
f 232 394 555
f 158 168 568
f 256 129 281
f 135 588 347
f 215 526 503
f 225 436 289
f 256 281 634
f 665 644 448
f 191 154 614
f 379 414 137
f 668 99 260
f 445 315 181
f 350 365 193
f 602 68 21
f 618 531 212
f 592 590 392
f 161 343 197
f 191 504 520
f 38 270 26
f 565 346 496
f 136 230 639
f 111 252 5
f 252 268 500
f 101 518 615
f 157 6 118
f 651 404 74
f 326 57 145
f 33 101 564
f 449 291 117
f 142 356 623
f 351 49 630
f 630 285 430
f 354 85 264
f 481 185 143
f 243 309 382
f 169 206 631
f 55 406 186
f 386 256 207
f 495 576 507
f 20 496 208
f 74 404 300
f 644 3 448
f 649 375 284
f 259 501 447
f 17 141 527
f 395 616 444
f 236 29 145
f 32 564 435
f 112 344 359
f 214 83 650
f 368 95 320
f 110 479 178
f 63 25 664
f 455 266 533
f 374 543 346
f 580 187 149
f 136 123 490
f 533 263 421
f 219 232 619
f 13 249 377
f 487 128 138
f 303 53 542
f 528 218 607
f 617 396 348
f 541 169 570
f 42 422 131
f 334 114 115
f 195 313 263
f 130 470 529
f 559 508 15
f 188 507 548
f 508 536 349
f 88 420 662
f 186 406 157
f 130 96 409
f 646 387 398
f 455 475 266
f 528 607 144
f 323 552 108
f 381 260 464
f 394 259 555
f 78 593 490
f 397 65 660
f 601 70 55
f 424 432 104
f 624 300 558
f 523 382 148
f 224 298 671
f 514 586 44
f 483 485 431
f 443 472 78
f 538 98 33
f 127 379 450
f 130 409 609
f 262 513 610
f 158 568 512
f 500 521 203
f 659 459 160
f 215 269 526
f 388 274 519
f 192 574 457
f 277 626 221
f 319 223 376
f 68 443 306
f 509 257 58
f 278 476 485
f 125 557 537
f 45 42 147
f 604 301 576
f 137 583 36
f 519 602 571
f 455 524 475
f 329 162 476
f 592 9 257
f 24 441 322
f 215 30 335
f 188 437 516
f 560 369 279
f 277 221 253
f 90 447 536
f 308 7 234
f 215 538 269
f 431 335 362
f 175 365 387
f 254 466 246
f 417 391 406
f 64 516 611
f 163 415 42
f 532 241 390
f 562 125 308
f 87 539 309
f 595 352 470
f 668 260 69
f 460 105 150
f 254 357 667
f 131 422 12
f 523 148 327
f 295 322 175
f 354 264 364
f 313 274 388
f 385 374 565
f 36 570 596
f 15 293 286
f 216 188 516
f 452 469 475
f 354 595 581
f 401 139 272
f 355 11 370
f 184 363 386
f 546 297 468
f 539 336 315
f 10 324 523
f 133 142 623
f 460 150 22
f 433 567 547
f 33 564 32
f 349 228 459
f 106 316 337
f 573 205 543
f 366 148 382
f 241 120 390
f 503 526 80
f 386 400 256
f 504 107 520
f 642 75 395
f 485 98 538
f 57 673 232
f 608 199 399
f 95 667 357
f 434 350 489
f 533 421 587
f 664 25 150
f 28 646 398
f 273 167 373
f 592 392 9
f 304 46 166
f 198 114 50
f 486 358 651
f 185 124 47
f 656 548 275
f 286 293 659
f 373 410 190
f 350 193 489
f 672 339 642
f 569 550 494
f 202 585 504
f 30 603 149
f 486 74 126
f 165 383 433
f 623 428 641
f 25 171 150
f 29 262 610
f 341 493 135
f 600 438 217
f 458 345 240
f 419 436 284
f 17 253 141
f 271 429 379
f 601 4 70
f 519 21 68
f 546 409 297
f 303 609 409
f 429 149 414
f 90 555 447
f 124 491 201
f 373 367 410
f 139 131 146
f 323 108 65
f 394 628 259
f 589 362 549
f 220 529 352
f 359 239 144
f 212 592 509
f 458 240 122
f 291 299 521
f 332 226 8
f 482 237 402
f 185 143 124
f 598 579 648
f 134 60 17
f 575 453 83
f 139 146 272
f 425 568 153
f 340 467 250
f 312 76 68
f 576 301 368
f 247 65 108
f 277 138 128
f 423 596 605
f 224 671 54
f 653 549 187
f 194 474 562
f 639 230 51
f 81 581 611
f 185 16 143
f 278 7 537
f 483 7 278
f 221 185 481
f 385 565 647
f 625 53 303
f 120 207 227
f 578 345 13
f 475 614 266
f 373 505 367
f 646 295 387
f 238 5 192
f 672 642 265
f 459 261 160
f 539 654 309
f 140 143 16
f 452 475 524
f 664 150 105
f 622 126 372
f 316 580 492
f 230 348 416
f 580 149 429
f 263 313 388
f 156 86 182
f 644 132 3
f 22 584 48
f 316 653 580
f 390 120 153
f 349 484 228
f 79 547 495
f 578 13 600
f 250 290 255
f 98 101 33
f 135 156 588
f 242 521 299
f 216 507 188
f 136 639 182
f 18 78 490
f 324 250 245
f 271 379 127
f 239 663 512
f 38 231 270
f 247 372 72
f 511 14 45
f 257 133 480
f 318 126 622
f 109 380 353
f 318 486 126
f 644 608 132
f 40 482 402
f 248 375 427
f 206 378 499
f 433 411 567
f 94 38 26
f 362 335 549
f 665 27 644
f 289 240 468
f 235 533 587
f 185 124 201
f 40 402 313
f 411 11 567
f 243 245 87
f 656 188 548
f 180 648 318
f 120 227 153
f 206 502 378
f 23 183 224
f 388 519 638
f 356 632 41
f 668 326 446
f 573 342 205
f 284 96 529
f 88 662 552
f 655 217 151
f 668 446 99
f 498 385 647
f 98 282 101
f 438 56 217
f 156 182 588
f 319 397 660
f 619 90 559
f 381 361 514
f 63 102 25
f 332 61 360
f 229 619 559
f 613 227 407
f 408 135 347
f 642 395 116
f 52 124 185
f 545 412 487
f 310 317 493
f 300 403 558
f 300 633 403
f 528 26 218
f 549 335 187
f 412 4 128
f 553 338 498
f 280 628 394
f 640 576 368
f 396 449 556
f 459 228 261
f 296 654 510
f 149 603 414
f 610 513 102
f 72 497 340
f 121 672 265
f 458 27 665
f 344 413 663
f 368 301 95
f 81 516 453
f 440 134 198
f 9 133 257
f 145 29 330
f 656 275 61
f 597 32 541
f 441 511 292
f 635 397 661
f 331 49 351
f 335 30 187
f 355 530 301
f 17 60 456
f 575 62 453
f 8 516 437
f 584 392 590
f 87 238 539
f 626 601 52
f 56 158 512
f 111 5 238
f 332 8 437
f 614 154 195
f 20 565 496
f 430 285 645
f 650 577 199
f 248 85 375
f 482 376 237
f 191 520 154
f 58 517 566
f 124 143 47
f 557 118 329
f 35 657 241
f 347 93 142
f 581 535 627
f 441 325 511
f 591 202 426
f 492 228 484
f 446 209 14
f 425 153 613
f 76 283 472
f 575 535 62
f 160 439 343
f 463 363 184
f 28 233 226
f 448 532 314
f 647 20 500
f 68 76 443
f 273 373 190
f 419 284 67
f 640 368 361
f 245 250 255
f 26 270 174
f 257 480 58
f 45 163 42
f 250 498 290
f 601 186 52
f 175 401 365
f 405 218 569
f 306 18 31
f 666 606 287
f 372 126 624
f 625 578 600
f 552 662 180
f 179 670 317
f 477 214 155
f 495 547 604
f 441 292 322
f 166 572 129
f 102 235 540
f 399 577 434
f 438 158 56
f 406 391 6
f 602 306 571
f 403 338 553
f 43 44 280
f 298 510 671
f 279 119 589
f 212 509 110
f 269 32 597
f 22 150 171
f 100 37 471
f 633 267 544
f 596 328 605
f 121 287 606
f 414 583 137
f 378 573 267
f 112 672 121
f 438 377 158
f 81 453 62
f 632 573 41
f 100 471 412
f 332 360 226
f 584 190 392
f 581 627 67
f 434 577 398
f 439 420 88
f 353 380 294
f 477 534 214
f 582 640 361
f 448 35 532
f 39 488 667
f 161 635 107
f 219 619 229
f 205 543 374
f 650 233 28
f 418 184 657
f 347 588 93
f 216 495 507
f 130 462 470
f 12 37 100
f 336 192 457
f 383 594 636
f 592 257 509
f 476 162 282
f 323 65 397
f 90 536 508
f 661 177 154
f 229 305 432
f 251 122 240
f 266 195 263
f 635 197 323
f 174 49 331
f 594 287 636
f 225 96 284
f 236 219 424
f 561 97 119
f 89 165 79
f 422 461 620
f 298 366 296
f 376 223 196
f 142 93 356
f 401 272 210
f 190 454 392
f 384 15 286
f 182 639 599
f 523 243 382
f 434 387 350
f 17 456 253
f 172 649 220
f 673 394 232
f 275 548 582
f 56 663 413
f 504 585 161
f 529 470 352
f 384 591 469
f 40 154 482
f 587 421 505
# 1352 faces, 0 coords texture

# End of File