####
#
# OBJ File Generated by Meshlab
#
####
# Object domain163.obj
#
# Vertices: 760
# Faces: 1528
#
####
v 145.679031 256.377686 120.932831
v 153.855804 236.163681 113.496284
v 166.931793 256.313538 119.084625
v 164.677200 246.616074 121.736252
v 155.875946 244.362061 122.499969
v 159.978165 230.986572 115.409676
v 168.782990 228.062317 111.103279
v 160.007126 232.060150 110.713341
v 149.870956 246.418030 114.074982
v 149.724152 266.629578 122.460663
v 169.536011 240.314270 114.277977
v 162.027924 236.006485 121.228729
v 155.875961 268.671082 122.381088
v 151.823105 252.276199 113.916794
v 169.560745 238.296143 116.589798
v 149.645599 233.055130 117.007736
v 153.825104 238.245468 122.274895
v 159.976044 260.476105 122.445938
v 166.006790 254.628632 111.545311
v 147.014862 248.447662 115.210373
v 167.304764 236.212524 120.102333
v 150.454376 240.546799 114.793152
v 165.566025 245.167053 109.109207
v 162.020782 246.412491 122.388916
v 164.079987 230.968536 115.424393
v 151.774063 252.273087 122.499992
v 151.933334 236.238602 114.289619
v 149.710251 252.288696 114.416183
v 155.875977 266.629791 122.489822
v 162.761551 269.216919 121.205086
v 164.074890 254.804749 111.212967
v 148.563721 242.325027 121.688995
v 162.093109 236.261749 110.249596
v 146.202209 264.405853 119.139786
v 153.825363 262.732361 115.651329
v 168.122574 232.055664 110.786514
v 169.020706 243.758408 112.928955
v 151.773926 254.324081 122.499992
v 149.723557 254.324158 122.476120
v 149.751587 236.094254 121.143066
v 165.399994 258.410187 120.368919
v 147.640228 270.594727 121.899666
v 167.195923 257.757080 115.356392
v 149.759827 234.307220 118.909073
v 147.745590 270.338257 121.474373
v 151.786179 246.412338 113.575050
v 166.091415 242.306488 120.955688
v 148.370163 240.423889 119.332939
v 147.040314 268.602631 121.792877
v 167.821274 250.099442 112.093750
v 164.079681 234.021271 119.121994
v 162.029694 229.928864 114.113228
v 159.977982 258.804077 113.377342
v 164.066940 245.238724 108.744652
v 155.839905 256.156860 112.519997
v 146.727737 267.897217 120.258064
v 147.714569 250.227478 122.252899
v 168.763290 230.008255 111.254036
v 146.982880 270.628998 121.919846
v 153.828003 232.030289 116.533440
v 147.835434 244.365173 118.874023
v 157.931229 256.316101 112.131050
v 149.723465 252.273117 122.476624
v 158.454102 229.571274 112.506958
v 145.457413 258.496979 118.514275
v 164.474899 252.270340 121.653770
v 159.977997 236.008331 121.225410
v 164.080185 230.015259 110.619827
v 159.996307 230.019928 110.841110
v 149.565613 238.112396 116.593071
v 150.833099 231.254547 115.278419
v 148.775711 233.442429 117.652199
v 157.926987 231.943985 116.594032
v 149.191818 260.475159 115.614571
v 149.745697 237.104568 121.831535
v 153.846481 234.098679 113.663757
v 153.824997 269.571777 120.476685
v 162.632492 266.596191 121.568062
v 167.290939 254.476425 117.007195
v 168.340881 248.365036 114.257492
v 159.977753 252.273132 122.482201
v 146.255844 250.324341 119.139915
v 168.084244 248.414520 112.136765
v 159.978027 257.901611 112.869392
v 147.545090 246.444077 121.264656
v 156.100372 232.005371 112.866150
v 155.237381 232.051117 113.385834
v 163.976028 244.358353 122.099060
v 148.479431 236.408218 120.817696
v 153.825089 270.361115 121.378365
v 157.926849 256.374969 122.499985
v 153.825104 258.425873 122.500008
v 167.463333 244.370911 110.559448
v 155.876068 270.489838 121.979759
v 147.690689 264.440308 117.385597
v 162.030289 249.771683 108.924965
v 169.667755 234.188812 116.412254
v 162.014679 254.324051 122.353638
v 150.945038 232.051880 115.246552
v 158.348297 246.465042 110.157196
v 149.002991 243.160980 115.180008
v 169.018036 242.449310 116.776772
v 157.926651 264.578827 122.486885
v 159.976471 268.530579 119.718758
v 164.076035 249.778809 108.936989
v 168.102570 230.019943 110.854088
v 151.773941 248.463898 122.497543
v 151.773941 266.629791 122.489799
v 157.926987 261.648865 115.000717
v 169.765396 236.169312 116.364075
v 158.961044 238.222229 110.811935
v 149.774048 240.262177 122.228020
v 164.080582 228.209641 111.032295
v 162.022400 244.361862 122.398880
v 167.553192 254.386353 114.331169
v 148.692764 242.287155 116.807663
v 164.084366 238.265701 109.904434
v 149.875687 256.189880 114.835495
v 159.438217 248.178452 109.154594
v 148.961380 233.276825 117.484184
v 151.696030 250.305115 113.820412
v 155.141479 234.105026 113.162292
v 147.067780 251.563614 115.446686
v 157.903992 254.745865 111.367722
v 168.547836 244.415878 112.004311
v 162.037735 268.224091 119.828857
v 162.043823 228.192490 111.041077
v 146.177689 252.341827 121.163094
v 169.414413 242.252228 114.488258
v 166.088989 235.272919 120.173141
v 162.027924 234.105865 110.446716
v 146.801865 268.703003 121.263428
v 155.875931 254.324051 122.499969
v 148.497513 243.267868 116.477715
v 149.767822 242.311783 122.248787
v 168.113708 230.153305 113.930748
v 164.077484 242.316467 109.469589
v 145.705414 258.412750 120.927345
v 168.780029 236.148911 111.293922
v 166.128372 230.017380 110.645531
v 162.028961 254.827911 111.169579
v 167.412415 256.295959 114.458359
v 157.926620 266.629791 122.476227
v 164.865952 242.331772 121.821793
v 154.593567 246.131485 112.776344
v 165.612915 249.674591 109.179878
v 155.875580 261.645416 115.006050
v 155.875977 238.245377 122.274879
v 166.011261 252.095963 110.382156
v 147.699463 268.412628 119.936081
v 157.926865 242.310837 122.499985
v 157.926819 236.008026 121.225845
v 154.710571 256.862579 113.022842
v 169.128662 236.140778 118.035072
v 159.422409 229.558044 111.373199
v 147.023041 248.927780 121.877884
v 169.022308 234.251312 117.858681
v 159.999039 269.499664 120.566956
v 153.825134 242.310883 122.499992
v 162.028824 235.109085 120.381386
v 157.926971 237.071228 121.892784
v 167.228806 235.396484 119.808823
v 159.965195 266.628204 122.356583
v 158.041031 230.158447 112.024658
v 164.075806 253.891220 110.746597
v 166.128616 229.941208 114.102875
v 145.828430 260.528564 120.966011
v 167.338928 238.185196 120.220444
v 155.792572 240.253342 112.294426
v 164.061325 248.447037 108.781410
v 153.825089 262.528076 122.500015
v 164.076370 236.035416 121.203606
v 166.485291 259.520081 114.876831
v 148.424484 244.401321 121.749039
v 166.147919 240.277756 121.113533
v 164.082428 228.412445 111.980721
v 151.774277 246.413147 122.479980
v 157.926971 265.923523 117.656647
v 164.073517 250.683197 109.262726
v 166.031189 240.264313 109.952644
v 146.630432 252.284851 121.794151
v 151.768372 231.329224 115.354324
v 149.725815 248.465469 122.432976
v 164.076370 240.275726 109.691238
v 155.895782 244.359970 112.018036
v 154.307632 242.334732 112.834602
v 164.804886 244.350693 121.747650
v 157.600922 238.202713 111.483490
v 146.743973 248.548111 116.015190
v 147.685593 256.348267 115.865494
v 151.780838 248.460434 113.642067
v 164.000687 242.277344 122.129463
v 166.547211 248.426605 109.587746
v 146.201797 258.400604 117.371712
v 157.926178 269.567749 120.481911
v 167.412766 256.375244 115.396599
v 147.707047 248.456177 122.145691
v 157.926941 244.362076 122.499954
v 164.080078 231.937195 116.599442
v 149.813797 262.574707 116.022163
v 167.467239 246.406799 110.501633
v 162.765839 269.306366 121.186340
v 147.034927 270.692841 121.983841
v 169.959885 236.211685 114.304039
v 168.662552 246.484558 114.531898
v 145.400955 260.082062 119.642174
v 148.789963 233.386902 117.653664
v 164.528641 248.466385 121.721100
v 151.773926 258.425812 122.499977
v 153.825089 264.578705 122.499992
v 159.977524 258.425812 122.477737
v 157.933105 270.561432 121.883957
v 157.926971 233.021866 117.932579
v 159.969040 264.578857 122.384079
v 147.708893 258.425568 122.269753
v 155.875992 258.425873 122.500000
v 164.933655 240.197540 121.900482
v 153.824997 235.106155 120.384125
v 163.893097 246.336563 122.066513
v 164.664246 267.311584 119.121536
v 155.875961 250.221878 122.499977
v 168.346176 238.272491 119.150902
v 148.753922 239.979630 118.116096
v 151.775421 238.246536 122.266891
v 163.523499 256.257507 121.984909
v 155.825134 248.424347 112.149490
v 146.445602 254.356155 116.704887
v 155.819839 246.513824 112.083458
v 156.596817 230.183319 113.103027
v 168.133911 233.230972 117.723900
v 168.150131 231.137222 115.284103
v 146.189667 262.503265 121.202179
v 157.926834 252.273132 122.499985
v 163.866394 262.505096 121.156631
v 157.928009 257.884430 112.901550
v 145.426804 256.381805 118.489777
v 149.672836 232.918167 116.970886
v 162.689697 269.288788 121.218842
v 157.926941 248.463943 122.499985
v 148.186050 242.418106 118.973076
v 149.076523 258.425568 115.393364
v 151.783356 261.570709 115.168663
v 155.876007 265.923492 117.656837
v 159.978119 234.008957 119.132515
v 151.790955 232.070663 116.494865
v 162.053452 240.284790 109.765907
v 146.580200 249.568756 117.058708
v 157.926865 260.476837 122.498650
v 145.312012 255.151886 119.902641
v 164.842270 262.484283 120.161331
v 146.282135 264.511230 121.233078
v 149.738083 264.606201 116.967743
v 153.823456 261.621002 115.050522
v 146.822372 265.589508 118.250381
v 146.756119 264.688477 117.960678
v 146.248672 256.283295 117.064598
v 149.646408 248.454880 114.088791
v 153.825089 266.984802 118.431801
v 153.560394 246.560471 113.158333
v 157.152725 244.377365 111.199715
v 153.825027 234.011871 119.130173
v 149.726730 265.891113 117.706200
v 152.114044 232.142502 114.661163
v 147.709427 262.528656 122.278053
v 164.080063 229.910599 114.127434
v 149.687729 236.171463 116.644753
v 148.949814 256.878601 115.203018
v 160.017410 246.434143 109.271599
v 146.809891 248.219864 116.922951
v 159.977707 256.375061 122.481071
v 151.774033 268.582825 119.655952
v 150.813004 236.183517 115.139877
v 157.979553 253.813782 110.948280
v 161.600388 266.621735 122.023125
v 155.875977 260.476898 122.499992
v 153.583664 238.107269 113.357437
v 153.825089 252.273148 122.499969
v 157.659134 236.161163 111.588379
v 150.856094 234.019302 115.274849
v 169.339584 238.153091 112.438072
v 168.066574 250.135193 114.541443
v 157.926926 250.221970 122.500008
v 150.305817 260.406708 115.139793
v 153.825012 265.923431 117.656822
v 162.023621 266.896667 118.531158
v 148.143936 244.432907 116.546524
v 169.177521 240.206711 112.434845
v 145.192429 256.392700 119.488846
v 162.668365 269.512634 121.184402
v 162.012360 256.374634 122.344940
v 146.429565 266.467255 121.142014
v 158.700943 242.484665 110.442383
v 153.783966 250.238541 113.372025
v 159.101151 230.739639 111.071632
v 151.775558 240.261536 122.445274
v 164.006546 265.736420 117.891029
v 149.369659 240.274277 116.511276
v 164.571274 267.273682 119.082970
v 148.571838 238.224976 121.733849
v 159.964401 240.297623 110.201370
v 155.897858 257.841583 113.033371
v 167.889328 242.296890 118.960342
v 157.926987 235.106323 120.383888
v 157.255020 249.250473 110.402328
v 149.724121 266.964630 118.457977
v 157.926956 264.679993 116.822052
v 155.741776 236.188736 112.694679
v 149.742188 254.308182 114.557266
v 151.779404 262.693695 115.724419
v 154.073380 231.420853 114.630600
v 151.910873 260.260376 114.724495
v 159.973053 262.525909 122.405258
v 165.762878 260.428955 118.871750
v 159.977814 250.221924 122.485519
v 148.543991 236.104065 119.215858
v 147.324570 254.446960 115.615433
v 164.080032 233.023254 117.931419
v 159.979202 253.904236 110.719940
v 166.131165 230.979889 115.414520
v 155.875961 246.413071 122.499985
v 153.920944 252.387085 113.342072
v 151.774078 266.983276 118.433533
v 166.127869 236.335342 110.311287
v 157.926834 262.527985 122.487846
v 162.110901 244.373062 109.194786
v 159.978012 235.106369 120.383987
v 149.723663 262.528107 122.474434
v 155.876740 231.975479 116.569878
v 155.876099 270.560455 121.884285
v 148.422012 238.108810 119.421562
v 147.724045 266.627960 122.229218
v 165.975311 236.293793 120.852013
v 149.719101 270.490967 121.983551
v 169.789871 238.198074 114.400818
v 159.978439 256.361755 112.024200
v 148.691208 243.075256 115.871712
v 162.029114 256.370300 112.008568
v 153.842926 260.255554 114.418213
v 153.825089 240.260712 122.472084
v 168.861420 233.548340 111.142509
v 146.806763 250.400467 121.859810
v 164.559738 265.484375 118.181046
v 155.875946 256.374969 122.499992
v 167.478989 254.353775 115.758789
v 151.787506 244.364441 113.575867
v 162.226181 246.584579 108.803963
v 151.805435 240.233215 113.959267
v 155.875961 268.582977 119.655708
v 146.920456 270.235992 121.764084
v 164.067200 236.290421 110.181847
v 147.323593 246.351044 119.047554
v 146.474854 249.727982 117.961769
v 157.379868 240.225418 111.422020
v 153.825104 268.583099 119.655785
v 164.050110 261.550568 115.154190
v 158.997299 236.160431 110.925545
v 153.825089 268.671295 122.381073
v 146.749359 266.587067 121.746071
v 164.042618 238.235611 122.185059
v 169.078354 244.760056 114.600296
v 153.825089 256.375000 122.499977
v 168.934952 233.407074 117.440369
v 151.773834 270.560425 121.884270
v 168.038330 234.477219 118.700401
v 165.932632 253.720993 111.071701
v 162.025848 240.260742 122.419342
v 157.926773 268.574829 119.666397
v 151.774048 264.578918 122.499992
v 151.774155 270.360931 121.378510
v 151.775146 264.664856 116.847763
v 156.989532 247.916748 111.013763
v 157.925751 270.357788 121.381470
v 159.970978 250.677704 109.292885
v 155.875977 264.578888 122.500015
v 166.083191 250.300156 109.609665
v 148.044418 254.194778 115.180626
v 151.814026 242.325150 113.707016
v 162.029236 265.890839 117.706360
v 162.018234 248.463577 122.379509
v 159.978073 231.937439 116.599182
v 165.671097 246.417343 109.035332
v 171.404999 230.298004 114.000000
v 148.548843 255.499374 115.071251
v 149.825424 250.162659 114.135277
v 148.607437 235.584732 120.092995
v 167.020233 255.535477 119.099937
v 153.855759 231.409683 115.262367
v 167.053528 255.201111 119.151024
v 166.128799 233.060440 117.900078
v 162.005249 258.423035 122.307587
v 169.372070 231.582794 114.905083
v 159.967636 270.327454 121.364723
v 158.162140 250.144043 109.688103
v 165.213516 262.192780 116.527145
v 163.604507 254.321274 122.018150
v 162.034622 230.020172 110.665703
v 157.927200 258.797943 113.388275
v 159.977798 248.463913 122.485786
v 145.577713 260.489532 118.780891
v 157.926895 258.425873 122.499992
v 168.763260 244.403091 116.511406
v 166.051041 256.192078 112.334389
v 164.988037 238.218674 121.932213
v 162.028900 228.133179 111.142105
v 162.028397 261.638306 115.018829
v 157.929535 231.039978 115.370705
v 161.423935 268.649170 121.892670
v 168.841919 234.991974 111.255249
v 156.945023 253.636841 111.160622
v 146.804428 262.525360 121.896416
v 155.876007 264.680176 116.822136
v 159.017944 234.105560 110.978897
v 164.302094 258.413788 121.397179
v 158.755508 240.501358 110.626633
v 169.382812 232.529922 115.925476
v 164.079010 257.887360 112.893791
v 162.054688 228.459686 111.939751
v 150.646973 238.382080 115.066612
v 154.656830 238.479736 112.944588
v 156.768509 252.256607 110.680603
v 159.977997 264.678711 116.824409
v 153.825165 236.008316 121.225464
v 157.926971 234.008957 119.132545
v 155.875885 269.571198 120.477280
v 155.945877 242.297745 112.063896
v 159.978043 240.260742 122.472092
v 149.711426 270.560822 121.884468
v 162.014877 252.273041 122.357597
v 159.996765 249.770157 108.992477
v 166.078186 244.341187 109.467186
v 162.032730 242.317017 109.523849
v 160.007416 234.109390 110.674782
v 165.340485 262.326324 118.918861
v 162.055542 260.524536 122.225800
v 151.774017 256.374939 122.500000
v 155.876923 260.316193 114.282173
v 164.589722 264.544006 119.992455
v 149.724030 268.557800 119.689125
v 167.481400 252.201706 112.140869
v 146.469360 250.311432 121.235474
v 146.618668 260.353821 121.809303
v 166.906616 256.391907 119.085579
v 162.028931 253.914581 110.698807
v 148.319733 238.274979 121.148048
v 146.568756 252.363708 116.386703
v 167.070877 250.183365 110.519363
v 162.974075 245.138321 108.861298
v 155.876160 258.755920 113.469009
v 165.642349 248.445847 109.055862
v 163.218704 259.987366 121.911491
v 164.918671 264.489685 118.924774
v 146.560181 256.374023 121.821297
v 155.875992 237.071152 121.892776
v 154.819504 251.647522 112.869133
v 155.875977 235.106354 120.383980
v 166.050125 242.331100 109.829239
v 163.619827 250.220612 122.055351
v 166.128922 234.104355 110.462364
v 166.129715 232.056686 110.519279
v 155.999588 234.107483 112.674889
v 170.011795 234.226334 114.334358
v 145.501343 254.395782 119.014633
v 159.944504 268.663696 122.237328
v 159.977997 233.021835 117.932587
v 147.115753 248.045334 121.667465
v 161.909683 262.516388 122.078842
v 169.242340 242.233826 116.050674
v 147.700562 252.314163 115.079010
v 161.069336 270.516693 121.925056
v 162.029312 238.243835 122.276001
v 155.875977 233.024323 117.930511
v 151.777161 234.058746 119.093460
v 155.875977 236.007965 121.225822
v 151.774063 265.922882 117.657646
v 164.021729 262.567291 115.897125
v 164.078033 260.277893 114.351028
v 150.427414 261.507111 115.388695
v 147.711319 260.476898 122.265442
v 149.723648 250.222031 122.473824
v 159.978104 260.334412 114.249352
v 160.450409 228.176926 111.115723
v 156.049377 230.777725 113.975777
v 168.648880 238.181931 111.371773
v 162.029129 231.936691 116.599953
v 168.053314 240.203705 119.080818
v 164.075638 252.267654 109.995476
v 146.769272 248.434692 121.243248
v 162.025482 264.657410 116.859161
v 151.775223 235.120483 120.371437
v 146.562225 258.421234 121.824684
v 167.798553 250.357513 116.571289
v 166.818954 258.490967 116.514626
v 145.830582 254.394958 121.015572
v 166.027359 238.306595 110.107750
v 146.751694 248.229004 118.621155
v 169.367599 230.845276 113.679764
v 168.579681 240.479523 111.471634
v 164.077850 256.347778 112.048515
v 153.824997 264.679779 116.822472
v 154.537201 240.382401 112.828064
v 147.685364 270.542145 121.984261
v 165.481964 256.276794 120.603935
v 162.029114 252.300430 109.929108
v 157.926849 266.984100 118.432709
v 146.973434 247.489502 115.249886
v 149.662369 232.960709 116.916077
v 168.239502 234.184189 110.800629
v 148.888992 234.591507 118.588455
v 147.711823 264.578613 122.264374
v 159.977982 261.648834 115.000687
v 156.849777 230.034271 112.988808
v 169.559082 234.101166 112.158463
v 149.951340 242.373352 114.640450
v 153.146088 244.388565 113.201759
v 149.738815 246.421082 122.329781
v 165.899872 248.432800 120.707710
v 159.976944 266.964447 118.457230
v 157.748962 232.063690 111.716599
v 167.596146 252.161392 116.304039
v 153.825119 270.489868 121.979668
v 146.605530 248.734787 119.849922
v 167.374771 253.160995 116.988853
v 167.258163 250.184982 118.839859
v 155.875992 270.361206 121.378281
v 157.175446 250.233276 110.368271
v 166.579239 257.807556 119.199860
v 167.244659 256.413269 116.345215
v 162.029022 258.802887 113.379326
v 167.763657 244.399109 118.802841
v 163.631973 266.548798 120.650848
v 161.409027 245.790421 109.047600
v 169.555008 232.071884 112.255455
v 155.875977 262.528107 122.500015
v 157.964355 230.209946 113.951195
v 157.384338 242.255295 111.204826
v 157.696793 234.109039 111.646851
v 146.698242 264.771362 121.827950
v 153.739075 254.324463 113.317337
v 153.825119 246.412918 122.499985
v 149.765610 238.254196 122.147636
v 151.962585 258.396667 114.320938
v 160.903336 270.619873 121.955925
v 162.029022 230.970444 115.422745
v 154.947678 249.250656 112.857002
v 167.747772 238.236389 110.684479
v 153.826706 248.447845 113.239998
v 162.028030 262.720367 115.670204
v 159.977737 254.324112 122.483177
v 168.790497 227.964691 111.024124
v 160.101562 248.565948 108.857048
v 151.775925 236.012390 121.221153
v 168.265762 246.371048 112.051048
v 162.029053 257.903412 112.866150
v 153.666245 256.295807 113.439507
v 157.926895 262.740234 115.637566
v 168.114212 248.334427 116.433807
v 159.977875 246.412979 122.487373
v 154.716949 257.777710 113.228287
v 165.945221 246.404129 120.801857
v 160.055984 242.346069 109.895340
v 147.772049 260.517548 116.386742
v 148.085968 246.539230 121.825142
v 153.825027 270.560486 121.884315
v 166.126389 228.421204 111.971420
v 158.432816 244.470901 110.345406
v 152.117096 231.395767 115.043678
v 155.875992 266.984650 118.431702
v 164.495071 250.217972 121.676552
v 164.432068 254.318726 121.603279
v 159.978882 254.820648 111.182320
v 153.824783 258.406403 113.720581
v 156.838181 252.257553 110.603027
v 167.100037 252.287308 118.771469
v 148.220291 242.261734 121.123123
v 161.990112 238.194183 110.047462
v 149.726471 270.356812 121.384216
v 162.028961 233.021805 117.932518
v 157.924774 268.669312 122.361755
v 157.926987 260.333221 114.251396
v 162.029114 234.009354 119.132187
v 148.850891 238.420715 118.159714
v 166.935516 257.441498 113.495506
v 159.978851 252.272141 109.993225
v 155.894501 231.191391 115.289040
v 164.078156 234.100021 110.379036
v 147.868195 248.410309 114.688492
v 164.774826 264.048340 117.503807
v 157.982193 248.479065 109.873199
v 166.937469 256.157898 119.134819
v 159.108536 249.842300 109.185280
v 154.942123 250.211533 112.908760
v 147.798630 250.193817 114.800964
v 151.773926 250.221878 122.500000
v 166.130768 231.952255 116.587303
v 145.227768 258.399689 119.493500
v 155.875961 252.273102 122.499992
v 146.556320 266.414246 119.367348
v 155.875977 242.310913 122.499985
v 153.825104 260.476837 122.500008
v 147.687286 258.381836 116.146606
v 149.884155 244.375977 114.287323
v 159.977997 242.310883 122.489807
v 151.902878 256.370972 114.100395
v 153.152298 242.287277 113.239456
v 157.926834 246.412888 122.499969
v 153.825104 248.463959 122.499992
v 165.583298 260.972473 115.550514
v 163.605835 252.272766 122.023880
v 165.668167 252.260941 120.749657
v 162.026077 242.309311 122.426315
v 146.912842 247.458633 115.432793
v 159.978668 265.923370 117.657394
v 168.472015 246.240982 116.348053
v 150.222946 258.408539 114.892532
v 164.077606 235.132843 120.359909
v 162.016129 250.221710 122.365807
v 168.896332 232.057739 111.173058
v 160.011368 236.167892 110.602837
v 155.876022 234.009018 119.132530
v 163.290390 258.409393 122.005661
v 160.677505 247.406311 108.885704
v 151.773361 237.072357 121.890907
v 150.917587 231.198273 115.172661
v 156.840515 252.258820 110.725815
v 166.899017 251.858063 110.986465
v 167.499268 246.362534 118.901917
v 159.978577 237.070251 121.894562
v 147.727463 266.780182 118.695007
v 164.079926 232.055801 110.485168
v 168.519073 242.288300 111.673782
v 154.267624 244.423431 112.819077
v 157.043243 246.430786 111.143806
v 159.977890 244.362076 122.490295
v 169.513275 236.136703 112.402924
v 166.159973 260.331390 116.241158
v 165.945343 260.008392 114.661980
v 166.075760 257.757416 113.109825
v 157.926926 240.260712 122.472084
v 153.824921 237.071014 121.893150
v 169.118912 242.279480 112.865547
v 151.774506 244.362137 122.477173
v 146.471970 260.314880 117.434258
v 155.867340 254.353531 112.122696
v 155.754410 238.093704 112.451057
v 159.985092 270.580627 121.910851
v 163.984451 264.502380 117.119461
v 153.825272 233.039139 117.918869
v 159.978088 238.245377 122.274895
v 160.020889 244.380859 109.670570
v 145.918976 252.334351 118.997650
v 167.655457 240.187653 110.657295
v 166.701340 252.276993 119.646606
v 157.926926 254.324112 122.500000
v 149.725174 268.669464 122.356071
v 165.915298 250.222641 120.673279
v 163.634613 248.452866 122.079140
v 159.013428 232.057709 110.967201
v 149.723618 260.476776 122.472847
v 147.875763 262.487091 116.785889
v 151.774017 268.671082 122.381088
v 167.350708 248.384918 110.488350
v 164.079041 228.135666 111.136292
v 165.143890 260.349030 120.233360
v 146.598175 250.406128 116.470474
v 149.757690 244.363815 122.276947
v 147.707611 256.374908 122.276306
v 164.068619 237.041458 121.920715
v 146.604691 262.404724 117.795494
v 166.134567 228.208328 111.028900
v 168.193115 236.184738 119.233322
v 162.028931 250.709122 109.216110
v 167.009613 256.082336 112.997368
v 153.453506 240.254974 113.278343
v 153.970367 232.190750 114.004257
v 163.790909 264.527313 120.985519
v 162.037384 248.453339 108.733070
v 153.825104 254.324097 122.499977
v 149.723572 256.375031 122.475037
v 148.285858 240.281815 121.116547
v 169.201004 244.091125 114.310051
v 164.061539 245.153641 108.718353
v 148.686447 244.737930 115.081856
v 167.366013 248.461456 118.793419
v 168.146408 232.117401 116.444489
v 147.707016 254.323868 122.277473
v 147.429565 246.471542 116.441216
v 166.056061 258.593781 113.701492
v 169.779205 232.224716 114.400497
v 157.929306 270.490112 121.981400
v 148.060822 246.561020 115.006432
v 169.346115 240.213394 116.401512
v 147.750763 269.393616 120.721443
v 168.056015 236.149780 110.833344
v 151.773819 270.489960 121.979973
v 149.723602 258.425903 122.475304
v 167.784500 252.247620 114.440292
v 151.774216 269.570496 120.478172
v 149.747116 235.249924 120.275238
v 164.078918 258.784821 113.409889
v 160.373489 228.209900 111.138878
v 155.875931 240.260712 122.472084
v 147.727173 265.776184 117.913857
v 151.666489 233.096176 117.805168
v 151.899124 254.343384 114.009689
v 162.036301 237.066193 121.901443
v 148.612839 240.248734 121.671333
v 166.727570 251.076584 119.739655
v 159.958450 270.518707 121.984413
v 168.081833 228.538239 111.823959
v 153.825073 244.362122 122.500000
v 164.362320 256.562805 121.552605
v 162.029236 260.332306 114.253227
v 166.122574 234.113571 119.032585
v 147.988861 244.589127 121.212563
v 157.926865 238.245407 122.274857
v 164.095963 260.588959 121.335388
v 166.142075 228.134964 111.137245
v 168.209915 228.094360 111.105453
v 147.739944 268.666443 122.165474
v 155.894867 250.199310 111.999924
v 146.570084 254.322998 121.808479
v 169.300232 230.228226 112.202553
v 166.573074 246.437561 109.587250
v 151.774078 260.476868 122.499992
v 167.135910 254.048111 112.470451
v 159.978027 262.738586 115.640617
v 148.646713 237.275574 121.585358
v 164.027969 240.247925 122.231270
v 167.016296 258.315063 114.452385
v 162.746094 265.360229 121.665306
v 161.839050 264.520630 122.051849
v 155.875946 262.740295 115.637779
v 149.726212 269.554962 120.498672
v 165.609863 254.319489 120.710114
v 147.058594 250.214066 115.333412
v 162.029510 232.056656 110.517937
v 151.773926 262.528076 122.499985
v 166.209122 238.206009 121.156586
v 151.818497 238.255981 114.193291
v 168.787643 228.995392 111.618553
v 164.621689 267.204010 119.055786
v 169.106537 237.644760 118.000305
v 152.027359 234.098145 114.447098
v 167.471222 242.262466 110.590660
v 153.825058 250.221909 122.499977
v 164.905838 237.113541 121.759834
v 155.875961 248.463867 122.499977
v 160.050735 228.761505 111.712128
v 159.986237 230.015488 114.048546
v 164.061508 245.225418 108.688194
v 160.105728 238.319183 110.360695
v 145.962540 262.433441 119.070854
v 147.712173 252.273422 122.263168
v 168.154480 228.152481 111.026260
v 166.022949 244.356293 120.880363
v 153.825134 266.629883 122.489807
v 169.182526 243.749023 115.470917
v 155.071640 235.467529 113.068321
v 151.774765 242.310974 122.474060
v 149.723434 264.578735 122.476685
# 760 vertices, 0 vertices normals

f 628 150 56
f 301 62 235
f 286 682 686
f 15 11 334
f 618 131 33
f 568 66 655
f 426 151 602
f 668 34 752
f 249 462 288
f 612 378 285
f 668 659 95
f 467 680 129
f 414 111 751
f 99 566 263
f 700 69 155
f 658 478 264
f 241 74 561
f 749 406 6
f 53 528 480
f 96 170 105
f 51 713 389
f 412 8 432
f 341 197 156
f 28 14 308
f 244 423 303
f 216 400 91
f 386 388 573
f 130 162 364
f 16 703 245
f 599 171 275
f 212 329 524
f 106 58 36
f 323 507 693
f 692 438 733
f 66 609 655
f 89 330 444
f 614 541 283
f 586 592 735
f 539 606 320
f 327 737 724
f 692 45 349
f 613 205 360
f 476 636 607
f 702 254 95
f 606 747 320
f 732 109 555
f 277 677 596
f 456 744 430
f 476 607 355
f 619 455 423
f 369 563 363
f 196 729 142
f 522 519 573
f 564 166 709
f 649 431 325
f 341 181 57
f 280 334 11
f 318 570 273
f 145 185 228
f 72 120 16
f 558 55 301
f 422 639 473
f 319 594 231
f 311 571 338
f 443 486 165
f 676 750 170
f 38 677 277
f 708 645 469
f 286 336 101
f 695 209 435
f 459 36 458
f 70 297 223
f 137 180 456
f 87 460 122
f 248 324 18
f 10 654 108
f 380 484 543
f 85 197 562
f 595 167 138
f 431 184 137
f 480 712 405
f 504 367 348
f 598 5 151
f 180 651 456
f 41 663 313
f 103 324 374
f 661 552 83
f 479 753 63
f 387 584 482
f 500 169 186
f 537 410 232
f 548 98 428
f 728 217 403
f 474 499 284
f 642 561 659
f 285 220 126
f 52 543 265
f 311 338 253
f 118 603 614
f 99 263 279
f 384 191 121
f 517 285 104
f 195 372 524
f 372 212 524
f 210 756 374
f 150 305 438
f 318 443 141
f 103 374 29
f 661 83 446
f 199 594 319
f 71 182 566
f 83 80 50
f 647 245 703
f 420 720 525
f 629 140 459
f 657 8 412
f 697 77 369
f 575 117 246
f 200 309 252
f 574 174 32
f 482 64 511
f 325 137 681
f 705 667 172
f 74 659 561
f 36 58 617
f 644 188 169
f 98 395 608
f 465 156 197
f 363 563 520
f 302 529 102
f 443 31 141
f 346 447 54
f 178 243 306
f 64 748 155
f 286 101 682
f 379 616 656
f 412 278 536
f 589 3 442
f 186 425 631
f 501 333 654
f 226 304 720
f 16 182 71
f 510 405 726
f 269 247 352
f 502 442 589
f 565 560 649
f 225 413 711
f 598 151 638
f 505 611 690
f 648 715 638
f 698 40 489
f 746 403 738
f 252 370 262
f 174 714 562
f 167 752 232
f 412 356 278
f 74 477 200
f 512 532 461
f 610 114 192
f 555 510 726
f 481 127 700
f 740 496 722
f 79 573 388
f 449 723 193
f 583 318 273
f 719 501 654
f 338 448 436
f 330 266 70
f 429 676 96
f 724 737 599
f 755 559 626
f 296 587 342
f 464 244 577
f 377 604 345
f 516 523 683
f 183 107 177
f 698 489 472
f 36 617 507
f 441 490 138
f 319 231 136
f 628 305 150
f 537 251 358
f 522 79 344
f 530 220 437
f 369 77 90
f 539 320 5
f 646 394 587
f 553 416 528
f 417 52 176
f 249 288 1
f 214 163 731
f 583 503 318
f 39 678 38
f 683 523 556
f 255 597 34
f 183 57 479
f 631 425 185
f 387 60 584
f 235 84 397
f 428 608 457
f 677 361 133
f 84 337 553
f 316 190 256
f 380 464 577
f 718 549 7
f 570 62 124
f 559 683 626
f 606 745 747
f 402 672 637
f 292 260 535
f 426 602 366
f 183 479 107
f 65 399 206
f 591 720 420
f 8 69 396
f 33 117 575
f 475 607 394
f 136 496 740
f 346 54 750
f 104 126 158
f 163 274 731
f 739 276 347
f 63 39 26
f 226 588 304
f 88 4 187
f 713 130 364
f 325 346 531
f 373 393 590
f 587 451 342
f 6 380 543
f 356 111 188
f 202 238 289
f 574 714 174
f 734 502 589
f 488 475 646
f 614 603 541
f 496 391 688
f 60 245 647
f 323 545 494
f 686 269 495
f 364 157 362
f 409 273 124
f 603 538 554
f 276 644 419
f 61 686 351
f 82 352 664
f 79 527 344
f 486 375 149
f 336 134 116
f 33 350 117
f 147 109 732
f 397 84 53
f 397 53 579
f 497 483 287
f 47 302 175
f 81 428 616
f 602 198 633
f 757 360 680
f 709 136 740
f 551 75 622
f 103 312 324
f 706 112 540
f 650 664 445
f 500 644 169
f 674 87 76
f 416 402 637
f 689 708 463
f 660 357 756
f 130 332 162
f 275 533 248
f 584 406 534
f 114 88 192
f 662 717 669
f 54 23 750
f 346 750 676
f 550 429 590
f 498 19 402
f 392 238 542
f 637 672 582
f 44 472 703
f 308 14 704
f 636 729 173
f 484 577 317
f 462 227 236
f 68 140 629
f 721 452 685
f 727 299 75
f 268 325 531
f 313 492 442
f 89 444 299
f 271 354 697
f 602 610 366
f 668 95 255
f 218 455 619
f 399 194 642
f 601 9 690
f 657 69 8
f 508 237 207
f 178 517 504
f 167 206 752
f 711 413 502
f 219 656 208
f 578 463 163
f 26 38 277
f 465 487 156
f 485 15 222
f 504 517 367
f 557 605 239
f 583 671 503
f 631 185 145
f 139 634 280
f 5 320 198
f 361 343 133
f 549 740 7
f 375 661 446
f 335 141 337
f 310 263 566
f 139 280 483
f 288 138 1
f 681 456 430
f 200 95 659
f 662 669 113
f 32 174 135
f 481 748 404
f 623 71 566
f 528 699 712
f 694 333 427
f 586 735 20
f 175 485 168
f 723 201 193
f 617 722 532
f 105 375 179
f 556 281 80
f 627 648 705
f 209 724 92
f 593 745 606
f 45 576 427
f 123 592 468
f 719 59 501
f 679 574 32
f 331 719 10
f 294 518 164
f 395 711 569
f 372 158 392
f 436 109 147
f 331 509 358
f 328 213 73
f 300 575 246
f 462 236 288
f 92 216 343
f 364 670 157
f 370 499 474
f 335 84 235
f 392 542 645
f 756 357 29
f 486 149 165
f 645 542 469
f 628 597 254
f 690 586 20
f 178 612 517
f 324 312 18
f 167 232 410
f 117 494 184
f 270 400 211
f 747 221 239
f 585 458 350
f 577 580 317
f 533 374 324
f 601 690 682
f 358 291 49
f 492 635 173
f 222 15 742
f 47 529 302
f 428 98 608
f 596 133 233
f 745 221 747
f 506 279 272
f 580 160 51
f 689 329 212
f 181 721 753
f 97 204 461
f 629 459 585
f 706 32 112
f 284 243 567
f 199 317 389
f 217 144 175
f 76 27 743
f 499 732 411
f 200 477 242
f 310 674 263
f 261 619 471
f 545 483 651
f 675 437 250
f 681 430 23
f 276 500 673
f 56 132 597
f 242 253 309
f 464 73 213
f 149 446 625
f 560 431 649
f 222 742 154
f 664 269 189
f 135 759 295
f 5 198 151
f 479 593 107
f 350 323 117
f 171 533 275
f 82 521 495
f 446 50 625
f 100 588 371
f 759 159 339
f 482 229 86
f 538 643 55
f 387 182 245
f 159 598 701
f 201 552 661
f 615 172 130
f 208 568 516
f 78 530 675
f 101 336 116
f 300 246 560
f 307 278 644
f 354 348 77
f 691 129 11
f 442 492 527
f 453 161 152
f 326 67 160
f 16 71 623
f 407 238 202
f 125 680 360
f 480 528 712
f 445 376 316
f 609 386 652
f 589 527 79
f 292 535 414
f 415 97 688
f 432 736 131
f 574 240 714
f 684 362 415
f 305 322 438
f 418 297 70
f 725 115 142
f 219 208 4
f 390 434 620
f 672 142 729
f 407 469 238
f 615 130 713
f 557 24 114
f 455 303 423
f 271 733 438
f 444 48 679
f 693 139 545
f 77 424 90
f 105 146 375
f 597 291 251
f 420 624 643
f 673 500 186
f 626 683 613
f 749 52 417
f 490 215 666
f 418 272 27
f 642 659 668
f 135 295 112
f 383 190 376
f 481 700 748
f 125 37 680
f 370 35 499
f 89 299 727
f 644 278 188
f 660 756 108
f 552 205 80
f 664 189 20
f 740 722 58
f 589 79 386
f 408 634 139
f 384 14 28
f 440 82 650
f 619 423 213
f 479 63 593
f 527 196 344
f 616 457 656
f 153 55 558
f 505 189 611
f 9 345 46
f 401 360 757
f 416 637 699
f 736 68 629
f 546 226 544
f 150 438 692
f 226 720 544
f 141 31 337
f 50 696 439
f 404 662 113
f 504 567 243
f 164 155 69
f 344 196 142
f 750 381 170
f 712 476 355
f 578 94 689
f 350 458 323
f 214 731 466
f 627 161 715
f 418 27 739
f 146 193 375
f 594 389 230
f 643 409 124
f 550 590 393
f 317 51 389
f 695 658 209
f 648 638 426
f 14 293 321
f 74 200 659
f 655 707 523
f 366 610 728
f 368 108 210
f 55 124 62
f 108 756 210
f 277 596 221
f 22 418 347
f 436 397 579
f 624 572 409
f 327 264 509
f 759 339 295
f 529 401 102
f 470 359 667
f 61 351 714
f 498 402 416
f 220 298 741
f 520 94 13
f 331 760 509
f 625 439 725
f 314 616 379
f 283 242 477
f 200 242 309
f 61 286 686
f 266 418 70
f 178 421 612
f 236 595 288
f 507 512 408
f 166 319 136
f 716 663 41
f 633 114 610
f 467 757 680
f 82 495 352
f 1 138 490
f 483 280 287
f 726 547 421
f 429 373 590
f 693 408 139
f 503 486 443
f 694 363 520
f 507 617 340
f 318 503 443
f 618 33 751
f 462 445 227
f 165 19 31
f 8 736 432
f 612 285 517
f 380 577 484
f 249 1 493
f 649 325 268
f 89 40 698
f 588 393 525
f 630 640 37
f 363 427 576
f 35 732 499
f 540 112 224
f 503 179 486
f 85 351 495
f 72 16 506
f 386 3 388
f 396 113 68
f 338 147 253
f 149 625 365
f 179 375 486
f 18 434 390
f 420 525 624
f 131 585 33
f 550 621 346
f 441 478 215
f 218 489 551
f 398 282 314
f 710 5 598
f 609 734 386
f 148 701 715
f 306 726 421
f 633 605 557
f 546 544 293
f 530 298 220
f 143 29 13
f 271 258 354
f 240 48 297
f 543 25 265
f 508 89 385
f 4 755 187
f 435 209 361
f 403 175 738
f 674 76 743
f 456 651 744
f 460 518 536
f 721 685 753
f 309 35 370
f 547 355 475
f 679 32 706
f 523 519 491
f 678 695 435
f 709 740 549
f 47 755 529
f 107 593 606
f 630 37 125
f 335 235 62
f 692 733 45
f 705 470 667
f 711 502 734
f 484 317 199
f 458 507 323
f 299 706 540
f 313 635 492
f 8 396 736
f 603 554 541
f 435 361 677
f 596 233 282
f 563 329 94
f 405 355 547
f 519 344 115
f 177 107 539
f 224 295 17
f 200 252 95
f 165 149 365
f 86 164 518
f 656 568 208
f 391 415 688
f 210 374 533
f 240 286 61
f 345 514 46
f 67 627 12
f 569 734 609
f 717 718 754
f 673 186 604
f 47 187 755
f 425 535 185
f 96 105 179
f 663 433 313
f 502 41 442
f 399 642 752
f 347 276 673
f 641 710 159
f 719 49 59
f 230 364 362
f 390 620 225
f 565 649 100
f 225 620 413
f 76 2 27
f 650 82 664
f 268 346 621
f 508 44 237
f 118 704 603
f 268 531 346
f 236 227 256
f 228 632 226
f 126 30 202
f 221 282 239
f 320 605 198
f 26 277 745
f 445 468 376
f 261 218 619
f 564 709 718
f 258 567 354
f 310 182 387
f 122 307 758
f 417 176 662
f 38 435 677
f 642 194 600
f 702 305 628
f 259 631 145
f 12 172 615
f 620 716 413
f 759 641 159
f 622 75 540
f 404 113 127
f 618 751 111
f 83 552 80
f 294 657 518
f 275 248 400
f 475 394 646
f 444 706 299
f 16 245 182
f 180 545 651
f 660 654 333
f 136 231 496
f 711 734 569
f 195 104 158
f 100 268 588
f 295 339 17
f 744 497 630
f 538 55 554
f 491 519 696
f 68 669 140
f 337 498 553
f 507 340 512
f 394 433 587
f 355 607 475
f 211 18 390
f 63 26 593
f 86 518 460
f 45 427 42
f 463 407 274
f 253 147 35
f 647 472 261
f 85 487 465
f 639 453 473
f 69 127 396
f 367 517 104
f 607 635 394
f 716 234 663
f 556 80 613
f 725 142 672
f 398 379 24
f 16 506 237
f 212 645 708
f 545 139 483
f 100 632 260
f 622 540 224
f 732 555 411
f 687 729 636
f 734 589 386
f 434 716 450
f 96 179 671
f 52 265 176
f 270 91 400
f 448 235 397
f 463 708 407
f 267 600 190
f 482 511 229
f 332 21 162
f 170 449 105
f 114 24 88
f 398 314 379
f 718 709 549
f 255 254 597
f 640 129 680
f 172 667 332
f 169 188 353
f 64 534 748
f 607 173 635
f 332 746 738
f 448 397 436
f 175 168 738
f 250 437 451
f 42 427 333
f 513 347 377
f 287 129 640
f 449 193 146
f 51 615 713
f 109 510 555
f 119 393 588
f 137 456 681
f 384 121 14
f 228 260 632
f 697 576 733
f 2 307 644
f 663 250 433
f 686 189 269
f 537 358 509
f 79 388 386
f 320 747 605
f 559 516 683
f 4 208 559
f 702 262 305
f 367 424 348
f 613 360 401
f 274 407 202
f 128 721 181
f 431 137 325
f 515 177 641
f 482 534 64
f 404 417 662
f 751 575 300
f 713 364 230
f 368 210 171
f 579 510 109
f 234 250 663
f 378 220 285
f 132 349 59
f 727 75 40
f 662 176 717
f 459 106 36
f 53 553 528
f 6 406 73
f 441 215 490
f 512 461 204
f 45 733 576
f 50 80 281
f 636 173 607
f 332 738 21
f 513 116 22
f 208 516 559
f 678 666 215
f 697 369 576
f 506 272 266
f 695 478 658
f 218 422 455
f 21 222 670
f 570 141 335
f 328 471 213
f 16 279 506
f 2 122 758
f 296 741 220
f 747 239 605
f 261 489 218
f 704 538 603
f 485 691 15
f 385 89 698
f 429 671 373
f 185 535 260
f 520 563 94
f 192 187 144
f 103 214 312
f 143 578 163
f 90 329 563
f 290 390 225
f 307 536 278
f 112 295 224
f 515 197 183
f 665 641 759
f 691 467 129
f 342 451 741
f 268 621 119
f 17 148 453
f 403 217 175
f 612 488 378
f 440 650 128
f 523 491 556
f 462 493 650
f 716 41 413
f 400 248 211
f 489 40 551
f 485 102 691
f 126 220 298
f 290 225 395
f 65 236 256
f 181 753 57
f 660 333 694
f 42 203 349
f 135 665 759
f 9 586 690
f 578 13 94
f 22 116 297
f 678 215 695
f 375 193 661
f 702 628 254
f 177 539 710
f 318 141 570
f 760 368 737
f 695 215 478
f 395 225 711
f 750 23 381
f 718 7 754
f 244 580 577
f 437 741 451
f 691 102 467
f 398 239 282
f 337 31 498
f 12 705 172
f 191 259 546
f 183 197 57
f 570 124 273
f 587 433 451
f 589 386 388
f 88 219 4
f 330 581 48
f 192 144 217
f 608 395 569
f 356 618 111
f 664 735 123
f 553 498 416
f 676 170 96
f 240 297 116
f 541 554 571
f 441 410 478
f 16 99 279
f 420 624 572
f 117 323 494
f 240 61 714
f 692 349 132
f 440 128 181
f 476 687 636
f 652 386 573
f 158 202 392
f 380 73 464
f 679 240 574
f 543 484 25
f 491 281 556
f 16 237 506
f 1 452 493
f 339 701 148
f 154 110 97
f 85 465 197
f 81 653 548
f 482 584 534
f 679 48 240
f 309 253 35
f 6 543 52
f 664 352 247
f 599 275 216
f 571 301 448
f 19 725 402
f 234 675 250
f 440 487 82
f 39 666 678
f 45 42 349
f 257 46 191
f 314 233 81
f 495 521 487
f 589 3 386
f 480 405 510
f 84 553 53
f 367 104 195
f 159 710 598
f 426 366 470
f 505 690 20
f 168 485 222
f 169 353 425
f 48 581 223
f 207 237 16
f 637 582 687
f 452 666 685
f 167 410 441
f 492 173 729
f 655 652 707
f 496 688 722
f 31 19 498
f 365 725 19
f 671 179 503
f 325 447 346
f 627 705 12
f 60 647 471
f 501 42 333
f 537 232 251
f 699 637 687
f 457 66 568
f 579 480 510
f 133 653 233
f 689 94 329
f 46 514 259
f 262 322 305
f 681 23 54
f 712 355 405
f 261 472 489
f 557 398 24
f 286 134 336
f 341 156 487
f 414 751 300
f 760 10 368
f 58 722 617
f 85 495 487
f 357 520 13
f 35 147 732
f 466 731 675
f 533 324 248
f 508 207 72
f 361 92 343
f 283 541 311
f 494 545 180
f 343 216 91
f 440 181 341
f 628 56 597
f 422 473 455
f 16 237 703
f 624 525 393
f 737 171 599
f 335 337 84
f 311 253 242
f 143 13 578
f 202 530 78
f 28 308 376
f 722 688 532
f 118 614 267
f 537 509 264
f 593 26 745
f 238 30 289
f 326 160 580
f 555 726 306
f 178 504 243
f 672 729 582
f 310 387 482
f 17 339 148
f 430 723 381
f 624 393 572
f 364 162 670
f 188 111 353
f 749 417 748
f 47 175 144
f 634 204 334
f 39 685 666
f 259 228 226
f 6 73 380
f 89 727 40
f 731 730 675
f 656 457 568
f 411 306 243
f 554 558 571
f 651 483 497
f 255 95 254
f 162 21 670
f 299 540 75
f 238 469 542
f 719 654 10
f 513 377 601
f 589 442 526
f 408 512 634
f 81 548 428
f 675 530 437
f 730 78 675
f 316 256 227
f 55 62 301
f 657 536 518
f 686 495 351
f 294 164 69
f 647 703 472
f 608 569 66
f 648 470 705
f 90 424 524
f 511 64 164
f 484 199 25
f 474 284 258
f 568 655 516
f 65 595 236
f 749 6 52
f 752 34 251
f 627 715 648
f 415 362 157
f 241 614 283
f 723 93 201
f 455 473 303
f 597 251 34
f 682 690 686
f 32 135 112
f 579 53 480
f 414 353 111
f 107 606 539
f 634 334 280
f 657 412 536
f 664 20 735
f 513 22 347
f 648 426 470
f 420 572 624
f 106 7 58
f 530 30 298
f 211 390 290
f 269 352 495
f 664 123 445
f 338 436 147
f 591 420 454
f 44 698 472
f 422 551 622
f 697 354 77
f 511 164 229
f 226 371 588
f 470 366 359
f 642 668 752
f 519 115 696
f 432 131 618
f 756 29 374
f 571 558 301
f 21 168 222
f 620 450 716
f 443 165 31
f 570 335 62
f 377 673 604
f 74 283 477
f 9 46 257
f 272 743 27
f 100 649 268
f 754 7 106
f 344 142 115
f 160 615 51
f 39 38 26
f 687 582 729
f 257 592 586
f 270 211 290
f 185 260 228
f 76 122 2
f 65 206 595
f 389 713 230
f 462 650 445
f 165 365 19
f 604 186 631
f 528 416 699
f 452 490 666
f 466 675 234
f 434 234 716
f 633 557 114
f 738 168 21
f 140 754 106
f 207 120 72
f 492 729 43
f 674 482 87
f 660 694 357
f 639 224 17
f 279 263 743
f 513 601 682
f 457 608 66
f 492 43 196
f 548 91 270
f 378 646 296
f 547 475 488
f 651 497 744
f 359 728 403
f 274 202 78
f 65 256 194
f 479 57 753
f 101 513 682
f 453 148 161
f 246 184 431
f 314 282 233
f 308 704 118
f 25 319 166
f 331 358 49
f 409 572 273
f 267 614 241
f 464 213 423
f 588 525 304
f 550 676 429
f 384 28 468
f 674 743 263
f 366 728 359
f 128 650 493
f 523 573 519
f 268 119 588
f 724 599 92
f 220 741 437
f 67 152 161
f 372 392 645
f 516 655 523
f 714 351 85
f 399 752 206
f 415 157 97
f 192 88 187
f 601 345 9
f 731 78 730
f 602 151 198
f 310 566 182
f 401 757 467
f 646 587 296
f 321 454 420
f 276 419 500
f 97 461 688
f 119 621 550
f 665 562 515
f 658 327 724
f 46 259 191
f 172 332 130
f 708 469 407
f 307 460 536
f 501 203 42
f 541 571 311
f 367 195 424
f 221 596 282
f 237 44 703
f 331 49 719
f 265 25 166
f 163 463 274
f 103 143 214
f 77 348 424
f 176 564 717
f 422 622 639
f 684 415 391
f 150 132 56
f 507 408 693
f 67 12 160
f 643 124 55
f 617 532 340
f 670 222 154
f 667 746 332
f 736 629 131
f 492 196 527
f 2 276 739
f 280 11 287
f 125 360 205
f 66 569 609
f 726 405 547
f 10 108 368
f 425 353 535
f 2 644 276
f 385 698 44
f 284 567 258
f 328 73 406
f 330 70 581
f 639 17 453
f 175 302 485
f 195 524 424
f 259 226 546
f 670 154 157
f 383 376 118
f 33 585 350
f 439 696 115
f 64 155 164
f 434 466 234
f 694 520 357
f 262 370 474
f 488 646 378
f 100 371 632
f 24 379 219
f 491 696 281
f 262 474 322
f 15 334 110
f 418 739 347
f 436 579 109
f 292 300 560
f 500 419 644
f 356 432 618
f 379 656 219
f 25 199 319
f 341 57 197
f 522 573 79
f 121 546 293
f 442 3 526
f 267 241 600
f 288 595 138
f 701 598 638
f 702 252 262
f 365 625 725
f 681 750 54
f 701 638 715
f 544 720 591
f 184 494 180
f 327 760 737
f 240 116 286
f 444 330 48
f 286 116 134
f 18 312 434
f 613 80 205
f 742 15 110
f 665 515 641
f 658 724 209
f 1 490 452
f 104 285 126
f 82 487 521
f 601 377 345
f 683 556 613
f 458 36 507
f 471 619 213
f 2 739 27
f 63 753 685
f 218 551 422
f 359 403 746
f 127 113 396
f 589 526 3
f 270 290 98
f 641 177 710
f 121 293 14
f 92 599 216
f 349 203 59
f 429 96 671
f 327 509 760
f 413 41 502
f 292 560 565
f 174 562 665
f 226 632 371
f 271 697 733
f 110 334 204
f 445 123 468
f 712 699 476
f 184 180 137
f 343 91 653
f 50 281 696
f 133 343 653
f 514 631 259
f 340 532 512
f 684 230 362
f 611 686 690
f 128 493 721
f 664 247 269
f 105 449 146
f 315 330 89
f 321 643 538
f 604 631 514
f 700 127 69
f 241 561 600
f 148 715 161
f 611 189 686
f 170 381 449
f 589 442 527
f 195 158 372
f 326 152 67
f 293 544 591
f 557 239 398
f 642 600 561
f 383 118 190
f 677 133 596
f 250 451 433
f 710 539 5
f 201 125 552
f 231 684 391
f 616 428 457
f 93 630 125
f 123 735 592
f 41 313 442
f 314 81 616
f 271 322 258
f 377 347 673
f 257 384 592
f 504 348 567
f 220 741 298
f 752 251 232
f 474 258 322
f 199 389 594
f 548 270 98
f 658 264 327
f 171 210 533
f 501 59 203
f 749 534 406
f 354 567 348
f 202 30 238
f 412 432 356
f 312 466 434
f 207 16 120
f 731 274 78
f 331 10 760
f 580 51 317
f 434 450 620
f 669 754 140
f 372 645 212
f 358 251 291
f 497 287 640
f 529 613 401
f 610 192 728
f 167 441 138
f 594 684 231
f 283 311 242
f 313 433 635
f 60 328 584
f 16 623 99
f 244 303 326
f 681 54 750
f 321 420 643
f 430 93 723
f 249 493 462
f 209 92 361
f 373 671 583
f 126 298 30
f 751 33 575
f 67 161 627
f 70 223 581
f 728 192 217
f 445 316 227
f 196 43 729
f 381 723 449
f 65 194 399
f 482 86 87
f 241 283 74
f 315 266 330
f 410 264 478
f 122 460 307
f 339 159 701
f 166 136 709
f 444 679 706
f 633 198 605
f 394 635 433
f 668 255 34
f 565 100 260
f 548 653 91
f 384 468 592
f 87 86 460
f 325 54 447
f 375 446 149
f 131 629 585
f 97 110 204
f 446 83 50
f 585 459 458
f 600 194 256
f 325 681 54
f 602 633 610
f 154 742 110
f 578 689 463
f 252 309 370
f 652 523 707
f 623 566 99
f 174 665 135
f 694 427 363
f 191 546 121
f 292 565 260
f 376 190 316
f 202 289 30
f 464 423 244
f 287 11 129
f 401 467 102
f 717 754 669
f 678 435 38
f 369 90 563
f 725 439 115
f 202 30 530
f 583 273 572
f 481 404 127
f 430 381 23
f 160 12 615
f 720 304 525
f 294 69 657
f 515 562 197
f 373 583 572
f 292 414 300
f 22 297 418
f 125 205 552
f 745 277 221
f 497 640 630
f 143 163 214
f 315 506 266
f 244 326 580
f 90 524 329
f 76 87 122
f 755 626 529
f 326 303 152
f 640 680 37
f 7 740 58
f 63 685 39
f 216 275 400
f 140 106 459
f 421 488 612
f 508 506 315
f 229 164 86
f 15 691 11
f 24 219 88
f 396 68 736
f 493 452 721
f 60 471 328
f 421 547 488
f 257 191 384
f 625 50 439
f 28 376 468
f 551 40 75
f 308 118 376
f 589 388 3
f 508 72 506
f 98 290 395
f 119 550 393
f 714 85 562
f 312 214 466
f 231 391 496
f 508 385 44
f 47 144 187
f 193 201 661
f 81 233 653
f 749 748 534
f 101 116 513
f 118 267 190
f 689 212 708
f 402 725 672
f 186 169 425
f 48 223 297
f 655 609 652
f 512 204 634
f 584 328 406
f 321 591 454
f 522 344 519
f 499 411 284
f 550 346 676
f 373 572 393
f 652 573 523
f 103 29 143
f 505 20 189
f 529 626 613
f 176 265 564
f 387 245 60
f 296 342 741
f 748 417 404
f 323 693 545
f 699 687 476
f 430 744 93
f 508 315 89
f 639 622 224
f 150 692 132
f 704 321 538
f 571 448 338
f 113 669 68
f 93 125 201
f 426 638 151
f 259 145 228
f 4 559 755
f 411 555 306
f 2 758 307
f 744 630 93
f 414 535 353
f 473 453 152
f 717 564 718
f 248 18 211
f 378 296 220
f 357 13 29
f 595 206 167
f 157 154 97
f 660 108 654
f 537 264 410
f 178 306 421
f 369 363 576
f 700 155 748
f 560 246 431
f 643 624 409
f 265 166 564
f 132 291 597
f 515 183 177
f 667 359 746
f 702 95 252
f 594 230 684
f 279 743 272
f 246 117 184
f 190 600 256
f 284 411 243
f 554 55 153
f 266 272 418
f 392 202 238
f 132 49 291
f 485 302 102
f 14 321 704
f 293 591 321
f 345 604 514
f 9 257 586
f 310 482 674
f 356 188 278
f 271 438 322
f 440 341 487
f 554 153 558
f 473 152 303
f 301 235 448
f 532 688 461
f 158 126 202
f 647 261 471
f 132 59 49
f 737 368 171
# 1528 faces, 0 coords texture

# End of File