####
#
# OBJ File Generated by Meshlab
#
####
# Object domain0588.obj
#
# Vertices: 794
# Faces: 1584
#
####
v 104.272079 71.612473 99.033821
v 104.379562 71.555420 98.519791
v 104.426422 71.403076 99.030258
v 104.407761 71.269997 99.992332
v 104.233917 71.579918 100.002708
v 104.389221 71.258057 101.000465
v 104.219376 71.572693 101.000092
v 104.387291 71.256508 102.000023
v 104.218842 71.572464 102.000008
v 104.387268 71.256470 102.999985
v 104.218864 71.572479 103.000015
v 104.387260 71.256477 103.999992
v 104.218819 71.572464 104.000000
v 104.388626 71.257607 104.999565
v 104.220276 71.572990 105.000214
v 104.411842 71.270035 106.008957
v 104.256729 71.582558 105.997429
v 104.451202 71.478729 106.917068
v 104.343681 71.612778 106.924385
v 104.501373 71.669418 107.211739
v 104.314545 72.164383 96.052933
v 104.429573 72.115005 95.553581
v 104.416595 71.856743 96.021942
v 104.385963 71.835609 97.002815
v 104.275444 72.158920 97.002663
v 104.352524 71.801651 98.000938
v 104.247414 72.144348 98.022697
v 104.147621 72.097725 99.009453
v 104.105675 72.088348 100.000450
v 104.100990 72.087715 101.000023
v 104.100945 72.087723 101.999992
v 104.100967 72.087723 102.999992
v 104.101509 72.087799 104.000015
v 104.119720 72.089043 105.000244
v 104.171288 72.072906 105.986603
v 104.314850 72.007988 106.912827
v 104.528809 72.030205 107.404694
v 104.314766 72.577293 96.054588
v 104.442024 72.621964 95.559433
v 104.275230 72.583138 97.002777
v 104.242180 72.600037 98.022041
v 104.135658 72.648399 99.008453
v 104.104340 72.653847 100.000534
v 104.100945 72.654305 101.000000
v 104.100967 72.654297 102.000008
v 104.101013 72.654282 102.999985
v 104.105293 72.653740 103.999435
v 104.127678 72.647751 104.990807
v 104.250931 72.577621 105.946320
v 104.385750 72.616280 106.472160
v 104.398056 72.323463 106.962723
v 104.422043 72.879288 96.024780
v 104.385101 72.906738 97.003029
v 104.345543 72.943909 98.001511
v 104.247559 73.152977 99.029396
v 104.356255 73.218071 98.515083
v 104.221199 73.168663 100.001144
v 104.218979 73.169472 101.000046
v 104.218857 73.169518 101.999977
v 104.219048 73.169456 102.999924
v 104.221840 73.168488 103.998634
v 104.259178 73.147575 104.968437
v 104.387497 73.197021 105.472191
v 104.375793 72.915459 105.976814
v 104.412109 73.461159 99.018700
v 104.389961 73.483521 100.001373
v 104.387321 73.485458 101.000023
v 104.387260 73.485512 102.000000
v 104.387344 73.485443 102.999947
v 104.390762 73.482986 103.998283
v 104.421265 73.453850 104.978722
v 104.679863 71.009956 100.016846
v 104.909065 70.935242 99.505829
v 104.991447 70.853638 100.028999
v 104.977631 70.832138 101.001427
v 104.660080 70.987587 101.001419
v 104.976746 70.829552 102.000076
v 104.658524 70.985352 102.000023
v 104.976700 70.829391 102.999992
v 104.658470 70.985260 102.999977
v 104.976753 70.829552 103.999969
v 104.658493 70.985329 103.999947
v 104.978439 70.835747 104.997925
v 104.660156 70.987724 104.998672
v 104.985382 70.884384 105.949310
v 104.682083 71.019386 105.974968
v 104.942322 71.036873 106.438622
v 104.867493 71.618729 93.032127
v 104.985725 71.572495 92.528038
v 105.019760 71.421394 93.028236
v 105.002930 71.385803 94.005455
v 104.835144 71.602142 94.005478
v 104.979012 71.259933 94.990158
v 104.775124 71.568481 95.007698
v 104.916641 71.224350 95.999062
v 104.630852 71.528694 95.985596
v 104.906143 71.212868 97.000168
v 104.615036 71.504150 97.000732
v 104.881508 71.197044 98.012955
v 104.583984 71.471313 97.993927
v 104.840767 71.069092 98.981171
v 104.888283 71.270149 106.936592
v 104.896721 71.632286 107.428490
v 104.851402 72.152443 92.071213
v 104.994377 72.114960 91.547798
v 104.973885 71.829338 92.027237
v 104.728943 72.097794 93.010933
v 104.692986 72.091339 94.004631
v 104.576866 72.067352 95.001160
v 104.972549 71.964127 107.856934
v 104.782333 72.164993 107.839424
v 105.074203 72.260712 108.114235
v 104.807251 72.663803 92.047173
v 104.941338 72.664307 91.517822
v 104.709175 72.653023 93.004189
v 104.674385 72.655815 94.004021
v 104.579590 72.674263 94.999397
v 104.621269 72.626793 107.011520
v 104.895035 72.531128 107.905502
v 105.094696 72.474083 108.122108
v 104.873764 73.157967 92.051414
v 105.024979 73.202240 91.560318
v 104.811874 73.167313 93.001663
v 104.799591 73.171036 94.000732
v 104.762459 73.180016 95.002144
v 104.635277 73.210541 95.983574
v 104.615067 73.237793 97.000542
v 104.570908 73.280220 97.991364
v 104.628273 73.224533 105.982559
v 104.946594 73.206535 106.451988
v 104.926384 72.899895 106.995583
v 105.024261 72.653580 107.914749
v 105.014313 73.455193 92.026611
v 104.975662 73.483788 93.001572
v 104.973305 73.485405 94.000153
v 104.957893 73.494316 95.003143
v 104.917633 73.517792 96.000969
v 104.904419 73.530998 97.000381
v 104.865555 73.570747 97.991928
v 104.683144 73.730331 99.019043
v 104.928596 73.783104 98.516304
v 104.660645 73.753700 100.001419
v 104.658524 73.756645 101.000015
v 104.658463 73.756721 101.999992
v 104.658531 73.756645 102.999931
v 104.660835 73.753540 103.998291
v 104.689941 73.724205 104.979149
v 104.944984 73.758942 105.472694
v 104.921730 73.513718 105.982010
v 104.995636 73.878357 99.030441
v 104.977684 73.909683 100.001556
v 104.976761 73.912407 101.000099
v 104.976723 73.912590 102.000031
v 104.976761 73.912460 102.999947
v 104.977524 73.910362 103.998734
v 104.994324 73.880806 104.968346
v 105.269379 71.019089 95.017479
v 105.497459 70.949181 94.507149
v 105.574799 70.886215 95.030945
v 105.561356 70.873840 96.001854
v 105.239304 70.986092 96.001350
v 105.560791 70.871796 97.000069
v 105.237762 70.983765 97.000107
v 105.560349 70.870399 98.000626
v 105.229965 70.973763 98.004356
v 105.540543 70.834183 99.021599
v 105.178452 70.914024 98.998009
v 105.484627 70.773689 100.009560
v 105.480125 70.755905 101.000557
v 105.480003 70.752762 102.000008
v 105.480011 70.752693 102.999977
v 105.480011 70.753281 103.999832
v 105.480064 70.760399 104.995438
v 105.479866 70.828964 105.952316
v 105.478836 70.988136 106.460953
v 105.478149 71.615669 90.056564
v 105.656708 71.590759 89.591789
v 105.617516 71.434303 90.035690
v 105.580811 71.388138 91.002647
v 105.399040 71.600952 91.013786
v 105.517181 71.307770 92.010208
v 105.204895 71.535095 91.990936
v 105.466522 71.133408 92.994896
v 105.423935 71.069244 93.981071
v 105.474434 71.255936 106.964020
v 105.490044 71.596153 107.451042
v 105.365852 72.090401 90.047562
v 105.547440 72.084663 89.533195
v 105.169861 72.069397 91.004913
v 105.431862 71.938576 107.884827
v 105.377754 72.279800 108.150452
v 105.339020 72.657501 90.042778
v 105.541496 72.659264 89.530190
v 105.121376 72.662186 90.981827
v 105.461319 72.512413 108.152077
v 105.417076 73.180267 90.071571
v 105.622177 73.194534 89.577072
v 105.184906 73.251999 91.011909
v 105.424446 73.130600 107.063927
v 105.425407 73.359650 106.669563
v 105.491890 72.763649 107.911774
v 105.557304 73.492630 90.034065
v 105.423172 73.707916 91.037888
v 105.568771 73.742783 90.530975
v 105.262650 73.730476 91.990501
v 105.246216 73.754570 93.000587
v 105.244507 73.756699 94.000023
v 105.244492 73.756729 95.000000
v 105.231590 73.771217 95.999771
v 105.229874 73.773621 97.001175
v 105.195793 73.807877 97.999611
v 105.237976 73.747444 105.948456
v 105.556053 73.664795 106.285316
v 105.607048 73.862137 91.035431
v 105.568535 73.909142 92.002724
v 105.560867 73.924156 93.000198
v 105.562759 73.912064 94.000000
v 105.562698 73.912582 95.000000
v 105.562675 73.912567 95.999977
v 105.562195 73.913422 97.000702
v 105.549438 73.918396 98.026039
v 105.485359 73.976860 99.008919
v 105.480118 73.985374 100.000633
v 105.480003 73.989227 101.000008
v 105.480003 73.989296 102.000000
v 105.480011 73.989296 102.999992
v 105.480133 73.986290 103.999359
v 105.485168 73.964798 104.988731
v 105.551125 73.841125 105.910568
v 105.812340 70.987740 93.010826
v 106.081055 70.961388 92.506355
v 106.087593 70.934288 93.006889
v 106.058830 70.920105 94.018639
v 105.768921 70.942116 94.000435
v 105.993042 70.865471 95.005455
v 105.991875 70.853584 96.000244
v 105.992065 70.851791 97.000000
v 105.992111 70.852081 98.000229
v 105.985634 70.864441 99.001083
v 105.981171 70.839745 100.000076
v 105.983200 70.829788 100.999992
v 105.983307 70.829407 102.000000
v 105.983299 70.829407 102.999992
v 105.983269 70.829506 103.999947
v 105.981773 70.835434 104.997833
v 105.973022 70.889015 105.947052
v 106.002106 71.061508 106.417549
v 105.932175 71.583801 89.110336
v 106.216904 71.636391 88.741249
v 106.153542 71.407600 89.077896
v 106.052887 71.132225 89.995392
v 106.030792 71.106354 91.000793
v 106.002625 71.056496 91.980270
v 106.012177 71.331848 106.912064
v 105.989700 71.644264 107.291664
v 105.831024 72.083847 89.035103
v 106.181396 72.072388 88.553513
v 105.737869 72.126457 107.941765
v 106.090927 72.051308 107.614662
v 105.823036 72.659332 89.031448
v 106.169250 72.674011 88.548233
v 105.999054 72.406174 107.923981
v 105.800301 72.586044 108.038803
v 105.906403 73.194626 89.087120
v 106.217773 73.174088 88.707634
v 105.763733 73.263687 107.008446
v 106.110313 73.040512 107.402992
v 105.959251 72.801872 107.849449
v 106.131203 73.487457 89.051460
v 105.818535 73.766426 90.025291
v 106.111900 73.763458 89.528214
v 106.125465 73.392548 106.881607
v 106.010040 73.635834 106.416252
v 106.149559 73.908958 90.050758
v 106.085472 74.004135 91.010033
v 106.076439 74.037643 92.000572
v 106.076653 74.028740 93.000351
v 106.066376 73.999451 93.999023
v 106.065979 73.988945 95.000053
v 106.066017 73.989227 95.999985
v 106.065910 73.985374 96.999367
v 106.060623 73.976707 97.991066
v 105.996552 73.918419 98.973915
v 105.983788 73.913437 99.999306
v 105.983315 73.912567 101.000015
v 105.983292 73.912590 101.999985
v 105.983292 73.912598 102.999992
v 105.983261 73.912476 103.999954
v 105.980682 73.899048 104.996681
v 105.978790 73.827011 105.938324
v 106.397156 70.968620 90.010773
v 106.671310 70.951683 89.511246
v 106.743866 70.857231 90.025108
v 106.660301 70.918961 90.980339
v 106.377167 70.963585 91.001289
v 106.626549 70.951256 91.992821
v 106.353287 70.954361 91.997276
v 106.633484 70.962822 92.492874
v 106.364410 70.948997 93.002274
v 106.341530 70.961151 93.999451
v 106.345444 70.943611 94.999847
v 106.347740 70.935890 95.999977
v 106.347816 70.935661 97.000008
v 106.342880 70.945511 97.998848
v 106.313934 70.976646 98.997086
v 106.314064 70.971260 99.999863
v 106.314362 70.970734 100.999992
v 106.314247 70.970856 102.000008
v 106.301598 70.985313 102.999748
v 106.301460 70.985313 103.999962
v 106.299423 70.988075 104.998444
v 106.269669 71.023361 105.970886
v 106.622772 71.487038 88.477455
v 106.622902 71.143585 88.985664
v 106.714294 71.058273 93.020874
v 106.689575 71.101952 93.999596
v 106.693947 71.091789 94.999969
v 106.693962 71.091705 96.000000
v 106.692871 71.093651 96.999916
v 106.684845 71.105873 97.999710
v 106.662399 71.199844 98.986015
v 106.639702 71.213028 99.999832
v 106.638474 71.214386 101.000031
v 106.631012 71.222748 102.001564
v 106.587357 71.247314 102.999390
v 106.572670 71.256538 103.999969
v 106.569687 71.258644 104.998596
v 106.545570 71.281548 105.981773
v 106.304474 71.556900 106.950615
v 106.571716 71.546822 106.469582
v 106.510490 72.127769 88.112343
v 106.849335 72.163574 87.769249
v 106.708900 71.827896 88.053726
v 106.554314 71.844513 106.940086
v 106.464973 72.164330 107.266930
v 106.505875 72.615921 88.106880
v 106.839584 72.587486 87.751312
v 106.124207 72.640480 107.822311
v 106.438370 72.658157 107.404106
v 106.689537 72.932518 88.039070
v 106.613708 73.290192 88.369965
v 106.462173 73.058441 107.199326
v 106.417938 73.738731 89.058205
v 106.736938 73.682442 88.707603
v 106.350670 73.808273 99.000526
v 106.682228 73.572517 99.009132
v 106.613373 73.777359 98.482033
v 106.316216 73.773758 99.998810
v 106.641861 73.531265 99.999573
v 106.314400 73.771347 100.999954
v 106.638451 73.527603 100.999962
v 106.314377 73.771118 102.000252
v 106.628265 73.517700 101.999023
v 106.301521 73.756706 102.999992
v 106.588104 73.494316 102.996841
v 106.301460 73.756653 103.999969
v 106.572754 73.485458 103.999855
v 106.299583 73.753944 104.998772
v 106.571259 73.484299 104.999474
v 106.270447 73.706673 105.968193
v 106.545052 73.468414 106.010193
v 106.515694 73.247673 106.912086
v 106.731056 73.865509 89.085876
v 106.668785 74.004189 90.012924
v 106.642357 74.034462 90.998085
v 106.641548 74.037460 91.999596
v 106.632889 74.007706 92.992279
v 106.584961 73.931580 93.978676
v 106.570000 73.914200 94.999321
v 106.569252 73.912376 95.999947
v 106.568291 73.909615 96.998413
v 106.548996 73.876030 97.969162
v 106.966362 70.955017 89.017761
v 107.293076 71.034882 88.571312
v 107.309158 70.854126 89.067429
v 107.224388 70.798576 89.985573
v 106.952705 70.931107 90.998947
v 107.265327 70.875290 90.530235
v 106.879776 71.016533 91.980591
v 106.981506 71.538773 88.042282
v 107.317711 71.631454 87.702774
v 107.293518 71.315346 88.073387
v 107.297539 71.042160 91.035461
v 107.225975 71.218079 91.996376
v 107.180374 71.329552 93.000504
v 107.137085 71.387917 93.998711
v 107.122948 71.401581 95.000008
v 107.122864 71.401680 95.999954
v 107.121674 71.403351 96.998795
v 107.111519 71.420578 97.973068
v 106.962318 71.471130 99.006340
v 107.162994 71.558952 98.479561
v 106.932480 71.502846 99.999527
v 106.928131 71.506783 100.999756
v 106.915237 71.528595 102.014450
v 106.783142 71.561165 102.995049
v 106.746094 71.571007 103.999092
v 106.738625 71.573395 104.998764
v 106.707291 71.590645 105.969131
v 107.254410 72.082825 87.446609
v 107.193581 71.801605 98.999138
v 107.162392 71.834129 99.998505
v 107.157806 71.837311 100.998619
v 107.129303 71.856781 101.978073
v 107.116425 72.115051 102.446396
v 106.969711 72.067490 102.998405
v 106.872490 72.086128 103.996262
v 106.855927 72.088181 104.999153
v 106.827232 72.095070 105.990570
v 106.671272 72.157333 106.911324
v 107.203384 72.663498 87.411819
v 106.966202 72.674622 103.001289
v 107.103989 72.621986 102.440567
v 106.872719 72.655502 103.996918
v 106.859367 72.654327 104.999672
v 106.834877 72.653145 105.994911
v 106.702499 72.661537 106.933205
v 106.941864 73.251945 87.992668
v 107.279510 73.198563 87.549133
v 106.975403 73.280533 99.008652
v 107.200356 72.944046 98.998520
v 107.184982 73.214333 98.483521
v 106.933167 73.239754 99.999611
v 107.162949 72.908112 99.998398
v 106.927567 73.234726 100.999825
v 107.158142 72.904800 100.998474
v 106.910622 73.210480 102.016426
v 107.123863 72.879219 101.975235
v 106.783470 73.180382 102.997177
v 106.746658 73.170753 103.998619
v 106.740974 73.169472 104.999939
v 106.723099 73.162086 105.998123
v 106.628471 73.117233 106.924400
v 107.237869 73.540321 88.002708
v 107.216988 73.817352 88.477386
v 106.925056 73.792946 93.998566
v 107.209328 73.529846 93.998871
v 107.166870 73.758400 93.477371
v 106.889427 73.759087 94.998436
v 107.161629 73.487717 94.998299
v 106.887520 73.756744 95.999901
v 107.158745 73.485512 95.999901
v 106.885132 73.753433 96.998405
v 107.155602 73.483200 96.998306
v 106.857643 73.725075 97.979630
v 107.127785 73.455940 97.980072
v 107.276871 73.949104 89.023811
v 107.221565 74.004883 89.995247
v 107.172371 73.941025 90.977509
v 107.151039 73.911850 91.996574
v 107.116982 73.870865 92.966377
v 107.809227 70.886185 88.477631
v 107.854103 70.774345 89.018433
v 107.821022 70.798180 89.959854
v 107.843040 70.979378 90.480949
v 107.779747 71.468407 87.464363
v 107.793449 71.128326 87.958763
v 107.781937 71.264771 90.983086
v 107.550385 71.472252 92.005966
v 107.820808 71.496567 91.498192
v 107.479485 71.567680 93.009277
v 107.321404 71.600510 93.991447
v 107.288147 71.608414 94.999146
v 107.284225 71.609932 95.999954
v 107.282829 71.610580 96.998093
v 107.265419 71.618492 97.968407
v 107.616394 72.113190 87.055161
v 107.964668 72.138916 86.585388
v 107.853233 71.808861 87.021606
v 107.823753 71.783455 91.997528
v 107.706993 71.865097 92.973534
v 107.706367 72.114899 93.447357
v 107.538155 72.072983 93.995247
v 107.442917 72.090294 94.995522
v 107.430473 72.091751 95.999741
v 107.426147 72.092506 96.999184
v 107.398903 72.097557 97.990471
v 107.298676 72.144333 98.977325
v 107.273621 72.158318 99.999420
v 107.269051 72.159462 100.997856
v 107.231430 72.164391 101.947044
v 107.534630 72.663155 87.003227
v 107.849602 72.667892 86.515205
v 107.559662 72.673721 94.002052
v 107.716087 72.629951 93.446915
v 107.457947 72.655434 94.997009
v 107.445946 72.654381 95.999802
v 107.441513 72.653847 96.999519
v 107.409721 72.648247 97.991592
v 107.304031 72.600090 98.978004
v 107.273659 72.583672 99.999367
v 107.269272 72.582603 100.997795
v 107.231232 72.577286 101.945374
v 107.562347 73.262146 87.046196
v 107.844559 73.250587 86.509598
v 107.637199 73.285034 93.021912
v 107.782051 72.942085 92.987343
v 107.792297 73.233330 92.492409
v 107.397049 73.201561 93.983788
v 107.335136 73.171837 94.998283
v 107.327034 73.169479 95.999954
v 107.324303 73.168533 96.998756
v 107.294899 73.150932 97.970116
v 107.758789 73.743324 87.052132
v 107.944305 73.788963 86.556793
v 107.538536 73.805206 87.971809
v 107.522400 73.807945 91.000839
v 107.846954 73.564842 91.007019
v 107.798973 73.792366 90.485916
v 107.462349 73.738762 92.006485
v 107.738251 73.474915 91.978851
v 107.324814 73.717033 92.969521
v 107.948494 74.034363 87.049789
v 107.870262 74.005806 88.037491
v 107.824188 74.039268 88.998428
v 107.744072 73.911911 89.944679
v 108.133995 70.947090 88.019142
v 108.462486 71.066689 87.586006
v 108.474213 70.880806 88.079742
v 108.403114 70.754524 89.005936
v 108.394409 70.826401 89.937248
v 108.393875 71.030495 90.333412
v 108.149414 71.533615 87.028427
v 108.471985 71.638023 86.587234
v 108.466942 71.341133 87.082932
v 108.119133 71.488892 91.003525
v 108.495140 71.412857 90.675385
v 108.280800 72.162552 86.112984
v 108.553185 72.239006 85.748833
v 108.494728 71.952538 86.113297
v 108.390335 71.796364 90.992264
v 108.009811 72.128319 91.979301
v 108.292183 72.120033 91.434074
v 107.837372 72.161545 92.940018
v 108.157532 72.688591 85.991882
v 108.429398 72.641899 85.482597
v 108.082985 72.670441 91.977524
v 108.289619 72.626083 91.434570
v 107.870422 72.601776 92.923553
v 108.321548 73.328682 85.054306
v 108.481331 73.295235 84.527237
v 108.465233 72.991379 85.025505
v 108.059090 73.249397 85.984116
v 108.146622 73.270081 91.031227
v 108.397530 72.945663 90.985794
v 108.460617 73.288055 90.546570
v 107.927841 73.166321 91.970673
v 108.378258 73.912674 84.078491
v 108.573578 73.903603 83.589500
v 108.496941 73.597275 84.041428
v 108.225906 73.852859 85.018921
v 108.086159 73.848915 85.998444
v 108.109978 73.816437 89.995689
v 108.446571 73.618958 90.044556
v 108.435684 73.887611 89.536224
v 108.328865 74.421448 84.047546
v 108.482727 74.425613 83.527962
v 108.244202 74.404549 84.996956
v 108.276558 74.359451 85.975952
v 108.201050 74.312614 86.957047
v 108.424767 74.394836 87.493797
v 108.356750 74.268295 88.033180
v 108.383202 74.044464 88.983940
v 108.375824 74.922203 84.047112
v 108.504593 74.973633 83.547577
v 108.371376 74.900749 84.969788
v 108.488701 74.949371 85.472267
v 108.455811 74.693375 86.019501
v 108.490280 74.548668 86.979118
v 108.487236 75.258339 84.016960
v 108.521797 75.215309 84.980637
v 108.956009 71.050240 87.567368
v 108.916534 70.890083 88.053215
v 108.908577 70.844086 88.999008
v 108.893845 70.914970 89.924759
v 108.886566 71.110542 90.218605
v 108.997475 71.552956 86.534760
v 109.011040 71.271805 87.056160
v 108.970566 71.512535 90.449661
v 108.987373 72.178978 85.542618
v 109.004204 71.844681 86.037666
v 108.614120 72.113564 90.946426
v 109.012497 72.054222 90.596535
v 108.739227 72.710114 85.029282
v 109.048988 72.792755 84.575989
v 109.044395 72.486511 85.071907
v 108.602089 72.623688 90.937256
v 108.979561 72.661148 90.552979
v 108.757210 73.313347 84.040619
v 109.057564 73.393433 83.584915
v 109.051231 73.090775 84.078636
v 108.917908 73.116402 90.300896
v 108.863083 73.932472 83.069756
v 109.088318 74.007790 82.602310
v 109.077202 73.703293 83.095284
v 108.952759 73.447075 89.936287
v 108.998627 73.762436 89.471603
v 108.995102 74.522858 82.113396
v 109.197128 74.609016 81.864693
v 109.110603 74.316147 82.134155
v 108.690056 74.430519 83.000015
v 108.714142 74.393280 87.990364
v 109.034256 74.289566 88.433327
v 108.970146 74.079361 88.948875
v 108.933067 75.009529 82.082733
v 109.157516 74.994110 81.817451
v 108.654305 75.026413 83.000336
v 108.733070 74.969238 85.984657
v 109.004974 74.988464 86.493584
v 108.960442 74.818115 87.018219
v 109.056343 74.509277 87.931007
v 108.973549 75.500923 82.097771
v 109.086143 75.341469 81.926926
v 108.777145 75.575508 83.014221
v 108.645988 75.600021 83.980827
v 108.789970 75.514023 84.941322
v 109.061714 75.445633 85.413452
v 109.054077 75.185333 85.958267
v 109.045692 75.657837 82.162636
v 108.985260 76.033409 83.042297
v 109.109711 75.950874 82.608917
v 108.952942 76.030525 83.962784
v 109.088226 75.995560 84.406265
v 109.062096 75.736176 84.912453
v 109.133575 76.151794 83.059258
v 109.125648 76.166924 83.945839
v 109.244209 70.987816 88.016068
v 109.245171 70.971466 88.995819
v 109.176544 71.054268 89.943077
v 109.538284 71.606468 86.558235
v 109.515213 71.401405 87.065857
v 109.585892 71.143166 87.993195
v 109.580528 71.215202 88.987213
v 109.447334 71.305313 89.944183
v 109.377800 71.599518 90.211319
v 109.579468 72.123695 85.526230
v 109.594360 71.835861 86.047348
v 109.433434 72.080505 90.279961
v 109.585381 72.698273 84.520172
v 109.585938 72.407486 85.022408
v 109.399460 72.576424 90.246803
v 109.585701 73.287621 83.522011
v 109.585464 72.992531 84.020813
v 109.264763 73.217888 89.965645
v 109.542580 72.928383 89.956573
v 109.615761 73.282860 89.622818
v 109.587654 73.882019 82.527908
v 109.586700 73.584114 83.024078
v 109.503326 73.685753 89.292374
v 109.596367 74.561623 81.789589
v 109.592522 74.208298 82.063965
v 109.520973 73.977844 88.901711
v 109.524910 74.264839 88.407623
v 109.554840 74.931824 81.764694
v 109.307289 74.938957 86.975739
v 109.576012 74.779602 87.382355
v 109.512878 74.553139 87.892365
v 109.612564 75.369057 81.964439
v 109.277908 75.555145 82.043488
v 109.649239 75.741516 82.292915
v 109.586815 75.305145 85.995369
v 109.585762 75.558548 85.480965
v 109.580925 74.992561 86.896263
v 109.582367 76.055092 82.661415
v 109.586006 75.848244 84.978027
v 109.589951 76.106712 84.464920
v 109.595734 76.248611 83.060242
v 109.596107 76.263603 83.958595
v 109.841789 71.550705 87.022362
v 110.095932 71.569809 87.521393
v 110.034782 71.440216 87.999512
v 109.872444 71.499260 89.013908
v 110.090172 71.564064 88.478615
v 109.623108 71.588524 89.918480
v 110.119926 72.198792 85.559738
v 110.086693 71.998985 86.054398
v 110.161888 71.786087 86.985359
v 110.109436 71.818108 88.977676
v 110.034836 72.126442 89.432167
v 109.781525 72.063095 89.910408
v 110.162376 72.709396 84.526024
v 110.177208 72.430725 85.052155
v 109.738014 72.610458 89.899628
v 110.055145 72.675453 89.447144
v 110.163719 73.289009 83.522934
v 110.165276 72.990532 84.019928
v 110.013435 73.172836 89.290009
v 110.166031 73.864967 82.517082
v 110.164703 73.579170 83.020920
v 109.823853 73.771729 88.949585
v 110.105087 73.492630 88.950783
v 110.148598 73.816490 88.487129
v 110.167854 74.555481 81.784737
v 110.168365 74.191238 82.052094
v 109.844505 74.375977 87.971489
v 110.171280 74.131668 88.001854
v 110.207626 74.444016 87.534660
v 110.165115 74.882820 81.774193
v 109.853996 74.943405 86.971428
v 110.193649 74.769264 87.032555
v 110.188118 75.047607 86.528931
v 110.167809 75.307426 81.995293
v 110.172737 75.702888 82.330589
v 110.147133 75.270599 86.006424
v 110.164276 75.563217 85.482613
v 110.167107 76.053970 82.679268
v 110.164192 75.847549 84.977135
v 110.162010 76.112640 84.467735
v 110.166771 76.253586 83.065224
v 110.157631 76.278824 83.959450
v 110.219757 71.625198 88.000465
v 110.386948 72.177940 86.024666
v 110.446243 72.078491 87.011703
v 110.516785 72.074181 88.006851
v 110.257179 72.145134 88.933472
v 110.663719 72.826996 84.584702
v 110.634201 72.626404 85.062851
v 110.650093 72.441872 85.991318
v 110.691238 72.413025 87.002975
v 110.672379 72.415710 87.983925
v 110.607857 72.704086 88.431564
v 110.378387 72.648384 88.936073
v 110.688225 73.398605 83.588226
v 110.699066 73.093376 84.081749
v 110.307686 73.187080 88.901428
v 110.580719 73.190796 88.407028
v 110.712151 73.941757 82.557777
v 110.700584 73.674652 83.075401
v 110.455360 73.831810 87.997551
v 110.684799 73.504868 87.963669
v 110.726295 73.854126 87.511047
v 110.736725 74.566505 81.803238
v 110.758324 74.213295 82.085251
v 110.605736 74.285072 87.272903
v 110.738655 74.871758 81.791931
v 110.651352 74.572357 86.899757
v 110.671440 74.869637 86.418571
v 110.747810 75.267754 82.036133
v 110.753166 75.661827 82.381393
v 110.677086 75.147049 85.911049
v 110.691902 75.449570 85.414665
v 110.743271 76.024544 82.707794
v 110.697952 75.751190 84.920616
v 110.694153 76.026451 84.417206
v 110.731674 76.221832 83.059464
v 110.675568 76.207672 83.926941
v 110.815025 72.797554 85.036095
v 110.842537 72.747368 85.999458
v 110.823242 72.749504 86.998444
v 110.770081 72.743408 87.946777
v 110.964836 73.322052 84.050903
v 111.112617 73.240692 85.017067
v 111.012703 73.257004 85.996048
v 110.924500 73.255859 86.988976
v 110.770927 73.183372 87.916992
v 111.012238 73.885719 83.022392
v 111.267723 73.891075 83.526009
v 111.228905 73.626976 84.022865
v 111.269234 73.582275 84.987770
v 111.254845 73.867348 85.458321
v 111.109192 73.815369 86.004593
v 110.893654 73.802528 86.973053
v 111.132675 74.606743 81.872047
v 111.196236 74.411041 82.092072
v 111.281418 74.154289 82.994362
v 111.061401 74.412102 86.000656
v 111.269745 74.420410 85.472321
v 110.786774 74.330460 86.907776
v 111.133026 74.833427 81.872116
v 110.892845 74.914413 85.933418
v 111.179153 74.942993 85.411041
v 111.232803 75.140633 82.131485
v 111.243484 75.546013 82.564308
v 110.996811 75.534172 84.962555
v 111.262230 75.251976 84.962173
v 111.273018 75.550346 84.474052
v 111.161003 75.971909 82.810898
v 110.989082 76.087746 83.959496
v 111.268799 75.837921 83.973312
v 111.230225 76.068588 83.468483
v 111.192566 76.126083 83.038353
v 111.386734 73.939339 84.028954
v 111.375221 73.920807 84.952820
v 111.295395 74.542961 82.082329
v 111.423767 74.491844 83.024742
v 111.501556 74.439201 84.003578
v 111.424316 74.422623 84.952904
v 111.312164 74.921265 82.111610
v 111.488770 75.011269 83.011261
v 111.507393 74.991951 83.989471
v 111.379562 74.933937 84.924858
v 111.416840 75.546646 83.028259
v 111.411720 75.511963 83.953781
v 111.294106 76.034195 83.036682
# 794 vertices, 0 vertices normals

f 3 2 1
f 5 4 1
f 1 4 3
f 7 6 5
f 5 6 4
f 9 8 7
f 7 8 6
f 11 10 9
f 9 10 8
f 13 12 11
f 11 12 10
f 15 14 13
f 13 14 12
f 17 16 15
f 15 16 14
f 19 18 17
f 17 18 16
f 19 20 18
f 23 22 21
f 25 24 21
f 21 24 23
f 27 26 25
f 25 26 24
f 26 27 2
f 27 1 2
f 27 28 1
f 1 29 5
f 1 28 29
f 5 30 7
f 5 29 30
f 7 31 9
f 7 30 31
f 9 32 11
f 9 31 32
f 11 33 13
f 11 32 33
f 13 34 15
f 13 33 34
f 15 35 17
f 15 34 35
f 17 36 19
f 17 35 36
f 20 19 37
f 37 19 36
f 21 22 38
f 38 22 39
f 21 40 25
f 21 38 40
f 25 41 27
f 25 40 41
f 27 42 28
f 27 41 42
f 28 43 29
f 28 42 43
f 29 44 30
f 29 43 44
f 30 45 31
f 30 44 45
f 31 46 32
f 31 45 46
f 32 47 33
f 32 46 47
f 33 48 34
f 33 47 48
f 34 49 35
f 34 48 49
f 51 36 50
f 36 49 50
f 36 35 49
f 36 51 37
f 39 52 38
f 38 52 40
f 40 52 53
f 40 53 41
f 41 53 54
f 56 55 54
f 55 41 54
f 55 42 41
f 42 57 43
f 42 55 57
f 43 58 44
f 43 57 58
f 44 59 45
f 44 58 59
f 45 60 46
f 45 59 60
f 46 61 47
f 46 60 61
f 47 62 48
f 47 61 62
f 64 49 63
f 49 62 63
f 49 48 62
f 49 64 50
f 56 65 55
f 55 65 57
f 57 65 66
f 57 66 58
f 58 66 67
f 58 67 59
f 59 67 68
f 59 68 60
f 60 68 69
f 60 69 61
f 61 69 70
f 61 70 62
f 62 70 71
f 62 71 63
f 74 73 72
f 76 75 72
f 72 75 74
f 78 77 76
f 76 77 75
f 80 79 78
f 78 79 77
f 82 81 80
f 80 81 79
f 84 83 82
f 82 83 81
f 86 85 84
f 84 85 83
f 86 87 85
f 90 89 88
f 92 91 88
f 88 91 90
f 94 93 92
f 92 93 91
f 96 95 94
f 94 95 93
f 98 97 96
f 96 97 95
f 100 99 98
f 98 99 97
f 2 3 100
f 3 99 100
f 3 101 99
f 4 72 73
f 101 4 73
f 3 4 101
f 72 4 6
f 72 6 76
f 76 6 8
f 76 8 78
f 78 8 10
f 78 10 80
f 80 10 12
f 80 12 82
f 82 12 14
f 82 14 84
f 84 14 16
f 84 16 86
f 102 87 86
f 16 102 86
f 18 102 16
f 18 20 102
f 102 20 103
f 106 105 104
f 106 104 89
f 104 88 89
f 104 107 88
f 88 108 92
f 88 107 108
f 92 109 94
f 92 108 109
f 109 22 23
f 96 109 23
f 94 109 96
f 96 23 24
f 96 24 98
f 98 24 26
f 98 26 100
f 100 26 2
f 37 111 110
f 103 37 110
f 20 37 103
f 111 112 110
f 104 105 113
f 113 105 114
f 104 115 107
f 104 113 115
f 107 116 108
f 107 115 116
f 108 117 109
f 108 116 117
f 117 39 22
f 117 22 109
f 50 118 51
f 111 37 51
f 118 111 51
f 119 111 118
f 112 111 120
f 120 111 119
f 113 114 121
f 121 114 122
f 113 123 115
f 113 121 123
f 115 124 116
f 115 123 124
f 116 125 117
f 116 124 125
f 126 52 39
f 117 126 39
f 125 126 117
f 127 53 52
f 127 52 126
f 128 54 53
f 128 53 127
f 128 56 54
f 63 129 64
f 129 130 64
f 64 130 50
f 130 131 50
f 131 118 50
f 118 131 119
f 119 131 132
f 119 132 120
f 122 133 121
f 121 133 123
f 123 133 134
f 123 134 124
f 124 134 135
f 124 135 125
f 125 135 136
f 125 136 126
f 126 136 137
f 126 137 127
f 127 137 138
f 127 138 128
f 128 138 139
f 139 141 140
f 139 140 65
f 128 139 65
f 56 128 65
f 142 66 65
f 142 65 140
f 143 67 66
f 143 66 142
f 144 68 67
f 144 67 143
f 145 69 68
f 145 68 144
f 146 70 69
f 146 69 145
f 147 71 70
f 147 70 146
f 147 148 71
f 71 148 63
f 148 149 63
f 149 129 63
f 129 149 130
f 141 150 140
f 140 150 142
f 142 150 151
f 142 151 143
f 143 151 152
f 143 152 144
f 144 152 153
f 144 153 145
f 145 153 154
f 145 154 146
f 146 154 155
f 146 155 147
f 147 155 156
f 147 156 148
f 159 158 157
f 161 160 157
f 157 160 159
f 163 162 161
f 161 162 160
f 165 164 163
f 163 164 162
f 167 166 165
f 165 166 164
f 73 74 167
f 74 166 167
f 74 168 166
f 169 74 75
f 169 168 74
f 170 75 77
f 170 169 75
f 171 77 79
f 171 170 77
f 172 79 81
f 172 171 79
f 173 81 83
f 173 172 81
f 174 83 85
f 174 173 83
f 85 87 174
f 174 87 175
f 178 177 176
f 180 179 176
f 176 179 178
f 182 181 180
f 180 181 179
f 89 90 182
f 90 181 182
f 90 183 181
f 184 90 91
f 184 183 90
f 93 157 158
f 184 93 158
f 91 93 184
f 157 93 95
f 157 95 161
f 161 95 97
f 161 97 163
f 163 97 99
f 163 99 165
f 165 99 101
f 165 101 167
f 167 101 73
f 185 175 87
f 185 87 102
f 102 103 185
f 185 103 186
f 176 177 187
f 187 177 188
f 176 189 180
f 176 187 189
f 189 105 106
f 182 189 106
f 180 189 182
f 182 106 89
f 190 186 103
f 190 103 110
f 110 112 190
f 190 112 191
f 187 188 192
f 192 188 193
f 187 194 189
f 187 192 194
f 194 114 105
f 194 105 189
f 120 191 112
f 120 195 191
f 192 193 196
f 196 193 197
f 192 198 194
f 192 196 198
f 198 122 114
f 198 114 194
f 200 199 131
f 200 131 130
f 131 201 132
f 199 201 131
f 120 132 195
f 195 132 201
f 197 202 196
f 204 203 202
f 203 196 202
f 203 198 196
f 205 133 122
f 198 205 122
f 203 205 198
f 206 134 133
f 206 133 205
f 207 135 134
f 207 134 206
f 208 136 135
f 208 135 207
f 209 137 136
f 209 136 208
f 210 138 137
f 210 137 209
f 211 139 138
f 211 138 210
f 211 141 139
f 148 212 149
f 212 213 149
f 213 130 149
f 213 200 130
f 204 214 203
f 203 214 205
f 205 214 215
f 205 215 206
f 206 215 216
f 206 216 207
f 207 216 217
f 207 217 208
f 208 217 218
f 208 218 209
f 209 218 219
f 209 219 210
f 210 219 220
f 210 220 211
f 211 220 221
f 211 221 141
f 221 150 141
f 221 222 150
f 150 223 151
f 222 223 150
f 151 224 152
f 223 224 151
f 152 225 153
f 224 225 152
f 153 226 154
f 225 226 153
f 154 227 155
f 226 227 154
f 155 228 156
f 227 228 155
f 148 156 212
f 156 229 212
f 156 228 229
f 212 229 213
f 232 231 230
f 234 233 230
f 230 233 232
f 158 159 234
f 159 233 234
f 159 235 233
f 236 159 160
f 236 235 159
f 237 160 162
f 237 236 160
f 238 162 164
f 238 237 162
f 239 164 166
f 239 238 164
f 240 166 168
f 240 239 166
f 241 168 169
f 241 240 168
f 242 169 170
f 242 241 169
f 243 170 171
f 243 242 170
f 244 171 172
f 244 243 171
f 245 172 173
f 245 244 172
f 246 173 174
f 246 245 173
f 174 175 246
f 246 175 247
f 250 249 248
f 177 178 248
f 178 250 248
f 178 251 250
f 252 178 179
f 252 251 178
f 253 179 181
f 253 252 179
f 183 230 231
f 253 183 231
f 181 183 253
f 230 183 184
f 230 184 234
f 234 184 158
f 254 247 175
f 254 175 185
f 185 186 254
f 254 186 255
f 248 249 256
f 256 249 257
f 256 188 177
f 256 177 248
f 186 190 258
f 259 186 258
f 255 186 259
f 191 258 190
f 256 257 260
f 260 257 261
f 260 193 188
f 260 188 256
f 262 259 258
f 258 191 262
f 191 263 262
f 191 195 263
f 260 261 264
f 264 261 265
f 264 197 193
f 264 193 260
f 200 266 199
f 199 266 267
f 268 199 267
f 201 199 268
f 195 201 263
f 263 201 268
f 265 269 264
f 269 271 270
f 269 270 202
f 264 269 202
f 197 264 202
f 270 204 202
f 273 272 266
f 200 273 266
f 213 273 200
f 266 272 267
f 271 274 270
f 270 274 204
f 274 214 204
f 274 275 214
f 214 276 215
f 275 276 214
f 215 277 216
f 276 277 215
f 216 278 217
f 277 278 216
f 217 279 218
f 278 279 217
f 218 280 219
f 279 280 218
f 219 281 220
f 280 281 219
f 220 282 221
f 281 282 220
f 221 283 222
f 282 283 221
f 222 284 223
f 283 284 222
f 223 285 224
f 284 285 223
f 224 286 225
f 285 286 224
f 225 287 226
f 286 287 225
f 226 288 227
f 287 288 226
f 227 289 228
f 288 289 227
f 228 290 229
f 289 290 228
f 213 229 273
f 273 229 290
f 293 292 291
f 295 294 291
f 291 294 293
f 297 296 295
f 295 296 294
f 297 231 296
f 231 232 296
f 299 298 296
f 299 296 232
f 233 300 232
f 232 300 299
f 235 301 233
f 233 301 300
f 236 302 235
f 235 302 301
f 237 303 236
f 236 303 302
f 238 304 237
f 237 304 303
f 239 305 238
f 238 305 304
f 240 306 239
f 239 306 305
f 241 307 240
f 240 307 306
f 242 308 241
f 241 308 307
f 243 309 242
f 242 309 308
f 244 310 243
f 243 310 309
f 245 311 244
f 244 311 310
f 246 312 245
f 245 312 311
f 247 312 246
f 314 313 250
f 250 313 249
f 251 291 292
f 314 251 292
f 250 251 314
f 291 251 252
f 291 252 295
f 295 252 253
f 295 253 297
f 299 315 298
f 231 297 253
f 315 299 300
f 315 300 316
f 316 300 301
f 316 301 317
f 317 301 302
f 317 302 318
f 318 302 303
f 318 303 319
f 319 303 304
f 319 304 320
f 320 304 305
f 320 305 321
f 321 305 306
f 321 306 322
f 322 306 307
f 322 307 323
f 323 307 308
f 323 308 324
f 324 308 309
f 324 309 325
f 325 309 310
f 325 310 326
f 326 310 311
f 326 311 327
f 327 311 312
f 327 312 328
f 330 328 329
f 329 328 254
f 328 312 254
f 312 247 254
f 255 329 254
f 333 332 331
f 313 333 331
f 257 313 331
f 249 313 257
f 334 330 329
f 329 255 334
f 255 335 334
f 255 259 335
f 331 332 336
f 336 332 337
f 336 261 257
f 336 257 331
f 259 262 338
f 339 259 338
f 335 259 339
f 263 338 262
f 337 340 336
f 261 336 340
f 341 261 340
f 265 261 341
f 339 338 268
f 267 339 268
f 342 339 267
f 268 338 263
f 269 265 343
f 265 344 343
f 265 341 344
f 343 271 269
f 347 346 345
f 349 348 345
f 349 345 346
f 351 350 348
f 351 348 349
f 353 352 350
f 353 350 351
f 355 354 352
f 355 352 353
f 357 356 354
f 357 354 355
f 359 358 356
f 359 356 357
f 361 360 358
f 361 358 359
f 272 273 360
f 361 272 360
f 362 272 361
f 267 272 342
f 342 272 362
f 344 363 343
f 343 363 271
f 363 274 271
f 363 364 274
f 274 365 275
f 364 365 274
f 275 366 276
f 365 366 275
f 276 367 277
f 366 367 276
f 277 368 278
f 367 368 277
f 278 369 279
f 368 369 278
f 279 370 280
f 369 370 279
f 280 371 281
f 370 371 280
f 281 372 282
f 371 372 281
f 345 283 347
f 283 372 347
f 283 282 372
f 283 345 284
f 284 345 348
f 284 348 285
f 285 348 350
f 285 350 286
f 286 350 352
f 286 352 287
f 287 352 354
f 287 354 288
f 288 354 356
f 288 356 289
f 289 356 358
f 289 358 290
f 290 358 360
f 290 360 273
f 375 374 373
f 292 293 373
f 293 375 373
f 293 376 375
f 378 376 377
f 376 294 377
f 376 293 294
f 296 379 294
f 294 379 377
f 298 379 296
f 382 381 380
f 382 380 374
f 374 380 373
f 380 313 373
f 313 314 373
f 373 314 292
f 383 378 377
f 383 377 379
f 383 379 384
f 384 379 298
f 315 384 298
f 385 384 315
f 386 315 316
f 386 385 315
f 387 316 317
f 387 386 316
f 388 317 318
f 388 387 317
f 389 318 319
f 389 388 318
f 390 319 320
f 390 389 319
f 392 390 391
f 390 321 391
f 390 320 321
f 322 393 321
f 321 393 391
f 323 394 322
f 322 394 393
f 324 395 323
f 323 395 394
f 325 396 324
f 324 396 395
f 326 397 325
f 325 397 396
f 327 398 326
f 326 398 397
f 328 399 327
f 327 399 398
f 330 399 328
f 380 381 333
f 381 332 333
f 381 400 332
f 380 333 313
f 401 392 391
f 401 391 393
f 401 393 402
f 402 393 394
f 402 394 403
f 403 394 395
f 403 395 404
f 406 405 404
f 395 406 404
f 396 406 395
f 407 396 397
f 406 396 407
f 408 397 398
f 407 397 408
f 409 398 399
f 408 398 409
f 334 410 330
f 410 399 330
f 410 409 399
f 335 410 334
f 400 337 332
f 411 337 400
f 405 406 412
f 405 412 413
f 414 406 407
f 412 406 414
f 415 407 408
f 414 407 415
f 416 408 409
f 415 408 416
f 417 409 410
f 416 409 417
f 339 417 335
f 335 417 410
f 340 337 418
f 337 419 418
f 337 411 419
f 418 341 340
f 422 421 420
f 424 423 420
f 424 420 421
f 426 425 423
f 426 423 424
f 428 427 425
f 428 425 426
f 427 428 413
f 412 427 413
f 429 427 412
f 430 412 414
f 429 412 430
f 431 414 415
f 430 414 431
f 432 415 416
f 431 415 432
f 433 416 417
f 432 416 433
f 342 433 339
f 339 433 417
f 419 434 418
f 341 418 434
f 435 341 434
f 344 341 435
f 438 437 436
f 440 439 436
f 440 436 437
f 442 441 439
f 442 439 440
f 444 443 441
f 444 441 442
f 446 445 443
f 446 443 444
f 445 446 422
f 445 422 420
f 347 445 420
f 346 347 420
f 346 420 349
f 349 420 423
f 349 423 351
f 351 423 425
f 351 425 353
f 353 425 427
f 353 427 355
f 355 427 429
f 355 429 357
f 357 429 430
f 357 430 359
f 359 430 431
f 359 431 361
f 361 431 432
f 361 432 362
f 362 432 433
f 362 433 342
f 435 447 344
f 344 447 363
f 363 448 364
f 447 448 363
f 364 449 365
f 448 449 364
f 365 450 366
f 449 450 365
f 366 451 367
f 450 451 366
f 436 368 438
f 368 451 438
f 368 367 451
f 368 436 369
f 369 436 439
f 369 439 370
f 370 439 441
f 370 441 371
f 371 441 443
f 371 443 372
f 372 443 445
f 372 445 347
f 453 452 375
f 375 452 374
f 454 375 376
f 454 453 375
f 376 378 454
f 454 378 455
f 457 456 382
f 382 456 381
f 382 374 452
f 382 452 457
f 458 455 378
f 458 378 383
f 460 458 459
f 458 384 459
f 458 383 384
f 385 461 384
f 384 461 459
f 386 462 385
f 385 462 461
f 387 463 386
f 386 463 462
f 388 464 387
f 387 464 463
f 389 465 388
f 388 465 464
f 390 466 389
f 389 466 465
f 392 466 390
f 469 468 467
f 456 469 467
f 400 456 467
f 381 456 400
f 470 460 459
f 470 459 461
f 470 461 471
f 473 472 471
f 461 473 471
f 462 473 461
f 474 462 463
f 473 462 474
f 475 463 464
f 474 463 475
f 476 464 465
f 475 464 476
f 477 465 466
f 476 465 477
f 401 478 392
f 478 466 392
f 478 477 466
f 402 479 401
f 401 479 478
f 403 480 402
f 402 480 479
f 404 481 403
f 403 481 480
f 405 481 404
f 467 468 482
f 482 468 483
f 482 411 400
f 482 400 467
f 472 473 484
f 472 484 485
f 486 473 474
f 484 473 486
f 487 474 475
f 486 474 487
f 488 475 476
f 487 475 488
f 489 476 477
f 488 476 489
f 490 477 478
f 489 477 490
f 491 478 479
f 490 478 491
f 492 479 480
f 491 479 492
f 493 480 481
f 492 480 493
f 413 493 405
f 405 493 481
f 482 483 494
f 494 483 495
f 494 419 411
f 494 411 482
f 498 497 496
f 496 497 485
f 484 496 485
f 499 496 484
f 500 484 486
f 499 484 500
f 501 486 487
f 500 486 501
f 502 487 488
f 501 487 502
f 503 488 489
f 502 488 503
f 422 503 421
f 503 490 421
f 503 489 490
f 421 490 424
f 424 490 491
f 424 491 426
f 426 491 492
f 426 492 428
f 428 492 493
f 428 493 413
f 494 495 504
f 504 495 505
f 506 434 419
f 494 506 419
f 504 506 494
f 506 435 434
f 509 508 507
f 511 510 507
f 511 507 508
f 510 511 498
f 496 510 498
f 512 510 496
f 438 512 437
f 512 499 437
f 512 496 499
f 437 499 440
f 440 499 500
f 440 500 442
f 442 500 501
f 442 501 444
f 444 501 502
f 444 502 446
f 446 502 503
f 446 503 422
f 505 513 504
f 504 513 506
f 506 513 514
f 506 514 435
f 514 447 435
f 514 515 447
f 447 516 448
f 515 516 447
f 507 449 509
f 449 516 509
f 449 448 516
f 449 507 450
f 450 507 510
f 450 510 451
f 451 510 512
f 451 512 438
f 519 518 517
f 452 453 517
f 453 519 517
f 453 520 519
f 521 453 454
f 521 520 453
f 454 455 521
f 521 455 522
f 525 524 523
f 525 523 518
f 518 523 517
f 523 456 517
f 456 457 517
f 517 457 452
f 455 458 526
f 527 455 526
f 522 455 527
f 460 526 458
f 530 529 528
f 530 528 524
f 524 528 523
f 528 468 523
f 468 469 523
f 523 469 456
f 531 527 526
f 533 531 532
f 532 531 470
f 531 526 470
f 526 460 470
f 471 534 470
f 470 534 532
f 472 534 471
f 528 529 535
f 535 529 536
f 535 483 468
f 535 468 528
f 533 532 537
f 533 537 538
f 539 532 534
f 537 532 539
f 485 539 472
f 472 539 534
f 542 541 540
f 542 540 536
f 540 535 536
f 540 543 535
f 543 495 483
f 543 483 535
f 546 545 544
f 544 545 538
f 537 544 538
f 547 544 537
f 498 547 497
f 547 539 497
f 547 537 539
f 497 539 485
f 550 549 548
f 550 548 541
f 548 540 541
f 548 551 540
f 540 552 543
f 540 551 552
f 552 505 495
f 552 495 543
f 555 554 553
f 553 554 546
f 553 546 544
f 509 553 544
f 508 509 544
f 508 544 511
f 511 544 547
f 511 547 498
f 548 549 556
f 556 549 557
f 548 558 551
f 548 556 558
f 551 559 552
f 551 558 559
f 560 513 505
f 552 560 505
f 559 560 552
f 513 560 561
f 562 513 561
f 514 513 562
f 514 563 515
f 562 563 514
f 553 516 555
f 516 563 555
f 516 515 563
f 516 553 509
f 556 557 564
f 564 557 565
f 556 566 558
f 556 564 566
f 568 559 567
f 559 566 567
f 559 558 566
f 559 568 560
f 560 568 569
f 560 569 561
f 565 570 564
f 564 570 566
f 566 570 571
f 566 571 567
f 573 572 519
f 519 572 518
f 574 519 520
f 574 573 519
f 575 520 521
f 575 574 520
f 521 522 575
f 575 522 576
f 578 577 525
f 525 577 524
f 525 518 572
f 525 572 578
f 527 576 522
f 527 579 576
f 581 580 530
f 530 580 529
f 530 524 577
f 530 577 581
f 527 531 582
f 583 527 582
f 579 527 583
f 533 582 531
f 586 585 584
f 580 586 584
f 536 580 584
f 529 580 536
f 583 582 587
f 583 587 588
f 538 587 533
f 533 587 582
f 591 590 589
f 591 589 585
f 585 589 584
f 589 541 584
f 541 542 584
f 584 542 536
f 588 587 545
f 546 588 545
f 592 588 546
f 545 587 538
f 595 594 593
f 595 593 590
f 590 593 589
f 593 549 589
f 549 550 589
f 589 550 541
f 597 596 554
f 597 554 555
f 546 554 592
f 592 554 596
f 600 599 598
f 600 598 594
f 598 593 594
f 598 601 593
f 601 557 549
f 601 549 593
f 561 602 562
f 562 602 603
f 604 562 603
f 563 562 604
f 555 563 597
f 597 563 604
f 598 599 605
f 605 599 606
f 598 607 601
f 598 605 607
f 607 565 557
f 607 557 601
f 567 608 568
f 568 608 609
f 610 568 609
f 569 568 610
f 561 569 602
f 569 611 602
f 569 610 611
f 602 611 603
f 605 606 612
f 612 606 613
f 605 614 607
f 605 612 614
f 615 570 565
f 607 615 565
f 614 615 607
f 616 571 570
f 616 570 615
f 616 617 571
f 571 617 567
f 617 618 567
f 618 608 567
f 608 618 609
f 613 619 612
f 621 620 619
f 620 612 619
f 620 614 612
f 614 622 615
f 614 620 622
f 624 616 623
f 616 622 623
f 616 615 622
f 616 624 617
f 621 625 620
f 620 625 622
f 622 625 626
f 622 626 623
f 627 572 573
f 574 628 573
f 573 628 627
f 575 629 574
f 574 629 628
f 576 629 575
f 631 630 578
f 578 630 577
f 578 572 627
f 632 578 627
f 631 578 632
f 632 627 628
f 632 628 633
f 633 628 629
f 633 629 634
f 629 576 634
f 576 635 634
f 576 579 635
f 637 636 581
f 581 636 580
f 581 577 630
f 581 630 637
f 583 635 579
f 583 638 635
f 640 639 586
f 586 639 585
f 586 580 636
f 586 636 640
f 588 638 583
f 588 641 638
f 643 642 591
f 591 642 590
f 591 585 639
f 591 639 643
f 646 645 644
f 645 641 644
f 641 592 644
f 641 588 592
f 648 647 595
f 595 647 594
f 595 590 642
f 595 642 648
f 646 644 596
f 597 646 596
f 649 646 597
f 596 644 592
f 651 650 600
f 600 650 599
f 600 594 647
f 600 647 651
f 653 652 604
f 653 604 603
f 597 604 649
f 649 604 652
f 650 606 599
f 654 606 650
f 609 655 610
f 610 655 656
f 657 610 656
f 611 610 657
f 603 611 653
f 653 611 657
f 659 613 658
f 613 654 658
f 613 606 654
f 660 659 658
f 662 661 618
f 662 618 617
f 609 618 655
f 618 663 655
f 618 661 663
f 655 663 656
f 659 619 613
f 621 619 659
f 660 621 659
f 664 621 660
f 666 665 624
f 666 624 623
f 617 624 662
f 662 624 665
f 664 667 621
f 621 667 625
f 625 668 626
f 667 668 625
f 623 626 666
f 666 626 668
f 669 630 631
f 669 631 670
f 631 671 670
f 631 632 671
f 673 671 672
f 671 633 672
f 671 632 633
f 634 674 633
f 633 674 672
f 635 674 634
f 676 675 637
f 637 675 636
f 637 630 669
f 677 637 669
f 676 637 677
f 677 669 670
f 678 673 672
f 680 679 678
f 672 680 678
f 674 680 672
f 638 680 635
f 635 680 674
f 682 681 640
f 640 681 639
f 640 636 675
f 640 675 682
f 679 680 683
f 679 683 684
f 641 683 638
f 638 683 680
f 686 685 643
f 643 685 642
f 643 639 681
f 643 681 686
f 684 683 645
f 646 684 645
f 687 684 646
f 645 683 641
f 689 688 648
f 648 688 647
f 648 642 685
f 648 685 689
f 692 691 690
f 691 687 690
f 687 649 690
f 687 646 649
f 694 693 651
f 651 693 650
f 651 647 688
f 651 688 694
f 697 696 695
f 695 696 692
f 695 692 690
f 653 695 690
f 652 653 690
f 652 690 649
f 693 654 650
f 698 654 693
f 701 700 699
f 699 700 697
f 699 697 695
f 656 699 695
f 657 656 695
f 657 695 653
f 698 702 654
f 654 702 658
f 660 658 702
f 660 702 703
f 705 704 661
f 705 661 662
f 699 663 701
f 663 704 701
f 663 661 704
f 663 699 656
f 703 664 660
f 706 664 703
f 708 707 665
f 708 665 666
f 662 665 705
f 705 665 707
f 706 709 664
f 664 709 667
f 667 710 668
f 709 710 667
f 666 668 708
f 708 668 710
f 711 670 671
f 673 711 671
f 712 675 676
f 677 713 676
f 676 713 712
f 670 711 677
f 711 713 677
f 711 714 713
f 678 715 673
f 715 711 673
f 715 714 711
f 679 715 678
f 717 716 682
f 682 716 681
f 682 675 712
f 718 682 712
f 717 682 718
f 718 712 713
f 718 713 719
f 719 713 714
f 719 714 720
f 722 721 720
f 714 722 720
f 715 722 714
f 684 722 679
f 679 722 715
f 724 723 686
f 686 723 685
f 686 681 716
f 686 716 724
f 721 722 725
f 721 725 726
f 687 725 684
f 684 725 722
f 728 727 689
f 689 727 688
f 689 685 723
f 689 723 728
f 731 730 729
f 729 730 726
f 729 726 725
f 692 729 725
f 691 692 725
f 691 725 687
f 733 732 694
f 694 732 693
f 694 688 727
f 694 727 733
f 731 729 696
f 697 731 696
f 734 731 697
f 696 729 692
f 732 698 693
f 735 698 732
f 737 736 700
f 737 700 701
f 697 700 734
f 734 700 736
f 735 738 698
f 698 738 702
f 703 702 738
f 703 738 739
f 741 740 704
f 741 704 705
f 701 704 737
f 737 704 740
f 739 706 703
f 742 706 739
f 744 743 707
f 744 707 708
f 705 707 741
f 741 707 743
f 742 745 706
f 706 745 709
f 709 746 710
f 745 746 709
f 708 710 744
f 744 710 746
f 747 716 717
f 718 748 717
f 717 748 747
f 719 749 718
f 718 749 748
f 720 750 719
f 719 750 749
f 721 750 720
f 751 723 724
f 716 747 724
f 747 751 724
f 747 752 751
f 753 747 748
f 752 747 753
f 754 748 749
f 753 748 754
f 755 749 750
f 754 749 755
f 726 755 721
f 721 755 750
f 756 727 728
f 757 756 728
f 757 728 723
f 758 757 723
f 751 758 723
f 758 751 752
f 758 752 759
f 761 760 759
f 752 761 759
f 753 761 752
f 762 753 754
f 761 753 762
f 731 762 730
f 762 755 730
f 762 754 755
f 730 755 726
f 764 763 733
f 733 763 732
f 733 727 756
f 765 733 756
f 764 733 765
f 765 756 757
f 760 761 766
f 760 766 767
f 768 761 762
f 766 761 768
f 734 768 731
f 731 768 762
f 763 735 732
f 769 735 763
f 767 766 770
f 767 770 771
f 737 770 736
f 770 768 736
f 770 766 768
f 736 768 734
f 769 772 735
f 735 772 738
f 739 738 772
f 739 772 773
f 776 775 774
f 774 775 771
f 774 771 770
f 741 774 770
f 740 741 770
f 740 770 737
f 773 742 739
f 777 742 773
f 780 779 778
f 778 779 776
f 778 776 774
f 744 778 774
f 743 744 774
f 743 774 741
f 777 781 742
f 742 781 745
f 778 746 780
f 746 781 780
f 746 745 781
f 746 778 744
f 782 757 758
f 759 783 758
f 758 783 782
f 760 783 759
f 784 763 764
f 765 785 764
f 764 785 784
f 757 782 765
f 782 785 765
f 782 786 785
f 787 782 783
f 786 782 787
f 767 787 760
f 760 787 783
f 788 769 784
f 784 769 763
f 789 784 785
f 788 784 789
f 790 785 786
f 789 785 790
f 791 786 787
f 790 786 791
f 771 791 767
f 767 791 787
f 788 772 769
f 772 788 773
f 788 792 773
f 788 789 792
f 793 789 790
f 792 789 793
f 776 793 775
f 793 791 775
f 793 790 791
f 775 791 771
f 794 777 792
f 792 777 773
f 780 794 779
f 794 793 779
f 794 792 793
f 779 793 776
f 794 781 777
f 781 794 780
# 1584 faces, 0 coords texture

# End of File