####
#
# OBJ File Generated by Meshlab
#
####
# Object Volume_131.obj
#
# Vertices: 592
# Faces: 1192
#
####
v 171.388168 241.745392 124.560921
v 169.199692 245.827057 120.099052
v 166.080612 266.104004 120.099731
v 160.360153 268.096710 134.245331
v 168.850937 256.072937 120.084526
v 159.495407 263.995972 131.488724
v 168.388611 261.174835 120.090622
v 160.638321 268.084656 124.174683
v 169.001648 251.832581 133.030838
v 166.863693 278.157318 134.466797
v 163.751831 243.837616 123.109924
v 163.545151 276.321014 136.068100
v 170.759506 253.806183 125.126587
v 167.561264 236.843842 121.830490
v 167.403809 261.942627 134.718948
v 165.226120 264.016113 120.472809
v 161.726715 254.047913 134.527252
v 170.514053 254.618515 127.503448
v 168.191742 246.043503 133.584167
v 163.564667 240.242050 126.574387
v 168.474991 274.345734 131.382385
v 165.540192 275.848267 127.058441
v 163.488663 261.836670 135.799255
v 168.582123 273.704956 131.860123
v 171.372787 243.807144 124.558624
v 159.207367 276.141144 129.238281
v 168.289368 274.329285 132.915588
v 169.457672 257.835846 131.457901
v 170.096039 256.118469 129.063049
v 158.949249 271.612457 129.171387
v 164.691223 277.991760 135.658081
v 163.495255 243.231140 131.472214
v 167.370193 266.041199 134.670029
v 165.545959 254.033463 121.005112
v 166.941177 251.824341 120.263504
v 163.498474 241.661285 129.114960
v 161.437531 278.301025 131.263992
v 163.567505 272.197174 136.062576
v 166.340729 261.957184 120.063980
v 169.319168 262.005096 131.257080
v 159.688416 276.093323 133.224228
v 166.712936 257.921539 120.082291
v 169.534515 263.945374 122.564484
v 169.665894 261.941162 129.003143
v 169.557449 236.011765 120.703461
v 168.070221 245.827652 120.069733
v 159.728088 276.508972 128.601990
v 160.055267 278.110962 133.040390
v 166.015442 261.835785 135.574982
v 165.513489 277.496765 129.640198
v 167.594330 239.856644 126.724342
v 167.394775 256.082397 134.681000
v 170.664215 251.936020 127.959106
v 171.043839 237.346481 121.736687
v 159.338867 266.046967 129.000793
v 164.236908 257.878967 121.680031
v 161.837143 266.047150 123.017899
v 160.658203 269.275299 124.066460
v 163.634293 247.877533 122.737968
v 166.229599 239.795044 121.346794
v 161.540314 241.928726 126.914330
v 170.781708 240.508057 126.107025
v 163.499588 244.509293 133.006851
v 167.919434 276.163849 131.544006
v 161.472168 263.944672 135.060135
v 170.256546 254.065094 129.168411
v 161.778351 251.986237 134.462875
v 170.746140 247.876694 128.481583
v 165.594574 251.970596 121.040413
v 159.613831 257.844177 128.914246
v 159.785965 254.054642 131.441010
v 160.536804 245.930618 133.052612
v 169.614197 239.058929 125.169617
v 171.090897 249.925186 124.499268
v 161.487106 243.426575 131.343506
v 163.585327 249.933670 122.664413
v 167.220749 277.607697 131.567383
v 167.393448 259.892853 134.693298
v 168.227783 266.033112 133.800034
v 169.197800 247.875443 120.093651
v 167.284073 239.547058 120.556305
v 163.567810 270.146423 136.058441
v 165.486176 253.976761 135.954163
v 169.870682 251.962570 120.551086
v 163.592056 239.584961 124.749245
v 170.460709 254.003296 121.461006
v 161.522049 276.298889 135.390625
v 161.456467 249.931335 124.842941
v 161.552658 272.197937 135.321884
v 169.203217 243.775223 120.089645
v 169.513214 256.078522 131.465500
v 164.790375 276.284943 135.941193
v 167.694366 254.039383 120.001640
v 171.018951 247.875549 126.801155
v 170.780670 245.819763 121.326019
v 170.278580 257.749786 122.046104
v 160.402725 243.971893 131.209244
v 158.923172 274.241669 128.981262
v 163.567017 274.248718 136.072067
v 163.543961 254.032089 122.560837
v 162.623657 276.255249 135.918427
v 165.846710 276.281128 135.501480
v 169.898438 247.879532 131.397385
v 160.950500 243.532700 126.477211
v 167.613571 257.849121 119.868309
v 170.465698 250.046036 129.390228
v 163.724640 257.865173 135.593597
v 165.550903 271.082947 121.801437
v 162.343689 240.803116 126.600258
v 160.443878 260.371918 125.539352
v 162.265869 241.867859 125.267929
v 169.845932 261.928894 126.693008
v 159.529877 259.891113 131.488464
v 168.760544 261.933380 133.093079
v 159.135880 276.289246 131.159164
v 162.654617 270.146881 135.878952
v 165.586014 250.051300 135.919403
v 160.447357 249.937851 126.688927
v 159.439392 266.045624 131.492157
v 164.943527 241.584976 122.250679
v 169.071045 269.951324 124.676216
v 168.914612 245.907242 132.849136
v 161.455719 276.854614 128.364197
v 159.150620 274.176880 126.761513
v 171.563171 237.961578 122.055809
v 159.854279 249.946945 129.046585
v 160.157135 256.001160 133.414047
v 168.380722 249.925446 133.909912
v 171.370880 237.828873 122.548546
v 159.405518 268.096527 131.494751
v 161.451660 275.900421 127.022446
v 163.167007 263.873962 135.841888
v 168.036163 270.200378 133.759598
v 163.289185 257.772614 122.502541
v 169.557602 266.040192 126.497589
v 166.631622 259.945190 120.012413
v 165.903839 259.881653 135.533630
v 159.878601 259.887604 133.109650
v 165.633286 246.973251 135.661118
v 165.531830 272.192780 122.869484
v 161.924896 264.085052 123.157715
v 171.211868 245.800186 122.759911
v 168.840805 266.000305 121.149757
v 167.474380 269.805420 121.190277
v 160.300613 256.087097 126.648590
v 160.498901 247.893112 126.704041
v 169.731552 245.872223 131.338730
v 168.194473 239.790817 120.117714
v 159.669022 265.948517 126.530739
v 160.346542 270.143341 134.255966
v 162.568207 246.475571 123.781212
v 160.592331 244.688965 132.331253
v 170.876602 251.929596 124.617058
v 165.222336 239.692139 122.373802
v 162.003555 241.351212 127.639763
v 167.963135 272.188843 133.745392
v 167.187592 270.057587 134.659058
v 170.525146 241.122940 127.389374
v 168.633636 265.906525 133.102005
v 167.296631 275.322479 127.449699
v 167.598740 242.632568 130.482300
v 168.840973 257.838440 133.104691
v 170.599625 256.093079 122.847610
v 170.738571 254.281021 123.122826
v 159.809525 262.010925 126.918793
v 169.622665 237.271484 122.833755
v 162.435760 254.032013 123.613876
v 165.982803 243.777603 121.210777
v 170.414062 256.081848 127.468498
v 159.330963 270.225647 131.534134
v 169.127014 265.956879 131.263443
v 159.392410 264.011841 129.020248
v 163.520828 240.850082 127.802055
v 162.624771 269.540680 122.018890
v 168.653046 272.684570 129.142670
v 168.292847 269.800018 121.665337
v 163.669266 259.899261 135.656677
v 165.530762 239.890823 126.682564
v 165.405411 256.642731 135.982208
v 164.983612 268.084961 120.635223
v 167.355576 247.898972 134.613373
v 165.478012 253.919220 135.961838
v 159.190491 272.324829 131.276947
v 165.628433 248.056030 135.804642
v 159.682831 274.774689 126.453957
v 159.195496 271.732056 126.530746
v 159.779739 264.001038 126.620750
v 160.749466 266.036621 124.282555
v 168.218109 274.196259 129.019943
v 165.900070 268.091095 135.579483
v 170.856262 251.944504 122.498627
v 167.596695 241.644363 129.117569
v 159.994690 247.882263 131.458191
v 165.872528 272.190979 135.549149
v 159.088196 272.650208 126.724236
v 163.491104 275.135376 125.987656
v 165.551895 239.027191 125.205925
v 166.072662 241.784119 121.239281
v 164.133698 259.929352 121.562920
v 167.396027 257.841187 134.688873
v 165.505020 276.759216 128.434387
v 162.824661 243.669235 124.027901
v 164.047424 261.946136 121.420792
v 168.541687 268.088837 133.123489
v 161.587341 266.062988 135.225906
v 171.280060 243.743942 122.531235
v 168.317978 259.890533 133.857819
v 165.448090 257.747192 120.729103
v 163.046570 241.719513 124.240463
v 163.217773 259.793976 122.361710
v 167.542313 274.273865 126.524734
v 161.876328 247.969711 134.317673
v 167.119781 278.410126 133.556152
v 170.683243 254.080627 124.207878
v 168.450409 237.654663 120.244957
v 159.089600 274.251892 131.152023
v 160.494492 264.232391 134.270782
v 170.656006 249.750793 121.267212
v 171.667313 238.886703 122.078712
v 170.991592 237.733337 121.275368
v 164.566956 238.628082 123.633263
v 160.992966 245.598053 133.374054
v 169.352554 265.971924 122.518753
v 167.219543 267.775482 120.224266
v 169.371658 259.879028 131.450974
v 169.757553 256.048523 120.638359
v 161.560425 268.096191 135.309204
v 164.778564 243.778259 122.213753
v 167.586136 238.160828 124.206947
v 170.727142 253.914169 126.458488
v 169.211823 241.721390 120.075401
v 165.627853 248.442032 135.849091
v 161.519638 256.059021 134.672226
v 168.874146 254.024017 133.109222
v 165.539062 251.975220 135.963531
v 160.438522 261.948456 134.094162
v 166.850250 254.036072 120.232239
v 169.594254 240.056152 126.595772
v 170.431488 247.880508 129.757706
v 165.541901 251.961288 135.950699
v 162.647598 274.250275 135.894089
v 165.516724 278.789246 133.517960
v 163.495224 278.782501 132.537598
v 167.391998 254.031052 134.679047
v 162.904495 265.968872 135.871323
v 164.029877 264.193329 136.061218
v 163.557800 249.936050 135.278961
v 169.529404 263.986115 128.988083
v 167.202972 274.311584 134.580933
v 165.082489 265.941956 120.446693
v 159.937576 247.884888 129.023712
v 166.593369 278.440979 134.450302
v 168.357895 247.889832 133.875732
v 163.496628 273.987457 124.817368
v 161.714844 278.557404 134.860336
v 159.915009 257.825256 133.106079
v 167.594498 237.695908 120.750633
v 168.714554 264.016541 133.052338
v 164.800690 268.093811 135.967331
v 161.720322 268.112976 122.941078
v 168.245667 263.983612 120.318550
v 158.854919 278.007538 130.527664
v 171.130005 247.847412 122.616302
v 167.063782 272.209290 134.710022
v 167.451172 276.163696 129.000687
v 170.856705 243.757919 121.319389
v 165.456879 255.658463 135.956436
v 160.358902 278.261719 134.471588
v 167.595871 259.889526 119.856026
v 168.288193 236.404037 120.765709
v 167.787659 276.148682 133.236237
v 163.958755 264.002350 121.318100
v 162.667206 268.098816 135.855133
v 159.909958 273.901398 125.857597
v 159.652588 274.256897 133.152115
v 168.273026 263.986115 133.835464
v 162.312943 257.874329 123.488495
v 168.684372 272.847168 130.948120
v 161.609329 245.835022 124.969986
v 168.029037 249.964600 120.019821
v 160.427322 257.843628 134.055801
v 165.504410 278.232971 131.289459
v 170.577850 255.875305 122.025993
v 168.347092 272.184479 132.971725
v 162.203568 260.027222 123.357918
v 170.135773 247.872498 120.556190
v 161.091751 261.946686 124.364891
v 168.190536 270.746613 122.099403
v 163.560822 251.944046 122.628616
v 170.536621 253.393082 127.914345
v 165.419235 257.080170 135.976868
v 162.610413 278.069427 135.712402
v 160.941132 263.867096 124.337166
v 169.146301 268.142883 122.759003
v 163.507019 245.791214 123.031250
v 171.102798 241.758972 126.369247
v 161.487732 242.786621 130.388687
v 168.072662 243.775925 120.077431
v 168.080536 241.731155 120.087341
v 161.459213 261.950897 134.934464
v 161.615952 278.120972 135.251877
v 168.828751 270.130493 131.471481
v 168.565979 268.026245 121.258156
v 159.243744 268.097504 128.997101
v 166.633041 237.350357 122.129951
v 163.772598 266.138397 136.060730
v 169.704865 263.996307 126.497864
v 169.098373 261.837219 120.891258
v 160.607025 244.073059 127.004578
v 163.616989 247.943634 135.056076
v 159.825424 270.145477 133.368607
v 168.742950 271.728363 126.515442
v 170.933060 241.637680 121.247322
v 167.108444 276.294037 134.468536
v 170.757324 247.868973 121.309799
v 162.596115 245.220551 123.973732
v 170.112579 260.057007 122.744820
v 167.175720 247.884293 120.330818
v 167.571930 243.343277 131.393066
v 170.563202 241.950607 127.904793
v 160.419327 254.071686 133.228424
v 170.147491 245.825073 120.543198
v 158.881226 278.026276 130.568283
v 160.371246 266.066406 134.227020
v 169.366211 268.186737 124.458595
v 161.523087 274.264191 135.337799
v 162.507614 247.883682 123.705353
v 163.492126 276.904358 128.333160
v 167.336670 273.439606 125.171112
v 159.549911 257.827026 131.503357
v 159.841019 268.098053 133.373581
v 167.613205 256.114716 119.888039
v 160.083618 259.746338 126.513229
v 169.573380 266.038879 124.502281
v 165.643753 249.936630 121.153366
v 169.414200 237.634171 120.268188
v 163.739471 266.005554 121.307281
v 159.745209 254.041077 128.927460
v 159.958221 264.000244 133.413940
v 170.147385 260.005676 124.464020
v 168.790924 244.650345 132.186188
v 169.192337 242.891617 130.268753
v 169.381012 268.050232 126.481743
v 163.541351 251.981079 135.334457
v 169.834396 259.867065 128.836716
v 159.477951 261.896301 128.905212
v 161.480713 259.902771 134.842697
v 169.136276 249.850952 120.076904
v 169.992233 257.837341 128.896072
v 166.798111 256.087219 120.158211
v 168.635880 257.674377 120.102386
v 161.069260 259.805054 124.683029
v 161.515167 247.890701 124.883125
v 158.884827 272.621521 128.849808
v 168.227524 271.221344 122.880676
v 169.389603 266.126007 129.134003
v 163.572128 268.097382 136.062119
v 169.594742 240.882446 127.721786
v 165.544983 241.588882 129.163300
v 170.619217 243.614639 128.365555
v 169.186859 243.822067 131.111633
v 163.609650 246.231018 134.364182
v 163.524567 254.032990 135.375198
v 165.515839 275.017761 126.092636
v 163.503891 256.082611 135.454224
v 170.717026 249.742111 128.322174
v 164.256683 262.371338 136.009872
v 164.815186 266.037048 135.995682
v 164.797928 274.248108 135.963989
v 171.196548 247.865234 124.503616
v 161.885284 271.796417 123.472931
v 168.968750 268.088318 131.482559
v 169.746689 251.877060 131.385162
v 169.642960 238.244370 124.173241
v 170.337250 252.094330 129.325363
v 159.646576 256.079895 131.461945
v 161.796021 243.837677 125.159981
v 160.166367 278.453613 133.689346
v 168.810669 271.695740 128.954803
v 167.393051 263.991760 134.706985
v 165.545410 242.548325 130.536713
v 159.893326 265.990448 133.387070
v 161.806625 249.946243 134.412277
v 165.638046 248.133865 135.847549
v 159.505630 261.930145 131.497925
v 160.331802 243.850845 128.878464
v 168.381653 272.735748 126.515350
v 161.494003 278.668182 132.573624
v 163.113037 261.836273 122.244080
v 163.546875 269.943970 121.454185
v 159.016876 278.123169 130.778198
v 169.250809 239.662384 120.075745
v 162.975693 263.979980 122.150620
v 160.400436 261.954132 125.415131
v 163.532410 271.042114 121.918427
v 159.254013 275.309967 127.295013
v 167.709000 251.992538 120.005341
v 161.590225 242.051651 128.923645
v 164.791428 270.145538 135.956573
v 160.238663 272.219238 125.163719
v 169.606827 236.666748 121.859863
v 171.577423 239.661041 122.605888
v 167.270370 278.175659 133.198380
v 171.076187 245.819962 126.803352
v 159.670319 256.086426 128.922318
v 163.496307 256.081665 122.500313
v 160.087402 245.857407 131.458817
v 169.647781 257.771545 120.885796
v 160.039536 268.114655 125.230148
v 166.638046 237.709274 121.781105
v 162.776627 265.885193 122.104660
v 171.110672 238.542862 123.683746
v 168.433823 270.118927 133.023087
v 171.002670 249.838211 122.504608
v 171.401917 241.696960 122.542305
v 159.706100 272.198334 133.148666
v 168.331558 254.030075 133.862549
v 163.970978 241.732056 123.178429
v 170.068558 259.985352 126.604454
v 168.112656 272.259735 124.592896
v 168.969238 263.963531 121.152451
v 161.448090 277.567841 129.603119
v 162.472488 249.930023 123.667038
v 163.494034 275.951904 126.980507
v 170.596405 256.204315 124.473053
v 165.543762 243.230759 131.471802
v 171.049820 239.648315 124.545311
v 169.246353 268.097931 128.982605
v 165.701065 278.138489 135.240799
v 162.654984 272.197357 135.878448
v 168.631180 271.424896 124.706848
v 162.657349 268.097961 122.047409
v 162.447525 251.948700 123.625816
v 169.587158 254.028076 131.476654
v 160.428726 278.448700 134.464233
v 170.489517 251.882126 121.361763
v 165.578247 238.446533 124.101105
v 164.689774 245.808319 122.090004
v 165.530106 273.955109 124.866669
v 169.856781 249.881607 131.389877
v 163.493713 278.369141 131.234955
v 168.888885 251.968491 120.089661
v 165.884644 270.141449 135.545288
v 168.710205 272.128815 131.482712
v 167.248459 241.731720 120.407150
v 161.378281 256.084503 124.784851
v 159.461380 277.398102 129.778091
v 160.100128 270.205536 124.931747
v 168.484894 259.871979 120.072983
v 170.353699 255.851486 121.382523
v 161.623291 270.066528 122.946457
v 163.489670 278.060852 135.856659
v 170.424744 257.782410 124.763954
v 164.986740 263.877289 135.978882
v 165.629669 269.883972 121.104103
v 161.321487 257.891052 124.685371
v 167.644562 237.316849 122.823029
v 168.809998 259.886536 133.094437
v 167.220917 243.777740 120.379555
v 168.322861 262.258636 120.218124
v 168.181122 268.071747 133.766235
v 169.087509 249.910629 133.016037
v 165.880676 274.248779 135.552399
v 167.121231 249.920471 120.258186
v 168.325974 256.082275 133.858017
v 164.942688 259.899109 135.745590
v 163.505569 278.518890 135.206131
v 160.137466 266.128571 125.265282
v 160.588516 243.186035 130.251022
v 163.542419 272.124908 122.935211
v 168.764084 269.933319 122.695473
v 160.360413 254.034363 126.673050
v 168.865784 254.030746 120.102379
v 166.018097 267.891205 120.268677
v 162.658173 270.976288 122.094307
v 169.536285 242.042572 128.877823
v 165.532288 244.494324 133.005722
v 169.411697 259.809204 120.962448
v 163.492798 277.623383 129.572952
v 164.202927 238.817230 124.057823
v 170.937622 249.918060 126.790794
v 165.430161 255.850296 135.962387
v 164.790451 272.197845 135.953201
v 170.670273 253.811249 122.315331
v 161.439926 278.794861 133.490692
v 169.343872 235.735504 120.197632
v 170.250336 239.574799 120.452927
v 167.528625 244.638611 132.875381
v 165.928818 245.837860 121.162598
v 159.961945 249.935837 131.453674
v 162.170029 261.956177 123.142021
v 169.766373 261.958344 122.861145
v 159.536346 268.114838 126.591316
v 167.405838 251.979889 134.700729
v 160.324356 276.344727 134.388199
v 170.433456 257.348633 126.362823
v 170.587296 255.733658 125.073967
v 160.464249 256.582550 134.010315
v 167.594223 240.697479 127.889374
v 169.712082 264.012512 124.519012
v 165.294037 261.819794 120.550064
v 165.889328 238.025513 122.806816
v 170.556381 256.089447 126.440842
v 159.539551 259.907776 128.892288
v 171.134628 239.560364 121.262199
v 159.560577 275.635284 127.245987
v 165.920013 266.043884 135.607590
v 160.214554 257.858032 126.609207
v 170.170135 243.771149 120.528748
v 164.274979 239.695053 123.403496
v 165.309021 278.503204 135.034332
v 168.059616 247.880951 120.048088
v 170.825272 251.992310 126.698387
v 160.050522 245.839981 129.033325
v 166.299652 264.002167 120.061020
v 159.368774 270.190125 126.538002
v 167.338486 268.082153 134.628769
v 165.696762 247.900253 121.207130
v 160.592087 249.933273 133.161026
v 167.594818 238.883118 125.297340
v 162.946884 240.261536 125.468170
v 162.393173 256.084839 123.568474
v 169.233963 263.977783 131.262024
v 168.301239 261.939941 133.853958
v 167.873886 268.047211 120.543671
v 170.032104 250.050430 120.524475
v 160.371536 272.201111 134.250671
v 171.115036 243.685394 126.681030
v 161.441620 251.980942 124.830818
v 163.688431 268.108063 121.277451
v 165.591675 249.941696 135.938156
v 166.014603 264.092133 135.603561
v 161.419098 254.031662 124.815048
v 160.267471 264.005066 125.330238
v 165.534851 278.670807 132.566223
v 171.289780 245.852890 124.527870
v 163.494568 242.570114 130.521622
v 170.208099 241.712143 120.492355
v 167.468781 266.020752 120.062935
v 160.812820 242.659653 128.725143
v 169.085587 247.889877 133.012054
v 161.457779 275.035278 126.096909
v 168.633118 235.761581 120.182693
v 165.543839 240.687622 127.896446
v 167.230560 246.160477 134.166565
v 170.840195 253.002533 124.075302
v 162.637817 270.547455 121.919594
v 160.330399 274.351990 134.306686
v 168.350876 251.973297 133.873032
v 165.327072 259.890350 120.669472
v 168.709000 235.667282 120.080467
v 169.786774 254.019119 120.617798
v 169.044327 270.054779 128.898697
v 170.075470 243.867630 129.621628
v 170.734573 245.822281 128.479370
v 159.806259 251.903046 128.993912
v 164.681931 247.004608 122.012352
v 170.097397 259.353088 122.133377
v 167.539230 270.946014 121.913429
v 167.410797 249.929932 134.706848
v 170.417923 257.833435 122.807343
v 159.910950 261.787506 133.229385
v 161.515289 273.763702 125.089104
v 165.009964 261.979523 135.933685
v 161.511383 244.605331 132.837006
v 169.118210 269.994690 126.608704
v 161.983215 246.185303 133.999924
v 167.201065 245.830414 120.355194
v 168.326462 257.839844 133.860321
v 169.220505 235.620453 120.138435
v 160.454819 259.888733 134.052917
v 168.179123 266.005035 120.390030
v 170.344406 257.975220 126.682320
v 168.856201 256.081421 133.109528
v 167.447784 271.893524 123.106857
v 170.377792 245.835602 129.741730
v 160.611862 247.876740 133.119415
v 161.555435 270.146362 135.315826
v 159.823761 252.062561 131.130066
v 170.333267 236.678055 121.052818
v 159.108505 270.146515 129.004288
v 167.487488 263.977509 120.017792
v 167.963242 274.056488 133.694702
v 160.389648 251.985107 126.679482
v 169.939011 261.840576 124.752487
v 161.503677 257.876038 134.784012
v 167.665115 261.936127 119.865738
v 167.208878 277.042603 129.985245
v 165.456665 256.080536 120.908684
v 160.550613 245.834717 126.823593
v 163.493195 278.864166 133.518311
v 160.565140 251.993256 133.171265
# 592 vertices, 0 vertices normals

f 186 400 195
f 509 266 322
f 134 406 589
f 361 341 147
f 124 185 396
f 427 62 296
f 398 297 36
f 572 143 303
f 19 488 545
f 67 519 592
f 507 190 33
f 245 273 357
f 530 390 174
f 575 420 329
f 128 549 462
f 370 74 263
f 345 419 573
f 81 148 445
f 379 566 553
f 203 272 393
f 417 244 465
f 266 415 206
f 443 194 264
f 109 20 521
f 308 492 421
f 261 143 572
f 371 470 254
f 150 4 331
f 108 575 140
f 444 27 24
f 90 2 46
f 245 357 306
f 124 26 98
f 462 549 9
f 479 123 328
f 549 494 417
f 374 457 229
f 506 396 185
f 576 68 555
f 45 270 401
f 442 526 84
f 406 34 589
f 510 418 209
f 285 491 287
f 425 497 503
f 318 46 512
f 400 371 563
f 329 420 211
f 394 534 187
f 92 31 429
f 19 545 253
f 336 580 220
f 554 555 360
f 154 60 120
f 515 587 582
f 205 227 245
f 265 64 77
f 175 278 21
f 183 216 275
f 340 561 453
f 502 229 457
f 583 27 284
f 326 495 87
f 142 370 263
f 8 58 448
f 383 247 310
f 322 95 286
f 117 560 181
f 164 484 546
f 272 501 16
f 366 53 481
f 392 299 148
f 400 274 124
f 362 310 184
f 71 376 127
f 285 210 491
f 438 168 489
f 375 66 290
f 430 99 38
f 122 541 147
f 395 140 470
f 318 512 464
f 289 335 69
f 43 500 334
f 275 216 41
f 182 482 83
f 453 503 496
f 413 284 302
f 441 388 37
f 375 434 66
f 62 320 296
f 179 137 200
f 279 295 151
f 191 484 86
f 262 115 26
f 236 300 347
f 456 277 285
f 381 161 192
f 48 115 262
f 239 106 366
f 417 465 234
f 407 97 386
f 394 187 165
f 155 398 173
f 467 511 31
f 120 198 228
f 591 467 485
f 186 195 30
f 18 503 230
f 361 147 554
f 446 522 456
f 339 6 382
f 234 434 373
f 124 396 26
f 291 466 137
f 439 329 211
f 585 307 500
f 323 262 26
f 528 360 555
f 39 587 515
f 80 280 512
f 90 46 298
f 253 181 128
f 217 65 300
f 468 293 188
f 408 450 96
f 284 27 444
f 405 472 145
f 114 258 40
f 379 175 387
f 32 63 426
f 407 72 97
f 422 262 447
f 66 230 290
f 177 347 300
f 504 70 508
f 17 363 344
f 506 26 396
f 550 136 501
f 364 211 22
f 186 516 400
f 199 208 550
f 258 79 159
f 348 442 397
f 295 438 59
f 460 587 308
f 163 96 283
f 491 210 389
f 408 96 478
f 339 324 217
f 449 478 7
f 179 482 291
f 359 381 192
f 466 564 49
f 433 76 289
f 480 85 197
f 197 51 520
f 234 574 434
f 92 429 102
f 401 166 54
f 273 116 82
f 462 9 373
f 156 264 583
f 338 584 472
f 8 57 260
f 180 474 455
f 260 432 174
f 551 486 543
f 303 294 176
f 120 60 198
f 67 17 344
f 363 182 240
f 137 49 78
f 95 142 315
f 69 35 237
f 381 319 161
f 261 572 539
f 267 179 291
f 267 52 244
f 425 503 453
f 276 15 380
f 196 364 424
f 404 68 94
f 538 505 313
f 80 348 280
f 333 456 352
f 2 512 46
f 470 439 254
f 246 23 132
f 326 241 430
f 272 16 337
f 456 285 352
f 346 165 187
f 162 28 91
f 340 453 419
f 61 309 540
f 578 150 89
f 428 372 302
f 202 11 316
f 3 582 539
f 528 404 25
f 22 211 160
f 232 139 384
f 568 298 46
f 258 523 40
f 578 4 150
f 54 129 125
f 452 31 92
f 379 387 312
f 246 132 306
f 333 504 508
f 87 101 241
f 118 584 556
f 281 586 233
f 487 220 505
f 41 268 495
f 228 168 438
f 555 68 404
f 401 457 166
f 25 206 415
f 351 449 269
f 338 472 405
f 524 276 114
f 42 332 105
f 523 171 356
f 240 494 560
f 84 218 436
f 168 459 489
f 576 103 239
f 442 84 473
f 263 414 218
f 485 378 48
f 227 578 273
f 166 129 54
f 124 274 185
f 69 464 35
f 483 463 194
f 344 363 240
f 392 487 231
f 16 515 250
f 282 588 77
f 279 146 590
f 445 299 459
f 113 330 70
f 56 134 589
f 133 517 157
f 276 380 79
f 198 81 445
f 490 592 519
f 128 181 560
f 529 472 584
f 238 51 358
f 475 395 470
f 110 352 394
f 423 76 433
f 405 70 330
f 297 75 32
f 323 447 262
f 183 581 30
f 133 413 204
f 311 150 331
f 238 158 62
f 199 389 210
f 133 461 517
f 521 20 85
f 5 226 351
f 362 184 477
f 204 413 372
f 374 229 73
f 281 498 127
f 533 433 167
f 458 524 114
f 220 125 505
f 441 50 282
f 20 544 178
f 166 412 129
f 34 350 589
f 425 13 497
f 327 295 59
f 232 117 531
f 358 476 158
f 130 331 119
f 487 505 538
f 126 556 579
f 476 360 320
f 398 36 173
f 336 392 148
f 114 276 258
f 104 377 309
f 177 564 466
f 31 511 429
f 73 238 62
f 118 556 126
f 211 265 160
f 263 74 414
f 297 469 75
f 172 119 6
f 281 256 571
f 524 78 15
f 426 477 319
f 525 224 572
f 75 97 152
f 424 364 22
f 466 49 137
f 535 213 242
f 171 372 356
f 337 16 250
f 137 78 200
f 439 211 364
f 499 192 358
f 451 260 174
f 541 103 147
f 22 265 201
f 422 37 262
f 116 430 38
f 311 527 150
f 211 387 189
f 246 454 564
f 523 356 248
f 506 131 123
f 514 590 251
f 442 473 93
f 203 393 389
f 395 108 140
f 529 433 533
f 509 313 266
f 48 378 268
f 152 97 72
f 395 455 108
f 571 236 347
f 164 546 214
f 25 415 1
f 42 105 136
f 56 589 208
f 243 282 535
f 90 538 509
f 435 268 378
f 129 219 125
f 23 65 132
f 88 327 423
f 166 457 374
f 554 147 576
f 167 406 522
f 141 389 393
f 473 332 93
f 277 134 210
f 349 28 225
f 504 165 346
f 59 518 76
f 25 1 296
f 89 430 116
f 214 153 13
f 232 181 545
f 419 453 573
f 129 402 219
f 505 125 219
f 240 531 235
f 563 196 542
f 5 105 332
f 71 579 556
f 571 347 586
f 428 566 343
f 401 270 14
f 533 167 446
f 506 542 131
f 537 32 426
f 221 437 502
f 144 303 176
f 371 475 470
f 29 28 349
f 377 202 316
f 29 169 18
f 371 547 475
f 353 151 327
f 348 526 442
f 424 201 328
f 117 531 240
f 514 251 193
f 491 293 287
f 354 30 195
f 87 268 301
f 563 542 274
f 8 188 57
f 201 588 50
f 456 522 277
f 98 26 115
f 166 374 412
f 66 29 18
f 266 206 95
f 565 72 222
f 106 53 366
f 336 487 392
f 73 229 520
f 504 346 385
f 194 463 264
f 163 561 96
f 394 352 287
f 61 104 309
f 559 355 575
f 518 318 335
f 476 554 360
f 413 302 372
f 454 507 532
f 510 209 85
f 361 319 488
f 18 169 503
f 90 509 2
f 239 366 68
f 333 352 110
f 354 195 98
f 419 44 112
f 569 52 200
f 82 399 259
f 179 200 52
f 568 46 318
f 369 92 102
f 338 71 556
f 315 263 218
f 483 369 463
f 57 411 432
f 361 161 319
f 99 12 369
f 258 159 523
f 341 122 147
f 107 177 466
f 53 290 513
f 182 267 244
f 479 328 50
f 505 415 313
f 11 295 316
f 39 136 269
f 111 85 209
f 282 77 535
f 427 1 402
f 326 87 241
f 526 286 315
f 247 344 117
f 221 510 85
f 107 267 365
f 333 110 165
f 356 307 248
f 5 552 226
f 567 72 212
f 502 410 154
f 340 419 112
f 58 451 448
f 463 102 249
f 218 191 436
f 93 332 350
f 356 372 428
f 314 403 271
f 250 3 180
f 217 205 65
f 418 11 202
f 38 99 483
f 478 317 492
f 233 127 498
f 578 89 116
f 182 244 494
f 246 367 23
f 297 537 36
f 243 535 242
f 431 471 121
f 516 581 493
f 26 47 447
f 433 289 100
f 40 523 248
f 549 417 9
f 89 150 527
f 130 55 304
f 338 405 376
f 254 439 364
f 108 144 559
f 108 559 575
f 348 286 526
f 182 267 482
f 179 291 137
f 581 304 493
f 156 157 264
f 542 185 274
f 380 33 79
f 534 293 468
f 355 471 431
f 89 527 326
f 279 316 295
f 370 94 481
f 405 145 70
f 80 322 286
f 375 290 53
f 227 273 245
f 3 539 474
f 141 393 57
f 59 438 557
f 317 558 561
f 184 232 384
f 505 402 415
f 530 180 390
f 559 288 355
f 162 207 458
f 346 172 6
f 250 515 3
f 551 543 270
f 541 462 103
f 379 312 566
f 370 481 74
f 203 501 272
f 446 508 145
f 61 109 521
f 205 245 132
f 407 193 577
f 452 467 31
f 437 520 229
f 449 408 478
f 285 287 352
f 288 471 355
f 86 484 450
f 583 249 271
f 438 489 557
f 41 48 268
f 183 416 170
f 546 153 214
f 35 397 237
f 411 337 432
f 192 161 476
f 359 192 499
f 104 111 377
f 480 221 85
f 100 34 406
f 408 226 450
f 184 545 488
f 368 190 507
f 214 13 425
f 585 500 43
f 62 158 320
f 526 315 218
f 320 528 296
f 311 331 130
f 177 300 23
f 123 422 47
f 369 102 463
f 474 539 224
f 361 342 161
f 13 503 497
f 441 243 388
f 353 327 88
f 218 414 191
f 443 157 517
f 286 95 315
f 163 425 453
f 361 476 342
f 591 485 388
f 518 489 568
f 308 478 492
f 8 448 409
f 212 72 577
f 506 47 26
f 11 120 228
f 242 252 511
f 2 322 80
f 301 255 292
f 141 57 188
f 481 53 513
f 552 86 226
f 574 569 162
f 479 441 37
f 423 59 76
f 449 7 587
f 41 216 115
f 402 1 415
f 33 517 461
f 462 440 103
f 132 245 306
f 418 120 11
f 73 520 238
f 525 303 144
f 516 409 448
f 452 292 255
f 565 63 32
f 285 277 210
f 371 254 563
f 414 153 191
f 159 171 523
f 341 488 122
f 207 200 78
f 184 232 545
f 477 184 488
f 325 566 121
f 452 12 292
f 231 90 298
f 377 590 309
f 16 39 515
f 567 362 63
f 19 253 122
f 502 305 410
f 187 149 55
f 88 529 584
f 39 269 587
f 516 493 409
f 265 189 64
f 394 287 534
f 543 257 270
f 241 12 99
f 309 386 540
f 418 202 209
f 169 573 496
f 398 540 469
f 76 518 335
f 13 230 503
f 480 197 437
f 460 261 582
f 534 468 149
f 529 423 433
f 133 157 156
f 294 325 121
f 142 25 536
f 107 179 267
f 377 316 279
f 427 296 1
f 357 259 368
f 313 415 266
f 401 14 457
f 578 116 273
f 328 201 50
f 477 488 319
f 208 42 550
f 576 239 68
f 486 580 336
f 44 248 112
f 543 486 215
f 43 334 223
f 479 50 441
f 376 330 127
f 295 228 438
f 29 91 28
f 442 93 397
f 361 488 341
f 3 515 582
f 107 291 179
f 353 118 146
f 56 199 210
f 571 138 236
f 590 146 251
f 95 206 142
f 49 15 78
f 9 234 373
f 294 121 471
f 410 257 81
f 399 483 194
f 227 324 4
f 534 287 293
f 63 362 477
f 215 336 148
f 70 145 508
f 175 21 189
f 82 38 399
f 232 531 384
f 8 409 188
f 322 266 95
f 267 83 482
f 253 128 541
f 111 521 85
f 537 381 359
f 383 519 67
f 239 103 440
f 236 138 562
f 374 73 427
f 116 38 82
f 284 444 302
f 154 410 60
f 208 350 332
f 459 299 298
f 178 544 499
f 211 420 387
f 122 253 541
f 506 123 47
f 429 10 314
f 536 94 370
f 450 283 96
f 479 37 422
f 464 280 35
f 130 119 55
f 40 248 44
f 182 235 83
f 357 82 259
f 373 106 440
f 361 554 476
f 189 21 64
f 500 307 135
f 110 394 165
f 192 476 358
f 183 275 416
f 460 308 421
f 356 428 135
f 436 191 86
f 414 74 153
f 156 583 284
f 297 32 537
f 5 351 105
f 74 513 153
f 8 260 58
f 236 562 217
f 140 575 329
f 272 411 393
f 493 304 149
f 449 587 269
f 317 340 585
f 325 334 343
f 410 14 270
f 233 321 127
f 575 355 420
f 330 256 127
f 416 548 527
f 454 368 507
f 335 318 464
f 591 242 511
f 142 263 315
f 240 83 235
f 323 26 447
f 40 345 225
f 67 592 17
f 117 384 531
f 184 139 232
f 233 365 363
f 479 422 123
f 437 197 520
f 574 91 434
f 522 406 134
f 430 241 99
f 251 126 490
f 458 114 225
f 552 436 86
f 539 572 224
f 424 22 201
f 203 389 199
f 585 43 492
f 416 275 548
f 420 312 387
f 337 250 530
f 432 530 174
f 207 524 458
f 337 530 432
f 163 453 561
f 58 260 451
f 421 43 143
f 504 385 113
f 524 15 276
f 583 264 249
f 203 199 550
f 478 558 317
f 312 121 566
f 128 560 549
f 153 513 13
f 310 247 232
f 444 553 302
f 490 579 592
f 87 301 101
f 239 440 106
f 435 301 268
f 109 173 20
f 320 360 528
f 581 170 304
f 164 425 163
f 276 79 258
f 195 124 98
f 554 576 555
f 462 373 440
f 505 219 402
f 338 556 584
f 21 24 27
f 546 484 153
f 489 459 568
f 381 426 319
f 468 493 149
f 187 55 172
f 66 434 91
f 502 14 305
f 61 111 104
f 309 590 514
f 156 284 413
f 368 259 190
f 143 223 294
f 543 215 257
f 246 564 367
f 349 345 573
f 339 382 324
f 470 140 439
f 325 343 566
f 571 256 138
f 433 100 167
f 155 109 61
f 164 163 484
f 325 223 334
f 326 548 495
f 51 499 358
f 84 436 552
f 390 455 395
f 570 580 486
f 117 240 560
f 484 283 450
f 476 320 158
f 23 300 65
f 373 375 106
f 71 127 321
f 292 12 101
f 465 52 569
f 475 390 395
f 113 256 330
f 326 527 548
f 549 560 494
f 349 573 169
f 390 180 455
f 340 112 585
f 468 409 493
f 201 265 588
f 591 511 467
f 391 323 262
f 142 206 25
f 304 55 149
f 275 41 495
f 177 23 564
f 311 170 416
f 107 347 177
f 431 312 420
f 161 342 476
f 10 213 403
f 20 173 544
f 400 563 274
f 228 198 168
f 473 552 5
f 317 561 340
f 56 210 134
f 398 469 297
f 182 83 267
f 190 517 33
f 107 365 586
f 532 380 15
f 392 231 299
f 564 532 49
f 583 271 27
f 550 42 136
f 574 162 91
f 133 156 413
f 506 185 542
f 507 33 380
f 346 6 385
f 502 457 14
f 175 189 387
f 542 196 131
f 261 421 143
f 533 446 145
f 310 232 184
f 232 384 117
f 57 393 411
f 175 444 278
f 193 490 519
f 354 183 30
f 231 487 538
f 251 490 193
f 198 60 81
f 580 54 220
f 231 538 90
f 113 138 256
f 279 151 353
f 279 353 146
f 205 324 227
f 190 443 517
f 129 412 427
f 309 514 386
f 237 93 350
f 331 4 382
f 114 40 225
f 452 92 12
f 441 282 243
f 564 454 532
f 243 591 388
f 126 579 490
f 211 189 265
f 528 555 404
f 131 424 328
f 140 329 439
f 204 372 171
f 314 10 403
f 238 520 51
f 444 24 278
f 61 521 111
f 212 577 383
f 80 286 348
f 351 269 105
f 451 390 547
f 73 62 427
f 216 98 115
f 407 577 72
f 351 408 449
f 567 212 362
f 525 572 303
f 534 149 187
f 391 262 323
f 36 537 359
f 76 335 289
f 559 176 288
f 354 98 216
f 514 407 386
f 273 82 357
f 467 255 485
f 36 359 544
f 267 179 52
f 169 496 503
f 551 570 486
f 193 519 577
f 511 252 10
f 25 404 536
f 400 451 371
f 130 304 170
f 301 292 101
f 254 364 196
f 186 30 516
f 117 235 531
f 131 196 424
f 63 477 426
f 338 376 71
f 67 344 247
f 141 491 389
f 349 225 345
f 306 368 454
f 69 237 34
f 351 226 408
f 2 80 512
f 435 255 301
f 2 509 322
f 107 466 291
f 468 188 409
f 525 144 224
f 344 240 117
f 379 553 444
f 465 569 574
f 453 496 573
f 75 565 32
f 198 445 168
f 87 495 268
f 272 337 411
f 113 385 138
f 234 465 574
f 294 223 325
f 131 328 123
f 133 204 461
f 17 592 321
f 99 369 483
f 459 298 568
f 233 586 365
f 544 359 499
f 464 512 280
f 428 302 553
f 265 77 588
f 232 117 181
f 85 178 197
f 478 96 558
f 11 228 295
f 100 69 34
f 533 145 472
f 535 77 403
f 538 313 509
f 569 200 207
f 4 324 382
f 19 122 488
f 529 533 472
f 30 581 516
f 345 44 419
f 144 176 559
f 474 224 144
f 240 182 83
f 40 44 345
f 504 113 70
f 565 152 72
f 589 350 208
f 155 540 398
f 66 91 29
f 563 254 196
f 215 486 336
f 305 14 410
f 249 314 271
f 12 92 369
f 397 93 237
f 333 165 504
f 501 136 39
f 88 423 529
f 410 81 60
f 311 416 527
f 452 255 467
f 176 471 288
f 155 61 540
f 379 444 175
f 71 321 579
f 537 426 381
f 592 579 321
f 535 403 213
f 180 3 474
f 247 117 232
f 212 310 362
f 547 390 475
f 17 321 233
f 446 167 522
f 163 283 484
f 458 225 28
f 502 437 229
f 89 326 430
f 94 366 481
f 167 100 406
f 336 220 487
f 146 118 126
f 22 160 265
f 141 188 293
f 10 252 213
f 259 443 190
f 339 217 562
f 388 485 48
f 138 385 562
f 530 250 180
f 34 237 350
f 480 437 221
f 528 25 296
f 261 539 582
f 281 127 256
f 410 270 257
f 37 388 48
f 333 508 456
f 9 417 234
f 576 147 103
f 374 427 412
f 176 294 471
f 208 332 42
f 7 478 308
f 532 507 380
f 243 242 591
f 451 174 390
f 421 492 43
f 431 121 312
f 540 97 469
f 403 64 271
f 215 148 81
f 56 208 199
f 267 482 179
f 278 24 21
f 172 55 119
f 446 456 508
f 75 152 565
f 240 182 494
f 143 43 223
f 565 222 567
f 460 421 261
f 215 81 257
f 59 557 518
f 377 279 590
f 311 130 170
f 500 135 334
f 77 64 403
f 435 378 255
f 557 489 518
f 377 111 209
f 227 4 578
f 400 124 195
f 561 558 96
f 102 429 314
f 37 48 262
f 267 291 482
f 183 170 581
f 377 209 202
f 355 431 420
f 348 397 280
f 246 306 454
f 536 404 94
f 346 187 172
f 164 214 425
f 35 280 397
f 21 271 64
f 184 384 139
f 33 461 79
f 221 502 510
f 339 385 6
f 465 244 52
f 141 293 491
f 551 270 570
f 275 495 548
f 317 585 492
f 159 204 171
f 50 588 282
f 253 545 181
f 289 69 100
f 540 386 97
f 445 148 299
f 485 255 378
f 217 324 205
f 356 135 307
f 117 240 235
f 383 577 519
f 38 483 399
f 259 399 443
f 107 586 347
f 473 84 552
f 585 112 307
f 363 365 182
f 501 39 16
f 220 54 125
f 334 135 343
f 45 401 54
f 136 105 269
f 383 67 247
f 7 308 587
f 513 290 230
f 417 494 244
f 226 86 450
f 353 88 118
f 511 10 429
f 354 216 183
f 375 53 106
f 85 20 178
f 74 481 513
f 236 217 300
f 400 448 451
f 565 567 63
f 129 427 402
f 513 230 13
f 29 349 169
f 241 101 12
f 331 382 119
f 159 461 204
f 443 264 157
f 88 584 118
f 151 295 327
f 327 59 423
f 339 562 385
f 373 434 375
f 522 134 277
f 382 6 119
f 510 154 418
f 514 193 407
f 49 532 15
f 21 27 271
f 306 357 368
f 173 36 544
f 281 571 586
f 162 458 28
f 569 207 162
f 57 432 260
f 570 270 45
f 422 447 47
f 17 233 363
f 428 553 566
f 205 132 65
f 207 78 524
f 203 550 501
f 240 235 182
f 455 144 108
f 178 499 51
f 41 115 48
f 405 330 376
f 463 249 264
f 197 178 51
f 168 445 459
f 68 366 94
f 45 54 580
f 146 126 251
f 451 547 371
f 66 18 230
f 473 5 332
f 335 464 69
f 510 502 154
f 281 233 498
f 102 314 249
f 570 45 580
f 428 343 135
f 460 582 587
f 191 153 484
f 367 564 23
f 455 474 144
f 238 358 158
f 242 213 252
f 75 469 97
f 143 294 303
f 400 516 448
f 541 128 462
f 142 536 370
f 79 461 159
f 365 267 182
f 155 173 109
f 112 248 307
f 518 568 318
f 526 218 84
f 212 383 310
f 222 72 567
f 231 298 299
f 418 154 120
f 399 194 443
# 1192 faces, 0 coords texture

# End of File