####
#
# OBJ File Generated by Meshlab
#
####
# Object domain167.obj
#
# Vertices: 569
# Faces: 1148
#
####
v 160.271072 354.052460 120.045372
v 153.718719 363.244080 115.515099
v 158.157043 371.548096 130.236710
v 158.481888 371.596466 128.181808
v 163.367157 373.560822 121.727623
v 157.548843 365.506348 125.809906
v 160.383392 358.928009 112.078636
v 148.805847 358.952301 122.578201
v 162.360733 354.583588 120.970642
v 154.845016 355.830322 115.125183
v 159.068558 376.999268 130.152908
v 148.267075 375.936920 130.793488
v 162.465729 363.325073 122.202171
v 158.152100 373.602020 131.118423
v 156.108047 358.981232 125.299500
v 162.252548 373.586060 122.984688
v 156.173859 376.826508 130.756042
v 164.719986 356.963226 117.471344
v 152.612793 355.415375 117.951080
v 152.660858 363.320953 116.507156
v 146.266754 367.562714 127.213226
v 164.856720 375.794586 113.678345
v 162.549500 379.836487 114.149734
v 164.079285 377.917511 117.839005
v 163.573761 379.167633 117.599625
v 156.178574 379.002502 123.036041
v 163.764862 380.502258 114.597893
v 144.947296 368.874573 125.833908
v 164.359985 356.949768 119.518562
v 162.639969 363.314819 111.786255
v 167.331223 357.737854 111.031433
v 154.162689 357.616364 125.128738
v 149.695480 367.520050 127.998550
v 156.176758 357.248627 124.837990
v 156.089905 365.012024 126.520149
v 152.378418 373.586792 117.628120
v 158.275482 372.231537 130.796097
v 149.782578 361.305023 119.895485
v 153.168137 373.524872 116.671593
v 147.718201 367.409668 120.188782
v 164.538254 361.267670 119.562355
v 148.809875 359.287567 124.951279
v 162.615143 369.437683 122.551201
v 156.170105 354.041107 119.217194
v 157.438751 356.255615 113.190460
v 147.823395 377.534210 124.302887
v 150.197281 357.764771 124.875626
v 152.105804 354.496307 121.824799
v 147.701614 371.484772 120.237625
v 167.327377 357.730682 111.015533
v 149.738098 377.917786 128.433945
v 158.246826 355.582642 113.949364
v 163.298782 378.701752 120.701340
v 158.230057 378.809967 122.988365
v 161.119583 363.172974 123.080444
v 147.666870 377.604889 128.312195
v 148.113586 361.485718 124.415695
v 165.360596 356.986877 111.201744
v 160.422287 357.015198 112.455879
v 150.347992 365.369110 118.571304
v 153.807693 361.263275 115.487549
v 164.688538 373.577576 115.814857
v 146.242996 373.463257 122.221107
v 146.200851 365.525391 124.338722
v 147.129242 374.232880 121.443649
v 156.000534 358.931519 113.720749
v 158.187820 354.357513 121.762245
v 158.913345 375.856934 126.228615
v 147.796219 363.274414 121.965248
v 158.219543 354.000519 120.052643
v 146.606384 373.787354 129.332703
v 156.272842 370.234039 129.357162
v 155.956329 356.471771 124.523460
v 156.038162 369.299438 128.545334
v 164.060196 377.881744 115.738548
v 158.800278 372.166290 130.184784
v 158.834335 373.619659 130.783234
v 146.644516 375.767853 129.263931
v 167.314240 357.662445 111.038841
v 165.690735 376.007935 113.067719
v 164.033020 355.614441 117.668861
v 158.643387 365.361450 112.755486
v 165.418106 367.438324 114.191338
v 158.139542 377.929718 114.078758
v 164.643784 356.197266 112.722031
v 162.296173 371.604675 123.014709
v 164.345688 375.917450 117.840569
v 152.065918 372.350189 130.948441
v 163.929153 377.906586 119.634056
v 156.089172 363.406128 126.109177
v 158.696411 372.508423 130.740524
v 164.527847 365.355194 112.054947
v 161.142654 375.352814 113.004997
v 149.738388 378.234467 126.158783
v 154.139725 354.083252 120.061867
v 162.498810 378.176025 122.337616
v 158.739578 380.499451 114.638168
v 162.617584 356.148071 112.777496
v 147.571304 369.313446 128.476898
v 151.710022 369.410217 117.828766
v 156.145050 378.240509 126.153717
v 156.122589 361.277344 125.681618
v 162.629456 361.265015 111.746284
v 164.256210 371.551666 119.751099
v 164.815567 369.528137 112.184860
v 165.598419 365.388611 113.221733
v 165.802231 357.172363 111.281067
v 162.599274 380.471802 114.519585
v 157.367615 359.028503 124.915382
v 163.674438 369.489105 121.220482
v 148.757065 354.767426 123.557579
v 154.960403 372.603699 114.900993
v 149.802322 371.367920 130.392303
v 159.070999 369.449341 125.121056
v 151.866623 354.989441 119.584351
v 154.084503 361.356110 125.981361
v 151.226471 373.665100 118.713638
v 158.976410 373.566895 127.741112
v 146.852203 369.519867 120.806396
v 148.666275 372.477509 130.699738
v 146.250107 375.710175 124.356781
v 162.454849 361.272003 122.144707
v 158.673798 363.321869 124.762009
v 147.398682 375.898804 130.189621
v 165.842941 369.514832 112.992538
v 149.670975 369.478302 119.283203
v 151.043945 371.700439 118.621590
v 156.081635 367.467316 113.962578
v 163.647842 363.319580 121.112625
v 164.533356 356.080109 113.903282
v 152.136261 371.422241 117.532875
v 166.796021 368.434723 111.947472
v 152.064285 366.029938 127.331764
v 165.462967 365.352386 114.271980
v 149.251755 358.939880 121.415718
v 152.016708 356.934662 117.832863
v 164.653427 367.370270 112.020844
v 156.296936 371.477783 114.131401
v 154.594788 369.457306 114.827263
v 154.119690 363.333893 126.420578
v 163.625885 371.595642 121.518318
v 158.222961 354.831024 115.864922
v 157.702103 365.382477 113.137314
v 154.171753 356.729858 124.721634
v 147.527557 373.665344 130.243546
v 164.183273 373.533875 119.681656
v 153.360977 374.938232 116.798935
v 145.377518 373.547211 126.030266
v 165.682007 376.011017 113.057816
v 162.232162 355.179199 121.638748
v 160.277557 380.720398 114.974060
v 158.220322 354.361145 117.524765
v 164.963165 363.275330 117.712234
v 146.907944 363.690643 124.808525
v 147.234177 376.673340 123.558319
v 159.255478 371.494293 125.259048
v 165.008423 358.928772 117.488670
v 151.507721 367.410370 117.771255
v 164.743332 367.351837 117.461975
v 162.529266 380.513245 115.685837
v 159.008820 376.049286 130.722534
v 158.541977 361.183167 124.662788
v 163.297333 375.905090 121.727386
v 146.198120 369.585449 127.540901
v 150.578201 378.522675 122.107986
v 159.403076 355.207306 122.883659
v 154.122421 354.331451 121.799675
v 159.154968 373.736694 130.179123
v 156.154480 378.618683 124.465492
v 158.228439 377.391449 128.201141
v 149.670883 367.421417 119.138893
v 165.349365 371.500549 113.125839
v 151.966049 370.074371 129.523331
v 163.643982 367.425568 121.152649
v 156.569168 375.748627 114.486420
v 162.864929 371.013855 122.492355
v 153.331390 376.349609 117.312523
v 156.314407 373.574493 114.330902
v 164.555344 375.522675 113.268517
v 156.103912 356.923737 113.859810
v 162.518570 379.397217 119.709312
v 150.035141 359.015778 120.202431
v 163.891891 355.027496 119.576508
v 159.361160 375.705658 125.293289
v 147.692856 369.470764 120.157776
v 165.119843 365.445465 115.789314
v 163.623276 358.927063 121.078362
v 158.151169 377.261780 130.025955
v 151.878113 359.004089 117.663170
v 162.532104 367.478180 112.042427
v 152.067398 378.412994 126.176132
v 164.331879 367.408417 119.705627
v 149.754929 375.854858 131.104492
v 150.428085 355.112000 120.960243
v 152.073029 364.866425 126.936569
v 152.069016 358.942780 125.479721
v 159.431747 372.380737 113.084137
v 160.258102 379.121552 121.754997
v 154.192429 373.591248 115.678406
v 158.417755 371.548065 113.311226
v 146.154541 367.492981 122.146973
v 165.582031 363.323273 114.356880
v 154.114975 358.940399 125.477180
v 152.950897 358.881622 116.352615
v 151.158920 378.778717 122.092484
v 164.961578 356.904816 115.492172
v 160.268158 380.307953 117.497269
v 150.471039 363.426117 118.620415
v 162.507019 367.436981 122.330017
v 154.116470 378.442047 126.179771
v 160.712250 373.471008 112.886887
v 160.745193 356.880829 122.870110
v 154.669739 363.425262 114.760567
v 153.626389 365.302124 115.531868
v 157.596085 363.390564 113.073639
v 159.611481 361.206085 123.947014
v 165.005478 367.357758 115.525566
v 158.483994 377.978394 124.592964
v 162.558456 355.058411 115.910553
v 149.742447 372.359863 130.912109
v 158.977859 369.059784 112.894157
v 154.643875 377.865112 116.367531
v 158.510452 356.910370 112.653923
v 154.182526 355.471130 116.003174
v 157.577164 370.954254 129.609344
v 150.625305 367.091980 118.542923
v 162.474747 365.382446 122.259270
v 160.465149 367.337128 112.357567
v 156.170258 379.260742 121.810631
v 153.207779 378.266449 118.989029
v 154.115768 378.026184 128.455612
v 146.996002 363.933594 125.569519
v 156.084427 363.312958 113.864464
v 147.627350 367.569458 127.711487
v 153.952515 356.981476 115.386475
v 152.082016 356.756165 124.652710
v 158.209839 355.370819 123.312096
v 160.037735 377.793427 123.701447
v 148.726425 363.639679 120.286163
v 165.986496 376.084351 112.839226
v 164.515015 358.932495 119.552681
v 154.120407 370.247955 129.607269
v 148.982880 356.887634 122.660408
v 155.134232 379.314911 116.700233
v 165.534592 363.286499 112.607643
v 165.252197 363.456879 115.650299
v 161.484116 367.415344 123.074944
v 162.622742 371.514648 112.509964
v 157.364182 370.050537 128.125519
v 152.274094 354.492218 120.378403
v 160.915268 361.235016 123.126305
v 164.088547 375.909943 119.674477
v 159.172302 373.585236 128.838928
v 160.312393 379.850708 114.084602
v 147.970169 365.502930 120.323372
v 149.741898 355.202271 121.794106
v 146.891251 367.415497 120.785698
v 146.962906 377.083832 124.950867
v 153.160553 371.297302 116.305779
v 149.739853 368.997620 128.777328
v 152.860168 378.988403 120.417015
v 158.219437 379.773804 119.795776
v 152.916458 367.434570 116.216530
v 164.558563 363.317108 111.974205
v 147.803329 373.501343 120.412193
v 157.928772 367.465881 113.143387
v 156.159958 377.430023 130.006973
v 158.482635 363.228241 112.707443
v 151.139496 378.769714 122.093613
v 165.296295 369.479156 114.215271
v 157.560013 361.403656 125.211388
v 146.849274 377.137024 126.158966
v 156.176025 354.441559 117.547417
v 158.179230 375.997498 113.816963
v 156.140686 377.880280 128.440659
v 154.118713 375.858826 131.192230
v 152.999039 369.446930 116.249947
v 165.959656 358.839905 113.110077
v 152.068573 363.312408 126.505875
v 152.067581 378.029602 128.454758
v 162.105408 376.044861 123.094177
v 164.553116 371.529724 117.508698
v 165.032623 361.264252 117.496185
v 148.489670 361.349854 122.037094
v 154.122177 355.286865 123.520218
v 165.064880 373.654816 114.188431
v 148.844543 354.761719 123.531723
v 165.067749 356.933136 111.219910
v 160.392441 375.876038 124.256424
v 144.933578 369.512573 125.083138
v 165.750122 361.241302 113.168877
v 144.777496 371.526520 125.155678
v 154.638901 379.157043 117.678131
v 164.523788 363.302307 119.559845
v 152.920212 377.392761 118.493767
v 149.587631 365.840149 127.329079
v 158.266418 361.249756 112.663254
v 158.802002 367.266449 112.813019
v 162.597046 355.593201 113.925110
v 154.603149 365.376007 114.778000
v 146.801483 372.198792 129.210358
v 156.984085 379.726990 115.022697
v 165.168854 371.524200 114.151779
v 149.415817 356.896729 121.541649
v 145.528152 373.724854 124.203133
v 156.179871 369.479919 114.019630
v 160.235352 367.416229 123.916313
v 150.666840 368.088928 118.660118
v 152.074295 361.268433 125.976349
v 165.297531 371.272675 112.934799
v 162.704559 369.389160 112.212021
v 160.176331 361.199707 112.089706
v 158.945770 375.924286 127.744896
v 146.300980 375.746613 128.290009
v 156.202042 355.020508 115.944748
v 147.849136 371.657593 129.922333
v 147.116150 364.975525 121.927803
v 158.207626 380.267761 117.470963
v 149.744583 377.407806 129.993958
v 146.999100 372.753967 120.884163
v 156.358765 379.799438 115.773140
v 148.740555 357.453003 124.382454
v 145.062943 367.692139 125.150787
v 156.183517 372.337616 130.952591
v 152.068985 373.603546 131.256897
v 151.498413 365.393585 117.610275
v 166.798767 368.362885 111.946167
v 165.552353 361.141571 112.567757
v 166.124374 357.225739 111.353249
v 156.108765 361.219574 113.771835
v 149.059723 376.560760 121.367508
v 156.177414 371.330505 130.352036
v 156.185501 379.604126 119.768227
v 147.628601 375.892883 122.021912
v 147.518082 364.502075 126.925629
v 158.831772 377.193970 129.057938
v 151.516678 363.318726 117.622246
v 150.752914 360.621887 118.869644
v 149.834702 364.730896 126.968277
v 150.820465 369.708801 118.653099
v 154.120209 376.831299 130.758163
v 149.754868 373.602539 131.182983
v 159.597717 373.733734 113.128601
v 149.767731 358.971588 125.218506
v 165.638184 358.921265 114.382545
v 162.389877 356.897125 122.011284
v 148.759476 357.579498 124.421104
v 149.824677 378.301544 124.498497
v 163.272629 355.252167 120.901306
v 160.289627 377.946960 113.597878
v 152.724747 375.734741 117.791435
v 146.533035 375.093933 122.965263
v 158.238953 380.576477 114.999550
v 158.985489 376.751556 130.620773
v 149.751083 375.783386 120.314529
v 149.733810 373.555084 119.596306
v 165.846451 367.396637 113.115593
v 158.468536 358.947540 124.396027
v 152.075211 367.513367 127.963287
v 165.391739 373.610687 113.096062
v 151.578918 376.110657 119.209862
v 165.327591 365.600403 112.636131
v 148.368607 374.985229 120.681931
v 156.085571 367.718018 127.463356
v 154.580017 367.420898 114.766830
v 157.575882 363.422455 125.480316
v 162.532379 354.660065 117.589424
v 156.166107 375.859039 131.187851
v 150.714172 361.890472 118.613785
v 156.413528 355.883270 114.303146
v 162.437149 358.927490 122.098854
v 153.969193 371.517273 115.483871
v 153.706573 377.922272 117.636513
v 146.519547 365.985291 122.225952
v 145.184631 373.238556 125.057236
v 165.626190 357.057800 111.266396
v 165.790085 356.910065 113.108498
v 158.889008 372.267944 129.047516
v 157.586182 367.565094 126.218063
v 162.624603 373.557312 112.693840
v 152.069595 375.853546 131.170120
v 158.198975 369.613281 113.203979
v 157.369400 361.302582 113.054367
v 161.321350 365.099945 123.055344
v 156.267838 379.854584 117.478622
v 153.111282 355.666931 116.819023
v 157.899918 377.612823 126.068283
v 152.073563 377.991577 120.002266
v 155.400040 376.134399 115.223206
v 154.279068 375.819061 116.071915
v 160.191086 375.993225 113.269402
v 146.074921 373.576752 128.280746
v 160.268646 380.714233 115.763748
v 160.409363 373.557587 124.290977
v 147.724976 377.129456 129.957031
v 160.266113 369.493622 112.607971
v 146.919235 377.239807 128.425095
v 155.971039 366.175293 126.894211
v 165.705887 356.189575 112.941338
v 154.118591 373.602570 131.272736
v 164.448547 365.256165 119.616341
v 164.447922 373.525024 117.756264
v 152.947388 356.835297 116.477905
v 148.162125 376.770386 130.527908
v 147.520569 364.577057 126.961418
v 158.241653 380.586212 115.745552
v 154.116135 354.205963 119.260147
v 163.200424 377.795319 121.618065
v 163.633179 365.368073 121.125237
v 160.271439 380.505981 114.481148
v 149.684128 371.530884 119.366821
v 162.667542 365.341614 111.871391
v 162.564529 354.240509 119.269577
v 149.737366 363.308502 126.499916
v 160.082382 354.415924 121.499588
v 164.316681 369.467896 119.723083
v 149.336273 365.404816 119.339836
v 164.564407 361.221863 111.962349
v 149.928314 354.696869 122.250565
v 154.120026 372.349884 130.957855
v 154.120636 367.565796 127.856636
v 156.166367 373.599670 131.273163
v 155.610718 377.932861 115.458473
v 164.492706 375.996857 115.810249
v 162.626709 380.657288 114.980858
v 154.682770 356.793030 114.779312
v 152.090332 378.636475 124.370491
v 163.558640 356.917755 121.037788
v 152.068008 376.819427 130.742920
v 162.454865 378.820831 121.546783
v 148.803818 354.768555 123.614952
v 157.331116 356.896576 113.007584
v 160.311935 369.444977 124.062798
v 160.268875 354.819611 115.859406
v 160.264999 379.738159 119.786812
v 153.810516 369.480225 115.407646
v 149.545547 363.230072 119.495018
v 159.357910 373.517853 125.313324
v 154.095337 379.120331 121.778107
v 159.772705 358.918945 123.630951
v 146.891617 371.250244 128.912582
v 161.811142 370.236267 123.181580
v 152.063919 371.293793 130.399002
v 158.677902 371.484406 126.386772
v 163.636398 361.270386 121.092987
v 164.029587 355.750427 115.823402
v 161.921310 377.589020 122.958321
v 160.305618 363.263367 112.150017
v 158.218658 379.255188 121.806618
v 158.978210 373.514221 126.256409
v 159.922379 363.319183 123.896912
v 164.669708 358.921906 111.527550
v 154.858246 371.473877 114.792847
v 148.078888 370.276489 129.273346
v 163.563034 379.709015 115.597809
v 149.736664 376.806458 130.720779
v 158.233215 373.585907 113.588020
v 165.141327 356.946259 111.181496
v 160.369507 371.463135 124.196098
v 146.089600 371.557587 128.042664
v 156.174622 355.338806 123.569061
v 162.558990 354.191467 119.969116
v 157.299500 358.915222 112.977875
v 158.899658 367.414948 124.993744
v 146.042404 369.479889 121.976135
v 164.605103 373.532867 112.833443
v 165.359085 361.273834 115.556252
v 156.095596 365.369629 113.897102
v 164.624512 369.471649 117.501991
v 146.105530 375.826447 126.460861
v 160.143387 365.406921 123.858078
v 152.069580 377.454315 130.004837
v 146.751144 366.153595 127.051926
v 160.327530 371.518250 112.779984
v 159.182144 375.893341 128.859955
v 156.164841 354.302856 121.807091
v 166.979126 368.399200 111.955498
v 164.763641 371.704102 115.724884
v 163.583832 378.868591 119.423141
v 152.072830 357.643707 125.086334
v 158.503922 358.923859 112.461868
v 160.268921 354.387054 117.530487
v 165.323242 358.921051 115.547241
v 154.061493 379.192932 119.598610
v 163.675827 380.497559 114.601250
v 162.615784 377.729218 113.654549
v 151.616837 361.267029 117.761864
v 147.073410 366.486084 120.873848
v 165.736206 356.224640 112.778351
v 153.773468 367.423218 115.355835
v 145.201553 369.500122 124.070999
v 153.919922 358.993103 115.313286
v 163.517776 379.904053 114.577271
v 165.598145 361.268036 114.369598
v 163.635330 354.724731 120.016006
v 149.765228 361.366913 125.737526
v 160.538925 355.110352 122.305725
v 164.595306 371.462158 112.685974
v 161.784195 376.712982 113.215141
v 158.219971 354.022430 119.213264
v 159.630463 356.889709 123.415504
v 154.124100 369.237427 128.852264
v 147.053787 377.154205 129.175629
v 165.732635 363.369751 113.131165
v 152.166611 369.092712 128.840454
v 144.720963 371.525909 125.166992
v 145.509369 367.329803 126.293602
v 162.511581 379.954132 117.416710
v 157.984100 357.000946 124.140259
v 163.727463 377.605896 114.290298
v 158.169037 369.343384 126.308311
v 149.077499 360.487457 121.221710
v 152.000519 355.327759 123.505501
v 160.267410 356.213196 112.914200
v 165.312866 356.908630 114.215469
v 150.869278 358.670990 119.140610
v 154.115311 364.894257 126.854805
v 149.539871 370.196228 129.587097
v 148.690643 357.527618 124.376137
v 160.268280 354.051453 119.216393
v 154.819199 361.272156 114.647232
v 158.154739 375.866516 131.080307
v 160.228317 378.546906 122.809494
v 151.140594 378.773895 122.086281
v 161.524307 368.862610 123.167152
v 154.117889 377.463806 130.011246
v 164.840988 365.231140 117.611160
v 154.117371 366.061005 127.247002
v 145.051498 367.724182 125.805237
v 148.528488 373.646210 130.909134
v 146.746368 371.375092 120.839554
v 158.792374 365.366364 124.883301
v 160.821091 358.919952 123.033813
v 158.283508 379.829987 114.421196
v 150.075897 356.891296 120.541809
v 156.594070 377.955078 114.741829
v 165.361786 373.591919 113.045105
v 145.182449 369.580109 126.226288
v 147.249908 363.190063 123.797592
v 147.552322 364.516083 126.958412
v 162.627701 358.921570 111.603043
v 154.117599 378.961609 123.022507
v 151.049179 356.805145 119.355034
v 152.726593 365.521332 116.368233
v 158.209305 376.793701 130.737762
v 164.903870 369.500000 115.584282
v 152.703888 361.267181 116.548599
v 166.985870 368.413177 111.956230
v 150.700256 377.319855 120.832352
v 154.795929 358.920380 114.607941
v 154.112793 378.734741 124.479027
v 162.681488 375.757050 113.042717
v 148.368713 377.336884 122.961838
v 149.067627 354.687164 123.137474
v 145.387238 367.289948 124.278351
v 156.170212 353.986176 120.054352
v 160.272766 355.517517 113.921799
v 146.124207 371.515503 121.931847
v 154.218765 354.733337 117.647232
v 159.267288 375.793060 130.189255
v 154.116821 371.310638 130.392975
v 158.277664 356.162659 112.992020
v 160.402588 365.351410 112.248070
v 147.655014 377.670044 126.289124
v 157.240173 380.223145 115.260193
v 148.475662 361.672211 125.312462
v 163.928421 356.666382 111.105560
v 146.388199 365.672943 126.082336
v 144.722916 371.526245 125.091705
# 569 vertices, 0 vertices normals

f 344 496 196
f 161 77 522
f 86 141 176
f 55 384 13
f 489 377 107
f 535 543 516
f 22 240 80
f 124 404 12
f 189 403 204
f 171 60 226
f 374 488 201
f 507 21 568
f 288 541 7
f 273 142 315
f 497 9 415
f 428 187 29
f 257 255 40
f 16 163 5
f 410 151 97
f 258 564 272
f 431 287 322
f 395 503 397
f 198 449 435
f 419 250 115
f 60 337 326
f 161 560 77
f 298 563 228
f 67 237 415
f 149 80 240
f 220 120 530
f 303 172 125
f 509 109 358
f 140 517 90
f 321 406 318
f 461 237 67
f 336 170 313
f 422 368 14
f 35 398 6
f 8 284 57
f 141 146 104
f 183 428 29
f 478 303 270
f 276 368 422
f 43 176 141
f 391 211 93
f 233 215 468
f 289 218 238
f 523 430 96
f 281 408 163
f 475 313 118
f 531 49 265
f 398 379 6
f 555 64 201
f 508 25 479
f 34 15 109
f 148 392 506
f 435 207 181
f 155 553 46
f 296 405 234
f 132 548 477
f 246 202 494
f 329 278 291
f 533 251 371
f 186 246 527
f 292 148 506
f 390 373 177
f 524 551 427
f 103 452 418
f 243 519 347
f 552 466 179
f 222 423 244
f 339 195 279
f 10 370 426
f 513 285 167
f 293 321 385
f 376 79 50
f 518 454 316
f 187 241 29
f 86 16 5
f 470 258 272
f 9 349 495
f 260 99 454
f 171 126 185
f 107 31 79
f 286 360 172
f 103 418 30
f 81 29 18
f 251 55 122
f 321 536 302
f 518 173 505
f 341 472 526
f 541 58 452
f 132 125 327
f 126 340 411
f 52 514 562
f 128 266 306
f 220 530 342
f 171 308 340
f 359 421 528
f 130 489 85
f 55 216 451
f 483 283 467
f 254 23 108
f 142 557 52
f 425 485 455
f 26 449 54
f 352 121 305
f 352 63 334
f 100 263 277
f 462 183 413
f 414 335 339
f 17 545 522
f 506 460 538
f 95 556 44
f 236 144 285
f 551 169 101
f 45 562 432
f 470 397 314
f 366 6 532
f 437 417 255
f 334 363 355
f 165 205 269
f 250 407 115
f 322 347 519
f 558 465 119
f 472 51 280
f 270 303 125
f 344 196 480
f 446 206 130
f 388 269 524
f 480 32 144
f 509 501 166
f 101 170 275
f 559 44 273
f 549 388 524
f 98 85 288
f 301 316 441
f 85 489 58
f 539 69 317
f 246 494 467
f 198 54 449
f 89 25 24
f 111 347 287
f 470 272 397
f 515 377 399
f 66 432 463
f 292 491 569
f 212 533 346
f 564 51 56
f 288 458 567
f 420 88 325
f 254 486 23
f 517 528 35
f 524 427 205
f 58 107 376
f 210 551 101
f 426 180 550
f 144 32 34
f 549 524 205
f 390 178 175
f 99 460 441
f 516 189 338
f 148 121 470
f 393 406 353
f 36 39 351
f 354 188 11
f 419 554 287
f 218 184 68
f 568 21 473
f 309 116 203
f 556 476 67
f 63 305 569
f 93 552 499
f 148 305 121
f 546 469 282
f 395 319 456
f 306 266 382
f 568 232 154
f 254 108 410
f 267 188 545
f 41 294 283
f 179 537 149
f 435 262 318
f 373 222 293
f 22 149 240
f 158 263 100
f 219 299 434
f 334 553 155
f 367 446 219
f 190 228 563
f 298 228 221
f 152 482 434
f 537 360 149
f 388 351 295
f 286 424 22
f 367 81 446
f 339 335 540
f 493 485 27
f 375 569 305
f 38 182 338
f 254 410 534
f 508 160 25
f 146 87 402
f 112 138 178
f 13 227 409
f 439 229 542
f 524 542 551
f 146 402 282
f 263 214 490
f 370 562 45
f 462 495 183
f 8 57 519
f 168 253 378
f 113 220 443
f 198 430 523
f 300 233 468
f 481 7 312
f 459 86 442
f 33 99 260
f 199 39 259
f 199 453 112
f 115 19 136
f 227 209 174
f 404 456 193
f 490 365 436
f 386 224 403
f 99 316 454
f 420 324 332
f 346 187 428
f 342 12 193
f 124 503 395
f 93 380 552
f 481 59 7
f 107 278 329
f 247 471 307
f 62 282 402
f 17 267 545
f 430 53 96
f 348 94 46
f 107 376 329
f 391 274 343
f 314 397 503
f 209 43 110
f 374 317 255
f 354 545 188
f 82 448 563
f 107 377 278
f 73 34 509
f 547 2 20
f 497 212 150
f 208 337 60
f 196 309 203
f 62 402 424
f 320 531 265
f 301 71 316
f 13 409 129
f 399 377 489
f 109 162 358
f 231 280 191
f 311 474 396
f 390 389 222
f 58 329 452
f 102 90 366
f 146 252 87
f 326 544 158
f 211 380 93
f 468 215 143
f 71 460 392
f 547 61 2
f 190 311 396
f 326 20 544
f 279 140 116
f 492 550 61
f 509 358 501
f 181 508 479
f 248 498 380
f 61 550 521
f 473 405 540
f 190 92 137
f 296 234 33
f 66 463 330
f 182 516 338
f 241 41 157
f 130 515 399
f 146 5 163
f 486 510 23
f 379 249 511
f 4 253 118
f 417 208 60
f 211 474 248
f 138 382 200
f 321 318 385
f 549 361 388
f 159 527 192
f 411 265 49
f 135 512 284
f 86 5 141
f 213 521 330
f 285 461 476
f 175 84 536
f 44 500 273
f 64 154 539
f 89 479 25
f 71 145 316
f 301 460 71
f 129 294 41
f 393 151 160
f 115 136 543
f 175 536 423
f 395 56 319
f 450 184 438
f 102 271 109
f 554 111 287
f 252 24 87
f 350 534 84
f 412 92 190
f 353 97 151
f 383 297 215
f 145 12 530
f 231 275 267
f 507 323 529
f 135 535 182
f 122 129 445
f 26 218 169
f 213 330 233
f 132 477 327
f 144 34 73
f 466 537 179
f 225 3 4
f 296 133 195
f 241 157 18
f 525 433 43
f 464 307 471
f 141 5 146
f 561 173 443
f 252 408 89
f 70 1 520
f 243 304 8
f 122 13 129
f 284 512 38
f 304 135 8
f 78 503 124
f 529 28 538
f 324 422 37
f 480 196 32
f 494 291 278
f 101 169 387
f 507 164 21
f 288 85 58
f 334 205 553
f 19 407 559
f 150 346 428
f 568 154 64
f 419 115 194
f 141 104 416
f 9 150 349
f 161 522 545
f 442 86 176
f 370 52 562
f 484 269 261
f 3 37 76
f 123 451 216
f 555 290 323
f 455 24 25
f 321 302 565
f 89 53 479
f 28 290 538
f 328 291 504
f 55 13 122
f 207 393 508
f 190 396 228
f 386 403 136
f 390 175 389
f 419 431 48
f 558 119 531
f 137 362 132
f 123 532 451
f 424 75 22
f 38 487 369
f 400 325 381
f 559 273 315
f 398 364 379
f 352 334 121
f 33 260 359
f 249 225 4
f 8 135 284
f 119 257 185
f 341 17 368
f 452 329 418
f 299 85 98
f 360 80 149
f 168 77 560
f 329 291 328
f 288 567 58
f 542 26 169
f 410 425 151
f 256 304 243
f 420 325 400
f 290 506 538
f 156 459 433
f 292 506 290
f 453 306 138
f 321 565 406
f 43 141 110
f 268 82 143
f 335 57 232
f 235 10 426
f 400 422 324
f 71 78 145
f 491 558 569
f 467 283 153
f 439 524 269
f 58 376 458
f 510 75 455
f 462 9 495
f 75 87 24
f 200 474 197
f 431 111 287
f 311 137 105
f 139 306 453
f 26 54 218
f 260 454 518
f 550 180 66
f 146 282 104
f 513 236 285
f 198 435 181
f 102 366 271
f 358 440 501
f 535 516 182
f 110 416 192
f 121 155 46
f 345 467 494
f 507 529 538
f 65 265 334
f 322 236 513
f 506 392 460
f 199 178 390
f 419 194 256
f 179 149 22
f 195 517 140
f 348 205 427
f 180 45 432
f 161 11 560
f 250 95 407
f 498 310 466
f 222 389 423
f 491 465 558
f 316 530 120
f 21 164 234
f 556 67 70
f 388 261 269
f 421 364 398
f 200 197 343
f 75 24 455
f 214 300 490
f 424 87 75
f 288 58 458
f 226 326 158
f 391 350 84
f 324 37 3
f 364 249 379
f 294 153 283
f 46 94 564
f 2 213 214
f 4 378 253
f 496 335 414
f 367 219 482
f 238 54 523
f 50 79 31
f 346 371 187
f 322 47 236
f 345 494 278
f 391 499 350
f 224 10 235
f 200 396 474
f 515 483 345
f 187 445 241
f 311 248 474
f 14 77 91
f 447 96 408
f 15 102 109
f 376 50 329
f 41 283 157
f 133 359 528
f 565 353 406
f 371 445 187
f 117 361 355
f 189 487 338
f 256 194 304
f 258 46 564
f 384 471 247
f 293 244 321
f 333 385 262
f 497 166 212
f 229 449 26
f 58 489 107
f 19 386 136
f 130 399 489
f 412 190 563
f 391 84 274
f 146 163 252
f 334 331 205
f 58 107 329
f 203 15 34
f 495 349 183
f 96 53 408
f 186 217 83
f 453 138 112
f 63 265 65
f 412 264 92
f 445 129 41
f 540 405 335
f 488 257 201
f 264 328 245
f 561 88 420
f 190 137 311
f 417 60 171
f 568 540 335
f 168 91 77
f 169 218 387
f 535 115 543
f 450 313 68
f 171 185 40
f 107 329 31
f 552 179 510
f 373 230 295
f 256 243 111
f 178 457 175
f 238 447 281
f 411 340 127
f 293 333 484
f 172 360 537
f 78 314 503
f 518 113 443
f 468 143 128
f 515 345 377
f 257 465 201
f 292 375 148
f 372 259 436
f 174 192 401
f 215 268 143
f 322 344 47
f 217 469 546
f 403 224 235
f 36 259 39
f 549 355 361
f 255 317 69
f 234 164 99
f 242 332 72
f 304 194 535
f 121 46 258
f 395 456 404
f 518 316 113
f 210 101 275
f 362 106 357
f 409 174 401
f 189 136 403
f 21 234 405
f 32 203 34
f 368 17 522
f 58 376 107
f 288 58 541
f 337 547 20
f 267 275 188
f 552 510 486
f 223 514 59
f 367 183 81
f 108 27 485
f 276 381 429
f 19 224 386
f 408 53 89
f 517 35 90
f 148 470 314
f 315 142 52
f 429 319 472
f 271 123 162
f 502 242 74
f 260 518 505
f 491 290 555
f 469 416 104
f 351 39 147
f 98 59 514
f 217 159 469
f 556 500 44
f 280 51 94
f 221 228 396
f 355 205 331
f 438 184 394
f 361 36 351
f 484 261 388
f 2 521 213
f 437 369 208
f 33 234 99
f 566 42 519
f 95 167 476
f 114 433 307
f 294 401 527
f 432 562 223
f 505 173 502
f 148 375 305
f 518 443 173
f 186 527 159
f 549 205 355
f 299 130 85
f 110 141 416
f 474 343 197
f 276 341 368
f 414 279 309
f 210 275 231
f 242 72 74
f 105 132 327
f 511 444 156
f 459 394 86
f 536 534 302
f 38 338 487
f 163 408 252
f 38 369 437
f 393 353 151
f 82 563 298
f 300 468 365
f 380 466 552
f 341 526 17
f 236 480 144
f 288 7 59
f 152 434 142
f 196 203 32
f 246 467 153
f 56 51 319
f 532 464 471
f 411 356 265
f 131 259 36
f 158 544 263
f 264 245 92
f 252 89 24
f 450 68 184
f 47 480 236
f 186 134 202
f 126 49 185
f 127 131 117
f 524 205 269
f 223 59 481
f 83 357 106
f 322 519 347
f 511 249 444
f 382 221 396
f 284 38 239
f 28 323 290
f 171 340 126
f 70 415 1
f 145 530 316
f 393 160 508
f 364 74 249
f 544 214 263
f 475 336 313
f 490 300 365
f 200 343 457
f 417 40 255
f 194 115 535
f 507 555 323
f 525 307 433
f 195 133 517
f 289 394 184
f 347 519 42
f 496 414 309
f 266 298 382
f 92 362 137
f 356 355 265
f 550 66 521
f 71 392 78
f 214 213 300
f 100 277 131
f 268 448 82
f 433 459 442
f 160 425 455
f 199 147 39
f 356 117 355
f 11 188 170
f 391 343 211
f 23 493 27
f 209 110 174
f 494 202 291
f 315 52 370
f 148 314 392
f 400 276 422
f 30 412 563
f 475 253 560
f 151 425 160
f 72 332 225
f 426 370 180
f 299 98 557
f 552 486 499
f 403 235 204
f 507 568 64
f 322 287 347
f 275 170 188
f 142 434 557
f 177 351 147
f 175 423 389
f 359 505 421
f 38 437 239
f 173 242 502
f 162 123 216
f 125 172 310
f 339 296 195
f 83 106 134
f 206 483 515
f 284 239 69
f 277 490 436
f 496 309 196
f 411 127 356
f 117 131 36
f 138 200 178
f 350 499 486
f 273 500 152
f 61 521 2
f 561 242 173
f 387 68 170
f 327 125 310
f 496 566 335
f 400 381 276
f 175 457 274
f 379 114 464
f 186 159 217
f 62 286 303
f 413 482 520
f 475 560 11
f 310 172 537
f 105 327 498
f 302 353 565
f 208 369 487
f 478 282 62
f 227 174 409
f 418 328 264
f 472 319 51
f 183 349 428
f 284 69 57
f 207 406 393
f 379 511 114
f 108 485 425
f 98 288 59
f 273 152 142
f 373 295 351
f 64 539 317
f 390 177 147
f 186 202 246
f 140 90 102
f 92 245 362
f 394 16 86
f 484 439 269
f 437 208 417
f 382 298 221
f 417 171 40
f 113 316 120
f 373 484 230
f 189 204 487
f 419 287 431
f 505 502 421
f 413 367 482
f 540 335 405
f 226 158 308
f 391 93 499
f 475 11 336
f 6 379 464
f 568 473 540
f 358 216 440
f 78 392 314
f 504 106 362
f 372 199 259
f 178 200 457
f 168 76 91
f 161 545 354
f 212 346 150
f 561 420 332
f 6 464 532
f 419 111 554
f 528 421 398
f 224 315 370
f 431 287 111
f 90 35 6
f 70 67 415
f 160 455 25
f 227 247 209
f 542 229 26
f 129 409 294
f 208 487 337
f 327 477 548
f 107 79 376
f 199 112 178
f 387 218 68
f 198 181 430
f 461 509 237
f 445 41 241
f 109 271 162
f 297 312 268
f 371 122 445
f 48 513 167
f 202 134 504
f 352 305 63
f 491 555 465
f 83 270 357
f 493 455 485
f 435 449 262
f 529 323 28
f 175 274 84
f 250 48 167
f 366 532 123
f 168 560 253
f 130 206 515
f 382 396 200
f 439 333 229
f 566 519 57
f 423 536 321
f 121 334 155
f 306 382 138
f 328 504 245
f 345 278 377
f 558 63 569
f 487 204 547
f 320 63 531
f 526 472 280
f 372 453 199
f 462 413 1
f 463 481 297
f 311 105 248
f 58 458 376
f 567 458 58
f 350 486 254
f 268 312 448
f 488 255 257
f 373 293 484
f 559 407 44
f 433 442 43
f 339 405 296
f 156 438 459
f 206 18 157
f 539 57 69
f 429 456 319
f 431 322 513
f 165 269 205
f 542 169 551
f 340 100 127
f 511 156 114
f 171 226 308
f 210 231 191
f 484 333 439
f 414 339 279
f 247 307 525
f 277 436 259
f 538 460 164
f 33 359 133
f 510 455 493
f 230 388 295
f 325 193 381
f 564 94 51
f 186 83 134
f 419 48 250
f 286 22 360
f 450 118 313
f 132 357 125
f 99 164 460
f 498 327 310
f 478 270 546
f 265 355 363
f 271 366 123
f 210 191 427
f 250 167 95
f 344 42 566
f 528 398 35
f 266 82 298
f 198 523 54
f 401 192 527
f 133 528 517
f 539 154 57
f 463 297 383
f 362 357 132
f 497 150 9
f 334 265 363
f 30 264 412
f 322 42 344
f 99 441 316
f 404 193 12
f 500 520 152
f 464 114 307
f 37 91 76
f 436 365 139
f 292 290 491
f 516 136 189
f 100 131 127
f 243 347 111
f 478 546 282
f 410 108 425
f 64 317 374
f 302 534 353
f 219 434 482
f 533 501 440
f 341 429 472
f 9 1 415
f 116 102 15
f 251 440 216
f 422 14 37
f 167 285 476
f 536 84 534
f 299 557 434
f 22 80 360
f 249 4 444
f 95 476 556
f 230 484 388
f 4 76 378
f 555 201 465
f 152 520 482
f 556 70 500
f 46 553 205
f 20 2 214
f 564 56 397
f 348 191 94
f 370 45 180
f 203 116 15
f 507 538 164
f 238 523 447
f 521 66 330
f 34 109 509
f 90 6 366
f 293 385 333
f 55 451 384
f 95 44 407
f 361 351 388
f 365 468 128
f 174 110 192
f 409 401 294
f 524 269 205
f 229 262 449
f 342 530 12
f 257 40 185
f 78 124 145
f 220 342 88
f 289 238 281
f 526 231 267
f 483 467 345
f 191 280 94
f 380 498 466
f 60 326 226
f 131 277 259
f 212 501 533
f 368 522 14
f 296 33 133
f 413 520 1
f 251 216 55
f 381 193 456
f 30 418 264
f 437 255 239
f 207 508 181
f 435 318 207
f 330 215 233
f 481 312 297
f 52 557 514
f 119 185 49
f 114 156 433
f 358 162 216
f 483 157 283
f 30 563 448
f 475 118 253
f 344 480 47
f 134 106 504
f 526 280 231
f 237 166 415
f 384 247 227
f 204 61 547
f 543 136 516
f 128 143 266
f 159 192 416
f 297 268 215
f 304 535 135
f 466 310 537
f 204 492 61
f 330 463 383
f 541 103 312
f 238 218 54
f 245 504 362
f 562 514 223
f 115 407 19
f 430 181 479
f 512 182 38
f 202 504 291
f 329 50 31
f 43 442 176
f 463 223 481
f 381 456 429
f 116 140 102
f 424 402 87
f 395 397 56
f 212 166 501
f 72 225 249
f 384 451 471
f 292 569 375
f 135 182 512
f 461 73 509
f 121 258 470
f 244 423 321
f 478 62 303
f 507 64 555
f 533 371 346
f 420 400 324
f 213 233 300
f 566 57 335
f 568 335 232
f 145 124 12
f 63 65 334
f 532 471 451
f 462 1 9
f 137 132 105
f 209 525 43
f 294 527 153
f 281 447 408
f 243 8 519
f 260 505 359
f 334 355 331
f 263 490 277
f 292 506 569
f 444 118 450
f 332 324 3
f 497 415 166
f 113 120 220
f 23 27 108
f 541 452 103
f 143 82 266
f 431 513 48
f 344 566 496
f 337 20 326
f 492 426 550
f 301 441 460
f 559 315 224
f 332 3 225
f 564 397 272
f 180 432 66
f 531 119 49
f 206 157 483
f 322 347 42
f 348 46 205
f 23 510 493
f 132 327 548
f 22 75 510
f 168 378 76
f 150 428 349
f 98 514 557
f 219 130 299
f 292 569 506
f 119 465 257
f 139 128 306
f 117 36 361
f 229 333 262
f 342 193 325
f 144 461 285
f 248 105 498
f 237 509 166
f 183 29 81
f 81 18 446
f 161 354 11
f 348 427 191
f 430 479 53
f 276 429 341
f 177 373 351
f 446 18 206
f 476 461 67
f 211 343 474
f 246 153 527
f 144 73 461
f 37 14 91
f 62 424 286
f 289 281 16
f 210 427 551
f 64 374 201
f 339 540 405
f 502 74 364
f 534 97 353
f 220 88 443
f 365 128 139
f 533 440 251
f 158 340 308
f 255 69 239
f 444 450 438
f 350 254 534
f 207 318 406
f 217 546 83
f 374 255 488
f 309 279 116
f 179 22 510
f 16 281 163
f 14 522 77
f 222 244 293
f 413 183 367
f 438 394 459
f 541 312 7
f 124 395 404
f 558 531 63
f 103 448 312
f 289 184 218
f 419 256 111
f 3 76 4
f 224 370 10
f 526 267 17
f 336 11 170
f 469 104 282
f 457 343 274
f 21 405 473
f 523 96 447
f 204 235 492
f 390 222 373
f 342 325 88
f 103 30 448
f 279 195 140
f 289 16 394
f 199 390 147
f 330 383 215
f 356 127 117
f 384 227 13
f 159 416 469
f 211 248 380
f 101 387 170
f 83 546 270
f 421 502 364
f 270 125 357
f 432 223 463
f 320 265 63
f 385 318 262
f 372 436 139
f 444 4 118
f 20 214 544
f 170 68 313
f 444 438 156
f 232 57 154
f 410 97 534
f 29 241 18
f 487 547 337
f 247 525 209
f 158 100 340
f 561 332 242
f 561 443 88
f 235 426 492
f 439 542 524
f 372 139 453
f 286 172 303
f 219 446 130
f 251 122 371
f 70 520 500
f 19 559 224
f 74 72 249
f 126 411 49
f 418 329 328
# 1148 faces, 0 coords texture

# End of File