####
#
# OBJ File Generated by Meshlab
#
####
# Object domain230.obj
#
# Vertices: 557
# Faces: 1128
#
####
v 136.512192 168.165512 132.747513
v 118.305855 149.492523 132.945419
v 123.939392 155.876022 132.519562
v 119.907494 147.664764 144.062317
v 115.328453 145.864227 137.856354
v 123.950600 166.130508 132.629272
v 126.011375 160.991821 143.110168
v 138.046799 154.058395 133.899963
v 137.682144 147.150024 133.778061
v 128.040787 164.023331 142.287079
v 130.097794 145.155746 144.192505
v 121.888008 145.950287 135.508621
v 138.413284 157.877197 137.639435
v 134.483398 157.922348 142.540283
v 130.093643 153.826767 143.555191
v 117.515091 145.431015 140.022964
v 138.045471 155.759094 139.891235
v 119.858704 151.768250 132.753494
v 139.239197 164.047867 135.653732
v 134.486588 162.029144 132.520416
v 115.057434 158.020569 140.071304
v 119.839417 145.331528 140.021561
v 137.744446 155.909317 133.327835
v 130.091965 169.755539 135.730057
v 132.143066 167.552231 139.471909
v 121.895668 147.672012 144.320312
v 123.939575 165.542053 141.549576
v 139.051605 162.010223 135.684982
v 117.412476 145.445847 143.889999
v 139.451447 161.406281 133.689301
v 118.521660 152.854065 143.127548
v 119.855820 164.087296 133.600662
v 114.729927 147.677902 141.144257
v 121.025078 162.025345 133.053040
v 138.274124 170.212250 133.735657
v 117.283730 151.814011 142.788712
v 121.898468 157.915253 143.321045
v 128.040970 159.977966 132.499985
v 116.125877 157.761826 141.350754
v 136.423218 145.972885 137.896561
v 131.989014 145.279190 144.168701
v 138.249466 168.169968 133.242371
v 136.496674 157.927673 132.741776
v 134.350586 147.598602 143.382385
v 132.143082 162.029129 132.500015
v 121.901558 155.875427 132.638275
v 123.948677 145.256638 142.482162
v 123.938972 146.557907 133.651718
v 129.976593 159.709457 143.170731
v 119.842598 145.284012 144.694641
v 125.990082 157.927017 132.500015
v 137.975876 147.781158 133.905487
v 125.990120 159.978073 132.506470
v 132.143082 157.926895 132.500000
v 116.576767 161.395981 141.160187
v 134.485519 149.725296 132.565750
v 125.990097 145.950272 135.508606
v 125.899307 162.130951 142.855865
v 136.532059 170.396362 133.399338
v 118.411743 167.965622 134.705307
v 128.045807 153.833649 143.639114
v 115.053719 151.928619 135.477081
v 125.707344 145.158096 144.303482
v 135.664642 147.616745 142.893234
v 115.460701 147.672958 134.204498
v 123.943367 164.027969 142.255951
v 119.843811 162.042526 133.468506
v 119.680809 145.552277 144.152878
v 137.387909 157.713943 141.043045
v 125.735596 145.149582 144.298965
v 136.495605 151.773804 132.743011
v 120.877510 159.314011 132.904236
v 116.733002 160.488647 135.222809
v 123.939476 157.927139 132.532288
v 114.767433 149.719467 141.112579
v 130.091965 168.173416 132.610397
v 138.182724 151.738525 139.953369
v 132.143051 168.617249 137.747604
v 116.053253 151.751068 134.501526
v 138.346130 169.245255 135.373886
v 115.050430 159.922470 137.642059
v 123.939377 153.825089 132.515686
v 132.142975 168.172287 132.619492
v 119.853745 149.719681 132.690155
v 136.602646 147.741364 142.305954
v 122.020866 169.772263 133.803192
v 137.508957 146.482925 140.924454
v 122.296669 164.054535 132.838776
v 134.489609 146.990082 133.147400
v 125.990265 162.029053 132.511917
v 138.125809 153.794388 139.861343
v 132.142883 145.304230 140.024857
v 117.568321 146.680450 133.704544
v 138.884171 168.145172 133.913544
v 132.142380 146.567993 133.657410
v 128.040985 162.029099 132.500015
v 132.141937 166.667587 140.589188
v 117.005241 164.062180 135.456818
v 137.549103 151.772934 133.204391
v 123.939613 157.920975 143.417358
v 114.871468 154.403885 140.779404
v 122.327316 168.197464 132.976105
v 123.714798 160.688797 143.065567
v 137.540878 147.690903 133.220612
v 119.852295 168.435272 137.657440
v 130.091431 146.559860 133.652603
v 115.054092 146.412201 141.020264
v 134.378342 149.638885 143.219986
v 138.538925 159.860764 137.403427
v 134.013687 151.697388 143.159760
v 121.891441 165.532440 141.531967
v 132.146515 162.029694 142.547195
v 125.987175 147.673111 144.344772
v 130.091049 146.980606 133.136398
v 117.497368 145.617493 137.846786
v 117.438728 145.419785 143.939560
v 131.147186 159.275665 143.115540
v 134.485687 168.170868 132.633469
v 130.091980 153.825089 132.500015
v 134.486801 170.440887 133.915741
v 126.013351 159.938919 143.292099
v 125.996361 153.848648 143.702835
v 119.847313 146.998459 133.165787
v 119.841072 145.372284 142.442841
v 137.522842 153.812241 141.098907
v 119.889694 163.996140 142.043381
v 119.790543 149.757904 143.889969
v 139.293976 166.090149 135.896561
v 137.598923 151.759644 141.141495
v 130.110016 151.794098 143.714447
v 132.141174 170.384491 133.400391
v 114.461189 151.486862 136.309586
v 125.988808 157.926620 143.449905
v 117.653107 159.942032 142.109100
v 119.850174 162.022537 142.485168
v 134.521881 155.915192 142.748703
v 132.143097 166.130768 132.510208
v 132.132767 153.821838 143.381058
v 137.741318 147.694092 141.093170
v 134.477814 145.457321 140.032608
v 132.143066 149.724503 132.540207
v 117.398636 168.098221 135.614792
v 132.142853 145.960648 135.511124
v 128.040985 157.926880 132.500000
v 118.296791 149.549927 143.483398
v 128.936493 160.873276 143.050507
v 130.092026 159.977997 132.500015
v 134.486252 169.735901 135.719727
v 113.784348 147.443344 137.567139
v 125.990082 145.519012 137.831650
v 114.589821 157.347961 139.104431
v 134.478912 145.625793 137.846664
v 132.135406 164.011841 142.147797
v 121.921898 169.488037 135.614853
v 121.889107 149.725357 132.563156
v 123.938995 155.877136 143.532654
v 125.990135 145.252609 140.021149
v 129.950958 145.169830 144.207794
v 115.337158 155.905533 135.722183
v 136.492111 149.724625 132.758377
v 136.518326 164.080444 132.672104
v 138.397537 153.755447 137.714279
v 138.269791 166.131989 133.209320
v 128.040985 155.875977 132.500015
v 136.492340 155.876404 132.755463
v 115.502045 149.715683 141.911179
v 113.966637 149.648010 137.552826
v 121.883339 145.137604 144.774048
v 121.839478 151.817413 143.905319
v 136.537521 155.869644 141.860641
v 118.549767 151.090759 132.978149
v 117.586121 157.935669 142.292953
v 138.191254 158.061172 134.030640
v 138.258743 164.090134 133.225052
v 131.756973 157.715302 143.173248
v 121.890854 166.672791 140.595032
v 139.187469 168.110504 135.411774
v 116.383804 164.063400 136.359283
v 118.988342 153.904099 133.136520
v 136.472275 149.663651 142.293839
v 123.939133 166.680588 140.601669
v 114.740623 158.932739 137.954468
v 138.883347 168.092361 136.141800
v 116.978889 149.742432 142.857254
v 132.138916 145.280319 142.486771
v 120.130173 157.995712 143.130600
v 116.366570 159.859848 141.271667
v 132.153946 149.737228 143.686584
v 116.790810 167.014145 138.479340
v 132.794998 158.122971 142.962448
v 130.092026 157.926941 132.499985
v 128.040710 165.546661 141.563568
v 117.525169 145.410019 142.479736
v 125.980659 149.694763 144.238647
v 114.291092 149.660248 136.163116
v 134.396652 145.609406 142.395081
v 120.094887 159.661423 142.990051
v 128.041000 149.724213 132.534790
v 134.486435 157.926926 132.524094
v 118.675964 152.101044 133.047012
v 118.696609 168.829483 135.148499
v 130.081482 157.917694 143.355545
v 116.630890 165.921585 139.263947
v 123.786034 145.421417 144.328247
v 128.030487 147.670502 144.256195
v 125.987259 170.398712 133.393173
v 128.041000 166.682312 140.603409
v 116.323990 155.887360 134.837723
v 119.858650 168.128052 134.009613
v 138.437820 155.868286 135.544479
v 136.502899 168.403381 137.612686
v 117.853851 168.716873 135.752167
v 130.092056 145.519989 137.831802
v 115.944000 161.995132 139.919525
v 138.519028 157.906876 135.713409
v 117.496269 146.075790 135.532394
v 123.939171 147.672455 144.386475
v 121.889442 147.734695 132.785614
v 128.041000 151.774078 132.500015
v 121.889633 168.566711 137.719589
v 138.692108 166.090836 137.454346
v 138.143143 170.303970 133.436874
v 121.888031 145.522171 137.832123
v 130.089813 155.874420 143.443420
v 136.439453 160.023438 141.698517
v 126.033714 151.805435 143.948105
v 138.229874 170.038055 133.336960
v 125.990097 155.876038 132.500015
v 118.043114 162.024887 134.418121
v 128.041016 147.733337 132.779160
v 120.121773 153.737320 132.843994
v 137.777115 166.074539 139.706985
v 115.550110 153.815231 141.626648
v 130.092056 167.557129 139.475174
v 123.939003 151.774124 132.506302
v 128.040787 170.400192 133.393600
v 117.606148 157.903961 134.269287
v 128.039536 157.923813 143.432648
v 139.324997 163.753281 134.511139
v 121.312981 163.993362 133.049820
v 127.997368 151.689484 143.886414
v 132.137970 165.521423 141.511963
v 128.040955 167.557388 139.475388
v 138.158447 155.855438 133.906174
v 128.040985 169.755569 135.730042
v 115.849472 146.949951 134.375916
v 115.820435 155.810165 141.438065
v 130.091965 149.724258 132.534805
v 133.728424 153.704330 143.121094
v 138.375732 155.874115 137.815079
v 115.511848 159.914139 139.899445
v 137.328552 165.438141 140.706924
v 117.752876 145.398743 143.903870
v 137.946762 151.777237 133.717606
v 128.040924 146.980194 133.135864
v 121.832733 159.791855 143.141357
v 138.993378 166.127853 133.896805
v 128.041000 153.825089 132.500000
v 132.141861 170.021774 133.064865
v 130.092041 164.080093 132.500015
v 114.557266 153.805115 136.647369
v 122.606857 170.075470 133.259323
v 121.888840 146.560715 133.653030
v 121.892082 155.873795 143.447662
v 137.695938 149.599747 141.143982
v 136.594864 151.765396 142.067123
v 134.489655 170.384720 133.400253
v 116.919144 168.051514 136.522705
v 121.919220 159.976456 132.746735
v 123.939529 145.276794 140.021423
v 117.220490 168.456467 136.110489
v 123.939407 149.699799 144.263000
v 116.872841 161.991730 135.366791
v 114.168243 149.710403 139.764069
v 125.991714 164.023529 142.291687
v 118.302048 166.029419 134.506180
v 130.098404 162.046051 142.723572
v 134.477554 166.632767 140.555847
v 137.961929 159.991028 133.202835
v 134.486725 164.080032 132.515778
v 117.572075 168.108673 137.423965
v 134.487427 170.021301 133.066498
v 121.804749 145.177536 144.805023
v 121.893501 164.017838 142.198273
v 121.896049 153.824722 132.605545
v 121.889893 151.774170 132.565414
v 138.216019 162.129410 133.141281
v 135.296417 150.523895 142.853928
v 138.154434 147.767258 139.902756
v 132.143082 155.875992 132.500000
v 119.837440 145.968674 135.512878
v 134.486313 168.591843 137.732452
v 123.949440 170.386658 133.381989
v 114.388107 153.802948 139.980576
v 119.000244 155.769958 142.962509
v 117.475365 166.032684 140.358780
v 119.847725 167.465775 139.417725
v 134.486282 151.774078 132.525848
v 138.238205 149.725555 139.983795
v 130.092056 145.950302 135.508636
v 123.942619 169.700989 135.701828
v 118.047913 147.527679 143.617523
v 121.888954 153.844650 143.627213
v 115.249283 153.822937 135.591232
v 118.998634 157.876129 142.842636
v 125.990105 153.825089 132.499985
v 128.041000 168.173431 132.609055
v 134.445114 162.019638 142.226151
v 133.247742 145.423767 144.075821
v 115.649643 157.946014 135.854630
v 114.620796 147.037262 134.817795
v 136.519516 169.627548 135.654663
v 114.037079 147.543457 135.842087
v 123.939003 145.520187 137.831863
v 122.317886 166.130234 132.859467
v 130.089905 170.399338 133.394196
v 130.092010 162.029083 132.499985
v 119.843758 159.955414 133.323227
v 114.261322 153.593018 137.675491
v 134.486649 166.130600 132.525131
v 123.939011 147.733398 132.779144
v 138.790390 164.117599 137.457153
v 137.541992 153.866821 133.245880
v 130.092087 155.875992 132.499985
v 136.514740 162.029434 132.685043
v 123.938965 151.819794 143.997589
v 138.432480 151.774185 137.746902
v 125.990433 164.080078 132.517242
v 123.940826 159.978043 132.557755
v 121.356911 166.129608 133.111298
v 137.937897 159.969223 139.980103
v 123.956947 168.169388 132.712189
v 114.817787 158.206360 137.143646
v 128.040863 170.027817 133.050751
v 123.939369 153.855392 143.706421
v 119.555984 160.351273 142.799789
v 130.051193 147.643158 144.115311
v 125.990280 165.547302 141.565674
v 136.500778 147.729233 132.863678
v 119.842842 146.582962 133.664948
v 125.990097 149.724213 132.534775
v 123.929840 162.064896 142.754593
v 136.466507 157.909653 141.789841
v 132.142380 170.442841 133.916443
v 119.864632 166.594635 140.529007
v 131.593338 145.226837 144.157623
v 118.106163 165.350204 141.136963
v 117.763252 163.962097 141.441971
v 119.926369 151.631271 143.679993
v 115.491356 146.236481 135.617798
v 136.498398 167.314514 139.332809
v 139.381073 166.311798 135.167480
v 119.891975 165.495224 141.451187
v 114.875687 153.064804 141.050537
v 137.780960 166.914856 138.841156
v 138.140717 147.755600 137.764145
v 130.091873 145.260452 140.021408
v 113.327911 145.906006 137.130737
v 130.091293 170.455200 133.917221
v 134.820236 153.930267 142.785828
v 123.939102 149.724228 132.534790
v 121.962936 162.022598 132.823166
v 118.672020 154.094131 142.984818
v 115.547081 151.758728 141.802734
v 117.595566 153.795624 133.756500
v 123.939003 145.950226 135.508606
v 138.354492 151.773895 135.508408
v 130.129303 149.672318 143.939529
v 125.990616 166.130630 132.526321
v 114.931076 155.955338 140.476791
v 114.612228 155.831665 136.695724
v 121.888573 167.545715 139.467972
v 130.090622 170.026947 133.053253
v 137.539932 149.716278 133.222458
v 117.198036 166.140732 135.441040
v 137.266937 162.045670 141.026810
v 120.714714 157.734436 132.871429
v 134.486771 147.736771 132.791962
v 137.490524 147.170197 133.322632
v 136.352905 162.033646 141.686127
v 138.336441 149.716873 135.519547
v 128.041306 155.876587 143.529297
v 119.836937 145.531509 137.833496
v 115.960762 159.906723 136.033463
v 136.342590 146.273727 142.009308
v 119.855347 147.741043 132.847794
v 128.041016 166.130814 132.508514
v 119.838570 153.815598 143.385147
v 130.318710 160.528748 143.002518
v 117.793190 159.901352 134.366852
v 136.421326 166.449432 140.394943
v 128.110214 162.107971 142.849060
v 119.916626 169.149292 135.574112
v 121.710373 145.510651 144.253052
v 116.375038 153.802994 134.525558
v 136.379379 145.830521 139.947693
v 116.125748 161.922073 136.360687
v 114.716652 156.958969 136.770569
v 117.907959 147.686005 133.060944
v 132.143082 153.825104 132.500000
v 134.486221 153.825089 132.526855
v 134.481308 146.019363 135.522964
v 113.386932 145.952408 136.655930
v 133.318115 156.464737 143.005402
v 137.358597 164.230606 140.987518
v 121.893059 145.359741 142.451263
v 132.141861 155.880814 143.275894
v 117.505791 162.040009 141.757660
v 125.994049 170.453537 133.914078
v 124.087563 159.793701 143.201538
v 117.586205 167.094345 139.162643
v 120.199562 155.859085 143.218124
v 134.468124 159.977997 142.392303
v 130.091324 145.178574 142.489044
v 128.041046 168.619476 137.748932
v 127.950111 145.117538 144.231888
v 123.945221 162.028900 132.597534
v 117.516556 155.881622 142.387161
v 132.136871 159.961349 142.842972
v 128.041275 170.457108 133.917435
v 139.078003 164.041626 133.962112
v 116.297997 165.831909 137.663391
v 132.143097 151.774109 132.500000
v 117.492638 145.397247 143.965393
v 130.090057 165.539734 141.545609
v 123.968933 170.038925 133.074387
v 125.991455 168.172241 132.623703
v 123.939163 168.610336 137.743561
v 116.779213 167.587143 137.428436
v 132.122849 147.650833 143.888519
v 122.700523 170.218063 133.337540
v 130.092026 151.773941 132.500015
v 118.409348 145.318420 144.296921
v 115.458481 147.671738 142.002426
v 128.041000 145.519318 137.831726
v 117.490471 153.815598 142.675003
v 120.968361 160.319672 132.939590
v 117.574570 151.741440 133.479462
v 120.528404 155.844238 132.847122
v 134.448608 165.482849 141.426361
v 134.484512 167.515503 139.447937
v 139.432602 161.427109 133.706894
v 125.990074 151.773941 132.500015
v 130.092026 168.619507 137.748871
v 117.732330 147.026535 133.327957
v 123.948273 164.079834 132.610413
v 132.142929 145.528946 137.833099
v 132.141418 151.773788 143.494827
v 138.021530 149.530853 133.871185
v 128.041016 164.080078 132.499985
v 114.918762 149.876511 135.218674
v 123.966293 170.405884 133.871216
v 116.899376 147.721008 133.454041
v 136.515350 170.426468 133.896103
v 136.516693 170.027588 133.090836
v 136.424210 163.984756 141.540298
v 136.506927 159.978195 132.713409
v 130.091721 166.679398 140.600403
v 125.990120 168.619507 137.748901
v 123.939087 146.980209 133.135864
v 132.142700 147.736862 132.790024
v 138.377991 153.828995 135.511566
v 123.501961 145.167969 144.528091
v 119.384163 155.828400 133.188187
v 138.810837 159.898911 135.449615
v 125.990143 170.027939 133.050995
v 114.253571 151.816681 139.713196
v 137.737839 157.942596 133.322571
v 121.430634 168.159927 133.284882
v 125.990112 167.557388 139.475357
v 114.469673 157.927460 137.832993
v 125.660767 145.149582 144.318253
v 125.989990 166.682724 140.603836
v 121.885902 162.048798 142.698853
v 128.040939 145.255341 140.020966
v 125.990288 155.877563 143.547226
v 121.905525 157.921768 132.672165
v 134.485550 146.577469 133.660126
v 136.563080 153.812393 141.975601
v 115.814026 149.635254 134.310623
v 134.486526 159.978012 132.521042
v 119.646851 157.953918 133.239410
v 132.143082 169.749298 135.726990
v 114.123802 151.735275 137.531189
v 136.519119 166.130035 132.669159
v 116.593529 166.102661 136.457596
v 130.091949 166.130783 132.508530
v 139.453018 161.506516 133.708511
v 127.958084 145.157700 144.236496
v 138.671661 162.029968 137.500977
v 115.702316 161.915802 137.625107
v 136.371765 165.458694 141.157654
v 125.991852 145.183151 142.491241
v 116.288338 164.040939 139.738693
v 138.415894 149.724731 137.740891
v 132.142288 146.989532 133.147552
v 125.990013 146.980148 133.135788
v 113.378052 145.945114 136.730728
v 136.490875 153.825012 132.754990
v 116.026917 163.999359 137.592422
v 137.961411 157.981903 140.005737
v 137.985916 164.048019 139.990005
v 127.627426 160.999893 143.107651
v 139.378540 164.711929 134.925018
v 136.521805 147.005951 133.156052
v 118.331856 151.594116 143.253372
v 114.807014 151.760056 141.091675
v 119.832970 145.299316 144.735733
v 128.040970 146.557922 133.651733
v 121.889565 146.980927 133.136917
v 117.312035 149.811722 133.376099
v 128.041000 145.140579 142.488831
v 135.496414 146.296051 142.747955
v 136.446381 146.305084 135.562027
v 120.258751 169.133606 134.542786
v 115.642578 145.817657 139.973145
v 114.622147 148.012436 135.052429
v 128.079117 159.986603 143.285904
v 130.089401 164.024109 142.234528
v 135.103577 151.878677 142.812622
v 128.094177 149.752411 144.099335
v 125.990471 169.747574 135.725952
v 116.743744 147.723557 142.955215
v 117.049698 164.811508 140.650604
v 138.048431 147.768356 135.514648
v 138.153076 167.855789 137.256882
v 125.990112 147.733337 132.779160
v 137.520279 146.613586 138.087311
v 137.270935 159.961563 141.086304
v 122.063507 160.674454 142.981934
v 133.459763 155.490097 143.075882
v 114.630318 146.373230 139.655197
v 137.435318 146.854401 135.536713
v 137.464630 155.855087 141.071838
v 114.615158 146.844193 134.886826
v 134.432220 163.996338 141.969116
v 138.636337 169.682938 133.796570
v 117.460808 155.791382 134.052948
v 137.703476 146.432129 140.007690
v 121.902206 149.694077 144.198837
v 123.938988 167.557358 139.475388
v 128.041016 145.950211 135.508636
v 121.888702 145.294540 140.020813
v 125.990021 146.557877 133.651703
v 132.143082 164.080063 132.500015
v 114.411797 155.847626 137.551865
v 131.907761 145.234909 144.171036
v 138.871704 168.993683 134.992386
v 118.102524 164.058609 134.501434
v 136.483017 146.690201 133.654282
v 132.143097 159.978012 132.500015
v 137.974472 162.036407 139.979828
v 119.890846 166.126022 133.663193
v 130.091660 147.733841 132.781357
v 114.523666 155.789444 139.619720
v 114.197411 147.714676 139.747314
v 134.486221 155.875977 132.525879
# 557 vertices, 0 vertices normals

f 70 416 489
f 327 77 162
f 134 39 187
f 147 54 551
f 421 504 352
f 529 552 331
f 282 59 267
f 147 551 317
f 209 515 60
f 19 128 352
f 83 137 320
f 212 201 393
f 351 211 526
f 324 290 191
f 291 223 12
f 452 293 409
f 174 421 163
f 544 542 509
f 474 284 342
f 389 419 117
f 122 476 61
f 142 276 60
f 460 497 321
f 361 286 155
f 394 26 204
f 550 9 379
f 130 448 188
f 257 177 94
f 528 356 533
f 321 527 361
f 241 61 130
f 330 88 315
f 144 191 38
f 418 247 39
f 275 10 392
f 531 407 404
f 27 338 275
f 29 434 523
f 22 383 16
f 401 499 557
f 339 379 104
f 533 525 9
f 96 147 317
f 386 510 218
f 377 46 477
f 44 108 64
f 459 522 245
f 273 178 397
f 131 316 373
f 35 222 537
f 313 451 195
f 128 183 177
f 89 461 496
f 97 25 278
f 362 329 417
f 3 74 477
f 385 87 539
f 20 325 280
f 14 419 413
f 229 318 67
f 25 292 441
f 462 162 250
f 402 40 514
f 246 453 65
f 511 480 453
f 83 118 259
f 408 135 336
f 136 14 170
f 125 17 91
f 412 264 303
f 75 507 166
f 110 360 520
f 56 160 298
f 257 352 177
f 480 62 451
f 19 504 239
f 466 334 236
f 262 426 293
f 396 528 40
f 120 267 454
f 485 174 163
f 43 23 468
f 274 507 75
f 415 24 444
f 230 554 198
f 313 167 149
f 478 550 505
f 199 43 481
f 354 233 364
f 509 300 106
f 475 512 414
f 305 336 197
f 4 394 68
f 47 493 270
f 90 96 328
f 106 95 496
f 372 220 428
f 275 338 10
f 217 26 540
f 162 91 250
f 511 438 79
f 339 104 160
f 298 400 423
f 348 347 126
f 298 71 401
f 180 265 139
f 358 498 403
f 23 8 244
f 307 76 334
f 25 234 78
f 424 50 68
f 441 292 211
f 278 391 492
f 481 45 551
f 394 283 68
f 146 277 389
f 186 37 264
f 74 329 269
f 336 135 474
f 172 305 295
f 19 221 128
f 211 312 80
f 292 312 211
f 3 477 46
f 27 181 338
f 527 230 341
f 86 431 452
f 553 240 330
f 277 519 112
f 516 193 16
f 75 166 434
f 58 275 392
f 232 355 221
f 341 230 198
f 246 216 93
f 438 365 395
f 215 465 173
f 355 526 221
f 476 133 382
f 428 522 459
f 535 246 65
f 491 494 214
f 520 180 288
f 232 221 322
f 126 284 474
f 402 95 143
f 42 94 227
f 335 156 122
f 49 389 117
f 258 119 164
f 259 118 282
f 508 283 168
f 302 4 68
f 56 298 423
f 134 187 408
f 530 103 410
f 297 220 372
f 479 170 125
f 485 163 1
f 508 168 50
f 525 381 52
f 124 193 68
f 181 541 473
f 468 173 279
f 425 242 153
f 71 374 99
f 298 160 71
f 215 109 465
f 392 10 277
f 151 471 21
f 323 8 23
f 157 435 150
f 61 15 130
f 388 363 295
f 108 448 110
f 394 463 283
f 518 146 49
f 176 181 27
f 410 7 121
f 74 269 477
f 390 273 73
f 342 66 58
f 546 261 371
f 442 488 30
f 550 379 505
f 420 236 359
f 526 128 221
f 249 531 136
f 427 307 466
f 518 392 146
f 532 29 516
f 336 474 530
f 295 186 412
f 493 489 512
f 135 126 474
f 161 287 174
f 249 407 531
f 408 214 348
f 538 179 464
f 51 144 53
f 59 222 35
f 199 551 54
f 357 92 447
f 325 279 287
f 146 389 49
f 294 101 233
f 326 226 194
f 541 459 470
f 205 337 158
f 439 285 46
f 436 388 31
f 525 495 381
f 376 405 502
f 402 514 478
f 511 399 2
f 21 81 251
f 387 260 487
f 253 68 193
f 436 295 363
f 422 486 429
f 426 466 206
f 100 37 256
f 302 145 4
f 142 271 268
f 248 141 432
f 394 204 406
f 53 38 90
f 48 544 497
f 173 465 442
f 246 93 445
f 168 394 50
f 207 458 425
f 36 436 31
f 127 145 506
f 142 60 212
f 309 41 547
f 47 63 493
f 99 449 254
f 165 23 43
f 190 407 175
f 321 361 155
f 388 303 169
f 210 250 13
f 48 57 544
f 340 510 123
f 43 468 457
f 281 271 212
f 287 488 174
f 156 264 37
f 516 29 193
f 184 36 506
f 358 403 498
f 436 363 388
f 378 339 56
f 341 198 443
f 287 30 488
f 366 12 314
f 219 248 432
f 426 427 466
f 366 314 150
f 9 525 52
f 344 131 120
f 497 255 527
f 160 104 374
f 41 513 385
f 375 268 486
f 529 376 552
f 424 68 253
f 85 139 87
f 338 473 192
f 318 437 34
f 113 205 489
f 6 369 332
f 130 15 448
f 170 343 534
f 210 13 215
f 274 467 507
f 272 326 194
f 3 228 74
f 380 456 376
f 108 288 180
f 29 253 116
f 28 322 19
f 498 350 246
f 80 548 183
f 42 257 94
f 97 234 25
f 391 232 252
f 470 459 415
f 472 63 204
f 489 158 11
f 556 532 149
f 22 16 124
f 36 31 506
f 23 244 468
f 301 452 409
f 381 327 367
f 357 447 213
f 403 149 532
f 334 76 373
f 408 187 55
f 124 394 406
f 235 341 443
f 174 488 421
f 159 371 261
f 302 253 523
f 370 101 555
f 381 367 449
f 9 52 104
f 320 485 118
f 308 536 380
f 231 286 285
f 121 7 518
f 291 93 216
f 250 91 17
f 313 535 311
f 532 516 5
f 454 59 35
f 549 67 32
f 63 489 416
f 344 24 359
f 190 404 407
f 11 547 346
f 67 34 240
f 484 195 132
f 167 484 467
f 344 359 316
f 231 439 464
f 481 457 20
f 470 243 207
f 462 210 8
f 127 506 349
f 348 126 135
f 220 301 428
f 167 195 484
f 336 256 197
f 281 212 393
f 97 242 458
f 13 501 331
f 375 549 276
f 246 445 453
f 87 139 289
f 102 6 332
f 88 417 446
f 464 439 482
f 395 159 304
f 70 63 416
f 457 468 279
f 323 254 8
f 38 191 147
f 152 402 143
f 131 267 120
f 259 131 373
f 457 279 325
f 402 478 95
f 81 214 251
f 322 221 19
f 116 424 253
f 243 444 234
f 382 224 15
f 284 66 342
f 249 136 360
f 553 330 209
f 66 275 58
f 170 534 125
f 518 49 202
f 411 105 297
f 366 263 12
f 383 223 291
f 197 256 37
f 176 372 181
f 432 423 119
f 228 164 51
f 378 141 461
f 478 514 550
f 207 243 458
f 484 132 319
f 240 34 362
f 282 1 455
f 306 258 228
f 480 79 62
f 262 332 426
f 157 493 512
f 29 253 193
f 405 252 232
f 390 482 318
f 270 493 157
f 160 374 71
f 81 491 214
f 94 548 537
f 127 349 540
f 132 62 304
f 315 6 102
f 133 238 382
f 217 63 204
f 18 179 200
f 516 115 5
f 521 241 368
f 381 495 327
f 366 57 48
f 557 499 165
f 274 556 149
f 539 289 356
f 480 65 453
f 367 327 162
f 1 42 455
f 132 195 451
f 516 16 115
f 277 112 419
f 227 94 537
f 483 444 24
f 321 497 527
f 484 319 467
f 460 510 263
f 4 145 127
f 433 508 50
f 56 423 141
f 307 487 76
f 111 176 27
f 305 197 186
f 399 123 386
f 22 406 543
f 411 203 189
f 436 233 247
f 108 188 448
f 80 35 537
f 396 385 539
f 139 299 289
f 164 119 324
f 217 540 272
f 335 122 226
f 403 532 5
f 343 225 69
f 539 87 289
f 380 376 529
f 119 400 324
f 431 293 452
f 266 479 129
f 186 197 37
f 78 483 148
f 382 238 224
f 367 162 462
f 13 17 501
f 376 502 552
f 499 323 165
f 33 434 29
f 475 414 357
f 21 39 370
f 313 517 451
f 225 380 529
f 555 101 294
f 440 492 456
f 538 464 237
f 295 305 186
f 148 120 454
f 361 235 286
f 266 129 265
f 549 32 276
f 83 259 373
f 134 408 336
f 422 178 486
f 310 81 333
f 291 340 93
f 326 335 226
f 219 432 258
f 556 33 532
f 340 123 93
f 22 543 223
f 274 149 167
f 335 264 156
f 546 151 555
f 239 504 421
f 513 64 85
f 324 400 290
f 56 339 160
f 269 329 362
f 164 324 144
f 361 341 235
f 372 428 541
f 223 314 12
f 486 268 429
f 334 373 316
f 202 49 175
f 520 266 180
f 237 390 384
f 230 114 554
f 318 377 72
f 388 295 412
f 36 364 233
f 378 505 339
f 296 345 353
f 337 368 430
f 226 122 241
f 374 449 99
f 260 545 487
f 450 317 260
f 10 519 277
f 103 342 58
f 418 39 172
f 235 82 285
f 82 46 285
f 245 359 24
f 186 264 412
f 475 357 213
f 178 500 397
f 508 68 283
f 47 204 63
f 118 485 1
f 522 409 420
f 401 290 400
f 466 307 334
f 21 187 39
f 319 555 294
f 354 294 233
f 509 106 114
f 228 258 164
f 248 461 141
f 495 299 327
f 399 453 445
f 269 362 34
f 235 443 82
f 543 270 314
f 97 278 440
f 442 30 488
f 47 406 204
f 438 171 200
f 191 54 147
f 313 149 498
f 385 85 87
f 293 206 409
f 122 61 241
f 390 318 229
f 413 112 308
f 7 503 518
f 395 304 79
f 156 37 100
f 317 45 260
f 235 285 286
f 456 405 376
f 344 316 131
f 474 103 530
f 392 277 146
f 543 314 223
f 194 226 521
f 348 524 347
f 334 316 236
f 229 67 549
f 482 377 318
f 473 207 192
f 511 79 480
f 184 145 523
f 273 397 384
f 140 196 385
f 313 498 535
f 417 53 90
f 109 331 552
f 394 68 50
f 181 473 338
f 184 506 145
f 210 215 244
f 465 28 442
f 83 76 137
f 483 24 344
f 489 158 512
f 20 457 325
f 121 518 238
f 100 256 410
f 367 254 449
f 410 121 133
f 192 425 519
f 310 384 81
f 109 552 490
f 157 512 475
f 243 415 444
f 491 500 494
f 125 534 17
f 154 452 301
f 416 11 158
f 32 240 553
f 332 369 427
f 544 509 255
f 210 244 8
f 367 462 254
f 383 115 16
f 104 52 374
f 310 333 398
f 422 494 500
f 525 356 495
f 199 481 551
f 280 137 545
f 438 2 171
f 98 375 486
f 237 464 482
f 30 421 488
f 292 148 312
f 413 225 343
f 102 332 262
f 306 219 258
f 538 237 208
f 394 204 463
f 41 185 346
f 531 404 136
f 47 543 406
f 514 533 550
f 70 489 63
f 48 460 263
f 538 208 395
f 462 8 254
f 354 507 467
f 552 502 490
f 279 442 287
f 270 150 314
f 55 251 214
f 226 241 521
f 386 84 2
f 204 63 463
f 236 316 359
f 396 539 528
f 109 490 465
f 281 429 268
f 387 487 307
f 426 206 293
f 489 205 158
f 247 233 101
f 385 513 85
f 98 549 375
f 536 440 456
f 25 441 278
f 365 179 538
f 237 482 390
f 357 414 185
f 168 204 394
f 499 99 323
f 515 201 60
f 281 189 429
f 58 392 503
f 345 176 111
f 532 33 107
f 534 501 17
f 441 211 351
f 546 555 319
f 198 554 248
f 41 430 44
f 127 540 26
f 296 524 494
f 350 216 246
f 194 521 205
f 391 351 232
f 71 99 499
f 198 248 219
f 557 54 290
f 399 445 123
f 22 124 406
f 273 229 98
f 140 40 152
f 182 21 471
f 369 387 427
f 487 545 137
f 436 418 295
f 282 455 59
f 508 253 68
f 231 285 439
f 478 89 95
f 399 386 2
f 388 412 303
f 337 430 346
f 55 187 251
f 86 262 431
f 190 136 404
f 44 64 513
f 336 530 256
f 105 154 220
f 108 180 64
f 460 321 218
f 366 150 57
f 450 260 387
f 123 445 93
f 74 228 51
f 128 177 352
f 312 35 80
f 349 169 540
f 156 476 122
f 84 171 2
f 284 111 66
f 470 415 243
f 184 364 36
f 349 388 169
f 512 158 414
f 114 496 554
f 48 497 460
f 455 227 222
f 462 250 210
f 224 202 407
f 353 111 284
f 86 452 154
f 99 254 323
f 526 183 128
f 13 331 109
f 81 384 491
f 421 352 257
f 338 192 10
f 433 424 253
f 72 477 269
f 100 133 476
f 184 166 364
f 132 261 319
f 215 13 109
f 20 545 45
f 335 303 264
f 557 199 54
f 479 125 129
f 139 265 299
f 30 239 421
f 100 410 133
f 440 278 492
f 351 526 355
f 276 553 60
f 83 320 118
f 158 346 414
f 308 112 153
f 302 523 145
f 33 75 434
f 435 213 542
f 309 346 41
f 58 503 7
f 10 192 519
f 262 293 431
f 84 155 18
f 4 127 26
f 472 70 63
f 539 356 528
f 332 427 426
f 28 19 30
f 108 520 288
f 390 229 273
f 21 251 187
f 134 336 305
f 159 261 304
f 455 222 59
f 519 425 153
f 192 207 425
f 546 471 151
f 296 347 524
f 272 194 113
f 64 180 85
f 487 137 76
f 215 173 244
f 209 469 515
f 287 442 30
f 372 541 181
f 250 17 13
f 142 212 271
f 259 282 267
f 302 68 253
f 313 311 65
f 315 446 6
f 321 155 218
f 161 174 485
f 129 91 77
f 265 129 77
f 1 163 42
f 478 505 89
f 124 68 394
f 368 188 430
f 446 90 328
f 9 104 379
f 133 121 238
f 157 475 435
f 113 194 205
f 347 353 126
f 422 500 178
f 438 179 365
f 515 469 86
f 351 355 232
f 498 5 350
f 296 411 345
f 211 80 526
f 433 50 424
f 474 342 103
f 97 440 242
f 151 370 555
f 383 291 216
f 298 401 400
f 353 345 111
f 126 353 284
f 103 58 7
f 98 229 549
f 237 310 208
f 105 393 154
f 455 42 227
f 205 521 337
f 556 75 33
f 408 55 214
f 411 189 281
f 80 537 548
f 162 77 91
f 237 384 310
f 152 143 447
f 354 467 294
f 296 353 347
f 481 20 45
f 546 371 471
f 124 16 193
f 370 247 101
f 276 32 553
f 269 34 437
f 277 419 389
f 273 98 178
f 41 44 513
f 459 245 415
f 333 471 398
f 505 379 339
f 61 382 15
f 90 38 96
f 340 12 263
f 238 202 224
f 327 299 77
f 163 421 257
f 44 430 188
f 469 102 86
f 140 396 40
f 227 537 222
f 368 130 188
f 427 387 307
f 438 200 179
f 527 255 230
f 208 310 159
f 136 170 479
f 84 18 171
f 291 12 340
f 260 45 545
f 280 320 137
f 309 547 346
f 140 92 196
f 300 143 106
f 63 113 489
f 18 200 171
f 313 195 167
f 408 348 135
f 422 189 203
f 98 486 178
f 495 289 299
f 118 1 282
f 41 346 547
f 163 257 42
f 329 53 417
f 432 141 423
f 274 75 556
f 206 236 420
f 521 368 337
f 515 86 393
f 19 239 30
f 33 29 107
f 517 65 451
f 144 324 191
f 132 304 261
f 148 454 312
f 168 472 204
f 224 407 138
f 534 69 501
f 3 306 228
f 241 130 368
f 405 232 502
f 270 157 150
f 483 120 148
f 110 448 138
f 350 115 216
f 196 92 185
f 82 443 306
f 541 470 473
f 84 218 155
f 369 450 387
f 4 26 394
f 328 450 369
f 546 319 261
f 482 439 377
f 14 413 343
f 542 213 300
f 217 204 26
f 360 266 520
f 393 86 154
f 320 161 485
f 526 80 183
f 403 498 149
f 348 214 494
f 325 287 161
f 38 147 96
f 119 423 400
f 414 346 185
f 159 398 371
f 165 323 23
f 182 471 81
f 356 289 495
f 300 447 143
f 53 144 38
f 213 447 300
f 281 268 271
f 481 43 457
f 416 489 11
f 78 234 444
f 308 153 536
f 69 331 501
f 511 2 438
f 422 203 494
f 184 523 166
f 348 494 524
f 202 175 407
f 140 385 396
f 446 328 6
f 57 435 542
f 456 492 405
f 15 224 138
f 57 542 544
f 476 382 61
f 536 153 242
f 40 528 514
f 36 233 436
f 249 138 407
f 88 446 315
f 78 148 292
f 86 102 262
f 220 154 301
f 550 533 9
f 416 158 489
f 349 31 388
f 326 303 335
f 354 364 507
f 415 245 24
f 28 490 322
f 190 175 419
f 5 115 350
f 89 378 461
f 158 337 346
f 518 503 392
f 240 362 88
f 66 27 275
f 180 139 85
f 89 505 378
f 535 65 311
f 272 540 169
f 533 356 525
f 297 372 176
f 361 527 341
f 73 273 384
f 83 373 76
f 279 173 442
f 519 153 112
f 190 14 136
f 375 276 142
f 532 107 29
f 362 417 88
f 378 56 141
f 413 419 112
f 472 63 70
f 39 247 370
f 544 255 497
f 411 297 345
f 557 165 199
f 536 242 440
f 15 138 448
f 62 79 304
f 19 352 504
f 386 218 84
f 243 234 458
f 365 538 395
f 425 458 242
f 47 270 543
f 172 39 134
f 49 117 175
f 156 100 476
f 502 322 490
f 536 456 380
f 422 429 189
f 522 420 245
f 436 247 418
f 41 196 185
f 106 496 114
f 471 371 398
f 172 134 305
f 280 161 320
f 123 510 386
f 78 444 483
f 110 138 249
f 554 496 461
f 542 300 509
f 468 244 173
f 473 470 207
f 417 90 446
f 401 557 290
f 439 46 377
f 199 165 43
f 326 169 303
f 20 280 545
f 466 236 206
f 377 477 72
f 319 294 467
f 283 463 472
f 366 48 263
f 515 393 201
f 383 216 115
f 308 380 225
f 217 113 63
f 433 253 508
f 413 308 225
f 25 78 292
f 166 523 434
f 238 518 202
f 274 167 467
f 63 489 493
f 443 198 219
f 259 267 131
f 44 188 108
f 401 71 499
f 51 164 144
f 313 65 517
f 18 286 231
f 191 290 54
f 317 551 45
f 232 322 502
f 209 330 469
f 11 158 547
f 182 81 21
f 349 506 31
f 152 447 92
f 97 458 234
f 129 125 91
f 280 325 161
f 82 306 3
f 18 231 179
f 343 69 534
f 258 432 119
f 318 34 67
f 395 208 159
f 179 231 464
f 89 496 95
f 330 315 469
f 29 523 253
f 106 143 95
f 438 395 79
f 492 391 252
f 175 117 419
f 318 72 437
f 158 346 547
f 212 60 201
f 491 397 500
f 530 410 256
f 152 40 402
f 329 51 53
f 281 393 105
f 340 263 510
f 357 185 92
f 472 463 63
f 217 272 113
f 72 269 437
f 375 142 268
f 492 252 405
f 554 461 248
f 310 398 159
f 29 116 253
f 441 351 391
f 69 529 331
f 514 528 533
f 94 177 548
f 475 213 435
f 312 454 35
f 267 59 454
f 74 51 329
f 82 3 46
f 132 451 62
f 245 420 359
f 535 498 246
f 483 344 120
f 403 5 498
f 360 479 266
f 151 21 370
f 460 218 510
f 541 428 459
f 278 441 391
f 166 507 364
f 480 451 65
f 183 548 177
f 374 52 449
f 301 409 522
f 41 385 196
f 116 253 424
f 150 435 57
f 345 297 176
f 108 110 520
f 272 169 326
f 180 266 265
f 18 155 286
f 136 479 360
f 140 152 92
f 443 219 306
f 67 240 32
f 553 209 60
f 428 301 522
f 11 346 158
f 265 77 299
f 14 343 170
f 410 103 7
f 28 30 442
f 333 81 471
f 469 315 102
f 390 73 384
f 168 283 472
f 225 529 69
f 411 281 105
f 6 328 369
f 296 494 203
f 296 203 411
f 328 96 450
f 381 449 52
f 41 346 430
f 511 453 399
f 190 419 14
f 22 223 383
f 255 114 230
f 418 172 295
f 111 27 66
f 465 490 28
f 110 249 360
f 297 105 220
f 409 206 420
f 509 114 255
f 384 397 491
f 240 88 330
f 96 317 450
# 1128 faces, 0 coords texture

# End of File