####
#
# OBJ File Generated by Meshlab
#
####
# Object domain248.obj
#
# Vertices: 556
# Faces: 1128
#
####
v 206.825241 42.525734 128.636246
v 84.090485 50.694584 120.589661
v 85.392227 46.579506 126.864326
v 82.455780 46.954098 124.789986
v 201.002075 46.593876 130.357193
v 209.131500 48.743740 123.907463
v 87.121391 42.731865 129.083221
v 200.378937 58.926147 121.248878
v 85.390327 57.874363 124.705162
v 199.808029 51.701366 121.956566
v 78.525803 57.641491 124.559273
v 203.056915 42.229633 128.163849
v 90.178787 48.605949 131.162903
v 212.402771 54.648640 124.793968
v 79.270493 45.137630 128.360123
v 195.800827 44.765507 130.835709
v 211.105148 50.649349 125.984283
v 205.053589 60.364807 124.939507
v 80.680519 47.958244 121.119766
v 77.712898 52.900211 126.931381
v 76.218544 50.780388 121.101242
v 210.001175 47.736618 127.019287
v 210.437515 49.827316 122.500435
v 210.375320 48.968632 125.931396
v 206.949005 60.649414 121.692139
v 86.204308 48.243835 125.790833
v 75.206749 54.108601 122.190620
v 201.893494 40.039104 129.007874
v 201.415253 53.774059 129.308685
v 202.156754 40.053123 128.999207
v 89.720985 49.699162 121.953865
v 199.144989 49.278492 130.210281
v 196.867538 46.607872 131.173355
v 206.848190 42.544128 128.857468
v 80.266647 58.496700 121.752937
v 79.062378 46.581543 128.987595
v 80.038544 57.957451 124.741615
v 88.165306 54.774082 120.737122
v 90.957024 46.587181 131.019394
v 207.150467 52.749557 120.618126
v 82.040916 50.690140 120.552803
v 84.049614 41.698700 128.995758
v 211.960526 50.101376 123.527534
v 86.141884 52.740204 120.521744
v 82.139343 52.644722 129.341583
v 86.140335 54.789017 120.558426
v 81.982140 43.630154 127.571213
v 197.839523 53.338291 123.156624
v 208.781860 60.017342 123.418343
v 211.176422 54.790775 126.021248
v 88.205765 48.644115 131.253616
v 76.505066 48.017967 123.741684
v 78.373909 50.573795 127.986732
v 86.506882 44.298756 128.072617
v 201.041626 57.130947 120.762238
v 203.049515 54.791698 120.535721
v 194.169678 50.034294 131.092438
v 81.971481 46.373539 125.576584
v 196.678940 44.515278 130.780930
v 86.046989 52.767910 130.074036
v 200.044296 52.616562 128.355789
v 200.192688 51.913944 126.475853
v 208.945740 50.967255 121.013069
v 84.050636 44.304470 126.943962
v 205.201294 48.867470 123.648613
v 208.561081 50.151993 129.003113
v 79.989113 54.790985 120.601257
v 86.728310 55.473244 126.459991
v 203.318726 49.414707 123.483597
v 84.091057 52.740074 120.508858
v 209.013184 54.578030 127.598030
v 201.533951 50.081467 122.931145
v 76.817474 48.005993 122.754097
v 79.240921 45.518612 127.324783
v 206.996582 56.646664 127.345428
v 86.011322 58.702877 121.716110
v 76.132042 54.734928 125.386536
v 195.434784 50.489525 130.956390
v 205.204208 46.465359 129.998978
v 84.019218 48.726498 120.954041
v 197.944778 45.246490 130.948730
v 202.460098 53.982105 129.315643
v 82.109161 58.617695 121.345085
v 86.696808 53.286942 128.854477
v 86.119774 57.096905 120.789734
v 207.106552 54.891258 128.015106
v 205.151413 54.889290 128.484528
v 91.094666 52.679466 123.176323
v 87.900574 56.883121 121.123558
v 78.307274 56.645519 121.218864
v 212.129135 56.095570 124.658913
v 201.139099 54.499031 128.448334
v 76.494911 57.323662 123.702843
v 210.543335 51.589569 121.213768
v 80.050026 57.049377 120.888733
v 91.085510 51.059505 122.313225
v 199.042221 44.238861 128.815521
v 84.324928 54.132977 129.038986
v 204.994797 56.904572 127.553909
v 84.166840 46.489727 126.018311
v 205.106018 59.046394 126.241463
v 199.867340 58.746342 121.867599
v 208.821014 48.573956 128.966354
v 80.346207 54.337982 127.694199
v 203.419067 44.631424 127.292160
v 88.592422 50.499714 124.807510
v 76.894882 49.399288 121.184776
v 90.856064 53.842030 122.172600
v 202.847137 40.578857 128.968750
v 196.418671 43.587738 130.438995
v 79.817451 47.096684 123.605980
v 201.123001 44.256031 128.091690
v 82.056480 58.635139 123.748970
v 89.208061 49.770737 121.332878
v 197.782944 54.787453 123.678627
v 195.176636 48.622890 131.191528
v 86.316803 48.770672 130.972748
v 203.042023 52.696556 129.746140
v 195.197739 46.633118 131.146103
v 90.198120 46.608639 131.145142
v 195.442444 50.493740 130.942963
v 207.153748 49.535069 121.096870
v 86.386871 51.951878 130.681717
v 201.470047 60.320763 121.312172
v 210.864716 58.597630 121.923409
v 207.275208 52.705059 128.827087
v 91.001495 48.522484 131.056152
v 206.419418 51.869633 129.398361
v 89.186958 56.059586 122.883148
v 88.180969 52.740616 120.650940
v 200.880997 50.753506 125.979401
v 91.011436 51.140858 122.966438
v 89.061455 43.478794 130.182709
v 80.848587 43.240879 128.663467
v 89.712547 54.494591 121.109634
v 91.156555 52.653244 122.178108
v 195.309540 46.577908 130.471130
v 201.445923 59.796513 125.028542
v 201.207230 40.552528 129.061874
v 203.285370 50.073936 122.031723
v 212.018845 50.168606 123.536430
v 85.216171 50.642052 130.895264
v 90.062729 50.804539 123.747200
v 85.830864 41.720726 128.787033
v 207.189636 45.581253 127.180115
v 85.930710 56.831112 125.786850
v 205.127136 50.903122 121.115227
v 79.909073 52.764587 128.383942
v 88.166862 50.724182 120.788261
v 209.604248 48.700062 128.280304
v 86.293182 44.466606 130.334595
v 212.206543 51.750111 122.433357
v 77.958000 50.703663 120.718544
v 89.134193 52.228256 124.919586
v 202.946609 42.378098 129.667419
v 84.006630 58.646679 123.659561
v 76.893303 57.783958 123.708679
v 79.461464 48.013786 121.286369
v 198.110641 50.649162 130.708359
v 196.577881 43.547058 130.483795
v 75.116966 54.291382 124.656570
v 79.238075 45.480862 128.838226
v 211.010025 54.783840 121.150467
v 200.974243 44.276314 130.305374
v 90.991287 45.034492 131.012039
v 80.253899 44.214531 128.136993
v 87.792267 46.703472 129.473465
v 90.719467 52.714001 121.452095
v 206.074524 41.436417 128.837708
v 90.084862 52.726852 121.026871
v 198.817276 42.362194 129.664612
v 195.777054 44.784470 130.733795
v 209.527664 59.384510 124.099129
v 87.945938 56.897755 123.559402
v 199.659058 53.118946 127.775948
v 87.140999 47.995861 123.263237
v 200.192062 51.954784 121.148094
v 207.152786 49.727829 120.996460
v 82.054024 58.118099 124.877167
v 86.582962 57.580303 124.190887
v 82.107063 46.622887 130.082718
v 211.562836 57.461239 124.318939
v 90.557121 50.343513 122.833443
v 212.547943 52.811920 123.749710
v 80.171555 44.998455 127.115013
v 80.009949 47.567230 121.896782
v 209.056808 49.418922 122.069855
v 78.424637 48.713150 128.124741
v 207.173264 59.134678 125.729301
v 89.670395 51.870308 131.097900
v 203.432312 46.534725 126.948181
v 83.901276 55.011761 128.390640
v 80.435089 58.252773 121.346970
v 87.358879 58.178837 121.614311
v 77.535049 48.484921 126.443291
v 203.092484 44.204090 130.059265
v 205.099854 57.134724 120.516197
v 208.213348 44.573071 128.618607
v 202.906891 40.607582 128.945114
v 75.517166 50.392857 121.655457
v 201.480042 60.527206 121.662216
v 86.586418 48.159214 124.608658
v 201.007889 48.636658 130.350006
v 78.489311 47.203960 126.144920
v 207.003082 48.646988 129.679413
v 195.379181 48.611675 130.528809
v 199.119980 50.456448 130.124313
v 205.044220 48.648121 130.122818
v 194.122009 48.629314 131.021332
v 84.113846 58.133518 124.901993
v 77.979355 54.754402 120.817307
v 199.066574 42.258778 128.921661
v 87.168594 54.061623 127.406197
v 199.860794 57.056618 121.195473
v 208.745041 60.148884 121.984108
v 203.040237 57.049519 127.697365
v 199.420593 41.176006 129.130295
v 78.595482 52.430134 127.603920
v 203.235291 61.077900 123.338043
v 89.651161 50.393547 130.916489
v 86.830635 46.866131 130.890274
v 86.140221 50.700954 120.645630
v 77.814789 57.254154 121.891479
v 80.114166 58.363300 123.687431
v 75.733505 55.228153 122.006271
v 82.468178 56.069817 127.275208
v 84.222336 56.165829 127.444519
v 78.024300 48.870426 120.984085
v 79.996559 48.694340 120.862953
v 202.994415 60.202843 125.060616
v 201.111069 56.852856 127.599571
v 90.984245 44.996067 130.981186
v 210.965759 57.098591 121.135796
v 201.018234 54.792309 120.690361
v 87.961418 51.669643 130.782410
v 89.079704 56.369732 121.718170
v 82.127762 58.833866 121.730736
v 83.162994 43.325356 127.380196
v 88.242424 46.639065 131.155228
v 84.217026 52.551418 129.885086
v 201.157166 51.384121 121.136475
v 207.022018 60.600044 123.727715
v 198.180023 48.637203 130.803802
v 207.030212 50.624001 129.559128
v 80.032982 56.980350 125.763702
v 87.959671 49.285522 121.184570
v 207.228790 46.661263 126.374084
v 75.185753 49.304852 123.850410
v 86.227921 48.245537 121.425888
v 204.026733 53.759182 129.196762
v 73.868912 53.416534 123.752007
v 87.962440 51.797512 130.407883
v 90.910324 53.681572 123.090332
v 196.964020 43.800732 130.266006
v 89.278984 52.781384 124.927376
v 76.016449 50.718300 125.799072
v 82.039726 54.790871 120.524094
v 84.180313 41.655499 128.662277
v 203.188339 48.610550 125.832039
v 212.269119 52.862331 124.884155
v 79.709572 55.305859 126.897827
v 208.352570 59.854908 121.125175
v 76.500107 57.329609 123.705429
v 87.421341 44.120731 128.911453
v 204.881195 41.227013 128.852951
v 86.624649 46.794708 128.596024
v 82.021530 48.699154 120.787956
v 82.305389 42.489666 128.529663
v 81.944168 47.949772 121.107841
v 198.487305 41.836304 129.300842
v 212.398895 52.854458 122.024277
v 76.379486 54.543091 121.276382
v 77.958374 52.737869 120.687820
v 205.191772 46.405159 126.474182
v 85.967896 42.369724 128.215103
v 205.099884 54.791069 120.509109
v 196.908783 42.907402 130.158157
v 80.265533 50.428535 129.327026
v 198.854340 52.791695 121.901031
v 205.417847 49.785152 121.933578
v 199.872299 56.285873 127.088570
v 90.984482 48.558453 131.054108
v 86.126617 47.749344 122.137688
v 77.336960 50.705284 126.921379
v 85.883339 47.462494 130.619034
v 75.697983 48.642269 123.766953
v 88.340538 50.707775 129.808914
v 199.104706 50.125996 130.158234
v 80.824112 52.124435 129.050110
v 86.110939 48.803070 121.037392
v 76.168892 52.719002 121.189644
v 89.923805 48.647366 130.514404
v 90.090363 54.793930 121.680779
v 87.175713 47.965378 122.349106
v 203.398163 61.530293 121.399643
v 87.582863 50.903637 128.460526
v 207.252640 57.645073 126.686646
v 205.103989 52.755230 120.660965
v 202.402908 46.718651 127.421326
v 203.156387 54.968819 128.714066
v 203.051300 52.760860 120.676315
v 202.039139 49.672836 125.919510
v 207.061539 44.288605 129.279953
v 89.176895 55.893684 121.235634
v 75.247490 49.590816 124.587044
v 194.175049 46.838692 130.998627
v 196.863251 50.647705 131.055069
v 89.961021 50.814095 121.160522
v 79.417442 51.368572 128.538177
v 84.251991 47.391956 123.763512
v 205.020493 50.618286 129.955643
v 86.108078 42.474243 129.521439
v 195.566971 52.046814 131.070374
v 197.868988 46.196060 129.299728
v 211.930573 51.206875 124.798508
v 86.079346 58.547878 121.243584
v 203.079086 51.024666 121.223938
v 89.317215 43.499725 130.232010
v 84.091019 54.790657 120.518150
v 211.587570 57.528164 121.694244
v 75.983162 52.721905 125.827316
v 205.947128 57.933472 126.867744
v 84.138306 44.322586 130.059937
v 80.191551 46.567516 129.557251
v 197.753128 42.576267 129.516754
v 85.893944 47.392624 130.620285
v 203.168610 59.095432 126.406586
v 198.544083 57.650616 124.277298
v 87.104729 58.018551 122.816483
v 85.674088 53.809887 129.253113
v 199.129700 48.948040 130.244003
v 207.975082 42.922626 128.795181
v 213.127060 54.834187 123.742607
v 206.603867 60.159126 124.814262
v 204.985733 44.305527 129.823486
v 201.206375 60.175133 123.422195
v 201.025650 50.673973 130.189087
v 206.873154 60.354153 121.112083
v 84.628723 42.829155 127.402679
v 76.329323 48.880096 125.249527
v 203.043579 48.636047 130.322205
v 211.982254 50.129906 123.561111
v 208.446854 56.047565 127.108162
v 199.446991 54.782284 121.094673
v 199.075150 46.599033 129.046188
v 197.819168 43.842072 129.442856
v 201.172073 50.643909 121.844032
v 82.044853 57.095238 120.761681
v 80.080612 48.579475 129.531616
v 78.780998 46.590870 128.321625
v 208.952621 58.839828 125.115234
v 205.066742 42.394920 128.124527
v 77.867889 48.245068 121.491127
v 207.140121 59.151871 120.738556
v 89.712463 43.752163 130.403671
v 78.080078 54.655499 126.435806
v 82.061203 57.070606 126.246307
v 200.513138 57.737404 126.720337
v 210.923508 56.837627 125.295280
v 87.364113 45.443325 128.909317
v 87.273262 50.012127 127.999634
v 73.671478 52.973572 123.740334
v 197.770630 51.675003 130.733902
v 79.989174 52.740280 120.522354
v 82.333435 42.523937 129.062164
v 198.861420 57.005215 121.991501
v 209.141312 59.110451 120.914284
v 202.085373 48.501472 127.172409
v 85.395164 42.914417 127.520073
v 207.967072 42.908634 128.811340
v 202.410065 58.317211 127.063202
v 198.371353 54.846191 126.645218
v 86.032066 47.744148 123.505905
v 73.644798 53.053249 123.748016
v 212.457306 56.742962 122.326630
v 77.955978 47.404388 123.838676
v 88.160782 50.622807 131.118637
v 211.890488 57.802364 123.004677
v 195.568756 52.043671 131.094894
v 75.437187 55.636494 123.141380
v 88.717720 55.172817 124.458328
v 201.089386 58.946331 126.042908
v 89.970581 54.650608 123.485008
v 204.296570 61.515179 121.363152
v 201.046844 42.377323 128.447678
v 201.602676 49.498001 127.199142
v 85.567566 44.294395 127.426010
v 210.313065 52.595161 127.286522
v 76.215881 48.920441 122.019630
v 205.010635 61.004597 123.608513
v 76.105469 56.736717 123.716713
v 203.052475 61.456089 121.858589
v 73.911858 53.372040 123.764572
v 210.070587 48.542336 127.493713
v 199.188354 52.904835 125.853943
v 207.067886 44.308064 127.831909
v 206.102036 41.453289 128.830109
v 208.166275 44.508018 128.752045
v 208.663498 46.666553 128.744797
v 82.834206 41.452980 129.017838
v 88.015556 48.888275 123.680450
v 200.965866 42.193394 129.707245
v 201.212189 40.545361 129.066498
v 90.534698 50.649136 121.609756
v 89.488594 43.657803 130.357742
v 212.496155 54.814777 122.271950
v 198.089783 56.235622 122.622063
v 84.089714 57.097775 120.738564
v 90.031578 46.643913 130.500443
v 89.667854 50.390682 130.855957
v 83.934746 42.227859 127.888771
v 82.167648 47.671902 121.527008
v 74.923561 51.009193 122.202232
v 213.327744 55.305798 123.417923
v 87.348907 52.646564 128.471207
v 201.094681 46.600597 128.058044
v 196.922272 50.554081 130.531754
v 203.035660 50.657475 130.193375
v 209.087936 47.250549 126.676155
v 77.253571 55.827251 121.296791
v 78.028969 56.757938 125.239784
v 81.441986 55.970432 127.010742
v 79.121735 48.472641 128.949753
v 199.877716 58.588631 125.144867
v 205.351685 53.357014 129.085510
v 82.144844 50.764679 129.907928
v 78.044502 47.636341 122.303795
v 212.689880 56.778206 123.506744
v 204.971222 47.986782 125.311935
v 79.990501 50.691898 120.571175
v 211.142807 50.891968 121.877716
v 207.152420 49.795837 120.960999
v 87.889526 50.990902 125.941116
v 89.673637 49.802902 123.183922
v 204.674423 44.839417 127.100761
v 199.781586 48.457829 129.218170
v 198.328659 54.858936 126.584785
v 204.883316 41.228012 128.794632
v 84.099655 58.574009 121.364250
v 90.950623 46.586536 131.017075
v 88.089363 48.747673 121.770340
v 84.100990 46.597942 130.402710
v 207.150513 54.791576 120.532555
v 73.425735 51.712990 123.765419
v 84.125450 42.470051 129.479050
v 199.692841 52.893421 121.085075
v 87.046143 58.244007 121.258911
v 199.648956 51.596786 123.627411
v 86.050964 54.693981 128.098541
v 209.462570 59.569180 121.673347
v 201.052200 48.625359 128.067108
v 202.254242 49.769466 123.902504
v 203.036255 46.594841 130.278625
v 201.505753 58.255539 126.945686
v 208.996902 46.421490 128.163177
v 85.928513 58.444649 123.304832
v 206.835083 47.720737 125.224113
v 205.052917 42.268742 129.327850
v 197.845184 54.636604 122.553703
v 200.503510 50.563683 127.990685
v 198.649658 52.661751 123.960220
v 199.935791 49.811504 129.003204
v 209.185364 52.758278 120.734062
v 198.603088 54.897751 121.660004
v 197.865616 56.775875 123.865028
v 82.116936 44.317650 129.679428
v 74.681549 52.711941 124.824631
v 88.145287 57.286312 121.942886
v 194.213821 46.758080 130.985428
v 89.948761 52.983383 124.248451
v 200.993515 52.713478 129.698883
v 87.819023 54.703388 125.779793
v 199.432114 58.752518 123.656181
v 203.050369 57.134392 120.547394
v 86.217224 50.650177 131.066696
v 204.923325 52.322628 129.606674
v 84.068230 48.096256 121.352081
v 82.040024 52.739964 120.500084
v 197.115295 46.630119 129.670410
v 85.261864 56.010559 127.260406
v 198.191788 46.756371 130.889954
v 203.052505 59.166382 120.704033
v 87.858612 48.371105 129.407227
v 204.972275 60.829239 121.132851
v 82.133362 44.582256 126.863670
v 88.286690 53.025551 125.846077
v 213.152390 56.141903 123.187263
v 209.179230 57.125866 120.714378
v 86.894722 48.303623 128.422729
v 198.078125 56.450096 124.859520
v 209.719315 47.242352 127.779762
v 194.171432 50.041306 131.051727
v 200.938797 50.450024 123.743690
v 76.726250 56.329498 124.807114
v 205.248749 44.051605 127.405533
v 85.894196 41.901649 128.976273
v 74.934135 55.049019 123.723190
v 201.099899 59.102676 120.921043
v 209.244156 52.671345 127.953133
v 87.238487 49.905994 126.312218
v 84.162521 47.725052 121.975983
v 209.385925 48.215473 125.401390
v 80.350273 44.527752 129.042053
v 87.497704 49.473942 128.809418
v 211.301895 52.742378 126.166077
v 84.018265 57.271530 126.047714
v 74.841324 52.690285 122.147270
v 210.202835 58.435444 121.139793
v 89.395866 43.614399 130.280029
v 196.916428 48.548878 130.108093
v 81.951218 47.157784 123.898705
v 203.079453 61.028671 121.146492
v 210.083542 54.075169 127.073837
v 201.780838 50.125534 122.242561
v 75.339760 55.705860 123.733398
v 204.846069 61.357689 121.629715
v 82.093346 48.614639 130.137711
v 199.000702 57.104198 125.901871
v 210.293610 50.885883 127.335709
v 84.042213 58.869812 121.909111
v 209.413162 50.218529 121.502396
v 84.292877 48.746777 130.579727
v 207.299835 48.542492 123.812225
v 201.023743 52.767197 120.763222
v 197.003143 52.111233 130.994003
v 88.501205 45.024029 130.789658
v 207.150040 57.133980 120.543137
v 209.185867 54.791233 120.666008
v 210.761932 58.646751 123.526138
v 89.681595 51.870987 131.073181
v 197.888565 53.337166 122.658806
v 202.772079 43.916718 127.608109
v 205.098724 59.168957 120.660416
v 81.000008 43.159290 128.851608
v 76.573631 56.409798 122.203506
v 207.040085 46.677090 129.580811
v 209.324326 50.826416 128.406723
v 81.837051 53.385029 128.865219
v 210.265015 58.177406 124.846252
v 79.975655 46.386600 125.743080
v 198.389648 54.849651 126.670815
v 209.211411 57.151031 126.259590
v 84.030083 50.672016 130.504471
v 199.395798 41.182831 129.109436
v 82.826653 41.457348 129.027863
v 198.844666 44.379993 130.563782
v 194.130539 48.615593 131.024414
v 211.754257 52.380714 121.547127
v 197.116562 52.106171 130.951462
v 74.729210 51.049458 124.774811
v 78.967491 57.972767 121.813629
v 84.215439 47.224274 124.942398
v 82.121941 54.841343 128.080734
v 196.852036 48.635830 131.200806
v 211.009644 52.791389 121.069855
v 209.631210 55.518093 126.783844
# 556 vertices, 0 vertices normals

f 86 71 499
f 284 53 195
f 288 460 61
f 252 530 190
f 367 450 262
f 161 321 467
f 440 127 282
f 534 503 365
f 481 32 331
f 4 100 552
f 47 238 485
f 350 188 423
f 43 141 342
f 279 10 177
f 224 11 93
f 446 177 241
f 176 294 373
f 512 384 295
f 482 124 498
f 7 275 144
f 31 404 308
f 169 34 1
f 17 315 342
f 547 137 206
f 433 106 500
f 377 51 475
f 377 220 13
f 261 245 357
f 345 436 331
f 338 215 25
f 18 242 334
f 240 123 142
f 174 146 180
f 162 15 36
f 437 541 372
f 126 86 499
f 19 229 158
f 379 525 307
f 75 343 71
f 174 329 468
f 156 520 76
f 529 182 539
f 244 128 126
f 142 117 326
f 257 70 319
f 437 372 395
f 465 518 490
f 1 370 396
f 399 103 150
f 512 295 201
f 332 398 198
f 133 312 151
f 105 495 435
f 390 516 242
f 396 198 145
f 239 51 120
f 89 316 85
f 426 543 522
f 70 44 319
f 120 13 440
f 227 146 480
f 209 116 119
f 53 188 195
f 411 64 238
f 311 244 205
f 317 524 241
f 341 418 208
f 252 410 530
f 19 158 186
f 398 399 455
f 230 219 18
f 23 43 431
f 504 483 287
f 469 172 137
f 511 552 310
f 354 488 367
f 373 26 202
f 488 233 367
f 495 274 435
f 102 214 8
f 432 63 178
f 400 42 258
f 531 279 459
f 418 311 208
f 178 63 40
f 412 477 80
f 383 236 293
f 406 333 414
f 31 308 114
f 252 287 410
f 371 382 327
f 298 40 276
f 491 24 22
f 484 338 25
f 418 118 311
f 223 535 420
f 441 114 246
f 473 138 424
f 341 337 418
f 477 290 80
f 387 54 266
f 104 20 356
f 227 506 146
f 109 199 30
f 261 421 245
f 69 514 72
f 413 389 200
f 240 60 123
f 209 57 116
f 118 29 82
f 153 229 430
f 115 437 395
f 412 501 477
f 553 422 226
f 284 256 321
f 36 324 503
f 366 344 214
f 540 376 204
f 408 85 439
f 465 407 366
f 118 82 300
f 368 302 386
f 331 5 164
f 187 43 23
f 216 454 371
f 268 47 166
f 104 538 148
f 351 173 529
f 463 555 528
f 130 44 149
f 365 400 545
f 87 86 126
f 537 394 150
f 20 218 284
f 300 216 87
f 453 5 203
f 207 61 92
f 325 346 254
f 429 457 523
f 251 497 374
f 474 197 482
f 231 358 454
f 206 510 417
f 348 257 319
f 301 56 234
f 254 59 546
f 368 386 460
f 526 221 239
f 472 68 146
f 103 66 537
f 245 421 11
f 233 375 320
f 404 136 168
f 176 202 401
f 60 449 84
f 286 52 73
f 187 23 431
f 89 194 447
f 551 223 90
f 67 95 90
f 296 433 361
f 185 540 204
f 140 147 317
f 161 391 77
f 547 492 57
f 486 381 470
f 120 440 165
f 340 195 204
f 181 517 442
f 53 148 309
f 59 81 546
f 522 142 326
f 10 241 177
f 427 73 52
f 14 91 333
f 166 15 503
f 317 147 301
f 362 305 248
f 409 232 39
f 484 354 338
f 219 390 18
f 518 358 231
f 140 280 147
f 404 96 136
f 445 312 496
f 541 92 61
f 156 456 210
f 246 114 149
f 274 145 247
f 140 69 65
f 79 536 303
f 121 417 313
f 261 357 422
f 355 165 232
f 517 426 522
f 388 50 505
f 457 419 502
f 110 277 325
f 554 243 481
f 406 414 375
f 206 417 121
f 96 132 136
f 370 332 198
f 284 218 53
f 225 391 380
f 47 485 185
f 529 428 182
f 140 514 69
f 395 541 175
f 104 148 218
f 415 472 486
f 389 353 228
f 446 524 344
f 188 204 195
f 176 401 441
f 335 303 34
f 288 207 337
f 439 76 520
f 187 431 521
f 118 300 250
f 86 75 71
f 403 30 28
f 63 521 94
f 109 438 199
f 310 373 283
f 100 26 552
f 367 508 125
f 362 444 393
f 394 519 17
f 327 101 99
f 372 518 281
f 174 383 381
f 194 76 316
f 87 75 86
f 323 442 151
f 45 98 240
f 284 195 256
f 373 294 283
f 303 536 398
f 327 18 101
f 170 168 135
f 544 270 217
f 77 20 321
f 141 271 152
f 217 403 139
f 459 407 465
f 319 46 408
f 497 391 515
f 333 428 487
f 174 180 456
f 377 123 235
f 139 199 385
f 211 420 272
f 154 470 143
f 358 382 454
f 420 535 272
f 133 318 509
f 12 438 352
f 186 427 376
f 115 459 465
f 67 211 364
f 289 426 278
f 21 291 507
f 268 258 411
f 67 90 211
f 346 97 314
f 419 491 22
f 258 144 411
f 101 18 189
f 197 527 533
f 57 78 116
f 137 254 479
f 362 393 374
f 268 365 545
f 401 106 434
f 141 184 271
f 419 22 24
f 341 208 79
f 75 297 542
f 74 204 15
f 279 448 10
f 479 331 510
f 13 127 440
f 67 364 478
f 289 45 426
f 532 299 416
f 101 297 322
f 186 158 353
f 392 336 201
f 12 385 199
f 139 403 28
f 533 527 354
f 347 72 514
f 518 231 281
f 366 102 473
f 278 426 517
f 179 156 210
f 79 208 536
f 437 490 518
f 38 89 85
f 376 52 204
f 63 94 463
f 167 483 326
f 247 419 457
f 142 123 475
f 458 335 34
f 495 1 396
f 537 499 519
f 276 40 443
f 7 496 133
f 306 209 119
f 303 398 332
f 104 356 261
f 338 367 262
f 287 292 410
f 206 479 510
f 247 455 419
f 106 486 154
f 19 186 269
f 2 222 70
f 193 35 551
f 362 374 444
f 283 294 441
f 431 342 141
f 368 460 451
f 462 451 460
f 452 302 259
f 196 5 453
f 299 368 451
f 554 307 243
f 145 198 455
f 162 503 15
f 145 455 247
f 318 405 167
f 483 409 292
f 271 184 406
f 369 54 387
f 181 442 323
f 7 133 318
f 71 343 542
f 31 183 96
f 155 402 164
f 225 535 391
f 555 271 163
f 433 500 361
f 499 71 388
f 7 264 54
f 383 253 88
f 67 478 257
f 143 132 183
f 504 287 296
f 417 32 288
f 210 9 146
f 417 207 549
f 469 547 209
f 465 490 437
f 411 339 64
f 116 78 554
f 525 363 159
f 50 359 91
f 273 272 291
f 213 449 68
f 40 463 443
f 392 219 336
f 285 326 117
f 196 164 5
f 239 221 117
f 393 374 497
f 244 537 66
f 429 247 457
f 533 354 484
f 264 360 266
f 288 436 462
f 118 250 476
f 327 230 18
f 458 34 169
f 266 326 489
f 12 532 112
f 189 242 49
f 214 234 55
f 12 112 385
f 540 511 111
f 550 467 256
f 155 458 265
f 429 523 65
f 153 430 273
f 411 144 275
f 301 298 56
f 439 316 76
f 50 260 505
f 216 99 87
f 383 293 253
f 415 60 84
f 8 498 124
f 304 293 236
f 254 546 171
f 232 165 39
f 143 470 132
f 415 287 252
f 318 526 405
f 306 16 172
f 89 447 316
f 20 284 321
f 118 476 311
f 225 27 272
f 407 464 366
f 534 365 268
f 526 239 355
f 377 13 51
f 121 379 78
f 345 416 436
f 483 292 287
f 53 278 188
f 184 14 333
f 485 64 58
f 408 46 85
f 134 166 503
f 171 546 402
f 121 313 379
f 212 139 385
f 96 183 132
f 396 370 198
f 98 192 449
f 424 138 382
f 32 203 5
f 275 54 369
f 83 520 237
f 409 39 292
f 216 327 99
f 168 136 108
f 430 267 41
f 439 85 316
f 71 542 556
f 511 4 552
f 280 178 147
f 364 41 478
f 235 252 190
f 205 244 103
f 268 545 258
f 509 405 355
f 469 209 306
f 413 248 389
f 211 90 420
f 293 108 253
f 186 511 412
f 56 298 276
f 410 127 220
f 43 342 141
f 436 451 462
f 365 503 466
f 301 234 524
f 279 177 446
f 354 367 338
f 423 278 349
f 280 65 523
f 211 272 273
f 512 201 124
f 263 93 391
f 346 212 97
f 532 105 191
f 53 309 278
f 224 35 113
f 286 389 248
f 381 383 470
f 372 281 541
f 36 423 324
f 158 229 353
f 318 151 526
f 249 441 246
f 375 414 487
f 393 413 507
f 2 290 222
f 421 263 93
f 466 324 181
f 389 228 107
f 184 333 406
f 501 310 283
f 453 203 341
f 335 79 303
f 417 288 207
f 40 63 463
f 349 517 181
f 331 436 32
f 217 402 403
f 261 356 421
f 405 355 232
f 6 502 24
f 35 237 113
f 98 449 330
f 166 185 74
f 544 217 139
f 489 361 500
f 192 227 449
f 410 282 127
f 348 319 408
f 75 322 297
f 362 248 413
f 331 32 5
f 89 304 236
f 436 416 451
f 269 80 267
f 301 147 298
f 167 409 483
f 258 42 144
f 166 74 15
f 529 378 428
f 48 279 531
f 102 201 336
f 305 340 248
f 443 463 528
f 56 474 55
f 174 129 383
f 170 404 168
f 433 486 106
f 492 78 57
f 193 348 83
f 477 283 249
f 229 269 267
f 423 188 278
f 78 307 554
f 488 163 233
f 6 24 43
f 99 322 75
f 250 425 476
f 288 462 460
f 392 295 516
f 172 254 137
f 299 451 416
f 531 459 115
f 265 458 169
f 35 93 551
f 497 507 27
f 225 272 535
f 32 436 288
f 512 484 384
f 254 314 479
f 546 81 331
f 264 318 167
f 313 417 549
f 333 487 414
f 88 253 108
f 99 101 322
f 325 270 544
f 509 355 405
f 153 228 229
f 405 232 409
f 299 191 259
f 67 257 95
f 536 205 399
f 105 435 191
f 111 511 186
f 313 525 379
f 26 401 202
f 468 236 129
f 318 405 509
f 140 347 514
f 289 278 148
f 116 554 33
f 397 169 1
f 82 92 300
f 235 60 252
f 149 114 308
f 37 113 179
f 212 385 97
f 388 513 50
f 532 416 112
f 280 523 432
f 16 277 110
f 467 321 256
f 196 453 335
f 521 431 94
f 31 96 404
f 196 335 458
f 48 115 461
f 528 163 488
f 365 42 400
f 325 544 212
f 491 394 24
f 239 117 51
f 437 518 372
f 441 401 434
f 528 555 163
f 453 341 79
f 470 383 88
f 340 204 52
f 229 228 353
f 324 349 181
f 224 37 11
f 279 446 464
f 134 534 268
f 469 306 172
f 220 190 530
f 497 515 391
f 441 31 114
f 455 150 491
f 518 424 358
f 546 164 402
f 189 49 351
f 431 141 152
f 365 466 445
f 484 25 516
f 56 55 234
f 368 259 302
f 305 256 340
f 317 241 347
f 119 33 59
f 167 285 266
f 71 513 388
f 263 494 391
f 504 489 483
f 421 494 263
f 478 70 257
f 489 326 483
f 340 286 248
f 529 125 378
f 141 315 260
f 95 348 193
f 153 273 291
f 288 337 203
f 109 402 155
f 59 33 81
f 49 215 529
f 504 296 489
f 393 251 374
f 395 61 62
f 432 6 187
f 485 58 540
f 288 61 207
f 69 493 452
f 27 507 291
f 412 310 501
f 411 275 339
f 506 210 146
f 510 32 417
f 222 246 149
f 242 25 49
f 17 505 260
f 82 29 92
f 134 503 534
f 102 8 201
f 313 549 525
f 516 25 242
f 461 395 448
f 377 235 220
f 58 100 4
f 432 178 122
f 532 495 105
f 544 139 212
f 542 359 50
f 3 489 26
f 159 363 207
f 93 157 391
f 472 146 174
f 518 328 473
f 340 52 286
f 453 79 335
f 245 37 357
f 526 355 405
f 268 411 47
f 296 415 433
f 345 112 416
f 338 262 215
f 151 285 221
f 17 260 315
f 103 537 150
f 362 550 305
f 466 181 323
f 230 138 336
f 308 404 170
f 167 405 409
f 100 3 26
f 262 450 215
f 12 199 438
f 519 505 17
f 77 421 356
f 413 200 21
f 357 179 506
f 469 137 547
f 527 488 354
f 230 336 219
f 339 275 369
f 260 14 184
f 542 50 556
f 413 21 507
f 90 223 420
f 101 189 297
f 259 274 429
f 31 434 183
f 432 523 6
f 216 231 454
f 211 273 364
f 432 122 178
f 344 524 234
f 33 481 81
f 265 169 397
f 359 428 91
f 459 279 464
f 77 356 20
f 472 381 486
f 482 512 124
f 549 363 525
f 442 285 151
f 365 445 42
f 536 399 398
f 216 371 327
f 110 325 254
f 107 228 21
f 366 214 102
f 350 423 36
f 340 256 195
f 32 243 288
f 543 240 142
f 415 252 60
f 389 73 427
f 497 380 391
f 550 256 305
f 355 120 165
f 459 464 407
f 501 283 477
f 371 454 382
f 418 471 118
f 37 179 357
f 136 88 108
f 465 328 518
f 484 516 384
f 482 197 533
f 174 468 129
f 375 487 428
f 283 441 249
f 482 533 512
f 277 254 171
f 187 521 63
f 292 39 282
f 60 330 449
f 89 236 468
f 395 62 131
f 393 467 550
f 450 125 529
f 412 80 269
f 106 143 434
f 137 479 206
f 474 482 498
f 64 369 387
f 448 493 347
f 131 62 61
f 325 171 270
f 448 131 493
f 424 382 358
f 352 1 495
f 359 539 182
f 48 531 115
f 389 107 21
f 140 317 347
f 477 249 290
f 357 506 227
f 133 151 318
f 267 80 41
f 146 9 180
f 526 151 221
f 546 331 164
f 233 125 508
f 295 384 516
f 393 444 374
f 117 475 51
f 527 528 488
f 418 337 471
f 471 92 29
f 461 448 279
f 217 171 402
f 18 334 189
f 172 110 254
f 39 440 282
f 466 323 445
f 553 227 192
f 547 206 492
f 141 260 184
f 311 476 244
f 367 233 508
f 174 456 329
f 415 84 449
f 259 429 65
f 518 473 424
f 497 391 161
f 360 167 266
f 437 372 541
f 302 493 131
f 207 92 471
f 359 182 428
f 111 186 376
f 383 129 236
f 97 385 112
f 87 99 75
f 13 220 127
f 115 465 437
f 499 388 519
f 553 98 538
f 452 493 302
f 264 167 360
f 348 408 83
f 376 427 52
f 33 554 481
f 71 556 513
f 223 263 535
f 298 178 40
f 250 87 425
f 522 326 285
f 299 259 368
f 445 323 312
f 460 131 61
f 553 226 227
f 97 345 314
f 547 57 209
f 318 509 405
f 89 468 194
f 95 257 348
f 300 87 250
f 135 293 304
f 395 372 541
f 16 59 160
f 344 234 214
f 104 218 20
f 165 440 39
f 227 480 449
f 519 388 505
f 191 435 274
f 45 538 98
f 109 265 438
f 317 301 524
f 78 379 307
f 34 332 370
f 276 443 197
f 176 441 294
f 109 155 265
f 367 125 450
f 113 520 156
f 426 240 543
f 24 17 43
f 432 187 63
f 97 112 345
f 286 73 389
f 431 548 555
f 485 540 185
f 207 471 337
f 163 271 406
f 49 529 173
f 310 26 373
f 350 36 15
f 134 268 166
f 222 149 44
f 43 342 431
f 6 43 187
f 310 552 26
f 80 290 2
f 47 185 166
f 155 196 458
f 433 415 486
f 43 17 342
f 264 266 54
f 87 126 425
f 327 138 230
f 223 93 263
f 551 93 223
f 446 241 524
f 69 72 493
f 296 287 415
f 100 387 3
f 197 443 527
f 28 30 199
f 133 496 312
f 486 255 154
f 431 555 94
f 64 387 100
f 351 539 359
f 464 446 344
f 214 55 8
f 443 528 527
f 83 408 439
f 517 522 442
f 455 491 419
f 274 247 429
f 106 154 143
f 118 471 29
f 426 45 240
f 113 237 520
f 485 238 64
f 351 49 173
f 172 16 110
f 16 119 59
f 3 266 489
f 542 351 359
f 476 425 128
f 456 180 9
f 307 525 159
f 333 91 428
f 278 309 148
f 51 13 120
f 32 288 203
f 500 106 401
f 290 246 222
f 415 449 213
f 186 412 269
f 277 59 254
f 541 281 231
f 27 291 272
f 263 391 93
f 224 93 35
f 210 456 9
f 163 406 233
f 386 131 460
f 193 551 90
f 438 265 397
f 497 225 380
f 474 276 197
f 553 192 98
f 421 93 11
f 362 393 550
f 522 543 142
f 229 267 430
f 297 189 542
f 476 128 244
f 56 276 474
f 419 24 502
f 352 397 1
f 479 345 331
f 449 480 146
f 93 391 157
f 130 46 44
f 300 92 231
f 540 111 376
f 430 41 364
f 130 38 46
f 470 88 132
f 162 36 503
f 261 422 553
f 115 395 461
f 10 347 241
f 393 497 467
f 233 406 375
f 150 394 491
f 306 119 16
f 240 98 330
f 233 320 125
f 58 64 100
f 431 271 548
f 510 331 32
f 357 226 422
f 425 126 128
f 473 102 336
f 235 123 60
f 12 352 532
f 69 452 259
f 25 215 49
f 139 28 199
f 273 430 364
f 26 500 401
f 342 315 141
f 194 456 76
f 194 329 456
f 541 231 92
f 205 103 399
f 38 85 46
f 285 326 266
f 249 246 290
f 58 4 511
f 208 311 205
f 155 164 196
f 472 174 381
f 512 533 484
f 393 507 497
f 153 21 228
f 492 121 78
f 7 318 264
f 479 314 345
f 556 50 513
f 19 269 229
f 532 352 495
f 235 190 220
f 497 161 467
f 41 2 478
f 296 361 489
f 208 205 536
f 319 44 46
f 465 366 473
f 193 83 237
f 41 80 2
f 148 538 45
f 341 203 337
f 423 349 324
f 349 278 517
f 191 274 259
f 89 135 304
f 119 116 33
f 142 475 117
f 154 255 470
f 130 308 170
f 523 502 6
f 77 391 494
f 293 168 108
f 478 2 70
f 16 160 277
f 83 439 520
f 300 231 216
f 130 149 308
f 497 27 225
f 495 145 274
f 473 336 138
f 465 473 328
f 245 11 37
f 53 218 148
f 189 351 542
f 81 481 331
f 104 553 538
f 270 171 217
f 449 146 68
f 140 65 280
f 389 427 353
f 224 113 37
f 130 170 38
f 325 212 346
f 392 516 390
f 47 411 238
f 58 511 540
f 357 227 226
f 495 396 145
f 50 91 14
f 244 66 103
f 362 413 393
f 327 382 138
f 377 475 123
f 153 291 21
f 1 34 370
f 167 326 285
f 532 191 299
f 244 126 537
f 285 117 221
f 104 261 553
f 69 259 65
f 323 151 312
f 113 156 179
f 185 204 74
f 288 159 207
f 442 522 285
f 239 120 355
f 448 347 10
f 64 339 369
f 176 373 202
f 386 302 131
f 392 201 295
f 350 15 204
f 389 21 200
f 325 277 171
f 393 497 251
f 307 159 243
f 292 282 410
f 95 193 90
f 277 160 59
f 213 68 472
f 77 494 421
f 280 432 178
f 125 320 375
f 415 213 472
f 70 222 44
f 38 170 135
f 463 94 555
f 351 529 539
f 8 55 498
f 441 434 31
f 537 519 394
f 474 498 55
f 464 344 366
f 147 178 298
f 156 76 456
f 395 131 448
f 493 72 347
f 48 461 279
f 42 496 144
f 492 206 121
f 431 152 271
f 24 394 17
f 455 399 150
f 198 398 455
f 26 489 500
f 240 330 60
f 34 303 332
f 392 390 219
f 7 144 496
f 254 346 314
f 193 237 35
f 38 135 89
f 109 403 402
f 412 511 310
f 545 400 258
f 194 468 329
f 186 353 427
f 289 148 45
f 189 334 242
f 434 143 183
f 132 88 136
f 350 204 188
f 466 503 324
f 50 14 260
f 161 77 321
f 75 542 343
f 7 54 275
f 410 220 530
f 215 450 529
f 8 124 201
f 549 207 363
f 179 210 506
f 135 168 293
f 438 397 352
f 395 175 61
f 42 445 496
f 263 391 535
f 375 428 378
f 541 61 175
f 555 548 271
f 126 499 537
f 486 470 255
f 133 509 318
f 481 243 32
f 447 194 316
f 457 502 523
f 18 390 242
f 109 30 403
f 243 159 288
f 125 375 378
f 387 266 3
# 1128 faces, 0 coords texture

# End of File