####
#
# OBJ File Generated by Meshlab
#
####
# Object domain138.obj
#
# Vertices: 313
# Faces: 632
#
####
v 160.589493 444.194305 154.328369
v 162.110458 426.277802 149.688980
v 166.272049 446.325470 148.914429
v 165.955215 441.203888 139.999664
v 164.949509 446.672424 149.988968
v 164.945023 426.451416 151.185791
v 159.386185 437.607758 145.279358
v 164.984329 426.187500 150.012802
v 162.998016 427.323914 151.540527
v 162.597885 447.360199 143.199966
v 166.826584 437.424561 141.261703
v 167.846741 428.551422 150.751419
v 160.893784 430.626099 135.773453
v 166.932510 435.402710 151.804184
v 166.905746 433.336029 145.457047
v 162.003937 445.939209 141.476349
v 159.596191 431.002075 141.482910
v 161.435837 439.851715 153.761612
v 161.366058 433.199432 151.866821
v 164.599548 443.658325 139.494171
v 160.835632 427.886017 145.435211
v 164.127701 447.630402 141.385895
v 159.757263 431.002167 145.981247
v 164.283234 444.887238 156.943130
v 162.680344 445.586273 154.319855
v 162.507690 437.269745 136.742477
v 162.969666 442.652313 138.756241
v 166.978256 439.495056 145.800690
v 165.837601 428.085297 143.162079
v 166.467682 445.790375 149.562347
v 167.784561 426.430573 149.765289
v 159.410446 437.660065 145.323151
v 159.404221 438.974030 145.267212
v 164.963593 428.970428 153.110138
v 163.029526 431.291626 153.019882
v 166.540817 445.821930 147.574280
v 166.347931 443.776367 143.400238
v 160.322861 443.829926 145.518005
v 164.931244 437.444061 153.931183
v 159.378387 431.001740 143.526123
v 167.033310 428.972198 147.807297
v 161.515030 436.536469 136.004944
v 159.429520 439.299316 145.292679
v 167.306580 433.253815 141.152039
v 167.277435 437.447632 149.522385
v 159.565216 428.971558 143.495895
v 159.578583 429.622467 144.873917
v 162.662735 447.156738 147.457809
v 161.682800 435.669006 153.100922
v 166.873062 427.241913 151.229279
v 161.234283 446.737549 145.427704
v 161.919312 433.631531 152.865128
v 167.236755 441.542969 149.504639
v 164.256104 444.863098 156.958923
v 160.264313 433.311981 147.709396
v 165.388504 445.896301 141.322830
v 160.606049 445.027802 154.485168
v 159.789108 429.156219 137.803162
v 163.997208 441.208649 138.282761
v 159.437561 433.431763 143.104752
v 159.412430 439.227142 145.278946
v 161.775009 441.448608 139.215576
v 164.775894 444.033691 155.919861
v 162.602585 427.936249 139.197372
v 166.991791 435.412567 141.387985
v 165.630432 436.251678 138.182419
v 160.435974 427.873627 143.199387
v 166.624924 439.377747 141.213684
v 165.747772 444.877014 155.507202
v 159.514771 440.724335 145.314957
v 161.675980 431.203186 151.737564
v 162.914154 441.291260 138.227966
v 164.941849 426.246552 149.229736
v 165.820465 444.614258 155.456039
v 159.999542 439.492798 143.222061
v 161.688675 444.305237 141.052856
v 164.877792 447.120544 147.479797
v 161.656082 436.465088 135.937668
v 160.195511 437.457001 147.628235
v 162.594986 438.926178 154.932434
v 164.894806 428.095886 139.284378
v 163.534821 447.661896 140.519241
v 167.267731 431.103790 141.226822
v 160.776245 428.158234 141.622070
v 164.202011 439.254272 137.817902
v 164.814850 445.559540 154.353531
v 167.183914 430.993134 147.746552
v 159.731705 433.346558 145.988235
v 162.675461 438.359985 154.918610
v 167.320419 433.319550 149.554810
v 164.869659 426.783905 147.634094
v 160.758026 428.441254 139.569412
v 161.153641 428.986053 149.497452
v 166.537628 426.627411 150.829208
v 167.296005 435.312286 149.491837
v 161.483871 428.897736 133.833115
v 160.721771 444.960358 154.854980
v 166.070480 439.552795 153.353058
v 164.637955 439.618408 154.434982
v 159.803604 430.996552 138.990921
v 166.950882 437.419098 145.477997
v 163.187088 447.664062 141.504822
v 160.704117 435.555420 149.697968
v 159.452209 433.377533 145.069336
v 166.675797 443.858734 145.654556
v 164.831940 445.025787 155.909332
v 165.999451 443.764038 154.363205
v 165.774231 427.747284 145.741028
v 166.198715 435.421600 152.871719
v 160.282196 435.304535 139.144730
v 166.039627 443.867615 141.465179
v 165.471298 444.613098 140.722870
v 162.727524 426.847534 147.566269
v 160.783905 445.812256 147.589874
v 162.864975 445.003601 155.736404
v 166.917557 437.454590 143.190948
v 160.210571 428.997314 135.976776
v 163.836533 428.123535 152.841660
v 161.537048 445.647278 142.053085
v 166.123444 439.462219 139.680527
v 165.669525 445.065826 154.277847
v 162.690536 446.631653 149.961777
v 167.457596 430.976105 149.543777
v 167.168472 433.357025 147.748367
v 166.481827 428.986053 145.492676
v 162.610428 446.898743 149.171463
v 166.964478 437.436035 151.712189
v 163.456406 429.133759 152.956787
v 161.450211 428.789581 134.579712
v 165.992050 445.900208 143.992523
v 165.575729 437.435730 138.366348
v 159.412125 436.261230 145.377426
v 166.920181 435.224915 145.330215
v 161.522324 446.524048 148.695221
v 166.818130 439.501312 143.173004
v 162.565582 428.987244 152.286484
v 163.040009 435.735992 136.302139
v 161.463852 437.072937 136.921707
v 160.524841 439.554016 141.285004
v 167.003098 433.336395 143.350571
v 164.391129 437.361572 137.462280
v 167.827850 429.128510 149.682800
v 166.496216 435.327057 139.327026
v 160.918701 439.512146 151.978394
v 162.555801 430.906891 135.585907
v 161.196793 435.388062 152.075974
v 166.242096 445.869110 145.726334
v 161.052200 437.538788 152.025986
v 159.754120 445.056000 154.810196
v 164.843292 427.496887 143.265442
v 160.715927 437.344177 139.026077
v 167.118027 435.397400 147.473846
v 163.205460 445.723633 140.166275
v 162.276489 430.540344 152.409866
v 161.302063 435.235748 136.175751
v 161.051605 441.743134 154.090454
v 163.316925 426.514313 150.848618
v 164.519836 427.871002 152.861008
v 166.871017 430.971771 151.909546
v 166.374634 428.463898 141.394730
v 162.002655 427.701202 150.802032
v 164.822510 435.473236 153.601288
v 159.775177 429.329285 136.399811
v 162.592667 428.184479 138.035782
v 160.894516 435.256897 136.735550
v 160.801941 441.543457 151.986206
v 167.978531 428.623596 150.103577
v 159.622406 435.497375 143.280045
v 166.712158 443.792572 151.887192
v 167.146179 437.467957 147.472015
v 166.799408 429.129883 141.398285
v 159.743454 430.163147 136.587982
v 166.542908 429.116638 139.012680
v 167.730896 432.152100 140.135666
v 162.561432 428.599182 136.501328
v 164.829269 446.029297 152.010071
v 164.893723 427.740631 141.541580
v 165.841675 429.248047 138.058060
v 166.900833 433.356171 151.834549
v 162.103577 426.283447 149.687439
v 166.881912 431.013184 139.202667
v 167.140045 439.401520 147.440216
v 166.050476 429.739685 152.776794
v 164.735886 435.268463 137.155258
v 160.010193 433.392883 138.976044
v 160.765915 443.888794 149.581055
v 166.369308 441.588562 141.430695
v 167.790054 426.436127 149.765289
v 160.682312 437.403229 149.733917
v 161.207413 443.607544 141.592728
v 161.261353 433.048157 136.061325
v 159.415268 433.156342 143.850800
v 161.124664 446.554291 147.331619
v 166.842804 430.997070 145.458725
v 162.139618 442.915283 139.400452
v 163.707138 429.356476 136.013824
v 167.790985 426.429260 149.774307
v 165.066269 431.063232 136.940979
v 163.772491 432.802979 136.103760
v 160.726654 429.025635 147.717194
v 160.299545 441.634369 143.212265
v 163.900436 430.793488 135.997681
v 162.878647 443.973969 155.961655
v 164.785095 433.436401 136.836914
v 167.737335 432.386749 140.157089
v 164.266708 442.138458 155.311523
v 165.222488 439.541779 138.566696
v 166.670120 441.418091 143.319122
v 163.607956 444.860016 156.847427
v 166.502853 429.022186 143.265930
v 166.861496 433.285797 139.326324
v 160.196640 435.462189 147.584244
v 165.469574 446.775970 144.247726
v 160.247849 441.550262 147.697968
v 162.274231 435.200409 135.955673
v 166.950653 435.312225 143.284866
v 160.829605 441.463928 141.400848
v 163.666489 444.807770 156.897293
v 161.695816 446.992065 144.022354
v 159.679153 445.118011 154.861938
v 165.561569 443.461395 140.313309
v 159.875870 435.250061 141.473434
v 166.929520 444.011597 147.519531
v 162.616760 438.828613 154.945557
v 160.970673 430.996399 149.686417
v 161.421112 428.903229 133.849915
v 160.628128 439.502838 149.599258
v 161.420013 427.631348 147.539413
v 161.601898 445.302887 152.151520
v 160.551865 433.386749 136.859711
v 162.637207 427.585358 141.515244
v 165.841568 445.810364 143.109314
v 162.727844 433.427826 153.348312
v 162.678055 447.340881 145.422577
v 161.765610 429.103790 151.191956
v 160.793091 433.221466 149.647781
v 167.123367 441.548370 147.532074
v 167.290131 439.498901 149.509277
v 164.693893 433.371582 153.410034
v 161.020477 444.168457 155.046341
v 159.916016 430.961151 136.831848
v 164.995804 427.229919 152.279694
v 162.514816 433.243439 135.753967
v 159.983887 429.085999 141.495865
v 166.123917 431.218384 152.781036
v 166.917465 430.999084 143.343658
v 162.751358 446.034851 152.024231
v 166.914673 441.608673 151.893005
v 164.810150 427.185242 145.595718
v 163.753632 448.321777 140.871857
v 160.475113 428.853027 136.524246
v 164.716873 429.180176 137.151962
v 161.656540 437.620758 153.440125
v 162.631104 427.323212 143.220169
v 164.946167 441.600220 138.932220
v 162.590988 438.845123 154.899918
v 167.026093 443.843994 149.512085
v 160.470825 443.877167 147.651886
v 166.128098 441.489197 153.670029
v 163.798065 447.479980 140.489227
v 161.867188 438.840118 137.640656
v 162.782990 443.834412 139.395065
v 166.208344 433.373230 152.767593
v 161.367233 428.791351 134.583023
v 166.487198 427.427948 147.984772
v 164.891968 428.475708 138.187042
v 159.393387 436.740875 145.323807
v 164.925003 446.902191 149.159302
v 164.806595 431.096558 153.212769
v 159.420380 434.761169 144.064636
v 166.105728 446.525757 147.642441
v 162.616394 439.476105 137.667099
v 164.811371 447.219330 145.501480
v 165.739090 445.252594 141.724304
v 161.805374 446.517517 142.516327
v 166.120789 437.610077 153.095810
v 159.474365 431.003632 144.916550
v 167.062286 429.058258 151.934906
v 162.676559 427.094818 145.552216
v 161.434906 445.811890 149.613235
v 161.329727 439.649170 139.055374
v 159.693558 429.044342 142.579224
v 164.717072 447.159698 143.411743
v 159.698486 433.342377 141.496445
v 160.220825 439.502441 147.705261
v 159.803680 437.449432 143.173218
v 163.504791 448.509857 140.720154
v 166.957733 439.491241 151.723068
v 162.691559 441.824371 155.341690
v 162.680634 435.496735 153.598358
v 160.009384 428.950745 138.700668
v 159.462723 431.008118 142.512497
v 160.690842 445.803223 145.352936
v 160.376053 431.001892 147.830048
v 166.378830 428.666046 139.642609
v 161.027374 445.787018 143.535461
v 160.887619 443.847900 151.990295
v 161.466431 441.969635 154.751785
v 160.604141 441.549530 149.595413
v 165.186523 441.560883 154.666443
v 165.597244 428.247131 152.624893
v 159.953201 429.032501 145.515091
v 163.486710 448.451508 140.696655
v 166.904724 441.553650 145.815659
v 166.121567 445.271545 151.590729
v 166.350357 437.379608 139.577301
v 164.256790 445.576782 140.172607
v 160.066116 428.102295 143.644226
v 160.224487 437.580963 141.270981
v 162.097961 426.282867 149.693832
v 165.690155 446.794739 145.928482
v 160.670868 443.869720 143.342941
v 167.751846 427.662872 150.671341
# 313 vertices, 0 vertices normals

f 114 293 193
f 270 132 192
f 243 204 215
f 34 128 35
f 216 11 65
f 121 305 169
f 183 245 159
f 43 33 61
f 186 258 114
f 283 232 130
f 224 256 18
f 40 282 292
f 29 210 171
f 163 129 172
f 67 21 279
f 86 176 121
f 82 307 260
f 303 82 260
f 295 173 266
f 2 157 6
f 184 66 141
f 273 311 271
f 267 212 55
f 148 18 253
f 284 185 110
f 303 260 250
f 127 276 288
f 33 75 201
f 203 115 209
f 37 105 147
f 308 67 46
f 216 116 11
f 197 265 91
f 282 244 17
f 196 264 252
f 245 263 179
f 57 115 97
f 157 9 6
f 272 26 141
f 129 251 175
f 109 276 127
f 305 30 257
f 79 32 285
f 85 207 59
f 115 25 106
f 312 296 293
f 124 87 123
f 213 130 311
f 216 133 101
f 37 232 274
f 301 34 278
f 249 108 150
f 269 34 35
f 221 4 111
f 141 131 85
f 50 242 278
f 9 136 128
f 291 100 17
f 102 22 283
f 201 190 312
f 263 109 14
f 304 182 237
f 99 300 98
f 63 218 54
f 200 302 23
f 196 202 145
f 52 19 49
f 231 254 150
f 82 153 307
f 227 285 214
f 203 289 240
f 112 221 111
f 239 35 233
f 14 95 90
f 64 92 291
f 249 279 91
f 203 240 97
f 273 213 311
f 194 125 87
f 15 124 152
f 39 224 99
f 80 206 99
f 26 184 141
f 202 199 243
f 56 112 111
f 29 108 125
f 231 150 177
f 26 137 184
f 56 111 274
f 198 173 181
f 168 222 309
f 152 95 45
f 267 32 79
f 156 18 166
f 248 169 53
f 162 39 109
f 159 245 179
f 156 166 297
f 254 231 84
f 207 255 59
f 132 267 104
f 260 307 22
f 113 73 91
f 268 48 77
f 126 134 193
f 107 121 169
f 281 272 62
f 11 116 68
f 145 202 243
f 20 56 307
f 32 33 285
f 110 151 309
f 153 20 307
f 281 261 272
f 169 305 257
f 129 117 251
f 289 80 298
f 129 226 264
f 175 251 164
f 165 191 155
f 238 45 288
f 133 152 170
f 179 263 14
f 164 64 81
f 275 219 296
f 142 197 188
f 259 300 107
f 185 165 110
f 237 182 53
f 267 132 32
f 302 308 46
f 81 64 177
f 46 67 282
f 98 248 288
f 111 37 274
f 4 187 111
f 230 13 191
f 130 147 311
f 66 184 143
f 115 203 97
f 2 8 73
f 179 14 90
f 247 122 176
f 197 31 50
f 291 241 100
f 309 281 139
f 80 289 206
f 241 13 230
f 244 291 17
f 254 279 249
f 290 239 233
f 140 246 15
f 29 160 177
f 241 230 185
f 247 280 122
f 254 249 150
f 18 156 298
f 101 133 170
f 235 93 71
f 80 18 298
f 229 247 25
f 302 47 23
f 81 295 266
f 150 29 177
f 236 19 71
f 88 294 23
f 74 106 69
f 8 197 73
f 46 40 277
f 264 129 175
f 143 211 65
f 206 63 300
f 256 224 80
f 68 116 135
f 212 103 55
f 103 189 148
f 183 269 245
f 67 84 244
f 105 304 237
f 58 241 291
f 256 290 253
f 35 52 233
f 239 269 35
f 118 128 158
f 123 179 90
f 182 238 53
f 117 163 251
f 48 273 77
f 52 49 233
f 234 10 273
f 99 206 300
f 256 224 89
f 116 216 101
f 184 211 143
f 153 262 20
f 122 268 5
f 284 60 292
f 9 118 242
f 229 25 57
f 197 50 313
f 63 54 106
f 168 270 60
f 312 119 296
f 209 115 24
f 173 171 83
f 280 186 114
f 271 311 36
f 201 312 38
f 190 195 262
f 310 180 9
f 210 246 83
f 2 310 157
f 21 308 302
f 69 106 121
f 54 209 24
f 135 116 28
f 98 300 259
f 14 109 127
f 286 168 309
f 60 192 292
f 311 147 36
f 13 241 172
f 131 66 143
f 310 2 73
f 102 82 303
f 13 129 264
f 248 238 288
f 1 229 57
f 278 34 183
f 231 64 92
f 176 122 5
f 112 20 221
f 158 128 34
f 93 225 71
f 137 78 215
f 42 78 26
f 142 188 167
f 15 194 124
f 34 269 183
f 102 287 22
f 185 284 100
f 272 72 62
f 210 29 125
f 20 255 4
f 50 94 242
f 277 88 23
f 235 71 154
f 255 120 4
f 280 134 126
f 211 181 174
f 1 149 240
f 103 236 55
f 140 216 65
f 72 272 85
f 41 197 142
f 242 118 158
f 113 21 228
f 67 254 84
f 300 63 107
f 219 234 51
f 292 282 17
f 129 13 172
f 246 194 15
f 144 227 166
f 207 306 120
f 265 197 41
f 165 155 138
f 54 24 106
f 33 70 43
f 39 99 98
f 146 148 253
f 232 56 274
f 295 160 171
f 32 7 61
f 20 27 255
f 231 92 84
f 148 189 144
f 9 128 118
f 170 45 238
f 173 295 171
f 25 115 57
f 133 15 152
f 28 182 304
f 273 10 283
f 163 129 117
f 30 223 257
f 164 251 291
f 3 77 271
f 199 202 198
f 10 102 283
f 87 41 142
f 269 239 245
f 108 265 41
f 5 3 30
f 94 31 8
f 104 88 277
f 301 242 158
f 281 62 139
f 264 175 252
f 130 37 147
f 203 209 218
f 119 76 16
f 139 62 217
f 267 168 286
f 299 227 214
f 187 120 68
f 33 7 61
f 225 236 71
f 24 115 106
f 102 303 287
f 162 256 39
f 18 256 253
f 113 310 73
f 306 143 11
f 188 197 313
f 293 51 193
f 252 175 266
f 225 294 55
f 105 223 36
f 116 101 28
f 138 281 151
f 223 237 257
f 26 261 138
f 278 159 142
f 210 125 194
f 42 26 138
f 212 267 79
f 95 124 90
f 219 10 234
f 155 243 215
f 173 178 266
f 294 200 23
f 282 67 244
f 16 153 102
f 56 232 283
f 146 103 148
f 313 50 12
f 10 275 102
f 279 21 113
f 218 209 54
f 19 52 71
f 95 14 127
f 191 145 243
f 195 72 27
f 21 302 228
f 287 22 250
f 62 72 195
f 60 270 192
f 43 33 201
f 152 124 95
f 72 85 59
f 132 104 192
f 224 80 89
f 174 83 205
f 259 107 248
f 184 204 211
f 18 144 166
f 275 16 102
f 175 164 266
f 76 262 16
f 176 5 305
f 216 140 133
f 180 228 200
f 207 131 306
f 246 140 44
f 286 309 139
f 161 235 136
f 305 5 30
f 184 137 215
f 229 186 280
f 121 176 305
f 109 39 276
f 31 197 8
f 111 187 37
f 67 308 21
f 186 229 297
f 67 279 254
f 285 33 214
f 142 159 123
f 112 56 20
f 310 113 228
f 194 87 124
f 241 58 172
f 229 280 247
f 234 48 193
f 32 267 286
f 220 57 97
f 70 33 61
f 199 204 243
f 44 211 205
f 299 214 258
f 156 240 298
f 222 284 110
f 1 156 297
f 239 162 263
f 182 170 238
f 186 299 258
f 50 278 12
f 135 28 304
f 247 176 86
f 45 127 288
f 189 227 144
f 47 302 46
f 267 55 88
f 125 41 87
f 214 43 258
f 22 56 283
f 124 123 90
f 236 103 146
f 265 108 249
f 239 290 162
f 131 143 306
f 25 247 86
f 107 63 74
f 33 32 61
f 204 184 215
f 160 29 171
f 284 168 60
f 28 170 182
f 63 106 74
f 195 27 262
f 258 38 114
f 6 9 242
f 224 80 99
f 226 264 96
f 190 262 76
f 223 30 36
f 92 291 244
f 42 155 215
f 228 302 200
f 165 138 151
f 237 53 257
f 222 110 309
f 190 76 119
f 280 114 193
f 83 44 205
f 190 201 217
f 211 44 65
f 48 234 273
f 289 203 63
f 211 174 205
f 47 46 277
f 192 40 292
f 8 2 6
f 151 281 309
f 33 32 75
f 19 236 146
f 49 290 233
f 155 42 138
f 201 75 217
f 119 16 296
f 87 142 123
f 283 130 213
f 149 220 97
f 270 168 132
f 51 234 193
f 32 286 75
f 232 37 130
f 178 252 266
f 284 292 17
f 46 282 40
f 136 235 154
f 66 131 141
f 132 168 267
f 251 163 291
f 93 200 294
f 93 180 200
f 242 301 278
f 33 43 214
f 241 185 100
f 45 95 127
f 38 312 293
f 44 140 65
f 164 81 266
f 26 78 137
f 290 49 253
f 262 27 20
f 163 58 291
f 110 165 151
f 147 105 36
f 5 268 3
f 106 86 121
f 120 306 68
f 190 62 195
f 203 218 63
f 13 264 145
f 83 246 44
f 58 163 172
f 230 191 165
f 252 178 198
f 287 303 250
f 240 289 298
f 16 262 153
f 31 94 50
f 64 164 291
f 167 188 12
f 265 249 91
f 30 3 36
f 178 173 198
f 38 293 114
f 166 299 297
f 159 179 123
f 191 13 145
f 161 180 235
f 223 105 237
f 84 92 244
f 240 149 97
f 105 37 208
f 204 198 181
f 94 6 242
f 7 33 32
f 180 2 310
f 4 120 187
f 140 15 133
f 98 259 248
f 187 135 208
f 261 281 138
f 290 256 162
f 107 69 121
f 189 103 212
f 49 146 253
f 131 207 85
f 227 189 285
f 248 107 169
f 160 295 81
f 16 275 296
f 171 210 83
f 222 168 284
f 55 294 88
f 260 22 250
f 280 126 122
f 9 180 161
f 48 126 193
f 142 167 12
f 255 27 59
f 1 240 156
f 238 248 53
f 276 39 98
f 129 226 96
f 128 136 35
f 202 252 198
f 296 219 293
f 299 186 297
f 219 275 10
f 181 173 83
f 75 139 217
f 255 207 120
f 196 252 202
f 160 81 177
f 272 141 85
f 62 190 217
f 47 277 23
f 129 264 96
f 188 313 12
f 37 187 208
f 170 152 45
f 181 83 174
f 276 98 288
f 73 197 91
f 53 169 257
f 263 162 109
f 107 74 69
f 192 104 40
f 180 93 235
f 40 104 277
f 3 271 36
f 80 224 18
f 122 126 268
f 187 68 135
f 245 239 263
f 278 183 159
f 102 153 82
f 149 1 220
f 279 113 91
f 225 93 294
f 77 273 271
f 256 224 39
f 43 201 38
f 293 219 51
f 19 146 49
f 125 108 41
f 206 289 63
f 132 7 32
f 185 230 165
f 106 25 86
f 301 158 34
f 267 7 32
f 208 135 304
f 204 181 211
f 154 71 35
f 236 225 55
f 190 119 312
f 70 43 61
f 100 284 17
f 126 48 268
f 101 170 28
f 307 56 22
f 278 142 12
f 75 286 139
f 9 161 136
f 20 4 221
f 155 191 243
f 273 283 213
f 204 199 198
f 246 210 194
f 256 80 89
f 78 42 215
f 306 11 68
f 134 280 193
f 71 52 35
f 189 79 285
f 136 154 35
f 180 310 228
f 310 9 157
f 11 143 65
f 27 72 59
f 197 31 188
f 268 77 3
f 261 26 272
f 105 208 304
f 227 299 166
f 104 267 88
f 18 148 144
f 264 196 145
f 267 132 7
f 43 38 258
f 189 212 79
f 94 8 6
f 108 29 150
f 229 1 297
f 220 1 57
f 64 231 177
# 632 faces, 0 coords texture

# End of File