####
#
# OBJ File Generated by Meshlab
#
####
# Object Volume_089.obj
#
# Vertices: 438
# Faces: 880
#
####
v 166.967346 382.428650 114.177498
v 174.958252 384.984344 119.284203
v 175.342850 395.573730 125.824638
v 174.874268 395.570099 132.343231
v 161.558960 392.270050 125.984016
v 163.538559 382.950989 126.525826
v 177.373901 401.605957 132.892517
v 164.548111 397.642273 129.777267
v 173.602524 397.682526 121.446243
v 168.392731 402.298004 119.620331
v 166.465729 379.825043 121.242348
v 164.446899 402.345184 121.537674
v 163.304535 391.154175 121.184372
v 168.475082 402.788391 127.494911
v 168.475906 379.574463 121.176575
v 166.170502 402.495605 119.364075
v 174.806061 386.974365 119.286583
v 163.711304 393.496429 127.951874
v 170.818680 382.920074 131.706009
v 167.122543 391.175964 131.445770
v 164.713348 380.053131 123.458061
v 173.180893 393.644531 118.854324
v 163.263855 381.539886 123.899597
v 174.907532 382.993744 131.486588
v 165.198502 383.753754 129.133331
v 172.823959 379.300171 123.248535
v 166.339951 380.959259 129.818085
v 176.424789 381.049469 129.863312
v 166.426331 402.737732 127.488716
v 165.805939 401.947052 130.820251
v 174.564697 395.608307 123.310272
v 174.210846 401.602081 125.877548
v 176.368332 386.746735 126.114136
v 165.613785 401.839874 131.142029
v 163.974625 384.969330 127.619499
v 166.329300 391.499603 116.432671
v 164.884430 385.023560 117.042076
v 174.928177 379.400879 125.561188
v 163.544922 384.995575 121.211029
v 170.821426 384.954376 131.998779
v 175.381821 382.865295 121.258583
v 165.836227 381.836792 115.683464
v 167.169540 387.073334 131.371887
v 170.818466 379.194122 130.771362
v 164.734573 395.547821 129.532089
v 162.925568 401.728119 123.636276
v 175.159821 391.243042 123.361916
v 175.071426 397.700897 125.714226
v 162.574249 397.631805 125.472282
v 168.480133 378.684998 125.520615
v 173.334747 383.081482 116.335869
v 175.987839 399.797333 129.298080
v 173.785324 393.251617 119.676292
v 166.421692 393.492554 117.226913
v 170.818893 402.653381 128.959244
v 171.249557 383.009949 114.619995
v 162.914322 383.250366 123.859573
v 172.868958 393.499634 132.474625
v 168.458923 397.156342 132.748703
v 165.779114 384.992371 115.386322
v 176.137222 401.194916 130.784271
v 164.315216 393.499481 119.309921
v 168.467972 382.886536 114.124893
v 162.162262 387.418610 125.060875
v 174.722076 391.088440 121.469368
v 172.868484 380.919830 131.385101
v 162.394333 387.136444 125.812996
v 166.487137 397.584351 117.859749
v 168.574799 387.097931 131.962570
v 163.461685 387.073151 121.100029
v 165.677094 401.905090 130.868118
v 163.753357 382.982300 121.299278
v 168.667038 401.608795 118.812744
v 176.463257 397.607788 130.353485
v 164.160995 384.999359 119.443687
v 172.857574 402.308777 130.152527
v 163.216888 402.078186 125.513939
v 164.421021 402.610138 125.499329
v 175.987427 380.958008 125.033867
v 162.995316 393.494446 121.858597
v 170.821396 380.922974 131.368988
v 164.821915 379.872131 125.602318
v 170.279068 397.312103 118.066612
v 176.099136 393.568115 127.429298
v 175.554993 393.543335 125.665604
v 176.117538 387.237000 125.313110
v 168.477051 379.100006 123.200798
v 168.522644 380.937866 131.202637
v 174.908783 397.159546 132.729187
v 162.432526 393.485870 123.802879
v 162.832230 399.517517 127.782303
v 173.745026 381.394165 118.043236
v 175.853943 391.226807 125.481010
v 172.759781 391.172211 117.218117
v 163.593674 395.501434 128.027390
v 172.880234 378.560760 130.162125
v 166.282486 401.831360 118.181717
v 168.476807 402.619904 128.952972
v 163.151428 402.098816 127.496552
v 168.517624 382.946899 131.452667
v 168.566071 389.110596 132.067764
v 171.951370 394.970154 118.210732
v 170.799973 393.448608 117.094666
v 173.982376 388.873566 117.694611
v 172.866913 382.917908 131.715866
v 163.174835 399.597748 121.340897
v 162.912781 392.318390 121.994095
v 168.425964 392.375153 116.103050
v 169.420807 400.013641 118.318192
v 170.371185 382.727875 114.259605
v 168.520004 384.997192 131.736038
v 174.519028 380.459564 121.542198
v 165.018707 389.162537 117.000900
v 173.669769 394.528259 120.120949
v 175.858521 395.645264 127.487595
v 166.601669 397.617920 132.023773
v 168.408249 399.624207 117.991417
v 163.191559 382.661041 122.987389
v 175.859283 382.958252 123.782280
v 166.425049 402.834534 125.499306
v 176.221375 379.605164 127.641228
v 176.368835 398.617340 132.509354
v 174.947571 401.445190 132.197433
v 165.278915 397.636444 118.371429
v 168.471878 387.015533 114.738625
v 172.770218 381.224548 117.206078
v 173.272858 399.607330 121.339012
v 174.089951 402.160675 127.689087
v 175.465332 399.657898 127.769165
v 165.270340 381.157410 119.563316
v 174.926483 400.992737 132.696304
v 166.432999 402.519897 128.915466
v 163.755875 401.523865 120.658623
v 168.477325 402.352570 130.157150
v 175.928635 381.129456 130.658630
v 174.748215 399.671997 125.694946
v 176.132217 389.085602 131.309509
v 166.484238 379.356598 123.252922
v 174.838165 389.107910 132.111618
v 176.201553 382.950775 124.954216
v 171.116348 397.853058 118.511093
v 161.563766 391.829254 126.013351
v 168.467773 384.788605 114.387619
v 170.819138 402.402802 130.169464
v 163.489807 399.654297 120.467155
v 172.849503 378.780273 125.543228
v 176.384735 380.858185 126.062981
v 165.841202 388.426758 115.647102
v 170.818390 402.782593 127.494827
v 174.119247 387.031921 117.451134
v 176.783524 385.068207 127.706711
v 174.773514 401.429688 127.909348
v 166.548294 402.296387 118.501602
v 163.269882 381.622040 125.258102
v 164.979584 391.152954 129.340637
v 163.440033 395.552002 120.793488
v 167.625534 379.231659 130.511337
v 172.523529 397.502686 119.639389
v 174.938614 378.582550 130.167435
v 171.277725 381.260101 114.519318
v 170.680237 401.441528 119.423500
v 166.552399 380.951538 117.269638
v 163.791412 389.104218 127.872063
v 166.424088 402.829254 123.499153
v 176.150681 385.004608 124.974182
v 172.825668 402.619904 125.509514
v 170.828674 401.631104 132.171371
v 168.461670 397.589294 117.729332
v 173.271118 387.237122 116.345032
v 173.901413 395.698547 121.353241
v 163.049744 383.206024 125.494568
v 170.816589 380.012390 119.499939
v 174.804993 378.765289 127.598068
v 164.270767 399.537415 129.849823
v 163.749725 381.061859 125.745964
v 170.611176 402.107239 120.014656
v 168.499252 395.562286 132.391937
v 166.690109 390.614319 115.892548
v 176.200928 391.079010 126.575722
v 174.833038 393.507812 132.128723
v 176.472763 384.991394 126.079430
v 176.304840 397.625000 131.981720
v 172.872009 395.534485 132.648575
v 165.832733 393.507263 130.478378
v 163.444290 393.483276 120.808273
v 166.520935 379.023895 125.549652
v 162.249725 391.160553 123.771912
v 177.457718 401.662933 132.684952
v 162.847870 401.540436 127.427917
v 171.400970 381.279449 114.502945
v 173.796265 401.450409 123.615219
v 167.197693 398.591980 132.743210
v 166.748108 395.615692 131.595734
v 167.064316 393.550751 131.515121
v 168.474884 402.852997 123.500420
v 173.460175 402.240845 124.200554
v 173.787064 390.264893 118.025269
v 172.865524 401.029236 132.756271
v 168.475006 402.861755 125.499794
v 172.869019 399.640472 133.173569
v 165.157272 401.585175 118.517235
v 164.059143 389.134125 119.506020
v 163.142365 401.594147 128.651215
v 172.822845 379.801178 121.240845
v 172.858047 401.620941 132.173859
v 165.143692 401.848877 118.666725
v 171.969528 390.014923 116.070023
v 168.474823 395.545807 117.431297
v 161.594315 391.688477 126.038872
v 166.501175 395.440063 117.641251
v 170.819641 398.307159 133.129211
v 174.356995 397.512207 123.393654
v 176.751953 385.137756 129.897919
v 168.546799 401.622101 132.073029
v 166.447830 402.382935 118.586250
v 176.062408 385.325073 131.172958
v 165.800476 389.619385 116.194405
v 170.819336 378.334137 127.507782
v 175.422684 385.116302 121.600471
v 174.877640 379.170105 130.757812
v 165.464462 379.716675 127.310448
v 175.053131 381.121796 121.612572
v 170.788574 402.564911 121.542061
v 174.843994 384.900909 131.778122
v 165.927902 391.158478 130.426987
v 167.137070 389.108154 131.424820
v 172.869980 398.304565 133.137589
v 170.646912 390.838837 115.825462
v 169.615158 399.049164 118.114777
v 175.846329 385.009033 123.773148
v 164.873459 387.049286 117.178375
v 162.948212 397.788330 127.393097
v 172.374222 393.199585 117.852249
v 176.439514 391.287048 127.478394
v 172.198700 388.854919 115.788513
v 165.231995 391.050934 117.574196
v 162.771133 401.444794 125.469940
v 163.365295 402.007629 122.033012
v 168.469925 402.711945 121.513313
v 168.427170 392.303375 116.064163
v 168.466232 378.416351 129.227524
v 167.282745 400.772461 132.496262
v 162.646027 397.502594 123.611130
v 171.956238 401.997162 120.531342
v 172.875778 379.183868 130.790298
v 173.439270 384.991272 116.268921
v 175.652283 379.165344 130.530350
v 165.668259 395.361664 130.600372
v 175.468277 380.943817 123.628586
v 172.792633 402.424164 123.510452
v 164.555069 402.343262 128.828400
v 165.039993 387.051910 129.295151
v 173.488098 401.808014 123.118607
v 177.360413 401.594482 132.935913
v 165.066071 402.204620 119.682709
v 175.641830 378.850647 130.365707
v 164.156601 391.227905 119.413330
v 172.859512 378.292603 129.222610
v 167.465469 378.862030 130.096024
v 165.945602 389.104889 130.412491
v 175.634903 387.103485 123.509872
v 165.568726 397.618317 130.977829
v 165.387100 399.791779 131.082901
v 166.115997 382.885437 130.051682
v 174.899994 393.430237 123.452805
v 168.513412 378.614990 130.142242
v 174.057816 399.638062 123.222496
v 174.126495 391.051971 119.301125
v 162.000153 389.266907 125.427994
v 176.012680 393.515228 131.304108
v 164.816299 381.004486 127.649971
v 172.794586 380.343536 119.600746
v 162.556076 399.648163 125.502113
v 164.078537 387.039886 119.409973
v 176.631165 382.987549 129.867752
v 176.670624 389.095490 130.090729
v 164.899048 393.477081 129.414261
v 168.561279 391.159241 132.088455
v 162.374527 387.049225 123.788719
v 172.867447 391.155029 132.432999
v 171.001282 391.745331 116.406525
v 166.537674 386.997559 115.014534
v 171.717499 396.153412 118.461266
v 174.084839 382.970581 117.438797
v 162.683472 399.645172 123.517342
v 163.370056 389.046967 121.088905
v 175.001099 389.134186 121.507767
v 166.461731 399.625122 117.971413
v 162.265930 389.073914 126.072083
v 174.830139 391.154388 132.104218
v 176.115723 395.674988 131.447815
v 168.505569 381.437225 115.021263
v 174.416458 381.221558 119.708092
v 174.199448 384.998230 117.400383
v 176.314514 389.097443 126.528191
v 172.377151 402.205658 121.666405
v 174.998810 401.651825 129.927963
v 165.342331 393.442474 117.994049
v 176.136368 387.157532 131.285889
v 172.214905 399.595398 119.804474
v 170.714691 399.601715 118.730339
v 168.472900 382.038422 114.333778
v 176.739349 386.974274 129.987717
v 176.473785 393.401886 130.150864
v 174.914566 382.980011 119.487053
v 166.324203 399.630157 132.092148
v 170.818283 378.631622 125.512833
v 165.809555 387.034851 115.440216
v 170.818344 397.102356 132.927948
v 172.867355 389.106018 132.410110
v 168.517273 379.202484 130.731888
v 165.356125 395.649933 118.285202
v 163.578995 397.315186 128.404572
v 166.885345 382.036377 114.325600
v 168.477493 380.006836 119.497292
v 170.817184 379.095856 123.200043
v 167.799713 401.250153 118.236511
v 165.982620 387.058563 130.382614
v 166.432327 402.721893 121.504242
v 174.838516 387.086090 132.024460
v 170.685287 384.815857 114.642914
v 164.229462 399.704437 119.364082
v 170.820587 378.573120 130.155945
v 176.044678 383.342316 130.911118
v 168.504349 399.643341 133.107147
v 170.822479 391.155365 132.424789
v 172.093231 401.392273 120.192070
v 164.441711 401.564270 119.486069
v 170.803528 380.660156 117.193192
v 170.822250 378.288208 129.217148
v 172.835190 402.623596 127.493111
v 170.731598 387.004578 114.978584
v 166.625519 378.957336 127.476814
v 166.934616 379.190155 129.479675
v 176.574387 391.136719 130.102844
v 176.339920 392.676941 127.883186
v 171.346664 381.251617 114.580017
v 163.610397 381.054596 123.492783
v 176.786469 382.946381 127.570549
v 175.678192 397.597504 127.542580
v 170.817429 402.824615 125.499763
v 166.526291 384.979736 114.787201
v 164.318985 381.128632 121.498207
v 162.787064 385.267914 125.529579
v 163.008270 397.611359 121.834320
v 176.260605 395.548157 128.950729
v 172.870392 397.104767 132.922424
v 173.638901 402.281464 125.599937
v 166.514404 380.346863 119.577682
v 165.046432 383.116089 117.032829
v 166.489700 381.726593 114.927460
v 176.173294 397.600189 128.969406
v 174.345139 393.511047 121.501106
v 176.695312 386.886597 127.611862
v 168.493301 398.329041 133.042023
v 170.775452 395.510284 117.814888
v 172.862534 378.401367 127.519485
v 172.540970 382.978790 115.452339
v 168.434753 389.178131 115.203934
v 161.632278 391.779572 126.054222
v 175.931366 379.226440 129.727509
v 173.072601 389.224884 116.636581
v 163.182632 400.207642 128.688782
v 176.529587 389.097321 127.531387
v 168.483429 380.632568 117.187843
v 170.825241 387.075500 132.265320
v 168.509842 401.007355 132.732056
v 176.707077 399.730042 132.148163
v 163.210587 402.119476 123.526016
v 170.813339 402.767975 123.504013
v 167.221329 383.244720 130.985718
v 175.975296 389.045441 125.398125
v 164.419785 402.582520 123.515221
v 163.326202 401.688416 121.531624
v 172.421478 386.982361 115.628845
v 174.147537 394.963623 121.614258
v 162.319458 389.110229 123.724899
v 176.066650 391.137573 131.274048
v 174.806854 378.494659 129.292862
v 165.682220 382.934967 115.455879
v 168.425751 392.288727 116.054329
v 164.404465 382.965118 119.509109
v 165.213104 399.688965 118.409355
v 176.404160 399.650513 130.469376
v 166.029510 384.991058 130.248505
v 175.231445 387.067322 121.302269
v 176.053116 379.699066 126.640266
v 164.265442 395.488953 119.399513
v 167.096832 399.632538 132.794525
v 170.820023 399.640442 133.166443
v 176.613754 380.838593 127.472008
v 174.551147 379.933044 123.476852
v 170.819962 393.499908 132.475388
v 163.418228 397.630707 120.767876
v 168.539200 393.508575 132.165543
v 164.164444 397.645966 119.472473
v 174.586838 388.915436 119.385956
v 176.379044 393.935333 128.925964
v 167.411743 380.934265 130.787338
v 172.546936 384.980896 115.531288
v 162.766159 385.027191 123.663757
v 176.435822 395.552338 130.321152
v 168.488281 378.445496 127.518562
v 172.889969 395.470276 119.296646
v 172.868591 387.071686 132.283463
v 166.539474 383.123108 114.495712
v 164.409317 382.916077 127.871239
v 163.719955 391.140259 127.934456
v 172.872162 384.943695 132.034714
v 174.912827 398.312195 133.013184
v 170.816757 395.534088 132.653656
v 164.862122 380.420227 121.702011
v 170.813187 401.028595 132.754898
v 165.611542 381.525421 117.353073
v 170.824265 389.107086 132.385788
v 162.597015 395.463776 123.851669
v 175.431030 389.124664 123.448463
v 168.438202 392.332916 116.094704
v 167.243729 384.991180 131.236877
v 176.510681 382.948334 126.064278
v 163.855179 387.054413 127.801392
v 165.004608 389.103821 129.321686
v 170.741959 389.108032 115.349075
v 172.859573 402.562683 128.954254
v 163.249191 401.982178 128.436142
v 174.879288 399.629303 133.072540
v 166.392944 389.105408 115.345299
v 172.990311 401.462006 121.632462
v 162.669342 395.273193 125.833107
v 170.817917 379.564941 121.174660
v 176.439285 399.831116 132.645294
v 174.857513 380.946991 131.184753
v 174.500565 402.057831 128.930786
v 164.414154 402.562408 127.468636
v 163.030273 395.549988 121.839806
v 165.746811 401.947876 130.729965
v 165.138275 385.002441 129.238480
v 162.990173 395.938354 127.018295
# 438 vertices, 0 vertices normals

f 182 122 368
f 14 55 98
f 323 44 96
f 343 118 338
f 252 421 163
f 151 339 213
f 425 99 251
f 437 252 385
f 306 242 389
f 263 174 436
f 267 32 191
f 364 276 335
f 412 138 11
f 57 23 118
f 367 413 390
f 271 27 334
f 214 167 413
f 190 110 160
f 342 143 282
f 299 137 303
f 109 117 229
f 7 131 123
f 289 163 421
f 212 48 136
f 53 353 376
f 263 71 30
f 164 199 120
f 97 317 73
f 347 89 4
f 278 415 101
f 8 45 313
f 369 78 77
f 186 138 21
f 289 142 163
f 419 43 111
f 234 335 304
f 215 153 16
f 52 129 340
f 330 241 266
f 306 30 242
f 232 49 91
f 208 356 168
f 200 198 426
f 36 108 54
f 289 64 269
f 81 19 66
f 354 276 364
f 15 315 349
f 195 370 341
f 222 119 41
f 321 358 400
f 101 415 366
f 216 303 213
f 240 418 108
f 186 50 138
f 8 248 45
f 274 70 39
f 112 222 293
f 312 124 396
f 347 227 89
f 176 296 223
f 112 249 222
f 326 393 280
f 289 269 142
f 350 380 37
f 187 80 90
f 381 108 418
f 48 115 340
f 360 142 187
f 57 171 23
f 186 21 82
f 40 366 409
f 71 214 30
f 437 35 421
f 20 278 101
f 126 92 284
f 79 119 249
f 25 437 264
f 166 128 331
f 30 214 367
f 199 149 14
f 350 37 75
f 273 49 243
f 414 382 130
f 366 415 405
f 175 6 271
f 346 352 115
f 15 349 11
f 126 293 92
f 99 434 251
f 301 158 300
f 148 282 427
f 398 402 346
f 386 261 417
f 192 389 355
f 19 100 111
f 371 88 399
f 267 136 32
f 121 28 391
f 309 211 347
f 90 416 429
f 111 69 40
f 190 56 110
f 7 188 254
f 295 179 372
f 305 219 2
f 307 218 357
f 289 67 64
f 158 127 300
f 307 50 218
f 288 168 117
f 36 178 381
f 147 391 420
f 431 131 7
f 130 412 11
f 399 88 311
f 151 303 354
f 26 38 392
f 248 262 116
f 310 280 139
f 243 49 416
f 218 258 357
f 121 38 173
f 270 304 335
f 203 174 363
f 222 249 119
f 323 258 330
f 404 114 376
f 2 219 386
f 382 72 343
f 402 182 74
f 420 391 339
f 94 362 104
f 330 218 403
f 61 254 297
f 31 3 48
f 245 220 159
f 43 69 111
f 341 331 149
f 76 424 297
f 193 395 194
f 400 51 246
f 397 386 287
f 389 242 325
f 57 39 401
f 46 237 285
f 109 301 73
f 5 360 209
f 113 427 217
f 137 290 378
f 25 35 437
f 326 280 310
f 389 325 355
f 84 304 398
f 121 387 38
f 206 97 16
f 374 145 133
f 379 361 173
f 25 264 407
f 186 82 333
f 200 426 410
f 321 332 125
f 279 344 401
f 21 412 338
f 409 224 24
f 427 125 359
f 84 85 93
f 350 75 382
f 46 369 237
f 296 428 250
f 121 173 361
f 359 332 423
f 430 315 15
f 352 340 115
f 206 16 255
f 391 275 339
f 68 208 168
f 113 217 36
f 13 62 185
f 44 81 245
f 385 43 419
f 70 202 286
f 52 61 297
f 381 281 418
f 390 413 200
f 211 227 347
f 384 254 61
f 190 292 365
f 260 20 226
f 370 250 166
f 8 313 174
f 52 152 129
f 284 305 2
f 107 185 80
f 201 383 288
f 299 320 139
f 227 410 89
f 190 337 56
f 250 196 348
f 277 184 225
f 242 367 325
f 159 361 379
f 79 249 392
f 352 384 52
f 33 151 354
f 328 133 145
f 28 275 391
f 383 68 288
f 239 223 370
f 279 377 269
f 144 205 167
f 30 367 242
f 302 314 351
f 168 83 117
f 56 337 358
f 184 193 194
f 356 141 83
f 323 96 258
f 322 383 328
f 37 60 231
f 231 308 113
f 329 190 365
f 169 246 150
f 264 27 407
f 73 301 161
f 295 354 364
f 108 103 208
f 248 116 193
f 299 139 137
f 20 194 278
f 95 438 232
f 285 243 345
f 382 75 72
f 79 392 38
f 427 36 217
f 66 432 220
f 122 426 431
f 309 347 183
f 240 381 418
f 356 283 141
f 405 310 320
f 378 270 335
f 103 94 233
f 238 373 369
f 94 197 268
f 269 377 209
f 425 251 436
f 157 334 399
f 414 42 350
f 128 32 152
f 132 251 434
f 63 143 406
f 231 113 202
f 348 32 128
f 141 158 301
f 135 24 324
f 312 62 298
f 84 336 304
f 268 397 65
f 161 244 176
f 237 369 77
f 1 406 314
f 352 74 384
f 48 3 115
f 48 340 136
f 117 83 229
f 374 133 12
f 33 354 295
f 385 318 43
f 338 118 23
f 262 263 306
f 414 351 42
f 105 409 24
f 144 55 76
f 236 298 257
f 58 180 290
f 280 290 139
f 304 291 402
f 414 349 162
f 381 359 423
f 329 337 190
f 221 271 334
f 268 353 53
f 55 424 76
f 394 145 106
f 245 66 220
f 167 205 198
f 411 183 58
f 179 93 372
f 380 60 37
f 325 367 390
f 405 320 224
f 270 291 304
f 31 265 3
f 126 51 358
f 404 9 158
f 279 64 344
f 191 196 253
f 53 376 114
f 291 89 182
f 127 191 428
f 351 314 406
f 300 428 327
f 307 357 146
f 295 364 179
f 116 306 389
f 34 30 71
f 156 388 396
f 155 18 277
f 201 97 206
f 177 411 393
f 137 139 290
f 130 382 343
f 189 91 273
f 198 131 426
f 135 28 247
f 81 100 19
f 409 405 224
f 378 180 270
f 132 98 134
f 264 371 27
f 235 362 207
f 333 221 334
f 79 420 140
f 216 320 299
f 73 161 176
f 34 436 30
f 258 379 357
f 86 295 372
f 95 232 313
f 264 419 371
f 327 296 244
f 375 169 235
f 323 330 266
f 117 73 317
f 97 153 215
f 313 232 91
f 116 192 59
f 220 247 256
f 437 385 264
f 191 348 196
f 429 416 49
f 212 136 267
f 371 111 100
f 7 254 188
f 47 417 93
f 126 272 293
f 282 125 427
f 395 393 326
f 168 356 83
f 97 10 153
f 377 187 209
f 216 299 303
f 226 101 69
f 60 342 308
f 321 56 358
f 67 344 64
f 344 6 171
f 325 390 211
f 2 386 17
f 307 316 87
f 36 381 418
f 307 146 316
f 324 216 275
f 175 171 6
f 45 95 313
f 374 106 145
f 141 283 404
f 279 401 70
f 199 341 149
f 140 230 119
f 263 436 71
f 282 143 125
f 60 406 342
f 1 63 406
f 272 112 293
f 270 180 4
f 67 35 344
f 9 267 127
f 322 394 396
f 92 305 284
f 278 395 326
f 1 302 63
f 268 65 353
f 321 400 332
f 205 123 131
f 422 155 260
f 259 157 266
f 8 262 248
f 360 187 90
f 84 115 3
f 312 396 388
f 130 11 349
f 437 421 252
f 305 41 219
f 29 132 434
f 307 87 50
f 259 334 157
f 84 346 115
f 318 260 226
f 315 162 349
f 148 308 282
f 105 24 432
f 376 31 170
f 126 284 51
f 94 268 22
f 137 378 276
f 97 73 10
f 161 300 327
f 322 145 394
f 140 420 181
f 190 160 292
f 195 341 199
f 44 88 81
f 265 85 3
f 113 148 427
f 69 101 366
f 259 266 241
f 422 408 155
f 37 274 75
f 191 32 348
f 13 257 62
f 279 70 286
f 431 254 368
f 324 224 216
f 120 29 78
f 408 360 18
f 116 59 177
f 233 22 404
f 392 249 112
f 416 80 435
f 208 103 356
f 57 401 344
f 147 387 391
f 47 287 417
f 31 353 265
f 79 147 420
f 341 166 331
f 109 73 117
f 402 291 182
f 77 434 99
f 204 392 112
f 285 345 106
f 427 359 178
f 338 154 175
f 338 23 154
f 365 162 315
f 321 125 143
f 46 285 106
f 140 181 165
f 1 314 302
f 322 328 145
f 178 359 381
f 252 422 318
f 255 319 12
f 414 350 382
f 164 120 373
f 185 156 80
f 386 417 287
f 207 362 94
f 90 80 416
f 179 364 234
f 185 62 388
f 109 229 301
f 312 298 54
f 328 383 201
f 156 394 435
f 260 225 20
f 233 404 102
f 236 36 54
f 413 167 198
f 74 182 368
f 225 194 20
f 10 223 239
f 79 38 147
f 179 234 93
f 156 435 80
f 46 238 369
f 181 339 151
f 400 246 375
f 422 163 408
f 381 423 228
f 394 106 345
f 292 351 162
f 82 21 175
f 297 433 152
f 74 368 384
f 291 4 89
f 346 74 352
f 187 142 209
f 140 165 230
f 308 342 282
f 144 76 205
f 366 405 409
f 29 14 98
f 252 318 385
f 281 94 103
f 381 228 281
f 37 231 274
f 8 174 262
f 45 184 277
f 134 167 214
f 355 325 211
f 316 146 26
f 73 176 10
f 150 17 397
f 329 272 126
f 52 297 152
f 190 160 337
f 414 130 349
f 390 200 227
f 40 409 105
f 293 222 305
f 270 4 291
f 82 175 221
f 298 62 257
f 203 99 425
f 365 292 162
f 182 89 410
f 79 140 119
f 256 247 361
f 343 72 118
f 204 112 272
f 81 66 245
f 203 363 91
f 50 87 138
f 384 368 254
f 231 202 274
f 263 30 306
f 124 210 68
f 285 273 243
f 358 51 400
f 10 176 223
f 46 106 374
f 136 152 32
f 393 58 280
f 121 391 387
f 57 72 39
f 154 171 175
f 250 253 196
f 198 205 131
f 234 364 335
f 147 38 387
f 375 246 169
f 113 236 257
f 146 357 173
f 182 410 122
f 23 171 154
f 127 267 191
f 220 432 247
f 225 184 194
f 107 187 13
f 239 370 195
f 333 82 221
f 313 91 174
f 31 48 212
f 328 206 255
f 186 403 50
f 264 385 419
f 160 302 292
f 329 126 337
f 312 54 210
f 135 432 24
f 155 277 225
f 423 235 228
f 415 310 405
f 292 302 351
f 278 326 415
f 51 294 246
f 393 411 58
f 110 321 63
f 234 304 336
f 329 172 272
f 237 273 285
f 84 3 85
f 175 271 221
f 431 426 131
f 342 406 143
f 323 311 44
f 332 400 375
f 172 204 272
f 165 86 261
f 227 200 410
f 155 225 260
f 107 80 187
f 113 36 236
f 316 15 87
f 328 201 206
f 321 143 63
f 165 181 33
f 286 202 257
f 28 361 247
f 71 251 132
f 65 265 353
f 412 343 338
f 108 281 103
f 83 141 301
f 184 248 193
f 135 247 432
f 322 396 383
f 238 12 373
f 68 168 288
f 404 376 170
f 408 142 360
f 235 169 362
f 213 339 275
f 7 123 254
f 122 431 368
f 41 119 230
f 246 294 150
f 83 301 229
f 158 9 127
f 305 222 41
f 5 142 360
f 283 102 404
f 66 105 432
f 75 274 39
f 323 266 311
f 377 13 187
f 185 388 156
f 332 375 423
f 240 108 381
f 176 244 296
f 146 38 26
f 183 4 180
f 97 215 16
f 104 397 268
f 97 117 317
f 232 429 49
f 254 123 297
f 404 22 114
f 203 91 189
f 59 355 309
f 218 50 403
f 69 366 40
f 319 164 12
f 430 26 204
f 300 127 428
f 76 123 205
f 103 233 356
f 181 151 33
f 428 191 253
f 397 17 386
f 203 425 436
f 157 311 266
f 380 406 60
f 44 311 88
f 25 407 35
f 414 162 351
f 219 41 230
f 75 39 72
f 362 169 150
f 151 213 303
f 36 418 108
f 255 16 319
f 304 402 398
f 316 430 15
f 9 170 212
f 356 102 283
f 237 77 189
f 71 436 251
f 413 198 200
f 22 268 53
f 77 78 434
f 22 53 114
f 6 407 271
f 160 110 63
f 42 380 350
f 294 2 17
f 43 226 69
f 58 183 180
f 160 63 302
f 243 435 345
f 216 213 275
f 294 17 150
f 374 12 238
f 21 138 412
f 186 333 403
f 126 358 337
f 18 429 95
f 397 287 65
f 430 204 172
f 57 118 72
f 183 347 4
f 360 90 429
f 84 398 346
f 423 375 235
f 96 379 258
f 149 424 55
f 319 195 164
f 16 153 10
f 65 47 265
f 134 144 167
f 177 59 411
f 259 241 334
f 430 172 315
f 356 233 102
f 216 224 320
f 363 174 91
f 113 308 148
f 141 404 158
f 279 286 377
f 210 208 68
f 193 116 177
f 137 276 303
f 134 98 144
f 92 293 305
f 19 105 66
f 360 142 209
f 420 339 181
f 128 152 433
f 76 297 123
f 136 340 129
f 42 351 406
f 86 372 261
f 18 360 429
f 288 117 97
f 234 336 84
f 98 55 144
f 404 170 9
f 26 392 204
f 378 290 180
f 47 93 265
f 252 163 422
f 150 397 104
f 59 309 411
f 156 396 394
f 243 416 435
f 201 288 97
f 113 257 202
f 331 128 433
f 45 248 184
f 57 344 171
f 303 276 354
f 35 407 6
f 226 20 101
f 284 2 294
f 164 373 12
f 46 374 238
f 110 56 321
f 261 372 417
f 211 390 227
f 14 149 55
f 331 433 424
f 422 260 318
f 223 296 250
f 29 98 132
f 262 306 116
f 52 384 61
f 107 13 185
f 5 209 142
f 250 428 253
f 81 88 100
f 330 258 218
f 280 58 290
f 155 408 18
f 279 269 64
f 344 35 6
f 250 348 166
f 255 12 133
f 86 33 295
f 274 202 70
f 415 326 310
f 424 433 297
f 95 429 438
f 399 334 27
f 355 211 309
f 124 68 383
f 232 438 429
f 329 365 172
f 333 334 241
f 273 91 49
f 371 419 111
f 310 139 320
f 166 348 128
f 330 403 241
f 44 245 96
f 135 275 28
f 394 345 435
f 190 337 160
f 54 108 210
f 319 239 195
f 16 239 319
f 71 134 214
f 159 220 256
f 312 388 62
f 149 331 424
f 124 383 396
f 65 287 47
f 228 235 207
f 96 245 159
f 45 277 18
f 234 84 93
f 42 406 380
f 377 286 13
f 87 11 138
f 265 93 85
f 130 343 412
f 157 399 311
f 301 300 161
f 352 52 340
f 71 30 436
f 427 178 36
f 104 268 197
f 370 166 341
f 29 434 78
f 159 256 361
f 395 177 393
f 228 94 281
f 401 39 70
f 120 14 29
f 116 389 192
f 376 353 31
f 122 410 426
f 328 255 133
f 67 421 35
f 9 212 267
f 269 209 142
f 203 189 99
f 163 142 408
f 262 174 263
f 120 78 373
f 193 177 395
f 386 219 261
f 165 33 86
f 271 407 27
f 203 436 174
f 136 129 152
f 219 230 261
f 418 281 108
f 237 189 273
f 34 71 436
f 135 324 275
f 125 332 359
f 87 15 11
f 164 195 199
f 417 372 93
f 192 355 59
f 94 22 233
f 431 7 254
f 96 159 379
f 223 250 370
f 19 111 40
f 286 257 13
f 411 309 183
f 71 132 134
f 324 24 224
f 371 100 88
f 228 207 94
f 189 77 99
f 120 199 14
f 346 402 74
f 367 214 413
f 327 428 296
f 21 338 175
f 312 210 124
f 236 54 298
f 170 31 212
f 333 241 403
f 45 18 95
f 362 150 104
f 318 226 43
f 161 327 244
f 194 395 278
f 210 108 208
f 165 261 230
f 316 26 430
f 378 335 276
f 19 40 105
f 16 10 239
f 371 399 27
f 369 373 78
f 94 104 197
f 289 421 67
f 51 284 294
f 121 361 28
f 172 365 315
f 231 60 308
f 357 379 173
f 146 173 38
# 880 faces, 0 coords texture

# End of File