####
#
# OBJ File Generated by Meshlab
#
####
# Object domain0555.obj
#
# Vertices: 1452
# Faces: 2900
#
####
v 214.475052 82.187637 81.040703
v 214.594635 82.240959 80.605995
v 214.612686 82.060661 81.055588
v 214.610001 82.057449 81.947067
v 214.467484 82.183517 81.962624
v 214.583969 82.222595 82.405846
v 214.488419 82.728317 80.107430
v 214.676529 82.811508 79.856964
v 214.593475 82.523888 80.134987
v 214.307678 82.647652 81.010780
v 214.304794 82.646957 81.990753
v 214.581116 82.504051 82.875809
v 214.476135 82.720947 82.897781
v 214.672501 82.806976 83.145607
v 214.426376 83.213593 80.078697
v 214.656540 83.211868 79.788582
v 214.254242 83.211678 81.004814
v 214.254242 83.212280 81.995186
v 214.426392 83.210381 82.921242
v 214.656601 83.211517 83.211372
v 214.476212 83.703018 80.102371
v 214.673050 83.616386 79.855057
v 214.304749 83.777016 81.009239
v 214.307693 83.776352 81.989235
v 214.488525 83.695625 82.892418
v 214.677185 83.611786 83.142220
v 214.581085 83.919914 80.124321
v 214.467499 84.240456 81.037384
v 214.583969 84.201782 80.594017
v 214.475052 84.236389 81.959297
v 214.594482 84.183693 82.394333
v 214.593506 83.900108 82.864891
v 214.608826 84.374390 81.051956
v 214.611755 84.370689 81.945404
v 215.071533 82.115730 80.537544
v 215.076706 81.947723 81.041031
v 215.076157 81.945618 81.959442
v 215.069702 82.110649 82.465088
v 215.076920 82.770210 79.757050
v 215.072311 82.412727 80.062065
v 215.070572 82.410042 82.939629
v 215.076981 82.771034 83.241272
v 215.080795 83.211945 79.653862
v 215.080795 83.212181 83.346077
v 215.077301 83.652725 79.759560
v 215.077225 83.653519 83.242104
v 215.070541 84.015121 80.059723
v 215.071564 84.332489 80.528107
v 215.072647 84.012932 82.938644
v 215.071396 84.327042 82.470459
v 215.081680 84.535042 81.033463
v 215.083939 84.533234 81.967407
v 215.648422 82.079201 80.519493
v 215.649002 81.908188 81.036034
v 215.648987 81.908005 81.963989
v 215.648346 82.078644 82.480789
v 215.648407 82.758781 79.735252
v 215.648590 82.386169 80.042229
v 215.648483 82.385963 82.957939
v 215.648529 82.758942 83.264450
v 215.649261 83.211975 79.623322
v 215.649292 83.211998 83.376686
v 215.648788 83.665779 79.735039
v 215.648499 83.665962 83.265495
v 215.648773 84.056587 80.029205
v 215.672684 84.431770 80.495155
v 215.650482 84.057716 82.970406
v 215.669739 84.431305 82.501793
v 215.626053 84.704483 81.008286
v 215.627197 84.706017 81.991325
v 216.234009 82.075760 80.517807
v 216.233994 81.902214 81.035263
v 216.233963 81.902222 81.964737
v 216.234024 82.075752 82.482185
v 216.233978 82.758125 79.734032
v 216.233978 82.383606 80.040154
v 216.233994 82.383598 82.959831
v 216.234009 82.758118 83.265968
v 216.234024 83.212006 79.619423
v 216.233994 83.212006 83.380600
v 216.237259 83.676758 79.720215
v 216.236710 83.676468 83.279846
v 216.232651 84.094261 80.000587
v 216.229752 84.465012 80.369965
v 216.234833 84.093384 83.000748
v 216.227982 84.464340 82.630867
v 216.003937 84.860924 81.034004
v 216.315521 84.787270 80.734428
v 216.003571 84.861923 81.965736
v 216.314911 84.787994 82.266342
v 216.331650 84.964127 81.068558
v 216.331772 84.964005 81.931496
v 216.820007 82.075745 80.517807
v 216.820053 81.902214 81.035278
v 216.819962 81.902214 81.964722
v 216.819992 82.075752 82.482193
v 216.820053 82.758095 79.733925
v 216.820038 82.383598 80.040154
v 216.820023 82.383598 82.959854
v 216.820038 82.758080 83.266075
v 216.821030 83.214272 79.606491
v 216.821045 83.214233 83.393471
v 216.856903 83.729698 79.692291
v 216.856384 83.729790 83.307602
v 216.786041 84.169113 79.949547
v 216.750351 84.529488 80.293564
v 216.786865 84.169136 83.050484
v 216.749695 84.529808 82.707130
v 216.833389 84.853050 80.657288
v 216.831863 84.853455 82.343910
v 216.834915 85.042465 81.059837
v 216.836029 85.043427 81.940865
v 217.405899 82.076607 80.518242
v 217.405991 81.902084 81.035233
v 217.406021 81.902214 81.964737
v 217.405914 82.076759 82.481720
v 217.405212 82.757812 79.730515
v 217.405426 82.386215 80.042313
v 217.405411 82.386139 82.957764
v 217.405273 82.757744 83.269600
v 217.405624 83.222458 79.583618
v 217.405624 83.222443 83.416382
v 217.419235 83.773590 79.617729
v 217.419144 83.773613 83.382339
v 217.116730 84.374733 80.009727
v 217.498962 84.192406 79.786713
v 217.116714 84.375633 82.989471
v 217.498627 84.192467 83.213486
v 217.453339 84.551491 80.090790
v 217.390945 84.871948 80.535332
v 217.454483 84.551308 82.908966
v 217.388931 84.872284 82.463829
v 217.407623 85.083321 81.042885
v 217.408646 85.084084 81.957237
v 217.989288 82.092552 80.526794
v 217.990875 81.910187 81.036285
v 217.990768 81.910309 81.963379
v 217.989822 82.093254 82.473076
v 217.980392 82.767578 79.744881
v 217.985718 82.402885 80.055656
v 217.985229 82.403076 82.944695
v 217.980530 82.767281 83.255600
v 217.990540 83.223557 79.581650
v 217.990540 83.223518 83.418465
v 217.993515 83.786407 79.581635
v 217.993454 83.786446 83.418465
v 218.003571 84.242409 79.744896
v 218.003464 84.242729 83.255608
v 217.998169 84.607071 80.055786
v 217.993973 84.920456 80.525230
v 217.998718 84.606926 82.944702
v 217.993286 84.919632 82.474579
v 217.991974 85.105698 81.035454
v 217.992157 85.105583 81.964157
v 218.582397 82.153885 80.545403
v 218.564407 81.954720 81.046532
v 218.563629 81.954178 81.953461
v 218.583862 82.153404 82.453735
v 218.485046 82.817596 79.786720
v 218.529236 82.462326 80.092903
v 218.528580 82.462143 82.907043
v 218.485413 82.817543 83.213470
v 218.564835 83.236397 79.617706
v 218.564789 83.236374 83.382339
v 218.578354 83.787521 79.583618
v 218.578415 83.787544 83.416397
v 218.578751 84.252197 79.730515
v 218.578751 84.252266 83.269600
v 218.578568 84.623779 80.042320
v 218.578171 84.933388 80.518242
v 218.578583 84.623840 82.957748
v 218.578079 84.933250 82.481728
v 218.577927 85.107918 81.035240
v 218.577988 85.107765 81.964714
v 219.087540 82.198227 80.704338
v 219.067917 82.034637 81.062973
v 219.067368 82.033142 81.937859
v 219.089478 82.197464 82.297272
v 218.864349 82.641609 80.014984
v 219.223267 82.508369 80.324074
v 218.864258 82.641083 82.984177
v 219.225403 82.509064 82.677422
v 219.127228 83.280128 79.692047
v 219.197083 82.847198 79.959618
v 219.194611 82.848083 83.041389
v 219.127823 83.280098 83.307541
v 219.162903 83.795723 79.606491
v 219.162918 83.795723 83.393486
v 219.163971 84.251923 79.733917
v 219.164017 84.251930 83.266075
v 219.164032 84.626389 80.040154
v 219.163971 84.934258 80.517799
v 219.164062 84.626419 82.959854
v 219.164001 84.934250 82.482201
v 219.164001 85.107780 81.035255
v 219.164001 85.107780 81.964729
v 219.396286 82.143036 81.030083
v 219.396790 82.141678 81.970070
v 219.734436 82.559875 80.480492
v 219.775360 82.297028 81.005974
v 219.774200 82.296341 81.993469
v 219.737045 82.559128 82.517036
v 219.746262 83.336411 79.724792
v 219.748749 82.932144 80.012421
v 219.746841 82.930771 82.987549
v 219.746948 83.336594 83.275780
v 219.749954 83.797974 79.619431
v 219.749954 83.797958 83.380608
v 219.749985 84.251900 79.734039
v 219.749954 84.251892 83.265961
v 219.749985 84.626389 80.040138
v 219.750000 84.934258 80.517799
v 219.750046 84.626411 82.959839
v 219.750000 84.934250 82.482193
v 219.749939 85.107773 81.035248
v 219.750031 85.107780 81.964737
v 220.333939 82.638664 80.507629
v 220.331436 82.431580 81.027702
v 220.330078 82.431656 81.973305
v 220.335587 82.639153 82.493080
v 220.335892 83.344055 79.734024
v 220.335419 82.965477 80.036903
v 220.334961 82.965096 82.963173
v 220.335983 83.344086 83.265991
v 220.335953 83.797981 79.619514
v 220.336014 83.797989 83.380470
v 220.335968 84.251884 79.734039
v 220.336014 84.251900 83.265961
v 220.336014 84.626404 80.040161
v 220.336182 84.935005 80.517540
v 220.336029 84.626419 82.959869
v 220.336060 84.935028 82.482574
v 220.336990 85.116898 81.034050
v 220.337128 85.116653 81.965981
v 220.921829 82.661003 80.517540
v 220.920990 82.479103 81.034073
v 220.920883 82.479347 81.965965
v 220.921921 82.660973 82.482567
v 220.921967 83.344109 79.734024
v 220.922012 82.969597 80.040154
v 220.921982 82.969582 82.959854
v 220.921982 83.344101 83.265953
v 220.921967 83.797981 79.619522
v 220.921967 83.797989 83.380470
v 220.922073 84.251938 79.734047
v 220.921997 84.251915 83.265991
v 220.922577 84.630501 80.036911
v 220.924026 84.957321 80.507629
v 220.923050 84.630913 82.963173
v 220.922394 84.956841 82.493080
v 220.926605 85.164421 81.027718
v 220.927887 85.164345 81.973305
v 221.507965 82.661743 80.517807
v 221.508011 82.488213 81.035248
v 221.507996 82.488220 81.964745
v 221.507965 82.661736 82.482201
v 221.507950 83.344109 79.734016
v 221.507965 82.969612 80.040154
v 221.507965 82.969597 82.959839
v 221.507980 83.344101 83.265945
v 221.508041 83.798004 79.619438
v 221.508011 83.798012 83.380608
v 221.511749 84.259598 79.724823
v 221.511017 84.259392 83.275780
v 221.509232 84.663849 80.012428
v 221.523621 85.036140 80.480522
v 221.511185 84.665237 82.987541
v 221.520950 85.036865 82.517006
v 221.482697 85.298988 81.005951
v 221.483810 85.299690 81.993454
v 222.093857 82.662605 80.518234
v 222.093964 82.488083 81.035255
v 222.093979 82.488220 81.964745
v 222.093887 82.662750 82.481728
v 222.093201 83.345215 79.736023
v 222.093445 82.972221 80.042305
v 222.093445 82.972145 82.957771
v 222.093246 83.345146 83.264084
v 222.095062 83.800247 79.607162
v 222.095047 83.800224 83.392799
v 222.130890 84.315865 79.692062
v 222.130203 84.315857 83.307510
v 222.061005 84.748840 79.959641
v 222.034836 85.087654 80.324074
v 222.063354 84.747902 83.041382
v 222.032578 85.086914 82.677429
v 221.861725 85.452972 81.030075
v 222.170502 85.397789 80.704323
v 221.861176 85.454315 81.970070
v 222.168564 85.398537 82.297256
v 222.190033 85.561363 81.062965
v 222.190674 85.562874 81.937843
v 222.778488 66.247574 76.999420
v 222.897141 66.253899 76.606720
v 222.827988 66.174706 76.997314
v 222.917923 66.252731 77.384598
v 222.801498 66.452003 76.998520
v 222.677292 82.678535 80.526779
v 222.678864 82.496185 81.036293
v 222.678757 82.496307 81.963387
v 222.677795 82.679268 82.473061
v 222.668243 83.353905 79.745522
v 222.673660 82.988884 80.055672
v 222.673248 82.989067 82.944702
v 222.668320 83.353592 83.254982
v 222.678040 83.810661 79.597473
v 222.678040 83.810623 83.402649
v 222.693680 84.359055 79.619110
v 222.693649 84.359070 83.380943
v 222.393631 84.954384 80.014984
v 222.772949 84.778374 79.786720
v 222.393707 84.954903 82.984177
v 222.772659 84.778458 83.213478
v 222.728729 85.133652 80.092896
v 222.675552 85.442108 80.545410
v 222.729431 85.133858 82.907036
v 222.674072 85.442566 82.453743
v 222.693558 85.641289 81.046516
v 222.694305 85.641823 81.953476
v 223.112030 66.292435 76.115501
v 223.467239 66.327858 75.808846
v 223.356644 66.024345 76.072609
v 223.252762 65.861931 76.997772
v 223.364746 66.028603 77.920135
v 223.134460 66.309128 77.869980
v 223.470657 66.327751 78.190567
v 223.158218 66.789772 76.074615
v 223.435303 66.802803 75.769012
v 222.898026 66.825974 77.000969
v 223.161133 66.791405 77.924896
v 223.434647 66.801819 78.231461
v 223.226807 67.316956 76.087578
v 223.478653 67.293259 75.801979
v 223.034973 67.374458 76.999359
v 223.230026 67.315910 77.908363
v 223.479752 67.292114 78.197311
v 223.323166 67.657684 76.040688
v 223.166443 67.930588 77.000031
v 223.262283 67.990486 76.478989
v 223.262283 67.988213 77.523125
v 223.332825 67.656227 77.959038
v 223.279831 68.469650 76.999519
v 223.382187 68.518021 76.555397
v 223.378494 68.515862 77.447845
v 223.352142 68.802261 77.003197
v 223.270432 82.739899 80.545395
v 223.252411 82.540703 81.046532
v 223.251663 82.540176 81.953468
v 223.271912 82.739418 82.453735
v 223.173035 83.403618 79.786728
v 223.217224 83.048325 80.092911
v 223.216583 83.048134 82.907036
v 223.173355 83.403534 83.213463
v 223.252335 83.822937 79.619095
v 223.252350 83.822906 83.380951
v 223.267929 84.371330 79.597473
v 223.267960 84.371376 83.402657
v 223.277725 84.828079 79.745529
v 223.277603 84.828392 83.254982
v 223.272324 85.193115 80.055672
v 223.268753 85.503448 80.526779
v 223.272705 85.192917 82.944687
v 223.268158 85.502739 82.473061
v 223.267166 85.685814 81.036293
v 223.267258 85.685699 81.963371
v 223.661774 65.771461 76.057785
v 223.964294 65.849197 75.810631
v 223.954208 65.641327 76.075729
v 223.927597 65.538589 76.999992
v 223.581100 65.677406 77.002106
v 223.954163 65.641396 77.924225
v 223.664429 65.773643 77.943153
v 223.964355 65.849197 78.189369
v 223.882126 66.248436 75.642197
v 223.881943 66.248375 78.358124
v 223.868057 66.805374 75.591522
v 223.868088 66.805374 78.408432
v 223.877106 67.377174 75.614136
v 223.877228 67.377121 78.385551
v 223.513702 67.998566 75.985779
v 223.919983 67.940186 75.688644
v 223.515015 68.000381 78.012741
v 223.920486 67.939278 78.311028
v 223.598434 68.572990 76.055321
v 223.980347 68.558029 75.728043
v 223.595627 68.576332 77.945435
v 223.978867 68.556984 78.273483
v 223.719391 69.129303 76.065079
v 224.010452 69.134224 75.754967
v 223.473846 69.173325 76.999146
v 223.718460 69.129379 77.935905
v 224.010223 69.133148 78.244720
v 223.814575 69.658440 76.087387
v 224.064438 69.636246 75.801094
v 223.643356 69.707962 76.999252
v 223.819641 69.656128 77.909943
v 224.066162 69.634972 78.197495
v 223.924652 69.996147 76.040810
v 223.794754 70.216255 76.999451
v 223.901443 70.299911 76.511452
v 223.903534 70.294594 77.487167
v 223.935516 69.992432 77.955910
v 223.908844 70.569771 77.004219
v 223.775574 82.784225 80.704330
v 223.755920 82.620644 81.062988
v 223.755325 82.619133 81.937843
v 223.777542 82.783493 82.297264
v 223.552368 83.227600 80.014977
v 223.911224 83.094368 80.324059
v 223.552307 83.227089 82.984177
v 223.913376 83.095047 82.677414
v 223.815140 83.866158 79.692070
v 223.885040 83.433174 79.959633
v 223.882614 83.434082 83.041397
v 223.815765 83.866119 83.307526
v 223.850937 84.381737 79.607140
v 223.850891 84.381729 83.392815
v 223.852753 84.836769 79.736008
v 223.852783 84.836838 83.264091
v 223.852570 85.209763 80.042297
v 223.852295 85.520134 80.517960
v 223.852554 85.209846 82.957787
v 223.852203 85.520012 82.482086
v 223.852997 85.703041 81.034027
v 223.853104 85.702667 81.965981
v 224.450150 65.798531 75.761513
v 224.451447 65.565254 76.073288
v 224.450180 65.453705 76.999863
v 224.451340 65.564705 77.926765
v 224.450180 65.798126 78.239029
v 224.439789 66.232002 75.582817
v 224.439758 66.231964 78.417236
v 224.437881 66.804573 75.519211
v 224.437851 66.804558 78.480789
v 224.437637 67.390907 75.528976
v 224.437561 67.390907 78.470985
v 224.443512 67.975449 75.545830
v 224.443512 67.975441 78.454041
v 224.446640 68.561974 75.560188
v 224.446625 68.561981 78.439896
v 224.450363 69.146767 75.576981
v 224.450409 69.146790 78.422928
v 224.463074 69.721184 75.614136
v 224.463196 69.721161 78.385674
v 224.102432 70.348717 76.012115
v 224.510605 70.282921 75.698807
v 224.105545 70.351662 77.986397
v 224.510849 70.280640 78.302536
v 224.277267 70.884399 76.053909
v 224.588806 70.889336 75.747192
v 224.044418 70.937332 76.997688
v 224.276062 70.886719 77.945808
v 224.587784 70.886856 78.251770
v 224.390442 71.418739 76.084686
v 224.649582 71.394821 75.800522
v 224.205933 71.476830 76.999611
v 224.393631 71.417915 77.911552
v 224.650696 71.393539 78.198616
v 224.495148 71.759689 76.040703
v 224.338486 72.032585 77.000015
v 224.434357 72.092506 76.479012
v 224.434280 72.090218 77.523117
v 224.504852 71.758232 77.959061
v 224.451843 72.571663 76.999535
v 224.554199 72.620033 76.555412
v 224.550507 72.617844 77.447807
v 224.524124 72.904282 77.003204
v 224.084259 82.729027 81.030067
v 224.084808 82.727676 81.970078
v 224.422424 83.145874 80.480492
v 224.463287 82.882988 81.005936
v 224.462158 82.882309 81.993446
v 224.425034 83.145119 82.517029
v 224.434296 83.922417 79.724800
v 224.436707 83.518135 80.012421
v 224.434830 83.516762 82.987549
v 224.434967 83.922600 83.275780
v 224.437988 84.383995 79.619431
v 224.437958 84.383972 83.380615
v 224.438080 84.837936 79.734039
v 224.438065 84.837929 83.265999
v 224.438614 85.216507 80.036919
v 224.440063 85.543343 80.507629
v 224.438995 85.216904 82.963158
v 224.438400 85.542839 82.493080
v 224.442566 85.750412 81.027718
v 224.443909 85.750343 81.973312
v 225.008713 65.801796 75.771271
v 225.008408 65.570290 76.074356
v 225.007538 65.467911 77.000275
v 225.008423 65.568718 77.926514
v 225.008743 65.800858 78.230057
v 225.009232 66.232834 75.610413
v 225.009140 66.232773 78.389565
v 225.014618 66.804825 75.564453
v 225.014633 66.804817 78.435616
v 225.018463 67.390526 75.545837
v 225.018494 67.390549 78.454056
v 225.024445 67.975098 75.528984
v 225.024353 67.975082 78.470985
v 225.024155 68.561852 75.513123
v 225.024078 68.561844 78.486862
v 225.023895 69.148140 75.512939
v 225.023880 69.148132 78.487045
v 225.023926 69.734985 75.523323
v 225.023849 69.734962 78.476631
v 225.029358 70.319809 75.546700
v 225.029297 70.319832 78.453323
v 225.036423 70.904770 75.576828
v 225.036453 70.904762 78.422974
v 225.049118 71.479179 75.614113
v 225.049210 71.479118 78.385551
v 224.685730 72.100563 75.985756
v 225.091995 72.042198 75.688637
v 224.686996 72.102386 78.012741
v 225.092438 72.041306 78.311012
v 224.770447 72.674988 76.055351
v 225.152359 72.660019 75.728020
v 224.767654 72.678375 77.945465
v 225.150879 72.658997 78.273506
v 224.891403 73.231285 76.065079
v 225.182449 73.236214 75.754944
v 224.645859 73.275322 76.999146
v 224.890472 73.231369 77.935905
v 225.182236 73.235153 78.244713
v 224.986511 73.760414 76.087395
v 225.236343 73.738220 75.801094
v 224.815353 73.809937 76.999237
v 224.991653 73.758125 77.909958
v 225.238205 73.736984 78.197525
v 225.096603 74.098145 76.040802
v 224.966782 74.318283 76.999481
v 225.073425 74.401878 76.511452
v 225.075500 74.396584 77.487160
v 225.107529 74.094444 77.955910
v 225.080811 74.671745 77.004196
v 225.021515 83.228271 80.509537
v 225.017990 83.023216 81.028542
v 225.016632 83.023392 81.972458
v 225.023270 83.228157 82.491447
v 225.023117 83.931198 79.736130
v 225.022842 83.554092 80.039047
v 225.022522 83.553261 82.961380
v 225.023209 83.931145 83.264008
v 225.023911 84.383995 79.620117
v 225.023880 84.384010 83.379921
v 225.027695 84.845482 79.725067
v 225.027039 84.845390 83.275764
v 225.025238 85.249855 80.012428
v 225.039627 85.623215 80.480026
v 225.027206 85.251228 82.987549
v 225.036987 85.622871 82.517029
v 224.998688 85.884987 81.005951
v 224.999771 85.885658 81.993446
v 225.409760 65.832321 75.858604
v 225.469223 65.665390 76.077774
v 225.488007 65.595871 76.999962
v 225.469543 65.664062 77.922516
v 225.410522 65.831604 78.142365
v 225.450470 66.234116 75.761597
v 225.449997 66.235237 78.237236
v 225.482040 66.807678 75.727356
v 225.483490 66.808838 78.274063
v 225.542038 67.425812 75.688652
v 225.541611 67.426720 78.311005
v 225.584885 67.988800 75.614128
v 225.584747 67.988869 78.385551
v 225.597565 68.563225 75.576828
v 225.597519 68.563232 78.422981
v 225.604645 69.148170 75.546707
v 225.604675 69.148163 78.453316
v 225.610077 69.733032 75.523315
v 225.610077 69.733032 78.476639
v 225.610107 70.319855 75.512939
v 225.610123 70.319855 78.487053
v 225.609863 70.906151 75.513130
v 225.609894 70.906143 78.486870
v 225.609589 71.492897 75.528984
v 225.609619 71.492912 78.471001
v 225.615479 72.077461 75.545830
v 225.615555 72.077461 78.454048
v 225.618637 72.663986 75.560196
v 225.618637 72.663994 78.439903
v 225.622391 73.248779 75.576973
v 225.622482 73.248779 78.422943
v 225.635071 73.823158 75.614128
v 225.635254 73.823158 78.385674
v 225.274429 74.450722 76.012115
v 225.682602 74.384911 75.698807
v 225.277542 74.453674 77.986397
v 225.682846 74.382645 78.302536
v 225.449265 74.986465 76.054024
v 225.760818 74.991364 75.747169
v 225.220490 75.037552 76.997780
v 225.448929 74.988342 77.945511
v 225.759842 74.988876 78.251778
v 225.568069 75.518280 76.085846
v 225.822266 75.495697 75.801292
v 225.400864 75.568153 76.999390
v 225.572937 75.516258 77.911720
v 225.824005 75.494377 78.197243
v 225.686752 75.852798 76.044472
v 225.552719 76.076248 76.999458
v 225.667709 76.154419 76.514320
v 225.667252 76.151207 77.485153
v 225.697754 75.848831 77.951973
v 225.691696 76.414024 77.002945
v 225.602631 83.279945 80.533913
v 225.597672 83.101715 81.038795
v 225.597778 83.101181 81.961479
v 225.603958 83.277374 82.467621
v 225.598053 83.941048 79.750519
v 225.601868 83.581017 80.059364
v 225.603394 83.577103 82.943420
v 225.598312 83.940186 83.250618
v 225.609711 84.387642 79.621223
v 225.609634 84.387642 83.379051
v 225.649399 84.901688 79.694450
v 225.646790 84.900711 83.305412
v 225.575363 85.339386 79.954437
v 225.548218 85.682793 80.316460
v 225.579361 85.333893 83.041275
v 225.548676 85.672836 82.677338
v 225.377289 86.039368 81.029015
v 225.684158 86.001564 80.692184
v 225.377228 86.040306 81.970085
v 225.684662 85.983849 82.296776
v 225.702957 86.164368 81.060043
v 225.706772 86.147835 81.937897
v 225.589111 65.772705 76.079964
v 225.679367 65.761429 77.002533
v 225.586960 65.771301 77.922401
v 225.730026 66.241905 76.067451
v 225.951721 66.215843 76.996498
v 225.731659 66.239273 77.929596
v 225.864700 66.791916 76.055809
v 226.077682 66.849434 76.556229
v 226.096405 66.570793 77.002167
v 226.083527 66.850182 77.447823
v 225.867035 66.788971 77.945000
v 225.948288 67.367409 75.985741
v 226.199738 67.375511 76.478996
v 225.946991 67.365623 78.012733
v 226.199722 67.377777 77.523148
v 225.984390 68.073189 75.800575
v 226.138794 67.708336 76.040749
v 226.129242 67.709732 77.959076
v 225.983322 68.074440 78.198639
v 226.045029 68.578667 75.747246
v 226.046234 68.581100 78.251854
v 226.123413 69.185089 75.698837
v 226.123199 69.187370 78.302536
v 226.170898 69.746819 75.614151
v 226.170746 69.746834 78.385666
v 226.183533 70.321205 75.576973
v 226.183502 70.321205 78.422935
v 226.187347 70.906021 75.560204
v 226.187347 70.906013 78.439896
v 226.190460 71.492546 75.545845
v 226.190460 71.492554 78.454048
v 226.196381 72.077103 75.528984
v 226.196426 72.077095 78.470993
v 226.196091 72.663849 75.513123
v 226.196091 72.663857 78.486877
v 226.195831 73.250130 75.512924
v 226.195847 73.250130 78.487061
v 226.195816 73.836960 75.523323
v 226.195877 73.836975 78.476639
v 226.201324 74.421814 75.546715
v 226.201309 74.421822 78.453316
v 226.208374 75.006752 75.576828
v 226.208527 75.006744 78.422997
v 226.221848 75.580238 75.616898
v 226.221985 75.580254 78.383080
v 225.875916 76.193771 76.019707
v 226.277420 76.131622 75.714378
v 225.879776 76.195427 77.978806
v 226.277603 76.129753 78.287132
v 226.100204 76.694176 76.073120
v 226.395248 76.667213 75.787987
v 225.858765 76.760979 76.997864
v 226.102905 76.694763 77.924118
v 226.394791 76.664093 78.210274
v 226.259476 77.027534 76.039764
v 226.107742 77.254616 76.999268
v 226.244003 77.329720 76.512436
v 226.242630 77.327057 77.487549
v 226.269211 77.024071 77.957588
v 226.270386 77.587685 77.002991
v 226.139084 83.364761 80.582016
v 226.103577 83.193245 81.051399
v 226.106125 83.188293 81.950851
v 226.137070 83.359047 82.421677
v 226.105225 83.992195 79.788109
v 226.141724 83.649979 80.096756
v 226.145294 83.640015 82.906815
v 226.101776 83.991257 83.209717
v 226.183807 84.408966 79.626434
v 226.180161 84.410957 83.364410
v 226.211823 84.948677 79.612564
v 226.208298 84.940796 83.354233
v 225.895981 85.564224 79.989670
v 226.312500 85.430321 79.744507
v 225.910980 85.536652 82.980156
v 226.281860 85.353409 83.197441
v 226.219803 85.818527 80.034683
v 226.175079 86.121658 80.481102
v 226.242310 85.702827 82.893066
v 226.189636 86.016006 82.445801
v 226.229858 86.311386 81.019333
v 226.210022 86.244614 81.954727
v 226.182205 66.896362 76.999512
v 226.295532 67.435448 77.000015
v 226.243423 68.049362 76.084976
v 226.428055 67.991150 77.000137
v 226.240524 68.049911 77.911942
v 226.355911 68.583908 76.053955
v 226.589569 68.530647 76.997284
v 226.358551 68.581017 77.945854
v 226.531479 69.119339 76.012184
v 226.732574 69.168106 76.511459
v 226.725174 68.898232 77.004196
v 226.730499 69.173431 77.487160
v 226.528580 69.116295 77.986465
v 226.569550 69.831764 75.801125
v 226.709274 69.471848 76.040855
v 226.698563 69.475563 77.955917
v 226.567856 69.833031 78.197556
v 226.623398 70.333801 75.755058
v 226.623871 70.334824 78.244789
v 226.653641 70.909973 75.728065
v 226.655167 70.911034 78.273476
v 226.713989 71.527809 75.688637
v 226.713531 71.528694 78.311020
v 226.756866 72.090820 75.614136
v 226.756714 72.090881 78.385559
v 226.769608 72.665237 75.576828
v 226.769547 72.665245 78.422981
v 226.776657 73.250191 75.546707
v 226.776672 73.250160 78.453331
v 226.782104 73.835030 75.523323
v 226.782089 73.835030 78.476646
v 226.782104 74.421860 75.512939
v 226.782120 74.421860 78.487068
v 226.781830 75.008125 75.512932
v 226.781876 75.008141 78.487061
v 226.781830 75.594994 75.524315
v 226.781830 75.594971 78.475655
v 226.789597 76.178925 75.561989
v 226.789536 76.178955 78.438110
v 226.807922 76.752190 75.617050
v 226.808029 76.752213 78.382866
v 226.461853 77.365761 76.019691
v 226.863464 77.303673 75.714378
v 226.465729 77.367401 77.978798
v 226.863617 77.301735 78.287056
v 226.686203 77.866165 76.073112
v 226.981277 77.839218 75.787987
v 226.444733 77.932991 76.997871
v 226.688889 77.866776 77.924133
v 226.980957 77.836517 78.210297
v 226.845505 78.199547 76.039772
v 226.693756 78.426613 76.999275
v 226.827957 78.503456 76.511681
v 226.822845 78.502426 77.489540
v 226.850983 78.199654 77.961487
v 226.843109 78.769173 77.003555
v 226.436462 83.294365 81.018494
v 226.440872 83.290924 81.985237
v 226.487396 83.807083 80.001930
v 226.788589 83.627136 80.403572
v 226.841919 83.440453 80.984512
v 226.811325 83.452278 82.002403
v 226.473312 83.825005 82.974915
v 226.815796 83.719269 82.546402
v 226.778946 84.398598 79.635651
v 226.784073 83.939857 79.915184
v 226.796799 84.051498 83.009781
v 226.726913 84.464912 83.271095
v 226.781540 84.973274 79.523613
v 226.748306 84.949539 83.315147
v 226.808701 85.536713 79.579346
v 226.686661 85.350349 83.184105
v 226.532425 86.070740 80.053757
v 226.888123 85.966125 79.755547
v 226.734222 85.701996 82.890633
v 226.802689 86.040070 82.462181
v 226.851883 86.241150 80.072151
v 226.763107 86.512703 81.007553
v 226.788177 86.312637 81.958649
v 226.839233 69.251747 76.999489
v 226.819473 69.809822 76.087959
v 226.990631 69.760017 77.000298
v 226.814301 69.811607 77.910515
v 226.913757 70.339149 76.064781
v 227.160095 70.294670 76.998260
v 226.916336 70.338219 77.935661
v 227.035431 70.895088 76.055412
v 227.251801 70.949936 76.555389
v 227.281906 70.665733 77.003197
v 227.255508 70.952171 77.447830
v 227.038467 70.891579 77.945488
v 227.120270 71.469429 75.985771
v 227.371704 71.477509 76.479012
v 227.118927 71.467598 78.012741
v 227.371704 71.479759 77.523125
v 227.156357 72.175201 75.800552
v 227.310791 71.810341 76.040726
v 227.301208 71.811745 77.959084
v 227.155319 72.176453 78.198639
v 227.217072 72.680656 75.747253
v 227.218262 72.683121 78.251839
v 227.295425 73.287071 75.698830
v 227.295151 73.289360 78.302528
v 227.342850 73.848816 75.614136
v 227.342773 73.848824 78.385674
v 227.355576 74.423248 75.576820
v 227.355530 74.423248 78.422989
v 227.362625 75.008186 75.546707
v 227.362671 75.008179 78.453339
v 227.368088 75.593040 75.523315
v 227.368042 75.593048 78.476654
v 227.367996 76.179993 75.514053
v 227.367981 76.179985 78.485931
v 227.367874 76.766983 75.524300
v 227.367874 76.766983 78.475670
v 227.375565 77.350914 75.561996
v 227.375549 77.350967 78.438110
v 227.393982 77.924217 75.617035
v 227.393341 77.925140 78.385483
v 227.049042 78.536758 76.019371
v 227.449448 78.475624 75.714447
v 227.035568 78.556221 77.986290
v 227.436203 78.486839 78.317932
v 227.265594 79.041191 76.070183
v 227.566452 79.011688 75.787109
v 226.996353 79.131088 77.002258
v 227.208511 79.089943 77.947464
v 227.505615 79.092667 78.299721
v 227.411346 79.380898 76.034241
v 227.196106 79.662674 77.010017
v 227.349136 79.709465 76.478546
v 227.328522 79.618912 77.916862
v 227.558380 79.612358 78.258163
v 227.356689 80.174332 77.014465
v 227.508392 80.215805 76.572281
v 227.440323 80.245682 77.483528
v 227.447983 79.955612 77.959732
v 227.495468 80.480614 77.008797
v 227.080444 83.812065 80.014587
v 227.455032 83.988762 79.767036
v 227.434784 83.759750 80.095161
v 227.365005 83.543381 81.002525
v 227.352173 83.632965 81.962891
v 227.373154 83.893974 82.465103
v 227.372009 84.385979 79.508652
v 227.293716 84.223656 82.896790
v 227.182068 84.545349 83.150238
v 227.312592 84.939308 79.337936
v 227.164169 84.875885 83.181351
v 227.282394 85.560654 79.351013
v 227.050522 85.520218 82.955391
v 227.339371 85.241142 82.960579
v 227.457443 85.640648 82.686386
v 227.374802 86.113091 79.519836
v 227.365433 86.047745 82.360321
v 227.348053 86.478836 79.990860
v 227.128891 86.642326 80.991272
v 227.397736 86.669647 80.514252
v 227.413528 86.599579 81.438599
v 227.347382 86.391968 81.942123
v 227.474106 86.729683 80.985329
v 227.354141 70.998344 76.999504
v 227.467499 71.537422 77.000000
v 227.415421 72.151421 76.085014
v 227.600006 72.093155 77.000122
v 227.412476 72.151924 77.911903
v 227.527954 72.685905 76.053963
v 227.761551 72.632652 76.997269
v 227.530548 72.683022 77.945847
v 227.703506 73.221313 76.012161
v 227.904587 73.270111 76.511475
v 227.897171 73.000259 77.004189
v 227.902481 73.275421 77.487160
v 227.700531 73.218262 77.986458
v 227.741531 73.933792 75.801201
v 227.881256 73.573845 76.040840
v 227.870575 73.577576 77.955917
v 227.739899 73.935188 78.197357
v 227.803070 74.438629 75.747238
v 227.804230 74.441093 78.251854
v 227.881363 75.045074 75.698830
v 227.881149 75.047379 78.302490
v 227.928848 75.606834 75.614288
v 227.928696 75.606865 78.385460
v 227.946381 76.181046 75.561989
v 227.946426 76.181007 78.438103
v 227.954132 76.764992 75.524300
v 227.954041 76.765007 78.475655
v 227.954010 77.351997 75.514053
v 227.954010 77.351997 78.485939
v 227.953491 77.938927 75.529953
v 227.952362 77.940186 78.493935
v 227.961853 78.522720 75.562401
v 227.946518 78.521965 78.529732
v 227.979965 79.096260 75.616875
v 227.931732 79.080490 78.610367
v 227.628601 79.708710 75.996353
v 228.031433 79.648804 75.706009
v 227.908722 79.691597 78.593376
v 227.783905 80.224991 76.084267
v 228.143005 80.177864 75.790741
v 227.621643 80.305565 77.998505
v 227.979431 80.269676 78.477364
v 228.009369 80.530449 76.047508
v 227.722244 80.802185 77.024620
v 227.979553 80.845329 76.513710
v 227.866470 80.783218 77.945061
v 228.093918 80.795937 78.306786
v 227.979538 81.138268 77.005165
v 228.044907 81.102524 77.970039
v 227.964600 83.940300 79.678650
v 227.955719 83.738403 80.067818
v 227.935181 83.627739 80.993553
v 227.875183 83.760147 81.915749
v 227.858994 83.974724 82.263580
v 227.874924 84.310539 79.330521
v 227.525787 84.444199 82.879662
v 227.935669 84.393417 82.545937
v 227.747299 85.005524 79.062836
v 228.136169 85.065140 78.772797
v 227.980682 84.697159 79.033981
v 227.559067 84.931808 82.919640
v 227.997879 84.996483 82.633354
v 227.695801 85.555489 79.035957
v 228.092468 85.556335 78.710396
v 227.957397 85.565247 82.532364
v 227.772614 86.097527 79.085838
v 228.138947 86.051231 78.756332
v 227.952103 86.025642 82.299751
v 228.017578 86.377556 79.058998
v 227.678314 86.687675 80.009056
v 227.995682 86.659134 79.526634
v 227.953781 86.375427 81.953049
v 227.957840 86.661644 81.469963
v 228.035477 86.800323 80.048523
v 227.971359 86.814728 80.965218
v 228.011246 73.353745 76.999489
v 227.995865 73.911896 76.086266
v 228.163055 73.861801 77.000092
v 227.991165 73.913544 77.912117
v 228.113953 74.443916 76.053963
v 228.343491 74.392448 76.997169
v 228.115738 74.441376 77.945457
v 228.289474 74.979332 76.012177
v 228.500092 75.024818 76.509613
v 228.490219 74.756660 77.004242
v 228.499146 75.029594 77.489563
v 228.286545 74.976288 77.986443
v 228.340546 75.692276 75.787956
v 228.480438 75.329102 76.036156
v 228.470993 75.332367 77.961479
v 228.341003 75.695480 78.210304
v 228.458557 76.228340 75.714386
v 228.458374 76.230255 78.287064
v 228.514053 76.779770 75.616890
v 228.513916 76.779762 78.382866
v 228.528702 77.353073 75.574196
v 228.533035 77.353462 78.443878
v 228.534454 77.938522 75.546646
v 228.538544 77.936554 78.520897
v 228.540237 78.523247 75.530144
v 228.506561 78.477051 78.658737
v 228.539642 79.110756 75.531151
v 228.591431 78.932777 78.900902
v 228.357788 79.166466 78.903519
v 228.705185 79.294510 79.140457
v 228.547989 79.693588 75.570000
v 228.298172 79.696358 78.946831
v 228.693863 79.698708 79.219604
v 228.568878 80.256432 75.631882
v 228.363998 80.236259 78.915138
v 228.734848 80.187744 79.206680
v 228.281082 80.835976 76.034454
v 228.669174 80.740540 75.759453
v 228.557968 80.566643 78.981735
v 228.433487 80.922539 78.666283
v 228.558472 81.140091 76.027496
v 228.217010 81.469185 77.002434
v 228.517761 81.490982 76.467400
v 228.250931 81.452164 77.982391
v 228.557159 81.445114 78.486809
v 228.486389 81.939377 77.054436
v 228.687210 81.960922 76.698814
v 228.491013 81.937393 77.943451
v 228.699005 81.956833 78.290825
v 228.670792 82.233177 77.041885
v 228.671417 82.232681 77.957047
v 228.477966 83.973610 79.568298
v 228.453415 83.776642 80.052933
v 228.445480 83.737617 80.971550
v 228.195389 83.883789 81.946587
v 228.497223 83.864372 81.475525
v 228.271912 84.418854 79.045387
v 228.634552 84.560638 78.764397
v 228.619339 84.219215 79.120529
v 228.505432 84.129532 81.963661
v 228.423706 84.495575 82.282249
v 228.562439 84.984360 78.541679
v 228.506500 84.990540 82.409401
v 228.524384 85.533379 78.407021
v 228.522522 85.544601 82.396797
v 228.563080 86.136078 78.453781
v 228.526123 85.997581 82.246246
v 228.307724 86.627655 79.061150
v 228.639969 86.562477 78.727165
v 228.532532 86.362228 81.942039
v 228.537506 86.671745 81.471176
v 228.618393 86.767517 79.084007
v 228.557251 86.908195 80.007156
v 228.540100 86.850586 80.958733
v 228.628235 75.105377 76.999290
v 228.635757 75.665833 76.073105
v 228.877228 75.599014 76.997864
v 228.633072 75.665184 77.924133
v 228.860092 76.166214 76.019707
v 229.078018 76.202293 76.512451
v 229.051590 75.944344 77.002975
v 229.079376 76.204948 77.487549
v 228.856247 76.164581 77.978798
v 228.920242 76.863632 75.795074
v 229.057343 76.505806 76.041618
v 229.052795 76.507950 77.957565
v 228.927200 76.867920 78.210274
v 228.987061 77.367180 75.743561
v 229.046341 77.401772 78.292229
v 229.057068 77.974602 75.690941
v 229.107208 77.956337 78.425705
v 229.100876 78.536812 75.614098
v 229.147720 78.486938 78.619110
v 229.114609 79.111160 75.574585
v 229.087219 78.922661 78.915619
v 229.031174 79.316856 79.178238
v 229.119690 79.696831 75.555153
v 229.114166 79.731277 79.310577
v 229.125641 80.280411 75.565948
v 229.155167 80.266960 79.345947
v 229.151062 80.842751 75.621620
v 228.777008 80.891678 79.024330
v 229.204041 80.819176 79.291336
v 228.854736 81.432701 76.024490
v 229.252747 81.327293 75.757141
v 228.933777 81.408394 78.929070
v 229.312408 81.351547 79.212936
v 229.138306 81.734314 76.019249
v 229.078125 82.092239 76.359047
v 229.160034 81.722473 78.960960
v 229.083771 82.087708 78.635254
v 228.924210 82.537788 77.036964
v 229.207062 82.546295 76.673050
v 228.923782 82.538162 77.963295
v 229.207291 82.546356 78.326813
v 229.207520 82.837524 77.034218
v 229.207397 82.837631 77.965790
v 228.800446 83.857841 80.013535
v 228.792557 83.863426 80.992134
v 229.131409 84.473099 78.634323
v 229.136765 84.212341 79.044937
v 229.167542 83.972267 79.984520
v 229.139984 84.062714 80.997330
v 228.810226 84.403770 81.972740
v 229.160248 84.369217 81.529274
v 229.037979 84.890594 78.320900
v 229.079422 84.713181 81.955612
v 228.933487 85.070564 82.208046
v 228.934982 85.593498 78.079025
v 229.317001 85.638252 77.763802
v 229.151550 85.281021 78.030060
v 228.975647 85.554642 82.235306
v 228.950989 86.097786 78.094330
v 229.322479 86.056656 77.770523
v 228.951035 85.965935 82.155685
v 229.180389 86.386780 78.060699
v 229.109314 86.696548 78.486275
v 229.055695 86.284401 81.883705
v 229.127533 86.599876 81.446648
v 229.154617 86.915726 79.020218
v 229.128876 86.963066 79.999046
v 229.113846 86.831909 80.949966
v 229.213791 76.277481 76.999352
v 229.197128 76.839287 76.083847
v 229.456909 76.774124 76.998665
v 229.218964 76.837257 77.924118
v 229.361649 77.352638 76.063499
v 229.594299 77.399727 76.558197
v 229.613998 77.121773 77.008003
v 229.646133 77.384369 77.483757
v 229.442719 77.336266 77.978889
v 229.462982 77.916862 75.986954
v 229.736740 77.921318 76.475670
v 229.630646 77.681969 77.954544
v 229.521225 78.035355 78.227287
v 229.507034 78.620560 75.794006
v 229.665894 78.252617 76.033806
v 229.666565 78.555367 78.373596
v 229.573715 79.125038 75.742996
v 229.395660 79.141434 78.959045
v 229.777359 79.043251 78.655571
v 229.646408 79.733299 75.687668
v 229.701508 79.414444 78.983505
v 229.585571 79.824966 79.238121
v 229.691376 80.295265 75.601982
v 229.685364 80.310448 79.358498
v 229.712112 80.866837 75.583733
v 229.722794 80.865303 79.391846
v 229.737106 81.428093 75.627235
v 229.741943 81.427101 79.360062
v 229.429291 82.029678 76.014320
v 229.837616 81.914337 75.755547
v 229.432785 82.027267 78.981125
v 229.838242 81.915154 79.244896
v 229.721741 82.323273 76.013702
v 229.653061 82.685089 76.348778
v 229.721710 82.323334 78.986412
v 229.652359 82.685822 78.652153
v 229.500122 83.130730 77.033867
v 229.784760 83.139763 76.664391
v 229.493790 83.139114 77.967583
v 229.772491 83.155174 78.348701
v 229.783752 83.435745 77.033890
v 229.742172 83.475769 77.983955
v 229.673965 84.258232 78.442001
v 229.710251 84.110542 79.025658
v 229.708328 84.094032 79.994049
v 229.641037 84.294067 80.926949
v 229.624939 84.536224 81.286293
v 229.416199 84.965248 77.998512
v 229.773163 85.032768 77.651848
v 229.694244 84.663986 77.984970
v 229.311935 85.011971 81.912636
v 229.699387 84.974815 81.556610
v 229.731308 85.556404 77.451614
v 229.378998 85.554886 81.957634
v 229.773102 85.555550 81.611488
v 229.742584 86.134071 77.462830
v 229.294739 86.077194 81.892242
v 229.692215 86.133011 81.547531
v 229.464218 86.655769 78.053421
v 229.798325 86.579033 77.711227
v 229.612503 86.544533 81.256851
v 229.777512 86.836304 78.065681
v 229.692200 87.106339 79.011414
v 229.709045 86.999535 79.991173
v 229.637543 86.761559 80.905785
v 229.735733 77.454208 77.012817
v 229.891571 77.969528 77.010063
v 229.779709 78.017242 77.921158
v 229.793732 78.594101 76.079834
v 230.108521 78.487717 76.987289
v 230.007767 78.522438 77.972443
v 229.966156 79.109756 76.058327
v 230.266922 79.156723 76.543839
v 230.288544 78.831909 77.007362
v 230.245178 78.862717 77.976471
v 230.224289 79.183449 78.333656
v 230.074295 79.667549 75.960770
v 230.404434 79.635963 76.328033
v 229.994720 79.706207 78.985703
v 230.346863 79.644447 78.641373
v 230.170013 80.399048 75.749619
v 230.307022 79.982544 75.992401
v 230.284271 80.001808 78.981995
v 230.169846 80.408501 79.241875
v 230.267609 80.894608 75.635941
v 230.268311 80.894791 79.360413
v 230.287003 81.456657 75.608109
v 230.287094 81.456680 79.391739
v 230.324814 82.011513 75.641319
v 230.324768 82.011505 79.358757
v 230.011612 82.619888 76.009171
v 230.425888 82.506744 75.752701
v 230.011536 82.620010 78.990784
v 230.426361 82.507683 79.247284
v 230.289307 82.925484 75.990685
v 230.183487 83.270401 76.325127
v 230.282776 82.930641 79.018730
v 230.140488 83.285271 78.713814
v 230.044968 83.775848 77.043251
v 230.344162 83.744919 76.548149
v 229.878098 83.859520 78.054962
v 230.098450 83.725372 78.595818
v 230.262756 84.111267 76.981903
v 229.904160 84.306366 77.905365
v 230.132721 84.433929 77.423309
v 230.175659 83.883499 79.048019
v 230.267822 84.173439 79.980225
v 229.959656 84.455727 80.946960
v 230.322266 84.411133 80.504456
v 230.152512 84.899979 77.297256
v 230.244446 84.721184 80.949562
v 230.116058 85.059586 81.247299
v 230.116501 85.595146 77.088036
v 230.496887 85.639076 76.796844
v 230.307739 85.266960 77.009872
v 230.167557 85.556923 81.304161
v 230.125046 86.097687 77.097755
v 230.502930 86.041710 76.821106
v 230.116440 86.052841 81.246307
v 230.349625 86.390335 77.059860
v 230.265442 86.742859 77.473618
v 229.956131 86.644051 80.937950
v 230.252029 86.393074 80.945869
v 230.336563 86.721947 80.526688
v 230.267746 87.075104 77.985466
v 230.058197 87.229080 78.991341
v 230.327408 87.253845 78.514404
v 230.340698 87.191742 79.441551
v 230.251587 87.000656 79.991035
v 230.403473 87.312157 78.984962
v 230.524765 79.172096 77.019409
v 230.506302 79.190147 77.964447
v 230.746902 79.766693 76.688599
v 230.758286 79.498154 77.039749
v 230.753662 79.502449 77.958328
v 230.737457 79.775314 78.301231
v 230.568649 80.302086 76.025429
v 230.903076 80.242393 76.466316
v 230.565750 80.304573 78.970253
v 230.902100 80.248268 78.529526
v 230.693268 80.972359 75.791580
v 230.832443 80.613815 76.049408
v 230.840195 80.609589 78.956604
v 230.696472 80.971672 79.210251
v 230.807083 81.503601 75.709442
v 230.807190 81.504196 79.291496
v 230.859818 82.056679 75.640137
v 230.859833 82.056709 79.359764
v 230.908096 82.609283 75.640121
v 230.906952 82.611382 79.366722
v 230.531845 83.235634 75.971741
v 230.960541 83.162506 75.708549
v 230.488174 83.253181 79.074875
v 230.936035 83.184219 79.343636
v 230.699951 83.745094 76.077202
v 231.072372 83.694542 75.789940
v 230.439362 83.721390 79.106407
v 230.919235 83.797874 79.515495
v 230.926910 84.057297 76.042732
v 230.456909 84.430954 76.917328
v 230.823715 84.449203 76.440178
v 230.794449 84.171432 79.903572
v 230.804260 84.527023 80.293159
v 230.485931 84.926575 76.920654
v 230.887314 84.999153 76.578407
v 230.485199 85.011261 80.915108
v 230.881409 84.969513 80.568077
v 230.918320 85.550728 76.596939
v 230.561722 85.554939 80.969948
v 230.976547 85.554642 80.656082
v 230.907059 86.088234 76.689987
v 230.497986 86.101936 80.930710
v 230.916245 86.165413 80.617744
v 230.635712 86.659706 77.066185
v 230.895340 86.470337 76.864799
v 230.863495 86.635353 80.345154
v 230.890564 86.817802 77.140938
v 230.620499 87.243965 78.027222
v 230.945724 87.113823 77.595520
v 230.877136 86.955276 79.953041
v 230.881165 87.214111 79.454247
v 230.952301 87.312912 78.080040
v 230.889862 87.361664 78.962349
v 230.939575 79.796371 77.053375
v 230.937805 79.795998 77.945251
v 231.201736 80.269974 77.004822
v 231.204910 80.267838 77.997566
v 231.059250 80.925194 76.081177
v 231.415909 80.931213 76.557686
v 231.435791 80.606323 77.012222
v 231.439590 80.602791 77.990906
v 231.067474 80.917892 78.923248
v 231.414505 80.930717 78.447174
v 231.234421 81.431389 75.973557
v 231.582535 81.396950 76.326706
v 231.237442 81.427216 79.026917
v 231.585068 81.398155 78.673050
v 231.342102 82.159248 75.752693
v 231.477982 81.741112 75.991577
v 231.478104 81.740555 79.009651
v 231.342270 82.159470 79.247391
v 231.443237 82.654449 75.641251
v 231.443848 82.653877 79.360695
v 231.480896 83.209312 75.608185
v 231.475281 83.213921 79.432732
v 231.499756 83.771225 75.639526
v 231.470322 83.788765 79.550995
v 231.199982 84.362244 76.026405
v 231.597809 84.255623 75.761230
v 231.164078 84.401405 79.978851
v 231.574280 84.254776 79.740150
v 231.475189 84.669830 76.014259
v 231.362076 85.081345 76.297981
v 231.469513 84.677284 79.999741
v 231.359695 85.075714 80.289162
v 231.461853 85.572029 76.450600
v 231.439041 85.572594 80.416359
v 231.472778 86.126694 76.640472
v 231.430405 86.118912 80.389725
v 231.469940 86.579254 76.908875
v 231.176697 86.719368 77.012703
v 231.434113 86.895851 77.232178
v 231.368713 86.542320 80.220490
v 231.448074 87.125633 77.655014
v 231.410019 86.867592 79.896362
v 231.407227 87.153885 79.413467
v 231.384918 87.305260 78.065536
v 231.378479 87.320930 78.948196
v 231.698425 80.931068 77.020302
v 231.698776 80.929382 77.979881
v 231.983124 81.526985 76.664879
v 231.978439 81.237732 77.032524
v 231.978699 81.236191 77.968964
v 231.983932 81.527390 78.335518
v 231.756363 82.046097 76.009186
v 232.114822 81.981010 76.348907
v 231.756271 82.046188 78.990700
v 232.114899 81.980965 78.651169
v 231.929581 82.750977 75.755386
v 232.046234 82.342720 76.013672
v 232.046249 82.342728 78.986343
v 231.930466 82.751526 79.244652
v 232.026123 83.238869 75.639900
v 232.032745 83.236130 79.377342
v 232.041565 83.798950 75.618355
v 232.054062 83.799881 79.491379
v 232.068619 84.348801 75.675392
v 232.078278 84.362167 79.611610
v 231.780899 84.944695 76.031731
v 232.149872 84.765076 75.818123
v 231.762344 84.970566 79.998993
v 232.179169 84.855965 79.740448
v 232.092453 85.162529 76.079147
v 232.025406 85.607674 76.343918
v 232.032959 85.279335 79.970901
v 231.856613 85.647591 80.198250
v 232.061630 86.116592 76.571617
v 231.853729 86.047607 80.193352
v 231.765076 86.782188 77.059151
v 232.138855 86.517311 76.799995
v 231.720703 86.672340 79.945953
v 232.006149 86.393127 79.943420
v 232.086304 86.734749 79.525085
v 232.119232 86.782364 77.078613
v 232.079529 87.104523 77.970200
v 231.720581 87.228424 78.022934
v 231.709000 87.225204 78.981316
v 232.067795 87.043053 78.993004
v 232.268127 81.534851 77.033813
v 232.268005 81.534973 77.966187
v 232.560501 82.119850 76.673355
v 232.560501 81.828506 77.034233
v 232.560593 81.828377 77.965790
v 232.561111 82.119659 78.327011
v 232.334778 82.639107 76.019402
v 232.683182 82.580139 76.366264
v 232.338776 82.636284 78.985710
v 232.690521 82.574699 78.641022
v 232.448471 83.313339 75.795250
v 232.603622 82.945557 76.042923
v 232.628265 82.931793 78.981987
v 232.514801 83.337471 79.243881
v 232.498734 83.809441 75.748726
v 232.613907 83.822754 79.370667
v 232.496872 84.369171 75.768227
v 232.631363 84.388626 79.461647
v 232.477005 84.785233 75.858185
v 232.652374 84.965691 79.536667
v 232.590332 85.147400 76.098679
v 232.669357 85.591385 76.369728
v 232.245926 85.593948 79.918739
v 232.668060 85.527519 79.606522
v 232.622879 86.105888 76.597519
v 232.229645 86.097504 79.902634
v 232.620377 86.135727 79.546112
v 232.545242 86.504982 76.816483
v 232.551483 86.574364 79.284576
v 232.569962 86.737396 77.095154
v 232.612595 86.929863 77.997429
v 232.563721 86.807930 78.926781
v 232.843704 82.128265 77.036987
v 232.844238 82.127823 77.963326
v 233.052612 82.713760 76.720673
v 233.087997 82.436745 77.044243
v 233.097565 82.432434 77.958344
v 233.081390 82.705460 78.301125
v 232.802643 83.264015 76.096329
v 233.132950 83.204117 76.536102
v 232.909653 83.234665 78.970169
v 233.241119 83.180817 78.527023
v 232.880890 83.804909 76.046852
v 233.269318 83.820084 76.500999
v 233.181732 83.540756 78.954681
v 233.033844 83.900307 79.203033
v 232.897034 84.381584 76.041161
v 233.285049 84.383446 76.393669
v 233.087067 84.395706 79.256897
v 232.825302 84.914955 76.094055
v 233.242020 84.992462 76.402946
v 233.102966 84.973236 79.289894
v 233.206299 85.536186 76.558113
v 233.092316 85.549095 79.295319
v 233.103622 86.017159 76.749039
v 233.033432 86.049576 79.241501
v 233.170181 86.379532 77.050346
v 232.873978 86.624855 77.065285
v 233.144058 86.628967 77.528030
v 232.872406 86.631302 78.940697
v 233.136124 86.372093 78.938683
v 233.130859 86.627899 78.468506
v 233.092575 86.743752 77.999649
v 233.242615 82.727097 77.063774
v 233.274567 82.728622 77.944160
v 233.404022 83.229942 77.033615
v 233.523712 83.216209 77.976196
v 233.594147 83.753746 76.985573
v 233.753769 83.824951 77.513031
v 233.705078 83.577103 77.995132
v 233.378906 83.852219 78.901672
v 233.661926 83.861435 78.420898
v 233.625443 84.464203 76.739548
v 233.748032 84.117935 77.033951
v 233.449020 84.390610 78.943459
v 233.739380 84.390518 78.464134
v 233.645004 84.968933 76.727486
v 233.458435 84.969078 78.950768
v 233.751953 84.966705 78.471001
v 233.601837 85.447151 76.797455
v 233.445099 85.560905 78.925140
v 233.682617 85.508575 78.434288
v 233.675125 85.747696 77.052544
v 233.435562 86.075897 77.064362
v 233.565994 86.140762 78.009491
v 233.728210 85.800682 77.982216
v 233.295319 86.066666 78.915413
v 233.273254 86.589455 78.001999
v 233.816010 83.904129 77.983543
v 233.828384 84.460510 77.087158
v 233.892899 84.399422 77.965157
v 233.852097 84.969475 77.071251
v 233.898132 84.958969 77.958778
v 233.792664 85.453003 77.075104
v 233.845932 85.469070 77.952538
# 1452 vertices, 0 vertices normals

f 3 2 1
f 5 4 1
f 1 4 3
f 5 6 4
f 9 8 7
f 9 7 2
f 7 1 2
f 7 10 1
f 1 11 5
f 1 10 11
f 6 5 12
f 5 13 12
f 5 11 13
f 13 14 12
f 7 8 15
f 15 8 16
f 7 17 10
f 7 15 17
f 10 18 11
f 10 17 18
f 11 19 13
f 11 18 19
f 14 13 20
f 20 13 19
f 15 16 21
f 21 16 22
f 15 23 17
f 15 21 23
f 17 24 18
f 17 23 24
f 18 25 19
f 18 24 25
f 20 19 26
f 26 19 25
f 22 27 21
f 29 28 27
f 28 21 27
f 28 23 21
f 23 30 24
f 23 28 30
f 32 25 31
f 25 30 31
f 25 24 30
f 25 32 26
f 29 33 28
f 28 33 30
f 30 33 34
f 30 34 31
f 36 35 3
f 3 35 2
f 37 3 4
f 37 36 3
f 4 6 37
f 37 6 38
f 40 39 9
f 9 39 8
f 9 2 35
f 9 35 40
f 41 38 6
f 41 6 12
f 12 14 41
f 41 14 42
f 39 16 8
f 43 16 39
f 20 42 14
f 20 44 42
f 43 22 16
f 45 22 43
f 26 44 20
f 26 46 44
f 45 47 22
f 22 47 27
f 29 27 47
f 29 47 48
f 50 49 32
f 50 32 31
f 26 32 46
f 46 32 49
f 48 51 29
f 29 51 33
f 33 52 34
f 51 52 33
f 31 34 50
f 50 34 52
f 54 53 36
f 36 53 35
f 55 36 37
f 55 54 36
f 37 38 55
f 55 38 56
f 58 57 40
f 40 57 39
f 40 35 53
f 40 53 58
f 59 56 38
f 59 38 41
f 41 42 59
f 59 42 60
f 57 43 39
f 61 43 57
f 44 60 42
f 44 62 60
f 61 45 43
f 63 45 61
f 46 62 44
f 46 64 62
f 63 65 45
f 45 65 47
f 48 47 65
f 48 65 66
f 68 67 49
f 68 49 50
f 46 49 64
f 64 49 67
f 66 69 48
f 48 69 51
f 51 70 52
f 69 70 51
f 50 52 68
f 68 52 70
f 72 71 54
f 54 71 53
f 73 54 55
f 73 72 54
f 55 56 73
f 73 56 74
f 76 75 58
f 58 75 57
f 58 53 71
f 58 71 76
f 77 74 56
f 77 56 59
f 59 60 77
f 77 60 78
f 75 61 57
f 79 61 75
f 62 78 60
f 62 80 78
f 79 63 61
f 81 63 79
f 64 80 62
f 64 82 80
f 81 83 63
f 63 83 65
f 66 65 83
f 66 83 84
f 86 85 67
f 86 67 68
f 64 67 82
f 82 67 85
f 69 66 87
f 66 88 87
f 66 84 88
f 89 70 69
f 89 69 87
f 89 90 70
f 90 68 70
f 90 86 68
f 88 91 87
f 87 91 89
f 89 91 92
f 89 92 90
f 94 93 72
f 72 93 71
f 95 72 73
f 95 94 72
f 73 74 95
f 95 74 96
f 98 97 76
f 76 97 75
f 76 71 93
f 76 93 98
f 99 96 74
f 99 74 77
f 77 78 99
f 99 78 100
f 97 79 75
f 101 79 97
f 80 100 78
f 80 102 100
f 101 81 79
f 103 81 101
f 82 102 80
f 82 104 102
f 103 105 81
f 81 105 83
f 84 83 105
f 84 105 106
f 108 107 85
f 108 85 86
f 82 85 104
f 104 85 107
f 106 88 84
f 109 88 106
f 90 108 86
f 90 110 108
f 109 111 88
f 88 111 91
f 91 112 92
f 111 112 91
f 90 92 110
f 110 92 112
f 114 113 94
f 94 113 93
f 115 94 95
f 115 114 94
f 95 96 115
f 115 96 116
f 118 117 98
f 98 117 97
f 98 93 113
f 98 113 118
f 119 116 96
f 119 96 99
f 99 100 119
f 119 100 120
f 117 101 97
f 121 101 117
f 102 120 100
f 102 122 120
f 121 103 101
f 123 103 121
f 104 122 102
f 104 124 122
f 105 103 125
f 103 126 125
f 103 123 126
f 125 106 105
f 108 127 107
f 127 128 107
f 128 104 107
f 128 124 104
f 126 129 125
f 106 125 129
f 130 106 129
f 109 106 130
f 132 131 127
f 108 132 127
f 110 132 108
f 127 131 128
f 130 133 109
f 109 133 111
f 111 134 112
f 133 134 111
f 110 112 132
f 132 112 134
f 136 135 114
f 114 135 113
f 137 114 115
f 137 136 114
f 115 116 137
f 137 116 138
f 140 139 118
f 118 139 117
f 118 113 135
f 118 135 140
f 141 138 116
f 141 116 119
f 119 120 141
f 141 120 142
f 139 121 117
f 143 121 139
f 122 142 120
f 122 144 142
f 143 123 121
f 145 123 143
f 124 144 122
f 124 146 144
f 145 126 123
f 147 126 145
f 128 146 124
f 128 148 146
f 147 149 126
f 126 149 129
f 130 129 149
f 130 149 150
f 152 151 131
f 152 131 132
f 128 131 148
f 148 131 151
f 150 153 130
f 130 153 133
f 133 154 134
f 153 154 133
f 132 134 152
f 152 134 154
f 156 155 136
f 136 155 135
f 157 136 137
f 157 156 136
f 137 138 157
f 157 138 158
f 160 159 140
f 140 159 139
f 140 135 155
f 140 155 160
f 161 158 138
f 161 138 141
f 141 142 161
f 161 142 162
f 159 143 139
f 163 143 159
f 144 162 142
f 144 164 162
f 163 145 143
f 165 145 163
f 146 164 144
f 146 166 164
f 165 147 145
f 167 147 165
f 148 166 146
f 148 168 166
f 167 169 147
f 147 169 149
f 150 149 169
f 150 169 170
f 172 171 151
f 172 151 152
f 148 151 168
f 168 151 171
f 170 173 150
f 150 173 153
f 153 174 154
f 173 174 153
f 152 154 172
f 172 154 174
f 176 175 156
f 156 175 155
f 177 156 157
f 177 176 156
f 157 158 177
f 177 158 178
f 179 159 160
f 180 179 160
f 155 180 160
f 175 180 155
f 158 161 181
f 182 158 181
f 178 158 182
f 162 181 161
f 184 183 179
f 183 159 179
f 183 163 159
f 184 179 180
f 185 182 181
f 181 162 185
f 162 186 185
f 162 164 186
f 183 165 163
f 187 165 183
f 166 186 164
f 166 188 186
f 187 167 165
f 189 167 187
f 168 188 166
f 168 190 188
f 189 191 167
f 167 191 169
f 170 169 191
f 170 191 192
f 194 193 171
f 194 171 172
f 168 171 190
f 190 171 193
f 192 195 170
f 170 195 173
f 173 196 174
f 195 196 173
f 172 174 194
f 194 174 196
f 197 175 176
f 177 198 176
f 176 198 197
f 178 198 177
f 200 199 197
f 199 175 197
f 199 180 175
f 200 197 198
f 200 198 201
f 198 178 201
f 178 202 201
f 178 182 202
f 204 203 184
f 184 203 183
f 184 180 199
f 184 199 204
f 205 202 182
f 205 182 185
f 185 186 205
f 205 186 206
f 203 187 183
f 207 187 203
f 188 206 186
f 188 208 206
f 207 189 187
f 209 189 207
f 190 208 188
f 190 210 208
f 209 211 189
f 189 211 191
f 192 191 211
f 192 211 212
f 214 213 193
f 214 193 194
f 190 193 210
f 210 193 213
f 212 215 192
f 192 215 195
f 195 216 196
f 215 216 195
f 194 196 214
f 214 196 216
f 218 217 200
f 200 217 199
f 219 200 201
f 219 218 200
f 201 202 219
f 219 202 220
f 222 221 204
f 204 221 203
f 204 199 217
f 204 217 222
f 223 220 202
f 223 202 205
f 205 206 223
f 223 206 224
f 221 207 203
f 225 207 221
f 208 224 206
f 208 226 224
f 225 209 207
f 227 209 225
f 210 226 208
f 210 228 226
f 227 229 209
f 209 229 211
f 212 211 229
f 212 229 230
f 232 231 213
f 232 213 214
f 210 213 228
f 228 213 231
f 230 233 212
f 212 233 215
f 215 234 216
f 233 234 215
f 214 216 232
f 232 216 234
f 236 235 218
f 218 235 217
f 237 218 219
f 237 236 218
f 219 220 237
f 237 220 238
f 240 239 222
f 222 239 221
f 222 217 235
f 222 235 240
f 241 238 220
f 241 220 223
f 223 224 241
f 241 224 242
f 239 225 221
f 243 225 239
f 226 242 224
f 226 244 242
f 243 227 225
f 245 227 243
f 228 244 226
f 228 246 244
f 245 247 227
f 227 247 229
f 230 229 247
f 230 247 248
f 250 249 231
f 250 231 232
f 228 231 246
f 246 231 249
f 248 251 230
f 230 251 233
f 233 252 234
f 251 252 233
f 232 234 250
f 250 234 252
f 254 253 236
f 236 253 235
f 255 236 237
f 255 254 236
f 237 238 255
f 255 238 256
f 258 257 240
f 240 257 239
f 240 235 253
f 240 253 258
f 259 256 238
f 259 238 241
f 241 242 259
f 259 242 260
f 257 243 239
f 261 243 257
f 244 260 242
f 244 262 260
f 261 245 243
f 263 245 261
f 246 262 244
f 246 264 262
f 263 265 245
f 245 265 247
f 248 247 265
f 248 265 266
f 268 267 249
f 268 249 250
f 246 249 264
f 264 249 267
f 266 269 248
f 248 269 251
f 251 270 252
f 269 270 251
f 250 252 268
f 268 252 270
f 272 271 254
f 254 271 253
f 273 254 255
f 273 272 254
f 255 256 273
f 273 256 274
f 276 275 258
f 258 275 257
f 258 253 271
f 258 271 276
f 277 274 256
f 277 256 259
f 259 260 277
f 277 260 278
f 275 261 257
f 279 261 275
f 262 278 260
f 262 280 278
f 279 263 261
f 281 263 279
f 264 280 262
f 264 282 280
f 281 283 263
f 263 283 265
f 266 265 283
f 266 283 284
f 286 285 267
f 286 267 268
f 264 267 282
f 282 267 285
f 269 266 287
f 266 288 287
f 266 284 288
f 289 270 269
f 289 269 287
f 289 290 270
f 290 268 270
f 290 286 268
f 288 291 287
f 287 291 289
f 289 291 292
f 289 292 290
f 295 294 293
f 293 296 295
f 294 297 293
f 293 297 296
f 299 298 272
f 272 298 271
f 300 272 273
f 300 299 272
f 273 274 300
f 300 274 301
f 303 302 276
f 276 302 275
f 276 271 298
f 276 298 303
f 304 301 274
f 304 274 277
f 277 278 304
f 304 278 305
f 302 279 275
f 306 279 302
f 280 305 278
f 280 307 305
f 306 281 279
f 308 281 306
f 282 307 280
f 282 309 307
f 283 281 310
f 281 311 310
f 281 308 311
f 310 284 283
f 286 312 285
f 312 313 285
f 313 282 285
f 313 309 282
f 311 314 310
f 284 310 314
f 315 284 314
f 288 284 315
f 317 316 312
f 286 317 312
f 290 317 286
f 312 316 313
f 315 318 288
f 288 318 291
f 291 319 292
f 318 319 291
f 290 292 317
f 317 292 319
f 322 321 320
f 294 295 320
f 295 322 320
f 295 323 322
f 325 324 296
f 324 295 296
f 324 323 295
f 325 326 324
f 320 321 327
f 327 321 328
f 329 297 294
f 320 329 294
f 327 329 320
f 325 296 297
f 329 325 297
f 330 325 329
f 326 325 331
f 331 325 330
f 327 328 332
f 332 328 333
f 327 334 329
f 327 332 334
f 329 335 330
f 329 334 335
f 331 330 336
f 336 330 335
f 333 337 332
f 339 338 337
f 338 332 337
f 338 334 332
f 341 335 340
f 335 338 340
f 335 334 338
f 335 341 336
f 338 339 342
f 342 339 343
f 340 338 344
f 344 338 342
f 343 345 342
f 342 345 344
f 347 346 299
f 299 346 298
f 348 299 300
f 348 347 299
f 300 301 348
f 348 301 349
f 351 350 303
f 303 350 302
f 303 298 346
f 303 346 351
f 352 349 301
f 352 301 304
f 304 305 352
f 352 305 353
f 350 306 302
f 354 306 350
f 307 353 305
f 307 355 353
f 354 308 306
f 356 308 354
f 309 355 307
f 309 357 355
f 356 311 308
f 358 311 356
f 313 357 309
f 313 359 357
f 358 360 311
f 311 360 314
f 315 314 360
f 315 360 361
f 363 362 316
f 363 316 317
f 313 316 359
f 359 316 362
f 361 364 315
f 315 364 318
f 318 365 319
f 364 365 318
f 317 319 363
f 363 319 365
f 368 367 366
f 370 369 366
f 366 369 368
f 372 371 370
f 370 371 369
f 372 373 371
f 366 367 322
f 367 321 322
f 367 374 321
f 366 322 323
f 366 323 370
f 370 323 324
f 370 324 372
f 324 326 372
f 326 373 372
f 326 375 373
f 374 328 321
f 376 328 374
f 331 375 326
f 331 377 375
f 376 333 328
f 378 333 376
f 336 377 331
f 336 379 377
f 337 333 380
f 333 381 380
f 333 378 381
f 380 339 337
f 340 382 341
f 382 383 341
f 383 336 341
f 383 379 336
f 380 381 384
f 384 381 385
f 384 343 339
f 384 339 380
f 344 386 382
f 344 382 340
f 383 382 387
f 387 382 386
f 384 385 388
f 388 385 389
f 390 345 343
f 384 390 343
f 388 390 384
f 386 344 345
f 390 386 345
f 391 386 390
f 387 386 392
f 392 386 391
f 388 389 393
f 393 389 394
f 388 395 390
f 388 393 395
f 390 396 391
f 390 395 396
f 392 391 397
f 397 391 396
f 394 398 393
f 400 399 398
f 399 393 398
f 399 395 393
f 402 396 401
f 396 399 401
f 396 395 399
f 396 402 397
f 400 403 399
f 399 403 401
f 405 404 347
f 347 404 346
f 406 347 348
f 406 405 347
f 348 349 406
f 406 349 407
f 408 350 351
f 409 408 351
f 346 409 351
f 404 409 346
f 349 352 410
f 411 349 410
f 407 349 411
f 353 410 352
f 413 412 408
f 412 350 408
f 412 354 350
f 413 408 409
f 414 411 410
f 410 353 414
f 353 415 414
f 353 355 415
f 412 356 354
f 416 356 412
f 357 415 355
f 357 417 415
f 416 358 356
f 418 358 416
f 359 417 357
f 359 419 417
f 418 420 358
f 358 420 360
f 361 360 420
f 361 420 421
f 423 422 362
f 423 362 363
f 359 362 419
f 419 362 422
f 421 424 361
f 361 424 364
f 364 425 365
f 424 425 364
f 363 365 423
f 423 365 425
f 427 426 368
f 368 426 367
f 428 368 369
f 428 427 368
f 429 369 371
f 429 428 369
f 371 373 429
f 429 373 430
f 426 374 367
f 431 374 426
f 375 430 373
f 375 432 430
f 431 376 374
f 433 376 431
f 377 432 375
f 377 434 432
f 433 378 376
f 435 378 433
f 379 434 377
f 379 436 434
f 435 381 378
f 437 381 435
f 383 436 379
f 383 438 436
f 437 385 381
f 439 385 437
f 387 438 383
f 387 440 438
f 439 389 385
f 441 389 439
f 392 440 387
f 392 442 440
f 441 394 389
f 443 394 441
f 397 442 392
f 397 444 442
f 398 394 445
f 394 446 445
f 394 443 446
f 445 400 398
f 401 447 402
f 447 448 402
f 448 397 402
f 448 444 397
f 445 446 449
f 449 446 450
f 451 403 400
f 445 451 400
f 449 451 445
f 447 401 403
f 451 447 403
f 452 447 451
f 448 447 453
f 453 447 452
f 449 450 454
f 454 450 455
f 449 456 451
f 449 454 456
f 451 457 452
f 451 456 457
f 453 452 458
f 458 452 457
f 455 459 454
f 461 460 459
f 460 454 459
f 460 456 454
f 463 457 462
f 457 460 462
f 457 456 460
f 457 463 458
f 460 461 464
f 464 461 465
f 462 460 466
f 466 460 464
f 465 467 464
f 464 467 466
f 468 404 405
f 406 469 405
f 405 469 468
f 407 469 406
f 471 470 468
f 470 404 468
f 470 409 404
f 471 468 469
f 471 469 472
f 469 407 472
f 407 473 472
f 407 411 473
f 475 474 413
f 413 474 412
f 413 409 470
f 413 470 475
f 476 473 411
f 476 411 414
f 414 415 476
f 476 415 477
f 474 416 412
f 478 416 474
f 417 477 415
f 417 479 477
f 478 418 416
f 480 418 478
f 419 479 417
f 419 481 479
f 480 482 418
f 418 482 420
f 421 420 482
f 421 482 483
f 485 484 422
f 485 422 423
f 419 422 481
f 481 422 484
f 483 486 421
f 421 486 424
f 424 487 425
f 486 487 424
f 423 425 485
f 485 425 487
f 489 488 427
f 427 488 426
f 490 427 428
f 490 489 427
f 491 428 429
f 491 490 428
f 429 430 491
f 491 430 492
f 488 431 426
f 493 431 488
f 432 492 430
f 432 494 492
f 493 433 431
f 495 433 493
f 434 494 432
f 434 496 494
f 495 435 433
f 497 435 495
f 436 496 434
f 436 498 496
f 497 437 435
f 499 437 497
f 438 498 436
f 438 500 498
f 499 439 437
f 501 439 499
f 440 500 438
f 440 502 500
f 501 441 439
f 503 441 501
f 442 502 440
f 442 504 502
f 503 443 441
f 505 443 503
f 444 504 442
f 444 506 504
f 505 446 443
f 507 446 505
f 448 506 444
f 448 508 506
f 507 450 446
f 509 450 507
f 453 508 448
f 453 510 508
f 509 455 450
f 511 455 509
f 458 510 453
f 458 512 510
f 459 455 513
f 455 514 513
f 455 511 514
f 513 461 459
f 462 515 463
f 515 516 463
f 516 458 463
f 516 512 458
f 513 514 517
f 517 514 518
f 517 465 461
f 517 461 513
f 466 519 515
f 466 515 462
f 516 515 520
f 520 515 519
f 517 518 521
f 521 518 522
f 523 467 465
f 517 523 465
f 521 523 517
f 519 466 467
f 523 519 467
f 524 519 523
f 520 519 525
f 525 519 524
f 521 522 526
f 526 522 527
f 521 528 523
f 521 526 528
f 523 529 524
f 523 528 529
f 525 524 530
f 530 524 529
f 527 531 526
f 533 532 531
f 532 526 531
f 532 528 526
f 535 529 534
f 529 532 534
f 529 528 532
f 529 535 530
f 533 536 532
f 532 536 534
f 538 537 471
f 471 537 470
f 539 471 472
f 539 538 471
f 472 473 539
f 539 473 540
f 542 541 475
f 475 541 474
f 475 470 537
f 475 537 542
f 543 540 473
f 543 473 476
f 476 477 543
f 543 477 544
f 541 478 474
f 545 478 541
f 479 544 477
f 479 546 544
f 545 480 478
f 547 480 545
f 481 546 479
f 481 548 546
f 547 549 480
f 480 549 482
f 483 482 549
f 483 549 550
f 552 551 484
f 552 484 485
f 481 484 548
f 548 484 551
f 550 553 483
f 483 553 486
f 486 554 487
f 553 554 486
f 485 487 552
f 552 487 554
f 556 555 489
f 489 555 488
f 557 489 490
f 557 556 489
f 558 490 491
f 558 557 490
f 491 492 558
f 558 492 559
f 555 493 488
f 560 493 555
f 494 559 492
f 494 561 559
f 560 495 493
f 562 495 560
f 496 561 494
f 496 563 561
f 562 497 495
f 564 497 562
f 498 563 496
f 498 565 563
f 564 499 497
f 566 499 564
f 500 565 498
f 500 567 565
f 566 501 499
f 568 501 566
f 502 567 500
f 502 569 567
f 568 503 501
f 570 503 568
f 504 569 502
f 504 571 569
f 570 505 503
f 572 505 570
f 506 571 504
f 506 573 571
f 572 507 505
f 574 507 572
f 508 573 506
f 508 575 573
f 574 509 507
f 576 509 574
f 510 575 508
f 510 577 575
f 576 511 509
f 578 511 576
f 512 577 510
f 512 579 577
f 578 514 511
f 580 514 578
f 516 579 512
f 516 581 579
f 580 518 514
f 582 518 580
f 520 581 516
f 520 583 581
f 582 522 518
f 584 522 582
f 525 583 520
f 525 585 583
f 584 527 522
f 586 527 584
f 530 585 525
f 530 587 585
f 531 527 588
f 527 589 588
f 527 586 589
f 588 533 531
f 534 590 535
f 590 591 535
f 591 530 535
f 591 587 530
f 588 589 592
f 592 589 593
f 594 536 533
f 588 594 533
f 592 594 588
f 590 534 536
f 594 590 536
f 595 590 594
f 591 590 596
f 596 590 595
f 592 593 597
f 597 593 598
f 592 599 594
f 592 597 599
f 594 600 595
f 594 599 600
f 596 595 601
f 601 595 600
f 598 602 597
f 604 603 602
f 603 597 602
f 603 599 597
f 606 600 605
f 600 603 605
f 600 599 603
f 600 606 601
f 604 607 603
f 603 607 605
f 609 608 538
f 538 608 537
f 610 538 539
f 610 609 538
f 539 540 610
f 610 540 611
f 613 612 542
f 542 612 541
f 542 537 608
f 542 608 613
f 614 611 540
f 614 540 543
f 543 544 614
f 614 544 615
f 612 545 541
f 616 545 612
f 546 615 544
f 546 617 615
f 616 547 545
f 618 547 616
f 548 617 546
f 548 619 617
f 618 620 547
f 547 620 549
f 550 549 620
f 550 620 621
f 623 622 551
f 623 551 552
f 548 551 619
f 619 551 622
f 553 550 624
f 550 625 624
f 550 621 625
f 626 554 553
f 626 553 624
f 626 627 554
f 627 552 554
f 627 623 552
f 625 628 624
f 624 628 626
f 626 628 629
f 626 629 627
f 630 555 556
f 557 631 556
f 556 631 630
f 558 632 557
f 557 632 631
f 559 632 558
f 633 560 630
f 630 560 555
f 634 630 631
f 633 630 634
f 635 631 632
f 634 631 635
f 561 635 559
f 559 635 632
f 636 562 633
f 633 562 560
f 634 638 637
f 636 634 637
f 633 634 636
f 640 639 638
f 634 640 638
f 635 640 634
f 563 640 561
f 561 640 635
f 641 564 636
f 636 564 562
f 636 637 642
f 636 642 641
f 639 640 643
f 639 643 644
f 565 643 563
f 563 643 640
f 646 645 641
f 645 564 641
f 645 566 564
f 646 641 642
f 647 644 643
f 643 565 647
f 565 648 647
f 565 567 648
f 645 568 566
f 649 568 645
f 569 648 567
f 569 650 648
f 649 570 568
f 651 570 649
f 571 650 569
f 571 652 650
f 651 572 570
f 653 572 651
f 573 652 571
f 573 654 652
f 653 574 572
f 655 574 653
f 575 654 573
f 575 656 654
f 655 576 574
f 657 576 655
f 577 656 575
f 577 658 656
f 657 578 576
f 659 578 657
f 579 658 577
f 579 660 658
f 659 580 578
f 661 580 659
f 581 660 579
f 581 662 660
f 661 582 580
f 663 582 661
f 583 662 581
f 583 664 662
f 663 584 582
f 665 584 663
f 585 664 583
f 585 666 664
f 665 586 584
f 667 586 665
f 587 666 585
f 587 668 666
f 667 589 586
f 669 589 667
f 591 668 587
f 591 670 668
f 669 593 589
f 671 593 669
f 596 670 591
f 596 672 670
f 671 598 593
f 673 598 671
f 601 672 596
f 601 674 672
f 602 598 675
f 598 676 675
f 598 673 676
f 675 604 602
f 605 677 606
f 677 678 606
f 678 601 606
f 678 674 601
f 675 676 679
f 679 676 680
f 681 607 604
f 675 681 604
f 679 681 675
f 677 605 607
f 681 677 607
f 682 677 681
f 678 677 683
f 683 677 682
f 680 684 679
f 686 685 684
f 685 679 684
f 685 681 679
f 688 682 687
f 682 685 687
f 682 681 685
f 682 688 683
f 686 689 685
f 685 689 687
f 691 690 609
f 609 690 608
f 692 609 610
f 692 691 609
f 610 611 692
f 692 611 693
f 695 694 613
f 613 694 612
f 613 608 690
f 613 690 695
f 696 693 611
f 696 611 614
f 614 615 696
f 696 615 697
f 694 616 612
f 698 616 694
f 617 697 615
f 617 699 697
f 698 618 616
f 700 618 698
f 619 699 617
f 619 701 699
f 620 618 702
f 618 703 702
f 618 700 703
f 702 621 620
f 623 704 622
f 704 705 622
f 705 619 622
f 705 701 619
f 703 706 702
f 621 702 706
f 707 621 706
f 625 621 707
f 709 708 704
f 623 709 704
f 627 709 623
f 704 708 705
f 707 710 625
f 625 710 628
f 628 711 629
f 710 711 628
f 627 629 709
f 709 629 711
f 712 637 638
f 639 712 638
f 713 642 712
f 712 642 637
f 644 713 639
f 639 713 712
f 714 645 646
f 642 713 646
f 713 714 646
f 713 715 714
f 647 716 644
f 716 713 644
f 716 715 713
f 648 716 647
f 717 649 714
f 714 649 645
f 718 714 715
f 717 714 718
f 719 715 716
f 718 715 719
f 650 719 648
f 648 719 716
f 720 651 717
f 717 651 649
f 718 722 721
f 720 718 721
f 717 718 720
f 724 723 722
f 718 724 722
f 719 724 718
f 652 724 650
f 650 724 719
f 726 725 720
f 725 651 720
f 725 653 651
f 726 720 721
f 727 723 724
f 724 652 727
f 652 728 727
f 652 654 728
f 725 655 653
f 729 655 725
f 656 728 654
f 656 730 728
f 729 657 655
f 731 657 729
f 658 730 656
f 658 732 730
f 731 659 657
f 733 659 731
f 660 732 658
f 660 734 732
f 733 661 659
f 735 661 733
f 662 734 660
f 662 736 734
f 735 663 661
f 737 663 735
f 664 736 662
f 664 738 736
f 737 665 663
f 739 665 737
f 666 738 664
f 666 740 738
f 739 667 665
f 741 667 739
f 668 740 666
f 668 742 740
f 741 669 667
f 743 669 741
f 670 742 668
f 670 744 742
f 743 671 669
f 745 671 743
f 672 744 670
f 672 746 744
f 745 673 671
f 747 673 745
f 674 746 672
f 674 748 746
f 747 676 673
f 749 676 747
f 678 748 674
f 678 750 748
f 749 680 676
f 751 680 749
f 683 750 678
f 683 752 750
f 684 680 753
f 680 754 753
f 680 751 754
f 753 686 684
f 687 755 688
f 755 756 688
f 756 683 688
f 756 752 683
f 753 754 757
f 757 754 758
f 759 689 686
f 753 759 686
f 757 759 753
f 755 687 689
f 759 755 689
f 760 755 759
f 756 755 761
f 761 755 760
f 758 762 757
f 764 763 762
f 763 757 762
f 763 759 757
f 766 760 765
f 760 763 765
f 760 759 763
f 760 766 761
f 764 767 763
f 763 767 765
f 768 690 691
f 692 769 691
f 691 769 768
f 693 769 692
f 770 694 695
f 771 770 695
f 771 695 690
f 772 771 690
f 768 772 690
f 772 768 769
f 772 769 773
f 775 773 774
f 774 773 696
f 773 769 696
f 769 693 696
f 697 774 696
f 777 776 770
f 776 694 770
f 776 698 694
f 777 770 771
f 778 775 774
f 774 697 778
f 697 779 778
f 697 699 779
f 776 700 698
f 780 700 776
f 701 779 699
f 701 781 779
f 780 703 700
f 782 703 780
f 705 781 701
f 705 783 781
f 706 703 784
f 703 785 784
f 703 782 785
f 784 707 706
f 787 786 708
f 787 708 709
f 705 708 783
f 783 708 786
f 785 788 784
f 784 788 707
f 788 710 707
f 788 789 710
f 710 790 711
f 789 790 710
f 709 711 787
f 787 711 790
f 791 721 722
f 723 791 722
f 792 725 726
f 721 791 726
f 791 792 726
f 791 793 792
f 727 794 723
f 794 791 723
f 794 793 791
f 728 794 727
f 795 729 792
f 792 729 725
f 796 792 793
f 795 792 796
f 797 793 794
f 796 793 797
f 730 797 728
f 728 797 794
f 798 731 795
f 795 731 729
f 796 800 799
f 798 796 799
f 795 796 798
f 802 801 800
f 796 802 800
f 797 802 796
f 732 802 730
f 730 802 797
f 803 733 798
f 798 733 731
f 798 799 804
f 798 804 803
f 801 802 805
f 801 805 806
f 734 805 732
f 732 805 802
f 808 807 803
f 807 733 803
f 807 735 733
f 808 803 804
f 809 806 805
f 805 734 809
f 734 810 809
f 734 736 810
f 807 737 735
f 811 737 807
f 738 810 736
f 738 812 810
f 811 739 737
f 813 739 811
f 740 812 738
f 740 814 812
f 813 741 739
f 815 741 813
f 742 814 740
f 742 816 814
f 815 743 741
f 817 743 815
f 744 816 742
f 744 818 816
f 817 745 743
f 819 745 817
f 746 818 744
f 746 820 818
f 819 747 745
f 821 747 819
f 748 820 746
f 748 822 820
f 821 749 747
f 823 749 821
f 750 822 748
f 750 824 822
f 823 751 749
f 825 751 823
f 752 824 750
f 752 826 824
f 825 754 751
f 827 754 825
f 756 826 752
f 756 828 826
f 827 758 754
f 829 758 827
f 761 828 756
f 761 830 828
f 762 758 831
f 758 832 831
f 758 829 832
f 831 764 762
f 765 833 766
f 833 834 766
f 834 761 766
f 834 830 761
f 831 832 835
f 835 832 836
f 837 767 764
f 831 837 764
f 835 837 831
f 833 765 767
f 837 833 767
f 838 833 837
f 834 833 839
f 839 833 838
f 836 840 835
f 842 841 840
f 841 835 840
f 841 837 835
f 837 843 838
f 837 841 843
f 839 838 844
f 844 838 843
f 841 842 845
f 845 842 846
f 848 843 847
f 843 845 847
f 843 841 845
f 843 848 844
f 846 849 845
f 845 849 847
f 852 851 850
f 771 772 850
f 772 852 850
f 772 853 852
f 854 772 773
f 854 853 772
f 773 775 854
f 854 775 855
f 850 851 777
f 851 776 777
f 851 856 776
f 850 777 771
f 857 855 775
f 857 775 778
f 778 779 857
f 857 779 858
f 856 780 776
f 859 780 856
f 781 858 779
f 781 860 858
f 859 782 780
f 861 782 859
f 864 863 862
f 863 860 862
f 860 783 862
f 860 781 783
f 861 785 782
f 865 785 861
f 864 862 786
f 787 864 786
f 866 864 787
f 786 862 783
f 865 867 785
f 785 867 788
f 867 869 868
f 789 867 868
f 788 867 789
f 789 868 870
f 871 789 870
f 790 789 871
f 787 790 866
f 866 790 871
f 869 872 868
f 868 872 870
f 873 799 800
f 801 873 800
f 874 804 873
f 873 804 799
f 806 874 801
f 801 874 873
f 875 807 808
f 804 874 808
f 874 875 808
f 874 876 875
f 809 877 806
f 877 874 806
f 877 876 874
f 810 877 809
f 878 811 875
f 875 811 807
f 879 875 876
f 878 875 879
f 880 876 877
f 879 876 880
f 812 880 810
f 810 880 877
f 881 813 878
f 878 813 811
f 879 883 882
f 881 879 882
f 878 879 881
f 885 884 883
f 879 885 883
f 880 885 879
f 814 885 812
f 812 885 880
f 887 886 881
f 886 813 881
f 886 815 813
f 887 881 882
f 888 884 885
f 885 814 888
f 814 889 888
f 814 816 889
f 886 817 815
f 890 817 886
f 818 889 816
f 818 891 889
f 890 819 817
f 892 819 890
f 820 891 818
f 820 893 891
f 892 821 819
f 894 821 892
f 822 893 820
f 822 895 893
f 894 823 821
f 896 823 894
f 824 895 822
f 824 897 895
f 896 825 823
f 898 825 896
f 826 897 824
f 826 899 897
f 898 827 825
f 900 827 898
f 828 899 826
f 828 901 899
f 900 829 827
f 902 829 900
f 830 901 828
f 830 903 901
f 902 832 829
f 904 832 902
f 834 903 830
f 834 905 903
f 904 836 832
f 906 836 904
f 839 905 834
f 839 907 905
f 840 836 908
f 836 909 908
f 836 906 909
f 908 842 840
f 844 907 839
f 844 910 907
f 908 909 911
f 911 909 912
f 911 846 842
f 911 842 908
f 847 913 848
f 913 914 848
f 914 844 848
f 914 910 844
f 912 915 911
f 915 917 916
f 915 916 849
f 911 915 849
f 846 911 849
f 913 847 849
f 916 913 849
f 918 913 916
f 914 913 919
f 919 913 918
f 917 920 916
f 916 920 918
f 918 920 921
f 918 921 919
f 923 922 852
f 852 922 851
f 924 852 853
f 924 923 852
f 925 853 854
f 925 924 853
f 854 855 925
f 925 855 926
f 922 856 851
f 927 856 922
f 855 857 928
f 929 855 928
f 926 855 929
f 858 928 857
f 932 931 930
f 927 932 930
f 859 927 930
f 856 927 859
f 929 928 933
f 929 933 934
f 860 933 858
f 858 933 928
f 930 931 935
f 935 931 936
f 935 861 859
f 935 859 930
f 934 933 863
f 864 934 863
f 937 934 864
f 863 933 860
f 935 936 938
f 938 936 939
f 938 865 861
f 938 861 935
f 866 937 864
f 866 940 937
f 939 941 938
f 941 943 942
f 941 942 867
f 938 941 867
f 865 938 867
f 942 869 867
f 945 944 871
f 945 871 870
f 866 871 940
f 940 871 944
f 943 946 942
f 942 946 869
f 946 872 869
f 946 947 872
f 870 872 945
f 945 872 947
f 948 882 883
f 884 948 883
f 949 886 887
f 882 948 887
f 948 949 887
f 948 950 949
f 888 951 884
f 951 948 884
f 951 950 948
f 889 951 888
f 952 890 949
f 949 890 886
f 953 949 950
f 952 949 953
f 954 950 951
f 953 950 954
f 891 954 889
f 889 954 951
f 955 892 952
f 952 892 890
f 953 957 956
f 955 953 956
f 952 953 955
f 959 958 957
f 953 959 957
f 954 959 953
f 893 959 891
f 891 959 954
f 961 960 955
f 960 892 955
f 960 894 892
f 961 955 956
f 962 958 959
f 959 893 962
f 893 963 962
f 893 895 963
f 960 896 894
f 964 896 960
f 897 963 895
f 897 965 963
f 964 898 896
f 966 898 964
f 899 965 897
f 899 967 965
f 966 900 898
f 968 900 966
f 901 967 899
f 901 969 967
f 968 902 900
f 970 902 968
f 903 969 901
f 903 971 969
f 970 904 902
f 972 904 970
f 905 971 903
f 905 973 971
f 972 906 904
f 974 906 972
f 907 976 975
f 973 907 975
f 905 907 973
f 976 977 975
f 974 909 906
f 978 909 974
f 910 979 976
f 910 976 907
f 977 976 980
f 980 976 979
f 978 912 909
f 981 912 978
f 914 982 979
f 914 979 910
f 980 979 983
f 983 979 982
f 915 912 984
f 912 985 984
f 912 981 985
f 984 917 915
f 987 986 982
f 914 987 982
f 919 987 914
f 982 986 983
f 985 988 984
f 988 990 989
f 988 989 920
f 984 988 920
f 917 984 920
f 991 921 920
f 991 920 989
f 991 992 921
f 992 919 921
f 992 987 919
f 989 990 993
f 993 990 994
f 989 995 991
f 989 993 995
f 992 991 996
f 996 991 995
f 994 997 993
f 993 997 995
f 995 997 998
f 995 998 996
f 1000 999 923
f 923 999 922
f 1001 923 924
f 1001 1000 923
f 1003 1001 1002
f 1001 925 1002
f 1001 924 925
f 926 1002 925
f 1006 1005 1004
f 999 1006 1004
f 927 999 1004
f 922 999 927
f 1007 1003 1002
f 1002 926 1007
f 926 1008 1007
f 926 929 1008
f 1004 1005 932
f 1005 931 932
f 1005 1009 931
f 1004 932 927
f 934 1008 929
f 934 1010 1008
f 1009 936 931
f 1011 936 1009
f 937 1010 934
f 937 1012 1010
f 1011 939 936
f 1013 939 1011
f 940 1012 937
f 940 1014 1012
f 941 939 1015
f 939 1016 1015
f 939 1013 1016
f 1015 943 941
f 1018 1017 944
f 1018 944 945
f 940 944 1014
f 1014 944 1017
f 1016 1019 1015
f 1015 1019 943
f 1019 946 943
f 1019 1020 946
f 946 1021 947
f 1020 1021 946
f 945 947 1018
f 1018 947 1021
f 1022 956 957
f 958 1022 957
f 1023 960 961
f 956 1022 961
f 1022 1023 961
f 1022 1024 1023
f 962 1025 958
f 1025 1022 958
f 1025 1024 1022
f 963 1025 962
f 1026 964 1023
f 1023 964 960
f 1024 1028 1027
f 1026 1024 1027
f 1023 1024 1026
f 1030 1029 1028
f 1024 1030 1028
f 1025 1030 1024
f 965 1030 963
f 963 1030 1025
f 1032 1031 1026
f 1031 964 1026
f 1031 966 964
f 1032 1026 1027
f 1033 1029 1030
f 1030 965 1033
f 965 1034 1033
f 965 967 1034
f 1031 968 966
f 1035 968 1031
f 969 1034 967
f 969 1036 1034
f 1035 970 968
f 1037 970 1035
f 971 1036 969
f 971 1038 1036
f 1037 972 970
f 1039 972 1037
f 973 1038 971
f 973 1040 1038
f 1039 974 972
f 1041 974 1039
f 1042 1040 973
f 1042 973 975
f 975 977 1042
f 1042 977 1043
f 1041 978 974
f 1044 978 1041
f 980 1043 977
f 980 1045 1043
f 1044 981 978
f 1046 981 1044
f 983 1045 980
f 983 1047 1045
f 1046 985 981
f 1048 985 1046
f 987 1049 986
f 1049 1050 986
f 1050 983 986
f 1050 1047 983
f 988 985 1051
f 985 1052 1051
f 985 1048 1052
f 1051 990 988
f 992 1053 1049
f 992 1049 987
f 1050 1049 1054
f 1054 1049 1053
f 1052 1055 1051
f 990 1051 1055
f 1056 990 1055
f 994 990 1056
f 1058 1057 1053
f 992 1058 1053
f 996 1058 992
f 1053 1057 1054
f 997 994 1059
f 994 1060 1059
f 994 1056 1060
f 1061 998 997
f 1061 997 1059
f 1061 1062 998
f 1062 996 998
f 1062 1058 996
f 1060 1063 1059
f 1059 1063 1061
f 1061 1063 1064
f 1061 1064 1062
f 1065 999 1000
f 1001 1066 1000
f 1000 1066 1065
f 1003 1066 1001
f 1068 1067 1006
f 1006 1067 1005
f 1006 999 1065
f 1069 1006 1065
f 1068 1006 1069
f 1069 1065 1066
f 1069 1066 1070
f 1072 1070 1071
f 1071 1070 1007
f 1070 1066 1007
f 1066 1003 1007
f 1008 1071 1007
f 1067 1009 1005
f 1073 1009 1067
f 1074 1072 1071
f 1071 1008 1074
f 1008 1075 1074
f 1008 1010 1075
f 1078 1077 1076
f 1073 1078 1076
f 1011 1073 1076
f 1009 1073 1011
f 1012 1075 1010
f 1012 1079 1075
f 1076 1077 1080
f 1080 1077 1081
f 1080 1013 1011
f 1080 1011 1076
f 1014 1079 1012
f 1014 1082 1079
f 1081 1083 1080
f 1013 1080 1083
f 1084 1013 1083
f 1016 1013 1084
f 1086 1085 1017
f 1086 1017 1018
f 1014 1017 1082
f 1082 1017 1085
f 1084 1087 1016
f 1016 1087 1019
f 1019 1088 1020
f 1087 1088 1019
f 1020 1089 1021
f 1088 1089 1020
f 1018 1021 1086
f 1086 1021 1089
f 1090 1027 1028
f 1029 1090 1028
f 1091 1031 1032
f 1027 1090 1032
f 1090 1091 1032
f 1090 1092 1091
f 1033 1093 1029
f 1093 1090 1029
f 1093 1092 1090
f 1034 1093 1033
f 1094 1035 1091
f 1091 1035 1031
f 1092 1096 1095
f 1094 1092 1095
f 1091 1092 1094
f 1098 1097 1096
f 1092 1098 1096
f 1093 1098 1092
f 1036 1098 1034
f 1034 1098 1093
f 1099 1037 1094
f 1094 1037 1035
f 1094 1095 1100
f 1094 1100 1099
f 1101 1097 1098
f 1098 1036 1101
f 1036 1102 1101
f 1036 1038 1102
f 1104 1103 1099
f 1103 1037 1099
f 1103 1039 1037
f 1104 1099 1100
f 1040 1102 1038
f 1040 1105 1102
f 1103 1041 1039
f 1106 1041 1103
f 1040 1042 1107
f 1108 1040 1107
f 1105 1040 1108
f 1043 1107 1042
f 1106 1044 1041
f 1109 1044 1106
f 1110 1108 1107
f 1107 1043 1110
f 1043 1111 1110
f 1043 1045 1111
f 1109 1046 1044
f 1112 1046 1109
f 1047 1111 1045
f 1047 1113 1111
f 1112 1048 1046
f 1114 1048 1112
f 1050 1113 1047
f 1050 1115 1113
f 1114 1052 1048
f 1116 1052 1114
f 1054 1115 1050
f 1054 1117 1115
f 1055 1052 1118
f 1052 1119 1118
f 1052 1116 1119
f 1118 1056 1055
f 1058 1120 1057
f 1120 1121 1057
f 1121 1054 1057
f 1121 1117 1054
f 1119 1122 1118
f 1056 1118 1122
f 1123 1056 1122
f 1060 1056 1123
f 1125 1124 1120
f 1058 1125 1120
f 1062 1125 1058
f 1120 1124 1121
f 1063 1060 1126
f 1060 1127 1126
f 1060 1123 1127
f 1128 1064 1063
f 1128 1063 1126
f 1128 1129 1064
f 1129 1062 1064
f 1129 1125 1062
f 1127 1130 1126
f 1126 1130 1128
f 1128 1130 1131
f 1128 1131 1129
f 1133 1132 1068
f 1068 1132 1067
f 1134 1068 1069
f 1134 1133 1068
f 1135 1069 1070
f 1135 1134 1069
f 1070 1072 1135
f 1135 1072 1136
f 1139 1138 1137
f 1132 1139 1137
f 1073 1132 1137
f 1067 1132 1073
f 1072 1074 1140
f 1141 1072 1140
f 1136 1072 1141
f 1075 1140 1074
f 1137 1138 1078
f 1138 1077 1078
f 1138 1142 1077
f 1137 1078 1073
f 1141 1140 1143
f 1141 1143 1144
f 1079 1143 1075
f 1075 1143 1140
f 1142 1081 1077
f 1145 1081 1142
f 1144 1143 1146
f 1144 1146 1147
f 1082 1146 1079
f 1079 1146 1143
f 1083 1081 1148
f 1081 1149 1148
f 1081 1145 1149
f 1148 1084 1083
f 1147 1146 1085
f 1086 1147 1085
f 1150 1147 1086
f 1085 1146 1082
f 1149 1151 1148
f 1148 1151 1084
f 1151 1087 1084
f 1151 1152 1087
f 1087 1153 1088
f 1152 1153 1087
f 1088 1154 1089
f 1153 1154 1088
f 1086 1089 1150
f 1150 1089 1154
f 1155 1095 1096
f 1097 1155 1096
f 1156 1100 1155
f 1155 1100 1095
f 1101 1157 1097
f 1157 1155 1097
f 1157 1156 1155
f 1102 1157 1101
f 1158 1103 1104
f 1100 1156 1104
f 1156 1158 1104
f 1156 1159 1158
f 1160 1156 1157
f 1159 1156 1160
f 1105 1160 1102
f 1102 1160 1157
f 1161 1106 1158
f 1158 1106 1103
f 1159 1163 1162
f 1161 1159 1162
f 1158 1159 1161
f 1163 1159 1160
f 1163 1160 1164
f 1160 1105 1164
f 1105 1165 1164
f 1105 1108 1165
f 1166 1109 1161
f 1161 1109 1106
f 1161 1162 1167
f 1161 1167 1166
f 1108 1110 1168
f 1169 1108 1168
f 1165 1108 1169
f 1111 1168 1110
f 1171 1170 1166
f 1170 1109 1166
f 1170 1112 1109
f 1171 1166 1167
f 1172 1169 1168
f 1168 1111 1172
f 1111 1173 1172
f 1111 1113 1173
f 1170 1114 1112
f 1174 1114 1170
f 1115 1173 1113
f 1115 1175 1173
f 1174 1116 1114
f 1176 1116 1174
f 1117 1175 1115
f 1117 1177 1175
f 1176 1119 1116
f 1178 1119 1176
f 1121 1177 1117
f 1121 1179 1177
f 1122 1119 1180
f 1119 1181 1180
f 1119 1178 1181
f 1180 1123 1122
f 1125 1182 1124
f 1182 1183 1124
f 1183 1121 1124
f 1183 1179 1121
f 1181 1184 1180
f 1123 1180 1184
f 1185 1123 1184
f 1127 1123 1185
f 1187 1186 1182
f 1125 1187 1182
f 1129 1187 1125
f 1182 1186 1183
f 1130 1127 1188
f 1127 1189 1188
f 1127 1185 1189
f 1190 1131 1130
f 1190 1130 1188
f 1190 1191 1131
f 1191 1129 1131
f 1191 1187 1129
f 1189 1192 1188
f 1194 1193 1192
f 1193 1188 1192
f 1193 1190 1188
f 1133 1195 1132
f 1195 1190 1132
f 1190 1193 1132
f 1190 1195 1191
f 1196 1133 1134
f 1196 1195 1133
f 1198 1196 1197
f 1196 1135 1197
f 1196 1134 1135
f 1136 1197 1135
f 1193 1194 1139
f 1194 1138 1139
f 1194 1199 1138
f 1193 1139 1132
f 1200 1198 1197
f 1197 1136 1200
f 1136 1201 1200
f 1136 1141 1201
f 1204 1203 1202
f 1199 1204 1202
f 1142 1199 1202
f 1138 1199 1142
f 1144 1201 1141
f 1144 1205 1201
f 1202 1203 1206
f 1206 1203 1207
f 1206 1145 1142
f 1206 1142 1202
f 1147 1205 1144
f 1147 1208 1205
f 1207 1209 1206
f 1145 1206 1209
f 1210 1145 1209
f 1149 1145 1210
f 1213 1212 1211
f 1212 1208 1211
f 1208 1150 1211
f 1208 1147 1150
f 1210 1214 1149
f 1149 1214 1151
f 1214 1216 1215
f 1152 1214 1215
f 1151 1214 1152
f 1152 1215 1217
f 1218 1152 1217
f 1153 1152 1218
f 1211 1154 1213
f 1154 1218 1213
f 1154 1153 1218
f 1154 1211 1150
f 1216 1219 1215
f 1215 1219 1217
f 1220 1162 1163
f 1164 1221 1163
f 1163 1221 1220
f 1165 1221 1164
f 1223 1222 1220
f 1222 1162 1220
f 1222 1167 1162
f 1223 1220 1221
f 1223 1221 1224
f 1221 1165 1224
f 1165 1225 1224
f 1165 1169 1225
f 1226 1170 1171
f 1227 1226 1171
f 1167 1227 1171
f 1222 1227 1167
f 1169 1172 1228
f 1229 1169 1228
f 1225 1169 1229
f 1173 1228 1172
f 1231 1230 1226
f 1230 1170 1226
f 1230 1174 1170
f 1231 1226 1227
f 1232 1229 1228
f 1228 1173 1232
f 1173 1233 1232
f 1173 1175 1233
f 1230 1176 1174
f 1234 1176 1230
f 1177 1233 1175
f 1177 1235 1233
f 1234 1178 1176
f 1236 1178 1234
f 1179 1235 1177
f 1179 1237 1235
f 1236 1181 1178
f 1238 1181 1236
f 1183 1237 1179
f 1183 1239 1237
f 1184 1181 1240
f 1181 1241 1240
f 1181 1238 1241
f 1240 1185 1184
f 1187 1242 1186
f 1242 1243 1186
f 1243 1183 1186
f 1243 1239 1183
f 1240 1241 1244
f 1244 1241 1245
f 1244 1189 1185
f 1244 1185 1240
f 1191 1246 1242
f 1191 1242 1187
f 1243 1242 1247
f 1247 1242 1246
f 1245 1248 1244
f 1248 1250 1249
f 1248 1249 1192
f 1244 1248 1192
f 1189 1244 1192
f 1249 1194 1192
f 1195 1246 1191
f 1251 1247 1246
f 1195 1251 1246
f 1196 1251 1195
f 1196 1198 1251
f 1251 1198 1252
f 1249 1250 1253
f 1253 1250 1254
f 1253 1199 1194
f 1253 1194 1249
f 1198 1200 1255
f 1256 1198 1255
f 1252 1198 1256
f 1201 1255 1200
f 1253 1254 1204
f 1254 1203 1204
f 1254 1257 1203
f 1253 1204 1199
f 1256 1255 1258
f 1256 1258 1259
f 1205 1258 1201
f 1201 1258 1255
f 1257 1207 1203
f 1260 1207 1257
f 1259 1258 1261
f 1259 1261 1262
f 1208 1261 1205
f 1205 1261 1258
f 1209 1207 1263
f 1207 1264 1263
f 1207 1260 1264
f 1263 1210 1209
f 1262 1261 1212
f 1213 1262 1212
f 1265 1262 1213
f 1212 1261 1208
f 1264 1266 1263
f 1266 1268 1267
f 1266 1267 1214
f 1263 1266 1214
f 1210 1263 1214
f 1267 1216 1214
f 1270 1269 1218
f 1270 1218 1217
f 1213 1218 1265
f 1265 1218 1269
f 1268 1271 1267
f 1267 1271 1216
f 1271 1219 1216
f 1271 1272 1219
f 1217 1219 1270
f 1270 1219 1272
f 1273 1222 1223
f 1224 1274 1223
f 1223 1274 1273
f 1225 1274 1224
f 1275 1227 1273
f 1273 1227 1222
f 1276 1273 1274
f 1275 1273 1276
f 1229 1276 1225
f 1225 1276 1274
f 1277 1230 1231
f 1278 1277 1231
f 1278 1231 1227
f 1279 1278 1227
f 1275 1279 1227
f 1279 1275 1276
f 1279 1276 1280
f 1282 1280 1281
f 1281 1280 1232
f 1280 1276 1232
f 1276 1229 1232
f 1233 1281 1232
f 1283 1234 1277
f 1277 1234 1230
f 1277 1278 1284
f 1277 1284 1283
f 1282 1281 1285
f 1282 1285 1286
f 1235 1285 1233
f 1233 1285 1281
f 1288 1287 1283
f 1287 1234 1283
f 1287 1236 1234
f 1288 1283 1284
f 1289 1286 1285
f 1285 1235 1289
f 1235 1290 1289
f 1235 1237 1290
f 1287 1238 1236
f 1291 1238 1287
f 1239 1290 1237
f 1239 1292 1290
f 1291 1241 1238
f 1293 1241 1291
f 1243 1292 1239
f 1243 1294 1292
f 1293 1245 1241
f 1295 1245 1293
f 1247 1294 1243
f 1247 1296 1294
f 1248 1245 1297
f 1245 1298 1297
f 1245 1295 1298
f 1297 1250 1248
f 1247 1251 1299
f 1300 1247 1299
f 1296 1247 1300
f 1252 1299 1251
f 1298 1301 1297
f 1250 1297 1301
f 1302 1250 1301
f 1254 1250 1302
f 1303 1300 1299
f 1299 1252 1303
f 1252 1304 1303
f 1252 1256 1304
f 1302 1257 1254
f 1305 1257 1302
f 1259 1304 1256
f 1259 1306 1304
f 1305 1260 1257
f 1307 1260 1305
f 1262 1306 1259
f 1262 1308 1306
f 1310 1264 1309
f 1264 1307 1309
f 1264 1260 1307
f 1311 1310 1309
f 1265 1308 1262
f 1265 1312 1308
f 1310 1266 1264
f 1268 1266 1310
f 1311 1268 1310
f 1313 1268 1311
f 1315 1314 1269
f 1315 1269 1270
f 1265 1269 1312
f 1312 1269 1314
f 1313 1316 1268
f 1268 1316 1271
f 1271 1317 1272
f 1316 1317 1271
f 1270 1272 1315
f 1315 1272 1317
f 1318 1278 1279
f 1280 1319 1279
f 1279 1319 1318
f 1282 1319 1280
f 1321 1320 1318
f 1320 1278 1318
f 1320 1284 1278
f 1321 1318 1319
f 1321 1319 1322
f 1319 1282 1322
f 1282 1323 1322
f 1282 1286 1323
f 1324 1287 1288
f 1325 1324 1288
f 1284 1325 1288
f 1320 1325 1284
f 1286 1289 1326
f 1327 1286 1326
f 1323 1286 1327
f 1290 1326 1289
f 1329 1328 1324
f 1328 1287 1324
f 1328 1291 1287
f 1329 1324 1325
f 1330 1327 1326
f 1326 1290 1330
f 1290 1331 1330
f 1290 1292 1331
f 1328 1293 1291
f 1332 1293 1328
f 1294 1331 1292
f 1294 1333 1331
f 1332 1295 1293
f 1334 1295 1332
f 1296 1333 1294
f 1296 1335 1333
f 1334 1298 1295
f 1336 1298 1334
f 1300 1335 1296
f 1300 1337 1335
f 1301 1298 1338
f 1298 1339 1338
f 1298 1336 1339
f 1338 1302 1301
f 1300 1303 1340
f 1341 1300 1340
f 1337 1300 1341
f 1304 1340 1303
f 1339 1342 1338
f 1302 1338 1342
f 1343 1302 1342
f 1305 1302 1343
f 1344 1341 1340
f 1340 1304 1344
f 1304 1345 1344
f 1304 1306 1345
f 1343 1307 1305
f 1346 1307 1343
f 1308 1345 1306
f 1308 1347 1345
f 1309 1307 1348
f 1307 1349 1348
f 1307 1346 1349
f 1348 1311 1309
f 1352 1351 1350
f 1351 1347 1350
f 1347 1312 1350
f 1347 1308 1312
f 1349 1353 1348
f 1313 1311 1348
f 1354 1313 1348
f 1353 1354 1348
f 1313 1354 1355
f 1357 1356 1355
f 1357 1355 1354
f 1356 1357 1352
f 1356 1352 1350
f 1315 1356 1350
f 1314 1315 1350
f 1314 1350 1312
f 1355 1316 1313
f 1316 1355 1317
f 1317 1355 1356
f 1317 1356 1315
f 1358 1320 1321
f 1322 1359 1321
f 1321 1359 1358
f 1323 1359 1322
f 1361 1360 1358
f 1360 1320 1358
f 1360 1325 1320
f 1361 1358 1359
f 1361 1359 1362
f 1359 1323 1362
f 1323 1363 1362
f 1323 1327 1363
f 1364 1328 1329
f 1365 1364 1329
f 1325 1365 1329
f 1360 1365 1325
f 1327 1330 1366
f 1367 1327 1366
f 1363 1327 1367
f 1331 1366 1330
f 1369 1368 1364
f 1368 1328 1364
f 1368 1332 1328
f 1369 1364 1365
f 1370 1367 1366
f 1366 1331 1370
f 1331 1371 1370
f 1331 1333 1371
f 1368 1334 1332
f 1372 1334 1368
f 1335 1371 1333
f 1335 1373 1371
f 1372 1336 1334
f 1374 1336 1372
f 1337 1373 1335
f 1337 1375 1373
f 1374 1339 1336
f 1376 1339 1374
f 1341 1375 1337
f 1341 1377 1375
f 1376 1378 1339
f 1339 1378 1342
f 1343 1342 1378
f 1343 1378 1379
f 1341 1344 1380
f 1381 1341 1380
f 1377 1341 1381
f 1345 1380 1344
f 1379 1346 1343
f 1382 1346 1379
f 1381 1380 1383
f 1381 1383 1384
f 1347 1383 1345
f 1345 1383 1380
f 1382 1349 1346
f 1385 1349 1382
f 1384 1383 1351
f 1352 1384 1351
f 1386 1384 1352
f 1351 1383 1347
f 1385 1387 1349
f 1349 1387 1353
f 1353 1388 1354
f 1387 1388 1353
f 1354 1389 1357
f 1388 1389 1354
f 1352 1357 1386
f 1386 1357 1389
f 1390 1360 1361
f 1362 1391 1361
f 1361 1391 1390
f 1363 1391 1362
f 1393 1392 1390
f 1392 1360 1390
f 1392 1365 1360
f 1393 1390 1391
f 1393 1391 1394
f 1391 1363 1394
f 1363 1395 1394
f 1363 1367 1395
f 1396 1368 1369
f 1397 1396 1369
f 1365 1397 1369
f 1392 1397 1365
f 1367 1370 1398
f 1399 1367 1398
f 1395 1367 1399
f 1371 1398 1370
f 1400 1372 1396
f 1396 1372 1368
f 1396 1397 1401
f 1396 1401 1400
f 1402 1399 1398
f 1398 1371 1402
f 1371 1403 1402
f 1371 1373 1403
f 1404 1374 1400
f 1400 1374 1372
f 1400 1401 1405
f 1400 1405 1404
f 1375 1403 1373
f 1375 1406 1403
f 1407 1376 1404
f 1404 1376 1374
f 1404 1405 1408
f 1404 1408 1407
f 1377 1406 1375
f 1377 1409 1406
f 1407 1378 1376
f 1379 1378 1407
f 1408 1379 1407
f 1410 1379 1408
f 1381 1409 1377
f 1381 1411 1409
f 1410 1382 1379
f 1412 1382 1410
f 1384 1411 1381
f 1384 1413 1411
f 1415 1385 1414
f 1385 1412 1414
f 1385 1382 1412
f 1416 1415 1414
f 1419 1418 1417
f 1418 1413 1417
f 1413 1386 1417
f 1413 1384 1386
f 1415 1387 1385
f 1416 1420 1415
f 1420 1387 1415
f 1420 1388 1387
f 1417 1389 1419
f 1389 1420 1419
f 1389 1388 1420
f 1389 1417 1386
f 1421 1392 1393
f 1394 1422 1393
f 1393 1422 1421
f 1395 1422 1394
f 1423 1397 1421
f 1421 1397 1392
f 1424 1421 1422
f 1423 1421 1424
f 1399 1424 1395
f 1395 1424 1422
f 1425 1401 1423
f 1423 1401 1397
f 1424 1427 1426
f 1425 1424 1426
f 1423 1424 1425
f 1429 1427 1428
f 1428 1427 1402
f 1427 1424 1402
f 1424 1399 1402
f 1403 1428 1402
f 1431 1430 1425
f 1430 1401 1425
f 1430 1405 1401
f 1431 1425 1426
f 1429 1428 1432
f 1429 1432 1433
f 1406 1432 1403
f 1403 1432 1428
f 1430 1408 1405
f 1434 1408 1430
f 1433 1432 1435
f 1433 1435 1436
f 1409 1435 1406
f 1406 1435 1432
f 1434 1410 1408
f 1437 1410 1434
f 1436 1435 1438
f 1436 1438 1439
f 1411 1438 1409
f 1409 1438 1435
f 1441 1412 1440
f 1412 1437 1440
f 1412 1410 1437
f 1443 1442 1441
f 1443 1441 1440
f 1442 1443 1439
f 1438 1442 1439
f 1444 1442 1438
f 1413 1444 1411
f 1411 1444 1438
f 1441 1414 1412
f 1414 1441 1416
f 1441 1445 1416
f 1441 1442 1445
f 1419 1445 1418
f 1445 1444 1418
f 1445 1442 1444
f 1418 1444 1413
f 1445 1420 1416
f 1420 1445 1419
f 1446 1426 1427
f 1429 1446 1427
f 1447 1430 1431
f 1426 1446 1431
f 1446 1447 1431
f 1446 1448 1447
f 1433 1448 1429
f 1429 1448 1446
f 1449 1434 1447
f 1447 1434 1430
f 1450 1447 1448
f 1449 1447 1450
f 1436 1450 1433
f 1433 1450 1448
f 1451 1437 1449
f 1449 1437 1434
f 1452 1449 1450
f 1451 1449 1452
f 1439 1452 1436
f 1436 1452 1450
f 1451 1440 1437
f 1440 1451 1443
f 1443 1451 1452
f 1443 1452 1439
# 2900 faces, 0 coords texture

# End of File