####
#
# OBJ File Generated by Meshlab
#
####
# Object domain192.obj
#
# Vertices: 247
# Faces: 500
#
####
v 158.044937 447.629456 155.801041
v 150.603058 447.089050 153.242416
v 152.472641 451.517120 157.063126
v 154.100311 464.057129 156.613312
v 154.120834 446.551392 154.462540
v 156.161530 457.516663 151.735535
v 149.565155 453.662659 152.654266
v 151.183380 450.514221 146.531723
v 157.748764 458.565094 153.231323
v 159.606613 453.572235 153.571487
v 152.388580 446.642365 153.067490
v 152.463150 461.622742 154.036987
v 156.151367 446.574158 154.465805
v 149.762207 451.406921 151.875732
v 151.153275 447.839600 155.195007
v 159.642502 451.520721 154.438644
v 150.768036 451.518982 155.911133
v 154.119888 454.441895 149.001251
v 154.119980 448.175720 145.974045
v 154.119293 446.503143 153.044205
v 156.165619 448.189484 145.979401
v 158.275482 448.945190 156.604568
v 149.978745 458.663788 153.911667
v 150.756317 457.654083 155.802139
v 159.174759 457.645599 156.884369
v 151.128754 448.555542 147.615540
v 158.170944 463.863953 156.357788
v 151.049118 459.606384 155.685211
v 156.059799 462.881500 154.767700
v 151.827942 462.775360 155.361725
v 149.790436 457.478760 153.349777
v 160.627792 450.673920 156.943161
v 149.413467 450.620575 154.314072
v 154.112930 462.935699 154.687851
v 159.119217 461.824524 156.482056
v 156.166473 449.544891 157.133881
v 158.173004 449.264282 145.094421
v 159.700211 449.507782 147.913635
v 151.498840 461.729248 155.770889
v 158.183182 451.532043 157.204636
v 151.812027 459.703674 156.623993
v 158.210052 463.924011 156.649521
v 149.416061 449.448151 154.280014
v 152.345871 448.808594 145.241394
v 154.187119 463.992615 156.174561
v 151.022797 448.845917 145.095520
v 158.146988 461.748932 157.154480
v 154.127411 457.666077 157.382828
v 159.175552 459.708618 156.887024
v 159.265060 463.878906 156.846390
v 158.942703 456.925171 153.426208
v 159.506927 453.577057 154.549667
v 149.803879 453.560303 154.629471
v 158.165573 455.334991 150.131149
v 152.438431 447.465759 149.562103
v 156.169601 446.525787 153.046341
v 149.428345 448.650391 154.301361
v 154.120544 455.589569 150.028946
v 152.010757 461.843018 156.560944
v 156.152283 459.116913 152.849289
v 157.896057 461.660126 154.820435
v 154.129684 451.522705 157.322144
v 156.167221 451.368866 146.162003
v 158.867767 457.807190 154.448074
v 150.542908 459.643433 154.201981
v 154.090851 457.584656 151.693817
v 158.175018 457.665497 157.254990
v 158.151779 449.711212 156.931091
v 152.536163 461.730988 156.946533
v 159.218903 463.653473 156.810837
v 160.730698 453.650391 149.447571
v 154.121658 447.175629 149.511566
v 159.081268 461.097198 155.966248
v 158.900650 456.341736 152.140915
v 159.991776 451.518494 151.894012
v 152.436020 447.823456 147.584259
v 150.513535 447.803375 152.194595
v 158.169327 453.563446 157.234161
v 159.364960 455.750702 155.637741
v 156.167969 451.520203 157.378860
v 154.136658 461.754272 157.283310
v 150.739685 453.560608 155.934448
v 159.553009 455.382996 151.855606
v 159.289444 453.500671 156.774216
v 158.122101 447.879059 147.600403
v 160.698456 453.681885 149.456024
v 158.927322 448.305786 155.714005
v 156.171143 449.389252 145.086365
v 151.119583 448.249237 149.650650
v 158.235153 448.789703 145.190781
v 158.959274 448.800934 145.017014
v 152.451599 449.266968 145.116089
v 151.690903 455.612305 156.707642
v 150.382629 451.466064 149.688690
v 157.777710 462.814667 155.257706
v 154.115280 460.114563 153.187210
v 154.144547 463.649139 156.943420
v 156.156570 463.946564 156.154404
v 158.201187 449.900208 145.440674
v 159.040848 447.045410 153.204529
v 156.164352 447.601959 147.545059
v 156.147125 447.578400 156.245026
v 151.065887 455.070923 150.656235
v 158.132385 451.181274 146.363419
v 159.873901 450.351624 156.707062
v 156.158783 448.640686 156.849319
v 156.168091 453.564789 157.450500
v 152.596375 447.056946 155.438309
v 156.176987 448.822968 145.255722
v 159.287125 463.872620 156.874146
v 151.062759 449.389801 145.830841
v 158.122040 447.509705 149.578705
v 151.712051 451.549042 156.675232
v 158.161377 459.767181 154.364426
v 159.254654 459.713898 156.746323
v 156.193512 460.157196 153.394135
v 149.713821 455.473663 152.737991
v 156.159378 446.936127 155.556412
v 158.135849 446.991119 151.891861
v 150.699188 458.634094 153.171692
v 158.141983 457.260132 152.326172
v 156.199112 455.602875 150.015610
v 158.992416 461.790649 156.767487
v 152.414230 451.016357 146.212189
v 156.155701 463.970825 156.605057
v 158.951294 448.811005 145.025848
v 160.770126 453.585846 149.506485
v 150.904205 447.116669 154.110504
v 154.121719 447.593658 147.542908
v 159.843201 451.333496 156.413589
v 154.126785 455.615112 157.386566
v 156.168396 455.614655 157.462860
v 156.166626 446.694489 151.818192
v 152.502838 452.177155 147.309784
v 154.126602 453.564636 157.384918
v 152.362106 457.477142 151.837265
v 159.478622 449.931488 156.353592
v 149.814880 455.609955 154.611801
v 159.728546 451.295197 156.705490
v 159.688019 451.517242 153.587997
v 156.168259 457.666046 157.459976
v 154.129929 449.549957 157.120346
v 154.119431 461.664612 153.842728
v 152.335495 458.986053 152.779816
v 159.210327 447.706635 152.174850
v 154.119568 446.697357 151.819687
v 152.505844 459.713562 157.024429
v 158.909119 447.652557 154.912018
v 159.994080 453.550659 151.893158
v 156.168060 459.716736 157.451675
v 152.216095 449.222473 156.612534
v 150.856735 453.543854 149.924042
v 159.125580 459.754150 155.950180
v 159.344681 455.614471 153.478989
v 159.491226 454.287689 155.765182
v 160.523438 453.920471 149.325867
v 156.194260 453.319031 147.906250
v 151.731277 457.663361 156.678741
v 149.559402 453.561554 153.910080
v 159.468369 453.471375 156.464874
v 158.086380 446.834991 154.381958
v 158.206543 446.707794 153.036087
v 154.133316 450.139801 145.318222
v 159.487045 449.456818 154.480499
v 159.579071 449.287598 153.678345
v 159.312271 455.672150 154.596680
v 151.407227 461.486053 154.665222
v 154.125778 448.647430 156.832825
v 152.479446 455.614105 157.074829
v 160.787247 453.658051 149.519699
v 154.133118 451.348633 146.184982
v 154.121521 453.286072 147.951218
v 158.191284 454.339996 149.105118
v 150.149734 447.408020 153.338791
v 159.906799 449.653442 149.514374
v 156.084122 461.623474 153.994812
v 158.848709 448.693817 145.927185
v 156.168777 454.489807 148.948730
v 159.317505 448.336914 149.693405
v 154.116882 459.046021 152.642227
v 154.128632 459.716217 157.372223
v 150.246262 455.654327 151.795227
v 156.151306 450.152435 145.311493
v 156.167191 463.617462 156.954391
v 158.154297 448.309967 145.972626
v 154.123001 449.382904 145.086441
v 153.226974 463.853271 156.702209
v 151.022919 448.856537 145.099838
v 159.264679 457.639587 156.735046
v 151.318954 452.854523 148.668625
v 152.475113 453.563232 157.079910
v 152.377487 446.911896 151.879349
v 152.405853 455.425995 150.215607
v 154.112701 448.817841 145.251251
v 158.904999 446.916779 153.677490
v 156.166550 461.755646 157.350906
v 158.173355 459.715088 157.243469
v 159.895889 451.472443 148.065353
v 151.030624 451.265198 147.754425
v 154.132202 446.931458 155.557846
v 159.125671 447.400970 154.021881
v 149.963486 449.462494 151.879898
v 158.190262 463.626007 156.911530
v 151.203659 448.755310 145.980072
v 154.134567 447.582703 156.249390
v 152.412643 448.271240 145.993759
v 150.736710 449.489075 147.612152
v 160.757645 453.686829 149.506378
v 149.611893 457.667267 153.981628
v 151.668915 453.565186 156.719238
v 152.407364 453.319305 148.336746
v 152.233154 449.897614 145.409286
v 150.739044 455.610748 155.878998
v 160.943375 452.408844 149.600876
v 152.420624 446.658722 154.432144
v 149.608246 455.618591 153.903778
v 153.053406 463.586853 156.742813
v 152.422714 447.627869 155.919006
v 157.377274 447.042816 155.468430
v 149.439423 449.435455 154.330048
v 158.185257 453.259125 148.054108
v 149.876556 453.442566 151.647675
v 152.485214 462.718842 154.711639
v 159.251907 448.519470 147.931198
v 149.877914 457.627045 154.556641
v 158.181229 455.614838 157.265823
v 150.439758 449.546722 149.538559
v 149.401337 450.242767 154.279358
v 160.616104 450.690247 156.935760
v 159.403824 455.495453 156.774597
v 156.165085 447.178619 149.512848
v 159.031815 449.442780 146.024994
v 150.890381 449.549286 155.674530
v 152.486801 457.665344 157.062469
v 149.509232 452.079163 153.068054
v 152.652893 463.454956 156.192703
v 159.085678 451.021423 146.893539
v 149.456314 448.251434 154.348969
v 152.347946 460.052917 153.376694
v 159.784180 449.436035 151.884521
v 160.682526 454.166290 149.602676
v 150.519348 457.322083 152.428375
v 152.392334 454.251648 149.221832
v 159.351212 455.477264 156.889603
v 151.682877 462.460114 154.818024
v 152.659653 449.768860 156.931992
v 159.191177 457.697601 155.630890
# 247 vertices, 0 vertices normals

f 190 199 134
f 62 135 80
f 49 47 123
f 163 183 171
f 174 128 2
f 162 100 145
f 153 35 73
f 135 107 80
f 78 226 84
f 60 96 180
f 71 198 127
f 77 192 89
f 154 10 166
f 234 48 131
f 33 43 220
f 150 181 81
f 157 221 173
f 86 127 149
f 27 110 42
f 146 72 55
f 12 245 167
f 224 38 232
f 86 173 221
f 29 95 98
f 19 206 76
f 43 57 220
f 37 232 99
f 224 232 177
f 225 28 24
f 87 137 148
f 69 81 181
f 137 22 68
f 60 9 116
f 29 61 95
f 142 3 62
f 26 204 207
f 177 232 126
f 5 11 215
f 49 197 47
f 236 39 30
f 161 1 148
f 80 107 40
f 164 201 148
f 107 78 40
f 46 188 111
f 138 53 159
f 208 170 241
f 239 167 65
f 165 201 164
f 230 160 84
f 93 169 210
f 146 55 192
f 188 92 212
f 171 172 134
f 140 10 149
f 166 52 79
f 26 55 76
f 13 219 161
f 45 29 98
f 26 76 206
f 234 147 48
f 4 125 184
f 141 181 150
f 113 191 3
f 33 53 228
f 225 24 138
f 208 71 156
f 237 198 71
f 123 50 70
f 209 65 225
f 72 231 129
f 147 181 48
f 166 247 64
f 236 187 217
f 128 57 15
f 56 161 162
f 242 182 103
f 213 138 24
f 62 80 36
f 123 47 203
f 59 236 217
f 171 183 63
f 220 228 17
f 57 202 220
f 129 19 76
f 59 39 236
f 16 52 140
f 102 22 1
f 127 170 214
f 131 132 107
f 153 73 114
f 86 221 71
f 86 170 127
f 193 103 243
f 17 228 82
f 141 48 181
f 72 133 231
f 190 134 211
f 118 102 219
f 68 40 105
f 217 187 97
f 155 52 160
f 17 113 151
f 94 227 207
f 43 238 57
f 6 60 180
f 150 81 196
f 116 9 114
f 114 64 247
f 56 162 119
f 167 245 30
f 130 229 32
f 205 102 118
f 179 38 224
f 242 65 23
f 171 134 124
f 20 133 146
f 163 124 212
f 194 44 206
f 230 189 79
f 130 32 139
f 154 51 74
f 176 61 29
f 86 241 170
f 128 238 57
f 204 206 44
f 205 168 106
f 86 83 208
f 137 68 105
f 27 70 110
f 196 81 97
f 158 147 234
f 164 137 130
f 49 123 35
f 141 150 67
f 139 84 160
f 209 23 65
f 31 117 182
f 57 220 233
f 144 180 239
f 152 222 94
f 239 180 96
f 58 6 66
f 80 40 68
f 239 12 167
f 26 227 89
f 199 94 207
f 132 226 78
f 209 117 31
f 186 109 88
f 141 67 226
f 40 78 139
f 61 70 95
f 33 220 228
f 105 139 32
f 216 138 159
f 176 114 61
f 33 159 53
f 208 74 54
f 176 34 143
f 208 83 74
f 172 18 211
f 99 232 104
f 128 108 215
f 126 232 37
f 169 135 191
f 116 176 143
f 94 222 14
f 194 92 44
f 204 46 111
f 203 42 50
f 14 202 227
f 146 192 11
f 75 127 175
f 236 34 45
f 88 90 37
f 196 47 197
f 100 195 201
f 154 74 83
f 224 177 85
f 25 197 49
f 223 34 236
f 19 109 194
f 189 247 79
f 109 90 88
f 200 218 205
f 171 157 172
f 220 202 14
f 162 161 195
f 131 48 132
f 220 17 233
f 100 201 145
f 20 13 56
f 86 54 173
f 93 158 234
f 86 71 208
f 209 225 216
f 86 127 214
f 179 175 38
f 45 98 125
f 179 112 145
f 12 96 143
f 165 240 201
f 174 77 238
f 137 229 130
f 41 59 69
f 168 142 106
f 164 130 16
f 25 49 115
f 132 48 141
f 62 3 191
f 93 24 158
f 57 238 220
f 21 90 109
f 98 95 27
f 193 243 18
f 73 35 61
f 69 217 81
f 13 118 219
f 41 69 147
f 161 219 1
f 164 148 137
f 232 38 237
f 94 14 227
f 171 63 157
f 111 212 8
f 10 83 149
f 105 32 229
f 35 123 70
f 153 115 35
f 128 15 108
f 33 228 235
f 41 28 39
f 194 109 186
f 101 112 85
f 163 171 124
f 43 220 238
f 104 71 221
f 162 145 119
f 57 233 15
f 26 206 204
f 152 199 190
f 244 67 25
f 15 218 108
f 168 218 151
f 91 90 185
f 45 125 4
f 12 223 245
f 172 178 18
f 147 69 181
f 18 243 211
f 58 122 6
f 183 99 63
f 101 185 21
f 204 111 207
f 14 235 228
f 178 173 122
f 237 38 198
f 155 79 52
f 137 105 229
f 187 4 97
f 74 51 121
f 45 34 29
f 28 65 39
f 196 97 184
f 95 70 27
f 77 2 192
f 33 235 159
f 204 44 46
f 122 54 121
f 198 175 127
f 87 148 1
f 144 239 65
f 190 211 243
f 179 145 240
f 162 195 100
f 16 130 160
f 86 214 170
f 177 126 91
f 193 18 58
f 5 118 13
f 179 224 85
f 236 4 187
f 33 228 43
f 239 96 12
f 244 226 67
f 129 21 19
f 74 121 54
f 133 119 231
f 122 173 54
f 155 230 79
f 122 121 6
f 38 175 198
f 230 244 189
f 163 212 92
f 66 6 180
f 89 192 55
f 42 110 50
f 194 186 92
f 217 97 81
f 186 88 183
f 154 166 64
f 62 191 135
f 129 101 21
f 77 202 57
f 179 85 112
f 78 84 139
f 168 151 246
f 193 58 66
f 73 61 114
f 200 108 218
f 153 114 247
f 225 65 28
f 102 106 22
f 213 82 53
f 135 131 107
f 242 103 136
f 184 203 47
f 88 37 99
f 107 132 78
f 82 210 113
f 26 89 55
f 209 216 117
f 142 62 36
f 63 221 157
f 176 29 34
f 189 115 247
f 213 210 82
f 223 30 245
f 56 13 161
f 98 42 125
f 184 125 203
f 240 75 175
f 136 144 120
f 142 246 3
f 189 25 115
f 117 7 222
f 115 49 35
f 186 183 163
f 128 215 2
f 158 24 28
f 157 173 178
f 119 145 112
f 41 39 59
f 166 79 247
f 111 8 199
f 172 157 178
f 5 200 118
f 136 66 144
f 20 11 5
f 116 114 176
f 132 141 226
f 165 16 140
f 77 57 238
f 19 21 109
f 14 7 235
f 188 44 92
f 151 113 3
f 91 126 37
f 72 129 76
f 193 136 103
f 152 182 222
f 103 152 243
f 86 156 71
f 26 207 227
f 209 31 23
f 196 184 47
f 60 121 9
f 4 184 97
f 152 190 243
f 130 139 160
f 58 178 122
f 169 131 135
f 154 64 51
f 21 185 90
f 186 163 92
f 20 56 133
f 233 151 218
f 129 231 101
f 104 237 71
f 144 65 120
f 2 11 192
f 15 233 218
f 244 25 189
f 223 143 34
f 158 41 147
f 12 143 223
f 231 112 101
f 6 121 60
f 56 119 133
f 177 185 85
f 216 7 117
f 8 124 134
f 104 232 237
f 43 228 220
f 20 146 11
f 167 30 39
f 102 1 219
f 72 76 55
f 242 31 182
f 89 227 202
f 5 215 200
f 82 228 53
f 20 5 13
f 93 234 169
f 106 36 22
f 59 217 69
f 111 188 212
f 174 238 128
f 116 143 96
f 200 215 108
f 8 212 124
f 151 3 246
f 205 218 168
f 220 14 228
f 195 148 201
f 19 194 206
f 172 211 134
f 236 45 4
f 242 23 31
f 36 68 22
f 16 160 52
f 36 80 68
f 93 213 24
f 142 36 106
f 91 37 90
f 155 160 230
f 166 10 52
f 93 210 213
f 77 89 202
f 140 52 10
f 223 236 30
f 86 208 156
f 35 70 61
f 216 159 7
f 213 53 138
f 86 71 127
f 152 94 199
f 140 149 75
f 161 148 195
f 70 50 110
f 225 138 216
f 63 104 221
f 8 134 199
f 144 66 180
f 60 116 96
f 174 2 77
f 231 119 112
f 87 1 22
f 14 222 7
f 86 208 54
f 165 75 240
f 88 99 183
f 242 136 120
f 125 42 203
f 17 82 113
f 18 178 58
f 51 64 121
f 177 91 185
f 101 85 185
f 150 196 197
f 200 205 118
f 179 240 175
f 153 247 115
f 40 139 105
f 168 246 142
f 117 222 182
f 242 120 65
f 111 199 207
f 46 44 188
f 86 170 208
f 193 66 136
f 154 83 10
f 165 140 75
f 123 203 50
f 17 151 233
f 63 99 104
f 244 84 226
f 9 64 114
f 230 84 244
f 25 67 197
f 98 27 42
f 87 22 137
f 113 210 191
f 145 201 240
f 150 197 67
f 167 39 65
f 86 208 241
f 146 133 72
f 235 7 159
f 169 191 210
f 121 64 9
f 169 234 131
f 86 149 83
f 75 149 127
f 165 164 16
f 103 182 152
f 158 28 41
f 2 215 11
f 205 106 102
# 500 faces, 0 coords texture

# End of File