####
#
# OBJ File Generated by Meshlab
#
####
# Object Volume_219.obj
#
# Vertices: 478
# Faces: 956
#
####
v 132.144470 278.057190 122.541275
v 137.512146 284.507050 123.058075
v 139.381363 280.360901 127.747070
v 137.517426 295.052032 123.042107
v 129.230835 300.372742 122.924606
v 137.560013 300.127533 123.478195
v 134.196915 302.180267 125.280853
v 138.001648 290.949158 135.463867
v 141.352463 303.509583 134.114120
v 141.472443 293.138550 132.250732
v 140.148849 293.023560 127.536163
v 135.940201 274.788605 125.174110
v 131.095261 304.951050 132.684296
v 132.144638 277.978241 130.035187
v 135.951279 284.503540 135.466064
v 134.193115 280.400970 122.528725
v 130.865646 299.186340 129.958069
v 130.149445 284.503113 122.781883
v 129.246506 286.554840 130.991714
v 134.195221 299.152893 135.465088
v 139.531265 282.402740 127.775818
v 128.915787 288.577148 123.682793
v 130.623779 288.497131 134.706131
v 134.195602 301.496490 135.453751
v 132.195969 301.496735 135.226578
v 130.154037 280.401337 122.797745
v 132.099579 279.216339 133.006104
v 134.196060 300.245270 123.150841
v 129.479202 286.543243 132.212158
v 134.193222 297.100739 122.539345
v 137.974442 302.699280 126.339310
v 135.936829 284.503174 122.649330
v 137.256424 274.272736 123.656532
v 131.205215 297.077545 134.784256
v 135.952209 277.957428 130.045975
v 141.294281 293.029785 134.029434
v 139.299042 302.439270 126.837921
v 129.949951 290.907013 132.292755
v 132.198334 299.152527 135.220886
v 140.896683 290.288300 131.291824
v 140.855667 282.011749 134.822800
v 130.209610 280.925018 134.804199
v 128.786163 280.503571 125.446548
v 129.284317 280.350708 131.009918
v 139.053909 279.170685 129.738953
v 132.163025 282.479370 135.227509
v 135.934006 280.710083 134.816483
v 140.934814 299.354980 134.791916
v 140.641022 286.561096 132.380661
v 130.609222 292.976196 134.358093
v 138.658707 278.015900 125.760857
v 138.031982 277.400024 128.374374
v 129.132217 294.979279 123.245895
v 139.766525 288.604370 127.496666
v 134.193542 288.605194 122.520554
v 129.507065 282.312378 134.029556
v 139.989716 303.521301 135.145859
v 135.949463 305.290131 134.820602
v 137.517105 286.552948 123.044495
v 129.588760 279.162201 131.062881
v 129.079330 284.503021 123.303780
v 138.387100 290.948608 123.599808
v 132.140732 277.135162 128.526474
v 139.042572 293.002136 124.392937
v 129.105972 288.727966 127.423508
v 128.780533 278.061554 123.673706
v 137.435043 282.463379 123.133926
v 134.193039 278.057098 122.533951
v 134.194870 295.050842 135.471405
v 135.937180 293.000153 122.645393
v 132.146637 300.201233 123.199814
v 140.136993 286.530396 130.077362
v 138.766235 284.508575 124.137680
v 132.172882 286.553680 135.290009
v 128.857925 282.454193 123.695808
v 132.148056 273.970551 123.939957
v 139.807373 297.102783 125.853699
v 129.303040 281.828705 134.847305
v 132.144608 290.949158 122.538353
v 134.193542 290.949127 122.520576
v 134.169754 304.284515 129.084564
v 129.165405 282.418274 131.018890
v 132.371887 302.977142 127.854706
v 129.368713 299.121460 123.125694
v 135.935791 297.099609 122.659210
v 130.809052 303.517059 134.244431
v 130.180481 278.323090 129.855530
v 139.367569 301.347961 126.072250
v 138.001236 301.496124 135.451752
v 130.150406 282.452667 122.785110
v 132.177124 288.604584 135.268265
v 130.928528 299.153748 134.349258
v 129.169876 288.239014 129.630234
v 132.145004 297.100067 122.560181
v 137.978165 284.502411 135.304703
v 139.991043 288.620880 135.174210
v 140.430145 282.494354 134.081924
v 135.951431 302.831421 126.236908
v 134.195618 274.172607 123.043533
v 135.952103 288.605133 135.500107
v 139.948624 282.417419 134.807327
v 140.587723 286.189789 134.120148
v 128.811157 280.188751 126.197479
v 139.920578 304.074371 129.206985
v 130.949219 290.911682 134.699875
v 134.194687 293.000000 135.474426
v 137.999329 305.041779 130.307159
v 134.192703 299.113678 122.734596
v 141.044724 288.874603 132.609268
v 132.188705 295.050171 135.244415
v 130.147812 297.100555 122.768982
v 129.114990 277.037109 126.863182
v 139.166855 284.503479 125.510056
v 129.332458 297.064148 123.205742
v 129.073227 286.543091 129.779282
v 131.213181 303.493774 131.103653
v 135.920013 278.057098 122.717171
v 134.192703 305.974274 134.174240
v 141.005844 301.488251 128.601685
v 134.201874 306.143463 133.524261
v 128.240021 274.082764 123.180641
v 128.820084 284.529205 125.554031
v 129.329025 281.680145 134.968613
v 139.997070 291.116699 127.557945
v 131.025528 294.829803 134.763306
v 139.991409 290.950378 135.208344
v 139.867996 281.340149 134.693100
v 129.954300 279.319519 131.978928
v 134.195694 305.289978 134.820663
v 129.083466 278.055603 127.571754
v 140.889526 305.360840 134.638000
v 139.507339 279.716187 131.794754
v 134.193649 295.050781 122.517502
v 130.991714 305.352051 134.546341
v 138.005356 305.282715 134.806534
v 135.912308 279.865326 134.132050
v 138.001862 297.101807 135.468506
v 132.144302 280.400879 122.534790
v 132.143997 284.503143 122.529266
v 134.194763 284.503540 135.467163
v 129.390854 293.101196 125.521194
v 137.763153 276.167389 125.918213
v 142.583923 298.305389 132.425476
v 139.998672 299.152893 135.222000
v 129.046158 288.104645 128.137878
v 137.995163 306.123779 133.525696
v 132.144196 278.879791 132.204559
v 137.895218 280.907715 134.779800
v 132.145340 299.109558 122.749725
v 135.951202 302.199768 125.270462
v 139.999054 295.050842 135.232178
v 129.650894 288.640747 132.194260
v 132.338943 304.671722 130.672562
v 130.093109 276.749207 127.413971
v 134.194061 277.903564 130.069702
v 130.534653 296.937195 129.911774
v 141.765427 295.119965 132.143051
v 128.454285 274.055542 123.218765
v 129.311508 295.062561 124.312073
v 128.777985 277.950317 125.701988
v 141.694412 299.043671 133.974518
v 139.465439 290.886292 125.573212
v 135.950302 279.157104 133.009995
v 134.200394 302.786499 126.262680
v 134.194092 277.108124 128.541809
v 128.868225 280.388275 123.686455
v 141.641586 299.210236 130.169846
v 130.106247 274.184662 123.112526
v 132.049133 303.592987 129.722931
v 134.193588 293.000000 122.517464
v 130.314728 295.074036 130.020721
v 140.943710 303.536804 134.734299
v 130.103210 273.949799 123.341370
v 138.632751 300.603241 124.604218
v 141.456131 295.198212 130.765732
v 132.185074 300.981476 123.983566
v 135.952057 299.152985 135.500031
v 139.107239 282.425385 125.491798
v 140.888947 281.572662 135.002441
v 140.000000 297.101410 135.231903
v 134.207718 304.987335 130.339050
v 129.657440 290.796295 130.054276
v 132.144501 274.707916 125.237968
v 135.911438 276.020660 122.778084
v 132.144379 288.605194 122.535805
v 138.831146 288.610718 124.152931
v 134.194382 286.553894 135.480042
v 132.142471 275.540955 126.313339
v 130.578934 284.472382 134.719254
v 135.951782 305.907013 132.234024
v 140.740723 303.232361 128.840454
v 130.131683 299.122467 122.859711
v 139.923843 280.915680 133.991074
v 138.407059 295.053009 123.583298
v 131.375763 301.688660 128.033936
v 132.143982 282.451935 122.529297
v 135.950226 276.542145 127.537582
v 134.193390 282.452087 122.522598
v 140.852554 297.110901 134.843811
v 140.816635 292.890991 129.920731
v 129.281921 282.337738 132.288300
v 130.933289 301.458160 130.984283
v 137.354919 280.406311 123.201164
v 138.001831 293.000000 135.467972
v 135.951263 306.154663 133.520752
v 140.832962 286.962830 134.362305
v 140.763443 281.511108 134.947311
v 137.925613 278.280060 129.921829
v 141.614639 297.136505 130.374863
v 130.143158 274.019226 123.886978
v 129.401367 284.505249 132.201843
v 129.541275 281.073486 134.821381
v 132.262756 305.590454 132.385178
v 129.315933 288.894745 130.332184
v 135.951996 286.553864 135.489899
v 137.999481 303.527496 135.318420
v 129.805801 299.152069 124.093918
v 128.833923 282.453522 126.493027
v 130.220322 293.023987 132.510422
v 130.574646 297.085236 132.158646
v 132.145737 273.931671 123.340614
v 139.278824 286.671692 125.670944
v 139.998352 304.756226 130.417603
v 138.718292 282.811920 124.151894
v 140.962891 287.507324 133.062759
v 135.919373 299.106781 122.821495
v 135.908493 273.985748 123.893242
v 135.951782 303.532074 135.353531
v 129.910889 297.038269 125.556335
v 135.936401 288.605011 122.651634
v 139.755524 295.052673 125.869194
v 140.915024 304.904510 132.453979
v 130.383759 299.155121 125.704330
v 138.393784 286.555695 123.582062
v 131.209427 301.268433 127.361511
v 129.376404 278.838806 129.440704
v 142.589172 297.629669 132.405350
v 131.892029 302.310120 127.002419
v 139.671005 280.474091 130.061340
v 129.459808 279.971375 133.865601
v 135.930984 282.452667 122.673157
v 135.920715 280.401276 122.711960
v 140.948700 304.385834 130.809448
v 139.067810 297.115936 124.377281
v 130.156998 288.604218 122.807648
v 140.802765 295.055481 134.839050
v 132.144028 286.553986 122.529373
v 140.027145 305.300537 134.796753
v 134.193115 274.698883 125.244766
v 140.783005 305.701782 134.454056
v 132.158859 280.715546 134.799194
v 137.829788 300.936768 124.115135
v 128.987976 282.446320 129.785156
v 137.997070 304.399109 129.018265
v 135.952744 305.084412 130.287552
v 130.140152 276.023804 122.812370
v 129.011658 278.037415 123.296288
v 138.795547 286.558899 124.143806
v 129.207031 293.040039 123.703453
v 132.244598 306.023346 133.597717
v 139.702667 280.094116 132.504608
v 128.880051 275.912964 123.294350
v 128.814789 282.449799 125.543137
v 140.602570 287.176880 134.791992
v 130.150589 286.553192 122.786331
v 138.372040 284.519592 123.602280
v 142.341629 297.033600 132.121811
v 134.196808 303.530029 135.334564
v 135.950211 305.980530 134.176361
v 128.874725 286.557831 125.571838
v 128.654236 275.836151 123.667259
v 129.009308 276.131439 125.698944
v 135.937653 295.050903 122.642433
v 129.922104 284.467804 133.987854
v 141.135818 298.851654 128.921341
v 128.868561 282.447937 127.519691
v 137.248932 276.011841 123.294502
v 137.981491 282.479675 135.218277
v 137.886169 280.100616 134.110779
v 138.830978 280.157715 125.184357
v 130.736771 294.917480 134.384338
v 137.515503 288.604126 123.051628
v 130.693405 299.156952 127.496857
v 137.530655 297.117096 123.055450
v 128.928177 286.581512 126.939056
v 137.993622 305.855011 132.253510
v 137.993988 279.045532 132.170364
v 134.194809 279.141846 133.015015
v 140.257019 282.541168 132.251633
v 140.762375 288.413605 131.641953
v 140.038315 305.944458 134.227585
v 130.887283 305.567261 134.250549
v 139.628799 286.400909 127.590919
v 132.195404 297.101135 135.232574
v 134.191742 273.953552 123.944695
v 138.007172 305.961761 134.170059
v 139.039322 277.015717 127.592201
v 129.110809 288.572235 123.319565
v 140.412491 301.470520 127.641472
v 141.443069 295.093872 134.016617
v 134.193451 279.831146 134.145706
v 130.114349 274.809570 125.144661
v 130.403793 295.045074 132.493500
v 132.265228 301.808685 125.418694
v 128.223419 274.041779 123.186905
v 132.144150 295.050812 122.530815
v 132.306427 302.434540 126.453949
v 137.320374 278.054291 123.245293
v 129.416138 297.077637 123.071030
v 135.936066 290.949219 122.653076
v 129.559280 279.913361 133.941345
v 137.523499 275.087402 124.904015
v 132.184967 293.000275 135.251129
v 138.936020 278.984924 126.110237
v 130.899170 301.518372 134.341553
v 139.981232 284.514252 130.020844
v 129.184692 284.503235 131.007355
v 128.878708 284.466095 126.507347
v 138.398575 297.195007 123.588982
v 134.193588 286.553925 122.517464
v 130.827393 303.477692 132.433151
v 139.011414 277.099976 127.599197
v 139.339432 288.612549 125.526848
v 139.045380 280.621735 125.807991
v 139.965012 305.980316 133.632721
v 135.952026 293.000031 135.500000
v 132.173706 284.504059 135.287460
v 128.944305 288.618652 125.568008
v 141.870712 301.250122 132.366913
v 141.024048 301.509705 134.748001
v 134.192322 276.014832 122.618210
v 135.952377 303.658813 127.606499
v 139.096695 277.070221 127.600830
v 141.047073 300.050354 128.572922
v 141.231552 291.122284 132.423843
v 140.775009 293.002563 134.823547
v 129.199707 291.056213 125.679344
v 130.932831 292.991425 134.757431
v 132.145615 276.016632 122.631287
v 132.144424 293.000031 122.535248
v 130.893555 305.642365 134.401077
v 129.264420 290.802460 123.297913
v 134.194077 276.482147 127.580559
v 138.986145 291.103912 124.355522
v 140.549042 299.173981 127.537781
v 138.728867 299.106445 124.187767
v 130.242722 288.509705 134.288803
v 131.066345 300.363403 129.459854
v 137.511505 290.949738 123.056854
v 128.858841 284.502747 123.698204
v 130.017319 294.920319 127.468864
v 137.649429 299.112732 123.260193
v 139.067688 295.052032 124.383934
v 130.422302 297.318970 127.620354
v 135.945602 275.654449 126.243690
v 134.194992 297.101837 135.469070
v 129.405396 299.164124 123.035896
v 138.001541 299.152771 135.463104
v 131.194427 301.562531 129.781952
v 135.938797 301.144653 123.922951
v 130.165207 290.948853 122.821663
v 129.088745 280.397552 123.309883
v 138.002350 288.604004 135.446854
v 131.492294 304.600891 131.426407
v 140.723511 288.620575 134.825775
v 137.631287 276.178833 123.797508
v 142.334702 299.065399 132.160721
v 134.219086 303.544281 127.663727
v 139.994247 293.000305 135.220657
v 135.952042 295.050842 135.500015
v 134.193649 284.503113 122.516968
v 129.534897 279.918427 134.001526
v 141.299271 293.862610 130.938477
v 132.146362 274.182678 123.061653
v 137.516525 293.000977 123.044014
v 135.953217 304.427155 129.002441
v 130.116592 300.058014 123.174629
v 137.968826 279.349182 132.936508
v 134.195496 282.469086 135.342606
v 132.141891 276.505524 127.563980
v 128.707031 278.798523 125.079086
v 140.337128 288.562927 130.042862
v 141.524231 303.402832 132.542755
v 140.891235 281.892242 135.004211
v 139.913223 305.567688 132.357132
v 134.203278 305.853546 132.257538
v 140.519028 297.081573 127.676941
v 139.677673 293.003845 125.888603
v 137.115341 274.098541 123.294235
v 132.109360 305.941650 134.138123
v 140.750977 290.950348 134.809189
v 130.765808 301.518982 132.240799
v 134.203568 273.911926 123.333885
v 137.908264 278.087250 123.850433
v 139.926712 286.567963 134.934692
v 135.950424 282.470062 135.338562
v 134.195023 290.949158 135.468185
v 131.264847 301.080536 125.544662
v 137.945343 301.964508 125.449387
v 129.038940 280.279846 129.859146
v 141.090042 296.918152 129.212311
v 140.343369 295.147675 127.600098
v 135.952057 278.820618 132.229095
v 134.199493 301.157715 123.910927
v 137.983749 303.571899 127.662842
v 128.979187 286.413849 127.714584
v 134.194351 275.538391 126.316254
v 140.945877 294.940277 129.453110
v 139.998718 301.496063 135.211411
v 134.195190 280.692261 134.832031
v 140.216721 284.515961 134.026825
v 130.708069 299.152313 132.189789
v 138.453461 282.358978 123.818405
v 132.191559 290.949005 135.235092
v 135.937622 286.553772 122.643440
v 140.585785 290.981812 130.005478
v 131.093781 303.709869 134.717514
v 135.957458 277.127930 128.528580
v 128.882156 280.241302 127.567070
v 141.502289 301.497467 130.105301
v 130.209442 277.454102 128.331833
v 129.731323 295.232666 125.753448
v 135.952042 301.496887 135.488174
v 138.402878 288.603851 123.583038
v 132.196304 303.521637 135.155624
v 139.914688 282.438934 129.905624
v 129.067551 290.831360 123.692818
v 130.083145 286.516205 134.161575
v 129.403946 290.874390 127.513168
v 131.211090 301.514648 134.779907
v 130.001251 293.026886 130.057266
v 141.489639 301.370483 134.151993
v 130.147385 278.056854 122.786095
v 128.816498 275.052338 124.798897
v 130.497849 300.274902 123.805313
v 129.788345 293.132843 127.604637
v 129.581436 297.157562 124.312820
v 129.086029 286.549744 123.307426
v 141.163437 291.073730 134.150543
v 139.586670 284.484589 127.774574
v 132.176193 305.278168 134.756805
v 132.159073 279.907806 134.134354
v 138.144043 280.546295 123.883484
v 129.264984 300.369293 122.951576
v 137.995361 286.553497 135.380661
v 134.193726 278.801178 132.236465
v 135.911484 274.150360 123.067444
v 129.389648 292.990784 123.262230
v 128.866852 286.549805 123.688919
v 130.577896 286.548309 134.708633
v 141.754684 297.161865 133.870590
v 135.952042 290.949158 135.500015
v 135.942932 273.912231 123.317223
v 141.015213 288.786591 134.334183
v 130.168747 293.002014 122.817665
v 130.141647 275.728699 126.135948
v 138.400681 293.000793 123.589081
v 129.190826 294.925781 123.118843
v 140.338028 284.473328 132.220428
v 130.457596 290.932739 134.103745
v 139.596405 284.509338 134.765366
v 139.741684 299.137512 125.894203
v 140.998810 305.408508 134.372711
v 130.247406 282.368073 134.839890
v 130.143036 295.051331 122.767189
v 128.429306 274.236389 123.575775
v 129.082352 282.455139 123.305580
v 135.952026 297.101746 135.500015
v 137.088547 274.020081 123.306305
v 130.877670 297.080750 134.346786
v 138.001831 295.050781 135.468277
v 141.182343 303.551697 129.958206
v 128.895172 284.490997 127.525093
v 139.953323 303.267456 127.997826
v 131.223328 299.152954 134.779160
v 135.930328 300.228760 123.184090
v 134.194626 288.605255 135.474930
v 129.031708 284.500946 129.778580
# 478 vertices, 0 vertices normals

f 333 3 314
f 442 311 240
f 364 153 13
f 303 220 470
f 33 312 142
f 177 423 358
f 380 154 421
f 239 3 45
f 147 87 128
f 226 284 352
f 365 96 126
f 187 215 15
f 295 12 227
f 56 211 274
f 134 341 441
f 363 8 96
f 231 244 353
f 181 255 386
f 325 463 250
f 328 337 429
f 49 290 382
f 121 168 262
f 24 268 423
f 78 464 123
f 470 92 475
f 352 319 346
f 226 352 476
f 372 311 240
f 34 110 125
f 8 126 96
f 437 217 229
f 106 110 69
f 219 303 281
f 239 45 132
f 47 396 148
f 466 173 158
f 113 440 293
f 319 353 244
f 196 198 139
f 172 131 463
f 164 332 368
f 415 59 230
f 241 67 32
f 33 366 277
f 418 208 52
f 228 216 89
f 324 3 21
f 35 287 208
f 298 342 427
f 423 228 89
f 150 31 98
f 448 361 455
f 82 211 201
f 413 224 266
f 291 250 131
f 29 211 317
f 115 478 473
f 178 440 113
f 356 39 20
f 442 42 251
f 260 120 118
f 122 285 318
f 373 157 175
f 109 439 335
f 425 441 268
f 382 40 416
f 206 395 264
f 446 163 403
f 297 333 322
f 302 434 456
f 279 148 193
f 453 227 469
f 365 439 454
f 392 321 86
f 34 294 110
f 251 42 464
f 80 310 170
f 382 290 40
f 425 25 417
f 68 184 117
f 299 119 191
f 320 32 415
f 213 260 292
f 32 2 415
f 472 383 232
f 65 182 214
f 316 293 440
f 381 43 160
f 82 317 211
f 62 186 344
f 200 175 408
f 253 478 82
f 8 204 126
f 19 115 93
f 196 16 198
f 29 274 211
f 236 130 419
f 385 146 286
f 221 76 393
f 326 204 8
f 111 192 357
f 413 178 224
f 376 254 255
f 97 101 411
f 449 350 61
f 450 23 74
f 325 250 291
f 51 314 280
f 108 85 226
f 407 343 197
f 120 190 205
f 213 292 13
f 204 369 126
f 138 90 26
f 398 307 238
f 409 216 57
f 53 159 259
f 152 460 347
f 167 420 119
f 199 161 451
f 369 336 391
f 429 431 182
f 230 59 282
f 16 242 198
f 287 378 261
f 379 396 47
f 223 286 107
f 400 128 60
f 356 468 370
f 321 292 86
f 215 100 445
f 174 346 462
f 214 182 152
f 475 39 294
f 27 128 311
f 90 18 61
f 443 280 324
f 463 383 9
f 213 181 386
f 2 413 266
f 341 292 390
f 63 14 155
f 474 472 104
f 54 222 293
f 46 464 189
f 291 296 146
f 66 160 272
f 361 79 455
f 331 184 68
f 19 317 115
f 436 171 431
f 78 123 372
f 428 23 450
f 144 358 89
f 328 427 337
f 355 197 297
f 57 135 248
f 53 458 114
f 164 98 332
f 124 200 11
f 155 446 403
f 138 16 196
f 217 435 233
f 460 338 105
f 62 344 457
f 24 423 177
f 80 170 340
f 231 77 244
f 190 107 286
f 465 340 306
f 271 262 66
f 388 353 64
f 184 389 277
f 387 401 275
f 468 137 471
f 200 408 11
f 374 168 173
f 266 73 234
f 69 110 294
f 391 36 439
f 51 322 333
f 201 211 56
f 206 264 454
f 37 474 31
f 4 194 284
f 19 93 214
f 437 114 84
f 59 234 282
f 398 238 235
f 40 109 335
f 385 243 232
f 28 226 476
f 242 308 203
f 375 457 4
f 248 131 172
f 124 162 323
f 183 302 188
f 133 70 273
f 133 30 94
f 239 132 261
f 218 318 473
f 264 365 454
f 188 456 380
f 453 389 447
f 310 282 349
f 161 432 329
f 111 306 94
f 401 167 275
f 239 261 289
f 311 201 56
f 457 344 64
f 1 26 433
f 321 13 292
f 134 86 292
f 220 17 412
f 106 326 452
f 313 338 125
f 245 247 185
f 100 363 445
f 437 84 217
f 231 11 402
f 165 35 418
f 218 103 263
f 102 395 206
f 11 408 402
f 83 368 81
f 356 294 39
f 407 197 355
f 466 158 305
f 470 34 281
f 231 402 77
f 282 424 349
f 465 111 309
f 347 105 23
f 65 406 285
f 221 173 210
f 95 461 101
f 278 101 127
f 44 82 311
f 431 171 303
f 188 380 343
f 14 446 155
f 245 265 247
f 72 49 382
f 144 199 180
f 474 104 405
f 54 323 222
f 277 366 308
f 223 472 243
f 141 422 351
f 393 453 447
f 447 389 184
f 477 100 215
f 50 125 338
f 147 128 27
f 259 427 342
f 451 161 143
f 34 475 294
f 448 455 458
f 442 251 301
f 20 24 177
f 148 278 127
f 115 317 478
f 245 361 342
f 156 17 220
f 409 330 48
f 220 92 470
f 183 407 249
f 66 166 381
f 179 127 101
f 69 370 326
f 449 61 438
f 192 94 149
f 471 137 151
f 377 435 5
f 425 24 25
f 326 370 204
f 386 255 190
f 57 216 135
f 223 243 385
f 276 473 478
f 406 145 93
f 448 259 342
f 65 214 145
f 437 229 422
f 106 69 326
f 381 166 43
f 311 82 201
f 393 447 99
f 12 355 142
f 374 339 256
f 470 475 34
f 111 357 309
f 36 300 157
f 449 438 22
f 475 430 39
f 388 11 231
f 51 333 314
f 103 43 263
f 1 331 68
f 477 414 397
f 165 155 35
f 27 442 301
f 258 222 323
f 227 12 312
f 380 63 343
f 183 210 302
f 256 433 257
f 445 363 395
f 377 176 435
f 476 252 360
f 424 258 186
f 372 240 56
f 170 306 340
f 78 372 56
f 406 115 473
f 22 298 427
f 331 447 184
f 200 373 175
f 300 451 267
f 456 272 154
f 83 81 169
f 97 41 384
f 190 286 205
f 406 318 285
f 233 235 283
f 23 91 74
f 206 454 109
f 397 313 106
f 186 162 344
f 430 417 25
f 15 215 95
f 248 135 296
f 52 208 45
f 368 332 376
f 458 309 114
f 113 293 222
f 392 202 116
f 450 74 327
f 120 269 118
f 394 280 443
f 121 305 158
f 139 265 18
f 221 210 76
f 409 89 216
f 151 246 336
f 121 262 271
f 212 372 123
f 316 459 49
f 301 410 136
f 176 404 7
f 49 102 206
f 380 421 63
f 111 94 192
f 9 329 432
f 117 308 242
f 328 270 22
f 144 409 48
f 63 165 343
f 85 4 284
f 449 22 270
f 289 411 459
f 403 378 287
f 67 443 413
f 367 237 143
f 174 462 88
f 452 326 8
f 191 420 472
f 104 472 223
f 460 50 338
f 446 288 163
f 187 74 91
f 372 240 311
f 297 322 333
f 365 126 391
f 386 190 120
f 147 27 288
f 337 259 141
f 314 3 324
f 187 91 477
f 441 129 268
f 131 250 463
f 170 70 133
f 184 277 117
f 419 276 253
f 19 214 152
f 262 168 256
f 150 399 31
f 289 459 316
f 316 72 293
f 19 152 29
f 69 294 356
f 108 226 28
f 443 324 413
f 313 125 110
f 390 118 129
f 402 408 387
f 451 143 237
f 419 103 276
f 242 203 241
f 415 2 59
f 42 123 464
f 459 411 102
f 75 467 350
f 153 81 181
f 85 284 226
f 476 352 6
f 52 333 322
f 228 58 216
f 450 189 274
f 371 320 247
f 217 84 444
f 207 193 127
f 320 55 185
f 196 139 18
f 154 272 112
f 17 235 195
f 354 229 233
f 426 289 316
f 63 421 14
f 49 225 109
f 175 157 267
f 157 300 267
f 379 47 410
f 354 233 283
f 379 140 396
f 251 464 46
f 438 61 18
f 29 152 347
f 218 122 318
f 105 338 414
f 120 205 269
f 10 36 157
f 209 267 367
f 400 44 128
f 205 146 296
f 224 113 73
f 396 278 148
f 124 11 388
f 246 451 300
f 416 10 200
f 108 71 149
f 200 10 373
f 420 329 383
f 248 296 291
f 400 253 44
f 374 99 339
f 16 117 242
f 88 462 345
f 378 193 261
f 412 315 92
f 49 206 225
f 124 388 162
f 98 31 405
f 203 443 67
f 319 244 346
f 458 465 309
f 449 122 350
f 288 136 163
f 354 17 156
f 178 21 440
f 394 51 280
f 266 224 73
f 29 347 428
f 466 305 271
f 57 248 172
f 2 266 59
f 23 105 91
f 289 97 411
f 27 301 288
f 139 247 265
f 130 272 160
f 363 96 395
f 92 315 430
f 438 298 22
f 178 113 224
f 276 103 218
f 467 90 61
f 215 445 95
f 239 426 3
f 466 271 272
f 245 185 361
f 401 209 167
f 88 37 399
f 448 342 361
f 82 478 317
f 56 274 189
f 433 362 257
f 218 263 122
f 472 232 243
f 63 155 165
f 452 8 363
f 284 319 352
f 345 119 299
f 55 230 80
f 423 89 358
f 371 241 32
f 348 195 359
f 70 375 273
f 308 394 203
f 249 407 355
f 20 39 25
f 121 158 168
f 393 295 453
f 308 366 394
f 352 346 6
f 109 454 439
f 429 436 431
f 438 265 298
f 273 375 4
f 171 220 303
f 383 329 9
f 54 416 124
f 315 86 417
f 207 41 193
f 304 164 307
f 75 43 166
f 38 431 219
f 203 394 443
f 192 377 5
f 161 329 367
f 169 153 364
f 30 85 108
f 154 112 130
f 170 310 70
f 339 433 256
f 264 96 365
f 450 327 189
f 177 358 137
f 471 151 369
f 408 209 401
f 320 185 247
f 171 351 156
f 276 218 473
f 309 357 84
f 166 257 362
f 179 384 41
f 76 210 183
f 192 149 377
f 159 437 422
f 88 399 252
f 424 186 62
f 29 428 274
f 295 227 453
f 438 18 265
f 219 281 50
f 379 46 327
f 1 68 138
f 359 116 202
f 75 166 362
f 258 323 186
f 58 135 216
f 361 185 79
f 205 286 146
f 77 402 387
f 251 410 301
f 140 74 187
f 337 141 436
f 379 410 46
f 188 343 407
f 269 296 135
f 163 136 279
f 468 177 137
f 183 188 407
f 230 282 310
f 466 434 302
f 295 249 12
f 477 91 414
f 7 98 164
f 411 461 102
f 474 191 472
f 151 180 246
f 30 273 85
f 421 130 87
f 186 323 162
f 195 169 359
f 330 172 9
f 458 455 465
f 344 162 64
f 232 383 463
f 32 67 2
f 227 33 469
f 83 238 307
f 297 52 322
f 426 440 21
f 198 242 241
f 303 470 281
f 116 364 321
f 75 362 467
f 179 101 384
f 380 456 154
f 448 458 53
f 54 382 416
f 187 477 215
f 35 403 287
f 466 272 434
f 377 71 176
f 71 404 176
f 208 132 45
f 433 26 362
f 462 387 345
f 428 450 274
f 77 387 462
f 78 56 464
f 379 327 140
f 365 391 439
f 75 350 263
f 278 95 101
f 236 87 130
f 30 108 149
f 404 360 150
f 371 139 198
f 337 427 259
f 445 395 461
f 345 275 334
f 38 219 50
f 76 249 295
f 134 417 86
f 392 86 315
f 28 360 404
f 54 293 382
f 267 237 367
f 392 116 321
f 17 195 348
f 288 301 136
f 283 235 17
f 158 173 168
f 206 109 225
f 397 106 452
f 104 107 254
f 223 385 286
f 354 156 351
f 142 297 322
f 95 445 461
f 343 165 197
f 249 355 12
f 337 436 429
f 192 5 357
f 14 147 446
f 221 393 99
f 268 228 423
f 349 62 375
f 140 187 15
f 364 13 321
f 27 311 442
f 316 49 72
f 287 261 132
f 71 28 404
f 419 253 400
f 324 21 178
f 435 304 398
f 141 259 159
f 248 291 131
f 77 346 244
f 137 358 180
f 102 461 395
f 339 99 331
f 339 331 1
f 176 7 304
f 408 175 209
f 275 167 334
f 333 45 3
f 182 431 38
f 336 246 300
f 98 405 332
f 290 109 40
f 174 6 346
f 169 81 153
f 114 309 84
f 356 20 468
f 455 79 340
f 426 21 3
f 410 47 136
f 12 142 312
f 239 289 426
f 292 260 390
f 77 462 346
f 397 414 313
f 119 420 191
f 118 269 58
f 354 351 422
f 371 32 320
f 144 180 358
f 167 119 334
f 88 345 299
f 330 9 432
f 167 367 329
f 34 125 281
f 58 269 135
f 354 283 17
f 68 117 16
f 332 405 254
f 448 53 259
f 106 313 110
f 129 118 58
f 188 302 456
f 10 157 373
f 116 169 364
f 88 299 37
f 75 263 43
f 453 469 389
f 152 182 38
f 328 65 270
f 289 261 97
f 466 302 210
f 67 413 2
f 235 83 195
f 221 99 374
f 273 4 85
f 428 347 23
f 129 58 228
f 339 1 433
f 430 25 39
f 341 390 441
f 33 142 366
f 204 471 369
f 66 262 257
f 38 50 460
f 397 452 100
f 360 252 399
f 142 51 366
f 233 398 235
f 426 316 440
f 476 6 252
f 165 418 197
f 212 42 240
f 345 334 119
f 371 198 241
f 328 429 65
f 37 31 399
f 138 68 16
f 128 44 311
f 403 163 378
f 366 51 394
f 441 390 129
f 325 291 146
f 81 376 181
f 153 213 13
f 416 335 10
f 315 417 430
f 451 237 267
f 412 17 202
f 374 256 168
f 55 79 185
f 172 463 9
f 227 312 33
f 65 285 270
f 66 381 160
f 103 160 43
f 255 107 190
f 241 203 67
f 465 306 111
f 142 322 51
f 425 268 24
f 80 340 79
f 171 156 220
f 19 29 317
f 414 338 313
f 368 376 81
f 236 60 128
f 263 350 122
f 197 418 297
f 134 425 417
f 416 40 335
f 221 374 173
f 124 416 200
f 205 296 269
f 20 177 468
f 37 299 474
f 174 88 252
f 55 415 230
f 354 422 229
f 435 176 304
f 355 297 142
f 57 172 330
f 121 271 305
f 459 102 49
f 175 267 209
f 144 89 409
f 307 164 368
f 467 61 350
f 371 247 139
f 396 15 278
f 234 73 258
f 50 281 125
f 217 233 229
f 99 447 331
f 159 114 437
f 209 367 167
f 411 101 461
f 138 196 90
f 377 149 71
f 236 419 400
f 404 150 7
f 154 130 421
f 418 35 208
f 181 376 255
f 208 287 132
f 194 353 319
f 245 342 298
f 108 28 71
f 152 38 460
f 385 325 146
f 140 15 396
f 385 232 325
f 262 256 257
f 370 468 471
f 320 415 55
f 4 457 194
f 66 257 166
f 147 288 446
f 328 22 427
f 408 401 387
f 466 210 173
f 97 261 193
f 199 48 161
f 195 83 169
f 144 48 199
f 477 397 100
f 456 434 272
f 47 148 279
f 406 93 115
f 457 64 194
f 30 149 94
f 419 160 103
f 336 300 36
f 134 441 425
f 406 473 318
f 137 180 151
f 474 405 31
f 52 45 333
f 83 307 368
f 419 130 160
f 55 80 79
f 370 471 204
f 59 266 234
f 349 424 62
f 325 232 463
f 141 351 436
f 217 444 435
f 15 95 278
f 122 270 285
f 174 252 6
f 104 223 107
f 194 64 353
f 469 33 389
f 46 189 327
f 14 87 147
f 304 7 164
f 220 412 92
f 170 133 306
f 163 279 378
f 276 478 253
f 92 430 475
f 76 295 393
f 213 386 260
f 54 124 323
f 413 324 178
f 10 439 36
f 467 362 26
f 280 314 324
f 472 420 383
f 409 57 330
f 375 62 457
f 97 384 101
f 212 240 372
f 389 33 277
f 387 275 345
f 148 127 193
f 335 439 10
f 48 432 161
f 245 298 265
f 347 460 105
f 234 258 424
f 360 399 150
f 435 444 5
f 398 304 307
f 48 330 432
f 332 254 376
f 65 145 406
f 20 25 24
f 80 230 310
f 357 5 444
f 97 193 41
f 369 151 336
f 214 93 145
f 418 52 297
f 388 64 162
f 133 273 30
f 236 128 87
f 53 114 159
f 153 181 213
f 100 452 363
f 117 277 308
f 235 238 83
f 207 127 179
f 431 303 219
f 348 359 202
f 442 240 42
f 207 179 41
f 76 183 249
f 180 199 246
f 70 349 375
f 196 18 90
f 212 123 42
f 449 270 122
f 455 340 465
f 435 398 233
f 264 395 96
f 271 66 272
f 84 357 444
f 236 400 60
f 474 299 191
f 378 279 193
f 260 386 120
f 14 421 87
f 467 26 90
f 7 150 98
f 412 202 392
f 391 336 36
f 388 231 353
f 284 194 319
f 253 82 44
f 161 367 143
f 282 234 424
f 134 292 341
f 359 169 116
f 140 327 74
f 155 403 35
f 104 254 405
f 112 272 130
f 260 118 390
f 167 329 420
f 65 429 182
f 17 348 202
f 72 382 293
f 141 159 422
f 412 392 315
f 49 109 290
f 69 356 370
f 73 222 258
f 251 46 410
f 28 476 360
f 105 414 91
f 255 254 107
f 310 349 70
f 73 113 222
f 246 199 451
f 311 56 240
f 126 369 391
f 268 129 228
f 133 94 306
f 436 351 171
f 56 189 464
f 136 47 279
f 1 138 26
# 956 faces, 0 coords texture

# End of File