####
#
# OBJ File Generated by Meshlab
#
####
# Object domain087.obj
#
# Vertices: 485
# Faces: 986
#
####
v 176.096802 330.458313 113.482391
v 169.647583 326.690277 119.786537
v 166.888580 325.678711 113.504791
v 164.928757 352.483826 121.236534
v 163.733963 337.713593 120.895409
v 169.728943 351.288177 111.013000
v 169.657104 328.649353 121.906822
v 176.438171 325.882507 115.641876
v 166.855743 332.550568 111.065544
v 177.093094 352.700348 119.925400
v 177.663422 343.168945 118.082123
v 175.378906 343.092987 113.366028
v 171.656830 324.559357 111.063438
v 171.698105 351.273895 123.282784
v 166.034515 343.103363 122.944916
v 179.110748 332.513031 119.946159
v 167.631042 325.392487 115.159363
v 171.698029 334.586243 122.687195
v 170.757126 355.564972 111.025673
v 171.697266 353.839172 119.865562
v 164.629364 349.224670 115.434021
v 167.615616 351.273132 123.218040
v 169.648575 354.274078 117.508751
v 178.379196 343.085114 121.787445
v 164.921875 336.610199 115.589607
v 169.647064 325.205536 115.202309
v 166.860519 349.281403 112.414330
v 175.982773 332.601349 113.418709
v 171.698120 326.687164 119.788055
v 165.174301 338.650787 122.466125
v 169.681046 343.087372 109.874680
v 165.046066 327.081940 117.696014
v 175.805237 351.213684 115.627716
v 171.718597 340.746155 109.750648
v 164.475723 337.174561 117.630127
v 173.334122 353.237793 112.044312
v 178.731262 338.667969 120.155838
v 171.470139 324.081116 108.661957
v 165.178146 347.215729 122.397034
v 169.648087 351.273529 123.277527
v 171.698120 345.154144 123.500008
v 178.409225 342.875275 119.368622
v 164.637711 340.773254 117.478912
v 176.929047 340.763458 116.862534
v 174.621323 325.481018 111.851906
v 165.649979 330.516632 121.524475
v 166.920166 336.648621 111.126633
v 167.582932 325.577881 116.004364
v 169.698776 328.450531 108.908928
v 167.658005 353.529144 119.820007
v 165.029449 330.507202 115.039230
v 176.813477 328.439087 115.461433
v 167.612122 332.561157 122.330002
v 166.134933 352.590973 122.654472
v 171.698502 330.514648 122.375397
v 178.243500 349.237823 122.074471
v 166.030548 340.759674 122.954811
v 177.099762 336.667633 116.786674
v 169.681641 340.747803 109.762680
v 164.485382 342.977264 120.602982
v 164.062424 334.703033 121.070526
v 164.585144 343.122986 119.164505
v 174.136108 328.476044 110.381241
v 175.778717 345.154816 123.324883
v 175.533722 338.724640 113.170937
v 166.995300 338.692261 111.174805
v 171.698090 349.255371 123.477051
v 175.707748 352.943176 122.286095
v 173.749557 327.675995 121.268608
v 171.601685 328.437561 108.973732
v 164.630966 328.368744 117.698502
v 175.620544 353.133179 117.562500
v 177.502136 347.127075 122.877167
v 172.592361 339.765930 110.002472
v 165.732162 338.715057 113.304939
v 176.526733 336.788727 115.458061
v 167.586639 336.170227 122.869751
v 169.981583 324.220795 108.634216
v 164.193375 332.617188 119.999596
v 174.563446 346.821564 112.315720
v 167.698410 328.664948 121.770172
v 178.404984 340.684784 121.890160
v 167.209946 343.092926 111.234009
v 164.887009 332.575043 115.281090
v 167.233185 353.265106 112.675880
v 167.610596 347.205109 123.353546
v 165.896576 352.779541 119.917320
v 165.121613 328.470886 115.074188
v 177.475021 343.100006 122.728539
v 165.787125 330.561523 113.232872
v 178.565552 347.129242 120.214973
v 173.748901 347.205109 123.487099
v 164.541534 349.244141 120.929726
v 169.647552 338.721985 123.358749
v 164.695480 349.280090 119.562355
v 175.778946 326.813507 119.756493
v 164.777237 339.134338 115.386719
v 167.741653 325.225464 113.467842
v 172.407883 343.090546 110.280441
v 171.698746 328.644684 121.927628
v 173.749191 334.586151 122.685829
v 171.691269 353.245239 111.373825
v 169.540573 323.832825 108.229042
v 171.698364 354.286682 117.512070
v 164.712479 345.148499 121.595467
v 179.164597 330.508850 119.964935
v 178.735107 330.511780 121.318779
v 175.797577 332.556213 122.454483
v 175.044510 326.518066 111.628868
v 167.603806 352.644135 122.788719
v 173.871475 336.650818 110.767151
v 175.190475 353.216980 115.544579
v 165.154312 340.750488 122.382828
v 167.744583 347.086517 111.351288
v 173.652771 354.388977 115.414223
v 169.651962 353.803497 119.858803
v 169.647720 349.254974 123.461960
v 164.669174 349.283569 121.817154
v 177.151352 327.073944 117.852287
v 177.737030 338.687958 118.051208
v 169.646851 325.419128 116.040741
v 173.703445 340.731140 110.895294
v 175.313858 325.697327 113.381577
v 175.078979 334.592133 111.970467
v 164.636536 345.122772 115.271637
v 164.694992 335.721832 116.088570
v 171.698059 327.676544 121.268478
v 164.803497 352.655457 115.531425
v 171.611389 349.238098 110.925667
v 176.396774 325.845490 115.609039
v 165.039337 353.895599 115.573975
v 164.522491 332.787842 121.029312
v 175.405228 340.773041 113.218658
v 165.187424 345.154175 122.392082
v 175.792236 330.519104 122.317116
v 170.144516 345.826569 110.121231
v 173.748672 338.722046 123.357994
v 169.645844 334.587708 122.671989
v 173.541367 345.126129 111.264549
v 178.681946 340.764130 120.590256
v 164.651688 351.263092 115.502052
v 173.643539 343.088531 111.122345
v 169.686203 332.528809 109.054802
v 174.153076 326.477417 110.582741
v 173.748734 330.514526 122.376442
v 171.578842 351.282410 111.068489
v 173.753677 352.633911 122.777176
v 164.606827 338.581360 117.650307
v 167.694931 354.309082 115.416313
v 166.181381 326.438629 113.523849
v 178.132706 330.514496 117.648331
v 167.609787 349.254517 123.350662
v 164.623642 347.181580 115.328316
v 169.647446 347.205078 123.484863
v 171.697998 337.356628 123.168625
v 169.647507 343.103210 123.482010
v 177.677292 345.152191 118.238388
v 164.802292 353.004639 115.522011
v 166.873306 353.958496 113.972488
v 178.234390 349.200928 119.457245
v 174.764175 340.749146 112.115654
v 163.793335 336.644196 119.856491
v 169.735443 353.310455 111.156563
v 177.251419 349.232208 122.844154
v 169.693680 330.492584 108.975899
v 178.780945 336.496948 120.153648
v 171.698074 347.205048 123.499992
v 164.636612 345.126617 115.294579
v 176.974289 352.462067 122.220917
v 177.719223 327.169647 119.726929
v 175.101883 332.360901 111.772835
v 177.734711 330.524750 122.010361
v 168.927704 345.956787 110.305496
v 169.650024 354.699188 115.466812
v 167.911148 349.145844 111.522179
v 165.092285 327.459564 119.290207
v 166.273239 337.272247 122.891663
v 164.655594 341.444519 115.364098
v 168.162781 325.409393 111.185997
v 173.746002 326.716675 119.776863
v 169.646988 336.157257 122.938103
v 171.693253 324.806091 113.464737
v 167.330597 326.458862 110.866165
v 165.556793 334.590485 122.047523
v 178.957748 334.601013 119.896477
v 172.850388 354.566010 112.400330
v 178.378998 350.702484 120.383308
v 168.096237 340.708099 110.313889
v 174.063263 332.652710 110.616844
v 166.950378 351.294800 112.470650
v 164.794785 328.653870 119.727394
v 169.648560 327.686157 121.258148
v 178.234787 347.669495 122.390244
v 176.366104 343.103729 115.771576
v 164.672638 351.159393 115.481323
v 169.646713 337.356567 123.168297
v 166.033569 345.154999 122.952469
v 165.752213 327.110840 119.639008
v 173.748718 345.154205 123.482658
v 168.182755 336.564545 109.890533
v 176.757477 352.482208 122.580612
v 171.579910 343.078186 109.953812
v 169.647858 340.760040 123.462914
v 164.762146 331.146698 120.971619
v 171.698135 343.103271 123.500000
v 167.613159 338.724792 123.280128
v 173.722626 353.989502 117.476547
v 164.670456 340.986298 115.377594
v 164.408829 336.065826 117.527740
v 171.698120 336.156891 122.941170
v 164.690872 347.229004 121.616425
v 171.610580 326.393646 108.964729
v 176.801910 347.436951 116.901016
v 173.741882 353.090332 122.257919
v 176.700287 349.284180 116.987694
v 178.482422 337.624939 122.506294
v 164.722549 343.310364 117.630959
v 164.809738 347.126343 117.644745
v 168.587708 323.738159 108.237076
v 175.004089 336.633179 112.034866
v 174.650833 353.900940 115.403732
v 169.647369 345.154053 123.484871
v 177.825653 336.652435 118.039764
v 171.236069 324.064636 108.662361
v 171.697952 353.113373 122.260841
v 178.581970 336.745544 121.972435
v 165.723755 334.607758 113.303230
v 173.770844 325.285614 115.221397
v 174.623642 345.148102 112.245323
v 178.750778 328.691528 121.225456
v 172.662521 336.649506 109.932655
v 166.030457 351.292328 113.553391
v 163.631104 336.668427 120.863129
v 167.111343 340.944427 111.176254
v 164.785614 328.466644 116.109283
v 176.917694 343.103577 116.862640
v 168.503952 344.921478 110.282463
v 178.355255 345.156891 121.807693
v 177.192108 328.439056 116.360481
v 166.321884 353.160461 113.687996
v 166.878677 334.603027 111.099869
v 176.839966 330.504333 115.454475
v 171.697952 325.413544 116.042496
v 166.015091 351.279755 122.936638
v 174.337570 354.202606 113.934486
v 169.745712 324.651337 111.068260
v 176.427383 325.810577 115.633034
v 167.644257 330.527557 122.149010
v 164.641708 332.555511 116.072250
v 167.597824 337.356934 123.120445
v 171.691284 354.700592 115.473854
v 171.598907 336.587036 109.523590
v 173.343826 349.177887 111.609924
v 171.844116 345.371857 110.284149
v 167.611481 326.787170 119.742729
v 177.091278 351.185974 122.752724
v 164.642380 342.981171 121.543945
v 173.812286 338.696136 110.839432
v 177.777863 336.173492 122.599228
v 177.891968 334.640961 117.783432
v 178.500183 348.578064 121.840553
v 178.880554 332.546539 118.847572
v 172.794739 334.447052 109.846405
v 177.638992 347.158905 118.226517
v 177.150131 334.276001 116.410904
v 169.651596 353.103607 122.259605
v 164.574738 347.120270 120.662636
v 173.665131 325.114014 113.438705
v 164.603500 349.229645 115.452370
v 173.570007 354.538513 113.217415
v 169.679489 338.694061 109.602501
v 175.958038 349.426880 115.478561
v 164.919312 352.519043 121.671135
v 173.749054 332.554199 122.518494
v 174.543930 349.242065 112.563599
v 167.632294 327.731537 121.195824
v 174.051758 330.496338 110.426666
v 167.612503 340.760010 123.336479
v 175.716156 326.299377 117.456139
v 178.530914 345.141510 120.167053
v 166.008011 349.256836 122.988564
v 175.667633 353.300079 119.851715
v 178.003342 328.506317 117.719482
v 164.672379 345.162872 119.202766
v 171.397736 344.627594 110.055389
v 165.940323 349.260773 113.505547
v 165.778488 336.658844 113.325562
v 178.629852 334.650604 121.356049
v 167.611633 343.103180 123.345108
v 167.610916 345.154297 123.351715
v 177.010452 338.713135 116.805428
v 178.699646 343.200836 120.296257
v 178.836380 327.563477 119.672272
v 176.880249 345.173035 116.878899
v 175.775894 336.611938 113.424484
v 163.748856 335.129608 120.831566
v 166.174698 327.813110 120.860992
v 170.362991 324.190765 108.633865
v 164.551453 345.142303 120.574692
v 165.729935 332.547974 113.313263
v 174.960373 351.232788 113.547989
v 171.698135 352.635895 122.776344
v 175.791763 328.647369 121.911476
v 166.086380 338.786896 122.977730
v 164.627731 351.272339 120.968117
v 164.351852 332.561401 117.507919
v 164.775253 345.174957 117.733925
v 168.048187 351.275116 111.610847
v 168.147736 353.261414 111.779335
v 168.131729 332.496124 109.655174
v 173.469727 325.127502 111.066383
v 179.109482 328.505096 119.938217
v 175.229004 328.442139 111.694756
v 177.271622 330.506012 116.342087
v 164.948166 351.321716 119.629402
v 176.645264 334.606415 115.580467
v 164.908371 334.605194 115.284592
v 167.525543 345.187256 111.124794
v 163.864670 334.585052 120.065346
v 171.697739 325.863159 117.487938
v 175.802948 337.355835 123.141739
v 169.709854 326.409241 108.915482
v 166.091156 353.121429 117.327629
v 169.625549 355.734863 111.014030
v 175.779800 326.563110 113.365868
v 174.917282 338.528687 112.059044
v 175.185318 330.476685 111.748970
v 166.948196 330.410034 110.929527
v 167.592819 334.598328 122.557922
v 169.681976 355.117920 113.086777
v 169.650391 324.868622 113.441589
v 175.784225 347.204224 123.344078
v 177.666031 351.162506 122.111145
v 177.287888 351.172058 118.554131
v 173.748581 343.103241 123.479111
v 171.666748 347.178589 110.669434
v 177.693909 338.662842 122.875023
v 176.053238 328.443695 113.345024
v 168.088837 338.460938 110.125084
v 177.628571 340.762177 118.011932
v 169.772202 355.738983 111.002441
v 169.702789 349.229431 110.854645
v 168.924942 355.605408 111.140816
v 165.179596 343.100372 122.384048
v 169.693298 355.777679 111.002876
v 175.154175 349.185791 113.520302
v 169.597839 347.183960 110.475899
v 171.663391 355.106140 113.107079
v 164.332626 339.107452 119.006386
v 178.818588 328.476562 118.874695
v 178.884369 330.504059 118.857689
v 178.805649 333.857666 118.936821
v 173.766556 325.504395 116.015244
v 171.768921 330.467499 109.121132
v 165.833176 345.156189 113.360550
v 174.637604 348.094086 112.484604
v 165.928299 347.214417 113.398346
v 180.781006 326.988007 120.000000
v 171.715668 332.534210 109.243332
v 178.567596 349.245850 120.518486
v 164.846939 353.060547 115.514732
v 173.747452 351.273010 123.274925
v 177.777100 337.227448 122.860481
v 173.014801 326.357239 109.664726
v 165.762909 326.537231 117.433784
v 177.444839 349.251770 118.180481
v 171.670395 338.696106 109.664238
v 177.730072 328.668549 121.731133
v 168.158783 330.597321 109.575188
v 165.547913 326.352844 115.480789
v 178.524567 338.532593 122.190315
v 164.489975 330.438751 119.960297
v 164.637100 343.011353 115.334869
v 169.711441 355.778503 111.032265
v 175.779373 340.758362 123.312614
v 167.913940 354.411591 113.150764
v 178.465958 346.955261 121.858994
v 168.600266 323.784515 108.151009
v 173.745941 325.921234 117.473854
v 169.647324 332.555145 122.490623
v 166.448166 327.940826 111.866226
v 168.416397 326.461609 109.499657
v 176.480270 338.694153 115.660194
v 175.775909 343.103058 123.309402
v 176.693619 352.838074 118.851524
v 177.734268 332.560028 122.062508
v 172.497513 341.058319 110.134254
v 175.245056 347.193817 113.422905
v 174.660004 343.098511 112.205956
v 165.097961 351.338379 117.510536
v 169.649033 323.823364 108.292358
v 172.944031 328.342102 109.504219
v 175.794067 336.159058 122.916206
v 171.698044 332.554199 122.521622
v 169.666534 334.535797 109.205612
v 163.993927 338.516510 120.345390
v 173.275116 351.281311 111.756996
v 164.689240 330.505524 116.090599
v 173.965805 334.630646 110.695923
v 171.698105 340.759583 123.480629
v 176.211945 347.086609 115.680130
v 175.320999 345.148163 113.390045
v 174.220337 353.218109 112.835800
v 177.752396 334.635529 122.228928
v 176.337082 345.155975 115.780197
v 169.652328 330.517761 122.336624
v 173.748352 340.760040 123.461914
v 164.831253 349.250275 117.519012
v 164.628586 347.202301 115.298134
v 167.042328 328.546356 110.788239
v 172.971634 332.546143 109.760628
v 176.423004 340.765259 115.759483
v 164.320480 334.605804 117.503159
v 165.581161 352.697754 122.248627
v 178.103317 332.561584 117.673622
v 169.650848 336.604248 109.399940
v 164.246460 338.529938 121.485382
v 165.823196 328.542908 113.306381
v 173.733658 353.707794 119.849586
v 177.478363 345.159943 122.755692
v 172.654236 338.705017 109.952171
v 167.634979 353.013184 122.262642
v 176.790771 332.559357 115.462952
v 165.757950 340.761200 113.317551
v 177.785522 327.786224 121.182739
v 165.083191 351.274353 122.428123
v 164.642258 343.080017 115.334373
v 178.176117 351.180420 120.071983
v 169.642349 352.634186 122.776329
v 165.783966 343.103363 113.334015
v 175.777695 352.605103 122.764709
v 178.390015 340.733368 119.372589
v 175.881805 334.593994 113.389923
v 175.801056 327.701965 121.247978
v 175.788544 338.723938 123.285980
v 173.007599 330.380066 109.631081
v 164.410538 330.498474 117.843201
v 177.526169 340.737671 122.775856
v 173.748978 336.156769 122.940956
v 177.226990 332.556396 116.365631
v 170.956558 323.921112 108.506958
v 167.673386 353.928101 117.437874
v 178.722610 332.509155 121.286324
v 168.287643 328.470062 109.492058
v 166.028549 328.654938 121.258972
v 165.582535 336.561432 122.467346
v 178.574615 327.471344 119.209457
v 178.315155 347.964600 119.350723
v 173.748535 328.644409 121.928131
v 166.148621 325.956818 114.896767
v 171.401840 324.039307 108.651283
v 178.461655 339.218231 119.276634
v 166.625931 326.707733 111.933388
v 177.200317 335.348328 116.731506
v 164.477829 340.777588 119.117645
v 175.801926 334.592987 122.624115
v 175.759186 351.268219 123.166428
v 167.589661 325.964539 117.438110
v 171.698105 338.721741 123.363029
v 173.523331 347.194733 111.499451
v 164.712631 351.291718 121.895126
v 165.592682 332.593323 121.772614
v 176.503082 351.375824 117.328323
v 171.540955 334.582245 109.340149
v 169.647644 325.863800 117.487419
v 173.748016 349.254700 123.456154
v 172.524155 324.046661 108.745110
v 164.682404 347.437256 119.353600
v 168.161713 334.553589 109.732399
v 163.950882 336.658112 121.355713
v 173.749146 337.356262 123.169846
v 164.340118 340.652527 120.529175
v 171.697617 325.190521 115.207298
v 178.701050 327.998322 120.909073
v 175.776474 349.252838 123.311943
v 174.708206 353.309631 113.663773
v 168.349121 343.042053 110.292686
v 165.076218 349.248566 122.436256
v 164.654282 341.068390 115.377159
v 166.026840 347.206512 122.966209
v 174.417282 351.272949 112.677887
v 169.595215 345.033966 109.948761
v 164.639587 334.603973 116.070938
v 165.194901 326.789276 116.193329
v 164.518005 340.712402 121.469841
# 485 vertices, 0 vertices normals

f 85 309 324
f 138 181 18
f 451 467 38
f 77 181 138
f 477 59 31
f 429 422 266
f 212 38 364
f 145 274 135
f 179 3 98
f 329 138 380
f 383 291 412
f 207 72 282
f 266 225 302
f 329 446 77
f 47 200 66
f 254 139 336
f 430 427 178
f 40 110 429
f 268 130 123
f 423 440 265
f 410 328 418
f 232 27 190
f 78 378 298
f 195 128 158
f 345 343 324
f 117 22 40
f 337 371 216
f 233 5 417
f 421 258 74
f 318 477 237
f 460 80 356
f 300 9 241
f 397 403 36
f 94 203 459
f 140 82 292
f 286 27 232
f 342 129 6
f 276 445 81
f 227 25 317
f 281 152 86
f 429 302 14
f 91 261 360
f 44 11 236
f 299 267 211
f 453 381 418
f 381 410 418
f 478 118 461
f 43 148 208
f 224 38 467
f 153 357 286
f 156 205 400
f 188 271 59
f 374 19 345
f 92 466 332
f 78 391 219
f 81 46 248
f 362 147 457
f 154 117 167
f 196 94 155
f 24 238 280
f 173 237 482
f 227 287 25
f 189 327 171
f 412 133 65
f 372 204 46
f 58 223 120
f 426 273 414
f 425 368 474
f 48 458 465
f 468 93 267
f 183 150 3
f 453 410 381
f 128 361 131
f 104 115 207
f 459 400 137
f 207 221 72
f 251 348 115
f 134 344 257
f 361 149 323
f 162 396 5
f 363 337 216
f 425 434 303
f 196 155 210
f 453 183 410
f 160 91 360
f 354 392 436
f 460 275 253
f 198 176 297
f 315 390 87
f 458 370 365
f 350 312 351
f 87 414 4
f 183 78 382
f 297 176 445
f 182 473 228
f 18 210 101
f 311 144 364
f 347 254 336
f 349 148 455
f 483 126 209
f 119 247 279
f 177 250 77
f 202 99 285
f 337 375 438
f 151 350 351
f 430 318 355
f 470 61 296
f 166 371 37
f 423 316 28
f 437 398 306
f 369 310 9
f 366 160 334
f 142 389 139
f 219 103 378
f 229 388 80
f 440 415 265
f 395 464 416
f 256 431 201
f 336 139 460
f 109 338 313
f 259 321 363
f 30 446 417
f 132 204 372
f 342 336 129
f 298 13 224
f 225 214 147
f 26 121 243
f 414 422 110
f 372 46 191
f 6 163 309
f 11 432 42
f 242 440 423
f 339 271 188
f 242 314 440
f 304 206 250
f 165 354 143
f 373 125 168
f 45 123 325
f 235 88 398
f 93 461 118
f 154 167 41
f 191 46 445
f 480 86 290
f 163 324 309
f 242 423 1
f 71 191 32
f 111 124 220
f 414 273 4
f 75 424 208
f 89 64 420
f 252 263 231
f 362 457 475
f 224 311 38
f 398 51 249
f 56 360 261
f 222 290 86
f 259 226 288
f 326 133 161
f 367 421 34
f 237 31 482
f 205 335 407
f 470 296 233
f 477 31 237
f 215 463 272
f 421 111 258
f 409 168 153
f 63 313 277
f 78 246 298
f 233 296 319
f 484 32 365
f 162 35 396
f 37 371 82
f 334 160 428
f 100 55 449
f 425 474 293
f 222 154 41
f 122 161 142
f 264 280 91
f 195 390 408
f 164 457 256
f 458 365 255
f 407 335 375
f 316 265 260
f 336 460 129
f 93 305 461
f 453 418 150
f 90 300 51
f 316 58 76
f 248 462 53
f 369 444 49
f 195 128 390
f 257 344 485
f 299 60 62
f 23 251 104
f 340 452 432
f 389 12 402
f 468 95 93
f 194 44 236
f 88 51 398
f 178 427 373
f 229 402 388
f 458 2 465
f 374 345 341
f 406 380 55
f 287 47 66
f 194 12 133
f 79 437 306
f 255 276 2
f 307 168 218
f 355 168 427
f 239 283 314
f 41 199 335
f 11 42 292
f 15 113 344
f 116 23 20
f 55 145 449
f 89 384 64
f 455 62 60
f 128 159 361
f 387 122 142
f 398 249 306
f 260 415 262
f 117 152 22
f 374 341 348
f 415 351 262
f 61 462 132
f 34 74 122
f 248 406 7
f 94 459 155
f 194 405 12
f 399 189 171
f 429 266 302
f 327 1 28
f 87 323 50
f 300 227 317
f 161 12 389
f 5 396 417
f 6 129 146
f 163 374 324
f 193 261 377
f 352 16 185
f 301 112 476
f 21 195 141
f 63 144 109
f 36 270 186
f 319 306 413
f 329 77 138
f 316 454 58
f 38 311 364
f 450 150 370
f 412 291 44
f 253 275 481
f 331 26 473
f 401 388 402
f 61 79 319
f 53 184 329
f 409 269 21
f 7 406 100
f 49 322 212
f 476 112 221
f 192 127 29
f 202 387 99
f 304 250 177
f 482 285 254
f 316 433 28
f 117 67 167
f 53 329 380
f 349 396 148
f 57 113 15
f 389 402 229
f 374 345 324
f 254 99 139
f 449 303 434
f 288 166 185
f 163 102 374
f 285 99 254
f 192 7 127
f 162 319 413
f 203 156 400
f 284 307 468
f 25 148 35
f 269 195 21
f 432 37 140
f 228 247 130
f 277 327 189
f 101 456 108
f 173 482 136
f 73 193 377
f 403 301 476
f 7 100 127
f 288 226 166
f 438 384 89
f 354 436 411
f 468 307 218
f 439 471 393
f 276 81 192
f 243 320 379
f 394 18 274
f 406 55 100
f 424 234 83
f 483 209 413
f 52 338 325
f 42 140 292
f 102 36 186
f 220 295 65
f 115 221 207
f 90 328 9
f 387 142 99
f 220 65 326
f 342 6 308
f 78 298 382
f 238 377 91
f 121 465 320
f 55 394 145
f 50 323 442
f 318 237 114
f 208 178 479
f 119 170 447
f 373 427 125
f 386 108 456
f 158 128 131
f 2 192 29
f 197 480 290
f 129 460 253
f 469 143 395
f 18 101 274
f 479 427 178
f 482 254 136
f 452 37 432
f 70 392 354
f 57 278 206
f 8 247 119
f 478 426 244
f 363 321 435
f 29 127 180
f 424 83 430
f 242 1 338
f 479 178 373
f 463 334 385
f 396 485 417
f 176 191 445
f 478 244 281
f 127 69 180
f 370 418 88
f 90 418 328
f 153 168 357
f 23 104 20
f 41 167 199
f 370 150 418
f 482 202 285
f 439 393 456
f 171 433 124
f 164 475 457
f 353 279 247
f 357 175 27
f 89 238 24
f 451 38 224
f 255 297 276
f 137 435 321
f 199 64 384
f 179 331 246
f 190 309 85
f 78 219 378
f 268 228 130
f 298 224 451
f 193 56 261
f 373 168 427
f 346 272 33
f 73 475 164
f 227 47 287
f 313 1 327
f 143 354 359
f 450 370 48
f 227 241 47
f 359 411 464
f 470 233 417
f 98 26 331
f 426 54 244
f 299 211 105
f 353 379 279
f 233 162 5
f 361 159 149
f 116 50 442
f 116 266 50
f 206 278 94
f 143 359 395
f 116 20 225
f 271 367 59
f 351 312 106
f 259 393 321
f 72 112 33
f 405 401 402
f 473 353 228
f 58 291 76
f 107 106 312
f 310 241 9
f 167 92 199
f 15 197 289
f 270 403 476
f 128 323 390
f 97 479 178
f 39 281 480
f 37 82 140
f 164 333 56
f 334 10 385
f 222 205 156
f 115 270 221
f 188 59 477
f 119 447 283
f 423 265 316
f 310 469 241
f 13 268 311
f 276 297 445
f 259 363 226
f 246 182 13
f 305 4 273
f 366 448 160
f 165 70 354
f 330 376 324
f 230 107 312
f 379 180 96
f 281 244 152
f 455 60 472
f 146 397 102
f 260 185 223
f 194 236 405
f 163 146 102
f 10 169 282
f 320 180 379
f 340 432 11
f 330 348 251
f 14 302 362
f 188 477 83
f 271 252 367
f 315 408 390
f 8 130 247
f 339 416 271
f 465 29 320
f 323 149 442
f 388 272 346
f 6 146 163
f 107 16 106
f 383 412 65
f 368 172 230
f 158 131 361
f 284 267 299
f 147 431 457
f 414 110 54
f 347 342 175
f 468 218 95
f 298 246 13
f 370 235 484
f 386 456 404
f 374 348 330
f 20 104 419
f 425 303 368
f 270 476 245
f 90 51 88
f 8 247 130
f 103 441 224
f 199 92 64
f 205 41 335
f 401 272 388
f 383 65 295
f 416 252 271
f 95 305 93
f 260 262 352
f 236 157 294
f 134 480 197
f 355 114 357
f 423 28 1
f 154 152 117
f 52 239 314
f 201 431 68
f 200 395 416
f 73 164 56
f 419 282 68
f 404 288 443
f 454 223 58
f 179 98 331
f 164 256 333
f 59 367 34
f 400 407 137
f 116 442 23
f 260 223 454
f 208 97 178
f 304 57 206
f 173 347 114
f 154 86 152
f 256 169 333
f 478 461 426
f 98 3 17
f 43 427 217
f 409 21 153
f 347 175 114
f 177 77 446
f 304 446 30
f 146 253 397
f 92 332 64
f 448 91 160
f 420 73 377
f 222 86 154
f 195 240 128
f 443 185 16
f 458 255 2
f 265 415 260
f 123 247 325
f 269 21 141
f 241 469 47
f 380 394 55
f 370 88 235
f 424 178 208
f 451 224 467
f 119 283 239
f 341 186 270
f 217 427 307
f 190 85 240
f 311 45 144
f 30 417 113
f 438 24 82
f 151 351 415
f 212 364 70
f 31 34 202
f 474 230 312
f 433 76 295
f 34 387 202
f 298 224 322
f 436 277 411
f 43 178 427
f 203 400 459
f 57 15 278
f 463 33 272
f 333 428 187
f 120 37 452
f 171 28 433
f 21 286 232
f 284 217 307
f 137 407 435
f 316 76 433
f 289 290 156
f 328 369 9
f 460 356 275
f 158 361 128
f 233 319 162
f 255 198 297
f 197 290 289
f 357 27 286
f 351 106 262
f 190 308 309
f 167 67 92
f 40 429 14
f 48 465 121
f 138 18 394
f 372 191 437
f 396 472 485
f 15 289 278
f 399 171 124
f 210 439 101
f 53 380 406
f 10 428 169
f 383 295 76
f 347 136 254
f 39 478 281
f 329 184 446
f 121 320 243
f 124 433 295
f 43 217 62
f 481 346 301
f 278 289 203
f 337 82 371
f 87 50 422
f 69 449 434
f 170 434 425
f 275 346 481
f 293 350 447
f 409 153 269
f 307 427 168
f 420 64 332
f 215 264 366
f 333 187 56
f 120 452 340
f 122 326 161
f 113 417 485
f 274 108 135
f 348 270 115
f 316 260 454
f 463 72 33
f 49 212 70
f 300 241 227
f 278 203 94
f 410 444 328
f 43 62 455
f 85 324 376
f 58 120 291
f 8 239 247
f 200 416 339
f 251 115 104
f 79 306 319
f 102 186 341
f 432 140 42
f 440 151 415
f 276 192 2
f 147 214 431
f 480 281 86
f 246 331 182
f 157 292 280
f 134 39 480
f 208 479 97
f 460 229 80
f 128 240 159
f 95 315 305
f 174 376 330
f 255 365 198
f 103 224 298
f 426 461 273
f 107 443 16
f 386 443 107
f 180 69 96
f 183 382 410
f 120 166 37
f 52 325 247
f 428 360 187
f 166 226 371
f 355 318 114
f 73 332 475
f 463 366 334
f 302 225 147
f 2 29 465
f 17 48 121
f 263 189 399
f 253 481 397
f 407 375 435
f 181 196 210
f 342 308 175
f 310 143 469
f 175 308 27
f 355 357 168
f 411 277 189
f 476 221 245
f 208 148 25
f 263 399 231
f 81 445 46
f 363 216 226
f 95 218 408
f 169 428 333
f 74 258 122
f 368 230 474
f 36 403 270
f 81 248 7
f 379 96 279
f 459 137 471
f 90 9 300
f 224 13 311
f 98 17 26
f 337 435 375
f 380 138 394
f 250 206 196
f 14 362 466
f 313 338 1
f 179 183 3
f 100 449 69
f 144 45 109
f 471 321 393
f 231 111 421
f 61 132 79
f 300 84 51
f 293 474 312
f 79 372 437
f 334 428 10
f 61 319 296
f 52 242 338
f 126 25 209
f 264 448 366
f 87 390 323
f 139 229 460
f 470 417 446
f 326 65 133
f 339 188 234
f 66 339 234
f 248 46 462
f 356 388 275
f 134 105 39
f 153 218 168
f 302 147 362
f 463 385 72
f 404 259 288
f 349 455 472
f 117 40 67
f 172 135 108
f 153 286 21
f 430 83 318
f 71 484 235
f 385 10 72
f 411 189 263
f 141 128 195
f 71 235 437
f 109 325 338
f 291 340 44
f 337 438 82
f 391 298 451
f 382 298 322
f 314 151 440
f 134 257 105
f 176 32 191
f 56 187 360
f 469 200 47
f 26 243 473
f 438 375 384
f 159 376 149
f 426 414 54
f 369 49 165
f 232 190 240
f 161 133 12
f 201 68 169
f 391 441 103
f 370 484 365
f 386 404 443
f 22 244 54
f 416 464 252
f 365 32 176
f 162 209 35
f 289 156 203
f 73 56 193
f 70 364 392
f 172 107 230
f 315 4 305
f 48 370 458
f 438 89 24
f 69 434 96
f 132 462 46
f 275 388 346
f 364 144 392
f 81 7 192
f 119 279 170
f 200 339 66
f 399 124 111
f 172 386 107
f 170 425 293
f 22 54 110
f 170 96 434
f 236 11 157
f 248 53 406
f 292 24 280
f 249 84 483
f 102 397 36
f 153 21 269
f 152 244 22
f 383 76 291
f 341 270 348
f 405 402 12
f 365 176 198
f 195 232 240
f 162 413 209
f 287 75 208
f 51 84 249
f 466 475 332
f 141 195 158
f 363 435 337
f 284 299 62
f 224 38 212
f 67 14 466
f 173 114 237
f 394 274 145
f 223 166 120
f 79 132 372
f 347 336 342
f 234 188 83
f 228 353 247
f 213 264 215
f 90 88 418
f 473 243 353
f 13 182 268
f 264 91 448
f 157 280 264
f 374 102 341
f 122 258 326
f 75 66 234
f 252 231 367
f 300 317 84
f 243 379 353
f 349 472 396
f 59 34 31
f 141 158 128
f 10 282 72
f 6 309 308
f 258 220 326
f 479 373 427
f 304 30 57
f 78 298 391
f 317 25 126
f 374 341 19
f 405 236 294
f 335 384 375
f 249 483 413
f 153 21 408
f 52 314 242
f 478 211 118
f 159 85 376
f 213 294 264
f 257 485 472
f 412 194 133
f 21 195 408
f 392 63 436
f 43 208 178
f 226 216 371
f 437 235 398
f 405 294 401
f 40 22 110
f 378 103 298
f 331 473 182
f 249 413 306
f 155 459 471
f 43 455 148
f 179 246 78
f 104 207 419
f 127 100 69
f 354 411 359
f 335 199 384
f 77 250 181
f 453 150 183
f 174 330 251
f 71 32 484
f 15 344 197
f 128 361 323
f 219 391 103
f 173 136 347
f 409 125 168
f 401 215 272
f 222 41 205
f 310 165 143
f 53 462 184
f 172 108 386
f 267 93 118
f 346 33 301
f 449 145 303
f 214 68 431
f 443 288 185
f 327 28 171
f 409 153 125
f 153 408 218
f 419 68 214
f 222 156 290
f 89 420 238
f 311 268 123
f 231 399 111
f 283 447 350
f 266 422 50
f 134 197 344
f 404 393 259
f 357 114 175
f 269 141 195
f 299 105 60
f 470 446 61
f 262 106 16
f 404 456 393
f 34 122 387
f 287 66 75
f 410 382 444
f 21 232 195
f 429 110 422
f 57 30 113
f 181 210 18
f 145 135 303
f 412 44 194
f 451 224 441
f 155 471 439
f 39 211 478
f 430 355 427
f 142 161 389
f 256 201 169
f 420 377 238
f 40 14 67
f 291 120 340
f 374 324 343
f 260 352 185
f 277 313 327
f 464 263 252
f 391 451 441
f 20 214 225
f 314 283 151
f 322 224 212
f 274 101 108
f 419 207 282
f 396 35 148
f 436 63 277
f 8 119 239
f 401 294 213
f 450 3 150
f 105 257 60
f 179 78 183
f 25 35 209
f 49 444 322
f 305 273 461
f 123 130 247
f 210 155 439
f 427 168 125
f 52 247 239
f 84 317 483
f 215 366 463
f 315 87 4
f 174 442 149
f 20 419 214
f 223 185 166
f 17 121 26
f 345 19 341
f 174 149 376
f 284 468 267
f 75 234 424
f 469 395 200
f 267 118 211
f 67 466 92
f 367 231 421
f 395 359 464
f 397 481 403
f 257 472 60
f 284 62 217
f 270 245 221
f 11 292 157
f 116 225 266
f 401 213 215
f 481 301 403
f 87 422 414
f 392 144 63
f 283 350 151
f 61 184 462
f 320 29 180
f 382 322 444
f 450 17 3
f 293 312 350
f 206 94 196
f 424 430 178
f 369 165 310
f 221 112 72
f 61 446 184
f 256 457 431
f 169 68 282
f 63 109 313
f 82 24 292
f 280 238 91
f 153 168 125
f 95 408 315
f 34 421 74
f 170 293 447
f 466 362 475
f 182 228 268
f 368 135 172
f 328 444 369
f 356 80 388
f 31 202 482
f 124 295 220
f 294 157 264
f 39 105 211
f 71 437 191
f 44 340 11
f 129 253 146
f 111 220 258
f 159 240 85
f 113 485 344
f 174 23 442
f 262 16 352
f 250 196 181
f 287 208 25
f 139 389 229
f 368 303 135
f 49 70 165
f 420 332 73
f 304 177 446
f 91 377 261
f 27 308 190
f 174 251 23
f 374 330 324
f 464 411 263
f 450 48 17
f 301 33 112
f 101 439 456
f 45 325 109
f 471 137 321
f 483 317 126
f 160 360 428
f 132 46 204
f 311 123 45
f 170 279 96
f 99 142 139
f 374 343 345
f 83 477 318
f 400 205 407
# 986 faces, 0 coords texture

# End of File