####
#
# OBJ File Generated by Meshlab
#
####
# Object Volume_038.obj
#
# Vertices: 775
# Faces: 1564
#
####
v 93.111298 116.261978 112.674698
v 101.536621 128.735016 118.599167
v 115.736137 130.591278 117.164818
v 116.883751 113.652298 111.543289
v 107.536530 117.117950 108.104248
v 104.238327 127.942474 119.762558
v 124.102440 112.108101 119.470985
v 123.878204 130.269196 116.564148
v 97.211525 107.228302 119.305901
v 100.157867 121.958847 120.043655
v 89.149673 109.833794 120.158165
v 122.564980 120.354721 114.552299
v 103.494629 133.024994 115.013573
v 119.829895 113.840897 114.970863
v 124.532494 115.061241 118.387306
v 117.787437 114.001884 120.314621
v 93.173744 109.876038 120.471855
v 95.193733 120.432587 112.787346
v 109.666260 113.479950 108.916283
v 112.448738 123.273918 110.102379
v 105.246025 123.191139 110.029236
v 124.781097 122.410545 116.612419
v 121.803322 111.502243 119.534233
v 124.461426 112.820564 119.369072
v 107.571045 123.417137 109.772079
v 101.364105 114.886612 112.995140
v 111.650833 131.003204 112.287857
v 97.384438 112.597794 115.923798
v 102.571297 107.243431 119.410797
v 103.429832 122.474777 120.414230
v 103.429047 116.321075 120.500015
v 91.636444 116.185562 113.671844
v 103.607864 126.731964 120.036018
v 117.785973 118.372002 120.500008
v 89.099220 106.103844 119.764122
v 114.933609 118.271385 109.572075
v 100.958023 121.194267 110.203697
v 113.684036 118.372025 120.499992
v 95.188370 109.873665 117.030037
v 118.060997 120.439743 111.985031
v 90.445503 114.221962 114.337318
v 120.155579 112.391930 119.982063
v 103.429039 120.423157 120.477425
v 107.531258 118.395363 108.327408
v 117.780716 111.753128 117.468231
v 123.768593 116.366089 117.155869
v 117.785713 128.876328 119.240524
v 107.314827 129.578720 112.025047
v 97.198990 113.639153 110.676071
v 124.612740 116.503746 119.609573
v 103.424126 114.381737 110.759529
v 113.691681 130.978058 112.398003
v 97.239632 124.553673 118.703995
v 98.140762 128.314041 117.924370
v 105.478973 131.907486 116.099968
v 102.032417 132.596329 114.076637
v 97.822853 113.448578 108.603035
v 101.368980 126.830643 119.372398
v 109.668114 111.972893 117.504921
v 116.954620 134.899948 113.974075
v 100.810028 113.645439 108.433723
v 123.562149 122.558800 115.098129
v 121.887444 120.422874 120.475922
v 107.530983 129.874374 118.051880
v 86.571098 106.842918 118.518326
v 103.823837 121.689621 109.595581
v 124.962257 118.589195 119.638420
v 115.734909 122.474045 120.500008
v 102.691124 127.305260 119.648994
v 94.309700 117.189941 112.039276
v 115.892876 113.473663 111.128754
v 95.229607 122.469406 118.595963
v 94.949493 107.114952 119.709518
v 99.402466 113.786911 114.790016
v 95.224930 111.925987 120.492096
v 97.275909 109.876556 120.462059
v 119.836906 124.524635 120.479889
v 119.838905 113.989471 120.355576
v 119.836914 120.422897 120.500008
v 103.431221 131.909302 116.041512
v 105.494980 126.832993 120.227509
v 96.772629 113.495041 109.483337
v 115.837738 111.981255 119.270027
v 109.584892 128.926407 119.121674
v 103.457588 114.293961 115.245232
v 122.982582 112.311600 118.378670
v 103.393082 124.618004 111.121468
v 91.436806 115.471863 119.808968
v 107.535583 115.130150 114.010437
v 99.326866 113.977180 120.499588
v 86.481415 106.915771 118.705353
v 105.481293 130.795898 117.055809
v 111.440910 115.398384 108.006874
v 119.604553 134.102158 113.969604
v 99.327034 111.926003 120.500000
v 111.545670 133.121445 115.369957
v 111.632889 120.422890 120.500000
v 119.816902 130.989822 113.036751
v 122.585854 132.286774 114.058937
v 123.903656 120.426041 120.274406
v 107.274010 110.510796 119.741959
v 109.571007 115.200462 112.947655
v 121.671204 132.664963 114.543076
v 98.163330 113.037170 108.070908
v 111.192543 111.454475 119.772316
v 107.531128 113.977737 120.473541
v 91.159401 116.454018 119.361565
v 113.569366 112.260735 120.005341
v 115.735245 128.033508 119.878693
v 101.377724 116.321175 120.498970
v 104.565437 108.886391 118.362770
v 89.043159 108.928223 116.311363
v 88.679314 112.100952 119.441391
v 91.887466 104.987793 119.155418
v 111.671135 116.535942 108.186180
v 121.280968 133.823914 113.972153
v 119.836899 122.474052 120.500000
v 119.836945 118.372047 120.500015
v 125.337944 120.648567 118.070442
v 117.534004 114.479103 112.097313
v 107.529213 115.269638 112.860474
v 116.873581 116.181847 111.154274
v 117.149323 120.418312 111.534271
v 125.881310 128.271866 119.144295
v 123.939919 122.469116 120.402298
v 117.632103 111.850784 119.283043
v 125.154060 118.373619 119.176712
v 114.650047 114.030365 108.692383
v 111.631668 132.949539 112.815277
v 97.369820 118.278305 120.190308
v 125.905853 124.528091 120.143524
v 109.583626 118.388359 108.352936
v 95.235512 120.416107 119.130661
v 91.141495 111.920036 120.316322
v 107.531090 120.422928 120.500008
v 124.952324 118.538162 118.220627
v 103.490417 128.859573 112.382133
v 103.430252 111.925529 120.464455
v 113.672653 111.625526 119.600792
v 86.942772 107.812683 119.099007
v 103.362747 107.857697 119.103447
v 122.198357 113.879829 116.694664
v 105.487221 128.905457 119.113167
v 96.006348 126.338905 115.557121
v 96.854851 120.959412 112.066513
v 124.731720 116.345558 118.287216
v 113.736176 133.165909 115.321030
v 125.988754 126.853386 116.939178
v 101.370361 108.008492 118.413437
v 97.275940 111.926041 120.499817
v 95.330757 107.827843 117.957077
v 111.696091 134.673035 114.331757
v 99.890656 115.514290 108.180481
v 109.582512 134.914124 113.989471
v 111.623405 113.289085 116.389473
v 111.633003 122.474037 120.500008
v 90.140404 117.457634 118.086357
v 111.630463 112.008339 120.111137
v 115.675278 128.864044 112.240402
v 127.650482 127.053841 119.148209
v 94.674385 122.979408 114.331749
v 113.073296 121.986328 109.703117
v 122.593147 123.157959 113.890862
v 121.630066 112.229149 117.422165
v 122.639252 122.184280 114.122482
v 115.202766 114.885437 113.774940
v 111.630447 128.844223 111.788620
v 123.940468 127.995911 119.841400
v 122.792862 115.816597 116.226074
v 101.436729 124.448860 111.589462
v 115.231979 116.259933 109.607033
v 113.363617 113.584641 108.074364
v 86.466721 107.392395 118.817551
v 105.493477 120.357689 108.844498
v 105.479637 122.474426 120.493599
v 107.531311 130.792023 117.051941
v 101.822784 114.877068 113.943993
v 109.583443 126.928429 111.234680
v 105.467316 124.502449 110.694199
v 111.638138 127.997452 119.857834
v 99.366493 126.798950 118.821411
v 123.106819 128.908218 113.961792
v 113.707489 112.163277 117.605774
v 91.888145 120.059296 118.034576
v 92.522911 121.508545 117.833237
v 126.475746 122.729370 119.772484
v 102.252403 131.768799 115.928322
v 109.580376 134.809860 114.252304
v 109.583870 132.951538 112.809708
v 115.735886 128.877319 119.241600
v 109.581352 131.015503 112.287979
v 89.292877 113.937401 115.389946
v 111.597328 115.064621 113.983986
v 94.052841 115.375237 111.858696
v 103.444214 113.223724 116.247139
v 114.595284 114.025208 108.675598
v 96.053383 124.009323 113.819527
v 91.047592 106.222755 118.176193
v 121.858101 113.996719 120.220650
v 111.633049 113.980171 120.419937
v 124.298492 131.355118 115.059875
v 115.909843 120.546265 110.693581
v 97.294937 113.776413 112.620583
v 123.927887 128.907028 114.705513
v 95.583374 114.369141 111.157112
v 99.388687 128.785873 118.122215
v 99.315338 108.013954 118.349197
v 113.691666 128.870926 119.238068
v 115.776741 113.985771 114.935280
v 105.479530 117.125412 108.086273
v 91.206848 118.354942 114.741776
v 103.422112 130.785339 117.032478
v 95.390289 111.586296 116.331673
v 119.836922 116.321365 120.481750
v 127.098602 126.916565 118.206772
v 95.756386 126.420105 117.172989
v 91.137405 113.962936 120.099983
v 107.558037 132.932861 112.871445
v 111.633469 126.832405 120.270714
v 93.406143 122.363022 115.185280
v 128.799637 128.106384 119.333099
v 119.915970 111.924927 117.061905
v 117.798820 112.746819 119.946182
v 121.905243 129.942413 117.539520
v 114.982887 126.700264 111.842064
v 101.440437 116.766800 108.187820
v 99.317810 111.826004 116.700661
v 115.735023 129.865967 118.033897
v 125.659851 128.395035 117.533661
v 106.502205 109.325310 119.259338
v 119.848885 131.610626 116.064407
v 89.043503 108.925812 116.308426
v 113.684036 120.422920 120.499985
v 99.327377 116.320618 120.458206
v 111.670647 114.002113 108.024963
v 119.792976 128.916687 112.820831
v 119.836578 128.031311 119.875977
v 117.816666 113.983566 114.210434
v 124.870323 116.495773 119.134605
v 124.955086 124.284958 116.282661
v 98.719482 121.025024 119.875198
v 88.647057 114.384628 117.625755
v 98.219635 129.936646 116.843918
v 93.132484 118.390388 119.192673
v 101.391884 111.895424 116.830322
v 111.632904 124.524559 120.477798
v 103.059891 127.524956 112.105804
v 105.462639 114.030998 107.936295
v 99.427704 114.264626 112.619751
v 111.591904 120.365089 108.882477
v 105.479950 120.422958 120.500046
v 121.887161 118.371727 120.465652
v 103.428917 118.372200 120.499260
v 114.489662 113.083733 107.977615
v 95.735939 118.097954 111.382507
v 127.014114 124.771767 119.164726
v 93.271461 113.574821 112.325714
v 99.327011 109.876320 120.464798
v 123.820793 116.374283 120.081039
v 121.675743 130.905106 113.462151
v 119.739624 118.405312 112.773094
v 91.681206 112.580757 113.990097
v 92.321251 118.950058 114.023636
v 115.735008 124.524643 120.479912
v 117.659218 122.438591 111.985680
v 119.836884 126.837723 120.287651
v 107.531075 124.524445 120.475090
v 119.476295 114.861069 113.820038
v 109.363365 111.162270 119.717995
v 93.788857 111.157967 116.043259
v 114.768028 119.855461 109.781403
v 117.784302 133.144440 115.136665
v 107.552795 113.736435 109.359337
v 111.606720 115.089607 113.132141
v 101.378349 111.925652 120.499161
v 87.361877 106.624557 118.425148
v 109.582138 113.978455 120.458374
v 119.875481 129.819565 118.009056
v 115.771652 114.302826 112.093361
v 105.498245 126.843460 111.487022
v 119.944145 111.324287 118.921738
v 109.485817 115.743904 107.974091
v 121.475601 120.465080 113.560364
v 107.532219 112.077538 117.173798
v 97.248116 111.669014 116.589951
v 121.888245 122.473785 120.497787
v 109.515869 113.603958 108.594627
v 90.656380 110.502121 115.783249
v 105.461052 112.984055 108.063362
v 107.528595 111.963806 120.263702
v 91.600418 120.055511 115.536087
v 102.261566 133.756073 114.007378
v 107.538353 114.347542 110.788193
v 124.146355 112.230301 119.465416
v 107.616539 122.415878 109.295616
v 117.242531 118.224777 111.293381
v 95.414345 122.320526 113.438416
v 96.488411 125.330673 114.142830
v 97.283501 116.314789 120.361923
v 99.327980 107.905319 120.181122
v 113.669975 124.506973 111.000122
v 113.517067 113.150444 116.408249
v 115.739815 131.697983 116.197449
v 101.240250 130.931824 116.876091
v 99.179611 120.647232 110.603188
v 105.668739 122.147835 109.461922
v 115.723282 122.468544 111.192352
v 113.684166 129.874542 118.039780
v 109.617905 122.485374 109.285896
v 103.270920 122.990776 110.426308
v 111.642601 128.915451 119.165123
v 109.584770 127.962921 119.845558
v 100.073189 119.387100 109.452271
v 90.417152 119.248917 116.879723
v 121.936974 112.022141 119.904282
v 127.469269 127.065437 119.557487
v 105.696198 128.301910 111.883598
v 113.533577 116.110931 108.673988
v 99.480705 112.933868 116.006454
v 119.810356 111.291992 118.022919
v 93.068245 106.605171 118.283287
v 116.583366 124.796127 111.998962
v 98.936440 113.465744 108.363571
v 115.502975 124.427994 111.616737
v 89.114395 107.849533 120.149162
v 87.819664 109.656616 119.193153
v 117.786011 122.474068 120.499985
v 128.775803 128.098129 119.349525
v 117.275497 114.363503 111.916199
v 109.581985 122.474022 120.499992
v 99.409859 126.809059 113.084106
v 95.126846 112.299782 115.601517
v 111.627892 134.639465 113.635071
v 113.684204 113.987045 120.372772
v 125.964401 127.910797 119.802750
v 103.737862 113.709770 108.369034
v 121.888054 126.836678 120.284332
v 123.696014 114.151039 117.873672
v 121.985382 116.399467 115.142014
v 122.745743 124.583534 113.892105
v 98.876007 129.357727 114.449356
v 103.676468 115.169540 112.957344
v 105.307472 129.145691 112.100258
v 108.846390 111.112206 118.236755
v 126.333321 122.161331 118.845551
v 123.924393 129.473923 117.230972
v 95.224968 109.876289 120.465668
v 107.531059 118.372009 120.499985
v 89.280296 113.973312 119.087509
v 99.458702 128.800201 113.728889
v 97.243095 107.969223 118.236473
v 117.744682 133.068130 113.208054
v 107.531937 128.916061 119.116661
v 107.529449 126.901909 111.316895
v 124.096130 112.053734 119.422340
v 120.852005 112.963356 116.342758
v 113.686737 128.029541 119.873611
v 113.617615 111.554779 119.059814
v 124.248741 131.427567 115.045662
v 98.148155 113.032875 108.047935
v 115.517197 112.600121 119.883652
v 99.414413 130.810638 115.072319
v 105.481552 111.931778 120.376076
v 107.531059 116.321045 120.499992
v 91.062065 106.118736 119.788689
v 115.728256 112.074295 117.453178
v 127.158943 127.831604 119.635170
v 101.382744 122.489540 120.259537
v 94.079781 123.620583 117.725594
v 113.657700 120.340340 109.296593
v 89.245186 111.979851 115.775658
v 101.345177 114.249222 110.717636
v 93.178688 113.962944 120.334953
v 91.143181 111.996170 114.769882
v 96.234291 117.645988 120.087776
v 123.654411 114.140541 119.858467
v 119.777756 120.427307 112.693939
v 118.118393 118.334190 111.913704
v 111.727539 124.749847 110.556519
v 114.659988 111.651627 118.991219
v 89.427231 116.101006 117.385681
v 119.773071 132.993942 114.930046
v 92.404175 121.656776 116.080505
v 89.039391 108.979378 116.314522
v 92.348007 105.123192 119.123581
v 103.405273 109.924690 117.660393
v 121.886345 116.318390 120.406418
v 88.153519 111.605942 117.409058
v 89.041443 108.899986 116.372002
v 117.730186 124.434448 112.266632
v 102.183578 107.249367 119.791557
v 99.191605 124.657425 112.476028
v 105.451965 109.927788 119.976067
v 89.817581 116.064682 115.630165
v 109.570518 114.029625 110.591064
v 117.606674 134.601639 114.076920
v 99.281044 113.880989 110.591492
v 125.398659 120.721207 119.689430
v 102.290108 133.794373 114.018532
v 114.810799 112.967049 116.354546
v 126.650574 122.771477 119.415718
v 105.481247 130.967072 112.539375
v 121.888008 124.524544 120.479927
v 113.684029 116.321182 120.486115
v 115.737793 133.205826 115.253525
v 103.420967 117.117073 108.139404
v 119.682724 111.790504 119.606758
v 105.481705 115.047256 112.020172
v 105.478546 118.391182 108.363319
v 121.812820 130.576981 116.746422
v 116.332916 112.804367 116.136292
v 101.351334 107.885262 120.153633
v 103.571732 132.887115 113.406151
v 91.420868 113.874176 113.712685
v 125.952614 124.441513 117.321999
v 107.531082 122.474030 120.500000
v 109.395386 110.959969 119.153198
v 92.014214 117.898888 113.846069
v 117.788277 130.580734 117.154739
v 111.258774 123.404205 109.824623
v 105.629494 109.191368 118.679672
v 111.622780 113.830338 110.681992
v 95.469528 113.087463 114.645233
v 111.141205 113.526939 109.913521
v 99.333382 118.362587 120.356705
v 93.172791 107.870018 120.239296
v 121.726051 111.499733 118.393280
v 116.685097 113.899902 111.523514
v 89.103760 106.178268 118.156860
v 115.707970 134.880585 114.241615
v 105.510651 112.007347 117.027344
v 115.733551 130.966553 112.540657
v 116.354820 118.475876 110.624413
v 103.409439 111.992157 116.887909
v 109.584213 131.926361 116.119453
v 98.060043 117.614075 109.447861
v 93.193916 120.409019 118.544846
v 90.206635 117.910973 115.876358
v 93.596024 120.086159 113.663025
v 99.209244 124.588982 119.272316
v 103.402519 131.011169 112.920197
v 92.873497 120.586555 114.421165
v 105.513245 133.110977 113.160896
v 109.581985 124.524384 120.475777
v 105.505386 115.275719 112.860542
v 117.781731 128.918747 112.523521
v 95.125801 124.674423 114.914558
v 124.405617 112.686775 119.370850
v 109.579659 113.299225 116.378120
v 103.455681 129.815796 118.009377
v 107.656334 128.702698 111.792427
v 88.354897 112.942360 118.326927
v 107.564224 134.639511 113.679626
v 111.645599 126.883858 111.330070
v 99.433266 129.544418 117.653229
v 98.510239 119.186523 110.095436
v 128.781097 128.091278 119.350830
v 123.352455 120.537422 115.435555
v 97.435295 120.234116 111.379677
v 124.561066 128.955536 115.901047
v 124.401680 120.411911 116.811577
v 105.528419 112.967033 108.072296
v 123.887741 124.545547 115.003548
v 122.458855 118.409042 114.974564
v 113.684021 122.474045 120.500008
v 103.458603 124.504532 120.316124
v 101.554947 120.069572 109.338699
v 105.476776 114.393364 110.763603
v 95.223442 107.893723 120.193443
v 111.648071 131.914810 116.095177
v 105.205132 108.758324 119.197090
v 96.497536 114.142418 109.605492
v 123.049957 126.884239 113.978951
v 117.788063 131.671082 116.150291
v 120.606628 115.396019 114.168251
v 109.581985 116.320953 120.500008
v 93.263245 113.580299 112.333595
v 93.174690 111.925438 120.460167
v 96.579681 127.686256 116.150139
v 117.786018 126.837730 120.287689
v 109.581963 120.422920 120.500000
v 101.758980 124.262627 120.038429
v 96.502571 113.357315 109.896225
v 94.149338 123.866035 115.788788
v 115.754723 135.036118 114.019508
v 105.481041 124.524361 120.434883
v 103.440193 115.914131 107.974648
v 89.131775 105.404137 119.162819
v 111.633018 118.372070 120.499992
v 97.380493 124.488663 113.201172
v 105.479858 129.868591 118.047447
v 123.328575 119.212234 115.820091
v 94.753098 125.093208 116.658035
v 109.582298 126.828659 120.261444
v 109.585121 128.850449 111.767395
v 115.734238 114.002502 120.306427
v 97.340279 122.515656 119.175430
v 111.607933 114.372253 115.242424
v 109.582359 129.876862 118.052849
v 123.912628 128.676666 119.172852
v 115.734894 118.372025 120.499992
v 89.938271 115.955322 118.642365
v 113.624535 134.703049 114.307442
v 105.494637 132.955032 115.357880
v 89.321671 111.737373 119.911011
v 97.247536 107.314171 119.760902
v 92.234444 121.662064 117.272308
v 95.225098 113.973877 120.420357
v 100.746719 125.253258 112.076256
v 113.700325 115.014915 113.278931
v 101.621780 113.764420 108.664734
v 124.245384 131.841354 115.001038
v 121.887688 128.020996 119.867599
v 103.461365 115.042564 114.045967
v 100.966797 124.736038 119.795547
v 121.753685 124.525551 113.338051
v 96.074760 126.028244 117.788094
v 105.486664 114.351677 115.306900
v 107.531387 126.827896 120.255219
v 119.587173 134.126984 114.034798
v 117.786034 124.524559 120.479912
v 105.479973 116.320976 120.500015
v 107.421280 114.225632 108.232819
v 97.334595 126.786270 118.215523
v 97.167961 120.555908 119.590927
v 93.138611 116.835770 119.757446
v 113.684273 126.836571 120.282593
v 109.597435 114.199883 108.170189
v 101.603386 130.821182 113.428757
v 120.932739 116.653084 113.813690
v 113.684059 124.524574 120.479988
v 121.698463 128.934479 113.323410
v 122.013405 111.324387 119.180519
v 115.735001 116.321442 120.480644
v 89.826698 113.282784 119.785027
v 88.174141 109.492477 119.734459
v 103.429039 113.976959 120.500168
v 117.794983 126.873596 112.389420
v 125.083435 127.047951 115.835213
v 116.102478 126.924377 112.091888
v 118.385757 111.394714 118.784416
v 96.900589 127.564621 117.637642
v 97.897804 113.480049 108.621620
v 96.747078 118.897469 119.928406
v 91.124870 109.877716 120.406250
v 111.631332 129.792053 112.029457
v 101.374832 109.892151 117.535934
v 94.413200 117.151703 119.869408
v 97.353325 113.354683 114.830467
v 96.371292 115.588501 109.774719
v 121.976776 131.379944 115.781944
v 111.632950 116.320969 120.496376
v 119.721619 116.270699 113.200638
v 105.485634 127.971756 119.861183
v 104.731514 108.923996 119.734245
v 109.605698 123.607780 109.740913
v 114.479195 113.126808 107.928337
v 103.423409 128.690582 119.057198
v 103.476509 114.155884 108.144073
v 113.580139 118.322739 108.957840
v 123.936790 126.835022 120.271217
v 101.357811 114.312988 114.918198
v 103.638924 126.616737 111.767632
v 115.716911 134.869995 113.776749
v 109.582504 133.222504 115.320236
v 113.729294 134.608307 113.644951
v 95.286804 116.236366 120.202156
v 101.385727 120.420113 120.373810
v 112.692017 113.067764 107.987648
v 114.018524 122.772438 110.388329
v 107.493477 124.846611 110.509666
v 99.202141 122.624413 119.709976
v 90.497238 119.157784 116.227058
v 119.716103 132.877716 113.395493
v 95.070999 107.011452 119.149925
v 101.393410 122.419998 110.704109
v 116.556236 113.465050 111.344238
v 115.771996 114.789154 113.252258
v 113.692924 114.126060 115.264679
v 101.377937 113.977020 120.499992
v 105.451797 115.111519 113.973274
v 103.144699 108.184990 119.806435
v 88.025635 109.646385 117.616676
v 93.119598 112.066711 115.095917
v 126.899246 127.964478 118.575066
v 103.402115 120.357201 109.085129
v 91.864937 105.005676 119.114655
v 113.675957 132.946884 112.854340
v 109.582794 130.791321 117.050064
v 107.366074 109.959732 119.081276
v 105.481171 113.243332 116.293449
v 109.736938 114.888756 112.088982
v 98.152771 113.077316 108.020721
v 101.379776 109.874153 120.426407
v 102.094131 125.867577 111.871773
v 99.407448 107.312836 119.782684
v 87.385437 107.902618 117.953491
v 113.624481 112.930771 107.893936
v 107.614174 133.132965 115.360344
v 105.482925 115.917091 107.927338
v 103.489494 113.707710 108.907585
v 118.753487 111.268700 118.095016
v 99.356522 107.258202 119.339188
v 99.350090 118.375069 109.125305
v 111.638580 130.785492 117.039940
v 97.703522 128.632309 115.278336
v 93.174316 109.822929 116.707474
v 96.620071 113.282784 109.902603
v 91.466820 109.350166 116.556549
v 98.003464 119.394333 120.062485
v 91.782143 104.978241 119.125610
v 101.432808 129.695129 117.892952
v 91.225098 118.156410 118.602798
v 117.786034 120.422928 120.500008
v 93.287544 118.358871 113.116264
v 93.018196 122.565201 117.215210
v 109.575638 129.805710 111.996864
v 97.066994 126.956680 114.553680
v 113.700699 134.837448 113.996941
v 94.868202 118.511169 112.195717
v 93.266212 113.586090 112.327019
v 111.630096 118.364944 108.506165
v 105.573669 113.458557 109.001106
v 95.303436 124.451889 118.026772
v 115.735008 120.422890 120.499985
v 106.118614 134.779099 114.029129
v 121.092232 118.407181 113.619972
v 105.480141 113.976974 120.491013
v 107.533714 120.391197 108.731178
v 111.973763 113.248108 108.298180
v 101.361847 114.271690 108.230652
v 121.747513 126.866257 113.305702
v 93.285919 115.745422 120.079269
v 88.285049 113.649239 117.326973
v 89.085442 105.450829 118.845352
v 113.598145 115.046364 113.917725
v 95.074348 118.448524 119.652725
v 97.319992 116.210228 109.224174
v 105.555756 134.472794 114.171059
v 109.575638 115.108086 114.013443
v 123.778961 111.547241 119.575974
v 103.188118 108.416161 118.331749
v 113.668709 126.847557 111.569290
v 123.872810 118.377701 120.183975
v 114.468254 121.239914 110.107239
v 119.833794 128.862045 119.232864
v 99.639091 131.916656 116.231773
v 125.869179 122.601593 117.911919
v 101.393509 113.114655 116.121445
v 126.822212 124.783623 119.632355
v 91.344940 120.238205 117.298584
v 109.574425 124.875893 110.438789
v 124.180069 126.706749 114.904503
v 103.445480 114.971451 112.071602
v 99.641121 131.924469 116.223320
v 97.276016 107.911362 120.174057
v 101.662819 132.378189 114.788956
v 121.263443 114.597214 115.286804
v 115.714363 133.133942 113.020691
v 111.622589 129.885834 118.052795
v 109.586563 134.663193 113.625008
v 113.505661 128.410294 111.885429
v 109.576988 120.396683 108.706810
v 109.581985 118.372032 120.499992
v 115.734993 126.837791 120.287750
v 113.635864 131.696472 116.228821
v 117.786057 129.858566 118.029137
v 100.512619 123.062126 119.956070
v 117.596970 134.590088 113.924713
v 111.625664 134.840759 113.977844
v 101.415001 115.632652 108.026184
v 124.020851 118.323845 116.887970
v 97.103546 118.534309 110.537949
v 91.124046 107.855362 120.274521
v 88.266167 111.607376 119.025459
v 101.394188 118.325638 108.681763
v 98.616379 123.078346 112.128410
v 113.819527 129.268631 112.045074
v 123.936371 124.523613 120.434906
v 95.325607 116.233406 110.969391
v 90.768951 116.368019 114.449844
v 119.801781 122.471931 112.662659
v 121.880692 128.798309 119.211143
v 101.377457 126.827721 112.366058
v 93.159119 107.863823 117.558136
v 101.265999 128.924774 113.013405
v 96.521744 116.875946 110.134270
v 97.276917 122.526024 112.553169
v 125.870171 122.541183 120.083008
v 109.626945 116.884491 108.101044
v 113.717278 112.925339 107.901756
v 125.931602 126.830704 120.102631
v 94.178459 112.849472 114.295158
v 107.524582 115.044861 112.038635
v 113.738129 114.375122 111.997635
v 111.595352 122.362923 109.373260
v 107.395683 113.740532 108.656532
v 109.578896 114.363396 115.312500
v 107.531174 131.925873 116.124954
v 94.047829 124.108025 117.153549
v 99.515686 120.252319 120.182083
v 96.241631 119.439964 111.708420
v 87.875420 106.297485 119.633690
v 101.237732 114.698952 112.168343
v 95.429047 113.745689 112.575111
v 107.488777 134.697632 114.306015
v 107.536934 130.990967 112.356232
v 119.806496 124.521935 112.702339
v 125.634888 120.669044 119.196098
v 113.678558 130.610489 117.168144
v 101.377686 118.372490 120.458916
v 117.785957 128.034531 119.880325
v 97.473251 128.769211 117.336487
v 107.525146 115.919418 107.978111
v 97.974930 113.366150 108.642624
v 88.495163 112.415306 116.249245
v 126.813721 125.240906 118.233360
v 115.534180 113.221825 110.953453
v 107.526108 127.961342 119.846512
v 119.794327 126.866119 112.759026
v 100.095459 123.763283 111.780251
v 88.515739 113.246925 116.157272
v 99.104233 116.214096 108.511475
v 111.638008 113.240433 108.974808
v 117.786011 116.321419 120.479019
v 101.373734 107.130989 119.767357
v 105.437775 109.971558 118.000542
v 98.415787 129.973114 115.710449
v 99.324829 109.875816 117.454636
v 99.639114 131.945709 116.240837
v 103.426033 118.378639 108.459053
v 121.720573 122.485725 113.413918
v 105.664551 134.551971 113.910889
v 96.493813 127.709885 116.907387
v 97.289513 109.828865 117.333282
v 90.522026 118.754692 117.676567
v 99.365967 122.430298 111.519760
v 124.307236 131.468079 115.048973
v 87.670448 107.798378 119.746498
v 121.241615 133.843445 113.961678
v 101.386726 107.078285 119.384605
v 122.981911 130.905777 114.079247
v 107.531258 114.370621 115.320976
v 111.558060 111.346497 119.280090
v 88.361786 105.630150 119.270142
v 86.635483 107.345947 118.435745
v 107.543884 113.274437 116.332939
v 107.538612 134.860794 113.986618
v 97.275185 113.977676 120.473984
v 100.398338 130.621521 114.104622
v 91.066704 107.887688 117.207207
v 111.632004 112.130280 117.681793
v 103.785637 134.122421 113.978172
v 99.278084 113.805473 108.299675
v 97.751305 126.498375 113.875832
v 87.398010 106.267258 119.140793
v 116.194527 117.077065 110.410049
v 93.049149 106.552979 119.755341
v 115.453278 113.251953 110.945007
v 109.573257 111.998947 120.171539
v 112.387337 111.477364 119.685104
v 119.336044 112.752640 115.894287
v 111.773483 114.654503 112.052887
v 115.007072 113.028976 110.867996
v 119.846741 130.530991 117.103951
v 121.660606 132.805283 113.864250
v 103.415115 109.902557 120.266197
v 117.932144 112.621185 116.018959
v 103.711311 134.138870 114.051781
v 117.770081 130.948914 112.731743
v 107.384392 110.641861 118.143715
v 93.356369 122.326462 117.950996
v 105.479973 118.372009 120.499992
v 94.689819 107.111504 118.369316
v 89.907791 118.054314 117.276642
# 775 vertices, 0 vertices normals

f 130 610 425
f 259 252 644
f 689 679 131
f 604 226 676
f 643 301 324
f 588 432 659
f 266 712 237
f 424 395 422
f 163 62 340
f 418 1 615
f 39 285 213
f 319 245 649
f 335 500 124
f 619 566 485
f 64 353 491
f 339 658 169
f 209 578 166
f 647 750 657
f 631 511 559
f 680 550 638
f 323 57 715
f 685 321 774
f 553 268 475
f 571 354 280
f 583 388 326
f 139 158 108
f 337 237 513
f 312 353 84
f 612 304 212
f 153 631 671
f 735 351 207
f 172 557 196
f 98 236 532
f 267 486 81
f 356 222 164
f 654 26 342
f 294 355 641
f 236 720 632
f 293 468 694
f 96 565 152
f 73 426 469
f 567 749 508
f 378 120 553
f 505 113 535
f 716 371 722
f 45 366 126
f 190 308 228
f 374 477 262
f 118 79 252
f 132 690 115
f 695 274 510
f 688 677 490
f 430 485 396
f 643 324 225
f 669 94 520
f 494 719 312
f 253 43 773
f 464 672 492
f 511 543 372
f 90 234 580
f 706 599 639
f 311 499 660
f 624 216 517
f 719 554 143
f 685 607 609
f 294 355 7
f 315 78 199
f 655 713 243
f 642 111 727
f 757 171 122
f 541 320 602
f 453 189 661
f 58 206 2
f 532 632 473
f 182 653 204
f 272 405 396
f 331 684 686
f 651 185 184
f 285 227 28
f 58 2 69
f 771 344 284
f 511 336 559
f 558 612 450
f 617 495 546
f 216 479 734
f 653 463 240
f 700 484 447
f 722 192 634
f 600 248 523
f 16 725 78
f 159 540 538
f 38 97 233
f 652 556 379
f 609 112 389
f 545 426 674
f 729 149 547
f 169 142 46
f 567 637 375
f 486 33 81
f 394 438 381
f 642 471 111
f 130 544 610
f 364 522 773
f 507 185 651
f 595 170 87
f 320 281 533
f 9 73 506
f 197 297 688
f 45 320 222
f 775 314 651
f 41 681 394
f 138 537 363
f 698 155 498
f 21 306 179
f 655 647 304
f 372 397 704
f 395 592 763
f 80 657 13
f 584 213 332
f 347 478 75
f 450 92 491
f 76 656 347
f 437 185 772
f 67 398 709
f 470 96 666
f 157 775 613
f 713 606 728
f 635 488 114
f 541 126 281
f 131 561 692
f 422 395 763
f 83 361 126
f 679 337 561
f 19 395 724
f 562 195 85
f 133 72 525
f 244 526 613
f 340 62 463
f 210 5 409
f 457 160 328
f 640 89 743
f 696 250 370
f 311 660 208
f 600 5 210
f 401 186 650
f 665 109 480
f 527 180 357
f 732 283 12
f 536 11 325
f 495 454 167
f 448 376 24
f 622 318 560
f 775 438 314
f 531 219 527
f 392 721 509
f 701 241 10
f 599 706 188
f 379 20 570
f 159 538 446
f 7 199 376
f 85 518 581
f 591 284 747
f 450 212 92
f 128 724 759
f 661 129 333
f 88 502 107
f 426 17 469
f 737 677 688
f 390 682 708
f 447 297 197
f 93 235 172
f 209 768 238
f 2 455 612
f 731 210 409
f 393 363 101
f 197 688 490
f 732 165 163
f 434 727 431
f 552 489 404
f 151 351 39
f 750 350 686
f 164 427 86
f 478 134 217
f 56 441 413
f 94 574 766
f 348 773 251
f 275 580 138
f 438 775 381
f 481 416 330
f 485 564 60
f 97 330 156
f 752 183 302
f 498 155 302
f 533 355 294
f 502 157 613
f 200 476 552
f 453 218 189
f 254 691 196
f 698 498 193
f 322 324 390
f 556 309 696
f 249 74 562
f 328 457 221
f 177 562 514
f 691 254 557
f 64 589 499
f 590 230 101
f 66 174 306
f 20 696 570
f 3 303 419
f 269 760 105
f 42 16 78
f 759 695 279
f 384 112 389
f 555 767 393
f 775 157 381
f 59 752 155
f 153 754 631
f 746 597 140
f 141 391 582
f 235 598 172
f 112 389 232
f 408 342 445
f 286 403 125
f 594 95 275
f 461 672 136
f 287 528 697
f 547 642 386
f 151 575 9
f 220 297 161
f 560 318 171
f 457 367 124
f 510 636 578
f 100 286 125
f 123 378 40
f 706 748 188
f 756 703 745
f 349 452 634
f 333 588 566
f 736 775 651
f 224 410 8
f 367 457 316
f 305 467 37
f 766 99 359
f 323 543 715
f 359 201 512
f 605 435 470
f 249 562 26
f 437 772 133
f 409 44 174
f 518 747 743
f 103 766 359
f 565 599 188
f 587 321 198
f 716 722 634
f 366 83 126
f 101 363 290
f 577 718 4
f 5 44 409
f 292 56 399
f 276 756 635
f 572 241 497
f 71 577 428
f 429 198 389
f 22 461 119
f 562 649 195
f 741 596 726
f 447 197 298
f 356 164 142
f 114 587 198
f 216 734 713
f 434 431 591
f 649 434 195
f 661 189 129
f 324 307 265
f 427 320 533
f 41 414 681
f 439 620 18
f 61 543 511
f 572 440 668
f 403 337 679
f 6 558 554
f 9 506 603
f 413 402 443
f 186 131 650
f 653 240 148
f 584 270 213
f 466 33 486
f 220 439 297
f 398 689 186
f 760 290 106
f 767 275 138
f 110 425 711
f 666 96 147
f 449 59 155
f 388 452 675
f 305 456 604
f 703 488 745
f 673 456 459
f 763 274 695
f 282 93 115
f 216 144 479
f 412 594 582
f 418 211 32
f 234 425 110
f 527 357 665
f 549 319 74
f 220 161 447
f 66 306 21
f 276 597 746
f 559 289 248
f 462 601 623
f 727 111 421
f 561 168 692
f 454 301 643
f 107 502 613
f 614 327 79
f 264 665 521
f 694 445 121
f 603 596 741
f 724 691 128
f 656 300 596
f 203 49 705
f 524 713 54
f 678 662 159
f 595 87 563
f 669 352 574
f 629 132 663
f 270 607 39
f 183 380 366
f 102 640 193
f 570 645 202
f 760 269 290
f 226 671 487
f 279 578 329
f 47 228 667
f 353 719 143
f 85 591 518
f 208 660 308
f 635 756 745
f 476 348 664
f 149 741 141
f 334 552 404
f 439 18 297
f 82 472 483
f 735 729 285
f 259 644 50
f 729 227 285
f 178 379 454
f 457 328 316
f 191 617 546
f 342 26 514
f 699 55 504
f 690 282 115
f 180 84 311
f 216 447 144
f 242 349 634
f 583 597 389
f 38 233 501
f 495 178 454
f 358 744 139
f 239 50 127
f 297 145 688
f 45 126 541
f 264 527 665
f 365 35 325
f 82 57 715
f 14 762 356
f 252 63 644
f 218 707 191
f 516 732 163
f 413 443 733
f 373 633 508
f 361 334 496
f 84 499 311
f 238 14 268
f 418 615 263
f 524 216 542
f 713 728 243
f 59 449 284
f 113 349 535
f 557 254 196
f 758 587 365
f 759 764 718
f 592 694 121
f 73 469 506
f 353 143 491
f 748 453 154
f 382 520 103
f 7 294 641
f 700 447 493
f 350 331 686
f 525 701 610
f 532 473 182
f 188 154 152
f 122 120 296
f 616 220 700
f 105 158 761
f 156 444 246
f 540 390 538
f 692 335 316
f 130 637 544
f 543 715 397
f 534 501 725
f 74 649 562
f 632 516 340
f 34 614 118
f 18 255 702
f 499 605 660
f 680 472 550
f 300 656 76
f 341 362 606
f 725 501 34
f 534 38 501
f 160 585 215
f 42 78 315
f 724 424 422
f 280 354 317
f 8 346 201
f 636 209 166
f 715 57 360
f 569 630 598
f 655 455 713
f 390 265 682
f 1 680 70
f 219 180 527
f 543 397 372
f 536 326 675
f 468 51 408
f 194 205 680
f 587 758 575
f 294 315 7
f 157 502 381
f 200 552 334
f 384 583 112
f 453 661 154
f 728 362 243
f 86 294 448
f 363 537 628
f 250 560 370
f 70 680 620
f 102 592 121
f 384 112 232
f 666 147 303
f 341 350 362
f 455 304 612
f 735 285 39
f 26 562 177
f 591 431 284
f 78 214 199
f 119 136 709
f 677 392 490
f 294 7 448
f 48 707 402
f 376 387 259
f 414 1 32
f 751 685 609
f 698 449 155
f 354 571 652
f 702 673 459
f 122 329 120
f 233 465 625
f 135 416 481
f 633 526 567
f 539 148 460
f 399 753 769
f 463 62 240
f 24 376 50
f 160 256 650
f 478 17 134
f 287 697 273
f 503 619 430
f 539 653 148
f 392 331 755
f 56 529 441
f 687 638 673
f 603 506 596
f 76 347 75
f 375 637 130
f 696 370 162
f 698 640 743
f 331 350 755
f 699 176 55
f 188 748 154
f 635 114 429
f 240 415 148
f 18 620 255
f 305 37 576
f 320 541 281
f 484 220 447
f 192 371 374
f 628 31 522
f 297 18 145
f 196 128 71
f 668 440 515
f 245 386 434
f 368 668 482
f 445 342 581
f 103 520 740
f 674 365 325
f 108 200 334
f 770 446 236
f 204 539 460
f 321 575 774
f 697 623 273
f 373 478 217
f 108 334 361
f 712 190 47
f 124 346 229
f 189 191 27
f 465 246 531
f 140 583 326
f 223 16 42
f 334 404 496
f 478 373 75
f 439 615 620
f 305 604 313
f 14 356 142
f 664 481 489
f 35 703 739
f 275 90 580
f 357 311 208
f 142 86 338
f 410 231 551
f 441 137 343
f 607 584 374
f 89 445 581
f 176 64 491
f 336 601 462
f 628 522 106
f 596 300 726
f 59 417 744
f 673 638 436
f 622 115 318
f 330 444 156
f 46 338 15
f 696 162 570
f 131 692 650
f 245 547 386
f 371 288 374
f 564 352 669
f 487 559 248
f 509 170 684
f 217 134 535
f 545 505 134
f 588 52 432
f 686 684 247
f 537 110 31
f 277 364 476
f 473 340 463
f 282 235 93
f 387 252 259
f 372 704 654
f 403 266 337
f 440 497 53
f 418 263 211
f 703 756 739
f 570 370 645
f 265 40 377
f 711 568 253
f 71 279 428
f 586 731 409
f 712 47 237
f 353 64 84
f 11 674 325
f 63 117 286
f 173 746 140
f 767 138 393
f 742 738 359
f 435 565 470
f 765 474 231
f 661 333 670
f 211 442 291
f 198 751 389
f 474 405 272
f 30 466 175
f 34 625 614
f 433 36 757
f 449 698 743
f 388 716 634
f 393 138 363
f 268 658 475
f 159 225 540
f 196 71 171
f 114 611 365
f 281 126 407
f 147 152 503
f 388 371 716
f 167 662 678
f 288 384 609
f 391 412 582
f 758 365 674
f 181 524 54
f 354 652 178
f 437 244 184
f 290 628 106
f 612 212 450
f 22 119 648
f 383 507 291
f 658 142 169
f 172 598 557
f 348 135 664
f 536 140 326
f 576 467 66
f 423 203 705
f 578 636 166
f 574 260 766
f 178 652 379
f 726 300 412
f 250 622 560
f 594 275 767
f 199 214 387
f 206 455 2
f 476 664 552
f 519 719 494
f 543 715 723
f 193 579 636
f 153 671 226
f 648 119 345
f 592 102 763
f 167 643 662
f 65 276 746
f 354 451 317
f 686 247 137
f 295 663 309
f 276 429 389
f 132 115 622
f 126 223 407
f 443 453 733
f 181 440 524
f 708 732 516
f 414 257 1
f 214 34 118
f 2 612 558
f 727 421 590
f 477 257 693
f 255 687 673
f 146 239 127
f 304 647 657
f 766 742 99
f 469 17 347
f 270 39 213
f 342 514 581
f 445 89 121
f 7 376 448
f 680 205 472
f 411 366 45
f 399 413 753
f 685 774 151
f 711 701 568
f 516 163 340
f 199 387 376
f 265 377 682
f 83 108 361
f 772 507 616
f 707 617 191
f 207 603 741
f 749 567 299
f 578 209 120
f 582 767 555
f 136 146 127
f 630 724 691
f 462 697 523
f 579 400 209
f 580 234 110
f 665 357 109
f 27 678 52
f 126 361 223
f 623 468 293
f 637 437 133
f 681 414 32
f 551 382 103
f 303 405 474
f 202 433 296
f 1 418 32
f 670 333 619
f 25 309 556
f 235 630 569
f 751 609 389
f 209 238 120
f 421 471 590
f 645 370 202
f 582 594 767
f 748 706 626
f 343 48 402
f 144 447 618
f 690 5 714
f 330 267 444
f 428 329 122
f 417 590 101
f 300 258 412
f 273 623 293
f 112 583 389
f 520 94 740
f 468 408 694
f 580 110 537
f 318 196 171
f 489 481 97
f 127 50 67
f 465 531 68
f 197 490 298
f 392 737 721
f 63 286 100
f 328 160 316
f 761 158 139
f 225 324 540
f 496 404 534
f 444 494 246
f 614 68 327
f 62 22 240
f 25 295 309
f 75 373 508
f 413 441 402
f 315 199 7
f 86 355 294
f 369 700 624
f 352 98 574
f 137 563 343
f 172 128 196
f 430 619 485
f 676 226 406
f 584 477 374
f 556 696 420
f 43 368 30
f 561 513 168
f 515 181 58
f 599 504 639
f 461 136 119
f 500 224 346
f 529 137 441
f 149 141 642
f 151 9 351
f 502 242 381
f 738 359 201
f 48 343 317
f 526 244 548
f 505 536 675
f 253 568 43
f 33 558 6
f 583 384 371
f 23 42 315
f 173 65 746
f 551 103 738
f 331 392 509
f 435 599 565
f 627 339 464
f 146 24 239
f 550 472 638
f 226 487 406
f 267 519 444
f 753 733 639
f 13 657 769
f 333 566 619
f 744 105 761
f 724 422 759
f 377 627 283
f 111 471 421
f 125 679 689
f 668 515 482
f 621 257 205
f 373 217 88
f 405 430 396
f 471 555 393
f 565 188 152
f 719 519 554
f 150 75 508
f 289 462 523
f 723 153 226
f 306 25 179
f 305 737 459
f 715 49 397
f 207 741 149
f 684 563 247
f 640 698 193
f 142 164 86
f 167 454 643
f 571 25 652
f 427 533 355
f 371 192 722
f 192 374 414
f 400 366 209
f 519 267 81
f 482 515 58
f 71 718 577
f 329 428 4
f 755 350 606
f 623 601 468
f 327 521 117
f 28 549 332
f 482 58 33
f 585 457 124
f 343 563 317
f 310 66 21
f 267 416 486
f 729 207 149
f 472 715 638
f 607 151 39
f 533 281 23
f 8 551 738
f 349 217 535
f 456 673 604
f 451 48 317
f 321 587 575
f 383 220 616
f 436 638 723
f 95 258 150
f 92 80 55
f 655 647 730
f 446 538 720
f 671 631 559
f 125 403 679
f 607 685 151
f 94 116 740
f 768 222 762
f 513 683 168
f 528 282 714
f 667 765 278
f 160 650 316
f 480 109 712
f 749 150 508
f 738 201 512
f 139 108 83
f 374 288 609
f 49 203 397
f 639 733 626
f 168 683 500
f 585 229 215
f 662 225 159
f 759 422 695
f 257 477 621
f 597 276 389
f 240 22 415
f 260 182 742
f 769 753 639
f 689 131 186
f 431 727 771
f 283 627 464
f 627 530 339
f 379 420 20
f 677 737 392
f 734 479 713
f 718 329 4
f 704 26 654
f 753 413 733
f 258 300 76
f 346 460 229
f 406 487 210
f 195 434 591
f 724 395 424
f 72 624 497
f 425 701 711
f 241 701 525
f 36 171 757
f 224 8 346
f 471 230 590
f 673 436 604
f 495 167 546
f 558 450 143
f 752 358 183
f 436 723 604
f 217 349 88
f 302 366 400
f 438 681 211
f 318 128 196
f 238 768 14
f 51 372 654
f 190 228 47
f 489 97 38
f 630 19 724
f 44 690 132
f 583 371 388
f 633 567 508
f 28 227 319
f 142 338 46
f 766 103 116
f 695 510 279
f 531 527 264
f 765 231 410
f 451 178 495
f 578 329 120
f 451 354 178
f 472 205 483
f 72 369 624
f 633 88 107
f 362 655 243
f 525 72 497
f 203 74 249
f 475 658 530
f 584 607 270
f 386 642 727
f 180 311 357
f 227 547 245
f 441 343 402
f 150 76 75
f 620 680 255
f 52 159 432
f 183 358 380
f 632 340 473
f 31 253 522
f 205 483 608
f 553 530 627
f 80 13 55
f 556 420 379
f 277 760 106
f 697 528 523
f 192 41 394
f 432 446 770
f 350 341 606
f 514 85 581
f 255 680 687
f 79 327 117
f 559 336 289
f 378 553 261
f 419 474 765
f 263 615 442
f 566 564 485
f 630 691 598
f 323 543 61
f 560 171 36
f 592 293 694
f 357 208 109
f 412 258 594
f 45 541 602
f 501 625 34
f 420 696 20
f 415 256 717
f 99 742 359
f 212 304 187
f 116 103 740
f 286 77 403
f 505 11 536
f 428 577 4
f 543 754 715
f 773 43 251
f 401 398 186
f 17 426 545
f 227 729 547
f 530 658 339
f 309 250 696
f 244 437 637
f 276 635 429
f 16 534 725
f 723 754 153
f 599 699 504
f 3 666 303
f 145 459 688
f 335 367 316
f 681 438 394
f 399 56 413
f 233 156 465
f 741 726 29
f 263 442 211
f 218 191 189
f 261 553 627
f 567 548 637
f 237 47 646
f 451 495 617
f 202 271 433
f 770 236 98
f 92 176 491
f 738 359 512
f 664 135 481
f 185 437 184
f 133 772 72
f 96 152 147
f 80 212 187
f 384 389 232
f 78 725 214
f 442 439 220
f 387 118 252
f 496 534 16
f 576 66 310
f 278 410 224
f 336 511 601
f 398 125 689
f 416 135 175
f 762 222 356
f 480 712 266
f 236 632 532
f 27 546 678
f 360 104 593
f 48 451 617
f 295 629 663
f 93 172 128
f 625 465 68
f 564 659 352
f 89 518 743
f 370 271 202
f 212 80 92
f 589 435 605
f 625 68 614
f 168 500 335
f 258 95 594
f 33 6 81
f 683 278 224
f 521 480 77
f 338 448 24
f 618 490 755
f 647 362 750
f 611 385 114
f 345 709 401
f 657 80 187
f 320 45 602
f 332 549 423
f 325 35 739
f 30 482 466
f 499 589 605
f 100 125 398
f 305 313 467
f 750 529 56
f 252 79 63
f 624 700 216
f 292 399 769
f 710 605 666
f 488 611 114
f 310 21 179
f 479 144 618
f 573 211 291
f 458 492 461
f 452 388 634
f 727 590 771
f 308 710 3
f 25 571 179
f 105 760 158
f 466 482 33
f 57 82 608
f 98 532 260
f 700 220 484
f 713 206 54
f 374 414 262
f 65 91 756
f 307 202 123
f 542 216 713
f 64 176 589
f 380 139 83
f 708 682 732
f 408 445 694
f 385 587 114
f 223 496 16
f 281 407 23
f 671 559 487
f 438 573 314
f 768 45 222
f 702 255 673
f 129 27 52
f 405 147 430
f 662 643 225
f 246 219 531
f 191 546 27
f 338 86 448
f 355 7 641
f 395 19 273
f 526 107 613
f 23 315 294
f 741 29 141
f 774 575 151
f 549 28 319
f 231 272 382
f 230 393 101
f 601 511 51
f 660 605 710
f 301 570 307
f 287 19 630
f 568 368 43
f 511 372 51
f 17 545 134
f 209 366 411
f 758 426 73
f 426 758 674
f 488 35 611
f 368 572 668
f 208 308 190
f 269 417 101
f 296 120 378
f 251 30 175
f 521 665 480
f 37 467 576
f 648 401 256
f 672 46 146
f 214 118 387
f 309 663 250
f 40 261 377
f 117 77 286
f 683 224 500
f 1 257 621
f 715 360 593
f 115 93 318
f 544 133 525
f 709 398 401
f 455 655 304
f 552 664 489
f 477 584 693
f 669 574 94
f 269 101 290
f 303 147 405
f 371 384 288
f 185 507 772
f 672 146 136
f 1 621 194
f 702 459 145
f 242 192 381
f 246 494 219
f 433 122 296
f 71 759 279
f 416 175 486
f 13 769 639
f 464 339 672
f 77 480 266
f 646 667 278
f 291 507 651
f 26 177 514
f 181 206 58
f 57 608 49
f 228 3 419
f 231 382 551
f 707 218 443
f 631 61 511
f 691 128 196
f 736 651 184
f 138 580 537
f 467 676 731
f 659 432 770
f 298 490 618
f 278 765 410
f 287 630 235
f 669 396 60
f 198 321 751
f 284 449 747
f 94 766 116
f 754 543 723
f 407 223 42
f 440 53 524
f 323 104 57
f 91 65 173
f 747 449 743
f 477 414 262
f 517 216 524
f 148 415 717
f 351 735 39
f 326 388 675
f 700 493 216
f 680 638 687
f 553 475 530
f 192 394 381
f 570 202 307
f 411 45 768
f 519 81 554
f 11 545 674
f 721 170 509
f 260 532 182
f 351 9 603
f 11 505 545
f 462 623 697
f 285 28 213
f 8 738 201
f 239 24 50
f 733 748 626
f 458 461 22
f 649 245 434
f 642 141 471
f 752 744 358
f 155 752 302
f 339 169 46
f 339 46 672
f 763 102 274
f 538 708 720
f 351 603 207
f 77 266 403
f 611 587 114
f 352 770 98
f 222 427 164
f 568 10 368
f 44 629 174
f 234 130 425
f 97 156 233
f 616 700 369
f 364 348 476
f 12 458 62
f 487 600 210
f 417 269 744
f 493 447 216
f 329 238 120
f 271 36 433
f 256 401 650
f 161 297 447
f 279 428 329
f 25 556 652
f 313 676 467
f 40 378 261
f 95 749 90
f 742 182 204
f 563 179 280
f 682 377 283
f 91 173 140
f 566 659 564
f 638 715 723
f 299 375 130
f 497 624 53
f 540 322 390
f 567 375 299
f 193 498 579
f 464 492 458
f 446 720 236
f 308 3 228
f 192 414 41
f 554 558 143
f 370 560 36
f 175 466 486
f 266 237 337
f 644 63 100
f 506 469 656
f 31 711 253
f 277 476 200
f 506 656 596
f 692 168 335
f 120 268 553
f 738 103 359
f 504 13 639
f 319 227 245
f 738 204 460
f 1 194 680
f 114 198 429
f 228 419 667
f 51 654 408
f 156 246 465
f 71 428 122
f 361 496 223
f 382 272 520
f 433 757 122
f 428 71 329
f 229 148 215
f 258 76 150
f 637 133 544
f 22 648 415
f 407 42 23
f 720 516 632
f 470 565 96
f 607 374 609
f 419 303 474
f 737 305 576
f 205 257 705
f 274 102 193
f 12 464 458
f 644 100 67
f 404 489 38
f 726 412 391
f 471 393 230
f 598 691 557
f 684 170 595
f 329 120 268
f 109 190 712
f 396 669 520
f 312 84 180
f 33 69 558
f 654 342 408
f 589 699 435
f 731 406 210
f 323 61 631
f 563 87 179
f 362 350 750
f 600 523 714
f 720 708 516
f 248 289 523
f 140 597 583
f 379 570 301
f 648 345 401
f 416 267 330
f 410 551 8
f 655 362 647
f 110 711 31
f 438 211 573
f 295 25 306
f 165 62 163
f 759 718 71
f 494 312 219
f 282 528 235
f 384 112 609
f 55 13 504
f 19 287 273
f 460 346 201
f 707 48 617
f 327 264 521
f 633 373 88
f 53 517 524
f 95 150 749
f 456 305 459
f 440 181 515
f 135 348 251
f 204 653 539
f 74 319 649
f 192 242 634
f 444 519 494
f 276 65 756
f 546 167 678
f 585 124 229
f 81 6 554
f 338 24 15
f 573 291 314
f 756 140 739
f 488 635 745
f 706 639 626
f 179 571 280
f 615 1 70
f 57 104 360
f 615 70 620
f 344 417 59
f 244 613 184
f 606 362 728
f 536 325 739
f 331 509 684
f 605 470 666
f 518 89 581
f 194 621 205
f 241 525 497
f 302 183 366
f 754 323 631
f 171 71 122
f 618 755 606
f 522 253 773
f 447 298 618
f 523 528 714
f 154 661 670
f 127 67 709
f 69 2 558
f 68 264 327
f 52 678 159
f 209 411 768
f 128 759 71
f 123 296 378
f 304 657 187
f 663 622 250
f 370 36 271
f 721 737 576
f 567 526 548
f 314 291 651
f 608 205 49
f 136 127 709
f 366 380 83
f 538 390 708
f 134 505 535
f 415 648 256
f 579 302 400
f 422 763 695
f 358 139 380
f 50 644 67
f 57 715 49
f 507 383 616
f 768 762 14
f 344 59 284
f 704 249 26
f 333 129 588
f 725 34 214
f 490 392 755
f 348 364 773
f 321 685 751
f 549 203 423
f 104 323 754
f 206 181 54
f 640 102 121
f 218 453 443
f 299 130 234
f 117 521 77
f 329 238 268
f 87 310 179
f 404 38 534
f 575 758 73
f 376 259 50
f 524 542 713
f 584 332 423
f 219 312 180
f 17 478 347
f 5 600 714
f 442 615 439
f 82 483 608
f 660 710 308
f 43 30 251
f 104 754 593
f 95 90 275
f 109 208 190
f 10 572 368
f 533 23 294
f 431 771 284
f 459 737 688
f 84 64 499
f 29 391 141
f 481 330 97
f 257 693 705
f 417 344 771
f 135 251 175
f 148 717 215
f 203 549 74
f 15 24 146
f 301 307 324
f 182 473 653
f 427 355 86
f 235 569 598
f 307 123 265
f 237 646 513
f 432 159 446
f 397 203 249
f 473 463 653
f 479 618 606
f 693 423 705
f 474 272 231
f 710 666 3
f 213 28 332
f 563 280 317
f 663 132 622
f 241 572 10
f 119 709 345
f 624 517 53
f 33 58 69
f 684 595 563
f 440 572 497
f 282 690 714
f 211 681 32
f 701 10 568
f 176 699 589
f 471 582 555
f 442 220 291
f 79 117 63
f 313 604 676
f 659 770 352
f 766 260 742
f 337 513 561
f 729 735 207
f 629 295 306
f 222 320 427
f 574 98 260
f 699 599 435
f 646 278 683
f 170 310 87
f 62 458 22
f 547 149 642
f 272 396 520
f 498 302 579
f 368 482 30
f 590 417 771
f 397 249 704
f 667 419 765
f 176 92 55
f 377 261 627
f 434 386 727
f 460 148 229
f 562 85 514
f 113 505 675
f 336 462 289
f 492 672 461
f 68 531 264
f 756 91 140
f 93 128 318
f 90 299 234
f 453 748 733
f 367 335 124
f 721 576 170
f 256 160 717
f 349 113 452
f 152 670 503
f 165 12 62
f 472 82 715
f 363 628 290
f 129 52 588
f 143 450 491
f 395 273 293
f 732 12 165
f 682 283 732
f 719 353 312
f 247 563 137
f 220 383 291
f 529 686 137
f 487 248 600
f 522 364 106
f 613 775 736
f 629 44 132
f 162 370 570
f 18 702 145
f 587 385 611
f 513 646 683
f 526 633 107
f 650 692 316
f 611 35 365
f 566 588 659
f 613 736 184
f 467 586 66
f 503 670 619
f 601 51 468
f 537 31 628
f 349 242 502
f 402 707 443
f 544 525 610
f 564 669 60
f 29 726 391
f 528 287 235
f 488 703 35
f 452 113 675
f 657 56 292
f 44 5 690
f 636 579 209
f 14 142 658
f 274 193 636
f 575 73 9
f 467 731 586
f 540 324 322
f 744 269 105
f 750 686 529
f 772 369 72
f 744 761 139
f 657 750 56
f 349 502 88
f 738 742 204
f 158 277 200
f 59 744 752
f 265 123 40
f 477 257 414
f 66 586 174
f 67 100 398
f 676 406 731
f 479 606 713
f 610 701 425
f 118 614 79
f 501 233 625
f 174 629 306
f 324 265 390
f 500 346 124
f 586 409 174
f 718 71 329
f 592 395 293
f 587 114 365
f 604 723 226
f 754 715 593
f 454 379 301
f 279 510 578
f 283 464 12
f 548 244 637
f 364 277 106
f 749 299 90
f 760 277 158
f 202 296 123
f 717 160 215
f 85 195 591
f 510 274 636
f 268 14 658
f 738 460 201
f 457 585 160
f 141 582 471
f 89 640 121
f 46 15 146
f 656 469 347
f 455 206 713
f 772 616 369
f 147 503 430
f 49 205 705
f 170 576 310
f 679 561 131
f 158 200 108
f 189 27 129
f 518 591 747
f 396 485 60
f 693 584 423
f 47 667 646
f 448 294 24
f 140 536 739
f 657 292 769
f 152 154 670
# 1564 faces, 0 coords texture

# End of File