####
#
# OBJ File Generated by Meshlab
#
####
# Object Volume_104.obj
#
# Vertices: 297
# Faces: 592
#
####
v 129.355560 343.981018 142.871094
v 121.785316 345.804871 143.392700
v 121.658867 331.270203 137.262527
v 123.036453 341.938171 144.118530
v 128.332428 356.804779 147.638962
v 123.207970 354.676758 147.901917
v 116.055931 337.689941 138.048676
v 123.772202 343.732056 145.185959
v 128.273956 354.531403 148.140961
v 116.777145 331.477325 137.249863
v 120.688332 348.099915 142.202454
v 124.483505 333.612213 143.804504
v 121.099327 353.246399 144.190964
v 120.878761 337.811615 141.647568
v 120.473160 331.235474 138.102448
v 118.411163 341.919189 139.960403
v 120.166374 348.141602 140.534897
v 122.203918 331.764648 138.124222
v 120.475006 345.100372 139.217453
v 117.488358 332.180267 138.539352
v 124.941055 348.352814 147.874176
v 123.747177 333.477966 143.329849
v 129.360031 339.810852 142.739639
v 128.909668 343.983521 141.867630
v 126.278267 356.372345 144.770050
v 123.357491 348.226318 146.420425
v 117.609108 343.475800 139.208908
v 129.073547 332.708008 143.395950
v 128.492203 348.109528 146.975021
v 126.488876 346.430756 147.693039
v 116.261528 339.141785 138.081238
v 124.205650 350.125305 139.748795
v 129.368805 344.183441 144.159302
v 117.490448 341.595978 139.127182
v 128.895432 356.138641 146.993134
v 126.127350 333.518555 139.811203
v 123.486427 337.810089 143.821579
v 122.484077 352.372528 139.997635
v 124.554115 350.295624 147.945999
v 128.106689 332.230011 142.211273
v 124.244881 352.427124 148.086899
v 129.072922 337.869537 143.705673
v 128.141708 352.426575 141.293045
v 124.095436 337.742065 138.765289
v 118.384331 331.576721 137.150177
v 127.801216 350.160828 147.678619
v 116.485458 331.592712 137.177704
v 122.541214 355.490173 142.878357
v 128.823456 348.124542 141.579849
v 126.336418 342.294403 145.962006
v 120.583496 348.080963 140.020386
v 119.376900 346.088989 139.979248
v 124.776924 344.130463 139.359497
v 120.982269 339.919952 141.918793
v 123.224213 339.820862 143.877319
v 122.974297 344.042999 144.486984
v 119.413269 344.927734 139.353821
v 124.501022 346.115326 146.877106
v 122.574074 335.437073 137.985428
v 119.435875 346.089966 139.970459
v 119.158501 353.934204 140.919662
v 125.006058 342.796478 145.753372
v 129.053223 346.090088 145.614227
v 126.279655 356.904388 146.882492
v 129.233521 337.824432 142.755707
v 122.365250 339.812317 138.409912
v 129.460617 346.087982 144.401443
v 118.444313 341.870178 138.760437
v 129.422256 354.714233 147.041595
v 128.226318 335.499451 144.188446
v 126.284813 348.132416 148.040634
v 116.202698 331.876923 137.192352
v 124.175972 354.147491 140.852020
v 126.236900 337.825012 139.695999
v 121.743584 332.160797 140.935165
v 124.269234 354.523193 148.211487
v 126.268929 355.249542 142.110458
v 126.302284 346.031952 140.069641
v 126.134621 341.163727 145.545410
v 118.795067 332.023407 139.121933
v 126.293823 335.518250 144.428619
v 119.428253 352.530334 141.244507
v 123.623260 335.532806 143.669693
v 119.674446 344.165894 140.761520
v 128.040298 348.096954 140.948898
v 126.348984 341.916718 139.929794
v 124.167870 352.372681 140.058838
v 126.293907 339.923126 145.163284
v 124.055191 331.798401 140.526978
v 128.198090 337.822937 144.426727
v 121.647499 332.823914 137.252472
v 117.154900 354.529938 140.000000
v 119.553505 352.499359 140.817795
v 118.391151 332.658508 137.063370
v 126.273811 350.118896 140.219559
v 123.296219 356.684113 147.650467
v 124.939079 341.931732 139.316055
v 129.588348 354.210815 146.775101
v 128.248550 356.087341 144.876282
v 124.307800 348.057434 147.490784
v 116.012817 337.775055 138.045990
v 122.480751 350.125061 139.689392
v 120.423943 341.930450 138.492325
v 124.335732 333.475098 138.824371
v 122.529015 331.723633 140.260605
v 122.279404 348.135895 144.692596
v 128.326279 340.048828 144.707443
v 124.389343 335.483490 138.720642
v 121.164368 335.508301 141.645264
v 127.666199 332.524719 141.266022
v 116.275093 332.257385 137.190308
v 129.916733 352.472870 142.877731
v 127.840424 344.142273 146.283218
v 128.009857 339.730713 140.761658
v 128.910095 344.055145 145.179352
v 121.972702 343.983215 143.341339
v 128.014877 335.465210 140.790146
v 128.281906 356.415436 147.933395
v 127.859200 342.472015 145.761139
v 121.663284 331.313965 137.240128
v 130.241226 352.493195 144.967865
v 128.252136 333.527832 143.974426
v 126.259346 350.144348 148.121964
v 130.355148 351.189758 143.970032
v 120.574745 352.348785 140.290329
v 117.382942 333.398499 137.986801
v 129.979111 350.209808 144.611282
v 120.757759 341.922638 141.922653
v 123.052330 350.337982 146.705292
v 128.056976 346.014984 146.948486
v 118.766266 343.780609 139.274353
v 120.698189 354.208344 142.111572
v 124.231308 332.085968 142.194138
v 121.827965 354.984467 146.301041
v 124.797417 344.246552 146.175369
v 118.385841 339.885803 139.965027
v 130.358566 353.708557 144.033066
v 128.203201 350.180725 141.108231
v 117.534271 341.669281 139.186661
v 124.908768 332.593842 143.336594
v 119.585648 341.912201 140.891846
v 128.740036 356.420929 147.748856
v 129.331863 341.704254 142.752258
v 128.203537 355.069611 142.294922
v 126.179161 352.358215 140.463730
v 124.205467 341.886292 145.024216
v 128.887222 342.122925 141.756165
v 128.193481 356.743256 147.012131
v 122.087868 339.808350 142.947052
v 124.955315 339.878662 139.223526
v 121.520454 354.966675 143.192490
v 118.382698 335.495422 137.545212
v 122.730507 356.412720 147.096725
v 125.871033 345.632507 147.373978
v 120.709900 332.002686 140.005203
v 119.534660 350.858521 141.153625
v 116.051277 337.852386 138.049316
v 122.511101 354.108795 140.847977
v 127.734154 346.766846 147.500076
v 128.005615 343.981384 140.969894
v 118.489662 335.477692 139.811203
v 128.460907 341.819336 145.140228
v 124.239761 356.352417 144.775101
v 117.267471 339.865784 139.131638
v 126.292801 348.081390 140.137482
v 128.001419 346.036194 140.984848
v 122.444618 346.388275 139.284988
v 122.607933 333.464996 142.443100
v 129.082825 335.510437 143.547546
v 120.414581 331.223846 137.438232
v 118.631760 333.502197 139.683853
v 126.338852 344.237579 146.687424
v 129.482391 355.017578 143.283066
v 126.333595 332.565002 143.515854
v 120.464394 343.905579 138.862976
v 121.999863 355.893860 146.278687
v 128.041550 341.920380 140.920578
v 122.375771 335.468964 142.700821
v 126.318443 337.724640 144.723190
v 122.462906 337.722534 138.216644
v 128.013062 337.767487 140.825745
v 119.808464 339.922729 141.016174
v 129.428970 355.397095 144.769470
v 122.668396 346.040192 144.643524
v 124.280830 356.875854 146.919815
v 115.994980 337.768616 138.049728
v 129.230362 335.476532 142.714661
v 129.243271 348.081879 145.694336
v 130.534943 352.480927 143.983139
v 126.279343 339.908783 139.795792
v 128.797928 350.178223 146.857742
v 120.426865 333.651764 137.144653
v 120.160934 335.458649 140.907928
v 120.392052 337.787323 137.882599
v 124.406471 339.979736 144.653778
v 124.234955 355.699310 142.812408
v 129.261871 333.519165 142.759415
v 120.420151 335.477509 137.538925
v 119.945717 337.731567 140.896729
v 120.716568 344.028473 141.951920
v 123.613335 345.145020 145.515335
v 123.580101 346.584534 146.088669
v 120.405411 339.899323 138.160645
v 124.517426 337.947052 144.362213
v 122.476181 348.081482 139.538895
v 122.282387 337.807251 142.851685
v 126.276558 332.047211 142.098541
v 126.281670 355.681580 142.823090
v 122.663475 352.516541 146.899338
v 118.413315 339.864044 138.287949
v 122.448769 341.914398 138.631851
v 123.972206 341.924072 138.983643
v 124.222862 348.077423 139.626251
v 128.138535 352.553436 147.897949
v 126.088287 354.137512 141.114700
v 128.272385 332.613983 143.501434
v 121.635910 348.033203 143.696198
v 121.836899 355.596588 144.996887
v 129.118744 333.479340 143.507599
v 122.406685 333.521362 137.665680
v 123.954414 332.107849 139.372025
v 120.464386 332.758331 136.962173
v 116.482941 332.425812 137.259903
v 124.376259 335.526001 144.052460
v 126.269409 352.482910 148.257294
v 126.323364 343.983032 139.989670
v 128.903000 346.039154 141.848267
v 117.297928 337.942566 139.082367
v 128.015366 354.187225 141.669846
v 121.494873 352.261658 144.739487
v 129.714050 354.389679 142.972397
v 120.402153 331.563538 137.111816
v 126.282326 356.791779 147.563522
v 123.956680 349.661713 147.557358
v 129.169342 339.884216 143.844772
v 117.469353 335.301483 138.999481
v 120.562462 353.782349 140.941071
v 126.209671 335.504028 139.591339
v 118.405800 337.795441 137.869476
v 124.214241 356.848724 147.575073
v 116.762886 331.703125 137.628723
v 121.369774 354.320892 144.573288
v 118.502609 331.296509 137.932220
v 117.552612 333.427917 138.818253
v 120.301872 333.450714 140.660355
v 120.606964 346.174622 141.890579
v 118.421555 337.866028 139.933945
v 120.285828 352.468414 142.587814
v 117.612823 343.483887 139.207581
v 126.284767 354.514160 148.315155
v 129.568497 348.168427 144.473648
v 118.356583 333.614227 137.345764
v 121.344200 333.446808 141.448746
v 123.994774 339.882751 138.872650
v 122.582329 356.022278 144.854553
v 128.676178 356.722656 147.710587
v 129.063004 353.549316 147.912537
v 118.727547 343.792053 139.679291
v 118.390968 331.267303 137.440781
v 120.584534 350.126068 140.069107
v 121.808182 350.143097 144.653183
v 130.054871 354.395508 144.686020
v 122.504501 355.121643 142.127167
v 124.233643 355.299103 142.070602
v 125.004974 337.869049 139.112686
v 123.878540 343.924500 139.070129
v 128.315521 355.454926 142.887238
v 129.204407 352.351959 147.004181
v 125.903389 332.275726 140.627594
v 129.205536 341.921997 144.011749
v 122.360176 354.408386 147.134842
v 127.940170 333.565796 140.889023
v 129.410324 346.047607 142.974686
v 129.098984 332.648407 142.906723
v 128.861588 349.226532 141.556442
v 116.230896 336.751495 138.066940
v 123.662880 345.426056 139.172272
v 124.260605 356.406677 147.931564
v 128.910889 354.510376 147.874023
v 122.778954 332.237854 141.661743
v 122.558723 345.304138 139.003815
v 123.242088 356.453217 147.740295
v 119.255463 353.966949 141.051849
v 126.284569 356.377045 147.950897
v 129.341812 349.104858 145.770203
v 122.080215 341.896240 143.192993
v 120.405052 350.093903 142.467560
v 129.721695 350.244080 142.830078
v 129.168076 353.377899 147.762131
v 122.444496 343.946533 138.837418
v 126.312561 333.532959 144.073502
v 128.812805 340.235840 141.563309
v 124.325729 346.162537 139.427048
v 129.390808 348.078949 142.668228
v 127.757729 348.102966 147.639267
v 123.483727 353.042053 147.864777
v 119.758476 350.226227 140.751312
# 297 vertices, 0 vertices normals

f 107 270 235
f 210 34 157
f 115 33 270
f 64 148 5
f 230 271 209
f 43 112 231
f 114 23 292
f 188 191 285
f 161 247 193
f 220 192 222
f 281 167 52
f 220 108 59
f 259 232 45
f 247 228 164
f 211 175 103
f 116 56 4
f 261 287 248
f 239 194 210
f 4 146 195
f 111 72 47
f 214 9 257
f 148 256 5
f 243 80 155
f 290 19 175
f 244 171 80
f 52 51 17
f 125 237 61
f 191 127 285
f 7 186 228
f 211 290 175
f 294 127 288
f 286 4 55
f 3 120 170
f 83 224 12
f 13 248 242
f 91 220 222
f 20 244 80
f 233 118 284
f 184 58 201
f 206 54 149
f 18 220 91
f 2 217 184
f 159 295 29
f 220 104 108
f 148 35 256
f 239 186 152
f 83 204 224
f 233 284 240
f 3 18 120
f 94 222 192
f 66 211 103
f 12 224 291
f 144 231 267
f 266 53 293
f 210 203 68
f 168 22 133
f 76 250 225
f 24 273 227
f 108 265 44
f 59 180 194
f 267 173 183
f 132 263 151
f 181 65 23
f 58 30 154
f 107 235 42
f 119 79 50
f 157 139 164
f 206 14 54
f 16 258 141
f 208 144 267
f 32 95 87
f 9 279 257
f 182 128 54
f 295 191 29
f 216 207 174
f 70 169 219
f 25 148 64
f 53 86 226
f 133 207 269
f 58 172 135
f 7 276 186
f 184 202 58
f 125 61 93
f 107 79 162
f 180 44 66
f 83 37 204
f 187 42 65
f 162 115 270
f 167 277 293
f 149 54 128
f 73 215 77
f 66 103 203
f 206 149 55
f 40 216 28
f 7 228 236
f 201 58 135
f 30 71 159
f 110 269 207
f 231 183 173
f 104 36 238
f 32 165 95
f 6 76 41
f 239 157 186
f 27 258 249
f 32 87 38
f 181 114 190
f 46 214 268
f 188 251 67
f 224 81 291
f 70 81 90
f 150 74 190
f 109 193 14
f 12 291 174
f 5 256 142
f 63 188 67
f 227 273 294
f 187 169 42
f 114 292 147
f 136 139 16
f 18 105 89
f 151 263 48
f 10 72 241
f 129 209 41
f 31 157 101
f 293 78 213
f 110 272 36
f 206 55 37
f 264 48 263
f 252 192 152
f 16 141 182
f 102 125 260
f 39 41 123
f 46 268 191
f 242 248 132
f 78 166 165
f 105 280 89
f 87 95 145
f 257 279 69
f 167 51 52
f 262 35 183
f 241 244 20
f 141 258 84
f 127 121 189
f 120 18 91
f 110 207 40
f 131 175 19
f 223 45 94
f 114 86 190
f 136 164 139
f 253 245 109
f 279 142 35
f 90 107 42
f 259 243 170
f 107 162 270
f 131 60 258
f 273 67 251
f 166 227 49
f 98 69 262
f 227 294 49
f 69 279 35
f 247 136 199
f 161 236 228
f 143 33 1
f 129 100 26
f 31 186 157
f 290 266 281
f 217 106 184
f 223 126 111
f 7 236 126
f 212 53 266
f 211 254 212
f 233 5 118
f 293 53 226
f 282 271 153
f 195 88 179
f 122 70 219
f 176 153 271
f 199 54 14
f 288 124 112
f 261 248 230
f 6 296 209
f 156 82 287
f 211 212 290
f 16 139 249
f 242 271 230
f 120 222 232
f 115 63 67
f 130 29 63
f 286 200 116
f 278 240 284
f 242 176 134
f 216 174 291
f 146 79 88
f 272 197 187
f 111 126 72
f 186 164 228
f 87 73 158
f 215 144 77
f 218 176 242
f 180 203 194
f 10 45 47
f 208 99 25
f 136 16 182
f 237 158 263
f 138 288 112
f 150 190 97
f 286 128 200
f 75 280 105
f 218 255 153
f 253 155 245
f 21 71 30
f 286 116 4
f 266 293 277
f 122 219 28
f 180 108 44
f 4 56 146
f 87 145 73
f 197 169 187
f 116 2 56
f 274 28 219
f 71 123 295
f 280 133 89
f 85 275 138
f 204 179 81
f 115 67 33
f 129 41 39
f 129 234 100
f 100 234 39
f 237 38 158
f 156 287 297
f 110 274 197
f 19 52 60
f 259 170 232
f 84 52 246
f 178 12 22
f 204 195 179
f 6 271 282
f 283 132 248
f 39 71 21
f 205 213 102
f 272 117 238
f 16 249 258
f 255 48 163
f 261 209 129
f 265 238 74
f 41 76 225
f 233 185 64
f 161 245 171
f 196 163 48
f 223 94 252
f 58 100 21
f 123 225 46
f 80 171 245
f 44 265 150
f 10 47 72
f 118 142 279
f 215 43 229
f 167 205 51
f 289 257 69
f 90 88 107
f 160 227 166
f 216 122 28
f 265 74 150
f 213 78 165
f 141 200 128
f 191 268 127
f 90 81 179
f 205 102 260
f 7 252 152
f 241 126 244
f 205 260 51
f 160 166 78
f 210 194 203
f 89 133 269
f 146 8 62
f 97 190 86
f 70 90 169
f 196 25 163
f 160 24 227
f 75 155 253
f 255 185 153
f 246 60 11
f 281 52 19
f 147 1 24
f 287 17 297
f 283 82 93
f 181 23 114
f 233 64 5
f 231 137 262
f 11 17 287
f 66 254 211
f 131 19 57
f 58 154 172
f 241 72 126
f 129 39 234
f 221 269 36
f 288 127 124
f 213 165 32
f 7 186 101
f 208 267 99
f 100 39 21
f 195 146 88
f 295 46 191
f 110 197 272
f 214 289 268
f 165 85 95
f 59 194 198
f 112 189 231
f 225 250 214
f 136 182 199
f 212 97 53
f 157 186 101
f 1 33 273
f 130 63 115
f 9 118 279
f 172 154 30
f 75 105 155
f 119 50 113
f 102 32 38
f 231 262 183
f 223 111 47
f 68 103 131
f 114 177 86
f 168 178 22
f 117 74 238
f 68 131 27
f 84 258 60
f 110 40 274
f 102 38 125
f 51 297 17
f 178 14 206
f 138 112 43
f 20 80 243
f 264 263 158
f 109 245 193
f 260 125 93
f 199 182 54
f 99 35 148
f 105 15 155
f 267 183 99
f 188 285 251
f 25 99 148
f 217 287 106
f 147 143 1
f 268 289 69
f 177 147 24
f 178 83 12
f 268 69 98
f 220 59 198
f 185 240 153
f 149 286 55
f 6 209 271
f 284 118 9
f 55 204 37
f 7 101 276
f 41 225 123
f 120 232 170
f 52 60 246
f 90 42 169
f 94 232 222
f 107 88 79
f 133 22 140
f 180 66 203
f 224 204 81
f 221 36 104
f 127 189 124
f 113 50 172
f 262 69 35
f 264 196 48
f 141 84 200
f 49 294 275
f 161 193 245
f 253 168 280
f 177 226 86
f 18 89 221
f 12 174 140
f 166 49 85
f 250 284 9
f 217 11 287
f 96 240 278
f 157 164 186
f 233 240 185
f 178 206 83
f 6 41 296
f 133 174 207
f 138 275 288
f 102 213 32
f 117 65 181
f 112 124 189
f 53 97 86
f 106 202 184
f 255 151 48
f 223 252 126
f 196 208 25
f 152 192 198
f 241 243 259
f 131 103 175
f 272 238 36
f 281 277 167
f 73 77 264
f 237 263 132
f 56 201 8
f 44 150 254
f 57 19 60
f 225 214 46
f 2 184 56
f 71 295 159
f 39 123 71
f 205 293 213
f 296 41 209
f 254 150 97
f 273 251 294
f 290 212 266
f 18 15 105
f 250 9 214
f 99 183 35
f 157 34 139
f 6 282 76
f 214 257 289
f 7 152 186
f 261 129 106
f 109 14 178
f 104 238 108
f 26 100 202
f 29 191 188
f 3 15 18
f 68 27 34
f 101 186 276
f 95 138 145
f 120 91 222
f 123 46 295
f 293 226 78
f 80 245 155
f 244 236 171
f 261 230 209
f 285 127 251
f 145 43 215
f 239 198 194
f 55 4 195
f 283 93 61
f 51 260 297
f 147 23 143
f 8 135 62
f 218 151 255
f 133 140 174
f 13 242 230
f 162 113 115
f 165 166 85
f 66 44 254
f 22 12 140
f 218 153 176
f 125 38 237
f 90 179 88
f 68 203 103
f 197 219 169
f 30 159 130
f 274 219 197
f 130 159 29
f 167 293 205
f 27 249 34
f 241 20 243
f 87 158 38
f 172 30 130
f 13 230 248
f 218 242 151
f 239 210 157
f 221 89 269
f 117 187 65
f 275 294 288
f 134 176 271
f 121 262 137
f 56 8 146
f 237 132 61
f 254 97 212
f 122 291 81
f 52 17 60
f 114 147 177
f 249 139 34
f 84 246 200
f 247 199 193
f 3 170 15
f 268 98 121
f 216 291 122
f 255 163 185
f 268 121 127
f 24 1 273
f 84 60 52
f 11 60 17
f 160 78 226
f 156 297 82
f 243 155 15
f 77 144 208
f 82 248 287
f 8 201 135
f 106 129 26
f 73 264 158
f 121 137 189
f 45 232 94
f 267 231 173
f 116 200 246
f 163 64 185
f 31 101 186
f 292 23 147
f 206 37 83
f 242 134 271
f 290 281 19
f 282 278 76
f 145 138 43
f 220 198 192
f 63 29 188
f 106 26 202
f 182 141 128
f 162 119 113
f 260 93 297
f 242 132 151
f 117 181 74
f 184 201 56
f 23 270 143
f 294 251 127
f 75 253 280
f 162 79 119
f 161 228 247
f 59 108 180
f 96 153 240
f 10 259 45
f 146 50 79
f 196 77 208
f 210 68 34
f 109 178 168
f 118 5 142
f 177 160 226
f 282 153 96
f 229 231 144
f 43 231 229
f 239 152 198
f 282 96 278
f 2 11 217
f 7 126 252
f 193 199 14
f 142 256 35
f 231 189 137
f 247 164 136
f 135 172 50
f 10 241 259
f 281 266 277
f 40 207 216
f 272 187 117
f 280 168 133
f 131 57 60
f 65 235 23
f 116 246 2
f 149 128 286
f 122 81 70
f 163 25 64
f 23 235 270
f 82 297 93
f 126 236 244
f 18 104 220
f 65 42 235
f 58 21 30
f 2 246 11
f 113 130 115
f 131 258 27
f 243 15 170
f 181 190 74
f 58 202 100
f 161 171 236
f 177 24 160
f 135 50 62
f 253 109 168
f 283 61 132
f 143 270 33
f 146 62 50
f 18 221 104
f 76 278 250
f 264 77 196
f 33 67 273
f 95 85 138
f 55 195 204
f 40 28 274
f 85 49 275
f 223 47 45
f 283 248 82
f 94 192 252
f 108 238 265
f 121 98 262
f 215 229 144
f 73 145 215
f 113 172 130
f 261 106 287
f 110 36 269
f 278 284 250
# 592 faces, 0 coords texture

# End of File