####
#
# OBJ File Generated by Meshlab
#
####
# Object domain062.obj
#
# Vertices: 525
# Faces: 1074
#
####
v 112.974594 200.517410 116.696678
v 87.952057 176.249588 116.401810
v 110.757362 184.953796 111.930527
v 90.097649 185.044693 115.052933
v 97.862076 176.272949 118.694153
v 109.124352 177.952133 113.081764
v 99.913139 180.784164 111.565147
v 99.913025 195.723099 120.473999
v 93.767197 176.384552 114.592270
v 111.430191 189.968643 115.063622
v 106.065971 189.570969 120.497398
v 110.883232 187.298752 119.739685
v 106.053894 203.376709 113.517838
v 90.636429 189.219879 116.786591
v 111.347160 195.713882 114.019585
v 110.821968 202.768280 112.825851
v 101.987808 202.594177 114.412872
v 104.014969 200.160858 118.744598
v 104.013054 203.165039 113.426186
v 104.015015 178.757492 120.301003
v 95.812958 197.729584 120.237289
v 101.963852 185.176086 111.505447
v 108.075409 180.798767 111.852036
v 111.305740 193.659744 114.049278
v 87.958260 177.137939 119.638557
v 110.789032 193.424820 111.931664
v 92.430305 195.265671 118.825653
v 87.104164 178.633423 119.643814
v 110.093117 201.397949 111.358734
v 89.727203 183.117676 120.175781
v 92.730255 195.605362 116.981384
v 112.714180 204.611649 110.968475
v 108.093933 176.031937 116.259102
v 104.014923 183.125000 120.500015
v 95.811035 177.135849 119.679466
v 95.830757 177.457657 112.749611
v 109.395401 178.970230 112.947388
v 93.760864 189.574448 120.406799
v 97.862022 176.313644 114.564270
v 97.862022 193.672897 120.500031
v 108.116005 204.082855 112.152740
v 113.003670 195.869614 118.944290
v 99.913269 178.816071 111.890526
v 104.014130 178.816879 111.893524
v 88.524620 186.210266 118.992226
v 91.980309 180.678604 112.798820
v 88.124123 182.863373 118.818054
v 109.913254 176.329788 118.379250
v 95.812698 195.722412 120.444733
v 97.862038 189.571075 120.500008
v 110.765617 189.113632 111.959755
v 110.188705 189.521271 120.230019
v 112.635712 187.265854 118.063583
v 110.792831 176.138474 117.528107
v 108.104721 193.673111 111.649864
v 93.720062 180.742722 112.211273
v 87.418098 180.054581 119.731339
v 110.311569 183.002075 119.529251
v 104.014977 201.024216 117.513031
v 110.022545 202.254272 114.408272
v 98.379013 195.604019 112.913078
v 112.463928 186.479187 118.109909
v 107.983917 178.863312 112.192413
v 111.717468 204.272156 111.222054
v 108.082283 178.757538 120.194954
v 109.220680 177.128265 119.570740
v 110.545837 185.307770 119.623299
v 97.826073 187.262939 111.974144
v 90.447563 177.348358 113.732765
v 97.963997 200.069687 114.198776
v 110.850685 198.897171 111.855042
v 104.013359 177.436096 112.716522
v 111.001823 178.802902 118.041229
v 110.753586 188.009079 111.946999
v 104.015030 199.048370 119.722893
v 90.770752 192.457077 118.994080
v 88.556007 186.294434 118.990318
v 104.014915 187.226898 111.505508
v 95.811493 191.622070 120.477898
v 100.122200 197.699097 112.468094
v 87.421349 181.335037 118.702766
v 93.596443 199.079453 117.457153
v 88.397621 182.934723 116.530090
v 101.963928 177.433136 112.713890
v 90.773628 192.496094 118.992897
v 86.788010 177.108398 119.336723
v 93.831490 197.730347 120.095619
v 101.963928 183.125046 111.503441
v 104.014954 193.672989 120.500000
v 90.833099 192.699585 118.992401
v 104.015053 191.622101 111.512375
v 106.051468 178.828278 111.941582
v 89.664757 176.048523 116.269218
v 101.974777 202.987808 113.434303
v 91.363113 183.235123 113.579163
v 106.090607 204.017593 111.104050
v 94.486343 195.491959 115.031448
v 112.625679 189.588242 117.668846
v 106.047432 201.630981 111.063187
v 111.702545 185.203339 116.258347
v 91.704308 177.131332 119.687210
v 109.716789 185.210022 120.036194
v 92.872276 195.652832 119.697151
v 111.414017 197.496841 114.135498
v 110.163231 176.237457 117.242836
v 109.613144 183.246704 119.971481
v 101.963974 176.272919 118.694153
v 93.759804 176.272400 118.694397
v 104.325333 203.476364 111.973701
v 112.737183 197.891403 119.876480
v 92.451767 193.594116 119.703819
v 106.065697 187.226944 120.485176
v 95.228546 189.782181 113.326729
v 109.315918 178.750061 119.888863
v 104.013992 176.320511 114.566925
v 90.795586 192.536819 118.994087
v 104.015244 200.128128 111.532120
v 106.064819 189.571075 111.540787
v 108.115417 203.999115 111.113258
v 99.913025 178.757446 120.300949
v 99.913033 191.622040 120.499992
v 95.740463 193.631577 113.898727
v 104.014977 189.571030 111.512878
v 93.908142 191.675934 114.407036
v 106.065971 202.787659 114.520126
v 86.722862 178.559952 116.590858
v 97.861977 175.879929 116.213135
v 106.063408 175.899887 116.217537
v 104.015022 195.723145 120.473984
v 92.668198 191.114761 115.177681
v 93.021599 197.620087 117.348129
v 106.065552 197.775375 111.498619
v 101.953125 201.711075 116.226463
v 108.106445 195.723984 111.631058
v 90.938210 180.963531 113.339996
v 88.064110 180.750519 119.878204
v 86.998726 179.979294 117.083923
v 97.862038 180.781479 120.481018
v 101.964020 175.854614 117.050186
v 108.108757 187.227539 120.387108
v 90.876900 189.117599 119.560402
v 110.780701 188.940674 111.949554
v 91.705391 176.265213 118.697456
v 95.864723 197.698059 114.711952
v 112.599503 191.923630 117.418823
v 95.957954 195.668549 114.207169
v 111.391197 200.755936 114.324539
v 92.627228 184.273254 113.084663
v 104.017937 197.776749 111.571503
v 108.091789 180.782013 120.306931
v 111.390022 200.622635 114.333305
v 89.674744 180.783676 120.316338
v 111.842743 187.259323 118.993668
v 104.015877 177.134781 119.681290
v 106.064919 176.269302 118.696999
v 87.324486 179.271439 115.832817
v 99.913033 183.125031 120.500023
v 101.965775 189.571152 111.556282
v 104.014954 189.571014 120.500008
v 110.232430 201.517822 116.160500
v 99.913033 197.733139 120.255356
v 89.651711 177.116013 119.712616
v 106.076164 177.129868 119.691780
v 93.621170 195.726837 115.780540
v 97.119087 194.071701 113.249268
v 93.760025 183.124985 120.500008
v 92.366714 182.977905 112.971077
v 112.014076 191.495422 119.412338
v 111.067146 202.837891 111.450096
v 111.895576 189.495956 119.252243
v 114.011208 199.754349 118.296349
v 99.936394 195.713486 112.232147
v 89.282578 185.298706 116.085548
v 93.050529 185.841049 113.312141
v 106.064445 178.758026 120.290489
v 89.191826 183.976151 115.600815
v 111.251640 187.456772 114.262154
v 108.116272 201.009262 117.505508
v 91.709427 175.866272 117.051003
v 101.964035 175.879929 116.213135
v 111.132622 189.374557 114.252319
v 89.579529 177.082901 114.358833
v 99.913017 175.854599 117.050148
v 97.957527 191.650040 112.464104
v 94.926186 200.831558 116.295532
v 112.078552 187.119888 116.362053
v 97.866554 178.819809 111.908218
v 110.105019 203.981659 112.071281
v 93.759720 175.893448 116.215874
v 89.647400 178.861206 113.704498
v 90.431793 189.222473 118.863205
v 99.948364 189.567886 111.770134
v 108.116211 191.621964 120.469200
v 110.108429 202.299835 111.102646
v 111.232559 180.919434 116.539192
v 91.625984 185.112747 113.942108
v 93.794350 198.946213 119.697868
v 110.755981 185.893875 111.931686
v 99.913010 176.272919 118.694138
v 89.034836 184.790649 119.710312
v 101.963913 200.161240 118.744881
v 100.878906 202.889313 113.199661
v 104.014931 180.781494 120.481010
v 112.131859 197.656082 115.588959
v 94.941338 200.874863 116.303246
v 106.065109 185.175919 111.536217
v 110.814445 195.364075 111.913986
v 101.973770 193.672638 111.644119
v 95.810806 189.571274 120.498817
v 104.014969 197.733185 120.255363
v 99.914017 200.150284 118.737534
v 110.770096 186.937012 111.941750
v 100.045647 202.000717 114.158737
v 111.970413 204.279663 111.200851
v 89.661751 175.903946 117.058807
v 112.878151 195.825958 117.290276
v 112.777824 204.643005 110.933746
v 111.216583 183.223984 118.302902
v 110.166710 197.738815 120.270622
v 112.187233 195.731125 115.702621
v 110.764984 183.444611 111.932678
v 93.699722 178.803726 112.329552
v 97.862022 199.039749 119.712303
v 92.266922 193.524811 116.616478
v 110.822067 198.069611 111.869873
v 110.151054 204.008209 111.167419
v 105.061394 202.703186 111.060150
v 91.296684 189.752396 115.908432
v 111.639381 193.824295 120.020439
v 104.014992 185.175858 111.503601
v 97.880630 185.169159 111.748680
v 108.117783 204.174957 111.324844
v 99.913017 189.570984 120.499969
v 93.921196 177.503387 112.904373
v 113.975342 199.685242 118.325195
v 109.355537 180.796341 119.963089
v 106.102081 204.050232 112.108940
v 108.098785 183.125458 120.334778
v 112.538788 198.935898 119.628540
v 97.687683 197.766464 113.714951
v 100.357361 200.030762 112.682533
v 112.045807 191.545715 116.067001
v 96.185448 189.418167 112.836006
v 106.057716 200.098969 111.304825
v 91.681625 191.711533 116.292145
v 111.055351 190.044296 119.921906
v 87.059334 180.442154 118.943512
v 97.862061 195.723206 120.473999
v 101.963943 193.672867 120.500008
v 86.058716 176.308640 118.520386
v 111.163284 178.899124 116.983948
v 101.964035 199.048325 119.722878
v 90.592186 186.540024 115.223404
v 106.067116 202.553284 110.900330
v 111.864883 199.868790 118.707191
v 93.818756 195.721054 120.210175
v 112.638931 196.513321 119.858368
v 106.064644 180.781982 120.453407
v 110.229401 178.762024 119.260941
v 101.963982 178.815735 111.889427
v 113.084732 197.891724 117.054657
v 91.748886 176.515305 114.642914
v 106.065849 201.020386 117.510803
v 91.750999 187.221161 120.239258
v 104.015015 185.175858 120.499985
v 93.273514 199.001114 118.743233
v 97.864464 183.126175 111.618980
v 97.921303 189.441132 112.216637
v 110.226051 180.702896 119.392693
v 111.877869 199.024796 119.744911
v 89.884102 187.113312 116.386787
v 93.595268 187.399384 113.519714
v 101.964020 176.313583 114.564278
v 96.993095 200.829941 115.511749
v 94.732941 196.854675 115.164139
v 106.065926 201.752731 116.262695
v 97.862053 183.125015 120.499985
v 95.665161 191.714157 113.529335
v 99.913010 187.226898 120.500008
v 91.820427 189.516098 120.082008
v 101.963966 185.175903 120.499992
v 95.953270 187.134567 112.469170
v 101.968834 191.622192 111.591568
v 106.065926 193.672867 120.500000
v 99.913025 199.048187 119.722618
v 106.065063 193.672882 111.536057
v 99.912895 183.125458 111.522064
v 87.940598 176.032944 117.082642
v 87.186668 177.715729 115.338287
v 108.117645 202.748138 114.495522
v 110.807198 176.896545 117.218803
v 95.810951 175.880341 116.213203
v 102.484619 202.845840 112.695480
v 108.134560 200.093994 111.328697
v 110.077759 203.148010 113.346512
v 95.005920 200.881042 116.296631
v 111.807510 185.258408 118.308693
v 106.064911 191.622070 111.539925
v 106.064804 183.125076 111.544609
v 106.061653 180.786026 111.616241
v 97.862061 178.757523 120.300941
v 97.862022 175.854599 117.050148
v 112.731316 204.625473 110.972961
v 99.913033 180.781525 120.481018
v 95.794037 199.005997 119.690804
v 95.811028 180.781509 120.481026
v 91.710464 183.125153 120.457291
v 97.862053 185.175949 120.500015
v 91.975800 191.491409 119.822960
v 97.862030 191.622055 120.499985
v 97.861992 197.733032 120.255211
v 92.089333 177.478485 113.300697
v 112.590462 189.614609 118.084068
v 113.159286 200.385345 117.088951
v 95.811867 193.673035 120.472694
v 108.115936 189.570221 120.440048
v 104.157570 202.165726 111.461739
v 92.745003 197.669601 119.018089
v 99.185905 200.318527 113.505295
v 110.757126 192.484589 111.937866
v 89.657486 176.250961 118.707817
v 88.703613 184.871338 116.999771
v 111.983734 195.732224 120.209541
v 88.221489 177.190720 114.965042
v 108.119034 200.150787 118.736282
v 111.613625 198.561157 114.732811
v 112.013283 189.524216 116.285980
v 111.339127 191.757706 119.946381
v 92.998749 197.587692 119.697182
v 110.201706 200.170517 118.721649
v 106.064865 187.226913 111.540710
v 110.814285 178.740479 115.764725
v 93.747917 189.516739 114.035461
v 102.039169 201.996384 112.315979
v 110.830719 197.194641 111.885521
v 106.065666 185.175934 120.482826
v 91.708084 185.180420 120.397827
v 108.102585 183.125931 111.671249
v 88.651260 182.872101 119.654915
v 112.733681 193.755783 117.300957
v 95.812355 176.327652 114.569633
v 111.060631 182.918030 114.330246
v 90.989037 191.073746 117.153824
v 93.343796 194.092697 115.512375
v 88.587410 186.378616 118.988411
v 94.057396 199.516495 118.569633
v 108.121544 199.054443 119.731941
v 111.038101 180.986588 118.164040
v 110.154633 193.674103 120.362167
v 93.760025 178.757462 120.300941
v 108.116768 193.672943 120.481186
v 101.986053 195.722076 111.745438
v 91.788208 178.790085 112.790222
v 110.800362 180.933182 114.285133
v 89.857117 183.026169 114.643860
v 91.704132 175.917984 116.219872
v 93.389175 198.819977 119.635742
v 110.784096 176.177750 117.651985
v 94.924721 198.185989 115.383675
v 93.891571 197.625443 116.151611
v 108.104057 187.226593 111.654266
v 98.820366 198.458267 113.176880
v 108.097481 177.104095 119.727928
v 101.963966 191.622025 120.500000
v 104.917236 204.208313 111.215927
v 99.917839 201.494080 116.148766
v 99.913033 193.672958 120.500000
v 112.252007 193.533768 119.563759
v 99.983902 191.624390 111.875061
v 104.014923 176.273163 118.694031
v 85.953835 176.347137 118.658997
v 106.054848 176.368790 114.584015
v 86.639877 176.730255 116.964035
v 104.014961 187.226913 120.500000
v 98.119186 193.525055 112.690826
v 110.166611 195.720993 120.414024
v 91.862572 187.204193 114.419350
v 97.924469 201.136841 116.122383
v 93.759720 177.135483 119.680153
v 100.756302 202.856842 113.341164
v 112.533226 195.416458 119.698273
v 101.964264 187.227188 111.530556
v 106.065956 191.622040 120.500046
v 101.963936 177.135864 119.679504
v 101.963936 180.781494 120.481010
v 99.914970 200.956146 117.479431
v 89.961342 187.012680 119.695984
v 104.015053 191.622086 120.500015
v 101.963936 183.125031 120.500000
v 100.667557 202.030243 113.040382
v 101.963928 187.226944 120.499977
v 110.810974 196.365021 111.901855
v 104.014923 183.125031 111.508156
v 93.904465 183.063080 112.375854
v 101.963921 197.733109 120.255348
v 98.716461 197.215073 112.967606
v 94.829842 200.945084 116.301811
v 93.808952 185.048920 112.786751
v 95.844009 178.829636 112.011276
v 87.983261 178.746048 120.064583
v 99.913002 175.879913 116.213158
v 89.792549 185.101730 120.053558
v 93.760765 187.227417 120.465881
v 111.456161 204.005981 111.404091
v 111.453728 183.156631 116.395576
v 110.841866 176.943909 117.964943
v 112.787148 200.706863 116.522346
v 106.065918 197.733078 120.255348
v 106.066154 200.161530 118.745155
v 110.749474 191.634079 111.943436
v 101.963486 201.015900 117.507851
v 104.014946 175.880737 116.213303
v 110.692955 183.065536 111.926460
v 99.913559 185.176468 111.563805
v 108.087280 176.285278 118.691017
v 95.811050 183.125000 120.500008
v 95.810997 178.757523 120.300949
v 88.499626 180.617722 115.096008
v 90.459450 178.468079 113.279175
v 108.044075 201.554489 111.036491
v 108.221397 202.483887 110.938942
v 108.117126 195.722870 120.471809
v 104.014687 180.784195 111.567276
v 93.914398 193.476486 114.942497
v 87.928665 176.322357 118.677711
v 97.793701 200.818848 117.417900
v 97.374504 195.929367 113.455307
v 104.014778 201.744644 116.257843
v 110.181122 199.061203 119.745682
v 112.778893 193.943756 118.646492
v 111.265968 185.182007 114.422516
v 95.841110 180.782303 111.790459
v 111.225853 191.520096 114.147026
v 104.015625 195.724274 111.546303
v 94.772957 188.215973 113.180328
v 97.871971 200.099808 118.710060
v 93.760040 180.781464 120.481041
v 110.726662 183.099609 111.926689
v 100.048172 193.640396 112.011551
v 108.101532 189.570724 111.662910
v 111.885132 197.744110 120.174202
v 93.803947 193.672119 120.248283
v 97.864952 180.785736 111.612366
v 110.731361 184.019791 111.926048
v 108.111526 197.774796 111.567871
v 89.677025 180.726028 114.110641
v 95.783707 185.132141 112.164116
v 113.930069 199.746918 117.970543
v 106.065674 204.186935 111.304344
v 106.042236 177.468521 112.743942
v 108.104553 185.176300 120.362877
v 99.913040 185.175949 120.500015
v 102.033951 200.162979 112.008362
v 95.810959 175.854645 117.050156
v 104.016914 202.726105 114.483070
v 87.634903 180.872513 116.374901
v 104.015076 175.854355 117.050171
v 95.810989 176.272964 118.694176
v 96.651772 191.089844 112.920906
v 110.781593 194.394592 111.921730
v 104.015053 193.673141 111.521767
v 108.117645 197.734207 120.259819
v 97.862030 177.135818 119.679451
v 112.583771 191.853119 118.411598
v 110.983406 180.166855 115.354294
v 87.236816 177.288635 115.403625
v 110.967377 188.697495 119.846336
v 108.104340 185.175919 111.653137
v 112.972641 200.528229 116.696999
v 108.117142 201.711395 116.239716
v 112.096382 193.664886 115.786346
v 95.878090 183.083374 111.889442
v 99.912933 177.432968 112.713730
v 91.709282 180.782120 120.465599
v 101.963989 178.757446 120.300949
v 99.913017 177.135864 119.679504
v 106.066246 199.048706 119.723503
v 108.013680 176.590530 114.636108
v 112.621078 187.247955 117.621849
v 104.919724 204.224030 111.211990
v 108.137337 175.928970 117.029190
v 93.759598 185.176376 120.497604
v 88.112457 178.566727 114.764603
v 101.963997 195.723221 120.474007
v 106.065300 183.125000 120.475700
v 95.810989 185.175919 120.500015
v 97.862038 187.226929 120.500008
v 92.150513 189.402161 114.965538
v 98.497108 201.179794 114.923782
v 89.661514 178.760574 120.273979
v 96.374687 199.905365 115.147247
v 101.963936 189.571060 120.500008
v 110.211372 178.633820 114.385574
v 110.129021 200.872910 117.430771
v 106.065178 195.724030 111.534775
v 108.115364 203.383179 113.532860
v 110.130066 176.866867 116.144310
v 110.139191 191.625046 120.290703
v 94.385468 186.786118 112.976135
v 93.782158 191.620697 120.321777
v 101.963928 180.783905 111.562019
v 110.199005 204.142929 111.308556
v 91.708435 178.756882 120.304955
v 90.915947 188.079605 115.582069
v 86.077232 176.646622 118.729141
v 109.441895 177.329681 114.384926
v 110.055511 187.243103 120.072037
v 108.103012 191.622269 111.653290
v 102.028557 197.768219 111.851898
v 106.065964 195.723236 120.473991
v 110.997330 202.240784 112.037956
v 114.351036 199.252625 118.534401
v 110.016594 176.957047 119.010803
v 95.855141 199.918457 118.655388
v 95.811050 187.226913 120.499992
v 99.913010 176.313583 114.564255
v 97.862076 177.435837 112.717155
v 99.916267 187.231110 111.642456
v 106.066559 175.861664 117.049789
v 111.412575 200.700851 114.352058
v 110.885300 198.326630 111.883194
v 86.614525 176.362854 117.380272
v 107.962357 177.611145 112.851379
v 93.759911 175.854889 117.050194
v 86.601387 178.568161 118.798721
# 525 vertices, 0 vertices normals

f 295 188 16
f 387 141 264
f 91 118 298
f 280 38 403
f 447 267 231
f 265 374 336
f 205 296 397
f 28 57 400
f 287 414 231
f 335 294 445
f 208 461 352
f 413 438 221
f 118 440 298
f 373 126 525
f 240 61 396
f 283 123 91
f 455 125 276
f 62 53 479
f 105 481 48
f 183 180 401
f 455 19 13
f 299 338 206
f 157 308 452
f 474 307 437
f 18 59 263
f 180 412 273
f 497 478 33
f 41 496 237
f 469 314 1
f 69 419 182
f 29 169 194
f 26 207 460
f 232 119 502
f 281 391 265
f 46 56 167
f 159 388 11
f 133 17 428
f 486 403 515
f 117 132 244
f 384 475 154
f 78 206 331
f 235 171 512
f 52 193 498
f 137 456 81
f 26 320 460
f 234 9 341
f 3 177 212
f 427 146 165
f 276 470 178
f 155 163 415
f 248 311 8
f 372 33 478
f 14 191 271
f 435 113 333
f 126 156 456
f 71 151 147
f 67 12 153
f 369 375 184
f 125 496 290
f 373 2 466
f 14 271 504
f 369 283 439
f 521 420 294
f 99 421 254
f 257 110 235
f 41 232 188
f 324 182 483
f 419 312 353
f 14 228 343
f 163 363 415
f 291 406 251
f 224 164 31
f 423 300 393
f 285 252 395
f 307 402 337
f 353 46 135
f 69 182 262
f 84 72 260
f 456 47 81
f 299 23 338
f 109 237 13
f 105 291 497
f 26 207 134
f 330 325 494
f 187 473 43
f 28 505 525
f 499 447 282
f 92 523 63
f 204 469 326
f 14 76 191
f 473 516 273
f 142 320 51
f 373 522 2
f 433 471 24
f 106 451 102
f 203 258 175
f 474 30 307
f 489 213 366
f 278 375 122
f 482 486 416
f 187 43 443
f 466 483 289
f 191 45 271
f 306 416 138
f 436 211 285
f 417 301 463
f 106 238 451
f 435 243 113
f 26 433 24
f 70 274 491
f 249 484 89
f 142 433 410
f 297 153 53
f 282 68 268
f 188 404 16
f 463 476 199
f 222 36 399
f 210 408 510
f 213 202 380
f 135 355 446
f 219 429 441
f 131 360 82
f 226 169 64
f 388 89 383
f 266 197 357
f 357 197 87
f 479 53 98
f 36 517 399
f 450 478 523
f 22 230 382
f 282 435 272
f 390 293 202
f 56 399 432
f 331 468 361
f 80 352 509
f 201 18 75
f 197 305 21
f 327 145 242
f 28 525 57
f 20 203 175
f 3 212 361
f 31 360 131
f 7 43 260
f 149 495 132
f 274 489 378
f 216 42 261
f 77 47 83
f 164 97 275
f 394 432 472
f 365 96 449
f 142 508 440
f 399 517 187
f 495 55 134
f 353 312 222
f 454 458 5
f 518 22 382
f 464 430 340
f 262 189 9
f 4 176 355
f 383 284 193
f 507 316 52
f 58 67 218
f 414 68 231
f 185 397 205
f 113 459 278
f 158 123 283
f 152 136 339
f 326 469 147
f 427 165 61
f 385 389 203
f 76 116 85
f 362 241 319
f 5 463 199
f 223 305 514
f 212 142 74
f 42 257 235
f 515 38 209
f 126 483 156
f 153 170 53
f 288 425 321
f 7 443 43
f 136 400 57
f 20 175 163
f 510 408 422
f 353 222 56
f 269 348 73
f 369 439 375
f 518 268 68
f 435 333 272
f 26 24 207
f 213 17 133
f 191 141 45
f 452 487 279
f 113 278 333
f 203 34 258
f 30 152 339
f 112 11 140
f 192 369 184
f 472 267 447
f 196 398 174
f 114 269 259
f 494 325 178
f 276 125 470
f 494 160 469
f 194 226 119
f 314 171 448
f 304 138 277
f 66 114 259
f 450 372 478
f 457 128 412
f 240 80 362
f 126 137 247
f 111 27 103
f 454 127 292
f 391 492 374
f 141 280 264
f 511 16 404
f 442 256 315
f 259 269 73
f 387 77 45
f 72 372 450
f 42 235 261
f 106 102 67
f 397 491 274
f 359 491 397
f 266 82 346
f 474 152 30
f 376 462 219
f 288 93 2
f 196 174 377
f 376 323 229
f 113 243 459
f 120 138 304
f 413 221 438
f 7 501 287
f 54 358 406
f 485 336 238
f 109 13 19
f 44 92 423
f 221 444 438
f 490 400 136
f 240 396 80
f 436 426 386
f 213 380 94
f 473 84 43
f 519 155 415
f 293 19 94
f 394 472 447
f 328 229 368
f 18 263 409
f 192 382 158
f 194 421 420
f 167 56 394
f 400 162 25
f 250 86 425
f 121 367 364
f 298 440 508
f 382 78 158
f 48 513 358
f 100 297 186
f 497 33 481
f 181 10 433
f 122 424 124
f 125 13 496
f 404 214 303
f 521 71 225
f 73 348 195
f 107 384 370
f 314 448 171
f 223 514 436
f 395 210 129
f 44 450 92
f 353 135 190
f 221 3 444
f 212 74 142
f 398 499 272
f 319 390 213
f 318 357 329
f 120 301 138
f 58 218 348
f 354 405 342
f 507 140 316
f 437 166 306
f 335 225 521
f 492 159 374
f 448 171 235
f 48 481 415
f 135 446 190
f 79 315 310
f 196 148 398
f 469 261 314
f 37 413 23
f 353 56 46
f 179 189 356
f 397 274 296
f 256 49 315
f 365 227 254
f 430 42 216
f 419 353 190
f 64 32 214
f 207 392 460
f 66 363 65
f 1 407 314
f 72 115 372
f 447 231 282
f 393 299 230
f 232 449 96
f 236 150 238
f 409 263 178
f 317 365 109
f 414 518 68
f 309 500 38
f 315 49 40
f 352 461 434
f 121 310 40
f 76 85 309
f 300 23 299
f 454 5 302
f 77 345 45
f 461 286 434
f 9 292 341
f 344 97 164
f 519 33 128
f 104 204 326
f 232 96 119
f 441 110 257
f 410 433 26
f 122 375 165
f 457 155 519
f 69 312 419
f 29 71 511
f 122 165 146
f 72 450 44
f 446 418 483
f 477 347 462
f 524 454 292
f 170 313 53
f 212 177 142
f 513 259 406
f 173 45 322
f 431 100 186
f 409 178 325
f 66 65 114
f 328 368 168
f 446 483 190
f 145 464 340
f 118 361 440
f 459 268 184
f 356 262 182
f 376 219 323
f 52 498 246
f 213 133 366
f 139 107 370
f 398 447 499
f 356 93 215
f 490 162 400
f 374 112 336
f 240 70 491
f 332 251 195
f 75 477 408
f 3 198 212
f 288 321 215
f 48 66 513
f 127 401 39
f 211 201 252
f 67 153 297
f 463 301 476
f 8 484 249
f 317 244 99
f 241 334 390
f 29 194 420
f 126 456 137
f 3 431 177
f 295 290 496
f 336 451 238
f 279 391 281
f 28 400 25
f 269 58 348
f 206 468 331
f 93 182 324
f 331 361 118
f 383 193 316
f 234 341 36
f 219 462 347
f 207 15 335
f 507 12 67
f 64 217 32
f 323 441 257
f 317 227 365
f 173 271 45
f 142 51 410
f 524 292 189
f 434 286 495
f 323 257 42
f 423 92 300
f 233 50 310
f 105 497 481
f 327 98 145
f 387 337 402
f 309 111 500
f 200 30 339
f 104 326 147
f 7 287 267
f 12 467 153
f 489 319 213
f 264 403 482
f 323 42 381
f 494 470 160
f 418 156 483
f 300 63 23
f 22 393 230
f 297 53 62
f 278 184 375
f 255 314 448
f 196 377 253
f 197 346 305
f 494 178 470
f 221 431 3
f 129 210 510
f 142 74 51
f 501 423 88
f 409 325 347
f 437 306 417
f 87 197 21
f 221 3 468
f 344 424 97
f 386 366 411
f 373 525 505
f 373 466 126
f 114 65 150
f 228 245 343
f 446 355 418
f 111 103 442
f 175 258 65
f 455 13 125
f 498 351 349
f 183 107 139
f 352 434 509
f 131 266 318
f 110 239 448
f 330 469 255
f 373 505 371
f 309 85 111
f 241 453 334
f 243 268 459
f 135 167 95
f 220 261 204
f 41 449 232
f 522 288 2
f 319 241 390
f 303 32 217
f 77 322 45
f 264 280 403
f 206 338 468
f 466 289 126
f 335 392 225
f 105 54 291
f 110 448 235
f 14 343 76
f 233 121 492
f 507 52 467
f 147 1 520
f 384 154 370
f 390 334 293
f 302 199 183
f 221 468 338
f 457 519 128
f 364 249 388
f 24 471 220
f 212 198 74
f 360 144 359
f 503 490 152
f 385 203 20
f 142 51 74
f 304 385 475
f 120 475 384
f 349 351 422
f 427 61 240
f 158 78 123
f 154 20 163
f 410 26 320
f 28 25 86
f 399 187 432
f 307 30 402
f 160 290 60
f 504 488 228
f 498 349 328
f 360 275 144
f 4 173 176
f 3 361 468
f 360 359 185
f 143 321 162
f 342 100 431
f 297 479 186
f 341 127 39
f 157 452 389
f 213 390 202
f 488 333 130
f 250 522 373
f 249 89 388
f 186 98 327
f 160 1 469
f 207 445 134
f 506 523 478
f 233 310 121
f 416 486 277
f 226 502 119
f 453 149 117
f 410 55 508
f 475 385 20
f 82 360 185
f 142 181 433
f 369 158 283
f 297 62 479
f 116 224 27
f 236 58 269
f 211 386 411
f 311 21 305
f 503 379 101
f 240 362 70
f 483 182 190
f 209 500 79
f 179 524 189
f 108 379 458
f 250 371 505
f 393 300 299
f 166 482 416
f 314 235 448
f 123 118 91
f 143 101 108
f 349 422 376
f 391 374 265
f 116 27 111
f 204 261 469
f 202 94 380
f 349 376 229
f 490 101 162
f 192 158 369
f 334 317 293
f 329 87 256
f 519 481 33
f 189 292 9
f 436 514 426
f 428 276 263
f 292 127 341
f 126 289 483
f 114 236 269
f 179 215 143
f 408 477 462
f 8 161 484
f 223 285 161
f 179 143 108
f 524 458 454
f 111 442 500
f 11 383 316
f 102 507 67
f 498 193 351
f 266 346 197
f 287 88 414
f 154 163 155
f 223 436 285
f 387 402 200
f 503 152 474
f 311 161 8
f 185 397 346
f 209 50 487
f 89 284 383
f 433 242 471
f 490 136 152
f 15 220 204
f 354 195 405
f 183 139 180
f 413 221 338
f 475 20 154
f 179 108 524
f 84 115 72
f 245 224 116
f 410 320 26
f 426 514 397
f 168 464 313
f 101 379 108
f 270 239 110
f 406 73 251
f 434 495 149
f 6 37 63
f 367 8 249
f 378 366 386
f 43 84 260
f 346 397 514
f 230 206 78
f 17 19 455
f 335 104 151
f 472 443 267
f 28 86 505
f 3 198 444
f 52 170 467
f 52 316 193
f 248 40 49
f 10 242 433
f 330 255 270
f 221 444 3
f 279 50 233
f 509 434 149
f 499 282 272
f 194 169 226
f 144 491 359
f 259 73 406
f 98 313 145
f 250 505 86
f 258 485 150
f 220 216 261
f 348 218 405
f 377 333 488
f 199 476 107
f 120 304 475
f 3 444 198
f 177 431 186
f 79 310 50
f 368 381 430
f 278 124 333
f 350 417 35
f 521 151 71
f 242 145 471
f 442 79 500
f 416 277 138
f 77 83 322
f 436 386 211
f 410 51 320
f 401 180 516
f 522 425 288
f 270 255 239
f 441 270 110
f 287 501 88
f 312 262 9
f 69 262 312
f 219 441 323
f 513 406 358
f 452 279 281
f 26 134 55
f 244 294 99
f 519 415 481
f 121 40 367
f 245 124 424
f 236 106 58
f 146 144 275
f 219 347 429
f 282 231 68
f 141 76 309
f 226 64 214
f 337 482 166
f 27 318 329
f 95 167 148
f 213 94 17
f 515 487 308
f 139 412 180
f 429 330 270
f 492 364 159
f 4 253 173
f 27 329 103
f 241 509 453
f 442 315 79
f 87 21 49
f 161 395 484
f 521 225 71
f 229 323 381
f 91 298 461
f 125 290 470
f 35 417 463
f 321 25 162
f 414 88 22
f 287 231 267
f 248 21 311
f 26 460 320
f 80 509 241
f 252 75 210
f 450 523 92
f 279 233 391
f 153 467 170
f 186 479 98
f 368 430 464
f 376 422 462
f 13 237 496
f 130 333 124
f 185 205 397
f 70 489 274
f 170 246 168
f 192 184 268
f 207 335 392
f 31 164 360
f 503 350 379
f 34 485 258
f 495 134 132
f 221 342 431
f 224 344 164
f 250 373 371
f 85 116 90
f 143 162 101
f 26 460 207
f 525 247 57
f 201 59 18
f 426 378 386
f 194 119 421
f 498 328 246
f 377 488 504
f 255 469 314
f 365 449 480
f 260 44 501
f 394 447 398
f 170 168 313
f 41 237 449
f 255 448 239
f 97 424 122
f 296 274 378
f 200 402 30
f 230 299 206
f 489 366 378
f 132 134 445
f 157 277 308
f 476 384 107
f 280 309 38
f 212 440 361
f 75 18 477
f 117 244 317
f 78 331 123
f 517 39 516
f 179 356 215
f 7 267 443
f 282 268 243
f 318 266 357
f 88 393 22
f 493 332 465
f 177 186 327
f 414 22 518
f 503 474 350
f 370 154 155
f 284 351 193
f 413 354 221
f 84 273 115
f 311 305 223
f 128 33 372
f 413 338 23
f 480 449 237
f 304 157 385
f 103 329 256
f 76 343 245
f 167 398 148
f 175 65 363
f 452 308 487
f 245 116 85
f 41 188 295
f 306 138 301
f 37 354 413
f 250 425 522
f 282 243 435
f 220 340 216
f 312 9 234
f 166 416 306
f 81 47 339
f 515 403 38
f 60 520 1
f 317 254 227
f 173 253 271
f 454 302 127
f 258 150 65
f 346 514 305
f 389 281 34
f 263 276 178
f 99 294 420
f 307 337 166
f 27 31 318
f 95 148 196
f 317 99 254
f 188 502 404
f 60 295 16
f 173 322 83
f 469 1 314
f 160 60 1
f 76 245 85
f 240 144 146
f 160 470 290
f 232 502 188
f 432 443 472
f 273 412 115
f 163 175 363
f 224 424 344
f 493 465 354
f 429 347 325
f 503 101 490
f 335 151 521
f 302 5 199
f 211 411 201
f 410 26 55
f 486 308 277
f 364 388 159
f 501 44 423
f 256 87 49
f 506 493 37
f 374 159 112
f 167 394 398
f 120 476 301
f 64 404 217
f 120 384 476
f 365 254 96
f 106 67 58
f 222 399 56
f 18 409 477
f 208 91 461
f 355 83 418
f 427 240 146
f 24 220 15
f 95 196 355
f 67 297 218
f 66 259 513
f 387 264 337
f 172 80 61
f 484 395 129
f 471 145 340
f 283 91 208
f 131 82 266
f 329 357 87
f 11 316 140
f 244 445 294
f 312 234 222
f 109 365 480
f 48 363 66
f 247 81 136
f 59 428 263
f 17 455 428
f 214 32 303
f 389 34 203
f 89 129 284
f 207 335 445
f 151 520 147
f 105 358 54
f 157 389 385
f 77 200 47
f 181 327 10
f 31 131 318
f 246 328 168
f 260 72 44
f 177 327 181
f 497 291 251
f 286 508 55
f 377 272 333
f 285 211 252
f 209 38 500
f 159 11 112
f 142 177 181
f 518 192 268
f 185 359 397
f 293 109 19
f 332 195 465
f 452 281 389
f 278 122 124
f 335 15 104
f 115 128 372
f 382 230 78
f 142 410 320
f 245 130 124
f 271 377 504
f 4 355 196
f 4 196 253
f 456 418 83
f 41 295 496
f 408 462 422
f 96 421 119
f 278 459 184
f 234 36 222
f 76 85 90
f 53 313 98
f 521 29 420
f 247 136 57
f 466 324 483
f 70 362 319
f 82 185 346
f 521 71 29
f 484 129 89
f 517 516 473
f 143 215 321
f 288 215 93
f 466 2 324
f 34 265 485
f 302 183 401
f 411 133 59
f 210 75 408
f 524 108 458
f 121 364 492
f 248 49 21
f 366 133 411
f 48 415 363
f 430 381 42
f 248 8 367
f 70 319 489
f 60 290 295
f 60 16 520
f 200 339 47
f 52 246 170
f 183 199 107
f 349 229 328
f 221 438 444
f 205 397 296
f 102 451 140
f 404 303 217
f 6 63 523
f 398 272 174
f 497 506 478
f 502 214 404
f 330 494 469
f 37 493 354
f 240 491 144
f 103 256 442
f 201 411 59
f 172 352 80
f 254 421 96
f 302 401 127
f 85 116 111
f 281 265 34
f 461 298 286
f 245 424 224
f 293 317 109
f 224 31 27
f 388 383 11
f 265 336 485
f 2 93 324
f 92 63 300
f 412 128 115
f 221 354 342
f 135 46 167
f 35 463 5
f 298 508 286
f 109 480 237
f 474 437 350
f 54 406 291
f 417 306 301
f 112 140 451
f 356 182 93
f 428 455 276
f 139 457 412
f 379 350 35
f 168 368 464
f 497 251 332
f 497 493 506
f 453 117 334
f 36 39 517
f 6 506 37
f 516 180 273
f 377 174 272
f 36 341 39
f 482 403 486
f 396 61 80
f 375 61 165
f 7 260 501
f 236 238 106
f 151 147 520
f 284 510 351
f 123 331 118
f 335 521 294
f 6 523 506
f 354 465 195
f 342 405 100
f 485 238 150
f 97 122 146
f 132 445 244
f 202 293 94
f 97 146 275
f 17 94 19
f 88 423 393
f 356 189 262
f 439 208 172
f 405 297 100
f 429 270 441
f 86 25 425
f 517 473 187
f 509 149 453
f 209 79 50
f 387 200 77
f 176 83 355
f 279 487 50
f 405 218 297
f 525 126 247
f 304 277 157
f 337 264 482
f 14 504 228
f 252 201 75
f 511 520 16
f 136 81 339
f 350 437 417
f 432 187 443
f 335 521 225
f 114 150 236
f 340 430 216
f 457 370 155
f 207 460 392
f 307 166 437
f 387 45 141
f 311 223 161
f 147 469 1
f 315 40 310
f 510 422 351
f 511 404 64
f 334 117 317
f 133 428 59
f 448 512 171
f 379 35 458
f 129 510 284
f 247 137 81
f 139 370 457
f 29 511 169
f 39 401 516
f 426 296 378
f 105 48 358
f 335 225 392
f 141 309 280
f 456 83 47
f 458 35 5
f 228 130 245
f 71 147 520
f 191 76 141
f 142 410 508
f 473 273 84
f 286 55 495
f 149 132 117
f 425 25 321
f 172 208 352
f 80 241 362
f 229 381 368
f 10 327 242
f 271 253 377
f 176 173 83
f 99 420 421
f 135 95 355
f 195 348 405
f 486 515 308
f 336 112 451
f 511 64 169
f 367 249 364
f 456 156 418
f 471 340 220
f 226 214 502
f 439 283 208
f 15 204 104
f 104 147 151
f 395 252 210
f 207 392 335
f 507 467 12
f 102 140 507
f 439 61 375
f 77 45 345
f 448 235 512
f 207 24 15
f 76 90 116
f 3 212 198
f 518 382 192
f 161 285 395
f 212 74 198
f 313 464 145
f 497 332 493
f 164 275 360
f 251 73 195
f 37 23 63
f 429 325 330
f 515 209 487
f 261 235 314
f 439 172 61
f 212 142 440
f 426 397 296
f 56 432 394
f 1 314 407
f 71 520 511
f 248 367 40
f 233 492 391
f 477 409 347
f 228 488 130
f 419 190 182
# 1074 faces, 0 coords texture

# End of File