####
#
# OBJ File Generated by Meshlab
#
####
# Object Volume_237.obj
#
# Vertices: 363
# Faces: 728
#
####
v 145.087311 368.301910 145.489151
v 137.037674 376.675934 154.804245
v 133.365005 374.131256 152.942581
v 138.588867 377.085938 149.500168
v 132.031845 376.054199 149.639633
v 143.849716 362.147522 141.558884
v 136.238052 355.676514 140.405716
v 140.632935 374.385956 140.846634
v 134.210800 357.957153 147.574173
v 130.995972 375.539673 143.276016
v 145.047653 372.514740 149.558060
v 141.879501 362.900421 150.933121
v 129.418747 360.084808 140.809296
v 144.167923 376.014069 147.683212
v 141.072113 361.516357 150.595001
v 138.561569 376.913727 154.580414
v 131.044586 370.316132 149.955978
v 136.398453 362.194611 151.173737
v 140.653824 374.526672 155.101364
v 130.950287 360.133453 147.533066
v 138.587433 357.893402 147.610992
v 142.643539 372.440002 154.348953
v 138.582535 360.292084 150.186569
v 134.205170 376.946655 147.496170
v 134.240921 355.540619 140.728043
v 130.524872 374.440369 143.120789
v 141.335724 359.080200 139.962296
v 136.249039 355.533234 140.794785
v 131.621765 359.760925 148.304535
v 134.205368 370.350616 140.648941
v 142.287857 359.076172 148.471313
v 131.155792 365.500916 150.665695
v 140.583359 366.330414 153.291580
v 130.867279 356.804443 141.866653
v 144.148560 374.643188 154.061386
v 138.588867 357.091675 146.030579
v 144.909973 364.212494 145.449417
v 136.409088 374.569397 154.335587
v 133.708359 370.305756 152.735580
v 144.139465 376.284363 154.248642
v 142.615784 372.397827 140.874802
v 130.774353 368.059875 141.827652
v 132.124084 372.343384 141.226273
v 143.599594 375.334259 141.786453
v 142.621765 374.598267 155.005234
v 142.809128 360.700806 140.074051
v 144.923676 368.210114 147.591370
v 138.665848 357.894623 139.913834
v 130.370605 366.094055 141.786682
v 129.641708 364.166046 142.151672
v 144.253815 358.185089 143.038986
v 132.244217 374.349701 141.405823
v 134.249466 374.375153 140.986847
v 143.914810 372.414032 141.571915
v 132.337204 368.282471 151.418915
v 142.616623 370.352325 140.865112
v 138.886215 374.828857 154.996124
v 136.246948 376.592957 143.122955
v 142.723007 370.350677 153.760925
v 142.672104 356.935974 144.885696
v 138.589813 377.097290 151.997437
v 144.193542 362.234314 147.492981
v 142.519653 376.278503 143.142365
v 133.599396 375.688934 152.958389
v 138.588364 362.152771 140.404800
v 132.196701 358.323883 147.538589
v 132.934586 355.989044 140.206436
v 133.468323 372.431274 152.803696
v 134.295059 375.604553 141.619904
v 138.613892 370.400665 154.182983
v 143.873016 366.258728 141.663803
v 140.673767 368.354126 153.750946
v 140.641830 372.371002 154.653259
v 143.887177 367.026550 151.230225
v 131.099152 362.721649 149.169220
v 144.808334 370.362152 143.031143
v 142.719574 355.790985 140.288956
v 129.837219 370.354828 145.494293
v 146.207001 376.798004 154.000000
v 132.241684 357.041870 144.832153
v 132.257950 370.395081 151.484177
v 142.602921 374.378448 141.023468
v 138.588806 372.400757 140.550995
v 132.093002 370.322418 141.143677
v 143.638855 355.764557 140.689438
v 133.422546 375.103394 153.042526
v 136.236847 360.128540 140.227295
v 131.166183 374.379395 142.042328
v 130.826523 368.235382 149.593155
v 138.608246 366.311554 153.347595
v 144.736145 362.104340 145.357697
v 136.245026 364.199158 140.498367
v 145.045532 370.514160 147.365799
v 143.958664 375.506989 143.077301
v 134.561218 375.889404 153.312622
v 132.224716 366.241943 140.907471
v 143.494141 359.396576 147.688324
v 134.199219 356.724854 144.940399
v 142.522232 376.468994 145.471924
v 142.592941 357.383301 145.897858
v 131.969574 356.643707 142.891937
v 132.283249 376.536682 145.516144
v 136.970779 376.713806 154.797928
v 138.460327 364.163849 152.394714
v 140.639343 376.955841 145.515762
v 138.588898 376.603424 143.119644
v 134.505157 370.456177 153.227646
v 138.588425 355.925079 142.828217
v 136.144318 357.731934 139.930328
v 131.359772 357.581299 144.788391
v 138.589752 356.158264 140.093246
v 142.650604 355.898438 140.249176
v 132.320419 376.243256 143.185684
v 140.622971 356.166321 140.091492
v 133.208298 357.847382 140.056000
v 144.528900 360.229248 143.184509
v 138.602066 377.064636 154.181854
v 132.220840 364.318604 150.979828
v 130.542603 360.113892 145.315109
v 144.406525 370.364502 151.968307
v 135.957062 365.854950 152.738678
v 132.281601 376.520935 147.455460
v 134.466568 372.514221 153.440353
v 142.601883 375.590210 141.568817
v 134.197662 366.249847 140.577682
v 138.323975 358.788849 139.980759
v 136.246811 355.941071 142.823166
v 129.898087 364.200012 145.327972
v 138.586456 360.146667 140.183990
v 136.245361 377.010773 145.504150
v 142.588287 356.300507 142.730560
v 129.629990 359.020691 140.795502
v 144.694870 364.230347 143.052826
v 144.895096 370.363251 149.490997
v 143.966858 375.600739 145.419540
v 130.312698 374.387482 147.579803
v 143.921707 365.642303 150.030609
v 143.730927 356.984528 142.646225
v 136.241394 356.154114 140.079346
v 144.130096 375.909454 147.661514
v 143.805893 375.305267 154.704666
v 143.825378 355.374237 139.988678
v 142.783646 358.286407 147.425278
v 144.672302 362.243988 143.260178
v 134.218704 376.533508 143.138123
v 129.473602 360.010864 140.785172
v 144.230453 375.924927 147.697311
v 132.884811 358.985229 148.622864
v 132.151947 368.355469 141.021439
v 132.486206 375.583771 141.913269
v 138.588913 356.651794 144.966324
v 144.628265 368.266968 149.544449
v 136.227386 364.188354 152.055679
v 144.218689 376.557098 154.749710
v 144.757019 366.257233 143.051971
v 129.734207 366.202423 142.953903
v 144.723068 374.421326 149.642227
v 140.642197 364.189087 140.582626
v 130.066971 368.304047 147.223312
v 135.798767 361.455475 150.752747
v 145.012360 366.221130 145.562866
v 140.621536 376.567139 143.125214
v 143.867569 374.328339 141.605438
v 140.628235 370.395905 154.202805
v 132.152206 360.096375 140.446747
v 140.630569 358.032043 139.824127
v 134.229141 359.052582 149.052856
v 138.609772 376.381256 154.920425
v 134.208908 356.055267 142.783051
v 129.826553 366.154999 145.419708
v 144.544571 374.314850 143.034760
v 130.141510 364.076233 141.625717
v 142.631058 368.474213 153.383179
v 130.153824 374.342133 145.520767
v 140.637146 370.351562 140.562897
v 130.370865 360.081573 144.044968
v 142.266663 364.454193 151.442978
v 132.239746 357.483948 145.866180
v 129.625610 364.197632 143.204620
v 134.255188 362.665222 151.022003
v 140.634979 377.007141 149.501999
v 130.877441 364.119476 149.654236
v 130.141418 370.278259 143.152832
v 140.575562 360.302917 149.936615
v 136.565048 366.519897 153.068237
v 144.780701 368.318787 143.034317
v 142.524750 360.266479 149.100967
v 136.245667 357.893463 147.609802
v 136.245148 357.091309 146.030701
v 143.905075 370.310852 141.600586
v 134.216217 372.396942 140.724976
v 143.843155 360.204102 147.498535
v 134.171982 355.601501 140.401413
v 130.833740 358.034180 143.930176
v 138.590042 374.383301 140.840973
v 134.201385 368.300262 140.613998
v 136.252960 374.378998 140.867767
v 134.393066 374.472443 153.549911
v 138.282333 374.103668 154.852203
v 142.984314 366.249664 152.054520
v 134.240448 364.305206 151.662872
v 136.357483 368.411133 153.508118
v 144.288788 366.220612 149.592438
v 136.244904 362.151947 140.424210
v 130.218658 362.112640 145.357422
v 143.405441 367.891205 152.495132
v 130.134872 372.391541 147.570480
v 140.636246 355.677612 140.402374
v 129.475784 360.161896 140.782532
v 144.521164 360.213715 145.369415
v 138.628693 362.189758 151.309052
v 134.248474 360.276031 149.871933
v 142.793808 360.679688 140.114914
v 132.149185 366.386932 151.252258
v 140.557861 362.385284 151.202774
v 129.899658 372.392090 145.499420
v 134.158524 358.916962 140.060532
v 134.193680 362.149384 140.469788
v 138.582397 359.040924 149.122147
v 140.610580 359.105652 149.030243
v 144.110641 358.103027 145.410080
v 130.663742 370.340057 149.187363
v 134.195374 360.145660 140.244370
v 142.673065 376.827881 154.589218
v 142.575699 358.004669 140.115723
v 140.637405 357.128387 146.014587
v 134.195328 364.198975 140.544434
v 136.246140 359.034027 149.114227
v 140.626678 355.575745 140.774994
v 130.801575 375.704590 147.462952
v 143.693726 355.782928 140.696304
v 140.639542 356.691833 144.951340
v 143.823822 355.359558 140.017807
v 142.668365 376.345551 154.890686
v 136.248398 377.010681 149.498322
v 143.448883 364.035370 149.919632
v 132.188660 364.194031 140.803879
v 134.800735 368.568481 153.038269
v 136.245087 366.250061 140.507599
v 130.051880 370.377197 147.278549
v 144.130508 368.526672 151.941528
v 138.588852 366.250031 140.506180
v 131.209473 375.827972 148.816650
v 143.848160 360.070190 141.399811
v 142.664200 376.963257 154.176743
v 142.610321 376.752411 152.026459
v 131.659149 363.585388 150.297806
v 130.275085 364.210571 147.467285
v 130.940857 372.248077 142.008636
v 143.766678 358.519806 146.632416
v 136.305954 358.683838 139.979721
v 136.249451 372.366577 154.058334
v 138.587448 355.533722 140.796844
v 143.860275 364.200165 141.675476
v 140.635941 376.876068 154.607498
v 134.206787 357.968109 139.923080
v 132.519104 374.466492 151.806793
v 140.634003 376.951172 147.501343
v 140.637833 377.090271 151.999374
v 129.813614 362.118347 143.013824
v 136.245300 377.064728 147.499985
v 144.016632 372.720734 153.486832
v 140.639145 376.342377 154.918930
v 140.635696 366.249969 140.578613
v 138.595139 375.632690 141.548996
v 133.011215 375.877045 151.539169
v 134.211914 356.143433 140.091019
v 144.003540 364.472870 149.096573
v 129.505295 362.828125 141.937134
v 138.571167 368.378723 153.787964
v 136.266068 370.367218 153.781845
v 144.537247 364.100433 147.469193
v 142.726440 362.164459 149.702347
v 130.047913 360.153503 142.686905
v 134.233948 366.290375 152.224167
v 144.762207 372.400513 143.008194
v 143.366150 358.145905 140.575195
v 138.596252 372.413818 154.550079
v 132.150696 362.145782 140.647003
v 131.283157 358.776459 146.974701
v 136.294159 360.308899 150.139496
v 130.859009 370.308777 141.951263
v 141.933228 366.658600 152.916306
v 138.589325 355.676086 140.407547
v 130.879105 356.866791 141.486176
v 132.323288 356.210693 140.822205
v 130.501175 358.042145 142.655823
v 130.273605 372.317749 143.089783
v 132.814819 363.119385 150.788376
v 140.646881 362.135986 140.350464
v 130.187088 361.263580 144.130188
v 134.204681 376.920746 145.508636
v 130.052490 368.250824 142.986481
v 145.004913 372.443665 147.522629
v 132.149796 358.108063 140.366409
v 143.584488 369.265320 152.911484
v 134.198410 357.135956 146.011536
v 138.589127 364.198944 140.498215
v 140.648773 375.644440 141.533127
v 131.146072 365.018433 150.607071
v 142.594360 366.251862 140.918015
v 140.636719 372.400330 140.586472
v 142.579102 364.156158 140.928299
v 136.246826 372.399963 140.577499
v 144.205032 375.752075 152.079971
v 142.602203 368.305145 140.899185
v 136.429153 376.415192 154.126358
v 143.787979 370.767883 153.203613
v 132.904770 355.879303 140.264191
v 134.346985 376.399261 151.877136
v 131.370880 374.417145 150.084900
v 129.714111 365.469543 142.248123
v 131.448914 375.505035 142.365662
v 140.636917 368.300964 140.565323
v 140.639740 377.084564 154.154068
v 129.836441 368.302032 145.469116
v 133.985352 368.219391 152.621750
v 138.588699 377.071869 147.500107
v 138.588821 368.300781 140.506516
v 130.598404 362.031921 147.644089
v 134.231506 376.777374 149.475357
v 131.226212 372.399078 150.166122
v 142.571823 376.566223 149.532318
v 140.630524 355.986115 142.808670
v 130.803543 366.354828 149.703674
v 144.784134 366.257874 147.451920
v 138.655319 365.309723 152.982437
v 145.104568 370.359955 145.484543
v 131.096527 358.187439 145.374893
v 144.186539 376.542755 154.757904
v 132.058456 362.092651 149.938705
v 143.847916 357.934204 141.227295
v 144.712631 374.401337 151.921402
v 140.627274 373.586914 154.937500
v 130.781143 375.609802 145.557846
v 143.867844 357.409271 144.546768
v 142.800491 360.595581 140.079071
v 129.436661 360.085083 140.791290
v 132.414093 360.404419 149.298264
v 140.671799 364.323242 152.318039
v 138.588898 370.351746 140.505005
v 136.245087 356.655365 144.964966
v 136.245407 370.351715 140.524689
v 130.801804 374.418732 149.113907
v 134.176010 361.794281 150.637283
v 140.325226 358.959259 139.934219
v 136.251297 375.622559 141.561646
v 142.971771 373.875580 154.753723
v 144.737915 372.520203 151.868042
v 132.383911 372.390808 151.743149
v 140.618286 360.146820 140.083725
v 144.629974 374.403687 145.500900
v 131.017288 369.195129 149.975784
v 144.135635 375.692108 149.677078
v 140.618454 357.981964 147.558304
v 136.245102 368.300812 140.511841
v 130.088608 366.252502 147.230194
v 145.030243 372.386780 145.473969
v 140.559158 365.349365 152.913849
v 130.671692 372.393341 149.173676
v 136.280670 376.829285 151.990967
v 143.901016 368.345062 141.621902
v 138.588745 377.010620 145.504135
# 363 vertices, 0 vertices normals

f 340 359 200
f 183 78 293
f 223 87 218
f 301 254 71
f 138 336 221
f 153 275 121
f 68 3 198
f 50 156 179
f 236 272 62
f 105 14 258
f 347 106 58
f 89 353 55
f 262 35 349
f 220 21 219
f 143 31 187
f 72 164 173
f 47 1 161
f 24 235 321
f 289 247 118
f 290 298 65
f 326 152 47
f 343 319 341
f 5 310 266
f 297 188 189
f 248 182 320
f 319 314 341
f 143 187 97
f 115 256 217
f 120 349 134
f 221 192 210
f 145 58 130
f 207 136 360
f 350 39 81
f 203 241 152
f 16 255 263
f 265 299 162
f 323 354 305
f 208 253 229
f 4 259 61
f 49 42 293
f 173 296 241
f 222 353 89
f 83 175 302
f 220 219 23
f 193 286 25
f 13 287 146
f 204 65 92
f 145 130 292
f 39 123 107
f 281 18 211
f 114 111 284
f 299 124 63
f 231 85 142
f 149 196 84
f 13 146 132
f 174 136 216
f 215 12 273
f 122 230 335
f 35 40 333
f 281 23 219
f 46 277 244
f 60 100 221
f 200 173 206
f 236 137 268
f 258 14 323
f 294 352 358
f 169 80 98
f 323 305 246
f 303 6 254
f 348 45 35
f 282 288 183
f 235 4 61
f 94 171 135
f 199 57 334
f 13 338 146
f 307 103 2
f 43 191 52
f 140 147 157
f 221 210 51
f 312 49 156
f 212 331 345
f 176 329 194
f 299 63 162
f 170 156 316
f 176 119 329
f 5 122 321
f 96 227 125
f 50 179 269
f 117 255 16
f 278 199 334
f 193 25 7
f 356 30 196
f 257 86 3
f 78 216 207
f 156 49 293
f 222 89 159
f 259 246 245
f 169 98 127
f 98 297 189
f 62 91 210
f 9 167 228
f 25 286 169
f 84 196 30
f 281 160 18
f 167 339 212
f 2 57 199
f 240 159 316
f 255 224 234
f 241 296 120
f 274 194 287
f 109 126 251
f 152 120 134
f 98 342 127
f 13 274 287
f 62 272 37
f 112 231 225
f 324 108 151
f 113 292 102
f 4 181 259
f 18 201 153
f 86 198 3
f 26 10 335
f 8 41 82
f 239 196 125
f 311 243 5
f 272 203 326
f 189 21 36
f 212 339 331
f 300 182 32
f 249 26 288
f 102 24 122
f 26 88 10
f 194 329 110
f 287 194 101
f 230 243 344
f 163 171 94
f 324 151 232
f 239 242 356
f 244 116 6
f 74 206 241
f 271 70 270
f 170 159 357
f 102 292 24
f 67 267 115
f 87 126 129
f 166 346 48
f 25 127 28
f 331 75 182
f 231 332 277
f 52 313 88
f 115 267 256
f 200 283 173
f 208 114 284
f 107 202 238
f 167 212 228
f 347 265 106
f 172 237 49
f 321 361 310
f 150 69 145
f 197 83 195
f 73 22 59
f 263 255 234
f 282 42 84
f 113 102 10
f 273 12 177
f 208 112 114
f 198 95 38
f 150 53 69
f 257 266 64
f 20 66 280
f 53 304 197
f 114 112 166
f 2 103 168
f 9 66 167
f 117 315 255
f 146 285 286
f 256 109 251
f 225 277 337
f 47 134 93
f 58 363 130
f 172 279 237
f 281 211 23
f 173 59 296
f 175 306 56
f 39 107 317
f 214 275 201
f 138 51 332
f 351 46 290
f 168 263 19
f 337 213 46
f 101 194 110
f 200 206 74
f 261 318 4
f 247 182 118
f 272 326 37
f 27 337 46
f 130 318 261
f 326 161 37
f 19 45 348
f 215 211 104
f 297 80 178
f 282 249 288
f 346 351 129
f 305 157 333
f 18 180 201
f 322 344 311
f 20 320 339
f 290 213 158
f 341 175 83
f 13 209 274
f 273 62 192
f 172 49 312
f 232 100 60
f 155 161 1
f 362 155 186
f 355 31 143
f 47 93 1
f 77 231 142
f 39 68 123
f 147 294 11
f 121 275 185
f 98 189 342
f 7 28 284
f 188 228 219
f 287 101 34
f 60 221 336
f 322 311 350
f 5 321 310
f 77 233 112
f 290 158 298
f 218 87 204
f 236 268 272
f 55 317 275
f 306 362 56
f 63 94 135
f 158 303 264
f 93 294 358
f 106 105 363
f 96 149 42
f 229 131 231
f 114 48 111
f 297 9 188
f 35 330 40
f 340 200 177
f 18 345 180
f 14 147 140
f 175 56 302
f 268 137 203
f 156 293 316
f 240 360 222
f 146 338 132
f 113 145 292
f 14 135 140
f 121 185 104
f 215 23 211
f 212 345 281
f 191 343 304
f 289 118 180
f 77 142 233
f 50 269 209
f 325 214 32
f 128 357 248
f 146 287 34
f 191 30 343
f 41 54 82
f 342 189 36
f 218 237 279
f 160 345 18
f 14 140 147
f 59 22 308
f 322 360 344
f 226 355 143
f 209 165 279
f 144 37 133
f 264 301 314
f 213 244 6
f 220 184 187
f 326 47 161
f 363 105 258
f 43 30 191
f 193 139 267
f 33 72 283
f 252 38 278
f 359 327 90
f 315 245 224
f 226 36 355
f 285 101 286
f 174 26 335
f 35 333 349
f 250 97 192
f 213 6 303
f 136 230 344
f 14 354 323
f 274 176 194
f 289 331 247
f 300 32 118
f 331 180 345
f 56 362 190
f 350 257 68
f 131 60 138
f 278 334 73
f 263 234 45
f 217 223 165
f 337 46 213
f 305 333 40
f 107 123 271
f 292 130 261
f 273 236 62
f 341 314 175
f 78 316 293
f 238 275 317
f 359 33 283
f 303 254 301
f 46 244 213
f 5 243 230
f 301 71 306
f 260 176 274
f 190 76 276
f 7 284 111
f 25 169 127
f 354 157 305
f 203 152 326
f 183 288 216
f 346 126 48
f 115 217 295
f 260 291 176
f 331 182 247
f 135 171 352
f 296 308 120
f 340 327 359
f 187 192 97
f 215 104 340
f 311 5 257
f 203 74 241
f 59 308 296
f 307 117 16
f 109 111 48
f 278 73 164
f 163 276 171
f 231 131 138
f 28 253 284
f 224 154 330
f 226 151 36
f 123 198 252
f 82 54 163
f 325 357 89
f 92 125 227
f 149 84 42
f 71 133 155
f 13 209 338
f 190 186 76
f 89 357 159
f 202 271 270
f 324 232 131
f 239 356 196
f 299 82 124
f 147 135 352
f 41 190 54
f 114 166 48
f 281 345 160
f 322 17 360
f 191 304 53
f 208 284 253
f 257 64 86
f 20 329 119
f 52 191 53
f 147 11 157
f 292 261 24
f 285 34 101
f 28 127 108
f 260 274 209
f 62 37 91
f 20 29 66
f 70 164 72
f 93 358 328
f 324 253 108
f 43 282 84
f 6 116 144
f 2 168 57
f 61 259 315
f 260 128 205
f 232 60 131
f 226 143 100
f 356 319 343
f 325 89 214
f 362 186 190
f 302 41 8
f 334 19 348
f 15 273 187
f 70 278 164
f 205 320 119
f 166 225 27
f 309 193 267
f 195 8 265
f 322 350 81
f 9 178 66
f 136 344 360
f 229 324 131
f 63 135 99
f 337 277 46
f 273 177 236
f 320 331 339
f 325 32 182
f 162 99 105
f 43 249 282
f 348 35 262
f 202 270 90
f 153 121 104
f 264 314 319
f 246 305 40
f 95 307 38
f 169 101 80
f 22 348 262
f 232 151 226
f 150 113 313
f 184 215 15
f 85 138 332
f 289 180 331
f 260 269 179
f 184 23 215
f 174 288 26
f 76 358 276
f 93 134 11
f 20 339 29
f 217 251 223
f 73 334 348
f 113 10 313
f 138 221 51
f 304 83 197
f 259 245 315
f 107 238 317
f 215 273 15
f 130 363 318
f 13 132 338
f 92 239 125
f 257 3 68
f 8 82 299
f 351 290 65
f 172 209 279
f 43 88 249
f 28 108 253
f 176 291 119
f 107 271 202
f 68 198 123
f 124 163 44
f 208 229 77
f 174 216 288
f 177 200 236
f 158 242 298
f 153 201 275
f 128 179 156
f 245 154 224
f 256 139 109
f 240 222 159
f 140 135 147
f 308 262 349
f 148 167 66
f 25 28 7
f 118 214 201
f 318 181 4
f 361 61 117
f 20 280 329
f 168 16 263
f 86 64 198
f 133 161 155
f 93 328 1
f 261 4 235
f 252 278 70
f 95 310 307
f 5 266 257
f 66 329 280
f 265 162 106
f 311 257 350
f 249 88 26
f 122 24 321
f 229 253 324
f 248 325 182
f 310 361 307
f 45 234 141
f 181 246 259
f 185 90 327
f 207 216 136
f 308 349 120
f 14 140 354
f 340 104 327
f 54 276 163
f 101 110 80
f 96 125 149
f 248 357 325
f 178 110 329
f 272 268 203
f 178 329 66
f 69 58 145
f 148 29 339
f 208 77 112
f 148 66 29
f 143 250 221
f 254 144 133
f 45 141 35
f 232 226 100
f 56 190 41
f 143 97 250
f 100 143 221
f 223 218 279
f 93 11 294
f 245 40 154
f 10 88 313
f 27 225 337
f 343 341 304
f 92 298 239
f 58 106 363
f 239 298 242
f 142 85 233
f 52 150 313
f 315 224 255
f 290 46 213
f 55 81 317
f 128 248 205
f 332 51 244
f 105 99 14
f 220 23 184
f 22 262 308
f 231 138 85
f 248 320 205
f 223 251 87
f 102 335 10
f 217 165 295
f 174 335 230
f 186 1 328
f 53 197 69
f 82 163 124
f 270 70 72
f 318 258 181
f 210 91 144
f 127 342 108
f 13 338 209
f 204 92 227
f 69 347 58
f 235 61 361
f 39 317 81
f 238 185 275
f 260 179 128
f 320 75 331
f 43 52 88
f 222 17 353
f 13 165 209
f 185 202 90
f 87 129 204
f 76 328 358
f 112 85 231
f 133 37 161
f 353 17 81
f 38 199 278
f 166 112 225
f 241 120 152
f 231 85 332
f 228 281 219
f 7 111 139
f 320 182 75
f 170 128 156
f 352 276 358
f 118 201 180
f 140 157 354
f 192 62 210
f 98 80 297
f 297 178 9
f 134 349 11
f 229 231 77
f 277 332 244
f 162 63 99
f 169 286 101
f 322 81 17
f 112 233 85
f 158 213 303
f 50 209 172
f 190 276 54
f 6 144 254
f 282 183 42
f 184 15 187
f 147 352 294
f 234 224 330
f 271 252 70
f 55 353 81
f 240 207 360
f 246 40 245
f 258 323 181
f 314 301 306
f 149 125 196
f 238 202 185
f 188 219 21
f 304 341 83
f 264 319 242
f 164 59 173
f 153 104 211
f 73 348 22
f 170 357 128
f 347 195 265
f 166 27 351
f 146 34 285
f 266 95 64
f 355 36 21
f 205 119 291
f 67 295 286
f 264 303 301
f 124 94 63
f 302 56 41
f 363 258 318
f 342 36 151
f 342 151 108
f 200 203 137
f 24 261 235
f 200 137 236
f 139 111 109
f 309 286 193
f 197 195 347
f 71 155 362
f 166 351 346
f 38 307 2
f 187 273 192
f 215 340 177
f 321 235 361
f 13 146 295
f 351 65 129
f 11 333 157
f 189 188 21
f 309 267 67
f 355 21 220
f 9 228 188
f 99 135 14
f 355 220 31
f 106 162 105
f 174 230 136
f 18 153 211
f 20 119 320
f 83 302 195
f 150 145 113
f 218 227 237
f 267 139 256
f 92 65 298
f 307 361 117
f 231 277 225
f 193 7 139
f 89 55 214
f 96 42 49
f 32 214 118
f 43 84 30
f 11 349 333
f 152 134 47
f 307 16 103
f 212 281 228
f 309 67 286
f 223 279 165
f 186 328 76
f 72 173 283
f 146 286 295
f 163 94 44
f 183 216 78
f 38 2 199
f 260 209 269
f 80 110 178
f 237 227 96
f 181 323 246
f 251 126 87
f 57 168 19
f 78 207 240
f 306 71 362
f 200 74 203
f 314 306 175
f 50 312 156
f 356 343 30
f 69 197 347
f 60 336 138
f 52 53 150
f 164 73 59
f 221 250 192
f 352 171 276
f 346 129 126
f 270 72 33
f 61 315 117
f 158 264 242
f 183 293 42
f 214 55 275
f 90 270 33
f 351 27 46
f 254 133 71
f 67 115 295
f 222 360 17
f 155 1 186
f 359 90 33
f 359 283 200
f 215 177 12
f 13 295 165
f 148 339 167
f 35 141 330
f 234 330 141
f 256 251 217
f 300 118 182
f 204 129 65
f 218 204 227
f 210 116 51
f 124 44 94
f 350 68 39
f 185 327 104
f 356 242 319
f 5 230 122
f 50 172 312
f 237 96 49
f 19 263 45
f 244 51 116
f 57 19 334
f 170 316 159
f 330 154 40
f 220 187 31
f 265 8 299
f 195 302 8
f 198 38 252
f 173 241 206
f 260 205 291
f 64 95 198
f 102 122 335
f 311 344 243
f 210 144 116
f 78 240 316
f 109 48 126
f 91 37 144
f 103 16 168
f 123 252 271
f 266 310 95
# 728 faces, 0 coords texture

# End of File