####
#
# OBJ File Generated by Meshlab
#
####
# Object domain0536.obj
#
# Vertices: 1320
# Faces: 2636
#
####
v 55.066082 51.086105 112.027534
v 55.170784 51.039890 111.530289
v 55.200420 50.776234 112.019600
v 55.195805 50.736866 112.972244
v 55.130859 50.993076 112.915405
v 55.326851 50.975521 113.377586
v 55.024166 51.655323 111.050667
v 55.140846 51.604115 110.518906
v 55.157486 51.321827 111.026772
v 54.982212 51.556778 111.985741
v 55.067005 51.590305 112.527046
v 55.152779 51.255356 112.969978
v 55.091644 52.243179 108.060394
v 55.270737 52.221806 107.596275
v 55.218163 51.960358 108.033798
v 55.164577 51.919266 109.003380
v 55.019440 52.238667 109.003960
v 55.119915 51.875347 110.000763
v 54.990318 52.221012 110.022270
v 54.918285 52.171124 111.004494
v 54.978798 52.144802 111.955948
v 55.136513 52.141579 112.474350
v 55.066692 52.672634 108.076996
v 55.244774 52.695797 107.576263
v 54.954025 52.734951 109.010849
v 54.928577 52.739269 110.001396
v 54.934494 52.718861 110.988029
v 55.049782 52.662453 111.922234
v 55.259171 52.663704 112.401428
v 55.153522 52.996109 108.028656
v 55.035469 53.227745 109.030563
v 55.143082 53.289169 108.519264
v 55.025913 53.234482 109.998337
v 55.057610 53.199154 110.964233
v 55.181068 53.234680 111.467453
v 55.177227 52.974102 111.955574
v 55.189243 53.536118 109.018250
v 55.192818 53.540436 110.010681
v 55.211933 53.383518 110.962265
v 55.623383 49.952072 113.042252
v 55.760811 49.988491 112.592232
v 55.795490 49.778637 113.059265
v 55.822792 49.627232 113.961174
v 55.653236 49.908993 113.950645
v 55.805126 49.860554 114.440041
v 55.462345 50.477234 112.055809
v 55.730183 50.536491 111.581894
v 55.735470 50.252312 112.085754
v 55.343594 50.400883 113.016762
v 55.542900 50.405140 113.947723
v 55.738182 50.393063 114.471466
v 55.428600 51.046978 111.034828
v 55.719547 51.104782 110.569489
v 55.726055 50.826290 111.079918
v 55.522099 50.901138 113.897964
v 55.830563 50.908592 114.403389
v 55.466110 51.680038 108.020393
v 55.724140 51.642223 107.528168
v 55.771027 51.524368 108.031418
v 55.750717 51.483448 109.005127
v 55.432758 51.644482 109.003799
v 55.715710 51.365662 110.010811
v 55.387184 51.582951 110.006706
v 55.295628 51.606384 113.048645
v 55.638668 51.623985 113.548889
v 55.714073 51.242237 113.966728
v 55.520172 52.210384 107.082626
v 55.812683 52.214237 106.584587
v 55.723930 51.904907 107.031776
v 55.414394 52.145458 112.972313
v 55.767086 52.132645 113.340904
v 55.454372 52.754974 107.061043
v 55.743881 52.741310 106.545158
v 55.554943 52.650642 112.875900
v 55.845402 52.560009 113.172241
v 55.599434 53.239010 107.052780
v 55.818356 53.263676 106.580238
v 55.366898 53.327549 107.977509
v 55.432903 53.240871 111.958443
v 55.745533 53.146843 112.399208
v 55.759418 52.851009 112.872681
v 55.771946 53.537983 107.031700
v 55.651886 53.635876 107.995064
v 55.465004 53.794060 109.017975
v 55.709328 53.847145 108.518265
v 55.469463 53.781872 109.973557
v 55.716961 53.765408 110.435524
v 55.671665 53.601604 110.983948
v 55.741306 53.378796 111.923500
v 55.769554 53.920757 109.028778
v 55.757576 53.901455 109.947693
v 56.293713 42.327499 123.077072
v 56.455994 42.381123 122.849182
v 56.404144 42.178692 123.071640
v 56.385532 42.115540 124.000122
v 56.244484 42.311340 123.995407
v 56.396046 42.158783 124.929535
v 56.339314 42.231583 124.902344
v 56.528023 42.270306 125.066246
v 56.232494 42.778648 123.073204
v 56.425415 42.783146 122.759140
v 56.180088 42.758713 123.980385
v 56.271019 42.786255 124.514229
v 56.357262 42.458485 124.935722
v 56.265232 43.261509 123.066071
v 56.433308 43.238476 122.733154
v 56.240753 43.272869 123.949341
v 56.405815 43.292950 124.416283
v 56.374184 43.631836 122.973991
v 56.354343 43.597305 123.981285
v 56.065693 49.359501 114.049973
v 56.313259 49.366184 113.568687
v 56.352932 49.167862 114.052834
v 56.352097 49.003342 114.979683
v 56.148342 49.307434 114.998055
v 56.360744 49.003338 115.976799
v 56.231041 49.315392 115.948189
v 56.375237 49.265423 116.444916
v 56.261776 49.859077 112.529129
v 56.248230 49.581661 113.056458
v 55.951759 49.799587 114.992706
v 56.167786 49.807869 115.943748
v 56.339844 49.805229 116.463127
v 56.259022 50.447926 111.531105
v 56.260197 50.141930 112.022682
v 55.959057 50.386860 114.997368
v 56.229099 50.303703 115.910522
v 56.429741 50.311985 116.407707
v 56.255596 51.032303 110.525284
v 56.256248 50.750000 111.036385
v 56.126217 50.885517 114.932686
v 56.343487 50.833183 115.413231
v 56.365139 50.543030 115.935181
v 56.004456 51.632008 107.023331
v 56.305676 51.641685 106.530045
v 56.340271 51.505116 107.054695
v 56.261253 51.428535 108.010880
v 56.256168 51.399799 109.005943
v 56.256290 51.264050 109.990799
v 55.985329 51.543240 113.975700
v 56.324795 51.414013 114.406723
v 56.339153 51.112747 114.906288
v 56.114212 52.213303 106.102600
v 56.442577 52.244801 105.757133
v 56.328518 51.919476 106.057762
v 56.298882 51.773010 113.940262
v 56.237186 52.153122 113.566704
v 56.053043 52.740692 106.068962
v 56.389996 52.739147 105.698769
v 56.258099 52.586395 113.267738
v 56.104595 53.271404 106.097092
v 56.442371 53.234844 105.756897
v 56.256088 52.929718 112.922462
v 56.256741 53.222378 112.447647
v 56.323795 53.561543 106.056076
v 56.044128 53.807270 107.020737
v 56.311020 53.830620 106.530640
v 55.981812 53.860310 108.002563
v 56.265736 53.626751 110.993011
v 56.218437 53.788521 110.445625
v 56.254509 53.425354 111.947639
v 56.358200 53.949162 107.033821
v 56.320198 53.950783 108.020287
v 56.195404 53.959320 108.979973
v 56.170067 53.903652 109.946396
v 56.892685 42.276608 122.712631
v 56.854733 41.919361 123.039444
v 56.809082 41.808685 123.999489
v 56.856907 41.923737 124.955605
v 56.916374 42.278698 125.225433
v 56.840530 42.790226 122.513710
v 56.531403 42.784538 124.989891
v 56.931633 42.736164 125.252380
v 56.731190 43.334217 122.373207
v 56.701927 43.278473 124.892700
v 57.015305 43.184120 125.156876
v 56.770782 44.005085 122.125114
v 57.020149 44.047554 121.739410
v 56.896988 43.688152 122.052322
v 56.457821 43.994530 123.003998
v 56.540943 43.953342 123.980354
v 56.889385 43.930519 124.463081
v 56.917038 43.510551 124.881302
v 56.726677 44.545757 122.048470
v 56.949265 44.539043 121.541695
v 56.593121 44.524303 122.993263
v 56.764400 44.459347 123.919937
v 57.023327 44.425892 124.238144
v 56.702255 45.145000 122.016998
v 56.813179 45.102352 121.471748
v 56.710541 45.087234 122.977051
v 56.892838 45.131096 123.507156
v 56.924103 44.778652 123.937454
v 56.810158 45.778408 121.082977
v 57.001377 45.767796 120.587585
v 56.887619 45.434994 121.021782
v 56.704632 45.694824 121.998131
v 56.841251 45.609901 122.901291
v 57.003502 45.542938 123.247169
v 56.788258 46.287964 121.038322
v 56.935249 46.299416 120.540375
v 56.809925 46.196545 121.939880
v 56.958260 46.199234 122.413528
v 56.953732 45.847691 122.891090
v 56.857738 46.767788 121.014000
v 56.962811 46.837280 120.554413
v 56.936951 46.825867 121.472656
v 56.929081 46.534321 121.963409
v 56.962364 47.094086 121.005966
v 56.814377 48.183231 117.029976
v 56.915237 48.136086 116.524345
v 56.972801 47.997318 117.035400
v 56.987164 47.860268 117.963989
v 56.840721 48.153061 117.949974
v 56.961376 48.095486 118.446259
v 56.632622 48.745876 115.032387
v 56.894451 48.774872 114.567078
v 56.928833 48.567162 115.052040
v 56.861473 48.355782 115.979462
v 56.580688 48.665184 116.045326
v 56.633160 48.659809 116.998734
v 56.756824 48.638557 117.950813
v 56.920658 48.633942 118.470230
v 56.842190 49.275620 113.529015
v 56.830475 48.985725 114.052048
v 56.519859 49.198437 116.985413
v 56.793541 49.151691 117.914345
v 57.004963 49.157974 118.411179
v 56.838005 49.847507 112.522346
v 56.838760 49.558559 113.025215
v 56.599442 49.784374 117.003487
v 56.864014 49.830563 117.515945
v 56.911575 49.476196 117.961487
v 56.844200 50.512466 111.551430
v 56.836140 50.159470 112.034592
v 56.707500 50.301662 116.889244
v 56.986679 50.226757 117.247757
v 56.780922 51.111370 110.572449
v 56.774872 50.827915 111.087151
v 56.812347 50.797672 116.032135
v 56.818401 51.030491 115.529930
v 56.934517 50.447594 116.904556
v 56.605164 51.659882 106.056129
v 56.935497 51.732132 105.723740
v 56.924454 51.539722 106.084404
v 56.852028 51.423809 107.003494
v 56.777309 51.478333 107.971024
v 56.762489 51.480942 109.004089
v 56.792469 51.372726 110.014267
v 56.866314 51.237766 115.001770
v 56.843716 51.512871 114.467346
v 56.853462 52.158669 105.442802
v 56.870136 51.823238 113.943733
v 56.818806 52.154575 113.491142
v 56.780796 52.741280 105.388458
v 56.695312 52.564747 113.215004
v 56.863674 53.316856 105.453430
v 56.757942 52.857201 112.878128
v 56.767551 53.151627 112.404564
v 56.610233 53.810669 106.062622
v 56.942829 53.727367 105.743973
v 56.555473 53.891216 109.002586
v 56.894238 53.743473 109.014580
v 56.830608 53.884789 108.495331
v 56.484032 53.814007 109.977737
v 56.829082 53.603840 109.999062
v 56.771271 53.453064 110.993301
v 56.746994 53.343666 111.942322
v 56.924446 53.926582 106.092346
v 56.853893 54.042088 107.000549
v 56.760109 53.946728 107.945831
v 57.204418 41.726933 123.044724
v 57.520683 41.832493 122.818359
v 57.514729 41.638790 123.077141
v 57.503025 41.561569 123.999962
v 57.151985 41.648949 124.000259
v 57.514755 41.637840 124.923164
v 57.205307 41.729019 124.954994
v 57.522186 41.832012 125.177979
v 57.430931 42.224487 122.598434
v 57.431507 42.222675 125.327080
v 57.396847 42.732147 122.353905
v 57.426952 42.761780 125.342064
v 57.160664 43.394680 122.039932
v 57.515682 43.543606 121.751259
v 57.465057 43.155655 122.060249
v 57.428284 43.212208 125.226906
v 57.437565 43.971554 121.454742
v 57.429092 43.612240 124.951965
v 57.425129 44.030392 124.640091
v 57.260406 44.602615 121.094284
v 57.576817 44.709938 120.788651
v 57.489517 44.364353 121.101868
v 57.449490 44.499111 124.401855
v 57.086388 45.103439 120.972832
v 57.464710 45.137257 120.529808
v 57.186951 45.057762 123.934418
v 57.522633 44.916348 124.190903
v 57.301193 45.788891 120.117180
v 57.586281 45.893162 119.803902
v 57.502998 45.559620 120.115105
v 57.478271 45.274887 123.892639
v 57.445095 45.653851 123.455544
v 57.205704 46.331364 120.007164
v 57.493652 46.326492 119.549088
v 57.406086 46.058361 123.031090
v 57.382420 46.387669 122.655533
v 57.381935 46.993080 119.070328
v 57.523365 47.052486 118.599686
v 57.524151 46.737232 119.099075
v 57.092117 46.906265 120.011482
v 57.174713 46.842518 121.966759
v 57.511585 46.789577 122.316406
v 57.230804 47.562637 118.081558
v 57.478119 47.587788 117.562958
v 57.498390 47.328621 118.087479
v 57.186478 47.480824 119.005707
v 57.145016 47.463459 119.998100
v 57.133606 47.456406 120.968086
v 57.432838 47.486786 121.517662
v 57.456257 47.142025 121.966789
v 57.175816 48.128067 116.030197
v 57.471954 48.216675 115.578156
v 57.493130 48.015743 116.080093
v 57.427448 47.773022 117.019058
v 57.078926 48.028164 118.999886
v 57.218002 48.035442 119.985039
v 57.385593 47.947067 120.905159
v 57.581013 47.880249 121.242783
v 57.425335 48.705322 114.537895
v 57.411770 48.428619 115.064270
v 57.112114 48.631382 119.004402
v 57.390827 48.526440 119.927650
v 57.539234 48.456154 120.392982
v 57.536488 48.161461 120.875725
v 57.429592 49.339821 113.551254
v 57.421757 48.994972 114.038979
v 57.276924 49.147320 118.946632
v 57.532894 49.115578 119.403862
v 57.533382 48.764980 119.898979
v 57.348007 49.962879 112.590569
v 57.357525 49.657307 113.088348
v 57.161839 49.779293 117.980156
v 57.471989 49.752914 118.470566
v 57.497444 49.457752 118.957275
v 57.253662 50.560257 111.773140
v 57.322338 50.269527 112.118820
v 57.489288 49.985298 117.954826
v 57.420410 50.270489 117.444038
v 57.020588 51.064400 111.044060
v 57.312996 50.981831 111.544998
v 57.146126 50.931732 115.981598
v 57.420017 50.790859 116.403267
v 57.435608 50.597328 116.922493
v 57.413433 51.606762 105.492966
v 57.464844 51.452644 106.022919
v 57.391071 51.458351 106.977615
v 57.129272 51.590569 107.999504
v 57.453804 51.588459 107.519012
v 57.082783 51.639626 108.998924
v 57.099358 51.591980 110.024338
v 57.294575 51.507919 110.962502
v 57.472996 51.540306 111.466606
v 57.433517 51.244846 114.969383
v 57.375530 51.444740 114.440804
v 57.422394 50.957504 115.895676
v 57.240341 52.195225 105.083534
v 57.599636 52.235607 104.736816
v 57.481037 51.901814 105.044281
v 57.438915 51.848064 108.006683
v 57.354725 51.914223 108.998108
v 57.350872 51.910862 110.005470
v 57.437798 51.844463 110.995140
v 57.197483 52.175972 113.038879
v 57.422146 51.875618 113.027321
v 57.441772 52.166393 112.522324
v 57.343964 51.641113 113.935997
v 57.172413 52.738953 105.038612
v 57.573151 52.735786 104.719627
v 56.987667 52.653183 112.897713
v 57.275669 52.665894 112.416725
v 57.259563 53.260967 105.108070
v 57.603252 53.153965 104.823410
v 57.148621 53.340759 110.007271
v 57.385471 53.017128 109.998215
v 57.357746 53.265961 109.480965
v 57.085876 53.260170 110.996696
v 57.335487 52.969501 110.995605
v 57.037125 53.200005 111.966660
v 57.298328 52.933758 111.967911
v 57.498356 53.468231 105.116493
v 57.427124 53.778320 105.556175
v 57.105148 53.855320 107.982109
v 57.417194 53.618832 108.008133
v 57.447102 53.874355 107.516670
v 57.317463 53.417919 108.966568
v 57.439625 53.986591 106.050041
v 57.393932 54.011013 106.976349
v 57.839878 41.815086 122.854729
v 57.894070 41.651375 123.080162
v 57.923695 41.597382 124.001343
v 57.890541 41.653683 124.921082
v 57.831760 41.814911 125.134689
v 57.953499 42.244278 122.671806
v 57.864323 42.209095 125.230194
v 58.009262 42.717617 122.391914
v 57.869625 42.764263 125.242546
v 58.012207 43.501347 121.705437
v 58.014656 43.118210 122.050949
v 57.838287 43.188942 125.156487
v 58.013615 43.897800 121.400246
v 57.955818 43.542538 124.898628
v 58.029789 43.973225 124.601517
v 58.014252 44.672852 120.704575
v 58.014553 44.286282 121.044266
v 57.991474 44.496082 124.389450
v 58.014355 45.068073 120.399811
v 57.919651 44.919518 124.193123
v 58.014416 45.843987 119.702751
v 58.015617 45.458847 120.044624
v 57.971344 45.285389 123.891624
v 58.008881 45.650261 123.517189
v 58.015114 46.230495 119.387260
v 57.733616 46.263855 122.965622
v 58.008137 46.041424 123.171349
v 58.018215 46.931702 118.531929
v 58.015778 46.589355 119.001907
v 58.013626 46.403042 122.863403
v 58.013031 46.777515 122.489311
v 58.011250 47.515331 117.523849
v 58.015469 47.232769 118.035309
v 57.765285 47.395107 121.928780
v 58.015442 47.194897 122.144623
v 57.938736 48.254669 115.608902
v 57.943245 48.026711 116.086571
v 58.005825 47.754124 117.001999
v 58.016132 47.545475 121.846077
v 58.014610 47.881573 121.424477
v 57.930389 48.796799 114.593376
v 57.926556 48.519779 115.098816
v 58.017609 48.255398 120.939392
v 58.018959 48.583038 120.465179
v 57.837673 49.388817 113.775276
v 57.909161 49.096386 114.117928
v 58.020191 48.906326 119.982567
v 58.019680 49.228992 119.560173
v 57.578846 49.896225 113.061661
v 57.877232 49.809818 113.558952
v 57.774128 49.694057 118.929138
v 58.018002 49.550247 119.178711
v 57.449814 50.490025 112.101257
v 57.732304 50.404736 113.000114
v 57.958385 50.392551 113.520912
v 58.027290 50.058746 117.963669
v 57.962864 50.264366 117.437096
v 58.015663 49.759457 118.876816
v 57.537781 50.997986 112.054230
v 57.740154 50.994354 113.007454
v 57.901443 50.938507 113.550598
v 57.685421 50.890755 115.971260
v 57.998886 50.677917 116.012314
v 57.934982 50.888062 115.472450
v 57.930946 50.464676 116.942482
v 57.758755 51.622849 105.032990
v 58.104961 51.667774 104.580460
v 58.099590 51.460903 105.056389
v 58.015175 51.380363 105.999359
v 57.937428 51.528931 106.915359
v 57.930935 51.722473 107.287811
v 57.567085 51.590687 112.013969
v 57.566460 51.515934 112.984299
v 57.877262 51.182713 114.034119
v 57.637661 51.445667 113.961258
v 57.881001 51.028812 114.960594
v 57.979553 52.165180 104.419754
v 57.675640 52.178596 108.009537
v 58.034851 52.143410 107.594147
v 57.507271 52.235245 108.994560
v 57.470882 52.233864 109.999161
v 57.497421 52.212543 111.022919
v 57.540375 52.122780 111.986893
v 58.005711 52.759647 104.418007
v 57.799553 52.738934 108.039047
v 58.114117 52.738953 107.670822
v 57.568806 52.733551 108.983658
v 57.485241 52.675133 109.976906
v 57.464340 52.659157 110.997658
v 57.438839 52.643604 111.947906
v 58.040104 53.227791 104.664154
v 57.663208 53.290798 108.005875
v 58.020958 53.331139 107.578568
v 57.466301 53.205883 108.962151
v 58.020100 53.553707 105.047783
v 58.012630 53.825230 105.539673
v 57.914505 53.746998 107.274422
v 57.996597 53.981586 106.035217
v 57.932644 53.929733 106.914597
v 58.047398 41.753925 123.077354
v 58.218826 41.737820 124.000816
v 58.020069 41.752293 124.912018
v 58.335499 42.182167 123.015114
v 58.529427 42.229958 123.516541
v 58.463432 42.001320 123.991356
v 58.460785 42.245605 124.436684
v 58.219276 42.186443 124.913643
v 58.482342 42.870388 122.589943
v 58.546677 42.510857 123.020401
v 58.226421 42.769386 124.936066
v 58.521324 42.782188 124.462051
v 58.437122 43.545811 121.796638
v 58.502228 43.233246 122.118881
v 58.158878 43.293365 124.884666
v 58.484787 43.383888 124.455193
v 58.557461 43.972340 121.536804
v 58.474018 43.934296 124.317352
v 58.508732 44.721828 120.755898
v 58.549763 44.370026 121.097969
v 58.411892 44.434486 124.215210
v 58.594261 45.137722 120.446739
v 58.265488 45.069305 123.947113
v 58.541264 44.783863 123.942795
v 58.616669 45.162079 123.529831
v 58.517815 45.879623 119.735596
v 58.558754 45.520428 120.083809
v 58.458145 45.625496 123.290733
v 58.592144 46.252056 119.410530
v 58.274982 46.240200 122.939346
v 58.564289 45.972771 122.960197
v 58.630619 46.329044 122.621246
v 58.607010 46.979610 118.540436
v 58.598030 46.606255 119.015526
v 58.511333 46.784008 122.306534
v 58.530201 47.620358 117.591171
v 58.552013 47.293877 118.077362
v 58.274788 47.406391 121.935341
v 58.587582 47.157803 121.980957
v 58.632561 47.498005 121.621735
v 58.247158 48.149204 116.048012
v 58.531799 48.123699 116.531731
v 58.516369 47.905071 117.055809
v 58.520863 47.889988 121.280937
v 58.147766 48.732166 115.065086
v 58.422810 48.714252 115.599144
v 58.515095 48.399704 116.042747
v 58.548710 48.214329 120.907288
v 58.605461 48.532360 120.455315
v 58.038372 49.317181 114.099731
v 58.321068 49.234013 114.999176
v 58.527966 49.226509 115.529198
v 58.595764 48.891224 119.974464
v 58.570339 49.236916 119.482460
v 58.125767 49.822117 114.054398
v 58.361397 49.833561 115.003586
v 58.502934 49.774174 115.544792
v 58.275604 49.706455 118.946373
v 58.622623 49.547398 118.999306
v 58.569008 49.750141 118.483284
v 58.125443 50.386246 114.043480
v 58.237694 50.378223 115.001938
v 58.501091 50.036621 116.019547
v 58.280273 50.373753 115.961082
v 58.233692 50.295498 116.977127
v 58.505402 50.038063 117.011833
v 58.508293 49.892761 117.960594
v 58.028839 50.885216 114.049088
v 58.045361 50.850067 114.973564
v 58.429451 51.617176 104.073433
v 58.706936 51.610783 103.558571
v 58.664436 51.343616 104.043442
v 58.585373 51.199940 105.015556
v 58.572792 51.361820 105.979279
v 58.282982 51.623356 106.965401
v 58.624943 51.528923 106.525719
v 58.326092 52.152027 104.016342
v 58.646099 52.153671 103.527023
v 58.612644 51.825985 107.008255
v 58.546246 52.221725 107.315620
v 58.386112 52.703876 104.046753
v 58.726715 52.687000 103.576645
v 58.564659 52.732765 107.404129
v 58.630413 53.004978 104.026794
v 58.558544 53.323936 104.469566
v 58.487228 53.218300 107.278160
v 58.648552 53.581890 105.015022
v 58.553280 53.783924 105.560158
v 58.248207 53.811600 106.941788
v 58.558647 53.572971 106.959824
v 58.540203 53.816174 106.469223
v 58.489014 53.902275 106.014442
v 58.600021 42.300434 123.985306
v 58.671253 42.865440 123.051414
v 58.687534 42.793858 123.964737
v 58.653419 43.461960 122.089577
v 58.836990 43.381828 123.007401
v 58.725349 43.364227 123.953163
v 58.903332 43.945206 122.015694
v 58.994385 43.913864 123.013763
v 58.743622 43.945698 123.939751
v 58.835384 44.606812 121.056984
v 59.099812 44.588402 121.529816
v 59.096016 44.296516 122.011665
v 59.106312 44.278244 122.983429
v 58.977158 44.531631 123.394600
v 58.749504 44.455723 123.881989
v 59.020729 45.216095 120.724503
v 59.093151 44.885750 121.056786
v 58.955788 45.148739 123.037910
v 59.121727 44.808422 122.972191
v 59.194252 45.141491 122.520508
v 58.851982 45.761356 120.044609
v 59.147671 45.693382 120.492683
v 58.791977 45.659042 122.933334
v 59.086246 45.712048 122.462883
v 59.070293 46.397259 119.591919
v 59.120796 46.043034 120.036690
v 59.019974 46.213383 122.284554
v 59.026409 47.041103 118.755051
v 59.079239 46.749744 119.116486
v 58.867329 46.856339 121.974533
v 59.111187 46.543224 121.948006
v 59.155090 46.897327 121.509850
v 58.856750 47.510635 118.032219
v 59.143177 47.453758 118.495766
v 59.033428 47.388008 121.295357
v 58.744808 48.137714 117.056152
v 59.012295 48.125118 117.596741
v 59.116711 47.800861 118.039566
v 58.848763 47.996593 120.951385
v 59.107075 47.711853 120.945702
v 59.139309 48.061897 120.501518
v 58.653477 48.710236 116.077972
v 58.902721 48.647057 116.999367
v 59.112175 48.640659 117.529617
v 59.025963 48.476574 120.244255
v 58.700867 49.224373 116.052139
v 58.907547 49.234776 117.008598
v 59.071507 49.180649 117.551292
v 59.078766 48.762638 119.882393
v 59.077316 49.055199 119.407639
v 58.627167 49.719463 116.050529
v 58.709229 49.730072 117.012260
v 59.053841 49.428776 118.032600
v 58.814430 49.698608 117.968147
v 59.059780 49.277351 118.944351
v 59.148735 51.102028 103.062767
v 59.349705 51.072525 102.584892
v 59.319721 50.921116 103.036118
v 59.272442 50.900990 103.998131
v 58.955669 51.080704 103.992973
v 59.270031 50.947041 104.950165
v 58.933002 51.052429 104.986443
v 59.227734 51.112015 105.440079
v 58.952709 51.559078 103.053253
v 59.247990 51.573605 102.536728
v 59.151833 51.323051 105.951027
v 59.189693 51.668434 106.456169
v 58.950390 52.146603 103.036369
v 59.300297 52.158939 102.554024
v 59.106483 51.996239 106.891998
v 58.997814 52.313908 107.153389
v 59.047760 52.660866 103.107407
v 59.344063 52.582962 102.765533
v 58.977562 52.646240 107.182793
v 59.264786 52.877514 103.108635
v 58.931938 53.260933 104.035622
v 59.244991 53.174034 103.582497
v 58.868500 53.306259 106.967834
v 59.130783 52.992397 106.946732
v 59.210335 53.322918 106.521309
v 59.256783 53.359604 104.087662
v 59.177906 53.542599 105.011307
v 58.820950 53.795120 106.012337
v 59.169209 53.610928 105.967171
v 59.219330 44.633305 122.026001
v 59.145340 44.546753 122.918190
v 59.209789 45.204548 121.081551
v 59.285713 45.109001 121.985405
v 59.298393 45.744839 121.023514
v 59.270149 45.694836 121.955086
v 59.245361 46.382935 120.060318
v 59.351074 46.294201 120.999382
v 59.215321 46.217232 121.910912
v 59.197815 46.978119 119.093468
v 59.348240 46.898006 120.008812
v 59.309273 46.844658 120.972679
v 59.318516 47.501675 119.024963
v 59.371304 47.460724 119.993591
v 59.227768 47.388767 120.917480
v 59.227913 48.123821 118.078316
v 59.374073 48.057274 119.005775
v 59.319221 48.016808 119.974846
v 59.267612 48.637299 118.047798
v 59.331673 48.615387 118.991928
v 59.199818 48.540413 119.908051
v 59.194336 49.126690 118.049332
v 59.201969 49.090927 118.961525
v 59.618450 51.037102 102.083130
v 59.934685 51.050964 101.597069
v 59.835335 50.760067 102.046585
v 59.763988 50.624126 103.016731
v 59.782242 50.747337 103.992455
v 59.770401 50.908928 104.942902
v 59.777866 51.137547 105.431984
v 59.551811 51.566090 102.047211
v 59.903305 51.577938 101.564583
v 59.690983 51.432201 105.882126
v 59.615612 51.723667 106.237999
v 59.630772 52.078106 102.111885
v 59.932381 52.012375 101.749321
v 59.309990 52.223667 106.867844
v 59.651169 52.149975 106.441780
v 59.843441 52.302330 102.107124
v 59.769558 52.624092 102.551750
v 59.323341 52.689686 106.883507
v 59.652393 52.744980 106.443619
v 59.777370 52.968483 103.038620
v 59.772861 53.232777 103.541710
v 59.602688 53.171986 106.252281
v 59.766281 53.385815 104.040398
v 59.697941 53.405918 104.973640
v 59.639721 53.352737 105.929764
v 60.118977 50.453018 102.019096
v 60.372662 50.407757 101.506226
v 60.433266 50.167809 102.028923
v 60.435162 50.313492 102.949234
v 60.100430 50.453804 102.987610
v 60.397728 50.501617 103.450424
v 60.224018 51.031036 101.109230
v 60.541843 51.055824 100.746437
v 60.408096 50.715740 101.032143
v 60.328159 50.680630 103.985428
v 60.264656 50.965218 104.895844
v 60.199581 51.154400 105.231964
v 60.221210 51.516289 101.115082
v 60.556999 51.481388 100.770638
v 59.925610 51.639179 105.894020
v 60.304153 51.586716 105.457352
v 60.420341 51.811111 101.061111
v 60.339951 52.127571 101.487640
v 60.027470 52.157185 105.972450
v 60.362419 52.154846 105.563034
v 60.380783 52.403450 101.995239
v 60.361538 52.695488 102.523178
v 60.012020 52.746284 105.941002
v 60.301632 52.682640 105.443108
v 60.369076 52.975147 103.053345
v 60.300648 53.174305 103.568741
v 60.035778 53.259018 105.012070
v 60.337471 53.011814 104.987457
v 60.298092 53.238556 104.474358
v 59.799328 53.197254 105.922760
v 60.241520 53.302998 104.016350
v 60.882923 49.926556 101.054726
v 61.097874 49.901073 100.582191
v 61.077885 49.750973 101.035355
v 61.039997 49.790176 101.948631
v 60.731888 49.934372 101.966499
v 60.997978 49.961731 102.430084
v 60.601624 50.363815 100.993080
v 60.917435 50.425198 100.507957
v 60.924141 50.185520 102.931122
v 60.955582 50.505238 103.450172
v 60.893440 50.983894 100.400749
v 60.876984 50.804436 103.954842
v 60.510593 51.082836 104.898003
v 60.870560 51.066322 104.430458
v 60.973846 51.555618 100.462257
v 60.713791 51.540611 105.033569
v 61.029854 51.527462 104.647820
v 60.701431 52.068680 101.062035
v 61.044296 51.968296 100.745979
v 60.903736 51.874790 104.964172
v 60.701057 52.151806 105.187370
v 61.019985 52.188061 101.097328
v 60.965668 52.482944 102.009209
v 60.908054 52.644814 102.549370
v 60.624237 52.715473 104.982414
v 60.860538 52.393356 104.933441
v 60.899345 52.698536 104.476440
v 60.863956 52.825325 103.044212
v 60.543442 53.180965 104.009079
v 60.856228 52.948124 103.964287
v 61.366093 49.860867 100.074608
v 61.639660 49.854755 99.560257
v 61.593334 49.583935 100.041573
v 61.527245 49.462017 101.014954
v 61.537956 49.688477 101.941551
v 61.543598 49.935631 102.442253
v 61.256023 50.397255 100.012794
v 61.573799 50.398258 99.526634
v 61.475143 50.236507 102.907333
v 61.456478 50.546238 103.293358
v 61.248444 50.977989 100.010994
v 61.641403 50.987423 99.552536
v 61.219772 51.004639 103.982506
v 61.563221 50.947514 103.623863
v 61.356491 51.504154 100.095276
v 61.684937 51.413307 99.762215
v 61.491417 51.300308 103.965355
v 61.370422 51.641354 104.285347
v 61.600826 51.710514 100.111900
v 61.526550 52.002216 100.562630
v 61.009693 52.147007 104.844315
v 61.306309 52.077381 104.383347
v 61.530327 52.226009 101.057648
v 61.519978 52.391972 102.007362
v 61.197613 52.677074 103.021004
v 61.536476 52.506187 102.979210
v 61.172314 52.673042 103.984566
v 61.449085 52.365677 103.937492
v 62.083122 49.326916 99.081406
v 62.310455 49.317219 98.749657
v 62.262669 49.038315 99.058533
v 62.188435 49.084282 99.995613
v 61.873112 49.303825 99.991089
v 62.199623 49.182377 100.945488
v 61.865936 49.302746 100.982681
v 62.178753 49.401829 101.429504
v 61.901852 49.801769 99.081398
v 62.242207 49.816505 98.688477
v 62.035519 49.642460 101.886597
v 62.041885 49.963421 102.290596
v 61.897644 50.388042 99.058479
v 62.253265 50.383881 98.709152
v 61.797157 50.431320 102.963211
v 62.147785 50.363525 102.621559
v 61.977810 50.905621 99.121170
v 62.292770 50.807247 98.825897
v 62.081425 50.714466 102.963799
v 61.966038 51.057693 103.291435
v 62.191593 51.120937 99.120117
v 62.115562 51.446453 99.556656
v 61.675121 51.615791 103.895538
v 61.984840 51.557953 103.434830
v 62.142082 51.797779 100.063042
v 62.072170 52.015915 100.567039
v 61.640930 52.086845 103.890511
v 61.920727 52.060513 103.398132
v 62.030281 52.186340 101.049675
v 62.028336 52.233322 101.998367
v 61.978107 52.206261 102.957565
v 62.522728 48.776924 99.011147
v 62.808212 48.753574 98.584846
v 62.821178 48.575813 99.008263
v 62.723221 48.679871 99.492027
v 62.663967 49.234993 98.415535
v 62.657898 48.811634 100.029045
v 62.707184 49.104462 100.930229
v 62.689545 49.360661 101.315521
v 62.623440 49.811424 98.366798
v 62.386414 49.840763 101.964333
v 62.766846 49.742989 101.643715
v 62.695732 50.412636 98.422073
v 62.679184 50.120358 101.973633
v 62.555470 50.470634 102.293610
v 62.723873 50.863377 98.685448
v 62.278187 51.032455 102.909584
v 62.587936 50.973736 102.451370
v 62.708527 51.201172 99.055321
v 62.700466 51.498959 99.534630
v 62.315929 51.580009 102.922539
v 62.558521 51.514599 102.423225
v 62.689274 51.721371 100.044357
v 62.365398 52.075195 101.019623
v 62.705990 51.915073 100.982079
v 62.338749 52.051468 102.012726
v 62.630299 51.784901 101.946251
v 62.145069 52.028126 102.938301
v 63.140953 48.697292 98.106270
v 63.486362 48.746830 97.801483
v 63.379314 48.445465 98.073151
v 63.286980 48.294250 99.008003
v 63.349609 48.544697 99.932434
v 63.006714 48.669228 99.988678
v 63.352665 48.815678 100.426895
v 63.032490 49.226254 98.041656
v 63.424923 49.233974 97.739609
v 63.194168 49.078587 100.862549
v 63.123745 49.395687 101.199944
v 63.019844 49.806736 98.026894
v 63.428082 49.797207 97.749908
v 63.239048 49.842293 101.366470
v 63.110050 50.336143 98.099503
v 63.462120 50.218388 97.844406
v 62.893681 50.437214 101.927284
v 63.258228 50.386482 101.550262
v 63.357540 50.535610 98.120285
v 63.268661 50.867710 98.545959
v 62.936428 50.976921 101.959274
v 63.288166 50.954124 101.469986
v 63.297523 51.205067 99.063171
v 63.231350 51.420315 99.569435
v 62.847130 51.503410 101.915550
v 63.119663 51.479874 101.412018
v 63.190117 51.589714 100.049461
v 63.151009 51.619511 100.959183
v 63.683685 48.187996 98.056091
v 63.986870 48.259037 97.799927
v 63.984661 48.018158 98.066620
v 63.955288 47.966232 98.959297
v 63.623737 48.120804 98.986816
v 63.924549 48.175537 99.437912
v 63.904205 48.668316 97.641884
v 63.855061 48.435429 99.920830
v 63.856987 48.771179 100.300804
v 63.886929 49.225685 97.580322
v 63.476273 49.283607 100.908264
v 63.886162 49.204777 100.588936
v 63.886795 49.793602 97.617943
v 63.645088 49.781548 101.035339
v 64.011284 49.744457 100.693268
v 63.876415 50.236675 97.774612
v 63.839298 50.115520 100.963860
v 63.632668 50.398693 101.186157
v 63.885799 50.589081 98.095322
v 63.826256 50.843426 98.570854
v 63.622913 51.006313 100.998672
v 63.803192 50.656963 100.949387
v 63.846397 50.960484 100.488319
v 63.792206 51.063915 99.044868
v 63.487835 51.430023 100.038277
v 63.790287 51.198265 99.966270
v 63.346722 51.446709 100.949265
v 64.511330 48.137737 97.720924
v 64.469482 47.773617 98.036697
v 64.453712 47.754852 98.986122
v 64.539604 48.084816 99.505661
v 64.464874 48.644806 97.563278
v 64.390755 48.487259 99.880615
v 64.286377 48.811653 100.176712
v 64.460075 49.222633 97.533943
v 64.332611 49.237461 100.305687
v 64.447891 49.782669 97.619408
v 64.365425 49.812576 100.354309
v 64.363998 50.191093 97.794312
v 63.951031 50.393005 100.850121
v 64.256630 50.311325 100.397621
v 64.387711 50.463211 98.086304
v 64.121620 50.910240 99.023270
v 64.459244 50.734646 98.990135
v 64.108078 50.920307 99.987640
v 64.384697 50.610485 99.940239
v 64.809784 47.532398 98.033676
v 65.169067 47.602180 97.763107
v 65.135689 47.269344 98.046097
v 65.123161 47.252140 98.964806
v 64.800514 47.520977 98.975189
v 65.124649 47.558914 99.321648
v 65.062286 48.070114 97.604080
v 65.059166 48.069080 99.623627
v 65.046875 48.638885 97.528114
v 64.651726 48.688225 99.915504
v 65.088593 48.588135 99.728493
v 65.042183 49.218063 97.558006
v 64.736252 49.224762 99.982162
v 65.160278 49.220016 99.700592
v 65.001572 49.729870 97.713081
v 64.724609 49.805416 99.972855
v 65.096657 49.799557 99.592293
v 65.060562 50.127766 98.025444
v 64.720627 50.327694 98.040436
v 65.008667 50.330776 98.516289
v 64.604675 50.327187 99.908005
v 64.934723 50.282509 99.407692
v 64.921638 50.450474 98.989586
v 65.441795 47.011284 98.052414
v 65.743050 47.083965 97.797173
v 65.736710 46.819717 98.065643
v 65.737335 46.691471 98.947868
v 65.425827 46.969196 98.964401
v 65.716072 46.965069 99.323326
v 65.654541 47.499207 97.632843
v 65.585106 47.415138 99.638962
v 65.634148 48.054928 97.536003
v 65.686539 47.790604 99.927856
v 65.514656 48.042225 99.861252
v 65.885368 47.988873 100.064980
v 65.631386 48.636757 97.522079
v 65.692734 48.239120 99.903137
v 65.581978 48.689522 99.706749
v 65.618279 49.196964 97.617790
v 65.627274 49.224533 99.490936
v 65.530983 49.608360 97.788399
v 65.523224 49.697411 99.283028
v 65.534042 49.877781 98.063118
v 65.220718 50.246815 98.988045
v 65.528503 49.998684 98.944008
v 66.048225 46.451904 98.973236
v 66.256271 46.359283 98.515015
v 66.336906 46.262432 98.972733
v 66.301208 46.444878 99.299301
v 66.264442 46.958435 97.713417
v 66.200699 46.553917 98.019699
v 66.167366 46.832493 99.640091
v 66.222420 47.472717 97.561958
v 66.229309 47.184223 99.984062
v 65.945023 47.483166 99.972130
v 66.353485 47.587700 100.203285
v 66.218018 48.052006 97.512009
v 66.242386 47.919228 100.187553
v 66.213326 48.630886 97.563530
v 66.219833 48.300785 99.950417
v 66.212090 48.724533 99.641312
v 66.168800 49.136951 97.719833
v 66.177452 49.161411 99.337898
v 66.203735 49.489815 98.040718
v 65.855904 49.703392 98.042435
v 65.865234 49.736885 98.966713
v 66.210220 49.501816 98.965164
v 66.530190 46.317005 98.026917
v 66.924751 46.424122 97.759171
v 66.858688 46.073936 98.052109
v 66.797470 45.984112 98.997910
v 66.767609 46.272102 99.533463
v 66.819786 46.897476 97.601921
v 66.823227 46.607872 99.975128
v 66.523033 46.892891 99.983414
v 66.930954 47.005802 100.225174
v 66.804939 47.466953 97.522133
v 66.821648 47.462669 100.291756
v 66.801247 48.048458 97.540092
v 66.712181 47.856121 100.190964
v 66.781441 48.605278 97.632088
v 66.764557 48.245579 99.925293
v 66.806206 48.633614 99.565453
v 66.691971 49.016449 97.800552
v 66.705765 49.032066 99.245506
v 66.692757 49.256203 98.066368
v 66.696953 49.262253 98.937744
v 67.181168 45.793156 98.044464
v 67.525146 45.843342 97.772133
v 67.479774 45.504597 98.044197
v 67.433830 45.459576 98.989754
v 67.125046 45.737175 98.991463
v 67.405426 45.726311 99.490112
v 67.413940 46.318546 97.619682
v 67.419632 46.031376 99.967834
v 67.121758 46.319111 99.971588
v 67.515884 46.419872 100.234528
v 67.392578 46.882584 97.536331
v 67.412529 46.899651 100.333450
v 67.386780 47.462791 97.540436
v 67.345520 47.384701 100.264587
v 67.365730 48.027771 97.619644
v 67.089867 48.038204 99.985718
v 67.413879 47.813007 100.020432
v 67.440514 48.156860 99.664032
v 67.256508 48.501850 97.770752
v 67.303864 48.549652 99.320763
v 67.293037 48.830139 98.047485
v 66.990883 49.083992 98.051086
v 66.993462 49.087772 98.952499
v 67.300461 48.838371 98.961716
v 67.772530 45.211617 98.044014
v 68.109489 45.258152 97.770714
v 68.071449 44.928329 98.047729
v 68.027985 44.880768 98.988487
v 67.736771 45.175777 98.986671
v 68.000290 45.146301 99.486595
v 68.000244 45.732224 97.619667
v 68.008537 45.447769 99.966125
v 67.718300 45.743294 99.965385
v 68.101433 45.833431 100.238411
v 67.979202 46.297203 97.540443
v 68.001694 46.318653 100.365089
v 67.972786 46.876789 97.540443
v 67.964821 46.851963 100.350571
v 67.951897 47.441902 97.619217
v 67.881927 47.281677 100.222092
v 67.840874 47.916714 97.772064
v 67.925179 47.646370 99.924957
v 67.912262 47.996040 99.444901
v 67.885452 48.254631 98.044197
v 67.591812 48.546707 98.044167
v 67.605003 48.557915 98.967018
v 67.913483 48.279648 98.979103
v 68.370499 44.665543 98.052467
v 68.673027 44.739906 97.797104
v 68.665283 44.473164 98.065536
v 68.633278 44.308361 98.971657
v 68.328964 44.597305 98.986053
v 68.589859 44.564465 99.484947
v 68.584694 45.154736 97.632332
v 68.594963 44.862179 99.965973
v 68.304810 45.157825 99.965065
v 68.687424 45.247433 100.238411
v 68.564758 45.711544 97.540092
v 68.585861 45.731873 100.378761
v 68.558792 46.290798 97.540451
v 68.560158 46.287537 100.399353
v 68.538498 46.856503 97.617271
v 68.517731 46.804508 100.295715
v 68.432190 47.335743 97.766418
v 68.253380 47.438049 99.974564
v 68.577629 47.212055 100.009300
v 68.588722 47.531624 99.538292
v 68.502441 47.681564 98.054848
v 68.184479 47.966423 98.044678
v 68.235214 48.015396 98.990410
v 68.570763 47.777905 98.996223
v 68.943321 44.041389 98.998398
v 69.165070 43.968624 98.507172
v 69.241005 43.749474 99.002426
v 69.184433 43.987579 99.481651
v 69.194603 44.614208 97.713425
v 69.125854 44.203331 98.016693
v 69.181152 44.276413 99.965439
v 68.890862 44.571846 99.965065
v 69.273376 44.661377 100.238457
v 69.152435 45.128727 97.561974
v 69.171074 45.145077 100.384155
v 69.144859 45.704872 97.546379
v 69.148888 45.707191 100.420113
v 69.124924 46.270920 97.615829
v 69.126740 46.263199 100.372414
v 69.022827 46.754509 97.761314
v 69.044510 46.691639 100.211403
v 69.110664 47.135635 98.036972
v 68.815239 47.427288 98.042931
v 69.095245 47.390812 98.524422
v 69.085381 47.038887 99.910439
v 69.079865 47.328327 99.426399
v 69.033119 47.505516 98.984253
v 69.536819 43.460144 98.996887
v 69.770645 43.401459 98.518158
v 69.830132 43.166824 99.003113
v 69.771469 43.400650 99.481834
v 69.453415 43.966450 98.017975
v 69.850105 44.075264 97.753685
v 69.765663 43.689743 98.031487
v 69.766998 43.690487 99.964752
v 69.477699 43.986652 99.964600
v 69.859375 44.075348 100.238495
v 69.749405 44.553028 97.600441
v 69.757080 44.559071 100.384163
v 69.731743 45.119747 97.562271
v 69.734001 45.121998 100.419724
v 69.710938 45.684933 97.615845
v 69.710953 45.684986 100.384300
v 69.608696 46.168713 97.761383
v 69.610085 46.167942 100.239899
v 69.700974 46.553490 98.035233
v 69.404434 46.843426 98.035271
v 69.695885 46.841858 98.518738
v 69.392372 46.818005 99.948387
v 69.694252 46.545502 99.960281
v 69.691429 46.835350 99.477989
v 69.325485 47.324787 98.991600
v 69.630226 47.066238 98.997574
v 70.119461 42.871021 98.997604
v 70.357574 42.814423 98.518326
v 70.411392 42.573299 99.001610
v 70.338623 42.795059 99.492836
v 70.060478 43.396996 98.035278
v 70.445366 43.489353 97.761497
v 70.356644 43.107689 98.035423
v 70.336449 43.083420 99.982002
v 70.059746 43.395668 99.968521
v 70.445267 43.480103 100.246277
v 70.342926 43.973484 97.616302
v 70.343498 43.972939 100.383690
v 70.319374 44.535358 97.576225
v 70.320000 44.535995 100.419731
v 70.296921 45.098923 97.615829
v 70.296928 45.098927 100.384163
v 70.194702 45.582687 97.761375
v 70.194672 45.582714 100.238609
v 70.286987 45.967484 98.035255
v 69.990433 46.257431 98.035286
v 70.281898 46.255863 98.518753
v 69.993538 46.261013 99.964859
v 70.283432 45.964443 99.964729
v 70.281868 46.255901 99.481239
v 69.931374 46.783852 99.003105
v 70.223854 46.491367 98.996872
v 70.671288 42.255894 99.027550
v 70.933006 42.215969 98.514847
v 70.947235 41.936581 99.009766
v 71.030807 41.996098 99.947449
v 70.843529 42.295654 99.934334
v 71.110123 42.303040 100.202805
v 70.646172 42.810944 98.034538
v 71.030144 42.904316 97.760529
v 70.945053 42.525833 98.039780
v 70.573318 42.755833 99.983315
v 70.984215 42.824574 100.286644
v 70.929848 43.387802 97.621101
v 70.923042 43.379402 100.399559
v 70.905190 43.950893 97.579872
v 70.905365 43.949371 100.423775
v 70.882988 44.512951 97.615685
v 70.882935 44.512924 100.384163
v 70.780724 44.996700 97.761383
v 70.780701 44.996696 100.238609
v 70.872971 45.381481 98.035233
v 70.576424 45.671436 98.035278
v 70.867912 45.669872 98.518791
v 70.579491 45.674965 99.964737
v 70.869438 45.378422 99.964722
v 70.867859 45.669891 99.481216
v 70.517365 46.197857 99.003120
v 70.809853 45.905380 98.996895
v 71.474808 41.146095 99.034660
v 71.672775 41.131168 98.752953
v 71.665451 40.865536 99.037079
v 71.558685 41.059826 99.484581
v 71.194244 41.608063 99.009735
v 71.516960 41.608730 98.514252
v 71.515137 41.332241 99.973091
v 71.282578 41.666775 99.943604
v 71.623199 41.724785 100.242210
v 71.245041 42.247063 98.050751
v 71.594673 42.381203 97.790504
v 71.542503 42.002731 98.074814
v 71.524940 42.214310 100.367798
v 71.513550 42.811604 97.645706
v 71.498718 42.782417 100.438034
v 71.484901 43.362816 97.599953
v 71.489738 43.361748 100.437744
v 71.461182 43.928749 97.627594
v 71.468918 43.926937 100.384148
v 71.365929 44.412075 97.760109
v 71.366676 44.410690 100.238625
v 71.459000 44.795532 98.035149
v 71.162422 45.085430 98.035286
v 71.453880 45.083858 98.518753
v 71.165497 45.088982 99.964760
v 71.455437 44.792435 99.964714
v 71.453850 45.083904 99.481232
v 71.103363 45.611862 99.003105
v 71.395866 45.319378 98.996895
v 71.915237 40.608463 99.065895
v 72.182625 40.660694 98.812576
v 72.177032 40.484402 99.077469
v 72.199013 40.483521 99.922607
v 72.047623 40.584053 99.924400
v 72.254593 40.643349 100.137482
v 72.096558 41.049782 98.554886
v 71.755569 41.006439 99.978577
v 72.159645 41.075455 100.265213
v 72.004074 41.464199 98.290863
v 72.094727 41.622131 100.398476
v 72.113876 42.279125 97.746689
v 72.055374 41.845352 97.980812
v 72.080841 42.194206 100.463982
v 72.051071 42.775837 97.663246
v 72.074875 42.774857 100.453621
v 72.001068 43.319283 97.708702
v 72.054504 43.340504 100.382713
v 71.889648 43.846519 97.788612
v 71.952515 43.824837 100.238686
v 72.015999 44.194386 98.051598
v 71.743507 44.496243 98.039719
v 72.033340 44.493420 98.521957
v 71.751480 44.502960 99.964752
v 72.041428 44.206436 99.964722
v 72.039864 44.497898 99.481239
v 71.689362 45.025871 99.003105
v 71.981850 44.733383 98.996887
v 72.567665 40.664726 98.798019
v 72.570953 40.474991 99.074791
v 72.571327 40.480648 99.923309
v 72.559395 40.665356 100.167313
v 72.639717 41.086094 98.482155
v 72.648712 41.056358 100.334602
v 72.383553 41.639099 98.041580
v 72.595261 41.856346 97.922241
v 72.650383 41.498398 98.146866
v 72.665581 41.609062 100.435875
v 72.521408 42.211040 97.800591
v 72.660011 42.189713 100.458672
v 72.465927 42.684330 97.799942
v 72.639969 42.753937 100.380920
v 72.631378 43.053535 98.028389
v 72.410072 43.379620 97.990723
v 72.729622 43.390732 98.461716
v 72.533745 43.234188 100.233582
v 72.236885 43.887371 98.089561
v 72.526314 43.881874 98.573586
v 72.333633 43.912663 99.963005
v 72.625290 43.617241 99.957069
v 72.588814 43.897247 99.475586
v 72.264236 44.432243 99.002388
v 72.522781 44.127491 99.008385
v 72.848885 40.584053 99.051537
v 72.847420 40.586285 99.946350
v 73.138168 41.133442 98.714874
v 73.157326 40.823017 99.041786
v 73.152191 40.828796 99.951370
v 73.110016 41.160477 100.224495
v 72.834045 41.675789 98.113365
v 73.223671 41.614376 98.460052
v 73.215843 41.631634 100.351303
v 72.897491 42.193962 98.064468
v 73.272545 42.181671 98.430565
v 73.212349 42.170349 100.354134
v 72.821022 42.724602 98.093193
v 73.174683 42.702694 98.570152
v 73.113358 42.644802 100.229301
v 72.975914 43.372749 99.003815
v 73.210381 43.035000 99.011246
v 72.879562 43.304443 99.945129
v 73.164291 42.986427 99.955345
v 72.703529 43.835121 99.015778
v 73.446205 41.113270 99.042198
v 73.441833 41.117409 99.951744
v 73.614899 41.699638 98.780968
v 73.685814 41.421455 99.051064
v 73.684715 41.421848 99.946602
v 73.607384 41.709045 100.175064
v 73.621506 42.105858 98.766808
v 73.606613 42.088703 100.173737
v 73.690369 42.382362 99.046974
v 73.465332 42.707226 99.024635
v 73.442703 42.681381 99.952301
v 73.683815 42.375401 99.946198
v 73.796227 41.699226 99.074005
v 73.794121 41.699394 99.923744
v 73.796982 42.098873 99.073174
v 73.793709 42.098385 99.923615
# 1320 vertices, 0 vertices normals

f 3 2 1
f 5 4 1
f 1 4 3
f 5 6 4
f 9 8 7
f 9 7 2
f 7 1 2
f 7 10 1
f 12 5 11
f 5 10 11
f 5 1 10
f 5 12 6
f 15 14 13
f 17 16 13
f 13 16 15
f 19 18 17
f 17 18 16
f 18 19 8
f 19 7 8
f 19 20 7
f 7 21 10
f 7 20 21
f 11 10 22
f 22 10 21
f 13 14 23
f 23 14 24
f 13 25 17
f 13 23 25
f 17 26 19
f 17 25 26
f 19 27 20
f 19 26 27
f 20 28 21
f 20 27 28
f 22 21 29
f 29 21 28
f 24 30 23
f 32 31 30
f 31 23 30
f 31 25 23
f 25 33 26
f 25 31 33
f 26 34 27
f 26 33 34
f 36 28 35
f 28 34 35
f 28 27 34
f 28 36 29
f 32 37 31
f 31 37 33
f 33 37 38
f 33 38 34
f 34 38 39
f 34 39 35
f 42 41 40
f 44 43 40
f 40 43 42
f 44 45 43
f 48 47 46
f 48 46 41
f 46 40 41
f 46 49 40
f 40 50 44
f 40 49 50
f 45 44 51
f 51 44 50
f 54 53 52
f 54 52 47
f 47 52 46
f 52 2 46
f 2 3 46
f 46 3 4
f 46 4 49
f 49 4 6
f 55 49 6
f 50 49 55
f 51 50 56
f 56 50 55
f 59 58 57
f 61 60 57
f 57 60 59
f 63 62 61
f 61 62 60
f 62 63 53
f 53 63 52
f 63 8 52
f 8 9 52
f 52 9 2
f 11 64 12
f 64 65 12
f 12 65 6
f 65 66 6
f 66 55 6
f 55 66 56
f 69 68 67
f 69 67 58
f 58 67 57
f 67 14 57
f 14 15 57
f 57 15 16
f 57 16 61
f 61 16 18
f 61 18 63
f 63 18 8
f 22 70 64
f 22 64 11
f 65 64 71
f 71 64 70
f 67 68 72
f 72 68 73
f 72 24 14
f 72 14 67
f 29 74 70
f 29 70 22
f 71 70 75
f 75 70 74
f 72 73 76
f 76 73 77
f 78 30 24
f 72 78 24
f 76 78 72
f 78 32 30
f 35 79 36
f 79 80 36
f 36 80 29
f 80 81 29
f 81 74 29
f 74 81 75
f 77 82 76
f 76 82 78
f 78 82 83
f 83 85 84
f 83 84 37
f 78 83 37
f 32 78 37
f 86 38 37
f 86 37 84
f 38 86 87
f 88 38 87
f 39 38 88
f 35 39 79
f 39 89 79
f 39 88 89
f 79 89 80
f 85 90 84
f 84 90 86
f 86 90 91
f 86 91 87
f 94 93 92
f 96 95 92
f 92 95 94
f 98 97 96
f 96 97 95
f 98 99 97
f 92 93 100
f 100 93 101
f 92 102 96
f 92 100 102
f 104 98 103
f 98 102 103
f 98 96 102
f 98 104 99
f 100 101 105
f 105 101 106
f 100 107 102
f 100 105 107
f 103 102 108
f 108 102 107
f 106 109 105
f 105 109 107
f 107 109 110
f 107 110 108
f 113 112 111
f 115 114 111
f 111 114 113
f 117 116 115
f 115 116 114
f 117 118 116
f 120 119 42
f 42 119 41
f 43 111 112
f 120 43 112
f 42 43 120
f 111 43 45
f 121 111 45
f 115 111 121
f 115 122 117
f 115 121 122
f 118 117 123
f 123 117 122
f 125 124 48
f 48 124 47
f 48 41 119
f 48 119 125
f 51 126 121
f 51 121 45
f 121 127 122
f 121 126 127
f 123 122 128
f 128 122 127
f 130 129 54
f 54 129 53
f 54 47 124
f 54 124 130
f 56 131 126
f 56 126 51
f 133 127 132
f 127 131 132
f 127 126 131
f 127 133 128
f 136 135 134
f 58 59 134
f 59 136 134
f 59 137 136
f 138 59 60
f 138 137 59
f 139 60 62
f 139 138 60
f 62 53 129
f 62 129 139
f 65 140 66
f 140 141 66
f 66 141 56
f 141 142 56
f 142 131 56
f 131 142 132
f 145 144 143
f 145 143 135
f 135 143 134
f 143 68 134
f 68 69 134
f 134 69 58
f 147 146 140
f 65 147 140
f 71 147 65
f 140 146 141
f 143 144 148
f 148 144 149
f 148 73 68
f 148 68 143
f 75 147 71
f 75 150 147
f 148 149 151
f 151 149 152
f 151 77 73
f 151 73 148
f 154 153 81
f 154 81 80
f 75 81 150
f 150 81 153
f 152 155 151
f 155 157 156
f 155 156 82
f 151 155 82
f 77 151 82
f 158 83 82
f 158 82 156
f 158 85 83
f 160 159 88
f 160 88 87
f 88 161 89
f 159 161 88
f 80 89 154
f 154 89 161
f 157 162 156
f 156 162 158
f 158 162 163
f 158 163 85
f 163 90 85
f 163 164 90
f 90 165 91
f 164 165 90
f 87 91 160
f 160 91 165
f 167 166 94
f 94 166 93
f 168 94 95
f 168 167 94
f 169 95 97
f 169 168 95
f 97 99 169
f 169 99 170
f 166 101 93
f 171 101 166
f 103 172 104
f 172 173 104
f 173 99 104
f 173 170 99
f 171 106 101
f 174 106 171
f 108 175 172
f 108 172 103
f 173 172 176
f 176 172 175
f 179 178 177
f 177 180 109
f 174 177 109
f 106 174 109
f 177 174 179
f 181 110 109
f 181 109 180
f 181 182 110
f 110 182 108
f 182 183 108
f 183 175 108
f 175 183 176
f 177 178 184
f 184 178 185
f 177 186 180
f 177 184 186
f 180 187 181
f 180 186 187
f 182 181 188
f 188 181 187
f 184 185 189
f 189 185 190
f 184 191 186
f 184 189 191
f 193 187 192
f 187 191 192
f 187 186 191
f 187 193 188
f 196 195 194
f 196 194 190
f 194 189 190
f 194 197 189
f 189 198 191
f 189 197 198
f 192 191 199
f 199 191 198
f 194 195 200
f 200 195 201
f 194 202 197
f 194 200 202
f 204 198 203
f 198 202 203
f 198 197 202
f 198 204 199
f 200 201 205
f 205 201 206
f 208 202 207
f 202 205 207
f 202 200 205
f 202 208 203
f 206 209 205
f 205 209 207
f 212 211 210
f 214 213 210
f 210 213 212
f 214 215 213
f 218 217 216
f 220 219 216
f 216 219 218
f 219 220 211
f 220 210 211
f 220 221 210
f 210 222 214
f 210 221 222
f 215 214 223
f 223 214 222
f 225 224 113
f 113 224 112
f 114 216 217
f 225 114 217
f 113 114 225
f 216 114 116
f 216 116 220
f 220 116 118
f 226 220 118
f 221 220 226
f 221 227 222
f 221 226 227
f 223 222 228
f 228 222 227
f 230 229 120
f 120 229 119
f 120 112 224
f 120 224 230
f 123 231 226
f 123 226 118
f 233 227 232
f 227 231 232
f 227 226 231
f 227 233 228
f 235 234 125
f 125 234 124
f 125 119 229
f 125 229 235
f 128 236 231
f 128 231 123
f 232 231 237
f 237 231 236
f 239 238 130
f 130 238 129
f 130 124 234
f 130 234 239
f 241 240 133
f 241 133 132
f 128 133 236
f 133 242 236
f 133 240 242
f 236 242 237
f 245 244 243
f 135 136 243
f 136 245 243
f 136 246 245
f 247 136 137
f 247 246 136
f 248 137 138
f 248 247 137
f 249 138 139
f 249 248 138
f 139 129 238
f 139 238 249
f 251 250 142
f 251 142 141
f 132 142 241
f 241 142 250
f 243 244 145
f 244 144 145
f 244 252 144
f 243 145 135
f 254 253 146
f 254 146 147
f 141 146 251
f 251 146 253
f 252 149 144
f 255 149 252
f 150 254 147
f 150 256 254
f 255 152 149
f 257 152 255
f 259 258 153
f 259 153 154
f 150 153 256
f 256 153 258
f 155 152 260
f 152 261 260
f 152 257 261
f 260 157 155
f 264 263 262
f 266 265 262
f 266 262 263
f 159 160 265
f 266 159 265
f 267 159 266
f 159 268 161
f 267 268 159
f 154 161 259
f 259 161 268
f 261 269 260
f 260 269 157
f 269 162 157
f 269 270 162
f 162 271 163
f 270 271 162
f 262 164 264
f 164 271 264
f 164 163 271
f 164 262 165
f 165 262 265
f 165 265 160
f 274 273 272
f 276 275 272
f 272 275 274
f 278 277 276
f 276 277 275
f 278 279 277
f 272 273 167
f 273 166 167
f 273 280 166
f 272 167 168
f 272 168 276
f 276 168 169
f 276 169 278
f 169 170 278
f 170 279 278
f 170 281 279
f 280 171 166
f 282 171 280
f 173 281 170
f 173 283 281
f 286 285 284
f 282 286 284
f 174 282 284
f 171 282 174
f 176 283 173
f 176 287 283
f 284 285 179
f 285 178 179
f 285 288 178
f 284 179 174
f 290 289 183
f 290 183 182
f 176 183 287
f 287 183 289
f 293 292 291
f 288 293 291
f 185 288 291
f 178 288 185
f 188 290 182
f 188 294 290
f 291 292 295
f 295 292 296
f 295 190 185
f 295 185 291
f 192 297 193
f 297 298 193
f 298 188 193
f 298 294 188
f 301 300 299
f 301 299 296
f 296 299 295
f 299 195 295
f 195 196 295
f 295 196 190
f 303 302 297
f 192 303 297
f 199 303 192
f 297 302 298
f 299 300 304
f 304 300 305
f 304 201 195
f 304 195 299
f 307 306 204
f 307 204 203
f 199 204 303
f 303 204 306
f 310 309 308
f 310 308 305
f 308 304 305
f 308 311 304
f 311 206 201
f 311 201 304
f 207 312 208
f 312 313 208
f 313 203 208
f 313 307 203
f 316 315 314
f 316 314 309
f 314 308 309
f 314 317 308
f 308 318 311
f 308 317 318
f 319 209 206
f 311 319 206
f 318 319 311
f 319 320 209
f 209 320 207
f 320 321 207
f 321 312 207
f 312 321 313
f 324 323 322
f 211 212 322
f 212 324 322
f 212 325 324
f 213 314 315
f 325 213 315
f 212 213 325
f 314 213 215
f 326 314 215
f 317 314 326
f 317 327 318
f 317 326 327
f 318 328 319
f 318 327 328
f 320 319 329
f 329 319 328
f 331 330 218
f 218 330 217
f 219 322 323
f 331 219 323
f 218 219 331
f 322 219 211
f 223 332 326
f 223 326 215
f 326 333 327
f 326 332 333
f 335 328 334
f 328 333 334
f 328 327 333
f 328 335 329
f 337 336 225
f 225 336 224
f 225 217 330
f 225 330 337
f 228 338 332
f 228 332 223
f 340 333 339
f 333 338 339
f 333 332 338
f 333 340 334
f 342 341 230
f 230 341 229
f 230 224 336
f 230 336 342
f 232 343 233
f 343 344 233
f 233 344 228
f 344 345 228
f 345 338 228
f 338 345 339
f 347 346 235
f 235 346 234
f 235 229 341
f 235 341 347
f 349 348 343
f 232 349 343
f 237 349 232
f 343 348 344
f 350 238 239
f 351 350 239
f 234 351 239
f 346 351 234
f 241 352 240
f 240 352 353
f 354 240 353
f 242 240 354
f 237 242 349
f 349 242 354
f 356 355 245
f 245 355 244
f 357 245 246
f 357 356 245
f 359 357 358
f 357 247 358
f 357 246 247
f 248 360 247
f 247 360 358
f 249 361 248
f 248 361 360
f 238 350 249
f 350 361 249
f 350 362 361
f 350 351 363
f 350 363 362
f 365 364 250
f 365 250 251
f 241 250 352
f 250 366 352
f 250 364 366
f 352 366 353
f 369 368 367
f 355 369 367
f 252 355 367
f 244 355 252
f 370 359 358
f 370 358 360
f 370 360 371
f 371 360 361
f 371 361 372
f 372 361 362
f 372 362 373
f 373 362 363
f 376 375 374
f 253 254 374
f 375 253 374
f 377 253 375
f 251 253 365
f 365 253 377
f 367 368 378
f 378 368 379
f 378 255 252
f 378 252 367
f 376 374 380
f 376 380 381
f 256 380 254
f 254 380 374
f 378 379 382
f 382 379 383
f 382 257 255
f 382 255 378
f 386 385 384
f 388 387 384
f 388 384 385
f 390 389 387
f 390 387 388
f 389 390 381
f 389 381 380
f 259 389 380
f 258 259 380
f 258 380 256
f 383 391 382
f 257 382 391
f 392 257 391
f 261 257 392
f 395 394 393
f 263 264 393
f 394 263 393
f 396 263 394
f 384 266 386
f 266 396 386
f 266 263 396
f 266 384 267
f 267 384 387
f 267 387 268
f 268 387 389
f 268 389 259
f 392 397 261
f 261 397 269
f 269 398 270
f 397 398 269
f 393 271 395
f 271 398 395
f 271 270 398
f 271 393 264
f 400 399 274
f 274 399 273
f 401 274 275
f 401 400 274
f 402 275 277
f 402 401 275
f 277 279 402
f 402 279 403
f 399 280 273
f 404 280 399
f 281 403 279
f 281 405 403
f 404 282 280
f 406 282 404
f 283 405 281
f 283 407 405
f 409 408 286
f 286 408 285
f 286 282 406
f 286 406 409
f 287 407 283
f 287 410 407
f 408 288 285
f 411 288 408
f 413 412 289
f 413 289 290
f 287 289 410
f 410 289 412
f 415 414 293
f 293 414 292
f 293 288 411
f 293 411 415
f 294 413 290
f 294 416 413
f 414 296 292
f 417 296 414
f 298 416 294
f 298 418 416
f 420 419 301
f 301 419 300
f 301 296 417
f 301 417 420
f 422 421 302
f 422 302 303
f 298 302 418
f 418 302 421
f 419 305 300
f 423 305 419
f 307 424 306
f 424 425 306
f 425 303 306
f 425 422 303
f 427 426 310
f 310 426 309
f 310 305 423
f 310 423 427
f 429 428 424
f 307 429 424
f 313 429 307
f 424 428 425
f 431 430 316
f 316 430 315
f 316 309 426
f 316 426 431
f 320 432 321
f 432 433 321
f 433 313 321
f 433 429 313
f 435 434 324
f 324 434 323
f 436 324 325
f 436 435 324
f 325 315 430
f 325 430 436
f 438 437 432
f 320 438 432
f 329 438 320
f 432 437 433
f 440 439 331
f 331 439 330
f 331 323 434
f 331 434 440
f 442 441 335
f 442 335 334
f 329 335 438
f 438 335 441
f 444 443 337
f 337 443 336
f 337 330 439
f 337 439 444
f 446 445 340
f 446 340 339
f 334 340 442
f 442 340 445
f 447 341 342
f 448 447 342
f 336 448 342
f 443 448 336
f 344 449 345
f 449 450 345
f 450 339 345
f 450 446 339
f 451 346 347
f 341 447 347
f 447 451 347
f 447 452 451
f 447 448 453
f 447 453 452
f 455 454 348
f 455 348 349
f 344 348 449
f 348 456 449
f 348 454 456
f 449 456 450
f 457 351 451
f 451 351 346
f 458 451 452
f 457 451 458
f 452 453 459
f 452 459 458
f 462 461 460
f 354 353 460
f 461 354 460
f 463 354 461
f 349 354 455
f 455 354 463
f 466 465 464
f 355 356 464
f 356 466 464
f 356 467 466
f 468 356 357
f 468 467 356
f 357 359 468
f 468 359 469
f 470 363 457
f 457 363 351
f 471 457 458
f 470 457 471
f 458 459 472
f 473 458 472
f 471 458 473
f 364 365 473
f 472 364 473
f 474 364 472
f 460 366 462
f 366 474 462
f 366 364 474
f 366 460 353
f 464 465 369
f 465 368 369
f 465 475 368
f 464 369 355
f 359 370 476
f 477 359 476
f 469 359 477
f 371 478 370
f 370 478 476
f 372 479 371
f 371 479 478
f 373 480 372
f 372 480 479
f 363 470 373
f 470 480 373
f 470 481 480
f 376 481 375
f 481 471 375
f 481 470 471
f 375 471 377
f 377 471 473
f 377 473 365
f 475 379 368
f 482 379 475
f 477 476 483
f 477 483 484
f 485 476 478
f 483 476 485
f 486 478 479
f 485 478 486
f 487 479 480
f 486 479 487
f 488 480 481
f 487 480 488
f 381 488 376
f 376 488 481
f 482 383 379
f 489 383 482
f 484 483 490
f 484 490 491
f 492 483 485
f 490 483 492
f 386 492 385
f 492 486 385
f 492 485 486
f 385 486 388
f 388 486 487
f 388 487 390
f 390 487 488
f 390 488 381
f 489 493 383
f 383 493 391
f 392 391 493
f 392 493 494
f 491 490 394
f 395 491 394
f 495 491 395
f 394 490 396
f 396 490 492
f 396 492 386
f 494 496 392
f 392 496 397
f 397 497 398
f 496 497 397
f 395 398 495
f 495 398 497
f 498 399 400
f 401 499 400
f 400 499 498
f 402 500 401
f 401 500 499
f 403 500 402
f 501 404 498
f 498 404 399
f 499 503 502
f 501 499 502
f 498 499 501
f 505 504 503
f 499 505 503
f 500 505 499
f 405 505 403
f 403 505 500
f 507 506 501
f 506 404 501
f 506 406 404
f 507 501 502
f 504 505 508
f 504 508 509
f 407 508 405
f 405 508 505
f 511 510 409
f 409 510 408
f 409 406 506
f 409 506 511
f 509 508 512
f 509 512 513
f 410 512 407
f 407 512 508
f 510 411 408
f 514 411 510
f 513 512 412
f 413 513 412
f 515 513 413
f 412 512 410
f 517 516 415
f 415 516 414
f 415 411 514
f 415 514 517
f 416 515 413
f 416 518 515
f 516 417 414
f 519 417 516
f 522 521 520
f 521 518 520
f 518 418 520
f 518 416 418
f 524 523 420
f 420 523 419
f 420 417 519
f 420 519 524
f 522 520 421
f 422 522 421
f 525 522 422
f 421 520 418
f 523 423 419
f 526 423 523
f 529 528 527
f 528 525 527
f 525 425 527
f 525 422 425
f 531 530 427
f 427 530 426
f 427 423 526
f 427 526 531
f 529 527 428
f 429 529 428
f 532 529 429
f 428 527 425
f 534 533 431
f 431 533 430
f 431 426 530
f 431 530 534
f 537 536 535
f 536 532 535
f 532 433 535
f 532 429 433
f 538 434 435
f 538 435 539
f 435 540 539
f 435 436 540
f 436 430 533
f 436 533 540
f 537 535 437
f 438 537 437
f 541 537 438
f 437 535 433
f 542 439 440
f 543 542 440
f 543 440 434
f 544 543 434
f 538 544 434
f 544 538 539
f 546 545 441
f 546 441 442
f 438 441 541
f 541 441 545
f 547 443 444
f 439 542 444
f 542 547 444
f 542 548 547
f 542 543 549
f 542 549 548
f 551 550 445
f 551 445 446
f 442 445 546
f 546 445 550
f 552 448 547
f 547 448 443
f 553 547 548
f 552 547 553
f 548 549 554
f 548 554 553
f 557 556 555
f 556 551 555
f 551 450 555
f 551 446 450
f 558 453 552
f 552 453 448
f 559 552 553
f 558 552 559
f 553 554 560
f 561 553 560
f 559 553 561
f 563 562 561
f 563 561 560
f 454 455 562
f 563 454 562
f 564 454 563
f 555 456 557
f 456 564 557
f 456 454 564
f 456 555 450
f 565 459 558
f 558 459 453
f 566 558 559
f 565 558 566
f 462 566 461
f 566 561 461
f 566 559 561
f 461 561 463
f 463 561 562
f 463 562 455
f 569 568 567
f 465 466 567
f 466 569 567
f 466 570 569
f 571 466 467
f 571 570 466
f 573 571 572
f 571 468 572
f 571 467 468
f 469 572 468
f 565 472 459
f 472 565 474
f 474 565 566
f 474 566 462
f 567 568 574
f 574 568 575
f 574 475 465
f 574 465 567
f 576 573 572
f 572 469 576
f 469 577 576
f 469 477 577
f 574 575 578
f 578 575 579
f 578 482 475
f 578 475 574
f 484 577 477
f 484 580 577
f 579 581 578
f 482 578 581
f 582 482 581
f 489 482 582
f 491 580 484
f 491 583 580
f 582 584 489
f 489 584 493
f 494 493 584
f 494 584 585
f 588 587 586
f 587 583 586
f 583 495 586
f 583 491 495
f 585 589 494
f 494 589 496
f 586 497 588
f 497 589 588
f 497 496 589
f 497 586 495
f 590 502 503
f 504 590 503
f 591 506 507
f 502 590 507
f 590 591 507
f 590 592 591
f 509 592 504
f 504 592 590
f 593 510 511
f 506 591 511
f 591 593 511
f 591 594 593
f 595 591 592
f 594 591 595
f 513 595 509
f 509 595 592
f 596 514 593
f 593 514 510
f 597 593 594
f 596 593 597
f 598 594 595
f 597 594 598
f 515 598 513
f 513 598 595
f 599 516 517
f 600 599 517
f 600 517 514
f 601 600 514
f 596 601 514
f 601 596 597
f 601 597 602
f 604 603 602
f 597 604 602
f 598 604 597
f 518 604 515
f 515 604 598
f 606 605 599
f 605 516 599
f 605 519 516
f 606 599 600
f 609 608 607
f 607 608 603
f 607 603 604
f 522 607 604
f 521 522 604
f 521 604 518
f 610 523 524
f 611 610 524
f 519 611 524
f 605 611 519
f 609 607 612
f 609 612 613
f 525 612 522
f 522 612 607
f 615 614 610
f 614 523 610
f 614 526 523
f 615 610 611
f 613 612 528
f 529 613 528
f 616 613 529
f 528 612 525
f 618 617 531
f 531 617 530
f 531 526 614
f 531 614 618
f 621 620 619
f 620 616 619
f 616 532 619
f 616 529 532
f 622 533 534
f 623 622 534
f 530 623 534
f 617 623 530
f 621 619 536
f 537 621 536
f 624 621 537
f 536 619 532
f 625 539 540
f 626 625 540
f 626 540 533
f 627 626 533
f 622 627 533
f 627 622 623
f 630 629 628
f 629 624 628
f 624 541 628
f 624 537 541
f 631 543 544
f 539 625 544
f 625 631 544
f 625 632 631
f 625 626 633
f 625 633 632
f 630 628 545
f 546 630 545
f 634 630 546
f 545 628 541
f 635 549 631
f 631 549 543
f 636 631 632
f 635 631 636
f 632 633 637
f 632 637 636
f 639 638 550
f 639 550 551
f 546 550 634
f 634 550 638
f 640 554 635
f 635 554 549
f 641 635 636
f 640 635 641
f 636 637 642
f 643 636 642
f 641 636 643
f 556 557 643
f 642 556 643
f 644 556 642
f 551 556 639
f 639 556 644
f 640 560 554
f 560 640 563
f 563 640 641
f 563 641 564
f 564 641 643
f 564 643 557
f 647 646 645
f 649 648 645
f 645 648 647
f 651 650 649
f 649 650 648
f 651 652 650
f 645 646 653
f 653 646 654
f 653 568 569
f 649 653 569
f 645 653 649
f 649 569 570
f 649 570 651
f 655 652 651
f 570 655 651
f 571 655 570
f 571 573 655
f 655 573 656
f 653 654 657
f 657 654 658
f 657 575 568
f 657 568 653
f 659 656 573
f 659 573 576
f 576 577 659
f 659 577 660
f 657 658 661
f 661 658 662
f 661 579 575
f 661 575 657
f 580 660 577
f 580 663 660
f 662 664 661
f 664 666 665
f 664 665 581
f 661 664 581
f 579 661 581
f 665 582 581
f 669 668 667
f 668 663 667
f 663 583 667
f 663 580 583
f 666 670 665
f 665 670 582
f 670 584 582
f 670 671 584
f 673 672 585
f 584 673 585
f 671 673 584
f 672 673 669
f 672 669 667
f 588 672 667
f 587 588 667
f 587 667 583
f 672 589 585
f 589 672 588
f 674 600 601
f 602 675 601
f 601 675 674
f 603 675 602
f 676 605 606
f 600 674 606
f 674 676 606
f 674 677 676
f 609 677 608
f 677 675 608
f 677 674 675
f 608 675 603
f 678 611 676
f 676 611 605
f 679 676 677
f 678 676 679
f 613 679 609
f 609 679 677
f 680 614 615
f 611 678 615
f 678 680 615
f 678 681 680
f 682 678 679
f 681 678 682
f 616 682 613
f 613 682 679
f 683 617 618
f 614 680 618
f 680 683 618
f 680 684 683
f 685 680 681
f 684 680 685
f 621 685 620
f 685 682 620
f 685 681 682
f 620 682 616
f 686 623 683
f 683 623 617
f 687 683 684
f 686 683 687
f 688 684 685
f 687 684 688
f 624 688 621
f 621 688 685
f 689 626 627
f 623 686 627
f 686 689 627
f 686 690 689
f 691 686 687
f 690 686 691
f 630 691 629
f 691 688 629
f 691 687 688
f 629 688 624
f 692 633 689
f 689 633 626
f 693 689 690
f 692 689 693
f 694 690 691
f 693 690 694
f 634 694 630
f 630 694 691
f 695 637 692
f 692 637 633
f 696 692 693
f 695 692 696
f 639 696 638
f 696 694 638
f 696 693 694
f 638 694 634
f 695 642 637
f 642 695 644
f 644 695 696
f 644 696 639
f 699 698 697
f 646 647 697
f 647 699 697
f 647 700 699
f 701 647 648
f 701 700 647
f 702 648 650
f 702 701 648
f 650 652 702
f 702 652 703
f 697 698 704
f 704 698 705
f 704 654 646
f 704 646 697
f 706 703 652
f 706 652 655
f 655 656 706
f 706 656 707
f 704 705 708
f 708 705 709
f 708 658 654
f 708 654 704
f 656 659 710
f 711 656 710
f 707 656 711
f 660 710 659
f 709 712 708
f 658 708 712
f 713 658 712
f 662 658 713
f 711 710 714
f 711 714 715
f 663 714 660
f 660 714 710
f 713 716 662
f 662 716 664
f 666 664 716
f 666 716 717
f 715 714 668
f 669 715 668
f 718 715 669
f 668 714 663
f 717 719 666
f 666 719 670
f 670 720 671
f 719 720 670
f 671 721 673
f 720 721 671
f 669 673 718
f 718 673 721
f 724 723 722
f 726 725 722
f 722 725 724
f 726 727 725
f 730 729 728
f 730 728 723
f 723 728 722
f 728 698 722
f 698 699 722
f 722 699 700
f 722 700 726
f 731 727 726
f 700 731 726
f 701 731 700
f 732 701 702
f 732 731 701
f 702 703 732
f 732 703 733
f 728 729 734
f 734 729 735
f 734 705 698
f 734 698 728
f 703 706 736
f 737 703 736
f 733 703 737
f 707 736 706
f 735 738 734
f 705 734 738
f 739 705 738
f 709 705 739
f 737 736 740
f 737 740 741
f 711 740 707
f 707 740 736
f 739 742 709
f 709 742 712
f 713 712 742
f 713 742 743
f 741 740 744
f 741 744 745
f 715 744 711
f 711 744 740
f 743 746 713
f 713 746 716
f 717 716 746
f 717 746 747
f 750 749 748
f 748 749 745
f 744 748 745
f 751 748 744
f 718 751 715
f 715 751 744
f 747 752 717
f 717 752 719
f 748 720 750
f 720 752 750
f 720 719 752
f 720 748 721
f 721 748 751
f 721 751 718
f 755 754 753
f 757 756 753
f 753 756 755
f 757 758 756
f 753 754 759
f 759 754 760
f 759 723 724
f 757 759 724
f 753 759 757
f 761 758 757
f 724 761 757
f 725 761 724
f 725 727 761
f 761 727 762
f 759 760 730
f 760 729 730
f 760 763 729
f 759 730 723
f 764 762 727
f 764 727 731
f 766 764 765
f 764 732 765
f 764 731 732
f 733 765 732
f 763 735 729
f 767 735 763
f 766 765 768
f 766 768 769
f 737 768 733
f 733 768 765
f 738 735 770
f 735 771 770
f 735 767 771
f 770 739 738
f 772 769 768
f 768 737 772
f 737 773 772
f 737 741 773
f 771 774 770
f 770 774 739
f 774 742 739
f 774 775 742
f 743 742 775
f 743 775 776
f 779 778 777
f 778 773 777
f 773 745 777
f 773 741 745
f 776 780 743
f 743 780 746
f 782 781 747
f 746 782 747
f 780 782 746
f 781 782 779
f 781 779 777
f 750 781 777
f 749 750 777
f 749 777 745
f 781 752 747
f 752 781 750
f 785 784 783
f 754 755 783
f 755 785 783
f 755 786 785
f 787 755 756
f 787 786 755
f 756 758 787
f 787 758 788
f 783 784 789
f 789 784 790
f 789 760 754
f 789 754 783
f 791 788 758
f 791 758 761
f 761 762 791
f 791 762 792
f 789 790 793
f 793 790 794
f 793 763 760
f 793 760 789
f 762 764 795
f 796 762 795
f 792 762 796
f 766 795 764
f 793 794 797
f 797 794 798
f 797 767 763
f 797 763 793
f 799 796 795
f 795 766 799
f 766 800 799
f 766 769 800
f 798 801 797
f 767 797 801
f 802 767 801
f 771 767 802
f 769 772 803
f 804 769 803
f 800 769 804
f 773 803 772
f 802 805 771
f 771 805 774
f 774 806 775
f 805 806 774
f 808 807 776
f 775 808 776
f 806 808 775
f 810 809 807
f 810 807 808
f 809 810 804
f 809 804 803
f 779 809 803
f 778 779 803
f 778 803 773
f 807 780 776
f 780 807 782
f 782 807 809
f 782 809 779
f 813 812 811
f 815 814 811
f 811 814 813
f 817 816 815
f 815 816 814
f 817 818 816
f 811 812 819
f 819 812 820
f 819 784 785
f 815 819 785
f 811 819 815
f 815 785 786
f 815 786 817
f 821 818 817
f 786 821 817
f 787 821 786
f 787 788 821
f 821 788 822
f 819 820 823
f 823 820 824
f 823 790 784
f 823 784 819
f 788 791 825
f 826 788 825
f 822 788 826
f 792 825 791
f 823 824 827
f 827 824 828
f 827 794 790
f 827 790 823
f 829 826 825
f 825 792 829
f 792 830 829
f 792 796 830
f 828 831 827
f 794 827 831
f 832 794 831
f 798 794 832
f 796 799 833
f 834 796 833
f 830 796 834
f 800 833 799
f 832 835 798
f 798 835 801
f 802 801 835
f 802 835 836
f 834 833 837
f 834 837 838
f 804 837 800
f 800 837 833
f 836 839 802
f 802 839 805
f 805 840 806
f 839 840 805
f 806 841 808
f 840 841 806
f 837 810 838
f 810 841 838
f 810 808 841
f 810 837 804
f 844 843 842
f 842 845 844
f 842 843 813
f 843 812 813
f 843 846 812
f 847 845 842
f 813 847 842
f 814 847 813
f 848 814 816
f 848 847 814
f 816 818 848
f 848 818 849
f 846 820 812
f 850 820 846
f 818 821 851
f 852 818 851
f 849 818 852
f 822 851 821
f 850 824 820
f 853 824 850
f 854 852 851
f 851 822 854
f 822 855 854
f 822 826 855
f 853 828 824
f 856 828 853
f 826 829 857
f 858 826 857
f 855 826 858
f 830 857 829
f 856 859 828
f 828 859 831
f 832 831 859
f 832 859 860
f 858 857 861
f 858 861 862
f 834 861 830
f 830 861 857
f 860 863 832
f 832 863 835
f 865 864 836
f 835 865 836
f 863 865 835
f 867 866 864
f 867 864 865
f 866 867 862
f 861 866 862
f 868 866 861
f 838 868 834
f 834 868 861
f 864 839 836
f 839 864 840
f 840 864 866
f 840 866 841
f 841 866 868
f 841 868 838
f 871 870 869
f 843 844 869
f 844 871 869
f 844 872 871
f 874 873 845
f 873 844 845
f 873 872 844
f 874 875 873
f 869 870 876
f 876 870 877
f 876 846 843
f 876 843 869
f 847 874 845
f 878 875 874
f 847 878 874
f 848 878 847
f 848 849 878
f 878 849 879
f 876 877 880
f 880 877 881
f 880 850 846
f 880 846 876
f 852 879 849
f 852 882 879
f 880 881 883
f 883 881 884
f 883 853 850
f 883 850 880
f 852 854 885
f 886 852 885
f 882 852 886
f 855 885 854
f 884 887 883
f 853 883 887
f 888 853 887
f 856 853 888
f 886 885 889
f 886 889 890
f 858 889 855
f 855 889 885
f 888 891 856
f 856 891 859
f 860 859 891
f 860 891 892
f 890 889 893
f 890 893 894
f 862 893 858
f 858 893 889
f 892 895 860
f 860 895 863
f 863 896 865
f 895 896 863
f 893 867 894
f 867 896 894
f 867 865 896
f 867 893 862
f 899 898 897
f 901 900 897
f 897 900 899
f 901 902 900
f 897 898 871
f 898 870 871
f 898 903 870
f 897 871 872
f 897 872 901
f 904 902 901
f 872 904 901
f 873 904 872
f 873 875 904
f 904 875 905
f 903 877 870
f 906 877 903
f 875 878 907
f 908 875 907
f 905 875 908
f 879 907 878
f 906 881 877
f 909 881 906
f 908 907 910
f 908 910 911
f 882 910 879
f 879 910 907
f 909 884 881
f 912 884 909
f 913 911 910
f 910 882 913
f 882 914 913
f 882 886 914
f 912 915 884
f 884 915 887
f 888 887 915
f 888 915 916
f 919 918 917
f 918 914 917
f 914 890 917
f 914 886 890
f 916 920 888
f 888 920 891
f 922 921 892
f 891 922 892
f 920 922 891
f 921 922 919
f 917 921 919
f 923 921 917
f 894 923 890
f 890 923 917
f 921 895 892
f 895 921 896
f 896 921 923
f 896 923 894
f 925 924 899
f 899 924 898
f 926 899 900
f 926 925 899
f 900 902 926
f 926 902 927
f 924 903 898
f 928 903 924
f 929 927 902
f 929 902 904
f 904 905 929
f 929 905 930
f 928 906 903
f 931 906 928
f 908 930 905
f 908 932 930
f 931 909 906
f 933 909 931
f 911 932 908
f 911 934 932
f 933 912 909
f 935 912 933
f 911 913 936
f 937 911 936
f 934 911 937
f 914 936 913
f 935 938 912
f 912 938 915
f 940 939 916
f 915 940 916
f 938 940 915
f 942 941 939
f 942 939 940
f 941 942 937
f 941 937 936
f 919 941 936
f 918 919 936
f 918 936 914
f 939 920 916
f 920 939 922
f 922 939 941
f 922 941 919
f 945 944 943
f 947 946 943
f 943 946 945
f 947 948 946
f 943 944 925
f 944 924 925
f 944 949 924
f 943 925 926
f 943 926 947
f 926 927 947
f 927 948 947
f 927 950 948
f 949 928 924
f 951 928 949
f 927 929 952
f 953 927 952
f 950 927 953
f 930 952 929
f 951 931 928
f 954 931 951
f 953 952 955
f 953 955 956
f 932 955 930
f 930 955 952
f 954 933 931
f 957 933 954
f 956 955 958
f 956 958 959
f 934 958 932
f 932 958 955
f 961 935 960
f 935 957 960
f 935 933 957
f 962 961 960
f 959 958 963
f 959 963 964
f 937 963 934
f 934 963 958
f 961 938 935
f 962 965 961
f 965 938 961
f 965 940 938
f 963 942 964
f 942 965 964
f 942 940 965
f 942 963 937
f 968 967 966
f 970 969 966
f 966 969 968
f 970 971 969
f 966 967 945
f 967 944 945
f 967 972 944
f 966 945 946
f 966 946 970
f 946 948 970
f 948 971 970
f 948 973 971
f 972 949 944
f 974 949 972
f 950 976 975
f 973 950 975
f 948 950 973
f 976 977 975
f 974 951 949
f 978 951 974
f 980 979 976
f 950 980 976
f 953 980 950
f 976 979 977
f 978 954 951
f 981 954 978
f 956 980 953
f 956 982 980
f 981 957 954
f 983 957 981
f 959 982 956
f 959 984 982
f 983 985 957
f 957 985 960
f 987 986 962
f 960 987 962
f 985 987 960
f 987 984 986
f 984 964 986
f 984 959 964
f 986 965 962
f 965 986 964
f 990 989 988
f 988 991 990
f 993 992 968
f 968 992 967
f 969 988 989
f 993 969 989
f 968 969 993
f 969 971 988
f 971 991 988
f 971 994 991
f 992 972 967
f 995 972 992
f 973 997 996
f 994 973 996
f 971 973 994
f 997 998 996
f 995 974 972
f 999 974 995
f 975 997 973
f 975 977 997
f 977 998 997
f 977 1000 998
f 999 978 974
f 1001 978 999
f 1003 1002 979
f 1003 979 980
f 977 979 1000
f 1000 979 1002
f 1001 981 978
f 1004 981 1001
f 982 1003 980
f 982 1005 1003
f 1007 983 1006
f 983 1004 1006
f 983 981 1004
f 1009 1008 1007
f 1009 1007 1006
f 1009 1005 1008
f 1005 984 1008
f 1005 982 984
f 1007 985 983
f 985 1007 987
f 987 1007 1008
f 987 1008 984
f 1012 1011 1010
f 989 990 1010
f 990 1012 1010
f 990 1013 1012
f 990 991 1013
f 1013 991 1014
f 1010 1011 993
f 1011 992 993
f 1011 1015 992
f 1010 993 989
f 994 1017 1016
f 1014 994 1016
f 991 994 1014
f 1017 1018 1016
f 1015 995 992
f 1019 995 1015
f 996 1017 994
f 996 998 1017
f 998 1018 1017
f 998 1020 1018
f 1019 999 995
f 1021 999 1019
f 1000 1020 998
f 1000 1022 1020
f 1021 1001 999
f 1023 1001 1021
f 1025 1024 1002
f 1025 1002 1003
f 1000 1002 1022
f 1022 1002 1024
f 1023 1004 1001
f 1026 1004 1023
f 1005 1025 1003
f 1005 1027 1025
f 1026 1028 1004
f 1004 1028 1006
f 1006 1029 1009
f 1028 1029 1006
f 1005 1009 1027
f 1027 1009 1029
f 1032 1031 1030
f 1034 1033 1030
f 1030 1033 1032
f 1034 1035 1033
f 1030 1031 1012
f 1031 1011 1012
f 1031 1036 1011
f 1030 1012 1013
f 1030 1013 1034
f 1038 1037 1014
f 1014 1037 1013
f 1037 1035 1013
f 1035 1034 1013
f 1038 1039 1037
f 1036 1015 1011
f 1040 1015 1036
f 1016 1038 1014
f 1016 1018 1038
f 1018 1039 1038
f 1018 1041 1039
f 1040 1019 1015
f 1042 1019 1040
f 1020 1041 1018
f 1020 1043 1041
f 1042 1021 1019
f 1044 1021 1042
f 1047 1046 1045
f 1046 1043 1045
f 1043 1022 1045
f 1043 1020 1022
f 1044 1023 1021
f 1048 1023 1044
f 1047 1045 1024
f 1025 1047 1024
f 1049 1047 1025
f 1024 1045 1022
f 1051 1026 1050
f 1026 1048 1050
f 1026 1023 1048
f 1053 1052 1051
f 1053 1051 1050
f 1053 1049 1052
f 1049 1027 1052
f 1049 1025 1027
f 1051 1028 1026
f 1028 1051 1029
f 1029 1051 1052
f 1029 1052 1027
f 1056 1055 1054
f 1058 1057 1054
f 1054 1057 1056
f 1058 1059 1057
f 1054 1055 1032
f 1055 1031 1032
f 1055 1060 1031
f 1054 1032 1033
f 1054 1033 1058
f 1062 1061 1035
f 1035 1061 1033
f 1061 1059 1033
f 1059 1058 1033
f 1062 1063 1061
f 1060 1036 1031
f 1064 1036 1060
f 1037 1062 1035
f 1037 1039 1062
f 1039 1063 1062
f 1039 1065 1063
f 1064 1040 1036
f 1066 1040 1064
f 1041 1065 1039
f 1041 1067 1065
f 1066 1042 1040
f 1068 1042 1066
f 1043 1067 1041
f 1043 1069 1067
f 1068 1044 1042
f 1070 1044 1068
f 1072 1071 1046
f 1072 1046 1047
f 1043 1046 1069
f 1069 1046 1071
f 1074 1048 1073
f 1048 1070 1073
f 1048 1044 1070
f 1076 1075 1074
f 1076 1074 1073
f 1076 1072 1075
f 1072 1049 1075
f 1072 1047 1049
f 1074 1050 1048
f 1050 1074 1053
f 1053 1074 1075
f 1053 1075 1049
f 1079 1078 1077
f 1081 1080 1077
f 1077 1080 1079
f 1081 1082 1080
f 1077 1078 1056
f 1078 1055 1056
f 1078 1083 1055
f 1077 1056 1057
f 1077 1057 1081
f 1085 1084 1059
f 1059 1084 1057
f 1084 1082 1057
f 1082 1081 1057
f 1085 1086 1084
f 1083 1060 1055
f 1087 1060 1083
f 1061 1085 1059
f 1061 1063 1085
f 1063 1086 1085
f 1063 1088 1086
f 1087 1064 1060
f 1089 1064 1087
f 1065 1088 1063
f 1065 1090 1088
f 1089 1066 1064
f 1091 1066 1089
f 1067 1090 1065
f 1067 1092 1090
f 1091 1068 1066
f 1093 1068 1091
f 1096 1095 1094
f 1095 1092 1094
f 1092 1069 1094
f 1092 1067 1069
f 1098 1070 1097
f 1070 1093 1097
f 1070 1068 1093
f 1100 1099 1098
f 1100 1098 1097
f 1099 1100 1096
f 1099 1096 1094
f 1072 1099 1094
f 1071 1072 1094
f 1071 1094 1069
f 1098 1073 1070
f 1073 1098 1076
f 1076 1098 1099
f 1076 1099 1072
f 1103 1102 1101
f 1101 1104 1103
f 1106 1105 1079
f 1079 1105 1078
f 1080 1101 1102
f 1106 1080 1102
f 1079 1080 1106
f 1108 1107 1082
f 1082 1107 1080
f 1107 1104 1080
f 1104 1101 1080
f 1108 1109 1107
f 1105 1083 1078
f 1110 1083 1105
f 1084 1108 1082
f 1084 1086 1108
f 1086 1109 1108
f 1086 1111 1109
f 1110 1087 1083
f 1112 1087 1110
f 1088 1111 1086
f 1088 1113 1111
f 1112 1089 1087
f 1114 1089 1112
f 1090 1113 1088
f 1090 1115 1113
f 1114 1091 1089
f 1116 1091 1114
f 1092 1115 1090
f 1092 1117 1115
f 1119 1093 1118
f 1093 1116 1118
f 1093 1091 1116
f 1120 1119 1118
f 1122 1121 1095
f 1122 1095 1096
f 1092 1095 1117
f 1117 1095 1121
f 1119 1097 1093
f 1120 1123 1119
f 1123 1097 1119
f 1123 1100 1097
f 1096 1100 1122
f 1122 1100 1123
f 1126 1125 1124
f 1124 1127 1126
f 1130 1129 1128
f 1130 1128 1125
f 1125 1128 1124
f 1128 1102 1124
f 1102 1103 1124
f 1132 1131 1104
f 1104 1131 1103
f 1131 1127 1103
f 1127 1124 1103
f 1132 1133 1131
f 1128 1129 1106
f 1129 1105 1106
f 1129 1134 1105
f 1128 1106 1102
f 1107 1132 1104
f 1107 1109 1132
f 1109 1133 1132
f 1109 1135 1133
f 1134 1110 1105
f 1136 1110 1134
f 1111 1135 1109
f 1111 1137 1135
f 1136 1112 1110
f 1138 1112 1136
f 1113 1137 1111
f 1113 1139 1137
f 1138 1114 1112
f 1140 1114 1138
f 1115 1139 1113
f 1115 1141 1139
f 1143 1116 1142
f 1116 1140 1142
f 1116 1114 1140
f 1144 1143 1142
f 1147 1146 1145
f 1146 1141 1145
f 1141 1117 1145
f 1141 1115 1117
f 1143 1118 1116
f 1149 1148 1120
f 1149 1120 1118
f 1144 1149 1118
f 1143 1144 1118
f 1148 1149 1147
f 1148 1147 1145
f 1122 1148 1145
f 1121 1122 1145
f 1121 1145 1117
f 1148 1123 1120
f 1123 1148 1122
f 1152 1151 1150
f 1150 1153 1152
f 1156 1155 1154
f 1156 1154 1151
f 1151 1154 1150
f 1154 1125 1150
f 1125 1126 1150
f 1158 1157 1127
f 1127 1157 1126
f 1157 1153 1126
f 1153 1150 1126
f 1158 1159 1157
f 1154 1155 1130
f 1155 1129 1130
f 1155 1160 1129
f 1154 1130 1125
f 1131 1158 1127
f 1131 1133 1158
f 1133 1159 1158
f 1133 1161 1159
f 1160 1134 1129
f 1162 1134 1160
f 1135 1161 1133
f 1135 1163 1161
f 1162 1136 1134
f 1164 1136 1162
f 1137 1163 1135
f 1137 1165 1163
f 1164 1138 1136
f 1166 1138 1164
f 1139 1165 1137
f 1139 1167 1165
f 1169 1140 1168
f 1140 1166 1168
f 1140 1138 1166
f 1170 1169 1168
f 1173 1172 1171
f 1172 1167 1171
f 1167 1141 1171
f 1167 1139 1141
f 1169 1142 1140
f 1175 1174 1144
f 1175 1144 1142
f 1170 1175 1142
f 1169 1170 1142
f 1174 1175 1173
f 1174 1173 1171
f 1147 1174 1171
f 1146 1147 1171
f 1146 1171 1141
f 1174 1149 1144
f 1149 1174 1147
f 1178 1177 1176
f 1180 1179 1176
f 1176 1179 1178
f 1180 1181 1179
f 1184 1183 1182
f 1184 1182 1177
f 1177 1182 1176
f 1182 1151 1176
f 1151 1152 1176
f 1176 1152 1153
f 1185 1176 1153
f 1180 1176 1185
f 1181 1180 1186
f 1186 1180 1185
f 1182 1183 1156
f 1183 1155 1156
f 1183 1187 1155
f 1182 1156 1151
f 1157 1185 1153
f 1157 1159 1185
f 1159 1186 1185
f 1159 1188 1186
f 1187 1160 1155
f 1189 1160 1187
f 1161 1188 1159
f 1161 1190 1188
f 1189 1162 1160
f 1191 1162 1189
f 1163 1190 1161
f 1163 1192 1190
f 1191 1164 1162
f 1193 1164 1191
f 1165 1192 1163
f 1165 1194 1192
f 1196 1166 1195
f 1166 1193 1195
f 1166 1164 1193
f 1197 1196 1195
f 1200 1199 1198
f 1199 1194 1198
f 1194 1167 1198
f 1194 1165 1167
f 1196 1168 1166
f 1202 1201 1170
f 1202 1170 1168
f 1197 1202 1168
f 1196 1197 1168
f 1201 1202 1200
f 1201 1200 1198
f 1173 1201 1198
f 1172 1173 1198
f 1172 1198 1167
f 1201 1175 1170
f 1175 1201 1173
f 1205 1204 1203
f 1203 1206 1205
f 1203 1204 1207
f 1207 1204 1208
f 1206 1203 1209
f 1203 1210 1209
f 1203 1207 1210
f 1210 1211 1209
f 1214 1213 1212
f 1214 1212 1208
f 1208 1212 1207
f 1212 1177 1207
f 1177 1178 1207
f 1207 1178 1179
f 1207 1179 1210
f 1179 1181 1210
f 1181 1211 1210
f 1181 1215 1211
f 1212 1213 1184
f 1213 1183 1184
f 1213 1216 1183
f 1212 1184 1177
f 1186 1215 1181
f 1186 1217 1215
f 1216 1187 1183
f 1218 1187 1216
f 1188 1217 1186
f 1188 1219 1217
f 1218 1189 1187
f 1220 1189 1218
f 1190 1219 1188
f 1190 1221 1219
f 1220 1191 1189
f 1222 1191 1220
f 1192 1221 1190
f 1192 1223 1221
f 1225 1193 1224
f 1193 1222 1224
f 1193 1191 1222
f 1226 1225 1224
f 1229 1228 1227
f 1228 1223 1227
f 1223 1194 1227
f 1223 1192 1194
f 1225 1195 1193
f 1231 1230 1197
f 1231 1197 1195
f 1226 1231 1195
f 1225 1226 1195
f 1230 1231 1229
f 1230 1229 1227
f 1200 1230 1227
f 1199 1200 1227
f 1199 1227 1194
f 1230 1202 1197
f 1202 1230 1200
f 1234 1233 1232
f 1236 1235 1232
f 1232 1235 1234
f 1236 1237 1235
f 1232 1233 1205
f 1233 1204 1205
f 1233 1238 1204
f 1232 1205 1206
f 1239 1232 1206
f 1236 1232 1239
f 1237 1236 1240
f 1240 1236 1239
f 1238 1208 1204
f 1241 1208 1238
f 1209 1239 1206
f 1209 1211 1239
f 1211 1240 1239
f 1211 1242 1240
f 1244 1243 1214
f 1214 1243 1213
f 1214 1208 1241
f 1214 1241 1244
f 1215 1242 1211
f 1215 1245 1242
f 1243 1216 1213
f 1246 1216 1243
f 1217 1245 1215
f 1217 1247 1245
f 1246 1218 1216
f 1248 1218 1246
f 1219 1247 1217
f 1219 1249 1247
f 1248 1220 1218
f 1250 1220 1248
f 1221 1249 1219
f 1221 1251 1249
f 1253 1222 1252
f 1222 1250 1252
f 1222 1220 1250
f 1254 1253 1252
f 1257 1256 1255
f 1256 1251 1255
f 1251 1223 1255
f 1251 1221 1223
f 1253 1224 1222
f 1259 1258 1226
f 1259 1226 1224
f 1254 1259 1224
f 1253 1254 1224
f 1258 1259 1257
f 1258 1257 1255
f 1229 1258 1255
f 1228 1229 1255
f 1228 1255 1223
f 1258 1231 1226
f 1231 1258 1229
f 1261 1260 1234
f 1234 1260 1233
f 1262 1234 1235
f 1262 1261 1234
f 1235 1237 1262
f 1262 1237 1263
f 1260 1238 1233
f 1264 1238 1260
f 1240 1263 1237
f 1240 1265 1263
f 1268 1267 1266
f 1264 1268 1266
f 1241 1264 1266
f 1238 1264 1241
f 1242 1265 1240
f 1242 1269 1265
f 1266 1267 1244
f 1267 1243 1244
f 1267 1270 1243
f 1266 1244 1241
f 1245 1269 1242
f 1245 1271 1269
f 1270 1246 1243
f 1272 1246 1270
f 1247 1271 1245
f 1247 1273 1271
f 1275 1248 1274
f 1248 1272 1274
f 1248 1246 1272
f 1276 1275 1274
f 1249 1273 1247
f 1249 1277 1273
f 1278 1250 1275
f 1275 1250 1248
f 1275 1276 1279
f 1275 1279 1278
f 1282 1281 1280
f 1281 1277 1280
f 1277 1251 1280
f 1277 1249 1251
f 1278 1252 1250
f 1284 1283 1254
f 1284 1254 1252
f 1279 1284 1252
f 1278 1279 1252
f 1283 1284 1282
f 1283 1282 1280
f 1257 1283 1280
f 1256 1257 1280
f 1256 1280 1251
f 1283 1259 1254
f 1259 1283 1257
f 1285 1260 1261
f 1262 1286 1261
f 1261 1286 1285
f 1263 1286 1262
f 1288 1287 1285
f 1287 1260 1285
f 1287 1264 1260
f 1288 1285 1286
f 1288 1286 1289
f 1286 1263 1289
f 1263 1290 1289
f 1263 1265 1290
f 1291 1267 1268
f 1292 1291 1268
f 1264 1292 1268
f 1287 1292 1264
f 1269 1290 1265
f 1269 1293 1290
f 1294 1270 1291
f 1291 1270 1267
f 1291 1292 1295
f 1291 1295 1294
f 1271 1293 1269
f 1271 1296 1293
f 1297 1272 1294
f 1294 1272 1270
f 1294 1295 1298
f 1294 1298 1297
f 1273 1296 1271
f 1273 1299 1296
f 1297 1274 1272
f 1301 1300 1276
f 1301 1276 1274
f 1298 1301 1274
f 1297 1298 1274
f 1303 1302 1300
f 1303 1300 1301
f 1303 1299 1302
f 1299 1277 1302
f 1299 1273 1277
f 1304 1279 1300
f 1300 1279 1276
f 1282 1304 1281
f 1304 1302 1281
f 1304 1300 1302
f 1281 1302 1277
f 1304 1284 1279
f 1284 1304 1282
f 1305 1287 1288
f 1289 1306 1288
f 1288 1306 1305
f 1290 1306 1289
f 1308 1307 1305
f 1307 1287 1305
f 1307 1292 1287
f 1308 1305 1306
f 1308 1306 1309
f 1306 1290 1309
f 1290 1310 1309
f 1290 1293 1310
f 1307 1295 1292
f 1311 1295 1307
f 1296 1310 1293
f 1296 1312 1310
f 1314 1298 1313
f 1298 1311 1313
f 1298 1295 1311
f 1316 1315 1314
f 1316 1314 1313
f 1316 1312 1315
f 1312 1299 1315
f 1312 1296 1299
f 1314 1301 1298
f 1301 1314 1303
f 1303 1314 1315
f 1303 1315 1299
f 1317 1307 1308
f 1309 1318 1308
f 1308 1318 1317
f 1310 1318 1309
f 1319 1311 1317
f 1317 1311 1307
f 1320 1317 1318
f 1319 1317 1320
f 1312 1320 1310
f 1310 1320 1318
f 1319 1313 1311
f 1313 1319 1316
f 1316 1319 1320
f 1316 1320 1312
# 2636 faces, 0 coords texture

# End of File