####
#
# OBJ File Generated by Meshlab
#
####
# Object domain126.obj
#
# Vertices: 348
# Faces: 706
#
####
v 170.670837 124.082359 132.120468
v 168.519424 138.184158 124.202255
v 178.739044 139.734360 121.877831
v 180.635864 134.111984 119.394203
v 177.229553 130.535553 121.163025
v 166.327560 132.050644 126.075134
v 167.466003 126.840385 127.066521
v 174.994766 130.193985 131.839310
v 164.480347 136.840240 127.864456
v 168.051987 129.989288 131.895721
v 170.542725 126.064178 125.913460
v 180.750626 136.147537 126.767067
v 167.627686 129.681671 125.373062
v 173.803345 127.121796 131.695374
v 186.144974 129.347824 119.340111
v 183.040085 129.573166 119.851631
v 180.895187 129.296158 123.415390
v 179.213013 130.023209 129.810577
v 180.654221 130.069061 128.742065
v 168.470688 135.420898 130.915848
v 170.694519 125.599892 131.383881
v 167.826324 125.145470 129.083511
v 162.424133 135.941620 129.983643
v 174.646118 125.922424 128.935837
v 163.581680 134.239166 130.328705
v 172.632339 134.009186 132.016861
v 162.423416 135.974594 129.871155
v 166.507553 137.447235 126.191742
v 170.743851 126.810165 125.231194
v 174.964539 128.062958 131.567276
v 174.674820 139.240463 121.377228
v 176.558640 130.101746 131.104080
v 176.663055 132.190826 130.975998
v 170.540848 138.766861 124.442795
v 183.441742 130.919830 122.999451
v 167.510300 130.693146 125.408936
v 184.848068 134.186646 118.995110
v 182.836029 136.243240 118.797432
v 180.709244 139.844604 121.752800
v 177.171570 139.250198 121.155838
v 170.504730 128.000900 132.194443
v 164.330856 135.227081 130.430481
v 174.645676 138.230865 120.795578
v 176.679520 134.195038 120.452713
v 167.294113 134.405228 131.845383
v 178.695724 137.798462 126.176811
v 174.628235 139.316879 123.438759
v 176.398285 134.052933 130.642441
v 185.232773 138.804596 119.829117
v 163.885773 131.000275 130.194931
v 185.735489 133.475998 119.242592
v 180.585251 132.072891 128.342468
v 170.539627 136.256561 122.035339
v 170.312897 131.908661 123.459244
v 167.384308 132.510849 125.106018
v 167.459412 131.224106 125.323273
v 171.225845 139.343567 121.462265
v 182.685562 140.378922 119.458839
v 170.525497 137.260529 127.933777
v 182.175049 127.491570 127.426865
v 182.607925 127.380966 126.943848
v 180.734314 138.628159 124.317451
v 162.424484 135.952042 129.948059
v 166.029648 134.067245 125.702621
v 183.415237 129.914993 125.689293
v 174.628494 138.019775 126.319481
v 170.505951 134.041336 131.991440
v 176.561813 129.307388 123.231308
v 171.039078 125.985245 131.716629
v 176.680511 137.954132 126.289856
v 178.722778 129.286575 121.163132
v 186.221939 132.036057 119.177101
v 183.425110 132.069000 125.185089
v 175.249786 127.121346 125.415138
v 172.710953 130.719833 122.974144
v 182.166443 131.912491 119.138306
v 174.224258 127.073509 125.260681
v 183.385330 130.252228 119.029564
v 168.194244 127.478493 125.744781
v 170.538818 130.095535 132.326004
v 178.694214 129.360168 122.401154
v 174.634827 139.521454 121.967522
v 172.459183 134.145493 121.559486
v 169.483749 128.720535 132.115128
v 172.576859 138.021637 126.319710
v 164.009781 130.866180 130.496628
v 172.561905 130.092026 132.321884
v 174.140945 128.075500 131.951355
v 171.649399 124.666992 132.001740
v 172.453293 129.892700 123.442070
v 173.861191 132.093124 132.070709
v 180.897705 129.419769 120.818893
v 182.963364 132.254715 118.872574
v 177.739838 129.296005 121.000145
v 170.639633 134.348434 122.544960
v 169.201874 136.586929 122.933273
v 164.504837 132.164948 131.001450
v 167.795135 134.396774 132.058167
v 178.730270 128.140610 124.663025
v 166.428909 136.531311 129.157700
v 178.579773 136.810852 127.508942
v 182.237869 138.087921 123.994095
v 178.713303 127.359650 125.657455
v 167.711334 128.807434 125.460541
v 184.833954 129.396759 119.559799
v 183.841568 136.728836 122.850616
v 180.749817 140.669418 119.379402
v 182.806824 130.004211 126.748726
v 172.207657 126.278801 131.722488
v 177.829254 131.637314 130.412018
v 176.670685 137.071152 127.828339
v 174.611237 136.476456 129.116379
v 185.617996 134.081863 120.819626
v 183.978287 135.359955 123.482315
v 174.327042 132.017349 121.531219
v 168.239655 136.113495 123.744736
v 178.773178 134.215240 119.986710
v 168.551956 126.275154 130.712891
v 169.166428 130.106384 132.184586
v 182.531708 139.498550 121.351143
v 174.538010 126.351082 126.397690
v 183.483688 134.432327 124.679230
v 176.772049 130.007294 121.930740
v 179.513641 139.849258 120.039200
v 166.950363 134.261276 124.952934
v 179.596558 140.936996 118.989067
v 178.653381 134.109985 129.219116
v 165.743988 126.861229 130.113846
v 174.627899 137.211060 127.910812
v 165.474655 128.297501 130.564499
v 178.697632 132.134308 120.265800
v 176.735626 136.122543 129.057190
v 167.758240 132.075104 131.958633
v 166.187836 137.184937 125.672890
v 170.526184 136.610596 129.210236
v 172.577225 139.292389 123.428482
v 166.404602 130.145767 126.405220
v 180.748352 140.234482 119.201492
v 172.560501 135.477631 130.868240
v 168.476654 136.572922 129.186752
v 170.665405 124.077293 132.091278
v 165.082336 136.838181 126.660645
v 182.821991 130.073502 123.838470
v 170.542206 125.363449 126.980423
v 163.403976 136.734207 127.710205
v 182.516190 134.115997 125.986626
v 178.756866 129.072983 123.337044
v 168.619293 132.119904 124.339058
v 178.123688 130.032623 130.476654
v 170.995224 132.404572 122.946709
v 181.194946 138.322754 118.967651
v 185.674622 137.200119 119.683800
v 181.970871 138.936523 123.138725
v 180.350403 136.234161 119.312271
v 167.751373 125.198181 129.088058
v 183.114792 136.265137 124.282158
v 172.577408 137.262100 127.935242
v 172.569443 128.229950 124.370590
v 167.575043 125.194031 129.036316
v 168.912170 132.232880 132.162476
v 183.265045 138.241425 122.412010
v 169.292999 125.434013 127.367935
v 176.558243 128.013702 130.726807
v 172.554733 138.217010 120.923157
v 179.765640 135.616806 127.846649
v 174.826263 132.161484 131.790894
v 164.644897 134.318253 126.961678
v 172.287857 125.754333 131.234589
v 166.441025 130.100708 131.458771
v 184.551636 136.126572 119.054588
v 172.612564 139.509689 121.932838
v 171.637848 124.666336 132.057236
v 163.591232 132.533737 129.786423
v 172.556168 128.080139 132.167511
v 174.102859 129.987549 132.097855
v 187.312988 130.409607 119.593193
v 164.985153 132.357071 127.293358
v 169.224686 138.342209 123.032661
v 183.758530 129.518753 119.245438
v 169.766068 133.770737 123.236221
v 167.794006 134.401382 132.054169
v 183.663574 139.228500 119.050491
v 180.793518 129.361633 121.083839
v 163.835144 133.743774 128.305588
v 168.682159 126.260536 126.497940
v 169.473969 127.089203 125.367996
v 176.701843 138.242661 120.553864
v 166.425385 137.073898 127.864510
v 176.668747 127.246941 125.556030
v 170.594055 128.150574 124.595963
v 164.613068 136.152588 126.601517
v 172.576889 136.583282 129.196365
v 172.234482 125.360825 127.139870
v 170.476196 125.147224 128.574677
v 180.750031 128.295425 124.842476
v 174.420181 134.114212 131.674377
v 165.391586 130.449417 127.601578
v 185.356445 138.272888 119.814911
v 183.618713 128.016190 126.312500
v 168.694458 128.239899 125.091949
v 180.625687 127.171402 126.528618
v 166.412979 132.138153 131.624420
v 181.670090 137.418213 125.118889
v 177.437057 134.659042 129.759415
v 182.785538 130.076889 122.334984
v 165.712128 126.962196 130.508804
v 174.697296 130.877136 122.164536
v 179.287964 128.014816 129.906784
v 182.678650 132.128998 126.372536
v 184.255524 138.156158 121.146683
v 170.525284 135.506561 130.889069
v 174.536652 135.268738 130.640228
v 168.481628 137.764893 126.221077
v 184.837601 132.146942 122.321899
v 166.527328 128.098114 131.135284
v 185.460403 135.622849 120.690063
v 170.537964 139.174957 123.410866
v 176.673996 128.090744 124.598961
v 166.091446 127.746887 128.338547
v 172.689209 132.201141 122.192528
v 164.549469 134.086182 130.838394
v 168.440903 128.026077 131.673203
v 170.668579 125.354126 129.924942
v 172.806595 125.464996 129.702576
v 163.259064 136.686768 127.978500
v 166.514969 126.628525 130.574905
v 176.474396 126.603645 128.845383
v 174.676666 129.659454 123.252838
v 170.567673 129.977051 123.973030
v 166.735138 136.409714 124.856544
v 170.515945 137.984055 126.292175
v 168.474808 137.212601 127.914360
v 172.499817 126.824326 125.228569
v 167.714386 125.153702 129.055908
v 169.641724 139.052124 122.805183
v 182.511047 140.503510 119.296608
v 168.642166 130.203827 124.605637
v 184.850845 132.135925 118.854614
v 165.821304 135.613159 125.483223
v 175.979218 135.224167 130.172577
v 181.857117 134.296783 118.976662
v 184.742889 136.215271 121.752655
v 170.769806 139.263657 121.948509
v 180.746796 139.232803 123.372948
v 180.882751 129.479614 122.464912
v 177.782944 129.273438 120.956604
v 164.082230 132.107895 128.693787
v 169.180222 138.890625 123.373650
v 182.669693 128.911438 125.191353
v 181.788834 130.738556 127.667336
v 180.881836 127.572426 125.751854
v 176.494125 126.712784 126.642731
v 176.720230 132.180313 120.731941
v 179.330032 128.089233 129.969452
v 171.874969 136.065186 121.338593
v 172.599854 134.756454 131.634323
v 174.627930 138.897461 124.508904
v 178.554153 136.008972 128.348038
v 182.865982 134.204956 118.795532
v 178.718323 129.392960 120.966782
v 173.507019 134.466766 121.020119
v 187.252518 130.835342 119.588051
v 180.492203 137.488174 125.790642
v 187.280823 130.403275 119.565407
v 182.058853 127.861801 127.622551
v 181.513885 136.288254 118.946732
v 167.808807 134.401047 132.060791
v 182.962326 127.540047 126.797615
v 176.686661 139.553543 121.942833
v 180.932434 130.134628 120.210457
v 172.336670 125.191719 128.489044
v 180.627518 132.104523 119.692940
v 183.387589 131.044281 123.417183
v 182.823715 138.279099 118.803154
v 173.734650 134.234070 131.836746
v 181.914246 129.546494 127.811478
v 179.594406 140.947601 118.973137
v 181.151398 134.306274 127.256729
v 169.695969 127.490578 131.876755
v 182.641968 130.077911 119.428421
v 183.871292 132.119461 123.955490
v 183.653687 128.017029 126.316368
v 164.703125 130.195969 130.591629
v 167.154205 137.440308 125.106873
v 186.249939 129.406067 119.349609
v 182.705078 140.122208 119.070145
v 163.810242 132.309540 130.454086
v 184.004456 138.126251 119.012634
v 174.535034 128.151382 124.440208
v 174.668243 134.221161 120.749474
v 185.406555 138.207901 119.816895
v 172.567947 139.260574 121.394554
v 178.939438 132.237854 129.557953
v 174.958176 132.513641 121.103081
v 180.147278 134.074005 128.179764
v 178.761566 136.209229 119.854118
v 174.637238 136.248001 120.612053
v 183.385849 130.341370 125.058495
v 185.676178 134.000748 119.800285
v 185.449066 138.098145 119.784561
v 172.883850 136.359100 120.877815
v 170.701767 123.836693 131.890335
v 166.448257 135.380875 130.716751
v 175.580276 127.188644 130.692139
v 178.656693 138.338379 119.923332
v 182.907669 129.612015 120.798660
v 178.731064 138.830750 124.474564
v 172.577301 138.881332 124.500984
v 163.236633 134.499680 129.368149
v 180.345581 127.350624 128.060547
v 178.794250 130.141083 120.679817
v 184.648758 130.426147 121.249481
v 177.448013 127.360191 129.736740
v 170.538361 132.129898 132.271362
v 176.679398 138.894073 124.507721
v 180.773209 140.652130 119.640465
v 164.593872 130.246262 129.128998
v 185.761627 130.471024 120.610336
v 178.728668 139.343719 123.444191
v 173.349121 125.469521 128.152176
v 183.933105 134.001160 124.098404
v 184.911423 129.394165 119.194260
v 166.862701 128.208969 126.690414
v 187.287903 130.477661 119.617882
v 165.335968 128.400269 129.538345
v 174.363815 126.788368 131.115143
v 171.401901 138.802338 121.197151
v 179.203323 128.029434 129.952042
v 187.295029 130.541733 119.485893
v 180.109726 138.298462 119.303650
v 178.570938 127.041374 128.386322
v 165.504684 129.472580 127.951973
v 184.942596 134.166595 122.230049
v 184.853439 130.141006 118.926483
v 185.877365 131.832306 120.970802
v 182.121552 136.050491 125.609192
v 168.479263 134.201660 123.968063
v 185.577957 137.474228 119.730026
v 164.394867 136.352036 129.056213
v 179.712631 128.186295 129.935593
v 172.767578 125.840714 126.262070
v 178.664825 126.989227 126.565887
v 170.637909 138.268250 121.733421
v 176.679169 139.325592 123.441208
v 181.480286 132.341827 127.503044
v 172.550980 132.130127 132.272110
v 176.664734 136.241714 120.340813
v 170.542297 134.754074 131.634674
# 348 vertices, 0 vertices normals

f 164 43 292
f 193 271 320
f 110 33 293
f 197 6 177
f 309 184 167
f 242 152 216
f 109 174 14
f 206 325 130
f 121 24 227
f 84 279 222
f 25 97 287
f 237 36 137
f 86 287 97
f 281 321 333
f 324 113 299
f 162 185 234
f 222 215 169
f 48 212 240
f 308 136 47
f 135 59 192
f 16 322 179
f 254 208 310
f 256 212 196
f 124 39 3
f 134 230 284
f 289 74 189
f 289 218 228
f 242 210 338
f 107 236 58
f 191 64 239
f 53 83 255
f 328 340 208
f 83 115 294
f 155 22 234
f 316 107 58
f 171 82 47
f 347 187 43
f 157 59 231
f 122 321 73
f 103 218 189
f 345 146 209
f 290 253 44
f 124 126 277
f 98 67 181
f 113 216 299
f 124 330 138
f 183 16 92
f 324 176 262
f 343 164 327
f 235 217 248
f 83 261 301
f 219 323 332
f 260 92 311
f 201 60 61
f 326 14 30
f 156 321 122
f 283 50 86
f 266 259 38
f 204 132 127
f 274 288 286
f 342 103 189
f 42 303 267
f 20 267 303
f 85 66 129
f 102 120 161
f 187 40 31
f 83 294 261
f 78 179 322
f 64 125 230
f 133 202 267
f 20 140 211
f 170 152 338
f 233 121 77
f 254 208 340
f 257 47 344
f 131 44 253
f 213 59 232
f 72 299 51
f 242 338 152
f 296 154 305
f 105 312 318
f 24 326 227
f 61 268 199
f 155 7 323
f 63 167 191
f 282 276 108
f 347 296 187
f 207 294 115
f 143 298 281
f 3 39 244
f 254 328 18
f 292 43 31
f 205 273 35
f 225 142 9
f 148 337 125
f 261 294 290
f 148 36 237
f 19 276 265
f 185 323 7
f 148 125 55
f 199 65 298
f 75 228 207
f 245 17 143
f 26 196 91
f 174 88 14
f 285 264 15
f 281 73 321
f 81 17 245
f 71 183 92
f 280 179 78
f 220 207 115
f 307 319 244
f 40 305 124
f 170 300 288
f 185 200 79
f 200 13 104
f 126 107 277
f 293 127 52
f 254 163 328
f 2 213 284
f 114 106 242
f 145 225 63
f 78 322 334
f 258 165 295
f 36 6 137
f 185 79 323
f 240 112 132
f 2 248 217
f 324 262 329
f 20 303 100
f 160 80 119
f 337 116 230
f 282 199 265
f 138 151 274
f 16 105 322
f 245 205 306
f 116 284 230
f 41 80 174
f 295 278 345
f 12 146 278
f 286 198 58
f 194 223 271
f 294 5 253
f 292 82 171
f 200 237 13
f 265 199 268
f 278 146 345
f 133 10 202
f 9 188 100
f 316 58 120
f 198 291 49
f 245 143 205
f 80 87 174
f 238 72 37
f 127 258 295
f 296 4 154
f 81 245 183
f 116 178 2
f 61 199 282
f 144 194 271
f 145 63 191
f 272 280 76
f 102 161 156
f 84 41 279
f 77 74 289
f 187 296 305
f 139 192 212
f 39 120 153
f 292 31 82
f 30 163 304
f 311 270 131
f 317 332 197
f 141 69 172
f 232 188 28
f 105 285 15
f 124 277 316
f 168 109 326
f 140 135 211
f 161 242 106
f 314 346 87
f 214 113 335
f 81 123 147
f 14 88 30
f 251 282 195
f 17 249 143
f 54 150 95
f 315 344 319
f 86 50 287
f 99 68 218
f 249 298 143
f 270 16 280
f 315 319 307
f 144 271 193
f 235 243 217
f 191 239 230
f 35 281 214
f 288 300 182
f 289 189 218
f 190 237 200
f 283 130 325
f 1 89 21
f 198 300 291
f 317 197 177
f 147 195 17
f 11 193 341
f 99 195 147
f 196 48 33
f 346 91 175
f 62 153 102
f 85 157 231
f 42 267 221
f 36 56 6
f 256 196 275
f 271 24 320
f 298 65 281
f 313 331 227
f 283 215 130
f 69 109 172
f 12 203 336
f 198 49 300
f 155 234 159
f 93 334 238
f 39 316 120
f 300 291 338
f 142 188 9
f 181 267 45
f 162 194 144
f 55 125 6
f 83 301 255
f 326 304 227
f 282 108 199
f 282 265 276
f 311 131 253
f 4 266 154
f 283 169 215
f 315 307 46
f 228 218 68
f 301 290 297
f 90 75 150
f 70 315 46
f 175 91 166
f 329 262 176
f 342 201 103
f 271 224 24
f 162 234 22
f 70 111 66
f 263 62 203
f 337 54 180
f 254 340 328
f 186 190 200
f 321 114 242
f 244 39 153
f 29 341 233
f 272 76 4
f 264 329 176
f 286 58 236
f 133 98 181
f 1 21 69
f 211 139 348
f 211 135 139
f 317 173 50
f 225 339 63
f 89 172 168
f 104 13 323
f 299 216 152
f 140 232 135
f 4 76 93
f 157 129 112
f 210 198 300
f 35 273 281
f 229 158 90
f 246 5 123
f 207 68 123
f 240 212 112
f 25 287 173
f 38 170 274
f 165 12 278
f 85 129 157
f 204 48 132
f 54 95 180
f 313 163 254
f 120 198 210
f 205 143 273
f 342 331 310
f 301 261 290
f 116 53 96
f 312 214 335
f 344 269 319
f 85 308 66
f 348 256 26
f 118 215 222
f 132 129 111
f 264 329 72
f 192 59 157
f 170 299 152
f 46 307 263
f 201 310 60
f 206 155 128
f 194 22 223
f 99 251 195
f 131 272 117
f 94 123 71
f 223 21 224
f 139 212 256
f 149 110 293
f 8 32 163
f 300 338 152
f 172 109 168
f 98 181 267
f 321 242 333
f 319 3 244
f 339 9 100
f 98 20 211
f 44 347 297
f 38 37 170
f 108 209 65
f 48 240 132
f 341 320 24
f 345 209 108
f 283 86 97
f 308 34 136
f 133 160 10
f 221 267 202
f 160 314 80
f 75 207 220
f 295 165 278
f 206 128 325
f 133 267 98
f 307 244 62
f 155 159 22
f 119 84 222
f 238 264 72
f 342 189 252
f 222 169 10
f 330 151 138
f 345 108 250
f 70 101 111
f 99 147 68
f 105 15 322
f 339 100 303
f 136 34 217
f 8 166 32
f 71 81 183
f 156 114 321
f 285 329 264
f 336 203 102
f 283 325 317
f 54 90 150
f 214 333 113
f 257 344 315
f 164 292 57
f 97 202 169
f 209 146 73
f 223 118 21
f 102 153 120
f 98 348 67
f 91 196 166
f 307 62 263
f 126 138 107
f 223 22 234
f 132 112 129
f 254 328 208
f 233 289 158
f 190 229 237
f 249 199 298
f 309 25 173
f 117 272 4
f 196 212 48
f 93 238 259
f 155 185 7
f 162 144 185
f 80 314 87
f 305 330 124
f 21 222 279
f 37 51 299
f 178 343 235
f 101 263 12
f 156 106 114
f 171 243 57
f 306 205 312
f 92 16 270
f 134 28 142
f 12 336 146
f 81 147 17
f 337 180 95
f 326 30 304
f 138 274 286
f 136 243 171
f 128 219 325
f 95 150 220
f 182 300 198
f 156 161 106
f 151 266 38
f 184 247 177
f 1 141 302
f 98 267 181
f 334 15 264
f 131 117 44
f 53 255 301
f 110 32 33
f 155 323 219
f 2 231 213
f 233 77 289
f 140 188 232
f 67 348 26
f 144 11 185
f 70 257 315
f 286 182 198
f 21 89 168
f 94 71 260
f 232 59 135
f 154 266 330
f 116 96 178
f 311 92 270
f 72 324 299
f 76 78 93
f 193 320 341
f 111 129 66
f 184 177 167
f 79 104 323
f 181 45 267
f 147 123 68
f 294 253 290
f 136 217 243
f 300 152 291
f 21 118 222
f 27 63 42
f 313 254 331
f 70 66 257
f 71 92 260
f 149 293 18
f 208 19 265
f 124 138 126
f 346 26 91
f 343 301 164
f 220 115 83
f 62 244 153
f 187 305 40
f 71 123 81
f 337 95 53
f 144 193 11
f 192 157 112
f 254 18 208
f 167 64 191
f 132 111 258
f 164 297 43
f 312 335 318
f 16 179 280
f 148 54 337
f 37 299 170
f 141 172 89
f 85 34 308
f 280 78 76
f 19 52 250
f 328 32 149
f 343 327 57
f 27 309 63
f 337 53 116
f 108 65 199
f 25 221 97
f 53 301 343
f 187 31 43
f 206 226 155
f 228 68 207
f 225 9 339
f 328 149 18
f 164 57 327
f 23 63 27
f 98 267 20
f 183 245 306
f 183 306 16
f 148 237 229
f 241 93 259
f 75 220 150
f 120 210 161
f 207 123 5
f 52 345 250
f 94 260 246
f 29 233 190
f 305 154 330
f 283 97 169
f 186 200 185
f 317 325 332
f 227 304 163
f 94 246 123
f 210 300 338
f 167 177 6
f 13 137 323
f 206 130 226
f 44 117 347
f 46 263 101
f 19 108 276
f 146 156 122
f 293 19 18
f 1 69 141
f 264 176 329
f 149 32 110
f 131 270 272
f 174 87 88
f 127 295 52
f 209 73 65
f 197 332 137
f 258 12 165
f 317 247 173
f 343 57 243
f 214 281 333
f 283 317 50
f 21 168 224
f 140 100 188
f 334 264 238
f 27 42 221
f 74 252 189
f 148 56 36
f 1 302 141
f 318 335 329
f 69 41 109
f 342 252 331
f 190 233 158
f 88 175 8
f 31 269 82
f 341 121 233
f 4 241 266
f 260 311 5
f 186 29 190
f 121 74 77
f 196 33 166
f 310 208 265
f 103 201 251
f 259 238 37
f 223 224 271
f 292 171 57
f 167 6 64
f 21 279 41
f 88 8 30
f 134 191 230
f 47 82 344
f 146 336 156
f 87 346 175
f 224 168 24
f 105 318 285
f 186 185 11
f 33 48 127
f 328 163 32
f 347 117 296
f 331 252 227
f 145 191 142
f 64 230 239
f 40 3 269
f 95 83 53
f 85 231 34
f 33 32 166
f 13 237 137
f 286 288 182
f 40 124 3
f 269 3 319
f 117 4 296
f 322 15 334
f 323 137 332
f 21 41 69
f 31 40 269
f 1 141 89
f 242 216 333
f 205 35 312
f 335 324 329
f 348 139 256
f 62 102 203
f 124 316 39
f 109 14 326
f 119 80 41
f 162 22 194
f 306 312 105
f 121 227 252
f 308 47 257
f 11 341 29
f 293 33 127
f 158 289 90
f 195 282 249
f 190 158 229
f 338 291 152
f 120 58 198
f 246 260 5
f 119 222 10
f 178 53 343
f 201 61 282
f 61 60 268
f 330 266 151
f 42 339 303
f 337 230 125
f 2 34 231
f 26 256 275
f 19 250 108
f 6 125 64
f 26 275 196
f 333 216 113
f 301 297 164
f 95 220 83
f 258 101 12
f 155 234 185
f 259 37 38
f 287 50 173
f 175 166 8
f 309 247 184
f 293 52 19
f 310 265 60
f 10 169 202
f 4 93 241
f 72 329 324
f 274 170 288
f 148 229 54
f 309 173 247
f 138 236 107
f 311 253 5
f 219 332 325
f 143 281 273
f 128 155 219
f 2 178 235
f 160 119 10
f 151 38 274
f 41 174 109
f 119 41 84
f 309 167 63
f 308 257 66
f 63 339 42
f 195 249 17
f 65 73 281
f 324 329 176
f 146 122 73
f 300 49 291
f 155 226 118
f 155 118 234
f 226 130 215
f 136 171 47
f 8 163 30
f 35 214 312
f 134 142 191
f 79 200 104
f 20 100 140
f 23 27 63
f 213 232 28
f 135 192 139
f 342 310 201
f 93 78 334
f 204 127 48
f 103 99 218
f 341 24 121
f 181 314 160
f 161 210 242
f 132 258 127
f 97 221 202
f 197 137 6
f 270 280 272
f 116 2 284
f 103 251 99
f 168 326 24
f 27 221 25
f 148 55 56
f 87 175 88
f 134 284 28
f 145 142 225
f 226 215 118
f 16 306 105
f 181 67 314
f 70 46 101
f 313 227 163
f 22 159 234
f 213 28 284
f 178 96 53
f 277 107 316
f 290 44 297
f 314 67 346
f 207 5 294
f 27 25 309
f 82 269 344
f 18 19 208
f 2 235 248
f 142 28 188
f 67 26 346
f 52 295 345
f 331 254 310
f 347 43 297
f 235 343 243
f 192 112 212
f 90 289 228
f 12 263 203
f 121 252 74
f 285 318 329
f 229 90 54
f 335 113 324
f 170 338 300
f 111 101 258
f 2 217 34
f 90 228 75
f 317 177 247
f 98 211 348
f 138 286 236
f 201 282 251
f 37 72 51
f 133 181 160
f 186 11 29
f 213 231 59
f 266 241 259
f 55 6 56
f 223 234 118
f 282 199 249
f 60 265 268
f 336 102 156
# 706 faces, 0 coords texture

# End of File