####
#
# OBJ File Generated by Meshlab
#
####
# Object Volume_156.obj
#
# Vertices: 230
# Faces: 456
#
####
v 129.932037 446.686523 155.640945
v 128.336014 451.736633 153.892471
v 131.701736 464.256439 155.526031
v 132.089142 446.329132 156.389267
v 132.313828 463.550568 152.299515
v 131.560242 446.284607 155.980438
v 129.906525 447.147522 155.913589
v 131.832855 454.976624 146.810608
v 131.662827 448.829315 146.291946
v 135.061737 449.058472 156.049881
v 128.452957 449.854095 141.349823
v 130.199661 459.887543 150.120422
v 134.352386 452.909088 151.466293
v 134.232712 455.034698 157.561142
v 126.811852 450.792389 146.683121
v 128.413284 447.922791 151.502777
v 127.719872 450.956665 151.540207
v 131.180496 452.905182 144.697510
v 130.825043 464.333435 157.514603
v 129.368988 456.053833 144.159012
v 133.601013 458.859009 151.312851
v 132.348480 455.786926 148.125854
v 132.664719 448.100891 149.588730
v 133.790482 464.350525 155.597809
v 133.868271 446.260101 155.929382
v 128.144714 457.056000 151.393555
v 128.359726 458.216064 151.658585
v 133.670395 463.866638 153.332657
v 129.366409 457.081726 155.456421
v 131.742065 457.084351 157.843094
v 131.677490 460.912170 151.064774
v 129.133179 455.113525 155.255875
v 135.580719 462.792267 156.589310
v 130.320526 456.974701 156.953278
v 134.579254 448.912537 152.618027
v 135.103683 451.075836 156.292908
v 131.378006 452.844299 157.673294
v 132.760880 452.575989 147.663696
v 135.331650 455.080170 156.513870
v 135.280533 450.981567 153.719116
v 128.887741 458.978241 151.452301
v 135.458679 463.559692 155.624603
v 129.245087 448.160553 146.040833
v 131.565002 462.669373 152.043076
v 135.581436 460.861908 153.814331
v 133.778458 446.996521 156.453186
v 128.165680 452.995605 152.946869
v 126.450745 449.073547 145.577667
v 135.751068 455.054962 155.215057
v 127.443176 453.044159 149.014435
v 130.336975 462.923584 155.448120
v 128.061401 448.187897 149.039871
v 130.666458 454.898987 144.983154
v 130.051529 460.657654 151.620270
v 130.508255 463.564606 153.269302
v 131.560760 446.254883 155.230270
v 128.536270 457.932220 150.147690
v 131.115601 456.859924 146.894714
v 135.489868 457.197693 153.639954
v 135.059708 448.936768 153.621765
v 135.875412 460.973541 156.691467
v 129.730606 460.749115 153.373947
v 128.338089 457.657013 152.245850
v 130.471634 458.797729 156.957855
v 135.390121 452.989563 153.645004
v 132.607697 450.781464 147.054276
v 127.394142 448.394684 147.181366
v 129.872955 457.218475 145.922424
v 131.783127 464.582092 157.664383
v 134.721436 450.918793 152.327560
v 127.812195 452.959473 151.472443
v 131.550674 446.677185 153.244827
v 128.606567 448.805237 155.142731
v 133.133163 446.320129 156.357193
v 128.919998 449.462006 139.500000
v 133.477158 458.856659 157.956589
v 131.760315 458.828888 157.808029
v 127.268005 450.785736 144.892700
v 133.915268 457.134094 151.247925
v 131.263977 458.562408 149.173721
v 130.770828 463.787231 153.979095
v 130.819763 463.784882 154.958481
v 128.777756 450.836365 155.126938
v 133.250793 462.890869 152.289581
v 133.662537 462.892059 157.726608
v 133.275055 447.717773 151.802216
v 128.284973 454.810059 145.103989
v 133.165466 455.030365 157.930038
v 129.409180 447.027954 153.259720
v 131.578278 450.880615 144.885849
v 132.915817 456.980072 149.687988
v 133.376419 464.557159 157.566284
v 130.552750 463.765808 156.089203
v 134.846848 452.942017 152.453888
v 134.041718 448.991364 151.571548
v 136.396362 462.561127 155.765945
v 134.269531 457.075470 157.633133
v 128.449142 449.848083 141.329605
v 130.244110 456.580444 145.570648
v 134.194122 455.112427 151.313797
v 132.273026 453.023468 146.644424
v 129.792953 448.934906 156.192169
v 132.661316 458.216034 150.063019
v 129.212967 455.604858 144.075012
v 134.663071 447.475616 154.035553
v 133.281677 453.026062 148.982910
v 129.249985 450.735870 141.598007
v 132.812225 463.639160 152.407898
v 134.803711 463.843628 156.714539
v 131.474472 447.635193 149.225555
v 128.548904 456.037018 145.364090
v 134.856522 455.028137 152.444260
v 132.115997 457.095123 148.640182
v 129.909607 450.980743 156.423615
v 134.687820 446.733521 155.829926
v 132.211197 448.341431 147.645935
v 133.622528 450.982086 157.471024
v 128.860031 451.475098 142.420593
v 131.757431 455.046295 157.830612
v 129.206299 455.687408 144.122116
v 129.235550 448.762787 144.636215
v 128.669876 457.049500 146.651672
v 135.314453 448.927856 155.288986
v 135.836151 457.038361 155.273819
v 127.740334 454.948486 148.951477
v 129.047318 452.933868 155.365875
v 134.806717 457.044189 152.469223
v 128.541397 457.252411 148.187744
v 132.473114 448.975800 147.434875
v 128.730240 449.435089 155.436951
v 130.925827 460.065521 150.115738
v 129.799728 457.718170 146.785675
v 129.292984 449.426056 142.740250
v 131.820526 464.798553 157.264130
v 131.414932 448.172729 147.083847
v 128.926727 458.727051 153.251541
v 136.032150 459.103149 155.535522
v 130.635757 463.666901 153.267395
v 134.701828 463.603088 153.901413
v 135.564545 458.897400 156.684799
v 134.180420 452.989990 157.492447
v 136.247238 462.899078 155.503525
v 128.859894 447.595917 154.911118
v 134.650421 458.969727 152.464874
v 130.220627 454.033691 144.057541
v 127.924171 452.804840 144.772232
v 132.870804 465.227966 157.667419
v 135.033707 447.147491 155.398849
v 135.421417 457.108734 156.590332
v 126.273918 449.126251 145.782990
v 134.135956 450.936066 151.076874
v 130.156555 449.954712 142.062836
v 133.810944 446.370850 155.324310
v 130.723801 450.838409 142.859955
v 128.158447 448.899292 153.105820
v 128.402191 455.062988 153.220230
v 130.201202 450.469238 141.929276
v 132.536835 465.234375 157.674377
v 130.394058 452.411224 143.335159
v 133.136108 449.026428 149.311676
v 130.521957 457.765320 147.191879
v 133.084915 454.911804 149.191742
v 130.545059 460.868988 156.803085
v 127.876884 455.065277 146.573242
v 134.188568 462.800995 152.871414
v 131.734055 462.971100 157.717896
v 128.670364 447.614105 153.212204
v 128.384399 453.105164 153.696762
v 129.202194 447.933411 146.819702
v 136.494034 460.903900 155.411057
v 130.675125 463.036957 156.939102
v 129.263092 455.697357 144.076340
v 129.869400 460.742920 155.344131
v 135.504395 458.906982 153.684448
v 134.435852 460.849060 152.561096
v 132.163849 453.218872 157.977478
v 128.230148 450.818909 142.972473
v 131.603455 446.994049 156.516129
v 135.346695 462.883667 154.010559
v 129.587418 451.614502 142.146881
v 126.868225 448.823486 146.486450
v 133.405945 451.955658 157.793732
v 133.332245 451.053558 149.031967
v 130.703064 464.297852 157.363235
v 134.597382 460.623840 157.662308
v 131.521988 447.107941 151.569794
v 128.425461 449.731689 143.184570
v 130.490265 449.700500 143.066559
v 129.292130 447.648285 149.189392
v 129.335571 452.719696 143.251602
v 133.616196 461.016449 157.972412
v 133.176468 452.994781 157.978607
v 129.053741 449.839752 141.659393
v 133.788971 447.189148 153.298004
v 130.945618 449.291046 144.775879
v 129.954010 453.008331 156.627625
v 127.944382 454.913849 151.307465
v 135.649612 453.040619 155.196152
v 136.527313 461.052063 155.777481
v 130.702316 463.720306 153.266357
v 133.193008 457.107147 157.977188
v 129.526901 458.953583 155.306351
v 129.348389 447.288635 151.564255
v 133.856293 448.919220 156.810440
v 135.517426 451.009369 155.247787
v 132.492996 459.194611 150.463562
v 127.520935 449.003052 149.032257
v 127.404800 452.958313 146.516098
v 128.139404 456.783936 149.332642
v 131.617081 450.973541 157.302032
v 135.430283 455.040588 153.620743
v 134.497620 458.736572 157.603973
v 127.167427 449.314880 145.117889
v 127.269241 450.919098 149.087509
v 128.124222 450.692596 153.307831
v 130.156311 455.034088 156.803833
v 132.254288 451.391602 146.196198
v 135.277145 453.099213 156.431015
v 131.802505 460.887421 157.771088
v 127.894554 448.936829 151.419495
v 131.636414 448.954742 156.912430
v 128.593033 456.999969 153.378235
v 126.424568 449.829315 146.031967
v 133.293488 460.818207 151.706085
v 130.679504 462.259216 152.299271
v 133.547821 464.734619 157.177994
v 129.492142 458.513580 149.167831
v 128.334137 456.481384 146.258072
v 129.462067 446.868347 155.313110
v 134.909180 447.235260 155.875748
# 230 vertices, 0 vertices normals

f 200 225 44
f 47 197 156
f 214 17 207
f 90 66 217
f 149 39 97
f 69 85 166
f 87 190 104
f 62 136 41
f 88 97 14
f 119 88 192
f 33 142 96
f 145 53 104
f 23 95 160
f 123 10 205
f 179 142 42
f 23 86 95
f 94 65 112
f 6 7 178
f 215 155 220
f 223 78 15
f 133 152 193
f 204 36 10
f 49 39 124
f 209 228 122
f 159 190 180
f 167 143 229
f 230 10 123
f 192 14 141
f 26 63 222
f 215 220 17
f 178 74 4
f 7 229 143
f 159 18 145
f 186 194 86
f 18 217 101
f 208 146 164
f 149 212 140
f 54 31 44
f 200 55 138
f 64 219 77
f 21 144 175
f 34 30 216
f 130 73 83
f 110 186 86
f 27 227 41
f 33 109 42
f 98 193 11
f 58 22 113
f 198 49 65
f 110 135 169
f 112 65 211
f 200 138 81
f 11 193 107
f 132 122 120
f 137 199 170
f 119 192 176
f 181 169 43
f 49 211 65
f 38 183 106
f 140 61 137
f 53 58 99
f 150 213 223
f 58 113 80
f 209 164 228
f 198 218 49
f 209 122 128
f 105 60 35
f 171 19 166
f 149 137 124
f 101 66 38
f 184 69 19
f 149 140 137
f 185 140 212
f 42 226 24
f 15 208 50
f 83 2 126
f 54 227 12
f 72 186 203
f 210 196 37
f 94 70 40
f 224 84 44
f 51 82 93
f 61 199 137
f 69 134 158
f 110 86 23
f 107 193 152
f 60 40 70
f 208 78 146
f 113 91 80
f 215 47 168
f 108 28 138
f 80 31 131
f 195 9 90
f 91 79 21
f 112 100 13
f 45 170 142
f 89 56 72
f 195 90 154
f 48 213 150
f 154 90 18
f 224 44 31
f 210 37 117
f 135 116 9
f 221 114 210
f 184 3 134
f 185 212 76
f 6 1 7
f 47 156 168
f 159 154 18
f 61 96 199
f 215 2 83
f 208 164 125
f 191 166 85
f 45 165 175
f 174 175 144
f 132 80 227
f 134 226 147
f 160 95 151
f 29 202 64
f 68 120 99
f 209 26 125
f 17 220 207
f 42 24 28
f 60 205 40
f 12 227 131
f 126 32 216
f 184 134 69
f 127 59 144
f 69 92 85
f 230 204 10
f 56 153 72
f 61 33 96
f 178 46 74
f 94 112 13
f 200 82 51
f 91 103 80
f 174 144 59
f 79 144 21
f 204 117 36
f 119 216 30
f 129 160 66
f 174 137 170
f 61 191 33
f 127 79 100
f 107 180 190
f 201 212 97
f 89 167 229
f 135 9 43
f 194 35 86
f 98 187 193
f 158 147 92
f 67 181 52
f 62 51 173
f 130 114 102
f 188 157 152
f 14 97 39
f 118 190 177
f 179 139 28
f 209 27 26
f 20 172 120
f 8 106 162
f 150 15 181
f 133 187 121
f 105 123 60
f 200 44 138
f 135 23 116
f 50 125 197
f 206 80 103
f 81 3 82
f 34 216 32
f 2 168 126
f 206 103 21
f 195 154 188
f 33 42 142
f 33 85 109
f 84 165 28
f 115 148 25
f 63 136 222
f 7 1 229
f 162 100 79
f 23 160 129
f 87 228 164
f 62 200 51
f 73 167 155
f 168 32 126
f 163 51 171
f 110 23 135
f 29 222 202
f 202 222 136
f 213 187 78
f 3 24 134
f 26 27 63
f 87 172 111
f 205 198 40
f 59 124 137
f 91 21 103
f 49 218 39
f 54 131 31
f 37 216 119
f 215 168 2
f 181 207 52
f 73 143 167
f 207 220 52
f 191 219 166
f 135 43 169
f 94 40 65
f 66 183 38
f 102 221 7
f 9 116 129
f 142 170 199
f 139 42 28
f 115 46 230
f 87 104 172
f 171 184 19
f 163 171 166
f 156 222 32
f 148 153 25
f 87 111 228
f 48 181 213
f 71 214 50
f 185 61 140
f 178 7 221
f 102 114 221
f 73 102 143
f 87 146 190
f 134 147 158
f 188 154 157
f 141 218 36
f 104 120 172
f 221 210 204
f 101 106 8
f 63 27 136
f 67 169 181
f 20 120 104
f 142 199 96
f 34 64 77
f 67 189 169
f 106 100 162
f 132 227 128
f 182 192 141
f 209 125 164
f 8 162 22
f 26 222 197
f 134 24 226
f 190 146 177
f 76 219 191
f 185 191 61
f 9 129 66
f 200 138 55
f 101 38 106
f 107 157 180
f 176 182 117
f 148 230 123
f 220 16 52
f 230 46 204
f 210 114 196
f 105 35 194
f 198 36 218
f 84 28 108
f 9 66 90
f 209 227 57
f 157 154 159
f 71 197 47
f 101 217 66
f 117 182 141
f 205 10 36
f 160 151 183
f 54 62 41
f 141 14 218
f 88 201 97
f 45 179 165
f 130 83 114
f 133 121 195
f 115 25 46
f 27 57 227
f 211 124 59
f 5 138 44
f 228 120 122
f 48 150 181
f 174 59 137
f 33 191 85
f 22 162 113
f 112 127 100
f 71 17 214
f 228 111 120
f 71 50 197
f 201 76 212
f 6 56 1
f 86 35 95
f 26 197 125
f 89 203 16
f 6 178 4
f 224 165 84
f 49 124 211
f 155 167 16
f 178 221 46
f 25 74 46
f 78 177 146
f 15 207 181
f 9 121 43
f 106 13 100
f 205 36 198
f 206 31 80
f 53 8 58
f 151 70 13
f 132 128 122
f 54 44 225
f 213 43 121
f 227 80 131
f 130 102 73
f 6 153 56
f 53 18 8
f 21 175 224
f 99 120 172
f 58 8 22
f 68 99 161
f 200 81 82
f 37 119 176
f 174 45 175
f 89 72 203
f 45 142 179
f 192 88 14
f 133 188 152
f 54 12 131
f 119 30 88
f 173 51 163
f 62 225 200
f 106 183 151
f 208 125 50
f 53 99 172
f 6 25 153
f 52 16 203
f 161 58 80
f 23 129 116
f 145 104 190
f 83 196 114
f 83 126 196
f 157 159 180
f 202 173 163
f 210 117 204
f 201 77 76
f 171 51 184
f 149 97 212
f 28 24 138
f 67 52 189
f 64 163 219
f 11 107 177
f 15 50 214
f 185 76 191
f 162 79 91
f 15 78 208
f 98 177 187
f 60 70 35
f 72 153 194
f 159 145 190
f 21 224 31
f 109 92 226
f 30 201 88
f 37 176 117
f 107 152 157
f 3 138 24
f 213 181 43
f 87 164 146
f 51 93 184
f 30 77 201
f 176 192 182
f 52 203 189
f 127 211 59
f 206 21 31
f 224 175 165
f 71 47 17
f 34 29 64
f 89 16 167
f 148 194 153
f 213 78 223
f 89 229 56
f 148 105 194
f 62 173 136
f 42 109 226
f 209 128 227
f 102 7 143
f 198 65 40
f 179 42 139
f 98 11 177
f 112 211 127
f 220 155 16
f 156 197 222
f 174 170 45
f 113 162 91
f 126 216 196
f 5 44 84
f 92 147 226
f 14 39 218
f 110 189 186
f 99 58 161
f 5 108 138
f 56 229 1
f 34 77 30
f 179 28 165
f 148 123 105
f 107 118 177
f 18 101 8
f 27 41 136
f 18 90 217
f 132 68 161
f 81 138 3
f 54 225 62
f 168 156 32
f 93 82 3
f 202 163 64
f 163 166 219
f 150 223 15
f 145 18 53
f 132 120 68
f 72 194 186
f 78 187 177
f 110 169 189
f 195 121 9
f 94 13 70
f 221 204 46
f 107 190 118
f 117 141 36
f 69 158 92
f 215 83 73
f 133 195 188
f 53 172 104
f 106 151 13
f 5 84 108
f 19 69 166
f 151 95 70
f 76 77 219
f 66 160 183
f 29 32 222
f 133 193 187
f 215 73 155
f 209 57 27
f 20 104 172
f 34 32 29
f 127 144 79
f 202 136 173
f 186 189 203
f 6 74 25
f 15 214 207
f 172 120 111
f 54 41 227
f 95 35 70
f 132 161 80
f 215 17 47
f 93 3 184
f 149 124 39
f 115 230 148
f 109 85 92
f 37 196 216
f 213 121 187
f 60 123 205
f 6 4 74
# 456 faces, 0 coords texture

# End of File