####
#
# OBJ File Generated by Meshlab
#
####
# Object Volume_124.obj
#
# Vertices: 396
# Faces: 798
#
####
v 143.640793 456.166229 150.354065
v 138.218018 457.695801 131.004852
v 143.683807 458.011871 151.388596
v 133.928726 457.692230 128.949554
v 143.255981 460.893341 145.588303
v 140.340942 457.687744 151.986603
v 136.253891 450.315979 145.652786
v 140.357391 463.094604 152.742905
v 143.631866 460.401184 152.586884
v 133.875595 450.722351 133.801788
v 143.614349 463.476807 152.448334
v 133.904358 461.447052 131.265305
v 129.021698 453.362152 139.639038
v 132.459946 461.935760 133.764984
v 140.352875 462.072998 145.829575
v 136.244629 450.584290 133.790924
v 136.912231 458.407623 130.243195
v 131.066177 461.080231 143.676483
v 138.310135 454.314545 149.799484
v 140.346069 456.599396 151.348038
v 131.985199 462.899231 139.619659
v 142.255280 452.098175 147.375015
v 143.919113 453.801758 145.670792
v 133.900314 462.241516 143.838104
v 140.346619 455.710693 150.803894
v 131.902832 450.715973 135.561844
v 130.810425 451.871979 135.875900
v 143.455460 461.291687 148.518829
v 132.805222 452.316620 146.782791
v 131.908096 461.831177 135.443787
v 140.300507 450.399597 135.601593
v 138.392365 462.451843 134.482819
v 143.554596 451.782410 141.773163
v 131.711792 455.942932 128.796753
v 142.214310 450.331970 137.606018
v 133.929672 451.008423 133.009079
v 132.779724 462.486633 150.812225
v 136.043564 453.781250 127.782188
v 131.571259 455.848694 133.200317
v 138.295090 456.602661 151.345154
v 138.314163 457.683777 151.976318
v 131.979126 452.260406 126.431519
v 138.610809 456.047180 130.756378
v 131.099762 460.735474 149.257568
v 138.296326 449.403595 144.364960
v 141.169357 461.080475 136.317337
v 136.245041 449.699280 137.487778
v 129.953033 459.669373 139.818344
v 133.897720 462.123566 145.752167
v 139.499649 453.622253 131.680740
v 133.894608 462.304504 148.086395
v 131.986542 461.597931 148.345459
v 131.228912 455.847931 145.705444
v 137.183182 453.094604 128.140060
v 130.689468 453.050842 135.932846
v 131.942596 455.326416 127.867073
v 136.245667 456.660370 151.264999
v 133.055573 462.546692 132.356079
v 131.471558 453.686066 127.559563
v 134.176819 459.766724 151.722092
v 143.148163 452.600006 147.157959
v 130.296219 457.696716 143.713089
v 130.265533 457.677673 137.357986
v 131.972961 461.594604 150.077148
v 142.420029 463.197083 152.782822
v 138.296494 453.080719 148.784058
v 133.713516 462.826508 133.302826
v 141.044983 461.945221 136.656006
v 131.700790 457.696167 133.136719
v 139.713196 462.907074 136.235077
v 131.636353 453.929779 133.313004
v 136.526917 463.073029 152.627823
v 139.396469 455.634399 131.898163
v 131.772934 455.942719 130.927948
v 131.005722 459.892181 147.767883
v 135.364227 462.641449 133.149521
v 131.258362 450.873627 136.294952
v 143.125412 449.411926 143.310211
v 133.912811 463.182587 139.709915
v 142.884857 452.390533 136.561905
v 132.729736 461.969116 150.946747
v 130.545593 454.168854 143.142593
v 136.288574 455.984985 128.492493
v 143.538406 453.855408 140.942673
v 131.966217 450.180756 137.583359
v 141.034470 462.953918 137.824997
v 141.527832 462.591919 139.602005
v 142.407852 457.646881 137.351990
v 136.245300 450.151917 135.522980
v 139.692947 457.639099 133.261566
v 129.980148 453.779877 141.602768
v 138.322586 463.530762 139.570984
v 143.144135 457.830872 139.351547
v 131.076050 455.478516 128.089523
v 141.696106 461.623474 137.388596
v 131.341537 451.880310 143.450684
v 133.953918 462.840179 135.203720
v 140.357574 448.929077 142.043961
v 143.546967 462.740753 150.877182
v 140.346436 461.751160 153.167175
v 136.245605 450.810638 132.957794
v 138.313965 461.749359 153.126556
v 142.401138 456.631866 151.285065
v 128.997925 455.180664 139.626617
v 141.365540 451.073547 134.337189
v 132.728836 458.835785 130.089111
v 129.794022 457.688934 139.653641
v 136.417450 462.514496 133.488403
v 143.266663 455.921814 139.502579
v 132.702576 450.717987 144.926025
v 142.552734 453.268616 148.585098
v 130.935181 453.957947 135.229446
v 131.071609 457.319702 146.308563
v 142.027298 453.838043 135.548813
v 130.758087 450.929749 137.638687
v 140.382721 463.404724 152.261353
v 132.642609 458.137604 149.733704
v 142.952820 450.650513 138.381073
v 143.599075 456.754364 150.937576
v 133.956238 462.855011 135.219376
v 140.346878 449.054443 143.385162
v 140.347092 460.146423 153.043304
v 132.089203 462.613342 136.272980
v 143.508957 453.972900 147.908508
v 132.699554 452.377106 131.160049
v 139.316711 458.288422 132.916870
v 138.299393 462.764954 141.677353
v 143.700974 451.849060 143.537704
v 131.894623 449.958282 141.292755
v 140.057495 453.061310 148.816833
v 143.900314 459.625122 143.544128
v 133.912735 450.265778 135.549667
v 142.911301 454.035675 137.130035
v 131.150711 454.194977 128.056534
v 136.262100 463.568237 137.144180
v 130.764801 461.638550 137.690598
v 132.361237 451.680237 145.567108
v 131.107956 455.334351 127.952469
v 135.688919 455.314850 127.972466
v 140.336121 449.857513 137.526825
v 140.439331 451.930634 147.591705
v 142.303909 463.083527 150.427429
v 143.209793 451.839996 137.324600
v 137.438995 456.883972 129.820236
v 137.902435 459.411591 131.697708
v 143.797348 459.737976 152.079636
v 143.508286 456.502106 140.517365
v 130.251465 451.895630 137.468353
v 131.920807 462.278046 141.495117
v 134.014862 449.590820 144.213654
v 136.293671 457.944824 151.912735
v 142.391296 449.175049 142.146912
v 136.375977 461.757507 152.925003
v 133.949142 452.166992 128.626846
v 142.319366 454.275787 149.615005
v 133.189087 462.508606 133.956955
v 138.308334 463.083496 152.734390
v 142.581345 455.885345 137.228989
v 138.829193 459.876007 133.116119
v 131.154160 460.961853 149.360931
v 136.142548 457.580444 129.247406
v 129.926270 457.673065 141.683945
v 130.050995 453.879211 137.259750
v 138.296127 451.835327 147.556412
v 131.968582 461.769073 143.793106
v 138.215500 451.985779 130.965668
v 143.489746 451.870544 145.525879
v 128.962234 453.572754 139.576462
v 140.347076 459.025299 152.656738
v 142.423401 450.164612 139.383163
v 131.152618 457.677917 135.139526
v 136.245285 449.066132 143.383545
v 136.268707 454.364349 149.712631
v 136.248383 462.778320 141.666565
v 144.232254 459.701355 150.152512
v 142.351669 461.755005 153.095123
v 140.484650 453.888062 133.263718
v 140.032745 461.636719 135.410812
v 138.295517 450.261108 145.698608
v 131.304169 459.706757 135.296692
v 128.978973 453.646698 139.576843
v 133.012482 462.660858 132.821045
v 133.905579 449.778625 137.504410
v 131.977798 461.593475 145.690842
v 137.159439 452.703552 128.242859
v 138.339554 463.913513 137.499695
v 138.289841 460.135529 153.011658
v 132.444016 449.971558 143.546631
v 135.901321 461.429321 131.784103
v 143.570999 455.595581 140.914536
v 129.147354 452.034546 139.734451
v 132.583542 459.726105 131.106842
v 140.323502 450.955444 134.064194
v 131.167374 460.920685 145.673920
v 133.846664 453.290192 148.735245
v 134.855423 462.502289 132.274231
v 143.756424 456.017090 141.684296
v 130.363708 451.945435 141.416916
v 133.889465 453.178955 148.721954
v 144.076675 455.881683 143.461960
v 133.871246 459.395386 129.923904
v 142.668350 463.489990 152.418198
v 132.678665 449.337555 142.946304
v 138.295547 449.358337 139.185440
v 142.323532 449.587708 144.188126
v 130.712006 456.795990 144.981415
v 138.308365 451.007507 133.016602
v 132.036758 449.943756 139.230011
v 136.229446 453.129333 148.739090
v 141.278519 451.255096 134.045609
v 133.900543 462.688721 141.639252
v 131.942856 452.245819 126.440819
v 134.380341 460.353912 130.426437
v 141.839798 455.891876 135.853516
v 131.465042 452.317688 126.356003
v 132.521698 457.376617 129.443146
v 143.158615 461.455811 140.675430
v 136.263672 462.897186 134.904083
v 129.745377 455.957703 141.525452
v 132.551239 462.436584 150.439468
v 131.892944 452.245514 126.483879
v 142.332169 450.615509 145.450256
v 138.302231 462.198578 145.827515
v 135.356628 461.740784 152.493118
v 136.245697 448.962219 141.213318
v 140.341599 449.426147 144.349258
v 143.428375 451.782990 140.951462
v 135.568817 459.693268 152.421585
v 144.277649 457.658508 145.505157
v 143.329132 449.887268 143.703308
v 142.114777 451.792847 135.480026
v 143.977051 461.731415 152.030853
v 138.296021 455.721283 150.790298
v 133.175491 458.955261 150.742996
v 144.079834 455.966339 147.978012
v 142.975006 449.315338 142.433533
v 132.922745 461.432526 131.808914
v 140.462677 454.228149 149.768692
v 140.338516 449.040009 141.235718
v 133.917877 448.988525 142.058151
v 141.303009 453.866119 134.452560
v 141.639450 457.573822 136.014908
v 136.378159 463.189270 135.727600
v 136.245605 448.908752 142.056564
v 131.219894 460.882233 147.905563
v 143.998642 461.614075 150.348206
v 138.194489 459.022827 152.630096
v 139.419708 451.993317 131.981094
v 139.231369 464.414154 137.971863
v 133.832901 453.196808 148.663834
v 132.048447 457.701355 131.124771
v 143.670700 453.858002 141.776886
v 143.707794 459.699554 141.627029
v 143.367889 454.861938 149.417892
v 143.382935 453.852203 139.489548
v 134.692459 456.720367 150.842361
v 130.451797 455.926086 143.682617
v 136.169144 462.319824 143.785553
v 133.902298 449.157501 143.363235
v 140.349335 462.179321 143.515869
v 143.627090 463.649384 152.643677
v 131.079407 455.911163 135.104645
v 133.813950 462.639771 132.183273
v 131.900284 459.728912 133.489883
v 130.429077 459.691986 137.417160
v 142.285522 461.693359 143.463776
v 142.257080 462.022156 141.358902
v 135.934326 452.826111 128.129669
v 133.144547 455.414093 148.789078
v 143.566833 463.569000 152.636276
v 133.853775 456.610229 128.293320
v 129.400436 450.774689 139.714584
v 144.131516 457.658600 143.536667
v 138.308975 463.232788 150.319183
v 143.828918 457.664246 141.731445
v 139.600510 459.509705 133.771759
v 138.295807 449.712708 137.490967
v 136.251587 449.425385 144.352371
v 132.338089 452.252136 126.461983
v 134.032867 461.711761 151.770966
v 136.226761 451.466370 130.953079
v 135.734756 458.861145 129.859619
v 138.293884 450.184784 135.531784
v 145.620987 461.768036 152.000000
v 133.938965 463.316010 137.161240
v 132.045975 463.048920 137.318558
v 131.717392 453.992432 145.680344
v 140.204010 463.575531 137.306396
v 140.451843 451.729004 133.314011
v 138.296783 449.046356 143.388733
v 138.296677 448.899109 142.055267
v 143.936890 453.868195 143.533295
v 136.227142 462.225739 145.711273
v 138.302048 462.321869 143.535690
v 132.621506 453.964844 147.314148
v 137.426605 452.506378 129.102875
v 138.294891 448.962860 141.214920
v 140.218994 455.951843 133.331238
v 140.161224 463.282776 139.522690
v 133.909897 449.449890 139.202698
v 133.875229 449.081421 141.217697
v 130.717560 459.742523 145.730316
v 143.299561 461.380676 141.543350
v 131.403519 451.932526 134.949295
v 144.098312 457.818390 150.247116
v 132.243851 455.983643 147.798904
v 143.370270 452.962433 138.485260
v 133.844055 455.594391 127.736259
v 132.229630 451.855682 133.409821
v 140.336838 450.310303 145.658463
v 130.123322 455.847992 137.357574
v 142.382263 460.151794 152.954742
v 130.618668 457.974915 145.466354
v 132.190140 459.881805 150.090347
v 131.716415 457.732727 148.102417
v 141.166351 455.887268 134.833969
v 141.412933 452.446930 134.356644
v 142.355087 449.179688 143.357071
v 134.013702 451.634827 130.958435
v 131.449310 453.902893 128.816681
v 132.015076 452.236420 126.490204
v 143.539230 457.663727 140.507782
v 140.343323 463.240509 150.317993
v 136.248032 455.775848 150.689972
v 143.950623 459.688477 145.620300
v 140.321808 449.508514 139.216400
v 139.084763 464.446472 137.953064
v 142.496674 461.706268 139.607483
v 131.256790 462.699158 137.887100
v 143.092255 449.829803 142.043182
v 136.511353 460.014526 152.772797
v 131.054443 453.584442 144.018890
v 142.358582 462.016876 148.177155
v 143.459488 459.703705 140.538071
v 136.163742 452.180969 128.759125
v 130.435776 459.689728 143.587250
v 133.415283 457.557861 150.360184
v 134.592773 457.860504 151.312042
v 138.299377 462.541931 147.985580
v 136.189178 451.901428 147.548187
v 142.048965 459.682617 137.255661
v 143.265625 460.980408 143.420837
v 142.549271 449.656647 141.164429
v 131.918991 453.713409 127.224823
v 137.432892 460.860565 132.342407
v 130.909500 462.407990 139.248169
v 138.695908 453.986176 130.520370
v 138.352509 463.351044 152.273438
v 131.856155 453.841125 131.082138
v 140.356598 462.445404 148.013260
v 131.409439 459.370758 148.641998
v 142.881104 450.780853 137.549149
v 144.279633 457.687775 148.002319
v 141.892471 450.907501 135.908508
v 143.345688 451.822632 138.485031
v 130.787933 461.488678 141.210754
v 142.350616 457.732727 151.880325
v 143.313522 451.782654 139.520142
v 136.245117 449.346924 139.182678
v 142.363007 459.080933 152.548813
v 133.882980 453.805756 127.293709
v 142.374924 455.787750 150.689392
v 129.188202 451.957428 139.741714
v 144.225723 455.919678 145.508362
v 137.589569 455.735352 129.412354
v 131.099228 451.361786 142.245300
v 133.977203 450.558167 145.461197
v 142.294159 461.599823 145.838745
v 132.379974 451.102753 134.272369
v 144.070831 459.802307 148.025009
v 143.629257 461.764282 152.655701
v 132.289749 452.765167 128.397690
v 140.844879 457.685822 134.844452
v 143.045822 459.726105 139.481552
v 141.403305 459.708649 136.084335
v 143.235168 452.989227 137.457703
v 143.341354 450.715149 144.800919
v 136.231323 463.144073 152.334656
v 134.026917 462.744690 150.220184
v 134.055664 456.022705 150.013916
v 138.407516 462.451172 134.550842
v 132.506149 449.324646 142.199722
v 136.289612 459.793640 130.627457
v 136.244507 462.526642 148.012054
v 138.404068 462.394775 134.479797
v 137.699356 453.791138 128.936020
v 134.584595 462.621063 151.357391
v 140.508728 459.765503 135.071686
v 130.379272 461.517120 139.735779
v 140.347946 462.579803 141.594147
v 136.234436 463.069885 150.384125
v 138.290253 450.670013 133.817444
v 130.957779 458.654724 146.885712
v 129.114059 452.243866 139.670486
v 136.254715 463.330627 139.731873
v 130.081345 459.695068 141.521164
# 396 vertices, 0 vertices normals

f 237 182 14
f 157 348 8
f 296 54 185
f 63 107 311
f 71 262 112
f 365 43 144
f 391 348 378
f 200 273 275
f 159 126 276
f 240 259 172
f 244 290 291
f 145 159 345
f 125 349 71
f 8 116 65
f 90 276 126
f 179 141 310
f 285 135 395
f 296 166 386
f 378 348 157
f 387 378 224
f 90 388 276
f 369 309 26
f 98 152 343
f 128 23 292
f 211 258 24
f 372 319 154
f 204 239 326
f 72 153 224
f 336 194 302
f 51 293 384
f 363 129 208
f 274 116 348
f 274 350 323
f 349 372 320
f 386 83 38
f 42 59 221
f 152 78 236
f 33 292 252
f 369 132 10
f 385 32 381
f 291 121 98
f 244 297 225
f 262 163 112
f 270 261 11
f 66 19 130
f 260 266 368
f 251 192 69
f 136 30 123
f 140 170 35
f 74 251 69
f 384 223 339
f 27 304 112
f 353 305 175
f 189 76 196
f 354 352 143
f 21 356 346
f 386 347 365
f 133 307 255
f 93 109 322
f 267 303 342
f 193 210 289
f 296 185 335
f 372 154 321
f 285 243 135
f 329 123 286
f 192 14 264
f 93 334 374
f 174 294 258
f 150 367 7
f 394 198 363
f 131 273 325
f 131 253 275
f 296 386 54
f 228 224 153
f 52 245 184
f 98 121 318
f 267 342 266
f 281 101 207
f 365 347 43
f 247 187 169
f 329 286 21
f 160 245 64
f 120 76 108
f 55 27 112
f 338 57 256
f 334 253 217
f 40 151 41
f 361 344 321
f 131 342 253
f 211 395 174
f 313 302 393
f 255 84 190
f 142 11 202
f 354 143 231
f 264 14 30
f 191 272 363
f 45 179 310
f 211 149 79
f 394 272 191
f 181 311 107
f 232 371 11
f 389 356 396
f 295 199 250
f 29 295 250
f 31 140 35
f 81 60 314
f 188 110 367
f 49 24 293
f 145 189 383
f 334 275 253
f 115 77 27
f 232 146 9
f 339 350 274
f 283 140 31
f 84 252 197
f 186 249 327
f 164 7 340
f 264 30 180
f 236 78 230
f 357 360 3
f 184 245 194
f 132 47 89
f 308 56 344
f 175 146 246
f 394 13 198
f 31 354 193
f 361 308 344
f 341 328 95
f 238 25 155
f 164 141 179
f 298 316 373
f 301 208 129
f 227 252 84
f 71 39 262
f 89 283 16
f 229 200 364
f 363 115 148
f 392 193 207
f 379 391 387
f 193 105 210
f 244 291 297
f 201 383 213
f 216 34 271
f 201 282 383
f 233 57 40
f 392 31 193
f 152 318 78
f 60 280 228
f 330 230 128
f 174 127 294
f 181 162 219
f 380 337 338
f 90 373 388
f 31 35 354
f 283 277 140
f 157 8 100
f 292 23 364
f 257 53 332
f 353 175 370
f 180 30 265
f 96 91 332
f 120 123 30
f 13 163 311
f 93 322 334
f 124 254 1
f 274 323 116
f 188 129 96
f 395 92 174
f 386 365 83
f 247 151 331
f 160 314 44
f 385 381 32
f 379 387 220
f 317 231 241
f 77 304 27
f 240 225 301
f 390 299 87
f 223 294 15
f 20 6 103
f 133 376 307
f 192 12 237
f 214 88 242
f 345 385 189
f 131 5 342
f 355 255 307
f 150 7 278
f 2 43 90
f 351 44 314
f 372 221 59
f 354 231 210
f 141 130 238
f 298 373 90
f 295 269 199
f 396 162 48
f 183 26 85
f 52 220 64
f 308 38 139
f 192 201 12
f 101 319 36
f 391 274 348
f 242 88 341
f 137 295 29
f 20 103 362
f 68 46 95
f 2 90 126
f 243 32 381
f 174 92 127
f 368 5 333
f 16 392 101
f 125 309 36
f 98 343 239
f 313 393 315
f 353 235 305
f 152 330 343
f 166 289 248
f 89 47 277
f 217 253 303
f 396 18 336
f 79 149 21
f 181 219 91
f 185 54 38
f 390 267 266
f 92 327 299
f 229 353 370
f 205 222 377
f 125 36 319
f 306 269 295
f 103 357 119
f 169 360 357
f 117 337 315
f 195 173 209
f 306 113 315
f 362 1 254
f 5 370 28
f 167 23 128
f 142 28 99
f 322 275 334
f 42 321 344
f 350 333 323
f 308 271 56
f 63 265 48
f 281 154 319
f 77 85 26
f 343 33 227
f 351 75 44
f 349 34 74
f 381 70 186
f 37 220 387
f 178 375 46
f 291 98 239
f 14 156 120
f 178 288 70
f 182 263 67
f 305 3 146
f 252 200 197
f 138 59 56
f 381 178 70
f 309 71 112
f 13 311 181
f 6 357 103
f 211 79 395
f 366 96 129
f 37 64 220
f 330 128 33
f 183 359 47
f 120 97 76
f 89 277 283
f 231 133 114
f 372 42 221
f 43 347 73
f 170 118 352
f 127 299 390
f 144 2 161
f 160 64 314
f 281 319 101
f 94 138 34
f 337 60 338
f 155 124 111
f 199 209 340
f 292 364 200
f 233 25 238
f 178 68 288
f 375 341 95
f 240 244 225
f 349 39 71
f 127 390 260
f 382 259 240
f 293 223 384
f 355 307 376
f 295 287 53
f 206 53 257
f 102 157 100
f 15 368 350
f 312 176 9
f 164 209 66
f 158 109 93
f 188 203 129
f 226 222 205
f 178 46 68
f 380 173 195
f 136 389 265
f 167 124 23
f 202 11 261
f 360 312 146
f 137 367 110
f 237 58 182
f 49 51 52
f 363 208 115
f 88 374 341
f 352 118 143
f 132 183 47
f 323 142 202
f 282 17 383
f 344 56 59
f 281 207 166
f 66 130 141
f 231 143 80
f 232 11 246
f 137 29 250
f 289 210 317
f 232 9 371
f 63 48 107
f 222 22 167
f 288 68 95
f 305 146 175
f 97 286 123
f 121 226 318
f 156 97 120
f 197 322 147
f 312 9 146
f 88 158 93
f 230 377 167
f 234 314 60
f 255 190 109
f 231 80 133
f 257 162 62
f 316 241 114
f 7 367 340
f 374 334 217
f 16 283 392
f 199 195 209
f 52 64 245
f 152 236 330
f 2 17 161
f 186 288 249
f 136 346 389
f 55 112 163
f 62 336 313
f 302 75 393
f 385 178 32
f 16 36 10
f 347 50 73
f 82 91 257
f 22 111 61
f 13 91 198
f 42 212 221
f 2 126 159
f 53 287 332
f 306 337 380
f 380 324 173
f 205 377 230
f 345 159 385
f 258 294 223
f 72 102 153
f 303 253 342
f 51 384 379
f 199 195 250
f 39 69 262
f 141 238 22
f 60 228 151
f 118 355 143
f 391 339 274
f 16 101 36
f 315 75 351
f 188 96 137
f 120 218 97
f 60 151 338
f 187 153 102
f 109 147 322
f 43 73 298
f 201 161 282
f 223 15 339
f 181 107 162
f 108 32 218
f 206 62 313
f 199 340 250
f 238 155 22
f 170 358 118
f 341 374 328
f 77 26 304
f 306 295 53
f 166 207 289
f 111 124 61
f 390 87 267
f 133 80 143
f 350 368 333
f 186 70 288
f 338 151 57
f 358 255 355
f 187 331 153
f 50 177 298
f 388 242 375
f 13 191 168
f 288 86 87
f 40 20 25
f 339 15 350
f 115 85 77
f 149 165 356
f 373 214 242
f 127 260 294
f 378 157 72
f 165 194 18
f 114 158 214
f 311 163 262
f 12 213 383
f 135 186 92
f 259 150 172
f 305 1 3
f 294 260 15
f 296 335 166
f 88 93 374
f 313 113 53
f 233 324 57
f 369 26 132
f 63 311 171
f 58 12 263
f 134 320 59
f 359 297 204
f 300 85 208
f 24 165 149
f 288 95 86
f 395 135 92
f 349 74 39
f 14 67 156
f 82 332 91
f 226 310 222
f 172 278 290
f 2 145 383
f 229 370 325
f 25 362 155
f 281 335 154
f 32 178 381
f 25 20 362
f 222 167 377
f 308 83 271
f 289 241 177
f 133 109 158
f 300 359 183
f 170 227 358
f 230 167 128
f 315 393 75
f 114 133 158
f 298 177 241
f 23 235 364
f 1 119 3
f 396 356 18
f 366 198 96
f 206 313 53
f 49 52 184
f 219 257 91
f 333 28 142
f 49 165 24
f 297 239 204
f 343 330 33
f 187 102 122
f 227 33 252
f 4 161 201
f 201 213 12
f 169 122 360
f 337 234 60
f 148 55 163
f 166 248 50
f 125 372 349
f 394 363 272
f 122 312 360
f 65 270 371
f 104 13 181
f 175 246 370
f 137 96 287
f 145 345 189
f 371 270 11
f 190 197 147
f 233 40 25
f 125 71 309
f 326 170 140
f 199 380 195
f 103 119 1
f 166 50 347
f 229 325 273
f 108 385 32
f 236 230 330
f 354 210 105
f 271 83 4
f 69 192 264
f 164 66 141
f 155 254 124
f 390 266 260
f 67 97 156
f 388 373 242
f 14 120 30
f 337 314 234
f 197 200 275
f 277 326 140
f 100 8 176
f 382 240 301
f 225 297 359
f 116 202 65
f 120 108 218
f 361 38 308
f 240 172 244
f 45 226 121
f 216 271 4
f 278 179 45
f 291 239 297
f 107 48 162
f 125 319 372
f 99 246 11
f 263 189 196
f 2 159 145
f 241 231 114
f 176 65 371
f 311 262 171
f 299 249 288
f 357 3 119
f 328 374 217
f 159 388 178
f 161 17 282
f 96 332 287
f 301 225 300
f 4 83 161
f 92 186 327
f 19 173 324
f 188 150 259
f 317 210 231
f 28 370 246
f 194 245 75
f 211 24 149
f 187 122 169
f 136 329 346
f 65 202 270
f 100 176 312
f 193 354 105
f 138 56 34
f 365 161 83
f 199 250 195
f 252 292 200
f 335 268 154
f 22 61 167
f 6 169 357
f 66 173 19
f 101 392 207
f 149 356 21
f 74 34 216
f 316 114 214
f 185 268 335
f 247 169 6
f 306 380 269
f 159 276 388
f 164 340 209
f 82 257 332
f 216 192 251
f 184 194 165
f 13 168 181
f 165 18 356
f 95 87 86
f 368 266 5
f 244 172 290
f 40 57 151
f 170 352 35
f 117 315 314
f 148 27 55
f 94 134 59
f 206 257 62
f 205 230 78
f 104 168 13
f 102 100 122
f 109 190 147
f 97 285 286
f 386 166 347
f 69 264 171
f 40 41 20
f 358 84 255
f 306 53 113
f 308 139 83
f 167 61 124
f 204 326 277
f 51 220 52
f 382 203 259
f 214 158 88
f 385 159 178
f 394 168 191
f 216 106 192
f 133 143 376
f 19 238 130
f 301 300 208
f 41 6 20
f 375 95 46
f 358 227 84
f 313 315 113
f 79 21 286
f 336 18 194
f 94 34 320
f 13 181 91
f 280 224 228
f 394 163 13
f 117 314 337
f 41 247 6
f 74 216 251
f 278 45 290
f 79 285 395
f 94 59 138
f 197 275 322
f 43 298 90
f 380 256 324
f 394 191 363
f 361 268 38
f 192 106 201
f 151 228 331
f 281 166 335
f 310 22 222
f 24 258 293
f 264 180 171
f 389 48 265
f 42 279 212
f 127 92 299
f 378 72 224
f 359 204 47
f 58 263 182
f 305 235 1
f 136 265 30
f 394 191 13
f 96 198 91
f 37 387 280
f 118 358 355
f 19 324 233
f 394 363 148
f 280 387 224
f 290 45 121
f 218 32 243
f 299 288 87
f 379 384 391
f 349 320 34
f 394 148 163
f 354 35 352
f 137 287 295
f 309 10 36
f 326 343 170
f 216 4 106
f 293 258 223
f 67 76 97
f 98 318 152
f 212 279 321
f 41 151 247
f 389 396 48
f 327 249 299
f 189 385 108
f 63 180 265
f 340 367 250
f 226 205 318
f 192 237 14
f 353 364 235
f 266 342 5
f 300 183 85
f 33 128 292
f 306 315 337
f 95 328 87
f 239 343 326
f 143 355 376
f 248 289 177
f 380 338 256
f 133 255 109
f 150 278 172
f 283 31 392
f 365 144 161
f 313 336 302
f 268 321 154
f 144 43 2
f 361 321 268
f 348 116 8
f 160 44 75
f 131 325 5
f 185 38 268
f 47 204 277
f 45 310 226
f 79 286 285
f 132 26 183
f 343 227 170
f 106 4 201
f 232 246 146
f 302 194 75
f 66 209 173
f 300 225 359
f 219 162 257
f 202 261 270
f 267 328 303
f 310 141 22
f 50 298 73
f 263 76 67
f 215 212 42
f 389 346 356
f 104 181 168
f 373 316 214
f 132 89 10
f 363 198 129
f 62 162 396
f 309 304 26
f 199 269 380
f 228 153 331
f 309 112 304
f 89 16 10
f 124 1 235
f 256 57 324
f 382 129 203
f 387 391 378
f 69 171 262
f 263 196 76
f 247 331 187
f 323 333 142
f 315 351 314
f 394 13 168
f 142 99 11
f 122 100 312
f 229 273 200
f 333 5 28
f 115 208 85
f 207 193 289
f 12 383 189
f 135 381 186
f 12 189 263
f 360 146 3
f 124 235 23
f 289 317 241
f 189 108 76
f 63 171 180
f 366 129 198
f 323 202 116
f 81 37 280
f 237 12 58
f 372 321 42
f 54 386 38
f 136 123 329
f 15 260 368
f 42 344 59
f 267 87 328
f 328 217 303
f 188 259 203
f 137 250 367
f 19 233 238
f 318 205 78
f 42 321 279
f 369 10 309
f 5 325 370
f 215 221 212
f 211 174 258
f 329 21 346
f 382 301 129
f 81 280 60
f 248 177 50
f 8 65 176
f 62 396 336
f 271 34 56
f 97 218 243
f 115 27 148
f 388 375 178
f 164 179 7
f 391 384 339
f 160 75 245
f 28 246 99
f 215 42 221
f 278 7 179
f 188 137 110
f 243 381 135
f 291 290 121
f 94 320 134
f 49 184 165
f 74 69 39
f 81 64 37
f 372 59 320
f 72 157 102
f 298 241 316
f 81 314 64
f 84 197 190
f 38 83 139
f 49 293 51
f 2 383 17
f 229 364 353
f 155 362 254
f 42 212 321
f 51 379 220
f 362 103 1
f 120 97 123
f 176 371 9
f 22 155 111
f 14 182 67
f 242 341 375
f 97 243 285
f 188 367 150
f 131 275 273
# 798 faces, 0 coords texture

# End of File