####
#
# OBJ File Generated by Meshlab
#
####
# Object Volume_092.obj
#
# Vertices: 408
# Faces: 824
#
####
v 174.195908 456.895111 149.754089
v 174.378906 458.058472 147.759842
v 169.841751 458.196411 131.408386
v 174.231735 458.516388 151.160446
v 173.013885 459.924103 142.431717
v 165.068939 458.115173 129.257828
v 171.405945 458.165771 151.752594
v 167.148773 450.799683 145.287613
v 162.087097 453.854065 138.294327
v 171.369995 463.161499 152.716110
v 174.175674 460.381042 152.859894
v 164.959595 450.569641 133.786835
v 166.106522 459.449310 150.736649
v 171.356750 461.841187 146.538330
v 167.010101 450.546448 133.781631
v 163.951492 463.829010 138.991806
v 174.350540 454.070496 145.809341
v 165.107071 461.355774 144.527878
v 171.452713 456.184021 150.022156
v 167.096497 458.051025 150.322617
v 162.982880 450.520447 135.553940
v 172.184296 460.485687 141.531418
v 161.373322 451.925690 135.597549
v 170.008179 462.764221 137.492310
v 163.548935 454.009247 142.390427
v 171.474472 450.277100 135.559357
v 164.431778 451.727448 142.536575
v 169.791550 462.561981 135.381058
v 175.067215 451.620819 142.391266
v 167.055923 462.866699 149.513641
v 162.621536 455.894012 139.944641
v 164.877945 462.004089 130.323746
v 162.121124 455.809418 129.052368
v 174.020737 450.005066 137.072418
v 164.958588 450.752197 132.950623
v 166.984421 453.801178 128.349304
v 172.573318 453.716888 133.952698
v 169.098724 458.387024 151.857635
v 171.392944 455.069336 148.959686
v 163.737091 452.415436 127.261642
v 164.231583 457.543213 144.906921
v 170.153687 456.474792 131.073776
v 169.067352 449.801056 144.535614
v 167.007629 449.717285 137.849274
v 166.929520 451.925842 146.110947
v 165.143204 461.385071 146.425140
v 170.326935 453.573120 130.590393
v 171.250626 453.843536 131.918625
v 165.156708 461.656647 148.451416
v 162.021606 457.959137 138.321884
v 164.486420 461.057251 148.526840
v 164.956161 464.076019 130.773605
v 168.265076 453.614502 128.811035
v 160.972931 453.859375 135.579300
v 162.132431 455.805573 129.017380
v 164.941742 457.907440 146.389374
v 166.214340 460.297913 152.454636
v 163.760223 458.041595 143.945984
v 164.962845 462.775879 140.752472
v 161.549149 457.959991 137.274750
v 165.147720 462.498077 150.825134
v 172.499771 462.970428 152.732269
v 169.067963 453.828217 148.017365
v 164.947372 464.964081 134.389679
v 170.745575 461.791473 137.595032
v 166.090836 452.270111 145.312775
v 167.008636 463.151855 152.660736
v 171.031616 455.984497 131.834442
v 165.148361 462.013702 150.106461
v 171.443985 462.900116 149.192047
v 167.030136 464.488007 133.792877
v 173.911743 453.564056 146.611496
v 161.801178 450.978088 135.610260
v 166.369949 460.400604 152.737335
v 174.811111 449.404602 143.424179
v 160.387253 458.617554 134.712631
v 164.705704 465.723083 132.965286
v 165.074875 463.939148 139.751419
v 174.146194 451.832520 137.276825
v 161.654755 463.734344 133.433929
v 167.089493 456.506531 129.074249
v 163.016220 450.577759 137.753265
v 172.085373 460.155029 139.783310
v 172.731857 457.812439 137.594833
v 167.010162 450.154755 135.524048
v 166.284317 451.310638 144.885513
v 171.445267 457.945679 133.734589
v 161.815094 462.979401 135.130798
v 168.672775 463.626099 139.472015
v 173.307724 457.946167 140.079636
v 162.078674 455.813629 129.069626
v 164.873413 464.672668 135.769791
v 164.220947 464.639526 138.654236
v 171.405396 448.954163 142.500931
v 166.246765 465.094452 133.033020
v 171.390457 462.027313 153.105286
v 164.114670 460.145996 146.302368
v 167.010254 450.748657 132.950500
v 169.062622 462.015289 153.095612
v 161.578705 452.119171 131.840225
v 160.966003 461.941101 133.725021
v 166.193802 463.549286 131.019150
v 171.785095 459.909088 137.535645
v 159.966141 454.360840 133.783218
v 172.548737 451.098969 134.568207
v 162.992157 459.898071 129.970352
v 174.198990 458.020447 146.343689
v 173.990814 455.961456 139.786072
v 174.007446 455.159943 148.441086
v 174.059082 459.966370 148.371780
v 175.362198 449.319916 142.747040
v 160.992310 453.952759 131.684143
v 173.291473 453.783478 135.715240
v 162.213715 450.779785 136.878601
v 171.300766 463.400757 152.122604
v 174.444565 450.405701 140.505463
v 170.046463 452.379242 130.882736
v 171.405731 449.259155 143.647491
v 171.331253 460.204102 153.011612
v 161.616989 464.101624 131.693481
v 162.817932 463.817200 135.761261
v 163.007172 451.415985 131.619186
v 162.019958 465.129395 132.213699
v 169.051239 462.138367 142.162048
v 174.766571 451.746918 144.213684
v 171.409988 453.931885 147.996780
v 164.966202 450.246002 135.538834
v 173.367432 459.803070 144.363312
v 173.977402 453.885651 137.651566
v 161.672440 453.894867 130.109222
v 160.214249 457.913483 133.592239
v 166.976288 464.823120 137.066177
v 173.636597 462.181305 152.441910
v 161.868073 461.512604 137.078400
v 162.178970 455.799469 128.979996
v 166.881836 455.515717 128.610718
v 164.904861 459.704376 148.479202
v 171.403152 449.696808 137.841949
v 172.938156 462.845703 150.623001
v 174.399734 451.653107 137.972580
v 168.694687 457.800659 130.373123
v 169.404739 459.985382 131.677887
v 174.211823 460.034698 152.162766
v 174.490295 455.319550 140.888535
v 161.845154 451.830505 137.151306
v 163.931793 460.962036 141.998718
v 163.130264 465.825378 132.868942
v 166.098709 450.076538 143.732025
v 167.413727 458.809937 151.671997
v 173.483887 449.039307 142.477478
v 167.060364 462.039459 153.044815
v 164.374405 459.368317 146.562134
v 167.040466 462.997498 141.026413
v 164.969116 451.609344 129.879150
v 162.845825 459.957642 139.921265
v 169.063568 463.143951 152.635483
v 173.387894 455.948608 137.610596
v 173.530731 460.041962 146.456207
v 170.150604 460.557037 133.050964
v 166.981598 457.930176 129.579025
v 161.630081 453.858948 137.230438
v 168.132889 452.684723 147.175995
v 164.177078 460.640839 144.269760
v 168.999390 451.412964 131.652176
v 174.248138 451.984100 145.155365
v 171.629120 459.425629 152.702225
v 173.336609 449.615448 140.055878
v 167.007996 449.267120 143.646179
v 167.831421 455.242157 148.819321
v 167.010757 462.310516 142.206360
v 174.518188 459.895599 150.238159
v 162.370483 451.861145 138.160019
v 167.020493 464.962769 137.773178
v 173.274506 461.900085 152.967209
v 172.136169 454.307587 133.191650
v 170.590042 461.612183 135.726212
v 169.059067 450.684570 145.442322
v 162.887848 464.589478 134.214218
v 165.000671 450.036804 137.874710
v 165.459824 458.326324 147.921188
v 161.379700 461.867859 135.567047
v 169.363708 462.596375 140.482407
v 164.294907 460.669708 146.295898
v 168.115723 452.519745 129.029907
v 168.990967 463.886719 137.412247
v 169.066833 460.151367 152.990463
v 166.136917 465.028412 132.328979
v 161.757019 457.912323 130.286041
v 167.463898 462.652405 131.344818
v 173.319901 452.140656 145.822861
v 165.818695 454.017242 145.948959
v 170.323166 461.234863 134.090317
v 174.366730 456.507050 141.980743
v 171.381424 450.931427 133.919327
v 166.901413 464.093079 131.692581
v 164.266098 464.921112 131.099930
v 159.992416 455.408051 133.709290
v 174.629044 455.865051 142.549286
v 174.626831 455.821014 144.465317
v 165.002930 460.112701 129.850067
v 162.045334 455.907318 138.309235
v 172.809418 463.041351 152.283249
v 169.061569 449.203247 140.006897
v 172.442169 455.447815 134.253891
v 173.418045 449.873199 144.425171
v 169.055634 450.840851 132.977188
v 170.303741 459.631012 132.647842
v 166.396225 453.777527 146.508057
v 165.836945 463.260712 152.651230
v 163.880188 450.678101 139.434967
v 167.396393 454.139465 147.773727
v 172.436295 451.881409 134.079483
v 166.086807 455.911926 147.015717
v 160.258545 457.286987 134.361252
v 164.955948 461.861450 142.083298
v 163.462509 452.361450 127.274055
v 168.272903 459.834747 130.673416
v 159.976746 455.484375 133.721893
v 163.631668 456.041321 143.354858
v 172.822723 455.921783 135.635895
v 162.848572 458.157013 129.483932
v 162.913574 461.893433 130.401672
v 162.073761 452.291168 130.605835
v 173.410629 450.811920 145.189224
v 162.145538 460.010742 138.267914
v 160.719986 457.941467 131.899704
v 169.043701 462.113556 146.497818
v 166.970520 449.116974 141.521957
v 171.402817 449.808655 144.524307
v 166.837570 459.624115 152.258987
v 170.212616 455.455963 130.803848
v 174.815018 449.902802 143.707748
v 173.501495 451.841309 135.825333
v 174.168015 461.502899 152.177963
v 169.040039 456.038025 149.782761
v 165.373840 460.383514 150.136307
v 174.052963 455.224976 148.468430
v 163.248169 457.816925 142.309616
v 175.268723 449.300934 142.907684
v 171.402374 448.961273 141.509186
v 166.124985 449.336548 142.566956
v 166.193787 457.722321 148.640854
v 172.469437 457.386230 135.927704
v 167.045578 464.501862 135.684357
v 164.129044 453.042694 142.873657
v 167.050415 449.020538 142.510574
v 174.185349 461.391083 150.682907
v 163.270020 451.860809 140.043716
v 169.076843 459.404968 152.636337
v 170.931946 452.012573 132.179016
v 174.917007 453.930725 142.394638
v 174.349533 454.294861 139.223267
v 166.975388 461.879517 144.246170
v 166.420822 449.334839 143.452301
v 160.711441 457.940582 135.695160
v 174.367783 455.924866 146.487701
v 171.312241 461.463562 144.339569
v 167.898499 461.227631 130.983582
v 173.850952 457.980133 142.420914
v 171.439636 451.913910 146.268677
v 164.498001 457.143280 128.904633
v 165.370270 464.739349 131.352524
v 169.088531 463.053528 149.406570
v 161.908081 459.940521 130.558731
v 161.625961 460.012115 137.223221
v 172.606064 460.843231 144.596405
v 172.389664 460.705200 143.003265
v 164.858261 452.178314 127.269005
v 165.850037 456.812500 128.929962
v 169.107620 454.992340 149.013123
v 162.965958 464.029266 130.785278
v 174.411423 457.058868 144.004456
v 169.054230 463.309021 150.371704
v 170.848602 459.947510 133.775177
v 169.060883 449.653015 137.832886
v 163.147049 457.334167 129.105774
v 166.955276 449.904968 144.510300
v 163.058609 464.952728 131.109940
v 161.905624 461.853455 130.874939
v 164.783966 452.194214 127.227959
v 165.519775 462.240753 151.904633
v 167.012543 451.119873 131.531769
v 163.852112 459.819794 144.516983
v 167.007614 460.015320 130.223495
v 169.060455 450.153900 135.524139
v 173.621841 462.184357 150.171753
v 164.981995 464.808899 137.075974
v 163.391159 463.874420 137.464096
v 174.138809 458.077484 144.446564
v 171.231979 451.252991 133.197006
v 167.957581 455.274292 128.992157
v 169.051346 449.255035 143.652176
v 169.061005 448.946259 142.502319
v 174.739365 453.800568 144.406097
v 166.995789 461.954315 146.480423
v 169.110458 461.893585 144.259064
v 169.004837 452.223633 129.983307
v 169.062775 448.957855 141.508530
v 171.949783 456.053741 133.532867
v 164.688446 465.662750 132.002716
v 165.012314 449.972595 140.184021
v 165.399933 449.988647 141.982437
v 172.584045 462.610596 149.436356
v 174.479462 458.094879 150.138000
v 167.921631 463.338043 132.406555
v 174.730804 453.675903 140.297577
v 164.968063 455.670441 128.507629
v 162.928146 450.950439 133.005661
v 171.401077 450.718567 145.390533
v 161.559021 455.909058 137.263687
v 173.454834 460.435638 152.980438
v 173.439896 449.291901 143.631073
v 164.962341 451.118317 131.533386
v 162.277512 453.738556 129.109329
v 164.552109 452.174957 127.268501
v 171.342789 463.245728 150.290512
v 174.052917 455.137787 148.450882
v 167.602554 456.381744 149.406326
v 171.401428 449.260559 140.019226
v 168.192047 464.618378 138.125946
v 175.152969 449.713013 142.485153
v 166.998840 464.702698 138.940018
v 159.966705 455.337067 133.738785
v 167.066010 460.303070 152.865570
v 163.780960 454.691437 143.140701
v 173.132980 461.661011 148.599960
v 161.289032 462.000763 131.789627
v 166.973785 451.627045 129.894958
v 164.729492 453.841858 144.272079
v 165.508240 455.958130 146.234818
v 169.056854 462.577057 148.231964
v 167.544983 452.753723 147.050308
v 165.027573 464.670563 138.902908
v 160.876312 459.904633 135.577133
v 173.397537 449.139526 141.563919
v 163.442520 452.412750 127.312469
v 168.716202 461.872711 131.970352
v 160.838760 455.904358 131.602142
v 169.063370 463.455902 152.082550
v 160.255432 459.765259 133.666061
v 171.413162 462.504395 148.260468
v 165.007782 464.903687 137.839661
v 162.461258 462.077240 137.798492
v 164.338333 460.622864 148.105408
v 174.010117 450.002533 137.071259
v 174.517456 457.928223 148.809494
v 163.170364 465.871124 131.956635
v 174.753922 451.774841 139.998535
v 174.020020 450.001770 137.089706
v 161.907578 463.826416 131.160278
v 163.530640 466.744934 132.624908
v 163.221451 452.566986 127.206551
v 163.499802 466.678833 132.541504
v 173.358643 458.309448 151.569870
v 165.389114 451.774109 144.255768
v 160.827896 455.914001 135.691299
v 167.030014 449.348572 140.035324
v 169.157272 457.223022 150.771530
v 170.815582 461.561066 140.069275
v 173.527847 459.683929 152.584564
v 169.080200 451.806824 146.410294
v 164.958572 453.756195 127.834770
v 162.802917 453.835266 139.988647
v 163.456894 461.970642 139.778717
v 173.371765 456.517365 149.887726
v 174.516663 455.674103 145.589752
v 173.938980 450.019531 136.868652
v 169.106354 455.913818 129.778046
v 163.847626 452.098450 141.668182
v 166.859390 455.936279 148.215652
v 168.097961 464.554199 138.741028
v 172.709305 461.117767 146.478088
v 162.916901 450.750153 133.800293
v 174.484207 459.111206 149.032333
v 174.099197 460.976715 152.872818
v 162.960587 452.118622 129.815018
v 172.043228 458.245239 135.502594
v 164.134903 464.678589 138.165161
v 172.716736 459.501495 140.740921
v 166.955154 461.973816 130.636322
v 164.503830 455.759338 144.580887
v 174.437119 452.935669 138.560272
v 163.874619 466.520782 132.661636
v 174.232376 450.936859 144.818649
v 162.699890 457.922913 140.128830
v 167.027161 463.406586 152.111160
v 166.080399 462.239655 152.747650
v 165.422256 462.742188 151.066391
v 163.582138 460.024567 142.540634
v 168.771957 463.637054 135.776703
v 161.566620 451.348938 134.122543
v 166.966446 462.366821 148.208206
v 169.488770 462.108368 133.573273
v 169.405029 453.893707 129.723297
v 165.779709 463.252686 152.534500
v 171.356567 460.025879 135.609726
v 171.339005 461.335144 142.127533
v 166.996201 463.168091 150.387573
v 169.058929 450.599579 133.797668
v 160.901642 459.939972 131.913284
v 162.041748 465.078522 132.698502
v 170.581192 457.780579 132.144318
v 168.319992 463.521545 133.742828
v 163.318832 456.015228 142.373108
v 166.987686 463.991791 139.863083
v 165.752625 456.974823 147.209015
v 160.348816 460.285187 133.798035
v 161.373169 451.806213 133.352219
# 408 vertices, 0 vertices normals

f 301 357 44
f 63 126 260
f 100 376 223
f 26 349 194
f 51 69 344
f 123 347 147
f 149 249 38
f 59 153 170
f 139 286 202
f 281 387 57
f 156 10 96
f 137 236 242
f 57 13 236
f 182 24 359
f 306 144 252
f 361 260 309
f 124 257 296
f 300 383 347
f 161 356 310
f 83 90 379
f 386 339 156
f 181 334 101
f 339 316 115
f 88 121 343
f 115 139 202
f 220 84 243
f 171 304 143
f 68 299 402
f 334 265 60
f 191 208 45
f 43 177 229
f 17 256 366
f 250 47 117
f 188 264 400
f 155 343 364
f 55 276 221
f 151 67 99
f 247 286 326
f 181 265 334
f 362 36 136
f 128 289 107
f 342 333 93
f 336 55 33
f 337 393 305
f 257 267 266
f 58 283 152
f 50 265 225
f 4 1 354
f 72 17 165
f 107 289 256
f 80 88 101
f 398 273 386
f 148 277 168
f 118 229 312
f 59 78 153
f 29 116 321
f 11 375 234
f 28 65 24
f 145 172 82
f 358 38 7
f 349 212 105
f 69 30 398
f 109 317 72
f 330 56 213
f 199 294 17
f 323 218 214
f 53 291 136
f 100 308 122
f 266 128 158
f 157 129 108
f 306 198 144
f 351 383 77
f 40 336 314
f 189 195 380
f 298 240 203
f 158 107 110
f 339 115 10
f 224 190 384
f 315 280 268
f 370 20 318
f 218 104 197
f 250 212 48
f 313 35 98
f 127 44 85
f 323 226 131
f 64 147 77
f 293 298 246
f 305 393 403
f 58 56 41
f 238 58 404
f 229 205 312
f 239 75 232
f 108 252 144
f 292 43 118
f 317 2 256
f 323 54 197
f 35 122 308
f 18 295 46
f 280 216 40
f 257 372 14
f 97 344 137
f 362 268 36
f 176 396 65
f 323 112 338
f 315 280 40
f 201 31 363
f 90 157 108
f 245 25 329
f 169 211 318
f 154 40 376
f 229 309 205
f 49 295 392
f 225 265 134
f 281 209 387
f 29 321 232
f 193 259 108
f 55 33 135
f 393 176 28
f 183 46 51
f 97 137 152
f 307 136 81
f 145 161 172
f 307 81 269
f 149 38 358
f 120 80 327
f 108 129 252
f 160 200 6
f 164 206 290
f 297 268 328
f 380 217 258
f 293 240 298
f 141 142 217
f 65 103 83
f 346 2 317
f 241 168 246
f 315 268 362
f 407 101 334
f 397 83 22
f 315 268 280
f 167 321 116
f 323 214 356
f 315 328 268
f 52 102 195
f 213 242 370
f 310 201 9
f 119 311 360
f 69 388 61
f 120 279 350
f 213 56 406
f 331 70 263
f 50 201 60
f 388 398 395
f 143 360 11
f 208 370 211
f 151 99 186
f 96 174 311
f 80 401 178
f 38 166 7
f 385 155 389
f 253 296 227
f 10 202 62
f 150 321 335
f 64 178 147
f 211 270 63
f 142 274 159
f 194 349 105
f 131 214 218
f 125 232 384
f 69 281 236
f 64 121 178
f 150 239 321
f 312 205 75
f 120 350 347
f 293 292 118
f 227 14 341
f 392 331 30
f 97 183 51
f 323 104 218
f 27 25 245
f 34 345 349
f 33 221 91
f 400 327 101
f 40 216 336
f 180 152 137
f 249 186 166
f 129 306 252
f 73 82 21
f 73 114 82
f 301 210 302
f 273 316 339
f 309 260 224
f 307 55 336
f 263 316 273
f 83 5 22
f 33 91 135
f 349 233 212
f 84 157 90
f 185 371 320
f 284 217 380
f 205 224 232
f 361 45 332
f 226 400 340
f 155 364 146
f 34 140 79
f 253 124 296
f 89 185 24
f 272 198 199
f 164 282 206
f 224 384 232
f 238 283 58
f 120 347 123
f 19 365 317
f 174 62 202
f 120 123 401
f 260 126 190
f 16 288 93
f 160 284 200
f 64 71 92
f 375 174 133
f 399 98 15
f 368 68 42
f 46 295 49
f 380 258 337
f 18 253 295
f 181 88 343
f 385 238 404
f 399 194 206
f 4 304 1
f 301 44 179
f 329 25 325
f 358 7 19
f 275 285 85
f 132 185 173
f 403 393 390
f 214 255 356
f 100 122 376
f 297 394 53
f 9 201 363
f 142 207 274
f 55 221 33
f 186 119 166
f 369 27 302
f 361 63 260
f 55 91 33
f 156 339 10
f 68 175 299
f 203 275 357
f 335 321 167
f 77 95 71
f 163 18 46
f 199 251 294
f 10 115 202
f 16 78 59
f 336 216 352
f 179 21 82
f 296 14 227
f 26 34 349
f 61 388 281
f 292 168 277
f 385 225 155
f 58 152 56
f 408 391 373
f 215 59 170
f 399 206 98
f 164 297 282
f 34 349 345
f 330 213 208
f 330 208 191
f 398 263 273
f 64 77 71
f 309 224 205
f 348 29 251
f 92 287 288
f 351 353 383
f 274 87 377
f 190 72 165
f 283 163 183
f 206 282 98
f 392 227 331
f 346 237 304
f 164 117 297
f 94 118 312
f 230 249 149
f 197 54 408
f 247 326 110
f 389 163 283
f 177 309 229
f 226 188 400
f 285 26 399
f 111 239 232
f 317 365 237
f 199 366 289
f 269 6 261
f 57 74 230
f 355 277 148
f 130 338 112
f 298 228 246
f 277 45 8
f 69 398 388
f 279 106 222
f 27 245 329
f 276 261 6
f 231 48 68
f 40 336 352
f 164 290 250
f 223 314 130
f 138 34 26
f 323 338 226
f 92 132 287
f 275 85 44
f 208 213 370
f 188 221 264
f 274 377 396
f 350 271 278
f 285 399 15
f 269 81 6
f 241 246 228
f 181 343 134
f 203 138 275
f 323 356 54
f 285 15 85
f 14 372 326
f 274 176 192
f 32 284 380
f 329 219 381
f 12 308 373
f 172 248 210
f 92 244 132
f 250 290 212
f 177 361 309
f 220 157 84
f 281 388 395
f 368 231 68
f 162 211 63
f 87 243 377
f 68 48 175
f 272 199 289
f 83 84 90
f 264 279 327
f 364 288 16
f 3 402 207
f 16 93 333
f 170 124 253
f 92 71 244
f 203 319 138
f 48 212 37
f 151 186 324
f 350 279 222
f 35 15 98
f 215 253 18
f 359 24 65
f 120 401 80
f 126 39 317
f 297 184 268
f 10 62 174
f 340 407 76
f 255 76 334
f 349 345 367
f 145 82 114
f 322 371 89
f 173 320 371
f 397 22 5
f 12 15 35
f 23 73 391
f 160 141 284
f 205 232 75
f 342 93 378
f 221 276 6
f 401 147 178
f 353 347 383
f 197 100 112
f 77 383 300
f 47 48 231
f 275 138 285
f 299 37 204
f 12 35 308
f 310 60 201
f 348 116 29
f 162 332 211
f 355 66 45
f 299 175 37
f 106 6 200
f 355 191 66
f 399 26 194
f 307 269 261
f 83 379 5
f 257 266 372
f 316 303 139
f 184 53 36
f 341 326 303
f 202 286 133
f 169 270 211
f 346 317 237
f 193 198 259
f 111 232 321
f 23 54 145
f 251 198 306
f 300 347 278
f 369 25 27
f 143 11 234
f 346 171 374
f 78 333 322
f 293 246 292
f 355 45 86
f 368 47 231
f 189 337 195
f 389 146 163
f 287 378 288
f 348 306 382
f 90 108 259
f 264 106 279
f 377 243 84
f 20 13 230
f 317 256 72
f 148 168 254
f 292 246 168
f 80 121 88
f 393 159 192
f 120 327 279
f 177 8 45
f 7 354 365
f 109 237 317
f 368 394 47
f 283 97 152
f 52 262 196
f 141 42 3
f 369 248 25
f 20 358 235
f 222 200 32
f 342 322 333
f 16 333 78
f 259 289 128
f 129 382 306
f 302 241 228
f 87 299 220
f 127 85 12
f 293 94 240
f 381 41 56
f 145 54 161
f 52 278 271
f 80 178 121
f 349 367 345
f 3 42 402
f 235 19 39
f 160 368 141
f 166 119 360
f 67 386 156
f 70 303 316
f 78 405 153
f 103 84 83
f 125 165 294
f 351 147 347
f 166 360 354
f 303 286 139
f 167 345 34
f 395 67 209
f 396 377 103
f 405 89 182
f 141 3 142
f 20 235 318
f 126 317 109
f 23 114 73
f 300 187 95
f 33 91 130
f 71 195 403
f 340 400 407
f 51 46 49
f 131 340 76
f 295 227 392
f 385 404 31
f 223 376 314
f 372 158 326
f 299 204 220
f 304 237 1
f 329 191 355
f 125 294 29
f 236 13 242
f 154 328 315
f 407 334 76
f 51 49 69
f 177 45 361
f 230 324 249
f 182 359 397
f 260 190 224
f 57 230 13
f 375 133 234
f 161 310 9
f 63 270 39
f 171 143 247
f 43 229 118
f 12 85 15
f 199 17 366
f 40 314 376
f 107 256 2
f 161 54 356
f 287 132 342
f 402 87 207
f 63 39 126
f 408 54 23
f 180 137 242
f 319 335 167
f 293 118 94
f 238 389 283
f 90 259 5
f 89 371 185
f 336 33 314
f 220 129 157
f 206 194 290
f 69 236 344
f 313 122 35
f 52 32 380
f 153 405 182
f 136 368 81
f 45 208 211
f 235 358 19
f 20 230 149
f 64 92 121
f 298 203 357
f 128 107 158
f 296 257 14
f 127 373 21
f 5 128 266
f 52 271 32
f 125 29 232
f 164 250 117
f 180 56 152
f 34 345 140
f 100 223 112
f 264 327 400
f 362 136 307
f 226 91 188
f 9 363 248
f 96 10 174
f 285 138 26
f 264 221 106
f 172 210 82
f 38 249 166
f 185 28 24
f 315 362 336
f 408 23 391
f 37 113 204
f 92 288 121
f 348 140 345
f 143 234 247
f 11 360 311
f 124 397 257
f 270 235 39
f 329 381 330
f 194 212 290
f 171 247 110
f 222 32 271
f 169 318 235
f 407 400 101
f 302 27 355
f 272 289 259
f 244 390 185
f 189 380 337
f 4 360 143
f 255 310 356
f 142 3 207
f 87 220 243
f 275 44 357
f 125 384 165
f 326 158 110
f 179 127 21
f 319 167 34
f 300 195 187
f 234 133 286
f 27 329 355
f 364 215 146
f 153 182 124
f 397 359 83
f 180 406 56
f 131 226 340
f 197 408 100
f 94 150 335
f 170 153 124
f 69 49 392
f 313 154 122
f 226 338 91
f 23 145 114
f 393 192 176
f 387 151 324
f 223 130 112
f 99 156 96
f 402 299 87
f 319 34 138
f 154 315 40
f 302 355 148
f 302 148 254
f 364 59 215
f 71 187 195
f 7 166 354
f 130 91 338
f 233 79 113
f 50 31 201
f 395 398 386
f 300 262 195
f 362 307 336
f 374 171 110
f 106 200 222
f 34 79 349
f 343 121 288
f 297 53 184
f 52 380 102
f 106 221 6
f 364 16 59
f 342 132 173
f 28 176 65
f 302 254 241
f 281 395 209
f 194 105 212
f 381 56 330
f 53 394 368
f 240 335 319
f 365 1 237
f 209 67 151
f 323 218 197
f 107 2 110
f 331 341 70
f 378 93 288
f 97 51 344
f 337 159 393
f 131 255 214
f 359 65 83
f 78 322 405
f 11 311 174
f 19 7 365
f 368 42 141
f 81 160 6
f 74 324 230
f 326 286 303
f 79 140 382
f 196 300 278
f 207 87 274
f 150 75 239
f 71 95 187
f 363 31 404
f 365 354 1
f 385 50 225
f 408 373 308
f 390 28 185
f 39 19 317
f 244 403 390
f 195 305 403
f 247 234 286
f 346 374 2
f 30 331 263
f 154 376 122
f 45 211 332
f 172 9 248
f 42 68 402
f 351 77 147
f 43 8 177
f 212 113 37
f 181 101 88
f 297 328 282
f 346 304 171
f 146 215 163
f 337 142 159
f 284 141 217
f 69 392 30
f 53 368 291
f 349 79 233
f 344 236 137
f 40 352 216
f 48 37 175
f 255 60 310
f 186 99 119
f 341 303 70
f 385 389 238
f 180 242 406
f 227 341 331
f 190 109 72
f 314 33 130
f 55 135 91
f 297 117 394
f 355 86 277
f 397 5 267
f 52 196 278
f 307 276 55
f 220 113 129
f 274 192 159
f 174 202 133
f 102 380 195
f 292 277 43
f 381 219 41
f 217 142 258
f 77 300 95
f 370 242 20
f 81 368 160
f 315 216 280
f 209 151 387
f 131 76 255
f 111 321 239
f 71 403 244
f 255 334 60
f 213 406 242
f 258 142 337
f 100 408 308
f 25 404 219
f 289 366 256
f 283 183 97
f 204 113 220
f 66 191 45
f 179 44 127
f 181 134 265
f 323 197 112
f 385 31 50
f 348 345 116
f 242 13 20
f 315 40 216
f 277 86 45
f 136 291 368
f 167 116 345
f 30 263 398
f 351 347 353
f 161 9 172
f 315 336 40
f 173 185 320
f 163 46 183
f 348 382 140
f 50 60 265
f 350 278 347
f 266 158 372
f 391 73 21
f 14 326 341
f 119 96 311
f 395 386 67
f 58 219 404
f 43 277 8
f 124 182 397
f 281 57 236
f 313 328 154
f 301 302 228
f 25 219 325
f 386 273 339
f 350 222 271
f 103 377 84
f 263 70 316
f 212 233 113
f 108 144 198
f 99 96 119
f 294 165 17
f 301 228 357
f 53 136 36
f 324 186 249
f 113 79 129
f 193 108 198
f 69 61 281
f 155 225 343
f 80 101 327
f 123 147 401
f 203 240 319
f 387 74 57
f 182 89 24
f 127 12 373
f 364 343 288
f 329 330 191
f 342 173 322
f 298 357 228
f 20 149 358
f 150 312 75
f 287 342 378
f 109 317 237
f 241 254 168
f 4 143 304
f 11 174 375
f 94 312 150
f 90 5 379
f 405 322 89
f 374 110 2
f 313 98 282
f 199 198 251
f 65 396 103
f 390 393 28
f 323 131 218
f 169 235 270
f 188 91 221
f 323 197 104
f 94 335 240
f 5 259 128
f 58 41 219
f 361 162 63
f 363 404 25
f 244 185 132
f 253 227 295
f 190 165 384
f 225 134 343
f 274 396 176
f 184 36 268
f 155 146 389
f 316 139 115
f 211 370 318
f 391 21 373
f 196 262 300
f 52 195 262
f 215 170 253
f 248 363 25
f 369 302 210
f 179 82 210
f 361 332 162
f 307 261 276
f 272 259 198
f 72 256 17
f 200 284 32
f 394 117 47
f 4 354 360
f 126 109 190
f 313 282 328
f 301 179 210
f 163 215 18
f 5 266 267
f 294 251 29
f 387 324 74
f 348 251 306
f 173 371 322
f 67 156 99
f 329 325 219
f 250 48 47
f 129 79 382
f 397 267 257
f 369 210 248
f 195 337 305
# 824 faces, 0 coords texture

# End of File