####
#
# OBJ File Generated by Meshlab
#
####
# Object domain028.obj
#
# Vertices: 687
# Faces: 1380
#
####
v 99.934776 242.018417 122.686790
v 106.358978 248.171204 122.499992
v 110.762268 238.078842 123.200096
v 102.323021 268.088348 122.809738
v 106.359009 258.132812 122.500015
v 117.877724 266.062103 132.306168
v 106.358910 264.285919 122.500000
v 115.151733 278.362061 133.242249
v 115.137993 273.843628 124.608673
v 112.804573 266.044037 122.520485
v 110.754005 276.782959 128.068710
v 110.914322 255.928940 132.368683
v 108.216652 256.281769 129.226578
v 102.285385 266.062897 123.994911
v 117.007225 250.223648 132.938507
v 115.152412 273.689758 133.969482
v 99.996361 242.888809 130.235626
v 117.175041 277.946259 133.711472
v 105.254822 276.940552 133.657822
v 104.265411 270.225830 126.296333
v 117.664101 264.192078 126.369072
v 102.257362 244.068924 122.519447
v 99.847351 250.346008 128.955124
v 98.824181 248.157761 123.144714
v 106.440033 276.367340 133.820374
v 115.152481 277.930786 133.713547
v 103.391785 275.072754 128.594666
v 108.704803 277.506073 129.309967
v 105.680626 252.878448 129.538956
v 110.753937 270.131714 122.646011
v 101.561050 256.683075 124.871674
v 98.577049 243.868546 123.077461
v 118.363708 268.107239 130.881317
v 99.473335 243.995407 131.450027
v 112.804535 243.341415 131.377777
v 110.753548 251.980087 122.518280
v 118.243652 269.514771 127.046471
v 102.285698 264.286133 122.698135
v 117.268410 268.119324 124.213608
v 115.141312 244.537323 132.306473
v 117.132172 274.746796 125.971046
v 112.817017 240.801758 127.793076
v 110.266747 267.932129 129.491470
v 102.283195 260.183563 122.696297
v 114.637184 254.035034 123.124359
v 106.162743 266.114319 126.410194
v 104.308022 248.170975 122.499924
v 106.358574 238.303131 124.176247
v 108.703011 250.221970 122.499992
v 104.460846 250.144379 132.409348
v 114.177155 250.272812 123.229248
v 108.703018 251.980148 122.500008
v 104.308037 242.600494 130.500916
v 107.442780 265.989594 127.146950
v 109.425232 253.484802 132.341034
v 100.780373 260.063934 122.996506
v 118.323936 276.145111 128.692429
v 114.116852 240.099396 124.185211
v 99.910728 248.180374 130.494720
v 99.430565 243.984131 131.366623
v 108.703018 242.595810 130.504242
v 108.703575 274.986877 125.742653
v 112.803902 270.130127 122.660103
v 110.753906 273.909637 124.543434
v 97.690453 239.943024 123.562416
v 105.400536 277.205780 133.736450
v 112.802696 276.286102 134.212234
v 118.261810 264.285706 129.947861
v 118.346680 258.102264 128.523178
v 108.709702 250.186279 133.186279
v 117.166954 275.619171 126.883247
v 106.358887 241.579819 129.118835
v 115.148163 277.516174 129.305588
v 110.753944 275.819397 126.740700
v 102.265213 251.980164 122.614616
v 99.761627 252.573257 126.827438
v 118.423172 274.317230 132.782928
v 112.742775 239.771317 126.082451
v 106.358910 250.221985 122.499992
v 116.385262 268.244812 123.270500
v 112.963020 268.091187 132.554565
v 116.575516 270.145233 123.202454
v 110.757660 276.271759 134.208374
v 112.793419 260.184540 122.628754
v 97.703262 244.068466 123.670662
v 99.923073 241.770798 128.968399
v 98.372581 251.127365 127.250824
v 96.648056 241.858871 124.710030
v 118.443008 251.972076 130.643387
v 106.358894 246.120041 122.500008
v 110.756432 278.515137 132.278748
v 114.879013 260.215973 123.146713
v 102.257607 242.018173 122.529182
v 117.505188 258.134491 126.316795
v 117.519966 246.129745 127.785011
v 112.806320 271.724915 123.028351
v 103.635941 262.374268 124.809669
v 104.308807 256.082001 122.526611
v 101.028343 264.116699 122.953415
v 117.913643 270.115936 124.973854
v 108.703041 254.031174 122.500008
v 107.895134 271.428314 129.508453
v 112.804993 264.285461 122.527946
v 96.920761 245.823502 125.026497
v 99.938019 238.361481 124.131020
v 116.199821 250.197922 125.395866
v 113.519485 238.673340 123.546944
v 110.753769 254.031143 122.512611
v 108.703011 266.044067 122.500000
v 100.305931 253.949432 123.250946
v 108.728630 276.287964 134.117798
v 100.947495 255.271347 125.240456
v 102.280632 254.030090 122.689987
v 115.146904 260.182831 133.281906
v 101.684479 269.908569 123.409378
v 115.119972 248.280396 124.189301
v 104.308624 260.183777 122.523415
v 101.930122 272.742340 124.121346
v 106.693550 251.262054 132.371033
v 108.703392 273.899170 124.553886
v 98.966621 242.850388 129.654114
v 97.975571 244.078384 128.955734
v 108.703026 264.285980 122.499985
v 107.488335 264.286102 127.073540
v 112.804413 278.508392 132.277573
v 111.822144 267.377380 131.074921
v 112.712646 238.441849 124.020874
v 98.735748 246.115967 123.112862
v 115.139969 254.031403 133.367279
v 118.895752 274.300232 130.662598
v 115.600761 252.074524 124.147072
v 117.942619 272.393341 125.071693
v 112.777443 238.145111 123.064407
v 100.773987 260.074066 122.991493
v 116.871483 248.247375 126.619980
v 116.123528 264.305298 123.211052
v 104.179810 256.142334 126.624451
v 112.757301 246.120422 122.763161
v 106.245857 272.078339 128.682556
v 116.605080 262.165253 124.161224
v 104.611382 266.054932 125.487175
v 102.258942 238.185577 123.065239
v 110.750076 239.550873 126.232246
v 119.496902 278.374908 132.089127
v 109.697350 259.003601 129.632751
v 110.752869 277.944733 133.743607
v 112.896431 270.245697 132.963715
v 112.919601 273.576324 134.022537
v 108.702888 239.511703 126.259689
v 96.372643 243.947937 126.287727
v 116.991348 251.976486 126.300858
v 116.572342 241.473953 127.769630
v 118.303169 248.137390 130.511475
v 118.372154 250.351776 130.581177
v 116.994316 248.185532 132.894760
v 114.837997 258.144012 123.210098
v 118.328697 270.794128 128.596558
v 113.696404 242.053391 123.257057
v 110.753929 268.094757 122.515121
v 110.753578 250.221924 122.518806
v 102.284195 262.234833 122.697083
v 118.788368 276.455750 132.857132
v 108.705109 238.089676 123.203339
v 116.085411 247.884750 125.515549
v 103.361725 273.727295 125.395569
v 110.783592 251.961288 133.197174
v 108.938377 274.557098 133.912888
v 115.237267 250.289108 124.080139
v 112.779312 251.980972 122.686668
v 117.627464 262.218109 126.479774
v 96.190010 241.137527 127.033173
v 112.820618 238.074326 123.175262
v 104.365654 272.568665 123.645142
v 115.144173 256.081665 133.345901
v 101.315926 252.998260 127.187012
v 104.759262 262.108276 125.529518
v 106.358788 270.130920 122.653915
v 118.367744 272.325470 126.456451
v 104.308037 242.018021 122.510223
v 116.236496 258.157379 124.293785
v 110.439728 264.303925 129.281784
v 108.704094 275.801575 126.754814
v 108.721725 277.911530 133.685043
v 118.302917 266.051086 131.052795
v 95.814217 240.860504 126.565773
v 107.691757 254.745773 129.571609
v 117.905121 244.110199 128.957535
v 115.143639 242.662567 130.459351
v 102.394562 250.653976 130.486008
v 112.803001 277.930420 133.713257
v 117.107986 273.554596 124.917191
v 118.348862 256.075958 128.537140
v 110.753075 248.170959 122.527565
v 103.039131 257.634033 125.362511
v 96.321938 241.990219 127.310913
v 110.753822 272.710327 123.522430
v 102.288643 258.133484 122.717430
v 115.140755 271.725464 123.077019
v 105.319908 277.149994 130.341217
v 117.729057 248.187042 132.276001
v 99.938736 244.068436 122.696274
v 101.442772 249.308929 131.565460
v 117.313690 254.056961 126.341248
v 99.952660 248.165085 122.762131
v 105.773590 258.265076 126.841331
v 105.424927 256.687714 127.086487
v 106.358978 239.507477 126.262611
v 113.033562 262.182373 132.796539
v 106.360573 271.722046 123.036575
v 117.695572 242.672165 129.091721
v 100.899223 262.208862 122.956100
v 104.672539 264.284485 125.401070
v 105.268021 275.615082 132.212708
v 115.105690 272.643097 123.598694
v 106.364586 272.686951 123.550461
v 97.898872 241.005051 127.563751
v 110.754150 271.730743 123.013962
v 102.237968 242.657120 130.476044
v 110.753883 244.507828 132.353775
v 115.140053 250.222656 133.387070
v 101.813148 269.645477 124.593750
v 112.772858 250.222702 122.712433
v 117.178978 278.356934 133.253998
v 110.753960 264.286072 122.499863
v 111.459152 257.989227 132.222809
v 104.713463 272.510345 127.580147
v 115.187477 266.044556 133.170959
v 118.290855 277.989105 133.551590
v 95.910469 242.144547 126.333252
v 105.164719 276.352600 132.891418
v 110.752205 242.018311 122.545334
v 108.703018 268.094818 122.517982
v 104.980560 255.414352 127.348663
v 104.315781 244.529449 132.315125
v 116.108597 246.092758 125.741150
v 110.743317 274.328461 134.136200
v 102.257874 241.610336 129.096329
v 96.774460 244.035858 124.881317
v 115.096581 241.137375 127.708107
v 111.127853 262.164520 130.699936
v 100.897583 262.181854 122.965683
v 98.323265 238.059464 123.181389
v 99.368492 246.114517 130.509201
v 106.319771 252.395905 130.607468
v 102.291931 256.081726 122.721153
v 106.401733 276.619720 128.179901
v 98.330551 238.058640 123.168373
v 98.718475 246.199005 129.728439
v 101.028297 264.141083 122.953415
v 110.161171 258.016388 130.634048
v 97.841293 248.120758 124.164017
v 102.233803 260.207703 124.117325
v 118.284744 260.056030 128.706619
v 101.235771 266.020447 122.989334
v 104.894424 276.192993 130.441071
v 112.803352 278.363495 133.242035
v 110.754555 278.116791 130.593307
v 106.440392 256.064087 127.975876
v 104.308037 239.977859 122.625725
v 112.804977 278.112640 130.594803
v 100.164001 251.931549 123.121994
v 118.297409 274.305023 126.470879
v 110.752869 244.069092 122.530846
v 110.754036 274.997742 125.733330
v 113.227791 266.039429 132.488571
v 99.918625 239.574341 126.216553
v 100.732368 249.785934 130.290314
v 115.146103 278.501984 132.279770
v 104.312332 270.123383 122.715073
v 106.147606 268.032074 126.763664
v 117.902115 252.090897 132.189896
v 115.147621 278.100433 130.599152
v 110.485428 265.997986 129.281418
v 117.140594 242.103531 128.362152
v 108.703056 248.171234 122.499992
v 99.107201 254.896881 124.066360
v 102.377747 256.022064 125.779701
v 98.737083 251.827942 124.353111
v 99.944580 246.119461 122.713020
v 104.308052 240.681229 127.893623
v 110.750999 239.980087 122.653458
v 102.257576 246.119949 122.522079
v 117.058296 270.159363 133.016586
v 117.304100 278.036316 130.610825
v 109.228386 255.881866 130.498138
v 106.358986 244.068909 122.500000
v 117.567848 260.067474 126.487946
v 112.814171 272.198425 133.560028
v 106.358894 242.595505 130.504395
v 106.442635 250.063416 132.912994
v 115.145798 258.132355 133.317703
v 110.707344 260.134460 130.670761
v 97.886353 238.513107 123.854515
v 112.739502 242.019531 122.798203
v 118.173416 250.228165 128.861237
v 117.406845 244.099625 127.873192
v 102.193489 268.009705 124.420860
v 119.448860 278.337158 131.736069
v 110.757370 238.179977 123.055115
v 118.281754 264.278229 131.054306
v 102.663445 253.329254 127.488747
v 103.707771 266.108032 124.984810
v 110.753166 246.120056 122.526924
v 115.134605 262.197021 122.970001
v 112.792984 256.081635 122.634300
v 96.603027 246.091766 126.252251
v 102.040840 251.260635 129.372177
v 105.806702 278.607361 133.007294
v 114.938423 246.132538 124.127457
v 99.912567 238.088715 123.206764
v 105.821877 278.594513 132.928970
v 104.308746 262.235046 122.525299
v 110.748550 250.226517 133.405807
v 104.308182 238.293991 124.179253
v 101.231880 266.055786 123.002235
v 118.301178 254.145813 128.604126
v 116.336014 251.300415 125.332458
v 117.619568 244.871109 131.919571
v 116.872002 264.306213 124.133102
v 108.718048 278.479156 132.294525
v 110.754112 241.583466 129.115723
v 97.867729 248.099792 128.244415
v 104.308128 251.980148 122.510216
v 112.006264 269.008698 132.078751
v 112.801582 272.703766 123.530655
v 104.813805 275.312714 127.242767
v 116.439568 260.261566 124.353584
v 102.065651 254.275589 126.580223
v 102.138168 252.241348 128.291306
v 116.400772 242.081436 127.048866
v 106.339806 273.853790 124.619926
v 100.032623 253.873520 125.804832
v 112.810165 254.037476 133.309280
v 109.857323 255.030289 131.864975
v 100.818802 257.898773 123.201485
v 108.704330 276.770386 128.077179
v 110.753929 242.592239 130.507004
v 118.636169 272.220032 130.689941
v 112.986794 260.166168 132.908356
v 116.167320 266.066406 123.224800
v 115.140701 243.373032 131.351257
v 105.570633 269.775452 126.965149
v 116.008072 262.867706 123.279823
v 108.703194 243.339722 131.379288
v 117.037956 264.294037 132.952728
v 104.308022 246.120056 122.500008
v 117.858665 251.984604 127.791603
v 117.761223 250.225388 127.855247
v 104.308044 244.069046 122.499992
v 117.866661 264.324921 132.267273
v 102.533241 271.407806 123.361244
v 111.153969 268.169830 130.601700
v 108.353958 273.883453 133.272766
v 112.804977 277.528412 129.298630
v 112.804893 276.779449 128.071030
v 108.561264 268.044250 128.265625
v 99.930870 250.235168 122.920441
v 114.055107 248.183228 123.275116
v 98.235306 250.191986 124.207802
v 118.515182 253.904572 130.452850
v 117.806618 265.962189 126.394958
v 110.753967 266.043976 122.500023
v 118.090942 275.038635 133.603027
v 116.703415 244.071579 126.810173
v 118.097420 260.605682 127.826096
v 102.499680 248.023575 132.654526
v 115.132080 246.222076 133.018845
v 106.253799 273.695587 130.595673
v 98.385277 239.950012 123.100800
v 99.046455 248.440292 129.362167
v 116.567978 271.543457 123.356049
v 106.235153 262.283905 126.438400
v 104.284370 258.127228 126.006340
v 118.006287 262.212189 128.186295
v 108.704338 244.515259 132.343170
v 106.447617 277.826080 133.604187
v 110.753334 248.176361 133.412323
v 102.590576 249.566574 132.093155
v 108.703018 246.120010 122.499985
v 106.442345 277.843689 130.694778
v 98.930916 249.386429 123.225571
v 112.803223 246.209015 133.083145
v 110.753754 260.183868 122.513817
v 117.016701 254.035446 132.936890
v 116.316948 254.178467 124.649643
v 111.760323 260.016937 132.109863
v 117.113876 272.229706 133.264938
v 106.538551 270.262970 127.804169
v 112.804977 274.996246 125.734543
v 117.201866 274.647491 133.987350
v 97.423592 250.404434 126.398811
v 96.758224 239.936188 124.702850
v 117.698303 248.162308 127.895927
v 96.233505 240.539566 125.997993
v 104.424484 276.051971 128.618729
v 104.308601 258.132904 122.523003
v 117.046532 268.095398 132.962708
v 112.791191 254.030716 122.650024
v 107.157967 268.312073 127.417770
v 96.932480 245.920517 127.420937
v 108.712257 278.062439 130.611420
v 106.358871 239.978775 122.633568
v 101.430367 268.374329 123.405579
v 117.165871 273.786652 133.723007
v 112.761986 248.172058 122.744316
v 107.372993 261.288300 127.262840
v 112.961876 264.286316 132.539642
v 116.313599 252.313126 125.004677
v 111.850838 266.040924 130.857285
v 115.147476 270.160248 133.340515
v 108.703033 256.081970 122.500008
v 106.358902 251.980118 122.499985
v 103.359497 259.044861 125.102875
v 106.387222 277.356384 129.368744
v 106.358932 260.183807 122.500008
v 98.021088 250.177490 127.689880
v 106.374672 274.869415 125.842972
v 118.116302 266.041321 128.494141
v 118.836868 276.235229 130.587097
v 110.753960 262.235077 122.504166
v 102.329727 244.571365 132.075790
v 108.703545 246.207870 133.086166
v 118.000145 244.329041 130.602249
v 108.566383 252.008209 132.622299
v 115.461807 241.973480 125.849327
v 102.260536 238.310928 124.171448
v 109.872475 269.450378 129.783707
v 108.703026 242.017914 122.512138
v 106.358894 240.682373 127.892220
v 112.804947 242.600082 130.501205
v 117.782906 250.239029 132.282318
v 97.938385 246.200348 128.758179
v 108.753670 264.286469 127.897293
v 106.608490 274.720642 132.781433
v 116.936111 250.222809 126.479607
v 118.471886 260.178772 130.591904
v 118.353867 267.496948 129.922256
v 108.703148 270.131012 122.651863
v 117.457352 256.095276 126.344505
v 104.820160 274.984406 130.160065
v 118.040375 246.130371 128.938156
v 101.866089 272.673615 124.095734
v 100.828697 258.121002 123.148689
v 99.251038 255.089142 124.078438
v 116.985535 246.250946 132.710358
v 106.358902 242.017929 122.512138
v 117.897972 253.338654 127.608383
v 104.091019 272.460999 126.607010
v 104.308418 254.031143 122.519585
v 102.455948 246.242279 132.651550
v 99.424843 244.007721 131.445419
v 115.174980 264.280823 133.192078
v 99.479721 244.040024 131.617157
v 110.853142 272.195343 133.208023
v 100.013779 251.714127 127.793701
v 104.353973 253.962036 127.874283
v 110.416183 270.086456 130.694290
v 108.703041 258.132812 122.500000
v 118.329926 262.117188 130.912704
v 110.754013 243.336121 131.382843
v 96.957359 247.998581 126.327972
v 118.355408 262.623322 129.930389
v 112.802872 262.233978 122.576370
v 117.912674 260.165710 132.132202
v 102.257942 250.222748 122.562340
v 117.878654 268.097534 132.295044
v 118.295815 266.043304 129.946701
v 116.110672 241.305115 127.268990
v 117.968002 254.085220 132.157059
v 115.148071 276.287445 134.175552
v 118.281219 270.195770 126.497391
v 108.703041 240.682648 127.891991
v 103.415833 275.036224 128.594910
v 115.149605 272.180206 133.642700
v 109.150879 272.777649 132.621185
v 98.228600 251.762817 126.213173
v 106.736893 258.025177 127.536903
v 112.262413 263.620422 132.075424
v 102.258614 239.980240 122.646736
v 110.753654 258.132843 122.515816
v 112.804001 251.982132 133.427353
v 104.598946 260.109436 125.707352
v 115.099907 264.295135 122.784615
v 108.703072 241.579941 129.118851
v 108.406921 272.060699 130.673416
v 118.533424 258.099609 130.481094
v 110.241951 262.294556 129.410370
v 110.834831 254.022598 132.824066
v 104.423286 268.079285 125.855713
v 97.651978 246.216705 123.863075
v 105.622757 273.318481 129.385788
v 115.146996 276.761993 128.083252
v 101.751083 270.551971 124.683235
v 98.617271 253.074097 125.477844
v 97.166168 249.796082 126.503647
v 99.937325 239.986221 122.759949
v 100.739769 256.055603 123.230911
v 114.022873 246.130203 123.289154
v 115.134941 248.181702 133.306702
v 102.437698 270.246735 125.339996
v 102.256332 240.686890 127.889542
v 108.688995 262.260925 128.011917
v 103.464516 274.960724 128.595276
v 117.880730 262.268250 132.194000
v 117.008125 251.979904 132.938843
v 113.720581 237.966858 123.076195
v 109.908485 260.340973 129.449814
v 108.507278 270.059937 128.952377
v 115.140503 251.980209 133.392014
v 112.803398 244.515747 132.342377
v 106.359001 254.031158 122.500015
v 101.142326 247.917068 131.925308
v 118.096123 268.990631 126.040024
v 112.804306 248.176590 133.407425
v 107.303444 275.240540 133.782928
v 117.311020 270.165283 123.868248
v 114.785934 243.974319 124.097023
v 112.806038 241.614838 129.093262
v 118.275925 276.452332 133.694138
v 113.938782 244.215958 123.297264
v 112.805023 275.817719 126.742035
v 104.310905 243.343674 131.376297
v 112.923149 258.123444 133.015152
v 106.359001 268.094849 122.517975
v 117.071236 243.631348 131.155380
v 115.170593 268.105743 133.189011
v 117.183350 278.444611 132.300339
v 106.359001 262.234924 122.500000
v 118.344208 270.741364 128.615585
v 117.052437 266.045227 132.967270
v 108.703011 260.183807 122.500015
v 107.161102 260.026764 127.365250
v 101.880165 272.719391 124.116104
v 104.308037 239.504532 126.264801
v 117.120110 242.948898 130.309189
v 111.795952 264.558136 131.016098
v 112.749634 244.069962 122.781479
v 103.788834 264.283447 124.857132
v 106.359001 243.340729 131.378448
v 105.885803 278.644043 132.938828
v 104.970276 276.765167 129.375351
v 112.098877 262.073456 132.173950
v 104.018898 252.425140 129.027573
v 100.783211 246.027176 131.858826
v 104.347298 248.115280 133.042252
v 118.380722 271.410858 128.556473
v 102.257187 248.171616 122.526817
v 117.119713 272.099884 123.925522
v 117.026680 258.127716 132.944580
v 109.785904 256.364258 130.918503
v 118.416855 278.216614 133.287048
v 115.117973 270.122894 122.797279
v 103.047905 268.838135 125.257111
v 118.564247 256.078522 130.485443
v 108.703026 244.068970 122.500008
v 102.393410 270.049683 122.984535
v 99.929298 238.171814 123.085655
v 106.358940 256.082031 122.500023
v 106.357979 244.515945 132.342224
v 110.753777 256.082001 122.512459
v 99.909927 240.779648 127.824005
v 107.585617 252.902542 131.116730
v 117.994659 256.072632 132.198425
v 114.587898 242.099533 124.161400
v 110.753242 278.376404 133.246323
v 108.703690 271.726807 123.024323
v 103.646675 254.795410 126.976883
v 108.535675 260.250305 128.273392
v 111.392960 270.484528 132.316742
v 106.357788 238.185791 123.064674
v 113.539528 239.950668 123.315239
v 118.327843 270.667236 128.612534
v 118.088997 268.008026 126.551834
v 102.257980 238.090469 123.203331
v 115.547852 256.187531 123.601624
v 108.703049 262.234924 122.500000
v 101.443893 268.063202 123.174286
v 106.185631 264.287628 126.306686
v 108.703659 272.706146 123.528603
v 115.147820 275.795013 126.759422
v 103.581764 260.398224 125.006310
v 108.493744 258.165039 128.772354
v 117.143517 276.590210 128.207626
v 102.350800 264.226776 123.944099
v 97.345169 249.730927 127.107162
v 102.257179 239.512527 126.259125
v 118.114441 248.173325 128.877197
v 116.998459 262.241974 132.911224
v 115.147133 262.236115 133.248032
v 117.150467 276.283875 134.079941
v 117.144745 277.355988 129.415604
v 115.168915 241.768768 128.988281
v 118.121590 272.307312 132.391190
v 104.343788 271.684479 123.109955
v 104.307999 250.221924 122.502632
v 102.294586 243.425980 131.306976
v 117.066483 266.108734 124.229660
v 108.295288 254.148270 130.647690
v 118.248886 275.315002 127.285072
v 102.290993 266.044067 122.716492
v 117.742928 246.205322 132.197891
v 110.753937 246.204834 133.100143
v 97.519623 242.092072 123.649361
v 104.308044 241.581161 129.117462
v 96.768959 243.936493 127.529305
v 118.086197 264.304291 128.507553
v 111.396500 264.150055 130.453888
v 98.091782 242.246872 128.561798
v 115.972717 244.037933 125.805740
v 115.145233 274.677551 134.132248
v 112.789223 258.132538 122.651688
v 106.358940 266.044128 122.500000
v 118.668732 274.222107 128.540604
v 119.438759 278.328979 131.660263
v 110.790924 273.175079 133.727142
v 115.449753 254.102203 123.636948
v 117.982254 258.061432 132.170105
v 117.825447 243.156570 129.967789
v 118.309273 277.016296 129.815536
v 101.360397 270.209015 124.131348
v 118.251152 268.120392 128.612778
v 118.248619 251.994919 128.843842
v 116.832619 246.227432 126.753304
v 113.705193 238.011444 123.124908
v 108.704254 238.185654 123.064461
v 98.407433 242.004242 123.082893
v 118.405006 261.378571 129.474182
v 104.309662 268.094208 122.549942
v 110.747154 238.316086 124.163559
v 114.498634 240.777679 126.129402
v 104.308022 238.181732 123.058662
v 106.161102 254.227554 128.733231
v 102.708427 271.828857 125.349396
v 117.934647 270.168365 132.295410
v 117.005005 260.180634 132.919357
v 110.754059 277.529938 129.297867
v 102.265366 262.178680 123.936333
v 115.106537 268.094574 122.750488
v 112.804283 273.899231 124.553963
v 115.146904 274.962372 125.763687
v 104.307976 238.078278 123.199600
v 104.330116 246.218735 132.979004
v 97.923103 239.825699 126.055054
v 112.867294 256.073395 133.147156
v 117.046364 244.633408 132.148193
v 106.359428 246.212799 133.061447
v 95.720261 241.603760 126.678413
v 108.702660 248.176071 133.351089
v 107.462067 262.548431 127.120705
v 104.365685 273.522125 124.701309
v 106.188828 260.230408 126.709625
v 112.803848 268.094421 122.541794
v 112.803947 250.222961 133.477020
v 116.451294 256.104736 124.596802
v 108.703163 239.978806 122.633537
v 109.710732 271.161072 131.133331
v 118.356552 268.708313 129.504944
v 112.644814 274.519623 134.154129
v 105.397369 250.940918 132.244980
v 99.078461 254.842041 124.053619
v 109.307739 270.785004 130.224655
v 104.109238 251.289169 130.655457
v 97.222290 239.113510 124.379257
v 118.221321 246.187180 130.715744
v 117.039597 256.083069 132.958786
v 108.655464 278.378143 133.166382
v 106.357124 238.089722 123.203308
v 103.396767 267.466187 125.065536
v 106.383636 275.704285 126.839684
v 104.222466 274.262024 126.058464
v 118.020401 273.598663 125.541542
v 106.359238 248.171066 133.247116
v 111.357033 266.029694 130.200394
v 110.754181 240.696426 127.881699
v 114.670639 256.096222 123.084419
v 108.703072 238.304977 124.175270
v 97.100685 247.879547 127.161537
v 108.716103 266.038910 127.938347
v 99.140320 254.921219 124.056641
v 104.308601 266.044037 122.522308
v 114.440666 252.030579 123.235161
v 104.308578 264.286041 122.522125
v 104.795181 251.718994 130.447266
v 112.726601 239.981537 122.866867
v 102.046829 258.267792 124.415306
v 118.439400 270.155334 130.811462
v 115.102303 266.044525 122.752571
# 687 vertices, 0 vertices normals

f 418 467 437
f 532 568 582
f 638 340 80
f 85 88 603
f 243 370 59
f 208 542 407
f 5 411 458
f 623 95 393
f 323 113 75
f 118 650 670
f 429 472 149
f 570 625 402
f 513 37 471
f 168 317 131
f 72 604 289
f 403 254 577
f 364 296 95
f 60 451 453
f 283 634 466
f 325 214 9
f 307 543 662
f 523 386 339
f 138 520 498
f 500 20 489
f 557 242 247
f 687 136 340
f 249 99 315
f 235 364 623
f 405 222 160
f 21 418 361
f 426 105 266
f 539 344 61
f 375 422 219
f 510 219 602
f 56 241 252
f 499 155 445
f 609 330 364
f 409 126 81
f 146 190 67
f 93 22 201
f 556 628 269
f 71 262 599
f 590 18 519
f 518 188 592
f 78 143 674
f 285 550 12
f 577 600 4
f 304 327 140
f 607 673 409
f 22 349 282
f 622 360 316
f 680 612 628
f 670 331 417
f 511 52 101
f 511 101 558
f 616 385 575
f 369 626 603
f 24 251 128
f 209 566 579
f 271 89 154
f 465 595 75
f 656 457 485
f 398 681 45
f 294 263 231
f 287 374 170
f 22 279 201
f 591 298 284
f 620 221 297
f 376 183 111
f 547 357 204
f 504 300 459
f 366 378 545
f 428 231 555
f 274 187 296
f 76 328 175
f 503 440 473
f 288 474 410
f 2 379 275
f 429 72 472
f 435 348 347
f 374 253 627
f 217 96 325
f 387 593 634
f 96 198 214
f 482 651 205
f 547 47 465
f 114 635 549
f 479 1 496
f 631 570 259
f 110 679 276
f 656 485 475
f 148 16 474
f 583 599 57
f 563 554 360
f 454 147 569
f 39 573 513
f 590 519 363
f 514 377 313
f 259 570 402
f 516 100 132
f 140 170 21
f 547 465 357
f 388 139 508
f 331 120 417
f 18 223 228
f 127 78 107
f 91 125 256
f 90 379 2
f 98 511 558
f 133 624 684
f 476 87 416
f 406 502 568
f 29 632 244
f 374 459 462
f 164 623 135
f 52 36 101
f 68 184 467
f 164 135 106
f 378 189 50
f 592 274 152
f 655 281 428
f 79 412 323
f 434 515 353
f 628 612 524
f 51 168 681
f 413 581 482
f 83 67 658
f 35 40 341
f 39 513 100
f 492 583 591
f 465 261 357
f 547 346 47
f 411 108 560
f 596 421 234
f 500 633 20
f 23 455 329
f 487 181 240
f 137 277 373
f 473 440 368
f 61 344 337
f 306 677 400
f 298 614 144
f 489 270 46
f 105 310 293
f 429 604 72
f 405 358 222
f 64 120 579
f 564 609 517
f 472 674 143
f 38 682 600
f 424 55 166
f 611 383 480
f 398 560 108
f 378 50 545
f 64 264 62
f 443 497 245
f 485 457 661
f 399 356 678
f 18 228 519
f 684 294 231
f 653 481 220
f 379 263 303
f 677 585 322
f 136 319 340
f 564 425 609
f 392 663 65
f 615 236 658
f 430 321 337
f 359 24 381
f 225 12 250
f 637 584 97
f 495 461 359
f 203 447 316
f 368 434 353
f 374 606 21
f 676 149 629
f 9 191 640
f 2 275 79
f 446 286 349
f 345 350 504
f 83 111 183
f 467 184 33
f 682 528 7
f 632 186 598
f 123 224 109
f 294 537 263
f 252 637 581
f 412 49 52
f 26 8 18
f 258 477 13
f 254 600 577
f 680 7 612
f 459 300 462
f 656 475 454
f 135 393 348
f 241 211 249
f 397 466 6
f 187 664 441
f 578 46 124
f 232 362 159
f 276 444 660
f 77 419 130
f 195 647 229
f 69 486 253
f 476 660 494
f 30 652 63
f 348 295 622
f 213 230 434
f 134 211 241
f 442 118 533
f 571 58 158
f 139 491 368
f 15 431 200
f 608 605 122
f 286 90 346
f 207 676 48
f 203 316 192
f 681 168 131
f 49 193 160
f 211 161 99
f 142 479 496
f 392 65 88
f 194 277 31
f 2 79 595
f 622 89 360
f 257 125 91
f 391 476 416
f 400 122 605
f 501 237 280
f 499 220 155
f 325 9 639
f 489 20 270
f 107 630 58
f 150 605 229
f 71 599 583
f 621 657 157
f 220 509 15
f 116 106 168
f 376 540 183
f 117 5 415
f 236 167 111
f 222 169 36
f 301 329 175
f 408 203 385
f 525 645 318
f 611 156 84
f 404 390 77
f 612 123 109
f 410 474 283
f 55 488 166
f 56 685 335
f 416 23 370
f 127 629 143
f 487 240 292
f 156 575 180
f 452 345 588
f 567 328 277
f 258 13 186
f 191 132 671
f 478 536 407
f 307 662 189
f 46 270 399
f 290 50 119
f 416 370 322
f 539 375 344
f 589 588 635
f 505 384 271
f 11 354 636
f 267 307 189
f 311 308 540
f 650 331 670
f 370 23 59
f 243 544 451
f 7 576 123
f 344 460 337
f 396 5 117
f 171 394 185
f 242 65 293
f 249 584 637
f 583 57 619
f 2 595 47
f 465 75 261
f 180 94 287
f 125 8 256
f 405 498 358
f 458 560 480
f 44 117 161
f 308 666 540
f 633 165 670
f 372 649 502
f 253 486 436
f 558 411 5
f 438 30 566
f 508 102 661
f 646 672 422
f 96 214 325
f 653 220 499
f 620 442 633
f 147 288 410
f 209 438 566
f 359 461 251
f 573 37 513
f 626 85 603
f 142 496 557
f 142 557 310
f 652 638 63
f 273 43 673
f 476 278 660
f 172 624 133
f 607 273 673
f 307 329 543
f 559 522 234
f 537 158 520
f 504 350 300
f 42 518 239
f 685 373 194
f 646 422 375
f 404 77 593
f 235 623 164
f 41 671 262
f 171 195 216
f 473 326 395
f 19 311 66
f 644 174 129
f 19 66 25
f 476 76 455
f 169 51 681
f 177 438 209
f 512 59 202
f 198 371 548
f 60 453 34
f 575 385 654
f 45 616 675
f 133 299 3
f 510 460 219
f 374 462 68
f 314 48 667
f 294 571 158
f 388 508 356
f 519 228 614
f 131 317 151
f 103 304 483
f 412 511 449
f 608 561 216
f 675 575 156
f 368 353 485
f 146 183 666
f 195 185 647
f 469 360 89
f 636 354 260
f 637 97 581
f 248 432 370
f 439 69 94
f 481 166 488
f 646 545 672
f 163 676 3
f 574 641 631
f 100 178 132
f 389 640 521
f 529 686 338
f 116 164 106
f 403 315 254
f 141 46 578
f 83 183 146
f 146 565 190
f 541 380 199
f 41 262 71
f 94 253 287
f 477 582 13
f 77 162 419
f 512 378 366
f 215 120 331
f 539 522 559
f 430 35 188
f 530 397 6
f 502 487 507
f 95 587 393
f 600 682 680
f 291 114 549
f 533 173 650
f 200 431 153
f 626 1 32
f 150 400 605
f 297 500 553
f 424 562 55
f 484 321 674
f 645 445 318
f 626 496 1
f 441 664 153
f 309 164 116
f 72 61 484
f 218 17 451
f 384 665 469
f 168 106 317
f 229 88 238
f 393 587 295
f 241 637 252
f 344 219 460
f 169 398 108
f 678 356 273
f 431 154 153
f 255 213 440
f 150 104 306
f 271 469 89
f 95 441 587
f 63 638 552
f 594 215 173
f 356 43 273
f 134 44 211
f 292 240 542
f 354 73 272
f 653 166 481
f 443 245 197
f 582 145 250
f 654 94 180
f 607 181 273
f 288 148 474
f 269 628 524
f 620 633 493
f 90 2 47
f 576 383 420
f 304 140 343
f 35 510 40
f 426 314 641
f 584 14 538
f 305 611 480
f 255 541 199
f 348 622 347
f 115 351 442
f 543 683 662
f 415 531 528
f 220 15 155
f 207 429 149
f 148 658 16
f 39 100 516
f 569 147 324
f 127 143 78
f 301 456 329
f 261 660 278
f 45 131 616
f 355 73 354
f 380 401 320
f 464 436 486
f 435 347 151
f 580 41 71
f 93 179 22
f 581 97 176
f 582 250 550
f 407 536 265
f 380 320 308
f 685 31 679
f 272 527 268
f 651 406 532
f 310 557 247
f 285 12 334
f 157 546 529
f 518 430 188
f 172 506 624
f 177 232 438
f 492 591 73
f 90 555 379
f 454 475 353
f 122 432 248
f 623 393 135
f 425 330 609
f 501 86 237
f 172 629 127
f 449 245 113
f 32 201 128
f 533 650 118
f 264 74 182
f 681 131 45
f 502 649 433
f 501 280 534
f 122 60 121
f 20 448 226
f 237 86 218
f 88 65 603
f 656 454 569
f 87 455 23
f 289 539 61
f 159 652 30
f 479 631 259
f 66 376 25
f 659 119 50
f 344 375 219
f 274 210 187
f 103 483 10
f 390 363 77
f 500 489 553
f 471 157 178
f 255 230 213
f 81 147 526
f 330 296 364
f 463 92 304
f 103 362 224
f 150 229 238
f 456 233 632
f 398 45 305
f 527 551 223
f 345 530 350
f 512 544 243
f 366 545 642
f 443 56 335
f 276 660 679
f 529 613 178
f 158 58 564
f 42 674 321
f 195 229 605
f 196 566 217
f 537 303 263
f 682 7 680
f 294 158 537
f 80 39 82
f 535 525 618
f 46 54 124
f 176 212 372
f 643 216 266
f 20 342 270
f 305 480 560
f 635 588 464
f 81 324 147
f 463 103 224
f 295 154 89
f 652 687 638
f 569 352 457
f 151 447 203
f 27 503 473
f 173 215 331
f 268 527 223
f 289 522 539
f 572 157 529
f 552 80 82
f 106 135 435
f 195 608 216
f 250 292 386
f 267 378 202
f 549 635 617
f 371 516 548
f 474 387 283
f 243 451 60
f 142 631 479
f 471 572 157
f 517 235 309
f 72 484 472
f 22 179 349
f 250 145 507
f 206 205 477
f 207 534 280
f 512 450 544
f 427 457 352
f 79 275 49
f 473 491 139
f 572 529 546
f 665 549 563
f 209 579 215
f 597 573 39
f 454 353 167
f 312 528 682
f 370 432 322
f 67 470 610
f 403 577 620
f 32 490 85
f 643 105 293
f 565 256 190
f 463 224 420
f 359 251 24
f 32 1 201
f 196 639 64
f 333 12 644
f 684 571 294
f 512 366 450
f 106 435 317
f 84 92 463
f 14 297 302
f 279 204 24
f 421 544 450
f 647 394 229
f 237 53 604
f 426 586 314
f 374 68 606
f 430 460 35
f 11 355 354
f 57 419 619
f 648 70 377
f 620 115 442
f 78 630 107
f 264 389 74
f 282 349 346
f 267 23 307
f 239 592 152
f 574 426 641
f 503 473 395
f 685 679 335
f 526 410 397
f 607 409 536
f 369 496 626
f 29 456 632
f 99 38 254
f 589 452 588
f 81 526 227
f 658 67 610
f 540 666 183
f 484 337 321
f 617 486 554
f 523 291 174
f 211 99 249
f 392 88 394
f 586 534 314
f 633 118 165
f 443 335 497
f 403 297 14
f 255 311 230
f 446 402 655
f 594 177 209
f 506 107 624
f 351 594 173
f 21 606 418
f 630 468 425
f 98 558 396
f 515 167 353
f 394 643 293
f 159 10 652
f 289 53 522
f 445 155 601
f 190 26 470
f 90 47 346
f 446 349 179
f 225 250 386
f 620 493 500
f 667 163 625
f 559 642 646
f 569 324 352
f 473 368 491
f 428 281 231
f 464 459 436
f 284 614 527
f 265 227 452
f 351 173 533
f 423 601 664
f 503 255 440
f 529 338 130
f 611 84 383
f 369 65 242
f 184 6 33
f 632 258 186
f 456 567 137
f 264 182 62
f 124 678 433
f 372 502 406
f 514 653 499
f 138 405 193
f 99 161 38
f 443 134 56
f 440 213 434
f 218 451 596
f 403 620 297
f 484 61 337
f 520 517 498
f 555 231 263
f 127 107 506
f 685 252 413
f 489 302 668
f 58 425 564
f 655 299 281
f 163 299 625
f 574 142 310
f 374 627 459
f 588 504 464
f 131 151 408
f 150 306 400
f 44 396 117
f 192 554 486
f 476 494 76
f 286 346 349
f 578 124 649
f 133 684 281
f 341 525 535
f 521 640 580
f 79 323 595
f 508 427 43
f 275 303 193
f 46 399 54
f 267 189 378
f 539 559 375
f 98 396 197
f 311 380 308
f 412 52 511
f 464 504 459
f 573 621 572
f 424 166 313
f 586 266 561
f 463 304 103
f 115 4 556
f 211 44 161
f 78 42 630
f 205 651 532
f 636 28 336
f 485 353 475
f 274 535 618
f 275 193 49
f 267 202 59
f 405 160 193
f 172 3 629
f 326 417 669
f 110 276 660
f 57 613 419
f 218 86 17
f 149 472 143
f 610 390 404
f 442 351 533
f 643 266 105
f 489 141 302
f 269 524 177
f 586 561 501
f 91 320 401
f 155 15 200
f 407 452 589
f 266 216 561
f 497 113 245
f 332 276 679
f 25 111 167
f 470 26 590
f 56 252 685
f 582 568 145
f 596 522 53
f 615 167 236
f 33 466 686
f 479 93 1
f 390 590 363
f 191 671 41
f 259 402 179
f 525 318 423
f 74 389 521
f 73 284 272
f 76 494 332
f 421 450 234
f 454 148 288
f 421 451 34
f 659 244 119
f 237 604 280
f 675 616 575
f 676 629 3
f 399 678 54
f 510 602 382
f 490 128 251
f 340 319 597
f 359 381 357
f 252 581 413
f 317 435 151
f 415 458 531
f 215 579 120
f 548 132 191
f 133 281 299
f 319 21 361
f 55 334 488
f 385 439 654
f 574 310 105
f 319 361 597
f 169 681 398
f 673 126 409
f 672 648 422
f 210 423 187
f 76 332 328
f 341 645 525
f 139 368 485
f 137 258 233
f 117 415 312
f 384 469 271
f 272 284 527
f 311 376 66
f 286 428 555
f 512 202 378
f 373 413 482
f 625 299 655
f 501 561 86
f 472 484 674
f 549 617 563
f 103 10 362
f 301 175 328
f 466 634 686
f 84 156 92
f 568 507 145
f 93 201 1
f 180 287 327
f 528 531 576
f 79 49 412
f 208 589 114
f 685 413 373
f 301 328 456
f 119 424 70
f 450 366 642
f 347 316 447
f 638 80 552
f 172 133 3
f 648 377 602
f 559 646 375
f 297 553 668
f 241 249 637
f 289 604 53
f 644 523 174
f 118 670 165
f 581 176 482
f 7 123 612
f 417 120 62
f 580 71 492
f 423 318 601
f 478 407 542
f 138 498 405
f 636 257 28
f 658 610 16
f 456 328 567
f 508 457 427
f 669 62 182
f 82 516 371
f 347 622 316
f 257 91 401
f 315 14 584
f 667 48 163
f 305 675 611
f 451 34 453
f 205 532 477
f 358 116 51
f 577 4 115
f 636 260 257
f 339 386 542
f 537 138 303
f 495 391 585
f 537 520 138
f 513 471 100
f 55 285 334
f 230 25 434
f 300 350 184
f 140 136 343
f 382 514 367
f 469 563 360
f 677 322 432
f 13 582 550
f 538 302 141
f 410 283 397
f 238 88 85
f 137 373 206
f 672 290 648
f 80 597 39
f 238 490 104
f 51 116 168
f 354 272 260
f 606 467 418
f 260 272 268
f 372 578 649
f 244 598 562
f 305 45 675
f 647 185 394
f 311 540 308
f 306 461 677
f 635 464 617
f 402 625 655
f 509 505 15
f 279 24 128
f 109 224 362
f 543 329 456
f 503 395 255
f 448 473 226
f 100 471 178
f 138 193 303
f 634 593 338
f 389 9 640
f 538 141 212
f 583 619 591
f 441 153 587
f 481 333 509
f 112 328 332
f 112 679 277
f 446 179 402
f 150 238 104
f 352 324 81
f 609 364 235
f 110 75 113
f 481 488 333
f 523 339 291
f 10 483 687
f 468 152 274
f 679 497 335
f 417 62 669
f 598 285 55
f 233 258 632
f 212 578 372
f 283 387 634
f 587 154 295
f 586 501 534
f 262 57 599
f 493 633 500
f 140 319 136
f 341 40 645
f 685 194 31
f 421 34 544
f 101 108 411
f 510 382 40
f 672 50 290
f 269 177 594
f 398 305 560
f 442 533 118
f 189 662 50
f 630 425 58
f 476 455 87
f 214 191 9
f 608 17 86
f 654 439 94
f 304 343 483
f 461 585 677
f 449 511 98
f 270 388 399
f 81 227 265
f 684 231 281
f 395 246 414
f 73 591 284
f 16 404 387
f 227 530 345
f 60 34 451
f 226 473 139
f 63 552 96
f 433 181 487
f 72 289 61
f 244 562 424
f 161 312 38
f 529 130 613
f 517 609 235
f 509 129 505
f 131 408 385
f 30 63 217
f 641 570 631
f 422 648 602
f 596 451 421
f 323 449 113
f 394 88 229
f 253 459 627
f 369 603 65
f 362 10 159
f 93 259 179
f 246 28 414
f 311 199 380
f 526 397 530
f 297 221 500
f 391 359 476
f 290 70 648
f 369 557 496
f 387 404 593
f 684 624 571
f 225 644 12
f 482 372 651
f 556 269 351
f 192 486 69
f 207 280 429
f 640 41 580
f 598 186 13
f 574 105 426
f 357 261 278
f 574 631 142
f 477 532 582
f 359 357 278
f 291 549 665
f 214 548 191
f 35 341 188
f 70 424 313
f 124 54 678
f 670 417 326
f 264 639 389
f 297 668 302
f 82 39 516
f 256 8 26
f 592 535 274
f 115 556 351
f 364 95 623
f 634 338 686
f 276 679 444
f 97 212 176
f 641 314 667
f 274 618 210
f 43 427 352
f 525 423 618
f 15 505 431
f 222 36 160
f 440 434 368
f 253 436 459
f 287 253 365
f 528 576 7
f 626 32 85
f 563 617 554
f 431 271 154
f 572 546 157
f 171 216 643
f 210 618 423
f 163 3 299
f 355 492 73
f 481 509 220
f 553 489 668
f 495 585 461
f 558 101 411
f 16 610 404
f 174 665 384
f 678 273 181
f 524 232 177
f 467 33 437
f 84 420 383
f 6 466 33
f 339 114 291
f 98 197 245
f 514 313 653
f 287 365 374
f 601 200 153
f 96 552 198
f 230 311 19
f 40 367 645
f 382 602 377
f 203 192 439
f 296 441 95
f 379 303 275
f 68 300 184
f 416 322 585
f 356 508 43
f 131 385 616
f 382 367 40
f 196 579 566
f 433 678 181
f 669 182 246
f 651 372 406
f 369 242 557
f 132 262 671
f 548 516 132
f 607 478 240
f 633 448 20
f 232 159 438
f 640 191 41
f 575 654 180
f 171 185 195
f 541 414 380
f 194 373 277
f 147 410 526
f 196 325 639
f 446 655 428
f 49 160 52
f 333 129 509
f 257 401 28
f 400 432 122
f 334 12 488
f 483 343 136
f 91 256 565
f 376 308 540
f 367 445 645
f 418 437 621
f 33 157 657
f 621 437 657
f 508 661 457
f 306 490 251
f 102 485 661
f 112 277 328
f 225 523 644
f 32 128 490
f 619 419 298
f 641 667 570
f 74 336 182
f 550 250 12
f 665 563 469
f 587 153 154
f 394 293 663
f 620 577 115
f 363 519 162
f 187 423 664
f 254 38 600
f 195 605 608
f 393 295 348
f 552 82 198
f 518 321 430
f 246 336 28
f 373 482 205
f 492 71 583
f 414 28 401
f 290 119 70
f 298 144 614
f 333 644 129
f 591 619 298
f 483 136 687
f 425 468 330
f 339 542 208
f 593 77 338
f 465 47 595
f 630 239 468
f 104 490 306
f 646 642 545
f 298 162 614
f 151 203 408
f 639 9 389
f 119 244 424
f 524 109 232
f 566 30 217
f 169 108 36
f 307 23 329
f 479 259 93
f 397 283 466
f 35 460 510
f 94 69 253
f 594 209 215
f 388 356 399
f 222 51 169
f 426 266 586
f 37 572 471
f 155 200 601
f 598 13 285
f 512 243 59
f 567 277 137
f 170 374 21
f 20 226 388
f 565 666 320
f 295 89 622
f 298 419 162
f 26 18 590
f 482 176 372
f 612 109 524
f 330 274 296
f 659 50 662
f 64 639 264
f 212 141 578
f 332 660 276
f 8 223 18
f 172 127 506
f 615 658 148
f 114 589 635
f 43 352 673
f 109 362 232
f 110 497 679
f 450 642 234
f 208 407 589
f 260 268 125
f 173 331 650
f 56 134 241
f 607 536 478
f 633 670 448
f 396 558 5
f 5 458 415
f 112 332 679
f 445 601 318
f 573 572 37
f 14 302 538
f 137 206 258
f 218 596 53
f 268 223 8
f 188 341 535
f 190 256 26
f 67 190 470
f 132 178 262
f 157 686 529
f 624 107 571
f 373 205 206
f 282 346 547
f 236 83 658
f 455 76 329
f 134 197 44
f 332 494 660
f 530 6 350
f 306 251 461
f 527 614 551
f 255 199 311
f 672 545 50
f 468 274 330
f 403 14 315
f 649 124 433
f 456 137 233
f 250 507 292
f 311 308 376
f 248 370 243
f 462 300 68
f 296 187 441
f 146 666 565
f 442 533 633
f 608 122 121
f 437 33 657
f 222 358 51
f 84 463 420
f 422 602 219
f 316 360 192
f 568 502 507
f 247 242 293
f 207 149 676
f 361 621 573
f 92 180 327
f 536 409 265
f 382 377 514
f 101 36 108
f 608 86 561
f 351 269 594
f 498 517 309
f 543 244 683
f 99 254 315
f 257 260 125
f 4 628 556
f 157 529 178
f 679 31 277
f 621 157 572
f 361 418 621
f 659 683 244
f 519 614 162
f 77 130 338
f 596 234 522
f 489 46 141
f 395 541 255
f 333 488 12
f 395 669 246
f 174 291 665
f 670 326 473
f 454 288 147
f 244 632 598
f 91 565 320
f 367 499 445
f 279 128 201
f 25 167 515
f 92 327 304
f 430 337 460
f 122 248 60
f 352 126 673
f 261 110 660
f 248 243 60
f 454 167 615
f 448 670 473
f 365 253 374
f 392 394 663
f 439 192 69
f 429 280 604
f 42 321 518
f 476 359 278
f 158 564 520
f 411 560 458
f 107 58 571
f 10 687 652
f 443 197 134
f 358 309 116
f 576 420 123
f 653 313 166
f 438 159 30
f 225 386 523
f 11 636 336
f 452 227 345
f 284 298 614
f 407 265 452
f 123 420 224
f 230 19 25
f 17 60 451
f 261 75 110
f 223 551 228
f 267 59 23
f 282 204 279
f 610 470 390
f 87 23 416
f 292 542 386
f 521 580 355
f 601 153 664
f 198 548 214
f 161 117 312
f 478 542 240
f 444 679 660
f 584 538 97
f 11 521 355
f 110 113 497
f 129 384 505
f 391 416 585
f 217 63 96
f 125 268 8
f 156 180 92
f 236 111 83
f 282 547 204
f 227 526 530
f 350 6 184
f 687 340 638
f 617 464 486
f 262 178 613
f 135 348 435
f 458 480 531
f 505 271 431
f 498 309 358
f 620 500 221
f 204 357 381
f 592 188 535
f 531 480 383
f 64 62 120
f 608 121 17
f 77 363 162
f 327 287 170
f 352 81 126
f 339 208 114
f 196 64 579
f 559 234 642
f 204 381 24
f 171 643 394
f 44 197 396
f 4 680 628
f 139 102 508
f 663 293 65
f 129 174 384
f 520 564 517
f 470 590 390
f 196 217 325
f 412 449 323
f 20 388 342
f 633 533 118
f 76 175 329
f 27 473 503
f 13 550 285
f 308 320 666
f 286 555 90
f 588 345 504
f 151 347 447
f 495 359 391
f 238 85 490
f 198 82 371
f 355 580 492
f 600 680 4
f 451 544 34
f 139 485 102
f 309 235 164
f 52 160 36
f 312 415 528
f 555 263 379
f 149 143 629
f 262 613 57
f 667 625 570
f 48 676 163
f 249 315 584
f 531 383 576
f 314 534 48
f 656 569 457
f 70 313 377
f 446 428 286
f 474 16 387
f 74 521 11
f 226 139 388
f 395 326 669
f 258 206 477
f 659 662 683
f 29 543 456
f 611 675 156
f 340 597 80
f 514 499 367
f 607 240 181
f 78 674 42
f 310 247 293
f 207 48 534
f 449 98 245
f 121 60 17
f 38 312 682
f 237 218 53
f 518 592 239
f 228 551 614
f 400 677 432
f 507 487 292
f 25 376 111
f 74 11 336
f 532 406 568
f 613 130 419
f 29 244 543
f 22 282 279
f 33 686 157
f 327 170 140
f 42 239 630
f 606 68 467
f 502 433 487
f 140 21 319
f 595 323 75
f 597 361 573
f 562 598 55
f 434 25 515
f 83 146 67
f 270 342 388
f 192 360 554
f 414 401 380
f 395 414 541
f 454 615 148
f 246 182 336
f 409 81 265
f 239 152 468
f 97 538 212
f 385 203 439
# 1380 faces, 0 coords texture

# End of File