####
#
# OBJ File Generated by Meshlab
#
####
# Object Volume_015.obj
#
# Vertices: 353
# Faces: 700
#
####
v 175.182877 403.619141 144.479233
v 168.711288 403.011505 141.508377
v 173.753448 424.249481 149.032349
v 171.698364 423.193695 149.168121
v 176.045715 402.612030 139.485596
v 171.698532 402.569092 143.446335
v 176.784821 424.264008 144.451721
v 173.741379 402.897369 134.753281
v 167.966492 403.141052 136.723770
v 168.382660 424.293182 138.409454
v 173.699448 426.245026 145.823837
v 167.467896 407.550049 135.034714
v 177.158020 409.583313 142.947754
v 175.736343 425.227844 148.414429
v 169.702103 402.563324 141.498459
v 173.684830 409.685760 146.168823
v 173.718033 402.636261 143.444336
v 173.736221 425.259613 148.705536
v 167.630264 407.563812 141.496414
v 167.628372 403.103851 134.672409
v 177.042084 405.470703 142.525940
v 168.406433 403.779083 144.461105
v 176.443954 407.577850 143.845520
v 168.390015 407.769806 144.912689
v 171.698578 403.945221 134.294479
v 171.699661 402.356781 141.497772
v 168.484360 421.907501 138.162949
v 169.826614 420.177246 137.162048
v 175.260590 405.555511 144.675049
v 173.739471 403.955200 134.291443
v 172.808823 423.247131 149.088898
v 168.740921 426.594604 139.895859
v 167.722122 413.777527 145.765091
v 176.378296 420.159882 145.899399
v 167.384399 403.742981 137.091034
v 167.666000 415.798798 145.820953
v 168.416534 425.929688 139.218842
v 176.962234 426.673248 140.607086
v 173.720596 422.204712 148.689774
v 173.749008 402.341034 139.501633
v 167.498734 420.265930 145.760147
v 169.687607 402.610138 137.012131
v 167.480331 414.760834 136.258179
v 176.045685 422.216248 137.538986
v 166.812225 410.533081 135.545166
v 167.472397 413.636536 135.983627
v 178.895477 405.679810 137.674515
v 166.964523 411.568451 136.115540
v 173.744186 427.095032 142.481796
v 167.671631 418.023376 145.974686
v 177.874664 403.257263 136.916916
v 168.547867 426.616241 141.363159
v 176.436661 422.230316 145.932526
v 173.747040 424.235291 137.667648
v 169.755386 425.648529 148.281891
v 176.282135 424.197205 145.945557
v 176.031952 409.534088 135.007736
v 169.649612 403.143250 134.482895
v 167.747742 403.140991 134.552521
v 175.198975 418.379517 147.145599
v 173.745514 426.930511 139.652863
v 167.655548 424.200836 146.068787
v 171.697144 413.726959 147.489151
v 177.274155 413.715881 142.999756
v 175.935684 426.751526 142.350006
v 176.613525 409.556976 143.859772
v 171.698563 420.318939 136.898483
v 171.700729 402.428253 137.010651
v 171.699020 418.110260 136.495148
v 167.762070 409.560394 143.583191
v 175.955811 416.392792 136.226288
v 177.769012 422.211029 141.481735
v 167.765411 418.092560 139.184097
v 168.535873 403.053741 139.286331
v 173.740845 402.414185 141.496918
v 168.133255 403.725891 143.651306
v 168.168335 426.110107 141.906921
v 176.920303 418.113403 144.481766
v 169.644958 422.079315 148.704559
v 173.747650 407.557587 134.567657
v 169.700699 402.566742 139.498383
v 169.727371 418.059814 136.820587
v 176.936203 413.711487 143.793701
v 175.953369 425.268311 148.722885
v 169.656128 425.604340 138.304672
v 167.452164 415.760681 143.518646
v 177.821716 420.161377 141.498352
v 175.012665 413.767914 146.753983
v 173.748474 411.570435 135.110107
v 169.735596 418.176910 147.964478
v 169.654877 413.692902 135.572388
v 168.206741 413.787170 146.776138
v 167.065384 403.600220 135.217133
v 178.645309 409.528564 136.529160
v 176.032578 425.631805 138.299927
v 175.481293 425.518219 145.732269
v 176.283066 418.137421 145.822006
v 177.367508 426.102600 139.351151
v 177.598114 417.930359 137.694290
v 177.866135 413.717834 141.506699
v 177.823929 407.558655 141.291473
v 173.699829 425.647552 148.242569
v 168.209030 403.604767 141.499649
v 171.697403 416.261383 136.082626
v 175.522629 411.695465 145.721527
v 177.797485 424.172119 139.184387
v 178.554794 413.725433 136.772751
v 177.839249 418.110840 141.502106
v 176.043564 424.202179 137.866547
v 171.688385 418.151093 148.175476
v 168.318436 409.785461 145.227341
v 177.854126 411.665131 141.501083
v 168.527786 403.269440 144.309036
v 178.678558 409.615662 139.185867
v 176.168777 403.381073 134.432693
v 168.431564 425.246979 138.577942
v 168.001328 403.659485 139.328674
v 169.696976 424.196777 137.855148
v 177.356598 403.230316 134.727051
v 177.522400 422.099579 138.376740
v 175.641403 424.355591 148.388947
v 173.739334 416.273529 136.054932
v 166.939636 403.812744 135.828873
v 169.644272 411.256866 146.665817
v 167.332047 407.490112 139.153976
v 176.976013 420.162537 144.498749
v 166.716873 409.617950 135.451675
v 168.734039 425.034607 148.643951
v 169.692154 427.052490 141.471725
v 171.698654 420.167480 148.491501
v 173.748474 422.266083 137.261566
v 176.071762 405.503998 134.559555
v 171.698242 413.708221 135.498718
v 176.998215 403.056549 140.597382
v 173.698090 403.646515 144.897827
v 167.390839 411.666504 139.260422
v 176.051926 407.541473 134.778473
v 168.285156 422.346161 147.918045
v 178.484375 403.935516 136.685989
v 166.834549 405.498413 135.451233
v 166.130997 420.747986 137.000000
v 167.389984 422.211548 141.725571
v 178.894974 411.669647 137.507553
v 179.391968 407.508301 136.948898
v 169.664734 423.234314 149.070633
v 173.702469 405.542206 145.328522
v 169.661652 403.058472 144.475327
v 169.672043 424.249054 149.131989
v 173.742798 403.160553 134.489105
v 171.700058 424.234253 137.666382
v 167.463013 405.475616 134.915985
v 168.044312 425.541840 143.556183
v 169.655746 415.044983 135.895462
v 171.711380 426.505890 138.837875
v 169.739990 407.548462 145.698608
v 171.699219 426.940430 143.509964
v 173.731567 411.262482 146.659683
v 171.699585 402.331390 139.500412
v 168.531616 424.242828 148.909332
v 178.015152 420.145172 139.472427
v 176.938721 415.594299 144.033096
v 173.729309 403.052002 144.462387
v 167.103912 413.695251 137.196228
v 177.829849 411.446442 135.888794
v 176.614273 403.676392 142.325851
v 176.042786 402.654755 137.025009
v 167.506638 415.814453 141.740021
v 177.508743 424.165497 138.509918
v 171.697723 426.940918 139.650330
v 169.653671 407.554749 134.617859
v 177.258942 418.108856 143.498245
v 178.671341 407.589294 139.133270
v 175.549622 424.855286 148.753265
v 168.555313 403.094757 143.657791
v 167.264694 414.606812 136.300003
v 167.411591 413.718445 139.244156
v 176.036499 426.166229 143.634613
v 173.746628 412.366241 147.042435
v 171.698914 412.360321 147.190598
v 167.445114 411.473236 135.594315
v 173.746674 425.681732 138.201553
v 167.872421 422.196350 139.202621
v 178.720291 414.859406 137.987778
v 166.683395 405.528900 135.954025
v 176.060257 426.927795 141.447159
v 166.982452 411.657532 137.227264
v 171.698730 409.630341 146.412033
v 177.102310 424.227051 143.455811
v 177.416412 420.082672 137.993286
v 167.647949 411.681641 143.492722
v 168.354858 417.984680 137.738586
v 177.043900 407.577148 142.902100
v 173.749329 418.112091 136.479050
v 173.703247 413.753723 147.291855
v 166.669632 407.562134 135.952377
v 171.698502 425.758209 148.264465
v 171.685349 425.291779 148.780350
v 177.867737 415.770081 141.505630
v 171.698364 402.886688 134.747681
v 177.237076 415.949677 143.309372
v 177.250122 403.597046 141.038330
v 169.712936 415.829987 147.618286
v 176.015121 403.676147 143.526154
v 171.698257 415.075104 135.792862
v 171.705399 422.026611 148.892166
v 178.898285 413.686523 137.544693
v 178.477402 415.683716 139.226074
v 175.431686 422.348602 147.707230
v 171.697723 411.186401 146.856476
v 177.796402 409.558899 141.517441
v 173.650452 415.940735 147.578247
v 173.745956 409.566498 134.791672
v 178.934479 409.599823 137.481995
v 169.707932 405.545746 145.337616
v 167.360809 409.621796 139.267044
v 176.065521 415.781586 145.820007
v 169.675446 426.847107 139.668610
v 167.403992 420.222351 141.663803
v 177.221725 411.664673 142.978348
v 171.739563 407.477264 145.931244
v 177.519485 403.235199 134.897980
v 167.416260 409.528625 135.134949
v 175.403870 409.759583 145.287201
v 178.599106 411.642975 136.618927
v 168.196976 424.239227 148.257492
v 175.438873 403.038300 143.365219
v 176.002502 402.846252 141.464279
v 173.714828 407.658081 145.698761
v 167.804703 420.158997 139.220505
v 171.698029 405.526733 134.350571
v 176.372940 405.613281 143.610580
v 171.698135 409.570312 134.767136
v 176.833633 411.670166 143.756226
v 176.050812 426.821777 139.674515
v 167.368896 418.129181 143.536621
v 171.697464 405.509064 145.539612
v 169.669342 412.400330 147.071381
v 171.698151 407.559784 134.543991
v 178.432663 405.532104 139.379761
v 171.698273 411.574188 135.089188
v 177.845108 403.771576 135.136765
v 173.746475 420.317596 136.895004
v 167.566086 424.236237 141.755264
v 178.045715 403.688263 139.148804
v 168.274887 412.789185 146.656250
v 177.213821 426.549561 139.803253
v 168.493225 418.117828 147.300430
v 169.652496 411.558807 135.172043
v 177.428375 403.091248 139.395401
v 173.749039 413.708496 135.494949
v 171.742523 415.806061 147.806488
v 167.489105 418.107941 141.492249
v 176.073853 413.687195 135.628784
v 167.445786 424.169952 143.558380
v 176.005310 420.257904 137.191605
v 177.327103 425.244080 138.653244
v 173.745636 402.439056 137.012329
v 167.599014 411.639099 141.484482
v 177.287827 420.161896 143.506546
v 171.699493 427.183319 141.477264
v 175.938354 404.089630 134.329910
v 173.699005 420.196747 148.211975
v 173.749741 405.525757 134.366455
v 176.008530 425.523468 148.802780
v 177.590073 424.228760 141.350494
v 178.060745 415.846924 137.191498
v 166.869217 409.613403 137.258926
v 177.863525 413.639679 136.141891
v 171.695801 403.139038 134.471786
v 176.974838 422.211975 144.499069
v 166.637497 409.595367 135.913239
v 175.130234 415.951660 146.837067
v 173.776260 418.088776 147.845337
v 168.186844 425.302032 145.664825
v 179.407471 407.510498 136.969681
v 166.846283 407.641113 137.238541
v 169.700256 426.700897 143.460327
v 171.707321 425.681793 138.200378
v 171.695312 403.026489 144.486725
v 175.275253 420.307098 147.402710
v 169.653305 409.561920 134.827499
v 167.741348 405.514435 141.490799
v 176.055130 403.023193 134.812149
v 175.296951 407.760590 144.985184
v 167.463455 403.738129 134.695206
v 171.697464 403.645203 144.995117
v 171.698685 427.128204 142.488602
v 169.655090 403.941620 134.327850
v 166.918274 405.450073 137.179932
v 178.689941 411.665680 139.190674
v 168.464203 420.084412 137.965134
v 169.720978 409.680603 146.170761
v 177.780365 409.446564 135.636017
v 168.437943 420.225891 147.471237
v 167.802567 415.647644 137.094879
v 169.649002 405.518616 134.436539
v 176.071686 411.537659 135.290955
v 168.125702 411.748199 145.779617
v 168.488495 425.135437 147.970001
v 171.687912 424.237305 149.147614
v 173.744873 427.162384 141.476654
v 169.698410 402.678223 143.446426
v 177.268066 422.212646 143.500732
v 174.214722 423.489594 148.856461
v 169.611862 416.179871 136.304779
v 169.668137 402.918793 134.742142
v 171.707581 422.267303 137.257828
v 169.707428 420.195068 148.249619
v 176.020187 426.425262 138.915375
v 173.743973 426.502258 138.839249
v 167.062637 413.692535 136.358353
v 177.693024 414.958252 136.379868
v 175.026260 403.207764 144.327286
v 169.707397 403.652802 144.908020
v 168.605728 423.400635 148.798019
v 167.565918 415.753906 139.176666
v 167.874207 405.531189 143.713058
v 176.169266 415.321960 135.942474
v 167.629211 409.614380 141.495529
v 168.344620 416.002289 146.956696
v 178.476715 403.802399 137.605606
v 178.130554 418.071442 139.449417
v 178.669022 413.711548 139.182709
v 167.529236 413.620636 143.443451
v 169.643906 426.946503 142.451202
v 174.933746 412.755371 146.628677
v 173.749191 426.852661 143.493149
v 166.130997 426.315002 144.000000
v 178.788544 405.544983 136.687454
v 176.631729 425.724579 143.180222
v 177.134659 426.132477 141.139206
v 171.699493 426.415588 145.847794
v 167.418427 405.556732 139.105560
v 167.833389 407.564606 143.724609
v 167.484589 422.231934 146.015793
v 167.963318 424.247498 139.217255
v 166.837402 407.575623 135.483963
v 167.249664 422.228149 143.551758
v 178.012451 405.440338 135.470749
v 177.958572 422.218781 139.370926
v 168.323959 405.606445 144.585754
v 169.724838 426.376404 138.878372
v 169.658112 425.303955 148.788574
v 169.679626 413.755463 147.350464
v 177.856674 407.349487 135.508499
v 177.655304 405.533356 141.247696
v 173.755005 415.078400 135.788864
v 169.731613 426.162292 145.806305
v 167.548492 413.695160 141.812408
v 176.035522 418.062683 136.744400
v 167.296204 419.976135 143.584976
v 169.655045 422.084015 137.523270
v 175.944061 413.754150 145.685684
# 353 vertices, 0 vertices normals

f 228 16 284
f 42 81 158
f 220 187 228
f 327 96 11
f 353 216 83
f 316 252 167
f 181 109 95
f 304 39 31
f 39 121 208
f 321 47 329
f 188 330 265
f 108 259 87
f 127 337 12
f 333 282 117
f 210 13 219
f 123 93 184
f 107 143 206
f 54 109 181
f 177 331 330
f 16 157 223
f 227 75 226
f 205 4 39
f 313 135 1
f 327 65 177
f 65 185 331
f 318 268 312
f 219 64 112
f 227 226 203
f 18 102 84
f 110 273 211
f 214 236 286
f 58 25 288
f 221 51 241
f 306 199 269
f 87 303 72
f 59 58 288
f 265 98 106
f 353 83 233
f 163 295 316
f 102 14 84
f 132 80 263
f 32 217 129
f 291 28 27
f 118 116 10
f 251 90 110
f 327 11 156
f 145 148 4
f 24 334 111
f 283 166 51
f 88 216 353
f 33 320 92
f 9 74 81
f 85 37 116
f 193 71 350
f 286 135 162
f 32 52 77
f 35 117 74
f 33 36 320
f 223 66 23
f 316 73 252
f 91 153 43
f 321 329 139
f 65 331 177
f 131 44 54
f 166 257 5
f 244 239 321
f 155 111 292
f 251 211 194
f 261 132 263
f 242 350 255
f 104 69 82
f 231 192 21
f 5 227 134
f 285 59 288
f 313 17 162
f 179 63 178
f 314 214 286
f 348 196 55
f 94 144 213
f 174 103 76
f 304 31 3
f 137 212 80
f 171 259 108
f 118 10 352
f 101 210 114
f 223 105 66
f 309 246 234
f 258 349 190
f 226 17 313
f 130 308 79
f 36 50 247
f 278 181 154
f 93 9 20
f 115 241 261
f 258 136 349
f 230 30 263
f 10 336 27
f 114 290 143
f 78 126 259
f 186 176 136
f 140 184 93
f 57 345 293
f 237 92 344
f 217 260 129
f 273 60 272
f 108 87 160
f 289 125 333
f 232 80 212
f 315 159 145
f 254 338 142
f 248 46 180
f 186 136 267
f 252 218 351
f 280 208 34
f 117 2 74
f 137 345 57
f 332 156 11
f 235 351 41
f 114 143 213
f 199 8 149
f 281 248 180
f 85 342 37
f 48 311 163
f 155 220 236
f 124 237 209
f 161 171 200
f 226 313 1
f 301 185 65
f 300 3 31
f 9 81 42
f 32 77 37
f 123 184 289
f 342 217 37
f 178 194 326
f 29 284 231
f 51 244 321
f 68 158 40
f 270 7 188
f 10 27 352
f 194 88 326
f 236 146 135
f 339 139 329
f 199 149 269
f 185 38 331
f 147 113 22
f 255 99 189
f 221 241 119
f 15 2 302
f 20 306 58
f 346 101 172
f 58 269 25
f 346 172 239
f 35 333 117
f 292 124 187
f 18 84 173
f 254 142 243
f 164 224 268
f 10 116 37
f 175 311 46
f 148 300 4
f 347 71 122
f 302 147 279
f 47 144 329
f 301 260 169
f 62 299 225
f 204 122 104
f 350 266 99
f 91 43 46
f 150 131 54
f 231 23 192
f 291 182 229
f 86 235 50
f 189 160 340
f 63 251 194
f 66 233 219
f 23 66 13
f 283 115 8
f 210 112 290
f 196 102 18
f 315 79 138
f 204 250 347
f 271 48 186
f 226 75 17
f 172 275 47
f 341 76 317
f 118 85 116
f 345 275 94
f 112 64 100
f 81 15 26
f 115 119 241
f 343 299 55
f 325 152 77
f 236 220 146
f 227 201 134
f 209 179 157
f 175 43 295
f 151 288 296
f 318 312 266
f 44 189 120
f 326 88 353
f 214 341 24
f 285 288 151
f 271 337 127
f 26 17 75
f 234 38 185
f 66 219 13
f 54 44 109
f 117 282 103
f 150 54 278
f 89 297 250
f 265 330 331
f 189 340 120
f 210 219 112
f 233 83 64
f 248 232 240
f 42 158 68
f 4 31 39
f 11 14 102
f 133 250 204
f 345 144 275
f 123 35 9
f 49 327 156
f 69 28 82
f 323 207 183
f 311 180 46
f 129 260 287
f 24 317 334
f 83 161 200
f 262 280 60
f 157 178 105
f 118 352 307
f 170 230 238
f 1 29 203
f 277 156 332
f 271 127 48
f 302 2 174
f 348 274 152
f 172 114 213
f 339 329 345
f 93 59 285
f 254 152 274
f 240 89 133
f 332 11 102
f 5 40 227
f 276 195 267
f 63 194 178
f 140 337 195
f 238 80 232
f 112 100 323
f 124 298 245
f 325 287 277
f 87 72 340
f 253 268 318
f 237 344 179
f 128 299 343
f 161 97 78
f 127 45 48
f 15 74 2
f 34 53 126
f 296 170 12
f 123 9 93
f 261 30 149
f 51 139 241
f 325 129 287
f 226 1 203
f 193 350 242
f 163 316 176
f 266 207 322
f 105 233 66
f 1 135 146
f 121 14 56
f 121 264 14
f 41 294 50
f 176 167 349
f 41 138 294
f 342 154 169
f 227 203 165
f 89 57 297
f 243 77 152
f 39 208 280
f 118 150 85
f 309 256 98
f 348 55 274
f 181 95 310
f 314 286 279
f 197 196 18
f 55 299 274
f 202 247 90
f 95 256 309
f 211 272 88
f 269 30 25
f 291 27 182
f 175 295 311
f 304 3 121
f 151 12 337
f 168 340 106
f 62 335 338
f 70 298 111
f 241 139 339
f 15 6 26
f 235 41 50
f 96 56 14
f 122 71 193
f 147 22 314
f 315 138 159
f 174 76 113
f 222 170 281
f 100 200 198
f 345 329 144
f 261 241 132
f 295 305 191
f 216 161 83
f 327 177 96
f 101 114 172
f 220 228 146
f 259 303 87
f 61 185 301
f 222 127 12
f 49 287 260
f 218 229 142
f 281 232 248
f 266 183 207
f 121 173 84
f 121 56 53
f 63 202 251
f 205 39 262
f 91 133 153
f 159 148 145
f 87 340 160
f 3 173 121
f 237 179 209
f 294 308 90
f 270 56 7
f 55 196 197
f 3 18 173
f 21 192 346
f 347 318 71
f 198 322 207
f 33 324 36
f 186 163 176
f 314 22 341
f 104 305 153
f 346 192 101
f 338 335 351
f 110 130 273
f 348 332 196
f 222 180 45
f 16 223 284
f 140 93 285
f 157 105 223
f 124 209 187
f 174 2 103
f 294 247 50
f 70 190 298
f 199 257 8
f 243 142 182
f 334 317 282
f 341 22 76
f 342 169 217
f 276 267 215
f 286 236 135
f 218 338 351
f 37 77 336
f 254 243 152
f 112 323 290
f 151 296 12
f 271 186 267
f 137 57 212
f 49 260 301
f 73 218 252
f 273 262 60
f 113 76 22
f 345 94 293
f 204 104 153
f 72 106 340
f 342 278 154
f 41 351 335
f 292 298 124
f 292 111 298
f 163 311 295
f 296 25 230
f 298 92 245
f 27 336 182
f 256 106 98
f 303 188 72
f 97 34 78
f 204 347 122
f 198 171 108
f 347 253 318
f 126 53 270
f 279 286 162
f 172 213 144
f 237 245 92
f 26 6 17
f 243 182 336
f 73 229 218
f 78 259 171
f 323 183 206
f 61 301 169
f 140 285 151
f 29 228 284
f 147 174 113
f 1 146 29
f 216 97 161
f 211 273 272
f 269 149 30
f 115 149 8
f 227 40 75
f 230 263 238
f 69 122 193
f 23 13 192
f 48 180 311
f 250 253 347
f 297 164 253
f 73 191 229
f 324 86 36
f 251 110 211
f 304 121 39
f 319 190 70
f 218 142 338
f 5 134 249
f 4 300 31
f 100 207 323
f 67 193 242
f 291 191 82
f 348 152 277
f 83 200 64
f 297 293 164
f 155 24 111
f 295 191 73
f 314 341 214
f 222 45 127
f 248 91 46
f 217 169 260
f 209 157 16
f 96 177 7
f 32 37 217
f 325 277 152
f 254 274 62
f 214 24 155
f 35 289 333
f 130 262 273
f 306 42 68
f 19 125 319
f 349 167 86
f 48 45 180
f 276 215 125
f 132 339 137
f 67 352 28
f 307 131 150
f 202 320 247
f 249 201 244
f 158 26 75
f 283 51 221
f 67 242 307
f 15 302 6
f 298 190 33
f 272 60 97
f 201 239 244
f 239 47 321
f 145 4 205
f 166 249 51
f 81 26 158
f 253 164 268
f 131 255 44
f 305 82 191
f 35 74 9
f 239 172 47
f 11 96 14
f 266 322 99
f 317 103 282
f 67 307 352
f 19 334 282
f 130 79 205
f 296 230 170
f 203 231 165
f 312 107 266
f 197 18 3
f 64 200 100
f 227 165 201
f 99 160 189
f 268 224 107
f 224 213 143
f 319 215 258
f 284 223 23
f 118 307 150
f 57 293 297
f 294 138 308
f 258 215 136
f 133 89 250
f 91 240 133
f 276 125 289
f 110 308 130
f 208 121 53
f 33 190 324
f 270 188 303
f 350 99 255
f 179 178 157
f 155 292 220
f 165 346 201
f 47 275 144
f 61 234 185
f 302 279 6
f 313 162 135
f 224 143 107
f 94 213 224
f 138 79 308
f 109 168 95
f 310 95 309
f 140 195 184
f 208 53 34
f 284 23 231
f 117 103 2
f 233 64 219
f 123 289 35
f 25 30 230
f 145 205 79
f 214 155 236
f 128 343 148
f 43 305 295
f 306 269 58
f 60 34 97
f 27 28 352
f 85 150 278
f 319 125 215
f 51 249 244
f 120 340 168
f 348 277 332
f 294 90 247
f 265 331 98
f 61 154 310
f 61 169 154
f 159 138 225
f 317 76 103
f 78 34 126
f 69 67 28
f 243 336 77
f 255 189 44
f 49 65 327
f 5 257 40
f 68 40 257
f 48 163 186
f 292 187 220
f 325 52 129
f 168 106 256
f 100 198 207
f 170 238 281
f 166 5 249
f 10 37 336
f 176 316 167
f 172 144 275
f 276 184 195
f 222 12 170
f 266 107 206
f 71 266 350
f 148 343 300
f 288 25 296
f 331 38 246
f 291 229 191
f 36 247 320
f 85 278 342
f 19 70 334
f 96 7 56
f 335 225 138
f 105 326 353
f 62 225 335
f 121 84 264
f 318 266 71
f 99 322 160
f 124 245 237
f 24 341 317
f 154 181 310
f 242 255 131
f 252 351 235
f 72 188 265
f 158 75 40
f 53 56 270
f 300 197 3
f 291 82 28
f 198 108 322
f 147 314 279
f 262 39 280
f 60 280 34
f 307 242 131
f 69 193 67
f 104 82 305
f 290 206 143
f 101 192 13
f 142 229 182
f 344 63 179
f 302 174 147
f 283 119 115
f 115 261 149
f 187 209 16
f 20 42 306
f 215 267 136
f 32 129 52
f 277 287 156
f 332 102 196
f 293 94 164
f 232 212 240
f 290 323 206
f 178 326 105
f 161 78 171
f 250 297 253
f 140 151 337
f 276 289 184
f 251 202 90
f 177 330 7
f 101 13 210
f 194 211 88
f 108 160 322
f 29 231 203
f 268 107 312
f 133 204 153
f 164 94 224
f 109 120 168
f 110 90 308
f 309 98 246
f 310 309 234
f 319 258 190
f 62 274 299
f 272 97 216
f 43 153 305
f 51 321 139
f 249 134 201
f 324 349 86
f 128 225 299
f 70 111 334
f 29 146 228
f 95 168 256
f 44 120 109
f 271 267 195
f 343 197 300
f 298 33 92
f 81 74 15
f 7 330 188
f 165 21 346
f 331 246 98
f 187 16 228
f 20 58 59
f 200 171 198
f 231 21 165
f 19 282 333
f 344 202 63
f 234 246 38
f 261 263 30
f 6 279 162
f 344 320 202
f 175 46 43
f 240 212 89
f 324 190 349
f 275 144 94
f 201 346 239
f 132 241 339
f 88 272 216
f 222 281 180
f 199 68 257
f 159 225 128
f 104 122 69
f 20 9 42
f 49 301 65
f 61 310 234
f 159 128 148
f 278 54 181
f 126 270 303
f 49 156 287
f 283 221 119
f 126 303 259
f 105 353 233
f 254 62 338
f 210 290 114
f 212 57 89
f 132 137 80
f 315 145 79
f 176 349 136
f 281 238 232
f 130 205 262
f 266 206 183
f 19 333 125
f 248 240 91
f 41 335 138
f 238 263 80
f 344 92 320
f 343 55 197
f 84 14 264
f 6 162 17
f 271 195 337
f 86 167 235
f 72 265 106
f 295 73 316
f 86 50 36
f 93 20 59
f 19 319 70
f 137 339 345
f 325 77 52
f 167 252 235
f 283 8 166
f 166 8 257
f 306 68 199
# 700 faces, 0 coords texture

# End of File