####
#
# OBJ File Generated by Meshlab
#
####
# Object Volume_133.obj
#
# Vertices: 424
# Faces: 848
#
####
v 163.356934 303.257782 120.078285
v 158.924301 327.486755 131.468735
v 166.628876 307.356537 125.507843
v 168.122803 315.268036 132.926468
v 164.800415 325.486023 123.239014
v 165.664490 300.612640 121.707527
v 167.052200 325.523285 135.874969
v 161.242340 329.712128 138.233490
v 160.310760 328.590942 129.833694
v 163.858337 325.999481 122.201881
v 159.637756 316.798431 136.718201
v 165.740631 323.464813 124.529289
v 162.616074 303.528259 127.074493
v 167.179047 309.416901 133.581192
v 157.381226 319.356232 124.645119
v 164.463120 305.287354 120.142036
v 164.929916 328.384827 129.019226
v 168.043854 321.420441 131.579605
v 162.617523 311.500183 137.762848
v 164.162888 327.559052 138.899460
v 166.115982 328.703674 135.779465
v 164.687592 317.879669 120.398155
v 162.614670 305.003479 129.694153
v 167.740616 311.493591 131.539215
v 157.094971 311.460083 125.549454
v 157.298538 325.490723 126.120506
v 168.004379 325.523376 131.587692
v 167.470291 311.454498 129.532150
v 165.990097 304.164490 126.595360
v 166.937271 319.280762 135.993774
v 158.974014 327.963562 130.087708
v 162.597427 321.356201 121.246353
v 160.421951 321.427277 137.924713
v 160.475388 306.644104 132.827255
v 159.558975 304.454559 122.185272
v 165.319946 303.255615 120.621666
v 160.277664 304.255737 128.102295
v 162.623764 306.637787 133.754028
v 161.122940 301.300751 121.522652
v 162.625153 308.522064 137.305954
v 166.428284 305.341370 125.500610
v 166.554611 306.909607 132.689423
v 159.699615 315.284668 136.638504
v 164.924728 315.257843 121.058914
v 157.737488 321.417664 129.553711
v 158.386887 317.316711 131.638535
v 159.063950 309.432312 133.798019
v 159.224960 319.301758 122.059296
v 164.014938 313.511078 120.276070
v 167.062119 323.473969 135.879166
v 166.957748 328.676056 133.661469
v 165.846985 303.255127 121.427750
v 164.760574 317.328003 138.074051
v 164.073135 325.723145 138.935455
v 160.505798 305.337494 121.339890
v 162.614975 302.595978 125.700546
v 164.470032 303.256683 120.157242
v 157.117111 313.510406 125.548592
v 168.054199 319.369537 131.574768
v 161.530502 308.490936 136.965836
v 163.082352 299.921722 120.754318
v 159.089386 307.386353 131.482132
v 163.096130 315.184326 120.090881
v 164.004471 315.253204 120.292252
v 164.778351 327.764404 127.343948
v 157.168091 317.319763 127.428879
v 163.986725 308.477234 136.828384
v 162.589432 327.544952 125.225372
v 160.275330 303.582428 127.037704
v 165.837296 321.419098 124.501350
v 157.481476 323.462341 125.059570
v 160.870224 313.540619 137.474625
v 158.397156 323.473938 131.620346
v 167.558350 319.367737 129.516296
v 168.110931 325.522247 132.932465
v 165.646500 312.646790 136.797287
v 159.463028 328.364746 131.342972
v 165.925583 317.101990 123.287666
v 164.210693 299.279541 120.280899
v 166.956924 317.396301 127.428268
v 157.729156 313.511292 129.457657
v 166.868011 327.492645 129.686432
v 158.852936 319.370453 133.838776
v 167.893661 313.333008 133.531479
v 161.513092 319.377899 138.826797
v 158.471725 305.263153 123.247658
v 157.186981 323.461609 126.083168
v 161.477005 327.556671 138.810226
v 157.115448 309.408752 125.548531
v 158.832077 323.471832 133.832199
v 164.217178 309.556885 137.211884
v 160.378235 326.787140 123.209908
v 165.949890 313.508331 123.072365
v 166.117691 308.199799 134.811356
v 158.686584 302.556213 124.492348
v 157.168152 311.236176 127.792564
v 161.555222 317.917908 138.747925
v 160.291840 328.053192 127.228394
v 165.965515 319.708832 124.470947
v 159.243454 317.418976 135.851135
v 157.518265 304.348785 126.614265
v 164.948792 329.070190 131.559738
v 159.575897 307.866364 133.667831
v 157.206360 323.469482 127.418793
v 163.343842 316.584991 138.551392
v 165.524689 319.336884 123.055580
v 159.293961 329.529205 137.095215
v 164.917419 329.382263 133.889908
v 158.078308 303.337769 125.216728
v 160.370697 329.021759 133.796692
v 167.708023 328.490326 132.774109
v 166.495071 306.537933 131.379913
v 168.114822 321.421082 132.932419
v 163.337677 305.314789 120.053879
v 163.027481 309.409607 120.091255
v 166.791901 319.306915 127.189713
v 157.166656 315.270081 127.422447
v 165.248276 307.416046 120.766243
v 157.371094 313.510651 124.654648
v 167.721237 328.438446 131.961624
v 158.460892 327.421783 129.130325
v 160.463684 319.382996 137.904144
v 160.284088 302.166443 124.661469
v 164.948227 303.728668 126.954514
v 157.361420 315.269348 124.647758
v 166.770050 307.363953 127.530396
v 166.668655 311.477600 135.388000
v 160.494797 319.293518 121.354912
v 165.321655 309.412537 136.378326
v 158.238266 327.433411 127.267052
v 158.788879 303.377563 123.486389
v 157.202026 307.258667 127.335907
v 166.441696 317.295593 125.512054
v 166.123001 305.994110 129.276749
v 158.431976 311.458771 131.606583
v 164.227127 326.391846 123.343819
v 164.902100 302.791321 125.558975
v 165.269684 305.375977 120.618996
v 157.179016 321.302307 125.666656
v 157.312851 325.489838 127.393738
v 162.601074 323.432037 121.359024
v 162.613159 328.122925 127.212624
v 167.032166 321.425293 135.865189
v 164.740097 317.750641 120.423531
v 162.641754 325.273529 121.562988
v 166.225418 307.377655 122.962807
v 166.607437 309.478302 125.266502
v 160.339554 329.538361 136.113190
v 160.448898 309.410248 121.248604
v 167.969406 323.472015 133.740356
v 164.057663 321.293854 121.770775
v 159.903580 311.357361 136.529129
v 162.624908 300.317200 121.997475
v 157.180481 319.368835 127.428146
v 159.263672 327.709625 135.923447
v 163.026398 313.509674 120.075523
v 158.255234 319.402954 123.129738
v 166.157089 321.417358 125.502792
v 157.698013 327.067047 127.315628
v 165.921173 327.558807 137.491302
v 162.610168 301.071320 123.265259
v 166.865372 328.164703 130.445969
v 168.035446 323.472076 131.582932
v 166.999130 309.409454 127.502510
v 162.077713 315.363037 120.351112
v 167.520126 321.419495 129.528458
v 166.134094 321.427063 137.241714
v 165.594025 317.806976 122.555466
v 159.732361 308.310272 135.092468
v 160.433929 313.509644 121.230003
v 167.043182 315.268341 127.490448
v 160.986145 311.541443 137.350784
v 163.097656 307.432922 120.056717
v 165.897293 302.510864 124.404007
v 164.146774 307.309875 120.177582
v 157.114044 317.318420 125.548035
v 165.633087 311.487274 136.671692
v 168.093353 317.318634 132.923599
v 166.074478 323.474274 125.511429
v 164.737778 315.335510 137.657257
v 167.127914 328.655975 131.635544
v 161.570145 329.302155 138.593460
v 161.924393 311.458954 120.359047
v 159.292374 325.649139 135.910919
v 161.399918 300.417023 121.578102
v 162.615707 328.792053 129.792984
v 165.996887 325.528656 137.513046
v 166.792496 317.332672 135.857468
v 162.597961 329.970734 136.065002
v 157.813721 311.522888 129.640244
v 167.568665 311.516418 133.437698
v 158.835556 321.420990 133.831406
v 165.754715 301.237732 121.431129
v 168.033600 313.299988 131.396606
v 167.992889 327.542969 132.918625
v 165.343124 330.011108 138.238861
v 160.709320 323.407684 121.742859
v 162.583694 317.457245 138.914124
v 162.569168 315.537170 138.285385
v 162.629776 313.555115 137.915497
v 161.491043 323.475769 138.825378
v 158.436981 307.361755 123.152962
v 166.080963 323.632629 137.358826
v 163.859375 299.065338 120.125229
v 165.470596 300.383148 121.459770
v 167.486755 309.462067 131.508011
v 162.624329 326.122742 121.971611
v 167.775314 327.529449 133.671829
v 159.310272 321.549408 135.895416
v 164.810715 307.936615 135.663025
v 158.092239 304.049927 126.787048
v 162.622757 319.354126 120.773804
v 165.088089 321.422333 138.229492
v 160.308212 327.494659 125.244057
v 157.144791 313.515503 127.415298
v 160.282898 306.127747 131.429886
v 167.673920 317.318176 129.769958
v 160.423447 327.565887 137.997147
v 157.248169 305.319061 125.539902
v 163.025116 311.460052 120.094200
v 160.441345 311.459412 121.239487
v 164.954575 300.346924 121.918243
v 162.716843 330.174225 137.513016
v 162.615158 306.305145 132.952133
v 157.223938 308.163666 127.849197
v 166.690918 323.481628 127.403412
v 162.663467 309.483887 137.576538
v 166.110489 309.316193 123.157310
v 165.947281 318.749908 124.035873
v 157.480988 305.425659 127.210732
v 159.210342 318.295441 121.979881
v 162.620209 329.150085 131.539352
v 167.023911 307.428070 131.412125
v 158.838211 317.319305 133.837402
v 162.627716 325.523224 139.133148
v 159.356674 329.540955 137.174622
v 159.230820 302.143677 123.722351
v 158.383850 321.423340 131.631943
v 164.955658 313.507721 121.035789
v 157.408905 307.363678 124.675308
v 162.625275 321.421906 139.111603
v 160.665359 326.237274 122.426476
v 157.740967 317.325623 129.593948
v 159.166809 327.592651 133.729446
v 157.196152 321.418945 127.426277
v 157.884857 325.496826 129.397552
v 160.488235 308.029297 135.679993
v 162.569305 330.022888 138.104019
v 164.886948 305.273407 129.592041
v 165.396332 330.016937 138.199005
v 160.115768 328.844666 131.717972
v 164.526245 299.773102 120.674187
v 168.154175 315.439667 131.780685
v 164.065491 329.314209 138.623077
v 158.382797 319.370789 131.640732
v 166.804962 327.460754 135.846909
v 164.932480 305.934814 131.488571
v 161.069443 300.601959 121.992477
v 159.603821 328.681732 134.509872
v 159.788589 313.527100 136.551056
v 162.609299 329.313446 138.774963
v 164.355896 311.526642 137.407196
v 158.504471 325.529846 131.588394
v 158.072495 307.353882 129.349854
v 165.976517 311.455109 123.049698
v 157.631439 326.789642 126.346275
v 157.355438 317.319244 124.636406
v 160.347763 317.304504 121.294556
v 162.567337 326.837402 123.164268
v 157.685669 325.459778 125.196609
v 162.616089 304.172974 128.151260
v 160.309143 305.184875 129.594894
v 162.051437 307.218567 120.353020
v 166.530869 315.274017 125.477364
v 159.310059 329.532227 137.115601
v 157.735352 319.366241 129.597610
v 158.411942 309.409149 123.127785
v 166.719925 321.433258 127.248428
v 158.565353 309.406158 131.574219
v 164.013336 311.460815 120.284332
v 165.260605 301.273102 120.695808
v 160.245773 328.418793 128.968079
v 167.914841 317.322876 133.711609
v 165.963150 325.355774 125.849472
v 166.260803 319.377502 125.453362
v 164.444580 301.203827 120.230255
v 165.450455 326.905945 126.403389
v 161.928131 313.508789 120.360786
v 165.138962 323.448059 123.181580
v 161.510635 321.419922 138.816177
v 160.470627 307.369232 121.287880
v 160.403595 323.499146 137.952209
v 168.078110 317.321930 131.569000
v 158.402008 311.459778 123.118347
v 163.389297 301.225983 120.167717
v 163.398056 316.811523 120.191628
v 164.929779 302.103882 124.627052
v 161.226807 309.528992 137.283142
v 167.352600 325.503937 129.604477
v 165.239944 321.406708 123.136917
v 168.138062 313.643616 132.051392
v 162.623184 307.593750 135.684692
v 165.921539 305.316406 121.363823
v 166.183960 305.359314 127.611237
v 163.824722 319.381805 138.897461
v 165.122147 327.571838 138.388199
v 165.794632 301.611908 122.684471
v 168.116379 323.471985 132.933029
v 165.714035 306.681976 121.258736
v 168.105423 313.662994 132.933670
v 164.724365 326.966553 125.466293
v 166.532288 313.533875 125.266830
v 167.375900 309.483429 129.863190
v 167.943375 319.372223 133.728882
v 158.530838 321.336945 123.122505
v 162.209991 305.304962 120.348564
v 158.972839 325.395874 123.333687
v 164.038208 309.394501 120.259743
v 165.107574 323.450287 138.283157
v 160.794815 315.269257 137.634552
v 159.184296 306.297607 130.575287
v 163.622665 299.332428 120.276062
v 165.921570 327.245483 127.824303
v 164.937042 306.793610 133.677673
v 162.615097 301.973053 124.725594
v 159.711075 303.277222 122.381935
v 162.410446 301.244751 120.592041
v 163.760025 318.107880 138.783798
v 164.981750 328.647156 129.815338
v 165.081924 319.322632 138.183868
v 165.909882 315.264252 123.058517
v 157.514145 304.062897 125.881989
v 168.083008 315.039246 131.172531
v 164.041840 299.035706 120.121445
v 166.746323 307.576599 133.435669
v 165.030975 309.378662 121.009499
v 158.418259 313.509857 131.613190
v 158.165253 304.774170 127.712349
v 157.126907 319.364075 125.551018
v 166.733749 315.276642 135.752319
v 159.337173 319.383667 135.936798
v 163.940720 325.375214 121.955170
v 157.385056 311.459595 124.661583
v 164.898056 301.199188 123.150757
v 163.836395 321.420593 138.922699
v 157.738724 323.468750 129.457886
v 167.639877 315.339935 129.595551
v 164.944077 306.410126 132.912125
v 167.478348 323.469757 129.549210
v 164.814087 329.612854 136.058029
v 164.923553 304.479462 127.990547
v 157.890884 309.404541 129.703278
v 159.588226 328.381042 133.074112
v 161.462082 325.524384 138.839127
v 160.789093 303.285187 121.347733
v 164.960846 311.454315 121.040207
v 166.552750 311.457428 125.180374
v 158.862518 313.509857 133.828461
v 166.052429 303.419830 125.348152
v 157.515808 305.375275 124.746155
v 160.287323 302.721985 125.628906
v 157.071472 309.407593 126.936501
v 167.857712 327.521515 131.672806
v 167.956238 325.520355 133.735916
v 162.625198 319.389038 139.084274
v 158.383545 313.511688 123.102386
v 163.858719 323.484833 138.931488
v 160.684479 317.290222 138.011612
v 160.430328 325.528351 138.020370
v 164.707932 313.520386 137.484848
v 159.241714 315.267883 135.657349
v 159.344131 311.464996 135.585464
v 160.775497 325.420135 121.962540
v 158.269638 326.885773 125.532333
v 160.564743 321.379181 121.628075
v 159.152557 326.425690 123.753471
v 162.627747 329.539368 133.869690
v 162.616043 305.784576 131.538834
v 158.516479 305.688629 129.001389
v 166.432983 309.579010 135.275269
v 165.613602 325.528809 125.150330
v 162.614365 328.597626 128.952484
v 162.256744 303.264252 120.421829
v 166.288742 305.368469 122.974716
v 167.885696 315.270691 133.690170
v 164.007477 323.457306 121.867310
v 158.788055 323.444336 123.159966
v 158.361465 315.274689 123.081131
v 167.023041 307.558350 129.811783
v 165.398621 329.962128 138.218246
v 160.363220 301.539795 122.891563
v 157.718109 315.321350 129.491974
v 166.079865 319.783295 137.192383
v 166.692535 313.513214 135.713440
v 162.631271 327.545776 139.081177
v 158.864471 325.523499 133.826385
v 159.270004 313.512665 135.634903
v 165.005173 325.453125 138.469330
v 160.430618 307.029755 133.617630
v 160.133392 309.515381 136.408661
v 167.583221 313.509674 129.503036
v 157.452896 321.716217 124.830269
v 158.330124 317.293823 123.006737
v 160.427200 315.269135 121.234238
v 157.069473 311.665588 127.137321
v 167.050949 311.459412 127.490646
v 162.624069 323.473145 139.121155
v 167.965912 321.421478 133.738434
v 166.169403 303.304199 123.040077
v 157.152527 307.357483 125.552605
v 159.289017 323.390533 135.913879
v 161.932632 309.409149 120.372749
v 168.112457 319.370483 132.930786
v 166.489212 325.510864 127.481804
v 158.895966 311.459930 133.822281
v 158.406708 315.265778 131.618927
v 157.390976 309.408630 124.664436
v 157.110519 315.267548 125.548538
v 162.648224 317.511658 120.437012
v 167.054855 313.510162 127.488884
v 164.753433 317.832306 120.475166
v 157.192947 309.408051 127.759041
v 159.470001 309.466980 135.475525
v 158.852539 315.268127 133.831055
# 424 vertices, 0 vertices normals

f 319 398 187
f 262 227 19
f 324 94 335
f 54 235 395
f 253 293 217
f 157 48 315
f 338 379 272
f 372 415 397
f 334 252 79
f 185 61 39
f 191 84 194
f 401 333 347
f 257 42 112
f 168 78 106
f 122 341 33
f 28 24 194
f 290 201 241
f 382 17 186
f 370 199 180
f 17 82 329
f 405 215 81
f 121 31 2
f 138 52 303
f 64 44 144
f 363 162 82
f 18 163 349
f 290 241 365
f 28 206 24
f 163 75 27
f 375 32 141
f 330 393 30
f 345 241 407
f 308 408 150
f 4 385 178
f 257 348 42
f 210 40 67
f 221 183 170
f 186 17 329
f 211 338 37
f 49 239 64
f 203 187 7
f 41 126 3
f 236 244 259
f 305 345 213
f 262 76 177
f 125 119 388
f 71 387 317
f 155 396 244
f 172 19 227
f 189 350 223
f 92 214 374
f 163 299 349
f 328 365 305
f 92 374 376
f 310 194 84
f 152 397 260
f 311 5 381
f 239 265 93
f 392 243 416
f 43 371 100
f 184 396 155
f 22 419 296
f 300 12 289
f 47 415 372
f 400 423 372
f 411 90 184
f 366 170 388
f 389 233 313
f 39 326 391
f 282 31 121
f 187 256 7
f 364 7 256
f 307 174 359
f 359 304 41
f 322 79 295
f 2 77 244
f 125 267 176
f 103 47 423
f 165 419 268
f 91 262 177
f 368 43 11
f 132 410 362
f 266 374 159
f 220 288 183
f 375 387 315
f 186 102 232
f 147 3 164
f 122 100 341
f 364 208 195
f 36 193 52
f 319 187 203
f 53 330 30
f 360 219 109
f 379 216 272
f 87 26 140
f 348 378 224
f 117 392 215
f 59 18 166
f 355 55 35
f 164 313 28
f 339 139 245
f 26 159 140
f 377 110 251
f 353 110 259
f 262 19 200
f 87 140 104
f 262 200 370
f 205 222 6
f 16 138 175
f 401 194 333
f 22 331 78
f 261 254 20
f 106 99 70
f 221 412 183
f 33 201 290
f 249 271 23
f 386 145 141
f 68 311 142
f 122 290 85
f 332 109 219
f 190 81 135
f 344 6 222
f 177 76 394
f 289 12 381
f 320 199 200
f 109 131 86
f 193 307 52
f 109 361 123
f 143 408 314
f 363 111 120
f 418 66 117
f 110 148 259
f 224 34 399
f 30 393 143
f 185 39 391
f 265 357 312
f 176 339 154
f 414 299 82
f 4 84 385
f 278 166 349
f 221 170 366
f 224 399 38
f 140 159 121
f 357 406 420
f 280 49 156
f 369 411 184
f 201 354 407
f 101 332 230
f 60 298 227
f 25 215 405
f 6 307 193
f 226 299 414
f 105 199 198
f 377 350 189
f 156 165 288
f 60 40 247
f 305 365 241
f 128 268 419
f 103 399 34
f 421 32 212
f 282 121 130
f 379 321 216
f 59 113 18
f 149 294 277
f 286 281 57
f 243 276 46
f 80 74 116
f 91 40 227
f 173 412 273
f 297 56 137
f 137 13 124
f 255 192 83
f 154 245 45
f 288 165 404
f 213 167 393
f 209 83 192
f 68 98 214
f 73 396 90
f 93 274 331
f 350 21 250
f 107 236 275
f 31 77 2
f 375 141 197
f 373 207 242
f 405 96 362
f 171 347 217
f 67 91 129
f 364 256 208
f 140 121 246
f 49 356 239
f 346 73 238
f 375 197 387
f 211 37 69
f 420 401 347
f 208 111 195
f 30 143 314
f 315 402 15
f 373 376 317
f 251 244 77
f 214 98 130
f 65 323 82
f 106 229 99
f 142 65 17
f 189 223 107
f 177 127 380
f 355 35 326
f 285 116 278
f 285 278 158
f 279 135 415
f 149 277 291
f 149 221 294
f 331 274 133
f 163 308 75
f 219 132 230
f 57 36 16
f 95 391 237
f 370 200 199
f 68 269 136
f 329 162 181
f 416 234 424
f 356 265 239
f 308 150 75
f 62 34 216
f 251 77 31
f 218 182 88
f 306 390 160
f 307 409 52
f 107 275 236
f 242 269 92
f 371 424 100
f 137 56 13
f 318 220 115
f 392 337 81
f 343 294 366
f 114 273 316
f 420 347 171
f 98 282 130
f 370 394 76
f 39 355 326
f 173 273 114
f 301 253 333
f 386 300 289
f 356 228 265
f 142 382 98
f 26 266 159
f 351 134 304
f 180 199 105
f 281 205 193
f 188 283 385
f 18 349 166
f 169 399 103
f 204 79 322
f 134 389 126
f 27 195 363
f 175 138 118
f 99 229 285
f 253 178 293
f 362 410 89
f 197 141 373
f 245 346 45
f 172 227 298
f 421 151 32
f 72 320 200
f 106 70 300
f 22 78 168
f 334 61 252
f 364 75 150
f 406 28 401
f 318 280 220
f 54 306 398
f 124 13 351
f 316 273 291
f 106 78 229
f 254 196 250
f 64 144 296
f 151 141 32
f 25 343 58
f 175 115 173
f 118 138 303
f 382 9 282
f 176 267 339
f 144 22 421
f 189 107 148
f 163 27 299
f 22 168 421
f 101 230 338
f 403 231 157
f 422 352 225
f 173 115 412
f 414 82 323
f 22 44 331
f 172 72 19
f 202 55 291
f 81 337 135
f 398 306 160
f 71 317 270
f 128 212 375
f 354 235 407
f 278 349 226
f 368 320 43
f 169 103 423
f 157 231 48
f 138 36 52
f 353 251 110
f 65 287 323
f 386 289 342
f 394 340 84
f 368 122 85
f 388 404 403
f 413 283 314
f 22 421 419
f 242 92 376
f 346 246 73
f 418 119 125
f 303 146 309
f 268 48 231
f 360 109 86
f 136 269 207
f 377 108 350
f 149 273 412
f 318 336 280
f 246 263 73
f 373 242 376
f 203 7 50
f 12 158 179
f 270 317 376
f 378 272 216
f 297 174 307
f 211 361 109
f 405 190 96
f 359 29 304
f 1 114 316
f 264 62 321
f 367 54 398
f 97 85 198
f 134 233 389
f 118 309 146
f 144 22 296
f 311 284 287
f 345 367 319
f 324 210 94
f 375 212 32
f 359 41 409
f 190 135 279
f 339 15 139
f 95 123 391
f 232 108 377
f 330 213 393
f 186 329 102
f 197 317 387
f 70 285 158
f 312 420 171
f 368 199 320
f 411 192 90
f 107 236 148
f 186 232 9
f 355 327 383
f 118 146 336
f 158 226 179
f 301 310 4
f 405 81 190
f 204 322 61
f 167 50 143
f 233 206 313
f 286 295 79
f 102 51 108
f 393 167 143
f 271 69 37
f 179 226 414
f 250 390 196
f 286 79 252
f 151 386 141
f 209 341 83
f 209 192 411
f 305 241 345
f 120 111 51
f 204 61 334
f 315 387 402
f 23 272 378
f 226 349 299
f 33 341 209
f 344 297 307
f 131 391 326
f 281 193 36
f 121 2 263
f 279 415 47
f 318 118 336
f 86 55 202
f 402 71 87
f 161 123 325
f 224 216 34
f 321 62 216
f 250 21 390
f 39 327 355
f 424 234 100
f 232 377 251
f 142 17 382
f 360 240 410
f 403 268 231
f 49 64 63
f 218 155 107
f 394 84 191
f 135 337 358
f 368 100 122
f 286 252 281
f 14 191 206
f 172 152 72
f 332 219 230
f 157 15 267
f 180 53 188
f 146 3 147
f 44 93 331
f 304 126 41
f 143 50 408
f 53 30 188
f 352 264 225
f 343 417 294
f 175 118 318
f 57 16 114
f 382 186 9
f 322 327 61
f 25 405 89
f 380 127 14
f 367 235 54
f 96 422 362
f 324 38 210
f 91 227 262
f 258 153 185
f 45 346 238
f 88 182 395
f 175 318 115
f 80 217 74
f 343 119 58
f 388 170 404
f 128 375 48
f 116 74 166
f 223 248 107
f 384 41 3
f 102 181 51
f 406 401 420
f 208 51 111
f 260 371 43
f 104 246 346
f 301 4 253
f 183 288 170
f 400 172 298
f 38 399 302
f 25 89 417
f 263 2 244
f 367 398 319
f 134 112 233
f 335 380 14
f 261 182 8
f 276 45 255
f 117 243 392
f 360 202 240
f 302 399 247
f 133 80 116
f 53 328 330
f 284 414 323
f 56 69 13
f 418 125 176
f 124 304 29
f 101 211 332
f 400 298 247
f 128 48 268
f 65 82 17
f 64 296 63
f 139 87 104
f 248 8 107
f 27 363 82
f 149 291 273
f 400 152 172
f 339 245 154
f 20 250 306
f 27 75 195
f 133 116 285
f 286 57 1
f 303 384 146
f 196 248 223
f 423 47 372
f 137 359 174
f 378 216 224
f 373 145 207
f 10 207 145
f 373 141 145
f 100 234 341
f 201 407 241
f 167 203 50
f 135 358 415
f 261 8 248
f 262 370 76
f 146 147 228
f 320 260 43
f 151 300 386
f 180 105 53
f 305 213 330
f 64 239 44
f 417 240 277
f 230 264 379
f 86 131 326
f 112 42 335
f 348 224 38
f 422 190 352
f 293 413 59
f 417 277 294
f 344 222 161
f 369 184 218
f 345 319 213
f 329 181 102
f 20 254 250
f 370 180 340
f 222 153 161
f 313 206 28
f 169 423 247
f 130 121 159
f 255 238 192
f 281 252 205
f 258 185 391
f 344 161 325
f 60 247 298
f 342 5 10
f 303 409 384
f 113 314 408
f 352 190 279
f 421 212 419
f 85 365 198
f 370 340 394
f 210 67 129
f 340 385 84
f 418 176 66
f 125 388 403
f 116 166 278
f 336 228 356
f 343 366 119
f 185 153 61
f 109 95 237
f 332 211 109
f 360 86 202
f 86 35 55
f 381 179 284
f 344 307 6
f 130 159 374
f 210 129 94
f 62 47 103
f 363 120 162
f 418 117 58
f 328 198 365
f 115 220 183
f 358 424 371
f 197 373 317
f 218 184 155
f 53 105 198
f 208 21 51
f 382 282 98
f 1 316 383
f 27 82 299
f 54 395 20
f 307 359 409
f 178 283 413
f 252 61 222
f 126 313 164
f 293 74 217
f 348 324 42
f 295 1 383
f 67 40 91
f 205 6 193
f 16 36 138
f 352 62 264
f 26 270 266
f 117 66 243
f 43 100 11
f 45 238 255
f 3 126 164
f 280 336 356
f 325 361 56
f 156 63 165
f 257 378 348
f 157 315 15
f 369 218 88
f 366 388 119
f 258 391 153
f 154 45 276
f 129 177 380
f 25 58 215
f 254 248 196
f 50 150 408
f 124 29 359
f 66 154 276
f 70 158 12
f 109 237 131
f 50 7 150
f 25 417 343
f 202 277 240
f 18 308 163
f 239 93 44
f 46 255 83
f 59 413 113
f 202 291 277
f 99 285 70
f 15 402 139
f 352 279 62
f 155 244 236
f 23 37 272
f 54 20 306
f 351 271 249
f 351 249 134
f 205 252 222
f 128 419 212
f 311 381 284
f 232 102 108
f 132 264 230
f 295 383 327
f 153 391 161
f 243 46 416
f 49 63 156
f 274 171 80
f 301 194 310
f 265 312 93
f 292 369 354
f 245 104 346
f 353 244 251
f 10 5 136
f 403 157 267
f 392 81 215
f 73 263 396
f 310 84 4
f 188 30 283
f 337 416 424
f 62 103 34
f 165 268 404
f 63 419 165
f 274 80 133
f 117 215 58
f 351 13 271
f 228 357 265
f 86 326 35
f 270 376 374
f 304 134 126
f 125 403 267
f 375 315 48
f 101 338 211
f 96 190 422
f 142 311 65
f 115 183 412
f 108 21 350
f 335 14 233
f 249 257 112
f 292 354 201
f 280 156 220
f 242 207 269
f 340 188 385
f 124 351 304
f 336 146 228
f 107 8 182
f 324 335 42
f 180 188 340
f 368 11 100
f 104 140 246
f 383 316 55
f 312 171 274
f 137 124 359
f 136 5 311
f 413 314 113
f 261 20 395
f 386 342 145
f 72 260 320
f 80 171 217
f 398 160 187
f 87 71 26
f 400 372 152
f 72 152 260
f 261 248 254
f 249 23 257
f 160 21 256
f 293 178 413
f 147 406 357
f 219 410 132
f 33 209 292
f 221 366 294
f 148 236 259
f 187 160 256
f 250 196 390
f 59 166 74
f 169 247 399
f 249 112 134
f 325 123 361
f 338 272 37
f 253 217 347
f 13 69 271
f 253 4 178
f 132 362 422
f 355 383 55
f 72 200 19
f 421 168 106
f 342 289 5
f 220 156 288
f 158 278 226
f 368 198 199
f 263 244 396
f 270 374 266
f 288 404 170
f 144 44 22
f 350 250 223
f 368 97 198
f 415 358 397
f 88 395 235
f 184 90 396
f 348 38 324
f 260 397 371
f 151 106 300
f 9 251 31
f 246 121 263
f 264 321 379
f 52 409 303
f 311 287 65
f 60 227 40
f 297 137 174
f 280 356 49
f 91 177 129
f 369 88 354
f 250 196 223
f 276 255 46
f 250 390 306
f 364 195 75
f 392 416 337
f 284 323 287
f 237 391 131
f 93 312 274
f 293 59 74
f 208 256 21
f 176 154 66
f 149 412 221
f 211 69 361
f 139 402 87
f 129 380 94
f 68 214 269
f 403 404 268
f 28 194 401
f 292 209 411
f 78 133 285
f 297 325 56
f 63 296 419
f 233 14 206
f 85 290 365
f 164 28 406
f 189 148 110
f 56 361 69
f 109 123 95
f 16 173 114
f 271 37 23
f 161 391 123
f 71 270 26
f 418 58 119
f 113 408 308
f 120 51 181
f 139 104 245
f 108 51 21
f 33 292 201
f 405 362 89
f 78 285 229
f 53 198 328
f 177 394 127
f 417 89 240
f 210 38 302
f 204 334 79
f 160 390 21
f 120 181 162
f 112 335 233
f 364 150 7
f 322 295 327
f 360 410 219
f 127 394 191
f 345 407 367
f 300 70 12
f 357 420 312
f 68 136 311
f 363 195 111
f 16 175 173
f 342 10 145
f 302 247 40
f 402 387 71
f 367 407 235
f 18 113 308
f 253 347 333
f 12 179 381
f 261 395 182
f 57 114 1
f 344 325 297
f 144 421 22
f 232 251 9
f 238 90 192
f 368 85 97
f 228 147 357
f 68 142 98
f 46 83 234
f 132 422 225
f 410 240 89
f 335 94 380
f 377 189 110
f 147 164 406
f 400 247 423
f 319 203 167
f 354 88 235
f 416 46 234
f 206 191 24
f 238 73 90
f 292 411 369
f 316 291 55
f 353 259 244
f 286 1 295
f 152 372 397
f 10 136 207
f 234 83 341
f 132 225 264
f 178 385 283
f 39 61 327
f 337 424 358
f 282 9 31
f 127 191 14
f 57 281 36
f 5 289 381
f 210 302 40
f 122 33 290
f 230 379 338
f 213 319 167
f 92 269 214
f 24 191 194
f 328 305 330
f 62 279 47
f 267 15 339
f 30 314 283
f 301 333 194
f 66 276 243
f 384 409 41
f 126 389 313
f 107 155 236
f 397 358 371
f 331 133 78
f 384 3 146
f 329 82 162
f 218 107 182
f 214 130 374
f 118 303 309
f 421 106 151
f 257 23 378
f 179 414 284
f 222 61 153
# 848 faces, 0 coords texture

# End of File