####
#
# OBJ File Generated by Meshlab
#
####
# Object domain0548.obj
#
# Vertices: 1338
# Faces: 2672
#
####
v 52.773136 51.076290 100.072510
v 52.936024 51.099091 99.775505
v 52.870159 50.712540 99.972878
v 52.762772 50.696709 100.999489
v 52.697460 51.057423 101.000351
v 52.827248 50.731186 101.972588
v 52.766911 51.065506 101.923805
v 53.003361 50.988964 102.280533
v 52.788319 51.447815 100.078743
v 52.945534 51.390163 99.840553
v 52.730965 51.477940 100.998802
v 52.786606 51.447945 101.919022
v 52.956814 51.387054 102.148888
v 52.887070 51.600117 100.079933
v 52.867146 51.776783 101.001045
v 52.888168 51.601395 101.922005
v 53.358780 48.779953 100.076614
v 53.506836 48.867271 99.849213
v 53.456291 48.687752 100.080482
v 53.462330 48.631611 101.001015
v 53.302105 48.771362 101.000320
v 53.456333 48.688793 101.921097
v 53.354763 48.779236 101.924538
v 53.497890 48.859131 102.162125
v 53.214115 49.271126 100.034744
v 53.437038 49.317547 99.588631
v 53.125992 49.238499 101.000366
v 53.207462 49.269878 101.968025
v 53.432705 49.312172 102.415764
v 53.322128 49.898640 99.106628
v 53.428986 50.058983 98.946053
v 53.374390 49.737904 99.170738
v 53.062054 49.816380 100.004684
v 52.991951 49.805126 100.999458
v 53.055500 49.815739 101.998100
v 53.373825 49.726582 102.834190
v 53.309975 49.895607 102.901154
v 53.423988 50.048000 103.071953
v 53.305225 50.335136 99.146080
v 53.509151 50.240623 98.907494
v 52.932091 50.349140 100.002899
v 52.859337 50.327702 101.000183
v 52.933125 50.365959 102.034622
v 53.300388 50.319000 102.909004
v 53.491863 50.239067 103.110764
v 53.412285 50.567127 99.112877
v 53.262772 50.955360 99.448647
v 53.337334 50.581078 102.833290
v 53.337444 51.033367 102.579239
v 53.371021 51.497601 99.676140
v 53.369579 51.498962 102.327110
v 53.313972 51.881233 100.023224
v 53.128704 52.030880 101.000076
v 53.361649 52.087650 100.516785
v 53.361717 52.087383 101.483459
v 53.313591 51.885883 101.978073
v 53.437782 52.187363 101.000145
v 53.824577 48.855644 99.802582
v 53.846813 48.645969 100.099174
v 53.912354 48.525520 100.998955
v 53.846649 48.642117 101.902718
v 53.824917 48.853958 102.198967
v 53.908466 49.244144 99.541016
v 53.908428 49.243450 102.460197
v 53.608345 49.849323 99.044022
v 53.985615 49.641754 99.258034
v 53.608322 49.844250 102.959526
v 53.986855 49.640289 102.743958
v 53.927357 50.393757 98.889709
v 53.941559 50.047466 98.981590
v 53.938847 50.045193 103.018692
v 53.924137 50.397415 103.105782
v 53.891743 50.735535 98.992905
v 53.829216 51.141666 99.263771
v 53.897236 50.734821 103.003952
v 53.829716 51.144207 102.740250
v 53.913956 51.563725 99.506798
v 53.913193 51.565292 102.495728
v 53.656307 52.067173 100.046951
v 54.007076 51.951797 99.780205
v 53.652863 52.076962 101.956612
v 54.005516 51.954189 102.221962
v 53.990822 52.171730 100.093597
v 53.934895 52.325546 101.001350
v 53.988003 52.177929 101.909996
v 54.177597 48.709461 100.043427
v 54.510159 48.635742 100.477196
v 54.452511 48.561996 100.999748
v 54.178959 48.701839 101.956810
v 54.512501 48.634308 101.520981
v 54.471394 49.262352 99.624741
v 54.523750 48.882702 99.981689
v 54.522217 48.881454 102.019417
v 54.472145 49.262012 102.375130
v 54.506336 49.685726 99.307198
v 54.506523 49.685745 102.692574
v 54.511173 50.515850 98.815529
v 54.498379 50.100471 99.001511
v 54.495777 50.102558 102.997833
v 54.513573 50.516659 103.183311
v 54.209049 50.973034 99.010040
v 54.601437 50.790821 98.830048
v 54.208702 50.975273 102.989716
v 54.600647 50.790836 103.170403
v 54.534096 51.187435 99.063583
v 54.473724 51.600185 99.383736
v 54.534634 51.187901 102.936592
v 54.473213 51.600517 102.616226
v 54.510204 51.998093 99.715065
v 54.509724 51.998692 102.285469
v 54.512661 52.252918 100.066170
v 54.504875 52.424149 101.000580
v 54.510521 52.254063 101.934708
v 55.037853 48.750488 100.552177
v 54.991642 48.651817 101.000504
v 55.040066 48.754177 101.444595
v 55.081928 49.322998 99.658989
v 55.101418 48.958221 100.048103
v 55.097847 48.961346 101.950912
v 55.082993 49.324463 102.339516
v 55.084320 49.706814 99.336914
v 55.084339 49.706863 102.663002
v 55.084686 50.528419 98.792465
v 55.083641 50.111881 99.010971
v 55.083481 50.112343 102.988655
v 55.084927 50.528484 103.207787
v 55.097763 50.842945 98.794281
v 55.097641 50.843246 103.206406
v 55.086178 51.250984 99.026680
v 55.083397 51.657299 99.353767
v 55.086662 51.250992 102.973938
v 55.082951 51.656956 102.646446
v 55.085674 52.032124 99.678688
v 55.084705 52.031399 102.321220
v 55.092014 52.312107 100.053787
v 55.048401 52.559669 100.999863
v 55.091839 52.310848 101.944351
v 55.324242 48.724236 100.996849
v 55.668297 49.345997 99.678833
v 55.662956 49.065422 100.055161
v 55.705608 48.818264 101.002571
v 55.661148 49.067669 101.945663
v 55.669304 49.346451 102.321320
v 55.670609 49.720707 99.353775
v 55.671047 49.721039 102.646454
v 55.656242 50.535049 98.794273
v 55.667812 50.127010 99.026688
v 55.667347 50.127022 102.973923
v 55.656345 50.534740 103.206398
v 55.669308 50.849583 98.792473
v 55.669094 50.849514 103.207779
v 55.670353 51.266113 99.010971
v 55.669678 51.671192 99.336922
v 55.670525 51.265656 102.988670
v 55.669643 51.671127 102.663017
v 55.672077 52.055000 99.659004
v 55.671001 52.053562 102.339531
v 55.652584 52.419788 100.048058
v 55.429726 52.653862 100.996765
v 55.716145 52.627514 100.552162
v 55.713974 52.623791 101.444572
v 55.656128 52.416691 101.950905
v 55.762360 52.726185 101.000488
v 56.243813 49.379841 99.714996
v 56.243221 49.124516 100.065414
v 56.249046 48.953865 100.999451
v 56.241653 49.124481 101.933838
v 56.244251 49.379398 102.285408
v 56.280243 49.777748 99.383743
v 56.280785 49.777481 102.616219
v 56.152576 50.587185 98.830086
v 56.219883 50.190559 99.063568
v 56.219360 50.190094 102.936592
v 56.153568 50.587234 103.170517
v 56.242748 50.862057 98.816017
v 56.240040 50.861160 103.182381
v 56.255619 51.277531 99.001503
v 56.247543 51.692596 99.306717
v 56.258324 51.275391 102.997826
v 56.247345 51.692558 102.692986
v 56.281784 52.118034 99.621101
v 56.281017 52.118366 102.378777
v 56.230255 52.495304 99.981674
v 56.243771 52.743603 100.476906
v 56.231808 52.496605 102.019485
v 56.241516 52.743694 101.521011
v 56.302063 52.826290 100.999962
v 56.747398 49.425934 99.779755
v 56.763878 49.206306 100.092438
v 56.819057 49.052402 100.999245
v 56.765369 49.200069 101.908936
v 56.748688 49.424084 102.221893
v 56.841347 49.811535 99.502441
v 56.841454 49.811306 102.497932
v 56.546234 50.403202 99.006546
v 56.928108 50.222244 99.243401
v 56.546600 50.400597 102.993080
v 56.928661 50.221973 102.757347
v 56.841988 50.981995 98.890289
v 56.872044 50.630676 98.976944
v 56.866814 50.630131 103.021873
v 56.841991 50.982002 103.102661
v 56.811954 51.333302 98.976936
v 56.755909 51.741756 99.243408
v 56.817188 51.333870 103.021881
v 56.755352 51.742031 102.757317
v 56.842690 52.152359 99.502594
v 56.842598 52.152584 102.497772
v 56.575741 52.673302 100.041023
v 56.936016 52.539299 99.778709
v 56.574261 52.683086 101.959564
v 56.934765 52.541138 102.222839
v 56.916759 52.764523 100.094124
v 56.856464 52.920609 101.000900
v 56.915443 52.769482 101.910500
v 57.100632 49.306709 100.043655
v 57.402596 49.275513 100.512848
v 57.322060 49.180046 101.000496
v 57.104156 49.296909 101.959305
v 57.407909 49.273415 101.488541
v 57.401062 49.850105 99.626900
v 57.463860 49.469463 100.007347
v 57.460903 49.466564 101.993996
v 57.403214 49.849895 102.371506
v 57.436592 50.271324 99.306816
v 57.436787 50.271389 102.692863
v 57.441242 51.101936 98.816017
v 57.428375 50.686474 99.001511
v 57.425678 50.688614 102.997818
v 57.443951 51.102825 103.182396
v 57.137764 51.560806 99.006531
v 57.531422 51.376812 98.830078
v 57.137398 51.563416 102.993073
v 57.530434 51.376770 103.170494
v 57.464119 51.773438 99.063576
v 57.403774 52.186249 99.383751
v 57.464626 51.773891 102.936584
v 57.403214 52.186508 102.616203
v 57.439980 52.584152 99.714851
v 57.439735 52.584675 102.285431
v 57.440910 52.824127 100.068176
v 57.430927 52.962444 100.999329
v 57.439991 52.825497 101.931511
v 57.677742 49.280899 100.995827
v 58.010040 49.919392 99.667900
v 58.007885 49.618622 100.043503
v 58.056862 49.380028 101.003792
v 58.004364 49.620579 101.958336
v 58.012497 49.920368 102.333176
v 58.014194 50.295315 99.340294
v 58.014206 50.295265 102.659737
v 58.015488 51.113846 98.791092
v 58.013851 50.695938 99.008568
v 58.013699 50.696404 102.991028
v 58.015656 51.113991 103.208954
v 58.027973 51.429298 98.793327
v 58.027859 51.429600 103.207352
v 58.016174 51.836994 99.026703
v 58.013393 52.243309 99.353767
v 58.016647 51.836987 102.973915
v 58.012936 52.242950 102.646439
v 58.014599 52.607548 99.686646
v 58.014587 52.607548 102.313324
v 58.015358 52.844791 100.063309
v 58.013992 52.990986 100.999947
v 58.015247 52.845135 101.936752
v 58.599670 49.939442 99.683983
v 58.601295 49.660568 100.051643
v 58.599991 49.456257 101.000015
v 58.598278 49.665268 101.946693
v 58.600113 49.939785 102.315895
v 58.599854 50.295910 99.341049
v 58.600021 50.298126 102.656380
v 58.600262 51.112053 98.780830
v 58.600166 50.695347 99.007744
v 58.599789 50.699242 102.987495
v 58.599857 51.112289 103.218666
v 58.600864 51.437740 98.781128
v 58.600178 51.437374 103.217972
v 58.600197 51.850727 99.012566
v 58.599983 52.251884 99.343605
v 58.600018 51.848778 102.985039
v 58.599979 52.251564 102.656052
v 58.599998 52.610081 99.684120
v 58.600033 52.610188 102.315971
v 58.600002 52.850204 100.061844
v 58.599991 52.991432 101.000000
v 58.600002 52.850212 101.938164
v 59.186409 49.911118 99.657021
v 59.195145 49.619999 100.041557
v 59.145184 49.385315 100.997719
v 59.191116 49.649357 101.945511
v 59.187042 49.930489 102.322784
v 59.180836 50.283783 99.326447
v 59.187515 50.306965 102.646370
v 59.189438 51.106190 98.771393
v 59.185715 50.680626 98.992928
v 59.182690 50.714886 102.971748
v 59.171085 51.118286 103.208397
v 59.186081 51.438671 98.779182
v 59.170639 51.430386 103.205765
v 59.186016 51.852882 99.009903
v 59.186005 52.252110 99.343353
v 59.183231 51.834568 102.970207
v 59.186459 52.242916 102.645798
v 59.185997 52.610088 99.684120
v 59.185665 52.608414 102.314560
v 59.185989 52.850216 100.061829
v 59.186008 52.990978 101.000053
v 59.184628 52.844948 101.936798
v 59.528946 49.296349 100.998749
v 59.794247 49.281662 100.512695
v 59.874302 49.212765 100.985596
v 59.815987 49.342316 101.445129
v 59.785793 49.827103 99.591530
v 59.736504 49.459919 99.999802
v 59.750961 49.565765 101.938644
v 59.771458 49.929161 102.315239
v 59.691517 50.228405 99.264999
v 59.805813 50.364365 102.622200
v 59.811359 51.052109 98.741386
v 59.739990 50.613705 98.953247
v 59.716721 50.797531 102.907295
v 59.589424 51.146725 103.139343
v 59.775253 51.439262 98.767792
v 59.588390 51.401512 103.136627
v 59.771996 51.852558 99.010345
v 59.771984 52.252098 99.343338
v 59.717060 51.751564 102.906601
v 59.798588 52.176498 102.610176
v 59.771545 52.608234 99.685883
v 59.760777 52.585526 102.287285
v 59.770752 52.845036 100.063225
v 59.771114 52.975468 101.000252
v 59.758900 52.824001 101.932007
v 60.094772 49.294010 100.037643
v 60.442894 49.407612 99.741684
v 60.435513 49.206188 100.086830
v 60.372707 49.130650 100.967117
v 60.365513 49.265129 101.481010
v 60.339737 49.785267 99.398598
v 60.360050 49.548370 101.972878
v 60.357796 49.925789 102.301208
v 60.065155 50.396000 99.000542
v 60.449757 50.577438 98.776512
v 60.392361 50.179981 99.050468
v 60.360424 50.393246 102.514244
v 60.375130 50.996548 98.663582
v 59.947716 51.033592 102.899185
v 60.408169 50.945347 102.662483
v 60.359684 51.436386 98.742538
v 59.947399 51.516064 102.898941
v 60.401627 51.598969 102.647079
v 60.357956 51.856071 99.005692
v 60.358032 52.243855 99.352707
v 60.348145 52.139641 102.461708
v 60.350403 52.596382 99.697594
v 60.262733 52.537357 102.216927
v 60.344532 52.819149 100.068352
v 60.350548 52.939114 100.995819
v 60.284000 52.768589 101.906609
v 60.955364 49.340096 99.655014
v 60.958721 49.136517 100.058220
v 60.967716 49.052917 100.985840
v 60.920765 49.185371 101.531807
v 60.877010 49.673843 99.302956
v 60.918434 49.467045 102.018944
v 60.978153 49.877937 102.310730
v 60.987434 50.470741 98.706520
v 60.917175 50.039669 98.966553
v 60.944168 50.399197 102.473389
v 60.949436 50.978966 98.615341
v 60.947834 50.981628 102.532959
v 60.944115 51.440334 98.728752
v 60.944035 51.567966 102.499832
v 60.943348 51.845474 99.016914
v 60.945000 52.222202 99.383553
v 60.910950 52.093151 102.327919
v 60.865379 52.555378 99.737450
v 60.625240 52.675014 101.959801
v 60.969223 52.493465 102.014580
v 60.957870 52.752632 101.522606
v 60.867886 52.764557 100.084244
v 60.909031 52.862625 100.986115
v 61.512718 49.317070 99.533516
v 61.535072 49.075684 100.041817
v 61.534359 48.956448 100.997894
v 61.602623 49.180172 101.911430
v 61.262173 49.286854 101.960228
v 61.627052 49.435165 102.200912
v 61.242256 49.821075 99.013695
v 61.621830 49.999687 98.784523
v 61.578285 49.639565 99.088097
v 61.541576 49.835419 102.387993
v 61.542683 50.421440 98.617950
v 61.530426 50.397419 102.478226
v 61.531338 50.972858 98.581375
v 61.530003 50.981991 102.499794
v 61.529984 51.438404 98.726997
v 61.529358 51.560444 102.446449
v 61.528366 51.829071 99.028549
v 61.511246 52.209797 99.491096
v 61.525253 52.028065 102.275337
v 61.575020 52.526611 99.979561
v 61.210083 52.674774 100.034065
v 61.509140 52.684223 100.511742
v 61.544022 52.410019 101.945587
v 61.487392 52.637238 101.451103
v 61.429306 52.761101 100.986694
v 62.115612 49.225952 99.500557
v 62.115276 48.982986 100.015480
v 62.081413 48.823395 100.996864
v 62.134151 49.092583 101.934853
v 62.129414 49.380890 102.247154
v 62.128479 49.942532 98.731903
v 62.126125 49.562939 99.036942
v 62.117760 49.822609 102.425079
v 62.118156 50.407249 98.577988
v 62.115997 50.396141 102.493889
v 62.116013 50.973095 98.566246
v 62.116009 50.981853 102.493904
v 62.116009 51.437653 98.727829
v 62.114227 51.555405 102.425125
v 62.115459 51.811966 99.039406
v 62.116234 52.146084 99.504379
v 62.102375 51.997185 102.247192
v 62.115536 52.390709 100.017036
v 61.774033 52.669342 100.999802
v 62.149887 52.555119 100.998085
v 62.097549 52.288067 101.936104
v 62.458942 48.710339 100.998734
v 62.720703 48.686127 100.510071
v 62.804440 48.626274 100.985794
v 62.746258 48.759541 101.443878
v 62.657509 49.118008 99.437592
v 62.650394 48.834602 99.969238
v 62.682693 48.990669 101.931183
v 62.703430 49.358421 102.265121
v 62.737068 49.877934 98.691170
v 62.675476 49.458569 98.973549
v 62.702000 49.818619 102.440216
v 62.704403 50.399929 98.550819
v 62.702011 50.396137 102.493904
v 62.702068 50.973022 98.566223
v 62.701363 50.980747 102.477959
v 62.702011 51.437653 98.727875
v 62.690418 51.542595 102.387978
v 62.702003 51.810413 99.040146
v 62.701942 52.120495 99.516869
v 62.604950 51.942799 102.200867
v 62.701084 52.324062 100.032776
v 62.696293 52.422298 100.996361
v 62.629234 52.197445 101.911072
v 63.012394 48.679657 100.013924
v 63.341816 48.764618 99.570023
v 63.358013 48.575001 100.065308
v 63.304409 48.544586 100.965927
v 63.293259 48.696808 101.471954
v 63.008114 49.247250 99.020935
v 63.380905 49.409943 98.778290
v 63.344620 49.056042 99.082283
v 63.287525 48.983917 101.957146
v 63.287983 49.353764 102.272949
v 63.299904 49.834209 98.610176
v 63.288013 49.818752 102.439835
v 63.288788 50.396954 98.528130
v 63.287945 50.396069 102.487900
v 63.288006 50.973244 98.560242
v 63.285740 50.978355 102.455231
v 63.287361 51.436527 98.729782
v 63.252377 51.499748 102.308792
v 63.287468 51.808033 99.042091
v 63.287544 52.114368 99.519646
v 62.969826 52.091057 101.960205
v 63.312222 51.908268 102.016586
v 63.311123 52.192265 101.531654
v 63.286942 52.290661 100.035637
v 63.264824 52.334225 100.985962
v 63.855522 48.602913 99.472641
v 63.898373 48.430222 100.009224
v 63.879097 48.446136 100.971924
v 63.874599 48.638577 101.499588
v 63.919064 49.299110 98.706192
v 63.860020 48.892002 98.990463
v 63.876762 48.957516 101.977631
v 63.877220 49.346237 102.282562
v 63.877785 49.815903 98.557938
v 63.874233 49.818607 102.440033
v 63.874065 50.395927 98.512093
v 63.874001 50.396004 102.487923
v 63.872425 50.970406 98.572296
v 63.872066 50.970596 102.427780
v 63.863689 51.427883 98.742012
v 63.860954 51.435646 102.267517
v 63.866722 51.787167 99.057762
v 63.867126 52.085526 99.533936
v 63.862930 51.810253 101.959015
v 63.864040 52.106968 101.476875
v 63.862251 52.253746 100.040009
v 63.863510 52.264923 100.962349
v 64.176666 48.645576 99.018867
v 64.578606 48.763920 98.752075
v 64.505714 48.409447 99.051483
v 64.400085 48.203892 99.996567
v 64.420677 48.270050 101.009033
v 64.419220 48.538151 101.557793
v 64.475723 49.240391 98.596939
v 64.431870 48.871349 102.027733
v 64.494957 49.291058 102.311081
v 64.461365 49.810528 98.521843
v 64.462250 49.813644 102.455238
v 64.459366 50.394749 98.522034
v 64.459412 50.394817 102.472000
v 64.448753 50.957809 98.609360
v 64.447968 50.956764 102.387535
v 64.367332 51.375351 98.788017
v 64.366333 51.374836 102.211609
v 64.406860 51.720287 99.095879
v 64.399307 51.999538 99.582680
v 64.403534 51.715752 101.902809
v 64.399185 52.002617 101.417885
v 64.368378 52.174118 100.050720
v 64.369507 52.174881 100.949333
v 64.827965 48.128407 99.041458
v 65.162933 48.162128 98.721161
v 65.126503 47.836216 99.036385
v 65.041428 47.753548 99.999626
v 64.726486 48.014736 100.000420
v 65.112816 47.831478 100.974960
v 64.774696 48.073322 100.990883
v 65.121407 48.126274 101.430107
v 65.065742 48.650955 98.562973
v 65.095001 48.472046 101.910812
v 64.769524 48.669292 101.974503
v 65.139076 48.830269 102.212059
v 65.047157 49.224068 98.489410
v 65.057243 49.248215 102.390572
v 65.047112 49.808819 98.486923
v 65.046547 49.811180 102.472000
v 65.043991 50.392151 98.544312
v 65.041649 50.389385 102.438484
v 65.010963 50.914055 98.691139
v 65.001762 50.906445 102.295700
v 65.072304 51.332664 98.974342
v 64.736160 51.536488 99.026360
v 65.085327 51.662743 99.445183
v 64.736519 51.537426 101.972786
v 65.064064 51.317825 102.012390
v 65.081100 51.651264 101.548622
v 64.700371 52.068794 100.018555
v 65.075012 51.912117 99.997360
v 64.704033 52.073589 100.984352
v 65.074104 51.909527 100.999847
v 65.391579 47.516171 99.018051
v 65.680580 47.526588 98.549561
v 65.645988 47.190975 99.007591
v 65.632507 47.159878 100.020050
v 65.347076 47.473057 100.002380
v 65.723518 47.387421 100.937187
v 65.429260 47.584843 100.955833
v 65.723175 47.645557 101.260414
v 65.566017 48.058800 98.391594
v 65.640739 48.007717 101.589119
v 65.530312 48.641712 98.322380
v 65.634888 48.383087 101.958809
v 65.641609 48.774693 102.260941
v 65.575119 49.265102 98.321091
v 65.632797 49.236454 102.422729
v 65.623779 49.818645 98.429527
v 65.628487 49.807491 102.454361
v 65.633774 50.383976 98.553833
v 65.610786 50.365208 102.372498
v 65.619827 50.849457 98.731865
v 65.531738 50.798084 102.216797
v 65.620796 51.225407 99.039696
v 65.625221 51.537029 99.515556
v 65.582077 51.163982 101.921852
v 65.638229 51.486305 101.474030
v 65.616295 51.731110 100.031181
v 65.613174 51.718487 100.964119
v 66.111008 46.381104 99.022705
v 66.266342 46.321537 98.514473
v 66.297386 46.059956 99.012291
v 66.348793 46.100414 99.955605
v 66.160095 46.392883 99.944641
v 66.372490 46.384571 100.287506
v 66.148369 46.953091 98.085297
v 66.420074 46.975964 97.787506
v 66.293289 46.621796 98.042923
v 65.841370 46.857880 98.990181
v 65.878830 46.856159 100.001266
v 66.181480 46.829094 100.544319
v 65.989418 47.458172 98.072044
v 66.362450 47.477684 97.748726
v 66.181168 47.120949 100.989891
v 66.252121 47.525387 101.345985
v 65.947578 48.048546 98.029572
v 66.345352 48.052105 97.725510
v 66.222923 47.957966 101.651039
v 65.941956 48.634747 98.019043
v 66.357056 48.624542 97.748100
v 66.214752 48.369236 101.973602
v 66.205078 48.778225 102.249825
v 66.027649 49.173008 98.084518
v 66.390717 49.050888 97.838860
v 66.200813 49.236263 102.378525
v 66.268585 49.413975 98.084183
v 66.180008 49.859417 98.340820
v 66.186081 49.789108 102.368408
v 66.212418 50.371136 98.567223
v 66.098000 50.276070 102.248489
v 66.126106 50.790943 98.782539
v 65.900597 50.948071 101.961479
v 66.205856 50.675835 101.982361
v 66.264053 51.023018 101.633759
v 66.163361 51.131771 99.097450
v 66.148537 51.405193 99.587242
v 66.129486 51.395264 101.280579
v 66.120926 51.584873 100.050903
v 66.117500 51.573856 100.936066
v 66.735382 45.804680 98.067780
v 66.995041 45.813671 97.775383
v 66.929153 45.512161 98.050934
v 66.820816 45.432014 98.998306
v 66.545441 45.748219 98.987808
v 66.887093 45.498055 99.959061
v 66.604919 45.798512 99.955673
v 66.916008 45.820885 100.282578
v 66.483543 46.276188 98.018547
v 66.871407 46.334358 97.668732
v 66.799538 46.283005 100.581917
v 66.829697 46.887142 97.571388
v 66.838539 46.671185 100.937675
v 66.527992 46.908463 100.975922
v 66.894417 47.058655 101.232292
v 66.816208 47.463856 97.553688
v 66.810524 47.490639 101.431290
v 66.813782 48.050972 97.564667
v 66.842949 48.001938 101.658913
v 66.817558 48.624329 97.606178
v 66.752769 48.447433 101.915283
v 66.629593 48.810791 102.158722
v 66.817039 49.082962 97.751701
v 66.653954 49.226341 102.235901
v 66.806007 49.492043 98.027863
v 66.800301 49.904419 98.349083
v 66.613930 49.710865 102.207085
v 66.770927 50.334751 98.658287
v 66.497955 50.383968 101.982376
v 66.772804 50.079632 101.962448
v 66.854408 50.449051 101.642441
v 66.825668 50.727070 99.015610
v 66.481461 50.930489 99.037437
v 66.793121 50.967945 99.506348
v 66.723289 50.900478 101.326134
v 66.420525 51.445374 100.027702
v 66.744911 51.213371 100.012314
v 66.408180 51.429066 100.955750
v 66.717712 51.185894 100.963135
v 67.191536 45.213074 98.047539
v 67.510963 45.241627 97.736877
v 67.475418 44.914421 98.043854
v 67.399818 44.838837 98.999992
v 67.107162 45.132137 99.000000
v 67.475487 44.914486 99.956039
v 67.182419 45.207497 99.956131
v 67.508430 45.241131 100.265488
v 67.407791 45.721020 97.535240
v 67.384567 45.704712 100.506996
v 67.354370 46.271355 97.382622
v 67.304695 46.133957 100.739822
v 67.344772 46.916515 97.350853
v 67.357933 46.516273 101.043007
v 67.435181 46.955101 101.291855
v 67.381424 47.474152 97.429916
v 67.389786 47.473484 101.454933
v 67.391533 48.050617 97.493217
v 67.398071 48.043934 101.564835
v 67.388847 48.624367 97.580482
v 66.992493 48.689133 101.913628
v 67.439369 48.599899 101.658798
v 67.380592 49.087555 97.738876
v 67.057335 49.223793 101.957703
v 67.475517 49.220173 101.639290
v 67.384552 49.477982 98.040489
v 67.383156 49.852390 98.411194
v 66.994263 49.767097 101.920860
v 67.384552 49.812168 101.563812
v 67.302032 50.213867 98.738602
v 67.294243 50.304668 101.312492
v 67.291611 50.467518 99.061279
v 67.053421 50.936741 100.010773
v 67.358788 50.665764 99.983818
v 67.018379 50.903225 100.966095
v 67.309937 50.608875 100.963547
v 67.768494 44.621490 98.043945
v 68.094452 44.654472 97.733894
v 68.061485 44.328495 98.043945
v 67.985825 44.252834 98.999992
v 67.692825 44.545837 98.999985
v 68.061493 44.328495 99.956070
v 67.768501 44.621490 99.956070
v 68.094452 44.654453 100.266083
v 67.977623 45.123634 97.502884
v 67.977951 45.123955 100.496559
v 67.873444 45.611656 97.292900
v 67.871964 45.603764 100.713852
v 67.787979 46.331879 97.083511
v 68.180122 46.386314 96.828362
v 67.999199 46.017521 97.029144
v 67.973244 45.997982 101.005028
v 67.669853 46.276882 101.021851
v 68.092728 46.419193 101.234444
v 67.800400 46.826500 97.102692
v 68.150414 46.705193 96.865120
v 67.987183 46.895905 101.359528
v 68.029274 47.055489 97.102440
v 67.938446 47.518501 97.330734
v 67.965538 47.468437 101.419937
v 67.974815 48.049816 97.495491
v 67.963737 48.054150 101.446274
v 67.955902 48.607479 97.622368
v 67.951103 48.632378 101.432602
v 67.873116 49.028107 97.798630
v 67.915291 49.190094 101.341354
v 67.919098 49.379196 98.099274
v 67.893936 49.725697 98.577347
v 67.787315 49.714046 101.248970
v 67.899292 50.022648 99.026756
v 67.591064 50.277557 99.047836
v 67.665657 50.377850 100.000488
v 67.958450 50.086273 99.999252
v 67.594482 50.310493 100.960358
v 67.853638 50.006912 100.949875
v 68.354485 44.035496 98.043930
v 68.682625 44.070599 97.737717
v 68.647507 43.742496 98.043961
v 68.571831 43.666828 99.000008
v 68.278824 43.959827 98.999992
v 68.647491 43.742496 99.956070
v 68.354492 44.035496 99.956062
v 68.682617 44.070599 100.262299
v 68.563690 44.537678 97.502983
v 68.563698 44.537678 100.497032
v 68.457809 45.017818 97.285965
v 68.457825 45.017818 100.714027
v 68.271896 45.710663 97.004898
v 68.690025 45.832638 96.785080
v 68.561951 45.414944 96.999924
v 68.562012 45.415009 101.000008
v 68.269020 45.708023 100.999954
v 68.688484 45.834496 101.214485
v 68.575050 46.280804 96.722778
v 68.568573 46.303490 101.299683
v 68.468857 46.674137 96.831314
v 68.491089 46.843605 101.280533
v 68.524239 47.071419 97.079231
v 68.587540 47.510040 97.361702
v 68.442200 47.463196 101.285744
v 68.542503 48.031876 97.575264
v 68.422318 48.041859 101.258492
v 68.439430 48.513554 97.754639
v 68.370827 48.546085 101.217293
v 68.525856 48.892941 98.038376
v 68.217529 49.157196 98.054634
v 68.529175 49.189152 98.518982
v 68.307030 49.245655 100.984344
v 68.510551 48.901478 100.962601
v 68.547974 49.213127 100.493675
v 68.206436 49.746590 99.021744
v 68.508743 49.464699 99.011429
v 68.246590 49.779537 100.016167
v 68.518410 49.475029 99.989166
v 68.046951 49.711334 100.938087
v 68.940575 43.449635 98.043938
v 69.273575 43.491779 97.749649
v 69.239784 43.166534 98.047981
v 69.158401 43.081364 98.999908
v 68.864830 43.373825 98.999962
v 69.239082 43.165539 99.952461
v 68.940414 43.449417 99.956116
v 69.273476 43.491650 100.250519
v 69.155701 43.957981 97.520889
v 69.155724 43.958008 100.479027
v 69.050987 44.434143 97.293243
v 69.051201 44.433941 100.706879
v 68.854958 45.121971 96.999954
v 69.273170 45.250057 96.786766
v 69.150764 44.832012 97.005043
v 69.150681 44.831917 100.995102
v 68.854950 45.121956 101.000084
v 69.273041 45.249851 101.213631
v 69.147911 45.708054 96.712631
v 69.147728 45.708252 101.286385
v 69.023232 46.165741 96.785477
v 69.019157 46.176659 101.217888
v 69.145180 46.583912 97.005150
v 68.838310 46.857288 97.030334
v 69.244881 46.981934 97.293251
v 68.939850 46.915459 101.060432
v 69.168037 46.601727 101.024857
v 69.319046 46.971333 100.756104
v 69.139282 47.456776 97.523346
v 68.856186 47.464336 100.998817
v 69.238693 47.473286 100.639252
v 69.025009 47.929283 97.746048
v 68.800346 48.043732 100.953278
v 69.168968 48.022495 100.482430
v 69.098869 48.300301 98.042839
v 68.813164 48.597004 98.039284
v 69.090218 48.590992 98.523354
v 68.710617 48.583309 100.900909
v 68.996498 48.570663 100.417389
v 68.790504 49.162155 99.015839
v 69.056404 48.860012 99.014076
v 68.795052 49.166328 99.987564
v 69.035591 48.845192 99.973061
v 69.539093 42.903183 98.052879
v 69.842957 42.979073 97.790596
v 69.835342 42.711674 98.065506
v 69.783043 42.520222 98.997894
v 69.464493 42.802605 99.001762
v 69.831818 42.710835 99.932671
v 69.538231 42.903313 99.949036
v 69.844666 42.977333 100.209274
v 69.750114 43.388794 97.573975
v 69.750130 43.388821 100.425949
v 69.698097 43.892056 97.334610
v 69.698608 43.892132 100.665428
v 69.454147 44.553135 97.021843
v 69.835312 44.728340 96.813347
v 69.766342 44.314068 97.043312
v 69.764297 44.313335 100.956444
v 69.454086 44.553455 100.978691
v 69.835991 44.727131 101.186615
v 69.726105 45.131340 96.720024
v 69.726097 45.131336 101.280098
v 69.606483 45.581978 96.787605
v 69.606430 45.581963 101.212326
v 69.734016 46.001003 97.000023
v 69.441032 46.294033 96.999969
v 69.838165 46.398170 97.285973
v 69.443916 46.296661 101.004898
v 69.733963 46.000954 100.999939
v 69.838326 46.398113 100.714020
v 69.732338 46.878357 97.502922
v 69.736702 46.886089 100.507324
v 69.613083 47.345146 97.738075
v 69.632172 47.372086 100.301682
v 69.654533 47.680172 98.042763
v 69.368584 47.994629 98.058792
v 69.549263 48.096165 99.001999
v 69.760880 47.777958 98.998138
v 69.461182 48.061974 99.990433
v 69.683746 47.715633 99.973824
v 69.251312 48.548344 99.025429
v 69.215927 48.542854 99.954994
v 70.096970 42.266689 99.001221
v 70.334106 42.207588 98.506149
v 70.406479 41.986099 99.003777
v 70.335281 42.208256 99.493927
v 70.357529 42.841396 97.676422
v 70.297737 42.444233 98.015068
v 70.295815 42.446411 99.985085
v 70.359787 42.840820 100.325111
v 70.305527 43.341625 97.430824
v 70.305481 43.341583 100.569298
v 70.222633 43.771046 97.226105
v 70.222923 43.770603 100.773773
v 70.350952 44.607117 96.793915
v 70.294327 44.180878 96.969994
v 70.292656 44.181763 101.029465
v 70.352013 44.607346 101.206856
v 70.189751 44.995239 96.803352
v 70.189705 44.995274 101.196457
v 70.318253 45.413269 97.003052
v 70.026985 45.708012 96.999992
v 70.424171 45.812168 97.285965
v 70.027000 45.707962 101.000031
v 70.318283 45.413273 100.996902
v 70.424156 45.812183 100.714020
v 70.318367 46.292366 97.502907
v 70.318268 46.292259 100.496910
v 70.201317 46.761173 97.734291
v 70.200569 46.761471 100.265182
v 70.234100 47.087273 98.044106
v 69.941093 47.380077 98.044418
v 70.031998 47.470089 99.000038
v 70.324104 47.177860 98.999725
v 69.949692 47.390667 99.961731
v 70.234070 47.087097 99.955582
v 70.705177 41.698608 98.997536
v 70.942123 41.641777 98.517746
v 70.997398 41.401306 99.001610
v 70.924583 41.623039 99.492836
v 70.625053 42.207981 98.017776
v 71.009453 42.301620 97.719269
v 70.937698 41.931820 98.031578
v 70.913536 41.905056 99.989021
v 70.623436 42.205154 99.988655
v 70.994339 42.285057 100.310455
v 70.899742 42.771744 97.482330
v 70.896179 42.764725 100.528152
v 70.794258 43.250908 97.269119
v 70.794037 43.251183 100.730644
v 70.603958 43.938023 96.987457
v 71.019318 44.073952 96.818634
v 70.907852 43.659054 97.003929
v 70.907883 43.659092 100.995956
v 70.604004 43.938511 101.012794
v 71.019638 44.073803 101.179100
v 70.780029 44.411961 96.822838
v 70.779839 44.412056 101.177452
v 70.902107 44.825172 97.007309
v 70.611252 45.120285 97.003075
v 71.010178 45.226177 97.285980
v 70.611252 45.120201 100.996941
v 70.902176 44.825172 100.992661
v 71.010178 45.226181 100.714027
v 70.905312 45.707317 97.501228
v 70.905289 45.707283 100.498703
v 70.793007 46.180889 97.727097
v 70.791855 46.179794 100.271378
v 70.849556 46.514256 98.053223
v 70.535133 46.800705 98.044418
v 70.626030 46.900169 99.002098
v 70.940079 46.680866 98.997963
v 70.534363 46.800671 99.957314
v 70.847694 46.513821 99.940788
v 71.264336 41.091274 99.028374
v 71.520470 41.047848 98.515068
v 71.553291 40.786972 99.013939
v 71.618790 40.826466 99.950623
v 71.425003 41.120483 99.938286
v 71.671936 41.112480 100.259453
v 71.232399 41.639133 98.034561
v 71.610207 41.724213 97.740982
v 71.527847 41.348866 98.034935
v 71.150726 41.578327 99.992661
v 71.521980 41.626625 100.390678
v 71.502785 42.203697 97.529587
v 71.458282 42.170422 100.609726
v 71.396172 42.675934 97.293808
v 71.326851 42.688019 100.748993
v 71.203133 43.368176 97.007957
v 71.608253 43.487705 96.816002
v 71.501060 43.081676 97.019127
v 71.479286 43.061432 101.013893
v 71.200409 43.365295 100.997337
v 71.620964 43.480339 101.182838
v 71.370865 43.830410 96.817970
v 71.378883 43.825958 101.177345
v 71.487785 44.238796 97.008194
v 71.195160 44.532169 97.007347
v 71.596169 44.640182 97.285973
v 71.195152 44.532150 100.992645
v 71.490166 44.240952 100.996040
v 71.596016 44.640255 100.713860
v 71.491989 45.122009 97.500008
v 71.491997 45.122005 100.499985
v 71.382759 45.598667 97.722229
v 71.382736 45.598656 100.277756
v 71.454308 45.963299 98.037155
v 71.158791 46.254883 98.042664
v 71.444473 46.226025 98.522514
v 71.153191 46.243717 99.956619
v 71.450104 45.958103 99.960258
v 71.437241 46.226826 99.475662
v 71.381210 46.366669 98.997704
v 71.836777 40.485989 99.011467
v 72.102310 40.458302 98.513367
v 72.131783 40.194778 99.013329
v 72.156105 40.218105 99.966011
v 71.876732 40.522621 99.961143
v 72.164726 40.517719 100.323288
v 71.818161 41.052979 98.034027
v 72.201836 41.143822 97.756294
v 72.113831 40.762810 98.034927
v 72.069252 41.011864 100.583275
v 72.100227 41.629597 97.589142
v 71.932175 41.532021 100.709328
v 72.086197 42.193344 97.389664
v 72.080818 41.900684 100.995895
v 71.861977 42.226791 100.949409
v 72.259773 42.282982 101.224762
v 71.809250 42.821526 97.060188
v 72.006538 43.018078 96.933205
v 72.067642 42.658905 97.137703
v 71.717476 42.749233 101.039398
v 72.159706 42.821899 101.248322
v 71.898041 43.283772 96.847221
v 72.041046 43.286686 101.215477
v 72.053162 43.639519 97.032082
v 71.777992 43.943623 97.013351
v 72.180252 44.046452 97.293152
v 71.793991 43.961544 101.012817
v 72.106613 43.720333 101.032196
v 72.163635 44.110554 100.740578
v 72.078293 44.536221 97.499542
v 72.085159 44.541279 100.510544
v 71.968742 45.012730 97.722252
v 71.968742 45.012249 100.277252
v 72.044975 45.381489 98.035240
v 71.748436 45.671429 98.035278
v 72.039909 45.669865 98.518784
v 71.750870 45.674503 99.964516
v 72.041435 45.378426 99.964722
v 72.039047 45.668472 99.480743
v 71.679581 46.167366 99.002892
v 71.976173 45.897442 98.997910
v 72.421631 39.898834 99.011375
v 72.688286 39.872292 98.513359
v 72.716896 39.607895 99.013344
v 72.725502 39.615162 99.981270
v 72.441643 39.918419 99.978592
v 72.727493 39.916996 100.438370
v 72.404015 40.466797 98.033943
v 72.789444 40.559422 97.761589
v 72.699821 40.176811 98.034950
v 72.560341 40.380909 100.665337
v 72.686913 41.043587 97.616455
v 72.674240 40.733002 100.987900
v 72.450958 41.055923 100.946442
v 72.843369 41.110615 101.229095
v 72.663185 41.611252 97.523735
v 72.307144 41.578915 101.034149
v 72.737656 41.648560 101.298492
v 72.671066 42.184265 97.432213
v 72.691879 42.203655 101.368500
v 72.254341 42.840073 97.108635
v 72.712738 42.739544 97.333282
v 72.661133 42.751350 101.338203
v 72.268639 43.327362 97.082527
v 72.708214 43.389069 97.362038
v 72.571213 43.177601 101.211731
v 72.656456 43.942760 97.520187
v 72.628632 43.575962 100.945091
v 72.678032 43.971565 100.596146
v 72.552620 44.424625 97.726196
v 72.563118 44.433811 100.295662
v 72.630959 44.795483 98.035233
v 72.334435 45.085434 98.035286
v 72.625900 45.083862 98.518768
v 72.337494 45.088867 99.964821
v 72.629974 44.794983 99.968185
v 72.625870 45.083897 99.481224
v 72.275368 45.611862 99.003098
v 72.567856 45.319374 98.996880
v 73.006973 39.312168 99.011368
v 73.278374 39.291515 98.516418
v 73.305489 39.025166 99.014099
v 73.300156 39.018963 99.988625
v 73.013153 39.317493 99.985893
v 73.279518 39.290379 100.483574
v 72.990059 39.880882 98.033989
v 73.374199 39.974361 97.760597
v 73.289444 39.596184 98.039909
v 73.310631 39.603039 100.948708
v 73.076599 39.906826 100.917244
v 73.438835 39.951077 101.211555
v 73.273071 40.457031 97.615738
v 72.903984 40.413174 101.021225
v 73.323189 40.476437 101.298607
v 73.253212 41.023205 97.540474
v 73.275108 41.032597 101.387009
v 73.249763 41.606224 97.499596
v 73.256294 41.609741 101.436470
v 73.249016 42.193367 97.481201
v 73.246964 42.184052 101.417572
v 73.248238 42.776234 97.496017
v 73.206337 42.703205 101.294495
v 73.230446 43.344975 97.573914
v 72.951172 43.353325 100.988724
v 73.273727 43.124947 101.020523
v 73.303024 43.472363 100.667618
v 73.132347 43.832317 97.739792
v 73.175095 43.877357 100.335190
v 73.216965 44.209492 98.035233
v 72.920433 44.499439 98.035286
v 73.211899 44.497864 98.518776
v 72.925743 44.504906 99.968414
v 73.221466 44.214474 99.974442
v 73.211830 44.497883 99.481209
v 72.861382 45.025852 99.003098
v 73.153862 44.733376 98.996902
v 73.603172 38.737476 99.018761
v 73.904831 38.738495 98.561279
v 73.906311 38.453613 99.021461
v 73.886902 38.433830 99.988617
v 73.595886 38.728893 99.986671
v 73.859436 38.698784 100.487350
v 73.591026 39.322643 98.051277
v 73.939079 39.450916 97.788589
v 73.894882 39.088589 98.082840
v 73.868874 39.002060 100.966019
v 73.584183 39.301449 100.960098
v 73.962395 39.386219 101.239326
v 73.857269 39.878830 97.627647
v 73.866814 39.869270 101.372330
v 73.838753 40.437534 97.540092
v 73.842598 40.438351 101.438499
v 73.835999 41.019993 97.500000
v 73.837257 41.020638 101.477943
v 73.835922 41.605927 97.505997
v 73.833443 41.602383 101.453979
v 73.831917 42.189743 97.539810
v 73.814735 42.161182 101.372398
v 73.813423 42.755928 97.611076
v 73.733490 42.591309 101.213104
v 73.712517 43.240494 97.755493
v 73.782356 42.954636 100.921165
v 73.781624 43.321606 100.452927
v 73.803017 43.623566 98.035225
v 73.506432 43.913437 98.035278
v 73.797928 43.911884 98.518745
v 73.520401 43.926083 99.978416
v 73.824738 43.645256 99.991905
v 73.802147 43.915157 99.483330
v 73.447418 44.439899 99.003098
v 73.739853 44.147373 98.996872
v 74.203804 38.165642 99.032295
v 74.494827 38.163406 98.665016
v 74.500336 37.875156 99.033508
v 74.467232 37.840446 99.989380
v 74.178825 38.139633 99.987823
v 74.425323 38.093872 100.498444
v 74.364967 38.563335 98.326851
v 74.438187 38.395332 100.983215
v 74.160980 38.706936 100.969002
v 74.547386 38.792225 101.246124
v 74.465965 39.334362 97.702232
v 74.399132 38.911106 97.973000
v 74.445435 39.284916 101.383781
v 74.426376 39.854668 97.561707
v 74.425522 39.850750 101.459892
v 74.422050 40.434059 97.505997
v 74.422050 40.434059 101.493996
v 74.421051 41.019062 97.522125
v 74.418793 41.016800 101.459557
v 74.415298 41.601597 97.561813
v 74.398964 41.582985 101.384308
v 74.391190 42.170753 97.627556
v 74.301239 42.069248 101.244881
v 74.295860 42.653999 97.760216
v 74.093163 42.730644 100.954475
v 74.400566 42.460979 100.971619
v 74.463120 42.804405 100.536049
v 74.388832 43.037586 98.034386
v 74.092461 43.327507 98.035316
v 74.386765 43.327625 98.517906
v 74.140198 43.377949 100.006996
v 74.463951 43.144310 100.018883
v 74.412376 43.353783 99.496506
v 74.032898 43.853596 99.002563
v 74.330711 43.565311 98.997627
v 74.795128 37.584061 99.036430
v 75.097794 37.598122 98.685204
v 75.093498 37.299313 99.039497
v 75.038795 37.243980 99.999252
v 74.738136 37.535107 100.016289
v 75.139236 37.317070 100.943214
v 74.940399 37.604576 100.934517
v 75.210396 37.615864 101.204056
v 74.953331 38.038422 98.356026
v 74.673706 38.067356 100.985443
v 75.084564 38.135742 101.291939
v 74.708359 38.667061 97.990234
v 75.118866 38.797043 97.745087
v 75.016273 38.392754 98.013039
v 75.025490 38.691032 101.399345
v 75.023338 39.278912 97.600060
v 75.010574 39.264576 101.463646
v 75.008881 39.848881 97.528099
v 75.008011 39.847996 101.500000
v 75.005081 40.431866 97.535988
v 75.005424 40.431416 101.463676
v 74.991058 41.004646 97.600105
v 74.985069 40.996521 101.383713
v 74.933365 41.559948 97.705353
v 74.885918 41.483910 101.243599
v 74.819328 42.088322 97.789062
v 74.702621 42.178787 100.983078
v 74.996033 41.886761 100.982040
v 75.050232 42.235470 100.633553
v 74.946762 42.436871 98.051064
v 74.674179 42.738941 98.039482
v 74.973351 42.744999 98.518677
v 74.930191 42.635231 100.303322
v 74.633888 43.279404 99.001862
v 74.937309 43.008205 99.025093
v 74.918015 42.860180 99.943962
v 75.405701 37.063011 99.052155
v 75.687355 37.129143 98.769775
v 75.685577 36.955112 99.075958
v 75.676338 36.891655 99.999992
v 75.357147 37.004059 100.000221
v 75.686653 36.955116 100.921288
v 75.415619 37.071724 100.941299
v 75.697769 37.147533 101.173355
v 75.591393 37.501900 98.425514
v 75.624466 37.537376 101.356575
v 75.322495 38.117859 98.034058
v 75.692818 38.271633 97.780159
v 75.633270 37.881504 98.059204
v 75.601723 38.093548 101.465820
v 75.615379 38.708233 97.633240
v 75.595726 38.674877 101.494537
v 75.594231 39.264938 97.557671
v 75.594231 39.261757 101.500160
v 75.587387 39.843639 97.561516
v 75.593048 39.847046 101.477859
v 75.562782 40.412880 97.628044
v 75.578644 40.417023 101.399788
v 75.469368 40.905804 97.750946
v 75.478195 40.895580 101.247177
v 75.594193 41.312370 98.007790
v 75.345734 41.624023 97.985260
v 75.670204 41.638332 98.455597
v 75.280083 41.585674 100.976250
v 75.573227 41.291721 100.975815
v 75.620453 41.646152 100.536209
v 75.168282 42.129959 98.089066
v 75.464523 42.129707 98.571259
v 75.447182 42.112057 100.301033
v 75.226089 42.706841 99.018250
v 75.485771 42.401993 99.024658
v 75.198555 42.650097 99.955902
v 75.457436 42.377666 99.955437
v 76.065277 37.100166 98.739624
v 76.078415 36.958523 99.072968
v 76.097008 36.893536 100.000549
v 76.087570 36.954834 100.921196
v 76.088196 37.148804 101.186783
v 76.171570 37.364296 98.379478
v 76.176079 37.535248 101.416718
v 76.220337 38.174061 97.724564
v 76.158005 37.747799 97.983627
v 76.201767 38.089355 101.605896
v 76.175896 38.681076 97.615211
v 76.174271 38.681725 101.556053
v 76.153931 39.249390 97.618217
v 76.181084 39.261395 101.510765
v 76.106674 39.804852 97.700844
v 76.175941 39.840961 101.438217
v 75.992004 40.330360 97.788559
v 76.131645 40.356056 101.288521
v 76.119629 40.679260 98.050987
v 75.852295 40.988235 98.033424
v 76.157700 40.999668 98.512383
v 75.875877 41.005478 100.984261
v 76.205391 40.767494 100.986938
v 76.181084 41.025639 100.501556
v 75.926231 41.627235 99.000938
v 76.162010 41.295673 99.001518
v 75.918633 41.621876 99.999474
v 76.163651 41.295387 99.993370
v 75.663132 42.098930 99.043411
v 75.649956 42.092144 99.945694
v 76.405281 37.094776 98.989082
v 76.416283 37.004841 100.000893
v 76.370537 37.062328 100.946579
v 76.488029 37.573044 98.059814
v 76.749603 37.791489 97.896828
v 76.728722 37.547905 98.145981
v 76.722244 37.265297 99.008209
v 76.745750 37.234097 99.999641
v 76.685936 37.295555 100.968536
v 76.647903 37.652374 101.408211
v 76.721535 38.134693 97.742348
v 76.757935 38.018505 101.841286
v 76.662064 38.089161 101.843704
v 76.767052 38.088058 101.892632
v 76.681938 38.635654 97.723587
v 76.765945 38.192467 101.839622
v 76.767258 38.656925 101.610619
v 76.587036 39.170860 97.771156
v 76.763580 39.257309 101.488091
v 76.755325 39.549160 98.011276
v 76.527039 39.871861 97.979561
v 76.871094 39.898861 98.335663
v 76.744080 39.816040 101.372856
v 76.352196 40.377281 98.082375
v 76.703598 40.364010 98.559624
v 76.653595 40.232334 101.203339
v 76.425560 40.973763 99.012871
v 76.707191 40.669373 99.018700
v 76.442238 40.988033 99.991791
v 76.734856 40.705265 100.013786
v 76.669327 40.502628 100.932213
v 76.946442 37.673138 98.071159
v 77.039139 37.525078 98.997986
v 77.054649 37.508301 99.999763
v 76.991806 37.572395 100.973602
v 77.066254 38.106960 97.895302
v 77.187691 37.907444 98.073189
v 77.331200 37.816303 99.001953
v 77.348030 37.800957 99.999863
v 77.284073 37.863861 100.973656
v 76.834427 38.097679 101.840691
v 77.203293 38.208572 101.407425
v 77.288597 38.368465 98.055000
v 77.108917 38.699085 97.983192
v 77.493301 38.683712 98.379005
v 77.321068 38.679634 101.416687
v 76.977974 39.226639 98.054955
v 77.355148 39.264637 98.424225
v 77.317528 39.240059 101.368622
v 77.265800 39.763554 98.676926
v 77.217606 39.714241 101.231277
v 77.277588 40.068550 99.032501
v 76.992203 40.368305 99.022324
v 77.042831 40.418076 100.001564
v 77.341827 40.130821 99.999985
v 76.961830 40.308834 100.949066
v 77.260765 40.046375 100.952469
v 77.314613 38.126987 98.139221
v 77.589874 38.130962 99.003746
v 77.622032 38.110363 99.999039
v 77.561958 38.167580 100.968658
v 77.761734 38.450432 98.989487
v 77.756783 38.790195 98.738762
v 77.852615 38.439041 100.001633
v 77.794334 38.484016 100.947914
v 77.709129 38.768021 101.188240
v 77.728218 39.168701 98.768791
v 77.708725 39.158833 101.173759
v 77.793373 39.450737 99.051697
v 77.557915 39.763729 99.038696
v 77.619545 39.825237 100.000008
v 77.852249 39.498955 99.999947
v 77.549767 39.756367 100.952240
v 77.790764 39.448936 100.944550
v 77.900620 38.777309 99.071579
v 77.963783 38.758385 100.000175
v 77.901031 38.768562 100.921295
v 77.901711 39.170643 99.076027
v 77.964859 39.179638 100.000008
v 77.901703 39.169655 100.921494
# 1338 vertices, 0 vertices normals

f 3 2 1
f 5 4 1
f 1 4 3
f 7 6 5
f 5 6 4
f 7 8 6
f 1 2 9
f 9 2 10
f 1 11 5
f 1 9 11
f 5 12 7
f 5 11 12
f 8 7 13
f 13 7 12
f 10 14 9
f 9 14 11
f 11 14 15
f 11 15 12
f 12 15 16
f 12 16 13
f 19 18 17
f 21 20 17
f 17 20 19
f 23 22 21
f 21 22 20
f 23 24 22
f 17 18 25
f 25 18 26
f 17 27 21
f 17 25 27
f 21 28 23
f 21 27 28
f 24 23 29
f 29 23 28
f 32 31 30
f 32 30 26
f 30 25 26
f 30 33 25
f 25 34 27
f 25 33 34
f 27 35 28
f 27 34 35
f 29 28 36
f 28 37 36
f 28 35 37
f 37 38 36
f 30 31 39
f 39 31 40
f 30 41 33
f 30 39 41
f 33 42 34
f 33 41 42
f 34 43 35
f 34 42 43
f 35 44 37
f 35 43 44
f 38 37 45
f 45 37 44
f 40 46 39
f 47 2 3
f 39 47 3
f 41 39 3
f 46 47 39
f 41 3 4
f 41 4 42
f 42 4 6
f 42 6 43
f 44 43 48
f 43 8 48
f 8 49 48
f 8 43 6
f 44 48 45
f 47 10 2
f 50 10 47
f 13 49 8
f 13 51 49
f 50 52 10
f 10 52 14
f 52 54 53
f 15 52 53
f 14 52 15
f 15 53 55
f 56 15 55
f 16 15 56
f 13 16 51
f 51 16 56
f 54 57 53
f 53 57 55
f 59 58 19
f 19 58 18
f 60 19 20
f 60 59 19
f 61 20 22
f 61 60 20
f 22 24 61
f 61 24 62
f 58 26 18
f 63 26 58
f 29 62 24
f 29 64 62
f 65 31 32
f 66 65 32
f 26 66 32
f 63 66 26
f 29 36 67
f 68 29 67
f 64 29 68
f 38 67 36
f 70 69 65
f 69 31 65
f 69 40 31
f 70 65 66
f 71 68 67
f 67 38 71
f 38 72 71
f 38 45 72
f 69 73 40
f 40 73 46
f 47 46 73
f 47 73 74
f 76 75 48
f 76 48 49
f 45 48 72
f 72 48 75
f 74 50 47
f 77 50 74
f 51 76 49
f 51 78 76
f 52 50 79
f 50 80 79
f 50 77 80
f 79 54 52
f 55 81 56
f 81 82 56
f 82 51 56
f 82 78 51
f 80 83 79
f 79 83 54
f 83 57 54
f 83 84 57
f 55 57 81
f 57 85 81
f 57 84 85
f 81 85 82
f 86 58 59
f 86 59 87
f 59 88 87
f 59 60 88
f 90 88 89
f 88 61 89
f 88 60 61
f 62 89 61
f 92 91 86
f 91 58 86
f 91 63 58
f 92 86 87
f 93 90 89
f 89 62 93
f 62 94 93
f 62 64 94
f 91 66 63
f 95 66 91
f 68 94 64
f 68 96 94
f 98 97 70
f 70 97 69
f 70 66 95
f 70 95 98
f 99 96 68
f 99 68 71
f 71 72 99
f 99 72 100
f 73 69 101
f 69 102 101
f 69 97 102
f 101 74 73
f 76 103 75
f 103 104 75
f 104 72 75
f 104 100 72
f 102 105 101
f 74 101 105
f 106 74 105
f 77 74 106
f 108 107 103
f 76 108 103
f 78 108 76
f 103 107 104
f 106 80 77
f 109 80 106
f 82 108 78
f 82 110 108
f 109 111 80
f 80 111 83
f 83 112 84
f 111 112 83
f 84 113 85
f 112 113 84
f 82 85 110
f 110 85 113
f 115 114 88
f 88 114 87
f 88 90 115
f 115 90 116
f 118 117 92
f 92 117 91
f 92 87 114
f 92 114 118
f 119 116 90
f 119 90 93
f 93 94 119
f 119 94 120
f 117 95 91
f 121 95 117
f 96 120 94
f 96 122 120
f 124 123 98
f 98 123 97
f 98 95 121
f 98 121 124
f 125 122 96
f 125 96 99
f 99 100 125
f 125 100 126
f 123 102 97
f 127 102 123
f 104 126 100
f 104 128 126
f 127 129 102
f 102 129 105
f 106 105 129
f 106 129 130
f 132 131 107
f 132 107 108
f 104 107 128
f 128 107 131
f 130 109 106
f 133 109 130
f 110 132 108
f 110 134 132
f 133 135 109
f 109 135 111
f 111 136 112
f 135 136 111
f 112 137 113
f 136 137 112
f 110 113 134
f 134 113 137
f 138 114 115
f 116 138 115
f 140 139 118
f 118 139 117
f 118 114 138
f 141 118 138
f 140 118 141
f 141 138 116
f 119 141 116
f 142 141 119
f 119 120 142
f 142 120 143
f 139 121 117
f 144 121 139
f 122 143 120
f 122 145 143
f 147 146 124
f 124 146 123
f 124 121 144
f 124 144 147
f 148 145 122
f 148 122 125
f 125 126 148
f 148 126 149
f 146 127 123
f 150 127 146
f 128 149 126
f 128 151 149
f 150 152 127
f 127 152 129
f 130 129 152
f 130 152 153
f 155 154 131
f 155 131 132
f 128 131 151
f 151 131 154
f 153 133 130
f 156 133 153
f 134 155 132
f 134 157 155
f 156 158 133
f 133 158 135
f 158 160 159
f 136 158 159
f 135 158 136
f 136 159 161
f 162 136 161
f 137 136 162
f 134 137 157
f 157 137 162
f 160 163 159
f 159 163 161
f 165 164 140
f 140 164 139
f 166 140 141
f 166 165 140
f 167 141 142
f 167 166 141
f 142 143 167
f 167 143 168
f 164 144 139
f 169 144 164
f 145 168 143
f 145 170 168
f 172 171 147
f 147 171 146
f 147 144 169
f 147 169 172
f 173 170 145
f 173 145 148
f 148 149 173
f 173 149 174
f 171 150 146
f 175 150 171
f 151 174 149
f 151 176 174
f 175 177 150
f 150 177 152
f 153 152 177
f 153 177 178
f 180 179 154
f 180 154 155
f 151 154 176
f 176 154 179
f 178 156 153
f 181 156 178
f 157 180 155
f 157 182 180
f 181 183 156
f 156 183 158
f 160 158 183
f 160 183 184
f 186 185 162
f 186 162 161
f 157 162 182
f 182 162 185
f 184 187 160
f 160 187 163
f 161 163 186
f 186 163 187
f 189 188 165
f 165 188 164
f 190 165 166
f 190 189 165
f 191 166 167
f 191 190 166
f 167 168 191
f 191 168 192
f 188 169 164
f 193 169 188
f 170 192 168
f 170 194 192
f 195 171 172
f 196 195 172
f 169 196 172
f 193 196 169
f 170 173 197
f 198 170 197
f 194 170 198
f 174 197 173
f 200 199 195
f 199 171 195
f 199 175 171
f 200 195 196
f 201 198 197
f 197 174 201
f 174 202 201
f 174 176 202
f 199 203 175
f 175 203 177
f 178 177 203
f 178 203 204
f 206 205 179
f 206 179 180
f 176 179 202
f 202 179 205
f 204 181 178
f 207 181 204
f 182 206 180
f 182 208 206
f 183 181 209
f 181 210 209
f 181 207 210
f 209 184 183
f 186 211 185
f 211 212 185
f 212 182 185
f 212 208 182
f 210 213 209
f 209 213 184
f 213 187 184
f 213 214 187
f 186 187 211
f 187 215 211
f 187 214 215
f 211 215 212
f 216 188 189
f 216 189 217
f 189 218 217
f 189 190 218
f 220 218 219
f 218 191 219
f 218 190 191
f 192 219 191
f 222 221 216
f 221 188 216
f 221 193 188
f 222 216 217
f 223 220 219
f 219 192 223
f 192 224 223
f 192 194 224
f 221 196 193
f 225 196 221
f 198 224 194
f 198 226 224
f 228 227 200
f 200 227 199
f 200 196 225
f 200 225 228
f 229 226 198
f 229 198 201
f 201 202 229
f 229 202 230
f 203 199 231
f 199 232 231
f 199 227 232
f 231 204 203
f 206 233 205
f 233 234 205
f 234 202 205
f 234 230 202
f 232 235 231
f 204 231 235
f 236 204 235
f 207 204 236
f 238 237 233
f 206 238 233
f 208 238 206
f 233 237 234
f 236 210 207
f 239 210 236
f 212 238 208
f 212 240 238
f 239 241 210
f 210 241 213
f 213 242 214
f 241 242 213
f 214 243 215
f 242 243 214
f 212 215 240
f 240 215 243
f 244 217 218
f 220 244 218
f 246 245 222
f 222 245 221
f 222 217 244
f 247 222 244
f 246 222 247
f 247 244 220
f 223 247 220
f 248 247 223
f 223 224 248
f 248 224 249
f 245 225 221
f 250 225 245
f 226 249 224
f 226 251 249
f 253 252 228
f 228 252 227
f 228 225 250
f 228 250 253
f 254 251 226
f 254 226 229
f 229 230 254
f 254 230 255
f 252 232 227
f 256 232 252
f 234 255 230
f 234 257 255
f 256 258 232
f 232 258 235
f 236 235 258
f 236 258 259
f 261 260 237
f 261 237 238
f 234 237 257
f 257 237 260
f 259 239 236
f 262 239 259
f 240 261 238
f 240 263 261
f 262 264 239
f 239 264 241
f 241 265 242
f 264 265 241
f 242 266 243
f 265 266 242
f 240 243 263
f 263 243 266
f 268 267 246
f 246 267 245
f 269 246 247
f 269 268 246
f 270 247 248
f 270 269 247
f 248 249 270
f 270 249 271
f 267 250 245
f 272 250 267
f 251 271 249
f 251 273 271
f 275 274 253
f 253 274 252
f 253 250 272
f 253 272 275
f 276 273 251
f 276 251 254
f 254 255 276
f 276 255 277
f 274 256 252
f 278 256 274
f 257 277 255
f 257 279 277
f 278 280 256
f 256 280 258
f 259 258 280
f 259 280 281
f 283 282 260
f 283 260 261
f 257 260 279
f 279 260 282
f 281 262 259
f 284 262 281
f 263 283 261
f 263 285 283
f 284 286 262
f 262 286 264
f 264 287 265
f 286 287 264
f 265 288 266
f 287 288 265
f 263 266 285
f 285 266 288
f 290 289 268
f 268 289 267
f 291 268 269
f 291 290 268
f 292 269 270
f 292 291 269
f 270 271 292
f 292 271 293
f 289 272 267
f 294 272 289
f 273 293 271
f 273 295 293
f 297 296 275
f 275 296 274
f 275 272 294
f 275 294 297
f 298 295 273
f 298 273 276
f 276 277 298
f 298 277 299
f 296 278 274
f 300 278 296
f 279 299 277
f 279 301 299
f 300 302 278
f 278 302 280
f 281 280 302
f 281 302 303
f 305 304 282
f 305 282 283
f 279 282 301
f 301 282 304
f 303 284 281
f 306 284 303
f 285 305 283
f 285 307 305
f 306 308 284
f 284 308 286
f 286 309 287
f 308 309 286
f 287 310 288
f 309 310 287
f 285 288 307
f 307 288 310
f 313 312 311
f 311 314 313
f 316 315 290
f 290 315 289
f 291 311 312
f 316 291 312
f 290 291 316
f 317 314 311
f 291 317 311
f 292 317 291
f 292 293 317
f 317 293 318
f 315 294 289
f 319 294 315
f 295 318 293
f 295 320 318
f 322 321 297
f 297 321 296
f 297 294 319
f 297 319 322
f 323 320 295
f 323 295 298
f 298 299 323
f 323 299 324
f 321 300 296
f 325 300 321
f 301 324 299
f 301 326 324
f 325 327 300
f 300 327 302
f 303 302 327
f 303 327 328
f 330 329 304
f 330 304 305
f 301 304 326
f 326 304 329
f 328 306 303
f 331 306 328
f 307 330 305
f 307 332 330
f 331 333 306
f 306 333 308
f 308 334 309
f 333 334 308
f 309 335 310
f 334 335 309
f 307 310 332
f 332 310 335
f 338 337 336
f 312 313 336
f 313 338 336
f 313 339 338
f 313 314 339
f 339 314 340
f 336 337 316
f 337 315 316
f 337 341 315
f 336 316 312
f 342 340 314
f 342 314 317
f 317 318 342
f 342 318 343
f 346 345 344
f 341 346 344
f 319 341 344
f 315 341 319
f 320 343 318
f 320 347 343
f 344 345 322
f 345 321 322
f 345 348 321
f 344 322 319
f 320 323 349
f 350 320 349
f 347 320 350
f 324 349 323
f 348 325 321
f 351 325 348
f 350 349 352
f 350 352 353
f 326 352 324
f 324 352 349
f 351 354 325
f 325 354 327
f 328 327 354
f 328 354 355
f 353 352 329
f 330 353 329
f 356 353 330
f 329 352 326
f 355 331 328
f 357 331 355
f 332 356 330
f 332 358 356
f 357 359 331
f 331 359 333
f 333 360 334
f 359 360 333
f 334 361 335
f 360 361 334
f 332 335 358
f 358 335 361
f 363 362 338
f 338 362 337
f 364 338 339
f 364 363 338
f 339 340 364
f 364 340 365
f 362 341 337
f 366 341 362
f 367 365 340
f 367 340 342
f 342 343 367
f 367 343 368
f 370 369 346
f 346 369 345
f 346 341 366
f 346 366 370
f 347 368 343
f 347 371 368
f 369 348 345
f 372 348 369
f 350 371 347
f 350 373 371
f 372 351 348
f 374 351 372
f 353 373 350
f 353 375 373
f 374 376 351
f 351 376 354
f 355 354 376
f 355 376 377
f 356 375 353
f 356 378 375
f 377 357 355
f 379 357 377
f 382 381 380
f 381 378 380
f 378 358 380
f 378 356 358
f 379 383 357
f 357 383 359
f 359 384 360
f 383 384 359
f 380 361 382
f 361 384 382
f 361 360 384
f 361 380 358
f 386 385 363
f 363 385 362
f 387 363 364
f 387 386 363
f 389 388 365
f 388 364 365
f 388 387 364
f 389 390 388
f 393 392 391
f 385 393 391
f 366 385 391
f 362 385 366
f 367 389 365
f 367 368 389
f 368 390 389
f 368 394 390
f 391 392 370
f 392 369 370
f 392 395 369
f 391 370 366
f 371 394 368
f 371 396 394
f 395 372 369
f 397 372 395
f 373 396 371
f 373 398 396
f 397 374 372
f 399 374 397
f 375 398 373
f 375 400 398
f 399 401 374
f 374 401 376
f 377 376 401
f 377 401 402
f 378 400 375
f 378 403 400
f 405 379 404
f 379 402 404
f 379 377 402
f 406 405 404
f 408 407 381
f 408 381 382
f 378 381 403
f 403 381 407
f 405 383 379
f 406 409 405
f 409 383 405
f 409 384 383
f 382 384 408
f 408 384 409
f 411 410 386
f 386 410 385
f 412 386 387
f 412 411 386
f 413 387 388
f 413 412 387
f 388 390 413
f 413 390 414
f 416 415 393
f 393 415 392
f 393 385 410
f 393 410 416
f 394 414 390
f 394 417 414
f 415 395 392
f 418 395 415
f 396 417 394
f 396 419 417
f 418 397 395
f 420 397 418
f 398 419 396
f 398 421 419
f 420 399 397
f 422 399 420
f 400 421 398
f 400 423 421
f 422 424 399
f 399 424 401
f 402 401 424
f 402 424 425
f 403 423 400
f 403 426 423
f 425 427 402
f 402 427 404
f 429 428 406
f 404 429 406
f 427 429 404
f 407 408 428
f 429 407 428
f 430 407 429
f 403 407 426
f 426 407 430
f 428 409 406
f 409 428 408
f 433 432 431
f 431 434 433
f 436 435 411
f 411 435 410
f 412 431 432
f 436 412 432
f 411 412 436
f 437 434 431
f 412 437 431
f 413 437 412
f 413 414 437
f 437 414 438
f 440 439 416
f 416 439 415
f 416 410 435
f 416 435 440
f 417 438 414
f 417 441 438
f 439 418 415
f 442 418 439
f 419 441 417
f 419 443 441
f 442 420 418
f 444 420 442
f 421 443 419
f 421 445 443
f 444 422 420
f 446 422 444
f 423 445 421
f 423 447 445
f 446 448 422
f 422 448 424
f 425 424 448
f 425 448 449
f 426 447 423
f 426 450 447
f 449 451 425
f 425 451 427
f 427 452 429
f 451 452 427
f 429 453 430
f 452 453 429
f 426 430 450
f 450 430 453
f 456 455 454
f 432 433 454
f 433 456 454
f 433 457 456
f 433 434 457
f 457 434 458
f 461 460 459
f 461 459 455
f 455 459 454
f 459 435 454
f 435 436 454
f 454 436 432
f 462 458 434
f 462 434 437
f 437 438 462
f 462 438 463
f 459 460 440
f 460 439 440
f 460 464 439
f 459 440 435
f 441 463 438
f 441 465 463
f 464 442 439
f 466 442 464
f 443 465 441
f 443 467 465
f 466 444 442
f 468 444 466
f 445 467 443
f 445 469 467
f 468 446 444
f 470 446 468
f 447 469 445
f 447 471 469
f 470 472 446
f 446 472 448
f 449 448 472
f 449 472 473
f 476 475 474
f 475 471 474
f 471 450 474
f 471 447 450
f 473 477 449
f 449 477 451
f 451 478 452
f 477 478 451
f 474 453 476
f 453 478 476
f 453 452 478
f 453 474 450
f 480 479 456
f 456 479 455
f 481 456 457
f 481 480 456
f 457 458 481
f 481 458 482
f 484 483 461
f 461 483 460
f 461 455 479
f 461 479 484
f 485 482 458
f 485 458 462
f 462 463 485
f 485 463 486
f 483 464 460
f 487 464 483
f 465 486 463
f 465 488 486
f 487 466 464
f 489 466 487
f 467 488 465
f 467 490 488
f 489 468 466
f 491 468 489
f 469 490 467
f 469 492 490
f 491 470 468
f 493 470 491
f 471 492 469
f 471 494 492
f 493 495 470
f 470 495 472
f 473 472 495
f 473 495 496
f 498 497 475
f 498 475 476
f 471 475 494
f 494 475 497
f 496 499 473
f 473 499 477
f 477 500 478
f 499 500 477
f 476 478 498
f 498 478 500
f 503 502 501
f 479 480 501
f 480 503 501
f 480 504 503
f 505 480 481
f 505 504 480
f 481 482 505
f 505 482 506
f 501 502 484
f 502 483 484
f 502 507 483
f 501 484 479
f 508 506 482
f 508 482 485
f 485 486 508
f 508 486 509
f 507 487 483
f 510 487 507
f 488 509 486
f 488 511 509
f 510 489 487
f 512 489 510
f 490 511 488
f 490 513 511
f 512 491 489
f 514 491 512
f 492 513 490
f 492 515 513
f 514 493 491
f 516 493 514
f 494 515 492
f 494 517 515
f 516 518 493
f 493 518 495
f 496 495 518
f 496 518 519
f 521 520 497
f 521 497 498
f 494 497 517
f 517 497 520
f 519 522 496
f 496 522 499
f 499 523 500
f 522 523 499
f 498 500 521
f 521 500 523
f 526 525 524
f 528 527 524
f 524 527 526
f 530 529 528
f 528 529 527
f 530 531 529
f 524 525 503
f 525 502 503
f 525 532 502
f 524 503 504
f 524 504 528
f 528 504 505
f 528 505 530
f 534 533 506
f 506 533 505
f 533 531 505
f 531 530 505
f 534 535 533
f 532 507 502
f 536 507 532
f 508 534 506
f 508 509 534
f 509 535 534
f 509 537 535
f 536 510 507
f 538 510 536
f 511 537 509
f 511 539 537
f 538 512 510
f 540 512 538
f 513 539 511
f 513 541 539
f 540 514 512
f 542 514 540
f 515 541 513
f 515 543 541
f 545 516 544
f 516 542 544
f 516 514 542
f 546 545 544
f 549 548 547
f 548 543 547
f 543 517 547
f 543 515 517
f 545 518 516
f 551 550 519
f 551 519 518
f 546 551 518
f 545 546 518
f 553 552 550
f 553 550 551
f 552 553 549
f 552 549 547
f 521 552 547
f 520 521 547
f 520 547 517
f 550 522 519
f 522 550 523
f 523 550 552
f 523 552 521
f 556 555 554
f 558 557 554
f 554 557 556
f 560 559 558
f 558 559 557
f 560 561 559
f 554 555 526
f 555 525 526
f 555 562 525
f 554 526 527
f 554 527 558
f 558 527 529
f 558 529 560
f 529 531 560
f 531 561 560
f 531 563 561
f 562 532 525
f 564 532 562
f 565 563 531
f 565 531 533
f 533 535 565
f 565 535 566
f 564 536 532
f 567 536 564
f 537 566 535
f 537 568 566
f 567 538 536
f 569 538 567
f 539 568 537
f 539 570 568
f 569 540 538
f 571 540 569
f 541 570 539
f 541 572 570
f 571 542 540
f 573 542 571
f 543 572 541
f 543 574 572
f 573 575 542
f 542 575 544
f 546 544 575
f 546 575 576
f 578 577 548
f 578 548 549
f 543 548 574
f 574 548 577
f 576 579 546
f 546 579 551
f 551 580 553
f 579 580 551
f 549 553 578
f 578 553 580
f 583 582 581
f 585 584 581
f 581 584 583
f 585 586 584
f 589 588 587
f 589 587 582
f 587 581 582
f 587 590 581
f 581 591 585
f 581 590 591
f 586 585 592
f 592 585 591
f 587 588 593
f 593 588 594
f 593 555 556
f 590 593 556
f 587 593 590
f 590 556 557
f 590 557 591
f 595 592 591
f 557 595 591
f 559 595 557
f 559 561 595
f 595 561 596
f 593 594 597
f 597 594 598
f 597 562 555
f 597 555 593
f 563 596 561
f 563 599 596
f 597 598 600
f 600 598 601
f 600 564 562
f 600 562 597
f 602 599 563
f 602 563 565
f 565 566 602
f 602 566 603
f 600 601 604
f 604 601 605
f 604 567 564
f 604 564 600
f 568 603 566
f 568 606 603
f 605 607 604
f 567 604 607
f 608 567 607
f 569 567 608
f 570 606 568
f 570 609 606
f 608 571 569
f 610 571 608
f 572 609 570
f 572 611 609
f 610 573 571
f 612 573 610
f 615 614 613
f 614 611 613
f 611 574 613
f 611 572 574
f 612 616 573
f 573 616 575
f 576 575 616
f 576 616 617
f 615 613 577
f 578 615 577
f 618 615 578
f 577 613 574
f 617 619 576
f 576 619 579
f 579 620 580
f 619 620 579
f 578 580 618
f 618 580 620
f 623 622 621
f 625 624 621
f 621 624 623
f 627 626 625
f 625 626 624
f 627 628 626
f 621 622 629
f 629 622 630
f 629 582 583
f 625 629 583
f 621 629 625
f 625 583 584
f 625 584 627
f 584 586 627
f 586 628 627
f 586 631 628
f 629 630 589
f 630 588 589
f 630 632 588
f 629 589 582
f 592 634 633
f 631 592 633
f 586 592 631
f 634 635 633
f 632 594 588
f 636 594 632
f 595 634 592
f 595 596 634
f 596 635 634
f 596 637 635
f 636 598 594
f 638 598 636
f 599 637 596
f 599 639 637
f 638 601 598
f 640 601 638
f 641 639 599
f 641 599 602
f 602 603 641
f 641 603 642
f 640 605 601
f 643 605 640
f 606 642 603
f 606 644 642
f 643 645 605
f 605 645 607
f 608 607 645
f 608 645 646
f 609 644 606
f 609 647 644
f 646 610 608
f 648 610 646
f 651 650 649
f 650 647 649
f 647 611 649
f 647 609 611
f 653 612 652
f 612 648 652
f 612 610 648
f 654 653 652
f 651 649 614
f 615 651 614
f 655 651 615
f 614 649 611
f 653 616 612
f 657 656 617
f 657 617 616
f 654 657 616
f 653 654 616
f 659 658 656
f 659 656 657
f 659 655 658
f 655 618 658
f 655 615 618
f 656 619 617
f 619 656 620
f 620 656 658
f 620 658 618
f 662 661 660
f 664 663 660
f 660 663 662
f 666 665 664
f 664 665 663
f 666 667 665
f 660 661 623
f 661 622 623
f 661 668 622
f 660 623 624
f 660 624 664
f 664 624 626
f 664 626 666
f 626 628 666
f 628 667 666
f 628 669 667
f 668 630 622
f 670 630 668
f 631 669 628
f 631 671 669
f 670 632 630
f 672 632 670
f 673 671 631
f 673 631 633
f 633 635 673
f 673 635 674
f 672 636 632
f 675 636 672
f 637 674 635
f 637 676 674
f 675 638 636
f 677 638 675
f 639 676 637
f 639 678 676
f 677 640 638
f 679 640 677
f 639 641 680
f 681 639 680
f 678 639 681
f 642 680 641
f 679 643 640
f 682 643 679
f 681 680 683
f 681 683 684
f 644 683 642
f 642 683 680
f 682 685 643
f 643 685 645
f 646 645 685
f 646 685 686
f 684 683 687
f 684 687 688
f 647 687 644
f 644 687 683
f 686 648 646
f 689 648 686
f 688 687 650
f 651 688 650
f 690 688 651
f 650 687 647
f 689 691 648
f 648 691 652
f 693 692 654
f 652 693 654
f 691 693 652
f 695 694 692
f 695 692 693
f 695 690 694
f 690 655 694
f 690 651 655
f 692 657 654
f 657 692 659
f 659 692 694
f 659 694 655
f 698 697 696
f 700 699 696
f 696 699 698
f 702 701 700
f 700 701 699
f 702 703 701
f 696 697 662
f 697 661 662
f 697 704 661
f 696 662 663
f 696 663 700
f 700 663 665
f 700 665 702
f 665 667 702
f 667 703 702
f 667 705 703
f 704 668 661
f 706 668 704
f 669 705 667
f 669 707 705
f 710 709 708
f 706 710 708
f 670 706 708
f 668 706 670
f 671 712 711
f 707 671 711
f 669 671 707
f 712 713 711
f 708 709 714
f 714 709 715
f 714 672 670
f 714 670 708
f 673 712 671
f 673 674 712
f 674 713 712
f 674 716 713
f 715 717 714
f 672 714 717
f 718 672 717
f 675 672 718
f 676 716 674
f 676 719 716
f 718 677 675
f 720 677 718
f 678 719 676
f 678 721 719
f 720 679 677
f 722 679 720
f 681 721 678
f 681 723 721
f 722 682 679
f 724 682 722
f 684 723 681
f 684 725 723
f 724 726 682
f 682 726 685
f 686 685 726
f 686 726 727
f 688 725 684
f 688 728 725
f 730 689 729
f 689 727 729
f 689 686 727
f 732 731 730
f 732 730 729
f 734 733 731
f 734 731 732
f 734 728 733
f 728 690 733
f 728 688 690
f 730 691 689
f 691 730 693
f 693 730 731
f 693 731 695
f 695 731 733
f 695 733 690
f 737 736 735
f 739 738 735
f 735 738 737
f 741 740 739
f 739 740 738
f 741 742 740
f 735 736 698
f 736 697 698
f 736 743 697
f 735 698 699
f 735 699 739
f 739 699 701
f 739 701 741
f 701 703 741
f 703 742 741
f 703 744 742
f 743 704 697
f 745 704 743
f 705 744 703
f 705 746 744
f 749 748 747
f 745 749 747
f 706 745 747
f 704 745 706
f 707 751 750
f 746 707 750
f 705 707 746
f 751 752 750
f 747 748 710
f 748 709 710
f 748 753 709
f 747 710 706
f 711 751 707
f 711 713 751
f 713 752 751
f 713 754 752
f 753 715 709
f 755 715 753
f 716 754 713
f 716 756 754
f 755 757 715
f 715 757 717
f 718 717 757
f 718 757 758
f 719 756 716
f 719 759 756
f 758 720 718
f 760 720 758
f 721 759 719
f 721 761 759
f 760 722 720
f 762 722 760
f 723 761 721
f 723 763 761
f 765 724 764
f 724 762 764
f 724 722 762
f 766 765 764
f 769 768 767
f 768 763 767
f 763 725 767
f 763 723 725
f 765 726 724
f 771 770 727
f 771 727 726
f 766 771 726
f 765 766 726
f 773 772 770
f 773 770 771
f 772 773 769
f 767 772 769
f 774 772 767
f 728 774 725
f 725 774 767
f 770 729 727
f 729 770 732
f 732 770 772
f 732 772 734
f 734 772 774
f 734 774 728
f 777 776 775
f 779 778 775
f 775 778 777
f 781 780 779
f 779 780 778
f 781 782 780
f 775 776 737
f 776 736 737
f 776 783 736
f 775 737 738
f 775 738 779
f 779 738 740
f 779 740 781
f 740 742 781
f 742 782 781
f 742 784 782
f 783 743 736
f 785 743 783
f 744 784 742
f 744 786 784
f 789 788 787
f 785 789 787
f 745 785 787
f 743 785 745
f 746 791 790
f 786 746 790
f 744 746 786
f 791 792 790
f 787 788 749
f 788 748 749
f 788 793 748
f 787 749 745
f 750 791 746
f 750 752 791
f 752 792 791
f 752 794 792
f 793 753 748
f 795 753 793
f 754 794 752
f 754 796 794
f 798 755 797
f 755 795 797
f 755 753 795
f 799 798 797
f 802 801 800
f 801 796 800
f 796 756 800
f 796 754 756
f 798 757 755
f 758 757 798
f 799 758 798
f 803 758 799
f 802 800 804
f 802 804 805
f 759 804 756
f 756 804 800
f 803 760 758
f 806 760 803
f 805 804 807
f 805 807 808
f 761 807 759
f 759 807 804
f 810 762 809
f 762 806 809
f 762 760 806
f 811 810 809
f 808 807 812
f 808 812 813
f 763 812 761
f 761 812 807
f 810 764 762
f 815 814 766
f 815 766 764
f 811 815 764
f 810 811 764
f 817 816 814
f 817 814 815
f 816 817 813
f 816 813 812
f 769 816 812
f 768 769 812
f 768 812 763
f 814 771 766
f 771 814 773
f 773 814 816
f 773 816 769
f 820 819 818
f 822 821 818
f 818 821 820
f 824 823 822
f 822 823 821
f 824 825 823
f 818 819 777
f 819 776 777
f 819 826 776
f 818 777 778
f 818 778 822
f 822 778 780
f 822 780 824
f 780 782 824
f 782 825 824
f 782 827 825
f 826 783 776
f 828 783 826
f 784 827 782
f 784 829 827
f 832 831 830
f 828 832 830
f 785 828 830
f 783 828 785
f 786 834 833
f 829 786 833
f 784 786 829
f 834 835 833
f 830 831 789
f 831 788 789
f 831 836 788
f 830 789 785
f 790 834 786
f 790 792 834
f 792 835 834
f 792 837 835
f 836 793 788
f 838 793 836
f 794 837 792
f 794 839 837
f 841 795 840
f 795 838 840
f 795 793 838
f 842 841 840
f 845 844 843
f 844 839 843
f 839 796 843
f 839 794 796
f 841 797 795
f 799 797 841
f 842 799 841
f 846 799 842
f 845 843 801
f 802 845 801
f 847 845 802
f 801 843 796
f 846 803 799
f 848 803 846
f 805 847 802
f 805 849 847
f 851 806 850
f 806 848 850
f 806 803 848
f 853 852 851
f 853 851 850
f 855 854 852
f 855 852 853
f 855 849 854
f 849 808 854
f 849 805 808
f 851 809 806
f 809 851 811
f 851 856 811
f 851 852 856
f 857 852 854
f 856 852 857
f 813 857 808
f 808 857 854
f 856 815 811
f 815 856 817
f 817 856 857
f 817 857 813
f 860 859 858
f 858 861 860
f 863 862 820
f 820 862 819
f 821 858 859
f 863 821 859
f 820 821 863
f 864 861 858
f 821 864 858
f 823 864 821
f 823 825 864
f 864 825 865
f 862 826 819
f 866 826 862
f 827 865 825
f 827 867 865
f 866 828 826
f 868 828 866
f 829 867 827
f 829 869 867
f 871 870 832
f 832 870 831
f 832 828 868
f 832 868 871
f 872 869 829
f 872 829 833
f 833 835 872
f 872 835 873
f 870 836 831
f 874 836 870
f 837 873 835
f 837 875 873
f 877 838 876
f 838 874 876
f 838 836 874
f 878 877 876
f 881 880 879
f 880 875 879
f 875 839 879
f 875 837 839
f 877 840 838
f 842 840 877
f 878 842 877
f 882 842 878
f 881 879 844
f 845 881 844
f 883 881 845
f 844 879 839
f 882 846 842
f 884 846 882
f 847 883 845
f 847 885 883
f 887 848 886
f 848 884 886
f 848 846 884
f 889 888 887
f 889 887 886
f 891 890 888
f 891 888 889
f 891 885 890
f 885 849 890
f 885 847 849
f 887 850 848
f 850 887 853
f 853 887 888
f 853 888 855
f 855 888 890
f 855 890 849
f 894 893 892
f 892 895 894
f 898 897 896
f 898 896 893
f 893 896 892
f 896 859 892
f 859 860 892
f 900 899 861
f 861 899 860
f 899 895 860
f 895 892 860
f 900 901 899
f 896 897 863
f 897 862 863
f 897 902 862
f 896 863 859
f 864 900 861
f 864 865 900
f 865 901 900
f 865 903 901
f 902 866 862
f 904 866 902
f 867 903 865
f 867 905 903
f 908 907 906
f 904 908 906
f 868 904 906
f 866 904 868
f 869 910 909
f 905 869 909
f 867 869 905
f 910 911 909
f 906 907 871
f 907 870 871
f 907 912 870
f 906 871 868
f 872 910 869
f 872 873 910
f 873 911 910
f 873 913 911
f 915 874 914
f 874 912 914
f 874 870 912
f 916 915 914
f 919 918 917
f 918 913 917
f 913 875 917
f 913 873 875
f 915 876 874
f 878 876 915
f 916 878 915
f 920 878 916
f 919 917 880
f 881 919 880
f 921 919 881
f 880 917 875
f 920 882 878
f 922 882 920
f 883 921 881
f 883 923 921
f 925 884 924
f 884 922 924
f 884 882 922
f 927 926 925
f 927 925 924
f 929 928 926
f 929 926 927
f 929 923 928
f 923 885 928
f 923 883 885
f 925 886 884
f 886 925 889
f 889 925 926
f 889 926 891
f 891 926 928
f 891 928 885
f 932 931 930
f 934 933 930
f 930 933 932
f 934 935 933
f 938 937 936
f 938 936 931
f 931 936 930
f 936 893 930
f 893 894 930
f 930 894 895
f 939 930 895
f 934 930 939
f 935 934 940
f 940 934 939
f 936 937 898
f 937 897 898
f 937 941 897
f 936 898 893
f 899 939 895
f 899 901 939
f 901 940 939
f 901 942 940
f 941 902 897
f 943 902 941
f 903 942 901
f 903 944 942
f 947 946 945
f 943 947 945
f 904 943 945
f 902 943 904
f 905 949 948
f 944 905 948
f 903 905 944
f 949 950 948
f 945 946 908
f 946 907 908
f 946 951 907
f 945 908 904
f 909 949 905
f 909 911 949
f 911 950 949
f 911 952 950
f 954 912 953
f 912 951 953
f 912 907 951
f 955 954 953
f 958 957 956
f 957 952 956
f 952 913 956
f 952 911 913
f 954 914 912
f 916 914 954
f 955 916 954
f 959 916 955
f 958 956 918
f 919 958 918
f 960 958 919
f 918 956 913
f 959 920 916
f 961 920 959
f 921 960 919
f 921 962 960
f 964 922 963
f 922 961 963
f 922 920 961
f 965 964 963
f 968 967 966
f 967 962 966
f 962 923 966
f 962 921 923
f 964 924 922
f 965 969 964
f 969 924 964
f 969 927 924
f 966 929 968
f 929 969 968
f 929 927 969
f 929 966 923
f 972 971 970
f 974 973 970
f 970 973 972
f 974 975 973
f 978 977 976
f 978 976 971
f 971 976 970
f 976 931 970
f 931 932 970
f 970 932 933
f 970 933 974
f 933 935 974
f 935 975 974
f 935 979 975
f 976 977 938
f 977 937 938
f 977 980 937
f 976 938 931
f 940 979 935
f 940 981 979
f 980 941 937
f 982 941 980
f 942 984 983
f 981 942 983
f 940 942 981
f 984 985 983
f 988 987 986
f 982 988 986
f 943 982 986
f 941 982 943
f 944 989 984
f 944 984 942
f 985 984 990
f 990 984 989
f 986 987 947
f 987 946 947
f 987 991 946
f 986 947 943
f 948 989 944
f 948 950 989
f 950 990 989
f 950 992 990
f 994 951 993
f 951 991 993
f 951 946 991
f 995 994 993
f 998 997 996
f 997 992 996
f 992 952 996
f 992 950 952
f 994 953 951
f 955 953 994
f 995 955 994
f 999 955 995
f 998 996 957
f 958 998 957
f 1000 998 958
f 957 996 952
f 999 959 955
f 1001 959 999
f 960 1000 958
f 960 1002 1000
f 1004 961 1003
f 961 1001 1003
f 961 959 1001
f 1005 1004 1003
f 1008 1007 1006
f 1007 1002 1006
f 1002 962 1006
f 1002 960 962
f 1004 963 961
f 1010 1009 965
f 1010 965 963
f 1005 1010 963
f 1004 1005 963
f 1009 1010 1008
f 1009 1008 1006
f 968 1009 1006
f 967 968 1006
f 967 1006 962
f 1009 969 965
f 969 1009 968
f 1013 1012 1011
f 1015 1014 1011
f 1011 1014 1013
f 1015 1016 1014
f 1019 1018 1017
f 1019 1017 1012
f 1012 1017 1011
f 1017 971 1011
f 971 972 1011
f 1011 972 973
f 1011 973 1015
f 973 975 1015
f 975 1016 1015
f 975 1020 1016
f 1017 1018 978
f 1018 977 978
f 1018 1021 977
f 1017 978 971
f 979 1023 1022
f 1020 979 1022
f 975 979 1020
f 1023 1024 1022
f 1021 980 977
f 1025 980 1021
f 981 1026 1023
f 981 1023 979
f 1024 1023 1027
f 1027 1023 1026
f 1025 982 980
f 1028 982 1025
f 983 1026 981
f 983 985 1026
f 985 1027 1026
f 985 1029 1027
f 1030 987 988
f 1031 1030 988
f 982 1031 988
f 1028 1031 982
f 990 1029 985
f 990 1032 1029
f 1033 991 1030
f 1030 991 987
f 1030 1031 1034
f 1030 1034 1033
f 992 1032 990
f 992 1035 1032
f 1033 993 991
f 995 993 1033
f 1034 995 1033
f 1036 995 1034
f 1038 1037 997
f 1038 997 998
f 992 997 1035
f 1035 997 1037
f 1036 999 995
f 1039 999 1036
f 1000 1038 998
f 1000 1040 1038
f 1042 1001 1041
f 1001 1039 1041
f 1001 999 1039
f 1043 1042 1041
f 1046 1045 1044
f 1045 1040 1044
f 1040 1002 1044
f 1040 1000 1002
f 1042 1003 1001
f 1048 1047 1005
f 1048 1005 1003
f 1043 1048 1003
f 1042 1043 1003
f 1047 1048 1046
f 1047 1046 1044
f 1008 1047 1044
f 1007 1008 1044
f 1007 1044 1002
f 1047 1010 1005
f 1010 1047 1008
f 1051 1050 1049
f 1053 1052 1049
f 1049 1052 1051
f 1053 1054 1052
f 1057 1056 1055
f 1057 1055 1050
f 1050 1055 1049
f 1055 1012 1049
f 1012 1013 1049
f 1049 1013 1014
f 1049 1014 1053
f 1059 1058 1016
f 1016 1058 1014
f 1058 1054 1014
f 1054 1053 1014
f 1059 1060 1058
f 1055 1056 1019
f 1056 1018 1019
f 1056 1061 1018
f 1055 1019 1012
f 1020 1062 1059
f 1020 1059 1016
f 1060 1059 1063
f 1063 1059 1062
f 1061 1021 1018
f 1064 1021 1061
f 1022 1062 1020
f 1022 1024 1062
f 1024 1063 1062
f 1024 1065 1063
f 1064 1025 1021
f 1066 1025 1064
f 1027 1065 1024
f 1027 1067 1065
f 1066 1028 1025
f 1068 1028 1066
f 1029 1067 1027
f 1029 1069 1067
f 1068 1031 1028
f 1070 1031 1068
f 1032 1069 1029
f 1032 1071 1069
f 1070 1034 1031
f 1072 1034 1070
f 1075 1074 1073
f 1074 1071 1073
f 1071 1035 1073
f 1071 1032 1035
f 1072 1036 1034
f 1076 1036 1072
f 1075 1073 1037
f 1038 1075 1037
f 1077 1075 1038
f 1037 1073 1035
f 1079 1039 1078
f 1039 1076 1078
f 1039 1036 1076
f 1080 1079 1078
f 1083 1082 1081
f 1082 1077 1081
f 1077 1040 1081
f 1077 1038 1040
f 1079 1041 1039
f 1085 1084 1043
f 1085 1043 1041
f 1080 1085 1041
f 1079 1080 1041
f 1084 1085 1083
f 1084 1083 1081
f 1046 1084 1081
f 1045 1046 1081
f 1045 1081 1040
f 1084 1048 1043
f 1048 1084 1046
f 1088 1087 1086
f 1090 1089 1086
f 1086 1089 1088
f 1090 1091 1089
f 1094 1093 1092
f 1094 1092 1087
f 1087 1092 1086
f 1092 1050 1086
f 1050 1051 1086
f 1086 1051 1052
f 1086 1052 1090
f 1096 1095 1054
f 1054 1095 1052
f 1095 1091 1052
f 1091 1090 1052
f 1096 1097 1095
f 1092 1093 1057
f 1093 1056 1057
f 1093 1098 1056
f 1092 1057 1050
f 1058 1096 1054
f 1058 1060 1096
f 1060 1097 1096
f 1060 1099 1097
f 1098 1061 1056
f 1100 1061 1098
f 1063 1099 1060
f 1063 1101 1099
f 1100 1064 1061
f 1102 1064 1100
f 1065 1101 1063
f 1065 1103 1101
f 1102 1066 1064
f 1104 1066 1102
f 1067 1103 1065
f 1067 1105 1103
f 1104 1068 1066
f 1106 1068 1104
f 1069 1105 1067
f 1069 1107 1105
f 1106 1070 1068
f 1108 1070 1106
f 1071 1107 1069
f 1071 1109 1107
f 1108 1072 1070
f 1110 1072 1108
f 1112 1111 1074
f 1112 1074 1075
f 1071 1074 1109
f 1109 1074 1111
f 1114 1076 1113
f 1076 1110 1113
f 1076 1072 1110
f 1115 1114 1113
f 1118 1117 1116
f 1117 1112 1116
f 1112 1077 1116
f 1112 1075 1077
f 1114 1078 1076
f 1120 1119 1080
f 1120 1080 1078
f 1115 1120 1078
f 1114 1115 1078
f 1119 1120 1118
f 1119 1118 1116
f 1083 1119 1116
f 1082 1083 1116
f 1082 1116 1077
f 1119 1085 1080
f 1085 1119 1083
f 1123 1122 1121
f 1125 1124 1121
f 1121 1124 1123
f 1125 1126 1124
f 1121 1122 1088
f 1122 1087 1088
f 1122 1127 1087
f 1121 1088 1089
f 1121 1089 1125
f 1129 1128 1091
f 1091 1128 1089
f 1128 1126 1089
f 1126 1125 1089
f 1129 1130 1128
f 1132 1131 1094
f 1094 1131 1093
f 1094 1087 1127
f 1094 1127 1132
f 1095 1129 1091
f 1095 1097 1129
f 1097 1130 1129
f 1097 1133 1130
f 1131 1098 1093
f 1134 1098 1131
f 1099 1133 1097
f 1099 1135 1133
f 1134 1100 1098
f 1136 1100 1134
f 1101 1135 1099
f 1101 1137 1135
f 1136 1102 1100
f 1138 1102 1136
f 1103 1137 1101
f 1103 1139 1137
f 1138 1104 1102
f 1140 1104 1138
f 1105 1139 1103
f 1105 1141 1139
f 1140 1106 1104
f 1142 1106 1140
f 1107 1141 1105
f 1107 1143 1141
f 1142 1108 1106
f 1144 1108 1142
f 1147 1146 1145
f 1146 1143 1145
f 1143 1109 1145
f 1143 1107 1109
f 1149 1110 1148
f 1110 1144 1148
f 1110 1108 1144
f 1150 1149 1148
f 1153 1152 1151
f 1151 1152 1147
f 1151 1147 1145
f 1112 1151 1145
f 1111 1112 1145
f 1111 1145 1109
f 1149 1113 1110
f 1155 1154 1115
f 1155 1115 1113
f 1150 1155 1113
f 1149 1150 1113
f 1154 1155 1153
f 1154 1153 1151
f 1118 1154 1151
f 1117 1118 1151
f 1117 1151 1112
f 1154 1120 1115
f 1120 1154 1118
f 1158 1157 1156
f 1160 1159 1156
f 1156 1159 1158
f 1162 1161 1160
f 1160 1161 1159
f 1162 1163 1161
f 1156 1157 1123
f 1157 1122 1123
f 1157 1164 1122
f 1156 1123 1124
f 1156 1124 1160
f 1160 1124 1126
f 1165 1160 1126
f 1162 1160 1165
f 1163 1162 1166
f 1166 1162 1165
f 1169 1168 1167
f 1164 1169 1167
f 1127 1164 1167
f 1122 1164 1127
f 1128 1165 1126
f 1128 1130 1165
f 1130 1166 1165
f 1130 1170 1166
f 1167 1168 1132
f 1168 1131 1132
f 1168 1171 1131
f 1167 1132 1127
f 1133 1170 1130
f 1133 1172 1170
f 1171 1134 1131
f 1173 1134 1171
f 1135 1172 1133
f 1135 1174 1172
f 1173 1136 1134
f 1175 1136 1173
f 1137 1174 1135
f 1137 1176 1174
f 1175 1138 1136
f 1177 1138 1175
f 1139 1176 1137
f 1139 1178 1176
f 1177 1140 1138
f 1179 1140 1177
f 1141 1178 1139
f 1141 1180 1178
f 1179 1142 1140
f 1181 1142 1179
f 1184 1183 1182
f 1183 1180 1182
f 1180 1143 1182
f 1180 1141 1143
f 1186 1144 1185
f 1144 1181 1185
f 1144 1142 1181
f 1187 1186 1185
f 1184 1182 1146
f 1147 1184 1146
f 1188 1184 1147
f 1146 1182 1143
f 1186 1148 1144
f 1190 1189 1150
f 1190 1150 1148
f 1187 1190 1148
f 1186 1187 1148
f 1152 1153 1189
f 1190 1152 1189
f 1191 1152 1190
f 1147 1152 1188
f 1188 1152 1191
f 1189 1155 1150
f 1155 1189 1153
f 1194 1193 1192
f 1196 1195 1192
f 1192 1195 1194
f 1198 1197 1196
f 1196 1197 1195
f 1198 1199 1197
f 1192 1193 1158
f 1193 1157 1158
f 1193 1200 1157
f 1192 1158 1159
f 1192 1159 1196
f 1196 1159 1161
f 1196 1161 1198
f 1161 1163 1198
f 1163 1199 1198
f 1163 1201 1199
f 1204 1203 1202
f 1200 1204 1202
f 1164 1200 1202
f 1157 1200 1164
f 1166 1201 1163
f 1166 1205 1201
f 1202 1203 1169
f 1203 1168 1169
f 1203 1206 1168
f 1202 1169 1164
f 1170 1205 1166
f 1170 1207 1205
f 1206 1171 1168
f 1208 1171 1206
f 1172 1207 1170
f 1172 1209 1207
f 1208 1173 1171
f 1210 1173 1208
f 1174 1209 1172
f 1174 1211 1209
f 1210 1175 1173
f 1212 1175 1210
f 1176 1211 1174
f 1176 1213 1211
f 1212 1177 1175
f 1214 1177 1212
f 1178 1213 1176
f 1178 1215 1213
f 1217 1179 1216
f 1179 1214 1216
f 1179 1177 1214
f 1218 1217 1216
f 1221 1220 1219
f 1220 1215 1219
f 1215 1180 1219
f 1215 1178 1180
f 1222 1181 1217
f 1217 1181 1179
f 1217 1218 1223
f 1217 1223 1222
f 1221 1219 1183
f 1184 1221 1183
f 1224 1221 1184
f 1183 1219 1180
f 1222 1185 1181
f 1226 1225 1187
f 1226 1187 1185
f 1223 1226 1185
f 1222 1223 1185
f 1228 1227 1225
f 1228 1225 1226
f 1228 1224 1227
f 1224 1188 1227
f 1224 1184 1188
f 1225 1190 1187
f 1190 1225 1191
f 1191 1225 1227
f 1191 1227 1188
f 1230 1229 1194
f 1194 1229 1193
f 1231 1194 1195
f 1231 1230 1194
f 1232 1195 1197
f 1232 1231 1195
f 1197 1199 1232
f 1232 1199 1233
f 1229 1200 1193
f 1234 1200 1229
f 1201 1233 1199
f 1201 1235 1233
f 1237 1236 1204
f 1204 1236 1203
f 1204 1200 1234
f 1204 1234 1237
f 1205 1235 1201
f 1205 1238 1235
f 1236 1206 1203
f 1239 1206 1236
f 1207 1238 1205
f 1207 1240 1238
f 1239 1208 1206
f 1241 1208 1239
f 1209 1240 1207
f 1209 1242 1240
f 1241 1210 1208
f 1243 1210 1241
f 1211 1242 1209
f 1211 1244 1242
f 1243 1212 1210
f 1245 1212 1243
f 1213 1244 1211
f 1213 1246 1244
f 1248 1214 1247
f 1214 1245 1247
f 1214 1212 1245
f 1249 1248 1247
f 1252 1251 1250
f 1251 1246 1250
f 1246 1215 1250
f 1246 1213 1215
f 1248 1216 1214
f 1254 1253 1218
f 1254 1218 1216
f 1249 1254 1216
f 1248 1249 1216
f 1256 1255 1253
f 1256 1253 1254
f 1255 1256 1252
f 1255 1252 1250
f 1221 1255 1250
f 1220 1221 1250
f 1220 1250 1215
f 1257 1223 1253
f 1253 1223 1218
f 1258 1253 1255
f 1257 1253 1258
f 1224 1258 1221
f 1221 1258 1255
f 1257 1226 1223
f 1226 1257 1228
f 1228 1257 1258
f 1228 1258 1224
f 1259 1229 1230
f 1231 1260 1230
f 1230 1260 1259
f 1232 1261 1231
f 1231 1261 1260
f 1233 1261 1232
f 1264 1263 1262
f 1265 1264 1259
f 1264 1234 1259
f 1234 1229 1259
f 1264 1262 1234
f 1265 1259 1260
f 1265 1260 1266
f 1266 1260 1261
f 1266 1261 1267
f 1261 1233 1267
f 1233 1268 1267
f 1233 1235 1268
f 1262 1263 1237
f 1263 1236 1237
f 1263 1269 1236
f 1262 1237 1234
f 1238 1271 1270
f 1268 1238 1270
f 1235 1238 1268
f 1271 1272 1270
f 1269 1239 1236
f 1273 1239 1269
f 1275 1274 1271
f 1238 1275 1271
f 1240 1275 1238
f 1271 1274 1272
f 1273 1241 1239
f 1276 1241 1273
f 1242 1275 1240
f 1242 1277 1275
f 1279 1243 1278
f 1243 1276 1278
f 1243 1241 1276
f 1280 1279 1278
f 1244 1277 1242
f 1244 1281 1277
f 1282 1245 1279
f 1279 1245 1243
f 1279 1280 1283
f 1279 1283 1282
f 1246 1281 1244
f 1246 1284 1281
f 1282 1247 1245
f 1286 1285 1249
f 1286 1249 1247
f 1283 1286 1247
f 1282 1283 1247
f 1288 1287 1285
f 1288 1285 1286
f 1251 1252 1287
f 1288 1251 1287
f 1289 1251 1288
f 1246 1251 1284
f 1284 1251 1289
f 1285 1254 1249
f 1254 1285 1256
f 1256 1285 1287
f 1256 1287 1252
f 1290 1263 1264
f 1265 1291 1264
f 1264 1291 1290
f 1266 1292 1265
f 1265 1292 1291
f 1267 1293 1266
f 1266 1293 1292
f 1268 1293 1267
f 1295 1294 1290
f 1294 1263 1290
f 1294 1269 1263
f 1295 1290 1291
f 1295 1291 1296
f 1296 1291 1292
f 1296 1292 1297
f 1297 1292 1293
f 1297 1293 1298
f 1300 1298 1299
f 1299 1298 1270
f 1298 1293 1270
f 1293 1268 1270
f 1272 1299 1270
f 1302 1273 1301
f 1273 1294 1301
f 1273 1269 1294
f 1303 1302 1301
f 1300 1299 1274
f 1275 1300 1274
f 1304 1300 1275
f 1274 1299 1272
f 1305 1276 1302
f 1302 1276 1273
f 1302 1303 1306
f 1302 1306 1305
f 1277 1304 1275
f 1277 1307 1304
f 1305 1278 1276
f 1280 1278 1305
f 1306 1280 1305
f 1308 1280 1306
f 1281 1307 1277
f 1281 1309 1307
f 1311 1283 1310
f 1283 1308 1310
f 1283 1280 1308
f 1313 1312 1311
f 1313 1311 1310
f 1315 1314 1312
f 1315 1312 1313
f 1315 1309 1314
f 1309 1284 1314
f 1309 1281 1284
f 1311 1286 1283
f 1286 1311 1288
f 1288 1311 1312
f 1288 1312 1289
f 1289 1312 1314
f 1289 1314 1284
f 1316 1294 1295
f 1296 1317 1295
f 1295 1317 1316
f 1297 1318 1296
f 1296 1318 1317
f 1298 1319 1297
f 1297 1319 1318
f 1300 1319 1298
f 1316 1301 1294
f 1316 1317 1320
f 1303 1316 1320
f 1321 1303 1320
f 1316 1303 1301
f 1320 1317 1318
f 1320 1318 1322
f 1322 1318 1319
f 1322 1319 1323
f 1319 1300 1323
f 1300 1324 1323
f 1300 1304 1324
f 1321 1306 1303
f 1325 1306 1321
f 1307 1324 1304
f 1307 1326 1324
f 1328 1308 1327
f 1308 1325 1327
f 1308 1306 1325
f 1330 1329 1328
f 1330 1328 1327
f 1332 1331 1329
f 1332 1329 1330
f 1332 1326 1331
f 1326 1309 1331
f 1326 1307 1309
f 1328 1310 1308
f 1310 1328 1313
f 1313 1328 1329
f 1313 1329 1315
f 1315 1329 1331
f 1315 1331 1309
f 1333 1321 1320
f 1322 1334 1320
f 1320 1334 1333
f 1323 1335 1322
f 1322 1335 1334
f 1324 1335 1323
f 1336 1325 1333
f 1333 1325 1321
f 1337 1333 1334
f 1336 1333 1337
f 1338 1334 1335
f 1337 1334 1338
f 1326 1338 1324
f 1324 1338 1335
f 1336 1327 1325
f 1327 1336 1330
f 1330 1336 1337
f 1330 1337 1332
f 1332 1337 1338
f 1332 1338 1326
# 2672 faces, 0 coords texture

# End of File