####
#
# OBJ File Generated by Meshlab
#
####
# Object domain120.obj
#
# Vertices: 537
# Faces: 1074
#
####
v 134.848145 361.266693 116.452896
v 129.600525 356.886475 122.910019
v 125.771690 355.838104 115.527679
v 144.653137 371.502380 125.103447
v 139.758087 377.458679 130.010757
v 144.749756 371.493195 125.480141
v 135.796402 371.694580 130.138702
v 142.222244 373.689178 121.633904
v 139.800308 372.326965 130.970657
v 129.380753 380.498810 114.528252
v 135.539474 364.790863 126.852104
v 141.643600 372.168976 130.728607
v 126.174385 358.906738 121.110054
v 137.767410 373.586823 119.264854
v 134.746368 373.612213 116.521011
v 131.297562 355.931152 114.237083
v 137.721588 377.444275 130.003052
v 140.211807 362.926331 121.343193
v 129.503571 380.704407 115.762566
v 127.523552 354.611481 117.583191
v 130.721100 365.371521 124.289276
v 136.036865 373.638489 130.753906
v 133.637695 358.965424 125.333900
v 126.238777 379.196442 117.405891
v 125.116325 367.421936 117.501144
v 129.508789 354.394348 117.532173
v 127.465477 380.578979 115.707077
v 134.867752 363.319672 116.432533
v 124.541176 369.382629 112.712563
v 133.609482 378.994385 123.028244
v 132.499344 357.769867 124.755867
v 125.439568 354.817719 119.707497
v 133.624008 357.660736 125.023460
v 141.983536 369.262299 128.592239
v 134.034363 369.356567 115.476891
v 133.475693 365.327576 126.634087
v 127.572174 363.319702 122.201004
v 128.948975 373.377686 112.884605
v 136.471237 372.416656 130.739807
v 144.607285 373.733948 128.232254
v 143.140579 369.472443 122.411163
v 125.591988 367.416870 119.731529
v 133.580597 354.190643 119.265160
v 129.563263 354.383240 121.200096
v 131.692200 375.932617 126.248177
v 125.623367 371.508484 119.727676
v 137.685471 357.814026 124.849197
v 136.834808 371.951355 118.660385
v 126.990669 377.854492 112.921097
v 135.659134 378.973480 123.026627
v 124.427284 361.444366 114.145226
v 129.360321 358.929230 112.354729
v 124.981796 361.191559 117.760208
v 135.694199 358.984589 117.718109
v 123.857124 356.844940 111.303802
v 131.013596 361.250336 124.327866
v 129.085464 371.510986 112.822708
v 129.889053 355.157684 122.163963
v 126.311592 373.563995 121.334961
v 132.949600 358.926361 114.527847
v 135.553802 354.491669 121.811356
v 134.054962 358.926544 115.612198
v 124.459953 375.911316 113.112152
v 134.656342 369.670258 116.153053
v 126.293571 363.297791 121.116295
v 135.386795 354.501770 120.305885
v 134.524963 370.645508 128.966614
v 133.626022 356.808502 124.572067
v 130.518112 358.925079 112.793945
v 133.865082 369.572052 127.906502
v 137.723022 371.346710 130.361389
v 125.527740 361.267487 112.057983
v 137.708923 378.417938 126.177162
v 124.765190 369.465973 115.567108
v 124.531693 358.705658 112.501503
v 137.743881 373.600616 131.185120
v 129.418976 375.943085 124.188011
v 144.385391 372.062042 127.752029
v 142.029861 364.978699 126.456306
v 135.990051 367.428772 117.557167
v 124.641327 363.334564 112.613777
v 127.420341 356.202576 112.897583
v 133.666077 363.409760 126.131119
v 137.719070 372.361511 130.940765
v 125.042603 363.322021 117.501205
v 124.954613 358.932098 117.814400
v 134.078201 361.269318 115.592407
v 124.671196 361.254822 115.485764
v 131.557877 354.018585 120.048721
v 139.767914 378.132965 122.142616
v 133.616821 378.191010 125.973656
v 124.613586 354.099884 120.017426
v 133.617584 361.356323 125.735542
v 137.707031 370.283630 129.569778
v 133.458893 375.894348 128.382080
v 141.459595 371.501892 120.603874
v 126.739487 378.558319 120.776413
v 127.505066 355.029083 115.911255
v 135.659348 358.942169 125.465370
v 142.348953 369.500031 121.295593
v 125.950386 354.969513 120.806000
v 131.602203 373.598785 113.971542
v 131.140976 358.948822 124.199982
v 139.722656 367.510315 127.984909
v 129.506943 354.038574 119.216026
v 132.412460 361.452179 125.270149
v 129.436462 358.892731 123.168350
v 130.623444 369.416046 124.448502
v 140.447418 360.600494 123.762093
v 139.793182 361.180634 122.012306
v 142.858246 377.132324 126.607216
v 143.952850 371.420929 128.446838
v 124.384163 361.257935 113.229767
v 132.932938 367.420868 114.574120
v 141.422318 363.581329 122.382706
v 141.764114 367.529205 127.690826
v 139.757172 373.599915 131.253723
v 142.899765 367.380035 122.545876
v 128.019043 378.068176 113.163445
v 129.488464 373.523651 124.104790
v 139.703354 371.319427 130.435501
v 138.654129 358.103729 124.735497
v 136.862244 357.034027 120.229439
v 137.788345 369.613831 118.931358
v 127.562668 358.926483 122.196083
v 127.942482 375.915253 123.161095
v 133.142380 371.518829 114.757088
v 131.606583 369.534760 113.763657
v 132.274063 363.374084 125.476845
v 142.340393 371.489197 121.300385
v 134.469955 355.551849 117.098419
v 124.474533 377.371216 113.086388
v 131.679260 356.978821 124.017189
v 141.224960 373.437042 120.687828
v 130.193726 369.710663 113.097557
v 131.346237 379.811279 114.678902
v 134.966599 355.360901 117.958305
v 124.508583 365.371155 114.327545
v 134.529602 371.609131 116.062485
v 137.744339 375.855438 131.108170
v 129.452850 376.019348 113.254807
v 125.315102 358.901031 119.675095
v 141.679169 375.873352 122.090263
v 141.795685 376.813477 130.736145
v 136.523834 358.109009 119.107697
v 127.585159 378.711304 121.483414
v 136.975388 355.805725 123.246635
v 131.608719 354.443298 121.682053
v 132.778961 369.491577 126.956085
v 143.530487 367.582947 124.588364
v 141.211349 361.539673 124.461670
v 133.613571 378.663757 124.470268
v 135.712646 377.809814 128.393951
v 129.995392 365.370422 123.619324
v 142.148666 367.430603 121.357117
v 132.896362 375.722656 114.857063
v 133.080658 373.559631 114.834991
v 124.421638 373.538086 114.103920
v 129.289856 363.319672 112.365776
v 132.862106 356.919189 114.647491
v 142.917374 376.847229 129.966415
v 138.504883 378.522278 121.064354
v 139.739014 378.237701 126.167458
v 129.184555 367.411377 123.099533
v 125.614288 369.466797 119.729431
v 124.927238 356.929352 115.499710
v 135.771652 377.300781 129.905243
v 137.804047 361.177094 119.710640
v 125.621948 377.898956 117.764526
v 141.260071 367.454224 120.540329
v 132.045410 367.408112 125.934502
v 137.716049 365.737213 127.272346
v 137.779007 375.980377 119.580208
v 127.436920 354.165375 119.245110
v 125.445976 375.903412 112.829262
v 135.775986 365.882904 127.221855
v 124.303940 358.878174 113.172920
v 129.058609 369.331909 123.133476
v 134.071457 367.431519 115.604248
v 137.649475 378.899506 121.794060
v 132.396698 359.001984 124.985123
v 124.649437 361.243958 112.618149
v 129.295319 361.244965 112.317825
v 142.933456 371.995270 129.808853
v 127.472801 377.964661 122.440804
v 126.474640 378.908875 113.081642
v 131.070786 378.360748 124.888756
v 125.307190 376.008728 117.741730
v 137.586609 356.977448 122.125214
v 131.581482 363.317749 113.454269
v 125.495697 365.359894 112.101669
v 135.659073 378.723145 124.481697
v 127.391243 379.760834 113.726410
v 143.277237 375.714233 124.429199
v 125.132111 371.524109 117.496140
v 140.344879 364.273193 126.753777
v 127.452873 355.585266 113.945068
v 144.296082 375.130219 128.357285
v 134.002213 373.538879 115.667625
v 124.392059 375.894226 113.239075
v 137.109451 368.820709 118.511627
v 123.179413 356.824524 111.416656
v 129.969589 367.415344 123.644203
v 131.511429 355.060425 115.963516
v 135.637527 370.503448 129.348465
v 127.560745 379.413208 119.690109
v 133.615814 379.242004 121.797119
v 127.569099 367.425659 122.208153
v 127.445572 371.523468 112.489754
v 132.843292 377.456299 127.165764
v 129.823257 373.697174 113.191399
v 125.461044 369.444733 112.284142
v 132.957825 363.319946 114.517303
v 127.469978 380.715790 114.960457
v 135.592758 355.419220 123.370529
v 137.707413 378.664764 124.475159
v 135.644485 373.610016 117.674591
v 125.407913 363.303955 119.433952
v 144.636093 373.532013 126.572815
v 126.081184 356.719147 121.027176
v 131.527359 380.535583 115.743980
v 128.846497 370.912292 123.233002
v 143.379913 367.596405 126.286339
v 127.420303 367.404083 112.173241
v 135.632477 369.161530 128.472412
v 129.506989 354.023743 120.042572
v 138.545502 360.456787 120.958504
v 143.921051 369.552521 124.298248
v 142.810364 365.826080 126.027428
v 140.888657 375.141907 120.920410
v 125.332085 356.137604 112.692467
v 133.472473 371.641663 128.170197
v 125.494652 365.457336 119.518997
v 131.713638 373.565491 126.249809
v 125.124023 369.472961 117.499947
v 127.670433 355.177948 121.598923
v 139.751892 377.958740 128.446243
v 140.084106 370.222504 129.661301
v 130.674240 367.417145 124.318542
v 130.468170 356.915771 112.929306
v 136.133560 377.975067 119.208244
v 141.887390 371.418304 130.352798
v 125.786636 378.803223 113.122604
v 124.408669 363.324310 113.207352
v 129.511520 379.730652 119.785530
v 135.433426 378.914307 119.878685
v 139.765213 376.832336 130.760452
v 125.630318 373.556763 119.624496
v 125.980270 377.893372 119.428802
v 134.895309 377.044159 129.490021
v 138.208633 367.545227 119.035278
v 129.500641 379.124512 121.774605
v 130.287231 356.265717 113.203072
v 134.748123 375.875702 129.827133
v 135.662170 361.347382 125.974312
v 124.949760 377.934357 113.939819
v 124.787857 365.372284 115.560196
v 133.506546 354.757446 117.672859
v 133.854034 377.264923 128.020737
v 125.797447 379.679626 114.005310
v 139.595520 359.140045 124.215416
v 130.028656 371.542206 113.143784
v 126.010788 380.487274 114.705223
v 139.696945 371.517059 119.793297
v 136.741165 373.610107 118.726364
v 127.446251 375.916626 112.789337
v 137.714844 361.338196 125.963699
v 139.192032 377.621674 120.919975
v 126.228889 361.251251 121.111336
v 131.857498 355.457001 123.102791
v 135.927231 361.216064 117.644829
v 134.066132 365.371552 115.601265
v 143.809708 375.862366 126.461121
v 144.324921 370.189636 126.283669
v 125.460693 367.396118 112.156387
v 143.060150 365.496887 124.374825
v 129.475052 355.601624 113.956299
v 144.737991 371.498108 125.426048
v 135.374237 356.840302 117.627792
v 131.547363 380.230804 117.484711
v 124.463165 356.883301 111.140915
v 142.502823 373.684143 130.737823
v 134.738083 373.602448 129.833939
v 131.503082 365.378357 113.466820
v 132.633682 379.850525 115.149704
v 131.516281 375.913696 114.083900
v 141.748611 377.328064 130.001846
v 124.468445 373.464508 113.083160
v 127.607880 356.898682 122.076912
v 123.789711 356.859863 111.267181
v 124.514557 363.321228 114.314140
v 133.028488 369.353973 114.653458
v 138.237228 365.361511 119.123703
v 139.296127 363.522888 120.257591
v 137.630524 377.890228 120.144310
v 137.363373 365.368866 118.578529
v 124.592125 354.091705 120.014595
v 124.485657 367.421356 114.361458
v 123.938148 356.869598 111.226418
v 143.516571 369.731628 127.667419
v 124.162880 356.794403 113.267258
v 133.509903 355.584625 116.170090
v 126.327103 365.330078 121.114021
v 129.507385 380.309631 117.497452
v 129.347214 369.397125 112.772064
v 134.509476 379.275024 117.823830
v 133.275162 379.764404 115.864853
v 141.598206 377.531403 124.470146
v 135.665863 357.647461 125.055687
v 132.962830 361.269257 114.512840
v 127.098663 375.898010 122.414551
v 134.643494 371.585266 129.429321
v 142.628845 375.974304 130.798950
v 136.326157 356.878296 119.280167
v 133.553848 379.536255 119.762260
v 143.507156 373.711487 129.875885
v 142.630936 376.758270 130.553574
v 138.942413 364.546631 126.939796
v 137.212570 359.044769 119.822388
v 126.382362 375.906036 121.326912
v 137.713699 378.009155 128.451141
v 125.999931 379.866272 115.432465
v 124.783348 367.420685 115.565849
v 139.794510 365.465576 127.264580
v 136.486435 376.007690 118.758415
v 134.884415 367.414368 116.423134
v 137.732513 368.994843 128.679977
v 128.021225 377.821503 123.068237
v 129.420227 356.204010 112.993874
v 133.936646 356.927765 115.716713
v 124.758011 363.335876 115.558754
v 137.729462 376.817261 130.732864
v 137.686188 358.982086 125.327866
v 129.235886 361.168243 123.101906
v 137.699982 364.566437 126.925781
v 125.495377 355.819183 113.879211
v 125.658463 375.751099 119.419510
v 133.733749 367.626190 127.319611
v 141.762009 375.867767 131.100006
v 131.495529 367.413910 113.616661
v 135.656754 363.327179 126.463669
v 127.453888 380.521179 114.416122
v 127.467186 354.110199 120.039101
v 143.841583 373.623901 124.207932
v 125.459534 373.551605 112.722618
v 144.727554 371.493774 125.396950
v 125.389351 361.250763 119.604797
v 127.428223 363.355652 111.964088
v 132.677673 355.998657 115.083244
v 139.077072 359.336304 122.599152
v 127.933022 373.587860 123.136337
v 142.783371 375.033234 122.979698
v 136.927567 361.645416 118.691071
v 144.134903 369.454285 126.175255
v 125.088966 365.371613 117.502716
v 136.014236 365.377716 117.533646
v 124.366402 365.527802 113.179893
v 135.674469 367.378876 127.681206
v 143.130173 376.994690 128.367889
v 141.664154 370.360046 129.614304
v 129.302292 356.916473 112.592911
v 134.675934 356.853821 116.564667
v 131.448990 380.500854 115.273560
v 130.560394 373.544159 124.990044
v 139.761292 375.857697 131.181808
v 133.463684 379.772797 117.472038
v 129.507782 354.879974 115.875458
v 135.661713 378.398224 126.171898
v 124.479141 369.473511 114.363762
v 133.792313 375.935638 115.617653
v 139.698120 369.474243 119.710594
v 137.709671 363.307343 126.526337
v 129.194733 363.319275 123.084381
v 131.429321 377.970673 114.250160
v 143.377457 375.745544 129.968002
v 134.794983 358.924805 116.490181
v 127.316589 369.459167 112.289085
v 137.654587 371.417542 119.099022
v 129.493637 379.913147 114.139198
v 143.100983 373.318634 122.632416
v 125.515083 363.315308 112.058998
v 132.591904 373.625366 127.387444
v 133.884567 366.182709 127.000404
v 124.471291 371.412201 114.285851
v 124.329491 367.438446 113.168503
v 141.046432 365.943481 120.700722
v 130.409607 365.963318 112.946564
v 134.148529 379.362152 116.818764
v 131.554886 354.044922 119.217628
v 140.957092 377.380096 122.650024
v 129.487854 377.967285 113.551689
v 141.886719 365.227661 121.808472
v 127.546997 369.496826 122.280006
v 139.737854 363.398956 126.508530
v 126.435280 369.450439 121.272247
v 129.190399 365.371307 123.088440
v 141.521149 363.623108 125.835747
v 136.478729 354.857666 122.077827
v 127.532372 380.015167 117.421417
v 141.483673 369.477509 120.555191
v 138.877853 361.913879 120.507324
v 139.765228 365.352783 119.998360
v 130.528519 361.268341 112.811134
v 124.593803 365.370728 112.631165
v 124.841286 375.937164 115.533081
v 137.359604 367.416168 118.568985
v 127.507469 354.468872 121.031204
v 139.646790 375.865997 120.395645
v 141.716568 373.635986 131.089081
v 133.687851 377.945435 115.699966
v 125.193306 377.945251 115.484550
v 131.465805 356.948212 113.618034
v 130.992020 378.364349 124.827644
v 130.529205 363.317719 112.824379
v 138.967560 378.589172 121.750076
v 139.303970 359.315094 124.992928
v 125.326218 356.994659 119.572212
v 137.201141 378.726868 120.634720
v 131.556458 379.253326 121.806671
v 130.534042 376.033722 125.058487
v 124.457481 377.422638 113.169312
v 144.044937 375.939728 128.130402
v 141.714294 377.726990 126.263565
v 127.394035 361.261780 111.933746
v 125.143600 356.950684 117.619316
v 142.927383 367.705475 127.136703
v 140.995819 362.113800 123.017723
v 139.655914 378.290802 124.483391
v 133.406647 373.582703 128.430206
v 135.638077 379.093689 121.807289
v 130.005356 363.317139 123.611801
v 124.338089 358.928101 114.110390
v 127.338852 356.935760 112.351326
v 136.019073 369.487274 117.641747
v 131.645538 371.520203 113.866074
v 134.488922 377.956207 116.672836
v 133.609268 355.380493 123.412659
v 142.543121 366.582794 126.914200
v 130.786102 363.319122 124.233307
v 129.518936 365.384827 112.520340
v 129.584747 371.541595 123.866829
v 125.909729 380.407806 114.484917
v 132.935928 365.369812 114.553040
v 140.324081 360.131317 124.595787
v 131.871170 371.645264 126.179504
v 135.193863 377.957733 117.829964
v 134.613037 375.913208 116.596519
v 127.578430 365.371185 122.190308
v 133.617065 354.371368 121.779274
v 135.494354 375.867279 117.732315
v 142.295822 376.620117 123.796570
v 130.043686 361.269531 123.579002
v 131.552780 379.757141 119.794456
v 132.594299 371.374054 127.106934
v 126.551628 378.929535 119.371315
v 128.126846 372.107971 123.056602
v 135.859314 371.430786 117.716568
v 142.042480 363.295441 124.208076
v 137.699646 367.329041 127.838860
v 144.340012 373.155548 128.638046
v 137.978348 363.246124 119.263130
v 125.471123 358.855560 112.012611
v 129.438538 367.417603 112.671310
v 139.632050 361.333588 125.638283
v 124.643257 358.924927 115.531158
v 124.566711 375.917053 114.321259
v 135.992859 363.315491 117.573471
v 127.497154 371.472534 122.517891
v 124.519279 371.166321 112.866997
v 126.435211 367.410126 121.241837
v 136.883820 355.216095 122.124641
v 124.729965 371.622131 115.508163
v 135.538574 354.927612 119.450989
v 137.594009 356.952759 124.057320
v 124.349632 369.463379 113.172409
v 125.142746 373.574677 117.496796
v 124.578072 356.238983 113.353867
v 124.750481 373.673248 115.493233
v 125.428589 377.907104 113.007339
v 134.861374 365.370514 116.435562
v 135.633545 356.806824 124.578934
v 127.572792 361.269531 122.195724
v 141.706573 377.674988 128.437836
v 137.264587 363.412476 118.650002
v 132.184967 365.383759 125.697250
v 129.488586 380.713318 114.988510
v 133.923447 371.518036 115.366203
v 124.549347 367.439850 112.653160
v 127.389809 358.953369 112.002365
v 136.219101 355.078674 120.580994
v 131.597122 361.269043 113.433441
v 135.998947 375.878387 130.724167
v 137.747650 378.842987 123.015244
v 130.713654 371.508606 124.850464
v 129.666534 378.668976 122.941772
v 125.829643 355.514832 117.749847
v 124.370209 371.587250 113.167320
v 124.455826 356.914459 114.099060
v 139.651093 373.539062 119.978790
v 126.410614 371.483032 121.335716
v 130.373505 367.421600 113.028931
v 132.611786 375.909180 127.372879
v 138.181534 358.658539 121.553619
v 131.931580 369.472015 126.008667
v 132.755844 377.953949 114.922852
v 142.510056 364.226196 125.267776
v 139.681198 367.443115 119.688141
v 141.579330 365.704956 127.070213
v 130.505432 364.701904 112.889954
v 124.380028 373.584473 113.265968
v 142.724152 376.857391 125.132248
v 131.562866 378.928162 123.018806
v 125.436142 371.349396 112.485931
v 142.703659 365.753326 122.940399
v 136.059753 376.746185 130.505798
v 124.438766 356.233734 112.707253
v 131.591537 358.928680 113.436920
v 130.941299 378.297272 124.921509
v 144.455582 373.865601 125.918274
v 126.607529 377.896545 121.220505
v 127.522568 365.343719 112.063225
v 127.100784 373.598938 122.382172
v 142.626984 364.085754 124.687820
v 125.803528 354.453583 120.630882
v 125.454941 354.312805 120.205437
v 133.604568 354.072998 120.048553
v 132.946579 367.495178 126.726265
v 131.555145 354.458801 117.550072
v 139.690475 369.128052 128.845261
v 140.872589 361.980316 125.207123
v 138.599823 357.828857 124.367798
v 127.441147 373.565948 112.643219
v 143.154846 371.507019 122.402603
v 132.489319 380.131500 115.226585
v 134.073318 363.320099 115.595459
v 128.727600 375.224579 112.956314
v 129.848526 369.743164 123.714424
# 537 vertices, 0 vertices normals

f 450 265 325
f 295 418 246
f 217 48 265
f 111 273 359
f 52 240 69
f 99 255 333
f 110 427 115
f 537 178 441
f 372 341 11
f 320 185 311
f 393 178 164
f 114 179 292
f 170 155 400
f 224 212 275
f 425 142 417
f 406 251 201
f 154 373 396
f 435 127 102
f 381 424 348
f 143 352 194
f 84 9 121
f 292 179 35
f 405 188 478
f 311 328 126
f 67 205 225
f 239 537 108
f 148 270 449
f 377 513 212
f 96 130 134
f 468 456 222
f 29 475 385
f 268 390 90
f 58 289 2
f 301 177 498
f 193 379 10
f 125 269 482
f 532 175 345
f 407 101 236
f 136 505 285
f 420 77 413
f 89 526 43
f 414 159 403
f 402 115 392
f 279 145 54
f 287 483 161
f 106 23 181
f 404 191 488
f 14 173 325
f 174 105 20
f 27 19 304
f 139 457 217
f 112 184 316
f 127 487 157
f 310 62 87
f 140 332 365
f 187 91 259
f 121 242 360
f 487 139 199
f 236 220 289
f 297 92 524
f 421 256 466
f 16 349 412
f 60 330 62
f 308 111 423
f 332 247 365
f 33 23 309
f 89 148 449
f 209 57 532
f 102 141 211
f 314 490 123
f 299 290 202
f 508 116 438
f 497 288 510
f 144 317 313
f 303 42 470
f 93 83 255
f 494 537 441
f 73 192 216
f 206 399 245
f 64 434 457
f 292 35 127
f 207 246 430
f 53 88 85
f 308 194 511
f 152 192 368
f 54 319 271
f 180 415 493
f 264 400 96
f 421 466 200
f 261 444 151
f 143 8 352
f 234 502 382
f 229 438 223
f 371 170 400
f 252 453 419
f 508 229 79
f 481 474 147
f 294 115 402
f 194 273 511
f 324 508 196
f 296 406 80
f 327 94 529
f 291 138 331
f 126 77 120
f 461 168 294
f 327 205 94
f 334 373 431
f 532 266 175
f 69 412 517
f 261 151 109
f 102 286 141
f 211 536 38
f 74 195 235
f 185 495 413
f 347 53 218
f 414 403 491
f 409 339 282
f 464 394 530
f 531 47 122
f 394 196 397
f 193 260 243
f 30 430 50
f 280 221 366
f 209 532 345
f 407 524 101
f 401 294 168
f 209 305 57
f 493 90 428
f 236 58 44
f 213 87 535
f 140 492 515
f 498 432 465
f 74 369 384
f 214 486 19
f 151 458 427
f 361 240 52
f 25 42 355
f 297 32 92
f 37 482 65
f 485 171 36
f 94 205 71
f 263 214 27
f 228 278 346
f 215 481 147
f 283 492 22
f 361 52 489
f 387 340 501
f 226 44 148
f 533 344 380
f 112 316 460
f 374 136 379
f 245 304 453
f 134 130 8
f 290 281 55
f 517 60 491
f 93 255 99
f 304 19 280
f 84 22 76
f 476 472 478
f 20 26 367
f 73 163 237
f 271 319 168
f 259 167 250
f 252 419 495
f 140 365 117
f 155 41 100
f 261 110 350
f 163 483 237
f 490 189 123
f 90 308 428
f 343 105 174
f 439 154 21
f 73 237 321
f 530 397 458
f 127 35 487
f 230 8 143
f 107 125 482
f 239 108 504
f 370 199 447
f 183 159 348
f 66 398 490
f 63 175 132
f 197 336 3
f 17 167 153
f 364 441 120
f 104 116 508
f 372 335 394
f 242 184 112
f 522 311 126
f 136 285 534
f 3 166 425
f 55 433 462
f 439 129 56
f 83 36 341
f 23 93 99
f 516 477 231
f 437 215 61
f 138 257 331
f 201 251 124
f 128 292 435
f 335 318 394
f 338 358 176
f 414 190 509
f 6 40 219
f 124 507 371
f 235 46 165
f 405 169 188
f 276 118 514
f 531 189 474
f 171 504 527
f 46 248 500
f 172 358 459
f 387 463 440
f 232 283 312
f 63 345 175
f 88 331 85
f 335 172 318
f 438 426 223
f 427 458 115
f 26 389 528
f 53 86 465
f 266 49 479
f 322 399 24
f 378 371 264
f 231 82 55
f 310 87 213
f 509 284 440
f 443 535 272
f 491 60 310
f 351 126 120
f 180 50 430
f 485 36 83
f 410 436 388
f 512 30 152
f 100 533 130
f 103 106 181
f 64 80 434
f 299 516 231
f 74 384 472
f 106 129 93
f 255 341 267
f 408 143 268
f 401 18 294
f 448 396 373
f 302 362 330
f 49 186 243
f 479 260 256
f 303 233 42
f 63 132 421
f 526 66 473
f 456 351 441
f 126 328 77
f 323 25 257
f 133 181 31
f 421 132 256
f 140 515 332
f 113 244 51
f 481 309 474
f 117 409 12
f 347 142 86
f 53 85 218
f 483 359 161
f 420 518 187
f 323 298 369
f 95 259 250
f 526 61 66
f 63 421 200
f 81 113 182
f 125 13 269
f 85 355 233
f 42 165 470
f 68 33 481
f 419 453 315
f 399 304 245
f 174 496 32
f 535 480 272
f 531 122 416
f 381 72 424
f 278 4 6
f 177 432 498
f 19 221 280
f 273 519 422
f 327 225 205
f 413 187 518
f 108 537 494
f 353 271 168
f 69 517 403
f 488 385 357
f 212 513 469
f 193 342 260
f 34 300 426
f 476 337 248
f 98 277 197
f 204 302 349
f 323 74 235
f 99 333 47
f 405 466 256
f 413 518 187
f 323 235 25
f 459 327 104
f 41 228 346
f 143 451 390
f 238 121 360
f 299 55 281
f 37 448 373
f 17 321 5
f 315 366 246
f 394 324 196
f 416 151 444
f 367 204 16
f 439 431 154
f 303 218 233
f 129 485 83
f 114 272 179
f 249 455 97
f 299 55 75
f 87 28 535
f 24 206 455
f 215 147 398
f 527 149 70
f 62 1 87
f 254 250 515
f 220 142 13
f 76 22 492
f 343 525 407
f 480 467 356
f 107 334 452
f 203 396 164
f 258 137 131
f 174 32 525
f 97 206 146
f 468 351 456
f 528 258 302
f 383 176 11
f 89 449 526
f 339 313 282
f 55 82 433
f 221 363 307
f 497 510 384
f 406 434 80
f 374 156 505
f 295 246 241
f 197 82 336
f 166 86 425
f 67 312 205
f 268 90 162
f 21 203 239
f 303 65 218
f 41 150 228
f 3 498 166
f 28 271 467
f 374 505 136
f 420 187 45
f 299 290 55
f 507 170 371
f 503 110 227
f 146 206 245
f 505 370 410
f 61 215 398
f 254 515 492
f 59 320 311
f 124 378 457
f 81 244 113
f 405 478 466
f 26 204 367
f 387 284 340
f 291 88 51
f 459 358 225
f 76 492 140
f 520 146 185
f 453 280 315
f 169 24 249
f 497 369 475
f 183 69 403
f 364 77 420
f 312 283 7
f 395 500 393
f 437 68 215
f 135 57 305
f 268 143 390
f 52 183 424
f 371 400 264
f 196 508 397
f 322 27 399
f 521 275 191
f 471 474 189
f 473 490 314
f 387 501 463
f 494 234 445
f 468 222 178
f 32 496 417
f 340 443 114
f 195 476 248
f 179 326 64
f 285 410 307
f 300 6 274
f 518 152 91
f 8 130 380
f 344 346 519
f 389 43 528
f 21 171 485
f 34 242 112
f 381 348 191
f 302 160 349
f 512 207 30
f 183 348 424
f 429 95 254
f 521 159 440
f 163 423 483
f 30 192 152
f 32 417 220
f 217 265 450
f 128 114 292
f 402 170 507
f 296 80 356
f 312 7 205
f 278 6 519
f 226 389 105
f 378 265 48
f 20 367 98
f 376 54 1
f 74 472 195
f 522 126 351
f 72 489 424
f 261 109 110
f 186 119 193
f 288 513 345
f 399 27 304
f 201 124 434
f 374 379 391
f 488 29 385
f 232 429 283
f 496 3 425
f 247 5 144
f 209 345 513
f 139 217 15
f 208 164 396
f 435 102 211
f 411 24 169
f 173 241 325
f 110 109 151
f 370 447 436
f 504 149 527
f 166 465 86
f 223 354 150
f 193 391 379
f 364 120 77
f 299 202 290
f 283 254 492
f 339 144 313
f 165 46 395
f 343 174 525
f 112 40 78
f 322 442 263
f 190 310 213
f 459 104 324
f 404 357 244
f 407 236 44
f 255 267 333
f 181 23 33
f 335 176 172
f 504 445 149
f 439 56 431
f 42 233 355
f 161 422 375
f 342 442 260
f 378 264 14
f 195 248 46
f 382 502 429
f 155 118 41
f 75 55 462
f 110 151 427
f 143 194 451
f 397 508 79
f 296 293 406
f 316 40 460
f 366 307 306
f 95 250 254
f 228 354 278
f 112 460 40
f 146 245 252
f 145 123 319
f 414 509 440
f 9 117 12
f 124 371 378
f 436 446 388
f 532 57 38
f 493 415 90
f 518 91 187
f 510 200 158
f 1 54 271
f 234 45 502
f 288 469 513
f 309 99 47
f 328 413 77
f 535 28 480
f 488 275 29
f 76 117 9
f 91 368 153
f 105 389 26
f 337 520 320
f 21 154 203
f 122 333 416
f 124 457 434
f 227 110 401
f 162 90 415
f 17 5 247
f 37 334 482
f 506 229 276
f 8 380 352
f 289 13 125
f 354 274 278
f 212 469 29
f 411 322 24
f 133 68 437
f 246 306 241
f 445 454 149
f 188 169 337
f 98 197 3
f 316 375 198
f 404 381 191
f 383 338 176
f 43 473 258
f 70 312 67
f 301 3 477
f 500 468 393
f 457 48 217
f 149 232 70
f 495 419 512
f 402 392 386
f 405 411 169
f 71 84 121
f 521 191 348
f 58 133 270
f 493 428 216
f 382 429 232
f 501 135 305
f 347 86 53
f 123 189 319
f 501 340 128
f 537 203 164
f 423 359 483
f 229 223 150
f 397 506 523
f 443 272 114
f 185 146 252
f 272 326 179
f 135 262 57
f 294 18 115
f 537 164 178
f 521 440 224
f 193 10 342
f 377 305 209
f 154 396 203
f 57 262 38
f 81 381 404
f 363 534 307
f 282 375 316
f 397 79 506
f 14 499 173
f 523 506 276
f 200 466 158
f 347 65 269
f 311 185 328
f 119 141 391
f 35 64 487
f 138 298 257
f 372 394 464
f 447 450 436
f 286 374 391
f 288 200 510
f 446 325 241
f 452 56 103
f 211 141 536
f 299 75 301
f 336 231 477
f 248 59 500
f 251 402 507
f 180 493 50
f 187 259 210
f 416 333 267
f 25 355 257
f 486 221 19
f 98 3 496
f 293 294 402
f 347 13 142
f 284 190 213
f 526 449 61
f 224 440 463
f 24 399 206
f 76 140 117
f 73 216 163
f 361 489 433
f 102 157 286
f 334 431 452
f 94 121 238
f 266 141 119
f 220 13 289
f 343 226 105
f 500 59 522
f 20 105 26
f 117 365 409
f 418 162 415
f 416 530 151
f 149 454 232
f 259 91 153
f 531 474 47
f 71 39 84
f 501 305 463
f 227 401 168
f 332 17 247
f 392 155 170
f 316 198 40
f 224 377 212
f 298 385 475
f 68 481 215
f 419 315 207
f 108 494 445
f 423 111 359
f 361 253 240
f 128 435 262
f 470 208 448
f 342 214 442
f 297 525 32
f 497 384 369
f 116 426 438
f 416 267 464
f 323 257 298
f 479 243 260
f 344 519 273
f 511 273 111
f 458 523 276
f 332 167 17
f 497 469 288
f 418 415 180
f 337 169 249
f 372 267 341
f 36 527 338
f 131 279 362
f 299 477 516
f 346 278 6
f 306 446 241
f 388 446 306
f 248 320 59
f 413 495 518
f 367 16 277
f 402 386 170
f 517 160 60
f 27 214 19
f 519 6 219
f 31 33 68
f 237 483 287
f 239 504 171
f 46 500 395
f 32 220 101
f 37 373 334
f 270 437 449
f 508 438 229
f 132 479 256
f 178 222 441
f 219 40 198
f 285 307 534
f 346 278 519
f 180 430 246
f 247 144 339
f 408 230 143
f 392 118 155
f 411 256 260
f 108 445 504
f 365 247 339
f 498 465 166
f 468 522 351
f 7 22 39
f 380 194 352
f 272 480 326
f 456 441 222
f 199 15 447
f 392 276 514
f 34 112 300
f 406 293 251
f 313 317 161
f 107 452 103
f 406 201 434
f 163 428 423
f 331 257 355
f 336 82 231
f 494 364 234
f 52 424 489
f 379 136 363
f 242 12 184
f 199 139 15
f 84 39 22
f 122 47 333
f 137 314 279
f 411 260 322
f 375 422 198
f 331 355 85
f 213 535 443
f 397 523 458
f 335 11 176
f 85 233 218
f 183 403 159
f 30 50 192
f 501 128 135
f 452 431 56
f 9 12 242
f 136 534 363
f 81 182 72
f 41 346 533
f 165 395 470
f 280 366 315
f 53 465 88
f 70 67 225
f 173 408 295
f 261 416 444
f 5 287 144
f 346 4 278
f 476 478 188
f 480 356 326
f 186 193 243
f 387 440 284
f 134 8 230
f 447 217 450
f 329 433 82
f 28 467 480
f 94 238 529
f 12 409 282
f 224 463 377
f 24 455 249
f 124 251 507
f 193 119 391
f 45 210 502
f 496 425 417
f 392 458 276
f 71 205 7
f 226 148 89
f 12 282 184
f 71 7 39
f 398 147 471
f 327 529 104
f 299 301 477
f 128 262 135
f 96 100 130
f 422 519 219
f 36 11 341
f 295 408 268
f 364 420 45
f 195 472 476
f 137 279 131
f 473 314 137
f 63 288 345
f 187 210 45
f 239 203 537
f 303 470 448
f 529 34 116
f 238 360 34
f 330 376 62
f 210 259 95
f 302 330 160
f 533 346 344
f 338 70 225
f 502 210 95
f 216 428 163
f 505 410 285
f 494 441 364
f 510 158 384
f 308 451 194
f 296 461 293
f 321 153 368
f 49 243 479
f 235 195 46
f 390 451 308
f 87 1 28
f 84 76 9
f 378 48 457
f 364 45 234
f 138 385 298
f 75 177 301
f 14 264 499
f 92 101 524
f 392 170 386
f 49 119 186
f 378 14 265
f 503 261 350
f 279 314 145
f 236 289 58
f 351 120 441
f 307 410 388
f 1 271 28
f 284 443 340
f 110 115 18
f 346 6 4
f 500 522 468
f 420 413 518
f 372 11 335
f 278 274 6
f 303 448 37
f 412 349 160
f 116 34 426
f 182 177 75
f 527 70 338
f 503 189 261
f 503 350 110
f 392 514 118
f 353 168 484
f 448 208 396
f 258 473 137
f 2 103 133
f 300 354 223
f 308 511 111
f 174 20 496
f 343 407 44
f 185 413 328
f 426 300 223
f 462 433 489
f 284 213 443
f 98 367 277
f 44 58 148
f 266 119 49
f 91 152 368
f 150 354 228
f 445 232 454
f 372 464 267
f 414 491 190
f 110 18 401
f 297 524 525
f 107 482 334
f 526 473 43
f 2 289 125
f 488 191 275
f 300 274 354
f 248 337 320
f 133 31 68
f 221 307 366
f 266 479 175
f 380 344 194
f 64 457 139
f 59 311 522
f 499 134 408
f 92 32 101
f 158 466 478
f 182 113 177
f 461 294 293
f 417 142 220
f 197 277 329
f 66 61 398
f 240 412 69
f 251 293 402
f 276 150 118
f 177 113 432
f 428 308 423
f 323 369 74
f 521 348 159
f 250 167 515
f 90 390 308
f 151 530 458
f 52 69 183
f 31 181 33
f 476 188 337
f 347 269 13
f 450 325 446
f 408 134 230
f 418 180 246
f 302 131 362
f 291 51 244
f 36 383 11
f 528 43 258
f 326 80 64
f 259 153 167
f 322 260 442
f 2 107 103
f 236 101 220
f 412 160 517
f 62 376 1
f 94 71 121
f 416 464 530
f 172 176 358
f 300 112 6
f 144 287 317
f 486 363 221
f 263 442 214
f 20 98 496
f 495 512 518
f 486 10 363
f 455 206 97
f 532 38 266
f 529 238 34
f 197 329 82
f 445 382 232
f 432 51 88
f 422 219 198
f 79 229 506
f 81 404 244
f 531 416 261
f 100 41 533
f 194 344 273
f 102 127 157
f 343 44 226
f 26 528 204
f 490 471 189
f 283 22 7
f 121 9 242
f 16 412 240
f 133 103 181
f 359 273 422
f 445 234 382
f 322 263 27
f 484 461 296
f 298 475 369
f 405 256 411
f 503 227 168
f 309 47 474
f 528 302 204
f 400 100 96
f 36 338 383
f 286 391 141
f 264 96 499
f 207 315 246
f 299 231 55
f 156 199 370
f 291 244 357
f 313 161 375
f 491 310 190
f 56 129 106
f 118 150 41
f 277 16 253
f 490 398 471
f 531 261 189
f 376 279 54
f 147 474 471
f 484 168 461
f 173 499 408
f 482 269 65
f 60 62 310
f 295 268 418
f 432 88 465
f 394 318 324
f 286 156 374
f 129 83 93
f 252 245 453
f 407 525 524
f 17 153 321
f 58 2 133
f 400 155 100
f 179 64 35
f 394 397 530
f 503 319 189
f 103 56 106
f 113 51 432
f 130 533 380
f 518 512 152
f 520 97 146
f 326 356 80
f 132 175 479
f 207 430 30
f 81 72 381
f 484 356 467
f 73 321 368
f 172 324 318
f 324 104 508
f 184 282 316
f 89 43 389
f 70 232 312
f 185 252 495
f 321 237 5
f 266 38 536
f 275 212 29
f 29 469 475
f 470 395 208
f 204 349 16
f 301 498 3
f 25 165 42
f 258 131 302
f 282 313 375
f 330 362 376
f 216 192 50
f 208 393 164
f 276 229 150
f 484 296 356
f 299 281 290
f 33 309 481
f 459 225 327
f 377 209 513
f 320 520 185
f 287 161 317
f 329 253 361
f 157 487 199
f 291 331 88
f 439 485 129
f 332 515 167
f 340 114 128
f 431 373 154
f 161 359 422
f 403 517 491
f 502 95 429
f 435 211 262
f 329 361 433
f 270 133 437
f 353 467 271
f 404 488 357
f 63 200 288
f 15 217 447
f 353 484 467
f 211 38 262
f 73 368 192
f 58 270 148
f 83 341 255
f 342 486 214
f 25 235 165
f 393 468 178
f 425 86 142
f 304 280 453
f 277 253 329
f 419 207 512
f 182 75 462
f 104 529 116
f 106 93 23
f 429 254 283
f 365 339 409
f 156 370 505
f 138 357 385
f 337 249 520
f 3 336 477
f 347 218 65
f 66 490 473
f 266 536 141
f 112 78 6
f 395 393 208
f 379 363 10
f 499 96 134
f 338 225 358
f 173 295 241
f 342 10 486
f 509 190 284
f 435 292 127
f 157 199 156
f 436 450 446
f 493 216 50
f 54 145 319
f 314 123 145
f 497 475 469
f 115 458 392
f 286 157 156
f 303 37 65
f 362 279 376
f 384 158 478
f 503 168 319
f 160 330 60
f 366 306 246
f 5 237 287
f 171 527 36
f 23 99 309
f 439 21 485
f 249 97 520
f 487 64 139
f 291 357 138
f 377 463 305
f 418 268 162
f 307 388 306
f 370 436 410
f 449 437 61
f 182 462 72
f 14 325 265
f 2 125 107
f 384 478 472
f 172 459 324
f 521 224 275
f 21 239 171
f 6 78 40
f 16 240 253
f 414 440 159
f 34 360 242
f 226 89 389
f 462 489 72
# 1074 faces, 0 coords texture

# End of File