####
#
# OBJ File Generated by Meshlab
#
####
# Object domain031.obj
#
# Vertices: 405
# Faces: 808
#
####
v 114.564354 332.555573 122.544472
v 121.065208 338.681702 122.947937
v 123.158028 334.787567 127.436974
v 116.698982 330.475372 134.291916
v 113.100426 329.433807 127.125862
v 123.220909 345.177216 134.503281
v 122.252426 346.160431 138.699585
v 121.928963 338.987152 136.853607
v 116.652412 332.538177 136.527512
v 123.633942 347.213623 127.536873
v 118.660652 328.037476 125.818855
v 118.648834 354.040100 138.594162
v 116.621529 352.940399 127.502769
v 114.743225 329.561249 129.154709
v 113.499702 332.543213 129.901413
v 120.643661 333.637360 136.910553
v 116.614044 334.898651 122.515083
v 112.264420 338.558167 123.043259
v 116.753693 353.459290 136.544922
v 116.634399 328.988403 129.439392
v 114.652718 352.630859 127.463371
v 123.244171 336.952301 127.500748
v 111.717278 343.084961 124.470253
v 118.655396 330.348602 134.331329
v 120.957588 339.015991 137.420120
v 114.254814 337.028473 134.398285
v 116.615524 347.204987 123.546837
v 112.278313 334.897736 122.802040
v 118.663956 345.154144 123.535728
v 113.940773 334.909546 132.127197
v 118.665642 338.604095 122.855804
v 121.000549 329.569092 131.170410
v 121.029762 328.086334 124.408836
v 117.344582 353.745056 138.701248
v 115.783218 352.774445 136.409119
v 121.861275 329.079376 125.533852
v 123.436462 345.127045 132.040405
v 114.639160 351.466522 124.089073
v 123.295494 351.337830 134.269455
v 111.478958 334.894623 126.415115
v 113.488098 339.006561 129.893768
v 114.070686 330.631256 129.655701
v 122.885071 332.580292 129.787262
v 114.746643 336.958557 135.934753
v 116.614349 345.154083 123.522820
v 123.168869 341.053436 131.885529
v 123.376488 347.329437 134.572723
v 122.692688 349.597260 138.125137
v 123.424767 343.296936 127.624763
v 118.686554 354.135071 138.238525
v 120.885513 331.340393 135.513916
v 111.485893 338.294037 123.355034
v 117.113571 347.209412 138.950684
v 120.940933 345.153229 123.837761
v 122.210876 347.207886 124.536041
v 112.608795 343.104645 127.775116
v 110.634506 332.424500 123.792091
v 120.961487 336.930267 122.817642
v 116.614052 332.554932 122.514862
v 118.661980 352.131195 124.440384
v 123.325516 341.053680 129.498871
v 122.816528 339.608826 123.221207
v 114.877312 341.056549 136.260208
v 111.048729 336.619995 123.605087
v 114.573341 327.919800 124.488922
v 123.103020 351.365814 125.634460
v 115.148720 332.740784 135.759537
v 120.967102 336.968964 137.260605
v 113.532883 343.100891 129.869217
v 115.814697 351.561371 137.889175
v 112.317780 334.895477 127.854698
v 120.953087 334.953278 137.045090
v 120.959068 349.548187 139.203064
v 112.268288 336.927948 122.827423
v 113.539078 345.152679 129.886475
v 114.855247 343.096436 136.290192
v 116.701256 343.201630 138.164474
v 121.676422 331.214539 134.244125
v 114.631012 328.765259 127.373222
v 118.661064 332.490540 136.615799
v 123.079613 343.138794 134.163132
v 122.657761 343.117920 136.127441
v 122.746719 336.951538 134.493729
v 116.613129 328.778625 123.215889
v 116.644012 329.421021 131.186127
v 118.658936 334.917633 137.318268
v 122.369247 347.091064 138.782928
v 122.295677 336.975433 136.368805
v 122.480499 330.573273 125.526314
v 111.055946 334.902771 125.370941
v 122.948105 341.075867 134.346085
v 114.093399 343.103058 132.039093
v 122.201988 353.524017 138.697601
v 116.786110 353.545319 138.298218
v 121.553894 328.257141 123.991127
v 114.491631 332.714874 134.083588
v 114.909706 349.639038 136.151031
v 118.665390 336.951111 137.504318
v 121.975372 329.451630 127.400696
v 123.159599 339.000671 125.520226
v 118.658302 331.217224 135.654053
v 118.661057 352.710022 125.574692
v 118.663498 332.555634 122.553909
v 122.058350 329.684265 129.318054
v 110.024796 328.778198 123.333984
v 111.591980 339.161499 125.986427
v 123.519653 345.085846 127.456970
v 122.874962 345.096039 136.435471
v 122.050789 334.851288 136.314453
v 122.585495 332.525604 132.069641
v 115.438423 352.403992 134.361420
v 120.901886 343.162964 138.131256
v 114.564529 334.897949 122.547760
v 122.182625 351.610718 138.703812
v 114.079361 341.054443 132.040451
v 114.563957 338.602783 122.859489
v 112.420296 347.127319 125.840431
v 122.467758 352.820831 136.548691
v 114.147461 332.568420 132.091583
v 121.459045 333.939178 136.644424
v 123.237694 349.493744 136.273956
v 112.604439 330.621735 127.587456
v 116.095230 352.931976 137.704315
v 113.461006 351.202881 128.932831
v 116.345779 351.578613 138.536423
v 118.664139 340.912476 138.024918
v 123.480156 349.596283 134.478256
v 116.331673 347.214478 138.539307
v 115.309837 329.868469 130.917496
v 110.397545 328.571259 123.514374
v 113.182259 349.517761 124.627930
v 116.636848 339.009369 137.495300
v 122.316765 332.612335 134.123978
v 110.959152 332.551941 125.409462
v 116.632767 333.591339 137.029037
v 123.161606 345.156097 125.924042
v 118.660332 333.580078 137.077057
v 110.867989 334.689392 123.819756
v 114.872536 351.505402 134.203583
v 123.971283 352.330261 129.555527
v 114.625397 352.089874 124.482018
v 112.224571 328.816772 123.308266
v 113.419930 336.959015 129.922058
v 113.232368 349.544647 129.067230
v 112.210426 328.170990 123.875145
v 112.280296 339.664154 123.389610
v 118.671326 353.878296 136.509598
v 123.086906 336.956299 125.528687
v 116.619423 351.470795 123.959801
v 123.038658 351.543976 136.427002
v 114.632622 352.536041 125.578209
v 113.159019 346.047241 128.961975
v 114.580040 328.158722 125.772430
v 120.802414 330.614471 134.266327
v 118.656425 330.530884 122.726067
v 122.250320 343.020813 124.458351
v 122.065605 330.487976 123.660500
v 109.822739 329.503174 123.346848
v 118.663704 328.415283 127.507889
v 113.535622 341.053558 129.868668
v 115.508827 352.409821 132.196716
v 122.582405 334.782745 134.278442
v 120.953682 353.345581 134.545868
v 120.934448 349.537323 123.890091
v 114.331390 341.049561 134.167282
v 122.840675 339.479156 123.243469
v 114.585480 345.152679 123.705620
v 118.684105 351.584686 139.247208
v 112.364578 343.057465 124.043587
v 114.564240 336.938660 122.636108
v 116.677696 331.267487 135.602203
v 116.614044 336.940277 122.620361
v 123.729713 347.214142 129.490143
v 120.961166 334.898682 122.770470
v 116.684822 340.944366 137.770081
v 118.664482 353.015930 127.503151
v 117.091553 345.382324 138.870255
v 114.560310 341.072784 123.340141
v 118.663277 347.204956 123.550323
v 116.641052 344.906006 138.597412
v 124.076782 351.996796 129.495331
v 112.334518 328.113129 124.368080
v 121.001770 345.911591 139.020065
v 115.626038 343.131683 137.455887
v 123.556992 351.540222 131.987015
v 113.244919 351.870880 124.730354
v 111.200104 337.011597 125.321205
v 116.683655 352.980011 132.148300
v 118.683037 353.488708 138.943909
v 122.932587 352.429138 132.059937
v 114.564003 328.113953 123.847595
v 123.141991 340.973694 125.502975
v 122.555038 336.979156 123.753952
v 116.322433 349.551117 138.553757
v 116.718697 353.216492 134.550507
v 118.656952 327.909943 124.493462
v 121.909065 335.986572 136.775970
v 112.727448 351.401062 125.806725
v 112.449493 338.936554 127.696594
v 120.939049 329.151276 129.416687
v 123.247795 349.586426 125.818451
v 120.959633 351.581726 139.168823
v 113.033989 351.996979 125.620430
v 121.004440 341.079651 123.349205
v 116.647430 336.959198 137.317001
v 123.597580 347.194031 131.879944
v 114.632614 349.537933 123.870712
v 117.114578 351.587891 138.951981
v 123.107719 334.906982 129.480606
v 118.663826 336.938873 122.634300
v 118.663696 334.897919 122.545029
v 122.558861 351.612152 124.571564
v 112.332390 341.002380 123.777336
v 116.614716 328.006348 125.825272
v 122.475922 330.571686 129.604919
v 114.825775 334.887726 135.936996
v 118.665260 353.106567 129.498215
v 115.643356 341.132599 137.269882
v 113.685303 349.556152 130.188889
v 112.258171 330.541016 122.856636
v 110.859230 332.463837 123.393639
v 122.490616 334.921051 123.741409
v 122.856689 339.552216 123.284454
v 118.666031 341.079895 123.283089
v 120.962486 352.606964 125.586220
v 115.131416 331.169373 134.173172
v 122.885063 334.787079 131.956177
v 110.454910 330.323761 123.349197
v 111.576424 336.922363 126.349480
v 122.061050 336.964111 123.219307
v 121.076157 339.815704 123.141129
v 116.647896 334.919678 137.222763
v 122.190567 349.527527 138.722839
v 111.734955 341.046387 125.959061
v 110.252739 330.355530 123.755135
v 110.934601 330.533813 125.382462
v 120.921356 328.758301 127.438889
v 116.632179 352.908325 129.496155
v 116.613754 343.104462 123.463013
v 123.253494 352.593475 129.509506
v 120.967941 330.540955 122.994987
v 120.992615 352.886627 127.511246
v 115.352089 331.509644 135.184387
v 114.483612 349.539734 134.148819
v 115.590187 345.147858 137.641800
v 122.020004 330.675781 131.792725
v 120.983009 353.106110 132.142654
v 118.660805 349.541779 123.624260
v 113.439865 352.101349 127.248558
v 112.586006 341.053802 127.790176
v 115.477997 339.051880 136.943649
v 123.007683 336.949432 131.877762
v 115.563728 347.200806 137.709564
v 115.610405 349.458008 137.745865
v 115.765198 333.709717 136.769394
v 123.285942 343.055084 132.049988
v 123.698532 349.504883 132.053619
v 123.342606 341.052917 127.501083
v 115.166199 351.509338 136.126862
v 116.614052 327.881592 124.494072
v 121.995773 332.557983 123.211525
v 112.350227 336.907776 127.770287
v 114.193398 349.553375 132.028183
v 114.089256 347.205444 132.042969
v 121.803452 332.680389 135.673599
v 112.308014 328.682068 125.648811
v 121.977509 336.956024 136.851746
v 109.754250 328.993561 123.290703
v 113.066994 347.119965 124.563095
v 120.957260 332.563110 122.802292
v 113.361870 334.902161 129.952805
v 120.890076 328.354828 125.729744
v 114.792419 347.192780 136.071472
v 122.851448 332.656006 125.472794
v 123.248695 339.001678 129.492645
v 111.332237 338.836609 125.118011
v 120.942024 351.463379 124.101807
v 118.661118 329.658508 132.487640
v 121.769119 341.111877 137.179443
v 122.591850 330.624390 127.755913
v 122.974846 343.061096 125.601494
v 123.016212 334.711670 125.643867
v 114.863731 339.015747 136.214188
v 121.005989 353.017548 129.507370
v 116.616600 328.446533 127.497688
v 122.686218 351.619995 138.085281
v 111.797981 343.096130 125.927521
v 116.613602 330.523682 122.671997
v 122.975945 332.588196 127.498909
v 114.563065 343.103821 123.560547
v 123.661804 352.227051 128.374496
v 116.618279 352.713593 125.571991
v 118.684891 347.224487 139.240112
v 111.956131 345.284485 125.695923
v 111.519135 341.070129 124.928864
v 114.565567 330.527100 122.693703
v 122.204735 345.149689 124.527672
v 123.122887 352.317688 127.586578
v 118.664688 329.291321 131.222168
v 114.083908 345.153625 132.042892
v 114.350861 343.102539 134.167236
v 122.492516 351.927521 124.653191
v 114.086937 351.549866 129.835938
v 115.519234 336.956268 136.825882
v 114.805397 352.245941 129.416702
v 114.034462 339.020721 132.045486
v 111.411812 338.903809 123.931396
v 112.715195 349.539703 127.442749
v 122.277679 349.575470 124.541573
v 112.976471 351.532959 127.466011
v 120.951065 353.694489 136.552490
v 111.119820 334.811981 123.365692
v 120.988213 353.955688 138.607620
v 123.698105 352.297485 130.741531
v 113.965736 336.943817 132.158340
v 118.665680 343.103271 123.486130
v 123.117920 347.207031 136.499191
v 118.667465 353.559540 134.513474
v 116.614098 338.607910 122.838852
v 117.253441 353.516144 138.771378
v 122.029625 334.899872 123.215179
v 122.283592 345.520203 138.232422
v 114.568428 328.785950 123.231102
v 120.977943 347.229462 139.188416
v 122.573303 352.501221 134.530945
v 120.867546 329.992828 132.394882
v 111.446976 332.553345 126.432159
v 120.988251 352.092041 124.482956
v 123.449265 343.239716 129.569489
v 122.635910 347.158875 138.384262
v 117.108650 349.549652 138.980301
v 123.667007 351.704926 127.851089
v 123.203148 347.212799 125.933769
v 120.736534 328.813232 123.447845
v 116.613693 328.090485 123.836861
v 122.510307 341.062775 136.051682
v 116.613945 339.809906 123.067192
v 118.658119 351.463959 123.973549
v 118.800491 344.715912 138.901276
v 124.037659 351.338440 129.767197
v 123.710815 349.542450 127.531845
v 114.282982 338.964569 134.184982
v 123.907066 349.553009 129.507431
v 122.410011 332.608643 123.794678
v 118.666618 353.266907 132.125931
v 122.827766 339.105042 134.533173
v 120.992210 344.971283 138.737335
v 114.812691 345.150604 136.206192
v 123.584541 345.176208 129.798492
v 120.979927 353.475922 138.925598
v 116.613853 341.080750 123.275108
v 112.357292 332.551025 127.840858
v 112.577599 349.524445 125.857239
v 120.956192 343.067413 123.801521
v 115.541351 334.934601 136.828384
v 123.194099 336.951904 129.488281
v 114.361084 345.164032 134.166214
v 111.790588 344.356201 124.540291
v 112.645721 345.236267 127.761185
v 121.878960 329.893555 130.745682
v 111.564804 343.087860 124.929832
v 113.211060 347.213928 129.073853
v 112.269218 332.555725 122.785835
v 111.151840 328.956757 124.995171
v 112.655663 347.176422 127.546677
v 113.144844 351.443817 124.631401
v 123.282829 339.001984 127.500916
v 121.546288 331.559723 135.353470
v 121.903435 343.292877 137.485382
v 114.237625 334.933655 134.231903
v 118.665398 338.952667 137.706451
v 118.641083 328.792664 123.254585
v 111.640015 340.743103 124.388222
v 118.528610 345.629791 139.085434
v 121.072914 332.631134 136.426239
v 116.614204 352.145172 124.427223
v 111.725273 344.739929 124.998291
v 118.658264 328.120087 123.854866
v 111.604279 330.519165 126.296783
v 120.935486 347.203613 123.857574
v 122.434204 339.125793 136.165924
v 123.084625 339.000580 131.883682
v 118.682518 349.550079 139.294907
v 122.175415 353.664948 138.664322
v 122.660873 352.136108 125.634361
v 115.015083 330.702972 132.141037
v 118.675430 343.108673 138.452103
v 113.614449 347.202026 130.210861
v 121.922638 331.029602 123.243774
v 118.665047 339.811890 123.061111
v 116.651848 329.832428 132.439453
v 120.979385 354.053955 138.248611
v 112.428764 345.120728 124.434189
v 110.180084 328.738373 123.750244
v 111.278427 336.870300 123.222816
v 114.711304 351.503204 131.969910
v 120.963371 328.176575 123.922340
v 114.561356 339.805023 123.090416
v 114.387718 347.203278 134.160034
v 120.839874 340.975647 137.704315
v 118.663918 328.873962 129.472260
v 121.632935 328.552643 124.054344
v 122.285942 353.448059 138.356155
v 114.616280 347.202667 123.798660
v 116.617538 349.542603 123.616173
# 405 vertices, 0 vertices normals

f 141 151 186
f 105 130 142
f 188 345 318
f 75 152 362
f 301 300 357
f 137 16 375
f 256 329 61
f 375 16 120
f 218 175 132
f 173 107 349
f 136 107 333
f 372 334 155
f 242 240 284
f 379 236 327
f 89 289 274
f 180 53 177
f 60 277 328
f 227 162 83
f 140 190 240
f 390 231 224
f 114 93 403
f 320 34 189
f 150 403 118
f 94 50 12
f 126 175 77
f 229 106 262
f 398 213 146
f 86 72 16
f 267 8 381
f 234 199 106
f 318 163 311
f 261 344 321
f 13 176 217
f 126 387 400
f 67 255 9
f 350 313 93
f 185 190 314
f 69 75 92
f 321 222 230
f 379 364 236
f 390 224 351
f 24 101 51
f 374 177 53
f 127 39 185
f 280 43 289
f 358 393 377
f 119 30 96
f 100 367 258
f 165 301 76
f 85 391 278
f 224 204 316
f 35 94 123
f 113 59 17
f 332 181 291
f 37 47 206
f 316 354 29
f 130 145 142
f 399 244 97
f 54 156 297
f 147 392 50
f 263 396 244
f 81 6 37
f 284 240 190
f 26 306 342
f 40 352 327
f 375 120 109
f 380 55 164
f 10 173 343
f 98 68 72
f 295 287 234
f 247 325 163
f 256 37 329
f 214 65 153
f 270 389 261
f 75 300 92
f 22 356 275
f 277 309 212
f 181 140 291
f 150 286 403
f 172 210 319
f 305 188 161
f 104 360 246
f 394 130 268
f 289 43 209
f 196 33 397
f 37 349 329
f 64 307 187
f 73 202 233
f 235 236 364
f 297 136 333
f 167 404 269
f 191 323 145
f 274 289 282
f 352 42 122
f 394 145 130
f 279 369 82
f 116 172 319
f 200 360 104
f 31 2 231
f 374 293 183
f 25 400 279
f 214 159 11
f 26 30 315
f 219 124 303
f 387 112 400
f 198 203 310
f 396 139 244
f 58 230 2
f 402 89 157
f 37 6 47
f 113 28 1
f 168 208 320
f 305 21 238
f 198 310 308
f 163 325 118
f 155 334 241
f 68 25 267
f 23 169 358
f 128 331 53
f 233 114 286
f 90 64 187
f 378 334 372
f 292 176 13
f 156 281 136
f 189 350 202
f 248 380 164
f 224 316 239
f 182 153 65
f 370 44 216
f 60 102 376
f 324 87 7
f 322 108 82
f 256 81 37
f 76 348 245
f 192 258 49
f 202 350 114
f 211 270 174
f 382 346 91
f 257 185 343
f 2 166 62
f 110 227 43
f 125 94 320
f 300 264 357
f 289 209 3
f 224 231 204
f 101 80 51
f 37 206 349
f 134 327 236
f 123 94 125
f 370 216 96
f 90 138 64
f 168 320 189
f 341 332 201
f 205 98 86
f 69 359 75
f 374 53 293
f 252 346 382
f 179 54 380
f 398 178 213
f 20 299 401
f 359 365 152
f 59 155 103
f 284 190 247
f 200 32 360
f 374 183 347
f 50 313 12
f 234 287 250
f 192 49 281
f 402 36 89
f 269 131 353
f 127 47 121
f 75 388 300
f 309 201 212
f 57 235 228
f 195 147 19
f 361 294 287
f 31 390 319
f 13 217 238
f 42 386 129
f 87 48 330
f 75 362 388
f 225 385 298
f 220 296 363
f 245 180 77
f 334 402 241
f 263 244 399
f 371 98 132
f 335 378 372
f 67 243 226
f 253 273 254
f 148 367 100
f 219 303 263
f 141 292 151
f 108 330 317
f 55 201 309
f 147 311 392
f 357 399 273
f 113 74 28
f 70 97 259
f 229 262 71
f 276 106 187
f 41 250 160
f 289 3 282
f 70 125 194
f 126 77 387
f 173 349 206
f 31 58 2
f 110 162 227
f 390 337 319
f 160 56 69
f 38 405 149
f 182 65 191
f 68 267 197
f 400 369 279
f 4 386 226
f 193 148 100
f 116 337 398
f 91 336 81
f 312 138 221
f 157 261 389
f 90 229 40
f 220 142 323
f 295 234 276
f 23 213 169
f 328 212 302
f 252 356 209
f 227 209 43
f 21 13 238
f 161 195 111
f 183 7 322
f 33 402 95
f 161 188 195
f 3 356 22
f 22 275 367
f 36 99 280
f 131 366 198
f 20 79 14
f 299 278 326
f 103 241 270
f 234 250 199
f 371 68 98
f 160 115 306
f 246 110 215
f 347 183 322
f 388 219 264
f 370 96 30
f 341 340 332
f 253 128 180
f 66 212 201
f 41 306 315
f 301 348 76
f 127 206 47
f 44 283 251
f 34 12 189
f 355 304 232
f 324 73 87
f 4 171 101
f 52 146 307
f 10 107 173
f 271 15 71
f 383 168 73
f 338 164 277
f 151 203 186
f 303 396 263
f 354 156 54
f 222 148 193
f 366 186 203
f 10 341 201
f 365 144 362
f 401 299 32
f 10 333 107
f 269 117 393
f 312 64 138
f 248 164 338
f 83 88 381
f 166 223 62
f 276 187 307
f 85 129 391
f 176 242 284
f 388 144 219
f 29 54 179
f 49 329 349
f 375 265 368
f 23 358 377
f 20 85 299
f 366 203 198
f 291 140 240
f 25 8 267
f 391 4 24
f 355 135 255
f 339 180 177
f 23 361 373
f 342 306 115
f 283 63 218
f 31 210 58
f 285 79 20
f 278 24 154
f 305 249 21
f 34 94 12
f 31 231 390
f 397 402 334
f 80 137 375
f 279 82 336
f 66 298 385
f 292 102 176
f 288 372 155
f 189 12 350
f 392 403 384
f 157 344 261
f 203 249 310
f 64 395 307
f 232 86 137
f 164 309 277
f 264 399 357
f 218 184 175
f 285 153 79
f 159 200 237
f 323 142 145
f 223 281 156
f 10 343 341
f 272 99 36
f 171 9 101
f 185 325 190
f 133 109 162
f 398 146 18
f 207 38 366
f 170 17 172
f 62 100 192
f 110 133 162
f 313 384 93
f 257 206 127
f 219 144 124
f 339 347 112
f 338 60 376
f 105 268 130
f 169 393 358
f 81 82 108
f 49 349 107
f 32 326 246
f 134 40 327
f 12 313 350
f 9 80 101
f 105 228 158
f 185 340 343
f 28 312 363
f 84 296 323
f 290 239 167
f 117 294 393
f 57 134 236
f 312 395 64
f 312 221 363
f 87 233 48
f 248 149 405
f 404 207 131
f 262 106 199
f 335 65 260
f 371 25 68
f 387 339 112
f 328 302 385
f 346 381 91
f 162 109 88
f 393 294 377
f 51 368 78
f 354 223 156
f 287 294 56
f 139 111 259
f 290 351 239
f 355 232 135
f 230 193 166
f 104 246 215
f 282 22 148
f 168 189 202
f 157 89 274
f 342 63 283
f 293 383 324
f 367 275 61
f 5 122 14
f 342 165 63
f 316 29 45
f 335 84 191
f 170 172 116
f 266 5 79
f 382 275 356
f 258 61 329
f 253 348 273
f 397 33 95
f 253 254 128
f 72 197 109
f 252 83 346
f 322 7 87
f 224 239 351
f 214 285 159
f 316 204 354
f 338 376 149
f 363 296 1
f 184 245 77
f 83 381 346
f 52 307 395
f 66 385 212
f 23 377 361
f 85 14 129
f 225 298 242
f 301 357 348
f 143 199 41
f 260 65 214
f 59 103 17
f 178 351 290
f 151 292 13
f 316 45 239
f 51 375 368
f 294 359 56
f 46 91 81
f 162 88 83
f 135 232 137
f 352 15 42
f 238 345 188
f 305 238 188
f 217 284 247
f 84 288 296
f 67 171 243
f 266 364 379
f 332 291 298
f 194 208 331
f 270 261 174
f 38 141 186
f 212 385 302
f 110 43 215
f 379 327 122
f 246 133 110
f 151 21 203
f 228 142 220
f 11 237 272
f 116 319 337
f 394 268 235
f 35 259 111
f 102 242 176
f 369 322 82
f 18 146 52
f 62 193 100
f 237 200 104
f 69 56 359
f 168 202 73
f 202 114 233
f 326 154 78
f 112 347 369
f 174 261 321
f 219 263 264
f 46 61 275
f 339 177 374
f 160 69 115
f 181 314 140
f 33 36 402
f 260 11 196
f 166 193 62
f 86 98 72
f 277 212 328
f 63 76 184
f 266 379 5
f 133 265 109
f 57 228 221
f 148 22 367
f 207 366 131
f 340 314 181
f 267 381 88
f 257 127 185
f 251 218 132
f 141 376 292
f 114 403 286
f 241 157 389
f 381 336 91
f 307 146 213
f 397 95 402
f 293 324 183
f 247 190 325
f 103 270 211
f 119 226 386
f 166 62 223
f 2 62 231
f 135 137 80
f 20 14 85
f 183 324 7
f 344 282 222
f 303 249 305
f 399 97 273
f 122 42 14
f 404 27 207
f 392 384 313
f 207 27 405
f 335 191 65
f 373 307 213
f 57 236 235
f 357 273 348
f 396 161 139
f 251 132 205
f 207 405 38
f 69 92 115
f 293 331 383
f 339 374 347
f 398 337 178
f 227 252 209
f 344 274 282
f 28 74 395
f 291 240 298
f 126 132 175
f 134 138 90
f 288 59 1
f 383 73 324
f 271 262 143
f 335 260 378
f 299 326 32
f 8 279 336
f 29 179 27
f 78 265 133
f 293 53 331
f 100 258 192
f 40 71 352
f 229 187 106
f 317 48 121
f 197 267 88
f 317 121 47
f 328 385 225
f 66 201 332
f 244 139 259
f 67 216 355
f 164 55 309
f 35 19 94
f 382 46 275
f 4 226 171
f 54 297 380
f 4 101 24
f 156 136 297
f 66 332 298
f 143 262 199
f 3 209 356
f 21 249 203
f 5 14 79
f 260 196 378
f 301 92 300
f 57 221 138
f 220 323 296
f 257 173 206
f 16 72 120
f 167 269 393
f 165 115 92
f 297 333 55
f 105 158 268
f 353 198 308
f 74 18 52
f 113 17 170
f 157 274 344
f 345 247 163
f 278 154 326
f 73 233 87
f 271 71 262
f 155 241 103
f 254 70 194
f 375 109 265
f 33 272 36
f 117 353 365
f 127 121 150
f 178 290 169
f 217 247 345
f 283 218 251
f 8 336 381
f 335 372 84
f 104 215 280
f 32 246 360
f 128 194 331
f 2 230 166
f 227 83 252
f 17 211 172
f 60 328 225
f 260 214 11
f 271 143 30
f 391 24 278
f 269 353 117
f 254 273 97
f 228 220 221
f 266 79 153
f 60 225 102
f 371 126 400
f 41 160 306
f 305 161 396
f 341 343 340
f 367 61 258
f 338 277 60
f 179 380 248
f 223 192 281
f 295 276 373
f 14 42 129
f 258 329 49
f 57 138 134
f 143 315 30
f 304 251 205
f 353 308 365
f 74 52 395
f 39 150 118
f 180 128 53
f 264 263 399
f 204 223 354
f 63 184 218
f 222 282 148
f 248 338 149
f 178 169 213
f 321 344 222
f 17 103 211
f 241 402 157
f 160 250 56
f 308 310 124
f 404 131 269
f 241 389 270
f 257 343 173
f 125 320 208
f 317 330 48
f 280 215 43
f 29 354 54
f 388 264 300
f 105 142 228
f 49 107 136
f 150 121 48
f 35 123 259
f 287 56 250
f 176 284 217
f 326 78 246
f 72 109 120
f 234 106 276
f 31 319 210
f 179 248 405
f 288 155 59
f 171 226 243
f 220 363 221
f 254 194 128
f 205 132 98
f 371 132 126
f 382 91 46
f 282 3 22
f 232 205 86
f 271 30 119
f 281 49 136
f 99 104 280
f 365 362 152
f 85 278 299
f 167 239 45
f 62 192 223
f 308 124 144
f 119 96 226
f 288 1 296
f 80 375 51
f 285 20 401
f 127 150 39
f 178 337 351
f 303 305 396
f 10 201 333
f 67 9 171
f 342 115 165
f 244 259 97
f 276 307 373
f 117 359 294
f 185 39 325
f 336 82 81
f 38 186 366
f 376 102 292
f 46 256 61
f 24 51 154
f 67 355 255
f 216 304 355
f 290 393 169
f 19 147 50
f 170 18 74
f 196 11 272
f 285 401 159
f 154 51 78
f 167 45 404
f 371 400 25
f 44 342 283
f 303 124 310
f 158 235 268
f 25 279 8
f 117 365 359
f 245 253 180
f 196 272 33
f 185 314 340
f 159 401 200
f 163 118 311
f 311 403 392
f 150 48 286
f 58 321 230
f 345 163 318
f 26 342 44
f 141 149 376
f 350 93 114
f 352 71 15
f 327 352 122
f 394 364 266
f 26 315 306
f 233 286 48
f 84 323 191
f 67 96 216
f 391 386 4
f 387 77 339
f 401 32 200
f 378 196 397
f 290 167 393
f 242 298 240
f 75 359 152
f 390 351 337
f 151 13 21
f 179 405 27
f 72 68 197
f 379 122 5
f 318 311 147
f 383 208 168
f 303 310 249
f 40 229 71
f 140 314 190
f 28 395 312
f 109 197 88
f 322 87 330
f 394 182 145
f 165 76 63
f 172 211 210
f 39 118 325
f 347 322 369
f 394 235 364
f 228 235 158
f 361 377 294
f 246 78 133
f 76 245 184
f 165 92 301
f 70 123 125
f 231 62 223
f 113 1 59
f 134 90 40
f 161 111 139
f 388 362 144
f 182 191 145
f 383 331 208
f 378 397 334
f 370 26 44
f 311 118 403
f 41 199 250
f 339 77 180
f 81 108 6
f 400 112 369
f 332 340 181
f 365 308 144
f 230 222 193
f 119 386 15
f 238 217 345
f 295 373 361
f 38 149 141
f 9 135 80
f 216 44 304
f 255 135 9
f 322 330 108
f 93 384 403
f 214 153 285
f 370 30 26
f 70 259 123
f 380 297 55
f 174 321 58
f 29 27 45
f 23 373 213
f 131 198 353
f 78 368 265
f 272 237 99
f 271 119 15
f 394 266 182
f 84 372 288
f 113 170 74
f 304 205 232
f 137 86 16
f 404 45 27
f 231 223 204
f 245 348 253
f 320 94 34
f 11 159 237
f 35 111 19
f 317 47 6
f 89 280 289
f 28 363 1
f 195 19 111
f 182 266 153
f 391 129 386
f 195 318 147
f 170 116 18
f 116 398 18
f 143 41 315
f 102 225 242
f 90 187 229
f 36 280 89
f 67 226 96
f 184 77 175
f 50 392 313
f 295 361 287
f 42 15 386
f 55 333 201
f 252 382 356
f 254 97 70
f 194 125 208
f 46 81 256
f 195 188 318
f 237 104 99
f 19 50 94
f 211 174 210
f 108 317 6
f 44 251 304
f 210 174 58
# 808 faces, 0 coords texture

# End of File