####
#
# OBJ File Generated by Meshlab
#
####
# Object domain006.obj
#
# Vertices: 678
# Faces: 1354
#
####
v 199.893692 171.780670 126.560448
v 199.716171 161.722168 132.098267
v 195.723373 169.938965 120.538452
v 183.144119 157.929886 120.671028
v 187.227081 147.632294 131.250519
v 178.729889 149.746582 132.314316
v 183.125504 167.888855 120.523308
v 179.704849 155.873596 125.388733
v 201.011368 156.106430 122.128860
v 185.175873 163.787048 132.499985
v 183.127396 173.457520 121.397354
v 191.329041 165.837891 132.500015
v 200.819687 151.793304 131.748276
v 179.391968 173.351990 124.148460
v 187.227325 151.231339 121.370720
v 174.668823 151.774979 132.260498
v 178.730164 167.887726 132.467300
v 172.515472 170.387375 131.981522
v 177.236938 165.835220 127.476273
v 197.772644 149.748108 132.298660
v 178.885635 173.882553 121.842026
v 189.278000 155.876007 132.500015
v 178.222595 171.912033 126.008575
v 200.764679 150.097595 127.642487
v 177.599670 148.362854 129.690002
v 176.985657 151.726288 128.963974
v 193.672852 174.168976 124.123199
v 175.742325 171.235703 129.718567
v 195.723892 155.876007 132.499985
v 177.714310 160.004562 127.650101
v 193.673004 163.787094 120.500000
v 200.846008 161.734680 121.228073
v 178.834015 148.332382 128.786575
v 178.783112 155.920975 126.762703
v 199.049377 173.297150 124.189804
v 177.579422 172.033279 127.312927
v 197.774033 157.926880 120.531837
v 197.773819 151.774887 132.456131
v 191.329025 172.765427 128.769684
v 183.125473 169.875824 132.207520
v 180.780853 149.748856 132.301865
v 191.328629 174.172623 124.123665
v 180.781082 167.887314 132.461746
v 201.788040 157.954132 124.469688
v 195.716171 151.247437 121.385941
v 201.036255 155.870834 131.906845
v 174.866898 147.921661 131.570786
v 176.679749 155.875977 132.472137
v 199.795898 148.053253 131.741409
v 179.387024 165.931885 122.064827
v 199.204468 171.711990 128.482132
v 173.609314 149.720612 131.999374
v 185.176010 173.104980 127.972267
v 175.749313 153.821213 130.042648
v 178.287674 165.801544 126.083138
v 180.781128 159.978012 132.500000
v 187.227036 161.736069 120.500015
v 201.082108 167.758743 122.206223
v 199.760239 165.832489 120.801697
v 197.739914 167.868484 132.079895
v 193.672836 161.736038 132.499985
v 178.704819 173.583252 121.262291
v 174.652954 159.964554 130.563202
v 195.723389 148.404999 126.559647
v 193.675049 148.087112 131.729065
v 197.760208 169.931198 120.670166
v 178.984055 170.069504 121.153282
v 189.278046 148.788269 125.474831
v 195.723969 159.978073 120.500015
v 195.726273 147.634094 131.249588
v 193.673233 149.748810 132.301926
v 191.328949 163.787094 120.500015
v 181.313782 158.103775 121.219086
v 183.125275 147.474609 130.261856
v 189.277969 161.735962 132.500000
v 200.654236 147.986649 131.553909
v 185.176041 159.978027 120.509377
v 197.691498 150.598404 122.503891
v 191.329086 159.978027 120.500008
v 185.175919 161.735931 120.504135
v 187.227066 165.837936 132.500000
v 174.252106 163.766373 130.404938
v 193.673492 151.924240 120.995255
v 178.002548 170.678513 121.059891
v 191.327850 170.683456 131.824066
v 201.292313 165.798660 128.723099
v 199.053894 165.779068 132.013489
v 185.176437 169.879730 132.218964
v 187.227066 155.875992 132.499985
v 191.328659 150.363815 122.373886
v 187.227203 150.355759 122.368584
v 185.178467 148.078262 131.744247
v 178.760376 172.872086 127.908554
v 176.628830 157.916641 128.950928
v 177.098648 149.763672 129.177734
v 195.724121 149.746613 132.314407
v 179.760406 153.821152 125.416496
v 193.672989 173.103073 127.971336
v 179.677353 163.883408 122.005760
v 172.735901 169.910782 131.693771
v 185.175919 165.837860 132.500000
v 172.755417 165.843002 132.017654
v 178.726761 148.082047 131.742447
v 172.644974 165.844879 131.910889
v 174.635162 165.838104 132.397293
v 195.723969 153.833054 120.609489
v 180.046127 162.347229 121.253357
v 174.666702 155.876511 132.271866
v 197.774155 172.933060 127.922844
v 189.277878 149.340836 124.210472
v 185.177933 147.634247 131.249603
v 202.369370 158.043716 128.447632
v 181.856201 151.816208 122.075905
v 183.131821 159.979599 120.602928
v 173.606567 151.773895 131.998840
v 189.277969 169.939529 120.521233
v 201.287048 155.960480 124.410049
v 183.161133 155.880539 120.730431
v 202.202209 155.911728 128.624207
v 195.720139 149.385788 124.231819
v 191.329010 169.939362 120.525726
v 195.715302 150.396912 122.393715
v 198.713120 173.319000 121.530632
v 197.767471 147.476517 130.267502
v 183.125000 167.887360 132.461716
v 200.114349 152.278122 121.320839
v 180.841904 165.839798 120.789795
v 177.874939 173.936829 121.279716
v 185.175873 163.787048 120.500023
v 191.328995 147.759811 128.524994
v 189.273712 173.472626 121.377739
v 173.607010 155.900955 131.990738
v 200.413696 170.074554 121.934593
v 187.227005 163.787109 120.500008
v 201.126053 149.777603 128.734146
v 200.440826 149.052734 128.142822
v 195.721939 173.608368 126.453217
v 180.000870 164.023911 121.269135
v 180.781052 165.837906 132.500000
v 176.444519 161.693924 128.681641
v 197.771332 153.838501 120.659485
v 183.124985 159.977997 132.500000
v 180.793854 169.946014 120.674438
v 177.958710 169.938705 126.073853
v 180.780197 147.654282 131.242081
v 183.125000 173.100754 127.970459
v 185.180267 173.472473 121.378036
v 189.277481 169.879761 132.219009
v 185.176819 174.186508 124.125099
v 200.651016 148.516861 129.338867
v 199.800217 155.875580 132.302628
v 173.540665 147.767044 132.001602
v 193.672882 151.774521 132.479263
v 172.650620 170.688171 131.995316
v 197.694260 172.520554 128.644989
v 193.672974 153.825073 132.500015
v 176.376434 163.777069 128.551544
v 195.722290 148.808578 125.483208
v 174.628296 170.453445 131.760437
v 185.176147 149.746582 132.314392
v 177.982269 170.731201 121.041779
v 201.330109 157.975861 122.270790
v 193.673004 150.365265 122.374817
v 189.277512 174.189621 124.125580
v 201.571533 160.007629 122.260399
v 193.677048 173.456375 121.398743
v 191.329010 161.736038 132.500000
v 174.622543 147.942719 131.910126
v 193.672867 169.939407 120.525726
v 189.277924 155.876053 120.510201
v 202.152756 159.873871 126.545235
v 187.227097 174.063736 122.201645
v 185.175888 161.735931 132.499985
v 185.175934 155.876007 132.500031
v 178.778320 147.685638 130.363510
v 178.730087 151.774292 132.482727
v 187.227173 149.343384 124.211746
v 201.819839 165.866760 124.475464
v 173.295105 162.016983 131.886612
v 189.278030 153.825058 132.499985
v 199.760208 157.928482 120.798096
v 195.723877 153.825073 132.500000
v 185.178452 149.372177 124.225189
v 185.175919 159.978027 132.499985
v 193.673019 148.790405 125.475578
v 200.641220 159.578354 131.905945
v 195.723862 157.926956 132.499985
v 201.165970 149.767029 130.824310
v 191.328934 167.888794 120.500000
v 191.328995 155.876007 132.500000
v 202.002426 159.870193 124.243607
v 193.672913 147.760193 128.525070
v 191.328354 151.924255 120.995277
v 202.263107 154.708771 130.517960
v 200.153015 151.305008 122.144012
v 193.672928 159.978027 132.500015
v 178.730072 165.837906 132.500000
v 187.227051 159.978012 120.499969
v 200.526367 155.892929 121.308228
v 178.781830 171.983856 120.875603
v 195.734680 173.480026 121.366951
v 176.680389 151.774948 132.454041
v 178.117249 149.772827 128.254593
v 189.277924 161.735962 120.499985
v 197.782761 147.633759 131.250671
v 179.761154 161.693436 124.459152
v 191.328934 163.787079 132.500000
v 185.176239 148.388885 126.553833
v 193.672897 148.383667 126.552345
v 178.064880 167.816544 126.059204
v 182.293274 152.301437 121.365845
v 183.125015 157.926926 132.500031
v 185.175964 147.754547 128.523560
v 187.226883 173.635437 126.461533
v 189.275482 148.078308 131.744217
v 191.329010 173.102798 127.971207
v 195.722412 151.924911 120.996155
v 195.723953 165.837906 120.499992
v 197.770859 167.887283 120.572556
v 187.226929 157.926880 120.499992
v 178.710724 167.726639 124.296852
v 195.723877 157.926971 120.500000
v 174.673737 151.774368 131.041458
v 191.328964 167.887344 132.461761
v 173.541290 147.763397 132.016800
v 176.682724 170.609116 131.776367
v 179.517227 168.058960 121.339958
v 200.933777 153.843491 131.816772
v 180.781113 153.825119 132.500015
v 197.774017 165.837875 120.531548
v 191.329025 159.977997 132.500015
v 202.112930 161.735367 126.498589
v 197.773544 159.977356 132.450577
v 189.278076 163.787064 132.500015
v 183.185410 149.573395 124.316483
v 189.277374 171.671249 130.811707
v 201.489441 167.693375 124.340088
v 200.966782 151.839569 126.982796
v 175.780029 151.768204 130.070984
v 197.724533 173.408432 126.395103
v 191.328644 147.472336 130.261795
v 178.036057 171.996674 121.040672
v 180.853958 173.925522 124.054222
v 178.730072 159.978043 132.499985
v 174.462738 161.637726 130.512756
v 191.329056 151.774536 132.479279
v 177.871460 151.771439 128.019119
v 175.277725 169.933853 129.532837
v 199.741730 155.879059 120.837036
v 189.277954 159.977997 120.499962
v 185.175858 167.887741 132.467300
v 187.227051 173.475372 121.373550
v 176.678131 148.049271 130.699844
v 185.175934 151.774292 132.482742
v 195.723892 161.735916 132.491837
v 193.673218 147.472382 130.261795
v 177.163864 167.886948 127.402054
v 178.730011 161.735901 132.500000
v 187.227051 151.920120 120.982574
v 187.227051 170.693130 131.839264
v 173.365280 159.990082 131.944183
v 199.723312 167.855087 120.878220
v 193.672867 159.978027 120.500000
v 199.790390 153.825577 132.276855
v 178.915466 151.759583 126.843437
v 200.706802 149.755692 131.675888
v 176.680206 169.871521 132.199036
v 199.113724 171.771805 121.307777
v 191.328995 148.789017 125.474983
v 177.934570 172.027847 121.224319
v 187.227020 172.768845 128.771027
v 176.893494 155.882507 128.879623
v 189.277985 159.978043 132.499985
v 179.820419 165.921204 121.333153
v 175.163712 167.889587 129.385254
v 183.127213 148.087173 131.729080
v 187.226944 149.746048 132.317001
v 177.760025 174.119293 121.344597
v 180.156540 155.864777 124.392097
v 179.627884 157.921844 125.340714
v 178.515167 169.967728 122.103897
v 173.609512 149.721329 131.998215
v 189.277939 148.380905 126.550949
v 175.239471 163.822372 129.528763
v 183.125290 149.748856 132.301926
v 200.930664 163.594818 130.537643
v 187.226959 153.832947 120.607208
v 185.182114 150.389435 122.388451
v 180.927994 148.813126 126.916260
v 176.572433 159.965622 128.785461
v 200.096817 151.259659 122.160057
v 176.782364 171.300674 130.758438
v 199.795547 157.922394 132.288574
v 189.278076 157.926926 132.500015
v 200.794296 169.476501 122.359276
v 185.175903 153.825104 132.500000
v 197.724136 171.946625 120.858681
v 183.126282 170.683289 131.823868
v 202.369568 155.897202 130.398941
v 200.507553 151.641312 126.017448
v 176.679413 159.977982 132.479889
v 185.176132 157.926956 120.515182
v 201.001251 155.409119 123.073395
v 179.022125 165.846191 124.305862
v 172.670547 164.149841 131.927567
v 185.179306 174.058151 122.203011
v 177.973480 172.775024 127.206978
v 173.607635 151.773972 132.000351
v 180.638397 149.732452 125.979446
v 201.790024 157.984528 130.937363
v 174.629745 155.866730 130.969727
v 183.181656 153.844635 120.821251
v 174.674271 149.743195 132.193787
v 195.715866 170.686295 131.841461
v 178.730148 163.787018 132.499985
v 200.149216 151.262009 122.153419
v 195.723892 159.977997 132.496338
v 187.227066 159.977982 132.500015
v 178.738037 147.693848 131.252563
v 187.226929 153.825089 132.500015
v 174.716003 157.912689 130.687790
v 198.781815 173.904388 122.174149
v 197.342712 169.879074 131.955566
v 189.277222 151.920288 120.984009
v 201.721848 165.789337 126.580574
v 193.672821 155.875961 132.500015
v 175.363174 162.119415 129.651367
v 176.662552 148.092209 131.760193
v 173.355057 160.004074 131.936218
v 197.764008 163.785858 132.371857
v 182.007248 150.850006 122.909348
v 180.781097 161.736099 132.500000
v 195.725052 173.084381 127.964638
v 178.536758 163.738922 126.288132
v 180.788864 173.986618 122.191444
v 187.227081 155.876129 120.510208
v 197.721375 173.491196 121.354836
v 191.328476 171.952179 120.741371
v 189.277985 165.837906 120.499992
v 178.729416 171.605042 130.756516
v 185.176575 171.671280 130.811737
v 178.716003 159.974319 126.562538
v 200.130142 163.801086 131.552322
v 174.031006 165.758286 130.399292
v 174.171982 169.860474 130.656738
v 197.755493 165.830292 132.309952
v 195.737106 174.066498 122.202507
v 178.728958 170.679474 131.823761
v 180.782852 171.951431 120.772507
v 200.994217 167.712311 128.411667
v 180.781097 157.926865 132.499985
v 177.728500 174.108871 121.338051
v 199.794937 159.981796 132.206757
v 180.814377 161.751129 120.931282
v 183.124817 147.796463 128.534027
v 179.352173 164.123474 124.490501
v 183.125000 151.774506 132.479263
v 178.657913 161.720978 126.497925
v 200.602142 160.540894 131.851929
v 193.674576 147.650620 131.242737
v 197.774536 161.736038 120.521523
v 193.672852 165.837906 120.500000
v 199.831436 149.690414 126.539642
v 177.189240 170.059326 127.355522
v 193.673386 171.952133 120.741539
v 198.498230 171.224030 130.038589
v 199.762543 149.754700 132.131256
v 174.667694 153.825180 132.267441
v 200.151932 169.865738 128.657974
v 181.696457 156.018707 121.295265
v 200.778992 165.354919 130.148636
v 182.001175 154.015320 121.298187
v 197.774353 163.787079 120.527237
v 189.277802 150.355911 122.368607
v 201.341324 167.859741 126.686401
v 191.328888 157.926849 120.499977
v 180.782089 172.747284 128.761719
v 176.286469 167.889053 128.332611
v 193.673065 153.833817 120.615730
v 199.103790 169.834793 130.389526
v 180.028519 157.964859 124.322021
v 180.099442 159.870605 122.487793
v 176.681564 149.747696 132.302551
v 180.781036 155.875992 132.499985
v 185.176773 155.876389 120.533440
v 187.227051 169.939560 120.521240
v 199.775818 151.776245 132.232193
v 173.585495 147.758987 131.997360
v 172.703384 169.914627 132.039917
v 199.338943 148.746445 127.254410
v 183.134552 148.475098 126.587227
v 180.826004 167.897049 120.758392
v 174.661209 157.927719 132.283844
v 199.783844 161.735580 120.737663
v 178.741776 172.583328 128.703415
v 189.278091 163.787094 120.500008
v 180.022675 161.819824 121.502274
v 185.176025 172.768219 128.770721
v 193.672974 167.888855 120.499992
v 197.686218 173.955811 124.065323
v 197.773361 155.876572 120.546135
v 172.771027 165.842087 131.614609
v 189.278076 157.926910 120.499992
v 195.723862 163.787018 120.500015
v 183.125000 153.825104 132.500015
v 177.707993 157.909195 127.865883
v 193.673218 151.240234 121.381439
v 176.679306 167.887390 132.459106
v 183.125595 171.660309 130.804474
v 189.278046 167.887695 132.467316
v 185.175949 165.837906 120.499992
v 174.636688 167.886353 132.369202
v 183.127533 161.737152 120.564468
v 183.125412 169.939133 120.538063
v 177.798248 155.874146 127.950554
v 187.226990 171.956757 120.721924
v 183.125000 155.876007 132.500000
v 189.277939 165.837906 132.500000
v 189.277802 149.746552 132.314331
v 200.483475 153.978394 121.273087
v 172.689362 167.906342 131.924316
v 201.396576 159.905777 130.951538
v 202.067642 159.977753 128.498932
v 200.904877 169.739136 126.432892
v 185.175003 151.925430 120.996452
v 183.116440 148.941666 125.546417
v 183.125015 163.787094 132.500000
v 200.683075 157.942734 121.310860
v 191.326828 148.087173 131.729050
v 172.777634 167.891449 132.021591
v 185.175995 173.633484 126.460915
v 199.977249 165.847107 131.203827
v 187.226913 167.887634 132.467300
v 178.730209 153.825089 132.500015
v 201.929413 153.866089 130.883713
v 200.673706 153.972366 121.647942
v 200.466705 161.679443 131.706070
v 173.601471 155.917297 131.985901
v 174.022003 167.905075 130.386490
v 197.727127 149.016907 125.578232
v 179.888535 159.793839 124.276138
v 189.277924 147.753784 128.523407
v 176.700119 147.841995 131.376663
v 183.138733 151.926483 121.079872
v 180.848129 163.796524 120.817726
v 176.944794 153.824875 128.912323
v 172.580612 169.996750 131.948898
v 174.653107 153.825409 131.016205
v 201.953003 163.844971 126.690536
v 189.278000 151.774292 132.482758
v 177.630707 161.735046 127.586159
v 179.410019 162.793274 125.256432
v 185.175842 167.888885 120.500008
v 193.672714 167.887070 132.454849
v 195.721771 172.736832 128.757141
v 172.883240 167.841751 131.509171
v 197.774460 153.825089 132.474380
v 193.672714 172.762253 128.768173
v 189.277664 171.955841 120.725555
v 197.754715 151.966217 121.060249
v 173.386230 158.025330 131.968948
v 201.275146 153.993454 126.491440
v 193.672791 149.347672 124.213531
v 189.274521 174.058258 122.202995
v 197.780380 148.073288 131.755142
v 185.176498 148.803741 125.481209
v 180.797913 173.464142 126.413956
v 200.742432 157.867706 131.948425
v 187.226913 157.926865 132.500000
v 183.125046 172.764725 128.769348
v 179.413666 148.792786 127.840111
v 183.128281 174.027481 122.212196
v 195.723740 147.461670 130.262466
v 187.226959 167.888840 120.500008
v 178.730087 155.875992 132.500000
v 191.325287 173.455933 121.399460
v 200.760269 147.831268 131.399063
v 178.542587 171.964111 124.297806
v 180.778885 148.087189 131.729050
v 193.672852 165.837906 132.500015
v 195.723694 147.758240 128.524734
v 183.125015 165.837906 132.500000
v 191.328995 155.876144 120.512154
v 193.672806 155.876129 120.512138
v 179.157654 149.843201 127.233803
v 180.786484 147.525940 130.272568
v 191.328613 169.875839 132.207565
v 178.439133 169.959900 124.328712
v 191.328949 157.926880 132.500000
v 187.227020 174.193298 124.126015
v 176.679382 161.736084 132.480118
v 195.702850 171.608444 130.782974
v 174.653275 161.740341 132.312683
v 183.124985 161.736038 132.500000
v 176.354752 169.931229 128.399445
v 178.730148 157.926941 132.499969
v 200.681000 165.689316 121.259491
v 189.277573 147.458893 130.262131
v 199.439941 163.663071 131.993835
v 197.610214 171.349274 130.681229
v 176.938736 171.809036 128.680649
v 183.126144 163.787262 120.534798
v 201.252808 161.593353 130.662186
v 201.519348 163.771271 122.199409
v 181.317429 153.775467 122.188988
v 191.328857 153.833801 120.615768
v 183.125366 171.952118 120.741463
v 185.175949 169.939499 120.521255
v 202.427216 157.475220 129.182724
v 200.645828 153.709381 124.238419
v 189.278000 173.634552 126.461235
v 199.693756 152.241531 121.228462
v 181.519470 150.234116 124.515961
v 191.328690 149.748856 132.301880
v 189.277985 173.104935 127.972237
v 181.041626 156.030060 122.029121
v 177.605911 172.557068 127.857216
v 189.278015 153.833054 120.608658
v 189.276535 170.691956 131.838074
v 177.511978 163.848129 127.450310
v 200.980103 155.184891 123.945122
v 183.170715 150.568863 122.461761
v 174.731308 149.726257 131.117035
v 187.227051 148.381073 126.551033
v 187.226791 171.674011 130.813522
v 179.542633 161.724228 125.301857
v 175.706039 155.960419 129.983643
v 179.841370 161.814560 122.839394
v 180.779694 170.683640 131.824188
v 199.083115 173.633240 122.186378
v 200.721848 152.890518 125.580704
v 199.901199 148.159180 128.565430
v 200.027527 151.749008 123.895920
v 193.676300 170.684372 131.825180
v 173.608002 153.825562 132.000122
v 199.553314 169.811905 121.180046
v 199.776947 163.785690 120.760315
v 185.178253 153.835144 120.631798
v 191.328949 153.825104 132.500000
v 191.329010 148.383514 126.552284
v 183.125595 165.837891 120.525177
v 197.819809 151.383896 121.466560
v 185.177475 170.691986 131.838043
v 187.227081 165.837921 120.499992
v 195.721375 171.953781 120.739471
v 195.723877 161.735916 120.499985
v 197.774338 157.926773 132.470413
v 201.423645 151.861755 130.896759
v 200.862259 148.097839 130.933716
v 191.328415 151.239563 121.380699
v 179.609573 163.158997 124.217583
v 198.191284 169.694839 131.399811
v 201.630600 163.702576 128.581543
v 180.781036 163.787079 132.500000
v 183.295563 151.353302 121.453568
v 189.276062 147.634171 131.249664
v 180.497772 159.080551 121.551804
v 173.341507 161.810135 131.923309
v 185.176224 171.955856 120.725746
v 183.132919 174.133652 124.116486
v 197.774475 159.977982 120.523399
v 176.679565 157.926895 132.474579
v 200.277802 151.168930 122.101501
v 178.578461 173.650970 122.275085
v 201.361938 165.794754 122.254036
v 172.809891 170.694733 131.992447
v 195.723633 163.786987 132.484253
v 199.530350 167.789810 130.876389
v 193.672379 171.654266 130.801254
v 191.328094 171.659805 130.804138
v 193.673096 169.876175 132.207779
v 185.183273 151.238861 121.376945
v 200.576538 153.502121 122.950798
v 187.227036 147.753250 128.523224
v 202.013397 163.762283 124.504005
v 200.390121 167.710526 121.262276
v 199.731735 147.651840 130.344131
v 180.781143 171.653152 130.799637
v 191.328918 173.629913 126.459793
v 185.175873 157.926926 132.500015
v 174.866501 170.706146 130.986084
v 180.996902 160.016571 121.068398
v 177.828873 153.824600 127.978683
v 200.798660 168.988785 127.916458
v 193.676727 174.033508 122.211548
v 173.387527 158.001114 131.968063
v 193.672882 161.736069 120.500023
v 180.254089 160.138336 121.564659
v 179.548309 159.976700 125.304573
v 179.951431 151.753372 125.533798
v 201.774902 155.941162 131.296646
v 195.723862 167.888885 120.500008
v 193.673004 173.628555 126.459335
v 187.226990 173.104721 127.972130
v 191.327332 147.650635 131.242722
v 189.278061 167.888870 120.500008
v 176.679062 163.787094 132.489014
v 174.658432 159.978561 132.296143
v 187.227051 148.077103 131.747025
v 185.176346 147.458954 130.262085
v 175.179977 165.840851 129.413895
v 201.874084 161.772537 128.563202
v 199.744659 153.856003 120.891830
v 195.723923 155.876099 120.510216
v 189.277893 172.768219 128.770737
v 198.867996 172.568604 127.590881
v 187.226898 163.787079 132.500015
v 200.449509 170.480743 127.223007
v 176.679810 153.825089 132.471237
v 173.606705 153.826324 131.998428
v 191.329025 149.345551 124.212509
v 178.915604 173.003876 126.424988
v 202.354858 157.255844 130.106171
v 199.079224 172.921768 126.178696
v 198.848007 166.801987 131.916992
v 187.227081 147.456512 130.262085
v 195.726791 148.077881 131.745056
v 180.332458 153.753876 124.361923
v 199.779114 159.979080 120.749840
v 187.227066 169.880554 132.221848
v 195.723907 151.774292 132.482742
v 178.262390 172.018448 122.481194
v 202.105820 161.741653 124.508957
v 202.065887 157.798431 126.685448
v 201.842239 153.855682 128.672638
v 178.729462 169.879776 132.219009
v 191.325958 174.032104 122.211761
v 187.227081 161.736053 132.500000
v 201.758270 155.880295 126.668388
v 199.836838 147.642181 131.247696
v 172.830994 163.849762 131.706772
v 174.639359 163.788361 132.367798
v 187.227051 151.774368 132.482742
v 201.465897 151.800003 128.806030
v 175.939148 149.726639 130.237366
v 176.335083 165.705246 128.407608
v 197.687561 149.640320 124.341339
v 195.716553 174.150452 124.118149
v 197.810562 148.536728 126.586487
v 195.718918 167.884766 132.396057
v 180.579041 158.008972 122.142647
v 189.277374 151.231812 121.371269
v 200.796127 159.992813 121.252121
v 197.748428 174.094437 122.192146
v 180.780609 169.875854 132.207596
v 200.504959 168.277588 129.119400
v 201.570923 161.740921 122.151146
v 193.673004 157.926895 132.500000
v 178.783386 157.937546 126.676544
v 178.823685 153.823502 126.784775
v 180.739136 151.757217 124.332321
v 200.804428 163.767166 121.255821
v 199.801270 171.777481 122.187660
v 199.084183 150.490036 124.337807
v 174.636002 169.853165 132.142105
v 197.764801 147.852463 128.556000
v 180.781097 151.774551 132.479248
v 176.679016 165.837891 132.491470
v 197.046371 170.590439 131.716064
v 180.782990 173.060059 127.956390
v 174.802521 147.815643 131.748688
v 183.126709 147.650665 131.242691
v 172.793640 163.802963 131.981186
v 195.723343 165.837692 132.474365
v 180.806610 147.970947 128.614868
v 197.769897 161.734589 132.408630
v 187.226974 148.787766 125.474632
v 191.328995 165.837936 120.499992
v 200.052994 171.881042 124.411812
v 195.708099 169.882645 132.190445
v 193.672958 163.787048 132.500000
v 191.329102 161.736084 120.500008
v 180.761993 173.464691 121.382088
v 183.126297 173.608414 126.453232
v 197.774704 155.875961 132.480316
v 200.959869 169.806366 124.360939
v 179.063782 167.995071 122.051414
v 193.672989 157.926910 120.500000
# 678 vertices, 0 vertices normals

f 363 136 24
f 96 621 20
f 483 484 376
f 637 363 654
f 496 562 301
f 135 238 24
f 196 317 187
f 119 509 112
f 495 501 28
f 630 49 477
f 1 424 608
f 542 563 512
f 208 667 466
f 541 411 7
f 205 577 124
f 103 6 479
f 49 367 76
f 246 180 539
f 269 110 68
f 422 503 423
f 179 663 558
f 409 341 543
f 568 646 350
f 550 407 83
f 582 4 114
f 549 188 150
f 517 93 395
f 539 190 156
f 173 628 318
f 31 404 362
f 76 266 188
f 57 250 204
f 641 73 557
f 603 420 249
f 373 537 230
f 187 547 675
f 291 563 316
f 125 40 251
f 11 559 147
f 288 177 91
f 563 573 195
f 675 547 151
f 662 74 145
f 272 94 527
f 501 340 292
f 138 107 354
f 220 170 403
f 422 112 310
f 380 51 369
f 128 242 200
f 470 146 398
f 621 38 20
f 639 390 363
f 451 342 358
f 402 104 631
f 118 385 4
f 157 284 140
f 245 327 82
f 598 493 301
f 628 75 273
f 355 213 391
f 429 215 419
f 74 355 665
f 182 457 38
f 175 253 443
f 11 306 472
f 238 634 625
f 532 135 136
f 662 111 600
f 542 512 460
f 532 363 390
f 206 528 551
f 372 211 444
f 580 184 469
f 288 91 572
f 662 600 74
f 167 207 61
f 227 392 67
f 535 610 132
f 264 151 228
f 380 366 51
f 362 404 218
f 29 675 457
f 251 433 81
f 497 565 576
f 592 219 3
f 338 365 476
f 222 37 69
f 193 324 642
f 474 339 596
f 482 125 101
f 597 105 658
f 413 77 80
f 406 290 94
f 99 528 397
f 41 285 276
f 385 287 336
f 252 464 172
f 220 403 198
f 398 271 525
f 318 628 273
f 233 353 293
f 668 189 596
f 622 564 14
f 572 259 425
f 266 548 188
f 620 260 148
f 300 462 531
f 44 624 171
f 74 486 145
f 219 262 66
f 505 113 211
f 87 615 568
f 146 53 398
f 43 645 125
f 102 305 104
f 132 461 108
f 499 87 432
f 17 43 139
f 660 146 470
f 295 58 676
f 510 462 117
f 421 456 447
f 431 149 214
f 354 582 114
f 554 139 427
f 81 418 234
f 216 593 98
f 336 518 170
f 106 141 604
f 46 310 591
f 492 455 500
f 578 377 409
f 333 109 155
f 572 91 15
f 577 549 532
f 30 342 451
f 375 237 178
f 117 629 624
f 144 478 23
f 252 131 464
f 59 652 497
f 669 133 676
f 100 447 456
f 341 398 525
f 587 69 546
f 281 478 488
f 378 495 248
f 455 155 500
f 525 271 236
f 475 229 434
f 213 574 208
f 369 584 350
f 399 592 169
f 252 459 131
f 297 536 268
f 341 525 260
f 570 236 605
f 466 667 183
f 611 463 90
f 496 301 244
f 193 83 506
f 198 250 57
f 545 66 297
f 314 492 659
f 45 78 542
f 206 526 589
f 633 450 419
f 240 614 109
f 267 226 626
f 32 647 652
f 123 653 530
f 388 661 47
f 474 596 386
f 179 305 663
f 323 500 552
f 205 630 577
f 102 430 105
f 207 418 12
f 634 188 548
f 479 41 276
f 88 620 433
f 449 575 623
f 651 505 618
f 583 650 415
f 119 194 299
f 661 168 443
f 494 427 173
f 665 355 289
f 25 203 95
f 7 411 453
f 355 600 213
f 27 585 638
f 378 19 257
f 477 76 549
f 493 632 491
f 179 631 305
f 441 206 589
f 597 491 632
f 453 474 508
f 85 236 570
f 422 359 437
f 268 133 653
f 152 225 388
f 10 101 607
f 402 456 421
f 469 318 294
f 636 275 601
f 500 155 51
f 313 308 16
f 510 521 303
f 51 606 614
f 617 465 205
f 501 292 581
f 99 50 304
f 362 218 399
f 343 503 437
f 5 498 616
f 206 382 528
f 272 415 406
f 91 110 374
f 454 571 640
f 79 204 250
f 506 379 483
f 121 459 116
f 428 162 643
f 3 219 66
f 41 6 176
f 136 135 24
f 622 14 478
f 604 401 222
f 630 549 577
f 18 447 100
f 49 76 477
f 62 349 673
f 360 473 256
f 677 227 281
f 445 413 502
f 654 533 291
f 458 455 492
f 579 164 42
f 26 446 54
f 36 364 144
f 30 140 290
f 430 389 412
f 381 641 441
f 113 555 444
f 2 343 437
f 640 670 60
f 12 480 671
f 286 553 602
f 363 238 300
f 189 121 116
f 618 279 97
f 4 385 302
f 553 232 602
f 563 195 316
f 335 472 560
f 230 59 219
f 336 170 220
f 524 68 667
f 629 119 112
f 133 295 676
f 121 169 338
f 227 274 127
f 634 548 625
f 387 13 266
f 278 564 622
f 500 366 552
f 156 326 182
f 26 583 446
f 9 162 428
f 485 289 309
f 641 557 382
f 150 188 135
f 10 607 628
f 249 420 199
f 73 118 4
f 513 426 235
f 550 193 642
f 534 314 670
f 67 392 143
f 620 148 410
f 285 160 92
f 319 103 145
f 306 172 490
f 484 106 604
f 5 599 556
f 267 626 17
f 436 9 199
f 108 609 368
f 495 28 248
f 489 294 273
f 179 329 63
f 270 622 281
f 305 631 104
f 657 357 285
f 298 543 88
f 568 369 646
f 525 236 519
f 384 417 405
f 524 442 283
f 432 371 286
f 510 531 462
f 52 523 115
f 291 316 563
f 209 64 158
f 351 212 417
f 480 454 664
f 383 16 202
f 495 257 364
f 152 47 52
f 411 544 453
f 114 302 77
f 225 168 661
f 629 112 624
f 504 575 178
f 52 308 282
f 129 57 134
f 63 321 94
f 240 400 614
f 353 437 359
f 112 423 171
f 262 576 536
f 89 469 22
f 151 46 228
f 536 133 268
f 535 16 308
f 287 518 336
f 39 216 458
f 1 669 424
f 400 644 35
f 235 466 183
f 85 570 534
f 269 68 283
f 516 505 372
f 223 448 610
f 349 414 507
f 540 269 283
f 441 589 280
f 513 235 331
f 159 154 566
f 394 643 32
f 197 17 139
f 505 211 372
f 414 453 508
f 440 363 637
f 42 27 593
f 73 588 557
f 426 466 235
f 625 548 435
f 402 421 104
f 160 277 599
f 245 140 327
f 346 60 87
f 45 542 460
f 137 240 333
f 84 67 161
f 214 490 511
f 337 268 123
f 346 87 499
f 494 173 184
f 661 443 253
f 594 511 515
f 56 332 142
f 84 161 270
f 51 614 1
f 552 366 380
f 125 251 101
f 377 660 470
f 595 429 360
f 404 373 218
f 99 356 551
f 271 605 236
f 26 247 583
f 168 328 443
f 70 617 205
f 611 374 110
f 543 260 620
f 581 345 248
f 254 633 277
f 224 410 148
f 506 170 518
f 435 299 194
f 163 120 122
f 4 302 114
f 619 428 643
f 616 498 574
f 663 493 558
f 475 562 496
f 201 644 347
f 3 66 545
f 529 578 298
f 563 533 510
f 564 21 14
f 108 461 393
f 385 336 302
f 397 588 582
f 127 541 392
f 670 323 60
f 677 488 221
f 490 164 511
f 384 351 417
f 313 328 168
f 358 526 334
f 64 639 440
f 181 199 428
f 555 425 444
f 82 284 344
f 189 116 596
f 326 29 182
f 25 95 635
f 655 154 159
f 535 368 16
f 278 622 270
f 514 419 450
f 463 158 120
f 526 551 452
f 63 329 321
f 342 589 358
f 18 100 566
f 655 389 154
f 183 667 177
f 576 565 58
f 135 634 238
f 479 6 41
f 462 629 117
f 648 196 187
f 111 616 600
f 139 482 427
f 241 442 498
f 192 473 481
f 348 340 529
f 573 9 436
f 60 552 568
f 552 380 568
f 514 71 65
f 167 234 207
f 492 500 659
f 35 653 669
f 158 440 120
f 395 377 578
f 472 306 149
f 413 80 502
f 123 530 322
f 535 308 115
f 667 68 177
f 226 348 626
f 485 309 265
f 319 145 486
f 579 511 164
f 278 242 128
f 166 201 347
f 95 203 247
f 41 176 657
f 269 185 611
f 636 19 378
f 361 619 394
f 481 656 64
f 678 604 222
f 275 248 345
f 90 463 163
f 574 498 442
f 449 232 553
f 67 143 200
f 517 307 612
f 142 184 580
f 229 384 405
f 573 436 195
f 408 655 267
f 70 205 124
f 185 158 463
f 120 637 122
f 246 450 180
f 163 122 407
f 391 213 208
f 670 314 323
f 162 44 165
f 501 395 340
f 179 82 631
f 386 116 416
f 568 380 369
f 508 474 386
f 595 241 556
f 249 199 181
f 296 174 320
f 387 264 13
f 169 3 365
f 255 666 233
f 277 419 215
f 470 398 341
f 37 249 181
f 66 536 297
f 444 425 312
f 91 374 15
f 393 562 48
f 243 335 560
f 2 499 343
f 573 303 9
f 361 394 373
f 462 625 119
f 334 452 356
f 138 274 50
f 449 623 232
f 264 228 13
f 149 490 214
f 62 335 21
f 345 100 456
f 578 409 298
f 30 290 649
f 672 587 72
f 15 642 324
f 517 612 93
f 97 8 34
f 528 382 588
f 678 222 263
f 38 457 387
f 102 663 305
f 657 229 357
f 576 58 295
f 60 568 615
f 421 447 389
f 538 287 385
f 200 349 62
f 512 126 603
f 218 373 230
f 53 594 271
f 310 509 613
f 539 22 190
f 326 648 29
f 153 156 621
f 618 97 590
f 432 286 343
f 79 263 672
f 209 158 185
f 231 273 75
f 408 412 655
f 228 591 435
f 230 537 59
f 365 3 545
f 210 488 144
f 649 8 280
f 262 497 576
f 45 460 217
f 25 253 175
f 267 159 226
f 370 118 73
f 330 499 2
f 540 209 185
f 378 257 495
f 189 362 399
f 244 491 258
f 142 494 184
f 224 454 480
f 506 483 170
f 351 56 212
f 394 32 537
f 651 113 505
f 190 326 156
f 225 282 168
f 135 188 634
f 421 389 430
f 190 22 294
f 277 633 419
f 143 414 349
f 30 649 342
f 319 328 103
f 376 79 250
f 449 325 575
f 612 467 93
f 42 627 27
f 524 283 68
f 169 592 3
f 475 384 229
f 299 613 509
f 497 504 565
f 276 285 92
f 320 89 180
f 310 112 509
f 78 654 291
f 98 137 333
f 483 376 403
f 427 10 173
f 430 412 105
f 649 280 342
f 84 281 67
f 424 676 237
f 219 59 262
f 245 290 140
f 658 197 315
f 353 359 186
f 523 47 253
f 627 464 131
f 156 182 621
f 591 299 435
f 260 525 519
f 143 7 414
f 367 266 76
f 103 328 383
f 60 323 552
f 85 534 571
f 13 435 548
f 181 428 619
f 291 533 563
f 381 280 8
f 539 180 22
f 429 65 360
f 446 272 527
f 493 491 301
f 520 358 334
f 560 472 149
f 279 516 381
f 536 295 133
f 186 359 422
f 224 148 487
f 636 520 19
f 130 283 442
f 175 486 33
f 86 325 449
f 337 322 644
f 29 187 675
f 160 254 277
f 420 436 199
f 476 166 585
f 591 613 299
f 475 434 48
f 190 489 326
f 196 61 317
f 167 61 196
f 662 145 479
f 330 346 499
f 190 294 489
f 73 582 588
f 658 105 412
f 318 273 294
f 235 183 522
f 323 659 500
f 331 522 113
f 549 76 188
f 138 445 274
f 446 415 272
f 647 575 504
f 570 569 534
f 155 109 51
f 354 413 445
f 677 221 50
f 483 403 170
f 289 355 391
f 676 58 237
f 319 443 328
f 231 167 196
f 108 48 609
f 26 54 239
f 467 674 660
f 658 408 197
f 274 445 127
f 89 22 180
f 206 551 526
f 675 151 264
f 73 4 582
f 471 665 289
f 370 312 118
f 406 649 290
f 593 27 137
f 218 230 592
f 643 165 32
f 460 512 141
f 38 387 367
f 208 574 524
f 433 410 418
f 223 635 239
f 72 31 668
f 661 253 47
f 414 508 507
f 332 494 142
f 438 311 586
f 15 324 259
f 223 610 115
f 532 150 135
f 207 671 61
f 19 520 55
f 52 115 308
f 468 186 422
f 401 249 37
f 137 638 240
f 571 670 640
f 353 186 468
f 522 183 288
f 408 17 197
f 557 588 382
f 217 460 106
f 399 218 592
f 618 505 279
f 72 339 396
f 502 129 541
f 296 320 633
f 545 297 201
f 453 544 474
f 202 368 609
f 431 214 53
f 480 664 567
f 244 56 351
f 523 635 223
f 408 267 17
f 12 224 480
f 134 396 544
f 15 374 642
f 43 125 482
f 12 418 410
f 598 301 562
f 595 215 429
f 334 304 55
f 189 399 121
f 658 412 408
f 600 616 213
f 19 55 210
f 36 23 307
f 312 538 118
f 231 196 648
f 287 324 518
f 611 90 374
f 536 576 295
f 599 215 556
f 416 459 252
f 595 556 215
f 17 626 43
f 555 288 572
f 369 350 646
f 640 60 346
f 39 605 515
f 165 191 623
f 177 68 110
f 603 126 420
f 395 93 377
f 638 400 240
f 669 676 424
f 397 582 354
f 455 333 155
f 275 345 439
f 42 464 627
f 103 479 145
f 397 354 107
f 516 641 381
f 651 618 590
f 261 598 393
f 432 86 371
f 33 486 665
f 74 665 486
f 263 222 69
f 489 648 326
f 424 237 375
f 65 71 617
f 102 632 663
f 438 610 448
f 114 77 413
f 195 436 420
f 560 149 431
f 581 248 28
f 489 231 648
f 573 510 303
f 585 347 638
f 241 256 130
f 571 534 670
f 317 255 233
f 655 412 389
f 139 43 482
f 174 89 320
f 607 234 75
f 267 655 159
f 313 383 328
f 348 529 645
f 86 350 325
f 561 181 619
f 611 185 463
f 179 245 82
f 446 527 54
f 157 601 284
f 72 668 339
f 303 117 9
f 674 560 431
f 563 195 126
f 631 82 344
f 141 603 401
f 77 220 198
f 496 351 384
f 579 515 511
f 79 672 204
f 210 221 488
f 11 147 306
f 370 372 312
f 338 131 459
f 441 641 382
f 313 282 308
f 594 515 605
f 39 515 216
f 243 560 674
f 559 416 147
f 483 379 484
f 537 652 59
f 473 124 481
f 376 484 678
f 85 519 236
f 379 106 484
f 651 513 113
f 438 586 461
f 259 324 287
f 109 614 606
f 546 361 404
f 407 217 83
f 152 282 225
f 13 228 435
f 468 422 310
f 179 558 329
f 484 604 678
f 202 176 6
f 325 178 575
f 261 586 329
f 124 577 656
f 397 528 588
f 71 153 96
f 360 70 473
f 138 354 445
f 363 300 654
f 350 424 375
f 99 397 107
f 668 596 339
f 157 520 636
f 677 50 274
f 286 371 553
f 579 593 216
f 261 329 558
f 177 110 91
f 662 479 276
f 149 306 490
f 338 476 131
f 154 447 18
f 141 512 603
f 454 640 664
f 535 115 610
f 565 237 58
f 370 73 641
f 33 665 471
f 451 358 520
f 677 281 488
f 508 386 559
f 338 169 365
f 152 388 47
f 568 86 432
f 349 507 673
f 278 128 352
f 199 9 428
f 120 440 637
f 327 140 284
f 9 117 162
f 532 549 150
f 70 124 473
f 52 47 523
f 628 607 75
f 121 338 459
f 174 580 89
f 281 622 478
f 651 309 513
f 559 386 416
f 269 611 110
f 570 39 569
f 612 14 467
f 657 434 229
f 653 133 669
f 20 38 367
f 242 67 200
f 507 559 11
f 292 340 348
f 597 632 105
f 289 391 426
f 342 280 589
f 46 468 310
f 540 185 269
f 354 114 413
f 662 276 111
f 372 444 312
f 533 300 531
f 233 666 353
f 523 223 115
f 325 375 178
f 113 522 555
f 502 80 129
f 446 583 415
f 278 270 242
f 579 42 593
f 650 34 415
f 66 262 536
f 501 36 517
f 644 322 35
f 229 405 357
f 183 177 288
f 179 63 245
f 597 315 258
f 550 83 193
f 312 425 538
f 300 238 462
f 224 487 454
f 167 75 234
f 191 232 623
f 467 243 674
f 347 644 400
f 626 348 645
f 485 265 247
f 201 337 644
f 540 192 209
f 563 510 573
f 241 130 442
f 69 37 561
f 192 481 209
f 202 16 368
f 563 316 195
f 213 616 574
f 171 423 602
f 93 660 377
f 334 526 452
f 639 363 440
f 609 434 176
f 516 370 641
f 495 364 501
f 278 352 564
f 522 288 555
f 427 482 10
f 203 485 247
f 367 387 266
f 23 478 14
f 411 134 544
f 501 517 395
f 128 200 62
f 581 159 566
f 645 529 40
f 457 264 387
f 74 600 355
f 293 468 46
f 379 217 106
f 101 251 81
f 90 642 374
f 487 85 571
f 51 608 369
f 337 123 322
f 33 471 203
f 660 674 146
f 102 105 632
f 343 286 503
f 481 124 656
f 532 136 363
f 25 635 253
f 334 356 304
f 321 586 311
f 254 296 633
f 57 204 134
f 95 26 239
f 457 675 264
f 668 362 189
f 25 175 33
f 95 239 635
f 649 34 8
f 127 502 541
f 496 244 351
f 514 246 71
f 647 623 575
f 674 431 146
f 506 83 379
f 402 439 456
f 265 650 583
f 111 5 616
f 433 620 410
f 182 29 457
f 625 435 194
f 244 258 56
f 567 330 666
f 54 527 311
f 392 7 143
f 64 656 639
f 547 293 151
f 69 561 546
f 371 86 553
f 320 180 450
f 315 554 332
f 645 40 125
f 121 399 169
f 227 127 392
f 475 496 384
f 31 546 404
f 476 365 166
f 212 142 580
f 597 258 491
f 302 220 77
f 42 164 464
f 80 198 57
f 166 545 201
f 516 372 370
f 666 2 353
f 619 643 394
f 193 506 518
f 293 353 468
f 35 530 653
f 406 415 34
f 257 144 364
f 445 502 127
f 14 243 467
f 5 556 498
f 226 292 348
f 86 449 553
f 101 81 607
f 51 1 608
f 539 156 153
f 266 13 548
f 402 631 344
f 184 173 318
f 668 31 362
f 247 265 583
f 81 433 418
f 246 539 153
f 597 658 315
f 438 448 311
f 350 375 325
f 99 304 356
f 672 72 396
f 544 339 474
f 71 96 617
f 59 497 262
f 407 45 217
f 244 301 491
f 592 230 219
f 599 277 215
f 251 88 433
f 39 458 569
f 604 141 401
f 279 505 516
f 65 617 70
f 226 159 581
f 315 197 554
f 404 361 373
f 272 406 94
f 153 621 96
f 523 253 635
f 99 138 50
f 572 15 259
f 405 296 254
f 118 538 385
f 261 558 598
f 61 671 255
f 429 514 65
f 439 345 456
f 643 162 165
f 673 507 11
f 208 524 667
f 191 171 232
f 144 488 478
f 340 578 529
f 500 51 366
f 581 566 100
f 476 585 627
f 672 263 587
f 537 32 652
f 513 309 426
f 228 46 591
f 63 290 245
f 386 596 116
f 80 57 129
f 358 589 526
f 601 344 284
f 648 187 29
f 214 511 594
f 544 396 339
f 36 307 517
f 54 311 448
f 20 367 49
f 72 587 31
f 132 108 368
f 258 332 56
f 171 602 232
f 555 572 425
f 513 331 113
f 561 619 361
f 401 603 249
f 84 270 281
f 607 81 234
f 614 35 669
f 546 561 361
f 601 439 344
f 130 540 283
f 533 531 510
f 475 48 562
f 55 304 221
f 261 461 586
f 482 101 10
f 438 132 610
f 241 498 556
f 172 464 164
f 580 469 89
f 92 599 5
f 664 640 346
f 462 119 629
f 677 274 227
f 25 33 203
f 99 551 528
f 83 217 379
f 503 286 602
f 666 330 2
f 117 44 162
f 317 233 547
f 563 126 512
f 260 519 148
f 93 467 660
f 44 191 165
f 161 242 270
f 514 450 246
f 184 318 469
f 520 334 55
f 202 609 176
f 279 8 97
f 37 181 561
f 152 52 282
f 590 97 650
f 321 329 586
f 151 293 46
f 303 521 117
f 207 234 418
f 541 129 411
f 60 615 87
f 425 259 538
f 391 208 466
f 638 347 400
f 405 417 296
f 489 273 231
f 97 34 650
f 340 395 578
f 422 437 503
f 400 35 614
f 276 92 111
f 503 602 423
f 377 470 409
f 590 650 265
f 360 65 70
f 538 259 287
f 579 216 515
f 476 627 131
f 198 403 250
f 108 393 48
f 332 554 494
f 78 291 542
f 469 294 22
f 490 172 164
f 357 254 160
f 381 441 280
f 157 140 451
f 609 48 434
f 130 256 192
f 543 341 260
f 99 107 138
f 285 357 160
f 21 335 243
f 406 34 649
f 617 96 465
f 209 481 64
f 157 451 520
f 624 112 171
f 534 569 314
f 289 426 309
f 319 486 175
f 656 577 532
f 106 460 141
f 565 178 237
f 321 311 527
f 664 346 330
f 12 410 224
f 673 472 335
f 441 382 206
f 570 605 39
f 621 182 38
f 147 172 306
f 257 210 144
f 109 606 51
f 302 336 220
f 595 256 241
f 40 298 88
f 565 504 178
f 193 518 324
f 654 300 533
f 62 673 335
f 409 470 341
f 239 54 448
f 471 289 485
f 154 389 447
f 309 590 265
f 87 568 432
f 216 98 458
f 499 432 343
f 297 268 337
f 166 347 585
f 147 252 172
f 88 543 620
f 671 567 255
f 246 153 71
f 507 508 559
f 119 299 509
f 23 14 612
f 636 378 275
f 225 661 388
f 36 144 23
f 82 327 284
f 271 594 605
f 261 393 461
f 96 20 465
f 212 580 174
f 187 317 547
f 63 94 290
f 416 116 459
f 227 67 281
f 32 165 647
f 319 175 443
f 41 657 285
f 376 678 79
f 574 442 524
f 535 132 368
f 550 163 407
f 90 550 642
f 321 527 94
f 146 431 53
f 350 584 424
f 458 98 455
f 569 492 314
f 307 23 612
f 298 409 543
f 226 581 292
f 256 473 192
f 310 613 591
f 200 143 349
f 407 122 45
f 263 69 587
f 625 194 119
f 633 320 450
f 614 669 1
f 673 11 472
f 56 142 212
f 77 198 80
f 417 174 296
f 113 444 211
f 376 250 403
f 331 235 522
f 147 416 252
f 378 248 275
f 95 247 26
f 510 117 521
f 671 480 567
f 173 10 628
f 398 53 271
f 587 546 31
f 223 239 448
f 598 562 393
f 19 210 257
f 53 214 594
f 238 625 462
f 64 440 158
f 369 608 424
f 487 148 519
f 558 493 598
f 61 255 317
f 369 424 584
f 201 297 337
f 672 396 204
f 551 356 452
f 102 104 430
f 79 678 263
f 50 221 304
f 463 120 163
f 255 567 666
f 529 298 40
f 279 381 8
f 357 405 254
f 581 100 345
f 195 420 126
f 197 139 554
f 487 519 85
f 651 590 309
f 157 636 601
f 333 240 109
f 652 504 497
f 554 427 494
f 129 134 411
f 568 350 86
f 161 67 242
f 465 20 49
f 7 453 414
f 90 163 550
f 313 168 282
f 92 160 599
f 627 585 27
f 128 62 21
f 373 394 537
f 98 333 455
f 111 92 5
f 103 383 6
f 391 466 426
f 637 654 78
f 595 360 256
f 487 571 454
f 352 21 564
f 657 176 434
f 402 344 439
f 569 458 492
f 122 637 78
f 652 647 504
f 383 202 6
f 567 664 330
f 21 243 14
f 55 221 210
f 117 624 44
f 542 291 563
f 421 430 104
f 656 532 639
f 626 645 43
f 40 88 251
f 639 532 390
f 44 171 191
f 27 638 137
f 471 485 203
f 663 632 493
f 207 12 671
f 231 75 167
f 417 212 174
f 465 49 630
f 438 461 132
f 165 623 647
f 422 423 112
f 593 137 98
f 154 18 566
f 122 78 45
f 601 275 439
f 268 653 123
f 353 2 437
f 222 401 37
f 429 419 514
f 258 315 332
f 130 192 540
f 630 477 549
f 501 581 28
f 365 545 166
f 501 364 36
f 134 204 396
f 30 451 140
f 314 659 323
f 205 465 630
f 128 21 352
f 363 24 238
f 35 322 530
f 313 16 383
f 547 233 293
f 392 541 7
# 1354 faces, 0 coords texture

# End of File