####
#
# OBJ File Generated by Meshlab
#
####
# Object domain010.obj
#
# Vertices: 512
# Faces: 1027
#
####
v 180.946030 274.116760 123.215202
v 180.625397 280.547089 127.470917
v 171.992630 278.057190 122.543289
v 177.850281 284.503113 122.526711
v 177.849960 295.050781 122.532013
v 168.371841 303.466736 134.277588
v 179.853485 290.890686 134.163712
v 168.243790 300.122833 123.467140
v 177.864609 300.180206 123.228119
v 174.041824 302.229309 125.250778
v 177.821564 290.948639 135.290390
v 181.722748 278.007263 123.785675
v 180.107971 292.916016 127.533524
v 175.799576 274.693878 125.248642
v 170.028595 305.656036 132.342392
v 171.992004 277.976074 130.036407
v 175.799881 284.503357 135.483704
v 167.333099 295.050751 127.499260
v 174.041992 280.400940 122.499992
v 169.978668 284.504364 122.728981
v 174.041931 299.152863 135.489319
v 180.544189 282.488403 127.635910
v 168.038849 288.611176 123.827209
v 169.978256 288.604828 135.261887
v 174.041306 301.496582 135.466415
v 171.992233 301.496277 135.457916
v 169.987564 280.402039 122.761856
v 179.425995 301.494202 130.049026
v 171.995911 279.305176 132.955444
v 180.838867 288.604370 123.119164
v 167.641602 300.366791 124.127274
v 174.043716 300.247589 123.147598
v 167.180054 301.500732 127.546059
v 174.042038 297.101257 122.522766
v 177.720795 302.532776 126.429428
v 175.799927 284.503082 122.499992
v 177.842072 273.984222 123.929466
v 169.975204 297.101501 135.274689
v 179.855591 286.553253 122.751472
v 179.853149 288.604950 122.762360
v 175.800171 277.921326 130.061874
v 171.991852 299.152771 135.472794
v 180.329224 290.925568 132.475494
v 179.941132 274.949005 124.979240
v 168.801071 304.900787 132.325974
v 179.394104 296.925751 134.219955
v 180.964203 282.565918 134.191467
v 169.974792 281.294891 134.833267
v 181.705505 276.038300 123.831421
v 179.855331 278.284576 129.914658
v 171.992981 282.478088 135.302826
v 175.796753 281.229095 134.925079
v 180.835205 286.587830 132.536682
v 179.762497 292.820496 134.078964
v 167.723083 297.172516 132.262161
v 168.247955 293.001862 134.292557
v 168.691483 284.498810 134.736664
v 177.931213 277.192413 128.494095
v 167.031311 296.406769 123.662498
v 180.202789 288.595093 127.487350
v 174.042038 288.605255 122.500008
v 175.770370 305.283875 134.803391
v 177.850189 286.554016 122.528786
v 169.287308 279.491577 131.825623
v 178.897354 303.361725 132.288605
v 168.871414 284.555664 123.188759
v 171.988785 277.140503 128.523407
v 180.544083 292.916412 124.313751
v 168.773972 278.020264 123.776657
v 177.850159 282.451935 122.528893
v 174.042007 278.056915 122.506744
v 174.042023 295.050873 135.500015
v 175.799942 292.999939 122.499992
v 171.993088 300.238037 123.164322
v 180.604462 286.611969 129.944962
v 179.853928 290.949493 122.760544
v 180.724197 284.499512 124.319832
v 171.991653 286.554108 135.477234
v 168.451462 282.475647 123.725388
v 171.999985 273.970154 123.937294
v 180.134033 297.120026 125.582779
v 168.432724 282.550049 134.178085
v 180.839859 290.933472 123.099602
v 171.991638 290.949127 122.523796
v 174.042023 290.949219 122.500000
v 174.041870 304.451599 128.989502
v 171.991913 303.667084 127.601784
v 175.800003 297.101196 122.522758
v 180.657074 295.037750 123.197456
v 170.030991 278.322479 129.876694
v 167.044205 299.218628 127.631447
v 179.926422 300.048645 123.191994
v 178.867706 301.062073 125.700317
v 181.890427 275.425171 123.095329
v 168.244247 299.152344 134.273285
v 181.795624 278.998230 123.215332
v 177.566025 301.480743 134.839111
v 169.980698 282.452576 122.738312
v 171.991913 288.605255 135.472794
v 167.608475 288.602814 130.004181
v 171.992004 297.100342 122.546806
v 168.817734 305.355774 134.189026
v 177.847015 284.503235 135.414536
v 180.034836 288.670105 134.232513
v 179.492874 288.503326 134.791565
v 175.797043 302.816559 126.246071
v 174.043472 274.172943 123.042862
v 180.660004 276.521606 126.943291
v 167.828201 288.606140 132.490356
v 168.641113 295.050934 134.759827
v 175.799469 288.605194 135.479111
v 179.844208 282.473816 135.166702
v 180.674606 276.776703 127.180641
v 180.396698 286.680695 134.369415
v 168.190155 280.428528 125.509331
v 169.077820 305.636841 134.411057
v 167.045700 299.809235 126.945801
v 178.865585 303.336975 129.969498
v 169.978317 290.949463 135.261734
v 174.042007 293.000000 135.500000
v 180.842438 286.550568 123.118767
v 177.736176 304.673523 130.433945
v 174.042450 299.115204 122.724937
v 168.648300 299.151276 134.744171
v 179.896820 273.928070 123.277534
v 171.991684 295.050781 135.477036
v 169.947067 302.784485 126.264175
v 169.961746 297.100555 122.688263
v 169.152023 277.005249 126.908325
v 180.461136 284.512360 125.625275
v 167.011551 296.392883 123.648354
v 167.530914 295.051208 130.124512
v 167.698196 286.534668 130.018692
v 169.930786 304.227325 129.098007
v 175.799911 278.056885 122.506752
v 174.042465 305.977661 134.175476
v 168.562027 304.361938 130.692459
v 174.040604 306.147095 133.521545
v 169.411469 274.105286 123.221382
v 168.741348 282.466492 134.742538
v 180.157852 290.942108 127.632126
v 169.974945 295.050812 135.276886
v 179.248764 290.927551 134.777039
v 179.862976 281.498016 134.936417
v 180.855469 284.458557 123.121902
v 170.013931 279.150055 132.093964
v 174.045944 305.289856 134.821121
v 168.949753 278.072266 127.553558
v 179.882965 279.150482 132.114990
v 174.041977 295.050812 122.500008
v 169.975800 305.286163 134.762497
v 177.253006 305.298767 134.655853
v 175.795853 280.203094 134.177536
v 177.822357 297.091949 135.272659
v 171.992004 280.400848 122.530449
v 171.991760 284.503143 122.525215
v 174.041977 284.503296 135.483673
v 167.464127 301.486237 129.951141
v 177.851410 275.586243 126.283676
v 178.816315 298.082153 134.893509
v 167.472794 288.608307 127.491371
v 178.355865 306.061432 134.272751
v 168.121841 303.461670 132.161346
v 171.993439 278.909851 132.194641
v 167.001190 297.744263 124.946556
v 177.838638 281.244598 134.891754
v 171.992722 299.110687 122.744301
v 175.796936 302.189819 125.276222
v 179.023849 294.860291 134.825546
v 171.992996 305.069641 130.294510
v 169.953751 276.756500 127.402298
v 181.108337 280.209717 132.285233
v 174.041916 277.911194 130.066589
v 167.427719 290.949799 127.494057
v 179.474976 295.027588 134.302414
v 180.716690 300.384399 122.939880
v 169.525497 273.878693 123.200226
v 168.201431 303.533051 129.733795
v 168.560837 278.248169 125.553848
v 181.815750 278.032471 122.977646
v 180.290787 290.954651 125.648041
v 175.799606 279.282104 132.969315
v 168.272522 286.562775 134.290939
v 174.041946 302.855927 126.221123
v 174.041809 277.105072 128.543488
v 168.558151 280.445404 123.730774
v 169.973236 274.114929 123.054230
v 171.992538 304.431854 128.999817
v 180.773712 292.863922 123.193916
v 174.042007 292.999969 122.500015
v 169.900299 273.861847 123.289268
v 179.614853 300.222107 123.836174
v 171.992004 301.171692 123.902580
v 180.524109 282.471741 125.630516
v 175.795395 299.150543 135.406128
v 180.505936 281.403778 134.622009
v 178.940262 297.098083 134.928375
v 174.041962 305.100128 130.279938
v 171.993759 274.718231 125.229599
v 175.799881 276.013245 122.598114
v 171.991653 288.605225 122.523804
v 167.271027 295.075012 125.480377
v 181.237808 280.174194 123.187515
v 180.631256 288.709839 124.350006
v 174.041977 286.553864 135.500000
v 171.990707 275.545471 126.309662
v 167.012497 296.480896 123.662575
v 169.978989 284.504700 135.261444
v 180.902863 286.550232 123.238068
v 175.779221 305.817200 132.266785
v 169.965698 299.103271 122.831757
v 179.818787 280.564362 134.198944
v 179.857910 284.503082 122.745979
v 171.991806 282.451904 122.525772
v 175.800293 276.489227 127.575516
v 181.816330 276.023712 122.996361
v 174.041977 282.452118 122.499992
v 180.260422 292.932617 130.142502
v 177.850418 280.400726 122.526985
v 180.709625 300.371765 122.971100
v 177.817612 292.999664 135.281326
v 175.830154 306.075623 133.530380
v 180.726456 286.111115 134.053741
v 180.727219 280.913696 133.888870
v 177.852371 277.969757 130.041855
v 170.042328 274.009735 123.841888
v 168.885223 281.479401 134.614899
v 171.996780 305.868073 132.248688
v 167.873611 286.553101 132.491409
v 175.799866 286.553772 135.486267
v 181.310257 274.385590 123.157524
v 168.641434 297.100006 134.756851
v 179.795059 297.289825 132.482513
v 177.567062 303.492920 134.877380
v 180.960815 282.386292 123.215546
v 168.005157 282.462036 125.512184
v 179.637497 299.147766 132.143982
v 180.393723 286.564728 125.626282
v 171.976379 273.930481 123.338486
v 180.750076 282.601959 124.553528
v 178.519089 304.207153 130.848022
v 181.002258 285.663330 132.994888
v 175.799515 299.115234 122.724327
v 175.798538 273.950989 123.948166
v 175.777939 303.524811 135.249420
v 167.047668 299.239441 125.443542
v 180.693436 277.382355 127.573128
v 175.799896 288.605164 122.499992
v 180.225403 294.959961 125.546692
v 180.648224 297.084595 123.120956
v 169.219849 278.907013 129.659348
v 180.194321 293.167145 132.485641
v 181.290680 278.925079 129.952866
v 169.962662 303.545349 127.665665
v 180.950256 281.321381 128.908066
v 170.032913 280.392365 134.051727
v 175.800018 282.452118 122.500000
v 175.799896 280.401062 122.500008
v 180.454361 297.195557 124.180664
v 169.971130 288.604858 122.715492
v 182.020813 275.984253 123.210854
v 171.991470 286.553986 122.519798
v 174.042007 274.686188 125.254501
v 171.993042 281.238556 134.906754
v 177.802277 300.975891 124.025574
v 168.093994 282.397888 130.065567
v 177.690170 304.053131 129.189041
v 175.792404 305.025391 130.313797
v 170.009567 276.019379 122.821465
v 180.849854 280.411560 124.751411
v 169.138306 278.271973 123.196983
v 180.694885 286.554718 124.304977
v 167.985580 293.057281 123.811516
v 171.998810 306.132141 133.522812
v 179.818970 279.539520 132.817307
v 169.310486 276.031769 123.184753
v 168.643753 293.001953 134.756622
v 181.163788 284.655273 132.441055
v 179.851822 282.450623 122.760864
v 169.970764 286.554321 122.712547
v 180.611099 297.103363 123.024361
v 181.330124 280.222015 123.429428
v 180.953171 284.315430 130.570312
v 174.040970 303.530853 135.342941
v 175.788544 305.928436 134.149353
v 168.991913 276.191193 123.718262
v 169.031143 276.075287 125.604111
v 168.237900 297.101807 134.283798
v 175.799896 295.050812 122.500000
v 167.411041 299.153320 129.985413
v 179.811005 299.122162 129.991531
v 167.933029 282.456879 127.497833
v 177.850159 276.015228 122.617867
v 167.787292 293.000031 132.495575
v 168.684769 303.506042 134.713638
v 177.849579 282.480377 135.294159
v 177.831161 280.251404 134.146683
v 167.767899 301.489227 132.159790
v 179.853928 292.999817 122.751610
v 178.504333 303.438538 134.176575
v 181.278931 279.540100 131.377151
v 177.849884 288.605225 122.533539
v 177.848999 297.100006 122.559235
v 177.602707 305.381378 132.374069
v 180.561295 299.165771 123.063957
v 177.848694 278.923584 132.189911
v 174.042236 279.279755 132.970703
v 180.514893 288.590790 132.490967
v 170.054733 306.047028 133.595917
v 180.059464 294.940277 132.368805
v 180.302795 286.576233 127.780350
v 171.991653 297.101746 135.477036
v 174.043533 273.951294 123.947998
v 178.327164 306.051636 134.292984
v 180.973312 280.071838 128.473526
v 179.891953 278.056274 122.632668
v 177.850479 276.533081 127.542191
v 168.573944 288.604279 123.239281
v 181.533493 279.133789 130.422958
v 168.239944 295.051880 134.292572
v 179.214508 301.396942 127.698090
v 174.043304 280.200623 134.179382
v 169.980148 274.859406 125.094803
v 168.944565 305.186646 134.569855
v 168.250275 301.492065 134.272156
v 168.208832 282.435181 132.167542
v 171.991272 302.224854 125.253868
v 167.726883 302.778137 127.557823
v 171.991486 295.050812 122.519547
v 167.398666 293.000519 127.495766
v 167.082489 296.055145 123.639206
v 167.477493 301.079529 125.771004
v 171.991150 302.854340 126.222000
v 177.850845 278.056976 122.518707
v 167.279068 301.488159 128.453659
v 168.224747 297.172333 123.138252
v 175.799896 290.949066 122.500008
v 170.029495 279.543121 132.822784
v 177.853073 274.720184 125.229218
v 171.991669 293.000000 135.477051
v 179.847427 295.050201 122.759216
v 180.872620 277.862030 125.725716
v 181.383163 280.144135 130.180847
v 180.664795 284.748657 129.412231
v 167.776016 295.048859 132.493881
v 167.798508 284.572021 125.603729
v 168.324081 284.473358 134.264130
v 174.041977 286.553894 122.499992
v 180.665985 277.079529 127.389435
v 180.352188 288.593933 125.588783
v 180.657028 280.485229 125.749321
v 178.375229 306.008270 134.276230
v 175.799423 293.000000 135.477402
v 171.992233 284.504120 135.456390
v 180.859955 284.412140 134.329086
v 174.042114 276.013245 122.598114
v 180.575958 295.035278 123.064949
v 175.794601 303.632538 127.622040
v 180.714172 277.193146 127.490898
v 180.892105 288.601685 123.220924
v 169.975403 293.000366 135.274216
v 167.666321 286.364227 125.528114
v 171.994507 276.016907 122.636406
v 171.991547 293.000031 122.519600
v 169.890076 305.981232 134.139313
v 180.560806 290.951263 124.455124
v 168.567444 290.952240 123.232796
v 174.041946 276.477264 127.584183
v 179.772171 299.173523 127.595192
v 180.209030 299.135559 124.250160
v 177.849930 290.949188 122.532921
v 180.617691 299.137390 123.166573
v 168.251083 284.747467 123.898315
v 180.876526 285.539856 130.954803
v 177.848633 299.107330 122.755455
v 180.478363 295.203613 124.234436
v 179.848618 297.100586 122.762817
v 175.800522 275.522400 126.329094
v 174.041992 297.101776 135.500000
v 168.200867 299.124329 123.226158
v 177.779587 299.108978 135.040482
v 175.792450 301.157959 123.911446
v 169.970871 290.949371 122.714600
v 168.942688 280.425415 123.217422
v 177.827972 288.603455 135.311157
v 169.987503 304.857086 130.400314
v 174.041977 303.681763 127.593315
v 179.162247 292.977478 134.758072
v 175.799286 295.050781 135.476883
v 167.057404 297.106384 125.547752
v 168.132660 301.802002 125.515816
v 174.041962 284.502960 122.499992
v 168.878876 281.035614 134.080505
v 167.562103 293.000793 130.119659
v 179.870728 280.393066 122.723625
v 171.988312 274.180206 123.053467
v 177.850189 293.000000 122.528763
v 181.027420 282.397186 123.378113
v 178.874130 299.077209 134.259369
v 175.794937 304.408844 129.011749
v 169.956772 300.217133 123.204620
v 177.847504 279.308746 132.955109
v 180.715622 292.827576 123.079788
v 174.042252 282.474609 135.325180
v 171.989975 276.511444 127.559677
v 180.426392 288.612366 129.907822
v 180.587540 282.460754 134.822327
v 178.432693 304.825165 132.482239
v 174.040817 305.899872 132.236420
v 179.972916 297.104156 127.502007
v 180.264053 293.032471 125.576874
v 177.848785 274.181122 123.059349
v 171.985489 305.956390 134.165680
v 174.045685 273.912415 123.334641
v 179.696167 286.481903 134.917206
v 175.799561 282.475006 135.322510
v 168.268173 288.604248 134.286041
v 179.850006 299.106781 122.856483
v 174.042023 290.949127 135.500000
v 169.946487 302.166779 125.291161
v 177.729599 301.907074 125.440796
v 168.514771 280.433167 129.914566
v 180.001251 297.081116 129.984802
v 180.054916 295.053772 127.494865
v 175.800110 278.871887 132.212708
v 174.042099 301.180634 123.893761
v 177.718552 303.354034 127.776436
v 180.507339 284.389191 134.789780
v 167.567154 286.594940 127.502937
v 174.041962 275.522552 126.328712
v 180.875732 290.923737 123.183868
v 180.135620 294.928680 130.124786
v 167.686996 299.152039 132.170944
v 181.077118 278.542114 124.922035
v 174.043213 281.227051 134.929260
v 167.471283 297.020660 130.112656
v 171.991867 290.949158 135.472794
v 175.800018 286.553894 122.500008
v 180.309174 290.962738 129.888748
v 168.001373 284.319611 132.409454
v 169.986206 303.519714 135.166672
v 181.240524 282.405426 132.496597
v 168.654541 288.603241 134.742065
v 175.801514 277.106720 128.542709
v 168.297073 280.228210 127.473190
v 170.071060 277.467621 128.327591
v 178.337860 303.997589 134.480850
v 175.783157 301.494110 135.336594
v 171.993576 303.528320 135.322937
v 180.803757 282.462616 129.000275
v 168.019165 290.951294 123.827179
v 167.559448 288.613617 125.522980
v 169.979416 301.495789 135.253418
v 178.638092 301.432526 133.944839
v 179.868210 274.150848 123.063248
v 170.000137 278.058807 122.785156
v 169.162109 275.142456 124.843498
v 169.954559 301.128967 123.937386
v 167.917389 303.059784 128.015640
v 168.068619 302.427917 126.490089
v 168.577576 286.581940 123.231964
v 180.387527 284.480835 127.640068
v 171.992401 305.281372 134.803406
v 172.001495 280.231720 134.153320
v 168.919968 280.407043 132.566956
v 181.309006 274.434998 123.237831
v 168.103943 300.856201 124.125397
v 177.842590 286.549774 135.374908
v 181.135635 282.326172 130.330444
v 174.041946 278.871765 132.212784
v 175.798172 274.173187 123.043427
v 168.567108 293.018280 123.212791
v 168.119049 286.521301 123.750526
v 169.975555 286.553711 135.273285
v 175.799332 290.949188 135.476898
v 167.029099 298.450684 125.998169
v 167.509781 290.950928 125.520332
v 175.796173 273.912109 123.334518
v 169.966751 293.000488 122.697464
v 170.016403 275.765167 126.111618
v 168.422913 295.076294 123.069092
v 181.012054 285.477142 132.000153
v 167.808014 290.949463 132.491806
v 179.819519 284.479675 135.157883
v 179.896011 299.173126 125.593147
v 168.649857 301.496887 134.741516
v 179.889282 276.019684 122.700035
v 169.982269 282.487457 135.171219
v 179.271103 301.369385 132.348831
v 167.229721 297.097260 127.506065
v 167.493988 299.086212 123.912567
v 167.469467 293.004242 125.517067
v 181.980835 278.039154 123.103363
v 169.961716 295.050903 122.676041
v 169.287415 274.221375 123.538704
v 168.904312 282.456909 123.187912
v 175.799026 297.101471 135.467194
v 177.853806 273.930511 123.339645
v 177.817490 295.050568 135.283905
v 168.649384 286.553894 134.752045
v 168.264221 290.950653 134.286926
v 180.622147 276.936188 127.264259
v 180.925674 284.456635 123.254196
v 179.836014 274.041138 123.810471
v 167.734375 284.629578 127.491394
v 178.576843 302.826569 128.242432
v 169.977859 299.152557 135.262955
v 167.568375 290.945953 129.998383
v 175.798416 300.243378 123.154190
v 174.042007 288.605194 135.499985
v 167.817429 284.589630 129.912247
v 168.654114 290.950928 134.742416
# 512 vertices, 0 vertices normals

f 158 178 163
f 336 131 481
f 313 263 14
f 390 490 202
f 459 254 134
f 349 359 502
f 497 154 499
f 440 183 347
f 93 35 421
f 386 15 45
f 392 262 156
f 303 377 375
f 65 454 300
f 434 270 12
f 361 340 437
f 167 123 74
f 475 353 11
f 414 471 107
f 420 333 127
f 11 143 105
f 37 504 125
f 27 3 155
f 280 318 461
f 185 41 444
f 342 502 359
f 40 121 30
f 165 476 390
f 113 108 502
f 288 232 320
f 4 279 213
f 275 212 224
f 298 163 6
f 166 296 144
f 505 362 429
f 276 269 271
f 212 196 224
f 225 306 149
f 65 28 489
f 435 264 51
f 330 132 394
f 236 346 505
f 56 110 277
f 299 83 403
f 302 39 40
f 288 55 95
f 350 181 204
f 272 209 503
f 239 80 414
f 103 468 484
f 38 124 507
f 70 395 279
f 443 500 183
f 438 63 248
f 175 388 169
f 42 21 379
f 368 67 185
f 377 357 281
f 361 277 110
f 61 248 85
f 59 202 273
f 71 3 356
f 458 420 467
f 473 461 23
f 148 90 446
f 54 252 43
f 130 311 238
f 34 289 88
f 126 72 120
f 253 319 343
f 342 434 12
f 76 30 83
f 222 304 162
f 249 410 81
f 337 371 73
f 121 209 30
f 349 247 359
f 492 477 451
f 329 150 101
f 451 23 318
f 279 235 213
f 501 56 277
f 459 158 335
f 216 94 261
f 65 241 118
f 250 372 305
f 36 70 4
f 294 394 345
f 48 227 140
f 401 458 8
f 64 338 146
f 488 208 51
f 248 302 337
f 151 463 449
f 206 480 405
f 15 102 45
f 152 314 162
f 245 62 234
f 209 360 30
f 188 86 170
f 383 479 472
f 192 370 93
f 285 314 152
f 21 25 195
f 368 405 67
f 495 457 323
f 180 493 203
f 65 408 241
f 243 303 375
f 12 282 96
f 192 93 265
f 65 352 408
f 407 355 47
f 26 25 21
f 62 152 234
f 147 62 245
f 504 44 466
f 233 237 291
f 225 149 50
f 13 432 424
f 473 23 452
f 444 58 317
f 256 227 48
f 207 390 131
f 431 189 403
f 237 28 291
f 401 167 74
f 229 133 109
f 268 122 210
f 462 344 75
f 380 31 491
f 66 20 461
f 467 31 8
f 501 512 417
f 153 52 297
f 135 293 334
f 203 96 282
f 11 221 143
f 507 453 42
f 301 343 319
f 441 449 26
f 15 309 102
f 274 138 136
f 418 281 305
f 357 89 281
f 148 446 171
f 351 270 434
f 13 439 218
f 63 39 302
f 240 77 398
f 280 156 262
f 173 16 470
f 422 266 326
f 52 416 166
f 44 113 466
f 450 469 283
f 207 246 165
f 127 87 254
f 474 443 24
f 244 37 498
f 41 425 306
f 469 442 278
f 126 312 72
f 470 16 164
f 345 288 320
f 292 511 266
f 80 199 263
f 479 494 481
f 27 384 456
f 488 140 57
f 278 223 242
f 39 145 121
f 61 438 248
f 192 265 9
f 65 489 454
f 276 69 286
f 189 89 357
f 118 122 267
f 217 156 214
f 40 30 76
f 13 218 432
f 362 161 429
f 2 342 359
f 448 245 97
f 293 455 487
f 59 131 202
f 130 77 240
f 453 441 26
f 445 422 148
f 149 275 172
f 433 298 325
f 6 324 295
f 73 371 397
f 338 464 29
f 420 327 333
f 80 226 199
f 229 511 133
f 340 126 120
f 65 118 28
f 375 418 9
f 409 268 210
f 91 246 117
f 328 332 460
f 313 244 478
f 128 211 380
f 424 432 423
f 93 370 485
f 148 251 90
f 337 302 371
f 1 466 231
f 278 355 223
f 378 317 159
f 81 410 369
f 463 413 147
f 281 250 305
f 368 206 405
f 116 365 151
f 268 267 122
f 313 14 244
f 154 197 169
f 496 384 27
f 24 443 512
f 177 495 191
f 80 313 414
f 228 198 409
f 38 312 126
f 466 49 261
f 66 98 20
f 459 335 33
f 436 55 132
f 321 118 506
f 422 465 251
f 93 321 506
f 266 511 440
f 93 506 35
f 144 112 196
f 240 398 282
f 59 481 131
f 233 291 423
f 229 109 417
f 393 82 140
f 46 169 197
f 400 267 268
f 211 167 401
f 15 170 228
f 199 323 206
f 405 480 171
f 381 454 399
f 401 74 193
f 299 403 341
f 488 57 208
f 194 22 462
f 497 195 154
f 260 201 383
f 348 36 438
f 351 194 270
f 404 51 354
f 326 440 82
f 451 318 367
f 350 60 141
f 446 405 171
f 334 316 219
f 430 368 215
f 353 221 11
f 352 314 162
f 22 450 462
f 443 183 417
f 204 181 366
f 395 180 203
f 414 313 478
f 7 54 43
f 275 224 172
f 237 454 489
f 6 102 324
f 404 354 157
f 510 419 111
f 445 292 266
f 81 369 485
f 69 271 186
f 2 343 255
f 371 40 76
f 109 483 501
f 52 166 297
f 239 191 226
f 420 127 391
f 316 216 180
f 157 17 416
f 57 347 500
f 439 43 252
f 203 282 235
f 352 162 314
f 88 5 303
f 290 158 298
f 260 262 201
f 20 214 156
f 7 143 54
f 91 117 33
f 17 230 103
f 55 433 95
f 465 256 338
f 113 502 108
f 336 494 128
f 344 450 283
f 440 347 82
f 279 203 235
f 204 360 209
f 445 148 179
f 54 143 388
f 197 160 399
f 134 386 137
f 366 68 431
f 287 148 129
f 39 121 40
f 217 392 156
f 173 425 41
f 294 508 394
f 276 187 269
f 170 86 198
f 7 105 143
f 397 76 299
f 348 61 201
f 79 346 236
f 359 247 502
f 274 136 413
f 175 54 388
f 463 147 284
f 74 426 193
f 307 164 29
f 116 151 324
f 72 389 353
f 244 14 339
f 422 251 148
f 364 190 329
f 381 160 197
f 348 201 262
f 118 241 122
f 251 146 90
f 430 378 263
f 436 290 433
f 85 248 337
f 362 452 161
f 32 382 426
f 247 253 343
f 59 331 131
f 305 372 176
f 488 51 264
f 383 472 367
f 62 285 152
f 392 36 348
f 119 437 99
f 177 187 139
f 91 335 158
f 255 469 450
f 205 230 17
f 249 411 424
f 21 195 497
f 75 374 278
f 336 128 380
f 352 447 162
f 79 186 384
f 329 190 150
f 477 452 23
f 396 269 187
f 13 424 411
f 104 105 7
f 47 355 442
f 254 87 188
f 244 339 37
f 166 144 212
f 282 398 235
f 77 272 503
f 259 250 89
f 446 90 16
f 210 122 304
f 358 267 400
f 208 57 500
f 109 501 417
f 48 264 464
f 426 168 10
f 136 285 62
f 376 259 89
f 99 437 510
f 142 110 232
f 412 455 293
f 71 19 155
f 298 6 325
f 50 301 253
f 203 493 96
f 306 402 275
f 70 279 4
f 138 222 285
f 458 327 420
f 342 49 113
f 88 303 243
f 401 193 458
f 397 299 5
f 392 348 262
f 10 106 184
f 205 510 230
f 396 363 269
f 120 72 353
f 175 310 252
f 135 334 258
f 19 135 258
f 71 135 19
f 344 374 75
f 119 361 437
f 120 353 475
f 185 67 173
f 5 341 303
f 321 28 118
f 390 202 131
f 470 307 182
f 38 507 312
f 36 4 438
f 127 254 460
f 74 123 32
f 499 154 169
f 219 316 395
f 385 11 105
f 440 511 229
f 483 56 501
f 364 85 190
f 198 400 268
f 13 411 181
f 386 188 170
f 24 512 119
f 91 33 335
f 32 509 382
f 154 381 197
f 361 142 340
f 127 333 87
f 49 493 261
f 217 257 392
f 83 431 403
f 372 220 176
f 208 354 51
f 50 149 301
f 182 153 297
f 336 380 491
f 200 293 135
f 440 229 183
f 238 311 60
f 376 81 259
f 58 359 349
f 466 261 94
f 327 10 184
f 86 400 198
f 113 49 466
f 348 438 61
f 139 286 495
f 19 217 214
f 207 491 246
f 115 69 186
f 301 172 343
f 439 141 60
f 12 96 493
f 368 185 215
f 429 100 133
f 138 210 222
f 446 16 67
f 79 496 373
f 75 308 406
f 345 132 55
f 95 325 486
f 260 367 318
f 87 86 188
f 390 91 490
f 300 97 234
f 208 474 354
f 41 306 225
f 379 21 497
f 273 492 451
f 487 216 316
f 222 162 314
f 505 429 133
f 349 502 247
f 2 315 343
f 347 183 500
f 231 466 94
f 321 291 28
f 510 111 230
f 336 207 131
f 309 365 102
f 408 162 304
f 492 202 18
f 118 267 427
f 467 332 31
f 430 263 199
f 402 212 275
f 350 141 181
f 453 26 42
f 71 200 135
f 217 258 257
f 146 338 29
f 175 169 46
f 13 181 141
f 91 158 290
f 271 456 384
f 207 59 131
f 192 92 220
f 292 505 511
f 139 276 286
f 34 88 123
f 300 454 97
f 373 473 362
f 338 256 464
f 184 358 387
f 306 275 149
f 339 159 113
f 230 468 103
f 89 250 281
f 453 295 441
f 259 370 372
f 393 140 227
f 128 101 211
f 459 460 254
f 184 106 358
f 321 369 291
f 19 214 155
f 484 415 428
f 429 161 100
f 406 439 60
f 239 396 191
f 221 499 388
f 342 113 502
f 483 100 508
f 158 163 298
f 415 114 428
f 68 189 431
f 256 48 464
f 496 66 373
f 104 415 105
f 438 4 63
f 455 231 487
f 287 129 171
f 393 256 465
f 373 362 346
f 307 153 182
f 469 278 283
f 509 265 382
f 259 372 250
f 56 320 110
f 278 242 482
f 117 246 33
f 101 150 34
f 501 277 512
f 181 411 366
f 273 451 367
f 32 243 509
f 309 274 413
f 150 73 289
f 249 81 376
f 190 337 73
f 287 286 179
f 180 261 493
f 151 365 463
f 322 29 464
f 512 443 417
f 468 415 484
f 457 287 480
f 172 224 47
f 394 508 174
f 199 226 323
f 470 182 425
f 503 209 121
f 418 305 92
f 232 110 320
f 297 166 212
f 280 260 318
f 509 9 265
f 30 360 83
f 125 504 1
f 487 231 216
f 435 404 52
f 234 162 447
f 406 43 439
f 207 331 59
f 115 445 179
f 467 391 332
f 435 52 153
f 307 29 322
f 437 419 510
f 4 213 63
f 123 88 243
f 75 406 60
f 46 399 233
f 81 485 259
f 494 364 329
f 116 324 102
f 221 388 143
f 72 379 389
f 76 83 299
f 495 286 287
f 168 421 35
f 378 215 317
f 104 308 53
f 484 428 407
f 404 157 416
f 393 227 256
f 119 277 361
f 219 395 70
f 210 304 222
f 284 147 245
f 386 170 15
f 196 407 47
f 444 41 225
f 80 263 313
f 363 3 456
f 389 497 499
f 436 490 290
f 138 285 136
f 107 471 356
f 239 107 396
f 5 299 341
f 165 246 476
f 74 32 426
f 307 322 153
f 283 278 374
f 311 75 60
f 504 466 1
f 14 378 159
f 157 78 205
f 198 268 409
f 273 202 492
f 115 186 236
f 343 442 469
f 25 448 195
f 58 50 359
f 149 172 301
f 157 205 17
f 430 206 368
f 193 10 327
f 113 349 502
f 53 242 223
f 91 290 490
f 170 198 228
f 414 478 471
f 499 169 388
f 436 433 55
f 446 67 405
f 316 180 395
f 247 343 315
f 363 456 269
f 439 252 218
f 163 102 6
f 79 384 496
f 178 137 45
f 37 44 504
f 396 187 191
f 327 184 333
f 142 38 126
f 445 266 422
f 386 45 137
f 216 261 180
f 251 64 146
f 238 60 350
f 14 159 339
f 402 297 212
f 287 171 480
f 321 485 369
f 106 427 358
f 371 76 397
f 425 402 306
f 383 201 84
f 498 37 125
f 286 69 179
f 202 490 18
f 424 423 410
f 300 447 352
f 57 140 82
f 341 403 357
f 215 444 317
f 207 165 390
f 473 452 362
f 340 120 419
f 449 284 25
f 257 70 36
f 115 236 292
f 380 8 31
f 496 98 66
f 325 295 486
f 360 431 83
f 93 421 265
f 428 223 355
f 167 34 123
f 185 444 215
f 238 350 272
f 79 373 346
f 139 187 276
f 194 130 240
f 112 484 407
f 435 51 404
f 419 120 475
f 494 329 128
f 238 272 77
f 61 85 84
f 358 427 267
f 46 197 399
f 458 193 327
f 92 305 176
f 237 399 454
f 408 352 162
f 104 114 415
f 387 400 86
f 328 460 459
f 483 294 56
f 448 97 381
f 146 29 164
f 37 339 44
f 17 103 296
f 404 416 52
f 192 372 370
f 309 413 365
f 26 449 25
f 127 460 391
f 231 94 216
f 278 442 355
f 59 273 472
f 302 40 371
f 470 164 307
f 474 78 354
f 101 34 167
f 309 228 274
f 393 465 326
f 351 434 342
f 441 295 324
f 359 247 315
f 27 155 98
f 458 467 8
f 389 499 221
f 322 464 264
f 382 421 168
f 361 110 142
f 111 475 385
f 366 431 360
f 342 12 49
f 377 281 418
f 24 99 78
f 245 234 97
f 229 417 183
f 430 199 206
f 134 137 178
f 289 397 5
f 243 375 509
f 270 240 282
f 509 375 9
f 366 411 68
f 459 134 178
f 48 140 488
f 2 359 315
f 477 174 452
f 71 155 3
f 211 8 380
f 506 427 35
f 142 126 340
f 91 476 246
f 205 99 510
f 211 101 167
f 230 111 468
f 492 18 330
f 296 103 112
f 10 168 106
f 130 238 77
f 276 271 69
f 345 394 132
f 474 24 78
f 222 314 285
f 194 240 270
f 213 235 145
f 330 174 477
f 90 146 164
f 111 385 468
f 46 233 310
f 333 184 387
f 381 399 160
f 178 45 163
f 207 131 331
f 57 82 347
f 328 459 33
f 451 477 23
f 31 332 491
f 195 448 381
f 395 203 279
f 266 440 326
f 258 334 219
f 115 179 69
f 234 152 162
f 194 462 130
f 403 189 357
f 376 189 68
f 505 133 511
f 130 462 311
f 471 412 200
f 109 100 483
f 192 9 92
f 42 26 21
f 474 500 443
f 336 481 494
f 294 320 56
f 322 264 435
f 150 289 34
f 483 508 294
f 498 455 412
f 53 223 114
f 303 341 377
f 428 114 223
f 71 356 200
f 75 482 53
f 363 356 3
f 27 456 3
f 2 255 22
f 38 232 124
f 478 498 412
f 204 366 360
f 48 488 264
f 95 486 124
f 271 384 186
f 61 84 201
f 288 95 124
f 125 1 231
f 87 387 86
f 441 151 449
f 218 252 432
f 125 231 455
f 49 12 493
f 457 480 323
f 351 22 194
f 375 377 418
f 422 326 465
f 177 191 187
f 482 242 53
f 20 280 461
f 75 53 308
f 104 53 114
f 274 409 138
f 116 102 365
f 241 408 304
f 246 332 33
f 273 367 472
f 407 428 355
f 79 236 186
f 376 89 189
f 387 358 400
f 182 297 402
f 237 489 28
f 59 472 481
f 287 179 148
f 228 409 274
f 381 97 454
f 24 119 99
f 249 376 68
f 416 17 296
f 22 255 450
f 498 125 455
f 365 413 463
f 115 292 445
f 478 412 471
f 425 182 402
f 413 136 147
f 205 78 99
f 206 323 480
f 322 435 153
f 92 176 220
f 296 112 144
f 239 414 107
f 433 325 95
f 257 219 70
f 212 144 196
f 356 471 200
f 251 465 64
f 398 503 145
f 58 225 50
f 172 442 343
f 396 107 363
f 280 262 260
f 340 419 437
f 104 7 308
f 444 225 58
f 64 465 338
f 506 118 427
f 330 394 174
f 20 156 280
f 25 284 448
f 409 210 138
f 468 385 415
f 475 11 385
f 436 132 18
f 406 308 43
f 66 473 373
f 173 67 16
f 233 423 432
f 123 243 32
f 288 124 232
f 391 460 332
f 147 136 62
f 290 298 433
f 90 164 16
f 270 282 12
f 173 470 425
f 9 418 92
f 317 58 349
f 103 484 112
f 272 350 204
f 385 105 415
f 353 389 221
f 426 382 168
f 172 47 442
f 364 84 85
f 98 155 214
f 410 291 369
f 351 2 22
f 192 220 372
f 359 50 253
f 259 485 370
f 393 326 82
f 392 257 36
f 416 296 166
f 495 323 226
f 479 481 472
f 85 337 190
f 63 213 39
f 382 265 421
f 177 139 495
f 159 349 113
f 507 124 486
f 236 505 292
f 13 141 439
f 339 113 44
f 175 252 54
f 345 55 288
f 235 398 145
f 174 161 452
f 248 63 302
f 233 399 237
f 496 27 98
f 260 383 367
f 134 188 386
f 363 107 356
f 73 397 289
f 145 503 121
f 254 188 134
f 359 253 247
f 77 503 398
f 289 5 88
f 351 342 2
f 505 346 362
f 109 133 100
f 343 469 255
f 336 491 207
f 249 68 411
f 312 42 379
f 193 426 10
f 441 324 151
f 239 226 80
f 211 401 8
f 449 463 284
f 246 491 332
f 112 407 196
f 185 173 41
f 93 485 321
f 66 461 473
f 383 84 479
f 163 45 102
f 341 357 377
f 65 300 352
f 142 232 38
f 333 387 87
f 252 310 432
f 208 500 474
f 508 100 161
f 390 476 91
f 258 219 257
f 479 84 364
f 174 508 161
f 284 245 448
f 15 228 309
f 271 269 456
f 312 379 72
f 334 487 316
f 249 424 410
f 233 432 310
f 224 196 47
f 462 75 311
f 294 345 320
f 175 46 310
f 478 244 498
f 263 378 14
f 195 381 154
f 419 475 111
f 168 35 106
f 492 330 477
f 159 317 349
f 495 287 457
f 436 18 490
f 300 234 447
f 106 35 427
f 119 512 277
f 507 486 453
f 272 204 209
f 379 497 389
f 325 6 295
f 190 73 150
f 459 178 158
f 241 304 122
f 462 450 344
f 19 258 217
f 253 301 319
f 453 486 295
f 461 318 23
f 293 487 334
f 213 145 39
f 7 43 308
f 507 42 312
f 330 18 132
f 410 423 291
f 344 283 374
f 200 412 293
f 430 215 378
f 157 354 78
f 98 214 20
f 479 364 494
f 328 33 332
f 420 391 467
f 128 329 101
f 75 278 482
f 495 226 191
f 129 148 171
# 1027 faces, 0 coords texture

# End of File