####
#
# OBJ File Generated by Meshlab
#
####
# Object Volume_041.obj
#
# Vertices: 809
# Faces: 1628
#
####
v 186.054794 136.159637 132.056747
v 181.953110 130.873810 134.834839
v 188.107361 132.819458 132.136642
v 166.989868 141.680756 146.189224
v 168.600098 129.524551 145.489059
v 201.088730 139.575241 139.204971
v 193.970245 129.510605 146.606903
v 171.972931 129.700516 149.772400
v 186.055099 126.118065 145.555557
v 196.011612 133.539658 145.075241
v 201.529968 143.866898 135.437256
v 172.126816 132.284210 133.619858
v 202.690613 143.594376 136.789536
v 166.972046 139.668579 143.171112
v 199.301971 131.472656 142.544159
v 188.107895 146.095917 133.407257
v 169.033096 133.755402 147.885010
v 186.054947 143.853241 132.618286
v 169.090347 127.020340 148.033203
v 189.864044 146.121872 136.836777
v 186.051895 125.166939 148.570023
v 178.145523 135.671646 148.642792
v 168.824768 135.654175 135.885010
v 198.070221 135.548615 143.166229
v 195.342682 137.596527 144.465759
v 199.582138 146.090973 134.333847
v 169.293884 126.632507 145.971542
v 193.804169 137.733307 132.038422
v 178.144058 137.701096 148.413254
v 171.991760 145.124847 140.843857
v 192.185623 137.899002 145.817230
v 181.951141 125.304749 149.250519
v 170.810822 146.082962 133.626099
v 174.042007 128.582748 139.977600
v 190.815063 128.373596 148.104233
v 197.467514 131.264450 144.518860
v 193.392990 134.860550 146.079407
v 186.054901 137.729904 132.311188
v 174.043182 141.707214 147.231964
v 181.951157 146.081345 133.417160
v 196.744781 126.583786 145.415665
v 174.041214 135.669617 148.629013
v 202.649811 137.696548 136.865936
v 169.970230 135.654602 148.322830
v 191.915100 129.987274 136.768387
v 168.700806 131.631744 147.285797
v 184.003906 145.693604 133.067383
v 202.462769 133.847672 136.802872
v 176.092941 144.503693 143.153336
v 188.256729 127.637398 149.645706
v 169.961227 146.192505 135.440430
v 176.111649 132.018661 132.944046
v 168.636124 129.384277 143.373093
v 166.993332 137.784286 140.319702
v 178.146988 125.786896 149.765015
v 166.887253 142.564011 145.711746
v 179.901978 141.811951 132.506439
v 179.901535 131.972824 132.925827
v 171.993439 146.374512 135.475586
v 184.003906 143.852997 132.619812
v 201.676010 141.814148 138.375046
v 183.963470 142.833740 146.035553
v 181.953064 141.811905 132.507965
v 176.093048 137.699799 148.410797
v 193.437439 141.607391 144.173325
v 169.272873 127.371010 149.095245
v 185.558746 135.505173 148.193985
v 176.092941 125.372353 147.480881
v 172.021881 127.438805 150.121658
v 176.095367 142.745178 146.461395
v 176.092148 131.552948 149.469620
v 202.705200 139.748825 136.851410
v 174.042023 126.120323 145.556366
v 197.326050 132.957565 144.298615
v 197.588516 129.408936 144.574600
v 174.129639 132.252563 133.085403
v 184.003906 145.708206 138.519745
v 196.678772 126.425743 145.480972
v 196.020020 128.105667 141.345245
v 197.999313 144.563705 140.502701
v 189.937424 135.189301 131.866516
v 178.144806 127.462791 150.220642
v 171.993195 127.108208 143.474472
v 198.365997 133.746719 132.618607
v 184.003906 130.874374 134.835068
v 190.327377 140.112289 145.889160
v 189.864014 127.050522 143.449997
v 200.679214 143.769821 139.239075
v 174.042419 125.307846 149.249023
v 174.050140 145.692963 133.086105
v 178.139389 132.817444 132.134964
v 171.992432 125.317719 149.253510
v 184.529816 138.236160 147.961670
v 179.902008 129.089691 138.822311
v 169.330078 129.436081 148.536591
v 184.003937 127.997131 141.295914
v 186.055054 145.133118 140.845917
v 168.678864 129.611008 140.873566
v 168.108932 131.626984 143.419235
v 186.054932 146.121109 136.836609
v 178.145905 146.095932 133.407257
v 178.145569 145.702118 133.049423
v 166.478958 143.985275 140.239761
v 201.516525 135.850861 135.722900
v 186.054825 127.997513 141.296066
v 189.743057 136.297958 132.054382
v 186.041367 129.427444 149.720840
v 166.964905 138.869720 144.474487
v 191.913208 146.081329 133.417160
v 189.870331 126.240547 145.604202
v 167.383316 143.860962 136.762314
v 188.105194 137.730911 132.304947
v 200.953400 141.755447 134.663544
v 184.050613 131.568344 149.315857
v 168.418381 145.815018 134.400803
v 174.041962 125.800308 149.737259
v 184.003937 129.987549 136.768478
v 181.953033 127.050537 143.449890
v 198.016525 143.840744 132.834473
v 200.201218 133.638245 140.976257
v 189.140259 130.862198 148.221252
v 202.472290 134.169769 136.804428
v 174.041962 145.708313 138.519791
v 179.901993 127.996803 141.295639
v 174.041992 127.997887 141.296204
v 198.012390 139.731369 132.386002
v 178.148727 134.954147 131.861389
v 201.713074 139.759918 135.649841
v 193.938507 135.673233 131.744049
v 189.752823 141.666656 145.408661
v 171.991119 145.697372 138.517197
v 167.218445 137.562286 143.493988
v 171.927322 131.592621 149.194687
v 170.051041 127.449638 143.603897
v 202.716629 141.689774 136.814438
v 191.915344 141.811630 132.499985
v 199.038818 137.587784 142.091507
v 200.215027 131.629822 140.893051
v 172.059616 143.875900 132.909729
v 170.175552 143.871338 133.398331
v 171.992401 143.720535 145.056183
v 200.915024 141.809631 139.444901
v 198.658142 137.712234 132.378281
v 178.144135 125.365685 147.478958
v 178.144485 131.554550 149.477463
v 166.836914 140.095261 144.058975
v 186.106583 139.798141 147.100037
v 196.019058 146.081879 133.417770
v 199.519089 141.796036 133.397934
v 166.845322 139.802078 140.371384
v 181.830765 139.005173 148.136276
v 176.088074 130.040329 149.908081
v 201.541870 133.541397 138.411301
v 181.953430 135.663803 148.582458
v 188.047791 125.214928 148.599838
v 167.937897 145.200089 138.436508
v 196.622086 126.418510 145.524185
v 189.863480 146.425568 134.494034
v 200.135468 135.543488 140.839447
v 170.042358 130.383957 137.011642
v 181.951553 132.829330 132.154419
v 191.916046 133.649246 131.837372
v 200.884659 130.409515 138.137207
v 187.932846 131.378220 148.617661
v 198.970474 134.241272 133.072113
v 184.003906 139.761917 132.464172
v 188.106033 146.401932 135.480713
v 179.899063 125.786873 149.764984
v 186.056839 146.081314 133.417175
v 169.947540 143.652832 145.022598
v 195.283463 129.471420 146.100433
v 199.347916 139.826019 133.189148
v 191.914978 127.069221 143.458328
v 179.901993 129.077332 150.129288
v 178.144135 129.987213 136.768341
v 193.992874 126.523369 145.545959
v 167.720032 143.613312 143.103714
v 191.914993 143.853271 132.617905
v 181.790146 142.812012 146.264404
v 196.019989 141.816101 143.120850
v 196.014847 127.372490 143.602676
v 174.673233 133.622879 132.025604
v 178.143753 141.715515 147.286942
v 179.901978 145.148941 140.849991
v 170.131165 139.635468 133.517883
v 193.820724 133.498535 146.231491
v 181.952560 125.164009 148.569107
v 202.579224 135.646133 136.850296
v 168.432877 137.709961 147.878860
v 184.003754 125.307014 149.249298
v 186.054825 129.987595 136.768524
v 167.424362 133.522781 138.487289
v 193.965744 145.693573 133.067642
v 200.388672 145.857224 135.163193
v 176.094376 143.851883 132.635452
v 186.852448 128.239655 149.834091
v 190.270340 125.195473 149.366089
v 168.246078 133.637253 136.961472
v 202.709778 139.743668 136.860168
v 172.066559 137.701782 132.870453
v 172.009506 125.217865 148.591904
v 184.124023 129.864380 149.857849
v 167.760895 139.820602 136.741837
v 178.144150 127.996803 141.295654
v 188.105957 126.579842 144.501877
v 184.003906 136.159012 132.059555
v 198.249817 131.632217 134.879578
v 196.355927 137.742126 143.859436
v 193.705551 127.520493 146.544098
v 174.042023 145.146088 140.849304
v 185.910812 141.637817 146.543320
v 198.851898 128.653534 142.573181
v 200.132217 145.233047 138.439987
v 176.237656 134.801498 131.864532
v 196.165619 131.625259 145.351852
v 193.965942 146.393738 135.479568
v 179.901779 136.156204 132.063248
v 169.966385 144.314011 143.093079
v 181.952911 143.853226 132.618240
v 168.601715 131.752289 137.099274
v 174.042969 125.383644 147.484772
v 169.301819 131.794327 135.902756
v 202.736328 141.803940 136.809296
v 186.054977 127.050522 143.449905
v 191.999969 139.810822 145.267136
v 199.287155 128.851959 141.578384
v 189.863556 133.642822 131.847214
v 184.008820 133.437317 148.801102
v 184.003937 129.089539 138.822220
v 185.736588 142.710815 145.845016
v 181.953033 145.145248 140.849060
v 179.901932 127.051155 143.450226
v 174.042038 146.412308 134.494827
v 189.862518 145.702148 133.049393
v 181.952957 144.490326 143.148758
v 186.054352 125.385483 147.485443
v 193.966614 132.825089 132.138229
v 193.966171 128.579559 139.976288
v 167.443466 133.609451 141.261444
v 166.866043 141.741669 141.841995
v 170.014709 131.449844 148.681686
v 171.983658 146.110336 133.396957
v 189.824341 137.651367 146.674118
v 179.901978 130.868866 134.832306
v 184.003799 125.165581 148.569153
v 189.808212 143.072327 144.437225
v 181.953033 146.121109 136.836624
v 166.925476 139.947433 138.896683
v 184.003952 133.642990 131.860626
v 179.901535 137.700806 148.407379
v 189.864151 139.761978 132.455826
v 195.034073 131.307022 146.018921
v 184.003967 125.372368 147.480865
v 189.960114 131.624146 147.826187
v 176.212158 139.243439 148.147491
v 197.821579 141.721710 142.494461
v 176.093262 141.811966 132.527451
v 193.962402 131.999756 132.943802
v 169.950821 141.688553 147.183456
v 178.144119 141.811890 132.509476
v 169.367081 137.652420 134.560532
v 174.036453 140.239487 147.855408
v 181.951950 127.464264 150.203613
v 201.658386 137.719238 135.711105
v 179.895798 133.473572 148.969193
v 169.137360 130.617340 137.508667
v 189.863998 127.996788 141.295654
v 196.057175 139.799820 143.688492
v 186.085144 143.432922 145.031769
v 186.663391 135.825531 147.922028
v 168.487961 138.937531 147.847443
v 193.962524 139.777451 132.324142
v 189.824921 125.700333 147.589203
v 174.043655 125.167976 148.569763
v 179.901947 125.365662 147.478912
v 169.941925 140.208633 147.777451
v 198.046844 129.285446 138.905289
v 201.667679 135.656158 138.181824
v 198.056381 146.076523 133.429123
v 170.065704 127.301094 149.857712
v 184.004059 146.394470 135.479721
v 174.042175 137.697357 148.394272
v 198.337799 129.575638 143.628845
v 188.112305 134.964539 131.855362
v 172.090958 145.744492 133.166687
v 191.914978 146.120926 136.836548
v 200.044220 130.566620 137.162292
v 186.055069 145.707458 138.519592
v 183.306076 138.725494 148.073166
v 168.131271 145.953384 134.439133
v 197.918076 135.666077 132.032822
v 188.106827 131.972214 132.925491
v 166.763351 142.961334 144.970108
v 188.027161 139.675781 146.720917
v 170.004807 129.418579 138.977829
v 184.004013 132.830231 132.155441
v 171.999542 130.108826 136.828293
v 186.054901 141.811890 132.507965
v 188.106079 129.089706 138.822296
v 178.144028 126.580917 144.502365
v 166.989151 143.103592 144.354507
v 184.003906 141.811874 132.507965
v 188.150360 133.720306 147.962799
v 188.106049 141.811920 132.506393
v 168.059891 137.744324 136.835022
v 174.045624 137.711334 132.473541
v 178.144043 139.761658 132.471405
v 166.967728 139.716675 141.815674
v 184.003906 146.411499 134.495163
v 189.263763 125.425957 149.642395
v 174.041992 146.120529 136.836456
v 188.106155 129.987228 136.768341
v 191.650192 136.502106 131.997879
v 188.127945 125.417686 147.519226
v 167.888855 131.593979 141.065430
v 184.003922 126.119423 145.555984
v 179.901901 130.039459 149.909286
v 198.072968 128.832596 140.084381
v 186.056458 144.397797 143.117950
v 178.146240 131.974365 132.925903
v 169.080627 127.499794 145.437225
v 178.144440 125.151131 148.568924
v 178.144028 146.401917 135.480698
v 188.386368 142.027283 145.761871
v 174.910553 132.880417 132.228561
v 178.144135 146.121826 136.836777
v 191.968109 131.537369 147.075195
v 171.991272 146.101685 136.831802
v 166.993820 137.971375 139.251251
v 166.750732 141.996124 138.738846
v 170.698990 135.691010 133.595810
v 174.041946 129.091782 138.823212
v 179.901642 125.151070 148.568939
v 181.952438 131.983383 132.933960
v 201.088013 135.766968 139.186096
v 202.682999 143.275131 136.798141
v 171.991837 135.660934 148.562271
v 179.892029 141.705704 147.249817
v 191.913254 126.651405 144.529510
v 171.992126 141.703522 147.222244
v 188.105927 128.580246 139.976578
v 193.957199 144.867325 140.721802
v 174.041962 127.054169 143.451508
v 202.307327 132.875046 136.733871
v 185.970032 127.381477 150.071182
v 167.795273 133.579391 143.339478
v 169.932846 125.733002 149.770493
v 176.092926 127.997528 141.296082
v 193.966156 145.666153 138.509537
v 186.055099 146.395142 135.479813
v 171.992065 142.736282 146.449036
v 167.977020 141.668411 146.845886
v 166.706940 141.755280 144.022736
v 184.003937 146.121674 136.836761
v 168.255966 144.032425 134.729309
v 196.015793 146.393097 135.478821
v 176.094025 127.464111 150.197723
v 169.634674 128.053421 149.480255
v 169.241821 128.099915 143.642334
v 191.904785 126.457649 145.602737
v 176.103119 132.814926 132.122482
v 191.768051 127.487068 147.475052
v 176.094818 129.074295 150.118393
v 176.093063 146.395111 135.479813
v 170.002274 126.405540 145.661621
v 195.488663 127.425056 146.028809
v 171.993195 144.470993 143.143311
v 188.099808 144.302521 143.062119
v 193.945145 126.749054 144.569702
v 191.916306 139.762589 132.395691
v 167.999100 131.733368 138.709396
v 197.862671 143.452347 141.813309
v 199.411575 137.750977 133.045074
v 180.017532 140.372467 147.828430
v 189.864136 145.081696 140.830124
v 191.279953 137.470230 146.158646
v 178.145981 125.289185 149.258240
v 176.093430 125.164200 148.569107
v 185.064285 128.754791 150.047684
v 167.258347 135.649963 141.343063
v 181.950180 125.798004 149.744446
v 172.034210 131.185684 135.027527
v 181.952454 146.413177 134.494980
v 168.787201 130.238892 139.013550
v 181.953003 128.579971 139.976410
v 167.432877 132.685501 139.910873
v 169.050308 128.754044 141.676132
v 181.952988 126.119530 145.556046
v 167.359909 135.663010 138.378906
v 193.721985 143.482224 142.825836
v 166.673431 141.988297 140.401550
v 174.034027 146.077164 133.422272
v 179.903259 135.668579 148.625870
v 169.192947 140.292236 134.026230
v 200.492035 135.600143 134.598358
v 192.728394 136.465607 145.890549
v 181.952957 136.159042 132.059341
v 198.296478 131.657928 143.724075
v 197.950333 137.672714 132.037506
v 178.143417 142.757736 146.478317
v 174.053146 143.852341 132.699631
v 184.003937 137.729843 132.312027
v 200.622971 143.829483 134.431000
v 179.902008 126.580910 144.502319
v 189.827011 127.396935 148.915833
v 190.321274 125.230652 149.345932
v 168.149124 145.184479 136.679428
v 169.956650 145.926575 136.798477
v 168.850235 134.233673 135.888824
v 174.042084 146.393829 135.479614
v 168.705017 137.041229 135.852463
v 165.308395 145.005508 139.775375
v 189.863907 143.854340 132.608078
v 181.958191 130.034073 149.893707
v 167.143723 138.189148 146.824890
v 194.415054 136.961441 131.899963
v 189.864014 130.868866 134.832352
v 171.992020 126.612801 144.517548
v 199.694183 129.524963 140.677933
v 176.092957 127.050575 143.449905
v 196.016647 145.626007 138.496857
v 167.097549 139.880814 146.560684
v 196.018661 146.408539 134.495483
v 179.900253 132.819183 132.136337
v 183.893723 129.000290 150.114944
v 174.033798 131.539566 149.416504
v 179.901398 146.425598 134.494034
v 200.849091 131.601898 139.442368
v 176.092636 137.727707 132.332413
v 167.302856 137.748764 138.347107
v 202.667953 137.699722 136.880081
v 196.765030 126.537300 145.469360
v 178.144150 144.509354 143.155167
v 191.914978 129.089783 138.822281
v 179.901962 143.854355 132.608032
v 187.936768 143.173264 144.829300
v 183.929062 141.749985 146.790619
v 199.329987 145.944641 133.501266
v 186.064972 125.792229 149.717422
v 188.106415 145.116272 140.840408
v 196.013748 143.850479 132.642532
v 186.055573 146.413147 134.494965
v 183.909592 137.611481 148.234818
v 169.330902 138.928375 134.236221
v 178.142578 140.526840 147.814178
v 196.273483 137.498337 131.876236
v 196.019180 141.810806 132.473282
v 186.056351 145.694427 133.064957
v 189.863907 146.401917 135.480698
v 193.988495 127.098991 143.488739
v 201.732651 139.965179 138.231476
v 201.478577 143.786697 138.238770
v 191.921188 144.997574 140.810684
v 184.003906 131.985992 132.935791
v 201.025681 137.704224 139.211502
v 169.992889 133.603302 148.422058
v 191.755188 141.737610 144.755264
v 181.948608 143.690979 145.039871
v 193.965866 129.089676 138.822250
v 179.902084 139.761703 132.468872
v 199.596954 143.678207 140.494980
v 174.041977 126.582321 144.502960
v 194.845810 140.364395 144.001938
v 172.069046 133.621780 133.065491
v 199.268311 133.477737 142.357193
v 179.831726 139.282074 148.147842
v 167.299088 143.773331 141.577225
v 184.003860 127.050629 143.449936
v 181.953781 131.536438 149.426620
v 178.144180 127.051186 143.450211
v 178.144119 129.078049 150.131241
v 202.662048 143.667755 136.783585
v 173.854630 133.633331 132.346069
v 200.078735 129.944839 139.072647
v 191.913513 145.694443 133.064926
v 196.015167 145.693909 133.070374
v 196.008591 139.787292 132.265198
v 198.042130 137.750870 142.913406
v 179.900208 146.095963 133.407272
v 168.919861 141.866959 134.093323
v 202.455444 145.274048 136.773376
v 179.900024 143.735565 145.064346
v 174.050186 130.988434 134.894913
v 198.572052 143.544342 141.460342
v 185.044891 137.017990 148.120865
v 169.061005 128.919998 143.000000
v 188.217422 137.734680 147.051636
v 167.119553 137.431152 145.083801
v 168.117691 135.659622 137.019028
v 183.991379 143.621780 144.999344
v 188.107544 145.702133 133.049438
v 186.054932 129.089798 138.822342
v 198.630478 135.711807 132.370438
v 181.952911 134.955170 131.870667
v 166.152588 144.735428 139.860016
v 169.959595 137.692520 148.264175
v 174.042419 130.014984 136.781021
v 201.701736 137.710373 138.204102
v 166.998230 138.027649 145.697693
v 174.149612 128.994995 150.099640
v 199.378265 144.565720 139.796188
v 202.424179 133.772461 136.788376
v 179.900513 145.702148 133.049393
v 191.919052 143.921066 142.927734
v 169.953659 145.013123 140.813400
v 166.785080 139.847137 145.398819
v 199.153854 135.634415 142.172318
v 188.106506 146.425537 134.494064
v 194.580322 133.777802 145.812363
v 186.036438 131.601151 148.954559
v 184.003143 125.800529 149.736771
v 200.693680 137.597229 134.568787
v 166.621353 141.804962 145.271545
v 194.013351 137.669128 145.023575
v 178.143906 143.746964 145.069962
v 167.539001 135.389267 143.337830
v 169.293564 125.479790 149.795715
v 172.001907 146.399292 134.489868
v 187.795242 126.797653 149.899216
v 164.959000 143.570007 145.000000
v 168.272812 131.586792 145.348740
v 176.093002 126.119522 145.556061
v 176.094803 145.694168 133.065811
v 176.093338 143.737640 145.064865
v 179.901932 144.504395 143.153473
v 193.540985 126.788841 146.046692
v 198.067642 146.395187 134.523865
v 179.901901 145.707016 138.519531
v 186.055603 133.642609 131.857071
v 168.783371 129.518219 147.419189
v 186.054871 130.873825 134.834778
v 176.092773 135.672455 148.642227
v 188.106781 133.640930 131.842789
v 191.632385 143.083221 143.899246
v 198.027405 145.704819 133.127213
v 199.166855 129.521835 142.595657
v 174.042023 143.733475 145.062454
v 194.026474 135.761627 145.623566
v 191.055145 126.950943 148.342224
v 170.192612 129.222794 149.354187
v 189.864120 145.703934 138.518906
v 168.015518 133.770264 145.426239
v 188.106079 146.121857 136.836792
v 196.016983 146.108765 136.833359
v 178.146393 133.553131 148.968506
v 171.999741 125.459686 147.509308
v 197.573044 133.676620 132.111389
v 193.965851 146.117844 136.835785
v 169.778931 133.575104 134.719666
v 179.902039 131.559372 149.454865
v 166.855591 141.860245 143.058365
v 176.092941 145.146622 140.849472
v 193.935928 131.546570 146.474365
v 179.902008 128.580261 139.976624
v 193.966095 129.992020 136.770248
v 176.092926 129.990311 136.769730
v 174.126984 135.736664 132.232559
v 169.467651 126.565697 149.719513
v 201.295441 131.605576 138.316391
v 196.006439 135.645370 131.754456
v 184.003983 126.580948 144.502304
v 188.106216 143.854370 132.608109
v 188.180069 129.487198 149.003738
v 168.905746 127.582924 147.394806
v 193.966187 133.662888 131.821060
v 176.094986 125.304878 149.250458
v 195.995682 133.663315 131.837891
v 181.952347 133.642685 131.857254
v 191.995041 137.665833 132.217453
v 181.952927 146.395142 135.479797
v 168.030014 146.096481 134.489365
v 199.896744 137.781937 141.049316
v 189.917374 135.647949 146.995071
v 172.025421 128.717300 149.999405
v 189.862549 132.819611 132.136917
v 192.038635 135.385452 131.855087
v 174.044449 127.461266 150.174683
v 181.955780 141.817108 147.013687
v 167.129730 139.486008 138.145599
v 195.999619 131.018051 134.902847
v 184.003967 146.079620 133.417984
v 198.884323 139.739014 142.059433
v 199.352982 145.711212 133.439240
v 167.625137 135.711990 145.189072
v 201.337463 145.089478 135.741623
v 193.966034 146.079697 133.417892
v 188.106094 130.868851 134.832291
v 167.507431 141.765854 136.748581
v 189.864029 129.089706 138.822281
v 179.900055 125.289085 149.258255
v 181.952988 126.580917 144.502335
v 199.565521 143.895142 133.419998
v 198.804916 141.720657 141.872849
v 181.953033 139.761810 132.464600
v 169.947174 145.585999 138.491745
v 169.982330 146.167770 134.531281
v 176.115585 133.629868 131.848618
v 191.915039 128.580002 139.976410
v 179.901947 146.401932 135.480713
v 178.144150 126.117950 145.555389
v 181.952957 145.708237 138.519775
v 174.784073 135.105835 132.035843
v 201.278854 133.654480 135.908295
v 184.003967 145.141708 140.848175
v 202.572128 135.755356 136.845779
v 191.913651 132.828445 132.151520
v 184.003937 134.955185 131.869720
v 166.171082 144.847153 138.928864
v 196.015900 128.616699 139.992081
v 199.184372 135.640793 132.862015
v 197.886871 139.775528 142.747757
v 197.902710 138.634171 132.134949
v 191.801300 133.552246 146.840515
v 178.144119 137.728470 132.320068
v 168.256287 145.806076 134.696091
v 199.106796 133.220276 133.939240
v 171.992447 128.610001 139.990036
v 176.093842 130.897156 134.846344
v 197.338943 132.991837 132.321732
v 170.029785 128.879944 140.121323
v 172.096786 135.660217 132.865540
v 195.018631 139.116608 144.239838
v 168.485779 133.777328 147.198761
v 190.688583 125.138168 149.201477
v 179.866119 142.741577 146.451965
v 167.531708 137.644943 147.224426
v 195.974045 132.097916 132.983810
v 178.145187 139.362717 148.145981
v 176.093109 145.708252 138.519775
v 178.144562 146.425507 134.494003
v 171.853592 141.863800 132.904068
v 176.095886 125.798119 149.744019
v 189.861038 137.736099 132.272980
v 189.635178 139.478333 146.207626
v 176.095123 141.708908 147.254593
v 174.042145 144.498825 143.151825
v 170.931732 132.287262 134.134903
v 193.873627 139.658295 144.668747
v 169.944382 139.058182 148.118744
v 195.894501 143.390366 142.305405
v 174.044815 139.760635 132.572540
v 178.144257 143.854416 132.608093
v 184.004059 144.465927 143.140961
v 189.922714 133.655548 147.343369
v 173.936188 129.886902 149.889709
v 186.054810 139.761887 132.464417
v 189.863419 131.972244 132.925491
v 200.111282 133.614975 134.794769
v 169.067169 133.254807 135.666550
v 172.040253 133.485779 148.826935
v 186.056396 132.829269 132.154327
v 192.112305 129.473358 147.340073
v 179.901337 133.640564 131.845795
v 200.022263 145.605164 136.759064
v 189.864029 128.580246 139.976562
v 167.175644 133.672195 139.904068
v 166.399216 143.973328 138.761597
v 186.054993 126.580925 144.502380
v 188.156616 125.285194 149.286621
v 181.953003 129.987595 136.768539
v 176.061447 135.934601 132.049698
v 179.901428 127.462761 150.220840
v 181.953018 127.997528 141.296066
v 191.914948 146.395142 135.479797
v 181.951050 129.071396 150.116318
v 188.748062 132.266159 147.970856
v 191.352722 126.564430 147.180374
v 169.955750 142.709335 146.420853
v 200.943329 130.688965 137.672852
v 184.002701 139.744049 147.649673
v 167.953369 139.828873 147.417709
v 174.022522 133.486740 148.946838
v 174.048523 141.813629 132.624649
v 201.179382 144.717133 137.942780
v 176.093002 126.580963 144.502350
v 168.013535 142.613174 146.260223
v 201.028091 133.786011 139.401489
v 170.192535 145.724960 133.672760
v 168.729141 144.010239 134.132309
v 169.980392 141.819290 133.484619
v 166.929764 144.832504 137.942657
v 191.914459 146.413177 134.494965
v 188.106171 139.761978 132.463943
v 198.070389 130.264572 136.889313
v 170.736450 133.824295 133.759415
v 189.842636 144.172577 142.979965
v 171.970612 139.837311 132.906372
v 176.093628 146.413162 134.494934
v 168.434753 141.710007 134.755707
v 195.999420 144.737152 140.629883
v 179.901917 134.957336 131.862335
v 198.056931 145.510452 138.457108
v 200.770523 139.730331 134.554642
v 170.026764 126.904274 144.705124
v 191.915253 127.995331 141.295303
v 168.045837 144.674988 140.614822
v 179.901657 137.728546 132.321259
v 189.619324 129.332352 148.528458
v 183.999268 135.652298 148.461639
v 197.717163 132.519180 133.169601
v 167.127060 135.670898 139.100266
v 169.968185 125.417503 149.419342
v 174.046951 139.062973 148.165588
v 186.089890 133.645203 148.512512
v 179.901932 146.121811 136.836746
v 193.965744 143.852921 132.618896
v 165.466034 144.965530 139.802185
v 171.993118 128.044403 141.316086
v 176.094727 146.081177 133.417267
v 186.925339 134.481323 148.006348
v 193.967773 128.017715 141.307465
v 174.042435 142.738953 146.452026
v 176.091385 133.558319 148.981033
v 167.066177 135.714798 139.941559
v 195.651123 138.219803 131.981247
v 188.096542 136.163849 132.048050
v 169.649887 135.697556 134.639908
v 169.733017 125.521126 148.924072
v 191.914322 131.983963 132.934387
v 193.966141 141.812714 132.470078
v 188.107986 126.142326 145.568069
v 170.094452 131.837708 135.090576
v 171.991547 137.696564 148.377197
v 189.864014 141.811920 132.504471
v 186.055511 131.983276 132.933929
v 196.021118 130.042374 136.786301
v 167.982513 143.354279 144.994186
v 187.382675 133.131271 148.177292
v 199.847931 141.841537 140.877335
v 194.264435 141.904312 143.821991
v 188.106064 127.051178 143.450165
v 181.953018 129.089783 138.822296
v 181.951569 145.694427 133.064911
v 182.064880 140.085205 147.783279
v 191.915359 145.689499 138.515640
v 176.092606 139.761429 132.484726
v 196.756241 126.584885 145.412018
v 199.907166 139.826691 140.911118
v 165.626923 144.987823 139.400482
v 178.144180 145.149078 140.850006
v 186.055374 134.955521 131.868805
v 189.864014 129.987213 136.768295
v 193.964600 130.897491 134.846024
v 198.075119 146.024734 136.797028
v 167.196152 133.637024 139.116913
v 171.981232 125.805458 149.726440
v 178.136230 136.150604 132.066727
v 188.106140 127.996788 141.295654
v 195.680984 135.506790 144.725067
v 179.901947 126.117950 145.555374
v 196.880508 135.973099 143.938126
v 169.259689 125.527443 149.840271
v 184.004013 128.580490 139.976639
v 187.777405 141.488327 146.116516
v 188.106003 145.705231 138.519135
v 186.037491 137.668884 147.726959
v 178.143997 128.580246 139.976608
v 168.722687 135.805756 147.842102
v 181.948959 137.695969 148.365143
v 181.952835 137.729492 132.314606
v 171.993057 129.141357 138.845490
v 186.055161 125.314545 149.245789
v 196.016769 129.110886 138.831436
v 170.419968 137.745239 133.615799
v 189.862091 146.095932 133.407242
v 176.093002 128.579971 139.976395
v 171.991486 140.234421 147.845047
v 178.144150 130.871307 134.833511
v 189.863556 126.605026 144.512604
v 168.152252 135.801895 147.227478
v 199.760437 131.835922 135.815964
v 198.045563 146.329529 135.461365
v 198.022446 141.787277 132.720444
v 168.760834 138.168045 135.342087
v 171.990982 139.058365 148.156281
v 193.966003 146.411774 134.495132
v 196.000061 132.853836 132.165146
v 169.281464 125.639114 149.748764
v 197.999542 128.422729 141.403687
v 197.743790 128.201324 143.542725
v 191.854980 135.610748 146.466888
v 175.983185 140.346313 147.851242
v 201.691971 141.911972 135.527847
v 179.902054 129.987198 136.768326
v 190.418549 129.710510 147.969238
v 169.989883 128.324707 141.391861
v 181.953064 125.372162 147.480789
v 178.144562 133.639496 131.844696
v 169.817703 125.942986 147.647537
v 176.092911 146.121124 136.836655
v 188.094360 125.662079 149.809235
v 178.143921 130.041840 149.914597
v 178.144135 129.089722 138.822281
v 166.787659 144.466995 137.798096
v 198.126663 133.633133 143.545120
v 190.347733 125.169800 149.335663
v 171.994217 126.166664 145.575333
v 169.178436 131.518433 148.107834
v 188.111084 135.661316 147.495010
v 169.259903 126.442383 146.652267
v 181.960693 133.462326 148.936401
v 191.914886 130.876038 134.835892
v 168.811386 139.749283 134.565094
v 176.092896 129.089798 138.822327
v 186.054947 128.579971 139.976410
v 196.311539 129.358246 145.508850
v 178.144028 145.707031 138.519531
v 183.992905 127.466591 150.176849
v 167.109314 137.619766 141.716354
# 809 vertices, 0 vertices normals

f 645 152 363
f 29 628 250
f 645 426 152
f 144 333 275
f 638 65 730
f 11 336 585
f 276 259 767
f 673 257 401
f 452 336 135
f 52 91 361
f 76 52 361
f 755 20 541
f 803 203 305
f 107 563 50
f 63 219 435
f 667 362 526
f 343 675 420
f 782 445 628
f 131 123 210
f 785 652 362
f 521 542 623
f 724 370 136
f 380 714 809
f 72 199 135
f 131 328 311
f 515 433 482
f 288 543 755
f 165 395 610
f 456 44 650
f 264 693 512
f 59 410 328
f 128 72 783
f 757 124 554
f 418 462 83
f 249 529 607
f 668 727 170
f 551 301 353
f 205 769 731
f 808 425 345
f 685 637 12
f 607 206 494
f 587 647 292
f 378 322 68
f 465 159 120
f 544 356 772
f 169 16 508
f 122 605 188
f 309 442 350
f 318 474 277
f 475 586 109
f 734 289 151
f 102 435 503
f 17 241 798
f 114 228 510
f 454 725 651
f 670 147 756
f 49 552 433
f 807 705 528
f 255 782 628
f 67 485 756
f 83 343 708
f 492 312 191
f 488 499 626
f 702 201 718
f 307 460 260
f 171 252 215
f 653 161 568
f 398 536 283
f 430 489 305
f 131 30 595
f 235 525 184
f 628 466 250
f 513 506 353
f 112 633 683
f 402 594 760
f 634 86 376
f 323 630 599
f 388 316 561
f 517 778 752
f 572 335 159
f 301 513 353
f 734 151 374
f 576 565 129
f 586 148 423
f 545 265 550
f 556 768 618
f 410 233 364
f 142 461 88
f 752 347 702
f 627 700 619
f 147 211 294
f 720 477 447
f 636 49 524
f 733 581 40
f 721 769 205
f 745 656 386
f 744 654 692
f 672 42 713
f 490 269 230
f 433 740 525
f 712 141 537
f 610 395 373
f 629 807 740
f 502 122 48
f 791 519 310
f 569 28 370
f 168 381 32
f 446 126 715
f 293 56 513
f 134 418 83
f 673 736 257
f 464 76 473
f 303 254 666
f 355 689 480
f 129 567 560
f 95 241 540
f 382 722 160
f 55 168 590
f 753 229 385
f 416 446 715
f 163 474 559
f 259 668 340
f 445 183 374
f 592 194 583
f 170 218 141
f 781 37 186
f 402 166 594
f 391 150 248
f 408 595 156
f 387 134 786
f 603 648 771
f 280 540 574
f 490 643 269
f 560 547 291
f 713 545 145
f 445 374 466
f 415 499 506
f 750 388 591
f 430 329 389
f 448 491 16
f 523 642 102
f 434 459 555
f 330 203 588
f 466 374 151
f 774 803 305
f 391 248 330
f 38 716 112
f 109 586 776
f 89 746 116
f 235 231 643
f 225 457 638
f 734 578 670
f 496 723 337
f 502 122 603
f 543 167 449
f 456 758 44
f 47 448 169
f 587 417 647
f 488 108 506
f 272 477 720
f 65 390 730
f 679 115 615
f 755 541 375
f 18 562 448
f 656 714 380
f 85 2 660
f 4 676 352
f 244 2 334
f 576 129 28
f 699 154 759
f 428 474 138
f 802 743 258
f 298 683 304
f 117 531 85
f 424 161 653
f 59 408 51
f 40 383 479
f 103 707 495
f 493 373 143
f 291 493 399
f 662 263 381
f 126 612 143
f 62 490 230
f 641 429 736
f 605 431 188
f 239 315 386
f 125 348 34
f 25 268 208
f 302 646 298
f 709 101 630
f 327 553 7
f 459 763 726
f 232 118 124
f 405 698 785
f 47 169 581
f 320 58 424
f 317 414 665
f 765 682 158
f 46 530 5
f 773 172 149
f 773 149 119
f 607 741 1
f 349 421 690
f 6 729 142
f 808 345 439
f 368 440 686
f 51 407 615
f 262 767 340
f 281 309 350
f 72 223 199
f 312 417 587
f 805 299 492
f 162 565 576
f 131 210 30
f 781 376 31
f 260 460 57
f 639 775 723
f 448 562 491
f 127 691 217
f 691 494 397
f 617 125 34
f 726 684 207
f 17 456 241
f 253 316 388
f 264 605 43
f 511 381 263
f 551 240 177
f 797 462 418
f 795 24 465
f 461 729 484
f 271 189 626
f 242 518 33
f 429 747 614
f 766 757 793
f 4 506 513
f 314 796 273
f 412 707 739
f 158 682 664
f 333 187 275
f 388 561 591
f 403 592 149
f 582 593 729
f 708 343 125
f 428 677 153
f 473 325 182
f 674 472 336
f 635 70 183
f 267 173 695
f 412 739 608
f 129 560 416
f 341 589 299
f 322 333 144
f 176 432 737
f 180 640 256
f 673 139 631
f 83 462 343
f 708 125 617
f 700 547 619
f 202 107 379
f 458 482 525
f 387 786 98
f 667 526 360
f 144 275 600
f 774 261 444
f 626 189 770
f 148 279 527
f 465 507 159
f 572 738 455
f 24 507 465
f 657 111 794
f 745 701 714
f 122 188 48
f 178 706 475
f 50 563 405
f 585 472 194
f 401 257 195
f 254 644 327
f 382 483 76
f 735 349 342
f 502 344 122
f 589 45 742
f 246 686 534
f 373 512 693
f 89 92 746
f 717 261 411
f 190 32 381
f 691 397 217
f 770 189 758
f 617 332 761
f 54 248 150
f 517 702 718
f 543 449 20
f 236 314 9
f 16 158 508
f 207 771 648
f 88 501 213
f 227 162 81
f 251 569 370
f 363 152 471
f 488 132 14
f 721 110 769
f 373 693 172
f 421 744 692
f 61 135 72
f 560 291 446
f 570 705 599
f 574 500 577
f 639 671 276
f 178 720 706
f 368 686 246
f 535 592 583
f 558 280 347
f 59 51 596
f 243 634 376
f 468 561 658
f 15 120 138
f 642 435 102
f 95 46 798
f 700 84 547
f 304 724 562
f 103 240 391
f 748 87 267
f 140 631 139
f 412 495 707
f 524 49 515
f 102 479 101
f 673 401 139
f 240 308 150
f 608 696 495
f 311 790 123
f 796 406 273
f 293 301 727
f 626 499 415
f 766 204 757
f 449 158 664
f 75 36 398
f 456 650 133
f 40 581 309
f 259 340 767
f 544 744 421
f 9 721 205
f 77 288 97
f 349 544 421
f 570 383 281
f 745 386 371
f 392 709 688
f 470 232 204
f 456 133 241
f 809 14 132
f 553 252 171
f 522 300 675
f 14 146 108
f 34 804 332
f 239 516 346
f 740 807 184
f 702 92 201
f 419 536 138
f 50 796 310
f 355 407 111
f 516 584 542
f 566 377 322
f 219 60 733
f 699 67 704
f 464 473 621
f 471 792 174
f 432 41 737
f 176 737 369
f 580 207 700
f 95 358 66
f 155 796 314
f 576 28 569
f 719 258 237
f 377 590 333
f 101 427 630
f 733 60 47
f 82 471 662
f 590 168 32
f 487 243 573
f 762 155 21
f 555 726 580
f 119 592 535
f 221 68 73
f 641 631 687
f 562 413 491
f 221 73 797
f 59 518 410
f 681 407 156
f 779 226 318
f 40 479 503
f 539 35 362
f 601 354 77
f 428 153 559
f 704 67 270
f 197 624 406
f 64 255 29
f 605 48 188
f 502 153 122
f 426 672 71
f 249 494 568
f 245 787 187
f 254 327 652
f 137 582 738
f 717 685 331
f 355 480 679
f 171 215 806
f 85 725 454
f 304 251 724
f 142 729 461
f 88 213 674
f 306 200 557
f 44 496 337
f 754 436 324
f 315 371 386
f 458 490 62
f 306 687 200
f 46 17 798
f 28 416 715
f 369 737 450
f 10 74 36
f 365 418 694
f 657 391 330
f 800 564 789
f 768 244 58
f 472 654 194
f 644 613 327
f 756 799 270
f 554 663 385
f 537 367 636
f 805 341 299
f 49 433 515
f 93 756 485
f 123 790 629
f 96 385 663
f 491 234 765
f 326 705 807
f 545 22 265
f 224 205 731
f 734 374 338
f 116 69 577
f 430 305 579
f 276 671 352
f 341 655 589
f 420 470 348
f 432 157 737
f 515 482 625
f 565 777 567
f 320 424 91
f 399 143 612
f 763 684 726
f 608 681 156
f 94 732 660
f 73 68 522
f 218 696 505
f 703 775 767
f 743 627 258
f 586 423 776
f 518 233 410
f 130 246 457
f 146 353 506
f 789 546 365
f 44 758 189
f 84 610 493
f 659 791 197
f 113 403 149
f 164 666 121
f 615 571 290
f 643 604 319
f 206 760 397
f 245 253 787
f 96 224 105
f 454 651 296
f 6 142 61
f 741 533 284
f 181 41 780
f 4 352 671
f 4 56 676
f 487 294 243
f 480 394 185
f 502 603 771
f 293 676 56
f 603 104 395
f 254 652 785
f 293 513 301
f 555 580 743
f 54 329 248
f 591 561 118
f 372 80 484
f 257 307 260
f 14 308 240
f 253 236 316
f 731 769 87
f 91 424 788
f 36 74 795
f 326 323 599
f 249 607 494
f 534 504 390
f 507 137 572
f 686 504 534
f 196 50 519
f 257 260 195
f 590 187 333
f 784 660 2
f 680 687 631
f 104 512 395
f 669 502 287
f 136 720 178
f 575 606 227
f 550 469 414
f 703 255 64
f 221 378 68
f 611 256 582
f 229 191 117
f 737 806 41
f 639 276 775
f 694 418 134
f 655 598 434
f 448 16 169
f 772 527 194
f 228 801 154
f 282 532 42
f 266 371 384
f 450 737 181
f 122 278 605
f 400 515 625
f 229 117 732
f 717 331 764
f 123 629 552
f 731 87 748
f 321 359 5
f 721 273 110
f 803 588 203
f 511 439 762
f 229 732 385
f 179 62 437
f 294 754 634
f 44 337 650
f 502 48 344
f 95 540 358
f 527 26 194
f 703 767 262
f 572 455 335
f 497 556 618
f 303 799 644
f 446 399 612
f 533 227 284
f 447 773 441
f 233 688 364
f 566 322 378
f 46 623 17
f 563 698 405
f 679 680 140
f 246 534 457
f 275 787 750
f 423 527 772
f 235 184 231
f 778 558 752
f 451 61 72
f 11 585 194
f 268 611 478
f 783 72 135
f 339 369 173
f 96 753 385
f 538 749 10
f 326 599 705
f 578 437 670
f 98 620 295
f 635 183 445
f 526 209 157
f 615 115 571
f 256 593 582
f 220 192 371
f 685 464 331
f 331 464 621
f 122 344 48
f 383 309 281
f 522 600 300
f 163 669 474
f 579 203 248
f 10 24 795
f 85 531 725
f 135 223 336
f 253 21 236
f 783 135 11
f 430 579 248
f 408 328 595
f 250 759 154
f 406 539 362
f 806 75 41
f 152 71 792
f 107 510 563
f 101 479 427
f 382 76 12
f 67 756 270
f 657 794 608
f 292 575 3
f 6 738 729
f 6 451 498
f 761 497 297
f 614 697 307
f 668 351 340
f 788 653 127
f 330 248 203
f 401 285 139
f 757 94 793
f 24 478 507
f 736 614 307
f 532 22 545
f 61 452 135
f 745 192 701
f 734 670 289
f 641 673 631
f 533 575 227
f 363 471 82
f 517 718 778
f 11 135 336
f 271 639 496
f 472 13 481
f 95 66 564
f 502 559 153
f 467 177 240
f 167 508 449
f 193 476 148
f 41 283 780
f 679 480 680
f 88 461 501
f 389 198 489
f 27 321 564
f 116 577 632
f 268 180 256
f 498 451 43
f 695 450 711
f 191 312 587
f 10 795 74
f 678 139 285
f 27 365 694
f 337 723 42
f 179 482 458
f 140 678 115
f 296 249 568
f 630 427 599
f 45 743 802
f 780 283 212
f 197 406 796
f 384 371 315
f 541 735 453
f 443 485 67
f 384 295 160
f 803 444 185
f 742 45 802
f 717 549 685
f 809 714 54
f 437 211 147
f 756 147 487
f 459 726 555
f 567 547 560
f 633 313 569
f 113 693 128
f 202 469 114
f 342 690 640
f 296 161 334
f 744 772 194
f 715 126 477
f 454 296 334
f 581 169 442
f 565 567 129
f 607 529 741
f 477 126 447
f 284 81 106
f 670 437 147
f 613 781 186
f 112 106 633
f 377 55 590
f 359 98 53
f 66 280 558
f 279 26 527
f 225 514 31
f 228 154 699
f 706 441 193
f 259 352 676
f 81 313 106
f 316 9 658
f 365 797 418
f 535 438 279
f 786 83 708
f 458 235 490
f 430 248 329
f 375 453 504
f 390 640 180
f 680 631 140
f 634 130 86
f 277 474 287
f 598 459 434
f 808 665 425
f 90 709 392
f 207 616 700
f 152 792 471
f 39 351 712
f 6 498 455
f 504 453 390
f 505 156 595
f 264 43 128
f 761 295 620
f 521 346 542
f 454 334 2
f 236 155 314
f 242 233 518
f 296 568 161
f 531 587 292
f 604 97 319
f 764 331 621
f 238 79 609
f 542 584 770
f 377 333 322
f 54 150 308
f 202 114 107
f 282 703 64
f 543 20 755
f 271 626 671
f 218 505 367
f 491 413 234
f 177 727 301
f 130 457 225
f 215 36 806
f 364 688 323
f 541 286 735
f 640 372 256
f 357 363 82
f 231 601 604
f 41 75 283
f 251 370 724
f 311 328 410
f 90 523 709
f 43 188 431
f 436 130 324
f 701 192 389
f 73 675 462
f 40 309 383
f 476 279 148
f 122 104 603
f 429 614 736
f 617 761 620
f 348 204 766
f 793 784 175
f 403 11 194
f 86 31 376
f 89 378 274
f 573 243 781
f 231 184 528
f 300 404 470
f 400 625 338
f 193 441 476
f 794 111 681
f 605 188 43
f 716 106 112
f 135 336 13
f 583 26 438
f 8 241 133
f 656 380 239
f 633 569 251
f 259 676 668
f 416 560 446
f 27 694 321
f 689 803 394
f 90 392 285
f 99 53 98
f 145 550 317
f 206 402 760
f 724 136 413
f 297 483 382
f 784 2 244
f 432 737 41
f 737 41 181
f 609 779 318
f 401 195 90
f 113 783 403
f 277 287 684
f 117 191 531
f 491 765 16
f 170 177 218
f 488 506 499
f 390 342 640
f 31 514 538
f 113 149 693
f 756 487 799
f 114 510 107
f 366 171 806
f 183 400 338
f 359 694 134
f 282 42 723
f 89 566 378
f 261 305 411
f 752 558 347
f 804 793 175
f 790 326 629
f 222 549 649
f 242 392 233
f 436 246 130
f 82 662 168
f 312 742 417
f 458 525 235
f 332 804 556
f 691 568 494
f 602 214 661
f 757 554 94
f 809 308 14
f 778 718 19
f 717 23 549
f 743 580 627
f 128 43 72
f 345 196 519
f 97 440 368
f 88 674 452
f 441 119 476
f 176 526 432
f 690 421 80
f 500 645 363
f 692 213 501
f 72 431 199
f 126 143 172
f 208 24 751
f 316 236 9
f 668 170 351
f 22 29 393
f 115 290 571
f 652 327 7
f 288 755 440
f 411 305 489
f 688 630 323
f 443 759 151
f 318 226 419
f 63 57 594
f 350 442 167
f 700 616 84
f 536 15 138
f 303 644 254
f 457 534 65
f 563 164 698
f 122 48 605
f 597 91 788
f 706 447 441
f 204 232 124
f 170 141 351
f 782 635 445
f 601 77 604
f 63 594 166
f 659 796 155
f 712 70 635
f 347 280 746
f 523 101 709
f 360 369 339
f 239 380 516
f 597 788 214
f 157 366 737
f 219 733 503
f 518 596 33
f 745 371 192
f 245 187 32
f 583 194 26
f 34 348 766
f 548 216 356
f 12 76 464
f 103 657 707
f 370 28 272
f 279 438 26
f 306 641 687
f 647 719 606
f 521 5 53
f 7 171 366
f 99 98 315
f 293 727 676
f 609 277 763
f 164 728 303
f 708 617 620
f 42 532 713
f 110 360 339
f 336 223 13
f 20 286 541
f 23 489 198
f 219 302 60
f 222 722 549
f 537 524 70
f 258 777 237
f 389 192 198
f 632 357 55
f 443 289 670
f 580 700 627
f 341 267 655
f 346 516 542
f 669 287 474
f 247 354 601
f 598 711 238
f 85 454 2
f 271 671 639
f 214 127 747
f 174 665 263
f 417 719 647
f 704 303 728
f 214 788 127
f 51 615 290
f 122 153 278
f 162 237 565
f 618 768 320
f 84 165 610
f 275 187 787
f 675 300 420
f 299 589 742
f 795 15 398
f 79 780 779
f 230 269 436
f 704 728 164
f 753 805 492
f 621 557 200
f 291 84 493
f 195 260 642
f 86 225 31
f 404 591 232
f 553 186 252
f 753 492 229
f 626 422 671
f 701 329 54
f 614 217 697
f 182 361 597
f 231 528 601
f 778 66 558
f 428 138 120
f 16 765 158
f 791 310 197
f 6 455 738
f 468 663 118
f 421 692 80
f 578 625 179
f 27 564 800
f 733 40 503
f 764 185 444
f 355 615 407
f 466 151 759
f 173 450 695
f 683 251 304
f 247 601 528
f 764 621 200
f 720 447 706
f 197 310 796
f 170 727 177
f 460 760 594
f 537 141 367
f 603 395 648
f 468 224 96
f 125 420 348
f 711 181 79
f 596 290 115
f 265 393 801
f 578 179 437
f 684 771 207
f 648 395 165
f 98 384 315
f 135 13 223
f 617 34 332
f 375 541 453
f 129 416 28
f 39 340 351
f 104 605 264
f 511 263 808
f 790 323 326
f 103 495 467
f 276 767 775
f 113 128 783
f 529 533 741
f 166 646 302
f 426 71 152
f 270 303 710
f 476 119 535
f 354 100 77
f 638 622 25
f 274 378 221
f 531 292 725
f 678 33 596
f 81 162 576
f 9 205 658
f 190 762 21
f 87 339 173
f 683 633 251
f 786 620 98
f 777 619 567
f 697 760 460
f 785 362 35
f 228 704 510
f 179 458 62
f 190 511 762
f 685 549 637
f 102 503 479
f 273 406 667
f 31 538 396
f 622 463 268
f 55 82 168
f 47 18 448
f 628 445 466
f 266 220 371
f 45 555 743
f 735 548 349
f 211 230 754
f 264 128 693
f 698 121 254
f 3 575 533
f 537 636 524
f 342 349 690
f 440 375 686
f 689 111 588
f 749 25 208
f 284 106 716
f 607 1 206
f 222 198 220
f 218 177 696
f 686 375 504
f 704 270 710
f 529 3 533
f 7 553 171
f 498 43 605
f 23 411 489
f 164 121 698
f 311 410 364
f 786 708 620
f 238 763 459
f 345 379 107
f 761 332 497
f 166 38 646
f 100 543 288
f 126 172 773
f 674 213 472
f 488 14 108
f 669 559 502
f 117 660 732
f 260 57 642
f 446 291 399
f 780 212 779
f 185 200 687
f 79 779 609
f 664 682 216
f 475 706 193
f 677 120 335
f 508 158 449
f 8 645 500
f 95 798 241
f 762 439 659
f 134 83 786
f 10 749 24
f 127 217 747
f 636 367 30
f 297 382 160
f 89 274 92
f 146 506 108
f 70 400 183
f 521 623 46
f 148 527 423
f 147 294 487
f 636 210 49
f 63 302 219
f 105 731 748
f 20 449 664
f 781 31 396
f 774 444 803
f 692 654 213
f 163 559 669
f 96 105 753
f 10 36 215
f 611 582 137
f 792 317 174
f 409 23 198
f 649 549 409
f 637 722 12
f 402 1 38
f 626 770 584
f 43 431 72
f 206 1 402
f 742 802 417
f 425 414 202
f 247 705 570
f 51 290 596
f 413 136 178
f 8 540 241
f 551 14 240
f 562 724 413
f 361 91 597
f 235 643 490
f 214 747 661
f 319 368 436
f 252 10 215
f 267 695 655
f 140 139 678
f 453 735 342
f 544 772 744
f 210 123 552
f 60 298 18
f 653 568 691
f 127 653 691
f 76 325 473
f 262 340 39
f 27 789 365
f 502 771 287
f 726 207 580
f 453 342 390
f 218 367 141
f 365 546 797
f 297 160 295
f 748 267 341
f 142 88 452
f 564 66 19
f 659 197 796
f 408 156 407
f 514 25 749
f 256 372 593
f 355 111 689
f 39 712 635
f 548 544 349
f 792 145 317
f 336 481 13
f 467 495 696
f 505 595 30
f 626 415 422
f 582 729 738
f 443 93 485
f 15 465 120
f 286 548 735
f 258 627 777
f 684 287 771
f 209 366 157
f 655 434 589
f 145 545 550
f 434 555 45
f 380 809 132
f 209 7 366
f 711 79 238
f 283 536 212
f 704 710 303
f 428 559 474
f 538 10 509
f 564 19 789
f 733 47 581
f 616 648 165
f 172 693 149
f 276 352 259
f 197 796 624
f 124 663 554
f 493 610 373
f 450 181 711
f 552 629 740
f 190 381 511
f 94 660 784
f 356 423 772
f 50 405 796
f 500 363 357
f 392 688 233
f 505 696 156
f 266 384 160
f 282 64 532
f 769 339 87
f 740 184 525
f 467 696 177
f 136 272 720
f 405 539 406
f 406 362 667
f 168 662 381
f 526 157 432
f 36 795 398
f 761 297 295
f 63 435 57
f 393 250 154
f 566 632 377
f 268 256 611
f 133 426 645
f 119 149 592
f 274 546 201
f 682 776 216
f 519 50 310
f 608 794 681
f 306 661 429
f 600 275 750
f 521 53 99
f 799 487 573
f 306 429 641
f 797 73 462
f 39 635 782
f 64 29 22
f 186 509 252
f 642 57 435
f 666 254 121
f 72 135 223
f 753 105 805
f 175 784 244
f 593 484 729
f 14 353 146
f 231 604 643
f 425 202 379
f 652 7 209
f 243 376 781
f 796 406 624
f 34 766 804
f 185 687 680
f 399 493 143
f 345 107 196
f 793 94 784
f 637 549 722
f 643 319 269
f 76 361 325
f 110 667 360
f 71 713 145
f 327 613 553
f 472 481 336
f 103 467 240
f 788 424 653
f 457 65 638
f 447 126 773
f 550 265 469
f 585 336 472
f 269 319 436
f 75 398 283
f 225 638 514
f 439 791 659
f 589 434 45
f 763 277 684
f 468 118 561
f 164 303 666
f 638 730 463
f 719 237 606
f 401 90 285
f 250 466 759
f 183 338 374
f 451 72 43
f 627 619 777
f 103 391 657
f 554 732 94
f 311 364 790
f 621 473 557
f 1 716 38
f 84 616 165
f 58 161 424
f 417 802 719
f 261 764 444
f 483 618 52
f 6 61 451
f 697 397 760
f 266 160 722
f 510 164 563
f 437 62 211
f 552 740 433
f 535 583 438
f 538 514 749
f 373 395 512
f 131 595 328
f 685 12 464
f 747 217 614
f 107 50 196
f 234 109 765
f 488 626 584
f 59 328 408
f 38 112 646
f 62 230 211
f 190 245 32
f 430 389 489
f 774 305 261
f 314 273 721
f 70 524 400
f 219 503 435
f 393 154 801
f 71 145 792
f 655 695 598
f 650 672 426
f 713 532 545
f 468 658 224
f 239 346 315
f 542 770 623
f 689 588 803
f 278 455 498
f 220 198 192
f 606 237 162
f 109 776 682
f 229 492 191
f 750 787 388
f 22 393 265
f 574 8 500
f 143 373 172
f 362 209 526
f 234 475 109
f 661 747 429
f 442 508 167
f 790 364 323
f 672 713 71
f 441 773 119
f 110 339 769
f 80 501 461
f 765 109 682
f 81 576 313
f 52 320 91
f 476 535 279
f 80 692 501
f 436 368 246
f 517 752 702
f 403 783 11
f 182 597 602
f 104 264 512
f 764 200 185
f 779 212 226
f 321 530 564
f 557 182 602
f 242 33 678
f 471 174 662
f 496 639 723
f 106 313 633
f 69 574 577
f 534 390 65
f 355 679 615
f 280 69 746
f 354 350 100
f 186 538 509
f 799 573 644
f 650 337 672
f 116 746 69
f 43 72 199
f 77 100 288
f 68 322 144
f 629 326 807
f 274 221 546
f 284 227 81
f 570 599 427
f 419 138 474
f 749 751 24
f 741 284 716
f 60 18 47
f 68 144 522
f 514 638 25
f 114 801 228
f 114 469 801
f 280 574 69
f 345 519 791
f 247 281 354
f 690 80 372
f 207 648 616
f 638 463 622
f 446 612 126
f 124 118 663
f 249 651 529
f 278 498 605
f 89 116 566
f 17 623 758
f 443 670 93
f 702 347 92
f 370 272 136
f 578 338 625
f 43 199 431
f 372 484 593
f 242 678 285
f 226 212 419
f 195 642 523
f 169 508 442
f 97 288 440
f 644 573 613
f 766 793 804
f 806 36 75
f 175 244 768
f 505 30 367
f 234 178 475
f 600 750 404
f 636 30 210
f 734 338 578
f 745 714 656
f 600 404 300
f 44 189 496
f 488 584 132
f 299 742 312
f 63 166 302
f 741 716 1
f 511 808 439
f 17 758 456
f 173 369 450
f 217 397 697
f 422 415 506
f 781 396 538
f 462 675 343
f 98 295 384
f 750 591 404
f 754 324 634
f 297 497 483
f 142 452 61
f 749 208 751
f 390 180 730
f 73 522 675
f 657 739 707
f 181 780 79
f 321 5 530
f 354 281 350
f 278 335 455
f 483 52 76
f 646 683 298
f 8 133 645
f 689 394 480
f 296 651 249
f 4 513 56
f 298 304 18
f 641 736 673
f 130 225 86
f 137 738 572
f 382 12 722
f 117 85 660
f 570 427 383
f 317 550 414
f 478 611 137
f 803 185 394
f 802 258 719
f 432 157 78
f 613 186 553
f 228 699 704
f 193 148 586
f 608 156 696
f 577 500 357
f 190 21 245
f 135 199 223
f 730 268 463
f 521 46 5
f 717 411 23
f 551 353 14
f 574 540 8
f 805 748 341
f 20 664 286
f 475 193 586
f 551 177 301
f 210 552 49
f 174 317 665
f 573 781 613
f 781 538 37
f 202 414 469
f 28 715 272
f 29 250 393
f 230 436 754
f 359 53 5
f 216 776 356
f 100 167 543
f 294 634 243
f 120 159 335
f 808 263 665
f 227 606 162
f 712 351 141
f 307 697 460
f 319 97 368
f 433 525 482
f 425 665 414
f 698 254 785
f 556 175 768
f 554 385 732
f 245 21 253
f 762 659 155
f 266 222 220
f 718 789 19
f 413 178 234
f 776 423 356
f 232 591 118
f 473 182 557
f 343 420 125
f 547 84 291
f 262 782 255
f 191 587 531
f 725 3 651
f 286 664 216
f 266 722 222
f 432 78 41
f 804 175 556
f 402 38 166
f 4 422 506
f 208 478 24
f 768 58 320
f 247 528 705
f 332 556 497
f 651 3 529
f 383 427 479
f 522 144 600
f 703 262 255
f 357 82 55
f 321 694 359
f 730 180 268
f 577 357 632
f 439 345 791
f 521 99 346
f 122 605 104
f 425 379 345
f 316 658 561
f 679 140 115
f 405 35 539
f 21 155 236
f 701 54 714
f 59 596 518
f 548 356 544
f 717 764 261
f 497 618 483
f 244 334 58
f 9 314 721
f 579 305 203
f 662 174 263
f 282 775 703
f 557 602 661
f 253 388 787
f 387 359 134
f 492 299 312
f 412 608 495
f 737 366 806
f 116 632 566
f 736 307 257
f 153 335 278
f 516 132 584
f 632 55 377
f 778 19 66
f 80 461 484
f 360 176 369
f 212 536 419
f 658 205 224
f 238 609 763
f 468 96 663
f 605 43 431
f 807 528 184
f 280 358 540
f 712 537 70
f 510 704 164
f 4 671 422
f 699 443 67
f 255 628 29
f 270 799 303
f 247 570 281
f 472 336 13
f 656 239 386
f 348 470 204
f 657 608 739
f 179 625 482
f 604 77 97
f 725 292 3
f 387 98 359
f 380 132 516
f 206 397 494
f 670 756 93
f 649 409 198
f 302 298 60
f 362 652 209
f 452 674 336
f 262 39 782
f 66 358 280
f 95 564 530
f 809 54 308
f 647 606 575
f 668 676 727
f 677 335 153
f 286 216 548
f 405 785 35
f 646 112 683
f 242 285 392
f 581 442 309
f 567 619 547
f 306 557 661
f 623 770 758
f 795 465 15
f 237 777 565
f 440 755 375
f 324 130 634
f 443 151 289
f 403 194 592
f 523 102 101
f 105 748 805
f 27 800 789
f 576 569 313
f 709 630 688
f 618 320 52
f 598 238 459
f 90 195 523
f 509 10 252
f 87 173 267
f 532 64 22
f 699 759 443
f 398 15 536
f 460 594 57
f 95 530 46
f 131 311 123
f 681 111 407
f 282 723 775
f 409 549 23
f 796 405 406
f 360 526 176
f 99 315 346
f 701 389 329
f 640 690 372
f 25 622 268
f 274 201 92
f 318 419 474
f 221 797 546
f 609 318 277
f 271 496 189
f 428 120 677
f 602 597 214
f 186 37 538
f 272 715 477
f 265 801 469
f 273 667 110
f 432 41 78
f 432 78 157
f 100 350 167
f 18 304 562
f 524 515 400
f 678 596 115
f 590 32 187
f 470 404 232
f 408 407 51
f 211 754 294
f 478 137 507
f 391 240 150
f 268 478 208
f 472 213 654
f 292 647 575
f 337 42 672
f 507 572 159
f 224 731 105
f 744 194 654
f 657 330 588
f 133 650 426
f 347 746 92
f 182 325 361
f 420 300 470
f 480 185 680
f 222 649 198
f 657 588 111
f 789 201 546
f 204 124 757
f 695 711 598
f 58 334 161
f 718 201 789
# 1628 faces, 0 coords texture

# End of File