####
#
# OBJ File Generated by Meshlab
#
####
# Object domain080.obj
#
# Vertices: 254
# Faces: 509
#
####
v 191.966324 152.502853 113.582787
v 187.962616 148.409088 113.257149
v 190.120468 143.427872 115.860748
v 175.823273 154.206024 112.051521
v 178.435394 150.549088 117.800278
v 180.130997 151.246750 118.137268
v 188.106613 148.236877 120.322433
v 183.983536 154.239014 112.096092
v 173.562012 146.495255 111.923042
v 184.029877 148.264694 120.168541
v 185.684052 154.576920 112.204399
v 198.524551 151.896530 117.995430
v 193.763382 154.048248 113.981628
v 182.075760 144.257858 118.670776
v 178.492584 148.399750 116.930542
v 186.454468 141.996124 119.611328
v 190.157074 148.237305 120.327049
v 176.670471 152.367996 114.035072
v 192.205841 148.230225 120.280563
v 177.864395 154.517288 112.376518
v 181.775833 150.488190 111.800667
v 186.078171 144.174149 120.263077
v 177.851028 154.199707 112.055252
v 195.155380 146.952347 116.085312
v 174.449448 154.314056 112.032959
v 193.124313 154.124863 113.778603
v 179.892380 150.324936 111.690514
v 188.120163 141.862152 119.059052
v 185.842957 146.738174 113.463326
v 174.601685 152.388962 112.091835
v 183.999405 144.318832 114.687881
v 194.240921 150.326248 114.500343
v 180.116714 148.349182 118.655380
v 188.082397 144.189590 115.086197
v 185.743378 154.639145 112.227676
v 186.073395 142.612137 117.188972
v 181.910995 148.291550 112.276802
v 188.090607 152.463150 112.738464
v 183.023209 148.920334 119.983124
v 192.207214 149.990067 119.793060
v 181.955078 153.901047 114.712730
v 177.884369 150.554840 116.982651
v 180.058731 150.279648 118.562752
v 196.953156 150.459259 119.452507
v 175.827789 154.317886 112.195091
v 192.129181 141.866241 119.138962
v 179.925247 146.310989 112.807022
v 197.117035 149.042007 117.733093
v 194.516464 143.820251 119.295143
v 193.894730 144.269592 119.797981
v 188.112167 142.307220 119.945389
v 190.151657 141.844589 119.052887
v 178.012573 151.213272 117.647202
v 180.949356 149.013550 111.957703
v 196.396042 148.258011 119.303558
v 175.739746 152.348343 113.161667
v 177.851028 150.322388 111.657181
v 190.132202 146.203629 114.350708
v 196.877609 149.863998 119.558090
v 175.711182 147.136414 112.114670
v 184.016602 151.225571 118.884033
v 183.450409 146.127182 119.829384
v 193.701569 144.474533 116.047546
v 179.979355 146.245163 118.389511
v 178.116455 153.412033 114.337830
v 181.951477 154.201660 112.073303
v 192.863297 150.054062 114.046715
v 190.684753 147.567047 114.041328
v 182.126465 143.613312 115.828621
v 188.202759 145.904495 114.167450
v 190.152512 142.543762 117.171150
v 179.928619 153.768280 114.631073
v 194.462524 143.498779 118.159363
v 174.596405 150.262878 112.073318
v 192.174606 142.256470 119.941582
v 195.646408 148.517685 119.777031
v 190.157776 152.570724 116.956314
v 192.175262 142.686554 117.252365
v 181.552383 145.306351 113.751350
v 197.632446 150.654205 117.350967
v 182.116959 144.298248 114.676796
v 182.008072 146.245743 113.005867
v 178.941833 146.422913 117.080757
v 192.207642 152.592834 116.967896
v 194.290680 153.985931 114.144737
v 190.159378 142.305405 119.955521
v 186.051987 143.381500 115.780594
v 175.844193 150.308380 111.773087
v 197.167877 152.494431 115.353294
v 188.114365 141.919464 119.607841
v 190.139526 152.190201 113.360161
v 186.216324 145.509201 114.068153
v 188.100784 143.393066 115.802101
v 194.251175 152.543182 116.936333
v 192.020996 144.382843 115.431252
v 178.214874 151.678070 116.673332
v 190.179260 141.922119 119.605545
v 175.866867 154.072952 112.635284
v 182.061005 143.225418 117.171463
v 190.047668 150.409088 113.265121
v 179.042023 148.370865 117.840729
v 175.817871 148.303452 111.903770
v 176.600769 150.897293 114.102547
v 182.194122 143.407761 117.979378
v 183.980637 150.311218 112.156082
v 194.259033 151.226257 118.875221
v 177.405594 152.298782 114.790016
v 188.106812 152.603821 116.971626
v 182.095856 151.159683 118.731873
v 186.054672 152.618164 116.978935
v 192.991394 143.639816 116.185913
v 177.745926 145.983047 112.938568
v 193.274551 154.107086 113.826675
v 174.584457 150.324417 112.077766
v 180.870422 143.544357 117.700836
v 186.053665 153.853302 114.578453
v 184.006027 154.619507 112.380554
v 177.102768 151.420044 117.888481
v 186.055374 151.241013 118.888397
v 196.294434 151.181610 118.882324
v 192.148849 143.506546 116.045998
v 184.338882 146.329437 120.101227
v 181.959732 152.565033 116.941620
v 179.900421 152.349625 111.658546
v 192.281036 146.126602 114.899651
v 180.448059 144.465912 117.891418
v 188.112061 153.622192 114.607933
v 186.064774 146.209518 120.363441
v 174.454880 154.336670 112.024223
v 180.023911 144.385559 117.042915
v 197.465622 150.462906 119.153221
v 194.395187 144.012589 116.990364
v 194.275269 149.979797 119.740486
v 184.530487 142.978210 118.975449
v 177.897141 154.484375 112.763283
v 180.441925 145.050079 114.732712
v 195.332779 146.478363 119.043495
v 179.111084 145.810623 116.262039
v 183.129440 147.931961 119.961739
v 179.865585 147.863495 112.178467
v 194.276596 148.232635 115.064362
v 177.118393 150.260880 114.678566
v 192.194199 146.207764 120.348289
v 179.762100 148.742722 111.914436
v 196.127090 150.393585 115.379074
v 183.999680 150.038803 119.816902
v 197.048325 152.639587 115.283829
v 174.724747 148.157104 112.071190
v 194.371811 152.323471 114.228203
v 183.297913 151.308273 111.885620
v 186.127441 148.214203 113.028435
v 177.865723 145.659393 112.953003
v 178.624298 146.906494 114.587013
v 177.771164 146.264343 112.934631
v 181.789810 150.111877 119.336533
v 184.749084 144.195923 120.001396
v 182.709824 150.137512 119.697197
v 177.789734 146.154007 112.938194
v 188.107498 144.166107 120.374916
v 178.621765 146.906876 114.581505
v 190.156982 151.240433 118.886261
v 175.840363 152.348053 111.788811
v 176.732422 149.517120 113.817345
v 181.867584 148.224640 119.485023
v 184.112259 142.950668 117.269859
v 186.047073 149.996490 119.804276
v 175.764801 150.284210 113.268074
v 194.411911 153.970245 114.188805
v 192.177475 148.295639 114.215439
v 187.974548 146.946365 113.706230
v 186.176361 142.065536 119.081001
v 193.376495 152.567474 113.880135
v 177.894302 145.918579 112.949059
v 174.730377 148.203339 112.065788
v 188.180054 150.224915 112.959671
v 181.883438 146.188919 119.182343
v 184.010147 153.906876 114.706192
v 190.156464 146.206635 120.461281
v 193.841034 143.145432 117.634415
v 195.543793 146.372314 117.114105
v 184.555283 151.805679 112.005913
v 189.194839 147.218948 113.826500
v 177.110947 151.398178 117.887955
v 193.292969 142.595352 119.679893
v 188.105438 149.993851 119.800781
v 194.098694 146.306763 119.917419
v 186.060150 148.236588 120.280571
v 184.890579 145.333344 114.012787
v 194.963455 144.430542 118.939682
v 191.466888 148.990585 113.866081
v 185.120331 143.051437 119.774384
v 192.034409 150.480804 113.729836
v 175.753830 148.329895 112.650482
v 174.653656 154.356781 112.072571
v 177.853622 152.350052 111.650024
v 195.029343 144.617386 117.649597
v 194.199356 148.258148 120.116951
v 177.638443 148.314865 111.977112
v 192.207886 151.233917 118.881721
v 174.609207 152.426651 112.081406
v 196.891724 150.104614 116.227280
v 183.990723 148.284851 112.654861
v 185.019791 153.059372 112.010063
v 179.311356 145.626328 117.483521
v 182.574173 149.688980 112.059723
v 173.561218 146.494598 111.926758
v 186.038239 152.468674 112.285110
v 198.573929 151.891907 117.991676
v 186.056854 150.307434 112.536934
v 190.156845 149.992523 119.798012
v 187.162827 154.534317 112.718452
v 176.922470 153.589172 113.566658
v 189.961090 153.097839 113.826019
v 196.480209 148.243942 117.076706
v 183.970001 154.634262 112.875046
v 181.948227 154.628815 112.913300
v 196.366821 150.072998 119.785873
v 197.005539 149.058472 118.957741
v 194.107986 146.307022 115.518761
v 192.777252 142.015091 119.722511
v 184.008057 143.464432 115.796402
v 184.004959 152.631912 116.984047
v 190.066864 148.336548 113.659981
v 192.179886 144.171555 120.248802
v 195.687286 148.571960 115.741333
v 188.106842 146.206650 120.457832
v 188.106064 151.238358 118.884979
v 192.237778 141.790253 119.632912
v 198.524948 151.899399 117.987083
v 186.054794 144.147949 114.972816
v 183.912125 152.441589 111.838707
v 190.105682 144.200821 115.270241
v 193.680603 142.628281 119.166321
v 186.141373 142.364471 119.882988
v 196.340591 152.331100 116.861870
v 179.331894 146.212585 117.960114
v 173.513580 146.495178 111.928574
v 188.107697 142.516953 117.154243
v 181.958313 154.576553 112.393631
v 180.800674 143.548233 117.486938
v 179.903519 154.570770 112.394196
v 190.155441 144.165939 120.373810
v 196.313934 152.264618 114.957047
v 178.627823 146.896317 114.582771
v 176.775467 147.399185 112.129448
v 197.107452 151.332581 115.771706
v 179.961472 152.349350 116.793510
v 183.942383 146.343338 113.327400
v 190.212845 153.382324 114.558044
v 179.909622 154.594223 112.897881
v 183.765793 144.145798 119.475800
v 179.902100 154.205475 112.051804
v 181.942673 152.359940 111.736855
v 187.098343 154.538559 112.718834
# 254 vertices, 0 vertices normals

f 11 207 211
f 109 123 61
f 62 139 10
f 27 21 124
f 248 31 188
f 181 203 231
f 106 133 199
f 233 49 189
f 230 87 93
f 164 39 139
f 221 165 87
f 92 70 170
f 87 36 93
f 195 23 4
f 13 85 168
f 201 214 80
f 195 27 124
f 232 3 121
f 169 68 125
f 66 239 252
f 37 54 140
f 145 246 89
f 158 173 47
f 37 248 202
f 22 128 159
f 17 185 210
f 209 151 2
f 205 202 105
f 113 172 13
f 117 66 8
f 80 229 12
f 7 185 17
f 178 7 17
f 55 59 131
f 196 189 180
f 239 216 241
f 242 178 224
f 5 53 43
f 71 78 121
f 31 230 92
f 103 18 107
f 36 171 28
f 36 238 93
f 236 101 64
f 128 10 187
f 101 33 64
f 202 29 151
f 139 39 10
f 216 72 250
f 185 227 210
f 25 194 98
f 249 213 113
f 7 166 185
f 94 106 84
f 51 159 86
f 91 1 213
f 63 219 125
f 134 16 171
f 196 73 189
f 94 84 85
f 71 46 78
f 130 244 138
f 219 169 125
f 238 71 3
f 100 190 192
f 140 198 154
f 71 52 46
f 247 96 72
f 96 118 42
f 23 252 241
f 182 58 223
f 158 198 154
f 240 115 99
f 86 242 75
f 146 109 61
f 134 165 104
f 103 167 56
f 217 120 44
f 231 203 8
f 228 233 46
f 204 236 130
f 211 35 254
f 163 160 154
f 83 160 15
f 165 36 87
f 249 113 26
f 169 223 68
f 53 96 6
f 206 148 9
f 209 181 105
f 165 221 99
f 230 93 34
f 102 245 198
f 164 176 33
f 35 11 254
f 18 212 65
f 68 58 125
f 206 9 112
f 116 110 222
f 244 83 138
f 5 101 15
f 181 209 207
f 189 50 137
f 114 148 74
f 20 23 241
f 252 239 241
f 205 37 202
f 187 166 7
f 111 63 95
f 158 153 244
f 116 222 177
f 74 148 174
f 217 106 120
f 210 161 40
f 175 2 223
f 93 238 3
f 96 107 65
f 251 62 122
f 16 134 234
f 32 141 145
f 233 179 78
f 119 166 61
f 77 108 249
f 194 129 45
f 246 80 89
f 55 186 76
f 84 77 26
f 116 211 254
f 200 30 74
f 219 180 24
f 50 186 137
f 161 108 77
f 65 212 135
f 119 61 222
f 162 200 88
f 62 164 139
f 41 123 247
f 41 216 215
f 193 158 112
f 141 219 24
f 38 175 100
f 70 58 182
f 133 197 40
f 137 186 55
f 185 119 227
f 232 121 95
f 21 253 124
f 213 1 113
f 203 207 11
f 136 130 240
f 169 67 192
f 200 162 129
f 238 28 52
f 132 179 73
f 195 162 57
f 179 111 78
f 178 17 143
f 66 231 8
f 229 235 12
f 134 251 156
f 149 85 243
f 114 30 167
f 109 155 6
f 227 108 161
f 167 163 154
f 163 142 160
f 172 149 13
f 243 145 89
f 136 69 81
f 58 232 95
f 234 22 51
f 9 206 237
f 188 31 92
f 164 33 43
f 18 103 56
f 184 75 224
f 155 164 43
f 31 248 81
f 122 62 10
f 221 31 81
f 170 70 182
f 251 122 156
f 184 50 49
f 251 134 14
f 166 187 146
f 110 119 222
f 90 234 51
f 253 21 150
f 173 158 136
f 106 94 120
f 197 133 76
f 245 102 60
f 136 81 79
f 198 144 57
f 187 10 146
f 67 141 32
f 127 213 249
f 88 198 57
f 70 34 232
f 106 199 84
f 130 236 126
f 55 217 59
f 41 247 72
f 192 172 1
f 204 83 236
f 55 76 217
f 215 117 211
f 155 43 6
f 58 95 125
f 52 97 46
f 45 20 135
f 197 186 19
f 214 48 80
f 191 134 156
f 226 7 178
f 45 129 4
f 30 200 25
f 211 116 177
f 80 48 131
f 215 211 177
f 92 34 70
f 83 204 138
f 200 74 88
f 2 182 223
f 17 19 143
f 145 214 201
f 149 145 243
f 211 38 254
f 61 123 222
f 220 233 228
f 35 117 8
f 102 74 174
f 70 232 58
f 37 82 248
f 202 248 29
f 141 67 169
f 56 25 98
f 16 90 28
f 137 55 214
f 126 64 14
f 105 181 231
f 219 141 169
f 211 11 254
f 215 239 117
f 26 113 85
f 113 26 13
f 97 51 86
f 144 27 57
f 194 45 98
f 238 52 71
f 76 133 217
f 240 99 69
f 165 171 36
f 84 26 85
f 78 111 121
f 123 41 177
f 28 90 52
f 250 20 241
f 152 158 112
f 201 80 246
f 118 53 183
f 30 114 74
f 188 92 29
f 223 169 190
f 60 102 174
f 197 19 40
f 91 100 192
f 81 82 79
f 190 169 192
f 67 32 149
f 184 220 75
f 34 3 232
f 99 221 69
f 150 105 231
f 9 148 112
f 100 223 190
f 216 41 72
f 131 44 229
f 244 130 136
f 148 193 112
f 214 55 48
f 168 89 147
f 250 72 65
f 142 42 160
f 38 100 91
f 153 160 244
f 44 120 229
f 49 50 189
f 202 151 105
f 158 244 136
f 240 126 115
f 167 30 56
f 163 167 142
f 119 110 227
f 129 162 4
f 115 126 104
f 122 10 128
f 225 180 214
f 186 50 143
f 151 170 2
f 200 129 25
f 141 24 225
f 82 140 47
f 33 176 64
f 34 93 3
f 12 235 147
f 166 119 185
f 173 82 47
f 21 37 205
f 207 209 175
f 166 146 61
f 134 104 14
f 253 150 231
f 20 45 4
f 193 158 154
f 72 96 65
f 74 102 88
f 23 195 124
f 89 80 12
f 82 37 140
f 48 55 218
f 158 152 173
f 113 13 85
f 151 209 105
f 175 223 100
f 245 158 198
f 64 176 14
f 140 144 198
f 235 168 147
f 121 111 95
f 29 92 170
f 176 164 62
f 50 224 143
f 6 96 247
f 229 12 208
f 67 172 192
f 92 230 34
f 90 97 52
f 173 136 79
f 153 158 160
f 203 11 8
f 134 191 234
f 97 228 46
f 159 226 242
f 19 210 40
f 248 188 29
f 235 94 168
f 48 218 131
f 77 249 26
f 17 210 19
f 210 227 161
f 158 245 112
f 207 175 38
f 94 85 168
f 233 184 49
f 108 110 127
f 126 236 64
f 51 22 159
f 2 170 182
f 89 12 147
f 140 54 144
f 120 94 235
f 112 245 60
f 23 124 252
f 98 45 135
f 128 187 226
f 83 101 236
f 42 183 5
f 36 28 238
f 42 118 183
f 193 114 167
f 207 211 38
f 85 243 168
f 148 114 193
f 82 173 79
f 59 217 131
f 54 37 21
f 31 221 87
f 63 132 196
f 124 253 252
f 180 189 137
f 145 225 214
f 11 35 8
f 3 71 121
f 216 239 215
f 162 195 4
f 149 32 145
f 1 172 113
f 97 86 228
f 69 221 81
f 153 83 244
f 5 33 101
f 88 102 198
f 209 2 175
f 164 155 157
f 21 205 105
f 251 176 62
f 220 228 75
f 127 254 213
f 254 91 213
f 86 159 242
f 176 251 14
f 24 180 225
f 50 184 224
f 99 115 104
f 23 20 4
f 206 60 174
f 107 18 65
f 10 157 146
f 27 195 57
f 145 201 246
f 19 186 143
f 109 6 247
f 179 233 73
f 180 137 214
f 18 56 98
f 253 66 252
f 16 234 90
f 218 55 131
f 83 153 160
f 111 179 63
f 142 103 107
f 123 109 247
f 33 5 43
f 63 179 132
f 104 126 14
f 42 5 15
f 148 206 174
f 133 40 199
f 165 99 104
f 227 110 108
f 110 116 127
f 216 250 241
f 129 194 25
f 234 156 22
f 75 242 224
f 160 158 154
f 222 123 177
f 226 187 7
f 151 29 170
f 46 233 78
f 66 253 231
f 204 130 138
f 242 226 178
f 132 73 196
f 18 98 212
f 91 192 1
f 133 106 217
f 156 122 22
f 144 54 27
f 54 21 27
f 41 215 177
f 40 161 199
f 181 207 203
f 141 225 145
f 73 233 189
f 199 161 77
f 160 42 15
f 224 178 143
f 131 217 44
f 193 167 154
f 130 126 240
f 157 109 146
f 67 149 172
f 155 109 157
f 219 63 196
f 80 131 229
f 168 243 89
f 239 66 117
f 211 117 35
f 165 134 171
f 20 250 135
f 136 240 69
f 206 112 60
f 254 38 91
f 96 53 118
f 186 197 76
f 164 157 39
f 90 51 97
f 223 58 68
f 162 88 57
f 43 53 6
f 120 235 229
f 39 157 10
f 191 156 234
f 167 103 142
f 149 13 85
f 142 96 42
f 212 98 135
f 21 105 150
f 96 142 107
f 183 53 5
f 101 83 15
f 233 220 184
f 108 127 249
f 171 16 28
f 248 82 81
f 31 87 230
f 228 86 75
f 84 199 77
f 116 254 127
f 250 65 135
f 159 128 226
f 219 196 180
f 95 63 125
f 158 140 154
f 22 122 128
f 56 30 25
f 140 158 47
# 509 faces, 0 coords texture

# End of File