####
#
# OBJ File Generated by Meshlab
#
####
# Object Volume_027.obj
#
# Vertices: 846
# Faces: 1714
#
####
v 104.605789 222.679398 132.403030
v 118.120934 243.255051 132.303635
v 94.109428 218.841537 128.131516
v 110.105209 210.605240 123.071037
v 115.155220 214.728928 131.962921
v 106.945023 224.730927 122.500031
v 100.654175 201.663620 120.974533
v 108.995728 226.782089 122.517143
v 108.349670 200.196518 123.091629
v 111.046844 224.730911 132.495895
v 92.045441 200.620728 121.637527
v 113.398773 240.934753 128.309021
v 113.389236 241.126175 133.326843
v 100.499382 239.184357 125.785324
v 96.401581 206.559021 121.628502
v 96.175835 230.935898 123.494324
v 94.467766 224.699753 126.840630
v 113.236610 234.952545 123.050537
v 96.411507 232.938034 127.545883
v 115.427132 234.993912 132.414825
v 95.083153 232.942429 126.499588
v 112.738724 222.690430 123.214470
v 111.002625 218.875046 122.761848
v 96.467079 237.053513 128.202011
v 114.709679 220.898422 126.255234
v 115.017044 224.789230 126.218819
v 109.600784 200.037491 121.756271
v 108.996101 230.883911 132.492844
v 116.526741 226.803375 130.472885
v 97.134972 220.520706 129.843658
v 99.381340 229.721420 129.123108
v 111.034012 228.833481 122.638733
v 108.995918 238.304474 124.674744
v 113.387833 214.768616 132.417068
v 104.598663 200.939804 121.131828
v 110.351807 212.772018 123.201218
v 106.945053 222.679855 122.500015
v 110.012192 203.208694 121.471802
v 113.386520 224.730774 132.423798
v 100.669609 242.966339 132.180481
v 108.996040 214.768921 132.500092
v 111.046997 241.919571 129.570816
v 114.486343 209.865204 129.903320
v 93.614624 222.146545 126.509239
v 108.995659 220.921860 122.518272
v 95.226868 236.874374 125.836433
v 108.996071 228.833054 132.494141
v 100.458038 218.937119 132.013351
v 100.676132 224.649658 131.268265
v 94.836960 230.516510 125.698990
v 100.604233 222.632156 131.560150
v 115.760590 216.932327 130.484146
v 94.423729 220.990265 123.909821
v 90.439255 202.497726 125.458717
v 100.499008 206.563080 121.533234
v 104.602791 220.922043 132.441422
v 89.442513 200.352798 123.863762
v 92.898422 204.457687 131.269272
v 113.878471 206.572830 130.038620
v 101.036583 226.661423 131.180954
v 104.599831 199.830307 123.476173
v 108.995911 232.934509 132.520004
v 115.638229 239.261856 127.335632
v 98.021255 226.881561 128.729446
v 104.601028 216.820145 122.496292
v 104.600647 206.561172 121.553627
v 108.995384 218.870819 122.529633
v 98.478546 234.957397 122.788109
v 115.342224 230.889267 132.098312
v 109.500275 200.034607 121.747925
v 106.945198 216.819901 122.501205
v 106.944992 239.194244 125.778381
v 106.945076 220.921936 132.493332
v 96.394745 204.534683 121.336166
v 98.385551 216.914520 131.975739
v 113.385643 212.718018 132.390121
v 110.196190 202.989059 121.428185
v 98.448425 206.562225 121.545868
v 113.386818 222.679886 132.426880
v 96.261620 224.738937 127.889229
v 111.046898 230.883865 132.499451
v 111.046852 242.519699 130.549622
v 116.644241 233.047211 131.483948
v 117.883705 241.351059 129.513794
v 96.406883 203.500687 131.425858
v 110.211983 207.043259 123.523643
v 115.863129 226.789108 127.595963
v 114.224060 204.056198 132.148453
v 102.549934 200.139908 125.493446
v 91.068932 207.668686 126.023933
v 104.600739 234.953552 122.716988
v 112.591446 210.833755 126.385460
v 98.448235 220.922836 122.548378
v 112.027191 212.519485 125.047005
v 113.560356 226.813553 123.761955
v 94.315987 210.602982 131.538757
v 92.237823 204.353378 122.137039
v 104.600983 240.041519 126.949387
v 113.129501 228.922058 123.134811
v 108.983658 202.273285 130.088959
v 104.665833 230.868942 132.134537
v 91.888702 204.606308 130.292984
v 100.499001 199.984848 122.119743
v 113.383110 216.819550 132.390610
v 99.148369 239.518173 131.482437
v 101.519928 228.585495 131.092972
v 93.039978 206.382904 131.302917
v 100.495895 236.183823 123.078171
v 111.045891 242.948532 132.933716
v 111.872780 215.326996 123.674980
v 102.550064 222.679947 122.500008
v 100.499184 224.730881 122.513779
v 102.550049 220.921906 122.499985
v 110.914597 202.537582 129.945358
v 104.601028 230.883835 122.500008
v 106.920967 199.912262 123.466202
v 110.680367 202.528748 126.430191
v 104.601082 232.934158 122.529205
v 106.945061 206.570908 132.405518
v 106.923828 200.327515 125.457794
v 97.446426 232.888992 122.954002
v 102.727440 228.803711 131.690979
v 111.771225 210.495148 125.302269
v 106.945023 240.041565 126.949326
v 93.385307 203.624725 121.395340
v 97.539391 224.831650 128.738708
v 115.026970 226.784393 126.124466
v 93.326195 218.837021 125.934196
v 118.014717 239.078293 131.752121
v 104.680283 232.938232 132.148773
v 98.453232 214.760010 132.309784
v 113.810883 234.974289 123.374443
v 91.005814 202.014893 122.574074
v 113.243362 236.031967 123.275185
v 106.944992 210.666992 132.500000
v 89.811005 199.883804 123.678490
v 96.396996 200.142975 125.492493
v 113.391174 242.947952 132.931976
v 99.491692 230.898026 129.054962
v 110.180023 204.223618 124.824120
v 106.946243 203.481232 131.452484
v 113.390305 232.935410 132.486160
v 106.939636 200.052658 124.438202
v 104.599709 199.917984 124.481674
v 108.996017 222.679871 132.499374
v 106.949417 200.082687 122.062439
v 113.932747 228.807755 123.710068
v 100.499367 228.833099 122.518021
v 116.395035 226.790680 128.865479
v 104.600716 202.208588 130.123825
v 115.980194 210.726120 132.089340
v 115.910423 228.841705 127.562225
v 98.448891 202.199356 130.130615
v 109.832550 203.651245 121.631844
v 114.767113 208.634857 130.851273
v 104.600250 236.176453 123.094292
v 94.192581 222.687073 127.010750
v 96.025154 221.182480 128.602173
v 102.537483 237.015457 132.229034
v 102.549927 238.307312 124.672157
v 102.550056 239.194443 125.778175
v 111.043579 239.155350 125.806587
v 106.945320 234.953583 122.717033
v 94.158295 203.560623 131.293289
v 108.996040 216.820053 132.500031
v 100.532410 242.301926 130.661041
v 106.945015 214.768997 132.500000
v 96.428955 218.870239 122.723930
v 95.210831 218.812469 123.106194
v 106.945007 241.919342 129.570999
v 111.046738 241.127243 133.340973
v 94.799431 228.786530 124.495117
v 93.525505 220.633362 126.635704
v 102.550041 224.731094 122.500015
v 116.785019 230.923599 130.243805
v 117.790993 241.236221 132.343689
v 108.996033 220.921906 132.500046
v 108.978004 214.769165 122.660217
v 95.414055 236.969879 126.934509
v 100.500114 232.933823 122.547951
v 113.340645 220.943024 123.895432
v 111.025513 222.679977 122.674545
v 90.930779 200.281616 122.512978
v 92.827812 210.617004 124.038979
v 108.995819 228.833054 122.514671
v 100.499031 206.570190 132.413269
v 102.585274 220.916245 132.239960
v 96.390060 228.829559 127.583298
v 104.601074 240.995422 128.274048
v 117.426628 242.280792 130.710052
v 95.152550 234.979141 126.615067
v 104.601059 214.768982 132.500351
v 98.468727 230.883530 122.672752
v 96.287407 234.965088 123.789375
v 94.776367 214.631577 131.335754
v 95.027802 215.994110 131.090103
v 115.073967 238.855057 126.724312
v 94.651054 214.632812 123.051170
v 114.448509 226.777390 125.068871
v 102.735672 235.025406 131.704880
v 114.396202 224.717163 125.134636
v 91.424904 204.936813 123.153374
v 110.992271 204.535065 126.105759
v 91.461967 208.641815 128.045105
v 114.428032 211.348221 129.061539
v 101.248779 239.790512 133.022278
v 90.633682 201.027054 125.220383
v 100.498993 218.871048 122.500000
v 115.403603 239.131134 133.234451
v 104.600410 200.990433 127.883636
v 91.502281 208.656189 125.551308
v 90.489922 202.319397 123.740990
v 104.601074 239.194321 125.778305
v 96.404556 212.722519 122.460335
v 100.499565 234.956467 122.708199
v 106.945023 208.616180 132.491302
v 92.759949 214.684952 125.572433
v 102.453720 222.732666 132.109863
v 117.949234 239.049118 129.692703
v 95.707100 239.582291 127.980156
v 102.549690 202.196655 130.132355
v 115.913635 222.740829 131.555588
v 92.098557 202.570190 121.703300
v 96.398781 200.313583 121.531250
v 101.755501 232.939545 130.885544
v 90.793526 204.376358 123.920891
v 106.945541 243.151978 132.089050
v 108.996025 210.666977 132.496384
v 111.046799 236.832047 132.962082
v 108.957069 210.659760 122.513908
v 108.954872 201.253036 127.827454
v 113.492477 224.737106 123.780441
v 116.788216 233.090393 128.407211
v 114.673271 230.876129 125.051048
v 106.955963 204.527664 121.372513
v 106.945625 204.625671 132.044464
v 113.391693 236.836166 132.942230
v 111.046844 216.820145 132.493179
v 98.154083 221.044220 130.518097
v 98.447083 200.935532 121.127243
v 113.390015 239.109238 133.319321
v 104.601097 228.833115 122.500008
v 102.549667 240.040298 126.950462
v 102.548775 236.183075 123.080040
v 117.015198 241.177673 132.895508
v 108.995712 224.731094 122.517265
v 98.472679 232.933777 122.684898
v 113.387047 226.782089 132.426865
v 111.046997 240.023544 126.962082
v 104.660255 210.540604 122.094749
v 96.567467 201.595642 120.965569
v 115.683182 222.688278 127.932602
v 106.945015 218.871002 122.500008
v 98.462509 228.832794 122.646393
v 100.499268 226.782135 122.515427
v 91.190178 207.169373 125.023857
v 106.945030 226.782166 122.500008
v 91.769081 206.634018 123.663071
v 111.044304 203.664673 131.329895
v 109.562805 200.067978 121.734291
v 113.177826 206.500336 132.050293
v 115.454308 241.820999 129.669479
v 104.599625 203.480637 131.453156
v 113.390747 238.034668 133.178040
v 100.745010 232.942398 130.093826
v 111.044861 208.616516 132.440308
v 95.280685 234.955765 124.786278
v 118.222328 239.090302 130.517029
v 106.945000 218.871048 132.497711
v 93.175049 226.557861 125.753120
v 99.646584 241.092667 133.000778
v 100.499039 208.616196 132.490082
v 102.549545 214.769379 132.489044
v 92.363731 208.668289 130.203461
v 96.522194 222.660294 122.915039
v 99.863533 225.501419 130.632660
v 116.093529 232.966156 127.201256
v 96.448349 212.708084 132.170380
v 92.017136 200.002213 124.454689
v 102.549957 199.904907 124.484322
v 113.388474 230.883987 132.443802
v 98.448654 208.616318 132.465118
v 98.448227 199.817535 123.476677
v 99.493813 232.884705 129.066345
v 100.498985 216.820145 122.496910
v 112.783226 226.807190 123.175926
v 111.047295 240.991028 128.276840
v 94.052338 199.838272 123.476662
v 102.836639 232.936005 131.494644
v 100.048920 236.606445 130.631638
v 96.567871 238.653610 126.038338
v 102.550049 216.820053 122.496933
v 93.528107 212.592789 123.507278
v 109.526192 202.291748 123.691154
v 102.550056 228.833008 122.499985
v 97.501091 234.967926 123.021805
v 104.624504 235.001999 132.323257
v 115.945312 210.543640 132.077606
v 112.441391 216.758896 123.722336
v 117.906334 241.284622 129.470291
v 109.774193 208.317032 122.801414
v 90.958740 201.684113 127.238533
v 94.228760 218.846954 123.979935
v 106.940178 201.046631 127.863815
v 104.600960 238.301804 124.677727
v 96.371582 220.981537 122.787262
v 93.049080 216.658691 127.124580
v 100.499657 238.302124 124.676849
v 90.977943 205.902390 124.561043
v 104.595100 202.962463 121.081779
v 116.620346 229.009460 130.517487
v 116.199753 237.029465 127.126900
v 102.550003 237.416107 123.831841
v 113.391769 243.145218 132.712265
v 93.246277 215.583450 128.870285
v 109.951149 204.471573 123.495323
v 102.549934 240.976395 128.288406
v 111.026398 237.372467 123.884720
v 110.246742 207.131363 123.509850
v 110.963326 216.864197 122.848801
v 102.552429 242.495346 130.563507
v 107.060204 201.946182 121.010437
v 100.499023 210.667068 132.497177
v 108.996017 208.616196 132.488541
v 94.363159 202.811127 121.025826
v 93.965042 216.765274 123.960815
v 112.463799 204.554489 128.223038
v 108.996048 239.107101 133.335159
v 113.820244 229.373337 123.399086
v 113.376823 210.668869 132.334991
v 108.996292 216.816986 122.577530
v 95.029251 230.813507 126.466774
v 116.404945 222.835327 130.480072
v 111.963936 217.013397 123.254639
v 115.294044 222.682129 132.031738
v 115.583611 214.747589 130.522903
v 113.372566 239.872955 127.077820
v 92.437553 212.674118 125.544510
v 118.081703 235.420578 130.549042
v 98.448746 212.732147 122.342262
v 102.550056 214.769714 122.465492
v 93.167969 214.149445 129.888992
v 101.623238 234.941315 131.064789
v 91.946655 199.909439 123.499397
v 96.210236 222.727966 128.222107
v 106.945068 242.519745 130.549652
v 91.857956 206.542496 130.204300
v 106.945107 237.412231 123.837242
v 111.046829 218.871078 132.493027
v 102.550064 206.562729 121.537865
v 93.109451 224.208664 125.688095
v 98.467468 236.170700 123.104332
v 110.837257 201.521210 127.858246
v 117.840393 241.343216 129.436813
v 115.965416 211.076813 132.104019
v 95.694954 224.980408 123.331909
v 115.130379 228.791595 126.156479
v 99.314095 221.898254 131.031281
v 93.384979 218.772095 126.844154
v 104.598953 236.801620 132.747711
v 115.428032 243.102921 132.121017
v 96.415489 208.616211 132.298386
v 104.601265 199.997360 122.123367
v 94.436310 210.577072 122.751518
v 106.945976 239.108353 133.325195
v 106.938019 206.552032 121.644707
v 96.414345 204.635696 131.992538
v 92.765350 206.157227 122.575836
v 102.549706 204.533951 121.314743
v 95.126167 230.771530 124.523140
v 115.429214 242.455566 130.587769
v 113.440498 204.758636 130.516647
v 94.854752 232.967606 125.735001
v 98.449982 203.470444 131.467041
v 95.979248 228.906296 123.433899
v 111.044060 206.569382 132.386642
v 94.558678 226.773254 126.703438
v 93.004959 208.162323 131.067123
v 100.498993 202.193085 130.134842
v 108.996056 242.951996 132.940430
v 106.940582 238.031311 133.177063
v 111.046890 222.679871 132.497269
v 106.945015 232.934143 122.529213
v 100.498985 200.138092 125.494019
v 113.781853 212.623703 127.511848
v 104.600952 237.412399 123.836983
v 110.448174 206.019150 124.728691
v 100.404205 228.826126 130.226242
v 104.611595 224.729965 132.346924
v 100.499001 199.904236 124.484406
v 97.924294 236.444626 129.054489
v 92.896248 203.506821 130.887726
v 112.861542 238.035217 124.948967
v 98.368385 228.823471 128.588165
v 102.561447 243.148315 132.096100
v 108.995987 241.920715 129.569977
v 106.945740 236.176239 123.094643
v 115.300514 224.730392 132.022125
v 98.475838 240.399307 128.566452
v 113.299866 236.844650 124.005463
v 117.176903 233.035492 130.393585
v 97.154289 218.054352 131.265854
v 113.383202 218.871201 132.396606
v 94.907204 234.918060 125.855362
v 91.331337 206.878632 128.902817
v 90.717331 204.467880 127.937653
v 94.058174 201.073257 127.850250
v 114.574471 212.900589 128.643677
v 115.418800 212.792847 130.510391
v 117.903069 242.490524 131.193436
v 116.193520 220.843872 130.417221
v 115.460350 240.693436 128.528061
v 95.408905 236.295700 124.947716
v 92.754601 210.617218 130.059189
v 93.468491 216.927750 128.302338
v 102.550026 206.570328 132.412979
v 91.220711 205.592545 129.276810
v 92.138725 202.858810 129.870224
v 98.449570 206.571396 132.393600
v 91.967491 210.537354 127.905090
v 94.055702 200.932938 121.118385
v 98.448433 199.986664 122.120407
v 98.453751 222.679352 122.586746
v 104.601067 241.917542 129.572327
v 90.844879 206.450165 125.610756
v 102.566872 242.954086 132.904953
v 115.414566 241.122086 133.222366
v 104.600204 204.625320 132.045639
v 98.418068 239.035233 130.221741
v 106.959976 210.731064 122.210846
v 111.025787 224.730591 122.674362
v 98.448563 218.871201 122.522980
v 95.927834 239.547409 128.074753
v 108.965889 212.709763 122.672577
v 108.908806 201.798935 121.140007
v 102.443283 224.705124 131.954575
v 102.551918 241.904633 129.581879
v 93.527512 220.839737 125.778801
v 104.600937 242.519653 130.549637
v 90.704079 202.537811 127.706169
v 100.498993 199.816681 123.476707
v 104.598465 200.318542 121.541451
v 114.378319 203.939957 132.107697
v 96.397995 199.995636 122.122375
v 113.809425 232.934189 123.367775
v 108.996040 212.717911 132.498367
v 108.997536 204.620544 132.061981
v 111.633224 214.359558 123.819519
v 114.123581 214.581421 127.239624
v 100.498978 203.467697 131.470200
v 111.046783 239.107910 133.333496
v 115.265297 237.065018 126.200523
v 92.041901 200.371384 125.398613
v 98.528282 202.889725 121.078583
v 93.138931 225.086670 125.743782
v 113.145439 214.869888 125.792122
v 94.625084 226.769852 124.281815
v 104.620781 226.780945 132.282883
v 100.499298 212.732239 122.332756
v 96.485672 214.700256 131.978867
v 114.681755 235.001419 124.977272
v 92.397491 212.644699 128.099564
v 113.844177 230.881470 123.370300
v 102.557358 218.872452 132.345673
v 98.464348 237.354950 123.896667
v 108.995438 234.954391 122.715347
v 115.438103 243.136658 132.714020
v 92.110168 201.330780 127.680206
v 104.601250 204.533798 121.318665
v 104.601074 218.871033 122.500000
v 98.455109 224.731110 122.601768
v 111.046867 226.782089 132.495697
v 108.996033 226.782089 132.496948
v 114.188606 208.508026 129.972626
v 104.644211 237.907700 133.023300
v 93.820572 214.805695 123.602150
v 111.154068 206.610168 125.727417
v 95.225151 232.676056 124.627785
v 96.397057 199.909332 124.483597
v 111.019615 220.923172 122.697029
v 116.301567 221.482773 130.857895
v 108.726219 206.448563 122.005753
v 97.507713 240.110672 129.296600
v 104.601250 214.769394 122.471191
v 108.898918 201.070755 125.500298
v 100.499214 200.931992 121.107536
v 96.434669 208.565552 121.905220
v 115.879272 224.657806 127.856224
v 108.990349 203.490540 131.443085
v 102.548424 203.469635 131.467926
v 98.448174 208.575043 121.769768
v 91.256287 203.776474 122.822121
v 96.397102 199.823624 123.476372
v 104.601013 222.679855 122.500031
v 97.284515 223.004318 128.951935
v 100.499008 200.974548 127.890274
v 104.599686 200.162460 125.486839
v 95.606041 238.240280 126.377991
v 115.378487 232.943207 132.188156
v 93.190712 226.633072 125.740517
v 95.456543 219.775131 128.842361
v 100.499077 204.533142 121.320816
v 97.436882 238.000504 129.249191
v 100.784149 242.862442 132.741028
v 94.215797 204.630341 131.723145
v 108.995979 206.570694 132.403915
v 109.759048 201.328629 121.427528
v 92.004349 210.501434 125.710457
v 112.595612 221.029327 123.248192
v 106.947342 232.935974 132.451294
v 98.330490 234.828735 128.733582
v 114.843796 214.914246 128.402802
v 97.852737 219.572250 130.866455
v 104.601028 220.921936 122.500015
v 92.807686 201.707031 121.073380
v 115.689621 218.900833 131.494324
v 110.731667 210.479477 123.733971
v 117.899849 235.860168 131.489120
v 102.550079 210.667007 132.500015
v 92.554115 200.982101 121.211174
v 113.433846 222.723953 123.799362
v 99.581245 241.089355 132.962357
v 116.217110 234.995148 127.100151
v 100.500214 216.815231 132.292511
v 108.995987 240.040878 126.949783
v 96.957092 228.709579 122.969559
v 114.143509 235.034714 123.872414
v 115.265991 230.927628 126.202026
v 116.452629 228.870483 128.858551
v 111.046898 232.934311 132.530212
v 102.549393 200.309753 121.534073
v 102.550064 230.883881 122.499992
v 108.996040 224.731079 132.498917
v 94.495407 216.817505 130.240433
v 111.046822 234.970123 132.669098
v 104.595062 208.567215 121.795273
v 96.369492 202.715698 121.021561
v 104.599251 243.146835 132.712433
v 100.498909 220.921951 122.500145
v 106.945007 212.717850 132.499985
v 96.605911 236.871826 124.204285
v 104.601639 218.871124 132.464111
v 99.049698 220.716995 131.192932
v 106.946037 242.948547 132.933685
v 111.040207 230.883804 122.605629
v 108.996017 238.031235 133.189514
v 110.213005 201.408295 126.771568
v 106.940880 234.976303 132.611374
v 115.887543 220.881699 131.505692
v 113.559669 235.914597 123.374275
v 98.448334 200.310196 121.535240
v 100.623833 220.896454 131.801453
v 110.218521 207.141769 123.551125
v 100.498138 214.769028 132.436417
v 96.431465 210.664276 132.245392
v 116.295151 231.088303 131.454727
v 118.006508 237.055481 131.609634
v 106.946190 243.146683 132.712448
v 115.534576 221.004211 128.091125
v 112.894264 212.741364 126.185799
v 114.151535 220.698364 125.295807
v 118.199989 237.050140 130.532257
v 108.996056 241.128326 133.352097
v 96.651550 237.972107 125.079208
v 90.798317 200.432175 122.544777
v 102.549149 204.620789 132.060272
v 98.450760 201.747467 120.985138
v 106.945786 226.782181 132.462723
v 100.045151 242.444717 132.053787
v 93.168945 226.299301 125.743431
v 108.621346 200.631790 123.710770
v 98.380287 239.758682 127.111992
v 117.911797 241.253342 129.439392
v 102.549164 208.572281 121.767693
v 100.498924 212.718002 132.489838
v 114.909714 222.738770 126.314178
v 108.996017 243.157867 132.716858
v 98.449608 210.666855 132.453003
v 106.934639 200.956406 121.171158
v 112.733284 206.611771 128.030624
v 108.996117 236.835312 132.957275
v 98.305084 230.891296 128.382233
v 93.328156 228.317215 125.635750
v 98.408379 210.570923 122.055794
v 112.290405 213.788971 124.936020
v 106.945045 230.883926 122.500008
v 109.984154 203.313446 121.539650
v 115.247810 218.905396 127.977623
v 100.461075 240.879654 128.407639
v 96.490616 235.064316 127.826958
v 115.417450 234.992401 126.090431
v 112.337822 218.940659 123.245430
v 106.945076 222.679840 132.489609
v 115.319054 226.783493 132.043320
v 100.495522 239.986404 126.989677
v 97.147072 230.863541 122.983627
v 95.859901 239.499313 128.057297
v 102.548439 216.822250 132.434402
v 111.034630 234.947693 122.768738
v 92.729492 214.613693 127.829987
v 94.129868 206.639145 131.841385
v 111.046860 228.833084 132.496231
v 94.078171 208.635223 131.713791
v 117.264725 235.090942 131.694077
v 116.025322 211.249878 132.099945
v 93.593880 202.073242 120.945297
v 102.549561 200.975983 127.889687
v 108.995819 222.679947 122.514084
v 111.046356 243.151794 132.089127
v 93.072273 216.677429 125.872231
v 116.172234 226.814133 131.436737
v 98.676201 237.336914 129.936874
v 91.138504 204.492905 129.356064
v 111.038490 232.932724 122.619156
v 111.134796 212.651794 123.833565
v 109.818459 200.084412 121.749908
v 106.945152 214.768860 122.498779
v 98.448471 200.975647 127.889801
v 94.160965 220.893631 127.398911
v 102.550026 212.717880 132.500290
v 104.601021 212.717896 132.499969
v 111.086433 204.763092 132.040726
v 100.500504 237.415070 123.831833
v 112.319847 209.038528 126.665329
v 104.601105 210.667084 132.500015
v 94.442352 222.650085 124.067253
v 91.398262 202.812225 129.031342
v 113.387329 228.833176 132.431366
v 106.945129 241.127213 133.341309
v 115.888504 218.828506 130.287262
v 114.660378 219.463318 126.638458
v 98.877472 240.733688 130.056732
v 115.025139 210.911697 130.484222
v 106.929672 208.763931 121.928696
v 108.995667 234.970810 132.662994
v 111.045799 243.146667 132.712479
v 108.995659 236.180435 123.085358
v 118.002266 237.055405 129.660217
v 116.210144 228.804840 131.436203
v 94.061447 200.016785 122.129784
v 115.375420 232.906509 126.135376
v 102.550224 212.730713 122.346092
v 97.635956 236.105179 123.264717
v 116.028694 224.957596 131.447433
v 113.392532 234.972488 132.644272
v 100.075478 226.919601 130.487534
v 99.463699 234.047485 129.203201
v 106.949364 236.834457 132.935181
v 94.598686 224.601654 124.103645
v 94.054436 200.174301 125.482170
v 96.419296 210.627136 122.211418
v 94.477921 212.554703 131.505341
v 95.900200 217.581818 130.830872
v 114.990433 216.887726 128.085495
v 96.824959 226.772217 122.938454
v 114.316460 222.675461 125.177551
v 115.902893 210.522751 132.077606
v 116.465393 230.947372 128.377869
v 96.423874 216.818817 122.693802
v 113.615700 216.801590 125.687332
v 102.549805 199.817505 123.476715
v 117.147346 243.124466 132.749268
v 115.279617 220.930695 132.002701
v 108.884705 208.705368 122.284416
v 98.606804 218.677017 131.613998
v 94.097931 206.570267 122.031464
v 100.498993 204.619705 132.063736
v 115.325798 228.837326 132.065231
v 115.542259 214.738419 131.561920
v 98.447876 214.769562 122.474319
v 106.946968 228.833069 132.443527
v 102.550064 218.871078 122.500008
v 93.134056 224.979782 125.749756
v 98.447998 200.138947 125.493752
v 111.046234 210.666962 132.466766
v 108.996033 218.871017 132.500000
v 92.051521 200.163544 122.263046
v 110.753540 214.926193 123.140053
v 92.419678 208.500778 123.838295
v 108.996078 243.160645 132.088058
v 102.702156 239.287292 133.109589
v 113.400856 238.846008 125.952278
v 98.450027 204.622284 132.054474
v 116.897598 239.259354 132.875595
v 98.451019 212.716644 132.421494
v 100.499847 210.582657 122.055176
v 113.547180 210.609756 127.961235
v 117.137932 237.047256 128.225662
v 106.944878 202.216995 130.118286
v 90.557388 204.599503 125.532677
v 114.168358 230.887360 123.837677
v 102.777023 230.733032 131.590790
v 118.159798 243.248779 132.314896
v 93.584816 214.703033 130.307541
v 112.912605 218.724579 123.833641
v 98.448570 216.819977 122.519936
v 99.412308 241.080795 132.863266
v 113.392143 241.910904 129.575851
v 104.600952 243.151108 132.089386
v 113.228836 232.936691 123.011009
v 117.014496 239.047348 128.449799
v 106.945107 238.302048 124.677528
v 102.550079 232.934219 122.524666
v 95.267487 220.408005 123.167976
v 89.791656 199.910812 123.688576
v 116.361076 222.344299 129.979279
v 94.953888 216.776291 123.174126
v 114.579857 228.815308 125.077942
v 110.846596 202.332184 121.092636
v 114.187302 237.022263 125.171188
v 104.609779 239.120148 133.288452
v 96.397423 200.992111 127.882904
v 94.218735 208.525772 122.479561
v 111.037277 238.261414 124.709183
v 115.233154 218.877029 131.939331
v 116.333397 225.287140 128.934708
v 96.408920 214.765427 122.617500
v 118.054924 241.100403 131.892502
v 99.021759 224.617447 130.106644
v 100.853645 243.065079 132.653885
v 102.506790 226.786224 131.805618
v 104.601021 206.570938 132.405457
v 115.891205 230.855545 127.252487
v 104.600830 216.820358 132.490860
v 101.762169 230.976944 130.872940
v 102.549538 199.986588 122.120354
v 100.593063 241.720871 129.710724
v 108.994522 237.412445 123.836792
v 104.604149 212.727188 122.353935
v 106.948685 230.883865 132.427673
v 99.065804 235.598328 129.467361
v 106.945015 240.995544 128.273849
v 94.741394 228.808380 126.524574
v 100.428825 202.784439 121.055511
v 117.872452 234.863327 130.271988
v 96.403061 202.233795 130.107132
v 100.499077 222.679871 122.509453
v 113.390236 242.512650 130.553513
v 115.532829 236.947937 132.811081
v 102.552383 201.760941 120.975914
v 102.554245 243.158203 132.713806
v 108.996056 242.525070 130.546768
v 111.517647 202.047974 128.161240
v 115.615952 216.828720 131.516083
v 108.996010 230.883865 122.507858
v 100.763847 230.739868 130.238861
v 116.023651 211.627823 132.126877
v 102.578110 241.136398 133.236038
v 108.995781 232.934052 122.532051
v 111.026604 226.782394 122.671219
v 106.927261 200.319565 121.548737
v 117.082565 235.089264 128.338699
v 104.600479 242.948456 132.933105
v 111.509186 208.501328 125.514999
v 114.176041 232.934860 123.847717
v 109.659485 206.622711 122.638458
v 113.104294 208.589233 127.922607
v 96.353951 218.839737 130.390350
v 96.334595 226.784027 127.718491
v 98.448509 204.533188 121.316536
v 106.945015 228.833099 122.500015
v 114.145668 204.050034 132.148987
v 100.450409 239.281799 132.305420
v 106.945015 220.921906 122.499985
v 115.231728 216.815109 131.944672
v 109.979568 203.397064 121.589340
v 111.046692 212.717865 132.478500
v 116.458549 224.628830 130.280716
v 95.820656 239.564163 128.028549
v 111.972862 202.712814 128.385696
v 102.548737 200.937622 121.123497
v 100.499016 214.769745 122.465591
v 96.294861 233.024323 123.584152
v 102.550079 208.616180 132.492798
v 113.357849 208.614487 132.203140
v 100.498764 208.574722 121.753281
v 90.853104 206.465225 127.940498
v 102.550041 226.782089 122.500031
v 91.091576 207.666046 127.437393
v 100.499474 230.883881 122.521080
v 102.550484 210.580109 122.065422
v 112.478348 203.478119 130.213272
v 112.749596 224.730682 123.211426
v 94.076523 200.331772 121.546738
v 93.097664 223.814987 125.682335
v 99.562607 241.892105 131.016281
v 98.459732 226.781876 122.632408
v 106.945305 224.730988 132.477325
v 94.903702 217.848480 129.804398
v 106.946587 212.722763 122.420410
v 114.044960 218.808380 125.626518
v 98.610435 222.679596 130.284882
v 106.945030 216.820114 132.500137
v 94.494278 212.657471 122.932312
v 93.987785 204.484253 121.499466
v 93.451668 212.899643 130.654251
v 108.995949 239.193146 125.779091
v 104.601097 224.730927 122.500023
v 114.711571 232.913376 124.986069
v 98.464439 239.071915 125.855278
v 92.903214 212.610260 124.252754
v 98.448006 199.904541 124.484360
v 113.388855 243.147446 132.091141
v 115.408234 238.086807 133.070663
v 100.887657 237.410934 131.592010
v 111.046883 214.768936 132.490799
v 104.601021 208.616165 132.491302
v 94.053474 199.911163 124.483047
v 114.226501 204.102600 132.148621
v 113.238762 230.897522 123.026108
v 96.690025 224.611465 122.903664
v 97.293793 238.946625 129.279907
v 111.047020 238.033325 133.183365
v 102.549774 234.955475 122.708656
v 104.654907 228.818726 132.211945
v 108.955170 201.068344 121.255119
v 98.285278 232.915741 128.407776
v 94.097679 202.371201 130.015091
v 100.499023 200.308395 121.531334
v 99.291733 226.565598 129.890930
v 102.254860 238.548843 132.852493
v 104.605873 241.126434 133.294403
v 100.393333 235.000610 130.206818
v 106.851074 203.051163 121.118034
v 114.192513 206.690582 131.079437
v 117.223099 243.208389 132.726379
v 109.788040 202.368118 125.015045
v 117.363251 237.124756 132.174042
v 104.605247 201.762726 120.990753
v 108.996056 240.995361 128.274261
v 111.043480 236.159927 123.131401
v 104.601036 226.782181 122.500015
v 111.046860 220.921921 132.495209
v 96.412331 230.883240 127.499420
v 96.414062 206.575287 132.278030
v 114.083984 206.534836 131.423157
v 115.421638 242.954086 132.911270
v 113.386101 220.922119 132.419342
v 96.395508 200.926590 121.093132
v 98.462601 238.237961 124.731003
v 93.144997 214.559311 124.404999
v 102.544044 202.956223 121.083740
v 117.542526 238.867844 132.487228
v 96.509712 216.692291 131.593811
v 95.766670 226.771851 123.421127
v 92.885094 212.570847 129.961029
# 846 vertices, 0 vertices normals

f 270 500 570
f 191 179 590
f 130 297 510
f 805 763 159
f 737 111 112
f 542 269 793
f 424 732 170
f 382 79 838
f 230 4 434
f 192 167 540
f 812 24 769
f 412 701 354
f 812 769 483
f 479 137 674
f 443 88 809
f 534 789 758
f 365 629 328
f 677 640 784
f 556 175 311
f 222 398 644
f 37 45 608
f 755 527 132
f 682 710 452
f 412 354 262
f 745 545 749
f 427 245 684
f 691 234 799
f 494 37 798
f 370 172 16
f 495 126 792
f 252 706 333
f 93 423 275
f 93 208 539
f 385 205 408
f 147 691 463
f 818 736 712
f 148 295 780
f 462 338 600
f 608 480 182
f 545 810 614
f 794 214 198
f 685 575 323
f 523 452 591
f 652 278 555
f 840 623 308
f 412 262 698
f 455 570 270
f 121 296 194
f 609 803 314
f 685 131 575
f 791 631 25
f 315 415 534
f 362 555 282
f 428 722 236
f 178 36 678
f 216 324 506
f 600 415 315
f 385 512 449
f 76 34 605
f 1 218 436
f 115 703 532
f 750 286 32
f 96 652 555
f 843 739 804
f 683 419 667
f 462 508 338
f 667 566 490
f 388 31 746
f 458 721 122
f 483 632 429
f 370 478 373
f 195 460 278
f 795 666 368
f 593 788 145
f 422 283 441
f 437 189 424
f 791 588 631
f 542 187 56
f 622 443 762
f 118 383 91
f 104 765 5
f 559 252 576
f 754 624 123
f 98 124 189
f 639 311 29
f 103 726 531
f 805 200 343
f 389 721 458
f 355 605 747
f 236 447 489
f 321 395 40
f 816 507 435
f 76 605 151
f 277 591 641
f 495 80 126
f 287 337 12
f 574 536 781
f 645 20 499
f 402 665 844
f 586 745 383
f 79 39 335
f 435 507 77
f 100 489 114
f 326 128 610
f 242 532 295
f 316 140 86
f 494 174 111
f 117 743 770
f 494 798 174
f 843 718 129
f 265 225 725
f 527 461 710
f 63 701 412
f 763 522 206
f 437 439 321
f 476 326 841
f 713 364 184
f 544 380 563
f 513 239 543
f 389 788 593
f 191 590 19
f 403 838 715
f 565 183 11
f 90 204 779
f 371 803 738
f 431 783 750
f 795 325 537
f 272 323 774
f 61 144 116
f 180 532 703
f 233 401 735
f 837 314 467
f 769 433 483
f 665 543 48
f 53 704 306
f 217 610 600
f 196 844 460
f 453 407 650
f 34 5 605
f 202 226 492
f 276 646 60
f 645 237 20
f 694 534 196
f 374 450 379
f 150 689 304
f 192 273 598
f 556 69 499
f 587 38 766
f 83 604 401
f 96 555 362
f 281 142 69
f 370 373 50
f 70 571 27
f 551 486 240
f 204 420 274
f 411 333 706
f 823 805 343
f 730 28 47
f 593 145 177
f 27 260 616
f 143 485 571
f 545 99 810
f 28 81 602
f 693 2 826
f 827 117 140
f 570 500 583
f 303 707 169
f 268 718 84
f 825 836 657
f 36 615 678
f 32 99 545
f 56 73 269
f 724 542 793
f 730 510 28
f 741 538 753
f 526 596 16
f 447 622 259
f 534 758 653
f 747 409 605
f 669 765 744
f 503 391 24
f 361 693 826
f 755 799 461
f 222 335 398
f 170 396 742
f 835 419 683
f 404 267 46
f 101 130 730
f 774 519 807
f 639 668 69
f 203 327 477
f 432 93 306
f 157 345 158
f 177 833 349
f 637 599 831
f 141 489 100
f 340 686 459
f 159 821 681
f 1 436 389
f 297 360 548
f 801 217 338
f 134 550 400
f 157 17 345
f 80 377 759
f 488 87 127
f 811 655 845
f 145 382 833
f 824 587 235
f 461 641 591
f 615 94 585
f 259 622 762
f 179 24 590
f 330 76 151
f 279 288 344
f 475 681 711
f 554 273 620
f 554 524 273
f 101 730 671
f 768 611 29
f 571 485 294
f 690 226 425
f 456 385 449
f 19 590 817
f 182 509 22
f 32 286 99
f 321 439 395
f 508 420 211
f 209 13 427
f 742 82 680
f 479 808 137
f 381 365 546
f 96 274 414
f 331 678 320
f 164 505 85
f 87 357 127
f 628 281 668
f 296 247 68
f 719 820 276
f 364 487 651
f 708 127 357
f 70 616 260
f 646 106 60
f 748 681 522
f 223 520 515
f 353 114 743
f 486 771 7
f 356 457 649
f 475 381 648
f 840 14 800
f 361 467 803
f 769 572 433
f 625 519 620
f 198 214 717
f 149 311 529
f 293 794 476
f 152 529 658
f 230 301 4
f 252 26 576
f 664 301 230
f 540 446 228
f 722 119 236
f 136 207 453
f 63 412 12
f 176 2 718
f 517 123 615
f 516 663 549
f 477 319 553
f 770 372 327
f 298 151 355
f 481 222 333
f 714 393 682
f 442 751 579
f 56 1 73
f 394 31 388
f 250 642 781
f 596 773 16
f 18 132 134
f 63 337 682
f 130 692 289
f 305 702 72
f 741 720 40
f 614 810 700
f 121 194 773
f 621 540 135
f 526 787 254
f 701 219 300
f 432 208 93
f 795 537 74
f 533 10 382
f 48 552 464
f 767 806 76
f 578 278 685
f 511 391 612
f 416 774 722
f 356 845 457
f 524 598 273
f 117 770 203
f 146 70 27
f 103 661 726
f 450 490 221
f 297 548 510
f 363 61 116
f 515 520 421
f 714 400 393
f 754 123 517
f 690 425 777
f 413 194 541
f 365 328 546
f 673 270 570
f 474 155 43
f 784 421 11
f 770 782 372
f 239 358 543
f 46 541 498
f 213 98 161
f 251 454 537
f 77 38 709
f 455 570 17
f 386 348 305
f 587 294 316
f 30 513 758
f 213 124 98
f 387 477 553
f 834 19 582
f 566 416 428
f 820 388 646
f 233 735 752
f 238 104 34
f 568 671 473
f 182 22 431
f 340 459 670
f 469 824 235
f 694 196 195
f 269 73 676
f 775 330 657
f 756 319 301
f 559 411 706
f 261 775 836
f 456 660 299
f 136 54 207
f 360 475 648
f 239 495 792
f 611 639 29
f 6 608 246
f 626 306 275
f 363 116 146
f 680 82 609
f 140 203 477
f 301 319 4
f 466 599 637
f 702 797 72
f 156 163 397
f 565 136 705
f 790 434 617
f 340 670 717
f 833 382 838
f 424 170 346
f 652 414 846
f 832 6 257
f 716 29 149
f 601 107 378
f 136 279 344
f 612 805 290
f 496 379 607
f 630 549 411
f 815 101 671
f 133 492 226
f 578 685 323
f 112 111 174
f 524 48 598
f 823 290 805
f 582 139 31
f 465 623 840
f 677 344 288
f 798 6 832
f 146 116 9
f 262 300 190
f 542 56 269
f 310 842 740
f 564 465 840
f 336 744 52
f 559 588 411
f 395 538 741
f 723 233 277
f 743 782 770
f 376 266 261
f 766 38 154
f 415 307 359
f 498 564 291
f 569 166 40
f 621 620 273
f 142 645 499
f 610 128 359
f 258 368 679
f 310 824 469
f 284 823 265
f 643 465 541
f 677 183 344
f 363 751 442
f 792 51 358
f 91 244 814
f 400 550 527
f 644 398 594
f 155 151 633
f 75 524 554
f 224 551 240
f 552 187 464
f 140 477 387
f 191 21 373
f 252 768 488
f 53 169 704
f 422 103 819
f 609 738 803
f 626 455 351
f 474 825 155
f 675 330 775
f 599 18 831
f 601 378 603
f 53 626 785
f 152 723 528
f 462 846 414
f 505 58 601
f 359 128 173
f 378 347 274
f 191 404 179
f 90 779 777
f 480 509 182
f 818 392 164
f 389 436 721
f 97 795 368
f 493 288 808
f 212 226 690
f 462 600 846
f 755 461 527
f 754 580 757
f 434 4 36
f 480 592 509
f 109 138 13
f 147 463 329
f 362 282 419
f 497 280 89
f 799 641 461
f 188 394 64
f 795 74 666
f 42 738 82
f 177 145 833
f 193 148 780
f 1 593 73
f 454 734 760
f 764 67 45
f 459 642 772
f 7 771 740
f 732 525 830
f 320 334 23
f 293 841 801
f 601 58 107
f 759 377 733
f 263 428 141
f 131 554 575
f 336 52 512
f 680 636 577
f 68 215 352
f 201 26 199
f 296 541 194
f 52 654 512
f 402 653 758
f 473 472 10
f 662 826 2
f 777 405 347
f 152 528 357
f 759 188 64
f 567 7 734
f 14 161 243
f 141 236 489
f 209 804 241
f 121 247 296
f 372 836 825
f 584 214 651
f 395 439 699
f 761 8 185
f 578 272 282
f 239 158 495
f 145 533 382
f 565 133 212
f 142 499 69
f 348 728 702
f 45 480 608
f 352 215 108
f 500 172 50
f 656 25 576
f 110 299 334
f 711 365 381
f 748 822 711
f 389 458 788
f 388 746 106
f 544 558 380
f 839 240 251
f 418 58 392
f 617 434 178
f 426 741 753
f 245 693 176
f 229 813 237
f 119 506 447
f 380 577 109
f 42 12 698
f 471 787 655
f 136 453 279
f 679 508 211
f 596 254 193
f 839 421 784
f 228 675 266
f 713 487 364
f 83 499 20
f 772 642 341
f 711 822 365
f 103 441 661
f 191 19 21
f 712 736 618
f 815 122 101
f 611 594 668
f 696 772 285
f 109 636 138
f 469 350 369
f 426 504 720
f 796 694 195
f 670 459 772
f 502 369 55
f 837 467 662
f 563 380 171
f 621 192 540
f 114 782 743
f 169 659 168
f 527 550 132
f 625 216 807
f 797 249 525
f 310 469 369
f 429 632 271
f 94 560 585
f 247 780 180
f 10 472 39
f 686 781 459
f 63 682 197
f 49 276 60
f 488 716 149
f 785 44 438
f 355 605 151
f 417 347 613
f 87 152 357
f 426 720 741
f 813 451 264
f 298 355 151
f 604 739 828
f 707 717 659
f 250 729 642
f 423 539 737
f 548 635 62
f 206 681 821
f 612 290 823
f 737 113 111
f 323 575 519
f 330 151 657
f 427 138 837
f 136 705 57
f 188 332 834
f 430 664 230
f 693 410 2
f 322 435 587
f 293 476 841
f 36 517 615
f 817 511 284
f 150 263 689
f 521 656 201
f 134 132 550
f 399 589 632
f 753 544 629
f 412 698 12
f 59 825 474
f 459 781 642
f 451 241 264
f 541 465 564
f 93 275 306
f 99 147 329
f 419 282 186
f 51 218 187
f 660 512 654
f 543 552 48
f 786 166 569
f 125 325 795
f 674 618 496
f 625 807 519
f 224 240 839
f 485 231 353
f 123 94 615
f 829 579 322
f 630 411 588
f 123 624 92
f 274 420 414
f 106 692 122
f 60 721 436
f 130 510 730
f 665 758 513
f 304 689 231
f 415 789 534
f 336 409 669
f 775 657 836
f 227 577 558
f 75 844 665
f 614 700 599
f 746 692 106
f 92 687 560
f 485 353 547
f 638 562 219
f 103 531 819
f 599 700 18
f 570 500 377
f 336 408 409
f 688 638 219
f 710 591 452
f 699 227 558
f 724 464 542
f 430 230 790
f 139 284 265
f 395 699 538
f 105 271 763
f 558 577 380
f 467 826 662
f 458 122 815
f 757 687 92
f 580 59 474
f 714 682 162
f 281 69 668
f 746 265 725
f 623 313 308
f 223 606 97
f 658 175 233
f 469 235 66
f 126 80 759
f 33 714 162
f 246 182 431
f 296 643 541
f 680 609 636
f 580 474 757
f 812 483 429
f 258 256 309
f 6 246 257
f 370 16 478
f 217 841 610
f 429 271 105
f 633 151 605
f 33 318 714
f 432 306 168
f 425 256 211
f 156 397 348
f 208 292 672
f 270 583 500
f 30 758 158
f 829 322 824
f 65 71 470
f 669 5 765
f 838 79 663
f 563 171 451
f 300 84 190
f 114 259 782
f 93 539 423
f 352 623 465
f 747 605 5
f 234 357 528
f 843 684 176
f 606 325 125
f 223 515 606
f 254 148 193
f 247 180 68
f 263 141 689
f 604 557 518
f 279 808 288
f 440 207 54
f 293 801 184
f 843 176 718
f 371 361 803
f 453 468 407
f 538 558 544
f 162 337 249
f 209 684 804
f 121 193 247
f 242 257 761
f 767 76 330
f 748 711 681
f 785 351 673
f 533 473 10
f 395 741 40
f 812 503 24
f 364 651 794
f 777 347 417
f 233 175 401
f 676 177 349
f 250 536 634
f 472 248 39
f 333 222 644
f 285 341 292
f 82 738 609
f 39 398 335
f 179 597 24
f 213 72 124
f 565 11 133
f 136 57 705
f 193 780 247
f 131 844 75
f 833 838 403
f 70 27 616
f 384 607 89
f 588 25 631
f 577 636 109
f 231 100 353
f 724 598 464
f 671 47 473
f 505 392 58
f 418 627 613
f 396 287 42
f 321 166 727
f 86 319 553
f 479 674 802
f 83 20 604
f 53 306 626
f 340 717 214
f 491 55 776
f 509 181 22
f 564 840 800
f 723 658 233
f 397 637 728
f 559 706 252
f 587 766 38
f 670 659 717
f 766 316 154
f 632 589 727
f 255 174 778
f 604 20 739
f 744 715 516
f 123 92 94
f 118 586 383
f 258 211 256
f 22 521 783
f 64 394 820
f 832 242 295
f 198 717 707
f 128 438 173
f 691 799 755
f 152 658 723
f 328 451 813
f 188 733 332
f 397 466 637
f 427 837 245
f 622 376 443
f 584 340 214
f 603 274 96
f 316 86 154
f 568 473 533
f 734 842 502
f 547 743 117
f 190 84 410
f 324 266 376
f 625 620 621
f 683 667 450
f 817 284 139
f 713 15 487
f 451 171 241
f 780 532 180
f 44 173 438
f 8 431 750
f 217 600 338
f 476 198 326
f 686 574 781
f 153 374 379
f 298 657 151
f 634 482 664
f 66 235 366
f 834 582 394
f 845 172 457
f 535 645 142
f 526 16 375
f 511 823 647
f 3 758 789
f 806 34 76
f 733 50 332
f 722 807 119
f 823 225 265
f 350 66 574
f 294 140 316
f 90 425 211
f 610 359 307
f 514 764 494
f 62 635 530
f 27 571 294
f 699 346 227
f 279 453 650
f 263 490 566
f 664 756 301
f 530 142 281
f 272 774 416
f 637 318 728
f 628 668 594
f 258 679 211
f 782 443 372
f 704 168 306
f 695 791 181
f 433 632 483
f 140 117 203
f 652 796 195
f 691 445 463
f 510 548 62
f 674 496 384
f 115 761 586
f 84 2 410
f 834 21 19
f 73 593 177
f 506 376 622
f 303 53 438
f 456 449 512
f 411 481 333
f 250 781 536
f 226 309 425
f 719 276 49
f 723 641 528
f 422 441 103
f 181 656 521
f 68 180 215
f 792 126 719
f 390 280 661
f 629 544 563
f 385 408 512
f 434 36 178
f 136 212 54
f 64 820 719
f 502 842 369
f 611 668 639
f 443 836 372
f 748 504 426
f 469 66 350
f 186 416 566
f 162 682 337
f 65 672 292
f 396 82 742
f 762 443 88
f 73 177 676
f 207 468 453
f 793 269 165
f 255 778 148
f 406 613 627
f 297 289 200
f 191 373 404
f 712 650 407
f 766 154 38
f 444 640 493
f 23 334 592
f 390 384 89
f 257 8 761
f 700 445 18
f 367 683 374
f 447 506 622
f 431 22 783
f 792 719 49
f 543 358 552
f 188 834 394
f 163 466 397
f 637 831 318
f 815 671 568
f 670 772 696
f 498 291 769
f 227 742 680
f 679 184 508
f 291 800 572
f 772 341 285
f 52 516 630
f 346 742 227
f 506 324 376
f 713 184 679
f 752 638 688
f 609 314 636
f 779 405 777
f 427 13 138
f 61 661 280
f 608 182 246
f 99 329 810
f 75 665 524
f 406 777 417
f 80 17 377
f 72 525 124
f 801 841 217
f 120 304 231
f 565 212 136
f 584 686 340
f 644 594 611
f 769 291 572
f 511 612 731
f 522 681 206
f 755 132 445
f 484 617 65
f 635 535 530
f 156 386 244
f 213 161 160
f 702 33 797
f 837 138 314
f 484 790 617
f 586 185 745
f 422 819 551
f 37 608 6
f 52 588 654
f 484 292 341
f 277 752 523
f 235 766 366
f 783 232 286
f 70 260 27
f 242 115 532
f 788 533 145
f 328 563 451
f 271 522 697
f 261 836 809
f 264 241 804
f 24 391 511
f 495 158 345
f 540 167 446
f 444 224 640
f 135 228 324
f 354 300 84
f 101 692 130
f 286 95 99
f 448 585 456
f 171 13 241
f 523 752 688
f 209 241 13
f 662 2 693
f 264 804 739
f 526 254 596
f 63 312 701
f 581 229 535
f 321 40 166
f 648 381 581
f 354 573 300
f 74 454 760
f 787 255 254
f 61 726 661
f 791 654 588
f 252 488 26
f 366 766 482
f 95 199 708
f 729 790 484
f 1 389 593
f 832 257 242
f 55 369 350
f 96 414 652
f 363 726 61
f 157 455 17
f 237 739 20
f 7 740 842
f 671 730 47
f 203 770 327
f 98 317 243
f 470 113 672
f 441 390 661
f 406 417 613
f 606 251 537
f 747 5 669
f 551 819 486
f 299 660 695
f 225 200 289
f 602 628 248
f 514 253 764
f 60 106 721
f 604 828 557
f 77 709 38
f 268 129 718
f 766 154 482
f 497 210 304
f 597 498 769
f 754 757 624
f 383 745 749
f 435 77 587
f 556 83 401
f 303 169 53
f 94 92 560
f 50 373 21
f 418 818 407
f 235 587 766
f 592 695 509
f 455 673 570
f 210 89 607
f 85 374 153
f 510 62 28
f 458 815 568
f 33 162 797
f 505 601 367
f 43 155 633
f 91 163 156
f 370 50 172
f 308 313 160
f 660 654 791
f 137 650 712
f 670 696 659
f 780 295 532
f 266 775 261
f 49 436 218
f 787 112 255
f 364 293 184
f 774 807 722
f 475 159 681
f 646 388 106
f 402 844 653
f 35 579 829
f 444 422 551
f 46 498 597
f 569 720 504
f 98 243 161
f 514 494 111
f 675 767 330
f 478 773 267
f 95 708 147
f 534 844 196
f 475 711 381
f 776 574 686
f 477 327 580
f 248 594 398
f 3 173 619
f 835 362 419
f 632 786 569
f 326 198 707
f 104 403 765
f 526 655 787
f 381 546 581
f 319 517 4
f 120 231 485
f 529 175 658
f 820 646 276
f 489 259 114
f 333 644 768
f 796 846 694
f 48 464 598
f 442 35 531
f 761 185 586
f 579 816 322
f 143 120 485
f 547 353 743
f 589 243 317
f 612 105 805
f 63 197 312
f 812 612 503
f 825 657 155
f 729 484 341
f 456 512 660
f 581 546 229
f 838 663 715
f 41 165 806
f 560 385 456
f 131 75 554
f 812 429 612
f 403 715 765
f 30 158 239
f 297 200 159
f 131 460 844
f 578 282 555
f 476 794 198
f 488 768 716
f 379 450 221
f 137 712 618
f 832 295 778
f 224 784 640
f 828 739 843
f 729 430 790
f 694 315 534
f 115 118 703
f 603 362 835
f 800 14 595
f 371 190 361
f 404 46 179
f 144 280 497
f 776 350 574
f 302 468 207
f 246 431 8
f 596 121 773
f 349 403 104
f 84 718 2
f 252 333 768
f 8 750 185
f 212 133 226
f 482 154 756
f 462 414 420
f 708 357 234
f 375 16 172
f 723 277 641
f 277 233 752
f 747 669 409
f 374 683 450
f 250 634 430
f 342 694 846
f 310 369 842
f 283 802 441
f 271 569 504
f 701 300 354
f 107 347 378
f 201 576 26
f 318 400 714
f 426 753 822
f 450 667 490
f 165 676 238
f 371 738 698
f 39 248 398
f 440 302 207
f 67 320 23
f 799 528 641
f 523 312 452
f 137 618 674
f 415 359 3
f 634 664 430
f 7 842 734
f 42 698 738
f 565 705 183
f 326 610 841
f 394 388 820
f 275 811 649
f 603 378 274
f 619 157 158
f 31 139 746
f 612 429 105
f 690 777 406
f 379 221 607
f 140 387 86
f 97 606 125
f 70 9 571
f 635 581 535
f 687 205 385
f 801 338 184
f 471 112 787
f 358 51 552
f 19 817 582
f 383 749 163
f 262 190 371
f 67 23 45
f 639 556 311
f 600 307 415
f 195 196 460
f 604 518 339
f 418 407 468
f 126 759 64
f 263 566 428
f 224 839 784
f 530 535 142
f 745 32 545
f 192 598 724
f 798 778 174
f 400 710 393
f 296 68 643
f 603 96 362
f 549 335 222
f 582 817 139
f 783 521 232
f 660 791 695
f 802 384 390
f 300 219 268
f 845 655 375
f 508 184 338
f 478 16 773
f 418 102 58
f 366 482 634
f 298 151 657
f 212 690 54
f 601 603 835
f 724 793 167
f 130 289 297
f 147 708 234
f 678 615 448
f 227 680 577
f 300 573 84
f 360 648 548
f 794 651 214
f 86 387 553
f 590 511 817
f 470 253 514
f 238 349 104
f 355 747 605
f 615 585 448
f 308 160 161
f 179 46 597
f 62 530 81
f 455 649 570
f 326 707 303
f 443 809 88
f 433 399 632
f 729 341 642
f 28 62 81
f 297 159 360
f 355 151 605
f 520 11 421
f 352 108 623
f 424 346 439
f 312 197 452
f 497 89 210
f 758 501 158
f 3 501 758
f 617 178 71
f 46 267 413
f 752 735 638
f 713 679 368
f 785 673 455
f 271 697 522
f 50 21 332
f 86 553 319
f 30 239 513
f 53 785 438
f 419 186 667
f 597 220 433
f 423 737 471
f 785 455 351
f 78 502 55
f 629 563 328
f 689 141 100
f 35 771 531
f 725 225 289
f 15 760 78
f 678 448 110
f 418 468 627
f 302 627 468
f 91 383 163
f 170 830 396
f 685 278 460
f 684 245 176
f 415 3 789
f 99 95 147
f 87 529 152
f 511 731 823
f 327 372 59
f 163 749 466
f 589 317 727
f 382 10 79
f 677 288 640
f 597 433 769
f 606 839 251
f 303 438 128
f 305 72 213
f 386 313 244
f 102 107 58
f 763 206 821
f 462 420 508
f 34 104 5
f 595 243 589
f 813 264 237
f 685 460 131
f 666 15 713
f 210 221 150
f 455 270 673
f 44 157 173
f 232 199 95
f 837 662 245
f 678 110 334
f 386 305 160
f 322 587 824
f 523 688 312
f 305 348 702
f 810 463 700
f 587 316 766
f 596 193 121
f 15 78 487
f 748 426 822
f 251 567 454
f 625 621 135
f 828 129 557
f 61 280 144
f 587 38 260
f 572 595 399
f 484 65 292
f 728 318 33
f 751 816 579
f 487 491 651
f 678 334 320
f 556 499 83
f 236 119 447
f 150 490 263
f 402 758 665
f 725 289 692
f 144 143 116
f 271 504 522
f 124 525 732
f 514 111 113
f 35 829 740
f 105 763 805
f 488 149 87
f 636 314 138
f 570 377 17
f 493 479 283
f 259 762 782
f 793 165 41
f 18 445 132
f 115 586 118
f 180 703 215
f 736 85 153
f 267 194 413
f 687 633 205
f 443 261 809
f 146 27 751
f 112 174 255
f 621 273 192
f 845 375 172
f 106 122 721
f 242 761 115
f 584 651 491
f 652 846 796
f 798 832 778
f 479 802 283
f 312 688 701
f 270 570 583
f 199 26 127
f 3 359 173
f 677 784 11
f 363 146 751
f 404 478 267
f 442 579 35
f 497 304 120
f 35 740 771
f 569 40 720
f 133 223 492
f 597 769 220
f 135 540 228
f 736 153 618
f 86 756 154
f 819 771 486
f 262 371 698
f 323 519 774
f 277 523 591
f 648 581 635
f 165 238 806
f 693 2 176
f 444 551 224
f 471 737 112
f 526 375 655
f 299 592 334
f 178 678 331
f 437 317 189
f 606 421 839
f 322 816 435
f 575 620 519
f 367 835 683
f 443 809 836
f 169 168 704
f 399 595 589
f 27 260 507
f 574 66 536
f 763 821 159
f 819 531 771
f 667 186 566
f 548 648 635
f 750 783 286
f 361 826 467
f 500 457 172
f 251 240 567
f 446 41 767
f 164 85 736
f 560 687 385
f 473 47 472
f 72 797 525
f 762 88 443
f 65 617 71
f 210 150 304
f 432 285 208
f 643 352 465
f 521 201 232
f 696 285 432
f 487 78 491
f 97 125 795
f 150 221 490
f 542 464 187
f 394 582 31
f 638 339 562
f 285 292 208
f 440 54 406
f 567 734 454
f 428 236 141
f 691 755 445
f 380 109 171
f 482 756 664
f 539 672 113
f 511 647 284
f 440 406 627
f 376 261 443
f 461 591 710
f 418 613 102
f 309 256 425
f 342 600 694
f 185 32 745
f 805 159 200
f 587 77 38
f 269 676 165
f 759 733 188
f 467 314 803
f 51 49 218
f 546 813 229
f 570 457 500
f 802 674 384
f 665 48 524
f 769 433 220
f 633 409 205
f 208 672 539
f 639 69 556
f 249 337 287
f 282 272 186
f 791 25 561
f 785 351 44
f 827 547 117
f 818 164 736
f 700 463 445
f 549 222 481
f 437 727 317
f 696 168 659
f 411 549 481
f 446 767 675
f 258 309 226
f 791 561 181
f 525 249 830
f 423 471 811
f 696 432 168
f 397 728 348
f 384 496 607
f 202 258 226
f 119 216 506
f 223 97 492
f 552 51 187
f 85 367 374
f 779 204 405
f 354 84 573
f 339 557 562
f 14 243 595
f 509 695 181
f 308 161 14
f 626 275 649
f 756 553 319
f 27 507 816
f 153 379 496
f 597 769 24
f 688 219 701
f 204 211 420
f 305 213 160
f 811 356 649
f 757 474 43
f 760 502 78
f 239 792 358
f 41 806 767
f 600 610 307
f 248 628 594
f 652 195 278
f 228 446 675
f 324 228 266
f 600 315 694
f 785 626 351
f 732 830 170
f 186 272 416
f 102 347 107
f 71 178 331
f 735 339 638
f 539 113 737
f 559 25 588
f 372 825 59
f 210 607 221
f 757 92 624
f 423 811 275
f 619 173 157
f 400 527 710
f 800 595 572
f 416 722 428
f 167 793 41
f 748 522 504
f 632 727 166
f 149 29 311
f 81 281 628
f 393 710 682
f 284 647 823
f 245 662 693
f 625 135 216
f 192 724 167
f 477 580 754
f 144 497 120
f 488 127 26
f 549 663 335
f 840 308 14
f 601 835 367
f 556 401 175
f 534 653 844
f 471 655 811
f 81 530 281
f 503 612 391
f 215 703 814
f 10 39 79
f 215 814 108
f 535 229 645
f 562 129 268
f 584 491 776
f 90 777 425
f 47 602 472
f 55 350 776
f 612 823 731
f 250 430 729
f 300 268 84
f 87 149 529
f 516 715 663
f 584 776 686
f 494 764 37
f 606 515 421
f 811 845 356
f 167 41 446
f 189 732 424
f 585 560 456
f 749 545 614
f 439 346 699
f 108 814 244
f 63 12 337
f 564 800 291
f 807 216 119
f 830 249 287
f 351 455 673
f 830 287 396
f 578 323 272
f 788 568 533
f 45 23 480
f 437 424 439
f 396 42 82
f 578 555 278
f 254 255 148
f 619 158 501
f 802 390 441
f 797 162 249
f 205 409 408
f 56 187 218
f 181 561 656
f 156 348 386
f 632 166 786
f 185 750 32
f 342 846 600
f 90 211 204
f 219 562 268
f 157 351 455
f 440 627 302
f 831 18 134
f 782 762 443
f 137 808 650
f 97 368 258
f 500 50 733
f 326 303 128
f 632 569 271
f 299 695 592
f 602 81 628
f 806 238 34
f 834 332 21
f 418 392 818
f 666 74 15
f 74 760 15
f 456 299 110
f 133 11 223
f 294 827 140
f 331 320 67
f 257 246 8
f 260 77 507
f 792 49 51
f 818 712 407
f 823 343 225
f 604 735 401
f 170 742 346
f 237 264 739
f 266 675 775
f 22 181 521
f 677 11 183
f 386 160 313
f 147 234 691
f 97 258 202
f 529 311 175
f 604 339 735
f 336 512 408
f 831 134 400
f 404 373 478
f 829 824 310
f 757 43 687
f 136 344 705
f 458 568 788
f 702 728 33
f 764 45 37
f 229 237 645
f 390 89 280
f 240 486 567
f 495 345 80
f 262 354 300
f 86 553 756
f 689 100 231
f 98 189 317
f 843 804 684
f 253 331 67
f 822 753 629
f 633 605 409
f 626 649 455
f 828 843 129
f 682 452 197
f 768 644 611
f 768 29 716
f 349 833 403
f 260 38 77
f 199 127 708
f 361 190 693
f 232 201 199
f 108 313 623
f 546 328 813
f 606 537 325
f 470 514 113
f 56 218 1
f 71 331 253
f 4 517 36
f 707 659 169
f 656 576 201
f 102 613 347
f 537 454 74
f 116 143 9
f 49 60 436
f 753 538 544
f 319 754 517
f 327 59 580
f 65 470 672
f 433 572 399
f 79 335 663
f 234 528 799
f 760 734 502
f 23 592 480
f 52 630 588
f 91 156 244
f 444 283 422
f 489 447 259
f 666 713 368
f 444 493 283
f 493 640 288
f 139 265 746
f 97 202 492
f 171 109 13
f 108 244 313
f 442 531 726
f 363 442 726
f 790 230 434
f 287 12 42
f 126 64 719
f 143 571 9
f 118 91 814
f 630 516 549
f 164 392 505
f 744 765 715
f 66 366 536
f 27 587 260
f 364 794 293
f 559 576 25
f 225 343 200
f 44 351 157
f 216 135 324
f 100 114 353
f 360 159 475
f 705 344 183
f 144 120 143
f 561 25 656
f 223 11 520
f 575 554 620
f 746 725 692
f 829 310 740
f 472 602 248
f 687 43 633
f 155 657 151
f 52 744 516
f 336 669 744
f 562 557 129
f 498 541 564
f 477 754 319
f 822 629 365
f 570 649 457
f 536 366 634
f 204 274 405
f 253 67 764
f 618 153 496
f 751 27 816
f 267 773 194
f 470 71 253
f 271 522 763
f 279 650 808
f 148 778 295
f 831 400 318
f 189 124 732
f 567 486 7
f 676 349 238
f 286 232 95
f 485 827 294
f 810 329 463
f 448 456 110
f 101 122 692
f 274 347 405
f 345 17 80
f 590 24 511
f 466 614 599
f 505 367 85
f 54 690 406
f 339 518 557
f 485 547 827
f 47 28 602
f 78 55 491
f 209 427 684
f 798 37 6
f 146 9 70
f 46 413 541
f 437 321 727
f 665 513 543
f 190 410 693
f 500 733 377
f 118 814 703
f 699 558 538
f 27 294 587
f 643 68 352
f 493 808 479
f 3 619 501
f 749 614 466
# 1714 faces, 0 coords texture

# End of File