####
#
# OBJ File Generated by Meshlab
#
####
# Object domain218.obj
#
# Vertices: 532
# Faces: 1062
#
####
v 139.501038 244.069672 127.779655
v 130.385162 242.017990 122.518745
v 136.528427 248.175308 123.211517
v 132.435959 268.094574 122.520180
v 136.778961 258.136932 122.830284
v 127.226402 264.264313 123.330879
v 127.898865 270.139343 128.461731
v 136.566879 264.287872 123.139015
v 139.985596 276.017853 129.319443
v 140.621643 256.127075 132.461746
v 129.621552 268.083221 132.153687
v 130.365433 242.670883 130.472458
v 134.486725 276.295135 134.168945
v 127.075600 258.133026 128.221375
v 132.435913 244.069061 122.513618
v 132.440933 278.087646 130.603394
v 128.190292 262.222473 130.611328
v 128.346878 248.170746 122.634537
v 132.448318 266.043671 133.369492
v 127.813210 250.196945 130.725510
v 136.828308 276.295074 134.152588
v 139.639725 246.121445 127.732887
v 125.853851 251.964294 124.193649
v 136.829620 258.132874 133.456131
v 128.985901 275.240784 127.251205
v 138.817993 277.295990 129.477768
v 128.342545 244.069092 122.609512
v 130.436234 277.332886 129.389984
v 130.454910 244.567245 132.223633
v 126.046753 252.007980 123.463852
v 132.435883 264.286102 122.510460
v 128.964401 250.225891 132.300583
v 127.552444 271.463562 123.435356
v 140.308121 268.104492 128.468903
v 132.435989 260.183807 122.503799
v 136.828781 264.285950 133.446472
v 134.472824 248.171387 122.642723
v 136.600723 238.598495 123.985435
v 134.486938 250.222153 133.480957
v 132.435883 278.368500 133.247726
v 134.486954 242.598007 130.502731
v 139.291763 266.046112 126.264763
v 129.010620 254.007263 132.253860
v 138.795853 254.037216 133.093674
v 127.619759 270.126678 123.269089
v 127.337502 268.403320 127.046776
v 128.080399 272.162415 128.267792
v 128.277710 244.102051 130.968185
v 138.503464 274.270996 126.318863
v 138.806656 242.929413 130.318512
v 134.484741 277.929718 133.709732
v 136.829468 256.081940 133.451157
v 138.865570 270.146301 133.310104
v 138.699600 250.230392 132.952301
v 141.453033 274.947815 133.075714
v 127.384865 265.918121 123.342476
v 136.849945 241.698776 129.031387
v 126.034348 258.116272 124.244576
v 139.883270 252.003860 127.947685
v 132.435852 251.980042 122.510429
v 128.825806 274.229187 130.646912
v 136.546722 250.226074 123.183189
v 141.137390 269.290527 131.901749
v 140.031219 276.175018 133.557220
v 138.803009 266.044434 133.138702
v 128.403870 270.113068 122.891769
v 126.550491 248.161880 123.133125
v 128.394043 266.042206 122.781853
v 140.277786 274.140472 128.918686
v 130.386047 241.622131 129.087067
v 138.141098 256.069305 123.961563
v 127.225174 251.982040 129.067535
v 125.959747 241.989120 124.167175
v 136.528610 246.119843 123.214508
v 139.855621 277.761169 132.749664
v 138.341415 270.132507 124.126884
v 132.435684 242.018204 122.523636
v 134.483398 256.081879 122.581978
v 134.486206 272.178497 133.677399
v 130.385605 264.285950 122.522377
v 139.672592 273.114319 127.393181
v 137.997330 248.251526 124.368660
v 125.846245 246.123184 124.199417
v 130.390793 238.308594 124.169914
v 139.403671 260.183777 126.516693
v 130.384979 254.031128 122.508530
v 138.797195 276.318115 134.039963
v 125.995323 248.334656 123.660011
v 132.435867 254.031067 122.513382
v 130.388351 270.127228 122.679672
v 127.721031 246.200302 130.804779
v 126.698952 262.183502 123.996162
v 134.483566 260.182526 122.573341
v 132.437592 273.891052 124.561455
v 136.825729 251.980286 133.414948
v 137.996323 273.480103 125.162506
v 128.391403 242.960464 130.148880
v 127.188705 262.225983 128.186630
v 139.526321 274.345093 127.719360
v 139.230667 264.313019 126.297241
v 134.487091 258.132843 133.488770
v 128.343552 246.119934 122.618515
v 130.385437 260.183777 122.520004
v 130.615982 272.235138 132.960159
v 129.713409 277.935577 133.285461
v 132.434296 238.181122 123.057541
v 132.440598 256.081909 133.418030
v 140.354340 258.150391 128.684998
v 134.487167 266.044067 133.485718
v 139.654129 277.981262 133.530273
v 141.172226 270.193115 132.133530
v 141.375183 274.827393 133.138657
v 137.882050 240.694839 126.069550
v 128.408585 268.091919 122.817169
v 126.222672 244.072372 126.157722
v 130.468002 251.978806 133.119064
v 132.439743 254.031021 133.427979
v 129.646957 277.255951 130.863297
v 132.435898 262.234985 122.513618
v 132.436874 274.982422 125.746597
v 139.845184 252.307358 132.218246
v 138.839691 275.046356 133.977219
v 128.360077 260.182709 122.697868
v 127.399765 241.172882 127.429916
v 139.178314 248.191971 126.404228
v 126.304207 260.183319 124.043777
v 134.479111 272.695435 123.541161
v 128.495834 266.040070 130.754150
v 127.297043 270.089691 123.928802
v 136.770233 270.129700 122.888474
v 134.471252 242.018982 122.655754
v 140.254211 264.377136 128.772354
v 138.853653 277.962280 133.736420
v 138.472702 275.448944 127.215752
v 127.156815 238.100677 123.161880
v 129.399521 276.770142 129.527466
v 132.437180 275.800049 126.755920
v 129.718353 277.029419 133.711960
v 127.275574 242.162216 128.253342
v 132.436111 258.132843 122.499916
v 134.487000 278.111298 130.595261
v 130.384995 244.068924 122.508537
v 130.468338 250.224106 133.117096
v 130.385086 248.171219 122.512825
v 136.710983 239.874893 126.012634
v 141.071136 261.278442 131.813675
v 126.852219 251.978165 128.000900
v 139.362625 268.094788 126.232361
v 136.808655 271.693848 123.160049
v 126.053596 246.095154 123.463341
v 130.385651 262.234894 122.526680
v 129.547882 274.334229 132.295227
v 128.975983 251.971954 132.293594
v 134.486435 273.989502 133.983475
v 136.705521 272.559723 123.692047
v 128.366226 240.904617 127.738815
v 139.474457 244.893646 131.844666
v 132.435989 242.599838 130.501450
v 128.115814 260.173584 130.639938
v 126.898766 254.043777 127.979370
v 129.650681 270.145599 132.138901
v 125.972992 250.139603 123.700302
v 140.599274 258.132477 132.487976
v 127.127693 238.082520 123.134636
v 126.503372 242.092300 126.075974
v 127.736443 268.078583 128.495987
v 139.274078 254.020355 126.293358
v 137.670151 268.705109 123.273766
v 134.485504 244.515564 132.342606
v 132.435974 241.583450 129.115875
v 125.872856 244.071701 124.163292
v 140.900360 262.141510 130.815979
v 128.351303 238.161789 123.066628
v 132.435974 256.082001 122.506615
v 127.911148 258.096710 130.425888
v 136.819305 276.693481 128.136093
v 132.449554 278.491821 132.284210
v 128.326965 238.089630 123.186592
v 137.973434 264.284607 124.189690
v 141.150558 258.058136 130.835403
v 139.031570 246.121384 126.190689
v 130.385864 266.044067 122.526711
v 141.607559 275.220123 132.952118
v 127.905533 254.026337 130.715134
v 139.915466 277.362823 130.860352
v 134.462845 239.984680 122.761475
v 130.385101 251.980148 122.506821
v 126.549446 258.132843 126.507866
v 138.115143 252.026855 124.397041
v 140.361008 252.088898 130.598083
v 137.541138 240.132141 124.439293
v 126.083008 241.241089 123.433357
v 130.388229 239.547485 126.234947
v 126.220459 259.453644 123.435913
v 130.579193 262.228607 132.929810
v 134.487228 268.095245 133.483749
v 134.484970 270.127960 122.676292
v 140.243607 266.049530 128.541046
v 128.378494 262.234558 122.747910
v 131.395264 275.058655 133.962296
v 134.487122 260.183807 133.487167
v 138.035187 266.070160 124.145462
v 130.385101 246.120071 122.508141
v 134.486954 240.702744 127.876457
v 125.949799 242.012482 123.365997
v 132.435806 246.120026 122.513634
v 128.991623 246.207947 132.181015
v 128.273666 264.227142 130.555145
v 136.528061 244.068314 123.214165
v 141.050064 272.217285 132.158188
v 136.827225 242.645966 130.469604
v 128.418457 271.467743 123.235870
v 136.823257 250.222794 133.394470
v 141.143784 260.242432 130.875519
v 128.407761 238.420212 124.071007
v 128.970810 248.181274 132.273010
v 130.638641 268.091553 132.868851
v 134.486771 270.145447 133.523590
v 136.828705 266.044037 133.445404
v 127.862892 251.977081 130.732910
v 130.446091 276.599579 128.194153
v 138.835281 260.181915 133.205780
v 127.446617 270.217865 126.578201
v 126.165222 246.147385 126.251030
v 132.446701 262.235016 133.376572
v 138.816498 262.231812 133.155823
v 136.825226 278.494629 132.282394
v 139.296906 250.228821 126.556435
v 129.035416 256.058624 132.205688
v 129.266342 260.082550 132.173553
v 130.381531 238.078033 123.200363
v 134.486847 278.505493 132.277985
v 137.870056 246.125885 124.249733
v 139.619705 250.464050 132.212173
v 134.478897 262.232666 122.617065
v 134.472916 238.340149 124.151939
v 138.803268 278.356964 132.351532
v 139.443481 242.630737 129.093048
v 134.486847 274.993469 134.134003
v 134.475037 251.979904 122.627556
v 139.414291 258.042114 126.366669
v 140.430954 268.223694 132.332825
v 126.117798 256.081757 123.424507
v 134.486526 275.805939 126.751198
v 127.492615 264.464813 128.710205
v 136.780380 273.736633 124.707680
v 127.645752 242.987793 129.591614
v 141.113998 255.246811 131.837036
v 138.835159 256.083374 133.192642
v 138.904053 276.191895 128.271942
v 139.632812 243.260361 130.116943
v 141.191132 260.177338 131.799088
v 127.651489 266.076263 128.752930
v 126.968483 265.898987 124.101875
v 138.790588 243.607437 131.173264
v 134.487061 256.082062 133.491104
v 134.472412 246.119995 122.645721
v 134.472534 244.068939 122.645309
v 132.436493 271.727936 123.020226
v 140.904434 268.180206 130.688538
v 138.963943 274.089996 133.817841
v 138.269043 260.258087 124.139870
v 128.343109 251.980469 122.610626
v 130.385162 250.221954 122.511246
v 127.360802 245.577621 130.061020
v 132.443008 248.178879 133.354996
v 128.367462 239.989120 122.771759
v 126.446030 242.046310 123.042572
v 137.841080 244.070953 124.258369
v 138.069626 250.231293 124.381569
v 130.415390 275.671143 126.865837
v 141.089905 274.396454 131.171097
v 125.984352 256.157440 124.258331
v 138.739304 244.632736 132.135437
v 126.893295 240.160172 123.255234
v 136.839676 277.931519 133.714859
v 139.435806 248.197113 132.252640
v 132.439255 250.222336 133.432358
v 136.828049 278.086212 130.605057
v 128.345734 250.222748 122.626671
v 140.604507 260.154358 132.453796
v 140.066437 248.139679 130.510773
v 126.587143 240.248825 123.990715
v 130.529190 278.276520 132.358261
v 127.242142 240.413452 125.893761
v 134.486343 276.772247 128.076065
v 134.486557 258.132019 122.542709
v 138.815735 277.907318 130.683884
v 126.782082 246.190964 128.414368
v 130.398422 271.703857 123.064217
v 136.448563 239.979889 123.311798
v 132.422668 274.006378 133.904892
v 136.828918 262.234863 133.445694
v 137.690735 256.952576 123.235672
v 136.551163 251.979782 123.167862
v 136.829437 260.183746 133.452652
v 136.827148 277.488281 129.323166
v 127.459915 262.234650 129.004196
v 136.823898 260.220520 122.961319
v 127.184845 250.865616 129.086761
v 136.795181 274.828522 125.884026
v 136.829315 268.095306 133.453812
v 132.438126 244.518753 132.335510
v 138.667923 246.244400 132.703247
v 132.438843 251.980057 133.438675
v 138.745087 251.989029 133.010544
v 140.718338 254.068710 130.782455
v 138.837799 258.132965 133.214859
v 139.814392 250.222137 127.974281
v 128.705093 274.120422 126.356087
v 132.435104 238.294144 124.178970
v 140.392838 270.198975 128.506683
v 139.779343 244.087936 128.845322
v 136.807144 240.875885 127.747093
v 126.494728 251.991165 123.062943
v 136.827881 254.031128 133.432236
v 139.952301 263.965729 127.917999
v 130.522003 258.125641 133.000229
v 136.831635 273.992859 133.963226
v 130.492722 256.077057 133.049591
v 137.700638 270.137787 123.231186
v 127.181519 268.006683 124.028366
v 132.437485 272.195190 133.538910
v 132.442825 258.132629 133.401443
v 129.119446 258.082886 132.141388
v 130.428009 272.610992 123.612015
v 128.479950 274.058716 128.329086
v 130.384903 258.132843 122.509178
v 127.043106 256.099121 128.238403
v 126.117271 258.127716 123.401451
v 136.516113 242.021057 123.236732
v 127.209793 264.082367 127.876953
v 130.391586 273.783051 124.664185
v 126.703773 260.070770 123.275711
v 134.476364 254.031464 122.622101
v 132.446716 246.213974 133.057465
v 130.433289 243.433594 131.302734
v 128.961533 244.795197 131.830185
v 139.183746 272.156464 126.318649
v 140.492661 272.312897 132.868622
v 140.367279 272.182068 128.626312
v 138.186798 267.985504 123.994522
v 140.300140 256.078247 128.525146
v 141.146561 270.070129 130.809448
v 137.751114 258.125977 123.188560
v 141.352798 274.903229 133.159897
v 138.553879 242.107727 126.272835
v 139.785828 244.118805 130.570877
v 127.177277 268.001373 126.342293
v 127.762138 248.162262 130.736221
v 126.213165 248.177505 126.430534
v 132.435883 250.221863 122.510323
v 129.462982 265.919861 132.118729
v 138.442032 241.335709 127.596565
v 139.326462 251.969025 126.537338
v 130.588409 274.442322 133.371948
v 138.938766 244.078247 126.222992
v 130.492599 276.382019 133.869980
v 129.470169 278.246460 133.850891
v 138.872833 272.200714 133.490173
v 132.444916 260.183563 133.385178
v 130.497025 277.833649 130.680511
v 140.109238 264.243774 132.318588
v 132.434662 239.978989 122.637024
v 138.984314 242.062088 128.416626
v 140.376587 262.233459 128.983093
v 140.367767 254.234512 132.254517
v 136.831375 270.145569 133.511307
v 128.678101 270.142456 130.666153
v 126.234222 250.298050 126.375763
v 130.386795 239.979385 122.640663
v 130.385101 256.081970 122.508507
v 138.012634 254.051300 124.174095
v 126.488419 254.031158 123.057724
v 132.435959 240.682114 127.892937
v 139.936600 262.235077 127.931046
v 134.487076 264.285919 133.486908
v 132.438141 276.767883 128.079163
v 130.478378 254.028183 133.086929
v 138.112595 262.141479 124.287010
v 127.577705 271.332764 123.249687
v 140.501404 260.070160 129.089371
v 126.060669 254.029327 123.442574
v 136.580063 254.048935 123.121284
v 130.483093 248.187012 133.052872
v 126.044891 244.048737 123.437973
v 136.829987 274.996124 134.122177
v 125.833130 248.063934 124.375710
v 127.352623 258.133423 129.040253
v 140.152924 250.280502 130.634888
v 134.486755 243.341919 131.377274
v 141.117844 258.128845 131.795639
v 136.807266 268.067017 122.967758
v 136.583176 262.213165 123.111786
v 138.456802 258.220001 124.254242
v 127.917709 272.121307 126.485779
v 137.677567 259.530457 123.275581
v 132.439301 272.703766 123.529785
v 127.400665 260.183502 129.025482
v 134.481628 239.561523 126.225067
v 139.374908 270.145844 126.226349
v 127.158569 262.181702 123.316277
v 127.415718 270.799194 125.026703
v 136.824158 243.368118 131.354965
v 128.342361 254.031021 122.608002
v 126.485703 244.067963 123.053787
v 136.836334 278.363770 133.243820
v 128.605850 268.088593 130.690506
v 134.486786 277.525635 129.300247
v 140.448593 262.198212 132.276901
v 130.505447 246.245071 132.824921
v 134.486740 248.176956 133.401810
v 126.645821 260.179443 126.479530
v 126.854065 264.302429 126.153839
v 132.435883 248.171036 122.513794
v 139.950378 248.173218 128.821411
v 127.322960 267.196686 127.447449
v 132.451035 276.288605 134.148758
v 130.415482 274.821716 125.889259
v 141.118790 256.105896 130.829346
v 140.535065 276.107605 130.649078
v 127.287605 269.709259 125.968857
v 132.435867 270.132080 122.644089
v 130.383789 238.179901 123.054474
v 136.777786 256.091614 122.981819
v 128.690491 273.305573 124.989700
v 128.383530 264.285950 122.760201
v 136.823120 244.537354 132.305542
v 130.397324 278.270020 133.344101
v 130.385239 240.709839 127.873154
v 140.100021 266.082153 132.309326
v 138.819763 268.100616 133.173706
v 129.628586 276.399109 133.006531
v 139.719849 278.154083 133.361267
v 132.450928 268.094971 133.354034
v 137.592590 271.371643 123.396736
v 139.970444 260.186859 127.912102
v 139.329239 256.081940 126.246971
v 140.630173 270.174805 132.664505
v 140.156311 254.120102 128.485474
v 136.508087 238.101791 123.192070
v 129.360825 264.262360 132.092773
v 132.434387 238.077438 123.199997
v 130.386734 268.094330 122.549774
v 127.539917 244.059570 130.041550
v 138.002228 272.075470 124.221748
v 140.001114 259.050201 127.882874
v 127.575119 268.058075 123.307518
v 126.926346 250.172440 128.408142
v 132.436050 239.511353 126.260132
v 134.487076 254.031174 133.490555
v 137.751022 242.034851 124.306030
v 128.738312 272.192688 130.649200
v 134.487183 262.234863 133.483414
v 140.094574 252.106995 128.707092
v 129.307465 262.210876 132.115494
v 134.487411 271.721252 123.038162
v 134.475098 250.222153 122.628052
v 132.438873 243.341858 131.378220
v 132.435852 266.043976 122.510590
v 139.546616 246.071045 132.118210
v 134.487320 241.589630 129.111649
v 126.817421 244.082062 128.144775
v 140.665192 264.266083 130.577118
v 140.027573 250.225830 128.806885
v 128.394699 241.865509 128.880249
v 136.593140 266.066559 123.090347
v 132.448410 270.148712 133.379562
v 125.903503 254.021423 124.150833
v 130.641525 270.148895 132.866211
v 127.261230 254.031128 129.057770
v 126.229874 251.991409 126.146568
v 127.976379 256.133545 130.724609
v 128.344101 242.019852 122.627602
v 127.301483 256.083008 129.049850
v 129.510956 278.250153 133.828125
v 127.231697 266.036072 127.479332
v 127.025284 266.050018 126.482788
v 126.556564 250.235916 123.133392
v 139.691925 248.031250 127.757484
v 132.427750 277.938354 133.727020
v 134.483063 268.093781 122.592354
v 126.836304 264.227203 123.984535
v 129.138367 276.175964 130.672943
v 139.996796 246.234161 130.665543
v 132.437424 277.511353 129.307755
v 134.469513 238.178772 123.078720
v 129.628723 272.213470 132.165634
v 128.215073 272.231018 124.158730
v 130.614685 266.037689 132.903076
v 126.499443 256.080963 123.064995
v 125.830345 250.301025 124.426498
v 139.721756 277.054932 129.870804
v 126.771812 262.256104 126.356483
v 126.306396 254.024628 126.141701
v 134.478989 238.089081 123.202507
v 134.485672 246.210251 133.078491
v 128.342804 256.082001 122.611320
v 128.406189 239.783783 126.074028
v 141.238388 256.082977 131.846344
v 126.481743 258.109161 123.080978
v 136.831482 272.178772 133.672348
v 136.813583 246.221710 133.018677
v 138.678284 248.186508 132.900894
v 139.287872 262.314941 126.394623
v 134.483795 273.882202 124.570503
v 129.087204 276.046021 128.511551
v 141.132370 272.187866 130.948532
v 138.804047 264.285309 133.140076
v 132.440140 274.972778 134.126923
v 130.374207 277.991241 133.746643
v 134.486969 251.980042 133.490707
v 127.122269 260.183594 128.206741
v 126.431557 255.958893 126.382896
v 128.343292 258.133636 122.629547
v 127.152748 238.589233 123.534744
v 126.494141 246.113495 123.066162
v 130.545258 260.184235 132.966965
v 138.860306 278.362335 133.276932
v 136.469589 238.080124 123.189049
v 139.919937 246.123352 128.836182
v 136.827393 275.697235 126.824295
v 134.486191 274.981903 125.746696
v 136.816544 248.181931 133.304153
v 140.664825 266.069122 130.552505
v 132.447418 264.286041 133.373962
v 137.007370 239.130905 124.030540
v 126.862541 248.167816 128.502060
v 134.478210 266.044434 122.607979
v 134.475357 264.286041 122.626732
v 134.485672 278.363373 133.241928
v 130.591797 264.283051 132.919754
# 532 vertices, 0 vertices normals

f 255 348 251
f 364 371 106
f 306 121 234
f 367 248 307
f 221 137 378
f 336 411 385
f 457 130 149
f 182 444 114
f 82 62 3
f 391 169 428
f 48 29 337
f 432 368 53
f 128 408 353
f 399 513 98
f 175 159 325
f 254 478 414
f 416 390 465
f 486 141 16
f 484 118 433
f 391 428 404
f 249 308 10
f 357 1 22
f 488 356 104
f 406 268 474
f 55 272 112
f 243 273 383
f 109 196 219
f 194 126 330
f 498 86 372
f 401 312 341
f 298 208 17
f 48 265 91
f 484 136 118
f 104 356 323
f 54 234 277
f 47 327 61
f 184 473 43
f 322 422 349
f 128 253 408
f 100 198 42
f 526 19 377
f 338 207 29
f 298 245 208
f 259 457 127
f 367 10 500
f 433 476 138
f 528 224 351
f 458 3 62
f 165 463 139
f 59 455 440
f 462 211 57
f 55 112 346
f 36 509 226
f 474 267 371
f 92 414 494
f 495 469 514
f 69 508 272
f 133 110 64
f 275 173 267
f 278 305 39
f 456 208 442
f 233 269 181
f 205 192 275
f 484 433 152
f 256 101 52
f 432 242 431
f 517 88 150
f 257 74 37
f 128 442 208
f 304 504 461
f 510 239 154
f 454 293 296
f 472 23 495
f 20 220 32
f 300 72 220
f 199 103 151
f 314 354 113
f 350 528 449
f 418 13 239
f 283 516 135
f 505 317 100
f 369 7 453
f 209 452 269
f 134 176 522
f 256 52 316
f 375 204 400
f 197 393 130
f 48 338 29
f 505 376 317
f 496 520 441
f 363 431 464
f 527 113 191
f 4 482 423
f 250 493 26
f 504 277 461
f 206 415 144
f 28 486 16
f 444 460 4
f 241 447 437
f 373 71 425
f 158 459 41
f 347 365 1
f 364 186 77
f 165 115 463
f 263 264 187
f 372 89 174
f 206 258 257
f 236 38 520
f 415 352 264
f 83 224 171
f 342 393 202
f 507 28 136
f 60 86 187
f 412 39 524
f 510 418 239
f 334 402 92
f 222 281 163
f 311 450 236
f 470 468 435
f 217 435 19
f 117 451 512
f 41 391 211
f 396 327 47
f 397 395 262
f 415 37 352
f 459 391 41
f 102 203 18
f 126 494 413
f 73 192 205
f 156 430 193
f 308 222 163
f 507 221 28
f 198 464 525
f 323 79 218
f 72 471 184
f 222 226 281
f 303 336 169
f 309 465 455
f 115 171 224
f 489 426 310
f 118 362 284
f 420 500 180
f 26 185 288
f 414 477 332
f 34 344 312
f 270 189 295
f 521 282 416
f 44 52 249
f 23 162 30
f 375 170 204
f 327 507 484
f 326 94 333
f 126 92 494
f 199 6 402
f 356 358 200
f 290 259 398
f 294 5 425
f 133 407 519
f 43 379 116
f 348 157 461
f 229 320 379
f 471 475 473
f 366 214 172
f 383 315 374
f 409 279 141
f 87 276 133
f 293 36 226
f 239 13 387
f 468 323 218
f 126 413 58
f 234 121 390
f 180 500 392
f 364 106 487
f 216 385 411
f 435 196 109
f 188 513 14
f 115 289 463
f 1 313 521
f 483 254 414
f 263 187 405
f 220 153 32
f 233 3 74
f 196 302 219
f 53 439 242
f 312 344 341
f 443 496 487
f 375 430 70
f 339 81 99
f 287 425 5
f 250 9 493
f 154 319 502
f 131 331 258
f 342 321 168
f 373 425 384
f 77 142 2
f 471 329 475
f 472 160 147
f 448 68 114
f 17 208 456
f 305 512 39
f 272 210 112
f 65 219 302
f 311 84 193
f 37 3 458
f 450 193 430
f 488 152 356
f 388 88 492
f 410 363 172
f 55 346 272
f 82 125 228
f 514 188 14
f 498 515 501
f 347 113 365
f 357 269 452
f 182 460 444
f 482 393 197
f 278 39 412
f 496 236 520
f 281 146 252
f 369 161 11
f 286 176 297
f 389 159 175
f 110 434 75
f 51 276 21
f 119 235 31
f 349 46 166
f 433 358 356
f 226 410 281
f 167 59 440
f 77 131 15
f 177 531 40
f 35 287 93
f 8 179 467
f 304 524 504
f 519 407 227
f 353 217 490
f 423 197 259
f 478 349 417
f 274 404 428
f 450 375 400
f 288 75 237
f 362 177 284
f 474 2 27
f 170 462 204
f 383 469 30
f 23 492 162
f 158 70 12
f 102 67 517
f 523 246 301
f 335 384 78
f 15 206 203
f 255 157 348
f 365 238 313
f 42 198 34
f 25 419 271
f 55 64 346
f 204 462 314
f 462 41 211
f 461 277 282
f 181 480 125
f 285 499 215
f 429 40 481
f 458 62 240
f 16 232 177
f 373 167 438
f 122 21 87
f 140 287 35
f 48 91 338
f 261 387 122
f 80 119 31
f 243 330 58
f 491 405 498
f 345 299 5
f 212 381 66
f 13 21 387
f 289 224 528
f 240 295 335
f 185 421 75
f 65 431 363
f 431 525 464
f 189 373 384
f 207 411 29
f 26 288 297
f 481 51 13
f 444 66 114
f 465 190 455
f 119 93 235
f 308 24 296
f 164 135 516
f 235 299 394
f 18 280 479
f 86 89 372
f 118 284 105
f 511 481 418
f 347 1 357
f 18 144 280
f 497 503 428
f 446 76 339
f 432 53 242
f 304 461 157
f 167 343 438
f 47 7 223
f 480 416 465
f 418 481 13
f 470 104 468
f 123 103 199
f 367 500 248
f 109 219 36
f 421 272 346
f 97 247 445
f 242 111 63
f 133 519 110
f 76 401 339
f 8 380 179
f 72 147 160
f 345 395 397
f 408 11 353
f 288 185 75
f 376 132 317
f 273 514 469
f 245 332 477
f 453 61 488
f 10 163 392
f 43 229 379
f 266 385 143
f 48 337 12
f 363 464 172
f 38 145 527
f 352 458 60
f 180 392 214
f 168 130 393
f 325 318 320
f 140 78 287
f 20 32 216
f 205 268 386
f 427 151 80
f 55 183 112
f 89 335 174
f 153 116 143
f 231 443 106
f 318 518 324
f 91 265 289
f 321 149 130
f 520 38 527
f 167 440 343
f 97 445 48
f 161 104 470
f 108 382 447
f 326 398 94
f 128 208 253
f 490 217 19
f 403 489 396
f 231 106 424
f 80 182 68
f 311 193 450
f 310 25 507
f 308 296 222
f 491 374 405
f 37 74 3
f 508 210 272
f 388 492 370
f 378 286 409
f 42 148 202
f 471 473 184
f 505 85 376
f 47 61 453
f 42 34 148
f 128 353 442
f 465 390 190
f 69 272 9
f 280 264 263
f 201 454 296
f 102 18 67
f 60 89 86
f 444 4 90
f 504 524 213
f 486 409 141
f 259 197 457
f 170 41 462
f 206 144 203
f 344 111 508
f 489 310 396
f 121 190 390
f 225 526 454
f 87 21 276
f 311 443 84
f 82 270 62
f 141 227 232
f 287 5 93
f 424 267 173
f 449 370 147
f 274 255 404
f 249 52 24
f 383 30 315
f 403 396 223
f 389 14 513
f 159 230 325
f 108 180 382
f 47 453 7
f 349 422 46
f 280 144 264
f 308 163 10
f 194 501 334
f 347 191 113
f 459 303 169
f 212 326 489
f 377 36 293
f 350 216 207
f 292 154 79
f 174 78 140
f 304 503 524
f 164 516 178
f 377 109 36
f 494 332 98
f 275 267 268
f 460 529 4
f 31 530 460
f 431 242 525
f 53 360 439
f 291 191 331
f 529 467 482
f 345 397 299
f 56 68 448
f 360 502 319
f 473 229 43
f 483 6 254
f 419 120 271
f 335 295 384
f 65 302 432
f 261 55 340
f 91 528 350
f 235 394 530
f 394 262 380
f 303 29 411
f 89 240 335
f 446 155 149
f 292 510 154
f 504 54 277
f 73 171 115
f 373 438 71
f 127 246 506
f 489 333 426
f 459 169 391
f 211 404 50
f 318 324 107
f 49 339 99
f 122 64 55
f 27 2 142
f 360 319 261
f 77 15 142
f 369 453 161
f 298 98 332
f 343 420 108
f 348 461 485
f 266 412 497
f 49 99 250
f 20 300 220
f 78 384 425
f 419 94 120
f 186 441 291
f 388 351 83
f 260 63 344
f 478 417 477
f 65 509 219
f 161 488 104
f 32 143 385
f 451 256 316
f 101 24 52
f 34 525 260
f 529 8 467
f 303 411 336
f 456 532 195
f 87 133 64
f 50 255 251
f 75 421 346
f 42 202 179
f 56 448 322
f 108 420 180
f 148 34 312
f 468 218 196
f 46 223 7
f 451 316 95
f 398 506 94
f 375 70 170
f 412 524 503
f 288 279 297
f 523 301 244
f 346 112 183
f 280 315 479
f 266 143 278
f 271 137 221
f 82 228 270
f 399 17 159
f 84 499 193
f 406 27 517
f 57 50 365
f 259 127 398
f 4 529 482
f 526 377 454
f 103 140 35
f 442 353 490
f 137 523 244
f 530 8 529
f 439 210 111
f 238 251 348
f 17 456 230
f 25 271 507
f 389 513 399
f 100 132 198
f 167 355 59
f 249 10 367
f 49 134 522
f 448 114 45
f 495 514 160
f 331 452 209
f 228 59 355
f 125 480 309
f 44 367 121
f 472 370 23
f 217 470 435
f 230 518 318
f 107 256 451
f 230 195 518
f 273 469 383
f 121 367 307
f 145 314 113
f 305 379 117
f 67 479 162
f 309 455 59
f 39 512 213
f 277 234 282
f 54 95 306
f 242 63 260
f 18 479 67
f 323 292 79
f 506 246 523
f 457 149 155
f 435 468 196
f 357 181 269
f 133 276 407
f 55 346 183
f 284 40 429
f 389 399 159
f 239 387 319
f 92 402 483
f 310 419 25
f 53 368 502
f 303 337 29
f 403 223 129
f 405 86 498
f 514 14 329
f 156 466 430
f 283 275 192
f 474 371 2
f 487 441 186
f 360 340 439
f 466 139 97
f 455 307 440
f 182 114 68
f 349 166 417
f 413 98 513
f 6 56 254
f 328 140 103
f 254 322 349
f 163 252 392
f 166 46 7
f 403 33 489
f 415 257 37
f 23 370 492
f 60 240 89
f 231 215 84
f 20 449 300
f 232 407 531
f 520 527 441
f 507 136 484
f 310 507 327
f 222 296 293
f 446 339 49
f 481 40 51
f 199 151 427
f 222 293 226
f 134 250 176
f 60 458 240
f 170 158 41
f 184 43 153
f 125 309 228
f 250 99 9
f 245 477 253
f 72 160 471
f 100 179 380
f 175 325 229
f 515 123 334
f 433 138 358
f 515 328 123
f 15 131 258
f 172 252 146
f 40 531 51
f 19 435 109
f 460 530 529
f 456 442 532
f 27 102 517
f 400 145 38
f 437 366 376
f 342 76 321
f 490 19 526
f 65 432 431
f 242 439 111
f 285 139 124
f 414 478 477
f 361 225 201
f 360 261 340
f 436 76 446
f 386 83 171
f 189 167 373
f 424 371 267
f 31 235 530
f 241 437 85
f 274 428 503
f 35 93 119
f 406 386 268
f 420 248 500
f 516 215 178
f 495 23 469
f 466 97 12
f 243 374 491
f 80 31 182
f 113 354 365
f 427 68 56
f 322 129 422
f 123 199 402
f 350 20 216
f 231 84 443
f 156 124 139
f 462 57 314
f 275 135 173
f 507 271 221
f 99 341 69
f 378 409 486
f 121 307 190
f 401 341 339
f 57 211 50
f 410 172 146
f 472 495 160
f 476 359 511
f 519 434 110
f 73 115 165
f 214 252 172
f 122 87 64
f 398 127 506
f 120 523 137
f 266 278 412
f 409 297 279
f 291 527 191
f 358 510 200
f 342 148 401
f 388 150 88
f 232 227 407
f 242 260 525
f 299 262 394
f 320 318 107
f 450 400 236
f 515 372 328
f 231 178 215
f 400 204 145
f 306 95 316
f 238 348 313
f 141 279 227
f 475 175 473
f 352 187 264
f 379 320 117
f 205 275 268
f 494 414 332
f 344 63 111
f 54 213 95
f 274 503 304
f 243 491 330
f 156 499 124
f 170 70 158
f 362 16 177
f 467 179 202
f 457 155 127
f 438 343 108
f 305 117 512
f 340 112 210
f 243 383 374
f 101 201 24
f 90 423 290
f 77 186 131
f 99 69 9
f 339 341 81
f 489 33 381
f 228 309 59
f 9 272 421
f 165 139 285
f 214 392 252
f 406 474 27
f 472 147 370
f 403 129 33
f 254 349 478
f 432 302 368
f 342 202 148
f 391 404 211
f 189 355 167
f 263 405 374
f 257 209 74
f 136 28 362
f 225 454 201
f 93 5 299
f 118 105 433
f 258 331 209
f 516 285 215
f 453 488 161
f 342 168 393
f 394 380 8
f 433 356 152
f 226 509 410
f 218 368 302
f 369 166 7
f 231 424 178
f 512 95 213
f 138 476 358
f 105 359 476
f 399 98 298
f 220 184 153
f 198 525 34
f 477 417 253
f 71 345 294
f 103 35 151
f 504 213 54
f 408 253 166
f 463 445 139
f 61 484 152
f 127 155 246
f 273 188 514
f 278 143 116
f 71 438 241
f 404 255 50
f 209 269 74
f 132 464 198
f 424 173 178
f 365 251 238
f 424 106 371
f 44 316 52
f 365 313 1
f 300 147 72
f 72 184 220
f 511 429 481
f 271 120 137
f 36 219 509
f 162 479 30
f 91 350 207
f 283 285 516
f 352 37 458
f 270 355 189
f 261 122 55
f 395 85 262
f 350 449 20
f 386 150 83
f 73 205 171
f 64 110 75
f 100 317 132
f 406 150 386
f 240 62 295
f 137 244 378
f 102 142 203
f 91 207 338
f 158 12 337
f 181 22 480
f 341 508 69
f 356 200 292
f 476 511 358
f 491 501 330
f 427 56 6
f 117 107 451
f 16 141 232
f 11 470 217
f 336 266 497
f 436 446 149
f 85 437 376
f 28 16 362
f 402 6 483
f 212 290 326
f 237 75 434
f 347 357 452
f 306 44 121
f 58 413 188
f 281 410 146
f 307 248 420
f 22 521 416
f 283 135 275
f 280 263 315
f 123 328 103
f 197 130 457
f 290 423 259
f 311 236 496
f 491 498 501
f 508 111 210
f 505 262 85
f 446 96 155
f 244 522 286
f 364 2 371
f 96 49 301
f 71 294 425
f 18 203 144
f 454 377 293
f 459 337 303
f 93 299 235
f 426 333 310
f 406 517 150
f 174 335 78
f 286 522 176
f 336 385 266
f 104 323 468
f 189 384 295
f 164 173 135
f 88 162 492
f 45 114 66
f 324 361 101
f 145 113 527
f 233 125 82
f 194 334 126
f 463 289 265
f 204 314 145
f 249 24 308
f 51 531 276
f 509 363 410
f 376 366 132
f 285 124 499
f 22 416 480
f 447 382 437
f 201 296 24
f 475 389 175
f 294 345 5
f 358 418 510
f 78 425 287
f 84 215 499
f 446 49 96
f 341 344 508
f 288 237 279
f 343 307 420
f 461 282 485
f 96 301 246
f 49 522 301
f 158 337 459
f 268 267 474
f 80 151 119
f 450 430 375
f 19 109 377
f 321 76 436
f 274 304 157
f 88 67 162
f 61 152 488
f 79 154 502
f 91 289 528
f 263 374 315
f 65 363 509
f 347 452 191
f 408 369 11
f 169 497 428
f 71 241 395
f 168 321 130
f 310 333 419
f 314 57 354
f 254 56 322
f 9 421 493
f 342 401 76
f 399 298 17
f 81 341 99
f 364 77 2
f 441 527 291
f 237 227 279
f 107 324 256
f 313 485 521
f 325 230 318
f 207 216 411
f 286 297 409
f 396 47 223
f 105 429 359
f 156 139 466
f 13 51 21
f 129 223 422
f 131 291 331
f 188 413 513
f 366 172 132
f 512 451 95
f 258 209 257
f 532 490 526
f 11 161 470
f 489 326 333
f 221 486 28
f 466 70 430
f 148 312 401
f 466 12 70
f 352 60 187
f 443 487 106
f 372 174 328
f 194 330 501
f 469 23 30
f 361 201 101
f 300 449 147
f 90 4 423
f 45 381 33
f 448 45 129
f 473 175 229
f 164 178 173
f 358 511 418
f 396 310 327
f 212 489 381
f 463 265 445
f 45 66 381
f 531 407 276
f 333 94 419
f 49 250 134
f 467 202 393
f 528 351 449
f 97 48 12
f 449 351 370
f 334 92 126
f 53 502 360
f 79 502 368
f 153 43 116
f 438 108 241
f 395 241 85
f 163 281 252
f 229 325 320
f 159 17 230
f 216 32 385
f 455 190 307
f 123 402 334
f 233 82 3
f 416 282 390
f 340 55 112
f 177 232 531
f 284 177 40
f 521 485 282
f 44 249 367
f 100 42 179
f 115 224 289
f 365 50 251
f 233 181 125
f 437 382 366
f 250 26 176
f 94 506 120
f 417 166 253
f 92 483 414
f 57 365 354
f 444 90 66
f 64 75 346
f 195 225 361
f 122 387 21
f 278 116 305
f 136 362 118
f 199 427 6
f 306 316 44
f 270 295 62
f 154 239 319
f 195 532 225
f 413 494 98
f 26 297 176
f 532 526 225
f 328 174 140
f 230 456 195
f 493 421 185
f 364 487 186
f 206 257 415
f 482 467 393
f 356 292 323
f 105 284 429
f 505 100 380
f 530 394 8
f 378 244 286
f 270 228 355
f 415 264 144
f 83 351 224
f 440 307 343
f 382 214 366
f 518 361 324
f 212 66 90
f 97 139 247
f 15 203 142
f 237 519 227
f 357 22 181
f 311 496 443
f 517 67 88
f 1 521 22
f 321 436 149
f 422 223 46
f 298 332 245
f 32 153 143
f 388 370 351
f 182 31 460
f 331 191 452
f 261 319 387
f 433 105 476
f 320 107 117
f 212 90 290
f 151 35 119
f 243 58 273
f 382 180 214
f 471 160 329
f 39 213 524
f 34 260 344
f 236 400 38
f 327 484 61
f 313 348 485
f 515 334 501
f 10 392 500
f 427 80 68
f 496 441 487
f 71 395 345
f 200 510 292
f 120 506 523
f 315 30 479
f 126 58 330
f 518 195 361
f 497 412 503
f 439 340 210
f 26 493 185
f 405 187 86
f 73 165 283
f 442 490 532
f 397 262 299
f 475 329 14
f 73 283 192
f 274 157 255
f 245 253 208
f 423 482 197
f 27 142 102
f 514 329 160
f 15 258 206
f 322 448 129
f 480 465 309
f 290 398 326
f 196 218 302
f 132 172 464
f 96 246 155
f 359 429 511
f 233 74 269
f 129 45 33
f 244 301 522
f 237 434 519
f 336 497 169
f 205 386 171
f 505 380 262
f 156 193 499
f 353 11 217
f 48 445 265
f 234 390 282
f 54 306 234
f 324 101 256
f 408 166 369
f 218 79 368
f 305 116 379
f 498 372 515
f 186 291 131
f 388 83 150
f 241 108 447
f 475 14 389
f 139 445 247
f 273 58 188
f 221 378 486
f 283 165 285
# 1062 faces, 0 coords texture

# End of File