####
#
# OBJ File Generated by Meshlab
#
####
# Object domain0687.obj
#
# Vertices: 1486
# Faces: 2968
#
####
v 154.737091 59.326614 109.077629
v 154.894669 59.374603 108.829056
v 154.845398 59.220139 109.077690
v 154.839188 59.171146 110.000465
v 154.679199 59.319096 110.000275
v 154.833603 59.237267 110.920013
v 154.736740 59.329147 110.922249
v 154.892838 59.396675 111.126671
v 154.625549 59.788025 109.064705
v 154.850082 59.784401 108.679298
v 154.526230 59.788754 109.999840
v 154.636673 59.788502 110.926895
v 154.875687 59.789349 111.218773
v 154.593033 60.357620 109.052414
v 154.855362 60.358444 108.554253
v 154.479218 60.358051 109.999710
v 154.608521 60.357925 110.931374
v 154.861816 60.357899 111.248642
v 154.620956 60.927956 109.063202
v 154.843613 60.925419 108.681892
v 154.526093 60.927307 110.000237
v 154.637527 60.927170 110.927101
v 154.872650 60.927856 111.230370
v 154.736404 61.389126 109.077530
v 154.901474 61.334534 108.821877
v 154.678467 61.397614 109.999763
v 154.737152 61.389366 110.922264
v 154.903931 61.328922 111.139816
v 154.844650 61.495823 109.077980
v 154.836670 61.554943 110.000381
v 154.844147 61.493671 110.922028
v 155.304764 59.308620 108.656387
v 155.309357 59.102501 109.058060
v 155.300781 59.043949 109.993652
v 155.225250 59.189362 110.899544
v 155.200272 59.413021 111.175621
v 155.229355 59.712502 108.354340
v 155.290878 59.804104 111.340836
v 155.200256 60.357944 108.147301
v 155.558960 60.357330 107.882950
v 155.343445 60.093697 108.061455
v 155.303238 60.358871 111.406265
v 155.342896 60.622650 108.061996
v 155.226395 61.008499 108.359215
v 155.303162 60.926182 111.374718
v 155.316650 61.414413 108.660751
v 155.292267 61.351391 111.219254
v 155.304794 61.616749 109.061005
v 155.307343 61.690907 109.999916
v 155.291626 61.572357 110.921539
v 155.843430 59.202496 108.481171
v 155.902618 59.030422 109.018745
v 155.854065 59.023880 109.984062
v 155.557068 59.249722 110.956154
v 155.896942 59.158054 110.525269
v 155.598221 59.783920 108.024315
v 156.002884 59.893528 107.760941
v 155.903336 59.509239 108.032875
v 155.887299 59.447586 111.002907
v 155.824860 59.852848 111.280731
v 155.936996 60.355343 107.690811
v 155.859863 60.367561 111.384262
v 155.599533 60.928806 108.024590
v 156.007538 60.818447 107.762474
v 155.845947 60.913261 111.350342
v 155.902771 61.204494 108.037834
v 155.843491 61.511387 108.476761
v 155.768936 61.314781 111.190231
v 155.901169 61.685284 109.019104
v 155.871231 61.733418 109.994965
v 155.798691 61.543976 110.900917
v 156.213867 59.263046 108.059296
v 156.566193 59.388165 107.789513
v 156.538284 59.162739 108.094986
v 156.467575 58.973721 109.004448
v 156.457840 59.053215 109.959549
v 156.479874 59.279743 110.469650
v 156.486679 59.796513 107.588631
v 156.391785 59.605995 110.901413
v 156.286179 59.941723 111.163597
v 156.466431 60.360657 107.510841
v 156.311768 60.360458 111.235535
v 156.491806 60.921070 107.592918
v 156.270264 60.842075 111.204208
v 156.216797 61.445198 108.063416
v 156.568558 61.322632 107.794289
v 156.117081 61.440861 110.931656
v 156.412491 61.191551 110.940605
v 156.493317 61.500927 110.519470
v 156.539551 61.549114 108.097466
v 156.467621 61.746418 109.004814
v 156.436707 61.683533 109.980637
v 157.070389 59.308578 107.672958
v 157.063965 59.074604 108.055534
v 157.049515 58.954594 109.000381
v 157.033554 59.093826 109.936485
v 157.026672 59.321621 110.310570
v 157.015778 59.751648 107.385750
v 156.642853 59.827015 110.901787
v 157.073196 59.754208 110.605095
v 156.941620 60.358391 107.309639
v 156.720139 60.357998 110.963348
v 157.154480 60.358395 110.690453
v 157.024109 60.961979 107.395927
v 156.660248 60.903301 110.927185
v 157.077682 60.966183 110.613899
v 157.071472 61.390831 107.693459
v 157.019669 61.408100 110.325134
v 157.061600 61.620983 108.064629
v 157.048096 61.748169 108.999832
v 157.035370 61.628304 109.938774
v 157.598145 59.199596 107.478798
v 157.655258 58.966446 108.013329
v 157.633759 58.909698 108.998360
v 157.562195 59.157539 109.898720
v 157.528839 59.391254 110.207794
v 157.435989 59.807919 107.078331
v 157.825897 59.874069 106.795815
v 157.687332 59.523079 107.052734
v 157.604218 59.794880 110.407143
v 157.375107 60.357258 107.035835
v 157.783493 60.355640 106.763039
v 157.629547 60.355358 110.489120
v 157.454056 60.885647 107.098412
v 157.809601 60.767349 106.844673
v 157.609375 60.919548 110.411552
v 157.702530 61.089603 107.115227
v 157.617203 61.418839 107.540733
v 157.527832 61.325310 110.207787
v 157.635529 61.651913 108.045227
v 157.628235 61.742104 108.995285
v 157.556610 61.548595 109.902626
v 157.970795 59.252182 107.055557
v 158.324615 59.380222 106.786003
v 158.291626 59.087696 107.073273
v 158.181671 58.784245 107.986557
v 158.159042 58.855225 109.011276
v 157.886780 59.256153 109.942329
v 158.303070 59.119339 109.538116
v 158.251205 59.801754 106.646194
v 158.198181 59.503151 109.971237
v 158.089294 59.897427 110.238472
v 158.236725 60.345829 106.620979
v 158.159042 60.360733 110.309235
v 158.234207 60.799686 106.753838
v 158.092667 60.822659 110.238663
v 158.227295 61.164043 107.058304
v 158.221802 61.475658 107.527527
v 157.879272 61.445358 109.936737
v 158.194305 61.205322 109.963097
v 158.251877 61.510788 109.522919
v 158.218750 61.663376 108.035797
v 158.195129 61.677067 108.982239
v 158.541840 58.639355 108.008621
v 158.819870 58.628242 107.507874
v 158.887115 58.480629 108.024452
v 158.903748 58.592857 108.929581
v 158.575897 58.706932 108.965172
v 158.886047 58.812397 109.222321
v 158.850601 59.255074 106.685463
v 158.788574 58.855957 107.010101
v 158.807968 59.185223 109.500763
v 158.815414 59.771217 106.547958
v 158.504913 59.777199 109.983742
v 158.917007 59.660252 109.726799
v 158.807816 60.347832 106.569771
v 158.765305 60.087978 109.951111
v 158.538177 60.357693 110.116844
v 158.806717 60.813774 106.728088
v 158.499603 60.931679 109.979469
v 158.763596 60.625912 109.942436
v 158.887939 61.019882 109.672401
v 158.806183 61.177532 107.046898
v 158.802734 61.470181 107.527809
v 158.786514 61.418983 109.348793
v 158.794006 61.627308 108.039764
v 158.792618 61.611038 108.942726
v 159.112061 58.615185 107.016624
v 159.467972 58.682873 106.672737
v 159.443130 58.374249 107.044991
v 159.379440 58.238728 108.014160
v 159.410080 58.477585 108.928467
v 159.404282 58.757771 109.247383
v 159.413269 59.208370 106.437294
v 159.387360 59.198105 109.462486
v 159.380371 59.779488 106.436058
v 159.407608 59.762707 109.584030
v 159.395737 60.350132 106.524841
v 158.939072 60.355988 109.880028
v 159.399399 60.355251 109.621796
v 159.391876 60.807800 106.735664
v 159.371262 60.928047 109.455399
v 159.409882 61.176746 107.070992
v 159.347824 61.406406 107.561218
v 159.284225 61.329208 109.217674
v 159.305161 61.562550 108.047325
v 159.288513 61.512112 108.925499
v 159.766220 58.118908 107.029243
v 160.062729 58.112812 106.570389
v 160.083344 57.929031 107.031120
v 160.060471 57.961212 107.953346
v 159.725327 58.085423 107.987434
v 160.019714 58.130825 108.443970
v 159.882446 58.556435 106.345245
v 159.957962 58.367592 108.929527
v 159.978912 58.735523 109.263550
v 159.855026 59.183327 106.128944
v 160.239349 59.179245 105.867210
v 160.014694 58.907543 106.038956
v 159.976730 59.195637 109.436455
v 160.018646 59.454884 106.055199
v 159.865311 59.881207 106.272270
v 159.974426 59.773907 109.487015
v 159.974457 60.362419 106.477715
v 159.961441 60.342171 109.427193
v 159.972595 60.790462 106.735298
v 159.864731 60.820953 109.260384
v 159.958908 61.063007 107.073280
v 159.640930 61.450016 108.016922
v 159.989426 61.301743 107.982796
v 159.583603 61.391014 108.947426
v 159.919785 61.158531 108.938492
v 160.391541 58.070633 106.086060
v 160.740616 58.108414 105.747261
v 160.649567 57.817207 106.068871
v 160.553528 57.655811 107.014679
v 160.573959 57.851891 107.957809
v 160.569321 58.073772 108.467667
v 160.218246 58.575283 105.980682
v 160.627228 58.632095 105.657372
v 160.554596 58.384735 108.938057
v 160.549866 58.742920 109.248405
v 160.628601 59.169037 105.646423
v 160.549454 59.199100 109.388672
v 160.291870 59.745525 106.036049
v 160.670044 59.585781 105.787682
v 160.548569 59.763668 109.402275
v 160.604279 59.965565 106.076797
v 160.535431 60.368450 106.411629
v 160.510666 60.279472 109.285133
v 160.480789 60.740818 106.757149
v 160.247742 60.910526 108.974487
v 160.579834 60.681320 108.985252
v 160.546310 60.917625 108.491493
v 160.467377 60.954754 107.067513
v 160.482101 61.059456 107.972687
v 160.955322 57.557758 106.049866
v 161.245834 57.588535 105.719147
v 161.256790 57.383816 106.059517
v 161.233856 57.380535 106.953667
v 160.897827 57.500492 106.987389
v 161.190186 57.540154 107.446655
v 161.160919 58.018486 105.443123
v 161.126968 57.758526 107.956017
v 161.171951 58.106796 108.464340
v 161.068893 58.604286 105.366409
v 161.080261 58.452579 108.885742
v 160.975220 58.776260 109.157646
v 161.130722 59.202953 105.403511
v 161.009552 59.199261 109.249298
v 161.167801 59.662949 105.671852
v 161.010605 59.758881 109.251083
v 161.150085 60.024014 106.035698
v 161.124969 60.391571 106.509491
v 160.967270 60.178234 109.162659
v 161.169968 60.675873 107.011208
v 160.796600 60.839577 107.035263
v 160.826279 60.899494 107.994408
v 161.166824 60.723114 108.005966
v 161.050781 60.421013 108.905975
v 161.702805 57.419479 105.471260
v 161.746460 57.136311 106.027382
v 161.748276 57.272648 106.960350
v 161.741440 57.487831 107.467659
v 161.547729 58.055374 105.082153
v 161.907227 58.095284 104.736481
v 161.777130 57.751259 105.034805
v 161.726135 57.786144 107.952049
v 161.720657 58.125042 108.327576
v 161.479385 58.598907 105.037704
v 161.880554 58.596020 104.718582
v 161.330414 58.657574 108.901283
v 161.761963 58.580597 108.607544
v 161.554230 59.130013 105.095062
v 161.907440 59.023499 104.810593
v 161.422318 59.187950 108.977402
v 161.833084 59.185047 108.672089
v 161.801514 59.354450 105.096916
v 161.717850 59.710949 105.514038
v 161.399918 59.763710 108.955040
v 161.789185 59.762974 108.594910
v 161.733963 60.041573 106.013596
v 161.732071 60.309772 106.521622
v 161.274124 60.256634 108.877945
v 161.632462 60.244152 108.404739
v 161.711594 60.499077 107.028435
v 161.651337 60.455204 107.948357
v 162.095947 56.948483 105.989716
v 162.371552 56.920696 105.524872
v 162.429810 56.842335 105.985405
v 162.367416 56.965607 106.444313
v 162.039780 57.433773 105.012535
v 162.392242 57.501080 104.568314
v 162.342697 57.157486 105.014977
v 162.296616 57.173275 106.953278
v 162.342529 57.507339 107.471199
v 162.286545 58.024166 104.419777
v 162.271164 57.848454 107.906212
v 162.222336 58.198818 108.221817
v 162.305908 58.618702 104.413681
v 162.281204 58.624863 108.386635
v 162.354782 59.143608 104.625847
v 162.287460 59.174862 108.418388
v 162.304092 59.519524 104.986778
v 162.295822 59.825691 105.464790
v 162.213974 59.672184 108.290909
v 162.371094 60.041763 106.015625
v 162.270874 60.222492 106.562370
v 161.980515 60.280983 107.966171
v 162.279480 60.019997 107.960876
v 162.258392 60.263248 107.469749
v 162.205322 60.345936 107.015228
v 162.646423 56.889591 105.017609
v 162.946777 56.895691 104.522316
v 162.985062 56.725773 105.047089
v 162.923187 56.738091 105.965569
v 162.912872 56.918987 106.462097
v 162.753876 57.483555 104.096863
v 163.084671 57.511257 103.740509
v 162.973541 57.183407 104.047127
v 162.898758 57.196709 106.954964
v 162.897812 57.527618 107.349586
v 162.664780 58.013000 104.051216
v 163.037415 58.012978 103.694748
v 162.592300 58.045605 107.959953
v 162.991760 57.938217 107.670769
v 162.707962 58.560574 104.068970
v 163.087769 58.512287 103.750084
v 162.878418 58.328751 107.961678
v 162.707718 58.692947 108.195435
v 162.937576 58.869774 104.036880
v 162.854843 59.229881 104.364571
v 162.700775 59.091480 108.189674
v 162.640549 59.707592 105.038803
v 162.989044 59.590424 104.726646
v 162.579575 59.738743 107.964661
v 162.836777 59.425686 107.941589
v 162.876877 59.739246 107.481331
v 162.973587 59.776646 105.100075
v 162.892426 59.965958 106.007195
v 162.511871 60.216507 107.008018
v 162.846756 59.996056 106.932396
v 163.003036 63.975803 85.026894
v 163.141281 63.979053 84.825569
v 163.103500 63.725544 85.031319
v 163.063965 63.925674 85.437981
v 162.998306 64.361618 85.028847
v 163.137756 64.355385 84.823265
v 163.055756 64.412697 85.440857
v 163.083359 64.626724 85.027283
v 163.231140 56.868385 104.023125
v 163.572159 56.922470 103.574112
v 163.535706 56.608124 104.037331
v 163.477768 56.472645 105.016220
v 163.494293 56.675499 105.953056
v 163.516373 56.933292 106.464775
v 163.448013 57.435432 103.407997
v 163.442139 57.265518 106.904839
v 163.397430 57.607094 107.237991
v 163.423691 58.014324 103.376785
v 163.464966 58.034878 107.442444
v 163.514633 58.592484 103.451645
v 163.083878 58.639805 107.904274
v 163.474640 58.571751 107.556030
v 163.227982 59.147869 104.041039
v 163.587280 59.024109 103.732750
v 163.047272 59.129971 107.885361
v 163.414993 59.109791 107.422859
v 163.571213 59.354202 104.116287
v 163.437454 59.572914 104.579491
v 163.182404 59.749401 106.990875
v 163.477936 59.462551 106.988724
v 163.452209 59.716698 106.478752
v 163.411957 59.767822 105.057907
v 163.389954 59.820469 105.972565
v 163.320786 63.410595 85.061905
v 163.585663 63.431168 84.714951
v 163.647476 63.061707 84.982697
v 163.563309 63.048065 85.998734
v 163.370895 63.362328 85.999886
v 163.561981 63.041725 86.998390
v 163.428146 63.373173 86.997108
v 163.609314 63.073223 87.974907
v 163.494446 63.373650 87.944695
v 163.629623 63.330769 88.439896
v 163.541016 63.878517 84.616722
v 163.195770 63.864536 85.996910
v 163.343262 63.868385 86.980553
v 163.484421 63.803089 87.920586
v 163.616714 63.837372 88.444283
v 163.529007 64.433350 84.648018
v 163.212234 64.459702 85.983147
v 163.423965 64.376350 86.946312
v 163.563477 64.419044 87.476082
v 163.566559 64.130150 87.975830
v 163.318207 64.923355 85.059753
v 163.639679 64.900185 84.778473
v 163.432556 64.926300 85.964630
v 163.581589 64.960815 86.469925
v 163.566116 64.705925 86.973503
v 163.620392 65.213875 85.060585
v 163.614487 65.108673 85.964874
v 163.859604 56.355457 104.018295
v 164.138275 56.335060 103.530609
v 164.181656 56.208244 104.029533
v 164.164993 56.224064 104.951469
v 163.827194 56.327332 104.986900
v 164.122864 56.389080 105.437935
v 163.923538 56.895966 103.095520
v 164.254288 56.925198 102.737900
v 164.151886 56.604256 103.052193
v 164.046768 56.609612 105.933289
v 164.069031 56.946789 106.344681
v 163.821640 57.430279 103.036133
v 164.195984 57.433193 102.678200
v 163.764374 57.459526 106.960030
v 164.163345 57.351593 106.670975
v 163.809006 58.011139 103.022919
v 164.212952 58.002636 102.705559
v 164.050186 57.742878 106.961403
v 163.884079 58.106548 107.210533
v 163.909897 58.535225 103.106003
v 164.253159 58.428791 102.820297
v 163.879547 58.519409 107.228630
v 164.150314 58.742233 103.116478
v 164.076370 59.064449 103.551064
v 163.774933 59.177170 106.988403
v 164.030319 58.856522 106.952950
v 164.111176 59.193794 106.528030
v 164.077820 59.338078 104.047485
v 163.750656 59.698166 105.018204
v 164.118378 59.588051 104.983665
v 163.743057 59.699471 105.993355
v 164.090179 59.500431 105.992134
v 164.144485 62.767597 84.148834
v 164.329895 62.798935 83.940399
v 164.209503 62.715141 84.073364
v 164.174240 62.650421 85.005722
v 163.867996 62.798653 85.011284
v 164.149902 62.571003 86.003105
v 163.837799 62.768345 86.003723
v 164.119522 62.443375 86.983543
v 163.814392 62.727520 87.000793
v 164.105591 62.436493 87.999138
v 163.821259 62.741558 88.016525
v 164.146378 62.459526 88.995522
v 163.955383 62.775352 88.997078
v 164.200653 62.497128 89.973053
v 164.054047 62.792988 89.948204
v 164.211685 62.749786 90.439491
v 164.168655 62.965919 84.080902
v 163.947113 63.336197 84.373741
v 163.784729 63.279930 88.992950
v 163.980835 63.287689 89.947319
v 164.155319 63.284683 90.470131
v 164.063583 63.886715 84.417915
v 163.801651 63.871735 88.981972
v 164.035843 63.799011 89.919800
v 164.242538 63.808079 90.412231
v 164.080353 64.459625 84.502388
v 163.783936 64.455330 88.015465
v 164.001999 64.353127 88.963486
v 164.164734 64.380264 89.470596
v 164.168396 64.111473 89.959038
v 164.106857 65.011322 84.646332
v 163.832748 64.978584 86.974815
v 164.113922 64.991196 87.480331
v 164.077438 64.764130 88.018326
v 164.185669 64.558418 88.968636
v 163.928223 65.439667 85.031044
v 164.186279 65.400528 84.824585
v 164.133942 65.470894 85.435020
v 164.081360 65.331314 85.988228
v 164.157669 65.135742 86.953911
v 164.181580 65.537331 85.026810
v 164.423218 56.332291 103.036293
v 164.769684 56.371510 102.591629
v 164.754364 56.182739 103.053543
v 164.684128 56.090733 104.005989
v 164.665375 56.188736 104.944565
v 164.675095 56.391743 105.442383
v 164.620972 56.850266 102.408203
v 164.610077 56.688091 105.897903
v 164.569534 57.020901 106.238243
v 164.587540 57.429436 102.366882
v 164.638153 57.448494 106.444817
v 164.651459 58.034725 102.410820
v 164.259796 58.053375 106.907898
v 164.658630 57.988125 106.566841
v 164.692184 58.501675 102.664268
v 164.235428 58.549637 106.895828
v 164.626358 58.584263 106.465790
v 164.672073 58.827866 103.047714
v 164.665100 59.108017 103.537079
v 164.514359 59.039577 106.261406
v 164.654404 59.303432 104.042328
v 164.645035 59.414642 104.992882
v 164.571030 59.243343 105.914986
v 164.451309 62.231457 87.025131
v 164.708069 62.249771 86.559235
v 164.752060 62.114929 87.056618
v 164.751511 62.054432 88.003647
v 164.419266 62.183315 88.001495
v 164.745514 62.021980 89.001389
v 164.432388 62.197468 88.999771
v 164.745789 62.001701 90.001884
v 164.441498 62.207047 90.018387
v 164.784988 61.914082 90.959007
v 164.573288 62.208706 90.971588
v 164.704117 62.137520 91.491158
v 164.581253 62.893864 83.856621
v 164.592514 62.718544 84.101898
v 164.661987 62.552052 85.019493
v 164.656342 62.402546 86.002518
v 164.375458 62.697666 90.984360
v 164.711014 62.424816 91.985840
v 164.615997 62.763317 91.924385
v 164.815445 62.741062 92.426788
v 164.393005 63.271614 84.030502
v 164.789978 63.172295 83.817688
v 164.364014 63.281391 90.999748
v 164.639420 63.217445 91.913910
v 164.848557 63.224094 92.403839
v 164.669083 63.577694 84.007095
v 164.540314 63.996117 84.246674
v 164.493118 63.812103 90.956993
v 164.718414 63.836006 91.477142
v 164.750412 63.532406 91.961075
v 164.647629 64.478287 84.406944
v 164.417328 64.398201 89.975113
v 164.707321 64.401520 90.475243
v 164.710251 64.130531 90.977921
v 164.664551 65.001846 84.608047
v 164.399597 64.999641 87.985054
v 164.680237 65.010696 88.491020
v 164.636520 64.847763 89.018890
v 164.736832 64.573563 89.956497
v 164.563446 65.400719 84.822159
v 164.692017 65.391434 85.998360
v 164.627319 65.504623 85.449448
v 164.677917 65.251831 86.988716
v 164.743134 65.118401 87.952744
v 164.567490 65.541443 85.028999
v 165.116394 56.352600 102.112358
v 165.414581 56.406586 101.753746
v 165.347107 56.195984 102.084740
v 165.268234 56.009598 103.010330
v 165.248184 56.040005 103.990425
v 165.177444 56.223625 104.910965
v 165.171173 56.425743 105.281464
v 164.988815 56.845142 102.026741
v 165.399841 56.851940 101.561806
v 164.929245 56.883217 105.952904
v 165.291519 56.805397 105.627502
v 164.970139 57.425541 102.009598
v 165.347458 57.421459 101.644920
v 165.212997 57.164021 105.953476
v 165.056412 57.520458 106.211601
v 165.054672 57.972431 102.071373
v 165.423126 57.927444 101.738457
v 165.063644 57.939293 106.242401
v 165.298584 58.264988 102.053871
v 165.213074 58.593010 102.473511
v 165.026367 58.626759 106.039009
v 165.241104 58.301628 105.988129
v 165.351730 58.649624 105.661392
v 165.298584 58.872948 103.009186
v 165.211014 59.070675 103.557159
v 164.812637 59.085335 105.897438
v 165.151749 59.067547 105.413620
v 165.165634 59.222519 104.047272
v 165.142014 59.227276 104.963280
v 165.060822 61.672443 91.036140
v 165.300980 61.661724 90.558662
v 165.351959 61.525749 91.050850
v 165.376663 61.503807 91.968048
v 165.166611 61.650745 91.970917
v 165.335434 61.618553 92.469849
v 165.215179 62.238831 86.555855
v 165.181747 62.105877 87.077316
v 165.247513 61.975277 88.014084
v 165.261215 61.914875 89.006439
v 165.236511 61.783096 89.998077
v 164.855515 62.082748 92.019073
v 165.326630 61.873638 92.964996
v 165.158478 62.181812 92.932144
v 165.400558 62.174770 93.417145
v 164.897232 62.809509 84.068802
v 165.202332 62.780560 84.529961
v 165.169571 62.632618 85.051491
v 165.249100 62.420063 86.014137
v 165.033554 62.689152 92.942238
v 165.330399 62.700802 93.452477
v 165.129288 63.410412 83.813118
v 165.202042 63.049412 84.053741
v 165.108734 63.228809 92.914040
v 165.400253 63.225456 93.412766
v 164.961807 63.871216 84.005478
v 165.366211 63.751755 83.815636
v 164.978104 63.857834 91.989426
v 165.280975 63.845638 92.482277
v 165.303345 63.541168 92.969803
v 165.263489 64.150047 84.028999
v 165.113815 64.535477 84.329422
v 164.999603 64.398048 90.976166
v 165.290756 64.399582 91.477058
v 165.268112 64.149185 91.990967
v 165.208405 64.868073 84.674194
v 164.975388 64.981140 88.982353
v 165.250000 64.886345 89.416832
v 165.270950 64.754692 89.983002
v 165.331360 64.533272 90.950096
v 165.178711 65.255150 85.075981
v 164.835403 65.457581 85.028046
v 165.236267 65.276466 86.000740
v 165.236328 65.222267 86.995384
v 165.249771 65.170258 87.976700
v 165.250580 65.023399 88.903114
v 165.813446 56.259430 101.480568
v 165.826065 55.938786 102.006096
v 165.795822 55.842857 103.015633
v 165.811081 56.043488 103.986389
v 165.502228 56.329311 104.948242
v 165.878006 56.258411 104.520355
v 165.750443 56.844757 101.149124
v 166.091370 56.847870 100.827744
v 165.909271 56.592293 101.065582
v 165.816895 56.571697 104.977112
v 165.756165 56.921398 105.325188
v 165.867996 57.123966 101.031273
v 165.705200 57.493359 101.307320
v 165.429413 57.468788 105.906395
v 165.817245 57.429863 105.546722
v 165.846436 58.008720 101.436348
v 165.435577 57.974792 105.916046
v 165.817062 58.012863 105.547050
v 165.593887 58.516037 102.062042
v 165.936249 58.417858 101.740860
v 165.754349 58.518990 105.324989
v 165.913177 58.630882 102.096146
v 165.840271 58.849083 103.015877
v 165.501617 59.106655 104.017479
v 165.853912 58.972450 103.975952
v 165.456024 59.066906 104.972641
v 165.780731 58.818447 104.944351
v 165.837860 61.576595 90.517578
v 165.839813 61.448299 91.049049
v 165.863052 61.355076 92.004478
v 165.909866 61.412842 92.959335
v 165.588882 61.594944 92.975433
v 165.879822 61.582684 93.476784
v 165.508438 62.187778 87.023987
v 165.796585 62.186569 87.524246
v 165.753204 62.057747 88.050903
v 165.824112 61.914108 89.012367
v 165.837219 61.748486 89.979538
v 165.908768 61.878811 93.944130
v 165.700867 62.177547 93.895554
v 166.025314 62.205963 94.243141
v 165.497879 62.774014 85.026718
v 165.754181 62.788227 85.529778
v 165.723526 62.632591 86.038620
v 165.832779 62.406517 86.984711
v 165.640106 62.701927 93.927094
v 165.982056 62.700142 94.284966
v 165.493912 63.336193 84.051315
v 165.770554 63.331795 84.526436
v 165.769455 63.041397 85.025742
v 165.704086 63.225666 93.892250
v 166.030045 63.187313 94.217293
v 165.639526 63.958038 83.865387
v 165.738525 63.637924 84.065369
v 165.576996 63.833950 92.980820
v 165.881165 63.819736 93.472603
v 165.912888 63.520916 93.936737
v 165.569305 64.443428 84.133835
v 165.744171 64.202240 83.961914
v 165.591354 64.379265 91.962479
v 165.900177 64.285118 92.405907
v 165.903259 64.040802 92.953094
v 165.789795 64.402725 84.095215
v 165.751801 64.694824 84.969437
v 165.504852 65.002846 85.035988
v 165.746277 64.956062 85.528496
v 165.534348 64.989136 88.987938
v 165.878281 64.861343 89.031975
v 165.817673 64.998566 88.490456
v 165.830826 64.697037 89.993820
v 165.839355 64.608116 90.983376
v 165.907013 64.471024 91.919388
v 165.701889 65.073883 86.027992
v 165.723969 65.096909 87.000114
v 165.735916 65.083038 87.968597
v 166.173279 55.739494 102.007614
v 166.469894 55.741661 101.526215
v 166.521072 55.621948 102.029854
v 166.504044 55.655701 102.949036
v 166.162003 55.727875 102.989182
v 166.464157 55.810978 103.434723
v 166.155655 56.275681 101.028809
v 166.513580 56.341644 100.685051
v 166.458862 56.000305 101.032104
v 166.387802 56.021694 103.941040
v 166.409744 56.352753 104.352493
v 166.475662 56.842484 100.475761
v 166.126434 56.844574 104.992065
v 166.495987 56.771843 104.650490
v 166.056793 57.459332 100.954277
v 166.476547 57.411804 100.543175
v 166.390060 57.157520 104.961899
v 166.229767 57.510868 105.234055
v 166.233521 57.955727 101.079315
v 166.571533 57.879616 100.736725
v 166.224350 57.928642 105.228607
v 166.487915 58.169712 101.100723
v 166.423904 58.465977 101.556534
v 166.088318 58.554012 104.963074
v 166.349625 58.249950 104.941689
v 166.377075 58.541904 104.473763
v 166.435852 58.681282 102.054459
v 166.406906 58.788563 102.992661
v 166.347229 58.716587 103.948784
v 166.385162 61.635086 90.550308
v 166.356339 61.475861 91.075645
v 166.424850 61.283245 92.004662
v 166.403748 61.159744 92.966408
v 166.482880 61.314671 93.942482
v 166.174011 61.575912 93.962158
v 166.514404 61.617191 94.316803
v 166.083450 62.189091 88.027267
v 166.358521 62.196831 88.529030
v 166.326355 62.060768 89.056641
v 166.424149 61.821526 90.010727
v 166.433792 62.115025 94.559425
v 165.909424 62.816936 86.038429
v 166.135345 62.706039 86.981590
v 166.374817 62.733116 87.518044
v 166.364639 62.449768 88.023811
v 166.407379 62.725842 94.596275
v 165.917465 63.367405 85.051010
v 166.124374 63.289711 86.012833
v 166.295181 63.326504 86.559967
v 166.353394 63.032581 87.028625
v 166.447617 63.268681 94.452011
v 165.829544 63.945496 84.100243
v 165.997238 63.877640 85.017456
v 166.175049 63.891079 85.997055
v 166.334412 63.845570 86.543968
v 166.188812 63.780659 93.937454
v 166.527573 63.675297 94.223457
v 165.835129 64.347519 84.071777
v 165.910339 64.383881 85.025475
v 166.077240 64.447372 86.010239
v 166.382904 64.154533 87.010353
v 166.249207 64.502663 86.971298
v 166.383652 64.440781 87.507835
v 166.455597 64.187141 92.990501
v 166.390793 64.335556 92.445625
v 166.500946 63.905323 93.904846
v 165.868622 64.914635 86.033585
v 165.935593 64.930405 87.006577
v 166.307175 64.671829 88.026001
v 166.049271 64.928513 87.973785
v 166.332397 64.576874 88.994171
v 166.342117 64.556984 89.994247
v 166.338074 64.522453 90.995773
v 166.343948 64.478241 91.946274
v 166.768814 55.756405 101.050957
v 167.087402 55.821632 100.703018
v 167.090820 55.636787 101.081886
v 167.022018 55.530285 102.000786
v 166.946136 55.646774 102.920265
v 166.959213 55.826180 103.416214
v 166.964905 56.213692 100.366180
v 166.929199 56.127995 103.880470
v 166.840836 56.424770 104.197861
v 166.841736 56.884186 100.098656
v 167.201279 56.924450 99.764275
v 167.044434 56.573418 100.037956
v 166.906204 56.856724 104.341408
v 166.855118 57.378071 100.104271
v 167.209717 57.342201 99.772438
v 166.570328 57.475555 104.892258
v 166.913147 57.405628 104.461090
v 167.071289 57.671474 100.061234
v 166.990341 57.990536 100.485458
v 166.550751 57.958595 104.884735
v 166.857910 57.952080 104.408417
v 167.032761 58.261047 100.996452
v 167.011505 58.526100 101.531372
v 166.677826 58.539463 103.978516
v 166.958023 58.263023 103.968407
v 166.966370 58.531307 103.473137
v 166.992905 58.677162 102.035965
v 166.924362 58.664413 102.951439
v 166.760361 61.023502 93.017006
v 167.052368 61.076855 92.564278
v 167.097717 60.922672 93.049057
v 167.108612 60.940437 93.936623
v 166.813248 61.075157 93.956505
v 167.098343 61.099628 94.293320
v 166.691727 61.580688 91.019714
v 167.042206 61.531109 91.472649
v 166.960190 61.274067 92.018456
v 166.957977 61.475330 94.645943
v 166.578232 62.215660 89.053879
v 166.848724 62.216835 89.586189
v 166.880692 62.065067 90.049744
v 167.023865 61.800068 90.978325
v 167.014542 61.826351 94.994949
v 166.814835 62.154602 94.939003
v 167.144241 62.155918 95.426483
v 166.541855 62.771240 88.042557
v 166.832458 62.668854 88.962990
v 167.050217 62.682278 89.472000
v 166.807556 62.666393 94.943001
v 167.166702 62.644169 95.409500
v 166.459396 63.353462 87.079315
v 166.705994 63.305691 88.024292
v 166.852936 63.285110 88.582352
v 166.963989 63.005486 89.017029
v 167.022614 62.986904 94.990929
v 166.924393 63.367599 94.676079
v 166.468796 63.809505 87.072052
v 166.637985 63.860714 88.017441
v 166.954895 63.570591 89.011726
v 166.823532 63.911449 88.972687
v 166.974396 63.858322 89.508125
v 167.025803 63.749168 94.332932
v 166.496735 64.365204 88.029968
v 166.542313 64.367661 89.004814
v 166.922577 64.101227 90.015709
v 166.650620 64.363487 89.992134
v 166.675217 64.397491 91.003136
v 167.011078 64.153305 91.012840
v 166.677948 64.386147 91.986237
v 167.032669 64.249062 92.026909
v 167.008453 64.147476 92.998604
v 167.020706 63.979462 93.938225
v 167.578674 55.701252 100.490158
v 167.629440 55.536625 101.022118
v 167.572128 55.524441 101.981888
v 167.285461 55.710026 102.980843
v 167.616638 55.640121 102.526299
v 167.312637 56.264053 100.012703
v 167.677490 56.335060 99.674347
v 167.618820 55.987621 100.024216
v 167.615738 55.909573 103.031563
v 167.169205 56.324623 103.891930
v 167.582809 56.289619 103.472374
v 167.617065 56.843922 99.453720
v 167.283432 56.843746 103.981300
v 167.666245 56.841095 103.621292
v 167.628067 57.419678 99.463905
v 167.297409 57.426220 103.996651
v 167.669479 57.429749 103.625580
v 167.353088 57.928650 100.060661
v 167.694824 57.851299 99.725471
v 167.201202 57.974689 103.930794
v 167.579636 57.978470 103.473419
v 167.669800 58.070652 100.088654
v 167.619614 58.353264 101.008087
v 167.557022 58.489563 101.552124
v 167.285217 58.553810 102.993629
v 167.618423 58.349297 103.002510
v 167.567627 58.542572 102.486473
v 167.490387 58.604694 102.013878
v 167.602081 61.085735 92.556793
v 167.597702 60.884548 93.054344
v 167.631958 60.839294 93.981888
v 167.568726 60.956490 94.526886
v 167.525223 61.655144 91.689674
v 167.546692 61.361629 92.085060
v 167.557205 61.199913 95.012672
v 167.262253 61.502674 95.044167
v 167.696793 61.314442 95.968941
v 167.518936 61.614212 95.949348
v 167.717758 61.575989 96.441513
v 167.058792 62.228977 90.061554
v 167.337936 62.095078 90.962997
v 167.640549 62.068813 91.361366
v 167.379395 62.100986 95.940140
v 167.618454 62.114681 96.488365
v 167.246643 62.712837 90.022163
v 167.477707 62.741653 90.564728
v 167.579376 62.417156 91.010956
v 167.441925 62.645912 95.923363
v 167.682770 62.666145 96.451881
v 167.000153 63.286938 89.099609
v 167.279922 63.293060 90.026703
v 167.471344 63.247795 90.561539
v 167.298630 63.293655 95.004425
v 167.623047 63.256195 95.483109
v 167.645599 62.962254 95.979889
v 167.114059 63.791161 90.032120
v 167.534286 63.547890 91.021515
v 167.305695 63.870522 90.984863
v 167.541000 63.817043 91.522018
v 167.639053 63.509472 94.978073
v 167.576523 63.802444 94.482094
v 167.510712 63.972523 92.046791
v 167.577713 64.073631 92.998154
v 167.597717 63.990189 93.957130
v 167.932343 55.744289 100.050613
v 168.258316 55.820393 99.702309
v 168.258728 55.626328 100.081497
v 168.188705 55.480919 101.005669
v 168.168762 55.560783 101.954071
v 168.183731 55.780361 102.456474
v 168.136078 56.212482 99.364975
v 168.111237 56.090729 102.904160
v 168.011978 56.402939 103.217041
v 168.004456 56.882744 99.093422
v 168.381683 56.934025 98.802719
v 168.218018 56.574566 99.041534
v 168.058487 56.849987 103.310905
v 168.008545 57.383884 99.097038
v 168.383987 57.334473 98.805412
v 168.058289 57.420017 103.311295
v 168.233749 57.677715 99.057526
v 168.164566 57.997181 99.481186
v 168.000305 57.853191 103.206627
v 168.209564 58.214237 100.018639
v 168.187332 58.324928 101.004486
v 167.830521 58.508675 102.007286
v 168.184998 58.367535 101.986916
v 168.084717 58.081059 102.910385
v 168.102493 61.108383 92.714233
v 168.110260 60.914169 93.086975
v 168.183075 60.771610 94.003418
v 168.244980 60.848995 94.977303
v 167.889587 60.960423 95.001808
v 168.269363 60.868496 95.996635
v 167.962723 61.047092 96.007477
v 168.308502 60.916245 96.965576
v 168.124832 61.071720 96.962769
v 168.259277 61.025982 97.476334
v 167.866608 61.560654 92.032364
v 168.239105 61.482193 92.360802
v 167.881409 61.527267 96.992661
v 168.223083 61.257221 97.996056
v 168.076324 61.593086 97.977524
v 168.299072 61.322342 98.971657
v 168.157623 61.620930 98.948257
v 168.312164 61.577267 99.440079
v 168.025558 62.190228 91.712563
v 168.152908 61.845688 92.035255
v 167.819550 62.118088 97.019829
v 167.996185 62.114677 97.989975
v 168.103348 62.116077 98.953049
v 168.228256 62.115578 99.482536
v 167.748032 62.763416 91.101662
v 168.019623 62.653572 91.576332
v 167.878784 62.706936 96.989357
v 168.082474 62.635399 97.974335
v 168.156693 62.611355 98.949623
v 168.296921 62.658329 99.447243
v 167.676346 63.220936 91.071953
v 168.200607 63.004765 91.986664
v 168.042099 63.337490 91.947998
v 168.298111 63.345325 92.324936
v 167.906006 63.242519 96.006012
v 168.124420 63.162758 96.958092
v 168.262405 63.206905 97.475906
v 168.225220 62.974613 97.996979
v 168.292831 62.917206 98.975304
v 167.776031 63.797474 92.044754
v 168.100876 63.774708 92.573891
v 168.141342 63.713665 95.043747
v 168.156448 63.895302 94.526222
v 168.238617 63.427956 95.981140
v 168.306274 63.325142 96.966621
v 168.091217 63.928902 93.051094
v 168.193039 63.986191 93.983307
v 168.750214 55.699596 99.489601
v 168.801514 55.531956 100.024490
v 168.761703 55.474960 100.994019
v 168.691498 55.636898 101.911743
v 168.672714 55.847126 102.262680
v 168.490784 56.270153 99.023018
v 168.884476 56.372463 98.738739
v 168.796967 55.995152 99.034187
v 168.353973 56.317291 102.897751
v 168.747360 56.265121 102.547554
v 168.803482 56.860172 98.597183
v 168.452499 56.844093 102.976562
v 168.838425 56.842461 102.623276
v 168.799545 57.411320 98.585457
v 168.434204 57.420799 102.959679
v 168.807053 57.419567 102.586357
v 168.511795 57.974152 99.040062
v 168.888519 57.899918 98.723137
v 168.307190 57.913223 102.879883
v 168.664322 57.901222 102.405365
v 168.818222 58.239479 99.060577
v 168.723862 58.433781 100.021461
v 168.760773 58.350872 100.999191
v 168.692993 58.125824 101.931625
v 168.449478 61.004330 93.035156
v 168.777924 60.935753 93.480400
v 168.738251 60.813656 94.018951
v 168.766510 60.775345 95.002075
v 168.778381 60.755787 96.000511
v 168.788040 60.772175 96.994133
v 168.832352 60.835449 97.980812
v 168.496521 60.988964 97.997887
v 168.856094 60.868763 98.997437
v 168.548782 61.047298 99.007713
v 168.892288 60.901569 99.970306
v 168.711029 61.072639 99.963005
v 168.838943 61.008587 100.480537
v 168.735458 61.571880 92.625282
v 168.781448 61.202541 92.989960
v 168.467697 61.527523 99.992714
v 168.797714 61.248005 100.998108
v 168.671082 61.594585 100.976936
v 168.881760 61.313839 101.972458
v 168.767166 61.615170 101.943436
v 168.924026 61.580082 102.427994
v 168.371811 62.156788 92.073524
v 168.776398 62.098751 92.424904
v 168.412598 62.118465 100.018936
v 168.600479 62.109905 100.982498
v 168.758591 62.045265 101.919846
v 168.907578 62.076027 102.434731
v 168.378647 62.666443 92.062050
v 168.758102 62.702744 92.441582
v 168.468323 62.706245 99.986877
v 168.698593 62.618046 100.945953
v 168.837021 62.661236 101.476303
v 168.840347 62.371353 101.973526
v 168.694702 63.213062 92.664993
v 168.495010 63.246700 97.997574
v 168.543106 63.188801 99.006310
v 168.713943 63.160046 99.959503
v 168.859482 63.195950 100.468704
v 168.840363 62.947819 100.973442
v 168.733337 63.546913 93.028069
v 168.430435 63.804234 93.032188
v 168.717834 63.795986 93.526474
v 168.485321 63.825657 94.983948
v 168.764343 63.722301 95.421577
v 168.780899 63.598526 95.990822
v 168.785721 63.481941 96.991096
v 168.829941 63.402618 97.981598
v 168.853226 63.366524 98.998947
v 168.895477 63.317142 99.966881
v 168.665924 63.898033 94.025826
v 168.755798 63.839085 94.920753
v 169.108627 55.756321 99.063477
v 169.449768 55.887672 98.806374
v 169.421890 55.666447 99.099342
v 169.358292 55.491810 100.006912
v 169.320038 55.532867 100.975639
v 169.013031 55.749722 101.942245
v 169.368744 55.709076 101.506378
v 169.376968 56.281704 98.567924
v 169.300629 56.007084 101.949539
v 169.171402 56.346031 102.246407
v 169.315201 56.812664 98.360992
v 169.223984 56.842964 102.304581
v 169.258987 57.430832 98.338882
v 169.180893 57.347252 102.262360
v 169.350555 58.019978 98.425789
v 169.027328 57.959419 101.968422
v 169.317230 57.688904 101.955688
v 169.458344 58.108265 101.551590
v 169.129181 58.532230 99.032799
v 169.442215 58.513622 98.680542
v 169.054871 58.619423 99.993500
v 169.309952 58.645794 100.518555
v 169.249329 58.420822 101.068192
v 169.407196 58.846920 99.025177
v 169.335327 58.898235 99.999847
v 169.272751 61.103519 93.589455
v 169.261917 60.917385 94.052887
v 169.285980 60.856503 95.022339
v 169.337387 60.760048 96.005524
v 169.346268 60.744247 97.002899
v 169.362122 60.733227 97.999184
v 169.360565 60.692554 99.003082
v 169.356384 60.657719 99.999115
v 169.319473 60.613091 100.953506
v 169.040512 60.922546 101.007042
v 169.361649 60.658081 101.998894
v 169.096024 60.984367 102.014748
v 169.454971 60.729633 102.970627
v 169.287491 61.034058 102.946991
v 169.510681 61.009743 103.414207
v 169.176132 61.696537 92.816971
v 169.264008 61.393818 93.110115
v 169.123032 61.519844 102.947510
v 169.414658 61.533333 103.462021
v 169.205170 62.119320 92.722694
v 169.136246 62.118919 102.938087
v 169.461304 62.120094 103.453262
v 169.167969 62.612438 92.755432
v 169.058762 62.695839 102.015930
v 169.323410 62.575832 102.921364
v 169.523270 62.545437 103.250038
v 169.289978 62.945557 93.050964
v 169.028305 63.256413 93.029236
v 169.332657 63.267223 93.513084
v 169.106689 63.220097 100.974915
v 169.389771 63.229164 101.479111
v 169.359985 62.998730 102.017792
v 169.477692 62.733677 102.923851
v 168.983246 63.766495 94.021652
v 169.321915 63.533649 94.027229
v 169.022217 63.782452 94.985046
v 169.362122 63.637371 95.020493
v 169.349808 63.545380 96.000633
v 169.353210 63.532829 96.998184
v 169.360962 63.506836 97.997604
v 169.364365 63.490784 98.999352
v 169.374252 63.458359 99.993011
v 169.433914 63.367580 100.953705
v 169.860291 55.886822 98.771049
v 169.869690 55.670555 99.095306
v 169.915192 55.527374 100.000626
v 169.858734 55.636284 100.918709
v 169.847870 55.833050 101.277756
v 169.912201 56.273270 98.440269
v 169.541229 56.297283 101.915131
v 169.935593 56.257614 101.565147
v 169.754181 56.895397 98.091469
v 170.106140 57.026703 97.860634
v 169.997253 56.677143 98.114655
v 169.617661 56.840927 101.969872
v 170.035126 56.840630 101.660469
v 169.683258 57.427940 98.038582
v 170.094955 57.430737 97.782639
v 169.559540 57.390266 101.937325
v 169.988220 57.469276 101.669167
v 169.749222 57.970928 98.079300
v 170.133789 57.911125 97.802536
v 169.946533 58.018215 101.547417
v 169.971695 58.282410 98.040237
v 169.883469 58.663765 98.352074
v 169.540436 58.671242 101.037231
v 169.934937 58.550568 101.431480
v 169.649872 59.181885 99.028191
v 169.989929 59.149204 98.634750
v 169.540588 59.226589 100.022736
v 169.708405 59.188812 100.983528
v 169.983093 59.150852 101.495468
v 169.912811 59.639942 99.069748
v 170.121231 59.593948 98.811562
v 169.776276 59.736935 100.028488
v 169.724503 59.790363 100.986984
v 169.866165 59.735943 101.540649
v 170.062744 59.830231 99.076057
v 169.885590 60.101009 99.955864
v 169.577820 60.280457 100.978989
v 169.733337 60.323807 100.386536
v 169.859680 60.008392 102.018768
v 169.625977 60.326042 101.981018
v 169.976913 60.100998 102.987274
v 169.709305 60.416866 102.983414
v 169.971024 60.386894 103.482933
v 169.548523 61.072689 94.035278
v 169.630554 60.983265 95.002754
v 169.887543 61.017670 95.525101
v 169.838303 60.892284 96.031120
v 169.875107 60.839745 97.024101
v 169.936340 60.724163 98.013420
v 169.927002 60.571777 98.991440
v 169.818542 60.398525 99.938873
v 170.005844 60.701637 103.945976
v 169.805786 61.006435 103.892120
v 170.138794 61.047012 104.198090
v 169.467133 61.616577 93.125008
v 169.755219 61.611355 93.601791
v 169.815552 61.333584 94.036873
v 169.923874 61.246765 95.002182
v 169.738235 61.531178 103.927261
v 170.091827 61.529190 104.240646
v 169.546783 62.117157 93.075485
v 169.836853 62.117489 93.551735
v 169.785172 62.062847 103.897202
v 170.137360 62.011662 104.198463
v 169.490891 62.640530 93.104523
v 169.781845 62.640484 93.586586
v 169.999802 62.361221 103.941811
v 169.924332 62.680435 103.509003
v 169.620758 63.267040 94.014381
v 169.862854 62.947712 94.034027
v 169.857498 63.211277 94.527290
v 169.681473 63.224640 101.973793
v 169.985031 63.161880 102.436989
v 169.953247 62.943676 102.979126
v 169.821152 63.363354 95.027641
v 169.875320 63.404259 96.012749
v 169.921188 63.474541 97.004982
v 169.929443 63.490894 98.000168
v 169.930328 63.495193 99.000061
v 169.932953 63.489727 100.001694
v 169.953415 63.463917 100.988701
v 170.011414 63.334572 101.928436
v 170.198532 55.755329 99.043335
v 170.492905 55.733997 99.515747
v 170.413834 55.638195 99.999191
v 170.180252 55.757915 100.946793
v 170.474564 55.748013 100.473816
v 170.507660 56.294754 98.533974
v 170.548904 55.924507 99.002098
v 170.488007 56.003803 100.962852
v 170.410736 56.366467 101.282028
v 170.430908 57.050648 97.822884
v 170.479401 56.687740 98.105232
v 170.500870 56.857784 101.429291
v 170.510254 57.462273 97.701469
v 170.521942 57.432713 101.502594
v 170.541748 57.979725 97.701469
v 170.508743 58.004189 101.582664
v 170.259384 58.564461 98.043732
v 170.620758 58.394402 97.820625
v 170.427292 58.500412 101.709991
v 170.564194 58.783657 98.089043
v 170.507294 59.211132 98.402824
v 170.523712 58.891693 102.003578
v 170.299789 59.228359 101.981583
v 170.552017 59.206486 102.487541
v 170.574707 59.722172 98.661987
v 170.050797 59.698750 102.043419
v 170.542206 59.495453 102.990875
v 170.265549 59.791309 102.973770
v 170.549133 59.795143 103.485970
v 170.438919 60.173603 98.955307
v 169.978958 60.308323 99.853073
v 170.261978 60.330307 99.345558
v 170.561386 60.101948 103.962570
v 170.274261 60.397465 103.960091
v 170.651047 60.482952 104.240707
v 170.143967 61.056435 96.023293
v 170.217209 60.982712 97.002663
v 170.485962 60.997528 97.522804
v 170.483505 60.805721 98.092026
v 170.410843 60.416061 98.943832
v 170.556915 60.964935 104.372520
v 169.962006 61.623066 94.061424
v 170.142197 61.575645 95.013000
v 170.362518 61.596806 95.583313
v 170.403961 61.330639 96.034439
v 170.511322 61.245399 97.001930
v 170.541870 61.530342 104.407333
v 170.043610 62.116890 94.051559
v 170.260147 62.118954 94.991478
v 170.461990 62.118366 95.525528
v 170.555832 62.081089 104.341583
v 169.985901 62.627998 94.077499
v 170.228333 62.702919 95.015137
v 170.420105 62.662453 95.551193
v 170.282730 62.614716 103.933708
v 170.623947 62.477268 104.177567
v 170.005646 63.172588 95.042114
v 170.449768 62.952103 96.026619
v 170.202545 63.225494 95.997299
v 170.434509 63.200726 96.528961
v 170.527573 63.028042 103.007118
v 170.527145 63.229656 102.476761
v 170.592148 62.721523 103.898392
v 170.399002 63.318607 97.032448
v 170.439774 63.364201 98.000557
v 170.446350 63.379097 99.000557
v 170.463791 63.400757 100.018982
v 170.508270 63.451092 101.001045
v 170.524673 63.373775 101.952713
v 170.732559 55.783421 100.000710
v 171.027039 56.416187 98.711929
v 171.019730 56.178448 99.058388
v 171.041626 56.027111 99.975014
v 170.787109 56.285854 100.968102
v 171.082993 56.284737 100.484024
v 170.787781 56.886852 98.050858
v 171.143448 56.810219 98.378601
v 171.056000 56.593853 100.952278
v 170.928253 56.943905 101.220886
v 170.915039 57.531643 97.805450
v 171.071579 57.164482 98.046906
v 171.062469 57.475307 101.355904
v 170.957047 58.011219 97.782730
v 171.086761 57.983620 101.623428
v 170.945862 58.415264 97.860649
v 171.145752 58.385784 101.953300
v 170.822739 58.605240 101.995621
v 171.165161 58.729660 102.423119
v 171.059967 58.777603 98.099098
v 171.142685 59.228168 98.356621
v 171.167282 59.028591 102.919670
v 170.855072 59.232601 102.973022
v 171.170990 59.327251 103.416649
v 171.117798 59.755844 98.557533
v 171.171860 59.631790 103.895058
v 170.869781 59.838314 103.945732
v 171.214767 59.969143 104.199554
v 170.605179 60.355362 98.840782
v 170.974594 60.448261 98.734367
v 171.132889 60.389862 104.368553
v 170.797104 60.969532 98.107170
v 171.167542 60.747406 98.896515
v 171.158493 60.948742 98.906151
v 171.415848 61.048740 99.220428
v 171.114517 60.947491 104.454361
v 170.549438 61.622684 96.060402
v 170.728165 61.575645 97.012993
v 170.951065 61.594784 97.582329
v 171.010132 61.306217 98.034904
v 171.212341 61.195541 98.964523
v 171.109818 61.526157 104.453979
v 170.632965 62.116833 96.050095
v 170.846588 62.118965 96.991333
v 171.046539 62.118328 97.525902
v 171.091217 62.079193 104.356224
v 170.580643 62.630352 96.072083
v 170.814346 62.703281 97.015266
v 170.996719 62.658405 97.553131
v 171.013550 62.475651 104.176697
v 170.581116 63.160675 97.040047
v 170.998932 62.915401 98.023369
v 170.748840 63.186150 97.991913
v 170.762604 63.210255 99.002182
v 171.035858 62.939701 99.003273
v 170.806625 63.256893 100.000900
v 171.099609 62.987843 100.003006
v 171.070908 63.229225 100.518936
v 171.117447 62.998554 102.984276
v 171.068237 63.172493 102.446907
v 171.039490 62.705753 103.895164
v 171.010544 63.338051 101.027931
v 171.019302 63.307438 101.951385
v 171.301544 56.385128 99.045860
v 171.339325 56.318970 99.984726
v 171.533600 56.928127 98.714005
v 171.560532 56.657059 99.046326
v 171.595123 56.627434 99.977562
v 171.288635 56.896786 100.920189
v 171.580307 56.899998 100.435631
v 171.283035 57.477200 98.089935
v 171.662292 57.444393 98.530457
v 171.483200 57.389706 101.043877
v 171.803696 57.375877 100.561615
v 171.352203 58.015087 98.055717
v 171.742599 58.017403 98.407974
v 171.768051 57.611946 101.036438
v 171.669327 57.973541 101.490051
v 171.293793 58.544525 98.096176
v 171.721603 58.628387 98.387344
v 171.694000 58.343395 101.973358
v 171.698898 58.661552 102.463799
v 171.695160 59.183628 98.499138
v 171.698395 58.953846 102.964348
v 171.698990 59.251976 103.460258
v 171.672073 59.744038 98.625641
v 171.697739 59.574833 103.924927
v 171.695724 59.924633 104.234818
v 171.594437 60.173107 98.786415
v 171.685623 60.375095 104.378479
v 171.649628 60.556728 99.065125
v 171.700363 60.909931 99.514809
v 171.684753 60.942490 104.419281
v 171.133148 61.621407 98.055931
v 171.288040 61.564838 99.041344
v 171.706223 61.284885 99.906601
v 171.610977 61.600548 99.947906
v 171.845795 61.590290 100.416374
v 171.667206 61.509121 104.372971
v 171.190781 62.116329 98.047112
v 171.294907 62.114830 99.009048
v 171.492264 62.118469 99.970627
v 171.705048 62.116543 100.497726
v 171.573441 61.990475 104.240768
v 171.135178 62.610683 98.049812
v 171.192932 62.620476 99.006210
v 171.325134 62.660225 100.008118
v 171.553452 62.643173 100.574211
v 171.343704 62.596531 103.932465
v 171.652313 62.359226 103.954582
v 171.642227 62.621567 103.470032
v 171.313187 63.172569 101.019104
v 171.569611 62.897232 101.031059
v 171.323135 63.171741 101.978020
v 171.612778 62.936043 102.012131
v 171.605804 62.788822 102.960419
v 171.748428 56.944130 99.056763
v 171.773605 56.931873 99.958145
v 171.985840 57.430580 99.018822
v 172.043457 57.399399 100.001816
v 172.096588 58.098904 98.739265
v 172.185074 57.783802 99.039230
v 172.276489 57.715782 100.024246
v 172.206223 57.900944 100.962509
v 172.225540 58.146820 101.427879
v 172.146149 58.609100 98.705757
v 172.234344 58.431046 101.926025
v 172.233734 58.723652 102.427475
v 172.149582 59.175930 98.727982
v 172.233856 59.017441 102.925644
v 172.228973 59.317661 103.421127
v 172.089996 59.669418 98.796356
v 172.204788 59.639515 103.883247
v 172.106934 59.949989 104.151924
v 172.228851 60.022156 99.053833
v 171.948807 60.304996 99.052010
v 172.317795 60.367893 99.475586
v 172.139130 60.371235 104.244934
v 172.020599 60.979786 99.973869
v 172.318253 60.730225 99.953346
v 172.330963 61.045033 100.440239
v 172.143112 60.934048 104.256683
v 172.142014 61.619751 100.939415
v 172.354279 61.358124 100.926514
v 172.353241 61.646812 101.431976
v 172.088135 61.427166 104.201447
v 171.921188 62.116367 101.025215
v 172.360840 61.934879 101.960068
v 172.168274 62.193459 101.956619
v 172.303909 62.131294 102.493767
v 171.951889 62.078857 103.961060
v 172.216293 61.770817 103.945084
v 172.238251 62.074181 103.477470
v 171.738953 62.611652 101.051735
v 171.848343 62.636047 102.005249
v 172.194077 62.321827 102.997681
v 171.913208 62.595024 102.971458
v 172.333954 58.107639 99.069077
v 172.537384 58.057613 99.983482
v 172.493347 58.116646 100.968918
v 172.494263 58.593086 99.082207
v 172.726105 58.653698 99.569145
v 172.756744 58.385777 100.023903
v 172.760574 58.392029 100.983002
v 172.534912 58.651218 101.970894
v 172.797546 58.649910 101.473595
v 172.498260 59.180233 99.062325
v 172.793015 59.187695 99.537041
v 172.805588 58.933868 101.977516
v 172.532913 59.237926 102.968834
v 172.804321 59.227570 102.475288
v 172.440079 59.718159 99.100304
v 172.742416 59.774532 99.551460
v 172.793488 59.527046 102.964828
v 172.416428 59.851807 103.884216
v 172.720673 59.831715 103.418465
v 172.699417 60.210777 99.748093
v 172.498932 60.365444 103.938744
v 172.802078 60.363380 103.466255
v 172.757660 60.490501 100.108315
v 172.763763 60.790146 100.590569
v 172.500748 60.937145 103.940285
v 172.797729 60.936840 103.463943
v 172.769562 61.089481 101.086143
v 172.763016 61.368362 101.586975
v 172.424500 61.471180 103.895500
v 172.698059 61.455002 103.408676
v 172.748795 61.592785 102.050858
v 172.482300 62.020130 102.998695
v 172.727661 61.720329 102.958733
v 172.891785 58.693497 100.050087
v 172.916199 58.701809 100.970833
v 172.970749 59.197063 100.044189
v 173.053665 59.203968 100.996552
v 172.942322 59.268284 101.951622
v 172.966537 59.759857 100.052536
v 173.084274 59.772884 101.003502
v 173.070786 59.785271 101.990067
v 172.913376 59.846458 102.927002
v 172.872986 60.259392 100.097191
v 173.054398 60.341312 101.012459
v 173.085129 60.357059 101.996696
v 172.990494 60.366352 102.957283
v 172.901947 60.835800 101.063354
v 173.035553 60.921120 102.004852
v 172.972687 60.932781 102.956268
v 172.879501 61.393906 102.040825
v 172.872986 61.427338 102.946747
# 1486 vertices, 0 vertices normals

f 3 2 1
f 5 4 1
f 1 4 3
f 7 6 5
f 5 6 4
f 7 8 6
f 1 2 9
f 9 2 10
f 1 11 5
f 1 9 11
f 5 12 7
f 5 11 12
f 8 7 13
f 13 7 12
f 9 10 14
f 14 10 15
f 9 16 11
f 9 14 16
f 11 17 12
f 11 16 17
f 13 12 18
f 18 12 17
f 14 15 19
f 19 15 20
f 14 21 16
f 14 19 21
f 16 22 17
f 16 21 22
f 18 17 23
f 23 17 22
f 19 20 24
f 24 20 25
f 19 26 21
f 19 24 26
f 21 27 22
f 21 26 27
f 23 22 28
f 28 22 27
f 25 29 24
f 24 29 26
f 26 29 30
f 26 30 27
f 27 30 31
f 27 31 28
f 33 32 3
f 3 32 2
f 34 3 4
f 34 33 3
f 35 4 6
f 35 34 4
f 6 8 35
f 35 8 36
f 32 10 2
f 37 10 32
f 13 36 8
f 13 38 36
f 41 40 39
f 37 41 39
f 15 37 39
f 10 37 15
f 18 38 13
f 18 42 38
f 40 43 39
f 15 39 43
f 44 15 43
f 20 15 44
f 23 42 18
f 23 45 42
f 44 25 20
f 46 25 44
f 28 45 23
f 28 47 45
f 46 48 25
f 25 48 29
f 29 49 30
f 48 49 29
f 30 50 31
f 49 50 30
f 28 31 47
f 47 31 50
f 52 51 33
f 33 51 32
f 53 33 34
f 53 52 33
f 55 53 54
f 53 35 54
f 53 34 35
f 36 54 35
f 58 57 56
f 51 58 56
f 37 51 56
f 32 51 37
f 59 55 54
f 54 36 59
f 36 60 59
f 36 38 60
f 56 57 41
f 57 40 41
f 57 61 40
f 56 41 37
f 42 60 38
f 42 62 60
f 43 40 63
f 40 64 63
f 40 61 64
f 63 44 43
f 45 62 42
f 45 65 62
f 64 66 63
f 44 63 66
f 67 44 66
f 46 44 67
f 47 65 45
f 47 68 65
f 67 69 46
f 46 69 48
f 48 70 49
f 69 70 48
f 49 71 50
f 70 71 49
f 47 50 68
f 68 50 71
f 74 73 72
f 51 52 72
f 52 74 72
f 52 75 74
f 76 52 53
f 76 75 52
f 53 55 76
f 76 55 77
f 72 73 58
f 73 57 58
f 73 78 57
f 72 58 51
f 79 77 55
f 79 55 59
f 59 60 79
f 79 60 80
f 78 61 57
f 81 61 78
f 62 80 60
f 62 82 80
f 81 64 61
f 83 64 81
f 65 82 62
f 65 84 82
f 66 64 85
f 64 86 85
f 64 83 86
f 85 67 66
f 89 88 87
f 88 84 87
f 84 68 87
f 84 65 68
f 86 90 85
f 85 90 67
f 90 69 67
f 90 91 69
f 69 92 70
f 91 92 69
f 87 71 89
f 71 92 89
f 71 70 92
f 71 87 68
f 94 93 74
f 74 93 73
f 95 74 75
f 95 94 74
f 96 75 76
f 96 95 75
f 76 77 96
f 96 77 97
f 93 78 73
f 98 78 93
f 77 79 99
f 100 77 99
f 97 77 100
f 80 99 79
f 98 81 78
f 101 81 98
f 100 99 102
f 100 102 103
f 82 102 80
f 80 102 99
f 101 83 81
f 104 83 101
f 103 102 105
f 103 105 106
f 84 105 82
f 82 105 102
f 104 86 83
f 107 86 104
f 106 105 88
f 89 106 88
f 108 106 89
f 88 105 84
f 107 109 86
f 86 109 90
f 90 110 91
f 109 110 90
f 91 111 92
f 110 111 91
f 89 92 108
f 108 92 111
f 113 112 94
f 94 112 93
f 114 94 95
f 114 113 94
f 115 95 96
f 115 114 95
f 96 97 115
f 115 97 116
f 119 118 117
f 112 119 117
f 98 112 117
f 93 112 98
f 100 116 97
f 100 120 116
f 117 118 121
f 121 118 122
f 121 101 98
f 121 98 117
f 103 120 100
f 103 123 120
f 121 122 124
f 124 122 125
f 124 104 101
f 124 101 121
f 106 123 103
f 106 126 123
f 125 127 124
f 104 124 127
f 128 104 127
f 107 104 128
f 108 126 106
f 108 129 126
f 128 130 107
f 107 130 109
f 109 131 110
f 130 131 109
f 110 132 111
f 131 132 110
f 108 111 129
f 129 111 132
f 135 134 133
f 112 113 133
f 113 135 133
f 113 136 135
f 137 113 114
f 137 136 113
f 139 137 138
f 137 115 138
f 137 114 115
f 116 138 115
f 133 134 119
f 134 118 119
f 134 140 118
f 133 119 112
f 141 139 138
f 138 116 141
f 116 142 141
f 116 120 142
f 140 122 118
f 143 122 140
f 123 142 120
f 123 144 142
f 143 125 122
f 145 125 143
f 126 144 123
f 126 146 144
f 145 147 125
f 125 147 127
f 128 127 147
f 128 147 148
f 151 150 149
f 150 146 149
f 146 129 149
f 146 126 129
f 148 152 128
f 128 152 130
f 130 153 131
f 152 153 130
f 149 132 151
f 132 153 151
f 132 131 153
f 132 149 129
f 156 155 154
f 158 157 154
f 154 157 156
f 158 159 157
f 161 160 135
f 135 160 134
f 136 154 155
f 161 136 155
f 135 136 161
f 154 136 137
f 154 137 158
f 137 139 158
f 139 159 158
f 139 162 159
f 160 140 134
f 163 140 160
f 139 141 164
f 165 139 164
f 162 139 165
f 142 164 141
f 163 143 140
f 166 143 163
f 167 165 164
f 164 142 167
f 142 168 167
f 142 144 168
f 166 145 143
f 169 145 166
f 172 171 170
f 171 168 170
f 168 146 170
f 168 144 146
f 169 173 145
f 145 173 147
f 148 147 173
f 148 173 174
f 172 170 150
f 151 172 150
f 175 172 151
f 150 170 146
f 174 176 148
f 148 176 152
f 152 177 153
f 176 177 152
f 151 153 175
f 175 153 177
f 180 179 178
f 155 156 178
f 156 180 178
f 156 181 180
f 182 156 157
f 182 181 156
f 157 159 182
f 182 159 183
f 178 179 161
f 179 160 161
f 179 184 160
f 178 161 155
f 162 183 159
f 162 185 183
f 184 163 160
f 186 163 184
f 165 185 162
f 165 187 185
f 186 166 163
f 188 166 186
f 165 167 189
f 190 165 189
f 187 165 190
f 168 189 167
f 188 169 166
f 191 169 188
f 190 189 171
f 172 190 171
f 192 190 172
f 171 189 168
f 191 193 169
f 169 193 173
f 174 173 193
f 174 193 194
f 175 192 172
f 175 195 192
f 194 196 174
f 174 196 176
f 176 197 177
f 196 197 176
f 175 177 195
f 195 177 197
f 200 199 198
f 202 201 198
f 198 201 200
f 202 203 201
f 198 199 180
f 199 179 180
f 199 204 179
f 198 180 181
f 198 181 202
f 205 203 202
f 181 205 202
f 182 205 181
f 182 183 205
f 205 183 206
f 209 208 207
f 204 209 207
f 184 204 207
f 179 204 184
f 185 206 183
f 185 210 206
f 208 211 207
f 184 207 211
f 212 184 211
f 186 184 212
f 187 210 185
f 187 213 210
f 212 188 186
f 214 188 212
f 190 213 187
f 190 215 213
f 214 191 188
f 216 191 214
f 192 215 190
f 192 217 215
f 216 218 191
f 191 218 193
f 220 219 194
f 193 220 194
f 218 220 193
f 222 221 219
f 222 219 220
f 222 217 221
f 217 195 221
f 217 192 195
f 219 196 194
f 196 219 197
f 197 219 221
f 197 221 195
f 225 224 223
f 199 200 223
f 200 225 223
f 200 226 225
f 227 200 201
f 227 226 200
f 201 203 227
f 227 203 228
f 223 224 229
f 229 224 230
f 229 204 199
f 229 199 223
f 231 228 203
f 231 203 205
f 205 206 231
f 231 206 232
f 229 230 209
f 230 208 209
f 230 233 208
f 229 209 204
f 210 232 206
f 210 234 232
f 211 208 235
f 208 236 235
f 208 233 236
f 235 212 211
f 213 234 210
f 213 237 234
f 236 238 235
f 212 235 238
f 239 212 238
f 214 212 239
f 215 237 213
f 215 240 237
f 239 216 214
f 241 216 239
f 244 243 242
f 243 240 242
f 240 217 242
f 240 215 217
f 241 245 216
f 216 245 218
f 218 246 220
f 245 246 218
f 242 222 244
f 222 246 244
f 222 220 246
f 222 242 217
f 249 248 247
f 251 250 247
f 247 250 249
f 251 252 250
f 247 248 225
f 248 224 225
f 248 253 224
f 247 225 226
f 247 226 251
f 254 252 251
f 226 254 251
f 227 254 226
f 227 228 254
f 254 228 255
f 253 230 224
f 256 230 253
f 257 255 228
f 257 228 231
f 231 232 257
f 257 232 258
f 256 233 230
f 259 233 256
f 234 258 232
f 234 260 258
f 259 236 233
f 261 236 259
f 237 260 234
f 237 262 260
f 261 263 236
f 236 263 238
f 239 238 263
f 239 263 264
f 240 262 237
f 240 265 262
f 267 241 266
f 241 264 266
f 241 239 264
f 269 268 267
f 269 267 266
f 243 244 268
f 269 243 268
f 270 243 269
f 240 243 265
f 265 243 270
f 267 245 241
f 245 267 246
f 246 267 268
f 246 268 244
f 272 271 249
f 249 271 248
f 273 249 250
f 273 272 249
f 250 252 273
f 273 252 274
f 277 276 275
f 271 277 275
f 253 271 275
f 248 271 253
f 278 274 252
f 278 252 254
f 254 255 278
f 278 255 279
f 275 276 280
f 280 276 281
f 280 256 253
f 280 253 275
f 255 257 282
f 283 255 282
f 279 255 283
f 258 282 257
f 280 281 284
f 284 281 285
f 284 259 256
f 284 256 280
f 283 282 286
f 283 286 287
f 260 286 258
f 258 286 282
f 285 288 284
f 259 284 288
f 289 259 288
f 261 259 289
f 287 286 290
f 287 290 291
f 262 290 260
f 260 290 286
f 289 292 261
f 261 292 263
f 264 263 292
f 264 292 293
f 291 290 294
f 291 294 295
f 265 294 262
f 262 294 290
f 293 296 264
f 264 296 266
f 266 297 269
f 296 297 266
f 294 270 295
f 270 297 295
f 270 269 297
f 270 294 265
f 300 299 298
f 298 301 300
f 304 303 302
f 304 302 299
f 299 302 298
f 302 271 298
f 271 272 298
f 305 301 298
f 272 305 298
f 273 305 272
f 273 274 305
f 305 274 306
f 302 303 277
f 303 276 277
f 303 307 276
f 302 277 271
f 308 306 274
f 308 274 278
f 278 279 308
f 308 279 309
f 307 281 276
f 310 281 307
f 283 309 279
f 283 311 309
f 310 285 281
f 312 285 310
f 287 311 283
f 287 313 311
f 312 314 285
f 285 314 288
f 289 288 314
f 289 314 315
f 291 313 287
f 291 316 313
f 315 317 289
f 289 317 292
f 293 292 317
f 293 317 318
f 321 320 319
f 320 316 319
f 316 295 319
f 316 291 295
f 318 322 293
f 293 322 296
f 319 297 321
f 297 322 321
f 297 296 322
f 297 319 295
f 325 324 323
f 299 300 323
f 300 325 323
f 300 326 325
f 300 301 326
f 326 301 327
f 330 329 328
f 330 328 324
f 324 328 323
f 328 303 323
f 303 304 323
f 323 304 299
f 331 327 301
f 331 301 305
f 305 306 331
f 331 306 332
f 328 329 333
f 333 329 334
f 333 307 303
f 333 303 328
f 306 308 335
f 336 306 335
f 332 306 336
f 309 335 308
f 333 334 337
f 337 334 338
f 337 310 307
f 337 307 333
f 339 336 335
f 335 309 339
f 309 340 339
f 309 311 340
f 338 341 337
f 310 337 341
f 342 310 341
f 312 310 342
f 313 340 311
f 313 343 340
f 314 312 344
f 312 345 344
f 312 342 345
f 344 315 314
f 348 347 346
f 347 343 346
f 343 316 346
f 343 313 316
f 345 349 344
f 344 349 315
f 349 317 315
f 349 350 317
f 352 351 318
f 317 352 318
f 350 352 317
f 351 352 348
f 351 348 346
f 321 351 346
f 320 321 346
f 320 346 316
f 351 322 318
f 322 351 321
f 355 354 353
f 353 356 355
f 353 354 357
f 357 354 358
f 356 353 359
f 359 353 357
f 358 360 357
f 357 360 359
f 363 362 361
f 324 325 361
f 325 363 361
f 325 364 363
f 365 325 326
f 365 364 325
f 326 327 365
f 365 327 366
f 361 362 330
f 362 329 330
f 362 367 329
f 361 330 324
f 368 366 327
f 368 327 331
f 331 332 368
f 368 332 369
f 367 334 329
f 370 334 367
f 336 369 332
f 336 371 369
f 370 338 334
f 372 338 370
f 336 339 373
f 374 336 373
f 371 336 374
f 340 373 339
f 341 338 375
f 338 376 375
f 338 372 376
f 375 342 341
f 374 373 377
f 374 377 378
f 343 377 340
f 340 377 373
f 376 379 375
f 342 375 379
f 380 342 379
f 345 342 380
f 383 382 381
f 381 382 378
f 381 378 377
f 348 381 377
f 347 348 377
f 347 377 343
f 380 384 345
f 345 384 349
f 349 385 350
f 384 385 349
f 381 352 383
f 352 385 383
f 352 350 385
f 352 381 348
f 388 387 386
f 390 389 386
f 386 389 388
f 392 391 390
f 390 391 389
f 394 393 392
f 392 393 391
f 394 395 393
f 386 387 355
f 387 354 355
f 387 396 354
f 386 355 356
f 397 386 356
f 390 386 397
f 390 398 392
f 390 397 398
f 392 399 394
f 392 398 399
f 395 394 400
f 400 394 399
f 396 358 354
f 401 358 396
f 359 402 397
f 359 397 356
f 397 403 398
f 397 402 403
f 405 399 404
f 399 403 404
f 399 398 403
f 399 405 400
f 360 358 406
f 358 407 406
f 358 401 407
f 402 359 360
f 406 402 360
f 408 402 406
f 410 403 409
f 403 408 409
f 403 402 408
f 403 410 404
f 407 411 406
f 406 411 408
f 408 411 412
f 408 412 409
f 415 414 413
f 417 416 413
f 413 416 415
f 417 418 416
f 421 420 419
f 421 419 414
f 414 419 413
f 419 362 413
f 362 363 413
f 413 363 364
f 413 364 417
f 422 418 417
f 364 422 417
f 365 422 364
f 365 366 422
f 422 366 423
f 419 420 424
f 424 420 425
f 424 367 362
f 424 362 419
f 366 368 426
f 427 366 426
f 423 366 427
f 369 426 368
f 424 425 428
f 428 425 429
f 428 370 367
f 428 367 424
f 430 427 426
f 426 369 430
f 369 431 430
f 369 371 431
f 428 429 432
f 432 429 433
f 432 372 370
f 432 370 428
f 374 431 371
f 374 434 431
f 433 435 432
f 372 432 435
f 436 372 435
f 376 372 436
f 439 438 437
f 438 434 437
f 434 378 437
f 434 374 378
f 436 440 376
f 376 440 379
f 442 441 380
f 379 442 380
f 440 442 379
f 444 443 441
f 444 441 442
f 443 444 439
f 443 439 437
f 383 443 437
f 382 383 437
f 382 437 378
f 441 384 380
f 384 441 385
f 385 441 443
f 385 443 383
f 447 446 445
f 449 448 445
f 445 448 447
f 451 450 449
f 449 450 448
f 453 452 451
f 451 452 450
f 455 454 453
f 453 454 452
f 457 456 455
f 455 456 454
f 459 458 457
f 457 458 456
f 459 460 458
f 446 461 445
f 462 387 388
f 445 462 388
f 449 445 388
f 461 462 445
f 449 388 389
f 449 389 451
f 451 389 391
f 451 391 453
f 453 391 393
f 453 393 455
f 455 393 395
f 463 455 395
f 457 455 463
f 457 464 459
f 457 463 464
f 460 459 465
f 465 459 464
f 462 396 387
f 466 396 462
f 400 467 463
f 400 463 395
f 463 468 464
f 463 467 468
f 465 464 469
f 469 464 468
f 466 401 396
f 470 401 466
f 404 471 405
f 467 400 405
f 471 467 405
f 472 467 471
f 474 468 473
f 468 472 473
f 468 467 472
f 468 474 469
f 470 407 401
f 475 407 470
f 409 476 410
f 476 477 410
f 410 477 404
f 477 478 404
f 478 471 404
f 471 478 472
f 472 478 479
f 472 479 473
f 411 407 480
f 407 481 480
f 407 475 481
f 411 480 482
f 483 411 482
f 412 411 483
f 409 412 476
f 412 484 476
f 412 483 484
f 476 484 477
f 481 485 480
f 480 485 482
f 488 487 486
f 414 415 486
f 415 488 486
f 415 489 488
f 490 415 416
f 490 489 415
f 416 418 490
f 490 418 491
f 486 487 421
f 487 420 421
f 487 492 420
f 486 421 414
f 493 491 418
f 493 418 422
f 422 423 493
f 493 423 494
f 492 425 420
f 495 425 492
f 427 494 423
f 427 496 494
f 495 429 425
f 497 429 495
f 427 430 498
f 499 427 498
f 496 427 499
f 431 498 430
f 497 433 429
f 500 433 497
f 499 498 501
f 499 501 502
f 434 501 431
f 431 501 498
f 500 503 433
f 433 503 435
f 436 435 503
f 436 503 504
f 502 501 438
f 439 502 438
f 505 502 439
f 438 501 434
f 504 506 436
f 436 506 440
f 440 507 442
f 506 507 440
f 442 508 444
f 507 508 442
f 439 444 505
f 505 444 508
f 511 510 509
f 513 512 509
f 509 512 511
f 515 514 513
f 513 514 512
f 517 516 515
f 515 516 514
f 519 518 517
f 517 518 516
f 519 520 518
f 522 521 447
f 447 521 446
f 523 447 448
f 523 522 447
f 524 448 450
f 524 523 448
f 452 509 510
f 524 452 510
f 450 452 524
f 509 452 454
f 509 454 513
f 513 454 456
f 513 456 515
f 515 456 458
f 515 458 517
f 517 458 460
f 525 517 460
f 519 517 525
f 520 519 526
f 519 527 526
f 519 525 527
f 527 528 526
f 461 446 529
f 446 530 529
f 446 521 530
f 529 462 461
f 465 531 525
f 465 525 460
f 525 532 527
f 525 531 532
f 528 527 533
f 533 527 532
f 530 534 529
f 462 529 534
f 535 462 534
f 466 462 535
f 469 536 531
f 469 531 465
f 538 532 537
f 532 536 537
f 532 531 536
f 532 538 533
f 535 470 466
f 539 470 535
f 473 540 474
f 540 541 474
f 474 541 469
f 541 542 469
f 542 536 469
f 536 542 537
f 539 475 470
f 543 475 539
f 477 544 478
f 478 544 545
f 546 478 545
f 479 478 546
f 473 479 540
f 479 547 540
f 479 546 547
f 540 547 541
f 543 481 475
f 548 481 543
f 550 549 483
f 550 483 482
f 483 551 484
f 549 551 483
f 477 484 544
f 484 552 544
f 484 551 552
f 544 552 545
f 548 553 481
f 481 553 485
f 482 485 550
f 550 485 553
f 556 555 554
f 487 488 554
f 488 556 554
f 488 557 556
f 558 488 489
f 558 557 488
f 559 489 490
f 559 558 489
f 490 491 559
f 559 491 560
f 554 555 561
f 561 555 562
f 561 492 487
f 561 487 554
f 491 493 563
f 564 491 563
f 560 491 564
f 494 563 493
f 561 562 565
f 565 562 566
f 565 495 492
f 565 492 561
f 567 564 563
f 563 494 567
f 494 568 567
f 494 496 568
f 565 566 569
f 569 566 570
f 569 497 495
f 569 495 565
f 499 568 496
f 499 571 568
f 570 572 569
f 497 569 572
f 573 497 572
f 500 497 573
f 576 575 574
f 575 571 574
f 571 502 574
f 571 499 502
f 573 577 500
f 500 577 503
f 504 503 577
f 504 577 578
f 576 574 579
f 576 579 580
f 505 579 502
f 502 579 574
f 578 581 504
f 504 581 506
f 506 582 507
f 581 582 506
f 579 508 580
f 508 582 580
f 508 507 582
f 508 579 505
f 585 584 583
f 587 586 583
f 583 586 585
f 587 588 586
f 590 589 511
f 511 589 510
f 591 511 512
f 591 590 511
f 592 512 514
f 592 591 512
f 593 514 516
f 593 592 514
f 518 583 584
f 593 518 584
f 516 518 593
f 583 518 520
f 594 583 520
f 587 583 594
f 588 587 595
f 587 596 595
f 587 594 596
f 596 597 595
f 598 521 522
f 598 522 599
f 522 600 599
f 522 523 600
f 601 523 524
f 601 600 523
f 524 510 589
f 524 589 601
f 526 594 520
f 594 526 528
f 602 594 528
f 596 594 602
f 597 596 603
f 603 596 602
f 605 604 598
f 604 521 598
f 604 530 521
f 605 598 599
f 533 606 602
f 533 602 528
f 603 602 607
f 607 602 606
f 534 530 608
f 530 609 608
f 530 604 609
f 608 535 534
f 537 610 538
f 610 611 538
f 538 611 533
f 611 612 533
f 612 606 533
f 606 612 607
f 609 613 608
f 535 608 613
f 614 535 613
f 539 535 614
f 541 615 542
f 615 616 542
f 542 616 537
f 616 617 537
f 617 610 537
f 610 617 611
f 614 543 539
f 618 543 614
f 545 619 546
f 546 619 620
f 621 546 620
f 547 546 621
f 541 547 615
f 547 622 615
f 547 621 622
f 615 622 616
f 624 548 623
f 548 618 623
f 548 543 618
f 549 550 624
f 623 549 624
f 625 549 623
f 549 626 551
f 625 626 549
f 551 627 552
f 626 627 551
f 545 552 619
f 552 628 619
f 552 627 628
f 619 628 620
f 624 553 548
f 553 624 550
f 630 629 556
f 556 629 555
f 631 556 557
f 631 630 556
f 632 557 558
f 632 631 557
f 634 632 633
f 632 559 633
f 632 558 559
f 560 633 559
f 637 636 635
f 629 637 635
f 562 629 635
f 555 629 562
f 638 634 633
f 633 560 638
f 560 639 638
f 560 564 639
f 636 640 635
f 562 635 640
f 641 562 640
f 566 562 641
f 564 567 642
f 643 564 642
f 639 564 643
f 568 642 567
f 641 570 566
f 644 570 641
f 643 642 645
f 643 645 646
f 571 645 568
f 568 645 642
f 572 570 647
f 570 648 647
f 570 644 648
f 647 573 572
f 646 645 575
f 576 646 575
f 649 646 576
f 575 645 571
f 648 650 647
f 647 650 573
f 650 577 573
f 650 651 577
f 653 652 578
f 577 653 578
f 651 653 577
f 655 654 652
f 655 652 653
f 655 649 654
f 649 580 654
f 649 576 580
f 652 581 578
f 581 652 582
f 582 652 654
f 582 654 580
f 657 656 585
f 585 656 584
f 658 585 586
f 658 657 585
f 660 659 588
f 659 586 588
f 659 658 586
f 660 661 659
f 662 589 590
f 662 590 663
f 590 664 663
f 590 591 664
f 665 591 592
f 665 664 591
f 666 592 593
f 666 665 592
f 593 584 656
f 593 656 666
f 595 660 588
f 668 667 597
f 597 667 595
f 667 661 595
f 661 660 595
f 668 669 667
f 670 599 600
f 670 600 671
f 600 672 671
f 600 601 672
f 601 589 662
f 673 601 662
f 672 601 673
f 673 662 663
f 603 674 668
f 603 668 597
f 669 668 675
f 675 668 674
f 676 604 605
f 677 676 605
f 677 605 599
f 678 677 599
f 670 678 599
f 678 670 671
f 607 679 674
f 607 674 603
f 675 674 680
f 680 674 679
f 682 681 676
f 681 604 676
f 681 609 604
f 682 676 677
f 611 683 612
f 683 684 612
f 612 684 607
f 684 685 607
f 685 679 607
f 679 685 680
f 613 609 686
f 609 687 686
f 609 681 687
f 686 614 613
f 616 688 617
f 688 689 617
f 617 689 611
f 689 690 611
f 690 683 611
f 683 690 684
f 687 691 686
f 618 614 686
f 692 618 686
f 691 692 686
f 618 692 693
f 694 693 692
f 697 696 695
f 621 620 695
f 696 621 695
f 698 621 696
f 621 699 622
f 698 699 621
f 616 622 688
f 622 700 688
f 622 699 700
f 688 700 689
f 693 623 618
f 694 701 693
f 701 623 693
f 701 625 623
f 625 702 626
f 701 702 625
f 626 703 627
f 702 703 626
f 695 628 697
f 628 703 697
f 628 627 703
f 628 695 620
f 706 705 704
f 708 707 704
f 704 707 706
f 708 709 707
f 712 711 710
f 712 710 705
f 705 710 704
f 710 629 704
f 629 630 704
f 704 630 631
f 704 631 708
f 713 709 708
f 631 713 708
f 632 713 631
f 632 634 713
f 713 634 714
f 710 711 637
f 711 636 637
f 711 715 636
f 710 637 629
f 634 638 716
f 717 634 716
f 714 634 717
f 639 716 638
f 640 636 718
f 636 719 718
f 636 715 719
f 718 641 640
f 720 717 716
f 716 639 720
f 639 721 720
f 639 643 721
f 718 719 722
f 722 719 723
f 722 644 641
f 722 641 718
f 646 721 643
f 646 724 721
f 723 725 722
f 644 722 725
f 726 644 725
f 648 644 726
f 729 728 727
f 728 724 727
f 724 649 727
f 724 646 649
f 726 730 648
f 648 730 650
f 650 731 651
f 730 731 650
f 651 732 653
f 731 732 651
f 727 655 729
f 655 732 729
f 655 653 732
f 655 727 649
f 734 733 657
f 657 733 656
f 735 657 658
f 735 734 657
f 736 658 659
f 736 735 658
f 738 737 661
f 737 659 661
f 737 736 659
f 738 739 737
f 740 663 664
f 740 664 741
f 664 742 741
f 664 665 742
f 743 665 666
f 743 742 665
f 666 656 733
f 666 733 743
f 667 738 661
f 667 669 738
f 669 739 738
f 669 744 739
f 745 671 672
f 673 746 672
f 672 746 745
f 747 746 673
f 747 673 663
f 748 747 663
f 740 748 663
f 748 740 741
f 675 744 669
f 675 749 744
f 750 677 678
f 671 745 678
f 745 750 678
f 745 751 750
f 746 753 752
f 751 746 752
f 745 746 751
f 753 746 747
f 680 749 675
f 680 754 749
f 755 681 682
f 677 750 682
f 750 755 682
f 750 756 755
f 757 750 751
f 756 750 757
f 751 752 758
f 751 758 757
f 684 759 685
f 759 760 685
f 760 680 685
f 760 754 680
f 761 687 755
f 755 687 681
f 762 755 756
f 761 755 762
f 763 756 757
f 762 756 763
f 757 758 764
f 765 757 764
f 763 757 765
f 766 765 764
f 768 767 690
f 768 690 689
f 684 690 759
f 690 769 759
f 690 767 769
f 759 769 760
f 761 691 687
f 691 761 692
f 692 761 762
f 692 762 694
f 762 770 694
f 762 763 770
f 771 763 765
f 770 763 771
f 765 766 772
f 773 765 772
f 771 765 773
f 696 697 773
f 772 696 773
f 774 696 772
f 696 775 698
f 774 775 696
f 698 776 699
f 775 776 698
f 699 777 700
f 776 777 699
f 689 700 768
f 768 700 777
f 770 701 694
f 701 770 702
f 702 770 771
f 702 771 703
f 703 771 773
f 703 773 697
f 780 779 778
f 705 706 778
f 706 780 778
f 706 781 780
f 782 706 707
f 782 781 706
f 707 709 782
f 782 709 783
f 778 779 712
f 779 711 712
f 779 784 711
f 778 712 705
f 785 783 709
f 785 709 713
f 713 714 785
f 785 714 786
f 789 788 787
f 784 789 787
f 715 784 787
f 711 784 715
f 717 786 714
f 717 790 786
f 787 788 791
f 791 788 792
f 791 719 715
f 791 715 787
f 717 720 793
f 794 717 793
f 790 717 794
f 721 793 720
f 792 795 791
f 719 791 795
f 796 719 795
f 723 719 796
f 794 793 797
f 794 797 798
f 724 797 721
f 721 797 793
f 796 799 723
f 723 799 725
f 726 725 799
f 726 799 800
f 803 802 801
f 801 802 798
f 801 798 797
f 729 801 797
f 728 729 797
f 728 797 724
f 800 804 726
f 726 804 730
f 730 805 731
f 804 805 730
f 801 732 803
f 732 805 803
f 732 731 805
f 732 801 729
f 808 807 806
f 810 809 806
f 806 809 808
f 810 811 809
f 812 733 734
f 812 734 813
f 734 814 813
f 734 735 814
f 736 806 807
f 814 736 807
f 735 736 814
f 806 736 737
f 806 737 810
f 737 739 810
f 739 811 810
f 739 815 811
f 816 741 742
f 816 742 817
f 742 818 817
f 742 743 818
f 743 733 812
f 819 743 812
f 818 743 819
f 819 812 813
f 744 821 820
f 815 744 820
f 739 744 815
f 821 822 820
f 823 747 748
f 741 816 748
f 816 823 748
f 816 824 823
f 816 817 825
f 816 825 824
f 749 826 821
f 749 821 744
f 822 821 827
f 827 821 826
f 828 752 753
f 747 823 753
f 823 828 753
f 823 829 828
f 824 831 830
f 829 824 830
f 823 824 829
f 831 824 825
f 833 832 826
f 749 833 826
f 754 833 749
f 826 832 827
f 834 758 828
f 828 758 752
f 835 828 829
f 834 828 835
f 829 830 836
f 837 829 836
f 835 829 837
f 838 837 836
f 760 833 754
f 760 839 833
f 834 764 758
f 764 834 766
f 834 840 766
f 834 835 840
f 841 835 837
f 840 835 841
f 837 838 842
f 843 837 842
f 841 837 843
f 845 844 843
f 845 843 842
f 847 846 844
f 847 844 845
f 767 768 846
f 847 767 846
f 848 767 847
f 767 849 769
f 848 849 767
f 760 769 839
f 839 769 849
f 840 772 766
f 772 840 774
f 774 840 841
f 774 841 775
f 775 841 843
f 775 843 776
f 776 843 844
f 776 844 777
f 777 844 846
f 777 846 768
f 851 850 780
f 780 850 779
f 852 780 781
f 852 851 780
f 854 852 853
f 852 782 853
f 852 781 782
f 783 853 782
f 857 856 855
f 850 857 855
f 784 850 855
f 779 850 784
f 858 854 853
f 860 858 859
f 859 858 785
f 858 853 785
f 853 783 785
f 786 859 785
f 855 856 789
f 856 788 789
f 856 861 788
f 855 789 784
f 860 859 862
f 860 862 863
f 790 862 786
f 786 862 859
f 861 792 788
f 864 792 861
f 863 862 865
f 863 865 866
f 794 865 790
f 790 865 862
f 795 792 867
f 792 868 867
f 792 864 868
f 867 796 795
f 866 865 869
f 866 869 870
f 798 869 794
f 794 869 865
f 868 871 867
f 867 871 796
f 871 799 796
f 871 872 799
f 800 799 872
f 800 872 873
f 876 875 874
f 874 875 870
f 874 870 869
f 803 874 869
f 802 803 869
f 802 869 798
f 873 877 800
f 800 877 804
f 874 805 876
f 805 877 876
f 805 804 877
f 805 874 803
f 879 878 808
f 808 878 807
f 880 808 809
f 880 879 808
f 809 811 880
f 880 811 881
f 883 882 814
f 814 882 813
f 814 807 878
f 814 878 883
f 815 885 884
f 881 815 884
f 811 815 881
f 887 886 885
f 885 886 884
f 887 888 886
f 889 817 818
f 819 890 818
f 818 890 889
f 891 890 819
f 813 891 819
f 882 891 813
f 820 885 815
f 885 820 822
f 892 885 822
f 887 885 892
f 888 887 893
f 893 887 892
f 894 825 889
f 889 825 817
f 890 896 895
f 894 890 895
f 889 890 894
f 896 890 891
f 827 897 892
f 827 892 822
f 893 892 898
f 898 892 897
f 899 830 831
f 825 894 831
f 894 899 831
f 894 900 899
f 894 895 901
f 894 901 900
f 833 902 832
f 902 903 832
f 832 903 827
f 903 904 827
f 904 897 827
f 897 904 898
f 899 836 830
f 836 899 838
f 899 905 838
f 899 900 905
f 900 901 906
f 907 900 906
f 905 900 907
f 908 907 906
f 910 909 902
f 833 910 902
f 839 910 833
f 902 909 903
f 905 842 838
f 842 905 845
f 845 905 907
f 908 911 907
f 911 845 907
f 911 847 845
f 847 912 848
f 911 912 847
f 848 913 849
f 912 913 848
f 839 849 910
f 910 849 913
f 916 915 914
f 850 851 914
f 851 916 914
f 851 917 916
f 918 851 852
f 918 917 851
f 852 854 918
f 918 854 919
f 914 915 857
f 915 856 857
f 915 920 856
f 914 857 850
f 921 919 854
f 921 854 858
f 858 860 921
f 921 860 922
f 925 924 923
f 920 925 923
f 861 920 923
f 856 920 861
f 863 922 860
f 863 926 922
f 923 924 927
f 927 924 928
f 927 864 861
f 927 861 923
f 866 926 863
f 866 929 926
f 928 930 927
f 864 927 930
f 931 864 930
f 868 864 931
f 870 929 866
f 870 932 929
f 931 933 868
f 868 933 871
f 871 934 872
f 933 934 871
f 936 935 873
f 872 936 873
f 934 936 872
f 875 876 935
f 936 875 935
f 937 875 936
f 870 875 932
f 932 875 937
f 935 877 873
f 877 935 876
f 939 938 879
f 879 938 878
f 940 879 880
f 940 939 879
f 942 941 881
f 941 880 881
f 941 940 880
f 944 943 942
f 942 943 941
f 946 945 944
f 944 945 943
f 946 947 945
f 948 882 883
f 949 948 883
f 878 949 883
f 938 949 878
f 884 942 881
f 942 884 886
f 942 886 944
f 944 886 888
f 950 944 888
f 946 944 950
f 947 946 951
f 946 952 951
f 946 950 952
f 954 953 952
f 952 953 951
f 954 955 953
f 957 956 948
f 956 882 948
f 956 891 882
f 957 948 949
f 893 958 950
f 893 950 888
f 950 959 952
f 950 958 959
f 952 960 954
f 952 959 960
f 955 954 961
f 961 954 960
f 962 895 896
f 963 962 896
f 891 963 896
f 956 963 891
f 898 964 958
f 898 958 893
f 958 965 959
f 958 964 965
f 959 966 960
f 959 965 966
f 961 960 967
f 967 960 966
f 968 901 962
f 962 901 895
f 962 963 969
f 970 962 969
f 968 962 970
f 971 970 969
f 903 972 904
f 964 898 904
f 972 964 904
f 973 964 972
f 975 965 974
f 965 973 974
f 965 964 973
f 965 975 966
f 966 975 976
f 966 976 967
f 968 906 901
f 906 968 908
f 968 977 908
f 968 970 977
f 970 971 978
f 970 978 977
f 980 979 909
f 980 909 910
f 903 909 972
f 909 981 972
f 909 979 981
f 972 981 973
f 973 981 982
f 973 982 974
f 977 911 908
f 978 983 977
f 983 911 977
f 983 912 911
f 912 984 913
f 983 984 912
f 910 913 980
f 980 913 984
f 986 985 916
f 916 985 915
f 987 916 917
f 987 986 916
f 988 917 918
f 988 987 917
f 918 919 988
f 988 919 989
f 992 991 990
f 985 992 990
f 920 985 990
f 915 985 920
f 919 921 993
f 994 919 993
f 989 919 994
f 922 993 921
f 990 991 925
f 991 924 925
f 991 995 924
f 990 925 920
f 994 993 996
f 994 996 997
f 926 996 922
f 922 996 993
f 995 928 924
f 998 928 995
f 997 996 999
f 997 999 1000
f 929 999 926
f 926 999 996
f 930 928 1001
f 928 1002 1001
f 928 998 1002
f 1001 931 930
f 1000 999 1003
f 1000 1003 1004
f 932 1003 929
f 929 1003 999
f 1002 1005 1001
f 1001 1005 931
f 1005 933 931
f 1005 1006 933
f 933 1007 934
f 1006 1007 933
f 934 1008 936
f 1007 1008 934
f 1003 937 1004
f 937 1008 1004
f 937 936 1008
f 937 1003 932
f 1009 938 939
f 1009 939 1010
f 939 1011 1010
f 939 940 1011
f 1012 940 941
f 1012 1011 940
f 1013 941 943
f 1013 1012 941
f 1014 943 945
f 1014 1013 943
f 1016 1015 947
f 1015 945 947
f 1015 1014 945
f 1018 1017 1016
f 1016 1017 1015
f 1020 1019 1018
f 1018 1019 1017
f 1020 1021 1019
f 1023 1022 1009
f 1022 938 1009
f 1022 949 938
f 1023 1009 1010
f 951 1016 947
f 1016 951 953
f 1016 953 1018
f 1018 953 955
f 1024 1018 955
f 1020 1018 1024
f 1021 1020 1025
f 1020 1026 1025
f 1020 1024 1026
f 1028 1027 1026
f 1026 1027 1025
f 1028 1029 1027
f 1030 956 957
f 1031 1030 957
f 949 1031 957
f 1022 1031 949
f 961 1032 1024
f 961 1024 955
f 1024 1033 1026
f 1024 1032 1033
f 1026 1034 1028
f 1026 1033 1034
f 1029 1028 1035
f 1035 1028 1034
f 1036 963 1030
f 1030 963 956
f 1030 1031 1037
f 1030 1037 1036
f 967 1038 1032
f 967 1032 961
f 1032 1039 1033
f 1032 1038 1039
f 1041 1034 1040
f 1034 1039 1040
f 1034 1033 1039
f 1034 1041 1035
f 1036 969 963
f 971 969 1036
f 1037 971 1036
f 1042 971 1037
f 974 1043 975
f 1044 976 975
f 1044 975 1043
f 1038 967 976
f 1044 1038 976
f 1045 1038 1044
f 1047 1039 1046
f 1039 1045 1046
f 1039 1038 1045
f 1039 1047 1040
f 1049 978 1048
f 978 1042 1048
f 978 971 1042
f 1050 1049 1048
f 980 1051 979
f 979 1051 1052
f 1053 979 1052
f 981 979 1053
f 981 1054 982
f 1053 1054 981
f 974 982 1043
f 982 1055 1043
f 982 1054 1055
f 1043 1055 1044
f 1044 1055 1056
f 1044 1056 1045
f 1045 1056 1057
f 1045 1057 1046
f 1049 983 978
f 1050 1058 1049
f 1058 983 1049
f 1058 984 983
f 980 984 1051
f 984 1059 1051
f 984 1058 1059
f 1051 1059 1052
f 1062 1061 1060
f 985 986 1060
f 986 1062 1060
f 986 1063 1062
f 1064 986 987
f 1064 1063 986
f 1066 1064 1065
f 1064 988 1065
f 1064 987 988
f 989 1065 988
f 1060 1061 992
f 1061 991 992
f 1061 1067 991
f 1060 992 985
f 1068 1066 1065
f 1065 989 1068
f 989 1069 1068
f 989 994 1069
f 1067 995 991
f 1070 995 1067
f 997 1069 994
f 997 1071 1069
f 1070 998 995
f 1072 998 1070
f 1000 1071 997
f 1000 1073 1071
f 1072 1002 998
f 1074 1002 1072
f 1077 1076 1075
f 1076 1073 1075
f 1073 1004 1075
f 1073 1000 1004
f 1005 1002 1078
f 1002 1079 1078
f 1002 1074 1079
f 1080 1006 1005
f 1080 1005 1078
f 1006 1080 1081
f 1082 1006 1081
f 1007 1006 1082
f 1075 1008 1077
f 1008 1082 1077
f 1008 1007 1082
f 1008 1075 1004
f 1079 1083 1078
f 1078 1083 1080
f 1080 1083 1084
f 1080 1084 1081
f 1086 1085 1011
f 1011 1085 1010
f 1087 1011 1012
f 1087 1086 1011
f 1088 1012 1013
f 1088 1087 1012
f 1089 1013 1014
f 1089 1088 1013
f 1090 1014 1015
f 1090 1089 1014
f 1091 1015 1017
f 1091 1090 1015
f 1092 1017 1019
f 1092 1091 1017
f 1094 1093 1021
f 1093 1019 1021
f 1093 1092 1019
f 1096 1095 1094
f 1094 1095 1093
f 1098 1097 1096
f 1096 1097 1095
f 1098 1099 1097
f 1101 1100 1023
f 1023 1100 1022
f 1023 1010 1085
f 1023 1085 1101
f 1025 1094 1021
f 1094 1025 1027
f 1094 1027 1096
f 1096 1027 1029
f 1102 1096 1029
f 1098 1096 1102
f 1099 1098 1103
f 1103 1098 1102
f 1100 1031 1022
f 1104 1031 1100
f 1035 1105 1102
f 1035 1102 1029
f 1103 1102 1106
f 1106 1102 1105
f 1104 1037 1031
f 1107 1037 1104
f 1040 1108 1041
f 1105 1035 1041
f 1108 1105 1041
f 1109 1105 1108
f 1106 1105 1110
f 1110 1105 1109
f 1112 1042 1111
f 1042 1107 1111
f 1042 1037 1107
f 1113 1112 1111
f 1046 1114 1047
f 1114 1115 1047
f 1047 1115 1040
f 1115 1116 1040
f 1116 1108 1040
f 1108 1116 1109
f 1109 1116 1117
f 1109 1117 1110
f 1112 1048 1042
f 1119 1118 1050
f 1119 1050 1048
f 1113 1119 1048
f 1112 1113 1048
f 1121 1120 1118
f 1121 1118 1119
f 1053 1052 1120
f 1121 1053 1120
f 1122 1053 1121
f 1053 1123 1054
f 1122 1123 1053
f 1054 1124 1055
f 1123 1124 1054
f 1055 1125 1056
f 1124 1125 1055
f 1056 1126 1057
f 1125 1126 1056
f 1046 1057 1114
f 1057 1127 1114
f 1057 1126 1127
f 1114 1127 1115
f 1118 1058 1050
f 1058 1118 1059
f 1059 1118 1120
f 1059 1120 1052
f 1129 1128 1062
f 1062 1128 1061
f 1130 1062 1063
f 1130 1129 1062
f 1131 1063 1064
f 1131 1130 1063
f 1064 1066 1131
f 1131 1066 1132
f 1128 1067 1061
f 1133 1067 1128
f 1066 1068 1134
f 1135 1066 1134
f 1132 1066 1135
f 1069 1134 1068
f 1138 1137 1136
f 1133 1138 1136
f 1070 1133 1136
f 1067 1133 1070
f 1135 1134 1139
f 1135 1139 1140
f 1071 1139 1069
f 1069 1139 1134
f 1136 1137 1141
f 1141 1137 1142
f 1141 1072 1070
f 1141 1070 1136
f 1140 1139 1143
f 1140 1143 1144
f 1073 1143 1071
f 1071 1143 1139
f 1141 1142 1145
f 1145 1142 1146
f 1145 1074 1072
f 1145 1072 1141
f 1144 1143 1076
f 1077 1144 1076
f 1147 1144 1077
f 1076 1143 1073
f 1146 1148 1145
f 1074 1145 1148
f 1149 1074 1148
f 1079 1074 1149
f 1081 1150 1082
f 1150 1151 1082
f 1151 1077 1082
f 1151 1147 1077
f 1083 1079 1152
f 1079 1153 1152
f 1079 1149 1153
f 1154 1084 1083
f 1154 1083 1152
f 1150 1081 1084
f 1154 1150 1084
f 1155 1150 1154
f 1151 1150 1156
f 1156 1150 1155
f 1152 1153 1157
f 1157 1153 1158
f 1152 1159 1154
f 1152 1157 1159
f 1154 1160 1155
f 1154 1159 1160
f 1156 1155 1161
f 1161 1155 1160
f 1158 1162 1157
f 1157 1162 1159
f 1159 1162 1163
f 1165 1164 1163
f 1164 1159 1163
f 1164 1160 1159
f 1161 1160 1166
f 1160 1167 1166
f 1160 1164 1167
f 1169 1168 1167
f 1167 1168 1166
f 1169 1170 1168
f 1171 1085 1086
f 1087 1172 1086
f 1086 1172 1171
f 1172 1087 1173
f 1087 1174 1173
f 1087 1088 1174
f 1175 1088 1089
f 1175 1174 1088
f 1176 1089 1090
f 1176 1175 1089
f 1177 1090 1091
f 1177 1176 1090
f 1178 1091 1092
f 1178 1177 1091
f 1093 1164 1165
f 1178 1093 1165
f 1092 1093 1178
f 1164 1093 1095
f 1164 1095 1167
f 1167 1095 1097
f 1167 1097 1169
f 1180 1179 1099
f 1099 1179 1097
f 1179 1170 1097
f 1170 1169 1097
f 1180 1181 1179
f 1182 1100 1101
f 1183 1182 1101
f 1183 1101 1085
f 1184 1183 1085
f 1171 1184 1085
f 1184 1171 1172
f 1184 1172 1185
f 1185 1172 1173
f 1103 1186 1180
f 1103 1180 1099
f 1181 1180 1187
f 1187 1180 1186
f 1188 1104 1182
f 1182 1104 1100
f 1182 1183 1189
f 1182 1189 1188
f 1106 1190 1186
f 1106 1186 1103
f 1187 1186 1191
f 1191 1186 1190
f 1192 1107 1188
f 1188 1107 1104
f 1188 1189 1193
f 1188 1193 1192
f 1195 1194 1190
f 1106 1195 1190
f 1110 1195 1106
f 1190 1194 1191
f 1192 1111 1107
f 1197 1196 1113
f 1197 1113 1111
f 1193 1197 1111
f 1192 1193 1111
f 1198 1196 1197
f 1115 1199 1116
f 1116 1199 1200
f 1201 1116 1200
f 1117 1116 1201
f 1110 1117 1195
f 1195 1117 1201
f 1196 1119 1113
f 1198 1202 1196
f 1202 1119 1196
f 1202 1121 1119
f 1121 1203 1122
f 1202 1203 1121
f 1122 1204 1123
f 1203 1204 1122
f 1123 1205 1124
f 1204 1205 1123
f 1124 1206 1125
f 1205 1206 1124
f 1125 1207 1126
f 1206 1207 1125
f 1126 1208 1127
f 1207 1208 1126
f 1115 1127 1199
f 1127 1209 1199
f 1127 1208 1209
f 1199 1209 1200
f 1210 1128 1129
f 1210 1129 1211
f 1129 1212 1211
f 1129 1130 1212
f 1214 1212 1213
f 1212 1131 1213
f 1212 1130 1131
f 1132 1213 1131
f 1216 1215 1210
f 1215 1128 1210
f 1215 1133 1128
f 1216 1210 1211
f 1217 1214 1213
f 1213 1132 1217
f 1132 1218 1217
f 1132 1135 1218
f 1220 1219 1138
f 1138 1219 1137
f 1138 1133 1215
f 1138 1215 1220
f 1140 1218 1135
f 1140 1221 1218
f 1219 1142 1137
f 1222 1142 1219
f 1144 1221 1140
f 1144 1223 1221
f 1222 1146 1142
f 1224 1146 1222
f 1147 1223 1144
f 1147 1225 1223
f 1148 1146 1226
f 1146 1227 1226
f 1146 1224 1227
f 1226 1149 1148
f 1151 1225 1147
f 1151 1228 1225
f 1227 1229 1226
f 1149 1226 1229
f 1230 1149 1229
f 1153 1149 1230
f 1156 1232 1231
f 1228 1156 1231
f 1151 1156 1228
f 1232 1233 1231
f 1230 1158 1153
f 1234 1158 1230
f 1161 1235 1232
f 1161 1232 1156
f 1233 1232 1236
f 1232 1237 1236
f 1232 1235 1237
f 1237 1238 1236
f 1234 1239 1158
f 1158 1239 1162
f 1239 1241 1240
f 1163 1239 1240
f 1162 1239 1163
f 1240 1165 1163
f 1166 1235 1161
f 1235 1166 1168
f 1235 1168 1237
f 1243 1242 1170
f 1170 1242 1168
f 1242 1238 1168
f 1238 1237 1168
f 1243 1244 1242
f 1245 1173 1174
f 1175 1246 1174
f 1174 1246 1245
f 1246 1175 1247
f 1175 1248 1247
f 1175 1176 1248
f 1249 1176 1177
f 1249 1248 1176
f 1178 1240 1241
f 1249 1178 1241
f 1177 1178 1249
f 1240 1178 1165
f 1179 1243 1170
f 1179 1181 1243
f 1181 1244 1243
f 1181 1250 1244
f 1251 1183 1184
f 1185 1252 1184
f 1184 1252 1251
f 1253 1252 1185
f 1253 1185 1173
f 1254 1253 1173
f 1245 1254 1173
f 1254 1245 1246
f 1254 1246 1255
f 1255 1246 1247
f 1187 1250 1181
f 1187 1256 1250
f 1257 1189 1251
f 1251 1189 1183
f 1258 1251 1252
f 1257 1251 1258
f 1252 1253 1259
f 1252 1259 1258
f 1191 1256 1187
f 1191 1260 1256
f 1261 1193 1257
f 1257 1193 1189
f 1262 1257 1258
f 1261 1257 1262
f 1258 1259 1263
f 1258 1263 1262
f 1195 1264 1194
f 1264 1265 1194
f 1265 1191 1194
f 1265 1260 1191
f 1261 1197 1193
f 1197 1261 1198
f 1261 1266 1198
f 1261 1262 1266
f 1262 1263 1267
f 1268 1262 1267
f 1266 1262 1268
f 1269 1268 1267
f 1271 1270 1201
f 1271 1201 1200
f 1195 1201 1264
f 1201 1272 1264
f 1201 1270 1272
f 1264 1272 1265
f 1266 1202 1198
f 1202 1266 1203
f 1203 1266 1268
f 1269 1273 1268
f 1273 1203 1268
f 1273 1204 1203
f 1204 1274 1205
f 1273 1274 1204
f 1205 1275 1206
f 1274 1275 1205
f 1206 1276 1207
f 1275 1276 1206
f 1207 1277 1208
f 1276 1277 1207
f 1208 1278 1209
f 1277 1278 1208
f 1200 1209 1271
f 1271 1209 1278
f 1279 1211 1212
f 1214 1279 1212
f 1281 1280 1216
f 1216 1280 1215
f 1216 1211 1279
f 1282 1216 1279
f 1281 1216 1282
f 1284 1282 1283
f 1283 1282 1217
f 1282 1279 1217
f 1279 1214 1217
f 1218 1283 1217
f 1285 1219 1220
f 1286 1285 1220
f 1215 1286 1220
f 1280 1286 1215
f 1287 1284 1283
f 1283 1218 1287
f 1218 1288 1287
f 1218 1221 1288
f 1290 1289 1285
f 1289 1219 1285
f 1289 1222 1219
f 1290 1285 1286
f 1223 1288 1221
f 1223 1291 1288
f 1289 1224 1222
f 1292 1224 1289
f 1225 1291 1223
f 1225 1293 1291
f 1292 1227 1224
f 1294 1227 1292
f 1228 1296 1295
f 1293 1228 1295
f 1225 1228 1293
f 1296 1297 1295
f 1294 1298 1227
f 1227 1298 1229
f 1230 1229 1298
f 1230 1298 1299
f 1231 1296 1228
f 1301 1300 1233
f 1233 1300 1231
f 1300 1297 1231
f 1297 1296 1231
f 1301 1302 1300
f 1299 1234 1230
f 1303 1234 1299
f 1236 1301 1233
f 1305 1304 1238
f 1238 1304 1236
f 1304 1302 1236
f 1302 1301 1236
f 1305 1306 1304
f 1239 1234 1307
f 1234 1308 1307
f 1234 1303 1308
f 1307 1241 1239
f 1242 1305 1238
f 1242 1244 1305
f 1244 1306 1305
f 1244 1309 1306
f 1310 1247 1248
f 1249 1307 1248
f 1308 1248 1307
f 1248 1308 1310
f 1311 1310 1308
f 1310 1311 1312
f 1249 1241 1307
f 1312 1311 1313
f 1250 1309 1244
f 1250 1314 1309
f 1315 1253 1254
f 1255 1316 1254
f 1254 1316 1315
f 1317 1316 1255
f 1317 1255 1247
f 1318 1317 1247
f 1310 1318 1247
f 1318 1310 1312
f 1318 1312 1319
f 1319 1312 1313
f 1256 1314 1250
f 1256 1320 1314
f 1321 1259 1315
f 1315 1259 1253
f 1322 1315 1316
f 1321 1315 1322
f 1316 1317 1323
f 1316 1323 1322
f 1260 1320 1256
f 1260 1324 1320
f 1325 1263 1321
f 1321 1263 1259
f 1326 1321 1322
f 1325 1321 1326
f 1322 1323 1327
f 1322 1327 1326
f 1265 1324 1260
f 1265 1328 1324
f 1325 1267 1263
f 1267 1325 1269
f 1325 1329 1269
f 1325 1326 1329
f 1326 1327 1330
f 1331 1326 1330
f 1329 1326 1331
f 1333 1332 1331
f 1333 1331 1330
f 1335 1334 1332
f 1335 1332 1333
f 1336 1334 1335
f 1338 1337 1270
f 1338 1270 1271
f 1270 1339 1272
f 1337 1339 1270
f 1265 1272 1328
f 1328 1272 1339
f 1329 1273 1269
f 1273 1329 1274
f 1274 1329 1331
f 1274 1331 1275
f 1275 1331 1332
f 1275 1332 1276
f 1276 1332 1334
f 1336 1340 1334
f 1340 1276 1334
f 1340 1277 1276
f 1277 1341 1278
f 1340 1341 1277
f 1271 1278 1338
f 1338 1278 1341
f 1342 1280 1281
f 1282 1343 1281
f 1281 1343 1342
f 1284 1343 1282
f 1345 1344 1342
f 1344 1280 1342
f 1344 1286 1280
f 1345 1342 1343
f 1345 1343 1346
f 1348 1346 1347
f 1347 1346 1287
f 1346 1343 1287
f 1343 1284 1287
f 1288 1347 1287
f 1349 1289 1290
f 1350 1349 1290
f 1286 1350 1290
f 1344 1350 1286
f 1348 1347 1351
f 1348 1351 1352
f 1291 1351 1288
f 1288 1351 1347
f 1353 1292 1349
f 1349 1292 1289
f 1349 1350 1354
f 1349 1354 1353
f 1355 1352 1351
f 1351 1291 1355
f 1291 1356 1355
f 1291 1293 1356
f 1357 1294 1353
f 1353 1294 1292
f 1353 1354 1358
f 1353 1358 1357
f 1359 1356 1293
f 1359 1293 1295
f 1295 1297 1359
f 1359 1297 1360
f 1357 1298 1294
f 1299 1298 1357
f 1358 1299 1357
f 1361 1299 1358
f 1362 1360 1297
f 1362 1297 1300
f 1300 1302 1362
f 1362 1302 1363
f 1361 1303 1299
f 1364 1303 1361
f 1365 1363 1302
f 1365 1302 1304
f 1304 1306 1365
f 1365 1306 1366
f 1364 1308 1303
f 1367 1308 1364
f 1309 1366 1306
f 1309 1368 1366
f 1367 1369 1308
f 1308 1369 1311
f 1313 1311 1369
f 1313 1369 1370
f 1314 1368 1309
f 1314 1371 1368
f 1372 1317 1318
f 1319 1373 1318
f 1318 1373 1372
f 1313 1370 1374
f 1373 1313 1374
f 1375 1373 1374
f 1319 1313 1373
f 1376 1375 1374
f 1320 1371 1314
f 1320 1377 1371
f 1378 1323 1372
f 1372 1323 1317
f 1379 1372 1373
f 1378 1372 1379
f 1380 1373 1375
f 1379 1373 1380
f 1375 1376 1381
f 1375 1381 1380
f 1324 1377 1320
f 1324 1382 1377
f 1383 1327 1378
f 1378 1327 1323
f 1384 1378 1379
f 1383 1378 1384
f 1385 1379 1380
f 1384 1379 1385
f 1380 1381 1386
f 1380 1386 1385
f 1389 1388 1387
f 1388 1382 1387
f 1382 1328 1387
f 1382 1324 1328
f 1383 1330 1327
f 1330 1383 1333
f 1333 1383 1384
f 1333 1384 1335
f 1335 1384 1385
f 1391 1390 1336
f 1391 1336 1335
f 1386 1391 1335
f 1385 1386 1335
f 1393 1392 1390
f 1393 1390 1391
f 1337 1338 1392
f 1393 1337 1392
f 1394 1337 1393
f 1387 1339 1389
f 1339 1394 1389
f 1339 1337 1394
f 1339 1387 1328
f 1390 1340 1336
f 1340 1390 1341
f 1341 1390 1392
f 1341 1392 1338
f 1395 1344 1345
f 1346 1396 1345
f 1345 1396 1395
f 1348 1396 1346
f 1397 1350 1395
f 1395 1350 1344
f 1398 1395 1396
f 1397 1395 1398
f 1352 1398 1348
f 1348 1398 1396
f 1400 1399 1397
f 1399 1350 1397
f 1399 1354 1350
f 1400 1397 1398
f 1400 1398 1401
f 1401 1398 1352
f 1355 1401 1352
f 1402 1401 1355
f 1355 1356 1402
f 1402 1356 1403
f 1399 1358 1354
f 1404 1358 1399
f 1405 1403 1356
f 1405 1356 1359
f 1359 1360 1405
f 1405 1360 1406
f 1404 1361 1358
f 1407 1361 1404
f 1408 1406 1360
f 1408 1360 1362
f 1362 1363 1408
f 1408 1363 1409
f 1407 1364 1361
f 1410 1364 1407
f 1411 1409 1363
f 1411 1363 1365
f 1365 1366 1411
f 1411 1366 1412
f 1414 1367 1413
f 1367 1410 1413
f 1367 1364 1410
f 1415 1414 1413
f 1368 1412 1366
f 1368 1416 1412
f 1414 1369 1367
f 1418 1417 1370
f 1418 1370 1369
f 1415 1418 1369
f 1414 1415 1369
f 1419 1417 1418
f 1371 1416 1368
f 1371 1420 1416
f 1417 1374 1370
f 1422 1421 1376
f 1422 1376 1374
f 1419 1422 1374
f 1417 1419 1374
f 1423 1421 1422
f 1377 1420 1371
f 1377 1424 1420
f 1425 1381 1421
f 1421 1381 1376
f 1421 1423 1426
f 1427 1421 1426
f 1425 1421 1427
f 1428 1427 1426
f 1431 1430 1429
f 1430 1424 1429
f 1424 1382 1429
f 1424 1377 1382
f 1432 1386 1425
f 1425 1386 1381
f 1433 1425 1427
f 1432 1425 1433
f 1427 1428 1434
f 1435 1427 1434
f 1433 1427 1435
f 1435 1434 1431
f 1435 1431 1429
f 1389 1435 1429
f 1388 1389 1429
f 1388 1429 1382
f 1432 1391 1386
f 1391 1432 1393
f 1393 1432 1433
f 1393 1433 1394
f 1394 1433 1435
f 1394 1435 1389
f 1436 1399 1400
f 1401 1437 1400
f 1400 1437 1436
f 1402 1438 1401
f 1401 1438 1437
f 1403 1438 1402
f 1439 1404 1436
f 1436 1404 1399
f 1437 1441 1440
f 1439 1437 1440
f 1436 1437 1439
f 1441 1437 1438
f 1441 1438 1442
f 1444 1442 1443
f 1443 1442 1405
f 1442 1438 1405
f 1438 1403 1405
f 1406 1443 1405
f 1445 1407 1439
f 1439 1407 1404
f 1439 1440 1446
f 1439 1446 1445
f 1447 1444 1443
f 1449 1447 1448
f 1448 1447 1408
f 1447 1443 1408
f 1443 1406 1408
f 1409 1448 1408
f 1450 1410 1445
f 1445 1410 1407
f 1445 1446 1451
f 1445 1451 1450
f 1452 1449 1448
f 1454 1452 1453
f 1453 1452 1411
f 1452 1448 1411
f 1448 1409 1411
f 1412 1453 1411
f 1450 1413 1410
f 1415 1413 1450
f 1451 1415 1450
f 1455 1415 1451
f 1454 1453 1456
f 1454 1456 1457
f 1416 1456 1412
f 1412 1456 1453
f 1455 1458 1415
f 1415 1458 1418
f 1419 1418 1458
f 1419 1458 1459
f 1457 1456 1460
f 1457 1460 1461
f 1420 1460 1416
f 1416 1460 1456
f 1459 1462 1419
f 1419 1462 1422
f 1423 1422 1462
f 1423 1462 1463
f 1461 1460 1464
f 1461 1464 1465
f 1424 1464 1420
f 1420 1464 1460
f 1463 1466 1423
f 1423 1466 1426
f 1468 1467 1428
f 1426 1468 1428
f 1466 1468 1426
f 1467 1468 1465
f 1467 1465 1464
f 1431 1467 1464
f 1430 1431 1464
f 1430 1464 1424
f 1467 1434 1428
f 1434 1467 1431
f 1469 1440 1441
f 1442 1470 1441
f 1441 1470 1469
f 1444 1470 1442
f 1471 1446 1469
f 1469 1446 1440
f 1472 1469 1470
f 1471 1469 1472
f 1447 1473 1444
f 1473 1470 1444
f 1473 1472 1470
f 1449 1473 1447
f 1474 1451 1471
f 1471 1451 1446
f 1475 1471 1472
f 1474 1471 1475
f 1476 1472 1473
f 1475 1472 1476
f 1452 1477 1449
f 1477 1473 1449
f 1477 1476 1473
f 1454 1477 1452
f 1478 1455 1474
f 1474 1455 1451
f 1479 1474 1475
f 1478 1474 1479
f 1480 1475 1476
f 1479 1475 1480
f 1481 1476 1477
f 1480 1476 1481
f 1457 1481 1454
f 1454 1481 1477
f 1478 1458 1455
f 1458 1478 1459
f 1478 1482 1459
f 1478 1479 1482
f 1483 1479 1480
f 1482 1479 1483
f 1484 1480 1481
f 1483 1480 1484
f 1461 1484 1457
f 1457 1484 1481
f 1482 1462 1459
f 1462 1482 1463
f 1482 1485 1463
f 1482 1483 1485
f 1486 1483 1484
f 1485 1483 1486
f 1465 1486 1461
f 1461 1486 1484
f 1485 1466 1463
f 1466 1485 1468
f 1468 1485 1486
f 1468 1486 1465
# 2968 faces, 0 coords texture

# End of File