####
#
# OBJ File Generated by Meshlab
#
####
# Object domain0639.obj
#
# Vertices: 1470
# Faces: 2936
#
####
v 203.366516 45.214912 113.998405
v 203.460693 45.171337 113.555603
v 203.440353 44.887524 113.996407
v 203.479019 45.168800 114.436493
v 203.295883 45.740448 113.985451
v 203.348694 45.697784 113.479073
v 203.415039 45.712082 114.469536
v 203.326675 46.369678 113.093384
v 203.545853 46.391125 112.786392
v 203.410477 46.027859 113.041344
v 203.243378 46.302826 113.966888
v 203.405502 46.292210 114.469032
v 203.268692 46.894352 113.063370
v 203.479355 46.903439 112.690285
v 203.239304 46.880909 113.956085
v 203.439987 46.896809 114.466019
v 203.224213 47.467747 113.040596
v 203.433472 47.453285 112.529366
v 203.241379 47.465290 113.943420
v 203.455429 47.457130 114.342964
v 203.175751 48.074081 113.013824
v 203.313568 48.032055 112.472260
v 203.250885 48.052319 113.934746
v 203.489014 48.044342 114.280960
v 203.314331 48.711819 112.094124
v 203.553345 48.736111 111.799667
v 203.409286 48.372559 112.043304
v 203.127991 48.643269 113.004028
v 203.244568 48.638264 113.932404
v 203.497818 48.637383 114.252365
v 203.262085 49.237587 112.071411
v 203.508240 49.236626 111.760666
v 203.107010 49.224899 112.999825
v 203.242828 49.222469 113.932304
v 203.498444 49.223175 114.250679
v 203.247543 49.810230 112.069031
v 203.499496 49.809940 111.750961
v 203.115860 49.807545 113.000023
v 203.262604 49.796238 113.928398
v 203.509674 49.796188 114.236961
v 203.274689 50.380981 112.072800
v 203.509628 50.382153 111.763268
v 203.168808 50.377750 112.993973
v 203.322784 50.317604 113.906540
v 203.556656 50.296471 114.196884
v 203.347427 50.884026 112.072594
v 203.560745 50.881550 111.805176
v 203.274109 50.890900 112.972565
v 203.391449 50.957989 113.485901
v 203.428833 50.651436 113.951996
v 203.461014 51.205223 112.043198
v 203.397339 51.240490 112.993515
v 203.938110 42.876225 114.072754
v 204.133636 42.879704 113.787437
v 204.049316 42.556496 114.043007
v 203.986298 42.517986 114.987175
v 203.897400 42.865196 114.952698
v 204.061722 42.821171 115.434235
v 203.841461 43.379330 114.058334
v 204.050293 43.392006 113.675041
v 203.849533 43.376907 114.952553
v 204.047958 43.382957 115.457283
v 203.733383 43.973919 114.017021
v 203.945999 43.915352 113.476234
v 203.812988 43.952511 114.945488
v 204.044846 43.941261 115.340065
v 203.858322 44.611008 113.086159
v 204.134277 44.643860 112.804665
v 204.006912 44.291817 113.062729
v 203.557526 44.516243 114.006630
v 203.780777 44.541580 114.936089
v 204.064911 44.528759 115.290085
v 203.689590 45.120361 113.061508
v 204.065323 45.137375 112.744133
v 203.691772 45.102516 114.930733
v 204.062622 45.121353 115.265968
v 203.593735 45.685539 112.989159
v 203.993759 45.743259 112.685234
v 203.697327 45.707886 114.951515
v 204.058548 45.707130 115.271393
v 203.946716 46.309368 112.572029
v 203.704742 46.287754 114.944405
v 204.071274 46.281712 115.249039
v 203.914536 46.860367 112.406250
v 203.765640 46.829414 114.904045
v 204.124817 46.771458 115.189819
v 203.763977 47.534927 112.102402
v 204.089615 47.651237 111.857765
v 203.983368 47.297482 112.109421
v 203.963898 47.145939 114.952812
v 203.847076 47.557743 114.675507
v 203.608047 48.040920 112.004074
v 204.005249 48.107975 111.748268
v 203.924652 48.055927 114.521515
v 203.953766 48.655560 111.633392
v 203.936554 48.635334 114.450424
v 203.940353 49.226093 111.581337
v 203.937988 49.223881 114.430176
v 203.937958 49.809937 111.569633
v 203.940430 49.808563 114.416786
v 203.940567 50.394699 111.577515
v 203.954132 50.381741 114.377724
v 203.949142 50.971630 111.590332
v 203.614227 50.993923 113.978828
v 204.012131 50.926582 114.273445
v 203.646698 51.562641 112.032173
v 203.989120 51.528469 111.637993
v 203.569443 51.581406 113.005569
v 203.864548 51.468937 113.906281
v 204.109833 51.382084 114.157028
v 203.863953 52.058025 112.045860
v 204.117538 52.075348 111.586372
v 203.849564 52.049416 112.965744
v 204.047058 52.042763 113.402557
v 204.030396 51.689655 113.875519
v 204.021805 52.388123 112.022667
v 204.041351 52.359791 112.972656
v 204.470001 41.130589 115.001457
v 204.596390 41.067940 114.526192
v 204.613586 40.799332 115.001175
v 204.571198 41.047230 115.486725
v 204.449295 41.689075 114.082611
v 204.716293 41.714226 113.796524
v 204.607071 41.370380 114.060783
v 204.296326 41.629868 115.000885
v 204.586884 41.343792 115.959839
v 204.475830 41.681461 115.913124
v 204.724564 41.702393 116.201256
v 204.234970 42.198044 114.039360
v 204.598190 42.241024 113.712730
v 204.116089 42.154793 115.014580
v 204.385574 42.209461 115.932198
v 204.672424 42.203857 116.245308
v 204.534378 42.794724 113.575729
v 204.299438 42.754223 115.916054
v 204.661194 42.766479 116.246170
v 204.494705 43.337646 113.392357
v 204.357544 43.312347 115.899681
v 204.709991 43.255306 116.190285
v 204.268494 44.002483 113.063881
v 204.609955 44.155666 112.820930
v 204.554733 43.766651 113.089348
v 204.549423 43.630177 115.953407
v 204.433136 44.041077 115.675079
v 204.531616 44.570770 112.682838
v 204.510361 44.540272 115.521935
v 204.517365 45.126549 112.617744
v 204.521637 45.119553 115.454185
v 204.519196 45.710602 112.561981
v 204.523453 45.706219 115.418083
v 204.513351 46.295002 112.499428
v 204.518112 46.285492 115.371788
v 204.545639 46.842850 112.380341
v 204.514359 46.819561 115.283569
v 204.352463 47.650322 111.856262
v 204.459900 47.297493 112.112572
v 204.248123 47.420452 114.937782
v 204.513351 47.194199 115.110886
v 204.437637 48.106728 111.746635
v 204.517242 47.590736 114.864159
v 204.505432 48.047165 114.593658
v 204.487366 48.654945 111.635223
v 204.507690 48.632320 114.458595
v 204.501678 49.225483 111.582985
v 204.504868 49.223175 114.435326
v 204.507950 49.810459 111.554695
v 204.503952 49.810097 114.429657
v 204.514557 50.395844 111.509460
v 204.503433 50.394863 114.412918
v 204.494537 50.978306 111.429100
v 204.512070 50.963528 114.357460
v 204.427826 51.479919 111.311577
v 204.514954 51.415482 114.225281
v 204.424255 52.154709 111.143959
v 204.777451 52.159962 110.873436
v 204.563934 51.889458 111.061539
v 204.518509 51.800297 113.936066
v 204.522018 52.192554 113.585205
v 204.561340 52.425396 111.042282
v 204.209930 52.742996 112.000343
v 204.457718 52.768154 111.465210
v 204.303619 52.676712 112.940956
v 204.625214 52.619221 113.286339
v 204.481201 53.209465 112.011139
v 204.636032 53.271122 111.558823
v 204.598389 53.257137 112.470184
v 204.567886 52.982620 112.954521
v 204.663696 53.504013 112.006599
v 205.045532 39.946434 115.056328
v 205.237106 39.921608 114.691574
v 205.206329 39.621433 115.031914
v 205.223083 39.627712 115.957634
v 205.095535 39.947029 115.929626
v 205.315765 39.949535 116.197113
v 204.807510 40.441666 115.021263
v 205.077835 40.397350 114.466255
v 204.956345 40.460133 115.941727
v 205.250595 40.449314 116.254601
v 204.852798 41.060360 114.043388
v 205.226227 41.144810 113.763481
v 205.125122 40.751766 114.028358
v 204.763367 40.988998 115.984566
v 205.171005 41.054642 116.301857
v 205.132172 41.628654 113.634941
v 205.125259 41.617516 116.388290
v 205.106277 42.197510 113.563606
v 205.112946 42.193546 116.418701
v 205.100311 42.776764 113.483337
v 205.111069 42.770535 116.393456
v 205.136215 43.317348 113.342621
v 205.105347 43.301094 116.293945
v 204.936157 44.134186 112.853668
v 205.048767 43.772839 113.099754
v 204.833740 43.905582 115.939362
v 205.101471 43.681438 116.115067
v 204.961624 44.554977 112.756645
v 205.102249 44.077969 115.873009
v 205.092804 44.538086 115.606529
v 205.028687 45.159332 112.697319
v 205.091141 45.113659 115.448494
v 205.071472 45.720604 112.629875
v 205.074493 45.694679 115.384399
v 205.068771 46.292038 112.605865
v 205.023361 46.249249 115.290482
v 205.060760 46.854767 112.626648
v 204.911057 46.770912 115.200287
v 204.678497 47.538345 112.100777
v 205.028915 47.431686 112.521751
v 204.762405 47.397156 114.931198
v 205.045166 47.128002 114.943504
v 205.111267 47.513008 114.534584
v 204.836044 48.042095 112.000557
v 205.129501 48.029991 112.475006
v 204.994156 48.041039 114.341232
v 204.888031 48.736320 111.801285
v 205.042603 48.370167 112.040848
v 204.952972 48.635029 114.266899
v 204.943756 49.241219 111.752556
v 204.944778 49.224163 114.252319
v 205.022461 49.851158 111.701996
v 204.953827 49.811535 114.260757
v 205.079697 50.415390 111.573128
v 204.965302 50.396439 114.264732
v 205.073074 50.944199 111.372993
v 204.956726 50.967781 114.244125
v 204.831558 51.599247 111.044220
v 205.198441 51.771313 110.819321
v 205.140137 51.379726 111.086189
v 204.927734 51.394562 114.159851
v 205.154846 52.172684 110.700912
v 205.048401 51.755432 113.911942
v 205.127243 52.193394 113.635117
v 204.760712 52.762680 110.986519
v 205.171814 52.707798 110.687775
v 205.121201 52.705818 113.409248
v 204.866806 53.326866 111.067947
v 205.228806 53.312965 110.695473
v 204.865952 53.249393 112.939697
v 205.202835 53.126759 113.201859
v 205.061493 53.809715 111.070702
v 205.295471 53.821693 110.747673
v 204.905518 53.811180 111.957596
v 205.189911 53.821320 112.414780
v 205.162369 53.469799 112.892914
v 205.229080 54.106625 111.048790
v 205.184708 54.122749 111.975151
v 205.679840 38.828758 115.071083
v 205.857758 38.882229 114.847717
v 205.811340 38.729633 115.075264
v 205.812042 38.731979 115.924164
v 205.679596 38.829681 115.929451
v 205.865402 38.886330 116.134872
v 205.417465 39.275410 115.033463
v 205.749512 39.308685 114.655800
v 205.423019 39.279758 115.959244
v 205.776978 39.320171 116.259224
v 205.637436 39.790337 114.360168
v 205.712265 39.861301 116.383263
v 205.415726 40.454922 114.027756
v 205.808502 40.569614 113.788712
v 205.704681 40.161480 114.029770
v 205.698288 40.436264 116.425049
v 205.698441 41.050327 113.663261
v 205.689972 41.022316 116.449371
v 205.676773 41.610653 113.596519
v 205.685989 41.605976 116.456047
v 205.677002 42.192284 113.565590
v 205.679443 42.187153 116.432472
v 205.676956 42.780590 113.545494
v 205.654251 42.755016 116.365158
v 205.683105 43.363426 113.499344
v 205.562775 43.235954 116.233589
v 205.279663 44.011856 113.102379
v 205.688431 43.913746 113.418549
v 205.364288 43.899776 115.941559
v 205.671539 43.639191 115.973259
v 205.735443 44.010185 115.642555
v 205.359955 44.544174 113.029198
v 205.739532 44.505562 113.491966
v 205.643250 44.512165 115.378822
v 205.442856 45.097904 112.981583
v 205.745529 45.092812 113.464653
v 205.540390 45.105686 115.266602
v 205.463593 45.796341 112.813438
v 205.624954 45.438824 113.041237
v 205.475540 45.611301 115.201057
v 205.460144 46.205833 112.814819
v 205.424286 46.305752 115.002922
v 205.628021 45.975491 114.959213
v 205.690796 46.304234 114.517838
v 205.594620 46.551449 113.047363
v 205.443390 46.924786 113.002556
v 205.616547 46.846809 113.515755
v 205.265869 46.821159 114.914711
v 205.544815 46.817677 114.426384
v 205.317001 47.467983 113.024117
v 205.582581 47.105843 113.990234
v 205.419891 47.478245 113.979973
v 205.285355 48.073193 113.013771
v 205.256516 48.040051 113.950691
v 205.138184 48.711330 112.089928
v 205.327972 48.643169 113.003700
v 205.204529 48.636135 113.934143
v 205.234100 49.247704 112.059227
v 205.398117 49.225098 113.001457
v 205.219299 49.225449 113.937172
v 205.397354 49.799923 112.033646
v 205.526321 49.763092 113.016090
v 205.257355 49.815083 113.941017
v 205.499588 50.500641 111.759346
v 205.583557 50.165462 112.036758
v 205.644302 50.130280 112.991241
v 205.582779 50.439308 113.447792
v 205.338043 50.374889 113.933334
v 205.643188 51.001873 111.535988
v 205.331757 50.974327 113.946274
v 205.700455 51.016800 113.483322
v 205.598358 51.774368 110.807114
v 205.641022 51.412430 111.108688
v 205.280090 51.507927 113.899101
v 205.681580 51.599991 113.580864
v 205.674988 52.184902 110.626099
v 205.682281 52.151237 113.494888
v 205.689117 52.735237 110.491600
v 205.673843 52.722603 113.391487
v 205.665421 53.297714 110.389648
v 205.684570 53.174915 113.233765
v 205.649521 53.911175 110.410088
v 205.688660 53.562454 112.940239
v 205.691422 53.954582 112.590103
v 205.473846 54.421101 111.023071
v 205.748535 54.431507 110.561256
v 205.477554 54.412106 111.959969
v 205.800308 54.373219 112.282669
v 205.744492 54.736061 111.017204
v 205.779465 54.694057 111.955261
v 206.173706 38.910610 114.801445
v 206.179886 38.719440 115.074898
v 206.179321 38.722927 115.923302
v 206.167419 38.907444 116.167183
v 206.255219 39.339375 114.500008
v 206.256973 39.298664 116.333313
v 206.008957 39.901386 114.067459
v 206.209976 40.101437 113.932510
v 206.258987 39.746922 114.153465
v 206.273788 39.850742 116.436073
v 206.147842 40.469307 113.802551
v 206.270813 40.433521 116.470642
v 206.134476 41.024021 113.754295
v 206.265350 41.015884 116.434448
v 206.142105 41.606102 113.727219
v 206.245743 41.592987 116.384552
v 206.138702 42.191257 113.733078
v 206.192535 42.147396 116.287529
v 206.123932 42.776108 113.741356
v 206.074875 42.673634 116.209618
v 206.108047 43.358120 113.745789
v 205.946884 43.335079 115.965782
v 206.206955 43.029320 115.947395
v 206.253082 43.385139 115.514450
v 206.068268 43.866882 113.757629
v 206.120102 43.871956 115.299332
v 206.161819 44.179543 114.034378
v 206.015228 44.564331 114.003822
v 205.983139 44.545849 114.972343
v 206.163681 44.178951 114.968872
v 205.890030 45.142235 114.013161
v 205.807281 45.096298 114.940117
v 205.689987 45.772728 113.098648
v 205.857895 45.705940 114.000206
v 205.718201 45.632946 114.908134
v 205.679230 46.222946 113.094666
v 205.796432 46.257359 113.986656
v 205.689651 46.772335 113.984932
v 205.736572 50.495960 112.060646
v 205.773956 50.476612 112.959930
v 205.992905 50.975731 112.013786
v 205.978577 50.978146 112.986282
v 205.948456 51.622341 111.039841
v 206.262009 51.572807 111.502769
v 206.240021 51.303272 112.007614
v 206.168015 51.338924 112.964180
v 206.069946 51.657791 113.245140
v 206.224258 52.228996 110.668846
v 206.296097 51.826385 111.017593
v 206.131744 52.164391 113.263611
v 206.241562 52.711769 110.383064
v 206.127945 52.727024 113.246223
v 206.086197 53.378952 110.089073
v 206.444504 53.499470 109.840858
v 206.326263 53.140842 110.091904
v 206.099792 53.152126 113.158966
v 206.021622 53.913677 110.045776
v 206.407837 53.924538 109.736053
v 206.220367 53.513424 112.911919
v 206.299149 53.951263 112.634850
v 206.044128 54.504166 110.080574
v 206.409882 54.487949 109.705193
v 206.293854 54.462093 112.406334
v 206.229889 54.984253 110.072227
v 206.467026 54.993843 109.747498
v 206.017197 55.037148 110.981705
v 206.081482 54.951538 111.943932
v 206.382339 54.870071 112.194389
v 206.397919 55.280544 110.050552
v 206.319275 55.338459 111.018539
v 206.373459 55.118820 111.922050
v 206.456833 38.826077 115.051537
v 206.455444 38.828308 115.946350
v 206.745071 39.377052 114.717438
v 206.765320 39.065018 115.041779
v 206.760208 39.070774 115.951401
v 206.718033 39.402493 116.224503
v 206.443726 39.917465 114.111443
v 206.832947 39.855976 114.458244
v 206.824585 39.874107 116.354431
v 206.525848 40.441082 114.044952
v 206.903931 40.432213 114.405777
v 206.826187 40.422947 116.369148
v 206.528290 41.020229 114.031563
v 206.902206 40.994423 114.497627
v 206.770844 40.971779 116.280479
v 206.510529 41.606972 114.044296
v 206.814743 41.598488 114.523155
v 206.657333 41.508320 116.211998
v 206.509918 42.213604 114.067665
v 206.736526 42.147526 114.556084
v 206.591431 42.205074 115.980911
v 206.789780 41.866512 115.957977
v 206.794388 42.165848 115.485237
v 206.417358 42.771515 114.064713
v 206.774536 42.429321 115.002617
v 206.643951 42.797787 114.996490
v 206.368515 42.705288 115.926537
v 206.347076 43.348026 114.067795
v 206.445435 43.328655 114.980568
v 206.264389 43.851986 114.068970
v 206.293945 43.853439 114.941757
v 206.506226 51.636200 112.027260
v 206.317688 51.661705 112.927383
v 206.760147 52.343002 110.745071
v 206.754303 52.096783 111.071693
v 206.747833 51.934521 111.966278
v 206.737976 52.209911 112.438461
v 206.484131 52.144920 112.916206
v 206.845200 52.712711 110.424904
v 206.501907 52.733261 112.944588
v 206.880173 52.771496 112.489929
v 206.859802 53.472263 109.750526
v 206.860596 53.086933 110.058167
v 206.452011 53.266087 112.899261
v 206.854630 53.357906 112.582130
v 206.871567 53.925426 109.546417
v 206.854324 53.909279 112.494949
v 206.842087 54.471241 109.396454
v 206.845673 54.480453 112.390732
v 206.821548 55.083187 109.410088
v 206.857315 54.923828 112.223366
v 206.643799 55.594738 110.023178
v 206.920532 55.603493 109.561234
v 206.619720 55.611706 110.982330
v 206.931244 55.596661 111.430809
v 206.847382 55.290047 111.898003
v 206.915833 55.908707 110.017456
v 206.933823 55.883678 110.976547
v 207.054230 39.355263 115.042198
v 207.049835 39.359417 115.951736
v 207.223038 39.941769 114.780540
v 207.293854 39.663467 115.051071
v 207.292679 39.663841 115.946579
v 207.215332 39.951134 116.175095
v 207.236938 40.355892 114.757500
v 207.217300 40.340267 116.182724
v 207.328766 40.662689 115.035652
v 207.169693 41.038837 115.010422
v 207.130157 41.009613 115.959953
v 207.315292 40.653133 115.955498
v 206.996780 41.583996 115.030304
v 206.922379 41.524075 115.921188
v 206.878952 42.090023 115.014160
v 207.043411 52.300407 111.057266
v 206.945557 52.240063 111.948753
v 207.328308 52.846428 110.584747
v 207.304916 52.561970 111.011345
v 207.384384 52.773445 111.484863
v 207.193939 52.709106 112.004501
v 207.350464 53.521980 109.760124
v 207.384995 53.179817 110.105652
v 207.374222 53.064339 111.963196
v 207.248520 53.412861 112.250076
v 207.409409 53.930359 109.436798
v 207.304321 53.922478 112.264030
v 207.258926 54.551487 109.090294
v 207.616699 54.671627 108.840965
v 207.508286 54.323357 109.111191
v 207.304169 54.485546 112.250526
v 207.193649 55.085686 109.045776
v 207.579849 55.096550 108.736015
v 207.271622 54.910351 112.158447
v 207.216095 55.676174 109.080566
v 207.581909 55.659943 108.705200
v 207.385925 55.254669 111.894394
v 207.470428 55.643692 111.564590
v 207.401947 56.156246 109.072250
v 207.639038 56.165848 108.747475
v 207.189178 56.209118 109.981743
v 207.248245 56.128880 110.948280
v 207.540680 56.043900 111.233208
v 207.569962 56.452576 109.050560
v 207.491272 56.510479 110.018562
v 207.544861 56.292831 110.924698
v 207.404282 39.941219 115.073990
v 207.402100 39.941383 115.923752
v 207.413071 40.345558 115.071793
v 207.409302 40.345203 115.924957
v 207.503677 52.860126 111.007370
v 207.650955 53.410000 110.063492
v 207.799591 53.318653 111.008827
v 207.515396 53.398251 111.916656
v 207.955338 53.984642 109.561005
v 207.965668 53.683735 110.025002
v 208.007172 53.643826 110.990814
v 207.978882 53.971855 111.451019
v 207.670364 53.903660 111.925835
v 208.031677 54.651928 108.759262
v 208.047714 54.291702 109.093369
v 207.697647 54.489761 111.953728
v 208.070114 54.505363 111.588867
v 208.043823 55.096485 108.544518
v 207.630890 55.030136 111.910263
v 208.046936 55.112499 111.603302
v 208.013489 55.643391 108.395988
v 208.016159 55.656109 111.452477
v 207.993530 56.255169 108.410065
v 208.028168 56.099365 111.237083
v 207.815796 56.766743 109.023170
v 208.092529 56.775513 108.561218
v 207.791718 56.783703 109.982300
v 208.103302 56.768658 110.430840
v 208.019363 56.462044 110.897980
v 208.087814 57.080673 109.017464
v 208.105896 57.055676 109.976555
v 208.273392 53.966293 110.015900
v 208.256210 53.972771 110.978241
v 208.526108 54.701202 108.756020
v 208.524338 54.450371 109.074654
v 208.570068 54.240952 109.986572
v 208.490753 54.298157 110.955193
v 208.423248 54.588985 111.253365
v 208.585190 55.092003 108.424683
v 208.479828 55.094791 111.296692
v 208.430527 55.723122 108.089622
v 208.788544 55.843533 107.840965
v 208.676025 55.492142 108.103081
v 208.480240 55.658131 111.265320
v 208.365631 56.257694 108.045769
v 208.756165 56.268848 107.750839
v 208.443604 56.082355 111.158432
v 208.390732 56.847839 108.083916
v 208.757065 56.831196 107.736313
v 208.558151 56.426758 110.894234
v 208.643448 56.819012 110.569603
v 208.576569 57.327171 108.074883
v 208.829025 57.321812 107.780067
v 208.361511 57.380768 108.981720
v 208.420212 57.300861 109.948296
v 208.712067 57.216446 110.233223
v 208.753311 57.611244 108.057518
v 208.671341 57.669823 109.016418
v 208.716919 57.464050 109.924591
v 208.842178 54.605503 109.037376
v 208.878937 54.539822 110.010788
v 208.659653 54.595158 110.925499
v 209.161804 55.085548 108.528534
v 209.195236 54.802959 109.016296
v 209.173492 54.829266 109.972137
v 209.152588 55.145336 110.449196
v 208.843658 55.072857 110.923653
v 209.203552 55.824322 107.768074
v 209.201157 55.459248 108.068855
v 208.870560 55.661377 110.954697
v 209.255920 55.675186 110.603081
v 209.215012 56.270447 107.593025
v 208.807022 56.203743 110.914406
v 209.241638 56.285297 110.634697
v 209.206757 56.836254 107.491875
v 209.196579 56.833935 110.483047
v 209.264938 57.401718 107.468399
v 209.201920 57.276642 110.247581
v 209.018219 57.874943 108.047462
v 209.302185 57.854561 107.723015
v 208.985016 57.908630 108.977501
v 209.255905 57.873085 109.430038
v 209.189713 57.621449 109.900711
v 209.303329 58.068363 108.056709
v 209.297745 58.081059 108.959435
v 209.714691 55.244999 108.587700
v 209.671906 55.049397 109.018242
v 209.473892 55.100319 109.982750
v 209.737381 55.152824 109.477028
v 209.703995 55.864819 107.775040
v 209.728378 55.535206 108.106064
v 209.756287 55.406567 109.973534
v 209.676941 55.773983 110.296852
v 209.780914 56.270088 107.515167
v 209.751495 56.276024 110.402527
v 209.693680 56.742870 107.290977
v 209.754898 56.815117 110.360451
v 209.669846 57.426128 107.132988
v 210.052856 57.432945 106.875137
v 209.831711 57.160141 107.053497
v 209.687210 57.235302 110.203865
v 209.838242 57.695366 107.056259
v 209.741409 58.046104 107.456261
v 209.740494 57.594910 109.905037
v 209.848267 57.974033 109.473907
v 209.765839 58.349609 108.000397
v 209.789154 58.303066 108.980141
v 209.970459 55.222588 109.013702
v 210.052536 55.722801 108.035645
v 210.356750 55.690910 108.507706
v 210.279312 55.473949 109.000702
v 210.048721 55.699932 109.967926
v 210.336975 55.706821 109.481003
v 210.309326 56.281254 107.516769
v 210.409821 55.914070 107.994553
v 210.310760 56.011753 109.946602
v 210.169678 56.349834 110.191956
v 210.104187 56.872925 107.041771
v 210.479950 57.035637 106.804298
v 210.425003 56.671066 107.096611
v 210.172729 56.748116 110.191399
v 210.429001 57.443230 106.690010
v 210.061462 57.401001 109.965332
v 210.347397 57.115242 109.964005
v 210.469177 57.532661 109.714005
v 210.034760 58.047810 107.023041
v 210.459976 57.969391 106.718155
v 210.381195 57.997402 109.480553
v 210.300018 58.501842 107.064415
v 210.578445 58.488171 106.795723
v 210.078247 58.589012 107.976471
v 210.146118 58.496567 108.956978
v 210.463638 58.389397 109.215813
v 210.507797 58.784042 107.058861
v 210.418869 58.851940 108.016907
v 210.469269 58.642387 108.925446
v 210.591156 55.750092 109.001122
v 210.911835 56.367809 107.557579
v 210.890503 56.143013 108.042984
v 210.879364 56.033413 108.966400
v 210.520279 56.304226 109.892967
v 210.865738 56.344944 109.418648
v 210.969650 56.987053 106.749733
v 210.988052 56.624050 107.081429
v 210.553284 56.798264 109.902946
v 210.950439 56.874798 109.568176
v 210.964920 57.440750 106.575150
v 210.960037 57.432949 109.518509
v 210.968826 58.010983 106.524124
v 210.946915 57.999283 109.406624
v 210.993240 58.578197 106.588852
v 210.958984 58.439545 109.223328
v 210.781998 59.033772 107.053764
v 211.082031 58.989952 106.776314
v 210.746918 59.071102 107.976570
v 211.014740 59.027824 108.424141
v 210.945587 58.788700 108.899094
v 211.062332 59.184570 107.069229
v 211.055344 59.197712 107.950439
v 211.217667 56.310501 108.012268
v 211.177841 56.331631 108.967552
v 211.534256 56.994812 106.742035
v 211.528412 56.722889 107.073067
v 211.554718 56.486149 107.986732
v 211.463364 56.635109 108.935310
v 211.352585 56.935970 109.241737
v 211.548309 57.430603 106.501587
v 211.415634 57.437641 109.278084
v 211.498703 57.978817 106.339088
v 211.405869 58.001633 109.250076
v 211.465988 58.601875 106.359886
v 211.372681 58.423069 109.156128
v 211.582001 59.106331 106.554733
v 211.475998 58.738033 108.878799
v 211.566788 59.050091 108.449760
v 211.589096 59.336330 107.030006
v 211.560516 59.282001 107.953789
v 212.042969 57.050911 106.758934
v 212.035507 56.832397 107.068474
v 212.029816 56.753727 107.968750
v 211.696945 56.900543 108.897881
v 212.042740 56.951412 108.417397
v 212.100311 57.430641 106.417252
v 211.806641 57.428963 108.962303
v 212.198044 57.430145 108.615143
v 211.944061 58.065269 106.087448
v 212.305435 58.186256 105.840134
v 212.191788 57.834084 106.100616
v 211.819656 58.011284 108.979012
v 212.240448 58.013489 108.687553
v 211.885818 58.597980 106.050903
v 212.284225 58.599159 105.773926
v 211.727768 58.542427 108.904350
v 212.162506 58.622372 108.617485
v 211.994141 59.091183 106.125099
v 212.315155 58.996109 105.849060
v 212.123276 59.065628 108.325600
v 212.227280 59.228378 106.102486
v 212.117401 59.544247 107.007858
v 212.137405 59.339661 107.942482
v 212.361786 56.951969 107.035088
v 212.366028 56.929428 107.980225
v 212.687424 57.393456 106.504066
v 212.737701 57.115555 107.010529
v 212.707153 57.148109 107.968056
v 212.670685 57.490879 108.334526
v 212.732101 58.157539 105.756195
v 212.723495 57.776867 106.047127
v 212.718399 58.015400 108.494888
v 212.736053 58.600044 105.652451
v 212.712906 58.597626 108.476456
v 212.734238 59.037586 105.763931
v 212.715454 59.058548 108.279045
v 212.714249 59.396713 106.078316
v 212.484558 59.672073 106.997574
v 212.766769 59.634762 106.562233
v 212.764755 59.636215 107.436729
v 212.698517 59.422211 107.930702
v 212.811569 59.740223 106.999084
v 213.299759 57.455795 106.515739
v 213.293289 57.261543 107.028442
v 213.230301 57.351574 107.923378
v 213.210953 57.625114 108.217789
v 213.304398 58.146774 105.735245
v 213.304474 57.772884 106.041405
v 213.292877 58.036171 108.392868
v 213.305237 58.600002 105.623306
v 213.303085 58.590385 108.424477
v 213.304489 59.053444 105.735069
v 213.303864 59.056553 108.273315
v 213.304306 59.417362 106.048630
v 213.309296 59.693092 106.532982
v 213.304398 59.419830 107.954033
v 213.308548 59.691849 107.467537
v 213.312164 59.780499 106.999763
v 213.889450 57.467541 106.517876
v 213.885818 57.324512 107.021744
v 213.586014 57.439747 107.975845
v 213.896561 57.357304 107.566429
v 213.890045 58.146011 105.733864
v 213.890564 57.772213 106.039970
v 213.888092 57.574001 108.075439
v 213.889984 58.034485 108.341179
v 213.890015 58.599987 105.619408
v 213.891205 58.595432 108.409004
v 213.889984 59.053883 105.734016
v 213.890015 59.054020 108.266548
v 213.889923 59.425930 106.041626
v 213.890533 59.706062 106.527275
v 213.889908 59.426136 107.958588
v 213.890594 59.705551 107.472511
v 213.890305 59.797329 106.999992
v 214.477554 57.454819 106.511993
v 214.483734 57.296402 107.031509
v 214.545898 57.403179 107.907616
v 214.192612 57.467159 107.983826
v 214.568665 57.636967 108.204475
v 214.478928 58.138599 105.723572
v 214.479507 57.748566 106.022659
v 214.485779 58.037445 108.389488
v 214.476242 58.599903 105.618668
v 214.477280 58.590858 108.419182
v 214.475983 59.053986 105.733772
v 214.476013 59.055641 108.272148
v 214.476105 59.426147 106.041405
v 214.475449 59.705544 106.527473
v 214.476105 59.425926 107.958366
v 214.475510 59.706074 107.472679
v 214.475677 59.797333 107.000000
v 215.036804 57.375111 106.465614
v 215.084442 57.218288 107.012840
v 215.076401 57.339008 107.934769
v 215.075348 57.595467 108.238274
v 215.096848 58.082802 105.695114
v 215.037125 57.669563 105.979950
v 215.063889 58.026493 108.419388
v 215.064972 58.596436 105.604225
v 215.062012 58.591095 108.433678
v 215.061630 59.053680 105.734764
v 215.062073 59.056084 108.272766
v 215.060471 59.416443 106.048515
v 215.057312 59.691994 106.532524
v 215.062897 59.420670 107.953651
v 215.056671 59.693089 107.467003
v 215.053772 59.780499 107.000214
v 215.376068 57.472954 106.033127
v 215.743088 57.631069 105.791588
v 215.718719 57.352726 106.082169
v 215.624634 57.050224 107.002495
v 215.657272 57.252598 107.946457
v 215.654541 57.566212 108.267929
v 215.660263 58.039703 105.617661
v 215.648315 58.023636 108.430885
v 215.647552 58.588341 105.593178
v 215.648010 58.591244 108.434219
v 215.636765 59.040798 105.749680
v 215.647263 59.052666 108.266922
v 215.651840 59.399136 106.077850
v 215.598694 59.629650 106.567062
v 215.670074 59.424953 107.932724
v 215.602173 59.641674 107.441811
v 215.554428 59.740208 107.000931
v 215.994980 56.927368 107.008415
v 216.282120 56.977928 106.565460
v 216.339844 56.839489 107.014786
v 216.262573 56.901249 107.485870
v 216.244492 57.574543 105.751808
v 216.230118 57.217777 106.079872
v 216.198853 57.090080 107.988396
v 216.270309 57.498314 108.305077
v 216.234222 58.025772 105.593727
v 216.236389 58.017899 108.449371
v 216.220871 58.573479 105.620407
v 216.234039 58.590092 108.430916
v 216.138260 58.983067 105.791733
v 216.231812 59.039074 108.259422
v 216.163254 59.261200 106.082191
v 215.881165 59.671665 107.002182
v 216.256638 59.558041 107.007912
v 216.224594 59.330189 107.938889
v 216.822510 56.921139 106.536842
v 216.842911 56.745178 107.037720
v 216.902527 56.788803 107.917274
v 216.560150 56.918400 107.958961
v 216.918716 57.040428 108.215416
v 216.808273 57.571579 105.752022
v 216.814636 57.214645 106.063217
v 216.832703 57.452278 108.391914
v 216.811523 58.018044 105.628059
v 216.821182 58.014736 108.477722
v 216.775085 58.523121 105.709839
v 216.818619 58.587082 108.425255
v 216.833206 58.926830 105.994911
v 216.503738 59.137421 106.036057
v 216.842178 59.225525 106.470993
v 216.806931 59.018154 108.238129
v 216.798996 59.391037 107.010994
v 216.801773 59.269341 107.930313
v 217.428787 56.921711 106.522820
v 217.420929 56.652637 107.027931
v 217.425018 56.585243 107.939888
v 217.454620 56.919781 108.315109
v 217.297485 57.624710 105.810005
v 217.355743 57.264610 106.095253
v 217.407196 57.427086 108.500092
v 217.345474 58.014259 105.716591
v 217.404327 58.013020 108.518303
v 217.298950 58.413082 105.796814
v 217.402466 58.572906 108.405144
v 217.354294 58.781250 106.079353
v 217.408600 59.084072 106.537407
v 217.310059 58.971893 108.199600
v 217.385681 59.270210 107.036415
v 217.326065 59.195087 107.907860
v 217.794525 56.403286 107.973526
v 218.024521 56.328308 107.514877
v 218.106812 56.267109 107.967232
v 218.090775 56.438335 108.263756
v 218.011200 56.867649 106.615158
v 217.951797 56.489101 107.004105
v 217.987747 56.844410 108.565178
v 217.672897 57.462719 106.046112
v 218.095840 57.328148 106.308044
v 217.891174 57.428699 108.678528
v 217.722427 58.014614 105.886261
v 217.948380 57.747120 106.059677
v 217.950790 58.051022 108.631966
v 217.939240 58.275875 106.062714
v 217.669144 58.562302 106.047638
v 218.044678 58.639874 106.368179
v 217.965622 58.558144 108.368698
v 217.907104 59.016281 106.714836
v 217.664307 59.101212 107.955742
v 218.034637 58.939293 107.994659
v 217.956879 59.113705 107.484016
v 217.877670 59.165714 107.029488
v 218.315475 56.328209 107.040611
v 218.672058 56.467121 106.796829
v 218.655838 56.224487 107.085632
v 218.605209 56.135113 107.965645
v 218.575851 56.350136 108.466980
v 218.576569 56.869820 106.577232
v 218.646790 56.678425 108.900291
v 218.403687 56.902287 108.897942
v 218.751633 57.009262 109.167747
v 218.590179 57.420471 106.435638
v 218.322037 57.428295 108.960838
v 218.730087 57.426437 109.218460
v 218.119980 58.016232 106.127129
v 218.577133 58.004368 106.399719
v 218.400574 57.953518 108.895248
v 218.744263 57.826107 109.141464
v 218.541016 58.543392 106.640526
v 218.645981 58.137428 108.867233
v 218.539352 58.482815 108.448715
v 218.557190 58.864014 107.047920
v 218.202942 59.056263 107.023964
v 218.562073 58.769550 107.963326
v 219.179092 56.405949 106.744553
v 219.188797 56.106075 107.055214
v 219.151230 55.933178 107.983299
v 219.127670 56.165001 108.552544
v 219.165024 56.854931 106.573387
v 219.145721 56.503716 109.014801
v 219.218170 56.921005 109.267662
v 219.161591 57.429596 106.507507
v 219.170822 57.408371 109.317596
v 219.145157 57.989769 106.590706
v 219.077896 57.805805 109.182945
v 219.064667 58.404976 106.775734
v 219.111420 58.139248 108.885887
v 219.100632 58.429970 108.407745
v 219.058807 58.634632 107.065895
v 219.073883 58.637177 107.949203
v 219.522156 55.754478 107.999336
v 219.772797 55.716690 107.511375
v 219.855347 55.593781 107.998192
v 219.792267 55.742062 108.476677
v 219.784592 56.326977 106.698189
v 219.719711 55.920086 107.015114
v 219.783707 56.002476 108.960709
v 219.461395 56.262157 108.993462
v 219.865204 56.383095 109.243095
v 219.752335 56.845970 106.550613
v 219.764099 56.855019 109.359695
v 219.745392 57.421715 106.565819
v 219.714157 57.353752 109.284546
v 219.701981 57.928730 106.715363
v 219.441498 57.982655 108.973091
v 219.777222 57.778759 109.025917
v 219.789154 58.108528 108.554901
v 219.740921 58.287407 107.040146
v 219.386017 58.484825 107.041885
v 219.407425 58.518269 107.984032
v 219.774841 58.347641 107.999039
v 220.071030 55.729610 107.035423
v 220.431641 55.865936 106.782738
v 220.407532 55.573551 107.072372
v 220.335999 55.323376 107.997292
v 220.411804 55.582561 108.921509
v 220.097824 55.756584 108.942383
v 220.443878 55.867474 109.207123
v 220.348373 56.281265 106.612732
v 220.358643 56.288528 109.364319
v 220.336014 56.841999 106.543991
v 220.337128 56.830788 109.393700
v 220.322952 57.401707 106.615547
v 220.322937 57.295639 109.267509
v 220.238388 57.813587 106.787819
v 220.324951 57.670181 108.958946
v 220.327499 57.979099 108.482506
v 220.254944 58.078732 107.077843
v 220.314270 58.159443 107.970032
v 220.676544 55.126640 108.003632
v 220.927185 55.091396 107.503975
v 220.999771 54.870724 108.003777
v 220.929825 55.093410 108.496307
v 220.968292 55.748402 106.713791
v 220.899994 55.334717 107.010483
v 220.898407 55.337612 108.988113
v 220.970474 55.748165 109.288193
v 220.925888 56.262268 106.563965
v 220.926453 56.262672 109.416924
v 220.917526 56.834984 106.567650
v 220.909698 56.816086 109.381889
v 220.877289 57.348385 106.712555
v 220.827438 57.233376 109.209969
v 220.936508 57.746223 107.024818
v 220.596863 57.945396 107.041039
v 220.882416 57.939072 107.517273
v 220.863174 57.571301 108.899849
v 220.852310 57.849319 108.413895
v 220.810349 58.014542 107.981987
v 221.309967 54.593410 107.996452
v 221.548523 54.540787 107.520950
v 221.607101 54.304905 108.003365
v 221.545349 54.534630 108.481850
v 221.227280 55.099834 107.018272
v 221.622620 55.210201 106.752594
v 221.543243 54.829033 107.036308
v 221.535172 54.820011 108.968369
v 221.232025 55.105904 108.980766
v 221.624512 55.209110 109.246063
v 221.523407 55.686958 106.600220
v 221.523758 55.687817 109.394180
v 221.506317 56.253273 106.561928
v 221.504761 56.249523 109.420753
v 221.485519 56.809486 106.631737
v 221.461655 56.762234 109.288780
v 221.396912 57.223782 106.797234
v 221.185410 57.377106 108.962631
v 221.529068 57.170185 108.986122
v 221.505112 57.423332 108.497627
v 221.404114 57.490135 107.065750
v 221.107010 57.872486 107.988327
v 221.440475 57.656696 107.969421
v 221.908035 54.020744 108.007301
v 222.185104 54.005955 107.583801
v 222.210663 53.730354 108.010345
v 222.116913 53.933655 108.491455
v 221.851685 54.563656 107.054527
v 222.197037 54.694698 106.798882
v 222.154770 54.347744 107.100311
v 222.110458 54.217438 108.981995
v 221.833710 54.529636 108.968567
v 222.219604 54.613194 109.246666
v 222.114838 55.116375 106.632362
v 222.117355 55.107315 109.383118
v 222.091843 55.670868 106.575356
v 222.096283 55.670952 109.441887
v 222.070633 56.232590 106.616974
v 222.080734 56.229645 109.384056
v 221.966232 56.711189 106.764481
v 221.994751 56.646976 109.215744
v 222.030991 57.050667 107.058327
v 221.707413 57.306046 107.053062
v 221.779388 57.409611 107.995728
v 222.109344 57.208302 108.008690
v 222.024033 56.937679 108.925194
v 222.488007 53.431866 108.056602
v 222.793610 53.448647 107.726158
v 222.776749 53.126808 108.042671
v 222.804764 53.129669 108.952843
v 222.615738 53.428562 108.938637
v 222.863434 53.413139 109.260933
v 222.687790 53.857025 107.402946
v 222.345001 53.887768 108.985565
v 222.748978 53.949406 109.325211
v 222.688217 54.638889 106.750069
v 222.686081 54.244087 107.041107
v 222.699768 54.505325 109.416824
v 222.669235 55.096584 106.628937
v 222.683380 55.085522 109.458549
v 222.648285 55.648830 106.631859
v 222.675659 55.663383 109.438553
v 222.553986 56.131824 106.760155
v 222.633698 56.176704 109.289452
v 222.642044 56.511173 107.036591
v 222.346802 56.802948 107.042778
v 222.635300 56.776356 107.521706
v 222.353012 56.770142 108.959015
v 222.696045 56.571568 108.975777
v 222.646698 56.784569 108.484627
v 222.571915 56.918423 108.001373
v 223.064468 52.831364 108.045166
v 223.398849 52.874218 107.766960
v 223.349258 52.529408 108.043259
v 223.287933 52.469864 108.988060
v 223.042313 52.804787 108.979469
v 223.311523 52.797241 109.446960
v 223.278870 53.346539 107.563919
v 223.226074 53.328960 109.589615
v 223.268509 53.811031 107.323349
v 223.230377 53.950840 109.622452
v 223.233414 54.635887 106.801079
v 223.262939 54.232269 107.032005
v 223.258575 54.505211 109.555130
v 223.179642 55.047241 106.736107
v 223.268250 55.077694 109.479050
v 223.076324 55.566078 106.791908
v 223.243546 55.636734 109.367249
v 223.205536 55.915173 107.051064
v 222.932266 56.216995 107.039383
v 223.233582 56.224251 107.517738
v 223.153351 56.054085 109.203178
v 222.881989 56.728313 108.001907
v 223.189499 56.478092 108.026421
v 223.166763 56.320045 108.932213
v 223.760086 51.665749 109.029869
v 223.913086 51.617668 108.524979
v 223.944473 51.347397 109.016335
v 223.977814 51.349190 109.956329
v 223.845184 51.665485 109.929367
v 224.065033 51.658371 110.212914
v 223.633347 52.213200 108.060715
v 223.981873 52.285645 107.766602
v 223.904800 51.910660 108.047295
v 223.479065 52.135601 109.019409
v 223.731201 52.173107 109.927521
v 224.011398 52.166061 110.245583
v 223.875122 52.763748 107.614700
v 223.603134 52.722809 109.929619
v 223.987854 52.740204 110.262512
v 223.853012 53.328751 107.500237
v 223.599823 53.323853 109.955933
v 223.993011 53.309898 110.241028
v 223.894348 53.874386 107.346428
v 223.667526 53.857571 109.907440
v 224.016693 53.727520 110.145416
v 223.594635 54.571053 106.933174
v 223.784256 54.317982 107.109009
v 223.904480 54.089809 109.899963
v 223.814087 54.536041 109.634232
v 223.802231 54.775074 107.052330
v 223.605316 55.105057 106.988846
v 223.939590 55.125431 107.350380
v 223.835190 55.058067 109.419518
v 223.438095 55.613224 107.082443
v 223.787140 55.599281 107.560768
v 223.721008 55.534969 109.234344
v 223.494873 56.192535 108.016739
v 223.788620 55.900898 108.018936
v 223.458527 56.126427 108.949791
v 223.756470 55.863895 108.952698
v 224.417999 50.517441 109.975060
v 224.494781 50.436077 109.513741
v 224.583084 50.212082 109.973076
v 224.604416 50.477375 110.289543
v 224.203629 51.026211 109.037712
v 224.511673 51.043865 108.569107
v 224.454056 50.698238 109.003510
v 224.173737 51.000450 109.976006
v 224.524277 51.035049 110.450897
v 224.201569 51.639458 108.058609
v 224.541122 51.765953 107.801064
v 224.498367 51.417019 108.101265
v 224.451370 51.570545 110.470016
v 224.459457 52.186420 107.633118
v 224.450989 52.149227 110.460152
v 224.438217 52.744217 107.561356
v 224.449020 52.735619 110.416870
v 224.431931 53.326130 107.539490
v 224.438736 53.295910 110.347878
v 224.421143 53.908230 107.551590
v 224.351898 53.708763 110.190117
v 223.938934 54.511703 107.157654
v 224.349930 54.443043 107.545876
v 224.401031 54.088242 109.901833
v 224.426407 54.488754 109.550529
v 224.281326 55.002857 107.707626
v 224.314606 54.959438 109.263115
v 224.318298 55.285744 108.039719
v 224.062469 55.592186 108.024666
v 224.054047 55.579277 108.955620
v 224.342361 55.282700 108.955223
v 224.961411 49.910587 109.067467
v 225.222366 49.922901 108.791153
v 225.153564 49.618835 109.053322
v 225.050293 49.542870 109.987434
v 224.805191 49.888187 109.967079
v 225.054611 49.856045 110.457329
v 224.691803 50.372257 109.012329
v 225.077835 50.437946 108.658249
v 224.933060 50.342941 110.659546
v 225.027405 50.918053 108.388519
v 225.065140 50.703732 110.957428
v 224.921371 50.981400 110.861359
v 225.292603 50.971317 111.115021
v 225.021530 51.718075 107.764374
v 225.026001 51.326794 108.055496
v 225.074905 51.246422 110.935097
v 224.917297 51.668278 110.711456
v 225.009018 52.170437 107.633156
v 225.016464 52.164303 110.557152
v 224.997787 52.728333 107.616882
v 225.021103 52.727432 110.434174
v 224.942886 53.280666 107.711983
v 224.972672 53.244320 110.277596
v 224.830612 53.822906 107.772469
v 224.710724 53.876228 109.969772
v 225.057266 53.666267 109.984032
v 225.050400 53.955631 109.539482
v 224.954575 54.173096 108.038841
v 224.764191 54.519493 108.008415
v 224.954163 54.459072 108.516434
v 224.862640 54.402046 109.282143
v 224.512787 54.990246 108.058205
v 224.873520 54.676159 108.971924
v 224.625839 54.974846 108.945770
v 225.524445 48.740833 110.033844
v 225.702759 48.718338 109.573982
v 225.701385 48.403622 110.017044
v 225.725220 48.412487 110.962662
v 225.600998 48.735146 110.932564
v 225.814194 48.721931 111.241425
v 225.417175 49.315903 109.079178
v 225.720078 49.419941 108.796722
v 225.680649 49.062889 109.092201
v 225.242813 49.208752 110.019035
v 225.486053 49.243553 110.928299
v 225.765564 49.229351 111.261116
v 225.639572 49.841743 108.642586
v 225.335846 49.796398 110.947289
v 225.737411 49.813065 111.274391
v 225.609756 50.402935 108.520782
v 225.256378 50.368629 111.029236
v 225.683868 50.425205 111.292412
v 225.646698 50.936222 108.344398
v 225.652939 50.938122 111.262825
v 225.435776 51.742565 107.843956
v 225.558914 51.379795 108.087212
v 225.343414 51.524529 110.939339
v 225.620453 51.301624 111.116257
v 225.456406 52.156483 107.766769
v 225.612717 51.690990 110.870796
v 225.588257 52.132782 110.564201
v 225.414230 52.645660 107.791763
v 225.540298 52.688320 110.307419
v 225.559143 53.003529 108.037201
v 225.352966 53.348484 108.014984
v 225.597504 53.316109 108.505440
v 225.427948 53.146618 110.175713
v 225.116653 53.840157 108.074005
v 225.563278 53.590054 109.025124
v 225.327515 53.907040 108.985443
v 225.484375 53.374817 109.927292
v 225.046280 54.377472 108.971313
v 226.160446 47.574509 110.066162
v 226.391418 47.575130 109.781570
v 226.327103 47.271851 110.051041
v 226.265915 47.214664 110.983665
v 226.110962 47.550446 110.960724
v 226.304245 47.508282 111.443985
v 225.916458 48.058449 110.030205
v 226.239349 48.083908 109.624878
v 225.902817 48.051205 110.985764
v 226.183624 48.079189 111.478958
v 226.138168 48.527668 109.328918
v 226.199127 48.669582 111.578773
v 226.232498 49.309841 108.737076
v 226.178085 48.885548 108.990204
v 226.198685 49.224838 111.500801
v 226.186661 49.821846 108.613358
v 226.205688 49.806545 111.447250
v 226.186081 50.399891 108.552223
v 226.198151 50.390522 111.398071
v 226.193283 50.981178 108.499298
v 226.155136 50.898342 111.276398
v 225.787491 51.628044 108.103500
v 226.195236 51.531673 108.422829
v 225.888443 51.531288 110.960831
v 226.219131 51.324764 111.014336
v 226.239548 51.663559 110.654762
v 225.821365 52.153198 108.068283
v 226.196411 52.114338 108.527473
v 226.112457 52.077679 110.326675
v 225.748550 52.681103 108.103714
v 226.040100 52.668766 108.584358
v 225.934235 52.753826 109.982567
v 226.179504 52.432598 109.981850
v 226.138138 52.706268 109.485870
v 225.827866 53.247684 109.028931
v 226.060135 52.926769 109.011154
v 225.653793 53.195843 109.928177
v 226.690460 46.391853 111.029892
v 226.843109 46.343636 110.524948
v 226.874451 46.073402 111.016335
v 226.903748 46.072952 111.959908
v 226.771637 46.390804 111.932449
v 226.986526 46.377819 112.241173
v 226.572968 46.944363 110.064743
v 226.910995 47.008705 109.760468
v 226.834625 46.636616 110.047188
v 226.424286 46.868595 111.017288
v 226.663177 46.899067 111.926666
v 226.937683 46.885300 112.260933
v 226.811600 47.493530 109.605438
v 226.550156 47.448936 111.926888
v 226.919342 47.465797 112.261597
v 226.795395 48.062847 109.410110
v 226.550140 48.050468 111.943390
v 226.924606 48.037849 112.248024
v 226.504044 48.676247 109.049637
v 226.714432 48.888168 108.919525
v 226.771408 48.518871 109.135834
v 226.604599 48.581661 111.901398
v 226.955414 48.463650 112.158081
v 226.648605 49.254097 108.788040
v 226.834076 48.827332 111.912804
v 226.743942 49.270477 111.655205
v 226.652176 49.812042 108.733360
v 226.782166 49.803127 111.479263
v 226.647324 50.394894 108.734749
v 226.752258 50.364483 111.357109
v 226.627884 50.975544 108.737419
v 226.673111 50.791908 111.208824
v 226.577652 51.482952 108.759323
v 226.724060 51.152454 110.911072
v 226.683395 51.483295 110.429703
v 226.659607 51.789120 109.037216
v 226.474243 52.147160 109.014832
v 226.417252 52.099583 109.953629
v 226.673615 51.776039 109.973038
v 226.235580 52.626801 109.017647
v 227.335587 45.238270 111.985657
v 227.420517 45.159126 111.513283
v 227.510132 44.944439 111.983971
v 227.536118 45.200325 112.409470
v 227.133759 45.752262 111.037750
v 227.441681 45.769760 110.569061
v 227.383789 45.424057 111.003387
v 227.088593 45.717636 111.986336
v 227.368484 45.742851 112.466942
v 227.131546 46.365471 110.058624
v 227.471176 46.491959 109.801056
v 227.428360 46.143005 110.101265
v 227.371124 46.326118 112.578362
v 227.389191 46.912956 109.633545
v 227.370682 46.880814 112.500793
v 227.366959 47.471661 109.529060
v 227.376923 47.462852 112.453209
v 227.372543 48.046963 109.458145
v 227.380722 48.034477 112.378754
v 226.962921 48.702057 109.103577
v 227.406036 48.595169 109.369331
v 227.370346 48.488686 112.237152
v 227.047134 49.228664 109.031830
v 227.447800 49.220688 109.365913
v 227.369736 48.880871 111.945061
v 227.361191 49.288467 111.610947
v 227.055206 49.814705 109.027214
v 227.418472 49.804359 109.402710
v 227.312347 49.771538 111.340744
v 227.030182 50.417839 109.065369
v 227.320175 50.338173 109.545517
v 227.168198 50.284702 111.209106
v 226.904266 50.964138 109.071953
v 227.341919 50.664127 110.008659
v 227.151810 50.998005 109.983788
v 226.976868 50.894848 110.927834
v 227.241150 50.590267 110.944336
v 226.791901 51.471779 109.068436
v 226.865570 51.461849 109.969147
v 227.927414 44.688808 111.079987
v 228.126114 44.746319 110.856575
v 228.072281 44.592934 111.068672
v 227.974731 44.603645 111.915993
v 227.767548 44.699562 111.955078
v 227.982086 44.799152 112.364853
v 227.627258 45.103878 111.014687
v 228.012878 45.175816 110.673996
v 228.047470 45.018456 112.856194
v 227.844482 45.214954 112.867928
v 228.126343 45.316338 113.126923
v 227.956299 45.645554 110.389275
v 227.744171 45.713722 112.926277
v 228.113068 45.709190 113.210304
v 227.951599 46.444080 109.764366
v 227.955841 46.052963 110.055496
v 227.778839 46.237358 112.898781
v 228.128876 46.119537 113.154503
v 227.941742 46.897205 109.621475
v 228.005493 46.483006 112.913361
v 227.914154 46.931072 112.667747
v 227.941071 47.465942 109.576599
v 227.953476 47.462685 112.500320
v 227.926331 48.048012 109.594513
v 227.933411 48.019829 112.371964
v 227.895767 48.607231 109.654961
v 227.850967 48.440598 112.199638
v 227.825775 49.212177 109.687599
v 227.895660 48.787472 111.900055
v 227.874802 49.160183 111.429176
v 227.751968 49.717255 109.751671
v 227.700531 49.827789 110.989929
v 227.946304 49.507862 110.989006
v 227.885178 49.770657 110.485451
v 227.787796 49.979496 110.030090
v 227.580368 50.316265 110.037415
v 227.429367 50.292091 110.934395
v 228.443344 44.764072 110.816437
v 228.435425 44.582375 111.040520
v 228.229248 44.612091 111.975632
v 228.512650 44.606747 111.489075
v 228.535400 45.158913 110.602554
v 228.573242 44.727776 112.018410
v 228.471878 45.069038 112.903564
v 228.448227 45.343590 113.175369
v 228.572388 45.682583 110.372559
v 228.538528 45.723591 113.293396
v 228.364044 46.469879 109.844444
v 228.485138 46.110046 110.094421
v 228.540482 46.141403 113.220589
v 228.395828 46.893475 109.753662
v 228.541351 46.547119 112.956360
v 228.540527 46.964390 112.648376
v 228.394485 47.454765 109.750038
v 228.518921 47.444447 112.422943
v 228.335236 47.955608 109.792984
v 228.412933 47.924561 112.241760
v 228.466888 48.312508 110.040154
v 228.288101 48.673813 110.016457
v 228.485809 48.607876 110.513893
v 228.192490 48.567986 111.943535
v 228.498398 48.300381 111.953537
v 228.470703 48.589470 111.476357
v 228.087097 49.195560 110.052963
v 228.425842 48.839592 110.997627
v 228.179703 49.165524 110.943016
v 227.934464 49.686672 110.039543
v 228.731628 44.693459 111.034683
v 229.065765 45.217304 110.731491
v 229.089355 44.886814 111.049240
v 229.069778 44.973186 111.968697
v 228.799667 45.194515 112.957405
v 229.108368 45.154438 112.489464
v 229.104935 45.714951 110.567291
v 229.134705 45.394848 112.971092
v 229.052979 45.775612 113.210472
v 228.696960 46.359940 110.111191
v 229.098724 46.228062 110.516190
v 229.012543 46.100323 113.170944
v 228.753143 46.888142 110.063644
v 229.079376 46.870281 110.527458
v 229.072647 46.458546 112.902145
v 229.086990 46.866222 112.470108
v 228.753723 47.471851 110.077759
v 229.002945 47.421371 110.560020
v 228.940475 47.353256 112.236076
v 228.607285 47.978527 110.086540
v 229.048660 47.714378 111.013275
v 228.887726 48.056042 110.992638
v 228.748993 47.989048 111.941994
v 228.996201 47.662292 111.948250
v 228.617126 48.530228 110.998390
v 229.503387 45.299259 110.856323
v 229.551971 45.133377 111.042389
v 229.388596 45.166931 111.983368
v 229.604340 45.224064 111.472275
v 229.485168 45.630199 110.806953
v 229.618958 45.457642 112.000702
v 229.574997 45.653893 112.924469
v 229.445419 45.776722 113.066116
v 229.623749 45.968330 111.043709
v 229.480118 46.338406 110.989861
v 229.648773 46.264618 111.514160
v 229.353775 46.220325 112.929710
v 229.589752 45.944984 112.925034
v 229.616196 46.241791 112.469810
v 229.312042 46.869125 111.031219
v 229.607681 46.516289 111.997467
v 229.409821 46.863613 111.971176
v 229.178497 47.382942 111.045692
v 229.160034 47.356171 111.935028
v 229.644974 45.254036 111.040398
v 229.682648 45.641098 111.090736
v 229.722534 45.772823 111.975891
v 229.632889 45.740181 112.902588
v 229.713440 46.185520 111.998352
# 1470 vertices, 0 vertices normals

f 3 2 1
f 1 4 3
f 1 2 5
f 5 2 6
f 4 1 7
f 7 1 5
f 10 9 8
f 10 8 6
f 8 5 6
f 8 11 5
f 7 5 12
f 12 5 11
f 8 9 13
f 13 9 14
f 8 15 11
f 8 13 15
f 12 11 16
f 16 11 15
f 13 14 17
f 17 14 18
f 13 19 15
f 13 17 19
f 16 15 20
f 20 15 19
f 17 18 21
f 21 18 22
f 17 23 19
f 17 21 23
f 20 19 24
f 24 19 23
f 27 26 25
f 27 25 22
f 25 21 22
f 25 28 21
f 21 29 23
f 21 28 29
f 24 23 30
f 30 23 29
f 25 26 31
f 31 26 32
f 25 33 28
f 25 31 33
f 28 34 29
f 28 33 34
f 30 29 35
f 35 29 34
f 31 32 36
f 36 32 37
f 31 38 33
f 31 36 38
f 33 39 34
f 33 38 39
f 35 34 40
f 40 34 39
f 36 37 41
f 41 37 42
f 36 43 38
f 36 41 43
f 38 44 39
f 38 43 44
f 40 39 45
f 45 39 44
f 41 42 46
f 46 42 47
f 41 48 43
f 41 46 48
f 50 44 49
f 44 48 49
f 44 43 48
f 44 50 45
f 47 51 46
f 46 51 48
f 48 51 52
f 48 52 49
f 55 54 53
f 57 56 53
f 53 56 55
f 57 58 56
f 53 54 59
f 59 54 60
f 53 61 57
f 53 59 61
f 58 57 62
f 62 57 61
f 59 60 63
f 63 60 64
f 59 65 61
f 59 63 65
f 62 61 66
f 66 61 65
f 69 68 67
f 69 67 64
f 67 63 64
f 67 70 63
f 63 71 65
f 63 70 71
f 66 65 72
f 72 65 71
f 67 68 73
f 73 68 74
f 73 2 3
f 70 73 3
f 67 73 70
f 70 3 4
f 75 70 4
f 71 70 75
f 72 71 76
f 76 71 75
f 73 74 77
f 77 74 78
f 77 6 2
f 77 2 73
f 7 79 75
f 7 75 4
f 76 75 80
f 80 75 79
f 77 78 10
f 78 9 10
f 78 81 9
f 77 10 6
f 12 82 79
f 12 79 7
f 80 79 83
f 83 79 82
f 81 14 9
f 84 14 81
f 16 85 82
f 16 82 12
f 83 82 86
f 86 82 85
f 89 88 87
f 84 89 87
f 18 84 87
f 14 84 18
f 91 90 85
f 16 91 85
f 20 91 16
f 85 90 86
f 87 88 92
f 92 88 93
f 92 22 18
f 92 18 87
f 24 91 20
f 24 94 91
f 92 93 27
f 93 26 27
f 93 95 26
f 92 27 22
f 30 94 24
f 30 96 94
f 95 32 26
f 97 32 95
f 35 96 30
f 35 98 96
f 97 37 32
f 99 37 97
f 40 98 35
f 40 100 98
f 99 42 37
f 101 42 99
f 45 100 40
f 45 102 100
f 101 47 42
f 103 47 101
f 49 104 50
f 104 105 50
f 105 45 50
f 105 102 45
f 51 47 106
f 47 107 106
f 47 103 107
f 108 52 51
f 108 51 106
f 104 49 52
f 108 104 52
f 109 104 108
f 105 104 110
f 110 104 109
f 106 107 111
f 111 107 112
f 106 113 108
f 106 111 113
f 115 109 114
f 109 113 114
f 109 108 113
f 109 115 110
f 112 116 111
f 111 116 113
f 113 116 117
f 113 117 114
f 120 119 118
f 118 121 120
f 124 123 122
f 124 122 119
f 122 118 119
f 122 125 118
f 121 118 126
f 118 127 126
f 118 125 127
f 127 128 126
f 122 123 129
f 129 123 130
f 122 131 125
f 122 129 131
f 125 132 127
f 125 131 132
f 128 127 133
f 133 127 132
f 129 130 55
f 130 54 55
f 130 134 54
f 129 55 56
f 129 56 131
f 131 56 58
f 135 131 58
f 132 131 135
f 133 132 136
f 136 132 135
f 134 60 54
f 137 60 134
f 62 138 135
f 62 135 58
f 136 135 139
f 139 135 138
f 142 141 140
f 137 142 140
f 64 137 140
f 60 137 64
f 144 143 138
f 62 144 138
f 66 144 62
f 138 143 139
f 140 141 69
f 141 68 69
f 141 145 68
f 140 69 64
f 72 144 66
f 72 146 144
f 145 74 68
f 147 74 145
f 76 146 72
f 76 148 146
f 147 78 74
f 149 78 147
f 80 148 76
f 80 150 148
f 149 81 78
f 151 81 149
f 83 150 80
f 83 152 150
f 151 84 81
f 153 84 151
f 86 152 83
f 86 154 152
f 156 155 89
f 89 155 88
f 89 84 153
f 89 153 156
f 91 157 90
f 157 158 90
f 158 86 90
f 158 154 86
f 155 93 88
f 159 93 155
f 161 160 157
f 91 161 157
f 94 161 91
f 157 160 158
f 159 95 93
f 162 95 159
f 96 161 94
f 96 163 161
f 162 97 95
f 164 97 162
f 98 163 96
f 98 165 163
f 164 99 97
f 166 99 164
f 100 165 98
f 100 167 165
f 166 101 99
f 168 101 166
f 102 167 100
f 102 169 167
f 168 103 101
f 170 103 168
f 105 169 102
f 105 171 169
f 170 107 103
f 172 107 170
f 110 171 105
f 110 173 171
f 176 175 174
f 172 176 174
f 112 172 174
f 107 172 112
f 178 177 115
f 178 115 114
f 110 115 173
f 173 115 177
f 175 179 174
f 179 181 180
f 179 180 116
f 174 179 116
f 112 174 116
f 182 117 116
f 182 116 180
f 182 183 117
f 183 114 117
f 183 178 114
f 180 181 184
f 184 181 185
f 187 182 186
f 182 184 186
f 182 180 184
f 182 187 183
f 185 188 184
f 184 188 186
f 191 190 189
f 193 192 189
f 189 192 191
f 193 194 192
f 189 190 195
f 195 190 196
f 189 197 193
f 189 195 197
f 194 193 198
f 198 193 197
f 201 200 199
f 201 199 196
f 196 199 195
f 199 119 195
f 119 120 195
f 195 120 121
f 202 195 121
f 197 195 202
f 198 197 203
f 203 197 202
f 199 200 124
f 200 123 124
f 200 204 123
f 199 124 119
f 126 202 121
f 126 128 202
f 128 203 202
f 128 205 203
f 204 130 123
f 206 130 204
f 133 205 128
f 133 207 205
f 206 134 130
f 208 134 206
f 136 207 133
f 136 209 207
f 208 137 134
f 210 137 208
f 139 209 136
f 139 211 209
f 213 212 142
f 142 212 141
f 142 137 210
f 142 210 213
f 144 214 143
f 214 215 143
f 215 139 143
f 215 211 139
f 212 145 141
f 216 145 212
f 218 217 214
f 144 218 214
f 146 218 144
f 214 217 215
f 216 147 145
f 219 147 216
f 148 218 146
f 148 220 218
f 219 149 147
f 221 149 219
f 150 220 148
f 150 222 220
f 221 151 149
f 223 151 221
f 152 222 150
f 152 224 222
f 223 153 151
f 225 153 223
f 154 224 152
f 154 226 224
f 227 155 156
f 228 227 156
f 153 228 156
f 225 228 153
f 231 230 229
f 230 226 229
f 226 158 229
f 226 154 158
f 232 159 227
f 227 159 155
f 227 228 233
f 227 233 232
f 231 229 160
f 161 231 160
f 234 231 161
f 160 229 158
f 236 235 232
f 235 159 232
f 235 162 159
f 236 232 233
f 163 234 161
f 163 237 234
f 235 164 162
f 238 164 235
f 165 237 163
f 165 239 237
f 238 166 164
f 240 166 238
f 167 239 165
f 167 241 239
f 240 168 166
f 242 168 240
f 169 241 167
f 169 243 241
f 242 170 168
f 244 170 242
f 171 243 169
f 171 245 243
f 248 247 246
f 244 248 246
f 172 244 246
f 170 244 172
f 173 245 171
f 173 249 245
f 246 247 176
f 247 175 176
f 247 250 175
f 246 176 172
f 252 251 177
f 252 177 178
f 173 177 249
f 249 177 251
f 179 175 253
f 175 254 253
f 175 250 254
f 253 181 179
f 183 252 178
f 183 255 252
f 253 254 256
f 256 254 257
f 256 185 181
f 256 181 253
f 186 258 187
f 258 259 187
f 259 183 187
f 259 255 183
f 256 257 260
f 260 257 261
f 262 188 185
f 256 262 185
f 260 262 256
f 262 263 188
f 188 263 186
f 263 264 186
f 264 258 186
f 258 264 259
f 261 265 260
f 260 265 262
f 262 265 266
f 262 266 263
f 269 268 267
f 271 270 267
f 267 270 269
f 271 272 270
f 267 268 273
f 273 268 274
f 267 275 271
f 267 273 275
f 272 271 276
f 276 271 275
f 273 274 191
f 274 190 191
f 274 277 190
f 273 191 192
f 273 192 275
f 192 194 275
f 194 276 275
f 194 278 276
f 281 280 279
f 277 281 279
f 196 277 279
f 190 277 196
f 198 278 194
f 198 282 278
f 279 280 201
f 280 200 201
f 280 283 200
f 279 201 196
f 203 282 198
f 203 284 282
f 283 204 200
f 285 204 283
f 205 284 203
f 205 286 284
f 285 206 204
f 287 206 285
f 207 286 205
f 207 288 286
f 287 208 206
f 289 208 287
f 209 288 207
f 209 290 288
f 289 210 208
f 291 210 289
f 211 290 209
f 211 292 290
f 293 212 213
f 294 293 213
f 210 294 213
f 291 294 210
f 297 296 295
f 296 292 295
f 292 215 295
f 292 211 215
f 298 216 293
f 293 216 212
f 293 294 299
f 293 299 298
f 297 295 217
f 218 297 217
f 300 297 218
f 217 295 215
f 301 219 298
f 298 219 216
f 298 299 302
f 298 302 301
f 220 300 218
f 220 303 300
f 305 304 301
f 304 219 301
f 304 221 219
f 305 301 302
f 222 303 220
f 222 306 303
f 304 223 221
f 307 223 304
f 310 309 308
f 309 306 308
f 306 224 308
f 306 222 224
f 312 225 311
f 225 307 311
f 225 223 307
f 313 312 311
f 310 308 314
f 310 314 315
f 226 314 224
f 224 314 308
f 316 228 312
f 312 228 225
f 312 313 317
f 318 312 317
f 316 312 318
f 318 317 315
f 318 315 314
f 231 318 314
f 230 231 314
f 230 314 226
f 319 233 316
f 316 233 228
f 320 316 318
f 319 316 320
f 234 320 231
f 231 320 318
f 321 235 236
f 233 319 236
f 319 321 236
f 319 322 321
f 323 319 320
f 322 319 323
f 237 323 234
f 234 323 320
f 324 238 321
f 321 238 235
f 325 321 322
f 324 321 325
f 326 322 323
f 325 322 326
f 239 326 237
f 237 326 323
f 327 240 324
f 324 240 238
f 328 324 325
f 327 324 328
f 329 325 326
f 328 325 329
f 241 329 239
f 239 329 326
f 331 330 327
f 330 240 327
f 330 242 240
f 331 327 328
f 331 328 332
f 334 333 332
f 328 334 332
f 329 334 328
f 243 334 241
f 241 334 329
f 330 244 242
f 335 244 330
f 333 334 336
f 333 336 337
f 245 336 243
f 243 336 334
f 339 338 248
f 248 338 247
f 248 244 335
f 248 335 339
f 337 336 340
f 337 340 341
f 249 340 245
f 245 340 336
f 338 250 247
f 342 250 338
f 341 340 251
f 252 341 251
f 343 341 252
f 251 340 249
f 342 254 250
f 344 254 342
f 255 343 252
f 255 345 343
f 344 257 254
f 346 257 344
f 259 345 255
f 259 347 345
f 346 261 257
f 348 261 346
f 350 349 264
f 350 264 263
f 259 264 347
f 347 264 349
f 265 261 351
f 261 352 351
f 261 348 352
f 353 266 265
f 353 265 351
f 353 354 266
f 354 263 266
f 354 350 263
f 352 355 351
f 351 355 353
f 353 355 356
f 353 356 354
f 358 357 269
f 269 357 268
f 359 269 270
f 359 358 269
f 270 272 359
f 359 272 360
f 357 274 268
f 361 274 357
f 276 360 272
f 276 362 360
f 365 364 363
f 361 365 363
f 277 361 363
f 274 361 277
f 278 362 276
f 278 366 362
f 363 364 281
f 364 280 281
f 364 367 280
f 363 281 277
f 282 366 278
f 282 368 366
f 367 283 280
f 369 283 367
f 284 368 282
f 284 370 368
f 369 285 283
f 371 285 369
f 286 370 284
f 286 372 370
f 371 287 285
f 373 287 371
f 288 372 286
f 288 374 372
f 373 289 287
f 375 289 373
f 290 374 288
f 290 376 374
f 375 291 289
f 377 291 375
f 380 379 378
f 379 376 378
f 376 292 378
f 376 290 292
f 377 294 291
f 381 294 377
f 380 378 296
f 297 380 296
f 382 380 297
f 296 378 292
f 384 299 383
f 299 381 383
f 299 294 381
f 386 385 384
f 386 384 383
f 386 382 385
f 382 300 385
f 382 297 300
f 387 302 384
f 384 302 299
f 388 384 385
f 387 384 388
f 303 388 300
f 300 388 385
f 389 304 305
f 302 387 305
f 387 389 305
f 387 390 389
f 391 387 388
f 390 387 391
f 306 391 303
f 303 391 388
f 392 307 389
f 389 307 304
f 393 389 390
f 392 389 393
f 310 393 309
f 393 391 309
f 393 390 391
f 309 391 306
f 392 311 307
f 311 392 313
f 392 394 313
f 392 393 394
f 315 394 310
f 310 394 393
f 394 317 313
f 317 394 315
f 395 330 331
f 332 396 331
f 331 396 395
f 333 396 332
f 397 335 395
f 395 335 330
f 398 395 396
f 397 395 398
f 337 398 333
f 333 398 396
f 399 338 339
f 400 399 339
f 400 339 335
f 401 400 335
f 397 401 335
f 401 397 398
f 401 398 402
f 398 337 402
f 337 403 402
f 337 341 403
f 405 404 399
f 404 338 399
f 404 342 338
f 405 399 400
f 343 403 341
f 343 406 403
f 404 344 342
f 407 344 404
f 345 406 343
f 345 408 406
f 411 410 409
f 407 411 409
f 346 407 409
f 344 407 346
f 347 408 345
f 347 412 408
f 409 410 413
f 413 410 414
f 413 348 346
f 413 346 409
f 416 415 349
f 416 349 350
f 347 349 412
f 412 349 415
f 413 414 417
f 417 414 418
f 417 352 348
f 417 348 413
f 354 416 350
f 354 419 416
f 417 418 420
f 420 418 421
f 422 355 352
f 417 422 352
f 420 422 417
f 423 356 355
f 423 355 422
f 423 424 356
f 424 354 356
f 424 419 354
f 421 425 420
f 420 425 422
f 422 425 426
f 422 426 423
f 423 426 427
f 423 427 424
f 428 357 358
f 359 429 358
f 358 429 428
f 360 429 359
f 431 430 428
f 430 357 428
f 430 361 357
f 431 428 429
f 431 429 432
f 429 360 432
f 360 433 432
f 360 362 433
f 434 364 365
f 435 434 365
f 361 435 365
f 430 435 361
f 366 433 362
f 366 436 433
f 437 367 434
f 434 367 364
f 434 435 438
f 434 438 437
f 368 436 366
f 368 439 436
f 440 369 437
f 437 369 367
f 437 438 441
f 437 441 440
f 370 439 368
f 370 442 439
f 443 371 440
f 440 371 369
f 440 441 444
f 440 444 443
f 372 442 370
f 372 445 442
f 446 373 443
f 443 373 371
f 443 444 447
f 443 447 446
f 450 449 448
f 449 445 448
f 445 374 448
f 445 372 374
f 451 375 446
f 446 375 373
f 446 447 452
f 453 446 452
f 451 446 453
f 453 452 450
f 448 453 450
f 454 453 448
f 376 454 374
f 374 454 448
f 455 377 451
f 451 377 375
f 456 451 453
f 455 451 456
f 380 456 379
f 456 454 379
f 456 453 454
f 379 454 376
f 457 381 455
f 455 381 377
f 458 455 456
f 457 455 458
f 382 458 380
f 380 458 456
f 457 383 381
f 383 457 386
f 386 457 458
f 386 458 382
f 459 400 401
f 402 460 401
f 401 460 459
f 403 460 402
f 462 461 405
f 405 461 404
f 405 400 459
f 463 405 459
f 462 405 463
f 465 464 463
f 459 465 463
f 460 465 459
f 406 465 403
f 403 465 460
f 461 407 404
f 466 407 461
f 464 465 467
f 464 467 468
f 408 467 406
f 406 467 465
f 470 469 411
f 411 469 410
f 411 407 466
f 411 466 470
f 468 467 471
f 468 471 472
f 412 471 408
f 408 471 467
f 469 414 410
f 473 414 469
f 472 471 415
f 416 472 415
f 474 472 416
f 415 471 412
f 473 418 414
f 475 418 473
f 419 474 416
f 419 476 474
f 475 421 418
f 477 421 475
f 424 476 419
f 424 478 476
f 425 421 479
f 421 480 479
f 421 477 480
f 481 426 425
f 481 425 479
f 426 481 482
f 483 426 482
f 427 426 483
f 424 427 478
f 478 427 483
f 480 484 479
f 479 484 481
f 481 484 485
f 481 485 482
f 486 430 431
f 432 487 431
f 431 487 486
f 433 487 432
f 489 488 486
f 488 430 486
f 488 435 430
f 489 486 487
f 489 487 490
f 487 433 490
f 433 491 490
f 433 436 491
f 488 438 435
f 492 438 488
f 439 491 436
f 439 493 491
f 495 441 494
f 441 492 494
f 441 438 492
f 497 496 495
f 497 495 494
f 497 493 496
f 493 442 496
f 493 439 442
f 498 444 495
f 495 444 441
f 499 495 496
f 498 495 499
f 445 499 442
f 442 499 496
f 500 447 498
f 498 447 444
f 450 500 449
f 500 499 449
f 500 498 499
f 449 499 445
f 500 452 447
f 452 500 450
f 501 461 462
f 463 502 462
f 462 502 501
f 464 502 463
f 504 503 501
f 503 461 501
f 503 466 461
f 506 505 504
f 501 506 504
f 502 506 501
f 468 506 464
f 464 506 502
f 508 507 470
f 470 507 469
f 470 466 503
f 470 503 508
f 509 505 506
f 506 468 509
f 468 510 509
f 468 472 510
f 507 473 469
f 511 473 507
f 474 510 472
f 474 512 510
f 515 514 513
f 511 515 513
f 475 511 513
f 473 511 475
f 476 512 474
f 476 516 512
f 513 514 517
f 517 514 518
f 517 477 475
f 517 475 513
f 478 516 476
f 478 519 516
f 517 518 520
f 520 518 521
f 520 480 477
f 520 477 517
f 523 522 483
f 523 483 482
f 478 483 519
f 519 483 522
f 520 521 524
f 524 521 525
f 526 484 480
f 520 526 480
f 524 526 520
f 527 485 484
f 527 484 526
f 527 528 485
f 528 482 485
f 528 523 482
f 525 529 524
f 524 529 526
f 526 529 530
f 526 530 527
f 527 530 531
f 527 531 528
f 532 488 489
f 490 533 489
f 489 533 532
f 491 533 490
f 534 492 532
f 532 492 488
f 535 532 533
f 534 532 535
f 493 535 491
f 491 535 533
f 534 494 492
f 494 534 497
f 497 534 535
f 497 535 493
f 536 503 504
f 505 536 504
f 537 507 508
f 503 536 508
f 536 537 508
f 536 538 537
f 509 539 505
f 539 536 505
f 539 538 536
f 510 539 509
f 541 540 537
f 540 507 537
f 540 511 507
f 541 537 538
f 541 538 542
f 544 543 542
f 538 544 542
f 539 544 538
f 512 544 510
f 510 544 539
f 546 545 515
f 515 545 514
f 515 511 540
f 515 540 546
f 543 544 547
f 543 547 548
f 516 547 512
f 512 547 544
f 545 518 514
f 549 518 545
f 548 547 550
f 548 550 551
f 519 550 516
f 516 550 547
f 549 521 518
f 552 521 549
f 551 550 522
f 523 551 522
f 553 551 523
f 522 550 519
f 552 525 521
f 554 525 552
f 528 553 523
f 528 555 553
f 529 525 556
f 525 557 556
f 525 554 557
f 558 530 529
f 558 529 556
f 530 558 559
f 560 530 559
f 531 530 560
f 528 531 555
f 555 531 560
f 557 561 556
f 556 561 558
f 558 561 562
f 558 562 559
f 563 540 541
f 542 564 541
f 541 564 563
f 543 564 542
f 566 565 546
f 546 565 545
f 546 540 563
f 567 546 563
f 566 546 567
f 567 563 564
f 567 564 568
f 564 543 568
f 543 569 568
f 543 548 569
f 565 549 545
f 570 549 565
f 551 569 548
f 551 571 569
f 574 573 572
f 570 574 572
f 552 570 572
f 549 570 552
f 553 571 551
f 553 575 571
f 572 573 576
f 576 573 577
f 576 554 552
f 576 552 572
f 555 575 553
f 555 578 575
f 576 577 579
f 579 577 580
f 579 557 554
f 579 554 576
f 582 581 560
f 582 560 559
f 555 560 578
f 578 560 581
f 579 580 583
f 583 580 584
f 585 561 557
f 579 585 557
f 583 585 579
f 586 562 561
f 586 561 585
f 586 587 562
f 587 559 562
f 587 582 559
f 584 588 583
f 583 588 585
f 585 588 589
f 585 589 586
f 586 589 590
f 586 590 587
f 591 565 566
f 567 592 566
f 566 592 591
f 568 593 567
f 567 593 592
f 569 593 568
f 595 594 591
f 594 565 591
f 594 570 565
f 595 591 592
f 595 592 596
f 598 597 596
f 592 598 596
f 593 598 592
f 571 598 569
f 569 598 593
f 600 599 574
f 574 599 573
f 574 570 594
f 574 594 600
f 597 598 601
f 597 601 602
f 575 601 571
f 571 601 598
f 599 577 573
f 603 577 599
f 602 601 604
f 602 604 605
f 578 604 575
f 575 604 601
f 603 580 577
f 606 580 603
f 605 604 581
f 582 605 581
f 607 605 582
f 581 604 578
f 606 584 580
f 608 584 606
f 587 607 582
f 587 609 607
f 588 584 610
f 584 611 610
f 584 608 611
f 612 589 588
f 612 588 610
f 589 612 613
f 614 589 613
f 590 589 614
f 587 590 609
f 609 590 614
f 611 615 610
f 610 615 612
f 612 615 616
f 612 616 613
f 618 617 595
f 595 617 594
f 620 618 619
f 618 596 619
f 618 595 596
f 597 619 596
f 622 621 600
f 600 621 599
f 600 594 617
f 600 617 622
f 623 620 619
f 619 597 623
f 597 624 623
f 597 602 624
f 621 603 599
f 625 603 621
f 605 624 602
f 605 626 624
f 625 606 603
f 627 606 625
f 607 626 605
f 607 628 626
f 631 630 629
f 627 631 629
f 608 627 629
f 606 627 608
f 609 628 607
f 609 632 628
f 630 633 629
f 608 629 633
f 634 608 633
f 611 608 634
f 636 635 614
f 636 614 613
f 609 614 632
f 632 614 635
f 634 637 611
f 611 637 615
f 615 638 616
f 637 638 615
f 613 616 636
f 636 616 638
f 639 617 618
f 620 639 618
f 640 621 622
f 641 640 622
f 641 622 617
f 642 641 617
f 639 642 617
f 644 642 643
f 643 642 623
f 642 639 623
f 639 620 623
f 624 643 623
f 646 645 640
f 645 621 640
f 645 625 621
f 646 640 641
f 647 644 643
f 643 624 647
f 624 648 647
f 624 626 648
f 651 650 649
f 645 651 649
f 627 645 649
f 625 645 627
f 628 648 626
f 628 652 648
f 649 650 631
f 650 630 631
f 650 653 630
f 649 631 627
f 656 655 654
f 655 652 654
f 652 632 654
f 652 628 632
f 633 630 657
f 630 658 657
f 630 653 658
f 657 634 633
f 656 654 635
f 636 656 635
f 659 656 636
f 635 654 632
f 657 658 660
f 660 658 661
f 662 637 634
f 657 662 634
f 660 662 657
f 663 638 637
f 663 637 662
f 663 664 638
f 664 636 638
f 664 659 636
f 661 665 660
f 660 665 662
f 662 665 666
f 662 666 663
f 663 666 667
f 663 667 664
f 668 641 642
f 644 668 642
f 670 669 646
f 646 669 645
f 646 641 668
f 671 646 668
f 670 646 671
f 673 671 672
f 672 671 647
f 671 668 647
f 668 644 647
f 648 672 647
f 675 674 651
f 651 674 650
f 651 645 669
f 651 669 675
f 673 672 676
f 673 676 677
f 652 676 648
f 648 676 672
f 674 653 650
f 678 653 674
f 677 676 655
f 656 677 655
f 679 677 656
f 655 676 652
f 678 658 653
f 680 658 678
f 659 679 656
f 659 681 679
f 680 661 658
f 682 661 680
f 664 681 659
f 664 683 681
f 665 661 684
f 661 685 684
f 661 682 685
f 686 666 665
f 686 665 684
f 666 686 687
f 688 666 687
f 667 666 688
f 664 667 683
f 683 667 688
f 685 689 684
f 684 689 686
f 686 689 690
f 686 690 687
f 691 669 670
f 671 692 670
f 670 692 691
f 673 692 671
f 694 693 675
f 675 693 674
f 675 669 691
f 695 675 691
f 694 675 695
f 695 691 692
f 695 692 696
f 692 673 696
f 673 697 696
f 673 677 697
f 693 678 674
f 698 678 693
f 679 697 677
f 679 699 697
f 698 680 678
f 700 680 698
f 681 699 679
f 681 701 699
f 700 682 680
f 702 682 700
f 683 701 681
f 683 703 701
f 702 685 682
f 704 685 702
f 706 705 688
f 706 688 687
f 683 688 703
f 703 688 705
f 704 707 685
f 685 707 689
f 689 708 690
f 707 708 689
f 687 690 706
f 706 690 708
f 710 709 694
f 694 709 693
f 711 694 695
f 711 710 694
f 713 711 712
f 711 696 712
f 711 695 696
f 697 712 696
f 709 698 693
f 714 698 709
f 713 712 715
f 713 715 716
f 699 715 697
f 697 715 712
f 719 718 717
f 714 719 717
f 700 714 717
f 698 714 700
f 716 715 720
f 716 720 721
f 701 720 699
f 699 720 715
f 717 718 722
f 722 718 723
f 722 702 700
f 722 700 717
f 721 720 724
f 721 724 725
f 703 724 701
f 701 724 720
f 722 723 726
f 726 723 727
f 726 704 702
f 726 702 722
f 725 724 705
f 706 725 705
f 728 725 706
f 705 724 703
f 727 729 726
f 726 729 704
f 729 707 704
f 729 730 707
f 707 731 708
f 730 731 707
f 706 708 728
f 728 708 731
f 732 709 710
f 711 733 710
f 710 733 732
f 713 733 711
f 735 734 732
f 734 709 732
f 734 714 709
f 735 732 733
f 735 733 736
f 733 713 736
f 713 737 736
f 713 716 737
f 739 738 719
f 719 738 718
f 719 714 734
f 719 734 739
f 721 737 716
f 721 740 737
f 738 723 718
f 741 723 738
f 725 740 721
f 725 742 740
f 741 727 723
f 743 727 741
f 728 742 725
f 728 744 742
f 743 745 727
f 727 745 729
f 745 747 746
f 730 745 746
f 729 745 730
f 730 746 748
f 749 730 748
f 731 730 749
f 728 731 744
f 744 731 749
f 747 750 746
f 746 750 748
f 752 751 735
f 735 751 734
f 753 735 736
f 753 752 735
f 736 737 753
f 753 737 754
f 756 755 739
f 739 755 738
f 739 734 751
f 739 751 756
f 740 754 737
f 740 757 754
f 755 741 738
f 758 741 755
f 742 757 740
f 742 759 757
f 758 743 741
f 760 743 758
f 744 759 742
f 744 761 759
f 760 762 743
f 743 762 745
f 747 745 762
f 747 762 763
f 765 764 749
f 765 749 748
f 744 749 761
f 761 749 764
f 763 766 747
f 747 766 750
f 748 750 765
f 765 750 766
f 768 767 752
f 752 767 751
f 770 768 769
f 768 753 769
f 768 752 753
f 754 769 753
f 772 771 756
f 756 771 755
f 756 751 767
f 756 767 772
f 773 770 769
f 769 754 773
f 754 774 773
f 754 757 774
f 771 758 755
f 775 758 771
f 759 774 757
f 759 776 774
f 775 760 758
f 777 760 775
f 761 776 759
f 761 778 776
f 777 779 760
f 760 779 762
f 763 762 779
f 763 779 780
f 782 781 764
f 782 764 765
f 761 764 778
f 778 764 781
f 780 783 763
f 763 783 766
f 765 766 782
f 782 766 783
f 785 784 768
f 768 784 767
f 787 786 770
f 786 768 770
f 786 785 768
f 787 788 786
f 790 789 772
f 772 789 771
f 772 767 784
f 772 784 790
f 773 787 770
f 773 774 787
f 774 788 787
f 774 791 788
f 789 775 771
f 792 775 789
f 776 791 774
f 776 793 791
f 792 777 775
f 794 777 792
f 778 793 776
f 778 795 793
f 794 796 777
f 777 796 779
f 780 779 796
f 780 796 797
f 799 798 781
f 799 781 782
f 778 781 795
f 795 781 798
f 797 800 780
f 780 800 783
f 782 783 799
f 799 783 800
f 802 801 785
f 785 801 784
f 803 785 786
f 803 802 785
f 786 788 803
f 803 788 804
f 806 805 790
f 790 805 789
f 790 784 801
f 790 801 806
f 791 804 788
f 791 807 804
f 805 792 789
f 808 792 805
f 793 807 791
f 793 809 807
f 808 794 792
f 810 794 808
f 795 809 793
f 795 811 809
f 810 812 794
f 794 812 796
f 797 796 812
f 797 812 813
f 815 814 798
f 815 798 799
f 795 798 811
f 811 798 814
f 813 816 797
f 797 816 800
f 799 800 815
f 815 800 816
f 819 818 817
f 801 802 817
f 802 819 817
f 802 820 819
f 821 802 803
f 821 820 802
f 803 804 821
f 821 804 822
f 817 818 806
f 818 805 806
f 818 823 805
f 817 806 801
f 807 822 804
f 807 824 822
f 823 808 805
f 825 808 823
f 809 824 807
f 809 826 824
f 825 810 808
f 827 810 825
f 811 826 809
f 811 828 826
f 827 829 810
f 810 829 812
f 813 812 829
f 813 829 830
f 832 831 814
f 832 814 815
f 811 814 828
f 828 814 831
f 830 833 813
f 813 833 816
f 815 816 832
f 832 816 833
f 836 835 834
f 834 837 836
f 839 838 819
f 819 838 818
f 820 834 835
f 839 820 835
f 819 820 839
f 840 837 834
f 820 840 834
f 821 840 820
f 821 822 840
f 840 822 841
f 838 823 818
f 842 823 838
f 824 841 822
f 824 843 841
f 842 825 823
f 844 825 842
f 826 843 824
f 826 845 843
f 844 827 825
f 846 827 844
f 828 845 826
f 828 847 845
f 846 848 827
f 827 848 829
f 850 849 830
f 829 850 830
f 848 850 829
f 831 832 849
f 850 831 849
f 851 831 850
f 828 831 847
f 847 831 851
f 849 833 830
f 833 849 832
f 853 852 836
f 836 852 835
f 855 854 837
f 854 836 837
f 854 853 836
f 855 856 854
f 858 857 839
f 839 857 838
f 839 835 852
f 839 852 858
f 840 855 837
f 840 841 855
f 841 856 855
f 841 859 856
f 857 842 838
f 860 842 857
f 843 859 841
f 843 861 859
f 860 844 842
f 862 844 860
f 845 861 843
f 845 863 861
f 865 846 864
f 846 862 864
f 846 844 862
f 866 865 864
f 847 863 845
f 847 867 863
f 865 848 846
f 866 868 865
f 868 848 865
f 868 850 848
f 850 869 851
f 868 869 850
f 847 851 867
f 867 851 869
f 871 870 853
f 853 870 852
f 872 853 854
f 872 871 853
f 854 856 872
f 872 856 873
f 875 874 858
f 858 874 857
f 858 852 870
f 858 870 875
f 859 873 856
f 859 876 873
f 874 860 857
f 877 860 874
f 861 876 859
f 861 878 876
f 877 862 860
f 879 862 877
f 863 878 861
f 863 880 878
f 879 881 862
f 862 881 864
f 866 864 881
f 866 881 882
f 867 880 863
f 867 883 880
f 882 884 866
f 866 884 868
f 868 885 869
f 884 885 868
f 867 869 883
f 883 869 885
f 888 887 886
f 886 889 888
f 891 890 871
f 871 890 870
f 872 886 887
f 891 872 887
f 871 872 891
f 872 873 886
f 873 889 886
f 873 892 889
f 893 874 875
f 894 893 875
f 870 894 875
f 890 894 870
f 876 892 873
f 876 895 892
f 897 896 893
f 896 874 893
f 896 877 874
f 897 893 894
f 878 895 876
f 878 898 895
f 900 879 899
f 879 896 899
f 879 877 896
f 901 900 899
f 880 898 878
f 880 902 898
f 900 881 879
f 882 881 900
f 901 882 900
f 903 882 901
f 906 905 904
f 905 902 904
f 902 883 904
f 902 880 883
f 903 907 882
f 882 907 884
f 904 885 906
f 885 907 906
f 885 884 907
f 885 904 883
f 910 909 908
f 887 888 908
f 888 910 908
f 888 911 910
f 888 889 911
f 911 889 912
f 908 909 891
f 909 890 891
f 909 913 890
f 908 891 887
f 892 915 914
f 912 892 914
f 889 892 912
f 915 916 914
f 913 894 890
f 917 894 913
f 895 918 915
f 895 915 892
f 916 915 919
f 919 915 918
f 920 896 897
f 921 920 897
f 894 921 897
f 917 921 894
f 898 922 918
f 898 918 895
f 919 918 923
f 923 918 922
f 920 899 896
f 901 899 920
f 921 901 920
f 924 901 921
f 926 925 922
f 898 926 922
f 902 926 898
f 922 925 923
f 928 903 927
f 903 924 927
f 903 901 924
f 905 906 928
f 927 905 928
f 929 905 927
f 902 905 926
f 926 905 929
f 928 907 903
f 907 928 906
f 931 930 910
f 910 930 909
f 932 910 911
f 932 931 910
f 911 912 932
f 932 912 933
f 930 913 909
f 934 913 930
f 935 933 912
f 935 912 914
f 914 916 935
f 935 916 936
f 934 917 913
f 937 917 934
f 919 936 916
f 919 938 936
f 937 921 917
f 939 921 937
f 923 938 919
f 923 940 938
f 939 924 921
f 941 924 939
f 943 942 925
f 943 925 926
f 923 925 940
f 940 925 942
f 941 944 924
f 924 944 927
f 927 945 929
f 944 945 927
f 926 929 943
f 943 929 945
f 948 947 946
f 946 949 948
f 951 950 931
f 931 950 930
f 932 946 947
f 951 932 947
f 931 932 951
f 953 952 933
f 933 952 932
f 952 949 932
f 949 946 932
f 953 954 952
f 950 934 930
f 955 934 950
f 935 953 933
f 935 936 953
f 936 954 953
f 936 956 954
f 955 937 934
f 957 937 955
f 938 956 936
f 938 958 956
f 957 939 937
f 959 939 957
f 962 961 960
f 961 958 960
f 958 940 960
f 958 938 940
f 964 941 963
f 941 959 963
f 941 939 959
f 966 965 964
f 966 964 963
f 965 966 962
f 965 962 960
f 943 965 960
f 942 943 960
f 942 960 940
f 964 944 941
f 944 964 945
f 945 964 965
f 945 965 943
f 969 968 967
f 947 948 967
f 948 969 967
f 948 970 969
f 972 971 949
f 971 948 949
f 971 970 948
f 972 973 971
f 967 968 951
f 968 950 951
f 968 974 950
f 967 951 947
f 952 972 949
f 952 954 972
f 954 973 972
f 954 975 973
f 974 955 950
f 976 955 974
f 956 975 954
f 956 977 975
f 976 957 955
f 978 957 976
f 958 977 956
f 958 979 977
f 978 959 957
f 980 959 978
f 982 981 961
f 982 961 962
f 958 961 979
f 979 961 981
f 980 983 959
f 959 983 963
f 963 984 966
f 983 984 963
f 962 966 982
f 982 966 984
f 987 986 985
f 985 988 987
f 990 989 969
f 969 989 968
f 970 985 986
f 990 970 986
f 969 970 990
f 991 988 985
f 970 991 985
f 971 991 970
f 971 973 991
f 991 973 992
f 989 974 968
f 993 974 989
f 975 992 973
f 975 994 992
f 993 976 974
f 995 976 993
f 977 994 975
f 977 996 994
f 995 978 976
f 997 978 995
f 979 996 977
f 979 998 996
f 1000 980 999
f 980 997 999
f 980 978 997
f 1001 1000 999
f 1003 1002 981
f 1003 981 982
f 979 981 998
f 998 981 1002
f 1000 983 980
f 1001 1004 1000
f 1004 983 1000
f 1004 984 983
f 982 984 1003
f 1003 984 1004
f 1007 1006 1005
f 1005 1008 1007
f 1011 1010 1009
f 1011 1009 1006
f 1006 1009 1005
f 1009 986 1005
f 986 987 1005
f 1013 1012 988
f 988 1012 987
f 1012 1008 987
f 1008 1005 987
f 1013 1014 1012
f 1009 1010 990
f 1010 989 990
f 1010 1015 989
f 1009 990 986
f 991 1013 988
f 991 992 1013
f 992 1014 1013
f 992 1016 1014
f 1015 993 989
f 1017 993 1015
f 994 1016 992
f 994 1018 1016
f 1017 995 993
f 1019 995 1017
f 996 1018 994
f 996 1020 1018
f 1019 997 995
f 1021 997 1019
f 1024 1023 1022
f 1023 1020 1022
f 1020 998 1022
f 1020 996 998
f 1021 1025 997
f 997 1025 999
f 1027 1026 1001
f 999 1027 1001
f 1025 1027 999
f 1026 1027 1024
f 1026 1024 1022
f 1003 1026 1022
f 1002 1003 1022
f 1002 1022 998
f 1026 1004 1001
f 1004 1026 1003
f 1030 1029 1028
f 1028 1031 1030
f 1034 1033 1032
f 1034 1032 1029
f 1029 1032 1028
f 1032 1006 1028
f 1006 1007 1028
f 1036 1035 1008
f 1008 1035 1007
f 1035 1031 1007
f 1031 1028 1007
f 1036 1037 1035
f 1032 1033 1011
f 1033 1010 1011
f 1033 1038 1010
f 1032 1011 1006
f 1012 1036 1008
f 1012 1014 1036
f 1014 1037 1036
f 1014 1039 1037
f 1038 1015 1010
f 1040 1015 1038
f 1016 1039 1014
f 1016 1041 1039
f 1040 1017 1015
f 1042 1017 1040
f 1018 1041 1016
f 1018 1043 1041
f 1042 1019 1017
f 1044 1019 1042
f 1020 1043 1018
f 1020 1045 1043
f 1047 1021 1046
f 1021 1044 1046
f 1021 1019 1044
f 1049 1048 1047
f 1049 1047 1046
f 1023 1024 1048
f 1049 1023 1048
f 1050 1023 1049
f 1020 1023 1045
f 1045 1023 1050
f 1047 1025 1021
f 1025 1047 1027
f 1027 1047 1048
f 1027 1048 1024
f 1053 1052 1051
f 1055 1054 1051
f 1051 1054 1053
f 1055 1056 1054
f 1051 1052 1030
f 1052 1029 1030
f 1052 1057 1029
f 1051 1030 1031
f 1058 1051 1031
f 1055 1051 1058
f 1056 1055 1059
f 1059 1055 1058
f 1061 1060 1034
f 1034 1060 1033
f 1034 1029 1057
f 1034 1057 1061
f 1035 1058 1031
f 1035 1037 1058
f 1037 1059 1058
f 1037 1062 1059
f 1060 1038 1033
f 1063 1038 1060
f 1039 1062 1037
f 1039 1064 1062
f 1063 1040 1038
f 1065 1040 1063
f 1041 1064 1039
f 1041 1066 1064
f 1065 1042 1040
f 1067 1042 1065
f 1043 1066 1041
f 1043 1068 1066
f 1070 1044 1069
f 1044 1067 1069
f 1044 1042 1067
f 1071 1070 1069
f 1074 1073 1072
f 1073 1068 1072
f 1068 1045 1072
f 1068 1043 1045
f 1070 1046 1044
f 1071 1075 1070
f 1075 1046 1070
f 1075 1049 1046
f 1072 1050 1074
f 1050 1075 1074
f 1050 1049 1075
f 1050 1072 1045
f 1078 1077 1076
f 1080 1079 1076
f 1076 1079 1078
f 1080 1081 1079
f 1076 1077 1053
f 1077 1052 1053
f 1077 1082 1052
f 1076 1053 1054
f 1076 1054 1080
f 1054 1056 1080
f 1056 1081 1080
f 1056 1083 1081
f 1082 1057 1052
f 1084 1057 1082
f 1059 1083 1056
f 1059 1085 1083
f 1087 1086 1061
f 1061 1086 1060
f 1061 1057 1084
f 1061 1084 1087
f 1062 1085 1059
f 1062 1088 1085
f 1086 1063 1060
f 1089 1063 1086
f 1064 1088 1062
f 1064 1090 1088
f 1089 1065 1063
f 1091 1065 1089
f 1066 1090 1064
f 1066 1092 1090
f 1094 1067 1093
f 1067 1091 1093
f 1067 1065 1091
f 1095 1094 1093
f 1068 1092 1066
f 1068 1096 1092
f 1094 1069 1067
f 1098 1097 1071
f 1098 1071 1069
f 1095 1098 1069
f 1094 1095 1069
f 1073 1074 1097
f 1098 1073 1097
f 1099 1073 1098
f 1068 1073 1096
f 1096 1073 1099
f 1097 1075 1071
f 1075 1097 1074
f 1102 1101 1100
f 1104 1103 1100
f 1100 1103 1102
f 1104 1105 1103
f 1108 1107 1106
f 1108 1106 1101
f 1106 1100 1101
f 1106 1109 1100
f 1100 1110 1104
f 1100 1109 1110
f 1105 1104 1111
f 1111 1104 1110
f 1106 1107 1078
f 1107 1077 1078
f 1107 1112 1077
f 1106 1078 1079
f 1106 1079 1109
f 1109 1079 1081
f 1113 1109 1081
f 1110 1109 1113
f 1111 1110 1114
f 1114 1110 1113
f 1112 1082 1077
f 1115 1082 1112
f 1083 1116 1113
f 1083 1113 1081
f 1114 1113 1117
f 1117 1113 1116
f 1115 1084 1082
f 1118 1084 1115
f 1085 1119 1116
f 1085 1116 1083
f 1117 1116 1120
f 1120 1116 1119
f 1122 1121 1087
f 1087 1121 1086
f 1087 1084 1118
f 1087 1118 1122
f 1124 1123 1119
f 1085 1124 1119
f 1088 1124 1085
f 1119 1123 1120
f 1126 1089 1125
f 1089 1121 1125
f 1089 1086 1121
f 1127 1126 1125
f 1090 1124 1088
f 1090 1128 1124
f 1129 1091 1126
f 1126 1091 1089
f 1126 1127 1130
f 1126 1130 1129
f 1092 1128 1090
f 1092 1131 1128
f 1129 1093 1091
f 1133 1132 1095
f 1133 1095 1093
f 1130 1133 1093
f 1129 1130 1093
f 1135 1134 1132
f 1135 1132 1133
f 1135 1131 1134
f 1131 1096 1134
f 1131 1092 1096
f 1132 1098 1095
f 1098 1132 1099
f 1099 1132 1134
f 1099 1134 1096
f 1138 1137 1136
f 1136 1139 1138
f 1142 1141 1140
f 1142 1140 1137
f 1140 1136 1137
f 1140 1143 1136
f 1139 1136 1144
f 1144 1136 1143
f 1147 1146 1145
f 1147 1145 1141
f 1141 1145 1140
f 1145 1101 1140
f 1101 1102 1140
f 1140 1102 1103
f 1140 1103 1143
f 1103 1105 1143
f 1105 1144 1143
f 1105 1148 1144
f 1145 1146 1108
f 1146 1107 1108
f 1146 1149 1107
f 1145 1108 1101
f 1111 1148 1105
f 1111 1150 1148
f 1149 1112 1107
f 1151 1112 1149
f 1114 1150 1111
f 1114 1152 1150
f 1151 1115 1112
f 1153 1115 1151
f 1117 1152 1114
f 1117 1154 1152
f 1153 1118 1115
f 1155 1118 1153
f 1120 1154 1117
f 1120 1156 1154
f 1157 1121 1122
f 1158 1157 1122
f 1118 1158 1122
f 1155 1158 1118
f 1160 1159 1123
f 1160 1123 1124
f 1120 1123 1156
f 1156 1123 1159
f 1157 1125 1121
f 1127 1125 1157
f 1158 1127 1157
f 1161 1127 1158
f 1128 1160 1124
f 1128 1162 1160
f 1164 1130 1163
f 1130 1161 1163
f 1130 1127 1161
f 1166 1165 1164
f 1166 1164 1163
f 1166 1162 1165
f 1162 1131 1165
f 1162 1128 1131
f 1164 1133 1130
f 1133 1164 1135
f 1135 1164 1165
f 1135 1165 1131
f 1169 1168 1167
f 1171 1170 1167
f 1167 1170 1169
f 1171 1172 1170
f 1167 1168 1173
f 1173 1168 1174
f 1173 1137 1138
f 1171 1173 1138
f 1167 1173 1171
f 1138 1139 1171
f 1139 1172 1171
f 1139 1175 1172
f 1173 1174 1142
f 1174 1141 1142
f 1174 1176 1141
f 1173 1142 1137
f 1144 1178 1177
f 1175 1144 1177
f 1139 1144 1175
f 1178 1179 1177
f 1181 1180 1147
f 1147 1180 1146
f 1147 1141 1176
f 1147 1176 1181
f 1183 1182 1178
f 1144 1183 1178
f 1148 1183 1144
f 1178 1182 1179
f 1180 1149 1146
f 1184 1149 1180
f 1150 1183 1148
f 1150 1185 1183
f 1184 1151 1149
f 1186 1151 1184
f 1152 1185 1150
f 1152 1187 1185
f 1186 1153 1151
f 1188 1153 1186
f 1154 1187 1152
f 1154 1189 1187
f 1188 1155 1153
f 1190 1155 1188
f 1193 1192 1191
f 1192 1189 1191
f 1189 1156 1191
f 1189 1154 1156
f 1195 1158 1194
f 1158 1190 1194
f 1158 1155 1190
f 1196 1195 1194
f 1193 1191 1159
f 1160 1193 1159
f 1197 1193 1160
f 1159 1191 1156
f 1198 1161 1195
f 1195 1161 1158
f 1195 1196 1199
f 1200 1195 1199
f 1198 1195 1200
f 1199 1197 1200
f 1197 1162 1200
f 1197 1160 1162
f 1198 1163 1161
f 1163 1198 1166
f 1166 1198 1200
f 1166 1200 1162
f 1203 1202 1201
f 1205 1204 1201
f 1201 1204 1203
f 1205 1206 1204
f 1209 1208 1207
f 1209 1207 1202
f 1207 1201 1202
f 1207 1210 1201
f 1201 1211 1205
f 1201 1210 1211
f 1206 1205 1212
f 1212 1205 1211
f 1207 1208 1169
f 1208 1168 1169
f 1208 1213 1168
f 1207 1169 1170
f 1207 1170 1210
f 1210 1170 1172
f 1214 1210 1172
f 1211 1210 1214
f 1212 1211 1215
f 1215 1211 1214
f 1213 1174 1168
f 1216 1174 1213
f 1175 1217 1214
f 1175 1214 1172
f 1215 1214 1218
f 1218 1214 1217
f 1216 1176 1174
f 1219 1176 1216
f 1177 1217 1175
f 1177 1179 1217
f 1179 1218 1217
f 1179 1220 1218
f 1222 1221 1181
f 1181 1221 1180
f 1181 1176 1219
f 1181 1219 1222
f 1183 1223 1182
f 1223 1224 1182
f 1224 1179 1182
f 1224 1220 1179
f 1221 1184 1180
f 1225 1184 1221
f 1227 1226 1223
f 1183 1227 1223
f 1185 1227 1183
f 1223 1226 1224
f 1225 1186 1184
f 1228 1186 1225
f 1187 1227 1185
f 1187 1229 1227
f 1231 1188 1230
f 1188 1228 1230
f 1188 1186 1228
f 1232 1231 1230
f 1189 1229 1187
f 1189 1233 1229
f 1234 1190 1231
f 1231 1190 1188
f 1231 1232 1235
f 1236 1231 1235
f 1234 1231 1236
f 1192 1193 1236
f 1235 1192 1236
f 1237 1192 1235
f 1189 1192 1233
f 1233 1192 1237
f 1234 1194 1190
f 1194 1234 1196
f 1234 1238 1196
f 1234 1236 1238
f 1197 1238 1193
f 1193 1238 1236
f 1238 1199 1196
f 1199 1238 1197
f 1241 1240 1239
f 1243 1242 1239
f 1239 1242 1241
f 1243 1244 1242
f 1239 1240 1245
f 1245 1240 1246
f 1239 1247 1243
f 1239 1245 1247
f 1244 1243 1248
f 1248 1243 1247
f 1245 1246 1203
f 1246 1202 1203
f 1246 1249 1202
f 1245 1203 1204
f 1245 1204 1247
f 1204 1206 1247
f 1206 1248 1247
f 1206 1250 1248
f 1252 1251 1209
f 1209 1251 1208
f 1209 1202 1249
f 1209 1249 1252
f 1212 1250 1206
f 1212 1253 1250
f 1251 1213 1208
f 1254 1213 1251
f 1215 1253 1212
f 1215 1255 1253
f 1254 1216 1213
f 1256 1216 1254
f 1218 1255 1215
f 1218 1257 1255
f 1256 1219 1216
f 1258 1219 1256
f 1220 1257 1218
f 1220 1259 1257
f 1260 1221 1222
f 1261 1260 1222
f 1219 1261 1222
f 1258 1261 1219
f 1264 1263 1262
f 1263 1259 1262
f 1259 1224 1262
f 1259 1220 1224
f 1265 1225 1260
f 1260 1225 1221
f 1260 1261 1266
f 1260 1266 1265
f 1264 1262 1226
f 1227 1264 1226
f 1267 1264 1227
f 1226 1262 1224
f 1268 1228 1265
f 1265 1228 1225
f 1265 1266 1269
f 1265 1269 1268
f 1272 1271 1270
f 1271 1267 1270
f 1267 1229 1270
f 1267 1227 1229
f 1268 1230 1228
f 1274 1273 1232
f 1274 1232 1230
f 1269 1274 1230
f 1268 1269 1230
f 1273 1274 1272
f 1270 1273 1272
f 1275 1273 1270
f 1233 1275 1229
f 1229 1275 1270
f 1273 1235 1232
f 1235 1273 1237
f 1237 1273 1275
f 1237 1275 1233
f 1278 1277 1276
f 1280 1279 1276
f 1276 1279 1278
f 1280 1281 1279
f 1284 1283 1282
f 1284 1282 1277
f 1282 1276 1277
f 1282 1285 1276
f 1276 1286 1280
f 1276 1285 1286
f 1281 1280 1287
f 1287 1280 1286
f 1282 1283 1241
f 1283 1240 1241
f 1283 1288 1240
f 1282 1241 1242
f 1282 1242 1285
f 1285 1242 1244
f 1289 1285 1244
f 1286 1285 1289
f 1287 1286 1290
f 1290 1286 1289
f 1288 1246 1240
f 1291 1246 1288
f 1248 1292 1289
f 1248 1289 1244
f 1290 1289 1293
f 1293 1289 1292
f 1296 1295 1294
f 1291 1296 1294
f 1249 1291 1294
f 1246 1291 1249
f 1250 1297 1292
f 1250 1292 1248
f 1293 1292 1298
f 1298 1292 1297
f 1294 1295 1252
f 1295 1251 1252
f 1295 1299 1251
f 1294 1252 1249
f 1301 1300 1297
f 1250 1301 1297
f 1253 1301 1250
f 1297 1300 1298
f 1299 1254 1251
f 1302 1254 1299
f 1255 1301 1253
f 1255 1303 1301
f 1302 1256 1254
f 1304 1256 1302
f 1257 1303 1255
f 1257 1305 1303
f 1304 1258 1256
f 1306 1258 1304
f 1259 1305 1257
f 1259 1307 1305
f 1306 1261 1258
f 1308 1261 1306
f 1310 1309 1263
f 1310 1263 1264
f 1259 1263 1307
f 1307 1263 1309
f 1312 1266 1311
f 1266 1308 1311
f 1266 1261 1308
f 1314 1313 1312
f 1314 1312 1311
f 1314 1310 1313
f 1310 1267 1313
f 1310 1264 1267
f 1315 1269 1312
f 1312 1269 1266
f 1272 1315 1271
f 1315 1313 1271
f 1315 1312 1313
f 1271 1313 1267
f 1315 1274 1269
f 1274 1315 1272
f 1318 1317 1316
f 1316 1319 1318
f 1322 1321 1320
f 1322 1320 1317
f 1320 1316 1317
f 1320 1323 1316
f 1319 1316 1324
f 1324 1316 1323
f 1327 1326 1325
f 1327 1325 1321
f 1321 1325 1320
f 1325 1277 1320
f 1277 1278 1320
f 1320 1278 1279
f 1320 1279 1323
f 1279 1281 1323
f 1281 1324 1323
f 1281 1328 1324
f 1325 1326 1284
f 1326 1283 1284
f 1326 1329 1283
f 1325 1284 1277
f 1287 1328 1281
f 1287 1330 1328
f 1329 1288 1283
f 1331 1288 1329
f 1290 1330 1287
f 1290 1332 1330
f 1331 1291 1288
f 1333 1291 1331
f 1293 1332 1290
f 1293 1334 1332
f 1335 1295 1296
f 1336 1335 1296
f 1291 1336 1296
f 1333 1336 1291
f 1298 1334 1293
f 1298 1337 1334
f 1338 1299 1335
f 1335 1299 1295
f 1335 1336 1339
f 1335 1339 1338
f 1341 1340 1300
f 1341 1300 1301
f 1298 1300 1337
f 1337 1300 1340
f 1342 1302 1338
f 1338 1302 1299
f 1338 1339 1343
f 1338 1343 1342
f 1303 1341 1301
f 1303 1344 1341
f 1345 1304 1342
f 1342 1304 1302
f 1342 1343 1346
f 1342 1346 1345
f 1305 1344 1303
f 1305 1347 1344
f 1348 1306 1345
f 1345 1306 1304
f 1345 1346 1349
f 1350 1345 1349
f 1348 1345 1350
f 1352 1351 1350
f 1352 1350 1349
f 1352 1347 1351
f 1347 1307 1351
f 1347 1305 1307
f 1353 1308 1348
f 1348 1308 1306
f 1354 1348 1350
f 1353 1348 1354
f 1310 1354 1309
f 1354 1351 1309
f 1354 1350 1351
f 1309 1351 1307
f 1353 1311 1308
f 1311 1353 1314
f 1314 1353 1354
f 1314 1354 1310
f 1357 1356 1355
f 1359 1358 1355
f 1355 1358 1357
f 1359 1360 1358
f 1355 1356 1361
f 1361 1356 1362
f 1361 1317 1318
f 1359 1361 1318
f 1355 1361 1359
f 1364 1363 1319
f 1319 1363 1318
f 1363 1360 1318
f 1360 1359 1318
f 1364 1365 1363
f 1361 1362 1322
f 1362 1321 1322
f 1362 1366 1321
f 1361 1322 1317
f 1324 1367 1364
f 1324 1364 1319
f 1365 1364 1368
f 1368 1364 1367
f 1370 1369 1327
f 1327 1369 1326
f 1327 1321 1366
f 1327 1366 1370
f 1328 1371 1367
f 1328 1367 1324
f 1368 1367 1372
f 1372 1367 1371
f 1369 1329 1326
f 1373 1329 1369
f 1375 1374 1371
f 1328 1375 1371
f 1330 1375 1328
f 1371 1374 1372
f 1373 1331 1329
f 1376 1331 1373
f 1332 1375 1330
f 1332 1377 1375
f 1376 1333 1331
f 1378 1333 1376
f 1334 1377 1332
f 1334 1379 1377
f 1378 1336 1333
f 1380 1336 1378
f 1337 1379 1334
f 1337 1381 1379
f 1380 1339 1336
f 1382 1339 1380
f 1384 1383 1340
f 1384 1340 1341
f 1337 1340 1381
f 1381 1340 1383
f 1382 1343 1339
f 1385 1343 1382
f 1388 1387 1386
f 1387 1384 1386
f 1384 1344 1386
f 1384 1341 1344
f 1390 1346 1389
f 1346 1385 1389
f 1346 1343 1385
f 1390 1389 1388
f 1386 1390 1388
f 1391 1390 1386
f 1347 1391 1344
f 1344 1391 1386
f 1390 1349 1346
f 1349 1390 1352
f 1352 1390 1391
f 1352 1391 1347
f 1393 1392 1357
f 1357 1392 1356
f 1395 1393 1394
f 1393 1358 1394
f 1393 1357 1358
f 1360 1394 1358
f 1392 1362 1356
f 1396 1362 1392
f 1397 1395 1394
f 1397 1394 1360
f 1363 1397 1360
f 1398 1397 1363
f 1363 1365 1398
f 1398 1365 1399
f 1396 1366 1362
f 1400 1366 1396
f 1368 1399 1365
f 1368 1401 1399
f 1403 1402 1370
f 1370 1402 1369
f 1370 1366 1400
f 1370 1400 1403
f 1372 1401 1368
f 1372 1404 1401
f 1402 1373 1369
f 1405 1373 1402
f 1407 1406 1374
f 1407 1374 1375
f 1372 1374 1404
f 1404 1374 1406
f 1405 1376 1373
f 1408 1376 1405
f 1377 1407 1375
f 1377 1409 1407
f 1408 1378 1376
f 1410 1378 1408
f 1379 1409 1377
f 1379 1411 1409
f 1413 1380 1412
f 1380 1410 1412
f 1380 1378 1410
f 1414 1413 1412
f 1417 1416 1415
f 1416 1411 1415
f 1411 1381 1415
f 1411 1379 1381
f 1418 1382 1413
f 1413 1382 1380
f 1413 1414 1419
f 1420 1413 1419
f 1418 1413 1420
f 1420 1419 1417
f 1420 1417 1415
f 1384 1420 1415
f 1383 1384 1415
f 1383 1415 1381
f 1421 1385 1418
f 1418 1385 1382
f 1388 1421 1387
f 1421 1420 1387
f 1421 1418 1420
f 1387 1420 1384
f 1421 1389 1385
f 1389 1421 1388
f 1422 1392 1393
f 1395 1422 1393
f 1424 1423 1422
f 1423 1392 1422
f 1423 1396 1392
f 1424 1422 1395
f 1397 1424 1395
f 1425 1424 1397
f 1427 1425 1426
f 1425 1398 1426
f 1425 1397 1398
f 1399 1426 1398
f 1423 1400 1396
f 1428 1400 1423
f 1429 1427 1426
f 1426 1399 1429
f 1399 1430 1429
f 1399 1401 1430
f 1431 1402 1403
f 1432 1431 1403
f 1400 1432 1403
f 1428 1432 1400
f 1404 1430 1401
f 1404 1433 1430
f 1434 1405 1431
f 1431 1405 1402
f 1431 1432 1435
f 1431 1435 1434
f 1437 1436 1406
f 1437 1406 1407
f 1404 1406 1433
f 1433 1406 1436
f 1438 1408 1434
f 1434 1408 1405
f 1434 1435 1439
f 1434 1439 1438
f 1409 1437 1407
f 1409 1440 1437
f 1441 1410 1438
f 1438 1410 1408
f 1438 1439 1442
f 1443 1438 1442
f 1441 1438 1443
f 1445 1444 1443
f 1445 1443 1442
f 1445 1440 1444
f 1440 1411 1444
f 1440 1409 1411
f 1441 1412 1410
f 1412 1441 1414
f 1441 1446 1414
f 1441 1443 1446
f 1417 1446 1416
f 1446 1444 1416
f 1446 1443 1444
f 1416 1444 1411
f 1446 1419 1414
f 1419 1446 1417
f 1448 1447 1424
f 1424 1447 1423
f 1450 1448 1449
f 1448 1425 1449
f 1448 1424 1425
f 1427 1449 1425
f 1447 1428 1423
f 1451 1428 1447
f 1452 1450 1449
f 1452 1449 1427
f 1429 1452 1427
f 1453 1452 1429
f 1429 1430 1453
f 1453 1430 1454
f 1456 1432 1455
f 1432 1451 1455
f 1432 1428 1451
f 1457 1456 1455
f 1460 1459 1458
f 1459 1454 1458
f 1454 1433 1458
f 1454 1430 1433
f 1461 1435 1456
f 1456 1435 1432
f 1456 1457 1462
f 1463 1456 1462
f 1461 1456 1463
f 1463 1462 1460
f 1463 1460 1458
f 1437 1463 1458
f 1436 1437 1458
f 1436 1458 1433
f 1464 1439 1461
f 1461 1439 1435
f 1465 1461 1463
f 1464 1461 1465
f 1440 1465 1437
f 1437 1465 1463
f 1464 1442 1439
f 1442 1464 1445
f 1445 1464 1465
f 1445 1465 1440
f 1466 1447 1448
f 1450 1466 1448
f 1467 1451 1466
f 1466 1451 1447
f 1452 1468 1450
f 1468 1466 1450
f 1468 1467 1466
f 1453 1469 1452
f 1452 1469 1468
f 1454 1469 1453
f 1467 1455 1451
f 1455 1467 1457
f 1467 1470 1457
f 1467 1468 1470
f 1460 1470 1459
f 1470 1469 1459
f 1470 1468 1469
f 1459 1469 1454
f 1470 1462 1457
f 1462 1470 1460
# 2936 faces, 0 coords texture

# End of File