####
#
# OBJ File Generated by Meshlab
#
####
# Object domain0558.obj
#
# Vertices: 664
# Faces: 1324
#
####
v 66.805290 76.866280 83.064911
v 66.972267 76.870483 82.727417
v 66.946190 76.577347 83.044785
v 66.945000 76.575470 83.953247
v 66.819710 76.869202 83.929855
v 67.003929 76.856384 84.247940
v 66.699158 77.385925 83.020561
v 66.842201 77.333046 82.484024
v 66.743896 77.365967 83.933098
v 66.952438 77.359604 84.298241
v 66.787407 78.005623 82.080208
v 66.924469 77.973564 81.555031
v 66.873528 77.679710 82.026924
v 66.655693 77.931572 83.006401
v 66.740456 77.924759 83.929115
v 66.961739 77.926308 84.282974
v 66.804558 78.438309 82.055267
v 66.939651 78.481209 81.560104
v 66.742699 78.436554 82.998848
v 66.813972 78.421791 83.924072
v 67.015724 78.413414 84.203590
v 66.919968 78.738495 82.025436
v 66.890434 78.754448 82.999397
v 66.952759 78.704033 83.943214
v 67.194160 76.273727 83.044098
v 67.507378 76.302170 82.730316
v 67.484062 75.984787 83.044586
v 67.456558 75.951744 83.979340
v 67.182358 76.261406 83.974350
v 67.472511 76.259491 84.423714
v 67.385719 76.760460 82.423256
v 67.347694 76.772194 84.589966
v 67.328346 77.474625 81.041374
v 67.484001 77.446632 80.532791
v 67.512230 77.310677 81.038712
v 67.422066 77.110359 81.991371
v 67.100098 77.367218 81.991135
v 67.311714 77.352699 84.633652
v 67.344788 78.012672 80.079338
v 67.551170 78.004433 79.588150
v 67.479202 77.702309 80.042114
v 67.112190 77.940277 81.018684
v 67.374588 77.963493 84.601234
v 67.290283 78.524315 80.052475
v 67.463516 78.526909 79.528854
v 67.094704 78.532066 81.007057
v 67.418877 78.492828 84.417664
v 67.364037 79.019012 80.051804
v 67.516296 79.064789 79.557755
v 67.265511 79.036583 81.002922
v 67.141693 79.060753 81.983170
v 67.150780 79.040092 82.994904
v 67.209869 78.961678 83.943062
v 67.499969 78.896568 84.200417
v 67.510109 79.315399 80.026833
v 67.458511 79.350479 81.004677
v 67.439255 79.358307 82.016846
v 67.463943 79.233482 82.996529
v 67.490379 79.101921 83.923073
v 67.784561 75.723679 83.052597
v 68.084618 75.796066 82.791267
v 68.079254 75.531128 83.065536
v 68.053970 75.376152 83.971176
v 67.747009 75.658577 83.985428
v 68.009087 75.626572 84.481903
v 67.988052 76.207848 82.572281
v 68.041283 75.937599 84.945747
v 67.824165 76.239990 84.900589
v 68.172821 76.283134 85.200958
v 67.972588 76.644394 82.300537
v 67.723045 76.771690 84.958633
v 68.116882 76.774246 85.249924
v 67.740479 77.437958 80.040268
v 68.036781 77.487465 79.574493
v 68.050423 77.307091 80.071358
v 67.992790 77.168098 81.014420
v 67.968925 76.936668 81.949623
v 67.715919 77.348228 84.961784
v 68.113892 77.319344 85.198929
v 67.822708 78.018890 79.056061
v 68.037064 77.991104 78.525284
v 68.051285 77.764397 79.045319
v 67.796524 77.872940 84.892456
v 68.048996 77.681450 85.066856
v 67.917976 78.595970 78.073906
v 68.081932 78.563606 77.551003
v 68.051926 78.273521 78.027184
v 67.672432 78.531578 78.999443
v 67.988220 78.057266 84.861366
v 67.972107 78.492516 84.564880
v 67.876518 79.111061 78.053429
v 68.034698 79.109032 77.523079
v 67.683617 79.114464 79.008385
v 67.976135 78.933411 84.255844
v 67.965805 79.598061 78.053200
v 68.121208 79.636673 77.572777
v 67.888954 79.591370 79.003143
v 67.759010 79.591118 79.987160
v 67.744156 79.611649 80.998894
v 67.761482 79.580086 81.974525
v 68.018768 79.560349 82.439911
v 67.968086 79.403732 82.991997
v 67.975456 79.174400 83.919029
v 68.111023 79.887871 78.038246
v 68.077370 79.805855 79.003593
v 68.059608 79.787804 80.000763
v 68.062187 79.756447 80.998062
v 68.061668 79.695580 81.944702
v 68.367157 75.129646 83.998535
v 68.595322 75.066673 83.515030
v 68.671432 74.935585 83.996117
v 68.613655 75.073303 84.476761
v 68.605629 75.672386 82.707420
v 68.547844 75.276138 83.024803
v 68.600952 75.340744 84.961647
v 68.310249 75.633484 84.960075
v 68.688248 75.718307 85.239441
v 68.563545 76.178139 82.499153
v 68.593941 76.201004 85.368111
v 68.566902 76.624680 82.270515
v 68.574982 76.755974 85.374779
v 68.545692 77.341721 79.478363
v 68.583969 77.240341 80.023430
v 68.553207 77.144806 81.007309
v 68.570389 76.941032 81.952248
v 68.525414 77.265251 85.263474
v 68.504478 78.063393 77.042633
v 68.655602 78.031487 76.532143
v 68.686958 77.902115 77.034645
v 68.618622 77.798149 78.018715
v 68.291786 77.989067 77.996384
v 68.525818 77.523293 78.959885
v 68.256699 77.901917 84.957886
v 68.587471 77.701485 85.022766
v 68.634209 78.080406 84.709236
v 68.516098 78.598534 76.078728
v 68.709755 78.581093 75.576881
v 68.648582 78.285820 76.039894
v 68.273674 78.522636 77.016396
v 68.547180 78.502014 84.458214
v 68.456284 79.110054 76.049652
v 68.628723 79.112068 75.525673
v 68.239464 79.106667 76.990059
v 68.458633 78.902519 84.208305
v 68.528503 79.607330 76.055702
v 68.692184 79.648544 75.560349
v 68.350670 79.654922 77.011200
v 68.559731 79.387047 82.980637
v 68.525360 79.573273 82.444283
v 68.482292 79.130516 83.900284
v 68.675537 79.905434 76.029137
v 68.575401 79.980133 77.004150
v 68.373276 80.151978 78.001808
v 68.607803 80.214714 77.519707
v 68.587601 80.225143 78.489647
v 68.522377 80.101273 79.032059
v 68.569649 79.930367 79.993706
v 68.556717 79.840889 80.985802
v 68.491074 79.704819 81.920677
v 68.677750 80.295944 78.000557
v 68.887642 75.077057 83.040550
v 69.244125 75.211662 82.792404
v 69.220276 74.937515 83.084770
v 69.145317 74.664001 83.990051
v 69.213058 74.799782 84.935150
v 68.899971 75.057770 84.957329
v 69.276978 75.139992 85.233795
v 69.159775 75.619873 82.609604
v 69.171432 75.617432 85.382957
v 69.147820 76.177933 82.476341
v 69.151550 76.180870 85.438316
v 69.196770 76.726181 82.332321
v 69.136520 76.740906 85.385605
v 68.865593 77.402290 79.016151
v 69.138962 77.515755 78.581619
v 69.130920 77.400032 79.081131
v 69.064362 77.301788 80.006653
v 69.066650 77.263748 81.006592
v 69.108284 77.125015 81.993141
v 69.053864 77.165558 85.218613
v 68.904709 78.008560 76.026398
v 69.185890 77.998184 75.521873
v 69.230721 77.870461 76.049950
v 69.166771 77.761696 77.014130
v 69.165138 77.631065 78.015579
v 69.102440 77.545052 84.929787
v 69.127602 77.939522 84.490562
v 69.135674 78.638893 74.062439
v 69.315216 78.616188 73.587181
v 69.277145 78.446358 74.042114
v 69.180382 78.247414 74.990189
v 68.954010 78.574615 75.019157
v 68.977211 78.423126 84.254082
v 69.048676 79.112930 74.052185
v 69.221832 79.113342 73.528931
v 68.825775 79.112152 74.990845
v 68.787964 79.003242 83.930214
v 69.058083 78.756470 83.939629
v 69.049866 79.012589 83.465225
v 69.086037 79.627541 74.071022
v 69.267250 79.655083 73.557961
v 68.861275 79.696526 75.014084
v 68.812775 79.615456 81.972588
v 69.109917 79.382759 82.007462
v 69.103615 79.622490 81.474091
v 69.025452 79.171738 82.958969
v 69.222900 79.943848 74.030777
v 69.090851 80.153877 75.037636
v 69.235107 80.195580 74.528000
v 68.928940 80.178513 75.992180
v 68.871719 80.242210 77.001259
v 68.868874 80.222260 78.985077
v 69.143639 80.124275 79.417244
v 69.131042 79.981857 79.975998
v 69.062248 79.759758 80.942543
v 69.275940 80.307533 75.034592
v 69.236382 80.354813 76.004044
v 69.218254 80.358437 77.026146
v 69.153038 80.384193 77.988556
v 69.146729 80.257294 78.902710
v 69.489311 74.507790 84.017784
v 69.781410 74.553383 83.565712
v 69.820862 74.389458 84.047318
v 69.837631 74.438721 84.925713
v 69.542297 74.560890 84.947433
v 69.845573 74.639915 85.188759
v 69.745209 75.153290 82.749741
v 69.729408 74.793732 83.078087
v 69.755928 75.039230 85.373871
v 69.735298 75.605797 82.571854
v 69.737160 75.597168 85.459724
v 69.728539 76.182625 82.524986
v 69.731819 76.176323 85.455544
v 69.725708 76.757141 82.544113
v 69.697617 76.696053 85.305313
v 69.377838 77.468536 79.021812
v 69.374908 77.447517 80.000481
v 69.379608 77.447380 81.020775
v 69.390160 77.436676 82.019905
v 69.630585 77.250381 82.550804
v 69.417061 77.315025 84.968636
v 69.774223 77.117065 84.995750
v 69.743362 77.366409 84.505768
v 69.476791 78.001747 75.019836
v 69.751366 77.983856 74.510643
v 69.812195 77.897186 75.052574
v 69.737907 77.797600 76.012398
v 69.722778 77.745651 77.000809
v 69.715729 77.724548 78.000443
v 69.709259 77.677536 78.960854
v 69.666351 77.695824 79.998459
v 69.618866 77.724518 80.977074
v 69.640366 77.972649 81.456230
v 69.525230 77.916115 82.007820
v 69.730957 77.635735 83.005928
v 69.590874 77.982132 82.971893
v 69.472771 77.952065 83.995743
v 69.726562 77.635361 83.992447
v 69.586975 78.615433 73.057594
v 69.801765 78.593300 72.527405
v 69.823181 78.435753 73.051727
v 69.705238 78.138504 73.982719
v 69.503418 78.522911 82.019753
v 69.673920 78.522697 81.476196
v 69.402245 78.509644 82.990936
v 69.226692 78.446022 83.924553
v 69.698708 79.179398 72.080170
v 69.855537 79.146721 71.555519
v 69.818657 78.863091 72.029350
v 69.438271 79.118034 73.002739
v 69.346359 79.061424 81.983200
v 69.586876 79.053650 81.423073
v 69.198479 78.990471 82.963501
v 69.695236 79.630966 72.078438
v 69.857620 79.659348 71.557487
v 69.441277 79.699821 73.014305
v 69.389603 79.621338 80.971794
v 69.651604 79.350471 80.961113
v 69.664696 79.616135 80.470055
v 69.802658 79.952248 72.027878
v 69.640114 80.190140 73.030609
v 69.789101 80.244324 72.518867
v 69.473976 80.223541 73.979866
v 69.427559 80.217041 78.985252
v 69.760704 80.076889 79.014343
v 69.717323 80.241066 78.490234
v 69.638084 79.772461 79.943794
v 69.845634 80.484627 73.041428
v 69.796722 80.416733 74.022659
v 69.752625 80.458733 75.006844
v 69.745682 80.465088 76.000656
v 69.728462 80.430328 76.987633
v 69.649773 80.332253 77.943504
v 70.323509 74.480743 83.527512
v 70.331978 74.323631 84.039818
v 70.335213 74.363701 84.930122
v 70.334602 74.581589 85.251930
v 70.320442 75.138580 82.728767
v 70.321503 74.775139 83.047333
v 70.328217 75.014931 85.464088
v 70.315742 75.603470 82.593712
v 70.316353 75.594215 85.532524
v 70.294075 76.156578 82.623657
v 70.322182 76.171120 85.454277
v 70.188492 76.651787 82.752975
v 70.313881 76.627663 85.268318
v 70.269737 76.992538 83.053024
v 69.973412 77.298744 83.024582
v 70.026978 77.363930 83.998795
v 70.361595 77.173302 84.016808
v 70.309059 76.943565 84.950447
v 70.043686 78.004890 74.017937
v 70.316856 78.099625 73.582771
v 70.309692 77.973679 74.077583
v 70.247261 77.891632 75.007645
v 70.234512 77.874603 76.000053
v 70.233261 77.863327 76.998970
v 70.191750 77.899529 77.972252
v 70.027092 77.944519 79.016075
v 70.235130 78.014313 78.474762
v 69.861641 78.007812 79.991821
v 69.762009 78.028366 80.949425
v 70.261208 78.648834 71.042931
v 70.418213 78.623474 70.534973
v 70.445976 78.491989 71.034203
v 70.386482 78.416306 72.024361
v 70.057381 78.586266 71.998177
v 70.338524 78.223564 73.019905
v 70.254097 78.266052 78.977798
v 70.220558 78.560791 79.452065
v 70.044510 78.513931 79.994263
v 69.835129 78.523796 80.948250
v 70.299423 79.189690 70.099678
v 70.535294 79.217728 69.810616
v 70.427086 78.884239 70.069977
v 70.043457 79.112160 71.019966
v 70.031967 79.099510 79.999146
v 70.244400 79.105988 79.470024
v 69.790550 79.038612 80.924118
v 70.258049 79.696541 70.083267
v 70.497292 79.695145 69.775246
v 70.025909 79.702934 71.007294
v 69.869736 79.596062 79.939636
v 70.136169 79.594910 79.402000
v 70.328514 80.181541 70.077446
v 70.540108 80.168747 69.814911
v 70.192329 80.210060 71.004074
v 70.012695 80.287628 71.975739
v 69.993599 80.223633 77.983292
v 70.286530 79.972046 78.006760
v 70.277359 80.211647 77.475288
v 70.188011 79.767776 78.954330
v 70.468468 80.462074 70.057343
v 70.383858 80.526405 71.006180
v 70.300362 80.593285 71.994080
v 70.137955 80.722633 72.993126
v 70.365128 80.796654 72.518806
v 70.368706 80.734428 73.442154
v 70.307022 80.604683 74.001190
v 70.309738 80.492073 74.991089
v 70.300392 80.450539 75.989624
v 70.232399 80.337669 76.948120
v 70.432747 80.853661 72.984985
v 70.906418 74.461304 83.519508
v 70.907066 74.293098 84.035965
v 70.908066 74.326500 84.940674
v 70.917320 74.551239 85.319275
v 70.903847 75.144325 82.747810
v 70.905975 74.765343 83.039902
v 70.879692 74.989265 85.608307
v 70.885239 75.586197 82.650932
v 70.859421 75.630241 85.656914
v 70.791008 76.056152 82.754440
v 70.905411 76.177094 85.500648
v 70.885605 76.451408 83.023338
v 70.583748 76.738922 83.037231
v 70.931503 76.757629 83.479881
v 70.899765 76.601875 85.253883
v 70.871292 76.942459 84.012878
v 70.886696 76.848885 84.930405
v 70.579094 78.017227 74.014343
v 70.593567 77.988182 74.999550
v 70.565247 78.007614 75.995705
v 70.542717 78.040077 77.007851
v 70.374809 78.065689 77.959900
v 70.676819 78.623932 70.065903
v 71.012703 78.737892 69.809204
v 70.984627 78.508202 70.094231
v 70.925690 78.360771 71.011017
v 70.914078 78.303673 72.002228
v 70.908302 78.245079 73.005165
v 70.929413 78.145988 73.982788
v 70.935287 78.143501 74.999649
v 70.876213 78.270622 75.978012
v 70.796661 78.308495 76.976242
v 70.791733 78.567490 77.446945
v 70.608574 78.522675 77.984802
v 70.374664 78.595634 78.927887
v 70.936394 79.141441 69.647331
v 70.641716 79.107025 78.008514
v 70.844353 79.108566 77.475349
v 70.417824 79.107246 78.947464
v 70.922287 79.696457 69.600624
v 70.515106 79.646317 77.981735
v 70.759613 79.640221 77.423378
v 70.329323 79.577995 78.936707
v 70.937744 80.248970 69.652435
v 70.560425 80.204788 76.971725
v 70.823570 79.935783 76.961777
v 70.816795 80.188026 76.468582
v 70.725952 80.719231 70.057152
v 71.019615 80.648209 69.814621
v 70.672012 80.786270 71.003845
v 70.628632 80.824120 72.000351
v 70.899391 80.592865 74.004852
v 70.902954 80.786720 73.469521
v 70.837082 80.387932 74.972160
v 70.780266 80.309662 75.963074
v 71.007790 80.853241 70.077255
v 70.992043 80.926727 71.003761
v 70.972450 80.920799 72.019348
v 70.911949 80.922356 72.961243
v 71.491890 74.458611 83.518219
v 71.492043 74.284790 84.035255
v 71.491966 74.305618 84.957260
v 71.474236 74.529610 85.461914
v 71.488098 75.141167 82.774185
v 71.491341 74.771950 83.046738
v 71.562218 74.862343 85.883453
v 71.325531 75.065910 85.887047
v 71.677658 75.176170 86.137123
v 71.450806 75.524506 82.742592
v 71.316589 75.542496 85.898155
v 71.674988 75.431084 86.143448
v 71.521477 75.957359 82.959793
v 71.206787 76.191818 82.991051
v 71.556664 76.304436 83.316101
v 71.553673 75.773621 85.898079
v 71.455734 76.182434 85.581467
v 71.422241 76.624451 83.689857
v 71.408905 76.562317 85.242439
v 71.396614 76.790108 84.056992
v 71.393585 76.758507 84.930397
v 71.489578 78.702904 69.781441
v 71.489349 78.480927 70.078545
v 71.480659 78.341492 71.004639
v 71.481537 78.322723 71.999771
v 71.475327 78.324654 72.993065
v 71.413139 78.406662 73.969139
v 71.355225 78.461266 74.966354
v 71.103149 78.570198 75.984413
v 71.333641 78.606186 75.422768
v 70.940414 78.612259 76.944550
v 71.479813 79.127754 69.622681
v 71.228615 79.112640 76.010414
v 71.424507 79.112534 75.474182
v 71.014160 79.110100 76.950783
v 71.481598 79.695946 69.577217
v 71.193382 79.696312 75.985497
v 71.371819 79.654594 75.441872
v 70.960327 79.624588 76.924225
v 71.479088 80.264206 69.624878
v 71.162613 80.212570 75.007286
v 71.417770 79.944977 74.967903
v 71.429649 80.220276 74.473312
v 70.965454 80.155342 75.960312
v 71.491005 80.688614 69.782021
v 71.407722 80.427742 73.945869
v 71.418617 80.699234 73.409027
v 71.490074 80.900642 70.077469
v 71.486412 80.988861 70.995026
v 71.424721 80.920021 71.974426
v 71.396599 80.870499 72.943413
v 72.075882 74.472260 83.525627
v 72.078018 74.287247 84.035599
v 72.077736 74.276451 84.967094
v 72.083206 74.449471 85.486145
v 72.062202 75.149216 82.797615
v 72.070389 74.790665 83.061722
v 72.087570 74.757736 85.964531
v 72.113968 75.127907 86.250786
v 72.059502 75.460808 82.786903
v 72.112259 75.475807 86.254257
v 72.067200 75.850441 83.033730
v 72.061676 76.235420 83.490150
v 72.086166 75.857010 85.974060
v 72.047714 76.234024 85.508217
v 72.101326 76.507530 84.007210
v 71.725159 76.664680 84.028908
v 71.721558 76.655899 84.965645
v 72.106880 76.511368 84.997078
v 71.883751 78.724724 69.856194
v 71.946632 78.552345 70.080620
v 71.988419 78.454819 71.003395
v 71.991104 78.449165 71.999077
v 71.942337 78.505402 72.961586
v 71.653069 78.610916 73.973457
v 71.910088 78.622719 73.414787
v 71.493279 78.646057 74.936844
v 71.930809 79.125259 69.758865
v 71.817787 79.114708 74.010872
v 72.053383 79.113754 73.488441
v 71.589699 79.112068 74.948082
v 71.947395 79.695869 69.729027
v 71.810455 79.689690 74.006126
v 72.049660 79.692978 73.485397
v 71.555283 79.627007 74.927734
v 71.930611 80.266579 69.758362
v 71.639748 80.196136 73.943031
v 71.918945 80.211510 73.412292
v 71.885445 80.668434 69.854408
v 71.768913 80.823425 71.997551
v 72.096436 80.592255 72.005669
v 72.033989 80.801765 71.480392
v 71.687027 80.741753 72.963547
v 71.966766 80.485405 72.963638
v 71.944412 80.836731 70.075874
v 71.970245 80.894852 70.969810
v 72.682098 74.533012 83.539833
v 72.664848 74.299049 84.042221
v 72.687630 74.252411 84.986839
v 72.637222 74.364929 85.539391
v 72.478912 75.177834 82.866310
v 72.593552 74.864700 83.118752
v 72.624413 74.628502 86.051361
v 72.654297 75.027901 86.489159
v 72.479858 75.425987 82.863823
v 72.647507 75.575333 86.489769
v 72.592522 75.741219 83.113373
v 72.684990 76.086884 83.530128
v 72.634880 75.969566 86.053261
v 72.632339 76.250992 85.540520
v 72.657104 76.361534 84.033142
v 72.686584 76.399109 84.991226
v 72.087517 78.666222 70.084961
v 72.293694 78.632416 70.989670
v 72.298767 78.629189 72.009987
v 72.108276 78.652679 72.936325
v 72.284073 79.105843 70.085785
v 72.514465 79.165764 70.571457
v 72.539604 78.907036 71.025993
v 72.540680 78.902748 71.974998
v 72.518539 79.154243 72.433434
v 72.306816 79.102585 72.947243
v 72.302956 79.696991 70.053520
v 72.577271 79.695686 70.539345
v 72.312378 79.705528 72.950661
v 72.516808 79.652122 72.430206
v 72.284988 80.287064 70.085442
v 72.521149 80.227043 70.564880
v 72.379776 80.282288 72.022392
v 72.591850 79.951164 71.971039
v 72.584183 80.233894 71.477646
v 72.148041 80.193481 72.945580
v 72.083786 80.724266 70.085876
v 72.522217 80.465210 71.006958
v 72.272270 80.735626 70.970055
v 73.237152 74.548248 83.680389
v 73.248444 74.316185 84.060707
v 73.255455 74.197433 84.999069
v 73.309418 74.308838 85.976402
v 72.946724 74.442833 86.032829
v 73.387192 74.417564 86.952293
v 73.211166 74.548286 86.935730
v 73.445328 74.539932 87.394966
v 72.830315 75.065773 83.113098
v 73.273399 74.990112 83.402390
v 72.986794 74.988495 86.950348
v 73.299339 75.014397 87.468361
v 72.829361 75.536613 83.116333
v 73.273041 75.610130 83.400749
v 72.987793 75.612984 86.950226
v 73.295105 75.588379 87.472313
v 73.241562 76.054016 83.676796
v 72.944527 76.168030 86.024750
v 73.208893 76.057335 86.933144
v 73.426865 76.072701 87.405769
v 73.245865 76.296074 84.057465
v 73.254425 76.413033 84.999191
v 73.308868 76.293312 85.978592
v 73.384888 76.190842 86.958015
v 72.668060 79.205086 71.051003
v 72.658173 79.196609 71.947723
v 72.715874 79.691795 71.037773
v 72.674522 79.627480 71.925537
v 72.654968 80.171822 71.014229
v 73.815483 74.586952 83.756050
v 73.821472 74.345741 84.073151
v 73.834618 74.194168 85.003136
v 73.844475 74.221184 85.997086
v 73.844437 74.309776 86.985100
v 73.929352 74.458504 87.890610
v 73.735100 74.543053 87.863594
v 74.012390 74.629349 88.127136
v 73.817444 75.017876 83.569618
v 73.624512 75.017998 87.933983
v 73.976524 75.023407 88.200821
v 73.814911 75.586098 83.568909
v 73.621712 75.585991 87.935669
v 73.977623 75.578026 88.198692
v 73.818764 76.018623 83.753937
v 73.716171 76.069771 87.873596
v 74.009209 75.974922 88.127213
v 73.822662 76.260757 84.071381
v 73.834717 76.409584 85.003006
v 73.844437 76.379166 85.997108
v 73.842705 76.293526 86.985802
v 73.922440 76.155289 87.894829
v 74.235878 74.622108 83.855721
v 74.319786 74.429443 84.105461
v 74.400108 74.252617 85.009949
v 74.404160 74.250671 85.992317
v 74.328392 74.375526 86.966415
v 74.295189 74.472824 87.917595
v 74.230759 74.629738 88.123184
v 74.278397 75.021637 83.749130
v 74.257210 75.024757 88.186371
v 74.277664 75.580841 83.749611
v 74.258255 75.577797 88.187630
v 74.240875 75.984398 83.852905
v 74.232903 75.974365 88.126907
v 74.326637 76.184631 84.100906
v 74.401108 76.351784 85.009300
v 74.403229 76.349586 85.991859
v 74.323723 76.219322 86.964699
v 74.294785 76.131943 87.918434
v 74.524498 74.538826 84.134773
v 74.812889 74.539055 84.604637
v 74.869263 74.413284 85.042046
v 74.891235 74.394775 85.965195
v 74.579514 74.518280 86.971100
v 74.898499 74.537628 86.413788
v 74.397293 74.564247 87.912872
v 74.635826 75.017578 84.062706
v 74.954536 75.015068 84.532967
v 74.788330 75.008133 87.026382
v 75.057220 75.013855 86.600594
v 74.505669 75.021477 87.921318
v 74.638657 75.586296 84.060905
v 74.959503 75.587944 84.528992
v 74.784462 75.593216 87.026375
v 75.054649 75.587646 86.598816
v 74.505539 75.580063 87.922302
v 74.543709 76.074669 84.124329
v 74.830505 76.072342 84.594124
v 74.567841 76.075714 86.969681
v 74.891861 76.057304 86.405937
v 74.398529 76.037971 87.914650
v 74.872231 76.195282 85.037582
v 74.888687 76.201050 85.961578
v 75.031441 74.556114 85.061264
v 75.177887 74.578072 85.958145
v 75.228477 75.000931 85.057671
v 75.417473 75.067818 85.575333
v 75.401726 74.856880 85.976303
v 75.377373 75.096764 86.235962
v 75.233582 75.601974 85.055077
v 75.431808 75.542877 85.568810
v 75.377419 75.507172 86.235847
v 75.034271 76.048691 85.061943
v 75.416359 75.755669 85.977234
v 75.185066 76.024422 85.958359
v 75.501213 75.109154 85.977982
v 75.505676 75.496284 85.975967
# 664 vertices, 0 vertices normals

f 3 2 1
f 5 4 1
f 1 4 3
f 5 6 4
f 1 2 7
f 7 2 8
f 1 9 5
f 1 7 9
f 6 5 10
f 10 5 9
f 13 12 11
f 13 11 8
f 11 7 8
f 11 14 7
f 7 15 9
f 7 14 15
f 10 9 16
f 16 9 15
f 11 12 17
f 17 12 18
f 11 19 14
f 11 17 19
f 14 20 15
f 14 19 20
f 16 15 21
f 21 15 20
f 18 22 17
f 17 22 19
f 19 22 23
f 19 23 20
f 20 23 24
f 20 24 21
f 27 26 25
f 29 28 25
f 25 28 27
f 29 30 28
f 25 26 3
f 26 2 3
f 26 31 2
f 25 3 4
f 25 4 29
f 4 6 29
f 6 30 29
f 6 32 30
f 35 34 33
f 37 36 33
f 33 36 35
f 31 36 37
f 8 31 37
f 2 31 8
f 10 32 6
f 10 38 32
f 41 40 39
f 41 39 34
f 39 33 34
f 39 42 33
f 42 12 13
f 37 42 13
f 33 42 37
f 37 13 8
f 16 38 10
f 16 43 38
f 39 40 44
f 44 40 45
f 39 46 42
f 39 44 46
f 46 18 12
f 46 12 42
f 21 43 16
f 21 47 43
f 44 45 48
f 48 45 49
f 44 50 46
f 44 48 50
f 51 22 18
f 46 51 18
f 50 51 46
f 52 23 22
f 52 22 51
f 53 24 23
f 53 23 52
f 53 54 24
f 54 21 24
f 54 47 21
f 49 55 48
f 48 55 50
f 50 55 56
f 50 56 51
f 51 56 57
f 51 57 52
f 52 57 58
f 52 58 53
f 53 58 59
f 53 59 54
f 62 61 60
f 64 63 60
f 60 63 62
f 64 65 63
f 60 61 27
f 61 26 27
f 61 66 26
f 60 27 28
f 60 28 64
f 68 67 30
f 30 67 28
f 67 65 28
f 65 64 28
f 68 69 67
f 66 31 26
f 70 31 66
f 32 71 68
f 32 68 30
f 69 68 72
f 72 68 71
f 75 74 73
f 34 35 73
f 35 75 73
f 35 76 75
f 77 35 36
f 77 76 35
f 36 31 70
f 36 70 77
f 38 78 71
f 38 71 32
f 72 71 79
f 79 71 78
f 82 81 80
f 82 80 74
f 74 80 73
f 80 40 73
f 40 41 73
f 73 41 34
f 43 83 78
f 43 78 38
f 79 78 84
f 84 78 83
f 87 86 85
f 87 85 81
f 85 80 81
f 85 88 80
f 88 45 40
f 88 40 80
f 90 89 83
f 43 90 83
f 47 90 43
f 83 89 84
f 85 86 91
f 91 86 92
f 85 93 88
f 85 91 93
f 93 49 45
f 93 45 88
f 54 90 47
f 54 94 90
f 91 92 95
f 95 92 96
f 91 97 93
f 91 95 97
f 98 55 49
f 93 98 49
f 97 98 93
f 99 56 55
f 99 55 98
f 100 57 56
f 100 56 99
f 57 100 101
f 102 57 101
f 58 57 102
f 58 103 59
f 102 103 58
f 54 59 94
f 94 59 103
f 96 104 95
f 95 104 97
f 97 104 105
f 97 105 98
f 98 105 106
f 98 106 99
f 99 106 107
f 99 107 100
f 100 107 108
f 100 108 101
f 111 110 109
f 109 112 111
f 114 113 62
f 62 113 61
f 63 109 110
f 114 63 110
f 62 63 114
f 116 115 65
f 65 115 63
f 115 112 63
f 112 109 63
f 116 117 115
f 113 66 61
f 118 66 113
f 67 116 65
f 67 69 116
f 69 117 116
f 69 119 117
f 118 70 66
f 120 70 118
f 72 119 69
f 72 121 119
f 123 122 75
f 75 122 74
f 124 75 76
f 124 123 75
f 125 76 77
f 125 124 76
f 77 70 120
f 77 120 125
f 79 121 72
f 79 126 121
f 129 128 127
f 131 130 127
f 127 130 129
f 81 82 131
f 82 130 131
f 82 132 130
f 82 74 122
f 82 122 132
f 135 134 133
f 134 126 133
f 126 84 133
f 126 79 84
f 138 137 136
f 138 136 128
f 136 127 128
f 136 139 127
f 139 86 87
f 131 139 87
f 127 139 131
f 131 87 81
f 135 133 89
f 90 135 89
f 140 135 90
f 89 133 84
f 136 137 141
f 141 137 142
f 136 143 139
f 136 141 143
f 143 92 86
f 143 86 139
f 94 140 90
f 94 144 140
f 141 142 145
f 145 142 146
f 141 147 143
f 141 145 147
f 147 96 92
f 147 92 143
f 149 148 102
f 149 102 101
f 102 150 103
f 148 150 102
f 94 103 144
f 144 103 150
f 146 151 145
f 145 151 147
f 147 151 152
f 152 154 153
f 152 153 104
f 147 152 104
f 96 147 104
f 104 153 155
f 156 104 155
f 105 104 156
f 105 157 106
f 156 157 105
f 106 158 107
f 157 158 106
f 107 159 108
f 158 159 107
f 101 108 149
f 149 108 159
f 154 160 153
f 153 160 155
f 163 162 161
f 110 111 161
f 111 163 161
f 111 164 163
f 166 165 112
f 165 111 112
f 165 164 111
f 166 167 165
f 161 162 114
f 162 113 114
f 162 168 113
f 161 114 110
f 115 166 112
f 115 117 166
f 117 167 166
f 117 169 167
f 168 118 113
f 170 118 168
f 119 169 117
f 119 171 169
f 170 120 118
f 172 120 170
f 121 171 119
f 121 173 171
f 176 175 174
f 122 123 174
f 123 176 174
f 123 177 176
f 178 123 124
f 178 177 123
f 179 124 125
f 179 178 124
f 125 120 172
f 125 172 179
f 126 173 121
f 126 180 173
f 183 182 181
f 128 129 181
f 129 183 181
f 129 184 183
f 185 129 130
f 185 184 129
f 132 174 175
f 185 132 175
f 130 132 185
f 174 132 122
f 187 186 134
f 187 134 135
f 126 134 180
f 180 134 186
f 190 189 188
f 192 191 188
f 188 191 190
f 191 192 182
f 182 192 181
f 192 137 181
f 137 138 181
f 181 138 128
f 140 187 135
f 140 193 187
f 188 189 194
f 194 189 195
f 188 196 192
f 188 194 196
f 196 142 137
f 196 137 192
f 199 198 197
f 198 193 197
f 193 144 197
f 193 140 144
f 194 195 200
f 200 195 201
f 194 202 196
f 194 200 202
f 202 146 142
f 202 142 196
f 205 204 203
f 148 149 203
f 204 148 203
f 206 148 204
f 197 150 199
f 150 206 199
f 150 148 206
f 150 197 144
f 201 207 200
f 209 208 207
f 208 200 207
f 208 202 200
f 210 151 146
f 202 210 146
f 208 210 202
f 211 152 151
f 211 151 210
f 211 154 152
f 155 212 156
f 156 212 213
f 214 156 213
f 157 156 214
f 157 215 158
f 214 215 157
f 203 159 205
f 159 215 205
f 159 158 215
f 159 203 149
f 209 216 208
f 208 216 210
f 210 216 217
f 210 217 211
f 211 217 218
f 211 218 154
f 218 160 154
f 218 219 160
f 155 160 212
f 160 220 212
f 160 219 220
f 212 220 213
f 223 222 221
f 225 224 221
f 221 224 223
f 225 226 224
f 228 227 163
f 163 227 162
f 164 221 222
f 228 164 222
f 163 164 228
f 221 164 165
f 221 165 225
f 165 167 225
f 167 226 225
f 167 229 226
f 227 168 162
f 230 168 227
f 169 229 167
f 169 231 229
f 230 170 168
f 232 170 230
f 171 231 169
f 171 233 231
f 232 172 170
f 234 172 232
f 173 233 171
f 173 235 233
f 236 175 176
f 177 237 176
f 176 237 236
f 178 238 177
f 177 238 237
f 179 239 178
f 178 239 238
f 240 239 179
f 172 240 179
f 234 240 172
f 243 242 241
f 242 235 241
f 235 180 241
f 235 173 180
f 246 245 244
f 182 183 244
f 183 246 244
f 183 247 246
f 248 183 184
f 248 247 183
f 249 184 185
f 249 248 184
f 185 175 236
f 250 185 236
f 249 185 250
f 250 236 237
f 250 237 251
f 251 237 238
f 251 238 252
f 254 253 252
f 238 254 252
f 239 254 238
f 239 240 255
f 256 239 255
f 254 239 256
f 258 257 256
f 258 256 255
f 257 258 243
f 257 243 241
f 187 257 241
f 186 187 241
f 186 241 180
f 261 260 259
f 189 190 259
f 190 261 259
f 190 262 261
f 191 244 245
f 262 191 245
f 190 191 262
f 244 191 182
f 253 254 263
f 253 263 264
f 265 254 256
f 263 254 265
f 266 256 257
f 265 256 266
f 193 266 187
f 187 266 257
f 269 268 267
f 269 267 260
f 267 259 260
f 267 270 259
f 270 195 189
f 270 189 259
f 264 263 271
f 264 271 272
f 273 263 265
f 271 263 273
f 199 273 198
f 273 266 198
f 273 265 266
f 198 266 193
f 267 268 274
f 274 268 275
f 267 276 270
f 267 274 276
f 276 201 195
f 276 195 270
f 279 278 277
f 277 278 272
f 277 272 271
f 205 277 271
f 204 205 271
f 204 271 206
f 206 271 273
f 206 273 199
f 275 280 274
f 282 281 280
f 281 274 280
f 281 276 274
f 283 207 201
f 276 283 201
f 281 283 276
f 283 209 207
f 286 285 284
f 214 213 284
f 285 214 284
f 287 214 285
f 277 215 279
f 215 287 279
f 215 214 287
f 215 277 205
f 282 288 281
f 281 288 283
f 283 288 289
f 283 289 209
f 289 216 209
f 289 290 216
f 216 291 217
f 290 291 216
f 217 292 218
f 291 292 217
f 218 293 219
f 292 293 218
f 284 220 286
f 220 293 286
f 220 219 293
f 220 284 213
f 295 294 223
f 223 294 222
f 296 223 224
f 296 295 223
f 224 226 296
f 296 226 297
f 299 298 228
f 228 298 227
f 228 222 294
f 228 294 299
f 229 297 226
f 229 300 297
f 298 230 227
f 301 230 298
f 231 300 229
f 231 302 300
f 301 232 230
f 303 232 301
f 233 302 231
f 233 304 302
f 303 234 232
f 305 234 303
f 235 304 233
f 235 306 304
f 308 240 307
f 240 305 307
f 240 234 305
f 310 309 308
f 310 308 307
f 242 243 309
f 310 242 309
f 311 242 310
f 235 242 306
f 306 242 311
f 314 313 312
f 245 246 312
f 246 314 312
f 246 315 314
f 316 246 247
f 316 315 246
f 317 247 248
f 317 316 247
f 318 248 249
f 318 317 248
f 320 318 319
f 318 250 319
f 318 249 250
f 251 321 250
f 250 321 319
f 252 322 251
f 251 322 321
f 253 322 252
f 308 255 240
f 255 308 258
f 258 308 309
f 258 309 243
f 325 324 323
f 327 326 323
f 323 326 325
f 260 261 327
f 261 326 327
f 261 328 326
f 262 312 313
f 328 262 313
f 261 262 328
f 312 262 245
f 329 320 319
f 331 330 329
f 319 331 329
f 321 331 319
f 332 321 322
f 331 321 332
f 264 332 253
f 253 332 322
f 335 334 333
f 335 333 324
f 333 323 324
f 333 336 323
f 336 268 269
f 327 336 269
f 323 336 327
f 327 269 260
f 330 331 337
f 330 337 338
f 339 331 332
f 337 331 339
f 272 339 264
f 264 339 332
f 333 334 340
f 340 334 341
f 333 342 336
f 333 340 342
f 342 275 268
f 342 268 336
f 338 337 343
f 338 343 344
f 279 343 278
f 343 339 278
f 343 337 339
f 278 339 272
f 340 341 345
f 345 341 346
f 340 347 342
f 340 345 347
f 348 280 275
f 342 348 275
f 347 348 342
f 348 282 280
f 351 350 349
f 285 286 349
f 350 285 349
f 352 285 350
f 343 287 344
f 287 352 344
f 287 285 352
f 287 343 279
f 346 353 345
f 345 353 347
f 347 353 354
f 347 354 348
f 348 354 355
f 355 357 356
f 355 356 288
f 348 355 288
f 282 348 288
f 288 356 358
f 359 288 358
f 289 288 359
f 289 360 290
f 359 360 289
f 290 361 291
f 360 361 290
f 291 362 292
f 361 362 291
f 349 293 351
f 293 362 351
f 293 292 362
f 293 349 286
f 357 363 356
f 356 363 358
f 365 364 295
f 295 364 294
f 366 295 296
f 366 365 295
f 296 297 366
f 366 297 367
f 369 368 299
f 299 368 298
f 299 294 364
f 299 364 369
f 300 367 297
f 300 370 367
f 368 301 298
f 371 301 368
f 302 370 300
f 302 372 370
f 371 303 301
f 373 303 371
f 304 372 302
f 304 374 372
f 376 305 375
f 305 373 375
f 305 303 373
f 377 376 375
f 306 374 304
f 306 378 374
f 376 307 305
f 377 379 376
f 379 307 376
f 379 310 307
f 310 380 311
f 379 380 310
f 306 311 378
f 378 311 380
f 381 313 314
f 315 382 314
f 314 382 381
f 316 383 315
f 315 383 382
f 317 384 316
f 316 384 383
f 318 385 317
f 317 385 384
f 320 385 318
f 388 387 386
f 324 325 386
f 325 388 386
f 325 389 388
f 390 325 326
f 390 389 325
f 391 326 328
f 391 390 326
f 328 313 381
f 392 328 381
f 391 328 392
f 392 381 382
f 392 382 393
f 393 382 383
f 393 383 394
f 394 383 384
f 394 384 395
f 397 396 395
f 384 397 395
f 385 397 384
f 329 398 320
f 398 385 320
f 398 397 385
f 330 398 329
f 386 387 335
f 387 334 335
f 387 399 334
f 386 335 324
f 396 397 400
f 396 400 401
f 402 397 398
f 400 397 402
f 338 402 330
f 330 402 398
f 399 341 334
f 403 341 399
f 401 400 404
f 401 404 405
f 406 400 402
f 404 400 406
f 344 406 338
f 338 406 402
f 403 346 341
f 407 346 403
f 410 409 408
f 408 409 405
f 408 405 404
f 351 408 404
f 350 351 404
f 350 404 352
f 352 404 406
f 352 406 344
f 353 346 411
f 346 412 411
f 346 407 412
f 413 354 353
f 413 353 411
f 414 355 354
f 414 354 413
f 414 357 355
f 416 415 359
f 416 359 358
f 359 417 360
f 415 417 359
f 360 418 361
f 417 418 360
f 408 362 410
f 362 418 410
f 362 361 418
f 362 408 351
f 412 419 411
f 411 419 413
f 413 419 420
f 413 420 414
f 414 420 421
f 414 421 357
f 421 363 357
f 421 422 363
f 358 363 416
f 416 363 422
f 424 423 365
f 365 423 364
f 425 365 366
f 425 424 365
f 366 367 425
f 425 367 426
f 428 427 369
f 369 427 368
f 369 364 423
f 369 423 428
f 370 430 429
f 426 370 429
f 367 370 426
f 430 431 429
f 427 371 368
f 432 371 427
f 372 433 430
f 372 430 370
f 431 430 434
f 434 430 433
f 436 373 435
f 373 432 435
f 373 371 432
f 437 436 435
f 439 438 433
f 372 439 433
f 374 439 372
f 433 438 434
f 436 375 373
f 377 375 436
f 437 377 436
f 440 377 437
f 378 439 374
f 378 441 439
f 440 442 377
f 377 442 379
f 379 443 380
f 442 443 379
f 378 380 441
f 441 380 443
f 445 444 388
f 388 444 387
f 446 388 389
f 446 445 388
f 447 389 390
f 447 446 389
f 448 390 391
f 448 447 390
f 449 391 392
f 449 448 391
f 450 392 393
f 450 449 392
f 452 450 451
f 450 394 451
f 450 393 394
f 395 453 394
f 394 453 451
f 396 453 395
f 444 399 387
f 454 399 444
f 452 451 455
f 452 455 456
f 457 451 453
f 455 451 457
f 401 457 396
f 396 457 453
f 454 403 399
f 458 403 454
f 456 455 459
f 456 459 460
f 461 455 457
f 459 455 461
f 405 461 401
f 401 461 457
f 458 407 403
f 462 407 458
f 465 464 463
f 463 464 460
f 459 463 460
f 466 463 459
f 410 466 409
f 466 461 409
f 466 459 461
f 409 461 405
f 462 412 407
f 467 412 462
f 469 468 415
f 469 415 416
f 463 417 465
f 417 468 465
f 417 415 468
f 417 463 418
f 418 463 466
f 418 466 410
f 467 470 412
f 412 470 419
f 419 471 420
f 470 471 419
f 420 472 421
f 471 472 420
f 421 473 422
f 472 473 421
f 416 422 469
f 469 422 473
f 475 474 424
f 424 474 423
f 476 424 425
f 476 475 424
f 425 426 476
f 476 426 477
f 479 478 428
f 428 478 427
f 428 423 474
f 428 474 479
f 480 477 426
f 480 426 429
f 429 431 480
f 480 431 481
f 478 432 427
f 482 432 478
f 434 481 431
f 434 483 481
f 482 484 432
f 432 484 435
f 437 435 484
f 437 484 485
f 487 486 438
f 487 438 439
f 434 438 483
f 483 438 486
f 489 440 488
f 440 485 488
f 440 437 485
f 491 490 489
f 491 489 488
f 491 487 490
f 487 441 490
f 487 439 441
f 489 442 440
f 442 489 443
f 443 489 490
f 443 490 441
f 493 492 445
f 445 492 444
f 494 445 446
f 494 493 445
f 495 446 447
f 495 494 446
f 496 447 448
f 496 495 447
f 498 496 497
f 496 449 497
f 496 448 449
f 450 499 449
f 449 499 497
f 452 499 450
f 492 454 444
f 500 454 492
f 498 497 501
f 498 501 502
f 503 497 499
f 501 497 503
f 456 503 452
f 452 503 499
f 500 458 454
f 504 458 500
f 502 501 505
f 502 505 506
f 507 501 503
f 505 501 507
f 460 507 456
f 456 507 503
f 504 462 458
f 508 462 504
f 506 505 509
f 506 509 510
f 465 509 464
f 509 507 464
f 509 505 507
f 464 507 460
f 508 467 462
f 511 467 508
f 514 513 512
f 516 515 512
f 516 512 513
f 515 516 510
f 515 510 509
f 469 515 509
f 468 469 509
f 468 509 465
f 511 517 467
f 467 517 470
f 470 518 471
f 517 518 470
f 512 472 514
f 472 518 514
f 472 471 518
f 472 512 473
f 473 512 515
f 473 515 469
f 520 519 475
f 475 519 474
f 521 475 476
f 521 520 475
f 476 477 521
f 521 477 522
f 524 523 479
f 479 523 478
f 479 474 519
f 479 519 524
f 525 522 477
f 525 477 480
f 480 481 525
f 525 481 526
f 523 482 478
f 527 482 523
f 483 526 481
f 483 528 526
f 527 529 482
f 482 529 484
f 485 484 529
f 485 529 530
f 532 531 486
f 532 486 487
f 483 486 528
f 528 486 531
f 530 533 485
f 485 533 488
f 488 534 491
f 533 534 488
f 487 491 532
f 532 491 534
f 535 492 493
f 494 536 493
f 493 536 535
f 495 537 494
f 494 537 536
f 496 538 495
f 495 538 537
f 498 538 496
f 539 500 535
f 535 500 492
f 536 541 540
f 539 536 540
f 535 536 539
f 541 536 537
f 541 537 542
f 544 543 542
f 537 544 542
f 538 544 537
f 502 544 498
f 498 544 538
f 545 504 539
f 539 504 500
f 539 540 546
f 539 546 545
f 543 544 547
f 543 547 548
f 506 547 502
f 502 547 544
f 549 508 545
f 545 508 504
f 545 546 550
f 545 550 549
f 553 552 551
f 551 552 548
f 547 551 548
f 554 551 547
f 510 554 506
f 506 554 547
f 555 511 549
f 549 511 508
f 549 550 556
f 557 549 556
f 555 549 557
f 557 556 553
f 557 553 551
f 514 557 551
f 513 514 551
f 513 551 516
f 516 551 554
f 516 554 510
f 555 517 511
f 517 555 518
f 518 555 557
f 518 557 514
f 559 558 520
f 520 558 519
f 560 520 521
f 560 559 520
f 562 561 522
f 561 521 522
f 561 560 521
f 564 563 562
f 562 563 561
f 564 565 563
f 566 523 524
f 567 566 524
f 519 567 524
f 558 567 519
f 525 562 522
f 562 525 526
f 568 562 526
f 564 562 568
f 565 564 569
f 569 564 568
f 570 527 566
f 566 527 523
f 566 567 571
f 566 571 570
f 528 572 568
f 528 568 526
f 569 568 573
f 573 568 572
f 570 529 527
f 530 529 570
f 571 530 570
f 574 530 571
f 532 575 531
f 572 528 531
f 575 572 531
f 576 572 575
f 573 572 577
f 577 572 576
f 574 578 530
f 530 578 533
f 533 579 534
f 578 579 533
f 532 534 575
f 534 580 575
f 534 579 580
f 575 580 576
f 576 580 581
f 576 581 577
f 582 540 541
f 542 583 541
f 541 583 582
f 543 583 542
f 584 546 582
f 582 546 540
f 585 582 583
f 584 582 585
f 548 585 543
f 543 585 583
f 586 550 584
f 584 550 546
f 553 586 552
f 586 585 552
f 586 584 585
f 552 585 548
f 586 556 550
f 556 586 553
f 588 587 559
f 559 587 558
f 589 559 560
f 589 588 559
f 590 560 561
f 590 589 560
f 591 561 563
f 591 590 561
f 593 592 565
f 592 563 565
f 592 591 563
f 593 594 592
f 587 567 558
f 595 567 587
f 569 596 593
f 569 593 565
f 594 593 597
f 597 593 596
f 595 571 567
f 598 571 595
f 573 599 596
f 573 596 569
f 597 596 600
f 600 596 599
f 598 574 571
f 601 574 598
f 577 602 599
f 577 599 573
f 600 599 603
f 603 599 602
f 601 604 574
f 574 604 578
f 578 605 579
f 604 605 578
f 579 606 580
f 605 606 579
f 580 607 581
f 606 607 580
f 577 581 602
f 581 608 602
f 581 607 608
f 602 608 603
f 610 609 588
f 588 609 587
f 611 588 589
f 611 610 588
f 612 589 590
f 612 611 589
f 613 590 591
f 613 612 590
f 614 591 592
f 614 613 591
f 592 594 614
f 614 594 615
f 609 595 587
f 616 595 609
f 597 615 594
f 597 617 615
f 616 598 595
f 618 598 616
f 600 617 597
f 600 619 617
f 618 601 598
f 620 601 618
f 603 619 600
f 603 621 619
f 620 622 601
f 601 622 604
f 604 623 605
f 622 623 604
f 605 624 606
f 623 624 605
f 606 625 607
f 624 625 606
f 607 626 608
f 625 626 607
f 603 608 621
f 621 608 626
f 627 609 610
f 627 610 628
f 610 629 628
f 610 611 629
f 630 611 612
f 630 629 611
f 632 630 631
f 630 613 631
f 630 612 613
f 614 633 613
f 613 633 631
f 615 633 614
f 634 616 627
f 627 616 609
f 627 628 635
f 627 635 634
f 632 631 636
f 632 636 637
f 638 631 633
f 636 631 638
f 617 638 615
f 615 638 633
f 639 618 634
f 634 618 616
f 634 635 640
f 634 640 639
f 637 636 641
f 637 641 642
f 643 636 638
f 641 636 643
f 619 643 617
f 617 643 638
f 644 620 639
f 639 620 618
f 639 640 645
f 639 645 644
f 642 641 646
f 642 646 647
f 648 641 643
f 646 641 648
f 621 648 619
f 619 648 643
f 644 622 620
f 645 649 644
f 649 622 644
f 649 623 622
f 623 650 624
f 649 650 623
f 646 625 647
f 625 650 647
f 625 624 650
f 625 646 626
f 626 646 648
f 626 648 621
f 651 628 629
f 630 652 629
f 629 652 651
f 632 652 630
f 653 635 651
f 651 635 628
f 652 655 654
f 653 652 654
f 651 652 653
f 652 632 655
f 632 656 655
f 632 637 656
f 657 640 653
f 653 640 635
f 653 654 658
f 653 658 657
f 642 656 637
f 642 659 656
f 660 645 657
f 657 645 640
f 657 658 661
f 662 657 661
f 660 657 662
f 661 659 662
f 659 647 662
f 659 642 647
f 660 649 645
f 649 660 650
f 650 660 662
f 650 662 647
f 663 654 655
f 656 663 655
f 664 658 663
f 663 658 654
f 659 664 656
f 656 664 663
f 664 661 658
f 661 664 659
# 1324 faces, 0 coords texture

# End of File