####
#
# OBJ File Generated by Meshlab
#
####
# Object Volume_242.obj
#
# Vertices: 334
# Faces: 680
#
####
v 88.763702 112.226440 131.923981
v 102.647995 125.799576 122.173759
v 90.509544 110.681664 127.361549
v 96.327248 121.588287 118.995323
v 104.539101 122.864639 131.337555
v 101.292290 126.181717 128.277222
v 98.879791 129.267136 125.219559
v 96.149094 115.446053 128.139587
v 93.827583 113.743408 131.313873
v 87.776627 112.146866 127.590332
v 87.474579 109.441765 130.992218
v 91.137726 125.022926 124.315147
v 99.140709 124.323936 132.083527
v 94.057137 113.380180 128.005966
v 92.293152 128.799438 125.818184
v 87.176323 112.117111 131.171234
v 90.727974 115.266174 124.502823
v 89.791695 118.538124 122.505630
v 92.557205 121.380852 131.668777
v 89.012329 112.320618 126.745735
v 91.873085 122.510597 120.135620
v 103.973518 127.912704 123.952347
v 96.920288 118.745392 132.125839
v 94.978729 125.010399 131.318924
v 90.332893 122.971230 126.547569
v 91.906013 120.191780 119.217674
v 103.273506 125.043175 128.351562
v 99.086266 121.247192 124.386604
v 94.776642 132.078262 122.819534
v 91.550751 122.805588 130.436768
v 101.509613 129.575546 119.247719
v 86.486740 111.379951 129.757660
v 99.382584 124.848534 119.320137
v 91.408218 124.880409 128.841690
v 99.067848 126.406342 128.148468
v 96.372849 123.942047 131.985550
v 94.036423 128.337601 120.995811
v 101.600212 129.535660 119.243492
v 100.915291 121.192642 126.302086
v 93.830589 130.739563 125.066307
v 92.830597 114.641708 125.542770
v 100.775932 125.405960 120.137421
v 90.204117 120.142860 130.177399
v 98.792145 123.102341 119.763596
v 93.595505 129.347412 122.474564
v 95.074554 126.265877 130.345154
v 86.429459 110.470840 129.639221
v 99.039185 123.039742 132.261292
v 86.391281 110.650909 130.817627
v 99.563789 130.301392 122.504936
v 88.996170 110.647469 127.255096
v 99.009041 126.189392 130.572342
v 92.138298 124.591385 130.226395
v 94.065277 131.548279 124.431984
v 95.051491 122.828133 132.064117
v 91.475319 118.062111 131.909271
v 106.544891 126.317764 130.357620
v 102.895447 123.400963 126.426552
v 96.986168 121.005417 132.304245
v 97.621323 124.079475 132.079697
v 100.232529 119.741539 131.037827
v 94.794159 130.860046 125.160034
v 95.084610 114.358139 129.049179
v 92.023209 127.397217 126.377434
v 91.609146 124.792900 122.426422
v 91.054115 123.012459 122.127007
v 87.641220 114.436073 129.068619
v 100.425644 123.541473 121.863815
v 102.426605 122.137840 131.797363
v 97.057823 127.528969 127.224098
v 94.571205 116.954353 124.725128
v 86.920891 108.104897 128.237869
v 91.429977 115.642288 123.965393
v 93.679955 115.790985 125.062508
v 94.243210 125.850006 119.330788
v 100.212708 127.710396 119.055328
v 90.627808 112.532120 131.839722
v 97.828201 126.534103 127.826393
v 94.936340 118.666168 132.250763
v 98.796875 125.388412 118.936440
v 92.551636 117.606544 120.566444
v 101.594131 122.562752 125.389969
v 101.053459 129.657776 121.865585
v 96.982849 125.068710 131.592865
v 94.800545 132.179245 123.732445
v 99.113174 129.951355 124.429886
v 94.561592 123.506989 131.895294
v 96.693558 131.004410 124.287849
v 97.167412 118.469330 125.349609
v 92.600220 112.677528 126.905365
v 86.908089 108.095886 128.298264
v 90.504753 121.114220 121.854927
v 94.947525 120.990219 118.868576
v 94.471390 115.521507 131.755569
v 89.727715 120.891144 124.397606
v 96.578850 119.516113 121.706482
v 94.421394 129.630890 121.355713
v 91.877258 113.265717 131.814636
v 87.726494 113.753181 130.582596
v 96.855621 116.738396 126.531425
v 105.283569 123.676826 131.466660
v 95.185738 118.388428 122.166008
v 89.223167 116.361198 130.874420
v 106.266670 126.090164 130.395508
v 98.993027 127.480530 118.789528
v 90.096077 121.589760 128.926437
v 96.984802 131.648758 120.911186
v 92.893929 127.421982 121.954071
v 93.117752 124.898331 130.823685
v 91.329742 118.811317 120.235832
v 103.384079 123.039963 128.935699
v 103.293549 127.025185 121.893883
v 95.126205 128.021820 127.426010
v 106.587341 126.355209 130.322006
v 102.119186 122.126610 126.853600
v 91.124886 125.170197 126.491722
v 87.663406 109.308952 132.100037
v 98.051804 117.601334 126.837715
v 103.102638 128.405334 124.221161
v 103.360420 127.827148 121.400337
v 92.808907 129.550034 124.332405
v 103.117134 126.084404 130.118378
v 98.991295 129.437729 118.935860
v 104.373360 123.706360 129.945587
v 100.875336 129.264816 124.199242
v 105.202553 126.110725 130.464035
v 99.185822 120.467209 125.312958
v 99.244965 118.326309 129.015244
v 92.761337 114.701614 131.933716
v 100.821884 128.747589 125.104942
v 96.994621 126.190910 130.464920
v 94.955902 123.058250 118.829880
v 103.007172 127.099197 125.523186
v 101.884697 126.351768 120.636261
v 101.103340 127.527184 126.132454
v 93.020660 126.872559 128.771149
v 89.421242 109.662773 129.856293
v 88.211685 113.232666 131.563690
v 101.462120 120.714584 128.971085
v 90.833656 114.101768 125.476738
v 89.932396 116.750664 122.714607
v 101.580147 129.571396 119.294716
v 101.053215 126.318459 129.699463
v 90.373131 118.833366 121.421326
v 93.957596 113.539062 129.949646
v 98.271080 130.389694 124.196632
v 95.743515 117.520447 125.044685
v 93.107368 116.149345 124.255775
v 94.116211 117.719826 121.346420
v 101.094307 127.380684 119.534645
v 96.980873 123.041534 132.259445
v 93.611214 126.092979 130.139816
v 90.659035 110.313515 128.967285
v 86.839836 108.039780 128.625000
v 89.746414 109.424103 128.180374
v 90.987244 116.455856 132.024506
v 92.892960 116.627663 132.167114
v 99.004333 121.046112 132.198349
v 93.835411 130.599350 123.218338
v 104.686539 125.242470 130.068405
v 97.031982 127.429268 118.802269
v 98.554169 121.562218 121.717224
v 97.718498 122.540169 119.209747
v 90.861717 114.562614 132.064178
v 96.968941 125.122032 118.767998
v 89.406105 118.757973 124.462341
v 98.000183 117.749283 131.305527
v 98.852654 118.786255 126.528435
v 89.124084 118.587967 126.561790
v 88.143227 115.966972 128.971298
v 88.740570 116.528313 126.752182
v 99.526245 122.561043 122.151054
v 95.464149 117.941887 124.170158
v 92.926941 119.184578 119.135170
v 92.887253 118.666626 132.185349
v 89.212234 118.610802 128.896469
v 91.663002 111.476982 127.302849
v 99.747902 123.897881 120.251633
v 97.940437 130.230835 119.284439
v 90.654991 122.953110 128.909027
v 98.130142 119.816963 125.003815
v 96.914902 123.108871 118.782364
v 89.577576 120.513138 126.341270
v 105.468933 123.901779 131.369461
v 95.464172 127.122116 119.174927
v 89.834343 109.602318 127.894165
v 91.568398 120.892387 119.852448
v 93.757713 126.823608 120.238243
v 94.648613 127.574623 119.663948
v 97.714684 120.010834 124.193954
v 99.037079 118.545654 131.061829
v 88.747360 114.482460 126.419205
v 108.116989 126.868996 131.000000
v 90.322533 116.789490 131.685944
v 95.925499 115.599915 126.732620
v 93.299942 120.656113 132.017227
v 100.378075 119.582657 128.600296
v 90.693939 116.005127 121.317993
v 88.877594 110.100029 131.313492
v 90.981453 111.903809 131.273911
v 97.246811 116.432487 129.080215
v 93.845390 113.781029 131.326309
v 91.582535 111.435974 129.715958
v 99.326790 126.589371 127.516411
v 102.488533 128.331009 124.826973
v 99.027420 126.438591 129.630890
v 89.829910 118.318947 130.525681
v 93.766258 113.710480 131.329147
v 90.680641 116.041656 121.003555
v 95.003952 116.530769 125.398170
v 94.787895 132.217361 123.805016
v 87.575439 110.097389 131.806076
v 95.970016 115.486038 130.043793
v 103.915207 127.888939 122.495071
v 90.075027 110.934776 131.149460
v 90.701683 115.991058 121.465332
v 90.009163 121.866943 124.504143
v 90.716438 116.038391 121.406250
v 91.818398 111.340889 128.027237
v 94.822533 114.690971 126.524223
v 92.336304 125.433067 121.461967
v 105.315056 123.579872 131.434433
v 93.890068 124.522942 119.184120
v 89.812317 121.349594 126.543549
v 98.170982 117.324814 128.076889
v 92.815819 118.378891 119.691238
v 101.333817 120.878586 131.102112
v 97.000412 131.684433 121.136658
v 94.927475 118.987556 119.764938
v 104.974632 126.071083 130.410782
v 103.880592 126.222244 124.954468
v 96.979004 131.636337 120.829445
v 103.103737 125.118958 131.539383
v 88.433311 116.709656 129.005722
v 97.720062 126.481323 128.117676
v 92.803726 116.819809 122.109123
v 96.965553 129.342941 125.833908
v 94.093590 113.612122 126.918755
v 103.113495 124.069283 131.920578
v 87.671852 109.307236 132.109390
v 97.469093 120.385994 122.082703
v 99.768745 122.055733 123.962875
v 104.249092 122.625114 131.376846
v 98.756104 130.755875 121.556343
v 93.019264 129.206253 126.025230
v 89.523651 114.211098 131.786270
v 102.495209 121.713600 128.937454
v 88.407478 109.413940 128.028931
v 100.976822 124.317863 132.056152
v 92.122711 126.303436 128.412140
v 97.403015 120.417175 119.632652
v 95.434448 129.257004 120.018929
v 89.359100 116.681671 124.638237
v 103.394249 123.916435 127.029068
v 95.029007 127.090065 128.968811
v 103.174873 123.077766 131.927307
v 94.965614 120.975983 132.295197
v 90.893517 118.812286 131.396118
v 101.476860 124.695663 121.979424
v 94.968185 125.109970 118.885139
v 87.702049 110.267548 127.908371
v 92.241158 127.765411 123.749405
v 92.905220 112.354980 128.963943
v 98.662628 119.153854 131.778152
v 91.871521 119.598083 119.284431
v 102.620598 127.865730 120.598663
v 95.906792 130.544525 120.613632
v 88.475548 109.014938 129.001312
v 88.570312 114.634827 131.205429
v 90.467270 123.135956 124.436539
v 90.134285 116.079987 122.949959
v 104.592247 124.018021 131.726501
v 92.308105 129.033661 125.086815
v 105.456039 123.899414 131.372650
v 103.119904 126.034355 130.687210
v 104.100914 127.411987 124.261894
v 101.459778 126.384949 127.277130
v 100.811073 121.317528 131.887115
v 94.141449 118.141632 120.355606
v 96.488792 129.837418 119.498596
v 96.855919 126.660866 129.197327
v 93.146744 125.021767 119.888535
v 97.479065 120.495056 119.630028
v 89.939034 120.414619 122.945259
v 101.062607 123.059814 132.154144
v 93.321098 122.927597 119.157028
v 93.215897 127.925041 127.248299
v 93.842690 131.238739 124.485870
v 94.780403 132.201569 123.616837
v 86.430870 111.131271 130.726761
v 99.744911 120.005974 131.726151
v 97.501144 120.377319 119.681702
v 88.020691 109.401779 131.083221
v 91.041794 120.839798 130.807495
v 94.946304 129.532745 126.053337
v 86.715065 109.856323 128.941193
v 95.732094 120.253365 119.262749
v 88.008842 113.773193 127.465866
v 102.447342 123.821144 125.028366
v 96.791275 119.029053 124.400444
v 97.142319 129.407928 119.062508
v 99.945724 119.771866 126.812454
v 94.838776 116.717323 132.076279
v 98.697052 130.183853 119.267403
v 96.618835 130.455414 124.931511
v 101.017075 123.001526 124.295013
v 87.008789 112.254021 129.031815
v 87.729469 111.422485 131.713043
v 105.264221 123.571869 131.452957
v 103.111671 125.206146 124.436981
v 101.010361 126.105469 130.700699
v 90.762154 112.425850 126.388969
v 103.861847 126.878708 124.851959
v 103.932068 125.083412 126.341461
v 103.975136 125.081291 126.334229
v 98.206947 123.843811 119.100044
v 96.701256 116.712502 131.028671
v 92.467667 123.276367 119.784897
v 86.883087 110.229103 131.212189
v 101.181610 125.303680 131.588028
v 93.021889 122.946747 131.428696
v 99.001877 127.628662 126.527924
v 91.764114 127.042145 124.665504
v 89.807098 120.698494 128.957794
v 89.721931 115.525543 124.908966
v 102.818367 128.623703 121.858086
v 101.983871 124.213394 123.752930
v 92.934647 120.996902 119.084908
v 98.969505 125.273300 131.586075
v 96.356339 117.240913 131.696503
v 103.843781 128.132126 122.401314
v 88.382736 110.494812 131.737198
v 94.317841 119.595772 119.185944
v 98.707123 130.499710 119.782013
# 334 vertices, 0 vertices normals

f 311 275 233
f 73 148 198
f 20 192 298
f 43 294 258
f 160 104 230
f 7 130 135
f 144 110 92
f 173 89 300
f 234 176 207
f 90 263 14
f 101 309 222
f 239 272 309
f 56 258 175
f 161 105 301
f 136 287 113
f 53 250 152
f 117 293 240
f 332 77 215
f 169 183 324
f 53 109 321
f 35 6 143
f 307 10 67
f 87 151 55
f 128 197 302
f 305 237 62
f 148 71 173
f 199 215 137
f 271 141 253
f 319 212 11
f 56 156 194
f 219 263 90
f 47 319 296
f 56 194 258
f 168 302 127
f 86 125 130
f 245 295 113
f 172 242 306
f 118 168 89
f 258 294 196
f 290 47 32
f 87 24 84
f 55 196 321
f 101 222 274
f 113 295 70
f 111 27 254
f 121 159 288
f 34 180 25
f 239 233 272
f 306 58 299
f 130 125 205
f 278 243 227
f 214 331 120
f 150 31 76
f 177 3 219
f 79 196 257
f 214 22 331
f 249 239 256
f 103 269 67
f 35 143 206
f 246 138 269
f 117 332 199
f 131 206 52
f 295 62 237
f 170 192 171
f 155 153 186
f 158 278 291
f 108 45 262
f 157 175 303
f 88 85 232
f 232 334 244
f 289 29 211
f 225 201 128
f 334 38 83
f 40 289 62
f 116 34 25
f 72 154 91
f 237 7 322
f 323 262 273
f 256 309 101
f 230 104 114
f 315 133 314
f 208 202 9
f 315 314 27
f 162 28 172
f 223 132 260
f 187 110 265
f 21 328 286
f 243 5 101
f 143 27 122
f 116 64 250
f 263 145 63
f 51 186 3
f 135 133 315
f 61 278 227
f 105 76 123
f 13 249 285
f 136 113 255
f 102 96 251
f 21 286 318
f 64 15 245
f 48 285 278
f 314 313 231
f 95 183 166
f 163 283 44
f 236 173 102
f 16 308 319
f 183 106 324
f 90 41 140
f 232 107 334
f 198 144 141
f 172 306 68
f 235 204 35
f 287 245 113
f 94 330 317
f 15 121 245
f 178 259 42
f 80 33 76
f 196 19 321
f 224 25 180
f 108 188 189
f 137 153 268
f 322 7 135
f 186 153 3
f 85 29 289
f 216 209 198
f 80 76 105
f 190 127 28
f 245 62 295
f 63 213 201
f 250 287 136
f 86 244 50
f 41 74 148
f 235 206 281
f 292 182 4
f 302 139 39
f 157 303 94
f 103 156 246
f 64 287 250
f 45 97 85
f 231 313 276
f 103 234 207
f 262 45 121
f 87 321 109
f 229 102 251
f 219 3 153
f 16 1 308
f 229 93 333
f 169 171 253
f 244 83 50
f 119 22 313
f 223 282 286
f 236 198 148
f 210 147 71
f 155 268 153
f 226 229 174
f 293 11 240
f 326 22 119
f 147 100 89
f 171 192 325
f 117 212 332
f 199 332 215
f 306 310 327
f 307 261 10
f 236 102 149
f 54 211 289
f 310 276 112
f 308 1 332
f 73 198 17
f 257 55 59
f 160 274 104
f 200 215 77
f 116 323 64
f 72 91 154
f 190 96 300
f 305 146 7
f 171 325 253
f 294 19 196
f 39 82 306
f 126 114 57
f 83 142 326
f 82 115 58
f 129 156 157
f 162 172 44
f 2 266 134
f 20 298 10
f 248 268 155
f 111 5 101
f 129 94 202
f 117 240 212
f 283 162 44
f 177 90 312
f 129 202 9
f 261 91 248
f 310 314 231
f 95 284 92
f 292 4 297
f 65 318 282
f 176 169 324
f 148 210 71
f 278 69 243
f 229 292 297
f 65 221 108
f 275 126 184
f 60 13 48
f 1 246 77
f 202 94 317
f 224 217 25
f 333 93 328
f 64 245 287
f 184 126 274
f 125 119 205
f 285 256 69
f 69 256 5
f 166 141 18
f 63 201 8
f 286 282 318
f 224 180 106
f 16 99 269
f 84 131 329
f 305 62 289
f 95 166 18
f 129 164 156
f 241 292 251
f 133 205 119
f 185 161 301
f 281 206 131
f 330 23 264
f 95 217 224
f 187 328 21
f 325 271 253
f 266 112 120
f 195 8 100
f 189 185 252
f 95 18 284
f 189 97 37
f 310 112 2
f 182 316 165
f 15 273 121
f 94 303 330
f 263 63 14
f 234 171 176
f 71 147 173
f 133 119 313
f 133 313 314
f 52 311 320
f 179 301 123
f 235 281 70
f 179 334 107
f 53 321 30
f 320 311 233
f 244 334 83
f 192 67 298
f 12 65 323
f 229 251 292
f 320 233 239
f 220 63 195
f 276 22 214
f 216 218 209
f 90 140 312
f 220 195 210
f 295 237 70
f 266 120 331
f 42 134 150
f 85 289 211
f 169 166 183
f 249 320 239
f 288 211 54
f 26 174 328
f 78 70 204
f 12 66 65
f 97 252 85
f 230 114 126
f 285 249 256
f 12 270 66
f 83 326 119
f 55 151 59
f 58 254 314
f 292 283 251
f 152 46 24
f 307 99 16
f 274 114 104
f 304 38 334
f 329 52 320
f 319 11 72
f 250 136 152
f 218 110 144
f 41 148 17
f 93 132 286
f 194 207 258
f 243 5 111
f 179 304 334
f 70 322 204
f 84 329 13
f 288 289 211
f 74 220 210
f 103 207 194
f 173 300 96
f 93 4 132
f 176 324 43
f 288 85 289
f 51 20 10
f 85 211 29
f 72 11 268
f 172 68 178
f 332 1 77
f 11 212 240
f 87 36 151
f 191 264 61
f 121 40 245
f 198 141 271
f 12 116 25
f 7 146 86
f 216 198 218
f 229 297 93
f 323 108 262
f 51 248 186
f 185 165 161
f 208 9 202
f 111 101 124
f 60 84 13
f 290 32 16
f 200 203 153
f 324 106 294
f 95 224 183
f 200 77 208
f 27 314 254
f 246 164 77
f 309 272 184
f 233 275 184
f 175 196 79
f 174 333 328
f 44 172 178
f 246 156 164
f 81 226 110
f 121 288 40
f 326 331 22
f 111 160 27
f 48 13 285
f 163 182 292
f 28 306 242
f 305 7 237
f 208 98 129
f 60 36 84
f 90 14 238
f 152 136 255
f 128 201 191
f 106 180 30
f 58 315 299
f 197 227 139
f 292 251 283
f 305 289 88
f 226 174 110
f 115 111 58
f 108 97 45
f 58 111 254
f 323 273 15
f 108 189 37
f 92 66 270
f 208 129 9
f 103 194 156
f 264 291 61
f 14 63 238
f 101 274 222
f 241 96 190
f 203 219 153
f 33 42 150
f 329 320 249
f 150 134 266
f 61 291 278
f 319 308 212
f 131 52 329
f 208 77 98
f 216 198 271
f 168 128 302
f 177 312 3
f 78 235 70
f 79 257 23
f 243 111 247
f 12 25 270
f 1 138 246
f 59 151 158
f 296 91 261
f 137 215 153
f 232 244 146
f 279 102 229
f 241 283 292
f 6 27 143
f 92 270 217
f 298 67 10
f 58 314 315
f 269 99 67
f 132 182 260
f 188 282 189
f 81 149 279
f 223 75 282
f 293 268 11
f 306 82 58
f 158 48 278
f 223 260 75
f 323 65 108
f 248 155 186
f 34 250 53
f 288 54 40
f 261 51 10
f 204 322 277
f 118 89 100
f 176 171 169
f 223 286 132
f 277 135 315
f 95 92 217
f 255 70 281
f 260 165 185
f 187 21 66
f 144 18 141
f 112 214 120
f 278 285 69
f 252 280 267
f 260 185 189
f 301 105 123
f 209 218 198
f 191 201 317
f 103 67 170
f 304 31 38
f 167 330 264
f 302 197 139
f 59 158 264
f 296 261 307
f 323 15 64
f 47 296 32
f 56 157 156
f 68 327 259
f 122 160 230
f 53 30 180
f 306 327 68
f 81 218 198
f 90 220 41
f 70 237 322
f 86 50 125
f 179 107 301
f 12 323 116
f 256 101 5
f 27 160 122
f 121 45 159
f 160 184 274
f 51 312 20
f 234 170 171
f 150 38 31
f 161 80 105
f 217 270 25
f 236 81 198
f 116 250 34
f 198 218 144
f 252 301 280
f 49 319 47
f 216 17 198
f 42 2 134
f 130 205 133
f 53 152 109
f 78 204 235
f 248 91 72
f 49 47 290
f 299 315 310
f 8 201 100
f 81 110 218
f 108 37 97
f 259 310 2
f 276 313 22
f 31 38 142
f 60 151 36
f 31 142 38
f 21 318 66
f 233 184 272
f 179 123 304
f 190 181 127
f 139 243 247
f 235 35 206
f 152 24 109
f 75 189 282
f 45 85 159
f 279 149 102
f 210 100 147
f 216 271 17
f 310 315 314
f 111 124 160
f 197 61 227
f 117 199 293
f 307 16 32
f 16 269 138
f 241 251 96
f 174 229 333
f 305 88 146
f 200 263 203
f 307 67 99
f 87 55 321
f 101 222 309
f 265 174 26
f 187 265 26
f 243 101 5
f 202 317 213
f 199 137 293
f 88 289 85
f 98 77 164
f 124 184 160
f 101 274 184
f 262 121 273
f 16 138 1
f 144 92 18
f 123 31 304
f 206 143 311
f 140 325 192
f 165 316 80
f 236 149 81
f 65 66 318
f 143 122 275
f 44 178 33
f 20 312 192
f 7 86 130
f 256 239 309
f 145 202 63
f 63 8 195
f 226 279 229
f 132 4 182
f 167 191 317
f 257 59 23
f 265 110 174
f 152 255 46
f 294 106 30
f 146 244 86
f 301 107 280
f 232 85 107
f 122 126 275
f 79 23 330
f 38 266 142
f 41 17 140
f 165 80 161
f 175 79 303
f 139 247 115
f 93 297 4
f 266 326 142
f 122 230 126
f 127 302 39
f 296 319 72
f 200 208 263
f 296 72 91
f 43 258 207
f 83 38 142
f 148 74 210
f 241 162 283
f 200 153 215
f 103 170 234
f 87 109 24
f 189 252 97
f 143 275 311
f 118 128 168
f 213 317 201
f 260 189 75
f 306 299 310
f 181 89 168
f 190 300 181
f 260 182 165
f 129 157 94
f 128 61 197
f 44 33 80
f 128 191 61
f 296 307 32
f 93 286 328
f 46 281 131
f 150 266 38
f 126 57 274
f 63 202 213
f 102 173 96
f 243 69 5
f 44 80 316
f 56 175 157
f 206 311 52
f 170 67 192
f 322 135 277
f 101 184 274
f 312 140 192
f 140 17 325
f 241 28 162
f 101 184 124
f 81 279 226
f 139 227 243
f 182 44 316
f 59 264 23
f 294 30 19
f 267 280 107
f 187 66 92
f 324 294 43
f 123 76 31
f 17 271 325
f 87 84 36
f 39 139 115
f 49 290 16
f 245 40 62
f 264 158 291
f 51 3 312
f 204 277 6
f 40 54 289
f 73 17 148
f 176 43 207
f 173 147 89
f 113 70 255
f 293 137 268
f 204 6 35
f 118 100 225
f 187 26 328
f 49 16 319
f 135 130 133
f 167 317 330
f 13 329 249
f 88 232 146
f 163 44 182
f 30 321 19
f 252 267 85
f 308 332 212
f 183 224 106
f 85 267 107
f 166 253 141
f 303 79 330
f 103 246 269
f 169 253 166
f 263 208 9
f 310 231 276
f 46 131 84
f 175 258 196
f 39 115 82
f 263 9 145
f 60 48 151
f 2 112 266
f 185 301 252
f 112 276 214
f 210 195 100
f 203 263 219
f 221 282 108
f 90 238 220
f 238 63 220
f 232 228 107
f 42 259 2
f 248 72 268
f 225 100 201
f 83 119 125
f 274 57 114
f 24 46 84
f 236 148 173
f 261 248 51
f 127 39 28
f 50 83 125
f 257 196 55
f 266 331 326
f 101 309 184
f 46 255 281
f 288 159 85
f 167 264 191
f 181 168 127
f 232 107 228
f 65 282 221
f 187 92 110
f 277 315 27
f 108 282 188
f 33 150 76
f 28 242 172
f 41 220 74
f 33 178 42
f 181 300 89
f 163 292 283
f 98 164 129
f 34 53 180
f 28 39 306
f 241 190 28
f 115 247 111
f 277 27 6
f 151 48 158
f 145 9 202
f 284 18 92
f 259 327 310
f 177 219 90
f 178 68 259
f 118 225 128
# 680 faces, 0 coords texture

# End of File