####
#
# OBJ File Generated by Meshlab
#
####
# Object Volume_253.obj
#
# Vertices: 228
# Faces: 450
#
####
v 167.066483 474.068756 156.670471
v 158.531815 463.552490 153.945145
v 167.696213 465.396790 156.146759
v 153.555145 476.978302 152.780136
v 161.646851 476.886230 152.979263
v 151.112686 468.523132 154.698288
v 162.923218 476.157776 153.167786
v 152.186401 478.539734 153.304764
v 155.584457 470.559174 158.453430
v 165.774399 472.540680 152.857605
v 155.697311 465.034668 154.114288
v 171.034454 468.293121 154.238022
v 169.573395 470.338318 157.893753
v 158.685379 463.921631 153.872620
v 161.736069 468.508453 152.530014
v 155.613281 479.126862 154.120407
v 159.685059 472.609253 152.500000
v 152.535034 465.614105 155.650757
v 155.581863 476.973145 152.719376
v 159.687073 466.622894 157.972916
v 162.632385 476.004364 157.835693
v 165.823654 472.587311 158.288071
v 151.410294 476.939880 154.483627
v 157.633911 472.609222 152.500015
v 153.558655 479.262085 153.552689
v 169.894012 467.273895 157.888443
v 151.239349 472.609161 153.847656
v 159.684708 466.497986 152.748215
v 151.145294 474.927307 154.692886
v 161.838577 465.932129 157.398865
v 165.738525 466.130219 157.411667
v 167.630814 472.344269 157.979507
v 153.556992 465.542816 153.314758
v 151.809174 465.672546 153.464127
v 165.704468 474.883209 154.111420
v 157.633926 468.508148 152.525070
v 155.612305 478.352448 156.430908
v 159.648590 477.241211 157.526825
v 159.685013 472.609039 158.485245
v 155.584610 472.608856 158.455765
v 153.559982 478.997437 154.512924
v 165.765793 465.085693 154.036377
v 169.032211 470.073639 153.246613
v 168.095993 472.930176 156.863449
v 153.679169 478.089172 156.440781
v 163.777573 472.598816 152.648193
v 169.916016 468.474335 152.948273
v 170.810272 466.343109 153.161346
v 159.685074 470.558319 152.500031
v 165.836227 470.557617 158.434204
v 155.583344 472.609283 152.518082
v 151.504715 465.675171 153.698425
v 161.398895 477.530457 156.153778
v 153.553162 468.509949 152.682434
v 163.674911 466.887390 157.912827
v 153.609070 465.438141 156.193146
v 172.441238 465.678589 156.630234
v 155.596756 477.510529 157.585159
v 159.671631 476.954987 152.782349
v 169.182922 471.863892 156.737167
v 153.581024 476.812531 157.868805
v 159.668777 465.134521 156.315048
v 161.735992 470.558472 158.485123
v 157.634033 466.495300 152.735001
v 159.674820 465.103760 153.241394
v 170.401291 468.936035 153.654572
v 167.686127 467.079559 157.942490
v 163.909454 465.440918 153.337555
v 153.561325 466.515808 152.851395
v 161.694260 465.576294 153.293823
v 172.655579 465.713318 156.526688
v 157.767319 477.454285 157.594162
v 152.641571 468.536774 157.752350
v 165.345535 474.072540 153.276688
v 167.884476 468.529816 158.280991
v 151.230148 470.556061 153.835983
v 151.831390 472.607361 153.241119
v 151.254547 474.981018 153.844147
v 166.620560 473.678375 157.864670
v 157.639587 465.037628 156.199432
v 159.682739 466.002563 157.557877
v 152.449356 472.637207 157.619125
v 155.585083 468.521912 158.347778
v 151.289612 466.488068 153.794586
v 163.894684 465.179077 155.877625
v 153.553513 472.609070 152.679764
v 167.874710 468.500244 152.678116
v 165.837769 468.508270 152.529434
v 157.618530 476.847992 158.000214
v 166.906631 474.045074 154.623184
v 167.270157 472.004059 153.272385
v 165.868668 465.309631 156.148331
v 157.641327 465.341217 153.183014
v 159.490112 477.910828 153.188644
v 169.975922 466.327789 157.299820
v 151.324615 466.583984 154.542236
v 153.541519 478.766052 153.206543
v 155.585678 474.943146 158.364288
v 155.480774 478.590271 153.318665
v 171.260483 466.532562 154.331207
v 161.735931 470.558197 152.500015
v 167.808487 472.720428 154.151962
v 153.551392 470.557922 152.667389
v 165.782013 475.110901 156.915588
v 151.769455 475.061981 156.627869
v 165.630234 474.227051 157.914490
v 163.728531 474.858551 157.979782
v 167.867554 470.541107 158.269958
v 157.633926 472.609192 158.490524
v 172.443222 465.678101 156.641907
v 161.735672 466.508698 152.765656
v 161.735428 468.521057 158.356674
v 155.614197 465.306274 156.211746
v 152.476990 474.826202 157.608704
v 151.052811 472.612915 154.748138
v 163.463547 476.364685 156.675217
v 161.181595 477.860107 154.200607
v 167.886826 466.511475 152.782166
v 153.600052 474.933777 158.132812
v 153.534348 466.775330 157.865311
v 151.536896 472.552277 156.446136
v 152.454773 478.064087 155.474915
v 169.973358 465.490021 156.062714
v 157.587494 478.195007 156.516434
v 170.565399 467.622192 153.159897
v 159.683807 474.940613 158.362915
v 157.633942 474.952484 152.525589
v 165.103729 475.764191 156.373413
v 151.738892 476.992157 153.187622
v 157.711899 466.710907 157.984543
v 154.929398 479.291412 153.731720
v 170.832031 467.357361 157.583206
v 160.856964 477.571869 153.174194
v 159.685242 468.517090 158.377441
v 153.683945 466.264496 157.486511
v 157.478012 466.096863 157.587128
v 161.549622 476.302002 157.946823
v 169.861084 468.500519 158.094376
v 157.634674 468.518341 158.372772
v 163.786987 470.558197 152.505890
v 170.702881 465.685608 153.401703
v 170.657410 469.897827 156.529099
v 169.891800 466.496460 152.905197
v 165.828445 470.548584 152.630386
v 152.577759 470.594604 157.733200
v 157.634003 470.558044 152.500000
v 151.063812 470.564636 154.726654
v 165.837769 468.525604 158.332977
v 161.735779 472.609039 152.519058
v 165.826523 466.856445 157.903839
v 163.787018 470.558624 158.474319
v 159.685104 470.558380 158.490234
v 155.579834 476.849670 157.993713
v 163.788055 466.512604 152.778854
v 153.554260 474.952240 152.689377
v 161.715652 466.687469 157.913330
v 161.504089 465.000885 154.207184
v 157.634018 470.558258 158.486160
v 163.747452 465.036926 154.125519
v 153.590454 468.532135 158.157150
v 165.808212 465.496155 153.280014
v 151.326309 476.909851 153.618942
v 170.122604 470.698517 156.927933
v 170.600922 468.105652 157.725754
v 152.668274 479.015289 153.452209
v 158.614975 463.923676 153.874603
v 151.825043 470.555328 153.226883
v 155.584885 466.504639 152.762238
v 159.638229 476.520905 157.993225
v 151.811447 466.497650 153.239014
v 161.697983 476.929504 157.280960
v 151.635468 470.709412 156.603195
v 153.595413 472.607849 158.194977
v 155.591324 465.513611 153.283127
v 172.650055 465.655487 156.533142
v 151.715240 468.543976 156.474045
v 169.866013 470.422424 154.152344
v 168.979416 471.644623 154.527298
v 167.810547 470.485748 152.863800
v 152.058029 478.493439 153.732529
v 155.583664 474.952332 152.538483
v 158.548294 463.629608 153.927063
v 155.583206 470.558197 152.514999
v 151.826950 474.961395 153.236465
v 151.875961 465.444794 154.021927
v 153.639038 465.173431 154.067902
v 165.837952 466.505219 152.763489
v 170.735245 469.480194 155.090118
v 152.217514 466.623871 156.506134
v 161.735779 472.608612 158.472610
v 151.529922 477.622559 153.390778
v 155.591614 466.168365 157.555939
v 152.328842 476.708160 156.671890
v 163.739197 474.905243 153.021515
v 155.585739 466.936859 157.994644
v 151.822998 468.502747 153.219101
v 163.786758 468.525360 158.339371
v 159.685028 468.508270 152.526611
v 163.473495 476.531647 154.153076
v 153.606918 477.317841 157.543610
v 157.552765 478.161377 153.325745
v 169.814133 465.203827 154.095596
v 161.977615 477.398834 153.837372
v 152.805069 476.205750 157.651657
v 170.886124 465.534882 154.251434
v 171.083206 468.191559 156.677887
v 169.916046 465.560394 153.279297
v 161.719406 465.291290 156.365463
v 161.725113 474.928406 158.277924
v 163.809174 466.028839 157.321640
v 152.830154 467.219543 157.668503
v 161.723450 474.938843 152.683685
v 168.030975 466.246063 157.392334
v 168.949600 471.345093 157.886993
v 151.242859 468.502655 153.831818
v 163.787003 468.508331 152.528809
v 159.418365 478.292877 154.047501
v 157.604828 478.625702 154.183060
v 167.877426 465.108398 154.162582
v 155.583664 468.508606 152.541550
v 157.633347 474.943817 158.379730
v 167.884552 465.556061 153.293747
v 163.783676 472.604950 158.402542
v 153.589157 470.558868 158.217804
v 159.552322 477.918945 156.428818
v 157.631699 476.958679 152.750809
v 159.684433 474.951630 152.544189
v 164.869812 475.880341 154.606064
# 228 vertices, 0 vertices normals

f 177 188 142
f 66 177 47
f 194 74 35
f 160 120 73
f 186 185 18
f 72 124 38
f 220 36 183
f 84 52 34
f 180 8 165
f 147 115 121
f 195 160 83
f 159 208 85
f 28 111 198
f 199 228 128
f 96 84 6
f 66 47 12
f 121 105 114
f 166 80 62
f 216 154 187
f 80 136 81
f 23 105 29
f 57 110 95
f 93 64 168
f 226 127 227
f 187 161 222
f 61 193 200
f 153 98 61
f 62 80 81
f 140 216 88
f 181 19 4
f 217 94 117
f 64 65 28
f 16 37 41
f 207 202 141
f 47 125 12
f 54 168 220
f 22 107 106
f 10 144 179
f 58 124 72
f 24 49 17
f 169 38 137
f 21 171 116
f 13 163 164
f 100 57 206
f 138 75 108
f 89 72 169
f 202 123 110
f 52 185 34
f 127 24 17
f 148 50 75
f 25 41 165
f 82 145 172
f 94 59 5
f 214 13 32
f 7 194 199
f 28 70 111
f 54 103 167
f 77 86 184
f 154 161 187
f 77 27 167
f 125 48 100
f 78 23 29
f 215 147 6
f 57 95 26
f 180 191 8
f 213 150 67
f 171 53 116
f 194 10 74
f 115 147 76
f 43 177 91
f 81 20 30
f 89 58 72
f 127 17 227
f 78 77 184
f 44 1 102
f 78 184 162
f 63 190 151
f 224 173 9
f 167 76 196
f 60 214 32
f 123 3 95
f 98 153 221
f 37 45 41
f 12 100 206
f 36 64 28
f 83 224 9
f 137 171 21
f 202 205 141
f 129 4 8
f 1 44 32
f 161 42 222
f 200 193 45
f 201 59 94
f 124 16 218
f 54 69 168
f 42 85 92
f 178 44 102
f 146 198 49
f 94 133 117
f 22 106 32
f 205 110 57
f 99 226 201
f 112 134 152
f 149 212 227
f 80 14 113
f 64 93 65
f 225 218 217
f 93 14 65
f 191 180 162
f 205 57 100
f 199 194 35
f 67 75 26
f 3 31 213
f 16 99 218
f 75 138 26
f 216 187 88
f 99 131 97
f 164 163 142
f 92 31 3
f 50 223 22
f 211 135 189
f 147 172 6
f 179 87 47
f 160 73 145
f 53 117 203
f 3 213 95
f 74 10 91
f 199 35 228
f 124 218 225
f 69 54 196
f 14 182 166
f 90 1 35
f 88 118 87
f 14 2 166
f 36 28 198
f 13 108 32
f 186 11 174
f 42 92 219
f 120 211 73
f 35 1 104
f 82 121 114
f 106 79 32
f 117 133 203
f 157 62 208
f 147 215 76
f 197 151 148
f 73 211 189
f 37 16 124
f 4 97 8
f 49 101 17
f 13 138 108
f 97 25 8
f 119 98 40
f 107 21 116
f 140 88 144
f 158 139 9
f 120 160 195
f 169 209 126
f 145 73 176
f 173 114 119
f 173 119 40
f 139 130 83
f 69 174 168
f 203 5 199
f 56 135 113
f 85 208 210
f 11 93 174
f 218 201 217
f 17 149 227
f 143 141 48
f 19 99 97
f 105 115 29
f 96 176 189
f 116 203 199
f 222 207 118
f 223 107 22
f 14 93 11
f 133 5 203
f 180 23 162
f 181 24 127
f 198 15 49
f 20 139 134
f 35 74 102
f 13 214 60
f 201 94 217
f 202 207 219
f 67 148 75
f 219 92 3
f 27 78 29
f 208 30 210
f 101 15 216
f 132 57 26
f 24 146 49
f 53 203 116
f 154 68 161
f 12 125 100
f 27 77 78
f 10 179 91
f 69 33 174
f 95 67 26
f 86 183 51
f 50 22 108
f 174 93 168
f 118 143 87
f 105 23 193
f 130 195 83
f 176 96 6
f 164 142 206
f 13 60 163
f 15 111 154
f 156 112 55
f 101 149 17
f 169 72 38
f 101 216 140
f 79 106 104
f 186 56 11
f 38 124 225
f 85 210 31
f 193 180 122
f 52 96 185
f 116 199 128
f 37 200 45
f 160 224 83
f 185 96 189
f 159 85 42
f 84 215 6
f 70 157 68
f 112 63 197
f 170 69 196
f 5 212 194
f 43 179 47
f 103 77 167
f 170 34 33
f 181 155 51
f 48 205 100
f 145 176 172
f 134 158 152
f 14 166 65
f 132 164 206
f 123 202 219
f 11 56 113
f 61 119 204
f 41 180 165
f 84 170 215
f 143 207 141
f 158 9 40
f 79 1 32
f 68 42 161
f 86 155 184
f 151 190 223
f 166 62 157
f 208 62 30
f 139 158 134
f 57 132 206
f 121 115 105
f 15 154 216
f 177 66 12
f 113 135 192
f 155 181 4
f 28 65 70
f 150 197 148
f 187 222 118
f 34 185 33
f 110 57 175
f 89 169 126
f 1 90 102
f 16 41 25
f 107 137 21
f 1 79 104
f 42 219 222
f 179 43 91
f 149 140 46
f 55 112 197
f 109 98 221
f 177 43 47
f 136 192 195
f 151 223 50
f 56 186 18
f 136 130 81
f 129 191 162
f 163 177 142
f 46 144 10
f 31 150 213
f 188 12 206
f 103 54 220
f 183 146 51
f 207 143 118
f 88 187 118
f 170 33 69
f 27 115 76
f 46 140 144
f 177 12 188
f 152 109 39
f 107 116 104
f 223 209 107
f 194 46 10
f 63 112 152
f 120 135 211
f 219 207 222
f 103 220 183
f 94 5 133
f 190 209 223
f 153 58 89
f 147 121 172
f 108 22 32
f 212 59 227
f 192 120 195
f 104 116 128
f 39 221 126
f 209 137 107
f 178 177 60
f 64 36 220
f 38 225 171
f 197 63 151
f 76 215 196
f 68 159 42
f 8 25 165
f 146 24 51
f 9 173 40
f 86 103 183
f 141 205 48
f 74 91 102
f 59 226 227
f 193 61 204
f 166 157 70
f 19 127 226
f 112 156 134
f 184 129 162
f 212 149 46
f 132 138 164
f 62 81 30
f 36 146 183
f 143 48 47
f 54 167 196
f 92 85 31
f 99 16 131
f 48 125 47
f 115 27 29
f 172 176 6
f 139 83 9
f 144 88 87
f 201 226 59
f 5 7 199
f 90 35 102
f 96 52 84
f 210 156 55
f 210 55 31
f 59 212 5
f 44 178 60
f 98 119 61
f 212 46 194
f 58 37 124
f 145 82 224
f 41 45 180
f 191 129 8
f 44 60 32
f 30 156 210
f 121 82 172
f 23 78 162
f 155 129 184
f 136 80 192
f 153 61 200
f 109 221 39
f 225 217 117
f 135 56 189
f 55 197 150
f 99 19 226
f 111 68 154
f 87 143 47
f 33 186 174
f 2 182 166
f 209 169 137
f 111 70 68
f 109 158 40
f 123 219 3
f 221 89 126
f 37 58 200
f 35 104 228
f 221 153 89
f 149 101 140
f 135 120 192
f 213 67 95
f 224 82 173
f 205 202 110
f 130 136 195
f 176 73 189
f 160 145 224
f 150 148 67
f 4 19 97
f 5 194 7
f 97 131 25
f 18 185 189
f 175 57 71
f 45 193 122
f 27 76 167
f 193 23 180
f 30 20 156
f 14 2 182
f 15 101 49
f 81 130 20
f 99 201 218
f 138 13 164
f 65 166 70
f 190 63 39
f 111 15 198
f 19 181 127
f 144 87 179
f 146 36 198
f 91 178 102
f 110 123 95
f 138 132 26
f 171 225 53
f 77 103 86
f 80 113 192
f 53 225 117
f 56 18 189
f 190 39 126
f 168 64 220
f 82 114 173
f 105 193 204
f 209 190 126
f 148 151 50
f 129 155 4
f 158 109 152
f 98 109 40
f 157 159 68
f 131 16 25
f 58 153 200
f 170 84 34
f 75 50 108
f 14 11 113
f 106 107 104
f 155 86 51
f 119 114 204
f 142 188 206
f 60 177 163
f 31 55 150
f 156 20 134
f 228 104 128
f 215 170 196
f 185 186 33
f 177 178 91
f 24 181 51
f 137 38 171
f 157 208 159
f 63 152 39
f 180 45 122
f 14 80 166
f 130 139 20
f 114 105 204
# 450 faces, 0 coords texture

# End of File