####
#
# OBJ File Generated by Meshlab
#
####
# Object domain221.obj
#
# Vertices: 436
# Faces: 868
#
####
v 135.365891 332.555420 122.564583
v 137.411545 330.268341 134.366562
v 133.362335 328.657013 127.448570
v 143.103180 345.161041 134.486099
v 142.410431 339.240051 137.057861
v 137.513535 332.306763 136.642807
v 139.555450 328.700806 125.486526
v 139.471512 353.994293 138.614517
v 133.054993 346.984650 138.258087
v 142.001602 347.275543 129.755188
v 137.407166 352.911652 127.509331
v 135.367645 328.853058 129.477020
v 131.897385 349.525513 127.495125
v 141.645309 333.521515 136.890121
v 137.390839 334.884766 122.737938
v 133.711288 352.449951 129.545898
v 135.343857 354.034119 138.605469
v 132.519547 332.590912 135.624161
v 134.258392 337.991150 122.849503
v 137.418701 353.957245 136.494522
v 137.415192 328.860504 129.475891
v 135.376083 352.898743 127.502136
v 132.312912 343.017365 124.595375
v 139.420792 330.404663 134.334000
v 132.977585 343.128235 136.424423
v 133.346939 329.445496 131.179108
v 141.503799 343.106873 127.693642
v 141.447006 339.128082 137.593201
v 137.365738 347.200897 123.804573
v 133.344940 334.892059 122.740379
v 131.667984 330.559723 132.024185
v 139.154572 345.138214 124.429092
v 133.771652 333.519989 136.793823
v 140.932419 329.986938 130.978394
v 133.181946 351.622467 136.350403
v 137.408997 353.994232 138.614166
v 135.417343 353.703278 136.535812
v 142.786270 345.152039 131.889542
v 135.416611 351.585632 139.190247
v 135.367889 351.470337 123.983940
v 130.947067 336.473236 124.930466
v 142.780960 351.539215 134.541809
v 134.200760 351.498383 138.699921
v 132.440994 335.756317 135.975204
v 133.414978 345.374054 138.228577
v 143.088593 347.205200 134.488953
v 142.845688 341.054718 131.906540
v 137.379211 345.153015 123.756683
v 132.304016 351.621460 131.916824
v 132.076019 347.165588 133.693390
v 132.295135 347.217499 134.883484
v 140.785629 332.540680 125.530724
v 141.377472 332.658112 127.607384
v 143.526016 349.456604 138.108139
v 132.335403 349.562256 124.707253
v 139.462341 354.141205 138.202881
v 141.384888 331.387543 135.651474
v 139.753586 332.559143 123.766510
v 131.334702 332.495605 131.975876
v 137.417892 347.218109 139.348328
v 137.389694 332.554901 122.710503
v 138.783432 352.033722 124.825142
v 142.473618 341.055267 130.072891
v 131.533463 337.135651 123.764511
v 135.364487 327.890045 124.492500
v 132.010315 336.941772 134.283722
v 135.382843 332.225800 136.570007
v 141.451126 336.966187 137.320786
v 132.394165 351.988281 124.738785
v 141.536240 334.825439 127.782593
v 132.545929 352.282227 126.760010
v 132.112366 329.874908 130.986938
v 141.457794 334.929382 137.166687
v 132.580154 352.572357 133.450165
v 141.477493 349.559509 139.218704
v 133.342621 336.918365 122.815399
v 137.416718 343.087341 138.628754
v 133.430130 352.732025 134.477783
v 142.058212 331.244537 135.176361
v 131.804184 343.102783 129.494431
v 135.366730 328.412415 127.508255
v 142.200516 333.825714 136.664764
v 140.168304 347.190704 125.603584
v 139.462662 332.465118 136.655945
v 142.951294 343.215790 136.357147
v 143.104614 343.246979 134.555496
v 142.867218 336.909851 134.342072
v 137.382950 328.783569 123.244186
v 137.416565 329.249512 131.232452
v 139.466949 334.914337 137.387680
v 142.740768 348.060089 138.625198
v 142.194046 336.950287 129.834564
v 131.849030 343.102875 132.008163
v 142.690689 336.874939 136.240356
v 143.076141 341.052002 134.507217
v 130.862839 334.876495 125.748116
v 140.764893 340.978088 126.001869
v 132.764313 345.166046 136.509750
v 142.585205 353.355438 138.741684
v 137.421982 354.151123 138.201111
v 140.611801 345.063416 125.957916
v 140.156891 343.096252 125.140373
v 139.467209 336.934937 137.626129
v 131.428635 330.581970 127.699234
v 132.295731 351.559326 124.671219
v 132.011810 349.524109 129.551315
v 131.792648 341.052612 129.495163
v 139.454498 331.217712 135.675201
v 139.110626 352.229126 125.668114
v 132.780640 346.365540 138.788651
v 138.877197 332.557343 123.151955
v 131.663940 328.805054 123.514755
v 132.838242 336.210358 136.487762
v 130.824890 330.517975 124.950417
v 143.040390 345.103516 136.295914
v 132.829834 349.554352 136.478134
v 135.391449 347.227722 139.226334
v 142.582993 334.943359 136.142456
v 131.147766 332.562653 127.525887
v 142.177216 332.590393 131.058304
v 135.389832 353.434540 134.524429
v 141.415329 343.145721 138.159653
v 142.743057 351.546997 138.717773
v 135.365463 334.894257 122.608055
v 134.712143 338.003418 122.823326
v 140.562805 348.954742 126.528229
v 140.690811 347.206055 126.481789
v 137.507874 337.538605 123.096878
v 140.592712 330.455536 125.546799
v 141.768509 349.535492 129.836182
v 142.409683 352.803741 136.694397
v 131.698654 343.103912 127.542953
v 131.145203 336.377838 123.956619
v 134.077423 349.500946 138.727844
v 143.314514 349.556885 136.281281
v 135.437485 354.094666 138.286087
v 132.539932 351.650238 129.595963
v 131.720474 345.143768 127.532036
v 139.463364 341.083984 138.260941
v 143.047668 349.548767 134.496796
v 135.366791 329.253937 131.231049
v 131.648727 328.279388 123.908218
v 133.446609 349.544067 124.008781
v 137.417679 339.008026 137.960007
v 142.409332 332.549652 135.054047
v 130.820038 332.555267 125.774048
v 137.304321 333.329865 137.074234
v 141.557190 341.127167 127.725456
v 132.047668 341.051178 133.790085
v 139.463882 333.569794 137.101471
v 135.367615 352.143677 124.431137
v 133.343475 328.788177 123.254715
v 142.176300 343.101013 129.283325
v 133.329895 328.111298 123.846779
v 133.366913 339.017059 123.341423
v 139.464203 353.922729 136.504395
v 137.324921 351.474152 124.099815
v 143.025162 351.464783 136.446030
v 135.370255 352.689941 125.573341
v 131.861191 331.002350 133.849075
v 134.050217 341.136932 137.438492
v 135.366364 328.019226 125.822067
v 141.383347 330.926697 134.276932
v 141.249023 347.128387 127.777863
v 138.849045 330.524689 123.207535
v 131.922195 349.546600 125.555817
v 140.217499 351.555328 127.047981
v 131.121445 330.518097 123.822350
v 139.367172 328.848083 127.451721
v 132.936539 338.878998 136.147980
v 135.377029 353.176178 132.132797
v 142.696564 334.997253 134.560806
v 141.385101 353.151825 134.611328
v 135.369171 345.153717 123.602348
v 139.465942 351.589966 139.373093
v 133.398636 343.096680 123.877380
v 140.869858 337.133026 125.752556
v 142.234711 345.187103 129.668335
v 131.752350 332.569427 134.270279
v 135.354706 336.937592 122.740578
v 131.114731 332.555237 123.820076
v 137.411469 331.164642 135.738525
v 137.292923 336.641388 122.872902
v 137.419006 341.080170 138.290146
v 133.431641 349.550812 138.059769
v 133.416077 330.460144 134.306808
v 139.456863 352.492004 127.444878
v 137.416656 345.583435 139.147141
v 135.367096 341.052063 123.467773
v 139.051743 347.165009 124.506012
v 141.911026 332.484314 129.748047
v 137.420502 344.609955 138.950546
v 133.341644 327.933929 124.477341
v 140.533325 345.923737 139.050735
v 132.692612 334.862885 136.254303
v 135.396423 343.127747 138.396149
v 131.841156 341.051666 132.007538
v 139.650070 330.567902 123.817596
v 142.408630 351.542725 132.627411
v 133.395584 352.093140 124.492729
v 135.478073 345.685333 139.074020
v 131.094513 337.005829 125.762863
v 137.416733 353.314087 132.121445
v 142.165665 352.361694 133.099396
v 139.468140 353.482758 138.988586
v 132.740158 352.104279 131.146515
v 135.365219 328.088013 123.833885
v 131.114227 329.023712 124.813019
v 137.417206 353.632660 134.502518
v 142.198166 341.049011 129.268631
v 139.171082 328.564667 124.024742
v 142.277481 334.916779 136.738251
v 140.722641 329.699738 129.469101
v 141.472031 351.584503 139.196991
v 133.388275 352.522461 125.556999
v 142.324585 332.508057 134.185791
v 137.417023 336.930847 137.659348
v 131.400665 332.585358 129.536835
v 142.664810 347.192627 131.960358
v 135.370819 349.539703 123.704819
v 137.419113 351.590057 139.370941
v 131.249878 331.008728 132.928665
v 138.823135 336.134003 123.227501
v 141.599197 338.999451 127.838867
v 138.876083 334.888977 123.142525
v 134.555466 353.701447 138.731903
v 133.380005 341.031372 123.760422
v 137.403839 328.118958 125.801262
v 131.647308 336.961060 129.501495
v 139.409515 352.772217 129.537079
v 135.425613 341.113190 138.062317
v 133.349380 330.534393 122.807304
v 131.658295 332.552277 123.266029
v 140.228241 338.985748 125.089882
v 139.235046 341.046082 124.348900
v 140.023972 349.522400 125.655708
v 132.337021 347.192902 124.712952
v 135.374985 330.273285 134.366653
v 142.483780 334.988861 131.950745
v 131.660645 330.524658 123.286911
v 140.629944 343.098358 125.823181
v 137.417145 334.911438 137.402588
v 143.022949 349.703400 138.690811
v 130.914398 330.513153 125.748596
v 132.377930 351.602692 133.692276
v 140.402664 329.450928 127.701164
v 132.318451 339.580078 134.926437
v 137.415329 353.040375 129.503128
v 137.385498 343.102325 123.728432
v 131.444794 336.941498 127.747169
v 131.909836 347.176117 131.980453
v 140.138367 352.300690 128.133392
v 135.365280 331.161987 135.759216
v 142.592453 334.059906 134.117294
v 140.914017 334.899597 125.863976
v 135.244415 344.797729 138.831757
v 141.747818 330.927307 130.986633
v 141.320068 352.545746 132.256653
v 134.275589 353.392456 138.290512
v 132.394119 349.544830 134.814957
v 133.668198 336.892639 136.969009
v 141.928726 351.379913 131.355850
v 138.999924 349.486816 124.591484
v 133.332916 352.526794 127.479980
v 142.238464 332.543213 132.212173
v 142.640121 336.880798 132.016754
v 135.408737 339.049377 137.734985
v 135.379486 333.296417 137.030075
v 142.845154 343.101257 131.904938
v 142.539581 349.521149 132.113785
v 133.486725 331.215973 135.608780
v 137.425659 327.965576 124.480637
v 140.982422 330.572968 127.556770
v 132.163986 349.431580 133.640793
v 142.248734 332.806793 135.964981
v 133.338425 328.172424 125.771706
v 133.919418 343.205627 137.693146
v 131.705475 336.963074 131.894989
v 140.170639 341.048492 125.135925
v 142.365494 336.983215 136.786789
v 131.276566 328.721680 123.858734
v 131.772125 347.203461 127.518707
v 133.441528 347.202240 123.979927
v 135.712357 337.867096 122.920105
v 140.068649 329.072052 126.149956
v 142.448929 339.914917 130.101990
v 132.044403 349.473541 131.938080
v 131.530518 338.957062 125.805832
v 132.048660 338.873962 134.004318
v 139.439774 329.781464 132.458847
v 142.274063 341.087250 137.378952
v 140.636276 352.283478 129.858536
v 143.147797 351.343506 138.173370
v 137.413696 328.452728 127.501129
v 141.011765 349.544159 127.829002
v 140.557678 350.180695 126.944717
v 137.382019 330.531738 122.805626
v 142.198914 346.450104 138.590042
v 139.707428 351.442383 125.726028
v 142.289810 338.957703 129.714188
v 135.367310 343.101990 123.571144
v 135.408905 349.548950 139.241165
v 137.375748 352.636902 125.579597
v 133.038666 337.805511 123.084236
v 139.459824 347.219055 139.320496
v 134.445389 353.498901 138.720642
v 132.645859 347.209473 136.508469
v 131.702896 341.042114 125.819923
v 135.366135 330.526062 122.692673
v 131.981674 329.405426 127.429634
v 139.447861 329.422424 131.200836
v 132.334900 343.104340 134.904358
v 135.379044 336.952057 137.497147
v 135.382004 352.952271 129.503906
v 131.110870 334.882812 123.831032
v 141.506165 330.642456 129.872543
v 139.727722 334.882996 123.777313
v 132.038345 338.847839 124.258087
v 140.645340 351.466858 128.053284
v 132.533722 351.743225 128.354095
v 140.216476 329.955475 125.031570
v 130.806076 334.892151 124.947815
v 141.368576 353.544312 136.569138
v 139.436447 337.025696 123.756187
v 142.087265 334.899139 129.863525
v 131.662201 334.872101 123.280930
v 141.504257 353.977325 138.647064
v 140.310165 330.873322 124.647430
v 133.348770 329.833374 132.437576
v 139.218811 343.100555 124.383766
v 143.184448 347.233704 136.287781
v 139.460892 353.556519 134.515915
v 132.001282 351.496216 125.480614
v 137.415680 353.483368 138.990891
v 133.489807 346.036438 138.780167
v 131.898422 334.886902 134.431183
v 131.869263 347.314545 129.600510
v 142.583649 345.317200 137.706177
v 135.367722 328.776398 123.209175
v 141.430908 347.295837 139.062607
v 142.252228 352.590393 134.442505
v 142.456757 334.008545 132.673416
v 141.376633 330.544189 132.123428
v 142.810318 347.231812 138.218475
v 142.485947 343.105682 130.059143
v 137.418655 349.549316 139.446381
v 140.199738 345.283508 125.344284
v 137.387344 328.129211 123.845970
v 142.851120 341.066254 136.404556
v 140.402954 332.556824 124.612389
v 137.412064 339.002411 123.414490
v 132.049744 343.103058 133.791916
v 131.476944 334.712982 129.678513
v 140.842941 338.994812 126.054543
v 138.928757 351.490784 124.678337
v 139.521683 344.838257 138.949799
v 131.676697 341.052490 127.546959
v 132.507935 352.500916 132.756210
v 139.447403 353.134827 132.147293
v 143.003494 339.014435 134.506561
v 141.430710 345.245209 138.638351
v 133.293976 352.749695 132.044586
v 132.316605 350.962616 130.065735
v 140.272385 336.722382 124.729324
v 142.421753 344.530121 130.127380
v 131.801941 338.995087 132.004318
v 141.482483 353.489624 138.955261
v 137.394257 341.045929 123.663300
v 131.284195 334.991760 127.699402
v 143.531815 349.861023 138.317383
v 135.381607 334.921692 137.298737
v 132.318344 345.009125 124.681747
v 132.342651 341.056122 134.895462
v 131.752716 343.088440 125.821663
v 133.681152 347.049286 138.812103
v 132.823761 346.209229 138.804535
v 133.342270 332.555511 122.710541
v 131.541519 328.801025 125.522293
v 133.430756 351.487213 124.146469
v 142.117279 331.409485 135.522400
v 142.410065 343.409119 137.462921
v 140.373383 334.892181 124.627365
v 131.565155 334.943604 131.824341
v 139.464966 339.014648 137.926666
v 138.710129 328.767822 123.464294
v 141.394150 345.163086 127.727646
v 132.257462 341.010681 124.521896
v 133.449768 332.525543 136.347000
v 133.046906 341.056854 136.361633
v 139.316895 345.709351 139.165253
v 141.410919 332.546509 136.469009
v 137.338745 352.133209 124.476318
v 133.374054 329.091431 129.428406
v 132.244415 352.157104 125.508034
v 131.808762 345.153137 125.763367
v 138.859253 328.413055 123.739449
v 142.792679 339.040833 136.390060
v 142.771606 339.006775 131.919022
v 131.861053 345.152588 132.006577
v 132.293839 345.156769 134.918106
v 130.792542 332.555115 124.948586
v 139.466385 349.549194 139.436615
v 142.306793 353.690216 138.700699
v 135.367920 329.601776 132.503677
v 139.467682 343.095428 138.582504
v 132.674164 336.909363 136.142761
v 135.395508 353.498199 138.946381
v 134.014008 339.186310 137.205307
v 139.296219 338.956635 124.195580
v 132.260651 351.592743 127.340782
v 131.882248 347.194763 125.564346
v 137.415787 329.590851 132.506897
v 141.498062 354.017181 138.305359
v 133.427368 345.146027 123.943375
v 132.294495 329.588257 129.305038
v 131.632065 328.260864 124.298576
v 131.810425 336.537354 123.328484
v 132.663574 351.542236 134.722992
v 135.337921 339.044159 123.139053
v 141.248611 351.504395 129.788559
v 141.390793 341.140717 137.930374
v 132.059845 345.133972 133.783463
v 139.410934 329.109680 129.436661
v 131.198166 331.492157 132.946609
v 131.599747 339.013214 127.562569
v 142.634216 353.301178 138.562241
v 135.370911 347.204346 123.636642
v 133.944885 352.922729 136.447449
v 131.818100 345.152313 129.493805
v 133.655716 351.493835 138.038101
v 141.587555 336.951538 127.841286
v 133.563965 334.917664 136.907639
v 132.582001 331.293304 135.151550
v 137.348343 349.534393 123.880013
v 131.751968 339.006409 129.495331
v 131.696228 330.554657 129.501785
# 436 vertices, 0 vertices normals

f 131 413 323
f 30 417 326
f 382 255 364
f 418 260 274
f 286 210 300
f 187 252 292
f 203 332 209
f 212 68 280
f 315 233 326
f 21 311 423
f 232 377 233
f 416 378 276
f 295 10 130
f 170 389 161
f 176 372 23
f 147 150 84
f 21 89 311
f 428 37 136
f 286 47 63
f 83 126 236
f 94 172 118
f 266 87 360
f 273 191 53
f 160 186 31
f 266 92 239
f 91 243 54
f 61 165 111
f 180 284 125
f 398 47 286
f 78 121 37
f 123 426 293
f 381 85 349
f 3 310 393
f 282 106 337
f 148 300 210
f 200 215 69
f 330 102 347
f 129 350 328
f 270 262 130
f 217 144 103
f 232 339 309
f 279 241 102
f 261 313 371
f 65 162 228
f 56 327 8
f 175 205 214
f 146 114 401
f 209 332 156
f 131 426 413
f 273 316 191
f 63 345 153
f 161 231 267
f 423 34 213
f 348 272 396
f 282 13 106
f 418 35 260
f 128 284 180
f 64 318 288
f 318 308 288
f 139 421 28
f 42 158 131
f 307 185 9
f 160 433 271
f 343 257 316
f 26 72 329
f 297 385 165
f 98 307 9
f 334 205 175
f 195 179 336
f 112 281 142
f 388 433 18
f 222 179 160
f 195 432 18
f 322 401 181
f 276 3 81
f 127 164 126
f 100 8 36
f 55 105 333
f 414 301 174
f 379 200 69
f 40 157 151
f 232 309 377
f 182 253 67
f 423 311 34
f 383 66 336
f 15 183 180
f 373 312 25
f 229 435 366
f 154 207 339
f 55 283 143
f 200 40 151
f 290 163 343
f 314 248 203
f 77 196 256
f 91 75 243
f 398 95 47
f 141 412 89
f 283 174 427
f 32 347 83
f 112 240 168
f 280 68 28
f 261 408 313
f 202 96 322
f 410 166 333
f 183 225 223
f 356 390 361
f 294 423 169
f 55 237 283
f 236 296 167
f 242 217 90
f 132 395 138
f 59 436 218
f 115 338 344
f 79 380 145
f 348 385 88
f 134 375 9
f 91 340 75
f 192 356 405
f 119 244 146
f 86 115 4
f 266 360 398
f 234 354 97
f 13 411 166
f 376 110 375
f 119 353 218
f 318 387 308
f 302 39 346
f 112 152 240
f 146 96 369
f 241 27 386
f 144 231 184
f 134 302 117
f 270 140 42
f 166 55 333
f 40 434 157
f 97 224 148
f 392 355 62
f 202 250 369
f 247 373 389
f 199 42 341
f 77 405 139
f 137 264 16
f 39 407 221
f 277 196 231
f 151 157 392
f 45 9 110
f 321 129 328
f 111 58 225
f 219 270 130
f 182 108 2
f 290 24 163
f 235 279 102
f 230 258 359
f 345 365 178
f 6 84 108
f 341 323 173
f 53 70 255
f 259 136 17
f 48 330 32
f 105 69 394
f 220 427 29
f 27 153 386
f 295 164 10
f 249 174 301
f 229 353 250
f 87 172 94
f 7 285 129
f 264 394 215
f 205 367 214
f 197 93 352
f 162 81 294
f 158 426 131
f 402 175 75
f 212 73 68
f 7 129 321
f 5 28 291
f 249 330 48
f 138 282 337
f 101 386 127
f 76 180 19
f 278 366 289
f 378 3 276
f 119 146 369
f 389 277 161
f 228 169 7
f 195 113 261
f 245 418 274
f 343 163 216
f 38 46 219
f 190 236 263
f 104 436 415
f 329 186 238
f 169 423 213
f 46 331 135
f 6 147 84
f 265 239 120
f 163 380 79
f 61 124 1
f 185 430 43
f 43 306 39
f 80 399 93
f 177 354 234
f 343 120 257
f 147 268 371
f 176 301 414
f 246 213 316
f 135 293 158
f 221 334 175
f 117 302 60
f 337 251 429
f 15 180 124
f 362 171 121
f 227 176 23
f 104 119 218
f 169 213 246
f 403 327 413
f 42 131 341
f 381 122 361
f 78 428 35
f 81 21 294
f 224 92 300
f 208 378 281
f 243 123 293
f 22 248 314
f 140 158 42
f 57 275 380
f 64 133 417
f 269 4 38
f 378 244 104
f 112 142 152
f 156 323 413
f 170 247 389
f 337 106 287
f 157 355 392
f 78 37 428
f 303 109 187
f 26 415 72
f 270 199 262
f 392 109 303
f 306 226 407
f 264 215 22
f 271 433 388
f 235 102 330
f 168 181 401
f 247 289 149
f 236 295 296
f 322 96 401
f 147 242 150
f 128 324 351
f 123 367 99
f 33 18 432
f 32 83 190
f 384 139 28
f 49 362 358
f 310 104 415
f 324 177 234
f 53 191 70
f 280 5 397
f 37 100 136
f 304 318 64
f 416 276 193
f 155 227 387
f 47 95 86
f 266 300 92
f 216 145 254
f 177 255 70
f 225 58 317
f 195 18 179
f 14 73 82
f 399 251 50
f 366 197 149
f 377 30 326
f 225 317 223
f 331 54 135
f 312 422 400
f 212 94 118
f 144 184 384
f 90 103 73
f 344 298 340
f 388 33 67
f 126 164 295
f 129 273 53
f 259 17 226
f 272 211 396
f 331 344 54
f 81 12 21
f 347 101 127
f 291 421 122
f 425 288 308
f 342 254 172
f 341 173 258
f 83 127 126
f 137 362 206
f 45 110 376
f 59 31 436
f 49 358 74
f 335 201 256
f 344 340 91
f 154 193 207
f 220 29 434
f 317 382 364
f 195 44 113
f 243 214 123
f 135 54 293
f 415 436 31
f 400 51 307
f 345 269 38
f 405 122 421
f 390 305 194
f 368 235 249
f 338 361 298
f 107 93 197
f 432 261 371
f 241 386 101
f 61 297 165
f 137 16 362
f 245 74 78
f 378 104 310
f 281 168 114
f 2 108 24
f 387 374 308
f 45 335 256
f 291 381 349
f 373 25 389
f 234 97 279
f 89 412 290
f 191 120 325
f 247 149 373
f 278 289 66
f 416 193 154
f 36 8 205
f 8 327 367
f 332 173 323
f 20 156 56
f 357 132 80
f 23 395 374
f 351 324 409
f 7 169 246
f 63 269 345
f 330 347 32
f 228 294 169
f 99 403 426
f 59 218 383
f 418 78 35
f 150 14 391
f 170 66 289
f 192 188 356
f 415 31 72
f 362 16 171
f 15 225 183
f 62 299 109
f 45 98 9
f 406 66 170
f 377 309 1
f 89 290 311
f 198 321 328
f 159 303 11
f 400 50 51
f 188 390 356
f 63 153 210
f 434 190 263
f 406 261 113
f 354 224 97
f 410 333 394
f 102 101 347
f 393 141 12
f 359 173 332
f 19 180 125
f 407 17 334
f 324 364 177
f 128 351 419
f 147 371 242
f 312 400 98
f 249 235 330
f 220 434 40
f 49 363 137
f 279 97 241
f 38 4 46
f 359 258 173
f 192 201 188
f 378 310 3
f 425 250 288
f 377 326 233
f 428 136 259
f 311 290 343
f 312 352 422
f 192 256 201
f 65 272 348
f 76 304 417
f 368 409 235
f 391 14 275
f 312 98 25
f 357 374 132
f 230 292 258
f 134 43 302
f 338 298 344
f 46 135 140
f 112 168 281
f 283 427 143
f 35 259 430
f 88 385 297
f 203 359 332
f 202 369 96
f 242 313 217
f 125 284 419
f 58 382 317
f 285 246 273
f 86 95 85
f 186 271 253
f 200 159 215
f 193 276 162
f 199 341 204
f 166 237 55
f 309 88 297
f 115 344 331
f 219 46 140
f 380 275 145
f 184 77 139
f 274 50 251
f 360 349 95
f 272 7 211
f 222 424 179
f 140 135 158
f 218 353 383
f 368 301 189
f 293 54 370
f 366 149 289
f 7 246 285
f 37 20 100
f 398 360 95
f 50 260 51
f 326 417 133
f 80 429 399
f 158 293 426
f 165 198 111
f 409 279 235
f 272 228 7
f 70 325 431
f 240 181 168
f 33 432 268
f 410 394 71
f 20 56 100
f 245 78 418
f 99 327 403
f 207 88 339
f 128 419 284
f 100 56 8
f 332 323 156
f 182 238 253
f 102 241 101
f 236 126 295
f 362 121 78
f 357 308 374
f 48 29 427
f 187 167 252
f 127 386 164
f 361 340 298
f 384 28 68
f 151 303 159
f 259 226 306
f 294 21 423
f 45 376 335
f 430 306 43
f 386 178 164
f 39 221 346
f 61 15 124
f 381 338 115
f 396 211 385
f 49 206 362
f 229 250 435
f 414 283 237
f 198 328 350
f 426 403 413
f 211 198 165
f 337 287 251
f 117 188 201
f 226 17 407
f 227 189 176
f 249 48 174
f 282 395 411
f 185 43 134
f 316 257 191
f 146 401 96
f 341 131 323
f 141 404 412
f 152 339 232
f 45 25 98
f 398 286 300
f 190 83 236
f 64 41 133
f 404 2 412
f 221 175 402
f 264 314 16
f 240 232 233
f 4 115 331
f 207 65 348
f 376 375 335
f 315 181 233
f 48 32 29
f 263 236 355
f 414 237 372
f 431 325 92
f 216 79 145
f 151 392 303
f 44 336 406
f 347 127 83
f 339 88 309
f 211 7 321
f 162 294 228
f 55 143 105
f 217 103 90
f 344 91 54
f 184 196 77
f 168 401 114
f 229 278 353
f 208 114 244
f 357 107 425
f 22 11 248
f 222 160 31
f 350 52 382
f 45 256 196
f 295 130 319
f 402 75 340
f 30 1 124
f 117 60 188
f 393 26 141
f 212 82 73
f 315 326 133
f 410 71 264
f 144 267 231
f 163 57 380
f 209 156 20
f 388 18 33
f 379 220 40
f 205 8 367
f 360 397 349
f 414 174 283
f 87 94 397
f 315 41 322
f 406 336 66
f 254 145 172
f 132 374 395
f 136 36 17
f 213 34 316
f 351 409 368
f 144 384 103
f 325 239 92
f 291 28 421
f 129 53 52
f 383 278 66
f 242 90 150
f 170 161 408
f 164 178 10
f 364 255 177
f 357 80 107
f 106 410 320
f 292 262 258
f 333 105 394
f 356 361 122
f 351 368 189
f 420 130 262
f 303 187 11
f 227 419 189
f 240 152 232
f 156 413 56
f 106 363 49
f 343 265 120
f 243 293 370
f 119 369 353
f 188 60 390
f 377 1 30
f 392 62 109
f 400 422 50
f 116 260 35
f 63 47 269
f 306 407 39
f 264 22 314
f 106 137 363
f 11 230 248
f 353 278 383
f 212 118 82
f 123 99 426
f 160 271 186
f 176 414 372
f 171 209 121
f 142 154 152
f 104 244 119
f 424 31 59
f 435 425 107
f 17 36 334
f 183 128 180
f 381 115 85
f 346 402 305
f 199 204 258
f 406 170 408
f 404 238 2
f 246 316 273
f 219 130 10
f 435 197 366
f 386 153 178
f 212 280 94
f 132 429 80
f 269 86 4
f 324 317 364
f 166 411 237
f 314 203 171
f 116 35 430
f 240 233 181
f 387 23 374
f 434 263 157
f 393 415 26
f 223 317 324
f 87 239 172
f 13 166 410
f 265 254 342
f 183 324 128
f 138 395 282
f 385 211 165
f 245 274 287
f 29 190 434
f 243 75 214
f 248 230 359
f 94 280 397
f 307 51 116
f 161 277 231
f 335 375 201
f 186 253 238
f 432 371 268
f 34 343 316
f 302 346 60
f 198 350 58
f 99 367 327
f 137 320 264
f 45 196 277
f 52 53 255
f 177 431 354
f 393 310 415
f 49 137 206
f 197 352 149
f 410 264 320
f 345 38 365
f 381 361 338
f 116 51 260
f 15 111 225
f 3 393 12
f 342 172 239
f 311 343 34
f 270 42 199
f 103 384 68
f 76 155 304
f 424 59 179
f 154 339 152
f 171 203 209
f 207 348 88
f 65 228 272
f 388 67 253
f 372 237 411
f 358 78 74
f 150 90 14
f 199 258 262
f 305 340 194
f 84 150 391
f 43 39 302
f 348 396 385
f 351 189 419
f 176 189 301
f 208 244 378
f 136 100 36
f 274 260 50
f 355 299 62
f 27 210 153
f 193 65 207
f 416 154 142
f 379 69 105
f 305 402 340
f 229 366 278
f 182 67 6
f 49 245 287
f 219 140 270
f 379 40 200
f 329 31 186
f 217 313 267
f 325 120 239
f 121 209 20
f 309 297 1
f 416 281 378
f 358 362 78
f 265 216 254
f 24 108 57
f 90 73 14
f 430 259 306
f 408 161 267
f 379 105 143
f 405 356 122
f 291 122 381
f 334 36 205
f 4 331 46
f 104 218 436
f 382 52 255
f 357 425 308
f 47 86 269
f 242 371 313
f 304 155 318
f 200 151 159
f 361 194 340
f 372 411 395
f 431 92 224
f 129 52 350
f 399 50 422
f 134 117 375
f 193 162 65
f 243 370 54
f 12 89 21
f 76 124 180
f 61 111 15
f 45 277 25
f 163 79 216
f 11 187 230
f 160 179 18
f 412 2 24
f 183 223 324
f 14 82 275
f 182 6 108
f 408 267 313
f 409 234 279
f 227 23 387
f 38 219 10
f 12 141 89
f 202 41 64
f 345 178 153
f 117 201 375
f 343 216 265
f 109 299 187
f 48 427 174
f 222 31 424
f 379 143 220
f 319 420 292
f 87 397 360
f 187 299 167
f 429 251 399
f 6 67 268
f 435 107 197
f 71 394 264
f 77 192 405
f 215 394 69
f 373 352 312
f 103 68 73
f 282 411 13
f 287 274 251
f 292 420 262
f 368 249 301
f 184 139 384
f 57 391 275
f 416 142 281
f 76 19 155
f 85 95 349
f 365 38 178
f 167 319 252
f 61 1 297
f 195 336 44
f 110 9 375
f 97 27 241
f 93 422 352
f 148 210 27
f 132 138 429
f 157 263 355
f 19 125 419
f 30 76 417
f 184 231 196
f 106 49 287
f 170 289 247
f 145 118 172
f 435 250 425
f 276 81 162
f 155 419 227
f 271 388 253
f 353 369 250
f 390 194 361
f 191 257 120
f 108 84 57
f 59 336 179
f 329 72 31
f 182 2 238
f 49 74 245
f 185 134 9
f 215 159 22
f 77 256 192
f 329 238 404
f 58 350 382
f 38 10 178
f 220 143 427
f 373 149 352
f 202 288 250
f 285 273 129
f 146 244 114
f 160 18 433
f 86 85 115
f 116 430 185
f 296 319 167
f 26 404 141
f 106 320 137
f 111 198 58
f 29 32 190
f 5 291 397
f 295 319 296
f 265 342 239
f 354 431 224
f 148 224 300
f 97 148 27
f 389 25 277
f 195 261 432
f 211 321 198
f 286 63 210
f 139 405 421
f 177 70 431
f 70 191 325
f 24 57 163
f 307 116 185
f 3 12 81
f 121 20 37
f 155 387 318
f 324 234 409
f 56 413 327
f 204 341 258
f 202 322 41
f 187 292 230
f 84 391 57
f 145 275 118
f 406 408 261
f 60 346 305
f 35 428 259
f 138 337 429
f 275 82 118
f 175 214 75
f 346 221 402
f 26 329 404
f 155 19 419
f 59 383 336
f 248 359 203
f 315 133 41
f 355 236 299
f 412 24 290
f 266 398 300
f 400 307 98
f 266 239 87
f 202 64 288
f 319 292 252
f 13 410 106
f 236 167 299
f 123 214 367
f 291 349 397
f 107 80 93
f 315 322 181
f 93 399 422
f 16 314 171
f 60 305 390
f 23 372 395
f 217 267 144
f 44 406 113
f 304 64 417
f 33 268 67
f 159 11 22
f 280 28 5
f 319 130 420
f 30 124 76
f 208 281 114
f 6 268 147
f 407 334 221
# 868 faces, 0 coords texture

# End of File