####
#
# OBJ File Generated by Meshlab
#
####
# Object domain234.obj
#
# Vertices: 387
# Faces: 782
#
####
v 139.561203 291.428711 140.012863
v 129.057892 306.734741 139.930267
v 140.346985 289.480164 137.516113
v 141.251617 295.909485 138.049194
v 140.796738 280.169067 137.556427
v 139.122360 285.370270 135.808990
v 135.073105 297.980713 135.503937
v 128.970963 287.432617 142.186951
v 130.973694 289.484070 142.437851
v 128.955093 281.298950 142.173355
v 137.125732 305.858246 142.779541
v 125.692520 283.293304 137.026352
v 133.022064 291.535126 142.489151
v 137.017426 299.649170 142.912872
v 128.369232 278.960480 142.107437
v 127.995689 297.857330 141.445923
v 133.021805 281.286194 142.388077
v 130.989227 307.022919 137.548630
v 129.062073 299.996521 142.004654
v 141.022125 304.113586 136.087769
v 136.764557 278.834869 142.177933
v 135.072861 306.614471 136.519211
v 129.898743 279.601440 135.449387
v 129.204407 278.852264 142.172546
v 126.376381 297.423492 137.723602
v 126.243973 295.934845 138.470383
v 129.824768 279.600922 135.441849
v 127.183823 283.287964 141.510056
v 128.942062 293.930786 135.921326
v 137.122925 304.124573 135.619781
v 139.134827 306.516083 142.097763
v 137.127411 306.615509 136.519455
v 125.143982 280.252563 137.710342
v 129.003159 293.881683 142.106522
v 139.536697 287.399445 139.946136
v 137.123947 295.929749 135.516037
v 128.528183 306.182648 137.374466
v 127.984924 306.005188 139.574005
v 125.776077 291.377441 137.083405
v 133.021957 295.929901 142.501007
v 127.154701 295.900513 136.876816
v 136.816727 278.878143 142.177429
v 139.164856 300.031921 135.619812
v 137.125015 283.329681 135.512192
v 138.300613 291.652039 141.403107
v 128.503983 305.892914 140.672729
v 125.789070 289.476898 137.126068
v 139.113693 304.131470 142.988205
v 130.979416 302.078979 142.487625
v 130.973282 285.382141 142.442947
v 140.289383 305.975281 142.533890
v 127.358719 297.868073 136.960846
v 128.926178 297.956970 136.134766
v 141.384567 300.026611 136.417648
v 141.613647 295.939911 136.917618
v 140.175674 286.818146 138.898071
v 139.165924 295.927216 135.658051
v 135.085434 306.546722 142.089905
v 137.122864 293.878906 135.538666
v 137.075424 279.323212 140.146698
v 140.420486 304.258423 142.186981
v 138.162750 285.379211 141.462082
v 133.022003 285.381836 135.505310
v 139.122192 306.986359 139.972122
v 126.915977 281.345215 141.563400
v 128.970001 300.024048 136.226913
v 139.081589 289.483429 135.879715
v 133.038559 301.938965 142.922073
v 129.032089 297.971924 142.054504
v 133.022324 307.072998 137.551483
v 140.207306 291.879883 138.933868
v 135.068787 297.973907 142.620056
v 126.087502 293.662415 139.129990
v 127.041679 279.649078 140.109497
v 130.979431 278.769684 142.191025
v 127.734207 304.111664 137.898285
v 130.973038 287.433136 142.444931
v 137.123901 297.980927 135.510239
v 133.022430 295.929932 135.526016
v 127.998871 305.983704 138.035202
v 130.973999 291.535156 142.432892
v 127.153450 293.811279 136.621002
v 140.301727 306.307617 142.134033
v 138.602570 279.606049 135.150772
v 133.027313 304.122681 135.654602
v 140.570480 306.442230 136.533722
v 130.972366 283.330688 135.544464
v 140.941147 281.102295 135.829834
v 137.120071 307.147644 139.980850
v 131.000397 302.081543 135.742874
v 140.481522 287.372192 137.625092
v 127.548714 302.020813 137.903564
v 133.088501 306.509277 142.023514
v 128.980835 289.483215 142.165085
v 135.072418 295.930359 142.481842
v 137.046829 293.883820 142.122406
v 135.089554 304.117096 143.227158
v 139.477081 285.376373 140.150162
v 130.972137 287.433197 135.542999
v 127.902550 295.890045 141.520142
v 138.459656 293.935760 141.463638
v 126.979515 289.473572 136.286835
v 141.032974 283.329041 137.937119
v 133.024246 307.142944 139.976532
v 138.849594 302.218628 143.002960
v 137.016510 283.334015 142.054306
v 128.931137 279.181732 140.137558
v 135.068436 289.484283 142.418884
v 135.066711 283.332428 142.392487
v 126.974068 279.826874 137.655090
v 127.301857 299.959503 139.855728
v 130.973434 283.331940 142.428329
v 126.180809 280.289429 140.755920
v 140.904205 293.997040 137.677811
v 126.482552 291.508301 140.513992
v 140.845016 285.339996 137.617477
v 135.070038 293.879059 142.434265
v 135.067566 287.433197 142.411743
v 141.468918 294.985352 136.833572
v 132.990311 279.609192 137.606842
v 137.015472 285.381653 142.056885
v 125.877914 280.231689 139.789673
v 141.431381 282.869568 136.413391
v 140.311768 281.283386 138.985458
v 138.057602 279.611359 135.166092
v 127.266586 299.947876 137.764618
v 128.114792 302.009888 136.893524
v 140.023987 280.145477 138.731216
v 137.115311 302.097717 143.261566
v 124.751175 280.297119 137.426712
v 125.749939 283.276459 139.898209
v 141.488846 281.282196 136.326569
v 140.397720 283.329498 139.046234
v 128.232086 304.065918 137.004211
v 128.236847 299.960968 141.438522
v 128.233490 303.697693 141.158951
v 137.123886 300.032166 135.510193
v 135.073151 302.082947 135.512482
v 128.951370 289.482056 135.745041
v 133.013672 281.366272 135.855621
v 141.486771 297.892670 137.947159
v 135.038071 278.763519 142.192886
v 130.981140 279.401489 137.397919
v 133.019928 297.979034 142.564102
v 125.643456 287.335480 139.580582
v 130.973999 295.929840 142.436096
v 129.002396 295.930542 142.116379
v 137.009094 287.433441 142.051208
v 133.022141 283.332977 135.550095
v 141.700745 302.084686 137.487076
v 140.954193 299.990356 139.944962
v 141.467331 297.973450 136.388672
v 137.123093 279.577576 137.543533
v 140.212540 288.071381 138.630371
v 135.073456 304.125549 135.612228
v 137.616058 278.890289 142.112732
v 141.033386 306.032745 136.289795
v 137.027679 291.537659 142.072189
v 140.012253 289.478699 136.557098
v 139.086914 279.733398 137.494980
v 129.088242 306.776184 137.667007
v 129.667587 279.582733 135.223755
v 139.054611 300.044861 142.465225
v 137.011078 281.289459 142.000916
v 141.513321 281.280792 136.845276
v 139.739365 298.561249 141.559509
v 141.045059 295.970123 136.088486
v 125.409058 281.084900 136.971497
v 139.130844 297.918488 141.925064
v 137.126114 306.561249 142.094635
v 139.158249 304.118835 135.713135
v 127.034782 291.509735 136.356506
v 127.799561 299.960205 136.940079
v 133.021362 279.053284 140.126312
v 140.105179 287.384979 136.554291
v 135.073517 307.170074 139.982254
v 131.087357 306.601013 141.551666
v 126.474579 293.875092 140.106873
v 141.639999 302.090668 138.451401
v 128.975327 285.381012 142.179474
v 140.275894 302.268921 142.044281
v 141.006653 300.031219 136.065521
v 127.646576 293.876038 141.415985
v 141.353882 306.100769 138.883148
v 141.675858 305.289429 138.487000
v 140.179443 289.485321 138.603851
v 125.492538 289.505341 137.861404
v 135.073090 287.433197 135.501831
v 133.010651 278.764923 142.194565
v 139.460861 289.511414 139.977142
v 129.910645 306.583252 136.736801
v 133.021942 289.484100 142.488495
v 140.291870 285.369507 138.965073
v 137.113541 304.109589 143.234940
v 128.207947 304.699158 140.879013
v 139.165054 297.981110 135.620605
v 126.894814 283.324524 136.200241
v 129.258469 305.992462 141.459885
v 128.927872 279.485657 137.533081
v 125.698746 289.479492 139.369827
v 133.749313 302.790497 143.121613
v 126.952652 297.928650 139.865356
v 125.770073 287.426453 137.093109
v 131.090439 278.791901 142.199402
v 135.073013 293.878937 135.502304
v 124.728996 280.500092 137.383194
v 130.975128 306.629272 136.513565
v 126.363739 289.474640 140.575729
v 137.014114 289.487518 142.057449
v 132.541397 303.988098 142.920227
v 125.443909 287.423950 137.861374
v 127.461502 289.469757 141.535858
v 135.765961 300.774567 143.106781
v 126.081161 293.609680 137.697906
v 141.410675 280.272217 136.718048
v 127.295403 287.338959 141.567734
v 137.121490 307.066101 137.553131
v 141.407333 283.329834 136.858185
v 140.791168 306.555573 137.519958
v 140.243896 290.614990 138.623611
v 130.973892 281.288361 142.353714
v 139.124527 293.882416 135.795273
v 128.792709 295.955505 136.083344
v 129.004639 302.071136 136.286453
v 138.167145 283.334259 141.463440
v 135.068619 291.535217 142.419388
v 141.247772 304.118835 140.142441
v 127.511063 291.523560 141.482269
v 131.072403 306.027069 136.157135
v 134.928940 278.786194 142.201157
v 129.525177 278.849060 142.158905
v 128.963501 291.532318 135.802734
v 130.989807 297.979645 135.686661
v 133.022781 297.980835 135.533417
v 127.257462 285.371582 141.451447
v 135.073044 307.076538 137.551895
v 139.131989 306.964813 137.551407
v 135.067795 285.382172 142.412537
v 130.971954 285.382050 135.537659
v 141.387787 302.087616 136.419678
v 125.802757 285.327698 139.759598
v 130.974045 293.879120 142.432770
v 127.655525 304.132385 139.955673
v 133.440628 304.141449 143.114044
v 141.739914 304.139313 138.485397
v 125.759644 285.376465 137.069855
v 139.510284 283.333496 140.165115
v 137.089615 295.937866 142.261307
v 140.143097 300.302216 141.614243
v 137.122833 285.381470 135.544113
v 133.022018 278.754150 142.209976
v 128.943024 281.157562 135.660995
v 140.685638 298.036560 139.927612
v 128.940186 285.381073 135.698105
v 133.022018 287.433105 142.487930
v 141.641281 298.019409 136.963104
v 139.327972 281.344727 140.056412
v 128.939072 283.329559 135.688004
v 140.102570 304.975464 142.663559
v 133.022049 293.878937 142.489075
v 128.943451 287.432159 135.717667
v 133.021912 285.381836 142.486755
v 135.206879 280.376587 136.446289
v 138.645660 279.600586 135.206894
v 135.071060 279.098358 140.132614
v 138.725525 279.602875 135.169571
v 128.989639 291.534790 142.134140
v 126.915070 287.446442 136.263245
v 130.972763 289.484131 135.552750
v 133.021988 289.484070 135.505356
v 131.086838 306.020447 142.102432
v 141.104874 284.657776 137.007217
v 139.158478 283.321014 135.655518
v 136.429581 278.828400 142.165329
v 128.895676 304.174438 141.738251
v 138.088776 281.309174 141.402161
v 130.975677 281.271729 135.638687
v 132.899765 280.327881 136.469070
v 139.088608 287.431885 135.866150
v 141.733932 304.126312 137.492523
v 134.946472 300.048584 142.927261
v 133.021942 283.331512 142.467896
v 130.991760 307.056732 139.966354
v 125.441681 285.313232 137.861221
v 130.973007 300.034515 142.461578
v 129.134216 278.899689 142.170746
v 141.005356 283.350586 136.248138
v 135.073059 289.484161 135.501907
v 133.023209 300.032196 135.542801
v 126.319786 287.663605 140.636444
v 141.516373 305.969971 137.556229
v 129.412933 279.561310 134.963135
v 135.081757 305.862549 142.771912
v 137.121994 306.001465 136.045502
v 138.111710 287.434784 141.452652
v 141.080383 305.959930 139.962692
v 125.349609 283.283508 137.764923
v 137.143860 281.256500 135.467209
v 126.908524 285.375549 136.236893
v 126.036270 280.821716 140.953247
v 133.246170 305.918488 142.691177
v 126.063515 292.703491 137.103683
v 141.028580 297.982117 136.047501
v 141.006912 302.081879 136.067383
v 128.205811 306.587219 139.127701
v 125.434296 280.412354 137.135239
v 139.169525 306.609192 136.531464
v 128.940048 302.034332 141.815659
v 127.209129 280.367798 136.576950
v 124.977066 281.000580 137.574112
v 133.023895 302.082703 135.555725
v 126.313560 295.891968 137.824661
v 135.073013 285.382080 135.505692
v 128.279785 306.635620 138.342346
v 125.616470 291.462921 137.614944
v 126.684105 295.787628 139.996857
v 138.773376 296.068939 141.631348
v 126.906242 281.363037 136.290512
v 133.022064 287.433136 135.503738
v 135.073059 300.031982 135.503937
v 137.122223 289.484161 135.546356
v 135.073090 295.929962 135.501587
v 130.985825 304.125946 142.471558
v 137.121994 287.433044 135.549637
v 130.980392 295.929474 135.644104
v 140.048935 291.610077 136.569550
v 139.149216 305.873260 142.705978
v 137.121765 291.535126 135.553101
v 130.974091 297.981018 142.436523
v 139.760376 301.926910 142.539047
v 141.401672 280.233643 136.284760
v 135.073029 291.535126 135.502289
v 125.845154 291.405640 139.331848
v 141.429230 304.134521 136.397690
v 133.003540 300.015778 142.708038
v 140.573471 294.081757 136.475952
v 133.022110 291.535126 135.508682
v 140.435440 293.903778 139.050217
v 133.031006 306.000885 136.057098
v 137.227371 300.519012 143.121964
v 131.017899 304.119904 135.839874
v 135.076828 279.607300 137.614609
v 140.587784 285.254578 136.573242
v 128.128860 302.076355 141.195160
v 138.125931 289.603424 141.454102
v 139.152252 306.005432 136.088455
v 133.013596 306.612335 136.523438
v 135.073532 306.000305 136.045639
v 135.088715 302.100067 143.221603
v 139.779816 293.876892 140.120712
v 125.536255 281.435333 139.901642
v 141.468048 295.936981 136.393112
v 141.025269 281.316559 137.928543
v 139.241730 281.151917 135.451019
v 129.335144 305.989075 136.635345
v 141.234863 302.078369 139.894012
v 140.500961 296.086700 139.674271
v 128.968445 283.332947 142.191559
v 140.619598 306.537537 139.780029
v 138.701447 280.066223 139.825409
v 133.022171 293.878998 135.514816
v 130.971100 279.041290 140.124893
v 140.980942 280.071289 135.688324
v 130.976898 293.878601 135.608871
v 140.481537 306.047638 142.275681
v 141.375717 295.042206 136.474854
v 139.163681 302.082092 135.630341
v 135.125763 281.349060 135.881393
v 129.684692 306.426147 141.354736
v 141.350922 305.657074 136.419495
v 130.994675 300.031189 135.711899
v 127.553391 302.034607 140.009598
v 137.119354 297.977051 142.528519
v 135.075043 283.331451 135.553802
v 129.080704 304.105469 136.393372
v 140.410629 291.585938 137.618134
v 140.461578 280.016876 135.498566
v 138.365387 300.646881 142.941635
v 135.067139 281.288849 142.322144
v 130.973785 291.535126 135.570938
v 141.565491 299.865509 138.305267
v 139.761963 295.626648 140.584747
v 141.666595 300.036987 137.467957
v 126.480568 297.926788 137.909546
v 139.081421 291.536835 135.883743
v 137.123810 302.082916 135.518707
v 132.417755 305.839752 142.587509
# 387 vertices, 0 vertices normals

f 120 265 342
f 242 260 13
f 28 10 65
f 180 8 50
f 77 9 255
f 381 150 383
f 266 377 88
f 340 378 163
f 65 10 231
f 248 317 101
f 229 347 207
f 211 246 203
f 79 322 234
f 220 376 3
f 17 379 230
f 88 132 287
f 49 68 335
f 309 199 23
f 206 130 306
f 78 196 137
f 360 5 160
f 260 40 117
f 45 1 190
f 345 45 190
f 251 189 75
f 67 159 385
f 174 265 120
f 278 120 342
f 187 211 203
f 36 57 78
f 22 236 347
f 333 315 214
f 7 36 78
f 80 314 305
f 282 109 379
f 36 222 57
f 308 344 136
f 37 161 80
f 187 145 211
f 84 266 354
f 23 27 252
f 8 94 77
f 214 312 73
f 35 190 154
f 42 257 360
f 316 73 26
f 250 273 6
f 343 218 272
f 28 131 235
f 97 244 301
f 7 289 234
f 184 185 296
f 53 66 173
f 226 117 158
f 293 58 11
f 21 274 142
f 89 31 170
f 180 50 112
f 254 268 299
f 212 208 228
f 145 290 216
f 74 113 286
f 11 327 48
f 226 158 209
f 331 165 132
f 264 84 298
f 5 128 124
f 94 212 228
f 34 242 81
f 223 53 41
f 175 3 159
f 267 34 81
f 114 55 119
f 381 179 150
f 304 54 240
f 316 26 384
f 257 133 124
f 163 378 105
f 139 269 232
f 95 248 96
f 50 262 282
f 186 3 91
f 297 168 12
f 12 318 197
f 22 32 217
f 385 326 222
f 189 17 230
f 151 249 181
f 251 230 189
f 7 234 322
f 98 35 56
f 214 39 302
f 274 164 42
f 174 120 143
f 313 44 250
f 99 63 319
f 343 272 116
f 194 48 105
f 209 345 295
f 72 144 335
f 60 360 153
f 23 292 27
f 206 168 310
f 9 192 255
f 153 360 160
f 342 60 153
f 372 136 344
f 177 93 387
f 338 357 114
f 217 237 64
f 283 104 93
f 90 311 341
f 267 228 183
f 236 70 347
f 232 29 82
f 380 270 337
f 326 114 336
f 346 157 86
f 278 140 277
f 332 321 328
f 328 385 59
f 323 271 210
f 310 351 122
f 173 92 126
f 276 225 247
f 371 234 289
f 253 166 249
f 84 377 266
f 118 148 121
f 170 31 327
f 279 343 175
f 317 253 357
f 213 340 14
f 4 256 55
f 187 315 200
f 275 243 195
f 23 27 162
f 50 77 262
f 337 288 332
f 320 78 137
f 126 92 111
f 236 217 89
f 61 365 296
f 359 296 83
f 79 205 322
f 2 177 369
f 14 163 169
f 286 300 65
f 112 17 221
f 46 38 305
f 263 264 368
f 356 179 381
f 242 146 260
f 40 144 95
f 317 169 253
f 287 218 343
f 355 207 191
f 74 231 107
f 243 80 38
f 274 379 164
f 358 180 112
f 190 1 186
f 310 122 33
f 53 325 233
f 135 111 372
f 375 341 355
f 63 313 319
f 114 357 4
f 198 2 369
f 373 14 169
f 41 25 312
f 225 98 247
f 281 349 213
f 210 301 244
f 147 146 242
f 195 46 198
f 64 359 83
f 161 2 314
f 33 74 110
f 30 171 294
f 320 311 289
f 109 238 106
f 46 305 2
f 367 182 304
f 34 100 147
f 47 268 102
f 224 375 134
f 161 314 80
f 363 5 215
f 211 241 284
f 22 217 236
f 223 41 82
f 92 127 76
f 270 188 288
f 14 340 163
f 342 265 60
f 372 92 76
f 273 287 6
f 379 109 164
f 227 296 245
f 189 174 362
f 282 262 109
f 35 154 91
f 297 351 310
f 8 212 94
f 58 170 11
f 132 165 218
f 148 295 62
f 145 208 290
f 10 221 204
f 329 144 40
f 34 147 242
f 336 114 119
f 351 131 28
f 251 75 204
f 264 160 84
f 216 290 212
f 281 335 68
f 360 128 5
f 290 208 212
f 258 252 277
f 121 62 225
f 367 304 171
f 72 281 373
f 307 86 219
f 24 75 204
f 358 112 221
f 147 16 69
f 373 169 317
f 364 337 361
f 125 266 84
f 237 359 64
f 169 163 249
f 132 218 123
f 297 284 241
f 20 240 334
f 286 24 15
f 159 376 326
f 51 83 365
f 61 227 356
f 264 125 84
f 291 185 184
f 81 242 13
f 274 265 230
f 371 289 90
f 217 64 89
f 364 361 325
f 333 178 115
f 21 274 156
f 68 244 201
f 327 31 51
f 157 219 86
f 161 283 2
f 358 235 180
f 340 129 378
f 222 336 57
f 112 50 282
f 262 255 238
f 179 245 280
f 214 315 39
f 40 95 117
f 155 30 348
f 288 324 321
f 352 256 152
f 291 334 280
f 308 275 49
f 7 320 289
f 319 188 270
f 327 51 259
f 294 171 346
f 188 324 288
f 258 277 87
f 187 200 145
f 253 249 151
f 102 172 39
f 29 380 364
f 336 366 167
f 67 175 159
f 278 263 140
f 21 230 274
f 106 121 225
f 349 201 244
f 355 191 161
f 286 113 300
f 120 27 143
f 232 380 29
f 303 352 152
f 353 103 218
f 140 368 149
f 287 123 218
f 206 310 130
f 258 87 254
f 291 219 157
f 261 239 99
f 188 250 324
f 349 340 213
f 376 71 338
f 29 223 82
f 151 181 356
f 22 347 339
f 122 113 74
f 74 107 110
f 176 89 170
f 254 261 268
f 63 374 313
f 19 135 308
f 32 237 217
f 182 152 54
f 368 298 374
f 59 385 222
f 302 172 82
f 66 233 371
f 37 134 355
f 331 215 165
f 133 193 103
f 368 264 298
f 222 326 336
f 274 230 379
f 250 6 324
f 45 101 350
f 66 127 173
f 308 49 285
f 66 224 127
f 84 5 363
f 74 286 231
f 358 221 10
f 178 183 115
f 181 61 356
f 7 322 36
f 105 181 330
f 147 100 16
f 297 131 351
f 2 283 177
f 278 342 263
f 173 126 52
f 94 9 77
f 236 89 176
f 121 148 62
f 291 184 359
f 291 370 334
f 341 85 229
f 48 327 259
f 6 287 343
f 152 256 383
f 353 133 103
f 25 384 312
f 363 331 88
f 34 183 100
f 372 76 243
f 192 108 118
f 23 143 27
f 171 20 346
f 26 312 384
f 267 81 9
f 285 335 144
f 78 57 196
f 258 197 252
f 248 373 317
f 101 317 382
f 361 205 79
f 154 186 91
f 69 16 135
f 187 47 315
f 351 65 300
f 348 22 339
f 235 131 241
f 313 250 188
f 261 102 268
f 135 372 344
f 23 162 292
f 275 198 323
f 169 249 166
f 161 191 18
f 109 106 164
f 139 99 269
f 240 280 334
f 24 231 75
f 358 10 28
f 54 383 150
f 336 119 366
f 239 63 99
f 255 118 238
f 45 350 1
f 76 127 134
f 69 329 146
f 286 65 231
f 130 33 306
f 72 373 248
f 184 296 359
f 369 177 271
f 57 336 167
f 269 270 380
f 72 335 281
f 54 150 240
f 152 383 54
f 26 73 312
f 352 55 256
f 108 209 148
f 386 43 367
f 155 339 85
f 358 28 235
f 69 135 19
f 11 170 327
f 321 279 67
f 310 33 130
f 176 170 58
f 210 387 301
f 145 216 241
f 281 14 373
f 23 199 143
f 187 203 47
f 266 88 354
f 96 101 45
f 288 321 332
f 303 152 182
f 4 141 256
f 297 310 168
f 16 202 135
f 189 204 75
f 53 233 66
f 189 230 142
f 322 59 36
f 103 193 116
f 375 90 341
f 47 102 39
f 146 329 40
f 140 263 368
f 44 354 273
f 58 93 104
f 90 289 311
f 41 312 82
f 299 246 197
f 116 56 91
f 275 195 198
f 99 319 269
f 12 197 246
f 355 229 207
f 191 207 18
f 8 77 50
f 231 10 204
f 135 202 111
f 53 52 41
f 263 342 153
f 107 204 362
f 264 266 125
f 114 4 55
f 96 248 101
f 293 301 93
f 372 111 92
f 1 220 186
f 147 69 146
f 261 99 139
f 18 70 104
f 374 298 44
f 247 98 193
f 37 76 134
f 354 88 273
f 384 111 202
f 353 218 165
f 88 331 132
f 179 280 150
f 387 93 301
f 293 11 194
f 146 40 260
f 198 369 271
f 225 62 98
f 308 135 344
f 149 374 63
f 317 357 382
f 72 95 144
f 229 339 347
f 236 176 70
f 57 167 196
f 239 149 63
f 348 32 22
f 13 226 108
f 43 182 367
f 15 24 231
f 343 116 91
f 35 91 56
f 87 140 149
f 137 43 386
f 6 343 279
f 138 137 386
f 207 70 18
f 254 87 239
f 163 181 249
f 7 78 320
f 158 45 345
f 337 332 361
f 107 362 199
f 267 183 34
f 366 119 55
f 360 124 128
f 278 27 120
f 44 273 250
f 285 49 335
f 320 137 138
f 238 121 106
f 275 136 243
f 231 204 107
f 189 362 204
f 324 6 279
f 176 104 70
f 237 219 359
f 46 2 198
f 346 86 307
f 49 323 68
f 189 204 221
f 207 347 70
f 106 225 276
f 274 60 265
f 52 126 384
f 238 118 121
f 145 241 211
f 186 220 3
f 148 209 295
f 333 73 178
f 180 235 216
f 190 186 154
f 180 216 8
f 245 296 185
f 262 238 109
f 271 177 387
f 98 56 193
f 233 234 371
f 294 307 32
f 129 194 105
f 107 199 110
f 69 19 329
f 323 210 68
f 182 54 304
f 264 84 266
f 227 245 179
f 8 216 212
f 309 110 199
f 16 100 316
f 269 319 270
f 231 204 75
f 33 122 74
f 112 282 17
f 333 115 200
f 224 371 90
f 278 277 27
f 137 196 43
f 141 383 256
f 53 173 52
f 129 105 378
f 101 382 350
f 174 143 362
f 295 190 35
f 1 350 338
f 258 299 197
f 193 56 116
f 81 13 192
f 224 90 375
f 350 382 357
f 349 97 129
f 348 30 294
f 281 213 14
f 196 167 303
f 24 204 231
f 376 338 114
f 205 59 322
f 176 58 104
f 329 285 144
f 5 165 215
f 164 106 276
f 385 159 326
f 252 27 277
f 220 71 376
f 163 330 181
f 43 303 182
f 62 35 98
f 274 42 60
f 273 88 287
f 195 243 38
f 196 303 43
f 279 175 67
f 168 306 309
f 33 110 309
f 298 354 44
f 333 200 315
f 145 200 208
f 343 91 175
f 251 204 189
f 304 240 20
f 299 203 246
f 167 366 352
f 108 226 209
f 189 221 17
f 13 260 226
f 87 277 140
f 17 282 379
f 386 367 30
f 139 232 172
f 32 307 237
f 157 334 370
f 324 279 321
f 316 178 73
f 375 355 134
f 309 23 318
f 281 68 349
f 19 285 329
f 319 313 188
f 37 80 76
f 308 136 275
f 5 353 165
f 84 363 377
f 31 83 51
f 294 346 307
f 47 39 315
f 206 306 168
f 117 96 158
f 356 227 179
f 291 245 185
f 292 162 27
f 124 133 353
f 97 301 293
f 320 138 311
f 163 105 330
f 270 288 337
f 205 328 59
f 254 239 261
f 94 267 9
f 138 155 85
f 200 115 208
f 297 241 131
f 171 304 20
f 361 332 205
f 2 305 314
f 209 158 345
f 316 183 178
f 349 129 340
f 291 359 219
f 158 96 45
f 167 352 303
f 351 28 65
f 12 246 284
f 37 355 161
f 240 150 280
f 139 172 102
f 97 293 194
f 62 295 35
f 274 230 142
f 174 230 265
f 117 95 96
f 232 82 172
f 42 276 257
f 151 356 381
f 328 67 385
f 138 386 155
f 64 83 31
f 366 55 352
f 228 208 115
f 283 93 177
f 260 117 226
f 118 108 148
f 29 364 223
f 261 139 102
f 60 42 360
f 276 247 257
f 380 337 364
f 214 82 312
f 21 156 42
f 275 323 49
f 197 318 252
f 243 76 80
f 23 252 318
f 68 210 244
f 325 361 79
f 321 67 328
f 195 38 46
f 122 300 113
f 4 253 141
f 286 15 231
f 87 149 239
f 229 85 339
f 149 368 374
f 18 104 283
f 48 259 61
f 138 85 311
f 307 219 237
f 298 84 354
f 360 257 124
f 326 376 114
f 80 305 38
f 168 309 318
f 72 248 95
f 155 386 30
f 199 362 143
f 16 316 202
f 224 134 127
f 194 11 48
f 257 247 133
f 286 231 24
f 291 280 245
f 287 132 123
f 103 116 272
f 105 48 61
f 341 311 85
f 255 192 118
f 5 124 353
f 19 308 285
f 173 127 92
f 247 193 133
f 211 284 246
f 33 309 306
f 59 222 36
f 105 61 181
f 20 334 157
f 21 142 230
f 47 203 268
f 349 68 201
f 333 214 73
f 350 357 338
f 363 88 377
f 259 51 365
f 223 364 325
f 168 318 12
f 223 325 53
f 233 79 234
f 189 230 174
f 264 153 160
f 253 151 141
f 374 44 313
f 235 241 216
f 41 52 25
f 84 160 5
f 349 244 97
f 198 271 323
f 94 228 267
f 9 81 192
f 25 52 384
f 77 255 262
f 89 64 31
f 175 91 3
f 83 296 365
f 151 381 141
f 161 18 283
f 258 254 299
f 232 269 380
f 61 296 227
f 299 268 203
f 103 272 218
f 1 338 71
f 316 100 183
f 293 93 58
f 263 153 264
f 122 351 300
f 61 259 365
f 384 126 111
f 228 115 183
f 97 194 129
f 192 13 108
f 21 42 274
f 164 276 42
f 159 3 376
f 372 243 136
f 316 384 202
f 169 166 253
f 357 253 4
f 155 348 339
f 251 142 230
f 214 302 82
f 297 12 284
f 295 345 190
f 302 39 172
f 30 367 171
f 271 387 210
f 332 328 205
f 1 71 220
f 141 381 383
f 251 189 142
f 291 157 370
f 355 341 229
f 363 215 331
f 66 371 224
f 274 42 156
f 348 294 32
f 325 79 233
f 346 20 157
# 782 faces, 0 coords texture

# End of File