####
#
# OBJ File Generated by Meshlab
#
####
# Object Volume_151.obj
#
# Vertices: 459
# Faces: 948
#
####
v 128.024918 329.736786 132.477249
v 124.328079 328.465851 126.437637
v 130.964554 335.708679 126.046303
v 131.833527 343.692108 134.588135
v 127.972168 352.856598 123.924194
v 129.170975 328.717163 124.082512
v 130.073700 353.849060 136.908737
v 123.233185 345.739471 135.979950
v 131.670166 345.742218 128.222244
v 125.989891 328.620331 128.467377
v 131.408905 336.874634 133.823502
v 130.963089 331.883148 136.380310
v 124.623154 351.748016 128.424744
v 126.050880 353.672119 136.961319
v 123.004242 331.657013 134.388855
v 123.319893 339.880585 128.499054
v 128.026123 328.682800 128.450485
v 123.495598 340.024414 137.933746
v 123.475060 341.630005 122.751945
v 131.372391 347.599518 132.842728
v 129.954773 330.457733 132.475266
v 131.348251 347.525848 132.848404
v 123.088257 341.113434 134.731628
v 129.408890 332.144653 138.121536
v 131.737076 347.807739 130.659500
v 130.025467 331.006897 136.534012
v 126.009911 339.876160 139.450867
v 128.041550 353.575775 134.511917
v 130.895996 331.058472 135.855072
v 126.060417 353.324219 134.544739
v 131.607391 337.853821 137.009888
v 131.358246 341.637787 126.772308
v 128.038681 345.738434 122.462013
v 123.533058 329.434357 130.525375
v 129.454895 343.684174 123.104889
v 131.234604 339.987976 132.751297
v 130.957291 352.680023 132.854492
v 123.199577 339.880188 130.478928
v 124.200958 331.593445 137.596100
v 131.232788 352.292450 130.495865
v 123.634567 349.870605 134.622406
v 126.004005 330.641754 136.727158
v 128.030380 353.983246 136.885468
v 123.451241 343.775848 130.386734
v 126.181175 349.845123 139.713028
v 126.185440 349.821167 122.328773
v 124.295334 349.835236 138.828033
v 123.027710 333.722076 124.557480
v 128.041245 353.056976 128.500214
v 128.023849 331.674866 122.446556
v 123.200768 333.719269 128.501663
v 129.963425 333.797302 138.558594
v 124.659332 329.648773 121.363930
v 126.083878 335.802063 139.081345
v 130.857452 333.730499 126.171631
v 131.654663 345.738556 130.773529
v 131.294434 333.724884 133.856842
v 123.165535 344.590820 135.953232
v 128.041092 343.698639 122.432426
v 122.932465 337.843811 134.535919
v 123.452721 345.753021 132.494446
v 130.841141 330.943359 135.307419
v 129.264572 331.676880 123.218475
v 123.021149 331.608093 130.988754
v 131.341812 341.682434 138.557098
v 128.042145 353.577332 139.783524
v 124.075226 333.709015 121.399071
v 123.360176 341.639496 126.502327
v 122.746956 331.571564 122.009377
v 129.433975 351.858398 123.123764
v 131.336151 347.200531 132.831558
v 124.558067 335.849884 138.465561
v 123.284882 335.521454 122.037308
v 125.671295 328.431366 122.574112
v 122.908859 335.638550 132.606750
v 131.270309 345.737518 132.796371
v 126.056885 353.064697 132.535629
v 131.424423 335.919586 136.857544
v 128.025620 335.806702 139.296860
v 131.237335 340.133453 132.742935
v 123.252075 335.780029 128.497070
v 128.041122 353.319702 132.504669
v 131.640656 341.638397 130.770523
v 123.119850 331.684570 128.501694
v 123.188301 334.413239 126.617195
v 131.249008 352.281982 128.550079
v 132.553772 349.718231 137.023590
v 124.396461 341.640961 138.737122
v 131.260010 333.812531 136.954666
v 131.521179 352.825684 135.006454
v 131.479965 347.833435 138.780624
v 124.319557 351.550079 132.658264
v 125.992104 328.250793 126.488564
v 130.919861 346.144653 123.894440
v 130.925262 331.691010 134.001221
v 131.624207 337.831024 134.812943
v 130.697388 333.466888 137.777008
v 131.430405 335.739655 128.352737
v 123.391899 331.745392 136.537903
v 123.193123 341.592072 131.522873
v 122.913017 333.710419 123.282585
v 123.159157 343.684509 134.610779
v 132.440643 352.684723 138.545334
v 127.914963 332.004669 138.443054
v 127.987106 337.670929 139.682846
v 130.894287 345.806549 123.887566
v 130.214310 341.672729 124.142242
v 123.213661 329.683075 126.442352
v 129.259796 338.857727 139.895081
v 130.099396 330.667938 134.342316
v 130.828415 350.785583 123.905357
v 123.331390 345.724579 137.164291
v 131.222443 339.147705 132.720490
v 127.996964 333.796265 138.983261
v 122.441605 327.728363 121.247307
v 123.198456 337.829010 124.527405
v 122.863785 335.792145 134.512451
v 123.425751 347.991943 134.636688
v 126.205841 345.744141 139.622986
v 123.093658 331.511688 129.968277
v 123.039879 331.635681 126.486786
v 123.469658 341.618042 137.922760
v 131.935699 341.668427 136.906219
v 131.221985 333.714233 132.527512
v 132.075729 349.858124 134.611160
v 128.120712 341.637756 140.037903
v 130.902985 348.463470 123.892990
v 130.898895 346.681702 123.888229
v 123.908035 345.705414 124.111816
v 127.873665 335.777771 122.323753
v 131.712341 347.795807 128.205765
v 124.319313 347.820038 138.798416
v 131.331696 333.740875 134.843094
v 130.765488 351.279633 123.893944
v 130.056946 353.803009 139.696930
v 123.257515 341.661743 130.499893
v 124.020569 349.829865 128.497314
v 122.537407 327.688599 121.244644
v 124.955368 347.676697 122.756355
v 122.908966 331.793945 124.079483
v 127.976799 331.211700 137.732361
v 131.348724 339.880493 126.774910
v 131.233704 345.111328 125.877815
v 123.049019 339.870636 132.528702
v 130.109482 331.675415 137.360657
v 122.927437 333.606903 121.949471
v 127.933716 333.809662 122.366623
v 126.117584 351.803589 122.445251
v 123.597633 327.707397 121.226143
v 131.642670 341.638733 128.238022
v 123.778275 347.795349 128.505280
v 123.609962 327.678375 121.230469
v 125.846764 352.545197 122.730209
v 130.120361 335.791260 124.140793
v 130.997208 337.630676 125.871132
v 124.362862 337.754181 122.003044
v 128.030869 349.835510 122.502060
v 123.401550 330.609375 132.449036
v 123.502335 343.635956 128.431244
v 125.947853 328.079865 124.093025
v 131.325073 345.786621 126.354851
v 130.109055 354.074066 139.518097
v 122.004608 329.012268 121.679192
v 129.607849 329.013519 126.301613
v 131.638245 351.771240 132.818741
v 126.163925 343.662262 122.155785
v 130.662888 349.645660 139.729202
v 123.216934 335.748352 136.813263
v 124.271042 341.591309 122.283134
v 131.631241 343.689789 128.239731
v 126.048347 352.823914 126.491600
v 122.977859 331.812378 132.750961
v 124.401466 339.888367 138.709457
v 130.272659 329.798950 126.259285
v 128.020676 330.129730 134.461456
v 123.145332 335.778992 130.473618
v 125.213821 352.437225 128.443497
v 123.312363 347.861359 135.982391
v 131.875854 345.748535 134.578735
v 129.603851 341.644623 139.932297
v 124.304100 329.940857 132.337051
v 132.212921 347.832550 136.978180
v 125.951553 339.874207 121.937172
v 129.492599 345.740448 123.063400
v 131.063812 331.638611 128.202881
v 131.609421 339.891022 130.767563
v 131.341156 343.686584 138.635422
v 124.088516 327.989960 121.742027
v 123.164726 337.829163 130.475403
v 122.846970 333.747559 134.482147
v 131.941940 354.196808 139.214325
v 125.541595 354.276947 139.293945
v 123.391899 341.634827 128.500000
v 123.097054 339.880341 131.505249
v 129.184402 329.663086 123.315033
v 131.243881 341.717285 132.763351
v 125.175720 351.683990 122.821854
v 126.217461 343.692383 139.589050
v 126.221573 341.621399 139.602005
v 123.100899 335.775787 123.235771
v 130.845596 351.859650 139.738312
v 123.574860 345.775482 130.622803
v 123.983536 349.832275 130.502075
v 131.615799 339.890106 128.240662
v 128.967758 328.752899 123.535919
v 131.223068 338.696564 132.705048
v 124.187515 349.779388 124.136467
v 123.280357 337.829590 126.502701
v 123.359116 349.715759 137.664001
v 130.503387 329.398163 128.981491
v 131.945450 349.837128 138.772522
v 124.542542 351.544220 124.106285
v 125.023262 352.338623 126.444160
v 123.091034 331.502655 127.615547
v 129.626358 345.741699 139.966782
v 126.178589 347.787750 122.269379
v 123.519432 331.145081 136.127411
v 124.590881 354.296692 139.202286
v 130.697113 329.808624 128.042786
v 131.295395 337.844879 126.792725
v 124.737366 353.044495 137.103531
v 124.252029 339.832855 122.200531
v 127.952415 328.268433 124.152481
v 123.775146 329.613068 121.132599
v 123.153435 331.565186 121.324921
v 126.050102 337.831940 139.278687
v 130.227158 337.846130 124.178093
v 130.815125 351.228241 123.895058
v 129.374252 339.885010 123.106567
v 130.909119 347.567657 123.892906
v 125.991760 329.645233 132.493484
v 131.359970 335.768555 132.570724
v 124.609856 333.746063 138.344620
v 122.718498 329.470459 121.388618
v 123.110329 335.781036 124.537529
v 123.229095 333.723785 136.720154
v 126.838058 353.622498 139.791367
v 123.217049 339.879883 124.523743
v 122.235535 329.637726 122.029724
v 123.684044 347.768646 138.149155
v 122.799721 329.657898 123.816086
v 128.746201 338.499542 139.907593
v 127.844742 341.684113 122.326218
v 130.014969 351.920776 140.024811
v 129.454208 340.047394 139.938065
v 131.149002 351.846954 126.373390
v 131.476135 335.858002 134.964676
v 125.994438 330.045807 134.473587
v 131.580185 351.743988 130.679779
v 123.912880 351.867065 136.767471
v 123.592216 347.773010 132.525238
v 130.879379 354.117706 139.488449
v 123.681320 335.782471 137.716797
v 131.758148 349.777191 130.827637
v 129.500320 347.791809 123.053276
v 124.513008 351.692719 126.473526
v 123.317131 339.880310 126.501343
v 131.015961 331.727112 130.767105
v 126.030518 331.177063 137.746399
v 125.420029 354.299225 139.278351
v 124.327202 330.333679 134.417358
v 127.847122 328.620544 123.237343
v 131.253799 343.716644 132.775330
v 131.643112 343.687714 130.770538
v 123.250809 335.782501 126.503181
v 124.306946 328.076569 124.012451
v 127.304070 339.723389 139.867004
v 123.029549 335.779297 131.492523
v 123.713280 347.799622 130.805374
v 131.272919 340.094238 138.443985
v 130.247345 339.892639 124.112602
v 126.067192 352.818268 123.878609
v 122.093842 328.120819 121.516808
v 124.828049 345.673737 122.728897
v 123.102570 333.917023 130.275131
v 125.933838 335.782166 121.787170
v 131.151794 343.692535 125.953079
v 125.059814 352.559052 132.732895
v 123.294525 337.829376 128.498199
v 123.266777 337.804840 123.252411
v 122.959190 337.828125 132.526825
v 129.926376 329.612274 130.283249
v 127.964058 329.693390 122.652359
v 129.991318 352.702423 126.540909
v 131.521103 351.709900 128.323959
v 132.517227 350.231110 137.812363
v 127.997498 328.404816 126.471832
v 130.037491 353.104492 132.531708
v 123.269501 341.639038 124.518669
v 131.402557 347.791962 126.180923
v 132.051102 345.755890 136.930527
v 130.883820 349.363403 123.894829
v 131.530624 337.801270 128.301285
v 123.701050 345.730988 138.079742
v 125.953072 341.620026 122.007507
v 126.199669 347.793396 139.667999
v 124.042603 335.656067 121.692017
v 123.565216 349.847412 138.198303
v 130.459702 345.746826 139.617920
v 131.122528 337.984253 138.183395
v 123.547287 343.730347 124.015106
v 124.410835 351.876068 138.652267
v 123.314705 345.743561 134.497269
v 131.289261 345.637848 132.806305
v 123.291809 339.854309 123.255615
v 123.619591 328.851440 126.224403
v 124.448227 337.838593 138.603836
v 130.043655 352.902100 130.510117
v 131.242737 341.806305 132.764938
v 130.812881 329.773926 128.775833
v 129.270111 333.732666 123.184204
v 123.616020 337.433441 122.463799
v 123.782547 347.785126 126.493347
v 128.421356 339.917969 140.032715
v 128.110596 347.791870 140.056793
v 130.294373 339.807190 139.446304
v 131.356262 349.837524 126.192375
v 127.976227 354.062897 139.238358
v 123.969421 349.781311 126.248459
v 129.776016 329.750214 124.209892
v 131.993988 351.921997 134.737228
v 129.274811 335.786530 123.150002
v 126.038895 352.832458 128.501740
v 129.146530 352.281799 123.179802
v 131.280548 333.861877 128.293961
v 131.806854 341.645294 134.593811
v 123.169403 333.677338 121.549240
v 132.963516 353.220245 137.151047
v 123.484489 329.456146 130.530289
v 131.102722 341.638702 125.957840
v 129.368393 341.634308 123.119873
v 126.112602 333.662994 121.748611
v 123.245209 330.246979 129.224808
v 124.392448 343.732819 138.737778
v 122.827560 333.693420 132.761093
v 128.119980 343.688690 140.017227
v 131.384064 345.780823 138.695496
v 131.328735 333.828979 130.646011
v 130.536560 330.169922 130.334625
v 122.900497 332.405945 124.060951
v 126.084206 329.701263 121.939941
v 128.115692 345.740570 140.030258
v 130.872498 345.774323 123.883888
v 125.203056 352.473328 130.600357
v 131.249817 343.707245 132.775864
v 123.608383 343.469269 137.974960
v 131.363113 335.777924 133.880630
v 127.875458 337.830353 122.313400
v 123.120888 341.767578 132.685654
v 125.128532 352.392212 123.777580
v 130.629898 352.425995 123.946465
v 123.144707 333.129639 127.484085
v 129.493423 349.842712 123.065231
v 124.718674 331.893646 138.117661
v 123.348282 347.771515 137.191666
v 127.983482 352.757874 123.147850
v 130.078079 335.804382 138.783920
v 128.106018 349.848053 140.092987
v 123.693596 337.933716 137.935577
v 128.038589 330.670807 136.739609
v 132.048294 354.188141 139.210602
v 126.162766 331.964844 138.444489
v 131.992996 343.697479 136.917252
v 124.604828 351.767365 130.594620
v 123.062553 337.829285 131.500290
v 132.027710 351.882141 138.976471
v 124.233925 331.728516 121.203217
v 127.883736 339.878845 122.306419
v 131.095612 339.879272 125.958679
v 123.096970 341.015076 134.713287
v 130.709824 331.677521 126.224968
v 123.128189 333.440399 126.196518
v 124.080132 347.863647 124.024406
v 130.042740 353.368164 134.560486
v 123.503464 342.667084 122.818100
v 123.516006 343.846405 126.554604
v 129.640900 347.802399 139.991669
v 123.268425 341.631134 123.252304
v 130.393143 341.650024 139.552658
v 124.976212 352.764496 134.636993
v 123.614807 351.381042 138.166306
v 128.024048 351.873138 140.109329
v 124.340164 345.823853 138.752136
v 123.659920 345.757660 128.503830
v 131.996933 354.220703 139.219254
v 125.464760 354.248749 139.292465
v 127.210182 340.779541 139.877869
v 123.212662 343.612854 137.041885
v 123.529823 331.220062 121.089417
v 123.318359 328.358307 123.535927
v 123.131920 339.914490 137.068405
v 125.445724 352.455200 122.754990
v 123.646576 345.738403 126.500656
v 124.980324 349.796295 122.844841
v 123.030579 333.553528 131.036163
v 131.725143 339.853088 134.652206
v 128.036560 352.981750 126.504105
v 131.383347 343.691589 126.764877
v 123.535393 339.650543 122.684547
v 130.875015 335.861572 138.170029
v 126.165718 331.688721 121.759880
v 122.975754 340.079498 134.710602
v 130.779602 334.740479 138.094803
v 130.066177 333.731476 124.152031
v 130.438263 343.694672 139.594833
v 124.300140 330.911713 136.614883
v 131.133820 331.759644 135.025940
v 127.977150 351.812958 122.688530
v 124.322662 328.859985 128.481949
v 123.358620 342.810608 123.211777
v 129.892197 349.917816 140.008331
v 129.967346 337.891388 139.241547
v 131.458862 335.785858 130.855316
v 123.289932 343.942261 132.248001
v 126.130905 333.773041 138.879913
v 130.504593 347.789398 139.684067
v 132.970337 353.001373 137.206818
v 125.996712 329.124786 130.477020
v 130.845184 350.306702 123.892822
v 123.129112 341.617371 137.079544
v 128.070084 354.154694 138.548248
v 126.066093 351.822174 139.719040
v 129.327393 337.838593 123.136604
v 133.071732 352.535004 137.239746
v 128.036957 329.190308 130.466187
v 124.451637 343.592865 122.576180
v 123.696983 329.174438 128.237610
v 122.416359 327.995361 121.740738
v 123.306053 334.905029 121.630249
v 126.794022 352.552490 139.968735
v 130.003265 331.688110 124.175041
v 123.810974 349.724670 132.469147
v 123.520966 351.420349 137.822754
v 125.937531 337.827667 121.872635
v 130.802353 331.621124 132.703583
v 131.747482 349.928741 128.304153
v 131.957611 347.722076 134.587448
v 131.528061 337.781006 130.826569
v 130.041260 352.809875 128.509033
v 123.073914 341.042053 134.735535
v 131.817001 339.919067 137.017899
v 128.041122 353.127838 130.495377
v 123.230255 343.357452 133.013168
v 129.961044 329.126678 128.407806
v 129.616867 343.689606 139.942535
v 131.966949 354.234467 139.184967
v 133.064453 352.753967 137.183624
v 126.179161 345.735352 122.245392
v 124.177765 351.772705 134.521088
v 130.880615 352.347260 126.835915
v 123.421532 349.963470 136.428345
v 131.233978 336.300049 126.908844
v 123.750504 333.775085 137.629379
v 123.425278 330.847443 134.400436
v 128.037994 347.790253 122.468140
v 126.041878 352.893280 130.511871
v 123.358276 329.675171 128.396332
v 123.166740 337.849731 136.906235
v 123.127480 343.350983 135.513168
# 459 vertices, 0 vertices normals

f 53 224 188
f 51 372 85
f 212 350 256
f 161 131 290
f 357 412 400
f 235 116 208
f 446 385 361
f 148 153 392
f 55 325 98
f 448 33 455
f 21 110 435
f 421 7 191
f 211 447 286
f 373 394 207
f 82 374 28
f 391 60 440
f 319 13 137
f 9 56 25
f 227 369 271
f 335 15 172
f 202 384 269
f 340 140 101
f 110 29 62
f 51 85 81
f 246 111 292
f 408 70 356
f 47 381 302
f 120 64 34
f 116 257 208
f 128 94 230
f 20 125 165
f 102 58 459
f 266 2 93
f 148 46 408
f 38 136 194
f 39 236 453
f 192 318 66
f 272 171 350
f 131 254 436
f 153 408 356
f 388 370 459
f 367 389 224
f 250 386 302
f 223 160 287
f 125 87 424
f 267 126 314
f 435 57 124
f 54 226 79
f 35 343 184
f 304 71 56
f 356 324 134
f 98 413 438
f 53 188 74
f 37 249 165
f 49 308 442
f 163 239 273
f 78 400 31
f 62 29 407
f 93 10 17
f 129 274 373
f 178 355 112
f 54 79 114
f 209 381 298
f 95 133 57
f 186 309 83
f 185 258 338
f 44 414 136
f 39 453 233
f 22 20 71
f 66 318 135
f 8 112 388
f 216 455 157
f 263 83 309
f 173 122 88
f 396 309 80
f 457 34 427
f 388 112 294
f 35 107 343
f 171 397 49
f 425 1 21
f 376 68 289
f 394 197 212
f 347 96 11
f 17 425 444
f 253 359 72
f 170 398 32
f 140 69 146
f 319 256 13
f 283 205 195
f 391 18 458
f 161 277 398
f 412 109 316
f 5 284 397
f 117 75 60
f 206 11 113
f 164 219 174
f 3 220 155
f 199 126 387
f 328 417 424
f 39 362 259
f 315 377 215
f 144 349 370
f 243 229 331
f 316 379 270
f 189 365 268
f 260 192 237
f 41 449 250
f 51 176 275
f 61 118 303
f 80 196 309
f 102 23 443
f 304 22 71
f 394 216 46
f 337 416 91
f 255 94 230
f 434 348 183
f 234 224 225
f 345 263 309
f 39 233 354
f 337 299 416
f 407 12 133
f 39 99 236
f 444 210 310
f 6 164 174
f 124 347 232
f 367 53 341
f 127 419 292
f 246 317 285
f 397 284 439
f 431 371 55
f 432 92 41
f 425 282 444
f 110 62 407
f 397 439 49
f 367 225 389
f 238 289 68
f 157 353 408
f 333 84 120
f 250 221 386
f 77 28 30
f 30 43 14
f 334 199 88
f 382 66 244
f 37 90 288
f 355 298 240
f 176 268 395
f 444 282 210
f 36 80 309
f 229 227 271
f 391 458 60
f 79 357 52
f 373 207 319
f 250 302 433
f 20 254 25
f 241 121 108
f 366 103 447
f 175 360 26
f 322 154 423
f 110 407 95
f 187 405 299
f 260 192 386
f 41 250 451
f 99 217 454
f 329 333 120
f 259 104 141
f 353 292 70
f 43 7 421
f 287 93 17
f 276 130 434
f 329 34 181
f 451 209 355
f 418 231 1
f 402 440 370
f 33 184 455
f 102 459 370
f 326 123 363
f 436 254 249
f 246 450 111
f 252 162 385
f 290 317 230
f 334 88 346
f 156 276 434
f 184 343 94
f 153 272 392
f 104 114 24
f 166 243 59
f 92 364 278
f 232 347 11
f 244 135 191
f 273 138 115
f 67 332 297
f 399 19 378
f 146 225 327
f 200 101 73
f 382 244 411
f 246 86 450
f 329 418 10
f 208 257 16
f 215 416 299
f 199 336 126
f 446 328 417
f 321 424 447
f 215 377 416
f 141 104 24
f 331 271 107
f 46 157 408
f 201 411 244
f 102 303 8
f 108 457 427
f 138 149 115
f 176 189 268
f 160 188 266
f 353 230 292
f 36 196 80
f 108 306 390
f 260 14 43
f 51 352 372
f 214 352 84
f 144 365 194
f 419 111 292
f 388 294 346
f 456 77 344
f 150 170 32
f 138 152 149
f 229 271 331
f 304 179 71
f 31 300 441
f 338 232 413
f 328 447 417
f 300 270 441
f 67 429 327
f 457 214 333
f 154 3 155
f 184 94 255
f 275 395 64
f 260 386 14
f 6 195 205
f 99 454 15
f 47 302 45
f 159 44 193
f 189 38 365
f 207 394 212
f 331 107 35
f 219 310 185
f 453 253 72
f 168 453 236
f 424 286 447
f 412 316 300
f 30 28 43
f 419 228 111
f 14 221 380
f 368 423 229
f 455 255 157
f 27 199 267
f 428 188 152
f 312 73 297
f 61 251 118
f 140 146 101
f 58 388 459
f 259 362 104
f 409 329 10
f 72 307 54
f 366 191 446
f 306 2 390
f 141 24 145
f 404 3 154
f 342 215 445
f 248 181 261
f 190 335 75
f 39 259 406
f 139 448 216
f 420 370 388
f 302 381 433
f 396 441 123
f 44 136 193
f 356 134 5
f 143 277 161
f 148 197 46
f 90 417 328
f 258 124 338
f 155 220 142
f 323 177 213
f 105 267 314
f 150 32 142
f 260 421 318
f 453 72 233
f 293 452 98
f 34 64 172
f 357 400 403
f 145 24 97
f 314 109 242
f 414 102 443
f 50 195 63
f 329 34 333
f 270 65 123
f 36 309 196
f 318 162 135
f 238 68 257
f 376 393 384
f 296 45 358
f 72 359 307
f 294 112 240
f 8 178 112
f 442 308 288
f 19 426 375
f 434 130 348
f 187 363 65
f 18 307 359
f 173 27 226
f 295 368 243
f 110 26 29
f 251 41 118
f 262 205 283
f 140 372 121
f 116 238 257
f 369 142 32
f 163 273 115
f 262 341 74
f 458 117 60
f 227 155 369
f 118 41 451
f 118 451 178
f 224 389 225
f 378 410 289
f 347 247 96
f 40 285 249
f 187 337 291
f 10 418 17
f 367 401 67
f 91 167 211
f 348 322 423
f 263 304 264
f 457 121 214
f 20 437 125
f 251 432 41
f 11 96 113
f 16 136 38
f 155 142 369
f 223 205 262
f 107 277 343
f 358 382 411
f 409 34 329
f 265 279 81
f 235 208 265
f 19 375 410
f 414 443 349
f 127 292 419
f 341 283 50
f 345 263 304
f 204 83 150
f 446 135 252
f 74 188 160
f 77 82 28
f 51 275 84
f 334 294 383
f 63 320 431
f 274 139 373
f 328 7 374
f 367 224 53
f 234 149 224
f 202 269 251
f 48 101 200
f 204 150 142
f 373 319 313
f 4 291 179
f 242 109 412
f 129 373 313
f 422 302 386
f 121 372 352
f 348 423 368
f 401 341 50
f 428 266 188
f 383 119 198
f 77 30 278
f 256 213 13
f 129 313 393
f 49 439 308
f 44 61 414
f 158 172 454
f 185 338 325
f 168 236 190
f 190 15 335
f 276 147 130
f 420 440 370
f 423 227 229
f 222 183 169
f 158 261 181
f 92 203 364
f 151 137 203
f 211 201 366
f 330 398 277
f 456 442 82
f 16 193 136
f 345 304 76
f 47 45 296
f 222 434 183
f 3 98 452
f 30 380 278
f 70 111 324
f 171 213 350
f 379 405 65
f 204 186 83
f 271 369 330
f 349 443 23
f 41 92 449
f 263 196 309
f 165 125 321
f 95 407 133
f 137 364 203
f 238 378 289
f 446 191 135
f 122 346 88
f 272 397 171
f 199 387 267
f 106 343 94
f 153 5 272
f 349 23 370
f 270 123 441
f 2 409 10
f 28 374 7
f 396 123 326
f 137 13 364
f 82 288 374
f 143 343 277
f 197 392 350
f 371 219 185
f 274 426 166
f 171 49 323
f 211 366 447
f 161 9 131
f 311 404 322
f 262 283 341
f 48 200 235
f 48 265 85
f 402 370 23
f 355 240 112
f 58 8 388
f 33 35 184
f 40 249 37
f 115 149 234
f 435 95 57
f 345 196 263
f 232 206 413
f 402 23 440
f 201 167 411
f 198 342 336
f 143 161 94
f 132 298 47
f 18 173 307
f 105 242 412
f 301 410 375
f 385 162 191
f 45 382 358
f 245 180 379
f 221 449 380
f 376 159 68
f 435 258 339
f 65 363 123
f 124 232 338
f 114 79 52
f 456 344 177
f 168 190 117
f 281 75 268
f 231 175 1
f 90 328 374
f 450 134 111
f 245 379 316
f 316 270 300
f 406 217 99
f 166 59 33
f 132 240 298
f 27 267 105
f 226 27 105
f 282 21 339
f 178 451 355
f 223 6 205
f 48 235 265
f 246 292 317
f 297 73 429
f 228 111 134
f 263 264 83
f 367 341 401
f 307 173 226
f 179 182 437
f 214 84 333
f 290 436 317
f 234 225 69
f 426 295 166
f 256 350 213
f 40 37 308
f 3 452 220
f 406 454 217
f 337 182 291
f 293 98 438
f 436 249 285
f 223 164 6
f 166 33 448
f 401 147 332
f 164 444 219
f 237 66 382
f 275 176 395
f 105 314 242
f 261 454 406
f 447 361 417
f 447 103 361
f 260 318 192
f 248 261 42
f 168 359 253
f 301 375 426
f 148 392 197
f 130 322 348
f 102 370 23
f 427 34 409
f 71 25 56
f 107 330 277
f 425 21 282
f 313 319 137
f 127 230 292
f 127 292 230
f 159 202 44
f 159 193 68
f 18 359 458
f 432 203 92
f 414 100 136
f 310 210 339
f 336 445 180
f 187 299 337
f 159 384 202
f 161 398 9
f 78 89 403
f 336 342 445
f 287 160 93
f 125 424 321
f 146 69 225
f 263 76 304
f 367 67 327
f 427 409 306
f 139 216 394
f 418 1 425
f 413 206 438
f 169 295 426
f 102 8 58
f 179 291 182
f 269 384 151
f 404 55 3
f 383 240 132
f 391 440 420
f 168 117 458
f 150 83 264
f 251 269 432
f 420 346 122
f 415 54 114
f 263 326 4
f 201 191 366
f 222 169 399
f 442 288 82
f 267 387 126
f 275 120 84
f 293 204 220
f 44 202 61
f 446 385 191
f 401 50 147
f 422 45 302
f 296 358 315
f 246 285 86
f 170 9 398
f 228 134 351
f 281 60 75
f 272 5 397
f 105 412 357
f 131 25 254
f 212 197 350
f 301 393 376
f 319 212 256
f 451 250 209
f 48 85 372
f 275 64 120
f 128 127 230
f 301 289 410
f 59 331 35
f 42 259 141
f 52 403 89
f 86 439 284
f 383 294 240
f 303 118 178
f 233 72 54
f 169 183 295
f 119 296 315
f 243 331 59
f 30 14 380
f 124 57 347
f 420 388 346
f 77 278 344
f 63 431 311
f 168 253 453
f 226 105 79
f 40 308 439
f 1 175 110
f 66 135 244
f 26 145 29
f 444 310 219
f 67 297 429
f 174 219 371
f 325 413 98
f 306 409 2
f 223 287 164
f 76 22 304
f 29 12 407
f 421 162 318
f 169 19 399
f 310 339 258
f 260 43 421
f 248 231 181
f 38 194 365
f 271 330 107
f 345 309 196
f 393 313 151
f 91 416 167
f 110 95 435
f 211 167 201
f 440 23 370
f 67 401 332
f 78 96 247
f 457 333 34
f 126 245 314
f 208 16 279
f 293 220 452
f 369 32 330
f 199 198 336
f 90 374 288
f 21 435 339
f 71 20 25
f 437 87 125
f 422 430 382
f 329 120 34
f 290 131 436
f 108 427 306
f 183 348 368
f 190 236 15
f 171 323 213
f 206 113 80
f 180 405 379
f 448 455 216
f 144 440 281
f 4 363 291
f 340 101 48
f 170 264 56
f 50 63 147
f 367 327 225
f 424 417 447
f 281 268 365
f 138 428 152
f 430 237 382
f 106 94 343
f 263 4 304
f 282 339 210
f 383 132 119
f 128 230 94
f 57 247 347
f 57 133 247
f 351 134 111
f 144 370 440
f 345 76 263
f 313 137 151
f 312 280 200
f 412 300 400
f 323 49 442
f 31 400 300
f 81 189 176
f 304 56 264
f 450 284 134
f 39 406 99
f 211 87 182
f 437 182 87
f 312 200 73
f 37 288 308
f 362 415 104
f 223 262 160
f 42 261 406
f 52 89 97
f 304 4 179
f 85 265 81
f 377 411 167
f 295 243 166
f 128 230 127
f 408 353 70
f 144 281 365
f 414 61 303
f 144 194 349
f 169 426 19
f 269 203 432
f 360 141 145
f 90 447 417
f 337 91 182
f 255 230 353
f 121 352 214
f 368 229 243
f 183 368 295
f 71 179 437
f 450 86 284
f 328 424 447
f 71 437 20
f 366 361 103
f 109 245 316
f 250 433 209
f 311 431 404
f 186 80 309
f 364 177 344
f 230 317 292
f 6 320 195
f 371 185 325
f 272 350 392
f 239 69 241
f 446 252 385
f 438 113 80
f 194 136 100
f 153 356 5
f 312 297 156
f 454 172 15
f 130 311 322
f 293 438 186
f 391 420 122
f 394 46 197
f 329 231 418
f 325 338 413
f 108 121 457
f 158 181 34
f 279 38 189
f 180 445 405
f 52 357 403
f 236 99 15
f 211 286 87
f 163 115 234
f 248 42 360
f 117 190 75
f 283 195 50
f 323 442 456
f 301 376 289
f 2 10 93
f 152 188 149
f 297 276 156
f 334 383 198
f 248 360 175
f 415 114 104
f 257 68 193
f 335 395 75
f 252 135 162
f 202 251 61
f 119 315 342
f 301 129 393
f 314 245 109
f 195 320 63
f 157 255 353
f 354 415 362
f 206 80 36
f 206 36 113
f 173 88 27
f 145 97 12
f 320 371 431
f 262 74 160
f 163 234 239
f 422 260 237
f 396 326 309
f 342 315 215
f 303 178 8
f 161 290 94
f 37 165 321
f 147 311 130
f 241 108 390
f 268 75 395
f 360 145 26
f 446 191 328
f 39 354 362
f 418 425 17
f 293 186 204
f 332 147 276
f 274 448 139
f 13 213 177
f 194 100 349
f 113 36 80
f 87 286 424
f 143 94 343
f 198 119 342
f 377 167 416
f 358 411 377
f 312 222 399
f 168 458 359
f 126 180 245
f 147 63 311
f 9 25 131
f 20 165 254
f 335 64 395
f 18 122 173
f 114 52 24
f 322 404 154
f 445 299 405
f 287 444 164
f 150 264 170
f 148 408 153
f 414 303 102
f 238 305 378
f 81 279 189
f 290 230 94
f 274 166 448
f 90 321 447
f 235 200 280
f 312 305 280
f 129 426 274
f 269 151 203
f 192 66 237
f 366 446 361
f 24 52 97
f 378 19 410
f 91 211 182
f 431 55 404
f 390 2 266
f 254 165 249
f 435 124 258
f 14 386 221
f 248 175 231
f 175 26 110
f 186 438 80
f 228 351 111
f 79 105 357
f 86 285 40
f 37 321 90
f 273 428 138
f 216 157 46
f 206 113 438
f 279 16 38
f 317 436 285
f 422 237 430
f 312 399 305
f 6 174 320
f 371 325 55
f 106 94 128
f 239 234 69
f 422 382 45
f 78 31 96
f 145 12 29
f 440 60 281
f 354 233 415
f 391 122 18
f 455 184 255
f 301 426 129
f 76 71 22
f 47 298 381
f 328 191 7
f 393 151 384
f 158 34 172
f 78 133 89
f 59 35 33
f 51 81 176
f 28 7 43
f 396 80 96
f 70 292 111
f 132 47 296
f 335 172 64
f 257 193 16
f 42 406 259
f 422 386 260
f 160 266 93
f 55 98 3
f 146 73 101
f 73 327 429
f 13 177 364
f 273 239 428
f 419 292 111
f 126 336 180
f 263 309 326
f 235 280 116
f 92 380 449
f 96 80 113
f 287 17 444
f 241 69 140
f 187 291 363
f 78 247 133
f 146 327 73
f 312 156 222
f 187 65 405
f 260 386 218
f 12 89 133
f 445 215 299
f 158 454 261
f 414 349 100
f 233 54 415
f 170 56 9
f 355 209 298
f 1 110 21
f 154 155 227
f 379 65 270
f 446 361 385
f 53 74 341
f 260 218 192
f 326 363 4
f 307 226 54
f 265 208 279
f 207 212 319
f 149 188 224
f 423 154 227
f 399 378 305
f 76 304 71
f 156 434 222
f 12 97 89
f 86 40 439
f 297 332 276
f 192 218 386
f 421 191 162
f 356 70 324
f 116 305 238
f 239 241 390
f 116 280 305
f 334 346 294
f 250 449 221
f 201 244 191
f 239 390 428
f 310 258 185
f 446 417 361
f 232 11 206
f 456 82 77
f 329 181 231
f 31 441 396
f 31 396 96
f 376 384 159
f 340 48 140
f 334 198 199
f 320 174 371
f 373 139 394
f 132 296 119
f 48 372 140
f 22 71 20
f 364 344 278
f 88 199 27
f 209 433 381
f 5 134 284
f 78 403 400
f 92 278 380
f 428 390 266
f 419 111 228
f 51 84 352
f 330 32 398
f 323 456 177
f 315 358 377
f 324 111 134
f 42 141 360
f 106 128 94
f 204 142 220
f 241 140 121
# 948 faces, 0 coords texture

# End of File