####
#
# OBJ File Generated by Meshlab
#
####
# Object domain0606.obj
#
# Vertices: 1238
# Faces: 2472
#
####
v 73.935173 41.122665 126.977043
v 74.038086 41.098412 126.600494
v 74.037971 40.885159 126.975250
v 74.065582 41.127560 127.184143
v 73.922592 41.511135 126.974541
v 74.012863 41.555470 126.579391
v 74.107903 41.590927 127.278496
v 73.992287 41.810867 126.985054
v 74.275978 40.613922 126.962555
v 74.493500 40.536377 126.533424
v 74.543137 40.473324 126.960648
v 74.535202 40.650543 127.196045
v 74.291512 41.080566 126.110374
v 74.612213 41.120743 125.784668
v 74.497208 40.788223 126.061569
v 74.447189 41.055740 127.402962
v 74.227570 41.619213 126.090393
v 74.570816 41.606113 125.720673
v 74.437012 41.548214 127.595337
v 74.361588 42.114567 126.085297
v 74.618614 42.099789 125.759209
v 74.135506 42.158424 127.009270
v 74.449631 41.999840 127.826988
v 74.464455 42.196907 127.883247
v 74.695328 42.251663 128.051361
v 74.509903 42.428032 126.057190
v 74.376900 42.643398 127.001694
v 74.513733 42.697803 126.526947
v 74.523598 42.682400 127.467812
v 74.546997 42.422058 127.919136
v 74.554947 42.826859 127.001747
v 74.774712 40.530128 126.064522
v 75.111732 40.642223 125.794350
v 75.088661 40.431538 126.092369
v 75.027222 40.397903 126.936455
v 75.020538 40.595459 127.255302
v 75.033012 41.045387 125.567703
v 75.005180 41.008923 127.537300
v 75.001358 41.582146 125.414558
v 74.921570 41.433537 127.756493
v 75.022766 42.191605 125.445618
v 74.986877 41.844734 128.016251
v 75.084686 42.259190 128.208969
v 74.763649 42.726849 126.040375
v 75.098358 42.691490 125.683090
v 74.782677 42.681446 127.930954
v 75.124329 42.573658 128.167664
v 75.062553 43.002529 126.052612
v 75.000977 43.131542 127.011909
v 75.084892 42.844986 127.911568
v 75.594711 40.603165 125.727798
v 75.593506 40.397335 126.070984
v 75.579239 40.389355 126.931534
v 75.586624 40.585739 127.291946
v 75.569817 41.006310 125.403847
v 75.568321 40.971989 127.634598
v 75.421448 41.659515 125.104233
v 75.778496 41.771225 124.859550
v 75.650452 41.423721 125.096527
v 75.624420 41.383644 127.956604
v 75.300926 41.606430 128.000687
v 75.687737 41.788494 128.219284
v 75.419098 42.149933 125.096237
v 75.800865 42.097195 124.821747
v 75.615723 42.205803 128.327759
v 75.629059 42.459518 125.042534
v 75.543190 42.831318 125.357140
v 75.612373 42.635288 128.239960
v 75.372841 43.291584 126.033066
v 75.674927 43.282261 125.673973
v 75.327530 43.338490 126.988029
v 75.642448 43.329945 127.454758
v 75.592606 43.032619 127.940704
v 75.681557 43.566429 126.037346
v 75.656586 43.590366 126.980583
v 76.094261 40.630005 125.745827
v 76.082733 40.445381 126.069145
v 76.077408 40.437065 126.935905
v 76.062469 40.594196 127.279648
v 76.175232 40.975937 125.407867
v 76.169044 40.864937 127.632858
v 76.182678 41.759842 124.780434
v 76.180450 41.364113 125.053200
v 76.156822 41.264011 128.013916
v 76.217148 41.691368 128.267120
v 76.215248 42.180241 124.689285
v 76.182343 42.194092 128.383026
v 75.900841 42.765247 125.019012
v 76.308128 42.650841 124.761490
v 76.216774 42.709713 128.305939
v 76.192719 43.057220 125.018867
v 76.132339 43.406227 125.364830
v 76.153015 43.135368 128.033737
v 76.125031 43.460953 127.663849
v 75.987473 43.818203 126.043022
v 76.263222 43.790546 125.709343
v 75.986526 43.814201 126.957779
v 76.260475 43.783558 127.290306
v 76.285957 43.991665 126.059242
v 76.279724 43.965481 126.938477
v 76.406784 40.546707 126.034584
v 76.434700 40.567764 127.015915
v 76.750305 41.051929 125.527382
v 76.763687 40.731796 126.021088
v 76.779984 40.687542 126.987160
v 76.736839 41.046364 127.847725
v 76.487106 41.086040 127.942108
v 76.700462 41.289032 128.070847
v 76.672188 41.800922 124.793175
v 76.719872 41.431240 125.085739
v 76.699356 41.677002 128.249863
v 76.751900 42.220585 124.651665
v 76.752365 42.206421 128.383392
v 76.794792 42.746902 124.652908
v 76.781189 42.750443 128.368301
v 76.497528 43.329956 125.039047
v 76.868996 43.176807 124.788826
v 76.480499 43.347248 127.983246
v 76.858925 43.171818 128.212204
v 76.811676 43.556026 125.071053
v 76.776581 43.929577 125.515305
v 76.815155 43.529457 127.908249
v 76.757812 43.857491 127.464912
v 76.781471 44.222889 126.035690
v 76.783539 44.124546 126.964478
v 77.279495 41.164116 125.695129
v 77.258125 40.956596 126.053993
v 77.259064 40.928249 126.970543
v 76.916580 41.142242 127.884102
v 77.279480 41.120304 127.431625
v 77.052452 41.621269 125.014709
v 77.410942 41.490211 125.325600
v 77.135910 41.571110 128.041046
v 77.470078 41.484764 127.709595
v 77.313271 42.262543 124.698143
v 77.384041 41.829220 124.961960
v 77.391205 41.817398 128.054596
v 77.300674 42.260025 128.296921
v 77.354347 42.776630 124.612679
v 77.349495 42.775131 128.361938
v 77.401421 43.288200 124.708923
v 77.363403 43.219967 128.246857
v 77.326302 43.717400 124.970482
v 77.295967 44.063328 125.328316
v 77.358910 43.602947 127.953110
v 77.374107 43.991348 127.498940
v 77.145073 44.408493 126.018486
v 77.423317 44.399078 125.688614
v 77.380135 44.475243 126.486832
v 77.307693 44.316223 127.014427
v 77.466034 44.570858 126.027138
v 77.582520 41.120499 126.030762
v 77.592125 41.098454 126.983383
v 77.914597 41.571087 125.500786
v 77.942230 41.309799 126.012413
v 77.937027 41.312172 126.985237
v 77.932381 41.609329 127.493767
v 77.922920 42.326099 124.736671
v 77.929527 41.937340 125.033310
v 77.893120 41.994850 127.934143
v 77.833633 42.380177 128.207458
v 77.936058 42.790932 124.598129
v 77.902237 42.794617 128.312653
v 77.952118 43.343437 124.608025
v 77.923149 43.218937 128.231567
v 77.640282 43.955353 124.993599
v 78.055733 43.822605 124.749512
v 77.935600 43.619072 127.958786
v 77.937424 44.007439 127.606682
v 77.956184 44.221622 125.025688
v 77.908112 44.546833 125.474091
v 77.668694 44.484600 126.970299
v 78.018097 44.364548 127.275497
v 77.951500 44.817940 126.017288
v 78.010262 44.633377 126.932327
v 78.464890 41.743793 125.576973
v 78.434753 41.534134 126.044182
v 78.427956 41.547375 126.944969
v 78.446198 41.756550 127.297783
v 78.429207 42.387703 124.791222
v 78.466560 42.046337 125.098297
v 78.205353 42.226032 127.958397
v 78.582367 42.144306 127.639885
v 78.510498 42.803082 124.614433
v 78.488022 42.511669 127.955994
v 78.318787 42.872608 128.180801
v 78.524414 43.364635 124.563362
v 78.339211 43.198994 128.141739
v 78.549477 43.921116 124.631775
v 78.469070 43.547539 127.906219
v 78.554176 43.981861 127.625107
v 78.264740 44.494022 125.042816
v 78.627365 44.348423 124.789490
v 78.568390 44.462814 127.330612
v 78.579330 44.707378 125.083366
v 78.304405 45.015999 126.004280
v 78.583649 44.998135 125.566139
v 78.553970 45.062069 126.485046
v 78.508942 44.858051 126.981430
v 78.627930 45.173279 126.014900
v 78.762543 41.690163 126.019318
v 78.750816 41.711235 126.966812
v 78.799377 42.226959 125.027809
v 79.144226 42.113132 125.453804
v 79.121223 41.879818 126.003471
v 79.101677 41.914677 126.968460
v 79.078560 42.240070 127.370758
v 79.072365 42.847130 124.690643
v 79.136307 42.431519 124.979958
v 78.711960 42.814796 127.914711
v 79.145775 42.757923 127.615845
v 79.109131 43.370270 124.555092
v 78.701515 43.312214 127.901207
v 79.157913 43.398792 127.663086
v 79.112427 43.941879 124.570244
v 79.110542 43.961308 127.553291
v 79.159500 44.459511 124.706642
v 79.121696 44.512310 127.399170
v 79.091331 44.874294 124.985275
v 79.084023 45.182335 125.462975
v 78.848305 45.057983 126.959961
v 79.208427 44.921539 127.211220
v 79.115822 45.417767 126.012672
v 79.184258 45.214417 126.927597
v 79.655823 42.281784 125.546486
v 79.617302 42.098942 126.039330
v 79.586067 42.157360 126.933647
v 79.586151 42.390430 127.215973
v 79.679672 42.915768 124.742699
v 79.697495 42.538918 125.061157
v 79.665672 42.801250 127.407982
v 79.694824 43.375320 124.574493
v 79.697296 43.364227 127.505058
v 79.695190 43.950428 124.530777
v 79.696320 43.950451 127.508698
v 79.708618 44.516453 124.600807
v 79.697067 44.528385 127.437996
v 79.402847 45.125450 125.006218
v 79.815025 44.992439 124.752586
v 79.744148 45.040855 127.285896
v 79.730156 45.373547 125.039558
v 79.467484 45.616703 125.995667
v 79.743141 45.639324 125.524185
v 79.722130 45.657013 126.486885
v 79.682510 45.441326 126.978325
v 79.799858 45.785538 126.001732
v 79.947670 42.258011 126.011772
v 79.890854 42.324059 126.946014
v 80.183090 42.984558 124.795937
v 80.208488 42.708008 125.085655
v 80.286255 42.430134 125.992859
v 80.223625 42.565369 126.943565
v 80.159767 42.911442 127.246040
v 80.269150 43.389198 124.614265
v 80.268867 43.383434 127.402771
v 80.282639 43.950207 124.525009
v 80.283012 43.949768 127.476120
v 80.280891 44.536533 124.540443
v 80.280998 44.536125 127.475685
v 80.307793 45.091915 124.634232
v 80.295769 45.096115 127.383102
v 80.044189 45.620701 125.058388
v 80.392235 45.507511 124.797325
v 80.021805 45.638893 126.958649
v 80.379585 45.502174 127.204964
v 80.358276 45.794510 125.079384
v 80.290001 46.039055 126.001366
v 80.355324 45.779118 126.916100
v 80.542412 42.851688 125.040466
v 80.846130 42.819790 125.510696
v 80.771790 42.685635 125.999748
v 80.554863 42.801991 126.972084
v 80.850098 42.816776 126.490578
v 80.828644 43.436840 124.697495
v 80.900345 43.030910 125.014183
v 80.883987 43.036720 126.986046
v 80.817955 43.444145 127.285240
v 80.867767 43.955341 124.546646
v 80.866905 43.957661 127.437866
v 80.867805 44.536190 124.514145
v 80.867989 44.535995 127.485947
v 80.870293 45.114540 124.558907
v 80.869080 45.110741 127.425804
v 80.917885 45.628254 124.707924
v 80.883194 45.569019 127.256439
v 80.852249 46.024712 125.021095
v 80.636681 46.203350 125.992508
v 80.897621 46.237373 125.514778
v 80.912178 46.191715 126.446823
v 80.868927 45.945324 126.936630
v 80.969864 46.348164 125.986786
v 81.107803 42.847107 125.996895
v 81.434837 43.513885 124.748337
v 81.432709 43.213017 125.060478
v 81.458908 43.012691 125.996536
v 81.382629 43.266506 126.927597
v 81.355202 43.563328 127.211914
v 81.452744 43.962479 124.577072
v 81.440201 43.975964 127.382927
v 81.454079 44.535004 124.489731
v 81.454918 44.535519 127.470055
v 81.452126 45.121017 124.478981
v 81.454529 45.116432 127.453362
v 81.472343 45.689167 124.574356
v 81.490608 45.639614 127.309547
v 81.196289 46.219303 125.042747
v 81.550323 46.108017 124.768448
v 81.430244 46.053448 127.020073
v 81.422600 46.359901 126.541245
v 81.526764 46.384995 125.074760
v 81.467262 46.577534 125.984901
v 81.937378 43.582123 124.805786
v 81.943047 43.352016 125.069969
v 81.958748 43.247536 125.975990
v 81.716705 43.425739 126.961510
v 82.021469 43.402081 126.488708
v 82.027908 43.974270 124.602493
v 82.054108 43.629116 126.981216
v 81.991463 44.031563 127.285416
v 82.039742 44.524525 124.447121
v 82.037842 44.544334 127.434746
v 81.991882 45.087269 124.335938
v 82.039238 45.122139 127.468567
v 82.002449 45.730213 124.379738
v 82.052536 45.683990 127.388374
v 82.068810 46.253311 124.620750
v 81.765099 46.258671 126.971283
v 82.134285 46.098148 127.208893
v 82.019783 46.619701 125.011810
v 81.822762 46.763535 125.987762
v 82.076210 46.809761 125.517036
v 82.102898 46.719921 126.415955
v 82.098167 46.437595 126.900696
v 82.149605 46.880051 125.982620
v 82.262093 43.484764 125.043282
v 82.298965 43.411297 125.990898
v 82.575760 44.029976 124.675148
v 82.617043 43.677193 125.038582
v 82.643105 43.584591 126.008675
v 82.551102 43.856636 126.924652
v 82.518768 44.150902 127.204353
v 82.594444 44.504494 124.376709
v 82.600227 44.565964 127.366013
v 82.448776 45.173481 124.099075
v 82.810471 45.287243 123.859520
v 82.682350 44.939476 124.096268
v 82.626648 45.121193 127.452744
v 82.438667 45.669228 124.084373
v 82.832809 45.612537 123.822426
v 82.627518 45.696194 127.423767
v 82.660461 45.974251 124.046066
v 82.566872 46.344090 124.358536
v 82.639915 46.159740 127.264320
v 82.365669 46.808453 125.035698
v 82.699974 46.734737 124.698929
v 82.638016 46.535973 126.959213
v 82.634102 46.844822 126.482750
v 82.702003 46.957912 125.071739
v 82.648941 47.021545 125.970802
v 83.123543 44.133480 124.736771
v 83.113907 43.897293 125.059990
v 83.129295 43.837032 125.977211
v 82.869385 44.026638 126.946098
v 83.173004 44.007053 126.477852
v 83.207191 44.491703 124.407608
v 83.180206 44.279881 126.963699
v 83.093117 44.665962 127.247200
v 83.214676 45.275814 123.780533
v 83.212418 44.880119 124.053200
v 83.198601 45.141907 127.393646
v 83.247276 45.692024 123.700340
v 83.213745 45.700367 127.429253
v 82.945053 46.259312 124.042206
v 83.318016 46.104301 123.797310
v 83.249603 46.224010 127.307541
v 83.257607 46.486233 124.070854
v 83.220413 46.864189 124.512314
v 83.185715 46.644676 127.025597
v 83.170265 46.979797 126.557289
v 83.210907 47.173946 125.016998
v 83.187134 47.213100 125.998383
v 83.440109 44.055649 125.035645
v 83.467133 44.007130 125.994179
v 83.781883 44.568813 124.528130
v 83.795189 44.249481 125.018936
v 83.812454 44.214424 125.999931
v 83.504097 44.535194 126.993301
v 83.829102 44.464985 126.541451
v 83.703697 45.317917 123.797295
v 83.751862 44.947224 124.085739
v 83.815849 44.783569 127.015091
v 83.748703 45.198772 127.292809
v 83.783966 45.723423 123.673721
v 83.794899 45.717285 127.414932
v 83.853676 46.212013 123.727295
v 83.811684 46.269039 127.380852
v 83.772774 46.646553 123.971687
v 83.740990 46.994949 124.326813
v 83.520973 46.850376 126.974815
v 83.893364 46.690617 127.216576
v 83.567062 47.366570 125.029976
v 83.865700 47.336048 124.684395
v 83.553902 47.391060 125.982941
v 83.850861 47.347328 126.434364
v 83.855385 47.046524 126.916725
v 83.891037 47.530346 125.052925
v 83.885574 47.542988 125.957321
v 84.311646 44.680023 124.695015
v 84.288681 44.476139 125.054466
v 84.298279 44.456139 125.958687
v 84.329430 44.654049 126.435661
v 84.084450 45.137318 124.014664
v 84.442963 45.006226 124.325607
v 84.332527 44.943871 126.921944
v 84.289093 45.308598 127.218468
v 84.340576 45.783634 123.713860
v 84.415794 45.346085 123.963097
v 84.369476 45.733383 127.378769
v 84.401009 46.281769 123.647324
v 84.387108 46.284584 127.413826
v 84.086334 46.885269 123.993668
v 84.504440 46.751358 123.756340
v 84.431786 46.802147 127.292671
v 84.399475 47.155411 124.021507
v 84.346695 47.490700 124.466232
v 84.369675 47.211506 127.008385
v 84.355202 47.533264 126.539780
v 84.368423 47.790112 125.001587
v 84.373253 47.778748 125.995956
v 84.614677 44.636101 125.030853
v 84.628212 44.611534 125.985428
v 84.946541 45.087177 124.500832
v 84.974747 44.824715 125.012299
v 84.983917 44.802364 125.999161
v 84.662117 45.146633 126.976509
v 84.998909 45.056564 126.538292
v 84.954338 45.843697 123.740112
v 84.961517 45.453350 124.033302
v 84.985924 45.374611 127.010269
v 84.922028 45.785789 127.293076
v 84.968880 46.308159 123.613586
v 84.965790 46.303719 127.411041
v 84.995590 46.855305 123.625648
v 84.983772 46.853703 127.373833
v 84.697563 47.447372 124.026482
v 85.097908 47.339809 123.755165
v 84.697647 47.427174 126.967468
v 85.064857 47.268925 127.206596
v 84.999100 47.728672 124.031487
v 84.699150 48.026524 125.003937
v 84.990334 48.029831 124.511787
v 84.727272 47.978813 125.979118
v 85.027153 47.913868 126.423386
v 85.028229 47.606812 126.897156
v 85.035416 48.283138 125.027252
v 85.051117 48.152683 125.958626
v 85.496872 45.259754 124.576950
v 85.467529 45.048553 125.044289
v 85.471054 45.040390 125.958618
v 85.501419 45.240036 126.435646
v 85.461159 45.903782 123.791321
v 85.498589 45.562328 124.098328
v 85.500664 45.534824 126.918068
v 85.451935 45.895943 127.210075
v 85.542381 46.319565 123.615906
v 85.524467 46.324123 127.350830
v 85.559731 46.880539 123.545502
v 85.539734 46.864872 127.361847
v 85.582230 47.446579 123.572563
v 85.554588 47.310608 127.229683
v 85.290550 48.025387 124.027779
v 85.667191 47.947189 123.704926
v 85.560768 47.679733 126.929504
v 85.584419 48.064827 126.476562
v 85.587997 48.312733 124.030342
v 85.352325 48.524029 124.998665
v 85.604477 48.579731 124.521645
v 85.585876 48.583546 125.486229
v 85.527679 48.394051 126.004326
v 85.663437 48.712875 125.003647
v 85.795113 45.205074 125.019485
v 85.800087 45.197582 125.985161
v 85.831360 45.742962 124.027786
v 86.176201 45.629250 124.453857
v 86.154198 45.393864 125.003357
v 86.149666 45.399406 125.994095
v 85.810539 45.755028 126.952248
v 86.172890 45.698940 126.525368
v 86.108109 46.352020 123.661095
v 86.171577 45.944996 123.976295
v 86.092201 46.040833 126.951248
v 85.948242 46.397259 127.201958
v 86.133957 46.865044 123.448410
v 85.991348 46.878700 127.234406
v 86.090691 47.440968 123.353828
v 85.968185 47.291740 127.155472
v 86.094467 48.048519 123.404457
v 86.085373 47.641373 126.899055
v 86.169609 48.046551 126.583138
v 85.876854 48.606575 124.016785
v 86.212494 48.567242 123.568138
v 85.878075 48.574543 125.964890
v 86.226524 48.442120 126.249893
v 86.187103 48.873520 124.038605
v 86.138512 48.983696 125.010071
v 86.213768 48.707916 125.916565
v 86.691063 45.791210 124.542831
v 86.649261 45.615101 125.039314
v 86.625999 45.656326 125.943359
v 86.633476 45.868385 126.281395
v 86.720215 46.379143 123.629585
v 86.749176 46.025253 124.041588
v 86.328003 46.335972 126.912636
v 86.723297 46.296333 126.564217
v 86.638077 46.794838 123.312546
v 86.400497 46.878605 126.962891
v 86.823006 46.878704 126.660286
v 86.521782 47.501774 123.063347
v 86.911819 47.562717 122.777222
v 86.754501 47.193127 123.033997
v 86.330589 47.414459 126.913185
v 86.777214 47.502422 126.663811
v 86.482704 48.050034 123.048813
v 86.865616 48.052444 122.709045
v 86.721748 48.046223 126.487068
v 86.564064 48.584805 123.092361
v 86.905685 48.556152 122.739243
v 86.727348 48.487522 126.248901
v 86.787735 48.883224 123.048157
v 86.497307 49.141914 124.012611
v 86.774849 49.169422 123.522987
v 86.483147 49.139019 124.980057
v 86.776054 49.078468 125.427689
v 86.716660 48.834717 125.907639
v 86.823242 49.319305 124.030136
v 86.813118 49.273514 124.954605
v 86.983650 45.768410 125.010979
v 86.927803 45.832691 125.952896
v 87.286705 46.398998 123.542114
v 87.302948 46.142551 124.047462
v 87.327515 45.930908 124.985291
v 87.252869 46.082649 125.943916
v 87.194267 46.409569 126.276245
v 87.044159 46.912239 123.040871
v 87.411507 47.066826 122.779755
v 87.367958 46.725056 123.103096
v 87.288193 46.896175 126.427887
v 87.338165 47.490166 122.565651
v 87.297256 47.466320 126.455322
v 87.300819 48.029030 122.403069
v 87.286430 48.025600 126.375923
v 87.274300 48.638248 122.406830
v 87.213402 48.444878 126.203773
v 87.050049 49.192234 123.017601
v 87.366508 49.163998 122.556290
v 87.262901 48.792358 125.898514
v 87.333267 49.112198 125.459999
v 87.341957 49.479591 123.035881
v 87.301483 49.584614 124.017891
v 87.329643 49.363640 124.949158
v 87.847076 46.441227 123.569336
v 87.810150 46.257416 124.048454
v 87.807358 46.191448 124.973785
v 87.567162 46.332153 125.958679
v 87.856171 46.351814 125.477264
v 87.899971 47.026680 122.717728
v 87.916267 46.680691 123.090675
v 87.836708 46.637226 125.947311
v 87.705414 46.981121 126.206047
v 87.875633 47.450100 122.401802
v 87.754745 47.466778 126.250999
v 87.714218 48.104961 122.089081
v 88.061317 48.214100 121.807152
v 87.955399 47.867294 122.091087
v 87.709915 47.952240 126.206650
v 87.640038 48.639137 122.031898
v 88.009232 48.646843 121.656273
v 87.584503 48.606716 125.960930
v 87.874123 48.324955 125.965561
v 87.980545 48.713661 125.671272
v 87.653862 49.233143 122.058151
v 88.005295 49.203255 121.545746
v 87.887039 49.115322 125.342133
v 87.832184 49.720219 122.050842
v 88.058334 49.746372 121.585976
v 87.634995 49.771538 122.980598
v 87.646988 49.746738 123.976387
v 87.944466 49.680641 124.434578
v 87.874573 49.450939 124.925743
v 87.999763 50.025883 122.028419
v 87.953484 50.052868 123.017822
v 87.980247 49.895432 123.954887
v 88.121498 46.397831 124.021042
v 88.124016 46.382641 124.985771
v 88.401970 47.067856 122.740166
v 88.394249 46.831680 123.072968
v 88.441589 46.625103 123.986107
v 88.418617 46.654636 124.978210
v 88.059303 46.932606 125.904182
v 88.406555 46.957588 125.429405
v 88.483322 47.412670 122.397583
v 88.142349 47.464611 125.945724
v 88.520302 47.475147 125.581711
v 88.492393 48.160862 121.654869
v 88.492577 47.779282 122.019806
v 88.102402 48.013176 125.931931
v 88.509674 48.075378 125.604324
v 88.424438 48.576839 121.352577
v 88.463547 48.623489 125.458176
v 88.339142 49.272083 121.108887
v 88.682343 49.315281 120.791107
v 88.525070 48.958042 121.047142
v 88.390816 49.047543 125.235420
v 88.342728 49.763195 121.104515
v 88.680420 49.735146 120.759674
v 88.435104 49.383904 124.902763
v 88.503952 49.708324 124.460884
v 88.529877 50.077782 121.031036
v 88.254654 50.335434 122.012436
v 88.497498 50.387032 121.504562
v 88.263321 50.301918 122.974907
v 88.534714 50.275982 123.439209
v 88.478119 50.037640 123.938667
v 88.552582 50.633320 122.030472
v 88.570099 50.494118 122.959763
v 88.713791 46.984764 123.036423
v 88.768066 46.891300 123.995903
v 88.701385 46.952709 124.973785
v 89.042130 47.438583 122.507652
v 89.069832 47.180588 123.014061
v 89.080368 47.177410 123.986450
v 88.950409 47.263897 124.955185
v 88.877762 47.557423 125.251228
v 89.050064 48.125801 121.524437
v 89.073738 47.773106 122.011292
v 88.925362 48.051876 125.282211
v 88.804565 48.673607 121.043083
v 89.166351 48.815300 120.764229
v 89.123093 48.473087 121.093567
v 88.886787 48.542057 125.224594
v 89.099838 49.242420 120.552719
v 88.753769 49.189064 124.957687
v 89.036171 48.905300 124.956612
v 89.132851 49.284973 124.646866
v 89.073135 49.788406 120.419762
v 89.062584 49.696064 124.340675
v 88.718750 50.431332 120.991951
v 89.052483 50.372818 120.515678
v 89.071724 50.051239 123.955437
v 89.094978 50.414581 123.484062
v 88.974030 50.897774 121.040222
v 89.194984 50.931702 120.562538
v 88.835953 50.913692 121.969215
v 89.085953 50.965332 122.493408
v 89.037216 50.748253 123.007553
v 89.166656 51.204174 121.025185
v 89.141769 51.202980 121.984993
v 89.604927 47.587215 122.558548
v 89.548630 47.420231 123.014351
v 89.373734 47.464176 124.017334
v 89.612617 47.524765 123.480797
v 89.116951 47.561005 124.922501
v 89.654770 48.097874 121.527306
v 89.671715 47.809456 122.048851
v 89.622070 47.784180 123.982040
v 89.541824 48.096107 124.435867
v 89.273376 48.036694 124.910873
v 89.665672 48.740673 120.650078
v 89.666328 48.406914 121.045410
v 89.229416 48.584797 124.898239
v 89.572021 48.661945 124.468018
v 89.576187 49.149395 120.328529
v 89.547226 49.217415 124.342949
v 89.463249 49.849957 120.075089
v 89.840378 49.907036 119.775429
v 89.684593 49.537167 120.034081
v 89.495247 49.648460 124.191910
v 89.420204 50.396221 120.049393
v 89.779236 50.404533 119.686371
v 89.601517 49.987492 123.901871
v 89.681282 50.384037 123.572487
v 89.437027 50.989986 120.074753
v 89.760666 50.985191 119.650017
v 89.392502 50.929600 122.965157
v 89.733559 50.783371 123.238121
v 89.604561 51.472816 120.057686
v 89.854805 51.490913 119.593048
v 89.415146 51.513683 120.983231
v 89.450310 51.458656 121.966476
v 89.728203 51.392258 122.402817
v 89.713486 51.104179 122.884430
v 89.766792 51.778561 120.033104
v 89.703743 51.824314 121.018539
v 89.750481 51.630093 121.945297
v 89.857765 47.589241 123.008965
v 90.194756 48.175014 121.560486
v 90.157898 47.982307 122.052124
v 90.154396 47.839825 122.963539
v 89.842796 48.095589 123.935562
v 90.163414 48.130917 123.429070
v 90.219009 48.746319 120.548523
v 90.256279 48.407555 121.057823
v 89.938980 48.636787 123.989349
v 90.290504 48.644402 123.594955
v 89.975777 49.260265 120.045334
v 90.336487 49.422279 119.795517
v 90.292305 49.082073 120.113556
v 89.937698 49.220623 123.988762
v 90.325317 49.224545 123.635811
v 90.270988 49.838303 119.574265
v 89.842453 49.755173 123.909531
v 90.264732 49.836720 123.607513
v 90.210892 50.367199 119.374733
v 90.215782 50.367348 123.422966
v 90.103607 50.916603 119.300896
v 90.151192 50.783669 123.203934
v 90.153519 51.565872 119.142738
v 90.501816 51.566521 118.861305
v 90.277306 51.287422 119.036964
v 90.196663 51.125031 122.888039
v 90.266197 51.459026 122.451958
v 90.309235 51.827461 119.052635
v 89.995110 52.111351 120.009392
v 90.250893 52.151283 119.504227
v 90.004433 52.097370 120.981987
v 90.310562 52.095337 121.439240
v 90.235901 51.811836 121.940689
v 90.256027 52.429058 120.009537
v 90.304672 52.387825 120.981049
v 90.469955 48.145428 122.020355
v 90.449203 48.135536 122.970238
v 90.757774 48.813915 120.598167
v 90.740265 48.575787 121.059013
v 90.778130 48.390614 121.988556
v 90.704308 48.438881 122.954567
v 90.638634 48.728741 123.253242
v 90.751846 49.423252 119.764091
v 90.775108 49.102242 120.115059
v 90.704346 49.231663 123.311615
v 90.801918 49.825848 119.438736
v 90.700523 49.802143 123.302826
v 90.632599 50.447292 119.078056
v 90.987373 50.579350 118.847557
v 90.885361 50.229130 119.111565
v 90.647942 50.299458 123.225471
v 90.480843 50.957401 118.976685
v 90.914452 51.030464 118.731499
v 90.512527 50.946262 122.955482
v 90.803818 50.668842 122.965515
v 90.911469 51.056721 122.671265
v 90.879700 51.566494 118.664207
v 90.820984 51.470684 122.352577
v 90.505791 52.171806 119.020119
v 90.917236 52.108353 118.722939
v 90.829971 51.833942 121.973434
v 90.827980 52.203064 121.602440
v 90.732567 52.669140 119.073029
v 91.030014 52.643642 118.787468
v 90.463234 52.755909 119.987045
v 90.599709 52.690998 120.947090
v 90.939880 52.630703 121.293114
v 90.893211 53.001644 119.039696
v 90.738403 53.230476 119.996498
v 90.878372 53.303596 119.512520
v 90.864616 53.302849 120.490280
v 90.862030 53.010818 120.977264
v 90.903229 53.562519 120.003624
v 91.039085 48.746498 121.029381
v 91.076897 48.690155 122.010735
v 90.872948 48.735229 122.925072
v 91.095238 49.276829 120.034821
v 91.404427 49.237263 120.505493
v 91.347847 49.002026 121.018250
v 91.328499 48.994759 121.980606
v 91.300659 49.276745 122.440216
v 91.046585 49.214806 122.921677
v 91.398056 49.846642 119.532707
v 91.446495 49.465927 119.997208
v 91.066498 49.804176 122.951584
v 91.439522 49.841393 122.490044
v 91.329391 50.601559 118.810173
v 91.371704 50.237000 119.100250
v 91.026779 50.352097 122.922714
v 91.417007 50.421883 122.578835
v 91.413322 51.012703 118.643860
v 91.388062 50.963535 122.447151
v 91.420486 51.571114 118.561539
v 91.322128 51.393539 122.237946
v 91.423981 52.152699 118.562622
v 91.380478 51.776028 121.939453
v 91.440910 52.209911 121.654533
v 91.436523 52.729912 118.588768
v 91.430946 52.724262 121.443466
v 91.086678 53.344967 119.010521
v 91.466682 53.292408 118.627319
v 91.094421 53.341415 120.982948
v 91.495956 53.269249 121.282776
v 91.293365 53.850189 119.051254
v 91.582558 53.842560 118.562195
v 91.084007 53.903866 119.997017
v 91.352203 53.815174 120.908073
v 91.597755 53.733807 121.166557
v 91.444519 54.192863 119.011642
v 91.359932 54.378937 119.989891
v 91.467094 54.470566 119.509811
v 91.532112 54.396591 120.416237
v 91.517868 54.054607 120.891983
v 91.568947 54.665180 119.986336
v 91.659454 49.286270 121.025932
v 91.516457 49.302567 121.955193
v 91.923683 49.958588 119.700203
v 91.910652 49.731041 120.057556
v 91.940430 49.566750 120.974892
v 91.992599 49.817661 121.496078
v 91.767258 49.770760 122.011024
v 91.698853 50.419331 119.022568
v 92.043976 50.306507 119.348610
v 91.957428 50.128216 121.969803
v 91.807907 50.471653 122.240181
v 91.955040 51.058636 118.707275
v 92.026352 50.634254 118.979935
v 91.805916 50.890938 122.209351
v 91.999794 51.576355 118.564957
v 91.691330 51.544567 121.969604
v 91.970589 51.253330 121.959373
v 92.111084 51.666142 121.721695
v 92.001053 52.154758 118.498665
v 92.016991 52.168865 121.591301
v 91.981445 52.735462 118.423935
v 92.001190 52.739929 121.487343
v 91.910942 53.238159 118.306313
v 92.012520 53.315498 121.415527
v 91.859337 53.975430 118.130692
v 92.203613 54.005573 117.801903
v 92.041939 53.644852 118.048927
v 92.052353 53.834690 121.286751
v 91.941597 54.429585 118.091270
v 92.208794 54.420929 117.763336
v 91.600967 54.534672 118.980225
v 91.985481 54.253021 121.015411
v 91.960930 54.582005 120.649086
v 92.069916 54.760754 118.036827
v 91.881042 55.000343 119.020485
v 92.044159 55.058769 118.512535
v 91.823273 54.942081 119.939552
v 92.083023 54.928905 120.295883
v 92.101692 55.304882 119.036385
v 92.103477 55.153049 119.942970
v 92.196892 49.935497 120.042152
v 92.232864 49.869881 120.986351
v 92.490601 50.480877 119.569916
v 92.469261 50.200310 120.027969
v 92.483231 50.182610 120.976471
v 92.145096 50.442535 121.895859
v 92.434860 50.464222 121.414825
v 92.476715 51.175331 118.796326
v 92.529488 50.812202 119.089615
v 92.156631 50.935192 121.892395
v 92.549934 51.049923 121.471306
v 92.557014 51.599731 118.642052
v 92.573761 51.575180 121.484711
v 92.583183 52.158077 118.517532
v 92.581291 52.152531 121.455261
v 92.557182 52.681202 118.330727
v 92.582085 52.740784 121.452766
v 92.314728 53.351349 118.034157
v 92.684517 53.508026 117.774513
v 92.625153 53.117126 118.060600
v 92.587395 53.324001 121.448410
v 92.616936 53.940544 117.577614
v 92.600105 53.883434 121.372360
v 92.601357 54.474789 117.428810
v 92.305901 54.474224 120.975090
v 92.674004 54.296101 121.198273
v 92.244598 55.113316 117.995445
v 92.567116 55.061447 117.515236
v 92.633759 54.661980 120.903008
v 92.604080 55.047985 120.466057
v 92.473480 55.596024 118.035912
v 92.699486 55.625191 117.558884
v 92.365723 55.592663 118.968521
v 92.603333 55.653645 119.493607
v 92.557510 55.427574 120.000122
v 92.652771 55.920074 118.021217
v 92.641319 55.911877 118.987961
v 92.681168 50.495319 120.028008
v 92.658745 50.487190 120.955833
v 92.784050 51.068554 119.072136
v 92.984909 50.941528 119.999306
v 92.879654 50.977928 120.981651
v 92.971344 51.681767 118.795486
v 93.050797 51.371689 119.056465
v 93.185921 51.267178 120.002808
v 93.072952 51.337276 120.961143
v 92.965729 51.658432 121.217857
v 93.118149 52.196999 118.654640
v 93.036896 52.169987 121.258171
v 93.173141 52.670456 118.378883
v 93.104385 52.777454 121.308952
v 93.181526 53.451294 117.693130
v 93.181747 53.061302 118.035469
v 93.146149 53.337418 121.374596
v 93.147301 53.891273 117.392471
v 93.141251 53.879269 121.335953
v 92.996513 54.554485 117.098106
v 93.346748 54.670387 116.838730
v 93.227348 54.311897 117.089577
v 93.079788 54.296227 121.190323
v 92.944031 55.084927 117.058380
v 93.313103 55.096832 116.738266
v 93.134636 54.677742 120.907906
v 93.200645 55.081863 120.576881
v 92.957764 55.674240 117.076851
v 93.311684 55.660545 116.704666
v 92.907059 55.622368 119.968102
v 93.258339 55.482235 120.251862
v 93.099464 56.184875 117.080811
v 93.352753 56.176357 116.731934
v 92.829002 56.259224 117.990028
v 92.932800 56.216202 118.959587
v 93.250580 56.179558 119.424706
v 93.230713 55.823906 119.902489
v 93.236519 56.520271 117.034073
v 93.104004 56.730442 117.995834
v 93.231262 56.809776 117.514305
v 93.245811 56.782413 118.473846
v 93.213943 56.511066 118.975494
v 93.304260 57.030399 117.998886
v 93.239334 51.669750 119.066299
v 93.433685 51.613945 120.000168
v 93.222862 51.661751 120.926682
v 93.508156 52.136562 119.007172
v 93.708466 52.183670 119.512535
v 93.641106 51.949638 119.993721
v 93.650520 52.204842 120.447060
v 93.409317 52.150887 120.932785
v 93.697739 52.777645 118.548027
v 93.761696 52.449745 119.005043
v 93.520515 52.713734 121.020134
v 93.826889 52.710388 120.539787
v 93.752182 53.451084 117.688133
v 93.771416 53.097256 118.075699
v 93.731667 53.048008 120.975029
v 93.557411 53.412678 121.196480
v 93.759392 53.830971 117.364502
v 93.555389 53.817387 121.188499
v 93.771881 54.633663 116.734192
v 93.763298 54.230270 117.027214
v 93.444756 54.467777 120.960922
v 93.724197 54.180374 120.955093
v 93.839638 54.585510 120.680344
v 93.769585 55.093460 116.530067
v 93.757019 55.072678 120.481316
v 93.739365 55.643257 116.391968
v 93.758194 55.523983 120.252235
v 93.705376 56.256699 116.395622
v 93.762207 55.905441 119.940041
v 93.766830 56.289825 119.581894
v 93.417221 56.871082 116.995651
v 93.728317 56.823357 116.505852
v 93.520508 56.771255 118.947464
v 93.844246 56.660618 119.257683
v 93.647331 57.353161 117.036186
v 93.862907 57.386955 116.554291
v 93.559044 57.333920 117.957848
v 93.849609 57.337818 118.415070
v 93.821259 56.989056 118.897316
v 93.820007 57.681816 117.020073
v 93.835640 57.648579 117.975189
v 93.812340 52.260246 119.986221
v 94.021179 52.762474 119.025291
v 94.068565 52.733566 119.997787
v 94.254486 53.517784 117.747643
v 94.248833 53.282410 118.074677
v 94.305176 53.062328 118.989174
v 94.269386 53.083519 119.982597
v 93.902115 53.372406 120.894363
v 94.193779 53.387089 120.415909
v 94.337639 53.871151 117.411690
v 93.906158 53.863201 120.889656
v 94.244949 53.936695 120.456718
v 94.336777 54.625446 116.693695
v 94.343208 54.241394 117.037849
v 94.255424 54.500889 120.365967
v 94.317749 55.064686 116.394783
v 94.217155 55.072128 120.279411
v 94.160469 55.723038 116.089417
v 94.518600 55.843494 115.841049
v 94.400398 55.485367 116.092506
v 94.173820 55.496185 120.159081
v 94.087402 56.258652 116.037132
v 94.486038 56.269306 115.749611
v 94.292496 55.853912 119.908379
v 94.369370 56.269199 119.596428
v 94.093124 56.839798 116.036591
v 94.461548 56.843964 115.699394
v 94.345551 56.703720 119.290192
v 94.098732 57.446037 116.059883
v 94.442200 57.430676 115.641777
v 94.348923 57.084034 118.948196
v 94.351219 57.471287 118.590866
v 94.201630 57.998554 116.049149
v 94.460793 57.991322 115.544464
v 93.987625 58.025555 116.982201
v 94.121437 57.958626 117.943184
v 94.456055 57.894432 118.287468
v 94.306870 58.511791 116.047729
v 94.505318 58.540215 115.584976
v 94.244736 58.509033 116.970482
v 94.406914 58.554382 117.476372
v 94.397141 58.258938 117.955788
v 94.430931 58.840946 116.016960
v 94.417557 58.845951 116.991501
v 94.544258 53.452209 118.046097
v 94.593376 53.377972 119.011696
v 94.422966 53.406422 119.945610
v 94.842361 54.002068 117.581978
v 94.845726 53.708549 118.031136
v 94.843422 53.683533 118.980385
v 94.820786 53.962578 119.442665
v 94.580826 53.898743 119.945152
v 94.846695 54.676098 116.739761
v 94.873055 54.349964 117.099739
v 94.609138 54.494465 119.976234
v 94.967049 54.523804 119.498352
v 94.922134 55.049686 116.418526
v 94.605820 55.077583 119.964462
v 94.986824 55.086422 119.603973
v 94.933342 55.820282 115.764664
v 94.933090 55.432964 116.059052
v 94.532341 55.616055 119.909836
v 94.947914 55.694370 119.598213
v 94.943398 56.273445 115.603195
v 94.907829 56.231808 119.434334
v 94.922745 56.838577 115.467621
v 94.835251 56.658192 119.222725
v 94.847450 57.338875 115.313919
v 94.896164 57.047962 118.936333
v 94.956917 57.478832 118.645256
v 94.787437 58.062492 115.110168
v 95.136490 58.108589 114.811485
v 94.967331 57.745350 115.044189
v 94.953003 57.981564 118.413666
v 94.789101 58.553425 115.105682
v 95.134850 58.513493 114.803787
v 94.694710 58.529373 117.942375
v 95.033958 58.402889 118.203514
v 94.961990 58.877232 115.025970
v 94.613365 59.199406 116.001175
v 94.861725 59.218933 115.458069
v 94.637947 59.185993 116.983093
v 94.970863 59.171181 117.468513
v 94.983986 58.764793 117.898499
v 94.841301 59.691536 116.039597
v 95.018127 59.736019 115.546944
v 94.882530 59.671608 116.939072
v 95.116524 59.667763 117.241173
v 94.978729 60.034992 116.011513
v 95.043144 59.996281 116.960495
v 95.140228 54.003139 118.038269
v 95.031013 53.991478 118.955589
v 95.174065 54.567852 117.049194
v 95.446838 54.549034 117.524193
v 95.396782 54.302052 118.001373
v 95.462036 54.529514 118.485489
v 95.270683 54.466091 119.006355
v 95.437065 55.162533 116.576065
v 95.489113 54.824867 117.025879
v 95.449539 54.821823 118.964218
v 95.336296 55.165306 119.264221
v 95.415100 55.868496 115.797409
v 95.458046 55.526398 116.105202
v 95.371269 55.669979 119.282326
v 95.497055 56.289982 115.591759
v 95.331192 56.158497 119.220222
v 95.491592 56.797626 115.366158
v 95.204880 56.815495 118.965996
v 95.485756 56.525848 118.959129
v 95.603157 56.931950 118.687454
v 95.247070 57.456921 115.040047
v 95.612083 57.629616 114.809303
v 95.556267 57.234138 115.077347
v 95.532364 57.434494 118.547150
v 95.550163 58.047176 114.666664
v 95.516396 57.995609 118.413666
v 95.545998 58.588428 114.626663
v 95.518707 58.452106 118.244011
v 95.169708 59.211693 114.977615
v 95.586037 59.150127 114.688606
v 95.519112 58.853333 117.957657
v 95.513504 59.272446 117.649704
v 95.263519 59.782352 115.054924
v 95.645988 59.768345 114.727356
v 95.533302 59.756508 117.440247
v 95.385658 60.338352 115.065216
v 95.677528 60.341740 114.761513
v 95.119659 60.395634 115.985718
v 95.242859 60.348476 116.959488
v 95.605751 60.300274 117.277069
v 95.507011 60.847351 115.099724
v 95.716576 60.760227 114.859634
v 95.310814 60.916100 115.999367
v 95.481766 60.836681 116.902245
v 95.705688 60.757820 117.151840
v 95.630516 61.088028 115.128204
v 95.495651 61.391735 115.997948
v 95.565598 61.305145 115.611763
v 95.571976 61.280327 116.376846
v 95.644012 61.065960 116.856316
v 95.549812 61.429066 115.999138
v 95.592461 54.607941 118.002060
v 95.749115 55.128342 117.037651
v 95.866623 55.079617 118.007507
v 95.586899 55.156265 118.916527
v 95.755814 55.743149 116.057449
v 96.038383 55.719627 116.525391
v 96.011063 55.448547 117.019974
v 96.026604 55.421532 117.985954
v 95.966736 55.716507 118.434006
v 95.718681 55.656590 118.914093
v 95.988281 56.377125 115.722748
v 96.063065 56.005573 116.042572
v 95.672760 56.202087 118.896782
v 95.998993 56.283291 118.457832
v 96.105057 56.846859 115.436043
v 96.018700 56.849686 118.370300
v 96.010841 57.628990 114.807686
v 96.063354 57.250172 115.093246
v 96.039185 57.458748 118.329124
v 96.079048 58.046753 114.645462
v 96.049591 57.998100 118.311981
v 96.104439 58.601643 114.566505
v 95.998489 58.407120 118.194313
v 96.110191 59.185123 114.554153
v 96.068024 58.805828 117.936020
v 96.138123 59.248219 117.682777
v 96.113449 59.771088 114.564819
v 96.104988 59.773064 117.517143
v 96.118706 60.343204 114.610252
v 96.114792 60.343639 117.407211
v 96.118507 60.781544 114.766380
v 96.117355 60.783340 117.236313
v 96.102287 61.066296 115.072632
v 95.751930 61.408039 115.998390
v 96.130142 61.322159 116.002319
v 96.103470 61.065372 116.930008
v 96.200768 55.766937 117.027260
v 96.156097 55.752403 117.952621
v 96.323875 56.312374 116.052368
v 96.466858 56.242855 117.014214
v 96.255432 56.267052 117.952507
v 96.592285 56.941032 115.692284
v 96.607620 56.628624 116.043274
v 96.635864 56.584118 116.988678
v 96.608467 56.878567 117.456726
v 96.371330 56.821228 117.957802
v 96.371475 57.463928 115.041451
v 96.730637 57.384781 115.368019
v 96.447517 57.399918 118.018738
v 96.766541 57.393166 117.545128
v 96.563148 58.140503 114.756302
v 96.675194 57.737427 115.024300
v 96.642998 57.742584 117.958984
v 96.426643 58.008141 118.126976
v 96.659714 58.626106 114.634514
v 96.373276 58.569901 117.960281
v 96.639633 58.278137 117.936874
v 96.777809 58.687828 117.689415
v 96.681824 59.188354 114.570839
v 96.710945 59.190079 117.575905
v 96.690285 59.770443 114.536163
v 96.691383 59.771770 117.508430
v 96.688156 60.344078 114.583183
v 96.688263 60.344032 117.417206
v 96.677864 60.777477 114.761490
v 96.677696 60.777843 117.238991
v 96.675270 61.025543 115.071190
v 96.676155 61.186871 115.998322
v 96.673805 61.027714 116.927803
v 96.883919 56.946213 116.050606
v 96.805481 56.910351 116.958054
v 97.112289 57.515755 115.708954
v 97.122261 57.249737 116.026131
v 97.202354 57.467388 116.483978
v 97.047752 57.389824 117.018837
v 96.950356 58.043362 115.035172
v 97.250938 57.996239 115.487183
v 97.223175 57.745777 116.978607
v 96.778870 58.014347 117.856125
v 97.096748 58.092014 117.413017
v 97.075836 58.706631 114.794830
v 97.211609 58.348598 115.053131
v 97.217613 58.644947 117.367897
v 97.194221 59.234367 114.714561
v 97.255424 59.196091 117.411140
v 97.246498 59.784294 114.629532
v 97.259903 59.770611 117.408417
v 97.241386 60.327583 114.654716
v 97.246048 60.327633 117.358116
v 97.163376 60.726856 114.810791
v 97.163696 60.726803 117.189392
v 97.173866 60.934711 115.075531
v 97.203003 61.050873 115.999420
v 97.173584 60.934662 116.923737
v 97.268402 57.544529 116.025574
v 97.443893 58.049656 116.013939
v 97.365990 58.083027 116.936501
v 97.373894 58.672333 115.073273
v 97.661011 58.568626 115.988754
v 97.557945 58.597469 116.970360
v 97.595894 59.172646 115.018814
v 97.825172 59.203419 115.510796
v 97.823631 58.921501 116.008354
v 97.739967 58.964863 116.956596
v 97.642273 59.285995 117.193558
v 97.645126 59.861053 114.809639
v 97.789955 59.512108 115.043129
v 97.693161 59.774208 117.231285
v 97.649986 60.254948 114.823898
v 97.657326 60.248245 117.190559
v 97.768135 60.549839 115.075371
v 97.466217 60.804565 115.057785
v 97.546936 60.898575 116.002090
v 97.875267 60.714066 115.997780
v 97.463554 60.802322 116.943169
v 97.763275 60.547417 116.920120
v 97.977257 59.267876 116.024490
v 97.865585 59.283119 116.927795
v 97.915771 59.844509 115.091499
v 98.186897 59.780243 116.009483
v 97.956757 59.784481 116.919022
v 98.000473 60.295044 115.123581
v 98.221458 60.320786 115.611359
v 98.311897 60.132763 115.997551
v 98.210068 60.323254 116.384590
v 97.992729 60.266033 116.868141
v 98.299698 60.401058 115.996864
v 98.349533 60.328430 115.999405
# 1238 vertices, 0 vertices normals

f 3 2 1
f 1 4 3
f 1 2 5
f 5 2 6
f 4 1 7
f 7 1 5
f 6 8 5
f 5 8 7
f 11 10 9
f 9 12 11
f 15 14 13
f 15 13 10
f 10 13 9
f 13 2 9
f 2 3 9
f 3 4 9
f 4 12 9
f 4 16 12
f 13 14 17
f 17 14 18
f 17 6 2
f 17 2 13
f 7 16 4
f 7 19 16
f 17 18 20
f 20 18 21
f 22 8 6
f 17 22 6
f 20 22 17
f 19 7 23
f 7 22 23
f 22 24 23
f 7 8 22
f 24 25 23
f 21 26 20
f 28 27 26
f 27 20 26
f 27 22 20
f 30 24 29
f 24 27 29
f 24 22 27
f 24 30 25
f 28 31 27
f 27 31 29
f 34 33 32
f 10 11 32
f 11 34 32
f 11 35 34
f 11 12 35
f 35 12 36
f 32 33 15
f 33 14 15
f 33 37 14
f 32 15 10
f 16 36 12
f 16 38 36
f 37 18 14
f 39 18 37
f 19 38 16
f 19 40 38
f 39 21 18
f 41 21 39
f 42 40 19
f 42 19 23
f 23 25 42
f 42 25 43
f 26 21 44
f 21 45 44
f 21 41 45
f 44 28 26
f 29 46 30
f 46 47 30
f 47 25 30
f 47 43 25
f 45 48 44
f 44 48 28
f 48 31 28
f 48 49 31
f 29 31 46
f 31 50 46
f 31 49 50
f 46 50 47
f 52 51 34
f 34 51 33
f 53 34 35
f 53 52 34
f 35 36 53
f 53 36 54
f 51 37 33
f 55 37 51
f 38 54 36
f 38 56 54
f 59 58 57
f 55 59 57
f 39 55 57
f 37 55 39
f 40 61 60
f 56 40 60
f 38 40 56
f 61 62 60
f 57 58 63
f 63 58 64
f 63 41 39
f 63 39 57
f 42 61 40
f 42 43 61
f 43 62 61
f 43 65 62
f 64 66 63
f 41 63 66
f 67 41 66
f 45 41 67
f 47 65 43
f 47 68 65
f 48 45 69
f 45 70 69
f 45 67 70
f 71 49 48
f 71 48 69
f 49 71 72
f 73 49 72
f 50 49 73
f 47 50 68
f 68 50 73
f 70 74 69
f 69 74 71
f 71 74 75
f 71 75 72
f 77 76 52
f 52 76 51
f 78 52 53
f 78 77 52
f 53 54 78
f 78 54 79
f 76 55 51
f 80 55 76
f 56 79 54
f 56 81 79
f 83 82 59
f 59 82 58
f 59 55 80
f 59 80 83
f 84 81 56
f 84 56 60
f 60 62 84
f 84 62 85
f 82 64 58
f 86 64 82
f 65 85 62
f 65 87 85
f 66 64 88
f 64 89 88
f 64 86 89
f 88 67 66
f 68 87 65
f 68 90 87
f 89 91 88
f 67 88 91
f 92 67 91
f 70 67 92
f 94 93 73
f 94 73 72
f 68 73 90
f 90 73 93
f 74 70 95
f 70 96 95
f 70 92 96
f 97 75 74
f 97 74 95
f 97 98 75
f 98 72 75
f 98 94 72
f 96 99 95
f 95 99 97
f 97 99 100
f 97 100 98
f 101 76 77
f 78 102 77
f 77 102 101
f 79 102 78
f 104 103 101
f 103 76 101
f 103 80 76
f 104 101 102
f 104 102 105
f 79 81 102
f 81 106 102
f 106 105 102
f 106 81 107
f 107 108 106
f 110 109 83
f 83 109 82
f 83 80 103
f 83 103 110
f 84 107 81
f 84 85 107
f 85 108 107
f 85 111 108
f 109 86 82
f 112 86 109
f 87 111 85
f 87 113 111
f 112 89 86
f 114 89 112
f 90 113 87
f 90 115 113
f 91 89 116
f 89 117 116
f 89 114 117
f 116 92 91
f 94 118 93
f 118 119 93
f 119 90 93
f 119 115 90
f 117 120 116
f 92 116 120
f 121 92 120
f 96 92 121
f 123 122 118
f 94 123 118
f 98 123 94
f 118 122 119
f 121 124 96
f 96 124 99
f 99 125 100
f 124 125 99
f 98 100 123
f 123 100 125
f 127 126 104
f 104 126 103
f 128 104 105
f 128 127 104
f 130 128 129
f 128 106 129
f 128 105 106
f 108 129 106
f 131 109 110
f 132 131 110
f 103 132 110
f 126 132 103
f 130 129 133
f 130 133 134
f 111 133 108
f 108 133 129
f 136 135 131
f 135 109 131
f 135 112 109
f 136 131 132
f 137 134 133
f 133 111 137
f 111 138 137
f 111 113 138
f 135 114 112
f 139 114 135
f 115 138 113
f 115 140 138
f 139 117 114
f 141 117 139
f 119 140 115
f 119 142 140
f 141 143 117
f 117 143 120
f 121 120 143
f 121 143 144
f 146 145 122
f 146 122 123
f 119 122 142
f 142 122 145
f 124 121 147
f 121 148 147
f 121 144 148
f 124 147 149
f 150 124 149
f 125 124 150
f 123 125 146
f 146 125 150
f 148 151 147
f 147 151 149
f 152 126 127
f 128 153 127
f 127 153 152
f 130 153 128
f 155 154 152
f 154 126 152
f 154 132 126
f 155 152 153
f 155 153 156
f 153 130 156
f 130 157 156
f 130 134 157
f 159 158 136
f 136 158 135
f 136 132 154
f 136 154 159
f 160 157 134
f 160 134 137
f 137 138 160
f 160 138 161
f 158 139 135
f 162 139 158
f 140 161 138
f 140 163 161
f 162 141 139
f 164 141 162
f 142 163 140
f 142 165 163
f 143 141 166
f 141 167 166
f 141 164 167
f 166 144 143
f 169 168 145
f 169 145 146
f 142 145 165
f 165 145 168
f 167 170 166
f 144 166 170
f 171 144 170
f 148 144 171
f 149 172 150
f 172 173 150
f 173 146 150
f 173 169 146
f 171 174 148
f 148 174 151
f 149 151 172
f 151 175 172
f 151 174 175
f 172 175 173
f 177 176 155
f 155 176 154
f 178 155 156
f 178 177 155
f 156 157 178
f 178 157 179
f 181 180 159
f 159 180 158
f 159 154 176
f 159 176 181
f 157 160 182
f 183 157 182
f 179 157 183
f 161 182 160
f 180 162 158
f 184 162 180
f 185 183 182
f 182 161 185
f 161 186 185
f 161 163 186
f 184 164 162
f 187 164 184
f 165 186 163
f 165 188 186
f 187 167 164
f 189 167 187
f 191 190 168
f 191 168 169
f 165 168 188
f 188 168 190
f 170 167 192
f 167 193 192
f 167 189 193
f 192 171 170
f 173 191 169
f 173 194 191
f 193 195 192
f 195 197 196
f 195 196 174
f 192 195 174
f 171 192 174
f 174 196 198
f 199 174 198
f 175 174 199
f 173 175 194
f 194 175 199
f 197 200 196
f 196 200 198
f 201 176 177
f 178 202 177
f 177 202 201
f 179 202 178
f 203 180 181
f 204 203 181
f 204 181 176
f 205 204 176
f 201 205 176
f 205 201 202
f 205 202 206
f 202 179 206
f 179 207 206
f 179 183 207
f 209 208 203
f 208 180 203
f 208 184 180
f 209 203 204
f 183 185 210
f 211 183 210
f 207 183 211
f 186 210 185
f 208 187 184
f 212 187 208
f 211 210 213
f 211 213 214
f 188 213 186
f 186 213 210
f 212 189 187
f 215 189 212
f 214 213 190
f 191 214 190
f 216 214 191
f 190 213 188
f 215 193 189
f 217 193 215
f 194 216 191
f 194 218 216
f 217 219 193
f 193 219 195
f 197 195 219
f 197 219 220
f 198 221 199
f 221 222 199
f 222 194 199
f 222 218 194
f 220 223 197
f 197 223 200
f 198 200 221
f 200 224 221
f 200 223 224
f 221 224 222
f 226 225 205
f 205 225 204
f 227 205 206
f 227 226 205
f 206 207 227
f 227 207 228
f 230 229 209
f 209 229 208
f 209 204 225
f 209 225 230
f 211 228 207
f 211 231 228
f 229 212 208
f 232 212 229
f 214 231 211
f 214 233 231
f 232 215 212
f 234 215 232
f 216 233 214
f 216 235 233
f 234 217 215
f 236 217 234
f 218 235 216
f 218 237 235
f 219 217 238
f 217 239 238
f 217 236 239
f 238 220 219
f 222 237 218
f 222 240 237
f 239 241 238
f 241 243 242
f 241 242 223
f 238 241 223
f 220 238 223
f 223 242 244
f 245 223 244
f 224 223 245
f 222 224 240
f 240 224 245
f 243 246 242
f 242 246 244
f 247 225 226
f 227 248 226
f 226 248 247
f 228 248 227
f 250 249 230
f 230 249 229
f 230 225 247
f 251 230 247
f 250 230 251
f 251 247 248
f 251 248 252
f 248 228 252
f 228 253 252
f 228 231 253
f 249 232 229
f 254 232 249
f 233 253 231
f 233 255 253
f 254 234 232
f 256 234 254
f 235 255 233
f 235 257 255
f 256 236 234
f 258 236 256
f 237 257 235
f 237 259 257
f 258 239 236
f 260 239 258
f 240 259 237
f 240 261 259
f 241 239 262
f 239 263 262
f 239 260 263
f 262 243 241
f 244 264 245
f 264 265 245
f 265 240 245
f 265 261 240
f 263 266 262
f 262 266 243
f 266 246 243
f 266 267 246
f 244 246 264
f 246 268 264
f 246 267 268
f 264 268 265
f 269 249 250
f 269 250 270
f 250 271 270
f 250 251 271
f 273 271 272
f 271 252 272
f 271 251 252
f 253 272 252
f 275 274 269
f 274 249 269
f 274 254 249
f 275 269 270
f 276 273 272
f 272 253 276
f 253 277 276
f 253 255 277
f 274 256 254
f 278 256 274
f 257 277 255
f 257 279 277
f 278 258 256
f 280 258 278
f 259 279 257
f 259 281 279
f 280 260 258
f 282 260 280
f 261 281 259
f 261 283 281
f 282 263 260
f 284 263 282
f 265 283 261
f 265 285 283
f 284 286 263
f 263 286 266
f 286 288 287
f 267 286 287
f 266 286 267
f 267 287 289
f 290 267 289
f 268 267 290
f 265 268 285
f 285 268 290
f 288 291 287
f 287 291 289
f 292 270 271
f 273 292 271
f 294 293 275
f 275 293 274
f 275 270 292
f 295 275 292
f 294 275 295
f 295 292 273
f 276 295 273
f 296 295 276
f 276 277 296
f 296 277 297
f 293 278 274
f 298 278 293
f 279 297 277
f 279 299 297
f 298 280 278
f 300 280 298
f 281 299 279
f 281 301 299
f 300 282 280
f 302 282 300
f 283 301 281
f 283 303 301
f 302 284 282
f 304 284 302
f 285 303 283
f 285 305 303
f 286 284 306
f 284 307 306
f 284 304 307
f 306 288 286
f 309 308 290
f 309 290 289
f 285 290 305
f 305 290 308
f 307 310 306
f 306 310 288
f 310 291 288
f 310 311 291
f 289 291 309
f 309 291 311
f 313 312 294
f 294 312 293
f 314 294 295
f 314 313 294
f 316 314 315
f 314 296 315
f 314 295 296
f 297 315 296
f 312 298 293
f 317 298 312
f 318 316 315
f 315 297 318
f 297 319 318
f 297 299 319
f 317 300 298
f 320 300 317
f 301 319 299
f 301 321 319
f 320 302 300
f 322 302 320
f 303 321 301
f 303 323 321
f 322 304 302
f 324 304 322
f 305 323 303
f 305 325 323
f 324 307 304
f 326 307 324
f 309 327 308
f 327 328 308
f 328 305 308
f 328 325 305
f 326 329 307
f 307 329 310
f 329 331 330
f 311 329 330
f 310 329 311
f 330 332 311
f 311 332 309
f 332 333 309
f 333 327 309
f 327 333 328
f 331 334 330
f 330 334 332
f 335 312 313
f 314 336 313
f 313 336 335
f 316 336 314
f 338 337 335
f 337 312 335
f 337 317 312
f 338 335 336
f 338 336 339
f 339 336 316
f 318 339 316
f 340 339 318
f 318 319 340
f 340 319 341
f 337 320 317
f 342 320 337
f 321 341 319
f 321 343 341
f 346 345 344
f 342 346 344
f 322 342 344
f 320 342 322
f 323 343 321
f 323 347 343
f 344 345 348
f 348 345 349
f 348 324 322
f 348 322 344
f 325 347 323
f 325 350 347
f 349 351 348
f 324 348 351
f 352 324 351
f 326 324 352
f 328 350 325
f 328 353 350
f 329 326 354
f 326 355 354
f 326 352 355
f 354 331 329
f 357 356 333
f 357 333 332
f 328 333 353
f 353 333 356
f 355 358 354
f 354 358 331
f 358 334 331
f 358 359 334
f 332 334 357
f 357 334 359
f 361 360 338
f 338 360 337
f 362 338 339
f 362 361 338
f 364 362 363
f 362 340 363
f 362 339 340
f 341 363 340
f 360 342 337
f 365 342 360
f 366 364 363
f 363 341 366
f 341 367 366
f 341 343 367
f 369 368 346
f 346 368 345
f 346 342 365
f 346 365 369
f 347 367 343
f 347 370 367
f 368 349 345
f 371 349 368
f 350 370 347
f 350 372 370
f 351 349 373
f 349 374 373
f 349 371 374
f 373 352 351
f 353 372 350
f 353 375 372
f 374 376 373
f 352 373 376
f 377 352 376
f 355 352 377
f 379 378 356
f 379 356 357
f 353 356 375
f 375 356 378
f 377 380 355
f 355 380 358
f 358 381 359
f 380 381 358
f 357 359 379
f 379 359 381
f 382 360 361
f 362 383 361
f 361 383 382
f 364 383 362
f 385 384 382
f 384 360 382
f 384 365 360
f 385 382 383
f 385 383 386
f 388 386 387
f 387 386 366
f 386 383 366
f 383 364 366
f 367 387 366
f 390 389 369
f 369 389 368
f 369 365 384
f 369 384 390
f 391 388 387
f 387 367 391
f 367 392 391
f 367 370 392
f 389 371 368
f 393 371 389
f 372 392 370
f 372 394 392
f 393 374 371
f 395 374 393
f 375 394 372
f 375 396 394
f 395 397 374
f 374 397 376
f 377 376 397
f 377 397 398
f 379 399 378
f 399 400 378
f 400 375 378
f 400 396 375
f 380 377 401
f 377 402 401
f 377 398 402
f 403 381 380
f 403 380 401
f 403 404 381
f 381 404 379
f 404 405 379
f 405 399 379
f 399 405 400
f 402 406 401
f 401 406 403
f 403 406 407
f 403 407 404
f 409 408 385
f 385 408 384
f 410 385 386
f 410 409 385
f 386 388 410
f 410 388 411
f 412 389 390
f 413 412 390
f 384 413 390
f 408 413 384
f 414 411 388
f 414 388 391
f 391 392 414
f 414 392 415
f 417 416 412
f 416 389 412
f 416 393 389
f 417 412 413
f 394 415 392
f 394 418 415
f 416 395 393
f 419 395 416
f 396 418 394
f 396 420 418
f 397 395 421
f 395 422 421
f 395 419 422
f 421 398 397
f 400 420 396
f 400 423 420
f 422 424 421
f 398 421 424
f 425 398 424
f 402 398 425
f 427 426 405
f 427 405 404
f 400 405 423
f 423 405 426
f 425 428 402
f 402 428 406
f 406 429 407
f 428 429 406
f 404 407 427
f 427 407 429
f 430 408 409
f 410 431 409
f 409 431 430
f 411 431 410
f 433 432 430
f 432 408 430
f 432 413 408
f 433 430 431
f 433 431 434
f 436 434 435
f 435 434 414
f 434 431 414
f 431 411 414
f 415 435 414
f 438 437 417
f 417 437 416
f 417 413 432
f 417 432 438
f 439 436 435
f 435 415 439
f 415 440 439
f 415 418 440
f 437 419 416
f 441 419 437
f 420 440 418
f 420 442 440
f 441 422 419
f 443 422 441
f 423 442 420
f 423 444 442
f 424 422 445
f 422 446 445
f 422 443 446
f 445 425 424
f 427 447 426
f 447 448 426
f 448 423 426
f 448 444 423
f 446 449 445
f 449 451 450
f 449 450 428
f 445 449 428
f 425 445 428
f 452 429 428
f 452 428 450
f 452 453 429
f 429 453 427
f 453 454 427
f 454 447 427
f 447 454 448
f 451 455 450
f 450 455 452
f 452 455 456
f 452 456 453
f 458 457 433
f 433 457 432
f 459 433 434
f 459 458 433
f 434 436 459
f 459 436 460
f 462 461 438
f 438 461 437
f 438 432 457
f 438 457 462
f 463 460 436
f 463 436 439
f 439 440 463
f 463 440 464
f 461 441 437
f 465 441 461
f 442 464 440
f 442 466 464
f 465 443 441
f 467 443 465
f 444 466 442
f 444 468 466
f 467 446 443
f 469 446 467
f 448 468 444
f 448 470 468
f 449 446 471
f 446 472 471
f 446 469 472
f 471 451 449
f 474 473 454
f 474 454 453
f 448 454 470
f 470 454 473
f 472 475 471
f 475 477 476
f 475 476 455
f 471 475 455
f 451 471 455
f 455 476 478
f 479 455 478
f 456 455 479
f 453 456 474
f 474 456 479
f 477 480 476
f 476 480 478
f 481 457 458
f 459 482 458
f 458 482 481
f 460 482 459
f 483 461 462
f 484 483 462
f 484 462 457
f 485 484 457
f 481 485 457
f 485 481 482
f 485 482 486
f 488 486 487
f 487 486 463
f 486 482 463
f 482 460 463
f 464 487 463
f 490 489 483
f 489 461 483
f 489 465 461
f 490 483 484
f 491 488 487
f 487 464 491
f 464 492 491
f 464 466 492
f 489 467 465
f 493 467 489
f 468 492 466
f 468 494 492
f 493 469 467
f 495 469 493
f 470 494 468
f 470 496 494
f 495 472 469
f 497 472 495
f 499 498 473
f 499 473 474
f 470 473 496
f 496 473 498
f 475 472 500
f 472 501 500
f 472 497 501
f 500 477 475
f 478 502 479
f 502 503 479
f 503 474 479
f 503 499 474
f 501 504 500
f 500 504 477
f 504 480 477
f 504 505 480
f 478 480 502
f 480 506 502
f 480 505 506
f 502 506 503
f 508 507 485
f 485 507 484
f 509 485 486
f 509 508 485
f 486 488 509
f 509 488 510
f 512 511 490
f 490 511 489
f 490 484 507
f 490 507 512
f 488 491 513
f 514 488 513
f 510 488 514
f 492 513 491
f 511 493 489
f 515 493 511
f 514 513 516
f 514 516 517
f 494 516 492
f 492 516 513
f 520 519 518
f 515 520 518
f 495 515 518
f 493 515 495
f 517 516 521
f 517 521 522
f 496 521 494
f 494 521 516
f 518 519 523
f 523 519 524
f 523 497 495
f 523 495 518
f 522 521 498
f 499 522 498
f 525 522 499
f 498 521 496
f 523 524 526
f 526 524 527
f 526 501 497
f 526 497 523
f 503 525 499
f 503 528 525
f 527 529 526
f 529 531 530
f 529 530 504
f 526 529 504
f 501 526 504
f 532 505 504
f 532 504 530
f 505 532 533
f 534 505 533
f 506 505 534
f 503 506 528
f 528 506 534
f 531 535 530
f 530 535 532
f 532 535 536
f 532 536 533
f 537 507 508
f 509 538 508
f 508 538 537
f 510 538 509
f 540 539 512
f 512 539 511
f 512 507 537
f 541 512 537
f 540 512 541
f 541 537 538
f 541 538 542
f 538 510 542
f 510 543 542
f 510 514 543
f 546 545 544
f 539 546 544
f 515 539 544
f 511 539 515
f 517 543 514
f 517 547 543
f 544 545 520
f 545 519 520
f 545 548 519
f 544 520 515
f 522 547 517
f 522 549 547
f 548 524 519
f 550 524 548
f 525 549 522
f 525 551 549
f 550 527 524
f 552 527 550
f 528 551 525
f 528 553 551
f 529 527 554
f 527 555 554
f 527 552 555
f 554 531 529
f 557 556 534
f 557 534 533
f 528 534 553
f 553 534 556
f 555 558 554
f 554 558 531
f 558 535 531
f 558 559 535
f 535 560 536
f 559 560 535
f 533 536 557
f 557 536 560
f 562 561 540
f 540 561 539
f 563 540 541
f 563 562 540
f 565 563 564
f 563 542 564
f 563 541 542
f 543 564 542
f 567 566 546
f 546 566 545
f 546 539 561
f 546 561 567
f 568 565 564
f 564 543 568
f 543 569 568
f 543 547 569
f 566 548 545
f 570 548 566
f 549 569 547
f 549 571 569
f 574 573 572
f 570 574 572
f 550 570 572
f 548 570 550
f 551 571 549
f 551 575 571
f 572 573 576
f 576 573 577
f 576 552 550
f 576 550 572
f 580 579 578
f 579 575 578
f 575 553 578
f 575 551 553
f 576 577 581
f 581 577 582
f 581 555 552
f 581 552 576
f 580 578 556
f 557 580 556
f 583 580 557
f 556 578 553
f 581 582 584
f 584 582 585
f 586 558 555
f 581 586 555
f 584 586 581
f 587 559 558
f 587 558 586
f 559 587 588
f 589 559 588
f 560 559 589
f 557 560 583
f 583 560 589
f 585 590 584
f 584 590 586
f 586 590 591
f 586 591 587
f 587 591 592
f 587 592 588
f 593 561 562
f 563 594 562
f 562 594 593
f 565 594 563
f 596 595 567
f 567 595 566
f 567 561 593
f 597 567 593
f 596 567 597
f 597 593 594
f 597 594 598
f 600 598 599
f 599 598 568
f 598 594 568
f 594 565 568
f 569 599 568
f 595 570 566
f 601 570 595
f 600 599 602
f 600 602 603
f 571 602 569
f 569 602 599
f 605 604 574
f 574 604 573
f 574 570 601
f 574 601 605
f 603 602 606
f 603 606 607
f 575 606 571
f 571 606 602
f 604 577 573
f 608 577 604
f 607 606 579
f 580 607 579
f 609 607 580
f 579 606 575
f 612 611 610
f 608 612 610
f 582 608 610
f 577 608 582
f 583 609 580
f 583 613 609
f 610 611 614
f 614 611 615
f 614 585 582
f 614 582 610
f 617 616 589
f 617 589 588
f 583 589 613
f 613 589 616
f 615 618 614
f 618 620 619
f 618 619 590
f 614 618 590
f 585 614 590
f 621 591 590
f 621 590 619
f 591 621 622
f 623 591 622
f 592 591 623
f 588 592 617
f 617 592 623
f 620 624 619
f 619 624 621
f 621 624 625
f 621 625 622
f 626 595 596
f 597 627 596
f 596 627 626
f 598 628 597
f 597 628 627
f 600 628 598
f 630 629 626
f 629 595 626
f 629 601 595
f 630 626 627
f 630 627 631
f 631 627 628
f 631 628 632
f 628 600 632
f 600 633 632
f 600 603 633
f 635 634 605
f 605 634 604
f 605 601 629
f 605 629 635
f 607 633 603
f 607 636 633
f 639 638 637
f 634 639 637
f 608 634 637
f 604 634 608
f 609 636 607
f 609 640 636
f 637 638 612
f 638 611 612
f 638 641 611
f 637 612 608
f 644 643 642
f 643 640 642
f 640 613 642
f 640 609 613
f 641 615 611
f 645 615 641
f 644 642 616
f 617 644 616
f 646 644 617
f 616 642 613
f 618 615 647
f 615 648 647
f 615 645 648
f 647 620 618
f 650 649 623
f 650 623 622
f 617 623 646
f 646 623 649
f 647 648 651
f 651 648 652
f 653 624 620
f 647 653 620
f 651 653 647
f 624 653 654
f 655 624 654
f 625 624 655
f 622 625 650
f 650 625 655
f 652 656 651
f 651 656 653
f 653 656 657
f 653 657 654
f 659 658 630
f 630 658 629
f 661 659 660
f 659 631 660
f 659 630 631
f 632 662 631
f 631 662 660
f 633 662 632
f 664 663 635
f 635 663 634
f 635 629 658
f 635 658 664
f 665 661 660
f 667 666 665
f 660 667 665
f 662 667 660
f 636 667 633
f 633 667 662
f 669 668 639
f 639 668 638
f 639 634 663
f 639 663 669
f 666 667 670
f 666 670 671
f 640 670 636
f 636 670 667
f 668 641 638
f 672 641 668
f 671 670 643
f 644 671 643
f 673 671 644
f 643 670 640
f 676 675 674
f 672 676 674
f 645 672 674
f 641 672 645
f 646 673 644
f 646 677 673
f 674 675 678
f 678 675 679
f 678 648 645
f 678 645 674
f 681 680 649
f 681 649 650
f 646 649 677
f 677 649 680
f 678 679 682
f 682 679 683
f 682 652 648
f 682 648 678
f 654 684 655
f 684 685 655
f 685 650 655
f 685 681 650
f 682 683 686
f 686 683 687
f 688 656 652
f 682 688 652
f 686 688 682
f 689 657 656
f 689 656 688
f 689 690 657
f 657 690 654
f 690 691 654
f 691 684 654
f 684 691 685
f 687 692 686
f 686 692 688
f 688 692 693
f 688 693 689
f 689 693 694
f 689 694 690
f 695 658 659
f 661 695 659
f 697 696 664
f 664 696 663
f 664 658 695
f 698 664 695
f 697 664 698
f 700 698 699
f 699 698 665
f 698 695 665
f 695 661 665
f 666 699 665
f 702 701 669
f 669 701 668
f 669 663 696
f 669 696 702
f 700 699 703
f 700 703 704
f 671 703 666
f 666 703 699
f 707 706 705
f 701 707 705
f 672 701 705
f 668 701 672
f 704 703 708
f 704 708 709
f 673 708 671
f 671 708 703
f 705 706 676
f 706 675 676
f 706 710 675
f 705 676 672
f 709 708 711
f 709 711 712
f 677 711 673
f 673 711 708
f 710 679 675
f 713 679 710
f 712 711 680
f 681 712 680
f 714 712 681
f 680 711 677
f 713 683 679
f 715 683 713
f 685 714 681
f 685 716 714
f 719 718 717
f 715 719 717
f 687 715 717
f 683 715 687
f 721 720 691
f 721 691 690
f 685 691 716
f 716 691 720
f 718 722 717
f 722 724 723
f 722 723 692
f 717 722 692
f 687 717 692
f 725 693 692
f 725 692 723
f 693 725 726
f 727 693 726
f 694 693 727
f 690 694 721
f 721 694 727
f 724 728 723
f 723 728 725
f 725 728 729
f 725 729 726
f 730 696 697
f 698 731 697
f 697 731 730
f 700 731 698
f 733 732 702
f 702 732 701
f 702 696 730
f 734 702 730
f 733 702 734
f 734 730 731
f 734 731 735
f 731 700 735
f 700 736 735
f 700 704 736
f 738 737 707
f 707 737 706
f 707 701 732
f 707 732 738
f 709 736 704
f 709 739 736
f 737 710 706
f 740 710 737
f 712 739 709
f 712 741 739
f 744 743 742
f 740 744 742
f 713 740 742
f 710 740 713
f 714 741 712
f 714 745 741
f 742 743 746
f 746 743 747
f 746 715 713
f 746 713 742
f 750 749 748
f 749 745 748
f 745 716 748
f 745 714 716
f 746 747 719
f 747 718 719
f 747 751 718
f 746 719 715
f 750 748 720
f 721 750 720
f 752 750 721
f 720 748 716
f 722 718 753
f 718 754 753
f 718 751 754
f 753 724 722
f 756 755 727
f 756 727 726
f 721 727 752
f 752 727 755
f 753 754 757
f 757 754 758
f 759 728 724
f 753 759 724
f 757 759 753
f 760 729 728
f 760 728 759
f 760 761 729
f 761 726 729
f 761 756 726
f 758 762 757
f 764 763 762
f 763 757 762
f 763 759 757
f 766 760 765
f 760 763 765
f 760 759 763
f 760 766 761
f 764 767 763
f 763 767 765
f 768 732 733
f 734 769 733
f 733 769 768
f 735 770 734
f 734 770 769
f 736 770 735
f 771 737 738
f 772 771 738
f 772 738 732
f 773 772 732
f 768 773 732
f 773 768 769
f 773 769 774
f 776 775 774
f 769 776 774
f 770 776 769
f 739 776 736
f 736 776 770
f 778 777 771
f 777 737 771
f 777 740 737
f 778 771 772
f 775 776 779
f 775 779 780
f 741 779 739
f 739 779 776
f 782 781 744
f 744 781 743
f 744 740 777
f 744 777 782
f 780 779 783
f 780 783 784
f 745 783 741
f 741 783 779
f 781 747 743
f 785 747 781
f 784 783 749
f 750 784 749
f 786 784 750
f 749 783 745
f 785 751 747
f 787 751 785
f 752 786 750
f 752 788 786
f 787 754 751
f 789 754 787
f 791 790 755
f 791 755 756
f 752 755 788
f 788 755 790
f 789 758 754
f 792 758 789
f 761 791 756
f 761 793 791
f 762 758 794
f 758 795 794
f 758 792 795
f 794 764 762
f 765 796 766
f 796 797 766
f 797 761 766
f 797 793 761
f 794 795 798
f 798 795 799
f 800 767 764
f 794 800 764
f 798 800 794
f 796 765 767
f 800 796 767
f 801 796 800
f 797 796 802
f 802 796 801
f 799 803 798
f 805 804 803
f 804 798 803
f 804 800 798
f 807 801 806
f 801 804 806
f 801 800 804
f 801 807 802
f 805 808 804
f 804 808 806
f 809 772 773
f 774 810 773
f 773 810 809
f 775 810 774
f 812 811 778
f 778 811 777
f 778 772 809
f 813 778 809
f 812 778 813
f 815 814 813
f 809 815 813
f 810 815 809
f 780 815 775
f 775 815 810
f 816 781 782
f 817 816 782
f 777 817 782
f 811 817 777
f 818 814 815
f 815 780 818
f 780 819 818
f 780 784 819
f 821 820 816
f 820 781 816
f 820 785 781
f 821 816 817
f 786 819 784
f 786 822 819
f 820 787 785
f 823 787 820
f 826 825 824
f 825 822 824
f 822 788 824
f 822 786 788
f 823 789 787
f 827 789 823
f 826 824 790
f 791 826 790
f 828 826 791
f 790 824 788
f 827 792 789
f 829 792 827
f 793 828 791
f 793 830 828
f 829 795 792
f 831 795 829
f 797 830 793
f 797 832 830
f 835 834 833
f 831 835 833
f 799 831 833
f 795 831 799
f 802 832 797
f 802 836 832
f 833 834 837
f 837 834 838
f 839 803 799
f 833 839 799
f 837 839 833
f 839 805 803
f 841 840 807
f 841 807 806
f 802 807 836
f 836 807 840
f 838 842 837
f 844 843 842
f 843 837 842
f 843 839 837
f 845 808 805
f 839 845 805
f 843 845 839
f 845 846 808
f 846 806 808
f 846 841 806
f 844 847 843
f 843 847 845
f 845 847 848
f 845 848 846
f 849 811 812
f 813 850 812
f 812 850 849
f 814 850 813
f 852 851 849
f 851 811 849
f 851 817 811
f 852 849 850
f 852 850 853
f 855 853 854
f 854 853 818
f 853 850 818
f 850 814 818
f 819 854 818
f 857 856 821
f 821 856 820
f 821 817 851
f 821 851 857
f 855 854 858
f 855 858 859
f 822 858 819
f 819 858 854
f 856 823 820
f 860 823 856
f 859 858 825
f 826 859 825
f 861 859 826
f 825 858 822
f 860 827 823
f 862 827 860
f 828 861 826
f 828 863 861
f 862 829 827
f 864 829 862
f 830 863 828
f 830 865 863
f 868 867 866
f 864 868 866
f 831 864 866
f 829 864 831
f 832 865 830
f 832 869 865
f 866 867 835
f 867 834 835
f 867 870 834
f 866 835 831
f 836 869 832
f 836 871 869
f 870 838 834
f 872 838 870
f 841 873 840
f 873 874 840
f 874 836 840
f 874 871 836
f 842 838 875
f 838 876 875
f 838 872 876
f 875 844 842
f 878 877 873
f 841 878 873
f 846 878 841
f 873 877 874
f 875 876 879
f 879 876 880
f 881 847 844
f 875 881 844
f 879 881 875
f 847 881 882
f 883 847 882
f 848 847 883
f 846 848 878
f 878 848 883
f 880 884 879
f 879 884 881
f 881 884 885
f 881 885 882
f 886 851 852
f 853 887 852
f 852 887 886
f 855 887 853
f 888 856 857
f 851 886 857
f 886 888 857
f 886 889 888
f 890 886 887
f 889 886 890
f 859 890 855
f 855 890 887
f 892 891 888
f 891 856 888
f 891 860 856
f 892 888 889
f 892 889 893
f 893 889 890
f 893 890 894
f 890 859 894
f 859 895 894
f 859 861 895
f 891 862 860
f 896 862 891
f 863 895 861
f 863 897 895
f 896 864 862
f 898 864 896
f 865 897 863
f 865 899 897
f 901 900 868
f 868 900 867
f 868 864 898
f 868 898 901
f 869 899 865
f 869 902 899
f 900 870 867
f 903 870 900
f 871 902 869
f 871 904 902
f 907 906 905
f 903 907 905
f 872 903 905
f 870 903 872
f 874 904 871
f 874 908 904
f 905 906 909
f 909 906 910
f 909 876 872
f 909 872 905
f 912 911 877
f 912 877 878
f 874 877 908
f 908 877 911
f 909 910 913
f 913 910 914
f 913 880 876
f 913 876 909
f 882 915 883
f 915 916 883
f 916 878 883
f 916 912 878
f 913 914 917
f 917 914 918
f 919 884 880
f 913 919 880
f 917 919 913
f 920 885 884
f 920 884 919
f 920 921 885
f 885 921 882
f 921 922 882
f 922 915 882
f 915 922 916
f 918 923 917
f 925 924 923
f 924 917 923
f 924 919 917
f 927 920 926
f 920 924 926
f 920 919 924
f 920 927 921
f 925 928 924
f 924 928 926
f 929 891 892
f 893 930 892
f 892 930 929
f 894 931 893
f 893 931 930
f 895 931 894
f 932 896 929
f 929 896 891
f 930 934 933
f 932 930 933
f 929 930 932
f 936 935 934
f 930 936 934
f 931 936 930
f 897 936 895
f 895 936 931
f 938 937 932
f 937 896 932
f 937 898 896
f 938 932 933
f 935 936 939
f 935 939 940
f 899 939 897
f 897 939 936
f 942 941 901
f 901 941 900
f 901 898 937
f 901 937 942
f 943 940 939
f 939 899 943
f 899 944 943
f 899 902 944
f 941 903 900
f 945 903 941
f 904 944 902
f 904 946 944
f 948 947 907
f 907 947 906
f 907 903 945
f 907 945 948
f 951 950 949
f 950 946 949
f 946 908 949
f 946 904 908
f 947 910 906
f 952 910 947
f 951 949 911
f 912 951 911
f 953 951 912
f 911 949 908
f 952 914 910
f 954 914 952
f 916 953 912
f 916 955 953
f 954 918 914
f 956 918 954
f 958 957 922
f 958 922 921
f 916 922 955
f 955 922 957
f 923 918 959
f 918 960 959
f 918 956 960
f 959 925 923
f 926 961 927
f 961 962 927
f 962 921 927
f 962 958 921
f 959 960 963
f 963 960 964
f 965 928 925
f 959 965 925
f 963 965 959
f 965 966 928
f 928 966 926
f 966 967 926
f 967 961 926
f 961 967 962
f 964 968 963
f 963 968 965
f 965 968 969
f 965 969 966
f 970 933 934
f 935 970 934
f 971 937 938
f 933 970 938
f 970 971 938
f 970 972 971
f 940 972 935
f 935 972 970
f 974 973 942
f 942 973 941
f 942 937 971
f 975 942 971
f 974 942 975
f 975 971 972
f 975 972 976
f 978 976 977
f 977 976 943
f 976 972 943
f 972 940 943
f 944 977 943
f 973 945 941
f 979 945 973
f 978 977 980
f 978 980 981
f 946 980 944
f 944 980 977
f 983 982 948
f 948 982 947
f 948 945 979
f 948 979 983
f 981 980 950
f 951 981 950
f 984 981 951
f 950 980 946
f 982 952 947
f 985 952 982
f 953 984 951
f 953 986 984
f 989 988 987
f 985 989 987
f 954 985 987
f 952 985 954
f 955 986 953
f 955 990 986
f 987 988 991
f 991 988 992
f 991 956 954
f 991 954 987
f 994 993 957
f 994 957 958
f 955 957 990
f 990 957 993
f 991 992 995
f 995 992 996
f 995 960 956
f 995 956 991
f 962 994 958
f 962 997 994
f 995 996 998
f 998 996 999
f 998 964 960
f 998 960 995
f 1001 1000 967
f 1001 967 966
f 962 967 997
f 997 967 1000
f 998 999 1002
f 1002 999 1003
f 1004 968 964
f 998 1004 964
f 1002 1004 998
f 1005 969 968
f 1005 968 1004
f 1005 1006 969
f 1006 966 969
f 1006 1001 966
f 1002 1003 1007
f 1007 1003 1008
f 1002 1009 1004
f 1002 1007 1009
f 1011 1005 1010
f 1005 1009 1010
f 1005 1004 1009
f 1005 1011 1006
f 1008 1012 1007
f 1007 1012 1009
f 1009 1012 1013
f 1009 1013 1010
f 1014 973 974
f 975 1015 974
f 974 1015 1014
f 976 1016 975
f 975 1016 1015
f 978 1016 976
f 1018 1017 1014
f 1017 973 1014
f 1017 979 973
f 1018 1014 1015
f 1018 1015 1019
f 1021 1020 1019
f 1015 1021 1019
f 1016 1021 1015
f 981 1021 978
f 978 1021 1016
f 1023 1022 983
f 983 1022 982
f 983 979 1017
f 983 1017 1023
f 1020 1021 1024
f 1020 1024 1025
f 984 1024 981
f 981 1024 1021
f 1022 985 982
f 1026 985 1022
f 1025 1024 1027
f 1025 1027 1028
f 986 1027 984
f 984 1027 1024
f 1030 1029 989
f 989 1029 988
f 989 985 1026
f 989 1026 1030
f 1028 1027 1031
f 1028 1031 1032
f 990 1031 986
f 986 1031 1027
f 1029 992 988
f 1033 992 1029
f 1032 1031 993
f 994 1032 993
f 1034 1032 994
f 993 1031 990
f 1033 996 992
f 1035 996 1033
f 997 1034 994
f 997 1036 1034
f 1035 999 996
f 1037 999 1035
f 1039 1038 1000
f 1039 1000 1001
f 997 1000 1036
f 1036 1000 1038
f 1042 1041 1040
f 1037 1042 1040
f 1003 1037 1040
f 999 1037 1003
f 1006 1039 1001
f 1006 1043 1039
f 1040 1041 1044
f 1044 1041 1045
f 1044 1008 1003
f 1044 1003 1040
f 1010 1046 1011
f 1046 1047 1011
f 1047 1006 1011
f 1047 1043 1006
f 1045 1048 1044
f 1048 1050 1049
f 1048 1049 1012
f 1044 1048 1012
f 1008 1044 1012
f 1051 1013 1012
f 1051 1012 1049
f 1051 1052 1013
f 1013 1052 1010
f 1052 1053 1010
f 1053 1046 1010
f 1046 1053 1047
f 1049 1050 1054
f 1054 1050 1055
f 1049 1056 1051
f 1049 1054 1056
f 1052 1051 1057
f 1057 1051 1056
f 1055 1058 1054
f 1054 1058 1056
f 1056 1058 1059
f 1056 1059 1057
f 1060 1017 1018
f 1019 1061 1018
f 1018 1061 1060
f 1020 1061 1019
f 1062 1022 1023
f 1063 1062 1023
f 1063 1023 1017
f 1064 1063 1017
f 1060 1064 1017
f 1066 1065 1064
f 1060 1066 1064
f 1061 1066 1060
f 1025 1066 1020
f 1020 1066 1061
f 1068 1067 1062
f 1067 1022 1062
f 1067 1026 1022
f 1068 1062 1063
f 1069 1065 1066
f 1066 1025 1069
f 1025 1070 1069
f 1025 1028 1070
f 1072 1071 1030
f 1030 1071 1029
f 1030 1026 1067
f 1030 1067 1072
f 1032 1070 1028
f 1032 1073 1070
f 1071 1033 1029
f 1074 1033 1071
f 1034 1073 1032
f 1034 1075 1073
f 1074 1035 1033
f 1076 1035 1074
f 1079 1078 1077
f 1078 1075 1077
f 1075 1036 1077
f 1075 1034 1036
f 1082 1081 1080
f 1076 1082 1080
f 1037 1076 1080
f 1035 1076 1037
f 1079 1077 1038
f 1039 1079 1038
f 1083 1079 1039
f 1038 1077 1036
f 1080 1081 1042
f 1081 1041 1042
f 1081 1084 1041
f 1080 1042 1037
f 1043 1083 1039
f 1043 1085 1083
f 1084 1045 1041
f 1086 1045 1084
f 1047 1085 1043
f 1047 1087 1085
f 1048 1045 1088
f 1045 1089 1088
f 1045 1086 1089
f 1088 1050 1048
f 1091 1090 1053
f 1091 1053 1052
f 1047 1053 1087
f 1087 1053 1090
f 1088 1089 1092
f 1092 1089 1093
f 1092 1055 1050
f 1092 1050 1088
f 1057 1091 1052
f 1057 1094 1091
f 1092 1093 1095
f 1095 1093 1096
f 1097 1058 1055
f 1092 1097 1055
f 1095 1097 1092
f 1098 1059 1058
f 1098 1058 1097
f 1098 1099 1059
f 1099 1057 1059
f 1099 1094 1057
f 1095 1096 1100
f 1100 1096 1101
f 1095 1102 1097
f 1095 1100 1102
f 1097 1103 1098
f 1097 1102 1103
f 1099 1098 1104
f 1104 1098 1103
f 1101 1105 1100
f 1107 1106 1105
f 1106 1100 1105
f 1106 1102 1100
f 1109 1103 1108
f 1103 1106 1108
f 1103 1102 1106
f 1103 1109 1104
f 1107 1110 1106
f 1106 1110 1108
f 1111 1063 1064
f 1065 1111 1064
f 1112 1067 1068
f 1063 1111 1068
f 1111 1112 1068
f 1111 1113 1112
f 1069 1114 1065
f 1114 1111 1065
f 1114 1113 1111
f 1070 1114 1069
f 1115 1071 1072
f 1116 1115 1072
f 1116 1072 1067
f 1117 1116 1067
f 1112 1117 1067
f 1117 1112 1113
f 1117 1113 1118
f 1120 1119 1118
f 1113 1120 1118
f 1114 1120 1113
f 1073 1120 1070
f 1070 1120 1114
f 1122 1121 1115
f 1121 1071 1115
f 1121 1074 1071
f 1122 1115 1116
f 1119 1120 1123
f 1119 1123 1124
f 1075 1123 1073
f 1073 1123 1120
f 1121 1076 1074
f 1125 1076 1121
f 1124 1123 1078
f 1079 1124 1078
f 1126 1124 1079
f 1078 1123 1075
f 1128 1127 1082
f 1082 1127 1081
f 1082 1076 1125
f 1082 1125 1128
f 1083 1126 1079
f 1083 1129 1126
f 1127 1084 1081
f 1130 1084 1127
f 1085 1129 1083
f 1085 1131 1129
f 1130 1086 1084
f 1132 1086 1130
f 1087 1131 1085
f 1087 1133 1131
f 1132 1089 1086
f 1134 1089 1132
f 1136 1135 1090
f 1136 1090 1091
f 1087 1090 1133
f 1133 1090 1135
f 1134 1093 1089
f 1137 1093 1134
f 1094 1136 1091
f 1094 1138 1136
f 1137 1096 1093
f 1139 1096 1137
f 1099 1138 1094
f 1099 1140 1138
f 1139 1101 1096
f 1141 1101 1139
f 1104 1140 1099
f 1104 1142 1140
f 1141 1143 1101
f 1101 1143 1105
f 1145 1144 1107
f 1105 1145 1107
f 1143 1145 1105
f 1109 1108 1144
f 1145 1109 1144
f 1146 1109 1145
f 1104 1109 1142
f 1142 1109 1146
f 1144 1110 1107
f 1110 1144 1108
f 1147 1116 1117
f 1118 1148 1117
f 1117 1148 1147
f 1119 1148 1118
f 1149 1121 1122
f 1116 1147 1122
f 1147 1149 1122
f 1147 1150 1149
f 1151 1147 1148
f 1150 1147 1151
f 1124 1151 1119
f 1119 1151 1148
f 1153 1152 1149
f 1152 1121 1149
f 1152 1125 1121
f 1153 1149 1150
f 1153 1150 1154
f 1156 1155 1154
f 1150 1156 1154
f 1151 1156 1150
f 1126 1156 1124
f 1124 1156 1151
f 1157 1127 1128
f 1158 1157 1128
f 1125 1158 1128
f 1152 1158 1125
f 1155 1156 1159
f 1155 1159 1160
f 1129 1159 1126
f 1126 1159 1156
f 1162 1161 1157
f 1161 1127 1157
f 1161 1130 1127
f 1162 1157 1158
f 1163 1160 1159
f 1159 1129 1163
f 1129 1164 1163
f 1129 1131 1164
f 1161 1132 1130
f 1165 1132 1161
f 1168 1167 1166
f 1167 1164 1166
f 1164 1133 1166
f 1164 1131 1133
f 1165 1134 1132
f 1169 1134 1165
f 1168 1166 1135
f 1136 1168 1135
f 1170 1168 1136
f 1135 1166 1133
f 1169 1137 1134
f 1171 1137 1169
f 1138 1170 1136
f 1138 1172 1170
f 1171 1139 1137
f 1173 1139 1171
f 1140 1172 1138
f 1140 1174 1172
f 1173 1141 1139
f 1175 1141 1173
f 1142 1174 1140
f 1142 1176 1174
f 1175 1177 1141
f 1141 1177 1143
f 1143 1178 1145
f 1177 1178 1143
f 1145 1179 1146
f 1178 1179 1145
f 1142 1146 1176
f 1176 1146 1179
f 1180 1152 1153
f 1154 1181 1153
f 1153 1181 1180
f 1155 1181 1154
f 1183 1182 1180
f 1182 1152 1180
f 1182 1158 1152
f 1185 1184 1183
f 1180 1185 1183
f 1181 1185 1180
f 1160 1185 1155
f 1155 1185 1181
f 1186 1161 1162
f 1187 1186 1162
f 1158 1187 1162
f 1182 1187 1158
f 1188 1184 1185
f 1190 1188 1189
f 1189 1188 1163
f 1188 1185 1163
f 1185 1160 1163
f 1164 1189 1163
f 1192 1191 1186
f 1191 1161 1186
f 1191 1165 1161
f 1192 1186 1187
f 1190 1189 1167
f 1168 1190 1167
f 1193 1190 1168
f 1167 1189 1164
f 1191 1169 1165
f 1194 1169 1191
f 1170 1193 1168
f 1170 1195 1193
f 1194 1171 1169
f 1196 1171 1194
f 1172 1195 1170
f 1172 1197 1195
f 1196 1173 1171
f 1198 1173 1196
f 1174 1197 1172
f 1174 1199 1197
f 1198 1175 1173
f 1200 1175 1198
f 1176 1199 1174
f 1176 1201 1199
f 1200 1202 1175
f 1175 1202 1177
f 1177 1203 1178
f 1202 1203 1177
f 1178 1204 1179
f 1203 1204 1178
f 1176 1179 1201
f 1201 1179 1204
f 1205 1182 1183
f 1184 1205 1183
f 1206 1187 1205
f 1205 1187 1182
f 1188 1207 1184
f 1207 1205 1184
f 1207 1206 1205
f 1190 1207 1188
f 1208 1191 1192
f 1187 1206 1192
f 1206 1208 1192
f 1206 1209 1208
f 1210 1206 1207
f 1209 1206 1210
f 1193 1210 1190
f 1190 1210 1207
f 1211 1194 1208
f 1208 1194 1191
f 1209 1213 1212
f 1211 1209 1212
f 1208 1209 1211
f 1213 1209 1210
f 1213 1210 1214
f 1210 1193 1214
f 1193 1215 1214
f 1193 1195 1215
f 1217 1216 1211
f 1216 1194 1211
f 1216 1196 1194
f 1217 1211 1212
f 1197 1215 1195
f 1197 1218 1215
f 1216 1198 1196
f 1219 1198 1216
f 1199 1218 1197
f 1199 1220 1218
f 1222 1200 1221
f 1200 1219 1221
f 1200 1198 1219
f 1224 1223 1222
f 1224 1222 1221
f 1226 1225 1223
f 1226 1223 1224
f 1226 1220 1225
f 1220 1201 1225
f 1220 1199 1201
f 1222 1202 1200
f 1202 1222 1203
f 1203 1222 1223
f 1203 1223 1204
f 1204 1223 1225
f 1204 1225 1201
f 1227 1212 1213
f 1214 1228 1213
f 1213 1228 1227
f 1215 1228 1214
f 1229 1216 1217
f 1212 1227 1217
f 1227 1229 1217
f 1227 1230 1229
f 1231 1227 1228
f 1230 1227 1231
f 1218 1231 1215
f 1215 1231 1228
f 1232 1219 1229
f 1229 1219 1216
f 1230 1234 1233
f 1232 1230 1233
f 1229 1230 1232
f 1236 1235 1234
f 1230 1236 1234
f 1231 1236 1230
f 1220 1236 1218
f 1218 1236 1231
f 1232 1221 1219
f 1233 1237 1232
f 1237 1221 1232
f 1237 1224 1221
f 1236 1226 1235
f 1226 1237 1235
f 1226 1224 1237
f 1226 1236 1220
f 1238 1233 1234
f 1235 1238 1234
f 1238 1237 1233
f 1237 1238 1235
# 2472 faces, 0 coords texture

# End of File