####
#
# OBJ File Generated by Meshlab
#
####
# Object domain0601.obj
#
# Vertices: 1550
# Faces: 3096
#
####
v 190.987488 52.837830 98.030518
v 191.087601 52.766644 97.513641
v 191.136230 52.521767 98.017044
v 191.121964 52.509129 98.998993
v 190.978256 52.827175 98.999161
v 191.189957 52.561314 99.941368
v 191.067764 52.831303 99.920189
v 191.265564 52.843834 100.173607
v 191.024719 53.394817 97.081184
v 191.194962 53.380482 96.582024
v 191.101852 53.060959 97.024475
v 190.911819 53.331211 98.012390
v 190.913345 53.320683 98.987175
v 191.055008 53.251163 99.896774
v 191.264267 53.226307 100.174835
v 191.020050 53.832035 97.052269
v 191.167557 53.875893 96.560173
v 190.957855 53.834366 97.999718
v 190.999359 53.808399 98.966125
v 191.133270 53.843681 99.463242
v 191.149292 53.552013 99.927032
v 191.106537 54.166981 97.014923
v 191.070480 54.189617 98.001724
v 191.144897 54.121208 98.978889
v 191.576553 52.288143 97.070656
v 191.775482 52.327164 96.748543
v 191.749023 52.164753 97.070259
v 191.709000 52.081429 98.002014
v 191.395935 52.252201 97.992867
v 191.705048 52.072872 98.997871
v 191.390579 52.238640 98.998230
v 191.723877 52.162945 99.924500
v 191.442001 52.302765 99.943329
v 191.734467 52.370804 100.189453
v 191.284958 52.716671 96.991852
v 191.610107 52.706432 96.471039
v 191.657425 52.769989 100.342262
v 191.452972 53.388271 96.045555
v 191.671936 53.363438 95.523170
v 191.648102 53.053631 96.015366
v 191.656815 53.296207 100.341881
v 191.564529 53.986378 95.078903
v 191.756714 53.975269 94.574196
v 191.705597 53.671021 95.039810
v 191.321686 53.939541 96.015266
v 191.394409 53.831184 99.934074
v 191.727570 53.711731 100.195915
v 191.488358 54.525375 95.024590
v 191.608414 54.482304 94.476204
v 191.371414 54.491055 96.003166
v 191.234970 54.525711 96.984169
v 191.248352 54.523930 97.995331
v 191.413452 54.420273 98.943275
v 191.691193 54.341675 99.407982
v 191.685120 54.042622 99.889198
v 191.639862 55.084015 94.096413
v 191.777313 55.087574 93.582062
v 191.669586 54.798801 94.012047
v 191.493698 55.066803 95.009422
v 191.506668 55.019836 95.977592
v 191.493881 55.007557 96.995369
v 191.561096 54.952930 97.961044
v 191.712219 54.906372 98.407959
v 191.687851 54.640816 98.912819
v 191.680511 55.363262 94.014694
v 191.604538 55.551914 94.998634
v 191.680725 55.642658 94.510391
v 191.694290 55.622257 95.480377
v 191.652145 55.366943 96.001305
v 191.714111 55.310966 97.009521
v 191.744812 55.119381 97.939392
v 191.761932 55.849438 94.997124
v 192.203384 52.277969 96.549614
v 192.222885 52.066364 97.051636
v 192.218811 51.946819 98.002899
v 192.219040 51.948032 98.996796
v 192.221191 52.086250 99.926643
v 192.220230 52.320072 100.239098
v 191.943741 52.777946 96.024063
v 192.261475 52.870216 95.577003
v 192.257111 52.564320 96.072884
v 192.210022 52.753582 100.410698
v 191.966995 53.387596 95.038857
v 192.261917 53.442192 94.567490
v 192.262665 53.163471 95.074951
v 192.207535 53.310925 100.401840
v 192.030151 53.983242 94.046577
v 192.265076 53.967743 93.526268
v 192.276749 53.731487 94.043289
v 192.208710 53.760120 100.240570
v 192.096741 54.569935 93.044838
v 192.273590 54.541519 92.525742
v 192.270691 54.247383 93.024849
v 191.799133 54.463039 93.965736
v 192.209335 54.112720 99.926651
v 192.212051 54.440765 99.464729
v 192.168762 55.160000 92.083244
v 192.368637 55.150131 91.587883
v 192.292679 54.844437 92.040710
v 191.919144 55.099995 93.023125
v 192.212158 54.751286 98.976723
v 192.213760 55.034454 98.470619
v 192.115128 55.669643 92.047737
v 192.280457 55.673565 91.527924
v 191.977325 55.662064 93.009674
v 191.788757 55.717915 93.966904
v 191.898209 55.687901 96.005966
v 191.993393 55.567585 96.968636
v 192.259705 55.535927 97.434074
v 192.200455 55.314312 97.945297
v 192.169754 56.171406 92.048515
v 192.302231 56.221710 91.547615
v 192.107910 56.178040 93.001114
v 192.061905 56.186356 93.996338
v 192.002777 56.147099 94.961235
v 192.246384 56.200920 95.480820
v 192.206985 55.973053 96.024055
v 192.293182 55.746220 96.949242
v 192.279953 56.508472 92.016876
v 192.267853 56.507751 93.001831
v 192.283371 56.493813 94.016418
v 192.294632 56.373405 94.976471
v 192.791580 52.222599 96.532875
v 192.785568 52.035778 97.043449
v 192.792816 51.919815 98.003296
v 192.793411 51.921665 98.996651
v 192.780869 52.079327 99.927071
v 192.779007 52.322880 100.230370
v 192.796829 52.769653 95.517471
v 192.798126 52.487988 96.024277
v 192.776886 52.752949 100.376976
v 192.768372 53.273136 94.468277
v 192.815201 53.056911 94.991150
v 192.764206 53.297192 100.356567
v 192.550629 53.986259 93.035530
v 192.851196 54.055412 92.579575
v 192.861038 53.818592 93.067299
v 192.759262 53.500084 93.963203
v 192.693268 53.718288 100.203278
v 192.554230 54.560574 92.039070
v 192.848953 54.616096 91.568367
v 192.849380 54.337376 92.075676
v 192.743057 54.071136 99.902481
v 192.802200 54.404346 99.461731
v 192.641037 55.164906 91.056366
v 192.860001 55.145344 90.529526
v 192.867172 54.907185 91.045227
v 192.789642 54.740833 98.969719
v 192.790390 55.048264 98.478699
v 192.729996 55.741997 90.074142
v 192.929794 55.733784 89.574699
v 192.881943 55.432880 90.041718
v 192.482483 55.677174 90.997147
v 192.791672 55.340069 97.977715
v 192.794174 55.620132 97.471901
v 192.641449 56.282074 90.022797
v 192.776367 56.239548 89.475189
v 192.436661 56.276447 90.995720
v 192.532028 56.202766 95.976913
v 192.837509 56.134949 96.438225
v 192.784561 55.908699 96.950539
v 192.809509 56.841728 89.096527
v 192.958237 56.842010 88.583290
v 192.843613 56.559483 89.016304
v 192.636200 56.831932 90.018044
v 192.538651 56.834438 91.004982
v 192.432571 56.854061 91.981323
v 192.516769 56.838524 92.979912
v 192.571854 56.753235 93.978493
v 192.814377 56.801998 94.490044
v 192.757065 56.655178 95.019638
v 192.858215 56.348835 95.933418
v 192.852859 57.121170 89.016052
v 192.738205 57.331909 90.028954
v 192.836609 57.409828 89.508743
v 192.709045 57.342133 90.999153
v 192.723755 57.307663 91.966736
v 192.859177 57.350391 92.477158
v 192.802429 57.135818 93.023056
v 192.878830 56.944008 93.971878
v 192.887222 57.653049 90.015182
v 192.902023 57.643158 91.011337
v 192.912399 57.493771 91.964378
v 193.336594 52.274475 96.558029
v 193.306427 52.105415 97.069756
v 193.359665 51.978527 98.008430
v 193.359299 51.983257 98.989967
v 193.284103 52.150269 99.898170
v 193.196762 52.350662 100.143829
v 193.373688 52.781738 95.521790
v 193.392136 52.494637 96.046158
v 193.225357 52.742977 100.231514
v 193.098206 53.377140 94.018684
v 193.378876 53.498940 93.587997
v 193.378143 53.332874 94.099030
v 193.376297 53.029369 95.004807
v 193.186768 53.225307 100.204109
v 193.383682 53.955830 92.525780
v 193.392181 53.675209 93.057068
v 193.057129 53.870705 99.952934
v 193.338638 53.589050 99.952744
v 193.410553 53.943180 99.620361
v 193.351685 54.436844 91.464737
v 193.402313 54.225979 91.988403
v 193.300522 54.343719 99.288971
v 193.140289 55.160461 90.038963
v 193.440704 55.230179 89.581650
v 193.446060 54.985851 90.065910
v 193.341492 54.661526 90.959862
v 193.321411 54.647102 98.905670
v 193.325317 54.951931 98.421417
v 193.206284 55.745968 89.049263
v 193.443542 55.733185 88.529442
v 193.459808 55.518101 89.053276
v 193.332962 55.262283 97.928513
v 193.387421 55.571735 97.460770
v 193.286514 56.322979 88.067764
v 193.505783 56.316257 87.570961
v 193.456940 56.014011 88.037857
v 192.971954 56.221306 88.966812
v 193.373688 55.900597 96.962074
v 193.376541 56.183346 96.459793
v 193.131195 56.872459 88.026505
v 193.336746 56.820889 87.468300
v 193.103745 56.776657 94.981461
v 193.379379 56.661396 95.406990
v 193.379929 56.472561 95.934898
v 193.343903 57.490295 87.080925
v 193.499252 57.464043 86.557442
v 193.407806 57.142574 87.010460
v 193.164902 57.421009 88.017548
v 192.963211 57.473042 88.966805
v 193.124130 57.362316 92.973801
v 193.422333 57.302467 93.438370
v 193.374451 57.117531 93.974388
v 193.378998 56.833744 94.898918
v 193.363693 57.934212 87.052406
v 193.499756 57.977840 86.555641
v 193.291397 57.932705 88.000801
v 193.218033 57.955208 88.996887
v 193.126755 57.969666 89.984436
v 193.170609 57.905399 90.970314
v 193.426117 57.893909 91.442139
v 193.378174 57.722118 91.987953
v 193.448502 57.489044 92.928749
v 193.460602 58.264576 87.018494
v 193.438339 58.266991 88.001656
v 193.436401 58.263485 89.002762
v 193.430908 58.260715 90.015640
v 193.466843 58.086823 90.950768
v 193.635971 52.221745 97.024971
v 193.886627 52.244743 97.525566
v 193.828964 52.139202 98.030922
v 193.822311 52.145348 98.962303
v 193.499756 52.259727 99.873978
v 193.782486 52.262096 99.405487
v 193.897995 52.896126 95.585808
v 193.879684 52.671696 96.060638
v 193.956345 52.449703 96.985634
v 193.575989 52.741169 99.923943
v 193.878967 52.745850 99.455658
v 193.660568 53.382774 94.014793
v 193.958374 53.339417 94.504517
v 193.907181 53.151398 95.043404
v 193.536942 53.273777 99.900986
v 193.848419 53.331608 99.451393
v 193.959473 53.957378 92.520912
v 193.957458 53.749893 93.043877
v 194.010468 53.501385 93.973312
v 193.796616 53.829163 99.281250
v 193.681000 54.524773 91.010643
v 194.004929 54.629070 90.564835
v 194.027222 54.446659 91.077690
v 193.964355 54.189220 91.996323
v 193.617661 54.429943 98.946419
v 193.878952 54.150791 98.945328
v 193.919037 54.462261 98.476830
v 193.968643 55.112701 89.514679
v 193.958527 54.845352 90.045403
v 193.645218 55.046974 97.977036
v 193.939636 54.770138 97.984818
v 193.982239 55.123856 97.530090
v 193.729156 55.754116 88.041542
v 194.031143 55.833199 87.590378
v 194.037445 55.615738 88.076721
v 193.971115 55.342442 88.990990
v 193.827103 55.519638 97.260971
v 193.805405 56.342346 87.059319
v 194.049683 56.403065 86.586845
v 194.042191 56.116570 87.089249
v 193.883926 55.796352 96.887520
v 193.899078 56.098232 96.409859
v 193.907547 56.932384 86.089653
v 194.108032 56.980766 85.722969
v 194.067841 56.700222 86.101974
v 193.548615 56.804516 86.963966
v 193.664612 56.797779 94.986626
v 194.001541 56.666714 95.034424
v 193.989166 56.891083 94.532784
v 193.897110 56.338966 95.927124
v 193.733231 57.443554 86.021896
v 193.978943 57.404835 85.480652
v 193.946564 57.098858 94.005730
v 193.961792 57.349300 93.464813
v 193.935516 58.081463 85.087166
v 194.137192 58.072247 84.589958
v 194.035812 57.759624 85.037910
v 193.651489 58.035763 86.009888
v 193.968048 57.791893 92.019424
v 193.965027 58.005627 91.495811
v 193.964645 57.539795 92.949654
v 193.921021 58.537209 85.072556
v 194.105743 58.562660 84.567421
v 193.741547 58.585812 86.013176
v 193.607407 58.610653 86.981934
v 193.686646 58.598553 87.980476
v 193.722351 58.535709 88.994011
v 193.749664 58.490356 89.974823
v 194.017715 58.458317 90.432549
v 193.954391 58.255402 90.950760
v 194.006531 58.880363 85.011497
v 193.901886 59.086666 86.026749
v 194.010788 59.163128 85.508827
v 193.897644 59.064411 86.968475
v 194.031265 59.108101 87.477188
v 193.973267 58.895046 88.024376
v 194.038315 58.726688 88.996384
v 194.057434 58.624218 89.947151
v 194.099258 59.381126 86.029694
v 194.085693 59.249889 86.965652
v 193.989410 52.292988 98.025276
v 193.951324 52.287453 98.946617
v 194.166962 52.855415 96.032249
v 194.231491 52.762558 97.039734
v 194.189713 52.757778 97.998039
v 194.067856 52.752762 98.954315
v 194.231888 53.364983 95.012177
v 194.480362 53.380348 95.525719
v 194.432526 53.127346 96.020149
v 194.451141 53.100613 96.981216
v 194.454529 53.361984 97.455246
v 194.314087 53.302326 97.996475
v 194.083527 53.315460 98.947533
v 194.485260 54.073429 92.582985
v 194.460205 53.876961 93.054062
v 194.487335 53.762691 94.007889
v 194.521835 53.625763 94.988457
v 194.285248 53.905239 98.005211
v 194.483536 53.910404 97.472771
v 194.015152 53.836861 98.914520
v 194.508041 54.640160 90.565605
v 194.468430 54.486519 91.060295
v 194.503082 54.307049 92.016075
v 194.145691 54.439201 97.958092
v 194.413361 54.445240 97.424545
v 194.551453 55.086689 89.500732
v 194.563614 54.846828 90.048790
v 194.322311 55.109966 97.037262
v 194.519623 54.776218 96.984116
v 194.589890 55.103638 96.527077
v 194.554123 55.747879 87.537682
v 194.552429 55.556435 88.049789
v 194.550964 55.305847 88.980911
v 194.116501 55.585064 96.904030
v 194.417694 55.607117 96.423500
v 194.529633 56.208252 86.470467
v 194.578491 56.002533 86.997391
v 194.206558 56.179684 95.961395
v 194.478439 55.913498 95.963318
v 194.494888 56.196163 95.472488
v 194.510254 56.817982 85.466133
v 194.525589 56.484627 85.962677
v 194.485260 56.437084 94.957787
v 194.495117 56.726051 94.432266
v 194.265533 57.432354 85.002899
v 194.564636 57.440922 84.507904
v 194.548416 57.131855 84.997726
v 194.498535 57.005020 93.924370
v 194.491364 57.270794 93.415245
v 194.400681 58.071918 84.082275
v 194.682312 58.069859 83.576370
v 194.600189 57.759434 84.029633
v 194.549088 57.761482 92.010651
v 194.549103 57.993614 91.489571
v 194.477707 57.475754 92.920410
v 194.305969 58.623833 84.045685
v 194.581100 58.604671 83.514740
v 194.548279 58.263180 90.975929
v 194.550018 58.513519 90.459831
v 194.383560 59.177662 84.043091
v 194.571503 59.185623 83.508003
v 194.143784 59.226376 84.972160
v 194.295609 59.120998 87.974113
v 194.589096 59.076115 88.446259
v 194.543655 58.907154 88.995354
v 194.551407 58.696033 89.946007
v 194.522095 59.676418 84.050362
v 194.687073 59.719959 83.561172
v 194.437073 59.676369 84.996620
v 194.361038 59.630417 85.960678
v 194.603973 59.637089 86.438866
v 194.550125 59.478649 86.987129
v 194.620468 59.247200 87.928787
v 194.694107 59.962513 84.039291
v 194.647659 59.886948 85.003372
v 194.647552 59.801907 85.949646
v 194.599060 53.429932 96.027420
v 194.571060 53.418449 96.951805
v 194.745514 54.041782 93.032471
v 194.792831 53.988754 94.012985
v 194.724945 53.956211 95.017967
v 194.744385 53.928020 96.003860
v 194.635803 53.912537 96.952797
v 194.775330 54.601059 91.024818
v 194.847946 54.501087 91.996834
v 195.084595 54.538265 92.518051
v 195.019791 54.298656 93.019234
v 195.034439 54.281166 93.985374
v 195.094788 54.515804 94.491272
v 194.975143 54.449738 95.034004
v 194.803268 54.493668 95.983559
v 194.608276 54.431416 96.921867
v 195.094391 55.188927 89.552231
v 195.054596 55.007126 90.051308
v 195.101135 54.820621 90.987297
v 195.160934 54.770664 91.993523
v 195.077866 54.804657 94.983765
v 194.970306 55.083233 95.415520
v 194.809326 55.052979 95.974777
v 195.101898 55.770882 87.548332
v 195.072861 55.599831 88.068047
v 195.144760 55.363853 89.011177
v 194.960403 55.703423 95.034920
v 195.087509 55.366352 94.982979
v 195.161667 55.687950 94.524178
v 194.650543 55.604599 95.934906
v 194.862045 56.297703 86.019348
v 195.190704 56.416477 85.586037
v 195.201813 56.220211 86.085869
v 195.149200 55.961079 87.011238
v 194.730972 56.184010 94.953003
v 195.004623 56.196098 94.425980
v 194.871506 56.879402 85.022583
v 195.190048 56.969303 84.574471
v 195.194870 56.690475 85.082336
v 194.796265 56.783749 93.963844
v 195.061462 56.501152 93.962776
v 195.093369 56.807030 93.478416
v 194.878387 57.468994 84.021835
v 195.174225 57.474422 83.521988
v 195.199097 57.250973 84.041328
v 194.794510 57.346935 92.962669
v 195.092667 57.096626 92.978165
v 195.096619 57.373169 92.475128
v 194.960785 58.073009 83.042953
v 195.194901 58.057278 82.527306
v 195.181839 57.757626 83.021584
v 195.076202 57.602074 91.957550
v 195.084442 57.886021 91.425598
v 195.103546 58.677551 82.091087
v 195.314285 58.686264 81.724373
v 195.233887 58.366192 82.060112
v 194.804932 58.603027 82.989548
v 195.082123 58.172009 90.921204
v 195.078003 58.444458 90.415939
v 195.041107 59.187840 82.057922
v 195.272430 59.178997 81.552406
v 194.777954 59.183647 82.981812
v 195.132004 58.910225 89.002838
v 195.135239 59.114544 88.471931
v 195.063660 58.648781 89.920425
v 195.067215 59.707851 82.068588
v 195.270218 59.730515 81.567375
v 194.833908 59.778629 83.010895
v 195.140259 59.546589 87.018478
v 195.138382 59.752468 86.491989
v 195.136810 59.300900 87.951233
v 195.173401 60.051422 82.011322
v 195.047867 60.264042 83.028023
v 195.176773 60.336136 82.508934
v 194.936966 60.237854 83.961853
v 195.157211 60.322388 84.492302
v 195.097626 60.180229 85.027863
v 195.146317 59.940163 85.956802
v 195.258453 60.558556 83.038124
v 195.232025 60.448353 83.972176
v 195.198166 54.602116 93.023621
v 195.189484 54.595856 93.972015
v 195.357437 55.185478 90.022964
v 195.404205 55.108124 90.998657
v 195.415344 55.097393 92.042282
v 195.374893 55.098164 93.000961
v 195.291595 55.095200 93.981842
v 195.122543 55.085571 94.903564
v 195.419037 55.702156 88.009514
v 195.703476 55.707138 88.508842
v 195.636490 55.574448 89.036232
v 195.642151 55.432888 89.989548
v 195.654663 55.424751 90.999321
v 195.626907 55.442219 91.980339
v 195.626740 55.705898 92.455147
v 195.490433 55.645657 92.997963
v 195.294464 55.643982 93.976860
v 195.678421 56.410583 85.570717
v 195.639740 56.248486 86.055717
v 195.666229 56.118507 87.018471
v 195.759552 55.857422 87.978607
v 195.458267 56.249458 93.005791
v 195.654434 56.254215 92.472061
v 195.207047 56.185772 93.928711
v 195.724899 56.886822 84.521790
v 195.741669 56.622440 85.059166
v 195.314774 56.781715 92.957031
v 195.572662 56.782101 92.417488
v 195.477982 57.503265 83.035309
v 195.784821 57.584648 82.585953
v 195.795364 57.372135 83.076553
v 195.730804 57.114304 83.996140
v 195.389511 57.379387 91.973389
v 195.647415 57.087086 91.963051
v 195.670700 57.391941 91.478775
v 195.488297 58.083847 82.054520
v 195.801773 58.168575 81.709602
v 195.784363 57.865910 82.093193
v 195.384430 57.954967 90.965935
v 195.671753 57.686218 90.978668
v 195.687012 57.983437 90.481522
v 195.690628 58.566452 81.376175
v 195.380585 58.519058 89.962692
v 195.684921 58.272945 89.980545
v 195.683868 58.546806 89.475838
v 195.554474 59.233425 81.075569
v 195.865417 59.245216 80.585297
v 195.746475 58.909554 81.018311
v 195.661850 58.773190 88.957291
v 195.664886 59.035694 88.419281
v 195.498474 59.783676 81.056419
v 195.787598 59.775169 80.536148
v 195.721176 59.520058 87.010895
v 195.719528 59.743561 86.485611
v 195.649597 59.233303 87.920090
v 195.613022 60.300564 81.060318
v 195.835281 60.317543 80.558647
v 195.326447 60.391811 81.980537
v 195.444061 60.318054 84.988091
v 195.761551 60.220207 85.433029
v 195.699799 60.017506 85.953796
v 195.756989 60.636433 81.010445
v 195.629379 60.836201 82.025993
v 195.805649 60.935177 81.510170
v 195.533524 60.801502 82.962898
v 195.776031 60.808773 83.438911
v 195.718979 60.651272 83.984657
v 195.785278 60.409470 84.924736
v 195.826111 61.031559 82.042908
v 195.821274 60.968052 82.950752
v 195.943634 55.775726 89.027626
v 195.872208 55.735683 89.993759
v 195.824142 55.747826 90.997803
v 195.746475 55.761429 91.950302
v 195.946121 56.361889 86.024567
v 196.012512 56.275723 86.998894
v 196.243210 56.324207 87.520081
v 196.189758 56.173588 88.031990
v 196.191467 56.045628 88.975677
v 196.261719 56.276775 89.490356
v 196.138306 56.210167 90.029755
v 195.956467 56.263958 90.990639
v 195.819443 56.256393 91.952599
v 196.268997 56.944042 84.550270
v 196.225693 56.769123 85.052315
v 196.272964 56.578777 85.986862
v 196.325363 56.536800 86.994621
v 196.252853 56.559776 89.987816
v 196.153458 56.845169 90.417923
v 196.013763 56.824333 90.977539
v 195.772369 56.769138 91.920769
v 196.311737 57.510689 82.539856
v 196.310150 57.329025 83.053032
v 196.320557 57.117897 84.006111
v 196.143158 57.465992 90.041046
v 196.261246 57.124504 89.984093
v 196.333344 57.445530 89.523804
v 195.841476 57.358665 90.957077
v 196.299362 58.104118 81.537285
v 196.317139 57.779785 82.036240
v 195.924789 57.962360 89.966019
v 196.184219 57.958752 89.430656
v 196.036591 58.625092 81.018021
v 196.365143 58.719135 80.570709
v 196.355804 58.414894 81.065338
v 195.977051 58.552956 88.974373
v 196.235336 58.260925 88.964104
v 196.266693 58.566525 88.479347
v 196.179855 59.269855 80.112244
v 196.459412 59.324501 79.738396
v 196.392487 59.035023 80.095222
v 195.965744 59.103550 87.962051
v 196.264679 58.854645 87.978165
v 196.268677 59.131153 87.475128
v 196.080811 59.777958 80.038803
v 196.410004 59.765511 79.541718
v 196.248230 59.360119 86.957558
v 196.258286 59.648228 86.427765
v 196.066071 60.366108 80.044838
v 196.364120 60.357929 79.531227
v 196.254135 59.926273 85.919853
v 196.256790 60.195717 85.414490
v 196.207916 60.881058 80.063370
v 196.434036 60.898571 79.563698
v 195.927994 60.957279 80.969681
v 196.310822 60.696117 84.010872
v 196.311249 60.911797 83.486824
v 196.246094 60.402817 84.919479
v 196.368515 61.202385 80.024719
v 196.220825 61.394596 81.019043
v 196.386185 61.463398 80.521561
v 196.267502 61.325100 82.010811
v 196.345001 61.476055 81.490524
v 196.319901 61.107113 82.956383
v 196.436005 61.587563 81.004120
v 196.351486 56.381153 88.025764
v 196.352921 56.357765 88.971176
v 196.540451 56.930912 85.019737
v 196.576324 56.866692 85.997772
v 196.587692 56.855801 87.041374
v 196.535629 56.860256 88.000320
v 196.462280 56.853184 88.981140
v 196.293930 56.843876 89.904076
v 196.848068 57.558414 82.561050
v 196.805634 57.401314 83.051491
v 196.823715 57.304043 84.006348
v 196.851685 57.173172 84.988869
v 196.841400 57.173931 85.999405
v 196.798904 57.200211 86.980347
v 196.798706 57.463928 87.455124
v 196.662445 57.403667 87.997955
v 196.466446 57.401981 88.976860
v 196.894028 58.053204 81.522514
v 196.909576 57.772949 82.048546
v 196.630280 58.007462 88.005760
v 196.827927 58.012207 87.472435
v 196.379059 57.943787 88.928726
v 196.871552 58.547665 80.468483
v 196.920395 58.333282 80.992233
v 196.486801 58.539703 87.957001
v 196.744186 58.539661 87.417328
v 196.861481 59.175621 79.475319
v 196.867371 58.825436 79.960869
v 196.562378 59.138287 86.973343
v 196.820496 58.846214 86.963058
v 196.857117 59.156193 86.481445
v 196.737961 59.825108 79.099319
v 197.083054 59.871342 78.779915
v 196.950912 59.521557 79.053543
v 196.571991 59.729187 85.973915
v 196.873779 59.460484 85.985741
v 196.932129 59.786514 85.530609
v 196.674927 60.363308 79.056007
v 197.025833 60.366280 78.697250
v 196.585342 60.314911 84.979965
v 196.924515 60.128078 85.037773
v 196.918167 60.405487 84.531990
v 196.684036 60.950050 79.079994
v 197.023941 60.936172 78.691406
v 196.875793 60.633831 84.013657
v 196.890305 60.906662 83.478455
v 196.851654 61.431641 79.074242
v 197.096756 61.430916 78.762978
v 196.605667 61.518402 79.978455
v 196.615646 61.500137 81.989914
v 196.935318 61.411263 82.439064
v 196.872574 61.192280 82.951073
v 197.027863 61.717384 79.057396
v 196.901337 61.804523 80.020828
v 196.892700 61.876465 81.009407
v 196.958145 61.630886 81.939072
v 197.119247 57.528893 83.021866
v 197.150223 57.482239 84.000626
v 197.150803 57.472305 85.011124
v 197.020004 57.500263 85.993652
v 196.923859 57.518391 86.949501
v 197.436081 58.124409 81.552841
v 197.398315 57.938095 82.051506
v 197.442261 57.753647 82.986237
v 197.455872 57.749134 84.002502
v 197.393066 57.783546 84.980270
v 197.382111 58.054932 85.450615
v 197.206070 58.003414 85.993889
v 196.997223 58.013752 86.948143
v 197.205765 58.641293 80.019119
v 197.535995 58.763985 79.588661
v 197.545776 58.564560 80.086128
v 197.496536 58.309502 81.016022
v 197.216217 58.594135 86.005806
v 197.452530 58.602711 85.487312
v 196.951172 58.528511 86.922890
v 197.232605 59.244236 79.054993
v 197.581528 59.376160 78.783310
v 197.543884 59.053661 79.109161
v 197.089111 59.130623 85.965439
v 197.381775 59.193081 85.459290
v 197.506287 59.795910 78.565475
v 197.323853 59.633667 85.259941
v 197.460190 60.332088 78.391525
v 197.388916 59.927860 84.903809
v 197.405121 60.224838 84.421463
v 197.409897 60.943615 78.375557
v 197.409851 60.502434 83.914124
v 197.425690 60.810310 83.420502
v 197.498428 61.526215 78.445442
v 197.434891 61.119137 82.927460
v 197.489014 61.415092 82.450409
v 197.296143 61.979755 79.048630
v 197.577820 61.957096 78.718719
v 197.222519 62.068550 79.999458
v 197.235672 62.034645 80.979652
v 197.528885 61.973648 81.429642
v 197.469971 61.742508 81.932312
v 197.579926 62.175186 79.057640
v 197.557053 62.243629 80.004211
v 197.565765 62.170025 80.953568
v 197.712936 58.101963 82.019447
v 197.746826 58.040119 82.997490
v 197.742401 58.053646 84.013687
v 197.558731 58.097420 84.948738
v 198.026520 58.748672 79.570244
v 197.988968 58.578293 80.052826
v 198.003433 58.466656 81.004890
v 198.022919 58.345825 81.988472
v 198.012817 58.346439 82.999565
v 197.959305 58.379890 83.976578
v 197.925034 58.644188 84.434303
v 197.717911 58.588310 84.950500
v 198.068085 59.332787 78.717598
v 198.081039 58.989742 79.087540
v 197.701233 59.188801 84.942444
v 197.935974 59.146896 84.434647
v 198.043640 59.756077 78.401802
v 197.898407 59.807804 84.036980
v 198.041046 59.471088 83.989326
v 198.129883 59.800774 83.535393
v 197.545395 59.684406 84.910591
v 197.883957 60.411427 78.091454
v 198.241806 60.530174 77.840919
v 198.121979 60.171646 78.090172
v 197.647339 60.273251 83.941559
v 197.957016 60.308006 83.434654
v 197.815643 60.944031 78.042953
v 198.219025 60.945297 77.766014
v 197.753159 60.916111 82.980400
v 198.044861 60.634212 82.981499
v 198.103745 60.979813 82.626129
v 197.882202 61.483990 78.084457
v 198.261612 61.427750 77.797241
v 197.992157 61.379757 82.291145
v 198.111618 61.786621 78.047913
v 198.035248 62.132084 78.471024
v 198.018387 61.693195 81.909546
v 198.088150 62.006531 81.462082
v 198.050415 62.444492 79.000816
v 198.037262 62.508877 80.017639
v 198.083786 62.268578 80.954094
v 198.321472 58.672901 80.015541
v 198.352798 58.615608 80.999496
v 198.335098 58.636707 82.008453
v 198.181320 58.676258 82.993896
v 198.072876 58.685020 83.944374
v 198.572693 59.367775 78.735855
v 198.582275 59.114902 79.082512
v 198.671097 58.820320 79.994011
v 198.679230 58.810150 81.001053
v 198.602859 58.944710 81.965462
v 198.559906 59.225937 82.449158
v 198.359482 59.171688 82.983742
v 198.114395 59.124004 83.918510
v 198.651489 59.717735 78.396591
v 198.335983 59.747993 83.008568
v 198.622147 59.773964 82.481346
v 198.666534 60.498226 77.750130
v 198.659134 60.100220 78.038475
v 198.254211 60.312603 82.935509
v 198.567291 60.369392 82.464447
v 198.670898 60.956791 77.623611
v 198.510132 60.872608 82.298653
v 198.683777 61.504936 77.636086
v 198.342606 61.504776 81.971115
v 198.634369 61.221561 81.975304
v 198.742996 61.614891 81.686455
v 198.385925 62.094334 78.031120
v 198.782898 61.990711 77.754799
v 198.655777 62.029396 81.367325
v 198.683029 62.378746 78.031517
v 198.375916 62.686398 79.002518
v 198.671341 62.683922 78.510025
v 198.376160 62.692207 79.992348
v 198.697647 62.675335 80.459175
v 198.638000 62.403790 80.960114
v 198.695511 62.953102 79.010269
v 198.714722 62.930664 79.980713
v 198.916626 59.253452 79.035637
v 199.212143 59.234863 79.514000
v 199.150635 59.082584 80.023842
v 199.114426 59.116768 80.968208
v 198.818161 59.237247 81.926315
v 199.086700 59.276596 81.418037
v 199.211075 59.748295 78.510284
v 199.270981 59.431664 78.994225
v 198.926987 59.773178 81.986748
v 199.269562 59.802467 81.492233
v 199.228729 60.499844 77.745636
v 199.233322 60.126431 78.051788
v 198.941101 60.355015 81.993454
v 199.311874 60.358997 81.622971
v 199.239532 60.956669 77.581718
v 198.869858 60.907669 81.951691
v 199.292953 60.970509 81.647484
v 199.240784 61.531551 77.533859
v 199.247940 61.545185 81.551788
v 199.265945 62.096821 77.572258
v 199.270767 62.061054 81.341644
v 198.971039 62.679279 78.024414
v 199.345505 62.603207 77.695892
v 199.211288 62.476051 81.036652
v 199.183380 62.800377 80.665649
v 199.249191 62.988110 78.009262
v 198.997162 63.236088 79.010017
v 199.246765 63.282261 78.502541
v 199.038040 63.171253 79.957176
v 199.315262 63.139179 80.300766
v 199.307312 63.524410 79.029861
v 199.332886 63.367764 79.945549
v 199.465378 59.286011 80.025894
v 199.303635 59.300140 80.946373
v 199.765839 59.908463 78.578094
v 199.748596 59.671196 79.046021
v 199.763336 59.533028 79.974304
v 199.826263 59.772758 80.499901
v 199.588196 59.736736 81.010117
v 199.732162 60.554028 77.790932
v 199.768433 60.215176 78.100464
v 199.818466 60.071053 80.991821
v 199.721100 60.456390 81.304832
v 199.815155 60.965683 77.595184
v 199.799988 60.963284 81.428009
v 199.823517 61.520962 77.448174
v 199.822205 61.529476 81.454353
v 199.781296 62.087517 77.354866
v 199.837585 62.087837 81.373032
v 199.758224 62.704723 77.381073
v 199.541733 62.681293 80.978935
v 199.911682 62.500126 81.198509
v 199.466339 63.326756 77.988319
v 199.789749 63.267845 77.504417
v 199.871765 62.865982 80.903030
v 199.841553 63.252243 80.466507
v 199.727875 63.789890 78.040253
v 199.944168 63.826126 77.559830
v 199.589966 63.805683 78.969208
v 199.840103 63.857166 79.493294
v 199.796478 63.631508 80.001190
v 199.920639 64.096176 78.025208
v 199.895782 64.094971 78.984955
v 200.069214 59.845776 79.018448
v 200.099991 59.792652 79.995667
v 200.101318 60.392834 78.027939
v 200.446167 60.279251 78.453850
v 200.424103 60.043873 79.003716
v 200.427078 60.034134 79.998665
v 200.104904 60.368984 80.981461
v 200.448822 60.336014 80.532433
v 200.374283 61.002480 77.645950
v 200.439926 60.593769 77.975105
v 200.390793 60.672565 80.975746
v 200.284927 61.067635 81.248093
v 200.377991 61.491432 77.362518
v 200.379242 61.555004 81.354469
v 200.222809 62.167038 77.085129
v 200.573471 62.278214 76.807465
v 200.466644 61.931141 77.090080
v 200.378799 62.083813 81.333298
v 200.141159 62.702534 77.022156
v 200.520462 62.710266 76.654312
v 200.317795 62.500237 81.190353
v 200.132095 63.284046 77.010101
v 200.487885 63.269558 76.523720
v 200.372452 62.881794 80.908081
v 200.437088 63.283215 80.572037
v 200.169312 63.883938 77.050117
v 200.451279 63.877098 76.520287
v 200.146790 63.821266 79.964821
v 200.489380 63.675442 80.236809
v 200.322357 64.381721 77.044304
v 200.506699 64.424164 76.549286
v 200.170074 64.405708 77.982132
v 200.204285 64.350647 78.966545
v 200.482224 64.284081 79.402740
v 200.467468 63.996086 79.884331
v 200.472824 64.714500 77.023079
v 200.457703 64.715706 78.016876
v 200.504715 64.520737 78.944992
v 200.950928 60.457386 78.549896
v 200.910049 60.280228 79.040443
v 200.898224 60.302746 79.945305
v 200.917023 60.506626 80.299477
v 200.987671 61.058949 77.677254
v 201.003357 60.702198 78.061928
v 200.688431 60.959145 80.975861
v 201.034561 60.907070 80.626961
v 200.997437 61.448021 77.363411
v 200.956009 61.264896 80.953850
v 200.794067 61.623623 81.189972
v 201.004410 62.225010 76.654968
v 201.001221 61.833370 77.008751
v 200.796432 62.021908 81.190704
v 200.936539 62.640415 76.352379
v 200.685532 62.675411 80.964882
v 200.971817 62.389557 80.964462
v 201.098221 62.801453 80.710243
v 200.816772 63.332714 76.076752
v 201.126022 63.359734 75.691833
v 201.026566 63.015709 76.030960
v 200.992111 63.274296 80.476143
v 200.741241 63.894596 75.991623
v 201.004456 63.847221 75.477341
v 200.913635 63.682579 80.219101
v 200.960693 64.535225 75.094933
v 201.170746 64.543594 74.721504
v 201.075348 64.211601 75.054420
v 200.668686 64.481667 76.009071
v 200.953094 64.021141 79.892036
v 201.018845 64.351509 79.450920
v 200.924652 65.046463 75.057228
v 201.139877 65.040092 74.557182
v 200.760025 65.035988 76.007339
v 200.644501 65.053154 76.979378
v 200.764481 64.989799 77.951927
v 201.043900 64.936882 78.439896
v 200.989151 64.689201 78.938866
v 200.966324 65.546234 75.050087
v 201.130539 65.589668 74.564224
v 200.916992 65.545403 75.998474
v 200.939438 65.501366 76.960030
v 201.081604 65.485001 77.423149
v 201.056427 65.220879 77.933304
v 201.074829 65.882652 75.019211
v 201.084274 65.869301 76.012276
v 201.112305 65.699356 76.948532
v 201.085846 73.807663 72.064690
v 201.281097 73.813263 71.650116
v 201.126572 73.605347 72.029083
v 201.117523 73.600800 72.975578
v 201.081131 73.809685 72.937843
v 201.249741 73.806305 73.367439
v 201.145660 73.891319 72.039177
v 201.141678 73.899040 72.965645
v 201.223526 60.452332 79.018768
v 201.184448 60.494034 79.954895
v 201.493759 61.134975 77.746178
v 201.487122 60.897984 78.073746
v 201.532639 60.696808 78.988274
v 201.457367 60.752628 79.953499
v 201.424713 61.028255 80.288750
v 201.579926 61.475674 77.397118
v 201.154953 61.576641 80.897278
v 201.546600 61.548466 80.466370
v 201.561890 62.186539 76.522034
v 201.588745 61.816334 76.999588
v 201.178589 62.074730 80.907394
v 201.583817 62.143593 80.577019
v 201.312500 62.731560 76.032730
v 201.657318 62.852112 75.706482
v 201.633850 62.530018 76.083382
v 201.582184 62.698284 80.494446
v 201.544739 63.250031 75.370964
v 201.541718 63.220711 80.317551
v 201.316086 63.895409 75.026237
v 201.662613 63.955433 74.673897
v 201.594620 63.591564 75.011810
v 201.284409 63.857922 79.982124
v 201.610245 63.642174 80.030411
v 201.649399 64.009590 79.695427
v 201.547180 64.421082 74.372879
v 201.576462 64.370102 79.360931
v 201.415680 65.095337 74.084976
v 201.710388 65.117531 73.691002
v 201.617264 64.777344 74.034134
v 201.583313 64.706902 78.961197
v 201.605988 65.060814 78.485008
v 201.329147 65.681725 74.019356
v 201.595978 65.607635 73.480499
v 201.560028 65.397980 78.034134
v 201.556229 65.696266 77.537498
v 201.554962 66.292587 73.094566
v 201.758179 66.301849 72.722107
v 201.663177 65.970062 73.055313
v 201.339615 66.220634 74.016678
v 201.208664 66.234978 74.975494
v 201.333588 66.189789 75.966049
v 201.585526 66.216789 76.499153
v 201.545639 65.993988 77.018555
v 201.522232 66.804527 73.057068
v 201.723602 66.797958 72.555923
v 201.402664 66.786064 73.993744
v 201.468231 66.725372 74.949471
v 201.634995 66.764511 75.478012
v 201.601944 66.494225 75.992226
v 201.554184 67.303558 73.048164
v 201.720856 67.347008 72.567017
v 201.534348 67.290062 73.970711
v 201.652603 67.348763 74.477364
v 201.641602 67.061287 74.980721
v 201.641296 67.650291 73.013123
v 201.657684 67.635307 73.989235
v 201.504379 72.750031 72.042328
v 201.705658 72.719849 71.566963
v 201.664551 72.423882 72.018028
v 201.660492 72.420624 72.984764
v 201.503479 72.749695 72.957764
v 201.705353 72.719551 73.432922
v 201.277344 73.241676 72.003891
v 201.528259 73.225220 71.466240
v 201.276123 73.241158 72.994812
v 201.524155 73.223579 73.535355
v 201.535324 73.823845 71.159248
v 201.858185 73.823334 70.882874
v 201.648178 73.569511 71.055077
v 201.639771 73.567825 73.950447
v 201.514359 73.832115 73.849251
v 201.854111 73.824692 74.119972
v 201.694138 74.028717 71.091125
v 201.547943 74.226280 72.002907
v 201.547028 74.229225 72.999809
v 201.681702 74.035629 73.918488
v 201.783798 61.069283 78.044891
v 201.847183 60.982647 79.010895
v 201.665634 61.033768 79.941345
v 202.106995 61.585262 77.551018
v 202.098358 61.313477 78.023422
v 202.129944 61.275280 78.990158
v 202.164322 61.534283 79.497574
v 201.929184 61.499897 80.004333
v 202.163452 62.172058 76.533730
v 202.185944 61.858700 77.045128
v 202.129929 61.846600 79.971886
v 201.985550 62.200031 80.253754
v 202.157440 62.822708 75.558876
v 202.170090 62.481049 76.046104
v 202.022781 62.700153 80.253639
v 201.904419 63.329021 75.043747
v 202.252960 63.481449 74.764496
v 202.218811 63.148525 75.112404
v 201.994202 63.122028 80.166908
v 202.169846 63.886906 74.442833
v 202.108719 63.473225 79.908875
v 202.167450 63.870346 79.569000
v 201.899277 64.488304 74.032394
v 202.241226 64.603790 73.701263
v 202.211121 64.259186 74.062790
v 202.085495 64.292213 79.264038
v 202.129944 65.007622 73.370361
v 202.127594 64.648033 78.921402
v 202.179672 65.016037 78.550354
v 201.901733 65.653145 73.025993
v 202.248581 65.713432 72.673904
v 202.180588 65.349533 73.011803
v 201.900177 65.575790 77.954353
v 202.167587 65.390366 78.186615
v 202.133133 66.179070 72.372856
v 201.894135 66.186424 76.982826
v 202.244919 66.026924 77.406189
v 202.173737 65.706093 77.851540
v 202.016373 66.856850 72.100395
v 202.346481 66.899178 71.764565
v 202.210358 66.540314 72.046280
v 201.917053 66.751770 75.970131
v 202.229309 66.661583 76.416367
v 202.224991 66.367096 76.912643
v 201.937683 67.415817 72.069969
v 202.275742 67.402763 71.654846
v 201.903748 67.365646 74.982018
v 202.241516 67.320099 75.430267
v 202.222626 66.973763 75.922737
v 201.992844 67.970650 72.038582
v 202.260742 67.958138 71.530785
v 201.761246 68.017204 72.983757
v 201.851562 67.989342 73.994057
v 202.151764 68.012360 74.532387
v 202.183441 67.668587 74.987762
v 202.045242 68.550461 72.040497
v 202.248703 68.557869 71.540047
v 201.933838 68.544067 72.994019
v 202.086838 68.485954 73.927582
v 202.321259 68.473656 74.287590
v 202.141663 69.058853 72.048927
v 202.317856 69.088982 71.578682
v 202.103531 69.052269 72.971092
v 202.243073 69.106720 73.476463
v 202.256241 68.801804 73.947212
v 202.248154 69.393326 72.014755
v 202.238251 69.396439 72.989693
v 202.090225 71.577988 72.042305
v 202.289673 71.546501 71.565842
v 202.243362 71.247528 72.016663
v 202.238663 71.243744 72.986877
v 202.089478 71.577690 72.957779
v 202.291321 71.547539 73.432899
v 201.852875 72.064667 72.001312
v 202.102692 72.049370 71.460205
v 201.855057 72.066284 72.996010
v 202.103882 72.049438 73.538910
v 201.995148 72.716621 71.079727
v 202.354309 72.757820 70.778061
v 202.202927 72.389557 71.027496
v 202.198685 72.387268 73.973824
v 202.002151 72.720657 73.917686
v 202.355637 72.757362 74.221725
v 201.843765 73.235970 70.996277
v 202.252716 73.291298 70.714493
v 201.844559 73.237640 74.002121
v 202.252960 73.290924 74.283958
v 202.226166 73.821365 70.684036
v 202.225861 73.821419 74.316338
v 201.971222 74.330833 71.052788
v 202.314590 74.283112 70.779373
v 201.852875 74.455383 71.997398
v 201.852493 74.457024 73.000191
v 201.965530 74.334785 73.948898
v 202.313858 74.283379 74.221664
v 202.263153 74.618652 71.049515
v 202.174469 74.709610 72.000206
v 202.174347 74.709618 73.000092
v 202.262726 74.618721 73.950798
v 202.414764 61.582775 78.015579
v 202.408203 61.582966 78.987694
v 202.685303 62.279621 76.590080
v 202.666916 62.051208 77.057961
v 202.712997 61.856010 77.986610
v 202.657883 61.898174 78.975540
v 202.326096 62.166775 79.906288
v 202.609985 62.179085 79.420135
v 202.691269 62.865398 75.596970
v 202.698410 62.553944 76.085320
v 202.372437 62.700363 79.928307
v 202.696823 62.706158 79.463852
v 202.676559 63.479591 74.754738
v 202.698090 63.168919 75.117615
v 202.313919 63.219204 79.885300
v 202.653976 63.296349 79.454132
v 202.749985 63.835808 74.413521
v 202.599243 63.788967 79.278358
v 202.745819 64.558624 73.545471
v 202.761551 64.180878 74.016586
v 202.442017 64.432495 78.966774
v 202.724915 64.144470 78.964638
v 202.824646 64.526535 78.655220
v 202.490265 65.086685 73.043587
v 202.838913 65.239090 72.764153
v 202.804123 64.900307 73.107658
v 202.729904 64.992218 78.370079
v 202.755356 65.643082 72.440781
v 202.448929 65.591805 77.960007
v 202.781616 65.398140 78.030045
v 202.811523 65.749115 77.672562
v 202.489868 66.252319 72.042419
v 202.850922 66.399918 71.772346
v 202.798599 66.027664 72.078583
v 202.749664 66.097435 77.333733
v 202.770615 66.826698 71.542282
v 202.756088 66.425804 76.936913
v 202.759216 66.752396 76.467201
v 202.680176 67.308777 71.328217
v 202.757965 67.092155 75.996284
v 202.759628 67.438118 75.596970
v 202.594711 68.026237 71.096329
v 202.949783 68.077011 70.797043
v 202.787827 67.705742 71.039696
v 202.493668 67.938889 74.959770
v 202.837234 67.803352 75.263557
v 202.554337 68.561943 71.072227
v 202.907288 68.561470 70.758690
v 202.800995 68.165283 74.920815
v 202.755020 68.557640 74.565674
v 202.600266 69.097359 71.094910
v 202.949905 69.054802 70.790932
v 202.505356 69.110764 73.961960
v 202.867203 69.043266 74.287430
v 202.779907 69.427460 71.022018
v 202.399567 69.767822 71.995308
v 202.660934 69.772362 71.445145
v 202.397675 69.769157 73.003036
v 202.637756 69.782196 73.566856
v 202.755264 69.441254 73.998695
v 202.495132 70.319641 72.017021
v 202.717850 70.319809 71.480255
v 202.493118 70.320190 72.983147
v 202.711685 70.320259 73.523094
v 202.400360 70.871796 71.995430
v 202.653503 70.864609 71.440735
v 202.400085 70.871696 73.002205
v 202.654648 70.864502 73.558640
v 202.581024 71.544609 71.079659
v 202.940384 71.585327 70.777794
v 202.784210 71.214447 71.023148
v 202.778519 71.211655 73.978477
v 202.587860 71.548576 73.917961
v 202.941635 71.584808 74.222038
v 202.423523 72.061951 70.990471
v 202.831573 72.121986 70.704338
v 202.423859 72.063301 74.009178
v 202.831680 72.121468 74.294952
v 202.781021 72.676537 70.612762
v 202.781082 72.676575 74.387024
v 202.762405 73.253143 70.558609
v 202.762390 73.253128 74.441368
v 202.758698 73.835533 70.563759
v 202.758698 73.835541 74.436241
v 202.781799 74.387901 70.648346
v 202.781799 74.387817 74.351524
v 202.568771 74.860641 71.055489
v 202.859116 74.779167 70.825165
v 202.503143 74.951897 72.000702
v 202.503067 74.951782 72.998817
v 202.569199 74.860634 73.943970
v 202.859238 74.779358 74.174850
v 202.852066 74.991035 71.085663
v 202.829742 75.133659 72.002800
v 202.832550 75.133080 73.003113
v 202.848694 74.988655 73.921745
v 202.955872 62.232956 77.032021
v 203.004395 62.166607 78.012199
v 202.825745 62.201912 78.944641
v 203.009659 62.754028 76.029533
v 203.281906 62.748116 76.523209
v 203.233414 62.497753 77.019966
v 203.237152 62.481319 77.979103
v 203.212738 62.750656 78.439232
v 202.998764 62.688499 78.951546
v 203.000137 63.357986 75.049385
v 203.317917 63.313164 75.515007
v 203.325363 63.014744 76.011620
v 202.995575 63.281822 78.966331
v 203.287323 63.293369 78.471298
v 203.286972 63.915897 74.545090
v 203.323120 63.601746 75.013847
v 202.929398 63.823372 78.916588
v 203.261963 63.895180 78.471275
v 203.346146 64.578400 73.556404
v 203.350372 64.221481 74.056244
v 203.231430 64.452965 78.346291
v 203.267212 65.228462 72.744972
v 203.295761 64.898079 73.106567
v 203.178711 64.887665 78.196716
v 203.338379 65.593994 72.415009
v 203.269882 65.213821 77.901031
v 203.312698 65.630157 77.483253
v 203.342117 66.356819 71.710770
v 203.341812 65.970749 72.045937
v 203.197021 66.051643 77.223808
v 203.318558 66.788193 71.406555
v 203.269287 66.357681 76.883041
v 203.346069 66.692474 76.450546
v 203.071121 67.419296 71.039772
v 203.435837 67.591515 70.808990
v 203.381012 67.200630 71.082001
v 203.342438 67.092598 75.998077
v 203.340103 67.462654 75.626839
v 203.370407 68.009628 70.654137
v 203.342728 67.847000 75.305939
v 203.356888 68.563400 70.590767
v 203.342392 68.239502 74.970589
v 203.338760 68.659584 74.664879
v 203.365845 69.135445 70.611382
v 203.351120 69.138748 74.460892
v 202.987213 69.762337 70.970703
v 203.410812 69.697487 70.689980
v 202.980881 69.765182 74.035797
v 203.407166 69.695374 74.315765
v 203.053253 70.319595 71.005257
v 203.457825 70.320229 70.708076
v 203.052231 70.320427 73.995590
v 203.457932 70.319496 74.291695
v 202.986740 70.876839 70.969925
v 203.408966 70.940987 70.688942
v 202.986191 70.877403 74.030540
v 203.409012 70.940453 74.310905
v 203.366104 71.503868 70.609970
v 203.366211 71.503922 74.389801
v 203.348206 72.081841 70.563614
v 203.348129 72.081833 74.436363
v 203.342972 72.664772 70.528084
v 203.342957 72.664772 74.471924
v 203.340866 73.249367 70.528000
v 203.340866 73.249367 74.471977
v 203.335709 73.831276 70.562363
v 203.335739 73.831291 74.437660
v 203.313293 74.387047 70.655426
v 203.313736 74.387451 74.345505
v 203.242645 74.785957 70.823341
v 203.242599 74.785156 74.175842
v 203.274078 75.032364 71.088203
v 203.337387 75.337196 71.970589
v 203.339996 75.341553 73.024742
v 203.271606 75.033722 73.905312
v 203.437851 62.799809 77.027153
v 203.380310 62.791462 77.951942
v 203.584579 63.321507 76.030617
v 203.707092 63.273540 77.014732
v 203.504303 63.298046 77.958145
v 203.628952 63.883533 75.003059
v 203.874771 63.913403 75.517426
v 203.829361 63.654995 76.020248
v 203.856232 63.621414 76.987091
v 203.814148 63.913712 77.446144
v 203.598358 63.851025 77.956604
v 203.780792 64.621956 73.740990
v 203.807175 64.424812 74.076591
v 203.923645 64.161598 74.984581
v 203.566223 64.449356 77.951057
v 203.839905 64.458099 77.456993
v 203.616928 65.080696 73.026367
v 203.965668 64.992981 73.454597
v 203.467941 64.965004 77.881126
v 203.774429 64.988052 77.414825
v 203.912323 65.666962 72.528999
v 203.965118 65.277687 72.995308
v 203.691681 65.653351 77.033478
v 203.891052 65.322166 76.981850
v 203.991653 65.661293 76.537056
v 203.839050 66.401711 71.753098
v 203.878296 66.048553 72.091026
v 203.504211 66.142647 76.900665
v 203.832230 66.223091 76.459419
v 203.927994 66.815964 71.442825
v 203.773499 66.650978 76.239685
v 203.834869 67.590973 70.807663
v 203.887238 67.212463 71.093399
v 203.865128 66.977470 75.901154
v 203.921127 67.372292 75.550636
v 203.903427 68.008362 70.644646
v 203.840988 67.797310 75.249802
v 203.928482 68.562462 70.550491
v 203.892990 68.184311 74.940247
v 203.962067 68.624390 74.680428
v 203.927856 69.148750 70.531441
v 203.928650 69.149521 74.517403
v 203.933563 69.733505 70.551773
v 203.933228 69.732986 74.453667
v 203.936646 70.320183 70.565720
v 203.936676 70.320198 74.434280
v 203.931915 70.908394 70.550758
v 203.931931 70.908417 74.449188
v 203.928009 71.492004 70.543930
v 203.927994 71.491997 74.456055
v 203.924011 72.075676 70.550674
v 203.924026 72.075676 74.449287
v 203.916580 72.662056 70.572205
v 203.916656 72.662086 74.427940
v 203.902756 73.237976 70.612480
v 203.902924 73.238037 74.387833
v 203.852371 73.791756 70.704292
v 203.853043 73.792572 74.296219
v 203.741272 74.318253 70.787262
v 203.742691 74.319763 74.215111
v 203.873123 74.669762 71.057442
v 203.578751 74.982468 71.127266
v 203.941284 74.992088 71.496368
v 203.579712 74.984245 73.873734
v 203.870361 74.667397 73.940956
v 203.944778 74.995918 73.500801
v 203.812881 75.276825 71.786049
v 203.685440 75.467361 72.037010
v 203.685165 75.469002 72.964432
v 203.820084 75.293137 73.227386
v 203.898651 75.505173 72.074287
v 203.897751 75.504028 72.925888
v 203.985031 63.978920 76.023552
v 203.961533 63.958958 76.951996
v 203.983887 64.581993 74.065895
v 204.184067 64.496887 75.032082
v 204.149261 64.476997 75.999557
v 204.016006 64.460709 76.951210
v 204.280609 65.017181 73.982864
v 204.456467 65.077507 74.512367
v 204.393890 64.839180 74.994064
v 204.401047 65.088898 75.452538
v 204.257721 65.017899 75.988991
v 203.992096 64.979172 76.921700
v 204.365524 65.789680 72.737885
v 204.391754 65.575439 73.072121
v 204.487106 65.334496 73.982101
v 204.222000 65.608360 76.020416
v 204.462357 65.635765 75.475670
v 204.184067 66.267166 72.045624
v 204.518143 66.190170 72.476372
v 204.178925 66.210945 75.975769
v 204.460663 66.217247 75.473015
v 204.432343 66.888565 71.677292
v 204.492371 66.534035 72.025200
v 204.073151 66.731560 75.891960
v 204.397095 66.813232 75.446548
v 204.195480 67.425888 71.041428
v 204.558289 67.343018 71.364037
v 204.352798 67.302467 75.272194
v 204.387619 68.102425 70.755920
v 204.499222 67.699059 71.023270
v 204.202393 67.951439 74.969925
v 204.483414 67.660751 74.962662
v 204.593719 68.060982 74.679749
v 204.485321 68.587166 70.631447
v 204.526382 68.565544 74.537735
v 204.502106 69.150024 70.577377
v 204.508713 69.146965 74.460175
v 204.505051 69.734055 70.566681
v 204.505096 69.734009 74.433868
v 204.505096 70.320000 70.566246
v 204.505096 70.319992 74.433746
v 204.502136 70.904457 70.578346
v 204.502228 70.904480 74.421745
v 204.489700 71.480713 70.609627
v 204.489822 71.480743 74.390610
v 204.445847 72.042351 70.691002
v 204.446106 72.042961 74.308876
v 204.381622 72.650955 70.732483
v 204.381760 72.651680 74.268379
v 204.320801 73.156319 70.788399
v 204.321609 73.156761 74.212021
v 204.480789 73.525269 71.028435
v 204.260010 73.851555 70.990685
v 204.580673 73.864426 71.460640
v 204.260529 73.851227 74.009476
v 204.477524 73.522972 73.969345
v 204.579437 73.864441 73.538788
v 204.091431 74.362587 71.086510
v 204.391815 74.365265 71.567825
v 204.095490 74.363655 73.915825
v 204.392929 74.366722 73.433441
v 204.221146 75.007881 72.011246
v 204.434921 74.663811 72.016365
v 204.227737 75.009758 72.992424
v 204.433182 74.662056 72.981926
v 203.962601 75.456551 72.065239
v 203.963959 75.454796 72.934250
v 204.516586 65.154587 74.986015
v 204.546936 65.760971 73.063690
v 204.632614 65.693230 74.018570
v 204.607513 65.647415 74.963432
v 204.811050 66.225189 73.024529
v 204.807480 66.219727 74.002686
v 204.664658 66.218681 74.961006
v 204.768234 66.840462 72.032791
v 205.019241 66.850250 72.524406
v 205.005600 66.576637 72.999786
v 205.068985 66.816719 73.494720
v 204.966324 66.741417 74.038200
v 204.683060 66.800369 74.954773
v 204.962189 67.461304 71.693268
v 205.024246 67.145920 72.048103
v 205.070633 67.106071 73.990906
v 204.930832 67.450500 74.433502
v 204.686615 67.310745 74.891174
v 204.780731 68.000244 71.030014
v 205.114304 67.938660 71.468964
v 204.980392 67.980598 74.340271
v 204.902420 68.665535 70.799515
v 205.043365 68.310135 71.052933
v 204.979019 68.561188 74.293526
v 204.958633 69.159531 70.744537
v 204.970139 69.147903 74.272797
v 204.968460 69.734665 70.729858
v 204.969604 69.733986 74.272156
v 204.968491 70.319336 70.729897
v 204.968491 70.319351 74.270226
v 204.959335 70.895508 70.742767
v 204.959869 70.895668 74.258011
v 204.906464 71.398849 70.788498
v 204.907379 71.399323 74.211975
v 205.072723 71.770805 71.023781
v 204.864731 72.105179 70.974060
v 205.194443 72.117119 71.445152
v 204.864670 72.104309 74.025665
v 205.068542 71.768158 73.973640
v 205.194763 72.117332 73.554817
v 204.756195 72.652931 71.040985
v 205.070511 72.657295 71.515083
v 204.757584 72.652885 73.960487
v 205.070312 72.657661 73.485077
v 204.661743 73.193512 71.097198
v 204.948395 73.189339 71.582039
v 204.668594 73.196838 73.905968
v 204.947510 73.188820 73.418159
v 204.829117 73.848167 72.003860
v 205.011932 73.489212 72.017578
v 204.830887 73.848801 72.998558
v 205.007767 73.486053 72.979942
v 204.595016 74.336731 72.042160
v 204.593185 74.335526 72.957619
v 205.148804 66.912231 73.001190
v 205.188934 67.463730 72.068306
v 205.319550 67.413094 73.000954
v 205.163239 67.458267 73.930801
v 205.415909 67.963570 72.006142
v 205.500320 67.938278 73.012878
v 205.246964 67.987267 73.946419
v 205.237534 68.622986 71.104500
v 205.525009 68.625610 71.587090
v 205.595276 68.324303 72.021484
v 205.635452 68.298431 72.990494
v 205.570557 68.603119 73.444778
v 205.332977 68.542564 73.932404
v 205.317429 69.156036 71.058983
v 205.616119 69.155449 71.534737
v 205.337112 69.147110 73.954910
v 205.629166 69.152161 73.472336
v 205.339828 69.734566 71.042221
v 205.646515 69.734497 71.519630
v 205.342590 69.733917 73.959991
v 205.647369 69.734398 73.480774
v 205.339798 70.319420 71.042274
v 205.646881 70.319550 71.519440
v 205.340012 70.319489 73.957924
v 205.646805 70.319550 73.480499
v 205.317780 70.898109 71.058800
v 205.617447 70.898994 71.534019
v 205.319183 70.898720 73.942253
v 205.617554 70.899117 73.466064
v 205.244995 71.435394 71.099289
v 205.531281 71.430870 71.583626
v 205.252274 71.438866 73.904137
v 205.531555 71.431313 73.417305
v 205.442703 72.106888 71.999756
v 205.605804 71.736137 72.015518
v 205.444107 72.107018 73.002632
v 205.600769 71.732353 72.981430
v 205.264832 72.648758 72.031067
v 205.263718 72.648438 72.968864
v 205.131180 73.160057 72.049240
v 205.128586 73.158875 72.950401
v 205.705811 68.653633 72.051491
v 205.722427 68.647270 72.953529
v 205.786377 69.159851 72.040161
v 205.788712 69.159325 72.960426
v 205.817795 69.734985 72.036026
v 205.817993 69.734962 72.963989
v 205.817978 70.319031 72.036003
v 205.817841 70.319016 72.963966
v 205.787857 70.894455 72.039780
v 205.786911 70.894264 72.959991
v 205.708237 71.401520 72.050484
v 205.706100 71.400383 72.949272
# 1550 vertices, 0 vertices normals

f 3 2 1
f 5 4 1
f 1 4 3
f 7 6 5
f 5 6 4
f 7 8 6
f 11 10 9
f 11 9 2
f 9 1 2
f 9 12 1
f 1 13 5
f 1 12 13
f 5 14 7
f 5 13 14
f 8 7 15
f 15 7 14
f 9 10 16
f 16 10 17
f 9 18 12
f 9 16 18
f 12 19 13
f 12 18 19
f 21 14 20
f 14 19 20
f 14 13 19
f 14 21 15
f 17 22 16
f 16 22 18
f 18 22 23
f 18 23 19
f 19 23 24
f 19 24 20
f 27 26 25
f 29 28 25
f 25 28 27
f 31 30 29
f 29 30 28
f 33 32 31
f 31 32 30
f 33 34 32
f 25 26 35
f 35 26 36
f 35 2 3
f 29 35 3
f 25 35 29
f 29 3 4
f 29 4 31
f 31 4 6
f 31 6 33
f 6 8 33
f 8 34 33
f 8 37 34
f 40 39 38
f 40 38 36
f 36 38 35
f 38 10 35
f 10 11 35
f 35 11 2
f 15 37 8
f 15 41 37
f 44 43 42
f 44 42 39
f 42 38 39
f 42 45 38
f 45 17 10
f 45 10 38
f 20 46 21
f 46 47 21
f 47 15 21
f 47 41 15
f 42 43 48
f 48 43 49
f 42 50 45
f 42 48 50
f 51 22 17
f 45 51 17
f 50 51 45
f 52 23 22
f 52 22 51
f 53 24 23
f 53 23 52
f 53 54 24
f 24 54 20
f 54 55 20
f 55 46 20
f 46 55 47
f 58 57 56
f 58 56 49
f 56 48 49
f 56 59 48
f 48 60 50
f 48 59 60
f 50 61 51
f 50 60 61
f 51 62 52
f 51 61 62
f 64 53 63
f 53 62 63
f 53 52 62
f 53 64 54
f 57 65 56
f 67 66 65
f 66 56 65
f 66 59 56
f 69 60 68
f 60 66 68
f 60 59 66
f 60 69 61
f 61 69 70
f 61 70 62
f 62 70 71
f 62 71 63
f 67 72 66
f 66 72 68
f 74 73 27
f 27 73 26
f 75 27 28
f 75 74 27
f 76 28 30
f 76 75 28
f 77 30 32
f 77 76 30
f 32 34 77
f 77 34 78
f 81 80 79
f 73 81 79
f 36 73 79
f 26 73 36
f 37 78 34
f 37 82 78
f 85 84 83
f 85 83 80
f 80 83 79
f 83 39 79
f 39 40 79
f 79 40 36
f 41 82 37
f 41 86 82
f 89 88 87
f 89 87 84
f 84 87 83
f 87 43 83
f 43 44 83
f 83 44 39
f 47 86 41
f 47 90 86
f 93 92 91
f 93 91 88
f 91 87 88
f 91 94 87
f 94 49 43
f 94 43 87
f 96 95 55
f 96 55 54
f 47 55 90
f 90 55 95
f 99 98 97
f 99 97 92
f 97 91 92
f 97 100 91
f 100 57 58
f 94 100 58
f 91 100 94
f 94 58 49
f 102 101 64
f 102 64 63
f 54 64 96
f 96 64 101
f 97 98 103
f 103 98 104
f 97 105 100
f 97 103 105
f 106 65 57
f 100 106 57
f 105 106 100
f 106 67 65
f 68 107 69
f 108 70 69
f 108 69 107
f 70 108 109
f 110 70 109
f 71 70 110
f 63 71 102
f 102 71 110
f 103 104 111
f 111 104 112
f 103 113 105
f 103 111 113
f 105 114 106
f 105 113 114
f 115 72 67
f 106 115 67
f 114 115 106
f 115 116 72
f 72 116 68
f 116 117 68
f 117 107 68
f 107 117 108
f 108 117 118
f 108 118 109
f 112 119 111
f 111 119 113
f 113 119 120
f 113 120 114
f 114 120 121
f 114 121 115
f 115 121 122
f 115 122 116
f 124 123 74
f 74 123 73
f 125 74 75
f 125 124 74
f 126 75 76
f 126 125 75
f 127 76 77
f 127 126 76
f 77 78 127
f 127 78 128
f 130 129 81
f 81 129 80
f 81 73 123
f 81 123 130
f 82 128 78
f 82 131 128
f 133 132 85
f 85 132 84
f 85 80 129
f 85 129 133
f 86 131 82
f 86 134 131
f 137 136 135
f 88 89 135
f 89 137 135
f 89 138 137
f 89 84 132
f 89 132 138
f 90 134 86
f 90 139 134
f 142 141 140
f 142 140 136
f 136 140 135
f 140 92 135
f 92 93 135
f 135 93 88
f 144 143 95
f 144 95 96
f 90 95 139
f 139 95 143
f 147 146 145
f 147 145 141
f 141 145 140
f 145 98 140
f 98 99 140
f 140 99 92
f 149 148 101
f 149 101 102
f 96 101 144
f 144 101 148
f 152 151 150
f 152 150 146
f 150 145 146
f 150 153 145
f 153 104 98
f 153 98 145
f 155 154 110
f 155 110 109
f 102 110 149
f 149 110 154
f 150 151 156
f 156 151 157
f 150 158 153
f 150 156 158
f 158 112 104
f 158 104 153
f 116 159 117
f 117 159 160
f 161 117 160
f 118 117 161
f 109 118 155
f 155 118 161
f 164 163 162
f 164 162 157
f 162 156 157
f 162 165 156
f 156 166 158
f 156 165 166
f 167 119 112
f 158 167 112
f 166 167 158
f 168 120 119
f 168 119 167
f 169 121 120
f 169 120 168
f 121 169 170
f 171 121 170
f 122 121 171
f 116 122 159
f 122 172 159
f 122 171 172
f 159 172 160
f 163 173 162
f 175 174 173
f 174 162 173
f 174 165 162
f 165 176 166
f 165 174 176
f 166 177 167
f 166 176 177
f 179 168 178
f 168 177 178
f 168 167 177
f 168 179 169
f 169 179 180
f 169 180 170
f 175 181 174
f 174 181 176
f 176 181 182
f 176 182 177
f 177 182 183
f 177 183 178
f 185 184 124
f 124 184 123
f 186 124 125
f 186 185 124
f 187 125 126
f 187 186 125
f 188 126 127
f 188 187 126
f 127 128 188
f 188 128 189
f 191 190 130
f 130 190 129
f 130 123 184
f 130 184 191
f 131 189 128
f 131 192 189
f 195 194 193
f 132 133 193
f 133 195 193
f 133 196 195
f 133 129 190
f 133 190 196
f 134 192 131
f 134 197 192
f 199 198 137
f 137 198 136
f 138 193 194
f 199 138 194
f 137 138 199
f 193 138 132
f 202 201 200
f 201 197 200
f 197 139 200
f 197 134 139
f 204 203 142
f 142 203 141
f 142 136 198
f 142 198 204
f 202 200 143
f 144 202 143
f 205 202 144
f 143 200 139
f 208 207 206
f 146 147 206
f 147 208 206
f 147 209 208
f 147 141 203
f 147 203 209
f 211 210 148
f 211 148 149
f 144 148 205
f 205 148 210
f 214 213 212
f 214 212 207
f 207 212 206
f 212 151 206
f 151 152 206
f 206 152 146
f 216 215 154
f 216 154 155
f 149 154 211
f 211 154 215
f 219 218 217
f 219 217 213
f 217 212 213
f 217 220 212
f 220 157 151
f 220 151 212
f 222 221 161
f 222 161 160
f 155 161 216
f 216 161 221
f 217 218 223
f 223 218 224
f 223 163 164
f 220 223 164
f 217 223 220
f 220 164 157
f 170 225 171
f 171 225 226
f 227 171 226
f 172 171 227
f 160 172 222
f 222 172 227
f 230 229 228
f 230 228 224
f 228 223 224
f 228 231 223
f 232 173 163
f 223 232 163
f 231 232 223
f 232 175 173
f 178 233 179
f 179 233 234
f 235 179 234
f 180 179 235
f 170 180 225
f 180 236 225
f 180 235 236
f 225 236 226
f 228 229 237
f 237 229 238
f 228 239 231
f 228 237 239
f 231 240 232
f 231 239 240
f 241 181 175
f 232 241 175
f 240 241 232
f 242 182 181
f 242 181 241
f 182 242 243
f 244 182 243
f 183 182 244
f 178 183 233
f 183 245 233
f 183 244 245
f 233 245 234
f 238 246 237
f 237 246 239
f 239 246 247
f 239 247 240
f 240 247 248
f 240 248 241
f 241 248 249
f 241 249 242
f 242 249 250
f 242 250 243
f 251 184 185
f 251 185 252
f 185 253 252
f 185 186 253
f 254 186 187
f 254 253 186
f 256 254 255
f 254 188 255
f 254 187 188
f 189 255 188
f 258 257 191
f 191 257 190
f 191 184 251
f 259 191 251
f 258 191 259
f 259 251 252
f 256 255 260
f 256 260 261
f 192 260 189
f 189 260 255
f 262 194 195
f 262 195 263
f 195 264 263
f 195 196 264
f 196 190 257
f 196 257 264
f 261 260 265
f 261 265 266
f 197 265 192
f 192 265 260
f 268 267 199
f 199 267 198
f 199 194 262
f 269 199 262
f 268 199 269
f 269 262 263
f 266 265 201
f 202 266 201
f 270 266 202
f 201 265 197
f 273 272 271
f 203 204 271
f 204 273 271
f 204 274 273
f 204 198 267
f 204 267 274
f 277 276 275
f 276 270 275
f 270 205 275
f 270 202 205
f 279 278 208
f 208 278 207
f 209 271 272
f 279 209 272
f 208 209 279
f 271 209 203
f 282 281 280
f 280 281 277
f 280 277 275
f 211 280 275
f 210 211 275
f 210 275 205
f 285 284 283
f 213 214 283
f 214 285 283
f 214 286 285
f 214 207 278
f 214 278 286
f 282 280 215
f 216 282 215
f 287 282 216
f 215 280 211
f 290 289 288
f 290 288 284
f 284 288 283
f 288 218 283
f 218 219 283
f 283 219 213
f 292 291 221
f 292 221 222
f 216 221 287
f 287 221 291
f 295 294 293
f 295 293 289
f 293 288 289
f 293 296 288
f 296 224 218
f 296 218 288
f 299 298 297
f 227 226 297
f 298 227 297
f 300 227 298
f 222 227 292
f 292 227 300
f 293 294 301
f 301 294 302
f 301 229 230
f 296 301 230
f 293 301 296
f 296 230 224
f 304 303 235
f 304 235 234
f 297 236 299
f 236 303 299
f 236 235 303
f 236 297 226
f 307 306 305
f 307 305 302
f 305 301 302
f 305 308 301
f 308 238 229
f 308 229 301
f 310 309 244
f 310 244 243
f 244 311 245
f 309 311 244
f 234 245 304
f 304 245 311
f 305 306 312
f 312 306 313
f 305 314 308
f 305 312 314
f 315 246 238
f 308 315 238
f 314 315 308
f 316 247 246
f 316 246 315
f 317 248 247
f 317 247 316
f 318 249 248
f 318 248 317
f 249 318 319
f 320 249 319
f 250 249 320
f 243 250 310
f 310 250 320
f 313 321 312
f 323 322 321
f 322 312 321
f 322 314 312
f 314 324 315
f 314 322 324
f 326 316 325
f 316 324 325
f 316 315 324
f 316 326 317
f 317 326 327
f 317 327 318
f 318 327 328
f 318 328 319
f 323 329 322
f 322 329 324
f 324 329 330
f 324 330 325
f 331 252 253
f 254 332 253
f 253 332 331
f 256 332 254
f 333 257 258
f 259 334 258
f 258 334 333
f 252 331 259
f 331 334 259
f 331 335 334
f 336 331 332
f 335 331 336
f 261 336 256
f 256 336 332
f 337 263 264
f 338 337 264
f 338 264 257
f 339 338 257
f 333 339 257
f 339 333 334
f 339 334 340
f 342 341 340
f 334 342 340
f 335 342 334
f 343 335 336
f 342 335 343
f 266 343 261
f 261 343 336
f 345 344 268
f 268 344 267
f 346 268 269
f 346 345 268
f 269 263 337
f 347 269 337
f 346 269 347
f 347 337 338
f 341 342 348
f 341 348 349
f 350 342 343
f 348 342 350
f 270 350 266
f 266 350 343
f 352 351 273
f 273 351 272
f 353 273 274
f 353 352 273
f 274 267 344
f 274 344 353
f 349 348 354
f 349 354 355
f 277 354 276
f 354 350 276
f 354 348 350
f 276 350 270
f 357 356 279
f 279 356 278
f 279 272 351
f 279 351 357
f 360 359 358
f 358 359 355
f 358 355 354
f 282 358 354
f 281 282 354
f 281 354 277
f 362 361 285
f 285 361 284
f 363 285 286
f 363 362 285
f 286 278 356
f 286 356 363
f 360 358 364
f 360 364 365
f 287 364 282
f 282 364 358
f 367 366 290
f 290 366 289
f 290 284 361
f 290 361 367
f 370 369 368
f 368 369 365
f 368 365 364
f 292 368 364
f 291 292 364
f 291 364 287
f 372 371 295
f 295 371 294
f 295 289 366
f 295 366 372
f 374 373 298
f 374 298 299
f 368 300 370
f 300 373 370
f 300 298 373
f 300 368 292
f 377 376 375
f 371 377 375
f 302 371 375
f 294 371 302
f 379 378 303
f 379 303 304
f 299 303 374
f 374 303 378
f 382 381 380
f 382 380 376
f 376 380 375
f 380 306 375
f 306 307 375
f 375 307 302
f 384 383 309
f 384 309 310
f 309 385 311
f 383 385 309
f 304 311 379
f 379 311 385
f 380 381 386
f 386 381 387
f 386 313 306
f 386 306 380
f 389 388 320
f 389 320 319
f 310 320 384
f 384 320 388
f 386 387 390
f 390 387 391
f 392 321 313
f 386 392 313
f 390 392 386
f 392 323 321
f 325 393 326
f 326 393 394
f 395 326 394
f 327 326 395
f 327 396 328
f 395 396 327
f 319 328 389
f 389 328 396
f 390 391 397
f 397 391 398
f 390 399 392
f 390 397 399
f 400 329 323
f 392 400 323
f 399 400 392
f 329 400 401
f 402 329 401
f 330 329 402
f 325 330 393
f 330 403 393
f 330 402 403
f 393 403 394
f 398 404 397
f 397 404 399
f 399 404 405
f 399 405 400
f 400 405 406
f 400 406 401
f 407 338 339
f 340 408 339
f 339 408 407
f 341 408 340
f 409 344 345
f 346 410 345
f 345 410 409
f 347 411 346
f 346 411 410
f 338 407 347
f 407 411 347
f 407 412 411
f 413 407 408
f 412 407 413
f 349 413 341
f 341 413 408
f 414 351 352
f 353 415 352
f 352 415 414
f 416 415 353
f 416 353 344
f 417 416 344
f 409 417 344
f 417 409 410
f 417 410 418
f 420 419 418
f 410 420 418
f 411 420 410
f 421 411 412
f 420 411 421
f 422 412 413
f 421 412 422
f 355 422 349
f 349 422 413
f 424 423 357
f 357 423 356
f 357 351 414
f 425 357 414
f 424 357 425
f 425 414 415
f 425 415 426
f 426 415 416
f 427 419 420
f 429 428 427
f 420 429 427
f 421 429 420
f 360 429 359
f 429 422 359
f 429 421 422
f 359 422 355
f 431 430 362
f 362 430 361
f 432 362 363
f 432 431 362
f 363 356 423
f 363 423 432
f 435 434 433
f 433 434 428
f 429 433 428
f 436 433 429
f 365 436 360
f 360 436 429
f 439 438 437
f 366 367 437
f 367 439 437
f 367 440 439
f 367 361 430
f 367 430 440
f 435 433 441
f 435 441 442
f 370 441 369
f 441 436 369
f 441 433 436
f 369 436 365
f 445 444 443
f 445 443 438
f 438 443 437
f 443 371 437
f 371 372 437
f 437 372 366
f 448 447 446
f 446 447 442
f 446 442 441
f 374 446 441
f 373 374 441
f 373 441 370
f 451 450 449
f 451 449 444
f 444 449 443
f 449 376 443
f 376 377 443
f 443 377 371
f 454 453 452
f 452 453 448
f 452 448 446
f 379 452 446
f 378 379 446
f 378 446 374
f 457 456 455
f 457 455 450
f 450 455 449
f 455 381 449
f 381 382 449
f 449 382 376
f 459 458 383
f 459 383 384
f 452 385 454
f 385 458 454
f 385 383 458
f 385 452 379
f 462 461 460
f 462 460 456
f 460 455 456
f 460 463 455
f 463 387 381
f 463 381 455
f 465 464 388
f 465 388 389
f 384 388 459
f 459 388 464
f 460 461 466
f 466 461 467
f 460 468 463
f 460 466 468
f 468 391 387
f 468 387 463
f 470 469 395
f 470 395 394
f 395 471 396
f 469 471 395
f 389 396 465
f 465 396 471
f 466 467 472
f 472 467 473
f 466 474 468
f 466 472 474
f 474 398 391
f 474 391 468
f 476 475 402
f 476 402 401
f 402 477 403
f 475 477 402
f 394 403 470
f 470 403 477
f 473 478 472
f 480 479 478
f 479 472 478
f 479 474 472
f 481 404 398
f 474 481 398
f 479 481 474
f 404 481 482
f 483 404 482
f 405 404 483
f 405 484 406
f 483 484 405
f 401 406 476
f 476 406 484
f 480 485 479
f 479 485 481
f 481 485 486
f 481 486 482
f 487 416 417
f 418 488 417
f 417 488 487
f 419 488 418
f 489 423 424
f 425 490 424
f 424 490 489
f 426 491 425
f 425 491 490
f 416 487 426
f 487 491 426
f 487 492 491
f 493 487 488
f 492 487 493
f 427 494 419
f 494 488 419
f 494 493 488
f 428 494 427
f 495 430 431
f 495 431 496
f 431 497 496
f 431 432 497
f 432 423 489
f 498 432 489
f 497 432 498
f 498 489 490
f 498 490 499
f 499 490 491
f 499 491 500
f 502 501 500
f 491 502 500
f 492 502 491
f 503 492 493
f 502 492 503
f 435 503 434
f 503 494 434
f 503 493 494
f 434 494 428
f 505 504 439
f 439 504 438
f 506 439 440
f 506 505 439
f 440 430 495
f 507 440 495
f 506 440 507
f 507 495 496
f 501 502 508
f 501 508 509
f 510 502 503
f 508 502 510
f 442 510 435
f 435 510 503
f 512 511 445
f 445 511 444
f 445 438 504
f 445 504 512
f 509 508 513
f 509 513 514
f 448 513 447
f 513 510 447
f 513 508 510
f 447 510 442
f 517 516 515
f 450 451 515
f 451 517 515
f 451 518 517
f 451 444 511
f 451 511 518
f 521 520 519
f 519 520 514
f 519 514 513
f 454 519 513
f 453 454 513
f 453 513 448
f 524 523 522
f 524 522 516
f 516 522 515
f 522 456 515
f 456 457 515
f 515 457 450
f 527 526 525
f 525 526 521
f 525 521 519
f 459 525 519
f 458 459 519
f 458 519 454
f 522 523 462
f 523 461 462
f 523 528 461
f 522 462 456
f 531 530 529
f 529 530 527
f 529 527 525
f 465 529 525
f 464 465 525
f 464 525 459
f 534 533 532
f 528 534 532
f 467 528 532
f 461 528 467
f 536 535 469
f 536 469 470
f 529 471 531
f 471 535 531
f 471 469 535
f 471 529 465
f 532 533 537
f 537 533 538
f 537 473 467
f 537 467 532
f 540 539 475
f 540 475 476
f 475 541 477
f 539 541 475
f 470 477 536
f 536 477 541
f 537 538 542
f 542 538 543
f 544 478 473
f 537 544 473
f 542 544 537
f 544 480 478
f 482 545 483
f 483 545 546
f 547 483 546
f 484 483 547
f 476 484 540
f 540 484 547
f 543 548 542
f 550 549 548
f 549 542 548
f 549 544 542
f 551 485 480
f 544 551 480
f 549 551 544
f 485 551 552
f 553 485 552
f 486 485 553
f 482 486 545
f 486 554 545
f 486 553 554
f 545 554 546
f 550 555 549
f 549 555 551
f 551 555 556
f 551 556 552
f 557 496 497
f 498 558 497
f 497 558 557
f 499 559 498
f 498 559 558
f 500 560 499
f 499 560 559
f 501 560 500
f 561 504 505
f 506 562 505
f 505 562 561
f 562 506 563
f 506 564 563
f 506 507 564
f 507 496 557
f 565 507 557
f 564 507 565
f 567 566 565
f 557 567 565
f 558 567 557
f 568 558 559
f 567 558 568
f 569 559 560
f 568 559 569
f 509 569 501
f 501 569 560
f 571 570 512
f 512 570 511
f 512 504 561
f 572 512 561
f 571 512 572
f 572 561 562
f 572 562 573
f 573 562 563
f 574 566 567
f 576 575 574
f 567 576 574
f 568 576 567
f 577 568 569
f 576 568 577
f 514 577 509
f 509 577 569
f 579 578 517
f 517 578 516
f 580 517 518
f 580 579 517
f 518 511 570
f 518 570 580
f 583 582 581
f 581 582 575
f 576 581 575
f 584 581 576
f 521 584 520
f 584 577 520
f 584 576 577
f 520 577 514
f 586 585 524
f 524 585 523
f 524 516 578
f 524 578 586
f 583 581 587
f 583 587 588
f 527 587 526
f 587 584 526
f 587 581 584
f 526 584 521
f 591 590 589
f 585 591 589
f 528 585 589
f 523 585 528
f 594 593 592
f 592 593 588
f 592 588 587
f 531 592 587
f 530 531 587
f 530 587 527
f 597 596 595
f 597 595 590
f 590 595 589
f 595 533 589
f 533 534 589
f 589 534 528
f 600 599 598
f 598 599 594
f 598 594 592
f 536 598 592
f 535 536 592
f 535 592 531
f 595 596 601
f 601 596 602
f 601 538 533
f 601 533 595
f 604 603 539
f 604 539 540
f 598 541 600
f 541 603 600
f 541 539 603
f 541 598 536
f 601 602 605
f 605 602 606
f 605 543 538
f 605 538 601
f 608 607 547
f 608 547 546
f 540 547 604
f 604 547 607
f 605 606 609
f 609 606 610
f 611 548 543
f 605 611 543
f 609 611 605
f 611 550 548
f 613 612 553
f 613 553 552
f 553 614 554
f 612 614 553
f 546 554 608
f 608 554 614
f 610 615 609
f 617 616 615
f 616 609 615
f 616 611 609
f 611 616 550
f 616 618 550
f 618 555 550
f 616 619 618
f 555 620 556
f 618 620 555
f 552 556 613
f 613 556 620
f 617 621 616
f 616 621 619
f 622 563 564
f 565 623 564
f 564 623 622
f 566 623 565
f 624 570 571
f 572 625 571
f 571 625 624
f 573 626 572
f 572 626 625
f 563 622 573
f 622 626 573
f 622 627 626
f 628 622 623
f 627 622 628
f 574 629 566
f 629 623 566
f 629 628 623
f 575 629 574
f 631 630 579
f 579 630 578
f 632 579 580
f 632 631 579
f 580 570 624
f 633 580 624
f 632 580 633
f 633 624 625
f 633 625 634
f 634 625 626
f 634 626 635
f 637 636 635
f 626 637 635
f 627 637 626
f 638 627 628
f 637 627 638
f 583 638 582
f 638 629 582
f 638 628 629
f 582 629 575
f 640 639 586
f 586 639 585
f 586 578 630
f 586 630 640
f 636 637 641
f 636 641 642
f 643 637 638
f 641 637 643
f 588 643 583
f 583 643 638
f 645 644 591
f 591 644 590
f 591 585 639
f 591 639 645
f 642 641 646
f 642 646 647
f 594 646 593
f 646 643 593
f 646 641 643
f 593 643 588
f 649 648 597
f 597 648 596
f 597 590 644
f 597 644 649
f 652 651 650
f 650 651 647
f 650 647 646
f 600 650 646
f 599 600 646
f 599 646 594
f 655 654 653
f 648 655 653
f 602 648 653
f 596 648 602
f 658 657 656
f 656 657 652
f 656 652 650
f 604 656 650
f 603 604 650
f 603 650 600
f 653 654 659
f 659 654 660
f 659 606 602
f 659 602 653
f 663 662 661
f 661 662 658
f 661 658 656
f 608 661 656
f 607 608 656
f 607 656 604
f 659 660 664
f 664 660 665
f 664 610 606
f 664 606 659
f 667 666 612
f 667 612 613
f 661 614 663
f 614 666 663
f 614 612 666
f 614 661 608
f 664 665 668
f 668 665 669
f 670 615 610
f 664 670 610
f 668 670 664
f 670 617 615
f 619 671 618
f 618 671 672
f 673 618 672
f 620 618 673
f 613 620 667
f 667 620 673
f 669 674 668
f 668 674 670
f 670 674 675
f 670 675 617
f 675 621 617
f 675 676 621
f 619 621 671
f 621 677 671
f 621 676 677
f 671 677 672
f 678 630 631
f 632 679 631
f 631 679 678
f 633 680 632
f 632 680 679
f 634 681 633
f 633 681 680
f 635 682 634
f 634 682 681
f 636 682 635
f 684 683 640
f 640 683 639
f 640 630 678
f 685 640 678
f 684 640 685
f 685 678 679
f 685 679 686
f 686 679 680
f 686 680 687
f 689 688 687
f 680 689 687
f 681 689 680
f 690 681 682
f 689 681 690
f 642 690 636
f 636 690 682
f 693 692 691
f 644 645 691
f 645 693 691
f 645 694 693
f 645 639 683
f 645 683 694
f 688 689 695
f 688 695 696
f 697 689 690
f 695 689 697
f 647 697 642
f 642 697 690
f 700 699 698
f 700 698 692
f 692 698 691
f 698 648 691
f 648 649 691
f 691 649 644
f 696 695 701
f 696 701 702
f 652 701 651
f 701 697 651
f 701 695 697
f 651 697 647
f 698 699 655
f 699 654 655
f 699 703 654
f 698 655 648
f 702 701 657
f 658 702 657
f 704 702 658
f 657 701 652
f 703 660 654
f 705 660 703
f 707 706 662
f 707 662 663
f 658 662 704
f 704 662 706
f 705 665 660
f 708 665 705
f 710 709 666
f 710 666 667
f 663 666 707
f 707 666 709
f 708 669 665
f 711 669 708
f 713 712 673
f 713 673 672
f 667 673 710
f 710 673 712
f 674 669 714
f 669 715 714
f 669 711 715
f 716 675 674
f 716 674 714
f 717 676 675
f 717 675 716
f 676 717 718
f 719 676 718
f 677 676 719
f 672 677 713
f 713 677 719
f 715 720 714
f 714 720 716
f 716 720 721
f 716 721 717
f 717 721 722
f 717 722 718
f 723 683 684
f 685 724 684
f 684 724 723
f 686 725 685
f 685 725 724
f 687 726 686
f 686 726 725
f 688 726 687
f 728 727 693
f 693 727 692
f 729 693 694
f 729 728 693
f 694 683 723
f 730 694 723
f 729 694 730
f 730 723 724
f 730 724 731
f 731 724 725
f 731 725 732
f 734 733 732
f 725 734 732
f 726 734 725
f 696 734 688
f 688 734 726
f 736 735 700
f 700 735 699
f 700 692 727
f 700 727 736
f 733 734 737
f 733 737 738
f 702 737 696
f 696 737 734
f 735 703 699
f 739 703 735
f 742 741 740
f 740 741 738
f 737 740 738
f 743 740 737
f 704 743 702
f 702 743 737
f 746 745 744
f 739 746 744
f 705 739 744
f 703 739 705
f 742 740 747
f 742 747 748
f 707 747 706
f 747 743 706
f 747 740 743
f 706 743 704
f 744 745 749
f 749 745 750
f 749 708 705
f 749 705 744
f 753 752 751
f 751 752 748
f 751 748 747
f 710 751 747
f 709 710 747
f 709 747 707
f 749 750 754
f 754 750 755
f 754 711 708
f 754 708 749
f 753 751 712
f 713 753 712
f 756 753 713
f 712 751 710
f 755 757 754
f 711 754 757
f 758 711 757
f 715 711 758
f 760 759 719
f 760 719 718
f 713 719 756
f 756 719 759
f 758 761 715
f 715 761 720
f 720 762 721
f 761 762 720
f 721 763 722
f 762 763 721
f 718 722 760
f 760 722 763
f 764 727 728
f 729 765 728
f 728 765 764
f 730 766 729
f 729 766 765
f 731 767 730
f 730 767 766
f 732 768 731
f 731 768 767
f 733 768 732
f 770 769 736
f 736 769 735
f 736 727 764
f 771 736 764
f 770 736 771
f 771 764 765
f 771 765 772
f 772 765 766
f 772 766 773
f 775 774 773
f 766 775 773
f 767 775 766
f 776 767 768
f 775 767 776
f 738 776 733
f 733 776 768
f 769 739 735
f 777 739 769
f 774 775 778
f 774 778 779
f 742 778 741
f 778 776 741
f 778 775 776
f 741 776 738
f 781 780 746
f 746 780 745
f 746 739 777
f 746 777 781
f 779 778 782
f 779 782 783
f 748 782 742
f 742 782 778
f 780 750 745
f 784 750 780
f 783 782 752
f 753 783 752
f 785 783 753
f 752 782 748
f 784 755 750
f 786 755 784
f 789 788 787
f 788 785 787
f 785 756 787
f 785 753 756
f 757 755 790
f 755 791 790
f 755 786 791
f 790 758 757
f 789 787 759
f 760 789 759
f 792 789 760
f 759 787 756
f 791 793 790
f 793 795 794
f 793 794 761
f 790 793 761
f 758 790 761
f 796 762 761
f 796 761 794
f 762 796 797
f 798 762 797
f 763 762 798
f 760 763 792
f 792 763 798
f 795 799 794
f 794 799 796
f 796 799 800
f 796 800 797
f 801 769 770
f 801 770 802
f 770 803 802
f 770 771 803
f 804 771 772
f 804 803 771
f 806 804 805
f 804 773 805
f 804 772 773
f 774 805 773
f 808 807 801
f 807 769 801
f 807 777 769
f 808 801 802
f 806 805 809
f 806 809 810
f 779 809 774
f 774 809 805
f 812 811 781
f 781 811 780
f 781 777 807
f 781 807 812
f 810 809 813
f 810 813 814
f 783 813 779
f 779 813 809
f 811 784 780
f 815 784 811
f 814 813 816
f 814 816 817
f 785 816 783
f 783 816 813
f 815 786 784
f 818 786 815
f 817 816 788
f 789 817 788
f 819 817 789
f 788 816 785
f 818 791 786
f 820 791 818
f 792 819 789
f 792 821 819
f 793 791 822
f 791 823 822
f 791 820 823
f 822 795 793
f 825 824 798
f 825 798 797
f 792 798 821
f 821 798 824
f 823 826 822
f 826 828 827
f 826 827 799
f 822 826 799
f 795 822 799
f 829 800 799
f 829 799 827
f 829 830 800
f 830 797 800
f 830 825 797
f 828 831 827
f 827 831 829
f 829 831 832
f 829 832 830
f 833 802 803
f 804 834 803
f 803 834 833
f 806 834 804
f 836 835 808
f 808 835 807
f 808 802 833
f 837 808 833
f 836 808 837
f 839 838 837
f 833 839 837
f 834 839 833
f 810 839 806
f 806 839 834
f 841 840 812
f 812 840 811
f 812 807 835
f 812 835 841
f 842 838 839
f 839 810 842
f 810 843 842
f 810 814 843
f 840 815 811
f 844 815 840
f 817 843 814
f 817 845 843
f 844 818 815
f 846 818 844
f 819 845 817
f 819 847 845
f 846 820 818
f 848 820 846
f 821 847 819
f 821 849 847
f 848 823 820
f 850 823 848
f 825 851 824
f 851 852 824
f 852 821 824
f 852 849 821
f 826 823 853
f 823 854 853
f 823 850 854
f 853 828 826
f 856 855 851
f 825 856 851
f 830 856 825
f 851 855 852
f 853 854 857
f 857 854 858
f 859 831 828
f 853 859 828
f 857 859 853
f 831 859 860
f 861 831 860
f 832 831 861
f 830 832 856
f 856 832 861
f 858 862 857
f 857 862 859
f 859 862 863
f 859 863 860
f 864 835 836
f 837 865 836
f 836 865 864
f 838 865 837
f 866 840 841
f 867 866 841
f 867 841 835
f 868 867 835
f 864 868 835
f 868 864 865
f 868 865 869
f 871 869 870
f 870 869 842
f 869 865 842
f 865 838 842
f 843 870 842
f 873 872 866
f 872 840 866
f 872 844 840
f 873 866 867
f 874 871 870
f 870 843 874
f 843 875 874
f 843 845 875
f 872 846 844
f 876 846 872
f 847 875 845
f 847 877 875
f 880 879 878
f 876 880 878
f 848 876 878
f 846 876 848
f 849 877 847
f 849 881 877
f 878 879 882
f 882 879 883
f 882 850 848
f 882 848 878
f 852 881 849
f 852 884 881
f 882 883 885
f 885 883 886
f 885 854 850
f 885 850 882
f 888 887 855
f 888 855 856
f 852 855 884
f 884 855 887
f 885 886 889
f 889 886 890
f 889 858 854
f 889 854 885
f 860 891 861
f 891 892 861
f 892 856 861
f 892 888 856
f 889 890 893
f 893 890 894
f 895 862 858
f 889 895 858
f 893 895 889
f 896 863 862
f 896 862 895
f 896 897 863
f 863 897 860
f 897 898 860
f 898 891 860
f 891 898 892
f 894 899 893
f 893 899 895
f 895 899 900
f 895 900 896
f 896 900 901
f 896 901 897
f 903 902 868
f 868 902 867
f 904 868 869
f 904 903 868
f 869 871 904
f 904 871 905
f 907 906 873
f 873 906 872
f 873 867 902
f 873 902 907
f 871 874 908
f 909 871 908
f 905 871 909
f 875 908 874
f 906 876 872
f 910 876 906
f 911 909 908
f 908 875 911
f 875 912 911
f 875 877 912
f 914 913 880
f 880 913 879
f 880 876 910
f 880 910 914
f 881 912 877
f 881 915 912
f 913 883 879
f 916 883 913
f 919 918 917
f 918 915 917
f 915 884 917
f 915 881 884
f 922 921 920
f 916 922 920
f 886 916 920
f 883 916 886
f 919 917 887
f 888 919 887
f 923 919 888
f 887 917 884
f 920 921 924
f 924 921 925
f 924 890 886
f 924 886 920
f 892 923 888
f 892 926 923
f 929 928 927
f 929 927 925
f 927 924 925
f 927 930 924
f 930 894 890
f 930 890 924
f 932 931 898
f 932 898 897
f 892 898 926
f 926 898 931
f 927 928 933
f 933 928 934
f 927 935 930
f 927 933 935
f 936 899 894
f 930 936 894
f 935 936 930
f 937 900 899
f 937 899 936
f 900 937 938
f 939 900 938
f 901 900 939
f 897 901 932
f 932 901 939
f 933 934 940
f 940 934 941
f 933 942 935
f 933 940 942
f 935 943 936
f 935 942 943
f 945 937 944
f 937 943 944
f 937 936 943
f 937 945 938
f 941 946 940
f 940 946 942
f 942 946 947
f 942 947 943
f 943 947 948
f 943 948 944
f 951 950 949
f 953 952 949
f 949 952 951
f 953 954 952
f 950 955 949
f 949 955 953
f 953 955 956
f 953 956 954
f 957 902 903
f 904 958 903
f 903 958 957
f 905 958 904
f 960 959 907
f 907 959 906
f 907 902 957
f 961 907 957
f 960 907 961
f 961 957 958
f 961 958 962
f 958 905 962
f 905 963 962
f 905 909 963
f 959 910 906
f 964 910 959
f 909 911 965
f 966 909 965
f 963 909 966
f 912 965 911
f 968 967 914
f 914 967 913
f 914 910 964
f 914 964 968
f 966 965 969
f 966 969 970
f 915 969 912
f 912 969 965
f 973 972 971
f 967 973 971
f 916 967 971
f 913 967 916
f 970 969 918
f 919 970 918
f 974 970 919
f 918 969 915
f 971 972 922
f 972 921 922
f 972 975 921
f 971 922 916
f 923 974 919
f 923 976 974
f 979 978 977
f 975 979 977
f 925 975 977
f 921 975 925
f 982 981 980
f 981 976 980
f 976 926 980
f 976 923 926
f 977 978 929
f 978 928 929
f 978 983 928
f 977 929 925
f 982 980 931
f 932 982 931
f 984 982 932
f 931 980 926
f 987 986 985
f 983 987 985
f 934 983 985
f 928 983 934
f 989 988 939
f 989 939 938
f 932 939 984
f 984 939 988
f 985 986 990
f 990 986 991
f 990 941 934
f 990 934 985
f 993 992 945
f 993 945 944
f 938 945 989
f 989 945 992
f 996 995 994
f 996 994 991
f 994 990 991
f 994 997 990
f 998 946 941
f 990 998 941
f 997 998 990
f 999 947 946
f 999 946 998
f 947 999 1000
f 1001 947 1000
f 948 947 1001
f 944 948 993
f 993 948 1001
f 994 995 1002
f 1002 995 1003
f 994 1004 997
f 994 1002 1004
f 997 1005 998
f 997 1004 1005
f 1007 999 1006
f 999 1005 1006
f 999 998 1005
f 999 1007 1000
f 1002 1003 1008
f 1008 1003 1009
f 1002 1010 1004
f 1002 1008 1010
f 1012 1005 1011
f 1005 1010 1011
f 1005 1004 1010
f 1005 1012 1006
f 1009 1013 1008
f 1008 1013 1010
f 1010 1013 1014
f 1010 1014 1011
f 1017 1016 1015
f 1019 1018 1015
f 1015 1018 1017
f 1019 1020 1018
f 1015 1016 1021
f 1021 1016 1022
f 1015 1023 1019
f 1015 1021 1023
f 1020 1019 1024
f 1024 1019 1023
f 1027 1026 1025
f 1027 1025 1022
f 1022 1025 1021
f 1025 950 1021
f 950 951 1021
f 1021 951 952
f 1021 952 1023
f 1029 1028 954
f 954 1028 952
f 1028 1024 952
f 1024 1023 952
f 1029 1030 1028
f 1026 1031 1025
f 1025 1031 950
f 1031 955 950
f 1031 1032 955
f 955 1033 956
f 1032 1033 955
f 954 956 1029
f 956 1034 1029
f 956 1033 1034
f 1029 1034 1030
f 1035 959 960
f 961 1036 960
f 960 1036 1035
f 962 1037 961
f 961 1037 1036
f 963 1037 962
f 1039 1038 1035
f 1038 959 1035
f 1038 964 959
f 1039 1035 1036
f 1039 1036 1040
f 1042 1041 1040
f 1036 1042 1040
f 1037 1042 1036
f 966 1042 963
f 963 1042 1037
f 1044 1043 968
f 968 1043 967
f 968 964 1038
f 968 1038 1044
f 1045 1041 1042
f 1042 966 1045
f 966 1046 1045
f 966 970 1046
f 1048 1047 973
f 973 1047 972
f 973 967 1043
f 973 1043 1048
f 974 1046 970
f 974 1049 1046
f 1052 1051 1050
f 1047 1052 1050
f 975 1047 1050
f 972 1047 975
f 976 1049 974
f 976 1053 1049
f 1050 1051 979
f 1051 978 979
f 1051 1054 978
f 1050 979 975
f 1056 1055 981
f 1056 981 982
f 976 981 1053
f 1053 981 1055
f 1059 1058 1057
f 1054 1059 1057
f 983 1054 1057
f 978 1054 983
f 984 1056 982
f 984 1060 1056
f 1057 1058 987
f 1058 986 987
f 1058 1061 986
f 1057 987 983
f 1063 1062 988
f 1063 988 989
f 984 988 1060
f 1060 988 1062
f 1066 1065 1064
f 1061 1066 1064
f 991 1061 1064
f 986 1061 991
f 993 1067 992
f 1067 1068 992
f 1068 989 992
f 1068 1063 989
f 1064 1065 996
f 1065 995 996
f 1065 1069 995
f 1064 996 991
f 1000 1070 1001
f 1070 1071 1001
f 1001 1071 993
f 1071 1072 993
f 1072 1067 993
f 1067 1072 1068
f 1075 1074 1073
f 1069 1075 1073
f 1003 1069 1073
f 995 1069 1003
f 1006 1076 1007
f 1076 1077 1007
f 1007 1077 1000
f 1077 1078 1000
f 1078 1070 1000
f 1070 1078 1071
f 1073 1074 1079
f 1079 1074 1080
f 1079 1009 1003
f 1079 1003 1073
f 1011 1081 1012
f 1081 1082 1012
f 1012 1082 1006
f 1082 1083 1006
f 1083 1076 1006
f 1076 1083 1077
f 1079 1080 1084
f 1084 1080 1085
f 1086 1013 1009
f 1079 1086 1009
f 1084 1086 1079
f 1087 1014 1013
f 1087 1013 1086
f 1087 1088 1014
f 1014 1088 1011
f 1088 1089 1011
f 1089 1081 1011
f 1081 1089 1082
f 1084 1085 1090
f 1090 1085 1091
f 1084 1092 1086
f 1084 1090 1092
f 1086 1093 1087
f 1086 1092 1093
f 1088 1087 1094
f 1094 1087 1093
f 1090 1091 1095
f 1095 1091 1096
f 1090 1097 1092
f 1090 1095 1097
f 1099 1093 1098
f 1093 1097 1098
f 1093 1092 1097
f 1093 1099 1094
f 1096 1100 1095
f 1095 1100 1097
f 1097 1100 1101
f 1097 1101 1098
f 1104 1103 1102
f 1106 1105 1102
f 1102 1105 1104
f 1106 1107 1105
f 1102 1103 1108
f 1108 1103 1109
f 1102 1110 1106
f 1102 1108 1110
f 1107 1106 1111
f 1111 1106 1110
f 1114 1113 1112
f 1114 1112 1109
f 1109 1112 1108
f 1112 1016 1108
f 1016 1017 1108
f 1108 1017 1018
f 1108 1018 1110
f 1116 1115 1020
f 1020 1115 1018
f 1115 1111 1018
f 1111 1110 1018
f 1116 1117 1115
f 1112 1113 1118
f 1118 1113 1119
f 1118 1022 1016
f 1118 1016 1112
f 1024 1120 1116
f 1024 1116 1020
f 1117 1116 1121
f 1121 1116 1120
f 1118 1119 1027
f 1119 1026 1027
f 1119 1122 1026
f 1118 1027 1022
f 1028 1120 1024
f 1028 1030 1120
f 1030 1121 1120
f 1030 1123 1121
f 1031 1026 1124
f 1026 1125 1124
f 1026 1122 1125
f 1126 1032 1031
f 1126 1031 1124
f 1127 1033 1032
f 1127 1032 1126
f 1128 1034 1033
f 1128 1033 1127
f 1128 1129 1034
f 1129 1030 1034
f 1129 1123 1030
f 1125 1130 1124
f 1124 1130 1126
f 1126 1130 1131
f 1126 1131 1127
f 1127 1131 1132
f 1127 1132 1128
f 1128 1132 1133
f 1128 1133 1129
f 1134 1038 1039
f 1040 1135 1039
f 1039 1135 1134
f 1041 1135 1040
f 1137 1136 1044
f 1044 1136 1043
f 1044 1038 1134
f 1138 1044 1134
f 1137 1044 1138
f 1138 1134 1135
f 1138 1135 1139
f 1141 1139 1140
f 1140 1139 1045
f 1139 1135 1045
f 1135 1041 1045
f 1046 1140 1045
f 1143 1142 1048
f 1048 1142 1047
f 1048 1043 1136
f 1048 1136 1143
f 1141 1140 1144
f 1141 1144 1145
f 1049 1144 1046
f 1046 1144 1140
f 1147 1146 1052
f 1052 1146 1051
f 1052 1047 1142
f 1052 1142 1147
f 1145 1144 1148
f 1145 1148 1149
f 1053 1148 1049
f 1049 1148 1144
f 1146 1054 1051
f 1150 1054 1146
f 1149 1148 1055
f 1056 1149 1055
f 1151 1149 1056
f 1055 1148 1053
f 1153 1152 1059
f 1059 1152 1058
f 1059 1054 1150
f 1059 1150 1153
f 1156 1155 1154
f 1155 1151 1154
f 1151 1060 1154
f 1151 1056 1060
f 1159 1158 1157
f 1152 1159 1157
f 1061 1152 1157
f 1058 1152 1061
f 1156 1154 1062
f 1063 1156 1062
f 1160 1156 1063
f 1062 1154 1060
f 1157 1158 1066
f 1158 1065 1066
f 1158 1161 1065
f 1157 1066 1061
f 1164 1163 1162
f 1163 1160 1162
f 1160 1068 1162
f 1160 1063 1068
f 1167 1166 1165
f 1161 1167 1165
f 1069 1161 1165
f 1065 1161 1069
f 1164 1162 1072
f 1071 1164 1072
f 1168 1164 1071
f 1072 1162 1068
f 1165 1166 1075
f 1166 1074 1075
f 1166 1169 1074
f 1165 1075 1069
f 1171 1170 1078
f 1171 1078 1077
f 1071 1078 1168
f 1168 1078 1170
f 1169 1080 1074
f 1172 1080 1169
f 1174 1173 1083
f 1174 1083 1082
f 1077 1083 1171
f 1171 1083 1173
f 1177 1176 1175
f 1172 1177 1175
f 1085 1172 1175
f 1080 1172 1085
f 1088 1178 1089
f 1178 1179 1089
f 1179 1082 1089
f 1179 1174 1082
f 1175 1176 1180
f 1180 1176 1181
f 1180 1091 1085
f 1180 1085 1175
f 1183 1182 1178
f 1088 1183 1178
f 1094 1183 1088
f 1178 1182 1179
f 1180 1181 1184
f 1184 1181 1185
f 1184 1096 1091
f 1184 1091 1180
f 1098 1186 1099
f 1186 1187 1099
f 1187 1094 1099
f 1187 1183 1094
f 1185 1188 1184
f 1188 1190 1189
f 1188 1189 1100
f 1184 1188 1100
f 1096 1184 1100
f 1191 1101 1100
f 1191 1100 1189
f 1191 1192 1101
f 1101 1192 1098
f 1192 1193 1098
f 1193 1186 1098
f 1186 1193 1187
f 1189 1190 1194
f 1194 1190 1195
f 1189 1196 1191
f 1189 1194 1196
f 1192 1191 1197
f 1197 1191 1196
f 1194 1195 1198
f 1198 1195 1199
f 1194 1200 1196
f 1194 1198 1200
f 1197 1196 1201
f 1201 1196 1200
f 1204 1203 1202
f 1204 1202 1199
f 1199 1202 1198
f 1202 1103 1198
f 1103 1104 1198
f 1198 1104 1105
f 1198 1105 1200
f 1206 1205 1107
f 1107 1205 1105
f 1205 1201 1105
f 1201 1200 1105
f 1206 1207 1205
f 1202 1203 1208
f 1208 1203 1209
f 1208 1109 1103
f 1208 1103 1202
f 1111 1210 1206
f 1111 1206 1107
f 1207 1206 1211
f 1211 1206 1210
f 1208 1209 1114
f 1209 1113 1114
f 1209 1212 1113
f 1208 1114 1109
f 1115 1210 1111
f 1115 1117 1210
f 1117 1211 1210
f 1117 1213 1211
f 1212 1119 1113
f 1214 1119 1212
f 1121 1213 1117
f 1121 1215 1213
f 1214 1122 1119
f 1216 1122 1214
f 1123 1215 1121
f 1123 1217 1215
f 1216 1125 1122
f 1218 1125 1216
f 1129 1217 1123
f 1129 1219 1217
f 1130 1125 1220
f 1125 1221 1220
f 1125 1218 1221
f 1222 1131 1130
f 1222 1130 1220
f 1223 1132 1131
f 1223 1131 1222
f 1224 1133 1132
f 1224 1132 1223
f 1224 1225 1133
f 1225 1129 1133
f 1225 1219 1129
f 1221 1226 1220
f 1220 1226 1222
f 1222 1226 1227
f 1222 1227 1223
f 1223 1227 1228
f 1223 1228 1224
f 1224 1228 1229
f 1224 1229 1225
f 1230 1136 1137
f 1138 1231 1137
f 1137 1231 1230
f 1139 1232 1138
f 1138 1232 1231
f 1141 1232 1139
f 1233 1142 1143
f 1234 1233 1143
f 1234 1143 1136
f 1235 1234 1136
f 1230 1235 1136
f 1235 1230 1231
f 1235 1231 1236
f 1238 1237 1236
f 1231 1238 1236
f 1232 1238 1231
f 1145 1238 1141
f 1141 1238 1232
f 1239 1146 1147
f 1240 1239 1147
f 1240 1147 1142
f 1241 1240 1142
f 1233 1241 1142
f 1241 1233 1234
f 1237 1238 1242
f 1237 1242 1243
f 1149 1242 1145
f 1145 1242 1238
f 1245 1244 1239
f 1244 1146 1239
f 1244 1150 1146
f 1245 1239 1240
f 1243 1242 1246
f 1243 1246 1247
f 1151 1246 1149
f 1149 1246 1242
f 1249 1248 1153
f 1153 1248 1152
f 1153 1150 1244
f 1153 1244 1249
f 1247 1246 1155
f 1156 1247 1155
f 1250 1247 1156
f 1155 1246 1151
f 1252 1251 1159
f 1159 1251 1158
f 1159 1152 1248
f 1159 1248 1252
f 1160 1250 1156
f 1160 1253 1250
f 1251 1161 1158
f 1254 1161 1251
f 1256 1255 1163
f 1256 1163 1164
f 1160 1163 1253
f 1253 1163 1255
f 1258 1257 1167
f 1167 1257 1166
f 1167 1161 1254
f 1167 1254 1258
f 1168 1256 1164
f 1168 1259 1256
f 1257 1169 1166
f 1260 1169 1257
f 1262 1261 1170
f 1262 1170 1171
f 1168 1170 1259
f 1259 1170 1261
f 1265 1264 1263
f 1260 1265 1263
f 1172 1260 1263
f 1169 1260 1172
f 1267 1266 1173
f 1267 1173 1174
f 1171 1173 1262
f 1262 1173 1266
f 1263 1264 1177
f 1264 1176 1177
f 1264 1268 1176
f 1263 1177 1172
f 1179 1267 1174
f 1179 1269 1267
f 1268 1181 1176
f 1270 1181 1268
f 1272 1271 1182
f 1272 1182 1183
f 1179 1182 1269
f 1269 1182 1271
f 1270 1185 1181
f 1273 1185 1270
f 1187 1272 1183
f 1187 1274 1272
f 1188 1185 1275
f 1185 1276 1275
f 1185 1273 1276
f 1275 1190 1188
f 1192 1277 1193
f 1277 1278 1193
f 1278 1187 1193
f 1278 1274 1187
f 1275 1276 1279
f 1279 1276 1280
f 1279 1195 1190
f 1279 1190 1275
f 1197 1281 1277
f 1197 1277 1192
f 1278 1277 1282
f 1282 1277 1281
f 1279 1280 1283
f 1283 1280 1284
f 1283 1199 1195
f 1283 1195 1279
f 1201 1285 1281
f 1201 1281 1197
f 1282 1281 1286
f 1286 1281 1285
f 1283 1284 1204
f 1284 1203 1204
f 1284 1287 1203
f 1283 1204 1199
f 1205 1285 1201
f 1205 1207 1285
f 1207 1286 1285
f 1207 1288 1286
f 1287 1209 1203
f 1289 1209 1287
f 1211 1288 1207
f 1211 1290 1288
f 1289 1212 1209
f 1291 1212 1289
f 1213 1290 1211
f 1213 1292 1290
f 1291 1214 1212
f 1293 1214 1291
f 1215 1292 1213
f 1215 1294 1292
f 1293 1216 1214
f 1295 1216 1293
f 1217 1294 1215
f 1217 1296 1294
f 1295 1218 1216
f 1297 1218 1295
f 1219 1296 1217
f 1219 1298 1296
f 1297 1221 1218
f 1299 1221 1297
f 1225 1298 1219
f 1225 1300 1298
f 1299 1301 1221
f 1221 1301 1226
f 1226 1302 1227
f 1301 1302 1226
f 1227 1303 1228
f 1302 1303 1227
f 1228 1304 1229
f 1303 1304 1228
f 1225 1229 1300
f 1300 1229 1304
f 1305 1234 1235
f 1236 1306 1235
f 1235 1306 1305
f 1237 1306 1236
f 1307 1240 1241
f 1234 1305 1241
f 1305 1307 1241
f 1305 1308 1307
f 1309 1305 1306
f 1308 1305 1309
f 1243 1309 1237
f 1237 1309 1306
f 1310 1244 1245
f 1311 1310 1245
f 1311 1245 1240
f 1312 1311 1240
f 1307 1312 1240
f 1312 1307 1308
f 1312 1308 1313
f 1315 1314 1313
f 1308 1315 1313
f 1309 1315 1308
f 1247 1315 1243
f 1243 1315 1309
f 1317 1316 1249
f 1249 1316 1248
f 1249 1244 1310
f 1318 1249 1310
f 1317 1249 1318
f 1318 1310 1311
f 1314 1315 1319
f 1314 1319 1320
f 1250 1319 1247
f 1247 1319 1315
f 1321 1251 1252
f 1322 1321 1252
f 1248 1322 1252
f 1316 1322 1248
f 1320 1319 1323
f 1320 1323 1324
f 1253 1323 1250
f 1250 1323 1319
f 1326 1325 1321
f 1325 1251 1321
f 1325 1254 1251
f 1326 1321 1322
f 1329 1328 1327
f 1327 1328 1324
f 1327 1324 1323
f 1256 1327 1323
f 1255 1256 1323
f 1255 1323 1253
f 1331 1330 1258
f 1258 1330 1257
f 1258 1254 1325
f 1258 1325 1331
f 1329 1327 1332
f 1329 1332 1333
f 1259 1332 1256
f 1256 1332 1327
f 1330 1260 1257
f 1334 1260 1330
f 1333 1332 1261
f 1262 1333 1261
f 1335 1333 1262
f 1261 1332 1259
f 1337 1336 1265
f 1265 1336 1264
f 1265 1260 1334
f 1265 1334 1337
f 1339 1338 1266
f 1339 1266 1267
f 1262 1266 1335
f 1335 1266 1338
f 1336 1268 1264
f 1340 1268 1336
f 1269 1339 1267
f 1269 1341 1339
f 1340 1270 1268
f 1342 1270 1340
f 1344 1343 1271
f 1344 1271 1272
f 1269 1271 1341
f 1341 1271 1343
f 1342 1273 1270
f 1345 1273 1342
f 1274 1344 1272
f 1274 1346 1344
f 1345 1276 1273
f 1347 1276 1345
f 1278 1346 1274
f 1278 1348 1346
f 1347 1280 1276
f 1349 1280 1347
f 1282 1348 1278
f 1282 1350 1348
f 1349 1284 1280
f 1351 1284 1349
f 1286 1350 1282
f 1286 1352 1350
f 1351 1287 1284
f 1353 1287 1351
f 1288 1352 1286
f 1288 1354 1352
f 1353 1289 1287
f 1355 1289 1353
f 1290 1354 1288
f 1290 1356 1354
f 1355 1291 1289
f 1357 1291 1355
f 1292 1356 1290
f 1292 1358 1356
f 1357 1293 1291
f 1359 1293 1357
f 1294 1358 1292
f 1294 1360 1358
f 1359 1295 1293
f 1361 1295 1359
f 1296 1360 1294
f 1296 1362 1360
f 1361 1297 1295
f 1363 1297 1361
f 1298 1362 1296
f 1298 1364 1362
f 1366 1299 1365
f 1299 1363 1365
f 1299 1297 1363
f 1367 1366 1365
f 1370 1369 1368
f 1369 1364 1368
f 1364 1300 1368
f 1364 1298 1300
f 1366 1301 1299
f 1302 1301 1366
f 1371 1302 1366
f 1367 1371 1366
f 1372 1302 1371
f 1373 1303 1302
f 1373 1302 1372
f 1374 1370 1368
f 1303 1374 1368
f 1304 1303 1368
f 1374 1303 1373
f 1304 1368 1300
f 1371 1375 1372
f 1372 1375 1373
f 1373 1375 1376
f 1373 1376 1374
f 1377 1311 1312
f 1313 1378 1312
f 1312 1378 1377
f 1314 1378 1313
f 1379 1316 1317
f 1318 1380 1317
f 1317 1380 1379
f 1311 1377 1318
f 1377 1380 1318
f 1377 1381 1380
f 1382 1377 1378
f 1381 1377 1382
f 1320 1382 1314
f 1314 1382 1378
f 1383 1322 1379
f 1379 1322 1316
f 1380 1385 1384
f 1383 1380 1384
f 1379 1380 1383
f 1387 1386 1385
f 1380 1387 1385
f 1381 1387 1380
f 1388 1381 1382
f 1387 1381 1388
f 1324 1388 1320
f 1320 1388 1382
f 1390 1389 1326
f 1326 1389 1325
f 1326 1322 1383
f 1391 1326 1383
f 1390 1326 1391
f 1391 1383 1384
f 1386 1387 1392
f 1386 1392 1393
f 1329 1392 1328
f 1392 1388 1328
f 1392 1387 1388
f 1328 1388 1324
f 1394 1330 1331
f 1395 1394 1331
f 1325 1395 1331
f 1389 1395 1325
f 1393 1392 1396
f 1393 1396 1397
f 1333 1396 1329
f 1329 1396 1392
f 1399 1398 1394
f 1398 1330 1394
f 1398 1334 1330
f 1399 1394 1395
f 1397 1396 1400
f 1397 1400 1401
f 1335 1400 1333
f 1333 1400 1396
f 1402 1336 1337
f 1403 1402 1337
f 1334 1403 1337
f 1398 1403 1334
f 1401 1400 1338
f 1339 1401 1338
f 1404 1401 1339
f 1338 1400 1335
f 1406 1405 1402
f 1405 1336 1402
f 1405 1340 1336
f 1406 1402 1403
f 1409 1408 1407
f 1408 1404 1407
f 1404 1341 1407
f 1404 1339 1341
f 1405 1342 1340
f 1410 1342 1405
f 1409 1407 1343
f 1344 1409 1343
f 1411 1409 1344
f 1343 1407 1341
f 1410 1345 1342
f 1412 1345 1410
f 1346 1411 1344
f 1346 1413 1411
f 1412 1347 1345
f 1414 1347 1412
f 1348 1413 1346
f 1348 1415 1413
f 1414 1349 1347
f 1416 1349 1414
f 1350 1415 1348
f 1350 1417 1415
f 1416 1351 1349
f 1418 1351 1416
f 1352 1417 1350
f 1352 1419 1417
f 1418 1353 1351
f 1420 1353 1418
f 1354 1419 1352
f 1354 1421 1419
f 1420 1355 1353
f 1422 1355 1420
f 1356 1421 1354
f 1356 1423 1421
f 1422 1357 1355
f 1424 1357 1422
f 1358 1423 1356
f 1358 1425 1423
f 1424 1359 1357
f 1426 1359 1424
f 1360 1425 1358
f 1360 1427 1425
f 1429 1361 1428
f 1361 1426 1428
f 1361 1359 1426
f 1430 1429 1428
f 1433 1432 1431
f 1432 1427 1431
f 1427 1362 1431
f 1427 1360 1362
f 1434 1363 1429
f 1429 1363 1361
f 1429 1430 1435
f 1429 1435 1434
f 1433 1431 1436
f 1433 1436 1437
f 1364 1436 1362
f 1362 1436 1431
f 1434 1365 1363
f 1439 1438 1367
f 1439 1367 1365
f 1435 1439 1365
f 1434 1435 1365
f 1441 1440 1438
f 1441 1438 1439
f 1440 1441 1437
f 1440 1437 1436
f 1370 1440 1436
f 1369 1370 1436
f 1369 1436 1364
f 1442 1371 1438
f 1438 1371 1367
f 1443 1438 1440
f 1442 1438 1443
f 1374 1443 1370
f 1370 1443 1440
f 1442 1375 1371
f 1375 1442 1376
f 1376 1442 1443
f 1376 1443 1374
f 1444 1384 1385
f 1386 1444 1385
f 1445 1389 1390
f 1391 1446 1390
f 1390 1446 1445
f 1384 1444 1391
f 1444 1446 1391
f 1444 1447 1446
f 1393 1447 1386
f 1386 1447 1444
f 1448 1395 1445
f 1445 1395 1389
f 1449 1445 1446
f 1448 1445 1449
f 1450 1446 1447
f 1449 1446 1450
f 1397 1450 1393
f 1393 1450 1447
f 1451 1398 1399
f 1452 1451 1399
f 1452 1399 1395
f 1453 1452 1395
f 1448 1453 1395
f 1455 1454 1453
f 1448 1455 1453
f 1449 1455 1448
f 1456 1449 1450
f 1455 1449 1456
f 1401 1456 1397
f 1397 1456 1450
f 1458 1457 1451
f 1457 1398 1451
f 1457 1403 1398
f 1458 1451 1452
f 1459 1454 1455
f 1461 1460 1459
f 1455 1461 1459
f 1456 1461 1455
f 1404 1461 1401
f 1401 1461 1456
f 1462 1405 1406
f 1463 1462 1406
f 1403 1463 1406
f 1457 1463 1403
f 1460 1461 1408
f 1409 1460 1408
f 1464 1460 1409
f 1408 1461 1404
f 1466 1465 1462
f 1465 1405 1462
f 1465 1410 1405
f 1466 1462 1463
f 1411 1464 1409
f 1411 1467 1464
f 1465 1412 1410
f 1468 1412 1465
f 1413 1467 1411
f 1413 1469 1467
f 1468 1414 1412
f 1470 1414 1468
f 1415 1469 1413
f 1415 1471 1469
f 1470 1416 1414
f 1472 1416 1470
f 1417 1471 1415
f 1417 1473 1471
f 1472 1418 1416
f 1474 1418 1472
f 1419 1473 1417
f 1419 1475 1473
f 1474 1420 1418
f 1476 1420 1474
f 1421 1475 1419
f 1421 1477 1475
f 1479 1422 1478
f 1422 1476 1478
f 1422 1420 1476
f 1480 1479 1478
f 1483 1482 1481
f 1482 1477 1481
f 1477 1423 1481
f 1477 1421 1423
f 1484 1424 1479
f 1479 1424 1422
f 1479 1480 1485
f 1479 1485 1484
f 1483 1481 1486
f 1483 1486 1487
f 1425 1486 1423
f 1423 1486 1481
f 1488 1426 1484
f 1484 1426 1424
f 1484 1485 1489
f 1484 1489 1488
f 1487 1486 1490
f 1487 1490 1491
f 1427 1490 1425
f 1425 1490 1486
f 1488 1428 1426
f 1493 1492 1430
f 1493 1430 1428
f 1489 1493 1428
f 1488 1489 1428
f 1495 1494 1492
f 1495 1492 1493
f 1494 1495 1491
f 1494 1491 1490
f 1433 1494 1490
f 1432 1433 1490
f 1432 1490 1427
f 1496 1435 1492
f 1492 1435 1430
f 1497 1492 1494
f 1496 1492 1497
f 1437 1497 1433
f 1433 1497 1494
f 1496 1439 1435
f 1439 1496 1441
f 1441 1496 1497
f 1441 1497 1437
f 1498 1452 1453
f 1454 1498 1453
f 1499 1457 1458
f 1452 1498 1458
f 1498 1499 1458
f 1498 1500 1499
f 1459 1501 1454
f 1501 1498 1454
f 1501 1500 1498
f 1460 1501 1459
f 1502 1463 1499
f 1499 1463 1457
f 1503 1499 1500
f 1502 1499 1503
f 1504 1500 1501
f 1503 1500 1504
f 1464 1504 1460
f 1460 1504 1501
f 1505 1465 1466
f 1506 1505 1466
f 1506 1466 1463
f 1507 1506 1463
f 1502 1507 1463
f 1507 1502 1503
f 1507 1503 1508
f 1510 1509 1508
f 1503 1510 1508
f 1504 1510 1503
f 1467 1510 1464
f 1464 1510 1504
f 1511 1468 1505
f 1505 1468 1465
f 1505 1506 1512
f 1505 1512 1511
f 1509 1510 1513
f 1509 1513 1514
f 1469 1513 1467
f 1467 1513 1510
f 1515 1470 1511
f 1511 1470 1468
f 1511 1512 1516
f 1511 1516 1515
f 1514 1513 1517
f 1514 1517 1518
f 1471 1517 1469
f 1469 1517 1513
f 1519 1472 1515
f 1515 1472 1470
f 1515 1516 1520
f 1515 1520 1519
f 1518 1517 1521
f 1518 1521 1522
f 1473 1521 1471
f 1471 1521 1517
f 1523 1474 1519
f 1519 1474 1472
f 1519 1520 1524
f 1519 1524 1523
f 1522 1521 1525
f 1522 1525 1526
f 1475 1525 1473
f 1473 1525 1521
f 1527 1476 1523
f 1523 1476 1474
f 1523 1524 1528
f 1523 1528 1527
f 1526 1525 1529
f 1526 1529 1530
f 1477 1529 1475
f 1475 1529 1525
f 1527 1478 1476
f 1532 1531 1480
f 1532 1480 1478
f 1528 1532 1478
f 1527 1528 1478
f 1534 1533 1531
f 1534 1531 1532
f 1533 1534 1530
f 1533 1530 1529
f 1483 1533 1529
f 1482 1483 1529
f 1482 1529 1477
f 1535 1485 1531
f 1531 1485 1480
f 1536 1531 1533
f 1535 1531 1536
f 1487 1536 1483
f 1483 1536 1533
f 1537 1489 1535
f 1535 1489 1485
f 1538 1535 1536
f 1537 1535 1538
f 1491 1538 1487
f 1487 1538 1536
f 1537 1493 1489
f 1493 1537 1495
f 1495 1537 1538
f 1495 1538 1491
f 1539 1506 1507
f 1508 1540 1507
f 1507 1540 1539
f 1509 1540 1508
f 1541 1512 1539
f 1539 1512 1506
f 1542 1539 1540
f 1541 1539 1542
f 1514 1542 1509
f 1509 1542 1540
f 1543 1516 1541
f 1541 1516 1512
f 1544 1541 1542
f 1543 1541 1544
f 1518 1544 1514
f 1514 1544 1542
f 1545 1520 1543
f 1543 1520 1516
f 1546 1543 1544
f 1545 1543 1546
f 1522 1546 1518
f 1518 1546 1544
f 1547 1524 1545
f 1545 1524 1520
f 1548 1545 1546
f 1547 1545 1548
f 1526 1548 1522
f 1522 1548 1546
f 1549 1528 1547
f 1547 1528 1524
f 1550 1547 1548
f 1549 1547 1550
f 1530 1550 1526
f 1526 1550 1548
f 1549 1532 1528
f 1532 1549 1534
f 1534 1549 1550
f 1534 1550 1530
# 3096 faces, 0 coords texture

# End of File