####
#
# OBJ File Generated by Meshlab
#
####
# Object domain101.obj
#
# Vertices: 461
# Faces: 934
#
####
v 107.532761 249.631424 133.608276
v 113.683952 255.789795 133.528641
v 115.668015 251.705353 140.846481
v 117.796585 245.696228 134.314743
v 113.746262 266.043060 133.791031
v 111.655441 253.736801 140.290665
v 113.730629 272.175385 133.819992
v 109.868980 271.390289 137.849121
v 106.764008 253.741974 138.391113
v 118.677940 273.353699 134.081329
v 115.709892 263.993042 140.681152
v 111.632980 246.575378 136.873367
v 111.073814 273.797424 134.913544
v 110.674576 270.003967 138.730652
v 111.398888 277.925690 138.075027
v 122.912170 272.209442 138.179047
v 109.586357 251.686890 133.606201
v 108.467117 257.668854 138.794479
v 109.553947 253.641769 139.840637
v 122.091026 266.048828 136.910797
v 115.673515 253.745636 140.825150
v 121.808716 270.146606 141.162292
v 121.813362 268.095337 141.167358
v 118.847664 277.899750 141.055161
v 122.163300 272.198425 136.845596
v 119.799667 253.739655 134.998672
v 113.686974 259.891907 140.438629
v 105.691116 251.040985 134.089661
v 111.088257 262.079010 134.954910
v 122.427773 264.013275 140.811386
v 110.194901 263.907104 138.871262
v 117.744843 259.891266 133.729645
v 119.839783 251.704086 141.288391
v 122.742348 277.951721 137.812637
v 117.876930 276.197418 140.897064
v 119.777611 248.695450 139.671066
v 111.648438 255.782028 133.673935
v 113.683342 245.757645 135.130234
v 115.733749 257.840027 133.536316
v 115.734329 259.890717 133.550247
v 115.733040 246.594681 136.861542
v 107.569374 257.789124 137.458908
v 105.560059 251.821976 137.696732
v 116.838219 249.911011 140.860229
v 111.652458 251.698090 140.267395
v 122.819565 272.355713 140.673981
v 110.621758 261.532471 135.376984
v 122.851532 263.394989 139.427155
v 113.722633 249.768951 140.078873
v 115.699211 259.886078 140.741882
v 108.713585 259.514343 137.731720
v 121.722908 278.535767 137.717682
v 119.746788 247.948044 137.594635
v 113.686028 257.841583 133.587021
v 105.603378 251.902832 134.700623
v 107.876328 249.747009 139.294846
v 104.342201 249.566422 135.100021
v 113.683754 253.738327 133.501694
v 115.726044 277.738586 135.190155
v 109.580994 249.637131 133.528549
v 122.675278 265.978485 137.990173
v 122.619804 253.743347 140.844345
v 111.920670 270.270905 134.976562
v 112.562592 263.716888 134.229141
v 115.734680 261.941986 133.551071
v 115.780724 278.467560 139.076614
v 105.163536 252.293793 135.899658
v 118.668381 272.842255 134.025360
v 107.538261 245.772369 135.122665
v 121.727692 257.794617 137.463303
v 117.749237 261.939606 133.733856
v 115.739250 273.504791 133.859558
v 108.990944 263.794373 137.763763
v 121.807594 266.044891 141.159256
v 120.796097 255.813477 136.138092
v 112.963593 268.119141 134.150757
v 118.543396 266.041901 134.181381
v 110.447937 267.836060 138.888565
v 113.687889 251.690201 140.485962
v 106.516411 251.022995 138.760452
v 115.731544 272.176971 133.690536
v 118.619141 246.536346 135.117905
v 119.831650 276.002930 141.246567
v 119.758316 251.688400 135.030121
v 121.056870 259.898529 136.098892
v 118.288101 245.962326 134.248260
v 119.842270 257.839691 141.372391
v 110.320557 264.338196 136.525665
v 119.806358 278.814545 137.554214
v 118.636330 253.737854 134.088974
v 113.854973 278.496674 138.921875
v 117.801796 274.445068 134.190948
v 110.348831 273.160034 137.736481
v 109.581963 246.053970 134.068115
v 117.784760 278.873596 137.513687
v 117.797768 247.499771 138.075485
v 117.230400 266.043976 140.971893
v 115.738754 247.416473 138.121002
v 121.298592 272.198578 135.943756
v 104.966049 251.379684 136.774414
v 123.778702 277.555298 140.573959
v 109.072372 267.378662 137.939774
v 117.742416 257.839844 133.738724
v 121.279427 268.095673 136.006729
v 115.750755 245.756714 134.388031
v 121.592636 255.787979 137.518265
v 118.671532 259.893890 134.048843
v 120.941780 257.955078 136.124725
v 122.763588 270.137390 137.938141
v 118.183762 245.727905 134.240433
v 113.691559 275.984528 134.545853
v 111.648445 278.357880 135.944244
v 109.271637 260.411926 136.651611
v 110.338882 265.995880 138.898621
v 110.556557 270.144867 136.815872
v 111.632950 249.636185 133.509796
v 122.657700 278.335571 138.000229
v 117.707970 272.364288 141.016769
v 121.826889 272.198822 141.180374
v 103.911201 245.731659 134.260162
v 106.398346 255.581680 137.127991
v 121.831886 253.739166 141.221832
v 115.706963 261.943115 140.704544
v 121.737587 250.276596 140.773132
v 121.838753 257.840363 141.232666
v 117.739296 255.789062 133.747665
v 109.019173 266.419067 137.902298
v 117.742729 278.419342 135.946426
v 107.543465 251.667892 133.848724
v 121.264946 266.044800 136.020721
v 113.684906 247.443298 138.096603
v 110.177055 272.819427 137.776291
v 122.416145 255.747665 139.605774
v 113.683304 278.428436 135.915833
v 106.290672 248.688614 138.494476
v 119.877922 257.835907 134.929962
v 110.653862 277.874176 135.928513
v 118.657791 257.840973 134.067139
v 117.742889 272.193146 133.832245
v 103.637695 245.639236 134.267746
v 112.567665 278.496735 138.526627
v 104.671410 249.537491 136.800888
v 113.685066 257.840332 140.486115
v 117.741432 249.636017 133.741501
v 111.717308 263.947632 139.729004
v 121.412254 253.751373 137.410614
v 110.359512 273.158722 137.733551
v 109.722847 249.793274 139.730911
v 104.783371 251.239548 135.399841
v 118.210251 270.134094 141.141830
v 105.503189 246.054367 134.137909
v 120.984367 249.235657 139.494766
v 118.585678 264.588135 134.128952
v 105.465378 245.819412 134.385040
v 107.743782 253.770554 139.065750
v 118.212746 266.044037 141.154419
v 111.669319 255.786423 140.242737
v 106.346535 255.357697 136.172623
v 107.600815 251.689514 139.258957
v 122.526901 257.936859 139.427811
v 109.257462 269.133148 137.961365
v 107.532753 246.655045 136.821442
v 113.710159 263.991821 140.308365
v 111.633018 247.886734 133.608902
v 117.740234 251.686600 133.744247
v 111.850677 268.054688 139.586548
v 118.010307 259.768433 141.160797
v 121.071892 277.756744 136.331238
v 107.554100 247.608200 137.966690
v 122.801506 264.123260 140.122772
v 117.603523 274.172577 140.951523
v 122.586403 250.434723 140.968567
v 115.733932 255.789032 133.530930
v 108.979645 264.635620 137.814545
v 115.734375 274.492615 134.062973
v 108.408936 253.499924 133.979675
v 111.638840 248.728119 139.360306
v 117.721626 247.893417 133.816223
v 109.622467 253.709534 133.717896
v 119.848297 268.094849 141.338287
v 113.683998 251.687012 133.500000
v 122.708694 268.104980 137.949921
v 118.627769 271.603638 134.095673
v 111.840912 270.253479 139.465897
v 107.947746 257.481689 136.010376
v 122.571968 253.736282 140.955704
v 122.308495 253.624817 139.610703
v 119.848312 261.941925 141.348602
v 119.936363 261.944885 134.867615
v 111.617493 264.031067 135.026443
v 118.212677 268.095215 141.151901
v 105.555191 245.884079 135.033493
v 118.601006 249.637451 134.128342
v 122.613289 251.701294 140.887238
v 110.920097 276.193207 135.807693
v 112.131813 277.847076 138.781174
v 117.740089 245.997116 134.060181
v 109.825027 261.873718 138.814789
v 111.004555 273.687378 134.958115
v 117.739342 253.738098 133.747452
v 118.635216 263.252777 134.037262
v 109.842873 257.837372 139.568817
v 120.727066 253.709915 136.179916
v 107.530418 245.763763 134.391006
v 121.860870 278.627167 139.424072
v 112.745689 270.311584 134.211060
v 111.632912 245.756241 135.130768
v 121.963089 259.970673 137.587494
v 117.828835 249.200607 140.577209
v 111.925728 259.850494 134.137726
v 118.523605 268.096436 134.212631
v 119.428749 278.354950 136.203735
v 122.562164 255.807571 140.927094
v 108.922356 263.555634 137.772385
v 109.746162 259.883606 139.163940
v 108.973900 263.019318 137.714905
v 122.580208 266.186310 140.717377
v 122.583534 261.914886 140.922684
v 117.807915 249.810669 140.936737
v 121.846031 275.969177 141.146393
v 121.836700 261.940430 141.230042
v 121.842339 251.714828 141.166595
v 107.198288 255.713226 138.251694
v 116.784378 251.046799 141.042435
v 111.633659 253.738388 133.566605
v 122.827171 259.774292 140.717621
v 122.784927 257.964172 140.774048
v 113.681961 255.789215 140.520538
v 111.632721 251.687485 133.513092
v 122.107689 264.026215 137.235580
v 118.554558 275.307953 141.110046
v 115.767120 275.988190 140.340393
v 119.314163 247.993805 135.255142
v 106.719521 256.675476 136.479340
v 113.698158 277.734070 135.203491
v 123.009315 274.262360 138.157883
v 117.799438 273.554199 133.909973
v 109.581718 246.585205 136.867157
v 119.850838 278.699249 139.370239
v 122.956718 268.149170 139.995926
v 105.539581 247.898087 133.834610
v 104.659637 249.436646 134.208817
v 122.099510 275.909943 136.717651
v 108.077301 255.761810 139.017532
v 119.147224 247.163147 136.668213
v 110.533539 266.106506 136.610229
v 123.023155 270.261078 139.776733
v 121.953125 261.957275 137.280487
v 104.465622 247.734497 134.364334
v 106.062599 253.621521 137.363098
v 115.733833 253.738052 133.531021
v 117.676537 268.095367 133.908325
v 119.918221 259.892639 134.885483
v 117.858467 255.788818 141.190170
v 113.805550 277.792206 139.405228
v 106.817520 257.003967 136.953613
v 104.175758 247.806732 135.095917
v 122.650444 255.825562 140.783524
v 104.527122 247.816422 136.575394
v 119.841484 253.738480 141.379333
v 112.916801 266.009033 134.149200
v 119.865578 272.197723 134.844788
v 113.653404 275.955658 139.802399
v 118.694237 261.940979 134.005447
v 110.172020 259.735229 135.205612
v 113.684006 247.886703 133.608902
v 113.773254 270.123566 140.134521
v 118.642296 255.789764 134.080765
v 119.855957 274.244629 141.301544
v 115.733887 263.991730 133.586670
v 113.702957 259.889587 133.664688
v 111.961044 266.080383 134.968704
v 113.749252 268.096527 133.789246
v 120.320129 249.087372 136.657120
v 123.343262 274.341125 139.990387
v 117.688072 270.151428 133.874084
v 121.798653 278.188751 140.278687
v 121.057381 249.705475 137.834152
v 118.209511 261.935760 141.161896
v 115.678764 257.841553 140.784424
v 109.582321 245.756775 135.130676
v 118.917458 277.890045 141.086929
v 115.733803 249.636292 133.535675
v 113.691315 248.683136 139.420639
v 116.870483 252.281662 141.079666
v 119.858955 249.811798 140.904861
v 121.288055 270.149536 135.982132
v 115.726799 272.197144 140.556274
v 105.550514 246.892181 136.588867
v 123.117683 276.081787 140.699142
v 122.761765 264.650970 138.567062
v 117.764885 275.974487 134.654099
v 122.199013 274.253448 136.825775
v 103.526268 245.478271 134.108749
v 119.875900 270.150238 134.928558
v 113.683998 249.636002 133.509796
v 122.743439 261.923401 140.690857
v 111.722725 278.629791 137.434418
v 112.193604 261.821808 134.249527
v 115.737488 278.849030 137.500473
v 107.399574 253.705093 134.466492
v 117.821251 278.633453 139.279556
v 113.683990 246.575943 136.873032
v 115.733612 275.994385 134.499176
v 117.230103 263.993103 140.973480
v 108.886841 259.086487 138.685486
v 111.653435 261.913116 139.817291
v 118.573822 277.937897 140.930618
v 115.730293 266.042297 133.623413
v 117.801445 251.706406 141.241302
v 122.619164 270.175323 140.672546
v 109.005005 265.428772 137.862152
v 110.460663 257.028687 134.091827
v 122.996040 274.297424 140.677399
v 119.707733 274.246521 134.872910
v 119.857613 264.044983 134.819748
v 115.781441 248.613220 139.580627
v 106.586922 252.274765 138.587463
v 111.944000 272.181519 139.153656
v 113.622986 274.486542 134.152039
v 113.719536 266.043060 140.267776
v 111.767502 266.024323 139.659058
v 109.581963 247.886703 133.608902
v 117.680191 266.034668 133.889694
v 110.588966 268.121979 136.702103
v 111.956367 274.253723 139.079254
v 115.758965 249.709244 140.436996
v 117.284134 270.272247 140.958450
v 111.086548 275.982117 138.203659
v 109.349686 269.797058 137.945953
v 105.820450 253.515228 135.760895
v 107.533714 247.888763 133.639267
v 119.841499 255.789062 141.379929
v 110.699829 277.828491 137.057465
v 121.798752 263.990143 141.160812
v 109.635147 248.787460 139.263641
v 115.717506 270.147705 140.627441
v 109.149803 268.261414 137.948792
v 111.941681 275.983093 139.007736
v 119.848160 263.992737 141.334229
v 119.831184 255.793427 134.974228
v 117.229317 268.095245 140.970200
v 115.869621 277.752197 139.796738
v 113.716309 261.941406 133.722702
v 118.563171 270.151764 134.162613
v 120.664841 251.657867 136.185135
v 119.695213 249.257721 140.542145
v 117.861450 257.835602 141.179947
v 122.578743 251.686829 140.969391
v 113.738075 270.145782 133.782928
v 115.728539 268.095154 133.638031
v 113.735344 268.092987 140.222046
v 110.555862 278.322693 136.038330
v 111.633347 247.451828 138.088516
v 122.608582 250.458496 140.977280
v 119.789467 272.253510 141.317764
v 111.111877 273.714569 134.905746
v 118.634300 251.685486 134.091644
v 104.950836 250.396088 134.236847
v 111.628906 259.963776 139.996017
v 123.044731 278.305573 139.357712
v 109.877197 255.511475 133.906998
v 116.891663 255.789047 141.024872
v 122.633156 268.103119 140.707504
v 118.212585 263.993103 141.155365
v 113.700844 278.813690 137.497757
v 110.679222 275.838989 137.365280
v 115.733978 251.687149 133.530838
v 107.532578 246.054733 134.071060
v 113.733231 263.991608 133.766144
v 117.819099 264.009857 133.756271
v 107.778824 248.694839 138.929474
v 105.498711 249.701767 137.984955
v 119.845421 259.890320 141.362503
v 119.848183 266.044037 141.337204
v 120.465965 250.181976 136.239349
v 110.316116 262.921082 136.213699
v 115.713470 268.095245 140.653549
v 117.223808 261.951843 140.987656
v 113.684265 246.053909 134.067780
v 123.547859 277.808868 140.128189
v 123.697525 277.375671 140.593903
v 122.887344 276.054230 137.816879
v 109.581970 245.759842 134.390533
v 109.176056 256.045471 134.323166
v 122.733360 259.691345 140.893372
v 115.728302 270.144409 133.640442
v 121.198311 264.001709 136.034821
v 122.149818 251.690750 139.662918
v 115.732574 278.439850 135.910645
v 111.942146 268.124207 135.084396
v 115.711876 266.044159 140.666611
v 121.839676 259.890839 141.232742
v 110.924332 273.406403 135.027298
v 113.619316 274.230591 139.898148
v 109.585747 247.487869 138.057632
v 122.737473 261.947601 139.504227
v 121.587357 249.858444 140.150833
v 117.114677 260.098480 141.007065
v 111.641983 257.854279 133.893021
v 122.886963 266.121613 140.106583
v 121.256973 275.990509 136.036392
v 119.868256 268.090210 134.972382
v 109.541153 257.938660 134.835648
v 111.693932 257.837585 140.162399
v 111.652336 249.800735 139.939682
v 122.154541 270.146606 136.858521
v 123.168587 272.376678 139.994766
v 106.348137 249.462158 138.754349
v 118.518333 271.748993 141.158997
v 116.899178 257.846283 141.004974
v 121.291542 251.691818 137.520218
v 111.798042 277.724304 135.405350
v 113.700394 273.505585 133.928192
v 121.146759 261.952362 136.044510
v 123.477448 276.233582 140.045837
v 115.738396 246.050720 134.062057
v 105.529465 249.606949 133.820175
v 104.497894 247.187241 136.104919
v 119.850258 270.145355 141.321411
v 119.744637 275.969849 135.245346
v 115.675552 255.789825 140.801712
v 122.125465 268.098297 136.879776
v 117.684471 245.851990 135.015106
v 117.857605 253.734543 141.206573
v 120.465782 248.657272 137.861237
v 111.632919 246.053879 134.068283
v 113.698502 261.941498 140.360214
v 110.717194 278.444855 136.651337
v 121.292801 274.249847 135.954163
v 119.840752 278.246765 140.461960
v 111.632973 245.759659 134.390488
v 105.576660 248.082672 137.676407
v 121.831703 255.789368 141.226578
v 121.840210 274.248840 141.220520
v 121.862732 277.486267 140.798584
v 115.732788 247.888443 133.630432
v 119.836983 249.571503 135.154816
v 109.685486 255.741913 139.739059
v 122.664413 259.885590 139.503799
v 119.602654 277.773621 135.724762
v 104.028168 245.991226 134.483704
v 109.493050 251.641434 139.877228
v 121.807190 277.925659 136.894989
v 122.717888 258.003845 140.913544
v 119.876740 266.056244 134.957764
v 113.684486 245.759583 134.390488
v 107.629883 255.700989 135.114166
v 111.801987 275.978546 135.045273
v 116.886162 253.738663 141.051331
v 117.689102 277.721375 135.307953
v 117.765488 246.720993 136.766342
v 118.530853 274.285736 141.144638
v 117.791077 248.471771 139.705795
v 115.728447 245.764420 135.121567
v 115.734344 274.248047 140.511276
v 112.773056 273.365326 134.169128
v 112.488655 272.236389 134.269852
v 113.584877 272.170959 139.982513
v 113.680695 253.737793 140.546600
v 118.479530 247.883728 134.204071
# 461 vertices, 0 vertices normals

f 96 36 53
f 98 454 96
f 176 17 179
f 456 232 171
f 149 57 242
f 229 179 17
f 184 319 459
f 422 363 450
f 455 424 4
f 29 299 190
f 90 84 26
f 3 79 460
f 230 61 20
f 259 289 419
f 155 19 159
f 438 274 278
f 285 450 425
f 342 150 191
f 116 296 229
f 11 163 321
f 112 134 366
f 422 280 363
f 59 451 128
f 325 391 115
f 72 237 92
f 183 262 68
f 357 63 458
f 185 448 404
f 87 374 125
f 384 69 281
f 13 394 357
f 309 324 351
f 453 231 269
f 187 146 412
f 51 306 18
f 35 83 231
f 357 458 199
f 257 142 259
f 338 102 161
f 390 128 95
f 363 348 254
f 232 343 35
f 120 442 294
f 213 445 227
f 253 85 189
f 287 104 407
f 461 233 193
f 444 117 52
f 76 5 273
f 219 286 347
f 264 253 189
f 158 121 331
f 413 235 134
f 65 370 344
f 317 327 209
f 203 106 75
f 265 210 47
f 2 400 37
f 123 163 11
f 334 429 298
f 95 239 302
f 112 366 298
f 248 48 230
f 406 45 49
f 313 404 362
f 231 83 269
f 385 362 404
f 118 356 410
f 129 176 301
f 127 338 102
f 135 373 409
f 84 376 346
f 110 82 86
f 29 190 377
f 207 38 447
f 114 322 145
f 175 92 304
f 258 213 227
f 371 201 316
f 172 398 124
f 158 331 448
f 251 173 2
f 450 254 425
f 282 302 431
f 246 272 325
f 176 362 385
f 98 452 41
f 214 47 29
f 38 455 105
f 227 445 226
f 329 15 339
f 455 41 424
f 277 381 382
f 452 245 82
f 40 32 65
f 1 418 332
f 254 348 333
f 225 58 37
f 379 365 279
f 5 309 273
f 4 86 197
f 257 249 57
f 251 165 200
f 147 13 367
f 177 148 406
f 325 272 391
f 133 258 227
f 248 230 415
f 260 122 222
f 142 373 433
f 171 231 453
f 372 409 56
f 78 14 184
f 403 130 104
f 432 447 380
f 449 111 413
f 313 37 400
f 169 372 336
f 186 122 434
f 59 292 451
f 414 7 81
f 279 188 374
f 4 110 86
f 228 405 143
f 341 75 136
f 50 428 123
f 204 192 69
f 123 11 379
f 302 239 431
f 387 276 81
f 350 351 387
f 329 339 326
f 322 321 163
f 136 108 253
f 355 349 194
f 402 168 441
f 314 290 416
f 349 222 122
f 50 27 428
f 319 326 459
f 203 146 106
f 255 91 343
f 193 438 358
f 338 161 102
f 109 247 16
f 270 371 309
f 67 55 331
f 194 349 62
f 414 81 72
f 333 87 434
f 147 367 93
f 327 44 209
f 207 238 12
f 293 383 243
f 230 388 415
f 167 374 87
f 149 242 359
f 392 378 97
f 65 270 370
f 309 371 324
f 33 222 124
f 97 342 191
f 105 197 417
f 407 109 16
f 8 132 147
f 23 22 364
f 411 399 167
f 144 461 193
f 98 317 454
f 178 461 144
f 386 218 297
f 286 124 398
f 435 269 83
f 103 138 32
f 153 446 77
f 406 49 284
f 185 51 42
f 230 20 388
f 168 444 52
f 82 53 233
f 42 18 244
f 160 226 440
f 129 17 176
f 53 426 274
f 225 37 362
f 425 254 260
f 399 379 279
f 281 69 162
f 349 122 186
f 12 303 38
f 116 266 296
f 93 326 319
f 169 396 238
f 326 395 459
f 53 152 426
f 271 299 210
f 158 234 121
f 223 155 9
f 15 196 339
f 395 263 456
f 20 61 182
f 220 24 436
f 100 373 142
f 1 332 323
f 430 243 402
f 399 279 167
f 283 181 296
f 334 15 329
f 339 263 395
f 304 92 292
f 423 182 109
f 266 417 437
f 140 154 151
f 22 420 356
f 182 240 247
f 127 114 31
f 71 264 371
f 4 424 110
f 22 311 364
f 171 35 231
f 39 103 40
f 45 443 19
f 208 397 248
f 320 175 111
f 20 423 130
f 65 32 71
f 22 119 311
f 365 340 188
f 208 85 70
f 266 437 296
f 7 387 81
f 313 362 37
f 236 408 275
f 208 248 85
f 56 159 443
f 184 459 267
f 270 5 370
f 436 24 431
f 52 361 205
f 270 71 371
f 283 368 181
f 351 324 252
f 418 241 332
f 40 103 32
f 177 396 336
f 53 274 233
f 265 113 404
f 367 329 93
f 3 460 21
f 406 443 45
f 459 395 288
f 166 184 352
f 32 138 107
f 277 205 381
f 191 150 180
f 140 151 120
f 402 441 421
f 54 271 210
f 277 239 205
f 233 274 438
f 190 64 272
f 300 302 66
f 287 407 25
f 137 449 413
f 13 199 394
f 383 275 416
f 184 267 352
f 324 153 77
f 51 404 113
f 176 385 301
f 199 320 449
f 339 196 263
f 127 338 114
f 18 202 439
f 402 444 168
f 100 67 43
f 382 101 416
f 21 460 228
f 376 412 346
f 397 297 170
f 67 149 55
f 133 160 70
f 262 315 10
f 338 246 325
f 213 434 125
f 111 175 304
f 213 125 445
f 55 149 359
f 26 346 203
f 316 388 446
f 338 78 114
f 334 329 367
f 52 117 361
f 127 102 338
f 265 47 113
f 235 59 390
f 67 331 43
f 251 2 58
f 61 240 182
f 208 440 397
f 174 127 312
f 1 323 60
f 120 249 257
f 357 394 199
f 252 77 211
f 202 405 157
f 391 261 76
f 447 38 105
f 144 193 165
f 251 200 173
f 342 328 150
f 237 68 10
f 120 151 249
f 191 180 375
f 310 33 286
f 333 434 122
f 88 272 246
f 279 365 188
f 283 296 437
f 297 218 170
f 383 416 34
f 196 255 263
f 249 151 241
f 389 172 194
f 235 390 134
f 39 126 103
f 160 227 226
f 451 441 212
f 406 148 443
f 448 385 404
f 287 262 295
f 459 288 337
f 59 128 390
f 33 260 222
f 72 92 175
f 407 16 25
f 447 105 417
f 232 35 171
f 317 131 284
f 23 180 420
f 292 315 421
f 48 170 291
f 380 417 266
f 264 189 201
f 46 314 275
f 187 106 146
f 121 42 223
f 432 427 384
f 298 91 141
f 137 413 112
f 422 228 143
f 389 187 412
f 137 112 353
f 114 78 322
f 206 76 273
f 392 97 305
f 147 132 93
f 219 310 286
f 173 126 39
f 206 273 350
f 287 295 104
f 91 66 343
f 334 298 15
f 307 428 27
f 64 299 344
f 56 409 159
f 427 380 164
f 195 13 199
f 75 106 70
f 280 143 27
f 456 171 118
f 31 114 145
f 20 182 423
f 127 102 312
f 204 384 94
f 172 124 355
f 40 344 271
f 349 186 62
f 271 344 299
f 71 107 264
f 58 2 37
f 288 118 328
f 198 215 216
f 201 189 316
f 13 357 199
f 249 242 57
f 345 262 183
f 418 242 241
f 63 76 206
f 84 346 26
f 214 73 216
f 40 65 344
f 372 56 336
f 303 131 41
f 54 210 400
f 105 4 197
f 189 85 415
f 229 296 181
f 280 411 363
f 326 339 395
f 26 203 341
f 55 129 301
f 153 316 446
f 281 162 238
f 207 12 38
f 350 387 7
f 173 200 126
f 229 225 179
f 139 68 237
f 432 380 427
f 427 94 384
f 389 398 172
f 277 431 239
f 158 185 234
f 64 370 261
f 389 194 187
f 413 111 235
f 225 181 58
f 167 279 374
f 3 21 285
f 338 330 161
f 282 431 24
f 298 366 91
f 224 310 219
f 439 202 157
f 331 301 448
f 43 409 373
f 93 329 326
f 127 88 246
f 254 333 260
f 150 420 180
f 121 9 250
f 214 174 198
f 321 352 392
f 115 391 63
f 304 292 59
f 330 132 14
f 42 51 18
f 204 69 384
f 214 216 113
f 458 7 457
f 3 310 224
f 123 379 399
f 363 411 348
f 116 17 60
f 164 60 323
f 80 318 159
f 25 16 236
f 100 43 373
f 460 6 157
f 351 252 387
f 159 318 9
f 338 325 330
f 237 10 315
f 458 206 350
f 155 159 9
f 31 145 307
f 397 170 48
f 432 207 447
f 265 404 400
f 21 450 285
f 214 216 73
f 170 61 291
f 228 157 405
f 166 352 321
f 256 185 42
f 202 215 360
f 354 396 177
f 235 304 59
f 133 62 258
f 210 299 47
f 94 323 332
f 301 385 448
f 182 247 109
f 423 407 104
f 211 295 345
f 156 191 375
f 422 143 280
f 8 115 132
f 168 212 441
f 368 251 58
f 253 108 85
f 211 403 295
f 378 342 97
f 159 19 443
f 77 446 403
f 310 285 425
f 39 40 271
f 453 269 356
f 20 130 388
f 198 360 215
f 135 372 433
f 438 376 84
f 14 132 184
f 451 212 128
f 375 74 335
f 39 271 54
f 457 7 414
f 414 72 175
f 414 175 320
f 214 198 216
f 139 183 68
f 298 141 196
f 92 315 292
f 81 139 72
f 34 416 381
f 305 156 365
f 28 418 1
f 140 294 442
f 327 3 224
f 82 245 53
f 207 281 238
f 430 421 315
f 139 345 183
f 108 70 85
f 174 127 31
f 427 323 94
f 257 259 419
f 444 34 117
f 195 334 367
f 348 87 333
f 445 393 386
f 132 93 319
f 368 144 165
f 188 221 393
f 218 335 30
f 459 337 267
f 50 123 399
f 273 351 350
f 168 52 212
f 174 312 127
f 452 96 245
f 173 54 2
f 43 250 318
f 28 129 55
f 205 361 381
f 371 264 201
f 377 190 88
f 435 314 46
f 426 152 278
f 36 347 398
f 214 377 174
f 460 157 228
f 439 157 6
f 346 412 203
f 358 84 90
f 249 241 242
f 204 369 154
f 99 25 293
f 435 83 220
f 305 97 156
f 11 305 379
f 43 80 409
f 328 118 410
f 12 396 354
f 340 335 221
f 186 434 213
f 90 26 268
f 196 141 255
f 140 120 294
f 56 443 148
f 223 244 155
f 19 439 6
f 263 255 232
f 205 239 89
f 324 77 252
f 147 93 132
f 395 456 288
f 119 269 435
f 62 186 258
f 118 453 356
f 369 241 151
f 186 213 258
f 107 136 253
f 140 442 154
f 430 402 421
f 133 70 106
f 442 257 419
f 44 219 209
f 100 142 149
f 23 364 217
f 316 415 388
f 118 171 453
f 306 215 202
f 195 137 334
f 158 448 185
f 120 257 442
f 64 344 370
f 286 33 124
f 3 285 310
f 354 284 131
f 276 345 139
f 371 316 153
f 368 165 251
f 56 148 336
f 21 228 422
f 28 1 129
f 155 244 19
f 121 223 9
f 23 420 22
f 204 94 369
f 185 404 51
f 136 75 108
f 209 219 347
f 134 300 366
f 348 167 87
f 152 398 278
f 438 278 376
f 355 124 222
f 133 227 160
f 424 82 110
f 143 360 27
f 357 199 93
f 34 381 361
f 354 177 284
f 353 298 429
f 283 437 178
f 2 54 400
f 287 99 262
f 262 10 68
f 352 267 378
f 413 134 112
f 369 151 154
f 127 312 102
f 290 382 416
f 343 66 282
f 75 70 108
f 445 125 393
f 366 300 66
f 425 260 33
f 147 93 13
f 458 350 7
f 123 428 163
f 46 275 408
f 334 353 429
f 195 367 13
f 358 438 84
f 23 217 74
f 317 209 454
f 28 55 359
f 244 18 439
f 208 160 440
f 135 433 373
f 433 162 289
f 230 48 291
f 169 433 372
f 387 252 276
f 99 315 262
f 255 343 232
f 311 46 408
f 198 307 360
f 78 166 322
f 236 275 383
f 257 57 142
f 374 188 393
f 177 406 284
f 317 49 327
f 107 253 264
f 184 132 319
f 248 415 85
f 451 421 441
f 119 356 269
f 337 328 342
f 63 206 458
f 218 30 170
f 169 162 433
f 164 116 60
f 165 193 358
f 208 70 160
f 165 358 200
f 174 73 312
f 252 211 276
f 55 301 331
f 379 305 365
f 174 88 127
f 126 90 268
f 200 90 126
f 111 304 235
f 345 295 262
f 327 224 44
f 214 113 47
f 170 30 401
f 190 299 64
f 34 361 117
f 437 197 178
f 119 46 311
f 35 282 24
f 200 358 90
f 25 236 293
f 261 5 76
f 322 166 321
f 303 41 455
f 23 74 180
f 338 161 330
f 137 353 334
f 276 211 345
f 176 179 362
f 218 221 335
f 423 104 130
f 52 205 89
f 169 336 396
f 293 236 383
f 214 174 73
f 283 144 368
f 340 375 335
f 35 24 83
f 292 421 451
f 440 226 297
f 343 282 35
f 403 104 295
f 353 112 298
f 188 340 221
f 11 392 305
f 192 289 69
f 365 156 340
f 444 383 34
f 41 452 424
f 100 149 67
f 260 333 122
f 52 89 212
f 121 234 256
f 330 161 8
f 411 167 348
f 436 277 382
f 156 375 340
f 341 203 75
f 449 320 111
f 444 243 383
f 317 284 49
f 45 6 79
f 386 393 221
f 427 164 323
f 375 180 74
f 389 412 398
f 259 433 289
f 280 27 50
f 128 89 95
f 145 322 163
f 61 401 240
f 278 412 376
f 128 212 89
f 195 449 137
f 77 403 211
f 99 293 430
f 98 41 131
f 327 49 79
f 283 178 144
f 16 247 408
f 44 224 219
f 65 71 270
f 199 457 320
f 119 435 46
f 63 391 76
f 187 62 133
f 220 83 24
f 28 359 418
f 330 115 8
f 1 60 129
f 364 311 247
f 36 398 152
f 169 238 162
f 29 47 299
f 134 390 300
f 310 425 33
f 412 146 203
f 263 232 456
f 446 130 403
f 225 362 179
f 21 422 450
f 187 133 106
f 229 181 225
f 386 221 218
f 369 332 241
f 330 8 132
f 417 197 437
f 424 452 82
f 445 386 226
f 273 309 351
f 193 233 438
f 198 174 31
f 442 419 192
f 217 364 240
f 220 436 290
f 440 297 397
f 88 190 272
f 287 25 99
f 195 199 449
f 204 154 192
f 172 355 194
f 330 14 78
f 11 321 392
f 121 250 331
f 366 66 91
f 457 414 320
f 446 388 130
f 132 357 93
f 174 312 73
f 79 6 460
f 164 266 116
f 430 293 243
f 45 19 6
f 105 455 4
f 436 382 290
f 98 96 452
f 138 136 107
f 22 356 119
f 223 42 244
f 174 377 88
f 442 192 154
f 368 58 181
f 267 337 378
f 270 309 5
f 237 315 92
f 12 354 303
f 12 238 396
f 30 335 74
f 311 408 247
f 170 401 61
f 250 9 318
f 314 416 275
f 141 91 255
f 300 95 302
f 32 107 71
f 135 409 372
f 18 306 202
f 217 240 401
f 423 109 407
f 316 189 415
f 138 341 136
f 313 400 404
f 87 125 434
f 327 79 3
f 43 331 250
f 198 31 307
f 374 393 125
f 436 431 277
f 187 194 62
f 268 26 341
f 226 386 297
f 66 302 282
f 244 439 19
f 8 147 132
f 256 234 185
f 80 159 409
f 15 298 196
f 352 378 392
f 78 184 166
f 454 209 347
f 178 86 461
f 97 191 156
f 38 303 455
f 81 276 139
f 338 330 78
f 53 36 152
f 402 243 444
f 274 426 278
f 30 74 217
f 278 398 412
f 43 318 80
f 259 142 433
f 99 430 315
f 50 399 411
f 268 341 138
f 419 289 192
f 51 113 216
f 265 400 210
f 371 153 324
f 164 380 266
f 16 408 236
f 330 325 115
f 86 82 461
f 199 458 457
f 330 8 161
f 337 288 328
f 30 217 401
f 220 290 314
f 248 397 48
f 288 456 118
f 289 162 69
f 454 347 36
f 364 247 240
f 145 163 428
f 435 220 314
f 126 268 103
f 121 256 42
f 129 60 17
f 359 242 418
f 72 139 237
f 432 281 207
f 230 291 61
f 143 405 360
f 355 222 349
f 410 356 420
f 98 131 317
f 127 246 338
f 177 336 148
f 214 29 377
f 450 363 254
f 82 233 461
f 280 50 411
f 214 73 174
f 272 261 391
f 96 53 245
f 381 416 101
f 369 94 332
f 103 268 138
f 328 410 150
f 95 89 239
f 382 381 101
f 142 57 149
f 96 454 36
f 13 93 199
f 282 308 24
f 432 384 281
f 202 360 405
f 197 86 178
f 173 39 54
f 261 370 5
f 447 417 380
f 132 63 357
f 378 337 342
f 115 63 132
f 64 261 272
f 282 24 308
f 150 410 420
f 51 215 306
f 45 79 49
f 347 286 398
f 354 131 303
f 307 145 428
f 51 216 215
f 390 95 300
f 116 229 17
f 307 27 360
# 934 faces, 0 coords texture

# End of File