####
#
# OBJ File Generated by Meshlab
#
####
# Object Volume_200.obj
#
# Vertices: 343
# Faces: 702
#
####
v 162.275604 291.507263 139.590500
v 152.364105 307.142853 139.979858
v 155.986908 300.610687 143.054337
v 151.154282 300.593597 142.975555
v 163.364792 280.426178 137.588104
v 162.449066 285.353302 137.044952
v 158.878860 297.947693 136.028244
v 152.370453 287.432281 142.369278
v 154.411316 289.484222 142.479874
v 152.376511 281.294769 142.265106
v 159.449341 306.342590 142.444443
v 148.194199 300.042969 137.603317
v 147.538696 283.056976 135.774261
v 156.753983 291.535095 142.465683
v 160.140686 300.028015 141.574127
v 151.232101 278.987762 142.180038
v 150.396576 298.018677 142.172882
v 150.409897 304.128052 143.041321
v 150.330826 306.582886 142.111435
v 149.235733 283.396088 141.233276
v 156.752213 281.287292 142.352676
v 154.410355 307.058807 137.555817
v 152.270004 299.431000 142.930374
v 148.120178 304.103912 137.941086
v 157.883499 306.592010 136.659058
v 152.383209 279.575958 135.118942
v 152.631943 278.824799 142.201828
v 148.245361 297.987152 137.588959
v 154.392212 279.574890 135.131882
v 150.386688 283.295715 141.947845
v 152.361359 293.878998 135.541077
v 159.899460 304.083496 136.964951
v 148.098694 304.113312 139.793427
v 148.311264 280.323792 137.516678
v 148.096161 302.071655 139.844818
v 152.372864 293.879578 142.350204
v 161.680374 291.513916 140.741577
v 162.482803 287.418579 139.652695
v 159.263153 304.048523 142.682724
v 148.854843 306.521027 137.424362
v 160.797821 295.917084 136.537979
v 148.909073 291.536591 136.594681
v 156.754639 295.929962 142.499512
v 150.362335 295.930511 135.791931
v 161.612000 280.351532 140.708923
v 160.918274 283.304016 136.120239
v 148.955246 289.483673 136.589661
v 154.411102 285.382080 142.487488
v 163.548004 281.314453 137.795593
v 150.360703 297.980835 135.786392
v 148.731125 304.136566 141.822937
v 152.360992 297.980804 135.537125
v 161.757309 295.754639 137.208298
v 158.785263 306.556702 142.162201
v 160.708786 293.814758 136.412003
v 160.694870 279.759735 140.024704
v 161.339920 300.032654 137.701599
v 156.754150 285.382050 135.534241
v 150.276047 281.320160 141.759827
v 150.293594 279.579529 135.128769
v 148.438644 279.595001 135.206726
v 152.360916 300.032196 135.537354
v 162.120789 289.456787 137.098785
v 161.559631 295.942749 140.406052
v 157.592255 301.242432 142.908279
v 152.361877 297.974487 142.646774
v 162.203522 293.938965 137.774948
v 156.740631 307.028168 137.551804
v 158.763214 297.989380 142.288727
v 148.438751 293.885071 139.861130
v 150.449142 279.603882 140.126205
v 154.473740 278.765991 142.198303
v 154.411285 287.433197 142.482986
v 160.795959 297.904663 136.736176
v 156.746628 295.928467 135.627182
v 154.411392 291.535095 142.476898
v 148.821030 302.147797 141.662125
v 150.367554 293.879608 135.810684
v 162.823456 280.412689 137.295959
v 156.717758 304.119141 135.817047
v 154.411041 283.331573 135.471176
v 159.895981 306.539886 139.882721
v 148.855515 297.983429 136.551682
v 154.409744 302.082672 135.548798
v 160.373657 305.894440 139.863495
v 156.763260 306.542328 142.080994
v 152.372864 289.483826 142.351120
v 158.765015 295.931091 142.240417
v 160.563965 293.862152 141.526031
v 158.502335 304.245331 143.011780
v 162.588211 285.350891 139.640076
v 154.411026 287.433167 135.504913
v 150.250885 295.951752 141.902328
v 161.645844 299.467957 138.066483
v 150.366760 289.483612 135.801834
v 156.750717 307.119965 139.978363
v 160.857910 283.356293 141.742798
v 148.393814 279.602203 135.249939
v 152.368393 279.156464 140.134262
v 161.330002 299.949921 139.690964
v 158.778229 289.483643 142.284988
v 158.782318 283.336700 142.276962
v 150.344055 279.591888 137.513901
v 154.411285 283.331543 142.463531
v 149.627655 280.314606 140.801117
v 158.765320 293.877655 142.233459
v 158.779373 287.432861 142.290421
v 156.754822 279.319580 137.510696
v 160.730789 285.378021 141.721237
v 160.078415 302.093506 141.669586
v 148.108215 302.046295 137.845032
v 149.119751 280.249054 139.808502
v 156.437912 279.577423 135.156586
v 158.340485 279.593903 135.333359
v 150.361603 302.081696 135.791870
v 154.408630 305.847595 142.762344
v 162.999405 283.200836 137.750687
v 160.115753 304.200470 141.799088
v 147.888275 280.398285 136.707764
v 148.345306 283.351349 139.850555
v 147.762161 284.222107 135.707382
v 150.367737 304.117340 135.855774
v 150.351746 299.981049 142.537552
v 149.402222 304.191772 142.622467
v 160.384720 299.988007 136.820709
v 148.915024 306.446930 140.060806
v 158.777679 302.076294 136.190399
v 152.360992 289.484070 135.535629
v 156.755981 281.283478 135.403336
v 157.671921 278.947510 142.225021
v 156.754608 297.972137 142.615112
v 154.411087 279.303833 137.508865
v 148.428970 287.525024 139.786652
v 154.410751 295.928436 142.537048
v 152.365097 295.932648 142.423309
v 160.708664 287.429047 141.690460
v 156.755463 283.330536 135.497559
v 149.223587 306.447174 142.106857
v 160.762360 279.865601 137.661880
v 147.455795 282.108429 135.797913
v 148.413513 305.888306 139.766754
v 162.645218 287.424377 137.857788
v 158.737122 304.106506 136.293991
v 149.191513 298.038605 141.330017
v 160.655991 291.515015 141.605438
v 163.054489 280.261292 137.764450
v 152.361816 307.062347 137.554001
v 154.480927 279.573242 135.111206
v 160.863480 281.339905 141.555145
v 162.796234 285.295654 137.690659
v 148.398560 305.912445 137.773590
v 147.482285 282.443359 135.790848
v 159.762085 306.395233 142.030792
v 150.369171 291.534790 135.814667
v 150.359009 300.032013 135.782150
v 156.756271 279.085022 140.134338
v 152.373444 302.096130 143.293625
v 158.743927 306.953217 139.986084
v 154.408279 306.534698 142.078659
v 152.366547 285.382263 142.392944
v 161.602127 297.869415 137.436111
v 150.276703 293.883789 141.831131
v 162.522827 289.353577 137.850113
v 148.295624 289.492310 137.799408
v 158.782043 287.430542 135.716507
v 156.065094 278.819641 142.208954
v 149.124176 291.536926 140.997070
v 162.386002 289.461700 139.616623
v 160.988571 301.921783 139.797882
v 152.357773 306.611298 136.522034
v 156.754272 289.484222 142.472290
v 161.761124 289.476929 140.792191
v 150.310394 283.330475 135.549515
v 154.409195 304.109802 143.272964
v 148.847656 306.374176 136.663895
v 152.361969 279.353699 137.513062
v 148.423508 289.535034 139.758987
v 156.690155 302.149597 143.195129
v 161.932953 298.059845 138.033401
v 148.892166 287.295441 136.619385
v 160.199173 305.758057 137.898285
v 148.355682 297.996399 139.888290
v 154.503799 278.811707 142.213181
v 158.877396 293.959198 135.873215
v 154.415375 306.599915 136.532608
v 160.687790 289.479248 141.655853
v 148.320068 287.435242 137.649719
v 150.280334 289.480286 141.834305
v 148.851273 302.083527 136.562546
v 148.316589 293.885101 137.594818
v 150.264404 287.409515 141.855530
v 159.780151 306.437866 138.081390
v 162.375580 291.466553 137.673737
v 154.412018 281.287354 142.368118
v 159.458633 305.573364 142.646515
v 161.901871 293.650696 137.158127
v 152.360992 295.929932 135.535614
v 152.361267 302.082672 135.545654
v 161.857437 283.246033 141.055389
v 158.773315 291.533661 142.261810
v 150.286911 291.534454 141.809662
v 154.404526 305.994385 136.069611
v 156.496613 278.866425 142.226791
v 152.954361 278.819000 142.192444
v 156.742142 297.978302 135.664001
v 152.361359 291.535126 135.540375
v 154.410568 297.980743 135.528656
v 152.371140 304.112579 143.251389
v 149.306885 306.241028 142.467850
v 150.451050 285.366364 141.987137
v 158.679016 306.781403 137.590088
v 158.783661 285.381500 142.306244
v 154.411072 285.382050 135.502289
v 148.400467 285.381287 139.882217
v 154.411316 293.878998 142.481598
v 156.734451 304.118042 143.185257
v 149.362808 305.584961 142.629471
v 149.097366 296.070038 141.110718
v 147.577072 283.290070 135.763458
v 162.669464 283.318176 139.804398
v 160.379562 295.857239 141.580643
v 160.871780 285.369812 136.146927
v 148.399048 295.937500 139.875961
v 156.422104 278.825409 142.217758
v 152.358963 281.294403 135.346146
v 150.307709 305.966156 142.730896
v 152.360229 285.381958 135.522034
v 156.754288 287.433167 142.472656
v 162.674759 281.376923 139.712692
v 161.889099 285.340424 140.881729
v 152.359787 283.331451 135.486328
v 152.354843 305.861664 142.778854
v 156.753769 293.878937 142.461502
v 152.361130 287.433136 135.535339
v 156.754257 285.382172 142.471054
v 156.516235 279.580200 135.188156
v 148.995514 300.221710 141.478348
v 160.676712 280.450897 136.697815
v 158.791412 279.244202 140.140533
v 152.373993 291.535034 142.341904
v 154.304840 300.324707 143.145950
v 150.367218 287.431152 135.797836
v 154.411041 289.484222 135.506607
v 149.109543 293.888458 141.005646
v 156.752594 289.483856 135.561066
v 162.509430 283.293701 136.985550
v 150.362625 305.996277 136.135635
v 160.452744 280.153778 141.105804
v 149.124283 287.400452 141.046280
v 148.868149 295.936462 136.563065
v 161.840851 281.364746 141.013550
v 154.411194 281.294678 135.338120
v 156.084625 279.576630 135.145813
v 150.325195 306.575958 136.545303
v 162.272583 287.274689 137.085342
v 158.762863 300.041931 142.415268
v 156.754181 283.331665 142.448822
v 154.410782 307.155182 139.980530
v 161.755722 293.969849 140.384277
v 147.900345 285.274719 137.538589
v 160.833130 302.058624 137.923203
v 154.480774 299.420746 142.968292
v 152.554871 278.865631 142.207047
v 158.771790 289.480408 135.751785
v 156.735809 300.030884 135.691696
v 152.360504 279.573029 135.112640
v 158.866364 305.942505 142.811462
v 159.552963 305.833862 137.068222
v 147.826950 283.313293 137.812454
v 150.686081 302.250580 143.045517
v 162.104599 295.902161 137.742325
v 160.907730 281.359802 136.269821
v 150.318161 285.380463 135.692657
v 149.106583 281.374756 141.031479
v 156.769333 305.843170 142.739105
v 148.893066 293.885529 136.588165
v 150.367233 306.983215 139.973877
v 148.817734 279.598053 135.204498
v 150.379654 279.580505 135.148575
v 147.876999 281.206604 137.613434
v 156.730530 302.081635 135.723938
v 148.269592 295.933990 137.587479
v 158.789490 285.380371 135.678833
v 150.350784 306.957458 137.553223
v 148.338593 291.548492 137.595276
v 150.303070 281.293671 135.398315
v 156.753555 287.433075 135.545776
v 158.813751 300.024353 136.106812
v 160.733383 289.499268 136.244736
v 158.946915 295.916382 135.956345
v 160.827698 287.421600 136.202530
v 154.410797 295.929840 135.522949
v 160.696182 291.533295 136.303116
v 154.406601 297.950989 142.723755
v 148.828049 306.024536 136.550140
v 148.840530 300.034424 136.546570
v 158.756775 291.530060 135.801208
v 160.018234 306.003784 142.022537
v 148.467209 291.537018 139.830170
v 156.828262 299.940186 142.884216
v 160.579834 304.064392 137.975555
v 156.751007 291.534607 135.580643
v 149.282120 285.424133 141.262482
v 152.454803 300.322998 143.121826
v 160.740829 304.165405 139.974258
v 156.688904 306.023895 136.157578
v 148.864166 304.138977 136.576584
v 154.406525 304.121918 135.656219
v 158.792831 279.451599 137.528870
v 149.776855 301.947540 142.579987
v 148.931229 306.033478 141.930893
v 156.746277 306.643646 136.528610
v 154.404449 302.095642 143.310669
v 158.605911 306.014832 136.555542
v 158.230652 302.878510 142.985382
v 158.795593 302.018097 142.671371
v 162.222427 293.641449 139.329620
v 148.525681 281.317963 139.901489
v 163.674728 281.072906 137.680588
v 162.712936 281.226654 137.009689
v 152.362106 305.997803 136.055801
v 152.369675 283.334351 142.362549
v 148.265961 300.134705 140.018555
v 162.157913 280.238647 139.666580
v 161.498917 298.037720 140.116364
v 147.536987 283.216278 135.775452
v 156.748856 293.878052 135.610184
v 154.411209 279.038788 140.124451
v 154.410889 293.878906 135.515869
v 158.774384 281.282867 135.717545
v 152.351486 306.563751 142.094040
v 154.410202 300.031921 135.536148
v 160.233414 297.969055 141.564301
v 158.792206 283.329407 135.664749
v 152.362915 304.122833 135.643921
v 161.985291 297.398132 139.076553
v 158.757553 281.320801 142.089157
v 154.410965 291.535126 135.511703
v 161.809219 287.419678 140.816360
v 149.147873 289.479980 141.016815
v 162.112152 295.883820 139.159836
v 162.094025 291.501282 137.138763
v 160.085297 301.945557 136.895142
# 343 vertices, 0 vertices normals

f 89 259 37
f 331 159 116
f 79 5 320
f 334 46 283
f 96 158 54
f 110 118 169
f 312 211 68
f 285 164 47
f 102 212 97
f 216 116 275
f 119 280 34
f 204 263 59
f 90 195 39
f 205 290 7
f 194 104 21
f 215 233 14
f 226 209 138
f 180 219 273
f 78 206 31
f 26 225 286
f 112 318 274
f 155 189 296
f 178 315 316
f 280 112 34
f 158 82 153
f 321 185 170
f 287 58 283
f 17 66 135
f 333 325 64
f 261 57 169
f 147 258 2
f 123 77 310
f 74 57 125
f 226 232 208
f 79 146 5
f 91 38 142
f 239 309 108
f 78 276 154
f 74 161 57
f 240 76 9
f 310 51 124
f 342 193 196
f 280 318 112
f 16 204 263
f 267 11 298
f 96 54 86
f 178 216 315
f 217 311 209
f 57 100 169
f 75 184 290
f 140 326 13
f 302 297 327
f 140 13 152
f 152 286 13
f 323 237 182
f 29 113 148
f 223 182 144
f 44 50 83
f 76 14 171
f 325 336 341
f 298 153 85
f 270 157 304
f 99 176 103
f 88 69 221
f 301 261 305
f 267 298 195
f 317 67 193
f 152 279 286
f 145 89 37
f 298 85 305
f 19 331 232
f 171 14 101
f 282 28 182
f 162 218 93
f 243 287 245
f 332 265 84
f 48 73 235
f 310 18 270
f 291 255 289
f 97 109 230
f 104 257 21
f 226 19 232
f 68 96 22
f 281 80 308
f 29 108 253
f 139 324 146
f 277 331 19
f 34 112 71
f 216 174 116
f 173 225 231
f 228 171 107
f 260 187 133
f 140 278 152
f 17 123 66
f 272 320 246
f 162 93 36
f 252 81 231
f 300 256 69
f 149 251 45
f 72 224 166
f 54 153 11
f 337 102 149
f 15 110 100
f 229 117 49
f 207 75 205
f 206 243 338
f 219 173 273
f 232 331 116
f 51 77 35
f 2 159 331
f 236 253 113
f 200 106 145
f 171 101 107
f 29 253 113
f 63 163 342
f 272 246 46
f 123 270 4
f 178 313 174
f 151 33 24
f 38 172 168
f 33 51 35
f 204 10 183
f 39 195 118
f 232 116 174
f 119 98 140
f 194 322 104
f 252 253 129
f 123 237 77
f 205 7 265
f 147 22 258
f 199 91 220
f 76 215 14
f 130 224 166
f 170 185 22
f 110 169 100
f 118 195 298
f 129 330 137
f 242 234 95
f 260 133 214
f 266 60 279
f 327 184 75
f 115 307 189
f 249 191 303
f 267 54 11
f 340 188 191
f 324 45 229
f 203 166 21
f 78 154 206
f 172 37 168
f 300 69 131
f 233 106 200
f 183 166 224
f 191 188 8
f 197 329 292
f 80 127 143
f 292 327 75
f 17 237 123
f 290 41 74
f 228 107 212
f 277 19 126
f 115 122 307
f 200 145 186
f 50 155 296
f 191 8 160
f 118 298 305
f 80 202 308
f 168 163 142
f 158 153 54
f 184 41 290
f 204 99 71
f 99 183 328
f 196 193 67
f 68 158 96
f 87 73 8
f 306 25 312
f 310 124 18
f 39 118 110
f 180 187 219
f 303 191 210
f 281 265 288
f 251 220 229
f 53 67 271
f 245 165 264
f 270 304 4
f 56 324 139
f 281 127 80
f 178 174 216
f 146 49 319
f 127 125 343
f 304 157 241
f 161 271 179
f 41 53 74
f 62 207 332
f 134 294 43
f 93 218 144
f 59 20 30
f 307 24 189
f 203 239 156
f 99 328 176
f 254 147 284
f 204 183 99
f 162 244 218
f 66 23 262
f 13 286 173
f 6 150 255
f 283 222 165
f 248 149 45
f 306 143 314
f 145 37 172
f 87 9 73
f 52 207 62
f 285 47 42
f 74 53 271
f 294 262 131
f 57 161 179
f 315 90 39
f 32 261 301
f 247 335 321
f 176 328 132
f 240 36 76
f 183 10 194
f 95 154 42
f 236 113 114
f 170 22 147
f 62 332 198
f 83 28 250
f 255 142 63
f 196 67 53
f 104 48 257
f 118 305 169
f 284 2 277
f 312 25 211
f 122 335 247
f 298 11 153
f 130 203 224
f 212 109 97
f 215 134 233
f 89 64 259
f 122 295 307
f 343 261 32
f 314 268 192
f 27 72 183
f 312 68 185
f 123 4 23
f 125 57 343
f 204 183 72
f 238 320 272
f 105 263 71
f 247 254 295
f 239 56 309
f 235 212 102
f 276 42 154
f 183 166 328
f 300 131 262
f 249 340 191
f 64 341 317
f 131 69 88
f 168 1 163
f 106 88 89
f 102 97 149
f 264 291 289
f 303 20 120
f 124 51 311
f 260 269 219
f 93 17 135
f 91 339 38
f 236 139 238
f 137 330 334
f 96 258 22
f 177 340 133
f 271 336 179
f 323 35 77
f 300 178 65
f 115 198 122
f 48 8 73
f 7 74 288
f 29 132 108
f 246 49 117
f 221 333 64
f 206 338 31
f 203 156 166
f 155 62 115
f 317 341 67
f 257 235 102
f 180 47 164
f 124 311 217
f 92 58 287
f 126 311 141
f 24 35 111
f 36 215 76
f 242 227 234
f 46 246 222
f 83 12 28
f 238 146 79
f 61 60 279
f 66 262 294
f 64 325 341
f 93 135 36
f 162 36 240
f 36 135 215
f 135 66 134
f 78 31 44
f 86 54 267
f 247 170 254
f 275 86 267
f 321 202 185
f 276 190 42
f 78 250 276
f 203 248 56
f 50 52 155
f 86 159 258
f 44 31 197
f 186 145 172
f 28 323 182
f 275 267 90
f 284 277 40
f 43 88 106
f 323 77 237
f 289 255 63
f 43 131 88
f 3 313 178
f 9 76 171
f 276 250 282
f 32 301 268
f 334 272 46
f 203 21 337
f 302 264 297
f 213 234 227
f 280 269 318
f 236 238 330
f 287 165 245
f 151 141 33
f 75 290 205
f 21 257 337
f 255 150 142
f 177 299 167
f 285 70 299
f 88 221 89
f 165 291 264
f 130 166 203
f 13 219 121
f 1 259 317
f 339 172 38
f 268 301 181
f 249 133 340
f 128 154 95
f 96 86 258
f 105 112 274
f 198 332 84
f 124 226 18
f 278 279 60
f 280 152 13
f 201 240 87
f 236 129 253
f 269 13 219
f 242 95 47
f 1 193 163
f 140 152 326
f 73 228 235
f 208 232 174
f 314 192 211
f 318 20 274
f 28 12 323
f 236 309 139
f 332 205 265
f 268 181 192
f 310 77 51
f 254 284 175
f 192 181 82
f 330 272 334
f 180 273 242
f 100 94 179
f 335 308 321
f 70 223 218
f 149 97 251
f 92 287 243
f 148 113 253
f 14 200 101
f 264 289 297
f 201 167 244
f 277 2 331
f 300 3 178
f 321 308 202
f 59 30 10
f 29 253 252
f 26 266 29
f 66 294 134
f 314 211 25
f 91 117 220
f 238 79 320
f 297 289 293
f 201 188 167
f 26 60 266
f 289 63 293
f 50 197 52
f 292 75 207
f 99 103 71
f 27 204 72
f 173 231 273
f 57 179 94
f 64 317 259
f 309 56 139
f 281 288 127
f 281 84 265
f 123 310 270
f 26 29 148
f 155 52 62
f 12 35 323
f 175 151 295
f 128 234 92
f 157 313 241
f 278 279 152
f 98 278 61
f 72 183 224
f 27 183 204
f 316 315 39
f 282 182 223
f 338 245 302
f 4 304 23
f 204 71 263
f 261 169 305
f 201 244 162
f 299 244 167
f 233 43 106
f 30 322 10
f 87 240 9
f 343 57 261
f 237 144 182
f 263 274 59
f 143 343 32
f 303 210 30
f 213 92 234
f 184 293 55
f 325 100 179
f 2 258 159
f 288 125 127
f 275 116 159
f 337 149 248
f 136 339 230
f 211 82 158
f 254 170 147
f 269 120 318
f 270 18 157
f 249 303 214
f 324 229 146
f 183 194 166
f 282 250 28
f 44 197 50
f 316 110 15
f 70 190 223
f 180 242 47
f 177 133 164
f 300 241 3
f 248 45 324
f 68 211 158
f 141 311 33
f 37 259 1
f 26 29 225
f 201 162 240
f 78 44 250
f 41 196 53
f 278 103 279
f 318 120 20
f 13 121 326
f 136 186 339
f 74 271 161
f 70 218 244
f 210 191 160
f 81 129 137
f 134 43 233
f 176 279 103
f 90 267 195
f 280 13 269
f 89 221 64
f 297 293 184
f 151 24 307
f 211 192 82
f 16 263 27
f 293 342 55
f 198 84 335
f 327 297 184
f 109 136 230
f 83 296 12
f 325 179 336
f 18 226 208
f 27 263 204
f 213 58 92
f 335 84 308
f 12 111 35
f 226 138 19
f 24 111 189
f 101 186 136
f 115 62 198
f 245 264 302
f 207 205 332
f 3 241 313
f 320 49 246
f 203 56 239
f 253 108 309
f 165 222 291
f 222 246 6
f 98 61 278
f 219 326 121
f 304 241 262
f 180 164 187
f 72 166 183
f 15 100 325
f 82 85 153
f 266 148 29
f 210 160 322
f 6 117 150
f 203 337 248
f 265 7 288
f 26 148 266
f 107 101 136
f 13 173 219
f 277 126 40
f 236 330 129
f 213 137 58
f 91 150 117
f 293 63 342
f 97 199 251
f 152 13 326
f 184 55 41
f 59 274 20
f 19 138 126
f 177 167 340
f 9 171 228
f 257 102 337
f 217 209 226
f 194 21 166
f 91 230 339
f 29 252 225
f 329 302 327
f 48 160 8
f 52 292 207
f 97 230 199
f 14 233 200
f 260 120 269
f 251 199 220
f 119 34 98
f 181 301 85
f 296 111 12
f 314 32 268
f 127 343 143
f 238 139 146
f 81 137 213
f 286 225 173
f 80 306 202
f 50 296 83
f 236 114 253
f 260 219 187
f 294 131 43
f 143 32 314
f 26 132 29
f 328 156 132
f 55 196 41
f 320 319 49
f 228 212 235
f 285 42 190
f 13 326 219
f 44 83 250
f 146 229 49
f 306 314 25
f 275 159 86
f 295 151 307
f 26 279 176
f 95 42 47
f 168 37 1
f 1 317 193
f 16 27 204
f 223 144 218
f 256 316 15
f 73 9 228
f 128 243 206
f 283 46 222
f 249 214 133
f 123 23 66
f 328 166 156
f 26 266 279
f 278 60 61
f 301 305 85
f 135 134 215
f 333 15 325
f 284 147 2
f 178 316 65
f 68 22 185
f 341 271 67
f 26 176 132
f 87 8 188
f 58 334 283
f 342 163 193
f 300 65 256
f 306 312 202
f 329 327 292
f 239 108 156
f 252 129 81
f 214 303 120
f 133 187 164
f 31 338 329
f 26 286 279
f 212 107 109
f 246 117 6
f 291 6 255
f 122 247 295
f 126 138 311
f 229 220 117
f 175 40 151
f 40 126 141
f 104 322 160
f 128 206 154
f 260 214 120
f 106 89 145
f 216 275 90
f 204 59 10
f 254 175 295
f 311 51 33
f 29 148 253
f 119 140 152
f 146 319 5
f 91 142 150
f 300 262 241
f 38 168 142
f 278 34 103
f 282 223 190
f 299 70 244
f 114 113 253
f 281 308 84
f 243 245 338
f 273 231 227
f 194 10 322
f 252 231 225
f 303 30 20
f 201 87 188
f 276 282 190
f 45 251 229
f 34 71 103
f 69 333 221
f 208 174 313
f 197 292 52
f 30 210 322
f 290 74 7
f 341 336 271
f 31 329 197
f 105 274 263
f 296 189 111
f 157 208 313
f 105 71 112
f 273 227 242
f 132 156 108
f 48 235 257
f 23 304 262
f 320 5 319
f 203 166 224
f 57 94 100
f 340 167 188
f 312 185 202
f 63 142 163
f 199 230 91
f 80 143 306
f 69 256 333
f 137 334 58
f 285 190 70
f 101 200 186
f 311 138 209
f 256 15 333
f 124 217 226
f 81 213 227
f 140 98 278
f 18 208 157
f 287 283 165
f 155 115 189
f 222 6 291
f 128 92 243
f 55 342 196
f 98 34 278
f 330 238 272
f 81 227 231
f 65 316 256
f 247 321 170
f 56 248 324
f 82 181 85
f 128 95 234
f 122 198 335
f 284 40 175
f 93 144 17
f 338 302 329
f 40 141 151
f 186 172 339
f 278 61 279
f 26 279 60
f 285 299 164
f 119 152 280
f 17 144 237
f 107 136 109
f 24 33 35
f 177 164 299
f 216 90 315
f 236 253 309
f 316 39 110
f 288 74 125
f 104 160 48
# 702 faces, 0 coords texture

# End of File