####
#
# OBJ File Generated by Meshlab
#
####
# Object Volume_214.obj
#
# Vertices: 407
# Faces: 836
#
####
v 113.913612 138.699051 121.052528
v 120.129921 145.013275 120.678978
v 124.238441 133.206726 131.081131
v 116.145752 136.761948 131.953018
v 112.546059 135.450455 126.698929
v 135.111298 142.630341 122.121147
v 114.532806 141.978195 123.761047
v 124.231216 137.770660 121.432793
v 118.078995 135.226410 125.063889
v 134.151337 136.519653 131.902466
v 134.778854 148.090820 126.176231
v 130.676804 146.982010 130.815811
v 126.283104 142.690201 132.471466
v 138.452957 136.582306 126.440262
v 114.096619 134.284836 128.669952
v 114.239540 138.404297 128.659149
v 116.027893 140.647919 120.608070
v 140.725998 145.044754 124.985367
v 132.726181 142.688995 132.418686
v 112.899734 143.900146 120.930801
v 136.698471 147.871414 124.568985
v 116.032867 134.004974 128.604141
v 115.827217 142.637955 126.528946
v 141.247879 146.990005 125.505394
v 134.179123 145.163330 121.296791
v 134.594284 138.688248 132.059036
v 118.167671 136.335754 132.133942
v 138.755066 144.999588 124.128777
v 132.418060 137.941513 121.684250
v 114.161133 133.488998 130.991318
v 112.021095 140.611130 120.958321
v 140.837784 142.741226 126.598511
v 119.412674 146.002060 131.547043
v 132.727844 134.576767 126.724594
v 130.666519 134.793259 131.845078
v 140.484818 147.312515 125.287224
v 132.498932 133.311905 131.104584
v 132.701630 146.900253 121.403236
v 130.674469 136.277832 132.262512
v 118.079025 145.013657 120.696106
v 120.116600 133.355515 131.113632
v 122.180626 146.919922 121.341568
v 133.884171 137.205688 122.974457
v 118.929161 146.258804 130.553345
v 128.630493 146.900208 121.372849
v 130.656494 138.721573 121.010162
v 122.181015 135.223862 125.062859
v 124.231987 142.690369 132.476364
v 124.231812 136.827194 122.356491
v 122.308632 134.835403 131.870712
v 128.626648 136.838013 122.365128
v 113.375565 136.715485 128.747223
v 116.036758 137.780121 121.443855
v 111.009583 137.348175 122.534828
v 132.678940 136.306656 132.164230
v 122.190933 146.968750 130.814041
v 135.969208 147.407578 122.695595
v 134.899048 146.601028 130.923950
v 132.617798 140.693710 120.915390
v 126.283051 135.738876 124.042328
v 122.155884 133.270813 131.103500
v 139.176788 145.023132 129.139511
v 118.079491 137.770477 121.432495
v 120.129440 146.915314 121.343887
v 111.960205 140.563477 121.853989
v 113.731422 138.671906 126.670082
v 110.896019 137.725327 122.072998
v 138.693253 142.684601 124.224731
v 120.129890 142.690796 120.522789
v 139.197266 142.661819 129.120621
v 132.714722 135.865234 124.116043
v 116.031403 138.717133 120.981979
v 132.638138 137.041397 122.537872
v 132.575562 133.348816 131.110001
v 122.188713 147.633133 128.789536
v 128.627167 133.896561 128.591599
v 138.149216 136.358215 128.644379
v 137.310852 135.634613 129.209625
v 136.223145 145.507385 122.656990
v 133.584442 140.809143 121.333229
v 120.166649 146.216156 131.684479
v 136.791779 145.001526 130.929184
v 118.082527 133.423645 131.110611
v 139.878250 140.843704 125.403351
v 135.768768 141.747406 132.137146
v 137.389023 135.179153 128.158752
v 130.677383 138.589645 132.462006
v 130.678207 140.639908 132.498215
v 112.595039 142.186218 121.138977
v 128.630127 147.741882 122.326958
v 122.183250 136.276718 132.278687
v 130.668274 136.867340 122.385826
v 114.010109 134.804123 126.788925
v 114.766212 141.469879 124.638016
v 126.282982 147.693665 128.801300
v 140.602783 142.738113 125.303864
v 126.283112 142.690811 120.527885
v 138.806656 147.656464 126.102005
v 122.181648 142.689987 132.459488
v 116.142601 133.431351 131.064102
v 135.640182 143.006500 131.935120
v 116.121696 138.533386 131.881775
v 124.231911 135.735458 124.040565
v 135.576309 140.324524 131.866211
v 126.283081 140.639984 132.500015
v 122.181023 135.734573 124.040108
v 132.728439 140.638611 132.431549
v 138.594116 140.657303 124.484795
v 122.169312 146.230209 131.690262
v 130.678513 148.218124 124.479759
v 132.712708 144.983521 132.182083
v 137.564896 136.750168 129.653885
v 132.727280 147.674698 128.796570
v 128.626968 142.690186 132.471451
v 130.677811 133.913071 128.596252
v 134.925812 136.238190 131.473984
v 128.626678 138.714874 120.974831
v 138.679276 147.158401 124.584900
v 128.627075 135.226120 125.063858
v 130.681488 146.227493 131.684555
v 124.227821 146.916763 121.347595
v 115.233826 137.777924 131.901382
v 118.669800 147.744736 124.348030
v 134.224762 133.600464 131.135803
v 111.191345 135.447098 125.293320
v 122.180954 134.549576 126.714706
v 130.677994 134.544144 126.712700
v 118.079437 138.709839 120.957695
v 120.184303 144.988632 132.114655
v 139.509583 139.455185 125.426865
v 122.182701 133.925598 128.594711
v 126.281380 134.784607 131.859589
v 132.473755 138.839462 121.296440
v 128.627045 147.693695 128.801300
v 124.231667 145.012650 120.682373
v 132.678299 144.999146 120.875534
v 118.129646 140.615479 132.181580
v 113.984131 140.656906 120.741180
v 114.563210 144.647507 121.208946
v 135.144547 147.131775 121.970070
v 128.629562 146.214554 131.666473
v 134.298492 146.203644 131.553345
v 114.964394 143.460129 123.281540
v 120.129890 135.734558 124.040100
v 139.232773 138.234833 126.725296
v 114.894020 138.054291 131.055527
v 128.531998 133.194183 131.074005
v 112.252144 136.072906 126.458260
v 128.626968 138.589462 132.477081
v 114.880157 139.610504 128.555069
v 128.627930 146.972855 130.809280
v 126.279488 146.900406 121.372559
v 141.356461 145.028030 125.487778
v 114.551888 133.439667 130.991348
v 122.180931 138.589294 132.480408
v 130.558029 133.235657 131.086365
v 120.163506 147.867294 126.135376
v 124.231133 138.710052 120.958443
v 130.680176 146.914032 121.352516
v 135.726974 141.368774 132.120087
v 111.020615 140.165802 121.110680
v 136.755997 147.322968 128.679382
v 126.280464 146.214539 131.666443
v 120.250633 135.084106 131.874832
v 124.231750 136.272125 132.297775
v 112.926521 143.959579 120.966942
v 114.592033 140.252075 126.219727
v 128.626984 148.134171 126.181404
v 126.283073 134.544418 126.712730
v 113.982948 135.300461 125.094650
v 139.704453 139.194778 126.356194
v 120.142685 136.289001 132.237778
v 124.231865 140.646515 120.597366
v 122.182579 147.772156 122.312088
v 122.180901 136.825745 122.355331
v 118.078987 134.561966 126.718910
v 113.970100 135.844452 124.094551
v 126.282547 144.982819 132.220108
v 122.180878 140.640152 132.499939
v 117.528038 145.390686 129.041840
v 122.180931 145.013367 120.678627
v 115.358292 142.838699 124.407715
v 114.009369 142.666595 120.790283
v 110.048431 138.538651 121.145615
v 138.222122 145.022156 129.965561
v 116.026375 142.695953 120.599815
v 120.129929 140.646439 120.595985
v 139.916382 141.553329 127.927017
v 132.716537 146.220673 131.678024
v 115.014610 147.041260 121.056923
v 124.228355 146.228165 131.685196
v 116.029106 133.401733 131.053513
v 124.231956 140.640045 132.500015
v 120.243324 146.796844 130.794662
v 135.296982 144.934357 121.939644
v 126.282333 138.713745 120.970505
v 130.677811 142.690125 132.467636
v 132.729126 148.138962 126.181801
v 134.617737 140.602814 122.104248
v 118.079369 136.827759 122.356842
v 124.231987 142.690796 120.522797
v 117.461990 146.378677 126.250252
v 138.706253 138.570236 125.143509
v 140.711563 147.038803 126.202980
v 120.221405 147.364624 128.741318
v 124.231476 146.986847 130.817673
v 118.915833 144.774979 131.717194
v 128.627411 148.203629 124.479912
v 135.365402 138.351807 131.722366
v 126.283066 148.134201 126.181389
v 120.132179 133.952545 128.592667
v 120.131302 138.591110 132.441971
v 130.670639 133.211075 131.078568
v 136.594925 146.502563 130.213791
v 118.078972 142.690979 120.525810
v 130.678055 148.139130 126.181694
v 118.079048 140.646378 120.595970
v 126.282928 136.835175 122.363014
v 115.026764 147.109879 121.053703
v 128.627228 145.009995 120.697189
v 116.028389 135.233917 125.067352
v 117.139748 144.065796 129.934814
v 110.680183 137.977951 121.871887
v 141.353989 143.311325 125.788239
v 130.673172 140.651016 120.654808
v 126.282990 135.226273 125.063934
v 115.070496 137.321594 131.827988
v 118.213158 142.615143 131.887085
v 120.164619 148.085449 124.470200
v 137.981369 136.659134 125.379364
v 122.180901 142.690887 120.522804
v 126.279922 147.742065 122.326820
v 111.117218 137.218445 122.480888
v 111.223976 136.490448 123.576347
v 120.129974 134.558853 126.717888
v 136.741104 135.016937 126.899857
v 116.136757 147.394150 121.420074
v 140.675858 147.148087 125.166046
v 140.036438 142.719772 128.131973
v 133.913147 142.932388 121.273926
v 126.282806 145.009979 120.697098
v 120.129257 140.642120 132.444809
v 117.066391 144.929718 128.373871
v 130.681793 147.768417 122.313721
v 130.661865 137.795959 121.466316
v 141.301239 143.318924 125.533005
v 116.292389 142.806992 128.532913
v 116.070526 140.510345 130.866684
v 120.144791 142.688797 132.334335
v 126.282745 136.274536 132.287399
v 122.182732 148.100494 126.175941
v 138.150406 146.550766 129.489380
v 138.834183 146.839569 128.676468
v 122.180870 138.709335 120.955856
v 132.711182 146.938721 130.803650
v 128.627777 134.786652 131.855011
v 135.555344 147.876648 122.851166
v 116.762978 140.373871 131.698563
v 136.835403 140.681046 131.208954
v 111.965096 135.509277 125.198692
v 138.102600 140.730774 129.946457
v 136.820801 147.926941 126.163727
v 136.778076 135.668365 125.436668
v 117.619179 147.231949 124.125977
v 126.282959 133.896210 128.591446
v 114.237511 133.451645 131.003723
v 120.129898 138.709305 120.955681
v 116.857712 142.487610 130.915512
v 140.973770 144.998703 126.863167
v 113.915833 142.760269 122.400764
v 120.130020 135.225204 125.063400
v 126.283127 138.589462 132.477066
v 135.718292 140.585236 122.985100
v 134.845703 140.625580 132.299194
v 116.045845 147.135742 121.131752
v 117.285515 135.472351 131.793930
v 130.676315 135.752716 124.050621
v 116.034027 136.859711 122.379555
v 135.315628 138.439835 123.214317
v 122.183411 148.198517 124.479935
v 137.088135 144.936127 123.246376
v 114.070686 140.625961 124.309853
v 124.231438 144.986862 132.235168
v 116.029602 134.596512 126.730865
v 124.231476 148.218735 124.479736
v 126.282562 148.203674 124.479904
v 132.166443 133.299469 131.096832
v 117.246796 141.636902 131.682281
v 115.501259 147.346436 121.237137
v 140.165024 140.813629 126.553642
v 112.554276 142.168213 121.200645
v 124.228371 147.768478 122.313576
v 132.722809 133.996567 128.615219
v 128.626953 142.690796 120.527855
v 130.678207 135.227783 125.064560
v 130.675705 142.690430 120.561394
v 116.176079 145.109741 124.354889
v 118.075096 133.397125 131.092804
v 136.719650 138.620422 130.855057
v 128.627487 144.982788 132.220032
v 126.377678 133.192535 131.075226
v 128.627014 140.647232 120.605247
v 124.232262 147.696411 128.802002
v 139.645233 146.753082 127.759544
v 140.122147 145.145996 128.094574
v 136.889023 140.592163 123.645096
v 118.079102 135.735718 124.040779
v 128.627274 136.274857 132.285858
v 126.283020 140.647247 120.604706
v 111.063881 140.268219 121.085678
v 136.869247 142.674561 123.328934
v 120.129944 136.825760 122.355339
v 113.485085 135.149200 130.126831
v 136.848663 142.639160 131.173859
v 124.231979 134.544968 126.713028
v 118.075012 147.455307 122.187614
v 117.955040 144.908936 130.805054
v 136.695175 134.705948 128.754547
v 113.201607 140.837051 123.112419
v 116.065430 145.016632 120.799072
v 112.883682 135.624054 128.500992
v 136.852798 138.577240 124.028023
v 134.688889 147.882492 122.362976
v 122.181030 140.646347 120.596001
v 128.626953 134.544296 126.712708
v 128.626938 140.639984 132.500015
v 134.113358 138.772186 122.281113
v 113.095779 137.130539 127.505905
v 112.355370 138.108261 124.167854
v 136.979279 147.208832 123.723457
v 113.929680 136.965454 122.396347
v 136.608810 136.254608 130.466064
v 134.700287 145.036255 131.995895
v 137.870712 138.594376 129.868698
v 128.627472 137.779419 121.444519
v 132.727875 148.211594 124.479988
v 135.844604 141.582870 122.894104
v 120.130043 137.769424 121.431152
v 126.346069 133.185379 131.072647
v 115.509750 145.236877 122.826363
v 134.764664 148.155685 124.480461
v 134.407593 146.939957 121.584183
v 116.028114 135.741531 124.043449
v 137.703690 135.899734 125.667290
v 122.180977 137.769531 121.431274
v 124.232285 133.901718 128.592468
v 135.740494 134.984772 129.775696
v 122.182930 144.987488 132.228714
v 113.154785 139.374023 124.260437
v 118.053398 146.896118 121.323837
v 115.462418 140.707718 128.593567
v 110.933792 137.591049 122.217995
v 116.339790 147.076965 122.226318
v 118.198639 147.133057 126.258652
v 138.266251 142.699585 130.044922
v 112.786827 137.696777 125.830048
v 124.232048 148.135834 126.181313
v 128.564056 133.185669 131.072800
v 120.154076 147.713852 122.323372
v 124.234856 134.782852 131.868988
v 122.169357 133.275803 131.101273
v 111.958038 139.100571 121.227524
v 111.171135 135.449127 125.137192
v 132.667236 142.692963 120.817924
v 134.765930 147.568634 128.766708
v 141.454285 145.027451 125.870987
v 115.357498 139.130096 130.797745
v 128.626938 135.739792 124.042847
v 114.169075 137.869980 121.529541
v 124.243027 133.218842 131.084976
v 132.518448 134.875778 131.749680
v 132.734833 135.280746 125.084145
v 132.717804 138.591476 132.357117
v 139.150879 140.624191 128.740143
v 138.642273 147.648788 125.143105
v 113.120422 134.903244 128.515518
v 117.397156 143.513474 131.092926
v 141.307190 146.864105 125.678200
v 111.211548 136.695343 123.191261
v 137.791382 135.582794 126.706093
v 116.977356 146.457733 124.490967
v 124.231979 138.589279 132.481476
v 138.685486 138.681793 128.627472
v 114.277428 136.148956 130.804337
v 126.282082 146.973099 130.809418
v 134.717010 136.399185 124.088211
v 134.764771 134.719315 126.777374
v 126.282318 137.778549 121.443321
v 115.888374 135.785782 131.629745
v 116.673225 144.862442 126.571533
v 130.677292 144.985764 132.228470
v 134.776993 135.469254 125.226562
v 118.593643 146.690521 128.446671
v 115.184494 140.957687 126.879616
v 135.488647 144.941772 131.703964
v 132.730820 147.781693 122.313728
v 130.678101 147.701538 128.803070
v 136.521378 136.464569 124.710571
v 114.490250 144.678436 121.399918
v 118.096054 138.597092 132.281281
v 134.711472 134.335068 128.637039
v 112.586319 133.642273 130.810425
v 120.112556 133.359207 131.119720
v 124.232033 135.222656 125.062370
v 118.080170 133.983170 128.591034
v 134.743240 142.672806 132.207550
v 130.674500 145.008606 120.709930
# 407 vertices, 0 vertices normals

f 352 1 362
f 20 89 183
f 169 404 315
f 12 255 189
f 334 261 383
f 156 287 115
f 84 290 32
f 352 319 349
f 111 189 333
f 53 128 72
f 7 319 270
f 17 128 217
f 134 168 397
f 199 240 80
f 335 92 245
f 54 379 177
f 405 176 22
f 394 282 94
f 407 136 159
f 54 379 233
f 374 355 70
f 153 18 246
f 50 360 370
f 234 379 148
f 309 302 97
f 310 362 31
f 50 91 360
f 376 93 5
f 339 301 358
f 340 190 353
f 83 100 298
f 250 382 272
f 232 208 286
f 279 398 322
f 383 171 145
f 390 202 243
f 168 208 216
f 102 258 400
f 37 74 287
f 225 59 296
f 30 384 154
f 133 80 59
f 140 57 257
f 364 80 240
f 372 387 392
f 63 312 338
f 385 134 151
f 291 270 319
f 39 87 55
f 239 305 32
f 367 16 150
f 220 407 45
f 278 331 343
f 303 75 251
f 252 253 62
f 301 265 346
f 143 340 297
f 366 246 224
f 336 341 11
f 371 10 74
f 273 322 306
f 230 14 203
f 385 151 141
f 61 3 370
f 35 39 371
f 401 236 387
f 212 137 242
f 180 393 44
f 392 236 263
f 76 115 127
f 305 269 32
f 307 144 200
f 70 62 239
f 24 36 238
f 160 85 314
f 298 100 192
f 6 311 281
f 30 154 266
f 387 236 392
f 298 27 41
f 194 75 56
f 136 240 25
f 282 66 349
f 31 1 138
f 31 138 89
f 303 95 206
f 121 232 292
f 339 301 3
f 91 155 165
f 189 142 333
f 298 405 22
f 132 360 165
f 266 154 192
f 155 382 165
f 361 370 3
f 178 191 163
f 17 183 138
f 94 282 7
f 226 325 119
f 94 182 23
f 187 215 217
f 353 264 381
f 45 407 159
f 384 52 16
f 266 192 100
f 303 251 357
f 83 298 192
f 392 398 386
f 351 247 268
f 210 168 134
f 318 78 77
f 295 71 277
f 166 20 139
f 214 162 253
f 259 160 314
f 342 195 140
f 303 206 56
f 354 157 205
f 271 47 106
f 205 75 194
f 44 81 33
f 76 127 325
f 130 171 290
f 296 59 364
f 301 346 370
f 299 259 261
f 388 196 8
f 147 256 156
f 338 345 254
f 150 66 167
f 27 164 41
f 350 40 2
f 199 273 337
f 67 352 362
f 68 96 28
f 130 290 84
f 268 377 228
f 198 11 365
f 67 352 54
f 374 70 239
f 77 112 334
f 277 71 92
f 391 111 19
f 397 216 113
f 63 267 128
f 9 271 144
f 121 42 135
f 176 284 22
f 187 324 69
f 83 192 100
f 153 246 366
f 353 289 237
f 210 286 168
f 46 133 225
f 113 198 365
f 111 333 406
f 247 222 268
f 58 162 214
f 400 137 212
f 359 174 280
f 200 144 312
f 320 219 139
f 323 140 257
f 71 386 73
f 4 122 102
f 297 381 202
f 248 288 258
f 302 46 225
f 374 188 290
f 102 367 258
f 236 86 380
f 159 396 244
f 235 126 271
f 162 262 253
f 338 175 345
f 352 331 369
f 79 330 57
f 285 286 210
f 195 57 140
f 396 341 336
f 401 347 318
f 223 67 362
f 406 333 395
f 118 36 375
f 73 386 43
f 254 158 324
f 30 376 321
f 132 250 256
f 21 330 375
f 363 125 5
f 196 117 309
f 405 235 176
f 164 172 50
f 90 244 110
f 83 41 298
f 57 330 21
f 218 368 51
f 208 110 216
f 392 263 398
f 323 257 21
f 324 173 231
f 146 384 16
f 352 54 331
f 47 103 106
f 357 285 210
f 23 390 247
f 60 103 404
f 180 44 317
f 304 204 269
f 202 264 354
f 267 254 187
f 227 384 122
f 19 111 406
f 72 138 1
f 164 50 361
f 11 262 162
f 383 261 374
f 242 137 228
f 146 122 384
f 9 235 271
f 287 74 293
f 45 244 90
f 30 321 313
f 58 214 82
f 322 230 203
f 143 270 399
f 29 43 327
f 175 49 345
f 153 366 378
f 321 148 52
f 299 261 334
f 13 114 326
f 229 280 251
f 298 41 405
f 354 264 123
f 374 239 188
f 394 167 282
f 361 50 370
f 256 308 35
f 245 133 46
f 226 60 404
f 345 8 158
f 298 41 403
f 30 154 376
f 190 219 289
f 389 384 227
f 153 238 18
f 182 390 23
f 12 113 255
f 196 173 158
f 273 306 337
f 65 291 319
f 126 315 47
f 327 279 273
f 318 86 236
f 161 65 67
f 161 67 223
f 182 297 390
f 250 165 382
f 35 371 287
f 163 385 141
f 278 307 200
f 298 22 100
f 221 343 170
f 74 116 347
f 339 358 147
f 292 286 285
f 88 107 373
f 81 109 348
f 186 139 183
f 356 148 329
f 314 101 395
f 373 26 10
f 406 85 160
f 274 259 104
f 263 344 230
f 250 308 256
f 362 1 31
f 312 175 338
f 393 243 354
f 187 69 215
f 241 294 220
f 141 120 391
f 366 269 378
f 213 287 156
f 284 221 170
f 261 355 374
f 157 251 75
f 350 64 359
f 274 160 259
f 206 385 163
f 98 375 204
f 37 124 74
f 121 152 232
f 121 292 42
f 200 312 63
f 310 89 291
f 218 51 388
f 9 307 221
f 350 2 64
f 132 165 250
f 45 159 244
f 303 56 75
f 394 247 351
f 293 387 34
f 196 158 8
f 47 404 103
f 218 8 49
f 333 58 395
f 263 230 398
f 321 384 313
f 27 400 172
f 354 123 157
f 144 106 312
f 353 190 289
f 209 104 299
f 33 81 129
f 211 131 126
f 191 109 56
f 322 108 306
f 131 346 315
f 177 379 260
f 114 197 88
f 226 119 368
f 301 147 265
f 117 46 302
f 54 233 234
f 21 375 98
f 13 48 283
f 149 326 87
f 388 51 335
f 320 215 40
f 265 147 76
f 84 32 96
f 186 320 139
f 406 395 101
f 205 157 75
f 329 349 66
f 288 228 137
f 175 103 49
f 69 40 215
f 340 353 297
f 44 205 194
f 262 98 253
f 77 383 14
f 181 135 42
f 258 288 137
f 54 234 379
f 376 148 321
f 180 243 393
f 96 246 18
f 355 185 70
f 358 213 156
f 378 269 204
f 249 99 179
f 176 235 9
f 214 252 185
f 34 387 372
f 357 251 280
f 67 233 54
f 223 184 67
f 376 15 93
f 6 337 311
f 68 84 96
f 278 343 307
f 393 354 205
f 268 317 377
f 332 112 77
f 51 277 92
f 305 304 269
f 178 283 191
f 301 147 358
f 82 185 355
f 372 392 386
f 141 151 120
f 30 402 154
f 365 11 162
f 327 199 80
f 308 39 35
f 247 243 222
f 185 252 62
f 231 173 201
f 159 136 38
f 25 195 342
f 253 304 305
f 133 327 80
f 398 230 322
f 312 106 175
f 47 315 404
f 213 37 287
f 145 171 130
f 255 58 142
f 77 334 383
f 118 18 238
f 195 79 57
f 375 36 204
f 272 193 105
f 43 279 327
f 181 201 135
f 96 32 224
f 191 56 206
f 25 6 195
f 388 335 117
f 116 332 347
f 179 99 193
f 99 348 48
f 397 113 12
f 2 231 181
f 131 315 126
f 366 224 32
f 322 203 108
f 191 206 163
f 161 310 291
f 343 177 170
f 92 73 245
f 82 214 185
f 266 100 154
f 350 359 316
f 81 194 109
f 37 287 124
f 247 390 243
f 166 399 270
f 232 90 208
f 76 156 115
f 176 9 221
f 38 323 396
f 44 194 81
f 73 43 29
f 310 31 89
f 178 300 114
f 248 268 288
f 114 300 197
f 30 313 384
f 143 399 340
f 52 148 328
f 324 158 173
f 405 211 235
f 63 338 267
f 172 212 91
f 339 370 301
f 150 394 351
f 282 349 319
f 89 138 183
f 53 72 369
f 87 373 55
f 335 245 46
f 19 406 274
f 258 137 400
f 169 315 346
f 363 379 234
f 62 305 239
f 203 14 145
f 318 77 86
f 15 100 22
f 357 280 285
f 242 179 155
f 195 281 79
f 241 152 121
f 159 38 396
f 96 224 246
f 383 374 171
f 41 361 61
f 213 156 37
f 69 2 40
f 297 202 390
f 17 217 186
f 149 87 39
f 351 268 248
f 97 241 135
f 314 355 261
f 389 298 100
f 403 361 41
f 127 34 295
f 401 318 236
f 241 220 152
f 155 179 382
f 105 13 326
f 88 197 107
f 293 74 401
f 108 130 84
f 389 4 276
f 240 6 25
f 393 205 44
f 83 298 403
f 309 97 201
f 156 287 37
f 301 370 3
f 318 347 332
f 285 280 174
f 169 226 404
f 275 237 219
f 119 277 368
f 268 222 317
f 256 35 156
f 197 19 107
f 245 29 133
f 253 98 304
f 396 323 341
f 278 369 331
f 328 148 66
f 59 80 364
f 223 362 310
f 225 133 59
f 345 158 254
f 154 384 100
f 358 147 213
f 58 82 395
f 380 77 14
f 9 144 307
f 105 326 149
f 363 260 379
f 108 84 68
f 147 156 213
f 67 65 352
f 344 14 230
f 281 28 330
f 15 22 284
f 20 183 139
f 102 146 367
f 320 40 275
f 102 122 146
f 105 193 48
f 197 391 19
f 301 132 147
f 186 215 320
f 207 228 377
f 57 21 257
f 107 19 274
f 282 167 66
f 202 354 243
f 194 56 109
f 376 154 15
f 275 40 350
f 153 24 238
f 115 34 127
f 11 341 262
f 363 5 260
f 206 95 385
f 72 1 369
f 329 379 54
f 60 368 218
f 328 66 16
f 198 336 11
f 196 309 173
f 13 283 178
f 106 103 175
f 330 28 118
f 203 130 108
f 44 33 317
f 352 65 319
f 333 142 58
f 406 101 85
f 69 324 231
f 250 272 308
f 27 172 164
f 86 77 380
f 318 332 78
f 128 267 217
f 150 351 248
f 380 14 344
f 359 280 229
f 156 35 287
f 352 329 54
f 234 233 379
f 186 217 215
f 292 232 286
f 311 68 281
f 24 204 36
f 394 23 247
f 216 198 113
f 283 109 191
f 214 253 252
f 60 218 49
f 38 342 323
f 241 121 135
f 386 279 43
f 207 249 228
f 203 145 130
f 152 45 90
f 352 349 329
f 94 7 182
f 309 117 302
f 226 368 60
f 207 33 129
f 6 281 195
f 129 348 99
f 353 381 297
f 237 289 219
f 339 3 370
f 244 336 110
f 286 208 168
f 400 212 172
f 120 12 189
f 367 248 258
f 314 82 355
f 403 41 61
f 407 364 136
f 69 231 2
f 330 118 375
f 29 327 133
f 166 89 20
f 24 378 204
f 187 254 324
f 118 238 36
f 190 399 139
f 150 16 66
f 278 53 369
f 267 187 217
f 151 397 12
f 60 49 103
f 300 141 391
f 236 380 263
f 309 201 173
f 92 71 73
f 152 220 45
f 26 104 209
f 153 378 24
f 123 229 157
f 52 328 16
f 28 96 18
f 376 5 148
f 199 337 6
f 320 275 219
f 316 229 123
f 263 380 344
f 389 276 298
f 292 285 174
f 302 225 294
f 316 359 229
f 166 270 291
f 91 165 360
f 265 325 169
f 389 100 384
f 61 361 3
f 275 350 316
f 182 270 143
f 55 373 10
f 166 139 399
f 308 149 39
f 64 181 42
f 306 108 311
f 391 120 111
f 87 88 373
f 295 34 372
f 374 290 171
f 253 305 62
f 161 223 310
f 311 108 68
f 4 227 122
f 152 90 232
f 339 147 301
f 64 174 359
f 102 400 27
f 294 225 296
f 332 299 334
f 386 398 279
f 245 73 29
f 356 66 148
f 295 372 71
f 131 370 346
f 371 55 10
f 281 68 28
f 151 12 120
f 5 93 260
f 218 388 8
f 325 127 119
f 119 295 277
f 28 18 118
f 388 117 196
f 356 329 66
f 342 140 323
f 220 296 407
f 147 156 76
f 4 27 276
f 105 48 13
f 180 222 243
f 163 141 300
f 300 391 197
f 279 322 273
f 264 316 123
f 405 41 211
f 170 177 260
f 368 277 51
f 54 177 331
f 120 189 111
f 182 143 297
f 119 127 295
f 211 126 235
f 10 209 116
f 166 291 89
f 327 273 199
f 381 264 202
f 190 139 219
f 365 162 58
f 271 106 144
f 41 164 361
f 361 370 131
f 5 125 148
f 107 274 26
f 95 134 385
f 335 46 117
f 161 291 65
f 61 370 361
f 275 316 237
f 353 237 316
f 97 302 294
f 292 174 42
f 207 377 317
f 394 94 23
f 178 163 300
f 53 200 63
f 157 229 251
f 249 129 99
f 340 399 190
f 154 100 192
f 287 74 124
f 367 150 248
f 199 6 240
f 284 170 93
f 207 129 249
f 272 149 308
f 389 227 4
f 15 284 93
f 296 364 407
f 303 357 95
f 290 188 239
f 338 254 267
f 301 360 132
f 209 299 332
f 357 210 95
f 281 330 79
f 353 316 264
f 373 107 26
f 169 325 226
f 74 10 116
f 90 110 208
f 134 397 151
f 403 61 361
f 97 135 201
f 4 102 27
f 307 343 221
f 207 317 33
f 265 169 346
f 337 306 311
f 129 81 348
f 332 77 78
f 329 148 379
f 272 105 149
f 259 314 261
f 93 170 260
f 150 167 394
f 189 255 142
f 262 21 98
f 98 204 304
f 212 155 91
f 234 148 125
f 268 228 288
f 74 347 401
f 132 256 147
f 299 104 259
f 367 146 16
f 274 406 160
f 67 54 233
f 179 193 382
f 216 110 198
f 113 365 255
f 363 234 125
f 99 48 193
f 364 240 136
f 272 382 193
f 287 371 74
f 168 216 397
f 352 369 1
f 271 126 47
f 180 317 222
f 115 293 34
f 110 336 198
f 366 32 269
f 244 396 336
f 83 403 41
f 372 386 71
f 67 54 352
f 332 334 112
f 185 62 70
f 13 178 114
f 30 266 402
f 321 52 384
f 72 128 17
f 212 242 155
f 172 91 50
f 278 200 53
f 314 395 82
f 95 210 134
f 223 67 184
f 293 401 387
f 283 48 348
f 326 88 87
f 358 156 147
f 176 221 284
f 298 276 27
f 97 294 241
f 326 114 88
f 72 17 138
f 26 274 104
f 294 296 220
f 10 26 209
f 301 370 360
f 116 209 332
f 64 42 174
f 341 21 262
f 53 63 128
f 282 319 7
f 290 239 32
f 85 101 314
f 154 100 15
f 231 201 181
f 17 186 183
f 255 365 58
f 266 154 402
f 38 25 342
f 41 361 211
f 283 348 109
f 136 25 38
f 2 181 64
f 211 361 131
f 343 331 177
f 39 55 371
f 323 21 341
f 242 249 179
f 345 49 8
f 115 287 293
f 182 7 270
f 265 76 325
f 383 145 14
f 242 228 249
f 51 92 335
# 836 faces, 0 coords texture

# End of File