####
#
# OBJ File Generated by Meshlab
#
####
# Object domain115.obj
#
# Vertices: 675
# Faces: 1352
#
####
v 116.897736 206.017944 111.111801
v 122.629982 211.252960 110.858521
v 127.162025 200.764938 119.615417
v 114.394859 202.629715 116.410400
v 123.042473 221.215164 110.654686
v 125.115242 217.406067 122.423447
v 123.049965 226.523239 111.080292
v 131.264038 219.164017 122.499985
v 125.111000 200.599777 119.056099
v 127.162125 229.418930 122.489792
v 126.927910 205.273773 113.090919
v 115.870934 219.394745 117.212845
v 118.960709 228.653824 112.781586
v 131.264099 235.402252 121.805740
v 129.212921 209.221115 122.344543
v 116.361511 200.648468 118.889687
v 136.902435 211.241608 119.418388
v 117.024269 205.083542 119.339470
v 133.268524 227.353897 114.631836
v 118.957207 207.188797 110.731682
v 135.335052 209.225952 122.222931
v 114.928978 211.254303 110.864792
v 119.160843 229.415497 120.214134
v 137.241943 227.320297 120.804588
v 115.883095 213.181549 118.165024
v 118.947868 200.759766 118.349831
v 116.159569 225.378082 116.412033
v 131.271988 221.215347 113.533035
v 113.872429 215.213684 112.637665
v 130.013733 225.507034 113.219856
v 123.137833 223.265854 122.169121
v 129.212906 233.691299 118.704094
v 131.364761 227.391205 114.001457
v 131.263870 203.001205 120.713608
v 122.203079 221.214935 121.925652
v 133.314072 231.469498 122.465240
v 114.918518 207.182205 110.858551
v 122.076271 213.283463 122.044235
v 137.099548 221.206253 121.809898
v 133.314835 215.354965 122.484985
v 118.958084 226.524048 111.073074
v 123.137909 227.368149 122.168922
v 135.037186 223.253830 115.043777
v 134.312790 201.748718 118.045227
v 131.263962 206.968903 121.860466
v 136.537079 231.463196 121.636864
v 129.494659 202.908737 115.731186
v 127.162308 231.624069 116.166107
v 118.959480 223.264740 110.550842
v 135.336014 200.816727 119.649506
v 122.204308 227.367981 121.922417
v 123.060188 229.735153 113.916756
v 129.212906 215.355057 122.499992
v 120.997520 211.253021 110.626373
v 123.059074 201.195740 120.007988
v 120.978279 213.375931 121.649284
v 127.162140 219.164062 122.491776
v 125.111420 229.711502 113.937782
v 131.263992 225.317139 122.500008
v 125.116020 223.265839 122.413902
v 127.161964 209.221191 122.346703
v 126.950798 204.324966 113.562805
v 116.956543 211.165970 119.317146
v 116.983864 203.086823 119.335312
v 118.957703 204.986221 111.811752
v 115.751793 207.091385 118.214989
v 118.165405 232.465363 118.650772
v 114.904854 204.173279 113.033310
v 122.197914 219.163940 121.939728
v 135.779556 221.221222 115.661919
v 125.115509 219.163986 122.420235
v 135.027405 221.216995 115.041290
v 127.160721 230.599716 114.993706
v 137.464005 213.313095 120.464355
v 127.160828 235.401703 121.805809
v 135.320190 231.468460 122.242317
v 118.958023 215.354980 110.531250
v 137.241394 227.352280 118.900856
v 135.369797 235.394684 121.821220
v 128.683807 203.528549 114.905670
v 125.111000 200.766708 119.613113
v 121.002480 205.008270 111.833450
v 122.635368 213.310532 110.844025
v 114.268341 210.881210 111.199615
v 136.552811 207.151367 119.675850
v 123.964622 216.802979 110.956207
v 125.269981 219.157196 111.223991
v 114.791336 215.357925 116.467148
v 113.806381 205.373520 112.585464
v 136.286713 214.708527 117.975807
v 122.628448 209.200851 110.867180
v 118.958328 206.019730 111.114403
v 133.245926 221.212097 114.210114
v 133.141083 209.200623 116.313744
v 135.328003 203.177872 120.417816
v 136.334534 201.154984 119.802200
v 123.137817 221.214554 122.169785
v 121.008629 219.163879 110.527489
v 121.618973 233.999527 120.454453
v 116.952515 226.469788 111.163811
v 129.212906 233.510391 122.377052
v 124.068634 217.761322 110.909264
v 136.838593 209.190948 119.506149
v 131.257797 200.822510 118.394310
v 125.089577 211.252655 111.586380
v 113.614601 209.182449 112.261215
v 131.151291 213.351868 114.341614
v 116.927124 217.405960 110.668228
v 135.461517 227.367691 115.840881
v 118.958290 217.406036 110.519485
v 116.747826 215.345490 118.938461
v 123.100967 213.285233 122.293167
v 115.930328 209.195145 118.326561
v 116.975517 229.308304 116.090042
v 121.008095 223.264786 110.542366
v 122.175507 215.356750 121.989281
v 127.211433 221.214935 111.940643
v 115.831261 205.127243 118.348961
v 137.421204 211.241821 121.251808
v 114.467239 207.200912 116.656624
v 136.588928 235.448730 121.859032
v 120.996773 200.764648 119.614670
v 124.516747 226.489960 111.242447
v 129.212906 223.265884 122.500015
v 134.773361 217.492798 115.221336
v 137.388107 225.307831 118.875137
v 136.333282 216.011139 117.616760
v 133.316772 208.151642 122.160919
v 121.031921 221.213470 121.447792
v 114.929115 209.196808 110.819099
v 116.776657 217.330994 118.774986
v 121.043198 233.420563 118.864403
v 134.567719 203.040009 117.784233
v 130.293121 216.260437 113.200363
v 116.959885 223.264023 110.778397
v 116.942627 201.669632 116.879150
v 129.823792 227.381119 113.438965
v 135.213684 229.333786 116.266998
v 131.264008 215.355026 122.499992
v 127.139214 228.457382 113.019501
v 125.113716 215.354797 122.439392
v 125.112396 209.220047 122.334160
v 121.008926 229.734100 113.918053
v 119.009285 201.141083 119.915741
v 137.983795 208.552902 120.973816
v 119.063034 219.288406 120.540840
v 127.097778 203.221130 114.497299
v 129.212906 229.419113 122.500000
v 121.048759 229.418671 121.419090
v 137.941895 208.611938 120.882164
v 129.213013 208.151672 122.165970
v 129.213089 200.606659 119.057785
v 129.213043 235.402283 121.805801
v 125.130417 235.322922 121.927650
v 136.342422 229.336105 117.334312
v 135.445480 208.058380 122.029854
v 125.102882 203.041824 114.351646
v 121.008995 200.599869 119.057152
v 113.342735 207.107162 114.159889
v 125.111832 213.304214 122.457886
v 133.090912 215.518311 114.632370
v 133.268021 203.092804 117.097725
v 136.096176 211.143265 118.463501
v 135.344208 211.255005 122.316254
v 136.114182 213.296860 118.089203
v 117.870880 215.350998 119.895195
v 119.182564 217.410568 120.642746
v 131.264023 209.220947 122.345299
v 136.097931 203.323380 119.964203
v 135.341721 232.365295 117.795822
v 133.258560 200.899399 118.479942
v 129.212921 231.469803 122.489815
v 133.314789 213.303848 122.485001
v 118.959702 225.288406 110.708214
v 130.927505 211.432693 114.751640
v 127.162079 203.006165 120.692833
v 116.336082 228.668121 114.321472
v 136.257324 231.257584 117.786293
v 136.238892 201.055634 119.803604
v 133.156082 225.305557 114.331451
v 115.804260 223.246384 111.348381
v 131.264023 217.406097 122.499977
v 114.330322 202.684036 116.376457
v 125.111229 201.460068 116.762321
v 133.245972 201.741867 117.659523
v 129.426636 211.202194 113.787109
v 120.999283 206.028793 111.137131
v 123.086617 211.254013 122.299248
v 125.111153 200.722549 118.316452
v 111.633003 203.341995 114.000000
v 134.712296 207.169952 117.539330
v 135.792801 219.043274 115.796021
v 131.263992 221.214874 122.500008
v 113.695724 205.093369 115.435631
v 125.131737 204.950180 121.283699
v 118.958763 221.214844 110.526588
v 116.908165 207.188370 110.731590
v 117.814812 213.306549 119.948250
v 136.418732 234.758621 121.475380
v 133.162582 217.406082 114.341141
v 116.909172 211.253296 110.561638
v 118.971672 200.573257 119.081718
v 131.264053 213.303940 122.499985
v 137.047348 213.304413 121.762314
v 129.212891 217.406097 122.499992
v 114.234894 219.316452 114.493584
v 123.059761 202.968506 114.293922
v 135.495361 203.072983 118.637604
v 135.179916 205.074661 120.860191
v 114.060051 215.339996 115.241127
v 131.264069 235.306335 121.944435
v 123.142456 231.467865 122.147629
v 125.110962 230.628021 114.968262
v 134.457581 205.114960 117.494766
v 136.432388 227.296448 116.993767
v 131.264252 201.195816 120.015831
v 116.960960 225.278122 110.862396
v 133.316116 200.662247 119.071777
v 131.624939 211.013992 115.238213
v 117.942070 231.325775 118.572624
v 114.314651 202.586914 116.355873
v 127.166672 206.967209 121.864021
v 128.646713 213.381256 112.900658
v 114.115936 216.972839 115.165398
v 136.431625 225.284622 116.613884
v 125.115921 221.214752 122.415527
v 133.315918 235.306747 121.944931
v 117.910515 201.111267 119.737648
v 114.949539 221.099762 112.289398
v 135.347229 215.355179 122.336121
v 113.441200 205.165024 114.290726
v 133.314728 201.196671 120.017708
v 115.956543 221.256500 116.876282
v 127.162155 225.317184 122.489807
v 121.094063 207.143631 121.317604
v 130.505157 209.189697 114.814728
v 118.964920 229.669266 113.971458
v 113.626755 207.181946 112.198341
v 131.246643 203.236755 116.238426
v 117.037285 209.204697 119.314178
v 129.212906 213.303864 122.500008
v 117.687347 229.383713 118.542442
v 118.958336 219.164108 110.517036
v 127.213776 219.163071 111.943031
v 137.014221 231.439392 120.807159
v 125.110809 227.293594 111.811378
v 116.977898 227.350403 111.812332
v 114.226013 212.079620 111.258560
v 133.307495 203.012772 120.675674
v 135.811188 223.261795 115.641747
v 132.075577 212.572403 115.135406
v 117.998276 232.149536 117.782684
v 129.214645 201.674362 116.918488
v 135.322861 229.418900 122.253235
v 116.922249 215.354645 110.647972
v 125.134224 215.356293 111.409370
v 136.501907 221.276855 116.665550
v 125.065262 204.157364 113.135483
v 121.008904 201.459854 116.762398
v 116.915527 203.037369 114.330521
v 116.713364 213.323013 119.033844
v 136.566849 229.416504 121.663040
v 129.212906 211.253708 122.476585
v 127.088600 213.307556 112.235542
v 121.095421 231.455307 121.332817
v 123.059998 230.631165 114.965614
v 115.916168 225.069916 111.281013
v 124.890541 207.942551 122.125969
v 129.212936 227.368164 122.500000
v 123.137917 225.317169 122.168930
v 133.218079 205.112823 116.670616
v 121.043053 223.265610 121.429558
v 114.356300 215.414932 111.701935
v 125.116867 228.592880 112.833611
v 116.442078 227.351135 116.259613
v 127.162025 200.598816 119.055893
v 116.909859 209.204117 110.570396
v 121.009003 202.179581 115.505821
v 118.993713 232.462433 117.618156
v 118.957153 209.203384 110.545570
v 137.421829 221.211563 118.850441
v 122.656166 207.151184 110.953873
v 133.201691 223.280640 114.228317
v 131.263977 204.914276 121.255501
v 126.997803 227.330048 112.422424
v 129.213074 235.153183 120.866974
v 135.336823 225.315216 122.294350
v 135.346817 213.303940 122.333710
v 131.341797 209.193466 115.338226
v 127.162033 213.304016 122.499931
v 129.143768 217.404724 112.685204
v 118.953682 200.681091 119.643562
v 127.156136 208.149399 122.164223
v 137.100769 223.244476 121.779976
v 133.314606 209.221008 122.342407
v 127.153946 229.631989 114.019066
v 135.243347 213.319443 117.135300
v 121.146713 233.393204 120.861214
v 133.062439 207.148865 116.435478
v 122.205475 229.418716 121.919296
v 115.873047 215.416122 117.916641
v 137.806290 221.084442 120.543617
v 129.203506 229.326721 114.119659
v 121.011314 232.629730 117.507843
v 137.077835 217.418716 121.800949
v 121.008118 203.969452 112.903610
v 115.508301 225.224808 112.111694
v 121.009064 228.687378 112.749916
v 113.395363 209.053177 114.298203
v 119.120827 225.316086 120.260429
v 137.534775 217.423325 121.280785
v 125.058449 209.204987 111.661110
v 137.131348 219.164658 121.846619
v 130.250259 219.204681 113.124512
v 121.008026 225.288681 110.703140
v 136.429474 233.531250 121.602158
v 122.044403 211.251678 122.082825
v 116.964417 228.438507 112.977615
v 135.734558 217.331589 116.251930
v 131.293518 215.312454 113.876884
v 135.994751 205.594986 120.284348
v 135.333481 207.051193 121.622604
v 115.180862 223.151581 114.368645
v 114.683571 211.250168 116.753258
v 121.001717 215.355408 110.597847
v 123.060135 200.723953 118.317085
v 127.209694 223.266296 111.936867
v 115.480515 225.398712 114.342026
v 123.609047 213.294647 111.060249
v 137.451050 213.307327 121.258453
v 133.315704 200.774170 119.613548
v 116.111481 223.504990 116.674301
v 137.729126 224.510422 121.213837
v 121.016922 219.163651 121.481956
v 120.997040 209.202942 110.638138
v 133.946655 214.699966 115.562996
v 133.559280 213.269760 115.793716
v 120.992256 207.189713 110.783577
v 133.314514 204.926651 121.213638
v 131.278946 219.167221 113.516670
v 136.155579 203.045685 119.737465
v 125.560547 223.255219 111.248337
v 125.112854 235.405411 121.801468
v 115.125542 215.338455 111.120529
v 125.111084 231.628250 116.163101
v 123.504128 235.342529 121.799629
v 116.913811 213.303879 110.605209
v 135.306000 233.499573 122.163078
v 114.324516 213.251907 111.332596
v 132.872879 229.174973 115.011681
v 127.163025 233.509338 122.367081
v 123.049858 227.497375 111.683502
v 119.007195 211.178436 120.657013
v 117.265953 221.187531 118.765167
v 114.293434 206.174240 111.338051
v 125.001572 207.180176 111.824661
v 131.264053 231.469803 122.489807
v 125.114510 213.301270 111.506310
v 136.109634 205.129822 119.739067
v 137.765106 223.277603 121.200287
v 131.224045 230.393585 115.244408
v 136.599411 235.469833 121.891106
v 131.251404 217.425659 113.499008
v 114.018112 218.544998 112.936073
v 122.081841 209.254700 122.001839
v 125.215073 206.850235 121.863869
v 119.142311 213.301605 120.729958
v 114.986031 213.292313 110.960518
v 123.597229 211.253113 111.088699
v 129.092209 215.464661 112.833450
v 126.972244 207.187820 112.748055
v 133.309204 235.134125 120.880768
v 123.060143 232.677765 117.472832
v 113.762764 204.569260 113.485115
v 134.923462 225.174789 115.079620
v 133.239136 211.258194 116.121094
v 113.827591 204.014923 114.467979
v 123.060097 201.454849 116.759575
v 121.008347 221.214859 110.522362
v 128.664291 227.384247 112.979393
v 123.060120 231.626404 116.164459
v 113.692757 209.196823 115.304115
v 136.889023 231.365875 119.028160
v 136.275146 219.235855 116.475945
v 116.063934 228.041138 113.156990
v 133.318390 235.401566 121.805611
v 137.091705 229.383850 118.934967
v 122.936119 206.494934 121.882416
v 123.066872 233.592026 118.778625
v 125.119751 203.025772 120.688110
v 122.204292 225.316956 121.922417
v 129.212906 221.214890 122.500023
v 124.106491 219.171967 110.863800
v 125.116058 229.419205 122.413910
v 127.168549 204.917160 121.246780
v 122.838280 215.476273 110.821671
v 122.204048 223.266068 121.923019
v 136.914612 215.331436 118.788986
v 115.676300 224.964401 115.335312
v 123.044319 223.265198 110.656105
v 114.707977 213.312241 116.594452
v 129.050919 205.127869 114.426483
v 133.804657 229.583420 115.544281
v 122.217407 231.466583 121.891609
v 122.934242 206.410828 121.833252
v 118.998772 207.158051 120.424889
v 123.092735 209.227905 122.226936
v 119.177208 215.364136 120.696190
v 135.827286 207.150482 118.608604
v 131.264771 232.666397 117.482140
v 130.369095 205.405899 115.025177
v 129.212936 219.164078 122.500015
v 125.124832 233.504730 122.288475
v 127.162003 232.693268 117.460381
v 123.185478 233.493210 122.011772
v 123.059975 202.181366 115.506889
v 123.134041 217.404480 122.187531
v 122.194252 217.405197 121.949623
v 116.457771 200.656540 118.898033
v 114.628036 209.201096 116.787910
v 137.571960 219.034058 121.386124
v 127.162132 221.214844 122.489799
v 123.543182 235.365646 121.820061
v 117.969894 218.783371 119.799866
v 137.943085 208.225479 121.087273
v 132.552872 213.962448 114.944519
v 133.239761 219.168594 114.220879
v 119.751923 233.491013 119.814354
v 137.476913 215.362061 121.254814
v 119.059303 221.209167 120.342644
v 137.489105 223.265762 118.844566
v 131.084213 229.248627 114.515198
v 134.731644 209.220551 117.414177
v 129.212952 200.762375 118.341347
v 117.978195 200.711411 119.578896
v 133.314438 229.419113 122.475380
v 128.943130 225.239456 112.771439
v 116.951698 221.213470 110.749367
v 114.551720 219.170532 112.061623
v 117.121765 229.302109 114.205894
v 122.415871 206.055573 111.256599
v 121.007751 217.405701 110.558708
v 118.948029 209.202789 120.519325
v 117.027863 207.129410 119.293915
v 127.165558 235.144211 120.873055
v 127.162132 233.689224 118.705666
v 124.294746 221.406754 110.881927
v 133.314880 221.214874 122.485817
v 129.160873 207.145905 114.115730
v 115.950249 211.246689 118.326210
v 113.513351 211.200119 114.409088
v 136.816391 208.568481 121.692711
v 137.613525 217.405258 120.364769
v 135.325287 227.367111 122.261620
v 118.957687 213.303955 110.527847
v 121.012001 203.086197 120.517105
v 129.212769 231.594299 116.192139
v 128.274094 228.418045 113.274239
v 129.153137 219.090454 112.726936
v 118.957947 203.958328 112.894325
v 117.451202 229.956696 115.304886
v 125.110397 202.197205 115.516617
v 125.116631 231.469391 122.403603
v 118.993813 231.471268 116.292847
v 127.162025 211.253540 122.475960
v 131.263672 235.152969 120.867058
v 118.954140 201.499878 116.792313
v 123.060600 228.676727 112.758347
v 125.140999 235.090866 120.916565
v 119.101700 223.263687 120.283684
v 130.032043 214.832962 113.306114
v 135.329086 201.200607 119.957870
v 134.974838 219.190964 115.112396
v 129.203812 230.521484 115.071358
v 122.424294 233.501831 121.623726
v 121.009247 230.620071 114.974869
v 133.314865 219.164017 122.490456
v 127.172737 215.362564 112.079300
v 135.229889 201.230820 118.905731
v 114.115761 217.972580 114.908821
v 113.660858 213.242676 114.264786
v 116.932259 219.163681 110.690620
v 123.135330 219.163696 122.178940
v 131.263809 200.622589 119.061943
v 114.125275 202.538055 116.233002
v 118.958488 202.205734 115.521263
v 125.140259 217.376099 111.251068
v 137.726761 219.169159 120.581573
v 121.045891 227.368088 121.424728
v 121.010048 201.207062 119.979218
v 131.264069 223.265930 122.499992
v 131.264053 227.368088 122.500008
v 131.263992 211.253540 122.476578
v 121.009407 231.611313 116.176849
v 117.910248 217.393997 119.856537
v 125.678871 225.189972 111.359779
v 123.095474 215.327469 122.229706
v 128.326233 212.094406 112.955025
v 117.362221 223.297119 118.653976
v 129.212875 201.196396 120.014244
v 129.212631 204.915146 121.252953
v 137.639877 225.343445 120.801727
v 117.449867 225.296570 118.626709
v 125.111000 232.690918 117.462311
v 129.212906 206.969223 121.859238
v 123.041611 217.400574 110.731590
v 117.800400 211.774445 119.948914
v 127.167511 225.311371 112.004539
v 130.221390 204.401291 115.240738
v 113.701149 211.256241 112.237579
v 115.277542 221.090942 115.713554
v 123.040634 225.287689 110.769913
v 125.380081 221.134109 111.214607
v 124.398933 223.276413 110.886070
v 115.521034 223.040359 115.586082
v 121.008850 202.954300 114.283752
v 117.527855 227.358383 118.596107
v 121.008652 227.517990 111.664894
v 115.185677 217.376572 111.192543
v 129.212891 225.316986 122.500008
v 114.216728 207.163895 111.194855
v 115.861847 217.475281 117.598892
v 137.980087 208.688293 120.896584
v 123.052628 204.034805 112.968597
v 127.174652 201.497467 116.770836
v 120.920052 211.253571 121.619942
v 118.957626 211.252899 110.521965
v 115.869545 203.052856 118.360161
v 133.314621 225.316940 122.478691
v 129.239365 209.207443 113.982315
v 118.976181 230.506531 115.062439
v 117.816277 231.044754 116.652878
v 131.264099 208.151596 122.166336
v 131.241837 201.834534 117.174461
v 123.040466 219.168106 110.675774
v 135.221420 200.806122 119.349129
v 127.092163 209.220993 112.604057
v 125.116035 225.316956 122.413895
v 116.142921 226.243896 111.405937
v 122.943710 206.400192 121.853470
v 123.070145 203.011627 120.664383
v 119.130081 233.147232 118.999115
v 116.824326 202.364838 115.601189
v 116.910858 203.996017 112.921661
v 137.031586 211.262344 121.740959
v 119.244522 231.434006 120.110634
v 134.282578 216.053741 115.260178
v 115.797997 200.685638 118.831711
v 137.812561 223.255478 120.323235
v 136.609161 227.338608 121.690361
v 135.342072 235.325073 121.927917
v 133.311401 233.637329 118.748909
v 133.316635 232.583527 117.552917
v 132.321411 230.343521 115.405724
v 129.213058 200.764893 119.615494
v 123.105003 205.242294 111.890160
v 137.126312 229.408310 120.804100
v 124.615570 225.372330 111.003906
v 115.872528 227.290756 114.407555
v 131.293533 207.160934 115.423019
v 121.092010 204.989929 120.966103
v 118.962715 227.506073 111.677322
v 136.236679 232.132523 118.208557
v 113.959435 213.280991 115.325409
v 118.958412 202.963394 114.289551
v 127.199791 217.407715 111.986313
v 129.713989 213.126236 113.554146
v 135.350632 217.406479 122.356041
v 137.662476 221.321762 121.239182
v 134.974319 211.367676 117.336006
v 121.005943 217.405746 121.505157
v 133.314758 223.265854 122.484734
v 124.989754 205.244797 112.426376
v 127.162231 200.729004 118.318367
v 131.397720 205.135376 115.740540
v 121.044609 225.316940 121.426857
v 130.205704 223.271271 113.199768
v 125.112198 211.254288 122.454094
v 135.291779 235.024338 121.007065
v 133.312546 233.508133 122.355042
v 123.587952 209.203781 111.114792
v 120.998146 213.304031 110.621277
v 129.062347 223.262909 112.739563
v 114.920464 205.118134 111.909348
v 131.237701 225.310562 113.662537
v 113.657448 207.146210 115.325508
v 114.407341 205.105362 116.606003
v 114.816284 221.126663 114.373444
v 130.422562 207.150742 114.936737
v 131.264160 200.764908 119.615509
v 123.137909 229.418945 122.169022
v 123.060036 200.599747 119.056137
v 123.737289 215.166367 111.003326
v 119.377914 233.137497 119.749908
v 113.926346 217.382324 112.833168
v 127.162727 235.306396 121.943771
v 136.437500 217.601868 117.191170
v 130.312607 217.365097 113.148750
v 114.901268 217.461166 116.306969
v 135.560913 205.155350 118.534988
v 130.217209 221.215363 113.176910
v 125.111298 201.197021 120.002716
v 113.777847 215.236938 114.209282
v 125.116005 227.368149 122.413902
v 133.250992 231.359497 116.445518
v 135.350204 215.351761 116.454391
v 127.162170 227.368073 122.489807
v 136.422134 232.938950 119.452835
v 114.876366 206.009064 111.130623
v 115.839333 227.049332 112.379738
v 115.039520 219.114349 116.016258
v 136.785416 213.227829 119.043129
v 115.236908 223.082672 112.266838
v 129.212921 235.306381 121.944397
v 137.197769 219.296188 118.531799
v 127.162125 217.406113 122.491753
v 135.642059 225.476669 115.636566
v 131.260880 223.266602 113.572449
v 123.528282 207.152603 111.239655
v 131.256958 231.529358 116.255241
v 119.048920 205.084717 120.335014
v 113.799385 213.189117 112.379532
v 116.910965 204.990173 111.814529
v 129.213043 203.003616 120.704147
v 127.162315 201.197891 120.009758
v 127.162170 223.265915 122.489807
v 116.397285 200.688721 118.888771
v 113.836067 217.438843 114.477997
v 131.263992 229.418945 122.499992
v 129.213165 232.690735 117.462326
v 121.023285 209.115677 121.602776
v 115.480972 219.113907 111.202599
v 114.963577 203.404266 114.455360
v 127.162148 215.354996 122.491867
v 123.094589 234.778671 121.184692
v 133.313705 206.977493 121.831604
v 131.264023 233.510315 122.377060
v 131.263840 233.687897 118.706764
v 117.848160 202.235626 119.858734
v 117.048546 219.244598 118.890442
v 136.480057 223.284317 116.545013
v 134.564529 227.102646 115.188461
v 127.162277 231.469666 122.479622
v 137.516434 215.365662 120.414536
v 135.146072 231.316849 117.059891
v 135.349731 221.214264 122.346970
v 133.314377 227.368118 122.475967
v 120.982819 215.351730 121.546638
v 114.010902 218.822601 114.073776
v 115.701927 221.189285 111.323914
v 118.827576 203.123032 120.161758
v 114.428375 217.355087 111.811180
v 133.314484 211.253983 122.461830
v 125.111580 233.671295 118.719612
v 137.412659 211.212738 120.460632
v 114.241035 209.192459 111.194435
v 135.952042 209.205490 118.509277
v 129.072098 221.214951 112.721207
v 136.332870 201.104950 119.810966
v 136.906937 225.191437 121.707909
v 123.059807 200.766800 119.613129
v 119.130310 227.367737 120.249931
v 136.770050 233.289398 120.943611
v 135.352448 219.163818 122.362907
v 121.010826 200.727615 118.319450
v 137.052246 215.358978 121.769737
v 127.138145 202.327362 115.604973
v 127.161301 211.207977 112.433563
v 113.749092 211.245651 115.263412
v 135.346588 223.265106 122.330368
v 133.314865 217.406174 122.487999
v 137.107483 217.419983 118.725250
v 121.010338 226.528671 111.064362
v 137.067093 209.212982 121.669533
v 135.282089 233.406708 118.950371
# 675 vertices, 0 vertices normals

f 42 604 538
f 435 292 419
f 518 352 308
f 530 537 371
f 482 650 632
f 303 432 361
f 9 574 189
f 6 616 634
f 258 147 62
f 113 420 324
f 639 651 144
f 551 121 316
f 394 463 10
f 543 221 4
f 215 387 155
f 303 137 33
f 255 108 519
f 601 28 577
f 64 18 651
f 113 240 66
f 139 182 40
f 613 307 328
f 137 585 33
f 596 614 101
f 374 231 377
f 152 104 434
f 105 537 668
f 614 211 637
f 365 317 407
f 596 75 614
f 529 647 287
f 224 88 210
f 487 87 393
f 174 315 41
f 52 274 58
f 646 39 313
f 630 410 638
f 84 248 510
f 638 372 466
f 260 543 486
f 263 290 241
f 113 66 420
f 392 422 626
f 191 600 409
f 581 312 369
f 173 40 288
f 146 129 334
f 638 552 372
f 168 295 128
f 243 442 98
f 628 224 603
f 505 284 501
f 49 379 115
f 45 533 636
f 5 447 400
f 287 660 294
f 78 24 387
f 658 577 583
f 628 480 599
f 369 105 329
f 184 667 462
f 622 29 481
f 86 487 102
f 487 478 566
f 277 20 280
f 26 16 419
f 431 549 126
f 308 468 143
f 34 339 249
f 223 471 370
f 143 476 237
f 69 35 97
f 636 322 209
f 475 346 415
f 84 22 248
f 375 109 642
f 203 139 173
f 220 67 546
f 166 408 367
f 298 475 404
f 120 420 66
f 544 623 584
f 124 234 520
f 237 531 440
f 130 656 37
f 17 145 655
f 544 565 460
f 385 247 318
f 170 608 675
f 214 600 191
f 261 198 507
f 477 664 568
f 628 599 224
f 131 522 12
f 444 240 406
f 213 73 345
f 25 111 261
f 113 324 450
f 481 603 210
f 379 5 115
f 78 502 24
f 502 360 333
f 205 182 139
f 505 45 284
f 518 562 41
f 227 551 348
f 402 575 411
f 583 437 508
f 82 441 187
f 405 195 390
f 350 403 605
f 177 440 461
f 53 139 203
f 556 573 619
f 499 470 430
f 470 310 576
f 67 594 546
f 541 390 602
f 568 664 305
f 332 511 515
f 344 519 652
f 116 417 497
f 301 599 522
f 459 314 601
f 604 394 607
f 659 179 96
f 479 133 44
f 53 616 205
f 50 472 179
f 394 10 607
f 354 430 146
f 205 57 412
f 295 653 21
f 80 62 147
f 543 633 221
f 308 237 13
f 189 525 184
f 262 245 557
f 532 114 461
f 309 159 238
f 298 546 594
f 573 62 11
f 374 68 89
f 13 440 318
f 363 161 200
f 423 343 154
f 531 461 440
f 359 321 85
f 98 535 379
f 93 473 72
f 21 674 452
f 95 209 169
f 415 413 463
f 150 145 103
f 459 117 244
f 351 101 172
f 151 293 61
f 76 348 46
f 82 556 441
f 136 543 4
f 314 340 601
f 484 218 171
f 145 425 523
f 479 208 133
f 674 523 145
f 434 104 534
f 159 586 231
f 212 415 463
f 363 200 340
f 367 648 56
f 101 614 637
f 128 156 322
f 59 529 572
f 269 492 59
f 252 279 542
f 158 122 661
f 18 621 651
f 64 228 16
f 389 654 469
f 307 267 610
f 605 645 553
f 357 637 36
f 319 384 192
f 515 511 588
f 183 194 221
f 309 106 451
f 39 294 360
f 445 286 153
f 653 173 164
f 533 128 636
f 323 328 399
f 353 56 526
f 291 134 598
f 9 3 276
f 141 634 290
f 192 384 70
f 606 165 90
f 15 465 263
f 467 278 486
f 305 313 421
f 454 550 660
f 60 538 626
f 635 469 343
f 256 478 487
f 570 657 163
f 669 564 401
f 540 388 366
f 477 448 664
f 576 391 397
f 291 459 244
f 439 588 206
f 105 668 358
f 93 72 283
f 367 408 648
f 381 345 373
f 468 274 52
f 155 387 178
f 64 118 18
f 651 456 490
f 88 401 210
f 674 119 523
f 80 402 62
f 43 617 375
f 536 179 659
f 492 629 647
f 202 122 158
f 299 214 191
f 551 79 121
f 605 403 138
f 183 221 377
f 56 116 497
f 262 46 245
f 445 75 469
f 163 17 612
f 251 376 337
f 383 557 245
f 516 207 306
f 541 405 390
f 172 101 357
f 309 669 382
f 532 464 252
f 666 311 429
f 548 16 627
f 455 54 582
f 304 373 389
f 31 270 60
f 260 633 543
f 8 193 477
f 186 175 107
f 486 543 136
f 326 184 378
f 9 276 574
f 46 316 663
f 609 521 355
f 35 397 31
f 407 188 142
f 443 353 526
f 573 11 356
f 437 30 137
f 302 421 569
f 211 227 580
f 14 386 227
f 182 8 671
f 277 22 130
f 376 570 337
f 387 24 557
f 233 499 354
f 660 502 333
f 239 162 271
f 241 290 634
f 304 389 132
f 131 495 166
f 342 327 496
f 149 23 265
f 120 382 420
f 242 114 220
f 27 399 328
f 152 276 555
f 64 639 228
f 317 631 526
f 635 343 423
f 482 438 650
f 671 477 568
f 11 449 371
f 17 655 612
f 459 598 314
f 355 521 238
f 106 238 521
f 124 520 491
f 249 339 209
f 152 590 484
f 112 497 160
f 110 442 243
f 260 565 544
f 166 495 408
f 241 53 203
f 434 253 574
f 365 407 388
f 562 13 318
f 643 148 10
f 483 97 71
f 233 332 499
f 424 146 167
f 107 337 426
f 552 675 579
f 183 485 221
f 492 647 529
f 55 602 81
f 124 626 234
f 613 323 588
f 613 650 181
f 624 284 34
f 628 649 480
f 544 460 623
f 373 504 654
f 473 70 72
f 60 626 422
f 622 349 273
f 219 94 376
f 380 140 285
f 220 546 23
f 669 324 420
f 185 44 162
f 522 599 12
f 516 416 207
f 223 370 478
f 575 271 299
f 259 416 278
f 643 10 463
f 332 399 27
f 582 83 325
f 277 201 22
f 351 596 101
f 673 315 512
f 556 258 573
f 220 114 532
f 549 360 502
f 143 52 266
f 183 4 485
f 538 234 626
f 658 601 577
f 128 295 156
f 71 226 57
f 510 106 656
f 524 258 556
f 328 559 275
f 256 264 478
f 536 50 179
f 112 160 578
f 444 118 66
f 1 197 37
f 649 206 480
f 191 409 433
f 168 493 295
f 236 219 175
f 437 380 285
f 31 60 226
f 150 425 145
f 321 150 85
f 438 181 650
f 322 156 150
f 15 61 465
f 488 421 302
f 675 199 579
f 583 577 30
f 149 300 51
f 393 87 447
f 178 387 383
f 410 552 638
f 177 461 114
f 337 336 426
f 286 14 153
f 269 148 492
f 70 384 257
f 199 121 362
f 125 192 473
f 317 38 188
f 672 453 488
f 45 636 339
f 104 185 534
f 65 187 92
f 532 531 464
f 201 280 527
f 152 484 104
f 644 429 453
f 621 561 456
f 409 103 657
f 152 555 590
f 627 528 16
f 67 252 542
f 349 22 368
f 517 662 310
f 196 98 379
f 89 584 609
f 215 78 387
f 623 65 92
f 297 163 165
f 405 388 540
f 6 71 616
f 344 273 368
f 498 264 668
f 432 19 350
f 195 366 395
f 177 318 440
f 175 219 251
f 232 472 50
f 615 488 281
f 208 341 359
f 99 635 475
f 617 250 641
f 356 371 312
f 317 526 38
f 218 479 171
f 620 605 410
f 186 107 567
f 135 267 181
f 418 483 417
f 2 369 83
f 309 382 159
f 446 654 504
f 313 39 569
f 600 359 85
f 151 15 533
f 231 89 238
f 430 470 272
f 115 5 400
f 612 655 74
f 575 560 411
f 348 316 46
f 564 210 401
f 555 625 500
f 132 99 542
f 596 154 343
f 164 545 674
f 258 62 573
f 664 646 313
f 79 362 121
f 585 180 33
f 555 3 625
f 120 66 587
f 455 582 77
f 280 335 527
f 316 121 199
f 467 259 278
f 206 588 511
f 7 123 246
f 280 338 335
f 632 229 439
f 305 421 311
f 514 342 558
f 289 299 94
f 63 353 443
f 48 345 73
f 427 125 473
f 103 145 17
f 437 285 508
f 304 381 373
f 627 221 528
f 83 329 396
f 392 124 193
f 205 412 182
f 200 125 427
f 230 666 204
f 269 10 148
f 500 176 624
f 34 284 339
f 157 147 258
f 595 628 29
f 274 285 140
f 505 293 151
f 270 42 538
f 407 142 268
f 618 93 283
f 286 466 14
f 315 400 512
f 530 589 236
f 288 230 204
f 506 593 86
f 300 212 591
f 308 352 468
f 505 151 45
f 294 333 360
f 568 305 666
f 241 203 493
f 108 632 519
f 19 642 403
f 265 546 298
f 289 94 219
f 94 433 376
f 544 584 68
f 657 103 17
f 236 289 219
f 614 153 211
f 198 166 367
f 657 17 163
f 58 140 296
f 326 378 665
f 268 142 293
f 351 154 596
f 608 663 199
f 605 138 645
f 25 301 111
f 409 85 103
f 49 115 174
f 116 418 417
f 613 328 323
f 43 250 617
f 64 651 639
f 92 187 20
f 1 37 609
f 503 310 470
f 135 196 49
f 183 377 231
f 160 290 465
f 75 343 469
f 335 282 91
f 384 615 257
f 181 267 307
f 126 549 502
f 30 585 137
f 91 581 2
f 488 311 421
f 58 296 73
f 51 300 591
f 592 158 661
f 183 221 4
f 623 1 584
f 520 269 59
f 220 532 67
f 506 102 535
f 673 7 352
f 288 204 545
f 299 191 94
f 132 635 99
f 489 149 51
f 47 80 147
f 370 566 478
f 527 54 455
f 645 178 170
f 467 486 136
f 167 146 334
f 224 210 603
f 287 454 660
f 19 403 350
f 187 441 338
f 12 233 354
f 545 204 330
f 673 518 41
f 494 304 279
f 340 200 427
f 301 522 131
f 369 312 105
f 235 631 540
f 242 275 114
f 494 279 464
f 669 401 324
f 153 14 211
f 151 61 15
f 370 471 320
f 447 513 514
f 300 404 212
f 448 572 646
f 587 118 221
f 456 55 490
f 372 79 386
f 266 213 381
f 493 203 653
f 388 268 366
f 25 401 88
f 512 514 558
f 201 368 22
f 375 617 109
f 263 493 168
f 458 303 296
f 2 581 369
f 206 511 611
f 370 320 134
f 151 533 45
f 48 73 474
f 131 640 495
f 415 346 413
f 230 568 666
f 529 287 670
f 484 590 331
f 659 96 341
f 647 436 454
f 197 277 130
f 637 580 36
f 135 49 217
f 565 278 516
f 447 87 513
f 48 457 414
f 391 51 42
f 283 72 43
f 216 232 331
f 306 207 524
f 593 487 86
f 627 16 419
f 193 448 477
f 48 414 504
f 658 583 327
f 587 66 118
f 334 129 69
f 1 609 584
f 254 262 550
f 156 21 452
f 446 445 654
f 571 418 116
f 530 449 589
f 484 171 104
f 366 268 222
f 606 398 127
f 164 288 545
f 298 594 428
f 664 313 305
f 21 164 674
f 497 141 160
f 33 180 19
f 228 144 292
f 349 248 22
f 184 525 667
f 252 464 279
f 4 221 485
f 545 330 119
f 471 107 320
f 32 638 466
f 433 657 570
f 223 567 471
f 59 492 529
f 134 363 598
f 524 157 258
f 135 217 267
f 253 525 574
f 313 569 421
f 303 361 474
f 392 193 8
f 332 503 499
f 150 523 425
f 36 580 76
f 572 670 646
f 450 261 63
f 259 378 416
f 586 120 587
f 54 91 2
f 509 239 575
f 97 226 71
f 64 528 118
f 457 620 630
f 652 29 273
f 265 23 546
f 552 579 372
f 271 214 299
f 410 553 552
f 175 251 107
f 301 131 111
f 673 352 518
f 606 597 319
f 156 452 150
f 490 55 661
f 298 99 475
f 218 50 536
f 673 512 7
f 40 671 230
f 269 607 10
f 242 23 662
f 535 102 393
f 456 541 55
f 520 59 491
f 380 137 303
f 77 582 325
f 548 419 16
f 412 422 392
f 309 451 669
f 655 119 74
f 173 288 164
f 157 667 147
f 613 588 229
f 555 276 3
f 350 605 554
f 528 221 118
f 163 612 165
f 372 579 79
f 33 19 432
f 412 392 8
f 556 619 282
f 37 656 521
f 445 469 654
f 595 439 364
f 431 302 549
f 489 662 149
f 660 24 502
f 643 413 351
f 651 621 456
f 460 516 306
f 606 90 398
f 665 378 259
f 402 509 575
f 437 137 380
f 608 245 663
f 228 435 16
f 91 619 581
f 19 375 642
f 581 356 312
f 204 429 330
f 250 257 641
f 193 491 448
f 606 125 547
f 622 273 29
f 500 625 176
f 323 515 588
f 653 164 21
f 357 36 436
f 482 243 438
f 402 449 11
f 486 278 565
f 198 367 353
f 549 569 360
f 538 604 234
f 96 169 341
f 388 407 268
f 47 239 509
f 239 271 575
f 89 68 584
f 307 610 328
f 246 285 274
f 27 275 517
f 567 107 471
f 402 411 449
f 63 507 353
f 374 633 68
f 159 231 238
f 578 160 465
f 142 578 61
f 560 299 289
f 623 92 1
f 104 171 185
f 314 363 340
f 489 51 391
f 494 266 381
f 274 140 58
f 243 98 196
f 619 573 356
f 495 167 408
f 108 77 110
f 370 291 566
f 5 393 447
f 652 519 439
f 561 235 405
f 594 542 428
f 20 187 338
f 132 389 635
f 130 84 656
f 325 83 396
f 89 355 238
f 408 571 648
f 284 45 339
f 592 189 326
f 540 366 195
f 414 457 630
f 334 69 418
f 67 532 252
f 225 126 78
f 579 362 79
f 518 308 13
f 202 292 122
f 76 46 262
f 165 612 398
f 494 381 304
f 107 251 337
f 109 617 225
f 660 550 24
f 398 672 597
f 406 631 235
f 25 88 301
f 113 450 63
f 48 474 457
f 267 539 610
f 391 42 270
f 535 393 5
f 217 100 539
f 260 486 565
f 438 243 196
f 433 409 657
f 329 358 593
f 75 153 614
f 436 254 454
f 144 490 122
f 637 211 580
f 12 611 511
f 427 473 93
f 495 424 167
f 218 536 479
f 165 398 90
f 472 95 96
f 331 232 50
f 32 466 286
f 476 531 237
f 416 462 207
f 370 134 291
f 658 327 117
f 666 305 311
f 172 357 629
f 533 168 128
f 575 299 560
f 291 244 566
f 180 375 19
f 268 293 222
f 402 11 62
f 332 27 503
f 398 597 127
f 150 145 523
f 337 297 606
f 500 216 590
f 496 327 508
f 418 69 483
f 139 40 173
f 612 74 398
f 442 396 506
f 624 34 216
f 255 519 344
f 411 560 589
f 443 526 631
f 553 675 552
f 452 674 145
f 148 629 492
f 606 319 125
f 28 427 93
f 223 478 264
f 232 249 472
f 635 423 346
f 319 597 384
f 346 154 413
f 160 141 290
f 349 510 248
f 484 331 218
f 373 654 389
f 446 32 286
f 161 606 547
f 337 570 297
f 217 539 267
f 202 419 292
f 514 513 342
f 414 446 504
f 563 383 608
f 257 615 281
f 397 391 270
f 246 496 508
f 460 306 65
f 40 230 288
f 675 608 199
f 672 488 615
f 406 443 631
f 63 261 507
f 197 130 37
f 302 569 549
f 597 672 615
f 580 227 348
f 410 605 553
f 270 538 60
f 146 430 129
f 18 444 621
f 277 280 201
f 516 278 416
f 474 361 457
f 282 619 91
f 107 426 320
f 338 282 335
f 342 117 327
f 202 158 665
f 648 571 116
f 283 43 180
f 226 60 422
f 641 431 126
f 344 652 273
f 398 74 644
f 591 394 604
f 74 119 330
f 182 671 40
f 389 469 635
f 174 115 315
f 242 220 23
f 597 615 384
f 617 641 225
f 149 662 23
f 13 237 440
f 217 174 100
f 99 428 542
f 470 576 272
f 414 32 446
f 41 562 100
f 201 527 347
f 143 468 52
f 468 246 274
f 459 601 658
f 610 247 385
f 249 209 95
f 214 208 600
f 130 22 84
f 253 239 47
f 123 496 246
f 81 602 3
f 337 606 336
f 627 4 221
f 71 57 616
f 669 420 382
f 197 20 277
f 449 411 589
f 644 330 429
f 582 2 83
f 53 634 616
f 602 390 625
f 143 266 476
f 643 172 148
f 475 635 346
f 466 372 386
f 481 210 564
f 20 338 280
f 180 43 375
f 379 535 5
f 183 231 194
f 48 504 345
f 426 336 161
f 380 303 458
f 27 328 275
f 162 44 133
f 628 603 29
f 670 287 294
f 491 572 448
f 65 82 187
f 82 524 556
f 208 359 600
f 583 30 437
f 489 310 662
f 56 648 116
f 272 397 35
f 30 577 618
f 294 660 333
f 473 192 70
f 577 28 618
f 303 474 296
f 349 368 273
f 476 266 494
f 281 302 431
f 8 477 671
f 636 128 322
f 548 627 419
f 194 587 221
f 387 557 383
f 65 306 82
f 589 560 289
f 306 524 82
f 629 436 647
f 124 491 193
f 225 78 215
f 308 143 237
f 593 358 256
f 35 31 97
f 481 29 603
f 260 68 633
f 412 8 182
f 205 616 57
f 624 176 501
f 505 501 222
f 476 494 464
f 257 281 431
f 374 377 633
f 495 640 424
f 624 501 284
f 604 607 234
f 26 259 467
f 361 554 620
f 424 640 146
f 109 215 155
f 643 463 413
f 434 534 253
f 241 634 53
f 451 510 481
f 467 136 16
f 255 455 77
f 562 318 247
f 670 294 39
f 171 479 44
f 530 371 449
f 97 31 226
f 12 354 640
f 673 41 315
f 46 663 245
f 207 462 157
f 133 208 214
f 530 236 186
f 562 247 100
f 226 422 57
f 346 423 154
f 201 347 368
f 376 433 570
f 326 189 184
f 414 630 32
f 323 399 515
f 111 131 166
f 338 441 282
f 632 650 229
f 559 177 114
f 228 639 144
f 610 177 559
f 169 321 359
f 18 118 444
f 328 610 559
f 487 566 87
f 439 229 588
f 462 667 157
f 38 56 497
f 374 89 231
f 202 665 26
f 148 172 629
f 555 500 590
f 395 222 501
f 196 379 49
f 517 242 662
f 476 464 531
f 55 541 602
f 235 540 405
f 621 406 235
f 67 542 594
f 113 63 240
f 1 92 197
f 558 496 123
f 317 188 407
f 152 434 276
f 335 91 54
f 161 547 125
f 94 191 433
f 340 427 28
f 228 292 435
f 265 404 300
f 354 499 430
f 212 463 394
f 142 61 293
f 170 178 563
f 380 458 140
f 397 270 31
f 108 110 482
f 622 481 510
f 646 670 39
f 365 540 631
f 453 429 311
f 520 607 269
f 358 668 264
f 403 642 109
f 72 250 43
f 435 419 16
f 444 66 240
f 162 133 214
f 532 461 531
f 570 163 297
f 80 509 402
f 207 157 524
f 579 199 362
f 390 395 176
f 620 554 605
f 347 344 368
f 550 557 24
f 381 213 345
f 231 586 194
f 390 176 625
f 498 567 223
f 109 225 215
f 186 567 498
f 558 342 496
f 240 443 406
f 430 272 129
f 643 351 172
f 599 480 611
f 400 514 512
f 608 383 245
f 602 625 3
f 601 340 28
f 109 155 138
f 386 79 551
f 54 2 582
f 216 34 232
f 565 516 460
f 593 256 487
f 459 658 117
f 186 668 537
f 7 246 352
f 619 356 581
f 9 81 3
f 417 483 6
f 378 462 416
f 454 254 550
f 550 262 557
f 364 439 649
f 613 181 307
f 47 147 667
f 457 361 620
f 405 540 388
f 138 155 645
f 101 637 357
f 224 599 88
f 47 509 80
f 15 168 533
f 202 26 419
f 12 511 233
f 347 255 344
f 479 341 208
f 661 55 81
f 438 135 181
f 347 527 455
f 571 334 418
f 458 296 140
f 204 666 429
f 240 63 443
f 507 198 353
f 218 331 50
f 669 481 564
f 291 598 459
f 309 238 106
f 26 467 16
f 329 105 358
f 98 506 535
f 392 626 124
f 586 382 120
f 472 96 179
f 556 282 441
f 444 406 621
f 129 35 69
f 209 322 321
f 161 336 606
f 38 497 112
f 249 95 472
f 303 33 432
f 450 401 25
f 85 150 103
f 373 345 504
f 292 144 122
f 27 517 503
f 627 16 136
f 263 465 290
f 600 85 409
f 609 37 521
f 125 319 192
f 434 574 276
f 497 417 141
f 51 591 42
f 254 76 262
f 489 576 310
f 159 382 586
f 400 447 514
f 42 591 604
f 450 324 401
f 39 360 569
f 645 155 178
f 466 386 14
f 534 185 162
f 630 620 410
f 404 475 415
f 491 59 572
f 129 272 35
f 69 97 483
f 595 29 652
f 30 618 585
f 500 624 216
f 436 36 254
f 385 318 177
f 412 57 422
f 178 383 563
f 530 186 537
f 26 665 259
f 132 542 279
f 585 283 180
f 480 206 611
f 674 545 119
f 474 73 296
f 621 235 561
f 15 263 168
f 203 173 653
f 632 439 519
f 378 184 462
f 396 329 593
f 589 289 236
f 398 644 672
f 354 146 640
f 482 110 243
f 144 651 490
f 438 196 135
f 176 395 501
f 405 540 195
f 366 222 395
f 356 11 371
f 520 234 607
f 115 400 315
f 365 631 317
f 70 257 250
f 297 165 606
f 559 114 275
f 390 195 395
f 126 502 78
f 209 321 169
f 83 369 329
f 12 599 611
f 161 125 200
f 87 244 513
f 189 574 525
f 186 236 175
f 580 348 76
f 539 100 247
f 188 578 142
f 627 136 4
f 110 325 442
f 479 659 341
f 493 653 295
f 503 517 310
f 655 523 119
f 596 343 75
f 583 508 327
f 47 667 525
f 150 452 145
f 446 286 445
f 320 363 134
f 162 214 271
f 417 6 141
f 358 264 256
f 396 593 506
f 623 460 65
f 219 376 251
f 314 598 363
f 629 357 436
f 34 249 232
f 671 568 230
f 618 283 585
f 512 558 7
f 261 111 198
f 595 652 439
f 257 431 641
f 217 49 174
f 622 510 349
f 483 71 6
f 505 222 293
f 233 511 332
f 448 646 664
f 186 498 668
f 592 326 158
f 351 413 154
f 613 229 650
f 610 539 247
f 534 162 239
f 263 241 493
f 536 659 479
f 353 367 56
f 672 644 453
f 87 566 244
f 53 205 139
f 174 41 100
f 348 551 316
f 77 325 110
f 122 490 661
f 272 576 397
f 265 298 404
f 95 169 96
f 517 275 242
f 322 150 321
f 194 586 587
f 131 12 640
f 320 426 161
f 432 554 361
f 141 6 634
f 572 529 670
f 211 14 227
f 325 396 442
f 320 161 363
f 451 106 510
f 89 609 355
f 64 16 528
f 506 86 102
f 445 153 75
f 499 503 470
f 255 77 108
f 38 112 188
f 450 25 261
f 527 335 54
f 171 44 185
f 72 70 250
f 489 391 576
f 295 21 156
f 365 388 540
f 58 73 213
f 106 521 656
f 38 526 56
f 595 649 628
f 108 482 632
f 167 334 571
f 197 92 20
f 578 465 61
f 377 221 633
f 498 223 264
f 52 213 266
f 487 393 102
f 408 167 571
f 170 563 608
f 188 112 578
f 304 132 279
f 513 244 117
f 28 93 618
f 630 638 32
f 442 506 98
f 453 311 488
f 246 508 285
f 260 544 68
f 316 199 663
f 227 386 551
f 52 58 213
f 641 126 225
f 610 385 177
f 647 454 287
f 84 510 656
f 513 117 342
f 488 302 281
f 606 127 597
f 301 88 599
f 332 515 399
f 590 216 331
f 553 170 675
f 403 109 138
f 591 212 394
f 352 246 468
f 326 665 158
f 595 364 649
f 339 636 209
f 592 9 189
f 518 13 562
f 74 330 644
f 432 350 554
f 592 81 9
f 553 645 170
f 341 169 359
f 347 455 255
f 312 537 105
f 456 405 541
f 145 523 655
f 36 76 254
f 451 481 669
f 253 534 239
f 312 371 537
f 456 561 405
f 649 439 206
f 592 661 81
f 7 558 123
f 111 166 198
f 404 415 212
f 253 47 525
f 298 428 99
f 149 265 300
# 1352 faces, 0 coords texture

# End of File