####
#
# OBJ File Generated by Meshlab
#
####
# Object domain0647.obj
#
# Vertices: 970
# Faces: 1936
#
####
v 197.476974 32.329212 92.032867
v 197.582230 32.290062 91.533630
v 197.606339 32.030994 92.020279
v 197.605270 32.031078 92.981583
v 197.470718 32.326828 92.968536
v 197.577835 32.293449 93.464546
v 197.563049 32.806679 91.098755
v 197.756744 32.820095 90.839737
v 197.605865 32.579117 91.075562
v 197.443863 32.743275 92.006195
v 197.444992 32.742641 92.993713
v 197.599533 32.578419 93.925392
v 197.555969 32.805347 93.901619
v 197.764282 32.819523 94.115120
v 197.613571 33.045162 91.049446
v 197.526001 33.092983 92.002304
v 197.524963 33.093094 92.998459
v 197.617767 33.041435 93.946136
v 197.863708 31.756111 92.017883
v 198.119034 31.720181 91.527657
v 198.166031 31.580589 92.028114
v 198.164169 31.629429 92.947365
v 197.873795 31.773954 92.969597
v 198.139709 31.812307 93.409927
v 197.821259 32.271046 91.038391
v 198.159393 32.316536 90.686127
v 198.105850 31.976818 91.034050
v 198.128265 32.090809 93.894585
v 197.841324 32.309391 93.932518
v 198.177948 32.428181 94.189415
v 198.121384 32.816635 90.477089
v 198.124359 32.831100 94.307602
v 197.785767 33.397514 91.022781
v 198.123337 33.383148 90.545792
v 197.662018 33.447556 92.000313
v 197.663315 33.447121 92.999573
v 197.799194 33.391914 93.957985
v 198.162827 33.352341 94.271217
v 198.001282 33.895584 91.054779
v 198.221817 33.909557 90.704964
v 197.904861 33.933792 92.000092
v 197.904953 33.933834 92.999725
v 198.017227 33.888721 93.934875
v 198.275665 33.882519 94.202881
v 198.166489 34.218864 91.033455
v 198.075027 34.277447 92.000267
v 198.075180 34.277508 92.999992
v 198.177628 34.213226 93.957504
v 198.408707 31.718645 91.047119
v 198.725555 31.782196 90.693520
v 198.727188 31.553791 91.068649
v 198.670944 31.406803 92.005173
v 198.664551 31.511406 92.960403
v 198.661682 31.712223 93.465446
v 198.607956 32.187122 90.365410
v 198.660858 32.013973 93.939651
v 198.664062 32.371986 94.255089
v 198.487106 32.858288 90.101761
v 198.855362 32.909245 89.808746
v 198.689957 32.548561 90.041496
v 198.658096 32.830353 94.408295
v 198.497253 33.353870 90.103241
v 198.858215 33.308292 89.810333
v 198.662933 33.401295 94.430847
v 198.692856 33.669147 90.044579
v 198.598740 34.050171 90.353302
v 198.680450 33.973824 94.381699
v 198.370697 34.567429 91.029480
v 198.693832 34.545113 90.619553
v 198.249130 34.618999 92.000389
v 198.249191 34.619152 92.999550
v 198.382996 34.561253 93.959579
v 198.745331 34.513042 94.259689
v 198.631363 35.022881 91.070633
v 198.834076 34.975937 90.803474
v 198.519516 35.088188 92.000542
v 198.523468 35.084454 92.997498
v 198.634735 35.020493 93.924652
v 198.831924 34.954269 94.141273
v 198.789627 35.169415 91.087524
v 198.751007 35.382034 91.990128
v 198.758240 35.372501 93.010498
v 198.785919 35.154629 93.910927
v 199.199402 31.620766 90.464363
v 199.217758 31.308722 91.001060
v 199.189713 31.212029 92.014854
v 199.239090 31.412428 92.979057
v 199.245255 31.668812 93.483711
v 198.962479 32.244137 90.022194
v 199.363037 32.350803 89.755356
v 199.259888 31.957258 90.022896
v 199.233902 32.008163 93.943535
v 199.229080 32.372471 94.253548
v 199.275757 32.836578 89.641953
v 199.238007 32.828030 94.422432
v 199.272476 33.377495 89.645142
v 199.239914 33.402565 94.479660
v 198.958817 33.977104 90.016907
v 199.364914 33.863388 89.753128
v 199.238098 33.983170 94.439430
v 199.247681 34.272564 90.012993
v 199.167130 34.651653 90.342377
v 199.229080 34.537582 94.339096
v 199.261215 35.041084 90.671974
v 199.144775 34.948223 94.172539
v 199.252594 35.374321 91.085739
v 199.026688 35.609879 92.025978
v 199.246948 35.549572 91.595238
v 199.039261 35.597095 92.967049
v 199.239929 35.484615 93.370262
v 199.165985 35.269093 93.858589
v 199.244797 35.678017 92.058617
v 199.242767 35.668350 92.936562
v 199.548447 31.074774 91.002808
v 199.849106 31.083845 90.514259
v 199.880798 30.824209 91.014862
v 199.870117 30.812134 91.989143
v 199.530182 31.041664 91.999542
v 199.816040 31.044569 92.505753
v 199.553955 31.662786 90.028580
v 199.948929 31.769136 89.758751
v 199.862610 31.390013 90.037735
v 199.774139 31.264715 93.025139
v 199.890472 31.649452 93.492912
v 199.848984 32.252987 89.615562
v 199.778412 32.054737 93.910576
v 199.724014 32.423279 94.204422
v 199.829971 32.818279 89.541321
v 199.795853 32.846085 94.356628
v 199.825790 33.402184 89.543434
v 199.810104 33.401649 94.407349
v 199.851135 33.959404 89.631317
v 199.795395 33.966969 94.372795
v 199.554245 34.543289 90.036537
v 199.926941 34.379711 89.796906
v 199.703583 34.450481 94.241203
v 199.877274 34.728058 90.101730
v 199.806427 35.047947 90.539993
v 199.490067 35.097706 93.943665
v 199.803696 34.841850 93.970566
v 199.860306 35.173840 93.529243
v 199.810425 35.298248 91.051140
v 199.489471 35.647892 92.017647
v 199.845535 35.526379 91.986504
v 199.475098 35.631680 92.973282
v 199.831329 35.461647 92.990631
v 200.201035 30.579193 91.024750
v 200.474274 30.602139 90.571426
v 200.502975 30.397467 91.043983
v 200.502640 30.369986 91.974449
v 200.192505 30.565998 91.983902
v 200.457092 30.528439 92.477562
v 200.167435 31.119562 90.051392
v 200.515274 31.247272 89.788849
v 200.474716 30.897753 90.088631
v 200.444382 30.799345 92.966385
v 200.127563 31.069792 92.989502
v 200.511505 31.179789 93.268402
v 200.433289 31.674831 89.627670
v 200.419312 31.637630 93.499878
v 200.414719 32.233543 89.540085
v 200.099564 32.257027 93.964714
v 200.519348 32.112129 93.725868
v 200.412003 32.816006 89.499985
v 200.389191 32.540188 93.970139
v 200.220245 32.917065 94.204796
v 200.411789 33.402031 89.508202
v 200.264664 33.402767 94.244873
v 200.411606 33.972164 89.592537
v 200.221603 33.888885 94.206444
v 200.412537 34.417454 89.766220
v 200.103043 34.558216 93.978378
v 200.380356 34.257263 93.962051
v 200.456619 34.618179 93.634636
v 200.422852 34.770626 90.091820
v 200.364960 35.016884 90.571388
v 200.332367 35.014107 93.301445
v 200.328384 35.214855 91.046249
v 200.348724 35.306126 91.996765
v 200.315826 35.223724 92.944672
v 200.968994 30.405041 90.460670
v 200.984268 30.152939 91.003189
v 200.953735 30.070269 91.997826
v 201.060455 30.260809 92.937119
v 200.748825 30.520498 92.957962
v 201.119888 30.595531 93.254387
v 201.041656 31.133343 89.704529
v 200.983353 30.725889 89.990822
v 201.016388 31.079273 93.424889
v 201.002319 31.650620 89.561516
v 200.989655 31.647451 93.546280
v 200.998108 32.230076 89.506004
v 201.020248 32.214725 93.616348
v 200.998001 32.815998 89.499992
v 200.618454 32.851875 93.937149
v 201.065063 32.777653 93.688774
v 200.995239 33.398422 89.540077
v 200.672989 33.401608 93.966858
v 201.094009 33.400471 93.670120
v 200.976593 33.955978 89.629822
v 200.602753 33.944775 93.920830
v 201.006180 33.991726 93.574089
v 200.893341 34.366497 89.803528
v 200.908005 34.485985 93.316216
v 200.922043 34.637497 90.088425
v 200.663391 35.088402 91.016434
v 201.014725 34.939232 90.993637
v 200.696030 35.141468 92.001427
v 201.031586 34.959183 91.996750
v 200.615128 35.042053 92.957565
v 200.941132 34.792355 92.945015
v 201.334641 29.948921 91.017586
v 201.641251 30.021887 90.575302
v 201.662354 29.780371 91.040329
v 201.625656 29.621449 91.998306
v 201.282028 29.873241 92.002502
v 201.682129 29.818924 92.932701
v 201.383102 30.005262 92.949799
v 201.685730 30.068277 93.236198
v 201.308884 30.505039 90.028870
v 201.677383 30.665419 89.788567
v 201.640869 30.325613 90.098862
v 201.600876 30.485674 93.464645
v 201.595963 31.083197 89.612419
v 201.540039 31.032154 93.638664
v 201.584656 31.645250 89.522018
v 201.529572 31.683064 93.672829
v 201.583969 32.230000 89.499985
v 201.572983 32.242599 93.598587
v 201.580780 32.812790 89.540436
v 201.590240 32.815819 93.543480
v 201.560898 33.378967 89.615723
v 201.572174 33.395176 93.457100
v 201.459976 33.861427 89.760490
v 201.483795 33.881271 93.287704
v 201.543198 34.237427 90.041656
v 201.239105 34.491726 90.055870
v 201.539368 34.509495 90.524414
v 201.253281 34.532291 92.966637
v 201.552948 34.247841 92.969688
v 201.544205 34.523197 92.479424
v 201.495499 34.680107 91.024200
v 201.503510 34.691025 91.975021
v 201.957367 29.403982 92.001099
v 202.198303 29.352709 91.513275
v 202.273056 29.218842 91.997139
v 202.198776 29.340868 92.488831
v 202.194565 29.861160 90.513405
v 202.141068 29.542204 90.994118
v 202.141785 29.545071 92.996956
v 202.184006 29.903648 93.408554
v 202.180359 30.611839 89.741829
v 202.178238 30.235786 90.048752
v 202.075058 30.383152 93.690994
v 202.171555 31.069603 89.572296
v 202.195358 30.783739 93.966019
v 201.978317 31.095747 93.920998
v 202.373901 31.151270 94.182030
v 202.169998 31.644146 89.506104
v 201.992493 31.592491 93.901535
v 202.354050 31.480303 94.146599
v 202.166855 32.226795 89.540451
v 202.223267 31.831968 93.911057
v 202.128372 32.286221 93.674202
v 202.146957 32.792938 89.615852
v 202.167709 32.815327 93.491943
v 202.045319 33.277336 89.760422
v 202.125580 33.330753 93.304291
v 202.138962 33.662895 90.032295
v 201.841934 33.953060 90.034538
v 202.163101 33.979221 90.504951
v 201.877960 33.991039 92.995094
v 202.188065 33.739681 93.014641
v 202.198822 34.056992 92.541023
v 201.808960 34.487602 91.016846
v 202.141617 34.237255 91.026230
v 201.834137 34.508636 91.995064
v 202.175262 34.293415 91.995674
v 202.489700 29.356384 91.031693
v 202.832184 29.465696 90.722328
v 202.824539 29.196928 91.067657
v 202.739471 28.932230 91.986931
v 202.785965 29.046686 92.967377
v 202.469421 29.311512 92.998566
v 202.801224 29.357327 93.448051
v 202.756516 29.820347 90.387733
v 202.627945 29.812689 93.692360
v 202.756058 30.599895 89.726448
v 202.757050 30.199081 90.022049
v 202.744705 30.170719 94.012100
v 202.465485 30.474091 93.996140
v 202.878738 30.583786 94.250717
v 202.755203 31.067568 89.565132
v 202.793472 31.067862 94.330589
v 202.752014 31.641834 89.545990
v 202.772202 31.502506 94.238403
v 202.732971 32.206951 89.615692
v 202.758286 31.919119 93.981186
v 202.753357 32.339447 93.691650
v 202.633957 32.693928 89.756378
v 202.750351 32.797272 93.446205
v 202.736481 33.088928 90.022919
v 202.438782 33.377361 90.028030
v 202.801987 33.435532 90.458885
v 202.663239 33.218304 93.226700
v 202.470795 34.002605 90.997940
v 202.794189 33.765179 90.979820
v 202.728012 33.939747 91.511627
v 202.697266 33.565739 92.914436
v 202.690262 33.852863 92.427727
v 202.644058 34.031410 91.983940
v 203.066879 28.726238 92.009430
v 203.342529 28.715908 91.502159
v 203.389282 28.471395 92.012604
v 203.402664 28.484608 92.985260
v 203.095520 28.760622 92.987221
v 203.370529 28.741957 93.483978
v 203.374680 29.361002 90.657959
v 203.320129 28.966667 91.010910
v 203.403183 29.055456 93.948524
v 203.167221 29.358494 93.917725
v 203.530838 29.403048 94.211464
v 203.345596 29.789454 90.346268
v 202.988846 29.861786 94.029587
v 203.414337 29.929939 94.297768
v 203.328369 30.611921 89.749680
v 203.340042 30.202087 90.025642
v 203.359802 30.487324 94.394958
v 203.324844 31.070381 89.621529
v 203.346558 31.047937 94.407646
v 203.310059 31.623043 89.631721
v 203.341843 31.516233 94.273895
v 203.220978 32.110794 89.752380
v 203.342133 31.928789 93.990158
v 203.340652 32.334034 93.663322
v 203.332458 32.513451 90.013031
v 203.037140 32.804436 90.017563
v 203.394577 32.864281 90.358673
v 203.307526 32.755177 93.344528
v 203.266464 33.261288 90.694412
v 203.021713 33.356049 92.965736
v 203.365921 33.145657 92.986076
v 203.330872 33.388420 92.494186
v 203.251144 33.484573 91.053246
v 202.944275 33.854305 91.990067
v 203.263245 33.618736 91.969368
v 203.716919 28.235048 92.024475
v 203.988937 28.256866 91.570557
v 204.018997 28.053455 92.043999
v 204.018677 28.025986 92.974449
v 203.708710 28.222258 92.983856
v 203.973145 28.184465 93.477531
v 203.662445 28.759062 91.034554
v 204.020050 28.898476 90.773270
v 203.986542 28.548590 91.084290
v 203.966766 28.460455 93.962013
v 203.676147 28.753448 93.960129
v 204.054230 28.838387 94.239403
v 203.934540 29.324673 90.568817
v 203.958786 29.321272 94.372345
v 203.965988 29.836620 90.340981
v 203.934616 29.890381 94.438293
v 203.753937 30.645216 89.841415
v 203.877380 30.282021 90.084167
v 203.929291 30.472424 94.471878
v 203.778610 31.060368 89.762878
v 203.926392 31.046360 94.427597
v 203.738129 31.544857 89.792595
v 203.918060 31.507858 94.262047
v 203.896606 31.913902 90.036507
v 203.622192 32.218193 90.017303
v 203.979172 32.283077 90.356964
v 203.924133 31.904488 93.966064
v 203.923416 32.285522 93.600609
v 203.847717 32.734951 90.673454
v 203.843613 32.642658 93.268188
v 203.843399 33.021427 91.037506
v 203.541885 33.283482 91.043007
v 203.590530 33.353882 91.990135
v 203.909332 33.100803 92.014389
v 203.840210 32.896942 92.939583
v 204.484039 28.057817 91.459351
v 204.493622 27.795525 92.000404
v 204.469437 27.726099 92.998215
v 204.576477 27.916807 93.937119
v 204.264969 28.176598 93.957863
v 204.641342 28.257812 94.239403
v 204.557114 28.790329 90.705528
v 204.499298 28.381805 90.990761
v 204.537033 28.736408 94.387688
v 204.514023 29.306383 90.539238
v 204.517914 29.302290 94.465759
v 204.522598 29.877014 90.429359
v 204.514114 29.886002 94.494278
v 204.116760 30.523392 90.086624
v 204.570816 30.430964 90.321259
v 204.513397 30.470749 94.477989
v 204.187561 31.059475 90.035988
v 204.610199 31.054960 90.330467
v 204.502731 31.033705 94.390373
v 204.117676 31.602221 90.079498
v 204.522339 31.646631 90.424881
v 204.422318 31.454376 94.215553
v 204.426895 32.144527 90.681007
v 204.468277 31.821236 93.916679
v 204.498215 32.197811 93.472160
v 204.464508 32.458096 91.045807
v 204.153183 32.747269 91.035019
v 204.234146 32.836239 92.002388
v 204.558105 32.632469 91.999382
v 204.163223 32.725739 92.966599
v 204.513351 32.521626 92.980820
v 204.832001 27.568136 92.009384
v 205.171448 27.614182 91.568825
v 205.168564 27.322678 92.024185
v 205.126556 27.268167 93.013153
v 204.792786 27.521133 93.002411
v 205.197174 27.473583 93.932480
v 204.899048 27.661135 93.949883
v 205.207794 27.732925 94.222450
v 204.824707 28.160835 91.028999
v 205.193268 28.320923 90.788025
v 205.154343 27.965263 91.089966
v 205.124924 28.153908 94.409935
v 205.111969 28.739208 90.612411
v 205.097946 28.715279 94.520683
v 205.100082 29.301712 90.521378
v 205.094711 29.300341 94.545540
v 205.099075 29.887367 90.480904
v 205.101151 29.884815 94.513077
v 205.101562 30.472961 90.475609
v 205.097992 30.468149 94.455727
v 205.087662 31.051531 90.543076
v 205.065460 30.992544 94.313492
v 204.999512 31.535608 90.713676
v 204.799927 31.627457 93.984848
v 205.133514 31.418680 94.031578
v 205.150131 31.745655 93.661880
v 205.071426 31.907639 91.028465
v 204.774200 32.197926 91.032448
v 205.059479 32.173359 91.521072
v 205.021469 32.077568 93.298378
v 205.009659 32.335213 92.022949
v 205.000549 32.286312 92.943726
v 205.490875 27.086727 92.045830
v 205.772415 27.133638 91.732628
v 205.791916 26.912247 92.062172
v 205.770905 26.846193 92.976311
v 205.451385 27.035027 92.988243
v 205.711166 26.991169 93.489052
v 205.687576 27.485165 91.393364
v 205.660950 27.206804 93.992775
v 205.713364 27.580166 94.382133
v 205.697510 28.256607 90.727554
v 205.692337 27.854050 91.020638
v 205.643784 28.102736 94.627991
v 205.687958 28.725344 90.572075
v 205.575592 28.713394 94.698570
v 205.686035 29.300138 90.506042
v 205.629608 29.340500 94.678650
v 205.685516 29.885916 90.511696
v 205.677780 29.894640 94.570480
v 205.681168 30.466442 90.555855
v 205.687836 30.460110 94.446609
v 205.639725 30.982403 90.708084
v 205.671494 30.922186 94.261185
v 205.707657 31.393234 91.009666
v 205.379593 31.627394 91.015091
v 205.690567 31.649662 91.498444
v 205.691620 31.308893 93.943390
v 205.637634 31.609964 93.462936
v 205.318878 32.136314 92.016167
v 205.642685 31.891314 92.010246
v 205.299255 32.104244 92.960365
v 205.626923 31.872261 92.980476
v 206.296967 26.995594 91.619469
v 206.277954 26.673796 92.031097
v 206.228607 26.555790 92.997665
v 206.311234 26.714714 93.956215
v 205.992813 26.976543 93.987335
v 206.332382 27.014742 94.347946
v 206.195480 27.388237 91.281853
v 206.202805 27.473745 94.659012
v 206.306046 28.194242 90.687576
v 206.239258 27.758049 90.951042
v 206.299774 27.856127 94.964554
v 206.069763 28.166355 94.932350
v 206.462082 28.227158 95.207031
v 206.274246 28.717651 90.544823
v 206.013733 28.714081 94.963387
v 206.422073 28.711664 95.235901
v 206.271133 29.299120 90.528107
v 206.083511 29.248873 94.913612
v 206.446442 29.127226 95.158714
v 206.265625 29.881424 90.561310
v 206.323196 29.490551 94.915268
v 206.233047 29.936092 94.659073
v 206.242340 30.441936 90.640968
v 206.265915 30.445765 94.429939
v 206.166428 30.860760 90.790619
v 206.175949 30.856249 94.212891
v 206.197647 31.152491 91.074455
v 205.968597 31.642872 92.005348
v 206.300247 31.444071 91.989441
v 205.963821 31.633665 92.993820
v 206.295441 31.436312 93.008850
v 206.199295 31.131464 93.916237
v 206.627090 26.465122 92.038765
v 206.947067 26.552395 91.742805
v 206.950195 26.291283 92.058868
v 206.884979 26.097668 92.984703
v 206.551239 26.350756 93.002640
v 206.929214 26.151098 93.974831
v 206.624573 26.430197 93.979164
v 206.926651 26.445822 94.433594
v 206.849213 26.955473 91.431450
v 206.744919 26.898861 94.673424
v 206.568268 27.549046 91.009010
v 206.943420 27.741026 90.799149
v 206.896866 27.356625 91.084457
v 206.849121 27.242447 95.009605
v 206.572388 27.548203 94.989723
v 206.979141 27.652664 95.254936
v 206.867554 28.157055 90.624359
v 206.890350 28.148809 95.367844
v 206.854477 28.714346 90.557228
v 206.875229 28.701733 95.378525
v 206.841095 29.284653 90.600098
v 206.870895 29.159775 95.249809
v 206.785400 29.841206 90.701935
v 206.861069 29.568569 94.973633
v 206.853180 29.981865 94.653511
v 206.670395 30.367182 90.788628
v 206.823639 30.410524 94.344101
v 206.788895 30.707626 91.058617
v 206.511124 30.977861 91.057312
v 206.808929 30.989416 91.526848
v 206.530197 30.982706 93.957062
v 206.875900 30.791542 93.981186
v 206.830383 31.009642 93.485527
v 206.770035 31.165169 92.024117
v 206.774155 31.170694 92.977318
v 207.224716 25.889677 93.014603
v 207.478104 25.856466 92.518616
v 207.538986 25.762686 93.031059
v 207.541183 25.773949 93.948112
v 207.243393 25.907984 93.971039
v 207.517227 25.951824 94.408539
v 207.478027 26.448530 91.683121
v 207.429733 26.055050 92.025795
v 207.527298 26.243649 94.882828
v 207.292114 26.453550 94.896561
v 207.615128 26.547266 95.164368
v 207.477982 26.915941 91.378960
v 207.094528 26.934408 95.025490
v 207.517548 27.005056 95.290001
v 207.349930 27.743584 90.809204
v 207.406235 27.351418 91.080666
v 207.460251 27.557325 95.401428
v 207.410309 28.160496 90.667130
v 207.447327 28.129545 95.458115
v 207.407761 28.693590 90.642586
v 207.443207 28.701548 95.422722
v 207.323013 29.189146 90.744812
v 207.434326 29.163105 95.260651
v 207.452484 29.599628 90.989822
v 207.209717 29.911940 90.974358
v 207.559006 29.941820 91.326729
v 207.440338 29.558367 94.963783
v 207.439285 29.941349 94.600594
v 207.029953 30.415123 91.082550
v 207.382309 30.401915 91.559326
v 207.359558 30.298672 94.268166
v 207.075638 30.963326 92.017006
v 207.374664 30.694988 92.022141
v 207.092773 30.979633 92.987617
v 207.417618 30.745768 93.012733
v 207.356232 30.552935 93.939575
v 207.769073 25.886200 92.056229
v 208.018661 26.065289 91.882767
v 208.014755 25.858006 92.098961
v 207.976196 25.717289 93.029488
v 208.043671 25.657036 93.966896
v 208.038406 25.819466 94.482681
v 208.011002 26.427059 91.663109
v 208.041718 26.124300 94.961990
v 208.046967 26.504675 95.258286
v 208.036865 26.947168 91.454170
v 208.038910 26.970150 95.408020
v 207.718216 27.567705 91.034103
v 208.141953 27.427385 91.268242
v 208.031281 27.543676 95.472359
v 207.828415 28.222050 90.809189
v 208.005112 27.853691 91.034645
v 208.028793 28.126200 95.472206
v 207.828781 28.620848 90.808464
v 208.018021 28.689449 95.388817
v 207.997498 28.983959 91.038734
v 207.729630 29.293852 91.010307
v 208.099762 29.367161 91.341057
v 207.938110 29.110445 95.215492
v 207.971359 29.827402 91.651329
v 207.984299 29.477215 94.916672
v 208.014221 29.853725 94.472115
v 207.990631 30.126692 92.038635
v 207.678665 30.413082 92.023445
v 207.750839 30.493183 93.002190
v 208.074005 30.288376 92.999245
v 207.679245 30.381742 93.966606
v 208.029312 30.177643 93.980789
v 208.233704 25.928114 92.063568
v 208.352646 25.742905 92.982964
v 208.617905 25.614027 93.417145
v 208.576416 25.519129 93.995834
v 208.566315 25.674538 94.559723
v 208.485062 26.507132 91.768761
v 208.587311 26.123890 92.089195
v 208.621979 25.777548 92.933228
v 208.573593 25.992195 95.047935
v 208.654785 26.424057 95.324997
v 208.588745 26.981289 91.602219
v 208.619659 26.959791 95.449730
v 208.627380 27.537096 91.461884
v 208.614578 27.540529 95.466080
v 208.224182 28.165537 91.075829
v 208.665283 28.098377 91.348839
v 208.606598 28.118603 95.420921
v 208.220306 28.677139 91.082306
v 208.653519 28.735235 91.381111
v 208.567810 28.638578 95.289703
v 208.590454 29.261812 91.618942
v 208.313766 29.280371 94.980888
v 208.637436 29.058857 95.018250
v 208.660767 29.393456 94.654770
v 208.638550 29.636118 92.007851
v 208.311768 29.872669 92.013664
v 208.593719 29.848391 92.510902
v 208.536530 29.732990 94.297646
v 208.530090 29.997278 93.021927
v 208.516602 29.942410 93.943794
v 208.952225 25.250639 94.026268
v 209.277908 25.280245 93.574623
v 209.283432 24.991028 94.025734
v 209.327011 25.001966 94.951431
v 209.124176 25.295654 94.942581
v 209.384277 25.285208 95.261887
v 208.892319 25.793242 92.917297
v 209.310013 25.919039 92.715881
v 209.253677 25.608202 93.077789
v 208.819427 25.724796 95.014893
v 209.249237 25.819098 95.349876
v 208.890976 26.389950 92.027199
v 209.244263 26.233639 92.362762
v 209.210999 26.372942 95.464859
v 209.018875 27.056412 91.781471
v 209.175858 26.683950 92.033119
v 209.206009 26.950796 95.470459
v 209.134384 27.582708 91.684044
v 209.187103 27.524727 95.400963
v 209.171066 28.137255 91.583595
v 209.126450 28.077600 95.286781
v 209.161438 28.688881 91.610672
v 209.032562 28.545561 95.175911
v 209.094788 29.108557 91.776840
v 209.123215 28.866127 94.898857
v 209.125259 29.229982 94.434547
v 209.102371 29.368599 92.064941
v 208.845123 29.801439 93.013542
v 209.161850 29.557213 92.985817
v 208.815643 29.761139 93.960007
v 209.127060 29.513275 93.974365
v 209.593796 24.741676 94.049477
v 209.877518 24.805540 93.748489
v 209.889816 24.574539 94.071510
v 209.877533 24.395617 94.961395
v 209.583542 24.698296 94.975586
v 209.856888 24.683270 95.435410
v 209.796906 25.165157 93.420731
v 209.740997 25.198906 95.597397
v 209.772919 25.932177 92.736397
v 209.790176 25.548416 93.059692
v 209.693207 25.788092 95.651093
v 209.782135 26.375429 92.515388
v 209.750488 26.412102 95.644463
v 209.421036 26.990557 92.049469
v 209.831329 26.918859 92.364296
v 209.780304 26.953533 95.472603
v 209.551468 27.518091 91.974823
v 209.954086 27.524820 92.362183
v 209.685211 27.426254 95.266853
v 209.568146 28.215433 91.806946
v 209.745499 27.849615 92.037514
v 209.538269 28.143694 95.013351
v 209.785965 27.832981 94.996658
v 209.868408 28.161026 94.546303
v 209.561035 28.611897 91.819450
v 209.348969 28.630360 94.897255
v 209.653275 28.647221 94.425110
v 209.633911 28.892345 92.058632
v 209.388916 29.168758 92.056770
v 209.462814 29.269945 93.001022
v 209.727905 28.964058 92.999397
v 209.423431 29.230822 93.975830
v 209.677338 28.921488 93.972107
v 210.157593 24.115570 95.038597
v 210.445343 24.095129 94.564720
v 210.460342 23.821587 95.024406
v 210.503677 23.831812 95.950523
v 210.336548 24.127813 95.928497
v 210.567596 24.115496 96.251549
v 210.379562 24.749231 93.705681
v 210.367310 24.386213 94.083481
v 210.145996 24.605175 95.918633
v 210.509857 24.617973 96.295929
v 210.404404 25.177883 93.394470
v 210.106506 25.200325 95.972351
v 210.496002 25.194309 96.291679
v 210.200424 25.958929 92.840233
v 210.320602 25.599852 93.091446
v 210.104172 25.781919 95.974411
v 210.516861 25.767181 96.239960
v 210.238068 26.385115 92.730247
v 210.190536 26.312901 95.903503
v 210.539719 26.182222 96.142532
v 210.242188 26.954739 92.692322
v 210.438141 26.504707 95.869743
v 210.299942 26.911409 95.466003
v 210.227570 27.427959 92.719734
v 210.078262 27.537203 94.992004
v 210.412872 27.305681 95.008049
v 210.373947 27.546709 94.501373
v 209.829529 28.174713 92.137886
v 210.253220 27.803717 92.975533
v 210.138107 28.151886 93.009338
v 210.124680 28.151016 94.003944
v 210.350113 27.811588 93.987679
v 209.763535 28.622438 92.081535
v 209.905106 28.633715 92.996513
v 209.864517 28.624186 93.955093
v 210.765808 23.569715 95.049355
v 211.048660 23.633432 94.747910
v 211.062256 23.404287 95.071617
v 211.059296 23.241070 95.960625
v 210.759521 23.530634 95.973152
v 211.047546 23.522791 96.420784
v 210.962631 23.988834 94.411293
v 210.927017 24.034786 96.579460
v 210.944183 24.748928 93.734039
v 210.958374 24.361929 94.046196
v 210.938004 24.644096 96.610298
v 210.951447 25.206650 93.529312
v 210.961899 25.196505 96.497910
v 210.560776 25.838089 93.090317
v 210.981216 25.752270 93.394447
v 210.967438 25.748655 96.364120
v 210.627319 26.378651 93.046280
v 211.001160 26.360956 93.411964
v 210.873413 26.161154 96.186378
v 210.597046 26.966562 93.078682
v 210.896027 26.886698 93.555992
v 210.905624 26.492613 95.883659
v 210.889023 26.797407 95.408806
v 210.423920 27.446791 93.066788
v 210.886032 27.189720 94.031342
v 210.616547 27.479351 93.973152
v 210.874878 27.045925 94.951248
v 211.361557 22.991217 96.007462
v 211.603577 22.991276 95.565605
v 211.649109 22.812014 96.004898
v 211.633118 22.867472 96.486732
v 211.552048 23.576311 94.704353
v 211.539825 23.228453 95.083481
v 211.597336 23.178772 96.964203
v 211.389435 23.496799 96.905792
v 211.729324 23.517895 97.252235
v 211.577667 24.004108 94.389359
v 211.310257 24.028013 96.940056
v 211.695648 24.017557 97.251060
v 211.372879 24.785421 93.838081
v 211.493179 24.425987 94.088875
v 211.361847 24.558641 96.908562
v 211.721359 24.438578 97.158707
v 211.409149 25.213247 93.732941
v 211.599823 24.799337 96.910202
v 211.506454 25.232086 96.616386
v 211.410477 25.777596 93.703743
v 211.508453 25.712252 96.325562
v 211.354523 26.280399 93.747337
v 211.221680 26.315315 95.959969
v 211.570984 26.113123 95.983986
v 211.533310 26.356234 95.493828
v 211.417435 26.567392 94.044258
v 211.168060 26.875937 94.026482
v 211.173096 26.853449 94.974403
v 211.477905 26.591261 94.982124
v 212.060944 22.395248 96.953743
v 212.177078 22.308659 96.514046
v 212.275299 22.097486 96.988068
v 212.287659 22.338280 97.416115
v 212.155685 22.827274 95.512543
v 212.087982 22.527618 96.005783
v 211.807770 22.846666 97.019180
v 212.121262 22.884027 97.474197
v 212.128464 23.565823 94.712471
v 212.135239 23.191280 95.040192
v 212.135422 23.471460 97.576355
v 212.130493 24.027897 94.502090
v 212.144409 24.015776 97.459846
v 211.733368 24.665825 94.089813
v 212.166092 24.572470 94.383614
v 212.147232 24.475124 97.267075
v 211.799149 25.206589 94.046425
v 212.174026 25.187723 94.412941
v 212.140610 24.865158 96.953568
v 212.121689 25.240007 96.587067
v 211.772049 25.795670 94.078407
v 212.067993 25.714581 94.556183
v 212.041611 25.603348 96.260124
v 211.585571 26.270765 94.073837
v 212.056839 26.016384 95.030930
v 211.784149 26.301540 94.972504
v 212.034805 25.851437 95.935905
v 212.539520 21.815701 96.997696
v 212.770767 21.758636 96.525932
v 212.829773 21.613310 96.997322
v 212.777084 21.752993 97.473412
v 212.439209 22.286579 96.016380
v 212.809982 22.370470 95.700203
v 212.756943 22.017281 96.037140
v 212.790497 22.031570 97.941971
v 212.583435 22.330868 97.892067
v 212.914886 22.369057 98.204575
v 212.722763 22.782650 95.384827
v 212.504318 22.858683 97.929550
v 212.872192 22.851486 98.232178
v 212.701141 23.582891 94.760147
v 212.715958 23.180647 95.037231
v 212.542892 23.383152 97.898918
v 212.892776 23.266920 98.157913
v 212.682663 24.033442 94.635864
v 212.772079 23.626726 97.909706
v 212.685562 24.045343 97.604568
v 212.646271 24.574425 94.674446
v 212.711578 24.476498 97.296265
v 212.537369 25.107588 94.739876
v 212.729675 24.838051 96.921585
v 212.648636 25.133963 96.443863
v 212.593628 25.397034 95.043198
v 212.339188 25.703058 95.026367
v 212.331009 25.659611 95.956787
v 212.637070 25.405172 95.973648
v 213.065292 21.766615 96.057907
v 213.406601 21.887712 95.797302
v 213.380280 21.619701 96.088783
v 213.293945 21.323263 96.987152
v 213.358612 21.456688 97.944473
v 213.059143 21.733322 97.956383
v 213.417877 21.786362 98.284363
v 213.316025 22.304768 95.590126
v 213.340378 22.280396 98.410004
v 213.339890 22.815102 95.358833
v 213.323944 22.839142 98.396706
v 213.119308 23.604822 94.854897
v 213.250931 23.252697 95.089478
v 213.317474 23.299494 98.250175
v 213.095352 23.939342 94.813866
v 213.312286 23.693657 97.953644
v 213.295029 24.067297 97.588158
v 213.249863 24.287638 95.040726
v 213.047211 24.637009 95.015945
v 213.292328 24.600229 95.505432
v 213.214432 24.420469 97.252708
v 212.785431 25.100843 95.064095
v 213.235535 24.850130 96.027496
v 212.950378 25.122839 95.969055
v 213.204758 24.651585 96.926147
v 213.625305 21.124523 97.013733
v 213.957092 21.170628 96.570320
v 213.961548 20.879921 97.024261
v 213.970596 20.888746 97.971634
v 213.662796 21.163130 97.977394
v 213.980209 21.185781 98.415634
v 213.887665 21.840942 95.774437
v 213.880264 21.472254 96.094170
v 213.841187 21.693903 98.589096
v 213.875076 22.287945 95.603363
v 213.852448 22.303740 98.638496
v 213.886246 22.853943 95.503380
v 213.889938 22.850395 98.496956
v 213.464478 23.499439 95.121620
v 213.872192 23.398914 95.444412
v 213.885498 23.297171 98.266365
v 213.440826 23.973337 95.109497
v 213.796295 23.938210 95.583206
v 213.900711 23.663891 97.919937
v 213.823898 23.966198 97.446228
v 213.536026 24.552094 96.015999
v 213.824112 24.254961 96.020477
v 213.502045 24.484159 96.956024
v 213.816895 24.240658 96.976791
v 214.284836 20.670326 97.056313
v 214.470963 20.796844 96.852356
v 214.476654 20.611410 97.077766
v 214.477539 20.596991 97.936638
v 214.277466 20.656527 97.967560
v 214.482697 20.774395 98.357780
v 214.470016 21.166275 96.487144
v 214.499649 21.039911 98.835739
v 214.344696 21.184935 98.875954
v 214.541183 21.351194 99.061203
v 214.302902 21.856319 95.842064
v 214.412598 21.523872 96.113838
v 214.243530 21.685860 98.933823
v 214.606689 21.698467 99.176735
v 214.335587 22.281363 95.749550
v 214.288757 22.216328 98.910599
v 214.654739 22.088573 99.131462
v 214.333145 22.849449 95.733673
v 214.540298 22.441952 98.886765
v 214.436096 22.841782 98.563820
v 214.273743 23.345724 95.764366
v 214.383270 23.237944 98.236870
v 214.350372 23.639082 96.045860
v 214.100098 23.947477 96.027260
v 214.134201 23.972712 96.984581
v 214.430878 23.697651 97.013184
v 214.378693 23.483238 97.924896
v 214.667404 20.668741 97.057518
v 214.683411 20.645145 97.968407
v 214.949814 21.210104 96.715752
v 214.969360 20.900581 97.043037
v 215.000092 20.869154 97.986359
v 214.715012 21.178518 98.931252
v 215.034378 21.125540 98.483559
v 214.651596 21.740870 96.099228
v 215.037842 21.688747 96.456406
v 215.023499 21.431009 98.954147
v 214.926071 21.817492 99.173660
v 214.729752 22.276316 96.046272
v 215.092697 22.260597 96.421356
v 215.042908 22.128340 99.158783
v 214.699890 22.864723 96.080048
v 215.001953 22.787994 96.553726
v 215.076920 22.465778 98.898392
v 214.988205 22.781517 98.439537
v 214.519226 23.342712 96.075111
v 215.008850 23.098307 97.015427
v 214.733658 23.394844 96.986809
v 214.675568 23.314316 97.954704
v 214.989105 23.069195 97.976059
v 215.260574 21.187138 97.042122
v 215.295914 21.152878 97.986809
v 215.427155 21.775476 96.780548
v 215.499557 21.496191 97.051537
v 215.540298 21.466576 97.984909
v 215.303970 21.726778 98.950005
v 215.555862 21.736609 98.468956
v 215.434326 22.182983 96.765648
v 215.521255 22.030155 98.923416
v 215.373398 22.190952 99.048027
v 215.505356 22.460917 97.047554
v 215.277908 22.782011 97.022926
v 215.292587 22.788675 97.980995
v 215.531982 22.488993 98.012741
v 215.511505 22.297415 98.918167
v 215.611847 21.774780 97.074020
v 215.655746 21.779140 97.968330
v 215.612488 22.175735 97.075043
v 215.656845 22.185810 97.994133
v 215.559891 22.233814 98.901047
# 970 vertices, 0 vertices normals

f 3 2 1
f 5 4 1
f 1 4 3
f 5 6 4
f 9 8 7
f 9 7 2
f 7 1 2
f 7 10 1
f 1 11 5
f 1 10 11
f 6 5 12
f 5 13 12
f 5 11 13
f 13 14 12
f 8 15 7
f 7 15 10
f 10 15 16
f 10 16 11
f 11 16 17
f 11 17 13
f 13 17 18
f 13 18 14
f 21 20 19
f 23 22 19
f 19 22 21
f 23 24 22
f 27 26 25
f 27 25 20
f 20 25 19
f 25 2 19
f 2 3 19
f 19 3 4
f 19 4 23
f 29 28 6
f 6 28 4
f 28 24 4
f 24 23 4
f 29 30 28
f 25 26 9
f 26 8 9
f 26 31 8
f 25 9 2
f 12 29 6
f 12 14 29
f 14 30 29
f 14 32 30
f 15 8 33
f 8 34 33
f 8 31 34
f 35 16 15
f 35 15 33
f 36 17 16
f 36 16 35
f 37 18 17
f 37 17 36
f 37 38 18
f 38 14 18
f 38 32 14
f 33 34 39
f 39 34 40
f 33 41 35
f 33 39 41
f 35 42 36
f 35 41 42
f 36 43 37
f 36 42 43
f 38 37 44
f 44 37 43
f 40 45 39
f 39 45 41
f 41 45 46
f 41 46 42
f 42 46 47
f 42 47 43
f 43 47 48
f 43 48 44
f 51 50 49
f 20 21 49
f 21 51 49
f 21 52 51
f 53 21 22
f 53 52 21
f 22 24 53
f 53 24 54
f 49 50 27
f 50 26 27
f 50 55 26
f 49 27 20
f 56 54 24
f 56 24 28
f 28 30 56
f 56 30 57
f 60 59 58
f 55 60 58
f 31 55 58
f 26 55 31
f 32 57 30
f 32 61 57
f 58 59 62
f 62 59 63
f 62 34 31
f 62 31 58
f 38 61 32
f 38 64 61
f 63 65 62
f 34 62 65
f 66 34 65
f 40 34 66
f 44 64 38
f 44 67 64
f 45 40 68
f 40 69 68
f 40 66 69
f 70 46 45
f 70 45 68
f 71 47 46
f 71 46 70
f 72 48 47
f 72 47 71
f 72 73 48
f 73 44 48
f 73 67 44
f 68 69 74
f 74 69 75
f 68 76 70
f 68 74 76
f 70 77 71
f 70 76 77
f 71 78 72
f 71 77 78
f 73 72 79
f 79 72 78
f 75 80 74
f 74 80 76
f 76 80 81
f 76 81 77
f 77 81 82
f 77 82 78
f 78 82 83
f 78 83 79
f 85 84 51
f 51 84 50
f 86 51 52
f 86 85 51
f 87 52 53
f 87 86 52
f 53 54 87
f 87 54 88
f 91 90 89
f 84 91 89
f 55 84 89
f 50 84 55
f 92 88 54
f 92 54 56
f 56 57 92
f 92 57 93
f 89 90 60
f 90 59 60
f 90 94 59
f 89 60 55
f 61 93 57
f 61 95 93
f 94 63 59
f 96 63 94
f 64 95 61
f 64 97 95
f 65 63 98
f 63 99 98
f 63 96 99
f 98 66 65
f 67 97 64
f 67 100 97
f 99 101 98
f 66 98 101
f 102 66 101
f 69 66 102
f 73 100 67
f 73 103 100
f 102 75 69
f 104 75 102
f 79 103 73
f 79 105 103
f 104 106 75
f 75 106 80
f 106 108 107
f 81 106 107
f 80 106 81
f 109 82 81
f 109 81 107
f 82 109 110
f 111 82 110
f 83 82 111
f 79 83 105
f 105 83 111
f 108 112 107
f 107 112 109
f 109 112 113
f 109 113 110
f 116 115 114
f 118 117 114
f 114 117 116
f 118 119 117
f 122 121 120
f 122 120 115
f 115 120 114
f 120 84 114
f 84 85 114
f 114 85 86
f 114 86 118
f 123 119 118
f 86 123 118
f 87 123 86
f 87 88 123
f 123 88 124
f 120 121 91
f 121 90 91
f 121 125 90
f 120 91 84
f 126 124 88
f 126 88 92
f 92 93 126
f 126 93 127
f 125 94 90
f 128 94 125
f 95 127 93
f 95 129 127
f 128 96 94
f 130 96 128
f 97 129 95
f 97 131 129
f 130 99 96
f 132 99 130
f 100 131 97
f 100 133 131
f 101 99 134
f 99 135 134
f 99 132 135
f 134 102 101
f 103 133 100
f 103 136 133
f 135 137 134
f 102 134 137
f 138 102 137
f 104 102 138
f 141 140 139
f 140 136 139
f 136 105 139
f 136 103 105
f 138 142 104
f 104 142 106
f 144 143 108
f 106 144 108
f 142 144 106
f 146 145 143
f 146 143 144
f 145 146 141
f 145 141 139
f 110 145 139
f 111 110 139
f 111 139 105
f 143 112 108
f 112 143 113
f 113 143 145
f 113 145 110
f 149 148 147
f 151 150 147
f 147 150 149
f 151 152 150
f 155 154 153
f 155 153 148
f 148 153 147
f 153 115 147
f 115 116 147
f 147 116 117
f 147 117 151
f 157 156 119
f 119 156 117
f 156 152 117
f 152 151 117
f 157 158 156
f 153 154 122
f 154 121 122
f 154 159 121
f 153 122 115
f 123 157 119
f 123 124 157
f 124 158 157
f 124 160 158
f 159 125 121
f 161 125 159
f 124 126 162
f 163 124 162
f 160 124 163
f 127 162 126
f 161 128 125
f 164 128 161
f 165 163 162
f 162 127 165
f 127 166 165
f 127 129 166
f 164 130 128
f 167 130 164
f 131 166 129
f 131 168 166
f 167 132 130
f 169 132 167
f 133 168 131
f 133 170 168
f 169 135 132
f 171 135 169
f 174 173 172
f 173 170 172
f 170 136 172
f 170 133 136
f 171 175 135
f 135 175 137
f 138 137 175
f 138 175 176
f 174 172 140
f 141 174 140
f 177 174 141
f 140 172 136
f 176 178 138
f 138 178 142
f 142 179 144
f 178 179 142
f 144 180 146
f 179 180 144
f 141 146 177
f 177 146 180
f 182 181 149
f 149 181 148
f 183 149 150
f 183 182 149
f 185 184 152
f 184 150 152
f 184 183 150
f 185 186 184
f 188 187 155
f 155 187 154
f 155 148 181
f 155 181 188
f 156 185 152
f 156 158 185
f 158 186 185
f 158 189 186
f 187 159 154
f 190 159 187
f 160 189 158
f 160 191 189
f 190 161 159
f 192 161 190
f 163 191 160
f 163 193 191
f 192 164 161
f 194 164 192
f 163 165 195
f 196 163 195
f 193 163 196
f 166 195 165
f 194 167 164
f 197 167 194
f 196 195 198
f 196 198 199
f 168 198 166
f 166 198 195
f 197 169 167
f 200 169 197
f 199 198 201
f 199 201 202
f 170 201 168
f 168 201 198
f 200 171 169
f 203 171 200
f 202 201 173
f 174 202 173
f 204 202 174
f 173 201 170
f 203 205 171
f 171 205 175
f 207 206 176
f 175 207 176
f 205 207 175
f 209 208 206
f 209 206 207
f 211 210 208
f 211 208 209
f 211 204 210
f 204 177 210
f 204 174 177
f 206 178 176
f 178 206 179
f 179 206 208
f 179 208 180
f 180 208 210
f 180 210 177
f 214 213 212
f 216 215 212
f 212 215 214
f 218 217 216
f 216 217 215
f 218 219 217
f 222 221 220
f 222 220 213
f 213 220 212
f 220 181 212
f 181 182 212
f 212 182 183
f 212 183 216
f 216 183 184
f 216 184 218
f 184 186 218
f 186 219 218
f 186 223 219
f 220 221 188
f 221 187 188
f 221 224 187
f 220 188 181
f 189 223 186
f 189 225 223
f 224 190 187
f 226 190 224
f 191 225 189
f 191 227 225
f 226 192 190
f 228 192 226
f 193 227 191
f 193 229 227
f 228 194 192
f 230 194 228
f 196 229 193
f 196 231 229
f 230 197 194
f 232 197 230
f 199 231 196
f 199 233 231
f 232 200 197
f 234 200 232
f 202 233 199
f 202 235 233
f 237 203 236
f 203 234 236
f 203 200 234
f 238 237 236
f 241 240 239
f 240 235 239
f 235 204 239
f 235 202 204
f 237 205 203
f 238 242 237
f 242 205 237
f 242 207 205
f 207 243 209
f 242 243 207
f 239 211 241
f 211 243 241
f 211 209 243
f 211 239 204
f 246 245 244
f 244 247 246
f 249 248 214
f 214 248 213
f 215 244 245
f 249 215 245
f 214 215 249
f 250 247 244
f 215 250 244
f 217 250 215
f 217 219 250
f 250 219 251
f 253 252 222
f 222 252 221
f 222 213 248
f 222 248 253
f 223 251 219
f 223 254 251
f 252 224 221
f 255 224 252
f 225 257 256
f 254 225 256
f 223 225 254
f 257 258 256
f 255 226 224
f 259 226 255
f 227 260 257
f 227 257 225
f 258 257 261
f 261 257 260
f 259 228 226
f 262 228 259
f 264 263 260
f 227 264 260
f 229 264 227
f 260 263 261
f 262 230 228
f 265 230 262
f 231 264 229
f 231 266 264
f 265 232 230
f 267 232 265
f 233 266 231
f 233 268 266
f 270 234 269
f 234 267 269
f 234 232 267
f 271 270 269
f 274 273 272
f 273 268 272
f 268 235 272
f 268 233 235
f 270 236 234
f 276 275 238
f 276 238 236
f 271 276 236
f 270 271 236
f 278 277 275
f 278 275 276
f 277 278 274
f 277 274 272
f 241 277 272
f 240 241 272
f 240 272 235
f 275 242 238
f 242 275 243
f 243 275 277
f 243 277 241
f 281 280 279
f 245 246 279
f 246 281 279
f 246 282 281
f 284 283 247
f 283 246 247
f 283 282 246
f 284 285 283
f 279 280 249
f 280 248 249
f 280 286 248
f 279 249 245
f 250 284 247
f 250 251 284
f 251 285 284
f 251 287 285
f 289 288 253
f 253 288 252
f 253 248 286
f 253 286 289
f 254 291 290
f 287 254 290
f 251 254 287
f 291 292 290
f 288 255 252
f 293 255 288
f 256 291 254
f 256 258 291
f 258 292 291
f 258 294 292
f 293 259 255
f 295 259 293
f 261 294 258
f 261 296 294
f 295 262 259
f 297 262 295
f 299 298 263
f 299 263 264
f 261 263 296
f 296 263 298
f 297 265 262
f 300 265 297
f 266 299 264
f 266 301 299
f 303 267 302
f 267 300 302
f 267 265 300
f 304 303 302
f 268 301 266
f 268 305 301
f 303 269 267
f 307 306 271
f 307 271 269
f 304 307 269
f 303 304 269
f 308 306 307
f 310 309 273
f 310 273 274
f 268 273 305
f 305 273 309
f 306 276 271
f 308 311 306
f 311 276 306
f 311 278 276
f 274 278 310
f 310 278 311
f 314 313 312
f 316 315 312
f 312 315 314
f 316 317 315
f 319 318 281
f 281 318 280
f 282 312 313
f 319 282 313
f 281 282 319
f 312 282 283
f 312 283 316
f 321 320 285
f 285 320 283
f 320 317 283
f 317 316 283
f 321 322 320
f 318 286 280
f 323 286 318
f 287 324 321
f 287 321 285
f 322 321 325
f 325 321 324
f 327 326 289
f 289 326 288
f 289 286 323
f 289 323 327
f 290 324 287
f 290 292 324
f 292 325 324
f 292 328 325
f 326 293 288
f 329 293 326
f 294 328 292
f 294 330 328
f 329 295 293
f 331 295 329
f 296 330 294
f 296 332 330
f 331 297 295
f 333 297 331
f 335 334 298
f 335 298 299
f 296 298 332
f 332 298 334
f 337 300 336
f 300 333 336
f 300 297 333
f 338 337 336
f 301 335 299
f 301 339 335
f 337 302 300
f 304 302 337
f 338 304 337
f 340 304 338
f 343 342 341
f 342 339 341
f 339 305 341
f 339 301 305
f 340 344 304
f 304 344 307
f 346 345 308
f 307 346 308
f 344 346 307
f 345 346 343
f 345 343 341
f 310 345 341
f 309 310 341
f 309 341 305
f 345 311 308
f 311 345 310
f 349 348 347
f 351 350 347
f 347 350 349
f 351 352 350
f 355 354 353
f 355 353 348
f 348 353 347
f 353 313 347
f 313 314 347
f 347 314 315
f 347 315 351
f 357 356 317
f 317 356 315
f 356 352 315
f 352 351 315
f 357 358 356
f 353 354 319
f 354 318 319
f 354 359 318
f 353 319 313
f 320 357 317
f 320 322 357
f 322 358 357
f 322 360 358
f 359 323 318
f 361 323 359
f 325 360 322
f 325 362 360
f 364 363 327
f 327 363 326
f 327 323 361
f 327 361 364
f 328 362 325
f 328 365 362
f 363 329 326
f 366 329 363
f 330 365 328
f 330 367 365
f 366 331 329
f 368 331 366
f 332 367 330
f 332 369 367
f 371 333 370
f 333 368 370
f 333 331 368
f 372 371 370
f 374 373 334
f 374 334 335
f 332 334 369
f 369 334 373
f 371 336 333
f 338 336 371
f 372 338 371
f 375 338 372
f 339 374 335
f 339 376 374
f 378 340 377
f 340 375 377
f 340 338 375
f 380 379 378
f 380 378 377
f 342 343 379
f 380 342 379
f 381 342 380
f 339 342 376
f 376 342 381
f 378 344 340
f 344 378 346
f 346 378 379
f 346 379 343
f 383 382 349
f 349 382 348
f 384 349 350
f 384 383 349
f 386 385 352
f 385 350 352
f 385 384 350
f 386 387 385
f 389 388 355
f 355 388 354
f 355 348 382
f 355 382 389
f 356 386 352
f 356 358 386
f 358 387 386
f 358 390 387
f 388 359 354
f 391 359 388
f 360 390 358
f 360 392 390
f 391 361 359
f 393 361 391
f 362 392 360
f 362 394 392
f 395 363 364
f 396 395 364
f 361 396 364
f 393 396 361
f 365 394 362
f 365 397 394
f 398 366 395
f 395 366 363
f 395 396 399
f 395 399 398
f 367 397 365
f 367 400 397
f 401 368 398
f 398 368 366
f 398 399 402
f 398 402 401
f 369 400 367
f 369 403 400
f 401 370 368
f 372 370 401
f 402 372 401
f 404 372 402
f 406 405 373
f 406 373 374
f 369 373 403
f 403 373 405
f 408 375 407
f 375 404 407
f 375 372 404
f 410 409 408
f 410 408 407
f 412 411 409
f 412 409 410
f 412 406 411
f 406 376 411
f 406 374 376
f 408 377 375
f 377 408 380
f 380 408 409
f 380 409 381
f 381 409 411
f 381 411 376
f 415 414 413
f 417 416 413
f 413 416 415
f 419 418 417
f 417 418 416
f 419 420 418
f 423 422 421
f 423 421 414
f 414 421 413
f 421 382 413
f 382 383 413
f 413 383 384
f 413 384 417
f 417 384 385
f 417 385 419
f 385 387 419
f 387 420 419
f 387 424 420
f 421 422 389
f 422 388 389
f 422 425 388
f 421 389 382
f 390 424 387
f 390 426 424
f 425 391 388
f 427 391 425
f 392 426 390
f 392 428 426
f 427 393 391
f 429 393 427
f 394 428 392
f 394 430 428
f 429 396 393
f 431 396 429
f 397 430 394
f 397 432 430
f 431 399 396
f 433 399 431
f 400 432 397
f 400 434 432
f 433 402 399
f 435 402 433
f 438 437 436
f 437 434 436
f 434 403 436
f 434 400 403
f 440 404 439
f 404 435 439
f 404 402 435
f 441 440 439
f 438 436 405
f 406 438 405
f 442 438 406
f 405 436 403
f 440 407 404
f 441 443 440
f 443 407 440
f 443 410 407
f 410 444 412
f 443 444 410
f 406 412 442
f 442 412 444
f 447 446 445
f 449 448 445
f 445 448 447
f 449 450 448
f 445 446 415
f 446 414 415
f 446 451 414
f 445 415 416
f 445 416 449
f 452 450 449
f 416 452 449
f 418 452 416
f 418 420 452
f 452 420 453
f 455 454 423
f 423 454 422
f 423 414 451
f 423 451 455
f 424 453 420
f 424 456 453
f 454 425 422
f 457 425 454
f 426 456 424
f 426 458 456
f 457 427 425
f 459 427 457
f 428 458 426
f 428 460 458
f 459 429 427
f 461 429 459
f 430 460 428
f 430 462 460
f 461 431 429
f 463 431 461
f 432 462 430
f 432 464 462
f 463 433 431
f 465 433 463
f 434 464 432
f 434 466 464
f 468 435 467
f 435 465 467
f 435 433 465
f 469 468 467
f 471 470 437
f 471 437 438
f 434 437 466
f 466 437 470
f 468 439 435
f 473 472 441
f 473 441 439
f 469 473 439
f 468 469 439
f 475 474 472
f 475 472 473
f 475 471 474
f 471 442 474
f 471 438 442
f 472 443 441
f 443 472 444
f 444 472 474
f 444 474 442
f 477 476 447
f 447 476 446
f 478 447 448
f 478 477 447
f 480 479 450
f 479 448 450
f 479 478 448
f 480 481 479
f 476 451 446
f 482 451 476
f 452 480 450
f 452 453 480
f 453 481 480
f 453 483 481
f 485 484 455
f 455 484 454
f 455 451 482
f 455 482 485
f 456 487 486
f 483 456 486
f 453 456 483
f 487 488 486
f 484 457 454
f 489 457 484
f 458 490 487
f 458 487 456
f 488 487 491
f 491 487 490
f 489 459 457
f 492 459 489
f 460 493 490
f 460 490 458
f 491 490 494
f 494 490 493
f 492 461 459
f 495 461 492
f 497 496 493
f 460 497 493
f 462 497 460
f 493 496 494
f 495 463 461
f 498 463 495
f 464 497 462
f 464 499 497
f 498 465 463
f 500 465 498
f 466 499 464
f 466 501 499
f 500 502 465
f 465 502 467
f 504 503 469
f 467 504 469
f 502 504 467
f 506 505 503
f 506 503 504
f 470 471 505
f 506 470 505
f 507 470 506
f 466 470 501
f 501 470 507
f 503 473 469
f 473 503 475
f 475 503 505
f 475 505 471
f 510 509 508
f 512 511 508
f 508 511 510
f 514 513 512
f 512 513 511
f 514 515 513
f 508 509 477
f 509 476 477
f 509 516 476
f 508 477 478
f 508 478 512
f 512 478 479
f 512 479 514
f 479 481 514
f 481 515 514
f 481 517 515
f 520 519 518
f 516 520 518
f 482 516 518
f 476 516 482
f 483 522 521
f 517 483 521
f 481 483 517
f 522 523 521
f 518 519 485
f 519 484 485
f 519 524 484
f 518 485 482
f 486 522 483
f 486 488 522
f 488 523 522
f 488 525 523
f 524 489 484
f 526 489 524
f 491 525 488
f 491 527 525
f 526 492 489
f 528 492 526
f 494 527 491
f 494 529 527
f 528 495 492
f 530 495 528
f 532 531 496
f 532 496 497
f 494 496 529
f 529 496 531
f 530 498 495
f 533 498 530
f 499 532 497
f 499 534 532
f 536 500 535
f 500 533 535
f 500 498 533
f 537 536 535
f 540 539 538
f 539 534 538
f 534 501 538
f 534 499 501
f 536 502 500
f 537 541 536
f 541 502 536
f 541 504 502
f 504 542 506
f 541 542 504
f 538 507 540
f 507 542 540
f 507 506 542
f 507 538 501
f 545 544 543
f 547 546 543
f 543 546 545
f 547 548 546
f 550 549 510
f 510 549 509
f 511 543 544
f 550 511 544
f 510 511 550
f 543 511 513
f 543 513 547
f 552 551 515
f 515 551 513
f 551 548 513
f 548 547 513
f 552 553 551
f 549 516 509
f 554 516 549
f 517 555 552
f 517 552 515
f 553 552 556
f 556 552 555
f 558 557 520
f 520 557 519
f 520 516 554
f 520 554 558
f 521 555 517
f 521 523 555
f 523 556 555
f 523 559 556
f 557 524 519
f 560 524 557
f 525 559 523
f 525 561 559
f 560 526 524
f 562 526 560
f 527 561 525
f 527 563 561
f 562 528 526
f 564 528 562
f 529 563 527
f 529 565 563
f 567 530 566
f 530 564 566
f 530 528 564
f 568 567 566
f 570 569 531
f 570 531 532
f 529 531 565
f 565 531 569
f 571 533 567
f 567 533 530
f 567 568 572
f 567 572 571
f 534 570 532
f 534 573 570
f 571 535 533
f 575 574 537
f 575 537 535
f 572 575 535
f 571 572 535
f 577 576 574
f 577 574 575
f 539 540 576
f 577 539 576
f 578 539 577
f 534 539 573
f 573 539 578
f 574 541 537
f 541 574 542
f 542 574 576
f 542 576 540
f 581 580 579
f 544 545 579
f 545 581 579
f 545 582 581
f 583 545 546
f 583 582 545
f 546 548 583
f 583 548 584
f 579 580 550
f 580 549 550
f 580 585 549
f 579 550 544
f 586 584 548
f 586 548 551
f 551 553 586
f 586 553 587
f 585 554 549
f 588 554 585
f 556 587 553
f 556 589 587
f 590 557 558
f 591 590 558
f 554 591 558
f 588 591 554
f 559 589 556
f 559 592 589
f 594 593 590
f 593 557 590
f 593 560 557
f 594 590 591
f 561 592 559
f 561 595 592
f 593 562 560
f 596 562 593
f 563 595 561
f 563 597 595
f 599 564 598
f 564 596 598
f 564 562 596
f 600 599 598
f 565 597 563
f 565 601 597
f 599 566 564
f 568 566 599
f 600 568 599
f 602 568 600
f 604 603 569
f 604 569 570
f 565 569 601
f 601 569 603
f 606 572 605
f 572 602 605
f 572 568 602
f 608 607 606
f 608 606 605
f 610 609 607
f 610 607 608
f 610 604 609
f 604 573 609
f 604 570 573
f 606 575 572
f 575 606 577
f 577 606 607
f 577 607 578
f 578 607 609
f 578 609 573
f 611 580 581
f 582 612 581
f 581 612 611
f 612 582 613
f 582 614 613
f 582 583 614
f 583 584 614
f 614 584 615
f 617 616 611
f 616 580 611
f 616 585 580
f 617 611 612
f 617 612 618
f 618 612 613
f 619 615 584
f 619 584 586
f 586 587 619
f 619 587 620
f 616 588 585
f 621 588 616
f 589 620 587
f 589 622 620
f 621 591 588
f 623 591 621
f 592 622 589
f 592 624 622
f 625 593 594
f 626 625 594
f 591 626 594
f 623 626 591
f 595 624 592
f 595 627 624
f 628 596 625
f 625 596 593
f 625 626 629
f 625 629 628
f 597 627 595
f 597 630 627
f 628 598 596
f 600 598 628
f 629 600 628
f 631 600 629
f 634 633 632
f 633 630 632
f 630 601 632
f 630 597 601
f 636 602 635
f 602 631 635
f 602 600 631
f 637 636 635
f 634 632 603
f 604 634 603
f 638 634 604
f 603 632 601
f 636 605 602
f 637 639 636
f 639 605 636
f 639 608 605
f 608 640 610
f 639 640 608
f 604 610 638
f 638 610 640
f 643 642 641
f 645 644 641
f 641 644 643
f 645 646 644
f 649 648 647
f 649 647 642
f 642 647 641
f 647 613 641
f 613 614 641
f 641 614 615
f 650 641 615
f 645 641 650
f 646 645 651
f 651 645 650
f 652 616 617
f 648 653 647
f 653 617 647
f 617 618 647
f 617 653 652
f 647 618 613
f 619 650 615
f 619 620 650
f 620 651 650
f 620 654 651
f 656 655 652
f 655 616 652
f 655 621 616
f 656 652 653
f 622 654 620
f 622 657 654
f 655 623 621
f 658 623 655
f 624 657 622
f 624 659 657
f 658 626 623
f 660 626 658
f 627 659 624
f 627 661 659
f 660 629 626
f 662 629 660
f 630 661 627
f 630 663 661
f 662 631 629
f 664 631 662
f 666 665 633
f 666 633 634
f 630 633 663
f 663 633 665
f 664 667 631
f 631 667 635
f 669 668 637
f 635 669 637
f 667 669 635
f 671 670 668
f 671 668 669
f 671 666 670
f 666 638 670
f 666 634 638
f 668 639 637
f 639 668 640
f 640 668 670
f 640 670 638
f 674 673 672
f 676 675 672
f 672 675 674
f 676 677 675
f 672 673 643
f 673 642 643
f 673 678 642
f 672 643 644
f 672 644 676
f 644 646 676
f 646 677 676
f 646 679 677
f 681 680 649
f 649 680 648
f 649 642 678
f 649 678 681
f 651 679 646
f 651 682 679
f 680 653 648
f 683 653 680
f 654 682 651
f 654 684 682
f 685 655 656
f 686 685 656
f 653 686 656
f 683 686 653
f 657 684 654
f 657 687 684
f 688 658 685
f 685 658 655
f 685 686 689
f 685 689 688
f 659 687 657
f 659 690 687
f 692 691 688
f 691 658 688
f 691 660 658
f 692 688 689
f 695 694 693
f 694 690 693
f 690 661 693
f 690 659 661
f 691 662 660
f 696 662 691
f 695 693 697
f 695 697 698
f 663 697 661
f 661 697 693
f 700 664 699
f 664 696 699
f 664 662 696
f 702 701 700
f 702 700 699
f 704 703 701
f 704 701 702
f 703 704 698
f 703 698 697
f 666 703 697
f 665 666 697
f 665 697 663
f 700 667 664
f 667 700 669
f 669 700 701
f 669 701 671
f 671 701 703
f 671 703 666
f 707 706 705
f 709 708 705
f 705 708 707
f 709 710 708
f 712 711 674
f 674 711 673
f 675 705 706
f 712 675 706
f 674 675 712
f 705 675 677
f 713 705 677
f 709 705 713
f 710 709 714
f 714 709 713
f 711 678 673
f 715 678 711
f 679 716 713
f 679 713 677
f 714 713 717
f 717 713 716
f 719 718 681
f 681 718 680
f 681 678 715
f 681 715 719
f 682 720 716
f 682 716 679
f 717 716 721
f 721 716 720
f 718 683 680
f 722 683 718
f 684 723 720
f 684 720 682
f 721 720 724
f 724 720 723
f 722 686 683
f 725 686 722
f 727 726 723
f 684 727 723
f 687 727 684
f 723 726 724
f 725 689 686
f 728 689 725
f 731 730 729
f 730 727 729
f 727 690 729
f 727 687 690
f 732 691 692
f 689 728 733
f 732 689 733
f 734 732 733
f 692 689 732
f 736 735 734
f 736 734 733
f 735 736 731
f 735 731 729
f 695 735 729
f 694 695 729
f 694 729 690
f 737 696 732
f 732 696 691
f 738 732 734
f 737 732 738
f 739 734 735
f 738 734 739
f 698 739 695
f 695 739 735
f 737 699 696
f 699 737 702
f 702 737 738
f 702 738 704
f 704 738 739
f 704 739 698
f 742 741 740
f 744 743 740
f 740 743 742
f 744 745 743
f 740 741 707
f 741 706 707
f 741 746 706
f 740 707 708
f 740 708 744
f 708 710 744
f 710 745 744
f 710 747 745
f 749 748 712
f 712 748 711
f 712 706 746
f 712 746 749
f 714 747 710
f 714 750 747
f 748 715 711
f 751 715 748
f 717 750 714
f 717 752 750
f 753 718 719
f 754 753 719
f 715 754 719
f 751 754 715
f 721 752 717
f 721 755 752
f 756 722 753
f 753 722 718
f 753 754 757
f 753 757 756
f 724 755 721
f 724 758 755
f 759 725 756
f 756 725 722
f 756 757 760
f 756 760 759
f 762 761 726
f 762 726 727
f 724 726 758
f 758 726 761
f 763 728 759
f 759 728 725
f 759 760 764
f 765 759 764
f 763 759 765
f 730 731 765
f 764 730 765
f 766 730 764
f 727 730 762
f 762 730 766
f 763 733 728
f 733 763 736
f 736 763 765
f 736 765 731
f 769 768 767
f 767 770 769
f 772 771 742
f 742 771 741
f 743 767 768
f 772 743 768
f 742 743 772
f 774 773 745
f 745 773 743
f 773 770 743
f 770 767 743
f 774 775 773
f 771 746 741
f 776 746 771
f 747 777 774
f 747 774 745
f 775 774 778
f 778 774 777
f 780 779 749
f 749 779 748
f 749 746 776
f 749 776 780
f 750 781 777
f 750 777 747
f 778 777 782
f 782 777 781
f 779 751 748
f 783 751 779
f 785 784 781
f 750 785 781
f 752 785 750
f 781 784 782
f 783 754 751
f 786 754 783
f 755 785 752
f 755 787 785
f 786 757 754
f 788 757 786
f 791 790 789
f 790 787 789
f 787 758 789
f 787 755 758
f 793 760 792
f 760 788 792
f 760 757 788
f 795 794 793
f 795 793 792
f 794 795 791
f 794 791 789
f 762 794 789
f 761 762 789
f 761 789 758
f 793 764 760
f 764 793 766
f 766 793 794
f 766 794 762
f 798 797 796
f 796 799 798
f 801 800 769
f 769 800 768
f 802 796 770
f 796 801 770
f 801 769 770
f 796 797 801
f 799 796 803
f 803 796 802
f 805 804 772
f 772 804 771
f 772 768 800
f 772 800 805
f 773 802 770
f 773 775 802
f 775 803 802
f 775 806 803
f 804 776 771
f 807 776 804
f 778 806 775
f 778 808 806
f 809 779 780
f 810 809 780
f 776 810 780
f 807 810 776
f 782 808 778
f 782 811 808
f 812 783 809
f 809 783 779
f 809 810 813
f 809 813 812
f 815 814 784
f 815 784 785
f 782 784 811
f 811 784 814
f 816 786 812
f 812 786 783
f 812 813 817
f 812 817 816
f 787 815 785
f 787 818 815
f 819 788 816
f 816 788 786
f 816 817 820
f 821 816 820
f 819 816 821
f 790 791 821
f 820 790 821
f 822 790 820
f 787 790 818
f 818 790 822
f 819 792 788
f 792 819 795
f 795 819 821
f 795 821 791
f 825 824 823
f 823 826 825
f 829 828 827
f 829 827 824
f 824 827 823
f 827 797 823
f 797 798 823
f 831 830 799
f 799 830 798
f 830 826 798
f 826 823 798
f 831 832 830
f 827 828 801
f 828 800 801
f 828 833 800
f 827 801 797
f 803 834 831
f 803 831 799
f 832 831 835
f 835 831 834
f 837 836 805
f 805 836 804
f 805 800 833
f 805 833 837
f 806 838 834
f 806 834 803
f 835 834 839
f 839 834 838
f 836 807 804
f 840 807 836
f 842 841 838
f 806 842 838
f 808 842 806
f 838 841 839
f 840 810 807
f 843 810 840
f 811 842 808
f 811 844 842
f 843 813 810
f 845 813 843
f 847 846 814
f 847 814 815
f 811 814 844
f 844 814 846
f 849 817 848
f 817 845 848
f 817 813 845
f 851 850 849
f 851 849 848
f 851 847 850
f 847 818 850
f 847 815 818
f 849 820 817
f 820 849 822
f 822 849 850
f 822 850 818
f 854 853 852
f 824 825 852
f 825 854 852
f 825 855 854
f 857 856 826
f 856 825 826
f 856 855 825
f 857 858 856
f 852 853 829
f 853 828 829
f 853 859 828
f 852 829 824
f 830 857 826
f 830 832 857
f 832 858 857
f 832 860 858
f 859 833 828
f 861 833 859
f 835 860 832
f 835 862 860
f 864 863 837
f 837 863 836
f 837 833 861
f 837 861 864
f 839 862 835
f 839 865 862
f 863 840 836
f 866 840 863
f 868 867 841
f 868 841 842
f 839 841 865
f 865 841 867
f 870 843 869
f 843 866 869
f 843 840 866
f 871 870 869
f 844 868 842
f 844 872 868
f 873 845 870
f 870 845 843
f 870 871 874
f 875 870 874
f 873 870 875
f 846 847 875
f 874 846 875
f 876 846 874
f 844 846 872
f 872 846 876
f 873 848 845
f 848 873 851
f 851 873 875
f 851 875 847
f 879 878 877
f 881 880 877
f 877 880 879
f 881 882 880
f 884 883 854
f 854 883 853
f 855 877 878
f 884 855 878
f 854 855 884
f 877 855 856
f 877 856 881
f 856 858 881
f 858 882 881
f 858 885 882
f 883 859 853
f 886 859 883
f 860 885 858
f 860 887 885
f 886 861 859
f 888 861 886
f 862 887 860
f 862 889 887
f 890 863 864
f 891 890 864
f 861 891 864
f 888 891 861
f 865 889 862
f 865 892 889
f 893 866 890
f 890 866 863
f 890 891 894
f 890 894 893
f 896 895 867
f 896 867 868
f 865 867 892
f 892 867 895
f 893 869 866
f 898 897 871
f 898 871 869
f 894 898 869
f 893 894 869
f 900 899 897
f 900 897 898
f 900 896 899
f 896 872 899
f 896 868 872
f 897 874 871
f 874 897 876
f 876 897 899
f 876 899 872
f 903 902 901
f 905 904 901
f 901 904 903
f 905 906 904
f 901 902 879
f 902 878 879
f 902 907 878
f 901 879 880
f 901 880 905
f 909 908 882
f 882 908 880
f 908 906 880
f 906 905 880
f 909 910 908
f 912 911 884
f 884 911 883
f 884 878 907
f 884 907 912
f 885 913 909
f 885 909 882
f 910 909 914
f 914 909 913
f 911 886 883
f 915 886 911
f 887 916 913
f 887 913 885
f 914 913 917
f 917 913 916
f 915 888 886
f 918 888 915
f 920 919 916
f 887 920 916
f 889 920 887
f 916 919 917
f 918 891 888
f 921 891 918
f 892 920 889
f 892 922 920
f 924 894 923
f 894 921 923
f 894 891 921
f 926 925 924
f 926 924 923
f 895 896 925
f 926 895 925
f 927 895 926
f 892 895 922
f 922 895 927
f 924 898 894
f 898 924 900
f 900 924 925
f 900 925 896
f 928 902 903
f 904 929 903
f 903 929 928
f 906 929 904
f 931 930 928
f 930 902 928
f 930 907 902
f 931 928 929
f 931 929 932
f 934 932 933
f 933 932 908
f 932 929 908
f 929 906 908
f 910 933 908
f 935 911 912
f 936 935 912
f 907 936 912
f 930 936 907
f 937 934 933
f 933 910 937
f 910 938 937
f 910 914 938
f 939 915 935
f 935 915 911
f 935 936 940
f 935 940 939
f 917 938 914
f 917 941 938
f 942 918 939
f 939 918 915
f 939 940 943
f 939 943 942
f 945 944 919
f 945 919 920
f 917 919 941
f 941 919 944
f 946 921 942
f 942 921 918
f 942 943 947
f 948 942 947
f 946 942 948
f 950 949 948
f 950 948 947
f 950 945 949
f 945 922 949
f 945 920 922
f 946 923 921
f 923 946 926
f 926 946 948
f 926 948 927
f 927 948 949
f 927 949 922
f 951 930 931
f 932 952 931
f 931 952 951
f 934 952 932
f 954 953 951
f 953 930 951
f 953 936 930
f 954 951 952
f 954 952 955
f 957 955 956
f 956 955 937
f 955 952 937
f 952 934 937
f 938 956 937
f 953 940 936
f 958 940 953
f 959 957 956
f 956 938 959
f 938 960 959
f 938 941 960
f 962 943 961
f 943 958 961
f 943 940 958
f 964 963 962
f 964 962 961
f 944 945 963
f 964 944 963
f 965 944 964
f 941 944 960
f 960 944 965
f 962 947 943
f 947 962 950
f 950 962 963
f 950 963 945
f 966 953 954
f 955 967 954
f 954 967 966
f 957 967 955
f 968 958 966
f 966 958 953
f 969 966 967
f 968 966 969
f 959 970 957
f 970 967 957
f 970 969 967
f 960 970 959
f 968 961 958
f 961 968 964
f 964 968 969
f 964 969 965
f 965 969 970
f 965 970 960
# 1936 faces, 0 coords texture

# End of File