####
#
# OBJ File Generated by Meshlab
#
####
# Object Volume_202.obj
#
# Vertices: 369
# Faces: 738
#
####
v 149.857117 352.157257 145.458847
v 155.281815 331.038788 137.409958
v 150.043350 352.102936 140.605148
v 149.221954 335.374603 138.495255
v 162.517975 352.086517 144.107574
v 159.524048 337.678070 146.381302
v 157.342041 354.191986 149.697906
v 149.826309 350.185303 143.939682
v 161.220566 354.364807 148.227463
v 150.995987 356.236176 146.381805
v 149.570984 335.484863 143.593002
v 149.295486 331.275574 137.359894
v 157.329315 335.502869 146.331070
v 153.241562 330.827881 137.841904
v 149.955475 349.886017 140.593292
v 153.306198 356.428589 149.618713
v 150.956055 348.062866 139.773361
v 155.287064 343.688507 148.564697
v 155.286652 330.846893 137.836288
v 150.316650 335.495239 144.648178
v 152.642227 338.882812 146.818695
v 155.263245 332.814789 145.545807
v 149.827148 354.196655 141.153610
v 150.106674 342.500793 147.016296
v 148.104019 332.150818 140.552841
v 148.628250 331.876526 139.393372
v 152.670151 358.157013 149.571075
v 150.181854 343.812164 147.307495
v 149.788437 354.147644 141.302658
v 161.834503 343.715698 141.944992
v 159.640762 355.969818 144.215149
v 155.290283 350.135559 149.466934
v 150.189041 348.109100 147.623978
v 152.964066 345.760010 148.870010
v 156.984726 359.156494 150.926437
v 149.331589 343.532532 139.179916
v 161.752258 348.071167 146.426193
v 159.721710 345.870605 148.612793
v 157.333923 350.129791 139.625122
v 157.074310 332.981171 137.195389
v 149.115189 341.595947 139.108978
v 160.242874 333.392548 139.356033
v 147.872330 339.576813 140.089066
v 155.666214 359.173737 150.941498
v 150.245483 346.107178 147.488403
v 159.539993 356.174530 149.407700
v 151.052078 343.802765 147.864746
v 155.289108 352.130157 139.821625
v 160.388336 332.329926 141.383942
v 151.345108 354.246582 149.035904
v 161.373825 352.225861 140.799057
v 157.266190 337.460968 137.977905
v 151.507782 352.279877 149.034393
v 150.434998 334.319794 144.723404
v 150.922333 331.505493 137.198792
v 160.925888 350.208221 147.994400
v 152.099884 347.528503 148.931992
v 149.315811 331.286407 137.368866
v 157.347824 346.086914 149.143341
v 155.291626 355.172272 142.016373
v 150.086060 352.190002 147.837509
v 161.801041 348.178986 141.763870
v 159.272949 348.122864 149.022202
v 157.346436 337.702209 146.822250
v 147.954666 333.438599 140.744156
v 156.354874 358.574432 150.383774
v 153.238800 348.084442 139.485947
v 153.241348 346.054169 139.296158
v 157.060013 344.521118 139.034119
v 149.368576 346.002563 141.426346
v 150.957520 331.489716 141.416275
v 151.049835 346.083252 148.212631
v 150.085358 356.333130 147.932281
v 151.642593 350.153900 149.034058
v 155.289902 335.492645 137.421280
v 150.816620 345.904114 139.409637
v 150.936493 353.742065 140.647064
v 149.806259 343.718567 146.168167
v 156.975204 359.078491 151.026855
v 162.130829 345.967224 143.836441
v 159.596268 356.653412 146.303253
v 155.286194 339.494537 138.106155
v 149.713013 348.091003 143.810287
v 153.246780 352.188019 149.410095
v 150.909378 341.620850 138.597855
v 160.902893 335.408783 143.991043
v 160.246109 348.093658 148.560089
v 160.274078 337.528046 139.394424
v 157.319244 353.793365 140.613876
v 153.242905 331.219727 141.475204
v 147.959732 339.589264 140.757446
v 162.892532 351.543396 141.565598
v 157.512360 344.963196 148.847610
v 160.973801 333.700623 141.659424
v 159.536789 345.836548 139.729553
v 150.934006 331.080231 139.456696
v 149.795990 352.186249 142.606171
v 155.291321 354.222595 149.694824
v 150.082718 332.397644 143.201340
v 153.350281 344.317566 139.004471
v 157.339310 339.638214 147.415924
v 161.151596 348.079468 140.754837
v 160.051605 341.666016 139.448288
v 157.324097 352.117371 139.886185
v 153.606171 346.653412 149.093964
v 157.300949 331.142029 139.483826
v 161.370636 337.646851 143.887268
v 159.595078 357.295349 148.397903
v 162.347488 354.167175 144.148407
v 156.962967 331.512054 137.270966
v 155.324738 332.697571 136.972443
v 149.955475 353.868042 140.818405
v 148.941879 332.176483 141.273590
v 150.993500 352.105652 140.090988
v 151.875183 332.642273 137.036331
v 159.594040 350.132446 139.953934
v 157.341248 352.183624 149.519348
v 161.753738 354.231049 146.230194
v 161.568054 355.252136 144.279221
v 155.240158 344.262604 139.006165
v 148.073471 332.060486 140.219635
v 151.473114 340.446716 147.063431
v 148.581528 335.480560 142.005508
v 155.359283 341.564728 148.000092
v 151.407379 356.277039 149.023499
v 149.914474 352.208160 144.007477
v 151.452652 355.423065 144.370010
v 153.221298 348.074799 149.277496
v 152.627151 358.127197 149.431458
v 155.289841 350.132751 139.553726
v 157.513870 333.688080 137.384949
v 153.238373 341.634003 138.483261
v 155.286819 330.895447 139.490463
v 148.548447 339.586639 142.025040
v 161.695663 339.636322 144.020813
v 157.323563 335.447754 137.658569
v 160.136124 332.224670 140.046539
v 162.888046 351.645966 141.541397
v 162.194901 343.639587 146.262115
v 149.748550 349.836487 145.015106
v 161.052383 339.669312 140.375824
v 162.180420 343.538055 144.024307
v 160.253403 357.103943 148.912155
v 160.863876 335.614960 140.183365
v 162.020905 341.822479 146.245117
v 161.046005 356.131592 148.053345
v 155.269226 331.531464 137.086411
v 162.742065 352.582062 142.900589
v 160.576477 333.581757 143.615280
v 153.246262 352.123077 139.856018
v 149.184906 333.102234 138.116409
v 149.931381 354.213104 146.597382
v 151.313538 333.530792 145.351028
v 161.841324 345.847778 146.415192
v 150.785004 343.502899 138.871292
v 160.648926 356.352051 148.870880
v 157.325073 331.319336 141.461349
v 162.464676 342.817230 146.801758
v 155.292267 339.626709 147.391708
v 149.535355 346.064850 142.766708
v 159.635101 343.736359 148.169846
v 161.268829 350.154480 140.694214
v 149.745956 345.941101 143.717422
v 148.205429 341.770416 139.833221
v 159.112534 339.463196 138.769745
v 157.320709 331.980286 143.988556
v 149.715073 343.565247 144.017426
v 155.286331 337.693909 146.867493
v 159.554337 352.084686 140.162003
v 161.777527 341.680634 141.929520
v 160.977966 355.882263 146.371582
v 155.630737 359.067932 151.008759
v 153.264069 355.071045 142.063049
v 158.898392 346.588959 148.971863
v 150.939011 335.453217 137.719910
v 153.320908 333.556885 145.910172
v 155.290497 357.014374 146.188065
v 153.303833 332.836884 145.515198
v 153.240662 330.882965 139.490646
v 148.561203 341.723236 141.793243
v 149.677444 350.162415 142.656754
v 149.116760 339.374817 138.824203
v 155.288849 353.822693 140.568130
v 149.625595 350.081970 141.491135
v 161.079056 345.897858 147.631699
v 155.288589 331.882843 144.026566
v 161.120300 343.697418 140.591599
v 148.049377 335.460968 140.780212
v 147.796570 333.445251 140.057510
v 160.988129 340.657684 146.833588
v 162.055618 341.627380 144.000565
v 157.338760 356.199677 144.133148
v 148.191589 339.573456 139.561371
v 159.590942 348.071625 139.908218
v 150.165314 340.422546 145.861664
v 149.542908 345.808136 140.012314
v 157.334595 357.784149 148.434692
v 159.625397 335.523071 145.696701
v 149.773056 339.231415 144.042221
v 161.151169 346.024841 140.732559
v 155.290955 346.054901 139.291031
v 150.410538 340.956909 146.602859
v 160.509354 336.198639 145.286163
v 147.837158 334.550568 140.091705
v 153.247345 354.239258 149.485886
v 155.236191 357.841766 148.401901
v 149.708405 344.306091 144.070908
v 153.238968 331.039734 137.412781
v 159.469055 332.307281 143.857681
v 153.258774 331.942902 144.005905
v 148.006180 341.171753 140.702759
v 157.191376 332.850067 145.438965
v 153.121628 343.181976 138.785278
v 153.260193 356.857056 146.248947
v 153.253799 350.138336 149.341293
v 161.142410 341.641388 140.537766
v 157.334320 350.136536 149.405090
v 161.440720 342.019531 147.119476
v 150.199982 337.707703 144.449127
v 153.342667 339.788452 147.300858
v 162.450363 342.554108 146.796600
v 155.287277 337.491211 137.763153
v 160.958405 337.547516 140.289337
v 162.178741 354.868835 143.489334
v 148.582184 337.535065 141.996292
v 161.465485 343.653107 147.312393
v 157.374329 343.679932 148.597214
v 148.054871 337.510651 140.758957
v 157.338150 356.995941 146.194443
v 151.134521 354.605835 141.948761
v 149.723206 348.083527 144.998138
v 159.889725 338.828644 146.742157
v 150.478333 356.184845 148.434265
v 149.272079 337.460999 138.654251
v 153.283951 335.506592 146.234268
v 162.162308 348.088806 143.882721
v 160.254486 339.575104 139.455688
v 159.296982 357.251892 149.190811
v 161.762314 350.277161 146.502502
v 150.973618 341.833344 147.459900
v 149.490402 348.012024 141.405075
v 153.225113 333.690552 137.063354
v 157.361908 333.503937 145.828430
v 153.241394 337.490997 137.763657
v 159.234238 333.718231 145.290070
v 157.335617 355.149475 142.031921
v 149.784058 346.037384 146.186996
v 161.419189 337.588867 141.863617
v 153.238632 335.493683 137.418121
v 160.786713 354.484833 148.791031
v 153.239380 339.494293 138.103058
v 155.281921 333.558868 146.020477
v 158.998001 332.001251 138.751297
v 155.290146 348.084869 139.468292
v 159.501297 331.777222 141.408218
v 159.641907 354.997162 142.129272
v 161.214188 339.741699 145.972641
v 150.916611 339.464325 138.284729
v 155.290268 341.632477 138.485229
v 149.733459 346.008728 145.009781
v 157.326752 341.618469 138.586121
v 149.810959 352.091400 146.540604
v 157.340256 348.083099 139.522034
v 150.384430 356.731628 147.975220
v 160.610886 352.338562 148.720871
v 161.158737 352.047119 148.132401
v 159.550995 353.711548 140.791397
v 160.227310 332.588287 143.219284
v 150.874741 339.500397 146.231796
v 149.784943 339.740082 144.035690
v 153.267715 356.019775 144.198181
v 152.736267 358.148285 149.517532
v 157.448334 331.380310 137.787201
v 155.292908 348.093750 149.357574
v 155.345566 333.667786 137.060074
v 159.613098 354.240662 149.365646
v 153.241791 332.698853 136.950607
v 150.659393 350.138702 148.485870
v 159.948151 343.650665 139.584747
v 161.784256 346.061157 141.738785
v 159.610641 341.665100 147.744873
v 148.085876 337.507965 139.812241
v 161.372192 353.726929 141.294281
v 151.182159 357.129028 148.312057
v 151.060867 332.180481 143.901566
v 162.238419 353.874146 142.079590
v 159.069778 341.517120 138.948135
v 150.577301 352.165283 148.524261
v 153.248154 331.537628 137.091675
v 147.871613 338.176453 140.131943
v 155.349396 346.194305 149.152542
v 150.058456 354.238312 147.917480
v 160.792465 337.877136 145.505310
v 156.276291 358.574860 150.384171
v 160.308472 335.481415 139.339523
v 148.100693 335.507141 139.822174
v 150.132034 354.263458 145.508804
v 153.262390 341.646057 147.837509
v 153.244568 353.801331 140.595276
v 159.240662 332.872040 144.769318
v 157.329391 348.093079 149.317642
v 150.956329 337.459259 137.997192
v 149.889969 333.432220 143.770737
v 155.291748 335.494934 146.451218
v 149.528839 344.805298 139.405289
v 156.972473 331.239807 137.411301
v 149.245941 331.432373 137.822205
v 155.332428 356.220337 149.891769
v 150.935516 330.883026 137.801926
v 148.142120 333.430389 139.410522
v 157.329285 356.293823 149.928207
v 149.787933 347.988403 140.531601
v 151.570801 332.909271 145.152939
v 159.076584 337.427368 138.563217
v 148.991150 343.479126 139.731979
v 149.614090 348.087952 142.721970
v 150.910172 333.318817 137.325165
v 157.319458 339.478882 138.281143
v 161.224930 335.453003 141.748398
v 155.291733 356.207123 144.129959
v 155.289505 352.184143 149.547394
v 151.430954 344.527618 139.033356
v 150.885880 331.025299 137.460251
v 149.771393 351.057251 145.387283
v 153.242004 350.131134 139.589767
v 151.931519 348.497375 149.038895
v 162.527603 354.302063 143.186066
v 147.967728 341.400757 140.062515
v 150.250366 355.919464 146.971695
v 158.919617 343.555054 139.137894
v 159.606796 352.223297 149.198608
v 148.999313 343.686340 141.660141
v 153.242615 343.714478 148.394806
v 157.463181 343.408020 138.878159
v 149.483047 337.421875 143.417038
v 161.694809 354.633392 142.343185
v 161.867844 352.253510 146.404358
v 159.335709 331.734497 139.654388
v 149.898071 341.755402 146.287933
v 150.397476 354.323486 144.033615
v 160.661560 333.489807 140.061249
v 148.694946 333.463684 141.910355
v 151.373779 337.612701 145.742676
v 150.097336 350.140961 147.774826
v 160.635361 356.874939 148.595291
v 159.577011 350.205841 148.951462
v 149.722427 352.172821 141.389938
v 162.869247 351.571045 141.536850
v 151.450302 335.497070 145.539719
v 159.582336 339.862244 147.187195
v 155.289703 331.180115 141.483368
v 149.759460 350.108856 146.238159
v 153.311737 337.648285 146.638123
v 159.115936 333.463470 138.353943
v 150.252533 354.124390 142.450989
v 155.103561 345.089386 148.907623
v 150.987244 348.098938 148.574829
v 162.320343 350.115723 144.043747
v 159.135788 335.445435 138.426712
v 162.866898 351.137726 141.617676
v 155.377411 343.144928 138.779007
v 150.405273 354.237610 148.474976
v 161.607712 339.810089 141.777008
v 149.472290 341.652954 144.045380
v 157.434723 345.958893 139.356949
v 161.026917 348.057434 147.841217
v 149.751144 348.082642 146.197296
v 150.988037 350.120453 139.904922
v 157.401260 341.512665 147.949753
# 369 vertices, 0 vertices normals

f 291 274 59
f 176 349 235
f 76 68 17
f 270 134 180
f 244 222 251
f 324 126 1
f 39 194 116
f 212 186 22
f 5 92 348
f 125 27 16
f 223 319 248
f 114 150 77
f 230 271 127
f 286 327 224
f 240 28 47
f 66 294 79
f 269 21 353
f 80 37 236
f 261 165 287
f 269 353 343
f 299 183 60
f 156 345 146
f 198 293 203
f 101 159 124
f 88 223 237
f 205 16 98
f 212 245 300
f 362 292 73
f 4 282 296
f 142 30 170
f 205 98 321
f 220 159 168
f 231 367 247
f 289 147 277
f 368 114 3
f 181 184 97
f 213 259 361
f 334 365 69
f 196 312 241
f 210 285 178
f 235 343 353
f 183 104 89
f 230 29 23
f 179 351 133
f 193 234 182
f 117 331 346
f 11 303 123
f 350 190 257
f 235 349 343
f 150 48 299
f 145 221 139
f 106 133 157
f 243 13 245
f 198 6 293
f 323 55 12
f 131 354 136
f 281 161 218
f 136 222 75
f 218 158 221
f 214 320 177
f 16 129 308
f 244 75 222
f 155 100 322
f 80 236 280
f 357 278 74
f 284 73 264
f 318 165 261
f 315 180 164
f 83 8 140
f 212 243 245
f 357 74 326
f 335 199 219
f 86 203 293
f 115 55 289
f 72 33 357
f 176 153 349
f 38 174 87
f 14 19 2
f 78 247 45
f 212 300 209
f 43 282 193
f 300 245 149
f 355 340 126
f 160 332 70
f 51 348 92
f 106 19 133
f 189 65 121
f 10 214 284
f 27 272 129
f 297 340 127
f 348 138 360
f 18 227 369
f 97 347 355
f 89 169 267
f 251 82 132
f 300 149 268
f 86 319 94
f 348 92 138
f 135 145 191
f 361 261 334
f 108 345 143
f 34 57 128
f 296 228 188
f 239 337 358
f 255 209 268
f 67 201 254
f 342 25 65
f 52 314 318
f 131 136 75
f 227 38 161
f 281 218 190
f 197 81 108
f 166 212 209
f 160 70 241
f 31 119 81
f 246 256 31
f 109 224 327
f 39 116 104
f 354 42 359
f 328 164 211
f 337 5 358
f 269 202 240
f 367 352 344
f 219 270 269
f 190 218 145
f 193 164 328
f 368 3 15
f 86 107 319
f 296 188 204
f 1 126 340
f 167 332 160
f 15 3 347
f 274 32 301
f 91 134 228
f 256 336 119
f 10 73 329
f 313 99 153
f 243 304 13
f 341 319 144
f 295 341 144
f 233 284 27
f 107 135 248
f 321 98 117
f 189 310 204
f 149 86 94
f 43 211 91
f 316 181 83
f 46 156 250
f 284 272 129
f 223 248 141
f 298 333 124
f 100 120 68
f 342 113 25
f 297 127 10
f 103 216 279
f 106 255 338
f 6 350 232
f 77 299 173
f 10 264 73
f 138 327 286
f 261 287 334
f 66 294 311
f 317 151 58
f 1 152 262
f 355 127 340
f 14 309 179
f 81 171 108
f 265 250 9
f 84 321 32
f 93 59 38
f 74 128 326
f 105 291 356
f 1 262 352
f 36 305 196
f 311 294 46
f 364 167 339
f 104 116 169
f 270 364 339
f 283 138 286
f 346 331 265
f 301 63 174
f 85 36 41
f 117 7 331
f 48 104 183
f 76 196 305
f 213 120 100
f 155 76 305
f 142 154 80
f 276 250 265
f 206 197 66
f 258 244 251
f 293 257 107
f 206 229 197
f 13 304 168
f 72 45 33
f 108 171 345
f 135 191 363
f 101 369 281
f 64 101 6
f 250 156 146
f 312 15 241
f 242 175 317
f 362 73 233
f 113 285 71
f 319 107 248
f 278 288 53
f 362 125 50
f 162 348 51
f 195 339 202
f 302 182 234
f 160 241 316
f 10 127 271
f 115 317 55
f 242 275 249
f 4 234 282
f 181 97 8
f 86 293 107
f 27 129 272
f 68 120 201
f 325 130 150
f 141 248 363
f 171 118 146
f 225 188 228
f 357 33 344
f 194 200 102
f 309 307 96
f 256 119 31
f 183 246 60
f 115 242 317
f 269 240 122
f 113 71 26
f 173 320 271
f 106 157 255
f 257 145 135
f 272 206 129
f 196 241 70
f 193 182 164
f 140 352 367
f 331 276 265
f 247 367 33
f 273 131 40
f 176 235 252
f 318 314 165
f 218 221 145
f 367 344 33
f 258 251 85
f 113 26 121
f 131 75 275
f 44 35 294
f 247 33 45
f 235 353 304
f 253 42 354
f 306 273 110
f 136 359 52
f 55 317 58
f 13 168 64
f 231 83 140
f 302 244 258
f 130 263 39
f 152 292 262
f 40 275 111
f 215 84 32
f 95 200 194
f 144 319 223
f 7 276 331
f 103 237 141
f 336 224 119
f 266 9 337
f 98 311 7
f 152 329 73
f 209 300 268
f 7 46 276
f 47 72 333
f 355 347 29
f 314 295 88
f 21 122 220
f 353 220 168
f 208 309 14
f 173 60 320
f 302 175 249
f 246 31 192
f 240 47 298
f 76 100 68
f 250 146 9
f 91 228 290
f 72 34 333
f 214 177 272
f 266 337 239
f 56 266 239
f 102 280 62
f 1 297 152
f 138 148 327
f 178 285 313
f 302 258 182
f 60 192 320
f 18 93 227
f 225 123 188
f 208 14 2
f 358 348 62
f 114 112 3
f 178 176 22
f 192 31 229
f 157 166 209
f 58 151 307
f 338 255 49
f 365 95 263
f 308 66 311
f 210 71 285
f 299 48 183
f 239 236 37
f 278 53 74
f 155 132 213
f 270 339 195
f 97 355 126
f 350 257 232
f 334 330 95
f 20 343 349
f 55 58 12
f 44 294 66
f 41 315 164
f 210 22 186
f 72 357 34
f 197 108 294
f 116 102 162
f 166 351 186
f 315 36 196
f 140 8 352
f 61 344 352
f 92 360 138
f 7 311 46
f 274 301 59
f 152 73 292
f 85 155 36
f 139 221 158
f 369 227 281
f 95 187 200
f 266 265 9
f 325 254 130
f 6 232 293
f 269 122 21
f 44 172 35
f 90 186 351
f 90 96 71
f 285 99 313
f 288 50 53
f 337 9 118
f 263 194 39
f 51 138 283
f 200 30 280
f 310 307 151
f 219 269 343
f 193 282 234
f 132 259 213
f 38 185 226
f 157 133 351
f 201 365 254
f 14 179 133
f 330 103 279
f 207 163 260
f 294 35 79
f 132 82 259
f 341 94 319
f 189 188 65
f 16 308 98
f 277 111 275
f 263 95 194
f 101 350 6
f 267 51 283
f 61 352 262
f 8 97 126
f 137 49 94
f 41 36 315
f 101 281 350
f 49 268 149
f 287 103 330
f 81 119 171
f 208 323 309
f 359 295 314
f 249 75 244
f 315 332 180
f 50 84 53
f 167 163 207
f 257 190 145
f 267 336 256
f 287 237 103
f 155 305 36
f 216 363 170
f 218 226 158
f 346 266 56
f 18 356 93
f 65 188 123
f 191 170 363
f 116 162 169
f 230 173 271
f 52 318 82
f 167 260 78
f 169 51 267
f 260 231 247
f 43 290 282
f 288 362 50
f 191 139 142
f 229 81 197
f 13 64 198
f 233 27 125
f 294 108 238
f 330 279 95
f 177 229 206
f 164 180 211
f 315 196 70
f 90 210 186
f 43 328 211
f 210 178 22
f 110 111 147
f 91 180 134
f 243 252 304
f 323 12 307
f 52 359 314
f 119 224 109
f 334 95 365
f 273 253 354
f 157 209 255
f 298 124 159
f 110 273 40
f 119 118 171
f 364 332 167
f 142 139 154
f 160 316 163
f 129 66 308
f 202 339 240
f 125 16 205
f 326 128 57
f 17 67 368
f 157 351 166
f 342 303 99
f 56 239 37
f 241 15 184
f 11 225 335
f 110 40 111
f 47 28 45
f 113 99 285
f 357 57 34
f 48 39 104
f 165 88 237
f 174 63 87
f 113 121 25
f 189 204 188
f 355 230 127
f 342 123 303
f 294 238 46
f 163 83 231
f 273 338 253
f 237 223 141
f 359 42 295
f 3 112 29
f 137 94 341
f 42 341 295
f 112 23 29
f 366 56 37
f 46 238 143
f 355 29 230
f 166 186 212
f 236 358 62
f 335 270 199
f 239 358 236
f 120 69 201
f 77 173 230
f 337 109 5
f 5 148 92
f 90 71 210
f 17 68 67
f 231 140 367
f 3 29 347
f 119 109 118
f 253 338 137
f 282 228 296
f 337 118 109
f 200 280 102
f 267 283 336
f 245 198 86
f 254 263 130
f 310 296 204
f 150 130 48
f 178 313 153
f 260 247 78
f 4 317 175
f 353 168 304
f 191 145 139
f 63 346 87
f 167 160 163
f 167 207 260
f 47 45 72
f 177 192 229
f 11 335 219
f 236 62 280
f 141 363 216
f 34 128 105
f 357 344 278
f 77 150 299
f 297 10 329
f 134 225 228
f 295 144 88
f 336 286 224
f 185 154 139
f 318 261 259
f 163 316 83
f 38 87 185
f 208 289 323
f 32 217 301
f 85 251 132
f 178 153 176
f 339 28 24
f 50 205 84
f 74 53 215
f 350 281 190
f 353 21 220
f 59 174 38
f 323 307 309
f 306 110 2
f 270 195 269
f 288 292 362
f 283 286 336
f 11 219 20
f 346 56 87
f 316 184 181
f 362 233 125
f 277 275 242
f 271 320 214
f 54 153 303
f 356 291 93
f 253 137 42
f 189 26 310
f 64 159 101
f 104 169 89
f 338 49 137
f 44 66 172
f 67 254 325
f 302 234 175
f 114 77 112
f 76 312 196
f 74 215 128
f 179 309 96
f 368 325 114
f 91 211 180
f 87 56 366
f 302 249 244
f 101 124 369
f 357 326 57
f 288 61 292
f 42 137 341
f 78 45 28
f 348 360 92
f 8 324 352
f 277 147 111
f 278 344 61
f 30 80 280
f 258 41 182
f 176 252 22
f 84 205 321
f 289 55 323
f 310 151 296
f 346 265 266
f 89 256 246
f 273 354 131
f 128 215 274
f 297 329 152
f 114 325 150
f 32 321 217
f 299 60 173
f 339 78 28
f 212 22 252
f 240 339 24
f 34 356 18
f 87 366 185
f 316 241 184
f 233 73 284
f 368 67 325
f 226 185 139
f 245 86 149
f 4 175 234
f 121 65 25
f 8 126 324
f 54 349 153
f 14 133 19
f 279 216 187
f 115 277 242
f 208 147 289
f 187 30 200
f 314 88 165
f 105 128 291
f 201 69 365
f 361 69 120
f 318 259 82
f 92 148 138
f 129 206 66
f 108 143 238
f 15 347 184
f 43 193 328
f 130 39 48
f 76 322 100
f 155 322 76
f 187 170 30
f 110 147 2
f 1 340 297
f 85 132 155
f 64 168 159
f 324 1 352
f 10 271 214
f 12 58 307
f 153 99 303
f 118 9 146
f 17 15 312
f 163 231 260
f 20 219 343
f 98 308 311
f 156 143 345
f 249 275 75
f 276 46 250
f 333 18 124
f 88 144 223
f 216 170 187
f 306 2 19
f 165 237 287
f 217 117 346
f 162 62 348
f 169 162 51
f 59 301 174
f 230 23 112
f 335 225 134
f 172 79 35
f 254 365 263
f 10 284 264
f 11 123 225
f 5 109 327
f 306 19 273
f 5 327 148
f 167 78 339
f 179 90 351
f 34 105 356
f 103 141 216
f 259 261 361
f 47 333 298
f 183 89 246
f 240 220 122
f 136 52 222
f 43 91 290
f 342 99 113
f 11 20 303
f 358 5 348
f 17 368 15
f 232 257 293
f 68 201 67
f 320 192 177
f 227 161 281
f 255 268 49
f 76 17 312
f 342 65 123
f 4 151 317
f 212 252 243
f 258 85 41
f 191 142 170
f 60 246 192
f 52 82 222
f 335 134 270
f 257 135 107
f 89 267 256
f 301 217 63
f 50 125 205
f 240 24 28
f 171 146 345
f 95 279 187
f 194 102 116
f 66 197 294
f 334 287 330
f 240 298 220
f 215 53 84
f 215 32 274
f 278 61 288
f 136 354 359
f 80 154 37
f 242 249 175
f 272 177 206
f 235 304 252
f 208 2 147
f 49 149 94
f 366 37 154
f 64 6 198
f 98 7 117
f 77 230 112
f 227 93 38
f 361 334 69
f 226 139 158
f 115 289 277
f 61 262 292
f 213 361 120
f 27 129 16
f 51 92 138
f 161 226 218
f 219 199 270
f 26 71 96
f 251 222 82
f 273 106 338
f 189 121 26
f 155 213 100
f 46 143 156
f 270 180 364
f 315 70 332
f 83 181 8
f 54 303 20
f 13 198 245
f 321 117 217
f 182 41 164
f 4 296 151
f 284 129 27
f 97 184 347
f 142 80 30
f 40 131 275
f 172 66 79
f 333 34 18
f 26 96 307
f 26 307 310
f 282 290 228
f 229 31 81
f 248 135 363
f 54 20 349
f 220 298 159
f 364 180 332
f 284 214 272
f 128 274 291
f 102 62 162
f 198 203 86
f 273 19 106
f 217 346 63
f 161 38 226
f 179 96 90
f 291 59 93
f 185 366 154
f 124 18 369
f 269 195 202
# 738 faces, 0 coords texture

# End of File