####
#
# OBJ File Generated by Meshlab
#
####
# Object domain0682.obj
#
# Vertices: 1314
# Faces: 2624
#
####
v 106.080315 66.372665 80.010010
v 106.186287 66.420021 79.603195
v 106.208542 66.256340 80.019920
v 106.170074 66.326012 80.469086
v 106.080978 66.906960 79.107208
v 106.266792 66.989250 78.857689
v 106.183655 66.702621 79.134842
v 105.914352 66.831711 80.003494
v 106.136398 66.560051 80.974167
v 105.988770 66.885551 80.955086
v 106.125038 66.846344 81.476860
v 106.013611 67.392456 79.078438
v 106.247253 67.391212 78.783920
v 105.860199 67.392326 80.005112
v 105.857117 67.401985 80.993446
v 106.122818 67.119995 82.006363
v 105.965836 67.456612 81.980186
v 106.188652 67.354118 82.933937
v 106.047981 67.525475 82.959435
v 106.166130 67.541649 83.421432
v 106.050789 67.898247 79.094559
v 106.281296 67.868233 78.811119
v 105.865524 67.963387 80.009758
v 105.834122 67.975243 80.999771
v 105.851692 67.983749 81.997513
v 105.885201 67.996056 82.992821
v 106.157303 67.810387 83.949425
v 106.009254 68.070572 83.946632
v 106.145638 68.044403 84.469406
v 106.157639 68.212555 79.062286
v 105.983131 68.483627 80.045662
v 106.129356 68.520996 79.525085
v 105.881630 68.542885 81.006569
v 105.851616 68.554260 82.002487
v 105.834206 68.562889 83.000412
v 105.866966 68.576248 83.991669
v 106.134575 68.316193 84.973770
v 105.988640 68.642769 84.953255
v 106.131096 68.606361 85.473999
v 106.130730 68.811127 80.023201
v 106.035332 69.021324 81.033676
v 106.158302 69.055481 80.531548
v 105.965317 69.081764 82.019791
v 105.856537 69.136162 83.006676
v 105.838669 69.148064 83.999977
v 105.858696 69.160591 84.992630
v 106.127869 68.895378 85.977142
v 105.986862 69.227371 85.952477
v 106.137924 69.196899 86.470428
v 106.191307 69.205605 81.043251
v 106.119812 69.418587 81.994843
v 105.984467 69.654625 83.045494
v 106.117920 69.698250 82.519493
v 105.858948 69.721359 84.007378
v 105.838554 69.733429 84.998947
v 105.879143 69.747391 85.988792
v 106.154953 69.496223 86.945290
v 106.036758 69.811226 86.915085
v 106.237976 69.816818 87.279251
v 106.122223 69.990623 83.020103
v 105.985321 70.240486 84.045540
v 106.121742 70.283585 83.521339
v 105.882095 70.300758 85.006363
v 105.885674 70.308418 85.995453
v 105.993019 70.320045 86.944519
v 106.202316 70.311050 87.441948
v 106.131332 70.568535 84.023491
v 106.030769 70.783401 85.032349
v 106.154533 70.819664 84.530464
v 105.996498 70.817528 85.998749
v 106.031136 70.821693 86.949760
v 106.194687 70.864433 87.440483
v 106.184776 70.990433 85.032547
v 106.151352 71.146019 85.994316
v 106.136444 71.159035 86.986588
v 106.101753 73.846321 93.077606
v 106.228142 73.838890 92.582939
v 106.145462 73.576988 93.014404
v 106.116463 73.562515 93.999550
v 106.018700 73.909355 94.009666
v 106.136421 73.591423 94.994728
v 106.003426 73.921524 95.000771
v 106.177254 73.631157 95.979790
v 106.009766 73.934639 95.969437
v 106.143044 73.891457 96.470695
v 106.132248 74.112091 93.018364
v 106.010887 74.347954 94.048111
v 106.100327 74.410561 93.508217
v 105.926888 74.418518 95.012108
v 105.904350 74.438644 95.992027
v 106.143196 74.179001 96.962852
v 106.025177 74.495575 96.926025
v 106.232140 74.489014 97.407768
v 106.093620 74.704613 94.006020
v 105.992073 74.929497 95.046066
v 106.092773 74.996292 94.506676
v 105.904259 74.989944 96.002907
v 105.982941 75.006615 96.951599
v 106.155312 75.010277 97.456314
v 106.116234 75.270515 95.017097
v 106.013222 75.494934 96.027931
v 106.128372 75.553024 95.521103
v 106.047279 75.501495 96.950371
v 106.198135 75.545273 97.438339
v 106.172775 75.803345 96.017067
v 106.170097 75.815140 96.978928
v 106.662300 66.299263 79.539284
v 106.671959 66.141129 80.035942
v 106.729362 66.194084 80.926315
v 106.415833 66.309547 80.958847
v 106.715019 66.378494 81.413597
v 106.666359 66.947868 78.752930
v 106.662331 66.590927 79.062164
v 106.705414 66.642845 81.924370
v 106.394493 66.854607 81.976791
v 106.688683 66.899094 82.447556
v 106.669838 67.402885 78.624931
v 106.659058 67.140305 82.978577
v 106.632797 67.351524 83.528435
v 106.684135 67.945808 78.649628
v 106.617035 67.566544 84.033997
v 106.720970 67.892990 84.927071
v 106.408195 68.051125 84.963409
v 106.713852 68.125923 85.416245
v 106.415764 68.493256 79.057381
v 106.756500 68.364731 78.802132
v 106.707703 68.406212 85.919449
v 106.403000 68.616486 85.967888
v 106.712349 68.705788 86.415031
v 106.708206 68.710320 79.101433
v 106.410469 69.067810 80.036118
v 106.708984 69.000977 79.579277
v 106.709686 68.999336 86.904564
v 106.414238 69.216187 86.948151
v 106.731613 69.303421 87.287346
v 106.725571 69.196777 80.077271
v 106.648384 69.445671 81.014153
v 106.391144 69.687141 82.019806
v 106.687866 69.648003 81.548523
v 106.622139 69.703308 87.619728
v 106.700920 69.906471 82.070244
v 106.399811 70.270210 83.029099
v 106.702538 70.195900 82.572777
v 106.689346 70.054214 87.960197
v 106.491096 70.376045 87.907410
v 106.808640 70.406120 88.277405
v 106.702744 70.487190 83.074173
v 106.407074 70.833870 84.033699
v 106.706596 70.770050 83.575096
v 106.403069 70.939583 87.953499
v 106.734573 70.896179 88.469078
v 106.718269 70.997665 84.068657
v 106.611488 71.312683 84.977379
v 106.396362 71.465134 86.024529
v 106.639595 71.511551 85.493248
v 106.281334 71.515640 87.026970
v 106.453323 71.515221 87.993553
v 106.582390 71.455978 88.538025
v 106.655479 71.779518 86.002548
v 106.531601 72.007980 87.039322
v 106.688965 72.053528 86.514061
v 106.475555 72.065506 87.996483
v 106.629684 71.765144 89.006462
v 106.546349 72.134155 88.978271
v 106.737862 71.840034 90.001801
v 106.573479 72.163223 89.998726
v 106.771011 71.993454 90.967789
v 106.614777 72.199852 90.968338
v 106.733444 72.160515 91.473061
v 106.692047 72.344681 87.015434
v 106.587433 72.581947 88.046638
v 106.702507 72.632263 87.518616
v 106.501213 72.656868 89.005684
v 106.465599 72.674355 90.000870
v 106.479469 72.684044 90.995064
v 106.709221 72.397903 92.004173
v 106.532928 72.727432 91.986931
v 106.751892 72.552956 92.992584
v 106.548973 72.762512 92.999184
v 106.772301 72.651787 93.945885
v 106.591652 72.803467 93.967529
v 106.733871 72.820442 94.423454
v 106.707428 72.920921 88.021065
v 106.583443 73.168793 89.046616
v 106.706451 73.214767 88.520638
v 106.481323 73.230080 90.007530
v 106.442986 73.244812 91.006149
v 106.403229 73.254105 92.000412
v 106.288406 73.231758 92.982231
v 106.271523 73.220665 93.999489
v 106.698509 73.053764 94.984077
v 106.399292 73.280396 94.977386
v 106.744164 73.226189 95.938919
v 106.453018 73.372459 95.967789
v 106.722008 73.417526 96.410782
v 106.717155 73.498886 89.023094
v 106.614113 73.714684 90.032875
v 106.740204 73.750107 89.530350
v 106.544426 73.771355 91.020920
v 106.356323 73.816956 92.015900
v 106.705391 73.675537 96.922241
v 106.405869 73.892670 96.966202
v 106.716148 73.983635 97.411057
v 106.768135 73.923416 90.034874
v 106.701469 74.108780 90.996178
v 106.533302 74.353905 92.041298
v 106.693718 74.392014 91.516319
v 106.255676 74.456825 92.980072
v 106.737747 74.297142 97.881477
v 106.534752 74.509483 97.877022
v 106.829155 74.576660 98.210106
v 106.708458 74.675003 92.021599
v 106.532288 74.930382 93.043190
v 106.719986 74.945160 92.527222
v 106.250710 75.042366 93.977455
v 106.431267 75.018044 97.949135
v 106.751328 75.014038 98.356941
v 106.737709 75.159882 93.054962
v 106.573326 75.465195 94.041367
v 106.743614 75.429306 93.586174
v 106.374527 75.564728 94.993347
v 106.421295 75.606438 97.942291
v 106.756638 75.569786 98.453873
v 106.765869 75.612450 94.061050
v 106.698662 75.794212 95.017159
v 106.444366 76.071686 96.028648
v 106.706131 76.050156 95.568298
v 106.403496 76.129539 97.011681
v 106.589661 76.090317 97.941040
v 106.829361 76.106285 98.402611
v 106.737747 76.250328 96.054916
v 106.702637 76.428413 96.987816
v 106.769524 76.380211 97.968590
v 107.238037 66.260811 79.521255
v 107.238670 66.109627 80.037827
v 107.238007 66.138405 80.954933
v 107.239525 66.312729 81.454834
v 107.237816 66.935997 78.730713
v 107.238060 66.566513 79.044159
v 107.238350 66.571381 81.965729
v 107.237724 66.848915 82.476944
v 107.238029 67.400444 78.577370
v 107.232971 67.097664 82.993668
v 107.238281 67.395462 83.901840
v 106.952896 67.432411 83.987221
v 107.238342 67.571381 84.406792
v 107.237534 67.960938 78.598137
v 107.238274 67.758858 84.935219
v 107.240196 68.052422 85.455688
v 107.238777 68.411003 78.758446
v 107.238388 68.329346 85.964470
v 107.238937 68.625183 86.462677
v 107.237244 68.758430 79.075027
v 107.236862 69.051620 79.548126
v 107.238228 68.929543 86.954605
v 107.227928 69.263321 87.446930
v 107.239098 69.263115 80.049164
v 107.236336 69.499786 80.984062
v 107.238869 69.718384 81.507301
v 107.286713 69.589958 87.891251
v 106.975357 69.777390 87.952637
v 107.322235 69.928787 88.233337
v 107.237473 69.968430 82.033691
v 107.237091 70.258118 82.536278
v 107.247398 70.344536 88.544525
v 107.237564 70.552711 83.035446
v 107.237457 70.836960 83.539902
v 107.292076 70.720421 88.928894
v 107.054268 70.983017 88.957512
v 107.303604 71.035583 89.423790
v 107.224350 71.128937 84.054626
v 106.951988 71.480614 85.007042
v 107.273712 71.372612 84.565681
v 106.788559 71.434196 89.038063
v 107.295715 71.312630 89.958496
v 107.000153 71.540291 89.964211
v 107.248985 71.507919 90.494308
v 107.277596 71.667374 85.072693
v 106.960060 72.062111 86.010147
v 107.309914 72.004631 85.568420
v 107.202507 71.679077 91.020485
v 107.305573 71.960838 91.958260
v 106.977852 72.132889 91.984283
v 107.248657 72.103172 92.493721
v 107.255928 72.351517 86.014091
v 106.956749 72.653389 87.006279
v 107.246498 72.654510 86.505676
v 107.202141 72.268311 93.024223
v 107.249443 72.509895 93.953789
v 107.242897 72.698372 94.484291
v 107.249733 72.943642 87.006836
v 106.977615 73.211235 88.019997
v 107.266815 73.210709 87.517380
v 107.240479 72.915710 95.013573
v 107.238251 73.146194 95.949135
v 107.240509 73.336296 96.459831
v 107.293938 73.432625 88.041245
v 106.993942 73.762459 89.034447
v 107.290421 73.709007 88.570221
v 107.241730 73.589172 96.974037
v 107.242836 73.870064 97.480316
v 107.303711 73.931160 89.067467
v 107.202568 74.234085 89.980156
v 106.970306 74.387794 91.013382
v 107.245354 74.412537 90.503807
v 107.272079 74.186378 98.000031
v 107.253700 74.474747 98.470955
v 107.290649 74.612099 91.037651
v 106.997078 74.926033 92.037384
v 107.292114 74.869980 91.573387
v 107.100227 74.940399 98.694221
v 107.311523 75.058731 92.078186
v 107.244461 75.322411 92.995918
v 107.244125 75.541161 93.521904
v 107.209572 75.287910 99.017624
v 107.063438 75.636063 98.927002
v 107.327858 75.626083 99.448196
v 107.248840 75.716438 94.045021
v 107.238922 75.940964 94.983398
v 107.240387 76.163391 95.507858
v 107.100693 76.125275 98.913292
v 107.332603 76.147476 99.448868
v 107.223961 76.429024 96.044991
v 107.017281 76.661247 97.020927
v 107.286072 76.637901 96.560013
v 107.037987 76.649048 97.979607
v 107.286873 76.705170 98.477493
v 107.286095 76.444000 98.981613
v 107.330467 76.790421 97.048996
v 107.342567 76.823792 97.977463
v 107.815315 66.293564 79.536377
v 107.806473 66.136620 80.034973
v 107.749390 66.185364 80.929329
v 107.770073 66.360931 81.423973
v 107.809250 66.948524 78.754585
v 107.815414 66.588310 79.060692
v 107.773201 66.637001 81.925285
v 107.775177 66.922150 82.430656
v 107.806351 67.402336 78.622749
v 107.770493 67.202583 82.960739
v 107.513519 67.453644 83.978951
v 107.815971 67.407196 83.494156
v 107.793015 67.946846 78.645287
v 107.856087 67.585167 84.017769
v 107.758308 67.886200 84.931900
v 107.771553 68.110374 85.426697
v 107.720184 68.364632 78.801445
v 107.773209 68.394913 85.925484
v 107.773514 68.686012 86.427315
v 107.762756 68.699203 79.106476
v 107.760376 68.987152 79.588257
v 107.773468 68.980629 86.925034
v 107.770103 69.287285 87.416901
v 107.753067 69.201141 80.075333
v 107.826447 69.446251 81.010635
v 107.785881 69.631233 81.555817
v 107.776695 69.589600 87.895470
v 107.750816 69.916412 88.255249
v 107.772751 69.899399 82.074326
v 107.765007 70.178223 82.583008
v 107.824699 70.269302 88.600517
v 107.769547 70.478424 83.079865
v 107.765167 70.764946 83.582649
v 107.823463 70.611221 89.000977
v 107.826477 70.923477 89.490395
v 107.765289 71.055023 84.085037
v 107.771118 71.346893 84.585152
v 107.828682 71.172867 90.005341
v 107.888321 71.441132 90.924728
v 107.544846 71.532013 90.987930
v 107.860550 71.621780 91.439987
v 107.781853 71.683113 85.069374
v 107.854431 72.063454 85.438980
v 107.815613 71.824219 91.969742
v 107.824188 72.093620 92.898331
v 107.543633 72.134956 92.985390
v 107.824013 72.253624 93.410912
v 107.575897 72.602844 86.045242
v 107.906418 72.463783 85.769630
v 107.812775 72.422516 93.944992
v 107.822128 72.694984 94.484474
v 107.876579 72.796890 86.110931
v 107.575653 73.174309 87.034172
v 107.878113 73.078682 86.590492
v 107.819839 72.921707 95.009346
v 107.754532 73.189011 95.926094
v 107.778557 73.380981 96.435333
v 107.893417 73.280754 87.082993
v 107.828453 73.570198 87.994308
v 107.827110 73.811249 88.512123
v 107.834457 73.593666 96.952522
v 107.825363 73.856735 97.491180
v 107.815544 74.077034 89.043396
v 107.546074 74.379333 90.014160
v 107.859604 74.293823 89.561264
v 107.825630 74.070229 98.019211
v 107.912773 74.355194 98.939560
v 107.648796 74.505249 98.951660
v 107.888794 74.504021 99.470573
v 107.888123 74.472939 90.075806
v 107.829346 74.727783 90.999275
v 107.825684 74.938927 91.527061
v 107.369675 74.953598 99.056427
v 107.886543 74.760201 99.974579
v 107.697189 75.074532 99.959595
v 107.876732 75.042328 100.480125
v 107.824188 75.112762 92.049744
v 107.821114 75.340996 92.986557
v 107.819664 75.549339 93.518089
v 107.531166 75.593018 99.988396
v 107.891457 75.340027 100.971443
v 107.762199 75.662376 100.928780
v 107.940895 75.634010 101.442894
v 107.815567 75.724655 94.043190
v 107.823402 75.945068 94.981880
v 107.825165 76.181664 95.498207
v 107.524345 76.189339 99.991753
v 107.721283 76.178688 100.949341
v 107.867554 76.179359 101.483414
v 107.823441 76.457855 96.008766
v 107.827400 76.712471 96.525444
v 107.523407 76.765228 99.018059
v 107.695183 76.697441 99.990494
v 107.795692 76.674652 100.947609
v 107.938271 76.722565 101.447586
v 107.834946 76.879692 97.043915
v 107.836578 77.001251 98.001938
v 107.842796 77.034531 98.960083
v 107.891174 77.008636 99.998436
v 107.937286 76.979210 100.976616
v 108.299179 66.400589 79.591980
v 108.270691 66.247414 80.017563
v 108.065132 66.298416 80.964371
v 108.307587 66.322098 80.469383
v 108.212219 66.985634 78.855637
v 108.303078 66.685051 79.126068
v 108.338852 66.557869 80.975327
v 108.073112 66.857193 81.968971
v 108.347229 66.844078 81.476532
v 108.231194 67.392075 78.780548
v 108.346207 67.137161 81.978203
v 108.087837 67.425346 82.982811
v 108.352966 67.428017 82.479431
v 108.194481 67.868156 78.810081
v 108.352005 67.708961 83.008202
v 108.291840 67.887558 83.967842
v 108.069092 68.045883 84.966972
v 108.321266 68.058281 84.470268
v 108.304634 68.204582 79.068970
v 108.053192 68.484604 79.064270
v 108.326729 68.506706 79.533501
v 108.339401 68.315437 84.975204
v 108.073799 68.614059 85.969551
v 108.349258 68.601295 85.477051
v 108.063957 69.065971 80.038307
v 108.334663 68.805138 80.027527
v 108.316429 69.058998 80.531288
v 108.356117 68.889809 85.981079
v 108.081970 69.191788 86.974678
v 108.369736 69.179581 86.482826
v 108.283485 69.207489 81.039658
v 108.079048 69.684944 82.025475
v 108.343285 69.408295 81.990395
v 108.339973 69.685387 82.526520
v 108.397728 69.451927 86.995415
v 108.091263 69.778206 87.969818
v 108.412346 69.731964 87.500954
v 108.070213 70.262932 83.033562
v 108.339729 69.981956 83.025063
v 108.335602 70.270584 83.528931
v 108.439041 69.973625 88.006859
v 108.384689 70.297493 88.485786
v 108.071938 70.851044 84.033020
v 108.342545 70.569458 84.025085
v 108.364708 70.871811 84.520699
v 108.406509 70.630798 88.987740
v 108.408325 70.924881 89.490776
v 108.109810 71.482338 85.009705
v 108.405869 71.195122 85.000221
v 108.488411 71.576057 85.322739
v 108.405067 71.171906 90.006271
v 108.343979 71.455467 90.919762
v 108.359283 71.640396 91.421509
v 108.391365 72.049057 85.554825
v 108.351395 71.904366 91.955193
v 108.099426 72.142014 92.978821
v 108.401985 72.095169 92.494171
v 108.316246 72.463982 85.795662
v 108.442070 72.273750 93.017159
v 108.344879 72.568947 93.933731
v 108.359863 72.789795 94.431015
v 108.352104 72.784927 86.118172
v 108.348373 73.067886 86.598114
v 108.354050 73.065681 94.959686
v 108.083275 73.310402 95.973579
v 108.390419 73.278343 95.487946
v 108.343384 73.283356 87.082458
v 108.404640 73.568359 87.994286
v 108.406921 73.807701 88.514641
v 108.412346 73.532082 96.021698
v 108.325363 73.758362 96.950363
v 108.375015 73.929901 97.451927
v 108.419800 74.070114 89.049683
v 108.365936 74.276016 89.569710
v 108.434082 74.065300 98.002068
v 108.424271 74.232925 98.983597
v 108.485855 74.387161 99.924232
v 108.172165 74.509712 99.959190
v 108.467606 74.571159 100.422661
v 108.345032 74.459648 90.079453
v 108.409637 74.701820 91.017639
v 108.362717 74.878456 91.560120
v 108.459854 74.811722 100.982483
v 108.138832 75.046860 101.010345
v 108.533287 74.972321 101.960899
v 108.348381 75.132271 101.959976
v 108.496567 75.099495 102.469460
v 108.321281 75.041229 92.055511
v 108.365784 75.211891 93.014061
v 108.346962 75.440865 93.578629
v 108.111092 75.593147 101.991905
v 108.478004 75.348320 102.974709
v 108.330612 75.672234 102.951813
v 108.461273 75.624489 103.482147
v 108.318954 75.626869 94.057610
v 108.371147 75.815208 95.006592
v 108.423019 76.090202 95.530769
v 108.053947 76.182465 102.018204
v 108.240982 76.182541 102.983635
v 108.480217 75.923653 103.971512
v 108.391296 76.247070 103.923019
v 108.556023 76.223778 104.430428
v 108.402863 76.422592 96.030922
v 108.404091 76.700760 96.532082
v 108.108002 76.770561 101.989502
v 108.317535 76.698563 102.972572
v 108.405899 76.680542 103.943687
v 108.554787 76.722130 104.433617
v 108.402946 76.898415 97.044655
v 108.385292 77.114403 98.002853
v 108.182297 77.254738 99.019653
v 108.445717 77.255325 98.544617
v 108.177559 77.268166 100.000252
v 108.187302 77.250038 101.008080
v 108.355408 77.224388 101.960144
v 108.483574 77.281876 102.479195
v 108.441025 77.047943 102.999184
v 108.516380 76.987862 103.975288
v 108.501480 77.374893 99.049759
v 108.494499 77.421928 100.002304
v 108.496582 77.427788 100.999786
v 108.538383 77.389641 101.972633
v 108.400139 66.368156 80.007690
v 108.407074 66.899918 79.102371
v 108.563881 66.831261 80.002701
v 108.478729 66.888069 80.952545
v 108.465256 67.390724 79.077446
v 108.613289 67.392319 80.005241
v 108.616020 67.403595 80.992119
v 108.481430 67.473412 81.952110
v 108.416985 67.894821 79.097130
v 108.609406 67.962494 80.010239
v 108.634033 67.975639 80.999168
v 108.604088 67.990082 81.992188
v 108.504265 68.045662 82.976677
v 108.445374 68.096016 83.964684
v 108.480408 68.478378 80.048859
v 108.593430 68.542290 81.006851
v 108.609276 68.553886 82.001991
v 108.609291 68.570107 82.998001
v 108.593506 68.581718 83.993172
v 108.479958 68.646667 84.952896
v 108.438011 69.022491 81.036591
v 108.502502 69.077438 82.023682
v 108.604073 69.133934 83.007820
v 108.634346 69.149208 84.002274
v 108.634064 69.162453 84.999847
v 108.527504 69.219101 85.958916
v 108.477432 69.648613 83.049057
v 108.621719 69.722992 84.010750
v 108.690376 69.733879 84.998299
v 108.787628 69.710159 85.968834
v 108.676537 69.750229 86.969315
v 108.484734 70.237068 84.051941
v 108.734917 70.290611 85.008865
v 108.886299 70.357910 85.555000
v 108.935272 70.065536 86.021782
v 108.958160 70.054138 87.012619
v 108.885902 70.247757 87.950211
v 108.912277 70.482391 88.414726
v 108.596764 70.850403 85.034874
v 108.902740 70.920708 85.530266
v 108.932663 70.757713 88.916939
v 108.942146 71.029266 89.428581
v 108.892952 71.482269 85.651375
v 108.940575 71.307739 89.959160
v 108.655739 71.570618 90.963150
v 108.968582 71.527481 90.483093
v 108.813499 71.979233 85.770805
v 108.958122 71.817139 90.980118
v 108.676033 72.111115 91.983627
v 108.960800 72.106499 91.484444
v 108.926796 72.316315 86.058121
v 108.645561 72.590523 86.062950
v 108.971626 72.639832 86.515808
v 108.940575 72.395218 92.008659
v 108.877792 72.575630 92.967857
v 108.654503 72.734955 93.966438
v 108.907379 72.746078 93.470345
v 108.657982 73.172310 87.036522
v 108.982536 72.941872 87.008125
v 108.967155 73.211273 87.517715
v 108.925591 73.003036 93.975578
v 108.668350 73.290352 94.979576
v 108.934029 73.289192 94.476982
v 108.936867 73.426926 88.042488
v 108.929718 73.683380 88.583115
v 108.932816 73.583336 94.977188
v 108.719597 73.817924 96.004128
v 108.955673 73.860893 95.486961
v 108.642227 73.918961 96.974228
v 108.906593 73.904343 89.054649
v 108.662277 74.346230 90.029961
v 108.976639 74.118355 89.980064
v 108.923286 74.338539 90.524223
v 108.985367 74.129288 96.009880
v 108.972382 74.156921 97.043228
v 108.980980 74.188644 97.999969
v 108.984093 74.234856 98.993279
v 108.995087 74.335304 99.952217
v 108.998108 74.488731 100.474892
v 108.867050 74.479256 91.037178
v 108.619545 74.894485 92.029221
v 108.892670 74.641174 91.992233
v 108.695747 74.994095 93.000305
v 108.958809 74.699875 93.000938
v 108.927788 74.960693 93.522209
v 108.998154 74.668983 101.016464
v 109.012512 74.805817 101.991028
v 109.080200 74.937996 102.951866
v 108.750336 75.081017 102.973564
v 109.029953 75.066650 103.480125
v 108.611130 75.474403 94.034241
v 108.885971 75.213806 94.022659
v 108.708733 75.596779 94.997795
v 108.973160 75.296043 95.001297
v 108.990082 75.625641 95.472099
v 108.998573 75.296661 104.012512
v 108.700310 75.600212 104.017853
v 109.114807 75.513100 104.957565
v 108.944740 75.705788 104.939919
v 109.181152 75.697662 105.399628
v 108.854515 76.020973 95.745834
v 108.774323 76.175484 104.945122
v 109.041969 76.185867 105.472450
v 108.908005 76.305824 96.113678
v 108.929100 76.602386 96.591270
v 108.758095 76.776680 104.950592
v 109.036316 76.760025 105.479012
v 108.925545 76.827751 97.074028
v 108.989136 77.087418 97.992889
v 108.993736 77.281769 98.528015
v 108.690887 77.367226 103.005379
v 108.732750 77.315125 104.012688
v 108.931488 77.262573 104.942093
v 109.152016 77.284180 105.415031
v 108.995888 77.430397 99.046783
v 108.997490 77.508743 100.006729
v 109.007210 77.548721 101.003387
v 109.010056 77.587883 102.000069
v 109.009544 77.629776 102.958862
v 109.020805 77.617325 104.000694
v 109.111900 77.553627 104.968361
v 109.082138 70.400414 86.043800
v 109.230858 70.385696 86.993065
v 109.076958 70.438705 87.962357
v 109.220978 70.896461 86.061211
v 109.432655 70.961540 86.568375
v 109.454430 70.704727 87.008522
v 109.535721 70.928841 87.493111
v 109.406937 70.858856 88.013359
v 109.214119 70.978027 88.948944
v 109.217445 71.485207 86.050850
v 109.482346 71.489792 86.545578
v 109.579666 71.187637 88.006248
v 109.486565 71.271049 88.981674
v 109.254715 71.532043 89.980270
v 109.508827 71.541389 89.473503
v 109.133247 72.015663 86.105766
v 109.422379 72.015961 86.587196
v 109.503510 71.833488 89.965279
v 109.177650 72.135910 90.961441
v 109.443359 72.132439 90.426315
v 109.269135 72.647156 87.010345
v 109.505791 72.324814 87.034164
v 109.514297 72.622475 87.524712
v 109.327011 72.668518 91.012398
v 109.511581 72.666397 90.473640
v 109.104149 72.730385 91.974457
v 109.031502 72.783951 92.964653
v 109.251938 73.205383 88.020409
v 109.514137 72.913605 88.024979
v 109.500557 73.192413 88.530190
v 109.353096 73.274498 91.002502
v 109.475624 73.212372 90.449608
v 109.221107 73.256432 91.994278
v 109.165741 73.270782 92.992432
v 109.067223 73.333420 93.952332
v 109.197159 73.722206 89.036285
v 109.465424 73.451256 89.019264
v 109.256584 73.808678 90.044647
v 109.476051 73.470284 89.978249
v 109.229736 73.821037 91.000061
v 109.205688 73.825325 91.998276
v 109.195877 73.828835 93.001755
v 109.174919 73.851425 93.990295
v 109.053619 73.922356 94.952286
v 109.030899 74.294838 91.030487
v 109.070930 74.334129 92.003014
v 109.104477 74.357933 93.019806
v 109.161240 74.404533 94.004333
v 109.150246 74.431900 95.000458
v 109.133873 74.476189 95.983078
v 109.285004 74.435028 96.973526
v 109.504967 74.490746 97.523369
v 109.460098 74.379707 98.029472
v 109.491554 74.354721 99.000237
v 109.489532 74.402489 99.948265
v 109.537407 74.547012 100.442993
v 109.050446 74.907707 94.030899
v 109.091805 74.945641 95.026871
v 109.291267 74.989891 96.000923
v 109.469963 75.046860 96.556480
v 109.525764 74.748207 97.023621
v 109.600250 74.671707 101.006805
v 109.581886 74.764992 101.996796
v 109.596710 74.814331 102.990845
v 109.662399 74.939667 103.951958
v 109.315498 75.055717 103.986588
v 109.596672 75.038986 104.492584
v 109.231117 75.565437 95.995811
v 109.520760 75.588730 96.532890
v 109.551399 75.203712 105.017067
v 109.677818 75.542610 105.907623
v 109.468483 75.701424 105.883644
v 109.728233 75.740669 106.270111
v 109.123909 76.098595 96.112282
v 109.432251 76.115303 96.589508
v 109.334717 76.207481 105.998550
v 109.598282 76.159248 106.507881
v 109.241112 76.689919 97.037651
v 109.524879 76.425331 97.036171
v 109.547142 76.721695 97.521507
v 109.287468 76.762154 105.994217
v 109.687157 76.516937 106.927551
v 109.626358 76.765236 106.877983
v 109.850815 76.771576 107.163292
v 109.522705 76.943130 98.042305
v 109.513275 77.189102 98.586868
v 109.409233 77.291870 105.956375
v 109.613762 77.334740 106.488884
v 109.684021 77.028084 106.945007
v 109.487511 77.366524 99.055511
v 109.516922 77.447395 100.022385
v 109.570862 77.559822 101.010490
v 109.557579 77.698112 102.000938
v 109.357735 77.831673 103.020782
v 109.615318 77.829765 102.548576
v 109.338173 77.866547 103.999557
v 109.379868 77.824120 104.978424
v 109.635445 77.867432 105.474052
v 109.619110 77.616516 105.984093
v 109.668289 77.940460 103.054924
v 109.668312 77.998436 104.002052
v 109.682846 77.992943 104.971016
v 109.570869 71.017044 87.017708
v 109.644211 71.500458 87.044571
v 109.674446 71.554237 87.982628
v 109.638092 71.590271 88.968430
v 109.603653 72.001930 87.077911
v 109.725029 72.071922 88.009842
v 109.741074 72.095238 88.991608
v 109.620094 72.152374 89.925911
v 109.638695 72.578873 88.050369
v 109.741989 72.645119 89.003281
v 109.665131 72.662659 89.952438
v 109.624786 73.146248 89.029907
v 109.598839 73.156555 89.949814
v 109.669472 74.542168 98.029541
v 109.802826 74.523659 98.990227
v 109.785950 74.544266 99.973915
v 109.682846 75.070763 97.063248
v 109.979149 74.974762 97.980286
v 110.126419 75.028831 98.509163
v 110.062195 74.795883 99.017632
v 110.086960 74.775505 100.024879
v 110.109756 74.869461 101.017090
v 110.148643 74.814804 102.001877
v 110.157181 74.823936 102.997940
v 110.172470 74.868126 103.985970
v 110.233009 74.983315 104.925514
v 109.891258 75.054916 104.985115
v 110.204689 75.131279 105.441223
v 109.800835 75.581169 97.057961
v 110.020668 75.633698 97.572067
v 110.122810 75.316208 98.013695
v 110.182907 75.359108 105.979050
v 110.148140 75.612717 106.515312
v 109.727829 76.121193 97.084999
v 109.997238 76.122276 97.589653
v 110.194626 75.915634 106.971336
v 109.909676 76.211098 106.965897
v 110.258430 76.264885 107.315453
v 109.834900 76.718887 98.022034
v 110.077690 76.418221 98.040497
v 110.090790 76.710480 98.529655
v 110.219566 76.765015 107.524025
v 109.780945 77.228188 99.034172
v 110.070282 76.979866 99.021622
v 109.866043 77.325104 100.001617
v 110.187477 77.076706 99.992935
v 110.141884 77.310867 100.514130
v 109.847649 77.368210 106.992386
v 110.225395 77.331093 107.452263
v 110.090279 77.443146 101.044914
v 110.164978 77.638206 102.010574
v 110.129318 77.807465 102.560432
v 109.889214 77.898155 106.006905
v 110.115234 77.813614 106.928650
v 110.326492 77.789520 107.261436
v 110.100861 77.957764 103.075874
v 110.165436 78.074387 104.014420
v 110.187119 78.133415 105.002716
v 110.221642 78.086403 105.983009
v 110.291908 77.979713 106.938934
v 110.252441 75.098732 99.029686
v 110.315895 75.074982 100.000702
v 110.435921 75.057190 100.979851
v 110.669312 75.092430 101.526993
v 110.626297 74.982101 102.034355
v 110.665436 74.934761 103.002541
v 110.668274 74.946953 103.996544
v 110.667801 75.007309 104.943367
v 110.713188 75.142479 105.440819
v 110.214767 75.657005 98.073029
v 110.381599 75.608612 99.014786
v 110.586639 75.545639 99.964836
v 110.721046 75.606598 100.507942
v 110.693489 75.338966 101.019745
v 110.782524 75.282661 105.989334
v 110.827065 75.554955 106.909279
v 110.504951 75.670052 106.946129
v 110.837524 75.765923 107.279037
v 110.187263 76.109253 98.085754
v 110.449005 76.166618 99.025887
v 110.586601 76.170494 99.585442
v 110.695366 75.900864 100.015526
v 110.715569 76.144547 107.626144
v 110.259369 76.677422 99.036186
v 110.662331 76.440430 100.025360
v 110.462608 76.761917 99.983627
v 110.684120 76.728386 100.522758
v 110.792358 76.501991 107.952911
v 110.586288 76.809746 107.898361
v 110.955589 76.860077 108.190727
v 110.415688 77.284821 101.024597
v 110.681572 77.010269 101.026688
v 110.668106 77.268311 101.529633
v 110.601944 77.303284 107.891960
v 110.959946 77.256805 108.187416
v 110.638939 77.423096 102.038399
v 110.424500 77.869011 103.027672
v 110.748344 77.647285 102.984406
v 110.723267 77.885521 103.518257
v 110.809082 77.604797 107.947037
v 110.723106 77.945724 107.526749
v 110.678452 78.014160 104.053627
v 110.753143 78.195755 105.001526
v 110.722214 78.329117 105.971970
v 110.749466 78.245071 106.993607
v 110.810822 75.136307 102.037567
v 110.971268 75.113571 102.990471
v 110.986206 75.091759 103.998955
v 110.973785 75.118019 104.975983
v 110.836700 75.670303 101.049774
v 111.052299 75.590836 102.011826
v 111.209023 75.641731 102.560295
v 111.219460 75.389076 103.027008
v 111.273460 75.352547 104.006302
v 111.315598 75.330719 105.045471
v 111.324890 75.371689 105.997284
v 111.337395 75.522072 106.939880
v 111.332047 75.738846 107.437729
v 110.715599 76.174538 100.101341
v 110.907501 76.180389 101.026306
v 111.106026 76.179085 101.982872
v 111.295502 76.179573 102.516960
v 111.389450 76.039429 107.887817
v 111.078178 76.224731 107.948967
v 111.434570 76.384506 108.188522
v 110.819084 76.684235 101.052490
v 111.054779 76.768311 102.008492
v 111.233490 76.725998 102.550957
v 111.373177 76.798157 108.333336
v 110.822388 77.237061 102.038788
v 111.279854 77.027557 103.020737
v 111.051407 77.348137 102.984444
v 111.308220 77.329964 103.512962
v 111.373146 77.327232 108.359215
v 111.016411 77.888733 104.022408
v 111.314629 77.623695 104.013641
v 111.369225 77.930244 104.484314
v 111.076683 77.909012 107.965523
v 111.468597 77.812653 108.245888
v 111.285042 78.195251 105.016762
v 111.083046 78.458893 106.012779
v 111.381683 78.400749 105.557671
v 111.088821 78.464928 106.987968
v 111.372864 78.471329 107.481613
v 111.377266 78.192245 107.962021
v 111.425064 78.577469 106.050957
v 111.426231 78.631561 106.977509
v 111.366585 75.685921 103.053741
v 111.468613 75.664810 104.004906
v 111.641869 75.597351 104.972221
v 111.893051 75.640068 105.515549
v 111.825500 75.529922 106.023979
v 111.835495 75.575569 106.948509
v 111.866295 75.755798 107.413780
v 111.440414 76.181099 103.051888
v 111.667763 76.168671 104.002609
v 111.901672 76.223427 104.540398
v 111.922012 75.891922 105.004333
v 111.879555 76.037132 107.894363
v 111.840958 76.383263 108.196732
v 111.400513 76.695297 103.073532
v 111.696289 76.767128 103.977577
v 111.974365 76.763779 104.396996
v 111.916916 76.791267 108.388756
v 111.555046 77.311050 104.019440
v 111.911583 77.346581 104.442406
v 111.934494 77.347748 108.480209
v 111.845192 77.795181 104.707069
v 111.946213 77.923264 108.441177
v 111.868118 78.104050 105.085068
v 111.952820 78.417252 105.543274
v 111.669899 78.487656 107.961479
v 112.040031 78.415283 108.287804
v 111.939384 78.672119 106.044319
v 111.911667 78.885292 106.982285
v 111.980118 78.748871 107.950890
v 112.169823 75.669312 106.011566
v 112.167175 75.678688 106.983383
v 112.211067 76.189148 105.003860
v 112.548347 76.161369 105.466743
v 112.518234 75.872948 106.004944
v 112.525764 75.860596 106.998940
v 112.203232 76.210022 107.974075
v 112.545151 76.109917 107.542130
v 112.327492 76.842491 104.748405
v 112.471176 76.506058 105.044327
v 112.541573 76.407822 108.033104
v 112.484055 76.806473 108.377258
v 112.319992 77.268410 104.765076
v 112.474380 77.323128 108.635170
v 112.483261 77.624008 105.035210
v 112.199226 77.910591 105.031761
v 112.601845 78.021332 105.314003
v 112.411461 77.940392 108.667595
v 112.513359 78.427467 105.640114
v 112.458961 78.518738 108.600380
v 112.486992 78.768799 106.056709
v 112.254120 79.056007 107.011902
v 112.555710 79.011086 106.551804
v 112.290176 79.036514 107.968552
v 112.600662 79.019051 108.418205
v 112.581215 79.223846 107.042419
v 112.603828 79.319038 107.962799
v 113.002052 76.337486 105.717285
v 112.996078 76.128227 106.057022
v 113.017303 76.089767 106.960320
v 113.061790 76.265823 107.453384
v 112.687668 76.810020 105.093109
v 113.076263 76.771774 105.453094
v 113.112366 76.484451 107.970222
v 113.073090 76.847992 108.474373
v 112.703224 77.314568 105.079033
v 113.127937 77.379097 105.386467
v 113.165222 77.202980 108.887138
v 112.915977 77.409615 108.904297
v 113.271553 77.527824 109.158745
v 113.097549 77.937469 105.489471
v 112.824898 77.941132 108.977951
v 113.232735 77.949097 109.269875
v 113.088722 78.397339 105.713776
v 112.840271 78.521515 108.962906
v 113.224670 78.515129 109.306969
v 113.090218 78.758942 106.050522
v 113.128990 79.133263 106.509583
v 112.946304 79.051819 108.904381
v 113.275734 79.024826 109.260452
v 113.066422 79.447853 106.994095
v 112.901115 79.577248 107.997940
v 113.129166 79.640488 107.514397
v 113.147903 79.625862 108.475685
v 113.166550 79.351868 108.949516
v 113.207489 79.770905 107.997955
v 113.289780 76.311386 106.046951
v 113.349564 76.249718 106.983971
v 113.498604 76.863541 105.753479
v 113.593277 76.571999 106.077240
v 113.695045 76.413406 107.021667
v 113.668999 76.602371 107.964203
v 113.682404 76.826584 108.469055
v 113.608246 77.392967 105.671593
v 113.690315 77.141975 108.933762
v 113.697540 77.485977 109.272163
v 113.630539 77.923988 105.671104
v 113.692276 77.937370 109.493477
v 113.578964 78.333366 105.801575
v 113.655144 78.497505 109.613167
v 113.640259 78.720833 106.077568
v 113.712471 79.117653 106.410782
v 113.648987 79.100456 109.581841
v 113.422318 79.626221 107.036835
v 113.770035 79.500130 106.750847
v 113.424744 79.667183 108.974144
v 113.761993 79.615189 109.425362
v 113.756645 79.763557 107.084763
v 113.679626 80.044609 107.992477
v 113.729889 79.927193 108.963844
v 113.846535 76.834900 106.089539
v 114.180458 76.862961 106.577095
v 114.163895 76.688652 107.031837
v 114.182800 76.713486 107.949829
v 114.222504 76.898468 108.433876
v 114.023842 77.333298 105.985123
v 114.362267 77.305840 106.345062
v 114.276558 77.129578 108.930222
v 114.271156 77.464714 109.341469
v 114.007332 77.931671 105.871506
v 114.234093 77.660278 106.042664
v 114.188965 77.859940 109.675758
v 114.226608 78.206055 106.053207
v 113.956421 78.498260 106.036339
v 114.374458 78.624199 106.281235
v 114.296043 78.251106 109.965561
v 114.067963 78.562965 109.931557
v 114.453514 78.620468 110.223320
v 114.270950 79.108307 106.488091
v 114.027611 79.110687 109.947815
v 114.409363 79.109894 110.288795
v 114.270340 79.548164 106.745125
v 114.120331 79.637672 109.902153
v 114.456886 79.605553 110.244247
v 114.256676 79.894012 107.089111
v 114.021530 80.204582 108.014099
v 114.316566 80.144623 107.566017
v 114.047424 80.192116 108.979042
v 114.318214 80.217361 109.474472
v 114.339134 79.935646 109.945457
v 114.354858 80.335312 108.051605
v 114.364532 80.378746 108.976372
v 114.480179 76.874123 107.024986
v 114.514137 76.852295 107.980820
v 114.766548 77.437508 106.681427
v 114.797401 77.134651 107.055672
v 114.858971 77.007225 108.010353
v 114.791245 77.256790 108.935745
v 114.791176 77.520988 109.437164
v 114.392036 77.938492 106.128609
v 114.804451 77.959129 106.457169
v 114.930901 77.778008 109.876534
v 114.587517 77.973579 109.956200
v 114.955322 78.127960 110.214157
v 114.848747 78.526047 106.499321
v 114.880188 78.547012 110.436226
v 114.831161 79.085289 106.612625
v 114.848412 79.085617 110.585892
v 114.755348 79.502525 106.796341
v 114.868202 79.696159 110.557022
v 114.802254 79.850815 107.103333
v 114.882942 80.177170 107.541763
v 114.601158 80.245522 109.964172
v 114.935799 80.202087 110.327431
v 114.869270 80.429993 108.044189
v 114.841324 80.643333 108.981651
v 114.911446 80.503403 109.952766
v 115.103996 77.400208 107.038422
v 115.381981 77.425461 107.527641
v 115.332504 77.279083 108.004982
v 115.137611 77.382202 108.988876
v 115.422127 77.392258 108.492538
v 115.243645 78.034340 106.772179
v 115.368584 77.702797 107.058876
v 115.488251 77.524879 109.034485
v 115.426796 77.832718 109.925308
v 115.444183 78.089981 110.286507
v 115.300873 78.524208 106.738594
v 115.418259 78.495323 110.615860
v 115.251762 79.010132 106.793625
v 115.493484 78.913033 110.921219
v 115.267075 79.162247 110.898544
v 115.625397 79.267326 111.152443
v 115.415504 79.382889 107.034004
v 115.125877 79.663780 107.040878
v 115.529175 79.777885 107.318192
v 115.262978 79.657265 110.909111
v 115.644936 79.610306 111.192383
v 115.444084 80.185608 107.639198
v 115.459084 79.980782 110.982277
v 115.341110 80.329483 110.660049
v 115.417030 80.526054 108.057030
v 115.189346 80.796417 109.012558
v 115.483894 80.750626 108.556274
v 115.229729 80.764000 109.970856
v 115.531395 80.762703 110.424667
v 115.526848 80.921967 109.050774
v 115.543266 80.949348 109.969795
v 115.633057 77.476990 108.002655
v 115.590851 77.999100 107.100830
v 115.936844 78.026268 107.583000
v 115.937088 77.731483 108.040077
v 115.976562 77.771667 109.000443
v 115.927582 77.914703 109.931862
v 115.911270 78.097717 110.280113
v 115.680923 78.526558 107.055984
v 116.060120 78.531250 107.419441
v 116.017380 78.359734 110.638275
v 115.643806 79.072548 107.068207
v 116.056755 79.135101 107.386681
v 116.004028 78.762512 111.020767
v 116.078972 79.189171 111.277313
v 116.020226 79.696602 107.505600
v 116.056107 79.693863 111.375969
v 116.015266 80.150238 107.723000
v 115.680832 80.304489 111.020500
v 116.106567 80.232269 111.311287
v 116.017914 80.497055 108.061157
v 116.033340 80.808670 108.532074
v 115.874290 80.776192 110.897781
v 116.194206 80.694374 111.192924
v 116.040649 81.028801 109.037544
v 116.026917 81.209732 109.990318
v 116.122643 80.938942 110.912491
v 116.242264 78.018135 108.028259
v 116.315620 77.948456 108.994362
v 116.296455 78.048195 110.024818
v 116.428146 78.613220 107.745583
v 116.529007 78.318550 108.072739
v 116.649521 78.137283 109.007652
v 116.655609 78.146797 109.996574
v 116.658943 78.473396 110.873047
v 116.335220 78.565315 110.964157
v 116.702652 78.745865 111.187248
v 116.486282 79.118820 107.694786
v 116.624718 79.134628 111.401215
v 116.478607 79.684807 107.731270
v 116.608086 79.690781 111.544640
v 116.439819 80.106346 107.841721
v 116.629463 80.273392 111.582809
v 116.544266 80.429466 108.114082
v 116.637367 80.777580 108.533379
v 116.651657 80.819603 111.361626
v 116.590508 81.125069 109.043427
v 116.381989 81.361839 110.003700
v 116.656807 81.336929 109.553734
v 116.641304 81.389305 110.484825
v 116.598053 81.193710 110.988876
v 116.716209 81.466682 110.014275
v 116.755898 78.593452 108.104774
v 117.102867 78.625015 108.589127
v 117.118050 78.415558 109.044365
v 117.173378 78.312157 109.996025
v 117.130302 78.513275 110.901329
v 117.122185 78.742790 111.205261
v 116.870323 79.115898 108.037231
v 117.249580 79.113762 108.401855
v 117.195160 79.126091 111.479721
v 116.885780 79.693970 108.023201
v 117.300240 79.692490 108.332298
v 117.102417 79.592850 111.716072
v 116.794334 80.224380 108.098686
v 117.231400 80.303635 108.383278
v 117.242043 80.014053 111.942734
v 117.076096 80.283974 111.869568
v 117.468369 80.283096 112.115799
v 117.195343 80.767441 108.656166
v 117.250046 80.546394 111.941803
v 117.139961 80.917137 111.642204
v 117.195839 81.113716 109.034523
v 117.204872 81.390656 109.529968
v 116.938072 81.384743 110.965393
v 117.272675 81.310104 111.303444
v 117.217445 81.536812 110.035805
v 117.275833 81.502426 110.926193
v 117.445633 78.599350 109.032478
v 117.739540 78.605179 109.524986
v 117.674316 78.482452 110.001411
v 117.463379 78.601021 110.959518
v 117.761375 78.577202 110.487984
v 117.674835 79.212929 108.706009
v 117.746315 78.861282 109.040588
v 117.829895 78.745834 111.010902
v 117.730469 79.117966 111.495064
v 117.759384 79.712044 108.573532
v 117.832283 79.520279 111.912590
v 117.517090 79.727768 111.957443
v 117.893372 79.890816 112.191406
v 117.762169 80.274712 108.578003
v 117.846130 80.284225 112.292473
v 117.771309 80.730545 108.737465
v 117.511459 80.852966 111.971870
v 117.918327 80.740265 112.232498
v 117.777977 81.088989 109.056511
v 117.785759 81.399391 109.528229
v 117.815651 81.128036 111.964516
v 117.764511 81.435501 111.514816
v 117.791748 81.598351 110.039810
v 117.814552 81.633568 110.982544
v 118.011002 78.617142 110.001106
v 118.053871 79.134644 109.028648
v 118.421974 79.082756 109.457710
v 118.383186 78.792686 110.023293
v 118.366920 78.885422 110.982857
v 118.372192 79.133720 111.486763
v 118.180359 79.795853 108.790436
v 118.331985 79.436829 109.046890
v 118.376930 79.471664 111.943901
v 118.382713 79.837616 112.255432
v 118.221436 80.281090 108.761078
v 118.376747 80.295685 112.390732
v 118.196510 80.692291 108.844406
v 118.398743 80.837936 112.360619
v 118.301483 81.012634 109.115334
v 118.397514 81.354492 109.537422
v 118.122864 81.383270 111.944122
v 118.477676 81.247116 112.197952
v 118.374969 81.635025 110.035011
v 118.351448 81.820656 110.990295
v 118.446762 81.522171 111.913841
v 118.936554 79.218925 109.662094
v 118.935570 78.981262 110.053101
v 118.952271 78.969246 110.963211
v 118.957542 79.149696 111.480194
v 118.570236 79.736641 109.073029
v 118.990280 79.673164 109.383842
v 118.957985 79.458839 111.955536
v 118.958252 79.828247 112.268814
v 118.630257 80.281982 109.036499
v 119.061790 80.281570 109.315186
v 118.957069 80.292038 112.426369
v 118.550529 80.809814 109.101349
v 118.988403 80.890968 109.382622
v 118.959221 80.855530 112.411751
v 118.952843 81.348923 109.661598
v 118.970039 81.306862 112.246605
v 118.930458 81.700264 110.057770
v 118.724831 81.939674 110.997780
v 119.003914 81.906555 110.559357
v 119.007172 81.895180 111.431999
v 118.953804 81.665115 111.920662
v 119.051430 82.006889 110.999084
v 119.435661 79.316284 109.793022
v 119.459984 79.099731 110.091354
v 119.523483 79.035118 110.964218
v 119.533691 79.191269 111.460701
v 119.507065 79.721352 109.604515
v 119.533607 79.483032 111.937668
v 119.529282 79.839790 112.246925
v 119.535500 80.282547 109.522522
v 119.528648 80.295303 112.386765
v 119.524155 80.860420 109.563797
v 119.528656 80.854523 112.386894
v 119.528702 81.316978 109.737015
v 119.530190 81.309425 112.245308
v 119.531380 81.659348 110.067245
v 119.539597 81.928108 110.547966
v 119.535751 81.657784 111.931793
v 119.540764 81.931244 111.454681
v 119.542519 82.028008 111.000031
v 119.768044 79.221985 110.071434
v 120.020287 79.222847 110.533508
v 119.987793 79.147682 110.980141
v 120.009850 79.311913 111.396873
v 119.916672 79.802750 109.805061
v 120.028084 79.468651 110.067490
v 120.012970 79.594307 111.865372
v 119.930336 79.881920 112.144173
v 119.964096 80.294899 109.757568
v 119.959831 80.297691 112.228798
v 119.960541 80.853767 109.765488
v 119.961639 80.853218 112.231697
v 119.931053 81.268738 109.855072
v 119.934174 81.272911 112.147110
v 120.013100 81.556068 110.134445
v 120.008080 81.832367 110.605690
v 120.023560 81.573578 111.874382
v 120.016174 81.849388 111.405731
v 119.997513 81.967186 111.002380
v 120.116829 79.263962 110.990067
v 120.147293 79.775818 110.093071
v 120.275131 79.723984 110.999878
v 120.119873 79.798920 111.894630
v 120.205063 80.293762 110.072975
v 120.347275 80.285995 110.999245
v 120.200745 80.295456 111.925522
v 120.200912 80.854546 110.074318
v 120.347130 80.863983 111.000740
v 120.203224 80.855202 111.927116
v 120.120331 81.351280 110.104988
v 120.272141 81.425156 110.999741
v 120.131767 81.357643 111.899155
v 120.110405 81.881142 111.002365
# 1314 vertices, 0 vertices normals

f 3 2 1
f 1 4 3
f 7 6 5
f 7 5 2
f 5 1 2
f 5 8 1
f 4 1 9
f 1 10 9
f 1 8 10
f 10 11 9
f 5 6 12
f 12 6 13
f 5 14 8
f 5 12 14
f 8 15 10
f 8 14 15
f 11 10 16
f 10 17 16
f 10 15 17
f 19 18 17
f 17 18 16
f 19 20 18
f 12 13 21
f 21 13 22
f 12 23 14
f 12 21 23
f 14 24 15
f 14 23 24
f 15 25 17
f 15 24 25
f 17 26 19
f 17 25 26
f 20 19 27
f 19 28 27
f 19 26 28
f 28 29 27
f 22 30 21
f 32 31 30
f 31 21 30
f 31 23 21
f 23 33 24
f 23 31 33
f 24 34 25
f 24 33 34
f 25 35 26
f 25 34 35
f 26 36 28
f 26 35 36
f 29 28 37
f 28 38 37
f 28 36 38
f 38 39 37
f 32 40 31
f 42 41 40
f 41 31 40
f 41 33 31
f 33 43 34
f 33 41 43
f 34 44 35
f 34 43 44
f 35 45 36
f 35 44 45
f 36 46 38
f 36 45 46
f 39 38 47
f 38 48 47
f 38 46 48
f 48 49 47
f 42 50 41
f 41 50 43
f 43 50 51
f 53 52 51
f 52 43 51
f 52 44 43
f 44 54 45
f 44 52 54
f 45 55 46
f 45 54 55
f 46 56 48
f 46 55 56
f 49 48 57
f 48 58 57
f 48 56 58
f 58 59 57
f 53 60 52
f 62 61 60
f 61 52 60
f 61 54 52
f 54 63 55
f 54 61 63
f 55 64 56
f 55 63 64
f 56 65 58
f 56 64 65
f 59 58 66
f 66 58 65
f 62 67 61
f 69 68 67
f 68 61 67
f 68 63 61
f 63 70 64
f 63 68 70
f 64 71 65
f 64 70 71
f 66 65 72
f 72 65 71
f 69 73 68
f 68 73 70
f 70 73 74
f 70 74 71
f 71 74 75
f 71 75 72
f 78 77 76
f 80 79 76
f 76 79 78
f 82 81 80
f 80 81 79
f 84 83 82
f 82 83 81
f 84 85 83
f 77 86 76
f 88 87 86
f 87 76 86
f 87 80 76
f 80 89 82
f 80 87 89
f 82 90 84
f 82 89 90
f 85 84 91
f 84 92 91
f 84 90 92
f 92 93 91
f 88 94 87
f 96 95 94
f 95 87 94
f 95 89 87
f 89 97 90
f 89 95 97
f 90 98 92
f 90 97 98
f 93 92 99
f 99 92 98
f 96 100 95
f 102 101 100
f 101 95 100
f 101 97 95
f 97 103 98
f 97 101 103
f 99 98 104
f 104 98 103
f 102 105 101
f 101 105 103
f 103 105 106
f 103 106 104
f 108 107 3
f 3 107 2
f 110 109 4
f 109 3 4
f 109 108 3
f 110 111 109
f 113 112 7
f 7 112 6
f 7 2 107
f 7 107 113
f 9 110 4
f 115 114 11
f 11 114 9
f 114 111 9
f 111 110 9
f 115 116 114
f 112 13 6
f 117 13 112
f 16 115 11
f 118 116 115
f 16 118 115
f 18 118 16
f 18 20 118
f 118 20 119
f 117 22 13
f 120 22 117
f 121 119 20
f 121 20 27
f 123 122 29
f 122 27 29
f 122 121 27
f 123 124 122
f 30 22 125
f 22 126 125
f 22 120 126
f 125 32 30
f 37 123 29
f 128 127 39
f 39 127 37
f 127 124 37
f 124 123 37
f 128 129 127
f 126 130 125
f 130 132 131
f 130 131 40
f 125 130 40
f 32 125 40
f 131 42 40
f 47 128 39
f 134 133 49
f 49 133 47
f 133 129 47
f 129 128 47
f 134 135 133
f 132 136 131
f 131 136 42
f 136 50 42
f 136 137 50
f 137 139 138
f 51 137 138
f 50 137 51
f 138 53 51
f 57 134 49
f 57 59 134
f 59 135 134
f 59 140 135
f 139 141 138
f 141 143 142
f 141 142 60
f 138 141 60
f 53 138 60
f 142 62 60
f 66 145 144
f 140 66 144
f 59 66 140
f 145 146 144
f 143 147 142
f 147 149 148
f 147 148 67
f 142 147 67
f 62 142 67
f 148 69 67
f 72 150 145
f 72 145 66
f 146 145 151
f 151 145 150
f 149 152 148
f 148 152 69
f 152 73 69
f 152 153 73
f 153 155 154
f 74 153 154
f 73 153 74
f 156 75 74
f 156 74 154
f 150 72 75
f 156 150 75
f 157 150 156
f 151 150 158
f 158 150 157
f 155 159 154
f 161 160 159
f 160 154 159
f 160 156 154
f 156 162 157
f 156 160 162
f 158 157 163
f 157 164 163
f 157 162 164
f 166 165 164
f 164 165 163
f 168 167 166
f 166 167 165
f 168 169 167
f 161 170 160
f 172 171 170
f 171 160 170
f 171 162 160
f 162 173 164
f 162 171 173
f 164 174 166
f 164 173 174
f 166 175 168
f 166 174 175
f 169 168 176
f 168 177 176
f 168 175 177
f 179 178 177
f 177 178 176
f 181 180 179
f 179 180 178
f 181 182 180
f 172 183 171
f 185 184 183
f 184 171 183
f 184 173 171
f 173 186 174
f 173 184 186
f 174 187 175
f 174 186 187
f 175 188 177
f 175 187 188
f 177 189 179
f 177 188 189
f 179 190 181
f 179 189 190
f 182 181 191
f 181 192 191
f 181 190 192
f 194 193 192
f 192 193 191
f 194 195 193
f 185 196 184
f 198 197 196
f 197 184 196
f 197 186 184
f 186 199 187
f 186 197 199
f 187 200 188
f 187 199 200
f 200 77 78
f 189 200 78
f 188 200 189
f 189 78 79
f 189 79 190
f 190 79 81
f 190 81 192
f 192 81 83
f 192 83 194
f 202 201 85
f 85 201 83
f 201 195 83
f 195 194 83
f 202 203 201
f 198 204 197
f 197 204 199
f 199 204 205
f 207 206 205
f 206 199 205
f 206 200 199
f 208 86 77
f 200 208 77
f 206 208 200
f 208 88 86
f 91 202 85
f 210 209 93
f 93 209 91
f 209 203 91
f 203 202 91
f 210 211 209
f 207 212 206
f 214 213 212
f 213 206 212
f 213 208 206
f 215 94 88
f 208 215 88
f 213 215 208
f 215 96 94
f 99 216 210
f 99 210 93
f 211 210 217
f 217 210 216
f 214 218 213
f 220 219 218
f 219 213 218
f 219 215 213
f 221 100 96
f 215 221 96
f 219 221 215
f 221 102 100
f 104 222 216
f 104 216 99
f 217 216 223
f 223 216 222
f 220 224 219
f 219 224 221
f 221 224 225
f 225 227 226
f 225 226 105
f 221 225 105
f 102 221 105
f 228 106 105
f 228 105 226
f 222 104 106
f 228 222 106
f 229 222 228
f 223 222 230
f 230 222 229
f 227 231 226
f 226 231 228
f 228 231 232
f 228 232 229
f 229 232 233
f 229 233 230
f 235 234 108
f 108 234 107
f 236 108 109
f 236 235 108
f 109 111 236
f 236 111 237
f 239 238 113
f 113 238 112
f 113 107 234
f 113 234 239
f 240 237 111
f 240 111 114
f 114 116 240
f 240 116 241
f 238 117 112
f 242 117 238
f 243 241 116
f 243 116 118
f 245 244 119
f 244 118 119
f 244 243 118
f 245 246 244
f 242 120 117
f 247 120 242
f 121 245 119
f 248 246 245
f 121 248 245
f 122 248 121
f 122 124 248
f 248 124 249
f 247 126 120
f 250 126 247
f 251 249 124
f 251 124 127
f 127 129 251
f 251 129 252
f 250 253 126
f 126 253 130
f 132 130 253
f 132 253 254
f 255 252 129
f 255 129 133
f 133 135 255
f 255 135 256
f 254 257 132
f 132 257 136
f 136 258 137
f 257 258 136
f 139 137 258
f 139 258 259
f 140 261 260
f 256 140 260
f 135 140 256
f 261 262 260
f 259 263 139
f 139 263 141
f 143 141 263
f 143 263 264
f 144 261 140
f 144 146 261
f 146 262 261
f 146 265 262
f 264 266 143
f 143 266 147
f 149 147 266
f 149 266 267
f 151 269 268
f 265 151 268
f 146 151 265
f 269 270 268
f 267 271 149
f 149 271 152
f 271 273 272
f 153 271 272
f 152 271 153
f 272 155 153
f 158 274 269
f 158 269 151
f 270 269 275
f 269 276 275
f 269 274 276
f 276 277 275
f 273 278 272
f 278 280 279
f 278 279 159
f 272 278 159
f 155 272 159
f 279 161 159
f 163 274 158
f 274 163 165
f 274 165 276
f 281 277 276
f 165 281 276
f 167 281 165
f 283 282 169
f 282 167 169
f 282 281 167
f 283 284 282
f 280 285 279
f 285 287 286
f 285 286 170
f 279 285 170
f 161 279 170
f 286 172 170
f 176 283 169
f 288 284 283
f 176 288 283
f 178 288 176
f 289 178 180
f 289 288 178
f 180 182 289
f 289 182 290
f 287 291 286
f 291 293 292
f 291 292 183
f 286 291 183
f 172 286 183
f 292 185 183
f 294 290 182
f 294 182 191
f 295 191 193
f 295 294 191
f 193 195 295
f 295 195 296
f 293 297 292
f 297 299 298
f 297 298 196
f 292 297 196
f 185 292 196
f 298 198 196
f 300 296 195
f 300 195 201
f 201 203 300
f 300 203 301
f 299 302 298
f 298 302 198
f 302 204 198
f 302 303 204
f 303 305 304
f 205 303 304
f 204 303 205
f 304 207 205
f 306 301 203
f 306 203 209
f 209 211 306
f 306 211 307
f 305 308 304
f 308 310 309
f 308 309 212
f 304 308 212
f 207 304 212
f 309 214 212
f 217 307 211
f 217 311 307
f 310 312 309
f 309 312 214
f 312 218 214
f 312 313 218
f 220 218 313
f 220 313 314
f 223 316 315
f 311 223 315
f 217 223 311
f 316 317 315
f 314 318 220
f 220 318 224
f 224 319 225
f 318 319 224
f 227 225 319
f 227 319 320
f 230 321 316
f 230 316 223
f 317 316 322
f 322 316 321
f 320 323 227
f 227 323 231
f 323 325 324
f 232 323 324
f 231 323 232
f 326 233 232
f 326 232 324
f 326 327 233
f 233 327 230
f 327 328 230
f 328 321 230
f 321 328 322
f 325 329 324
f 324 329 326
f 326 329 330
f 326 330 327
f 332 331 235
f 235 331 234
f 333 235 236
f 333 332 235
f 236 237 333
f 333 237 334
f 336 335 239
f 239 335 238
f 239 234 331
f 239 331 336
f 337 334 237
f 337 237 240
f 240 241 337
f 337 241 338
f 335 242 238
f 339 242 335
f 340 338 241
f 340 241 243
f 342 340 341
f 340 244 341
f 340 243 244
f 246 341 244
f 339 247 242
f 343 247 339
f 344 342 341
f 344 341 246
f 248 344 246
f 345 344 248
f 248 249 345
f 345 249 346
f 343 250 247
f 347 250 343
f 348 346 249
f 348 249 251
f 251 252 348
f 348 252 349
f 347 350 250
f 250 350 253
f 254 253 350
f 254 350 351
f 352 349 252
f 352 252 255
f 255 256 352
f 352 256 353
f 351 354 254
f 254 354 257
f 257 355 258
f 354 355 257
f 259 258 355
f 259 355 356
f 357 353 256
f 357 256 260
f 260 262 357
f 357 262 358
f 356 359 259
f 259 359 263
f 264 263 359
f 264 359 360
f 265 358 262
f 265 361 358
f 360 362 264
f 264 362 266
f 267 266 362
f 267 362 363
f 364 361 265
f 364 265 268
f 268 270 364
f 364 270 365
f 363 366 267
f 267 366 271
f 273 271 366
f 273 366 367
f 368 365 270
f 368 270 275
f 370 369 277
f 369 275 277
f 369 368 275
f 370 371 369
f 367 372 273
f 273 372 278
f 280 278 372
f 280 372 373
f 281 370 277
f 374 371 370
f 281 374 370
f 282 374 281
f 376 375 284
f 375 282 284
f 375 374 282
f 376 377 375
f 285 280 378
f 280 379 378
f 280 373 379
f 378 287 285
f 288 376 284
f 380 377 376
f 288 380 376
f 289 380 288
f 289 290 380
f 380 290 381
f 379 382 378
f 382 384 383
f 382 383 291
f 378 382 291
f 287 378 291
f 383 293 291
f 385 381 290
f 385 290 294
f 386 294 295
f 386 385 294
f 295 296 386
f 386 296 387
f 384 388 383
f 383 388 293
f 388 297 293
f 388 389 297
f 299 297 389
f 299 389 390
f 391 387 296
f 391 296 300
f 300 301 391
f 391 301 392
f 390 393 299
f 299 393 302
f 393 395 394
f 303 393 394
f 302 393 303
f 394 305 303
f 396 392 301
f 396 301 306
f 398 397 307
f 397 306 307
f 397 396 306
f 398 399 397
f 395 400 394
f 394 400 305
f 400 308 305
f 400 401 308
f 310 308 401
f 310 401 402
f 311 403 398
f 311 398 307
f 399 398 404
f 398 405 404
f 398 403 405
f 405 406 404
f 402 407 310
f 310 407 312
f 312 408 313
f 407 408 312
f 314 313 408
f 314 408 409
f 315 403 311
f 403 315 317
f 410 403 317
f 405 403 410
f 406 405 411
f 405 412 411
f 405 410 412
f 412 413 411
f 409 414 314
f 314 414 318
f 318 415 319
f 414 415 318
f 320 319 415
f 320 415 416
f 322 417 410
f 322 410 317
f 410 418 412
f 410 417 418
f 413 412 419
f 419 412 418
f 416 420 320
f 320 420 323
f 325 323 420
f 325 420 421
f 327 422 328
f 417 322 328
f 422 417 328
f 423 417 422
f 417 424 418
f 417 423 424
f 419 418 425
f 425 418 424
f 421 426 325
f 325 426 329
f 329 427 330
f 426 427 329
f 327 330 422
f 330 428 422
f 330 427 428
f 422 428 423
f 423 428 429
f 423 429 424
f 424 429 430
f 424 430 425
f 432 431 332
f 332 431 331
f 434 432 433
f 432 333 433
f 432 332 333
f 334 433 333
f 436 435 336
f 336 435 335
f 336 331 431
f 336 431 436
f 437 434 433
f 439 437 438
f 438 437 337
f 437 433 337
f 433 334 337
f 338 438 337
f 435 339 335
f 440 339 435
f 441 439 438
f 443 441 442
f 442 441 340
f 441 438 340
f 438 338 340
f 342 442 340
f 440 343 339
f 444 343 440
f 445 443 442
f 445 442 342
f 344 445 342
f 446 445 344
f 448 446 447
f 446 345 447
f 446 344 345
f 346 447 345
f 450 347 449
f 347 444 449
f 347 343 444
f 451 450 449
f 452 448 447
f 454 452 453
f 453 452 348
f 452 447 348
f 447 346 348
f 349 453 348
f 450 350 347
f 456 455 351
f 456 351 350
f 451 456 350
f 450 451 350
f 457 455 456
f 458 454 453
f 460 458 459
f 459 458 352
f 458 453 352
f 453 349 352
f 353 459 352
f 455 354 351
f 457 461 455
f 461 354 455
f 461 355 354
f 463 462 356
f 355 463 356
f 461 463 355
f 464 462 463
f 465 460 459
f 467 465 466
f 466 465 357
f 465 459 357
f 459 353 357
f 358 466 357
f 462 359 356
f 469 468 360
f 469 360 359
f 464 469 359
f 462 464 359
f 470 468 469
f 471 467 466
f 466 358 471
f 358 472 471
f 358 361 472
f 468 362 360
f 474 473 363
f 474 363 362
f 470 474 362
f 468 470 362
f 475 473 474
f 476 472 361
f 476 361 364
f 364 365 476
f 476 365 477
f 473 366 363
f 479 478 367
f 479 367 366
f 475 479 366
f 473 475 366
f 480 478 479
f 481 477 365
f 481 365 368
f 482 368 369
f 482 481 368
f 369 371 482
f 482 371 483
f 478 372 367
f 373 372 478
f 480 373 478
f 484 373 480
f 485 483 371
f 485 371 374
f 487 485 486
f 485 375 486
f 485 374 375
f 377 486 375
f 484 379 373
f 488 379 484
f 489 487 486
f 489 486 377
f 380 489 377
f 490 489 380
f 380 381 490
f 490 381 491
f 488 492 379
f 379 492 382
f 384 382 492
f 384 492 493
f 494 491 381
f 494 381 385
f 496 494 495
f 494 386 495
f 494 385 386
f 387 495 386
f 493 497 384
f 384 497 388
f 388 498 389
f 497 498 388
f 390 389 498
f 390 498 499
f 500 496 495
f 500 495 387
f 391 500 387
f 501 500 391
f 391 392 501
f 501 392 502
f 499 503 390
f 390 503 393
f 395 393 503
f 395 503 504
f 505 502 392
f 505 392 396
f 506 396 397
f 506 505 396
f 508 507 399
f 507 397 399
f 507 506 397
f 508 509 507
f 504 510 395
f 395 510 400
f 400 511 401
f 510 511 400
f 402 401 511
f 402 511 512
f 404 508 399
f 514 513 406
f 406 513 404
f 513 509 404
f 509 508 404
f 516 515 514
f 514 515 513
f 516 517 515
f 512 518 402
f 402 518 407
f 407 519 408
f 518 519 407
f 409 408 519
f 409 519 520
f 411 514 406
f 514 411 413
f 521 514 413
f 516 514 521
f 517 516 522
f 516 523 522
f 516 521 523
f 523 524 522
f 520 525 409
f 409 525 414
f 414 526 415
f 525 526 414
f 416 415 526
f 416 526 527
f 419 528 521
f 419 521 413
f 521 529 523
f 521 528 529
f 524 523 530
f 523 531 530
f 523 529 531
f 531 532 530
f 527 533 416
f 416 533 420
f 421 420 533
f 421 533 534
f 425 535 528
f 425 528 419
f 528 536 529
f 528 535 536
f 529 537 531
f 529 536 537
f 532 531 538
f 538 531 537
f 534 539 421
f 421 539 426
f 426 540 427
f 539 540 426
f 540 542 541
f 428 540 541
f 427 540 428
f 543 429 428
f 543 428 541
f 544 430 429
f 544 429 543
f 535 425 430
f 544 535 430
f 545 535 544
f 547 536 546
f 536 545 546
f 536 535 545
f 536 547 537
f 537 547 548
f 537 548 538
f 542 549 541
f 541 549 543
f 543 549 550
f 543 550 544
f 544 550 551
f 544 551 545
f 545 551 552
f 545 552 546
f 553 431 432
f 434 553 432
f 554 435 436
f 431 553 436
f 553 554 436
f 553 555 554
f 437 556 434
f 556 553 434
f 556 555 553
f 439 556 437
f 557 440 554
f 554 440 435
f 558 554 555
f 557 554 558
f 559 555 556
f 558 555 559
f 441 560 439
f 560 556 439
f 560 559 556
f 443 560 441
f 561 444 557
f 557 444 440
f 562 557 558
f 561 557 562
f 563 558 559
f 562 558 563
f 564 559 560
f 563 559 564
f 445 565 443
f 565 560 443
f 565 564 560
f 446 566 445
f 445 566 565
f 448 566 446
f 561 449 444
f 449 561 451
f 561 567 451
f 561 562 567
f 568 562 563
f 567 562 568
f 569 563 564
f 568 563 569
f 570 564 565
f 569 564 570
f 571 565 566
f 570 565 571
f 452 572 448
f 572 566 448
f 572 571 566
f 454 572 452
f 567 456 451
f 456 567 457
f 567 573 457
f 567 568 573
f 574 568 569
f 573 568 574
f 575 569 570
f 574 569 575
f 576 570 571
f 575 570 576
f 577 571 572
f 576 571 577
f 458 578 454
f 578 572 454
f 578 577 572
f 460 578 458
f 573 461 457
f 461 573 463
f 463 573 574
f 463 574 464
f 574 579 464
f 574 575 579
f 580 575 576
f 579 575 580
f 581 576 577
f 580 576 581
f 582 577 578
f 581 577 582
f 465 583 460
f 583 578 460
f 583 582 578
f 467 583 465
f 579 469 464
f 469 579 470
f 579 584 470
f 579 580 584
f 585 580 581
f 584 580 585
f 582 587 586
f 585 582 586
f 581 582 585
f 587 582 583
f 587 583 588
f 588 583 467
f 471 588 467
f 589 588 471
f 471 472 589
f 589 472 590
f 584 474 470
f 474 584 475
f 584 591 475
f 584 585 591
f 585 586 592
f 585 592 591
f 593 590 472
f 593 472 476
f 476 477 593
f 593 477 594
f 591 479 475
f 480 479 591
f 592 480 591
f 595 480 592
f 596 594 477
f 596 477 481
f 598 596 597
f 596 482 597
f 596 481 482
f 483 597 482
f 595 484 480
f 599 484 595
f 600 598 597
f 602 600 601
f 601 600 485
f 600 597 485
f 597 483 485
f 487 601 485
f 604 488 603
f 488 599 603
f 488 484 599
f 605 604 603
f 606 602 601
f 606 601 487
f 489 606 487
f 607 606 489
f 609 607 608
f 607 490 608
f 607 489 490
f 491 608 490
f 604 492 488
f 611 610 493
f 611 493 492
f 605 611 492
f 604 605 492
f 612 610 611
f 613 609 608
f 615 613 614
f 614 613 494
f 613 608 494
f 608 491 494
f 496 614 494
f 610 497 493
f 612 616 610
f 616 497 610
f 616 498 497
f 499 498 616
f 499 616 617
f 618 615 614
f 620 618 619
f 619 618 500
f 618 614 500
f 614 496 500
f 501 621 500
f 500 621 619
f 502 621 501
f 617 622 499
f 499 622 503
f 624 623 504
f 503 624 504
f 622 624 503
f 625 623 624
f 626 620 619
f 626 619 621
f 626 621 627
f 627 621 502
f 505 627 502
f 628 627 505
f 629 505 506
f 629 628 505
f 630 506 507
f 630 629 506
f 507 509 630
f 630 509 631
f 623 510 504
f 625 632 623
f 632 510 623
f 632 511 510
f 634 633 512
f 511 634 512
f 632 634 511
f 636 635 633
f 636 633 634
f 637 635 636
f 638 631 509
f 638 509 513
f 639 513 515
f 639 638 513
f 641 640 517
f 640 515 517
f 640 639 515
f 641 642 640
f 633 518 512
f 518 633 519
f 519 633 635
f 644 643 520
f 644 520 519
f 637 644 519
f 635 637 519
f 646 645 643
f 646 643 644
f 647 645 646
f 522 641 517
f 649 648 524
f 524 648 522
f 648 642 522
f 642 641 522
f 651 650 649
f 649 650 648
f 651 652 650
f 643 525 520
f 525 643 526
f 526 643 645
f 527 526 645
f 647 527 645
f 653 527 647
f 530 649 524
f 649 530 532
f 654 649 532
f 651 649 654
f 652 651 655
f 655 651 654
f 653 656 527
f 527 656 533
f 534 533 656
f 534 656 657
f 538 658 654
f 538 654 532
f 655 654 659
f 659 654 658
f 657 660 534
f 534 660 539
f 539 661 540
f 660 661 539
f 542 540 661
f 542 661 662
f 546 663 547
f 664 548 547
f 664 547 663
f 658 538 548
f 664 658 548
f 665 658 664
f 659 658 666
f 666 658 665
f 662 667 542
f 542 667 549
f 549 668 550
f 667 668 549
f 550 669 551
f 668 669 550
f 551 670 552
f 669 670 551
f 546 552 663
f 552 671 663
f 552 670 671
f 663 671 664
f 664 671 672
f 664 672 665
f 665 672 673
f 665 673 666
f 674 586 587
f 588 675 587
f 587 675 674
f 589 676 588
f 588 676 675
f 590 676 589
f 677 592 674
f 674 592 586
f 675 679 678
f 677 675 678
f 674 675 677
f 681 680 679
f 675 681 679
f 676 681 675
f 593 682 590
f 682 676 590
f 682 681 676
f 594 682 593
f 683 595 677
f 677 595 592
f 677 678 684
f 677 684 683
f 685 680 681
f 685 681 682
f 685 682 686
f 688 686 687
f 687 686 596
f 686 682 596
f 682 594 596
f 598 687 596
f 689 599 683
f 683 599 595
f 683 684 690
f 683 690 689
f 691 688 687
f 693 691 692
f 692 691 600
f 691 687 600
f 687 598 600
f 602 692 600
f 689 603 599
f 695 694 605
f 695 605 603
f 690 695 603
f 689 690 603
f 696 694 695
f 693 692 697
f 693 697 698
f 606 699 602
f 699 692 602
f 699 697 692
f 607 700 606
f 606 700 699
f 609 700 607
f 694 611 605
f 702 701 612
f 702 612 611
f 696 702 611
f 694 696 611
f 703 701 702
f 698 697 704
f 698 704 705
f 706 697 699
f 704 697 706
f 707 699 700
f 706 699 707
f 613 708 609
f 708 700 609
f 708 707 700
f 615 708 613
f 701 616 612
f 710 709 617
f 710 617 616
f 703 710 616
f 701 703 616
f 712 711 709
f 712 709 710
f 711 712 705
f 704 711 705
f 713 711 704
f 714 704 706
f 713 704 714
f 715 706 707
f 714 706 715
f 716 707 708
f 715 707 716
f 618 717 615
f 717 708 615
f 717 716 708
f 620 717 618
f 709 622 617
f 622 709 624
f 624 709 711
f 624 711 625
f 711 718 625
f 711 713 718
f 719 713 714
f 718 713 719
f 720 714 715
f 719 714 720
f 721 715 716
f 720 715 721
f 722 716 717
f 721 716 722
f 626 723 620
f 723 717 620
f 723 722 717
f 627 724 626
f 626 724 723
f 724 627 725
f 627 726 725
f 627 628 726
f 727 628 629
f 727 726 628
f 728 629 630
f 728 727 629
f 630 631 728
f 728 631 729
f 718 632 625
f 632 718 634
f 634 718 719
f 634 719 636
f 636 719 720
f 636 720 637
f 720 730 637
f 720 721 730
f 731 721 722
f 730 721 731
f 732 722 723
f 731 722 732
f 724 734 733
f 732 724 733
f 723 724 732
f 734 724 725
f 735 729 631
f 735 631 638
f 736 638 639
f 736 735 638
f 737 639 640
f 737 736 639
f 739 738 642
f 738 640 642
f 738 737 640
f 739 740 738
f 730 644 637
f 644 730 646
f 646 730 731
f 646 731 647
f 731 741 647
f 731 732 741
f 732 733 742
f 732 742 741
f 648 739 642
f 743 740 739
f 648 743 739
f 650 743 648
f 745 744 652
f 744 650 652
f 744 743 650
f 745 746 744
f 747 653 741
f 741 653 647
f 741 742 748
f 741 748 747
f 655 749 745
f 655 745 652
f 746 745 750
f 750 745 749
f 747 656 653
f 752 751 657
f 752 657 656
f 748 752 656
f 747 748 656
f 753 751 752
f 659 754 749
f 659 749 655
f 750 749 755
f 749 756 755
f 749 754 756
f 756 757 755
f 751 660 657
f 753 758 751
f 758 660 751
f 758 661 660
f 662 661 758
f 662 758 759
f 666 760 754
f 666 754 659
f 762 756 761
f 756 760 761
f 756 754 760
f 756 762 757
f 759 763 662
f 662 763 667
f 667 764 668
f 763 764 667
f 668 765 669
f 764 765 668
f 669 766 670
f 765 766 669
f 766 768 767
f 671 766 767
f 670 766 671
f 769 672 671
f 769 671 767
f 770 673 672
f 770 672 769
f 770 771 673
f 673 771 666
f 771 772 666
f 772 760 666
f 760 772 761
f 768 773 767
f 767 773 769
f 769 773 774
f 769 774 770
f 770 774 775
f 770 775 771
f 776 678 679
f 680 776 679
f 777 684 776
f 776 684 678
f 685 778 680
f 778 776 680
f 778 777 776
f 686 779 685
f 685 779 778
f 688 779 686
f 780 690 777
f 777 690 684
f 781 777 778
f 780 777 781
f 782 778 779
f 781 778 782
f 691 783 688
f 783 779 688
f 783 782 779
f 693 783 691
f 780 695 690
f 695 780 696
f 780 784 696
f 780 781 784
f 785 781 782
f 784 781 785
f 786 782 783
f 785 782 786
f 698 786 693
f 693 786 783
f 784 702 696
f 702 784 703
f 784 787 703
f 784 785 787
f 788 785 786
f 787 785 788
f 705 788 698
f 698 788 786
f 787 710 703
f 710 787 712
f 712 787 788
f 712 788 705
f 789 725 726
f 727 790 726
f 726 790 789
f 728 791 727
f 727 791 790
f 729 791 728
f 792 733 734
f 725 789 734
f 789 792 734
f 789 793 792
f 790 795 794
f 793 790 794
f 789 790 793
f 795 790 791
f 795 791 796
f 796 791 729
f 735 796 729
f 797 796 735
f 798 735 736
f 798 797 735
f 799 736 737
f 799 798 736
f 800 737 738
f 800 799 737
f 802 801 740
f 801 738 740
f 801 800 738
f 802 803 801
f 804 742 792
f 792 742 733
f 793 806 805
f 804 793 805
f 792 793 804
f 806 793 794
f 743 802 740
f 807 803 802
f 743 807 802
f 744 807 743
f 744 746 807
f 807 746 808
f 809 748 804
f 804 748 742
f 804 805 810
f 804 810 809
f 750 812 811
f 808 750 811
f 746 750 808
f 812 813 811
f 809 752 748
f 815 814 753
f 815 753 752
f 810 815 752
f 809 810 752
f 816 814 815
f 755 812 750
f 755 757 812
f 757 813 812
f 757 817 813
f 814 758 753
f 819 818 759
f 819 759 758
f 816 819 758
f 814 816 758
f 821 820 818
f 821 818 819
f 822 820 821
f 761 823 762
f 823 824 762
f 824 757 762
f 824 817 757
f 818 763 759
f 763 818 764
f 764 818 820
f 822 825 820
f 825 764 820
f 825 765 764
f 765 826 766
f 825 826 765
f 768 766 826
f 768 826 827
f 771 828 772
f 823 761 772
f 828 823 772
f 829 823 828
f 824 823 830
f 830 823 829
f 827 831 768
f 768 831 773
f 773 832 774
f 831 832 773
f 774 833 775
f 832 833 774
f 771 775 828
f 775 834 828
f 775 833 834
f 828 834 829
f 829 834 835
f 829 835 830
f 836 794 795
f 796 837 795
f 795 837 836
f 797 838 796
f 796 838 837
f 838 797 839
f 797 840 839
f 797 798 840
f 841 798 799
f 841 840 798
f 842 799 800
f 842 841 799
f 843 800 801
f 843 842 800
f 801 803 843
f 843 803 844
f 845 805 806
f 794 836 806
f 836 845 806
f 836 846 845
f 847 836 837
f 846 836 847
f 838 849 848
f 847 838 848
f 837 838 847
f 849 838 839
f 850 844 803
f 850 803 807
f 852 851 808
f 851 807 808
f 851 850 807
f 852 853 851
f 854 810 845
f 845 810 805
f 855 845 846
f 854 845 855
f 847 857 856
f 855 847 856
f 846 847 855
f 857 847 848
f 811 852 808
f 811 813 852
f 813 853 852
f 813 858 853
f 854 815 810
f 815 854 816
f 854 859 816
f 854 855 859
f 855 856 860
f 861 855 860
f 859 855 861
f 862 861 860
f 817 864 863
f 858 817 863
f 813 817 858
f 864 865 863
f 859 819 816
f 819 859 821
f 821 859 861
f 867 866 822
f 867 822 821
f 862 867 821
f 861 862 821
f 868 866 867
f 824 869 864
f 824 864 817
f 865 864 870
f 870 864 869
f 866 825 822
f 868 871 866
f 871 825 866
f 871 826 825
f 873 872 827
f 826 873 827
f 871 873 826
f 874 872 873
f 876 875 869
f 824 876 869
f 830 876 824
f 869 875 870
f 872 831 827
f 874 877 872
f 877 831 872
f 877 832 831
f 832 878 833
f 877 878 832
f 833 879 834
f 878 879 833
f 834 880 835
f 879 880 834
f 830 835 876
f 876 835 880
f 881 839 840
f 841 882 840
f 840 882 881
f 842 883 841
f 841 883 882
f 843 884 842
f 842 884 883
f 844 884 843
f 885 848 849
f 839 881 849
f 881 885 849
f 881 886 885
f 882 888 887
f 886 882 887
f 881 882 886
f 888 882 883
f 888 883 889
f 889 883 884
f 889 884 890
f 890 884 844
f 850 890 844
f 891 890 850
f 892 850 851
f 892 891 850
f 851 853 892
f 892 853 893
f 894 856 857
f 848 885 857
f 885 894 857
f 885 895 894
f 896 885 886
f 895 885 896
f 886 887 897
f 886 897 896
f 858 899 898
f 893 858 898
f 853 858 893
f 899 900 898
f 894 860 856
f 860 894 862
f 894 901 862
f 894 895 901
f 902 895 896
f 901 895 902
f 896 897 903
f 896 903 902
f 863 899 858
f 863 865 899
f 865 900 899
f 865 904 900
f 901 867 862
f 867 901 868
f 901 905 868
f 901 902 905
f 902 903 906
f 907 902 906
f 905 902 907
f 908 907 906
f 870 904 865
f 870 909 904
f 905 871 868
f 871 905 873
f 873 905 907
f 911 910 874
f 911 874 873
f 908 911 873
f 907 908 873
f 912 910 911
f 876 913 875
f 913 914 875
f 914 870 875
f 914 909 870
f 910 877 874
f 912 915 910
f 915 877 910
f 915 878 877
f 915 917 916
f 879 915 916
f 878 915 879
f 918 880 879
f 918 879 916
f 918 919 880
f 880 919 876
f 919 920 876
f 920 913 876
f 913 920 914
f 917 921 916
f 916 921 918
f 918 921 922
f 918 922 919
f 923 887 888
f 889 924 888
f 888 924 923
f 890 925 889
f 889 925 924
f 925 890 926
f 890 927 926
f 890 891 927
f 928 891 892
f 928 927 891
f 892 893 928
f 928 893 929
f 930 897 923
f 923 897 887
f 931 923 924
f 930 923 931
f 925 933 932
f 931 925 932
f 924 925 931
f 933 925 926
f 934 929 893
f 934 893 898
f 898 900 934
f 934 900 935
f 936 903 930
f 930 903 897
f 937 930 931
f 936 930 937
f 931 932 938
f 931 938 937
f 904 935 900
f 904 939 935
f 936 906 903
f 906 936 908
f 936 940 908
f 936 937 940
f 937 938 941
f 937 941 940
f 909 939 904
f 909 942 939
f 940 911 908
f 912 911 940
f 941 912 940
f 943 912 941
f 914 942 909
f 914 944 942
f 943 945 912
f 912 945 915
f 917 915 945
f 917 945 946
f 919 947 920
f 947 948 920
f 948 914 920
f 948 944 914
f 946 949 917
f 917 949 921
f 921 950 922
f 949 950 921
f 919 922 947
f 922 951 947
f 922 950 951
f 947 951 948
f 952 926 927
f 928 953 927
f 927 953 952
f 929 953 928
f 954 932 933
f 955 954 933
f 955 933 926
f 956 955 926
f 952 956 926
f 956 952 953
f 956 953 957
f 959 957 958
f 958 957 934
f 957 953 934
f 953 929 934
f 935 958 934
f 961 960 954
f 960 932 954
f 960 938 932
f 961 954 955
f 962 959 958
f 958 935 962
f 935 963 962
f 935 939 963
f 960 941 938
f 964 941 960
f 942 963 939
f 942 965 963
f 967 943 966
f 943 964 966
f 943 941 964
f 968 967 966
f 944 965 942
f 944 969 965
f 967 945 943
f 946 945 967
f 968 946 967
f 970 946 968
f 948 969 944
f 948 971 969
f 970 972 946
f 946 972 949
f 972 974 973
f 950 972 973
f 949 972 950
f 975 951 950
f 975 950 973
f 975 976 951
f 976 948 951
f 976 971 948
f 974 977 973
f 973 977 975
f 975 977 978
f 975 978 976
f 980 979 956
f 956 979 955
f 981 956 957
f 981 980 956
f 957 959 981
f 981 959 982
f 983 960 961
f 984 983 961
f 955 984 961
f 979 984 955
f 985 982 959
f 985 959 962
f 962 963 985
f 985 963 986
f 987 964 983
f 983 964 960
f 983 984 988
f 983 988 987
f 965 990 989
f 986 965 989
f 963 965 986
f 990 991 989
f 987 966 964
f 968 966 987
f 988 968 987
f 992 968 988
f 969 993 990
f 969 990 965
f 991 990 994
f 994 990 993
f 992 970 968
f 995 970 992
f 971 996 993
f 971 993 969
f 994 993 997
f 997 993 996
f 995 998 970
f 970 998 972
f 974 972 998
f 974 998 999
f 976 1000 996
f 976 996 971
f 997 996 1001
f 1001 996 1000
f 999 1002 974
f 974 1002 977
f 1002 1004 1003
f 978 1002 1003
f 977 1002 978
f 1003 1005 978
f 978 1005 976
f 1005 1006 976
f 1006 1000 976
f 1000 1006 1001
f 1004 1007 1003
f 1003 1007 1005
f 1008 979 980
f 981 1009 980
f 980 1009 1008
f 982 1009 981
f 1011 1010 1008
f 1010 979 1008
f 1010 984 979
f 1011 1008 1009
f 1011 1009 1012
f 1012 1009 982
f 985 1012 982
f 1013 1012 985
f 985 986 1013
f 1013 986 1014
f 1010 988 984
f 1015 988 1010
f 1016 1014 986
f 1016 986 989
f 989 991 1016
f 1016 991 1017
f 1015 992 988
f 1018 992 1015
f 994 1017 991
f 994 1019 1017
f 1018 995 992
f 1020 995 1018
f 997 1019 994
f 997 1021 1019
f 1020 1022 995
f 995 1022 998
f 999 998 1022
f 999 1022 1023
f 1001 1021 997
f 1001 1024 1021
f 1002 999 1025
f 999 1026 1025
f 999 1023 1026
f 1025 1004 1002
f 1005 1027 1006
f 1027 1028 1006
f 1028 1001 1006
f 1028 1024 1001
f 1026 1029 1025
f 1025 1029 1004
f 1029 1007 1004
f 1029 1030 1007
f 1005 1007 1027
f 1007 1031 1027
f 1007 1030 1031
f 1027 1031 1028
f 1032 1010 1011
f 1032 1011 1033
f 1011 1034 1033
f 1011 1012 1034
f 1035 1012 1013
f 1035 1034 1012
f 1013 1014 1035
f 1035 1014 1036
f 1037 1015 1032
f 1032 1015 1010
f 1032 1033 1038
f 1032 1038 1037
f 1039 1036 1014
f 1039 1014 1016
f 1016 1017 1039
f 1039 1017 1040
f 1042 1041 1037
f 1041 1015 1037
f 1041 1018 1015
f 1042 1037 1038
f 1019 1040 1017
f 1019 1043 1040
f 1045 1020 1044
f 1020 1041 1044
f 1020 1018 1041
f 1046 1045 1044
f 1021 1048 1047
f 1043 1021 1047
f 1019 1021 1043
f 1048 1049 1047
f 1045 1022 1020
f 1023 1022 1045
f 1046 1023 1045
f 1050 1023 1046
f 1024 1051 1048
f 1024 1048 1021
f 1049 1048 1052
f 1052 1048 1051
f 1050 1026 1023
f 1053 1026 1050
f 1028 1054 1051
f 1028 1051 1024
f 1052 1051 1055
f 1055 1051 1054
f 1053 1056 1026
f 1026 1056 1029
f 1056 1058 1057
f 1030 1056 1057
f 1029 1056 1030
f 1059 1031 1030
f 1059 1030 1057
f 1059 1060 1031
f 1031 1060 1028
f 1060 1061 1028
f 1061 1054 1028
f 1054 1061 1055
f 1058 1062 1057
f 1057 1062 1059
f 1059 1062 1063
f 1059 1063 1060
f 1064 1033 1034
f 1035 1065 1034
f 1034 1065 1064
f 1036 1065 1035
f 1067 1066 1064
f 1066 1033 1064
f 1066 1038 1033
f 1067 1064 1065
f 1067 1065 1068
f 1068 1065 1036
f 1039 1068 1036
f 1069 1068 1039
f 1039 1040 1069
f 1069 1040 1070
f 1071 1041 1042
f 1072 1071 1042
f 1038 1072 1042
f 1066 1072 1038
f 1043 1074 1073
f 1070 1043 1073
f 1040 1043 1070
f 1074 1075 1073
f 1071 1044 1041
f 1046 1044 1071
f 1072 1046 1071
f 1076 1046 1072
f 1047 1074 1043
f 1047 1049 1074
f 1049 1075 1074
f 1049 1077 1075
f 1076 1050 1046
f 1078 1050 1076
f 1052 1077 1049
f 1052 1079 1077
f 1078 1053 1050
f 1080 1053 1078
f 1055 1079 1052
f 1055 1081 1079
f 1080 1082 1053
f 1053 1082 1056
f 1058 1056 1082
f 1058 1082 1083
f 1060 1084 1061
f 1084 1085 1061
f 1085 1055 1061
f 1085 1081 1055
f 1083 1086 1058
f 1058 1086 1062
f 1062 1087 1063
f 1086 1087 1062
f 1060 1063 1084
f 1063 1088 1084
f 1063 1087 1088
f 1084 1088 1085
f 1089 1066 1067
f 1089 1067 1090
f 1067 1091 1090
f 1067 1068 1091
f 1093 1091 1092
f 1091 1069 1092
f 1091 1068 1069
f 1070 1092 1069
f 1095 1094 1089
f 1094 1066 1089
f 1094 1072 1066
f 1095 1089 1090
f 1096 1093 1092
f 1096 1092 1070
f 1073 1096 1070
f 1097 1096 1073
f 1073 1075 1097
f 1097 1075 1098
f 1094 1076 1072
f 1099 1076 1094
f 1077 1098 1075
f 1077 1100 1098
f 1099 1078 1076
f 1101 1078 1099
f 1079 1103 1102
f 1100 1079 1102
f 1077 1079 1100
f 1103 1104 1102
f 1106 1080 1105
f 1080 1101 1105
f 1080 1078 1101
f 1107 1106 1105
f 1081 1108 1103
f 1081 1103 1079
f 1104 1103 1109
f 1109 1103 1108
f 1106 1082 1080
f 1083 1082 1106
f 1107 1083 1106
f 1110 1083 1107
f 1112 1111 1108
f 1081 1112 1108
f 1085 1112 1081
f 1108 1111 1109
f 1110 1113 1083
f 1083 1113 1086
f 1113 1115 1114
f 1087 1113 1114
f 1086 1113 1087
f 1116 1088 1087
f 1116 1087 1114
f 1116 1117 1088
f 1117 1085 1088
f 1117 1112 1085
f 1115 1118 1114
f 1114 1118 1116
f 1116 1118 1119
f 1116 1119 1117
f 1120 1090 1091
f 1093 1120 1091
f 1121 1094 1095
f 1122 1121 1095
f 1122 1095 1090
f 1123 1122 1090
f 1120 1123 1090
f 1123 1120 1093
f 1096 1123 1093
f 1124 1123 1096
f 1125 1096 1097
f 1125 1124 1096
f 1097 1098 1125
f 1125 1098 1126
f 1127 1099 1121
f 1121 1099 1094
f 1121 1122 1128
f 1121 1128 1127
f 1100 1126 1098
f 1100 1129 1126
f 1130 1101 1127
f 1127 1101 1099
f 1127 1128 1131
f 1127 1131 1130
f 1132 1129 1100
f 1132 1100 1102
f 1102 1104 1132
f 1132 1104 1133
f 1130 1105 1101
f 1107 1105 1130
f 1131 1107 1130
f 1134 1107 1131
f 1109 1133 1104
f 1109 1135 1133
f 1134 1110 1107
f 1136 1110 1134
f 1112 1137 1111
f 1137 1138 1111
f 1138 1109 1111
f 1138 1135 1109
f 1136 1139 1110
f 1110 1139 1113
f 1115 1113 1139
f 1115 1139 1140
f 1117 1141 1137
f 1117 1137 1112
f 1138 1137 1142
f 1142 1137 1141
f 1140 1143 1115
f 1115 1143 1118
f 1118 1144 1119
f 1143 1144 1118
f 1117 1119 1141
f 1119 1145 1141
f 1119 1144 1145
f 1141 1145 1142
f 1146 1122 1123
f 1124 1147 1123
f 1123 1147 1146
f 1125 1148 1124
f 1124 1148 1147
f 1126 1148 1125
f 1150 1149 1146
f 1149 1122 1146
f 1149 1128 1122
f 1150 1146 1147
f 1150 1147 1151
f 1151 1147 1148
f 1151 1148 1152
f 1126 1129 1148
f 1129 1153 1148
f 1153 1152 1148
f 1153 1129 1154
f 1154 1155 1153
f 1149 1131 1128
f 1156 1131 1149
f 1132 1154 1129
f 1132 1133 1154
f 1133 1155 1154
f 1133 1157 1155
f 1156 1134 1131
f 1158 1134 1156
f 1135 1157 1133
f 1135 1159 1157
f 1158 1136 1134
f 1160 1136 1158
f 1138 1159 1135
f 1138 1161 1159
f 1160 1162 1136
f 1136 1162 1139
f 1140 1139 1162
f 1140 1162 1163
f 1142 1161 1138
f 1142 1164 1161
f 1163 1165 1140
f 1140 1165 1143
f 1165 1167 1166
f 1144 1165 1166
f 1143 1165 1144
f 1144 1166 1168
f 1169 1144 1168
f 1145 1144 1169
f 1142 1145 1164
f 1164 1145 1169
f 1167 1170 1166
f 1166 1170 1168
f 1171 1149 1150
f 1171 1150 1172
f 1150 1173 1172
f 1150 1151 1173
f 1174 1151 1152
f 1174 1173 1151
f 1175 1152 1153
f 1175 1174 1152
f 1153 1155 1175
f 1175 1155 1176
f 1177 1156 1171
f 1171 1156 1149
f 1171 1172 1178
f 1171 1178 1177
f 1157 1176 1155
f 1157 1179 1176
f 1180 1158 1177
f 1177 1158 1156
f 1177 1178 1181
f 1177 1181 1180
f 1159 1179 1157
f 1159 1182 1179
f 1183 1160 1180
f 1180 1160 1158
f 1180 1181 1184
f 1180 1184 1183
f 1161 1186 1185
f 1182 1161 1185
f 1159 1161 1182
f 1186 1187 1185
f 1183 1162 1160
f 1163 1162 1183
f 1184 1163 1183
f 1188 1163 1184
f 1190 1189 1186
f 1161 1190 1186
f 1164 1190 1161
f 1186 1189 1187
f 1188 1191 1163
f 1163 1191 1165
f 1167 1165 1191
f 1167 1191 1192
f 1168 1193 1169
f 1193 1194 1169
f 1194 1164 1169
f 1194 1190 1164
f 1192 1195 1167
f 1167 1195 1170
f 1168 1170 1193
f 1170 1196 1193
f 1170 1195 1196
f 1193 1196 1194
f 1197 1172 1173
f 1197 1173 1198
f 1173 1199 1198
f 1173 1174 1199
f 1201 1199 1200
f 1199 1175 1200
f 1199 1174 1175
f 1176 1200 1175
f 1203 1202 1197
f 1202 1172 1197
f 1202 1178 1172
f 1203 1197 1198
f 1204 1201 1200
f 1200 1176 1204
f 1176 1205 1204
f 1176 1179 1205
f 1202 1181 1178
f 1206 1181 1202
f 1182 1208 1207
f 1205 1182 1207
f 1179 1182 1205
f 1208 1209 1207
f 1206 1184 1181
f 1210 1184 1206
f 1185 1208 1182
f 1185 1187 1208
f 1187 1209 1208
f 1187 1211 1209
f 1210 1188 1184
f 1212 1188 1210
f 1190 1213 1189
f 1213 1214 1189
f 1214 1187 1189
f 1214 1211 1187
f 1212 1215 1188
f 1188 1215 1191
f 1192 1191 1215
f 1192 1215 1216
f 1218 1217 1213
f 1190 1218 1213
f 1194 1218 1190
f 1213 1217 1214
f 1216 1219 1192
f 1192 1219 1195
f 1195 1220 1196
f 1219 1220 1195
f 1194 1196 1218
f 1218 1196 1220
f 1221 1198 1199
f 1201 1221 1199
f 1222 1202 1203
f 1223 1222 1203
f 1223 1203 1198
f 1224 1223 1198
f 1221 1224 1198
f 1224 1221 1201
f 1204 1224 1201
f 1225 1224 1204
f 1204 1205 1225
f 1225 1205 1226
f 1228 1227 1222
f 1227 1202 1222
f 1227 1206 1202
f 1228 1222 1223
f 1229 1226 1205
f 1229 1205 1207
f 1207 1209 1229
f 1229 1209 1230
f 1227 1210 1206
f 1231 1210 1227
f 1211 1230 1209
f 1211 1232 1230
f 1231 1212 1210
f 1233 1212 1231
f 1214 1232 1211
f 1214 1234 1232
f 1233 1235 1212
f 1212 1235 1215
f 1216 1215 1235
f 1216 1235 1236
f 1218 1237 1217
f 1237 1238 1217
f 1238 1214 1217
f 1238 1234 1214
f 1236 1239 1216
f 1216 1239 1219
f 1219 1240 1220
f 1239 1240 1219
f 1218 1220 1237
f 1220 1241 1237
f 1220 1240 1241
f 1237 1241 1238
f 1243 1242 1224
f 1224 1242 1223
f 1244 1224 1225
f 1244 1243 1224
f 1225 1226 1244
f 1244 1226 1245
f 1246 1227 1228
f 1247 1246 1228
f 1223 1247 1228
f 1242 1247 1223
f 1248 1245 1226
f 1248 1226 1229
f 1229 1230 1248
f 1248 1230 1249
f 1250 1231 1246
f 1246 1231 1227
f 1246 1247 1251
f 1246 1251 1250
f 1232 1249 1230
f 1232 1252 1249
f 1253 1233 1250
f 1250 1233 1231
f 1250 1251 1254
f 1250 1254 1253
f 1234 1252 1232
f 1234 1255 1252
f 1253 1235 1233
f 1236 1235 1253
f 1254 1236 1253
f 1256 1236 1254
f 1238 1255 1234
f 1238 1257 1255
f 1256 1258 1236
f 1236 1258 1239
f 1258 1260 1259
f 1240 1258 1259
f 1239 1258 1240
f 1240 1259 1261
f 1262 1240 1261
f 1241 1240 1262
f 1238 1241 1257
f 1257 1241 1262
f 1260 1263 1259
f 1259 1263 1261
f 1265 1264 1243
f 1243 1264 1242
f 1266 1243 1244
f 1266 1265 1243
f 1244 1245 1266
f 1266 1245 1267
f 1264 1247 1242
f 1268 1247 1264
f 1269 1267 1245
f 1269 1245 1248
f 1248 1249 1269
f 1269 1249 1270
f 1268 1251 1247
f 1271 1251 1268
f 1252 1270 1249
f 1252 1272 1270
f 1271 1254 1251
f 1273 1254 1271
f 1255 1272 1252
f 1255 1274 1272
f 1273 1256 1254
f 1275 1256 1273
f 1257 1274 1255
f 1257 1276 1274
f 1275 1277 1256
f 1256 1277 1258
f 1260 1258 1277
f 1260 1277 1278
f 1280 1279 1262
f 1280 1262 1261
f 1257 1262 1276
f 1276 1262 1279
f 1278 1281 1260
f 1260 1281 1263
f 1261 1263 1280
f 1280 1263 1281
f 1282 1264 1265
f 1282 1265 1283
f 1265 1284 1283
f 1265 1266 1284
f 1266 1267 1284
f 1284 1267 1285
f 1287 1286 1282
f 1286 1264 1282
f 1286 1268 1264
f 1287 1282 1283
f 1288 1285 1267
f 1288 1267 1269
f 1269 1270 1288
f 1288 1270 1289
f 1286 1271 1268
f 1290 1271 1286
f 1272 1289 1270
f 1272 1291 1289
f 1290 1273 1271
f 1292 1273 1290
f 1274 1291 1272
f 1274 1293 1291
f 1292 1275 1273
f 1294 1275 1292
f 1276 1293 1274
f 1276 1295 1293
f 1294 1296 1275
f 1275 1296 1277
f 1278 1277 1296
f 1278 1296 1297
f 1299 1298 1279
f 1299 1279 1280
f 1276 1279 1295
f 1295 1279 1298
f 1297 1300 1278
f 1278 1300 1281
f 1280 1281 1299
f 1299 1281 1300
f 1301 1283 1284
f 1285 1301 1284
f 1302 1286 1287
f 1283 1301 1287
f 1301 1302 1287
f 1301 1303 1302
f 1288 1304 1285
f 1304 1301 1285
f 1304 1303 1301
f 1289 1304 1288
f 1305 1290 1302
f 1302 1290 1286
f 1306 1302 1303
f 1305 1302 1306
f 1307 1303 1304
f 1306 1303 1307
f 1291 1307 1289
f 1289 1307 1304
f 1308 1292 1305
f 1305 1292 1290
f 1309 1305 1306
f 1308 1305 1309
f 1310 1306 1307
f 1309 1306 1310
f 1293 1310 1291
f 1291 1310 1307
f 1311 1294 1308
f 1308 1294 1292
f 1312 1308 1309
f 1311 1308 1312
f 1313 1309 1310
f 1312 1309 1313
f 1295 1313 1293
f 1293 1313 1310
f 1311 1296 1294
f 1296 1311 1297
f 1311 1314 1297
f 1311 1312 1314
f 1299 1314 1298
f 1314 1313 1298
f 1314 1312 1313
f 1298 1313 1295
f 1314 1300 1297
f 1300 1314 1299
# 2624 faces, 0 coords texture

# End of File