####
#
# OBJ File Generated by Meshlab
#
####
# Object Volume_205.obj
#
# Vertices: 442
# Faces: 904
#
####
v 163.226974 408.690796 150.646942
v 155.293533 406.611816 145.817139
v 163.248535 418.675049 157.791397
v 162.977646 412.566132 160.181610
v 151.593399 407.487305 157.420197
v 163.212326 420.572845 150.920502
v 159.360657 402.370575 148.882736
v 152.718811 420.771851 161.486115
v 157.443069 425.162537 150.761459
v 151.277084 422.829651 150.776611
v 161.323959 406.679474 160.587540
v 153.269424 425.331451 152.475647
v 152.107452 406.889374 158.746124
v 155.289856 425.334106 151.086487
v 163.316788 411.010773 150.580322
v 161.403259 424.506561 157.294647
v 162.860062 422.987274 156.053604
v 159.363022 404.823669 160.595337
v 161.221451 404.765869 160.163773
v 161.522003 412.576721 160.864700
v 151.454361 404.643158 155.018784
v 153.721664 406.857208 160.421860
v 162.096985 402.940094 155.071838
v 160.659424 403.239899 147.702774
v 153.274170 424.050323 159.337555
v 155.362534 404.759979 160.539078
v 157.340576 401.858917 157.483536
v 163.299850 418.723938 154.285095
v 162.211411 403.099152 149.585693
v 162.327103 424.873505 155.624695
v 152.339142 408.489624 159.797531
v 162.705322 402.769928 157.363022
v 157.334152 407.571533 146.008270
v 163.131500 406.681366 152.839493
v 163.064774 420.643921 155.727707
v 152.949768 418.595947 161.359741
v 162.961365 420.762543 157.788300
v 152.110062 424.022949 154.768707
v 163.157898 414.610901 154.280701
v 151.838455 420.733673 157.238052
v 151.944717 412.519043 159.139038
v 151.801117 420.733063 157.203644
v 162.260849 407.150970 148.270142
v 162.581940 402.466827 157.806290
v 162.351364 422.167145 160.793793
v 163.319855 416.520844 150.802673
v 151.805801 409.989288 157.246185
v 155.279739 416.491608 148.104355
v 162.155182 404.493561 159.602493
v 159.751587 406.710236 146.518265
v 151.321060 406.638397 154.816864
v 157.339981 420.723572 162.278732
v 153.131348 408.735535 146.383224
v 150.222198 407.314789 146.628113
v 157.340134 406.715088 145.792465
v 162.843811 422.498352 156.934158
v 163.467453 414.642242 152.620667
v 151.783630 410.569092 147.725510
v 155.288559 402.844177 146.737213
v 151.794022 409.644836 157.248154
v 155.293640 420.726654 148.702408
v 161.420013 410.813751 160.833069
v 163.151367 415.285797 156.795410
v 155.296219 423.558594 160.825836
v 163.052246 416.642242 155.557861
v 156.548462 425.081207 150.330292
v 151.901230 424.912598 150.884171
v 159.378189 401.873688 155.004654
v 154.307419 417.441803 161.906143
v 161.132874 423.390167 160.645996
v 151.904053 402.745300 154.952011
v 161.356461 408.751312 160.726486
v 160.873047 422.416901 161.531937
v 157.365692 416.109436 161.926529
v 163.023254 404.750031 157.334793
v 150.895889 416.631927 152.685913
v 162.529617 407.205200 159.936493
v 152.406250 402.466888 157.779984
v 159.346161 420.715607 148.854340
v 164.405869 416.057587 159.149612
v 163.436203 416.650085 157.673660
v 163.578537 410.845764 157.277512
v 157.325592 403.327728 146.251419
v 159.353302 408.747162 161.190536
v 151.275711 416.653442 155.081390
v 152.008209 422.705719 159.474365
v 164.381821 411.251282 159.190048
v 162.623489 404.764954 148.957062
v 159.380066 401.868988 152.504242
v 150.619324 408.710541 148.516998
v 163.440887 414.519257 157.357452
v 161.535370 414.627625 148.534912
v 155.291016 424.365509 149.805191
v 155.372025 402.224152 159.199066
v 161.395233 418.646454 149.167175
v 159.465195 416.794434 148.210434
v 159.368103 410.789246 161.288223
v 150.858383 404.631866 150.493698
v 162.623611 402.695709 150.676437
v 162.877014 412.495819 149.505661
v 151.103470 422.768311 152.682953
v 150.929642 414.599365 152.727737
v 157.190033 416.705627 148.049271
v 152.240326 420.791748 160.894974
v 158.740738 406.477417 146.046127
v 162.585419 402.941711 152.093781
v 151.195282 403.360748 146.446045
v 151.945175 410.788666 159.451813
v 150.260590 404.658142 147.845703
v 164.371399 416.444855 159.158249
v 163.254456 418.735016 150.948898
v 164.339081 410.881927 159.207703
v 155.309525 420.722321 162.229172
v 157.337418 422.814514 149.150803
v 150.690933 406.692993 150.502243
v 151.990158 402.597717 157.471100
v 159.386093 401.923126 157.478485
v 161.566711 416.656097 161.095123
v 161.486984 423.901886 159.417801
v 157.340515 401.770813 152.502441
v 160.941360 422.616028 149.630081
v 161.321457 420.641235 149.342407
v 153.310928 420.701782 148.956085
v 157.256134 410.892548 146.882706
v 162.282181 404.776428 148.323013
v 151.087891 416.721619 150.694656
v 153.562347 422.497742 161.600159
v 162.636398 422.742828 159.388245
v 153.256531 425.183594 153.447021
v 151.054016 418.633942 150.780151
v 157.339432 423.563568 160.829758
v 159.387833 414.596069 161.497665
v 162.697678 422.908966 157.573044
v 154.351639 403.370636 159.885452
v 157.340897 412.544739 161.493759
v 163.166840 406.704071 157.414017
v 150.398666 406.781311 148.789169
v 157.344009 406.749695 161.093079
v 162.637512 418.427795 150.038162
v 151.599930 414.591400 156.551117
v 159.440048 406.646698 160.945389
v 150.229507 407.256104 146.581726
v 157.345200 408.766388 146.348724
v 155.301697 424.683502 157.472656
v 153.256409 403.334778 146.277939
v 159.369247 423.525787 160.803986
v 161.190704 402.391510 158.906815
v 153.270721 412.560303 147.457565
v 162.821716 410.837860 149.322769
v 164.202515 409.802979 159.230728
v 162.090714 423.593353 158.695557
v 151.825394 404.545807 157.324875
v 157.341583 401.903168 150.525665
v 153.249039 414.622803 160.863693
v 157.337021 402.354645 159.208389
v 155.291855 402.182892 148.835022
v 162.502899 420.823395 150.141937
v 158.882584 404.643524 146.090134
v 151.862518 422.537872 149.861389
v 150.359207 404.552917 146.817245
v 163.479553 408.737854 157.215942
v 159.393661 425.165222 155.004639
v 157.336670 420.726715 148.699631
v 152.204834 410.743835 160.182968
v 161.708649 410.871216 148.236053
v 151.747803 408.792877 157.278214
v 150.188705 407.184235 146.598160
v 162.610153 402.772675 158.743011
v 163.497803 420.739532 152.775955
v 157.341019 414.575317 161.669754
v 152.670090 422.476227 161.350082
v 152.067001 404.339996 157.000000
v 161.890656 422.596466 161.119980
v 159.358368 425.031525 150.784073
v 157.338409 418.712067 162.308563
v 155.290436 414.556427 147.671951
v 157.340164 401.743256 154.999863
v 163.090683 414.573700 155.527466
v 153.259262 402.897522 146.752594
v 160.384109 419.399353 162.003830
v 152.016373 408.837067 159.280640
v 155.290878 401.914703 150.527039
v 155.227921 416.336426 161.891037
v 151.275681 414.601654 155.074615
v 152.367386 423.640625 159.449966
v 159.790375 404.762939 146.510132
v 162.334869 424.879028 155.536728
v 155.310806 418.713684 162.270264
v 155.450272 417.239532 162.112793
v 151.126709 410.654358 148.786911
v 153.326569 424.790894 154.937149
v 162.888199 414.439453 149.683426
v 150.578491 403.386810 147.679031
v 159.311142 403.196716 146.832993
v 162.688278 408.795990 160.158691
v 153.205780 424.468719 149.995193
v 152.383011 423.421631 160.325409
v 162.271576 402.770782 152.706589
v 160.369446 414.528259 147.992188
v 157.341888 418.704407 148.416077
v 157.340149 410.786774 161.427536
v 155.291016 418.698883 148.448288
v 150.992874 406.685425 152.491867
v 163.242996 420.825714 154.499008
v 162.629257 402.554108 158.595459
v 151.952606 402.458832 152.472198
v 155.291840 425.105225 150.376358
v 151.766037 408.865204 157.263046
v 163.228760 408.759857 152.712296
v 158.755692 407.459778 146.214890
v 153.278397 402.752655 159.039581
v 153.268066 414.499786 147.896576
v 157.337814 402.194824 148.838074
v 162.933823 404.774811 152.579391
v 150.962036 410.757050 152.706879
v 159.389816 425.400452 152.487686
v 155.286163 414.592010 161.547379
v 153.258575 404.666321 145.857651
v 157.340866 425.410828 153.500366
v 151.338074 406.629974 146.118393
v 159.363144 414.527557 147.706741
v 159.304703 422.812561 149.288773
v 151.169357 404.637329 146.158676
v 151.868332 420.748566 159.475372
v 161.444931 416.537903 148.886749
v 164.458145 414.605194 159.148422
v 160.445526 412.539520 147.726303
v 157.340088 408.746368 161.310989
v 152.249847 409.720032 160.110886
v 152.224442 402.382019 156.850830
v 153.269394 402.074219 150.544159
v 152.224319 402.362366 154.919083
v 150.416275 405.415985 146.487625
v 150.445648 404.616516 148.763123
v 152.063065 423.400787 157.306168
v 151.747559 412.541290 157.491882
v 151.918060 424.912781 152.262680
v 157.340515 425.446716 152.482040
v 162.869995 424.740875 152.553131
v 157.750031 415.884918 147.885895
v 150.855072 410.781128 150.489456
v 157.344849 402.955505 159.897263
v 151.257996 420.742371 155.088211
v 161.038834 424.919861 151.059708
v 162.051331 408.872589 148.233414
v 162.409790 402.527924 150.649536
v 151.883652 422.586212 157.252335
v 153.192871 410.784454 160.769653
v 162.496246 424.833649 155.685699
v 153.162415 425.135498 150.785889
v 160.620163 403.026398 159.791885
v 163.052765 406.678833 154.972122
v 155.300812 412.547974 161.379395
v 155.281464 406.605621 160.868790
v 163.231979 416.635101 154.334915
v 163.105087 422.906982 154.781174
v 163.428894 414.470856 150.779221
v 152.926361 404.604919 159.328781
v 155.290497 424.301453 159.418304
v 157.301834 402.896240 146.735123
v 163.084778 418.705353 156.853317
v 163.086105 418.687225 155.598282
v 151.887375 422.397980 157.239044
v 155.291397 401.784424 152.502884
v 163.010422 406.759583 159.257950
v 153.259003 402.354095 148.850967
v 153.291443 416.685364 161.207260
v 151.282211 410.776764 154.859238
v 162.960373 410.809082 160.119202
v 150.611557 403.361298 146.908951
v 155.291885 401.756256 154.999710
v 151.110748 420.738403 150.679672
v 155.290771 410.938873 146.856506
v 161.447403 402.884918 148.872589
v 162.804062 406.701691 148.847931
v 151.518372 422.717102 155.025208
v 163.353729 412.517670 152.883575
v 151.241409 412.406433 148.779160
v 159.390289 425.395386 153.497559
v 155.294968 422.815002 149.146225
v 151.613861 412.465424 156.549591
v 162.976822 414.597809 160.201675
v 162.966507 404.848267 150.590515
v 162.827774 416.543365 149.881241
v 162.738480 408.739105 149.177750
v 161.421295 425.252838 152.549667
v 153.273788 416.425842 148.415192
v 157.340942 425.198853 155.009048
v 162.097687 422.806488 150.378250
v 157.314560 404.665955 145.846436
v 161.626907 420.744751 161.494614
v 159.418732 424.396423 149.983398
v 163.136856 406.748077 150.808350
v 155.299881 422.455505 161.753738
v 153.282288 410.881561 147.057587
v 159.365036 420.723511 162.194962
v 153.291183 418.673828 148.746552
v 162.960037 420.754852 156.940918
v 151.542709 414.479370 148.784531
v 155.291092 404.661285 145.809677
v 151.480026 402.832458 150.472229
v 157.416016 424.492279 149.950821
v 151.849319 417.556122 157.159256
v 163.119873 416.650909 156.823029
v 155.290985 425.397797 153.498108
v 155.308899 410.791229 161.309418
v 155.290756 425.464111 152.480743
v 150.274490 407.480896 146.651306
v 162.777267 404.007050 153.055344
v 159.335358 408.715912 146.696045
v 151.730408 412.337524 148.099228
v 155.296234 401.882233 157.484314
v 161.708374 424.462219 150.865265
v 154.032669 425.081146 150.378525
v 159.367722 402.950928 159.886734
v 157.339706 424.305084 159.428040
v 159.373444 410.748749 147.159439
v 151.463257 407.454742 146.263657
v 154.820724 402.564148 159.551361
v 155.388794 402.966736 159.931854
v 164.403656 416.372528 159.151260
v 161.233566 404.631592 147.479935
v 159.314285 415.847473 147.973114
v 162.819290 420.666229 159.248718
v 151.921646 424.323120 150.259750
v 155.291031 408.783051 146.299927
v 153.945496 418.938049 162.000580
v 151.763885 409.034332 157.271393
v 150.870331 420.731750 152.779602
v 162.768173 418.883698 160.309555
v 155.293289 403.314514 146.239685
v 160.695801 420.766907 161.965027
v 163.159454 408.732910 154.986221
v 162.797852 404.641541 154.952393
v 163.474426 416.660950 152.762360
v 162.512421 420.678711 160.631561
v 164.375381 410.956177 159.198120
v 153.767456 402.322113 158.693588
v 157.339920 422.454193 161.767456
v 159.380783 418.685089 148.598648
v 153.281326 401.983185 152.506516
v 162.740326 424.398438 151.845154
v 164.284760 417.468781 159.160431
v 161.550293 402.816345 159.360077
v 164.437775 414.507385 159.156250
v 161.503662 406.681274 147.485626
v 157.441330 412.497040 147.200821
v 151.837982 418.020355 157.211258
v 150.958618 408.756104 152.527817
v 161.544067 412.538666 148.308304
v 160.214081 418.167999 161.870956
v 162.879669 424.604767 152.937180
v 162.949463 422.653229 151.325272
v 152.273560 422.712646 160.896515
v 164.454422 412.615570 159.167007
v 151.001663 414.584320 150.515488
v 163.282227 422.721283 152.843048
v 161.385010 402.113007 157.491837
v 157.341721 404.791931 160.656769
v 162.281662 405.975128 148.202835
v 163.576462 412.501251 157.275818
v 161.535538 418.617859 161.456177
v 151.653992 424.464233 152.720322
v 160.707611 410.677429 147.637238
v 163.495575 418.655365 152.797562
v 151.281937 412.565735 154.936783
v 153.290298 407.582489 145.997269
v 157.311127 414.607056 147.614532
v 161.365692 402.267883 150.570999
v 151.971832 416.698639 159.140945
v 150.763718 408.756348 150.522202
v 153.307327 422.779327 149.330505
v 161.313187 402.254913 152.455856
v 155.331284 408.760010 161.163742
v 159.365875 402.378021 159.203644
v 163.325150 410.787506 152.749481
v 151.744049 414.639313 157.384552
v 151.895401 416.372803 149.176514
v 158.923950 417.408356 162.055542
v 153.697769 420.740753 161.960373
v 157.336472 417.071045 162.136993
v 152.214630 418.993683 160.556931
v 153.218597 406.625549 145.862808
v 151.231934 403.067017 148.679138
v 152.414383 414.596802 160.094894
v 163.432587 412.617157 150.848877
v 162.764542 404.812378 158.855927
v 162.992279 416.658203 160.248505
v 161.062210 408.648468 147.558533
v 151.312515 408.735596 154.866577
v 159.381271 412.546661 161.362869
v 158.725632 403.367371 146.420532
v 151.929489 414.352936 148.362595
v 155.289749 407.576263 145.982483
v 152.559036 406.629852 159.456680
v 152.274124 403.083313 158.125824
v 159.409225 418.687805 162.264008
v 153.934067 404.904053 160.147827
v 162.429504 406.121521 159.759354
v 157.341141 424.778717 157.488312
v 151.840851 418.758545 149.536255
v 163.190414 410.787079 154.984924
v 164.429077 412.739929 159.172928
v 151.178696 418.746338 154.932159
v 151.813644 418.866669 157.204376
v 150.228912 406.353363 147.869385
v 163.177277 413.410645 154.089767
v 159.364334 422.435669 161.720444
v 159.494141 416.640747 161.878326
v 160.549820 424.282532 150.141144
v 152.353531 416.685822 160.176727
v 153.250717 412.549652 160.800049
v 159.284637 412.590698 147.426697
v 151.684311 424.624695 150.659821
v 151.746307 420.650635 149.670456
v 159.387497 424.731476 157.480270
v 151.651062 402.837463 152.748077
v 151.093063 403.149902 146.721619
v 155.292557 425.140930 154.999451
v 159.379440 424.239258 159.409088
v 152.095886 423.837067 157.312332
v 155.282791 412.609924 147.242722
v 153.207977 402.044434 157.502625
v 162.319489 423.097565 159.891022
v 161.407440 425.211182 153.464310
v 163.143906 412.549347 154.998901
v 151.984375 414.594818 159.143112
v 153.285004 401.975525 154.997101
v 161.240829 402.336426 155.084778
v 161.533966 414.617310 160.961304
v 151.819717 419.034607 157.162918
v 150.888672 412.525604 150.506805
v 151.861191 402.496307 150.581238
v 150.851196 418.667023 152.728745
v 153.318817 423.460205 160.735779
v 153.365097 408.808380 160.617722
v 152.131042 404.650818 158.339142
v 159.392624 401.986938 150.533493
v 150.933670 412.547638 152.721527
v 151.180832 404.656799 152.810211
v 152.390350 412.518036 160.098465
v 151.903259 418.741241 159.480255
# 442 vertices, 0 vertices normals

f 429 358 44
f 96 225 340
f 262 35 28
f 370 431 442
f 164 248 436
f 337 112 87
f 249 352 187
f 157 121 122
f 230 232 71
f 45 424 128
f 9 174 216
f 290 158 55
f 60 41 108
f 231 182 156
f 130 126 378
f 28 204 365
f 181 108 164
f 397 180 362
f 108 441 164
f 404 329 243
f 15 1 376
f 400 416 420
f 280 114 93
f 33 310 143
f 346 275 43
f 14 238 307
f 115 234 137
f 382 36 267
f 440 203 51
f 131 146 408
f 416 162 16
f 322 360 346
f 97 62 72
f 12 237 67
f 120 68 89
f 150 112 337
f 178 304 65
f 153 120 89
f 69 189 183
f 53 58 142
f 263 247 421
f 391 132 20
f 376 426 277
f 133 151 30
f 386 192 100
f 354 197 171
f 103 202 48
f 177 27 117
f 285 293 1
f 175 397 379
f 330 336 324
f 160 167 406
f 58 295 311
f 333 161 82
f 201 253 135
f 250 307 12
f 415 10 272
f 191 305 419
f 183 189 74
f 260 392 83
f 37 128 133
f 396 437 211
f 301 440 417
f 194 186 158
f 403 4 345
f 68 358 429
f 103 96 200
f 195 87 112
f 274 125 322
f 83 392 290
f 260 7 194
f 439 432 102
f 346 360 275
f 265 77 112
f 384 301 433
f 380 113 188
f 354 185 197
f 190 278 241
f 281 268 366
f 166 51 328
f 242 375 155
f 17 249 256
f 235 421 247
f 426 407 277
f 345 321 226
f 119 128 424
f 170 217 183
f 438 89 373
f 207 66 9
f 53 318 367
f 423 94 312
f 438 373 369
f 139 111 6
f 203 390 51
f 71 417 440
f 3 110 324
f 395 436 22
f 255 335 57
f 327 188 189
f 29 99 283
f 166 181 13
f 368 221 240
f 215 241 439
f 442 104 382
f 270 418 107
f 125 88 275
f 83 300 331
f 44 205 168
f 218 383 220
f 209 402 376
f 349 268 390
f 267 36 327
f 136 112 161
f 261 304 3
f 121 313 410
f 401 415 272
f 17 133 30
f 117 375 147
f 166 208 328
f 40 404 243
f 72 62 195
f 85 76 434
f 297 48 202
f 211 319 94
f 345 91 361
f 330 362 291
f 148 273 422
f 13 181 395
f 62 269 195
f 80 110 81
f 378 126 299
f 215 349 371
f 80 343 321
f 209 376 1
f 49 399 387
f 25 259 64
f 129 305 191
f 32 44 168
f 242 155 320
f 328 60 108
f 178 63 304
f 238 216 279
f 294 339 52
f 120 177 68
f 414 159 325
f 146 420 70
f 263 243 276
f 403 337 355
f 384 234 98
f 231 264 182
f 240 221 323
f 147 344 205
f 88 283 275
f 50 186 346
f 307 238 219
f 279 425 162
f 200 96 340
f 264 177 120
f 171 435 127
f 327 189 69
f 35 56 17
f 184 76 85
f 250 67 325
f 292 410 244
f 109 137 234
f 148 311 295
f 301 98 440
f 80 226 321
f 125 275 360
f 336 173 45
f 127 435 294
f 74 409 132
f 257 46 192
f 138 254 374
f 315 251 147
f 229 436 31
f 94 319 320
f 163 79 114
f 18 19 251
f 428 206 232
f 359 18 315
f 348 303 377
f 207 9 14
f 76 126 434
f 127 113 380
f 198 309 106
f 415 159 10
f 290 2 300
f 302 292 174
f 346 43 389
f 348 184 85
f 93 114 302
f 439 366 268
f 143 273 326
f 148 295 273
f 416 16 119
f 181 31 395
f 7 274 194
f 157 289 121
f 384 193 234
f 330 110 388
f 409 118 430
f 93 302 66
f 431 42 40
f 3 324 37
f 441 385 412
f 431 224 442
f 400 420 316
f 225 92 284
f 248 306 374
f 397 296 180
f 116 211 78
f 232 206 417
f 99 214 283
f 20 430 4
f 323 225 96
f 348 370 303
f 431 85 404
f 435 25 64
f 358 205 44
f 16 249 30
f 139 284 46
f 348 405 431
f 403 345 226
f 15 376 277
f 252 161 333
f 398 26 320
f 130 434 126
f 144 419 400
f 194 24 186
f 290 55 2
f 340 95 79
f 230 423 232
f 435 64 294
f 292 244 174
f 200 340 163
f 196 207 314
f 403 87 269
f 425 286 352
f 37 324 128
f 140 184 348
f 223 220 54
f 157 353 289
f 33 143 326
f 296 332 180
f 196 93 207
f 222 121 410
f 77 195 112
f 249 30 187
f 146 70 73
f 414 67 363
f 83 290 300
f 321 343 110
f 184 102 76
f 227 350 199
f 129 363 237
f 191 419 144
f 53 326 295
f 40 86 224
f 391 20 62
f 385 154 412
f 421 259 25
f 347 413 368
f 197 435 171
f 278 299 356
f 89 429 373
f 109 406 137
f 412 253 306
f 117 147 358
f 311 299 278
f 439 102 366
f 124 422 273
f 408 146 73
f 266 156 179
f 89 68 429
f 251 19 344
f 260 194 392
f 153 89 438
f 136 265 112
f 170 132 391
f 212 422 176
f 39 65 255
f 359 26 254
f 409 379 397
f 381 175 379
f 402 82 361
f 402 361 426
f 330 324 110
f 179 145 418
f 129 191 38
f 359 254 138
f 145 331 218
f 267 327 69
f 157 6 353
f 348 85 431
f 185 25 435
f 219 238 279
f 222 410 292
f 194 274 24
f 354 171 8
f 184 366 102
f 287 297 401
f 79 95 122
f 412 306 248
f 80 282 388
f 80 81 91
f 116 71 152
f 135 170 391
f 314 207 14
f 50 346 389
f 403 87 337
f 403 269 4
f 348 431 303
f 40 263 86
f 372 196 325
f 152 13 437
f 228 201 84
f 258 22 398
f 288 162 416
f 140 377 236
f 301 417 206
f 115 349 203
f 209 1 293
f 317 364 413
f 35 17 204
f 6 169 357
f 256 249 187
f 431 40 405
f 423 211 338
f 167 142 54
f 196 280 93
f 218 300 383
f 119 151 128
f 58 311 278
f 423 78 211
f 310 389 317
f 134 320 319
f 384 433 266
f 242 320 26
f 3 81 110
f 244 239 286
f 186 24 322
f 308 54 142
f 188 113 175
f 436 374 254
f 295 326 273
f 80 321 110
f 427 411 385
f 211 258 398
f 214 34 283
f 211 94 338
f 340 225 95
f 341 428 271
f 165 149 350
f 398 320 134
f 60 281 47
f 287 378 393
f 142 58 190
f 310 50 389
f 118 388 282
f 262 298 35
f 162 249 16
f 179 59 331
f 246 99 29
f 105 50 210
f 16 151 119
f 225 284 95
f 34 333 209
f 130 329 434
f 93 66 207
f 170 183 74
f 373 429 23
f 22 254 26
f 425 352 249
f 400 288 416
f 364 245 165
f 74 381 409
f 278 356 432
f 337 87 355
f 150 87 112
f 215 371 241
f 386 277 57
f 139 46 111
f 277 407 39
f 385 411 154
f 419 288 400
f 123 202 61
f 124 310 317
f 370 382 411
f 250 14 307
f 274 322 24
f 250 12 67
f 55 210 310
f 28 335 255
f 328 47 60
f 201 306 253
f 129 12 305
f 98 234 115
f 203 349 390
f 80 110 343
f 315 18 251
f 228 306 201
f 442 224 104
f 129 38 363
f 180 332 291
f 276 101 363
f 130 401 272
f 58 278 190
f 127 294 113
f 403 345 361
f 353 342 313
f 270 160 109
f 267 183 217
f 46 335 111
f 158 186 105
f 148 422 212
f 142 137 54
f 235 276 38
f 53 394 326
f 63 81 304
f 353 357 342
f 419 219 288
f 287 48 297
f 130 378 401
f 403 361 82
f 336 45 324
f 103 240 96
f 216 286 425
f 15 285 1
f 11 77 265
f 342 352 239
f 357 187 352
f 221 227 199
f 174 244 286
f 368 413 221
f 188 175 381
f 162 425 249
f 179 331 145
f 33 326 394
f 55 310 33
f 348 303 405
f 185 435 197
f 198 334 309
f 281 236 47
f 277 39 57
f 167 54 406
f 130 272 329
f 427 377 303
f 154 217 253
f 41 385 441
f 223 160 107
f 428 423 312
f 201 135 97
f 9 216 238
f 8 171 127
f 372 61 280
f 83 331 59
f 278 432 241
f 148 393 311
f 373 23 198
f 53 295 58
f 142 220 318
f 270 109 193
f 423 338 94
f 386 257 192
f 426 361 91
f 264 271 177
f 383 394 367
f 221 199 323
f 154 267 217
f 259 316 131
f 414 325 67
f 223 233 160
f 389 43 245
f 90 241 371
f 252 333 34
f 68 117 358
f 345 80 91
f 201 97 84
f 409 351 362
f 433 301 206
f 113 52 175
f 182 213 156
f 84 97 72
f 8 127 380
f 64 131 339
f 166 328 5
f 281 140 236
f 27 155 375
f 387 399 265
f 60 47 236
f 244 313 239
f 402 426 376
f 256 187 357
f 46 284 192
f 412 154 253
f 229 164 436
f 11 72 77
f 163 340 79
f 357 352 342
f 436 248 374
f 245 43 275
f 90 115 137
f 267 69 183
f 135 217 170
f 262 255 65
f 305 219 419
f 302 222 292
f 431 405 303
f 179 156 59
f 413 227 221
f 270 107 160
f 344 49 168
f 104 354 8
f 166 328 181
f 224 354 104
f 383 2 394
f 431 405 42
f 312 94 155
f 302 9 66
f 15 277 386
f 250 314 14
f 99 198 106
f 41 427 385
f 19 49 344
f 142 90 137
f 139 95 284
f 373 198 246
f 60 390 268
f 116 423 230
f 438 369 274
f 14 9 238
f 71 232 417
f 104 8 36
f 181 229 31
f 430 282 4
f 202 200 61
f 153 438 7
f 231 266 433
f 416 119 420
f 382 104 36
f 441 412 248
f 263 185 86
f 23 32 75
f 11 265 399
f 73 173 291
f 378 299 393
f 364 165 227
f 102 432 356
f 383 300 2
f 92 192 284
f 116 152 437
f 178 91 63
f 389 245 364
f 153 7 213
f 297 415 401
f 181 164 229
f 286 239 352
f 249 187 30
f 16 30 151
f 330 291 336
f 257 335 46
f 353 313 289
f 290 392 158
f 257 57 335
f 428 312 271
f 242 26 359
f 98 115 203
f 21 440 51
f 178 65 39
f 274 29 88
f 302 174 9
f 70 119 173
f 347 368 176
f 275 283 293
f 144 400 316
f 305 307 219
f 404 434 329
f 260 213 7
f 246 198 99
f 372 325 159
f 21 166 152
f 27 375 117
f 22 436 254
f 341 271 264
f 52 296 397
f 347 176 422
f 297 202 123
f 55 33 2
f 276 363 38
f 426 91 178
f 262 65 261
f 157 122 6
f 350 149 100
f 121 289 313
f 123 372 159
f 150 337 87
f 116 396 211
f 437 13 258
f 334 75 136
f 133 128 151
f 212 48 287
f 395 31 436
f 72 195 77
f 140 366 184
f 135 253 217
f 328 208 5
f 165 245 285
f 333 82 402
f 228 84 141
f 64 259 131
f 218 331 300
f 212 287 393
f 275 293 285
f 231 156 266
f 397 362 351
f 142 54 220
f 312 155 27
f 296 408 332
f 52 339 296
f 386 57 257
f 60 236 41
f 362 180 291
f 411 267 154
f 199 350 92
f 345 355 226
f 328 51 390
f 141 84 11
f 223 218 220
f 40 247 263
f 174 286 216
f 175 52 397
f 18 141 11
f 233 54 167
f 10 159 414
f 298 133 56
f 260 83 59
f 204 17 256
f 350 100 92
f 32 387 75
f 12 307 305
f 167 54 308
f 438 274 7
f 420 119 70
f 245 275 285
f 144 316 259
f 219 279 288
f 182 120 153
f 271 27 177
f 182 153 213
f 437 258 211
f 23 75 334
f 279 216 425
f 413 364 227
f 369 29 274
f 86 185 354
f 345 4 282
f 19 399 49
f 227 165 350
f 294 52 113
f 60 268 281
f 21 71 440
f 17 30 249
f 105 186 50
f 60 47 208
f 333 402 209
f 260 59 213
f 430 118 282
f 409 362 118
f 91 81 63
f 73 70 173
f 403 226 355
f 214 334 252
f 348 431 370
f 21 152 71
f 370 442 382
f 22 26 398
f 403 355 87
f 161 87 82
f 271 312 27
f 263 235 185
f 316 420 146
f 28 35 204
f 167 308 142
f 98 203 440
f 6 111 365
f 45 173 424
f 34 209 293
f 199 92 225
f 41 377 427
f 359 138 18
f 381 379 409
f 341 206 428
f 358 147 205
f 143 124 273
f 61 200 163
f 384 266 418
f 156 213 59
f 272 101 329
f 20 4 269
f 108 41 441
f 403 82 87
f 17 56 133
f 170 74 132
f 195 269 87
f 372 280 196
f 90 190 241
f 142 190 90
f 383 367 318
f 124 347 422
f 384 98 301
f 15 100 149
f 341 433 206
f 270 384 418
f 369 373 246
f 76 356 126
f 18 11 19
f 345 80 321
f 196 250 325
f 262 28 255
f 116 78 423
f 281 366 140
f 32 168 387
f 263 421 235
f 329 101 243
f 10 414 363
f 123 159 415
f 132 430 20
f 103 48 176
f 124 317 347
f 143 310 124
f 263 276 235
f 328 108 181
f 33 394 2
f 421 38 191
f 49 387 168
f 439 241 432
f 287 401 378
f 35 298 56
f 231 433 341
f 102 356 76
f 263 247 42
f 19 11 399
f 298 37 133
f 280 163 114
f 235 25 185
f 428 232 423
f 189 188 381
f 252 136 161
f 40 42 405
f 40 263 42
f 310 210 50
f 266 179 418
f 328 60 208
f 75 265 136
f 132 409 430
f 256 357 169
f 97 391 62
f 53 367 394
f 6 365 169
f 116 437 396
f 194 158 392
f 204 256 169
f 212 176 48
f 177 117 68
f 62 20 269
f 272 10 101
f 375 315 147
f 160 406 109
f 261 65 304
f 103 200 202
f 214 252 34
f 36 8 380
f 242 315 375
f 116 230 71
f 263 235 247
f 231 341 264
f 411 382 267
f 235 421 25
f 294 64 339
f 139 122 95
f 204 169 365
f 193 109 234
f 280 61 163
f 13 395 258
f 330 388 362
f 421 191 144
f 67 237 363
f 40 243 263
f 6 357 353
f 328 208 47
f 147 251 344
f 261 37 298
f 84 72 11
f 240 323 96
f 313 342 239
f 407 178 39
f 368 240 103
f 107 418 145
f 258 395 22
f 114 79 222
f 345 282 80
f 186 322 346
f 114 222 302
f 421 144 259
f 408 73 332
f 427 370 411
f 90 371 115
f 75 387 265
f 223 54 233
f 211 134 319
f 119 424 173
f 336 291 173
f 131 316 146
f 429 44 32
f 426 178 407
f 215 439 268
f 166 5 208
f 139 6 122
f 140 348 377
f 148 212 393
f 41 236 377
f 118 362 388
f 115 371 349
f 427 303 370
f 39 255 57
f 344 168 205
f 15 149 285
f 10 363 101
f 94 320 155
f 431 404 40
f 410 313 244
f 223 145 218
f 126 356 299
f 383 318 220
f 311 393 299
f 243 101 276
f 135 391 97
f 138 374 228
f 99 106 214
f 55 158 105
f 45 128 324
f 3 304 81
f 215 268 349
f 339 131 408
f 317 389 364
f 53 142 318
f 429 32 23
f 309 334 214
f 55 105 210
f 262 261 298
f 138 141 18
f 80 388 110
f 335 365 111
f 235 38 421
f 334 136 252
f 228 374 306
f 409 397 351
f 274 88 125
f 21 51 166
f 328 390 60
f 339 408 296
f 152 166 13
f 368 103 176
f 28 365 335
f 270 193 384
f 29 283 88
f 106 309 214
f 242 359 315
f 297 123 415
f 189 381 74
f 92 100 192
f 322 125 360
f 182 264 120
f 129 237 12
f 164 441 248
f 123 61 372
f 369 246 29
f 404 85 434
f 36 380 327
f 332 73 291
f 222 122 121
f 196 314 250
f 288 279 162
f 165 285 149
f 403 355 345
f 79 122 222
f 15 386 100
f 431 40 224
f 261 3 37
f 323 199 225
f 161 112 87
f 160 233 167
f 224 86 354
f 138 228 141
f 223 107 145
f 34 293 283
f 347 317 413
f 198 23 334
f 40 42 247
f 345 226 80
f 327 380 188
f 54 137 406
f 211 398 134
# 904 faces, 0 coords texture

# End of File