####
#
# OBJ File Generated by Meshlab
#
####
# Object Volume_210.obj
#
# Vertices: 1183
# Faces: 2376
#
####
v 164.761566 90.776627 132.291382
v 179.286026 111.298256 131.232254
v 177.968567 101.853874 126.542038
v 158.513000 115.441948 131.500000
v 180.657181 112.353531 130.083359
v 166.848083 90.834595 133.039688
v 171.018478 100.167824 129.184250
v 184.760361 118.875488 122.809059
v 170.744110 78.512360 130.229980
v 172.858612 99.433861 130.603958
v 176.517654 104.432068 125.216812
v 161.950439 83.493736 130.745483
v 189.529083 115.388206 120.847527
v 150.749832 119.751953 130.197311
v 170.759323 92.883614 132.446609
v 185.265091 99.693619 126.941666
v 170.820068 113.393692 120.568962
v 166.860947 86.672218 127.410088
v 192.562241 101.092812 130.784195
v 187.440842 106.904076 121.906380
v 160.575226 121.551773 131.220490
v 164.650772 121.545639 131.197006
v 167.034470 94.941803 127.609840
v 166.784973 110.105598 121.554268
v 166.716782 109.289047 131.500000
v 170.609634 69.408058 132.680298
v 185.511627 111.424919 125.723267
v 192.575790 99.047607 130.269669
v 191.424377 99.300110 128.202255
v 175.213913 103.136780 131.473892
v 158.516647 123.632851 120.675468
v 191.871567 100.953407 127.599220
v 166.636551 123.587601 128.058929
v 157.159439 105.277435 128.070862
v 158.583328 105.232040 131.152786
v 171.703125 84.655296 131.141632
v 179.843918 108.098442 121.126892
v 159.914215 76.599281 129.997818
v 166.659134 68.415176 132.323151
v 166.833649 84.667648 133.072998
v 166.733307 78.523232 133.342758
v 166.950516 88.843750 133.073685
v 183.749786 111.861336 126.432907
v 168.782928 99.056961 132.132278
v 170.244553 110.601326 121.190422
v 182.595169 112.385445 126.810516
v 159.625763 96.394241 129.041428
v 169.025177 128.504486 123.279892
v 162.615036 121.594910 120.499924
v 168.392044 107.832001 124.553871
v 165.772675 126.682625 124.710426
v 179.297638 103.827774 124.702484
v 181.366898 117.492844 120.518448
v 170.826889 111.394524 120.834236
v 183.417938 105.186958 131.492630
v 171.987411 82.633232 132.216812
v 173.264282 125.779152 124.201668
v 175.213898 109.289017 131.500000
v 168.815186 108.730881 123.503784
v 185.479523 107.204071 121.694786
v 166.718445 82.641068 133.191467
v 164.665985 117.493004 131.499985
v 155.851349 121.286484 121.404778
v 156.322342 113.283104 123.645378
v 154.691223 113.543159 125.862961
v 151.671646 115.847511 130.810699
v 171.461960 92.720291 131.547989
v 192.623672 107.292435 122.747963
v 175.213959 107.238022 131.500000
v 160.564026 111.339951 131.500015
v 156.466888 111.342644 131.416779
v 183.313187 107.206482 121.637321
v 171.830490 78.530159 131.253296
v 155.594620 126.701637 121.018448
v 175.213898 119.543938 120.499977
v 168.849182 97.153297 132.697433
v 162.472931 101.088440 124.078232
v 179.237289 113.276550 130.355850
v 168.816895 92.788918 128.746033
v 165.000565 94.955406 125.627808
v 164.719910 88.847900 132.244308
v 168.762238 117.486885 131.387970
v 171.610794 74.518990 131.040588
v 159.450027 99.283478 129.993149
v 161.469574 95.697380 131.036545
v 183.345398 119.461983 120.868759
v 182.854309 98.330391 127.856506
v 160.563629 125.653694 120.933136
v 159.557037 95.035233 125.755035
v 168.780075 101.108948 131.741837
v 183.366730 113.265511 125.481842
v 159.481186 95.001381 127.611771
v 175.137024 99.776413 130.731262
v 166.717010 125.670280 120.700150
v 155.528320 116.899780 122.952271
v 170.827667 90.940773 129.764771
v 192.355911 99.354111 128.880051
v 167.134552 106.715324 125.144310
v 174.978088 127.139282 121.740814
v 165.892761 88.285286 132.799835
v 192.654770 103.152817 130.247879
v 173.160248 100.458092 129.428314
v 153.846802 113.118408 127.794052
v 166.738190 125.716858 125.674545
v 172.058411 80.549942 132.314865
v 189.594803 103.118263 126.010910
v 162.544724 124.099701 126.462845
v 170.819046 119.543968 120.500008
v 191.041153 113.246315 123.076805
v 189.547195 101.183334 126.739571
v 167.057388 92.899559 127.484772
v 189.569122 103.134132 131.441437
v 179.452881 99.501709 130.208328
v 168.763092 88.778084 133.258316
v 171.217209 129.215515 122.871330
v 166.716919 115.441948 120.504257
v 168.592941 88.779045 128.261765
v 171.634735 90.710945 131.399796
v 187.503677 96.668869 129.716095
v 169.912216 90.545654 129.073776
v 170.708084 98.921761 131.715881
v 171.946793 128.853485 122.721916
v 185.484726 115.389328 124.019646
v 158.640350 126.360367 123.195084
v 177.265076 101.139565 131.226883
v 162.504501 103.165779 123.990273
v 192.127151 98.228531 130.729065
v 154.989883 119.613586 122.424149
v 160.680832 101.091133 124.048004
v 169.495605 93.539101 129.273392
v 173.266846 109.341156 121.837479
v 160.562912 119.543945 131.458908
v 160.598175 111.366539 120.801544
v 174.332275 116.261314 130.912888
v 181.357529 102.950317 125.226006
v 190.936844 115.234901 121.253174
v 170.748199 72.372772 133.189987
v 160.852020 123.062370 127.224098
v 159.804703 90.880470 126.640961
v 152.562469 120.386063 130.677414
v 189.824615 111.644737 124.419701
v 150.596512 120.271744 130.651932
v 170.773087 76.473503 133.244156
v 165.123459 78.500710 133.037537
v 168.736557 70.552551 130.528488
v 164.740173 99.063354 132.180008
v 170.892639 88.775536 129.759171
v 170.198502 123.085320 127.356964
v 177.928055 114.013817 130.534012
v 171.707352 84.583900 131.900375
v 158.525848 107.246307 131.342697
v 168.788315 123.298523 128.059372
v 161.172806 97.206398 131.166046
v 170.978226 98.888374 129.786942
v 159.918243 106.244896 122.889511
v 164.665970 115.441925 131.499985
v 159.774475 123.016579 126.960503
v 166.716736 113.393761 120.567581
v 172.973724 104.447861 126.931465
v 170.631668 70.503548 130.924347
v 186.796585 99.844627 126.970604
v 175.317551 117.658676 127.991486
v 152.422272 117.498100 131.193069
v 179.425827 115.562584 126.214813
v 151.993958 123.895187 124.170975
v 162.699646 96.962379 131.852783
v 181.465637 111.510460 130.406281
v 181.365784 103.848000 124.717682
v 165.837112 68.340500 132.725052
v 181.540298 106.079987 122.924461
v 172.241592 125.237343 124.919434
v 159.747116 92.946556 127.591888
v 189.522598 106.074852 123.279732
v 181.503220 107.834923 121.185356
v 161.584259 82.700401 129.989578
v 159.658569 101.106979 124.603188
v 159.651718 122.333641 130.891693
v 152.507278 123.394737 124.867119
v 179.316040 107.238022 131.500000
v 164.622604 101.093643 131.814941
v 181.035934 112.969772 127.998016
v 158.520813 121.598106 120.627083
v 170.748749 82.603027 133.161377
v 162.656631 126.948586 121.774422
v 165.777481 90.793144 126.578308
v 166.722397 74.421547 133.409058
v 189.703491 107.530533 126.569191
v 167.459778 128.283447 122.306717
v 163.840515 93.651848 125.044327
v 173.158218 101.109123 131.318512
v 187.576263 107.680466 121.220642
v 193.275726 107.312538 121.335724
v 192.488403 101.092651 128.564285
v 187.521088 99.037674 131.435104
v 183.637711 114.207367 124.915222
v 165.603394 85.333809 126.957436
v 154.446274 113.417374 131.244186
v 159.845963 89.476685 127.154015
v 160.563477 123.643181 120.577095
v 161.617233 83.909248 127.182098
v 153.199036 118.503525 124.731133
v 186.513870 118.732788 121.697716
v 164.741364 70.446472 130.767532
v 162.523605 126.234711 124.441879
v 181.364304 101.219070 126.173615
v 175.190964 99.732368 130.599487
v 175.140732 108.972107 121.485176
v 166.621872 96.734360 133.036789
v 155.674286 123.771408 121.176987
v 160.810638 100.973839 131.349915
v 160.591797 90.739822 125.651016
v 162.615021 109.289024 131.499969
v 162.615189 105.187218 131.518692
v 164.671921 122.956398 130.188324
v 180.551132 122.864716 121.647667
v 158.471527 122.907005 126.885643
v 168.929413 84.679901 128.768387
v 179.586319 118.102058 124.786263
v 168.773621 110.653488 121.222359
v 155.101761 126.227921 122.679558
v 158.562485 103.192085 125.635330
v 162.679901 107.259399 123.021729
v 170.774582 107.013863 125.354042
v 171.362030 94.891029 131.279266
v 191.738129 109.353767 123.785538
v 170.223709 120.987831 129.648956
v 168.417877 68.979866 132.362198
v 186.690903 108.521378 128.169205
v 166.500717 122.675545 130.187988
v 169.910187 87.022179 129.062500
v 173.233749 121.779839 125.960037
v 169.314636 98.804527 129.086136
v 162.845200 122.504280 130.723053
v 190.240387 116.329445 122.367233
v 178.246902 116.206779 126.612259
v 156.598557 109.252678 125.703842
v 152.531540 121.718559 124.265038
v 171.095596 123.815529 126.185799
v 183.533813 97.332268 130.264862
v 179.271286 105.143135 123.777649
v 177.308716 99.790611 130.297821
v 177.264847 109.289001 131.493439
v 165.701309 86.740227 126.785004
v 162.436554 110.216255 121.116776
v 170.810059 117.499672 131.154602
v 153.437607 124.161293 122.980766
v 185.468948 101.085091 131.485596
v 168.767334 84.672241 133.283508
v 170.718567 92.855400 130.093262
v 180.015274 100.256554 127.038933
v 167.597977 110.614899 121.212021
v 162.615967 113.392365 120.546021
v 166.716873 115.441963 131.500015
v 181.182449 121.370636 122.936859
v 151.415161 119.814026 128.167175
v 168.797531 127.971596 121.501060
v 191.130051 103.320633 126.744354
v 161.247726 74.489677 130.954102
v 162.998856 88.778984 131.317917
v 181.990570 115.736633 124.855804
v 179.701263 106.139503 122.837936
v 164.646576 82.690964 132.496841
v 168.767944 115.441887 131.491913
v 166.716812 117.493034 120.500000
v 177.383743 117.544228 126.076965
v 153.005371 124.204132 123.915878
v 159.118027 109.496185 122.087425
v 166.945343 101.016945 127.511879
v 168.592194 82.744881 128.874924
v 181.099213 115.347572 125.395905
v 162.617004 103.138344 131.559921
v 170.612213 69.306236 132.341354
v 189.653839 96.596718 130.000214
v 166.716766 76.473167 129.508057
v 191.476990 105.084007 130.952881
v 192.175705 104.329613 130.829163
v 158.670853 124.987061 125.074638
v 170.793915 84.676224 129.934723
v 171.615707 120.341782 128.927811
v 153.597595 121.336784 123.143333
v 179.316879 111.342033 120.555191
v 158.540619 123.702103 126.071602
v 153.362885 111.654701 130.677887
v 162.981125 90.831879 131.374329
v 168.741837 69.468567 131.205109
v 164.797394 127.255028 121.911964
v 175.083893 125.609665 123.477585
v 155.114868 109.837997 128.415405
v 166.716858 119.543968 120.500000
v 162.961136 70.740288 131.142685
v 159.407761 107.491638 122.854088
v 168.439789 80.908203 129.167511
v 183.400528 99.598022 127.001450
v 171.595749 70.315079 132.765823
v 152.616150 123.669418 123.668800
v 162.580627 78.543144 129.607285
v 168.795731 124.411873 126.683739
v 166.716888 111.339935 131.500015
v 173.163040 107.238022 131.500015
v 170.819168 105.187073 131.501892
v 179.287872 107.293777 121.669174
v 160.572281 115.446312 120.624992
v 177.179108 100.890160 127.898895
v 160.131058 75.338348 129.994186
v 156.493652 121.876770 130.609207
v 173.163071 105.187019 131.500000
v 154.415802 119.502899 131.250076
v 187.519791 103.135750 131.476273
v 182.802475 98.265297 127.933945
v 168.723282 119.491585 131.196411
v 166.987518 90.906555 127.372360
v 192.877487 106.686226 121.450089
v 168.799698 103.047623 127.692200
v 171.331680 94.627617 131.613617
v 161.596344 81.588600 129.247498
v 189.438492 96.107704 130.792145
v 165.889694 101.137131 126.698273
v 160.564362 119.543976 120.519852
v 183.431534 99.061760 131.269928
v 155.740540 121.672272 130.676575
v 191.373444 97.072823 130.370102
v 162.675079 74.470062 129.921432
v 149.727310 120.187424 130.469330
v 177.938019 106.311508 122.748741
v 182.992630 103.883308 124.809845
v 156.612000 107.344788 130.919525
v 185.475311 103.059052 125.406540
v 172.344421 121.021309 127.427765
v 187.508408 105.168915 131.312622
v 190.611511 108.735641 124.883339
v 164.832306 127.228127 123.507118
v 157.251999 109.610474 124.306747
v 160.581177 125.190125 125.161736
v 171.378372 69.996346 131.850952
v 162.614655 111.378670 120.738129
v 172.029068 74.510208 132.272095
v 162.614700 123.645279 120.536255
v 164.665985 121.594971 120.500008
v 189.561615 113.384537 120.638496
v 151.152664 117.688980 130.123001
v 155.966110 111.124573 125.469482
v 156.832809 111.399483 123.950958
v 164.014862 69.992836 132.659592
v 185.468887 111.340469 120.521980
v 163.608780 108.184296 122.818550
v 179.029678 112.458595 130.893845
v 165.979950 87.588188 132.814728
v 155.584030 112.804260 124.997612
v 158.513962 109.290154 131.455170
v 161.137024 76.360939 130.971878
v 187.513550 115.419548 120.685471
v 164.666138 113.392227 120.538803
v 181.366562 107.237442 131.468399
v 191.448502 113.334053 121.093582
v 177.375900 109.529869 120.909950
v 162.615067 119.542854 131.467957
v 162.678131 82.610405 131.358994
v 169.770233 92.869965 133.038193
v 163.934341 101.002022 124.752960
v 161.023438 93.045425 130.025589
v 171.838013 80.570282 131.286697
v 186.440842 118.790123 121.698555
v 179.147995 123.239304 122.840775
v 175.321396 101.336281 128.384811
v 169.829971 69.585190 131.303238
v 161.251617 86.708931 129.708679
v 164.674622 74.433731 129.665085
v 185.481293 105.169846 124.051666
v 156.438492 126.442955 121.789787
v 165.725784 88.744629 126.681648
v 185.468857 103.136032 131.499985
v 190.779602 106.371117 130.574661
v 168.768402 82.623604 133.375641
v 172.807938 99.437386 130.829422
v 160.010269 76.693764 129.993698
v 151.368271 117.724327 130.718445
v 187.738632 96.235313 130.791855
v 166.742004 80.569817 133.293243
v 164.624451 109.761375 121.624763
v 172.894928 127.488640 123.296272
v 187.520218 111.340385 120.522034
v 160.564331 121.594879 120.517921
v 191.148056 95.960365 131.014206
v 168.768082 115.442062 120.510727
v 166.635391 121.498352 130.975708
v 162.615387 100.935684 131.673141
v 154.479263 111.377556 131.164200
v 157.222946 107.362015 125.641273
v 163.730133 71.937874 132.964981
v 187.514175 115.235985 123.681480
v 165.473145 95.369339 132.973740
v 166.696259 80.770401 128.850449
v 165.950439 102.697540 126.525810
v 160.423798 107.565628 122.428352
v 173.149307 115.418221 131.285309
v 166.709564 119.533394 131.355804
v 162.598206 83.524590 127.014214
v 154.676971 121.700798 122.209251
v 168.733215 94.903297 133.210098
v 170.798950 128.049545 121.457153
v 156.020081 119.502831 121.681046
v 187.724594 107.920059 128.011826
v 170.568237 86.663010 132.947449
v 164.667328 103.142021 131.596802
v 171.580170 72.408195 132.714890
v 190.174805 106.660240 121.196671
v 161.324753 84.603386 129.678070
v 158.453613 111.443611 121.835869
v 164.666046 115.441933 120.499924
v 151.660904 121.716331 125.915016
v 162.478439 99.056061 124.108772
v 194.176086 106.722473 121.955833
v 192.449799 102.954605 130.863663
v 184.639648 119.109047 121.127739
v 164.756622 74.408707 133.148193
v 175.554947 115.914886 130.478516
v 185.749374 96.778481 129.764481
v 179.228104 117.239922 125.278618
v 157.929077 105.048935 125.670769
v 189.542343 99.175804 127.740952
v 164.679977 122.655571 130.767548
v 185.586975 97.188324 130.891403
v 171.935638 76.356781 132.706833
v 160.576141 126.064133 124.295403
v 153.097794 113.985733 128.479370
v 170.820465 127.262527 121.017845
v 151.924042 117.409103 127.799507
v 185.976471 118.462700 122.290695
v 173.163086 117.493034 120.499985
v 164.814178 107.197502 123.810318
v 161.162567 106.642181 122.894524
v 156.492859 109.315468 131.242889
v 170.573685 74.468193 130.232224
v 151.618393 121.705544 125.904358
v 159.927444 76.377022 129.992310
v 169.969131 88.780632 128.989777
v 173.163223 113.391983 120.534500
v 173.163055 109.289032 131.500015
v 174.216675 104.137955 126.780235
v 176.435913 126.763153 121.272591
v 162.562469 105.211708 123.661903
v 170.764160 74.422943 133.219238
v 154.127029 119.478897 123.347801
v 173.162323 113.389946 131.459656
v 177.264969 113.391060 120.514183
v 162.614517 121.532608 131.205368
v 156.461792 117.492996 131.489288
v 185.661240 117.435982 123.127098
v 166.010681 97.710899 126.749504
v 168.368454 120.790329 130.831253
v 170.734024 80.553345 130.169556
v 185.584595 98.879311 127.449364
v 155.362000 114.056053 124.561333
v 160.573837 122.464813 130.868896
v 177.857117 119.801491 124.741432
v 166.475510 127.756287 123.864929
v 161.357407 78.308907 131.001114
v 160.732117 86.798149 128.067505
v 185.534378 117.586990 120.967560
v 185.418549 107.169281 131.156891
v 157.622833 110.792358 123.090424
v 160.584396 113.393333 120.676056
v 163.841614 70.757637 132.892899
v 191.030762 106.260353 128.310898
v 161.879410 80.398613 130.308899
v 160.566940 117.494270 120.560661
v 177.264923 115.441948 120.499992
v 172.095230 78.501648 132.312820
v 159.968201 76.679352 129.991089
v 190.627548 116.277946 121.766800
v 190.475220 106.845436 125.758736
v 191.106949 106.355530 130.236511
v 187.583008 109.414116 126.304031
v 160.631424 122.589539 130.575867
v 190.943008 106.309959 128.305222
v 162.632187 126.645569 121.234299
v 187.539932 101.056572 126.489105
v 192.388962 99.248955 130.778427
v 159.913864 89.558815 126.771935
v 191.574005 103.121223 131.217743
v 191.864761 113.526825 121.983635
v 181.412369 99.796425 127.076073
v 170.996628 119.593597 130.272018
v 162.633835 76.475861 129.690750
v 168.648849 69.161827 132.710938
v 160.564133 109.289055 131.500000
v 168.986542 128.518570 122.308060
v 165.637161 106.190796 124.726814
v 179.315811 119.543732 120.520546
v 171.353745 87.233078 132.517059
v 181.370163 109.321358 120.725266
v 192.491287 102.949051 128.744537
v 172.781693 116.961296 130.923233
v 159.658936 106.298851 122.961067
v 162.608536 88.826447 125.846237
v 184.705536 112.641167 125.284966
v 194.164825 106.300858 121.806526
v 189.488510 109.118073 125.640144
v 164.666046 105.187286 131.519882
v 175.213760 111.339767 131.481400
v 166.814484 92.890228 133.092377
v 171.643356 69.616386 132.638306
v 156.569626 125.802277 123.878342
v 191.396149 97.976906 129.112045
v 177.306046 121.623627 124.162422
v 193.232727 109.248207 121.285538
v 153.703140 121.041435 128.362671
v 183.746063 109.740028 130.366501
v 167.402725 128.259781 123.290085
v 153.650406 116.705170 125.181900
v 160.687698 99.040421 124.088913
v 171.502335 72.632378 131.153168
v 162.615036 115.441948 131.500000
v 165.473404 104.634102 125.355713
v 170.771957 80.571808 133.238037
v 153.405792 112.453133 129.405212
v 162.618195 90.770256 125.292084
v 175.253342 119.612518 125.913071
v 191.571548 111.320168 120.793541
v 161.691818 71.015602 131.256775
v 187.520126 101.085022 131.500000
v 170.889633 90.879303 132.467224
v 176.774689 124.941147 122.965584
v 164.703644 126.741577 121.227051
v 185.474319 99.044312 131.361359
v 166.719131 78.505951 129.364441
v 156.272156 122.669258 126.849861
v 164.381546 105.268646 124.407448
v 168.767944 107.238007 131.500000
v 189.572998 109.296593 120.621948
v 168.767853 117.492989 120.499992
v 151.358124 118.237373 128.671646
v 160.389740 96.979965 130.345413
v 164.687790 92.880470 132.417038
v 157.121338 115.506516 121.948273
v 181.367050 115.441940 120.499992
v 173.294159 107.499313 123.910851
v 159.257416 97.052025 127.916969
v 162.615021 111.339912 131.500000
v 189.534973 97.581543 128.910797
v 175.216385 111.358559 120.665901
v 189.433502 115.157394 123.309761
v 191.814804 105.506531 130.232300
v 155.464905 126.738930 121.021774
v 168.767212 74.421997 133.459793
v 165.628677 69.400459 131.260361
v 170.777817 78.523903 133.262085
v 183.382187 117.384254 123.866104
v 178.582199 100.465019 127.637291
v 158.484970 125.795113 124.265526
v 157.477478 106.112503 126.063354
v 161.742920 107.803398 122.474968
v 176.853226 100.129677 129.406128
v 171.720428 86.635567 131.876068
v 190.612656 105.135101 125.994865
v 152.846222 113.692444 130.268051
v 179.316071 117.493042 120.500000
v 164.105621 95.007805 124.989700
v 189.371964 110.921036 124.855125
v 189.570358 101.084877 131.473618
v 183.418427 101.086060 131.462448
v 177.191803 103.157028 125.800255
v 162.799332 126.840996 123.424034
v 169.483337 122.251366 128.844330
v 179.313675 101.230171 126.403236
v 168.665787 86.626816 128.336273
v 170.819000 115.441956 120.505997
v 164.658783 125.641678 125.400406
v 181.352448 119.529121 120.682297
v 176.999863 115.105606 130.272354
v 155.888184 115.343758 123.227859
v 158.524384 125.456650 121.098587
v 172.454636 108.430458 123.203476
v 176.712021 116.986198 127.367851
v 156.492813 121.431007 130.948975
v 183.383728 101.089706 126.219238
v 192.784683 110.935524 121.678764
v 179.362686 123.883705 122.122803
v 181.372131 101.092392 131.376480
v 159.956329 97.057800 124.528877
v 166.719208 72.437820 129.878906
v 154.032043 115.320312 125.532234
v 164.670914 80.716957 128.719818
v 162.500748 74.405273 132.085754
v 187.517319 113.356438 124.328079
v 194.214798 106.791924 121.947136
v 166.720398 68.489212 132.866501
v 162.637238 86.761139 126.188583
v 168.765732 72.372696 133.438400
v 169.247894 95.044022 129.302826
v 181.369614 105.107986 123.856995
v 153.952866 110.687805 130.769501
v 179.428955 119.655823 124.198624
v 174.975403 106.968933 123.350327
v 181.967926 112.072906 128.064072
v 170.707382 125.547066 125.367584
v 165.152969 96.966705 125.763283
v 166.941544 99.036224 127.664391
v 192.751877 101.085915 130.359009
v 152.704391 117.651382 125.858322
v 186.658890 118.618935 121.696030
v 176.355057 126.862930 121.230362
v 185.468796 113.390915 120.508186
v 155.307007 111.669914 126.261467
v 159.539352 97.634903 129.431519
v 179.488556 99.821175 130.728287
v 163.810059 73.248062 132.938660
v 173.122101 102.979568 127.792908
v 170.817825 103.106049 127.860176
v 182.777771 120.656967 121.776657
v 164.665634 119.542503 131.459534
v 154.379791 117.528030 123.805161
v 155.766052 109.021713 127.717514
v 168.746780 105.877464 126.266090
v 162.782471 92.971878 131.430878
v 179.771759 113.885544 128.087524
v 158.513489 119.538307 131.410858
v 165.075211 98.993317 125.719269
v 164.686783 70.273567 133.074783
v 152.566528 115.487267 127.971321
v 173.378021 117.632416 130.297180
v 165.872696 94.918388 126.475769
v 170.793076 82.649452 130.082535
v 192.273773 104.727043 130.225113
v 170.630936 84.608994 132.902191
v 171.806580 72.431465 132.164307
v 179.301178 121.580025 120.683693
v 191.592804 109.291855 120.735367
v 154.616943 125.276749 123.542221
v 162.601028 96.977303 124.259933
v 161.671600 71.064751 131.247833
v 177.165237 125.578934 121.081505
v 164.666000 117.493019 120.500000
v 170.620178 94.916924 130.279785
v 172.451843 118.814972 129.836441
v 165.120758 103.218781 125.609360
v 168.744461 74.432755 129.736862
v 177.319397 125.738373 122.029961
v 175.213455 123.644508 120.542961
v 185.468063 106.230309 122.911621
v 168.839111 127.768814 124.345909
v 187.525696 111.164650 125.249886
v 175.027359 104.822945 125.586449
v 152.988083 119.692986 124.357361
v 161.993988 86.722771 130.610092
v 156.439575 125.655205 121.112274
v 166.716400 74.428185 129.611771
v 183.337814 111.079361 128.018677
v 164.652374 94.795860 132.631851
v 185.463867 115.436737 120.612503
v 173.747375 123.778244 124.756699
v 160.558289 109.835693 121.116913
v 189.491684 116.328812 121.263229
v 187.474274 103.134148 125.611641
v 191.850113 103.375336 127.664230
v 168.780396 127.245720 121.033562
v 160.582809 103.144081 131.363464
v 162.615067 119.543953 120.500008
v 159.956757 95.309845 124.851860
v 162.994614 86.725212 131.334702
v 175.195023 125.648308 120.798759
v 159.130646 105.421837 124.034103
v 151.781128 123.691017 124.403923
v 191.175934 95.957909 130.998825
v 175.206146 113.381592 131.355652
v 153.830780 111.199471 129.783478
v 177.375198 115.846336 128.105942
v 163.932465 103.235168 124.609627
v 165.821564 92.874313 126.514664
v 166.780441 108.590096 123.325653
v 170.668335 95.027008 132.403702
v 157.994827 113.135056 121.707054
v 167.231827 127.168953 124.684731
v 159.333252 97.048477 125.615074
v 183.417953 113.391060 120.499992
v 171.739563 76.498177 131.087692
v 179.224243 123.554688 120.902596
v 156.467041 123.584770 125.903961
v 171.710907 88.756920 130.875122
v 189.032593 116.638618 121.871330
v 169.712219 94.836678 132.960709
v 174.198608 122.615189 124.905563
v 158.512817 117.492912 131.491180
v 161.956268 90.836525 130.653549
v 164.665985 119.543961 120.499992
v 158.673248 115.518539 121.056938
v 189.510880 113.325630 123.894478
v 181.367096 105.187035 131.500000
v 165.718307 122.578354 130.703125
v 164.665985 109.289009 131.500000
v 166.830124 86.722069 133.055481
v 160.548904 108.863274 121.733269
v 168.724777 125.586662 125.814049
v 191.269623 97.164001 130.839203
v 170.972946 105.831833 126.342850
v 176.701553 106.455574 123.096855
v 166.758514 69.347748 131.174438
v 172.421432 128.594025 122.277046
v 154.416550 115.444756 131.413132
v 156.460159 119.534950 131.359070
v 162.909500 70.621803 131.937622
v 170.923080 86.569374 129.797501
v 171.827225 78.506721 132.782501
v 166.450272 124.548523 126.695908
v 154.475632 123.557274 125.462692
v 156.462402 113.391556 131.470261
v 184.304520 110.279045 128.103943
v 159.726242 90.846489 127.183907
v 162.725586 125.400955 125.276337
v 179.316010 115.441948 120.499977
v 175.212830 101.128090 131.251404
v 171.716202 82.480881 132.694122
v 157.009567 105.571144 130.164963
v 170.819077 117.493027 120.499992
v 168.777649 121.642975 130.135925
v 183.397537 119.560081 122.951530
v 188.065643 104.289040 125.018166
v 183.363632 106.092720 123.017662
v 192.253448 97.937950 130.174377
v 179.537689 99.851906 127.980888
v 168.766632 86.727737 133.256012
v 158.569901 121.502876 131.034409
v 175.074966 100.349007 129.472931
v 166.722305 101.130478 131.813599
v 173.168961 101.479118 128.648468
v 171.683838 86.786285 130.968674
v 171.815308 82.627991 131.261414
v 157.847412 103.205574 127.869011
v 161.244995 86.890594 126.676727
v 185.462585 101.046844 126.302834
v 154.963516 115.624733 124.193367
v 171.019669 129.048050 122.535568
v 191.749710 106.591820 121.225937
v 159.743637 93.008553 126.000694
v 156.395416 124.718147 124.919441
v 170.184845 126.810249 124.879333
v 179.316132 103.136726 131.472275
v 182.811539 120.461906 121.254196
v 162.776917 78.538200 131.923035
v 170.818985 123.645607 120.520355
v 178.703537 106.276978 122.659935
v 175.052277 102.921303 127.185814
v 154.689957 125.259727 122.199646
v 192.375839 112.786362 121.637337
v 171.621445 90.709656 130.902634
v 181.103348 98.797356 130.134796
v 162.744095 80.947769 128.824966
v 175.713028 126.442924 122.411980
v 162.976959 123.191818 127.849533
v 168.574692 127.107697 124.892166
v 178.696854 124.602348 121.192474
v 187.458511 105.272308 124.165169
v 170.836273 101.071533 131.555496
v 165.427597 84.208923 127.229752
v 183.543518 115.569077 124.372734
v 168.462021 94.830215 128.756363
v 158.863220 103.336945 130.817810
v 160.967560 84.855934 128.044083
v 154.659760 120.926018 130.711533
v 156.392624 122.133476 127.989281
v 180.120743 114.530174 126.677116
v 164.428787 86.761665 126.381355
v 170.819809 103.135818 131.524796
v 164.666000 113.391083 131.499985
v 152.462830 115.501068 131.105621
v 164.783951 86.698082 132.299652
v 175.213928 113.391464 120.519318
v 177.980255 104.060051 124.862053
v 159.894897 95.002174 128.889786
v 190.638504 116.114975 121.375893
v 170.303223 88.689445 132.994171
v 182.930496 98.290344 127.864594
v 185.599579 96.632957 130.412903
v 162.661163 82.532623 127.843040
v 168.766083 111.452110 120.898819
v 149.733810 120.194832 130.483322
v 168.757095 104.895927 126.901825
v 168.767731 78.524040 133.454758
v 166.717834 103.140594 131.586899
v 151.782196 122.506393 124.800606
v 175.551666 105.994377 124.198593
v 164.632904 110.519051 121.082840
v 181.659683 113.690842 126.265511
v 187.395569 116.779945 121.105125
v 166.733673 79.587349 129.185699
v 152.249924 120.886024 127.280502
v 187.544510 97.064491 131.147156
v 164.695297 92.868500 125.643600
v 177.229538 100.018883 130.716278
v 179.316071 105.186996 131.500000
v 166.716797 113.390923 131.500000
v 158.512863 113.390961 131.500015
v 159.938080 76.359535 129.992340
v 166.727020 76.472786 133.376251
v 160.643097 103.174194 123.916245
v 190.753510 115.202827 122.564484
v 162.726395 72.392281 132.337845
v 175.287552 123.731277 124.088181
v 154.483368 123.543770 121.968414
v 153.494934 111.561485 130.840347
v 158.512955 111.339912 131.499985
v 179.316116 113.391060 120.501335
v 158.538666 119.549507 120.702950
v 161.172134 88.778221 129.736328
v 161.726517 79.693298 130.827377
v 173.158905 119.609810 128.106445
v 168.767929 113.391060 131.500000
v 164.715958 72.484711 130.022339
v 161.107452 126.577263 121.281448
v 164.659851 111.389832 120.771347
v 184.955750 108.337265 130.798508
v 168.767960 105.187035 131.504852
v 158.902588 99.112503 127.982758
v 152.182907 119.633987 125.808662
v 169.076859 80.228157 129.415192
v 189.549423 104.485039 125.325455
v 162.459290 95.049522 124.459007
v 185.494736 107.898224 121.184181
v 170.819107 109.289024 131.499985
v 166.716812 121.594910 120.500008
v 164.094940 99.022873 124.842545
v 184.404129 96.903343 130.564957
v 164.900681 108.540909 122.883095
v 175.212616 126.865501 121.231056
v 168.549789 96.173347 133.026535
v 168.758148 90.829384 133.237900
v 157.616562 103.823448 128.504028
v 175.614746 103.539940 126.521095
v 168.763458 70.365036 133.241547
v 168.764816 110.070671 121.791313
v 177.264938 119.543968 120.499992
v 160.655579 97.052452 124.172058
v 192.320908 112.543060 121.234573
v 151.752975 120.112961 126.190636
v 177.253494 123.631104 120.673668
v 192.641022 111.100807 121.222076
v 157.815628 103.921783 130.217087
v 165.928268 99.080231 126.781479
v 165.547272 81.860901 132.946655
v 171.887085 122.283707 126.662392
v 162.949203 84.658310 131.411407
v 170.819061 107.238014 131.500000
v 164.950378 100.991936 125.668854
v 166.716888 107.238045 131.500000
v 171.795975 97.059540 131.715408
v 177.264908 103.136948 131.471558
v 187.519653 113.390244 120.534142
v 166.357346 68.233139 132.748703
v 185.465683 105.183037 131.419769
v 178.562088 124.769936 121.513374
v 168.753006 90.876144 128.386169
v 162.563110 92.945549 124.800575
v 153.268448 116.026443 126.193398
v 175.986801 118.446053 126.352577
v 168.005783 122.591957 129.476364
v 191.595566 107.308884 120.920113
v 174.806381 116.860329 130.054565
v 170.819016 111.339920 131.499985
v 168.760895 78.522537 129.570114
v 164.913773 76.346275 133.081573
v 166.726028 70.340096 133.282349
v 159.562317 101.435364 130.877090
v 173.223633 110.419884 121.033440
v 181.031265 110.928452 130.954239
v 181.445511 117.569611 124.308281
v 171.473694 92.600281 131.133728
v 162.608704 80.601456 131.489258
v 150.763245 120.282959 130.692245
v 164.285461 80.640816 132.524719
v 159.399338 111.424339 121.100601
v 177.264847 117.493042 120.499992
v 160.519028 105.225113 123.399658
v 168.753342 76.473869 129.658447
v 156.347900 117.457581 121.874268
v 164.274200 78.620827 132.736420
v 164.635986 72.435356 133.263992
v 158.958664 113.503876 121.105232
v 158.885941 122.218742 130.580292
v 159.786774 110.232651 121.196526
v 166.860687 88.781219 127.274498
v 166.962479 102.975227 127.177734
v 179.276794 109.262627 120.773422
v 171.762177 97.082161 131.665878
v 158.019730 109.109917 123.464424
v 168.768539 103.137596 131.552734
v 170.819092 113.390961 131.495560
v 162.537491 79.938416 129.443008
v 163.804565 69.612114 131.957199
v 179.319748 103.006332 125.316833
v 178.295410 114.320427 129.840271
v 161.928131 122.749016 129.386826
v 157.350189 117.826859 121.222160
v 187.399109 116.882622 122.821526
v 187.531845 112.032593 124.772408
v 173.162979 103.136421 131.480820
v 162.623032 125.647293 120.783897
v 160.739838 94.962814 130.236237
v 160.163116 90.849045 128.402695
v 166.716797 105.187103 131.509750
v 182.155807 98.137054 130.439331
v 168.768250 113.396164 120.585686
v 189.595795 106.502594 130.687851
v 183.417969 103.136047 131.500000
v 170.818771 125.683014 120.646469
v 183.417892 109.316521 120.701210
v 187.567017 106.114334 123.062622
v 162.615051 117.493027 131.500000
v 158.304703 122.425278 127.985291
v 166.833954 84.630547 127.670242
v 183.409943 107.226921 131.354263
v 160.289963 88.691193 128.009460
v 178.172043 99.945190 129.005600
v 161.845779 91.396988 125.022827
v 171.507462 110.593086 121.086227
v 161.389923 83.046494 128.471725
v 183.418015 111.340431 120.520767
v 180.268646 123.024315 121.217461
v 173.163040 121.594887 120.499985
v 191.747009 106.540039 121.583908
v 150.870789 119.714256 130.621338
v 168.535126 99.141335 128.718430
v 161.755020 72.670631 131.277695
v 183.544464 105.057274 124.024086
v 177.316132 105.255005 123.929024
v 175.213913 121.594971 120.499992
v 162.615128 115.442078 120.514236
v 174.077377 120.274986 126.330460
v 167.207458 97.736557 132.722336
v 164.665970 123.645203 120.527306
v 186.743851 108.132492 130.182068
v 154.233719 122.263504 126.697136
v 160.564041 117.493034 131.499969
v 189.562027 105.422913 124.444420
v 155.631073 108.013603 130.806244
v 161.942123 84.663162 130.692154
v 168.767410 76.473015 133.458160
v 158.801514 101.170547 125.903862
v 164.210068 97.096703 124.905792
v 153.063629 113.770241 130.738617
v 164.666031 107.238029 131.500320
v 183.407730 117.482544 120.653526
v 157.301346 105.756233 130.709717
v 168.768021 111.339951 131.500000
v 170.815994 115.438599 131.413742
v 172.743805 106.573631 125.213943
v 164.621933 124.396217 126.576088
v 189.556808 97.034973 131.164993
v 181.466492 99.217773 130.975449
v 193.638321 108.734459 121.611153
v 186.470032 112.173416 124.970390
v 166.620773 127.755089 121.802483
v 177.381424 107.388702 121.989494
v 171.454880 126.610756 124.619141
v 191.574570 101.086571 131.236176
v 158.571793 117.516785 120.806709
v 170.766556 70.377136 133.090256
v 183.326126 107.791779 121.204773
v 174.474854 126.940392 122.799545
v 168.223953 96.743408 128.693832
v 187.633896 107.734093 129.982956
v 183.417831 115.441772 120.516388
v 164.653488 79.565506 129.136642
v 152.512543 120.580315 130.201675
v 166.729996 70.531647 130.461884
v 181.472092 107.102226 121.809006
v 192.706192 108.487175 122.933029
v 175.213898 117.493019 120.499992
v 160.563965 115.441925 131.500000
v 171.843552 97.066528 131.664932
v 166.716843 123.645439 120.523262
v 181.351349 109.269447 131.295273
v 185.504944 109.376366 128.132019
v 162.568924 99.044441 131.780853
v 191.182816 115.160011 121.816368
v 170.653290 97.014343 130.233994
v 170.884842 129.041626 123.038841
v 164.667389 76.474014 129.542770
v 177.259171 111.333000 131.380325
v 177.233093 123.601852 123.548058
v 175.109970 115.331078 131.105133
v 170.819138 121.594910 120.500023
v 161.868607 92.384636 130.768936
v 164.666000 111.339973 131.500015
v 166.528320 107.365425 124.397087
v 157.349442 113.780685 122.155312
v 166.676590 82.677162 128.239227
v 189.498734 106.890747 130.005066
v 173.244949 105.487053 126.052490
v 190.327606 106.279312 128.088196
v 167.255051 104.375877 126.731079
v 164.667236 125.652199 120.750244
v 173.163010 119.543976 120.500000
v 171.813583 80.561172 132.781509
v 160.713852 93.054070 124.965965
v 171.656677 107.712265 124.393738
v 160.531982 126.580055 121.636124
v 159.460236 103.286392 124.450356
v 156.461914 115.441940 131.500000
v 179.313858 109.286179 131.431961
v 176.989090 119.415222 125.206055
v 160.564072 113.391037 131.500000
v 162.708679 94.935532 131.709320
v 163.850937 74.414017 132.865860
v 185.468750 109.318352 120.703636
v 161.022766 91.310463 125.160088
v 164.753235 84.684265 132.340576
v 173.180054 127.139809 121.187729
v 160.751877 126.574310 123.356041
v 162.202728 122.893974 128.213547
v 160.396332 122.552490 129.427200
v 158.384720 122.283257 129.741074
v 174.872711 121.135445 125.237572
v 162.596222 84.852020 126.539673
v 166.657074 99.079285 132.314606
v 182.309586 98.276596 130.915558
v 166.936722 127.063545 121.142677
v 158.289001 102.893448 130.168030
v 190.899155 106.217697 128.247406
v 170.791611 101.251801 128.692444
v 181.367142 111.340439 120.522377
v 173.169861 111.374550 120.729958
v 189.578842 107.352791 121.016922
v 193.376495 109.277527 121.986084
v 158.484467 126.308449 121.968811
v 164.615005 88.796448 126.216225
v 179.225113 121.492577 123.719589
v 185.545486 113.479668 124.633270
v 151.968216 115.280884 129.759109
v 164.737656 90.825615 126.014053
v 155.383591 118.115639 122.602562
v 160.056717 92.781570 125.513252
v 155.275330 126.475143 121.792686
v 175.213913 105.186996 131.500015
v 160.642822 94.976151 124.549217
v 189.594925 96.117371 130.880859
v 154.412659 117.491570 131.446487
v 162.615067 113.390945 131.500000
v 191.360001 101.343895 127.150719
v 166.716705 117.492943 131.486954
v 160.091324 98.918968 130.693512
v 161.335144 85.105064 126.895309
v 187.376358 106.880997 130.752426
v 176.309875 114.751060 130.908463
v 176.435303 102.308502 127.056000
v 173.163025 115.441948 120.499992
v 191.468964 111.320366 123.322243
v 151.553101 115.828011 130.568924
v 175.393036 121.905342 124.726044
v 154.598007 121.300995 130.106415
v 166.742966 111.344269 120.855118
v 171.649506 69.660545 132.744278
v 181.284027 119.474144 123.798157
v 156.527069 123.656517 120.844193
v 179.326630 101.123642 131.257660
v 175.213913 115.441933 120.499977
v 166.641632 105.346596 125.862373
v 189.570374 99.034691 131.417480
v 187.555557 99.049469 127.526230
v 168.767761 125.680725 120.659988
v 181.240341 121.475517 121.146423
v 171.805679 70.357643 132.190720
v 189.569305 111.339439 120.554207
v 168.898071 100.963127 128.342178
v 160.564026 107.238068 131.491501
v 155.501328 125.848885 121.271729
v 191.562119 99.063690 131.160889
v 172.760208 123.556908 125.310776
v 170.074051 119.172165 130.897980
v 169.507812 82.593216 129.313629
v 192.248703 98.368256 129.326233
v 164.131592 83.561180 127.109413
v 170.643311 108.616425 123.532715
v 155.527328 107.872734 130.501007
v 160.559875 123.717751 126.249191
v 188.268082 108.182968 127.055824
v 165.445801 80.514709 133.026428
v 189.555450 105.139862 131.208694
v 156.449097 107.193100 127.949783
v 161.061890 90.842117 129.815018
v 162.611816 76.469711 132.045212
v 194.221161 106.683693 121.900040
v 172.129318 76.487587 132.285660
v 161.986786 88.779808 130.613693
v 169.987228 90.713379 133.013000
v 187.473373 96.216385 130.664276
v 171.472382 70.855400 131.451370
v 165.322845 68.760139 132.764816
v 168.720993 72.453293 129.984467
v 159.701096 99.027229 124.600883
v 160.103073 92.749802 128.694717
v 189.101242 106.575325 121.905518
v 177.268036 111.345711 120.603012
v 162.785065 72.529915 130.482056
v 182.926468 110.550941 130.213959
v 162.615082 117.493042 120.500000
v 177.264633 121.594650 120.520889
v 183.297333 109.140984 131.004532
v 156.641632 121.725952 120.986221
v 161.804260 72.976501 130.923965
v 166.695114 94.888237 133.177719
v 187.515045 97.453773 128.754150
v 155.015274 109.652679 130.845963
v 189.397736 116.408089 122.616493
v 164.672440 126.562096 124.518898
v 159.147049 98.965744 125.556152
v 162.750473 122.756523 130.300339
v 157.012024 119.592171 121.090355
v 151.469421 119.833557 128.169800
v 168.922150 106.994766 125.404190
v 173.160538 125.669853 120.709351
v 183.531204 102.946274 125.335320
v 173.173264 127.859581 121.794472
v 157.838913 106.431450 125.112122
v 181.367035 113.390923 120.499992
v 191.412094 107.004440 123.629395
v 175.433365 107.851685 122.342094
v 170.952087 109.896576 121.787979
v 173.163055 111.339912 131.500000
v 185.351746 97.657379 128.570511
v 164.895065 68.832375 132.399551
v 160.568100 105.188995 131.434601
v 170.973007 121.744209 128.158096
v 162.646332 109.057281 121.851784
v 160.773376 99.150917 131.165558
v 170.811279 127.667160 124.166176
v 164.083786 76.660675 132.795319
v 168.767929 109.289009 131.499985
v 168.767960 123.645660 120.518173
v 186.055054 110.020981 126.727417
v 156.462296 121.988991 129.821945
v 154.776535 109.514481 130.238266
v 174.585083 119.042038 127.132683
v 156.072281 107.166084 129.964142
v 160.430695 122.583191 128.007446
v 180.341705 122.574463 122.771729
v 170.676880 76.549667 130.206879
v 182.560623 120.574158 122.815407
v 176.771835 108.592155 121.364250
v 164.524979 96.980888 132.591522
v 163.416000 92.071022 125.214706
v 158.510330 101.073517 128.061295
v 181.367172 103.136108 131.488815
v 154.552490 111.309555 128.014465
v 162.615097 107.238045 131.503021
v 165.892715 96.369827 126.479950
v 183.727478 97.523674 130.897141
v 177.194763 113.322945 131.109711
v 177.264862 105.187019 131.499985
v 160.754486 88.879784 126.396530
v 187.526154 109.313507 120.697220
v 164.796616 82.632629 127.676689
v 168.961288 97.039330 129.194336
v 164.661911 78.506081 129.366211
v 158.960541 101.274582 130.223328
v 166.233795 110.607460 121.122681
v 171.861588 74.569664 132.687149
v 171.194901 88.873718 132.467163
v 156.540268 126.391174 122.828888
v 164.645859 84.678307 126.749077
v 154.443375 121.533310 127.959152
v 175.252045 110.034676 120.979744
v 151.812149 123.023338 124.729134
v 182.467514 110.332741 130.812744
v 171.742233 88.714928 131.562592
v 168.768051 119.543976 120.500015
v 158.413269 107.230438 123.853394
v 185.369598 108.873795 130.053574
v 170.782562 104.864708 127.013786
v 181.555344 121.984589 122.011253
v 166.717911 72.372543 133.436768
v 168.767975 121.595047 120.500023
v 164.587524 123.518715 128.000977
v 166.871948 96.988098 127.700394
v 190.026550 106.442383 121.608429
v 152.402863 119.474380 131.083084
v 170.619522 72.479858 130.485443
v 165.448563 96.853935 132.892319
v 177.264938 107.238014 131.500015
v 168.750427 92.880882 133.242050
v 190.600388 106.225670 124.790375
v 178.805161 114.856552 127.973358
v 168.767563 80.575188 133.442520
v 173.163010 123.645500 120.522995
# 1183 vertices, 0 vertices normals

f 577 744 833
f 642 894 141
f 465 915 175
f 909 566 18
f 90 885 753
f 217 278 702
f 189 558 817
f 644 201 612
f 1024 1158 369
f 975 969 154
f 629 503 735
f 1151 754 1159
f 582 510 600
f 361 56 727
f 116 384 264
f 326 934 1102
f 585 390 687
f 355 882 1092
f 556 939 283
f 342 461 408
f 199 49 337
f 882 491 281
f 1014 44 76
f 174 957 491
f 222 1123 552
f 342 64 348
f 1 615 534
f 218 593 865
f 509 48 641
f 1109 1072 59
f 318 658 382
f 556 1047 66
f 179 353 688
f 600 427 620
f 160 1086 1176
f 465 357 867
f 89 734 1031
f 867 357 869
f 546 203 1120
f 1146 773 822
f 876 607 415
f 486 212 1144
f 508 1167 811
f 404 779 724
f 208 76 825
f 1024 1008 124
f 979 363 1026
f 518 1048 505
f 727 56 36
f 643 988 159
f 797 876 389
f 661 835 632
f 1000 218 418
f 1131 288 1143
f 954 480 19
f 60 191 818
f 32 97 193
f 354 833 744
f 668 636 528
f 876 1170 861
f 328 840 231
f 848 227 39
f 652 870 879
f 158 901 116
f 93 374 190
f 57 380 287
f 32 193 492
f 878 454 177
f 936 778 143
f 308 329 112
f 192 1081 586
f 2 346 864
f 136 974 770
f 1035 947 383
f 1069 623 278
f 257 655 555
f 1023 577 949
f 207 355 1161
f 335 782 810
f 14 255 963
f 1053 182 31
f 252 352 926
f 34 827 728
f 242 978 999
f 82 245 944
f 1096 627 835
f 527 1160 931
f 1074 333 107
f 919 1115 68
f 1078 388 236
f 1067 171 651
f 872 126 441
f 323 868 776
f 163 1175 1036
f 144 860 1126
f 241 789 113
f 568 51 104
f 499 899 779
f 338 337 49
f 924 741 324
f 54 863 1021
f 821 77 411
f 1030 612 874
f 955 466 803
f 670 50 59
f 942 35 757
f 89 659 580
f 331 286 456
f 236 332 341
f 518 1000 265
f 1104 204 563
f 942 326 35
f 475 1018 987
f 729 1013 588
f 221 176 997
f 1083 284 259
f 313 609 777
f 644 443 237
f 1056 984 488
f 545 936 442
f 884 267 408
f 1179 399 358
f 810 1050 352
f 376 765 66
f 1072 573 131
f 275 276 413
f 831 489 1096
f 111 79 23
f 705 735 678
f 773 119 417
f 1040 84 862
f 525 194 787
f 366 645 935
f 456 951 509
f 674 1089 1105
f 292 1069 269
f 807 886 858
f 992 429 967
f 435 322 38
f 240 591 261
f 110 1038 106
f 1072 995 537
f 919 312 733
f 141 687 109
f 453 65 64
f 720 746 87
f 1017 757 1154
f 793 469 38
f 632 850 440
f 856 312 192
f 985 672 877
f 1176 512 433
f 562 768 924
f 954 19 478
f 399 681 358
f 987 472 372
f 381 1062 847
f 916 1004 344
f 980 493 134
f 396 310 82
f 34 728 419
f 136 481 974
f 98 1109 50
f 941 650 459
f 517 852 913
f 1082 423 468
f 613 604 1143
f 910 1097 460
f 789 606 113
f 805 867 739
f 1098 803 182
f 691 347 42
f 254 1169 610
f 701 343 1120
f 338 929 337
f 560 112 954
f 418 218 865
f 231 1067 682
f 326 151 35
f 576 730 1111
f 706 699 998
f 60 20 191
f 286 563 184
f 323 14 142
f 1053 31 646
f 723 553 364
f 937 176 221
f 15 314 67
f 222 528 430
f 1173 959 921
f 379 24 1155
f 172 708 139
f 1172 214 1106
f 507 963 255
f 664 383 694
f 287 638 523
f 629 1032 220
f 167 595 1094
f 884 408 461
f 464 472 1018
f 1008 184 563
f 648 43 1129
f 783 91 43
f 30 306 1033
f 249 866 634
f 1173 23 756
f 948 579 319
f 415 860 186
f 565 250 482
f 1025 1029 517
f 319 561 525
f 584 1003 607
f 1116 952 207
f 1104 563 331
f 1114 916 675
f 1056 777 614
f 732 115 976
f 737 1142 579
f 93 190 711
f 212 690 940
f 6 826 114
f 71 197 706
f 118 67 866
f 849 460 329
f 103 65 425
f 946 107 568
f 116 901 384
f 994 913 852
f 468 73 676
f 272 160 365
f 1099 520 290
f 693 596 238
f 755 548 123
f 223 945 537
f 334 502 1061
f 992 918 981
f 790 688 1142
f 398 443 128
f 447 683 4
f 751 917 215
f 1133 1131 1073
f 359 126 77
f 363 578 215
f 92 172 734
f 431 222 552
f 643 159 439
f 691 721 248
f 939 197 387
f 1147 1043 570
f 597 449 838
f 649 1002 166
f 772 1119 309
f 550 503 124
f 346 78 864
f 811 930 1042
f 310 1068 245
f 1051 294 1061
f 1097 508 811
f 635 483 806
f 1170 589 829
f 1121 1064 213
f 286 951 456
f 871 710 557
f 408 877 672
f 713 326 942
f 205 1111 135
f 654 110 106
f 654 717 752
f 175 12 357
f 215 1169 1135
f 970 1128 94
f 848 587 227
f 266 246 743
f 144 1126 875
f 1157 554 490
f 587 619 861
f 14 340 1108
f 897 85 1002
f 185 880 311
f 978 1147 2
f 657 35 1121
f 1097 1094 508
f 944 395 444
f 210 862 757
f 697 227 285
f 891 749 1106
f 81 284 1
f 71 706 801
f 1103 680 234
f 156 253 791
f 864 167 1163
f 684 615 284
f 155 291 494
f 993 712 56
f 169 1120 1087
f 339 354 13
f 20 1091 1022
f 67 314 224
f 645 1083 259
f 794 936 545
f 19 413 101
f 377 787 1035
f 562 3 565
f 656 904 426
f 177 454 21
f 239 417 772
f 409 352 158
f 121 753 374
f 861 829 485
f 457 805 739
f 878 474 454
f 254 1137 716
f 580 1034 832
f 1152 634 975
f 112 480 954
f 261 591 170
f 1157 118 1164
f 144 41 794
f 180 271 404
f 844 529 812
f 842 299 306
f 341 348 604
f 360 1002 615
f 884 291 267
f 27 894 642
f 505 593 455
f 290 701 888
f 1117 863 914
f 948 1015 900
f 20 173 1091
f 303 3 1044
f 153 1002 85
f 467 710 871
f 302 252 926
f 813 1141 1154
f 948 1146 1015
f 160 1061 1086
f 625 554 150
f 43 91 27
f 480 275 413
f 351 339 13
f 466 926 1095
f 169 39 1120
f 764 791 298
f 62 356 611
f 44 121 845
f 868 140 1175
f 416 667 570
f 787 947 1035
f 350 1080 584
f 539 1037 983
f 147 726 679
f 1154 862 84
f 616 783 181
f 323 142 868
f 899 812 885
f 210 386 973
f 393 268 881
f 265 1000 418
f 636 514 528
f 92 769 1090
f 1076 869 839
f 556 425 620
f 436 147 96
f 788 558 189
f 636 393 514
f 702 147 230
f 244 782 335
f 484 977 296
f 1165 714 108
f 1060 86 738
f 561 247 525
f 905 1004 916
f 641 48 1125
f 766 660 259
f 198 1149 479
f 542 1103 796
f 216 282 157
f 1100 208 399
f 1004 191 1150
f 943 807 858
f 237 434 814
f 344 381 603
f 924 240 741
f 643 594 537
f 766 100 347
f 1181 616 890
f 435 1099 1093
f 301 170 965
f 961 650 941
f 40 248 373
f 1167 402 960
f 621 162 857
f 105 703 993
f 103 604 65
f 412 1081 192
f 568 709 1104
f 341 332 342
f 152 148 1122
f 728 221 419
f 142 963 140
f 933 555 1180
f 1112 732 400
f 571 535 874
f 1110 426 904
f 275 372 472
f 206 93 241
f 22 233 421
f 922 797 701
f 742 828 643
f 746 948 900
f 94 1128 1059
f 506 949 577
f 80 1145 597
f 16 161 730
f 634 866 224
f 419 662 1166
f 1007 1112 426
f 133 877 870
f 409 1095 926
f 484 367 977
f 96 745 249
f 635 621 493
f 1064 1144 213
f 30 895 306
f 832 817 630
f 162 518 854
f 326 1102 432
f 694 127 719
f 21 454 446
f 129 411 77
f 971 1097 910
f 1115 330 225
f 594 696 952
f 144 794 860
f 1058 110 477
f 304 435 793
f 367 647 977
f 26 1051 502
f 173 1115 1174
f 104 673 693
f 103 666 1143
f 248 625 183
f 143 423 1156
f 245 493 395
f 1058 540 420
f 441 528 222
f 1024 369 646
f 32 492 655
f 1032 369 220
f 648 707 1094
f 544 74 369
f 354 744 481
f 501 1179 826
f 871 557 831
f 1172 704 33
f 747 962 583
f 1014 76 928
f 897 153 85
f 572 88 996
f 570 1181 890
f 489 53 569
f 989 464 1018
f 391 1177 1100
f 376 1047 340
f 358 681 671
f 783 46 595
f 535 877 686
f 657 1121 271
f 1046 481 577
f 868 920 776
f 897 533 153
f 165 295 266
f 7 102 1019
f 1176 1086 512
f 730 161 477
f 810 1155 1050
f 456 641 673
f 887 962 747
f 665 395 980
f 1041 397 1013
f 912 113 720
f 59 1072 830
f 762 1025 495
f 1139 973 146
f 401 1107 63
f 469 375 38
f 625 150 712
f 268 1063 881
f 762 243 1025
f 504 1070 29
f 69 299 438
f 881 1063 313
f 762 1013 1159
f 1151 986 909
f 448 8 428
f 213 499 404
f 548 716 448
f 379 670 24
f 528 488 430
f 715 226 483
f 366 804 645
f 996 184 1008
f 764 298 983
f 633 685 658
f 760 527 216
f 539 983 690
f 1048 798 505
f 93 789 241
f 380 99 958
f 920 14 776
f 249 745 866
f 534 1002 649
f 229 855 715
f 60 906 20
f 81 1 6
f 570 667 1181
f 837 757 1017
f 969 883 10
f 880 117 311
f 198 708 911
f 1027 123 585
f 597 1173 449
f 575 305 722
f 164 616 1181
f 1104 709 204
f 882 174 491
f 122 115 732
f 64 672 985
f 707 972 1167
f 515 993 703
f 104 693 297
f 1060 610 215
f 1046 577 1023
f 58 438 1118
f 202 362 428
f 531 567 714
f 62 1039 253
f 155 394 291
f 554 1164 679
f 1124 210 973
f 409 633 1095
f 947 694 383
f 639 835 661
f 206 723 102
f 874 401 128
f 228 473 402
f 623 727 278
f 756 590 1152
f 183 712 993
f 114 771 403
f 1142 903 561
f 281 1020 802
f 1044 3 562
f 514 488 528
f 760 1160 527
f 88 896 809
f 955 302 466
f 482 293 205
f 98 614 1109
f 915 407 175
f 1097 811 460
f 460 811 1042
f 1077 902 275
f 301 965 174
f 40 691 248
f 1122 148 238
f 36 56 150
f 150 554 726
f 698 122 732
f 236 1166 884
f 996 809 184
f 465 175 357
f 715 152 564
f 787 194 947
f 290 1120 203
f 194 1057 947
f 866 67 224
f 600 620 853
f 1060 215 917
f 301 261 170
f 661 632 824
f 975 224 969
f 526 873 859
f 707 1167 508
f 1099 922 520
f 185 311 669
f 1099 290 1093
f 43 27 1129
f 25 1127 529
f 628 192 506
f 960 987 902
f 172 1090 898
f 422 377 1085
f 983 298 25
f 965 170 718
f 651 1048 682
f 915 397 200
f 919 412 312
f 967 467 871
f 1131 592 1102
f 844 25 529
f 137 405 294
f 541 355 1092
f 69 1178 1148
f 774 1071 397
f 671 883 314
f 1083 684 284
f 38 375 457
f 956 137 294
f 931 1160 786
f 408 267 879
f 20 1022 191
f 520 701 290
f 504 719 1070
f 419 221 662
f 1183 904 740
f 777 695 614
f 376 163 765
f 274 873 526
f 516 103 425
f 1161 541 1021
f 403 490 554
f 225 1023 966
f 966 1023 1081
f 1029 788 1140
f 881 313 990
f 522 118 1157
f 498 559 330
f 1120 343 619
f 909 243 196
f 1139 146 1177
f 162 574 667
f 456 509 641
f 723 725 102
f 360 982 684
f 579 561 319
f 885 812 763
f 1081 497 586
f 364 608 725
f 1123 345 823
f 892 686 955
f 99 440 638
f 767 445 1055
f 594 1116 207
f 450 715 1068
f 665 444 395
f 538 47 769
f 994 817 1034
f 915 1041 758
f 113 606 746
f 24 830 251
f 500 665 978
f 710 536 557
f 532 427 255
f 613 288 1131
f 724 90 44
f 773 422 1085
f 1019 725 609
f 100 42 347
f 1085 377 316
f 774 583 1151
f 1166 291 884
f 122 1125 976
f 376 66 1047
f 350 457 1080
f 1024 996 1008
f 952 741 301
f 798 287 979
f 393 881 1056
f 491 957 905
f 622 23 1145
f 412 497 1081
f 1168 608 159
f 583 785 392
f 784 680 362
f 591 325 923
f 71 387 197
f 818 191 1004
f 388 419 1113
f 506 586 949
f 1146 422 773
f 806 927 1132
f 78 616 5
f 649 1139 1177
f 145 160 1088
f 1030 443 612
f 693 750 596
f 994 852 817
f 555 464 471
f 905 818 1004
f 262 1006 40
f 1098 1107 803
f 843 317 393
f 644 237 814
f 837 827 34
f 408 870 877
f 1151 392 986
f 281 491 1020
f 642 559 498
f 886 444 1118
f 1052 716 548
f 1020 905 916
f 706 792 801
f 924 52 240
f 766 347 691
f 313 1019 609
f 935 841 12
f 1057 1066 694
f 567 437 1045
f 140 759 307
f 809 476 184
f 715 564 226
f 277 735 550
f 659 1034 580
f 424 1008 204
f 214 33 229
f 271 213 404
f 656 426 400
f 1038 32 257
f 887 1153 962
f 422 787 377
f 644 612 443
f 187 330 471
f 764 513 156
f 849 329 308
f 220 1158 503
f 285 272 365
f 283 1131 666
f 215 610 1169
f 240 301 741
f 1063 7 1019
f 578 850 215
f 779 899 885
f 298 791 943
f 338 820 929
f 178 663 266
f 251 219 775
f 1079 684 1083
f 979 523 638
f 64 408 672
f 964 145 581
f 921 232 7
f 1173 598 449
f 1035 383 664
f 1147 570 149
f 1034 817 832
f 30 846 125
f 434 178 931
f 447 1036 307
f 412 586 497
f 87 293 482
f 846 737 1054
f 310 450 1068
f 555 471 1180
f 652 244 133
f 874 892 401
f 1100 399 1179
f 675 344 603
f 679 1164 745
f 394 1123 692
f 999 971 353
f 93 711 789
f 510 731 612
f 511 176 1089
f 772 417 1119
f 416 570 1043
f 1124 973 166
f 743 1032 629
f 22 446 233
f 1026 254 1052
f 154 10 7
f 124 503 1158
f 459 362 202
f 511 411 129
f 762 196 243
f 300 842 306
f 52 168 240
f 778 1182 547
f 474 1106 233
f 952 301 882
f 87 772 309
f 301 37 882
f 42 114 721
f 1111 923 325
f 845 969 883
f 180 386 271
f 469 38 375
f 569 941 86
f 420 29 1038
f 824 602 99
f 571 95 612
f 410 434 786
f 784 13 653
f 957 818 905
f 900 1015 239
f 333 709 107
f 916 344 675
f 669 111 622
f 704 104 297
f 1161 1021 863
f 1040 862 1124
f 589 137 956
f 920 340 14
f 357 12 841
f 581 1088 647
f 1153 274 526
f 535 985 877
f 556 666 516
f 644 814 201
f 764 1037 513
f 1144 940 499
f 1056 614 98
f 451 73 361
f 893 1103 542
f 1042 930 960
f 674 580 1089
f 272 334 160
f 894 585 141
f 354 481 136
f 65 620 425
f 851 96 249
f 1172 1106 749
f 783 43 46
f 1127 819 842
f 13 136 653
f 106 257 816
f 986 269 909
f 283 592 1131
f 1056 98 984
f 606 1054 948
f 572 996 1024
f 715 483 1068
f 390 542 687
f 119 273 1101
f 594 924 696
f 1112 698 732
f 348 65 604
f 567 1045 714
f 938 80 597
f 625 403 554
f 311 851 111
f 806 328 231
f 873 433 1136
f 506 577 836
f 657 757 35
f 570 78 149
f 133 335 462
f 223 988 945
f 745 118 866
f 91 1027 496
f 1010 1106 474
f 1182 373 515
f 237 280 398
f 628 506 519
f 571 612 731
f 331 563 286
f 627 569 1060
f 329 1077 112
f 777 1168 695
f 1085 273 119
f 550 735 503
f 230 147 436
f 525 247 194
f 638 440 850
f 1115 471 330
f 700 575 617
f 392 815 292
f 25 298 1127
f 617 132 932
f 909 217 566
f 556 66 939
f 1108 532 255
f 133 462 877
f 872 394 155
f 929 991 896
f 1062 519 339
f 79 130 590
f 479 1149 211
f 419 1166 1113
f 868 1175 920
f 92 538 769
f 202 601 362
f 183 625 712
f 338 289 820
f 785 815 392
f 898 1090 360
f 640 906 60
f 529 842 300
f 1171 981 1128
f 684 982 615
f 402 473 1075
f 81 259 284
f 796 234 470
f 239 773 417
f 1133 934 326
f 364 303 742
f 511 1089 832
f 329 1042 1077
f 648 1129 707
f 562 52 768
f 208 928 76
f 384 567 531
f 57 798 651
f 225 966 68
f 889 205 135
f 303 549 565
f 1174 919 733
f 720 87 482
f 729 588 1149
f 483 1122 279
f 78 5 167
f 87 309 772
f 375 484 296
f 388 551 419
f 27 1027 950
f 737 790 1142
f 222 345 1123
f 991 970 94
f 1136 676 9
f 385 229 715
f 848 1087 587
f 87 900 239
f 175 935 12
f 872 441 431
f 670 59 24
f 872 155 662
f 1133 613 1131
f 1134 1074 138
f 593 1052 865
f 901 17 384
f 747 583 774
f 938 597 821
f 924 768 52
f 815 9 451
f 487 400 732
f 209 1098 1053
f 558 630 817
f 373 183 515
f 998 447 4
f 70 539 212
f 595 648 1094
f 639 1096 835
f 296 1153 887
f 194 521 1057
f 198 911 1149
f 64 985 535
f 562 889 52
f 158 775 901
f 430 670 823
f 65 582 620
f 965 72 957
f 590 130 249
f 1092 882 281
f 614 695 1109
f 442 1156 405
f 1024 124 1158
f 858 886 1118
f 738 202 610
f 742 303 1044
f 468 423 703
f 442 143 1156
f 269 1069 278
f 449 598 838
f 182 382 31
f 773 1085 119
f 342 884 461
f 179 999 353
f 717 816 933
f 58 500 242
f 979 578 363
f 358 671 15
f 290 888 1120
f 1096 489 627
f 598 921 268
f 1166 494 291
f 873 1136 859
f 454 233 446
f 557 536 53
f 522 15 67
f 103 1143 604
f 217 702 566
f 505 979 1026
f 371 849 308
f 505 1026 593
f 340 532 1108
f 236 388 1166
f 806 1122 328
f 152 297 238
f 1107 955 803
f 29 1070 97
f 164 783 761
f 278 36 702
f 767 1055 1045
f 1074 107 138
f 1011 1134 1010
f 800 1102 592
f 1109 695 223
f 205 576 1111
f 911 1079 804
f 701 797 389
f 650 351 459
f 465 296 887
f 775 54 901
f 434 931 786
f 1009 749 891
f 714 1045 429
f 381 530 1062
f 1001 1037 539
f 1119 1101 452
f 1123 782 244
f 1151 909 754
f 587 485 227
f 838 598 268
f 1003 860 415
f 354 836 833
f 432 1102 387
f 357 841 262
f 129 795 997
f 922 584 797
f 5 181 167
f 823 670 379
f 901 54 17
f 31 382 199
f 647 1088 637
f 452 161 16
f 1053 646 1065
f 970 1171 1128
f 375 465 805
f 593 1026 1052
f 880 566 117
f 1 501 6
f 700 307 759
f 371 308 521
f 138 749 1009
f 38 457 350
f 1014 724 44
f 843 393 636
f 368 752 640
f 453 571 731
f 31 199 572
f 1133 1073 934
f 123 448 390
f 1020 916 1114
f 538 605 47
f 909 18 243
f 22 385 396
f 1090 769 897
f 530 628 1062
f 178 705 931
f 696 324 952
f 1080 1126 1003
f 327 654 752
f 617 722 132
f 380 1112 99
f 766 1006 660
f 545 442 137
f 1022 406 733
f 353 971 910
f 287 523 979
f 320 305 575
f 245 1068 483
f 998 4 792
f 420 1038 110
f 33 704 297
f 231 518 927
f 669 311 111
f 1175 140 307
f 845 883 969
f 273 664 321
f 960 475 987
f 435 1093 322
f 908 157 1134
f 595 46 43
f 224 314 883
f 479 211 139
f 633 658 1095
f 206 241 723
f 760 1130 1049
f 165 266 663
f 327 477 654
f 538 84 605
f 591 923 170
f 396 385 310
f 1110 1007 426
f 1088 1176 637
f 207 1161 131
f 402 1075 187
f 207 952 1138
f 984 50 670
f 272 502 334
f 78 167 864
f 1174 733 406
f 510 612 600
f 1161 355 541
f 991 94 524
f 466 1095 318
f 38 322 484
f 713 34 1078
f 1058 477 161
f 654 106 717
f 1148 790 737
f 865 1052 548
f 270 260 195
f 140 963 759
f 256 400 487
f 412 1081 586
f 543 624 276
f 1103 234 796
f 254 1135 1169
f 729 911 458
f 937 1105 1089
f 487 732 48
f 262 40 61
f 160 334 1061
f 1061 626 1086
f 716 8 448
f 27 642 473
f 309 452 16
f 499 940 899
f 385 715 450
f 211 994 1031
f 561 903 247
f 1164 118 745
f 1078 551 388
f 1174 1115 919
f 550 124 424
f 62 907 356
f 1001 968 1037
f 558 938 630
f 794 41 936
f 13 354 136
f 972 228 1167
f 536 961 53
f 1025 517 495
f 1028 620 427
f 265 418 164
f 1145 23 1173
f 730 477 327
f 571 874 95
f 336 405 1156
f 458 911 804
f 189 817 852
f 808 964 581
f 111 851 79
f 1050 251 775
f 453 582 65
f 295 799 246
f 401 63 128
f 933 1180 173
f 711 125 789
f 922 631 520
f 908 1134 1011
f 1072 131 1117
f 1115 225 68
f 649 391 1100
f 962 785 583
f 132 356 907
f 819 438 299
f 1008 563 204
f 309 1119 452
f 154 969 10
f 1061 294 626
f 1159 754 196
f 90 753 121
f 86 414 738
f 535 686 892
f 33 855 229
f 603 381 847
f 162 265 574
f 758 458 366
f 191 1022 1150
f 236 884 332
f 178 629 705
f 209 1053 1065
f 475 471 1018
f 296 977 1153
f 1091 406 1022
f 1022 733 856
f 205 293 576
f 690 25 844
f 70 792 1001
f 502 1051 1061
f 408 879 870
f 475 989 1018
f 937 1089 176
f 1177 208 1100
f 702 726 147
f 922 701 631
f 771 1084 522
f 596 736 953
f 455 593 218
f 1170 186 589
f 837 1017 827
f 301 174 37
f 164 761 616
f 345 430 823
f 1165 108 1171
f 806 231 927
f 587 1087 619
f 464 543 472
f 760 216 908
f 333 204 709
f 370 880 185
f 206 102 10
f 289 1165 820
f 500 444 665
f 146 208 1177
f 881 990 1056
f 918 925 1183
f 788 852 1140
f 1055 967 429
f 480 413 19
f 816 555 933
f 1011 474 878
f 606 948 746
f 1108 255 814
f 516 666 103
f 965 718 72
f 562 924 11
f 766 691 1006
f 830 1117 219
f 500 1118 444
f 465 315 915
f 320 759 1049
f 851 120 96
f 254 610 1137
f 992 967 75
f 820 1171 970
f 240 261 301
f 373 248 183
f 813 937 1141
f 92 89 674
f 762 1159 196
f 6 501 826
f 582 600 853
f 524 94 1016
f 652 879 267
f 646 369 74
f 605 533 47
f 1042 902 1077
f 58 1118 500
f 769 47 533
f 1109 223 1072
f 270 865 260
f 902 372 275
f 1110 639 661
f 164 418 270
f 813 84 538
f 635 493 483
f 269 278 217
f 788 189 852
f 70 1001 539
f 241 303 553
f 680 470 234
f 322 808 367
f 1128 981 740
f 1149 588 495
f 576 16 730
f 643 781 594
f 1025 243 370
f 76 671 681
f 273 321 540
f 390 893 542
f 76 845 671
f 378 61 1182
f 729 1149 911
f 475 187 471
f 753 190 374
f 61 40 373
f 164 270 783
f 769 533 897
f 392 292 986
f 722 21 132
f 180 404 724
f 557 53 489
f 112 1077 480
f 512 626 83
f 721 403 625
f 597 1145 1173
f 239 772 309
f 430 984 670
f 137 442 405
f 17 1021 437
f 643 945 988
f 558 80 938
f 999 2 971
f 627 1060 677
f 143 547 423
f 475 1018 464
f 462 335 252
f 524 1016 951
f 1167 960 930
f 79 590 756
f 145 365 160
f 317 838 268
f 991 524 476
f 24 1050 1155
f 961 603 650
f 560 954 1066
f 315 887 747
f 668 843 636
f 980 1043 1147
f 1123 379 782
f 791 253 807
f 187 498 330
f 556 516 425
f 75 831 925
f 706 998 792
f 447 307 700
f 117 436 851
f 597 838 618
f 1046 109 481
f 860 794 186
f 1182 515 547
f 742 439 159
f 839 61 378
f 918 740 981
f 675 603 961
f 380 122 698
f 199 337 88
f 1033 69 1148
f 394 431 552
f 984 98 50
f 783 270 91
f 433 512 83
f 260 755 195
f 186 545 589
f 796 974 481
f 915 315 747
f 915 774 397
f 998 1036 447
f 323 776 14
f 1027 585 894
f 986 292 269
f 821 618 359
f 1111 730 327
f 316 664 273
f 214 229 689
f 1082 1156 423
f 113 746 720
f 213 1144 499
f 754 909 196
f 459 202 414
f 722 305 878
f 9 676 73
f 54 914 863
f 231 1012 518
f 534 649 1100
f 433 83 676
f 568 1104 51
f 813 538 674
f 932 907 513
f 1144 212 940
f 359 843 668
f 673 750 693
f 221 997 662
f 1117 131 863
f 944 245 395
f 1108 834 410
f 464 655 492
f 17 437 567
f 600 201 814
f 874 535 892
f 410 434 237
f 432 387 71
f 647 637 274
f 1076 839 378
f 491 905 1020
f 712 150 56
f 925 1096 639
f 403 771 1157
f 687 542 109
f 182 318 382
f 388 1113 1166
f 710 1114 536
f 803 466 318
f 1110 661 1007
f 885 763 753
f 1093 808 322
f 336 1082 83
f 364 553 303
f 806 1132 162
f 716 1137 610
f 935 660 841
f 87 239 309
f 146 386 180
f 629 220 503
f 946 104 704
f 253 1039 263
f 643 537 945
f 883 374 10
f 321 694 719
f 1017 728 827
f 656 400 256
f 806 483 279
f 797 584 607
f 701 389 463
f 303 565 3
f 293 16 576
f 816 257 555
f 485 829 26
f 209 743 799
f 202 362 601
f 936 143 442
f 265 164 235
f 274 637 873
f 1064 151 349
f 889 135 168
f 784 653 680
f 701 463 343
f 686 302 955
f 188 256 487
f 311 117 851
f 623 361 727
f 821 597 618
f 758 1041 458
f 1173 756 959
f 1148 1178 790
f 409 116 633
f 431 441 222
f 97 28 599
f 275 543 276
f 980 134 857
f 33 152 855
f 29 97 32
f 547 703 423
f 283 800 592
f 167 1094 1163
f 1082 676 83
f 1114 675 536
f 328 1122 840
f 172 898 708
f 1127 943 819
f 559 141 225
f 1017 1141 728
f 1122 238 840
f 519 836 354
f 547 515 703
f 132 21 356
f 719 97 1070
f 321 719 504
f 903 55 371
f 451 361 623
f 1006 691 40
f 1016 1059 656
f 607 1003 415
f 611 22 396
f 697 964 203
f 277 333 1074
f 1097 1163 1094
f 1 534 501
f 964 285 145
f 1172 33 214
f 804 1079 1083
f 677 917 751
f 1010 1009 891
f 536 675 961
f 763 300 895
f 582 731 510
f 413 276 624
f 336 83 626
f 1091 1174 406
f 582 853 620
f 967 871 75
f 335 810 252
f 39 227 697
f 797 607 876
f 398 280 443
f 806 162 621
f 463 619 343
f 404 499 779
f 685 264 289
f 208 1014 928
f 320 1049 305
f 1064 486 1144
f 915 747 774
f 186 794 545
f 363 1135 254
f 938 411 630
f 351 13 784
f 719 28 97
f 893 680 1103
f 857 162 416
f 448 893 390
f 908 216 157
f 239 822 773
f 1123 823 379
f 458 804 366
f 220 369 1158
f 1063 1019 313
f 540 504 420
f 700 617 683
f 919 68 412
f 1000 455 218
f 942 757 837
f 906 933 173
f 1026 363 254
f 231 1048 1012
f 152 1122 564
f 42 6 114
f 742 1044 562
f 197 765 699
f 410 1162 434
f 287 958 748
f 702 36 726
f 956 294 1051
f 81 42 100
f 360 615 982
f 106 1038 257
f 537 131 573
f 171 596 57
f 815 451 1069
f 72 718 640
f 198 479 708
f 1082 468 676
f 336 626 405
f 2 864 971
f 634 224 975
f 893 362 680
f 874 612 95
f 613 1143 288
f 657 271 386
f 333 424 204
f 632 677 751
f 789 125 606
f 1059 904 656
f 54 1021 17
f 61 373 1182
f 752 717 933
f 380 698 1112
f 829 956 26
f 1025 370 185
f 272 26 502
f 865 548 755
f 432 71 349
f 1088 160 1176
f 803 318 182
f 802 1020 1114
f 211 1005 994
f 360 684 1079
f 774 1151 1071
f 514 1056 488
f 41 778 936
f 909 269 217
f 294 405 626
f 584 1080 1003
f 407 366 935
f 778 547 143
f 409 926 352
f 53 941 569
f 241 113 912
f 363 215 1135
f 706 197 699
f 258 350 584
f 393 1056 514
f 1054 737 579
f 530 856 628
f 692 267 291
f 1090 897 360
f 915 758 407
f 192 586 506
f 109 796 481
f 645 259 660
f 241 912 303
f 415 186 1170
f 24 251 1050
f 1117 914 45
f 802 1114 710
f 796 470 974
f 370 18 880
f 755 123 1027
f 808 581 367
f 780 237 295
f 342 332 884
f 206 374 93
f 846 1148 737
f 359 668 126
f 1111 368 923
f 289 531 1165
f 1130 878 305
f 714 429 108
f 1019 102 725
f 18 566 880
f 105 993 56
f 141 1046 225
f 87 309 293
f 375 296 465
f 385 450 310
f 594 952 1116
f 795 126 872
f 473 498 187
f 1130 305 1049
f 64 535 571
f 394 552 1123
f 1033 306 299
f 622 111 23
f 1101 540 1058
f 1172 946 704
f 750 736 596
f 845 121 883
f 231 238 1067
f 692 244 652
f 1108 814 834
f 1150 530 381
f 448 362 893
f 566 230 117
f 898 360 1079
f 385 689 229
f 1129 27 473
f 886 944 444
f 33 297 152
f 239 1146 822
f 611 446 22
f 813 1154 84
f 146 724 1014
f 824 632 602
f 486 349 801
f 972 1129 228
f 511 129 176
f 412 192 312
f 153 166 1002
f 1032 1065 544
f 653 470 680
f 683 932 968
f 322 367 484
f 1072 537 573
f 258 584 922
f 793 38 435
f 55 849 371
f 320 575 759
f 1080 739 1126
f 1066 478 127
f 81 6 42
f 694 1066 127
f 237 443 280
f 1023 949 1081
f 309 16 293
f 268 921 1063
f 8 202 428
f 542 796 109
f 394 692 291
f 125 1054 606
f 1076 378 41
f 632 751 850
f 295 398 799
f 1178 242 179
f 99 638 748
f 57 596 953
f 232 975 154
f 266 295 246
f 126 528 441
f 943 858 819
f 302 926 466
f 1054 579 948
f 872 431 394
f 282 1074 157
f 1069 451 623
f 226 1122 483
f 193 101 492
f 763 895 190
f 1152 232 921
f 959 1152 921
f 579 1142 561
f 1007 99 1112
f 1129 473 228
f 1147 149 78
f 1039 396 82
f 94 1059 1016
f 723 241 553
f 637 1176 433
f 501 1100 1179
f 762 588 1013
f 697 285 964
f 156 907 62
f 467 802 710
f 1175 307 1036
f 711 190 895
f 980 416 1043
f 341 342 348
f 685 49 658
f 486 801 70
f 524 286 476
f 692 652 267
f 1091 173 1174
f 290 203 1093
f 572 199 88
f 613 236 341
f 939 66 765
f 48 976 1125
f 139 211 1031
f 632 440 602
f 448 428 362
f 178 1162 663
f 527 931 705
f 121 374 883
f 1 284 615
f 146 1014 208
f 316 1035 664
f 521 308 560
f 971 864 1097
f 258 922 1099
f 146 180 724
f 929 820 970
f 210 757 657
f 263 82 944
f 948 319 1146
f 685 338 49
f 531 714 1165
f 760 1049 1160
f 163 1036 699
f 738 414 202
f 835 677 632
f 683 617 932
f 793 435 38
f 80 622 1145
f 673 641 750
f 1109 59 50
f 788 80 558
f 767 1045 437
f 72 818 957
f 739 875 1126
f 26 956 1051
f 851 436 120
f 181 783 595
f 409 158 116
f 1010 891 1106
f 811 1167 930
f 353 910 55
f 1133 1078 613
f 1055 429 1045
f 1085 316 273
f 1016 256 951
f 413 624 101
f 436 96 120
f 713 837 34
f 918 75 925
f 144 1076 41
f 1081 949 586
f 339 519 354
f 22 421 385
f 76 44 845
f 63 1107 1098
f 29 32 1038
f 410 780 1162
f 555 655 464
f 1094 707 508
f 331 456 51
f 587 861 485
f 242 999 179
f 825 76 681
f 785 859 815
f 992 981 108
f 1124 153 533
f 317 618 838
f 156 513 907
f 1183 925 639
f 380 958 287
f 529 1127 842
f 734 139 1031
f 162 667 416
f 569 86 1060
f 1032 544 369
f 58 242 1178
f 1056 990 777
f 34 419 551
f 892 955 1107
f 318 1095 658
f 209 1065 743
f 829 589 956
f 212 539 690
f 724 779 90
f 1131 1102 1073
f 1134 138 1009
f 89 580 674
f 7 10 102
f 84 533 605
f 929 896 337
f 57 1125 380
f 1017 1154 1141
f 24 59 830
f 781 924 594
f 1152 975 232
f 946 749 107
f 225 1046 1023
f 764 156 791
f 1157 1164 554
f 653 770 470
f 556 1028 1047
f 1102 934 1073
f 831 557 489
f 1041 729 458
f 474 233 454
f 766 259 81
f 1065 646 544
f 104 456 673
f 216 678 282
f 562 565 889
f 219 45 54
f 865 755 260
f 125 846 1054
f 722 177 21
f 171 57 651
f 357 262 869
f 977 274 1153
f 62 611 1039
f 1078 34 551
f 1134 1009 1010
f 800 387 1102
f 303 912 549
f 575 722 617
f 718 368 640
f 507 1160 1049
f 344 1150 381
f 222 430 345
f 462 686 877
f 14 1108 255
f 915 200 1041
f 420 504 29
f 902 987 372
f 1146 319 422
f 1112 400 426
f 751 215 850
f 947 1057 694
f 175 407 935
f 219 1117 45
f 713 1133 326
f 492 101 624
f 590 249 634
f 421 233 1106
f 1030 128 443
f 211 913 1005
f 826 1084 771
f 287 748 638
f 277 424 333
f 780 663 1162
f 940 690 844
f 665 1147 978
f 951 256 188
f 473 187 1075
f 1041 200 397
f 464 624 543
f 583 392 1151
f 382 49 199
f 376 340 920
f 326 432 151
f 460 1042 329
f 1039 82 263
f 566 702 230
f 876 415 1170
f 746 900 87
f 685 289 338
f 266 743 629
f 223 537 995
f 939 387 800
f 48 732 976
f 770 974 470
f 1179 358 1084
f 611 356 446
f 1029 669 788
f 473 642 498
f 777 609 1168
f 1007 661 824
f 939 800 283
f 771 522 1157
f 842 819 299
f 520 631 701
f 364 742 608
f 251 830 219
f 53 961 941
f 1151 1159 1071
f 1066 954 478
f 352 1050 158
f 667 235 164
f 432 349 151
f 208 825 399
f 929 970 991
f 468 703 105
f 129 77 795
f 39 546 1120
f 987 1018 472
f 716 202 8
f 224 883 969
f 795 662 997
f 633 116 264
f 63 398 128
f 1029 185 669
f 921 7 1063
f 340 1047 1028
f 864 1163 1097
f 1055 445 467
f 1172 749 946
f 23 79 756
f 1089 580 832
f 1016 656 256
f 1173 921 598
f 650 847 351
f 1130 1011 878
f 1084 358 15
f 619 876 861
f 1124 862 210
f 88 337 896
f 847 339 351
f 462 252 302
f 75 871 831
f 88 809 996
f 402 475 960
f 918 1183 740
f 1124 166 153
f 231 840 238
f 643 924 781
f 910 460 849
f 653 136 770
f 815 1069 292
f 806 279 1122
f 1139 166 973
f 1004 1150 344
f 1152 590 634
f 144 875 1076
f 595 43 648
f 308 112 560
f 465 867 805
f 980 395 493
f 317 268 393
f 1067 238 596
f 1003 1126 860
f 417 119 1119
f 1025 185 1029
f 1108 786 255
f 858 1118 438
f 609 725 608
f 1067 596 171
f 282 678 735
f 63 1098 799
f 348 64 65
f 511 630 411
f 924 324 696
f 336 1156 1082
f 401 892 1107
f 172 139 734
f 951 188 509
f 211 495 517
f 750 641 1125
f 720 250 565
f 992 75 918
f 782 1155 810
f 998 699 1036
f 1171 108 981
f 700 759 575
f 20 906 173
f 1055 467 967
f 97 599 193
f 861 1170 829
f 813 674 1105
f 1149 495 211
f 70 801 792
f 589 545 137
f 813 1105 937
f 445 281 802
f 594 207 131
f 214 689 421
f 807 263 886
f 248 721 625
f 1120 619 1087
f 1030 874 128
f 791 807 943
f 178 266 629
f 585 687 141
f 63 799 398
f 649 1177 391
f 418 865 270
f 167 181 595
f 1150 1022 530
f 282 735 277
f 410 834 814
f 1011 1010 474
f 462 302 686
f 946 568 104
f 611 396 1039
f 264 531 289
f 156 62 253
f 742 562 828
f 793 38 469
f 826 1179 1084
f 135 325 168
f 1059 740 904
f 1121 213 271
f 621 134 493
f 938 821 411
f 911 898 1079
f 1161 863 131
f 637 433 873
f 27 496 1027
f 195 755 1027
f 788 669 622
f 713 942 837
f 1111 327 368
f 69 438 58
f 133 244 335
f 340 1028 427
f 162 1132 518
f 27 950 894
f 668 528 126
f 728 937 221
f 507 1049 963
f 4 683 968
f 435 258 1099
f 402 187 475
f 667 265 235
f 795 872 662
f 105 56 361
f 463 389 619
f 477 110 654
f 459 351 784
f 1007 824 99
f 899 844 812
f 574 265 667
f 209 799 1098
f 836 577 833
f 435 38 350
f 968 932 513
f 169 1087 848
f 1040 1124 533
f 691 42 721
f 843 618 317
f 716 610 202
f 927 518 1132
f 21 446 356
f 173 1180 1115
f 517 1140 852
f 155 494 662
f 990 313 777
f 232 154 7
f 809 896 476
f 720 482 250
f 788 622 80
f 671 314 15
f 464 1018 471
f 820 1165 1171
f 992 108 429
f 478 19 599
f 1178 179 790
f 705 629 735
f 226 564 1122
f 96 679 745
f 247 521 194
f 739 867 869
f 889 168 52
f 92 1090 172
f 475 464 989
f 903 371 247
f 375 805 457
f 304 793 435
f 253 263 807
f 203 964 808
f 952 355 1138
f 980 857 416
f 688 55 903
f 231 682 1048
f 1119 119 1101
f 41 378 778
f 859 9 815
f 82 310 245
f 939 765 197
f 376 920 163
f 766 81 100
f 275 472 543
f 697 203 546
f 522 67 118
f 124 1008 424
f 1058 420 110
f 940 844 899
f 1057 560 1066
f 1142 688 903
f 726 554 679
f 695 988 223
f 965 957 174
f 659 994 1034
f 421 689 385
f 1064 349 486
f 841 660 1006
f 1040 533 84
f 1134 157 1074
f 722 878 177
f 162 854 265
f 227 485 272
f 68 966 1081
f 433 676 1136
f 227 272 285
f 541 767 437
f 459 784 362
f 594 131 537
f 1078 236 613
f 581 145 1088
f 278 727 36
f 612 201 600
f 79 249 130
f 1121 35 151
f 468 105 73
f 169 848 39
f 518 1012 1048
f 114 826 771
f 920 1175 163
f 991 476 896
f 715 855 152
f 1183 1110 904
f 379 1155 782
f 616 181 5
f 152 238 148
f 851 249 79
f 1101 273 540
f 882 37 174
f 457 739 1080
f 270 195 91
f 257 32 655
f 762 495 588
f 123 390 585
f 1131 1143 666
f 707 1129 972
f 500 978 242
f 1013 1071 1159
f 96 147 679
f 1022 856 530
f 638 850 578
f 399 825 681
f 519 506 836
f 548 448 123
f 651 798 1048
f 559 225 330
f 384 17 567
f 925 831 1096
f 507 255 1160
f 524 951 286
f 780 295 663
f 665 980 1147
f 821 359 77
f 1168 159 988
f 1029 1140 517
f 72 60 818
f 812 529 300
f 742 643 439
f 643 562 11
f 701 1120 888
f 690 983 25
f 243 18 370
f 298 943 1127
f 979 638 578
f 711 30 125
f 1153 526 962
f 721 114 403
f 1060 738 610
f 760 908 1130
f 720 565 549
f 57 953 1125
f 616 761 783
f 952 324 741
f 380 1125 122
f 9 73 451
f 556 283 666
f 728 1141 937
f 609 608 1168
f 1033 1148 846
f 534 615 1002
f 31 572 646
f 962 526 785
f 868 142 140
f 452 1058 161
f 141 109 1046
f 127 478 28
f 430 488 984
f 923 368 718
f 122 976 115
f 1084 15 522
f 708 898 911
f 1125 953 736
f 667 164 1181
f 1033 299 69
f 652 133 870
f 1128 740 1059
f 952 882 355
f 798 979 505
f 319 525 422
f 300 306 895
f 1160 255 786
f 541 437 1021
f 968 513 1037
f 1168 988 695
f 39 697 546
f 994 1005 913
f 464 492 624
f 1049 759 963
f 342 408 64
f 534 1100 501
f 193 599 101
f 743 1065 1032
f 78 890 616
f 1041 1013 729
f 19 101 599
f 359 618 843
f 104 51 456
f 135 1111 325
f 753 763 190
f 360 897 1002
f 1015 1146 239
f 38 484 375
f 767 1092 445
f 839 262 61
f 245 483 493
f 1027 894 950
f 382 658 49
f 435 350 258
f 540 321 504
f 69 58 1178
f 263 944 886
f 733 312 856
f 621 857 134
f 856 192 628
f 1147 78 346
f 1042 960 902
f 1121 151 1064
f 792 4 1001
f 138 107 749
f 481 744 577
f 14 963 142
f 240 168 591
f 367 581 647
f 30 1033 846
f 1183 639 1110
f 642 141 559
f 207 1138 355
f 434 1162 178
f 935 645 660
f 277 550 424
f 1180 471 1115
f 713 1078 1133
f 129 997 176
f 377 1035 316
f 830 1072 1117
f 397 1071 1013
f 643 828 562
f 847 1062 339
f 117 230 436
f 219 54 775
f 410 814 434
f 723 364 725
f 163 699 765
f 452 1101 1058
f 286 184 476
f 527 705 678
f 757 862 1154
f 89 1031 994
f 958 99 748
f 211 517 913
f 603 847 650
f 692 1123 244
f 799 743 246
f 57 287 798
f 758 366 407
f 719 127 28
f 1130 908 1011
f 570 890 78
f 445 802 467
f 819 858 438
f 1147 346 2
f 1093 203 808
f 340 427 532
f 146 973 386
f 521 560 1057
f 210 657 386
f 568 107 709
f 804 1083 645
f 795 77 126
f 1000 505 455
f 742 159 608
f 206 10 374
f 378 1182 778
f 515 183 993
f 1067 651 682
f 859 1136 9
f 978 2 999
f 711 895 30
f 389 876 619
f 285 365 145
f 1104 331 51
f 89 994 659
f 739 869 875
f 1062 628 519
f 170 923 718
f 44 90 121
f 544 646 74
f 45 914 54
f 489 569 627
f 264 384 531
f 841 1006 262
f 1086 626 512
f 91 496 27
f 99 602 440
f 410 237 780
f 479 139 708
f 565 205 889
f 643 11 924
f 509 487 48
f 518 505 1000
f 756 1152 959
f 237 398 295
f 812 300 763
f 188 487 509
f 297 693 238
f 845 883 671
f 165 663 295
f 717 106 816
f 55 910 849
f 600 814 427
f 4 968 1001
f 664 694 321
f 214 421 1106
f 412 68 1081
f 518 265 854
f 556 620 1028
f 941 459 86
f 565 482 205
f 814 255 427
f 677 1060 917
f 779 885 90
f 764 983 1037
f 223 995 1072
f 422 525 787
f 541 1092 767
f 750 1125 736
f 453 64 571
f 511 832 630
f 91 195 1027
f 932 132 907
f 1076 875 869
f 465 887 315
f 327 752 368
f 835 627 677
f 1098 182 1053
f 447 700 683
f 453 731 582
f 478 599 28
f 1108 410 786
f 92 734 89
f 1052 254 716
f 526 859 785
f 168 325 591
f 71 801 349
f 649 166 1139
f 105 361 73
f 1167 228 402
f 640 752 906
f 86 459 414
f 635 806 621
f 1166 662 494
f 790 179 688
f 1092 281 445
f 912 720 549
f 1050 775 158
f 527 678 216
f 247 371 521
f 92 674 538
f 36 150 726
f 688 353 55
f 252 810 352
f 403 1157 490
f 572 1024 646
f 72 640 60
f 282 277 1074
f 485 26 272
f 486 70 212
f 633 264 685
f 977 647 274
f 839 869 262
f 752 933 906
f 1077 275 480
f 613 341 604
# 2376 faces, 0 coords texture

# End of File