####
#
# OBJ File Generated by Meshlab
#
####
# Object domain0538.obj
#
# Vertices: 826
# Faces: 1648
#
####
v 62.218662 45.707375 124.078148
v 62.408115 45.708019 123.869072
v 62.276581 45.517750 124.058235
v 62.280457 45.520718 124.940224
v 62.219063 45.708626 124.921349
v 62.404915 45.708485 125.103241
v 62.279766 45.895660 124.058716
v 62.276337 45.898296 124.941200
v 62.509224 45.217041 124.043358
v 62.821938 45.237183 123.723869
v 62.795586 44.926140 124.042587
v 62.799564 44.929897 124.952644
v 62.516792 45.223766 124.948730
v 62.843288 45.256802 125.219894
v 62.814907 45.711227 123.523407
v 62.765343 45.705196 125.299850
v 62.510666 46.197269 124.043297
v 62.805183 46.201511 123.693527
v 62.513950 46.194935 124.950287
v 62.847980 46.156387 125.218620
v 62.783089 46.507404 124.034821
v 62.794060 46.494942 124.954613
v 63.103405 44.686092 124.050964
v 63.381420 44.756310 123.780464
v 63.381218 44.575607 124.073929
v 63.381397 44.577888 124.923759
v 63.103889 44.687344 124.946541
v 63.391117 44.765221 125.173965
v 63.296844 45.148098 123.459442
v 63.310204 45.158234 125.356819
v 63.189724 45.722721 123.152679
v 63.538033 45.775444 122.919334
v 63.357632 45.536736 123.111992
v 63.293877 45.710846 125.425781
v 63.329037 45.985229 123.047890
v 63.190483 46.343636 123.340660
v 63.313000 46.269035 125.377457
v 63.066059 46.809471 124.020416
v 63.350288 46.813671 123.558273
v 63.086117 46.788799 124.954704
v 63.426426 46.739265 125.227409
v 63.348545 47.114113 124.017822
v 63.384647 47.072365 124.951118
v 63.795166 44.742973 123.756966
v 63.785583 44.566845 124.071701
v 63.785183 44.570709 124.924942
v 63.780209 44.762714 125.182861
v 63.871964 45.078762 123.408272
v 63.861122 45.152306 125.368103
v 63.901390 45.841488 122.790955
v 63.880402 45.455032 123.045311
v 63.874706 45.708294 125.472420
v 63.535995 46.312458 122.990334
v 63.962521 46.254604 122.742203
v 63.873844 46.294140 125.455948
v 63.691143 46.826904 123.079056
v 64.065475 46.775589 122.795143
v 63.900665 46.849304 125.363838
v 63.929943 47.127903 123.048065
v 63.636536 47.409214 124.011391
v 63.903507 47.436451 123.516281
v 63.682648 47.336117 124.946556
v 63.987514 47.258923 125.198059
v 63.946072 47.691002 124.027306
v 63.977306 47.528717 124.933693
v 64.098228 44.657661 124.037476
v 64.093300 44.664471 124.955734
v 64.427315 45.107758 123.517448
v 64.462334 44.829887 124.014137
v 64.446442 44.854733 124.959541
v 64.406837 45.211792 125.277794
v 64.447845 45.856316 122.760300
v 64.453049 45.478443 123.053436
v 64.457855 45.716740 125.433586
v 64.473389 46.307804 122.633659
v 64.459984 46.294003 125.483459
v 64.490349 46.854462 122.637459
v 64.461960 46.871799 125.434990
v 64.201111 47.434277 123.035515
v 64.590614 47.338161 122.761162
v 64.508652 47.384377 125.285431
v 64.497147 47.720215 123.037666
v 64.256355 47.938019 123.998672
v 64.510452 47.990726 123.522888
v 64.491844 47.995052 124.485214
v 64.445892 47.783833 124.975151
v 64.566864 48.127544 124.003746
v 64.977066 45.275780 123.585777
v 64.949478 45.060738 124.046028
v 64.935242 45.088871 124.932747
v 64.931564 45.332764 125.194565
v 64.949921 45.905785 122.794067
v 64.986755 45.569557 123.103897
v 65.019386 45.738651 125.363991
v 65.032387 46.320625 122.621704
v 65.046074 46.293884 125.455788
v 65.047615 46.880421 122.567375
v 65.044624 46.879642 125.467728
v 65.069199 47.444092 122.601585
v 65.060059 47.439690 125.382500
v 64.796234 48.003883 123.040474
v 65.178474 47.932152 122.728142
v 64.785759 47.982700 124.958992
v 65.143227 47.844982 125.203079
v 65.101501 48.276520 123.057053
v 65.035866 48.410908 124.012833
v 65.118408 48.120056 124.913673
v 65.251350 45.236294 124.027565
v 65.232964 45.261959 124.948097
v 65.308205 45.763042 123.039185
v 65.621605 45.719803 123.505463
v 65.569534 45.481129 124.014191
v 65.535873 45.515003 124.951454
v 65.492683 45.847370 125.228233
v 65.581810 46.374916 122.712051
v 65.653992 45.966877 123.017586
v 65.601357 46.320610 125.364075
v 65.631783 46.885597 122.536812
v 65.622612 46.881779 125.428192
v 65.618637 47.461876 122.448067
v 65.629074 47.448917 125.394478
v 65.634956 48.022881 122.420113
v 65.632980 47.895206 125.233315
v 65.402840 48.572811 123.021042
v 65.719971 48.554733 122.581139
v 65.366409 48.611168 123.986420
v 65.699043 48.575756 124.435265
v 65.623711 48.265949 124.908371
v 65.696007 48.869122 123.019821
v 65.696335 48.862476 123.979309
v 65.885040 45.750175 124.009674
v 65.826851 45.802956 124.951591
v 66.124519 46.495148 122.776840
v 66.127884 46.218189 123.065582
v 66.187859 46.022919 123.988579
v 66.091019 46.099739 124.948486
v 66.013336 46.408974 125.198563
v 66.210365 46.894695 122.515503
v 66.131386 46.926582 125.279083
v 66.119690 47.360413 122.281036
v 66.162834 47.450718 125.309746
v 66.039688 48.091934 122.093269
v 66.419250 48.146244 121.809097
v 66.244591 47.778542 122.035095
v 66.112350 47.859779 125.194382
v 66.064667 48.589951 122.105240
v 66.422058 48.551201 121.804871
v 66.176865 48.238232 124.915665
v 66.242119 48.627678 124.577698
v 66.267494 48.901707 122.038231
v 65.978546 49.168591 123.010132
v 66.232445 49.212044 122.506241
v 66.023224 49.095043 123.949867
v 66.313721 49.014767 124.236320
v 66.293671 49.453262 123.032669
v 66.320335 49.260201 123.926598
v 66.447777 46.393925 123.038475
v 66.514236 46.305031 124.017792
v 66.292007 46.388008 124.931953
v 66.734413 46.923820 122.532982
v 66.803642 46.594307 123.019836
v 66.821396 46.549866 123.999313
v 66.845039 46.856552 124.536697
v 66.555634 46.846851 124.981514
v 66.532837 47.497871 122.041115
v 66.898537 47.670815 121.811798
v 66.850143 47.315506 122.111374
v 66.741455 47.200150 124.946907
v 66.537590 47.460434 125.124733
v 66.836716 48.084713 121.664017
v 66.489563 48.024895 124.963455
v 66.754822 47.732338 124.938957
v 66.905617 48.144459 124.708466
v 66.831116 48.627106 121.612312
v 66.808746 48.637917 124.517776
v 66.473473 49.246502 122.018097
v 66.878120 49.178818 121.670074
v 66.814285 49.083782 124.265266
v 66.737709 49.708611 122.061630
v 66.991600 49.718945 121.740623
v 66.579910 49.729099 122.963737
v 66.874504 49.741802 123.435837
v 66.797760 49.447487 123.913681
v 66.929016 50.006466 122.048355
v 66.889282 50.015213 122.975746
v 67.312981 47.053978 122.597115
v 67.287346 46.829430 123.048576
v 67.259590 46.848473 123.938583
v 67.226234 47.030582 124.254349
v 67.302368 47.673183 121.806618
v 67.334656 47.346531 122.118134
v 66.900047 47.465557 124.851730
v 67.305199 47.517075 124.453697
v 67.379150 48.079182 121.612312
v 67.372108 48.060013 124.477020
v 67.387512 48.635616 121.468864
v 67.375504 48.625156 124.407532
v 67.361198 49.193245 121.378098
v 67.377159 49.083824 124.249184
v 67.356895 49.803692 121.418068
v 67.388351 49.474304 123.954102
v 67.390884 49.846264 123.589813
v 67.187149 50.308704 122.025475
v 67.474579 50.315819 121.574791
v 67.193932 50.270702 122.951424
v 67.480774 50.208298 123.259308
v 67.477303 50.607071 122.035469
v 67.491615 50.461899 122.938332
v 67.585426 47.013802 123.040337
v 67.433144 47.011974 123.931107
v 67.650513 47.526188 122.042366
v 67.956100 47.489155 122.509102
v 67.883797 47.265354 123.000412
v 67.957092 47.481419 123.492737
v 67.723091 47.443222 123.994064
v 67.929214 48.125534 121.667427
v 67.999619 47.724384 122.016960
v 67.932503 47.784702 123.967316
v 67.784187 48.137108 124.225418
v 67.943909 48.608143 121.378136
v 67.826294 48.636429 124.236107
v 67.791618 49.277325 121.091072
v 68.149788 49.396149 120.840851
v 68.030083 49.037220 121.090134
v 67.802521 49.051498 124.159149
v 67.737381 49.808788 121.057068
v 68.126495 49.811489 120.765442
v 67.923241 49.410080 123.911240
v 68.005959 49.839897 123.623062
v 67.814400 50.342995 121.096512
v 68.171738 50.294476 120.795731
v 68.021088 50.321819 123.329597
v 68.042244 50.635296 121.055496
v 67.774963 50.865376 121.998634
v 68.030495 50.917244 121.524948
v 68.008308 50.924484 122.485023
v 67.960358 50.716194 122.977913
v 68.082878 51.057556 122.003769
v 68.196815 47.542690 123.002258
v 68.468422 48.236656 121.741180
v 68.464378 47.985195 122.064323
v 68.480759 47.830189 122.967377
v 68.141296 48.099682 123.908356
v 68.479874 48.134365 123.426369
v 68.554642 48.597672 121.410889
v 68.217079 48.635723 123.944221
v 68.607384 48.645821 123.592697
v 68.574593 49.363953 120.749741
v 68.570328 48.970127 121.046097
v 68.165077 49.171310 123.912056
v 68.606056 49.254177 123.641876
v 68.579391 49.822174 120.608452
v 68.562767 49.818886 123.546242
v 68.595978 50.374836 120.590439
v 68.573486 50.371025 123.394974
v 68.316040 50.931313 121.043167
v 68.681900 50.873821 120.711464
v 68.301750 50.912693 122.958992
v 68.658867 50.774651 123.203140
v 68.616913 51.206944 121.056061
v 68.551857 51.340912 122.012848
v 68.634384 51.049915 122.913605
v 68.761421 48.176144 122.043282
v 68.776054 48.129723 122.974083
v 69.081894 48.697819 121.553734
v 69.073990 48.424290 122.023148
v 69.062531 48.427582 122.962349
v 69.024300 48.752205 123.283638
v 69.137352 49.363808 120.736259
v 69.158737 48.999718 121.079758
v 69.114128 49.245571 123.410805
v 69.150536 49.814617 120.507378
v 69.135590 49.810436 123.432854
v 69.109299 50.369068 120.364838
v 69.134407 50.379505 123.378708
v 69.097984 50.984245 120.396629
v 69.146873 50.822189 123.224045
v 68.903297 51.518257 121.015831
v 69.192039 51.509068 120.554222
v 68.883293 51.540718 121.985107
v 69.215736 51.505127 122.434540
v 69.139542 51.192368 122.904961
v 69.169662 51.837898 121.013893
v 69.205154 51.803768 121.980827
v 69.391327 48.692238 122.015465
v 69.345322 48.730717 122.955589
v 69.636734 49.431183 120.763474
v 69.636345 49.181641 121.075905
v 69.689110 48.966217 121.986572
v 69.602509 49.031494 122.947655
v 69.522926 49.334137 123.197792
v 69.698257 49.826416 120.432854
v 69.588310 49.822735 123.248322
v 69.545197 50.447311 120.086205
v 69.906670 50.569626 119.840965
v 69.798271 50.221355 120.111198
v 69.594185 50.383541 123.250572
v 69.480003 50.983612 120.042877
v 69.862007 50.995201 119.721588
v 69.561501 50.808289 123.158295
v 69.472343 51.586441 120.058792
v 69.830696 51.570694 119.642143
v 69.675903 51.152370 122.894051
v 69.760445 51.543991 122.566566
v 69.589462 52.138523 120.050110
v 69.849152 52.131290 119.544670
v 69.374016 52.163727 120.980118
v 69.529884 52.066265 121.927208
v 69.828178 51.950611 122.235687
v 69.715279 52.641563 120.049713
v 69.903984 52.671383 119.589668
v 69.681328 52.604477 120.958611
v 69.825165 52.568306 121.409790
v 69.806892 52.278194 121.886238
v 69.866074 52.938114 120.036621
v 69.854942 52.799507 120.949371
v 69.933090 49.350475 121.045853
v 69.991653 49.269161 122.013168
v 69.773781 49.322586 122.921150
v 70.246384 49.882477 120.560242
v 70.247040 49.594788 121.023979
v 70.266830 49.565693 121.984558
v 70.260223 49.876102 122.446274
v 69.958717 49.799389 122.920334
v 70.321030 50.549549 119.755836
v 70.337746 50.189560 120.093361
v 69.987869 50.387657 122.953880
v 70.360115 50.403358 122.588882
v 70.323181 50.994110 119.521072
v 69.920883 50.928135 122.910240
v 70.336960 51.010509 122.603302
v 70.240906 51.481274 119.320610
v 70.306374 51.554237 122.452980
v 70.175316 52.202492 119.110069
v 70.524246 52.248436 118.810890
v 70.355309 51.885311 119.044098
v 70.318207 52.002174 122.243492
v 70.177376 52.694313 119.106689
v 70.520592 52.663589 118.786163
v 70.325073 52.366905 121.928741
v 70.350311 52.748573 121.472916
v 70.367455 53.005917 119.035271
v 70.115089 53.235153 119.997910
v 70.343826 53.306496 119.509018
v 70.341370 53.300423 120.490944
v 70.291580 53.083393 121.003769
v 70.421410 53.517319 119.999229
v 70.563644 49.863895 121.015747
v 70.535805 49.882416 121.976486
v 70.809090 50.603672 119.763786
v 70.808098 50.356243 120.076889
v 70.860451 50.138653 120.986626
v 70.780792 50.196148 121.955193
v 70.713272 50.486992 122.253365
v 70.874374 50.991005 119.430496
v 70.769806 50.992802 122.296692
v 70.633331 51.594501 119.034836
v 71.006134 51.758205 118.793602
v 70.953636 51.376667 119.087936
v 70.770149 51.556000 122.265022
v 70.935585 52.180325 118.624496
v 70.733536 51.979809 122.158279
v 70.923553 52.734890 118.523193
v 70.849190 52.329311 121.899239
v 70.932632 52.733109 121.580276
v 70.560326 53.358276 119.000000
v 70.938850 53.266602 118.525871
v 70.639420 53.277489 120.967949
v 70.988449 53.138165 121.253044
v 70.822166 53.816807 119.041283
v 71.059303 53.844296 118.583832
v 70.711441 53.785717 119.950447
v 70.975067 53.756336 120.413849
v 70.965370 53.464642 120.896721
v 71.020821 54.117249 119.041817
v 71.003128 53.991161 119.953568
v 71.105087 50.522472 120.045853
v 71.163643 50.441158 121.013176
v 70.949799 50.493069 121.925461
v 71.418968 51.053406 119.559914
v 71.419060 50.766808 120.023941
v 71.438850 50.737701 120.984589
v 71.432220 51.048100 121.446266
v 71.133224 50.970722 121.923477
v 71.491280 51.715664 118.745506
v 71.509148 51.359650 119.092072
v 71.159737 51.559387 121.954132
v 71.532120 51.575363 121.588882
v 71.489914 52.157677 118.490822
v 71.092529 52.099812 121.909622
v 71.509758 52.182293 121.603821
v 71.387451 52.644135 118.285561
v 71.478539 52.727348 121.456139
v 71.334541 53.371433 118.103653
v 71.696091 53.420547 117.811157
v 71.522896 53.054443 118.040024
v 71.489578 53.175449 121.245369
v 71.348198 53.866009 118.107300
v 71.695656 53.824593 117.804901
v 71.496872 53.539646 120.929367
v 71.523186 53.925919 120.475182
v 71.542015 54.175652 118.038078
v 71.287056 54.407558 118.998367
v 71.515327 54.479233 118.509201
v 71.505638 54.485214 119.495766
v 71.453568 54.269932 120.009850
v 71.579971 54.704926 118.999458
v 71.735680 51.035912 120.015778
v 71.707809 51.054420 120.976479
v 71.979668 51.775871 118.765877
v 71.980110 51.528225 119.076935
v 72.032478 51.310669 119.986610
v 71.952789 51.368145 120.955185
v 71.885269 51.658958 121.253403
v 72.043961 52.167164 118.435844
v 71.941177 52.164547 121.296509
v 71.804939 52.766987 118.036476
v 72.172119 52.941818 117.809494
v 72.121193 52.564236 118.100319
v 71.938141 52.727486 121.260895
v 72.110161 53.359177 117.666656
v 71.905464 53.151737 121.158157
v 72.106804 53.899418 117.629585
v 72.021156 53.501526 120.899361
v 72.106667 53.911091 120.588715
v 71.751076 54.517960 118.021416
v 72.155548 54.453018 117.700249
v 71.796539 54.482536 119.986755
v 72.186539 54.372383 120.284401
v 72.005753 54.988060 118.060295
v 72.272919 54.993923 117.747475
v 71.848755 55.014763 118.967827
v 72.104935 55.059509 119.485809
v 72.111786 54.754650 119.965492
v 72.175987 55.314007 118.037971
v 72.116478 55.344948 118.993240
v 72.275566 51.695328 119.047142
v 72.324265 51.620647 120.010857
v 72.121063 51.665169 120.925209
v 72.568230 52.254639 118.589485
v 72.577164 51.951168 119.031708
v 72.575874 51.925190 119.980598
v 72.548676 52.206795 120.440147
v 72.293961 52.144882 120.921036
v 72.567528 52.948933 117.815262
v 72.606827 52.612011 118.117142
v 72.308029 52.733089 120.944939
v 72.687454 52.771915 120.490196
v 72.639000 53.358765 117.645523
v 72.258026 53.266087 120.899277
v 72.658531 53.358490 120.580566
v 72.664932 53.915359 117.551613
v 72.648804 53.911015 120.465622
v 72.662186 54.497742 117.488747
v 72.675308 54.462688 120.339035
v 72.671013 55.056767 117.417641
v 72.423996 55.014278 119.942139
v 72.760857 54.870785 120.173592
v 72.369965 55.671242 118.014175
v 72.653702 55.641994 117.522209
v 72.357300 55.675968 118.985786
v 72.707405 55.649654 119.461395
v 72.715118 55.231979 119.881248
v 72.595634 56.162025 118.041672
v 72.791664 56.204441 117.563766
v 72.621460 56.149727 118.937706
v 72.850380 56.139179 119.234718
v 72.769135 56.473053 118.022316
v 72.806549 56.437092 118.947983
v 72.878700 52.241352 119.038292
v 72.763016 52.233494 119.955612
v 72.902069 52.814281 118.059761
v 73.207504 52.784393 118.522141
v 73.160439 52.532856 119.001320
v 73.228729 52.756638 119.492180
v 73.014153 52.701096 120.010269
v 73.122940 53.456654 117.757317
v 73.208069 53.076672 118.042297
v 73.209549 53.056267 119.972435
v 73.067215 53.408428 120.256721
v 73.229301 53.939625 117.574326
v 73.112595 53.921944 120.266830
v 73.221039 54.457588 117.365250
v 73.106133 54.483540 120.234161
v 73.072418 55.140308 117.098190
v 73.422829 55.257759 116.841545
v 73.302773 54.895157 117.088303
v 73.085739 54.899048 120.142120
v 73.020668 55.670967 117.058739
v 73.393539 55.683369 116.753525
v 73.196648 55.254513 119.892647
v 73.278107 55.695572 119.616608
v 73.042305 56.260429 117.085968
v 73.385841 56.248680 116.730698
v 73.276718 56.217232 119.396072
v 73.196945 56.746826 117.065109
v 73.415520 56.716957 116.724556
v 73.000031 56.795856 117.984444
v 73.066002 56.708172 118.941200
v 73.362595 56.636578 119.202660
v 73.372101 57.106113 116.975304
v 73.258881 57.139618 118.023216
v 73.348175 56.916019 118.935684
v 73.293930 59.864452 109.076714
v 73.478294 59.875729 108.830650
v 73.399696 59.588501 109.057220
v 73.334839 59.523285 109.982956
v 73.253456 59.852428 109.949181
v 73.386459 59.808331 110.438293
v 73.304108 60.232243 109.075401
v 73.460243 60.179878 108.861641
v 73.285103 60.238998 109.944160
v 73.437141 60.262451 110.405716
v 73.401558 60.367378 109.072311
v 73.397362 60.407108 109.964317
v 73.446396 52.835365 119.003914
v 73.501053 53.368217 118.039528
v 73.760559 53.377232 118.524086
v 73.697815 53.145100 118.992180
v 73.407722 53.376087 119.907379
v 73.687859 53.396614 119.420609
v 73.724922 54.028507 117.712311
v 73.798393 53.658081 118.040680
v 73.483749 53.917301 119.950089
v 73.851242 53.945244 119.482773
v 73.827103 54.454746 117.409737
v 73.507622 54.492699 119.961060
v 73.889694 54.500698 119.602867
v 73.837341 55.234268 116.764648
v 73.837227 54.846268 117.058731
v 73.434181 55.027790 119.905609
v 73.867661 55.116138 119.624535
v 73.847862 55.687405 116.606285
v 73.844528 55.669704 119.541847
v 73.828682 56.258896 116.481125
v 73.837120 56.247070 119.443932
v 73.706711 56.800110 116.349747
v 73.884132 56.760597 119.283325
v 73.797623 57.531788 114.030968
v 73.901985 57.473377 113.521027
v 73.950096 57.225170 114.020927
v 73.915367 57.192169 115.004005
v 73.772202 57.512981 115.003998
v 73.841156 57.127007 115.993523
v 73.740410 57.475983 116.059784
v 73.483719 57.454189 117.006111
v 73.501648 57.446369 117.996605
v 73.811523 57.474728 118.543312
v 73.800491 57.188587 118.985023
v 73.785858 58.116062 112.031639
v 73.910156 58.067493 111.525803
v 73.947777 57.809132 112.022919
v 73.877007 57.738415 113.003029
v 73.757294 58.084431 113.027580
v 73.699364 58.019398 114.008621
v 73.708534 58.008770 114.990517
v 73.771744 57.946983 115.977341
v 73.723366 57.930462 116.990540
v 73.797188 57.888191 117.934944
v 73.985413 57.837914 118.242691
v 73.781784 58.735077 110.044090
v 73.928947 58.781452 109.594543
v 73.957779 58.562244 110.062614
v 73.906235 58.341862 110.990623
v 73.729851 58.668575 111.024773
v 73.672325 58.617683 112.008476
v 73.689552 58.594837 112.990349
v 73.758369 58.529270 113.971611
v 73.796867 58.496681 114.967346
v 73.912453 58.546230 115.475182
v 73.887199 58.285080 115.998802
v 73.922485 58.246220 117.007988
v 73.968079 58.059299 117.931122
v 73.646141 59.283981 109.081055
v 73.947296 59.390881 108.810959
v 73.908897 59.064163 109.115784
v 73.484947 59.180485 110.021538
v 73.587669 59.193985 110.999016
v 73.664299 59.167610 111.986229
v 73.782791 59.096840 112.947906
v 73.903831 59.141312 113.475937
v 73.876945 58.875824 113.997147
v 73.950394 58.802917 114.977119
v 73.871574 59.790108 108.676109
v 73.541664 59.742050 110.981895
v 73.790527 59.666252 111.929924
v 73.924011 59.698135 112.468307
v 73.913956 59.427979 112.971756
v 73.896744 60.266392 108.740128
v 73.712616 60.247517 110.926743
v 73.924171 60.184433 111.404442
v 73.944420 59.900295 111.936012
v 73.851173 60.624840 109.041382
v 73.829605 60.703945 110.004402
v 73.924095 60.423077 110.922958
v 73.872955 53.440819 118.984177
v 74.056335 53.969391 118.050362
v 74.115402 53.918098 118.985352
v 74.330414 54.587376 117.583069
v 74.345169 54.280586 118.029366
v 74.316681 54.271767 118.964668
v 74.243843 54.584953 119.267212
v 74.319229 55.282539 116.797340
v 74.361504 54.941746 117.105988
v 74.348503 55.130608 119.332413
v 74.401085 55.703384 116.587791
v 74.397659 55.682178 119.398788
v 74.386993 56.196213 116.334885
v 74.407272 56.255924 119.404030
v 74.226204 56.969627 114.031746
v 74.481941 56.993774 113.577515
v 74.516762 56.827888 114.054436
v 74.502869 56.758896 115.007202
v 74.183731 56.917053 115.004631
v 74.441933 56.568970 115.974197
v 74.097946 56.808098 115.982666
v 74.422104 56.810947 119.342812
v 74.221710 57.548832 112.034088
v 74.486961 57.590076 111.586502
v 74.513672 57.402191 112.058960
v 74.470406 57.233505 113.014816
v 74.140358 57.445164 113.005684
v 74.151566 57.383526 118.962013
v 74.509201 57.217361 119.182030
v 74.169060 58.065277 111.029266
v 74.466148 58.132248 110.563950
v 74.475807 57.854298 111.076492
v 74.495064 57.570007 118.855766
v 74.442955 57.945915 118.309265
v 74.427025 58.667789 109.541977
v 74.414597 58.367039 110.052620
v 74.137215 58.584499 115.999733
v 74.203438 58.502186 116.980103
v 74.452835 58.543827 117.484192
v 74.409195 58.333073 117.982094
v 74.421471 59.338577 108.760696
v 74.423637 58.985668 109.073891
v 74.137970 59.169743 113.999031
v 74.223358 59.063717 114.964615
v 74.489479 59.021542 115.415421
v 74.468094 58.797565 115.985725
v 74.515839 58.662361 116.966805
v 74.422905 59.787392 108.613533
v 74.182228 59.688599 112.959801
v 74.483429 59.615093 113.417870
v 74.469101 59.380505 113.984100
v 74.514359 59.210358 114.940254
v 74.435249 60.327862 108.637383
v 74.430344 60.084724 112.005173
v 74.426094 60.324898 111.483086
v 74.493240 59.826920 112.924156
v 74.200912 60.817966 109.044724
v 74.515884 60.716846 108.817734
v 74.174812 60.858707 109.983566
v 74.465561 60.800835 110.431534
v 74.415688 60.590481 110.951591
v 74.510658 60.910397 109.075417
v 74.503395 60.947540 109.949020
v 74.628258 54.590870 118.037888
v 74.495644 54.589317 118.937775
v 74.658775 55.158512 117.057953
v 74.933960 55.137043 117.525383
v 74.887398 54.887486 118.001663
v 74.948936 55.118137 118.484215
v 74.739059 55.066639 118.978249
v 74.901733 55.784531 116.705940
v 74.966461 55.421383 117.043945
v 74.930984 55.412552 118.956284
v 74.801353 55.768570 119.204208
v 75.006264 56.177845 116.372131
v 74.861099 56.268608 119.246986
v 75.006889 56.926178 113.534569
v 75.008141 56.764568 114.047302
v 75.009140 56.663872 115.010933
v 75.008293 56.463684 115.970955
v 74.857056 56.826260 119.227715
v 75.006676 57.527054 111.548439
v 75.008110 57.334053 112.051979
v 75.007980 57.135750 112.996834
v 74.825523 57.226353 119.136971
v 75.006004 58.073441 110.532921
v 75.006836 57.793964 111.041916
v 74.876411 57.991474 118.142036
v 75.089104 57.803867 118.091385
v 75.265526 57.967796 117.922363
v 74.885139 57.440308 118.907631
v 75.013298 58.702847 109.543716
v 75.001923 58.370014 110.038147
v 74.748909 58.514709 117.943634
v 75.041214 58.233875 118.041367
v 75.027687 58.457893 118.009224
v 74.903671 59.383366 108.801559
v 74.954689 59.031620 109.102997
v 75.008369 58.897038 116.007156
v 75.008629 59.104622 115.466446
v 75.012604 58.744560 116.983551
v 75.078079 58.596378 117.898514
v 74.973083 59.802071 108.658791
v 75.008286 59.478363 114.003136
v 75.008385 59.689522 113.465569
v 75.007965 59.282345 114.949188
v 74.973152 60.324215 108.670364
v 75.006554 60.109695 112.013763
v 75.004257 60.333599 111.488564
v 75.007111 59.878071 112.949806
v 74.903870 60.714882 108.826195
v 75.015419 60.586010 110.946854
v 74.963661 60.799747 110.433846
v 74.914711 60.903206 109.076721
v 74.920975 60.931919 109.948616
v 75.083008 55.193340 118.002113
v 75.233078 55.725544 117.047386
v 75.355667 55.666313 118.006676
v 75.075256 55.743618 118.913094
v 75.531654 56.300999 116.549179
v 75.527237 56.028816 117.027809
v 75.522758 56.006031 117.984787
v 75.461052 56.297451 118.433716
v 75.215096 56.251945 118.919029
v 75.526642 57.006260 113.584244
v 75.499451 56.827763 114.056259
v 75.528481 56.741875 115.023544
v 75.599487 56.536221 116.009789
v 75.205811 56.843704 118.912270
v 75.464836 56.800980 118.429565
v 75.512711 57.612225 111.601074
v 75.501076 57.405987 112.061279
v 75.546402 57.234444 113.016319
v 75.360626 57.468647 118.054031
v 75.590157 57.134209 117.996407
v 75.703461 57.523026 117.710648
v 75.031334 57.297485 118.912483
v 75.515625 58.169022 110.590836
v 75.514732 57.883503 111.093208
v 75.628616 57.940388 117.678070
v 75.443359 58.755333 109.747604
v 75.495895 58.468079 110.113258
v 75.562653 58.399597 117.832985
v 75.372223 58.568466 117.964439
v 75.253304 59.245647 109.058228
v 75.565796 59.172337 109.494949
v 75.546883 58.798649 115.987930
v 75.534279 59.035599 115.423050
v 75.500259 58.655823 116.990181
v 75.481140 58.602989 117.934731
v 75.368332 59.870083 108.823097
v 75.506020 59.528736 109.066643
v 75.545403 59.380020 113.984634
v 75.534004 59.621170 113.422760
v 75.501907 59.211048 114.940796
v 75.365578 60.254120 108.825272
v 75.547676 59.968117 111.983788
v 75.512299 60.206371 111.423515
v 75.501945 59.796833 112.939270
v 75.438835 60.535450 109.057915
v 75.185051 60.788158 109.056992
v 75.214249 60.819599 109.975533
v 75.486069 60.576889 110.011398
v 75.474648 60.396614 110.937630
v 75.809738 56.347897 117.035217
v 75.655762 56.335342 117.943260
v 75.790810 56.967911 114.034706
v 75.866196 56.885540 115.003578
v 76.097878 56.923439 115.524269
v 76.050446 56.789410 116.038643
v 76.042160 56.639393 116.960663
v 75.987358 56.911007 117.422966
v 75.745880 56.776104 117.889687
v 75.790131 57.552986 112.036606
v 75.879166 57.443146 113.000366
v 76.114983 57.474983 113.521896
v 76.068024 57.224178 114.022430
v 76.135429 57.156807 115.004166
v 76.041054 57.416576 117.323013
v 75.754250 58.100449 111.056305
v 76.023201 58.091125 111.585861
v 76.051765 57.819347 112.035797
v 76.143188 57.736553 113.003288
v 75.923904 57.994064 117.297073
v 75.650200 58.693371 110.091103
v 75.997612 58.568878 110.967537
v 76.187828 58.585266 111.479256
v 75.877281 58.584442 115.995461
v 76.143951 58.291634 115.996696
v 76.121246 58.559002 115.480919
v 75.784439 58.480614 117.023682
v 76.040115 58.207577 116.952415
v 75.531357 58.561138 117.907082
v 75.824181 59.223392 110.035225
v 76.007591 59.185249 110.585800
v 76.127190 58.903942 111.017769
v 75.877098 59.170151 113.995277
v 76.144135 58.877785 113.996964
v 76.120796 59.144642 113.480820
v 75.794106 59.064396 114.966782
v 76.070587 58.805645 114.977585
v 75.593163 59.838913 109.106155
v 75.797882 59.763016 110.018051
v 76.089180 59.438744 111.018211
v 75.943352 59.776299 110.983116
v 75.844421 59.739807 111.976814
v 76.093552 59.423000 111.994888
v 75.792656 59.648811 112.968140
v 76.066757 59.388802 112.979210
v 75.562630 60.265888 109.080002
v 75.663574 60.268379 110.002258
v 75.655113 60.223129 110.964645
v 76.193245 56.974327 116.031059
v 76.174316 56.941513 116.942719
v 76.223083 57.530186 114.031189
v 76.266083 57.496399 115.025314
v 76.300476 57.435646 116.003677
v 76.229362 57.425678 116.931847
v 76.194855 58.109619 112.054100
v 76.261894 58.082558 113.027489
v 76.317894 58.019203 114.008217
v 76.317886 58.008774 114.991783
v 76.261650 57.945244 115.972130
v 76.170731 57.914608 116.925011
v 76.278748 58.622898 112.022987
v 76.314209 58.594753 112.996048
v 76.265236 58.531742 113.973839
v 76.225410 58.499031 114.969330
v 76.148483 59.174774 111.080048
v 76.226677 59.101284 112.004845
v 76.219658 59.083241 112.970001
# 826 vertices, 0 vertices normals

f 3 2 1
f 5 4 1
f 1 4 3
f 5 6 4
f 2 7 1
f 1 7 5
f 5 7 8
f 5 8 6
f 11 10 9
f 13 12 9
f 9 12 11
f 13 14 12
f 9 10 3
f 10 2 3
f 10 15 2
f 9 3 4
f 9 4 13
f 4 6 13
f 6 14 13
f 6 16 14
f 7 2 17
f 2 18 17
f 2 15 18
f 19 8 7
f 19 7 17
f 19 20 8
f 20 6 8
f 20 16 6
f 18 21 17
f 17 21 19
f 19 21 22
f 19 22 20
f 25 24 23
f 27 26 23
f 23 26 25
f 27 28 26
f 23 24 11
f 24 10 11
f 24 29 10
f 23 11 12
f 23 12 27
f 12 14 27
f 14 28 27
f 14 30 28
f 33 32 31
f 29 33 31
f 15 29 31
f 10 29 15
f 16 30 14
f 16 34 30
f 32 35 31
f 15 31 35
f 36 15 35
f 18 15 36
f 20 34 16
f 20 37 34
f 21 18 38
f 18 39 38
f 18 36 39
f 40 22 21
f 40 21 38
f 40 41 22
f 41 20 22
f 41 37 20
f 39 42 38
f 38 42 40
f 40 42 43
f 40 43 41
f 45 44 25
f 25 44 24
f 46 25 26
f 46 45 25
f 26 28 46
f 46 28 47
f 44 29 24
f 48 29 44
f 30 47 28
f 30 49 47
f 51 50 33
f 33 50 32
f 33 29 48
f 33 48 51
f 34 49 30
f 34 52 49
f 35 32 53
f 32 54 53
f 32 50 54
f 53 36 35
f 37 52 34
f 37 55 52
f 53 54 56
f 56 54 57
f 56 39 36
f 56 36 53
f 41 55 37
f 41 58 55
f 57 59 56
f 59 61 60
f 59 60 42
f 56 59 42
f 39 56 42
f 62 43 42
f 62 42 60
f 62 63 43
f 63 41 43
f 63 58 41
f 61 64 60
f 60 64 62
f 62 64 65
f 62 65 63
f 66 44 45
f 46 67 45
f 45 67 66
f 47 67 46
f 69 68 66
f 68 44 66
f 68 48 44
f 69 66 67
f 69 67 70
f 67 47 70
f 47 71 70
f 47 49 71
f 73 72 51
f 51 72 50
f 51 48 68
f 51 68 73
f 52 71 49
f 52 74 71
f 72 54 50
f 75 54 72
f 55 74 52
f 55 76 74
f 75 57 54
f 77 57 75
f 58 76 55
f 58 78 76
f 59 57 79
f 57 80 79
f 57 77 80
f 79 61 59
f 63 78 58
f 63 81 78
f 80 82 79
f 82 84 83
f 82 83 64
f 79 82 64
f 61 79 64
f 64 83 85
f 86 64 85
f 65 64 86
f 63 65 81
f 81 65 86
f 84 87 83
f 83 87 85
f 89 88 69
f 69 88 68
f 90 69 70
f 90 89 69
f 70 71 90
f 90 71 91
f 93 92 73
f 73 92 72
f 73 68 88
f 73 88 93
f 74 91 71
f 74 94 91
f 92 75 72
f 95 75 92
f 76 94 74
f 76 96 94
f 95 77 75
f 97 77 95
f 78 96 76
f 78 98 96
f 97 80 77
f 99 80 97
f 81 98 78
f 81 100 98
f 82 80 101
f 80 102 101
f 80 99 102
f 101 84 82
f 85 103 86
f 103 104 86
f 104 81 86
f 104 100 81
f 102 105 101
f 101 105 84
f 105 87 84
f 105 106 87
f 85 87 103
f 87 107 103
f 87 106 107
f 103 107 104
f 108 88 89
f 90 109 89
f 89 109 108
f 91 109 90
f 110 92 93
f 111 110 93
f 111 93 88
f 112 111 88
f 108 112 88
f 112 108 109
f 112 109 113
f 109 91 113
f 91 114 113
f 91 94 114
f 116 115 110
f 115 92 110
f 115 95 92
f 116 110 111
f 96 114 94
f 96 117 114
f 115 97 95
f 118 97 115
f 98 117 96
f 98 119 117
f 118 99 97
f 120 99 118
f 100 119 98
f 100 121 119
f 120 102 99
f 122 102 120
f 104 121 100
f 104 123 121
f 105 102 124
f 102 125 124
f 102 122 125
f 126 106 105
f 126 105 124
f 106 126 127
f 128 106 127
f 107 106 128
f 104 107 123
f 123 107 128
f 125 129 124
f 124 129 126
f 126 129 130
f 126 130 127
f 131 111 112
f 113 132 112
f 112 132 131
f 114 132 113
f 134 133 116
f 116 133 115
f 116 111 131
f 135 116 131
f 134 116 135
f 135 131 132
f 135 132 136
f 132 114 136
f 114 137 136
f 114 117 137
f 133 118 115
f 138 118 133
f 119 137 117
f 119 139 137
f 138 120 118
f 140 120 138
f 121 139 119
f 121 141 139
f 144 143 142
f 140 144 142
f 122 140 142
f 120 140 122
f 123 141 121
f 123 145 141
f 142 143 146
f 146 143 147
f 146 125 122
f 146 122 142
f 149 148 128
f 149 128 127
f 123 128 145
f 145 128 148
f 147 150 146
f 150 152 151
f 150 151 129
f 146 150 129
f 125 146 129
f 153 130 129
f 153 129 151
f 153 154 130
f 154 127 130
f 154 149 127
f 152 155 151
f 151 155 153
f 153 155 156
f 153 156 154
f 157 133 134
f 135 158 134
f 134 158 157
f 136 159 135
f 135 159 158
f 137 159 136
f 161 160 157
f 160 133 157
f 160 138 133
f 161 157 158
f 161 158 162
f 164 163 162
f 158 164 162
f 159 164 158
f 139 164 137
f 137 164 159
f 167 166 165
f 160 167 165
f 140 160 165
f 138 160 140
f 168 163 164
f 164 139 168
f 139 169 168
f 139 141 169
f 165 166 144
f 166 143 144
f 166 170 143
f 165 144 140
f 173 172 171
f 172 169 171
f 169 145 171
f 169 141 145
f 170 147 143
f 174 147 170
f 173 171 148
f 149 173 148
f 175 173 149
f 148 171 145
f 150 147 176
f 147 177 176
f 147 174 177
f 176 152 150
f 154 175 149
f 154 178 175
f 176 177 179
f 179 177 180
f 181 155 152
f 176 181 152
f 179 181 176
f 155 181 182
f 183 155 182
f 156 155 183
f 154 156 178
f 178 156 183
f 180 184 179
f 179 184 181
f 181 184 185
f 181 185 182
f 187 186 161
f 161 186 160
f 188 161 162
f 188 187 161
f 162 163 188
f 188 163 189
f 191 190 167
f 167 190 166
f 167 160 186
f 167 186 191
f 163 168 192
f 193 163 192
f 189 163 193
f 169 192 168
f 190 170 166
f 194 170 190
f 193 192 172
f 173 193 172
f 195 193 173
f 172 192 169
f 194 174 170
f 196 174 194
f 175 195 173
f 175 197 195
f 196 177 174
f 198 177 196
f 178 197 175
f 178 199 197
f 198 180 177
f 200 180 198
f 202 201 183
f 202 183 182
f 178 183 199
f 199 183 201
f 184 180 203
f 180 204 203
f 180 200 204
f 205 185 184
f 205 184 203
f 205 206 185
f 206 182 185
f 206 202 182
f 204 207 203
f 203 207 205
f 205 207 208
f 205 208 206
f 209 186 187
f 188 210 187
f 187 210 209
f 189 210 188
f 211 190 191
f 212 211 191
f 212 191 186
f 213 212 186
f 209 213 186
f 215 214 213
f 209 215 213
f 210 215 209
f 193 215 189
f 189 215 210
f 217 216 211
f 216 190 211
f 216 194 190
f 217 211 212
f 218 214 215
f 215 193 218
f 193 219 218
f 193 195 219
f 216 196 194
f 220 196 216
f 197 219 195
f 197 221 219
f 224 223 222
f 220 224 222
f 198 220 222
f 196 220 198
f 199 221 197
f 199 225 221
f 222 223 226
f 226 223 227
f 226 200 198
f 226 198 222
f 229 228 201
f 229 201 202
f 199 201 225
f 225 201 228
f 226 227 230
f 230 227 231
f 230 204 200
f 230 200 226
f 206 229 202
f 206 232 229
f 231 233 230
f 233 235 234
f 233 234 207
f 230 233 207
f 204 230 207
f 207 234 236
f 237 207 236
f 208 207 237
f 206 208 232
f 232 208 237
f 235 238 234
f 234 238 236
f 239 212 213
f 214 239 213
f 241 240 217
f 217 240 216
f 217 212 239
f 242 217 239
f 241 217 242
f 244 242 243
f 243 242 218
f 242 239 218
f 239 214 218
f 219 243 218
f 240 220 216
f 245 220 240
f 244 243 246
f 244 246 247
f 221 246 219
f 219 246 243
f 249 248 224
f 224 248 223
f 224 220 245
f 224 245 249
f 247 246 250
f 247 250 251
f 225 250 221
f 221 250 246
f 248 227 223
f 252 227 248
f 251 250 228
f 229 251 228
f 253 251 229
f 228 250 225
f 252 231 227
f 254 231 252
f 232 253 229
f 232 255 253
f 233 231 256
f 231 257 256
f 231 254 257
f 256 235 233
f 236 258 237
f 258 259 237
f 259 232 237
f 259 255 232
f 257 260 256
f 256 260 235
f 260 238 235
f 260 261 238
f 236 238 258
f 238 262 258
f 238 261 262
f 258 262 259
f 263 240 241
f 242 264 241
f 241 264 263
f 244 264 242
f 266 265 263
f 265 240 263
f 265 245 240
f 266 263 264
f 266 264 267
f 264 244 267
f 244 268 267
f 244 247 268
f 270 269 249
f 249 269 248
f 249 245 265
f 249 265 270
f 251 268 247
f 251 271 268
f 269 252 248
f 272 252 269
f 253 271 251
f 253 273 271
f 272 254 252
f 274 254 272
f 255 273 253
f 255 275 273
f 274 257 254
f 276 257 274
f 259 275 255
f 259 277 275
f 260 257 278
f 257 279 278
f 257 276 279
f 280 261 260
f 280 260 278
f 261 280 281
f 282 261 281
f 262 261 282
f 259 262 277
f 277 262 282
f 279 283 278
f 278 283 280
f 280 283 284
f 280 284 281
f 285 265 266
f 267 286 266
f 266 286 285
f 268 286 267
f 288 287 270
f 270 287 269
f 270 265 285
f 289 270 285
f 288 270 289
f 289 285 286
f 289 286 290
f 286 268 290
f 268 291 290
f 268 271 291
f 287 272 269
f 292 272 287
f 273 291 271
f 273 293 291
f 296 295 294
f 292 296 294
f 274 292 294
f 272 292 274
f 275 293 273
f 275 297 293
f 294 295 298
f 298 295 299
f 298 276 274
f 298 274 294
f 277 297 275
f 277 300 297
f 298 299 301
f 301 299 302
f 301 279 276
f 301 276 298
f 304 303 282
f 304 282 281
f 277 282 300
f 300 282 303
f 301 302 305
f 305 302 306
f 307 283 279
f 301 307 279
f 305 307 301
f 308 284 283
f 308 283 307
f 308 309 284
f 309 281 284
f 309 304 281
f 305 306 310
f 310 306 311
f 305 312 307
f 305 310 312
f 314 308 313
f 308 312 313
f 308 307 312
f 308 314 309
f 311 315 310
f 310 315 312
f 312 315 316
f 312 316 313
f 317 287 288
f 289 318 288
f 288 318 317
f 290 319 289
f 289 319 318
f 291 319 290
f 321 320 317
f 320 287 317
f 320 292 287
f 321 317 318
f 321 318 322
f 324 323 322
f 318 324 322
f 319 324 318
f 293 324 291
f 291 324 319
f 326 325 296
f 296 325 295
f 296 292 320
f 296 320 326
f 323 324 327
f 323 327 328
f 297 327 293
f 293 327 324
f 325 299 295
f 329 299 325
f 328 327 330
f 328 330 331
f 300 330 297
f 297 330 327
f 329 302 299
f 332 302 329
f 331 330 303
f 304 331 303
f 333 331 304
f 303 330 300
f 336 335 334
f 332 336 334
f 306 332 334
f 302 332 306
f 309 333 304
f 309 337 333
f 334 335 338
f 338 335 339
f 338 311 306
f 338 306 334
f 341 340 314
f 341 314 313
f 309 314 337
f 337 314 340
f 339 342 338
f 342 344 343
f 342 343 315
f 338 342 315
f 311 338 315
f 315 343 345
f 346 315 345
f 316 315 346
f 313 316 341
f 341 316 346
f 344 347 343
f 343 347 345
f 348 320 321
f 322 349 321
f 321 349 348
f 323 349 322
f 351 350 326
f 326 350 325
f 326 320 348
f 352 326 348
f 351 326 352
f 352 348 349
f 352 349 353
f 349 323 353
f 323 354 353
f 323 328 354
f 350 329 325
f 355 329 350
f 331 354 328
f 331 356 354
f 359 358 357
f 355 359 357
f 332 355 357
f 329 355 332
f 333 356 331
f 333 360 356
f 357 358 336
f 358 335 336
f 358 361 335
f 357 336 332
f 337 360 333
f 337 362 360
f 361 339 335
f 363 339 361
f 365 364 340
f 365 340 341
f 337 340 362
f 362 340 364
f 342 339 366
f 339 367 366
f 339 363 367
f 366 344 342
f 345 368 346
f 368 369 346
f 369 341 346
f 369 365 341
f 366 367 370
f 370 367 371
f 372 347 344
f 366 372 344
f 370 372 366
f 372 373 347
f 347 373 345
f 373 374 345
f 374 368 345
f 368 374 369
f 371 375 370
f 370 375 372
f 372 375 376
f 372 376 373
f 377 350 351
f 352 378 351
f 351 378 377
f 353 379 352
f 352 379 378
f 354 379 353
f 381 380 377
f 380 350 377
f 380 355 350
f 381 377 378
f 381 378 382
f 384 383 382
f 378 384 382
f 379 384 378
f 356 384 354
f 354 384 379
f 386 385 359
f 359 385 358
f 359 355 380
f 359 380 386
f 383 384 387
f 383 387 388
f 360 387 356
f 356 387 384
f 385 361 358
f 389 361 385
f 388 387 390
f 388 390 391
f 362 390 360
f 360 390 387
f 389 363 361
f 392 363 389
f 391 390 364
f 365 391 364
f 393 391 365
f 364 390 362
f 396 395 394
f 392 396 394
f 367 392 394
f 363 392 367
f 369 393 365
f 369 397 393
f 394 395 398
f 398 395 399
f 398 371 367
f 398 367 394
f 401 400 374
f 401 374 373
f 369 374 397
f 397 374 400
f 399 402 398
f 402 404 403
f 402 403 375
f 398 402 375
f 371 398 375
f 375 403 405
f 406 375 405
f 376 375 406
f 373 376 401
f 401 376 406
f 404 407 403
f 403 407 405
f 408 380 381
f 382 409 381
f 381 409 408
f 383 409 382
f 411 410 386
f 386 410 385
f 386 380 408
f 412 386 408
f 411 386 412
f 412 408 409
f 412 409 413
f 409 383 413
f 383 414 413
f 383 388 414
f 410 389 385
f 415 389 410
f 391 414 388
f 391 416 414
f 419 418 417
f 415 419 417
f 392 415 417
f 389 415 392
f 393 416 391
f 393 420 416
f 417 418 396
f 418 395 396
f 418 421 395
f 417 396 392
f 397 420 393
f 397 422 420
f 421 399 395
f 423 399 421
f 425 424 400
f 425 400 401
f 397 400 422
f 422 400 424
f 402 399 426
f 399 427 426
f 399 423 427
f 426 404 402
f 405 428 406
f 428 429 406
f 429 401 406
f 429 425 401
f 426 427 430
f 430 427 431
f 432 407 404
f 426 432 404
f 430 432 426
f 432 433 407
f 407 433 405
f 433 434 405
f 434 428 405
f 428 434 429
f 431 435 430
f 430 435 432
f 432 435 436
f 432 436 433
f 437 410 411
f 412 438 411
f 411 438 437
f 413 439 412
f 412 439 438
f 414 439 413
f 441 440 437
f 440 410 437
f 440 415 410
f 441 437 438
f 441 438 442
f 444 443 442
f 438 444 442
f 439 444 438
f 416 444 414
f 414 444 439
f 446 445 419
f 419 445 418
f 419 415 440
f 419 440 446
f 443 444 447
f 443 447 448
f 420 447 416
f 416 447 444
f 445 421 418
f 449 421 445
f 448 447 450
f 448 450 451
f 422 450 420
f 420 450 447
f 449 423 421
f 452 423 449
f 451 450 424
f 425 451 424
f 453 451 425
f 424 450 422
f 452 427 423
f 454 427 452
f 429 453 425
f 429 455 453
f 454 431 427
f 456 431 454
f 433 457 434
f 457 458 434
f 458 429 434
f 458 455 429
f 435 431 459
f 431 460 459
f 431 456 460
f 461 436 435
f 461 435 459
f 461 462 436
f 436 462 433
f 462 463 433
f 463 457 433
f 457 463 458
f 459 460 464
f 464 460 465
f 459 466 461
f 459 464 466
f 462 461 467
f 467 461 466
f 465 468 464
f 464 468 466
f 466 468 469
f 466 469 467
f 470 440 441
f 442 471 441
f 441 471 470
f 443 471 442
f 472 445 446
f 473 472 446
f 473 446 440
f 474 473 440
f 470 474 440
f 476 475 474
f 470 476 474
f 471 476 470
f 448 476 443
f 443 476 471
f 478 477 472
f 477 445 472
f 477 449 445
f 478 472 473
f 479 475 476
f 476 448 479
f 448 480 479
f 448 451 480
f 477 452 449
f 481 452 477
f 453 480 451
f 453 482 480
f 481 454 452
f 483 454 481
f 455 482 453
f 455 484 482
f 487 486 485
f 483 487 485
f 456 483 485
f 454 483 456
f 458 484 455
f 458 488 484
f 485 486 489
f 489 486 490
f 489 460 456
f 489 456 485
f 492 491 463
f 492 463 462
f 458 463 488
f 488 463 491
f 489 490 493
f 493 490 494
f 493 465 460
f 493 460 489
f 467 492 462
f 467 495 492
f 493 494 496
f 496 494 497
f 498 468 465
f 493 498 465
f 496 498 493
f 499 469 468
f 499 468 498
f 499 500 469
f 500 467 469
f 500 495 467
f 497 501 496
f 496 501 498
f 498 501 502
f 498 502 499
f 499 502 503
f 499 503 500
f 506 505 504
f 508 507 504
f 504 507 506
f 508 509 507
f 504 505 510
f 510 505 511
f 504 512 508
f 504 510 512
f 509 508 513
f 513 508 512
f 511 514 510
f 510 514 512
f 512 514 515
f 512 515 513
f 516 473 474
f 475 516 474
f 517 477 478
f 518 517 478
f 518 478 473
f 519 518 473
f 516 519 473
f 521 519 520
f 520 519 479
f 519 516 479
f 516 475 479
f 480 520 479
f 523 522 517
f 522 477 517
f 522 481 477
f 523 517 518
f 521 520 524
f 521 524 525
f 482 524 480
f 480 524 520
f 522 483 481
f 526 483 522
f 525 524 527
f 525 527 528
f 484 527 482
f 482 527 524
f 530 529 487
f 487 529 486
f 487 483 526
f 487 526 530
f 528 527 531
f 528 531 532
f 488 531 484
f 484 531 527
f 529 490 486
f 533 490 529
f 532 531 491
f 492 532 491
f 534 532 492
f 491 531 488
f 533 494 490
f 535 494 533
f 495 534 492
f 495 536 534
f 535 497 494
f 537 497 535
f 500 536 495
f 500 538 536
f 541 540 539
f 543 542 539
f 539 542 541
f 545 544 543
f 543 544 542
f 545 546 501
f 537 545 501
f 497 537 501
f 545 537 544
f 547 502 501
f 547 501 546
f 502 547 548
f 549 502 548
f 503 502 549
f 500 503 538
f 538 503 549
f 552 551 550
f 554 553 550
f 550 553 552
f 553 554 540
f 554 539 540
f 554 555 539
f 539 556 543
f 539 555 556
f 543 557 545
f 543 556 557
f 545 558 546
f 545 557 558
f 546 559 547
f 546 558 559
f 548 547 560
f 560 547 559
f 563 562 561
f 565 564 561
f 561 564 563
f 564 565 551
f 565 550 551
f 565 566 550
f 550 567 554
f 550 566 567
f 554 568 555
f 554 567 568
f 555 569 556
f 555 568 569
f 571 557 570
f 557 569 570
f 557 556 569
f 557 571 558
f 558 571 572
f 558 572 559
f 559 572 573
f 559 573 560
f 576 575 574
f 576 574 562
f 574 561 562
f 574 577 561
f 561 578 565
f 561 577 578
f 565 579 566
f 565 578 579
f 566 580 567
f 566 579 580
f 582 568 581
f 568 580 581
f 568 567 580
f 568 582 569
f 569 582 583
f 569 583 570
f 574 575 506
f 575 505 506
f 575 584 505
f 574 506 507
f 574 507 577
f 577 507 509
f 585 577 509
f 578 577 585
f 578 586 579
f 578 585 586
f 588 580 587
f 580 586 587
f 580 579 586
f 580 588 581
f 584 511 505
f 589 511 584
f 513 590 585
f 513 585 509
f 592 586 591
f 586 590 591
f 586 585 590
f 586 592 587
f 589 593 511
f 511 593 514
f 514 594 515
f 593 594 514
f 513 515 590
f 515 595 590
f 515 594 595
f 590 595 591
f 596 518 519
f 521 596 519
f 597 522 523
f 518 596 523
f 596 597 523
f 596 598 597
f 525 598 521
f 521 598 596
f 600 599 597
f 599 522 597
f 599 526 522
f 600 597 598
f 600 598 601
f 598 525 601
f 525 602 601
f 525 528 602
f 604 603 530
f 530 603 529
f 530 526 599
f 530 599 604
f 532 602 528
f 532 605 602
f 603 533 529
f 606 533 603
f 534 605 532
f 534 607 605
f 606 535 533
f 608 535 606
f 536 607 534
f 536 609 607
f 612 611 610
f 614 613 610
f 610 613 612
f 616 615 614
f 614 615 613
f 608 615 616
f 537 608 616
f 535 608 537
f 538 609 536
f 538 617 609
f 620 619 618
f 622 621 618
f 618 621 620
f 621 622 611
f 611 622 610
f 622 540 610
f 540 541 610
f 610 541 542
f 610 542 614
f 614 542 544
f 614 544 616
f 616 544 537
f 548 623 549
f 623 624 549
f 624 538 549
f 624 617 538
f 627 626 625
f 627 625 619
f 619 625 618
f 625 551 618
f 551 552 618
f 618 552 553
f 618 553 622
f 622 553 540
f 629 628 623
f 548 629 623
f 560 629 548
f 623 628 624
f 631 630 563
f 563 630 562
f 564 625 626
f 631 564 626
f 563 564 631
f 625 564 551
f 570 632 571
f 633 572 571
f 633 571 632
f 572 633 634
f 635 572 634
f 573 572 635
f 560 573 629
f 629 573 635
f 637 636 576
f 576 636 575
f 576 562 630
f 576 630 637
f 581 638 582
f 639 583 582
f 639 582 638
f 639 640 583
f 583 640 570
f 640 641 570
f 641 632 570
f 632 641 633
f 633 641 642
f 633 642 634
f 636 584 575
f 643 584 636
f 587 644 588
f 644 645 588
f 588 645 581
f 645 646 581
f 646 638 581
f 638 646 639
f 639 646 647
f 639 647 640
f 643 589 584
f 648 589 643
f 650 649 592
f 650 592 591
f 587 592 644
f 592 651 644
f 592 649 651
f 644 651 645
f 593 589 652
f 589 653 652
f 589 648 653
f 654 594 593
f 654 593 652
f 594 654 655
f 656 594 655
f 595 594 656
f 591 595 650
f 650 595 656
f 653 657 652
f 652 657 654
f 654 657 658
f 654 658 655
f 659 599 600
f 601 660 600
f 600 660 659
f 602 660 601
f 661 603 604
f 662 661 604
f 662 604 599
f 663 662 599
f 659 663 599
f 665 664 663
f 659 665 663
f 660 665 659
f 605 665 602
f 602 665 660
f 667 666 661
f 666 603 661
f 666 606 603
f 667 661 662
f 668 664 665
f 665 605 668
f 605 669 668
f 605 607 669
f 666 608 606
f 670 608 666
f 609 669 607
f 609 671 669
f 673 672 612
f 612 672 611
f 674 612 613
f 674 673 612
f 675 613 615
f 675 674 613
f 615 608 670
f 615 670 675
f 617 671 609
f 617 676 671
f 678 677 620
f 620 677 619
f 679 620 621
f 679 678 620
f 621 611 672
f 621 672 679
f 624 676 617
f 624 680 676
f 682 681 627
f 627 681 626
f 627 619 677
f 627 677 682
f 685 684 683
f 628 629 683
f 684 628 683
f 686 628 684
f 624 628 680
f 680 628 686
f 688 687 631
f 631 687 630
f 631 626 681
f 631 681 688
f 635 634 689
f 683 690 685
f 690 683 691
f 683 629 691
f 635 689 691
f 635 691 629
f 693 692 637
f 637 692 636
f 637 630 687
f 637 687 693
f 695 694 641
f 695 641 640
f 641 696 642
f 694 696 641
f 634 642 689
f 642 697 689
f 642 696 697
f 689 697 691
f 692 643 636
f 698 643 692
f 700 699 646
f 700 646 645
f 646 701 647
f 699 701 646
f 640 647 695
f 695 647 701
f 698 648 643
f 702 648 698
f 704 703 649
f 704 649 650
f 649 705 651
f 703 705 649
f 645 651 700
f 700 651 705
f 702 653 648
f 706 653 702
f 708 707 656
f 708 656 655
f 650 656 704
f 704 656 707
f 706 709 653
f 653 709 657
f 657 710 658
f 709 710 657
f 655 658 708
f 708 658 710
f 711 662 663
f 664 711 663
f 712 666 667
f 662 711 667
f 711 712 667
f 711 713 712
f 668 714 664
f 714 711 664
f 714 713 711
f 669 714 668
f 716 715 712
f 715 666 712
f 715 670 666
f 716 712 713
f 716 713 717
f 719 718 717
f 713 719 717
f 714 719 713
f 671 719 669
f 669 719 714
f 721 720 673
f 673 720 672
f 722 673 674
f 722 721 673
f 723 674 675
f 723 722 674
f 675 670 715
f 675 715 723
f 718 719 724
f 718 724 725
f 676 724 671
f 671 724 719
f 727 726 678
f 678 726 677
f 728 678 679
f 728 727 678
f 679 672 720
f 679 720 728
f 731 730 729
f 729 730 725
f 724 729 725
f 732 729 724
f 680 732 676
f 676 732 724
f 734 733 682
f 682 733 681
f 682 677 726
f 682 726 734
f 731 729 684
f 685 731 684
f 735 731 685
f 684 729 686
f 686 729 732
f 686 732 680
f 737 736 688
f 688 736 687
f 688 681 733
f 688 733 737
f 738 735 685
f 738 685 690
f 690 691 738
f 738 691 739
f 740 692 693
f 741 740 693
f 687 741 693
f 736 741 687
f 743 742 694
f 743 694 695
f 694 744 696
f 742 744 694
f 696 745 697
f 744 745 696
f 691 697 739
f 739 697 745
f 747 746 740
f 746 692 740
f 746 698 692
f 747 740 741
f 749 748 699
f 749 699 700
f 699 750 701
f 748 750 699
f 695 701 743
f 743 701 750
f 746 702 698
f 751 702 746
f 753 752 703
f 753 703 704
f 703 754 705
f 752 754 703
f 700 705 749
f 749 705 754
f 756 706 755
f 706 751 755
f 706 702 751
f 758 757 756
f 758 756 755
f 707 708 757
f 758 707 757
f 759 707 758
f 704 707 753
f 753 707 759
f 756 709 706
f 709 756 710
f 710 756 757
f 710 757 708
f 760 715 716
f 717 761 716
f 716 761 760
f 718 761 717
f 762 720 721
f 722 763 721
f 721 763 762
f 763 722 764
f 722 765 764
f 722 723 765
f 723 715 760
f 766 723 760
f 765 723 766
f 768 767 766
f 760 768 766
f 761 768 760
f 725 768 718
f 718 768 761
f 769 726 727
f 728 770 727
f 727 770 769
f 771 770 728
f 771 728 720
f 772 771 720
f 762 772 720
f 772 762 763
f 772 763 773
f 773 763 764
f 767 768 730
f 731 767 730
f 774 767 731
f 730 768 725
f 775 733 734
f 776 775 734
f 776 734 726
f 777 776 726
f 769 777 726
f 777 769 770
f 777 770 778
f 778 770 771
f 735 774 731
f 735 779 774
f 780 736 737
f 733 775 737
f 775 780 737
f 775 781 780
f 775 776 782
f 775 782 781
f 785 784 783
f 787 786 783
f 787 783 784
f 788 786 738
f 786 779 738
f 779 735 738
f 779 786 787
f 739 788 738
f 789 741 780
f 780 741 736
f 781 791 790
f 789 781 790
f 780 781 789
f 791 781 782
f 794 793 792
f 796 795 792
f 796 792 793
f 795 796 785
f 795 785 783
f 743 795 783
f 742 743 783
f 742 783 744
f 744 783 786
f 744 786 745
f 745 786 788
f 745 788 739
f 797 746 747
f 741 789 747
f 789 797 747
f 789 798 797
f 789 790 799
f 800 789 799
f 798 789 800
f 802 801 800
f 802 800 799
f 804 803 801
f 804 801 802
f 803 804 794
f 803 794 792
f 749 803 792
f 748 749 792
f 748 792 750
f 750 792 795
f 750 795 743
f 805 751 797
f 797 751 746
f 806 797 798
f 805 797 806
f 807 798 800
f 806 798 807
f 753 807 752
f 807 801 752
f 807 800 801
f 752 801 754
f 754 801 803
f 754 803 749
f 805 755 751
f 755 805 758
f 758 805 806
f 758 806 759
f 759 806 807
f 759 807 753
f 808 764 765
f 766 809 765
f 765 809 808
f 767 809 766
f 810 771 772
f 773 811 772
f 772 811 810
f 764 808 773
f 808 811 773
f 808 812 811
f 813 808 809
f 812 808 813
f 774 813 767
f 767 813 809
f 814 776 777
f 778 815 777
f 777 815 814
f 771 810 778
f 810 815 778
f 810 816 815
f 817 810 811
f 816 810 817
f 818 811 812
f 817 811 818
f 819 812 813
f 818 812 819
f 779 819 774
f 774 819 813
f 820 782 814
f 814 782 776
f 821 814 815
f 820 814 821
f 822 815 816
f 821 815 822
f 823 816 817
f 822 816 823
f 785 823 784
f 823 818 784
f 823 817 818
f 784 818 787
f 787 818 819
f 787 819 779
f 824 790 791
f 782 820 791
f 820 824 791
f 820 825 824
f 826 820 821
f 825 820 826
f 794 826 793
f 826 822 793
f 826 821 822
f 793 822 796
f 796 822 823
f 796 823 785
f 824 799 790
f 799 824 802
f 802 824 825
f 802 825 804
f 804 825 826
f 804 826 794
# 1648 faces, 0 coords texture

# End of File