####
#
# OBJ File Generated by Meshlab
#
####
# Object Volume_106.obj
#
# Vertices: 396
# Faces: 802
#
####
v 125.351273 380.373505 151.731400
v 132.018875 394.963348 152.088272
v 131.982361 389.389679 155.840744
v 128.441483 394.791168 155.827271
v 129.623444 377.747711 149.320068
v 123.955093 399.018250 153.370789
v 127.431206 378.841339 143.497513
v 129.575287 397.012848 148.341675
v 124.477524 401.720520 146.648560
v 122.717361 378.315247 148.487137
v 121.966530 382.215485 149.189087
v 127.675850 388.776489 154.109039
v 117.794281 398.986725 145.860977
v 120.634613 401.730621 148.389679
v 120.339127 390.559845 148.787033
v 123.917336 377.809509 148.717422
v 122.499046 401.887787 145.562637
v 118.574318 392.619110 143.527039
v 128.872787 401.313141 152.489731
v 127.099327 380.338837 152.635925
v 128.375534 392.892609 146.246414
v 123.809349 386.542328 151.598740
v 122.797997 384.501190 150.318573
v 126.269920 390.352783 153.671478
v 117.583893 390.560455 146.260498
v 121.255119 391.148041 149.546875
v 125.922379 377.919922 151.343460
v 127.685661 399.092682 156.177185
v 132.422104 397.019226 153.126343
v 120.757515 395.095062 149.731842
v 131.159729 395.059387 150.659424
v 130.906174 400.649475 152.536835
v 132.320038 386.479980 152.889084
v 131.463348 378.444550 152.985321
v 121.329987 388.508759 149.334183
v 122.337669 380.191315 149.016876
v 124.543129 382.330078 142.105179
v 120.423164 384.413666 148.471909
v 130.130051 382.325043 148.364166
v 120.490479 380.246002 141.271133
v 124.407738 394.061188 143.075623
v 119.290863 401.070465 148.826431
v 131.236725 390.618713 150.533951
v 131.979797 397.013367 152.112091
v 125.688423 378.604889 151.562317
v 128.303040 382.185730 144.644272
v 131.400925 378.345215 153.015228
v 129.310852 382.365784 146.491180
v 130.682755 400.682007 157.751465
v 122.213028 393.733551 143.103622
v 130.079590 377.842560 150.698013
v 126.002533 382.171295 142.659363
v 120.404266 384.277985 142.350754
v 131.796494 399.958374 156.459183
v 119.207451 382.233093 142.602036
v 117.613892 392.925690 146.242447
v 124.865227 399.227478 154.141281
v 130.170151 390.580414 148.789551
v 118.877922 386.456848 143.276138
v 122.487663 396.879089 144.121902
v 120.398376 386.452240 148.588364
v 120.357559 382.303528 148.273056
v 124.702316 401.248749 145.900024
v 129.205887 384.405914 146.498291
v 118.440331 401.427704 146.740143
v 132.287689 397.015747 156.306091
v 126.895561 377.401123 150.455032
v 130.603256 400.753143 157.740234
v 131.402710 378.460419 153.036514
v 118.471756 392.938995 147.533005
v 126.130524 396.824768 144.984741
v 129.016953 388.474670 154.685944
v 132.069901 392.914459 152.052002
v 132.105942 386.471222 151.987473
v 123.993858 378.607910 141.472397
v 124.534195 378.387817 150.086868
v 125.008812 382.456512 151.862350
v 129.741348 386.467712 147.707199
v 126.687355 392.931671 154.367538
v 134.487015 384.708984 155.000000
v 130.928604 386.553772 154.604736
v 126.862732 377.310364 148.499863
v 118.180962 384.350372 144.042282
v 132.143127 390.573242 151.987259
v 122.033569 392.862823 150.625229
v 127.807686 390.538086 145.213440
v 122.498779 401.847015 145.493759
v 124.163902 396.919678 153.430008
v 125.112114 397.133911 154.179016
v 117.567696 388.467712 146.169266
v 126.595779 392.863251 144.477570
v 118.468567 380.360901 146.282562
v 118.358429 399.137787 147.977280
v 118.506317 390.578644 147.436890
v 125.095360 392.922607 143.384995
v 129.867310 378.362183 148.905151
v 118.974113 378.539581 141.520523
v 131.005539 384.617188 154.233551
v 124.454170 398.934998 144.782257
v 118.351059 382.477081 146.231125
v 131.254639 382.298950 150.570099
v 132.278458 379.381409 153.638153
v 126.913330 377.793365 151.558868
v 129.679459 393.667450 156.093582
v 126.710503 384.397736 153.098083
v 129.055603 400.974487 154.908401
v 130.678726 400.745392 157.781418
v 122.221786 390.446075 150.452728
v 124.573448 377.422180 148.408112
v 120.339378 396.968597 144.253387
v 124.383484 386.308655 142.756577
v 128.405182 380.304382 144.573120
v 129.389114 399.039154 148.355804
v 122.948212 382.601044 150.028992
v 129.196014 384.451721 154.018280
v 124.613457 390.574219 152.768967
v 121.040016 393.068878 149.662277
v 131.813660 399.026764 152.221298
v 118.960899 378.211792 141.856339
v 131.947495 382.419983 152.101242
v 118.311371 382.393890 144.235580
v 124.541801 392.919495 153.047302
v 128.626495 390.483734 146.279327
v 127.118652 397.080963 145.629227
v 119.007095 384.316803 143.005569
v 124.371262 384.387848 142.433212
v 117.862854 400.776855 146.733475
v 123.238762 401.283752 152.418839
v 120.444420 378.606781 141.357727
v 121.395073 386.444275 149.271698
v 129.427536 392.927887 147.839340
v 127.971832 400.351624 155.938812
v 119.341835 398.825531 148.978668
v 128.912354 378.567169 152.464645
v 120.462173 377.983917 141.952225
v 132.189255 380.321045 153.548264
v 126.688690 386.451202 143.827393
v 120.452431 388.511658 142.703583
v 131.980545 384.825806 153.777924
v 130.772476 400.818939 154.927200
v 122.495186 401.742676 145.341995
v 124.526550 377.270203 146.497620
v 119.831375 394.916779 148.916458
v 128.946625 380.340729 153.128693
v 128.305466 397.028717 146.695496
v 118.464325 398.959351 145.268539
v 126.663521 400.888885 146.425385
v 121.272591 389.886292 149.382401
v 132.046600 384.428345 152.046555
v 123.458458 390.807648 151.819824
v 126.859810 401.729004 150.169281
v 124.417229 396.939423 144.376846
v 120.338287 392.599182 143.011566
v 128.188507 386.369598 145.148132
v 129.468399 395.123291 148.005234
v 132.200790 379.269958 153.728622
v 117.592117 397.023773 146.203369
v 131.894547 400.172363 154.970459
v 128.036774 396.400787 156.000275
v 128.918289 399.099396 156.780334
v 126.586655 401.593414 147.146606
v 124.445572 394.893188 153.401993
v 122.457825 390.556000 142.716705
v 132.558731 390.591156 152.924957
v 125.449402 377.729645 150.337936
v 129.756958 382.566345 147.486893
v 132.252563 384.507690 153.075226
v 122.493118 377.339386 146.471283
v 127.942368 397.699707 156.202423
v 120.152176 392.871246 148.898987
v 127.221703 390.708557 154.244080
v 126.013893 380.304352 142.474548
v 125.875381 391.975342 153.738815
v 122.474998 377.357452 144.028839
v 130.156418 400.541656 150.948425
v 118.000465 386.481628 144.230560
v 120.690269 396.989258 149.978973
v 122.223915 401.350311 151.236633
v 122.438934 377.940460 141.949905
v 117.064941 392.082001 144.127289
v 129.528015 390.733673 147.745224
v 126.174881 378.522522 142.900955
v 126.645821 388.417633 153.637772
v 133.373398 391.311737 155.617538
v 120.465561 400.763916 145.276794
v 129.392426 378.423340 147.858200
v 124.375488 393.859741 142.974731
v 128.707809 382.086304 153.626083
v 122.571747 394.866455 143.431961
v 118.896324 382.489349 147.207123
v 130.999924 397.014496 150.576324
v 122.493126 401.841217 145.533966
v 117.561028 394.857544 145.213303
v 130.306259 384.415649 148.709473
v 128.891159 388.589661 146.421249
v 117.249496 384.872223 146.305649
v 132.511490 398.817902 154.974304
v 120.454750 390.552094 142.777496
v 130.116959 380.437592 148.491577
v 118.639603 386.579498 147.448929
v 126.839806 401.833496 148.486664
v 119.746613 379.565765 141.043839
v 126.642693 388.495758 144.020203
v 125.719971 398.857544 145.103180
v 126.846581 386.422821 153.408981
v 131.269135 384.412201 150.496048
v 119.311111 379.447540 141.162964
v 127.725006 391.970673 145.311447
v 133.102463 390.685547 155.023178
v 120.482307 377.655823 146.459793
v 130.680695 400.170624 157.770798
v 119.093086 380.111725 141.920807
v 118.361626 380.321808 144.157806
v 128.805557 378.453583 146.271820
v 118.640869 401.351990 147.854141
v 124.525703 401.922150 148.470963
v 124.387169 393.932617 143.011230
v 117.186279 385.860168 146.277679
v 128.950546 386.572906 154.256760
v 118.070251 401.176666 147.558716
v 127.893448 401.416351 147.541397
v 128.219879 384.402832 153.704605
v 128.168762 384.251282 144.796539
v 122.869781 399.106110 152.422211
v 130.930359 380.314209 150.588791
v 128.760956 401.286285 150.161224
v 120.449272 401.772064 146.570282
v 123.900276 384.270081 151.302658
v 128.168381 385.507263 153.837448
v 131.289444 386.466644 150.483856
v 131.240875 392.903015 150.699020
v 130.802872 399.029694 150.702103
v 117.604439 396.180969 145.374237
v 123.924759 401.206543 153.336151
v 124.769218 378.515045 141.910110
v 129.262970 380.240326 146.401886
v 122.543243 377.680786 147.683609
v 132.158371 399.005432 152.914032
v 121.803040 399.044220 151.242157
v 121.916054 396.865570 151.219055
v 124.648872 384.647339 152.095047
v 132.340668 389.525421 155.791992
v 130.968704 382.449127 153.948761
v 120.534866 399.135345 150.092300
v 126.695229 390.561035 144.276031
v 117.676414 397.623444 145.744247
v 121.661598 384.437317 149.289185
v 120.487320 377.504456 144.021179
v 122.468246 386.468781 142.459335
v 128.255951 378.500671 144.507050
v 127.423744 394.954193 145.532547
v 120.367455 388.513855 148.647461
v 130.240372 388.517975 148.749176
v 117.891861 388.558136 144.214020
v 122.468613 399.024292 144.640427
v 131.498581 390.747101 155.966156
v 124.430382 380.316132 141.597885
v 117.079430 391.786743 144.141983
v 126.732643 396.992676 155.276428
v 132.422409 388.540192 152.896332
v 128.404221 401.430420 148.522278
v 130.559250 400.607422 157.787079
v 120.714188 393.704132 143.163284
v 124.528313 401.755280 150.161896
v 128.416077 399.030731 147.067780
v 126.973251 399.031708 145.912170
v 123.867226 379.609497 141.317657
v 129.101089 397.084259 156.581467
v 124.834396 386.523010 152.422501
v 125.492859 400.116119 145.425232
v 129.666885 388.518311 147.742569
v 132.807510 393.034302 155.820023
v 122.694229 392.657166 142.897186
v 132.755905 396.950928 155.145828
v 126.997078 378.444244 152.075424
v 120.453217 386.459015 142.595016
v 124.490196 377.445740 144.056747
v 120.388275 395.003906 143.686081
v 117.080383 391.556152 144.185898
v 118.788872 378.708923 146.153183
v 125.263077 389.024933 143.267044
v 124.333290 400.682983 145.318207
v 121.899498 394.940582 150.863968
v 123.290627 393.050262 152.028961
v 124.760712 388.506104 152.592804
v 134.487000 394.963989 157.000000
v 131.548920 378.223267 152.988724
v 122.482269 401.888184 148.445755
v 122.422752 388.503662 150.409103
v 129.752640 380.175781 147.614075
v 125.812546 383.747284 142.837967
v 118.838379 388.532410 143.297562
v 128.177292 400.854370 147.372162
v 120.510201 401.475403 145.859604
v 127.232567 380.244934 143.288300
v 123.427513 401.240814 152.751602
v 129.784439 384.417603 147.687759
v 128.801544 392.788330 155.525970
v 133.183212 392.943268 155.092911
v 132.922577 390.749664 155.730728
v 127.715706 393.237762 145.520798
v 122.548988 386.428101 150.327545
v 131.906464 382.520325 153.502716
v 126.537315 399.060852 155.219650
v 118.548706 400.598602 145.621231
v 122.474022 384.337646 142.160004
v 120.338058 380.346344 148.020447
v 133.382919 392.196808 155.630280
v 118.373611 397.028748 147.764908
v 130.999832 394.962616 156.512756
v 122.483604 378.543854 141.438889
v 122.528801 380.135895 141.273972
v 130.097290 392.897400 148.871521
v 130.979706 397.109863 156.795776
v 132.062469 386.654297 154.074783
v 126.326302 394.839111 144.668518
v 121.041138 377.847534 147.408966
v 132.896729 394.923309 155.133087
v 124.148010 378.079681 142.081223
v 130.439209 390.550354 155.670853
v 124.335800 388.446564 142.893158
v 125.372520 395.219452 154.044556
v 118.796555 384.447418 147.385559
v 128.020737 388.237091 145.218231
v 117.695511 399.049896 146.400421
v 123.651321 388.555084 151.740906
v 117.291756 389.951874 145.454636
v 132.335159 388.734436 154.771317
v 129.086365 377.912445 151.805878
v 132.117889 388.518707 151.983810
v 129.294968 395.160797 156.340393
v 118.297569 400.975250 148.006332
v 130.018738 394.615845 148.930038
v 126.665970 377.875641 144.256226
v 120.492897 382.264069 141.893372
v 124.094521 390.554657 142.973389
v 128.259094 377.809052 146.564026
v 117.209862 385.900848 146.283585
v 120.448807 399.017639 144.728989
v 132.079239 398.935852 156.515182
v 128.812149 377.577454 148.548218
v 130.280258 386.467377 148.726944
v 123.264328 394.987549 152.306763
v 131.463165 378.392853 153.036804
v 130.543808 378.479156 150.710327
v 132.170502 380.298676 153.604507
v 117.063728 392.312714 144.083633
v 119.543831 396.962219 148.971680
v 118.646996 378.628723 144.091400
v 128.220779 378.141846 144.887146
v 132.500122 394.956024 153.105698
v 131.519424 380.629822 153.655457
v 131.030441 392.989594 156.226501
v 119.197090 377.973999 143.945862
v 132.406509 395.013733 156.080688
v 128.906418 390.587128 155.039429
v 123.829361 381.994690 150.733444
v 128.292786 395.037750 146.471527
v 118.700920 390.647583 143.308426
v 122.458153 382.308136 141.770294
v 126.700546 384.475220 143.480148
v 131.648529 400.316925 153.221924
v 126.864403 394.869690 154.958237
v 129.431534 382.658691 153.839905
v 123.429764 401.237946 152.765564
v 120.496506 378.472565 147.604874
v 118.371841 394.600586 144.291809
v 132.596725 392.903290 153.066788
v 131.143478 388.643250 155.311401
v 131.278976 388.518066 150.490128
v 125.202194 390.561462 143.372849
v 132.185867 382.295227 153.024704
v 122.971535 380.607422 149.599915
v 118.151138 401.084442 146.133774
v 118.247856 396.788025 144.937271
v 126.895226 401.375153 152.456924
v 123.983582 380.189270 150.418030
v 119.258499 378.640839 146.819229
v 118.816833 378.391083 141.860138
v 122.415138 401.281555 151.668213
v 126.981499 382.383453 143.327240
v 126.832115 400.512604 154.691833
v 117.193687 385.982880 146.278305
v 122.467873 388.512939 142.601807
v 126.914467 382.365112 152.908463
v 123.026878 397.155609 152.379776
v 128.877014 400.795471 148.501770
v 128.870407 377.482025 150.469269
v 117.410316 388.533386 145.529297
v 117.608788 394.969330 146.287750
v 119.278038 378.102997 146.134659
v 118.403465 394.946472 147.637848
v 129.039093 386.664642 146.418076
v 126.829102 377.393616 146.528610
v 118.521996 388.542725 147.389542
v 118.923744 380.457489 147.070892
# 396 vertices, 0 vertices normals

f 395 90 94
f 59 53 276
f 350 337 214
f 239 380 224
f 265 113 387
f 251 301 21
f 180 56 258
f 145 113 265
f 34 136 69
f 217 187 41
f 294 17 227
f 214 290 236
f 203 281 321
f 178 215 14
f 337 341 186
f 265 387 293
f 186 199 290
f 114 228 357
f 365 376 382
f 207 212 97
f 298 331 104
f 105 205 222
f 200 38 323
f 70 25 56
f 37 52 126
f 20 144 134
f 205 183 219
f 360 257 37
f 49 107 211
f 88 89 322
f 325 332 93
f 332 215 42
f 179 135 174
f 241 22 269
f 226 261 387
f 185 374 305
f 226 387 175
f 274 197 29
f 168 237 109
f 259 57 304
f 276 249 138
f 299 209 184
f 87 192 17
f 308 300 272
f 63 270 147
f 31 2 191
f 217 95 187
f 227 17 288
f 395 61 200
f 88 6 89
f 365 382 296
f 252 15 35
f 33 315 328
f 69 101 225
f 318 29 351
f 316 251 124
f 291 361 126
f 266 145 265
f 33 328 260
f 375 146 246
f 125 59 176
f 382 376 106
f 357 77 1
f 10 36 377
f 2 29 44
f 69 120 101
f 263 153 50
f 93 332 42
f 276 306 249
f 344 102 136
f 334 337 350
f 331 310 353
f 123 181 131
f 317 210 366
f 213 212 121
f 386 224 88
f 94 15 252
f 319 334 182
f 257 235 182
f 205 219 229
f 200 323 338
f 111 384 249
f 231 84 73
f 112 48 46
f 105 222 188
f 240 386 343
f 106 140 262
f 375 278 110
f 319 182 235
f 68 262 49
f 192 282 63
f 278 50 189
f 219 98 115
f 192 9 17
f 54 158 197
f 380 264 365
f 154 393 324
f 64 297 78
f 44 29 238
f 183 285 116
f 222 115 364
f 200 61 38
f 299 272 355
f 244 42 178
f 151 201 226
f 5 51 345
f 168 248 210
f 227 14 65
f 349 280 391
f 218 389 90
f 283 343 284
f 363 89 259
f 238 197 158
f 72 356 369
f 283 240 343
f 339 255 185
f 143 177 30
f 11 23 114
f 91 86 208
f 98 81 139
f 124 251 358
f 236 166 48
f 262 54 340
f 138 249 384
f 134 144 34
f 262 211 107
f 123 131 21
f 22 326 285
f 21 131 155
f 352 243 346
f 244 240 177
f 181 271 58
f 183 116 24
f 160 68 49
f 155 31 191
f 366 396 307
f 10 76 16
f 109 67 82
f 319 277 334
f 324 195 123
f 23 22 241
f 128 365 296
f 181 58 131
f 341 51 5
f 369 328 315
f 294 192 17
f 195 393 271
f 192 141 17
f 109 76 165
f 27 45 103
f 155 333 31
f 375 367 278
f 105 269 205
f 341 5 96
f 169 268 159
f 207 202 40
f 312 267 257
f 361 111 126
f 114 377 373
f 127 374 65
f 207 129 202
f 21 155 358
f 324 123 86
f 79 363 298
f 55 335 53
f 385 144 20
f 205 269 285
f 145 155 8
f 214 186 290
f 30 85 117
f 219 72 369
f 132 68 160
f 6 365 57
f 13 246 146
f 105 241 269
f 34 69 225
f 395 252 61
f 157 390 193
f 326 116 285
f 330 260 164
f 186 96 199
f 49 262 340
f 194 206 230
f 338 83 176
f 293 387 261
f 34 102 344
f 340 54 197
f 385 188 144
f 28 160 268
f 30 283 85
f 254 292 279
f 90 25 94
f 143 392 309
f 179 277 319
f 94 25 70
f 219 81 98
f 198 384 163
f 10 377 76
f 94 70 15
f 275 20 134
f 339 305 146
f 135 129 119
f 190 100 323
f 83 121 55
f 91 208 301
f 150 284 116
f 155 191 8
f 175 118 32
f 128 6 224
f 138 384 198
f 182 334 250
f 180 18 347
f 110 339 146
f 83 125 176
f 213 100 92
f 23 302 22
f 32 158 140
f 108 85 284
f 188 352 69
f 170 30 117
f 9 201 216
f 251 21 358
f 332 220 215
f 45 1 275
f 359 198 18
f 73 368 351
f 325 246 13
f 389 25 90
f 182 295 172
f 34 69 352
f 296 382 304
f 79 356 171
f 273 153 163
f 87 282 192
f 190 92 100
f 133 93 42
f 359 138 198
f 243 98 303
f 273 336 217
f 366 378 396
f 262 140 54
f 194 230 342
f 11 62 38
f 367 347 18
f 188 222 364
f 84 164 368
f 160 49 314
f 284 162 122
f 86 123 21
f 353 300 256
f 385 241 105
f 174 142 277
f 71 124 266
f 22 302 289
f 204 147 270
f 334 350 250
f 82 67 388
f 274 340 197
f 22 289 326
f 338 121 83
f 218 383 338
f 349 354 379
f 128 234 296
f 239 224 386
f 349 379 213
f 205 229 222
f 4 268 331
f 236 290 166
f 321 163 384
f 117 85 108
f 291 52 381
f 126 111 249
f 13 305 374
f 252 35 130
f 76 1 45
f 172 295 52
f 129 97 119
f 46 48 64
f 38 61 247
f 311 129 135
f 313 231 31
f 86 21 208
f 284 343 162
f 91 316 187
f 185 255 87
f 59 292 254
f 6 57 89
f 144 188 69
f 382 106 68
f 244 178 239
f 245 324 86
f 375 110 146
f 357 228 77
f 391 280 378
f 13 146 305
f 271 253 58
f 137 203 321
f 24 171 12
f 218 338 196
f 297 194 342
f 318 66 274
f 382 68 132
f 278 263 50
f 124 358 145
f 63 147 161
f 278 189 60
f 43 84 231
f 363 162 322
f 68 106 262
f 299 184 308
f 354 119 379
f 81 315 139
f 204 270 282
f 337 186 214
f 321 281 336
f 312 40 129
f 294 227 374
f 180 258 279
f 370 330 43
f 52 295 381
f 210 391 378
f 44 238 118
f 377 357 1
f 223 393 154
f 178 128 380
f 78 342 253
f 32 362 158
f 312 335 40
f 257 172 37
f 352 102 156
f 358 155 145
f 232 44 118
f 190 62 307
f 170 70 392
f 223 64 393
f 360 306 53
f 139 315 33
f 120 167 149
f 380 128 224
f 149 167 33
f 61 130 247
f 266 124 145
f 288 216 264
f 176 59 254
f 174 135 248
f 361 137 111
f 217 371 95
f 389 254 279
f 110 60 339
f 380 288 264
f 356 320 369
f 39 206 194
f 91 301 251
f 313 31 333
f 304 382 132
f 207 40 212
f 182 250 7
f 278 367 18
f 237 10 109
f 395 383 90
f 348 309 93
f 331 353 104
f 195 181 123
f 233 193 367
f 218 90 383
f 96 345 225
f 284 122 116
f 205 285 183
f 334 394 337
f 295 250 112
f 91 251 316
f 167 139 33
f 174 168 142
f 37 172 52
f 55 40 335
f 248 119 354
f 365 296 57
f 60 152 255
f 10 16 109
f 219 369 81
f 171 356 72
f 275 134 329
f 14 288 380
f 259 89 57
f 166 39 194
f 255 99 87
f 11 38 247
f 185 87 294
f 133 42 244
f 209 260 328
f 256 242 3
f 114 23 228
f 109 165 67
f 147 265 293
f 143 309 348
f 311 75 267
f 247 130 302
f 233 375 157
f 245 95 371
f 380 365 128
f 255 152 99
f 135 119 248
f 147 293 221
f 259 28 169
f 130 35 289
f 316 124 71
f 339 60 255
f 49 262 107
f 212 40 55
f 81 369 315
f 195 271 181
f 359 279 292
f 299 368 209
f 253 370 43
f 336 371 217
f 68 107 262
f 318 274 29
f 293 261 221
f 191 44 232
f 170 143 30
f 157 246 325
f 22 285 269
f 108 326 289
f 274 66 340
f 24 116 122
f 210 354 391
f 19 140 106
f 230 149 74
f 348 93 133
f 180 347 193
f 361 223 137
f 291 381 361
f 268 160 314
f 201 261 226
f 309 392 390
f 233 367 375
f 304 132 28
f 389 279 327
f 75 235 257
f 359 18 180
f 19 32 140
f 48 166 297
f 24 173 171
f 338 323 100
f 114 357 377
f 394 82 341
f 32 118 362
f 273 189 50
f 150 116 326
f 58 43 231
f 346 303 372
f 189 187 60
f 314 66 355
f 3 242 328
f 151 19 376
f 266 265 147
f 376 19 106
f 71 99 152
f 91 187 95
f 395 94 252
f 312 257 360
f 393 64 78
f 148 35 15
f 190 323 62
f 299 308 272
f 331 268 314
f 367 193 347
f 303 139 167
f 294 87 192
f 162 88 322
f 147 221 161
f 58 231 313
f 188 364 352
f 349 213 92
f 108 289 35
f 199 225 101
f 10 307 36
f 228 241 77
f 218 176 254
f 87 99 282
f 349 391 354
f 132 160 28
f 47 287 344
f 11 247 23
f 140 158 54
f 174 248 168
f 299 351 368
f 381 295 112
f 229 219 115
f 173 122 79
f 67 103 329
f 34 352 156
f 128 365 6
f 161 221 261
f 43 330 84
f 47 344 34
f 170 117 15
f 278 153 263
f 184 300 308
f 258 56 25
f 183 72 219
f 291 126 52
f 142 82 394
f 168 210 237
f 212 379 97
f 311 267 312
f 96 5 345
f 128 296 365
f 360 37 306
f 117 108 26
f 198 153 18
f 183 12 72
f 348 244 177
f 316 152 187
f 323 38 62
f 278 60 110
f 218 254 389
f 341 96 186
f 363 4 298
f 218 383 200
f 203 371 281
f 325 13 127
f 259 159 4
f 227 288 14
f 370 74 330
f 179 311 135
f 218 196 383
f 232 118 175
f 113 232 175
f 349 92 280
f 297 342 78
f 24 122 173
f 338 100 121
f 46 64 223
f 29 197 238
f 69 136 372
f 209 164 260
f 31 231 73
f 339 185 305
f 248 354 210
f 168 109 142
f 385 105 188
f 343 88 162
f 76 377 1
f 325 127 332
f 352 346 102
f 77 20 1
f 63 161 9
f 273 163 336
f 92 396 280
f 151 226 19
f 199 101 39
f 128 296 234
f 319 235 75
f 115 98 243
f 166 199 39
f 395 200 383
f 112 214 236
f 238 158 362
f 137 154 203
f 125 53 59
f 125 55 53
f 258 25 327
f 363 259 4
f 204 266 147
f 180 390 56
f 177 240 283
f 264 216 151
f 17 216 288
f 45 275 103
f 359 292 138
f 360 53 335
f 204 282 99
f 353 310 272
f 298 104 353
f 30 177 283
f 216 201 151
f 103 275 329
f 26 148 15
f 190 396 92
f 179 319 75
f 361 381 46
f 330 164 84
f 207 97 129
f 295 7 250
f 213 379 212
f 130 289 302
f 318 355 66
f 220 65 215
f 203 324 245
f 136 346 372
f 9 161 201
f 178 42 215
f 217 41 187
f 1 20 275
f 155 313 333
f 328 242 300
f 36 11 114
f 74 33 260
f 170 15 70
f 310 314 355
f 87 141 192
f 282 270 63
f 290 199 166
f 206 149 230
f 178 14 380
f 78 253 271
f 394 341 337
f 134 34 47
f 316 71 152
f 36 373 377
f 126 249 306
f 39 101 206
f 393 78 271
f 165 103 67
f 218 338 176
f 245 86 91
f 48 297 64
f 96 225 199
f 184 209 300
f 256 300 242
f 60 187 152
f 240 239 386
f 173 79 171
f 348 133 244
f 34 225 345
f 119 97 379
f 166 194 297
f 222 229 115
f 109 16 76
f 363 322 89
f 250 214 112
f 353 272 300
f 279 258 327
f 14 215 65
f 213 121 100
f 47 34 287
f 237 366 10
f 226 32 19
f 311 312 129
f 369 320 256
f 83 55 125
f 279 258 347
f 292 276 138
f 84 368 73
f 179 174 277
f 182 7 295
f 157 309 390
f 178 380 239
f 17 9 216
f 118 238 362
f 230 74 370
f 203 154 324
f 67 329 388
f 8 232 113
f 26 108 148
f 82 388 341
f 329 134 47
f 361 46 223
f 71 266 204
f 108 284 150
f 120 372 167
f 273 217 187
f 53 306 276
f 137 321 111
f 68 262 107
f 28 268 169
f 365 264 376
f 341 388 51
f 375 246 157
f 127 220 332
f 386 88 343
f 383 196 338
f 178 380 128
f 149 33 74
f 37 126 306
f 157 325 93
f 342 230 370
f 359 258 279
f 59 276 292
f 387 113 175
f 61 252 130
f 112 236 48
f 34 156 102
f 13 374 127
f 312 360 335
f 198 163 153
f 190 307 396
f 320 353 256
f 142 109 82
f 85 283 284
f 298 353 320
f 171 72 12
f 144 69 34
f 170 392 143
f 336 281 371
f 342 370 253
f 192 63 9
f 23 247 302
f 317 366 237
f 388 47 51
f 227 65 374
f 2 351 29
f 111 321 384
f 121 212 55
f 74 260 330
f 34 344 287
f 180 193 390
f 369 256 3
f 372 303 167
f 226 175 32
f 277 142 394
f 385 77 241
f 73 351 2
f 27 103 165
f 76 45 27
f 209 328 300
f 369 3 328
f 356 298 320
f 102 346 136
f 76 27 165
f 359 180 258
f 203 245 371
f 331 314 310
f 389 327 25
f 298 4 331
f 36 114 373
f 218 200 338
f 49 211 262
f 257 182 172
f 71 204 99
f 206 120 149
f 314 49 66
f 245 91 95
f 253 43 58
f 278 18 153
f 51 47 345
f 137 223 154
f 23 241 228
f 324 393 195
f 183 24 12
f 264 151 376
f 259 304 28
f 143 348 177
f 180 279 347
f 390 392 56
f 34 344 136
f 101 120 206
f 210 378 366
f 191 2 44
f 250 350 214
f 36 62 11
f 87 17 141
f 396 378 280
f 385 20 77
f 243 303 346
f 129 40 202
f 79 122 162
f 117 26 15
f 209 368 164
f 157 93 309
f 131 58 313
f 296 304 57
f 148 108 35
f 4 159 268
f 299 355 318
f 98 139 303
f 69 372 120
f 364 243 352
f 364 115 243
f 244 239 240
f 180 347 258
f 79 298 356
f 381 112 46
f 161 261 201
f 47 34 345
f 108 150 326
f 185 294 374
f 131 313 155
f 233 157 193
f 10 366 307
f 79 162 363
f 36 307 62
f 321 336 163
f 224 6 88
f 392 70 56
f 75 257 267
f 277 394 334
f 273 50 153
f 179 75 311
f 299 318 351
f 8 191 232
f 388 329 47
f 310 355 272
f 145 8 113
f 317 237 210
f 31 73 2
f 301 208 21
f 49 340 66
f 127 65 220
f 259 169 159
f 273 187 189
# 802 faces, 0 coords texture

# End of File