####
#
# OBJ File Generated by Meshlab
#
####
# Object domain166.obj
#
# Vertices: 571
# Faces: 1156
#
####
v 155.980606 330.505188 112.299889
v 159.416504 324.149017 108.848839
v 150.887344 326.992371 119.780258
v 153.822754 332.555115 113.996811
v 144.370255 338.215576 119.916168
v 163.308121 342.877197 120.624130
v 150.933243 328.659576 121.851585
v 158.805466 325.419250 116.040459
v 158.807327 353.787750 119.863457
v 167.091660 323.659973 108.164635
v 158.952499 328.430725 109.404854
v 148.072098 328.558685 120.212624
v 156.565887 343.122772 112.696716
v 152.947266 351.276459 123.293854
v 147.539352 343.138611 123.027405
v 164.466385 336.768494 117.608673
v 153.985809 343.759338 114.278847
v 152.945862 334.601685 122.584976
v 164.805054 351.301941 111.038406
v 153.038528 353.443787 119.819740
v 148.962097 351.234070 122.900146
v 152.288910 352.993347 117.703117
v 160.917267 343.109222 122.147873
v 162.839294 325.709290 115.924370
v 162.903015 345.167114 110.358101
v 156.001678 332.556061 112.320473
v 160.964844 349.250061 110.964760
v 152.939285 326.761749 119.758224
v 162.918213 351.294312 110.776451
v 146.768463 338.673553 122.444633
v 162.723892 326.347473 117.258957
v 160.851089 332.596130 109.053215
v 165.793106 328.425476 109.592140
v 148.685028 351.816010 122.192535
v 154.718506 338.706787 113.530884
v 151.624985 342.995605 116.042244
v 149.009644 330.526978 117.751305
v 165.139999 343.067139 115.432152
v 165.179855 355.742157 110.961853
v 164.031769 338.778107 119.058891
v 147.000107 336.667969 118.341652
v 165.745636 346.941376 111.519135
v 165.578079 325.485443 112.301628
v 158.896896 354.444214 113.261398
v 146.788391 347.154205 122.143661
v 150.911194 351.263947 123.214622
v 152.961746 328.508667 114.567009
v 152.946060 345.154205 123.500015
v 146.768906 340.796936 118.503860
v 158.026077 325.290710 111.356163
v 163.523636 349.251404 120.701393
v 148.151810 330.814911 121.271492
v 162.909958 326.407684 108.659485
v 158.947296 326.422852 109.350815
v 152.127045 351.288940 116.728577
v 149.720169 352.328400 121.367134
v 148.948746 332.589111 122.053680
v 153.812653 330.501801 113.979790
v 165.057541 351.295227 115.537048
v 152.948120 330.514648 122.369621
v 165.998322 345.160309 112.588577
v 159.619766 349.257751 122.881493
v 147.813370 340.799561 123.095558
v 167.064133 345.131348 110.088654
v 145.355133 342.922546 120.242050
v 159.577545 354.367035 112.636101
v 146.010803 335.329346 120.965363
v 146.185638 343.567352 119.430382
v 154.841934 328.458832 113.237823
v 162.425293 340.776642 121.180168
v 156.747360 345.154388 123.389000
v 156.193237 338.739410 112.577942
v 146.792679 332.760559 119.925293
v 152.946030 349.255615 123.481522
v 156.748413 353.113678 122.265060
v 165.711319 340.720795 110.314049
v 154.700714 327.657288 121.285904
v 156.757874 354.248108 117.505806
v 160.907608 351.261841 122.310249
v 158.707718 347.205750 123.112488
v 166.191284 326.483093 111.002304
v 165.716980 326.470978 109.588692
v 165.579834 332.559448 113.815063
v 165.011993 345.004578 110.266266
v 165.404587 323.833679 108.449013
v 162.916321 325.398010 115.165329
v 148.837875 336.392883 122.784836
v 146.250320 333.736420 120.174751
v 148.915115 328.644409 121.559685
v 163.153915 323.892212 108.702423
v 160.887085 340.756317 122.048340
v 165.911469 351.348145 112.456291
v 149.069855 351.134430 120.655571
v 166.755844 355.420898 111.028687
v 152.559723 353.034271 116.923470
v 162.860870 334.644501 108.953972
v 150.520248 351.471588 119.345024
v 148.873901 347.203156 123.284302
v 154.841324 330.505280 113.255226
v 158.555664 343.228302 123.075989
v 154.710114 351.305145 114.496887
v 166.073105 340.997559 111.025711
v 161.499237 323.928864 108.775856
v 151.170181 338.656616 116.014511
v 154.703949 347.205078 123.489853
v 160.850754 354.658081 115.465836
v 163.574554 329.112396 118.846550
v 163.843826 330.495026 119.025314
v 158.280609 334.749359 110.311371
v 160.926590 330.486633 108.888542
v 150.890884 338.742126 123.266884
v 165.807434 326.280273 112.739136
v 162.908081 338.707062 109.423729
v 147.662460 348.794220 120.793640
v 156.753784 326.687469 119.786911
v 166.230530 332.546112 110.955353
v 164.866318 326.396698 108.915565
v 160.909561 351.354004 111.099495
v 166.124207 353.349487 112.432747
v 163.160690 338.648071 120.362221
v 152.951614 328.636505 121.944527
v 154.703430 334.600708 122.589310
v 155.867737 337.788116 123.100143
v 144.931824 340.699188 120.374672
v 152.977966 343.057800 114.964066
v 150.384552 343.257538 117.004829
v 160.818954 353.538208 119.779930
v 167.072754 345.124817 110.041870
v 145.656403 338.719696 118.997147
v 153.130005 353.646118 117.423508
v 145.777603 344.927612 121.552170
v 152.946182 337.809143 123.046555
v 160.762085 330.532227 121.529015
v 156.751663 332.556427 122.433159
v 157.228760 326.425476 111.214088
v 165.394882 326.485443 113.567986
v 148.810898 338.715057 117.447495
v 150.131821 340.896484 116.894348
v 164.398590 334.605682 117.497025
v 149.312134 352.371033 122.558472
v 162.915009 332.566498 120.232277
v 164.162750 325.741058 114.524689
v 146.738251 340.803558 122.586296
v 163.891724 336.684662 119.072304
v 162.895782 324.349365 111.069771
v 151.330704 340.685516 116.050537
v 160.354141 340.962006 110.214958
v 154.930359 353.925323 115.658958
v 151.347702 352.718048 120.090698
v 164.836182 336.656586 109.270294
v 150.896988 349.254578 123.433731
v 158.806183 325.862122 117.488708
v 148.362442 328.376251 119.200066
v 152.262024 325.984955 115.241920
v 162.970657 336.566895 109.129242
v 164.815689 349.252808 111.000969
v 163.220871 340.665009 120.493515
v 156.871246 325.547394 113.322304
v 161.187378 323.908905 108.779182
v 157.216309 334.614441 111.255035
v 152.949722 327.670868 121.277451
v 164.755600 325.326630 113.201935
v 166.273880 328.390778 110.955727
v 162.326843 338.823181 121.106667
v 156.760040 325.391022 115.183678
v 158.111786 351.926117 112.353546
v 156.329590 340.857941 112.647743
v 146.447617 344.980194 122.379417
v 166.014648 330.500549 112.647537
v 150.926849 336.660767 116.056038
v 165.976059 343.200104 110.440781
v 156.742447 330.520264 122.290878
v 165.985413 343.109528 112.591347
v 163.436829 345.172516 120.653343
v 148.874191 349.225281 119.707817
v 154.707047 338.776550 123.218918
v 162.690491 343.185120 121.177505
v 161.940155 331.302917 120.918030
v 149.011032 336.678253 117.253174
v 158.398880 336.761292 110.540039
v 150.892059 334.602539 122.572433
v 163.028275 336.666260 120.335800
v 161.947006 352.499512 121.017372
v 152.862350 345.102295 115.299759
v 154.062241 345.186646 114.428368
v 149.235046 328.550446 118.023361
v 165.992325 328.650940 112.748749
v 154.702576 330.514130 122.374908
v 154.702209 352.648468 122.795357
v 147.008072 338.765503 118.298225
v 162.531525 328.539368 119.762138
v 148.901901 349.239044 123.185654
v 151.436966 328.482483 116.058372
v 160.873657 336.651062 109.478523
v 150.895599 347.205231 123.477745
v 152.774338 332.554535 114.697884
v 150.895813 343.103424 123.471092
v 162.786087 353.805328 117.372063
v 158.711853 340.780029 111.048096
v 154.856003 336.591492 113.361206
v 158.071915 330.493134 110.137276
v 153.926331 342.486267 114.185898
v 157.562088 340.528748 111.823326
v 144.396133 338.138184 119.898125
v 158.713989 349.262177 123.144852
v 148.493790 347.676147 119.215034
v 152.946045 347.205078 123.500015
v 158.741257 353.028595 122.282532
v 158.794922 326.762726 119.747673
v 153.828079 334.605957 114.004944
v 163.429596 326.934113 117.247650
v 157.140335 332.554840 111.212616
v 158.889526 330.462524 122.036392
v 165.866104 347.236237 112.579414
v 166.871292 323.746124 108.231094
v 147.924805 337.717560 122.951958
v 160.858170 324.780853 113.466095
v 154.703308 326.691681 119.784195
v 154.777100 343.083374 113.754707
v 160.485916 352.628418 121.934074
v 160.852448 354.217560 117.494049
v 158.128906 326.446991 109.929817
v 157.988800 329.317383 110.068245
v 150.876938 336.604919 122.891518
v 153.942261 325.948029 114.543640
v 165.606506 343.103363 113.815048
v 146.944962 334.597931 121.540405
v 159.295334 336.591156 109.975571
v 158.272247 353.340393 112.596748
v 152.782166 334.605743 114.709198
v 165.638046 328.451172 113.729111
v 152.887878 340.754791 114.827393
v 153.755539 326.445953 114.273323
v 150.899918 327.719940 121.236801
v 147.478882 332.780975 118.806702
v 159.601501 347.205902 122.848671
v 164.913345 347.082245 110.885010
v 149.951935 337.658966 123.144958
v 147.294189 345.151886 122.935257
v 164.316132 326.492584 115.201271
v 148.419159 326.584991 119.331543
v 154.703918 345.154022 123.489372
v 164.841385 332.542511 108.993187
v 164.936615 332.571686 115.585617
v 158.804337 352.635406 122.790825
v 161.357971 340.593903 109.871162
v 150.896179 340.762451 123.419434
v 158.980865 349.202942 111.709091
v 147.077667 334.715851 118.608711
v 163.751816 332.571533 119.044113
v 159.154755 353.277069 112.084442
v 165.970261 336.657043 112.597511
v 152.946091 343.103302 123.492950
v 165.624741 330.624084 113.761574
v 148.855392 338.724670 123.249741
v 154.734695 354.029541 117.483482
v 160.907120 353.231140 111.484352
v 145.835281 336.884003 119.156174
v 152.951828 336.594025 122.830643
v 146.115814 346.303864 121.632195
v 154.704453 353.118866 122.266624
v 150.815857 349.108704 117.876808
v 162.915756 332.542145 108.765518
v 147.013351 342.991211 118.742760
v 147.900955 346.158875 118.985779
v 157.332306 336.477081 111.391060
v 156.799210 354.348480 115.484871
v 150.895386 345.154205 123.483810
v 160.909378 343.077759 110.436501
v 150.054138 349.740021 118.865135
v 162.070038 334.607330 121.071983
v 165.935791 340.765320 112.581345
v 152.961685 353.033875 122.252029
v 160.754425 336.660645 121.872215
v 154.745880 325.572845 115.191902
v 160.667099 328.565399 121.130173
v 164.954742 334.596100 115.581116
v 144.346725 337.592499 120.018883
v 165.182571 345.153015 115.321632
v 165.097595 340.760559 115.466400
v 160.962936 345.153870 122.208298
v 162.837173 354.461731 115.400589
v 147.695450 330.796844 119.930313
v 164.628708 351.248993 117.478859
v 152.232376 325.916656 115.272293
v 165.578201 338.719788 113.797363
v 165.586060 336.657898 113.798271
v 154.864151 334.606903 113.286896
v 164.002396 328.370178 117.596245
v 162.869247 343.524750 110.088097
v 148.303406 350.651306 122.745583
v 158.812042 354.573578 115.462646
v 162.632156 351.394073 121.238365
v 157.275146 354.108093 113.959518
v 160.894623 326.416016 108.817780
v 159.581451 345.158295 122.815529
v 164.907913 353.324524 111.008957
v 156.756683 325.479523 116.026627
v 148.874207 330.553894 121.792488
v 166.242935 330.403198 110.840172
v 165.591690 347.204437 113.804985
v 153.057938 349.231628 115.551338
v 154.911102 353.242096 114.827202
v 148.762573 337.442627 123.093353
v 153.496704 353.638733 116.319077
v 151.764023 347.213379 116.509140
v 165.102768 355.707520 110.958595
v 160.869522 324.339905 111.075531
v 165.620407 349.254272 113.836548
v 148.394714 326.593414 119.201462
v 158.797180 351.290863 123.202797
v 145.447601 343.001129 121.378288
v 158.704559 336.538971 122.673851
v 160.997559 349.284851 122.285103
v 164.640137 340.774994 117.462692
v 164.881439 340.716431 109.820740
v 160.828857 338.745514 109.673424
v 159.091034 330.404938 109.487656
v 150.999969 352.788239 122.330788
v 165.734222 349.217865 111.757263
v 165.564346 334.607361 113.794899
v 146.158401 346.283020 120.878761
v 155.167313 325.812439 114.100739
v 146.493698 333.932953 119.451508
v 151.947296 349.251953 116.615425
v 156.182953 353.982330 114.556335
v 154.704010 332.554932 122.491867
v 155.440826 349.090088 113.881004
v 148.897873 327.701202 121.167252
v 150.899597 334.605865 116.006493
v 164.956146 338.553528 109.513496
v 162.795517 347.206909 121.270592
v 164.852737 330.498291 108.926323
v 164.861923 328.451813 108.897903
v 148.865082 340.759064 123.329239
v 156.755157 325.867310 117.486267
v 147.909943 349.061829 122.763161
v 156.754959 353.841980 119.866028
v 146.678894 345.153900 119.476074
v 150.906631 332.555481 116.017662
v 165.404373 353.228241 113.691498
v 160.716476 334.613068 121.763008
v 149.917923 338.650909 116.850624
v 148.860580 343.104034 123.345184
v 148.862946 345.154388 123.327507
v 158.742584 343.082550 111.384254
v 160.754425 326.949921 119.651695
v 167.365677 354.314606 111.008125
v 156.165970 336.857635 112.419182
v 148.526810 327.620270 120.887306
v 155.028702 326.464935 113.499969
v 166.225784 334.605713 110.965134
v 151.643982 344.987335 116.285561
v 158.903397 347.174835 111.648643
v 145.833099 344.872223 120.575546
v 156.845062 351.293640 113.117050
v 148.860199 345.117706 118.180832
v 152.947540 352.625977 122.774635
v 148.832779 343.152252 117.879753
v 156.725555 328.653900 121.870018
v 164.017090 354.090149 114.933739
v 147.821442 338.713348 123.076477
v 164.134842 343.951202 110.087730
v 150.457214 345.223175 117.277260
v 164.860596 334.571198 109.099159
v 147.421814 344.937195 118.856361
v 166.208817 336.648132 110.968590
v 162.969238 353.286011 111.053276
v 165.979141 332.549408 112.604919
v 160.856064 325.197998 115.204506
v 163.696411 352.648315 118.941628
v 164.343048 332.554504 117.488022
v 165.585709 340.759186 113.802834
v 165.812698 330.476746 109.624245
v 148.154480 330.713409 118.801888
v 153.895798 340.755798 114.118866
v 164.160980 345.174103 119.577042
v 157.097565 328.492371 111.056046
v 148.091660 350.196899 121.144348
v 165.158737 349.217773 115.560944
v 152.974503 347.190704 115.432228
v 145.920044 334.861206 120.096535
v 152.992615 326.259644 117.419258
v 164.570480 353.267273 115.428230
v 160.914352 354.758667 113.189331
v 157.299149 337.460876 123.113602
v 161.872131 342.092957 109.968307
v 166.722031 355.465698 111.028687
v 156.241165 326.472900 112.567917
v 157.402130 338.721924 111.659309
v 157.075272 330.508087 111.160027
v 148.871262 334.623230 122.348129
v 154.669113 349.259674 114.395432
v 159.667358 352.546112 122.810135
v 156.748550 347.205109 123.402481
v 160.856750 325.445679 116.033600
v 158.811005 338.742126 110.550392
v 150.570801 347.251678 117.540230
v 154.914169 345.208893 113.874962
v 165.811310 334.606628 109.726517
v 160.031891 339.558319 110.120506
v 159.663330 351.008209 122.939941
v 158.830322 345.176636 111.541168
v 154.703537 343.103271 123.474144
v 166.268478 343.257324 111.044846
v 161.375137 354.259552 112.178268
v 158.343140 338.725403 123.012360
v 155.969986 328.448792 112.297028
v 159.400955 342.909729 122.816353
v 164.055634 343.142029 119.517830
v 159.631439 338.197052 110.059288
v 146.515427 343.062653 122.499901
v 164.789124 324.713196 111.003654
v 156.773666 349.293732 113.051346
v 163.490738 347.210449 120.684067
v 158.174057 332.543030 110.250488
v 163.401718 351.174469 120.597115
v 162.975891 334.610748 120.301094
v 159.006073 351.149139 111.810654
v 148.624954 340.796967 117.699730
v 160.960358 334.529144 109.194702
v 164.560349 338.641449 117.575272
v 163.161545 323.871490 108.716042
v 148.916397 334.552582 117.347282
v 166.524139 355.400696 111.003960
v 154.653152 325.619263 115.986023
v 162.910416 330.500061 108.668381
v 152.781357 330.501282 114.698441
v 165.024414 330.510437 115.335892
v 164.004883 352.970490 117.333214
v 155.244217 347.194061 113.869545
v 164.896759 328.459930 115.284630
v 162.354858 327.399567 119.033287
v 154.703064 337.806976 123.059608
v 154.703217 351.277130 123.296951
v 159.199295 338.598694 122.714867
v 158.096100 337.234070 122.981544
v 148.365692 326.605469 118.975014
v 158.848648 324.974365 113.427742
v 153.866043 338.707397 114.068550
v 148.884201 332.552917 117.556320
v 158.863419 328.663696 121.649117
v 162.795395 349.262207 121.284561
v 164.228088 349.272430 119.585434
v 164.758194 345.175995 117.698128
v 160.785416 338.750214 122.005936
v 165.194489 347.221893 115.327446
v 156.738968 340.762451 123.325966
v 163.861710 330.496368 119.066032
v 162.880859 324.891724 113.434807
v 160.978928 347.203644 122.240639
v 159.127396 332.424011 109.624733
v 153.357880 353.129852 115.928635
v 154.687073 325.912201 117.450180
v 150.900955 332.558990 122.399849
v 156.744003 343.103821 123.371277
v 158.807083 354.303741 117.515472
v 158.757034 332.561401 122.204414
v 162.908417 328.453918 108.628609
v 166.129623 338.683350 110.958168
v 156.717926 347.209900 112.939011
v 159.297470 340.754578 122.776741
v 165.427139 355.712677 110.986031
v 156.673019 336.520813 122.910538
v 152.946075 332.555206 122.488960
v 144.348480 338.091797 119.955124
v 165.108337 338.787384 115.354767
v 162.958328 342.419983 109.889488
v 152.945938 340.763336 123.423492
v 156.656448 345.185638 112.828423
v 155.714767 353.279633 114.192955
v 158.777374 334.614319 122.344635
v 165.823761 336.551300 109.808327
v 165.978882 334.605682 112.598114
v 164.816010 349.239532 117.494644
v 164.246384 347.315979 119.535416
v 162.772430 345.159576 121.233322
v 150.917862 330.524750 122.246025
v 158.091492 328.110657 109.897720
v 158.797928 325.222565 115.191612
v 167.062836 345.140503 110.133942
v 160.935730 347.197845 110.877457
v 154.704300 340.763275 123.408440
v 151.010117 330.464996 116.031494
v 165.597122 345.154694 113.806053
v 162.045135 332.571167 121.030983
v 164.249527 324.093933 108.683594
v 166.729141 355.346924 111.028893
v 153.845627 336.656677 114.033775
v 145.315887 338.711182 121.206238
v 153.700851 328.183319 114.041885
v 162.910477 349.253845 110.689270
v 165.609909 351.302185 113.833908
v 154.713684 353.755981 119.853493
v 158.701691 345.161163 123.098480
v 149.104599 352.422028 122.282814
v 162.920959 340.740082 109.653778
v 160.901276 345.141876 110.727425
v 158.779495 327.743286 121.133644
v 148.167816 350.963684 122.247963
v 164.797333 354.577820 112.968773
v 165.948029 338.708008 112.590454
v 150.925903 352.565369 122.723976
v 156.758392 352.633423 122.776268
v 165.798630 332.636658 109.678474
v 156.038925 334.618561 112.357079
v 156.742432 327.696472 121.241707
v 165.930069 349.277435 112.433609
v 166.778931 323.762115 108.252121
v 162.913177 347.195404 110.618057
v 156.716751 338.697815 123.239639
v 162.896957 354.857941 113.039177
v 158.352417 340.766754 123.061409
v 161.106262 323.947845 108.774635
v 154.691803 336.592957 122.842934
v 154.748795 340.757660 113.601433
v 160.696899 332.556305 121.679146
v 148.304565 328.476410 121.104103
v 146.852798 336.704987 122.082153
v 160.848572 325.999268 117.449059
v 164.816513 347.124176 117.612297
v 165.747208 325.245636 110.709969
v 154.698730 328.636353 121.945251
v 162.794891 352.930176 119.760612
v 163.905823 330.496704 118.976036
v 145.651627 340.318512 119.085335
v 156.754471 334.601379 122.577019
v 156.750778 351.271912 123.258438
v 148.466003 326.581207 119.264458
v 145.039688 342.294220 120.656158
v 152.944336 338.775909 123.216721
v 165.085815 343.087952 110.114738
v 165.735825 351.477966 111.795815
v 147.610809 332.862701 121.340309
v 162.109024 336.669037 121.131691
v 165.871811 354.551727 112.112320
v 159.708771 352.244873 122.907150
v 164.080811 351.225250 119.540871
v 160.900909 328.451874 108.814697
v 151.124023 327.168335 117.697647
v 154.703674 349.255249 123.471046
v 163.791595 334.614594 119.063522
v 152.799805 336.655365 114.732841
v 165.796417 338.225983 109.999886
v 163.805420 355.779022 110.943062
v 149.024994 347.000031 118.595139
v 164.981216 336.505005 115.651047
v 164.709488 343.315338 117.604164
v 147.063217 347.072083 120.216270
v 154.369675 347.235107 114.421051
v 153.134583 351.231140 115.661995
v 145.591934 336.740021 121.054329
v 159.002884 324.786957 111.074562
v 151.411545 351.208710 117.720032
v 145.193207 340.809692 119.630974
v 152.320557 325.940582 115.212891
v 163.236343 323.871490 108.696754
v 158.610367 325.275818 110.190788
v 158.961853 334.572449 109.869492
v 160.545013 327.673950 120.622681
v 156.747894 349.254791 123.391335
v 156.988937 353.275513 113.395241
v 147.599106 349.114532 122.251244
v 164.793472 324.145386 108.663910
v 163.965088 340.816742 119.404427
v 147.514282 347.043945 122.823410
v 155.541794 351.304962 113.939003
v 154.851013 332.554993 113.269279
v 152.841080 338.702698 114.780518
v 151.238708 337.778503 123.106346
v 145.372360 340.763916 121.314705
# 571 vertices, 0 vertices normals

f 15 335 63
f 227 519 392
f 451 62 314
f 466 129 555
f 313 437 436
f 355 65 68
f 395 561 80
f 36 125 184
f 18 122 327
f 344 247 335
f 50 558 135
f 149 20 273
f 550 381 185
f 380 493 309
f 277 321 83
f 3 310 329
f 571 490 5
f 215 564 10
f 286 373 272
f 2 514 159
f 557 487 215
f 251 118 257
f 240 211 289
f 181 224 18
f 310 529 153
f 277 16 547
f 184 17 185
f 213 458 133
f 293 79 183
f 330 170 179
f 497 316 468
f 555 526 49
f 244 139 277
f 132 531 434
f 19 320 533
f 212 109 160
f 476 444 521
f 158 480 439
f 224 259 18
f 507 360 499
f 228 421 194
f 514 103 159
f 289 525 432
f 375 441 235
f 158 351 323
f 215 10 509
f 303 148 305
f 86 370 24
f 556 285 426
f 69 389 408
f 329 518 89
f 476 521 445
f 290 269 387
f 22 95 130
f 554 55 22
f 168 45 566
f 512 385 406
f 285 383 454
f 360 442 499
f 371 430 284
f 477 281 451
f 161 121 77
f 100 495 296
f 477 451 332
f 101 303 453
f 497 331 316
f 433 347 560
f 38 548 445
f 11 539 318
f 397 411 317
f 93 34 500
f 463 536 501
f 240 289 432
f 11 201 223
f 564 81 82
f 88 534 73
f 121 60 523
f 56 97 149
f 569 376 232
f 252 502 460
f 146 36 126
f 293 524 417
f 303 326 148
f 543 440 569
f 240 231 136
f 563 500 291
f 256 78 338
f 418 182 542
f 72 203 167
f 189 261 504
f 67 227 382
f 231 169 187
f 499 276 560
f 477 415 174
f 135 222 378
f 557 215 509
f 547 422 467
f 455 392 181
f 393 551 302
f 21 500 34
f 484 340 441
f 430 384 284
f 59 341 493
f 303 305 453
f 537 394 220
f 344 335 15
f 301 508 214
f 434 176 123
f 553 439 217
f 570 111 132
f 263 333 243
f 181 87 224
f 226 485 61
f 427 334 333
f 568 1 26
f 311 537 79
f 492 156 29
f 486 342 271
f 368 307 406
f 491 69 58
f 200 506 349
f 60 465 188
f 285 233 491
f 89 518 52
f 67 382 552
f 494 261 20
f 510 492 27
f 327 134 172
f 29 368 257
f 290 25 498
f 502 102 460
f 149 554 22
f 538 284 475
f 46 14 74
f 44 66 385
f 444 417 538
f 490 143 30
f 254 169 231
f 403 269 498
f 9 457 127
f 172 213 442
f 271 342 274
f 53 487 117
f 294 229 44
f 399 13 470
f 131 260 45
f 486 418 141
f 393 328 567
f 549 339 366
f 493 119 92
f 41 190 129
f 546 398 262
f 463 388 39
f 19 533 297
f 196 210 230
f 354 498 482
f 146 126 138
f 547 467 287
f 511 437 386
f 225 275 323
f 449 133 178
f 532 481 64
f 525 250 372
f 148 267 256
f 282 106 385
f 450 86 142
f 355 131 65
f 310 438 529
f 261 75 504
f 84 64 237
f 283 235 73
f 395 80 495
f 399 219 13
f 25 482 498
f 37 441 375
f 298 152 8
f 35 72 516
f 332 51 415
f 345 268 197
f 191 449 107
f 33 300 374
f 479 54 11
f 361 501 384
f 479 11 223
f 113 331 497
f 359 126 357
f 252 460 367
f 78 457 9
f 234 89 7
f 571 124 312
f 266 397 390
f 429 372 244
f 325 302 551
f 393 101 551
f 90 103 145
f 131 45 168
f 180 228 397
f 249 424 41
f 96 365 155
f 525 108 250
f 311 245 537
f 553 217 308
f 131 312 65
f 162 43 522
f 38 279 485
f 555 49 65
f 24 370 396
f 555 65 530
f 487 522 564
f 169 116 300
f 65 264 68
f 568 26 288
f 425 388 94
f 186 37 375
f 410 174 377
f 345 566 98
f 48 268 195
f 431 414 328
f 240 432 231
f 433 191 211
f 281 236 451
f 419 251 166
f 148 326 267
f 443 314 79
f 448 456 513
f 66 257 406
f 400 367 473
f 177 174 6
f 343 138 420
f 170 343 179
f 77 507 115
f 97 554 149
f 357 126 364
f 259 434 515
f 191 289 211
f 528 311 205
f 433 520 347
f 463 425 388
f 104 146 138
f 191 560 276
f 245 394 537
f 165 323 275
f 529 186 153
f 263 421 32
f 328 414 567
f 325 551 55
f 321 287 252
f 177 23 281
f 425 94 388
f 70 23 177
f 53 117 459
f 193 47 428
f 90 413 487
f 556 225 233
f 64 61 42
f 532 84 363
f 96 155 194
f 540 383 154
f 80 205 62
f 559 421 228
f 145 103 308
f 104 232 146
f 282 198 221
f 376 516 202
f 193 154 285
f 224 238 570
f 505 352 400
f 209 499 347
f 183 79 220
f 35 349 72
f 540 186 529
f 1 391 212
f 473 460 544
f 162 136 112
f 314 402 79
f 39 388 425
f 70 91 23
f 93 56 34
f 469 247 197
f 90 53 295
f 9 220 208
f 503 358 14
f 76 102 171
f 510 237 492
f 25 363 84
f 73 235 324
f 208 220 394
f 340 424 441
f 531 111 247
f 224 570 132
f 249 324 235
f 556 426 275
f 153 283 12
f 48 195 207
f 117 82 334
f 90 295 103
f 69 99 58
f 492 237 156
f 399 185 17
f 132 111 531
f 571 143 490
f 568 99 1
f 411 194 317
f 54 295 11
f 187 169 300
f 443 417 51
f 201 318 416
f 134 458 213
f 83 321 474
f 89 52 299
f 131 168 312
f 90 159 423
f 101 453 551
f 60 188 523
f 338 208 75
f 427 263 32
f 480 8 396
f 272 405 102
f 45 563 337
f 23 296 281
f 282 361 198
f 24 396 31
f 404 456 448
f 279 445 521
f 439 480 370
f 34 56 496
f 496 56 319
f 546 206 265
f 264 49 420
f 309 92 508
f 81 187 163
f 11 318 201
f 389 135 378
f 188 172 360
f 282 512 361
f 486 517 342
f 359 366 264
f 332 451 314
f 204 466 5
f 65 312 530
f 469 197 253
f 86 217 370
f 287 502 252
f 408 391 1
f 462 91 446
f 31 396 520
f 340 230 330
f 449 108 107
f 210 288 489
f 561 205 80
f 21 291 500
f 432 429 254
f 173 61 64
f 186 375 283
f 550 399 431
f 171 102 405
f 96 194 421
f 345 98 268
f 306 302 325
f 158 135 389
f 243 505 365
f 156 42 320
f 42 214 320
f 487 413 522
f 66 406 385
f 298 336 152
f 154 556 285
f 157 6 565
f 332 443 51
f 21 34 140
f 503 319 358
f 565 410 315
f 510 84 237
f 147 246 269
f 540 154 193
f 88 227 534
f 408 378 391
f 397 401 147
f 12 52 518
f 213 133 276
f 282 221 106
f 330 230 543
f 192 291 21
f 307 512 406
f 104 569 232
f 43 112 81
f 262 554 97
f 241 12 518
f 120 157 40
f 41 424 179
f 515 464 527
f 61 214 42
f 113 246 317
f 55 453 95
f 293 183 524
f 2 159 103
f 427 32 110
f 487 564 117
f 444 538 475
f 271 182 418
f 255 335 111
f 403 498 354
f 182 144 542
f 514 553 308
f 262 306 325
f 162 112 43
f 56 149 319
f 426 454 336
f 459 334 427
f 506 266 349
f 442 213 276
f 390 199 203
f 523 360 507
f 466 5 490
f 33 163 300
f 504 245 311
f 204 258 466
f 427 333 263
f 124 530 312
f 545 39 463
f 562 166 229
f 440 35 376
f 212 416 109
f 321 252 474
f 198 361 430
f 337 563 291
f 204 382 258
f 277 547 321
f 356 562 471
f 461 248 414
f 327 122 134
f 409 23 91
f 90 487 53
f 244 372 139
f 492 29 118
f 248 27 419
f 494 130 256
f 525 372 429
f 333 33 374
f 353 306 398
f 50 553 558
f 524 198 371
f 41 129 258
f 359 420 138
f 165 8 480
f 571 5 124
f 378 201 391
f 377 415 476
f 193 428 484
f 105 541 395
f 249 235 424
f 170 543 569
f 443 293 417
f 249 41 258
f 204 490 552
f 172 134 213
f 122 527 134
f 150 400 473
f 484 196 340
f 12 283 52
f 375 235 283
f 313 274 342
f 511 407 437
f 200 349 35
f 3 234 28
f 397 147 199
f 546 364 398
f 307 501 512
f 120 40 144
f 204 278 466
f 177 477 174
f 383 28 218
f 109 559 180
f 497 387 246
f 290 532 363
f 242 48 207
f 354 482 248
f 29 19 368
f 158 439 50
f 499 442 276
f 444 475 521
f 29 156 19
f 41 179 190
f 529 438 241
f 464 313 472
f 464 511 386
f 466 555 124
f 355 260 131
f 456 71 100
f 45 337 566
f 360 172 442
f 88 73 382
f 449 108 525
f 279 301 485
f 368 19 297
f 443 79 293
f 357 364 546
f 391 201 416
f 369 474 352
f 11 295 539
f 568 288 210
f 447 309 301
f 21 140 46
f 125 17 184
f 54 103 295
f 163 187 300
f 159 103 423
f 114 500 563
f 549 45 322
f 262 97 270
f 450 142 162
f 51 417 444
f 167 203 199
f 301 309 508
f 34 496 140
f 437 407 436
f 148 256 130
f 439 370 217
f 175 270 93
f 225 323 233
f 177 281 477
f 359 264 420
f 571 312 143
f 224 132 259
f 67 552 227
f 332 314 443
f 36 184 353
f 154 383 285
f 162 142 136
f 410 377 548
f 512 501 361
f 200 35 440
f 149 273 319
f 562 229 294
f 95 305 130
f 98 337 192
f 472 313 342
f 373 173 272
f 31 433 211
f 275 426 298
f 64 481 405
f 238 304 255
f 190 526 129
f 237 64 42
f 449 178 141
f 391 416 212
f 465 18 327
f 373 226 173
f 365 400 150
f 287 286 502
f 495 236 296
f 151 46 74
f 435 189 528
f 491 351 69
f 452 32 559
f 435 528 561
f 549 114 563
f 297 488 463
f 96 243 365
f 299 534 57
f 53 459 539
f 484 428 196
f 524 127 221
f 237 42 156
f 183 220 127
f 144 40 16
f 253 404 483
f 90 85 487
f 490 519 552
f 484 441 37
f 318 110 452
f 44 385 106
f 280 226 373
f 477 332 415
f 88 382 227
f 420 49 190
f 227 57 534
f 541 561 395
f 82 81 163
f 533 92 488
f 76 460 102
f 253 268 48
f 474 252 367
f 569 440 376
f 244 277 83
f 294 292 267
f 99 408 1
f 70 6 157
f 55 551 453
f 522 43 81
f 493 341 119
f 90 145 413
f 506 160 266
f 290 498 269
f 555 129 526
f 167 199 346
f 218 77 115
f 175 379 114
f 528 504 311
f 44 106 292
f 253 48 404
f 540 3 28
f 249 382 324
f 85 509 564
f 307 297 463
f 393 567 101
f 29 257 118
f 152 347 520
f 507 499 209
f 168 239 412
f 431 461 414
f 309 493 92
f 463 425 536
f 189 273 261
f 540 529 3
f 78 292 457
f 288 26 506
f 168 412 312
f 336 115 209
f 538 371 284
f 38 485 226
f 64 481 128
f 150 473 331
f 550 393 302
f 234 7 161
f 283 534 52
f 36 353 364
f 464 123 511
f 13 346 403
f 540 193 186
f 473 367 460
f 289 107 525
f 562 294 326
f 18 259 122
f 422 315 467
f 543 489 440
f 269 246 387
f 414 248 419
f 113 150 331
f 183 127 524
f 468 290 387
f 146 232 125
f 561 528 205
f 58 99 4
f 182 120 144
f 377 476 445
f 356 166 562
f 95 453 305
f 205 311 402
f 333 374 243
f 297 533 488
f 488 348 425
f 3 329 234
f 75 208 245
f 541 435 561
f 38 445 279
f 290 363 25
f 435 358 189
f 492 118 27
f 256 267 78
f 229 66 44
f 178 133 517
f 435 14 358
f 47 491 58
f 330 543 170
f 467 280 373
f 412 15 143
f 527 464 472
f 189 504 528
f 8 520 396
f 389 378 408
f 248 482 27
f 59 384 341
f 487 564 215
f 155 150 113
f 141 250 108
f 472 342 517
f 232 202 125
f 429 244 83
f 153 12 241
f 156 320 19
f 307 463 39
f 236 62 451
f 407 513 462
f 136 231 187
f 160 109 180
f 125 219 17
f 204 552 382
f 119 536 425
f 466 124 5
f 7 89 299
f 164 91 70
f 214 508 320
f 36 364 126
f 397 317 401
f 79 537 220
f 343 420 137
f 31 520 433
f 374 300 116
f 550 431 328
f 121 523 77
f 52 534 299
f 535 446 164
f 112 187 81
f 558 553 514
f 463 488 425
f 155 365 150
f 282 385 512
f 7 299 478
f 515 434 123
f 351 389 69
f 429 83 254
f 485 301 214
f 7 121 161
f 448 513 407
f 168 566 239
f 310 153 241
f 219 167 13
f 316 76 532
f 431 470 461
f 483 448 511
f 176 511 123
f 457 106 221
f 92 119 488
f 505 116 352
f 154 285 556
f 397 228 411
f 509 10 564
f 524 538 417
f 170 569 104
f 143 15 63
f 227 392 57
f 426 336 298
f 107 108 525
f 71 495 100
f 542 144 139
f 158 389 351
f 272 173 405
f 158 165 480
f 449 525 108
f 449 276 133
f 496 503 140
f 488 94 348
f 547 287 321
f 250 542 372
f 135 558 222
f 540 28 383
f 137 420 190
f 22 130 20
f 105 395 71
f 531 176 434
f 336 209 152
f 489 200 440
f 254 369 169
f 234 161 28
f 6 410 565
f 338 9 208
f 193 484 37
f 46 503 14
f 24 31 211
f 468 532 290
f 344 239 345
f 340 196 230
f 519 216 87
f 549 563 45
f 344 197 247
f 463 39 425
f 459 427 110
f 157 565 40
f 341 536 119
f 105 74 541
f 242 71 456
f 164 70 157
f 357 265 366
f 233 351 491
f 145 308 450
f 452 559 109
f 151 74 207
f 144 16 139
f 216 304 87
f 143 63 30
f 72 390 203
f 101 471 303
f 357 546 265
f 425 348 94
f 407 462 436
f 340 330 424
f 262 325 554
f 320 508 533
f 310 241 438
f 153 186 283
f 90 423 103
f 122 515 527
f 145 450 162
f 190 49 526
f 327 172 188
f 233 323 351
f 7 478 121
f 206 175 114
f 13 403 470
f 469 483 176
f 238 255 111
f 447 380 309
f 45 260 322
f 510 27 482
f 441 424 235
f 115 507 209
f 285 454 426
f 461 354 248
f 124 555 530
f 382 73 324
f 414 419 356
f 457 221 127
f 181 18 465
f 550 302 381
f 179 137 190
f 80 62 236
f 249 258 382
f 174 415 377
f 329 350 518
f 535 164 120
f 467 286 287
f 9 127 220
f 466 258 129
f 318 539 110
f 331 544 316
f 222 514 54
f 494 256 338
f 359 357 366
f 346 269 403
f 355 68 339
f 261 273 20
f 490 30 519
f 335 247 111
f 428 4 196
f 50 439 553
f 199 147 346
f 277 139 16
f 310 350 329
f 502 272 102
f 59 475 284
f 361 384 430
f 26 160 506
f 415 51 476
f 478 455 60
f 556 233 285
f 90 423 557
f 419 27 118
f 535 274 446
f 149 22 20
f 193 285 47
f 383 218 454
f 178 486 141
f 390 397 199
f 345 239 566
f 70 177 6
f 165 298 8
f 189 358 273
f 259 132 434
f 230 210 489
f 488 119 425
f 531 247 469
f 565 315 422
f 478 57 455
f 413 162 522
f 90 557 85
f 365 505 400
f 508 92 533
f 418 542 250
f 155 113 317
f 450 308 217
f 353 398 364
f 546 175 206
f 224 87 304
f 196 4 210
f 206 549 265
f 494 338 75
f 62 402 314
f 71 395 495
f 447 521 475
f 468 316 532
f 141 418 250
f 178 517 486
f 483 404 448
f 334 82 33
f 458 472 517
f 311 79 402
f 310 529 241
f 69 408 99
f 433 560 191
f 511 448 407
f 359 138 126
f 292 106 457
f 556 275 225
f 40 422 16
f 344 15 239
f 568 210 4
f 386 437 313
f 83 369 254
f 486 271 418
f 317 246 147
f 378 479 223
f 355 322 260
f 232 376 202
f 117 564 82
f 346 147 269
f 310 241 350
f 514 308 103
f 38 315 548
f 152 209 347
f 316 544 76
f 513 409 462
f 77 523 507
f 488 425 94
f 317 147 401
f 414 356 567
f 101 567 471
f 519 30 362
f 306 381 302
f 546 262 175
f 226 61 173
f 136 187 112
f 516 219 202
f 541 74 14
f 547 16 422
f 532 64 84
f 524 221 198
f 285 491 47
f 362 255 304
f 53 539 295
f 378 222 479
f 542 139 372
f 523 188 360
f 455 181 465
f 64 128 481
f 378 223 201
f 216 362 304
f 229 251 66
f 465 327 188
f 349 390 72
f 98 192 195
f 459 110 539
f 279 447 301
f 166 251 229
f 532 171 481
f 158 50 135
f 176 483 511
f 184 185 381
f 242 404 48
f 380 475 59
f 296 236 281
f 362 63 255
f 192 337 291
f 501 536 341
f 303 471 326
f 353 184 381
f 90 487 557
f 496 319 503
f 25 84 510
f 134 527 458
f 494 75 261
f 160 180 266
f 458 517 133
f 259 515 122
f 206 114 549
f 2 103 514
f 470 354 461
f 191 107 289
f 355 339 549
f 3 529 310
f 86 24 240
f 362 30 63
f 330 179 424
f 355 549 322
f 369 352 116
f 263 96 421
f 343 137 179
f 242 207 105
f 238 111 570
f 28 161 218
f 181 392 87
f 519 87 392
f 251 257 66
f 192 151 195
f 514 103 54
f 164 446 91
f 204 466 490
f 478 299 57
f 68 264 339
f 412 239 15
f 198 430 371
f 93 270 97
f 83 474 369
f 454 115 336
f 146 125 36
f 466 278 5
f 85 564 487
f 307 463 501
f 93 500 379
f 564 522 81
f 307 545 463
f 319 273 358
f 501 341 384
f 271 535 182
f 356 419 166
f 412 143 312
f 467 373 286
f 280 38 226
f 98 195 268
f 35 516 376
f 224 304 238
f 65 49 264
f 331 473 544
f 40 565 422
f 230 489 543
f 192 21 151
f 21 46 151
f 288 506 200
f 447 475 380
f 524 371 538
f 105 207 74
f 25 510 482
f 559 32 421
f 559 228 180
f 525 429 432
f 499 560 347
f 294 44 292
f 100 296 409
f 145 162 413
f 532 76 171
f 416 452 109
f 568 4 99
f 428 58 4
f 476 51 444
f 86 240 142
f 516 72 167
f 279 521 447
f 326 294 267
f 567 356 471
f 495 80 236
f 280 315 38
f 550 328 393
f 191 276 449
f 161 77 218
f 419 118 251
f 554 325 55
f 380 59 493
f 470 403 354
f 263 243 96
f 558 514 222
f 148 130 305
f 283 73 534
f 175 93 379
f 47 58 428
f 368 297 307
f 142 240 136
f 480 396 370
f 550 185 399
f 399 470 431
f 497 468 387
f 266 180 397
f 63 335 255
f 432 254 231
f 114 379 500
f 151 207 195
f 170 104 343
f 544 460 76
f 450 217 86
f 469 253 483
f 535 120 182
f 26 212 160
f 262 398 306
f 193 37 186
f 349 266 390
f 125 202 219
f 344 345 197
f 515 123 464
f 175 262 270
f 24 211 240
f 253 197 268
f 454 218 115
f 485 214 61
f 452 110 32
f 519 362 216
f 467 315 280
f 410 548 315
f 245 208 394
f 1 212 26
f 98 566 337
f 165 275 298
f 267 292 78
f 399 17 219
f 449 141 108
f 228 194 411
f 113 497 246
f 313 436 274
f 222 54 479
f 549 366 265
f 318 452 416
f 471 562 326
f 334 33 333
f 368 406 257
f 436 462 446
f 204 5 278
f 140 503 46
f 513 100 409
f 531 469 176
f 169 369 116
f 271 274 535
f 478 60 121
f 409 296 23
f 242 456 404
f 90 557 423
f 288 200 489
f 338 78 9
f 243 374 505
f 158 323 165
f 90 103 159
f 353 381 306
f 167 346 13
f 504 75 245
f 455 57 392
f 494 20 130
f 557 509 85
f 527 472 458
f 171 405 481
f 464 386 313
f 455 465 60
f 8 152 520
f 234 329 89
f 456 100 513
f 93 97 56
f 59 284 384
f 436 446 274
f 339 264 366
f 82 163 33
f 241 518 350
f 516 167 219
f 462 409 91
f 343 104 138
f 541 14 435
f 205 402 62
f 286 272 502
f 474 367 352
f 173 64 405
f 377 445 548
f 155 317 194
f 307 39 545
f 227 552 519
f 459 117 334
f 6 174 410
f 400 352 367
f 374 116 505
f 164 157 120
f 55 95 22
f 242 105 71
# 1156 faces, 0 coords texture

# End of File