####
#
# OBJ File Generated by Meshlab
#
####
# Object domain0561.obj
#
# Vertices: 1234
# Faces: 2464
#
####
v 214.495789 61.078468 82.052971
v 214.655960 61.051601 81.592964
v 214.619659 60.935612 82.037209
v 214.630356 60.950439 82.954506
v 214.513962 61.084782 82.936890
v 214.724274 61.066032 83.382141
v 214.393906 61.542603 82.039673
v 214.527664 61.541851 81.524948
v 214.440369 61.531666 82.932159
v 214.632782 61.517334 83.305603
v 214.379364 62.127083 82.013687
v 214.459686 62.093857 81.473244
v 214.471054 62.037106 82.907219
v 214.675003 62.019970 83.228554
v 214.521439 62.691299 81.083687
v 214.699219 62.704857 80.613708
v 214.548370 62.430634 81.032021
v 214.431320 62.608967 81.974411
v 214.531693 62.676296 82.484810
v 214.564865 62.371254 82.951790
v 214.562103 62.957485 81.020256
v 214.537338 62.959625 81.993279
v 214.477127 73.346863 74.073776
v 214.691391 73.351562 73.802795
v 214.594376 73.027016 74.043770
v 214.490616 72.962608 74.999405
v 214.382202 73.325478 75.000145
v 214.592026 73.025551 75.956451
v 214.476822 73.346603 75.926445
v 214.691406 73.351433 76.197205
v 214.404053 73.850586 74.071907
v 214.634628 73.850494 73.747581
v 214.283890 73.848442 74.999878
v 214.404480 73.850479 75.927818
v 214.641937 73.848656 76.239288
v 214.362610 74.423813 74.059196
v 214.603516 74.433060 73.679497
v 214.239105 74.423500 75.000008
v 214.381058 74.421761 75.931206
v 214.633545 74.421967 76.249039
v 214.341644 75.008141 74.043182
v 214.585251 74.989761 73.539093
v 214.248047 75.005539 74.999657
v 214.396652 74.994286 75.928391
v 214.643768 74.994087 76.236870
v 214.346252 75.592598 74.040031
v 214.529465 75.595833 73.527390
v 214.293854 75.577065 74.993324
v 214.465347 75.511444 75.903084
v 214.692978 75.484520 76.188400
v 214.389297 76.162628 74.034775
v 214.542587 76.176361 73.529884
v 214.407745 76.096886 74.950523
v 214.557892 76.131699 75.469421
v 214.582428 75.822067 75.930038
v 214.473694 76.660057 74.014740
v 214.602203 76.721214 73.560013
v 214.534042 76.737419 74.486259
v 214.525055 76.451889 74.991173
v 214.569717 76.999374 74.008270
v 214.938461 61.049538 81.123032
v 215.235916 61.135242 80.834076
v 215.158005 60.940350 81.101830
v 215.082687 60.773266 82.010033
v 215.084534 60.776493 82.990013
v 215.164627 60.937801 83.895645
v 215.018494 60.995403 83.826111
v 215.330063 61.037445 84.041763
v 214.807327 61.538097 81.028496
v 215.160217 61.547977 80.655434
v 215.121964 61.209736 83.930367
v 214.984802 61.607407 83.666664
v 214.691559 62.082230 80.950836
v 215.028976 62.061031 80.453369
v 215.063675 62.115467 83.501709
v 214.909454 62.782433 80.112129
v 215.208420 62.798237 79.719467
v 215.115784 62.449944 80.048988
v 214.747910 62.714127 82.979309
v 215.134247 62.655022 83.311935
v 214.885040 63.312153 80.017464
v 215.088715 63.267246 79.482162
v 214.656830 63.329609 80.985435
v 214.690338 63.308071 82.004936
v 214.998932 63.188763 82.905540
v 215.242905 63.103870 83.161766
v 214.986435 63.954380 79.054955
v 215.139893 63.923058 78.530319
v 215.120285 63.617100 79.026451
v 214.822418 63.878841 80.006775
v 214.781815 63.867840 80.992897
v 214.950531 63.797432 81.948608
v 215.173782 63.771019 82.406120
v 215.163391 63.412022 82.877754
v 215.031250 64.538864 78.085342
v 215.216873 64.545128 77.708542
v 215.161148 64.227692 78.059395
v 214.881012 64.475861 79.010956
v 214.835388 64.457787 79.996834
v 214.918716 64.426132 80.977318
v 215.107193 64.470688 81.509514
v 215.127808 64.125061 81.964188
v 214.950180 65.079704 78.026901
v 215.093430 65.027214 77.483498
v 214.874771 65.035973 79.002350
v 214.894302 65.024178 79.988113
v 215.053436 64.949448 80.904640
v 215.222443 64.881973 81.248344
v 215.036606 65.706024 77.083397
v 215.185669 65.689598 76.569267
v 215.130432 65.377312 77.035591
v 214.918945 65.620667 78.001823
v 214.975769 65.559341 78.972046
v 215.043091 65.501404 79.956123
v 215.174789 65.466980 80.410492
v 215.176849 65.176285 80.888397
v 214.981384 66.238335 77.011665
v 215.054016 66.205193 76.474312
v 215.020065 66.127060 77.945786
v 215.126831 66.176132 78.477661
v 215.118149 65.903015 79.009689
v 215.184113 65.694267 79.944214
v 215.008148 66.880058 76.049706
v 215.096542 66.819016 75.509415
v 215.074997 66.514023 76.002724
v 215.033417 66.721794 76.945549
v 215.139099 66.758316 77.472649
v 215.129395 66.470367 77.976707
v 214.994385 67.472206 75.049965
v 215.130386 67.427567 74.524254
v 215.103592 67.116531 75.011925
v 214.976776 67.375465 75.987694
v 215.088547 67.422020 76.523758
v 215.120972 67.064247 76.975273
v 215.049408 68.057861 74.095879
v 215.277100 68.083046 73.809090
v 215.162033 67.742119 74.064499
v 214.883926 67.993546 75.006325
v 214.961044 67.977646 75.941429
v 215.159073 67.961807 76.356323
v 214.982483 68.575722 74.071518
v 215.228058 68.574699 73.760338
v 214.835968 68.564568 74.999924
v 214.959656 68.562386 75.933098
v 215.205124 68.553871 76.284325
v 214.967316 69.148125 74.068863
v 215.219498 69.147980 73.750885
v 214.811462 69.148018 75.000000
v 214.962341 69.146523 75.932564
v 215.218689 69.146568 76.251167
v 214.980453 69.721664 74.071663
v 215.229248 69.720352 73.762627
v 214.839539 69.731064 75.000664
v 214.981552 69.720642 75.928680
v 215.229675 69.720200 76.236992
v 215.032898 70.246605 74.089867
v 215.273575 70.223053 73.800377
v 214.880569 70.305664 74.999107
v 215.035690 70.245949 75.905449
v 215.275238 70.221581 76.198273
v 215.109680 70.591042 74.037483
v 214.942398 70.869781 74.998451
v 215.027130 70.930038 74.466713
v 215.025772 70.930573 75.535072
v 215.122604 70.589447 75.963028
v 214.931015 71.528152 75.002045
v 215.023178 71.467987 74.464378
v 215.027115 71.467957 75.533310
v 214.982224 72.151695 74.080765
v 215.260880 72.176399 73.786949
v 215.114136 71.806717 74.032158
v 214.810257 72.088753 75.000725
v 215.100464 71.805351 75.966103
v 214.983276 72.152885 75.923874
v 215.260986 72.173958 76.213943
v 214.780212 72.668404 74.037910
v 215.148392 72.713455 73.718117
v 214.636322 72.609367 75.000038
v 214.779434 72.668549 75.962204
v 215.148300 72.712311 76.281136
v 215.087723 73.262970 73.611542
v 215.089035 73.262840 76.383286
v 215.067902 73.843140 73.532143
v 215.074661 73.837700 76.424988
v 215.039093 74.390991 73.382088
v 215.071823 74.421936 76.436272
v 214.916336 75.076492 73.115089
v 215.237930 75.181595 72.841476
v 215.119934 74.826553 73.096283
v 215.074966 75.005875 76.420036
v 214.841843 75.601318 73.058144
v 215.194916 75.607262 72.725372
v 215.092926 75.562469 76.349869
v 214.813766 76.180344 73.032028
v 215.150711 76.179726 72.632843
v 214.831604 76.104782 75.936569
v 215.167130 75.982246 76.198097
v 214.805557 76.785522 73.045479
v 215.140121 76.747818 72.526627
v 214.727966 76.787949 75.001892
v 215.098618 76.746902 75.467682
v 215.112930 76.345261 75.898849
v 214.904984 77.338661 73.041565
v 215.123428 77.350777 72.530647
v 214.723404 77.349030 73.990448
v 214.994553 77.254837 74.910904
v 215.223602 77.169273 75.205971
v 215.010925 77.853584 73.045471
v 215.182556 77.895233 72.559380
v 214.992081 77.828316 73.961349
v 215.180939 77.825134 74.403030
v 215.163147 77.476738 74.879486
v 215.143036 78.186127 73.018692
v 215.180984 78.137802 73.969757
v 215.658447 61.107513 80.722321
v 215.660461 60.866543 81.069946
v 215.649704 60.697113 82.002319
v 215.650269 60.698227 82.996811
v 215.661987 60.877934 83.920799
v 215.683609 61.097824 84.153084
v 215.633118 61.526093 80.422997
v 215.367264 61.519802 83.979134
v 215.780441 61.398083 84.184265
v 215.392944 62.160610 80.051559
v 215.733154 62.309708 79.766838
v 215.689514 61.933598 80.087753
v 215.656509 61.812977 83.982140
v 215.549133 62.224415 83.714500
v 215.651382 62.721043 79.446632
v 215.649048 62.696922 83.493607
v 215.388031 63.326500 79.029121
v 215.701691 63.416702 78.577530
v 215.687180 63.081440 79.052719
v 215.661972 63.152710 83.268387
v 215.415634 63.947086 78.056984
v 215.725342 64.028061 77.709045
v 215.707581 63.724499 78.092567
v 215.655975 63.536892 82.954552
v 215.655960 63.911720 82.586311
v 215.605347 64.419159 77.367126
v 215.400482 64.403839 81.946030
v 215.730438 64.282135 82.259651
v 215.360413 65.048096 77.002922
v 215.656540 65.055054 76.505356
v 215.634171 64.739487 76.986481
v 215.698517 64.629799 81.910545
v 215.663162 65.001343 81.465324
v 215.447510 65.682533 76.034180
v 215.695831 65.669769 75.523499
v 215.680801 65.366180 76.016403
v 215.631393 65.383942 81.021797
v 215.622101 65.693321 80.535538
v 215.538055 66.283493 75.064796
v 215.795959 66.304489 74.710083
v 215.731262 65.978905 75.054070
v 215.217209 66.174248 75.957695
v 215.364136 66.210571 78.996208
v 215.643784 66.223740 79.502403
v 215.610275 65.994354 80.019966
v 215.299591 66.775192 74.982910
v 215.623276 66.764526 74.465019
v 215.373062 66.788231 77.990662
v 215.664246 66.786964 78.490059
v 215.653534 66.505661 78.997993
v 215.401367 67.430786 74.043427
v 215.772552 67.514053 73.758278
v 215.675980 67.125748 74.033081
v 215.353165 67.395073 76.999336
v 215.659424 67.378639 77.492920
v 215.657578 67.087044 77.994766
v 215.679962 67.997421 73.629433
v 215.625717 67.706169 77.023102
v 215.550430 68.076797 76.696373
v 215.661484 68.564461 73.578423
v 215.640717 68.569252 76.535622
v 215.657791 69.147949 73.563721
v 215.656128 69.145477 76.457741
v 215.660416 69.732780 73.576981
v 215.660446 69.732704 76.423080
v 215.673141 70.307198 73.614120
v 215.673172 70.307190 76.385727
v 215.284286 70.937981 73.964966
v 215.711899 70.873062 73.679703
v 215.286148 70.938484 76.033157
v 215.711243 70.872658 76.320221
v 215.285904 71.459473 73.966507
v 215.709717 71.523682 73.679733
v 215.284058 71.460007 76.035400
v 215.710419 71.523232 76.320381
v 215.673279 72.090294 73.612724
v 215.673279 72.090248 76.387482
v 215.654236 72.668015 73.559456
v 215.654251 72.668053 76.440300
v 215.648849 73.250854 73.516045
v 215.649200 73.250626 76.477989
v 215.647049 73.828369 73.445633
v 215.648117 73.835999 76.493889
v 215.645355 74.307945 73.296402
v 215.648056 74.421921 76.487885
v 215.659119 75.142494 72.729713
v 215.650314 74.734650 73.020744
v 215.646927 75.006165 76.465195
v 215.647614 75.603584 72.509483
v 215.639709 75.576500 76.390297
v 215.566849 76.092155 72.318329
v 215.646561 76.029930 76.235443
v 215.481461 76.815369 72.092392
v 215.832321 76.865456 71.778862
v 215.679855 76.495758 72.039680
v 215.648605 76.425133 75.949532
v 215.647690 76.826653 75.609444
v 215.420700 77.357582 72.049469
v 215.757980 77.368950 71.672028
v 215.656799 77.227097 75.309639
v 215.394211 77.957375 72.046783
v 215.741348 77.920242 71.535248
v 215.655228 77.604271 74.959618
v 215.656433 77.974617 74.585472
v 215.488632 78.511497 72.042046
v 215.712006 78.521988 71.532288
v 215.294800 78.532471 72.982193
v 215.451050 78.435143 73.924843
v 215.736404 78.346748 74.262154
v 215.614822 79.018097 72.048401
v 215.791870 79.056305 71.569153
v 215.568817 79.001907 72.965302
v 215.745041 79.020576 73.422874
v 215.716507 78.687256 73.911331
v 215.762039 79.323486 72.023529
v 215.763443 79.313766 72.974770
v 216.220306 61.106209 80.724045
v 216.220795 60.869492 81.071648
v 216.231659 60.698063 82.003151
v 216.232239 60.697067 82.997688
v 216.221497 60.872440 83.924316
v 216.205933 61.102196 84.176010
v 216.251068 61.515228 80.417656
v 216.161301 61.472229 84.202049
v 216.161331 62.291878 79.739319
v 216.197220 61.924347 80.077377
v 215.965179 62.072094 83.940643
v 216.178482 61.862450 84.071213
v 216.232559 62.650772 79.400101
v 216.224350 62.229469 83.856972
v 216.223740 62.672756 83.559616
v 216.236908 63.318630 78.518555
v 216.235367 62.989841 78.997581
v 216.224731 63.147774 83.281639
v 216.223160 63.963699 77.536766
v 216.239532 63.629356 78.030289
v 216.231766 63.557186 82.975182
v 216.231934 63.944115 82.622894
v 215.954971 64.480934 77.012383
v 216.285538 64.587997 76.575424
v 216.280365 64.281090 77.070877
v 216.234665 64.331245 82.306023
v 215.982773 65.099617 76.032227
v 216.292633 65.198151 75.590836
v 216.290161 64.890724 76.080673
v 216.234283 64.694862 81.944298
v 216.233749 65.053680 81.560066
v 216.003784 65.709877 75.064560
v 216.321106 65.833443 74.772652
v 216.291458 65.508438 75.116310
v 215.963989 65.577026 80.955788
v 216.234406 65.399513 81.198242
v 216.239990 66.239716 74.452095
v 215.960129 66.180725 79.979424
v 216.300797 66.009804 80.393242
v 216.237518 65.701538 80.849808
v 215.976303 66.846382 74.047119
v 216.334839 66.996124 73.795784
v 216.279358 66.617889 74.083427
v 215.979095 66.752220 78.969360
v 216.295288 66.630272 79.397919
v 216.287201 66.342964 79.897980
v 216.254898 67.421928 73.631630
v 215.976212 67.343582 77.972427
v 216.296890 67.230042 78.405495
v 216.289413 66.936729 78.904007
v 216.236816 67.979317 73.539909
v 215.941650 67.975937 76.998993
v 216.290009 67.840630 77.419792
v 216.290543 67.541527 77.916397
v 216.234039 68.561928 73.512108
v 216.265213 68.200600 76.963707
v 216.195175 68.627045 76.684441
v 216.233963 69.147987 73.512138
v 216.234192 69.151611 76.534477
v 216.233856 69.734138 73.513130
v 216.233902 69.733986 76.492882
v 216.233566 70.320908 73.528908
v 216.233627 70.320923 76.471107
v 216.239426 70.905342 73.544899
v 216.239441 70.905342 76.455170
v 216.237579 71.494232 73.544411
v 216.237579 71.494232 76.455490
v 216.235153 72.078575 73.528038
v 216.235245 72.078636 76.477936
v 216.233917 72.664062 73.512039
v 216.234024 72.664009 76.487999
v 216.233994 73.250000 73.499992
v 216.233887 73.250015 76.493958
v 216.234940 73.830803 73.459976
v 216.232788 73.835381 76.477989
v 216.246536 74.314903 73.314629
v 216.228119 74.418205 76.442085
v 216.222885 75.141960 72.705284
v 216.231049 74.738731 73.025429
v 216.208420 74.994858 76.385712
v 216.207336 75.580414 72.408379
v 216.156647 75.544922 76.286697
v 215.963120 76.209480 72.039581
v 216.326660 76.380356 71.803925
v 216.274429 75.996407 72.089890
v 216.065750 76.005623 76.166275
v 216.257065 76.805862 71.610977
v 216.176575 76.356949 75.898956
v 216.247040 76.770638 75.578506
v 216.214951 77.325920 71.392166
v 216.225861 77.216370 75.295029
v 216.085510 78.005508 71.113174
v 216.409790 78.111542 70.841248
v 216.291885 77.756516 71.096230
v 216.232391 77.622208 74.975662
v 216.233307 78.030281 74.648621
v 216.023270 78.530571 71.065590
v 216.367889 78.537415 70.727715
v 216.270325 78.466370 74.350128
v 216.016632 79.118492 71.075569
v 216.347931 79.110825 70.659592
v 216.212082 78.872101 74.024712
v 216.184799 79.207718 73.659996
v 216.161758 79.610924 71.051445
v 216.417496 79.626495 70.570900
v 215.967834 79.662872 71.982300
v 216.028122 79.611076 72.961250
v 216.320023 79.606598 73.320251
v 216.298950 79.948158 71.021950
v 216.213379 80.004051 72.002190
v 216.311829 79.910667 72.962402
v 216.648178 61.137424 80.822029
v 216.720306 60.948952 81.104065
v 216.798035 60.774918 82.009865
v 216.798630 60.774876 82.989967
v 216.725647 60.923038 83.902397
v 216.566803 61.034531 84.070969
v 216.784302 61.556236 80.614754
v 216.575180 61.549023 84.009613
v 216.779068 61.224659 83.953499
v 216.946960 61.591709 83.686615
v 216.524017 62.123451 80.006004
v 216.881790 61.994415 80.319412
v 216.420364 62.049709 83.902550
v 216.828156 62.129444 83.585281
v 216.794083 62.667130 79.502235
v 216.858902 62.325703 79.947731
v 216.761032 62.663231 83.349113
v 216.815674 63.326786 78.522896
v 216.816971 63.019588 79.015755
v 216.657440 63.120174 83.184601
v 216.815643 63.927544 77.531891
v 216.815552 63.622032 78.024193
v 216.758698 63.459213 82.895088
v 216.811172 63.855572 82.548798
v 216.819382 64.529518 76.541130
v 216.819031 64.229492 77.037193
v 216.729858 64.275070 82.244011
v 216.830261 65.165131 75.555893
v 216.821411 64.829109 76.046356
v 216.769806 64.627541 81.906891
v 216.805649 65.005966 81.467484
v 216.741837 65.818810 74.751610
v 216.771805 65.490486 75.110085
v 216.513016 65.590721 80.963860
v 216.847549 65.401733 81.033737
v 216.860580 65.717522 80.647667
v 216.809875 66.193558 74.429482
v 216.743362 66.052391 80.281479
v 216.817566 66.954155 73.764351
v 216.819077 66.567383 74.059319
v 216.762863 66.341187 79.888084
v 216.766998 66.644089 79.404839
v 216.810745 67.406784 73.610458
v 216.773117 66.956139 78.911888
v 216.831467 67.270119 78.445084
v 216.816818 67.975777 73.543869
v 216.820267 67.603157 77.951157
v 216.820602 67.912720 77.461571
v 216.816086 68.560120 73.544601
v 216.820801 68.270210 77.002304
v 216.819672 68.668251 76.688599
v 216.810486 69.147644 73.563118
v 216.823013 69.149429 76.513336
v 216.811417 69.733994 73.559486
v 216.812531 69.733276 76.446487
v 216.814514 70.320541 73.545837
v 216.814453 70.320549 76.454147
v 216.820404 70.905098 73.528900
v 216.820374 70.905090 76.471085
v 216.818588 71.491653 73.528198
v 216.820053 71.491936 76.486984
v 216.816315 72.075737 73.544762
v 216.818741 72.077393 76.477989
v 216.811600 72.663803 73.559334
v 216.816360 72.661751 76.455299
v 216.808380 73.249420 73.569794
v 216.807663 73.247787 76.425140
v 216.803009 73.837151 73.568176
v 216.793671 73.823654 76.385300
v 216.827850 74.387665 73.508247
v 216.740082 74.377670 76.287117
v 216.661514 75.184418 72.790733
v 216.743271 74.846153 73.108505
v 216.624710 74.912201 76.217697
v 216.779633 75.618050 72.538467
v 216.560455 75.606339 76.004730
v 216.775940 75.279991 75.968384
v 216.889175 75.624458 75.540039
v 216.725677 76.385811 71.808197
v 216.771927 76.027748 72.112236
v 216.402039 76.111221 75.903130
v 216.753036 76.204079 75.483757
v 216.803802 76.796227 71.581863
v 216.702057 76.749809 75.320786
v 216.822327 77.251915 71.332916
v 216.653839 77.183968 75.179138
v 216.831116 78.072754 70.730125
v 216.823166 77.664909 71.022064
v 216.769257 77.541458 74.914772
v 216.847504 77.977745 74.638382
v 216.819351 78.532280 70.506554
v 216.821655 78.491402 74.403275
v 216.741898 79.028877 70.324303
v 216.535980 79.092697 73.980034
v 216.905594 78.907043 74.196198
v 216.678604 79.760490 70.132439
v 217.021591 79.789604 69.801979
v 216.860229 79.429169 70.049149
v 216.859772 79.289368 73.909256
v 216.819611 79.682487 73.555664
v 216.764160 80.211327 70.090034
v 217.026459 80.205376 69.762550
v 216.460541 80.295738 70.994720
v 216.429733 80.317886 71.996605
v 216.617294 80.194016 72.927895
v 216.916000 80.088135 73.238312
v 216.883743 80.547928 70.033661
v 216.718292 80.776001 71.022270
v 216.863068 80.843712 70.511963
v 216.756683 80.741127 71.963394
v 216.910690 80.696793 72.410027
v 216.892395 80.407257 72.887222
v 216.925018 81.089508 71.028954
v 216.940155 80.928322 71.949615
v 216.943863 61.062817 81.120033
v 217.224762 61.061874 81.594994
v 217.258026 60.942890 82.039673
v 217.255646 60.944729 82.957634
v 216.883484 60.994217 83.837044
v 217.175446 61.057423 83.390175
v 217.152649 61.519512 80.981628
v 217.414703 61.520741 81.481895
v 217.267624 61.522335 83.327263
v 217.304901 62.191868 80.572411
v 217.370956 61.840893 81.017471
v 217.220795 62.030750 83.256203
v 217.307251 62.855228 79.591057
v 217.314453 62.542480 80.080231
v 217.151215 62.716782 83.011597
v 217.350372 62.384491 82.962326
v 217.432877 62.721870 82.524643
v 217.314285 63.444038 78.591438
v 217.316849 63.148506 79.090195
v 216.982437 63.215794 82.899628
v 217.296509 63.290085 82.457306
v 217.320419 64.024483 77.588165
v 217.322418 63.729057 78.086876
v 217.228912 63.778687 82.262749
v 217.324554 64.606316 76.584885
v 217.320160 64.319145 77.089157
v 217.066086 64.401215 81.946022
v 217.325684 64.118813 81.942093
v 217.363312 64.472115 81.503960
v 217.322418 65.202797 75.715157
v 217.346832 64.900169 76.099144
v 217.252274 64.892494 81.253990
v 217.088348 65.671364 75.037201
v 217.444122 65.594444 75.371613
v 217.305008 65.198952 80.898941
v 217.317886 65.554352 80.428482
v 217.326279 66.294731 74.574615
v 217.406937 65.926315 75.001556
v 217.062042 66.149956 79.950172
v 217.355682 65.883995 79.970604
v 217.392365 66.203690 79.491066
v 217.232468 66.985580 73.841782
v 217.322998 66.678116 74.120758
v 217.096283 66.777672 78.983917
v 217.420898 66.524124 79.011742
v 217.447525 66.845665 78.632477
v 217.320984 67.438301 73.723938
v 217.326157 67.233391 78.286751
v 217.356689 67.977753 73.662117
v 217.346893 67.536087 77.903595
v 217.351288 67.843582 77.420044
v 217.329697 68.528900 73.702560
v 217.371078 68.182320 76.942474
v 217.410965 68.577293 76.580994
v 217.275757 69.143654 73.721153
v 217.348984 69.116562 76.345940
v 217.278610 69.737335 73.726021
v 217.291916 69.733826 76.293335
v 217.337814 70.355598 73.688675
v 217.337631 70.356636 76.311180
v 217.377914 70.917847 73.624153
v 217.380737 70.918877 76.385536
v 217.376526 71.481766 73.623482
v 217.390396 71.491554 76.411438
v 217.339020 72.043648 73.688034
v 217.380692 72.066566 76.388077
v 217.280045 72.659241 73.724655
v 217.334885 72.629219 76.301888
v 217.249039 73.236656 73.752930
v 217.257492 73.235130 76.256821
v 217.192139 73.751221 73.790527
v 217.195724 73.738991 76.201210
v 217.334274 74.099197 74.036263
v 217.216934 74.508286 73.960236
v 217.366013 74.400337 74.510307
v 217.137711 74.433922 75.980621
v 217.329559 74.094902 75.955986
v 217.352173 74.399742 75.487061
v 216.905136 75.090271 73.091423
v 217.268814 74.969017 74.005318
v 217.348312 74.671791 74.996017
v 217.254303 75.045898 74.993950
v 216.925537 74.941162 75.929382
v 217.165146 75.567375 72.990807
v 217.361618 75.612564 73.509315
v 217.337372 75.348862 73.998535
v 217.305573 75.633720 74.451691
v 217.159164 75.549049 75.000694
v 217.061035 76.248543 72.056999
v 217.382980 76.198418 72.512337
v 217.412323 75.883995 72.998238
v 217.099442 76.175926 74.991325
v 217.372040 76.188103 74.480804
v 217.301514 76.876862 71.706543
v 217.368652 76.511894 72.036865
v 217.068619 76.758820 74.965630
v 217.445343 76.794258 74.501564
v 217.401474 77.297127 71.397598
v 216.998520 77.291245 74.898903
v 217.399246 77.380592 74.574913
v 217.397125 78.064636 70.692955
v 217.403320 77.680725 71.037338
v 217.387375 77.925095 74.451004
v 217.379517 78.494812 70.386421
v 217.331406 78.475456 74.293259
v 217.133072 79.136032 70.034431
v 217.502518 79.292030 69.774529
v 217.444778 78.905792 70.066071
v 217.248123 78.926842 74.152428
v 217.434952 79.724548 69.577621
v 217.354462 79.284813 73.899139
v 217.429626 79.703194 73.585770
v 217.416779 80.258476 69.426239
v 217.406128 80.137512 73.284332
v 217.041946 80.914024 69.990120
v 217.365555 80.847061 69.503021
v 217.411392 80.501381 72.936440
v 217.436111 80.876991 72.473328
v 217.235611 81.432953 70.027946
v 217.444855 81.451187 69.518532
v 217.170303 81.404953 70.941963
v 217.414841 81.445747 71.496040
v 217.375870 81.213333 72.004120
v 217.414413 81.918686 70.017471
v 217.556137 81.981857 69.567749
v 217.483765 81.981140 70.475906
v 217.427002 81.729126 70.992020
v 217.558502 82.218613 70.007080
v 217.389572 61.079178 82.053635
v 217.372330 61.081860 82.940323
v 217.521622 61.566200 82.018623
v 217.453918 61.530609 82.935242
v 217.475357 62.201202 81.056023
v 217.582047 62.116737 81.999603
v 217.429581 62.042934 82.907043
v 217.446899 62.806801 80.061836
v 217.591110 62.718430 81.006828
v 217.565430 62.676662 81.980400
v 217.486282 63.389164 79.062706
v 217.615097 63.301941 80.008636
v 217.630051 63.289116 80.996315
v 217.522339 63.275265 81.954659
v 217.511063 63.963055 78.051239
v 217.761993 63.869766 79.010277
v 217.705383 63.872620 79.995010
v 217.636566 63.868664 80.992432
v 217.440887 63.797951 81.912239
v 217.517761 64.547928 77.048454
v 217.811188 64.422798 77.977333
v 217.947922 64.477669 78.507889
v 217.901886 64.226952 78.995659
v 217.900314 64.493721 79.457008
v 217.773193 64.437096 80.005829
v 217.558838 64.427299 80.975296
v 217.608871 65.127182 76.064552
v 217.826385 64.993019 76.983894
v 217.983139 65.049873 77.502068
v 217.973053 64.761421 78.004570
v 217.719910 65.037842 80.002792
v 217.915985 65.044403 79.470711
v 217.435745 64.952873 80.905617
v 217.831421 65.717834 75.708344
v 217.862274 65.434586 76.050865
v 217.994644 65.327911 76.997803
v 217.570999 65.563606 79.950333
v 217.839905 65.572151 79.416969
v 217.686127 66.229012 75.010223
v 217.967484 66.198196 75.486855
v 217.696594 66.216972 78.999634
v 217.928986 65.888847 78.966248
v 217.967651 66.238655 78.513496
v 217.542603 66.894257 74.109627
v 217.842010 66.872765 74.584641
v 217.928177 66.548134 75.034523
v 217.839233 66.725494 78.295464
v 217.718567 67.383270 74.007462
v 217.994232 67.379662 74.485504
v 217.642090 67.320129 77.945694
v 217.903000 67.041969 77.946152
v 217.923721 67.346024 77.472908
v 217.718277 67.975662 73.870178
v 217.905518 67.708138 74.055397
v 217.668076 67.936630 76.975945
v 217.940155 67.649452 76.976143
v 217.960037 67.993416 76.510681
v 217.885651 68.236992 74.058037
v 217.741287 68.596748 74.010445
v 217.949326 68.543480 74.511414
v 217.824646 68.471916 76.279060
v 217.633453 69.147507 74.031380
v 217.999771 68.846451 74.998970
v 217.966492 69.153366 74.987305
v 217.746841 69.176163 75.985214
v 217.897003 68.799950 75.966827
v 217.671341 69.721092 74.044937
v 217.886520 69.769943 74.552505
v 217.957062 69.476677 75.005302
v 217.896149 69.773048 75.453667
v 217.706696 69.707863 75.964912
v 217.743759 70.297676 73.986275
v 217.996674 70.305161 74.478722
v 217.747238 70.293282 76.015625
v 217.995728 70.307762 75.523140
v 217.769943 70.994194 73.813194
v 217.927673 70.639107 74.043732
v 217.925217 70.639748 75.959068
v 217.777969 71.004059 76.196846
v 217.768509 71.402763 73.814125
v 217.813583 71.492935 76.224457
v 217.921143 71.758354 74.043869
v 217.745468 72.103226 73.985413
v 218.003021 72.091881 74.477791
v 217.778793 71.981743 76.198318
v 217.662155 72.678070 74.054367
v 217.889191 72.621399 74.548889
v 217.742126 72.692993 75.988304
v 217.919281 72.340401 75.959145
v 217.932571 72.641388 75.487114
v 217.540649 73.231880 74.064178
v 217.921356 72.908043 75.000206
v 217.790161 73.277420 75.002167
v 217.566269 73.228210 75.946312
v 217.437668 73.757782 74.089294
v 217.615295 73.810112 74.999695
v 217.448441 73.760201 75.914185
v 217.462296 74.317963 75.000725
v 217.429474 75.699631 73.981369
v 217.643250 76.226738 73.054031
v 217.578552 76.196083 73.969833
v 217.663147 76.804268 72.031212
v 217.927979 76.808632 72.520348
v 217.877243 76.564377 73.002403
v 217.940323 76.793976 73.487122
v 217.765289 76.718735 74.010994
v 217.911255 77.428307 71.575539
v 217.967239 77.087425 72.022728
v 217.922256 77.088615 73.963867
v 217.785385 77.430588 74.235977
v 217.907928 78.115280 70.738319
v 217.933533 77.788795 71.099007
v 217.796783 77.853035 74.211548
v 217.985626 78.480164 70.408066
v 217.760422 78.549622 74.030922
v 217.973984 78.223724 73.977219
v 218.133606 78.590889 73.701866
v 217.999512 79.235291 69.693146
v 217.999268 78.850426 70.038849
v 217.603989 79.057739 73.921837
v 218.027313 79.139343 73.626335
v 217.965286 79.675278 69.392471
v 217.969070 79.672424 73.437134
v 217.814819 80.338539 69.098495
v 218.159042 80.451027 68.822960
v 218.045654 80.096375 69.089928
v 217.894989 80.098099 73.222298
v 217.742310 80.868484 69.038147
v 218.111374 80.886543 68.681358
v 217.951828 80.474274 72.922066
v 218.016113 80.872093 72.587761
v 217.732391 81.451294 69.020905
v 218.079575 81.434021 68.529869
v 217.724533 81.407234 71.968628
v 218.074097 81.267517 72.254272
v 217.753204 82.051079 69.051430
v 218.043625 82.039352 68.530113
v 217.720261 82.018600 70.985634
v 218.063797 81.969727 71.429497
v 218.048141 81.609138 71.903336
v 217.925949 82.536217 69.049744
v 218.127518 82.573631 68.567154
v 217.785599 82.536751 69.965614
v 218.027802 82.588875 70.480515
v 218.018188 82.306015 70.981865
v 218.091583 82.845558 69.025536
v 218.058624 82.854332 69.985558
v 218.002899 64.561722 78.985786
v 218.068527 65.124687 78.046570
v 218.056015 65.050797 78.962463
v 218.005966 65.731483 76.062241
v 218.105042 65.692909 77.023331
v 218.139572 65.642189 77.998314
v 218.021530 65.558937 78.917442
v 218.126312 66.252815 76.022652
v 218.177567 66.228317 77.000900
v 218.111008 66.183151 77.973419
v 218.048813 66.874878 75.073181
v 218.193893 66.810318 76.009201
v 218.168213 66.788750 76.989220
v 218.030640 66.724503 77.919479
v 218.129410 67.417564 75.022240
v 218.195312 67.383926 75.995117
v 218.074722 67.312279 76.948341
v 217.942947 67.973671 74.115372
v 218.132721 67.964302 75.014450
v 218.116470 67.938477 75.976936
v 218.061722 68.475044 75.027016
v 218.006409 68.463928 75.938965
v 217.988556 69.823555 74.999374
v 218.078461 70.365913 75.000244
v 218.000427 70.971901 74.094963
v 218.158890 70.920784 75.001030
v 218.011612 70.979446 75.905029
v 217.999603 71.425171 74.097984
v 218.163986 71.486107 75.004845
v 218.043213 71.491325 75.922272
v 218.115082 72.043236 75.013802
v 218.006439 72.001610 75.910721
v 218.013046 72.563309 75.013290
v 218.067917 76.874947 73.001892
v 218.223053 77.396355 72.037674
v 218.337006 77.349945 73.007767
v 218.043716 77.423988 73.908417
v 218.235535 78.006866 71.047653
v 218.516068 77.985199 71.523788
v 218.484894 77.716690 72.020012
v 218.491638 77.692894 72.981522
v 218.400009 78.001427 73.427071
v 218.138000 77.875618 73.871620
v 218.518066 78.574242 70.550087
v 218.555420 78.258026 71.019310
v 218.469955 78.525208 73.349976
v 218.570175 79.235039 69.688103
v 218.589172 78.881767 70.075806
v 218.452042 79.101616 73.308907
v 218.577393 79.614586 69.364044
v 218.393234 79.598679 73.223236
v 218.585999 80.417542 68.705330
v 218.580826 80.010750 69.022598
v 218.264893 80.255501 72.965996
v 218.545837 79.965942 72.959435
v 218.657745 80.369469 72.680397
v 218.564209 80.861740 68.419044
v 218.575027 80.856750 72.481552
v 218.429855 81.521812 68.113121
v 218.753830 81.627571 67.841248
v 218.638321 81.276512 68.100105
v 218.576141 81.308113 72.252426
v 218.364014 82.046562 68.063728
v 218.717789 82.052803 67.738754
v 218.580261 81.689438 71.940048
v 218.584488 82.074791 71.582771
v 218.367722 82.632713 68.082466
v 218.715698 82.616272 67.704987
v 218.332779 82.562141 70.950951
v 218.662109 82.444870 71.257957
v 218.527969 83.118393 68.068962
v 218.764267 83.128952 67.737518
v 218.311462 83.178925 68.983131
v 218.350067 83.146347 69.976250
v 218.660980 83.127365 70.420433
v 218.638763 82.774590 70.898987
v 218.672745 83.445053 68.037712
v 218.560410 83.517647 69.002937
v 218.647995 83.434464 69.974083
v 218.673462 78.036232 72.027260
v 218.617310 78.023125 72.947853
v 218.836456 78.549461 71.026222
v 218.941376 78.511414 72.012337
v 218.711761 78.535690 72.939537
v 219.072632 79.301582 69.747208
v 219.066772 79.066536 70.074638
v 219.124985 78.843117 70.991982
v 219.106842 78.853043 71.986832
v 219.041702 79.154724 72.439682
v 218.796890 79.081604 72.922104
v 219.154434 79.657356 69.413605
v 218.738876 79.642258 72.900345
v 219.070068 79.720253 72.462685
v 219.157013 80.398537 68.678703
v 219.162384 80.022232 69.035591
v 219.072708 80.284447 72.365814
v 219.163940 80.790482 68.368858
v 219.031342 80.855286 72.275070
v 219.175903 81.589676 67.734200
v 219.167282 81.186272 68.027260
v 218.991776 81.280121 72.158974
v 219.173615 82.049461 67.530121
v 219.110291 81.637611 71.907806
v 219.187592 82.051537 71.595238
v 219.143402 82.599281 67.392082
v 219.163605 82.487717 71.290245
v 219.111084 83.213074 67.396591
v 219.166611 82.867096 70.947868
v 219.171204 83.244377 70.580696
v 218.864288 83.802452 68.014259
v 219.138748 83.774902 67.510315
v 218.777084 83.832191 68.997292
v 218.957397 83.713219 69.930450
v 219.253128 83.610184 70.252327
v 219.101929 84.285034 68.042511
v 219.293137 84.330757 67.563248
v 219.104126 84.254555 68.962860
v 219.254669 84.212814 69.410042
v 219.236191 83.923752 69.887993
v 219.292587 84.588356 68.037300
v 219.284286 84.444107 68.949654
v 219.354736 79.243149 70.048561
v 219.411407 79.161636 71.012375
v 219.252670 79.184624 71.948830
v 219.642014 79.797966 69.583855
v 219.629227 79.501678 70.029907
v 219.644989 79.475380 70.979240
v 219.621063 79.745399 71.439087
v 219.397568 79.682472 71.945259
v 219.662384 80.461052 68.742310
v 219.691864 80.130333 69.100914
v 219.410767 80.279236 71.967125
v 219.719925 80.288452 71.482323
v 219.742233 80.825340 68.410110
v 219.402374 80.861771 71.953835
v 219.790314 80.896652 71.501755
v 219.740707 81.581390 67.693642
v 219.747208 81.197403 68.037849
v 219.343811 81.394341 71.899483
v 219.742447 81.481842 71.573273
v 219.721802 82.020363 67.394379
v 219.720993 82.011841 71.422646
v 219.564484 82.679054 67.089439
v 219.916748 82.794464 66.822052
v 219.804535 82.439934 67.090721
v 219.652924 82.441711 71.221840
v 219.482590 83.213661 67.025719
v 219.865433 83.229683 66.678352
v 219.712555 82.827789 70.931778
v 219.772247 83.234894 70.604202
v 219.472778 83.793724 67.011726
v 219.836517 83.777977 66.529320
v 219.749619 83.655113 70.286240
v 219.508301 84.394592 67.051308
v 219.799393 84.383766 66.529167
v 219.755371 84.017380 69.936432
v 219.780106 84.392998 69.473328
v 219.665985 84.889801 67.045364
v 219.873871 84.923569 66.563660
v 219.533676 84.886147 67.966423
v 219.766037 84.953011 68.493385
v 219.720474 84.728584 69.003899
v 219.820953 85.217781 67.022469
v 219.804703 85.210770 67.987785
v 219.832275 79.803413 70.031967
v 219.792221 79.784973 70.953026
v 219.957520 80.363281 69.064011
v 220.127975 80.260078 70.013580
v 219.945572 80.289337 70.967979
v 220.249008 80.954514 68.580048
v 220.266068 80.644562 69.028435
v 220.331192 80.586761 69.996132
v 220.343872 80.861877 70.503334
v 220.125839 80.817940 71.022903
v 220.251907 81.631264 67.738228
v 220.277222 81.305359 68.099190
v 220.296112 81.183144 70.973038
v 220.141327 81.529350 71.240074
v 220.329269 81.996902 67.408394
v 220.138245 81.947556 71.205139
v 220.344040 82.761032 66.704765
v 220.344086 82.369072 67.041451
v 220.022842 82.599426 70.965912
v 220.300079 82.308304 70.954872
v 220.412048 82.707428 70.672150
v 220.322083 83.205742 66.419037
v 220.321243 83.189407 70.457825
v 220.187866 83.865814 66.113121
v 220.511841 83.971565 65.841248
v 220.396301 83.620514 66.100082
v 220.240601 83.615730 70.226677
v 220.122696 84.390419 66.064316
v 220.469971 84.397530 65.727837
v 220.295883 83.990273 69.922066
v 220.360107 84.388092 69.587761
v 220.113571 84.976402 66.069916
v 220.448700 84.971184 65.658524
v 220.068787 84.922745 68.968437
v 220.418060 84.783539 69.254295
v 220.240799 85.491241 66.064255
v 220.511475 85.490044 65.567856
v 219.990448 85.559395 66.989754
v 220.094833 85.516182 67.959534
v 220.412567 85.479546 68.424698
v 220.392715 85.124023 68.902649
v 220.371109 85.834732 66.013596
v 220.264328 86.031189 66.995026
v 220.382248 86.117462 66.509140
v 220.408905 86.080292 67.473000
v 220.375992 85.811005 67.975487
v 220.474243 86.319870 66.996864
v 220.551987 80.942818 69.025192
v 220.583008 80.911179 69.989243
v 220.579529 81.522865 68.047668
v 220.860260 81.501053 68.523788
v 220.822769 81.239449 69.016754
v 220.809631 81.243385 69.975655
v 220.478607 81.500511 70.895615
v 220.755692 81.519638 70.411407
v 220.862061 82.090240 67.550087
v 220.899429 81.774017 68.019325
v 220.479141 81.990616 70.888374
v 220.807571 82.066231 70.450806
v 220.913712 82.751099 66.687592
v 220.933182 82.397743 67.075813
v 220.814987 82.617775 70.345848
v 220.921967 83.134178 66.368660
v 220.745407 83.117989 70.236839
v 220.933075 83.932732 65.730141
v 220.925262 83.530251 66.027260
v 220.608932 83.771500 69.965996
v 220.889801 83.481941 69.959465
v 221.001755 83.885468 69.680382
v 220.921371 84.392273 65.506538
v 220.919052 84.372765 69.481567
v 220.843750 84.888641 65.324028
v 220.920135 84.824142 69.252426
v 220.779831 85.619461 65.130814
v 221.123718 85.648232 64.800125
v 220.962463 85.289230 65.049309
v 220.924225 85.205429 68.940056
v 220.928802 85.589806 68.581894
v 220.862244 86.073494 65.092133
v 221.135757 86.056526 64.782005
v 220.520935 86.178474 65.980064
v 220.682632 86.070885 67.947334
v 221.006271 85.960434 68.257607
v 220.993912 86.401894 65.040619
v 220.800415 86.644745 66.020653
v 220.968491 86.698883 65.514252
v 220.734039 86.597977 66.952316
v 220.994736 86.568192 67.411522
v 220.985367 86.275269 67.892998
v 221.030167 86.939262 66.036263
v 221.019547 86.806824 66.953377
v 221.018417 81.551430 69.027023
v 220.953278 81.545830 69.949509
v 221.180511 82.065475 68.026230
v 221.286621 82.027031 69.013092
v 221.067307 82.051453 69.950020
v 221.416473 82.817764 66.747658
v 221.410782 82.582504 67.074661
v 221.468948 82.359108 67.991966
v 221.450836 82.368988 68.986847
v 221.385315 82.670815 69.439453
v 221.149673 82.594200 69.931824
v 221.499603 83.171135 66.411674
v 221.082230 83.157555 69.900566
v 221.414062 83.236305 69.462639
v 221.499146 83.924629 65.692963
v 221.505203 83.541389 66.037857
v 221.417435 83.800880 69.365997
v 221.481522 84.354828 65.386429
v 221.379166 84.372131 69.279434
v 221.235153 84.996025 65.034424
v 221.601410 85.144966 64.762100
v 221.547363 84.766319 65.066086
v 221.335846 84.796196 69.159081
v 221.541687 85.574921 64.564072
v 221.454529 85.153915 68.908371
v 221.531357 85.569199 68.596428
v 221.579865 86.127548 64.482079
v 221.507553 85.999565 68.287025
v 221.191422 86.740280 65.025482
v 221.580978 86.660538 64.715958
v 221.513031 86.362183 67.937195
v 221.536865 86.738770 67.475731
v 221.458878 87.174782 65.073914
v 221.581192 87.045464 64.915588
v 221.313980 87.170815 65.971809
v 221.545715 87.240822 66.482697
v 221.478195 87.071205 67.003632
v 221.541489 87.233124 65.095566
v 221.606583 87.312988 65.976326
v 221.706253 82.752205 67.046104
v 221.755295 82.678032 68.011719
v 221.596634 82.700623 68.948845
v 222.004364 83.302078 66.581970
v 222.007751 83.008568 67.031136
v 222.005386 82.983498 67.980385
v 221.982803 83.262604 68.442680
v 221.742249 83.198418 68.945541
v 222.009949 83.975288 65.738312
v 222.035004 83.649986 66.099731
v 221.771133 83.794472 68.976234
v 222.129044 83.823799 68.498367
v 222.087616 84.340248 65.408127
v 221.767853 84.377602 68.964439
v 222.148788 84.386436 68.603981
v 222.100601 85.075577 64.655159
v 222.102158 84.703217 65.029381
v 221.694351 84.916054 68.909843
v 222.109879 84.994377 68.598236
v 222.017136 85.490601 64.339104
v 222.069809 85.531792 68.434311
v 221.990204 86.113922 64.167709
v 222.224136 86.008461 64.042244
v 222.148361 85.879158 64.076851
v 221.996979 85.958092 68.222305
v 222.109863 86.204910 64.178825
v 221.987366 86.564674 64.619942
v 222.053864 86.334274 67.922058
v 222.115906 86.725281 67.578293
v 222.054001 86.976013 65.034828
v 221.750870 87.197845 65.069427
v 222.050186 87.233330 65.527939
v 221.831802 87.234741 66.959885
v 222.170486 87.098396 67.231445
v 222.015366 87.331612 66.047707
v 222.159775 87.297310 66.913612
v 222.302231 83.303131 67.038231
v 222.192978 83.291473 67.955574
v 222.336624 83.868134 66.048088
v 222.609451 83.848587 66.523941
v 222.558792 83.602058 67.001389
v 222.624008 83.829498 67.485481
v 222.432678 83.766098 68.006332
v 222.621399 84.431923 65.548149
v 222.656876 84.120049 66.020988
v 222.611542 84.121826 67.964203
v 222.498215 84.465279 68.264229
v 222.666214 85.138916 64.576027
v 222.690887 84.735771 65.064468
v 222.533279 84.969978 68.282295
v 222.416718 85.613029 64.078087
v 222.544876 85.686325 64.044930
v 222.654266 85.479919 64.169144
v 222.493164 85.458488 68.220230
v 222.326080 86.050735 64.086739
v 222.592972 85.787178 64.089050
v 222.660675 86.119293 64.514496
v 222.366882 86.115479 67.966011
v 222.647812 85.825935 67.959442
v 222.753815 86.223602 67.670746
v 222.367340 86.707642 65.016136
v 222.684113 86.441513 64.994911
v 222.684799 86.732437 65.497406
v 222.658798 86.697067 67.442886
v 222.346420 87.244873 66.023178
v 222.673477 87.012695 66.004417
v 222.619904 87.219269 66.526329
v 222.575638 87.092438 67.194611
v 222.567368 87.256554 66.958366
v 222.754257 83.908226 67.001907
v 222.937592 84.410828 66.026154
v 223.029938 84.379768 67.005859
v 222.748856 84.456299 67.916512
v 223.148193 85.164894 64.776054
v 223.167694 84.926071 65.074951
v 223.227692 84.702751 65.991692
v 223.203217 84.717026 66.985527
v 223.137039 85.017151 67.435295
v 222.880341 84.956680 67.913918
v 222.755051 85.578033 64.175201
v 223.146988 85.514534 64.614853
v 222.837738 85.502739 67.898148
v 223.168152 85.578239 67.460487
v 222.997787 86.172462 64.981674
v 223.275955 85.901176 64.969162
v 223.301727 86.225189 65.451599
v 223.153992 86.131035 67.343330
v 222.985016 86.742622 65.992905
v 223.289490 86.493378 65.964195
v 223.243546 86.631248 66.511360
v 223.063354 86.618706 67.217766
v 222.824631 87.128159 66.962753
v 223.091751 86.877274 66.962204
v 223.444656 85.112274 65.056839
v 223.513290 85.021561 66.012856
v 223.353867 85.044785 66.948639
v 223.572876 85.509964 64.906288
v 223.684128 85.371269 65.058586
v 223.734756 85.340080 65.978485
v 223.698257 85.601517 66.430435
v 223.487167 85.542137 66.939278
v 223.726868 85.690323 65.118698
v 223.722733 85.969032 65.591759
v 223.448074 86.149666 66.909103
v 223.672226 86.066643 66.422218
v 223.681274 86.182808 66.042854
v 223.243439 86.610222 66.962212
v 223.756226 85.556099 65.102203
v 223.822800 85.638359 65.954567
v 223.789825 86.009064 65.992950
# 1234 vertices, 0 vertices normals

f 3 2 1
f 5 4 1
f 1 4 3
f 5 6 4
f 1 2 7
f 7 2 8
f 1 9 5
f 1 7 9
f 6 5 10
f 10 5 9
f 7 8 11
f 11 8 12
f 7 13 9
f 7 11 13
f 10 9 14
f 14 9 13
f 17 16 15
f 17 15 12
f 15 11 12
f 15 18 11
f 20 13 19
f 13 18 19
f 13 11 18
f 13 20 14
f 16 21 15
f 15 21 18
f 18 21 22
f 18 22 19
f 25 24 23
f 27 26 23
f 23 26 25
f 29 28 27
f 27 28 26
f 29 30 28
f 23 24 31
f 31 24 32
f 23 33 27
f 23 31 33
f 27 34 29
f 27 33 34
f 30 29 35
f 35 29 34
f 31 32 36
f 36 32 37
f 31 38 33
f 31 36 38
f 33 39 34
f 33 38 39
f 35 34 40
f 40 34 39
f 36 37 41
f 41 37 42
f 36 43 38
f 36 41 43
f 38 44 39
f 38 43 44
f 40 39 45
f 45 39 44
f 41 42 46
f 46 42 47
f 41 48 43
f 41 46 48
f 43 49 44
f 43 48 49
f 45 44 50
f 50 44 49
f 46 47 51
f 51 47 52
f 46 53 48
f 46 51 53
f 55 49 54
f 49 53 54
f 49 48 53
f 49 55 50
f 51 52 56
f 56 52 57
f 59 53 58
f 53 56 58
f 53 51 56
f 53 59 54
f 57 60 56
f 56 60 58
f 63 62 61
f 2 3 61
f 3 63 61
f 3 64 63
f 65 3 4
f 65 64 3
f 67 66 6
f 66 4 6
f 66 65 4
f 67 68 66
f 61 62 69
f 69 62 70
f 69 8 2
f 69 2 61
f 72 71 67
f 6 72 67
f 10 72 6
f 67 71 68
f 69 70 73
f 73 70 74
f 73 12 8
f 73 8 69
f 14 72 10
f 14 75 72
f 78 77 76
f 78 76 74
f 74 76 73
f 76 16 73
f 16 17 73
f 73 17 12
f 19 79 20
f 79 80 20
f 80 14 20
f 80 75 14
f 76 77 81
f 81 77 82
f 83 21 16
f 76 83 16
f 81 83 76
f 84 22 21
f 84 21 83
f 79 19 22
f 84 79 22
f 85 79 84
f 80 79 86
f 86 79 85
f 89 88 87
f 89 87 82
f 87 81 82
f 87 90 81
f 81 91 83
f 81 90 91
f 83 92 84
f 83 91 92
f 94 85 93
f 85 92 93
f 85 84 92
f 85 94 86
f 97 96 95
f 97 95 88
f 95 87 88
f 95 98 87
f 87 99 90
f 87 98 99
f 90 100 91
f 90 99 100
f 102 92 101
f 92 100 101
f 92 91 100
f 92 102 93
f 95 96 103
f 103 96 104
f 95 105 98
f 95 103 105
f 98 106 99
f 98 105 106
f 99 107 100
f 99 106 107
f 101 100 108
f 108 100 107
f 111 110 109
f 111 109 104
f 109 103 104
f 109 112 103
f 103 113 105
f 103 112 113
f 105 114 106
f 105 113 114
f 116 107 115
f 107 114 115
f 107 106 114
f 107 116 108
f 109 110 117
f 117 110 118
f 109 119 112
f 109 117 119
f 121 113 120
f 113 119 120
f 113 112 119
f 113 121 114
f 114 121 122
f 114 122 115
f 125 124 123
f 125 123 118
f 123 117 118
f 123 126 117
f 128 119 127
f 119 126 127
f 119 117 126
f 119 128 120
f 131 130 129
f 131 129 124
f 129 123 124
f 129 132 123
f 134 126 133
f 126 132 133
f 126 123 132
f 126 134 127
f 137 136 135
f 137 135 130
f 135 129 130
f 135 138 129
f 129 139 132
f 129 138 139
f 133 132 140
f 140 132 139
f 135 136 141
f 141 136 142
f 135 143 138
f 135 141 143
f 138 144 139
f 138 143 144
f 140 139 145
f 145 139 144
f 141 142 146
f 146 142 147
f 141 148 143
f 141 146 148
f 143 149 144
f 143 148 149
f 145 144 150
f 150 144 149
f 146 147 151
f 151 147 152
f 146 153 148
f 146 151 153
f 148 154 149
f 148 153 154
f 150 149 155
f 155 149 154
f 151 152 156
f 156 152 157
f 151 158 153
f 151 156 158
f 153 159 154
f 153 158 159
f 155 154 160
f 160 154 159
f 157 161 156
f 163 162 161
f 162 156 161
f 162 158 156
f 165 159 164
f 159 162 164
f 159 158 162
f 159 165 160
f 162 163 166
f 166 163 167
f 164 162 168
f 168 162 166
f 171 170 169
f 171 169 167
f 169 166 167
f 169 172 166
f 168 166 173
f 166 174 173
f 166 172 174
f 174 175 173
f 169 170 176
f 176 170 177
f 169 178 172
f 169 176 178
f 172 179 174
f 172 178 179
f 175 174 180
f 180 174 179
f 176 177 25
f 177 24 25
f 177 181 24
f 176 25 26
f 176 26 178
f 178 26 28
f 178 28 179
f 28 30 179
f 30 180 179
f 30 182 180
f 181 32 24
f 183 32 181
f 35 182 30
f 35 184 182
f 183 37 32
f 185 37 183
f 40 184 35
f 40 186 184
f 189 188 187
f 185 189 187
f 42 185 187
f 37 185 42
f 45 186 40
f 45 190 186
f 187 188 191
f 191 188 192
f 191 47 42
f 191 42 187
f 50 190 45
f 50 193 190
f 191 192 194
f 194 192 195
f 194 52 47
f 194 47 191
f 54 196 55
f 196 197 55
f 197 50 55
f 197 193 50
f 194 195 198
f 198 195 199
f 198 57 52
f 198 52 194
f 58 200 59
f 200 201 59
f 59 201 54
f 201 202 54
f 202 196 54
f 196 202 197
f 198 199 203
f 203 199 204
f 205 60 57
f 198 205 57
f 203 205 198
f 200 58 60
f 205 200 60
f 206 200 205
f 201 200 207
f 207 200 206
f 203 204 208
f 208 204 209
f 203 210 205
f 203 208 210
f 212 206 211
f 206 210 211
f 206 205 210
f 206 212 207
f 209 213 208
f 208 213 210
f 210 213 214
f 210 214 211
f 216 215 63
f 63 215 62
f 217 63 64
f 217 216 63
f 218 64 65
f 218 217 64
f 219 65 66
f 219 218 65
f 66 68 219
f 219 68 220
f 215 70 62
f 221 70 215
f 72 222 71
f 222 223 71
f 223 68 71
f 223 220 68
f 226 225 224
f 221 226 224
f 74 221 224
f 70 221 74
f 228 227 222
f 72 228 222
f 75 228 72
f 222 227 223
f 224 225 78
f 225 77 78
f 225 229 77
f 224 78 74
f 80 228 75
f 80 230 228
f 233 232 231
f 229 233 231
f 82 229 231
f 77 229 82
f 86 230 80
f 86 234 230
f 237 236 235
f 237 235 232
f 232 235 231
f 235 88 231
f 88 89 231
f 231 89 82
f 239 238 94
f 239 94 93
f 86 94 234
f 234 94 238
f 235 236 97
f 236 96 97
f 236 240 96
f 235 97 88
f 101 241 102
f 241 242 102
f 242 93 102
f 242 239 93
f 245 244 243
f 240 245 243
f 104 240 243
f 96 240 104
f 247 246 241
f 101 247 241
f 108 247 101
f 241 246 242
f 250 249 248
f 250 248 244
f 244 248 243
f 248 110 243
f 110 111 243
f 243 111 104
f 252 251 116
f 252 116 115
f 108 116 247
f 247 116 251
f 255 254 253
f 255 253 249
f 253 248 249
f 253 256 248
f 256 118 110
f 256 110 248
f 120 257 121
f 121 257 258
f 259 121 258
f 122 121 259
f 115 122 252
f 252 122 259
f 253 254 260
f 260 254 261
f 260 124 125
f 256 260 125
f 253 260 256
f 256 125 118
f 127 262 128
f 262 263 128
f 128 263 120
f 263 264 120
f 264 257 120
f 257 264 258
f 267 266 265
f 267 265 261
f 261 265 260
f 265 130 260
f 130 131 260
f 260 131 124
f 133 268 134
f 268 269 134
f 134 269 127
f 269 270 127
f 270 262 127
f 262 270 263
f 265 266 137
f 266 136 137
f 266 271 136
f 265 137 130
f 273 272 268
f 133 273 268
f 140 273 133
f 268 272 269
f 271 142 136
f 274 142 271
f 145 273 140
f 145 275 273
f 274 147 142
f 276 147 274
f 150 275 145
f 150 277 275
f 276 152 147
f 278 152 276
f 155 277 150
f 155 279 277
f 278 157 152
f 280 157 278
f 160 279 155
f 160 281 279
f 161 157 282
f 157 283 282
f 157 280 283
f 282 163 161
f 164 284 165
f 284 285 165
f 285 160 165
f 285 281 160
f 282 283 286
f 286 283 287
f 286 167 163
f 286 163 282
f 168 288 284
f 168 284 164
f 285 284 289
f 289 284 288
f 286 287 171
f 287 170 171
f 287 290 170
f 286 171 167
f 173 288 168
f 173 175 288
f 175 289 288
f 175 291 289
f 290 177 170
f 292 177 290
f 180 291 175
f 180 293 291
f 292 181 177
f 294 181 292
f 182 293 180
f 182 295 293
f 294 183 181
f 296 183 294
f 184 295 182
f 184 297 295
f 296 185 183
f 298 185 296
f 186 297 184
f 186 299 297
f 301 300 189
f 189 300 188
f 189 185 298
f 189 298 301
f 190 299 186
f 190 302 299
f 300 192 188
f 303 192 300
f 193 302 190
f 193 304 302
f 303 195 192
f 305 195 303
f 197 304 193
f 197 306 304
f 309 308 307
f 305 309 307
f 199 305 307
f 195 305 199
f 311 310 202
f 311 202 201
f 197 202 306
f 306 202 310
f 307 308 312
f 312 308 313
f 312 204 199
f 312 199 307
f 207 311 201
f 207 314 311
f 312 313 315
f 315 313 316
f 315 209 204
f 315 204 312
f 318 317 212
f 318 212 211
f 207 212 314
f 314 212 317
f 315 316 319
f 319 316 320
f 321 213 209
f 315 321 209
f 319 321 315
f 322 214 213
f 322 213 321
f 322 323 214
f 323 211 214
f 323 318 211
f 319 320 324
f 324 320 325
f 319 326 321
f 319 324 326
f 328 322 327
f 322 326 327
f 322 321 326
f 322 328 323
f 325 329 324
f 324 329 326
f 326 329 330
f 326 330 327
f 332 331 216
f 216 331 215
f 333 216 217
f 333 332 216
f 334 217 218
f 334 333 217
f 335 218 219
f 335 334 218
f 219 220 335
f 335 220 336
f 331 221 215
f 337 221 331
f 223 336 220
f 223 338 336
f 340 339 226
f 226 339 225
f 226 221 337
f 226 337 340
f 228 341 227
f 341 342 227
f 342 223 227
f 342 338 223
f 339 229 225
f 343 229 339
f 345 344 341
f 228 345 341
f 230 345 228
f 341 344 342
f 347 346 233
f 233 346 232
f 233 229 343
f 233 343 347
f 234 345 230
f 234 348 345
f 350 349 237
f 237 349 236
f 237 232 346
f 237 346 350
f 352 351 238
f 352 238 239
f 234 238 348
f 348 238 351
f 355 354 353
f 349 355 353
f 240 349 353
f 236 349 240
f 242 352 239
f 242 356 352
f 359 358 357
f 359 357 354
f 354 357 353
f 357 244 353
f 244 245 353
f 353 245 240
f 361 360 246
f 361 246 247
f 242 246 356
f 356 246 360
f 364 363 362
f 364 362 358
f 358 362 357
f 362 249 357
f 249 250 357
f 357 250 244
f 252 365 251
f 365 366 251
f 366 247 251
f 366 361 247
f 362 363 255
f 363 254 255
f 363 367 254
f 362 255 249
f 258 368 259
f 368 369 259
f 259 369 252
f 369 370 252
f 370 365 252
f 365 370 366
f 373 372 371
f 367 373 371
f 261 367 371
f 254 367 261
f 263 374 264
f 374 375 264
f 264 375 258
f 375 376 258
f 376 368 258
f 368 376 369
f 371 372 267
f 372 266 267
f 372 377 266
f 371 267 261
f 269 378 270
f 378 379 270
f 270 379 263
f 379 380 263
f 380 374 263
f 374 380 375
f 377 271 266
f 381 271 377
f 273 382 272
f 382 383 272
f 272 383 269
f 383 384 269
f 384 378 269
f 378 384 379
f 381 274 271
f 385 274 381
f 387 386 382
f 273 387 382
f 275 387 273
f 382 386 383
f 385 276 274
f 388 276 385
f 277 387 275
f 277 389 387
f 388 278 276
f 390 278 388
f 279 389 277
f 279 391 389
f 390 280 278
f 392 280 390
f 281 391 279
f 281 393 391
f 392 283 280
f 394 283 392
f 285 393 281
f 285 395 393
f 394 287 283
f 396 287 394
f 289 395 285
f 289 397 395
f 396 290 287
f 398 290 396
f 291 397 289
f 291 399 397
f 398 292 290
f 400 292 398
f 293 399 291
f 293 401 399
f 400 294 292
f 402 294 400
f 295 401 293
f 295 403 401
f 402 296 294
f 404 296 402
f 297 403 295
f 297 405 403
f 404 298 296
f 406 298 404
f 299 405 297
f 299 407 405
f 409 408 301
f 301 408 300
f 301 298 406
f 301 406 409
f 302 407 299
f 302 410 407
f 408 303 300
f 411 303 408
f 304 410 302
f 304 412 410
f 415 414 413
f 411 415 413
f 305 411 413
f 303 411 305
f 306 412 304
f 306 416 412
f 413 414 309
f 414 308 309
f 414 417 308
f 413 309 305
f 419 418 310
f 419 310 311
f 306 310 416
f 416 310 418
f 417 313 308
f 420 313 417
f 314 419 311
f 314 421 419
f 424 423 422
f 420 424 422
f 316 420 422
f 313 420 316
f 426 425 317
f 426 317 318
f 314 317 421
f 421 317 425
f 422 423 427
f 427 423 428
f 427 320 316
f 427 316 422
f 323 426 318
f 323 429 426
f 427 428 430
f 430 428 431
f 430 325 320
f 430 320 427
f 433 432 328
f 433 328 327
f 323 328 429
f 429 328 432
f 430 431 434
f 434 431 435
f 436 329 325
f 430 436 325
f 434 436 430
f 437 330 329
f 437 329 436
f 437 438 330
f 438 327 330
f 438 433 327
f 435 439 434
f 434 439 436
f 436 439 440
f 436 440 437
f 437 440 441
f 437 441 438
f 443 442 332
f 332 442 331
f 444 332 333
f 444 443 332
f 445 333 334
f 445 444 333
f 446 334 335
f 446 445 334
f 335 336 446
f 446 336 447
f 442 337 331
f 448 337 442
f 451 450 449
f 450 447 449
f 447 338 449
f 447 336 338
f 452 339 340
f 453 452 340
f 337 453 340
f 448 453 337
f 451 449 454
f 451 454 455
f 342 454 338
f 338 454 449
f 457 456 452
f 456 339 452
f 456 343 339
f 457 452 453
f 455 454 344
f 345 455 344
f 458 455 345
f 344 454 342
f 460 459 347
f 347 459 346
f 347 343 456
f 347 456 460
f 348 458 345
f 348 461 458
f 463 462 350
f 350 462 349
f 350 346 459
f 350 459 463
f 465 464 351
f 465 351 352
f 348 351 461
f 461 351 464
f 467 466 355
f 355 466 354
f 355 349 462
f 355 462 467
f 356 465 352
f 356 468 465
f 470 469 359
f 359 469 358
f 359 354 466
f 359 466 470
f 472 471 360
f 472 360 361
f 356 360 468
f 468 360 471
f 474 473 364
f 364 473 363
f 364 358 469
f 364 469 474
f 477 476 475
f 476 472 475
f 472 366 475
f 472 361 366
f 473 367 363
f 478 367 473
f 477 475 370
f 369 477 370
f 479 477 369
f 370 475 366
f 481 480 373
f 373 480 372
f 373 367 478
f 373 478 481
f 483 482 376
f 483 376 375
f 369 376 479
f 479 376 482
f 480 377 372
f 484 377 480
f 486 485 380
f 486 380 379
f 375 380 483
f 483 380 485
f 484 381 377
f 487 381 484
f 489 488 384
f 489 384 383
f 379 384 486
f 486 384 488
f 487 385 381
f 490 385 487
f 492 491 386
f 492 386 387
f 383 386 489
f 489 386 491
f 490 388 385
f 493 388 490
f 389 492 387
f 389 494 492
f 493 390 388
f 495 390 493
f 391 494 389
f 391 496 494
f 495 392 390
f 497 392 495
f 393 496 391
f 393 498 496
f 497 394 392
f 499 394 497
f 395 498 393
f 395 500 498
f 499 396 394
f 501 396 499
f 397 500 395
f 397 502 500
f 501 398 396
f 503 398 501
f 399 502 397
f 399 504 502
f 503 400 398
f 505 400 503
f 401 504 399
f 401 506 504
f 505 402 400
f 507 402 505
f 403 506 401
f 403 508 506
f 507 404 402
f 509 404 507
f 405 508 403
f 405 510 508
f 509 406 404
f 511 406 509
f 407 510 405
f 407 512 510
f 514 513 409
f 409 513 408
f 409 406 511
f 409 511 514
f 410 512 407
f 410 515 512
f 513 411 408
f 516 411 513
f 519 518 517
f 518 515 517
f 515 412 517
f 515 410 412
f 521 520 415
f 415 520 414
f 415 411 516
f 415 516 521
f 519 517 522
f 519 522 523
f 416 522 412
f 412 522 517
f 520 417 414
f 524 417 520
f 523 522 418
f 419 523 418
f 525 523 419
f 418 522 416
f 524 420 417
f 526 420 524
f 421 525 419
f 421 527 525
f 529 528 424
f 424 528 423
f 424 420 526
f 424 526 529
f 531 530 425
f 531 425 426
f 421 425 527
f 527 425 530
f 528 428 423
f 532 428 528
f 429 531 426
f 429 533 531
f 532 431 428
f 534 431 532
f 433 535 432
f 535 536 432
f 536 429 432
f 536 533 429
f 539 538 537
f 534 539 537
f 435 534 537
f 431 534 435
f 541 540 535
f 433 541 535
f 438 541 433
f 535 540 536
f 537 538 542
f 542 538 543
f 544 439 435
f 537 544 435
f 542 544 537
f 545 440 439
f 545 439 544
f 546 441 440
f 546 440 545
f 546 547 441
f 547 438 441
f 547 541 438
f 543 548 542
f 550 549 548
f 549 542 548
f 549 544 542
f 544 551 545
f 544 549 551
f 553 546 552
f 546 551 552
f 546 545 551
f 546 553 547
f 550 554 549
f 549 554 551
f 551 554 555
f 551 555 552
f 556 442 443
f 556 443 557
f 443 558 557
f 443 444 558
f 559 444 445
f 559 558 444
f 561 559 560
f 559 446 560
f 559 445 446
f 447 560 446
f 562 448 556
f 556 448 442
f 556 557 563
f 556 563 562
f 561 560 450
f 451 561 450
f 564 561 451
f 450 560 447
f 566 565 562
f 565 448 562
f 565 453 448
f 566 562 563
f 455 564 451
f 455 567 564
f 569 568 457
f 457 568 456
f 457 453 565
f 457 565 569
f 572 571 570
f 571 567 570
f 567 458 570
f 567 455 458
f 574 573 460
f 460 573 459
f 460 456 568
f 460 568 574
f 572 570 575
f 572 575 576
f 461 575 458
f 458 575 570
f 578 577 463
f 463 577 462
f 463 459 573
f 463 573 578
f 576 575 464
f 465 576 464
f 579 576 465
f 464 575 461
f 581 580 467
f 467 580 466
f 467 462 577
f 467 577 581
f 584 583 582
f 583 579 582
f 579 468 582
f 579 465 468
f 586 585 470
f 470 585 469
f 470 466 580
f 470 580 586
f 584 582 471
f 472 584 471
f 587 584 472
f 471 582 468
f 588 473 474
f 589 588 474
f 469 589 474
f 585 589 469
f 591 590 476
f 591 476 477
f 472 476 587
f 587 476 590
f 593 592 588
f 592 473 588
f 592 478 473
f 593 588 589
f 596 595 594
f 595 591 594
f 591 479 594
f 591 477 479
f 598 597 481
f 481 597 480
f 481 478 592
f 481 592 598
f 601 600 599
f 599 600 596
f 599 596 594
f 483 599 594
f 482 483 594
f 482 594 479
f 597 484 480
f 602 484 597
f 601 599 485
f 486 601 485
f 603 601 486
f 485 599 483
f 602 487 484
f 604 487 602
f 606 605 488
f 606 488 489
f 486 488 603
f 603 488 605
f 604 490 487
f 607 490 604
f 609 608 491
f 609 491 492
f 489 491 606
f 606 491 608
f 607 493 490
f 610 493 607
f 494 609 492
f 494 611 609
f 610 495 493
f 612 495 610
f 496 611 494
f 496 613 611
f 612 497 495
f 614 497 612
f 498 613 496
f 498 615 613
f 614 499 497
f 616 499 614
f 500 615 498
f 500 617 615
f 616 501 499
f 618 501 616
f 502 617 500
f 502 619 617
f 618 503 501
f 620 503 618
f 504 619 502
f 504 621 619
f 620 505 503
f 622 505 620
f 506 621 504
f 506 623 621
f 622 507 505
f 624 507 622
f 508 623 506
f 508 625 623
f 624 509 507
f 626 509 624
f 510 625 508
f 510 627 625
f 629 511 628
f 511 626 628
f 511 509 626
f 630 629 628
f 633 632 631
f 632 627 631
f 627 512 631
f 627 510 512
f 634 513 514
f 511 629 514
f 629 634 514
f 629 635 634
f 629 630 636
f 637 629 636
f 635 629 637
f 637 636 633
f 631 637 633
f 638 637 631
f 515 638 512
f 512 638 631
f 639 516 634
f 634 516 513
f 635 641 640
f 639 635 640
f 634 635 639
f 643 642 641
f 635 643 641
f 637 643 635
f 519 643 518
f 643 638 518
f 643 637 638
f 518 638 515
f 644 520 521
f 645 644 521
f 645 521 516
f 646 645 516
f 639 646 516
f 646 639 640
f 642 643 647
f 642 647 648
f 523 647 519
f 519 647 643
f 650 649 644
f 649 520 644
f 649 524 520
f 650 644 645
f 648 647 651
f 648 651 652
f 525 651 523
f 523 651 647
f 649 526 524
f 653 526 649
f 652 651 654
f 652 654 655
f 527 654 525
f 525 654 651
f 657 656 529
f 529 656 528
f 529 526 653
f 529 653 657
f 655 654 530
f 531 655 530
f 658 655 531
f 530 654 527
f 656 532 528
f 659 532 656
f 533 658 531
f 533 660 658
f 663 662 661
f 659 663 661
f 534 659 661
f 532 659 534
f 536 660 533
f 536 664 660
f 661 662 539
f 662 538 539
f 662 665 538
f 661 539 534
f 667 666 540
f 667 540 541
f 536 540 664
f 664 540 666
f 665 543 538
f 668 543 665
f 547 667 541
f 547 669 667
f 548 543 670
f 543 671 670
f 543 668 671
f 670 550 548
f 673 672 553
f 673 553 552
f 547 553 669
f 669 553 672
f 670 671 674
f 674 671 675
f 676 554 550
f 670 676 550
f 674 676 670
f 554 676 677
f 678 554 677
f 555 554 678
f 552 555 673
f 673 555 678
f 674 675 679
f 679 675 680
f 682 676 681
f 676 679 681
f 676 674 679
f 676 682 677
f 680 683 679
f 679 683 681
f 684 557 558
f 559 685 558
f 558 685 684
f 561 685 559
f 686 563 684
f 684 563 557
f 687 684 685
f 686 684 687
f 564 687 561
f 561 687 685
f 688 565 566
f 563 686 566
f 686 688 566
f 686 689 688
f 690 686 687
f 689 686 690
f 567 690 564
f 564 690 687
f 691 568 569
f 565 688 569
f 688 691 569
f 688 692 691
f 693 688 689
f 692 688 693
f 572 693 571
f 693 690 571
f 693 689 690
f 571 690 567
f 694 573 574
f 568 691 574
f 691 694 574
f 691 695 694
f 696 691 692
f 695 691 696
f 697 692 693
f 696 692 697
f 576 697 572
f 572 697 693
f 698 577 578
f 573 694 578
f 694 698 578
f 694 699 698
f 700 694 695
f 699 694 700
f 701 695 696
f 700 695 701
f 702 696 697
f 701 696 702
f 579 702 576
f 576 702 697
f 703 580 581
f 577 698 581
f 698 703 581
f 698 704 703
f 699 706 705
f 704 699 705
f 698 699 704
f 708 707 706
f 699 708 706
f 700 708 699
f 709 700 701
f 708 700 709
f 584 709 583
f 709 702 583
f 709 701 702
f 583 702 579
f 710 585 586
f 580 703 586
f 703 710 586
f 703 711 710
f 704 713 712
f 711 704 712
f 703 704 711
f 713 704 705
f 707 708 714
f 707 714 715
f 716 708 709
f 714 708 716
f 587 716 584
f 584 716 709
f 718 717 710
f 717 585 710
f 717 589 585
f 718 710 711
f 718 711 719
f 719 711 712
f 715 714 720
f 715 720 721
f 591 720 590
f 720 716 590
f 720 714 716
f 590 716 587
f 722 592 593
f 723 722 593
f 589 723 593
f 717 723 589
f 726 725 724
f 724 725 721
f 724 721 720
f 596 724 720
f 595 596 720
f 595 720 591
f 727 597 598
f 728 727 598
f 728 598 592
f 729 728 592
f 722 729 592
f 729 722 723
f 726 724 600
f 601 726 600
f 730 726 601
f 600 724 596
f 731 602 727
f 727 602 597
f 727 728 732
f 727 732 731
f 735 734 733
f 734 730 733
f 730 603 733
f 730 601 603
f 737 736 731
f 736 602 731
f 736 604 602
f 737 731 732
f 740 739 738
f 738 739 735
f 738 735 733
f 606 738 733
f 605 606 733
f 605 733 603
f 742 607 741
f 607 736 741
f 607 604 736
f 743 742 741
f 740 738 608
f 609 740 608
f 744 740 609
f 608 738 606
f 745 610 742
f 742 610 607
f 742 743 746
f 747 742 746
f 745 742 747
f 749 748 747
f 749 747 746
f 749 744 748
f 744 611 748
f 744 609 611
f 750 612 745
f 745 612 610
f 747 752 751
f 750 747 751
f 745 747 750
f 754 753 752
f 747 754 752
f 748 754 747
f 613 754 611
f 611 754 748
f 755 614 750
f 750 614 612
f 750 751 756
f 750 756 755
f 753 754 757
f 753 757 758
f 615 757 613
f 613 757 754
f 760 759 755
f 759 614 755
f 759 616 614
f 760 755 756
f 761 758 757
f 757 615 761
f 615 762 761
f 615 617 762
f 759 618 616
f 763 618 759
f 619 762 617
f 619 764 762
f 766 620 765
f 620 763 765
f 620 618 763
f 767 766 765
f 621 764 619
f 621 768 764
f 769 622 766
f 766 622 620
f 766 767 770
f 766 770 769
f 773 772 771
f 772 768 771
f 768 623 771
f 768 621 623
f 774 624 769
f 769 624 622
f 769 770 775
f 776 769 775
f 774 769 776
f 776 775 773
f 771 776 773
f 777 776 771
f 625 777 623
f 623 777 771
f 778 626 774
f 774 626 624
f 779 774 776
f 778 774 779
f 780 776 777
f 779 776 780
f 627 780 625
f 625 780 777
f 778 628 626
f 628 778 630
f 778 781 630
f 778 779 781
f 633 781 632
f 781 780 632
f 781 779 780
f 632 780 627
f 781 636 630
f 636 781 633
f 782 640 641
f 642 782 641
f 783 645 646
f 640 782 646
f 782 783 646
f 782 784 783
f 648 784 642
f 642 784 782
f 785 649 650
f 786 785 650
f 786 650 645
f 787 786 645
f 783 787 645
f 789 788 787
f 783 789 787
f 784 789 783
f 652 789 648
f 648 789 784
f 791 790 785
f 790 649 785
f 790 653 649
f 791 785 786
f 792 788 789
f 789 652 792
f 652 793 792
f 652 655 793
f 795 794 657
f 657 794 656
f 657 653 790
f 657 790 795
f 658 793 655
f 658 796 793
f 794 659 656
f 797 659 794
f 800 799 798
f 799 796 798
f 796 660 798
f 796 658 660
f 802 801 663
f 663 801 662
f 663 659 797
f 663 797 802
f 800 798 803
f 800 803 804
f 664 803 660
f 660 803 798
f 801 665 662
f 805 665 801
f 804 803 666
f 667 804 666
f 806 804 667
f 666 803 664
f 809 808 807
f 805 809 807
f 668 805 807
f 665 805 668
f 669 806 667
f 669 810 806
f 807 808 811
f 811 808 812
f 811 671 668
f 811 668 807
f 814 813 672
f 814 672 673
f 669 672 810
f 810 672 813
f 811 812 815
f 815 812 816
f 815 675 671
f 815 671 811
f 677 817 678
f 817 818 678
f 818 673 678
f 818 814 673
f 815 816 819
f 819 816 820
f 819 680 675
f 819 675 815
f 681 821 682
f 821 822 682
f 682 822 677
f 822 823 677
f 823 817 677
f 817 823 818
f 819 820 824
f 824 820 825
f 826 683 680
f 819 826 680
f 824 826 819
f 826 827 683
f 683 827 681
f 827 828 681
f 828 821 681
f 821 828 822
f 825 829 824
f 824 829 826
f 826 829 830
f 826 830 827
f 831 705 706
f 707 831 706
f 832 712 713
f 705 831 713
f 831 832 713
f 831 833 832
f 715 833 707
f 707 833 831
f 834 717 718
f 719 835 718
f 718 835 834
f 712 832 719
f 832 835 719
f 832 836 835
f 837 832 833
f 836 832 837
f 721 837 715
f 715 837 833
f 838 723 834
f 834 723 717
f 839 834 835
f 838 834 839
f 840 835 836
f 839 835 840
f 726 840 725
f 840 837 725
f 840 836 837
f 725 837 721
f 841 728 729
f 723 838 729
f 838 841 729
f 838 842 841
f 843 838 839
f 842 838 843
f 844 839 840
f 843 839 844
f 730 844 726
f 726 844 840
f 845 732 841
f 841 732 728
f 846 841 842
f 845 841 846
f 847 842 843
f 846 842 847
f 735 847 734
f 847 844 734
f 847 843 844
f 734 844 730
f 848 736 737
f 732 845 737
f 845 848 737
f 845 849 848
f 850 845 846
f 849 845 850
f 740 850 739
f 850 847 739
f 850 846 847
f 739 847 735
f 848 741 736
f 741 848 743
f 848 851 743
f 848 849 851
f 852 849 850
f 851 849 852
f 744 852 740
f 740 852 850
f 851 746 743
f 746 851 749
f 749 851 852
f 749 852 744
f 853 751 752
f 753 853 752
f 854 756 853
f 853 756 751
f 758 854 753
f 753 854 853
f 855 759 760
f 756 854 760
f 854 855 760
f 854 856 855
f 761 857 758
f 857 854 758
f 857 856 854
f 762 857 761
f 858 763 855
f 855 763 759
f 859 855 856
f 858 855 859
f 860 856 857
f 859 856 860
f 764 860 762
f 762 860 857
f 858 765 763
f 765 858 767
f 858 861 767
f 858 859 861
f 862 859 860
f 861 859 862
f 768 862 764
f 764 862 860
f 863 770 861
f 861 770 767
f 773 863 772
f 863 862 772
f 863 861 862
f 772 862 768
f 863 775 770
f 775 863 773
f 864 786 787
f 788 864 787
f 865 790 791
f 786 864 791
f 864 865 791
f 864 866 865
f 792 867 788
f 867 864 788
f 867 866 864
f 793 867 792
f 868 794 795
f 869 868 795
f 869 795 790
f 870 869 790
f 865 870 790
f 870 865 866
f 870 866 871
f 873 872 871
f 866 873 871
f 867 873 866
f 796 873 793
f 793 873 867
f 875 874 868
f 874 794 868
f 874 797 794
f 875 868 869
f 872 873 799
f 800 872 799
f 876 872 800
f 799 873 796
f 878 877 802
f 802 877 801
f 802 797 874
f 802 874 878
f 804 876 800
f 804 879 876
f 877 805 801
f 880 805 877
f 806 879 804
f 806 881 879
f 883 882 809
f 809 882 808
f 809 805 880
f 809 880 883
f 886 885 884
f 885 881 884
f 881 810 884
f 881 806 810
f 882 812 808
f 887 812 882
f 886 884 813
f 814 886 813
f 888 886 814
f 813 884 810
f 891 890 889
f 887 891 889
f 816 887 889
f 812 887 816
f 818 888 814
f 818 892 888
f 889 890 893
f 893 890 894
f 893 820 816
f 893 816 889
f 896 895 823
f 896 823 822
f 818 823 892
f 892 823 895
f 893 894 897
f 897 894 898
f 897 825 820
f 897 820 893
f 827 899 828
f 899 900 828
f 900 822 828
f 900 896 822
f 897 898 901
f 901 898 902
f 903 829 825
f 897 903 825
f 901 903 897
f 904 830 829
f 904 829 903
f 904 905 830
f 830 905 827
f 905 906 827
f 906 899 827
f 899 906 900
f 902 907 901
f 901 907 903
f 903 907 908
f 903 908 904
f 904 908 909
f 904 909 905
f 910 869 870
f 871 911 870
f 870 911 910
f 872 911 871
f 912 874 875
f 869 910 875
f 910 912 875
f 910 913 912
f 914 910 911
f 913 910 914
f 876 914 872
f 872 914 911
f 916 915 878
f 878 915 877
f 878 874 912
f 917 878 912
f 916 878 917
f 917 912 913
f 917 913 918
f 920 919 918
f 913 920 918
f 914 920 913
f 879 920 876
f 876 920 914
f 915 880 877
f 921 880 915
f 919 920 922
f 919 922 923
f 881 922 879
f 879 922 920
f 925 924 883
f 883 924 882
f 883 880 921
f 883 921 925
f 923 922 885
f 886 923 885
f 926 923 886
f 885 922 881
f 924 887 882
f 927 887 924
f 888 926 886
f 888 928 926
f 930 929 891
f 891 929 890
f 891 887 927
f 891 927 930
f 892 928 888
f 892 931 928
f 929 894 890
f 932 894 929
f 934 933 895
f 934 895 896
f 892 895 931
f 931 895 933
f 932 898 894
f 935 898 932
f 900 934 896
f 900 936 934
f 935 902 898
f 937 902 935
f 939 938 906
f 939 906 905
f 900 906 936
f 936 906 938
f 907 902 940
f 902 941 940
f 902 937 941
f 942 908 907
f 942 907 940
f 943 909 908
f 943 908 942
f 943 944 909
f 944 905 909
f 944 939 905
f 940 941 945
f 945 941 946
f 940 947 942
f 940 945 947
f 949 943 948
f 943 947 948
f 943 942 947
f 943 949 944
f 946 950 945
f 945 950 947
f 947 950 951
f 947 951 948
f 952 915 916
f 917 953 916
f 916 953 952
f 918 954 917
f 917 954 953
f 919 954 918
f 956 955 952
f 955 915 952
f 955 921 915
f 956 952 953
f 956 953 957
f 959 958 957
f 953 959 957
f 954 959 953
f 923 959 919
f 919 959 954
f 961 960 925
f 925 960 924
f 925 921 955
f 925 955 961
f 958 959 962
f 958 962 963
f 926 962 923
f 923 962 959
f 960 927 924
f 964 927 960
f 963 962 965
f 963 965 966
f 928 965 926
f 926 965 962
f 968 967 930
f 930 967 929
f 930 927 964
f 930 964 968
f 966 965 969
f 966 969 970
f 931 969 928
f 928 969 965
f 967 932 929
f 971 932 967
f 970 969 933
f 934 970 933
f 972 970 934
f 933 969 931
f 975 974 973
f 971 975 973
f 935 971 973
f 932 971 935
f 936 972 934
f 936 976 972
f 973 974 977
f 977 974 978
f 977 937 935
f 977 935 973
f 980 979 938
f 980 938 939
f 936 938 976
f 976 938 979
f 977 978 981
f 981 978 982
f 981 941 937
f 981 937 977
f 944 980 939
f 944 983 980
f 981 982 984
f 984 982 985
f 984 946 941
f 984 941 981
f 987 986 949
f 987 949 948
f 944 949 983
f 983 949 986
f 984 985 988
f 988 985 989
f 990 950 946
f 984 990 946
f 988 990 984
f 950 990 991
f 992 950 991
f 951 950 992
f 948 951 987
f 987 951 992
f 989 993 988
f 988 993 990
f 990 993 994
f 990 994 991
f 995 955 956
f 957 996 956
f 956 996 995
f 958 996 957
f 997 960 961
f 955 995 961
f 995 997 961
f 995 998 997
f 999 995 996
f 998 995 999
f 963 999 958
f 958 999 996
f 1001 1000 997
f 1000 960 997
f 1000 964 960
f 1001 997 998
f 1001 998 1002
f 1004 1003 1002
f 998 1004 1002
f 999 1004 998
f 966 1004 963
f 963 1004 999
f 1006 1005 968
f 968 1005 967
f 968 964 1000
f 968 1000 1006
f 1007 1003 1004
f 1004 966 1007
f 966 1008 1007
f 966 970 1008
f 1005 971 967
f 1009 971 1005
f 972 1008 970
f 972 1010 1008
f 1012 1011 975
f 975 1011 974
f 975 971 1009
f 975 1009 1012
f 1015 1014 1013
f 1014 1010 1013
f 1010 976 1013
f 1010 972 976
f 1011 978 974
f 1016 978 1011
f 1015 1013 979
f 980 1015 979
f 1017 1015 980
f 979 1013 976
f 1020 1019 1018
f 1016 1020 1018
f 982 1016 1018
f 978 1016 982
f 983 1017 980
f 983 1021 1017
f 1018 1019 1022
f 1022 1019 1023
f 1022 985 982
f 1022 982 1018
f 1025 1024 986
f 1025 986 987
f 983 986 1021
f 1021 986 1024
f 1022 1023 1026
f 1026 1023 1027
f 1026 989 985
f 1026 985 1022
f 991 1028 992
f 1028 1029 992
f 1029 987 992
f 1029 1025 987
f 1026 1027 1030
f 1030 1027 1031
f 1032 993 989
f 1026 1032 989
f 1030 1032 1026
f 1033 994 993
f 1033 993 1032
f 1033 1034 994
f 994 1034 991
f 1034 1035 991
f 1035 1028 991
f 1028 1035 1029
f 1031 1036 1030
f 1038 1037 1036
f 1037 1030 1036
f 1037 1032 1030
f 1040 1033 1039
f 1033 1037 1039
f 1033 1032 1037
f 1033 1040 1034
f 1038 1041 1037
f 1037 1041 1039
f 1042 1000 1001
f 1002 1043 1001
f 1001 1043 1042
f 1003 1043 1002
f 1044 1005 1006
f 1045 1044 1006
f 1045 1006 1000
f 1046 1045 1000
f 1042 1046 1000
f 1046 1042 1043
f 1046 1043 1047
f 1049 1047 1048
f 1048 1047 1007
f 1047 1043 1007
f 1043 1003 1007
f 1008 1048 1007
f 1051 1050 1044
f 1050 1005 1044
f 1050 1009 1005
f 1051 1044 1045
f 1049 1048 1052
f 1049 1052 1053
f 1010 1052 1008
f 1008 1052 1048
f 1055 1054 1012
f 1012 1054 1011
f 1012 1009 1050
f 1012 1050 1055
f 1053 1052 1014
f 1015 1053 1014
f 1056 1053 1015
f 1014 1052 1010
f 1054 1016 1011
f 1057 1016 1054
f 1017 1056 1015
f 1017 1058 1056
f 1060 1059 1020
f 1020 1059 1019
f 1020 1016 1057
f 1020 1057 1060
f 1063 1062 1061
f 1062 1058 1061
f 1058 1021 1061
f 1058 1017 1021
f 1059 1023 1019
f 1064 1023 1059
f 1063 1061 1024
f 1025 1063 1024
f 1065 1063 1025
f 1024 1061 1021
f 1064 1027 1023
f 1066 1027 1064
f 1029 1065 1025
f 1029 1067 1065
f 1070 1069 1068
f 1066 1070 1068
f 1031 1066 1068
f 1027 1066 1031
f 1072 1071 1035
f 1072 1035 1034
f 1029 1035 1067
f 1067 1035 1071
f 1068 1069 1073
f 1073 1069 1074
f 1075 1036 1031
f 1068 1075 1031
f 1073 1075 1068
f 1075 1038 1036
f 1039 1076 1040
f 1076 1077 1040
f 1077 1034 1040
f 1077 1072 1034
f 1074 1078 1073
f 1080 1079 1078
f 1079 1073 1078
f 1079 1075 1073
f 1081 1041 1038
f 1075 1081 1038
f 1079 1081 1075
f 1081 1082 1041
f 1041 1082 1039
f 1082 1083 1039
f 1083 1076 1039
f 1076 1083 1077
f 1080 1084 1079
f 1079 1084 1081
f 1081 1084 1085
f 1081 1085 1082
f 1086 1045 1046
f 1047 1087 1046
f 1046 1087 1086
f 1049 1087 1047
f 1088 1050 1051
f 1045 1086 1051
f 1086 1088 1051
f 1086 1089 1088
f 1090 1086 1087
f 1089 1086 1090
f 1053 1090 1049
f 1049 1090 1087
f 1092 1091 1055
f 1055 1091 1054
f 1055 1050 1088
f 1093 1055 1088
f 1092 1055 1093
f 1093 1088 1089
f 1093 1089 1094
f 1096 1095 1094
f 1089 1096 1094
f 1090 1096 1089
f 1056 1096 1053
f 1053 1096 1090
f 1091 1057 1054
f 1097 1057 1091
f 1095 1096 1098
f 1095 1098 1099
f 1058 1098 1056
f 1056 1098 1096
f 1101 1100 1060
f 1060 1100 1059
f 1060 1057 1097
f 1060 1097 1101
f 1099 1098 1062
f 1063 1099 1062
f 1102 1099 1063
f 1062 1098 1058
f 1100 1064 1059
f 1103 1064 1100
f 1065 1102 1063
f 1065 1104 1102
f 1107 1106 1105
f 1103 1107 1105
f 1066 1103 1105
f 1064 1103 1066
f 1067 1104 1065
f 1067 1108 1104
f 1105 1106 1070
f 1106 1069 1070
f 1106 1109 1069
f 1105 1070 1066
f 1111 1110 1071
f 1111 1071 1072
f 1067 1071 1108
f 1108 1071 1110
f 1109 1074 1069
f 1112 1074 1109
f 1077 1111 1072
f 1077 1113 1111
f 1078 1074 1114
f 1074 1115 1114
f 1074 1112 1115
f 1114 1080 1078
f 1117 1116 1083
f 1117 1083 1082
f 1077 1083 1113
f 1113 1083 1116
f 1114 1115 1118
f 1118 1115 1119
f 1120 1084 1080
f 1114 1120 1080
f 1118 1120 1114
f 1084 1120 1121
f 1122 1084 1121
f 1085 1084 1122
f 1082 1085 1117
f 1117 1085 1122
f 1119 1123 1118
f 1118 1123 1120
f 1120 1123 1124
f 1120 1124 1121
f 1125 1091 1092
f 1093 1126 1092
f 1092 1126 1125
f 1094 1127 1093
f 1093 1127 1126
f 1095 1127 1094
f 1129 1128 1125
f 1128 1091 1125
f 1128 1097 1091
f 1129 1125 1126
f 1129 1126 1130
f 1132 1131 1130
f 1126 1132 1130
f 1127 1132 1126
f 1099 1132 1095
f 1095 1132 1127
f 1134 1133 1101
f 1101 1133 1100
f 1101 1097 1128
f 1101 1128 1134
f 1131 1132 1135
f 1131 1135 1136
f 1102 1135 1099
f 1099 1135 1132
f 1133 1103 1100
f 1137 1103 1133
f 1136 1135 1138
f 1136 1138 1139
f 1104 1138 1102
f 1102 1138 1135
f 1141 1140 1107
f 1107 1140 1106
f 1107 1103 1137
f 1107 1137 1141
f 1139 1138 1142
f 1139 1142 1143
f 1108 1142 1104
f 1104 1142 1138
f 1140 1109 1106
f 1144 1109 1140
f 1143 1142 1110
f 1111 1143 1110
f 1145 1143 1111
f 1110 1142 1108
f 1148 1147 1146
f 1144 1148 1146
f 1112 1144 1146
f 1109 1144 1112
f 1113 1145 1111
f 1113 1149 1145
f 1147 1150 1146
f 1112 1146 1150
f 1151 1112 1150
f 1115 1112 1151
f 1153 1152 1116
f 1153 1116 1117
f 1113 1116 1149
f 1149 1116 1152
f 1155 1119 1154
f 1119 1151 1154
f 1119 1115 1151
f 1156 1155 1154
f 1121 1157 1122
f 1157 1158 1122
f 1158 1117 1122
f 1158 1153 1117
f 1155 1123 1119
f 1156 1159 1155
f 1159 1123 1155
f 1159 1124 1123
f 1121 1124 1157
f 1124 1160 1157
f 1124 1159 1160
f 1157 1160 1158
f 1161 1128 1129
f 1130 1162 1129
f 1129 1162 1161
f 1131 1162 1130
f 1163 1133 1134
f 1164 1163 1134
f 1164 1134 1128
f 1165 1164 1128
f 1161 1165 1128
f 1167 1166 1165
f 1161 1167 1165
f 1162 1167 1161
f 1136 1167 1131
f 1131 1167 1162
f 1169 1168 1163
f 1168 1133 1163
f 1168 1137 1133
f 1169 1163 1164
f 1170 1166 1167
f 1167 1136 1170
f 1136 1171 1170
f 1136 1139 1171
f 1173 1172 1141
f 1141 1172 1140
f 1141 1137 1168
f 1141 1168 1173
f 1143 1171 1139
f 1143 1174 1171
f 1177 1176 1175
f 1172 1177 1175
f 1144 1172 1175
f 1140 1172 1144
f 1145 1174 1143
f 1145 1178 1174
f 1180 1179 1176
f 1179 1147 1176
f 1148 1175 1176
f 1148 1176 1147
f 1148 1144 1175
f 1179 1180 1181
f 1184 1183 1182
f 1183 1178 1182
f 1178 1149 1182
f 1178 1145 1149
f 1179 1150 1147
f 1186 1185 1151
f 1186 1151 1150
f 1181 1186 1150
f 1179 1181 1150
f 1187 1185 1186
f 1184 1182 1152
f 1153 1184 1152
f 1188 1184 1153
f 1152 1182 1149
f 1185 1154 1151
f 1190 1189 1156
f 1190 1156 1154
f 1187 1190 1154
f 1185 1187 1154
f 1191 1189 1190
f 1158 1188 1153
f 1158 1192 1188
f 1189 1159 1156
f 1191 1193 1189
f 1193 1159 1189
f 1193 1160 1159
f 1158 1160 1192
f 1192 1160 1193
f 1194 1164 1165
f 1166 1194 1165
f 1195 1168 1169
f 1164 1194 1169
f 1194 1195 1169
f 1194 1196 1195
f 1170 1197 1166
f 1197 1194 1166
f 1197 1196 1194
f 1171 1197 1170
f 1199 1198 1173
f 1173 1198 1172
f 1173 1168 1195
f 1200 1173 1195
f 1199 1173 1200
f 1200 1195 1196
f 1200 1196 1201
f 1203 1202 1201
f 1196 1203 1201
f 1197 1203 1196
f 1174 1203 1171
f 1171 1203 1197
f 1204 1176 1177
f 1205 1204 1177
f 1172 1205 1177
f 1198 1205 1172
f 1202 1203 1206
f 1202 1206 1207
f 1178 1206 1174
f 1174 1206 1203
f 1204 1180 1176
f 1209 1208 1181
f 1209 1181 1180
f 1205 1209 1180
f 1204 1205 1180
f 1210 1208 1209
f 1207 1206 1183
f 1184 1207 1183
f 1211 1207 1184
f 1183 1206 1178
f 1208 1186 1181
f 1213 1212 1187
f 1213 1187 1186
f 1210 1213 1186
f 1208 1210 1186
f 1214 1212 1213
f 1188 1211 1184
f 1188 1215 1211
f 1212 1190 1187
f 1217 1216 1191
f 1217 1191 1190
f 1214 1217 1190
f 1212 1214 1190
f 1217 1215 1216
f 1215 1192 1216
f 1215 1188 1192
f 1216 1193 1191
f 1193 1216 1192
f 1218 1198 1199
f 1200 1219 1199
f 1199 1219 1218
f 1201 1220 1200
f 1200 1220 1219
f 1202 1220 1201
f 1222 1221 1218
f 1221 1198 1218
f 1221 1205 1198
f 1222 1218 1219
f 1222 1219 1223
f 1225 1224 1223
f 1219 1225 1223
f 1220 1225 1219
f 1207 1225 1202
f 1202 1225 1220
f 1221 1226 1205
f 1205 1226 1209
f 1210 1209 1226
f 1210 1226 1227
f 1224 1225 1228
f 1224 1228 1229
f 1211 1228 1207
f 1207 1228 1225
f 1227 1230 1210
f 1210 1230 1213
f 1228 1231 1214
f 1230 1228 1214
f 1213 1230 1214
f 1229 1228 1230
f 1215 1231 1211
f 1211 1231 1228
f 1231 1217 1214
f 1217 1231 1215
f 1232 1221 1222
f 1223 1233 1222
f 1222 1233 1232
f 1224 1233 1223
f 1232 1226 1221
f 1226 1232 1227
f 1232 1234 1227
f 1232 1233 1234
f 1229 1234 1224
f 1224 1234 1233
f 1234 1230 1227
f 1230 1234 1229
# 2464 faces, 0 coords texture

# End of File